<?xml version="1.0" encoding="UTF-8"?>
<svg width="24px" height="24px" viewBox="0 0 24 24" version="1.1" xmlns="http://www.w3.org/2000/svg" xmlns:xlink="http://www.w3.org/1999/xlink">
    <title>自助服务模块图标/应用系统软件类</title>
    <g id="自助服务模块图标/应用系统软件类" stroke="none" stroke-width="1" fill="none" fill-rule="evenodd">
        <rect id="矩形" x="0" y="0" width="24" height="24"></rect>
        <rect id="矩形" fill="#1E87F0" x="0" y="0" width="24" height="24" rx="12"></rect>
        <g id="编组" transform="translate(3, 4)" fill="#FFFFFF" fill-rule="nonzero">
            <path d="M5.55691499,0.00196541822 C7.803979,-0.00144382929 10.051043,0.00176487425 12.298107,0.000361066454 C12.9649881,-0.0116715718 13.6286161,0.277713379 14.073068,0.767441756 C14.2885845,0.995059163 14.4280602,1.27682344 14.5870544,1.5425442 C15.5375633,3.16554656 16.4874622,4.78895001 17.4375645,6.41215291 C17.5514222,6.61349906 17.6789023,6.80762562 17.7801543,7.01558972 C18.069475,7.62203469 18.0735414,8.35201475 17.7905235,8.96146787 C17.6951677,9.16662436 17.5691109,9.35593787 17.4578962,9.55287204 C16.5203997,11.1554189 15.5818865,12.7573642 14.6445932,14.359911 C14.468927,14.6444829 14.3257915,14.9523179 14.0994993,15.2029979 C13.7587393,15.5904488 13.2841965,15.8595788 12.7740731,15.9572438 C12.5707557,15.9995585 12.3625586,16.0023662 12.1557848,15.9989569 C10.000417,15.9989569 7.84504912,15.9987564 5.68947794,15.9991575 C5.01995371,16.008583 4.35612237,15.7129812 3.91370369,15.2184398 C3.80084461,15.0926821 3.70181799,14.9554788 3.61828349,14.8091295 L0.426403477,9.35593787 C0.330031025,9.19249453 0.230202177,9.03005391 0.162294162,8.8525725 C-0.0963255828,8.20902689 -0.0438696912,7.4519734 0.305429618,6.85094312 C1.40110714,4.97806297 2.49759793,3.10578446 3.59347877,1.23310486 C3.65427067,1.12741818 3.71790902,1.02333586 3.79293314,0.926673669 C4.20485422,0.381996244 4.86868556,0.0342529976 5.55691499,0.00196541822 M5.45667951,0.94993677 C5.02381674,1.01651737 4.63304068,1.29366914 4.42850337,1.67530431 C3.32672632,3.55781057 2.22454265,5.43991574 1.12317224,7.32262254 C0.885900823,7.73574312 0.887324044,8.268789 1.12540873,8.6811074 C2.1970948,10.512876 3.26939081,12.3442436 4.34148351,14.1760122 C4.41630432,14.3009511 4.48278911,14.4319063 4.57692508,14.544612 C4.79955764,14.8209616 5.13299819,15.0066653 5.48738043,15.0545953 C5.60794766,15.0732459 5.7299381,15.0646225 5.8513186,15.0664274 L12.17449,15.0664274 C12.289771,15.0652242 12.4056619,15.0724438 12.5199263,15.0533921 C12.9172085,14.9980419 13.2850097,14.7676169 13.5033726,14.4355161 C13.5924256,14.2945337 13.6723294,14.1481366 13.7583327,14.0051487 C14.7476752,12.314162 15.737831,10.6237769 16.7271735,8.93279009 C16.8316786,8.75189942 16.9514326,8.57522019 17.0034818,8.37066533 C17.1045306,8.01830958 17.0539045,7.62825155 16.8699023,7.31079045 C15.7585693,5.41244122 14.647643,3.51389144 13.5361067,1.61554221 C13.294769,1.21024284 12.8350683,0.941313379 12.3578823,0.933091076 C10.1146814,0.93329162 7.8716837,0.932890532 5.62848272,0.93329162 C5.57094389,0.93429434 5.51360838,0.940912291 5.45667951,0.94993677 L5.45667951,0.94993677 Z" id="形状"></path>
            <path d="M8.60016997,2.88137576 C9.48134763,2.81519625 10.3800106,2.9696151 11.1823011,3.33741275 C11.868294,3.64965971 12.4831259,4.11231465 12.9714943,4.68085681 C13.4391243,5.2235288 13.7894402,5.86366515 13.9935709,6.54691846 C14.2670328,7.46420659 14.2749622,8.45709979 14.0149192,9.37819825 C13.7286483,10.4021758 13.1075136,11.3306943 12.2682194,11.9958987 C11.7727348,12.391572 11.2026328,12.6963988 10.5953237,12.8877177 C9.86602417,13.121552 9.08406541,13.1859266 8.32406493,13.0906682 C7.50083274,12.9871876 6.7050484,12.6823607 6.02474835,12.2136895 C5.4426506,11.8136042 4.94492959,11.2951981 4.57163882,10.7001841 C4.1603277,10.0466113 3.90231791,9.2999861 3.82302412,8.53491085 C3.73193792,7.67758537 3.86206106,6.79779897 4.20282104,6.00364484 C4.57570517,5.12947367 5.2009062,4.36259353 5.98489814,3.81390522 C6.74896496,3.2756452 7.66368999,2.94895907 8.60016997,2.88137576 M8.60769272,3.81691338 C8.21407021,3.85220912 7.82573396,3.94185228 7.45752613,4.08343632 C6.71358773,4.36780767 6.05666918,4.86495617 5.58090644,5.49606805 C5.12547545,6.09729888 4.83940785,6.82146316 4.76316382,7.56828891 C4.67512738,8.39914258 4.8446941,9.25586642 5.24929575,9.99045899 C5.60123818,10.6350073 6.12762696,11.1857011 6.75831756,11.5717482 C7.40446029,11.967622 8.16039442,12.1898247 8.9216148,12.1988492 C9.71211289,12.2168982 10.5062707,12.0083324 11.183521,11.6062418 C11.8337301,11.2236039 12.3765875,10.6662922 12.7391025,10.0107139 C13.1284553,9.31362309 13.3051381,8.50442816 13.2486159,7.71087567 C13.1998197,6.98831574 12.9570587,6.27919226 12.5477808,5.67776089 C12.1606645,5.09959262 11.6239065,4.62069362 11.0050083,4.29340586 C10.2763187,3.90655654 9.43112823,3.7413083 8.60769272,3.81691338 L8.60769272,3.81691338 Z" id="形状"></path>
            <path d="M8.67926045,5.78866171 C8.80775705,5.67014022 9.00578821,5.63344067 9.16945872,5.69701311 C9.33861881,5.75958283 9.46650546,5.92563324 9.47077512,6.10532064 C9.47199503,6.85876434 9.47036849,7.61240858 9.47158839,8.36585228 C10.0569392,8.73284775 10.6404602,9.10224974 11.2254044,9.46984684 C11.3412953,9.54083941 11.4234355,9.66236905 11.442954,9.79593134 C11.4687753,9.95235564 11.4065602,10.1198099 11.2833498,10.2218867 C11.1552599,10.3317848 10.9645481,10.3638719 10.8065705,10.3033076 C10.7370359,10.2766352 10.6770573,10.2325156 10.6144356,10.1938106 C10.0758477,9.85489127 9.53766655,9.51476869 8.99846878,9.17645101 C8.450935,9.52379317 7.90136804,9.86792662 7.35302098,10.2142661 C7.29507552,10.2505645 7.23814665,10.2908739 7.17145854,10.3103266 C7.037879,10.3544463 6.88437436,10.3351941 6.76665358,10.2583857 C6.63043091,10.1743578 6.54585087,10.0159281 6.55276366,9.85749834 C6.55236976,9.70508492 6.6361238,9.5558802 6.76665358,9.47486044 C7.3532243,9.10565899 7.93918508,8.73545482 8.52595912,8.366855 C8.52534917,7.62724883 8.52595912,6.88784321 8.5257558,6.14823705 C8.52311268,6.01387259 8.57739842,5.87910704 8.67926045,5.78866171 L8.67926045,5.78866171 Z" id="路径"></path>
        </g>
    </g>
</svg>