<?xml version="1.0" encoding="UTF-8"?>
<svg width="24px" height="24px" viewBox="0 0 24 24" version="1.1" xmlns="http://www.w3.org/2000/svg" xmlns:xlink="http://www.w3.org/1999/xlink">
    <title>自助服务模块图标/数据库</title>
    <g id="自助服务模块图标/数据库" stroke="none" stroke-width="1" fill="none" fill-rule="evenodd">
        <rect id="矩形" x="0" y="0" width="24" height="24"></rect>
        <rect id="矩形" fill="#1E87F0" x="0" y="0" width="24" height="24" rx="12"></rect>
        <g id="编组" transform="translate(4, 4)" fill="#FFFFFF" fill-rule="nonzero">
            <path d="M8,0 L8.17777083,0.00087162199 C8.81508822,0.00568785653 9.45175069,0.0417674617 10.0853333,0.108973019 L10.3884375,0.143574385 L10.7093333,0.18681089 L11.0244375,0.235662262 L11.1822083,0.262479841 L11.4924375,0.320006892 C14.100875,0.833290892 15.9284375,1.93125082 15.9977708,3.3742717 L16,3.45946768 L16,12.5405526 C16,14.0255127 14.152,15.1567564 11.4924375,15.6800134 L11.1822292,15.7375202 L11.0244375,15.7643377 L10.7093333,15.8127634 L10.3884375,15.8559999 C9.632875,15.950277 8.83066667,16 8,16 C7.16933333,16 6.36710417,15.950277 5.61154167,15.8559999 L5.29066667,15.8127634 L4.97554167,15.7643175 C2.11954167,15.29427 0.0742083333,14.1530938 0.00220833333,12.6244513 L0,12.5405323 L0,3.45944741 L0.00220833333,3.3742717 C0.0715416667,1.93123055 1.89910417,0.833290892 4.50754167,0.320006892 L4.81777083,0.262479841 L4.97554167,0.235682532 L5.29066667,0.187236566 L5.61154167,0.144000061 C6.28645552,0.0608218223 6.96555378,0.0137577397 7.64577083,0.00302027155 L8,0 Z M11.0244375,11.0075722 L10.7093333,11.0560182 L10.3884375,11.0992547 C9.632875,11.1935115 8.83066667,11.2432547 8,11.2432547 C7.16933333,11.2432547 6.36710417,11.1935115 5.61154167,11.0992547 L5.29066667,11.0559979 L4.97554167,11.0075722 C3.48620833,10.7623829 2.216875,10.3347003 1.33333333,9.76476088 L1.33333333,12.5405526 C1.33333333,12.9651947 1.836875,13.4075732 2.688875,13.7807693 L2.892,13.8655194 C3.20533333,13.9909316 3.55866667,14.1072424 3.94620833,14.2106006 L4.20977083,14.2776344 C4.4896676,14.3452939 4.77173841,14.4041355 5.05554167,14.4540669 L5.35510417,14.5037899 L5.66220833,14.5483237 C5.87397864,14.5769843 6.08632023,14.6014961 6.29910417,14.621844 L6.62754167,14.6503846 L6.96220833,14.6728846 L7.30310417,14.6893035 C7.76751272,14.7071838 8.23246645,14.7071838 8.696875,14.6893035 L9.03777083,14.6728846 L9.3724375,14.6503846 L9.70133333,14.621844 C9.91396202,14.6014708 10.1261503,14.5769591 10.3377708,14.5483237 L10.644875,14.5037899 L10.9444375,14.4540669 C11.2395417,14.402175 11.5222083,14.342925 11.7902083,14.2776344 L12.0537708,14.2106006 C12.4413333,14.1068168 12.7946667,13.9909316 13.108,13.8655194 L13.3111042,13.7807693 C14.1302083,13.4218435 14.6275625,12.9993501 14.6644375,12.589404 L14.6666667,12.5405526 L14.6666667,9.7643352 C13.7835417,10.3347003 12.5142083,10.7623829 11.0244375,11.0075722 Z M14.6666667,5.43999554 C13.8271042,5.98184036 12.64,6.39480675 11.2457708,6.64518524 L11.0235417,6.68325282 L10.708875,6.73167852 L10.388,6.77491502 C9.6324375,6.86919209 8.83020833,6.91891508 7.99954167,6.91891508 C7.28754167,6.91891508 6.5964375,6.88259074 5.93733333,6.81253666 L5.61110417,6.77493529 L5.29020833,6.73169879 L4.97510417,6.68325282 C3.48577083,6.4380838 2.2164375,6.01040119 1.332875,5.44046176 L1.332875,7.78378707 C1.332875,8.20844941 1.8364375,8.65080771 2.6884375,9.02400381 L2.8915625,9.10875385 C3.20489583,9.23416606 3.55822917,9.35049719 3.94577083,9.45383507 L4.2093125,9.52086889 C4.48921616,9.58852884 4.77129393,9.64737039 5.05510417,9.69730139 L5.35466667,9.74702439 L5.66177083,9.79157846 C5.87353436,9.82023205 6.085869,9.84473702 6.29864583,9.86507849 L6.62710417,9.89361904 L6.96177083,9.91611905 L7.30266667,9.93253798 C7.76707522,9.95041832 8.23202895,9.95041832 8.6964375,9.93253798 L9.03733333,9.91611905 L9.372,9.89361904 L9.700875,9.86507849 C9.9135105,9.84471227 10.1257058,9.82020735 10.3373333,9.79157846 L10.6444375,9.74702439 L10.944,9.69730139 C11.2391042,9.64540948 11.5217708,9.58615945 11.7897708,9.52086889 L12.0533125,9.45383507 C12.440875,9.35005125 12.7942083,9.23416606 13.1075417,9.10875385 L13.3106667,9.02400381 C14.1297708,8.66507798 14.6271042,8.24258456 14.664,7.83265871 L14.6662083,7.78378707 L14.6662083,5.43999554 L14.6666667,5.43999554 Z M8,1.29729785 L7.824,1.29816947 L7.56177083,1.30248704 L7.30310417,1.3106965 L6.96220833,1.3271357 L6.62754167,1.34963571 L6.29866667,1.37815599 C6.15420833,1.39200059 6.012,1.40756816 5.87154167,1.42485871 L5.66266667,1.45167629 L5.35510417,1.49621009 L5.05554167,1.54595336 C4.84045982,1.58382354 4.62633029,1.62664638 4.41333333,1.67438584 L4.20977083,1.72193992 L3.94622917,1.7893994 C3.62354167,1.87589268 3.324,1.9710211 3.052,2.07265628 L2.892,2.13448063 L2.688875,2.21925094 C1.836875,2.59242677 1.33333333,3.03480534 1.33333333,3.45946768 C1.33333333,3.86594758 1.79420833,4.28799505 2.58,4.65081277 L2.688875,4.69966415 L2.892,4.78443445 C3.152875,4.8890899 3.44177083,4.98723859 3.75554167,5.07675214 L3.94666667,5.12951568 L4.20977083,5.19654949 C4.41066667,5.24540086 4.61997917,5.29080629 4.8364375,5.33276577 L5.05554167,5.372982 L5.35510417,5.42270499 L5.66220833,5.4672388 C5.8004375,5.48627259 5.940875,5.50313746 6.08354167,5.51913071 L6.29910417,5.5407591 L6.62754167,5.56929965 L6.96220833,5.59179966 L7.30310417,5.60821858 C7.69091507,5.62314034 8.07912673,5.62559438 8.46710417,5.6155767 L8.69689583,5.60821858 L9.03777083,5.59179966 L9.3724375,5.56929965 L9.70133333,5.5407591 C9.84577083,5.5269145 9.988,5.51136719 10.1284375,5.49405637 L10.3373333,5.4672388 L10.644875,5.42270499 L10.9444375,5.372982 C11.1595263,5.33511213 11.3736628,5.29228929 11.5866667,5.24454951 L11.7902083,5.19697517 L12.0537708,5.12951568 C12.3764375,5.0430224 12.676,4.94789398 12.948,4.84627907 L13.108,4.78443445 L13.3111042,4.69968442 C14.1631042,4.32648831 14.6666667,3.88410975 14.6666667,3.45946768 C14.6666667,3.05296751 14.2057708,2.63092003 13.42,2.26810231 L13.3111042,2.21925094 L13.1079792,2.13448063 C12.8255051,2.02261846 12.5372728,1.92504885 12.2444375,1.84216294 L12.0533333,1.7893994 L11.7902083,1.72238586 C11.5825047,1.67196442 11.373552,1.62654513 11.1635417,1.58616959 L10.9444375,1.54595336 L10.644875,1.49621009 L10.3377708,1.45167629 C10.1975692,1.43256136 10.0571123,1.41526252 9.9164375,1.39978437 L9.700875,1.37815599 L9.3724375,1.34961543 L9.03777083,1.3271357 L8.696875,1.31071677 C8.5444375,1.30463569 8.39020833,1.30076406 8.23466667,1.29859514 L8,1.29729785 Z" id="形状"></path>
        </g>
    </g>
</svg>