<?xml version="1.0" encoding="UTF-8"?>
<svg width="12px" height="14px" viewBox="0 0 12 14" version="1.1" xmlns="http://www.w3.org/2000/svg" xmlns:xlink="http://www.w3.org/1999/xlink">
    <title>自动化运维备份</title>
    <g id="控件" stroke="none" stroke-width="1" fill="none" fill-rule="evenodd">
        <g id="自动化运维备份" transform="translate(-1, 0)">
            <rect id="矩形" x="0" y="0" width="14" height="14"></rect>
            <g id="编组" transform="translate(1, 0)" fill="#D8D8D8" fill-rule="nonzero">
                <g id="Fill-1-Clipped">
                    <path d="M9.20228327,6.21087066 C9.20228327,6.93447408 8.77417053,7.56155008 8.15626115,7.8638148 C8.15055298,7.86945143 8.14484481,7.87438349 8.13485551,7.88002013 L6.36603639,8.8213387 C6.24331074,8.89179668 6.08919015,8.80442879 6.08919015,8.66351283 L6.08919015,8.05546049 L4.66571531,8.05546049 C3.63753122,8.05546049 2.79700321,7.22546553 2.79700321,6.21087066 L2.79700321,5.94735783 C2.79700321,4.93276296 3.63753122,4.10276799 4.66571531,4.10276799 L7.33428469,4.10276799 C8.36175526,4.10276799 9.20228327,4.93276296 9.20228327,5.94735783 L9.20228327,6.21087066 Z M11.3778095,4.80523402 L11.008919,4.80523402 C10.8726365,4.12813286 10.5030325,3.5313538 9.98287549,3.10578762 C9.394934,2.7408153 8.49946486,2.48716658 7.14520157,2.39909411 L6.26257581,2.37302466 L6.26257581,1.30135883 C6.5108812,1.19919477 6.68498038,0.958228485 6.68498038,0.676396578 C6.68498038,0.3029693 6.37816625,0 6,0 C5.62112023,0 5.31501962,0.3029693 5.31501962,0.676396578 C5.31501962,0.958228485 5.4891188,1.19919477 5.73742419,1.30135883 L5.73742419,2.37302466 L4.96325366,2.39557121 C3.45486978,2.48716658 2.49661077,2.78097635 1.89439886,3.20301963 C1.43275062,3.62013085 1.10667142,4.17815803 0.980378166,4.80523402 L0.62219051,4.80523402 C0.279700321,4.80523402 0,5.08213387 0,5.42033216 L0,6.29894313 C0,6.63643684 0.279700321,6.91404127 0.62219051,6.91404127 L0.924723511,6.91404127 C0.951123796,7.73628586 1.31716019,8.47750377 1.89439886,8.9988928 C2.48876204,9.41600403 3.43132358,9.70629089 4.90545844,9.80140916 C4.90046379,9.83381983 4.8976097,9.86763966 4.8976097,9.90709612 L4.8976097,10.1952693 C4.8976097,10.5123301 5.15804495,10.7702063 5.4791295,10.7702063 L5.50981092,10.7702063 L5.50981092,11.2634122 L3.2907599,11.2634122 C2.71280771,11.2634122 2.24045665,11.729844 2.24045665,12.3005536 L2.24045665,13.0220433 C3.29932215,13.6420735 4.5344274,14 5.85515519,14 C7.29361399,14 8.63217981,13.5751384 9.75026757,12.8480121 L9.75026757,12.3005536 C9.75026757,11.729844 9.277203,11.2634122 8.69996432,11.2634122 L6.48091331,11.2634122 L6.48091331,10.7702063 L6.51159472,10.7702063 C6.83267927,10.7702063 7.09311452,10.5123301 7.09311452,10.1952693 L7.09311452,9.90709612 C7.09311452,9.86834424 7.09311452,9.83452441 7.092401,9.80422748 L7.14520157,9.80281832 C8.49946486,9.71545043 9.394934,9.46109713 9.98287549,9.09682939 C10.6236176,8.57262204 11.0374599,7.78912934 11.0652872,6.91404127 L11.3778095,6.91404127 C11.7195862,6.91404127 12,6.63643684 12,6.29894313 L12,5.42033216 C12,5.08213387 11.7195862,4.80523402 11.3778095,4.80523402 L11.3778095,4.80523402 Z" id="Fill-1"></path>
                </g>
                <path d="M4.50028653,7 C4.22406877,7 4,6.77605956 4,6.5 C4,6.22394044 4.22406877,6 4.50028653,6 C4.77593123,6 5,6.22394044 5,6.5 C5,6.77605956 4.77593123,7 4.50028653,7" id="Fill-3"></path>
                <path d="M7.5,7 C7.22394044,7 7,6.77605956 7,6.5 C7,6.22394044 7.22394044,6 7.5,6 C7.77605956,6 8,6.22394044 8,6.5 C8,6.77605956 7.77605956,7 7.5,7" id="Fill-5"></path>
            </g>
        </g>
    </g>
</svg>