<?xml version="1.0" encoding="UTF-8"?>
<svg width="11.8496822px" height="14px" viewBox="0 0 11.8496822 14" version="1.1" xmlns="http://www.w3.org/2000/svg" xmlns:xlink="http://www.w3.org/1999/xlink">
    <title>工作台 6</title>
    <defs>
        <polygon id="path-1" points="2 1 13.8496822 1 13.8496822 15 2 15"></polygon>
    </defs>
    <g id="设计稿" stroke="none" stroke-width="1" fill="none" fill-rule="evenodd">
        <g id="导航/菜单项/默认备份-7" transform="translate(-9, -7)">
            <g id="巡检管理-(2)" transform="translate(7, 6)">
                <g id="Fill-1-Clipped">
                    <rect id="矩形" x="1" y="1" width="14" height="14"></rect>
                    <rect id="矩形" x="0" y="0" width="16" height="16"></rect>
                    <mask id="mask-2" fill="white">
                        <use xlink:href="#path-1"></use>
                    </mask>
                    <g id="path-2"></g>
                    <path d="M11.087011,7.21083146 C11.087011,7.93443852 10.664261,8.56151767 10.0540919,8.86378391 C10.0484552,8.86942058 10.0428185,8.87435266 10.0329544,8.87998933 L8.28629233,9.82131264 C8.165104,9.89177097 8.01291401,9.80440264 8.01291401,9.66348598 L8.01291401,9.05543058 L6.60727029,9.05543058 C5.59196574,9.05543058 4.76196659,8.22543143 4.76196659,7.21083146 L4.76196659,6.9473173 C4.76196659,5.93271733 5.59196574,5.10271818 6.60727029,5.10271818 L9.24241189,5.10271818 C10.2570119,5.10271818 11.087011,5.93271733 11.087011,6.9473173 L11.087011,7.21083146 Z M13.2352855,5.80518775 L12.871016,5.80518775 C12.7364405,5.12808318 12.3714664,4.53130111 11.8578252,4.10573279 C11.2772485,3.74075863 10.3929964,3.48710864 9.05569731,3.39903573 L8.18412775,3.37296614 L8.18412775,2.30129492 C8.42932274,2.19913034 8.60124107,1.95816285 8.60124107,1.67632952 C8.60124107,1.30290037 8.29827025,0.999929542 7.92484109,0.999929542 C7.55070735,0.999929542 7.24844111,1.30290037 7.24844111,1.67632952 C7.24844111,1.95816285 7.42035944,2.19913034 7.66555443,2.30129492 L7.66555443,3.37296614 L6.90108154,3.39551281 C5.41159241,3.48710864 4.46533702,3.78091988 3.8706687,4.20296529 C3.4148033,4.62007861 3.09280872,5.1781086 2.96809747,5.80518775 L2.61439665,5.80518775 C2.27619666,5.80518775 2,6.08208899 2,6.42028898 L2,7.29890437 C2,7.63639978 2.27619666,7.91400561 2.61439665,7.91400561 L2.91313998,7.91400561 C2.93920956,8.73625433 3.3006608,9.47747598 3.8706687,9.99886763 C4.4575866,10.415981 5.38834116,10.7062693 6.84401029,10.801388 C6.8390782,10.8337989 6.83625987,10.8676189 6.83625987,10.9070755 L6.83625987,11.1952501 C6.83625987,11.5123126 7.09343278,11.7701901 7.41049527,11.7701901 L7.44079235,11.7701901 L7.44079235,12.2633984 L5.24953825,12.2633984 C4.67882576,12.2633984 4.21239161,12.7298326 4.21239161,13.300545 L4.21239161,14.0220384 C5.25799325,14.6420717 6.47762696,15 7.78181068,15 C9.20225064,15 10.5240489,14.5751363 11.628131,13.8480063 L11.628131,13.300545 C11.628131,12.7298326 11.1609923,12.2633984 10.5909844,12.2633984 L8.39973025,12.2633984 L8.39973025,11.7701901 L8.43002733,11.7701901 C8.74708982,11.7701901 9.00426273,11.5123126 9.00426273,11.1952501 L9.00426273,10.9070755 C9.00426273,10.8683234 9.00426273,10.8345034 9.00355815,10.8042064 L9.05569731,10.8027972 C10.3929964,10.7154289 11.2772485,10.4610743 11.8578252,10.0968047 C12.490541,9.57259473 12.8991993,8.78909808 12.926678,7.91400561 L13.2352855,7.91400561 C13.5727809,7.91400561 13.8496822,7.63639978 13.8496822,7.29890437 L13.8496822,6.42028898 C13.8496822,6.08208899 13.5727809,5.80518775 13.2352855,5.80518775 L13.2352855,5.80518775 Z" id="Fill-1" fill="#FFFFFF" fill-rule="nonzero" mask="url(#mask-2)"></path>
                </g>
                <path d="M6.69506137,7.60617316 C6.35545222,7.60617316 6.07996014,7.33068108 6.07996014,6.99107192 C6.07996014,6.65146277 6.35545222,6.37597069 6.69506137,6.37597069 C7.03396595,6.37597069 7.30945802,6.65146277 7.30945802,6.99107192 C7.30945802,7.33068108 7.03396595,7.60617316 6.69506137,7.60617316" id="Fill-3" fill="#FFFFFF" fill-rule="nonzero"></path>
                <path d="M9.24227097,7.60617316 C8.90266182,7.60617316 8.62716974,7.33068108 8.62716974,6.99107192 C8.62716974,6.65146277 8.90266182,6.37597069 9.24227097,6.37597069 C9.58188013,6.37597069 9.85737221,6.65146277 9.85737221,6.99107192 C9.85737221,7.33068108 9.58188013,7.60617316 9.24227097,7.60617316" id="Fill-5" fill="#FFFFFF" fill-rule="nonzero"></path>
            </g>
        </g>
    </g>
</svg>