<?xml version="1.0" encoding="UTF-8"?>
<svg width="24px" height="24px" viewBox="0 0 24 24" version="1.1" xmlns="http://www.w3.org/2000/svg" xmlns:xlink="http://www.w3.org/1999/xlink">
    <title>自助服务模块图标/辅助设备</title>
    <g id="自助服务模块图标/辅助设备" stroke="none" stroke-width="1" fill="none" fill-rule="evenodd">
        <rect id="矩形" x="0" y="0" width="24" height="24"></rect>
        <rect id="矩形" fill="#1E87F0" x="0" y="0" width="24" height="24" rx="12"></rect>
        <g id="编组" transform="translate(3, 4.5)" fill="#FFFFFF" fill-rule="nonzero">
            <path d="M10.24245,15 L10.24245,14.0586819 L18,14.0586819 L18,15 L10.24245,15 Z M8.87715001,15 L4.5,15 L0,7.50022296 L4.5,0 L13.5,0 L18,7.49977704 L16.89795,7.49977704 L12.94875,0.977436911 L5.05035001,0.977436911 L1.10114999,7.49977704 L5.05035001,14.0221172 L8.87535001,14.0221172 L8.87535001,14.9995541 L8.87715001,15 Z M10.24245,12.535004 L10.24245,11.5936859 L18,11.5936859 L18,12.535004 L10.24245,12.535004 Z M8.87715001,10.9426559 C8.03265785,10.8599805 7.24772262,10.4744884 6.6699,9.85864621 C6.09253045,9.24634086 5.77091547,8.43988932 5.76989999,7.60189066 C5.79239263,5.72853049 7.34071062,4.22659414 9.2313,4.24418087 C10.1290022,4.24110969 10.9931812,4.5818829 11.6433,5.19530901 C12.2872629,5.79555312 12.6643877,6.62458527 12.6918,7.50022296 L11.7585,7.50022296 C11.7315395,6.16850811 10.6577901,5.09046508 9.3143327,5.04628214 C7.97087534,5.0020992 6.8273536,6.00722174 6.7113432,7.33423464 C6.59533281,8.66124753 7.54738848,9.84625584 8.87849999,10.0316597 L8.87849999,10.9422099 L8.87715001,10.9426559 Z M10.24245,10.070008 L10.24245,9.12868991 L18,9.12868991 L18,10.070008 L10.24245,10.070008 Z" id="形状"></path>
        </g>
    </g>
</svg>