<?xml version="1.0" encoding="UTF-8"?>
<svg width="24px" height="24px" viewBox="0 0 24 24" version="1.1" xmlns="http://www.w3.org/2000/svg" xmlns:xlink="http://www.w3.org/1999/xlink">
    <title>自助服务模块图标/云平台</title>
    <g id="自助服务模块图标/云平台" stroke="none" stroke-width="1" fill="none" fill-rule="evenodd">
        <rect id="矩形" x="0" y="0" width="24" height="24"></rect>
        <rect id="矩形" fill="#1E87F0" x="0" y="0" width="24" height="24" rx="12"></rect>
        <g id="编组" transform="translate(3, 3)" fill="#FFFFFF" fill-rule="nonzero">
            <path d="M4.70252996,10.451325 C2.93368842,10.451325 1.49560586,9.02873082 1.49560586,7.27894003 C1.49560586,5.52914923 2.93368842,4.10655509 4.70252996,4.10655509 C4.90865513,4.10655509 5.10998668,4.12552301 5.31131824,4.16345886 C5.6229028,4.22036262 5.82902796,4.51910739 5.76671105,4.82733612 C5.70918775,5.13556485 5.40719041,5.33947001 5.09560586,5.27782427 C4.96617843,5.25411437 4.836751,5.23988842 4.70732357,5.23988842 C3.57123835,5.23988842 2.65086551,6.15034868 2.65086551,7.27419805 C2.65086551,8.39804742 3.57123835,9.30850767 4.70732357,9.30850767 C5.02370173,9.30850767 5.28255659,9.56457462 5.28255659,9.87754533 C5.28255659,10.190516 5.01890812,10.451325 4.70252996,10.451325 Z" id="路径"></path>
            <path d="M5.21065246,5.25885635 C4.9517976,5.25885635 4.71211718,5.08340307 4.64980027,4.82259414 C4.57789614,4.52859135 4.54434088,4.2251046 4.54434088,3.91687587 C4.54434088,1.75927476 6.31797603,0 8.50386152,0 C9.54407457,0 10.5267643,0.39832636 11.2697736,1.11436541 C12.012783,1.83514644 12.4346205,2.7930265 12.4585885,3.82203626 C12.4681758,4.13500697 12.2141145,4.3958159 11.8977364,4.40529986 L11.8833555,4.40529986 C11.571771,4.40529986 11.3177097,4.15871688 11.3081225,3.85048815 C11.2745672,2.3567643 10.0138482,1.13807531 8.49906791,1.13807531 C6.95073236,1.13807531 5.69001332,2.38521618 5.69001332,3.91687587 C5.69001332,4.13500697 5.71398136,4.34839609 5.76671105,4.56178522 C5.83861518,4.86527197 5.64687084,5.1735007 5.34007989,5.2446304 C5.29693742,5.25411437 5.25379494,5.25885635 5.21065246,5.25885635 L5.21065246,5.25885635 Z" id="路径"></path>
            <path d="M12.5065246,10.451325 C12.1901465,10.451325 11.9312916,10.195258 11.9312916,9.88228731 C11.9312916,9.5693166 12.1901465,9.31324965 12.5065246,9.31324965 C13.8822903,9.31324965 14.9992011,8.2083682 14.9992011,6.8474198 C14.9992011,5.48647141 13.8822903,4.38158996 12.5065246,4.38158996 C12.3387483,4.38158996 12.1661784,4.40055788 12.0031957,4.43375174 C11.6916112,4.49539749 11.3896138,4.29623431 11.3225033,3.98800558 C11.2601864,3.67977685 11.461518,3.38103208 11.7683089,3.31464435 C12.0079893,3.26722455 12.257257,3.24351464 12.501731,3.24351464 C14.510253,3.24351464 16.1448735,4.86052999 16.1448735,6.8474198 C16.1448735,8.83430962 14.5150466,10.451325 12.5065246,10.451325 L12.5065246,10.451325 Z" id="路径"></path>
            <polygon id="路径" points="4.72170439 9.31324965 12.5065246 9.31324965 12.5065246 10.451325 4.72170439 10.451325"></polygon>
            <path d="M4.45805593,13.6237099 L3.2644474,13.6237099 L3.2644474,12.4856346 L4.45805593,12.4856346 C4.54434088,12.4856346 4.61624501,12.4145049 4.61624501,12.3291492 L4.61624501,9.99609484 L5.76671105,9.99609484 L5.76671105,12.3291492 C5.76671105,13.0451883 5.18189081,13.6237099 4.45805593,13.6237099 L4.45805593,13.6237099 Z M8.22583222,10.1668061 L9.37629827,10.1668061 L9.37629827,13.6758717 L8.22583222,13.6758717 L8.22583222,10.1668061 Z M15.0279627,13.8608089 L13.1057257,13.8608089 C12.3866844,13.8608089 11.7970706,13.2822873 11.7970706,12.5662483 L11.7970706,10.1620642 L12.9475366,10.1620642 L12.9475366,12.5662483 C12.9475366,12.6516039 13.0194407,12.7227336 13.1057257,12.7227336 L15.0279627,12.7227336 L15.0279627,13.8608089 L15.0279627,13.8608089 Z" id="形状"></path>
            <path d="M2.01331558,15.1221757 C0.901198402,15.1221757 0,14.2306834 0,13.1305439 C0,12.0304045 0.901198402,11.1389121 2.01331558,11.1389121 C3.12543276,11.1389121 4.02663116,12.0304045 4.02663116,13.1305439 C4.02663116,14.2306834 3.12543276,15.1221757 2.01331558,15.1221757 Z M2.01331558,12.2769874 C1.53874834,12.2769874 1.15046605,12.6610879 1.15046605,13.1305439 C1.15046605,13.6 1.53874834,13.9841004 2.01331558,13.9841004 C2.48788282,13.9841004 2.87616511,13.6 2.87616511,13.1305439 C2.87616511,12.6610879 2.48788282,12.2769874 2.01331558,12.2769874 Z M8.74354194,17 C7.63142477,17 6.73022636,16.1085077 6.73022636,15.0083682 C6.73022636,13.9082287 7.63142477,13.0167364 8.74354194,13.0167364 C9.85565912,13.0167364 10.7568575,13.9082287 10.7568575,15.0083682 C10.7568575,16.1085077 9.85086551,17 8.74354194,17 Z M8.74354194,14.1548117 C8.2689747,14.1548117 7.88069241,14.5389121 7.88069241,15.0083682 C7.88069241,15.4778243 8.2689747,15.8619247 8.74354194,15.8619247 C9.21810919,15.8619247 9.60639148,15.4778243 9.60639148,15.0083682 C9.60639148,14.5389121 9.21810919,14.1548117 8.74354194,14.1548117 L8.74354194,14.1548117 Z M15.9866844,15.2312413 C14.8745672,15.2312413 13.9733688,14.339749 13.9733688,13.2396095 C13.9733688,12.13947 14.8745672,11.2479777 15.9866844,11.2479777 C17.0988016,11.2479777 18,12.13947 18,13.2396095 C18,14.339749 17.094008,15.2312413 15.9866844,15.2312413 Z M15.9866844,12.386053 C15.5121172,12.386053 15.1238349,12.7701534 15.1238349,13.2396095 C15.1238349,13.7090656 15.5121172,14.093166 15.9866844,14.093166 C16.4612517,14.093166 16.849534,13.7090656 16.849534,13.2396095 C16.849534,12.7701534 16.4612517,12.386053 15.9866844,12.386053 Z" id="形状"></path>
        </g>
    </g>
</svg>