<svg width="14px" height="14px" viewBox="0 0 14 14" fill="none" xmlns="http://www.w3.org/2000/svg">
<g clip-path="url(#clip0_2_73)">
<path d="M5.7 14H0.199997V2.5C0.199997 1.1 1.3 0 2.7 0H12.2V5.5C12.2 5.8 12 6 11.7 6C11.4 6 8.11191 4.83042 6.04875 7.7C3.9856 10.5696 6.2 13.2 6.2 13.5C6.2 13.8 6 14 5.7 14ZM10.2 3.5C10.2 3.2 10 3 9.7 3H2.7C2.4 3 2.2 3.2 2.2 3.5C2.2 3.8 2.4 4 2.7 4H9.7C10 4 10.2 3.8 10.2 3.5ZM6.2 6.5C6.2 6.2 6 6 5.7 6H2.7C2.4 6 2.2 6.2 2.2 6.5C2.2 6.8 2.4 7 2.7 7H5.7C6 7 6.2 6.8 6.2 6.5ZM4.2 9.5C4.2 9.2 4 9 3.7 9H2.7C2.4 9 2.2 9.2 2.2 9.5C2.2 9.8 2.4 10 2.7 10H3.7C4 10 4.2 9.8 4.2 9.5ZM13.8 10.5C13.8 10.9 13.7 11.2 13.6 11.6C13.2 11.5 12.8 11.6 12.6 11.9C12.4 12.3 12.5 12.7 12.8 12.9C12.3 13.4 11.7 13.8 10.9 14C10.9 13.6 10.5 13.3 10.1 13.3C9.7 13.3 9.4 13.6 9.3 14C8.6 13.8 7.9 13.5 7.4 12.9C7.7 12.7 7.8 12.2 7.6 11.9C7.4 11.5 7 11.4 6.6 11.6C6.5 11.3 6.4 10.9 6.4 10.5C6.4 10.1 6.5 9.8 6.6 9.4C7 9.5 7.4 9.4 7.6 9.1C7.8 8.7 7.7 8.3 7.4 8.1C8.1 7.5 8.7 7.2 9.5 7C9.5 7.4 9.9 7.7 10.3 7.7C10.7 7.7 11 7.4 11.1 7C11.8 7.2 12.5 7.5 13 8.1C12.7 8.3 12.6 8.8 12.8 9.1C13 9.5 13.4 9.6 13.8 9.4C13.7 9.8 13.8 10.1 13.8 10.5ZM11.7 10.5C11.7 9.7 11.1 9.1 10.3 9.1C9.5 9.1 8.9 9.7 8.9 10.5C8.9 11.3 9.5 11.9 10.3 11.9C11.1 11.9 11.7 11.3 11.7 10.5Z" fill="white"/>
</g>
<defs>
<clipPath id="clip0_2_73">
<rect width="14" height="14" fill="white"/>
</clipPath>
</defs>
</svg>
