<?xml version="1.0" encoding="UTF-8"?>
<svg width="16px" height="16px" viewBox="0 0 16 16" version="1.1" xmlns="http://www.w3.org/2000/svg" xmlns:xlink="http://www.w3.org/1999/xlink">
    <title>通用图标/菜单图标/指挥调度管理</title>
    <g id="通用图标/菜单图标/指挥调度管理" stroke="none" stroke-width="1" fill="none" fill-rule="evenodd">
        <rect id="矩形" x="0" y="0" width="16" height="16"></rect>
        <g id="编组" fill="#BCBECA" fill-rule="nonzero">
            <path d="M7.16732944,14.7231226 L8.14740186,14.0817686 C8.29879517,13.9826502 8.49401284,13.9729328 8.65536623,14.0565031 L9.69121514,14.5948518 C9.8386244,14.6706481 9.93623324,14.8144669 9.95216938,14.9777206 L9.99798577,15.4733123 C10.023882,15.7551194 9.79679205,16 9.50595754,16 L7.49402025,16 C7.2211139,16 7,15.7842718 7,15.5180128 L7,15.0321386 C7,14.9077548 7.06374455,14.7930884 7.16732944,14.7231226 L7.16732944,14.7231226 Z" id="路径"></path>
            <path d="M7.04876378,2.96864407 C7.05023518,2.96412429 7.05170657,2.95451977 7.04484005,2.95 L7.01933584,2.95677966 C7.01639304,2.95734463 7.01394071,2.9579096 7.01148838,2.9579096 C7.01492164,2.96129944 7.01639304,2.96694915 7.01541211,2.9720339 L7.01590258,2.98163842 C7.01590258,2.98559322 7.01246932,2.98841808 7.00952652,2.98672316 L6.99922674,2.98107345 C6.99922674,2.98107345 6.99873628,2.98107345 6.99873628,2.98050847 C6.99873628,2.98050847 6.99824581,2.98050847 6.99824581,2.9799435 C6.97911765,2.96694915 6.96244181,2.96355932 6.95459436,2.9720339 C6.94331365,2.98446328 6.95361343,3.01779661 6.97666532,3.05 L7.04876378,2.96864407 L7.04876378,2.96864407 Z" id="路径"></path>
            <path d="M6.96422672,2.03489829 C6.97669196,2.04769217 6.99503789,2.05286049 7.01234859,2.04845494 C7.02965929,2.04404939 7.04330251,2.03073987 7.04813513,2.01354371 C7.05296776,1.99634754 7.04825494,1.97787957 7.03577328,1.96510171 C7.02330804,1.95230783 7.00496211,1.94713951 6.98765141,1.95154506 C6.97034071,1.95595061 6.95669749,1.96926013 6.95186487,1.98645629 C6.94703224,2.00365246 6.95174506,2.02212043 6.96422672,2.03489829 L6.96422672,2.03489829 Z" id="路径"></path>
            <path d="M7.9482262,3.96715864 C8.01466243,3.92161978 8.01768225,3.84355316 7.95426585,3.79584579 C7.89084945,3.74813841 7.78213562,3.74596989 7.71569939,3.79150875 C7.64926316,3.83704761 7.64624333,3.91511423 7.70965973,3.9628216 C7.77307613,4.01052898 7.87877014,4.0126975 7.9482262,3.96715864 Z M7.14193195,3 L7,3.09975179 C7.04831726,3.11276289 7.09361469,3.10842586 7.12381297,3.08674069 C7.15099143,3.06722403 7.15703109,3.03469627 7.14495178,3.00216852 C7.1479716,3.00216852 7.14495178,3.00216852 7.14193195,3 Z" id="形状"></path>
            <path d="M6.96420594,3.0349103 C6.98348606,3.05467909 7.01514148,3.05507525 7.03491029,3.03579514 C7.0546791,3.01651503 7.05507526,2.98485964 7.03579513,2.96509085 C7.02332308,2.95230268 7.00497602,2.94713968 6.98766511,2.9515467 C6.97035419,2.95595372 6.95670937,2.96926123 6.95187051,2.98645643 C6.94703165,3.00365162 6.95173389,3.02212213 6.96420594,3.0349103 L6.96420594,3.0349103 Z" id="路径"></path>
            <path d="M7.90577924,2.59597425 C7.94083813,2.54736964 7.92769104,2.44408487 7.88167625,2.32561115 C7.87948507,2.32257336 7.87948507,2.31649779 7.87729389,2.31346 L7.85757327,2.25574203 C7.85099973,2.23751531 7.86195563,2.21321301 7.87729389,2.21625079 L7.9101616,2.21928858 C7.92988222,2.21017522 7.95179403,2.21928858 7.96713229,2.24055309 C7.96713229,2.22536416 7.96932347,2.21017522 7.97151465,2.19194849 L8,2.03398354 C7.98466174,1.9944923 7.95398521,1.99753009 7.93645577,2.00360566 L7.60777869,2.44712265 C7.7304848,2.59597425 7.85757327,2.66280557 7.90577924,2.59597425 L7.90577924,2.59597425 Z M7.02054232,2.87241292 C6.99863051,2.9027908 6.99424815,2.94835761 7.00739523,2.99696221 C7.00958641,2.99696221 7.00958641,3 7.0117776,3 L7.11695426,2.85722398 C7.07970419,2.83595947 7.04245412,2.84203504 7.02054232,2.87241292 Z" id="形状"></path>
            <path d="M13.5316838,14.3769865 L13.2981291,14.5718196 L13.08449,15.6067588 L10.8322269,15.6067588 L10.7145444,14.6701299 L10.4972842,14.5146209 L9.49064575,14.954336 L8.26674713,12.8540707 L9.06155703,12.2677838 L9.05612553,11.8584555 L8.26674713,11.2739562 L9.51418226,9.2952381 L10.1207001,9.63843039 C10.1569101,9.31490015 10.1225106,8.95383326 10.2727821,8.68035191 C10.4049487,8.43725737 10.7036814,8.43725737 10.8539529,8.22812456 C10.9897405,8.04044128 11.078455,7.70976121 11.1219071,7.47917889 C11.1997586,7.05733836 11.2667471,6.47998883 11.0657815,6.06172322 C10.9499095,5.82041614 10.8774894,5.79717916 10.8449004,5.50582321 C10.8050694,5.15190616 10.9499095,3.99720709 10.955341,3.74696271 C10.9571515,3.63077782 10.958962,3.51638039 10.958962,3.40198296 C11.0730235,3.36087139 11.1635486,3.26077363 11.1961376,3.13207653 L11.6469523,2.13467393 C11.7121304,1.88264209 11.5347013,1.63239771 11.2902836,1.63239771 L9.66988533,1.63239771 C9.44900422,1.52336266 9.15027158,1.33925429 8.86059143,1.04611088 L8.16173808,0.293590281 C7.7978274,-0.0978634269 7.17139409,-0.0978634269 6.8074834,0.293590281 L5.85334943,1.31959224 C5.71575136,1.41968999 5.54194327,1.5305125 5.32649366,1.63239771 L3.49788775,1.63239771 C3.25347013,1.63239771 3.07604104,1.88264209 3.14302957,2.13646139 L3.6010863,3.13386399 C3.63367532,3.25719872 3.71695836,3.35193409 3.82377791,3.39662058 L3.78937839,3.39662058 C3.73868437,4.00256947 3.78213639,4.69431644 3.94508147,5.46292417 C4.03741702,5.90085184 3.70428485,6.09568496 3.72601086,6.33520458 C3.77308389,6.85714286 3.78394689,8.11372713 4.27821364,8.42295769 C4.32347616,8.45155705 4.67471334,8.53914258 4.67290284,8.5159056 C4.72178636,9.0235442 4.77066989,9.53297026 4.81774291,10.0423963 C4.94085697,10.3802262 5.23777912,10.4177629 5.32468316,10.8950147 L4.94447797,10.9879626 C4.77429089,11.3490295 4.46107423,12.0765256 4.14242607,12.2963832 C3.87447194,12.369669 3.6083283,12.4429549 3.34037417,12.5144533 C2.4043452,12.8969697 1.36330718,13.3563469 0.423657212,13.749588 C0.418225709,13.7513755 0.412794206,13.753163 0.409173205,13.7567379 C0.161134581,13.8604106 0,14.0981427 0,14.3626868 L0,15.1473817 C0,15.6174836 0.385636693,16 0.861798431,16 L14.1382016,16 C14.6143633,16 15,15.6192711 15,15.1473817 L15,14.4145231 L14.7773084,14.8631755 L13.5316838,14.3769865 L13.5316838,14.3769865 Z M3.56849728,13.263399 L0.948702474,14.4073733 L0.858177429,13.7996369 L3.44176222,12.6914118 L4.05552203,12.7450356 L3.56849728,13.263399 Z M6.44900422,1.88621701 L6.55039228,1.79148164 L6.55401328,1.78790672 L6.54496077,1.77896942 C6.50694025,1.7396453 6.50875075,1.67708421 6.54858177,1.63954755 C6.58841279,1.60201089 6.65178033,1.60379835 6.68980084,1.64312247 L7.33433917,2.31163245 C7.33796017,2.28482056 7.34701267,2.26158358 7.36692818,2.24370898 C7.38684369,2.22583438 7.41219071,2.21510962 7.43934822,2.21332216 C7.37235969,2.09892473 7.35968618,1.98810222 7.41762221,1.93269096 C7.46650573,1.88442955 7.55884128,1.88979193 7.65660833,1.93626588 C7.64393482,1.92196621 7.64212432,1.90587907 7.64936632,1.89872923 L7.88835244,1.83616813 C7.89197345,1.83080575 7.88292094,1.82008099 7.87205794,1.8111437 C7.86662643,1.80756878 7.86119493,1.80578132 7.85576343,1.80399386 L7.62764031,1.85583019 C7.5986723,1.86298003 7.58056729,1.86119257 7.55522028,1.83616813 C7.54073627,1.82186845 7.53530477,1.8022064 7.54435727,1.79505656 L7.77791189,1.73428292 C7.77972239,1.73428292 7.77972239,1.73249546 7.77972239,1.73249546 C7.78334339,1.72713308 7.77610139,1.71640832 7.76523838,1.70925848 C7.75980688,1.70568356 7.75256488,1.7038961 7.74894387,1.70210864 L7.52625226,1.75394498 C7.49909475,1.7575199 7.47917924,1.75930736 7.45383223,1.73428292 C7.43934822,1.71998324 7.43391672,1.70032118 7.44296922,1.69317134 L7.68014484,1.63239771 L7.68195534,1.63061025 C7.68557634,1.62524787 7.68014484,1.61452311 7.66928183,1.60737327 C7.66203983,1.60201089 7.65479783,1.60022343 7.64936632,1.60022343 L7.42305371,1.65205977 C7.3940857,1.65742215 7.37598069,1.65742215 7.35063368,1.63239771 C7.33614967,1.61809803 7.33071817,1.59843597 7.33977067,1.59128613 L7.57513579,1.5305125 C7.57694629,1.5305125 7.57694629,1.52872504 7.57875679,1.52693758 C7.58056729,1.52336266 7.57694629,1.51085044 7.56608328,1.5037006 C7.56065178,1.50012568 7.55522028,1.49655076 7.54978877,1.49655076 L7.32166566,1.5483871 C7.29088715,1.55374948 7.27459264,1.55374948 7.24924562,1.52872504 C7.23476162,1.51442536 7.22933011,1.4947633 7.23838262,1.48761346 L7.48823174,1.42326491 L7.67109234,1.35891635 C7.72721786,1.33389191 7.8050694,1.35176651 7.86119493,1.40896523 C7.91369946,1.46258902 7.93180447,1.53229996 7.91188896,1.58771121 C7.90464695,1.63597263 7.92999396,1.69853372 7.98068799,1.7485826 C7.98974049,1.7575199 7.9969825,1.76466974 8.006035,1.77181958 C8.0006035,1.72534562 8.01689801,1.67708421 8.05310803,1.64133501 C8.11647556,1.58056137 8.21786361,1.58056137 8.27942064,1.64312247 C8.34097767,1.70568356 8.34097767,1.80578132 8.27761014,1.86655495 C8.24140012,1.90230415 8.1925166,1.91660383 8.14544357,1.91124145 C8.15992758,1.86655495 8.15449608,1.82186845 8.12552806,1.7932691 C8.09656005,1.76466974 8.05129753,1.7575199 8.006035,1.77181958 C8.01327701,1.77718196 8.02051901,1.78254434 8.02776101,1.78611926 C8.05129753,1.78075688 8.07483404,1.7843318 8.09293905,1.79505656 C8.09837055,1.79684402 8.10380205,1.80041894 8.10742305,1.80578132 L8.10923355,1.80756878 L8.11104406,1.80935624 C8.13095957,1.83080575 8.13820157,1.86119257 8.13095957,1.89157939 C8.14182257,1.90766653 8.15268558,1.92196621 8.16716958,1.93805334 C8.21786361,1.98810222 8.27942064,2.01491412 8.32830416,2.00955174 C8.38442969,1.99167714 8.45503923,2.0113392 8.50754375,2.06317553 C8.56366928,2.12037425 8.57996379,2.19723502 8.55280628,2.25264628 L8.48400724,2.43139226 L8.41339771,2.67627426 C8.4043452,2.68521156 8.38624019,2.67984918 8.37175619,2.6655495 C8.34640917,2.64052507 8.34821967,2.62265047 8.35365118,2.59405111 L8.41158721,2.37061863 C8.41158721,2.36525625 8.4079662,2.35989387 8.4043452,2.35453149 C8.3971032,2.34380673 8.38442969,2.33844435 8.38080869,2.34023181 C8.37899819,2.34023181 8.37899819,2.34201927 8.37718769,2.34201927 L8.31019916,2.57260159 C8.30114665,2.58153889 8.28304164,2.57617651 8.26855763,2.56187683 C8.24321062,2.53685239 8.24502112,2.5189778 8.25045263,2.49037844 L8.30838865,2.26873342 C8.30838865,2.26337104 8.30657815,2.2562212 8.30114665,2.24907136 C8.29390465,2.2383466 8.28304164,2.23119676 8.27761014,2.23477168 L8.27579964,2.23655914 L8.2088111,2.46892892 C8.1997586,2.47786622 8.18165359,2.47250384 8.16716958,2.45820416 C8.14182257,2.43317972 8.14363307,2.41351767 8.14906457,2.38670577 L8.2051901,2.16684821 C8.2051901,2.16148583 8.2033796,2.15612345 8.1997586,2.15076107 C8.1925166,2.14003631 8.18165359,2.13288647 8.17622209,2.13646139 L8.17441159,2.13824885 L8.10742305,2.36704371 C8.09837055,2.37598101 8.08026554,2.37061863 8.06578153,2.35631895 C8.04043452,2.33129451 8.04043452,2.31341991 8.04767652,2.28482056 L8.10561255,2.05960061 C8.10561255,2.05423823 8.10199155,2.04887586 8.09837055,2.04351348 C8.09112855,2.03278872 8.08026554,2.02385142 8.07483404,2.02742634 L8.006035,2.26337104 C7.998793,2.27052088 7.98249849,2.26694596 7.96801448,2.2562212 C8.01327701,2.35453149 8.01689801,2.44390448 7.96620398,2.4921659 C7.90826795,2.54936461 7.7923959,2.53149002 7.67652384,2.45999162 C7.67290284,2.48680352 7.66385033,2.51182796 7.64393482,2.52970256 C7.62401931,2.54936461 7.5986723,2.55830191 7.56789378,2.56008937 L7.84852142,2.85144533 C7.96620398,2.78709677 8.11828606,2.80675883 8.21605311,2.90864404 C8.33192517,3.02840385 8.32830416,3.21966206 8.2051901,3.33405949 C8.08388654,3.44845692 7.89016295,3.444882 7.77429089,3.32333473 C7.68738684,3.23396174 7.66928183,3.10526463 7.71454436,2.99801704 L7.4085697,2.68163664 C7.41762221,2.72632314 7.4067592,2.76743472 7.37960169,2.79603407 C7.35244418,2.82284597 7.31080266,2.83178327 7.26735063,2.82284597 C7.27459264,2.86574501 7.26554013,2.90685658 7.23657212,2.93366848 C7.18949909,2.97835498 7.10621605,2.9729926 7.03379602,2.92294372 L6.73325287,3.21429968 C6.71333736,3.23396174 6.68074834,3.23396174 6.66083283,3.21429968 L6.65540133,3.2089373 C6.63548582,3.18927524 6.63548582,3.15710096 6.65540133,3.13743891 L6.95775498,2.84608295 C6.91068196,2.77458456 6.90706095,2.6923614 6.95232348,2.64767491 C6.97948099,2.62086301 7.02112251,2.61192571 7.06457453,2.62086301 C7.05733253,2.57796397 7.06638503,2.53685239 7.09535305,2.5100405 C7.12613156,2.48144114 7.16958358,2.4742913 7.21846711,2.48501606 L7.03198552,2.2919704 C7.03017502,2.29554531 7.02655401,2.29912023 7.02293301,2.30090769 L6.93602897,2.38313085 C6.91068196,2.40636783 6.87085094,2.40636783 6.84550392,2.38134339 L6.7929994,2.32593213 C6.76946288,2.30090769 6.76946288,2.26158358 6.7948099,2.23655914 L6.88171394,2.15433599 C6.88533494,2.15076107 6.88895594,2.14897361 6.89257695,2.14718615 L6.85998793,2.11322441 L6.76222088,2.20617232 C6.74049487,2.22762184 6.70428485,2.22583438 6.68436934,2.20438486 L6.62100181,2.13824885 C6.5992758,2.11679933 6.6010863,2.08105013 6.62281231,2.06138807 L6.72057936,1.96844016 L6.68980084,1.93626588 L6.68617984,1.9398408 L6.58479179,2.03457618 C6.56306578,2.05423823 6.52866626,2.05423823 6.50875075,2.03278872 L6.44357272,1.96486524 C6.42727821,1.9398408 6.42908871,1.90587907 6.44900422,1.88621701 L6.44900422,1.88621701 Z M4.17863609,3.87029744 C4.85395293,4.32788717 6.03077852,4.62996788 7.36692818,4.62996788 C8.70307785,4.62996788 9.87990344,4.32788717 10.5552203,3.87029744 C10.5099578,4.76760229 9.09957755,5.48794861 7.36692818,5.48794861 C5.63427882,5.48794861 4.22389861,4.76760229 4.17863609,3.87029744 Z M6.33313217,14.0498813 L4.43572722,12.4411674 L5.15811708,11.3150677 L7.47193724,12.905907 L6.33313217,14.0498813 Z" id="形状"></path>
            <path d="M6.23218298,3.44706349 C6.26269481,3.45829321 6.29129965,3.45454997 6.31036954,3.4377054 C6.33134643,3.41898921 6.33325342,3.38530007 6.31990449,3.35348255 L6.228369,3.44144864 C6.23027599,3.44332026 6.23218298,3.44519188 6.23218298,3.44706349 Z M6.5086271,3.01394217 C6.50487113,3.01031072 6.50299315,3.00667927 6.50111517,3.00486355 C6.47294544,2.99578493 6.4447757,2.99941637 6.42599588,3.01575789 C6.40533808,3.03573085 6.4034601,3.06841389 6.41848395,3.10109692 L6.5086271,3.01394217 L6.5086271,3.01394217 Z M6.01789976,3.42532422 C5.99880668,3.44466186 5.99498807,3.47753585 6.00644391,3.50847608 L6.1,3.4156554 C6.06945107,3.40405282 6.03699284,3.40598658 6.01789976,3.42532422 L6.01789976,3.42532422 Z M6.08380306,3.58485937 C6.11503086,3.59794024 6.14625866,3.59607154 6.16646489,3.57738459 C6.18667111,3.55869764 6.18850804,3.52506112 6.17564953,3.49329329 L6.08380306,3.58485937 Z M13.9373473,13.7575809 L13.2940289,13.2564411 C13.3048714,13.1620234 13.3157138,13.0603429 13.3157138,12.9604781 C13.3157138,12.8606133 13.3048714,12.7589327 13.2940289,12.6645151 L13.9427686,12.1615595 C14.0042091,12.1161664 14.0150515,12.0326431 13.9807171,11.9654613 L13.3590836,10.9177886 C13.3211351,10.8506068 13.2362026,10.8288181 13.1711479,10.8506068 L12.4067555,11.152017 C12.2459259,11.0285478 12.0742539,10.928683 11.8863182,10.856054 L11.7688584,10.0589512 C11.7580159,9.98632221 11.6965754,9.93003477 11.6188712,9.93003477 L10.3882537,9.93185049 C10.3105495,9.93185049 10.2436878,9.98813794 10.2382665,10.0607669 L10.1226138,10.8633169 C9.93467809,10.941393 9.76300605,11.0412578 9.60217645,11.1592799 L8.83778408,10.8578697 C8.76550111,10.8306339 8.68779692,10.8578697 8.64984837,10.9250515 L8.03544315,11.9690928 C7.9974946,12.0362746 8.01375826,12.1197979 8.07519878,12.165191 L8.72393841,12.6663308 C8.71309596,12.7607484 8.70225352,12.862429 8.70225352,12.9622938 C8.70225352,13.0621586 8.71309596,13.1638392 8.72393841,13.2582568 L8.07339171,13.7630281 C8.01195119,13.8084212 8.00110874,13.8919445 8.03544315,13.9591263 L8.65165544,15.006799 C8.689604,15.0739808 8.77453648,15.0957695 8.83959115,15.0739808 L9.60398352,14.7725706 C9.76481312,14.8960398 9.93648517,14.9959046 10.1244209,15.0685336 L10.2418807,15.8710836 C10.2527231,15.9437126 10.3141637,16 10.3918679,16 L11.6224854,15.9981843 C11.7001895,15.9981843 11.7670513,15.9418968 11.7724725,15.8692679 L11.8881253,15.0667179 C12.076061,14.9886417 12.247733,14.8887769 12.4085626,14.7707549 L13.172955,15.0721651 C13.2452379,15.0994009 13.3229421,15.0721651 13.3608907,15.0049833 L13.9752959,13.9554948 C14.0150515,13.8846816 13.9987879,13.8011583 13.9373473,13.7575809 L13.9373473,13.7575809 Z M11.0062731,14.0226766 C10.4135527,14.0226766 9.93106394,13.5487726 9.92925687,12.9641095 C9.92925687,12.3776307 10.4099386,11.9037267 11.0026589,11.9037267 C11.5953792,11.9037267 12.077868,12.3776307 12.0796802,12.9622938 C12.0814822,13.5469569 11.5989934,14.0208609 11.0062731,14.0226766 Z" id="形状"></path>
        </g>
    </g>
</svg>