<?xml version="1.0" encoding="UTF-8"?>
<svg width="16px" height="16px" viewBox="0 0 16 16" version="1.1" xmlns="http://www.w3.org/2000/svg" xmlns:xlink="http://www.w3.org/1999/xlink">
    <title>通用图标/菜单图标/综合支持管理</title>
    <g id="通用图标/菜单图标/综合支持管理" stroke="none" stroke-width="1" fill="none" fill-rule="evenodd">
        <rect id="矩形" x="0" y="0" width="16" height="16"></rect>
        <g id="编组" fill="#BCBECA" fill-rule="nonzero">
            <path d="M6.72871202,10.5789543 C6.43561451,9.11521789 3.33201755,7.36013823 2.22795699,6.36676314 C1.49970857,5.71211842 0.861367363,4.8942513 0.127724513,3.29010849 C0.127724513,3.29010849 -0.526799991,8.10955724 1.12749271,9.45394827 C1.87731886,10.0629609 3.44889693,10.9440109 3.61792248,12.3814211 C3.69344454,13.0325557 3.61792248,15 3.61792248,15 L6.84199511,15 C6.83839882,15 6.94448933,11.6635936 6.72871202,10.5789543 Z M9.27128798,10.5789543 C9.56438549,9.11521789 12.6679824,7.36013823 13.772043,6.36676314 C14.5002914,5.71211842 15.1386326,4.8942513 15.8722755,3.29010849 C15.8722755,3.29010849 16.5268,8.10955724 14.8725073,9.45394827 C14.1226811,10.0629609 12.5511031,10.9440109 12.3820775,12.3814211 C12.3065555,13.0325557 12.3820775,15 12.3820775,15 L9.15980304,15 C9.15980304,15 9.05371253,11.6635936 9.27128798,10.5789543 Z M11.1485506,4.07287402 L11.7383419,3.71308269 C11.8318454,3.65516506 11.8785971,3.54635012 11.8534231,3.44104534 L11.5639219,2.20371418 C11.5387479,2.0984094 11.4488407,2.01943081 11.3391539,2.00890033 L10.6468683,1.93343191 C10.5785388,1.92641159 10.5156038,1.89131 10.4724483,1.83865761 L10.3573671,1.69649615 C10.3142116,1.64384376 10.2944321,1.57715074 10.3034228,1.51045771 L10.3825411,0.83475204 C10.3951281,0.727692181 10.3375875,0.624142481 10.2368914,0.57675533 L9.06450139,0.0256603156 C8.96560346,-0.0217268353 8.84512779,-0.000665879387 8.76780759,0.0748025461 L8.27511607,0.557449453 C8.22656617,0.604836604 8.16003484,0.631162799 8.09170536,0.631162799 L7.9064965,0.631162799 C7.83816702,0.631162799 7.77163568,0.604836604 7.72308579,0.557449453 L7.23039426,0.0748025461 C7.15307406,-0.00242095905 7.0325984,-0.0217268353 6.93370047,0.0256603156 L5.76310856,0.57675533 C5.66421063,0.624142481 5.60487187,0.725937101 5.61745888,0.83475204 L5.69657723,1.51045771 C5.7037698,1.57715074 5.68399022,1.64384376 5.64083476,1.69649615 L5.52575352,1.83865761 C5.48259806,1.89131 5.41966301,1.92465651 5.35133353,1.93343191 L4.65724986,2.00890033 C4.54756306,2.02118589 4.45765585,2.10016448 4.43248183,2.20371418 L4.1429806,3.44104534 C4.11780658,3.54635012 4.16455833,3.65516506 4.25806183,3.71308269 L4.84785315,4.0746291 C4.90719191,4.10973069 4.94854922,4.16764832 4.96293438,4.23258627 L5.00429169,4.40984931 C5.02047499,4.47478726 5.00788798,4.54499045 4.97012695,4.601153 L4.60150738,5.17506405 C4.54216862,5.26632819 4.5493612,5.38391853 4.61769068,5.46816235 L5.42865374,6.45978236 C5.49698322,6.54402618 5.61386259,6.5773727 5.71815496,6.54051602 L6.37627575,6.31411075 C6.44100894,6.29129471 6.51293471,6.29480487 6.57586976,6.32464123 L6.74309718,6.40361981 C6.80603222,6.43345617 6.85278397,6.48435348 6.87615985,6.54929142 L7.10452417,7.19165058 C7.14048705,7.2934452 7.23938499,7.36189331 7.34907178,7.36189331 L8.64913007,7.36189331 C8.75881687,7.36189331 8.8577148,7.2934452 8.89367769,7.19165058 L9.12204201,6.54929142 C9.14541788,6.48610855 9.19216963,6.43345617 9.25510468,6.40361981 L9.42233209,6.32464123 C9.48526714,6.29480487 9.55539477,6.29129471 9.62012796,6.31411075 L10.2782488,6.54051602 C10.3825411,6.57561762 10.4994205,6.54402618 10.56775,6.45978236 L11.378713,5.46816235 C11.4470425,5.38391853 11.4542351,5.26632819 11.3948963,5.17506405 L11.0244786,4.601153 C10.9867176,4.54499045 10.9759287,4.47478726 10.9903139,4.40984931 L11.0316712,4.23258627 C11.0478545,4.16589324 11.0892118,4.10973069 11.1485506,4.07287402 Z M8.20858473,4.86090479 C7.80759857,4.92759781 7.39941982,4.799477 7.11351489,4.51866425 C6.82581181,4.23785151 6.69634543,3.83944842 6.76467491,3.44806566 C6.84918769,2.94084764 7.26635715,2.53191407 7.78602084,2.44942533 C8.187007,2.3827323 8.59698389,2.50909804 8.88648511,2.78991078 C9.17418819,3.07072353 9.30365457,3.47088169 9.23532509,3.86401954 C9.14721603,4.37123756 8.72824842,4.78017112 8.20858473,4.86090479 Z" id="形状"></path>
        </g>
    </g>
</svg>