<?xml version="1.0" encoding="UTF-8"?>
<svg width="16px" height="16px" viewBox="0 0 16 16" version="1.1" xmlns="http://www.w3.org/2000/svg" xmlns:xlink="http://www.w3.org/1999/xlink">
    <title>通用图标/菜单图标/异常事件管理</title>
    <g id="通用图标/菜单图标/异常事件管理" stroke="none" stroke-width="1" fill="none" fill-rule="evenodd">
        <rect id="矩形" x="0" y="0" width="16" height="16"></rect>
        <g id="编组" fill="#BCBECA" fill-rule="nonzero">
            <path d="M8.09057382,11.273286 C8.09057382,9.4364205 9.25339366,7.8798692 10.8676776,7.3183249 L6.71029368,0 L0,11.8119683 L8.09057382,11.8119683 L8.09057382,11.2732691 L8.09057382,11.273286 Z M7.31640253,10.0204198 L6.03977309,10.0204198 L6.03977309,8.76160061 L7.31640253,8.76160061 L7.31640253,10.0204198 Z M7.00046243,8.24362645 L6.36420942,8.24362645 L6.01002796,5.2497863 L6.01002796,3.62246109 L7.34638042,3.62246109 L7.34638042,5.2497863 L7.00046243,8.24362645 Z M15.9965583,12.1871396 L16,10.8067684 C16,10.8067684 15.1063328,10.6258565 15.0915184,10.5649193 C14.9984257,10.1948021 14.8706497,9.87073118 14.707542,9.56928483 C15.1417975,10.1681411 15.6453031,9.73323677 15.6453031,9.73323677 L14.637976,8.36516153 C14.637976,8.36516153 13.9850464,8.91315482 13.8226536,8.9922052 C13.7468859,8.96216911 13.6682084,8.93513493 13.584011,8.90981371 C13.496006,8.88785056 13.2539216,8.01000298 13.2539216,8.01000298 L11.8969021,7.99858893 C11.8969021,7.99858893 11.7512358,8.84887657 11.5311651,8.9066422 C11.3328588,8.96781678 11.160224,9.05853561 11.0079403,9.1753219 C11.1481697,8.91083131 10.4957721,8.35369659 10.4957721,8.35369659 L9.48791293,9.74478651 C9.48791293,9.74478651 9.9936299,10.2641514 10.0270495,10.4376857 C10.005275,10.4927602 9.98505962,10.5484628 9.96642866,10.6047244 C9.74981633,10.6813156 9.13319942,10.8067005 9.13319942,10.8067005 L9.13612571,12.1870718 C9.13612571,12.1870718 9.85348365,12.3393383 9.98968938,12.4616026 C10.0180676,12.5406968 10.0500138,12.6184111 10.0854258,12.6944968 C9.91977421,12.9054448 9.47777065,13.2572623 9.47777065,13.2572623 L10.5171208,14.6367685 C10.5171208,14.6367685 11.3331248,14.0984085 11.4674351,14.067694 C11.5337257,14.0968482 11.6014129,14.1246116 11.6709456,14.1491866 C11.7938833,14.1930959 11.8810237,14.9968285 11.8810237,14.9968285 L13.2351334,15 C13.2351334,15 13.2812724,14.210853 13.3799351,14.179935 C13.4778238,14.1485821 13.5739874,14.1118785 13.6680089,14.0699836 C13.7821677,14.1154702 14.3168483,14.659427 14.3168483,14.659427 L15.6556449,13.2686933 C15.6556449,13.2686933 15.1587068,12.9182835 15.0218028,12.7294852 C15.0589653,12.6506147 15.0927984,12.5701563 15.1232089,12.4883315 C15.1695142,12.3630822 15.9965583,12.1870887 15.9965583,12.1870887 L15.9965583,12.1871396 Z M12.5511951,13.2329078 L12.5508626,13.2329078 C11.6073818,13.2329078 10.8425547,12.4527495 10.8425547,11.4903566 L10.8425547,11.490153 L10.8425547,11.4896103 C10.8425547,10.5273191 11.6073319,9.74722874 12.5506963,9.74722874 L12.551245,9.74722874 C13.4946592,9.74722874 14.2593699,10.5274209 14.2593699,11.4901191 C14.2593699,12.4524612 13.4939775,13.2328569 12.5512283,13.2328569 L12.5511951,13.2329078 Z" id="形状"></path>
        </g>
    </g>
</svg>