<?xml version="1.0" encoding="UTF-8"?>
<svg width="24px" height="24px" viewBox="0 0 24 24" version="1.1" xmlns="http://www.w3.org/2000/svg" xmlns:xlink="http://www.w3.org/1999/xlink">
    <title>自助服务模块图标/组机</title>
    <g id="自助服务模块图标/组机" stroke="none" stroke-width="1" fill="none" fill-rule="evenodd">
        <rect id="矩形" x="0" y="0" width="24" height="24"></rect>
        <rect id="矩形" fill="#1E87F0" x="0" y="0" width="24" height="24" rx="12"></rect>
        <g id="编组" transform="translate(5, 4)" fill="#FFFFFF" fill-rule="nonzero">
            <path d="M11.1799768,16 L4.34059105,16 C4.19897943,16 4.0841812,15.8832458 4.0841812,15.7392215 L4.0841812,14.8829235 C4.0841812,14.7388991 4.19897943,14.6221449 4.34059105,14.6221449 L11.1799768,14.6221449 C11.3215885,14.6221449 11.4363867,14.7388991 11.4363867,14.8829235 L11.4363867,15.7392215 C11.4363867,15.8832458 11.3215885,16 11.1799768,16 Z M13.5295683,0 L1.47044736,0 C0.353238581,0 0,0.672968165 0,1.49550073 L0,11.9838894 C0,12.806406 0.661694268,13.4793901 1.47044736,13.4793901 L13.5295526,13.4793901 C14.3382901,13.4793901 15,12.806422 15,11.9838894 L15,1.49550073 C15,0.672984084 14.3383057,0 13.5295683,0 L13.5295683,0 Z M13.7104373,11.5234635 C13.7104373,11.9262924 13.3863757,12.2558594 12.9903109,12.2558594 L2.00972044,12.2558594 C1.61365557,12.2558594 1.28959396,11.9262765 1.28959396,11.5234635 L1.28959396,1.95592666 C1.28959396,1.55309775 1.61365557,1.22353072 2.00972044,1.22353072 L12.9903109,1.22353072 C13.3863757,1.22353072 13.7104373,1.55311367 13.7104373,1.95592666 L13.7104373,11.5234635 Z" id="形状"></path>
            <path d="M5.09643027,6.45347468 C5.09616451,6.57473741 5.12073989,6.76045136 5.17054561,7.00698959 C5.18038128,7.00664959 5.19022174,7.0064798 5.20006287,7.00648027 C5.67811443,7.00648027 6.06566426,7.40831259 6.06566426,7.90398191 C6.06584402,8.06829417 6.02238356,8.22948509 5.94004846,8.36987959 C6.09604486,8.50710079 6.22216676,8.60317569 6.31609207,8.65716284 C6.41412568,8.71354221 6.57424527,8.77942876 6.79381615,8.8528624 C6.95322125,8.61992127 7.21390493,8.47450477 7.50007199,8.47450477 C7.78665583,8.47450477 8.04768186,8.62032255 8.20699765,8.85381929 C8.41732485,8.78467623 8.57388689,8.71900575 8.67459983,8.65873708 C8.77534254,8.59848384 8.91977318,8.48339459 9.104617,8.31495098 C9.04144312,8.1878614 9.00855681,8.04692746 9.00871196,7.90395104 C9.00871196,7.42192513 9.37518442,7.02865853 9.83500167,7.00736 C9.88160708,6.7394152 9.90435159,6.55263633 9.90352602,6.45469395 C9.90256537,6.34503737 9.87983575,6.18796841 9.83482304,5.98621883 C9.37509511,5.96484313 9.00871196,5.57162284 9.00871196,5.08965865 C9.00856197,4.94685995 9.04136393,4.8060963 9.10437884,4.67912172 C8.93525374,4.52004638 8.80006678,4.41059044 8.70182477,4.35201948 C8.59951912,4.29100999 8.43356456,4.22183606 8.20665529,4.14667385 C8.04730973,4.37990821 7.78647721,4.52549448 7.50007199,4.52549448 C7.21387516,4.52549448 6.95316171,4.38009342 6.79378638,4.14709056 C6.57403688,4.22049333 6.41388752,4.28634901 6.31607718,4.34257404 C6.22270262,4.39626795 6.09747383,4.49181811 5.94278733,4.62839109 C6.02337122,4.76773137 6.06585382,4.92718743 6.06567915,5.08965865 C6.06567915,5.58532798 5.6781442,5.98714486 5.20007776,5.98714486 C5.18924137,5.98714486 5.17840498,5.98691335 5.16759835,5.98652751 C5.12018914,6.188879 5.0966706,6.34551582 5.09643027,6.45347468 L5.09643027,6.45347468 Z M4.44208113,5.34734003 C4.49324994,5.36099807 4.54588048,5.36788481 4.59871759,5.36783601 C4.94329399,5.36783601 5.22267342,5.07816053 5.22267342,4.72088537 C5.22267342,4.5514077 5.15987296,4.39282623 5.04897857,4.2729834 C4.95734557,4.17399153 4.96306147,4.01596568 5.0615863,3.92435112 C5.3564314,3.65027914 5.59376027,3.46093827 5.77957163,3.3541215 C5.96344792,3.24841596 6.25165424,3.13531766 6.65004047,3.01042801 C6.76246802,2.97516196 6.8826954,3.03183458 6.93102749,3.14281845 C7.03121945,3.37299694 7.25233839,3.52398501 7.50010176,3.52398501 C7.74786512,3.52398501 7.96901383,3.37299694 8.06922068,3.14281845 C8.11738903,3.03217412 8.23705077,2.97548607 8.34931459,3.0101502 C8.7587456,3.13667583 9.05686543,3.25497529 9.24934534,3.36977129 C9.43869937,3.48266895 9.68242885,3.6875207 9.98748517,3.98722809 C10.0759923,4.07416623 10.0852806,4.21703617 10.0088007,4.31551873 C9.92014474,4.42963565 9.87117259,4.57103939 9.87117259,4.7209008 C9.87117259,5.07817597 10.1505074,5.36785144 10.4951284,5.36785144 C10.5272311,5.36785656 10.5592874,5.36532323 10.5910186,5.36027349 C10.7097277,5.34136718 10.8229888,5.41870555 10.8530717,5.53927376 C10.9486939,5.9222615 10.9980531,6.21982361 10.9999582,6.43858114 C11.0013724,6.60785817 10.9669282,6.883597 10.8971615,7.27687903 C10.8614818,7.47802669 10.6923418,7.62409141 10.4951135,7.62409141 C10.1504925,7.62409141 9.8711577,7.91372059 9.8711577,8.27104205 C9.8711577,8.42196839 9.92085923,8.56431358 10.0106911,8.67886265 C10.0890019,8.77871881 10.0785228,8.92458289 9.98677068,9.01125866 C9.65902939,9.3208745 9.40435932,9.53051071 9.21563047,9.64343923 C9.02326964,9.75854391 8.73565873,9.87273799 8.34812378,9.99017316 C8.23616732,10.0241434 8.11718374,9.96739709 8.06920579,9.85714994 C7.96899895,9.62698688 7.74785023,9.47598338 7.50008687,9.47598338 C7.25232351,9.47598338 7.03120457,9.62703318 6.9310126,9.85714994 C6.88265074,9.96819555 6.76242337,10.0248527 6.64996604,9.98955581 C6.25190729,9.86461986 5.96370097,9.75136723 5.77957163,9.64550735 C5.59314998,9.5382893 5.35433259,9.34825392 5.05709098,9.0730707 C4.95768793,8.981024 4.9524037,8.82162455 5.04543591,8.72270984 C5.15850353,8.60251204 5.22267342,8.4423409 5.22267342,8.27105749 C5.22267342,7.91373602 4.94329399,7.62410685 4.59871759,7.62410685 C4.54490603,7.62402964 4.49131107,7.63117303 4.43926784,7.64535908 C4.31161277,7.68022385 4.18147188,7.59876468 4.15170158,7.46544821 C4.05043789,7.011666 3.99951578,6.67266436 4.00000347,6.44021712 C4.00046843,6.21747768 4.05359354,5.91263086 4.15793846,5.51811413 C4.19171287,5.39023033 4.31826644,5.31417297 4.44208113,5.34734003 L4.44208113,5.34734003 Z" id="形状"></path>
            <path d="M7.5,8 C6.67157885,8 6,7.32840207 6,6.5 C6,5.67154069 6.67157885,5 7.5,5 C8.32845931,5 9,5.67154069 9,6.5 C9,7.32842115 8.32845931,8 7.5,8 Z M7.5,7.029524 C7.79244791,7.029524 8.029524,6.79242883 8.029524,6.5 C8.029524,6.20755209 7.79244791,5.970476 7.5,5.970476 C7.20757117,5.970476 6.970476,6.20753301 6.970476,6.5 C6.970476,6.79242883 7.20757117,7.029524 7.5,7.029524 Z" id="形状"></path>
        </g>
    </g>
</svg>