<svg width="14px" height="14px" viewBox="0 0 14 14" fill="none" xmlns="http://www.w3.org/2000/svg">
<g clip-path="url(#clip0_2_78)">
<path d="M0.668182 6.10909C0.318182 6.10909 0 5.82273 0 5.44091V0.668182C0 0.286364 0.286364 0 0.668182 0H5.47273C5.82273 0 6.14091 0.286364 6.14091 0.668182V5.47273C6.14091 5.82273 5.85455 6.14091 5.47273 6.14091H0.668182V6.10909ZM8.52727 6.10909C8.17727 6.10909 7.85909 5.82273 7.85909 5.44091V0.668182C7.85909 0.318182 8.14546 0 8.52727 0H13.3318C13.7136 0 14 0.286364 14 0.668182V5.47273C14 5.82273 13.7136 6.14091 13.3318 6.14091H8.52727V6.10909ZM0.668182 14C0.286364 14 0 13.7136 0 13.3318V8.52727C0 8.17727 0.286364 7.85909 0.668182 7.85909H5.47273C5.82273 7.85909 6.14091 8.14546 6.14091 8.52727V13.3318C6.14091 13.6818 5.85455 14 5.47273 14H0.668182ZM8.52727 14C8.17727 14 7.85909 13.7136 7.85909 13.3318V8.52727C7.85909 8.17727 8.14546 7.85909 8.52727 7.85909H13.3318C13.6818 7.85909 14 8.14546 14 8.52727V13.3318C14 13.6818 13.7136 14 13.3318 14H8.52727Z" fill="white"/>
</g>
<defs>
<clipPath id="clip0_2_78">
<rect width="14" height="14" fill="white"/>
</clipPath>
</defs>
</svg>
