<?xml version="1.0" encoding="UTF-8"?>
<svg width="14px" height="14px" viewBox="0 0 14 14" version="1.1" xmlns="http://www.w3.org/2000/svg" xmlns:xlink="http://www.w3.org/1999/xlink">
    <title>工作台 4</title>
    <g id="设计稿" stroke="none" stroke-width="1" fill="none" fill-rule="evenodd">
        <g id="导航/菜单项/默认备份-4" transform="translate(-8, -7)" fill="#FFFFFF" fill-rule="nonzero">
            <g id="工作台" transform="translate(8, 7)">
                <path d="M0.668181814,6.10909091 C0.318181814,6.10909091 0,5.82272727 0,5.44090909 L0,0.668181814 C0,0.286363643 0.286363643,0 0.668181814,0 L5.47272727,0 C5.82272727,0 6.14090909,0.286363643 6.14090909,0.668181814 L6.14090909,5.47272727 C6.14090909,5.82272727 5.85454544,6.14090909 5.47272727,6.14090909 L0.668181814,6.14090909 L0.668181814,6.10909091 Z M8.52727273,6.10909091 C8.17727273,6.10909091 7.85909091,5.82272727 7.85909091,5.44090909 L7.85909091,0.668181814 C7.85909091,0.318181814 8.14545456,0 8.52727273,0 L13.3318182,0 C13.7136364,0 14,0.286363643 14,0.668181814 L14,5.47272727 C14,5.82272727 13.7136364,6.14090909 13.3318182,6.14090909 L8.52727273,6.14090909 L8.52727273,6.10909091 Z M0.668181814,14 C0.286363643,14 0,13.7136364 0,13.3318182 L0,8.52727273 C0,8.17727273 0.286363643,7.85909091 0.668181814,7.85909091 L5.47272727,7.85909091 C5.82272727,7.85909091 6.14090909,8.14545456 6.14090909,8.52727273 L6.14090909,13.3318182 C6.14090909,13.6818182 5.85454544,14 5.47272727,14 L0.668181814,14 Z M8.52727273,14 C8.17727273,14 7.85909091,13.7136364 7.85909091,13.3318182 L7.85909091,8.52727273 C7.85909091,8.17727273 8.14545456,7.85909091 8.52727273,7.85909091 L13.3318182,7.85909091 C13.6818182,7.85909091 14,8.14545456 14,8.52727273 L14,13.3318182 C14,13.6818182 13.7136364,14 13.3318182,14 L8.52727273,14 Z" id="形状"></path>
            </g>
        </g>
    </g>
</svg>