<?xml version="1.0" encoding="UTF-8"?>
<svg width="16px" height="16px" viewBox="0 0 16 16" version="1.1" xmlns="http://www.w3.org/2000/svg" xmlns:xlink="http://www.w3.org/1999/xlink">
    <title>图标备份</title>
    <g id="图标备份" stroke="none" stroke-width="1" fill="none" fill-rule="evenodd">
        <g id="数据可视化" transform="translate(1, 2)" fill="#FFFFFF" fill-rule="nonzero">
            <path d="M13.5334973,0 C13.7912798,0 14.000164,0.207815855 14,0.464279884 L14,10.2143207 C14,10.4707847 13.7911157,10.6786006 13.5333332,10.6786006 L7.69999995,10.6786006 L7.69999995,11.6071603 L9.09999994,11.6071603 C9.48659159,11.6071603 9.79999993,11.9189658 9.79999993,12.3035802 C9.79999993,12.6881946 9.48659159,13 9.09999994,13 L4.89999997,13 C4.51340831,13 4.19999997,12.6881946 4.19999997,12.3035802 C4.19999997,11.9189658 4.51340831,11.6071603 4.89999997,11.6071603 L6.29999996,11.6071603 L6.29999996,10.6786006 L0.466666663,10.6786006 C0.208884199,10.6786006 0,10.4707847 0,10.2143207 L0,0.464279884 C0,0.207815855 0.208884199,0 0.466666663,0 L13.5334973,0 Z M9.85621372,2.24511157 L7.85165319,4.77373778 L5.73838053,3.27006364 C5.58618354,3.16182377 5.3979519,3.12693385 5.22051545,3.17480606 C5.0429003,3.22247073 4.89242086,3.34801004 4.80619298,3.52045962 L3.07637766,6.98170135 C2.90791187,7.31891643 3.02741919,7.73840679 3.34352063,7.91837383 C3.44082939,7.97354858 3.54543631,8 3.64821869,8 C3.88008723,8 4.10450557,7.86676921 4.22127608,7.63341249 L5.61415981,4.84578951 L7.61324672,6.26816205 C7.8875358,6.46354556 8.25548456,6.40788398 8.46819544,6.13931278 L10.8464824,3.13942931 C11.0778948,2.84748999 11.0438368,2.41079809 10.7703079,2.16380995 C10.496627,1.91665954 10.0876261,1.9534968 9.85621372,2.24511157 Z" id="形状结合"></path>
        </g>
    </g>
</svg>