<svg width="14px" height="14px" viewBox="0 0 14 14" fill="none" xmlns="http://www.w3.org/2000/svg">
<path d="M13.3438 13H0.65625C0.293813 13 0 12.7015 0 12.3333V1.66667C0 1.29848 0.293813 1 0.65625 1C1.01869 1 1.3125 1.29848 1.3125 1.66667V11.6667H13.3438C13.7062 11.6667 14 11.9651 14 12.3333C14 12.7015 13.7062 13 13.3438 13ZM11.8125 11H10.5C10.1376 11 9.84375 10.7015 9.84375 10.3333V5.66667C9.84375 5.29848 10.1376 5 10.5 5H11.8125C12.1749 5 12.4688 5.29848 12.4688 5.66667V10.3333C12.4688 10.7015 12.1749 11 11.8125 11ZM8.09375 11H6.78125C6.41881 11 6.125 10.7015 6.125 10.3333V3C6.125 2.63181 6.41881 2.33333 6.78125 2.33333H8.09375C8.45619 2.33333 8.75 2.63181 8.75 3V10.3333C8.75 10.7015 8.45619 11 8.09375 11ZM4.375 11H3.0625C2.70006 11 2.40625 10.7015 2.40625 10.3333V9C2.40625 8.63181 2.70006 8.33333 3.0625 8.33333H4.375C4.73744 8.33333 5.03125 8.63181 5.03125 9V10.3333C5.03125 10.7015 4.73744 11 4.375 11Z" fill="white"/>
</svg>
