<?xml version="1.0" encoding="UTF-8"?>
<svg width="16px" height="16px" viewBox="0 0 16 16" version="1.1" xmlns="http://www.w3.org/2000/svg" xmlns:xlink="http://www.w3.org/1999/xlink">
    <title>通用图标/菜单图标/维护管理</title>
    <g id="通用图标/菜单图标/维护管理" stroke="none" stroke-width="1" fill="none" fill-rule="evenodd">
        <rect id="矩形" x="0" y="0" width="16" height="16"></rect>
        <g id="编组" fill="#BCBECA" fill-rule="nonzero">
            <path d="M15.7512316,12.9909509 L15.3213517,12.9909509 C15.2761049,12.9004596 15.2082348,12.7194592 15.1403468,12.5837222 L15.4344686,12.2217215 C15.5249588,12.1266905 15.5249588,11.9773745 15.4344686,11.8823435 L15.0724766,11.5429834 C14.9593597,11.4524921 14.8009782,11.4524921 14.7104668,11.5429834 L14.4163628,11.8597207 C14.2806047,11.7692294 14.0995286,11.7239838 14.0091063,11.6787203 L14.0091063,11.2488689 C14.0087054,11.1115887 13.8975147,11.0004008 13.7602312,11 L13.2172343,11 C13.0588172,11 12.9231125,11.1131141 12.9231125,11.2488689 L12.9231125,11.6787203 C12.8326189,11.7239838 12.651614,11.7918522 12.5158559,11.8597207 L12.2217519,11.5430012 C12.1267185,11.4525133 11.9773988,11.4525133 11.8823655,11.5430012 L11.5429969,11.9049841 C11.4525033,12.0180983 11.4525033,12.1764936 11.5429969,12.2669849 L11.8597421,12.5610994 C11.7692486,12.6968364 11.723984,12.8778368 11.6787372,12.968328 L11.2488573,12.968328 C11.1115807,12.9687386 11.0004008,13.0799237 11,13.2171969 L11,13.7601803 C11,13.9185934 11.1131169,14.0542948 11.2488573,14.0542948 L11.6787372,14.0542948 C11.723984,14.1447861 11.7918719,14.3258043 11.8597421,14.4615412 L11.5429969,14.7556557 C11.4524999,14.8506771 11.4524999,15 11.5429969,15.0950159 L11.9049889,15.4569988 C12.0181236,15.5475079 12.1764873,15.5475079 12.2669987,15.4569988 L12.5611027,15.1401725 C12.6968608,15.2306816 12.8779369,15.2759273 12.9683593,15.3211729 L12.9683593,15.7511311 C12.9687601,15.8884113 13.0799508,15.9995992 13.2172343,16 L13.7602312,16 C13.9186483,16 14.054353,15.8868681 14.054353,15.7511311 L14.054353,15.3665075 C14.1448466,15.3212619 14.3258693,15.2533934 14.4616096,15.185525 L14.7557314,15.5022445 C14.8507479,15.5927573 15.0000835,15.5927573 15.0951,15.5022445 L15.457092,15.1402615 C15.5476034,15.0271474 15.5476034,14.8687698 15.457092,14.7782785 L15.1402578,14.484164 C15.2307691,14.3484271 15.2760159,14.1673377 15.3212627,14.0769176 L15.7511426,14.0769176 C15.8884233,14.0765168 15.9996089,13.965326 16,13.8280487 L16,13.2850654 C16.0000889,13.1267056 15.886972,12.9909509 15.7512316,12.9909509 L15.7512316,12.9909509 Z M13.5113739,14.6425238 C12.9004891,14.6425238 12.3801156,14.1447861 12.3801156,13.5113292 C12.3801156,12.8778724 12.9004891,12.3801346 13.5113739,12.3801346 C14.1448466,12.3801346 14.6425967,12.9004952 14.6425967,13.5113648 C14.6425967,14.1447861 14.1222232,14.6425238 13.5113739,14.6425238 Z" id="形状"></path>
            <path d="M14.802095,7.14889332 C15.4322929,6.52034895 15.8452262,5.70695046 15.9806924,4.82728542 C16.1100126,3.9921876 15.5643276,3.68171947 15.1008332,4.14508115 L14.2610914,4.98487974 C13.3639954,5.87748682 11.9136498,5.87569246 11.0187654,4.98086837 C10.1238811,4.08604427 10.1220954,2.63580514 11.0147735,1.73878037 C11.0147735,1.73878037 11.3911195,1.36362727 11.854614,0.899080528 C12.3180294,0.435659599 12.0086842,-0.110005064 11.1735053,0.01930563 C10.2939623,0.155292989 9.48067541,0.568109141 8.85176642,1.19779672 C7.80965942,2.23984696 7.43202946,3.69706611 7.71316803,5.041368 L0.671271924,12.0838729 C-0.223757308,12.9776711 -0.223757308,14.433725 0.671271924,15.3287477 C1.56630116,16.2237705 3.02256065,16.223731 3.91642448,15.3287477 L10.959486,8.2862033 C12.3039063,8.56726198 13.7599881,8.1897585 14.802095,7.14889332 Z M2.83427899,14.2467212 C2.53545659,14.5454823 2.05100495,14.545461 1.7522088,14.2466737 C1.45341265,13.9478863 1.45341265,13.4634703 1.7522088,13.1646829 C2.05100495,12.8658956 2.53545659,12.8658743 2.83427899,13.1646354 C3.13308397,13.4634562 3.13308397,13.9479004 2.83427899,14.2467212 L2.83427899,14.2467212 Z" id="形状"></path>
            <polygon id="路径" points="2.39928747 4.44231288 4.95626413 7 6 5.9564795 3.44294714 3.39888762 2.87012599 2.30431967 1.04371682 1 0 2.04342526 1.30458887 3.86953375"></polygon>
            <path d="M10.7168783,12.3659936 C10.5100578,12.1137805 10.5129649,11.742099 10.7334182,11.4722963 L10.7444869,11.4587549 L11.1110364,11.0763428 C11.3482282,10.8441413 11.7309383,10.8188794 12,11.000221 L11.0807373,10.100301 C11.0151594,10.0360803 10.9262058,10 10.8334519,10 C10.740698,10 10.6517444,10.0360803 10.5861665,10.100301 L9.10238155,11.552979 C8.96587282,11.6867135 8.96587282,11.903447 9.10238155,12.0371814 L10.0858174,13 C10.1118129,12.6670301 10.3775636,12.400039 10.7168783,12.3659936 L10.7168783,12.3659936 Z" id="路径"></path>
        </g>
    </g>
</svg>