<?xml version="1.0" encoding="UTF-8"?>
<svg width="24px" height="24px" viewBox="0 0 24 24" version="1.1" xmlns="http://www.w3.org/2000/svg" xmlns:xlink="http://www.w3.org/1999/xlink">
    <title>自助服务模块图标/营销类资源</title>
    <g id="自助服务模块图标/营销类资源" stroke="none" stroke-width="1" fill="none" fill-rule="evenodd">
        <rect id="矩形" x="0" y="0" width="24" height="24"></rect>
        <rect id="矩形" fill="#1E87F0" x="0" y="0" width="24" height="24" rx="12"></rect>
        <g id="编组" transform="translate(4, 4)" fill="#FFFFFF" fill-rule="nonzero">
            <path d="M14.8786311,9.19285333 L14.8786311,14.6666667 C14.8786311,15.5191289 14.3929778,16 13.5452978,16 L2.47253333,16 C1.62488889,16 1.1392,15.5191111 1.1392,14.6666667 L1.1392,9.15708444 C1.1392,9.15708444 0,9.16593778 0,8.03324444 L0,5.92081778 C0,5.04712889 0.464408889,4.58748444 1.33333333,4.58748444 L3.80293333,4.58748444 C3.3776,4.11484444 3.11111111,3.35265778 3.11111111,2.66666667 C3.11111111,1.19400889 4.25146667,0 5.72412444,0 C6.65294222,0 7.52257778,0.475911111 8,1.19596444 C8.47744,0.475911111 9.38280889,0 10.3116444,0 C11.7842489,0 12.8888889,1.19399111 12.8888889,2.66666667 C12.8888889,3.35265778 12.6224,4.11484444 12.1966222,4.58750222 L14.6666667,4.58750222 C15.5355911,4.58750222 16,5.04714667 16,5.92083556 L16,8.02044444 C16,9.16592 14.8786311,9.19283556 14.8786311,9.19283556 L14.8786311,9.19285333 Z M8.58748444,14.8786311 L13.3128533,14.8786311 C13.6418667,14.8786311 13.7572978,14.7649422 13.7572978,14.4341867 L13.7572978,9.17498667 L8.58748444,9.17498667 L8.58748444,14.8786311 Z M2.27841778,14.4341867 C2.27841778,14.7649422 2.39388444,14.8786311 2.72286222,14.8786311 L7.43036444,14.8786311 L7.43036444,9.17498667 L2.27841778,9.17498667 L2.27841778,14.4341867 Z M1.56577778,5.72670222 C1.2168,5.72670222 1.12133333,5.82003556 1.12133333,6.17114667 L1.12133333,7.59130667 C1.12133333,7.94243556 1.2168,8.03575111 1.56577778,8.03575111 L7.43036444,8.03575111 L7.43036444,5.72670222 L1.56577778,5.72670222 L1.56577778,5.72670222 Z M5.72410667,1.12133333 C4.74234667,1.12133333 4.19667556,1.68488889 4.19667556,2.66664889 C4.19667556,3.64842667 4.74234667,4.58748444 5.72410667,4.58748444 L7.43036444,4.58748444 L7.43036444,2.66664889 C7.43036444,1.68488889 6.70588444,1.12133333 5.72410667,1.12133333 L5.72410667,1.12133333 Z M10.3116089,1.12133333 C9.32984889,1.12133333 8.58748444,1.68488889 8.58748444,2.66664889 L8.58748444,4.58748444 L10.2937244,4.58748444 C11.2755022,4.58748444 11.8211733,3.64842667 11.8211733,2.66664889 C11.8211733,1.68488889 11.2933867,1.12133333 10.3116089,1.12133333 Z M14.8786667,6.17116444 C14.8786667,5.82003556 14.7831644,5.72672 14.4341867,5.72672 L8.58752,5.72672 L8.58752,8.03576889 L14.4342222,8.03576889 C14.7832,8.03576889 14.8786667,7.94243556 14.8786667,7.59132444 L14.8786667,6.17116444 L14.8786667,6.17116444 Z" id="形状"></path>
            <path d="M10.3116444,0 C11.7842489,0 12.8888889,1.19399111 12.8888889,2.66666667 C12.8888889,3.33356444 12.6370311,4.07248 12.2317867,4.54741333 L10.6324444,4.54741333 C11.4001778,4.3584 11.8211733,3.52899556 11.8211733,2.66664889 C11.8211733,1.68488889 11.2933867,1.12133333 10.3116089,1.12133333 C9.32984889,1.12133333 8.58748444,1.68488889 8.58748444,2.66664889 L8.58748444,4.54736 L7.43036444,4.54736 L7.43036444,2.66664889 C7.43036444,1.68488889 6.70588444,1.12133333 5.72410667,1.12133333 C4.74234667,1.12133333 4.19667556,1.68488889 4.19667556,2.66664889 C4.19667556,3.52899556 4.61765333,4.35838222 5.38540444,4.54741333 L3.76780444,4.54741333 C3.36296889,4.07248 3.11109333,3.33356444 3.11109333,2.66666667 C3.11109333,1.19400889 4.25146667,0 5.72412444,0 C6.65294222,0 7.52257778,0.475911111 8,1.19596444 C8.47744,0.475911111 9.38280889,0 10.3116444,0 Z" id="路径"></path>
        </g>
    </g>
</svg>