<?xml version="1.0" encoding="UTF-8"?>
<svg width="16px" height="16px" viewBox="0 0 16 16" version="1.1" xmlns="http://www.w3.org/2000/svg" xmlns:xlink="http://www.w3.org/1999/xlink">
    <title>通用图标/菜单图标/并网管理</title>
    <g id="通用图标/菜单图标/并网管理" stroke="none" stroke-width="1" fill="none" fill-rule="evenodd">
        <rect id="矩形" x="0" y="0" width="16" height="16"></rect>
        <g id="编组" fill="#BCBECA" fill-rule="nonzero">
            <path d="M15.0571445,5.4726407 L13.1758934,5.4726407 L13.1758934,5.03155022 L14.1178569,5.03155022 L14.1178569,4.1524881 L13.1758934,4.1524881 L13.1758934,3.27431706 L14.1178569,3.27431706 L14.1178569,2.40149258 L13.1758934,2.40149258 L13.1758934,1.52332154 L14.1178569,1.52332154 L14.1178569,0.646041603 L13.1758934,0.646041603 L13.1758934,0 L12.2339299,0 L12.2339299,0.644704965 L11.2915203,0.644704965 L11.2915203,1.52332154 L12.2343759,1.52332154 L12.2343759,2.40149258 L11.2915203,2.40149258 L11.2915203,3.27966361 L12.2343759,3.27966361 L12.2343759,4.15828019 L11.2915203,4.15828019 L11.2915203,5.03110468 L12.2343759,5.03110468 L12.2343759,5.46818524 L8.47142777,5.46818524 L8.47142777,5.03110468 L9.41339131,5.03110468 L9.41339131,4.1524881 L8.47142777,4.1524881 L8.47142777,3.27431706 L9.41339131,3.27431706 L9.41339131,2.40149258 L8.47142777,2.40149258 L8.47142777,1.52332154 L9.41339131,1.52332154 L9.41339131,0.646041603 L8.47142777,0.646041603 L8.47142777,0 L7.52857223,0 L7.52857223,0.644704965 L6.58616268,0.644704965 L6.58616268,1.52332154 L7.52812622,1.52332154 L7.52812622,2.40149258 L6.58616268,2.40149258 L6.58616268,3.27966361 L7.52812622,3.27966361 L7.52812622,4.15828019 L6.58616268,4.15828019 L6.58616268,5.03110468 L7.52812622,5.03110468 L7.52812622,5.46818524 L3.76607013,5.46818524 L3.76607013,5.03110468 L4.70803367,5.03110468 L4.70803367,4.1524881 L3.76607013,4.1524881 L3.76607013,3.27431706 L4.70803367,3.27431706 L4.70803367,2.40149258 L3.76607013,2.40149258 L3.76607013,1.52332154 L4.70803367,1.52332154 L4.70803367,0.646041603 L3.76607013,0.646041603 L3.76607013,0 L2.82321458,0 L2.82321458,0.644704965 L1.88080504,0.644704965 L1.88080504,1.52332154 L2.82276858,1.52332154 L2.82276858,2.40149258 L1.88080504,2.40149258 L1.88080504,3.27966361 L2.82276858,3.27966361 L2.82276858,4.15828019 L1.88080504,4.15828019 L1.88080504,5.03110468 L2.82276858,5.03110468 L2.82276858,5.46818524 L0.942409545,5.46818524 C0.420583152,5.46818524 0,5.86115675 0,6.34680182 L0,14.2427668 C0,14.7284119 0.420583152,15.1213834 0.942409545,15.1213834 L0.942409545,15.9995545 L3.76607013,15.9995545 L3.76607013,15.121829 L12.2339299,15.121829 L12.2339299,16 L15.0580365,16 L15.0580365,15.121829 C15.5785248,15.121829 16,14.7288575 16,14.2432124 L16,6.34724736 C16,5.86472112 15.5785248,5.4717496 15.0571445,5.4717496 L15.0571445,5.4726407 Z M7.05892847,13.8047952 L7.05892847,10.7340926 L5.64732118,10.7340926 L9.40893126,7.22586394 L9.40893126,10.2965665 L10.8209846,10.2965665 L7.06026649,13.8047952 L7.05892847,13.8047952 Z" id="形状"></path>
        </g>
    </g>
</svg>