<?xml version="1.0" encoding="UTF-8"?>
<svg width="24px" height="24px" viewBox="0 0 24 24" version="1.1" xmlns="http://www.w3.org/2000/svg" xmlns:xlink="http://www.w3.org/1999/xlink">
    <title>自助服务模块图标/网络类资源</title>
    <g id="自助服务模块图标/网络类资源" stroke="none" stroke-width="1" fill="none" fill-rule="evenodd">
        <rect id="矩形" x="0" y="0" width="24" height="24"></rect>
        <rect id="矩形" fill="#1E87F0" x="0" y="0" width="24" height="24" rx="12"></rect>
        <g id="编组" transform="translate(4, 5)" fill="#FFFFFF" fill-rule="nonzero">
            <path d="M14.703,0 C15.419,0 16,0.606999996 16,1.35499999 L16,9.935 C16,10.684 15.42,11.29 14.703,11.29 L8.64800001,11.29 L8.64800001,12.645 L11.676,12.645 C12.069,12.645 12.283,12.832 12.319,13.205 L12.324,13.323 C12.324,13.774 12.108,14 11.676,14 L4.324,14 C3.93099999,14 3.717,13.813 3.681,13.44 L3.676,13.323 C3.676,12.871 3.892,12.645 4.324,12.645 L7.351,12.645 L7.351,11.29 L1.297,11.29 C0.581,11.29 0,10.684 0,9.935 L0,1.35499999 C0,0.606999996 0.579999998,0 1.297,0 L14.703,0 Z M14.703,1.35499999 L1.297,1.35499999 L1.297,9.935 L14.703,9.935 L14.703,1.35499999 Z M6.91900001,3.5 C7.211,3.5 7.45100001,3.74100001 7.46,4.046 C7.47515106,4.34445896 7.25166691,4.60150992 6.95400001,4.628 L6.91900001,4.629 L5.94600001,4.629 C5.35900001,4.629 4.879,5.12000001 4.866,5.734 C4.85400001,6.347 5.312,6.859 5.899,6.886 L5.94600001,6.887 L6.91900001,6.887 C7.211,6.887 7.45100001,7.128 7.46,7.433 C7.47515106,7.73145896 7.25166691,7.98850992 6.95400001,8.015 L6.91900001,8.016 L5.94600001,8.016 C4.75200001,8.016 3.78399999,7.006 3.78399999,5.75799999 C3.78399999,4.53199999 4.71899999,3.534 5.885,3.501 L5.945,3.5 L6.91900001,3.5 Z M9.96499999,3.5 C11.159,3.5 12.127,4.51 12.127,5.75799999 C12.127,6.984 11.192,7.98199999 10.026,8.015 L9.96499999,8.016 L8.99199999,8.016 C8.69337035,8.01060628 8.4531978,7.76866124 8.45,7.47 C8.43487821,7.1711858 8.65893399,6.91398567 8.95699999,6.888 L9.96499999,6.888 C10.552,6.886 11.032,6.396 11.045,5.783 C11.057,5.16900001 10.599,4.65800001 10.012,4.63000001 L9.96499999,4.629 L8.99199999,4.629 C8.69337035,4.62360628 8.4531978,4.38166124 8.45,4.083 C8.43487821,3.7841858 8.65893399,3.52698567 8.95699999,3.501 L8.99199999,3.5 L9.96499999,3.5 Z M9.189,5.194 C9.514,5.194 9.69199999,5.346 9.724,5.651 L9.73,5.75799999 C9.73,6.13399999 9.55,6.323 9.19,6.323 L6.81,6.323 C6.48599999,6.323 6.308,6.17000001 6.27599999,5.865 L6.27,5.75799999 C6.27,5.382 6.44999999,5.194 6.81,5.194 L9.19,5.194 L9.189,5.194 Z" id="形状"></path>
        </g>
    </g>
</svg>