<?xml version="1.0" encoding="UTF-8"?>
<svg width="24px" height="24px" viewBox="0 0 24 24" version="1.1" xmlns="http://www.w3.org/2000/svg" xmlns:xlink="http://www.w3.org/1999/xlink">
    <title>自助服务模块图标/办公类资源</title>
    <g id="自助服务模块图标/办公类资源" stroke="none" stroke-width="1" fill="none" fill-rule="evenodd">
        <rect id="矩形" x="0" y="0" width="24" height="24"></rect>
        <rect id="矩形" fill="#1E87F0" x="0" y="0" width="24" height="24" rx="12"></rect>
        <g id="编组" transform="translate(4, 5)" fill="#FFFFFF" fill-rule="nonzero">
            <path d="M12.4871102,14 L0.532460643,14 C0.356275535,14.0017107 0.19082502,13.9205822 0.0915679915,13.7837813 C-0.0076890366,13.6469804 -0.0276159045,13.4726128 0.0384668598,13.3191262 L3.01889602,6.30950301 C3.10016012,6.12069139 3.29616579,5.99789839 3.5128898,6 L15.4675394,6 C15.6437245,5.99828927 15.809175,6.07941778 15.908432,6.21621867 C16.007689,6.35301957 16.0276159,6.52738724 15.9615331,6.68087378 L12.981104,13.690497 C12.8998399,13.8793086 12.7038342,14.0021016 12.4871102,14 Z M2,13 L12.5184729,13 L15,7 L4.46551724,7 L2,13 Z" id="形状"></path>
            <path d="M0.518170472,14 C0.231992822,14 0,13.7720763 0,13.4909181 L0.0485784817,0.509330802 C0.0485099686,0.371511775 0.105319952,0.239554253 0.206026675,0.1436121 C0.306733399,0.0476699458 0.442730772,-0.00405791564 0.58294178,0.000248945931 L4.71211273,0.063884178 C4.99829037,0.063884178 5.2302832,0.291807889 5.2302832,0.572966035 L5.2302832,2.81610796 L14.4763875,2.76838154 C14.6496449,2.76659458 14.812346,2.85000391 14.9099536,2.99065079 C15.0075613,3.13129767 15.027157,3.31056748 14.9621724,3.46836909 L13.8934458,6.15695765 C13.7906007,6.42054341 13.489735,6.55231181 13.2214434,6.4512706 C12.9531519,6.35022939 12.819031,6.05464083 12.9218761,5.79105506 L13.7153247,3.78654525 L4.6959199,3.83427168 C4.40974225,3.83427168 4.17774943,3.60634797 4.17774943,3.32518982 L4.17774943,1.06613908 L1.08491942,1.03432147 L1.03634094,13.4909181 C1.03634094,13.7720763 0.804348121,14 0.518170472,14 Z" id="路径"></path>
            <path d="M5,10 C5,10.5522848 5.44771525,11 6,11 C6.55228475,11 7,10.5522848 7,10 C7,9.64273442 6.80940109,9.3126074 6.5,9.1339746 C6.19059893,8.9553418 5.80940107,8.9553418 5.5,9.1339746 C5.19059891,9.3126074 5,9.64273442 5,10 L5,10 Z" id="路径"></path>
            <path d="M7.0074769,8.12186103 C7.05099586,8.47645641 7.28039917,8.78089682 7.60926672,8.92049438 C7.93813427,9.06009194 8.31649904,9.01363668 8.60182459,8.79862908 C8.88715014,8.58362148 9.03608508,8.23272907 8.9925231,7.87813897 C8.94900414,7.52354359 8.71960083,7.21910318 8.39073328,7.07950562 C8.06186573,6.93990806 7.68350096,6.98636332 7.39817541,7.20137092 C7.11284986,7.41637852 6.96391492,7.76727093 7.0074769,8.12186103 L7.0074769,8.12186103 Z" id="路径"></path>
            <path d="M7.86083742,12.9902409 C8.2146117,13.0399868 8.56804919,12.8972001 8.78800314,12.6156711 C9.00795708,12.3341422 9.06100817,11.9566459 8.92717103,11.6253925 C8.7933339,11.294139 8.49294344,11.0594583 8.13916258,11.0097591 C7.7853883,10.9600132 7.43195081,11.1027999 7.21199686,11.3843289 C6.99204292,11.6658578 6.93899183,12.0433541 7.07282897,12.3746075 C7.2066661,12.705861 7.50705656,12.9405417 7.86083742,12.9902409 L7.86083742,12.9902409 Z" id="路径"></path>
            <path d="M5.56565649,10 C5.32120202,9.99428983 5.10729056,9.87008979 5.02995267,9.68896273 C4.95261478,9.50783568 5.02828795,9.30827857 5.21946288,9.18920687 L7.0597552,8.09392491 C7.3163623,7.94073405 7.68345846,7.97894505 7.87968741,8.17927156 C8.07591637,8.37959808 8.02697022,8.66618054 7.77036312,8.8193714 L5.91185009,9.90042891 C5.81329982,9.96199797 5.69181791,9.9969382 5.56565649,10 L5.56565649,10 Z" id="路径"></path>
            <path d="M7.30605501,12 C7.20722554,11.9995045 7.11055715,11.973637 7.02717001,11.9253731 L5.25543002,10.9402985 C5.09425411,10.8523152 4.99691323,10.6927844 5.00007473,10.5217997 C5.00323624,10.3508151 5.10641982,10.1943533 5.27075723,10.111352 C5.43509464,10.0283506 5.63561911,10.0314197 5.79679502,10.119403 L7.58494001,11.1044776 C7.78144172,11.2181974 7.87210463,11.4361082 7.80762491,11.6397069 C7.7431452,11.8433057 7.53893833,11.9839171 7.30605501,11.9850746 L7.30605501,12 Z M14.47504,8.95522388 L12.161935,8.95522388 C11.8720076,8.95522388 11.636975,8.74138973 11.636975,8.47761194 C11.636975,8.21383415 11.8720076,8 12.161935,8 L14.47504,8 C14.7649674,8 15,8.21383415 15,8.47761194 C15,8.74138973 14.7649674,8.95522388 14.47504,8.95522388 Z M13.769625,10.6716418 L10.980775,10.6716418 C10.6908476,10.6716418 10.455815,10.4578076 10.455815,10.1940299 C10.455815,9.93025206 10.6908476,9.71641791 10.980775,9.71641791 L13.769625,9.71641791 C14.0595524,9.71641791 14.294585,9.93025206 14.294585,10.1940299 C14.294585,10.4578076 14.0595524,10.6716418 13.769625,10.6716418 Z" id="形状"></path>
        </g>
    </g>
</svg>