<?xml version="1.0" encoding="UTF-8"?>
<svg width="24px" height="24px" viewBox="0 0 24 24" version="1.1" xmlns="http://www.w3.org/2000/svg" xmlns:xlink="http://www.w3.org/1999/xlink">
    <title>自助服务模块图标/套装软件</title>
    <g id="自助服务模块图标/套装软件" stroke="none" stroke-width="1" fill="none" fill-rule="evenodd">
        <rect id="矩形" x="0" y="0" width="24" height="24"></rect>
        <rect id="矩形" fill="#1E87F0" x="0" y="0" width="24" height="24" rx="12"></rect>
        <g id="编组" transform="translate(4, 4)" fill="#FFFFFF" fill-rule="nonzero">
            <path d="M5.53846154,0 L1.84615385,0 C0.826551231,0 0,0.826551231 0,1.84615385 L0,5.53846154 C0,6.55806415 0.826551231,7.38461538 1.84615385,7.38461538 L5.53846154,7.38461538 C6.55806415,7.38461538 7.38461538,6.55806415 7.38461538,5.53846154 L7.38461538,1.84615385 C7.38461538,0.826551231 6.55806415,0 5.53846154,0 Z M6.15384615,5.53846154 C6.15384615,5.87832908 5.87832908,6.15384615 5.53846154,6.15384615 L1.84615385,6.15384615 C1.50628631,6.15384615 1.23076923,5.87832908 1.23076923,5.53846154 L1.23076923,1.84615385 C1.23076923,1.50628631 1.50628631,1.23076923 1.84615385,1.23076923 L5.53846154,1.23076923 C5.87832908,1.23076923 6.15384615,1.50628631 6.15384615,1.84615385 L6.15384615,5.53846154 Z M5.53846154,8.61538462 L1.84615385,8.61538462 C0.826551231,8.61538462 0,9.44193585 0,10.4615385 L0,14.1538462 C0,15.1734488 0.826551231,16 1.84615385,16 L5.53846154,16 C6.55806415,16 7.38461538,15.1734488 7.38461538,14.1538462 L7.38461538,10.4615385 C7.38461538,9.44193585 6.55806415,8.61538462 5.53846154,8.61538462 Z M6.15384615,14.1538462 C6.15384615,14.4937137 5.87832908,14.7692308 5.53846154,14.7692308 L1.84615385,14.7692308 C1.50628631,14.7692308 1.23076923,14.4937137 1.23076923,14.1538462 L1.23076923,10.4615385 C1.23076923,10.1216709 1.50628631,9.84615385 1.84615385,9.84615385 L5.53846154,9.84615385 C5.87832908,9.84615385 6.15384615,10.1216709 6.15384615,10.4615385 L6.15384615,14.1538462 Z M14.1538462,8.61538462 L10.4615385,8.61538462 C9.44193585,8.61538462 8.61538462,9.44193585 8.61538462,10.4615385 L8.61538462,14.1538462 C8.61538462,15.1734488 9.44193585,16 10.4615385,16 L14.1538462,16 C15.1734488,16 16,15.1734488 16,14.1538462 L16,10.4615385 C16,9.44193585 15.1734488,8.61538462 14.1538462,8.61538462 Z M14.7692308,14.1538462 C14.7692308,14.4937137 14.4937137,14.7692308 14.1538462,14.7692308 L10.4615385,14.7692308 C10.1216709,14.7692308 9.84615385,14.4937137 9.84615385,14.1538462 L9.84615385,10.4615385 C9.84615385,10.1216709 10.1216709,9.84615385 10.4615385,9.84615385 L14.1538462,9.84615385 C14.4937137,9.84615385 14.7692308,10.1216709 14.7692308,10.4615385 L14.7692308,14.1538462 Z M12.8455385,0.0578461538 L13.6516923,0.414769231 L13.3833846,1.39938462 L13.92,1.93723077 L14.9046154,1.66769231 L15.2615385,2.47384615 L14.3667692,3.01046154 L14.3667692,3.72676923 L15.1729231,4.35323077 L14.816,5.15815385 L13.8313846,4.88984615 L13.2935385,5.42646154 L13.5618462,6.41107692 L12.7569231,6.76923077 L12.2190769,5.87446154 L11.504,5.87446154 L10.9661538,6.76923077 L10.1612308,6.41230769 L10.4295385,5.42769231 L9.89292308,4.88984615 L8.90830769,5.06830769 L8.55138462,4.26338462 L9.44492308,3.72676923 L9.44492308,3.01046154 L8.55015385,2.47384615 L8.90830769,1.66769231 L9.89292308,1.93723077 L10.4295385,1.39938462 L10.2510769,0.414769231 L11.056,0.0578461538 L11.5926154,0.952615385 L12.3089231,0.952615385 L12.8455385,0.0578461538 L12.8455385,0.0578461538 Z M12.4886154,1.93723077 C11.6824615,1.57907692 10.7876923,1.93723077 10.4295385,2.74215385 C10.1495961,3.55632393 10.5379434,4.44946923 11.3243077,4.8 C12.1304615,5.15815385 13.0252308,4.8 13.3833846,3.99507692 C13.7403077,3.19015385 13.3833846,2.20553846 12.4886154,1.93723077 L12.4886154,1.93723077 Z" id="形状"></path>
        </g>
    </g>
</svg>