<?xml version="1.0" encoding="UTF-8"?>
<svg width="24px" height="24px" viewBox="0 0 24 24" version="1.1" xmlns="http://www.w3.org/2000/svg" xmlns:xlink="http://www.w3.org/1999/xlink">
    <title>自助服务模块图标/PC机</title>
    <g id="自助服务模块图标/PC机" stroke="none" stroke-width="1" fill="none" fill-rule="evenodd">
        <rect id="矩形" fill="#1E87F0" x="0" y="0" width="24" height="24" rx="12"></rect>
        <g id="编组" transform="translate(5, 5)" fill="#FFFFFF">
            <path d="M14.0625,0 L0.9375,0 C0.419733047,0 0,0.397969111 0,0.888888889 L0,11.1111111 C0,11.3468591 0.0987720378,11.5729515 0.274587393,11.7396505 C0.450402747,11.9063495 0.688859541,12 0.9375,12 L14.0625,12 C14.580267,12 15,11.6020309 15,11.1111111 L15,0.888888889 C15,0.397969111 14.580267,0 14.0625,0 Z M0.9375,0.888888889 L14.0625,0.888888889 L14.0625,11.1111111 L0.9375,11.1111111 L0.9375,0.888888889 Z" id="形状" fill-rule="nonzero"></path>
            <path d="M4.79848408,3 C6.03949164,3 7.04552704,4.0331889 7.04552704,5.307692 C7.04552704,6.5821951 6.03949164,7.615384 4.79848408,7.615384 L3.45025831,7.615384 C3.2020568,7.615384 3.00084972,7.40874622 3.00084972,7.1538456 L3.00084972,3.4615384 C3.00084972,3.20663778 3.2020568,3 3.45025831,3 Z M4.79848408,3.9230768 L3.8996669,3.9230768 L3.8996669,6.6923072 L4.79848408,6.6923072 C5.54308862,6.6923072 6.14670986,6.07239386 6.14670986,5.307692 C6.14670986,4.54299014 5.54308862,3.9230768 4.79848408,3.9230768 Z" id="形状结合" fill-rule="nonzero"></path>
            <path d="M3,7 L4,7 L4,9.5 C4,9.77614237 3.77614237,10 3.5,10 C3.22385763,10 3,9.77614237 3,9.5 L3,7 L3,7 Z" id="矩形"></path>
            <path d="M10.1913872,3 C10.9014528,3 11.5324224,3.45692302 11.9458783,4.19907676 C12.0619166,4.41957966 11.9853861,4.69488953 11.7734844,4.81924442 C11.5615826,4.94359931 11.2917723,4.8715402 11.165705,4.65692286 C10.9014528,4.18153831 10.5446223,3.9230768 10.1913872,3.9230768 C9.49390505,3.9230768 8.8431614,4.92646128 8.8431614,6.2307688 C8.8431614,7.53507632 9.49390505,8.53846081 10.1913872,8.53846081 C10.5356342,8.53846081 10.8825776,8.29384545 11.145931,7.83876859 C11.2281368,7.69696164 11.377763,7.61096661 11.5384467,7.61317698 C11.6991305,7.61538736 11.8464602,7.70546733 11.9249381,7.84948465 C12.0034161,7.99350197 12.0011196,8.16957697 11.9189138,8.31138391 C11.5036603,9.02492228 10.885274,9.46153761 10.1913872,9.46153761 C8.90248334,9.46153761 7.94434422,7.98461472 7.94434422,6.2307688 C7.94434422,4.47692288 8.90248334,3 10.1913872,3 Z" id="路径" fill-rule="nonzero"></path>
            <path d="M11.539613,14.0769208 C11.7723968,14.0764815 11.9669775,14.2586677 11.9880106,14.4967571 C12.0090438,14.7348464 11.8495666,14.9500218 11.6205065,14.9926138 L11.539613,14.9999992 L3.45025831,14.9999992 C3.21747448,15.0004385 3.02289379,14.8182523 3.00186064,14.580163 C2.98082749,14.3420736 3.14030469,14.1268982 3.36936476,14.0843062 L3.45025831,14.0769208 L11.539613,14.0769208 L11.539613,14.0769208 Z" id="路径" fill-rule="nonzero"></path>
        </g>
    </g>
</svg>