<?xml version="1.0" encoding="UTF-8"?>
<svg width="16px" height="16px" viewBox="0 0 16 16" version="1.1" xmlns="http://www.w3.org/2000/svg" xmlns:xlink="http://www.w3.org/1999/xlink">
    <title>通用图标/菜单图标/资源申请管理</title>
    <g id="通用图标/菜单图标/资源申请管理" stroke="none" stroke-width="1" fill="none" fill-rule="evenodd">
        <rect id="矩形" x="0" y="0" width="16" height="16"></rect>
        <g id="编组" transform="translate(1, 0)" fill="#BCBECA" fill-rule="nonzero">
            <path d="M0.343295204,0.304939861 C0.543291575,0.114110077 0.817731045,0.0017060182 1.0955038,0 C3.69101232,0 6.28633566,0.000236689443 8.88184417,0 C8.88314044,0.9564059 8.88202935,1.91275876 8.88239973,2.8692953 C8.88388118,3.00392304 8.87443691,3.13983646 8.90239936,3.27262751 C8.95369473,3.53820966 9.10832156,3.7817518 9.32683612,3.94337857 C9.51516604,4.08443465 9.75016178,4.16286036 9.98626861,4.16322769 L13,4.16322769 C13,5.88859332 13,7.61414263 13,9.33950826 C12.3419667,9.04600876 11.56624,9.02305041 10.8934744,9.28312256 C10.2973741,9.50866535 9.78793887,9.94964926 9.48053703,10.5039556 C9.14702456,11.0944443 9.05443365,11.8107447 9.21776401,12.4671697 C9.27035565,12.6794885 9.34998383,12.8851953 9.4512783,13.0795147 C9.24017102,13.0796983 9.02906372,13.079331 8.81795645,13.0796983 C8.69758825,13.0800657 8.57722007,13.101371 8.46537025,13.1454511 C8.11537659,13.2773238 7.86278858,13.6275763 7.85464057,13.9993179 C7.8533443,14.5561955 7.85445539,15.1132568 7.85408503,15.6701345 C7.85501094,15.7799672 7.85075176,15.8901673 7.85908493,16 C5.60449615,15.9998163 3.34990739,16 1.09531861,15.9998163 C0.836619588,15.9979796 0.580513124,15.9010036 0.385146295,15.7327648 C0.147743195,15.5314661 0.00256062972,15.2267629 0.000338448349,14.9165497 C7.5019927e-05,10.3133095 0.000523643212,5.70988556 7.5019927e-05,1.1066453 C-0.00355036138,0.807452131 0.124410289,0.510462963 0.343295204,0.304939861 M2.43196105,5.16880326 C2.27974158,5.20314895 2.15196613,5.32363434 2.10918912,5.47258809 C2.07085648,5.6112565 2.09141167,5.77031193 2.18252113,5.88510366 C2.2654826,5.99401805 2.40122087,6.05977075 2.53899616,6.05719942 C4.11378243,6.05756674 5.68875389,6.05738308 7.26354016,6.05719942 C7.44205545,6.06179108 7.61501527,5.94755035 7.67964375,5.7826176 C7.73853157,5.63366385 7.71927265,5.45256842 7.61816338,5.32583834 C7.5344612,5.21839327 7.39890809,5.15410991 7.26187353,5.15723224 C5.72486434,5.15759957 4.18785517,5.15741591 2.65084598,5.15741591 C2.57788435,5.15796692 2.50381161,5.1524569 2.43196105,5.16880326 M2.48844152,8.03602519 C2.34566633,8.04906553 2.21363169,8.13704192 2.14566996,8.26193532 C2.08844877,8.36387039 2.07900449,8.48692712 2.10418922,8.59951484 C2.14048486,8.75214193 2.26585296,8.87923933 2.41862796,8.91872768 C2.49473769,8.93893104 2.57399552,8.93305369 2.65177189,8.9336047 L7.26261427,8.9336047 C7.412056,8.93709436 7.55946075,8.85940333 7.64001484,8.73450992 C7.71093948,8.62890153 7.72705029,8.49372279 7.70001374,8.37140071 C7.66501437,8.22097763 7.544461,8.09332923 7.39427855,8.05163686 C7.33372409,8.03253551 7.26983636,8.03308652 7.20705971,8.03345386 C5.63412526,8.03565786 4.06119079,8.03033152 2.48844152,8.03602519 M2.43122033,10.9361235 C2.30363006,10.9656938 2.19178023,11.0549559 2.13548495,11.172319 C2.09030058,11.2630503 2.08252295,11.3686587 2.09937449,11.4674715 C2.1288184,11.6327715 2.2634456,11.7740113 2.4284426,11.811663 C2.50140423,11.8294786 2.57695842,11.8236013 2.65140152,11.8245197 C3.92323032,11.824336 5.19487395,11.824887 6.46670275,11.824336 C6.58151549,11.8252543 6.69595786,11.780807 6.77780823,11.7009119 C6.93280542,11.5563662 6.95706424,11.301253 6.84243669,11.1258513 C6.7629937,11.0007742 6.6161445,10.9217975 6.46707313,10.9245525 L2.65158671,10.9245525 C2.57806953,10.9251035 2.50344125,10.9195935 2.43122033,10.9361235 L2.43122033,10.9361235 Z" id="形状"></path>
            <path d="M9.25105247,0.000302566012 C9.99294542,0.000485252125 10.7348384,-0.000793566337 11.4765648,0.000850640019 C11.8377692,0.000850640019 12.186817,0.236884496 12.3511825,0.589108386 C12.4281195,0.748595654 12.4660885,0.929457508 12.4650893,1.1097713 C12.4652558,1.94155315 12.4649227,2.77315232 12.4652558,3.60475147 C11.7863113,3.60566492 11.1073669,3.60493416 10.4284224,3.60511685 C10.3005271,3.60383803 10.1709664,3.61333784 10.045236,3.58209807 C9.79527384,3.52582993 9.56845942,3.35866974 9.42524328,3.12702041 C9.3103373,2.94414898 9.24972023,2.72199947 9.251219,2.50021534 C9.25088594,1.66678929 9.251219,0.833545928 9.25105247,0.000302566012 Z M10.6417479,10.3333606 C11.1042028,9.9805886 11.7473432,9.94770463 12.2382749,10.2504199 C12.5330337,10.4272626 12.7718383,10.7133532 12.9057287,11.0513273 C13.0489449,11.4083011 13.0722591,11.8202642 12.9728405,12.1944108 C12.9092259,12.4392137 12.7904897,12.6641036 12.6372817,12.8544652 C12.6377813,13.040625 12.6372817,13.2267849 12.6376148,13.4129447 C12.7725044,13.4131274 12.907394,13.4131274 13.0424502,13.4129447 C13.1695129,13.4094736 13.2992401,13.4173292 13.4199746,13.4651937 C13.7423775,13.5832106 13.9853453,13.9273962 14,14.3013601 C13.9908408,14.5763066 13.9950041,14.852532 13.9976686,15.1278439 C13.9835135,15.423617 13.8228117,15.7011212 13.5949981,15.8564066 C13.4719321,15.9417223 13.3288825,15.9884906 13.1841676,16 L9.81925421,16 C9.65855237,15.9875772 9.50034849,15.9303956 9.36878946,15.8277245 C9.15080116,15.6611124 9.00891725,15.3799544 9.00125686,15.0880178 C8.99892544,14.8985696 9.00109034,14.7089387 9.00025768,14.5194904 C9.00109034,14.4162713 8.99559483,14.3121387 9.01174827,14.209833 C9.04455476,13.9796452 9.1597938,13.766082 9.32565809,13.6212099 C9.47603504,13.4880298 9.66804461,13.4142235 9.86121986,13.4133101 C10.029249,13.4123966 10.1974448,13.4134928 10.3656405,13.4131274 C10.3661401,13.2267849 10.3654739,13.040625 10.3661401,12.8542825 C10.2372455,12.6931511 10.1311657,12.5090008 10.064387,12.3069471 C9.93865651,11.9355409 9.93848997,11.5149914 10.0640539,11.1432198 C10.1731313,10.8158416 10.3787964,10.5288375 10.6417479,10.3333606 L10.6417479,10.3333606 Z" id="形状"></path>
        </g>
    </g>
</svg>