<?xml version="1.0" encoding="UTF-8"?>
<svg width="16px" height="16px" viewBox="0 0 16 16" version="1.1" xmlns="http://www.w3.org/2000/svg" xmlns:xlink="http://www.w3.org/1999/xlink">
    <title>通用图标/菜单图标/运行计划管理</title>
    <g id="通用图标/菜单图标/运行计划管理" stroke="none" stroke-width="1" fill="none" fill-rule="evenodd">
        <rect id="矩形" x="0" y="0" width="16" height="16"></rect>
        <g id="编组" fill="#BCBECA" fill-rule="nonzero">
            <path d="M14.871863,6.87170992 L14.0753042,6.87170992 C13.9150721,6.00437024 13.5767218,5.20014986 13.0953453,4.50052349 L13.6571456,3.9386709 C14.0979213,3.49822902 14.0979213,2.78376248 13.6571456,2.3433854 C13.2165319,1.9026519 12.5014338,1.9026519 12.0619218,2.3433854 L11.4999271,2.90523799 C10.7997991,2.42325661 9.99546359,2.08475175 9.12791016,1.92471774 L9.12791016,1.12811186 C9.12791016,0.505116492 8.62284721,0 7.99970835,0 C7.37663429,0 6.87157136,0.505116492 6.87157136,1.12811186 L6.87157136,1.92468535 C6.00398553,2.08471938 5.19965003,2.42322422 4.49955445,2.90494638 L3.93862902,2.34361223 C3.49804772,1.90294353 2.78291722,1.90294353 2.3434052,2.34361223 C1.90262947,2.78402172 1.90262947,3.49852065 2.3434052,3.93893013 L2.9041362,4.50026429 C2.42275972,5.20014986 2.08444176,6.00437024 1.9246958,6.87170993 L1.12813699,6.87170992 C0.504544495,6.87170992 0,7.37685882 0,7.99988659 C0,8.62291437 0.504544495,9.12799846 1.12813699,9.12799846 L1.92469582,9.12799846 C2.08444178,9.99559735 2.42272734,10.7998825 2.90520552,11.4997681 L2.34340521,12.0616207 C1.90262949,12.5020302 1.90262949,13.2164967 2.34340521,13.6569062 C2.56316122,13.877273 2.85235649,13.9874401 3.14100092,13.9874401 C3.42967775,13.9874401 3.71835458,13.877273 3.93862904,13.6569062 L4.50059135,13.0950536 C5.2002009,13.5767758 6.0045364,13.915313 6.87157138,14.0752823 L6.87157138,14.8718557 C6.87157138,15.4948835 7.37666673,16 7.99970837,16 C8.62281482,16 9.12787777,15.4948511 9.12787777,14.8718557 L9.12787777,14.0752823 C9.99494515,13.9152806 10.7992482,13.5767758 11.4993762,13.0950536 L12.0618894,13.6571978 C12.281613,13.8775322 12.5708407,13.9876994 12.8594851,13.9876994 C13.1481296,13.9876994 13.4368064,13.8775322 13.6571132,13.6571978 C14.097889,13.2167883 14.097889,12.5023218 13.6571132,12.0618799 L13.0947945,11.4997681 C13.5684267,10.8114501 13.901787,10.0212274 14.0653889,9.16989439 L14.0857055,9.12799846 L14.871863,9.12799846 C15.4949371,9.12799846 16,8.62291436 16,7.99988659 C16,7.37685883 15.4949694,6.87170992 14.871863,6.87170992 Z M7.99970835,12.2293664 C5.6672877,12.2293664 3.77010188,10.3319313 3.77010188,7.99988659 C3.77010188,5.66777712 5.66728769,3.77034195 7.99970835,3.77034195 C10.2341428,3.77034195 12.0647084,5.51328385 12.2145067,7.71037374 L13.6196555,7.12289108 C13.6583445,7.10665763 13.7034168,7.11624865 13.7332599,7.14709546 C13.761904,7.17797468 13.7684169,7.22366165 13.7496881,7.26170172 C13.0688398,8.63995789 13.5437033,7.67981855 11.7709119,11.2656305 C11.7511462,11.3055499 11.7103511,11.33118 11.6657972,11.33118 C11.6432124,11.33118 11.622345,11.3248615 11.6036161,11.313294 C11.5854057,11.3019857 11.5704356,11.285493 11.5605204,11.2656305 C11.2019182,10.5404065 10.0429985,8.19647021 9.58067491,7.26170174 C9.56194608,7.22369407 9.56865346,7.17797468 9.59778361,7.14709548 C9.62691375,7.11602185 9.67218051,7.10633363 9.71067507,7.1228911 L11.0856244,7.69741292 C10.9326507,6.12856755 9.60714802,4.89848623 7.99970834,4.89848623 C6.28981089,4.89848623 4.89827127,6.28967083 4.89827127,7.99985422 C4.89827127,9.70997279 6.28981088,11.1011898 7.99970834,11.1011898 C8.71464443,11.1011898 9.37203308,10.8554846 9.89689414,10.4475744 L10.4048085,11.4746565 C9.72110881,11.9492826 8.89328125,12.2293664 7.99970835,12.2293664 Z" id="形状"></path>
        </g>
    </g>
</svg>