<svg width="14px" height="14px" viewBox="0 0 14 14" fill="none" xmlns="http://www.w3.org/2000/svg">
<g clip-path="url(#clip0_2_83)">
<path d="M12.5517 0C13.3516 0 14 0.671573 14 1.5V9.75C14 10.5784 13.3516 11.25 12.5517 11.25H1.44828C0.648415 11.25 0 10.5784 0 9.75V1.5C0 0.671573 0.648415 0 1.44828 0H12.5517ZM12.011 3.306C11.8973 3.18932 11.7435 3.12421 11.5834 3.125C11.4234 3.1258 11.2701 3.19244 11.1575 3.31025L8.53179 6.055L6.89138 4.13575L6.86169 4.10325C6.62447 3.86285 6.24433 3.86598 6.01083 4.11025L2.95062 7.31L2.92141 7.3425C2.71515 7.59135 2.72969 7.963 2.95472 8.19375L2.9861 8.224C3.22637 8.43763 3.58521 8.42257 3.808 8.1895L6.41466 5.464L8.05531 7.3835L8.085 7.416C8.32222 7.6564 8.70236 7.65327 8.93586 7.409L12.0149 4.19L12.0441 4.1575C12.2504 3.90865 12.2361 3.53675 12.011 3.306ZM3.37931 12.5H10.6207C11.0206 12.5 11.3448 12.8358 11.3448 13.25C11.3448 13.6642 11.0206 14 10.6207 14H3.37931C2.97938 14 2.65517 13.6642 2.65517 13.25C2.65517 12.8358 2.97938 12.5 3.37931 12.5Z" fill="white"/>
</g>
<defs>
<clipPath id="clip0_2_83">
<rect width="14" height="14" fill="white"/>
</clipPath>
</defs>
</svg>
