<?xml version="1.0" encoding="UTF-8"?>
<svg width="14px" height="14px" viewBox="0 0 14 14" version="1.1" xmlns="http://www.w3.org/2000/svg" xmlns:xlink="http://www.w3.org/1999/xlink">
    <title>工作台 3</title>
    <g id="设计稿" stroke="none" stroke-width="1" fill="none" fill-rule="evenodd">
        <g id="导航/菜单项/默认备份-3" transform="translate(-8, -7)" fill="#FFFFFF" fill-rule="nonzero">
            <g id="工作台" transform="translate(8, 7)">
                <path d="M12.5517241,0 C13.3515848,0 14,0.671572878 14,1.5 L14,9.75000001 C14,10.5784271 13.3515848,11.25 12.5517241,11.25 L1.44827587,11.25 C0.6484152,11.25 0,10.5784271 0,9.75000001 L0,1.5 C0,0.671572878 0.648415192,0 1.44827587,0 L12.5517241,0 L12.5517241,0 Z M12.0110345,3.30600001 C11.8973181,3.18931588 11.7434984,3.12420841 11.5834258,3.12499824 C11.4233533,3.12580254 11.2701451,3.19243882 11.1575172,3.31025001 L8.53179311,6.055 L6.89137931,4.13575 L6.86168965,4.10325 C6.62446794,3.8628483 6.24433215,3.86597567 6.01082759,4.11025001 L2.9506207,7.31000001 L2.9214138,7.34250001 C2.71515165,7.59135126 2.72969478,7.96300268 2.95472414,8.19375 L2.98610345,8.224 C3.22637362,8.43762867 3.58520949,8.42256615 3.80800001,8.18950001 L6.41465518,5.46400002 L8.05531033,7.3835 L8.085,7.41599999 C8.3222217,7.65640171 8.70235751,7.65327436 8.93586207,7.40900001 L12.0148965,4.19000001 L12.0441034,4.15750001 C12.2503656,3.90864876 12.2358225,3.53699734 12.0107931,3.30625002 L12.0110345,3.30600001 Z M3.37931034,12.5 L10.6206897,12.5 C11.02062,12.5 11.3448276,12.8357864 11.3448276,13.25 C11.3448276,13.6642136 11.02062,14 10.6206897,14 L3.37931034,14 C2.97938001,14 2.65517241,13.6642136 2.65517241,13.25 C2.65517241,12.8357864 2.97938001,12.5 3.37931034,12.5 Z" id="形状"></path>
            </g>
        </g>
    </g>
</svg>