<?xml version="1.0" encoding="UTF-8"?>
<svg width="10.7px" height="14px" viewBox="0 0 10.7 14" version="1.1" xmlns="http://www.w3.org/2000/svg" xmlns:xlink="http://www.w3.org/1999/xlink">
    <title>工作台 2</title>
    <g id="设计稿" stroke="none" stroke-width="1" fill="none" fill-rule="evenodd">
        <g id="导航/菜单项/默认备份-2" transform="translate(-9.65, -7)" fill="#FFFFFF" fill-rule="nonzero">
            <g id="工作台" transform="translate(9.65, 7)">
                <path d="M10.1,1.75 C10.1,1.75 9.29999999,1.75 8,1.24999999 C6.6,0.749999988 5.74999999,0.199999994 5.74999999,0.199999994 L5.34999999,0 L5,0.199999994 C5,0.199999994 4.1,0.749999988 2.74999998,1.24999999 C1.39999999,1.7 0.649999984,1.75 0.649999984,1.75 L0,1.8 L0,8.7 C0,11.25 4.74999999,14 5.34999999,14 C5.89999998,14 10.7,11.25 10.7,8.7 L10.7,1.8 L10.1,1.75 Z M4.99999999,9.7 L2.49999999,7.4 L3.24999999,6.45000001 L4.84999998,7.90000001 L7.84999998,4.15000001 L8.74999997,5.00000002 L4.99999999,9.7 L4.99999999,9.7 Z" id="形状"></path>
            </g>
        </g>
    </g>
</svg>