<?xml version="1.0" encoding="UTF-8"?>
<svg width="24px" height="24px" viewBox="0 0 24 24" version="1.1" xmlns="http://www.w3.org/2000/svg" xmlns:xlink="http://www.w3.org/1999/xlink">
    <title>自助服务模块图标/服务器</title>
    <g id="自助服务模块图标/服务器" stroke="none" stroke-width="1" fill="none" fill-rule="evenodd">
        <rect id="矩形" fill="#1E87F0" x="0" y="0" width="24" height="24" rx="12"></rect>
        <g id="编组" transform="translate(5, 4.5)" fill="#FFFFFF" fill-rule="nonzero">
            <path d="M13.5,3.46153846 L13.5,2.30769231 C13.5,1.03846154 12.4875,0 11.25,0 L2.25,0 C1.0125,0 0,1.03846154 0,2.30769231 L0,3.46153846 C0,4.15384615 0.309375,4.75961538 0.759375,5.19230769 C0.309375,5.625 0,6.23076923 0,6.92307692 L0,8.07692308 C0,8.76923077 0.309375,9.375 0.759375,9.80769231 C0.309375,10.2403846 0,10.8461538 0,11.5384615 L0,12.6923077 C0,13.9615385 1.0125,15 2.25,15 L11.25,15 C12.4875,15 13.5,13.9615385 13.5,12.6923077 L13.5,11.5384615 C13.5,10.8461538 13.190625,10.2403846 12.740625,9.80769231 C13.21875,9.375 13.5,8.76923077 13.5,8.07692308 L13.5,6.92307692 C13.5,6.23076923 13.190625,5.625 12.740625,5.19230769 C13.190625,4.75961538 13.5,4.15384615 13.5,3.46153846 Z M12.375,12.6923077 C12.375,13.3269231 11.86875,13.8461538 11.25,13.8461538 L2.25,13.8461538 C1.63125,13.8461538 1.125,13.3269231 1.125,12.6923077 L1.125,11.5384615 C1.125,10.9038462 1.63125,10.3846154 2.25,10.3846154 L11.25,10.3846154 C11.86875,10.3846154 12.375,10.9038462 12.375,11.5384615 L12.375,12.6923077 Z M12.375,8.07692308 C12.375,8.71153846 11.86875,9.23076923 11.25,9.23076923 L2.25,9.23076923 C1.63125,9.23076923 1.125,8.71153846 1.125,8.07692308 L1.125,6.92307692 C1.125,6.28846154 1.63125,5.76923077 2.25,5.76923077 L11.25,5.76923077 C11.86875,5.76923077 12.375,6.28846154 12.375,6.92307692 L12.375,8.07692308 Z M12.375,3.46153846 C12.375,4.09615385 11.86875,4.61538462 11.25,4.61538462 L2.25,4.61538462 C1.63125,4.61538462 1.125,4.09615385 1.125,3.46153846 L1.125,2.30769231 C1.125,1.67307692 1.63125,1.15384615 2.25,1.15384615 L11.25,1.15384615 C11.86875,1.15384615 12.375,1.67307692 12.375,2.30769231 L12.375,3.46153846 Z" id="形状"></path>
            <path d="M8.5,2.5 C8.5,3.05228475 8.94771525,3.5 9.5,3.5 C10.0522847,3.5 10.5,3.05228475 10.5,2.5 C10.5,1.94771525 10.0522847,1.5 9.5,1.5 C8.94771525,1.5 8.5,1.94771525 8.5,2.5 Z M8.5,7.5 C8.5,8.05228475 8.94771525,8.5 9.5,8.5 C10.0522847,8.5 10.5,8.05228475 10.5,7.5 C10.5,6.94771525 10.0522847,6.5 9.5,6.5 C8.94771525,6.5 8.5,6.94771525 8.5,7.5 Z M8.5,11.5 C8.5,12.0522847 8.94771525,12.5 9.5,12.5 C10.0522847,12.5 10.5,12.0522847 10.5,11.5 C10.5,10.9477153 10.0522847,10.5 9.5,10.5 C8.94771525,10.5 8.5,10.9477153 8.5,11.5 Z" id="形状"></path>
        </g>
    </g>
</svg>