<?xml version="1.0" encoding="UTF-8"?>
<svg width="24px" height="24px" viewBox="0 0 24 24" version="1.1" xmlns="http://www.w3.org/2000/svg" xmlns:xlink="http://www.w3.org/1999/xlink">
    <title>自助服务模块图标/备品备件</title>
    <g id="自助服务模块图标/备品备件" stroke="none" stroke-width="1" fill="none" fill-rule="evenodd">
        <rect id="矩形" x="0" y="0" width="24" height="24"></rect>
        <rect id="矩形" fill="#1E87F0" x="0" y="0" width="24" height="24" rx="12"></rect>
        <g id="编组" transform="translate(4.5, 4.5)" fill="#FFFFFF" fill-rule="nonzero">
            <path d="M1.32000769,12.5 C1.32000769,12.6275 1.50216873,12.77375 1.82953062,12.92 L2.00509162,12.9925 C2.06845199,13.0175 2.13445237,13.04125 2.20441277,13.065 L2.42485403,13.13625 C2.50273448,13.16125 2.58325494,13.18375 2.66773543,13.2075 L2.92909693,13.275 L3.06769773,13.30875 L3.3580994,13.37125 C3.45709996,13.39375 3.56006056,13.41375 3.66566116,13.43375 L3.98906302,13.49 L4.32962498,13.5425 L4.50386598,13.5675 L4.86422805,13.6125 L5.23779019,13.6525 L5.62323241,13.68625 C5.75513278,13.6966698 5.88714018,13.705837 6.01923468,13.71375 L6.42447701,13.73375 L6.83895939,13.74625 C6.97756019,13.74875 7.118801,13.75 7.26004181,13.75 C7.62455184,13.75 7.9200456,14.029822 7.9200456,14.375 C7.9200456,14.720178 7.62455184,15 7.26004181,15 L7.03696053,15 L6.59607799,14.99125 L6.37827674,14.985 L5.94927428,14.96625 L5.52951187,14.94125 C5.32506949,14.9263334 5.12088375,14.9084146 4.91702835,14.8875 L4.52102608,14.84375 L4.32830497,14.81875 L3.9507828,14.765 C1.59852929,14.3975 0,13.61375 0,12.5 L0,2.52625 C0,2.47375 0.00660014434,2.42375 0.0198002202,2.37625 C0.00660210044,2.31411144 0,2.25088299 0,2.1875 C0,1.30125 1.21044706,0.675 3.09673789,0.32625 L3.38581955,0.27625 L3.74354161,0.22125 L3.83594214,0.20875 L3.92834267,0.19625 L4.30586484,0.15 L4.4035454,0.14 L4.49990595,0.13 L4.89590823,0.0925 L5.30511058,0.0625 L5.51235177,0.05 L5.72355298,0.0375 L6.15123544,0.01875 L6.25947606,0.01625 L6.36903669,0.0125 L6.80991922,0.0025 L7.26004181,0 L7.70884439,0.0025 L8.15104693,0.0125 L8.36884818,0.01875 L8.58400941,0.0275 L9.00773185,0.04875 L9.11201245,0.05625 L9.21629304,0.0625 L9.62285538,0.0925 L10.0188577,0.13 L10.2142188,0.15 L10.4042999,0.1725 L10.776542,0.2225 L10.8676225,0.235 L10.957383,0.2475 L11.3085051,0.30625 C12.5585522,0.52625 13.5247978,0.86625 14.0580809,1.31875 C14.3060772,1.39232989 14.48539,1.59687623 14.5161235,1.84125 L14.5200992,1.915 L14.5200992,4.975 C14.5224841,5.30772012 14.2491953,5.58389163 13.8984257,5.60321524 C13.5476561,5.62253886 13.2423934,5.37823929 13.204036,5.0475 L13.2000759,4.975 L13.2027159,3.5525 C12.7433533,3.74375 12.1797101,3.9025 11.5329064,4.0275 L11.1342641,4.09875 L10.776542,4.15375 L10.6841415,4.16625 L10.5917409,4.17875 L10.2142188,4.225 L10.1165382,4.235 L10.0201777,4.245 L9.62417539,4.2825 L9.21497304,4.3125 L9.00773185,4.325 L8.79653063,4.3375 L8.36884818,4.35625 L8.26060756,4.35875 L8.15104693,4.3625 L7.71016439,4.3725 L7.26004181,4.375 L6.81123923,4.3725 L6.36903669,4.3625 L6.15123544,4.35625 L5.9360742,4.3475 L5.51235177,4.32625 L5.40807117,4.31875 L5.30379057,4.3125 L4.89722824,4.2825 L4.50122596,4.245 L4.30586484,4.225 L4.11578375,4.2025 L3.74354161,4.1525 L3.65246109,4.14 L3.56270057,4.1275 L3.21157855,4.06875 C2.4710543,3.93875 1.82953062,3.76625 1.31868768,3.5525 L1.32000769,5.4825 L1.33584778,5.49125 L1.38204804,5.5175 C1.58004918,5.6225 1.90477105,5.73 2.32849348,5.83 C3.23929871,6.0425 4.5249861,6.1925 5.96775439,6.25 C6.20355103,6.25937822 6.41615269,6.38716838 6.52547437,6.58523316 C6.63479605,6.78329795 6.62422918,7.02154661 6.49775421,7.21023317 C6.37127924,7.39891974 6.14811071,7.50937823 5.91231407,7.5 L5.24703025,7.4675 L4.8219878,7.44 L4.40882543,7.40875 L4.01282316,7.37125 L3.63002096,7.33125 L3.26437886,7.28375 L3.08749784,7.25875 L2.74561588,7.205 C2.69098738,7.19533655 2.63642591,7.18533634 2.58193494,7.175 L2.26645312,7.1125 C1.94531874,7.04705609 1.62913856,6.96145034 1.32000769,6.85625 L1.32000769,9.23375 L1.33584778,9.2425 L1.38204804,9.26875 C1.58004918,9.37375 1.90477105,9.48125 2.32849348,9.58125 C3.23929871,9.79375 4.5249861,9.94375 5.96775439,10.00125 C6.33226441,10.0157475 6.61534742,10.307322 6.600038,10.6525 C6.58472858,10.997678 6.27682409,11.2657475 5.91231407,11.25125 L5.24703025,11.21875 L4.8219878,11.19125 L4.40882543,11.16 L4.01282316,11.1225 L3.63002096,11.0825 L3.26437886,11.035 L3.08749784,11.01 L2.74561588,10.95625 C2.69098739,10.9465865 2.63642592,10.9365863 2.58193494,10.92625 L2.26645312,10.86375 C1.94528749,10.7978973 1.62910679,10.7118738 1.32000769,10.60625 L1.32000769,12.5 Z M13.0852353,6.3875 C13.4693575,6.48 13.7584391,6.78125 13.8112394,7.155 C13.8224264,7.22890323 13.8706029,7.29314567 13.9406002,7.3275 C13.986771,7.35161562 14.0383719,7.36490328 14.091081,7.36625 L14.1544414,7.35875 L14.1768815,7.35375 L14.1966817,7.345 C14.5597531,7.20110408 14.9784757,7.27637313 15.2606078,7.53625 C15.8348111,8.0675 16.2492934,8.72875 16.4644547,9.45375 C16.5720965,9.81807025 16.4301335,10.2074306 16.1080526,10.43125 C16.0429857,10.4739699 16.0036673,10.543782 16.002452,10.61875 C16.0031454,10.6915754 16.0410189,10.7595789 16.1040926,10.80125 C16.4261745,11.02625 16.5687353,11.41625 16.4591746,11.78125 C16.2358316,12.5084257 15.819039,13.169108 15.2487277,13.7 C14.9693951,13.9586107 14.5549035,14.0361311 14.1927216,13.8975 C14.1058371,13.8643497 14.0077607,13.8703268 13.9260801,13.91375 C13.853798,13.9497348 13.8038358,14.016065 13.7914393,14.0925 C13.7363564,14.4622546 13.4504246,14.763656 13.0680752,14.855 C12.2833942,15.0457181 11.4608982,15.0482958 10.6749014,14.8625 C10.2893263,14.7722782 10.0013255,14.4678163 9.94889725,14.095 C9.93771032,14.0210968 9.8895338,13.9568543 9.81953651,13.9225 C9.73744821,13.8798916 9.63938379,13.8748347 9.55289498,13.90875 C9.19200009,14.0472585 8.77877369,13.9707617 8.49952893,13.71375 C7.92764565,13.1855943 7.51248103,12.5243157 7.29568201,11.79625 C7.18804021,11.4319297 7.33000319,11.0425694 7.65208406,10.81875 C7.71715098,10.7760301 7.75646937,10.706218 7.75768467,10.63125 C7.75699128,10.5584246 7.71911776,10.4904211 7.65604408,10.44875 C7.33304473,10.2244514 7.19142329,9.83358676 7.30096204,9.46875 C7.52430511,8.74157426 7.9410977,8.08089204 8.511409,7.55 C8.79074162,7.29138934 9.20523321,7.21386887 9.56741506,7.3525 C9.65321555,7.385 9.75221612,7.38 9.83405659,7.33625 C9.90633871,7.30026515 9.95630089,7.23393502 9.96869737,7.1575 C10.0237803,6.78774539 10.3097121,6.48634397 10.6920615,6.395 C11.4767424,6.20428185 12.2992385,6.20170422 13.0852353,6.3875 L13.0852353,6.3875 Z M11.647747,7.50875 L11.4048656,7.53375 L11.2200646,7.5625 L11.1844243,7.6625 C11.0920238,7.89 10.9389029,8.0925 10.7409018,8.2525 L10.5851409,8.365 L10.4795403,8.4275 C10.1833825,8.58459645 9.84279537,8.65015008 9.50537471,8.615 L9.30737357,8.5825 L9.29813352,8.58 L9.20573298,8.68125 L9.09881237,8.80875 L8.9998118,8.94125 L8.90741127,9.07875 L8.78465057,9.29125 L8.67904996,9.51125 L8.64076974,9.61125 L8.69093003,9.66125 C8.86913105,9.85375 8.99189176,10.085 9.04601207,10.33625 L9.07241222,10.52625 L9.07769225,10.635 C9.07769225,10.92875 8.9826517,11.21 8.81501074,11.4475 L8.70545011,11.585 L8.63548971,11.6575 L8.68829001,11.79375 C8.77805053,11.99875 8.89157118,12.19375 9.02621195,12.37625 L9.16745276,12.555 L9.28361343,12.68125 C9.58057959,12.6123668 9.89198323,12.6236253 10.1825386,12.71375 L10.3541396,12.7775 L10.4623802,12.83 C10.7435418,12.97875 10.9639831,13.19875 11.1039039,13.46 L11.1778243,13.6225 L11.2015844,13.6925 L11.3811055,13.72 C11.6226669,13.75125 11.8681883,13.7575 12.1123897,13.74125 L12.3552711,13.71625 L12.5400721,13.68625 L12.5757123,13.58875 C12.6681129,13.36 12.8212338,13.1575 13.0192349,12.9975 L13.1749958,12.885 L13.2805964,12.8225 C13.5815581,12.66375 13.9221201,12.60125 14.254762,12.635 L14.4527631,12.6675 L14.4620032,12.67 L14.5544037,12.56875 L14.6613243,12.44125 L14.7603249,12.30875 L14.8527254,12.17125 L14.9754861,11.95875 L15.0810867,11.73875 L15.119367,11.63875 L15.0692067,11.58875 C14.8908776,11.3968165 14.7684897,11.1641608 14.7141246,10.91375 L14.6877245,10.72375 L14.6824444,10.615 C14.6824444,10.32125 14.777485,10.04 14.945126,9.8025 L15.0546866,9.665 L15.125967,9.59125 L15.0705267,9.45625 C14.9809518,9.25110464 14.8680879,9.05579023 14.7339247,8.87375 L14.5926839,8.695 L14.4791633,8.56875 L14.438243,8.57875 C14.1648634,8.63525395 13.8807175,8.62406039 13.6132383,8.54625 L13.4152372,8.47625 L13.2964365,8.42 C13.0214085,8.27522678 12.798438,8.05580999 12.6562328,7.79 L12.5823124,7.6275 L12.5585522,7.5575 L12.3790312,7.53 C12.1366912,7.49910889 11.8916312,7.49198782 11.647747,7.50875 L11.647747,7.50875 Z M11.8800683,8.75 C12.9735984,8.75 13.8600797,9.58946609 13.8600797,10.625 C13.8600797,11.6605339 12.9735984,12.5 11.8800683,12.5 C10.7865383,12.5 9.90005697,11.6605339 9.90005697,10.625 C9.90005697,9.58946609 10.7865383,8.75 11.8800683,8.75 Z M11.8800683,10 C11.5155583,10 11.2200646,10.279822 11.2200646,10.625 C11.2200646,10.970178 11.5155583,11.25 11.8800683,11.25 C12.2445784,11.25 12.5400721,10.970178 12.5400721,10.625 C12.5400721,10.279822 12.2445784,10 11.8800683,10 Z M7.26004181,1.25 C5.53611191,1.25 3.92702266,1.41125 2.75353592,1.68875 C2.37786403,1.77109613 2.01207669,1.8896302 1.66188965,2.0425 L1.5140488,2.1175 L1.39392811,2.1875 L1.5140488,2.2575 C1.78333035,2.4075 2.20837279,2.5575 2.75353592,2.68625 C3.92702266,2.96375 5.53611191,3.125 7.26004181,3.125 C8.98397171,3.125 10.593061,2.96375 11.7665477,2.68625 C12.2206303,2.57875 12.5915524,2.4575 12.858194,2.3325 L13.0060348,2.2575 L13.1261555,2.1875 L13.0060348,2.1175 C12.7367533,1.9675 12.3117108,1.8175 11.7665477,1.68875 C10.593061,1.4125 8.98397171,1.25 7.26004181,1.25 Z" id="形状"></path>
        </g>
    </g>
</svg>