<?xml version="1.0" encoding="UTF-8"?>
<svg width="24px" height="24px" viewBox="0 0 24 24" version="1.1" xmlns="http://www.w3.org/2000/svg" xmlns:xlink="http://www.w3.org/1999/xlink">
    <title>自助服务模块图标/存储设备</title>
    <g id="自助服务模块图标/存储设备" stroke="none" stroke-width="1" fill="none" fill-rule="evenodd">
        <rect id="矩形" fill="#1E87F0" x="0" y="0" width="24" height="24" rx="12"></rect>
        <g id="编组" transform="translate(4.5, 4.5)" fill="#FFFFFF" fill-rule="nonzero">
            <path d="M1.36363636,15 C0.610520796,15 0,14.3894792 0,13.6363636 L0,1.36363636 C0,0.610520796 0.610520796,0 1.36363636,0 L9.93545455,0 C10.2970838,0 10.6438735,0.143796307 10.8995455,0.399545455 L14.6004545,4.10045455 C14.8562037,4.35612645 15,4.70291616 15,5.06454545 L15,13.6363636 C15,14.3894792 14.3894792,15 13.6363636,15 L1.36363636,15 Z M9.87866667,1.5 L1.5,1.5 L1.5,13.5 L3.5,13.5 L3.5,8.16666667 L11.5,8.16666667 L11.5,13.5 L13.5,13.5 L13.5,5.12133333 L9.87866667,1.5 Z M10.5,9 L4.5,9 L4.5,13.5 L10.5,13.5 L10.5,9 Z M10.5,10.5 L10.5,12 L6,12 L6,10.5 L10.5,10.5 Z M7.5,3 L7.5,4.5 L3,4.5 L3,3 L7.5,3 Z" id="形状"></path>
        </g>
    </g>
</svg>