<?xml version="1.0" encoding="UTF-8"?>
<svg width="14px" height="14px" viewBox="0 0 14 14" version="1.1" xmlns="http://www.w3.org/2000/svg" xmlns:xlink="http://www.w3.org/1999/xlink">
    <title>工作台 7</title>
    <g id="设计稿" stroke="none" stroke-width="1" fill="none" fill-rule="evenodd">
        <g id="导航/菜单项/默认备份-8" transform="translate(-8, -7)" fill="#FFFFFF" fill-rule="nonzero">
            <g id="工作台" transform="translate(8, 7)">
                <path d="M8.62234533,0.317080473 C8.79476927,0.0175733975 9.16395853,-0.0875122085 9.45937211,0.0788301342 L11.5567867,1.34055025 C11.7000088,1.42679704 11.8043297,1.56863115 11.8467633,1.73480101 C11.889197,1.90097087 11.8662614,2.07784058 11.7830102,2.22643885 L11.7409972,2.30361853 C11.4325515,2.87802749 11.4448912,3.5801667 11.7733149,4.14250848 L11.7733149,4.15257541 C12.0778461,4.72811923 12.6566332,5.0894714 13.289012,5.09886549 L13.3762696,5.09886549 C13.7207464,5.0988655 14,5.38882302 14,5.74650375 L14,8.25316577 C13.9992091,8.42878291 13.9301165,8.59661859 13.8084084,8.71856879 C13.6867003,8.84051899 13.5227023,8.90623747 13.3536473,8.90080403 L13.2793167,8.90080403 C12.6478075,8.91021528 12.0694914,9.26999304 11.7636196,9.84373848 L11.7636196,9.86387231 C11.4391333,10.4267855 11.4292722,11.1268812 11.7377655,11.6994066 L11.7668513,11.7765863 C11.8501026,11.9251846 11.8730382,12.1020543 11.8306045,12.2682242 C11.7881708,12.434394 11.68385,12.5762281 11.5406279,12.6624749 L9.44644507,13.9174837 C9.14117738,14.0857178 8.76246328,13.9748446 8.58679594,13.6658109 L8.55124654,13.5986981 C8.22880566,13.0339098 7.63866316,12.6929162 7.00646353,12.7060982 C6.36497946,12.6825895 5.76197022,13.0232929 5.43259464,13.5953424 L5.39058173,13.6758778 C5.21753625,13.9852081 4.8365298,14.0916034 4.53739613,13.9141281 L2.4432133,12.6591193 C2.29999121,12.5728725 2.19567035,12.4310384 2.15323666,12.2648685 C2.11080298,12.0986987 2.13373857,11.9218289 2.21698984,11.7732307 L2.25900277,11.696051 C2.56744853,11.121642 2.55510877,10.4195028 2.22668514,9.85716104 C1.92215389,9.28161721 1.34336684,8.92026504 0.710988006,8.91087094 L0.623730386,8.91087094 C0.279253613,8.91087094 0,8.62091343 0,8.2632327 L0,5.75321502 C0.000790865825,5.57759789 0.0698834781,5.4097622 0.191591611,5.287812 C0.313299745,5.1658618 0.477297706,5.10014333 0.646352731,5.10557676 L0.746537396,5.10557676 C1.37804663,5.09616552 1.95636268,4.73638775 2.26223453,4.16264232 L2.26223453,4.14250848 C2.58672081,3.57959533 2.59658189,2.87949963 2.28808864,2.30697417 L2.24607573,2.22643885 C2.16282446,2.07784058 2.13988886,1.90097087 2.18232255,1.73480101 C2.22475623,1.56863115 2.3290771,1.42679704 2.47229918,1.34055025 L4.566482,0.0855414245 C4.87174968,-0.0826926643 5.25046379,0.0281805604 5.42613112,0.337214307 L5.46168053,0.404327081 C5.7841214,0.969115314 6.3742639,1.31010891 7.00646353,1.29692695 C7.6499537,1.31836514 8.25343695,0.973533867 8.58033242,0.39761581 Z M7.00646353,4.16599795 C5.4982621,4.16599795 4.27562327,5.43550109 4.27562327,7.00151258 C4.27562327,8.56752407 5.4982621,9.83702721 7.00646353,9.83702721 C7.7307274,9.83702721 8.42532731,9.53828634 8.9374592,9.0065242 C9.44959109,8.47476206 9.73730379,7.75353782 9.73730379,7.00151258 C9.73730379,5.43550109 8.51466496,4.16599795 7.00646353,4.16599795 Z M7.00646353,5.17604517 C7.97794815,5.17604517 8.76599217,5.99279221 8.76777769,7.00151258 C8.76908237,7.74150631 8.34078276,8.40939073 7.68273047,8.69351539 C7.02467817,8.97764005 6.26657738,8.82200308 5.76217559,8.29922833 C5.25777381,7.77645358 5.10649023,6.98958159 5.37891729,6.3057852 C5.65134435,5.6219888 6.29378582,5.17604517 7.00646353,5.17604517 Z" id="形状结合"></path>
            </g>
        </g>
    </g>
</svg>