<svg width="14px" height="14px" viewBox="0 0 14 14" fill="none" xmlns="http://www.w3.org/2000/svg">
<g clip-path="url(#clip0_2_62)">
<path d="M8.62234 0.31708C8.79477 0.0175734 9.16396 -0.0875122 9.45937 0.0788301L11.5568 1.34055C11.7 1.4268 11.8043 1.56863 11.8468 1.7348C11.8892 1.90097 11.8663 2.07784 11.783 2.22644L11.741 2.30362C11.4326 2.87803 11.4449 3.58017 11.7733 4.14251V4.15258C12.0778 4.72812 12.6566 5.08947 13.289 5.09887H13.3763C13.7207 5.09887 14 5.38882 14 5.7465V8.25317C13.9992 8.42878 13.9301 8.59662 13.8084 8.71857C13.6867 8.84052 13.5227 8.90624 13.3536 8.9008H13.2793C12.6478 8.91021 12.0695 9.26999 11.7636 9.84374V9.86387C11.4391 10.4268 11.4293 11.1269 11.7378 11.6994L11.7669 11.7766C11.8501 11.9252 11.873 12.1021 11.8306 12.2682C11.7882 12.4344 11.6838 12.5762 11.5406 12.6625L9.44645 13.9175C9.14118 14.0857 8.76246 13.9748 8.5868 13.6658L8.55125 13.5987C8.22881 13.0339 7.63866 12.6929 7.00646 12.7061C6.36498 12.6826 5.76197 13.0233 5.43259 13.5953L5.39058 13.6759C5.21754 13.9852 4.83653 14.0916 4.5374 13.9141L2.44321 12.6591C2.29999 12.5729 2.19567 12.431 2.15324 12.2649C2.1108 12.0987 2.13374 11.9218 2.21699 11.7732L2.259 11.6961C2.56745 11.1216 2.55511 10.4195 2.22669 9.85716C1.92215 9.28162 1.34337 8.92026 0.710988 8.91087H0.62373C0.279254 8.91087 0 8.62091 0 8.26323V5.75321C0.000790866 5.5776 0.0698835 5.40976 0.191592 5.28781C0.3133 5.16586 0.477298 5.10014 0.646353 5.10558H0.746537C1.37805 5.09617 1.95636 4.73639 2.26223 4.16264V4.14251C2.58672 3.5796 2.59658 2.8795 2.28809 2.30697L2.24608 2.22644C2.16282 2.07784 2.13989 1.90097 2.18232 1.7348C2.22476 1.56863 2.32908 1.4268 2.4723 1.34055L4.56648 0.0855414C4.87175 -0.0826927 5.25046 0.0281806 5.42613 0.337214L5.46168 0.404327C5.78412 0.969115 6.37426 1.31011 7.00646 1.29693C7.64995 1.31837 8.25344 0.973534 8.58033 0.397616L8.62234 0.31708ZM7.00646 4.166C5.49826 4.166 4.27562 5.4355 4.27562 7.00151C4.27562 8.56752 5.49826 9.83703 7.00646 9.83703C7.73073 9.83703 8.42533 9.53829 8.93746 9.00652C9.44959 8.47476 9.7373 7.75354 9.7373 7.00151C9.7373 5.4355 8.51467 4.166 7.00646 4.166ZM7.00646 5.17604C7.97795 5.17604 8.76599 5.99279 8.76778 7.00151C8.76908 7.74151 8.34078 8.40939 7.68273 8.69352C7.02468 8.97764 6.26658 8.822 5.76218 8.29923C5.25777 7.77645 5.10649 6.98958 5.37892 6.30579C5.65134 5.62199 6.29379 5.17604 7.00646 5.17604Z" fill="white"/>
</g>
<defs>
<clipPath id="clip0_2_62">
<rect width="14" height="14" fill="white"/>
</clipPath>
</defs>
</svg>
