<?xml version="1.0" encoding="UTF-8"?>
<svg width="24px" height="24px" viewBox="0 0 24 24" version="1.1" xmlns="http://www.w3.org/2000/svg" xmlns:xlink="http://www.w3.org/1999/xlink">
    <title>自助服务模块图标/工器具</title>
    <g id="自助服务模块图标/工器具" stroke="none" stroke-width="1" fill="none" fill-rule="evenodd">
        <rect id="矩形" x="0" y="0" width="24" height="24"></rect>
        <rect id="矩形" fill="#1E87F0" x="0" y="0" width="24" height="24" rx="12"></rect>
        <g id="编组" transform="translate(12, 12) scale(1, -1) translate(-12, -12)translate(4, 4)" fill="#FFFFFF" fill-rule="nonzero">
            <path d="M9.77199401,1.88759089 C9.56982823,2.3189735 9.46291364,2.79720309 9.46291364,3.28909638 C9.46291364,4.16747726 9.80115254,4.98925137 10.4193133,5.6080219 C11.0335862,6.22484048 11.8539128,6.568385 12.7286686,6.568385 C13.2185318,6.568385 13.6947877,6.46102733 14.12439,6.2560718 C13.5431634,6.84556296 12.7617149,7.165684 11.9413883,7.165684 C11.7256153,7.165684 11.5117861,7.14226051 11.3018447,7.09931744 C10.9655497,7.02709501 10.6078718,7.13250072 10.3629401,7.37844736 L4.41265694,13.3514373 C4.38155451,12.4184017 3.63120844,11.666898 2.70202341,11.6337147 L8.64841881,5.66072476 C8.89335043,5.41477811 9.00026503,5.0614738 8.92639676,4.71792928 C8.71062367,3.68729571 9.02359185,2.62543083 9.76810621,1.88759089 L9.77199401,1.88759089 L9.77199401,1.88759089 Z M10.8100375,10.8939228 L14.0796803,14.1771154 C14.2604631,14.3586474 14.2604631,14.6572969 14.0796803,14.836877 C13.9008413,15.0164571 13.6014804,15.0164571 13.4226415,14.836877 L10.1529988,11.5536845 L10.8100375,10.8939228 L10.8100375,10.8939228 Z M11.5312251,2.38392527e-05 C11.4554129,2.38392527e-05 11.3776568,0.00980776259 11.2979569,0.0176155926 C8.98082601,0.382631647 7.44125584,2.61567104 7.92528737,4.9326446 L1.06137035,11.8269585 C0.186614566,12.7033875 0.186614566,14.1283164 1.06137035,15.0008414 C1.93029442,15.8733664 3.35711829,15.8733664 4.22215457,15.0008414 L11.0880155,8.10652752 C13.3954268,8.59061298 15.6231382,7.04856655 15.9808162,4.71988124 C16.0682917,4.15966943 15.844743,3.84150036 15.5512139,3.84150036 C15.4151407,3.84150036 15.2674042,3.90786691 15.1216116,4.05035981 L14.3051729,4.87213392 C13.4362488,5.74465893 12.0094249,5.74465893 11.1405008,4.87213392 C10.2657451,3.99375304 10.2657451,2.57077602 11.1405008,1.69434709 L11.9569396,0.87452494 C12.3671028,0.46656582 12.1629931,-0.00385593999 11.5312251,2.38392527e-05 L11.5312251,2.38392527e-05 Z M2.11496509,13.9428805 C1.64259696,13.4685548 1.98861147,12.6663003 2.64176246,12.6663003 C3.29491344,12.6663003 3.64675965,13.4685548 3.17244763,13.9428805 C2.87891847,14.2356741 2.40655035,14.2356741 2.11496509,13.9428805 L2.11496509,13.9428805 Z M1.05553864,0.698848764 L0,1.75680973 L1.31602147,3.61116937 L2.42015766,4.19480466 L5.00554696,6.79090815 L6.0591417,5.73294718 L3.481528,3.13293978 L2.90030139,2.02422791 L1.05553864,0.698848764 Z M10.5476108,9.69932484 L8.9672187,11.2862663 C8.82142607,11.4326631 8.82142607,11.66885 8.9672187,11.8152468 L12.69951,15.5630052 C13.2807366,16.1446885 14.2274168,16.1466405 14.8086434,15.5630052 C15.38987,14.9793699 15.38987,14.0268146 14.8086434,13.4451313 L11.0763521,9.69737289 C10.9286155,9.55097607 10.6953473,9.55097607 10.5476108,9.69932484 Z" id="形状"></path>
        </g>
    </g>
</svg>