<?xml version="1.0" encoding="UTF-8"?>
<svg width="16px" height="16px" viewBox="0 0 16 16" version="1.1" xmlns="http://www.w3.org/2000/svg" xmlns:xlink="http://www.w3.org/1999/xlink">
    <title>通用图标/菜单图标/用户管理</title>
    <g id="通用图标/菜单图标/用户管理" stroke="none" stroke-width="1" fill="none" fill-rule="evenodd">
        <rect id="矩形" x="0" y="0" width="16" height="16"></rect>
        <g id="编组-2" transform="translate(0, 0.4498)" fill="#BCBECA">
            <path d="M12.8,8.56296296 C14.4,8.56296296 15.7052632,9.86419753 15.7473684,11.5012346 L15.7473684,13.1802469 C15.7473684,13.5265432 15.4997076,13.8375686 15.1341131,13.8870013 L15.0315789,13.8938272 L14.3358276,13.894636 C14.3969476,13.7827082 14.4315789,13.6546336 14.4315789,13.5150508 L14.4315789,11.5422113 C14.4315789,10.275687 13.731169,9.1601354 12.6984406,8.56251162 L12.8,8.56296296 Z M12.2312518,10.250236 L12.2312518,11.2584545 L11.231083,11.2583607 L9.22908304,11.2493607 L9.23,10.250236 L12.2312518,10.250236 Z M13.0105263,4.07160494 C13.0105263,5.71754986 11.6720934,7.05185185 10.0210526,7.05185185 C9.62782007,7.05185185 9.25232054,6.97616202 8.90841358,6.83859912 C10.2644626,6.34440575 11.2315789,5.04775832 11.2315789,3.52592593 C11.2315789,2.58672087 10.8632245,1.73328406 10.262681,1.10136069 C11.80091,1.22378397 13.0105263,2.50686993 13.0105263,4.07160494 Z" id="形状结合"></path>
            <path d="M9.97894737,8.60493827 C11.8736842,8.60493827 13.4315789,10.1580247 13.4315789,12.0469136 L13.4315789,14.0197531 C13.4315789,14.4814815 13.0526316,14.817284 12.5894737,14.8592593 L0.842105263,14.8592593 C0.378947368,14.8592593 0,14.4814815 0,14.0197531 L0,12.0469136 C0,10.1580247 1.55789474,8.60493827 3.45263158,8.60493827 Z M11.2312518,11.250236 L8.23,11.250236 L8.23,12.2584545 L11.2312518,12.2584545 L11.2312518,11.250236 Z M6.69473684,7.05185185 C8.6480808,7.05185185 10.2315789,5.47324104 10.2315789,3.52592593 C10.2315789,1.57861081 8.6480808,0 6.69473684,0 C4.74139288,0 3.15789474,1.57861081 3.15789474,3.52592593 C3.15789474,5.47324104 4.74139288,7.05185185 6.69473684,7.05185185 Z" id="形状结合" fill-rule="nonzero"></path>
        </g>
    </g>
</svg>