<svg width="14px" height="14px" viewBox="0 0 14 14" fill="none" xmlns="http://www.w3.org/2000/svg">
<g clip-path="url(#clip0_2_93)">
<path d="M13.8843 5.22146L7.33072 0.110468C7.14154 -0.0368227 6.8848 -0.0368227 6.70914 0.110468L0.115013 5.22146C-0.101188 5.38348 0.00691253 5.75171 0.277164 5.75171H1.60139V13.7054C1.60139 13.8674 1.72301 14 1.87165 14H5.11466C5.2633 14 5.38491 13.8674 5.38491 13.7054V9.28669H8.62792V13.7054C8.62792 13.8674 8.74954 14 8.89818 14H12.1412C12.2898 14 12.4114 13.8674 12.4114 13.7054V5.75171H13.7357C13.9924 5.75171 14.1005 5.38348 13.8843 5.22146Z" fill="white"/>
</g>
<defs>
<clipPath id="clip0_2_93">
<rect width="14" height="14" fill="white"/>
</clipPath>
</defs>
</svg>
