<?xml version="1.0" encoding="UTF-8"?>
<svg width="13.6px" height="14px" viewBox="0 0 13.6 14" version="1.1" xmlns="http://www.w3.org/2000/svg" xmlns:xlink="http://www.w3.org/1999/xlink">
    <title>工作台 5</title>
    <g id="设计稿" stroke="none" stroke-width="1" fill="none" fill-rule="evenodd">
        <g id="导航/菜单项/默认备份-6" transform="translate(-8.2, -7)" fill="#FFFFFF" fill-rule="nonzero">
            <g id="工作台" transform="translate(8.2, 7)">
                <path d="M5.5,14 L1.77635684e-15,14 L1.77635684e-15,2.5 C1.77635684e-15,1.1 1.1,0 2.5,0 L12,0 L12,5.5 C12,5.8 11.8,6 11.5,6 C11.2,6 7.91190839,4.8304175 5.84875733,7.7 C3.78560628,10.5695825 6,13.2 6,13.5 C6,13.8 5.8,14 5.5,14 Z M10,3.5 C10,3.2 9.8,3 9.5,3 L2.5,3 C2.2,3 2,3.2 2,3.5 C2,3.8 2.2,4 2.5,4 L9.5,4 C9.8,4 10,3.8 10,3.5 Z M6,6.5 C6,6.2 5.8,6 5.5,6 L2.5,6 C2.2,6 2,6.2 2,6.5 C2,6.8 2.2,7 2.5,7 L5.5,7 C5.8,7 6,6.8 6,6.5 Z M4,9.5 C4,9.2 3.8,9 3.5,9 L2.5,9 C2.2,9 2,9.2 2,9.5 C2,9.8 2.2,10 2.5,10 L3.5,10 C3.8,10 4,9.8 4,9.5 Z M13.6,10.5 C13.6,10.9 13.5,11.2 13.4,11.6 C13,11.5 12.6,11.6 12.4,11.9 C12.2,12.3 12.3,12.7 12.6,12.9 C12.1,13.4 11.5,13.8 10.7,14 C10.7,13.6 10.3,13.3 9.9,13.3 C9.5,13.3 9.2,13.6 9.1,14 C8.4,13.8 7.7,13.5 7.2,12.9 C7.5,12.7 7.6,12.2 7.4,11.9 C7.2,11.5 6.8,11.4 6.4,11.6 C6.3,11.3 6.2,10.9 6.2,10.5 C6.2,10.1 6.3,9.8 6.4,9.4 C6.8,9.5 7.2,9.4 7.4,9.1 C7.6,8.7 7.5,8.3 7.2,8.1 C7.9,7.5 8.5,7.2 9.3,7 C9.3,7.4 9.7,7.7 10.1,7.7 C10.5,7.7 10.8,7.4 10.9,7 C11.6,7.2 12.3,7.5 12.8,8.1 C12.5,8.3 12.4,8.8 12.6,9.1 C12.8,9.5 13.2,9.6 13.6,9.4 C13.5,9.8 13.6,10.1 13.6,10.5 Z M11.5,10.5 C11.5,9.7 10.9,9.1 10.1,9.1 C9.3,9.1 8.7,9.7 8.7,10.5 C8.7,11.3 9.3,11.9 10.1,11.9 C10.9,11.9 11.5,11.3 11.5,10.5 Z" id="形状"></path>
            </g>
        </g>
    </g>
</svg>