<?xml version="1.0" encoding="UTF-8"?>
<svg width="14px" height="14px" viewBox="0 0 14 14" version="1.1" xmlns="http://www.w3.org/2000/svg" xmlns:xlink="http://www.w3.org/1999/xlink">
    <title>工作台</title>
    <g id="设计稿" stroke="none" stroke-width="1" fill="none" fill-rule="evenodd">
        <g id="导航/菜单项/默认" transform="translate(-8, -7)" fill="#FFFFFF" fill-rule="nonzero">
            <g id="工作台" transform="translate(8, 7)">
                <path d="M13.8843095,5.22146239 L7.3307189,0.110468175 C7.14154309,-0.0368227249 6.88480449,-0.0368227249 6.70914123,0.110468175 L0.115012979,5.22146239 C-0.101187947,5.38348238 0.00691251599,5.75170963 0.277163674,5.75170963 L1.60139435,5.75170963 L1.60139435,13.7054182 C1.60139435,13.8674382 1.72300737,14 1.87164551,14 L5.1146594,14 C5.26329754,14 5.38491056,13.8674382 5.38491056,13.7054182 L5.38491056,9.28669122 L8.62792445,9.28669122 L8.62792445,13.7054182 C8.62792445,13.8674382 8.74953748,14 8.89817561,14 L12.1411895,14 C12.2898276,14 12.4114407,13.8674382 12.4114407,13.7054182 L12.4114407,5.75170963 L13.7356713,5.75170963 C13.9924099,5.75170963 14.1005104,5.38348238 13.8843095,5.22146239 Z" id="路径"></path>
            </g>
        </g>
    </g>
</svg>