<?xml version="1.0" encoding="UTF-8"?>
<svg width="44px" height="42px" viewBox="0 0 44 42" version="1.1" xmlns="http://www.w3.org/2000/svg" xmlns:xlink="http://www.w3.org/1999/xlink">
    <title>图标-异常应用</title>
    <defs>
        <filter x="-60.0%" y="-68.5%" width="220.0%" height="237.0%" filterUnits="objectBoundingBox" id="filter-1">
            <feGaussianBlur stdDeviation="4" in="SourceGraphic"></feGaussianBlur>
        </filter>
    </defs>
    <g id="0519-监控大屏" stroke="none" stroke-width="1" fill="none" fill-rule="evenodd">
        <g id="监控-运维大屏" transform="translate(-1596.000000, -455.000000)">
            <g id="应用健康度" transform="translate(1423.000000, 388.000000)">
                <g id="统计数据2" transform="translate(20.081416, 69.000000)">
                    <g id="1备份-10" transform="translate(155.000000, 0.000000)">
                        <g id="图标-异常应用" transform="translate(0.000000, 2.909000)">
                            <path d="M15.918,-0.001 L15.918,4.429 L3.99958429,10.114 L3.99958429,24.067 L15.918,29.75 L15.918,34.182 L0,26.591 L0,7.591 L15.918,-0.001 Z M23.918,-0.001 L39.8371686,7.591 L39.8371686,26.591 L23.918,34.182 L23.918,29.75 L35.8365843,24.067 L35.8365843,10.114 L23.918,4.429 L23.918,-0.001 Z" id="形状结合" fill="#178AFE" fill-rule="nonzero" opacity="0.599999964"></path>
                            <path d="M19.9170059,7.291 C20.1869195,7.291 20.4362205,7.43535865 20.5705801,7.66945445 L20.5705801,7.66945445 L29.8134317,23.6801771 C29.9487277,23.9130391 29.9494693,24.2004031 29.8153772,24.4339604 C29.681285,24.6675177 29.4327445,24.8117614 29.1634317,24.8123255 L29.1634317,24.8123255 L10.6705801,24.8123255 C10.4012673,24.8117614 10.1527268,24.6675177 10.0186346,24.4339604 C9.88454244,24.2004031 9.88528412,23.9130391 10.0205801,23.6801771 L10.0205801,23.6801771 L19.2634317,7.66945445 C19.3977913,7.43535865 19.6470923,7.291 19.9170059,7.291 Z M20.1170059,20.2516029 L19.7170059,20.2516029 C19.2199496,20.2516029 18.8170059,20.6545466 18.8170059,21.1516029 C18.8170059,21.6486592 19.2199496,22.0516029 19.7170059,22.0516029 L19.7170059,22.0516029 L20.1170059,22.0516029 C20.6140622,22.0516029 21.0170059,21.6486592 21.0170059,21.1516029 C21.0170059,20.6545466 20.6140622,20.2516029 20.1170059,20.2516029 L20.1170059,20.2516029 Z M19.9185843,13.091 C19.8938334,13.091 19.8690925,13.091996 19.8444217,13.0939856 C19.3365319,13.1349444 18.9580096,13.5798742 18.9989685,14.087764 L18.9989685,14.087764 L19.3783922,18.792618 C19.401094,19.0741199 19.6361685,19.291 19.9185843,19.291 C20.2010001,19.291 20.4360746,19.0741199 20.4587764,18.792618 L20.4587764,18.792618 L20.8382001,14.087764 C20.8401897,14.0630932 20.8411857,14.0383523 20.8411857,14.0136014 C20.8411857,13.5040627 20.428123,13.091 19.9185843,13.091 Z" id="形状结合" fill="#54EFF1" fill-rule="nonzero" opacity="0.5" filter="url(#filter-1)"></path>
                            <g id="危险品" transform="translate(8.918584, 6.091000)">
                                <rect id="矩形" fill="#FFFFFF" opacity="0" x="0" y="0" width="22" height="22"></rect>
                                <g id="危险源" transform="translate(1.000000, 0.000000)">
                                    <rect id="矩形" fill="#FFFFFF" opacity="0" x="0" y="0" width="20" height="20"></rect>
                                    <path d="M9.9984216,1.2 C10.2683352,1.2 10.5176362,1.34435865 10.6519958,1.57845445 L10.6519958,1.57845445 L19.8948474,17.5891771 C20.0301434,17.8220391 20.0308851,18.1094031 19.8967929,18.3429604 C19.7627007,18.5765177 19.5141602,18.7207614 19.2448474,18.7213255 L19.2448474,18.7213255 L0.751995821,18.7213255 C0.48268297,18.7207614 0.234142513,18.5765177 0.100050333,18.3429604 C-0.0340418465,18.1094031 -0.0333001704,17.8220391 0.101995821,17.5891771 L0.101995821,17.5891771 L9.34484738,1.57845445 C9.47920697,1.34435865 9.72850802,1.2 9.9984216,1.2 Z M10.1984216,14.1606029 L9.7984216,14.1606029 C9.30136533,14.1606029 8.8984216,14.5635466 8.8984216,15.0606029 C8.8984216,15.5576592 9.30136533,15.9606029 9.7984216,15.9606029 L9.7984216,15.9606029 L10.1984216,15.9606029 C10.6954779,15.9606029 11.0984216,15.5576592 11.0984216,15.0606029 C11.0984216,14.5635466 10.6954779,14.1606029 10.1984216,14.1606029 L10.1984216,14.1606029 Z M10,7 C9.97524911,7 9.95050823,7.000996 9.92583743,7.00298558 C9.41794765,7.04394443 9.03942534,7.48887417 9.08038419,7.99676396 L9.08038419,7.99676396 L9.45980791,12.701618 C9.48250967,12.9831199 9.71758421,13.2 10,13.2 C10.2824158,13.2 10.5174903,12.9831199 10.5401921,12.701618 L10.5401921,12.701618 L10.9196158,7.99676396 C10.9216054,7.97209316 10.9226014,7.94735228 10.9226014,7.92260139 C10.9226014,7.41306271 10.5095387,7 10,7 Z" id="形状结合" fill="#65B2FF" fill-rule="nonzero"></path>
                                </g>
                            </g>
                        </g>
                    </g>
                </g>
            </g>
        </g>
    </g>
</svg>