<?xml version="1.0" encoding="UTF-8"?>
<svg width="36px" height="36px" viewBox="0 0 36 36" version="1.1" xmlns="http://www.w3.org/2000/svg" xmlns:xlink="http://www.w3.org/1999/xlink">
    <title>图标-机柜使用率</title>
    <defs>
        <linearGradient x1="50%" y1="98.1889205%" x2="50%" y2="0%" id="linearGradient-1">
            <stop stop-color="#4475FF" offset="0%"></stop>
            <stop stop-color="#78CDFF" offset="100%"></stop>
        </linearGradient>
        <path d="M22.1538462,2.5 L22.1538462,33.5 L0,33.5 L0,30.6818182 L2.76923077,30.6818182 L2.76923077,2.5 L22.1538462,2.5 Z M16.6153846,20.8181818 L8.30769231,20.8181818 L8.30769231,23.6363636 L16.6153846,23.6363636 L16.6153846,20.8181818 Z M16.6153846,15.1818182 L8.30769231,15.1818182 L8.30769231,18 L16.6153846,18 L16.6153846,15.1818182 Z M16.6153846,9.54545455 L8.30769231,9.54545455 L8.30769231,12.3636364 L16.6153846,12.3636364 L16.6153846,9.54545455 Z M33.2307692,16.5909091 L33.2307692,30.6818182 L36,30.6818182 L36,33.5 L23.5384615,33.5 L23.5384615,16.5909091 L33.2307692,16.5909091 Z M30.4615385,25.0454545 L26.3076923,25.0454545 L26.3076923,26.4545455 L30.4615385,26.4545455 L30.4615385,25.0454545 Z M30.4615385,22.2272727 L26.3076923,22.2272727 L26.3076923,23.6363636 L30.4615385,23.6363636 L30.4615385,22.2272727 Z" id="path-2"></path>
        <filter x="-25.0%" y="-29.0%" width="150.0%" height="158.1%" filterUnits="objectBoundingBox" id="filter-3">
            <feOffset dx="0" dy="0" in="SourceAlpha" result="shadowOffsetOuter1"></feOffset>
            <feGaussianBlur stdDeviation="3" in="shadowOffsetOuter1" result="shadowBlurOuter1"></feGaussianBlur>
            <feColorMatrix values="0 0 0 0 0.0274509804   0 0 0 0 0.921568627   0 0 0 0 0.992156863  0 0 0 0.473967439 0" type="matrix" in="shadowBlurOuter1"></feColorMatrix>
        </filter>
    </defs>
    <g id="0426-定稿" stroke="none" stroke-width="1" fill="none" fill-rule="evenodd">
        <g id="基础方案" transform="translate(-73.000000, -819.000000)">
            <g id="列表组件" transform="translate(36.000000, 660.000000)">
                <g id="list-row" transform="translate(24.000000, 150.000000)">
                    <g id="编组-18" transform="translate(4.000000, 0.000000)">
                        <g id="图标-机柜使用率" transform="translate(9.000000, 9.000000)">
                            <rect id="矩形" fill-opacity="0" fill="#D8D8D8" x="0" y="0" width="36" height="36"></rect>
                            <g id="形状结合">
                                <use fill="black" fill-opacity="1" filter="url(#filter-3)" xlink:href="#path-2"></use>
                                <use fill="url(#linearGradient-1)" fill-rule="evenodd" xlink:href="#path-2"></use>
                            </g>
                        </g>
                    </g>
                </g>
            </g>
        </g>
    </g>
</svg>