<?xml version="1.0" encoding="UTF-8"?>
<svg width="22px" height="22px" viewBox="0 0 22 22" version="1.1" xmlns="http://www.w3.org/2000/svg" xmlns:xlink="http://www.w3.org/1999/xlink">
    <title>图标-云主机-特殊背景</title>
    <g id="0426-定稿" stroke="none" stroke-width="1" fill="none" fill-rule="evenodd">
        <g id="基础方案" transform="translate(-990.000000, -134.000000)">
            <g id="指标卡组件" transform="translate(36.000000, 91.000000)">
                <g id="指标卡-基础" transform="translate(936.000000, 29.000000)">
                    <g id="图标-云主机-特殊背景" transform="translate(18.000000, 14.000000)">
                        <rect id="矩形" fill-opacity="0" fill="#D8D8D8" x="0" y="0" width="22" height="22"></rect>
                        <path d="M19.7126277,5.66666667 L21,8.97641172 L21,19.3333333 L9.66666667,19.3333333 L9.66666667,8.80448737 L11.3316181,5.66666667 L19.7126277,5.66666667 Z M19.985,14.333 L10.682,14.333 L10.6823255,18.1318623 L19.9850683,18.1318623 L19.985,14.333 Z M15.6536259,3.70380398 C15.893197,3.9313037 16.1195211,4.1776392 16.3310586,4.44113471 L15.5941296,5.26551181 C14.5407081,3.94775512 13.0749698,3.20059369 11.5412778,3.19956687 C8.85303226,3.19982526 6.54718233,5.46628203 6.05629514,8.59084402 L5.98889882,9.02419141 L5.61851205,9.07692916 C3.56342808,9.36902364 2.01425025,11.4403449 2.01425025,13.8951025 C2.01425025,16.6612151 4.33176965,16.8013041 4.7969098,16.8013041 L9.02175697,16.8013041 L9.02175697,18 L4.79641751,18 C3.38613472,18 1,17.135356 1,13.8950748 C1,10.979534 2.75307809,8.49783937 5.13513387,7.95364018 C5.66636884,5.36686908 7.27787985,3.27969041 9.40857196,2.41881677 C11.5392641,1.55794313 13.8942702,2.04251106 15.6536259,3.70380398 Z M19.985,9.519 L10.682,9.519 L10.682,13.147 L19.985,13.147 L19.985,9.519 Z M19.0743369,6.86927624 L11.8928731,6.86927624 L11.115,8.333 L19.668,8.333 L19.0743369,6.86927624 Z" id="形状结合" fill="#4D7CFF" fill-rule="nonzero"></path>
                        <path d="M17.9905788,10.7242977 L19,10.7242977 L19,11.9006016 L17.9905788,11.9006016 L17.9905788,10.7242977 Z M17.9905788,15.5549419 L19,15.5549419 L19,16.7312458 L17.9905788,16.7312458 L17.9905788,15.5549142 L17.9905788,15.5549419 Z" id="形状结合" fill="#F48D1F" fill-rule="nonzero"></path>
                    </g>
                </g>
            </g>
        </g>
    </g>
</svg>