<?xml version="1.0" encoding="UTF-8"?>
<svg width="40px" height="45px" viewBox="0 0 40 45" version="1.1" xmlns="http://www.w3.org/2000/svg" xmlns:xlink="http://www.w3.org/1999/xlink">
    <title>图标-危险应用</title>
    <defs>
        <filter x="-79.9%" y="-59.8%" width="259.7%" height="219.5%" filterUnits="objectBoundingBox" id="filter-1">
            <feGaussianBlur stdDeviation="4" in="SourceGraphic"></feGaussianBlur>
        </filter>
    </defs>
    <g id="0519-监控大屏" stroke="none" stroke-width="1" fill="none" fill-rule="evenodd">
        <g id="监控-运维大屏" transform="translate(-1443.000000, -454.000000)">
            <g id="应用健康度" transform="translate(1423.000000, 388.000000)">
                <g id="统计数据2" transform="translate(20.081416, 69.000000)">
                    <g id="图标-危险应用" transform="translate(0.000000, 2.909000)">
                        <path d="M15.918,-0.001 L15.918,4.429 L3.99958429,10.114 L3.99958429,24.067 L15.918,29.75 L15.918,34.182 L0,26.591 L0,7.591 L15.918,-0.001 Z M23.918,-0.001 L39.8371686,7.591 L39.8371686,26.591 L23.918,34.182 L23.918,29.75 L35.8365843,24.067 L35.8365843,10.114 L23.918,4.429 L23.918,-0.001 Z" id="形状结合" fill="#178AFE" fill-rule="nonzero" opacity="0.599999964"></path>
                        <path d="M26.136248,20.4070632 C26.148348,21.0725632 27.718048,21.3871632 27.374848,22.3023632 C27.091048,23.0591632 26.648848,22.4827632 26.197848,22.2869632 C25.899748,22.1560632 25.602748,22.1670632 25.191348,22.2374632 C24.927348,22.2803632 24.664448,22.3452632 24.40485,22.4178632 C23.847148,22.5806632 23.271848,22.7599632 22.685548,22.9524632 C22.615148,22.9777632 22.615148,23.0789632 22.685548,23.1031632 C22.990248,23.2043632 23.291648,23.3011632 23.591948,23.3957632 C23.701948,23.4276632 23.813048,23.4496632 23.927448,23.4650632 C23.934048,23.4650632 25.285948,23.8973632 25.936048,23.6047632 C26.3655432,23.3978698 26.8812408,23.5199121 27.172448,23.8973632 C27.7237756,24.6331114 27.291919,24.8525085 26.775416,25.0357346 L26.4990031,25.1319962 C26.224558,25.2301564 25.9708308,25.3419287 25.871148,25.5385632 C25.784148,25.7056632 25.749348,25.9014814 25.7221646,26.0965632 L25.6958687,26.2903086 C25.6327299,26.7367177 25.530148,27.1256632 24.821748,27.0829632 C24.035248,27.0356632 24.662248,26.0346632 23.290548,25.4197632 C23.1501141,25.339073 23.0078083,25.261685 22.863748,25.1876632 C22.2051376,24.8879099 21.5402203,24.6022119 20.869448,24.3307632 C20.260069,24.0810613 19.5769271,24.0810613 18.967548,24.3307632 C18.281148,24.6079632 17.612348,24.8983632 16.973248,25.1876632 C16.842348,25.2503632 16.561848,25.4109632 16.546448,25.4197632 C15.175848,26.0346632 15.803948,27.0356632 15.016348,27.0829632 C14.307948,27.1270632 14.2049208,26.7372904 14.141458,26.290378 L14.1150323,26.0964442 C14.0877299,25.9012086 14.052848,25.7053632 13.965848,25.5385632 C13.640248,24.9049632 11.720748,25.1513632 12.662348,23.8973632 C12.9516754,23.5207838 13.4654106,23.3986627 13.893248,23.6047632 C14.544448,23.8973632 15.895248,23.4650632 15.902948,23.4650632 C16.017348,23.4496632 16.130648,23.4287632 16.238448,23.3957632 C16.536548,23.3033632 16.837948,23.2043632 17.143748,23.1031632 C17.216348,23.0800632 17.216348,22.9788632 17.143748,22.9524632 C16.5738477,22.7641312 16.0006579,22.5859033 15.424448,22.4178632 C15.1662324,22.3430712 14.9040194,22.282843 14.639048,22.2374632 C14.228748,22.1670632 13.930648,22.1560632 13.632548,22.2869632 C13.179348,22.4827632 12.738248,23.0580632 12.455548,22.3023632 C12.113448,21.3871632 13.682048,21.0736632 13.691948,20.4070632 C13.702948,19.7393632 13.682048,18.5810632 14.713848,18.9143632 C15.564148,19.1915632 14.999848,19.4984632 15.445348,20.0011632 C15.587248,20.1639632 15.766548,20.2937632 15.960148,20.3861632 C16.886348,20.8393632 17.908248,21.2925632 18.963148,21.7270632 C19.5729639,21.9745371 20.2552322,21.9745371 20.865048,21.7270632 C21.924348,21.2925632 22.944048,20.8371632 23.868048,20.3861632 C24.062748,20.2937632 24.240948,20.1628632 24.383948,20.0011632 C24.828348,19.4984632 24.266248,19.1915632 25.115448,18.9143632 C26.143948,18.5810632 26.125248,19.7393632 26.136248,20.4070632 Z M19.908048,7.00906317 C21.858348,7.00906317 23.511648,7.59536317 24.870148,8.76796317 C26.159348,9.86246317 26.935948,11.2528632 27.201048,12.9380632 L27.201048,12.9380632 C27.254948,13.2185632 27.279148,13.4792632 27.279148,13.7300632 C27.279148,14.8630632 26.906248,15.8453632 26.151648,16.6747632 C25.409148,17.5030632 24.380648,18.1025632 23.056248,18.4776632 C22.934148,18.5117632 22.849448,18.6217632 22.849448,18.7504632 C22.849448,19.1156632 22.727348,19.4247632 22.475448,19.6678632 C22.1864932,19.9481082 21.7988673,20.1033956 21.396348,20.1001632 C21.174148,20.1001632 20.988248,20.0594632 20.844148,19.9846632 C20.810048,19.9681632 20.774848,19.9593632 20.739648,19.9593632 C20.6989072,19.9588694 20.6588604,19.9699299 20.624148,19.9912632 C20.381048,20.1397632 20.114848,20.2101632 19.828848,20.2101632 C19.512048,20.2101632 19.217248,20.1265632 18.954348,19.9571632 C18.927948,19.9428632 18.897148,19.9318632 18.865248,19.9318632 C18.8345553,19.9324738 18.804572,19.9412031 18.778348,19.9571632 C18.627648,20.0517632 18.424148,20.1012632 18.172248,20.1012632 C18.121648,20.1012632 18.065548,20.0990632 18.011648,20.0946632 C17.644248,20.0693632 17.334048,19.9296632 17.083248,19.6799632 C16.834648,19.4280632 16.709248,19.1211632 16.709248,18.7515632 C16.7095388,18.577039 16.5970531,18.4223156 16.430948,18.3687632 C15.839148,18.1751632 15.311148,17.9342632 14.846948,17.6471632 C14.381648,17.3567632 13.984548,17.0223632 13.646848,16.6351632 C12.7521401,15.6271859 12.377293,14.2603355 12.632648,12.9369632 C12.882348,11.2528632 13.652348,9.85586317 14.944848,8.74596317 C16.304448,7.58986317 17.957748,7.00906317 19.908048,7.00906317 Z M20.004848,15.7056632 C19.818948,15.7056632 19.634148,15.8299632 19.442748,16.0763632 C19.252448,16.3260632 19.156748,16.5713632 19.156748,16.8210632 C19.151303,16.9648295 19.2008683,17.1052644 19.295348,17.2137632 C19.453748,17.3820632 19.697948,17.4678632 20.026848,17.4678632 C20.527348,17.4678632 20.777048,17.2797632 20.777048,16.8991632 C20.777048,16.6505632 20.692348,16.3931632 20.528448,16.1181632 C20.366748,15.8409632 20.188548,15.7056632 20.004848,15.7056632 Z M22.952848,11.3254632 C22.4153214,11.3187833 21.9005627,11.5421389 21.538248,11.9392632 C21.147748,12.3495632 20.954148,12.8445632 20.954148,13.4264632 C20.9429973,13.9808577 21.1531972,14.5168476 21.538248,14.9158632 C21.928748,15.3250632 22.399548,15.5296632 22.952848,15.5296632 C23.517148,15.5296632 23.995648,15.3250632 24.386148,14.9158632 C24.775548,14.5055632 24.970248,14.0083632 24.970248,13.4264632 C24.970248,12.8445632 24.774448,12.3506632 24.386148,11.9392632 C23.994548,11.5300632 23.519348,11.3254632 22.952848,11.3254632 Z M16.881948,11.3254632 C16.3420148,11.3194915 15.8248207,11.5425165 15.458548,11.9392632 C15.062548,12.3495632 14.864548,12.8445632 14.864548,13.4264632 C14.8544322,13.9825663 15.0685108,14.5193485 15.458548,14.9158632 C15.852348,15.3250632 16.329748,15.5296632 16.881948,15.5296632 C17.436348,15.5296632 17.910448,15.3250632 18.305348,14.9158632 C18.701348,14.5044632 18.899348,14.0061632 18.899348,13.4264632 C18.899348,12.8445632 18.699148,12.3506632 18.305348,11.9392632 C17.910448,11.5300632 17.435248,11.3254632 16.881948,11.3254632 Z" id="投影" fill="#54EFF1" fill-rule="nonzero" opacity="0.5" filter="url(#filter-1)"></path>
                        <g id="危险品" transform="translate(9.918584, 7.091000)">
                            <rect id="矩形" fill="#FFFFFF" opacity="0" x="0" y="0" width="20" height="20"></rect>
                            <path d="M15.6524216,13.0146029 C15.6634216,13.6196029 17.0904216,13.9056029 16.7784216,14.7376029 C16.5204216,15.4256029 16.1184216,14.9016029 15.7084216,14.7236029 C15.4374216,14.6046029 15.1674216,14.6146029 14.7934216,14.6786029 C14.5534216,14.7176029 14.3144216,14.7766029 14.0784216,14.8426029 C13.5714216,14.9906029 13.0484216,15.1536029 12.5154216,15.3286029 C12.4514216,15.3516029 12.4514216,15.4436029 12.5154216,15.4656029 C12.7924216,15.5576029 13.0664216,15.6456029 13.3394216,15.7316029 C13.4394216,15.7606029 13.5404216,15.7806029 13.6444216,15.7946029 C13.6504216,15.7946029 14.8794216,16.1876029 15.4704216,15.9216029 C15.8608717,15.733518 16.3296878,15.8444655 16.5944216,16.1876029 C17.1135287,16.8803529 16.6738489,17.0695646 16.1829174,17.2402267 L16.0089971,17.3004799 C15.7493578,17.3920735 15.5052787,17.49446 15.4114216,17.6796029 C15.342374,17.8122219 15.3094942,17.9647389 15.2858142,18.1193373 L15.2600883,18.304714 C15.2023105,18.7342696 15.1320883,19.1242696 14.4574216,19.0836029 C13.7424216,19.0406029 14.3124216,18.1306029 13.0654216,17.5716029 C12.9377544,17.4982481 12.8083855,17.4278955 12.6774216,17.3606029 C12.0786848,17.0880999 11.4742145,16.8283744 10.8644216,16.5816029 C10.3104407,16.3546012 9.68940252,16.3546012 9.1354216,16.5816029 C8.5114216,16.8336029 7.9034216,17.0976029 7.3224216,17.3606029 C7.2034216,17.4176029 6.9484216,17.5636029 6.9344216,17.5716029 C5.6884216,18.1306029 6.2594216,19.0406029 5.5434216,19.0836029 C4.5314216,19.1466029 4.8784216,18.2356029 4.5884216,17.6796029 C4.2924216,17.1036029 2.5474216,17.3276029 3.4034216,16.1876029 C3.66644644,15.845258 4.13347846,15.7342388 4.5224216,15.9216029 C5.1144216,16.1876029 6.3424216,15.7946029 6.3494216,15.7946029 C6.4534216,15.7806029 6.5564216,15.7616029 6.6544216,15.7316029 C6.9254216,15.6476029 7.1994216,15.5576029 7.4774216,15.4656029 C7.5434216,15.4446029 7.5434216,15.3526029 7.4774216,15.3286029 C6.9593304,15.157392 6.43824876,14.9953666 5.9144216,14.8426029 C5.67968014,14.7746102 5.44130465,14.7198572 5.2004216,14.6786029 C4.8274216,14.6146029 4.5564216,14.6046029 4.2854216,14.7236029 C3.8734216,14.9016029 3.4724216,15.4246029 3.2154216,14.7376029 C2.9044216,13.9056029 4.3304216,13.6206029 4.3394216,13.0146029 C4.3494216,12.4076029 4.3304216,11.3546029 5.2684216,11.6576029 C6.0414216,11.9096029 5.5284216,12.1886029 5.9334216,12.6456029 C6.0624216,12.7936029 6.2254216,12.9116029 6.4014216,12.9956029 C7.2434216,13.4076029 8.1724216,13.8196029 9.1314216,14.2146029 C9.68579961,14.4395792 10.3060436,14.4395792 10.8604216,14.2146029 C11.8234216,13.8196029 12.7504216,13.4056029 13.5904216,12.9956029 C13.7674216,12.9116029 13.9294216,12.7926029 14.0594216,12.6456029 C14.4634216,12.1886029 13.9524216,11.9096029 14.7244216,11.6576029 C15.6594216,11.3546029 15.6424216,12.4076029 15.6524216,13.0146029 Z M9.9904216,0.834602884 C11.7634216,0.834602884 13.2664216,1.36760288 14.5014216,2.43360288 C15.6734216,3.42860288 16.3794216,4.69260288 16.6204216,6.22460288 C16.6694216,6.47960288 16.6914216,6.71660288 16.6914216,6.94460288 C16.6914216,7.97460288 16.3524216,8.86760288 15.6664216,9.62160288 C14.9914216,10.3746029 14.0564216,10.9196029 12.8524216,11.2606029 C12.7414216,11.2916029 12.6644216,11.3916029 12.6644216,11.5086029 C12.6644216,11.8406029 12.5534216,12.1216029 12.3244216,12.3426029 C12.0617353,12.5973711 11.7093482,12.7385415 11.3434216,12.7356029 C11.1414216,12.7356029 10.9724216,12.6986029 10.8414216,12.6306029 C10.8104216,12.6156029 10.7784216,12.6076029 10.7464216,12.6076029 C10.7093845,12.607154 10.6729783,12.617209 10.6414216,12.6366029 C10.4204216,12.7716029 10.1784216,12.8356029 9.9184216,12.8356029 C9.6304216,12.8356029 9.3624216,12.7596029 9.1234216,12.6056029 C9.0994216,12.5926029 9.0714216,12.5826029 9.0424216,12.5826029 C9.01451913,12.583158 8.98726152,12.5910938 8.9634216,12.6056029 C8.8264216,12.6916029 8.6414216,12.7366029 8.4124216,12.7366029 C8.3664216,12.7366029 8.3154216,12.7346029 8.2664216,12.7306029 C7.9324216,12.7076029 7.6504216,12.5806029 7.4224216,12.3536029 C7.1964216,12.1246029 7.0824216,11.8456029 7.0824216,11.5096029 C7.08268594,11.3509446 6.98042622,11.2102869 6.8294216,11.1616029 C6.2914216,10.9856029 5.8114216,10.7666029 5.3894216,10.5056029 C4.9664216,10.2416029 4.6054216,9.93760288 4.2984216,9.58560288 C3.48505075,8.66925991 3.14428062,7.42666861 3.3764216,6.22360288 C3.6034216,4.69260288 4.3034216,3.42260288 5.4784216,2.41360288 C6.7144216,1.36260288 8.2174216,0.834602884 9.9904216,0.834602884 Z M10.0784216,8.74060288 C9.9094216,8.74060288 9.7414216,8.85360288 9.5674216,9.07760288 C9.3944216,9.30460288 9.3074216,9.52760288 9.3074216,9.75460288 C9.30247154,9.88529955 9.34753088,10.0129677 9.4334216,10.1116029 C9.5774216,10.2646029 9.7994216,10.3426029 10.0984216,10.3426029 C10.5534216,10.3426029 10.7804216,10.1716029 10.7804216,9.82560288 C10.7804216,9.59960288 10.7034216,9.36560288 10.5544216,9.11560288 C10.4074216,8.86360288 10.2454216,8.74060288 10.0784216,8.74060288 Z M7.2394216,4.75860288 C6.7485732,4.75317409 6.27839671,4.95592408 5.9454216,5.31660288 C5.5854216,5.68960288 5.4054216,6.13960288 5.4054216,6.66860288 C5.39622538,7.17415116 5.59084226,7.66213497 5.9454216,8.02260288 C6.3034216,8.39460288 6.7374216,8.58060288 7.2394216,8.58060288 C7.7434216,8.58060288 8.1744216,8.39460288 8.5334216,8.02260288 C8.8934216,7.64860288 9.0734216,7.19560288 9.0734216,6.66860288 C9.0734216,6.13960288 8.8914216,5.69060288 8.5334216,5.31660288 C8.1744216,4.94460288 7.7424216,4.75860288 7.2394216,4.75860288 Z M12.7584216,4.75860288 C12.269761,4.75253026 11.8017985,4.95558086 11.4724216,5.31660288 C11.1174216,5.68960288 10.9414216,6.13960288 10.9414216,6.66860288 C10.9312846,7.17259789 11.1223754,7.65986143 11.4724216,8.02260288 C11.8274216,8.39460288 12.2554216,8.58060288 12.7584216,8.58060288 C13.2714216,8.58060288 13.7064216,8.39460288 14.0614216,8.02260288 C14.4154216,7.64960288 14.5924216,7.19760288 14.5924216,6.66860288 C14.5924216,6.13960288 14.4144216,5.69060288 14.0614216,5.31660288 C13.7054216,4.94460288 13.2734216,4.75860288 12.7584216,4.75860288 Z" id="形状结合" fill="#65B2FF" fill-rule="nonzero"></path>
                        </g>
                    </g>
                </g>
            </g>
        </g>
    </g>
</svg>