<?xml version="1.0" encoding="UTF-8"?>
<svg width="22px" height="22px" viewBox="0 0 22 22" version="1.1" xmlns="http://www.w3.org/2000/svg" xmlns:xlink="http://www.w3.org/1999/xlink">
    <title>图标-数据库-特殊背景</title>
    <g id="0426-定稿" stroke="none" stroke-width="1" fill="none" fill-rule="evenodd">
        <g id="基础方案" transform="translate(-1300.000000, -93.000000)">
            <g id="指标卡组件" transform="translate(36.000000, 91.000000)">
                <g id="图标-数据库-特殊背景" transform="translate(1264.000000, 2.000000)">
                    <rect id="矩形" fill-opacity="0" fill="#D8D8D8" x="0" y="0" width="22" height="22"></rect>
                    <path d="M20.6052999,4.54253835 C20.6052999,2.22733612 15.9470014,1 11.3444909,1 C6.9930265,1 2.61366806,2.0878661 2.11157601,4.15202232 C2.02789401,4.26359833 2,4.40306835 2,4.54253835 L2,18.2384937 C2,18.4058577 2.055788,18.5732218 2.19525802,18.7126918 C2.27894002,18.7963738 4.42677824,21 11.4281729,21 C18.3458856,21 20.2147838,18.9079498 20.4100418,18.6569038 C20.5216179,18.5453278 20.5495119,18.3779637 20.5495118,18.2105997 L20.5495118,5.01673639 C20.5774059,4.84937238 20.6052999,4.70990236 20.6052999,4.54253835 Z M19.0990237,13.6638773 C19.0711297,13.6638773 19.0711297,13.6917713 19.0432357,13.6917713 C19.0432357,13.6917713 19.0153417,13.6917713 19.0153417,13.7196653 C18.9874477,13.7475593 18.9595537,13.7475593 18.9316597,13.7754533 L18.9037657,13.8033473 C18.8758717,13.8033473 18.8758717,13.8312413 18.8479777,13.8312413 C18.8479777,13.8312413 18.8200837,13.8591353 18.7921897,13.8591353 C18.7642957,13.8591353 18.7642957,13.8870293 18.7364017,13.8870293 C18.7085077,13.8870293 18.7085077,13.9149233 18.6806137,13.9149233 C18.6527197,13.9149233 18.6248257,13.9428173 18.5969317,13.9428173 C18.5690377,13.9428173 18.5690377,13.9707113 18.5411437,13.9707113 C18.5132496,13.9986053 18.4853557,13.9986053 18.4574616,14.0264993 C18.4295676,14.0264993 18.4295676,14.0543933 18.4016737,14.0543933 C18.3458857,14.0822873 18.3179916,14.1101813 18.2622036,14.1380753 C18.2343096,14.1380753 18.2343096,14.1659693 18.2064156,14.1659693 C18.1785216,14.1938633 18.1227336,14.1938633 18.0948396,14.2217573 C18.0669456,14.2217573 18.0390516,14.2496513 18.0111576,14.2496513 C17.9832636,14.2775453 17.9274756,14.2775453 17.8995816,14.3054393 C17.8716876,14.3054393 17.8437936,14.3333333 17.8158996,14.3333333 C17.7880056,14.3612273 17.7322176,14.3612273 17.7043236,14.3891213 C17.6764296,14.3891213 17.6485356,14.4170153 17.6206416,14.4170153 C17.5648536,14.4449094 17.5090655,14.4449094 17.4532775,14.4728033 C17.4253835,14.4728033 17.4253835,14.4728033 17.3974895,14.5006973 C17.3138075,14.5285914 17.2580195,14.5564853 17.1743375,14.5843794 C17.1464435,14.5843794 17.1185495,14.6122734 17.0906555,14.6122734 C17.0348675,14.6401674 16.9790795,14.6401674 16.9232915,14.6680614 C16.8953975,14.6680614 16.8675035,14.6959554 16.8117155,14.6959554 C16.7559275,14.7238494 16.7001395,14.7238494 16.6443515,14.7517434 C16.6164575,14.7517434 16.5606695,14.7796374 16.5327755,14.7796374 C16.4769875,14.8075314 16.4211994,14.8075314 16.3375174,14.8354254 C16.3096234,14.8354254 16.2817294,14.8633194 16.2259414,14.8633194 C16.1422594,14.8912134 16.0585774,14.8912134 15.9748954,14.9191074 L15.9191074,14.9191074 C15.8075314,14.9470014 15.6959554,14.9748954 15.5843794,14.9748954 C15.5564853,14.9748954 15.5006973,14.9748954 15.4728033,15.0027894 C15.3891213,15.0306834 15.3054393,15.0306834 15.2217573,15.0585774 C15.1659693,15.0585774 15.1380753,15.0864714 15.0822873,15.0864714 C14.9986053,15.0864714 14.9149233,15.1143654 14.8591353,15.1143654 C14.8033473,15.1143654 14.7754533,15.1143654 14.7196653,15.1422594 C14.6359833,15.1422594 14.5523013,15.1701534 14.4686192,15.1701534 C14.4128312,15.1701534 14.3849372,15.1701534 14.3291492,15.1980474 C14.2175732,15.2259414 14.0781032,15.2259414 13.9665272,15.2259414 L13.9386332,15.2259414 C13.7991632,15.2259414 13.6596932,15.2538354 13.5202231,15.2538354 L13.3807531,15.2538354 C13.2691771,15.2538354 13.1576011,15.2817294 13.0739191,15.2817294 L12.9065551,15.2817294 C12.7949791,15.2817294 12.7112971,15.2817294 12.599721,15.3096234 L10.1450488,15.3096234 C10.0334728,15.3096234 9.92189679,15.3096234 9.83821479,15.2817294 L9.67085076,15.2817294 C9.55927475,15.2817294 9.44769873,15.2538354 9.33612274,15.2538354 L9.19665272,15.2538354 C9.0571827,15.2538354 8.88981869,15.2259414 8.75034866,15.2259414 L8.69456067,15.2259414 C8.58298466,15.2259414 8.44351463,15.1980474 8.33193862,15.1980474 C8.27615062,15.1980474 8.24825662,15.1980474 8.19246862,15.1701534 C8.10878661,15.1701534 7.9972106,15.1422594 7.9135286,15.1422594 C7.8577406,15.1422594 7.82984659,15.1422594 7.77405857,15.1143654 C7.69037657,15.1143654 7.60669457,15.0864714 7.52301254,15.0864714 C7.46722454,15.0864714 7.43933054,15.0864714 7.38354254,15.0585774 C7.29986053,15.0306834 7.18828452,15.0306834 7.1046025,15.0027894 C7.07670849,15.0027894 7.0488145,15.0027894 7.02092049,14.9748954 C6.90934448,14.9470014 6.79776847,14.9191074 6.68619247,14.9191074 C6.65829846,14.9191074 6.63040448,14.9191074 6.63040446,14.8912134 C6.54672245,14.8633194 6.46304045,14.8633194 6.37935844,14.8354254 C6.35146443,14.8354254 6.32357044,14.8075314 6.26778243,14.8075314 C6.21199443,14.7796374 6.12831241,14.7796374 6.07252441,14.7517434 C6.0446304,14.7517434 6.01673641,14.7238494 5.9609484,14.7238494 C5.9051604,14.6959554 5.82147838,14.6959554 5.76569038,14.6680614 C5.73779637,14.6680614 5.70990238,14.6401674 5.68200835,14.6401674 C5.59832635,14.6122734 5.54253833,14.5843794 5.45885635,14.5843794 L5.40306833,14.5843794 L5.15202232,14.5006973 C5.12412831,14.5006973 5.12412831,14.5006973 5.0962343,14.4728033 C5.0404463,14.4449093 4.98465829,14.4170153 4.92887029,14.4170153 C4.90097628,14.4170153 4.87308229,14.3891213 4.84518829,14.3891213 C4.78940029,14.3612273 4.73361227,14.3612273 4.70571826,14.3333333 C4.67782426,14.3333333 4.64993027,14.3054393 4.64993027,14.3054393 C4.59414227,14.2775453 4.56624826,14.2775453 4.51046025,14.2496513 C4.48256624,14.2496513 4.48256624,14.2217573 4.45467223,14.2217573 L4.28730822,14.1380753 L4.11994421,14.0543933 C4.11994421,14.0543933 4.0920502,14.0543933 4.0920502,14.0264993 C4.06415619,13.9986053 4.0083682,13.9986053 3.98047419,13.9707113 C3.95258018,13.9707113 3.95258018,13.9428173 3.92468619,13.9428173 C3.89679218,13.9149233 3.8688982,13.9149233 3.84100419,13.8870293 L3.81311018,13.8591353 C3.81311018,13.8870293 3.78521617,13.8591353 3.75732216,13.8312413 C3.75732216,13.8312413 3.72942815,13.8312413 3.72942817,13.8033473 C3.64574617,13.7475593 3.58995815,13.7196653 3.53417016,13.6917713 C3.53417016,13.6917713 3.50627615,13.6917713 3.50627615,13.6638773 C3.47838214,13.6638773 3.47838214,13.6359833 3.45048813,13.6359833 C3.45048813,13.6359833 3.42259412,13.6359833 3.42259414,13.6080893 C3.42259414,13.6080893 3.39470013,13.6080893 3.39470013,13.5801953 L3.39470013,10.818689 C3.39470013,10.818689 3.42259414,10.846583 3.45048813,10.846583 L3.61785216,10.930265 C3.64574617,10.930265 3.67364016,10.958159 3.70153417,10.958159 C3.75732216,10.986053 3.84100419,11.013947 3.89679218,11.041841 C3.92468619,11.041841 3.92468619,11.069735 3.95258018,11.069735 C4.03626218,11.097629 4.1478382,11.153417 4.23152022,11.181311 C4.25941423,11.181311 4.28730822,11.209205 4.31520223,11.209205 C4.39888423,11.237099 4.45467225,11.264993 4.53835425,11.292887 C4.56624826,11.320781 4.62203626,11.320781 4.67782426,11.348675 C4.76150626,11.376569 4.81729428,11.404463 4.90097628,11.432357 C4.95676428,11.460251 4.98465829,11.460251 5.0404463,11.4881451 L5.29149232,11.5718271 C5.34728031,11.5718271 5.37517432,11.5997211 5.43096234,11.5997211 C5.57043236,11.6276151 5.68200837,11.6834031 5.82147838,11.7112971 L5.87726639,11.7112971 C5.9888424,11.7391911 6.12831243,11.7670851 6.23988842,11.7949791 C6.29567642,11.7949791 6.35146443,11.8228731 6.40725243,11.8228731 C6.51882844,11.8507671 6.60251045,11.8786611 6.71408646,11.8786611 C6.76987446,11.8786611 6.82566247,11.9065551 6.90934448,11.9065551 C7.02092049,11.9344491 7.1324965,11.9344491 7.24407252,11.9623431 C7.29986051,11.9623431 7.35564853,11.9902371 7.43933054,11.9902371 C7.57880056,12.0181311 7.71827056,12.0181311 7.82984657,12.0460251 C7.88563457,12.0460251 7.91352858,12.0460251 7.96931659,12.0739191 C8.16457461,12.1018131 8.33193862,12.1297071 8.52719664,12.1297071 C8.58298464,12.1297071 8.63877265,12.1297071 8.69456067,12.1576011 C8.83403069,12.1854951 9.0013947,12.1854951 9.1408647,12.1854951 C9.22454671,12.1854951 9.28033472,12.1854951 9.36401673,12.2133891 C9.50348675,12.2133891 9.64295675,12.2412831 9.78242677,12.2412831 L10.0334728,12.2412831 C10.1729428,12.2412831 10.3403068,12.2412831 10.5076708,12.2691771 L12.376569,12.2691771 C12.5160391,12.2691771 12.6834031,12.2691771 12.8228731,12.2412831 L13.0739191,12.2412831 C13.2133891,12.2412831 13.3528591,12.2133891 13.4923292,12.2133891 C13.5760112,12.2133891 13.6317992,12.2133891 13.7154812,12.1854951 C13.8549512,12.1854951 13.9944212,12.1576011 14.1338912,12.1576011 C14.1896792,12.1576011 14.2454672,12.1576011 14.3012552,12.1297071 C14.4965133,12.1018131 14.6638773,12.1018131 14.8591353,12.0739191 L14.9149233,12.0739191 C15.0822873,12.0460251 15.2217573,12.0181311 15.3891213,12.0181311 C15.4449093,12.0181311 15.5006973,11.9902371 15.5564853,11.9902371 C15.6680614,11.9623431 15.7796374,11.9623431 15.8912134,11.9344491 C15.9470014,11.9344491 16.0027894,11.9065551 16.0585774,11.9065551 C16.1701534,11.8786611 16.2538354,11.8786611 16.3375174,11.8507671 C16.3933054,11.8507671 16.4490935,11.8228731 16.5048814,11.8228731 C16.6164575,11.7949791 16.7001395,11.7670851 16.7838215,11.7670851 C16.8396095,11.7670851 16.8675035,11.7391911 16.9232915,11.7391911 C17.0627615,11.7112971 17.1743375,11.6834031 17.3138075,11.6276151 C17.3417015,11.6276151 17.3695955,11.6276151 17.3695955,11.5997211 C17.4811716,11.5718271 17.5648536,11.5439331 17.6764296,11.5160391 C17.7043236,11.5160391 17.7601116,11.4881451 17.7880056,11.4881451 C17.8716876,11.460251 17.9274756,11.4323571 18.0111576,11.4044631 C18.0390516,11.376569 18.0948396,11.376569 18.1227336,11.348675 C18.1785216,11.320781 18.2622036,11.292887 18.3179916,11.264993 C18.3458856,11.237099 18.4016736,11.237099 18.4295676,11.209205 C18.4853556,11.181311 18.5690377,11.153417 18.6248257,11.125523 C18.6527197,11.125523 18.6806137,11.097629 18.7085077,11.097629 C18.7921897,11.069735 18.8758717,11.013947 18.9595537,10.986053 C18.9874477,10.986053 18.9874477,10.958159 19.0153417,10.958159 C19.0711297,10.930265 19.1548117,10.902371 19.2105997,10.874477 L19.2384937,10.874477 L19.2384937,13.6359833 C19.1548117,13.6359833 19.1269177,13.6638773 19.0990237,13.6638773 C19.1269177,13.6638773 19.0990237,13.6638773 19.0990237,13.6638773 L19.0990237,13.6638773 Z M19.1548117,9.20083682 C19.1548117,9.22873082 19.1269177,9.22873082 19.1548117,9.20083682 C19.1269177,9.22873082 19.1269177,9.22873082 19.0990237,9.22873082 L19.0432357,9.28451882 C19.0153417,9.31241283 18.9874477,9.31241283 18.9595537,9.34030684 C18.9595537,9.34030684 18.9316597,9.34030684 18.9316597,9.36820085 C18.9037657,9.39609485 18.8758717,9.39609485 18.8479777,9.42398884 L18.8200837,9.45188285 C18.7921897,9.45188285 18.7642957,9.47977686 18.7642957,9.50767085 C18.7364017,9.50767085 18.7364017,9.53556486 18.7085077,9.53556486 C18.6806137,9.56345886 18.6527197,9.56345886 18.6248257,9.59135285 C18.5969316,9.59135285 18.5969316,9.61924686 18.5690377,9.61924686 C18.5411437,9.64714087 18.5132497,9.64714087 18.4574616,9.67503488 C18.4574616,9.67503488 18.4295676,9.67503488 18.4295676,9.70292886 C18.3737796,9.73082287 18.3458856,9.75871686 18.2900976,9.78661089 C18.2622036,9.78661089 18.2622036,9.8145049 18.2343096,9.81450488 C18.2064156,9.84239889 18.1506276,9.84239889 18.1227336,9.87029289 C18.0948396,9.87029289 18.0669456,9.8981869 18.0669456,9.89818688 C18.0390516,9.92608089 17.9832636,9.92608089 17.9553696,9.9539749 C17.9274756,9.9539749 17.8995816,9.98186891 17.8716876,9.98186891 C17.8437936,10.0097629 17.7880056,10.0097629 17.7322176,10.0376569 C17.7043236,10.0376569 17.6764296,10.0655509 17.6485356,10.0655509 C17.5927476,10.0934449 17.5369596,10.0934449 17.4811716,10.1213389 C17.4532775,10.1213389 17.4532775,10.1213389 17.4253835,10.1492329 C17.3417015,10.1771269 17.2859135,10.2050209 17.2022315,10.2329149 C17.1743375,10.2329149 17.1464435,10.2608089 17.1185495,10.2608089 C17.0627615,10.2887029 17.0069735,10.2887029 16.9511855,10.3165969 C16.9232915,10.3165969 16.8953975,10.3444909 16.8396095,10.3444909 C16.7838215,10.3723849 16.7280335,10.3723849 16.6722455,10.4002789 C16.6443514,10.4002789 16.5885635,10.4281729 16.5606695,10.4281729 C16.5048815,10.4560669 16.4490935,10.4560669 16.3654114,10.483961 C16.3375174,10.483961 16.3096234,10.511855 16.2538354,10.5118549 C16.1701534,10.539749 16.0864714,10.539749 16.0027894,10.567643 L15.9470014,10.567643 C15.8354254,10.595537 15.7238494,10.623431 15.6122734,10.623431 C15.5843794,10.623431 15.5285914,10.623431 15.5006973,10.651325 C15.4170153,10.679219 15.3333333,10.679219 15.2496513,10.707113 C15.1938633,10.707113 15.1659693,10.735007 15.1101813,10.735007 C15.0264993,10.735007 14.9428173,10.762901 14.8870293,10.762901 C14.8312413,10.762901 14.8033473,10.762901 14.7475593,10.790795 C14.6638773,10.790795 14.5801953,10.818689 14.4965133,10.818689 C14.4407253,10.818689 14.4128312,10.818689 14.3570432,10.846583 C14.2454672,10.874477 14.1059972,10.874477 13.9665272,10.874477 L13.9386332,10.874477 C13.7991632,10.874477 13.6596932,10.902371 13.4923292,10.902371 L13.3528591,10.902371 C13.2412831,10.902371 13.1576011,10.930265 13.0460251,10.930265 L12.8786611,10.930265 C12.7670851,10.930265 12.6834031,10.930265 12.5718271,10.958159 L10.1171548,10.958159 C10.0055788,10.958159 9.89400278,10.958159 9.81032078,10.930265 L9.64295677,10.930265 C9.53138076,10.930265 9.41980474,10.902371 9.30822873,10.902371 L9.16875871,10.902371 C9.02928869,10.902371 8.86192468,10.874477 8.72245468,10.874477 L8.66666666,10.874477 C8.55509065,10.874477 8.41562063,10.846583 8.30404463,10.846583 C8.24825664,10.846583 8.22036263,10.846583 8.16457461,10.818689 C8.08089261,10.818689 7.9972106,10.790795 7.88563459,10.790795 C7.82984659,10.790795 7.80195258,10.790795 7.74616457,10.762901 C7.66248256,10.762901 7.57880056,10.735007 7.49511855,10.735007 C7.43933056,10.735007 7.41143655,10.735007 7.35564853,10.707113 C7.27196653,10.679219 7.18828452,10.679219 7.07670851,10.651325 C7.0488145,10.651325 7.02092051,10.651325 6.9930265,10.623431 C6.88145049,10.5955369 6.76987448,10.567643 6.65829846,10.567643 C6.63040446,10.567643 6.60251047,10.567643 6.57461646,10.539749 C6.49093445,10.5118549 6.40725245,10.5118549 6.32357042,10.483961 C6.29567642,10.483961 6.23988842,10.4560669 6.21199441,10.4560669 C6.15620641,10.4281729 6.07252439,10.4281729 6.01673639,10.4002789 C5.98884238,10.4002789 5.93305439,10.3723849 5.90516038,10.3723849 C5.84937238,10.3444909 5.76569036,10.3444909 5.70990236,10.3165969 C5.68200835,10.3165969 5.65411437,10.2887029 5.62622036,10.2887029 C5.54253835,10.2608089 5.48675034,10.2608089 5.43096234,10.2329149 C5.40306833,10.2329149 5.40306833,10.2329149 5.37517432,10.2050209 L5.12412831,10.1213389 C5.0962343,10.1213389 5.06834031,10.0934449 5.06834029,10.0934449 C5.01255229,10.0655509 4.95676428,10.0655509 4.90097628,10.0376569 C4.87308227,10.0376569 4.84518829,10.0097629 4.81729428,10.0097629 C4.76150628,9.98186889 4.73361227,9.98186889 4.67782426,9.9539749 C4.64993025,9.9539749 4.62203626,9.92608089 4.59414225,9.92608089 C4.53835425,9.89818688 4.51046025,9.89818688 4.45467223,9.87029289 C4.42677822,9.87029289 4.39888423,9.84239889 4.39888423,9.84239889 C4.34309624,9.81450488 4.28730822,9.78661089 4.25941421,9.78661089 L4.23152022,9.78661089 L4.06415619,9.70292886 C4.03626218,9.70292886 4.03626218,9.67503486 4.0083682,9.67503488 C3.98047419,9.64714087 3.9525802,9.64714087 3.89679218,9.61924686 C3.86889818,9.61924686 3.86889818,9.59135285 3.84100419,9.59135285 C3.81311018,9.56345884 3.78521619,9.56345884 3.75732216,9.53556486 C3.72942815,9.53556486 3.72942815,9.50767085 3.70153417,9.50767085 C3.81311018,9.45188285 3.78521617,9.42398884 3.75732216,9.42398884 L3.72942817,9.39609483 C3.70153417,9.36820083 3.67364018,9.36820083 3.64574615,9.34030684 C3.64574615,9.34030684 3.61785214,9.34030684 3.61785216,9.31241283 C3.58995815,9.28451882 3.56206416,9.28451882 3.53417016,9.25662483 L3.50627615,9.22873082 C3.47838214,9.22873082 3.47838214,9.20083682 3.45048813,9.20083682 L3.42259414,9.17294283 L3.39470013,9.17294283 L3.39470013,6.43933054 C3.42259414,6.43933054 3.42259414,6.46722454 3.45048813,6.46722454 C3.53417014,6.52301254 3.58995815,6.55090655 3.67364016,6.60669457 C3.70153417,6.63458857 3.72942815,6.63458857 3.75732216,6.66248256 L4.0920502,6.82984659 C4.11994421,6.82984659 4.1478382,6.8577406 4.17573221,6.85774058 C4.25941421,6.88563459 4.37099022,6.94142258 4.45467223,6.96931659 C4.48256624,6.9972106 4.53835423,6.9972106 4.56624824,7.02510461 C4.64993025,7.05299862 4.76150626,7.10878661 4.84518829,7.13668062 C4.87308229,7.13668062 4.90097628,7.16457463 4.92887029,7.16457461 C5.06834031,7.22036261 5.17991632,7.24825662 5.31938633,7.30404463 C5.34728033,7.30404463 5.40306833,7.33193864 5.43096234,7.33193864 C5.54253835,7.35983265 5.65411437,7.38772664 5.73779637,7.41562065 C5.79358437,7.41562065 5.82147838,7.44351465 5.87726639,7.44351465 L6.21199441,7.52719666 C6.23988842,7.52719666 6.26778241,7.55509067 6.32357042,7.55509065 C6.46304045,7.58298466 6.63040446,7.61087864 6.76987448,7.63877267 C6.82566247,7.63877267 6.85355648,7.66666668 6.90934448,7.66666666 C7.02092049,7.69456067 7.1324965,7.72245466 7.24407252,7.72245468 C7.29986051,7.72245468 7.35564853,7.75034868 7.41143653,7.75034868 C7.55090655,7.77824269 7.66248256,7.77824269 7.80195258,7.80613668 C7.82984659,7.80613668 7.88563459,7.80613668 7.9135286,7.83403069 C8.08089261,7.8619247 8.22036263,7.88981869 8.38772664,7.88981869 C8.44351463,7.88981869 8.49930265,7.88981869 8.55509065,7.91771269 C8.66666666,7.91771269 8.77824267,7.9456067 8.91771269,7.9456067 C8.97350069,7.9456067 9.02928871,7.9456067 9.0850767,7.97350069 C9.22454673,7.97350069 9.36401673,8.0013947 9.50348675,8.0013947 L9.58716875,8.0013947 C9.75453276,8.0013947 9.92189679,8.02928871 10.0892608,8.02928871 L11.902371,8.02928871 C14.7196653,7.97350071 17.4811715,7.44351465 19.0990237,6.49511855 L19.0990237,9.20083682 L19.1548117,9.20083682 Z M11.3444909,2.39470013 C16.4490935,2.39470013 19.2105997,3.81729428 19.2105997,4.54253835 L19.2105997,4.65411437 C19.1548117,4.82147838 19.0153417,4.9609484 18.7921897,5.12831241 C18.7642957,5.12831241 18.7642957,5.15620641 18.7364017,5.15620641 C18.6806137,5.18410042 18.6248257,5.23988842 18.5690377,5.26778243 C18.1506276,5.51882846 17.5090655,5.79776848 16.7001395,6.02092049 C16.6722455,6.02092049 16.6443515,6.0488145 16.6164575,6.0488145 C16.4769874,6.07670851 16.3375174,6.1324965 16.1980474,6.16039051 C16.1143654,6.18828452 16.0027894,6.21617851 15.8912134,6.21617853 C15.8354254,6.24407254 15.7517434,6.24407254 15.6959554,6.27196653 C15.5285914,6.29986053 15.3891213,6.32775452 15.2217573,6.35564853 C15.1938633,6.35564853 15.1659693,6.35564853 15.1380753,6.38354254 C14.9428173,6.41143655 14.7475593,6.43933054 14.5244073,6.46722454 L14.4686192,6.46722454 L13.7991632,6.55090655 L13.7433752,6.55090655 C13.5202231,6.57880056 13.2970711,6.57880056 13.0460251,6.60669457 L12.9623431,6.60669457 C12.7112971,6.63458855 12.4881451,6.63458855 12.237099,6.63458855 L11.3723849,6.63458855 L11.3444909,6.63458855 C7.0488145,6.63458855 4.39888423,5.63040446 3.67364016,4.87726639 C3.53417014,4.73779637 3.47838214,4.59832637 3.47838214,4.48675036 C3.47838214,3.8172943 6.23988842,2.39470013 11.3444909,2.39470013 L11.3444909,2.39470013 Z M19.1548117,17.9316597 C18.6248257,18.3500698 16.5885635,19.6052999 11.4281729,19.6052999 C6.23988842,19.6052999 4.0362622,18.3500697 3.42259414,17.9037657 L3.42259414,15.2259414 C3.42259414,15.2259414 3.45048815,15.2259414 3.45048813,15.2538354 C3.47838214,15.2817294 3.53417014,15.3096234 3.58995815,15.3375174 C3.61785216,15.3375174 3.64574615,15.3654114 3.67364016,15.3654114 C3.72942815,15.3933055 3.81311018,15.4211994 3.89679218,15.4490935 C3.92468619,15.4490935 3.92468619,15.4769875 3.95258018,15.4769875 C4.03626218,15.5048815 4.1478382,15.5606695 4.23152022,15.5885635 C4.25941423,15.5885635 4.28730822,15.6164575 4.31520223,15.6164575 C4.39888423,15.6443515 4.45467225,15.6722455 4.53835425,15.7001395 C4.56624826,15.7280335 4.62203626,15.7280335 4.64993027,15.7280335 C4.73361227,15.7559275 4.78940029,15.7838215 4.87308227,15.8117155 C4.92887027,15.8396095 4.95676428,15.8396095 5.01255229,15.8675035 L5.26359833,15.9511855 C5.29149234,15.9511855 5.34728033,15.9790795 5.37517432,15.9790795 C5.51464434,16.0069735 5.62622036,16.0627615 5.79358437,16.0906555 L5.84937238,16.0906555 C5.9609484,16.1185495 6.10041842,16.1464435 6.23988842,16.1743375 C6.29567642,16.1743375 6.35146443,16.2022315 6.37935844,16.2022315 C6.49093445,16.2301255 6.57461646,16.2580195 6.68619247,16.2580195 C6.74198047,16.2580195 6.79776848,16.2859135 6.85355648,16.2859135 C6.96513249,16.3138075 7.07670851,16.3138075 7.18828452,16.3417015 C7.24407252,16.3417015 7.29986053,16.3695955 7.35564853,16.3695955 C7.49511855,16.3974896 7.63458855,16.3974896 7.77405857,16.4253835 C7.82984657,16.4253835 7.85774058,16.4253835 7.9135286,16.4532775 C8.10878661,16.4811716 8.27615062,16.5090655 8.47140864,16.5090655 C8.52719664,16.5090655 8.58298466,16.5090655 8.63877265,16.5369596 C8.77824267,16.5648536 8.94560668,16.5648536 9.0850767,16.5648536 C9.16875871,16.5648536 9.22454673,16.5648536 9.30822873,16.5927476 C9.44769875,16.5927476 9.58716875,16.6206416 9.72663877,16.6206416 L9.97768479,16.6206416 C10.1171548,16.6206416 10.2845188,16.6206416 10.4518829,16.6485356 L12.320781,16.6485356 C12.488145,16.6485356 12.6276151,16.6485356 12.7670851,16.6206416 L12.9902371,16.6206416 C13.1297071,16.6206416 13.2691771,16.5927476 13.4086471,16.5927476 C13.4923292,16.5927476 13.5481172,16.5927476 13.6317992,16.5648536 C13.7712692,16.5648536 13.9107392,16.5369596 14.0502092,16.5369596 C14.1059972,16.5369596 14.1617852,16.5369596 14.2175732,16.5090655 C14.4128312,16.4811715 14.5801953,16.4811715 14.7754533,16.4532775 L14.8312413,16.4532775 C14.9986053,16.4253835 15.1659693,16.3974896 15.3054393,16.3974896 C15.3612273,16.3974896 15.4170153,16.3695955 15.4728033,16.3695955 C15.5843794,16.3417015 15.6959554,16.3417015 15.8075314,16.3138075 C15.8633194,16.3138075 15.9191074,16.2859135 15.9748954,16.2859135 C16.0864714,16.2580195 16.1701534,16.2580195 16.2817294,16.2301255 C16.3375174,16.2301255 16.3933054,16.2022315 16.4490935,16.2022315 C16.5606695,16.1743375 16.6443515,16.1464435 16.7559275,16.1464435 C16.7838215,16.1464435 16.8396095,16.1185495 16.8675035,16.1185495 C17.0069735,16.0906555 17.1185495,16.0627615 17.2580195,16.0069735 C17.2859135,16.0069735 17.2859135,16.0069735 17.3138075,15.9790795 C17.4253835,15.9511855 17.5369596,15.9232915 17.6206416,15.8953975 C17.6485356,15.8953975 17.7043236,15.8675035 17.7322176,15.8675035 C17.8158996,15.8396095 17.8716876,15.8117155 17.9553696,15.7838215 C17.9832636,15.7838215 18.0390516,15.7559275 18.0669456,15.7280335 C18.1227336,15.7001395 18.2064156,15.6722455 18.2622036,15.6443515 C18.2900976,15.6443515 18.3179916,15.6164575 18.3737796,15.6164575 C18.4574616,15.5885635 18.5132497,15.5606695 18.5690377,15.5327755 C18.5969317,15.5327755 18.6248257,15.5048814 18.6527197,15.5048814 C18.7364017,15.4769874 18.8200837,15.4211994 18.9037657,15.3933054 C18.9037657,15.3933054 18.9316597,15.3933054 18.9316597,15.3654114 C19.0153417,15.3375174 19.0711297,15.3096234 19.1269177,15.2538354 L19.1548117,15.2538354 L19.1548117,17.9316597 L19.1548117,17.9316597 Z" fill="#FFFFFF" fill-rule="nonzero"></path>
                </g>
            </g>
        </g>
    </g>
</svg>