<?xml version="1.0" encoding="UTF-8"?>
<svg width="36px" height="36px" viewBox="0 0 36 36" version="1.1" xmlns="http://www.w3.org/2000/svg" xmlns:xlink="http://www.w3.org/1999/xlink">
    <title>图标-机房使用率</title>
    <defs>
        <linearGradient x1="50%" y1="98.1889205%" x2="50%" y2="0%" id="linearGradient-1">
            <stop stop-color="#4475FF" offset="0%"></stop>
            <stop stop-color="#78CDFF" offset="100%"></stop>
        </linearGradient>
        <path d="M20.4166667,1 L20.4166667,30.2173913 L23.25,30.2173913 L23.25,7.95652174 L33.1666667,13.5217391 L33.1666667,30.2173913 L36,30.2173913 L36,33 L2,33 L2,30.2173913 L4.83333333,30.2173913 L4.83333333,6.56521739 L20.4166667,1 Z M11.9166667,26.7391304 L9.08333333,26.7391304 L9.08333333,28.1304348 L11.9166667,28.1304348 L11.9166667,26.7391304 Z M17.5833333,26.7391304 L14.75,26.7391304 L14.75,28.1304348 L17.5833333,28.1304348 L17.5833333,26.7391304 Z M28.9166667,26.7391304 L26.0833333,26.7391304 L26.0833333,28.1304348 L28.9166667,28.1304348 L28.9166667,26.7391304 Z M11.9166667,23.2608696 L9.08333333,23.2608696 L9.08333333,24.6521739 L11.9166667,24.6521739 L11.9166667,23.2608696 Z M17.5833333,23.2608696 L14.75,23.2608696 L14.75,24.6521739 L17.5833333,24.6521739 L17.5833333,23.2608696 Z M28.9166667,23.2608696 L26.0833333,23.2608696 L26.0833333,24.6521739 L28.9166667,24.6521739 L28.9166667,23.2608696 Z M11.9166667,19.7826087 L9.08333333,19.7826087 L9.08333333,21.173913 L11.9166667,21.173913 L11.9166667,19.7826087 Z M17.5833333,19.7826087 L14.75,19.7826087 L14.75,21.173913 L17.5833333,21.173913 L17.5833333,19.7826087 Z M28.9166667,19.7826087 L26.0833333,19.7826087 L26.0833333,21.173913 L28.9166667,21.173913 L28.9166667,19.7826087 Z M11.9166667,16.3043478 L9.08333333,16.3043478 L9.08333333,17.6956522 L11.9166667,17.6956522 L11.9166667,16.3043478 Z M17.5833333,16.3043478 L14.75,16.3043478 L14.75,17.6956522 L17.5833333,17.6956522 L17.5833333,16.3043478 Z M28.9166667,16.3043478 L26.0833333,16.3043478 L26.0833333,17.6956522 L28.9166667,17.6956522 L28.9166667,16.3043478 Z M11.9166667,12.826087 L9.08333333,12.826087 L9.08333333,14.2173913 L11.9166667,14.2173913 L11.9166667,12.826087 Z M17.5833333,12.826087 L14.75,12.826087 L14.75,14.2173913 L17.5833333,14.2173913 L17.5833333,12.826087 Z M28.9166667,12.826087 L26.0833333,12.826087 L26.0833333,14.2173913 L28.9166667,14.2173913 L28.9166667,12.826087 Z M11.9166667,9.34782609 L9.08333333,9.34782609 L9.08333333,10.7391304 L11.9166667,10.7391304 L11.9166667,9.34782609 Z M17.5833333,9.34782609 L14.75,9.34782609 L14.75,10.7391304 L17.5833333,10.7391304 L17.5833333,9.34782609 Z" id="path-2"></path>
        <filter x="-26.5%" y="-28.1%" width="152.9%" height="156.2%" filterUnits="objectBoundingBox" id="filter-3">
            <feOffset dx="0" dy="0" in="SourceAlpha" result="shadowOffsetOuter1"></feOffset>
            <feGaussianBlur stdDeviation="3" in="shadowOffsetOuter1" result="shadowBlurOuter1"></feGaussianBlur>
            <feColorMatrix values="0 0 0 0 0.0274509804   0 0 0 0 0.921568627   0 0 0 0 0.992156863  0 0 0 0.473967439 0" type="matrix" in="shadowBlurOuter1"></feColorMatrix>
        </filter>
    </defs>
    <g id="0426-定稿" stroke="none" stroke-width="1" fill="none" fill-rule="evenodd">
        <g id="基础方案" transform="translate(-73.000000, -742.000000)">
            <g id="列表组件" transform="translate(36.000000, 660.000000)">
                <g id="list-row" transform="translate(24.000000, 73.000000)">
                    <g id="图标" transform="translate(4.000000, 0.000000)">
                        <g id="图标-机房使用率" transform="translate(9.000000, 9.000000)">
                            <rect id="矩形" fill-opacity="0" fill="#D8D8D8" x="0" y="0" width="36" height="36"></rect>
                            <g id="形状结合">
                                <use fill="black" fill-opacity="1" filter="url(#filter-3)" xlink:href="#path-2"></use>
                                <use fill="url(#linearGradient-1)" fill-rule="evenodd" xlink:href="#path-2"></use>
                            </g>
                        </g>
                    </g>
                </g>
            </g>
        </g>
    </g>
</svg>