<?xml version="1.0" encoding="UTF-8"?>
<svg width="22px" height="22px" viewBox="0 0 22 22" version="1.1" xmlns="http://www.w3.org/2000/svg" xmlns:xlink="http://www.w3.org/1999/xlink">
    <title>图标-主机-默认</title>
    <g id="0426-定稿" stroke="none" stroke-width="1" fill="none" fill-rule="evenodd">
        <g id="基础方案" transform="translate(-55.000000, -134.000000)">
            <g id="指标卡组件" transform="translate(36.000000, 91.000000)">
                <g id="指标卡-基础" transform="translate(0.000000, 29.000000)">
                    <g id="图标-主机-默认" transform="translate(19.000000, 14.000000)">
                        <rect id="矩形" fill-opacity="0" fill="#D8D8D8" x="0" y="0" width="22" height="22"></rect>
                        <path d="M17,0.5 C19.4852814,0.5 21.5,2.51471863 21.5,5 L21.5,5 L21.5,17 C21.5,19.4852814 19.4852814,21.5 17,21.5 L17,21.5 L5,21.5 C2.51471863,21.5 0.5,19.4852814 0.5,17 L0.5,17 L0.5,5 C0.5,2.51471863 2.51471863,0.5 5,0.5 L5,0.5 Z M17,1.5 L5,1.5 C3.06700338,1.5 1.5,3.06700338 1.5,5 L1.5,5 L1.5,17 C1.5,18.9329966 3.06700338,20.5 5,20.5 L5,20.5 L17,20.5 C18.9329966,20.5 20.5,18.9329966 20.5,17 L20.5,17 L20.5,5 C20.5,3.06700338 18.9329966,1.5 17,1.5 L17,1.5 Z M16,8.5 C16.8284271,8.5 17.5,9.17157288 17.5,10 L17.5,10 L17.5,10.8 C17.5,11.6284271 16.8284271,12.3 16,12.3 L16,12.3 L6,12.3 C5.17157288,12.3 4.5,11.6284271 4.5,10.8 L4.5,10.8 L4.5,10 C4.5,9.17157288 5.17157288,8.5 6,8.5 L6,8.5 Z M16,9.5 L6,9.5 C5.72385763,9.5 5.5,9.72385763 5.5,10 L5.5,10 L5.5,10.8 C5.5,11.0761424 5.72385763,11.3 6,11.3 L6,11.3 L16,11.3 C16.2761424,11.3 16.5,11.0761424 16.5,10.8 L16.5,10.8 L16.5,10 C16.5,9.72385763 16.2761424,9.5 16,9.5 L16,9.5 Z M17.2,5.8 C17.5313708,5.8 17.8,6.06862915 17.8,6.4 C17.8,6.73137085 17.5313708,7 17.2,7 L4.8,7 C4.46862915,7 4.2,6.73137085 4.2,6.4 C4.2,6.06862915 4.46862915,5.8 4.8,5.8 L17.2,5.8 Z M17.2,3 C17.5313708,3 17.8,3.26862915 17.8,3.6 C17.8,3.93137085 17.5313708,4.2 17.2,4.2 L4.8,4.2 C4.46862915,4.2 4.2,3.93137085 4.2,3.6 C4.2,3.26862915 4.46862915,3 4.8,3 L17.2,3 Z" id="形状结合" fill="#4D7CFF" fill-rule="nonzero"></path>
                        <path d="M10.6,15 C11.0418278,15 11.4,14.6418278 11.4,14.2 C11.4,13.7581722 11.0418278,13.4 10.6,13.4 C10.1581722,13.4 9.8,13.7581722 9.8,14.2 C9.8,14.6418278 10.1581722,15 10.6,15 Z M10.6,18.6 C11.2627417,18.6 11.8,18.0627417 11.8,17.4 C11.8,16.7372583 11.2627417,16.2 10.6,16.2 C9.9372583,16.2 9.4,16.7372583 9.4,17.4 C9.4,18.0627417 9.9372583,18.6 10.6,18.6 Z" id="形状结合" fill="#F48D1F"></path>
                    </g>
                </g>
            </g>
        </g>
    </g>
</svg>