<?xml version="1.0" encoding="UTF-8"?>
<svg width="22px" height="22px" viewBox="0 0 22 22" version="1.1" xmlns="http://www.w3.org/2000/svg" xmlns:xlink="http://www.w3.org/1999/xlink">
    <title>图标-中间件</title>
    <g id="0426-定稿" stroke="none" stroke-width="1" fill="none" fill-rule="evenodd">
        <g id="基础方案" transform="translate(-1613.000000, -133.000000)">
            <g id="指标卡组件" transform="translate(36.000000, 91.000000)">
                <g id="指标卡-基础" transform="translate(1560.000000, 28.000000)">
                    <g id="图标-中间件" transform="translate(17.000000, 14.000000)">
                        <rect id="矩形" fill-opacity="0" fill="#D8D8D8" x="0" y="0" width="22" height="22"></rect>
                        <path d="M3.3562988,11.9638234 C3.79317644,15.4434733 6.55686581,18.2066824 10.0362756,18.6438002 L10.0362756,18.6438002 L10.0369961,20.5899351 C8.09494084,20.3969486 6.32261467,19.627757 4.89341683,18.4557037 C4.85952088,18.49935 4.8201336,18.5432515 4.77623211,18.587153 L2.68359791,20.6797872 C2.25664754,21.1067376 1.82969716,21.1067376 1.40274679,20.6797872 L1.32054953,20.5975899 C0.893599156,20.1706396 0.893599156,19.7436892 1.32054953,19.3167388 L3.41318373,17.2241046 C3.45727099,17.1800174 3.50135826,17.1404826 3.54544553,17.1055003 C2.37318729,15.6787193 1.60379886,13.9061845 1.41088437,11.9638234 L1.41088437,11.9638234 Z M20.5900288,11.9631029 C20.3970994,13.9056135 19.6276074,15.6782717 18.4550739,17.1076122 C18.4993347,17.140663 18.5432362,17.1800503 18.5871377,17.2239518 L20.6797719,19.316586 C21.1067223,19.7435364 21.1067223,20.1704867 20.6797719,20.5974371 L20.5975747,20.6796344 C20.1706243,21.1065847 19.7436739,21.1065847 19.3167235,20.6796344 L17.2240893,18.5870001 C17.1798527,18.5427635 17.1401995,18.4985269 17.1051297,18.4542903 C15.6780297,19.6271531 13.905825,20.3962427 11.9639171,20.5892146 L11.9639171,20.5892146 L11.9639171,18.6438002 C15.4445277,18.2066824 18.2070162,15.4434733 18.6438938,11.9638234 L18.6438938,11.9638234 Z M2.68326116,1.32036101 L4.77589538,3.41299522 C4.820132,3.45723183 4.85978523,3.50146845 4.89485507,3.54570506 C6.32106306,2.3726058 8.09376497,1.60327497 10.0362756,1.41055055 L10.0362756,1.41055055 L10.0362756,3.35596498 C6.55686581,3.79308279 3.79317644,6.55533112 3.3562988,10.0361819 L3.3562988,10.0361819 L1.41016384,10.0361819 C1.60307834,8.0937184 2.37246677,6.32112481 3.54484794,4.89186371 C3.50064996,4.8593324 3.45674847,4.81994511 3.41284698,4.77604362 L1.32021278,2.68340939 C0.893262407,2.25645902 0.893262407,1.82950866 1.32021278,1.4025583 L1.40241007,1.32036101 C1.82936044,0.893410643 2.2563108,0.893410643 2.68326116,1.32036101 Z M20.5974247,1.32021278 L20.679622,1.40241007 C21.1065724,1.82936044 21.1065724,2.2563108 20.679622,2.68326116 L18.5869878,4.77589538 C18.5430863,4.81979687 18.4991848,4.85918416 18.4552833,4.89405724 C19.6274889,6.32112481 20.3967011,8.0937184 20.5893083,10.0361819 L20.5893083,10.0361819 L18.6438938,10.0361819 C18.2070162,6.55533112 15.4445277,3.79308279 11.9639171,3.35596498 L11.9639171,3.35596498 L11.9639171,1.4100702 C13.9062781,1.60298469 15.6788567,2.37232942 17.1081156,3.54467911 C17.1406506,3.50064998 17.1800379,3.45674849 17.2239394,3.412847 L19.3165736,1.32021278 C19.743524,0.893262407 20.1704744,0.893262407 20.5974247,1.32021278 Z" id="形状结合" fill="#4D7CFF" fill-rule="nonzero"></path>
                        <path d="M7.14457311,11.0000027 C7.14457311,13.1293493 8.87074964,14.8555259 11.0000963,14.8555259 C13.129443,14.8555259 14.8556195,13.1293493 14.8556195,11.0000027 C14.8556195,8.870656 13.129443,7.14447946 11.0000963,7.14447946 C8.87074964,7.14447946 7.14457311,8.870656 7.14457311,11.0000027 Z" id="路径" fill="#F48D1F" fill-rule="nonzero"></path>
                    </g>
                </g>
            </g>
        </g>
    </g>
</svg>