<?xml version="1.0" encoding="UTF-8"?>
<svg width="40px" height="42px" viewBox="0 0 40 42" version="1.1" xmlns="http://www.w3.org/2000/svg" xmlns:xlink="http://www.w3.org/1999/xlink">
    <title>图标-正常应用</title>
    <defs>
        <filter x="-79.9%" y="-67.7%" width="259.9%" height="235.4%" filterUnits="objectBoundingBox" id="filter-1">
            <feGaussianBlur stdDeviation="4" in="SourceGraphic"></feGaussianBlur>
        </filter>
    </defs>
    <g id="0519-监控大屏" stroke="none" stroke-width="1" fill="none" fill-rule="evenodd">
        <g id="监控-运维大屏" transform="translate(-1764.000000, -456.000000)">
            <g id="应用健康度" transform="translate(1423.000000, 388.000000)">
                <g id="统计数据2" transform="translate(20.081416, 69.000000)">
                    <g id="1备份-12" transform="translate(321.000000, 0.000000)">
                        <g id="图标-正常应用" transform="translate(0.000000, 2.909000)">
                            <path d="M15.918,-0.001 L15.918,4.429 L3.99958429,10.114 L3.99958429,24.067 L15.918,29.75 L15.918,34.182 L0,26.591 L0,7.591 L15.918,-0.001 Z M23.918,-0.001 L39.8371686,7.591 L39.8371686,26.591 L23.918,34.182 L23.918,29.75 L35.8365843,24.067 L35.8365843,10.114 L23.918,4.429 L23.918,-0.001 Z" id="形状结合" fill="#178AFE" fill-rule="nonzero" opacity="0.599999964"></path>
                            <path d="M20.4990059,8.42960288 C21.4790059,9.24860288 23.6780059,10.7566029 26.4230059,10.5806029 C26.9500059,10.5466029 27.3950059,10.9776029 27.3950059,11.5186029 L27.3950059,18.2686029 C27.3950059,21.5026029 21.9230059,24.8966029 20.3230059,25.8206029 C20.0527846,25.977327 19.7204141,25.9818748 19.4460059,25.8326029 C17.8360059,24.9616029 12.3820059,21.7536029 12.3820059,18.2686029 L12.3820059,11.5216029 C12.3820059,10.9796029 12.8280059,10.5526029 13.3560059,10.5836029 C15.9720059,10.7346029 18.3190059,9.21060288 19.3670059,8.40360288 C19.7050059,8.14360288 20.1710059,8.15560288 20.4990059,8.42960288 Z M23.5818291,14.4995214 C23.3279883,14.2456806 22.9164311,14.2456806 22.6625903,14.4995214 L22.6625903,14.4995214 L19.5852616,17.5754359 L17.8896195,15.8783796 C17.5772001,15.5659601 17.0706681,15.5659601 16.7582487,15.8783796 C16.4458292,16.190799 16.4458292,16.697331 16.7582487,17.0097504 L16.7582487,17.0097504 L18.8088583,19.0603601 C18.8285648,19.0800666 18.8490436,19.09853 18.8701972,19.1157504 L18.8701972,19.1157504 L18.9149244,19.1664261 C19.1687652,19.4202669 19.5803224,19.4202669 19.8341632,19.1664261 L19.8341632,19.1664261 L19.9289155,19.0702596 L19.9402292,19.0603601 L19.9402292,19.0603601 L19.9501163,19.0503007 L23.5818291,15.4187602 C23.8356699,15.1649194 23.8356699,14.7533621 23.5818291,14.4995214 Z" id="形状结合" fill="#54EFF1" fill-rule="nonzero" opacity="0.5" filter="url(#filter-1)"></path>
                            <g id="安全备份" transform="translate(9.918584, 7.091000)">
                                <rect id="矩形" fill="#FFFFFF" opacity="0" x="0" y="0" width="20" height="20"></rect>
                                <path d="M10.5804216,1.33860288 C11.5604216,2.15760288 13.7594216,3.66560288 16.5044216,3.48960288 C17.0314216,3.45560288 17.4764216,3.88660288 17.4764216,4.42760288 L17.4764216,11.1776029 C17.4764216,14.4116029 12.0044216,17.8056029 10.4044216,18.7296029 C10.1342003,18.886327 9.80182983,18.8908748 9.5274216,18.7416029 C7.9174216,17.8706029 2.4634216,14.6626029 2.4634216,11.1776029 L2.4634216,4.43060288 C2.4634216,3.88860288 2.9094216,3.46160288 3.4374216,3.49260288 C6.0534216,3.64360288 8.4004216,2.11960288 9.4484216,1.31260288 C9.7864216,1.05260288 10.2524216,1.06460288 10.5804216,1.33860288 Z M13.6632448,7.40852136 C13.409404,7.15468057 12.9978468,7.15468057 12.744006,7.40852136 L12.744006,7.40852136 L9.6666773,10.4844359 L7.97103524,8.78737958 C7.65861581,8.47496015 7.15208382,8.47496015 6.83966439,8.78737958 C6.52724496,9.09979901 6.52724496,9.606331 6.83966439,9.91875043 L6.83966439,9.91875043 L8.89027406,11.9693601 C8.90998051,11.9890666 8.93045929,12.00753 8.95161294,12.0247504 L8.95161294,12.0247504 L8.99634007,12.0754261 C9.25018086,12.3292669 9.6617381,12.3292669 9.91557889,12.0754261 L9.91557889,12.0754261 L10.0103312,11.9792596 L10.0216449,11.9693601 L10.0216449,11.9693601 L10.031532,11.9593007 L13.6632448,8.32776017 C13.9170856,8.07391938 13.9170856,7.66236215 13.6632448,7.40852136 Z" id="形状结合" fill="#65B2FF" fill-rule="nonzero"></path>
                            </g>
                        </g>
                    </g>
                </g>
            </g>
        </g>
    </g>
</svg>