<?xml version="1.0" encoding="UTF-8"?>
<svg width="22px" height="22px" viewBox="0 0 22 22" version="1.1" xmlns="http://www.w3.org/2000/svg" xmlns:xlink="http://www.w3.org/1999/xlink">
    <title>图标-物理机-特殊背景</title>
    <g id="0426-定稿" stroke="none" stroke-width="1" fill="none" fill-rule="evenodd">
        <g id="基础方案" transform="translate(-366.000000, -93.000000)">
            <g id="指标卡组件" transform="translate(36.000000, 91.000000)">
                <g id="图标-物理机-特殊背景" transform="translate(330.000000, 2.000000)">
                    <rect id="矩形" fill-opacity="0" fill="#D8D8D8" x="0" y="0" width="22" height="22"></rect>
                    <path d="M11.2172569,21 C11.1232787,21 11.0295181,20.9756353 10.9453293,20.9271234 L7.35501525,18.8541652 C7.18680595,18.7569615 7.08308768,18.577462 7.08308768,18.3831866 L7.08308768,14.2372701 C7.08308768,14.0430051 7.18685524,13.8635329 7.35501525,13.7662916 L9.06163267,12.7810436 C9.32181297,12.6309396 9.65443478,12.7199143 9.80453879,12.9800946 C9.95464281,13.2402749 9.86566811,13.5728967 9.60548781,13.7230007 L8.17079795,14.5514008 L8.17079795,18.0692734 L11.2172569,19.8281009 L14.2637159,18.0692734 L14.2637159,14.5514008 L12.8542609,13.737576 C12.5940806,13.587472 12.5051059,13.2548502 12.6552099,12.9946699 C12.8053139,12.7344896 13.1379357,12.6455149 13.398116,12.7956189 L15.0794986,13.7662916 C15.2477768,13.8634263 15.3514261,14.0429695 15.3514261,14.2372701 L15.3514261,18.3831866 C15.3514261,18.5774517 15.2478761,18.7569239 15.0794986,18.8541652 L11.4891845,20.9271234 C11.406505,20.974851 11.3127232,21 11.2172569,21 L11.2172569,21 Z" id="路径" fill="#FFFFFF" fill-rule="nonzero"></path>
                    <path d="M6.20269498,18.2228584 C6.10871681,18.2228584 6.01495618,18.1984934 5.93076741,18.1499815 L2.31543598,16.0626655 C2.14722669,15.9654618 2.04350841,15.7859623 2.04350841,15.591687 L2.04350841,11.4170549 C2.04350841,11.1166293 2.28693797,10.8731998 2.58736355,10.8731998 C2.88778913,10.8731998 3.13121869,11.1166293 3.13121869,11.4170549 L3.13121869,15.2777738 L6.20269498,17.0511766 L9.27417126,15.2777738 L9.27417126,13.5317812 C9.27417126,13.2313556 9.51760082,12.9879261 9.8180264,12.9879261 C10.118452,12.9879261 10.3618815,13.2313556 10.3618815,13.5317812 L10.3618815,15.591687 C10.3618815,15.785952 10.2583315,15.9654242 10.089954,16.0626655 L6.47462255,18.1499815 C6.39198356,18.1978067 6.29817504,18.2229474 6.20269498,18.2228584 L6.20269498,18.2228584 Z M16.1791737,18.2228582 C16.0851955,18.2228582 15.9914349,18.1984934 15.9072461,18.1499815 L12.2919147,16.0626655 C12.1236364,15.9655307 12.0199871,15.7859876 12.0199871,15.591687 L12.0199871,13.5620196 C12.0199871,13.261594 12.2634167,13.0181644 12.5638422,13.0181644 C12.8642678,13.0181644 13.1076974,13.261594 13.1076974,13.5620196 L13.1076974,15.2775562 L16.1791737,17.0509591 L19.2506499,15.2775562 L19.2506499,11.4170549 C19.2506499,11.1166293 19.4940795,10.8731998 19.7945051,10.8731998 C20.0949307,10.8731998 20.3383602,11.1166293 20.3383602,11.4170549 L20.3383602,15.591687 C20.3383602,15.785952 20.2348102,15.9654242 20.0664326,16.0626655 L16.4511012,18.1499815 C16.3684515,18.1977808 16.2746501,18.2228582 16.1791737,18.2228582 L16.1791737,18.2228582 Z" id="形状" fill="#FFFFFF" fill-rule="nonzero"></path>
                    <path d="M16.5650933,12.121021 C16.4711151,12.121021 16.3773545,12.0966563 16.2931657,12.0481444 L14.2115058,10.8462245 C13.9513255,10.6961205 13.8623508,10.3634987 14.0124548,10.1033184 C14.1625588,9.84313813 14.4951806,9.75416343 14.7553609,9.90426744 L16.5650933,10.9491219 L19.2506499,9.39869971 L19.2506499,6.2976377 L16.5650933,4.74721547 L13.8377685,6.32178487 C13.7557552,6.51822535 13.5619252,6.65658209 13.3356814,6.65658209 C13.0352559,6.65658209 12.7918263,6.41315253 12.7918263,6.11272695 L12.7918263,5.98372451 C12.7918263,5.78945946 12.8953763,5.60998726 13.0637539,5.51274596 L16.2931657,3.648193 C16.461411,3.55095281 16.6687755,3.55095281 16.8370208,3.648193 L20.0664326,5.51274596 C20.2347109,5.60988072 20.3383602,5.78942391 20.3383602,5.98372451 L20.3383602,9.71261289 C20.3383602,9.90687795 20.2348102,10.0863501 20.0664326,10.1835914 L16.8370208,12.0481444 C16.7543414,12.095872 16.6605596,12.121021 16.5650933,12.121021 L16.5650933,12.121021 Z M5.77326696,12.121021 C5.67928879,12.121021 5.58552816,12.0966563 5.50133939,12.0481444 L2.27192757,10.1835914 C2.10371827,10.0863878 2.00008114,9.90688825 2,9.71261289 L2,5.98372451 C2,5.78945946 2.10376756,5.60998726 2.27192757,5.51274596 L5.50133939,3.648193 C5.66958467,3.55095281 5.87694924,3.55095281 6.04519453,3.648193 L9.27460635,5.51274596 C9.44288458,5.60988072 9.54653392,5.78942391 9.54653392,5.98372451 L9.54653392,6.16493705 C9.54653392,6.46536263 9.30310435,6.70879219 9.00267878,6.70879219 C8.75207033,6.70879219 8.54127208,6.53932693 8.47818488,6.30894989 L5.7734845,4.74743301 L3.08792782,6.29785524 L3.08792782,9.39891725 L5.7734845,10.9493395 L7.71613506,9.82769264 C7.97631536,9.67758862 8.30893716,9.76656332 8.45904118,10.0267436 C8.6091452,10.2869239 8.5201705,10.6195457 8.2599902,10.7696497 L6.04541207,12.0481444 C5.96264354,12.095848 5.86879842,12.121021 5.77326696,12.121021 Z M7.98784509,4.36064324 C7.68741951,4.36064324 7.44398995,4.11721368 7.44398995,3.8167881 L7.44398995,3.40846166 C7.44398995,3.2141966 7.54775751,3.03472441 7.71591752,2.93748311 L10.9453293,1.07293015 C11.1135746,0.975689951 11.3209392,0.975689951 11.4891845,1.07293015 L14.7185963,2.93748311 C14.8868745,3.03461786 14.9905239,3.21416106 14.9905239,3.40846166 L14.9905239,3.79981982 C14.9905239,4.1002454 14.7470943,4.34367496 14.4466687,4.34367496 C14.1462431,4.34367496 13.9028136,4.1002454 13.9028136,3.79981982 L13.9028136,3.72259239 L11.2172569,2.17217016 L8.53170023,3.72259239 L8.53170023,3.81700564 C8.53170023,4.11721368 8.28827066,4.36064324 7.98784509,4.36064324 Z" id="形状" fill="#FFFFFF" fill-rule="nonzero"></path>
                    <path d="M11.2577197,14.860093 C11.1637416,14.860093 11.0699809,14.8357283 10.9857922,14.7872164 L7.75899084,12.9241863 C7.59078155,12.8269826 7.48714442,12.6474831 7.48706327,12.4532077 L7.48706327,8.72736492 C7.48706327,8.53309987 7.59083083,8.35362767 7.75899084,8.25638637 L8.48993215,7.83435478 C8.75011245,7.68425077 9.08273425,7.77322547 9.23283827,8.03340576 C9.38294229,8.29358606 9.29396759,8.62620787 9.03378729,8.77631189 L8.57477355,9.04127811 L8.57477355,12.1392945 L11.2577197,13.688194 L13.9406659,12.1392945 L13.9406659,9.04127811 L13.4411893,8.75281734 C13.181009,8.60271332 13.0920343,8.27009152 13.2421384,8.00991122 C13.3922424,7.74973092 13.7248642,7.66075622 13.9850445,7.81086024 L14.7564486,8.25616883 C14.9247268,8.35330358 15.0283762,8.53284678 15.0283762,8.72714738 L15.0283762,12.4532077 C15.0283762,12.6474728 14.9248262,12.826945 14.7564486,12.9241863 L11.5296473,14.7872164 C11.4469679,14.834944 11.353186,14.860093 11.2577197,14.860093 L11.2577197,14.860093 Z" id="路径" fill="#F48D1F" fill-rule="nonzero"></path>
                    <path d="M11.2213902,10.126378 C11.1352435,10.126378 11.0490969,10.1059289 10.9705642,10.065031 L6.61841784,7.80215856 C6.43986985,7.70940645 6.32714407,7.52563078 6.32536645,7.3244362 C6.32357293,7.12326276 6.43304482,6.93754554 6.6099337,6.84171038 L10.9468521,4.48986322 C11.1082838,4.40227657 11.3030236,4.40211292 11.4646022,4.48942813 L15.816531,6.8412753 C15.993561,6.93694288 16.1032764,7.12256352 16.1017448,7.32378358 C16.1002059,7.52500998 15.9879542,7.70883302 15.8095697,7.80194102 L11.4728688,10.0648135 C11.3952323,10.1053104 11.308954,10.126378 11.2213902,10.126378 L11.2213902,10.126378 Z M8.02874299,7.30964334 L11.2207376,8.96927169 L14.3985919,7.31116614 L11.2065973,5.58627518 L8.02874299,7.30964334 Z" id="形状" fill="#F48D1F" fill-rule="nonzero"></path>
                </g>
            </g>
        </g>
    </g>
</svg>