<?xml version="1.0" encoding="UTF-8"?>
<svg width="36px" height="36px" viewBox="0 0 36 36" version="1.1" xmlns="http://www.w3.org/2000/svg" xmlns:xlink="http://www.w3.org/1999/xlink">
    <title>图标-IT设备</title>
    <defs>
        <linearGradient x1="50%" y1="98.1889205%" x2="50%" y2="0%" id="linearGradient-1">
            <stop stop-color="#4475FF" offset="0%"></stop>
            <stop stop-color="#78CDFF" offset="100%"></stop>
        </linearGradient>
        <path d="M4.937,23.4276923 L18,30.4615385 L30.667,23.6406923 L36,26.3076923 L18,36 L0,26.3076923 L4.937,23.4276923 Z M4.937,15.12 L18,22.1538462 L30.667,15.333 L36,18 L18,27.6923077 L0,18 L4.937,15.12 Z M16.6153846,0 L36,9.69230769 L18,19.3846154 L0,9.69230769 L16.6153846,0 Z" id="path-2"></path>
        <filter x="-25.0%" y="-25.0%" width="150.0%" height="150.0%" filterUnits="objectBoundingBox" id="filter-3">
            <feOffset dx="0" dy="0" in="SourceAlpha" result="shadowOffsetOuter1"></feOffset>
            <feGaussianBlur stdDeviation="3" in="shadowOffsetOuter1" result="shadowBlurOuter1"></feGaussianBlur>
            <feColorMatrix values="0 0 0 0 0.0274509804   0 0 0 0 0.921568627   0 0 0 0 0.992156863  0 0 0 0.473967439 0" type="matrix" in="shadowBlurOuter1"></feColorMatrix>
        </filter>
    </defs>
    <g id="0426-定稿" stroke="none" stroke-width="1" fill="none" fill-rule="evenodd">
        <g id="基础方案" transform="translate(-73.000000, -897.000000)">
            <g id="列表组件" transform="translate(36.000000, 660.000000)">
                <g id="list-row" transform="translate(24.000000, 228.000000)">
                    <g id="编组-18" transform="translate(4.000000, 0.000000)">
                        <g id="图标-IT设备" transform="translate(9.000000, 9.000000)">
                            <rect id="矩形" fill-opacity="0" fill="#D8D8D8" x="0" y="0" width="36" height="36"></rect>
                            <g id="形状结合">
                                <use fill="black" fill-opacity="1" filter="url(#filter-3)" xlink:href="#path-2"></use>
                                <use fill="url(#linearGradient-1)" fill-rule="evenodd" xlink:href="#path-2"></use>
                            </g>
                        </g>
                    </g>
                </g>
            </g>
        </g>
    </g>
</svg>