<?xml version="1.0" encoding="UTF-8"?>
<svg width="26px" height="26px" viewBox="0 0 26 26" version="1.1" xmlns="http://www.w3.org/2000/svg" xmlns:xlink="http://www.w3.org/1999/xlink">
    <title>图标-资产变化趋势</title>
    <g id="0426-定稿" stroke="none" stroke-width="1" fill="none" fill-rule="evenodd">
        <g id="基础方案" transform="translate(-545.000000, -311.000000)">
            <g id="柱状图组件" transform="translate(536.000000, 306.000000)">
                <g id="图标-资产变化趋势" transform="translate(9.000000, 5.000000)">
                    <rect id="矩形" fill-opacity="0" fill="#D8D8D8" x="0" y="0" width="26" height="26"></rect>
                    <path d="M2.12422121,19.9279286 L6.20944542,19.9279286 L6.20944542,25.1521422 L2.12422121,25.1521422 L2.12422121,19.9279286 Z M8.35266517,14.5726483 L12.53942,14.5726483 L12.53942,25.1502962 L8.35266517,25.1502962 L8.35266517,14.5726483 Z M14.5829552,16.6106454 L18.7346358,16.6106454 L18.7346358,25.1502962 L14.5829552,25.1502962 L14.5829552,16.6106454 L14.5829552,16.6106454 Z M20.8113991,11.4270441 L25,11.4270441 L25,25.1502962 L20.8113991,25.1502962 L20.8113991,11.4270441 Z" id="形状结合" fill-opacity="0.293706294" fill="#FFFFFF" fill-rule="nonzero"></path>
                    <polygon id="路径" fill="#8BFFFF" fill-rule="nonzero" points="1 14.7443274 10.7026383 5.69148527 16.27021 11.2442889 21.5258057 5.03430505 19.6207215 3 25 3 25 8.2832859 23.1189139 6.31543728 16.27021 14.7314053 10.6435659 8.8592416 2.35128067 16.6955619"></polygon>
                </g>
            </g>
        </g>
    </g>
</svg>