<?xml version="1.0" encoding="UTF-8"?>
<svg width="36px" height="36px" viewBox="0 0 36 36" version="1.1" xmlns="http://www.w3.org/2000/svg" xmlns:xlink="http://www.w3.org/1999/xlink">
    <title>图标-其他资产</title>
    <defs>
        <linearGradient x1="50%" y1="98.1889205%" x2="50%" y2="0%" id="linearGradient-1">
            <stop stop-color="#4475FF" offset="0%"></stop>
            <stop stop-color="#78CDFF" offset="100%"></stop>
        </linearGradient>
        <path d="M12,7 L33,7 L33,11 L12,11 L12,7 Z M12,16 L33,16 L33,20 L12,20 L12,16 Z M12,25 L33,25 L33,29 L12,29 L12,25 Z M3,7 L8,7 L8,11 L3,11 L3,7 Z M3,16 L8,16 L8,20 L3,20 L3,16 Z M3,25 L8,25 L8,29 L3,29 L3,25 Z" id="path-2"></path>
        <filter x="-30.0%" y="-40.9%" width="160.0%" height="181.8%" filterUnits="objectBoundingBox" id="filter-3">
            <feOffset dx="0" dy="0" in="SourceAlpha" result="shadowOffsetOuter1"></feOffset>
            <feGaussianBlur stdDeviation="3" in="shadowOffsetOuter1" result="shadowBlurOuter1"></feGaussianBlur>
            <feColorMatrix values="0 0 0 0 0.0274509804   0 0 0 0 0.921568627   0 0 0 0 0.992156863  0 0 0 0.473967439 0" type="matrix" in="shadowBlurOuter1"></feColorMatrix>
        </filter>
    </defs>
    <g id="0426-定稿" stroke="none" stroke-width="1" fill="none" fill-rule="evenodd">
        <g id="基础方案" transform="translate(-74.000000, -974.000000)">
            <g id="列表组件" transform="translate(36.000000, 660.000000)">
                <g id="list-row备份" transform="translate(25.000000, 305.000000)">
                    <g id="编组-18" transform="translate(4.000000, 0.000000)">
                        <g id="图标-IT设备" transform="translate(9.000000, 9.000000)">
                            <rect id="矩形" fill-opacity="0" fill="#D8D8D8" x="0" y="0" width="36" height="36"></rect>
                            <g id="形状结合">
                                <use fill="black" fill-opacity="1" filter="url(#filter-3)" xlink:href="#path-2"></use>
                                <use fill="url(#linearGradient-1)" fill-rule="evenodd" xlink:href="#path-2"></use>
                            </g>
                        </g>
                    </g>
                </g>
            </g>
        </g>
    </g>
</svg>