<?xml version="1.0" encoding="UTF-8"?>
<svg width="22px" height="22px" viewBox="0 0 22 22" version="1.1" xmlns="http://www.w3.org/2000/svg" xmlns:xlink="http://www.w3.org/1999/xlink">
    <title>图标-PC虚拟机</title>
    <g id="0426-定稿" stroke="none" stroke-width="1" fill="none" fill-rule="evenodd">
        <g id="基础方案" transform="translate(-678.000000, -133.000000)">
            <g id="指标卡组件" transform="translate(36.000000, 91.000000)">
                <g id="指标卡-高亮" transform="translate(624.000000, 29.000000)">
                    <g id="图标-PC虚拟机" transform="translate(18.000000, 13.000000)">
                        <rect id="矩形" fill-opacity="0" fill="#D8D8D8" x="0" y="0" width="22" height="22"></rect>
                        <path d="M18.8947368,4.15789474 C20.0022883,4.15789474 20.9172222,5.02467417 20.994688,6.11338262 L21,6.26315789 L21,14.6842105 C21,15.791762 20.1332206,16.7066959 19.0445121,16.7841617 L18.8947368,16.7894737 L14.6842105,16.7894737 L15.2105263,19.4210526 L17.0526316,19.4210526 C17.4736842,19.4210526 17.8421053,19.7894737 17.8421053,20.2105263 C17.8421053,20.5964912 17.5325292,20.938231 17.1566155,20.9925073 L17.0526316,21 L8.10526316,21 C7.68421052,21 7.31578948,20.631579 7.31578948,20.2105263 C7.31578948,19.8245614 7.6253655,19.4828216 8.00127924,19.4285453 L8.10526316,19.4210526 L9.94736841,19.4210526 L10.4736842,16.7894737 L6.26315789,16.7894737 C5.15560641,16.7894737 4.24067257,15.9226942 4.16320678,14.8339858 L4.15789474,14.6842105 L4.15789474,6.26315789 C4.15789474,5.15560641 5.02467417,4.24067257 6.11338262,4.16320678 L6.26315789,4.15789474 L18.8947368,4.15789474 Z M18.8947368,5.15789474 L6.26315789,5.15789474 C5.69792191,5.15789474 5.22498608,5.59314817 5.16444013,6.1435653 L5.15789474,6.26315789 L5.15789474,14.6842105 C5.15789474,15.2494465 5.59314817,15.7223823 6.1435653,15.7829283 L6.26315789,15.7894737 L11.6934881,15.7894737 L10.851,20 L14.306,20 L13.4644066,15.7894737 L18.8947368,15.7894737 C19.4599728,15.7894737 19.9329087,15.3542203 19.9934546,14.8038031 L20,14.6842105 L20,6.26315789 C20,5.69792191 19.5647466,5.22498608 19.0143294,5.16444013 L18.8947368,5.15789474 Z M2.57894737,11.5263158 L2.57894737,12.5789474 C2.57894737,13.5789474 1,13.631579 1,12.5789474 L1,12.5789474 L1,11.5263158 L2.57894737,11.5263158 Z M2.57894737,8.36842104 L2.57894737,9.94736841 L1,9.94736841 L1,8.36842104 L2.57894737,8.36842104 Z M2.57894737,5.2105263 L2.57894737,6.78947367 L1,6.78947367 L1,5.2105263 L2.57894737,5.2105263 Z M4.15789474,1 L4.15789474,2.57894737 L3.10526315,2.57894737 C2.78947368,2.57894737 2.57894737,2.78947368 2.57894737,3.10526315 L2.57894737,3.10526315 L2.57894737,3.63157893 L1,3.63157893 L1,3.10526315 C1,1.94736842 1.94736842,1 3.10526315,1 L3.10526315,1 L4.15789474,1 Z M16.3157895,1 L16.4307436,1.00737684 C17.3100632,1.12378947 17.2231579,2.57894737 16.2631579,2.57894737 L16.2631579,2.57894737 L15.2105263,2.57894737 L15.2105263,1 L16.3157895,1 L16.3157895,1 Z M10.4736842,1 L10.4736842,2.57894737 L8.89473685,2.57894737 L8.89473685,1 L10.4736842,1 Z M13.631579,1 L13.631579,2.57894737 L12.0526316,2.57894737 L12.0526316,1 L13.631579,1 Z M7.31578948,1 L7.31578948,2.57894737 L5.73684211,2.57894737 L5.73684211,1 L7.31578948,1 Z" id="形状结合" fill="#FFFFFF" fill-rule="nonzero"></path>
                        <path d="M12.5789474,6.7368421 C13.7368421,6.7368421 14.6842105,7.47368422 15,8.47368421 C16.2631579,8.63157895 17.2631579,9.7368421 17.2631579,11.0526316 C17.2631579,12.4736842 16.1052632,13.631579 14.6842105,13.631579 L10,13.631579 C8.78947368,13.631579 7.84210526,12.6842105 7.84210526,11.4736842 C7.84210526,10.2631579 8.78947368,9.31578946 10,9.31578946 C10,7.89473683 11.1578947,6.7368421 12.5789474,6.7368421 Z M12.5789474,7.7368421 C11.7584444,7.7368421 11.0793983,8.37030466 11.0064812,9.17255781 L11,9.31578946 L11,10.3157895 L10,10.3157895 C9.34175843,10.3157895 8.84210526,10.8154426 8.84210526,11.4736842 C8.84210526,12.088043 9.27735869,12.5642537 9.87056726,12.625018 L10,12.631579 L14.6842105,12.631579 C15.5529784,12.631579 16.2631579,11.9213995 16.2631579,11.0526316 C16.2631579,10.3007494 15.7211039,9.64452459 15.0109898,9.48913046 L14.8759653,9.46596209 L14.2395526,9.3864105 L14.0464173,8.77481558 C13.8534351,8.16370515 13.2721748,7.7368421 12.5789474,7.7368421 Z" id="路径" fill="#F48D1F" fill-rule="nonzero"></path>
                    </g>
                </g>
            </g>
        </g>
    </g>
</svg>