<?xml version="1.0" encoding="UTF-8"?>
<svg width="16px" height="16px" viewBox="0 0 16 16" version="1.1" xmlns="http://www.w3.org/2000/svg" xmlns:xlink="http://www.w3.org/1999/xlink">
    <title>EasyITSC</title>
    <g id="页面-1" stroke="none" stroke-width="1" fill="none" fill-rule="evenodd">
        <g id="菜单收起布局示例备份-20" transform="translate(-591.000000, -345.000000)">
            <g id="EasyITSC" transform="translate(591.000000, 345.000000)">
                <rect id="矩形" x="0" y="0" width="16" height="16"></rect>
                <g id="编组-2" transform="translate(1.000088, 1.222156)" fill="#0071EB">
                    <path d="M9.26529656,7.00619829 C9.26529656,8.38705299 8.14601451,9.50633504 6.76515981,9.50633504 C5.38454443,9.50633504 4.26502306,8.38705299 4.26502306,7.00619829 C4.26502306,5.62534359 5.38454443,4.50606154 6.76515981,4.50606154 C8.14601451,4.50606154 9.26529656,5.62534359 9.26529656,7.00619829" id="Fill-1"></path>
                    <path d="M6.76520768,13.771453 C3.4217205,13.7712137 0.577925624,11.3835556 0.00284870112,8.09439316 C-0.0139034356,7.9991453 0.044729043,7.90102564 0.139258958,7.86584615 C0.441515368,7.75384615 0.740660667,7.69712821 1.02807947,7.69712821 C1.24466067,7.69712821 1.44784015,7.72991453 1.63187434,7.79476923 C1.74291708,7.83401709 1.82859229,7.93811966 1.86042135,8.07309402 C2.40247263,10.355453 4.4194299,11.9495385 6.76520768,11.9495385 C6.84561793,11.9495385 6.92650682,11.9473846 7.00787434,11.9435556 C9.52500255,11.8253333 11.5819256,9.84523077 11.7925239,7.33767521 C11.9231906,5.78140171 11.3423701,4.27849573 10.1991564,3.21401709 C9.67864357,2.72940171 8.93987434,2.33213675 8.11949827,2.09569231 C7.67532733,1.96789744 7.21895127,1.90280342 6.76329315,1.90280342 C6.04151537,1.90280342 5.34678033,2.0617094 4.69847263,2.37449573 C4.53860938,2.45131624 4.35098545,2.54105983 4.27440426,2.71671795 C4.22558374,2.82847863 4.25789144,2.96393162 4.3088658,3.04218803 C4.37348118,3.14150427 4.4665752,3.22622222 4.54866067,3.30112821 C4.58384015,3.33319658 4.61854101,3.36454701 4.6494128,3.39613675 C4.79659229,3.54690598 4.82148118,3.66967521 4.73843844,3.83384615 C4.68531024,3.93890598 4.59149827,4.03223932 4.46035297,4.11121368 C4.4077034,4.14280342 4.35218203,4.16888889 4.2971393,4.19545299 C4.24448973,4.22034188 4.1925581,4.2457094 4.14278033,4.27347009 C3.92954956,4.39384615 3.7091393,4.51805128 3.48083161,4.6082735 C3.12951537,4.74779487 2.77939571,4.90454701 2.44052391,5.0562735 C2.14927605,5.18646154 1.85778887,5.31688889 1.56247263,5.43822222 L1.43539571,5.49230769 C1.22336152,5.58324786 0.959635026,5.69668376 0.742096564,5.69668376 C0.664797419,5.69668376 0.600421351,5.6825641 0.544899983,5.65384615 C0.366848701,5.56075214 0.268968359,5.30516239 0.280694855,5.12136752 C0.314199128,4.59319658 0.755976906,2.59538462 0.895258958,2.14618803 C0.917515368,2.07439316 0.939053829,1.99063248 0.961788872,1.90088889 C1.05895127,1.5208547 1.17956665,1.04796581 1.50384015,0.998188034 C1.5237034,0.995316239 1.54356665,0.993880342 1.5634299,0.993880342 C1.68069485,0.993880342 1.81207947,1.04413675 1.96476323,1.14776068 C2.06144699,1.21309402 2.14784015,1.29182906 2.22681451,1.36673504 C2.29813075,1.43446154 2.4094128,1.52420513 2.5522846,1.52420513 C2.60565212,1.52420513 2.65806238,1.51152137 2.70807947,1.48663248 C2.80667776,1.43757265 2.88254101,1.36505983 2.94931024,1.30044444 C2.97874614,1.27196581 3.00818203,1.2437265 3.03905383,1.21835897 C3.17139571,1.11090598 3.29105383,1.0154188 3.41765212,0.935487179 C4.33710511,0.353470085 5.4937205,0.0215384615 6.6742675,0.000717948709 L6.7788487,-8.91553498e-12 C7.98524186,-8.91553498e-12 9.21101964,0.359692308 10.3236008,1.04006838 C10.8465068,1.35979487 11.3249,1.7477265 11.7453786,2.19357265 C13.1046949,3.63521368 13.7817205,5.58611966 13.6034299,7.54659829 C13.2971051,10.9099487 10.5188829,13.5816752 7.14021622,13.7614017 C7.0145752,13.7681026 6.88989144,13.771453 6.76568631,13.771453 L6.76520768,13.771453 Z" id="Fill-3"></path>
                </g>
            </g>
        </g>
    </g>
</svg>