<?xml version="1.0" encoding="UTF-8"?>
<svg width="16px" height="16px" viewBox="0 0 16 16" version="1.1" xmlns="http://www.w3.org/2000/svg" xmlns:xlink="http://www.w3.org/1999/xlink">
    <title>EasyAutoOps</title>
    <g id="页面-1" stroke="none" stroke-width="1" fill="none" fill-rule="evenodd">
        <g id="菜单收起布局示例备份-20" transform="translate(-581.000000, -185.000000)">
            <g id="EasyAutoOps" transform="translate(581.000000, 185.000000)">
                <rect id="矩形备份-4" x="0" y="0" width="16" height="16"></rect>
                <g id="编组-3" transform="translate(1.200000, 1.200000)" fill="#0071EB">
                    <path d="M6.64598611,0.589873453 C7.34340365,1.36244889 7.87952997,2.25098222 8.24100365,3.20250503 C8.36626681,3.53248398 7.999544,3.82595766 7.70416155,3.63269451 C6.02897558,2.538491 3.7432212,2.23428047 1.31812646,2.92549451 C1.25275102,2.94410503 1.19811243,2.87061731 1.23724225,2.81502433 C2.22288436,1.41541731 3.66687032,0.493957663 5.24423172,0.135585734 C5.75864576,0.0189120493 6.29262471,0.198336611 6.64598611,0.589873453" id="Fill-1"></path>
                    <path d="M1.3969826,3.71773029 C2.41483523,3.4998917 3.45225278,3.47984959 4.4572212,3.642811 C4.80557207,3.69911977 4.87619664,4.16342854 4.56124927,4.322811 C2.77607032,5.22637591 1.369544,7.05378644 0.755635233,9.49963907 C0.739172075,9.5654917 0.648266812,9.57598994 0.619635233,9.51443205 C-0.099494592,7.96093029 -0.175606873,6.24971626 0.302779092,4.70456538 C0.458821198,4.20064959 0.881375583,3.82796187 1.3969826,3.71773029" id="Fill-3"></path>
                    <path d="M1.48132646,9.82744679 C1.80176155,8.83703275 2.30305278,7.92869591 2.94630892,7.13965731 C3.16939664,6.86622573 3.6069826,7.03729942 3.58741769,7.38970644 C3.47742471,9.38747486 4.35665278,11.5190959 6.16783874,13.2737345 C6.21651243,13.3209766 6.18024576,13.4049626 6.11272295,13.3989977 C4.40771243,13.2451029 2.88785278,12.4553485 1.78887734,11.268331 C1.43050541,10.8813275 1.31908085,10.3292152 1.48132646,9.82744679" id="Fill-5"></path>
                    <path d="M6.81467383,12.809211 C6.11725629,12.0366356 5.58112997,11.1483408 5.21941769,10.1965794 C5.09439313,9.86660047 5.46111593,9.57312679 5.75649839,9.76638994 C7.43168436,10.8605935 9.71743874,11.164804 12.1425335,10.4738285 C12.2079089,10.455218 12.2625475,10.5284671 12.2231791,10.5840601 C11.2377756,11.9839057 9.79378962,12.9051268 8.21618962,13.2634987 C7.70201418,13.380411 7.16803523,13.2007478 6.81467383,12.809211" id="Fill-7"></path>
                    <path d="M12.063558,9.68135415 C11.0457054,9.89919275 10.0082879,9.91923486 9.00355804,9.75627345 C8.65496857,9.69996468 8.584344,9.23565591 8.89929137,9.07627345 C10.6844703,8.17270854 12.0909966,6.34529801 12.7049054,3.89968398 C12.7213686,3.83359275 12.8122738,3.82309451 12.8409054,3.8846524 C13.5602738,5.43815415 13.6361475,7.14936819 13.1577615,8.69451907 C13.0017194,9.19843486 12.5791651,9.57112258 12.063558,9.68135415" id="Fill-9"></path>
                    <path d="M11.9792142,3.57163766 C11.6587791,4.5620517 11.1574879,5.47062714 10.5142317,6.25942714 C10.291144,6.53285872 9.85355804,6.36178503 9.87312295,6.00937801 C9.98311593,4.01160959 9.10388786,1.87998854 7.2927019,0.125349944 C7.24402822,0.0781078388 7.28029488,-0.00587812611 7.34781769,0.000325382667 C9.05282822,0.153981523 10.5726879,0.943735909 11.6716633,2.13075345 C12.0300352,2.51775696 12.1414598,3.06986924 11.9792142,3.57163766" id="Fill-11"></path>
                    <path d="M8.36881979,6.69958994 C8.36881979,7.60434784 7.63513558,8.33803205 6.73037769,8.33803205 C5.8253812,8.33803205 5.09193558,7.60434784 5.09193558,6.69958994 C5.09193558,5.79459345 5.8253812,5.06114784 6.73037769,5.06114784 C7.63513558,5.06114784 8.36881979,5.79459345 8.36881979,6.69958994" id="Fill-13"></path>
                </g>
            </g>
        </g>
    </g>
</svg>