<?xml version="1.0" encoding="UTF-8"?>
<svg width="16px" height="16px" viewBox="0 0 16 16" version="1.1" xmlns="http://www.w3.org/2000/svg" xmlns:xlink="http://www.w3.org/1999/xlink">
    <title>EasyTracing</title>
    <g id="页面-1" stroke="none" stroke-width="1" fill="none" fill-rule="evenodd">
        <g id="菜单收起布局示例备份-20" transform="translate(-502.000000, -284.000000)">
            <g id="EasyTracing" transform="translate(502.000000, 284.000000)">
                <rect id="矩形备份-3" x="0" y="0" width="16" height="16"></rect>
                <g id="编组" transform="translate(1.000000, 1.500000)" fill="#0071EB">
                    <path d="M3.22121333,3.88224667 C3.34698,3.88224667 3.46341333,3.84631333 3.56561333,3.78798 L5.98738,3.78798 C6.08958,3.84631333 6.20601333,3.88224667 6.33178,3.88224667 C6.71724667,3.88224667 7.03108,3.56841333 7.03108,3.18294667 C7.03108,2.79724667 6.71724667,2.48341333 6.33178,2.48341333 C6.14814667,2.48341333 5.98201333,2.55621333 5.85718,2.67241333 L3.69581333,2.67241333 C3.57098,2.55621333 3.40484667,2.48341333 3.22121333,2.48341333 C2.83551333,2.48341333 2.52191333,2.79724667 2.52191333,3.18294667 C2.52191333,3.56841333 2.83551333,3.88224667 3.22121333,3.88224667" id="Fill-1"></path>
                    <path d="M3.22121333,10.22987 C3.38314667,10.22987 3.53038,10.1722367 3.64914667,10.0796033 L5.90384667,10.0796033 C6.02261333,10.1722367 6.16984667,10.22987 6.33178,10.22987 C6.71724667,10.22987 7.03108,9.91627 7.03108,9.53057 C7.03108,9.14510333 6.71724667,8.83127 6.33178,8.83127 C6.17964667,8.83127 6.03988,8.88143667 5.92484667,8.96403667 L3.62791333,8.96403667 C3.51311333,8.88143667 3.37334667,8.83127 3.22121333,8.83127 C2.83551333,8.83127 2.52191333,9.14510333 2.52191333,9.53057 C2.52191333,9.91627 2.83551333,10.22987 3.22121333,10.22987" id="Fill-3"></path>
                    <path d="M13.12899,6.71540333 C12.9663567,6.71540333 12.8184233,6.77350333 12.6994233,6.86683667 L3.65075667,6.86683667 C3.53175667,6.77350333 3.38382333,6.71540333 3.22119,6.71540333 C2.83549,6.71540333 2.52189,7.02900333 2.52189,7.41470333 C2.52189,7.80040333 2.83549,8.11400333 3.22119,8.11400333 C3.37262333,8.11400333 3.51192333,8.06453667 3.62649,7.98240333 L12.72369,7.98240333 C12.8382567,8.06453667 12.9775567,8.11400333 13.12899,8.11400333 C13.5142233,8.11400333 13.8280567,7.80040333 13.8280567,7.41470333 C13.8280567,7.02900333 13.5142233,6.71540333 13.12899,6.71540333" id="Fill-5"></path>
                    <path d="M12.6769067,4.76966 L3.67327333,4.76966 C3.55100667,4.66512667 3.39444,4.59956 3.22130667,4.59956 C2.83537333,4.59956 2.52200667,4.91316 2.52200667,5.29886 C2.52200667,5.68456 2.83537333,5.99816 3.22130667,5.99816 C3.36084,5.99816 3.49057333,5.95592667 3.60000667,5.88522667 L12.7501733,5.88522667 C12.8593733,5.95592667 12.9891067,5.99816 13.1288733,5.99816 C13.51434,5.99816 13.8281733,5.68456 13.8281733,5.29886 C13.8281733,4.91316 13.51434,4.59956 13.1288733,4.59956 C12.95574,4.59956 12.7991733,4.66512667 12.6769067,4.76966" id="Fill-7"></path>
                    <path d="M12.1514633,9.66385 C12.1514633,10.5796833 11.7750967,11.0297833 11.0027633,11.0398167 L2.60929667,11.0398167 C1.97603,11.0398167 1.46083,10.5243833 1.46083,9.89065 L1.46083,2.80151667 C1.46083,2.16801667 1.97603,1.65281667 2.60929667,1.65281667 L10.9994967,1.65281667 C12.0683967,1.68081667 12.1514633,2.74551667 12.1514633,3.07101667 L12.1514633,3.20401667 L13.61213,3.20401667 L13.61213,2.14141667 C13.61213,1.08931667 12.75603,0.233216667 11.70393,0.233216667 L1.90836333,0.233216667 C0.856263333,0.233216667 -7e-05,1.08931667 -7e-05,2.14141667 L-7e-05,10.5873833 C-7e-05,11.6397167 0.856263333,12.4955833 1.90836333,12.4955833 L11.70393,12.4955833 C12.75603,12.4955833 13.61213,11.6397167 13.61213,10.5873833 L13.61213,9.53085 L12.1514633,9.53085 L12.1514633,9.66385 Z" id="Fill-9"></path>
                </g>
            </g>
        </g>
    </g>
</svg>