<?xml version="1.0" encoding="UTF-8"?>
<svg width="16px" height="16px" viewBox="0 0 16 16" version="1.1" xmlns="http://www.w3.org/2000/svg" xmlns:xlink="http://www.w3.org/1999/xlink">
    <title>EasyWorkSpace</title>
    <g id="页面-1" stroke="none" stroke-width="1" fill="none" fill-rule="evenodd">
        <g id="菜单收起布局示例备份-20" transform="translate(-597.000000, -269.000000)">
            <g id="EasyWorkSpace" transform="translate(597.000000, 269.000000)">
                <rect id="矩形备份-6" x="0" y="0" width="16" height="16"></rect>
                <path d="M5.18716683,13.1359571 C4.65052046,13.1359571 4.21544891,12.7008855 4.21544891,12.1642392 C4.21544891,11.6275928 4.65052046,11.1925212 5.18716683,11.1925212 C5.7238132,11.1925212 6.15888474,11.6275928 6.15888474,12.1642392 C6.15888474,12.7008855 5.7238132,13.1359571 5.18716683,13.1359571 M5.124173,2.55866151 C5.62027663,2.55866151 6.02265242,2.96081933 6.02265242,3.45692296 C6.02265242,3.95302659 5.62027663,4.35518441 5.124173,4.35518441 C4.62806937,4.35518441 4.22591155,3.95302659 4.22591155,3.45692296 C4.22591155,2.96081933 4.62806937,2.55866151 5.124173,2.55866151 M2.52246258,8.70873352 C2.02069169,8.70873352 1.61373849,8.3019983 1.61373849,7.8002274 C1.61373849,7.29823854 2.02069169,6.89128534 2.52246258,6.89128534 C3.02445144,6.89128534 3.43118667,7.29823854 3.43118667,7.8002274 C3.43118667,8.3019983 3.02445144,8.70873352 2.52246258,8.70873352 M13.5119427,10.8019159 L6.58196785,10.8019159 C6.43156736,10.8019159 6.28094891,10.7637709 6.15779488,10.677672 C6.15016587,10.6722228 6.14275484,10.6667735 6.1353438,10.6615421 C5.53134417,10.2186236 5.86767453,9.25431673 6.61662535,9.25431673 L10.9311575,9.25431673 C11.6764028,9.25431673 12.3418705,8.70960541 12.4124933,7.96784765 C12.4937968,7.11688607 11.8268033,6.40084898 10.9926256,6.40084898 L6.59526412,6.40084898 C5.88750995,6.40084898 5.5256769,5.51152437 6.06319516,5.05095013 C6.06973431,5.04550084 6.07627346,5.03983357 6.08303059,5.03438428 C6.2316873,4.91253809 6.42241255,4.85346775 6.61444563,4.85346775 L13.5119427,4.85346775 C14.257188,4.85346775 14.9226556,4.30853846 14.9932785,3.56699868 C15.0745819,2.71581912 14.4075885,2 13.5734107,2 L5.06510266,2 C4.29173901,2 3.61559074,2.59070335 3.5820231,3.36341309 C3.56654711,3.71936091 3.68185414,4.04806226 3.88391393,4.30570483 C4.46698827,5.04942433 4.1546348,6.15083542 3.23326835,6.36161407 C3.16591509,6.37709006 3.09463834,6.39038633 3.01965607,6.40084898 L2.48802305,6.40084898 C1.74299572,6.40084898 1.07752806,6.94577827 1.00668726,7.68753603 C0.925601777,8.53849761 1.59259523,9.25431673 2.426773,9.25431673 L3.01965607,9.25431673 C3.09463834,9.26499735 3.16591509,9.27807565 3.23326835,9.29355164 C4.1546348,9.50433029 4.46698827,10.6057414 3.88391393,11.3496789 C3.68185414,11.6071035 3.56676508,11.9358048 3.5820231,12.2919706 C3.61559074,13.0646803 4.29173901,13.6551657 5.06510266,13.6551657 L13.5734107,13.6551657 C14.4075885,13.6551657 15.0745819,12.9393466 14.9932785,12.088385 C14.9226556,11.3466272 14.257188,10.8019159 13.5119427,10.8019159" id="Fill-1" fill="#0071EB"></path>
            </g>
        </g>
    </g>
</svg>