<?xml version="1.0" encoding="UTF-8"?>
<svg width="16px" height="16px" viewBox="0 0 16 16" version="1.1" xmlns="http://www.w3.org/2000/svg" xmlns:xlink="http://www.w3.org/1999/xlink">
    <title>EasyMABuilder</title>
    <g id="页面-1" stroke="none" stroke-width="1" fill="none" fill-rule="evenodd">
        <g id="菜单收起布局示例备份-20" transform="translate(-549.000000, -345.000000)">
            <g id="EasyMABuilder" transform="translate(549.000000, 345.000000)">
                <rect id="矩形备份-8" x="0" y="0" width="16" height="16"></rect>
                <g id="编组" transform="translate(1.800000, 1.500000)" fill="#0071EB">
                    <path d="M6.5789,5.95525 L1.0889,5.95525 C0.48765,5.95525 0.00015,5.46775 0.00015,4.86625 L0.00015,1.089 C0.00015,0.4875 0.48765,0 1.0889,0 L4.69065,0 C4.95065,0 5.1904,0.14075 5.31715,0.36775 L7.2054,4.889 C7.47165,5.36675 7.12615,5.95525 6.5789,5.95525" id="Fill-1"></path>
                    <path d="M11.559125,5.95525 L9.271125,5.95525 C8.949875,5.95525 8.677625,5.747 8.581375,5.458 L8.364875,4.797 L6.693875,0.7795 C6.693875,0.378 7.019375,0.05275 7.420875,0.05275 L11.559125,0.05275 C11.960375,0.05275 12.285875,0.378 12.285875,0.7795 L12.285875,5.22825 C12.285875,5.62975 11.960375,5.95525 11.559125,5.95525" id="Fill-3"></path>
                    <path d="M5.707075,6.94915 L11.197075,6.94915 C11.798325,6.94915 12.285825,7.43665 12.285825,8.03815 L12.285825,11.8154 C12.285825,12.4169 11.798325,12.9044 11.197075,12.9044 L7.595325,12.9044 C7.335325,12.9044 7.095575,12.76365 6.968825,12.53665 L5.080575,8.0154 C4.814325,7.5374 5.159825,6.94915 5.707075,6.94915" id="Fill-5"></path>
                    <path d="M0.72685,6.94915 L3.01485,6.94915 C3.3361,6.94915 3.60835,7.1574 3.7046,7.4464 L3.9201,8.10765 L5.5811,12.1249 C5.5811,12.5264 5.2556,12.85165 4.8541,12.85165 L0.72685,12.85165 C0.3256,12.85165 0.0001,12.5264 0.0001,12.1249 L0.0001,7.67615 C0.0001,7.27465 0.3256,6.94915 0.72685,6.94915" id="Fill-7"></path>
                </g>
            </g>
        </g>
    </g>
</svg>