<?xml version="1.0" encoding="UTF-8"?>
<svg width="16px" height="16px" viewBox="0 0 16 16" version="1.1" xmlns="http://www.w3.org/2000/svg" xmlns:xlink="http://www.w3.org/1999/xlink">
    <title>EasyObserve</title>
    <g id="页面-1" stroke="none" stroke-width="1" fill="none" fill-rule="evenodd">
        <g id="菜单收起布局示例备份-20" transform="translate(-516.000000, -181.000000)">
            <g id="EasyObserve" transform="translate(516.000000, 181.000000)">
                <rect id="矩形备份" x="0" y="0" width="16" height="16"></rect>
                <g id="编组" transform="translate(1.000000, 1.000000)" fill="#0071EB">
                    <path d="M0.00116666667,6.24696333 L0.00116666667,6.24696333 C-0.0105,6.34099667 0.063,6.42406333 0.157733333,6.42406333 L1.4749,6.42406333 C1.9082,6.42406333 2.29413333,6.14429667 2.42176667,5.73013 C2.87443333,4.26013 4.02453333,3.11119667 5.49663333,2.65853 C5.91103333,2.53089667 6.19103333,2.14473 6.19103333,1.71143 L6.19103333,0.39123 C6.19103333,0.296496667 6.10796667,0.222996667 6.0137,0.23443 C2.86836667,0.62363 0.390133333,3.10163 0.00116666667,6.24696333" id="Fill-1"></path>
                    <path d="M5.49668,11.52452 C4.02458,11.0718533 2.87448,9.92292 2.42181333,8.45245333 C2.29418,8.03852 1.90824667,7.75875333 1.47494667,7.75875333 L0.15778,7.75875333 C0.0628133333,7.75875333 -0.0104533333,7.84158667 0.00121333333,7.93562 C0.390413333,11.0811867 2.86841333,13.55942 6.01398,13.9483867 C6.10801333,13.9600533 6.19108,13.8867867 6.19108,13.7920533 L6.19108,12.47162 C6.19108,12.0380867 5.91108,11.65192 5.49668,11.52452" id="Fill-3"></path>
                    <path d="M13.7361467,7.93601667 L13.7361467,7.93601667 C13.7478133,7.84198333 13.6745467,7.75915 13.5798133,7.75915 L12.2624133,7.75915 C11.8291133,7.75915 11.44318,8.03868333 11.3155467,8.45285 C10.86288,9.92285 9.71278,11.0717833 8.24068,11.52445 C7.82628,11.6520833 7.54628,12.03825 7.54628,12.47155 L7.54628,13.79175 C7.54628,13.8867167 7.62958,13.9602167 7.72361333,13.94855 C10.86918,13.55935 13.34718,11.08135 13.7361467,7.93601667" id="Fill-5"></path>
                    <path d="M8.24063333,2.65843667 C8.7381,2.81150333 9.19776667,3.04553667 9.60703333,3.34327 C9.67166667,3.27373667 9.7335,3.20140333 9.79066667,3.12463667 C9.8987,2.97810333 9.99226667,2.81757 10.0683333,2.64747 C10.0832667,2.59403667 10.1059,2.54807 10.1262,2.50957 C10.3145,2.11827 10.7258667,1.86113667 11.1713,1.86113667 C11.256,1.86113667 11.2858667,1.77620333 11.2602,1.75497 C10.2739,0.94437 9.05986667,0.39977 7.72333333,0.23457 C7.6293,0.222903333 7.54623333,0.29617 7.54623333,0.390903333 L7.54623333,1.71133667 C7.54623333,2.14487 7.82623333,2.53103667 8.24063333,2.65843667" id="Fill-7"></path>
                    <path d="M12.3410467,3.03076667 C12.3410467,3.49253333 12.0687467,3.9123 11.6471133,4.10083333 L11.6135133,4.11483333 C11.5724467,4.1258 11.54188,4.13606667 11.5115467,4.1482 L11.4756133,4.1608 C11.30808,4.2238 11.14708,4.30546667 10.9961133,4.40323333 C10.91678,4.45433333 10.8428133,4.51103333 10.7707133,4.56936667 C11.0019467,4.92543333 11.18768,5.3144 11.3155467,5.73043333 C11.44318,6.1446 11.8291133,6.42436667 12.2624133,6.42436667 L13.5798133,6.42436667 C13.6745467,6.42436667 13.7478133,6.3413 13.7361467,6.24726667 C13.5861133,5.03393333 13.12108,3.92326667 12.4306467,2.99063333 C12.39518,2.94256667 12.3410467,2.96823333 12.3410467,3.03076667" id="Fill-9"></path>
                    <path d="M6.90237333,9.62334333 C5.48160667,9.62334333 4.32567333,8.46741 4.32567333,7.04664333 C4.32567333,5.62587667 5.48160667,4.46994333 6.90237333,4.46994333 C6.98240667,4.46994333 7.06010667,4.47437667 7.13780667,4.48091 C7.24397333,4.50307667 7.34570667,4.51521 7.42340667,4.52384333 C7.51907333,4.53201 7.61124,4.53691 7.70597333,4.53691 C8.63534,4.53691 9.52317333,4.08984333 10.08084,3.34061 C10.2080067,3.16817667 10.3169733,2.97987667 10.4044733,2.78107667 L10.4110067,2.76614333 L10.4149733,2.75074333 C10.4205733,2.72834333 10.43364,2.70197667 10.4457733,2.67911 C10.5804067,2.39934333 10.8639067,2.22271 11.1712067,2.22271 C11.6168733,2.22271 11.9794733,2.58531 11.9794733,3.03074333 C11.9794733,3.34994333 11.79094,3.64021 11.4995067,3.77064333 C11.4715067,3.77834333 11.43534,3.79024333 11.39824,3.80447667 L11.3802733,3.81031 C11.1772733,3.88404333 10.98174,3.98134333 10.7995067,4.09941 C9.95250667,4.64564333 9.44664,5.57244333 9.44664,6.57787667 L9.44664,6.64344333 L9.44944,6.66631 C9.46694,6.76921 9.47650667,6.87677667 9.47907333,6.99601 L9.47907333,7.04664333 C9.47907333,8.46741 8.32314,9.62334333 6.90237333,9.62334333" id="Fill-13"></path>
                </g>
            </g>
        </g>
    </g>
</svg>