<?xml version="1.0" encoding="UTF-8"?>
<svg width="16px" height="16px" viewBox="0 0 16 16" version="1.1" xmlns="http://www.w3.org/2000/svg" xmlns:xlink="http://www.w3.org/1999/xlink">
    <title>EasyObserve</title>
    <defs>
        <polygon id="path-1" points="0 0.0504 6.19103333 0.0504 6.19103333 6.24103667 0 6.24103667"></polygon>
        <polygon id="path-3" points="0 0.10906 6.19108 0.10906 6.19108 6.29991665 0 6.29991665"></polygon>
        <polygon id="path-5" points="0.0796133333 0.109456667 6.27070332 0.109456667 6.27070332 6.3 0.0796133333 6.3"></polygon>
        <polygon id="path-7" points="0.0795666667 0.0504 3.80243905 0.0504 3.80243905 3.16024333 0.0795666667 3.16024333"></polygon>
    </defs>
    <g id="V6.3" stroke="none" stroke-width="1" fill="none" fill-rule="evenodd">
        <g id="Apple-TV备份-2" transform="translate(-243.000000, -182.000000)">
            <g id="EasyObserve" transform="translate(243.000000, 182.000000)">
                <rect id="矩形备份" x="0" y="0" width="16" height="16"></rect>
                <g id="编组" transform="translate(1.000000, 1.000000)">
                    <g transform="translate(0.000000, 0.183027)">
                        <mask id="mask-2" fill="white">
                            <use xlink:href="#path-1"></use>
                        </mask>
                        <g id="Clip-2"></g>
                        <path d="M0.00116666667,6.06393667 L0.00116666667,6.06393667 C-0.0105,6.15797 0.063,6.24103667 0.157733333,6.24103667 L1.4749,6.24103667 C1.9082,6.24103667 2.29413333,5.96127 2.42176667,5.54710333 C2.87443333,4.07710333 4.02453333,2.92817 5.49663333,2.47550333 C5.91103333,2.34787 6.19103333,1.96170333 6.19103333,1.52840333 L6.19103333,0.208203333 C6.19103333,0.11347 6.10796667,0.03997 6.0137,0.0514033333 C2.86836667,0.440603333 0.390133333,2.91860333 0.00116666667,6.06393667" id="Fill-1" fill="#0071EB" mask="url(#mask-2)"></path>
                    </g>
                    <g transform="translate(0.000000, 7.649693)">
                        <mask id="mask-4" fill="white">
                            <use xlink:href="#path-3"></use>
                        </mask>
                        <g id="Clip-4"></g>
                        <path d="M5.49668,3.87482667 C4.02458,3.42216 2.87448,2.27322667 2.42181333,0.80276 C2.29418,0.388826667 1.90824667,0.10906 1.47494667,0.10906 L0.15778,0.10906 C0.0628133333,0.10906 -0.0104533333,0.191893333 0.00121333333,0.285926667 C0.390413333,3.43149333 2.86841333,5.90972667 6.01398,6.29869333 C6.10801333,6.31036 6.19108,6.23709333 6.19108,6.14236 L6.19108,4.82192667 C6.19108,4.38839333 5.91108,4.00222667 5.49668,3.87482667" id="Fill-3" fill="#0071EB" mask="url(#mask-4)"></path>
                    </g>
                    <g transform="translate(7.466667, 7.649693)">
                        <mask id="mask-6" fill="white">
                            <use xlink:href="#path-5"></use>
                        </mask>
                        <g id="Clip-6"></g>
                        <path d="M6.26948,0.286323333 L6.26948,0.286323333 C6.28114667,0.19229 6.20788,0.109456667 6.11314667,0.109456667 L4.79574667,0.109456667 C4.36244667,0.109456667 3.97651333,0.38899 3.84888,0.803156667 C3.39621333,2.27315667 2.24611333,3.42209 0.774013333,3.87475667 C0.359613333,4.00239 0.0796133333,4.38855667 0.0796133333,4.82185667 L0.0796133333,6.14205667 C0.0796133333,6.23702333 0.162913333,6.31052333 0.256946667,6.29885667 C3.40251333,5.90965667 5.88051333,3.43165667 6.26948,0.286323333" id="Fill-5" fill="#0071EB" mask="url(#mask-6)"></path>
                    </g>
                    <g transform="translate(7.466667, 0.183027)">
                        <mask id="mask-8" fill="white">
                            <use xlink:href="#path-7"></use>
                        </mask>
                        <g id="Clip-8"></g>
                        <path d="M0.773966667,2.47541 C1.27143333,2.62847667 1.7311,2.86251 2.14036667,3.16024333 C2.205,3.09071 2.26683333,3.01837667 2.324,2.94161 C2.43203333,2.79507667 2.5256,2.63454333 2.60166667,2.46444333 C2.6166,2.41101 2.63923333,2.36504333 2.65953333,2.32654333 C2.84783333,1.93524333 3.2592,1.67811 3.70463333,1.67811 C3.78933333,1.67811 3.8192,1.59317667 3.79353333,1.57194333 C2.80723333,0.761343333 1.5932,0.216743333 0.256666667,0.0515433333 C0.162633333,0.0398766667 0.0795666667,0.113143333 0.0795666667,0.207876667 L0.0795666667,1.52831 C0.0795666667,1.96184333 0.359566667,2.34801 0.773966667,2.47541" id="Fill-7" fill="#0071EB" mask="url(#mask-8)"></path>
                    </g>
                    <path d="M12.3410467,3.03076667 C12.3410467,3.49253333 12.0687467,3.9123 11.6471133,4.10083333 L11.6135133,4.11483333 C11.5724467,4.1258 11.54188,4.13606667 11.5115467,4.1482 L11.4756133,4.1608 C11.30808,4.2238 11.14708,4.30546667 10.9961133,4.40323333 C10.91678,4.45433333 10.8428133,4.51103333 10.7707133,4.56936667 C11.0019467,4.92543333 11.18768,5.3144 11.3155467,5.73043333 C11.44318,6.1446 11.8291133,6.42436667 12.2624133,6.42436667 L13.5798133,6.42436667 C13.6745467,6.42436667 13.7478133,6.3413 13.7361467,6.24726667 C13.5861133,5.03393333 13.12108,3.92326667 12.4306467,2.99063333 C12.39518,2.94256667 12.3410467,2.96823333 12.3410467,3.03076667" id="Fill-9" fill="#0071EB"></path>
                    <path d="M6.90237333,4.45834667 C5.47507333,4.45834667 4.31400667,5.61964667 4.31400667,7.04671333 C4.31400667,8.47378 5.47507333,9.63508 6.90237333,9.63508 C8.32967333,9.63508 9.49074,8.47378 9.49074,7.04671333 L9.49074,6.99211333 C9.48840667,6.87591333 9.47860667,6.76741333 9.46087333,6.66428 L9.45830667,6.57794667 C9.45830667,5.57624667 9.96207333,4.65341333 10.80604,4.10928 C10.98734,3.99168 11.1821733,3.89484667 11.38424,3.82134667 L11.41434,3.81084667 C11.4474733,3.79871333 11.4806067,3.78821333 11.5135067,3.77934667 C11.80004,3.64914667 11.99114,3.35468 11.99114,3.03081333 C11.99114,2.57884667 11.6231733,2.21111333 11.1712067,2.21111333 C10.8594733,2.21111333 10.5720067,2.39031333 10.43854,2.66751333 C10.4229067,2.69714667 10.4093733,2.72421333 10.40354,2.74778 L10.3939733,2.77648 C10.3064733,2.97458 10.1982067,3.16171333 10.07174,3.33321333 C9.51594,4.07988 8.63184,4.52531333 7.70597333,4.52531333 C7.61170667,4.52531333 7.51977333,4.52041333 7.42784,4.51224667 C7.34430667,4.50338 7.23814,4.49078 7.12824,4.46698 C7.06827333,4.46324667 6.98660667,4.45834667 6.90237333,4.45834667" id="Fill-11" fill="#FFFFFF"></path>
                    <path d="M6.90237333,9.62334333 C5.48160667,9.62334333 4.32567333,8.46741 4.32567333,7.04664333 C4.32567333,5.62587667 5.48160667,4.46994333 6.90237333,4.46994333 C6.98240667,4.46994333 7.06010667,4.47437667 7.13780667,4.48091 C7.24397333,4.50307667 7.34570667,4.51521 7.42340667,4.52384333 C7.51907333,4.53201 7.61124,4.53691 7.70597333,4.53691 C8.63534,4.53691 9.52317333,4.08984333 10.08084,3.34061 C10.2080067,3.16817667 10.3169733,2.97987667 10.4044733,2.78107667 L10.4110067,2.76614333 L10.4149733,2.75074333 C10.4205733,2.72834333 10.43364,2.70197667 10.4457733,2.67911 C10.5804067,2.39934333 10.8639067,2.22271 11.1712067,2.22271 C11.6168733,2.22271 11.9794733,2.58531 11.9794733,3.03074333 C11.9794733,3.34994333 11.79094,3.64021 11.4995067,3.77064333 C11.4715067,3.77834333 11.43534,3.79024333 11.39824,3.80447667 L11.3802733,3.81031 C11.1772733,3.88404333 10.98174,3.98134333 10.7995067,4.09941 C9.95250667,4.64564333 9.44664,5.57244333 9.44664,6.57787667 L9.44664,6.64344333 L9.44944,6.66631 C9.46694,6.76921 9.47650667,6.87677667 9.47907333,6.99601 L9.47907333,7.04664333 C9.47907333,8.46741 8.32314,9.62334333 6.90237333,9.62334333" id="Fill-13" fill="#0071EB"></path>
                </g>
            </g>
        </g>
    </g>
</svg>