<?xml version="1.0" encoding="UTF-8"?>
<svg width="16px" height="16px" viewBox="0 0 16 16" version="1.1" xmlns="http://www.w3.org/2000/svg" xmlns:xlink="http://www.w3.org/1999/xlink">
    <title>EasyCMDB</title>
    <g id="页面-1" stroke="none" stroke-width="1" fill="none" fill-rule="evenodd">
        <g id="菜单收起布局示例备份-20" transform="translate(-552.000000, -288.000000)">
            <g id="EasyCMDB" transform="translate(552.000000, 288.000000)">
                <rect id="矩形备份-5" x="0" y="0" width="16" height="16"></rect>
                <g id="编组" transform="translate(0.500000, 1.500000)" fill="#0071EB">
                    <path d="M6.39145522,9.5296791 C5.48048507,9.5296791 4.63623134,9.12848507 4.06242537,8.42594776 L3.94264925,8.27348507 C3.92809701,8.25333582 3.89787313,8.2085597 3.89787313,8.2085597 L3.88779851,8.19221642 L3.88220149,8.18617164 C3.55197761,7.69184328 3.37802239,7.11445522 3.37802239,6.51579851 C3.37802239,5.92027612 3.55108209,5.34490299 3.87929104,4.8496791 L3.88376866,4.84542537 L3.90011194,4.81945522 C3.91824627,4.79236567 3.9375,4.76594776 3.95697761,4.73952985 L3.97802239,4.7124403 C4.42824627,4.13505224 5.05847015,3.7074403 5.77645522,3.56348507 C6.9063806,3.33691791 8.02130597,3.74796269 8.7225,4.6074403 C8.7916791,4.69005224 8.85593284,4.77691791 8.92085821,4.87564925 C9.3663806,5.48057463 10.1266791,5.83273881 10.9642164,5.83273881 C11.6029478,5.83273881 12.1118284,5.54370896 12.603694,5.26430597 L12.6652612,5.2293806 C12.8407836,5.13042537 12.9869776,5.0816194 13.1721269,5.05990299 C13.2484701,5.05072388 13.3138433,5.04602239 13.3825746,5.0435597 C13.4103358,5.04758955 13.4300373,5.04982836 13.4501866,5.0505 L13.4956343,5.0493806 L13.5247388,5.05699254 C13.5889925,5.06348507 13.6496642,5.07221642 13.7089925,5.08833582 C14.4213806,5.25758955 14.8957836,5.90169403 14.8438433,6.62147015 C14.7889925,7.38691791 14.1448881,7.98669403 13.3783209,7.98669403 C13.3429478,7.98669403 13.3071269,7.98557463 13.2710821,7.98288806 C13.2370522,7.98042537 13.181306,7.96788806 13.1170522,7.95064925 C12.866306,7.88348507 12.6269776,7.7793806 12.4026493,7.64930597 C11.9573507,7.39072388 11.4795896,7.20087313 10.9642164,7.20087313 C10.1866791,7.20087313 9.44899254,7.53893284 8.94078358,8.12818657 L8.92712687,8.14408209 L8.9163806,8.16176866 C8.86041045,8.24930597 8.79526119,8.33729104 8.72451493,8.42147015 C8.14936567,9.12669403 7.29973881,9.5296791 6.39145522,9.5296791" id="Fill-1"></path>
                    <path d="M6.28956716,12.7879701 C2.82568657,12.7879701 0.00411940299,9.96998507 8.95522388e-05,6.50565672 C0.00411940299,3.042 2.82568657,0.223791045 6.28956716,0.223791045 C8.9799403,0.223791045 11.0268806,2.18677612 12.0453134,4.02416418 C11.7430746,4.2558806 11.4103881,4.36625373 11.0548657,4.36625373 C10.9447164,4.36625373 10.8305373,4.35550746 10.7152388,4.33468657 C10.2238209,4.16968657 9.94329851,3.822 9.94061194,3.81864179 L9.87322388,3.73356716 C9.62807463,3.41834328 9.43083582,3.16714925 9.07710448,2.89535821 C8.27426866,2.27476119 7.31023881,1.94632836 6.28956716,1.94632836 C3.82307463,1.94632836 1.77635821,3.95386567 1.72710448,6.42125373 L1.72374627,6.57349254 L1.7268806,6.57349254 L1.72710448,6.59050746 C1.77635821,9.0581194 3.82307463,11.0654328 6.28956716,11.0654328 C7.31023881,11.0654328 8.27426866,10.7372239 9.07732836,10.1161791 C9.43598507,9.84035821 9.63367164,9.58625373 9.88374627,9.26476119 L9.94038806,9.19356716 C9.94307463,9.19020896 10.2282985,8.84073134 10.7356119,8.67192537 C10.8527015,8.652 10.9760597,8.63991045 11.0922537,8.63991045 C11.4341194,8.63991045 11.7394925,8.74535821 12.0533731,8.97214925 C11.0555373,11.2969254 8.79165672,12.7879701 6.28956716,12.7879701" id="Fill-3"></path>
                </g>
            </g>
        </g>
    </g>
</svg>