<?xml version="1.0" encoding="UTF-8"?>
<svg width="16px" height="16px" viewBox="0 0 16 16" version="1.1" xmlns="http://www.w3.org/2000/svg" xmlns:xlink="http://www.w3.org/1999/xlink">
    <title>EasyTracing</title>
    <defs>
        <polygon id="path-1" points="0.188556667 0.05313 11.4947 0.05313 11.4947 1.45173 0.188556667 1.45173"></polygon>
        <polygon id="path-3" points="0.188673333 0.0372866667 11.4947 0.0372866667 11.4947 1.43588667 0.188673333 1.43588667"></polygon>
        <polygon id="path-5" points="0 0.1043 13.61213 0.1043 13.61213 12.3666433 0 12.3666433"></polygon>
    </defs>
    <g id="V6.3" stroke="none" stroke-width="1" fill="none" fill-rule="evenodd">
        <g id="Apple-TV备份-2" transform="translate(-279.000000, -214.000000)">
            <g id="EasyTracing" transform="translate(279.000000, 214.000000)">
                <rect id="矩形备份-3" x="0" y="0" width="16" height="16"></rect>
                <g id="编组" transform="translate(1.000000, 1.500000)">
                    <path d="M3.22121333,3.88224667 C3.34698,3.88224667 3.46341333,3.84631333 3.56561333,3.78798 L5.98738,3.78798 C6.08958,3.84631333 6.20601333,3.88224667 6.33178,3.88224667 C6.71724667,3.88224667 7.03108,3.56841333 7.03108,3.18294667 C7.03108,2.79724667 6.71724667,2.48341333 6.33178,2.48341333 C6.14814667,2.48341333 5.98201333,2.55621333 5.85718,2.67241333 L3.69581333,2.67241333 C3.57098,2.55621333 3.40484667,2.48341333 3.22121333,2.48341333 C2.83551333,2.48341333 2.52191333,2.79724667 2.52191333,3.18294667 C2.52191333,3.56841333 2.83551333,3.88224667 3.22121333,3.88224667" id="Fill-1" fill="#0071EB"></path>
                    <path d="M3.22121333,10.22987 C3.38314667,10.22987 3.53038,10.1722367 3.64914667,10.0796033 L5.90384667,10.0796033 C6.02261333,10.1722367 6.16984667,10.22987 6.33178,10.22987 C6.71724667,10.22987 7.03108,9.91627 7.03108,9.53057 C7.03108,9.14510333 6.71724667,8.83127 6.33178,8.83127 C6.17964667,8.83127 6.03988,8.88143667 5.92484667,8.96403667 L3.62791333,8.96403667 C3.51311333,8.88143667 3.37334667,8.83127 3.22121333,8.83127 C2.83551333,8.83127 2.52191333,9.14510333 2.52191333,9.53057 C2.52191333,9.91627 2.83551333,10.22987 3.22121333,10.22987" id="Fill-3" fill="#0071EB"></path>
                    <g transform="translate(2.333333, 6.662273)">
                        <mask id="mask-2" fill="white">
                            <use xlink:href="#path-1"></use>
                        </mask>
                        <g id="Clip-6"></g>
                        <path d="M10.7956567,0.05313 C10.6330233,0.05313 10.48509,0.11123 10.36609,0.204563333 L1.31742333,0.204563333 C1.19842333,0.11123 1.05049,0.05313 0.887856667,0.05313 C0.502156667,0.05313 0.188556667,0.36673 0.188556667,0.75243 C0.188556667,1.13813 0.502156667,1.45173 0.887856667,1.45173 C1.03929,1.45173 1.17859,1.40226333 1.29315667,1.32013 L10.3903567,1.32013 C10.5049233,1.40226333 10.6442233,1.45173 10.7956567,1.45173 C11.18089,1.45173 11.4947233,1.13813 11.4947233,0.75243 C11.4947233,0.36673 11.18089,0.05313 10.7956567,0.05313" id="Fill-5" fill="#0071EB" mask="url(#mask-2)"></path>
                    </g>
                    <g transform="translate(2.333333, 4.562273)">
                        <mask id="mask-4" fill="white">
                            <use xlink:href="#path-3"></use>
                        </mask>
                        <g id="Clip-8"></g>
                        <path d="M10.3435733,0.207386667 L1.33994,0.207386667 C1.21767333,0.102853333 1.06110667,0.0372866667 0.887973333,0.0372866667 C0.50204,0.0372866667 0.188673333,0.350886667 0.188673333,0.736586667 C0.188673333,1.12228667 0.50204,1.43588667 0.887973333,1.43588667 C1.02750667,1.43588667 1.15724,1.39365333 1.26667333,1.32295333 L10.41684,1.32295333 C10.52604,1.39365333 10.6557733,1.43588667 10.79554,1.43588667 C11.1810067,1.43588667 11.49484,1.12228667 11.49484,0.736586667 C11.49484,0.350886667 11.1810067,0.0372866667 10.79554,0.0372866667 C10.6224067,0.0372866667 10.46584,0.102853333 10.3435733,0.207386667" id="Fill-7" fill="#0071EB" mask="url(#mask-4)"></path>
                    </g>
                    <g transform="translate(0.000000, 0.128940)">
                        <mask id="mask-6" fill="white">
                            <use xlink:href="#path-5"></use>
                        </mask>
                        <g id="Clip-10"></g>
                        <path d="M12.1514633,9.53491 C12.1514633,10.4507433 11.7750967,10.9008433 11.0027633,10.9108767 L2.60929667,10.9108767 C1.97603,10.9108767 1.46083,10.3954433 1.46083,9.76171 L1.46083,2.67257667 C1.46083,2.03907667 1.97603,1.52387667 2.60929667,1.52387667 L10.9994967,1.52387667 C12.0683967,1.55187667 12.1514633,2.61657667 12.1514633,2.94207667 L12.1514633,3.07507667 L13.61213,3.07507667 L13.61213,2.01247667 C13.61213,0.960376667 12.75603,0.104276667 11.70393,0.104276667 L1.90836333,0.104276667 C0.856263333,0.104276667 -7e-05,0.960376667 -7e-05,2.01247667 L-7e-05,10.4584433 C-7e-05,11.5107767 0.856263333,12.3666433 1.90836333,12.3666433 L11.70393,12.3666433 C12.75603,12.3666433 13.61213,11.5107767 13.61213,10.4584433 L13.61213,9.40191 L12.1514633,9.40191 L12.1514633,9.53491 Z" id="Fill-9" fill="#0071EB" mask="url(#mask-6)"></path>
                    </g>
                </g>
            </g>
        </g>
    </g>
</svg>