<?xml version="1.0" encoding="UTF-8"?>
<svg width="16px" height="16px" viewBox="0 0 16 16" version="1.1" xmlns="http://www.w3.org/2000/svg" xmlns:xlink="http://www.w3.org/1999/xlink">
    <title>EasyDataViz</title>
    <g id="页面-1" stroke="none" stroke-width="1" fill="none" fill-rule="evenodd">
        <g id="菜单收起布局示例备份-20" transform="translate(-502.000000, -330.000000)">
            <g id="EasyDataViz" transform="translate(502.000000, 330.000000)">
                <rect id="矩形备份-7" x="0" y="0" width="16" height="16"></rect>
                <g id="编组" transform="translate(1.000000, 1.700000)" fill="#0071EB">
                    <path d="M13.8397725,6.64619667 C13.8427567,6.34846333 13.7053233,6.05213 13.4479567,5.87106333 C12.97499,5.53856333 12.4385567,5.97489667 11.9961567,5.66363 C11.7378567,5.48186333 11.73039,5.22193 11.6725233,4.93633 C11.5150233,4.15979667 10.4692233,3.94653 10.0144567,4.59309667 C9.72815667,4.99979667 9.82732333,5.53763 9.48035667,5.93616333 C8.83425667,6.67816333 7.22309,6.81793 6.49859,6.09366333 C6.11359,5.70866333 6.08815667,5.29379667 6.13155667,4.72609667 C6.17192333,4.20063 5.95702333,3.66116333 5.58742333,3.29156333 C4.88462333,2.58853 3.64632333,2.58993 2.94515667,3.29156333 C2.23465667,4.00183 2.22625667,5.21516333 2.94515667,5.93406333 C3.31289,6.30179667 3.79752333,6.45859667 4.31039,6.46023 C4.87225667,6.46186333 5.30905667,6.40563 5.74772333,6.84429667 C6.27925667,7.37583 6.01909,8.02356333 6.15209,8.67666333 C6.28625667,9.33583 6.77299,9.90493 7.41932333,10.1069967 C8.17159,10.3419633 9.08299,10.02953 9.52235667,9.37386333 C10.1332233,8.46223 9.40452333,7.36696333 10.1458233,6.51623 C10.4729567,6.14056333 11.2308233,5.77143 11.6921233,6.09576333 C12.1361567,6.40819667 11.9191567,7.06993 12.3776567,7.39239667 C12.7841233,7.67823 13.38029,7.58373 13.67359,7.16676333 C13.7839567,7.00973 13.8378567,6.82749667 13.8397725,6.64619667" id="Fill-1"></path>
                    <path d="M1.82725667,12.5821967 C0.819723333,12.5821967 2.33333333e-05,11.7624967 2.33333333e-05,10.7549633 L2.33333333e-05,2.06073 C2.33333333e-05,1.05296333 0.819723333,0.233263333 1.82725667,0.233263333 L11.91099,0.233263333 C12.9185233,0.233263333 13.7382233,1.05296333 13.7382233,2.06073 L13.7382233,4.97716333 C13.7382233,5.04016333 13.6850233,5.07889667 13.63579,5.07889667 C13.61549,5.07889667 13.5961233,5.07306333 13.57839,5.06046333 L12.90079,4.58913 C12.65509,4.41809667 12.5085567,4.13786333 12.5085567,3.83896333 L12.5085567,2.74019667 C12.5085567,2.01243 11.9168233,1.42069667 11.18929,1.42069667 L2.54895667,1.42069667 C1.82142333,1.42069667 1.22945667,2.01243 1.22945667,2.74019667 L1.22945667,10.0376967 C1.22945667,10.7654633 1.82142333,11.35743 2.54895667,11.35743 L11.18929,11.35743 C11.9168233,11.35743 12.5085567,10.7654633 12.5085567,10.0376967 L12.5085567,8.44053 C12.5085567,8.37753 12.5617567,8.33856333 12.61099,8.33856333 C12.63129,8.33856333 12.65089,8.34509667 12.6688567,8.35769667 L13.3506567,8.83813 C13.5933233,9.00869667 13.7382233,9.28823 13.7382233,9.58503 L13.7382233,10.7549633 C13.7382233,11.7624967 12.9185233,12.5821967 11.91099,12.5821967 L1.82725667,12.5821967 Z" id="Fill-3"></path>
                </g>
            </g>
        </g>
    </g>
</svg>