<?xml version="1.0" encoding="UTF-8"?>
<svg width="16px" height="16px" viewBox="0 0 16 16" version="1.1" xmlns="http://www.w3.org/2000/svg" xmlns:xlink="http://www.w3.org/1999/xlink">
    <title>EasyDataViz</title>
    <defs>
        <polygon id="path-1" points="0.0757937056 0.215996536 11.5063667 0.215996536 11.5063667 7.63597329 0.0757937056 7.63597329"></polygon>
        <polygon id="path-3" points="2.33333333e-05 0.0179666667 13.7382233 0.0179666667 13.7382233 12.3666667 2.33333333e-05 12.3666667"></polygon>
    </defs>
    <g id="V6.3" stroke="none" stroke-width="1" fill="none" fill-rule="evenodd">
        <g id="Apple-TV备份-2" transform="translate(-243.000000, -250.000000)">
            <g id="EasyDataViz" transform="translate(243.000000, 250.000000)">
                <rect id="矩形备份-7" x="0" y="0" width="16" height="16"></rect>
                <g id="编组" transform="translate(1.000000, 1.700000)">
                    <g transform="translate(2.333333, 2.548817)">
                        <mask id="mask-2" fill="white">
                            <use xlink:href="#path-1"></use>
                        </mask>
                        <g id="Clip-2"></g>
                        <path d="M11.5064392,4.09738 C11.5094233,3.79964667 11.37199,3.50331333 11.1146233,3.32224667 C10.6416567,2.98974667 10.1052233,3.42608 9.66282333,3.11481333 C9.40452333,2.93304667 9.39705667,2.67311333 9.33919,2.38751333 C9.18169,1.61098 8.13589,1.39771333 7.68112333,2.04428 C7.39482333,2.45098 7.49399,2.98881333 7.14702333,3.38734667 C6.50092333,4.12934667 4.88975667,4.26911333 4.16525667,3.54484667 C3.78025667,3.15984667 3.75482333,2.74498 3.79822333,2.17728 C3.83859,1.65181333 3.62369,1.11234667 3.25409,0.742746667 C2.55129,0.0397133333 1.31299,0.0411133333 0.611823333,0.742746667 C-0.0986766667,1.45301333 -0.107076667,2.66634667 0.611823333,3.38524667 C0.979556667,3.75298 1.46419,3.90978 1.97705667,3.91141333 C2.53892333,3.91304667 2.97572333,3.85681333 3.41439,4.29548 C3.94592333,4.82701333 3.68575667,5.47474667 3.81875667,6.12784667 C3.95292333,6.78701333 4.43965667,7.35611333 5.08599,7.55818 C5.83825667,7.79314667 6.74965667,7.48071333 7.18902333,6.82504667 C7.79989,5.91341333 7.07119,4.81814667 7.81249,3.96741333 C8.13962333,3.59174667 8.89749,3.22261333 9.35879,3.54694667 C9.80282333,3.85938 9.58582333,4.52111333 10.0443233,4.84358 C10.45079,5.12941333 11.0469567,5.03491333 11.3402567,4.61794667 C11.4506233,4.46091333 11.5045233,4.27868 11.5064392,4.09738" id="Fill-1" fill="#0071EB" mask="url(#mask-2)"></path>
                    </g>
                    <g transform="translate(0.000000, 0.215483)">
                        <mask id="mask-4" fill="white">
                            <use xlink:href="#path-3"></use>
                        </mask>
                        <g id="Clip-4"></g>
                        <path d="M1.82725667,12.3667133 C0.819723333,12.3667133 2.33333333e-05,11.5470133 2.33333333e-05,10.53948 L2.33333333e-05,1.84524667 C2.33333333e-05,0.83748 0.819723333,0.01778 1.82725667,0.01778 L11.91099,0.01778 C12.9185233,0.01778 13.7382233,0.83748 13.7382233,1.84524667 L13.7382233,4.76168 C13.7382233,4.82468 13.6850233,4.86341333 13.63579,4.86341333 C13.61549,4.86341333 13.5961233,4.85758 13.57839,4.84498 L12.90079,4.37364667 C12.65509,4.20261333 12.5085567,3.92238 12.5085567,3.62348 L12.5085567,2.52471333 C12.5085567,1.79694667 11.9168233,1.20521333 11.18929,1.20521333 L2.54895667,1.20521333 C1.82142333,1.20521333 1.22945667,1.79694667 1.22945667,2.52471333 L1.22945667,9.82221333 C1.22945667,10.54998 1.82142333,11.1419467 2.54895667,11.1419467 L11.18929,11.1419467 C11.9168233,11.1419467 12.5085567,10.54998 12.5085567,9.82221333 L12.5085567,8.22504667 C12.5085567,8.16204667 12.5617567,8.12308 12.61099,8.12308 C12.63129,8.12308 12.65089,8.12961333 12.6688567,8.14221333 L13.3506567,8.62264667 C13.5933233,8.79321333 13.7382233,9.07274667 13.7382233,9.36954667 L13.7382233,10.53948 C13.7382233,11.5470133 12.9185233,12.3667133 11.91099,12.3667133 L1.82725667,12.3667133 Z" id="Fill-3" fill="#0071EB" mask="url(#mask-4)"></path>
                    </g>
                </g>
            </g>
        </g>
    </g>
</svg>