<?xml version="1.0" standalone="no"?><!DOCTYPE svg PUBLIC "-//W3C//DTD SVG 1.1//EN" "http://www.w3.org/Graphics/SVG/1.1/DTD/svg11.dtd"><svg t="1600143406549" class="icon" viewBox="0 0 1024 1024" version="1.1" xmlns="http://www.w3.org/2000/svg" p-id="17040" xmlns:xlink="http://www.w3.org/1999/xlink" width="48" height="48"><defs><style type="text/css"></style></defs><path d="M831.999834 352.000348V224.000414a31.993983 31.993983 0 0 0-9.279995-22.719988l-191.9999-191.999901A32.001983 32.001983 0 0 0 607.99995 0.00053H96.000215C42.980243 0.00053 0.000265 42.984508 0.000265 96.00048v831.99957c0 53.019973 42.979978 95.99995 95.99995 95.99995h223.999884v-63.999967H96.000215c-17.673991 0-31.999983-14.325993-31.999983-31.999983V96.00048c0-17.673991 14.325993-31.999983 31.999983-31.999983h479.999752v127.999934c0 35.345982 28.653985 63.999967 63.999967 63.999966h127.999934v95.999951h63.999966z" p-id="17041"></path><path d="M258.296131 823.314104h-87.499954q-18.94399 0-27.147986-8.399996-8.007996-8.591996-8.007996-27.147986V572.532234q0-18.94399 8.203996-27.147986 8.399996-8.399996 26.951986-8.399996h92.773952q20.507989 0 35.547981 2.539999 15.039992 2.539999 26.951986 9.765995 10.155995 6.053997 17.969991 15.429992 7.811996 9.179995 11.913994 20.507989 4.099998 11.131994 4.099998 23.631988 0 42.969978-42.967978 62.891967 56.445971 17.967991 56.445971 69.919964 0 24.023988-12.305994 43.359978-12.303994 19.13999-33.201983 28.319985-13.085993 5.469997-30.079984 7.813996-16.989991 2.147999-39.64798 2.147999zM254.000134 696.16617h-60.351969v83.593956h62.305968q58.78797 0 58.787969-42.383978 0-21.679989-15.233992-31.445983-15.233992-9.763995-45.507976-9.763995zM193.648165 580.54023v74.023961h53.125972q21.679989 0 33.397983-4.099998 11.913994-4.103998 18.163991-15.625992 4.881997-8.203996 4.881997-18.35999 0-21.679989-15.427992-28.711985-15.429992-7.225996-47.071976-7.225996z m336.937825 212.639889q-19.33599 15.039992-37.49998 22.655989-17.967991 7.419996-40.429979 7.419996-20.505989 0-36.131982-8.005996-15.429992-8.203996-23.827987-22.069989-8.399996-13.867993-8.399996-30.079984 0-21.873989 13.867993-37.303981 13.867993-15.427992 38.08598-20.701989 5.079997-1.171999 25.195987-5.273997 20.11799-4.099998 34.375982-7.419996 14.451993-3.517998 31.249984-8.399996-0.977999-21.093989-8.593995-30.859984-7.421996-9.959995-31.055984-9.959995-20.311989 0-30.663984 5.663997-10.155995 5.663997-17.577991 16.991991-7.225996 11.327994-10.351995 15.039993-2.927998 3.513998-12.889993 3.513998-8.983995 0-15.623992-5.663997-6.445997-5.859997-6.445997-14.843993 0-14.059993 9.959995-27.341985 9.959995-13.281993 31.055984-21.875989 21.093989-8.593996 52.539973-8.593996 35.153982 0 55.271971 8.399996 20.11799 8.199996 28.319985 26.169986 8.399996 17.969991 8.399996 47.655976 0 18.74999-0.196 31.835983 0 13.085993-0.196 29.101985 0 15.039992 4.881998 31.445984 5.079997 16.209992 5.079997 20.899989 0 8.199996-7.813996 15.037992-7.615996 6.639997-17.381991 6.639997-8.203996 0-16.211991-7.617996-8.007996-7.811996-16.991992-22.459989z m-3.513998-77.14796q-11.719994 4.295998-34.179982 9.179996-22.265988 4.685998-30.859984 7.029996-8.593996 2.147999-16.405992 8.789995-7.811996 6.443997-7.811996 18.163991 0 12.107994 9.179996 20.701989 9.179995 8.399996 24.021987 8.399996 15.819992 0 29.101985-6.837996 13.475993-7.029996 19.72599-17.967991 7.227996-12.109994 7.227996-39.84398zM770.039866 754.866139q0 29.881985-24.805987 49.023975-24.607987 19.13999-67.379965 19.13999-24.219987 0-44.533977-5.663997-20.11599-5.859997-33.787982-12.695993v-41.209979h1.951999q17.383991 13.085993 38.67198 20.899989 21.289989 7.615996 40.819979 7.615996 24.219987 0 37.89198-7.813996 13.671993-7.811996 13.671993-24.607987 0-12.891993-7.421996-19.53199-7.421996-6.639997-28.515986-11.327994-7.811996-1.757999-20.507989-4.099998-12.499994-2.345999-22.851988-5.079997-28.709985-7.615996-40.819979-22.265989-11.913994-14.841992-11.913994-36.327981 0-13.475993 5.469997-25.389987 5.663997-11.913994 16.991992-21.287989 10.935994-9.179995 27.733985-14.453992 16.991991-5.467997 37.889981-5.467998 19.53199 0 39.453979 4.881998 20.11599 4.687998 33.397983 11.523994v39.25798h-1.953999q-14.059993-10.351995-34.179982-17.383991-20.11599-7.225996-39.45198-7.225997-20.11799 0-33.983982 7.811996-13.867993 7.617996-13.867993 22.851988 0 13.475993 8.399995 20.31199 8.201996 6.835996 26.559987 11.133994 10.157995 2.343999 22.657988 4.685998 12.693993 2.343999 21.093989 4.297998 25.585987 5.859997 39.45198 20.115989 13.867993 14.453993 13.867992 38.28198zM836.423832 560.73224v79.101959q10.155995-11.719994 19.72599-18.553991 9.765995-6.835996 21.483989-10.155994 11.719994-3.515998 25.195987-3.515998 20.311989 0 35.935981 8.593995 15.819992 8.591996 24.805987 24.999987 5.663997 9.569995 7.615996 21.483989 1.953999 11.719994 1.953999 27.147986v102.147947q0 16.015992-7.421996 24.219988-7.225996 8.201996-19.33599 8.201995-26.367986 0-26.367986-32.419983v-90.039953q0-25.585987-7.615996-39.25998-7.617996-13.865993-28.905985-13.865993-14.259993 0-25.779987 8.203996-11.329994 8.007996-16.993991 22.069989-4.295998 11.913994-4.295998 42.381978v70.507963q0 15.819992-7.227996 24.219988-7.029996 8.201996-19.72599 8.201995-26.367986 0-26.367986-32.419983V560.73024q0-16.209992 6.835996-24.219988 7.031996-8.199996 19.53199-8.199995 12.695993 0 19.72599 8.199995 7.227996 8.203996 7.227996 24.219988z" p-id="17042"></path></svg>