<?xml version="1.0" standalone="no"?><!DOCTYPE svg PUBLIC "-//W3C//DTD SVG 1.1//EN" "http://www.w3.org/Graphics/SVG/1.1/DTD/svg11.dtd"><svg t="1600145605298" class="icon" viewBox="0 0 1024 1024" version="1.1" xmlns="http://www.w3.org/2000/svg" p-id="40849" xmlns:xlink="http://www.w3.org/1999/xlink" width="48" height="48"><defs><style type="text/css"></style></defs><path d="M684.8 595.2c-32 64-96 108.8-172.8 108.8-108.8 0-192-83.2-192-192s83.2-192 192-192c76.8 0 140.8 44.8 172.8 108.8l166.4-96C787.2 211.2 659.2 128 512 128 300.8 128 128 300.8 128 512s172.8 384 384 384c147.2 0 275.2-83.2 339.2-204.8l-166.4-96z" p-id="40850" fill="currentColor" fill-rule="nonzero"></path><path d="M896 486.4V448h-32l6.4-44.8H832l-6.4 44.8h-32l6.4-44.8H768l-6.4 44.8h-38.4v38.4h32v38.4h-38.4v38.4h32l-6.4 51.2h32l6.4-51.2h32l-6.4 51.2h32l6.4-51.2h38.4v-38.4h-32v-38.4h44.8z m-76.8 38.4h-32v-38.4h32v38.4z" p-id="40851" fill="currentColor" fill-rule="nonzero"></path></svg>