<?xml version="1.0" standalone="no"?><!DOCTYPE svg PUBLIC "-//W3C//DTD SVG 1.1//EN" "http://www.w3.org/Graphics/SVG/1.1/DTD/svg11.dtd"><svg t="1600145660388" class="icon" viewBox="0 0 1024 1024" version="1.1" xmlns="http://www.w3.org/2000/svg" p-id="43999" xmlns:xlink="http://www.w3.org/1999/xlink" width="48" height="48"><defs><style type="text/css"></style></defs><path d="M512 0c282.624 0 512 229.376 512 512s-229.376 512-512 512-512-229.376-512-512 229.376-512 512-512z m0 102.4A409.453714 409.453714 0 0 0 102.4 512c0 226.304 183.296 409.6 409.6 409.6s409.6-183.296 409.6-409.6S738.304 102.4 512 102.4z m0 153.6c93.184 0 174.811429 49.810286 219.574857 124.342857l-87.771428 52.662857a153.6 153.6 0 1 0 0 157.988572l87.771428 52.662857A256 256 0 0 1 256 512c0-141.312 114.688-256 256-256z" p-id="44000" fill="currentColor" fill-rule="nonzero"></path></svg>