<?xml version="1.0" standalone="no"?><!DOCTYPE svg PUBLIC "-//W3C//DTD SVG 1.1//EN" "http://www.w3.org/Graphics/SVG/1.1/DTD/svg11.dtd"><svg t="1600143268539" class="icon" viewBox="0 0 1024 1024" version="1.1" xmlns="http://www.w3.org/2000/svg" p-id="9471" xmlns:xlink="http://www.w3.org/1999/xlink" width="48" height="48"><defs><style type="text/css"></style></defs><path d="M63.311 511.662c0-69.512-0.207-139.025 0.172-208.534 0.077-14.112 3.778-27.457 10.143-40.68 11.52-23.934 33.556-34.3 54.253-46.785 10.224-6.167 20.653-11.994 31.006-17.946 13.895-7.989 27.806-15.948 41.708-23.923 20.717-11.884 41.453-23.735 62.144-35.664 30.356-17.5 60.616-35.168 91.036-52.555 25.797-14.745 51.844-29.051 77.618-43.835 12.224-7.012 23.768-15.246 36.174-21.893 11.109-5.952 22.6-10.72 35.979-10.811 18.427-0.125 35.952 1.23 52.045 11.555 13.921 8.932 28.408 16.99 42.72 25.305 18.777 10.908 37.677 21.604 56.433 32.548 22.079 12.883 43.948 26.13 66.12 38.85 19.176 11.001 38.787 21.243 57.954 32.259 21.963 12.623 43.57 25.863 65.493 38.557 8.224 4.762 17.186 8.27 25.315 13.173 19.981 12.05 40.741 23.182 59.193 37.292 19.91 15.225 31.096 35.536 31.057 62.614-0.202 140.194 1.423 280.392 0.729 420.581-0.149 30.151-14.765 55.754-42.335 71.753-32.884 19.082-65.68 38.315-98.631 57.281-20.159 11.603-40.651 22.63-60.781 34.283-16.341 9.459-32.235 19.69-48.564 29.17-18.227 10.582-36.791 20.583-55.083 31.054-25.435 14.56-50.636 29.533-76.169 43.918-14.729 8.298-29.852 15.911-44.955 23.521-10.916 5.42-38.535 4.943-52.061-1.773-15.772-7.831-30.948-16.877-46.283-25.572-17.044-9.663-34.002-19.478-50.948-29.313-16.098-9.342-32.093-18.862-48.205-28.18-16.115-9.32-32.318-18.486-48.483-27.719-22.95-13.108-45.92-26.181-68.846-39.332-30.246-17.351-60.653-34.436-90.608-52.276-65.423-36.081-65.34-82.579-65.346-86.173-0.1-70.249-0.074-140.498-0.074-210.747 0.025-0.003 0.052-0.003 0.08-0.003z m450.493-301.86c-30.319-0.954-58.043 3.77-85.629 11.158-32.958 8.826-62.787 23.952-90.639 42.967-22.587 15.42-42.098 34.48-59.567 55.661-17.031 20.65-31.181 43.128-42.01 67.431-6.384 14.327-9.614 30.025-14.975 44.849-7.056 19.513-9.725 39.769-10.612 60.224-1.103 25.452-1.63 51.033 5.304 75.922 5.413 19.429 10.929 38.866 17.448 57.94 5.037 14.74 13.183 27.83 23.501 39.875 11.914 13.908 21.563 29.752 33.441 43.694 19.588 22.991 42.927 42.118 69.127 56.891 23.374 13.18 47.468 25.629 74.418 30.496 20.82 3.76 41.561 8.473 62.557 10.57 14.173 1.415 28.761-0.578 43.103-1.769 23.092-1.918 45.492-6.944 67.549-14.386 30.661-10.345 58.633-25.449 84.386-44.697 28.514-21.311 52.012-47.479 71.393-77.278 2.575-3.959 6.037-9.569-0.037-13.471-9.985-6.415-20.389-12.187-30.698-18.087-26.482-15.157-53.074-30.122-79.487-45.399-10.857-6.279-10.701-6.555-18.547 3.417a66.909 66.909 0 0 0-2.123 2.894c-11.161 15.892-25.373 28.611-41.858 38.593-18.821 11.396-39.079 18.238-61.129 21.851-21.649 3.547-41.805 0.026-61.987-5.701-17.608-4.996-33.735-13.513-48.052-25.052-14.563-11.738-28.44-24.405-36.185-41.797-5.598-12.572-9.631-25.868-13.941-38.979-9.38-28.532-7.625-57.376 2.045-85.013 11.3-32.297 31.571-58.708 61.137-76.97 21.034-12.992 43.628-21.924 68.726-22.389 16.571-0.307 32.776 0.459 49.323 4.902 21.607 5.802 39.765 17.044 56.929 29.864 10.089 7.536 17.353 18.953 25.509 28.933 3.441 4.21 7.254 5.692 12.196 4.13 3.234-1.022 6.477-2.28 9.4-3.977 21.368-12.406 42.653-24.954 63.969-37.45 14.619-8.57 29.235-17.147 43.874-25.682 5.877-3.426 7.924-7.594 3.535-13.775-3.373-4.751-5.975-10.066-9.489-14.698-16.209-21.362-32.86-42.419-54.944-58.158-16.608-11.836-32.843-24.646-50.825-33.976-17.969-9.323-37.653-15.635-57.036-21.867-26.174-8.417-53.083-13.391-79.1-11.691zM791.63 493.01c-1.962 0-3.923 0.015-5.885-0.003-8.855-0.079-9.718-0.891-9.839-9.597-0.068-4.906-0.023-9.813-0.005-14.72 0.019-5.428-2.616-8.093-8.094-8.021-5.642 0.074-11.288 0.154-16.926 0.001-5.436-0.148-7.427 2.472-7.221 7.67 0.204 5.143-0.14 10.307 0.034 15.453 0.216 6.366-2.22 9.667-9.028 9.262-4.885-0.291-9.803-0.041-14.707-0.009-5.528 0.036-8.843 2.435-8.803 8.35 0.039 5.642 0.193 11.286 0.102 16.926-0.088 5.425 2.757 7.401 7.79 7.338 5.395-0.068 10.792-0.04 16.187 0.046 5.626 0.089 8.549 2.845 8.451 8.66-0.095 5.641 0.102 11.287-0.033 16.925-0.109 4.536 1.728 6.908 6.427 6.865 6.376-0.059 12.754-0.049 19.13-0.015 4.591 0.025 6.73-2.228 6.684-6.783-0.05-4.906-0.026-9.813 0.018-14.719 0.082-9.125 1.721-10.821 10.62-10.952 4.66-0.069 9.322-0.082 13.982-0.054 5.5 0.032 8.07-2.766 8.065-8.149-0.002-2.208-0.004-4.416 0.007-6.624 0.077-15.361 2.119-18.591-16.956-17.85z m92.99-32.322c-1.226 0-2.465 0.118-3.676-0.019-9.585-1.079-12.798 0.812-12.98 13.173a685.74 685.74 0 0 0-0.045 12.504c0.016 4.501-2.022 6.765-6.693 6.687-5.636-0.094-11.277 0.122-16.915 0.066-5.671-0.056-8.739 2.633-8.883 8.294-0.143 5.636-0.129 11.28-0.028 16.917 0.091 5.052 2.646 7.569 7.87 7.415 5.144-0.152 10.302 0.134 15.443-0.065 6.558-0.253 9.43 2.788 9.258 9.24-0.125 4.654-0.645 9.464 0.31 13.927 0.709 3.312 3.285 8.619 5.407 8.808 8.166 0.728 16.484-0.245 24.746-0.584 0.57-6.725 1.14-13.45 1.706-20.175 0.021-0.243-0.01-0.49-0.009-0.735 0.023-7.005 3.076-10.178 10.167-10.366 5.392-0.143 10.791-0.286 16.18-0.137 4.334 0.12 6.319-1.626 6.237-6.013-0.118-6.373-0.003-12.75-0.053-19.124-0.037-4.77-2.563-7.212-7.284-7.29-4.658-0.077-9.318 0.035-13.976-0.038-9.469-0.147-11.19-1.887-11.276-11.215-0.018-1.962-0.007-3.924-0.006-5.885 0.011-16.239 1.724-15.541-15.5-15.385z" p-id="9472" fill="currentColor" fill-rule="nonzero"></path></svg>