<?xml version="1.0" standalone="no"?><!DOCTYPE svg PUBLIC "-//W3C//DTD SVG 1.1//EN" "http://www.w3.org/Graphics/SVG/1.1/DTD/svg11.dtd"><svg t="1600143033415" class="icon" viewBox="0 0 1024 1024" version="1.1" xmlns="http://www.w3.org/2000/svg" p-id="2831" width="48" height="48" xmlns:xlink="http://www.w3.org/1999/xlink"><defs><style type="text/css"></style></defs><path d="M182.47296 207.68c67.072-56.768 144.384-87.68 247.552-97.984 61.888-5.184 113.408-10.304 159.872-10.304 92.8 5.184 170.176 30.912 232.064 82.496h10.304c41.28-20.608 82.496-20.608 118.592-5.184 41.28 20.608 67.008 61.888 72.192 113.472 5.184 51.584-10.304 97.984-51.584 128.896-10.304 5.184-15.488 10.304-15.488 15.488 0 0 0 10.304 5.184 15.488 20.608 87.68 20.608 180.48 20.608 262.976v139.264c0 10.304 0 20.608-10.304 30.912-5.184 5.184-10.304 10.304-20.608 10.304s-15.488-5.184-20.608-10.304c-10.304-10.304-10.304-20.608-5.184-30.912v-97.984c0-103.168 0-185.664-15.488-262.976-15.488-92.8-36.096-154.688-72.192-206.272-25.792-41.28-61.888-67.008-108.288-92.8-77.312-36.16-154.688-36.16-232.064-25.856-46.4 5.184-108.288 10.304-164.992 30.976-103.168 30.912-170.176 108.288-195.968 232.064-25.792 108.288-30.912 221.76-20.608 335.168 5.184 30.912 5.184 61.888 10.304 92.8v5.184c5.184 30.912-15.488 41.28-20.608 41.28h-5.184c-5.184 0-15.488-5.184-15.488-5.184a39.36 39.36 0 0 1-10.304-25.792c-5.184-41.28-10.304-82.496-10.304-118.592-10.304-103.168 0-201.088 10.304-278.464v-5.184C22.60096 444.864-8.31104 382.976 1.99296 321.088 12.29696 254.08 53.57696 212.8 110.28096 202.496c19.904-2.624 38.016-7.232 72.192 5.184m-67.008 51.584h-15.488c-30.976 5.12-51.584 30.912-56.704 67.008-5.184 30.976 10.304 56.704 30.912 72.192 0-5.184 5.184-15.488 5.184-20.608l-5.184-5.184c-10.304-20.608-15.488-46.4 0-67.008 10.304-20.608 30.912-30.912 51.584-25.792 5.184-5.184 10.304-10.304 10.304-20.608h-20.608z m778.688-10.368c15.488 0 30.912 10.304 41.28 25.792 10.304 15.488 15.488 41.28-10.304 72.192 5.184 5.184 5.184 10.304 5.184 15.488v5.184c25.792-20.608 36.096-56.704 25.792-92.8-10.304-30.912-30.912-46.4-67.008-46.4h-20.608c0 5.184 5.184 5.184 5.184 10.304l5.184 5.184c4.992 5.056 10.112 5.056 15.296 5.056z" p-id="2832" fill="currentColor" fill-rule="nonzero"></path><path d="M636.29696 733.696a94.72 94.72 0 0 0-36.096-51.584l-5.184-5.184c-10.304-5.184-10.304-10.304-10.304-15.488a39.68 39.68 0 0 0-10.304-25.792c-20.608-20.608-51.584-25.728-77.376-25.728-25.792 5.12-46.4 20.608-56.704 41.216-10.304 15.488-20.608 25.792-30.912 41.28-15.488 15.488-25.792 41.28-25.792 67.008 5.184 25.792 15.488 46.4 36.096 51.584 5.184 5.184 10.304 5.184 15.488 5.184l-5.184 30.912s0 46.4 25.792 67.008c10.304 5.184 15.488 10.304 25.792 10.304 10.304 0 20.608-5.184 30.912-10.304 15.488 15.488 36.096 15.488 56.704 5.184 15.488-10.304 25.792-30.912 25.792-56.704v-36.096h5.184c15.488-5.184 30.912-15.488 36.096-30.912 5.12-20.672 5.12-41.28 0-61.888z m-154.688 134.08s-3.776-3.2 0-25.792c3.776-22.592 10.304-36.032 10.304-36.032s0.448 10.24-1.728 29.056a120.64 120.64 0 0 1-8.576 32.768z m59.712-15.104l-3.008 9.92v-51.584c5.184 5.184 0.832-9.216 5.184 10.304 4.288 19.52-2.176 31.36-2.176 31.36z m48.576-88.064h-10.304c-10.304 0-20.608 0-25.792-5.184-10.304-5.184-25.792-10.304-36.096-10.304-10.304 0-20.608 5.184-36.096 10.304-10.304 5.184-20.608 10.304-36.096 10.304-10.304 0-10.304 0-10.304-5.184-5.184-10.304 0-15.488 0-20.608 10.304-15.488 15.488-15.488 30.912-10.304 36.096 15.488 67.008 15.488 97.984-10.304 10.304 5.184 20.608 10.304 25.792 20.608s0 15.488 0 20.672z m77.312-495.04c-87.68 0-159.872 82.496-159.872 180.48 0 46.4 15.488 92.8 46.4 128.896 30.912 36.096 72.192 56.704 113.472 56.704 87.68 0 154.688-82.496 154.688-180.48 5.184-103.104-67.008-185.6-154.688-185.6z m5.184 299.072c-30.912 0-56.704-15.488-77.376-36.096h5.184c15.488 0 36.096-10.304 46.4-20.608 10.304-15.488 20.608-30.912 20.608-51.584s-5.184-36.096-20.608-51.584c-10.304-15.424-30.912-25.792-46.4-25.792-10.304 0-15.488 0-25.792 5.184 20.608-36.096 51.584-61.888 92.8-61.888 30.912 0 56.704 15.488 77.376 36.096 20.608 20.608 30.912 51.584 30.912 87.68 0 72.192-41.216 118.592-103.104 118.592zM337.16096 284.992c-41.28 0-82.496 20.608-113.472 51.584-30.912 36.096-46.336 77.376-46.336 123.776s15.488 92.8 46.4 123.776c30.912 36.096 72.192 56.704 113.472 56.704 82.496 0 154.688-82.496 154.688-180.48 0-92.8-72.192-175.36-154.752-175.36z m0 299.136c-30.912 0-56.704-15.488-82.496-36.096h5.184c15.488 0 30.912-10.304 46.4-20.608 10.304-15.488 20.608-36.16 20.608-51.584 0-41.28-30.912-77.376-67.008-77.376-5.184 0-15.488 0-20.608 5.184 20.608-36.096 51.52-56.768 92.8-56.768 61.888 0 108.288 51.584 108.288 123.776 5.184 61.888-46.4 113.472-103.168 113.472z" p-id="2833" fill="currentColor" fill-rule="nonzero"></path></svg>