<?xml version="1.0" standalone="no"?><!DOCTYPE svg PUBLIC "-//W3C//DTD SVG 1.1//EN" "http://www.w3.org/Graphics/SVG/1.1/DTD/svg11.dtd"><svg t="1600144117667" class="icon" viewBox="0 0 1024 1024" version="1.1" xmlns="http://www.w3.org/2000/svg" p-id="18538" xmlns:xlink="http://www.w3.org/1999/xlink" width="48" height="48"><defs><style type="text/css"></style></defs><path d="M684.8 625.6c19.2-12.8 46.4-25.6 46.4-25.6s-76.8 14.4-153.6 20.8c-94.4 8-195.2 9.6-246.4 3.2-120-16 65.6-60.8 65.6-60.8s-72-4.8-161.6 38.4c-105.6 51.2 259.2 73.6 449.6 24z m-171.2-64c-38.4-84.8-166.4-160 0-291.2C720 105.6 614.4 0 614.4 0c43.2 169.6-150.4 220.8-220.8 324.8-48 72 22.4 148.8 120 236.8z m228.8-352S392 297.6 560 489.6c49.6 56-12.8 107.2-12.8 107.2s124.8-64 67.2-145.6c-54.4-75.2-94.4-112 128-241.6z m-12.8 540.8c-1.6 1.6-3.2 3.2-3.2 4.8 256-67.2 161.6-238.4 40-195.2-6.4 3.2-12.8 6.4-16 12.8 6.4-3.2 14.4-4.8 22.4-6.4 60.8-12.8 150.4 83.2-43.2 184z m94.4 124.8s28.8 24-32 41.6c-115.2 35.2-481.6 44.8-582.4 1.6-36.8-16 32-38.4 52.8-43.2 22.4-4.8 35.2-3.2 35.2-3.2-40-28.8-262.4 56-112 80 408 67.2 745.6-28.8 638.4-76.8z m-446.4-83.2c-156.8 43.2 96 134.4 296 49.6-19.2-8-38.4-17.6-56-27.2-89.6 17.6-131.2 17.6-211.2 9.6-68.8-9.6-28.8-32-28.8-32z m360 193.6c-156.8 28.8-352 25.6-467.2 6.4 0 0 24 19.2 144 27.2 184 11.2 467.2-6.4 473.6-94.4 1.6 1.6-11.2 35.2-150.4 60.8z m-88-280c-118.4 22.4-187.2 22.4-273.6 12.8-67.2-6.4-22.4-40-22.4-40-172.8 57.6 96 123.2 339.2 51.2-16-3.2-30.4-12.8-43.2-24z" p-id="18539" fill="currentColor" fill-rule="nonzero"></path></svg>