
<?xml version="1.0" standalone="no"?><!DOCTYPE svg PUBLIC "-//W3C//DTD SVG 1.1//EN" "http://www.w3.org/Graphics/SVG/1.1/DTD/svg11.dtd"><svg t="1600144305399" class="icon" viewBox="0 0 1024 1024" version="1.1" xmlns="http://www.w3.org/2000/svg" p-id="24927" xmlns:xlink="http://www.w3.org/1999/xlink" width="48" height="48"><defs><style type="text/css"></style></defs><path d="M616.768 64c6.848 0 13.376 2.176 18.816 6.144l3.84 3.2 215.168 215.232a32.192 32.192 0 0 1 8.96 17.664l0.448 5.12V448h64a32 32 0 0 1 32 32v312a32 32 0 0 1-32 32h-64V928a32 32 0 0 1-26.24 31.488L832 960H192a32 32 0 0 1-31.488-26.24L160 928v-104h-64a32 32 0 0 1-32-32V480a32 32 0 0 1 32-32h64V96a32 32 0 0 1 26.24-31.488L192 64h424.768z m175.232 760h-560v64h560v-64zM499.264 580.48c-47.36 0-78.912 32.448-78.912 81.536 0 24.576 7.936 45.632 22.592 60.544 14.08 14.08 33.28 21.12 57.536 21.12 24.512 0 44.416-7.232 58.496-21.12 6.976-6.912 10.688-12.672 16.384-25.6l-43.136-12.096a24.32 24.32 0 0 1-7.424 12.672 36.224 36.224 0 0 1-25.088 9.152c-19.584 0-31.232-10.688-33.728-30.72h111.616c-0.256-2.56-0.256-4.032-0.256-4.992a180.864 180.864 0 0 0-3.712-32.512c-8.704-36.928-35.712-57.984-74.368-57.984z m-259.456-49.92c1.536 11.712 1.984 22.848 1.984 36.288v134.144c0 14.656-0.448 25.792-1.92 36.672h53.248a321.984 321.984 0 0 1-1.92-37.44v-31.744h39.168c48.064 0 76.352-26.24 76.352-70.4 0-43.2-27.008-66.752-76.16-66.752h-54.272c-15.872 0-24.832-0.192-36.48-0.704z m456.576 52.864c-22.592 0-37.44 6.72-49.6 22.592v-19.584h-49.344c1.472 10.624 1.984 19.328 1.984 37.44v76.352c0 16.128-0.512 25.088-1.984 37.44h51.328a267.648 267.648 0 0 1-1.92-36.224v-39.68c0.96-10.88 2.688-16.064 7.36-22.016a35.648 35.648 0 0 1 29.568-13.44c7.68 0 13.824 1.28 25.28 4.736l11.904-44.608a100.096 100.096 0 0 0-24.576-3.008z m91.264-52.096h-51.84c1.536 9.472 1.984 19.84 1.984 37.44v131.456c0 17.92-0.512 26.304-1.92 37.44h51.84c-1.536-12.8-1.984-22.08-2.048-36.352v-132.48c0-16.896 0.512-27.072 1.984-37.504zM499.264 617.408c17.088 0 27.776 8.448 31.232 24.32h-63.744c4.224-16.384 14.848-24.32 32.512-24.32z m-171.136-43.904c17.856 0 27.52 8.96 27.52 26.048 0 17.088-10.176 26.752-27.52 26.752h-36.992v-52.8h36.992z m205.888-437.504H232V448h560v-54.016H576a41.984 41.984 0 0 1-41.6-35.776L534.08 352V136z m67.968 1.792v188.16h188.16l-188.16-188.16z" p-id="24928" fill="currentColor" fill-rule="nonzero"></path></svg>