<?xml version="1.0" standalone="no"?><!DOCTYPE svg PUBLIC "-//W3C//DTD SVG 1.1//EN" "http://www.w3.org/Graphics/SVG/1.1/DTD/svg11.dtd"><svg t="1600143120014" class="icon" viewBox="0 0 1280 1024" version="1.1" xmlns="http://www.w3.org/2000/svg" p-id="4368" xmlns:xlink="http://www.w3.org/1999/xlink" width="60" height="48"><defs><style type="text/css"></style></defs><path d="M640 209c342.8 0 606.4 144.4 606.4 303S982.6 815 640 815c-342.8 0-606.4-144.4-606.4-303S297.4 209 640 209m0-33.6C286.6 175.4 0 326 0 512s286.6 336.6 640 336.6S1280 698 1280 512 993.4 175.4 640 175.4zM436.4 485c-15.8 81-71.6 72.6-140.2 72.6l27.4-141.2c76 0 127.6-8.2 112.8 68.6zM194.8 700.6h73.4l17.4-89.6c82.2 0 133.2 6 180.4-38.2 52.2-48 65.8-133.4 28.6-176.2-19.4-22.4-50.6-33.4-93-33.4h-141.4L194.8 700.6z m371.4-427.2h73l-17.4 89.6c63 0 121.4-4.6 149.6 21.4 29.6 27.2 15.4 62-16.6 226.2h-74c30.8-158.8 36.6-172 25.4-184-10.8-11.6-35.4-9.2-94.8-9.2l-37.6 193.2h-73l65.4-337.2zM1010 485c-16 82.2-73.4 72.6-140.2 72.6l27.4-141.2c76.4 0 127.6-8.2 112.8 68.6zM768.4 700.6H842l17.4-89.6c86.4 0 134.2 5 180.4-38.2 52.2-48 65.8-133.4 28.6-176.2-19.4-22.4-50.6-33.4-93-33.4H834l-65.6 337.4z" p-id="4369" fill="currentColor" fill-rule="nonzero"></path></svg>