<?xml version="1.0" standalone="no"?><!DOCTYPE svg PUBLIC "-//W3C//DTD SVG 1.1//EN" "http://www.w3.org/Graphics/SVG/1.1/DTD/svg11.dtd"><svg t="1600143098336" class="icon" viewBox="0 0 1024 1024" version="1.1" xmlns="http://www.w3.org/2000/svg" p-id="3620" xmlns:xlink="http://www.w3.org/1999/xlink" width="48" height="48"><defs><style type="text/css"></style></defs><path d="M386.92 498.112a130.632 130.632 0 0 1 23.172-2.082l-6.244-0.03h207.646a96.244 96.244 0 0 0 25.816-3.508c38.74-10.726 66.69-45.074 66.69-87.326V230.718c0-49.664-42.3-86.968-92.578-95.212-31.862-5.248-78.516-7.654-110.178-7.498-31.658 0.172-61.962 2.808-88.554 7.498-78.404 13.646-92.69 42.35-92.69 95.212V288h192v32H257.64c-71.256 0-129.076 85.142-129.626 190.484-0.004 0.506-0.014 1.01-0.014 1.516 0 19.046 1.88 37.44 5.37 54.808C149.296 646.14 198.902 704 257.64 704H288v-91.87c0-53.654 40.292-103.466 98.92-114.018z m20.392-244.108c-19.184 0-34.768-15.57-34.768-34.806 0-19.328 15.548-35.04 34.768-35.04 19.148 0 34.798 15.71 34.798 35.04 0.002 19.236-15.618 34.806-34.798 34.806z" p-id="3621"></path><path d="M887.902 445.086C869.56 372.042 822.066 320 766.36 320H736v81.344c0 67.83-44.572 116.948-98.978 125.362a107.886 107.886 0 0 1-16.602 1.292H412.702a102.82 102.82 0 0 0-26.098 3.344C348.36 541.378 320 573.2 320 614.472v174.454c0 49.664 49.954 78.852 98.962 93.102 58.654 17.062 122.534 20.136 192.732 0C658.3 868.708 704 841.786 704 788.926V736H512v-32h254.36c50.48 0 94.214-42.73 115.628-105.098C890.948 572.808 896 543.282 896 512c0-23.536-2.866-46.076-8.098-66.914zM615.734 765.64c19.18 0 34.762 15.57 34.762 34.8 0 19.3-15.582 35.042-34.762 35.042-19.154 0-34.798-15.742-34.798-35.042 0-19.26 15.612-34.8 34.798-34.8z" p-id="3622"></path></svg>