<?xml version="1.0" standalone="no"?><!DOCTYPE svg PUBLIC "-//W3C//DTD SVG 1.1//EN" "http://www.w3.org/Graphics/SVG/1.1/DTD/svg11.dtd"><svg t="1600144361140" class="icon" viewBox="0 0 1024 1024" version="1.1" xmlns="http://www.w3.org/2000/svg" p-id="25572" xmlns:xlink="http://www.w3.org/1999/xlink" width="48" height="48"><defs><style type="text/css"></style></defs><path d="M150.488 965.379l734.13 5.439L333.757 775.463 150.488 965.379zM380.072 727.467l539.695 198.936L701.734 394.134 380.072 727.467zM919.672 168.291 748.052 346.135 963.357 889.22 919.672 168.291zM356.132 664.358 644.581 365.44l-300.327-1.185L356.132 664.358zM578.934 94.335l-210.06 217.683 299.708 1.186L578.934 94.335zM76.093 615.422l229.077 84.437-12.238-309.142L76.093 615.422zM876.183 125.434 640.097 82.579l82.675 201.832L876.183 125.434zM119.973 909.08l151.199-156.683-200.081-73.75L119.973 909.08zM8.895 634.811 596.383 26.009l371.304 67.41L1015.105 1024l-925.398-8.186L8.895 634.811z" p-id="25573" fill="currentColor" fill-rule="nonzero"></path></svg>