<?xml version="1.0" standalone="no"?><!DOCTYPE svg PUBLIC "-//W3C//DTD SVG 1.1//EN" "http://www.w3.org/Graphics/SVG/1.1/DTD/svg11.dtd"><svg t="1600144162886" class="icon" viewBox="0 0 1024 1024" version="1.1" xmlns="http://www.w3.org/2000/svg" p-id="19433" xmlns:xlink="http://www.w3.org/1999/xlink" width="48" height="48"><defs><style type="text/css"></style></defs><path d="M1010.645333 499.584l-42.453333-26.282667a578.517333 578.517333 0 0 0-1.194667-12.373333l36.48-34.005333a14.677333 14.677333 0 0 0-4.864-24.362667l-46.634666-17.450667a358.058667 358.058667 0 0 0-3.669334-12.032l29.098667-40.405333a14.592 14.592 0 0 0-9.514667-22.954667l-49.152-7.978666a394.368 394.368 0 0 0-5.930666-11.050667l20.650666-45.354667c2.133333-4.608 1.664-9.984-1.152-14.165333s-7.594667-6.656-12.672-6.485333l-49.92 1.749333a284.245333 284.245333 0 0 0-7.893333-9.557333l11.477333-48.597334a14.634667 14.634667 0 0 0-17.578666-17.578666l-48.597334 11.477333a590.805333 590.805333 0 0 0-9.6-7.893333l1.749334-49.92a14.506667 14.506667 0 0 0-20.650667-13.824l-45.354667 20.693333c-3.669333-2.005333-7.338667-4.010667-11.050666-5.930667l-8.021334-49.194666a14.677333 14.677333 0 0 0-22.954666-9.514667l-40.448 29.098667a357.674667 357.674667 0 0 0-12.032-3.626667L621.312 25.429333a14.677333 14.677333 0 0 0-24.362667-4.864l-34.005333 36.522667a391.68 391.68 0 0 0-12.373333-1.194667l-26.282667-42.453333a14.592 14.592 0 0 0-24.832 0l-26.282667 42.453333c-4.138667 0.341333-8.277333 0.768-12.373333 1.194667l-34.048-36.522667a14.592 14.592 0 0 0-24.362667 4.864l-17.450666 46.634667c-4.053333 1.152-8.021333 2.389333-12.032 3.626667l-40.405334-29.098667a14.677333 14.677333 0 0 0-22.954666 9.514667l-8.021334 49.194666a394.368 394.368 0 0 0-11.050666 5.930667l-45.354667-20.693333a14.592 14.592 0 0 0-20.650667 13.824l1.749334 49.92c-3.242667 2.56-6.442667 5.205333-9.6 7.893333l-48.597334-11.477333a14.634667 14.634667 0 0 0-17.578666 17.578666l11.434666 48.597334c-2.645333 3.157333-5.290667 6.357333-7.850666 9.557333l-49.92-1.749333a14.592 14.592 0 0 0-13.824 20.650666l20.693333 45.354667a386.346667 386.346667 0 0 0-5.930667 11.050667l-49.152 7.978666a14.677333 14.677333 0 0 0-9.514666 22.954667l29.098666 40.405333c-1.28 4.010667-2.474667 7.978667-3.669333 12.032L25.173333 402.56a14.677333 14.677333 0 0 0-4.864 24.362667l36.48 34.005333a391.68 391.68 0 0 0-1.194666 12.373333l-42.453334 26.282667a14.506667 14.506667 0 0 0 0 24.832l42.453334 26.282667c0.341333 4.138667 0.768 8.277333 1.194666 12.373333l-36.48 34.048a14.592 14.592 0 0 0 4.864 24.362667l46.634667 17.450666c1.152 4.053333 2.389333 8.064 3.669333 12.032l-29.098666 40.405334a14.549333 14.549333 0 0 0 9.557333 22.954666l49.152 7.978667c1.92 3.712 3.882667 7.381333 5.930667 11.050667l-20.693334 45.354666a14.592 14.592 0 0 0 13.824 20.650667l49.877334-1.749333c2.602667 3.242667 5.205333 6.442667 7.893333 9.6l-11.434667 48.64a14.592 14.592 0 0 0 17.578667 17.536l48.597333-11.434667c3.157333 2.688 6.357333 5.290667 9.6 7.850667l-1.749333 49.92a14.506667 14.506667 0 0 0 20.650667 13.781333l45.354666-20.650667c3.669333 2.048 7.338667 4.010667 11.050667 5.930667l8.021333 49.152a14.677333 14.677333 0 0 0 22.954667 9.557333l40.405333-29.098666c4.010667 1.28 7.978667 2.517333 12.032 3.669333l17.450667 46.634667a14.549333 14.549333 0 0 0 24.362667 4.864l34.048-36.48c4.096 0.469333 8.234667 0.853333 12.373333 1.237333l26.282667 42.453333a14.634667 14.634667 0 0 0 24.832 0l26.282666-42.453333c4.138667-0.384 8.277333-0.768 12.373334-1.237333l34.005333 36.48a14.677333 14.677333 0 0 0 24.362667-4.864l17.450666-46.634667c4.053333-1.152 8.064-2.389333 12.032-3.669333l40.405334 29.098666a14.549333 14.549333 0 0 0 22.954666-9.557333l8.021334-49.152c3.712-1.92 7.381333-3.925333 11.050666-5.930667l45.354667 20.650667a14.634667 14.634667 0 0 0 20.650667-13.781333l-1.749334-49.92c3.242667-2.56 6.442667-5.162667 9.557334-7.850667l48.597333 11.434667a14.634667 14.634667 0 0 0 17.578667-17.536l-11.434667-48.64c2.645333-3.157333 5.290667-6.357333 7.850667-9.6l49.92 1.749333a14.506667 14.506667 0 0 0 13.824-20.650667l-20.650667-45.354666c2.005333-3.669333 4.010667-7.338667 5.930667-11.050667l49.152-7.978667a14.677333 14.677333 0 0 0 9.514666-22.954666l-29.098666-40.405334 3.669333-12.032 46.634667-17.450666a14.592 14.592 0 0 0 4.864-24.362667l-36.48-34.048c0.426667-4.096 0.853333-8.234667 1.194666-12.373333l42.453334-26.282667a14.506667 14.506667 0 0 0 0-24.832z m-284.117333 352.128a30.08 30.08 0 0 1 12.586667-58.837333 30.08 30.08 0 1 1-12.629334 58.837333z m-14.421333-97.536a27.349333 27.349333 0 0 0-32.512 21.077333l-15.061334 70.314667c-46.506667 21.12-98.133333 32.853333-152.533333 32.853333a368.213333 368.213333 0 0 1-155.733333-34.304l-15.061334-70.314666a27.306667 27.306667 0 0 0-32.512-21.034667l-62.08 13.312a367.573333 367.573333 0 0 1-32.085333-37.845333h302.08c3.413333 0 5.717333-0.597333 5.717333-3.712v-106.88c0-3.114667-2.261333-3.712-5.717333-3.712h-88.362667v-67.754667h95.573334c8.704 0 46.634667 2.474667 58.752 50.944 3.797333 14.890667 12.117333 63.402667 17.834666 78.933333 5.674667 17.408 28.8 52.181333 53.461334 52.181334h150.528a31.573333 31.573333 0 0 0 5.461333-0.554667 370.346667 370.346667 0 0 1-34.218667 40.149333l-63.530666-13.653333z m-417.834667 96.085333a30.08 30.08 0 1 1-12.629333-58.837333 30.08 30.08 0 0 1 12.629333 58.837333zM179.669333 385.536a30.08 30.08 0 1 1-54.954666 24.405333 30.08 30.08 0 0 1 54.954666-24.405333z m-35.2 83.498667l64.682667-28.757334a27.392 27.392 0 0 0 13.909333-36.181333l-13.312-30.122667h52.394667v236.117334H156.458667a369.834667 369.834667 0 0 1-11.946667-141.098667z m283.818667-22.912V376.533333h124.757333c6.442667 0 45.482667 7.466667 45.482667 36.650667 0 24.234667-29.952 32.938667-54.570667 32.938667h-115.669333z m453.376 62.634666c0 9.216-0.341333 18.389333-1.024 27.434667h-37.930667c-3.797333 0-5.333333 2.474667-5.333333 6.229333v17.408c0 41.002667-23.125333 49.92-43.392 52.181334-19.285333 2.176-40.661333-8.064-43.306667-19.882667-11.392-64-30.336-77.696-60.288-101.290667 37.162667-23.594667 75.818667-58.410667 75.818667-105.002666 0-50.304-34.517333-82.005333-58.026667-97.578667-32.981333-21.76-69.504-26.112-79.36-26.112H236.586667a369.408 369.408 0 0 1 206.805333-116.736l46.250667 48.512a27.306667 27.306667 0 0 0 38.698666 0.896l51.712-49.493333a369.834667 369.834667 0 0 1 253.056 180.224l-35.413333 80a27.477333 27.477333 0 0 0 13.909333 36.181333l68.181334 30.293333c1.194667 12.117333 1.792 24.32 1.792 36.736z m-391.978667-404.565333a29.994667 29.994667 0 1 1 41.472 43.477333 30.08 30.08 0 0 1-41.472-43.477333z m351.445334 282.794667a29.952 29.952 0 0 1 39.594666-15.274667 30.08 30.08 0 1 1-39.637333 15.317333z" p-id="19434" fill="currentColor" fill-rule="nonzero"></path></svg>