<?xml version="1.0" standalone="no"?><!DOCTYPE svg PUBLIC "-//W3C//DTD SVG 1.1//EN" "http://www.w3.org/Graphics/SVG/1.1/DTD/svg11.dtd"><svg t="1600143431842" class="icon" viewBox="0 0 1024 1024" version="1.1" xmlns="http://www.w3.org/2000/svg" p-id="17794" xmlns:xlink="http://www.w3.org/1999/xlink" width="48" height="48"><defs><style type="text/css"></style></defs><path d="M616.768 64c6.848 0 13.376 2.176 18.816 6.144l3.84 3.2 215.168 215.232a32.192 32.192 0 0 1 8.96 17.664l0.448 5.12V448h64a32 32 0 0 1 32 32v312a32 32 0 0 1-32 32h-64V928a32 32 0 0 1-26.24 31.488L832 960H192a32 32 0 0 1-31.488-26.24L160 928v-104h-64a32 32 0 0 1-32-32V480a32 32 0 0 1 32-32h64V96a32 32 0 0 1 26.24-31.488L192 64h424.768z m175.232 760h-560v64h560v-64z m-270.08-297.088c-61.504 0-100.928 42.112-100.928 107.584 0 65.728 39.168 107.904 100.672 107.904 18.368 0 32.256-3.2 46.848-11.392 17.152 16.64 20.608 20.096 26.048 26.752l27.776-29.76a193.728 193.728 0 0 1-15.872-13.12l-8.96-8.704c17.408-23.296 23.872-43.136 23.872-72.384 0-65.28-38.912-106.88-99.456-106.88z m-204.8-0.512c-48.896 0-79.68 24.064-79.68 62.272 0 20.032 8.448 36.672 24.064 47.552 9.216 6.464 17.152 9.472 39.936 14.4 25.792 5.952 32 7.68 37.184 10.24 6.464 2.944 10.432 9.6 10.432 17.28 0 13.888-11.392 22.4-30.464 22.4-12.672 0-23.04-4.288-29.056-11.712a32.768 32.768 0 0 1-6.4-18.368l-51.648 4.992c1.728 11.392 3.008 17.088 5.504 23.04 5.184 14.144 14.336 24.832 26.752 31.744 13.44 7.68 34.24 12.16 55.296 12.16 29.056 0 50.88-7.168 65.28-21.12 11.392-11.136 17.28-27.008 17.28-45.568 0-22.848-8.896-39.488-26.752-50.56-9.408-6.016-21.312-10.24-40.192-14.208-29.248-5.952-29.248-5.952-34.176-8.192-7.936-3.712-11.712-8.96-11.712-15.872 0-11.392 11.2-19.584 26.304-19.584 18.88 0 27.776 6.72 30.72 22.848l52.608-5.76c-3.2-14.08-6.208-21.568-12.352-29.696-13.44-18.624-37.504-28.288-68.992-28.288z m383.872 4.928h-54.08c1.472 11.904 1.984 22.592 1.984 39.936v130.944c0 16.64-0.512 27.52-1.984 36.224 7.552-0.384 15.552-0.64 27.2-0.704h84.928c19.84 0 32 0.448 41.152 1.728v-47.68a230.592 230.592 0 0 1-30.592 1.728h-70.592V568.96c0-18.176 0.256-25.088 1.92-37.632z m-179.84 38.208c30.528 0 49.152 24.576 49.152 64.96 0 16.896-2.24 27.52-7.936 38.208-14.912-14.08-14.912-14.08-19.136-19.072l-28.224 27.776c6.912 5.44 11.392 9.408 19.072 16.32a43.008 43.008 0 0 1-44.16-10.432c-11.648-11.584-17.6-30.208-17.6-54.016 0-39.424 18.56-63.744 48.832-63.744z m12.8-433.536H232.064V448h560v-54.016H576a41.984 41.984 0 0 1-41.6-35.776L534.08 352V136z m68.032 1.792v188.16h188.16l-188.16-188.16z" p-id="17795"></path></svg>