<?xml version="1.0" standalone="no"?><!DOCTYPE svg PUBLIC "-//W3C//DTD SVG 1.1//EN" "http://www.w3.org/Graphics/SVG/1.1/DTD/svg11.dtd"><svg t="1600143360474" class="icon" viewBox="0 0 1144 1024" version="1.1" xmlns="http://www.w3.org/2000/svg" p-id="16299" xmlns:xlink="http://www.w3.org/1999/xlink" width="53.625" height="48"><defs><style type="text/css"></style></defs><path d="M643.006863 724.47784C334.666909 882.743352 10.893617 653.179543 10.893617 653.179543 10.893617 653.179543 330.634755 1176.471922 876.227809 939.216673 949.521526 900.747839 968.441905 912.242686 968.441905 912.242686 1105.43177 922.78233 1095.664063 999.510805 1132.575853 1015.29743 1163.998666 825.609126 1047.98354 709.2473 1047.98354 709.2473 1047.98354 709.2473 1179.674036 304.067799 717.131445 0 709.830203 0 884.785156 214.313602 807.310902 524.020893 717.131483 524.020903 254.569188 90.709386 254.569188 90.709386 254.569188 90.709386 481.602477 415.606258 574.433885 482.442653 534.989646 495.884419 104.900337 141.71338 104.900337 141.71338 104.900337 141.71338 525.925366 678.014212 643.006863 724.47784Z" p-id="16300" fill="currentColor" fill-rule="nonzero"></path></svg>