<?xml version="1.0" encoding="UTF-8"?>
<svg width="34px" height="34px" viewBox="0 0 34 34" version="1.1" xmlns="http://www.w3.org/2000/svg" xmlns:xlink="http://www.w3.org/1999/xlink">
    <!-- Generator: Sketch 63.1 (92452) - https://sketch.com -->
    <title>应用系统-应用-联盟统建</title>
    <desc>Created with Sketch.</desc>
    <g id="页面-1" stroke="none" stroke-width="1" fill="none" fill-rule="evenodd">
        <g id="应用系统-应用-联盟统建" fill-rule="nonzero">
            <g id="编组">
                <path d="M18.2142857,18.338916 L18.2142857,26.5625 C18.2142857,27.1493025 17.6706315,27.625 17,27.625 C16.6759963,27.630706 16.3633345,27.5205977 16.1341829,27.32009 C15.9050312,27.1195823 15.7791931,26.8460033 15.7857143,26.5625 L15.7857143,18.338916 L7.28571429,14.046167 C6.71205601,13.7508446 6.51700618,13.1064873 6.8483817,12.601416 C7.00590263,12.3557495 7.27044864,12.1764025 7.58165511,12.1042986 C7.89286158,12.0321947 8.22417658,12.0734858 8.5,12.21875 L17,16.46875 L25.4269531,12.21875 C25.7027765,12.0734858 26.0340915,12.0321947 26.345298,12.1042986 C26.6565045,12.1764025 26.9210505,12.3557495 27.0785714,12.601416 C27.4102229,13.1064555 27.2151188,13.7509918 26.6412388,14.046167 L18.2142857,18.296167 L18.2142857,18.338916 Z" id="路径" fill="#0071EB"></path>
                <path d="M0,8.5 L0,25.5 L17,34 L34,25.5 L34,8.5 L17,0 L0,8.5 Z M31.5714286,24.4375 L17,31.875 L2.42857143,24.4375 L2.42857143,9.5625 L17,2.125 L31.5714286,9.5625 L31.5714286,24.4375 Z" id="形状" fill="#000000"></path>
            </g>
        </g>
    </g>
</svg>