<?xml version="1.0" encoding="UTF-8"?>
<svg width="36px" height="36px" viewBox="0 0 36 36" version="1.1" xmlns="http://www.w3.org/2000/svg" xmlns:xlink="http://www.w3.org/1999/xlink">
    <!-- Generator: Sketch 63.1 (92452) - https://sketch.com -->
    <title>应用联盟-联盟统建</title>
    <desc>Created with Sketch.</desc>
    <g id="页面-1" stroke="none" stroke-width="1" fill="none" fill-rule="evenodd">
        <g id="应用联盟-联盟统建" transform="translate(1.000000, 1.000000)" fill-rule="nonzero">
            <path d="M0,17 C0,26.3888407 7.61115925,34 17,34 C26.3888407,34 34,26.3888407 34,17 C34,7.61115925 26.3888407,0 17,0 C7.61115925,0 0,7.61115925 0,17 Z" id="路径" stroke="#000000" stroke-width="1.6"></path>
            <path d="M19.8954669,17.5074301 L19.8954669,17.4762762 C19.8600926,15.0167171 17.8880255,13.0417827 15.467674,13.0420454 L9.33688384,13.0420454 C6.89148134,13.0420454 4.90909093,15.0567641 4.90909093,17.5420454 C4.90909093,20.0273268 6.89148134,22.0420454 9.33688384,22.0420454 L15.467674,22.0420454 C15.7305067,22.0403414 15.9926681,22.0148561 16.2510528,21.9658916 C15.3143601,21.7265296 14.6123014,20.936477 14.4731236,19.9651224 L9.33688384,19.9651224 C8.02012865,19.9651224 6.95268766,18.8802739 6.95268766,17.5420454 C6.95268766,16.203817 8.02012865,15.1189685 9.33688384,15.1189685 L15.467674,15.1189685 C16.7417555,15.1175289 17.7918071,16.1343948 17.8518702,17.4278147 L17.8518702,17.500507 C17.8538827,17.6187956 17.875769,17.735865 17.9165841,17.8466608 C17.8052912,18.0119635 17.7448314,18.2071442 17.7428784,18.4074301 C17.7014947,18.9809565 18.1254212,19.4799868 18.6897449,19.5220454 C19.2540685,19.564104 19.7450914,19.1332642 19.7864751,18.5597378 C19.8672014,18.2196549 19.9083551,17.8711145 19.9090909,17.5212762 L19.9090909,17.500507 C19.9090909,17.4797377 19.8954669,17.5108916 19.8954669,17.5074301 Z" id="形状" fill="#1890FF"></path>
            <path d="M25.4593179,13.0420454 L19.3216999,13.0420454 C19.0585745,13.0437462 18.7961211,13.0691826 18.5374487,13.1180531 C19.4751845,13.3569557 20.1780252,14.1454919 20.3173579,15.1149821 L25.4593179,15.1149821 C26.7775395,15.1149821 27.8461693,16.1977484 27.8461693,17.5334082 C27.8461693,18.869068 26.7775395,19.9518343 25.4593179,19.9518343 L19.3216999,19.9518343 C18.0461995,19.9532712 16.9949784,18.9383571 16.9348484,17.6474197 C16.9568463,17.5139373 16.9439136,17.3769436 16.8973408,17.2501069 C17.1535024,16.900125 17.1662812,16.425181 16.9293193,16.0615779 C16.6923573,15.6979747 16.2562569,15.5233584 15.8379948,15.6246073 C15.4197327,15.7258562 15.1086272,16.081349 15.0594652,16.5142143 L15.0287771,16.5142143 C14.7160783,17.8501078 15.0235977,19.2575434 15.8635769,20.3348736 C16.703556,21.4122038 17.9837227,22.0410833 19.3387488,22.0420454 L25.4763668,22.0420454 C27.9244927,22.0420454 29.9090909,20.0311938 29.9090909,17.5506827 C29.9090909,15.0701715 27.9244927,13.0593199 25.4763668,13.0593199 L25.4593179,13.0420454 Z" id="形状" fill="#1890FF"></path>
        </g>
    </g>
</svg>