<?xml version="1.0" encoding="UTF-8"?>
<svg width="36px" height="33px" viewBox="0 0 36 33" version="1.1" xmlns="http://www.w3.org/2000/svg" xmlns:xlink="http://www.w3.org/1999/xlink">
    <!-- Generator: Sketch 63.1 (92452) - https://sketch.com -->
    <title>应用系统-应用-托管</title>
    <desc>Created with Sketch.</desc>
    <g id="页面-1" stroke="none" stroke-width="1" fill="none" fill-rule="evenodd">
        <g id="应用系统-应用-托管" transform="translate(1.000000, 1.000000)">
            <g id="托管-(1)" transform="translate(0.000000, 16.171573)" fill-rule="nonzero" stroke="#000000" stroke-width="1.6">
                <path d="M30.8654604,13.76711 C29.440808,13.4502518 27.6944599,12.9592426 26.666485,12.8237918 C24.8088737,12.5770778 16.3649663,14.8023413 14.0115083,14.9813299 C11.6580503,15.1603185 9.00708419,12.6786659 7.28008622,11.7450228 C5.55308825,10.8089608 0.00927965545,7.15904496 0.00927965545,7.15904496 C0.00927965545,7.15904496 -0.266459516,4.59031689 2.70136472,5.27240853 C5.66918896,5.95450016 10.2406542,8.50871564 10.2406542,8.50871564 C10.2406542,8.50871564 13.5325929,9.52217803 15.8546069,8.82557381 C17.4606667,8.34182088 19.5964359,7.62586654 20.4357472,6.77204262 C21.219427,5.97385028 21.1323514,5.16840165 20.4720287,5.27240853 C19.1030079,5.49009735 13.8276822,5.99561916 12.3957735,5.54331017 C10.961446,5.09100118 10.1584162,3.36642198 10.7800387,2.30700306 C10.7800387,2.30700306 12.647325,2.20057741 16.9720762,1.22823402 C21.2992462,0.255890626 22.3731777,-0.418944714 24.2428828,0.417947858 C25.8247549,1.12906467 29.513371,3.37367827 33.8115158,4.24443355 C34.8612596,10.2453887 31.2597191,13.7429224 30.8654604,13.76711 L30.8654604,13.76711 Z" id="路径"></path>
            </g>
            <rect id="矩形" stroke="#0071EB" stroke-width="2" stroke-linejoin="round" transform="translate(7.828427, 7.949747) rotate(-315.000000) translate(-7.828427, -7.949747) " x="5.82842712" y="5.94974747" width="4" height="4"></rect>
            <rect id="矩形" stroke="#0071EB" stroke-width="2.4" stroke-linejoin="round" transform="translate(12.778175, 12.899495) rotate(-315.000000) translate(-12.778175, -12.899495) " x="10.7781746" y="10.8994949" width="4" height="4"></rect>
            <rect id="矩形" stroke="#0071EB" stroke-width="2.4" stroke-linejoin="round" transform="translate(12.778175, 3.000000) rotate(-315.000000) translate(-12.778175, -3.000000) " x="10.7781746" y="1" width="4" height="4"></rect>
            <rect id="矩形" stroke="#0071EB" stroke-width="2.4" stroke-linejoin="round" transform="translate(17.727922, 7.949747) rotate(-315.000000) translate(-17.727922, -7.949747) " x="15.7279221" y="5.94974747" width="4" height="4"></rect>
        </g>
    </g>
</svg>