<?xml version="1.0" encoding="UTF-8"?>
<svg width="36px" height="29px" viewBox="0 0 36 29" version="1.1" xmlns="http://www.w3.org/2000/svg" xmlns:xlink="http://www.w3.org/1999/xlink">
    <!-- Generator: Sketch 63.1 (92452) - https://sketch.com -->
    <title>通用</title>
    <desc>Created with Sketch.</desc>
    <g id="页面-1" stroke="none" stroke-width="1" fill="none" fill-rule="evenodd">
        <g id="icon/代码项目" transform="translate(1.000000, 1.000000)">
            <g>
                <path d="M28.6268453,17.0871655 L24.1770549,20.8585817 C23.9270093,21.0705076 23.6004192,21.1764706 23.2738291,21.1764706 C22.9472389,21.1764706 22.6206488,21.0705076 22.3731547,20.8585817 C21.8756151,20.4368924 21.8756151,19.751377 22.3731547,19.3296876 L25.9197193,16.3216372 L22.3731547,13.3157493 C21.8756151,12.89406 21.8756151,12.2085445 22.3731547,11.7868552 C22.8706944,11.3651659 23.6795152,11.3651659 24.1770549,11.7868552 L28.6268453,15.5582714 C29.1243849,15.9799607 29.1243849,16.6654762 28.6268453,17.0871655 L28.6268453,17.0871655 Z" id="路径" fill="#1890FF"></path>
                <path d="M19.9260066,11.9937076 L16.3484306,20.4875016 C16.1691885,20.9126101 15.7065501,21.1764706 15.2124231,21.1764706 C15.0743582,21.1764706 14.9338712,21.1555293 14.7982285,21.1136467 C14.1684588,20.9147043 13.8438853,20.3136888 14.0739934,19.7713089 L17.6515694,11.277515 C17.8792553,10.733041 18.5695797,10.4545216 19.2017715,10.6513699 C19.8315412,10.8482182 20.1561147,11.4492337 19.9260066,11.9937076 L19.9260066,11.9937076 Z" id="路径" fill="#1890FF"></path>
                <path d="M11.6250342,19.3296876 C12.1249886,19.751377 12.1249886,20.4368924 11.6250342,20.8585817 C11.3776077,21.0705076 11.0511069,21.1764706 10.724606,21.1764706 C10.3981051,21.1764706 10.0716043,21.0705076 9.82162704,20.8585817 L5.37305275,17.0871655 C4.87564908,16.6654762 4.87564908,15.9799607 5.37305275,15.5582714 L9.82162704,11.7868552 C10.3190307,11.3651659 11.1276305,11.3651659 11.6250342,11.7868552 C12.1249886,12.2085445 12.1249886,12.89406 11.6250342,13.3157493 L8.07943883,16.3216372 L11.6250342,19.3296876 Z" id="路径" fill="#1890FF"></path>
                <path d="M33.2495714,3.85774549 L17.323,3.85774549 C17.153,3.85774549 14.3795714,0.466135458 14.3795714,0.466135458 C14.0687143,0 13.4397143,0 13.141,0 L0.544,0 C0.245285714,0 0,0.210921022 0,0.466135458 L0,4.50949145 L0,21.4823061 L0,25.8188423 C0,26.177408 0.34,26.4705882 0.752857143,26.4705882 L33.2495714,26.4705882 C33.6624286,26.4705882 34,26.177408 34,25.8188423 L34,4.50949145 C34,4.15303492 33.6624286,3.85774549 33.2495714,3.85774549 L33.2495714,3.85774549 Z" id="Fill-1" stroke="#000000" stroke-width="1.6"></path>
            </g>
        </g>
    </g>
</svg>