<?xml version="1.0" encoding="UTF-8"?>
<svg width="14px" height="15px" viewBox="0 0 14 15" version="1.1" xmlns="http://www.w3.org/2000/svg" xmlns:xlink="http://www.w3.org/1999/xlink">
    <!-- Generator: Sketch 63.1 (92452) - https://sketch.com -->
    <title>模型字段分析</title>
    <desc>Created with Sketch.</desc>
    <g id="页面-1" stroke="none" stroke-width="1" fill="none" fill-rule="evenodd">
        <g id="模型字段分析" fill="#FFFFFF" fill-rule="nonzero">
            <g id="编组" transform="translate(0.000000, 0.000000)">
                <g id="编组-3" transform="translate(3.000000, 4.000000)">
                    <path d="M0.568181818,0 L7.38636364,0 C7.76515152,0 7.95454545,0.189393939 7.95454545,0.568181818 L7.95454545,0.568181818 C7.95454545,0.946969697 7.76515152,1.13636364 7.38636364,1.13636364 L0.568181818,1.13636364 C0.189393939,1.13636364 0,0.946969697 0,0.568181818 L0,0.568181818 C0,0.189393939 0.189393939,0 0.568181818,0 Z" id="路径"></path>
                    <path d="M4.54545455,0 L4.54545455,7.38636364 C4.54545455,7.70016179 4.29107088,7.95454545 3.97727273,7.95454545 C3.66347457,7.95454545 3.40909091,7.70016179 3.40909091,7.38636364 L3.40909091,0 L4.54545455,0 Z" id="路径"></path>
                </g>
                <g transform="translate(0.000000, -0.000000)" id="形状">
                    <path d="M6.29424735,0.156438023 C6.74695423,-0.0538191633 7.27895008,-0.0520442104 7.73004644,0.161228428 L13.0251149,2.66181699 C13.5666896,2.91730003 13.9082471,3.43693365 13.9079466,4.00492525 L13.9079466,10.7857358 C13.9084879,11.355871 13.5645922,11.8772081 13.0200008,12.1318381 L7.65461264,14.6378158 C7.20305996,14.8491801 6.67164477,14.8491801 6.22009209,14.6378158 L0.886028168,12.1324369 C0.342594277,11.8774978 -0.000419351668,11.3568359 3.84776923e-07,10.7875322 L3.84776923e-07,4.01031445 C3.84776923e-07,3.4379245 0.347038379,2.91519979 0.894977945,2.66181699 L6.2974437,0.154641623 L6.29424735,0.156438023 Z M1.07013588,4.01031445 L1.07013588,10.7875322 C1.07013588,10.9771431 1.18450783,11.1504835 1.36548022,11.2354346 L6.69954414,13.7396159 C6.8500696,13.8100393 7.02719221,13.8100393 7.17771767,13.7396159 L12.5418273,11.234237 C12.7237086,11.1494278 12.8386198,10.9754461 12.8384484,10.785137 L12.8384484,4.00612286 C12.8386201,3.81677788 12.7248601,3.64350489 12.5443843,3.55822051 L7.24867658,1.05583554 C7.09780189,0.985012727 6.92009921,0.985012727 6.76922452,1.05583554 L1.36739803,3.56001691 C1.18485464,3.64484955 1.06960006,3.81944017 1.07013588,4.01031445 L1.07013588,4.01031445 Z"></path>
                </g>
            </g>
        </g>
    </g>
</svg>