<?xml version="1.0" encoding="UTF-8"?>
<svg width="21px" height="22px" viewBox="0 0 21 22" version="1.1" xmlns="http://www.w3.org/2000/svg" xmlns:xlink="http://www.w3.org/1999/xlink">
    <!-- Generator: Sketch 63.1 (92452) - https://sketch.com -->
    <title>数据运营分析</title>
    <desc>Created with Sketch.</desc>
    <g id="页面-1" stroke="none" stroke-width="1" fill="none" fill-rule="evenodd">
        <g id="数据运营分析" fill="#FFFFFF" fill-rule="nonzero">
            <path d="M17.9929046,0.0379638017 L11.1707218,0.0379638017 L9.65862772,0.0379638017 L2.99881743,0.0379638017 C1.34972155,0.0379638017 0,1.40798192 0,3.23213567 L0,14.3368936 C0,16.1610474 1.34972155,17.5310655 2.99881743,17.5310655 L9.65862772,17.5310655 L9.65862772,18.9848069 C9.65609065,18.987344 9.65101651,18.987344 9.64847944,18.9898811 L5.41918277,20.4563079 C5.03101097,20.6085321 4.84073068,21.0499824 4.99295491,21.4381542 C5.14517915,21.826326 5.58662943,22.0166063 5.97480123,21.864382 L10.2040979,20.3979552 C10.2725988,20.3700475 10.3334885,20.3345285 10.389304,20.2939354 C10.4375084,20.3269173 10.4882498,20.354825 10.5440654,20.3776587 L14.773362,21.8440855 C15.1615338,21.9963097 15.6029841,21.8034924 15.7552083,21.4178576 C15.9074326,21.0296858 15.7146152,20.5882355 15.3289805,20.4360113 L11.1732589,19.0000294 L11.1732589,17.5336026 L17.9929046,17.5336026 C19.6420005,17.5336026 20.991722,16.1635844 20.991722,14.3394307 L20.991722,3.23213567 C20.991722,1.40798192 19.6420005,0.0379638017 17.9929046,0.0379638017 Z M19.4923133,14.3368936 C19.4923133,15.250239 18.8935646,16.0113602 17.9929046,16.0113602 L2.99881743,16.0113602 C2.09815737,16.0113602 1.49940872,15.250239 1.49940872,14.3368936 L1.49940872,3.23213567 C1.49940872,2.31879026 2.09815737,1.55766908 2.99881743,1.55766908 L17.9929046,1.55766908 C18.8935646,1.55766908 19.4923133,2.31879026 19.4923133,3.23213567 L19.4923133,14.3368936 Z" id="形状"></path>
            <path d="M16.8182409,10.4044342 L13.0988954,6.56330935 C12.8527996,6.30960229 12.4595536,6.30960229 12.2159949,6.56330935 L8.86959877,10.0162624 L5.42679398,6.46182652 C5.18069813,6.21573068 4.79252634,6.22080482 4.55150463,6.46943773 C4.31048292,6.71807065 4.30540878,7.1189278 4.54389342,7.37263486 L8.42814848,11.3812064 C8.54485373,11.5029858 8.70468918,11.5689496 8.86959877,11.5689496 C9.03450835,11.5689496 9.1943438,11.5029858 9.31104905,11.3812064 L12.6574451,7.93079039 L15.9353403,11.3152426 C16.1814362,11.5613384 16.569608,11.5562643 16.8106297,11.3076313 C17.0516514,11.0589984 17.0567255,10.6556042 16.8182409,10.4044342 L16.8182409,10.4044342 Z" id="路径"></path>
        </g>
    </g>
</svg>