<?xml version="1.0" encoding="UTF-8"?>
<svg width="14px" height="15px" viewBox="0 0 14 15" version="1.1" xmlns="http://www.w3.org/2000/svg" xmlns:xlink="http://www.w3.org/1999/xlink">
    <!-- Generator: Sketch 63.1 (92452) - https://sketch.com -->
    <title>模型关联视图</title>
    <desc>Created with Sketch.</desc>
    <g id="页面-1" stroke="none" stroke-width="1" fill="none" fill-rule="evenodd">
        <g id="模型关联视图" transform="translate(0.000000, -0.000000)" fill="#FFFFFF" fill-rule="nonzero">
            <path d="M6.29424735,0.156438023 C6.74695423,-0.0538191633 7.27895008,-0.0520442104 7.73004644,0.161228428 L13.0251149,2.66181699 C13.5666896,2.91730003 13.9082471,3.43693365 13.9079466,4.00492525 L13.9079466,10.7857358 C13.9084879,11.355871 13.5645922,11.8772081 13.0200008,12.1318381 L7.65461264,14.6378158 C7.20305996,14.8491801 6.67164477,14.8491801 6.22009209,14.6378158 L0.886028168,12.1324369 C0.342594277,11.8774978 -0.000419351668,11.3568359 3.84776892e-07,10.7875322 L3.84776892e-07,4.01031445 C3.84776892e-07,3.4379245 0.347038379,2.91519979 0.894977945,2.66181699 L6.2974437,0.154641623 L6.29424735,0.156438023 Z M1.07013588,4.01031445 L1.07013588,10.7875322 C1.07013588,10.9771431 1.18450783,11.1504835 1.36548022,11.2354346 L6.69954414,13.7396159 C6.8500696,13.8100393 7.02719221,13.8100393 7.17771767,13.7396159 L12.5418273,11.234237 C12.7237086,11.1494278 12.8386198,10.9754461 12.8384484,10.785137 L12.8384484,4.00612286 C12.8386201,3.81677788 12.7248601,3.64350489 12.5443843,3.55822051 L7.24867658,1.05583554 C7.09780189,0.985012727 6.92009921,0.985012727 6.76922452,1.05583554 L1.36739803,3.56001691 C1.18485464,3.64484955 1.06960006,3.81944017 1.07013588,4.01031445 L1.07013588,4.01031445 Z" id="形状备份"></path>
            <g id="编组" transform="translate(3.000000, 3.000000)">
                <path d="M7.41227176,6.842388 L6.70590277,7.53773456 C6.05184786,8.17529195 5.00880185,8.17529195 4.35474694,7.53773456 L2.94240897,6.14753034 C2.56661115,5.77996964 2.35478373,5.27648101 2.35478373,4.75081489 C2.35478373,4.22514877 2.56661115,3.72166014 2.94240897,3.35409944 L3.43815173,2.8859572 L3.89536043,3.37209978 L3.40428442,3.83539748 C3.15846195,4.07783418 3.02047497,4.40895119 3.02138618,4.75420966 C3.0222974,5.09946813 3.16203023,5.42985218 3.40912896,5.67098795 L4.82177805,7.06096994 C5.21583739,7.4458304 5.84503454,7.4458304 6.23909389,7.06096994 L6.94546288,6.36597894 C7.19362476,6.12420333 7.33359025,5.792429 7.33359025,5.44596144 C7.33359025,5.09949389 7.19362476,4.76771956 6.94546288,4.52594395 L6.23909389,3.83086406 L6.70576943,3.35414388 L7.41213842,4.04922377 C7.78805099,4.41665963 8,4.92011694 8,5.44577783 C8,5.97143871 7.78814924,6.47491625 7.41227176,6.842388 L7.41227176,6.842388 Z M4.35101354,5.22080161 L3.88407132,4.74417032 L4.59075143,4.04917932 C4.83891331,3.80740371 4.9788788,3.47562938 4.9788788,3.12916183 C4.9788788,2.78269427 4.83891331,2.45091995 4.59075143,2.20914433 L3.41295125,1.05085564 C2.8878933,0.538562697 2.05006219,0.538562697 1.52500424,1.05085564 L1.05437306,1.51415334 C0.806471618,1.75606977 0.666687725,2.08779144 0.666687725,2.43417083 C0.666687725,2.78055023 0.806471618,3.1122719 1.05437306,3.35418833 L1.52509313,3.81748603 L1.05841759,4.29420621 L0.587608632,3.83086406 C0.211817793,3.46324515 0,2.95971711 0,2.43401527 C0,1.90831344 0.211817793,1.40478539 0.587608632,1.03716649 L1.05832869,0.573824342 C1.84323407,-0.191274781 3.09494364,-0.191274781 3.87984902,0.573824342 L5.05742697,1.73215748 C5.43339818,2.09967907 5.64534159,2.60324352 5.64534159,3.12900627 C5.64534159,3.65476902 5.43339818,4.15833347 5.05742697,4.52585506 L4.35101354,5.22080161 Z" id="形状"></path>
            </g>
        </g>
    </g>
</svg>