<?xml version="1.0" encoding="UTF-8"?>
<svg width="200px" height="200px" viewBox="0 0 200 200" version="1.1" xmlns="http://www.w3.org/2000/svg" xmlns:xlink="http://www.w3.org/1999/xlink">
    <!-- Generator: Sketch 52.6 (67491) - http://www.bohemiancoding.com/sketch -->
    <title>数组</title>
    <desc>Created with Sketch.</desc>
    <g id="数组" stroke="none" stroke-width="1" fill="none" fill-rule="evenodd">
        <path d="M40.3273657,137.565217 C40.3273657,143.983585 45.5304811,149.186701 51.9488491,149.186701 C58.3672171,149.186701 63.5703325,143.983585 63.5703325,137.565217 C63.5703325,131.146849 58.3672171,125.943734 51.9488491,125.943734 C45.5304811,125.943734 40.3273657,131.146849 40.3273657,137.565217 Z M88.286445,137.565217 C88.2864448,141.717174 90.501487,145.553739 94.0971866,147.629718 C97.6928861,149.705696 102.122971,149.705696 105.71867,147.629718 C109.31437,145.553739 111.529412,141.717174 111.529412,137.565217 C111.529412,131.146849 106.326296,125.943734 99.9079284,125.943734 C93.4895603,125.943734 88.286445,131.146849 88.286445,137.565217 Z M136.245524,137.565217 C136.245524,141.717174 138.460566,145.553739 142.056266,147.629718 C145.651965,149.705696 150.08205,149.705696 153.67775,147.629718 C157.273449,145.553739 159.488491,141.717174 159.488491,137.565217 C159.488491,133.413261 157.273449,129.576695 153.67775,127.500717 C150.08205,125.424739 145.651965,125.424739 142.056266,127.500717 C138.460566,129.576695 136.245524,133.413261 136.245524,137.565217 Z" id="Shape" fill="#000000" fill-rule="nonzero"></path>
        <path d="M0.0613810742,24.1329923 L40.4910486,24.1329923 L40.4910486,39.601023 L18.6393862,39.601023 L18.6393862,160.071611 L40.4910486,160.071611 L40.4910486,175.867008 L0.0613810742,175.867008 L0.0613810742,24.1329923 Z M159.079284,160.071611 L181.176471,160.071611 L181.176471,39.601023 L159.079284,39.601023 L159.079284,24.1329923 L200,24.1329923 L200,175.867008 L159.079284,175.867008 L159.079284,160.071611 Z" id="Shape" fill="#000000" fill-rule="nonzero"></path>
    </g>
</svg>