<?xml version="1.0" encoding="UTF-8"?>
<svg width="200px" height="200px" viewBox="0 0 200 200" version="1.1" xmlns="http://www.w3.org/2000/svg" xmlns:xlink="http://www.w3.org/1999/xlink">
    <!-- Generator: Sketch 52.6 (67491) - http://www.bohemiancoding.com/sketch -->
    <title>级联菜单</title>
    <desc>Created with Sketch.</desc>
    <g id="级联菜单" stroke="none" stroke-width="1" fill="none" fill-rule="evenodd">
        <path d="M99.7142857,0 C104.974107,0 109.23817,4.2640625 109.23817,9.52388398 L109.23817,47.6189732 C109.23817,52.8787947 104.974107,57.1428572 99.7142857,57.1428572 L54.476116,57.1428572 L54.476116,97.6189732 L90.1904018,97.6189732 L90.1904018,85.7142857 C90.1904018,80.4544643 94.4544643,76.1904018 99.7142857,76.1904018 L175.904687,76.1904018 C181.164509,76.1904018 185.428571,80.4544643 185.428571,85.7142857 L185.428571,123.809598 C185.428571,129.06942 181.164509,133.333259 175.904687,133.333259 L99.7142857,133.333259 C94.4544643,133.333259 90.1904018,129.06942 90.1904018,123.809598 L90.1904018,111.904687 L54.476116,111.904687 L54.476116,161.904687 C54.476116,163.03192 55.259375,163.976116 56.3111607,164.222768 L56.857143,164.285714 L90.1904018,164.285714 L90.1904018,152.381027 C90.1904018,147.121205 94.4544643,142.857143 99.7142857,142.857143 L175.904687,142.857143 C181.164509,142.857143 185.428571,147.121205 185.428571,152.381027 L185.428571,190.476116 C185.428571,195.735938 181.164509,200 175.904687,200 L99.7142857,200 C94.4544643,200 90.1904018,195.735938 90.1904018,190.476116 L90.1904018,178.571429 L56.857143,178.571429 C48.1127232,178.571429 40.9410715,171.837054 40.2455357,163.271652 L40.1904018,161.904687 L40.1904018,57.1428572 L23.523884,57.1428572 C18.2640625,57.1428572 14,52.8787947 14,47.6189732 L14,9.52388398 C14,4.2640625 18.2640625,0 23.523884,0 L99.7142857,0 Z M171.142857,157.142857 L104.476116,157.142857 L104.476116,185.714286 L171.142857,185.714286 L171.142857,157.142857 Z M171.142857,90.476116 L104.476116,90.476116 L104.476116,119.047545 L171.142857,119.047545 L171.142857,90.476116 Z M94.9524555,14.2857143 L28.2857143,14.2857143 L28.2857143,42.8571428 L94.9524555,42.8571428 L94.9524555,14.2857143 Z" id="Shape" stroke="#FFFFFF" stroke-width="3" fill="#000000" fill-rule="nonzero"></path>
    </g>
</svg>