<?xml version="1.0" encoding="UTF-8"?>
<svg width="200px" height="200px" viewBox="0 0 200 200" version="1.1" xmlns="http://www.w3.org/2000/svg" xmlns:xlink="http://www.w3.org/1999/xlink">
    <!-- Generator: Sketch 52.6 (67491) - http://www.bohemiancoding.com/sketch -->
    <title>多选框组</title>
    <desc>Created with Sketch.</desc>
    <g id="多选框组" stroke="none" stroke-width="1" fill="none" fill-rule="evenodd">
        <path d="M18,10 L182,10 C186.418278,10 190,13.581722 190,18 L190,182 C190,186.418278 186.418278,190 182,190 L18,190 C13.581722,190 10,186.418278 10,182 L10,18 C10,13.581722 13.581722,10 18,10 Z M28,20 C23.581722,20 20,23.581722 20,28 L20,172 C20,176.418278 23.581722,180 28,180 L172,180 C176.418278,180 180,176.418278 180,172 L180,28 C180,23.581722 176.418278,20 172,20 L28,20 Z" id="Rectangle-2" fill="#000000" fill-rule="nonzero"></path>
        <g id="叮当贷-对勾" transform="translate(34.000000, 55.000000)" fill="#000000">
            <path d="M130.404647,2.13342086 C127.561011,-0.710215468 122.957375,-0.710215468 120.121011,2.13342086 L49.4116027,72.8428291 L13.4116027,36.8428291 C10.5679663,33.9991928 5.96432992,33.9991928 3.12796633,36.8428291 C0.284329923,39.6864655 0.284329923,44.2901019 3.12796625,47.1264655 L44.2697845,88.2682837 C47.1134208,91.1119201 51.7170572,91.1119201 54.5534208,88.2682837 L130.404647,12.4170572 C133.248284,9.57342086 133.248284,4.96978445 130.404647,2.13342086 Z" id="Path"></path>
        </g>
    </g>
</svg>