<?xml version="1.0" encoding="UTF-8"?>
<svg width="57px" height="56px" viewBox="0 0 57 56" version="1.1" xmlns="http://www.w3.org/2000/svg" xmlns:xlink="http://www.w3.org/1999/xlink">
    <title>实例变更</title>
    <defs>
        <filter x="-40.9%" y="-40.9%" width="181.7%" height="182.4%" filterUnits="objectBoundingBox" id="filter-1">
            <feOffset dx="0" dy="2" in="SourceAlpha" result="shadowOffsetOuter1"></feOffset>
            <feGaussianBlur stdDeviation="2.5" in="shadowOffsetOuter1" result="shadowBlurOuter1"></feGaussianBlur>
            <feColorMatrix values="0 0 0 0 0   0 0 0 0 0   0 0 0 0 0  0 0 0 0.04 0" type="matrix" in="shadowBlurOuter1" result="shadowMatrixOuter1"></feColorMatrix>
            <feMerge>
                <feMergeNode in="shadowMatrixOuter1"></feMergeNode>
                <feMergeNode in="SourceGraphic"></feMergeNode>
            </feMerge>
        </filter>
    </defs>
    <g id="页面-1" stroke="none" stroke-width="1" fill="none" fill-rule="evenodd">
        <g id="画板" transform="translate(-13.000000, -3.000000)">
            <g id="实例变更" transform="translate(21.000000, 9.000000)">
                <rect id="矩形" fill-opacity="0.01" fill="#202021" x="0" y="0" width="40" height="40"></rect>
                <g id="自动采集" filter="url(#filter-1)" transform="translate(3.000000, 4.629601)" stroke="#FFFFFF" stroke-width="1.5">
                    <path d="M16.6155789,0.367916799 L2.60472727,6.65803524 L2.60472727,6.65803524 C2.60472727,6.65803524 2.00363636,6.90676251 2.00363636,7.3696716 C2.00363636,7.86021705 2.62545455,8.22639887 2.62545455,8.22639887 L16.492,15.5362171 C16.7752727,15.6605807 17.1,15.7296716 17.4316364,15.7296716 C17.7770909,15.7296716 18.0949091,15.6536716 18.3781818,15.529308 L32.2378182,8.21258069 C32.2378182,8.21258069 32.7977045,7.91548978 32.7977045,7.35585342 C32.8043636,6.88603524 32.2516364,6.65803524 32.2516364,6.65803524 L18.2544747,0.368202301 C17.7332977,0.134003661 17.1368374,0.133899756 16.6155789,0.367916799 Z" id="路径" stroke-linecap="round"></path>
                    <path d="M14.6127273,18.0165807 L14.6127273,18.0165807 L1.32654545,11.121308 C1.20218182,11.0729443 1.07781818,11.045308 0.946545455,11.045308 C0.421454545,11.045308 0,11.425308 0,11.9020352 L0,25.6442171 C0,26.3420352 0.393818182,26.9845807 1.02254545,27.2954898 L1.03636364,27.3023989 L14.1014545,34.2322171 C14.2534545,34.3151261 14.4192727,34.3634898 14.592,34.3565807 C15.1170909,34.3565807 15.5385455,33.9696716 15.5385455,33.4998534 L15.5385455,19.6125807 C15.5316364,18.9562171 15.1792727,18.3482171 14.6127273,18.0165807 Z" id="路径"></path>
                    <path d="M33.9236364,11.0522171 C33.7923636,11.0522171 33.6610909,11.0729443 33.5436364,11.1282171 L20.2643636,18.0096716 L20.2574545,18.0096716 C19.684,18.341308 19.3316364,18.949308 19.3247273,19.6125807 L19.3247273,33.5136716 C19.3247273,33.9903989 19.7461818,34.3703989 20.2712727,34.3703989 C20.4301818,34.3703989 20.5821818,34.3358534 20.7272727,34.2667625 C20.7410909,34.2598534 20.7549091,34.2529443 20.7618182,34.2460352 L33.8269091,27.3162171 L33.8476364,27.309308 C34.4556364,27.1020352 34.8701818,26.5354898 34.8701818,25.8860352 L34.8701818,11.9158534 C34.8701818,11.4391261 34.4418182,11.0522171 33.9236364,11.0522171 Z" id="路径"></path>
                </g>
                <path d="M23.9716571,12.570278 L25.9010607,12.570278 C25.9010607,14.0509116 23.511911,15.4594091 21.0006955,15.4594091 C20.2342201,15.4594091 19.5049557,15.3479261 18.876891,15.146273 L17.7661276,15.5950741 C18.7320982,15.9576847 19.8536417,16.1502349 20.9989567,16.1502349 C24.3524604,16.1502349 27.0705964,14.5486914 27.0705964,12.570278 L29,12.570278 L26.3110763,10.7808119 L23.9716571,12.570278 Z M16.0989393,12.570278 C16.0989393,11.0896444 18.488089,9.68114681 20.9989567,9.68114681 C21.7657799,9.68114681 22.4950443,9.79262981 23.123109,9.99428289 L24.2321335,9.54548184 C23.2660632,9.18283374 22.14439,8.99023402 20.9989567,8.990321 C17.6458007,8.990321 14.9276648,10.5918646 14.9276648,12.570278 L13,12.570278 L15.6871848,14.3597441 L18.0266041,12.570278 L16.0989393,12.570278 Z" id="形状" fill="#FFFFFF" fill-rule="nonzero"></path>
            </g>
        </g>
    </g>
</svg>