<?xml version="1.0" encoding="UTF-8"?>
<svg width="200px" height="200px" viewBox="0 0 200 200" version="1.1" xmlns="http://www.w3.org/2000/svg" xmlns:xlink="http://www.w3.org/1999/xlink">
    <title>实例变更</title>
    <g id="页面-1" stroke="none" stroke-width="1" fill="none" fill-rule="evenodd">
        <g id="实例变更">
            <rect id="矩形" fill-opacity="0.01" fill="#202021" fill-rule="nonzero" x="0" y="0" width="200" height="200"></rect>
            <g id="自动采集" transform="translate(15.000000, 24.110398)" stroke="#FFFFFF" stroke-width="5">
                <path d="M83.0778945,0.877190802 L13.0236364,32.327783 L13.0236364,32.327783 C13.0236364,32.327783 10.0181818,33.5714194 10.0181818,35.8859648 C10.0181818,38.3386921 13.1272728,40.1696012 13.1272728,40.1696012 L82.46,76.7186923 C83.8763635,77.3405103 85.5,77.6859648 87.158182,77.6859648 C88.8854545,77.6859648 90.4745455,77.3059648 91.890909,76.6841468 L161.189091,40.1005103 C161.189091,40.1005103 163.988821,38.6150557 163.988821,35.8168739 C164.021818,33.467783 161.258182,32.327783 161.258182,32.327783 L91.2723735,0.878618312 C88.6664885,-0.292374888 85.684187,-0.292894413 83.0778945,0.877190802 Z" id="路径" stroke-linecap="round"></path>
                <path d="M73.0636365,89.1205103 L73.0636365,89.1205103 L6.63272725,54.6441468 C6.0109091,54.4023283 5.3890909,54.2641468 4.73272728,54.2641468 C2.10727273,54.2641468 0,56.1641468 0,58.5477828 L0,127.258692 C0,130.747783 1.96909091,133.96051 5.11272725,135.515056 L5.1818182,135.549601 L70.5072725,170.198692 C71.2672725,170.613237 72.0963635,170.855056 72.96,170.82051 C75.5854545,170.82051 77.6927275,168.885965 77.6927275,166.536874 L77.6927275,97.1005103 C77.658182,93.8186923 75.8963635,90.7786923 73.0636365,89.1205103 Z" id="路径"></path>
                <path d="M169.618182,54.2986923 C168.961818,54.2986923 168.305455,54.4023283 167.718182,54.6786923 L101.321818,89.0859648 L101.287273,89.0859648 C98.42,90.7441468 96.658182,93.7841468 96.6236365,97.1005103 L96.6236365,166.605965 C96.6236365,168.989601 98.730909,170.889601 101.356364,170.889601 C102.150909,170.889601 102.910909,170.716874 103.636364,170.371419 C103.705455,170.336874 103.774546,170.302328 103.809091,170.267783 L169.134546,135.618692 L169.238182,135.584147 C172.278182,134.547783 174.350909,131.715056 174.350909,128.467783 L174.350909,58.6168738 C174.350909,56.2332373 172.209091,54.2986923 169.618182,54.2986923 Z" id="路径"></path>
            </g>
            <path d="M119.858285,62.85139 L129.505303,62.85139 C129.505303,70.254558 117.559555,77.2970455 105.003477,77.2970455 C101.171101,77.2970455 97.5247785,76.7396305 94.384455,75.731365 L88.830638,77.9753705 C93.660491,79.7884235 99.2682085,80.7511745 104.994783,80.7511745 C121.762302,80.7511745 135.352982,72.743457 135.352982,62.85139 L145,62.85139 L131.555381,53.9040595 L119.858285,62.85139 Z M80.4946965,62.85139 C80.4946965,55.448222 92.440445,48.405734 104.994784,48.405734 C108.8289,48.405734 112.475222,48.963149 115.615545,49.9714144 L121.160668,47.7274092 C116.330316,45.9141687 110.72195,44.9511701 104.994784,44.9516049 C88.2290035,44.9516049 74.638324,52.959323 74.638324,62.85139 L65,62.85139 L78.435924,71.7987205 L90.1330205,62.85139 L80.4946965,62.85139 Z" id="形状" fill="#FFFFFF" fill-rule="nonzero"></path>
        </g>
    </g>
</svg>