<?xml version="1.0" encoding="UTF-8"?>
<svg width="200px" height="200px" viewBox="0 0 200 200" version="1.1" xmlns="http://www.w3.org/2000/svg" xmlns:xlink="http://www.w3.org/1999/xlink">
    <title>编组 9</title>
    <g id="其他" stroke="none" stroke-width="1" fill="none" fill-rule="evenodd">
        <g id="Apple-TV备份" transform="translate(-425.000000, -693.000000)">
            <g id="编组-9" transform="translate(425.000000, 693.000000)">
                <rect id="矩形" x="0" y="0" width="200" height="200"></rect>
                <g id="自动采集备份-2" transform="translate(4.000000, 7.000000)" fill="#000000" fill-rule="nonzero">
                    <path d="M86.2854567,2.05049681 L16.3377201,32.6212758 L15.9848167,32.7865288 C15.8564318,32.849784 15.7177337,32.9213056 15.5700339,33.0013804 C14.9794096,33.3215848 14.3892861,33.7021127 13.8186099,34.1579977 C11.8644269,35.7190979 10.5454545,37.7885201 10.5454545,40.4602415 C10.5454545,43.0282522 11.7265796,45.1214683 13.5266884,46.8915753 C14.4416248,47.7912627 15.3354098,48.435119 16.0347087,48.8469283 L16.2197074,48.9500867 L89.3437899,87.4978093 L89.4910447,87.5624578 C91.5740517,88.4769487 93.9014881,88.9602415 96.2454545,88.9602415 C98.621041,88.9602415 100.908356,88.4602819 103.036228,87.5260941 L103.184711,87.4609063 L176.273572,48.876109 C176.526931,48.7416812 176.842,48.5520022 177.206848,48.2976234 C177.775671,47.9010284 178.339427,47.4328331 178.875379,46.8805862 C180.547396,45.1577335 181.621082,42.9814125 181.621082,40.3875142 C181.656407,37.8153161 180.4282,35.7175347 178.571786,34.1629268 C178.02057,33.7013251 177.449033,33.3198495 176.875712,33.0021486 C176.513333,32.8013392 176.202452,32.654229 175.961444,32.5548132 L105.878309,2.03715509 C99.6297698,-0.683684931 92.5302849,-0.67885055 86.2854567,2.05049681 Z M102.285239,10.2888124 L172.261,40.7587304 L172.121798,40.8760719 L172.06346,40.9215591 L99.304,79.3317304 L99.4183174,79.2852979 C98.40843,79.7286631 97.348959,79.9602415 96.2454545,79.9602415 L95.8777414,79.9518794 C95.0215406,79.912996 94.1812471,79.7394855 93.4268201,79.4518576 L93.22,79.3667304 L20.547,41.0567304 L20.475938,41.008927 L20.2918465,40.87197 L20.166,40.7697304 L89.8897612,10.2972531 C93.8405709,8.57052312 98.3320818,8.56746464 102.285239,10.2888124 Z" id="路径"></path>
                    <path d="M122.151673,29.8999789 L123.750167,29.8999789 L143.073016,40.952021 L127.940375,40.9428822 L127.805621,41.7964992 C126.011402,49.7509429 115.595199,55.7910253 102.563134,56.8741807 L100.367933,57.0082874 L98.3452117,57.0479128 C93.7214924,57.0479128 89.2482217,56.4177343 85.1981124,55.2326879 L82.8210078,54.4556785 L79.5529283,53.2700461 L87.7160815,48.60579 L88.9932826,48.4666217 C91.784042,49.3361415 95.0060651,49.8015007 98.3535499,49.8015007 C107.297596,49.8015007 114.7201,46.4568579 117.061273,42.1893158 L117.48388,41.2615991 L117.564916,40.9428822 L102.840635,40.952021 L122.151673,29.8999789 Z M100.580844,21.6404504 C105.205235,21.6404504 109.679155,22.2706224 113.729851,23.4556562 L116.1073,24.2326574 L119.372945,25.4172224 L111.220725,30.0820683 L109.942708,30.2217626 C107.15147,29.3522287 103.928897,28.8868625 100.580844,28.8868625 C91.6353057,28.8868625 84.2115441,32.2315543 81.8699737,36.4990733 L81.4472948,37.426784 L81.3527382,37.7347515 L96.0845975,37.7363421 L76.7704641,48.7882336 L75.1718003,48.7882336 L55.8576669,37.7363421 L70.9665493,37.7347515 L71.1161027,36.8918488 C72.910584,28.937364 83.3283099,22.8973273 96.362298,21.814181 L98.557824,21.6800754 L100.580844,21.6404504 Z" id="形状备份"></path>
                    <path d="M9.48181818,55.305696 C4.3255404,55.305696 0,59.2161593 0,64.3147869 L0,136.64206 C0,141.922036 2.92496749,146.769056 7.58717191,149.213942 L7.84596043,149.34474 L76.9077831,185.973898 C78.2102731,186.630074 79.6453072,187.001993 81.135117,187.000125 L81.3,186.996605 C86.4473685,186.996605 90.7818182,183.056196 90.7818182,177.987514 L90.7818182,104.896605 C90.7302406,99.9730502 88.1959726,95.4439346 84.073278,92.8503135 L83.6155267,92.5717762 L13.3391566,56.0996923 L13.1128264,56.011675 C11.9304143,55.5518481 10.7324743,55.305696 9.48181818,55.305696 Z M9.53218231,64.3085141 L9.59163353,64.3179113 L9.678,64.3397304 L79.205,100.42273 L79.3419794,100.506007 L79.5394468,100.637097 C80.8984768,101.587235 81.763826,103.211031 81.7820675,104.943971 L81.781,177.85273 L81.8002452,177.839602 C81.701983,177.928931 81.5260981,177.996605 81.3,177.996605 L81.1201438,178.000201 L81.0887978,177.991934 L81.007806,177.959307 L80.8730164,177.89153 L11.9670066,141.34441 L11.8942794,141.308046 L11.6841965,141.198156 C10.029361,140.284107 9,138.541083 9,136.64206 L9,64.4357304 L8.97233083,64.4574413 C9.0653529,64.3733456 9.24337819,64.305696 9.48181818,64.305696 L9.53218231,64.3085141 Z" id="路径"></path>
                    <path d="M183.045455,55.3420596 C181.676847,55.3420596 180.360219,55.5911513 179.129368,56.1703755 L178.974998,56.246661 L110.058,91.9597304 L109.910669,91.9602415 L108.865369,92.5647525 C104.472197,95.105382 101.762274,99.7676158 101.709091,104.849733 L101.709091,178.060241 C101.709091,183.158869 106.034631,187.069332 111.190909,187.069332 C112.698617,187.069332 114.159361,186.737345 115.52561,186.08675 L115.74152,185.978227 L115.92808,185.876427 L116.096,185.77573 L184.338,149.57873 L184.656332,149.458133 C189.392609,147.579111 192.527273,143.037901 192.527273,137.914787 L192.527273,64.3875142 C192.527273,59.3000666 188.175652,55.3420596 183.045455,55.3420596 Z M182.923,64.3357304 L182.92894,64.3404883 L182.951185,64.3421772 L183.045455,64.3420596 L183.166171,64.3498468 C183.282259,64.3650822 183.383512,64.4016459 183.46142,64.4503881 L183.527273,64.4997304 L183.527273,137.914787 C183.527273,139.379769 182.596934,140.66793 181.193422,141.1464 L180.758349,141.291315 L111.495,178.02773 L111.415337,178.048667 C111.349488,178.06142 111.273419,178.069332 111.190909,178.069332 L111.076837,178.063932 C110.931758,178.049847 110.815352,178.009488 110.734903,177.958027 L110.709,177.93873 L110.709,104.896605 L110.717225,104.654473 C110.808394,103.045877 111.634529,101.556774 112.958955,100.61982 L113.128,100.50473 L182.923,64.3357304 Z" id="路径"></path>
                </g>
            </g>
        </g>
    </g>
</svg>
