<?xml version="1.0" encoding="UTF-8"?>
<svg width="200px" height="200px" viewBox="0 0 213 213" version="1.1" xmlns="http://www.w3.org/2000/svg" xmlns:xlink="http://www.w3.org/1999/xlink">
    <title>写入</title>
    <defs>
        <filter x="-7.0%" y="-7.0%" width="114.0%" height="114.0%" filterUnits="objectBoundingBox" id="filter-1">
            <feOffset dx="0" dy="2" in="SourceAlpha" result="shadowOffsetOuter1"></feOffset>
            <feGaussianBlur stdDeviation="2.5" in="shadowOffsetOuter1" result="shadowBlurOuter1"></feGaussianBlur>
            <feColorMatrix values="0 0 0 0 0   0 0 0 0 0   0 0 0 0 0  0 0 0 0.04 0" type="matrix" in="shadowBlurOuter1" result="shadowMatrixOuter1"></feColorMatrix>
            <feMerge>
                <feMergeNode in="shadowMatrixOuter1"></feMergeNode>
                <feMergeNode in="SourceGraphic"></feMergeNode>
            </feMerge>
        </filter>
    </defs>
    <g id="其他" stroke="none" stroke-width="1" fill="none" fill-rule="evenodd">
        <g id="写入" transform="translate(6.000000, 6.000000)">
            <rect id="矩形" x="0" y="0" width="200" height="200"></rect>
            <g id="自动采集" filter="url(#filter-1)" transform="translate(4.000000, 4.000000)" fill="#000000" fill-rule="nonzero">
                <path d="M105.536364,15.5636364 L86.3727273,15.5636364 L86.3727273,9.56363636 L105.572727,9.56363636 L105.536364,15.5636364 L105.536364,15.5636364 Z M86.5545455,0 L105.536364,0 L105.354545,6.10909091 L86.5545455,6.10909091 L86.5545455,0 Z M86.5545455,18.2545455 L105.536364,18.2545455 L105.536364,30.6545455 L120.227273,30.6545455 L95.7545455,59.6363636 L71.2818182,30.6545455 L86.5545455,30.6545455 L86.5545455,18.2545455 Z" id="形状"></path>
                <path d="M48.8384271,23.4585286 C51.1056155,22.4404519 53.7688492,23.4530569 54.7869259,25.7202453 C55.7750592,27.9207517 54.850206,30.4943491 52.7219797,31.5746963 L52.5252092,31.6687441 L20.164,46.2 L20.1848171,46.2168811 C20.2585788,46.277488 20.3281369,46.3314922 20.3898077,46.3772791 L20.547,46.488 L93.225,84.8 L93.4268201,84.8825252 C94.1812471,85.1701532 95.0215406,85.3436636 95.8777414,85.382547 L96.2454545,85.3909091 C97.2263474,85.3909091 98.1724483,85.2079336 99.0798595,84.8558828 L99.304,84.762 L172.062914,46.3525165 L172.221133,46.2253664 L172.263,46.188 L141.564865,32.395642 C139.36456,31.4070614 138.346439,28.8689149 139.219737,26.6476883 L139.304358,26.4466836 C140.292939,24.2463781 142.831085,23.2282573 145.052312,24.1015552 L145.253316,24.1861762 L176.114265,38.0508926 C176.275175,38.1221222 176.459909,38.2109496 176.664499,38.3186718 L176.87556,38.4327403 C177.448768,38.750378 178.020192,39.1317773 178.571302,39.5932894 C180.428201,41.1482998 181.656459,43.2468792 181.620192,45.8181818 C181.620192,48.4117202 180.546848,50.5878899 178.87541,52.3107183 C178.339594,52.8630084 177.775969,53.3312505 177.207269,53.7278904 C176.915442,53.9314254 176.65546,54.0935507 176.43315,54.2192521 L176.273572,54.3067766 L103.184711,92.8915739 L103.036228,92.9567618 C100.908356,93.8909496 98.621041,94.3909091 96.2454545,94.3909091 C94.0577526,94.3909091 91.88445,93.9699074 89.9108377,93.1702588 L89.4910447,92.9931254 L89.3437899,92.9284769 L16.2197074,54.3807544 L16.0347087,54.2775959 C15.3354098,53.8657866 14.4416248,53.2219304 13.5266884,52.3222429 C11.7265796,50.552136 10.5454545,48.4589199 10.5454545,45.8909091 C10.5454545,43.2191877 11.8644269,41.1497655 13.8186099,39.5886653 C14.3892861,39.1327803 14.9794096,38.7522524 15.5700339,38.4320481 C15.8654335,38.2718984 16.1248263,38.1459616 16.3377201,38.0519435 L16.399,38.025 L48.8384271,23.4585286 Z" id="路径"></path>
                <path d="M81.135117,192.430793 L81.3,192.427273 C86.4473685,192.427273 90.7818182,188.486864 90.7818182,183.418182 L90.7818182,110.327273 C90.7302406,105.403718 88.1959726,100.874602 84.073278,98.2809811 L83.6155267,98.0024439 L13.3391566,61.5303599 L13.1128264,61.4423426 C11.9304143,60.9825157 10.7324743,60.7363636 9.48181818,60.7363636 C4.3255404,60.7363636 0,64.6468269 0,69.7454545 L0,142.072727 L0.00396090159,142.40914 C0.125253138,147.557872 3.02416333,152.251743 7.58717191,154.64461 L7.873,154.79 L76.6095968,191.248135 C77.9898227,192.001312 79.5307064,192.432805 81.135117,192.430793 Z M9.53218231,69.7391818 L9.59163353,69.7485789 L9.678,69.77 L79.2,105.85 L79.3419794,105.936675 L79.5394468,106.067765 C80.8984768,107.017903 81.763826,108.641699 81.7820675,110.374639 L81.781,183.284 L81.8002452,183.27027 C81.701983,183.359599 81.5260981,183.427273 81.3,183.427273 L81.110417,183.429106 L81.0547671,183.410007 L80.9473954,183.361154 L12.0631305,146.824592 L11.6841965,146.628824 C10.029361,145.714774 9,143.971751 9,142.072727 L9,69.866 L8.97233083,69.888109 C9.0653529,69.8040132 9.24337819,69.7363636 9.48181818,69.7363636 L9.53218231,69.7391818 Z" id="路径"></path>
                <path d="M183.045455,60.7727273 C181.676847,60.7727273 180.360219,61.021819 179.129368,61.6010431 L178.974998,61.6773286 L110.059,97.39 L109.910669,97.3909091 L108.865369,97.9954201 C104.472197,100.53605 101.762274,105.198283 101.709091,110.2804 L101.709091,183.490909 C101.709091,188.589537 106.034631,192.5 111.190909,192.5 C112.698617,192.5 114.159361,192.168013 115.52561,191.517418 L115.74152,191.408894 L115.92808,191.307094 L116.107,191.2 L184.344,155.007 L184.656332,154.888801 C189.392609,153.009779 192.527273,148.468568 192.527273,143.345455 L192.527273,69.8181818 C192.527273,64.7307343 188.175652,60.7727273 183.045455,60.7727273 Z M182.924,69.767 L183.045455,69.7727273 L183.166171,69.7805144 C183.282259,69.7957499 183.383512,69.8323135 183.46142,69.8810558 L183.527273,69.93 L183.527273,143.345455 C183.527273,144.810437 182.596934,146.098598 181.193422,146.577068 L180.758349,146.721982 L111.498,183.458 L111.415337,183.479334 C111.349488,183.492088 111.273419,183.5 111.190909,183.5 L111.076837,183.4946 C110.931758,183.480515 110.815352,183.440156 110.734903,183.388695 L110.709,183.369 L110.709,110.327273 L110.717225,110.085141 C110.808394,108.476544 111.634529,106.987442 112.958955,106.050487 L113.127,105.936 L182.924,69.767 Z" id="路径"></path>
            </g>
        </g>
    </g>
</svg>
