<?xml version="1.0" encoding="UTF-8"?>
<svg width="200px" height="200px" viewBox="0 0 200 200" version="1.1" xmlns="http://www.w3.org/2000/svg" xmlns:xlink="http://www.w3.org/1999/xlink">
    <!-- Generator: Sketch 52.6 (67491) - http://www.bohemiancoding.com/sketch -->
    <title>CMDB实例选择</title>
    <desc>Created with Sketch.</desc>
    <g id="CMDB实例选择" stroke="none" stroke-width="1" fill="none" fill-rule="evenodd">
        <path d="M54.2,158.88 C57.52,158.88 60.28,159.72 62.44,161.48 C64.52,163.16 65.8,165.48 66.24,168.36 L62,168.36 C61.52,166.44 60.6,165 59.24,164.08 C57.88,163.16 56.2,162.72 54.12,162.72 C51.04,162.72 48.72,163.76 47.16,165.88 C45.68,167.8 44.96,170.44 44.96,173.76 C44.96,177.2 45.68,179.84 47.12,181.72 C48.64,183.72 51,184.72 54.2,184.72 C56.28,184.72 58.04,184.2 59.4,183.16 C60.84,182.04 61.84,180.36 62.4,178.12 L66.64,178.12 C66,181.44 64.52,184.04 62.16,185.92 C59.96,187.68 57.32,188.56 54.24,188.56 C49.56,188.56 46.04,187.04 43.68,184.08 C41.6,181.52 40.6,178.08 40.6,173.76 C40.6,169.52 41.64,166.08 43.8,163.4 C46.2,160.36 49.64,158.88 54.2,158.88 Z M71.04,159.44 L76.2,159.44 L86.16,182.32 L86.28,182.32 L96.2,159.44 L101.36,159.44 L101.36,188 L97,188 L97,167.6 L96.84,167.6 L88.08,188 L84.32,188 L75.56,167.6 L75.4,167.6 L75.4,188 L71.04,188 L71.04,159.44 Z M106.96,159.44 L117.36,159.44 C121.96,159.44 125.44,160.72 127.84,163.32 C130.08,165.72 131.2,169.2 131.2,173.72 C131.2,178.2 130.04,181.68 127.76,184.16 C125.36,186.72 121.88,188 117.28,188 L106.96,188 L106.96,159.44 Z M111.32,163.16 L111.32,184.28 L116.48,184.28 C120.08,184.28 122.76,183.4 124.44,181.68 C126.08,179.96 126.92,177.32 126.92,173.72 C126.92,170.04 126.08,167.4 124.48,165.72 C122.8,164 120.16,163.16 116.56,163.16 L111.32,163.16 Z M135.64,159.44 L148.68,159.44 C151.48,159.44 153.64,160.08 155.24,161.44 C156.76,162.72 157.52,164.44 157.52,166.64 C157.52,168.24 157.12,169.6 156.32,170.72 C155.52,171.76 154.44,172.56 153,173.08 C154.88,173.44 156.32,174.2 157.28,175.36 C158.24,176.52 158.72,178.08 158.72,180 C158.72,182.88 157.72,184.96 155.76,186.32 C154.08,187.44 151.72,188 148.68,188 L135.64,188 L135.64,159.44 Z M140,163.04 L140,171.56 L147.52,171.56 C149.52,171.56 150.96,171.2 151.84,170.52 C152.72,169.8 153.16,168.68 153.16,167.16 C153.16,165.72 152.72,164.68 151.84,164.04 C150.96,163.36 149.52,163.04 147.6,163.04 L140,163.04 Z M140,175.12 L140,184.4 L148.08,184.4 C149.92,184.4 151.36,184.08 152.4,183.52 C153.68,182.76 154.36,181.56 154.36,179.92 C154.36,178.24 153.84,177 152.84,176.24 C151.84,175.48 150.28,175.12 148.2,175.12 L140,175.12 Z" id="CMDB" fill="#000000"></path>
        <path d="M155.359895,80.4859569 C157.922554,80.4859569 160,82.2405562 160,84.4049641 C160,86.569372 157.922554,88.3239713 155.359895,88.3239713 L87.3050294,88.3239713 C84.7423704,88.3239713 82.6649249,86.569372 82.6649249,84.4049641 C82.6649249,82.2405562 84.7423704,80.4859569 87.3050294,80.4859569 L155.359895,80.4859569 Z M155.359895,120.155454 C157.922554,120.155454 160,121.910053 160,124.074461 C160,126.238869 157.922554,127.993468 155.359895,127.993468 L87.3050294,127.993468 C84.7423704,127.993468 82.6649249,126.238869 82.6649249,124.074461 C82.6649249,121.910053 84.7423704,120.155454 87.3050294,120.155454 L155.359895,120.155454 Z M155.359895,37.7397282 C157.922554,37.7397282 160,39.4943275 160,41.6587354 C160,43.8231433 157.922554,45.5777426 155.359895,45.5777426 L87.3050294,45.5777426 C84.7423704,45.5777426 82.6649249,43.8231433 82.6649249,41.6587354 C82.6649249,39.4943275 84.7423704,37.7397282 87.3050294,37.7397282 L155.359895,37.7397282 Z M52.1983179,44.7429567 L67.8188323,29.8103059 C69.1652125,28.649373 71.1851169,28.7468962 72.4133933,30.0321361 C73.6416698,31.3173761 73.647586,33.3396247 72.4268507,34.6320294 L54.4021527,51.8887242 C53.7598683,52.5011041 52.9002338,52.8326221 52.0130869,52.8100675 C51.12594,52.787513 50.2842621,52.4127412 49.6739252,51.7685151 L40.978795,42.6125829 C39.7807119,41.2659919 39.8675344,39.2115997 41.1749616,37.9708964 C42.4823888,36.7301931 44.5385095,36.7510061 45.8205534,38.0179211 L52.1983179,44.7429567 Z M52.1983179,86.4909689 L67.812154,71.5583181 C69.1585342,70.3973852 71.1784387,70.4949084 72.4067151,71.7801483 C73.6349915,73.0653883 73.6409077,75.0876369 72.4201724,76.3800416 L54.4021527,93.6367364 C53.7598683,94.2491163 52.9002338,94.5806343 52.0130869,94.5580797 C51.12594,94.5355252 50.2842621,94.1607534 49.6739252,93.5165273 L40.978795,84.3605951 C39.7807119,83.0140041 39.8675344,80.9596119 41.1749616,79.7189086 C42.4823888,78.4782053 44.5385095,78.4990183 45.8205534,79.7659333 L52.1983179,86.4909689 Z M67.812154,112.30633 C69.1585342,111.145397 71.1784387,111.242921 72.4067151,112.528161 C73.6349915,113.8134 73.6409077,115.835649 72.4201724,117.128054 L54.4021527,134.384749 C53.7598683,134.997128 52.9002338,135.328647 52.0130869,135.306092 C51.12594,135.283537 50.2842621,134.908766 49.6739252,134.264539 L40.9921516,125.108607 C40.1254155,124.252099 39.794065,122.991462 40.1276214,121.819464 C40.4611779,120.647467 41.4066718,119.750226 42.5945196,119.478463 C43.7823675,119.2067 45.0239363,119.603572 45.83391,120.513946 L52.2116745,127.238981 L67.8188323,112.30633 L67.812154,112.30633 Z" id="Shape" fill="#000000" fill-rule="nonzero"></path>
    </g>
</svg>