<?xml version="1.0" encoding="UTF-8"?>
<svg width="200px" height="200px" viewBox="0 0 200 200" version="1.1" xmlns="http://www.w3.org/2000/svg" xmlns:xlink="http://www.w3.org/1999/xlink">
    <!-- Generator: Sketch 52.6 (67491) - http://www.bohemiancoding.com/sketch -->
    <title>CMDB级联菜单</title>
    <desc>Created with Sketch.</desc>
    <g id="CMDB级联菜单" stroke="none" stroke-width="1" fill="none" fill-rule="evenodd">
        <path d="M100,18 C103.068229,18 105.555599,20.4873698 105.555599,23.555599 L105.555599,45.7777344 C105.555599,48.8459636 103.068229,51.3333334 100,51.3333334 L73.6110677,51.3333334 L73.6110677,74.944401 L94.444401,74.944401 L94.444401,68 C94.444401,64.9317708 96.9317708,62.444401 100,62.444401 L144.444401,62.444401 C147.51263,62.444401 150,64.9317708 150,68 L150,90.2222656 C150,93.2904948 147.51263,95.7777344 144.444401,95.7777344 L100,95.7777344 C96.9317708,95.7777344 94.444401,93.2904948 94.444401,90.2222656 L94.444401,83.2777344 L73.6110677,83.2777344 L73.6110677,112.444401 C73.6110677,113.101953 74.0679687,113.652734 74.6815104,113.796615 L75.0000001,113.833333 L94.444401,113.833333 L94.444401,106.888932 C94.444401,103.820703 96.9317708,101.333333 100,101.333333 L144.444401,101.333333 C147.51263,101.333333 150,103.820703 150,106.888932 L150,129.111068 C150,132.179297 147.51263,134.666667 144.444401,134.666667 L100,134.666667 C96.9317708,134.666667 94.444401,132.179297 94.444401,129.111068 L94.444401,122.166667 L75.0000001,122.166667 C69.8990886,122.166667 65.715625,118.238281 65.3098958,113.241797 L65.2777344,112.444401 L65.2777344,51.3333334 L55.555599,51.3333334 C52.4873698,51.3333334 50,48.8459636 50,45.7777344 L50,23.555599 C50,20.4873698 52.4873698,18 55.555599,18 L100,18 Z M141.666667,109.666667 L102.777734,109.666667 L102.777734,126.333333 L141.666667,126.333333 L141.666667,109.666667 Z M141.666667,70.7777343 L102.777734,70.7777343 L102.777734,87.4444011 L141.666667,87.4444011 L141.666667,70.7777343 Z M97.2222657,26.3333333 L58.3333333,26.3333333 L58.3333333,42.9999999 L97.2222657,42.9999999 L97.2222657,26.3333333 Z" id="Shape" fill="#000000" fill-rule="nonzero"></path>
        <path d="M54.2,158.88 C57.52,158.88 60.28,159.72 62.44,161.48 C64.52,163.16 65.8,165.48 66.24,168.36 L62,168.36 C61.52,166.44 60.6,165 59.24,164.08 C57.88,163.16 56.2,162.72 54.12,162.72 C51.04,162.72 48.72,163.76 47.16,165.88 C45.68,167.8 44.96,170.44 44.96,173.76 C44.96,177.2 45.68,179.84 47.12,181.72 C48.64,183.72 51,184.72 54.2,184.72 C56.28,184.72 58.04,184.2 59.4,183.16 C60.84,182.04 61.84,180.36 62.4,178.12 L66.64,178.12 C66,181.44 64.52,184.04 62.16,185.92 C59.96,187.68 57.32,188.56 54.24,188.56 C49.56,188.56 46.04,187.04 43.68,184.08 C41.6,181.52 40.6,178.08 40.6,173.76 C40.6,169.52 41.64,166.08 43.8,163.4 C46.2,160.36 49.64,158.88 54.2,158.88 Z M71.04,159.44 L76.2,159.44 L86.16,182.32 L86.28,182.32 L96.2,159.44 L101.36,159.44 L101.36,188 L97,188 L97,167.6 L96.84,167.6 L88.08,188 L84.32,188 L75.56,167.6 L75.4,167.6 L75.4,188 L71.04,188 L71.04,159.44 Z M106.96,159.44 L117.36,159.44 C121.96,159.44 125.44,160.72 127.84,163.32 C130.08,165.72 131.2,169.2 131.2,173.72 C131.2,178.2 130.04,181.68 127.76,184.16 C125.36,186.72 121.88,188 117.28,188 L106.96,188 L106.96,159.44 Z M111.32,163.16 L111.32,184.28 L116.48,184.28 C120.08,184.28 122.76,183.4 124.44,181.68 C126.08,179.96 126.92,177.32 126.92,173.72 C126.92,170.04 126.08,167.4 124.48,165.72 C122.8,164 120.16,163.16 116.56,163.16 L111.32,163.16 Z M135.64,159.44 L148.68,159.44 C151.48,159.44 153.64,160.08 155.24,161.44 C156.76,162.72 157.52,164.44 157.52,166.64 C157.52,168.24 157.12,169.6 156.32,170.72 C155.52,171.76 154.44,172.56 153,173.08 C154.88,173.44 156.32,174.2 157.28,175.36 C158.24,176.52 158.72,178.08 158.72,180 C158.72,182.88 157.72,184.96 155.76,186.32 C154.08,187.44 151.72,188 148.68,188 L135.64,188 L135.64,159.44 Z M140,163.04 L140,171.56 L147.52,171.56 C149.52,171.56 150.96,171.2 151.84,170.52 C152.72,169.8 153.16,168.68 153.16,167.16 C153.16,165.72 152.72,164.68 151.84,164.04 C150.96,163.36 149.52,163.04 147.6,163.04 L140,163.04 Z M140,175.12 L140,184.4 L148.08,184.4 C149.92,184.4 151.36,184.08 152.4,183.52 C153.68,182.76 154.36,181.56 154.36,179.92 C154.36,178.24 153.84,177 152.84,176.24 C151.84,175.48 150.28,175.12 148.2,175.12 L140,175.12 Z" id="CMDB" fill="#000000"></path>
    </g>
</svg>