<?xml version="1.0" encoding="UTF-8"?>
<svg width="200px" height="200px" viewBox="0 0 200 200" version="1.1" xmlns="http://www.w3.org/2000/svg" xmlns:xlink="http://www.w3.org/1999/xlink">
    <!-- Generator: Sketch 52.6 (67491) - http://www.bohemiancoding.com/sketch -->
    <title>标签页容器</title>
    <desc>Created with Sketch.</desc>
    <g id="标签页容器" stroke="none" stroke-width="1" fill="none" fill-rule="evenodd">
        <g id="tab-(1)" fill="#333333">
            <path d="M179.530592,199.78335 L20.4613842,199.78335 C9.23741096,199.783572 0.118735457,190.722247 0.0481444333,179.498495 L0.0481444333,20.3009027 C0.118735457,9.0771515 9.23741096,0.0158261579 20.4613842,0.0160481444 L79.9037111,0.0160481444 C83.4489693,0.0160481444 86.3229689,2.89004774 86.3229689,6.43530592 L86.3229689,50.8565697 C86.3229689,54.4018279 83.4489693,57.2758275 79.9037111,57.2758275 C76.3871332,57.2075252 73.5527556,54.3731476 73.4844534,50.8565697 L73.4844534,12.3410231 L20.4613842,12.3410231 C16.3276084,12.3404293 12.9567239,15.6541801 12.88666,19.7873621 L12.88666,179.498495 C12.9567239,183.631677 16.3276084,186.945428 20.4613842,186.944835 L179.530592,186.944835 C183.664367,186.945428 187.035252,183.631677 187.105316,179.498495 L187.105316,51.7552658 C187.105316,48.2100076 189.979316,45.336008 193.524574,45.336008 C197.069832,45.336008 199.943831,48.2100076 199.943831,51.7552658 L199.943831,180.140421 C199.529501,191.112425 190.510413,199.79117 179.530592,199.78335 Z" id="Path"></path>
            <path d="M193.524574,58.1745236 C189.979316,58.1745236 187.105316,55.300524 187.105316,51.7552658 L187.105316,34.2948847 C187.036631,30.140263 183.685213,26.7888459 179.530592,26.7201605 L81.7011033,26.7201605 C79.9545721,26.7900782 78.2550533,26.1447591 76.9950874,24.9332535 C75.7351216,23.7217479 75.0236763,22.0488323 75.0250752,20.3009027 C75.0933775,16.7843248 77.9277551,13.9499472 81.444333,13.8816449 L179.273821,13.8816449 C190.547742,13.8816449 199.687061,23.0209637 199.687061,34.2948847 L199.687061,51.7552658 C199.68982,55.2026225 196.969173,58.0366304 193.524574,58.1745236 Z" id="Path"></path>
            <path d="M193.524574,58.1745236 L10.8324975,58.1745236 C7.28723932,58.1745236 4.41323972,55.300524 4.41323972,51.7552658 C4.41323972,48.2100076 7.28723932,45.336008 10.8324975,45.336008 L193.524574,45.336008 C197.069832,45.336008 199.943831,48.2100076 199.943831,51.7552658 C199.943831,55.300524 197.069832,58.1745236 193.524574,58.1745236 Z" id="Path"></path>
            <path d="M137.677031,58.1745236 C134.131773,58.1745236 131.257773,55.300524 131.257773,51.7552658 L131.257773,20.3009027 C131.257773,16.7556445 134.131773,13.8816449 137.677031,13.8816449 C141.193609,13.9499472 144.027987,16.7843248 144.096289,20.3009027 L144.096289,51.7552658 C144.096289,55.300524 141.222289,58.1745236 137.677031,58.1745236 Z" id="Path"></path>
        </g>
    </g>
</svg>