<?xml version="1.0" encoding="UTF-8"?>
<svg width="200px" height="200px" viewBox="0 0 200 200" version="1.1" xmlns="http://www.w3.org/2000/svg" xmlns:xlink="http://www.w3.org/1999/xlink">
    <!-- Generator: Sketch 52.6 (67491) - http://www.bohemiancoding.com/sketch -->
    <title>行容器</title>
    <desc>Created with Sketch.</desc>
    <g id="行容器" stroke="none" stroke-width="1" fill="none" fill-rule="evenodd">
        <path d="M160,40 L160,90.5263158 L40,90.5263158 L40,40 L160,40 Z M160,110.421053 L160,160.947368 L40,160.947368 L40,110.421053 L160,110.421053 Z" id="Shape" fill="#000000" fill-rule="nonzero"></path>
        <path d="M182.82,196.19975 L17.14,196.19975 C7.76236221,195.702242 0.320754347,188.119096 4.26325641e-14,178.73375 L4.26325641e-14,21.54575 C0.321767862,12.161182 7.76310226,4.57918295 17.14,4.08175 L182.82,4.08175 C192.196855,4.58025814 199.637326,12.1631307 199.958,21.54775 L199.958,178.73375 C199.637326,188.118369 192.196855,195.701242 182.82,196.19975 Z M188.532,27.36775 C188.532,19.59975 184.574,15.72375 177.108,15.72375 L28.566,15.72375 C21.1,15.72375 11.428,19.59975 11.428,27.36775 L11.428,167.09375 C11.428,181.65375 21.1,184.55975 28.566,184.55975 L177.106,184.55975 C184.574,184.55975 188.53,180.68375 188.53,172.91575 L188.53,27.36775 L188.532,27.36775 Z" id="Path-2" fill="#000000" fill-rule="nonzero"></path>
    </g>
</svg>