<?xml version="1.0" encoding="UTF-8"?>
<svg width="200px" height="200px" viewBox="0 0 200 200" version="1.1" xmlns="http://www.w3.org/2000/svg" xmlns:xlink="http://www.w3.org/1999/xlink">
    <!-- Generator: Sketch 52.6 (67491) - http://www.bohemiancoding.com/sketch -->
    <title>table容器</title>
    <desc>Created with Sketch.</desc>
    <g id="table容器" stroke="none" stroke-width="1" fill="none" fill-rule="evenodd">
        <path d="M181.25,13 L18.75,13 C8.39453125,13 0,21.3945312 0,31.75 L0,169.25 C0,179.605469 8.39453125,188 18.75,188 L181.25,188 C191.605469,188 200,179.605469 200,169.25 L200,31.75 C200,21.3945312 191.605469,13 181.25,13 Z M62.5,175.5 L18.75,175.5 C15.2980469,175.5 12.5,172.701953 12.5,169.25 L12.5,138 L62.5,138 L62.5,175.5 Z M62.5,125.5 L12.5,125.5 L12.5,88 L62.5,88 L62.5,125.5 Z M62.5,75.5 L12.5,75.5 L12.5,38 L62.5,38 L62.5,75.5 Z M125,175.5 L75,175.5 L75,138 L125,138 L125,175.5 Z M125,125.5 L75,125.5 L75,88 L125,88 L125,125.5 Z M125,75.5 L75,75.5 L75,38 L125,38 L125,75.5 Z M187.5,138 L187.5,169.25 C187.5,172.701953 184.701953,175.5 181.25,175.5 L137.5,175.5 L137.5,138 L187.5,138 Z M187.5,125.5 L137.5,125.5 L137.5,88 L187.5,88 L187.5,125.5 Z M187.5,75.5 L137.5,75.5 L137.5,38 L187.5,38 L187.5,75.5 Z" id="Shape" fill="#000000" fill-rule="nonzero"></path>
    </g>
</svg>