<?xml version="1.0" encoding="UTF-8"?>
<svg width="200px" height="200px" viewBox="0 0 200 200" version="1.1" xmlns="http://www.w3.org/2000/svg" xmlns:xlink="http://www.w3.org/1999/xlink">
    <!-- Generator: Sketch 52.6 (67491) - http://www.bohemiancoding.com/sketch -->
    <title>计数器</title>
    <desc>Created with Sketch.</desc>
    <g id="计数器" stroke="none" stroke-width="1" fill="none" fill-rule="evenodd">
        <path d="M182.82,196.19975 L17.14,196.19975 C7.76236221,195.702242 0.320754347,188.119096 4.26325641e-14,178.73375 L4.26325641e-14,21.54575 C0.321767862,12.161182 7.76310226,4.57918295 17.14,4.08175 L182.82,4.08175 C192.196855,4.58025814 199.637326,12.1631307 199.958,21.54775 L199.958,178.73375 C199.637326,188.118369 192.196855,195.701242 182.82,196.19975 Z M188.532,27.36775 C188.532,19.59975 184.574,15.72375 177.108,15.72375 L28.566,15.72375 C21.1,15.72375 11.428,19.59975 11.428,27.36775 L11.428,167.09375 C11.428,181.65375 21.1,184.55975 28.566,184.55975 L177.106,184.55975 C184.574,184.55975 188.53,180.68375 188.53,172.91575 L188.53,27.36775 L188.532,27.36775 Z" id="Path-2" fill="#000000" fill-rule="nonzero"></path>
        <path d="M148.173913,128.746094 C151.77577,128.746094 154.695652,131.665976 154.695652,135.267833 C154.695652,138.86969 151.77577,141.789572 148.173913,141.789572 L52.5217391,141.789572 C48.9198821,141.789572 46,138.86969 46,135.267833 C46,131.665976 48.9198821,128.746094 52.5217391,128.746094 L148.173913,128.746094 Z M71.8007812,105.746094 L47.1640625,105.746094 L47.1640625,100.998047 L57.0917969,100.998047 L57.0917969,64.6074219 L47.7285156,69.2890625 L47.7285156,63.84375 L57.8554688,58.6308594 L62.5371094,58.6308594 L62.5371094,100.998047 L71.8007812,100.998047 L71.8007812,105.746094 Z M111.378906,105.746094 L85.6132812,105.746094 L85.6132812,101.794922 C92.1432618,94.5123334 96.3821517,89.6315228 98.3300781,87.1523438 C100.278005,84.6731647 101.860671,82.0722792 103.078125,79.3496094 C104.295579,76.6269395 104.904297,73.9153781 104.904297,71.2148438 C104.904297,68.6028515 104.112964,66.5442784 102.530273,65.0390625 C100.947583,63.5338466 98.7285299,62.78125 95.8730469,62.78125 C93.6816297,62.78125 90.7376487,63.4563735 87.0410156,64.8066406 L86.2773438,60.125 C89.6198084,58.7083262 93.1171692,58 96.7695312,58 C100.953146,58 104.323229,59.1786992 106.879883,61.5361328 C109.436536,63.8935665 110.714844,67.042298 110.714844,70.9824219 C110.714844,73.7936338 110.056322,76.5826685 108.739258,79.3496094 C107.422194,82.1165503 105.734385,84.7727737 103.675781,87.3183594 C101.617177,89.863945 97.6107069,94.4237953 91.65625,100.998047 L111.378906,100.998047 L111.378906,105.746094 Z M142.921875,80.578125 C145.777358,81.375004 148.068351,82.8303931 149.794922,84.9443359 C151.521493,87.0582788 152.384766,89.4322785 152.384766,92.0664062 C152.384766,96.1836143 150.779964,99.6422386 147.570312,102.442383 C144.360661,105.242527 140.575543,106.642578 136.214844,106.642578 C132.496075,106.642578 129.164728,105.823576 126.220703,104.185547 L127.283203,99.703125 C130.360041,101.141934 133.403631,101.861328 136.414062,101.861328 C139.24741,101.861328 141.66568,100.981454 143.668945,99.2216797 C145.672211,97.4619053 146.673828,95.1985815 146.673828,92.4316406 C146.673828,89.7089708 145.600271,87.4954512 143.453125,85.7910156 C141.305979,84.08658 138.461606,83.234375 134.919922,83.234375 L133.492188,83.234375 L133.492188,78.7519531 L133.890625,78.7519531 C137.299496,78.7519531 140.110666,77.9495523 142.324219,76.3447266 C144.537771,74.7399008 145.644531,72.5761855 145.644531,69.8535156 C145.644531,67.6399629 144.847664,65.9078839 143.253906,64.6572266 C141.660148,63.4065693 139.468764,62.78125 136.679688,62.78125 C134.266915,62.78125 131.566421,63.4342383 128.578125,64.7402344 L127.847656,60.0585938 C130.858088,58.6861911 133.89061,58 136.945312,58 C141.128927,58 144.576484,59.101226 147.288086,61.3037109 C149.999688,63.5061959 151.355469,66.3339671 151.355469,69.7871094 C151.355469,72.1777463 150.530933,74.4078673 148.881836,76.4775391 C147.232739,78.5472109 145.246105,79.8476536 142.921875,80.3789062 L142.921875,80.578125 Z" id="123" stroke="#000000" stroke-width="3" fill="#000000"></path>
    </g>
</svg>