<?xml version="1.0" encoding="UTF-8"?>
<svg width="200px" height="200px" viewBox="0 0 200 200" version="1.1" xmlns="http://www.w3.org/2000/svg" xmlns:xlink="http://www.w3.org/1999/xlink">
    <!-- Generator: Sketch 52.6 (67491) - http://www.bohemiancoding.com/sketch -->
    <title>日期时间选择</title>
    <desc>Created with Sketch.</desc>
    <g id="日期时间选择" stroke="none" stroke-width="1" fill="none" fill-rule="evenodd">
        <path d="M10.7635391,62.2732488 L180.167469,62.2732488 L180.167469,74.2032071 L10.7635391,74.2032071 L10.7635391,62.2732488 Z M75.1897428,45.5742603 L65.6147702,45.5742603 C64.9711248,45.6135123 64.341539,45.3749195 63.8855675,44.9189479 C63.4295959,44.4629764 63.191003,43.8333907 63.2302549,43.1897453 L63.2302549,7.39987058 C63.191003,6.75622513 63.4295958,6.12663935 63.8855674,5.67066776 C64.341539,5.21469617 64.9711248,4.97610334 65.6147702,5.01535531 L75.1602132,5.01535531 C75.8038586,4.97610339 76.4334444,5.21469625 76.8894159,5.67066783 C77.3453875,6.12663941 77.5839803,6.75622517 77.5447283,7.39987058 L77.5447283,43.1897453 C77.4585059,44.4679897 76.4387189,45.4846196 75.1602132,45.566878 L75.1897428,45.5742603 Z M125.294091,45.5742603 L115.748648,45.5742603 C115.105002,45.6135122 114.475417,45.3749194 114.019445,44.9189479 C113.563474,44.4629763 113.324881,43.8333906 113.364133,43.1897453 L113.364133,7.39987058 C113.324881,6.75622517 113.563473,6.12663941 114.019445,5.67066783 C114.475417,5.21469625 115.105002,4.97610339 115.748648,5.01535531 L125.294091,5.01535531 C125.937736,4.97610334 126.567322,5.21469617 127.023294,5.67066776 C127.479265,6.12663935 127.717858,6.75622513 127.678606,7.39987058 L127.678606,43.1897453 C127.59079,44.4785559 126.554572,45.4989294 125.264561,45.566878 L125.294091,45.5742603 Z M147.241966,101.680499 C169.972144,101.745828 188.345654,120.225204 188.280388,142.955383 C188.215122,165.685562 169.735796,184.059122 147.005617,183.993919 C124.275438,183.928715 105.901827,165.44944 105.966968,142.71926 C105.980592,131.798304 110.341135,121.332022 118.085553,113.631928 C125.829972,105.931834 136.321111,101.631439 147.241966,101.680499 Z M147.241966,89.7505412 C125.79688,89.6548967 106.410178,102.499493 98.1371409,122.284783 C89.864104,142.070073 94.3373857,164.891502 109.467573,180.089472 C124.597761,195.287441 147.398967,199.862687 167.221039,191.67817 C187.043111,183.493654 199.974235,164.164559 199.974448,142.71926 C200.070996,128.674165 194.55101,115.17284 184.642295,105.218373 C174.73358,95.2639069 161.257827,89.6817833 147.212436,89.7136292 L147.241966,89.7505412 Z" id="Shape" fill="#000000" fill-rule="nonzero"></path>
        <path d="M11.6937214,175.607852 L11.6937214,40.5616108 C11.6738144,38.401842 12.5229854,36.324739 14.0502374,34.7974869 C15.5774894,33.2702349 17.6545925,32.421064 19.8143613,32.4409709 L170.85088,32.4409709 C173.010649,32.421064 175.087752,33.2702349 176.615004,34.7974869 C178.142256,36.324739 178.991427,38.401842 178.97152,40.5616108 L178.97152,86.1331654 C178.932268,86.7768107 179.170861,87.4063964 179.626833,87.862368 C180.082804,88.3183395 180.71239,88.5569324 181.356035,88.5176804 L188.273344,88.5176804 C188.91699,88.5569324 189.546575,88.3183395 190.002547,87.862368 C190.458518,87.4063964 190.697111,86.7768107 190.657859,86.1331654 L190.657859,40.5616108 C190.67163,35.304264 188.589251,30.2582765 184.871733,26.5407581 C181.154215,22.8232398 176.108227,20.7408614 170.85088,20.7546318 L19.8143613,20.7546318 C14.5570144,20.7408613 9.51102692,22.8232397 5.79350855,26.5407581 C2.07599018,30.2582765 -0.00638820379,35.3042639 0.00738230912,40.5616108 L0.00738230912,175.851471 C0.0155170303,182.306362 5.24621223,187.537058 11.7011037,187.545192 L89.2089201,187.545192 C90.5241689,187.541139 91.5893821,186.475926 91.5934354,185.160677 L91.5934354,178.243369 C91.5893821,176.92812 90.5241689,175.862907 89.2089201,175.858853 L11.6937214,175.858853 L11.6937214,175.607852 Z" id="Path" fill="#000000"></path>
        <path d="M170.363642,148.167472 L141.734695,148.167472 L141.734695,119.538525 C141.835512,116.975609 143.942519,114.949855 146.507417,114.949855 C149.072315,114.949855 151.179322,116.975609 151.280138,119.538525 L151.280138,138.629411 L170.371024,138.629411 C173.001522,138.637517 175.131948,140.767944 175.140055,143.398441 C175.177278,144.675606 174.685764,145.911516 173.78159,146.814292 C172.877416,147.717069 171.640748,148.206671 170.363642,148.167472 Z M69.6750901,114.046019 L36.7791162,114.046019 C35.4638674,114.041966 34.3986544,112.976753 34.3946011,111.661504 L34.3946011,105.674378 C34.3986543,104.359129 35.4638674,103.293916 36.7791162,103.289863 L69.7046197,103.289863 C71.0198686,103.293916 72.0850817,104.359129 72.0891348,105.674378 L72.0891348,111.639357 C72.0153551,112.94238 70.9711575,113.98021 69.6677076,114.046019 L69.6750901,114.046019 Z M69.6750901,142.674966 L36.7791162,142.674966 C35.4638674,142.670913 34.3986544,141.6057 34.3946011,140.290451 L34.3946011,134.325472 C34.3986544,133.010223 35.4638674,131.94501 36.7791162,131.940957 L69.7046197,131.940957 C71.0198685,131.94501 72.0850816,133.010223 72.0891348,134.325472 L72.0891348,140.290451 C72.0081208,141.587703 70.9658558,142.617257 69.6677076,142.682348 L69.6750901,142.674966 Z" id="Shape" fill="#000000" fill-rule="nonzero"></path>
    </g>
</svg>