<?xml version="1.0" encoding="UTF-8"?>
<svg width="200px" height="200px" viewBox="0 0 200 200" version="1.1" xmlns="http://www.w3.org/2000/svg" xmlns:xlink="http://www.w3.org/1999/xlink">
    <!-- Generator: Sketch 52.6 (67491) - http://www.bohemiancoding.com/sketch -->
    <title>日期段</title>
    <desc>Created with Sketch.</desc>
    <g id="日期段" stroke="none" stroke-width="1" fill="none" fill-rule="evenodd">
        <g id="日期" transform="translate(10.000000, 7.000000)" fill="#000000" fill-rule="nonzero">
            <path d="M99.6462019,129.403704 L112.472841,129.403704 C114.390843,129.403704 115.685494,128.085078 115.685494,126.083163 L115.685494,112.824974 C115.685494,110.835047 114.40283,109.51642 112.472841,109.51642 L99.6462019,109.51642 C97.7162123,109.51642 96.4335484,110.835047 96.4335484,112.824974 L96.4335484,126.083163 C96.4335484,128.073091 97.7162123,129.403704 99.6462019,129.403704 Z M99.6462019,96.258231 L112.472841,96.258231 C114.390843,96.258231 115.685494,94.9396046 115.685494,92.9376899 L115.685494,79.6795005 C115.685494,77.6895734 114.40283,76.3709469 112.472841,76.3709469 L99.6462019,76.3709469 C97.7162123,76.3709469 96.4335484,77.6895734 96.4335484,79.6795005 L96.4335484,92.9376899 C96.4335484,94.9276171 97.7162123,96.258231 99.6462019,96.258231 Z M131.748762,96.258231 L144.599376,96.258231 C146.517378,96.258231 147.812029,94.9396046 147.812029,92.9376899 L147.812029,79.6795005 C147.812029,77.6895734 146.517378,76.3709469 144.599376,76.3709469 L131.748762,76.3709469 C129.83076,76.3709469 128.536108,77.6895734 128.536108,79.6795005 L128.536108,92.9376899 C128.536108,94.9276171 129.83076,96.258231 131.748762,96.258231 Z M67.5316545,96.258231 L80.3822685,96.258231 C82.3002706,96.258231 83.5829344,94.9396046 83.5829344,92.9376899 L83.5829344,79.6795005 C83.5829344,77.6895734 82.3002706,76.3709469 80.3822685,76.3709469 L67.519667,76.3709469 C65.6016649,76.3709469 64.3070135,77.6895734 64.3070135,79.6795005 L64.3070135,92.9376899 C64.3070135,94.9276171 65.5896774,96.258231 67.519667,96.258231 L67.5316545,96.258231 Z M131.748762,129.403704 L144.599376,129.403704 C146.517378,129.403704 147.812029,128.085078 147.812029,126.083163 L147.812029,112.824974 C147.812029,110.835047 146.517378,109.51642 144.599376,109.51642 L131.748762,109.51642 C129.83076,109.51642 128.536108,110.835047 128.536108,112.824974 L128.536108,126.083163 C128.536108,128.073091 129.83076,129.403704 131.748762,129.403704 Z M131.748762,162.549178 L144.599376,162.549178 C146.517378,162.549178 147.812029,161.230552 147.812029,159.228637 L147.812029,145.970447 C147.812029,143.98052 146.517378,142.661894 144.599376,142.661894 L131.748762,142.661894 C129.83076,142.661894 128.536108,143.98052 128.536108,145.970447 L128.536108,159.228637 C128.536108,161.218564 129.83076,162.549178 131.748762,162.549178 Z M99.6462019,162.549178 L112.472841,162.549178 C114.390843,162.549178 115.685494,161.230552 115.685494,159.228637 L115.685494,145.970447 C115.685494,143.98052 114.40283,142.661894 112.472841,142.661894 L99.6462019,142.661894 C97.7162123,142.661894 96.4335484,143.98052 96.4335484,145.970447 L96.4335484,159.228637 C96.4335484,161.218564 97.7162123,162.549178 99.6462019,162.549178 Z M35.4290947,162.549178 L48.2677211,162.549178 C50.1857232,162.549178 51.4803746,161.230552 51.4803746,159.228637 L51.4803746,145.970447 C51.4803746,143.98052 50.1977107,142.661894 48.2677211,142.661894 L35.4290947,142.661894 C33.4991051,142.661894 32.2164412,143.98052 32.2164412,145.970447 L32.2164412,159.228637 C32.2164412,161.218564 33.4991051,162.549178 35.4290947,162.549178 Z M35.4290947,129.403704 L48.2677211,129.403704 C50.1857232,129.403704 51.4803746,128.085078 51.4803746,126.083163 L51.4803746,112.824974 C51.4803746,110.835047 50.1977107,109.51642 48.2677211,109.51642 L35.4290947,109.51642 C33.4991051,109.51642 32.2164412,110.835047 32.2164412,112.824974 L32.2164412,126.083163 C32.2164412,128.073091 33.4991051,129.403704 35.4290947,129.403704 Z" id="Shape"></path>
            <path d="M167.075963,13.3885536 L141.386722,13.3885536 L141.386722,6.7594589 C141.386722,3.45090531 138.821394,0.130364204 134.961415,0.130364204 C131.113424,0.130364204 128.536108,2.77960458 128.536108,6.7594589 L128.536108,13.3885536 L51.4803746,13.3885536 L51.4803746,6.7594589 C51.4803746,3.45090531 48.9150468,0.130364204 45.0550676,0.130364204 C41.207076,0.130364204 38.6297607,2.77960458 38.6297607,6.7594589 L38.6297607,13.3885536 L12.9525078,13.3885536 C5.87987513,13.3885536 0.101893861,19.3583351 0.101893861,26.646743 L0.101893861,172.486826 C0.101893861,179.787222 5.87987513,185.745016 12.9525078,185.745016 L167.075963,185.745016 C174.148595,185.745016 179.914589,179.787222 179.914589,172.486826 L179.914589,26.646743 C179.914589,19.3583351 174.136608,13.3885536 167.075963,13.3885536 Z M167.075963,165.869719 C167.075963,169.837586 164.498647,172.486826 160.650656,172.486826 L19.3658273,172.486826 C15.5178356,172.486826 12.9525078,169.837586 12.9525078,165.857732 L12.9525078,63.1127575 L167.075963,63.1127575 L167.075963,165.857732 L167.075963,165.869719 Z M167.075963,49.8545682 L12.9525078,49.8545682 L12.9525078,33.2758377 C12.9525078,29.3079709 15.5178356,26.646743 19.3658273,26.646743 L38.6297607,26.646743 L38.6297607,33.2758377 C38.6297607,36.5963788 41.207076,39.9049324 45.0550676,39.9049324 C48.9150468,39.9049324 51.4803746,37.2676795 51.4803746,33.2758377 L51.4803746,26.646743 L128.536108,26.646743 L128.536108,33.2758377 C128.536108,36.5963788 131.113424,39.9049324 134.961415,39.9049324 C138.821394,39.9049324 141.386722,37.2676795 141.386722,33.2758377 L141.386722,26.646743 L160.650656,26.646743 C164.498647,26.646743 167.075963,29.3079709 167.075963,33.2758377 L167.075963,49.8545682 Z" id="Shape"></path>
            <path d="M35.4290947,96.258231 L48.2677211,96.258231 C50.1857232,96.258231 51.4803746,94.9396046 51.4803746,92.9376899 L51.4803746,79.6795005 C51.4803746,77.6895734 50.1977107,76.3709469 48.2677211,76.3709469 L35.4290947,76.3709469 C33.4991051,76.3709469 32.2164412,77.6895734 32.2164412,79.6795005 L32.2164412,92.9376899 C32.2164412,94.9276171 33.4991051,96.258231 35.4290947,96.258231 Z M67.5316545,129.403704 L80.3822685,129.403704 C82.3002706,129.403704 83.5829344,128.085078 83.5829344,126.083163 L83.5829344,112.824974 C83.5829344,110.835047 82.3002706,109.51642 80.3822685,109.51642 L67.519667,109.51642 C65.6016649,109.51642 64.3070135,110.835047 64.3070135,112.824974 L64.3070135,126.083163 C64.3070135,128.073091 65.5896774,129.403704 67.519667,129.403704 L67.5316545,129.403704 Z M67.5316545,162.549178 L80.3822685,162.549178 C82.3002706,162.549178 83.5829344,161.230552 83.5829344,159.228637 L83.5829344,145.970447 C83.5829344,143.98052 82.3002706,142.661894 80.3822685,142.661894 L67.519667,142.661894 C65.6016649,142.661894 64.3070135,143.98052 64.3070135,145.970447 L64.3070135,159.228637 C64.3070135,161.218564 65.5896774,162.549178 67.519667,162.549178 L67.5316545,162.549178 Z" id="Shape"></path>
        </g>
    </g>
</svg>