<?xml version="1.0" encoding="UTF-8"?>
<svg width="200px" height="200px" viewBox="0 0 200 200" version="1.1" xmlns="http://www.w3.org/2000/svg" xmlns:xlink="http://www.w3.org/1999/xlink">
    <!-- Generator: Sketch 52.6 (67491) - http://www.bohemiancoding.com/sketch -->
    <title>下拉选择</title>
    <desc>Created with Sketch.</desc>
    <g id="下拉选择" stroke="none" stroke-width="1" fill="none" fill-rule="evenodd">
        <path d="M187.5,41.5 L187.5,141.5 L12.5,141.5 L12.5,41.5 L187.5,41.5 Z M187.5,29 L12.5,29 C5.59644063,29 8.45442189e-16,34.5964406 0,41.5 L0,141.5 C8.45442189e-16,148.403559 5.59644063,154 12.5,154 L187.5,154 C194.403559,154 200,148.403559 200,141.5 L200,41.5 C200,34.5964406 194.403559,29 187.5,29 Z M141.9375,115.5625 L171,86.4375 C173.143957,85.0797806 174.254121,82.5604701 173.809427,80.0620308 C173.364733,77.5635915 171.453469,75.5820611 168.972706,75.0474897 C166.491943,74.5129184 163.934209,75.5314392 162.5,77.625 L137.8125,102.625 L113.125,77.625 C111.597563,75.841399 109.19926,75.0644878 106.916131,75.6136867 C104.633003,76.1628855 102.850385,77.9455028 102.301187,80.2286314 C101.751988,82.51176 102.528899,84.9100632 104.3125,86.4375 L133.375,115.5625 C134.548541,116.745704 136.146015,117.41124 137.8125,117.41124 C139.478985,117.41124 141.076459,116.745704 142.25,115.5625 L141.9375,115.5625 Z" id="Shape" fill="#000000" fill-rule="nonzero"></path>
    </g>
</svg>