<?xml version="1.0" standalone="no"?><!DOCTYPE svg PUBLIC "-//W3C//DTD SVG 1.1//EN" "http://www.w3.org/Graphics/SVG/1.1/DTD/svg11.dtd"><svg t="1640941311445" class="icon" viewBox="0 0 1024 1024" version="1.1" xmlns="http://www.w3.org/2000/svg" p-id="5114" xmlns:xlink="http://www.w3.org/1999/xlink" width="200" height="200"><defs><style type="text/css"></style></defs><path d="M320 320h256v128H384v384h512V448h-64V320h192v576a64 64 0 0 1-64 64H320a64 64 0 0 1-64-64V320h64z m448 0h64v128h-64V320zM192 576h64v128h-64V576z m512 128H448V576h192V192H128v384h64v128H0V128a64 64 0 0 1 64-64h640a64 64 0 0 1 64 64v576h-64z" p-id="5115" fill="#000000"></path></svg>