<svg id="图层_1" data-name="图层 1" xmlns="http://www.w3.org/2000/svg" viewBox="0 0 141 141"><defs><style>.cls-1{fill:#fff;stroke:#000;stroke-miterlimit:10;stroke-width:6px;}</style></defs><rect class="cls-1" x="3" y="3" width="135" height="135" rx="16.35"/><path d="M69.88,65.64h24v12h-18v36.06H124V77.66h-6v-12h18v54.1a6,6,0,0,1-6,6H69.88a6,6,0,0,1-6-6V65.64Zm42.05,0h6v12h-6Zm-54.08,24h6v12h-6Zm48.1,12H81.87v-12H99.93V53.61H51.84V89.68h6v12h-18V47.6a6,6,0,0,1,6-6H106a6,6,0,0,1,6,6h0v54.1Z" transform="translate(-17 -13)"/></svg>