<?xml version="1.0" encoding="UTF-8"?>
<svg width="200px" height="200px" viewBox="0 0 200 200" version="1.1" xmlns="http://www.w3.org/2000/svg" xmlns:xlink="http://www.w3.org/1999/xlink">
    <!-- Generator: Sketch 52.6 (67491) - http://www.bohemiancoding.com/sketch -->
    <title>实例选择</title>
    <desc>Created with Sketch.</desc>
    <g id="实例选择" stroke="none" stroke-width="1" fill="none" fill-rule="evenodd">
        <path d="M191.973913,96 C196.238512,96 199.695652,98.9198821 199.695652,102.521739 C199.695652,106.123596 196.238512,109.043478 191.973913,109.043478 L78.7217391,109.043478 C74.4571404,109.043478 71,106.123596 71,102.521739 C71,98.9198821 74.4571404,96 78.7217391,96 L191.973913,96 Z M191.973913,172 C196.238512,172 199.695652,174.919882 199.695652,178.521739 C199.695652,182.123596 196.238512,185.043478 191.973913,185.043478 L78.7217391,185.043478 C74.4571404,185.043478 71,182.123596 71,178.521739 C71,174.919882 74.4571404,172 78.7217391,172 L191.973913,172 Z M191.973913,16.5440477 C196.238512,16.5440477 199.695652,19.4639298 199.695652,23.0657868 C199.695652,26.6676439 196.238512,29.587526 191.973913,29.587526 L78.7217391,29.587526 C74.4571404,29.587526 71,26.6676439 71,23.0657868 C71,19.4639298 74.4571404,16.5440477 78.7217391,16.5440477 L191.973913,16.5440477 Z M20.2995921,28.1983333 L46.2941655,3.34845467 C48.5347178,1.41651101 51.8961022,1.57880218 53.9401144,3.71760911 C55.9841265,5.85641603 55.9939719,9.22170158 53.9625091,11.3724316 L23.9670607,40.0898226 C22.8982156,41.1089025 21.4676718,41.6605918 19.9913436,41.623058 C18.5150154,41.5855243 17.1143535,40.9618552 16.0986734,39.8897789 L1.62884259,24.6531135 C-0.364924067,22.4122105 -0.220440016,18.9934339 1.95528935,16.9287418 C4.13101872,14.8640496 7.55267171,14.8986851 9.68616011,17.006997 L20.2995921,28.1983333 Z M20.2995921,105.993123 L46.283052,81.1432445 C48.5236042,79.2113009 51.8849887,79.3735921 53.9290008,81.512399 C55.973013,83.6512059 55.9828584,87.0164915 53.9513955,89.1672215 L23.9670607,117.884613 C22.8982156,118.903692 21.4676718,119.455382 19.9913436,119.417848 C18.5150154,119.380314 17.1143535,118.756645 16.0986734,117.684569 L1.62884259,102.447903 C-0.364924067,100.207 -0.220440016,96.7882238 1.95528935,94.7235316 C4.13101872,92.6588395 7.55267171,92.693475 9.68616011,94.8017869 L20.2995921,105.993123 Z M46.283052,158.938034 C48.5236042,157.006091 51.8849887,157.168382 53.9290008,159.307189 C55.973013,161.445996 55.9828584,164.811281 53.9513955,166.962011 L23.9670607,195.679402 C22.8982156,196.698482 21.4676718,197.250172 19.9913436,197.212638 C18.5150154,197.175104 17.1143535,196.551435 16.0986734,195.479359 L1.65106965,180.242693 C0.208707702,178.817352 -0.342702761,176.719487 0.212378707,174.769131 C0.767460174,172.818774 2.34088531,171.325648 4.31761908,170.873399 C6.29435285,170.42115 8.36048522,171.081596 9.70838717,172.596577 L20.3218191,183.787913 L46.2941655,158.938034 L46.283052,158.938034 Z" id="Shape" fill="#000000" fill-rule="nonzero"></path>
    </g>
</svg>