<?xml version="1.0" encoding="UTF-8"?>
<svg width="200px" height="200px" viewBox="0 0 200 200" version="1.1" xmlns="http://www.w3.org/2000/svg" xmlns:xlink="http://www.w3.org/1999/xlink">
    <!-- Generator: Sketch 52.6 (67491) - http://www.bohemiancoding.com/sketch -->
    <title>链接</title>
    <desc>Created with Sketch.</desc>
    <g id="链接" stroke="none" stroke-width="1" fill="none" fill-rule="evenodd">
        <path d="M81.4622642,150.900943 L65.4320755,166.478302 C56.6788832,175.231494 42.4871547,175.231494 33.7339625,166.478302 C24.9807704,157.725109 24.9807702,143.533381 33.7339622,134.780189 L74.8509434,93.5726415 C83.2328244,85.1635363 96.7365698,84.8050298 105.55283,92.7575472 L106.639623,93.6632076 C110.215927,97.1644843 115.95344,97.1036625 119.454717,93.5273583 C122.955994,89.9510541 122.895172,84.213541 119.318868,80.7122641 C118.807717,80.0513593 118.263633,79.4165944 117.688679,78.8103773 C101.645558,64.8525989 77.5281359,65.7238358 62.5339622,80.8028302 L20.873585,122.010377 C6.16527453,138.019911 6.68941071,162.777461 22.0621068,178.150157 C37.434803,193.522853 62.1923529,194.04699 78.2018869,179.338679 L93.8698113,164.033019 C97.0792131,160.53176 97.0385412,155.145917 93.7766281,151.693527 C90.514715,148.241137 85.1398393,147.895197 81.4622642,150.900943 Z M178.277358,21.9349057 C162.417768,6.17385588 136.808647,6.17385588 120.949057,21.9349057 L105.281132,37.240566 C102.07173,40.7418247 102.112402,46.1276682 105.374315,49.580058 C108.636228,53.0324478 114.011104,53.3783884 117.688679,50.3726415 L133.356604,34.7952829 C142.109796,26.0420907 156.301525,26.0420908 165.054717,34.7952831 C173.807909,43.5484754 173.807909,57.7402041 165.054717,66.4933963 L123.937736,107.700943 C115.555855,116.110049 102.052109,116.468555 93.235849,108.516038 L92.1490565,107.610377 C88.5727522,104.1091 82.835239,104.169922 79.3339622,107.746226 C75.8326853,111.322531 75.893507,117.060044 79.4698113,120.561321 C80.1276652,121.234124 80.8231199,121.869104 81.5528301,122.463208 C97.6118574,136.375938 121.694258,135.505966 136.707547,120.470755 L177.915094,79.2632076 C193.776805,63.5033989 193.938635,37.8939117 178.277358,21.9349057 Z" id="Shape" fill="#000000" fill-rule="nonzero"></path>
    </g>
</svg>