<?xml version="1.0" standalone="no"?><!DOCTYPE svg PUBLIC "-//W3C//DTD SVG 1.1//EN" "http://www.w3.org/Graphics/SVG/1.1/DTD/svg11.dtd"><svg t="1640744495017" class="icon" viewBox="0 0 1024 1024" version="1.1" xmlns="http://www.w3.org/2000/svg" p-id="3399" xmlns:xlink="http://www.w3.org/1999/xlink" width="200" height="200"><defs><style type="text/css"></style></defs><path d="M917.333333 810.666667a21.333333 21.333333 0 0 1 21.333334 21.333333v85.333333a21.333333 21.333333 0 0 1-21.333334 21.333334H106.666667a21.333333 21.333333 0 0 1-21.333334-21.333334v-85.333333a21.333333 21.333333 0 0 1 21.333334-21.333333h810.666666z m-43.456-526.976l58.752 60.885333c8.106667 8.405333 8.042667 21.973333-0.149333 30.293333L712.746667 597.333333l-151.893334-154.282666a21.824 21.824 0 0 1-0.170666-30.293334l58.752-60.885333a20.501333 20.501333 0 0 1 29.525333-0.170667l63.786667 64.768 131.584-132.949333a20.501333 20.501333 0 0 1 29.525333 0.170667zM341.333333 128a21.333333 21.333333 0 0 1 21.333334 21.333333v85.333334a21.333333 21.333333 0 0 1-21.333334 21.333333H106.666667a21.333333 21.333333 0 0 1-21.333334-21.333333V149.333333a21.333333 21.333333 0 0 1 21.333334-21.333333h234.666666z m0 341.333333a21.333333 21.333333 0 0 1 21.333334 21.333334v85.333333a21.333333 21.333333 0 0 1-21.333334 21.333333H106.666667a21.333333 21.333333 0 0 1-21.333334-21.333333v-85.333333a21.333333 21.333333 0 0 1 21.333334-21.333334h234.666666z" p-id="3400" fill="#2c2c2c"></path></svg>