<?xml version="1.0" encoding="UTF-8"?>
<svg width="200px" height="200px" viewBox="0 0 200 200" version="1.1" xmlns="http://www.w3.org/2000/svg" xmlns:xlink="http://www.w3.org/1999/xlink">
    <!-- Generator: Sketch 52.6 (67491) - http://www.bohemiancoding.com/sketch -->
    <title>富文本</title>
    <desc>Created with Sketch.</desc>
    <g id="富文本" stroke="none" stroke-width="1" fill="none" fill-rule="evenodd">
        <path d="M19,4 L181,4 C191.49341,4 200,12.5065898 200,23 L200,177 C200,187.49341 191.49341,196 181,196 L19,196 C8.50658975,196 1.28507213e-15,187.49341 0,177 L0,23 C-1.28507213e-15,12.5065898 8.50658975,4 19,4 Z M186.066584,17.3760789 L14.0567201,17.3760789 L14.0567201,168.65598 L49.4451295,142.969174 C54.1307028,139.536375 60.5425401,139.29963 65.4747226,142.495684 L100.123305,164.868064 L145.745993,109.588163 C150.554871,103.669544 159.432799,102.722565 165.598027,107.339088 C166.584464,108.167694 167.447596,108.996301 168.187423,109.94328 L186.066584,133.025894 L186.066584,17.3760789 Z M96,44.5217391 C99.6018571,44.5217391 102.521739,47.4416212 102.521739,51.0434783 C102.521739,54.6453353 99.6018571,57.5652174 96,57.5652174 L80.7826087,57.5652174 L80.7826087,103 C80.7826087,106.601857 77.8627266,109.521739 74.2608696,109.521739 C70.6590125,109.521739 67.7391304,106.601857 67.7391304,103 L67.7391304,57.5652174 L52.5217391,57.5652174 C48.9198821,57.5652174 46,54.6453353 46,51.0434783 C46,47.4416212 48.9198821,44.5217391 52.5217391,44.5217391 L96,44.5217391 Z M148.173913,70.6086957 C151.77577,70.6086957 154.695652,73.5285777 154.695652,77.1304348 C154.695652,80.7322918 151.77577,83.6521739 148.173913,83.6521739 L117.73913,83.6521739 C114.137273,83.6521739 111.217391,80.7322918 111.217391,77.1304348 C111.217391,73.5285777 114.137273,70.6086957 117.73913,70.6086957 L148.173913,70.6086957 Z M131.956522,96.6956522 C135.558379,96.6956522 138.478261,99.6155342 138.478261,103.217391 C138.478261,106.819248 135.558379,109.73913 131.956522,109.73913 L117.521739,109.73913 C113.919882,109.73913 111,106.819248 111,103.217391 C111,99.6155342 113.919882,96.6956522 117.521739,96.6956522 L131.956522,96.6956522 Z M148.173913,44.5217391 C151.77577,44.5217391 154.695652,47.4416212 154.695652,51.0434783 C154.695652,54.6453353 151.77577,57.5652174 148.173913,57.5652174 L117.73913,57.5652174 C114.137273,57.5652174 111.217391,54.6453353 111.217391,51.0434783 C111.217391,47.4416212 114.137273,44.5217391 117.73913,44.5217391 L148.173913,44.5217391 Z" id="Shape" fill="#000000" fill-rule="nonzero"></path>
    </g>
</svg>