<?xml version="1.0" standalone="no"?><!DOCTYPE svg PUBLIC "-//W3C//DTD SVG 1.1//EN" "http://www.w3.org/Graphics/SVG/1.1/DTD/svg11.dtd"><svg t="1640744513453" class="icon" viewBox="0 0 1479 1024" version="1.1" xmlns="http://www.w3.org/2000/svg" p-id="4236" xmlns:xlink="http://www.w3.org/1999/xlink" width="200" height="200"><defs><style type="text/css"></style></defs><path d="M402.204444 138.126222a404.821333 404.821333 0 1 1 0 809.756445 404.821333 404.821333 0 0 1 0-809.756445z m0 105.016889a299.918222 299.918222 0 1 0 0 599.722667 299.918222 299.918222 0 0 0 0-599.722667zM259.754667 543.061333a142.449778 142.449778 0 1 0 284.899555 0 142.449778 142.449778 0 0 0-284.899555 0z m622.364444-457.386666h509.724445c10.012444 0 15.018667 5.006222 15.018666 15.018666v74.979556c0 10.012444-5.006222 14.904889-15.018666 14.904889h-509.724445c-10.126222 0-15.132444-4.892444-15.132444-14.904889v-75.093333c0-9.898667 5.006222-14.904889 15.018666-14.904889z m0 809.756444h509.724445c10.012444 0 15.018667 5.006222 15.018666 14.904889v75.093333c0 9.898667-5.006222 14.904889-15.018666 14.904889h-509.724445c-10.126222 0-15.132444-5.006222-15.132444-15.018666v-74.979556c0-9.898667 5.006222-14.904889 15.018666-14.904889z m104.903111-404.935111h404.821334c10.012444 0 15.018667 5.006222 15.018666 15.018667v74.979555c0 10.012444-5.006222 15.018667-15.018666 15.018667H987.022222c-10.012444 0-15.018667-5.006222-15.018666-15.018667v-74.979555c0-10.012444 5.006222-15.018667 15.018666-15.018667z" p-id="4237" fill="#2c2c2c"></path></svg>