<?xml version="1.0" encoding="UTF-8"?>
<svg width="200px" height="200px" viewBox="0 0 200 200" version="1.1" xmlns="http://www.w3.org/2000/svg" xmlns:xlink="http://www.w3.org/1999/xlink">
    <!-- Generator: Sketch 52.6 (67491) - http://www.bohemiancoding.com/sketch -->
    <title>滑块</title>
    <desc>Created with Sketch.</desc>
    <g id="滑块" stroke="none" stroke-width="1" fill="none" fill-rule="evenodd">
        <path d="M153.112209,118.904728 C160.907336,118.904728 167.226535,125.223927 167.226535,133.019054 L167.212421,137.959068 L190.825688,137.959068 C195.892521,137.959068 200,142.066548 200,147.13338 C200,152.200213 195.892521,156.307692 190.825688,156.307692 L167.212421,156.307692 L167.212421,161.247706 C167.212421,169.042833 160.893222,175.362032 153.098095,175.362032 L124.869442,175.362032 C117.074315,175.362032 110.755116,169.042833 110.755116,161.247706 L110.755116,156.307692 L9.17431193,156.307692 C4.10747936,156.307692 0,152.200213 0,147.13338 C0,142.066548 4.10747936,137.959068 9.17431193,137.959068 L110.755116,137.959068 L110.755116,133.019054 C110.755116,125.223927 117.074315,118.904728 124.869442,118.904728 L153.098095,118.904728 L153.112209,118.904728 Z M76.6125618,24 C84.4076888,24 90.7268878,30.319199 90.7268878,38.114326 L90.7268878,43.0543402 L190.825688,43.0543402 C195.892521,43.0543402 200,47.1618195 200,52.2286521 C200,57.2954846 195.892521,61.402964 190.825688,61.402964 L90.7268878,61.402964 L90.7268878,66.3429781 C90.7268878,74.1381051 84.4076888,80.4573042 76.6125618,80.4573042 L48.3839097,80.4573042 C40.5887826,80.4573042 34.2695836,74.1381051 34.2695836,66.3429781 L34.2695836,61.402964 L9.17431193,61.402964 C4.10747936,61.402964 0,57.2954846 0,52.2286521 C0,47.1618195 4.10747936,43.0543402 9.17431193,43.0543402 L34.2695836,43.0543402 L34.2695836,38.114326 C34.2695836,30.319199 40.5887826,24 48.3839097,24 L76.6125618,24 Z" id="Shape" fill="#000000" fill-rule="nonzero"></path>
    </g>
</svg>