<?xml version="1.0" encoding="UTF-8"?>
<svg width="200px" height="200px" viewBox="0 0 200 200" version="1.1" xmlns="http://www.w3.org/2000/svg" xmlns:xlink="http://www.w3.org/1999/xlink">
    <!-- Generator: Sketch 52.6 (67491) - http://www.bohemiancoding.com/sketch -->
    <title>开关</title>
    <desc>Created with Sketch.</desc>
    <g id="开关" stroke="none" stroke-width="1" fill="none" fill-rule="evenodd">
        <path d="M50.2016831,150.400876 L149.798317,150.400876 C177.404014,150.400876 200,127.80987 200,100.201683 C200,72.5910064 177.404014,50 149.795827,50 L50.1991932,50 C22.5910064,50 -9.63201109e-08,72.5910064 0,100.201683 C0.00248983092,127.80987 22.5934963,150.400876 50.2016831,150.400876 Z M9.77042974,100.169314 C9.77042974,77.2322096 28.5369255,58.4657138 51.4740302,58.4657138 L149.609083,58.4657138 C172.546188,58.4657138 191.312684,77.2322096 191.312684,100.169314 C191.312684,123.108909 172.546188,141.875405 149.609083,141.875405 L51.4740302,141.875405 C28.5369255,141.877895 9.77042974,123.108909 9.77042974,100.169314 Z M80.9745531,99.9228126 C80.9746166,89.114601 75.2085409,79.1273744 65.8483657,73.7232502 C56.4881905,68.3191261 44.9559607,68.3191261 35.5957855,73.7232502 C26.2356103,79.1273744 20.4695345,89.114601 20.4695981,99.9228126 C20.4695981,116.630795 34.0140936,130.17529 50.7220756,130.17529 C67.4300575,130.17529 80.9745531,116.630795 80.9745531,99.9228126 Z" id="Shape" fill="#000000" fill-rule="nonzero"></path>
    </g>
</svg>