<?xml version="1.0" encoding="UTF-8"?>
<svg width="200px" height="200px" viewBox="0 0 200 200" version="1.1" xmlns="http://www.w3.org/2000/svg" xmlns:xlink="http://www.w3.org/1999/xlink">
    <!-- Generator: Sketch 52.6 (67491) - http://www.bohemiancoding.com/sketch -->
    <title>多行文本</title>
    <desc>Created with Sketch.</desc>
    <g id="多行文本" stroke="none" stroke-width="1" fill="none" fill-rule="evenodd">
        <path d="M182.82,196.19975 L17.14,196.19975 C7.76236221,195.702242 0.320754347,188.119096 0,178.73375 L0,21.54575 C0.321767862,12.161182 7.76310226,4.57918295 17.14,4.08175 L182.82,4.08175 C192.196855,4.58025814 199.637326,12.1631307 199.958,21.54775 L199.958,178.73375 C199.637326,188.118369 192.196855,195.701242 182.82,196.19975 Z M188.532,27.36775 C188.532,19.59975 184.574,15.72375 177.108,15.72375 L28.566,15.72375 C21.1,15.72375 11.428,19.59975 11.428,27.36775 L11.428,167.09375 C11.428,181.65375 21.1,184.55975 28.566,184.55975 L177.106,184.55975 C184.574,184.55975 188.53,180.68375 188.53,172.91575 L188.53,27.36775 L188.532,27.36775 Z M117.73913,136.956522 C121.340987,136.956522 124.26087,139.876404 124.26087,143.478261 C124.26087,147.080118 121.340987,150 117.73913,150 L52.5217391,150 C48.9198821,150 46,147.080118 46,143.478261 C46,139.876404 48.9198821,136.956522 52.5217391,136.956522 L117.73913,136.956522 Z M148.173913,110.869565 C151.77577,110.869565 154.695652,113.789447 154.695652,117.391304 C154.695652,120.993161 151.77577,123.913043 148.173913,123.913043 L52.5217391,123.913043 C48.9198821,123.913043 46,120.993161 46,117.391304 C46,113.789447 48.9198821,110.869565 52.5217391,110.869565 L148.173913,110.869565 Z M96,50 C99.6018571,50 102.521739,52.9198821 102.521739,56.5217391 C102.521739,60.1235962 99.6018571,63.0434783 96,63.0434783 L80.7826087,63.0434783 L80.7826087,93.4782609 C80.7826087,97.0801179 77.8627266,100 74.2608696,100 C70.6590125,100 67.7391304,97.0801179 67.7391304,93.4782609 L67.7391304,63.0434783 L52.5217391,63.0434783 C48.9198821,63.0434783 46,60.1235962 46,56.5217391 C46,52.9198821 48.9198821,50 52.5217391,50 L96,50 Z M148.173913,82.6086957 C151.77577,82.6086957 154.695652,85.5285777 154.695652,89.1304348 C154.695652,92.7322918 151.77577,95.6521739 148.173913,95.6521739 L117.73913,95.6521739 C114.137273,95.6521739 111.217391,92.7322918 111.217391,89.1304348 C111.217391,85.5285777 114.137273,82.6086957 117.73913,82.6086957 L148.173913,82.6086957 Z M148.173913,56.5217391 C151.77577,56.5217391 154.695652,59.4416212 154.695652,63.0434783 C154.695652,66.6453353 151.77577,69.5652174 148.173913,69.5652174 L117.73913,69.5652174 C114.137273,69.5652174 111.217391,66.6453353 111.217391,63.0434783 C111.217391,59.4416212 114.137273,56.5217391 117.73913,56.5217391 L148.173913,56.5217391 Z" id="Path-2" fill="#000000" fill-rule="nonzero"></path>
        <path d="M182.82,196.19975 L17.14,196.19975 C7.76236221,195.702242 0.320754347,188.119096 0,178.73375 L0,21.54575 C0.321767862,12.161182 7.76310226,4.57918295 17.14,4.08175 L182.82,4.08175 C192.196855,4.58025814 199.637326,12.1631307 199.958,21.54775 L199.958,178.73375 C199.637326,188.118369 192.196855,195.701242 182.82,196.19975 Z M188.532,27.36775 C188.532,19.59975 184.574,15.72375 177.108,15.72375 L28.566,15.72375 C21.1,15.72375 11.428,19.59975 11.428,27.36775 L11.428,167.09375 C11.428,181.65375 21.1,184.55975 28.566,184.55975 L177.106,184.55975 C184.574,184.55975 188.53,180.68375 188.53,172.91575 L188.53,27.36775 L188.532,27.36775 Z M117.73913,136.956522 C121.340987,136.956522 124.26087,139.876404 124.26087,143.478261 C124.26087,147.080118 121.340987,150 117.73913,150 L52.5217391,150 C48.9198821,150 46,147.080118 46,143.478261 C46,139.876404 48.9198821,136.956522 52.5217391,136.956522 L117.73913,136.956522 Z M148.173913,110.869565 C151.77577,110.869565 154.695652,113.789447 154.695652,117.391304 C154.695652,120.993161 151.77577,123.913043 148.173913,123.913043 L52.5217391,123.913043 C48.9198821,123.913043 46,120.993161 46,117.391304 C46,113.789447 48.9198821,110.869565 52.5217391,110.869565 L148.173913,110.869565 Z M96,50 C99.6018571,50 102.521739,52.9198821 102.521739,56.5217391 C102.521739,60.1235962 99.6018571,63.0434783 96,63.0434783 L80.7826087,63.0434783 L80.7826087,93.4782609 C80.7826087,97.0801179 77.8627266,100 74.2608696,100 C70.6590125,100 67.7391304,97.0801179 67.7391304,93.4782609 L67.7391304,63.0434783 L52.5217391,63.0434783 C48.9198821,63.0434783 46,60.1235962 46,56.5217391 C46,52.9198821 48.9198821,50 52.5217391,50 L96,50 Z M148.173913,82.6086957 C151.77577,82.6086957 154.695652,85.5285777 154.695652,89.1304348 C154.695652,92.7322918 151.77577,95.6521739 148.173913,95.6521739 L117.73913,95.6521739 C114.137273,95.6521739 111.217391,92.7322918 111.217391,89.1304348 C111.217391,85.5285777 114.137273,82.6086957 117.73913,82.6086957 L148.173913,82.6086957 Z M148.173913,56.5217391 C151.77577,56.5217391 154.695652,59.4416212 154.695652,63.0434783 C154.695652,66.6453353 151.77577,69.5652174 148.173913,69.5652174 L117.73913,69.5652174 C114.137273,69.5652174 111.217391,66.6453353 111.217391,63.0434783 C111.217391,59.4416212 114.137273,56.5217391 117.73913,56.5217391 L148.173913,56.5217391 Z" id="Path-2" fill="#000000" fill-rule="nonzero"></path>
    </g>
</svg>