<?xml version="1.0" encoding="UTF-8"?>
<svg width="200px" height="200px" viewBox="0 0 200 200" version="1.1" xmlns="http://www.w3.org/2000/svg" xmlns:xlink="http://www.w3.org/1999/xlink">
    <!-- Generator: Sketch 52.6 (67491) - http://www.bohemiancoding.com/sketch -->
    <title>单行文本</title>
    <desc>Created with Sketch.</desc>
    <g id="单行文本" stroke="none" stroke-width="1" fill="none" fill-rule="evenodd">
        <path d="M182.82,196.19975 L17.14,196.19975 C7.76236221,195.702242 0.320754347,188.119096 -1.42108547e-14,178.73375 L-1.42108547e-14,21.54575 C0.321767862,12.161182 7.76310226,4.57918295 17.14,4.08175 L182.82,4.08175 C192.196855,4.58025814 199.637326,12.1631307 199.958,21.54775 L199.958,178.73375 C199.637326,188.118369 192.196855,195.701242 182.82,196.19975 Z M188.532,27.36775 C188.532,19.59975 184.574,15.72375 177.108,15.72375 L28.566,15.72375 C21.1,15.72375 11.428,19.59975 11.428,27.36775 L11.428,167.09375 C11.428,181.65375 21.1,184.55975 28.566,184.55975 L177.106,184.55975 C184.574,184.55975 188.53,180.68375 188.53,172.91575 L188.53,27.36775 L188.532,27.36775 Z M138.19,148.12975 L61.85,148.12975 C57.9939479,148.12975 54.868,151.255698 54.868,155.11175 C54.868,158.967802 57.9939479,162.09375 61.85,162.09375 L138.19,162.09375 C142.046052,162.09375 145.172,158.967802 145.172,155.11175 C145.172,151.255698 142.046052,148.12975 138.19,148.12975 Z M146.988,38.09375 L53.052,38.09375 C49.1841687,38.084884 46.0387337,41.2079539 46.02,45.07575 L46.02,63.71575 C46.02,67.6049392 49.1728108,70.75775 53.062,70.75775 C56.9511892,70.75775 60.104,67.6049392 60.104,63.71575 L60.104,52.07775 L92.978,52.07775 L92.978,131.24975 C92.978,135.138939 96.1308108,138.29175 100.02,138.29175 C103.909189,138.29175 107.062,135.138939 107.062,131.24975 L107.062,52.07775 L139.946,52.07775 L139.946,63.71575 C139.946,67.6049392 143.098811,70.75775 146.988,70.75775 C150.877189,70.75775 154.03,67.6049392 154.03,63.71575 L154.03,45.07575 C154.025249,43.2150562 153.279879,41.4328174 151.958548,40.122745 C150.637218,38.8126726 148.848666,38.0825797 146.988,38.09375 Z" id="Shape" fill="#000000" fill-rule="nonzero"></path>
    </g>
</svg>