<?xml version="1.0" encoding="UTF-8"?>
<svg width="200px" height="200px" viewBox="0 0 200 200" version="1.1" xmlns="http://www.w3.org/2000/svg" xmlns:xlink="http://www.w3.org/1999/xlink">
    <!-- Generator: Sketch 52.6 (67491) - http://www.bohemiancoding.com/sketch -->
    <title>时间段</title>
    <desc>Created with Sketch.</desc>
    <g id="时间段" stroke="none" stroke-width="1" fill="none" fill-rule="evenodd">
        <path d="M100,0 C44.765625,0 0,44.765625 0,100 C0,155.234375 44.765625,200 100,200 C155.234375,200 200,155.234375 200,100 C200,44.765625 155.234375,0 100,0 Z M100,186.210938 C52.3828125,186.210938 13.7890625,147.617188 13.7890625,100 C13.7890625,52.3828125 52.3828125,13.7890625 100,13.7890625 C147.617188,13.7890625 186.210938,52.3828125 186.210938,100 C186.210938,147.617188 147.617188,186.210938 100,186.210938 Z" id="Shape" fill="#000000" fill-rule="nonzero"></path>
        <path d="M148.28125,93.1054688 L103.457031,93.1054688 L103.457031,96.5429688 C103.457031,94.6484375 101.914063,93.1054688 100.019531,93.1054688 L103.457031,93.1054688 L103.457031,48.28125 C103.457031,44.4726562 100.371094,41.3867188 96.5625,41.3867188 C92.7539062,41.3867188 89.6679688,44.4726562 89.6679688,48.28125 L89.6679688,96.5429688 C89.6679688,102.265625 94.296875,106.894531 100.019531,106.894531 L148.28125,106.894531 C152.089844,106.894531 155.175781,103.808594 155.175781,100 C155.175781,96.1914062 152.089844,93.1054688 148.28125,93.1054688 Z" id="Path" fill="#333333"></path>
        <path d="M103.457031,96.5429688 L103.457031,93.1054688 L100,93.1054688 C101.894531,93.1054688 103.457031,94.6484375 103.457031,96.5429688 Z" id="Path" fill="#333333"></path>
    </g>
</svg>