<?xml version="1.0" encoding="UTF-8"?>
<svg width="200px" height="200px" viewBox="0 0 200 200" version="1.1" xmlns="http://www.w3.org/2000/svg" xmlns:xlink="http://www.w3.org/1999/xlink">
    <title>图标-告警提示备份</title>
    <g id="首页" stroke="none" stroke-width="1" fill="none" fill-rule="evenodd">
        <g id="图标-告警提示备份">
            <rect id="矩形" fill="#FFFFFF" x="0" y="0" width="200" height="200"></rect>
            <path d="M188.47619,14.2857143 C189.58076,14.2857143 190.47619,15.1811448 190.47619,16.2857143 L190.47619,74.1904762 C190.47619,75.2950457 189.58076,76.1904762 188.47619,76.1904762 L11.5238095,76.1904762 C10.41924,76.1904762 9.52380952,75.2950457 9.52380952,74.1904762 L9.52380952,16.2857143 C9.52380952,15.1811448 10.41924,14.2857143 11.5238095,14.2857143 L188.47619,14.2857143 Z M179.952381,23.8095238 L20.047619,23.8095238 C19.4953343,23.8095238 19.047619,24.2572391 19.047619,24.8095238 L19.047619,65.6666667 C19.047619,66.2189514 19.4953343,66.6666667 20.047619,66.6666667 L179.952381,66.6666667 C180.504666,66.6666667 180.952381,66.2189514 180.952381,65.6666667 L180.952381,24.8095238 C180.952381,24.2572391 180.504666,23.8095238 179.952381,23.8095238 Z M42.8571429,35.7142857 C48.1169976,35.7142857 52.3809524,39.9782405 52.3809524,45.2380952 C52.3809524,50.49795 48.1169976,54.7619048 42.8571429,54.7619048 C37.5972881,54.7619048 33.3333333,50.49795 33.3333333,45.2380952 C33.3333333,39.9782405 37.5972881,35.7142857 42.8571429,35.7142857 Z M155.983111,38.0512753 L161.087748,43.1558455 L166.121675,38.121986 C166.316937,37.9267239 166.63352,37.9267239 166.828782,38.121986 L168.815415,40.1086193 C169.010677,40.3038815 169.010677,40.620464 168.815415,40.8157261 L163.781118,45.8492152 L168.886126,50.9542905 C169.042336,51.1105002 169.042336,51.3637662 168.886126,51.5199759 L166.758071,53.6480306 C166.601861,53.8042403 166.348595,53.8042403 166.192386,53.6480306 L161.087748,48.542585 L156.053821,53.5773199 C155.858559,53.7725821 155.541977,53.7725821 155.346715,53.5773199 L153.360081,51.5906866 C153.164819,51.3954245 153.164819,51.078842 153.360081,50.8835798 L158.394378,45.8492152 L153.289371,40.7450155 C153.133161,40.5888057 153.133161,40.3355397 153.289371,40.17933 L155.417425,38.0512753 C155.573635,37.8950656 155.826901,37.8950656 155.983111,38.0512753 Z M132.833333,38.0952381 C133.109476,38.0952381 133.333333,38.3190957 133.333333,38.5952381 L133.333333,51.8809524 C133.333333,52.1570948 133.109476,52.3809524 132.833333,52.3809524 L62.4047619,52.3809524 C62.1286195,52.3809524 61.9047619,52.1570948 61.9047619,51.8809524 L61.9047619,38.5952381 C61.9047619,38.3190957 62.1286195,38.0952381 62.4047619,38.0952381 L132.833333,38.0952381 Z M188.47619,85.7142857 C189.58076,85.7142857 190.47619,86.6097162 190.47619,87.7142857 L190.47619,188.47619 C190.47619,189.58076 189.58076,190.47619 188.47619,190.47619 L11.5238095,190.47619 C10.41924,190.47619 9.52380952,189.58076 9.52380952,188.47619 L9.52380952,87.7142857 C9.52380952,86.6097162 10.41924,85.7142857 11.5238095,85.7142857 L188.47619,85.7142857 Z M179.952381,95.2380952 L20.047619,95.2380952 C19.4953343,95.2380952 19.047619,95.6858105 19.047619,96.2380952 L19.047619,179.952381 C19.047619,180.504666 19.4953343,180.952381 20.047619,180.952381 L179.952381,180.952381 C180.504666,180.952381 180.952381,180.504666 180.952381,179.952381 L180.952381,96.2380952 C180.952381,95.6858105 180.504666,95.2380952 179.952381,95.2380952 Z M113.785714,154.761905 C114.061857,154.761905 114.285714,154.985762 114.285714,155.261905 L114.285714,161.404762 C114.285714,161.680904 114.061857,161.904762 113.785714,161.904762 L62.4047619,161.904762 C62.1286195,161.904762 61.9047619,161.680904 61.9047619,161.404762 L61.9047619,155.261905 C61.9047619,154.985762 62.1286195,154.761905 62.4047619,154.761905 L113.785714,154.761905 Z M161.404762,140.47619 C161.680904,140.47619 161.904762,140.700048 161.904762,140.97619 L161.904762,147.119048 C161.904762,147.39519 161.680904,147.619048 161.404762,147.619048 L62.4047619,147.619048 C62.1286195,147.619048 61.9047619,147.39519 61.9047619,147.119048 L61.9047619,140.97619 C61.9047619,140.700048 62.1286195,140.47619 62.4047619,140.47619 L161.404762,140.47619 Z M42.8571429,111.904762 C48.1169976,111.904762 52.3809524,116.168717 52.3809524,121.428571 C52.3809524,126.688426 48.1169976,130.952381 42.8571429,130.952381 C37.5972881,130.952381 33.3333333,126.688426 33.3333333,121.428571 C33.3333333,116.168717 37.5972881,111.904762 42.8571429,111.904762 Z M109.02381,114.285714 C109.299952,114.285714 109.52381,114.509572 109.52381,114.785714 L109.52381,128.071429 C109.52381,128.347571 109.299952,128.571429 109.02381,128.571429 L62.4047619,128.571429 C62.1286195,128.571429 61.9047619,128.347571 61.9047619,128.071429 L61.9047619,114.785714 C61.9047619,114.509572 62.1286195,114.285714 62.4047619,114.285714 L109.02381,114.285714 Z M155.983111,109.479847 L161.087748,114.584417 L166.121675,109.550557 C166.316937,109.355295 166.63352,109.355295 166.828782,109.550557 L168.815415,111.537191 C169.010677,111.732453 169.010677,112.049035 168.815415,112.244298 L163.781118,117.277787 L168.886126,122.382862 C169.042336,122.539072 169.042336,122.792338 168.886126,122.948547 L166.758071,125.076602 C166.601861,125.232812 166.348595,125.232812 166.192386,125.076602 L161.087748,119.971156 L156.053821,125.005891 C155.858559,125.201154 155.541977,125.201154 155.346715,125.005891 L153.360081,123.019258 C153.164819,122.823996 153.164819,122.507413 153.360081,122.312151 L158.394378,117.277787 L153.289371,112.173587 C153.133161,112.017377 153.133161,111.764111 153.289371,111.607901 L155.417425,109.479847 C155.573635,109.323637 155.826901,109.323637 155.983111,109.479847 Z" id="形状结合" fill="#262626"></path>
        </g>
    </g>
</svg>