<?xml version="1.0" encoding="UTF-8"?>
<svg width="200px" height="200px" viewBox="0 0 200 200" version="1.1" xmlns="http://www.w3.org/2000/svg" xmlns:xlink="http://www.w3.org/1999/xlink">
    <!-- Generator: Sketch 52.6 (67491) - http://www.bohemiancoding.com/sketch -->
    <title>上传</title>
    <desc>Created with Sketch.</desc>
    <g id="上传" stroke="none" stroke-width="1" fill="none" fill-rule="evenodd">
        <g transform="translate(10.000000, 19.000000)" fill="#000000" id="Path">
            <path d="M42.8504464,40.0580357 C45.140625,43.3325893 49.640625,44.1361607 52.9151786,41.8459821 L82.7678571,20.9933036 L82.7678571,122.685268 C82.7678571,126.683036 86.0022321,129.917411 90,129.917411 C93.9977679,129.917411 97.2321429,126.683036 97.2321429,122.685268 L97.2321429,21.2946429 L127.165179,42.0267857 C130.479911,44.3169643 134.979911,43.5334821 137.209821,40.2589286 C139.439732,36.984375 138.575893,32.484375 135.261161,30.1941964 L93.9776786,1.58705357 C93.9174107,1.546875 93.8772321,1.52678571 93.8169643,1.48660714 C91.3861607,-0.241071429 88.0513393,-0.341517857 85.4799107,1.44642857 L44.6383929,29.9933036 C41.3638393,32.2834821 40.5803571,36.7834821 42.8504464,40.0580357 Z"></path>
            <path d="M172.767857,98.6383929 C168.770089,98.6383929 165.535714,101.872768 165.535714,105.870536 L165.535714,143.899554 C165.535714,146.430804 164.189732,148.459821 162.522321,148.459821 L17.4776786,148.459821 C15.8102679,148.459821 14.4642857,146.410714 14.4642857,143.899554 L14.4642857,105.870536 C14.4642857,101.872768 11.2299107,98.6383929 7.23214286,98.6383929 C3.234375,98.6383929 0,101.872768 0,105.870536 L0,145.446429 C0,155.089286 7.83482143,162.924107 17.4776786,162.924107 L162.522321,162.924107 C172.165179,162.924107 180,155.089286 180,145.446429 L180,105.870536 C180,101.872768 176.765625,98.6383929 172.767857,98.6383929 Z"></path>
        </g>
    </g>
</svg>