<?xml version="1.0" encoding="UTF-8"?>
<svg width="29px" height="32px" viewBox="0 0 29 32" version="1.1" xmlns="http://www.w3.org/2000/svg" xmlns:xlink="http://www.w3.org/1999/xlink">
    <!-- Generator: Sketch 61.2 (89653) - https://sketch.com -->
    <title>告警规则</title>
    <desc>Created with Sketch.</desc>
    <g id="设计稿" stroke="none" stroke-width="1" fill="none" fill-rule="evenodd">
        <g id="告警规则" transform="translate(0.000000, 0.000000)">
            <g>
                <path d="M19.4969165,30.5123638 L2.23258986,30.5116279 L2.23258986,30.5116279 C1.82155554,30.5116279 1.48837209,30.1784445 1.48837209,29.7674419 L1.48837209,5.20930233 C1.48837209,3.1542893 3.1542893,1.48837209 5.20930233,1.48837209 L23.0697674,1.48837209 C23.48077,1.48837209 23.8139535,1.82155554 23.8139535,2.23255814 L23.8139535,14.1395349 C23.8139535,14.5505375 24.1471369,14.8837209 24.5581395,14.8837209 C24.9691421,14.8837209 25.3023256,14.5505375 25.3023256,14.1395349 L25.3023256,2.23253648 L25.3023256,2.23253648 C25.3023256,0.999550326 24.3027753,-5.95533958e-13 23.0697674,-5.95533958e-13 L5.20930233,-5.95533958e-13 C2.33228409,-5.95533958e-13 4.77137709e-14,2.33228409 4.77137709e-14,5.20930233 L4.77137709e-14,29.7674419 C4.77137709e-14,31.0004497 0.999550326,32 2.23255814,32 L19.4968531,32.0007359 C19.9078557,32.0007534 20.2410533,31.6675842 20.2410709,31.2565816 C20.2410884,30.845579 19.9079191,30.5123813 19.4969165,30.5123638 Z" id="形状结合" fill="#595959" fill-rule="nonzero"></path>
                <line x1="7.44186047" y1="7.81395349" x2="18.6046512" y2="7.81395349" id="直线备份-3" stroke="#595959" stroke-width="2" stroke-linecap="round"></line>
                <g id="警告" transform="translate(17.116279, 17.116279)" fill-rule="nonzero">
                    <rect id="矩形" fill="#000000" opacity="0" x="0" y="0" width="11.9069767" height="11.9069767"></rect>
                    <path d="M6.93333333,1.19069767 C6.93333333,1.24031008 7.03255813,1.33953488 7.18139535,1.5875969 C7.33023257,1.83565891 7.47906977,2.08372093 7.67751937,2.48062015 C7.87596898,2.87751937 8.124031,3.2248062 8.37209303,3.67131783 C8.62015504,4.11782945 8.91782946,4.56434108 9.16589147,5.01085271 C9.41395348,5.45736434 9.7116279,5.95348837 9.95968992,6.4 C10.2077519,6.84651163 10.455814,7.29302326 10.703876,7.64031007 C10.9023256,8.03720929 11.1007752,8.33488371 11.2992248,8.63255814 C11.4976744,8.93023257 11.5472868,9.07906977 11.6465116,9.17829457 C11.7457364,9.37674419 11.8449612,9.57519379 11.8449612,9.77364341 C11.8945736,9.97209302 11.8449612,10.1209302 11.7953488,10.3193798 C11.7457364,10.5178294 11.6465116,10.6170543 11.5472868,10.7162791 C11.3984496,10.8155039 11.2496124,10.8651163 11.0511628,10.8651163 L1.02945736,10.8651163 C0.731782945,10.8651163 0.483720933,10.8155039 0.334883724,10.7162791 C0.186046515,10.6170543 0.0868217122,10.4682171 0.0372093052,10.3193798 C-0.0124031017,10.1705426 -0.0124031017,9.97209301 0.0372093052,9.82325581 C0.0868217122,9.6248062 0.136434108,9.47596899 0.285271317,9.27751937 C0.334883724,9.17829457 0.434108526,9.02945736 0.582945735,8.73178294 C0.731782945,8.48372093 0.930232561,8.1364341 1.17829457,7.78914728 C1.42635658,7.39224806 1.67441861,6.99534883 1.92248062,6.54883721 C2.17054263,6.10232558 2.46821705,5.60620155 2.76589147,5.15968992 C3.06356589,4.71317829 3.3116279,4.21705426 3.55968992,3.77054263 C3.80775193,3.324031 4.05581396,2.92713178 4.25426356,2.57984495 C4.45271318,2.23255813 4.65116278,1.93488371 4.8,1.6868217 L5.04806201,1.28992248 C5.14728682,1.14108527 5.29612403,0.992248058 5.49457364,0.893023256 C5.69302326,0.793798453 5.84186047,0.744186047 6.04031007,0.744186047 C6.23875968,0.744186047 6.3875969,0.793798453 6.58604651,0.843410849 C6.68527132,0.893023256 6.83410853,1.04186047 6.93333333,1.19069767 Z M6.63565891,3.47286821 C6.63565891,3.37364341 6.63565891,3.27441859 6.58604651,3.2248062 C6.53643411,3.1255814 6.48682171,3.07596899 6.43720931,3.02635658 C6.3875969,2.97674417 6.2883721,2.92713178 6.18914728,2.87751937 C6.08992247,2.82790697 5.99069767,2.77829457 5.89147286,2.77829457 C5.69302325,2.77829457 5.54418604,2.82790698 5.39534884,2.97674419 C5.24651164,3.1255814 5.14728682,3.2744186 5.14728682,3.47286821 L5.14728682,6.54883721 C5.14728682,6.74728683 5.24651162,6.89612403 5.39534884,7.04496123 C5.54418606,7.19379843 5.69302326,7.24341085 5.89147286,7.24341085 C6.08992247,7.24341085 6.23875969,7.19379844 6.3875969,7.04496123 C6.53643411,6.89612402 6.63565891,6.74728681 6.63565891,6.54883721 L6.63565891,3.47286821 Z M5.89147286,7.93798449 C5.69302325,7.93798449 5.49457364,7.9875969 5.39534884,8.1364341 C5.29612404,8.28527131 5.19689922,8.43410852 5.19689922,8.63255814 C5.19689922,8.83100776 5.24651163,9.02945736 5.39534884,9.12868216 C5.54418605,9.27751937 5.69302326,9.32713178 5.89147286,9.32713178 C6.08992247,9.32713178 6.28837208,9.27751937 6.3875969,9.12868216 C6.53643411,8.97984495 6.58604651,8.83100774 6.58604651,8.63255814 C6.58604651,8.43410853 6.53643411,8.23565892 6.3875969,8.1364341 C6.2883721,7.9875969 6.08992248,7.93798449 5.89147286,7.93798449 L5.89147286,7.93798449 Z" id="形状" fill="#595959"></path>
                </g>
                <line x1="7.44186047" y1="12.2790698" x2="13.3953488" y2="12.2790698" id="直线备份-4" stroke="#595959" stroke-width="2" stroke-linecap="round"></line>
            </g>
        </g>
    </g>
</svg>