<?xml version="1.0" encoding="UTF-8"?>
<svg width="38px" height="41px" viewBox="0 0 38 41" version="1.1" xmlns="http://www.w3.org/2000/svg" xmlns:xlink="http://www.w3.org/1999/xlink">
    <!-- Generator: Sketch 63.1 (92452) - https://sketch.com -->
    <title>告警策略</title>
    <desc>Created with Sketch.</desc>
    <g id="指标定义" stroke="none" stroke-width="1" fill="none" fill-rule="evenodd">
        <g id="资源实例列表（首页）" transform="translate(-1591.000000, -192.000000)">
            <g id="告警策略" transform="translate(1592.000000, 193.000000)">
                <path d="M22.5,38.25 L2.5,38.25 C1.11928813,38.25 0,37.1307119 0,35.75 L0,5.75 C0,2.98857625 2.23857625,0.75 5,0.75 L27.5,0.75 C28.8807119,0.75 30,1.86928813 30,3.25 L30,17" id="路径" stroke="#595959" stroke-width="2" stroke-linecap="round"></path>
                <line x1="8.05232559" y1="9.26744186" x2="22.005814" y2="9.26744186" id="直线备份-3" stroke="#595959" stroke-width="2" stroke-linecap="round"></line>
                <g id="警告" transform="translate(20.145349, 19.645349)" fill="#595959" fill-rule="nonzero">
                    <path d="M9.49530648,1.54173708 C9.49530648,1.60968204 9.63119637,1.74557193 9.83503123,2.08529668 C10.0388661,2.42502141 10.2427009,2.76474615 10.5144807,3.30830573 C10.7862605,3.85186531 11.1259852,4.32747996 11.46571,4.93898449 C11.8054347,5.55048901 12.2131044,6.16199355 12.5528291,6.77349808 C12.8925539,7.38500262 13.3002236,8.0644521 13.6399483,8.67595663 C13.979673,9.28746117 14.3193979,9.8989657 14.6591226,10.3745803 C14.9309024,10.9181399 15.2026821,11.3258096 15.4744619,11.7334793 C15.7462417,12.141149 15.8141866,12.3449838 15.9500765,12.4808737 C16.0859664,12.7526535 16.2218563,13.0244333 16.2218563,13.2962131 C16.2898012,13.5679929 16.2218563,13.7718277 16.1539113,14.0436075 C16.0859664,14.3153872 15.9500765,14.4512773 15.8141866,14.5871672 C15.6103518,14.723057 15.406517,14.791002 15.1347372,14.791002 L1.40985767,14.791002 C1.00218798,14.791002 0.662463247,14.723057 0.458628403,14.5871672 C0.25479356,14.4512773 0.118903668,14.2474424 0.0509587149,14.0436075 C-0.0169862383,13.8397726 -0.0169862383,13.5679929 0.0509587149,13.364158 C0.118903668,13.0923783 0.186848606,12.8885434 0.39068345,12.6167636 C0.458628403,12.4808737 0.594518294,12.2770389 0.798353137,11.8693692 C1.00218798,11.5296444 1.27396778,11.0540298 1.61369251,10.5784152 C1.95341724,10.0348556 2.293142,9.491296 2.63286674,8.87979148 C2.97259147,8.26828694 3.38026116,7.58883746 3.78793085,6.97733293 C4.19560054,6.36582839 4.53532527,5.68637891 4.87505002,5.07487438 C5.21477475,4.46336984 5.55449951,3.91981027 5.82627928,3.44419562 C6.09805909,2.96858099 6.36983886,2.5609113 6.57367372,2.22118656 L6.91339845,1.67762699 C7.04928835,1.47379214 7.2531232,1.26995729 7.52490299,1.1340674 C7.79668279,0.998177511 8.00051764,0.930232559 8.27229741,0.930232559 C8.5440772,0.930232559 8.74791206,0.998177511 9.01969185,1.06612245 C9.15558175,1.1340674 9.35941659,1.33790225 9.49530648,1.54173708 Z M9.08763679,5.91720469 C9.08763679,5.7813148 9.08763679,5.64542489 9.01969185,5.57747996 C8.9517469,5.44159007 8.88380196,5.37364511 8.81585702,5.30570015 C8.74791206,5.2377552 8.61202217,5.16981027 8.47613226,5.10186531 C8.34024235,5.03392037 8.20435247,4.96597542 8.06846257,4.96597542 C7.79668278,4.96597542 7.59284793,5.03392038 7.3890131,5.23775522 C7.18517827,5.44159007 7.04928835,5.6454249 7.04928835,5.91720469 L7.04928835,10.1297915 C7.04928835,10.4015713 7.18517824,10.6054061 7.3890131,10.8092409 C7.59284796,11.0130758 7.79668279,11.0810207 8.06846257,11.0810207 C8.34024235,11.0810207 8.54407721,11.0130758 8.74791206,10.8092409 C8.9517469,10.6054061 9.08763679,10.4015713 9.08763679,10.1297915 L9.08763679,5.91720469 Z M8.06846257,12.03225 C7.79668278,12.03225 7.52490299,12.100195 7.3890131,12.3040298 C7.25312321,12.5078646 7.1172333,12.7116995 7.1172333,12.9834793 C7.1172333,13.2552591 7.18517826,13.5270389 7.3890131,13.6629288 C7.59284795,13.8667636 7.79668279,13.9347086 8.06846257,13.9347086 C8.34024235,13.9347086 8.61202214,13.8667636 8.74791206,13.6629288 C8.9517469,13.4590939 9.01969185,13.2552591 9.01969185,12.9834793 C9.01969185,12.7116995 8.9517469,12.4399197 8.74791206,12.3040298 C8.61202217,12.100195 8.34024237,12.03225 8.06846257,12.03225 L8.06846257,12.03225 Z" id="形状"></path>
                </g>
                <line x1="8.05232559" y1="14.8488372" x2="15.494186" y2="14.8488372" id="直线备份-4" stroke="#595959" stroke-width="2" stroke-linecap="round"></line>
            </g>
        </g>
    </g>
</svg>