<?xml version="1.0" encoding="UTF-8"?>
<svg width="16px" height="16px" viewBox="0 0 16 16" version="1.1" xmlns="http://www.w3.org/2000/svg" xmlns:xlink="http://www.w3.org/1999/xlink">
    <title>7555CD1D-DED4-46DF-B7A2-D67A0D3989E2</title>
    <g id="页面-1" stroke="none" stroke-width="1" fill="none" fill-rule="evenodd" stroke-linecap="round">
        <g id="编组-8" stroke="#FFFFFF" transform="translate(1.000000, 2.000000)">
            <line x1="6.31675636" y1="6.80381319" x2="6.31675636" y2="-1.80381319" id="Stroke-3备份-5" transform="translate(6.316756, 2.500000) rotate(-270.000000) translate(-6.316756, -2.500000) "></line>
            <line x1="4.51987787" y1="7.13046682" x2="4.47996281" y2="2.13062614" id="Stroke-7备份-5" transform="translate(4.499920, 4.630546) rotate(-270.000000) translate(-4.499920, -4.630546) "></line>
            <line x1="6.56161992" y1="9.26101329" x2="6.52170487" y2="4.26117262" id="Stroke-7备份-6" transform="translate(6.541662, 6.761093) rotate(-270.000000) translate(-6.541662, -6.761093) "></line>
            <line x1="8.16377749" y1="11.3827058" x2="8.0780958" y2="6.38344004" id="Stroke-11备份-5" transform="translate(8.120937, 8.883073) rotate(-270.000000) translate(-8.120937, -8.883073) "></line>
            <path d="M11.667,13 L2.333,13 C1.6,13 1,12.4 1,11.667 L1,0.333 C1,-0.4 1.6,-1 2.333,-1 L11.667,-1 C12.4,-1 13,-0.4 13,0.333 L13,11.667 C13,12.4 12.4,13 11.667,13 Z" id="Stroke-1备份-5" transform="translate(7.000000, 6.000000) rotate(-270.000000) translate(-7.000000, -6.000000) "></path>
        </g>
    </g>
</svg>