<?xml version="1.0" encoding="UTF-8"?>
<svg width="32px" height="33px" viewBox="0 0 32 33" version="1.1" xmlns="http://www.w3.org/2000/svg" xmlns:xlink="http://www.w3.org/1999/xlink">
    <!-- Generator: Sketch 61.2 (89653) - https://sketch.com -->
    <title>自动采集 2</title>
    <desc>Created with Sketch.</desc>
    <g id="设计稿" stroke="none" stroke-width="1" fill="none" fill-rule="evenodd">
        <g id="自动采集-2">
            <g id="自动采集">
                <g>
                    <path d="M17.4898779,2.4512588 L14.4716223,2.4512588 L14.4716223,1.50626417 L17.4956051,1.50626417 L17.4898779,2.4512588 L17.4898779,2.4512588 Z M14.5002585,0 L17.4898779,0 L17.4612417,0.962176351 L14.5002585,0.962176351 L14.5002585,0 Z M14.5002585,2.87507457 L17.4898779,2.87507457 L17.4898779,4.82806348 L19.8036829,4.82806348 L15.9492503,9.39267391 L12.0948176,4.82806348 L14.5002585,4.82806348 L14.5002585,2.87507457 Z" id="形状" fill="#595959" fill-rule="nonzero"></path>
                    <path d="M8.60692837,6.23123732 L3.49250288,8.52786064 C3.49250288,8.52786064 2.99423299,8.73404128 2.99423299,9.11776638 C2.99423299,9.52440043 3.5096846,9.82794416 3.5096846,9.82794416 L15.0042557,15.8873643 C15.2390725,15.9904546 15.5082528,16.047727 15.7831603,16.047727 C16.0695223,16.047727 16.3329754,15.9847274 16.5677922,15.881637 L28.056636,9.81648968 C28.056636,9.81648968 28.5205957,9.57021835 28.5205957,9.1063119 C28.5262697,8.71685956 28.0680905,8.52786064 28.0680905,8.52786064 L28.0680905,8.52786064 L23.2113908,6.34578213" id="路径" stroke="#595959" stroke-width="2" stroke-linecap="round"></path>
                    <path d="M13.4464463,17.9434435 L13.4464463,17.9434435 L2.43296345,12.2276578 C2.32987313,12.1875671 2.2267828,12.1646582 2.11796524,12.1646582 C1.68269498,12.1646582 1.33333333,12.4796564 1.33333333,12.8748359 L1.33333333,24.2663167 C1.33333333,24.8447679 1.65978602,25.3774013 2.18096488,25.6351271 L2.19241936,25.6408543 L13.0226306,31.3852762 C13.1486298,31.4540031 13.2860836,31.4940938 13.4292646,31.4883665 C13.8645349,31.4883665 14.2138965,31.1676411 14.2138965,30.7781888 L14.2138965,19.266436 C14.2081693,18.7223482 13.91608,18.218351 13.4464463,17.9434435 Z" id="路径" stroke="#595959" stroke-width="2"></path>
                    <path d="M29.4540826,12.1703854 C29.3452651,12.1703854 29.2364475,12.1875671 29.1390844,12.233385 L18.1313288,17.9377163 L18.1256016,17.9377163 C17.6502406,18.2126238 17.3581514,18.7166209 17.3524241,19.266436 L17.3524241,30.7896432 C17.3524241,31.1848228 17.7017858,31.499821 18.137056,31.499821 C18.2687826,31.499821 18.3947818,31.4711848 18.5150539,31.4139124 C18.5265084,31.4081852 18.5379629,31.4024579 18.5436901,31.3967307 L29.3739013,25.6523088 L29.391083,25.6465816 C29.8950801,25.4747643 30.2387146,25.0051307 30.2387146,24.4667701 L30.2387146,12.8862904 C30.2387146,12.4911108 29.8836257,12.1703854 29.4540826,12.1703854 Z" id="路径" stroke="#595959" stroke-width="2"></path>
                    <rect id="矩形" x="0" y="0" width="32" height="32"></rect>
                </g>
            </g>
        </g>
    </g>
</svg>