<?xml version="1.0" encoding="UTF-8"?>
<svg width="34px" height="42px" viewBox="0 0 34 42" version="1.1" xmlns="http://www.w3.org/2000/svg" xmlns:xlink="http://www.w3.org/1999/xlink">
    <title>351B830F-ECF7-41A2-8604-F685A7FF75A4</title>
    <g id="页面-1" stroke="none" stroke-width="1" fill="none" fill-rule="evenodd">
        <path d="M22.390625,2.49667969 L22.390625,10.2681641 C22.390625,11.009375 22.9925781,11.6113281 23.7382813,11.6113281 L31.5457031,11.6113281 C32.1476562,11.6113281 32.4486328,10.8880859 32.021875,10.4658203 L23.540625,2.02050781 C23.1183594,1.59824219 22.390625,1.89472656 22.390625,2.49667969 L22.390625,2.49667969 Z M31.8242188,14.9625 L23.0644531,14.9625 C20.8318359,14.9625 19.0214844,13.1611328 19.0214844,10.9375 L19.0214844,2.21816406 C19.0214844,1.47695313 18.4195312,0.875 17.6738281,0.875 L3.5234375,0.875 C2.03652344,0.875 0.828125,2.07441406 0.828125,3.55683594 L0.828125,38.4386719 C0.828125,39.9210937 2.03652344,41.1205078 3.5234375,41.1205078 L30.4765625,41.1205078 C31.9634766,41.1205078 33.171875,39.9210937 33.171875,38.4386719 L33.171875,16.3056641 C33.171875,15.5644531 32.5699219,14.9625 31.8242188,14.9625 Z M22.0537109,26.7005859 L18.6845703,26.7005859 L18.6845703,30.05625 C18.6845703,30.9771484 17.9253906,31.7318359 17,31.7318359 C16.0746094,31.7318359 15.3154297,30.9771484 15.3154297,30.05625 L15.3154297,26.7005859 L11.9462891,26.7005859 C11.0208984,26.7005859 10.2617188,25.9458984 10.2617188,25.025 C10.2617188,24.1041016 11.0208984,23.3494141 11.9462891,23.3494141 L15.3154297,23.3494141 L15.3154297,19.99375 C15.3154297,19.0728516 16.0746094,18.3181641 17,18.3181641 C17.9253906,18.3181641 18.6845703,19.0728516 18.6845703,19.99375 L18.6845703,23.3494141 L22.0537109,23.3494141 C22.9791016,23.3494141 23.7382812,24.1041016 23.7382812,25.025 C23.7382812,25.9458984 22.9791016,26.7005859 22.0537109,26.7005859 Z" id="形状" fill="#FFFFFF" fill-rule="nonzero"></path>
    </g>
</svg>