<?xml version="1.0" encoding="UTF-8"?>
<svg width="46px" height="46px" viewBox="0 0 46 46" version="1.1" xmlns="http://www.w3.org/2000/svg" xmlns:xlink="http://www.w3.org/1999/xlink">
<title>99AFF49B-E714-49D3-AE61-B7CDC8F3F0B5</title>
<g id="页面-1" stroke="none" stroke-width="1" fill="none" fill-rule="evenodd">
  <g id="绑定">
    <path d="M23,0 C35.7025492,0 46,10.2974508 46,23 C46,35.7025492 35.7025492,46 23,46 C10.2974508,46 0,35.7025492 0,23 C0,10.2974508 10.2974508,0 23,0 Z M20.6214167,18.5106667 L11.89675,27.2353333 C10.1203034,29.0227081 10.1203034,31.9090419 11.89675,33.6964167 L12.2206667,34.0203333 C14.008265,35.7980502 16.8960683,35.7980502 18.6836667,34.0203333 L22.5610833,30.1429167 C21.1044166,30.3039167 19.8145,29.9819167 18.84275,29.0120833 L16.2590833,31.5976667 C15.7741666,32.0825834 15.12825,32.0825834 14.6433333,31.5976667 L14.3213333,31.27375 C13.8364166,30.7888333 13.8364166,30.1429167 14.3213333,29.658 L17.5528333,26.4265 L20.6214167,23.3579167 L22.7220833,21.25725 L22.8830833,21.09625 C23.368,20.6113333 24.0139166,20.6113333 24.4988333,21.09625 L24.82275,21.41825 L24.98375,21.5811667 L27.5693333,18.9936667 L27.4064167,18.8345833 L27.0844167,18.5106667 C25.2968183,16.7329498 22.409015,16.7329498 20.6214167,18.5106667 Z M26.9215,12.2105833 L23.0440833,16.088 C24.3378333,16.088 25.6315833,16.41 26.5995,17.3798333 L29.3460833,14.63325 C29.831,14.1483333 30.4769166,14.1483333 30.9618333,14.63325 L31.2838333,14.9571667 C31.76875,15.4420834 31.76875,16.088 31.2838333,16.5729167 L28.0523333,19.8025 L24.98375,22.873 L23.529,24.32775 L22.5610833,25.2956667 C22.0761666,25.7805834 21.43025,25.7805834 20.9453333,25.2956667 L20.6214167,24.9736667 L20.4604167,24.81075 L18.0358333,27.2353333 L18.19875,27.3963333 L18.52075,27.72025 C20.3083484,29.4979669 23.1961516,29.4979669 24.98375,27.72025 L33.7084167,18.9955833 C35.4861336,17.207985 35.4861336,14.3201817 33.7084167,12.5325833 L33.3845,12.2105833 C31.5969016,10.4328664 28.7090984,10.4328664 26.9215,12.2105833 Z" id="形状结合" fill="#FFFFFF" fill-rule="nonzero"></path>
    <g id="编组-3" transform="translate(10.564415, 10.877296)"></g>
  </g>
</g>
</svg>
