<?xml version="1.0" encoding="UTF-8"?>
<svg width="40px" height="39px" viewBox="0 0 40 39" version="1.1" xmlns="http://www.w3.org/2000/svg" xmlns:xlink="http://www.w3.org/1999/xlink">
    <!-- Generator: Sketch 62 (91390) - https://sketch.com -->
    <title>采集模版</title>
    <desc>Created with Sketch.</desc>
    <g id="侧边栏图标" stroke="none" stroke-width="1" fill="none" fill-rule="evenodd">
        <g id="Apple-TV" transform="translate(-364.000000, -152.000000)">
            <g id="采集模版" transform="translate(364.000000, 153.000000)">
                <g id="编组-2">
                    <path d="M36,16.6093263 C38.209139,16.6093263 40,18.4001873 40,20.6093263 L40,33.6093263 C40,35.8184653 38.209139,37.6093263 36,37.6093263 L4,37.6093263 C1.790861,37.6093263 2.705415e-16,35.8184653 0,33.6093263 L0,20.6093263 C-2.705415e-16,18.4001873 1.790861,16.6093263 4,16.6093263 L36,16.6093263 Z M26.5,26.1093263 L13.5,26.1093263 L13.3833789,26.1160541 C12.8860402,26.1738192 12.5,26.5964905 12.5,27.1093263 C12.5,27.6616111 12.9477153,28.1093263 13.5,28.1093263 L13.5,28.1093263 L26.5,28.1093263 L26.6166211,28.1025986 C27.1139598,28.0448335 27.5,27.6221622 27.5,27.1093263 C27.5,26.5570416 27.0522847,26.1093263 26.5,26.1093263 L26.5,26.1093263 Z" id="形状结合" fill="#FFFFFF"></path>
                    <path d="M9.02933812,26 C8.47705337,26 8.02933812,25.5522847 8.02933812,25 L8.02933812,3 C8.02933812,2.44771525 8.47705337,2 9.02933812,2 L21.0293381,2 C21.5816229,2 22.0293381,2.44771525 22.0293381,3 C22.0293381,9.29815186 22.0293381,14.0217658 22.0293381,17.1708417" id="路径" stroke="#FFFFFF" stroke-width="2" stroke-linejoin="round" transform="translate(15.029338, 14.000000) rotate(28.000000) translate(-15.029338, -14.000000) "></path>
                    <path d="M22.7035414,11.4012978 C22.7035414,10.8490131 23.1512567,10.4012978 23.7035414,10.4012978 L32.7035414,10.4012978 C33.2558262,10.4012978 33.7035414,10.8490131 33.7035414,11.4012978 C33.7035414,15.7989069 33.7035414,19.0971137 33.7035414,21.2959183" id="路径" stroke="#FFFFFF" stroke-width="2" stroke-linejoin="round" transform="translate(28.203541, 15.848608) rotate(28.000000) translate(-28.203541, -15.848608) "></path>
                </g>
            </g>
        </g>
    </g>
</svg>