<?xml version="1.0" encoding="UTF-8"?>
<svg width="44px" height="46px" viewBox="0 0 44 46" version="1.1" xmlns="http://www.w3.org/2000/svg" xmlns:xlink="http://www.w3.org/1999/xlink">
    <!-- Generator: Sketch 63.1 (92452) - https://sketch.com -->
    <title>采集模版</title>
    <desc>Created with Sketch.</desc>
    <g id="指标定义" stroke="none" stroke-width="1" fill="none" fill-rule="evenodd">
        <g id="资源实例列表（首页）" transform="translate(-1587.000000, -348.000000)">
            <g id="采集模版" transform="translate(1587.000000, 348.000000)">
                <rect id="矩形" x="0" y="0" width="45" height="45"></rect>
                <path d="M24.5951408,3.44708269 L20.3507189,3.44708269 L20.3507189,2.11818399 L24.6031947,2.11818399 L24.5951408,3.44708269 L24.5951408,3.44708269 Z M20.3909885,2.08166817e-17 L24.5951408,2.08166817e-17 L24.5548711,1.35306049 L20.3909885,1.35306049 L20.3909885,2.08166817e-17 Z M20.3909885,4.04307361 L24.5951408,4.04307361 L24.5951408,6.78946427 L27.8489291,6.78946427 L22.4286332,13.2084477 L17.0083373,6.78946427 L20.3909885,6.78946427 L20.3909885,4.04307361 Z" id="形状" fill="#595959" fill-rule="nonzero"></path>
                <path d="M12.103493,8.76267748 L4.91133218,11.992304 C4.91133218,11.992304 4.21064014,12.2822456 4.21064014,12.821859 C4.21064014,13.3936881 4.93549397,13.8205465 4.93549397,13.8205465 L21.0997346,22.341606 C21.4299457,22.4865768 21.8084805,22.5671161 22.1950692,22.5671161 C22.5977657,22.5671161 22.9682467,22.4785229 23.2984578,22.333552 L39.4546444,13.8044386 C39.4546444,13.8044386 40.1071612,13.4581196 40.1071612,12.8057511 C40.1150668,12.2580838 39.4707523,11.992304 39.4707523,11.992304 L39.4707523,11.992304 L32.6410183,8.92375612" id="路径" stroke="#595959" stroke-width="2"></path>
                <path d="M18.9090651,25.2329674 L18.9090651,25.2329674 L3.42135485,17.1951438 C3.27638409,17.1387662 3.13141331,17.1065506 2.97838862,17.1065506 C2.36628982,17.1065506 1.875,17.5495168 1.875,18.105238 L1.875,34.1245079 C1.875,34.9379549 2.33407409,35.6869706 3.06698186,36.0493975 L3.08308972,36.0574514 L18.3130743,44.1355447 C18.4902607,44.2321919 18.6835551,44.2885694 18.8849033,44.2805154 C19.4970022,44.2805154 19.988292,43.8294953 19.988292,43.281828 L19.988292,27.0934256 C19.9802381,26.3283022 19.5694875,25.6195561 18.9090651,25.2329674 Z" id="路径" stroke="#595959" stroke-width="2"></path>
                <path d="M41.4198037,17.1146045 C41.266779,17.1146045 41.1137543,17.1387662 40.9768374,17.2031977 L25.4971811,25.2249135 L25.4891272,25.2249135 C24.8206508,25.6115022 24.4099004,26.3202481 24.4018464,27.0934256 L24.4018464,43.2979357 C24.4018464,43.8536571 24.8931363,44.2966233 25.505235,44.2966233 C25.6904755,44.2966233 25.8676619,44.2563536 26.0367945,44.1758143 C26.0529024,44.1677604 26.0690103,44.1597064 26.0770642,44.1516525 L41.3070487,36.0735593 L41.3312105,36.0655054 C42.0399564,35.8238873 42.5231924,35.163465 42.5231924,34.4063955 L42.5231924,18.1213459 C42.5231924,17.5656246 42.0238486,17.1146045 41.4198037,17.1146045 Z" id="路径" stroke="#595959" stroke-width="2"></path>
            </g>
        </g>
    </g>
</svg>