<?xml version="1.0" encoding="UTF-8"?>
<svg width="24px" height="24px" viewBox="0 0 24 24" version="1.1" xmlns="http://www.w3.org/2000/svg" xmlns:xlink="http://www.w3.org/1999/xlink">
    <title>CPU-fill</title>
    <g id="1.0" stroke="none" stroke-width="1" fill="none" fill-rule="evenodd">
        <g id="描点遮罩细节展示" transform="translate(-1148.000000, -321.000000)" fill-rule="nonzero">
            <g id="统计数据" transform="translate(284.000000, 276.000000)">
                <g id="数据3" transform="translate(854.000000, 31.000000)">
                    <g id="CPU-fill" transform="translate(10.000000, 14.000000)">
                        <rect id="矩形" fill="#000000" opacity="0" x="0" y="0" width="24" height="24"></rect>
                        <path d="M22.16,5 C22.624625,5 23,5.286 23,5.64 L23,5.64 L23,20.36 C23,20.714 22.624625,21 22.16,21 L22.16,21 L2.84,21 C2.375375,21 2,20.714 2,20.36 L2,20.36 L2,5.64 C2,5.286 2.375375,5 2.84,5 L2.84,5 Z M6.852,9.862 C5.868,9.862 5.07,10.162 4.458,10.762 C3.84,11.362 3.531,12.103 3.531,12.985 C3.531,13.867 3.8385,14.608 4.4535,15.208 C5.0685,15.808 5.868,16.108 6.852,16.108 C7.503,16.108 8.09198437,16.0092344 8.61895312,15.8117031 L8.841,15.721 L8.841,14.632 C8.229,14.914 7.587,15.055 6.915,15.055 C6.237,15.055 5.694,14.8615 5.286,14.4745 C4.878,14.0875 4.674,13.591 4.674,12.985 C4.674,12.379 4.878,11.8825 5.286,11.4955 C5.694,11.1085 6.237,10.915 6.915,10.915 C7.491,10.915 8.04495918,11.0185918 8.57687755,11.2257755 L8.841,11.338 L8.841,10.249 C8.259,9.991 7.596,9.862 6.852,9.862 Z M16.923,9.97 L15.816,9.97 L15.816,13.327 C15.816,14.143 16.0545,14.8105 16.5315,15.3295 C17.0085,15.8485 17.676,16.108 18.534,16.108 C19.386,16.108 20.0505,15.8485 20.5275,15.3295 C20.9568,14.8624 21.192915,14.275015 21.235845,13.567345 L21.243,13.327 L21.243,9.97 L20.136,9.97 L20.136,13.255 C20.136,13.807 20.001,14.2435 19.731,14.5645 C19.461,14.8855 19.062,15.046 18.534,15.046 C18.006,15.046 17.6055,14.8855 17.3325,14.5645 C17.093625,14.283625 16.9592578,13.9143203 16.9293984,13.4565859 L16.923,13.255 L16.923,9.97 Z M12.36,9.97 L10.155,9.97 L10.155,16 L11.253,16 L11.253,13.885 L12.36,13.885 C13.026,13.885 13.563,13.7005 13.971,13.3315 C14.379,12.9625 14.583,12.493 14.583,11.923 C14.583,11.341 14.379,10.87 13.971,10.51 C13.6083333,10.19 13.1437407,10.0122222 12.5772222,9.97666667 L12.36,9.97 Z M12.333,10.978 C12.669,10.978 12.939,11.062 13.143,11.23 C13.347,11.398 13.449,11.629 13.449,11.923 C13.449,12.211 13.347,12.4405 13.143,12.6115 C12.939,12.7825 12.669,12.868 12.333,12.868 L11.253,12.868 L11.253,10.978 L12.333,10.978 Z" id="形状结合" fill="#FFFFFF"></path>
                    </g>
                </g>
            </g>
        </g>
    </g>
</svg>