<?xml version="1.0" encoding="UTF-8"?>
<svg width="46px" height="46px" viewBox="0 0 46 46" version="1.1" xmlns="http://www.w3.org/2000/svg" xmlns:xlink="http://www.w3.org/1999/xlink">
  <title>229FBC03-A300-4614-8E45-BB4F080D98BA</title>
  <g id="页面-1" stroke="none" stroke-width="1" fill="none" fill-rule="evenodd">
    <g id="新建谱书" transform="translate(4.000000, 0.000000)" fill="#FFFFFF" fill-rule="nonzero">
      <path d="M25.3333333,1.85355508 L25.3333333,10.7362429 C25.3333333,11.5834357 26.0405556,12.2714589 26.9166667,12.2714589 L36.0894444,12.2714589 C36.7966667,12.2714589 37.1502778,11.4448041 36.6488889,10.962161 L26.6844444,1.30929791 C26.1883333,0.826654761 25.3333333,1.16553187 25.3333333,1.85355508 L25.3333333,1.85355508 Z M36.4166667,16.1017971 L26.125,16.1017971 C23.5019444,16.1017971 21.375,14.0428619 21.375,11.5012836 L21.375,1.53521598 C21.375,0.688023217 20.6677778,0 19.7916667,0 L3.16666667,0 C1.41972222,0 0,1.37091193 0,3.06529747 L0,42.9347025 C0,44.6290881 1.41972222,46 3.16666667,46 L34.8333333,46 C36.5802778,46 38,44.6290881 38,42.9347025 L38,17.6370131 C38,16.7898203 37.2927778,16.1017971 36.4166667,16.1017971 Z M24.9375,29.5182498 L20.9791667,29.5182498 L20.9791667,33.3537225 C20.9791667,34.4062953 20.0872222,35.2688916 19,35.2688916 C17.9127778,35.2688916 17.0208333,34.4062953 17.0208333,33.3537225 L17.0208333,29.5182498 L13.0625,29.5182498 C11.9752778,29.5182498 11.0833333,28.6556535 11.0833333,27.6030807 C11.0833333,26.5505079 11.9752778,25.6879116 13.0625,25.6879116 L17.0208333,25.6879116 L17.0208333,21.8524389 C17.0208333,20.7998661 17.9127778,19.9372698 19,19.9372698 C20.0872222,19.9372698 20.9791667,20.7998661 20.9791667,21.8524389 L20.9791667,25.6879116 L24.9375,25.6879116 C26.0247222,25.6879116 26.9166667,26.5505079 26.9166667,27.6030807 C26.9166667,28.6556535 26.0247222,29.5182498 24.9375,29.5182498 Z" id="形状"></path>
    </g>
  </g>
</svg>
