<?xml version="1.0" encoding="UTF-8"?>
<svg width="40px" height="40px" viewBox="0 0 40 40" version="1.1" xmlns="http://www.w3.org/2000/svg" xmlns:xlink="http://www.w3.org/1999/xlink">
    <title>3BD9E7BD-5869-4EC8-99F1-A849FDFB07BF</title>
    <g id="页面-1" stroke="none" stroke-width="1" fill="none" fill-rule="evenodd">
        <path d="M20,0 C31.045695,0 40,8.954305 40,20 C40,31.045695 31.045695,40 20,40 C8.954305,40 0,31.045695 0,20 C0,8.954305 8.954305,0 20,0 Z M23.0240631,14.5233962 C21.4271294,13.0977111 18.9772697,13.1486284 17.4412593,14.6761482 L17.4412593,14.6761482 L9.686,22.4314074 L9.53335718,22.593469 C8.10869087,24.1901416 8.15957181,26.6387743 9.686,28.1745926 L9.686,28.1745926 L9.97392594,28.4625185 L10.136011,28.6152705 C11.7329447,30.0409556 14.1828044,29.9900382 15.7188148,28.4625185 L15.7188148,28.4625185 L19.1654074,25.0159259 L18.9243995,25.0376923 C17.7283732,25.1210099 16.6700139,24.8189352 15.8602222,24.0107407 L15.8602222,24.0107407 L13.5636296,26.3090371 L13.4691784,26.3948046 C13.0513016,26.7378749 12.5276561,26.7092857 12.1274074,26.3090371 L12.1274074,26.3090371 L11.8411852,26.0211111 L11.7554176,25.9266599 C11.4123473,25.5087831 11.4409365,24.9851376 11.8411852,24.5848889 L11.8411852,24.5848889 L19.4516296,16.9744444 L19.5460809,16.8886769 C19.9639577,16.5456066 20.4876031,16.5741958 20.8878518,16.9744444 L20.8878518,16.9744444 L21.1757778,17.2606667 L21.3188889,17.4054815 L23.6171852,15.1054815 L23.4723704,14.9640741 L23.1861482,14.6761482 Z M28.6241372,8.92332209 C27.0272034,7.49763701 24.5773438,7.54855434 23.0413333,9.07607406 L23.0413333,9.07607406 L19.5947407,12.5226667 L19.8246549,12.5265688 C20.8967868,12.563389 21.9520988,12.8663605 22.7551111,13.6709629 L22.7551111,13.6709629 L25.1965185,11.2295556 L25.2909698,11.143788 C25.7088466,10.8007177 26.232492,10.8293069 26.6327407,11.2295556 L26.6327407,11.2295556 L26.9189629,11.5174815 L27.0047305,11.6119327 C27.3478008,12.0298095 27.3192116,12.553455 26.9189629,12.9537037 L26.9189629,12.9537037 L24.0465185,15.8244444 L21.3188889,18.5537778 L19.1654074,20.7072593 L19.0709561,20.7930268 C18.6530793,21.1360972 18.1294339,21.107508 17.7291852,20.7072593 L17.7291852,20.7072593 L17.4412593,20.4210371 L17.2981482,20.2762222 L15.1429629,22.4314074 L15.2877778,22.5745185 L15.574,22.8624444 L15.7360851,23.0151964 C17.3330188,24.4408815 19.7828784,24.3899642 21.3188889,22.8624444 L21.3188889,22.8624444 L29.0741482,15.1071852 L29.2269001,14.9451001 C30.6525852,13.3481664 30.6016679,10.8983067 29.0741482,9.36229628 L29.0741482,9.36229628 L28.7862222,9.07607406 Z" id="形状结合" fill="#FFFFFF" fill-rule="nonzero"></path>
    </g>
</svg>