<?xml version="1.0" encoding="UTF-8"?>
<svg width="19px" height="20px" viewBox="0 0 19 20" version="1.1" xmlns="http://www.w3.org/2000/svg" xmlns:xlink="http://www.w3.org/1999/xlink">
    <!-- Generator: Sketch 63.1 (92452) - https://sketch.com -->
    <title>仪表盘备份</title>
    <desc>Created with Sketch.</desc>
    <g id="页面-1" stroke="none" stroke-width="1" fill="none" fill-rule="evenodd">
        <g id="Apple-TV备份-5" transform="translate(-1255.000000, -291.000000)">
            <g id="仪表盘备份" transform="translate(1253.000000, 290.000000)">
                <g id="编组-2" fill="#1C4280" opacity="0">
                    <rect id="矩形备份-13" x="0" y="0" width="22" height="22"></rect>
                </g>
                <g id="编组-3" transform="translate(2.000000, 1.000000)" fill="#FFFFFF">
                    <path d="M10.2022245,-1.2332647e-13 C10.7159777,-1.23531867e-13 11.132457,0.416479302 11.132457,0.930232558 L11.13,0.96 L17.239636,0.960566229 C17.9149842,0.960566229 18.470454,1.47382675 18.5372496,2.13155207 L18.5439838,2.26491405 L18.5439838,14.479272 C18.5439838,15.1996434 17.9600074,15.7836198 17.239636,15.7836198 L17.239636,15.7836198 L10.739,15.783 L16.3713177,19.1620607 L16.4132918,19.1906564 C16.5857894,19.3234441 16.6351651,19.5673805 16.5204469,19.7585775 C16.3969042,19.964482 16.1298345,20.0312494 15.9239301,19.9077067 L15.9239301,19.9077067 L9.231,15.892 L2.995476,19.9006135 C2.79348902,20.0304623 2.524483,19.9719827 2.39463423,19.7699957 C2.27406037,19.5824364 2.31587167,19.3370902 2.48418196,19.1990335 L2.52525201,19.1691539 L7.792,15.783 L1.30434783,15.7836198 C0.628999627,15.7836198 0.0735298446,15.2703593 0.00673420079,14.612634 L-3.05610609e-13,14.479272 L-3.05610609e-13,2.26491405 C-3.05610609e-13,1.54454264 0.583976413,0.960566229 1.30434783,0.960566229 L1.30434783,0.960566229 L7.41201618,0.960695732 C7.41169075,0.950581298 7.41152679,0.940426075 7.41152679,0.930232558 C7.41152679,0.416479302 7.8280061,-1.23232095e-13 8.34175935,-1.2332647e-13 L10.2022245,-1.2332647e-13 Z M17.239636,1.83013145 L10.43292,1.83163605 C10.359151,1.8504592 10.2818562,1.86046512 10.2022245,1.86046512 L8.34175935,1.86046512 C8.2621276,1.86046512 8.18483285,1.8504592 8.11106379,1.83163605 L1.30434783,1.83013145 C1.06422402,1.83013145 0.869565217,2.02479025 0.869565217,2.26491405 L0.869565217,2.26491405 L0.869565217,14.479272 C0.869565217,14.7193958 1.06422402,14.9140546 1.30434783,14.9140546 L1.30434783,14.9140546 L17.239636,14.9140546 C17.4797598,14.9140546 17.6744186,14.7193958 17.6744186,14.479272 L17.6744186,14.479272 L17.6744186,2.26491405 C17.6744186,2.02479025 17.4797598,1.83013145 17.239636,1.83013145 L17.239636,1.83013145 Z M14.9590495,5.77350859 C15.2154675,5.77350859 15.4268031,5.94135216 15.4556857,6.15758637 L15.4590495,6.2082912 L15.4590495,12.4368049 C15.4590495,12.6769287 15.2351919,12.8715875 14.9590495,12.8715875 C14.7026316,12.8715875 14.491296,12.7037439 14.4624134,12.4875097 L14.4590495,12.4368049 L14.4590495,6.2082912 C14.4590495,5.9681674 14.6829072,5.77350859 14.9590495,5.77350859 Z M12.2896866,7.80024716 C12.5461045,7.80024716 12.7574401,7.96809072 12.7863227,8.18432493 L12.7896866,8.23502977 L12.7896866,12.1896416 C12.7896866,12.4297654 12.5658289,12.6244242 12.2896866,12.6244242 C12.0332686,12.6244242 11.821933,12.4565807 11.7930504,12.2403465 L11.7896866,12.1896416 L11.7896866,8.23502977 C11.7896866,7.99490597 12.0135442,7.80024716 12.2896866,7.80024716 Z" id="形状结合" fill-rule="nonzero"></path>
                    <path d="M7.10819009,4.44893832 C9.07385472,4.44893832 10.6673407,6.04242435 10.6673407,8.00808898 L10.6673407,8.00808898 L7.10819009,8.00808898 Z" id="形状结合"></path>
                    <path d="M9.77755308,8.8776542 C9.77755308,10.8433188 8.18406706,12.4368049 6.21840243,12.4368049 C4.2527378,12.4368049 2.65925177,10.8433188 2.65925177,8.8776542 C2.65925177,6.91198957 4.2527378,5.31850354 6.21840243,5.31850354 L6.21840243,5.31850354 L6.21840243,8.8776542 Z" id="形状结合"></path>
                </g>
            </g>
        </g>
    </g>
</svg>