<?xml version="1.0" encoding="UTF-8"?>
<svg width="15px" height="16px" viewBox="0 0 15 16" version="1.1" xmlns="http://www.w3.org/2000/svg" xmlns:xlink="http://www.w3.org/1999/xlink">
    <title>EE80CCDB-66EF-4D27-80F6-D9A0CE565919</title>
    <g id="事件概览" stroke="none" stroke-width="1" fill="none" fill-rule="evenodd">
        <g id="告警事件还原" transform="translate(-1696.000000, -132.000000)" fill="#fff" fill-rule="nonzero">
            <g id="Button/basic/d/more" transform="translate(1683.000000, 123.000000)">
                <g id="disconnect" transform="translate(12.000000, 8.000000)">
                    <g id="Shape" transform="translate(1.062500, 1.045898)">
                        <path d="M13.8805664,0.997753906 C12.559082,-0.323730469 10.4141602,-0.323730469 9.09267578,0.997753906 L6.109375,3.98105469 C5.87363281,4.21679688 5.87363281,4.59697266 6.109375,4.82939453 C6.34511719,5.06513672 6.72529297,5.06513672 6.95771484,4.82939453 L9.94101563,1.84609375 C10.7926758,0.994433594 12.1789063,0.994433594 13.0305664,1.84609375 C13.4422852,2.2578125 13.6713867,2.80732422 13.6713867,3.39003906 C13.6713867,3.97441406 13.4439453,4.52226563 13.0305664,4.93398438 L10.0489258,7.91728516 C9.81318359,8.15302734 9.81318359,8.53320312 10.0489258,8.765625 C10.1651367,8.88183594 10.3195313,8.93994141 10.4739258,8.93994141 C10.6283203,8.93994141 10.7810547,8.88183594 10.8989258,8.765625 L13.8822266,5.78232422 C15.2020508,4.46416016 15.2020508,2.31591797 13.8805664,0.997753906 Z M5.18964844,3.60586702 C5.52001953,3.60751953 5.78896484,3.33857422 5.78896484,3.00654297 L5.78730469,0.600976563 C5.78896484,0.270605469 5.52001953,0.00165251149 5.18798828,0.00165251149 C4.85761719,3.13768109e-15 4.58867188,0.268945313 4.58867188,0.600976563 L4.58867188,3.00820313 C4.59033203,3.17421875 4.65507813,3.32197266 4.76630859,3.42988281 C4.87421875,3.53779297 5.02529297,3.60586702 5.18964844,3.60586702 L5.18964844,3.60586702 Z M12.3698242,11.5048828 C12.250293,11.3886719 12.1008789,11.3305664 11.9464844,11.3322266 C11.7920898,11.3322266 11.6376953,11.390332 11.5214844,11.506543 C11.2857422,11.7389648 11.2857422,12.1191406 11.5214844,12.3548828 L13.2231445,14.0548828 C13.4555664,14.290625 13.8357422,14.290625 14.0714844,14.0548828 C14.3072266,13.8224609 14.3072266,13.4422852 14.0714844,13.206543 L12.3698242,11.5048828 Z M14.2707031,9.08271484 L11.8634766,9.08271484 C11.6974609,9.084375 11.549707,9.14912109 11.4417969,9.26035156 C11.3322266,9.36992187 11.2641525,9.51933594 11.2641525,9.68369141 C11.2625,10.0140625 11.5314453,10.2830078 11.8634766,10.2830078 L14.269043,10.2813477 C14.5994141,10.2830078 14.8683898,10.0140625 14.8683898,9.68203125 C14.8716797,9.35166016 14.6027344,9.08271484 14.2707031,9.08271484 Z M9.69033203,11.2724533 C9.35996094,11.2708008 9.09101562,11.5397461 9.09101562,11.8717773 L9.09267578,14.2773437 C9.09101562,14.6077148 9.35996094,14.8766678 9.69199219,14.8766678 C10.0223633,14.8783203 10.2913086,14.609375 10.2913086,14.2773437 L10.2913086,11.8701172 C10.2896484,11.7041016 10.2249023,11.5563477 10.1136719,11.4484375 C10.0057617,11.3405273 9.8546875,11.2724533 9.69033203,11.2724533 Z M7.915625,10.0505859 L4.93398437,13.0338867 C4.52226562,13.4456055 3.97275391,13.674707 3.39003906,13.674707 C2.80566406,13.674707 2.2578125,13.4472656 1.84609375,13.0338867 C1.434375,12.6205078 1.20361328,12.0726562 1.20361328,11.4899414 C1.20361328,10.9055664 1.43105469,10.3577148 1.84443359,9.94599609 L4.82773437,6.96269531 C5.06347656,6.72695313 5.06347656,6.34677734 4.82773437,6.11435547 C4.59199219,5.87861328 4.21181641,5.87861328 3.97939453,6.11435547 L0.99609375,9.09433594 C0.355273437,9.73515625 0.0033203125,10.5851563 0.0033203125,11.4882812 C0.0033203125,12.3914062 0.355273437,13.2430664 0.99609375,13.8805664 C1.65683594,14.5413086 2.5234375,14.8716797 3.38837891,14.8716797 C4.25498047,14.8716797 5.12324219,14.5413086 5.78066406,13.8805664 L8.765625,10.8989258 C9.00136719,10.6631836 9.00136719,10.2830078 8.765625,10.0505859 C8.52988281,9.81650391 8.15136719,9.81650391 7.915625,10.0505859 Z M2.51015625,3.3734375 C2.6296875,3.48964844 2.77910156,3.54775391 2.93349609,3.54609375 C3.08789063,3.54609375 3.24228516,3.48798828 3.35849609,3.37177734 C3.59423828,3.13935547 3.59423828,2.75917969 3.35849609,2.5234375 L1.65683594,0.825097656 C1.42441406,0.589355469 1.04423828,0.589355469 0.808496094,0.825097656 C0.572753906,1.05751953 0.572753906,1.43769531 0.808496094,1.6734375 L2.51015625,3.3734375 L2.51015625,3.3734375 Z M0.609277344,5.79726562 L3.01650391,5.79726562 C3.18251953,5.79560547 3.33027344,5.73085937 3.43818359,5.61962891 C3.54775391,5.51005859 3.61582796,5.36064453 3.61582796,5.19628906 C3.61748047,4.86591797 3.34853516,4.59697266 3.01650391,4.59697266 L0.6109375,4.59863281 C0.280566406,4.59697266 0.0116210937,4.86591797 0.0116210937,5.19794922 C0.006640625,5.52832031 0.275585937,5.79726562 0.609277344,5.79726562 Z"></path>
                    </g>
                </g>
            </g>
        </g>
    </g>
</svg>
