<?xml version="1.0" encoding="UTF-8"?>
<svg width="24px" height="24px" viewBox="0 0 24 24" version="1.1" xmlns="http://www.w3.org/2000/svg" xmlns:xlink="http://www.w3.org/1999/xlink">
    <title>网络流量-fill</title>
    <g id="1.0" stroke="none" stroke-width="1" fill="none" fill-rule="evenodd">
        <g id="描点遮罩细节展示" transform="translate(-1546.000000, -321.000000)" fill-rule="nonzero">
            <g id="统计数据" transform="translate(284.000000, 276.000000)">
                <g id="数据4" transform="translate(1252.000000, 31.000000)">
                    <g id="网络流量-fill" transform="translate(10.000000, 14.000000)">
                        <rect id="矩形" fill="#000000" opacity="0" x="0" y="0" width="24" height="24"></rect>
                        <path d="M22.0145089,5.203125 L3.90736607,5.203125 C3.52215402,5.203125 3.2109375,5.51434152 3.2109375,5.89955357 L3.2109375,19.828125 C3.2109375,20.2133371 3.52215402,20.5245536 3.90736607,20.5245536 L22.0145089,20.5245536 C22.399721,20.5245536 22.7109375,20.2133371 22.7109375,19.828125 L22.7109375,5.89955357 C22.7109375,5.51434152 22.399721,5.203125 22.0145089,5.203125 Z M20.0057478,9.43392857 L13.5420201,15.9020089 C13.4745536,15.9694754 13.3635603,15.9694754 13.2960938,15.9020089 L10.8041853,13.4101004 L7.05,17.1664621 C6.98253348,17.2339286 6.87154018,17.2339286 6.80407366,17.1664621 L6.0031808,16.3655692 C5.93571429,16.2981027 5.93571429,16.1871094 6.0031808,16.1196429 L10.6801339,11.4405134 C10.7476004,11.3730469 10.8585938,11.3730469 10.9260603,11.4405134 L13.4179688,13.9302455 L18.9567522,8.38928571 C19.0242188,8.3218192 19.1352121,8.3218192 19.2026786,8.38928571 L20.0035714,9.19017857 C20.0732143,9.25546875 20.0732143,9.36646205 20.0057478,9.43392857 Z" id="形状" fill="#FFFFFF"></path>
                    </g>
                </g>
            </g>
        </g>
    </g>
</svg>