<?xml version="1.0" encoding="UTF-8"?>
<svg width="16px" height="16px" viewBox="0 0 16 16" version="1.1" xmlns="http://www.w3.org/2000/svg" xmlns:xlink="http://www.w3.org/1999/xlink">
    <title>3F9CE2EC-B293-4808-B383-503BB3B7B141</title>
    <g id="页面-1" stroke="none" stroke-width="1" fill="none" fill-rule="evenodd">
        <g id="编组-3" transform="translate(2.000000, 1.500000)">
            <path d="M10.1141038,13.4523204 C6.9088907,13.4523204 4.41283148,13.4523204 2.62592619,13.4523204 C2.33860926,13.4523204 1.90763386,13.4523204 1.333,13.4523204 C0.6,13.4523204 0,12.8523204 0,12.1193204 L0,1.333 C0,0.6 0.6,0 1.333,0 L10.1141038,0 C10.8471038,0 11.4471038,0.6 11.4471038,1.333 L11.4471038,12.1193204 C11.4471038,12.8523204 10.8471038,13.4523204 10.1141038,13.4523204 Z" id="Stroke-1备份-4" stroke="#FFFFFF" stroke-linecap="round"></path>
            <g id="编组-4" transform="translate(2.000000, 4.000000)">
                <line x1="2.5" y1="0.5" x2="7.242" y2="0.5" id="Stroke-3备份-4" stroke="#FFFFFF" stroke-linecap="round"></line>
                <line x1="2.5" y1="6.5835" x2="5.70039669" y2="6.5835" id="Stroke-3备份-6" stroke="#FFFFFF" stroke-linecap="round"></line>
                <path d="M1,0.5835 C1,0.8595 0.776,1.0835 0.5,1.0835 C0.224,1.0835 0,0.8595 0,0.5835 C0,0.3075 0.224,0.0835 0.5,0.0835 C0.776,0.0835 1,0.3075 1,0.5835" id="Fill-5备份-3" fill="#FFFFFF"></path>
                <path d="M1,6.5835 C1,6.8595 0.776,7.0835 0.5,7.0835 C0.224,7.0835 0,6.8595 0,6.5835 C0,6.3075 0.224,6.0835 0.5,6.0835 C0.776,6.0835 1,6.3075 1,6.5835" id="Fill-5备份-4" fill="#FFFFFF"></path>
                <line x1="2.5" y1="2.5835" x2="7.242" y2="2.5835" id="Stroke-7备份-4" stroke="#FFFFFF" stroke-linecap="round"></line>
                <path d="M1,2.5835 C1,2.8595 0.776,3.0835 0.5,3.0835 C0.224,3.0835 0,2.8595 0,2.5835 C0,2.3075 0.224,2.0835 0.5,2.0835 C0.776,2.0835 1,2.3075 1,2.5835" id="Fill-9备份-3" fill="#FFFFFF"></path>
                <line x1="2.5" y1="4.5835" x2="7.242" y2="4.5835" id="Stroke-11备份-4" stroke="#FFFFFF" stroke-linecap="round"></line>
                <path d="M1,4.5835 C1,4.8595 0.776,5.0835 0.5,5.0835 C0.224,5.0835 0,4.8595 0,4.5835 C0,4.3075 0.224,4.0835 0.5,4.0835 C0.776,4.0835 1,4.3075 1,4.5835" id="Fill-13备份-3" fill="#FFFFFF"></path>
            </g>
            <line x1="0.5" y1="2.5" x2="11.2098532" y2="2.5" id="直线-9" stroke="#FFFFFF" stroke-linecap="round"></line>
        </g>
    </g>
</svg>