<?xml version="1.0" encoding="UTF-8"?>
<svg width="16px" height="16px" viewBox="0 0 16 16" version="1.1" xmlns="http://www.w3.org/2000/svg" xmlns:xlink="http://www.w3.org/1999/xlink">
    <title>手动</title>
    <g id="设计稿" stroke="none" stroke-width="1" fill="none" fill-rule="evenodd">
        <g id="手动">
            <rect id="矩形" x="0" y="0" width="16" height="16"></rect>
            <path d="M2.5,10.5 C1.94771525,10.5 1.5,10.0522847 1.5,9.5 L1.5,2.5 C1.5,1.94771525 1.94771525,1.5 2.5,1.5 L13.5,1.5 C14.0522847,1.5 14.5,1.94771525 14.5,2.5 L14.5,10.0909091 L14.5,10.0909091" id="路径" stroke="#595959" stroke-linecap="round"></path>
            <path d="M7.29606658,14.5 C6.88842326,14.5 6.50989733,14.310737 6.29879633,14.0122839 L4.63910571,11.5591447 C4.52991554,11.4208371 4.47896012,11.1878981 4.5080775,10.9476797 C4.54447422,10.6565059 4.68278177,10.4017288 4.88660343,10.2488626 L4.9302795,10.2197452 C5.12682181,10.0814377 5.36704019,10.0013649 5.59269988,10.0013649 C5.81835957,10.0013649 6.14593009,10.0741583 6.42982454,10.4235669 L6.45894192,10.4526843 L6.45894192,7.49727024 C6.45894192,6.94404004 6.9757754,6.5 7.61635776,6.5 C7.92209024,6.5 8.21326403,6.60919017 8.43164438,6.79845314 C8.65002472,6.98771611 8.76649425,7.24249318 8.76649424,7.51182894 L8.83928769,9.33166515 L11.1905161,9.31710646 C11.7000702,9.36078253 12.0785962,9.72474977 12.0785962,10.1615105 L12.0567581,13.5100091 C12.0494788,14.05596 11.5326453,14.5 10.9066216,14.5 L7.29606658,14.5 Z" id="形状" stroke="#595959" fill-rule="nonzero"></path>
            <circle id="椭圆形" fill="#595959" cx="4.5" cy="4.5" r="1.5"></circle>
        </g>
    </g>
</svg>