<?xml version="1.0" encoding="UTF-8"?>
<svg width="26px" height="26px" viewBox="0 0 26 26" version="1.1" xmlns="http://www.w3.org/2000/svg" xmlns:xlink="http://www.w3.org/1999/xlink">
    <title>database-fill</title>
    <g id="1.0" stroke="none" stroke-width="1" fill="none" fill-rule="evenodd">
        <g id="描点遮罩细节展示" transform="translate(-339.000000, -323.000000)" fill-rule="nonzero">
            <g id="统计数据" transform="translate(284.000000, 276.000000)">
                <g id="图标" transform="translate(41.000000, 31.000000)">
                    <g id="database-fill" transform="translate(14.933333, 16.177778)">
                        <rect id="矩形" fill="#000000" opacity="0" x="0" y="0" width="24.8888889" height="24.8888889"></rect>
                        <path d="M22.2444444,17.1111111 L22.2444444,22.5555556 C22.2444444,22.9857639 21.896875,23.3333333 21.4666667,23.3333333 L21.4666667,23.3333333 L3.42222222,23.3333333 C2.99201389,23.3333333 2.64444444,22.9857639 2.64444444,22.5555556 L2.64444444,22.5555556 L2.64444444,17.1111111 L22.2444444,17.1111111 Z M5.75555556,19.25 C5.21840278,19.25 4.78333333,19.6850694 4.78333333,20.2222222 C4.78333333,20.759375 5.21840278,21.1944444 5.75555556,21.1944444 C6.29270833,21.1944444 6.72777778,20.759375 6.72777778,20.2222222 C6.72777778,19.6850694 6.29270833,19.25 5.75555556,19.25 Z M22.2444444,9.33333333 L22.2444444,15.5555556 L2.64444444,15.5555556 L2.64444444,9.33333333 L22.2444444,9.33333333 Z M5.75555556,11.4722222 C5.21840278,11.4722222 4.78333333,11.9072917 4.78333333,12.4444444 C4.78333333,12.9815972 5.21840278,13.4166667 5.75555556,13.4166667 C6.29270833,13.4166667 6.72777778,12.9815972 6.72777778,12.4444444 C6.72777778,11.9072917 6.29270833,11.4722222 5.75555556,11.4722222 Z M21.4666667,1.55555556 C21.896875,1.55555556 22.2444444,1.903125 22.2444444,2.33333333 L22.2444444,2.33333333 L22.2444444,7.77777778 L2.64444444,7.77777778 L2.64444444,2.33333333 C2.64444444,1.903125 2.99201389,1.55555556 3.42222222,1.55555556 L3.42222222,1.55555556 Z M5.75555556,3.69444444 C5.21840278,3.69444444 4.78333333,4.12951389 4.78333333,4.66666667 C4.78333333,5.20381944 5.21840278,5.63888889 5.75555556,5.63888889 C6.29270833,5.63888889 6.72777778,5.20381944 6.72777778,4.66666667 C6.72777778,4.12951389 6.29270833,3.69444444 5.75555556,3.69444444 Z" id="形状结合" fill="#FFFFFF"></path>
                    </g>
                </g>
            </g>
        </g>
    </g>
</svg>