<?xml version="1.0" encoding="UTF-8"?>
<svg width="20px" height="21px" viewBox="0 0 20 21" version="1.1" xmlns="http://www.w3.org/2000/svg" xmlns:xlink="http://www.w3.org/1999/xlink">
    <title>969B84BB-3A18-4E87-8A6F-31A59F4CEDAA</title>
    <defs>
        <linearGradient x1="50%" y1="0%" x2="50%" y2="100%" id="linearGradient-1">
            <stop stop-color="#F9C418" offset="0%"></stop>
            <stop stop-color="#F0920A" offset="100%"></stop>
        </linearGradient>
    </defs>
    <g id="1.0" stroke="none" stroke-width="1" fill="none" fill-rule="evenodd">
        <g id="UI-引导页-1---展开" transform="translate(-1508.000000, -743.000000)">
            <g id="热门" transform="translate(1489.000000, 725.000000)">
                <g transform="translate(19.000000, 18.000000)">
                    <path d="M8.44102635,0 C13.0292174,2.17290424 13.7769455,7.1599144 13.7769455,7.1599144 C15.1278314,5.46714198 14.1030962,3.78338645 13.9697274,3.5795294 L13.9559065,3.55892579 L13.9559065,3.55892579 C17.6071233,7.1599144 18.6284355,11.6001078 17.6492923,14.9169158 C16.923163,17.4365819 12.471764,20.0506329 9.96630932,20.0506329 C7.69329828,20.0506329 4.08322193,18.7600222 2.69473102,16.082364 C1.16739103,13.122577 2.51474146,9.93093157 3.34680749,8.40846231 C4.10859189,7.01380591 4.17207392,5.81225097 4.17736409,5.62167692 L4.17784501,5.59538231 L4.17784501,5.59538231 C5.15698823,6.69722327 4.96774206,8.63929491 4.96774206,8.63929491 C4.96774206,8.63929491 6.46216968,6.78237486 7.7035834,4.52534495 C8.94602563,2.26728913 8.44102635,0 8.44102635,0 Z M10.4826222,11.0019948 C9.88299987,11.0019948 9.40885594,11.2010239 9.04064872,11.5898485 C8.6724415,11.9889325 8.49348045,12.4926605 8.49348045,13.1112919 C8.49348045,13.7001715 8.6724415,14.1823552 9.0303636,14.5496355 C9.3882857,14.9169158 9.851116,15.1067115 10.4188545,15.1067115 C11.0081918,15.1067115 11.4823357,14.9169158 11.8402578,14.529117 C12.1981799,14.1402923 12.3874261,13.6365643 12.3658273,13.0281921 C12.3658273,12.4290533 12.1981799,11.9468696 11.8505429,11.5683042 C11.5142196,11.1907646 11.0503607,11.0019948 10.4826222,11.0019948 Z M5.27321006,11.0645761 L4.41954528,11.0645761 L4.41954528,15.0328451 L5.27321006,15.0328451 L5.27321006,13.3954725 L6.96716897,13.3954725 L6.96716897,15.0328451 L7.81980523,15.0328451 L7.81980523,11.0645761 L6.96716897,11.0645761 L6.96716897,12.6711711 L5.27321006,12.6711711 L5.27321006,11.0645761 Z M15.5655275,11.0645761 L12.4501653,11.0645761 L12.4501653,11.7570739 L13.5866708,11.7570739 L13.5866708,15.0328451 L14.4403356,15.0328451 L14.4403356,11.7570739 L15.5655275,11.7570739 L15.5655275,11.0645761 Z M10.4301681,11.782722 C10.7572349,11.782722 11.0092203,11.9078846 11.1881813,12.1387172 C11.3671424,12.3705757 11.4617655,12.7060524 11.4617655,13.1153956 C11.4617655,13.5144795 11.3774275,13.8294378 11.1881813,14.0602704 C10.9989352,14.3013622 10.7459213,14.4172915 10.4095979,14.4172915 C10.1088043,14.4270347 9.8221145,14.2899843 9.6412996,14.0500111 C9.45205343,13.8078934 9.35743035,13.4929351 9.35743035,13.1051363 C9.35743035,12.7163117 9.45205343,12.3910942 9.6412996,12.1500023 C9.83067735,11.9093297 10.1236,11.7729512 10.4301681,11.782722 Z" id="形状结合" fill="url(#linearGradient-1)" fill-rule="nonzero"></path>
                    <rect id="矩形" fill-opacity="0" fill="#FFFFFF" x="0" y="14" width="20" height="7" rx="2"></rect>
                    <polygon id="路径" fill="#FFFFFF" fill-rule="nonzero" opacity="0.299999982" points="15.5655275 11.0645761 12.4501653 11.0645761 12.4501653 11.7570739 13.5866708 11.7570739 13.5866708 15.0328451 14.4403356 15.0328451 14.4403356 11.7570739 15.5655275 11.7570739"></polygon>
                    <polygon id="路径" fill="#FFFFFF" fill-rule="nonzero" opacity="0.299999982" points="5.27321006 11.0645761 4.41954528 11.0645761 4.41954528 15.0328451 5.27321006 15.0328451 5.27321006 13.3954725 6.96716897 13.3954725 6.96716897 15.0328451 7.81980523 15.0328451 7.81980523 11.0645761 6.96716897 11.0645761 6.96716897 12.6711711 5.27321006 12.6711711 5.27321006 11.0645761"></polygon>
                    <path d="M10.4826222,11.0019948 C11.0503607,11.0019948 11.5142196,11.1907646 11.8505429,11.5683042 C12.1981799,11.9468696 12.3658273,12.4290533 12.3658273,13.0281921 C12.3874261,13.6365643 12.1981799,14.1402923 11.8402578,14.529117 C11.4823357,14.9169158 11.0081918,15.1067115 10.4188545,15.1067115 C9.851116,15.1067115 9.3882857,14.9169158 9.0303636,14.5496355 C8.6724415,14.1823552 8.49348045,13.7001715 8.49348045,13.1112919 C8.49348045,12.4926605 8.6724415,11.9889325 9.04064872,11.5898485 C9.40885594,11.2010239 9.88299987,11.0019948 10.4826222,11.0019948 Z M10.4301681,11.782722 C10.1236,11.7729512 9.83067735,11.9093297 9.6412996,12.1500023 C9.45205343,12.3910942 9.35743035,12.7163117 9.35743035,13.1051363 C9.35743035,13.4929351 9.45205343,13.8078934 9.6412996,14.0500111 C9.8221145,14.2899843 10.1088043,14.4270347 10.4095979,14.4172915 C10.7459213,14.4172915 10.9989352,14.3013622 11.1881813,14.0602704 C11.3774275,13.8294378 11.4617655,13.5144795 11.4617655,13.1153956 C11.4617655,12.7060524 11.3671424,12.3705757 11.1881813,12.1387172 C11.0092203,11.9078846 10.7572349,11.782722 10.4301681,11.782722 Z" id="形状结合" fill="#FFFFFF" fill-rule="nonzero" opacity="0.299999982"></path>
                </g>
            </g>
        </g>
    </g>
</svg>