<?xml version="1.0" encoding="UTF-8"?>
<svg width="16px" height="16px" viewBox="0 0 16 16" version="1.1" xmlns="http://www.w3.org/2000/svg" xmlns:xlink="http://www.w3.org/1999/xlink">
    <title>8CD8B7BA-9B00-4EEE-A03E-5F22F7A22350</title>
    <g id="页面-1" stroke="none" stroke-width="1" fill="none" fill-rule="evenodd" stroke-linecap="round">
        <g id="编组" stroke="#FFFFFF" transform="translate(1.000000, 1.000000)">
            <path d="M9.01928893,11 L9.3915765,12.0706851 L9.97789278,13.7569088 C10.0401626,13.9359944 9.96638464,14.1401505 9.81310507,14.212904 C9.77729498,14.2299011 9.73900791,14.2386407 9.70035558,14.2386407 L4.29956526,14.2386407 C4.13411994,14.2386407 4,14.0819404 4,13.8886407 C4,13.8434809 4.00748021,13.7987478 4.02202806,13.7569088 L4.96627259,11.0412969 L4.96627259,11.0412969" id="路径备份-8"></path>
            <rect id="矩形备份-46" x="0" y="0" width="14" height="10.7692308" rx="0.72"></rect>
            <line x1="0.31421881" y1="9.01501773" x2="13.6985108" y2="9.01501773" id="直线-7备份-2"></line>
            <polyline id="路径-2备份-4" stroke-linejoin="round" points="3 4.49620264 4.82217219 4.49620264 5.31134814 5.8589066 6.37172854 2 7.69525326 7 8.78144927 3.07054906 9.49200179 4.5 11 4.5"></polyline>
        </g>
    </g>
</svg>