<?xml version="1.0" encoding="UTF-8"?>
<svg width="22px" height="22px" viewBox="0 0 22 22" version="1.1" xmlns="http://www.w3.org/2000/svg" xmlns:xlink="http://www.w3.org/1999/xlink">
    <title>监控套件（小产品图标）</title>
    <g id="页面-1" stroke="none" stroke-width="1" fill="none" fill-rule="evenodd">
        <g id="Apple-TV" transform="translate(-675.000000, -220.000000)">
            <g id="监控套件（小产品图标）" transform="translate(675.000000, 220.000000)">
                <rect id="矩形备份" x="0" y="0" width="22" height="22"></rect>
                <g id="编组-5" transform="translate(0.703311, 0.913043)">
                    <path d="M13.8286151,3.59746187 L17.2037103,5.54607399 C17.5131113,5.72470679 17.7037103,6.05483381 17.7037103,6.4120994 M17.7037103,11.1769946 C17.7037103,11.8502287 17.7037103,12.8600798 17.7037103,14.2065479 C17.7037103,14.5638135 17.5131113,14.8939405 17.2037103,15.0725733 L10.4535199,18.9697975 C10.1441188,19.1484303 9.76292093,19.1484303 9.45351986,18.9697975 L2.70332945,15.0725733 C2.39392837,14.8939405 2.20332945,14.5638135 2.20332945,14.2065479 C2.20332945,12.8340108 2.20332945,11.8046079 2.20332945,11.1183393 M2.20332945,6.4120994 C2.20332945,6.05483381 2.39392837,5.72470679 2.70332945,5.54607399 L6.1070755,3.58092029" id="形状" stroke="#FFFFFF" stroke-linecap="round"></path>
                    <g id="编组-6" transform="translate(6.935535, 0.000000)" fill="#FFFFFF">
                        <path d="M1.55414003,2.80318113 C1.55414003,2.69786928 1.63951217,2.61249716 1.74482399,2.61249716 L4.28174986,2.61249716 C4.38706168,2.61249716 4.47243383,2.69786928 4.47243383,2.80318113 L4.47243383,4.8706446 L5.84713515,4.8706446 C5.95244701,4.8706446 6.03781912,4.95601671 6.03781912,5.06132857 C6.03781912,5.11196245 6.0176806,5.1605173 5.98184384,5.19628763 L3.15361824,8.01926633 C3.07918025,8.09356619 2.95863885,8.09356619 2.8842009,8.01926633 L0.0559752947,5.19628763 C-0.0185605513,5.12189006 -0.0186726353,5.00115573 0.0557249267,4.92661988 C0.0914952178,4.89078308 0.140050068,4.8706446 0.190683984,4.8706446 L1.55414003,4.8706446 L1.55414003,2.80318113 Z" id="形状结合"></path>
                        <path d="M1.74313108,1.95937287 L4.31531402,1.95937287 C4.42208941,1.95937287 4.50864803,1.85747112 4.50864803,1.73176895 L4.50864803,1.3161444 C4.50864803,1.19044223 4.42208941,1.08854048 4.31531402,1.08854048 L1.74313108,1.08854048 C1.63635569,1.08854048 1.54979708,1.19044223 1.54979708,1.3161444 L1.54979708,1.73176895 C1.54979708,1.85747112 1.63635569,1.95937287 1.74313108,1.95937287 Z" id="直线-5" fill-rule="nonzero"></path>
                        <path d="M1.74313108,0.455207839 L4.31531402,0.455207839 C4.42208941,0.455207839 4.50864803,0.353306091 4.50864803,0.227603919 C4.50864803,0.101901743 4.42208941,0 4.31531402,0 L1.74313108,0 C1.63635569,0 1.54979708,0.101901743 1.54979708,0.227603919 C1.54979708,0.353306091 1.63635569,0.455207839 1.74313108,0.455207839 Z" id="直线-5备份" fill-rule="nonzero"></path>
                    </g>
                    <g id="编组-4" transform="translate(0.000000, 5.964832)" stroke="#FFFFFF">
                        <path d="M7.18224925,7.99963418 L0.895436796,4.36994131 C0.417144173,4.09379894 0.253269017,3.48220853 0.529411392,3.00391591 C0.53497672,2.99427648 0.540702599,2.98473064 0.546586637,2.97528238 L2.24544323,0.247353464 L2.24544323,0.247353464 L10.4576609,4.32645473 L8.54827466,7.63360877 C8.27213228,8.1119014 7.66054188,8.27577655 7.18224925,7.99963418 Z" id="矩形备份-32"></path>
                        <path d="M19.1730358,4.20955236 L13.882558,7.80655812 C13.4258383,8.11708273 12.8038639,7.99856816 12.4933393,7.54184843 C12.4893752,7.53601803 12.4854728,7.53014586 12.4816329,7.52423293 L10.4134235,4.3394697 L10.4134235,4.3394697 L17.5207685,0 L19.4378343,2.82027316 C19.7481974,3.27705198 19.6296604,3.89896246 19.1730358,4.20955236 Z" id="矩形备份-32"></path>
                    </g>
                </g>
            </g>
        </g>
    </g>
</svg>