<?xml version="1.0" encoding="UTF-8"?>
<svg width="14px" height="12px" viewBox="0 0 14 12" version="1.1" xmlns="http://www.w3.org/2000/svg" xmlns:xlink="http://www.w3.org/1999/xlink">
    <title>F1BFDA41-7819-462D-81F6-6DF993876A79</title>
    <g id="资源详情" stroke="none" stroke-width="1" fill="none" fill-rule="evenodd">
        <g id="资源详情-dashboard-1备份" transform="translate(-589.000000, -1439.000000)" fill="#FFFFFF" fill-rule="nonzero">
            <path d="M602.426563,1442.73438 L600.473438,1439.47969 C600.359375,1439.29219 600.153125,1439.16719 599.917188,1439.16719 L592.1125,1439.16719 C591.876563,1439.16719 591.670313,1439.29219 591.554688,1439.48281 L589.604688,1442.73438 C589.464063,1442.97031 589.484375,1443.26875 589.659375,1443.48125 L595.5125,1450.63594 L595.514063,1450.6375 C595.632813,1450.78125 595.8125,1450.875 596.015625,1450.875 C596.21875,1450.875 596.398438,1450.78281 596.51875,1450.6375 L602.371875,1443.48281 C602.546875,1443.26875 602.56875,1442.97031 602.426563,1442.73438 Z M599.81875,1443.08125 L596.434375,1447.20781 C596.334375,1447.32969 596.190625,1447.39219 596.04375,1447.39375 C596.034375,1447.39531 596.025,1447.39375 596.014063,1447.39375 C596.004688,1447.39375 595.995313,1447.39531 595.984375,1447.39375 C595.839063,1447.39062 595.69375,1447.32969 595.59375,1447.20781 L592.2125,1443.08125 C592.03125,1442.86094 592.064063,1442.53594 592.284375,1442.35469 C592.504688,1442.17344 592.829688,1442.20625 593.010938,1442.42656 L596.015625,1446.09219 L599.020313,1442.42812 C599.201563,1442.20781 599.526563,1442.175 599.746875,1442.35625 C599.967188,1442.53594 600,1442.86094 599.81875,1443.08125 Z" id="等级标签"></path>
        </g>
    </g>
</svg>