<?xml version="1.0" encoding="UTF-8"?>
<svg width="24px" height="24px" viewBox="0 0 24 24" version="1.1" xmlns="http://www.w3.org/2000/svg" xmlns:xlink="http://www.w3.org/1999/xlink">
    <title>内存-fill</title>
    <g id="1.0" stroke="none" stroke-width="1" fill="none" fill-rule="evenodd">
        <g id="描点遮罩细节展示" transform="translate(-750.000000, -321.000000)" fill-rule="nonzero">
            <g id="统计数据" transform="translate(284.000000, 276.000000)">
                <g id="数据2" transform="translate(456.000000, 30.000000)">
                    <g id="内存-fill" transform="translate(10.000000, 15.000000)">
                        <rect id="矩形" fill="#000000" opacity="0" x="0" y="0" width="24" height="24"></rect>
                        <path d="M15.8202188,3.1875 C16.19475,3.1875 16.5538594,3.33510938 16.8182344,3.59948438 L16.8182344,3.59948438 L20.4005156,7.18176563 C20.6648906,7.44614062 20.8125,7.80304688 20.8125,8.17757813 L20.8125,8.17757813 L20.8125,20.1075 C20.8125,20.4974531 20.4974531,20.8125 20.1075,20.8125 L20.1075,20.8125 L3.8925,20.8125 C3.50254687,20.8125 3.1875,20.4974531 3.1875,20.1075 L3.1875,20.1075 L3.1875,3.8925 C3.1875,3.50254687 3.50254687,3.1875 3.8925,3.1875 L3.8925,3.1875 Z M12,10.4578125 C10.2485156,10.4578125 8.8275,11.8788281 8.8275,13.6303125 C8.8275,15.3817969 10.2485156,16.8028125 12,16.8028125 C13.7514844,16.8028125 15.1725,15.3817969 15.1725,13.6303125 C15.1725,11.8788281 13.7514844,10.4578125 12,10.4578125 Z M12,11.8828125 C12.8632813,11.8828125 13.5625,12.5820312 13.5625,13.4453125 C13.5625,14.3085938 12.8632813,15.0078125 12,15.0078125 C11.1367188,15.0078125 10.4375,14.3085938 10.4375,13.4453125 C10.4375,12.5820312 11.1367188,11.8828125 12,11.8828125 Z M14.82,4.5975 L9.18,4.5975 L9.18,7.065 L14.82,7.065 L14.82,4.5975 Z" id="形状结合" fill="#FFFFFF"></path>
                    </g>
                </g>
            </g>
        </g>
    </g>
</svg>