<?xml version="1.0" encoding="UTF-8"?>
<svg width="46px" height="43px" viewBox="0 0 46 43" version="1.1" xmlns="http://www.w3.org/2000/svg" xmlns:xlink="http://www.w3.org/1999/xlink">
    <!-- Generator: Sketch 63.1 (92452) - https://sketch.com -->
    <title>指标管理</title>
    <desc>Created with Sketch.</desc>
    <g id="指标定义" stroke="none" stroke-width="1" fill="none" fill-rule="evenodd">
        <g id="资源实例列表（首页）" transform="translate(-1775.000000, -349.000000)">
            <g id="指标管理" transform="translate(1776.000000, 350.000000)">
                <g transform="translate(19.984375, 16.875000)" fill="#595959" fill-rule="nonzero" id="形状">
                    <path d="M22.8872699,9.1591737 L22.7837423,9.1591737 C21.0513804,9.1591737 19.6434049,7.66837615 19.6434049,5.8359375 C19.6434049,5.22857554 19.9160276,4.56944977 19.9160276,4.56254793 C20.183176,3.91743539 19.9869174,3.17334706 19.4363497,2.74391296 L19.4052914,2.72320744 L16.3857362,0.942532592 L16.3546779,0.928728911 C15.7643748,0.680910455 15.0822633,0.825309061 14.6430215,1.29107554 C14.273773,1.69483321 13.1108129,2.74046204 12.1687117,2.74046204 C11.2266104,2.74046204 10.0532975,1.67412768 9.68404908,1.26346817 C9.3914559,0.946744307 8.97988627,0.766502243 8.54869632,0.766502243 C8.35128411,0.765158632 8.15589498,0.806355135 7.97584356,0.887317868 L7.94133436,0.901121549 L4.81825153,2.72320744 L4.78719325,2.74391296 C4.23642357,3.17311221 4.03891374,3.91659565 4.30406442,4.56254793 C4.30406442,4.56944977 4.57668712,5.22857554 4.57668712,5.8359375 C4.57668712,7.66837615 3.16871166,9.1591737 1.43634969,9.1591737 L1.33282209,9.1591737 C0.82898773,9.15227186 0.414877301,9.61814609 0.283742331,10.3531921 C0.273389571,10.4084068 0.0318251534,11.7818731 0.0318251534,12.8620111 C0.0318251534,13.9421492 0.273389571,15.3087136 0.283742331,15.3708301 C0.414877301,16.0920725 0.815184049,16.5579467 1.31211656,16.5579467 L1.43634969,16.5579467 C3.16871166,16.5579467 4.57668712,18.0487442 4.57668712,19.8880847 C4.57668712,20.4885449 4.30406442,21.1545725 4.30406442,21.1545725 C4.03815529,21.7997681 4.23421169,22.5430899 4.78374233,22.9732074 L4.81134969,22.993913 L7.77569018,24.7538823 L7.80674847,24.767686 C8.40204882,25.0141892 9.08799871,24.8609891 9.52185583,24.3846338 C9.87039877,23.987778 11.0782209,22.8489743 12.0479294,22.8489743 C13.017638,22.8489743 14.2116564,23.9808762 14.5878067,24.419143 C15.0149695,24.9039651 15.7044478,25.0610439 16.2994632,24.809097 L16.3339724,24.7952933 L19.4018405,22.9973639 L19.4363497,22.9766584 C19.9838248,22.5451898 20.1794823,21.8033805 19.9160276,21.1580234 C19.9160276,21.1580234 19.6434049,20.4919958 19.6434049,19.8915357 C19.6434049,18.0521952 21.0513804,16.5613976 22.7837423,16.5613976 L22.8872699,16.5613976 C23.3911043,16.5752013 23.8052147,16.1024252 23.9363497,15.3742811 C23.9467025,15.3121645 24.1882669,13.9456001 24.1882669,12.865462 C24.1882669,11.785324 23.9467025,10.4118577 23.9363497,10.356643 C23.8052147,9.61469517 23.3911043,9.15227186 22.8872699,9.1591737 L22.8872699,9.1591737 Z M21.1775217,14.7904385 C19.0889852,14.9054897 17.418156,16.761154 17.418156,19.0250645 C17.418156,19.7784642 17.6916989,20.5021732 17.7508433,20.6506264 L15.2593856,22.1203125 L15.2519925,22.1203125 C15.2150273,22.1203125 15.1817586,22.1128898 15.1743655,22.0980445 C14.8922644,21.7783638 14.5817012,21.4851908 14.2465378,21.222171 C13.4702676,20.6060904 12.7346592,20.2943388 12.0508021,20.2943388 C11.3743381,20.2943388 10.6424262,20.6060904 9.86985254,21.2073257 C9.35233908,21.6118605 8.99377618,22.0201066 8.94941788,22.0683539 C8.92536261,22.0811069 8.89892571,22.0886906 8.87179086,22.0906219 L8.86439781,22.0906219 L6.45796021,20.6543377 C6.52080113,20.5021732 6.79434396,19.7784642 6.79434396,19.0250645 C6.79434396,16.7648653 5.12721131,14.909201 3.03497831,14.7904385 C2.92209859,14.1529092 2.85661262,13.5078322 2.8390625,12.8605477 C2.8390625,12.1145706 3.00170959,11.1199345 3.03128179,10.9380794 C5.12351478,10.8230283 6.79434396,8.96736396 6.79434396,6.70345352 C6.79434396,5.95005381 6.52080113,5.2337674 6.46165674,5.07789159 L9.00486575,3.5859375 L9.0122588,3.5859375 C9.0566171,3.5859375 9.09358234,3.60078281 9.10467192,3.61562813 C9.14903022,3.66016407 9.50389659,4.04985357 10.0214101,4.44325441 C10.7791976,5.02222167 11.5000199,5.31912795 12.1616979,5.31912795 C12.8159827,5.31912795 13.529412,5.02964432 14.2871996,4.45809972 C14.8010165,4.07212155 15.1521864,3.6898547 15.1965447,3.64531876 C15.2253846,3.63127921 15.2569127,3.62368216 15.2889578,3.62305079 L15.2963508,3.62305079 L17.7508433,5.08160292 C17.6916989,5.22634474 17.418156,5.95005381 17.418156,6.70716485 C17.418156,8.96736396 19.0852887,10.8230283 21.1775217,10.9417908 C21.2107904,11.1236459 21.3734375,12.1145706 21.3734375,12.864259 C21.3734375,13.6176587 21.2107904,14.6197174 21.1775217,14.7904385 L21.1775217,14.7904385 Z"></path>
                </g>
                <polyline id="路径-3" stroke="#595959" stroke-width="2" stroke-linecap="round" stroke-linejoin="round" points="1.0361388 14.0625 14.3968731 0.701765716 27.7576074 14.0625 41.1183417 0.701765716"></polyline>
                <polyline id="路径" stroke="#595959" stroke-width="2" stroke-linecap="round" stroke-linejoin="round" points="34.453125 0 42.890625 0 42.890625 8.4375"></polyline>
                <line x1="0.703125" y1="29.53125" x2="0.703125" y2="40.078125" id="直线" stroke="#595959" stroke-width="2" stroke-linecap="round"></line>
                <line x1="14.0625" y1="17.578125" x2="14.0625" y2="40.078125" id="直线" stroke="#595959" stroke-width="2" stroke-linecap="round"></line>
                <path d="M32.094421,26.2481308 C31.181914,26.2563308 30.3100427,26.6267062 29.6706277,27.2777705 C29.0312127,27.9288347 28.6766374,28.8072502 28.6849118,29.7197565 C28.6849118,31.6419191 30.2102186,33.1913823 32.094421,33.1913823 C33.9786235,33.1913823 35.5039302,31.6419191 35.5039302,29.7197565 C35.5122047,28.8072502 35.1576293,27.9288347 34.5182143,27.2777705 C33.8787993,26.6267062 33.006928,26.2563308 32.094421,26.2481308 Z" id="路径" fill="#595959"></path>
            </g>
        </g>
    </g>
</svg>
