<?xml version="1.0" encoding="UTF-8"?>
<svg width="14px" height="14px" viewBox="0 0 14 14" version="1.1" xmlns="http://www.w3.org/2000/svg" xmlns:xlink="http://www.w3.org/1999/xlink">
    <!-- Generator: Sketch 63.1 (92452) - https://sketch.com -->
    <title>Prometheus</title>
    <desc>Created with Sketch.</desc>
    <g id="设计稿" stroke="none" stroke-width="1" fill="none" fill-rule="evenodd">
        <g id="Apple-TV备份" transform="translate(-879.000000, -301.000000)" fill="#FFFFFF">
            <g id="Prometheus" transform="translate(878.000000, 300.000000)">
                <g transform="translate(1.000000, 1.000000)" fill-rule="nonzero" id="形状">
                    <path d="M6.96228956,5.41788836e-14 C3.11582491,5.41788836e-14 -4.00568467e-13,3.11582491 -4.00568467e-13,6.96228956 C-4.00568467e-13,10.8087542 3.11582491,13.9245791 6.96228956,13.9245791 C10.8087542,13.9245791 13.9245791,10.8087542 13.9245791,6.96228956 C13.9245791,3.11582491 10.8087542,5.41788836e-14 6.96228956,5.41788836e-14 Z M6.96228956,13.03367 C5.86868687,13.03367 4.98249158,12.3030303 4.98249158,11.4026936 L8.94208754,11.4026936 C8.94208754,12.3030303 8.05589225,13.03367 6.96228956,13.03367 Z M10.2383838,10.8558922 L3.68619528,10.8558922 L3.68619528,9.66801346 L10.23367,9.66801346 L10.23367,10.8558922 L10.2383838,10.8558922 Z M10.2148148,9.05993265 L3.70976431,9.05993265 L3.64377103,8.98451178 C2.97441077,8.16902356 2.8141414,7.74478114 2.66327932,7.31582491 C2.65858586,7.3016835 3.47407406,7.48080808 4.05387204,7.61279461 C4.05387204,7.61279461 4.35084174,7.68350168 4.78451178,7.75892255 C4.36498316,7.26868685 4.11986532,6.64646463 4.11986532,6.01010101 C4.11986532,4.61481481 5.18989899,3.39393939 4.80336699,2.4087542 C5.18047138,2.43703703 5.58114477,3.2006734 5.6094276,4.39326598 C6.010101,3.84175083 6.17508417,2.83299663 6.17508417,2.21548821 C6.17508417,1.57441077 6.59932659,0.82962962 7.01885521,0.806060606 C6.64175083,1.42828283 7.11784511,1.96094277 7.53737374,3.27609427 C7.69764309,3.77104376 7.67407408,4.6053872 7.79663299,5.13333333 C7.83905723,4.03501683 8.02760942,2.43232323 8.72053871,1.88080808 C8.4141414,2.57845117 8.76296295,3.45050505 9.00808081,3.86531986 C9.3993266,4.53939394 9.63501683,5.05319865 9.63501683,6.01952861 C9.63501683,6.67003366 9.39461279,7.27811447 8.98922558,7.75892255 C9.45117845,7.67407406 9.76700336,7.59393938 9.76700336,7.59393939 L11.2613542,7.3016835 C11.2659933,7.31111111 11.0491582,8.2020202 10.2148148,9.05993265 L10.2148148,9.05993265 Z"></path>
                </g>
                <rect id="矩形" opacity="0" x="0" y="0" width="16" height="16"></rect>
            </g>
        </g>
    </g>
</svg>