
<?xml version="1.0" encoding="UTF-8"?>
<svg width="24px" height="24px" viewBox="0 0 24 24" version="1.1" xmlns="http://www.w3.org/2000/svg" xmlns:xlink="http://www.w3.org/1999/xlink">
    <title>480E6B02-208B-4C43-96B8-839F4B5DA881</title>
    <g id="页面-1" stroke="none" stroke-width="1" fill="none" fill-rule="evenodd">
        <g id="UI：Top10接口-收起" transform="translate(-1878.000000, -263.000000)" fill-rule="nonzero">
            <g id="排行榜" transform="translate(1878.000000, 263.000000)">
                <rect id="矩形" fill="#000000" opacity="0" x="0" y="0" width="24" height="24"></rect>
                <path d="M20.38125,22.575 L3.6,22.575 C2.325,22.575 1.29375,21.54375 1.29375,20.26875 L1.29375,8.68125 C1.29375,7.40625 2.325,6.375 3.6,6.375 L7.65,6.375 L7.65,4.06875 C7.65,2.79375 8.68125,1.7625 9.95625,1.7625 L14.00625,1.7625 C15.28125,1.7625 16.3125,2.79375 16.3125,4.06875 L16.3125,8.7 L20.3625,8.7 C21.6375,8.7 22.66875,9.73125 22.66875,11.00625 L22.66875,20.26875 C22.6875,21.54375 21.65625,22.575 20.38125,22.575 L20.38125,22.575 Z M7.65,9.2625 C7.65,8.94375 7.3875,8.68125 7.06875,8.68125 L4.18125,8.68125 C3.8625,8.68125 3.6,8.94375 3.6,9.2625 L3.6,19.6875 C3.6,20.00625 3.8625,20.26875 4.18125,20.26875 L7.06875,20.26875 C7.3875,20.26875 7.65,20.00625 7.65,19.6875 L7.65,9.2625 L7.65,9.2625 Z M13.44375,4.06875 L10.5375,4.06875 C10.21875,4.06875 9.95625,4.33125 9.95625,4.65 L9.95625,19.6875 C9.95625,20.00625 10.21875,20.26875 10.5375,20.26875 L13.425,20.26875 C13.74375,20.26875 14.00625,20.00625 14.00625,19.6875 L14.00625,4.63125 C14.025,4.3125 13.7625,4.06875 13.44375,4.06875 L13.44375,4.06875 Z M20.38125,11.5875 C20.38125,11.26875 20.11875,11.00625 19.8,11.00625 L16.9125,11.00625 C16.59375,11.00625 16.33125,11.26875 16.33125,11.5875 L16.33125,19.6875 C16.33125,20.00625 16.59375,20.26875 16.9125,20.26875 L19.8,20.26875 C20.11875,20.26875 20.38125,20.00625 20.38125,19.6875 L20.38125,11.5875 L20.38125,11.5875 Z" id="形状" fill="#FFFFFF"></path>
            </g>
        </g>
    </g>
</svg>