<?xml version="1.0" encoding="UTF-8"?>
<svg width="47px" height="42px" viewBox="0 0 47 42" version="1.1" xmlns="http://www.w3.org/2000/svg" xmlns:xlink="http://www.w3.org/1999/xlink">
    <!-- Generator: Sketch 63.1 (92452) - https://sketch.com -->
    <title>关联资源</title>
    <desc>Created with Sketch.</desc>
    <g id="指标定义" stroke="none" stroke-width="1" fill="none" fill-rule="evenodd" stroke-linecap="round">
        <g id="资源实例列表（首页）" transform="translate(-1770.000000, -192.000000)" stroke="#595959" stroke-width="2">
            <g id="关联资源" transform="translate(1771.000000, 193.000000)">
                <path d="M9.24870677,26.1290323 L2.90322581,26.1290323 C1.29981847,26.1290323 0,24.8292138 0,23.2258065 L0,2.90322581 C0,1.29981847 1.29981847,0 2.90322581,0 L27.5806452,0 C29.1840525,0 30.483871,1.29981847 30.483871,2.90322581 L30.483871,23.2258065 C30.483871,24.8292138 29.1840525,26.1290323 27.5806452,26.1290323 L26.2610667,26.1290323" id="路径"></path>
                <path d="M37.1162532,13.0645161 L42.0967742,13.0645161 C43.7001815,13.0645161 45,14.3643346 45,15.9677419 L45,36.2903226 C45,37.8937299 43.7001815,39.1935484 42.0967742,39.1935484 L17.4193548,39.1935484 C15.8159475,39.1935484 14.516129,37.8937299 14.516129,36.2903226 L14.516129,15.9677419 C14.516129,14.3643346 15.8159475,13.0645161 17.4193548,13.0645161 L20.03331,13.0645161" id="路径"></path>
            </g>
        </g>
    </g>
</svg>