<?xml version="1.0" encoding="UTF-8"?>
<svg width="21px" height="18px" viewBox="0 0 21 18" version="1.1" xmlns="http://www.w3.org/2000/svg" xmlns:xlink="http://www.w3.org/1999/xlink">
    <!-- Generator: Sketch 62 (91390) - https://sketch.com -->
    <title>编组 15</title>
    <desc>Created with Sketch.</desc>
    <g id="设计稿" stroke="none" stroke-width="1" fill="none" fill-rule="evenodd">
        <g id="编组-15" transform="translate(-1.000000, -2.000000)">
            <g id="编组-12" transform="translate(2.000000, 3.000000)">
                <g id="编组-5">
                    <path d="M10.0973209,7.61136337 L9.27936628,6.73424092 C9.15105637,6.59664955 9.15105637,6.38324259 9.27936628,6.24565123 C9.39669798,6.11983219 9.5938106,6.11295184 9.71962964,6.23028354 C9.72492939,6.23522579 9.73005507,6.24035147 9.73499732,6.24565123 L11.3248588,7.95051738 L11.3248588,7.95051738 L9.73499732,9.65538354 C9.61766562,9.78120258 9.420553,9.78808293 9.29473396,9.67075123 C9.28943421,9.66580898 9.28430853,9.6606833 9.27936628,9.65538354 C9.15103637,9.51777073 9.15097459,9.30434908 9.27922481,9.166662 L10.0948974,8.29097084 L10.0948974,8.29097084 L7.80270477,8.29097084 C7.61503635,8.29097084 7.46290103,8.13883553 7.46290103,7.9511671 C7.46290103,7.76349868 7.61503635,7.61136337 7.80270477,7.61136337 L10.0973209,7.61136337 L10.0973209,7.61136337 Z M6.11660824,4.84485418 L8.40853788,4.84485418 C8.59835929,4.84485418 8.75223994,4.99873484 8.75223994,5.18855624 C8.75223994,5.37837765 8.59835929,5.5322583 8.40853788,5.5322583 L6.1190318,5.5322583 L6.1190318,5.5322583 L6.93577468,6.40808131 C7.06408459,6.54567267 7.06408459,6.75907964 6.93577468,6.896671 C6.81844298,7.02249004 6.62133036,7.02937039 6.49551132,6.91203868 C6.49021157,6.90709643 6.48508589,6.90197075 6.48014364,6.896671 L4.89028213,5.19180485 L4.89028213,5.19180485 L6.48579734,3.48656017 C6.60353349,3.36072687 6.80098555,3.35416283 6.92681885,3.47189898 C6.93199309,3.47674027 6.93700092,3.48175641 6.94183361,3.48693869 C7.06990296,3.6242721 7.06916319,3.83750027 6.94014399,3.97394174 L6.11660824,4.84485418 L6.11660824,4.84485418 Z" id="形状备份-8" fill="#FFFFFF" fill-rule="nonzero"></path>
                    <polygon id="直线-7备份-2" fill="#FFFFFF" fill-rule="nonzero" points="6.15224956 13.1502251 6.15224956 15.9248713 7.24315865 15.9248713 7.24315865 13.1502251"></polygon>
                    <path d="M1.90479526,16.6689497 L9.75283442,16.6689497 C9.9078231,16.6689497 10.0334663,16.4247413 10.0334663,16.1234951 C10.0334663,15.8222489 9.9078231,15.5780406 9.75283442,15.5780406 L1.90479526,15.5780406 C1.74980657,15.5780406 1.62416341,15.8222489 1.62416341,16.1234951 C1.62416341,16.4247413 1.74980657,16.6689497 1.90479526,16.6689497 Z" id="直线-8备份-2" fill="#FFFFFF" fill-rule="nonzero"></path>
                    <path d="M16.1755486,6.5830721 L16.1755486,2 C16.1755486,0.8954305 15.2801181,-2.02906125e-16 14.1755486,0 L2,0 C0.8954305,-1.91384796e-17 -1.3527075e-16,0.8954305 0,2 L0,11.1633309 C-3.0881846e-16,12.2679004 0.8954305,13.1633309 2,13.1633309 C2.00093712,13.1633309 2.00187424,13.1633302 2.00281136,13.1633289 L11.3248588,13.1502251 L11.3248588,13.1502251" id="路径-2备份-2" stroke="#FFFFFF" stroke-linecap="round"></path>
                </g>
                <g id="编组备份-4" transform="translate(12.727273, 8.181818)" fill="#FFFFFF" fill-rule="nonzero">
                    <path d="M3.49178476,0.00600262999 C5.41802603,0.00600262999 6.97957377,1.5672174 6.97957377,3.49304469 C6.97957377,5.41887198 5.41802603,6.98006874 3.49178476,6.98006874 C1.5655435,6.98006874 0.0039957537,5.41887198 0.0039957537,3.49303569 C0.0039957537,1.5671994 1.5655435,0.00600262999 3.49178476,0.00600262999 Z M3.49178476,2.1381332 C2.39520236,2.1381332 1.50627315,3.02688242 1.50627315,4.12322184 C1.50627315,5.21956126 2.39521136,6.10831948 3.49178476,6.10831948 C4.58836717,6.10831948 5.47729637,5.21957026 5.47729637,4.12323084 C5.47729637,3.02689142 4.58836717,2.1381332 3.49178476,2.1381332 Z" id="形状结合"></path>
                    <path d="M3.49178476,3.08341694 C2.8941856,3.08341694 2.40973646,3.56776708 2.40973646,4.16524025 C2.40973646,4.76271342 2.8941766,5.24706357 3.49178476,5.24706357 C4.08939293,5.24706357 4.57383306,4.76271342 4.57383306,4.16524025 C4.57383306,3.56776708 4.08939293,3.08341694 3.49178476,3.08341694 Z" id="路径"></path>
                    <path d="M6.01129646,6.3528524 C5.36041158,6.92604507 4.47008746,7.28040723 3.48927392,7.28040723 C2.50832538,7.28040723 1.61768628,6.92573909 0.967152384,6.3528524 L0.374034944,7.65807795 L0.366736394,7.67592385 C0.312847716,7.82575561 0.341546947,7.97995211 0.447461418,8.11106503 C0.615877037,8.31898821 0.974954903,8.45347592 1.36255201,8.45347592 L5.61590583,8.45347592 C5.9472834,8.45347592 6.36517264,8.34073087 6.55254109,8.08898039 C6.65229095,7.95551861 6.67040683,7.80227606 6.6044229,7.65807795 L6.01129646,6.3528524 Z" id="路径"></path>
                </g>
            </g>
            <rect id="矩形" x="0" y="0" width="22" height="22"></rect>
        </g>
    </g>
</svg>