<?xml version="1.0" encoding="UTF-8"?>
<svg width="16px" height="16px" viewBox="0 0 16 16" version="1.1" xmlns="http://www.w3.org/2000/svg" xmlns:xlink="http://www.w3.org/1999/xlink">
    <title>切片</title>
    <g id="页面-1" stroke="none" stroke-width="1" fill="none" fill-rule="evenodd">
        <g id="Tabs-讨论" transform="translate(-845.000000, -173.000000)">
            <g id="编组-2" transform="translate(24.000000, 150.000000)">
                <g id="图例" transform="translate(756.000000, 21.000000)">
                    <g id="编组-3" transform="translate(65.000000, 0.000000)">
                        <g id="图标-变更" transform="translate(0.000000, 2.000000)">
                            <rect id="矩形" fill="#000000" fill-rule="nonzero" opacity="0" x="0" y="0" width="16" height="16"></rect>
                            <g id="回收-(1)" transform="translate(0.500000, 1.000000)" fill="#009929">
                                <path d="M2.84157188,5.25113105 C2.93869101,4.87102685 3.07432291,4.50264395 3.25014203,4.15100571 C3.81108874,3.01906546 4.74041839,2.07634008 5.94770967,1.51539337 L5.23940978,0 C3.03246121,1.02477429 1.53716145,3.04753142 1.11184662,5.33150551 L0,5.38341402 L2.16676135,8.76751347 L4.01537381,5.19587362 L2.84157188,5.25113105 Z M9.19115382,11.7246236 C8.8127241,11.8284406 8.4275965,11.8954194 8.03577103,11.9222108 C6.77489676,12.0025853 5.49392889,11.6693662 4.40217588,10.9041344 L3.44438029,12.2738491 C5.43532253,13.6720297 7.93530297,13.9550148 10.1255069,13.1814106 L10.7266408,14.1191126 L12.5719044,10.5491472 L8.55653053,10.7333387 L9.19115382,11.7246236 L9.19115382,11.7246236 Z M12.4161788,1.45008912 L12.9268915,0.460478637 L8.9115177,0.644670108 L11.0799535,4.02876956 L11.6208066,2.98390164 C11.8987683,3.25851436 12.1516129,3.56159303 12.3692937,3.88643978 C13.0692213,4.93968004 13.422534,6.21562452 13.3036468,7.54180303 L14.9714167,7.68748173 C15.1857486,5.26620127 14.1810679,2.96045909 12.4161788,1.45008912 Z" id="形状"></path>
                            </g>
                        </g>
                    </g>
                </g>
            </g>
        </g>
    </g>
</svg>