<?xml version="1.0" encoding="UTF-8"?>
<svg width="24px" height="36px" viewBox="0 0 24 36" version="1.1" xmlns="http://www.w3.org/2000/svg" xmlns:xlink="http://www.w3.org/1999/xlink">
    <!-- Generator: Sketch 59.1 (86144) - https://sketch.com -->
    <title>activemq</title>
    <desc>Created with Sketch.</desc>
    <defs>
        <linearGradient x1="100.013386%" y1="49.9745455%" x2="0%" y2="49.9745455%" id="linearGradient-1">
            <stop stop-color="#FFFFFF" offset="42.31%"></stop>
            <stop stop-color="#FFFFFF" stop-opacity="0" offset="100%"></stop>
        </linearGradient>
        <linearGradient x1="100.013386%" y1="49.98%" x2="0%" y2="49.98%" id="linearGradient-2">
            <stop stop-color="#FFFFFF" offset="42.31%"></stop>
            <stop stop-color="#FFFFFF" stop-opacity="0" offset="100%"></stop>
        </linearGradient>
    </defs>
    <g id="页面-1" stroke="none" stroke-width="1" fill="none" fill-rule="evenodd">
        <g id="中优先级" transform="translate(-2472.000000, -271.000000)">
            <g id="activemq" transform="translate(2465.000000, 271.000000)">
                <polygon id="矩形备份-17" points="0 0 36 0 36 36 24.484679 36 0 36"></polygon>
                <g id="编组-2" transform="translate(7.000000, 0.000000)" fill-rule="nonzero">
                    <path d="M9.58,0 L12.75,5.5 L11.264,8.077 L7.13615758,5.64416472 C7.14524112,5.59751078 7.15,5.54931114 7.15,5.5 C7.15,5.08578644 6.81421356,4.75 6.4,4.75 C5.98578644,4.75 5.65,5.08578644 5.65,5.5 C5.65,5.8260431 5.85804848,6.10349388 6.1486315,6.20683838 L6.149,11 L3.23,11 L0.05,5.5 L3.23,0 L9.58,0 Z M6.88219502,6.07446838 L11.014,8.51 L9.58,11 L6.679,11 L6.68017982,6.19591501 C6.75408212,6.16613329 6.82215049,6.1249211 6.88219502,6.07446838 Z" id="形状结合" fill="#FFFFFF"></path>
                    <path d="M6.149,12.4996471 L6.1486315,17.2931616 C5.85804848,17.3965061 5.65,17.6739569 5.65,18 C5.65,18.3260431 5.85804848,18.6034939 6.1486315,18.7068384 L6.129,23.4996471 L3.23,23.5 L0.05,18 L3.23,12.5 L6.149,12.4996471 Z M6.88525169,18.5718861 L11.028,20.9846471 L9.58,23.5 L6.659,23.4996471 L6.68017982,18.695915 C6.75533902,18.6656268 6.82446417,18.623516 6.88525169,18.5718861 Z M11.263,15.4216471 L12.75,18 L11.278,20.5516471 L7.13704243,18.1395424 C7.14554993,18.0943294 7.15,18.0476844 7.15,18 C7.15,17.9506889 7.14524112,17.9024892 7.13615758,17.8558353 L11.263,15.4216471 Z M9.58,12.5 L11.014,14.9896471 L6.88219502,17.4255316 C6.82215049,17.3750789 6.75408212,17.3338667 6.68017982,17.304085 L6.679,12.4996471 L9.58,12.5 Z" id="形状结合" fill="#FFFFFF"></path>
                    <path d="M6.123,24.999975 L6.10264939,29.7917456 C5.80996818,29.8939529 5.6,30.1724561 5.6,30.5 C5.6,30.9142136 5.93578644,31.25 6.35,31.25 C6.76421356,31.25 7.1,30.9142136 7.1,30.5 C7.1,30.4616078 7.09711529,30.4238893 7.09155081,30.3870495 L11.245,27.966975 L12.71,30.5 L9.53,36 L3.18,36 L-1.77635684e-15,30.5 L3.18,25 L6.123,24.999975 Z M9.53,25 L10.995,27.533975 L6.85428306,29.9448364 C6.7898112,29.8862387 6.7150906,29.8387178 6.63312771,29.8052803 L6.652,24.999975 L9.53,25 Z" id="形状结合" fill="#FFFFFF"></path>
                    <path d="M16.7576864,12.4599931 L16.81,17.25 L13.83,17.25 L12.389,14.758 L16.517805,12.3244684 C16.5879729,12.3834273 16.6690983,12.4297672 16.7576864,12.4599931 Z M20.18,6.25 L23.35,11.75 L20.18,17.25 L17.34,17.25 L17.288027,12.4427007 C17.5592908,12.3297794 17.75,12.0621609 17.75,11.75 C17.75,11.3357864 17.4142136,11 17,11 C16.8163845,11 16.6481802,11.0659832 16.517805,11.1755316 L12.389,8.741 L13.83,6.25 L20.18,6.25 Z M12.139,9.174 L16.2638424,11.6058353 C16.2547589,11.6524892 16.25,11.7006889 16.25,11.75 C16.25,11.7993111 16.2547589,11.8475108 16.2638424,11.8941647 L12.139,14.326 L10.65,11.75 L12.139,9.174 Z" id="形状结合" fill="url(#linearGradient-1)"></path>
                    <path d="M20.18,18.75 L23.35,24.25 L20.18,29.75 L13.83,29.75 L12.407,27.2894001 L16.6447483,24.8218861 C16.7755461,24.9329791 16.9449463,25 17.13,25 C17.5442136,25 17.88,24.6642136 17.88,24.25 C17.88,23.9348375 17.6856057,23.6650782 17.4101798,23.554085 L17.356,18.7494001 L20.18,18.75 Z M12.157,21.6424001 L16.3929576,24.1104576 C16.3844501,24.1556706 16.38,24.2023156 16.38,24.25 C16.38,24.2980402 16.3845167,24.3450255 16.3931487,24.3905544 L12.157,26.8564001 L10.65,24.25 L12.157,21.6424001 Z M16.827,18.7494001 L16.8786315,23.5431616 C16.7922851,23.5738703 16.7132264,23.6199521 16.6447483,23.6781139 L12.407,21.2094001 L13.83,18.75 L16.827,18.7494001 Z" id="形状结合" fill="url(#linearGradient-2)"></path>
                </g>
            </g>
        </g>
    </g>
</svg>