<?xml version="1.0" encoding="UTF-8"?>
<svg width="30px" height="36px" viewBox="0 0 30 36" version="1.1" xmlns="http://www.w3.org/2000/svg" xmlns:xlink="http://www.w3.org/1999/xlink">
    <!-- Generator: Sketch 60.1 (88133) - https://sketch.com -->
    <title>admin</title>
    <desc>Created with Sketch.</desc>
    <g id="页面-1" stroke="none" stroke-width="1" fill="none" fill-rule="evenodd">
        <g id="模型icon-库" transform="translate(-3416.000000, -985.000000)">
            <g id="admin" transform="translate(3413.000000, 985.000000)">
                <rect id="矩形备份-22" opacity="0.446149554" x="0" y="0" width="36" height="36"></rect>
                <circle id="椭圆形" fill="#FFFFFF" fill-rule="nonzero" cx="18.2021622" cy="9.06324324" r="8.56324324"></circle>
                <path d="M17.5286486,29.9421622 C17.5286486,25.3237838 20.9924324,21.3789189 25.6108108,20.8016216 C18.2983784,16.6643243 9.06162162,19.2621622 4.92432432,26.5745946 C3.67351351,28.8837838 3,31.3854054 3,33.9832432 C3,34.3681081 10.9859459,34.4643243 18.7794595,34.4643243 C18.0097297,33.1172973 17.5286486,31.5778378 17.5286486,29.9421622 Z" id="路径" fill="#FFFFFF" fill-rule="nonzero"></path>
                <path d="M31.5762162,29.4610811 C31.5762162,28.7875676 31.9610811,28.1140541 32.6345946,27.9216216 C32.4421622,27.3443243 32.2497297,26.767027 31.9610811,26.2859459 C31.0951351,26.6708108 30.132973,26.2859459 29.7481081,25.42 C29.5556757,24.9389189 29.5556757,24.4578378 29.7481081,24.072973 C29.267027,23.7843243 28.6897297,23.4956757 28.1124324,23.3994595 C27.8237838,24.2654054 26.8616216,24.6502703 25.9956757,24.3616216 C25.5145946,24.1691892 25.2259459,23.8805405 25.0335135,23.3994595 C24.4562162,23.5918919 23.8789189,23.7843243 23.3978378,24.072973 C23.7827027,24.9389189 23.3978378,25.9010811 22.5318919,26.2859459 C22.0508108,26.4783784 21.5697297,26.4783784 21.1848649,26.2859459 C20.8962162,26.767027 20.6075676,27.3443243 20.5113514,27.9216216 C21.1848649,28.2102703 21.5697297,28.7875676 21.5697297,29.4610811 C21.5697297,30.1345946 21.0886486,30.8081081 20.5113514,31.0005405 C20.7037838,31.5778378 20.8962162,32.1551351 21.1848649,32.6362162 C22.0508108,32.2513514 23.012973,32.6362162 23.3978378,33.5021622 C23.5902703,33.9832432 23.5902703,34.4643243 23.3978378,34.8491892 C23.8789189,35.1378378 24.4562162,35.4264865 25.0335135,35.5227027 C25.3221622,34.6567568 26.2843243,34.2718919 27.1502703,34.5605405 C27.6313514,34.752973 27.92,35.0416216 28.1124324,35.5227027 C28.6897297,35.3302703 29.267027,35.1378378 29.7481081,34.8491892 C29.3632432,33.9832432 29.7481081,33.0210811 30.6140541,32.6362162 C30.9989189,32.4437838 31.48,32.4437838 31.9610811,32.6362162 C32.2497297,32.1551351 32.5383784,31.5778378 32.6345946,31.0005405 C31.9610811,30.7118919 31.5762162,30.1345946 31.5762162,29.4610811 Z M26.572973,31.0967568 C25.6108108,31.0967568 24.8410811,30.327027 24.8410811,29.4610811 C24.8410811,28.4989189 25.6108108,27.7291892 26.4767568,27.7291892 C27.4389189,27.7291892 28.2086486,28.4989189 28.2086486,29.3648649 L28.2086486,29.3648649 C28.2086486,30.327027 27.4389189,31.0967568 26.572973,31.0967568 Z" id="形状" fill="#FFFFFF" fill-rule="nonzero"></path>
            </g>
        </g>
    </g>
</svg>