<?xml version="1.0" encoding="UTF-8"?>
<svg width="36px" height="36px" viewBox="0 0 36 36" version="1.1" xmlns="http://www.w3.org/2000/svg" xmlns:xlink="http://www.w3.org/1999/xlink">
    <!-- Generator: Sketch 60.1 (88133) - https://sketch.com -->
    <title>aggregation-switch</title>
    <desc>Created with Sketch.</desc>
    <g id="页面-1" stroke="none" stroke-width="1" fill="none" fill-rule="evenodd">
        <g id="中优先级" transform="translate(-700.000000, -1177.000000)">
            <g id="aggregation-switch" transform="translate(700.000000, 1177.000000)">
                <path d="M33.1297297,24.7135135 C34.2,24.7135135 35.0756757,25.5891892 35.0756757,26.6594595 L35.0756757,33.6551351 C35.0756757,34.7254054 34.2097297,35.6010811 33.1297297,35.6010811 L1.99459459,35.6010811 C0.924324324,35.6010811 0.0486486486,34.7254054 0.0486486486,33.6551351 L0.0486486486,26.6594595 C0.0486486486,25.5891892 0.924324324,24.7135135 1.99459459,24.7135135 L33.1297297,24.7135135 Z M13.4464865,30.9697297 L10.0021622,30.9697297 C9.76,30.9697297 9.56396396,31.1388589 9.52339006,31.3677811 L9.51567568,31.4562162 L9.51567568,32.2443243 C9.51567568,32.4864865 9.6848048,32.6825225 9.91372706,32.7230964 L10.0021622,32.7308108 L13.4464865,32.7308108 C13.6886486,32.7308108 13.8846847,32.553994 13.9252586,32.3301969 L13.932973,32.2443243 L13.932973,31.4562162 C13.932973,31.1837838 13.7189189,30.9697297 13.4464865,30.9697297 Z M19.6151351,30.9697297 L16.1708108,30.9697297 C15.9286486,30.9697297 15.7326126,31.1388589 15.6920387,31.3677811 L15.6843243,31.4562162 L15.6843243,32.2443243 C15.6843243,32.4864865 15.8534535,32.6825225 16.0823757,32.7230964 L16.1708108,32.7308108 L19.6151351,32.7308108 C19.8572973,32.7308108 20.0533333,32.553994 20.0939072,32.3301969 L20.1016216,32.2443243 L20.1016216,31.4562162 C20.1016216,31.1837838 19.8875676,30.9697297 19.6151351,30.9697297 Z M26.0075676,30.9697297 L22.5632432,30.9697297 C22.3210811,30.9697297 22.125045,31.1388589 22.0844711,31.3677811 L22.0767568,31.4562162 L22.0767568,32.2443243 C22.0767568,32.4864865 22.2458859,32.6825225 22.4748081,32.7230964 L22.5632432,32.7308108 L26.0075676,32.7308108 C26.2497297,32.7308108 26.4457658,32.553994 26.4863397,32.3301969 L26.4940541,32.2443243 L26.4940541,31.4562162 C26.4940541,31.1837838 26.28,30.9697297 26.0075676,30.9697297 Z M32.4,30.9697297 L28.9556757,30.9697297 C28.7135135,30.9697297 28.5174775,31.1388589 28.4769036,31.3677811 L28.4691892,31.4562162 L28.4691892,32.2443243 C28.4691892,32.4864865 28.6383183,32.6825225 28.8672406,32.7230964 L28.9556757,32.7308108 L32.4,32.7308108 C32.6335135,32.7308108 32.8285886,32.553994 32.8758892,32.3301969 L32.8864865,32.2443243 L32.8864865,31.4562162 C32.8864865,31.1837838 32.6724324,30.9697297 32.4,30.9697297 Z M4.80648649,28.7805405 C4.04881152,28.7805405 3.43459459,29.3947575 3.43459459,30.1524324 C3.43459459,30.9101074 4.04881152,31.5243243 4.80648649,31.5243243 C5.56416146,31.5243243 6.17837838,30.9101074 6.17837838,30.1524324 C6.17837838,29.3947575 5.56416146,28.7805405 4.80648649,28.7805405 Z M13.4464865,27.5740541 L10.0021622,27.5740541 C9.76,27.5740541 9.56396396,27.7431832 9.52339006,27.9721054 L9.51567568,28.0605405 L9.51567568,28.8486486 C9.51567568,29.0908108 9.6848048,29.2868468 9.91372706,29.3274208 L10.0021622,29.3351351 L13.4464865,29.3351351 C13.6886486,29.3351351 13.8846847,29.166006 13.9252586,28.9370838 L13.932973,28.8486486 L13.932973,28.0605405 C13.932973,27.7881081 13.7189189,27.5740541 13.4464865,27.5740541 Z M19.6151351,27.5740541 L16.1708108,27.5740541 C15.9286486,27.5740541 15.7326126,27.7431832 15.6920387,27.9721054 L15.6843243,28.0605405 L15.6843243,28.8486486 C15.6843243,29.0908108 15.8534535,29.2868468 16.0823757,29.3274208 L16.1708108,29.3351351 L19.6151351,29.3351351 C19.8572973,29.3351351 20.0533333,29.166006 20.0939072,28.9370838 L20.1016216,28.8486486 L20.1016216,28.0605405 C20.1016216,27.7881081 19.8875676,27.5740541 19.6151351,27.5740541 Z M26.0075676,27.5740541 L22.5632432,27.5740541 C22.3210811,27.5740541 22.125045,27.7431832 22.0844711,27.9721054 L22.0767568,28.0605405 L22.0767568,28.8486486 C22.0767568,29.0908108 22.2458859,29.2868468 22.4748081,29.3274208 L22.5632432,29.3351351 L26.0075676,29.3351351 C26.2497297,29.3351351 26.4457658,29.166006 26.4863397,28.9370838 L26.4940541,28.8486486 L26.4940541,28.0605405 C26.4940541,27.7881081 26.28,27.5740541 26.0075676,27.5740541 Z M32.4,27.5740541 L28.9556757,27.5740541 C28.7135135,27.5740541 28.5174775,27.7431832 28.4769036,27.9721054 L28.4691892,28.0605405 L28.4691892,28.8486486 C28.4691892,29.0908108 28.6383183,29.2868468 28.8672406,29.3274208 L28.9556757,29.3351351 L32.4,29.3351351 C32.6335135,29.3351351 32.8285886,29.166006 32.8758892,28.9370838 L32.8864865,28.8486486 L32.8864865,28.0605405 C32.8864865,27.7881081 32.6724324,27.5740541 32.4,27.5740541 Z M27.7005405,0.574054054 C28.6054054,0.574054054 29.3935135,1.21621622 29.5978378,2.13081081 L34.2323966,23.0793209 C33.8836083,22.9715591 33.5132763,22.9135135 33.1297297,22.9135135 L1.99459459,22.9135135 C1.63870417,22.9135135 1.29419123,22.96349 0.967710065,23.0567885 L5.69189189,2.13081081 C5.88648649,1.22594595 6.67459459,0.574054054 7.58918919,0.574054054 L27.7005405,0.574054054 Z M18.4864865,13.6216216 L19.5166932,18.4864865 L20.4252782,17.5779014 L22.3139905,19.4594595 L24.3243243,17.4491256 L22.4427663,15.5604134 L23.3513514,14.6518283 L18.4864865,13.6216216 Z M16.5405405,13.6216216 L11.6756757,14.6518283 L12.5842607,15.5604134 L10.7027027,17.4491256 L12.7130366,19.4594595 L14.6017488,17.5779014 L15.5103339,18.4864865 L16.5405405,13.6216216 Z M22.3139905,5.83783784 L20.4252782,7.71939587 L19.5166932,6.81081081 L18.4864865,11.6756757 L23.3513514,10.645469 L22.4427663,9.73688394 L24.3243243,7.8481717 L22.3139905,5.83783784 Z M12.7130366,5.83783784 L10.7027027,7.8481717 L12.5842607,9.73688394 L11.6756757,10.645469 L16.5405405,11.6756757 L15.5103339,6.81081081 L14.6017488,7.71939587 L12.7130366,5.83783784 Z" id="形状结合" fill="#FFFFFF" fill-rule="nonzero"></path>
                <g id="汇聚交换机备份">
                    <g id="汇聚交换机">
                        <g id="编组-4">
                            <rect id="矩形" x="0" y="0" width="36" height="36"></rect>
                            <g id="编组-9" transform="translate(10.000000, 6.000000)">
                                <g id="编组-8" transform="translate(0.314286, 0.171429)"></g>
                            </g>
                        </g>
                    </g>
                </g>
            </g>
        </g>
    </g>
</svg>