<?xml version="1.0" encoding="UTF-8"?>
<svg width="24px" height="24px" viewBox="0 0 24 24" version="1.1" xmlns="http://www.w3.org/2000/svg" xmlns:xlink="http://www.w3.org/1999/xlink">
    <title>AMQP</title>
    <g id="页面-1" stroke="none" stroke-width="1" fill="none" fill-rule="evenodd">
        <g id="AMQP备份-2" transform="translate(-12.000000, -12.000000)" fill="#FFFFFF">
            <g id="AMQP" transform="translate(12.000000, 12.000000)">
                <polygon id="路径备份" points="24 7.95807864e-13 23.9988 23.9988 17.7 17.7 17.7 7.95807864e-13"></polygon>
                <polygon id="路径备份-2" points="15.9 5.68434189e-13 15.8976 15.8976 9.2988 9.2988 9.3 5.68434189e-13"></polygon>
                <polygon id="路径备份-3" points="7.5 6.82121026e-13 7.4976 7.4976 0 0"></polygon>
                <g id="编组备份" transform="translate(0.000000, 0.000000)">
                    <polygon id="路径" points="17.7 17.7 23.9988 23.9988 0 24 1.36424205e-13 17.7"></polygon>
                    <polygon id="路径" points="9.3 9.3 15.8976 15.8976 6.82121026e-14 15.9 6.82121026e-14 9.3"></polygon>
                    <polygon id="路径" points="6.82121026e-14 0 7.4976 7.4976 6.82121026e-14 7.5"></polygon>
                </g>
            </g>
        </g>
    </g>
</svg>