<?xml version="1.0" encoding="UTF-8"?>
<svg width="36px" height="32px" viewBox="0 0 36 32" version="1.1" xmlns="http://www.w3.org/2000/svg" xmlns:xlink="http://www.w3.org/1999/xlink">
    <!-- Generator: Sketch 59.1 (86144) - https://sketch.com -->
    <title>Apache</title>
    <desc>Created with Sketch.</desc>
    <defs>
        <linearGradient x1="49.94566%" y1="100.063377%" x2="49.94566%" y2="0.0634500786%" id="linearGradient-1">
            <stop stop-color="#FFFFFF" offset="0%"></stop>
            <stop stop-color="#FFFFFF" stop-opacity="0.99" offset="37%"></stop>
            <stop stop-color="#FFFFFF" stop-opacity="0.97" offset="51%"></stop>
            <stop stop-color="#FFFFFF" stop-opacity="0.92" offset="60%"></stop>
            <stop stop-color="#FFFFFF" stop-opacity="0.85" offset="68%"></stop>
            <stop stop-color="#FFFFFF" stop-opacity="0.77" offset="75%"></stop>
            <stop stop-color="#FFFFFF" stop-opacity="0.66" offset="80%"></stop>
            <stop stop-color="#FFFFFF" stop-opacity="0.53" offset="86%"></stop>
            <stop stop-color="#FFFFFF" stop-opacity="0.39" offset="91%"></stop>
            <stop stop-color="#FFFFFF" stop-opacity="0.22" offset="95%"></stop>
            <stop stop-color="#FFFFFF" stop-opacity="0.04" offset="99%"></stop>
            <stop stop-color="#FFFFFF" stop-opacity="0" offset="100%"></stop>
        </linearGradient>
    </defs>
    <g id="页面-1" stroke="none" stroke-width="1" fill="none" fill-rule="evenodd">
        <g id="模型icon-库" transform="translate(-1658.000000, -139.000000)">
            <g id="Apache" transform="translate(1658.000000, 137.000000)">
                <rect id="矩形备份-10" opacity="0.446149554" x="0" y="0" width="36" height="36"></rect>
                <path d="M4.44877607,10.1991864 C4.83692853,10.0051102 5.41915724,10.1021483 5.61323347,10.4903007 C5.61323347,10.684377 11.1444061,19.8059599 19.9748748,24.4637896 C25.0208568,27.0838187 30.3579532,29.4127335 35.7920878,31.3534958 C35.8891259,30.1890384 35.112821,29.800886 32.3957537,27.3749331 C30.0668389,25.2400945 27.9320003,23.0082178 25.991238,20.5822649 C24.1475138,21.2615317 22.2067514,21.6496842 20.2659891,21.7467223 C19.7807985,21.8437604 19.3926461,21.5526461 19.3926461,21.0674555 C19.2956079,20.5822649 19.5867223,20.1941124 20.0719129,20.1941124 C20.168951,20.1941124 20.168951,20.1941124 20.2659891,20.1941124 C21.2363703,20.0970743 22.2067514,20.0000362 23.2741707,19.8059599 C23.8563994,19.8059599 24.34159,19.6118837 24.8267806,19.3207694 C24.2445519,18.7385407 23.5652851,17.9622357 22.8860183,17.380007 C21.7215609,17.5740833 20.5571035,17.7681595 19.2956079,17.7681595 C17.2578075,17.8651976 15.7051976,17.7681595 15.5111214,17.7681595 C15.0259308,17.7681595 14.6377783,17.380007 14.5407402,16.8948164 C14.5407402,16.4096259 14.9288927,16.0214734 15.4140833,15.9244353 C15.5111214,15.9244353 15.5111214,15.9244353 15.6081595,15.9244353 C17.5489218,15.9244353 19.4896842,15.8273972 21.4304465,15.6333209 C20.5571035,14.7599779 19.5867223,13.8866348 18.519303,13.207368 C14.346664,10.1991864 8.23326262,7.9673097 4.25469983,8.45250029 L1.7317088,2.82428951 C1.53763256,2.43613705 1.1494801,2.24206081 0.761327631,2.43613705 C0.761327631,2.43613705 0.761327631,2.43613705 0.664289514,2.43613705 C0.276137047,2.63021328 0.0820608133,3.01836575 0.276137047,3.40651821 C0.276137047,3.40651821 0.276137047,3.40651821 0.276137047,3.50355633 L2.79912808,9.1317671 C2.79912808,9.1317671 -2.82908269,18.4474263 9.78587249,26.8897425 C20.8482178,34.2646393 31.813525,34.2646393 34.7246685,32.8090676 C29.4846102,30.7712671 24.34159,28.4423523 19.3926461,25.9193613 C10.0769868,21.0674555 4.6428523,11.7517963 4.35173795,11.3636438 C3.86654737,10.8784532 3.86654737,10.4903007 4.44877607,10.1991864 L4.44877607,10.1991864 Z" id="路径" fill="url(#linearGradient-1)" fill-rule="nonzero"></path>
            </g>
        </g>
    </g>
</svg>