<?xml version="1.0" encoding="UTF-8"?>
<svg width="36px" height="34px" viewBox="0 0 36 34" version="1.1" xmlns="http://www.w3.org/2000/svg" xmlns:xlink="http://www.w3.org/1999/xlink">
    <!-- Generator: Sketch 60.1 (88133) - https://sketch.com -->
    <title>api-gateway</title>
    <desc>Created with Sketch.</desc>
    <g id="页面-1" stroke="none" stroke-width="1" fill="none" fill-rule="evenodd">
        <g id="模型icon-库" transform="translate(-3825.000000, -956.000000)">
            <g id="api-gateway" transform="translate(3825.000000, 955.000000)">
                <rect id="矩形备份-22" opacity="0.446149554" x="0" y="0" width="36" height="36"></rect>
                <path d="M17.7189189,1.3 C20.2205405,1.3 22.3372973,3.32054054 22.3372973,5.91837838 C22.3372973,6.97675676 21.9524324,8.13135135 21.2789189,8.90108108 L21.2789189,8.90108108 L26.4745946,18.6189189 C26.8594595,18.5227027 27.2443243,18.4264865 27.6291892,18.4264865 C30.227027,18.4264865 32.3437838,20.5432432 32.3437838,23.0448649 C32.3437838,25.5464865 30.3232432,27.6632432 27.7254054,27.6632432 C25.8010811,27.6632432 24.1654054,26.4124324 23.4918919,24.872973 L23.4918919,24.872973 L12.1383784,24.872973 C11.4648649,26.6048649 9.82918919,27.6632432 7.90486486,27.6632432 C5.40324324,27.6632432 3.28648649,25.5464865 3.28648649,23.0448649 C3.28648649,20.5432432 5.30702703,18.4264865 7.90486486,18.4264865 C8.0972973,18.4264865 8.38594595,18.5227027 8.57837838,18.5227027 L8.57837838,18.5227027 L14.1589189,8.80486486 C13.4854054,8.03513514 13.1005405,6.97675676 13.1005405,5.91837838 C13.1005405,3.41675676 15.2172973,1.3 17.7189189,1.3 Z M27.6291892,21.2167568 C26.5664142,21.2167568 25.7048649,22.0783061 25.7048649,23.1410811 C25.7048649,24.2038561 26.5664142,25.0654054 27.6291892,25.0654054 C28.6919642,25.0654054 29.5535135,24.2038561 29.5535135,23.1410811 C29.5535135,22.0783061 28.6919642,21.2167568 27.6291892,21.2167568 Z M7.80864865,21.1205405 C6.75027027,21.1205405 5.88432432,21.9864865 5.88432432,23.0448649 C5.88432432,24.1032432 6.75027027,24.9691892 7.80864865,24.9691892 C8.86702703,24.9691892 9.73297297,24.1032432 9.73297297,23.0448649 C9.73297297,21.9864865 8.86702703,21.1205405 7.80864865,21.1205405 Z M18.6810811,10.3443243 C18.3924324,10.4405405 18.1037838,10.4405405 17.8151351,10.4405405 C17.4302703,10.4405405 17.0454054,10.4405405 16.7567568,10.3443243 L16.7567568,10.3443243 L11.2724324,19.9659459 C11.7535135,20.447027 12.1383784,21.2167568 12.3308108,21.8902703 L12.3308108,21.8902703 L23.2032432,21.8902703 C23.3956757,21.312973 23.5881081,20.8318919 23.972973,20.3508108 L23.972973,20.3508108 Z M17.7189189,3.89783784 C16.6605405,3.89783784 15.7945946,4.76378378 15.7945946,5.82216216 C15.7945946,6.88054054 16.6605405,7.74648649 17.7189189,7.74648649 C18.8735135,7.74648649 19.6432432,6.88054054 19.6432432,5.82216216 C19.6432432,4.76378378 18.7772973,3.89783784 17.7189189,3.89783784 Z" id="形状结合" fill="#FFFFFF" fill-rule="nonzero"></path>
                <path d="M23.7805405,3.89783784 C23.972973,4.2827027 24.1654054,4.57135135 24.5502703,4.76378378 C28.9762162,7.16918919 31.9589189,11.7875676 31.9589189,17.1756757 L31.9589189,17.8491892 C32.1513514,18.0416216 32.1513514,18.1378378 32.3437838,18.3302703 C33.3059459,19.3886486 35.1340541,18.8113514 35.1340541,17.3681081 L35.1340541,17.1756757 C35.1340541,10.632973 31.4778378,4.95621622 26.0897297,1.97351351 C24.7427027,1.20378378 23.2032432,2.45459459 23.7805405,3.89783784 L23.7805405,3.89783784 Z" id="路径" fill="#FFFFFF" fill-rule="nonzero"></path>
                <path d="M17.7189189,31.2232432 C15.0248649,31.2232432 12.6194595,30.5497297 10.5027027,29.2027027 C10.1178378,29.0102703 9.73297297,28.9140541 9.34810811,29.0102703 C8.00108108,29.2989189 7.71243243,31.127027 8.86702703,31.8005405 C11.4648649,33.34 14.5437838,34.3021622 17.8151351,34.3021622 C20.9902703,34.3021622 23.972973,33.4362162 26.4745946,31.992973 C27.6291892,31.3194595 27.4367568,29.5875676 26.1859459,29.2027027 C25.8010811,29.0102703 25.32,29.1064865 24.9351351,29.3951351 C22.6259459,30.5497297 20.3167568,31.2232432 17.7189189,31.2232432 Z" id="路径" fill="#FFFFFF" fill-rule="nonzero"></path>
                <path d="M3.57513514,17.1756757 C3.57513514,11.7875676 6.55783784,7.16918919 11.08,4.76378378 C11.4648649,4.57135135 11.7535135,4.18648649 11.8497297,3.80162162 L11.8497297,3.70540541 C12.2345946,2.35837838 10.7913514,1.3 9.63675676,1.8772973 C4.24864865,4.66756757 0.4,10.4405405 0.4,17.0794595 L0.4,17.752973 C0.496216216,19.2924324 2.32432432,19.7735135 3.19027027,18.6189189 L3.19027027,18.5227027 C3.47891892,18.3302703 3.67135135,17.8491892 3.57513514,17.4643243 C3.57513514,17.5605405 3.57513514,17.1756757 3.57513514,17.1756757 Z" id="路径" fill="#FFFFFF" fill-rule="nonzero"></path>
            </g>
        </g>
    </g>
</svg>