<?xml version="1.0" encoding="UTF-8"?>
<svg width="36px" height="36px" viewBox="0 0 36 36" version="1.1" xmlns="http://www.w3.org/2000/svg" xmlns:xlink="http://www.w3.org/1999/xlink">
    <!-- Generator: Sketch 60.1 (88133) - https://sketch.com -->
    <title>app</title>
    <desc>Created with Sketch.</desc>
    <g id="页面-1" stroke="none" stroke-width="1" fill="none" fill-rule="evenodd">
        <g id="模型图标库" transform="translate(-744.000000, -1193.000000)">
            <g id="app" transform="translate(744.000000, 1193.000000)">
                <rect id="矩形1" x="0" y="0" width="36" height="36"></rect>
                <g id="编组-31" fill="#FFFFFF" fill-rule="nonzero">
                    <g id="编组-4">
                        <path d="M7.8,-5.5067062e-14 C3.5,-5.5067062e-14 -5.59552404e-14,3.5 -5.59552404e-14,7.8 C-5.59552404e-14,12.1 3.5,15.6 7.8,15.6 L14.7,15.6 C15.2,15.6 15.7,15.2 15.7,14.6 L15.7,7.7 C15.6,3.5 12.1,-5.5067062e-14 7.8,-5.5067062e-14 Z" id="路径"></path>
                        <path d="M27.4,-5.5067062e-14 C31.7,-5.5067062e-14 35.2,3.5 35.2,7.8 C35.2,12.1 31.7,15.6 27.4,15.6 L20.5,15.6 C20,15.6 19.5,15.2 19.5,14.6 L19.5,7.7 C19.6,3.5 23.1,-5.5067062e-14 27.4,-5.5067062e-14 Z" id="路径"></path>
                        <path d="M7.8,35.3 C3.5,35.3 -5.59552404e-14,31.8 -5.59552404e-14,27.5 C-5.59552404e-14,23.2 3.5,19.7 7.8,19.7 L14.7,19.7 C15.2,19.7 15.7,20.1 15.7,20.7 L15.7,27.6 C15.6,31.8 12.1,35.3 7.8,35.3 Z" id="路径"></path>
                        <path d="M27.4,35.3 C31.7,35.3 35.2,31.8 35.2,27.5 C35.2,23.2 31.7,19.7 27.4,19.7 L20.5,19.7 C20,19.7 19.5,20.1 19.5,20.7 L19.5,27.6 C19.6,31.8 23.1,35.3 27.4,35.3 Z" id="路径"></path>
                    </g>
                </g>
            </g>
        </g>
    </g>
</svg>