<?xml version="1.0" encoding="UTF-8"?>
<svg width="35px" height="34px" viewBox="0 0 35 34" version="1.1" xmlns="http://www.w3.org/2000/svg" xmlns:xlink="http://www.w3.org/1999/xlink">
    <!-- Generator: Sketch 60.1 (88133) - https://sketch.com -->
    <title>backup-device</title>
    <desc>Created with Sketch.</desc>
    <g id="页面-1" stroke="none" stroke-width="1" fill="none" fill-rule="evenodd">
        <g id="中优先级" transform="translate(-826.000000, -1178.000000)">
            <g id="backup-device" transform="translate(825.000000, 1177.000000)">
                <polygon id="矩形备份-2" points="0 0 36 0 36 36 24.484679 36 0 36"></polygon>
                <g id="编组" transform="translate(0.000000, 1.000000)">
                    <path d="M35.3828571,16.0457143 L35.3828571,33.1885714 L25.3885714,33.1885714 L25.3885714,31.2342857 C25.3885714,29.4114286 23.9628762,27.9089524 22.148986,27.8108127 L21.96,27.8057143 L14.4685714,27.8057143 C12.6457143,27.8057143 11.1432381,29.2314095 11.0450984,31.0452997 L11.04,31.2342857 L11.04,33.1885714 L1.09714286,33.1885714 L1.09714286,16.0457143 L35.3828571,16.0457143 Z M28.6285714,18.3428571 C28.2025232,18.3428571 27.8571429,18.6882375 27.8571429,19.1142857 C27.8571429,19.5403339 28.2025232,19.8857143 28.6285714,19.8857143 C29.0546197,19.8857143 29.4,19.5403339 29.4,19.1142857 C29.4,18.6882375 29.0546197,18.3428571 28.6285714,18.3428571 Z M31.9371429,18.3428571 C31.5110946,18.3428571 31.1657143,18.6882375 31.1657143,19.1142857 C31.1657143,19.5403339 31.5110946,19.8857143 31.9371429,19.8857143 C32.3631911,19.8857143 32.7085714,19.5403339 32.7085714,19.1142857 C32.7085714,18.6882375 32.3631911,18.3428571 31.9371429,18.3428571 Z" id="形状结合" fill="#FFFFFF" fill-rule="nonzero"></path>
                    <path d="M11.2285714,9.82285714 L11.2285714,8.38285714 L3,8.38285714 C1.95428571,8.38285714 1.09714286,9.24 1.09714286,10.2857143 L1.09714286,11.7257143 L1.09714286,15.0685714 L35.3828571,15.0685714 L35.3828571,13.6285714 C35.3828571,12.5828571 34.5257143,11.7257143 33.48,11.7257143 L13.1485714,11.7257143 C12.0857143,11.7257143 11.2285714,10.8685714 11.2285714,9.82285714 Z" id="路径" fill="#FFFFFF" fill-rule="nonzero"></path>
                    <line x1="13.0971429" y1="9.34285714" x2="32.8114286" y2="1.02857143" id="路径" stroke="#FFFFFF" stroke-width="1.5" stroke-linecap="round"></line>
                    <path d="M24.48,31.3714286 L11.9828571,31.3714286 L11.9828571,31.3714286 C11.9828571,30 13.0971429,28.8857143 14.4685714,28.8857143 L22.0114286,28.8857143 C23.3657143,28.8857143 24.48,30 24.48,31.3714286 L24.48,31.3714286 Z" id="路径" fill="#FFFFFF" fill-rule="nonzero"></path>
                </g>
            </g>
        </g>
    </g>
</svg>