<?xml version="1.0" encoding="UTF-8"?>
<svg width="34px" height="33px" viewBox="0 0 34 33" version="1.1" xmlns="http://www.w3.org/2000/svg" xmlns:xlink="http://www.w3.org/1999/xlink">
    <!-- Generator: Sketch 59.1 (86144) - https://sketch.com -->
    <title>备份设备</title>
    <desc>Created with Sketch.</desc>
    <defs>
        <linearGradient x1="50.0280659%" y1="100.224684%" x2="50.0280659%" y2="0.0949367089%" id="linearGradient-1">
            <stop stop-color="#FFFFFF" offset="0%"></stop>
            <stop stop-color="#FFFFFF" stop-opacity="0" offset="100%"></stop>
        </linearGradient>
    </defs>
    <g id="页面-1" stroke="none" stroke-width="1" fill="none" fill-rule="evenodd">
        <g id="中优先级" transform="translate(-819.000000, -273.000000)">
            <g id="备份设备" transform="translate(818.000000, 271.000000)">
                <polygon id="矩形备份-2" points="0 0 36 0 36 36 24.484679 36 0 36"></polygon>
                <g id="编组" transform="translate(1.000000, 3.000000)" fill-rule="nonzero">
                    <path d="M34,15 L34,32 L0,32 L0,15 L34,15 Z M22.2322222,26.6544444 L11.7677778,26.6544444 C10.7288889,26.6544444 9.87888889,27.495 9.87888889,28.5433333 L9.87888889,28.5433333 L9.87888889,32 L24.1211111,32 L24.1211111,28.5433333 C24.1211111,27.5044444 23.2805556,26.6544444 22.2322222,26.6544444 L22.2322222,26.6544444 Z M27.3133333,17.2666667 C26.8908355,17.2666667 26.5483333,17.6091688 26.5483333,18.0316667 C26.5483333,18.4541645 26.8908355,18.7966667 27.3133333,18.7966667 C27.7358312,18.7966667 28.0783333,18.4541645 28.0783333,18.0316667 C28.0783333,17.6091688 27.7358312,17.2666667 27.3133333,17.2666667 Z M30.5905556,17.2666667 C30.1680577,17.2666667 29.8255556,17.6091688 29.8255556,18.0316667 C29.8255556,18.4541645 30.1680577,18.7966667 30.5905556,18.7966667 C31.0130534,18.7966667 31.3555556,18.4541645 31.3555556,18.0316667 C31.3555556,17.6091688 31.0130534,17.2666667 30.5905556,17.2666667 Z" id="形状结合" fill="#FFFFFF"></path>
                    <path d="M10.0488889,8.4957265 L10.0488889,7 L1.88888889,7 C0.840555556,7 0,7.8974359 0,8.99430199 L0,10.5 L0,14 L34,14 L34,12.494302 C34,11.3874644 33.15,10.5 32.1111111,10.5 L11.9472222,10.5 C10.8988889,10.4900285 10.0488889,9.59259259 10.0488889,8.4957265 Z" id="路径" fill="#FFFFFF"></path>
                    <path d="M11.9427052,8.69350857 L31.3712766,0.693508574 C31.7542908,0.535796841 31.9369346,0.0974518553 31.7792229,-0.285562354 C31.6215111,-0.668576563 31.1831661,-0.851220307 30.8001519,-0.693508574 L11.3715805,7.30649143 C10.9885663,7.46420316 10.8059226,7.90254814 10.9636343,8.28556235 C11.121346,8.66857656 11.559691,8.85122031 11.9427052,8.69350857 Z" id="路径" fill="#FFFFFF"></path>
                    <rect id="矩形" fill="url(#linearGradient-1)" x="8.74285714" y="27" width="15.5428571" height="3"></rect>
                </g>
            </g>
        </g>
    </g>
</svg>