<?xml version="1.0" encoding="UTF-8"?>
<svg width="36px" height="34px" viewBox="0 0 36 34" version="1.1" xmlns="http://www.w3.org/2000/svg" xmlns:xlink="http://www.w3.org/1999/xlink">
    <!-- Generator: Sketch 60.1 (88133) - https://sketch.com -->
    <title>business</title>
    <desc>Created with Sketch.</desc>
    <g id="页面-1" stroke="none" stroke-width="1" fill="none" fill-rule="evenodd">
        <g id="模型图标库" transform="translate(-641.000000, -1188.000000)">
            <g id="business" transform="translate(641.000000, 1186.000000)">
                <g id="业务">
                    <rect id="矩形" x="0" y="0" width="36" height="36"></rect>
                    <g id="编组-58备份" transform="translate(0.000000, 3.000000)">
                        <g id="编组-3">
                            <path d="M33.5076923,5.81538462 C34.5230769,5.81538462 35.3538462,6.64615385 35.3538462,7.66153846 L35.3538462,30.2769231 C35.3538462,31.2923077 34.5230769,32.1230769 33.5076923,32.1230769 L1.84615385,32.1230769 C0.830769231,32.1230769 1.0658141e-14,31.2923077 1.0658141e-14,30.2769231 L1.0658141e-14,7.66153846 C1.0658141e-14,6.64615385 0.830769231,5.81538462 1.84615385,5.81538462 L33.5076923,5.81538462 Z M12.7384615,14.4923077 L6.36923077,14.4923077 L6.36923077,18.5538462 L12.7384615,18.5538462 L12.7384615,14.4923077 Z M28.9846154,14.4923077 L22.6153846,14.4923077 L22.6153846,18.5538462 L28.9846154,18.5538462 L28.9846154,14.4923077 Z" id="形状结合" fill="#FFFFFF" fill-rule="nonzero"></path>
                            <path d="M10.4307692,5.5067062e-14 L24.9230769,5.5067062e-14 C25.9384615,5.5067062e-14 26.7692308,0.830769231 26.7692308,1.84615385 L26.7692308,8.21538462 C26.7692308,9.23076923 25.9384615,10.0615385 24.9230769,10.0615385 L10.4307692,10.0615385 C9.41538462,10.0615385 8.58461538,9.23076923 8.58461538,8.21538462 L8.58461538,1.84615385 C8.58461538,0.738461538 9.41538462,5.5067062e-14 10.4307692,5.5067062e-14 Z" id="路径" stroke="#FFFFFF" stroke-width="2"></path>
                            <path d="M1.17239551e-13,18.5538462 L1.17239551e-13,30.3692308 C1.17239551e-13,31.3846154 0.830769231,32.2153846 1.84615385,32.2153846 L33.5076923,32.2153846 C34.5230769,32.2153846 35.3538462,31.3846154 35.3538462,30.3692308 L35.3538462,18.5538462 L1.17239551e-13,18.5538462 Z" id="路径" fill="#FFFFFF" fill-rule="nonzero"></path>
                        </g>
                    </g>
                </g>
            </g>
        </g>
    </g>
</svg>