<?xml version="1.0" encoding="UTF-8"?>
<svg width="37px" height="37px" viewBox="0 0 37 37" version="1.1" xmlns="http://www.w3.org/2000/svg" xmlns:xlink="http://www.w3.org/1999/xlink">
    <!-- Generator: Sketch 59.1 (86144) - https://sketch.com -->
    <title>云专线</title>
    <desc>Created with Sketch.</desc>
    <defs>
        <radialGradient cx="49.8378063%" cy="99.8235966%" fx="49.8378063%" fy="99.8235966%" r="38.8496339%" gradientTransform="translate(0.498378,0.998236),scale(0.676576,1.000000),rotate(-0.269782),scale(1.000000,1.674784),translate(-0.498378,-0.998236)" id="radialGradient-1">
            <stop stop-color="#FFFFFF" stop-opacity="0" offset="0%"></stop>
            <stop stop-color="#FFFFFF" stop-opacity="0.465401613" offset="37.183277%"></stop>
            <stop stop-color="#FFFFFF" stop-opacity="0.4125" offset="62.6451647%"></stop>
            <stop stop-color="#FFFFFF" offset="100%"></stop>
        </radialGradient>
    </defs>
    <g id="页面-1" stroke="none" stroke-width="1" fill="none" fill-rule="evenodd">
        <g id="中优先级" transform="translate(-1024.000000, -271.000000)">
            <g id="云专线" transform="translate(1024.000000, 271.000000)">
                <polygon id="矩形备份-7" points="0.29 0.59 36.29 0.59 36.29 36.59 24.774679 36.59 0.29 36.59"></polygon>
                <g id="编组">
                    <g transform="translate(12.000000, 14.000000)">
                        <path d="M10.89,14.75 C10.89,16.02 9.86,17.05 8.59,17.05 C7.32,17.05 6.29,16.02 6.29,14.75" id="路径" stroke="#FFFFFF" stroke-width="1.5" stroke-linecap="round"></path>
                        <path d="M1.68,8.27 C1.68,7 2.71,5.97 3.98,5.97 C5.25,5.97 6.28,7 6.28,8.27" id="路径" stroke="#FFFFFF" stroke-width="1.5" stroke-linecap="round"></path>
                        <line x1="6.29" y1="8.27" x2="6.29" y2="14.75" id="路径" stroke="#FFFFFF" stroke-width="1.5" stroke-linecap="round"></line>
                        <line x1="10.89" y1="1.78" x2="10.89" y2="14.75" id="路径" stroke="#FFFFFF" stroke-width="1.5" stroke-linecap="round"></line>
                        <circle id="椭圆形" fill="#FFFFFF" fill-rule="nonzero" cx="1.68" cy="21.24" r="1.32"></circle>
                        <circle id="椭圆形" fill="#FFFFFF" fill-rule="nonzero" cx="10.89" cy="1.78" r="1.32"></circle>
                        <line x1="1.68" y1="8.27" x2="1.68" y2="21.24" id="路径" stroke="#FFFFFF" stroke-width="1.5" stroke-linecap="round"></line>
                    </g>
                    <g fill="url(#radialGradient-1)" fill-rule="nonzero" id="形状结合">
                        <path d="M19.5,0.62 C24.22,0.62 28.07,4.24 28.46,8.85 L28.46,8.85 L28.47,8.85 C32.81,8.97 36.29,12.53 36.2800215,16.91 C36.2800215,21.17 32.98,24.64 28.8,24.94 L28.809,24.938 L28.81,24.97 L8.5,24.97 L8.5,24.97 L8.5,24.97 L7.37,24.97 C3.45,24.94 0.29,21.75 0.29,17.82 L0.29,17.82 L0.29,17.79 C0.31,13.85 3.5,10.67 7.44,10.67 C8.61,10.67 9.39,10.91 10,11.13 L10,11.13 L10.38,11.3 C10.39,11 10.49,9.93 10.5,9.62 C10.69,4.65 14.53,0.62 19.5,0.62 Z M20.0777826,6.68126103 L20.1322506,6.69523508 L20.1322506,6.69523508 C20.1123234,6.69019036 20.09506,6.68568613 20.0777826,6.68126103 Z"></path>
                    </g>
                </g>
            </g>
        </g>
    </g>
</svg>