<?xml version="1.0" encoding="UTF-8"?>
<svg width="34px" height="34px" viewBox="0 0 34 34" version="1.1" xmlns="http://www.w3.org/2000/svg" xmlns:xlink="http://www.w3.org/1999/xlink">
    <!-- Generator: Sketch 59.1 (86144) - https://sketch.com -->
    <title>云主机</title>
    <desc>Created with Sketch.</desc>
    <defs>
        <linearGradient x1="28.7526295%" y1="66.1073674%" x2="71.2158161%" y2="33.9030377%" id="linearGradient-1">
            <stop stop-color="#FFFFFF" stop-opacity="0" offset="0%"></stop>
            <stop stop-color="#FFFFFF" stop-opacity="0.8" offset="28.77%"></stop>
            <stop stop-color="#FFFFFF" offset="43.76%"></stop>
            <stop stop-color="#FFFFFF" offset="100%"></stop>
        </linearGradient>
        <linearGradient x1="34.0198102%" y1="49.9786287%" x2="100.016751%" y2="49.9786287%" id="linearGradient-2">
            <stop stop-color="#FFFFFF" stop-opacity="0" offset="0%"></stop>
            <stop stop-color="#FFFFFF" stop-opacity="0.8" offset="57.38%"></stop>
            <stop stop-color="#FFFFFF" offset="73.21%"></stop>
            <stop stop-color="#FFFFFF" offset="100%"></stop>
        </linearGradient>
    </defs>
    <g id="页面-1" stroke="none" stroke-width="1" fill="none" fill-rule="evenodd">
        <g id="高优先级" transform="translate(-1104.000000, -272.000000)">
            <g id="云主机" transform="translate(1103.000000, 271.000000)">
                <rect id="矩形备份-6" x="0" y="0" width="36" height="36"></rect>
                <g id="编组" transform="translate(1.000000, 1.000000)" fill-rule="nonzero">
                    <path d="M32.3275676,0.248108108 C32.8605405,0.248108108 33.2924324,0.68 33.2924324,1.21297297 L33.2924324,9.61189189 C33.2924324,10.1448649 32.8605405,10.5767568 32.3275676,10.5767568 L10.6686486,10.5767568 C10.1356757,10.5767568 9.70378378,10.1448649 9.70378378,9.61189189 L9.70378378,1.22216216 C9.70378378,0.689189189 10.1356757,0.248108108 10.6778378,0.248108108 L32.3275676,0.248108108 Z M31.0135135,4.19945946 L26.5108108,4.19945946 C26.2718919,4.19945946 26.0697297,4.39243243 26.0697297,4.64054054 L26.0697297,4.64054054 L26.0697297,6.2027027 C26.0697297,6.44162162 26.2627027,6.64378378 26.5108108,6.64378378 L26.5108108,6.64378378 L31.0135135,6.64378378 C31.2524324,6.64378378 31.4545946,6.44162162 31.4545946,6.2027027 L31.4545946,6.2027027 L31.4545946,4.64054054 C31.4545946,4.40162162 31.2616216,4.19945946 31.0135135,4.19945946 L31.0135135,4.19945946 Z M24.1951351,4.49351351 C23.6876302,4.49351351 23.2762162,4.90492753 23.2762162,5.41243243 C23.2762162,5.91993734 23.6876302,6.33135135 24.1951351,6.33135135 C24.70264,6.33135135 25.1140541,5.91993734 25.1140541,5.41243243 C25.1140541,4.90492753 24.70264,4.49351351 24.1951351,4.49351351 Z" id="形状结合" fill="#FFFFFF"></path>
                    <path d="M32.4745946,11.5508108 C33.0075676,11.5508108 33.4394595,11.9827027 33.4394595,12.5156757 L33.4394595,20.9145946 C33.4394595,21.4475676 33.0075676,21.8794595 32.4745946,21.8794595 L10.8156757,21.8794595 C10.2827027,21.8794595 9.85081081,21.4475676 9.85081081,20.9145946 L9.85081081,12.5156757 C9.85081081,11.9827027 10.2827027,11.5508108 10.8156757,11.5508108 L32.4745946,11.5508108 Z M31.0135135,15.5021622 L26.5108108,15.5021622 C26.2718919,15.5021622 26.0697297,15.6951351 26.0697297,15.9432432 L26.0697297,15.9432432 L26.0697297,17.5054054 C26.0697297,17.7443243 26.2627027,17.9464865 26.5108108,17.9464865 L26.5108108,17.9464865 L31.0135135,17.9464865 C31.2524324,17.9464865 31.4545946,17.7443243 31.4545946,17.5054054 L31.4545946,17.5054054 L31.4545946,15.9432432 C31.4545946,15.7043243 31.2616216,15.5021622 31.0135135,15.5021622 L31.0135135,15.5021622 Z M24.1951351,15.7962162 C23.6876302,15.7962162 23.2762162,16.2076302 23.2762162,16.7151351 C23.2762162,17.22264 23.6876302,17.6340541 24.1951351,17.6340541 C24.70264,17.6340541 25.1140541,17.22264 25.1140541,16.7151351 C25.1140541,16.2076302 24.70264,15.7962162 24.1951351,15.7962162 Z" id="形状结合" fill="url(#linearGradient-1)"></path>
                    <path d="M32.3275676,23.0097297 C32.8605405,23.0097297 33.2924324,23.4416216 33.2924324,23.9745946 L33.2924324,32.3643243 C33.2924324,32.8972973 32.8605405,33.3291892 32.3275676,33.3291892 L10.6686486,33.3291892 C10.1356757,33.3291892 9.70378378,32.8972973 9.70378378,32.3643243 L9.70378378,23.9745946 C9.70378378,23.4416216 10.1356757,23.0097297 10.6686486,23.0097297 L32.3275676,23.0097297 Z M31.0043243,26.6762162 L26.4924324,26.6762162 C26.2535135,26.6762162 26.0513514,26.8691892 26.0513514,27.1172973 L26.0513514,27.1172973 L26.0513514,28.6794595 C26.0513514,28.9275676 26.2443243,29.1205405 26.4924324,29.1205405 L26.4924324,29.1205405 L31.0043243,29.1205405 C31.2432432,29.1205405 31.4454054,28.9275676 31.4454054,28.6794595 L31.4454054,28.6794595 L31.4454054,27.1172973 C31.4454054,26.8691892 31.2524324,26.6762162 31.0043243,26.6762162 L31.0043243,26.6762162 Z M24.1859459,26.9794595 C23.678441,26.9794595 23.267027,27.3908735 23.267027,27.8983784 C23.267027,28.4058833 23.678441,28.8172973 24.1859459,28.8172973 C24.6934509,28.8172973 25.1048649,28.4058833 25.1048649,27.8983784 C25.1048649,27.3908735 24.6934509,26.9794595 24.1859459,26.9794595 Z" id="形状结合" fill="url(#linearGradient-2)"></path>
                    <path d="M17.2021622,33.2832432 L4.63135135,33.2832432 L4.59459459,33.2832432 C2.25135135,33.2556757 0.358378378,31.0962162 0.358378378,28.4221622 C0.358378378,28.412973 0.358378378,28.412973 0.358378378,28.4037838 M17.2021622,33.2832432 L17.2113514,33.2832432 C19.8027027,33.1913514 21.8702703,30.7745946 21.8702703,27.7972973 C21.8702703,24.82 19.7935135,22.4032432 17.192973,22.3205405 L17.1837838,22.3205405 C16.9540541,19.187027 14.6475676,16.7151351 11.8264865,16.7151351 C8.85837838,16.7151351 6.56108108,19.4627027 6.45081081,22.8351351 C6.44162162,23.0464865 6.38648649,23.7724324 6.3772973,23.9837838 L6.14756757,23.8643243 C5.78,23.7172973 5.32054054,23.5518919 4.61297297,23.5518919 C2.26054054,23.5518919 0.349189189,25.7205405 0.34,28.3945946 L0.34,28.412973" id="形状" fill="#FFFFFF"></path>
                </g>
            </g>
        </g>
    </g>
</svg>