<?xml version="1.0" encoding="UTF-8"?>
<svg width="36px" height="25px" viewBox="0 0 36 25" version="1.1" xmlns="http://www.w3.org/2000/svg" xmlns:xlink="http://www.w3.org/1999/xlink">
    <!-- Generator: Sketch 60.1 (88133) - https://sketch.com -->
    <title>cloud-backup</title>
    <desc>Created with Sketch.</desc>
    <g id="页面-1" stroke="none" stroke-width="1" fill="none" fill-rule="evenodd">
        <g id="中优先级" transform="translate(-919.000000, -1182.000000)">
            <g id="cloud-backup" transform="translate(919.000000, 1177.000000)">
                <polygon id="矩形备份-5" points="0 0 35.027027 0 35.027027 36 23.8229309 36 0 36"></polygon>
                <path d="M19.1267007,5.41 C23.7188728,5.41 27.4675847,9.02204013 27.8424559,13.6334114 L27.8424559,13.6334114 L27.8541707,13.6334114 C32.0714716,13.7538127 35.457027,17.3056522 35.457027,21.6762207 C35.457027,26.0467893 32.0714716,29.5865886 27.8658854,29.7310702 L27.8658854,29.7310702 L27.8424559,29.7310702 L20.862,29.735 L20.8624324,24.74 L22.8083784,24.74 L17.9435135,17.74 L13.0786486,24.74 L15.0245946,24.74 L15.0245946,29.74 L7.37683178,29.7431104 L7.31825816,29.7431104 C3.49925789,29.70699 0.43,26.5163545 0.43,22.5912709 L0.43,22.5912709 L0.43,22.5671906 C0.45342945,18.6300669 3.55783151,15.4514716 7.38854651,15.4514716 C8.53658953,15.4514716 9.28633192,15.6922742 9.88378288,15.9089967 L9.88378288,15.9089967 L10.2586541,16.0775585 C10.2703688,15.7885953 10.3640866,14.7170234 10.3758013,14.4039799 C10.5632369,9.44344482 14.2885194,5.41 19.1267007,5.41 Z" id="形状结合" fill="#FFFFFF" fill-rule="nonzero"></path>
            </g>
        </g>
    </g>
</svg>