<?xml version="1.0" encoding="UTF-8"?>
<svg width="37px" height="25px" viewBox="0 0 37 25" version="1.1" xmlns="http://www.w3.org/2000/svg" xmlns:xlink="http://www.w3.org/1999/xlink">
    <!-- Generator: Sketch 59.1 (86144) - https://sketch.com -->
    <title>云备份</title>
    <desc>Created with Sketch.</desc>
    <defs>
        <linearGradient x1="50%" y1="0%" x2="50%" y2="100%" id="linearGradient-1">
            <stop stop-color="#FFFFFF" stop-opacity="0" offset="0%"></stop>
            <stop stop-color="#FFFFFF" stop-opacity="0.8" offset="100%"></stop>
        </linearGradient>
    </defs>
    <g id="页面-1" stroke="none" stroke-width="1" fill="none" fill-rule="evenodd">
        <g id="中优先级" transform="translate(-921.000000, -276.000000)">
            <g id="云备份" transform="translate(921.000000, 271.000000)">
                <polygon id="矩形备份-5" points="0.07 0 36.07 0 36.07 36 24.554679 36 0.07 36"></polygon>
                <g id="编组" transform="translate(0.000000, 5.410000)">
                    <g id="编组-13" transform="translate(0.090909, 0.000000)">
                        <path d="M19.2160535,-3.55271368e-15 C23.935786,-3.55271368e-15 27.7886288,3.61204013 28.173913,8.22341137 L28.173913,8.22341137 L28.1859532,8.22341137 C32.5204013,8.34381271 36,11.8956522 36,16.2662207 C36,20.6367893 32.5204013,24.1765886 28.1979933,24.3210702 L28.1979933,24.3210702 L28.173913,24.3210702 L21,24.325 L21,19.33 L23,19.33 L18,12.33 L13,19.33 L15,19.33 L15,24.33 L7.13979933,24.3331104 L7.07959866,24.3331104 C3.15451505,24.29699 0,21.1063545 0,17.1812709 L0,17.1812709 L0,17.1571906 C0.0240802676,13.2200669 3.21471572,10.0414716 7.15183946,10.0414716 C8.33177258,10.0414716 9.10234114,10.2822742 9.71638796,10.4989967 L9.71638796,10.4989967 L10.1016722,10.6675585 C10.1137124,10.3785953 10.2100334,9.30702341 10.2220736,8.99397993 C10.4147157,4.03344482 14.2434783,-3.55271368e-15 19.2160535,-3.55271368e-15 Z" id="形状结合" fill="#FFFFFF" fill-rule="nonzero"></path>
                        <path d="M13,19.33 L18,12.33 L23,19.33 L21,19.33 L21,24.33 L15,24.33 L15,19.33 L13,19.33 Z" id="形状结合" fill="url(#linearGradient-1)"></path>
                    </g>
                </g>
            </g>
        </g>
    </g>
</svg>