<?xml version="1.0" encoding="UTF-8"?>
<svg width="29px" height="35px" viewBox="0 0 29 35" version="1.1" xmlns="http://www.w3.org/2000/svg" xmlns:xlink="http://www.w3.org/1999/xlink">
    <!-- Generator: Sketch 59.1 (86144) - https://sketch.com -->
    <title>云存储</title>
    <desc>Created with Sketch.</desc>
    <defs>
        <linearGradient x1="50.0142921%" y1="99.9512635%" x2="50.0142921%" y2="-0.0162454874%" id="linearGradient-1">
            <stop stop-color="#FFFFFF" offset="42.31%"></stop>
            <stop stop-color="#FFFFFF" stop-opacity="0" offset="100%"></stop>
        </linearGradient>
        <linearGradient x1="49.9708416%" y1="44.7475561%" x2="49.9708416%" y2="100%" id="linearGradient-2">
            <stop stop-color="#FFFFFF" stop-opacity="0.1478" offset="0%"></stop>
            <stop stop-color="#FFFFFF" stop-opacity="0.9" offset="100%"></stop>
        </linearGradient>
    </defs>
    <g id="页面-1" stroke="none" stroke-width="1" fill="none" fill-rule="evenodd">
        <g id="中优先级" transform="translate(-409.000000, -271.000000)">
            <g id="云存储" transform="translate(405.000000, 271.000000)">
                <rect id="矩形" x="0" y="0" width="36" height="36"></rect>
                <g id="编组" transform="translate(4.000000, 0.000000)" fill-rule="nonzero">
                    <path d="M26.5432432,0.558108108 C27.6310811,0.558108108 28.5108108,1.43783784 28.5108108,2.52567568 L28.5108108,27.7540541 C28.5108108,28.7945946 27.6594595,29.6459459 26.6094595,29.6459459 L2.02432432,29.6459459 C0.974324324,29.6459459 0.132432432,28.7945946 0.132432432,27.7540541 L0.132432432,2.52567568 C0.132432432,1.43783784 1.01216216,0.558108108 2.1,0.558108108 L26.5432432,0.558108108 Z M14.4351351,8.94864865 C12.4675676,8.94864865 10.9445946,10.5472973 10.8689189,12.5148649 C10.8689189,12.6378378 10.8216216,13.0635135 10.8216216,13.177027 L10.6702703,13.1108108 C10.4243243,13.0256757 10.1216216,12.9310811 9.65810811,12.9310811 C8.0972973,12.9310811 6.82972973,14.1891892 6.82027027,15.7594595 L6.82027027,15.7689189 C6.82027027,17.3297297 8.07837838,18.5972973 9.62972973,18.6067568 L17.9918919,18.6067568 C19.7135135,18.55 21.0945946,17.1405405 21.0945946,15.4094595 C21.0945946,13.7402027 19.8104006,12.361209 18.1750009,12.22243 L17.9918919,12.2121622 C17.8405405,10.3864865 16.3081081,8.94864865 14.4351351,8.94864865 Z" id="形状结合" fill="#FFFFFF"></path>
                    <path d="M24.9067568,29.3716216 L24.9067568,33.6567568 C24.9067568,34.1864865 24.4810811,34.6121622 23.9608108,34.6121622 L4.67297297,34.6121622 C4.1527027,34.6121622 3.72702703,34.1864865 3.72702703,33.6662162 L3.72702703,29.3716216 L24.9067568,29.3716216 Z M6.62972973,30.7243243 C6.35358735,30.7243243 6.12972973,30.9360815 6.12972973,31.1972973 L6.12972973,32.9662162 C6.12972973,33.227432 6.35358735,33.4391892 6.62972973,33.4391892 C6.9058721,33.4391892 7.12972973,33.227432 7.12972973,32.9662162 L7.12972973,31.1972973 C7.12972973,30.9360815 6.9058721,30.7243243 6.62972973,30.7243243 Z M8.73918919,30.7243243 C8.46304681,30.7243243 8.23918919,30.9360815 8.23918919,31.1972973 L8.23918919,32.9662162 C8.23918919,33.227432 8.46304681,33.4391892 8.73918919,33.4391892 C9.01533156,33.4391892 9.23918919,33.227432 9.23918919,32.9662162 L9.23918919,31.1972973 C9.23918919,30.9360815 9.01533156,30.7243243 8.73918919,30.7243243 Z M10.8391892,30.7243243 C10.5630468,30.7243243 10.3391892,30.9360815 10.3391892,31.1972973 L10.3391892,32.9662162 C10.3391892,33.227432 10.5630468,33.4391892 10.8391892,33.4391892 C11.1153316,33.4391892 11.3391892,33.227432 11.3391892,32.9662162 L11.3391892,31.1972973 C11.3391892,30.9360815 11.1153316,30.7243243 10.8391892,30.7243243 Z M13.0337838,30.7243243 C12.7576414,30.7243243 12.5337838,30.9360815 12.5337838,31.1972973 L12.5337838,32.9662162 C12.5337838,33.227432 12.7576414,33.4391892 13.0337838,33.4391892 C13.3099262,33.4391892 13.5337838,33.227432 13.5337838,32.9662162 L13.5337838,31.1972973 C13.5337838,30.9360815 13.3099262,30.7243243 13.0337838,30.7243243 Z M15.1432432,30.7243243 C14.8671009,30.7243243 14.6432432,30.9360815 14.6432432,31.1972973 L14.6432432,32.9662162 C14.6432432,33.227432 14.8671009,33.4391892 15.1432432,33.4391892 C15.4193856,33.4391892 15.6432432,33.227432 15.6432432,32.9662162 L15.6432432,31.1972973 C15.6432432,30.9360815 15.4193856,30.7243243 15.1432432,30.7243243 Z M17.2432432,30.7243243 C16.9671009,30.7243243 16.7432432,30.9360815 16.7432432,31.1972973 L16.7432432,32.9662162 C16.7432432,33.227432 16.9671009,33.4391892 17.2432432,33.4391892 C17.5193856,33.4391892 17.7432432,33.227432 17.7432432,32.9662162 L17.7432432,31.1972973 C17.7432432,30.9360815 17.5193856,30.7243243 17.2432432,30.7243243 Z M19.4756757,30.7243243 C19.1995333,30.7243243 18.9756757,30.9360815 18.9756757,31.1972973 L18.9756757,32.9662162 C18.9756757,33.227432 19.1995333,33.4391892 19.4756757,33.4391892 C19.7518181,33.4391892 19.9756757,33.227432 19.9756757,32.9662162 L19.9756757,31.1972973 C19.9756757,30.9360815 19.7518181,30.7243243 19.4756757,30.7243243 Z M21.5851351,30.7243243 C21.3089928,30.7243243 21.0851351,30.9360815 21.0851351,31.1972973 L21.0851351,32.9662162 C21.0851351,33.227432 21.3089928,33.4391892 21.5851351,33.4391892 C21.8612775,33.4391892 22.0851351,33.227432 22.0851351,32.9662162 L22.0851351,31.1972973 C22.0851351,30.9360815 21.8612775,30.7243243 21.5851351,30.7243243 Z" id="形状结合" fill="url(#linearGradient-1)"></path>
                    <path d="M17.9918919,18.6067568 L17.9918919,18.6067568 C19.7135135,18.55 21.0945946,17.1405405 21.0945946,15.4094595 C21.0945946,13.6783784 19.7135135,12.2594595 17.9918919,12.2121622 L17.9918919,12.2121622 C17.8405405,10.3864865 16.3081081,8.94864865 14.4351351,8.94864865 C12.4675676,8.94864865 10.9445946,10.5472973 10.8689189,12.5148649 C10.8689189,12.6378378 10.8216216,13.0635135 10.8216216,13.177027 L10.6702703,13.1108108 C10.4243243,13.0256757 10.1216216,12.9310811 9.65810811,12.9310811 C8.0972973,12.9310811 6.82972973,14.1891892 6.82027027,15.7594595 L6.82027027,15.7689189 C6.82027027,17.3297297 8.07837838,18.5972973 9.62972973,18.6067568 L9.65810811,18.6067568 L17.9918919,18.6067568" id="路径" fill="url(#linearGradient-2)"></path>
                </g>
            </g>
        </g>
    </g>
</svg>