<?xml version="1.0" encoding="UTF-8"?>
<svg width="29px" height="35px" viewBox="0 0 29 35" version="1.1" xmlns="http://www.w3.org/2000/svg" xmlns:xlink="http://www.w3.org/1999/xlink">
    <!-- Generator: Sketch 60.1 (88133) - https://sketch.com -->
    <title>cloud-storage</title>
    <desc>Created with Sketch.</desc>
    <g id="页面-1" stroke="none" stroke-width="1" fill="none" fill-rule="evenodd">
        <g id="中优先级" transform="translate(-403.000000, -1178.000000)">
            <g id="cloud-storage" transform="translate(399.000000, 1177.000000)">
                <rect id="矩形" x="0" y="0" width="36" height="36"></rect>
                <g id="编组" transform="translate(4.000000, 0.000000)" fill="#FFFFFF" fill-rule="nonzero">
                    <path d="M24.7542857,1.68 C26.7257143,1.68 28.32,3.27428571 28.32,5.24571429 L28.32,26.9828571 C28.3028571,28.8685714 26.7771429,30.4114286 24.8742857,30.4114286 L3.72,30.4114286 C1.81714286,30.4114286 0.291428571,28.8685714 0.291428571,26.9828571 L0.291428571,5.24571429 C0.291428571,3.27428571 1.88571429,1.68 3.85714286,1.68 L24.7542857,1.68 Z M14.4,9.97714286 C12.4457143,9.97714286 10.9542857,11.5542857 10.8685714,13.5085714 C10.8685714,13.6285714 10.8171429,14.0571429 10.8171429,14.16 L10.6628571,14.0914286 C10.4228571,14.0057143 10.1142857,13.9028571 9.65142857,13.9028571 C8.10857143,13.9028571 6.85714286,15.1542857 6.85714286,16.6971429 L6.85714286,16.7142857 C6.85714286,18.2571429 8.09142857,19.5085714 9.63428571,19.5085714 L17.9142857,19.5085714 C19.6114286,19.4571429 20.9828571,18.0685714 20.9828571,16.3542857 C20.9828571,14.7012245 19.7076385,13.3510277 18.0948285,13.2105807 L17.9142857,13.2 C17.76,11.4 16.2514286,9.97714286 14.4,9.97714286 Z" id="形状结合"></path>
                    <path d="M24.7371429,31.0628571 L24.7371429,34.2514286 C24.7542857,35.1942857 23.9828571,35.9657143 23.0228571,35.9657143 L5.53714286,35.9657143 C4.59428571,35.9657143 3.82285714,35.1942857 3.82285714,34.2514286 L3.82285714,31.0628571 L24.7371429,31.0628571 Z M6.66857143,31.9028571 C6.28986189,31.9028571 5.98285714,32.2098619 5.98285714,32.5885714 L5.98285714,32.5885714 L5.98285714,34.3371429 L5.99678842,34.4753382 C6.06072872,34.7878066 6.33720058,35.0228571 6.66857143,35.0228571 C7.04728097,35.0228571 7.35428571,34.7158524 7.35428571,34.3371429 L7.35428571,34.3371429 L7.35428571,32.5885714 L7.34035444,32.4503761 C7.27641414,32.1379076 6.99994228,31.9028571 6.66857143,31.9028571 Z M8.74285714,31.9028571 C8.3641476,31.9028571 8.05714286,32.2098619 8.05714286,32.5885714 L8.05714286,32.5885714 L8.05714286,34.3371429 L8.07107413,34.4753382 C8.13501443,34.7878066 8.41148629,35.0228571 8.74285714,35.0228571 C9.12156669,35.0228571 9.42857143,34.7158524 9.42857143,34.3371429 L9.42857143,34.3371429 L9.42857143,32.5885714 L9.41464015,32.4503761 C9.35069986,32.1379076 9.07422799,31.9028571 8.74285714,31.9028571 Z M10.8342857,31.9028571 C10.4555762,31.9028571 10.1485714,32.2098619 10.1485714,32.5885714 L10.1485714,32.5885714 L10.1485714,34.3371429 L10.1625027,34.4753382 C10.226443,34.7878066 10.5029149,35.0228571 10.8342857,35.0228571 C11.2129953,35.0228571 11.52,34.7158524 11.52,34.3371429 L11.52,34.3371429 L11.52,32.5885714 L11.5060687,32.4503761 C11.4421284,32.1379076 11.1656566,31.9028571 10.8342857,31.9028571 Z M12.9942857,31.9028571 C12.6155762,31.9028571 12.3085714,32.2098619 12.3085714,32.5885714 L12.3085714,32.5885714 L12.3085714,34.3371429 L12.3225027,34.4753382 C12.386443,34.7878066 12.6629149,35.0228571 12.9942857,35.0228571 C13.3729953,35.0228571 13.68,34.7158524 13.68,34.3371429 L13.68,34.3371429 L13.68,32.5885714 L13.6660687,32.4503761 C13.6021284,32.1379076 13.3256566,31.9028571 12.9942857,31.9028571 Z M15.0857143,31.9028571 C14.7070047,31.9028571 14.4,32.2098619 14.4,32.5885714 L14.4,32.5885714 L14.4,34.3371429 L14.4139313,34.4753382 C14.4778716,34.7878066 14.7543434,35.0228571 15.0857143,35.0228571 C15.4644238,35.0228571 15.7714286,34.7158524 15.7714286,34.3371429 L15.7714286,34.3371429 L15.7714286,32.5885714 L15.7574973,32.4503761 C15.693557,32.1379076 15.4170851,31.9028571 15.0857143,31.9028571 Z M17.16,31.9028571 C16.7812905,31.9028571 16.4742857,32.2098619 16.4742857,32.5885714 L16.4742857,32.5885714 L16.4742857,34.3371429 L16.488217,34.4753382 C16.5521573,34.7878066 16.8286292,35.0228571 17.16,35.0228571 C17.5387095,35.0228571 17.8457143,34.7158524 17.8457143,34.3371429 L17.8457143,34.3371429 L17.8457143,32.5885714 L17.831783,32.4503761 C17.7678427,32.1379076 17.4913708,31.9028571 17.16,31.9028571 Z M19.3542857,31.9028571 C18.9755762,31.9028571 18.6685714,32.2098619 18.6685714,32.5885714 L18.6685714,32.5885714 L18.6685714,34.3371429 L18.6825027,34.4753382 C18.746443,34.7878066 19.0229149,35.0228571 19.3542857,35.0228571 C19.7329953,35.0228571 20.04,34.7158524 20.04,34.3371429 L20.04,34.3371429 L20.04,32.5885714 L20.0260687,32.4503761 C19.9621284,32.1379076 19.6856566,31.9028571 19.3542857,31.9028571 Z M21.4457143,31.9028571 C21.0670047,31.9028571 20.76,32.2098619 20.76,32.5885714 L20.76,32.5885714 L20.76,34.3371429 L20.7739313,34.4753382 C20.8378716,34.7878066 21.1143434,35.0228571 21.4457143,35.0228571 C21.8244238,35.0228571 22.1314286,34.7158524 22.1314286,34.3371429 L22.1314286,34.3371429 L22.1314286,32.5885714 L22.1174973,32.4503761 C22.053557,32.1379076 21.7770851,31.9028571 21.4457143,31.9028571 Z" id="形状结合"></path>
                </g>
            </g>
        </g>
    </g>
</svg>