<?xml version="1.0" encoding="UTF-8"?>
<svg width="37px" height="36px" viewBox="0 0 37 36" version="1.1" xmlns="http://www.w3.org/2000/svg" xmlns:xlink="http://www.w3.org/1999/xlink">
    <!-- Generator: Sketch 60.1 (88133) - https://sketch.com -->
    <title>cloud-private-line</title>
    <desc>Created with Sketch.</desc>
    <g id="页面-1" stroke="none" stroke-width="1" fill="none" fill-rule="evenodd">
        <g id="中优先级" transform="translate(-1022.000000, -1178.000000)">
            <g id="cloud-private-line" transform="translate(1022.000000, 1177.000000)">
                <polygon id="矩形备份-7" points="0.29 0.59 36.29 0.59 36.29 36.59 24.774679 36.59 0.29 36.59"></polygon>
                <g id="编组" transform="translate(1.000000, 2.000000)">
                    <path d="M8.68571429,23.4342857 L6.98857143,23.4342857 L6.93714286,23.4342857 C3.2,23.4 0.2,20.3657143 0.2,16.6285714 C0.2,16.6114286 0.2,16.6114286 0.2,16.5942857 M27.0285714,23.4342857 L25.2971429,23.4342857 M27.0285714,23.4342857 L27.0457143,23.4342857 C31.1771429,23.2971429 34.4685714,19.92 34.4685714,15.7542857 C34.4685714,11.5885714 31.16,8.19428571 27.0285714,8.09142857 L27.0114286,8.09142857 C26.6342857,3.70285714 22.9657143,0.257142857 18.4742857,0.257142857 C13.7428571,0.257142857 10.0914286,4.09714286 9.90285714,8.82857143 C9.88571429,9.12 9.8,10.1485714 9.78285714,10.4228571 L9.42285714,10.2685714 C8.84,10.0628571 8.10285714,9.82285714 6.98857143,9.82285714 C3.23428571,9.82285714 0.2,12.8571429 0.182857143,16.6114286 L0.182857143,16.6457143" id="形状" stroke="#FFFFFF" stroke-width="2" stroke-linecap="round"></path>
                    <path d="M21.7142857,26.52 C21.7142857,27.7371429 20.7371429,28.7142857 19.52,28.7142857 C18.3028571,28.7142857 17.3257143,27.7371429 17.3257143,26.52" id="路径" stroke="#FFFFFF" stroke-width="2" stroke-linecap="round"></path>
                    <path d="M12.9371429,20.3485714 C12.9371429,19.1314286 13.9142857,18.1542857 15.1314286,18.1542857 C16.3485714,18.1542857 17.3257143,19.1314286 17.3257143,20.3485714" id="路径" stroke="#FFFFFF" stroke-width="2" stroke-linecap="round"></path>
                    <line x1="17.3257143" y1="20.3485714" x2="17.3257143" y2="26.52" id="路径" stroke="#FFFFFF" stroke-width="2" stroke-linecap="round"></line>
                    <line x1="21.7142857" y1="14.1771429" x2="21.7142857" y2="26.52" id="路径" stroke="#FFFFFF" stroke-width="2" stroke-linecap="round"></line>
                    <circle id="椭圆形" fill="#FFFFFF" fill-rule="nonzero" cx="13" cy="33" r="2"></circle>
                    <circle id="椭圆形" fill="#FFFFFF" fill-rule="nonzero" cx="21.8" cy="15" r="2"></circle>
                    <line x1="12.9371429" y1="20.3485714" x2="12.9371429" y2="32.7085714" id="路径" stroke="#FFFFFF" stroke-width="2" stroke-linecap="round"></line>
                </g>
            </g>
        </g>
    </g>
</svg>