<?xml version="1.0" encoding="UTF-8"?>
<svg width="34px" height="35px" viewBox="0 0 34 35" version="1.1" xmlns="http://www.w3.org/2000/svg" xmlns:xlink="http://www.w3.org/1999/xlink">
    <!-- Generator: Sketch 60.1 (88133) - https://sketch.com -->
    <title>cloud-host</title>
    <desc>Created with Sketch.</desc>
    <g id="页面-1" stroke="none" stroke-width="1" fill="none" fill-rule="evenodd">
        <g id="高优先级" transform="translate(-1096.000000, -1150.000000)">
            <g id="cloud-host" transform="translate(1095.000000, 1150.000000)">
                <g id="云主机">
                    <rect id="矩形备份-6" x="0" y="0" width="36" height="36"></rect>
                    <g id="编组" transform="translate(1.000000, 0.000000)" fill="#FFFFFF" fill-rule="nonzero">
                        <path d="M19.2718692,23.7588099 L32.1085714,23.76 C32.8285714,23.76 33.4114286,24.3428571 33.4114286,25.0628571 L33.4114286,32.9142857 C33.4114286,33.6342857 32.8285714,34.2171429 32.1085714,34.2171429 L20.4883886,34.2177053 C21.6135434,33.1052167 22.338904,31.5224988 22.4160269,29.7635928 L22.4228571,29.4514286 L22.4145894,29.1080514 C22.3027197,26.7900999 21.0649312,24.7818934 19.2718692,23.7588099 Z M30.8914286,27.48 L26.4857143,27.48 C26.16,27.48 25.8857143,27.7542857 25.8857143,28.08 L25.8857143,28.08 L25.8857143,29.3657143 C25.8857143,29.6914286 26.16,29.9657143 26.4857143,29.9657143 L26.4857143,29.9657143 L30.8914286,29.9657143 C31.2171429,29.9657143 31.4914286,29.6914286 31.4914286,29.3657143 L31.4914286,29.3657143 L31.4914286,28.08 C31.4914286,27.7542857 31.2171429,27.48 30.8914286,27.48 L30.8914286,27.48 Z M23.9657143,27.8742857 C23.4923274,27.8742857 23.1085714,28.2580416 23.1085714,28.7314286 C23.1085714,29.2048155 23.4923274,29.5885714 23.9657143,29.5885714 C24.4391012,29.5885714 24.8228571,29.2048155 24.8228571,28.7314286 C24.8228571,28.2580416 24.4391012,27.8742857 23.9657143,27.8742857 Z" id="形状结合"></path>
                        <path d="M32.1085714,0.737142857 C32.8285714,0.737142857 33.4114286,1.32 33.4114286,2.04 L33.4114286,9.89142857 C33.4114286,10.5942857 32.8285714,11.1942857 32.1085714,11.1942857 L10.2685714,11.1942857 C9.54857143,11.1942857 8.96571429,10.6114286 8.96571429,9.89142857 L8.96571429,2.04 C8.96571429,1.32 9.54857143,0.737142857 10.2685714,0.737142857 L32.1085714,0.737142857 Z M30.8914286,4.69714286 L26.5028571,4.69714286 C26.2097143,4.69714286 25.9582286,4.91931429 25.9108629,5.20119429 L25.9028571,5.29714286 L25.9028571,6.58285714 C25.9028571,6.876 26.1250286,7.12748571 26.4069086,7.17485143 L26.5028571,7.18285714 L30.8914286,7.18285714 C31.2,7.18285714 31.4391429,6.97457143 31.4838857,6.68297143 L31.4914286,6.58285714 L31.4914286,5.29714286 C31.4914286,4.97142857 31.2171429,4.69714286 30.8914286,4.69714286 Z M23.9828571,5.09142857 C23.5094702,5.09142857 23.1257143,5.4751845 23.1257143,5.94857143 C23.1257143,6.42195836 23.5094702,6.80571429 23.9828571,6.80571429 C24.4562441,6.80571429 24.84,6.42195836 24.84,5.94857143 C24.84,5.4751845 24.4562441,5.09142857 23.9828571,5.09142857 Z" id="形状结合"></path>
                        <path d="M32.2457143,12.1714286 C32.9657143,12.1714286 33.5485714,12.7542857 33.5485714,13.4742857 L33.5485714,21.3257143 C33.5485714,22.0457143 32.9657143,22.6285714 32.2457143,22.6285714 L17.3817829,22.6288906 C16.6795144,19.6812497 14.2910922,17.4902941 11.408281,17.3708487 L11.16,17.3657143 L10.8308487,17.3747784 C10.2261147,17.408198 9.6466169,17.5333025 9.10194875,17.7379815 L9.10285714,13.4742857 C9.10285714,12.7542857 9.68571429,12.1714286 10.4057143,12.1714286 L32.2457143,12.1714286 Z M30.8914286,16.1657143 L26.5028571,16.1657143 C26.1771429,16.1657143 25.9028571,16.44 25.9028571,16.7657143 L25.9028571,16.7657143 L25.9028571,18.0514286 C25.9028571,18.3771429 26.1771429,18.6514286 26.5028571,18.6514286 L26.5028571,18.6514286 L30.8914286,18.6514286 C31.2342857,18.6514286 31.4914286,18.36 31.4914286,18.0514286 L31.4914286,18.0514286 L31.4914286,16.7657143 C31.4914286,16.44 31.2171429,16.1657143 30.8914286,16.1657143 L30.8914286,16.1657143 Z M23.9828571,16.56 C23.5094702,16.56 23.1257143,16.9437559 23.1257143,17.4171429 C23.1257143,17.8905298 23.5094702,18.2742857 23.9828571,18.2742857 C24.4562441,18.2742857 24.84,17.8905298 24.84,17.4171429 C24.84,16.9437559 24.4562441,16.56 23.9828571,16.56 Z" id="形状结合"></path>
                        <path d="M16.096629,34.3371033 L4.07949929,34.3371033 L4.04787526,34.3371033 C1.80256945,34.3212913 2.27373675e-13,32.2657297 2.27373675e-13,29.7674316 L2.27373675e-13,29.7832437 M16.096629,34.3371033 C18.579115,34.2580433 20.5714286,31.9969254 20.5714286,29.2140112 C20.5714286,26.431097 18.579115,24.1699791 16.096629,24.0909191 C15.8752608,21.1656967 13.677391,18.8571429 10.9735368,18.8571429 C8.12737455,18.8571429 5.94531679,21.4186889 5.8346327,24.5810915 C5.8346327,24.7708356 5.77138465,25.4507522 5.77138465,25.6563083 L5.55001647,25.5456242 C5.20215219,25.4033161 4.75941583,25.245196 4.07949929,25.245196 C1.83419348,25.245196 0,27.2691336 0,29.7674316 L0,29.7832437" id="形状"></path>
                    </g>
                </g>
            </g>
        </g>
    </g>
</svg>