<?xml version="1.0" encoding="UTF-8"?>
<svg width="36px" height="34px" viewBox="0 0 36 34" version="1.1" xmlns="http://www.w3.org/2000/svg" xmlns:xlink="http://www.w3.org/1999/xlink">
    <!-- Generator: Sketch 60.1 (88133) - https://sketch.com -->
    <title>cluster</title>
    <desc>Created with Sketch.</desc>
    <g id="页面-1" stroke="none" stroke-width="1" fill="none" fill-rule="evenodd">
        <g id="模型图标库" transform="translate(-846.000000, -1194.000000)">
            <g id="cluster" transform="translate(846.000000, 1193.000000)">
                <rect id="矩形" x="0" y="0" width="36" height="36"></rect>
                <path d="M17.5,1.15 C17.8,0.95 18.2,0.95 18.5,1.15 L18.5,1.15 L25.4,5.05 C25.7,5.25 25.9,5.55 25.9,5.95 L25.9,5.95 L25.9,13.85 C25.9,14.25 25.7,14.55 25.4,14.75 L25.4,14.75 L18.5,18.65 C18.2,18.85 17.8,18.85 17.5,18.65 L17.5,18.65 L10.6,14.75 C10.3,14.55 10.1,14.25 10.1,13.85 L10.1,13.85 L10.1,5.95 C10.1,5.55 10.3,5.25 10.6,5.05 L10.6,5.05 Z M11.4,7.35 C11.3,7.45 11.3,7.65 11.3,7.85 L11.3,13.75 C11.3,14.05 11.5,14.45 11.8,14.55 L17,17.45 C17.5,17.75 18.1,17.55 18.3,17.05 C18.4,16.95 18.4,16.75 18.4,16.55 L18.4,10.65 C18.4,10.35 18.2,9.95 17.9,9.85 L12.7,6.95 C12.2,6.65 11.6,6.85 11.4,7.35 Z" id="形状结合" fill="#FFFFFF" fill-rule="nonzero"></path>
                <path d="M7.7,17.05 C8,16.85 8.4,16.85 8.7,17.05 L8.7,17.05 L15.6,20.95 C15.9,21.15 16.1,21.45 16.1,21.85 L16.1,21.85 L16.1,29.75 C16.1,30.15 15.9,30.45 15.6,30.65 L15.6,30.65 L8.7,34.55 C8.4,34.75 8,34.75 7.7,34.55 L7.7,34.55 L0.8,30.65 C0.5,30.45 0.3,30.15 0.3,29.75 L0.3,29.75 L0.3,21.85 C0.3,21.45 0.5,21.15 0.8,20.95 L0.8,20.95 Z M1.6,23.05 C1.5,23.15 1.5,23.35 1.5,23.55 L1.5,29.45 C1.5,29.75 1.7,30.15 2,30.25 L7.2,33.15 C7.7,33.45 8.3,33.25 8.5,32.75 C8.6,32.65 8.6,32.45 8.6,32.25 L8.6,26.35 C8.6,26.05 8.4,25.65 8.1,25.55 L2.9,22.65 C2.4,22.35 1.8,22.55 1.6,23.05 Z" id="形状结合" fill="#FFFFFF" fill-rule="nonzero"></path>
                <path d="M27.3,17.05 C27.6,16.85 28,16.85 28.3,17.05 L28.3,17.05 L35.2,20.95 C35.5,21.15 35.7,21.45 35.7,21.85 L35.7,21.85 L35.7,29.75 C35.7,30.15 35.5,30.45 35.2,30.65 L35.2,30.65 L28.3,34.55 C28,34.75 27.6,34.75 27.3,34.55 L27.3,34.55 L20.4,30.65 C20.1,30.45 19.9,30.15 19.9,29.75 L19.9,29.75 L19.9,21.85 C19.9,21.45 20.1,21.15 20.4,20.95 L20.4,20.95 Z M21.2,23.05 C21.1,23.15 21.1,23.35 21.1,23.55 L21.1,29.45 C21.1,29.75 21.3,30.15 21.6,30.25 L26.8,33.15 C27.3,33.45 27.9,33.25 28.1,32.75 C28.2,32.65 28.2,32.45 28.2,32.25 L28.2,26.35 C28.2,26.05 28,25.65 27.7,25.55 L22.5,22.65 C22,22.35 21.4,22.55 21.2,23.05 Z" id="形状结合" fill="#FFFFFF" fill-rule="nonzero"></path>
            </g>
        </g>
    </g>
</svg>