<?xml version="1.0" encoding="UTF-8"?>
<svg width="36px" height="34px" viewBox="0 0 36 34" version="1.1" xmlns="http://www.w3.org/2000/svg" xmlns:xlink="http://www.w3.org/1999/xlink">
    <!-- Generator: Sketch 60.1 (88133) - https://sketch.com -->
    <title>config-package</title>
    <desc>Created with Sketch.</desc>
    <g id="页面-1" stroke="none" stroke-width="1" fill="none" fill-rule="evenodd">
        <g id="模型图标库" transform="translate(-961.000000, -1187.000000)">
            <g id="config-package" transform="translate(961.000000, 1186.000000)">
                <rect id="矩形" x="0" y="0" width="36" height="36"></rect>
                <path d="M21.6256906,1.83715287 C21.8190608,1.24762653 22.4958564,0.854608968 23.0759669,1.05111775 C25.589779,1.93540726 27.910221,3.21271433 29.8439227,5.07954773 C30.3273481,5.47256529 30.3273481,6.25860041 29.9406077,6.74987236 C29.2638122,7.63416187 29.070442,8.61670577 29.1671271,9.69750406 C29.4571823,11.8591006 31.4875691,13.4311709 33.6146409,13.1364077 C34.2914365,13.0381533 34.871547,13.4311709 35.0649171,14.0206972 C35.6450276,16.6735657 35.6450276,19.3264343 35.0649171,21.9793028 C34.871547,22.5688291 34.2914365,22.9618467 33.6146409,22.8635923 C32.0676796,22.6670835 30.5207182,23.4531186 29.7472376,24.8286801 C28.9737569,26.2042416 29.070442,27.9728206 29.9406077,29.2501276 C30.3273481,29.7413996 30.3273481,30.4291803 29.8439227,30.9204523 C27.910221,32.7872857 25.589779,34.1628471 23.0759669,34.9488823 C22.4958564,35.145391 21.8190608,34.7523735 21.6256906,34.1628471 C21.2389503,33.1803032 20.4654696,32.3942681 19.4986188,32.0012506 C17.468232,31.2152154 15.2444751,32.0995049 14.3743094,34.1628471 C14.1809392,34.7523735 13.5041436,35.145391 12.9240331,34.9488823 C10.410221,34.0645927 8.08977901,32.7872857 6.15607735,30.9204523 C5.67265193,30.5274347 5.67265193,29.7413996 6.05939227,29.2501276 C6.73618785,28.3658381 6.92955801,27.3832942 6.83287293,26.3024959 C6.54281768,24.1408994 4.51243094,22.5688291 2.38535912,22.8635923 C1.70856354,22.9618467 1.12845304,22.5688291 0.935082873,21.9793028 C0.354972376,19.3264343 0.354972376,16.6735657 0.935082873,14.0206972 C1.12845304,13.4311709 1.70856354,13.0381533 2.38535912,13.1364077 C3.44889503,13.2346621 4.41574586,12.9398989 5.2859116,12.3503726 C7.02624309,10.9748111 7.41298343,8.51845138 6.05939227,6.74987236 C5.67265193,6.25860041 5.67265193,5.57081968 6.15607735,5.07954773 C8.08977901,3.21271433 10.410221,1.83715287 12.9240331,1.05111775 C13.5041436,0.854608968 14.1809392,1.24762653 14.3743094,1.83715287 C14.7610497,2.81969677 15.5345304,3.60573188 16.5013812,3.99874944 C18.531768,4.78478456 20.7555249,3.90049505 21.6256906,1.83715287 Z M12.9471,15.4703933 C11.614429,18.2918553 12.8275244,21.7788766 15.6074809,23.1349142 C18.3838789,24.489216 21.8152059,23.2564307 23.1495851,20.4313523 C24.4723963,17.5189423 23.2808969,14.1285938 20.4892042,12.7668314 C17.7128062,11.4125296 14.2814791,12.6453149 12.9471,15.4703933 Z M19.8616246,14.0955104 C21.9375256,15.1081161 22.824185,17.6310583 21.8374604,19.8036621 C20.8538064,21.8860088 18.28823,22.8077527 16.2350605,21.8062353 C14.176058,20.8018725 13.2690361,18.194654 14.2545575,16.1081592 C15.2428786,14.0157368 17.808455,13.0939929 19.8616246,14.0955104 Z" id="形状结合" fill="#FFFFFF" fill-rule="nonzero"></path>
            </g>
        </g>
    </g>
</svg>