<?xml version="1.0" encoding="UTF-8"?>
<svg width="36px" height="36px" viewBox="0 0 36 36" version="1.1" xmlns="http://www.w3.org/2000/svg" xmlns:xlink="http://www.w3.org/1999/xlink">
    <!-- Generator: Sketch 59.1 (86144) - https://sketch.com -->
    <title>核心交换机</title>
    <desc>Created with Sketch.</desc>
    <defs>
        <linearGradient x1="49.994882%" y1="-0.00656877898%" x2="49.994882%" y2="100.006569%" id="linearGradient-1">
            <stop stop-color="#FFFFFF" stop-opacity="0.1" offset="0%"></stop>
            <stop stop-color="#FFFFFF" stop-opacity="0.6" offset="12.42%"></stop>
            <stop stop-color="#FFFFFF" offset="100%"></stop>
        </linearGradient>
    </defs>
    <g id="页面-1" stroke="none" stroke-width="1" fill="none" fill-rule="evenodd">
        <g id="中优先级" transform="translate(-613.000000, -271.000000)">
            <g id="核心交换机" transform="translate(613.000000, 271.000000)">
                <rect id="矩形" x="0" y="0" width="36" height="36"></rect>
                <g id="编组" fill-rule="nonzero">
                    <path d="M34,25.4117647 C35.1,25.4117647 36,26.2633654 36,27.3042107 L36,34.107554 C36,35.1483993 35.11,36 34,36 L2,36 C0.9,36 5.68434189e-14,35.1483993 5.68434189e-14,34.107554 L5.68434189e-14,27.3042107 C5.68434189e-14,26.2633654 0.9,25.4117647 2,25.4117647 L34,25.4117647 Z M13.77,31.4959786 L10.23,31.4959786 C9.95,31.4959786 9.73,31.7041476 9.73,31.96909 L9.73,31.96909 L9.73,32.7355307 C9.73,33.0004731 9.95,33.2086422 10.23,33.2086422 L10.23,33.2086422 L13.77,33.2086422 C14.05,33.2086422 14.27,32.9910109 14.27,32.7355307 L14.27,32.7355307 L14.27,31.96909 C14.27,31.7041476 14.05,31.4959786 13.77,31.4959786 L13.77,31.4959786 Z M20.11,31.4959786 L16.57,31.4959786 C16.29,31.4959786 16.07,31.7041476 16.07,31.96909 L16.07,31.96909 L16.07,32.7355307 C16.07,33.0004731 16.29,33.2086422 16.57,33.2086422 L16.57,33.2086422 L20.11,33.2086422 C20.39,33.2086422 20.61,32.9910109 20.61,32.7355307 L20.61,32.7355307 L20.61,31.96909 C20.61,31.7041476 20.39,31.4959786 20.11,31.4959786 L20.11,31.4959786 Z M26.68,31.4959786 L23.14,31.4959786 C22.86,31.4959786 22.64,31.7041476 22.64,31.96909 L22.64,31.96909 L22.64,32.7355307 C22.64,33.0004731 22.86,33.2086422 23.14,33.2086422 L23.14,33.2086422 L26.68,33.2086422 C26.96,33.2086422 27.18,32.9910109 27.18,32.7355307 L27.18,32.7355307 L27.18,31.96909 C27.18,31.7041476 26.96,31.4959786 26.68,31.4959786 L26.68,31.4959786 Z M33.25,31.4959786 L29.71,31.4959786 C29.43,31.4959786 29.21,31.7041476 29.21,31.96909 L29.21,31.96909 L29.21,32.7355307 C29.21,33.0004731 29.43,33.2086422 29.71,33.2086422 L29.71,33.2086422 L33.25,33.2086422 C33.52,33.2086422 33.74,32.9910109 33.75,32.7355307 L33.75,32.7355307 L33.75,31.96909 C33.75,31.7041476 33.53,31.4959786 33.25,31.4959786 L33.25,31.4959786 Z M4.89,29.3669768 C4.1112785,29.3669768 3.48,29.9643071 3.48,30.7011512 C3.48,31.4379954 4.1112785,32.0353257 4.89,32.0353257 C5.6687215,32.0353257 6.3,31.4379954 6.3,30.7011512 C6.3,29.9643071 5.6687215,29.3669768 4.89,29.3669768 Z M13.77,28.1936603 L10.23,28.1936603 C9.95,28.1936603 9.73,28.4018294 9.73,28.6667718 L9.73,28.6667718 L9.73,29.4332124 C9.73,29.6981549 9.95,29.9063239 10.23,29.9063239 L10.23,29.9063239 L13.77,29.9063239 C14.05,29.9063239 14.27,29.6981549 14.27,29.4332124 L14.27,29.4332124 L14.27,28.6667718 C14.27,28.4018294 14.05,28.1936603 13.77,28.1936603 L13.77,28.1936603 Z M20.11,28.1936603 L16.57,28.1936603 C16.29,28.1936603 16.07,28.4018294 16.07,28.6667718 L16.07,28.6667718 L16.07,29.4332124 C16.07,29.6981549 16.29,29.9063239 16.57,29.9063239 L16.57,29.9063239 L20.11,29.9063239 C20.39,29.9063239 20.61,29.6981549 20.61,29.4332124 L20.61,29.4332124 L20.61,28.6667718 C20.61,28.4018294 20.39,28.1936603 20.11,28.1936603 L20.11,28.1936603 Z M26.68,28.1936603 L23.14,28.1936603 C22.86,28.1936603 22.64,28.4018294 22.64,28.6667718 L22.64,28.6667718 L22.64,29.4332124 C22.64,29.6981549 22.86,29.9063239 23.14,29.9063239 L23.14,29.9063239 L26.68,29.9063239 C26.96,29.9063239 27.18,29.6981549 27.18,29.4332124 L27.18,29.4332124 L27.18,28.6667718 C27.18,28.4018294 26.96,28.1936603 26.68,28.1936603 L26.68,28.1936603 Z M33.25,28.1936603 L29.71,28.1936603 C29.43,28.1936603 29.21,28.4018294 29.21,28.6667718 L29.21,28.6667718 L29.21,29.4332124 C29.21,29.6981549 29.43,29.9063239 29.71,29.9063239 L29.71,29.9063239 L33.25,29.9063239 C33.52,29.9063239 33.74,29.6981549 33.75,29.4332124 L33.75,29.4332124 L33.75,28.6667718 C33.75,28.4018294 33.53,28.1936603 33.25,28.1936603 L33.25,28.1936603 Z" id="形状结合" fill="#FFFFFF"></path>
                    <path d="M28.5598692,-1.77635684e-15 C29.505036,-1.77635684e-15 30.3282458,0.675061369 30.5416705,1.63651241 L36,26.4705882 L-2.13162821e-14,26.4705882 L5.57097315,1.63651241 C5.77423483,0.685289572 6.59744464,-1.77635684e-15 7.55277453,-1.77635684e-15 L28.5598692,-1.77635684e-15 Z M23.945829,5.01181926 L23.945829,6.71992908 L20.7241314,6.71992908 C20.317608,6.71992908 19.9415739,6.94494954 19.7484753,7.29270843 L18.336,9.846 L16.8723226,7.29270843 C16.6690609,6.94494954 16.3031899,6.73015729 15.9068296,6.73015729 L12.4717072,6.73015729 L12.4717072,5.02204746 L9.72767451,8.01891081 L12.4717072,11.0157742 L12.4717072,8.99059005 L15.2563922,8.99059005 L17.064,12.145 L15.4494908,15.0661424 L10.1341979,15.0661424 C9.51424975,15.0661424 9.01625863,15.5673243 9.01625863,16.1912447 C9.01625863,16.815165 9.51424975,17.3163469 10.1341979,17.3163469 L16.0999282,17.3163469 C16.5064515,17.3163469 16.8824856,17.0913265 17.0755842,16.7435676 L18.364,14.413 L19.7179861,16.7742522 C19.9212478,17.1220111 20.2871188,17.3368033 20.6834791,17.3368033 L25.9886089,17.3368033 C26.608557,17.3368033 27.1065482,16.8356214 27.1065482,16.2117011 C27.1065482,15.5877807 26.608557,15.0763706 25.9886089,15.0763706 L21.3339164,15.0763706 L19.635,12.114 L21.3745688,8.97013365 L23.9356659,8.97013365 L23.9356659,10.9953178 L26.6898617,8.00868261 L23.945829,5.01181926 Z" id="形状结合" fill="url(#linearGradient-1)"></path>
                </g>
            </g>
        </g>
    </g>
</svg>