<?xml version="1.0" encoding="UTF-8"?>
<svg width="36px" height="36px" viewBox="0 0 36 36" version="1.1" xmlns="http://www.w3.org/2000/svg" xmlns:xlink="http://www.w3.org/1999/xlink">
    <!-- Generator: Sketch 60.1 (88133) - https://sketch.com -->
    <title>core-switch</title>
    <desc>Created with Sketch.</desc>
    <g id="页面-1" stroke="none" stroke-width="1" fill="none" fill-rule="evenodd">
        <g id="中优先级" transform="translate(-614.000000, -1177.000000)">
            <g id="core-switch" transform="translate(614.000000, 1177.000000)">
                <path d="M28.404,8.8817842e-15 C29.34,8.8817842e-15 30.15,0.666 30.348,1.602 L35.2195208,23.8018164 C34.3979881,23.2960882 33.4319985,23.004 32.4,23.004 L3.6,23.004 C2.65242909,23.004 1.76050848,23.2502517 0.984964993,23.6820284 L5.796,1.602 C5.994,0.666 6.804,8.8817842e-15 7.74,8.8817842e-15 L28.404,8.8817842e-15 Z M23.868,4.896 L23.868,6.57 L20.7,6.57 C20.304,6.57 19.926,6.786 19.746,7.128 L18.348342,9.637 L16.902,7.128 C16.704,6.786 16.344,6.57 15.948,6.57 L12.564,6.57 L12.564,4.896 L9.864,7.83 L12.564,10.764 L12.564,8.784 L15.3,8.784 L17.092342,11.892 L15.516,14.724 L10.296,14.724 C9.684,14.724 9.198,15.21 9.198,15.822 C9.198,16.434 9.684,16.92 10.296,16.92 L16.164,16.92 C16.56,16.92 16.938,16.704 17.118,16.362 L18.371342,14.109 L19.692,16.398 C19.89,16.74 20.25,16.956 20.646,16.956 L25.866,16.956 C26.478,16.956 26.964,16.47 26.964,15.858 C26.964,15.246 26.496,14.742 25.884,14.742 L21.294,14.742 L19.627342,11.854 L21.348,8.766 L23.868,8.766 L23.868,10.746 L26.568,7.83 L23.868,4.896 Z" id="形状结合" fill="#FFFFFF" fill-rule="nonzero"></path>
                <path d="M32.4,24.804 C34.38,24.804 36,26.424 36,28.404 L36,32.4 C36,34.38 34.38,36 32.4,36 L3.6,36 C1.62,36 0,34.38 0,32.4 L0,28.404 C0,26.424 1.62,24.804 3.6,24.804 L32.4,24.804 Z M13.374,31.248 L10.638,31.248 C10.134,31.248 9.738,31.644 9.738,32.148 L9.738,32.148 L9.7448985,32.2622594 C9.79956213,32.7105799 10.1727692,33.048 10.638,33.048 L10.638,33.048 L13.374,33.048 C13.86,33.048 14.274,32.652 14.274,32.148 L14.274,32.148 L14.2671015,32.0337406 C14.2124379,31.5854201 13.8392308,31.248 13.374,31.248 L13.374,31.248 Z M19.71,31.248 L16.974,31.248 C16.47,31.248 16.074,31.644 16.074,32.148 L16.074,32.148 L16.0808985,32.2622594 C16.1355621,32.7105799 16.5087692,33.048 16.974,33.048 L16.974,33.048 L19.71,33.048 C20.196,33.048 20.61,32.652 20.61,32.148 L20.61,32.148 L20.6031015,32.0337406 C20.5484379,31.5854201 20.1752308,31.248 19.71,31.248 L19.71,31.248 Z M26.28,31.248 L23.544,31.248 C23.04,31.248 22.644,31.644 22.644,32.148 L22.644,32.148 L22.6508985,32.2622594 C22.7055621,32.7105799 23.0787692,33.048 23.544,33.048 L23.544,33.048 L26.28,33.048 C26.766,33.048 27.18,32.652 27.18,32.148 L27.18,32.148 L27.1731015,32.0337406 C27.1184379,31.5854201 26.7452308,31.248 26.28,31.248 L26.28,31.248 Z M32.832,31.248 L30.096,31.248 C29.592,31.248 29.196,31.644 29.196,32.148 L29.196,32.148 L29.2028985,32.2622594 C29.2575621,32.7105799 29.6307692,33.048 30.096,33.048 L30.096,33.048 L32.832,33.048 C33.336,33.048 33.732,32.652 33.732,32.148 L33.732,32.148 L33.7251015,32.0337406 C33.6704379,31.5854201 33.2972308,31.248 32.832,31.248 L32.832,31.248 Z M4.878,28.998 C4.10259221,28.998 3.474,29.6265922 3.474,30.402 C3.474,31.1774078 4.10259221,31.806 4.878,31.806 C5.65340779,31.806 6.282,31.1774078 6.282,30.402 C6.282,29.6265922 5.65340779,28.998 4.878,28.998 Z M13.374,27.756 L10.638,27.756 C10.134,27.756 9.738,28.152 9.738,28.656 L9.738,28.656 L9.7448985,28.7702594 C9.79956213,29.2185799 10.1727692,29.556 10.638,29.556 L10.638,29.556 L13.374,29.556 C13.86,29.556 14.274,29.16 14.274,28.656 L14.274,28.656 L14.2671015,28.5417406 C14.2124379,28.0934201 13.8392308,27.756 13.374,27.756 L13.374,27.756 Z M19.71,27.756 L16.974,27.756 C16.47,27.756 16.074,28.152 16.074,28.656 L16.074,28.656 L16.0808985,28.7702594 C16.1355621,29.2185799 16.5087692,29.556 16.974,29.556 L16.974,29.556 L19.71,29.556 C20.196,29.556 20.61,29.16 20.61,28.656 L20.61,28.656 L20.6031015,28.5417406 C20.5484379,28.0934201 20.1752308,27.756 19.71,27.756 L19.71,27.756 Z M26.28,27.756 L23.544,27.756 C23.04,27.756 22.644,28.152 22.644,28.656 L22.644,28.656 L22.6508985,28.7702594 C22.7055621,29.2185799 23.0787692,29.556 23.544,29.556 L23.544,29.556 L26.28,29.556 C26.766,29.556 27.18,29.16 27.18,28.656 L27.18,28.656 L27.1731015,28.5417406 C27.1184379,28.0934201 26.7452308,27.756 26.28,27.756 L26.28,27.756 Z M32.832,27.756 L30.096,27.756 C29.592,27.756 29.196,28.152 29.196,28.656 L29.196,28.656 L29.2028985,28.7702594 C29.2575621,29.2185799 29.6307692,29.556 30.096,29.556 L30.096,29.556 L32.832,29.556 C33.336,29.556 33.732,29.16 33.732,28.656 L33.732,28.656 L33.7251015,28.5417406 C33.6704379,28.0934201 33.2972308,27.756 32.832,27.756 L32.832,27.756 Z" id="形状结合" fill="#FFFFFF" fill-rule="nonzero"></path>
                <g id="核心交换机备份">
                    <rect id="矩形" x="0" y="0" width="36" height="36"></rect>
                </g>
            </g>
        </g>
    </g>
</svg>