<?xml version="1.0" encoding="UTF-8"?>
<svg width="36px" height="36px" viewBox="0 0 36 36" version="1.1" xmlns="http://www.w3.org/2000/svg" xmlns:xlink="http://www.w3.org/1999/xlink">
    <!-- Generator: Sketch 60.1 (88133) - https://sketch.com -->
    <title>cpu</title>
    <desc>Created with Sketch.</desc>
    <g id="页面-1" stroke="none" stroke-width="1" fill="none" fill-rule="evenodd">
        <g id="高优先级" transform="translate(-1920.000000, -1150.000000)">
            <g id="cpu" transform="translate(1920.000000, 1150.000000)">
                <rect id="矩形备份-14" x="0" y="0" width="36" height="36"></rect>
                <g id="编组" transform="translate(1.000000, 1.000000)">
                    <path d="M21.9866667,23.8 L12.0133333,23.8 C11.016,23.8 10.2,22.9930667 10.2,21.9866667 L10.2,12.0133333 C10.2,11.016 11.0069333,10.2 12.0133333,10.2 L21.9866667,10.2 C22.984,10.2 23.8,11.0069333 23.8,12.0133333 L23.8,21.9866667 C23.8,22.984 22.984,23.8 21.9866667,23.8 Z" id="路径" fill="#FFFFFF" fill-rule="nonzero"></path>
                    <line x1="17" y1="5.82857143" x2="17" y2="0" id="路径" stroke="#FFFFFF" stroke-width="1.5" stroke-linecap="round"></line>
                    <line x1="22.8285714" y1="5.82857143" x2="22.8285714" y2="0" id="路径" stroke="#FFFFFF" stroke-width="1.5" stroke-linecap="round"></line>
                    <line x1="11.1714286" y1="5.82857143" x2="11.1714286" y2="0" id="路径" stroke="#FFFFFF" stroke-width="1.5" stroke-linecap="round"></line>
                    <line x1="28.1714286" y1="17" x2="34" y2="17" id="路径" stroke="#FFFFFF" stroke-width="1.5" stroke-linecap="round"></line>
                    <line x1="28.1714286" y1="22.8285714" x2="34" y2="22.8285714" id="路径" stroke="#FFFFFF" stroke-width="1.5" stroke-linecap="round"></line>
                    <line x1="28.1714286" y1="11.1714286" x2="34" y2="11.1714286" id="路径" stroke="#FFFFFF" stroke-width="1.5" stroke-linecap="round"></line>
                    <path d="M26.3095238,28.1714286 L7.69047619,28.1714286 C6.66642857,28.1714286 5.82857143,27.3335714 5.82857143,26.3095238 L5.82857143,7.69047619 C5.82857143,6.66642857 6.66642857,5.82857143 7.69047619,5.82857143 L26.3095238,5.82857143 C27.3335714,5.82857143 28.1714286,6.66642857 28.1714286,7.69047619 L28.1714286,26.3095238 C28.1714286,27.3335714 27.3335714,28.1714286 26.3095238,28.1714286 Z" id="路径" stroke="#FFFFFF" stroke-width="1.5"></path>
                    <line x1="0" y1="17" x2="5.82857143" y2="17" id="路径" stroke="#FFFFFF" stroke-width="1.5" stroke-linecap="round"></line>
                    <line x1="0" y1="22.8285714" x2="5.82857143" y2="22.8285714" id="路径" stroke="#FFFFFF" stroke-width="1.5" stroke-linecap="round"></line>
                    <line x1="0" y1="11.1714286" x2="5.82857143" y2="11.1714286" id="路径" stroke="#FFFFFF" stroke-width="1.5" stroke-linecap="round"></line>
                    <line x1="17" y1="34" x2="17" y2="28.1714286" id="路径" stroke="#FFFFFF" stroke-width="1.5" stroke-linecap="round"></line>
                    <line x1="22.8285714" y1="34" x2="22.8285714" y2="28.1714286" id="路径" stroke="#FFFFFF" stroke-width="1.5" stroke-linecap="round"></line>
                    <line x1="11.1714286" y1="34" x2="11.1714286" y2="28.1714286" id="路径" stroke="#FFFFFF" stroke-width="1.5" stroke-linecap="round"></line>
                </g>
            </g>
        </g>
    </g>
</svg>