<?xml version="1.0" encoding="UTF-8"?>
<svg width="31px" height="34px" viewBox="0 0 31 34" version="1.1" xmlns="http://www.w3.org/2000/svg" xmlns:xlink="http://www.w3.org/1999/xlink">
    <!-- Generator: Sketch 60.1 (88133) - https://sketch.com -->
    <title>data-encrypt</title>
    <desc>Created with Sketch.</desc>
    <g id="页面-1" stroke="none" stroke-width="1" fill="none" fill-rule="evenodd">
        <g id="低优先级" transform="translate(-1026.000000, -1166.000000)">
            <g id="data-encrypt" transform="translate(1023.000000, 1165.000000)">
                <polygon id="矩形备份-23" points="0 0 36 0 36 36 24.484679 36 0 36"></polygon>
                <g id="编组-23" transform="translate(3.000000, 1.000000)" fill="#FFFFFF">
                    <g id="编组-17">
                        <path d="M28.2222222,15.1111111 C29.3267917,15.1111111 30.2222222,16.0065416 30.2222222,17.1111111 L30.2222222,32 C30.2222222,33.1045695 29.3267917,34 28.2222222,34 L2,34 C0.8954305,34 1.3527075e-16,33.1045695 0,32 L0,17.1111111 C-1.3527075e-16,16.0065416 0.8954305,15.1111111 2,15.1111111 L28.2222222,15.1111111 Z M15.1111111,19.8333333 C13.8071055,19.8333333 12.75,20.8904388 12.75,22.1944444 C12.75,23.2513792 13.4444736,24.146111 14.4019998,24.4472189 L14.4027778,26.4444444 C14.4027778,26.8356461 14.7199094,27.1527778 15.1111111,27.1527778 C15.5023128,27.1527778 15.8194444,26.8356461 15.8194444,26.4444444 L15.8202224,24.4472189 C16.7777486,24.146111 17.4722222,23.2513792 17.4722222,22.1944444 C17.4722222,20.8904388 16.4151168,19.8333333 15.1111111,19.8333333 Z" id="形状结合"></path>
                        <path d="M15.1111111,0.25 C21.5237507,0.25 26.7222222,5.44847152 26.7222222,11.8611111 C26.7222222,13.3194877 26.4533528,14.7150665 25.9624793,16.0009822 L24.3388461,16.0004446 C24.9064576,14.7370294 25.2222222,13.3359456 25.2222222,11.8611111 C25.2222222,6.27689864 20.6953236,1.75 15.1111111,1.75 C9.52689864,1.75 5,6.27689864 5,11.8611111 C5,13.3359456 5.31576464,14.7370294 5.88337617,16.0004446 L4.25974293,16.0009822 C3.76886939,14.7150665 3.5,13.3194877 3.5,11.8611111 C3.5,5.44847152 8.69847152,0.25 15.1111111,0.25 Z" id="形状结合" fill-rule="nonzero"></path>
                    </g>
                </g>
            </g>
        </g>
    </g>
</svg>