<?xml version="1.0" encoding="UTF-8"?>
<svg width="34px" height="31px" viewBox="0 0 34 31" version="1.1" xmlns="http://www.w3.org/2000/svg" xmlns:xlink="http://www.w3.org/1999/xlink">
    <!-- Generator: Sketch 59.1 (86144) - https://sketch.com -->
    <title>DDos</title>
    <desc>Created with Sketch.</desc>
    <defs>
        <linearGradient x1="105.694025%" y1="62.6285317%" x2="13.3713376%" y2="47.0602%" id="linearGradient-1">
            <stop stop-color="#FFFFFF" stop-opacity="0" offset="0%"></stop>
            <stop stop-color="#FFFFFF" stop-opacity="0.853726774" offset="23.5694679%"></stop>
            <stop stop-color="#FFFFFF" offset="100%"></stop>
        </linearGradient>
        <linearGradient x1="106.302276%" y1="40.9108234%" x2="-5.71763691%" y2="40.0574498%" id="linearGradient-2">
            <stop stop-color="#FFFFFF" offset="0%"></stop>
            <stop stop-color="#FFFFFF" stop-opacity="0.853726774" offset="76.4305321%"></stop>
            <stop stop-color="#FFFFFF" stop-opacity="0" offset="100%"></stop>
        </linearGradient>
    </defs>
    <g id="页面-1" stroke="none" stroke-width="1" fill="none" fill-rule="evenodd">
        <g id="低优先级" transform="translate(-921.000000, -273.000000)">
            <g id="DDos" transform="translate(920.000000, 271.000000)">
                <polygon id="矩形备份-22" points="0 0 36 0 36 36 24.484679 36 0 36"></polygon>
                <g id="编组-16" transform="translate(1.000000, 2.000000)">
                    <path d="M32.0866361,12.5433725 C30.8039351,5.4679227 24.6175169,0.25 17.3448826,0.25 C10.045319,0.25 3.84314497,5.50600197 2.59025266,12.6154056 C2.51836348,13.023333 2.79077634,13.4123013 3.19870381,13.4841905 C3.60663128,13.5560796 3.99559953,13.2836668 4.06748871,12.8757393 C5.19456047,6.48029098 10.7763864,1.75 17.3448826,1.75 C23.8891521,1.75 29.4568044,6.44602577 30.6106939,12.8109445 C30.6845819,13.2185147 31.0748809,13.4890175 31.482451,13.4151296 C31.8900212,13.3412416 32.1605241,12.9509426 32.0866361,12.5433725 Z" id="路径" fill="url(#linearGradient-1)" fill-rule="nonzero"></path>
                    <path d="M2.84601259,19.0225297 C4.55219427,25.566941 10.4857141,30.2151163 17.3448826,30.2151163 C24.3161937,30.2151163 30.3202961,25.4152284 31.9180331,18.7250927 C32.0142497,18.322209 31.7656469,17.9176083 31.3627632,17.8213917 C30.9598796,17.7251751 30.5552789,17.9737779 30.4590623,18.3766616 C29.0216928,24.3952972 23.6181008,28.7151163 17.3448826,28.7151163 C11.1725286,28.7151163 5.83247584,24.5318487 4.29749569,18.6441162 C4.19299967,18.2433002 3.78336335,18.0030854 3.38254736,18.1075814 C2.98173137,18.2120774 2.74151657,18.6217138 2.84601259,19.0225297 Z" id="路径" fill="url(#linearGradient-2)" fill-rule="nonzero"></path>
                    <circle id="椭圆形" fill="#FFFFFF" transform="translate(3.162791, 12.612494) rotate(1.000000) translate(-3.162791, -12.612494) " cx="3.1627907" cy="12.6124942" r="2.37209302"></circle>
                    <circle id="椭圆形" fill="#FFFFFF" transform="translate(31.526975, 18.643320) rotate(1.000000) translate(-31.526975, -18.643320) " cx="31.5269746" cy="18.6433197" r="2.37209302"></circle>
                    <path d="M11.2348492,12.8592791 L17.0318492,15.6762791 L17.0318492,22.7302791 L11.2349709,19.3837209 L11.2348492,12.8592791 Z M24.2448492,12.9122791 L24.2454921,19.3837209 L18.4478492,22.7302791 L18.4478492,15.6792791 L24.2448492,12.9122791 Z M17.7402315,8.11627907 L23.7438492,11.5822791 L17.7428492,14.4462791 L11.7868492,11.5522791 L17.7402315,8.11627907 Z" id="形状结合" fill="#FFFFFF"></path>
                </g>
            </g>
        </g>
    </g>
</svg>