<?xml version="1.0" encoding="UTF-8"?>
<svg width="36px" height="32px" viewBox="0 0 36 32" version="1.1" xmlns="http://www.w3.org/2000/svg" xmlns:xlink="http://www.w3.org/1999/xlink">
    <!-- Generator: Sketch 60.1 (88133) - https://sketch.com -->
    <title>ddos</title>
    <desc>Created with Sketch.</desc>
    <g id="页面-1" stroke="none" stroke-width="1" fill="none" fill-rule="evenodd">
        <g id="低优先级" transform="translate(-920.000000, -1167.000000)">
            <g id="ddos" transform="translate(920.000000, 1165.000000)">
                <polygon id="矩形备份-22" points="0 0 36 0 36 36 24.484679 36 0 36"></polygon>
                <g id="编组-16" transform="translate(0.000000, 2.000000)" fill="#FFFFFF">
                    <path d="M33.9740853,13.2812179 C32.6159312,5.78956521 26.0656062,0.264705882 18.3651698,0.264705882 C10.6362201,0.264705882 4.06921232,5.82988444 2.74262047,13.3574883 C2.66650251,13.7894115 2.95493966,14.2012602 3.38686286,14.2773781 C3.81878606,14.3534961 4.2306348,14.065059 4.30675275,13.6331358 C5.50012285,6.86148457 11.4102914,1.85294118 18.3651698,1.85294118 C25.2943964,1.85294118 31.1895576,6.82520376 32.411323,13.5645295 C32.4895573,13.9960744 32.902815,14.2824892 33.3343599,14.2042548 C33.7659048,14.1260205 34.0523196,13.7127628 33.9740853,13.2812179 Z" id="路径" fill-rule="nonzero"></path>
                    <path d="M3.01342509,20.1415021 C4.81997041,27.0708787 11.1025208,31.9924761 18.3651698,31.9924761 C25.7465581,31.9924761 32.1038429,26.9102418 33.7955644,19.8265687 C33.8974408,19.399986 33.6342144,18.9715853 33.2076317,18.8697089 C32.781049,18.7678325 32.3526482,19.031059 32.2507718,19.4576416 C30.7288512,25.8303146 25.0074008,30.4042408 18.3651698,30.4042408 C11.8297362,30.4042408 6.17556265,25.9748986 4.55028955,19.7408289 C4.43964671,19.3164355 4.00591414,19.0620904 3.58152074,19.1727333 C3.15712734,19.2833761 2.90278225,19.7171087 3.01342509,20.1415021 Z" id="路径" fill-rule="nonzero"></path>
                    <circle id="椭圆形" transform="translate(3.348837, 13.354406) rotate(1.000000) translate(-3.348837, -13.354406) " cx="3.34883721" cy="13.3544056" r="2.51162791"></circle>
                    <circle id="椭圆形" transform="translate(33.381502, 19.739986) rotate(1.000000) translate(-33.381502, -19.739986) " cx="33.3815025" cy="19.7399856" r="2.51162791"></circle>
                    <path d="M11.8957227,13.6157073 L18.0337227,16.5977073 L18.0337227,24.0667073 L11.8958515,20.5239398 L11.8957227,13.6157073 Z M25.6707227,13.6717073 L25.6716975,20.5239398 L19.5337227,24.0667073 L19.5337227,16.6007073 L25.6707227,13.6717073 Z M18.7837745,8.59370725 L25.1397227,12.2627073 L18.7857227,15.2957073 L12.4797227,12.2327073 L18.7837745,8.59370725 Z" id="形状结合"></path>
                </g>
            </g>
        </g>
    </g>
</svg>