<?xml version="1.0" encoding="UTF-8"?>
<svg width="36px" height="36px" viewBox="0 0 36 36" version="1.1" xmlns="http://www.w3.org/2000/svg" xmlns:xlink="http://www.w3.org/1999/xlink">
    <!-- Generator: Sketch 60.1 (88133) - https://sketch.com -->
    <title>disk</title>
    <desc>Created with Sketch.</desc>
    <g id="页面-1" stroke="none" stroke-width="1" fill="none" fill-rule="evenodd">
        <g id="高优先级" transform="translate(-2022.000000, -1150.000000)">
            <g id="disk" transform="translate(2022.000000, 1150.000000)">
                <rect id="矩形备份-15" x="0" y="0" width="36" height="36"></rect>
                <g fill="#FFFFFF" fill-rule="nonzero">
                    <path d="M8.19871429,0.792706122 L8.19918367,12.5368163 L8.21083197,12.7944143 C8.34188386,14.2371981 9.56234249,15.3756735 11.0380408,15.3756735 L11.0380408,15.3756735 L25.2323265,15.3756735 L25.4899245,15.3640252 C26.9327083,15.2329733 28.0711837,14.0125146 28.0711837,12.5368163 L28.0711837,12.5368163 L28.0707143,0.792706122 L33.8017959,0.793469388 C34.8773878,0.793469388 35.7590204,1.67510204 35.7590204,2.75069388 L35.7590204,25.108898 L0.493714286,25.108898 L0.493714286,2.75069388 C0.493714286,1.67510204 1.37534694,0.793469388 2.45093878,0.793469388 L8.19871429,0.792706122 Z M26.3077143,0.792706122 L26.3079184,12.5368163 L26.2936961,12.709982 C26.2095182,13.2180092 25.7621381,13.6124082 25.2323265,13.6124082 L25.2323265,13.6124082 L11.0380408,13.6124082 L10.8648751,13.5981859 C10.3568479,13.514008 9.96244898,13.0666279 9.96244898,12.5368163 L9.96244898,12.5368163 L9.96171429,0.792706122 L26.3077143,0.792706122 Z M22.8871837,2.69779592 L18.1263673,2.69779592 L18.1263673,11.4083265 L22.8871837,11.4083265 L22.8871837,2.69779592 Z" id="形状结合"></path>
                    <path d="M33.8017959,35.9706122 L2.45093878,35.9706122 C1.37534694,35.9706122 0.493714286,35.0889796 0.493714286,34.0133878 L0.493714286,26.784 L35.7590204,26.784 L35.7590204,34.0133878 C35.7590204,35.0889796 34.8773878,35.9706122 33.8017959,35.9706122 Z" id="路径"></path>
                </g>
            </g>
        </g>
    </g>
</svg>