<?xml version="1.0" encoding="UTF-8"?>
<svg width="34px" height="34px" viewBox="0 0 34 34" version="1.1" xmlns="http://www.w3.org/2000/svg" xmlns:xlink="http://www.w3.org/1999/xlink">
    <!-- Generator: Sketch 59.1 (86144) - https://sketch.com -->
    <title>磁盘</title>
    <desc>Created with Sketch.</desc>
    <defs>
        <linearGradient x1="50%" y1="78.2933333%" x2="50%" y2="62.4333333%" id="linearGradient-1">
            <stop stop-color="#FFFFFF" offset="0%"></stop>
            <stop stop-color="#FFFFFF" stop-opacity="0" offset="100%"></stop>
        </linearGradient>
    </defs>
    <g id="页面-1" stroke="none" stroke-width="1" fill="none" fill-rule="evenodd">
        <g id="高优先级" transform="translate(-2023.000000, -272.000000)">
            <g id="磁盘" transform="translate(2022.000000, 271.000000)">
                <rect id="矩形备份-15" x="0" y="0" width="36" height="36"></rect>
                <g id="编组" transform="translate(1.000000, 1.000000)">
                    <path d="M32.1111111,34 L1.88888889,34 C0.85,34 0,33.1594444 0,32.1111111 L0,1.88888889 C0,0.85 0.840555556,0 1.88888889,0 L32.1111111,0 C33.15,0 34,0.840555556 34,1.88888889 L34,32.1111111 C34,33.15 33.15,34 32.1111111,34 Z" id="路径" fill="url(#linearGradient-1)" fill-rule="nonzero"></path>
                    <path d="M7.33833333,4.4408921e-15 L7.33833333,11.1791347 C7.33833333,12.5874206 8.50546497,13.736757 9.93555556,13.736757 L23.63,13.736757 C25.0600906,13.736757 26.2272222,12.5874206 26.2272222,11.1791347 L26.2272222,4.4408921e-15 L32,1.24344979e-14 C33.1045695,1.22315918e-14 34,0.8954305 34,2 L34,23 L0,23 L0,2 C-1.3527075e-16,0.8954305 0.8954305,1.2637404e-14 2,1.24344979e-14 L7.33833333,4.4408921e-15 Z M24.8105556,4.4408921e-15 L24.8105556,11.1791347 C24.8105556,11.8169465 24.2776872,12.3416903 23.63,12.3416903 L9.93555556,12.3416903 C9.28786836,12.3416903 8.755,11.8169465 8.755,11.1791347 L8.755,4.4408921e-15 L24.8105556,4.4408921e-15 Z M21.2822222,1.82288718 L16.8827778,1.82288718 C16.8275493,1.82288718 16.7827778,1.86765871 16.7827778,1.92288718 L16.7827778,1.92288718 L16.7827778,10.0002831 C16.7827778,10.0555115 16.8275493,10.1002831 16.8827778,10.1002831 L16.8827778,10.1002831 L21.2822222,10.1002831 C21.3374507,10.1002831 21.3822222,10.0555115 21.3822222,10.0002831 L21.3822222,10.0002831 L21.3822222,1.92288718 C21.3822222,1.86765871 21.3374507,1.82288718 21.2822222,1.82288718 L21.2822222,1.82288718 Z" id="形状结合" fill="#FFFFFF"></path>
                </g>
            </g>
        </g>
    </g>
</svg>