<?xml version="1.0" encoding="UTF-8"?>
<svg width="36px" height="32px" viewBox="0 0 36 32" version="1.1" xmlns="http://www.w3.org/2000/svg" xmlns:xlink="http://www.w3.org/1999/xlink">
    <!-- Generator: Sketch 60.1 (88133) - https://sketch.com -->
    <title>dns</title>
    <desc>Created with Sketch.</desc>
    <g id="页面-1" stroke="none" stroke-width="1" fill="none" fill-rule="evenodd">
        <g id="高优先级" transform="translate(-1602.000000, -1152.000000)">
            <g id="dns" transform="translate(1602.000000, 1150.000000)">
                <rect id="矩形备份-11" x="0" y="0" width="36" height="36"></rect>
                <g id="编组" transform="translate(0.000000, 2.000000)">
                    <path d="M14.9996395,0.483631551 C13.0617645,2.23442051 11.6051044,5.83970152 10.9279433,10.3366378 L3.20036495,10.3374674 C5.16408894,5.31983147 9.59522245,1.53717751 14.9996395,0.483631551 Z M17.7085714,1.04571429 C19.8295231,1.04571429 21.8701421,4.86664051 22.746268,10.3372456 L12.6708749,10.3372456 C13.5470008,4.86664051 15.5876197,1.04571429 17.7085714,1.04571429 Z M20.245242,0.335908621 C26.0513325,1.12842221 30.8657567,5.04610402 32.9366169,10.3370562 L24.4892402,10.3369538 C23.7934417,5.71608626 22.274551,2.03675797 20.2561161,0.343838973 L20.245242,0.335908621 Z" id="形状结合" fill="#FFFFFF" fill-rule="nonzero"></path>
                    <path d="M20.2472356,31.960962 C22.1819602,30.3449112 23.6588365,26.9050306 24.3935037,22.5595087 L32.6871854,22.560771 C30.4964672,27.5454162 25.8304823,31.1981482 20.2472356,31.960962 Z M15.0008548,31.8138611 C9.81386479,30.8029658 5.52335153,27.2783898 3.44998482,22.5608247 L11.0236425,22.55951 C11.7367576,26.777508 13.149173,30.1422108 15.0008548,31.8138611 Z M17.7085714,31.2514286 C15.6662134,31.2514286 13.6983449,27.7084311 12.7730135,22.561145 L22.6441293,22.561145 C21.718798,27.7084311 19.7509295,31.2514286 17.7085714,31.2514286 Z" id="形状结合" fill="#FFFFFF" fill-rule="nonzero"></path>
                    <path d="M35.2114286,10.3371429 L35.2114286,22.56 L0.925714286,22.56 L0.925714286,10.3371429 L35.2114286,10.3371429 Z M5.4,11.7428571 C5.28840755,11.7428571 5.18179585,11.7641823 5.08401781,11.8029797 C4.73983565,11.9134321 4.49142857,12.2362782 4.49142857,12.6171429 L4.49142857,12.6171429 L4.49142857,20.2457143 L4.50523829,20.3997868 C4.54912486,20.6415791 4.69444305,20.8480334 4.89551652,20.9734736 C5.03716541,21.0762788 5.21147492,21.1371429 5.4,21.1371429 C10.200246,21.1371429 12.9257143,19.8397618 12.9257143,16.44 C12.9257143,13.0402382 10.200246,11.7428571 5.4,11.7428571 Z M27.4457143,11.76 C25.2030353,11.76 23.2628571,12.8716323 23.2628571,14.52 C23.2628571,16.0966995 25.0379918,17.1823217 27.155041,17.2737431 L27.155041,17.2737431 L27.7237779,17.2879167 C28.9969465,17.3607412 29.9142857,17.9209879 29.9142857,18.3428571 C29.9142857,18.7885413 28.8670282,19.3885714 27.4457143,19.3885714 C26.2057974,19.3885714 25.1920748,18.91982 24.999298,18.4475169 C24.8204065,18.0092327 24.3200867,17.7989534 23.8818026,17.9778449 C23.4435184,18.1567364 23.2332391,18.6570561 23.4121306,19.0953403 C23.9170976,20.3325094 25.5830528,21.1028571 27.4457143,21.1028571 C29.6883933,21.1028571 31.6285714,19.9912248 31.6285714,18.3428571 C31.6285714,16.7659576 29.8485083,15.6648335 27.7357447,15.5720645 L27.7357447,15.5720645 L27.1666384,15.5579374 C25.8894205,15.4863963 24.9771429,14.9359719 24.9771429,14.52 C24.9771429,14.0743158 26.0244004,13.4742857 27.4457143,13.4742857 C28.6856312,13.4742857 29.6993538,13.9430372 29.8921306,14.4153403 C30.0710221,14.8536245 30.5713418,15.0639038 31.009626,14.8850123 C31.4479102,14.7061208 31.6581895,14.205801 31.479298,13.7675169 C30.974331,12.5303477 29.3083758,11.76 27.4457143,11.76 Z M14.7433763,11.7601422 C14.7307041,11.7603816 14.7180328,11.7609007 14.7053723,11.7617 C14.6816421,11.7632209 14.6587367,11.7656121 14.6361173,11.7688866 C14.6221381,11.7709175 14.6077414,11.773374 14.5933979,11.7762017 C14.572374,11.7803416 14.5523674,11.7850666 14.5326449,11.7904786 C14.5162568,11.7949761 14.4991533,11.8002284 14.4821864,11.8060326 C14.4622392,11.812872 14.4432405,11.8201716 14.4245811,11.8281139 C14.409103,11.8346749 14.393361,11.8419317 14.3777955,11.8496965 C14.3576959,11.8597582 14.338274,11.870425 14.319328,11.8818033 L14.2942109,11.8974719 L14.2942109,11.8974719 L14.2847628,11.9037008 C14.2602907,11.9200346 14.2367065,11.9375941 14.2140977,11.9562914 L14.1951564,11.972437 L14.1951564,11.972437 C14.1370862,12.0240181 14.0894653,12.0783484 14.049162,12.1380271 C14.0401975,12.1511042 14.0320039,12.1640006 14.0241845,12.1770682 C14.0153492,12.191975 14.0065143,12.207798 13.9981762,12.2239194 C13.9893908,12.2408714 13.9815006,12.2575073 13.9741712,12.27434 C13.9659594,12.2930532 13.9581459,12.3128709 13.9510648,12.3330333 C13.9481273,12.3416831 13.9453509,12.3500328 13.9427055,12.3584172 C13.9354864,12.3808685 13.9291985,12.4040608 13.9238809,12.4276208 C13.9213757,12.4392839 13.9189791,12.451032 13.9168296,12.4628197 L13.9095355,12.5096247 L13.9095355,12.5096247 L13.90593,12.5446174 C13.9048025,12.5579136 13.9039836,12.5712349 13.9034742,12.5845695 L13.9028571,12.6171429 L13.9028571,20.2285714 L13.9166669,20.3826439 C13.9892428,20.7824997 14.3392116,21.0857143 14.76,21.0857143 C15.2333869,21.0857143 15.6171429,20.7019584 15.6171429,20.2285714 L15.6171429,20.2285714 L15.6167143,14.8951429 L20.7838656,20.793415 L20.7975858,20.8087086 C20.8226516,20.8359571 20.8494596,20.8615778 20.8778334,20.8853939 L20.895784,20.9002013 C20.8993183,20.9030116 20.9028705,20.9057904 20.9064402,20.9085376 C20.9255254,20.9230616 20.945159,20.9368965 20.9653749,20.9499049 C20.9767939,20.957384 20.9884034,20.9644569 21.0001454,20.971232 C21.0224222,20.9840046 21.0452288,20.9958596 21.0686059,21.0066922 C21.1284633,21.0343194 21.190611,21.0546667 21.2540545,21.0678096 L21.315722,21.0783518 L21.315722,21.0783518 L21.3263911,21.0796097 C21.3343475,21.0805623 21.3423161,21.0814039 21.3502943,21.0821343 L21.4285714,21.0857143 L21.4285714,21.0857143 L21.4451951,21.0855721 C21.4628695,21.0852382 21.4805422,21.0843603 21.4981861,21.0829366 C21.5139936,21.0816488 21.5292011,21.0800057 21.5442841,21.0779703 C21.5645187,21.0752309 21.5849221,21.0717239 21.6052117,21.0674711 C21.6224413,21.0638686 21.6387712,21.0599211 21.6549112,21.0555137 C21.6740565,21.0502876 21.6938574,21.0441259 21.7134698,21.0372231 C21.7308653,21.0310896 21.7475594,21.0245941 21.7639903,21.0176004 C21.7777359,21.0117752 21.7917771,21.0053585 21.80568,20.9985386 C21.8290724,20.9870212 21.8514794,20.9747269 21.8732499,20.9614899 L21.8943605,20.9482423 L21.8943605,20.9482423 L21.9038086,20.9420135 C21.9650134,20.9011625 22.020665,20.8526453 22.069391,20.7978341 C22.0859905,20.7789772 22.0958693,20.7669847 22.1053766,20.7547844 C22.1184903,20.7377353 22.1308953,20.720517 22.1426612,20.7028367 C22.1469144,20.6966675 22.1511601,20.6900933 22.1553079,20.6834726 C22.1688088,20.6617248 22.1813473,20.639607 22.1929041,20.6169056 C22.1995489,20.6039253 22.2059096,20.5905488 22.2119075,20.5770427 C22.2212144,20.5561784 22.2297436,20.5347624 22.2374148,20.5129424 C22.2413129,20.5015523 22.2449052,20.4905771 22.2482718,20.4795442 C22.2562039,20.4540436 22.262992,20.4274165 22.2685023,20.4003249 C22.2704257,20.3902414 22.2722085,20.3806268 22.2738268,20.3709878 L22.2790359,20.3360896 L22.2790359,20.3360896 L22.2820176,20.3081132 C22.283509,20.2920814 22.2845513,20.2760101 22.2851431,20.2599197 L22.2857143,20.2285714 L22.2857143,12.6171429 L22.2719046,12.4630703 C22.1993286,12.0632146 21.8493598,11.76 21.4285714,11.76 C20.9551845,11.76 20.5714286,12.1437559 20.5714286,12.6171429 L20.5714286,12.6171429 L20.5707143,17.9491429 L15.4271387,12.078933 C15.3918467,12.0352416 15.35235,11.9950875 15.3092638,11.9590858 L15.2927874,11.945513 C15.287698,11.9414661 15.2825715,11.9374847 15.2774091,11.9335687 C15.2601092,11.9205902 15.2419021,11.9078459 15.2231965,11.8958094 C15.2115775,11.8882085 15.2000669,11.881199 15.1884261,11.8744823 C15.1604157,11.8583955 15.131509,11.8437898 15.1017225,11.830827 C15.0896942,11.825635 15.0780309,11.8208883 15.0662846,11.8164069 C14.971479,11.7800021 14.8680754,11.76 14.76,11.76 L14.8692497,11.7669807 C14.8480314,11.7642622 14.826721,11.7623345 14.8053665,11.761201 L14.76,11.76 L14.76,11.76 Z M6.20598855,13.4702743 C9.6194361,13.5865443 11.2114286,14.482058 11.2114286,16.44 C11.2114286,18.397942 9.6194361,19.2934557 6.20598855,19.4097257 Z" id="形状结合" fill="#FFFFFF" fill-rule="nonzero"></path>
                    <g transform="translate(3.428571, 10.285714)"></g>
                </g>
            </g>
        </g>
    </g>
</svg>