<?xml version="1.0" encoding="UTF-8"?>
<svg width="36px" height="25px" viewBox="0 0 36 25" version="1.1" xmlns="http://www.w3.org/2000/svg" xmlns:xlink="http://www.w3.org/1999/xlink">
    <!-- Generator: Sketch 59.1 (86144) - https://sketch.com -->
    <title>Docker</title>
    <desc>Created with Sketch.</desc>
    <defs>
        <linearGradient x1="49.633205%" y1="100.701655%" x2="49.633205%" y2="0.268708449%" id="linearGradient-1">
            <stop stop-color="#FFFFFF" offset="0%"></stop>
            <stop stop-color="#FFFFFF" stop-opacity="0.99" offset="27%"></stop>
            <stop stop-color="#FFFFFF" stop-opacity="0.96" offset="41%"></stop>
            <stop stop-color="#FFFFFF" stop-opacity="0.91" offset="52%"></stop>
            <stop stop-color="#FFFFFF" stop-opacity="0.84" offset="61%"></stop>
            <stop stop-color="#FFFFFF" stop-opacity="0.74" offset="69%"></stop>
            <stop stop-color="#FFFFFF" stop-opacity="0.62" offset="77%"></stop>
            <stop stop-color="#FFFFFF" stop-opacity="0.48" offset="84%"></stop>
            <stop stop-color="#FFFFFF" stop-opacity="0.32" offset="90%"></stop>
            <stop stop-color="#FFFFFF" stop-opacity="0.14" offset="96%"></stop>
            <stop stop-color="#FFFFFF" stop-opacity="0" offset="100%"></stop>
        </linearGradient>
    </defs>
    <g id="页面-1" stroke="none" stroke-width="1" fill="none" fill-rule="evenodd">
        <g id="模型icon-库" transform="translate(-280.000000, -139.000000)">
            <g id="Docker" transform="translate(280.000000, 133.000000)">
                <g id="编组">
                    <rect id="矩形" x="0" y="0" width="36" height="36"></rect>
                    <path d="M31.2324324,16.0216216 C30.9405405,13.4918919 28.5081081,12.0324324 28.5081081,12.0324324 C25.7837838,14.9513514 28.1189189,18.1621622 28.1189189,18.1621622 C27.0486486,18.8432432 25.7837838,19.0378378 24.6162162,19.0378378 L22.0864865,19.1351351 L0.972972973,19.1351351 C0.875675676,19.9135135 0.875675676,20.6918919 0.875675676,21.4702703 C0.972972973,23.8054054 2.04324324,26.0432432 3.6972973,27.6972973 C5.35135135,27.6 7.00540541,27.1135135 8.46486486,26.3351351 C8.75675676,26.2378378 9.14594595,26.2378378 9.24324324,26.5297297 C9.34054054,26.8216216 9.34054054,27.2108108 9.04864865,27.3081081 C7.78378378,27.9891892 6.42162162,28.4756757 4.96216216,28.7675676 C5.83783784,29.4486486 6.81081081,29.9351351 7.78378378,30.227027 C12.5513514,32.0756757 19.1675676,30.0324324 19.1675676,30.0324324 C28.3135135,27.2108108 30.4540541,19.6216216 30.4540541,19.6216216 C34.9297297,19.9135135 35.9027027,16.6054054 35.9027027,16.6054054 C34.5405405,15.827027 32.8864865,15.5351351 31.2324324,16.0216216 Z M10.8972973,26.1405405 C10.4108108,26.1405405 10.0216216,25.7513514 10.0216216,25.2648649 C10.0216216,24.7783784 10.4108108,24.3891892 10.8972973,24.3891892 C11.3837838,24.3891892 11.772973,24.7783784 11.772973,25.2648649 L11.772973,25.2648649 C11.6756757,25.7513514 11.3837838,26.1405405 10.8972973,26.1405405 L10.8972973,26.1405405 L10.8972973,26.1405405 Z" id="形状" fill="url(#linearGradient-1)" fill-rule="nonzero"></path>
                    <circle id="椭圆形" fill="#FFFFFF" fill-rule="nonzero" cx="10.8972973" cy="25.2648649" r="1"></circle>
                    <path d="M11.4810811,24.972973 C11.3837838,25.0702703 11.3837838,25.0702703 11.2864865,25.0702703 C11.1891892,25.0702703 10.9945946,24.972973 10.9945946,24.7783784 C10.9945946,24.6810811 11.0918919,24.6810811 11.0918919,24.5837838 C10.9945946,24.5837838 10.9945946,24.4864865 10.8972973,24.4864865 C10.5081081,24.4864865 10.2162162,24.7783784 10.2162162,25.1675676 C10.2162162,25.5567568 10.5081081,25.8486486 10.8972973,25.8486486 C11.2864865,25.8486486 11.5783784,25.5567568 11.5783784,25.1675676 L11.5783784,25.1675676 C11.4810811,25.1675676 11.4810811,25.0702703 11.4810811,24.972973 Z" id="路径" fill="#000000" fill-rule="nonzero"></path>
                    <polygon id="矩形" fill="#FFFFFF" fill-rule="nonzero" transform="translate(5.337246, 17.152501) rotate(-89.750005) translate(-5.337246, -17.152501) " points="3.68317631 15.4984317 6.99131591 15.4984317 6.99131591 18.8065713 3.68317631 18.8065713"></polygon>
                    <polygon id="矩形" fill="#FFFFFF" fill-rule="nonzero" transform="translate(9.346176, 17.172253) rotate(-89.750005) translate(-9.346176, -17.172253) " points="7.69210654 15.518183 11.0002461 15.518183 11.0002461 18.8263226 7.69210654 18.8263226"></polygon>
                    <polygon id="矩形" fill="#FFFFFF" fill-rule="nonzero" transform="translate(13.354815, 17.191810) rotate(-89.750005) translate(-13.354815, -17.191810) " points="11.7007449 15.5377398 15.0088845 15.5377398 15.0088845 18.8458794 11.7007449 18.8458794"></polygon>
                    <polygon id="矩形" fill="#FFFFFF" fill-rule="nonzero" transform="translate(17.296902, 17.144426) rotate(-89.750005) translate(-17.296902, -17.144426) " points="15.6428319 15.490356 18.9509715 15.490356 18.9509715 18.7984956 15.6428319 18.7984956"></polygon>
                    <polygon id="矩形" fill="#FFFFFF" fill-rule="nonzero" transform="translate(9.412241, 12.848265) rotate(-89.750005) translate(-9.412241, -12.848265) " points="7.75817141 11.1941954 11.066311 11.1941954 11.066311 14.502335 7.75817141 14.502335"></polygon>
                    <polygon id="矩形" fill="#FFFFFF" fill-rule="nonzero" transform="translate(13.428115, 12.777335) rotate(-89.750005) translate(-13.428115, -12.777335) " points="11.7740451 11.1232657 15.0821847 11.1232657 15.0821847 14.4314053 11.7740451 14.4314053"></polygon>
                    <polygon id="矩形" fill="#FFFFFF" fill-rule="nonzero" transform="translate(17.379799, 12.837368) rotate(-89.750005) translate(-17.379799, -12.837368) " points="15.7257292 11.1832981 19.0338688 11.1832981 19.0338688 14.4914377 15.7257292 14.4914377"></polygon>
                    <rect id="矩形" fill="#FFFFFF" fill-rule="nonzero" x="15.6648649" y="6.68108108" width="3.30810811" height="3.30810811"></rect>
                    <polygon id="矩形" fill="#FFFFFF" fill-rule="nonzero" transform="translate(21.386527, 17.147637) rotate(-89.750005) translate(-21.386527, -17.147637) " points="19.7324569 15.4935668 23.0405965 15.4935668 23.0405965 18.8017064 19.7324569 18.8017064"></polygon>
                </g>
            </g>
        </g>
    </g>
</svg>