<?xml version="1.0" encoding="UTF-8"?>
<svg width="36px" height="26px" viewBox="0 0 36 26" version="1.1" xmlns="http://www.w3.org/2000/svg" xmlns:xlink="http://www.w3.org/1999/xlink">
    <!-- Generator: Sketch 60.1 (88133) - https://sketch.com -->
    <title>docker</title>
    <desc>Created with Sketch.</desc>
    <g id="页面-1" stroke="none" stroke-width="1" fill="none" fill-rule="evenodd">
        <g id="模型icon-库" transform="translate(-280.000000, -956.000000)">
            <g id="docker" transform="translate(280.000000, 951.000000)">
                <g id="编组">
                    <rect id="矩形" x="0" y="0" width="36" height="36"></rect>
                    <path d="M28.5081081,12.0324324 C28.5081081,12.0324324 30.9405405,13.4918919 31.2324324,16.0216216 C32.8864865,15.5351351 34.5405405,15.827027 35.9027027,16.6054054 C35.9027027,16.6054054 34.9297297,19.9135135 30.4540541,19.6216216 C30.4540541,19.6216216 28.3135135,27.2108108 19.1675676,30.0324324 C19.1675676,30.0324324 12.5513514,32.0756757 7.78378378,30.227027 C6.81081081,29.9351351 5.83783784,29.4486486 4.96216216,28.7675676 C6.42162162,28.4756757 7.78378378,27.9891892 9.04864865,27.3081081 C9.34054054,27.2108108 9.34054054,26.8216216 9.24324324,26.5297297 C9.14594595,26.2378378 8.75675676,26.2378378 8.46486486,26.3351351 C7.00540541,27.1135135 5.35135135,27.6 3.6972973,27.6972973 C2.04324324,26.0432432 0.972972973,23.8054054 0.875675676,21.4702703 C0.875675676,20.6918919 0.875675676,19.9135135 0.972972973,19.1351351 L0.972972973,19.1351351 L22.0864865,19.1351351 L24.6162162,19.0378378 C25.7837838,19.0378378 27.0486486,18.8432432 28.1189189,18.1621622 C28.1189189,18.1621622 25.7837838,14.9513514 28.5081081,12.0324324 Z M10.9,24.65 C10.5410149,24.65 10.25,24.9410149 10.25,25.3 C10.25,25.6589851 10.5410149,25.95 10.9,25.95 C11.2589851,25.95 11.55,25.6589851 11.55,25.3 C11.55,24.9410149 11.2589851,24.65 10.9,24.65 Z" id="形状结合" fill="#FFFFFF" fill-rule="nonzero"></path>
                    <circle id="椭圆形" fill="#FFFFFF" fill-rule="nonzero" cx="11.05" cy="25.05" r="1"></circle>
                    <polygon id="矩形" fill="#FFFFFF" fill-rule="nonzero" transform="translate(5.654070, 16.061271) rotate(-89.750005) translate(-5.654070, -16.061271) " points="4 14.4072013 7.3081396 14.4072013 7.3081396 17.7153409 4 17.7153409"></polygon>
                    <polygon id="矩形" fill="#FFFFFF" fill-rule="nonzero" transform="translate(9.654070, 16.061271) rotate(-89.750005) translate(-9.654070, -16.061271) " points="8 14.4072013 11.3081396 14.4072013 11.3081396 17.7153409 8 17.7153409"></polygon>
                    <polygon id="矩形" fill="#FFFFFF" fill-rule="nonzero" transform="translate(13.654070, 16.061271) rotate(-89.750005) translate(-13.654070, -16.061271) " points="12 14.4072013 15.3081396 14.4072013 15.3081396 17.7153409 12 17.7153409"></polygon>
                    <polygon id="矩形" fill="#FFFFFF" fill-rule="nonzero" transform="translate(17.654070, 16.061271) rotate(-89.750005) translate(-17.654070, -16.061271) " points="16 14.4072013 19.3081396 14.4072013 19.3081396 17.7153409 16 17.7153409"></polygon>
                    <polygon id="矩形" fill="#FFFFFF" fill-rule="nonzero" transform="translate(9.654070, 11.654070) rotate(-89.750005) translate(-9.654070, -11.654070) " points="8 10 11.3081396 10 11.3081396 13.3081396 8 13.3081396"></polygon>
                    <polygon id="矩形" fill="#FFFFFF" fill-rule="nonzero" transform="translate(13.654070, 11.654070) rotate(-89.750005) translate(-13.654070, -11.654070) " points="12 10 15.3081396 10 15.3081396 13.3081396 12 13.3081396"></polygon>
                    <polygon id="矩形" fill="#FFFFFF" fill-rule="nonzero" transform="translate(17.654070, 11.654070) rotate(-89.750005) translate(-17.654070, -11.654070) " points="16 10 19.3081396 10 19.3081396 13.3081396 16 13.3081396"></polygon>
                    <rect id="矩形" fill="#FFFFFF" fill-rule="nonzero" x="16" y="5.7" width="3.30810811" height="3.30810811"></rect>
                    <polygon id="矩形" fill="#FFFFFF" fill-rule="nonzero" transform="translate(21.654070, 16.061271) rotate(-89.750005) translate(-21.654070, -16.061271) " points="20 14.4072013 23.3081396 14.4072013 23.3081396 17.7153409 20 17.7153409"></polygon>
                </g>
            </g>
        </g>
    </g>
</svg>