<?xml version="1.0" encoding="UTF-8"?>
<svg width="36px" height="25px" viewBox="0 0 36 25" version="1.1" xmlns="http://www.w3.org/2000/svg" xmlns:xlink="http://www.w3.org/1999/xlink">
    <!-- Generator: Sketch 60.1 (88133) - https://sketch.com -->
    <title>docker</title>
    <desc>Created with Sketch.</desc>
    <g id="页面-1" stroke="none" stroke-width="1" fill="none" fill-rule="evenodd">
        <g id="模型icon-库" transform="translate(-280.000000, -957.000000)">
            <g id="docker" transform="translate(280.000000, 951.000000)">
                <g id="编组">
                    <rect id="矩形" x="0" y="0" width="36" height="36"></rect>
                    <path d="M28.5081081,12.0324324 C28.5081081,12.0324324 30.9405405,13.4918919 31.2324324,16.0216216 C32.8864865,15.5351351 34.5405405,15.827027 35.9027027,16.6054054 C35.9027027,16.6054054 34.9297297,19.9135135 30.4540541,19.6216216 C30.4540541,19.6216216 28.3135135,27.2108108 19.1675676,30.0324324 C19.1675676,30.0324324 12.5513514,32.0756757 7.78378378,30.227027 C6.81081081,29.9351351 5.83783784,29.4486486 4.96216216,28.7675676 C6.42162162,28.4756757 7.78378378,27.9891892 9.04864865,27.3081081 C9.34054054,27.2108108 9.34054054,26.8216216 9.24324324,26.5297297 C9.14594595,26.2378378 8.75675676,26.2378378 8.46486486,26.3351351 C7.00540541,27.1135135 5.35135135,27.6 3.6972973,27.6972973 C2.04324324,26.0432432 0.972972973,23.8054054 0.875675676,21.4702703 C0.875675676,20.6918919 0.875675676,19.9135135 0.972972973,19.1351351 L0.972972973,19.1351351 L22.0864865,19.1351351 L24.6162162,19.0378378 C25.7837838,19.0378378 27.0486486,18.8432432 28.1189189,18.1621622 C28.1189189,18.1621622 25.7837838,14.9513514 28.5081081,12.0324324 Z M10.9,24.65 C10.5410149,24.65 10.25,24.9410149 10.25,25.3 C10.25,25.6589851 10.5410149,25.95 10.9,25.95 C11.2589851,25.95 11.55,25.6589851 11.55,25.3 C11.55,24.9410149 11.2589851,24.65 10.9,24.65 Z" id="形状结合" fill="#FFFFFF" fill-rule="nonzero"></path>
                    <circle id="椭圆形" fill="#FFFFFF" fill-rule="nonzero" cx="11.05" cy="25.05" r="1"></circle>
                    <polygon id="矩形" fill="#FFFFFF" fill-rule="nonzero" transform="translate(5.337246, 17.152501) rotate(-89.750005) translate(-5.337246, -17.152501) " points="3.68317631 15.4984317 6.99131591 15.4984317 6.99131591 18.8065713 3.68317631 18.8065713"></polygon>
                    <polygon id="矩形" fill="#FFFFFF" fill-rule="nonzero" transform="translate(9.346176, 17.172253) rotate(-89.750005) translate(-9.346176, -17.172253) " points="7.69210654 15.518183 11.0002461 15.518183 11.0002461 18.8263226 7.69210654 18.8263226"></polygon>
                    <polygon id="矩形" fill="#FFFFFF" fill-rule="nonzero" transform="translate(13.354815, 17.191810) rotate(-89.750005) translate(-13.354815, -17.191810) " points="11.7007449 15.5377398 15.0088845 15.5377398 15.0088845 18.8458794 11.7007449 18.8458794"></polygon>
                    <polygon id="矩形" fill="#FFFFFF" fill-rule="nonzero" transform="translate(17.296902, 17.144426) rotate(-89.750005) translate(-17.296902, -17.144426) " points="15.6428319 15.490356 18.9509715 15.490356 18.9509715 18.7984956 15.6428319 18.7984956"></polygon>
                    <polygon id="矩形" fill="#FFFFFF" fill-rule="nonzero" transform="translate(9.412241, 12.848265) rotate(-89.750005) translate(-9.412241, -12.848265) " points="7.75817141 11.1941954 11.066311 11.1941954 11.066311 14.502335 7.75817141 14.502335"></polygon>
                    <polygon id="矩形" fill="#FFFFFF" fill-rule="nonzero" transform="translate(13.428115, 12.777335) rotate(-89.750005) translate(-13.428115, -12.777335) " points="11.7740451 11.1232657 15.0821847 11.1232657 15.0821847 14.4314053 11.7740451 14.4314053"></polygon>
                    <polygon id="矩形" fill="#FFFFFF" fill-rule="nonzero" transform="translate(17.379799, 12.837368) rotate(-89.750005) translate(-17.379799, -12.837368) " points="15.7257292 11.1832981 19.0338688 11.1832981 19.0338688 14.4914377 15.7257292 14.4914377"></polygon>
                    <rect id="矩形" fill="#FFFFFF" fill-rule="nonzero" x="15.6648649" y="6.68108108" width="3.30810811" height="3.30810811"></rect>
                    <polygon id="矩形" fill="#FFFFFF" fill-rule="nonzero" transform="translate(21.386527, 17.147637) rotate(-89.750005) translate(-21.386527, -17.147637) " points="19.7324569 15.4935668 23.0405965 15.4935668 23.0405965 18.8017064 19.7324569 18.8017064"></polygon>
                </g>
            </g>
        </g>
    </g>
</svg>