<?xml version="1.0" encoding="UTF-8"?>
<svg width="34px" height="34px" viewBox="0 0 34 34" version="1.1" xmlns="http://www.w3.org/2000/svg" xmlns:xlink="http://www.w3.org/1999/xlink">
    <!-- Generator: Sketch 60.1 (88133) - https://sketch.com -->
    <title>domain</title>
    <desc>Created with Sketch.</desc>
    <g id="页面-1" stroke="none" stroke-width="1" fill="none" fill-rule="evenodd">
        <g id="高优先级" transform="translate(-1706.000000, -1151.000000)">
            <g id="domain" transform="translate(1705.000000, 1150.000000)">
                <rect id="矩形备份-12" x="0" y="0" width="36" height="36"></rect>
                <g id="编组" transform="translate(1.000000, 1.000000)" fill="#FFFFFF" fill-rule="nonzero">
                    <path d="M29.3399396,28.299939 C29.4424808,28.3641455 29.5549281,28.3987438 29.6674775,28.4060537 C26.9646964,31.445551 23.2029759,33.50774 18.9679528,34.0001401 C20.8592209,32.8953479 22.4264835,30.2560024 23.4501134,26.7150686 C26.0561748,27.0718766 28.2715949,27.6309916 29.3399396,28.299939 Z M14.8483499,33.9471867 L14.9120549,33.9857528 C10.6999687,33.4654424 6.96356838,31.3912299 4.28257569,28.3483517 C4.4790809,28.4348035 4.71202355,28.4287519 4.91251518,28.3129765 C5.98455805,27.6939172 8.06190151,27.1573639 10.4783971,26.792521 C11.4857089,30.238823 13.0105566,32.8199584 14.8483499,33.9471867 Z M17.01101,26.2890117 L17.7693755,26.2925148 C19.1848339,26.311412 20.6336673,26.3986277 22.0166303,26.5421275 C20.8207688,30.5547595 18.9445509,33.1404683 16.9527403,33.1404683 C14.9709531,33.1404683 13.1035983,30.5807185 11.9073067,26.6031667 C13.5802161,26.4055605 15.3464507,26.2926967 17.01101,26.2890117 Z M10.1103147,25.4007528 L9.82233552,25.4457235 C7.43111518,25.8359663 5.37104065,26.3992065 4.20850671,27.0705207 C3.92575663,27.2337968 3.79662735,27.5638635 3.87315991,27.8677515 C1.5854139,25.0695337 0.157422168,21.5270758 2.73130976e-05,17.65375 L9.16533095,17.6540858 C9.22814856,20.4521647 9.56038421,23.0841315 10.1103147,25.4007528 Z M33.9999782,17.65375 C33.8489795,21.3696732 32.5285536,24.7810735 30.4003429,27.5228683 C30.3597895,27.3461618 30.2516324,27.1864587 30.0872947,27.0835582 C28.8613229,26.315912 26.5312272,25.7044637 23.8151389,25.3180716 C24.3529141,23.0218781 24.6780746,20.4190858 24.7401496,17.6540858 Z M22.4498284,24.8949838 L22.391904,25.1399816 C20.7706314,24.9636758 19.0627895,24.865258 17.4038223,24.8577152 L17.0064386,24.8576574 C15.2154943,24.8616217 13.3209256,24.984736 11.5281142,25.2034582 C10.9901014,22.9807778 10.6492377,20.4108972 10.5838251,17.6534996 L23.3216484,17.653794 C23.2592248,20.2843937 22.9461007,22.7443189 22.4498284,24.8949838 Z M3.84654338,6.79133281 C5.03952198,7.53832016 7.33030663,8.17691188 9.96406154,8.60828874 C9.47027319,10.90716 9.18556753,13.4904027 9.15683691,16.2210599 L2.73130976e-05,16.221141 C0.149869724,12.533673 1.45129774,9.14608204 3.55091361,6.41512747 C3.60100291,6.56648955 3.70206035,6.7008643 3.84654338,6.79133281 Z M17.1432955,9.1985443 C18.9068798,9.19464 20.7706875,9.07527051 22.5388595,8.86289433 C23.0141976,11.0585253 23.3009784,13.5583577 23.3306276,16.2211439 L10.574853,16.2211439 C10.6047129,13.5394289 10.8953732,11.0229928 11.3770019,8.81509784 C13.281951,9.06366643 15.2895044,9.2025176 17.1432955,9.1985443 Z M30.2801406,6.19895738 C32.4787755,8.96637487 33.8461567,12.4357503 33.9999782,16.221141 L24.7486454,16.2212305 C24.7201804,13.5148057 24.4402635,10.9531872 23.9547212,8.66859506 C26.5042356,8.27830892 28.7199683,7.6917744 29.9427389,6.98567621 C30.2208077,6.82510327 30.3503003,6.50321703 30.2817181,6.20355981 Z M16.9527403,0.219132228 C19.0488998,0.219132228 21.0170377,3.08286289 22.1984818,7.45903527 C20.539073,7.65266995 18.7897326,7.76353347 17.1402356,7.76718519 C15.4028678,7.77090896 13.512512,7.6408442 11.7192896,7.41432628 C12.9020031,3.06316817 14.8638011,0.219132228 16.9527403,0.219132228 Z M19.8437056,-6.77445385e-05 C23.8303086,0.677086874 27.3463351,2.75385188 29.8788742,5.71243748 C29.6796595,5.62122719 29.4424438,5.6255845 29.2387304,5.74322036 C28.1592469,6.36657634 26.0604597,6.90627698 23.6224839,7.27124772 C22.7635445,4.00834989 21.4585684,1.44000247 19.8649672,0.018173125 Z M10.3184241,7.13569526 L10.2981092,7.21131397 C7.79249046,6.8103425 5.63462607,6.22660689 4.5938984,5.57495195 C4.50987586,5.52234097 4.41920206,5.48960953 4.32727093,5.47548141 C6.81682113,2.6725131 10.2062599,0.699736159 14.0370219,0.0206346426 C12.4669126,1.42416576 11.1772222,3.94033314 10.3184241,7.13569526 Z" id="形状结合"></path>
                </g>
            </g>
        </g>
    </g>
</svg>