<?xml version="1.0" encoding="UTF-8"?>
<svg width="34px" height="34px" viewBox="0 0 34 34" version="1.1" xmlns="http://www.w3.org/2000/svg" xmlns:xlink="http://www.w3.org/1999/xlink">
    <!-- Generator: Sketch 60.1 (88133) - https://sketch.com -->
    <title>elastic-load-balance-elb</title>
    <desc>Created with Sketch.</desc>
    <g id="页面-1" stroke="none" stroke-width="1" fill="none" fill-rule="evenodd">
        <g id="中优先级" transform="translate(-1130.000000, -1178.000000)">
            <g id="elastic-load-balance-elb" transform="translate(1129.000000, 1177.000000)">
                <polygon id="矩形备份-8" points="0 0 36 0 36 36 24.484679 36 0 36"></polygon>
                <g id="编组" transform="translate(1.000000, 1.000000)" fill="#FFFFFF" fill-rule="nonzero">
                    <path d="M23.8360007,25.6212127 C22.977757,29.2444852 21.6066936,32.1220869 19.9866625,33.7391694 L19.8502484,33.7621045 C18.9234948,33.9185488 17.9712594,34 17,34 C15.9807383,34 14.9824273,33.9102988 14.0125309,33.73836 C12.4013282,32.1300126 11.0359298,29.2731177 10.177386,25.6751139 C12.1489548,26.0026068 14.266096,26.1875988 16.4692773,26.20669 L16.8488889,26.2083333 C19.3070096,26.2083333 21.663155,26.0019679 23.8360007,25.6212127 Z M0.873546174,22.3939222 C2.85115048,23.6933326 5.53305371,24.7260851 8.65304778,25.3875059 L8.71157941,25.6477379 C9.39818026,28.6773953 10.4398913,31.2697189 11.7367136,33.1703798 C6.62475211,31.5065533 2.57640797,27.4873046 0.873546174,22.3939222 Z M33.212656,22.1288198 C31.5632408,27.3476399 27.463611,31.4778077 22.26368,33.1694096 C23.6068693,31.2011852 24.6766116,28.4895491 25.3613027,25.3183158 C28.4860217,24.624457 31.1530371,23.5542733 33.0875588,22.2163763 L33.212656,22.1288198 Z M16.8488889,9.20833333 C19.4511787,9.20833333 21.9210018,9.45088958 24.1534549,9.88210243 C24.5623388,12.0645746 24.7916667,14.4696661 24.7916667,17 C24.7916667,19.5299478 24.5624088,21.9346915 24.1534214,24.1178356 C22.0320402,24.5276734 19.6960827,24.7670974 17.2357813,24.7898769 L16.8488889,24.7916667 C14.3679725,24.7916667 12.0074544,24.5712089 9.85823316,24.1769975 C9.46288788,22.090176 9.23244948,19.7982575 9.21012306,17.3868924 L9.20833333,17 C9.20833333,14.4472738 9.44173804,12.0220164 9.85766928,9.8232505 C12.0067197,9.4288597 14.3675865,9.20833333 16.8488889,9.20833333 Z M8.35662783,10.1343395 C8.00972117,12.1611183 7.81302811,14.3448616 7.79330996,16.6203885 L7.79166667,17 C7.79166667,19.4125246 7.99044734,21.7268221 8.35777945,23.8660098 C4.80635166,23.0411656 1.95956161,21.7257069 0.293157273,20.1643172 C0.100951727,19.1390077 -1.13686838e-13,18.0812931 -1.13686838e-13,17 C-1.13686838e-13,15.9187069 0.100951727,14.8609923 0.293944272,13.8357671 C1.95956161,12.2742931 4.80635166,10.9588344 8.35662783,10.1343395 Z M25.6548398,10.2079395 C29.3321627,11.1034423 32.2209179,12.5293864 33.7720121,14.2045819 L33.8114662,14.4596044 C33.9356435,15.2883479 34,16.1366583 34,17 C34,17.9521127 33.9217285,18.8859441 33.7712691,19.7954107 C32.2204746,21.4708262 29.3319131,22.8966086 25.6550365,23.7910436 C26.0141642,21.6728036 26.2083333,19.384376 26.2083333,17 C26.2083333,14.6152487 26.0141031,12.3264759 25.6548398,10.2079395 Z M13.1823948,12.2024224 L13.1747301,12.2022816 L13.155,12.203 L13.1147044,12.2039652 C13.1065393,12.2045425 13.098409,12.2052595 13.0903159,12.2061142 L13.1747301,12.2022816 C13.1357549,12.2017768 13.0974743,12.2044296 13.0601316,12.2100027 C13.0384501,12.2132023 13.0170517,12.2174371 12.9960027,12.2226188 C12.990258,12.2240491 12.9845904,12.2255178 12.9789506,12.2270546 C12.9706334,12.2293552 12.9615901,12.2319995 12.9525912,12.2348282 C12.9394397,12.2389564 12.9270615,12.2432591 12.9148384,12.2478921 L12.8983169,12.2543702 C12.8925,12.2567422 12.8867214,12.2591894 12.8809823,12.2617106 C12.8684592,12.2671716 12.8556865,12.2732254 12.8430641,12.2796843 C12.8245473,12.2892179 12.8064631,12.2995181 12.788896,12.3105694 C12.7756178,12.3189602 12.7626517,12.3277277 12.7499954,12.3369069 L12.7400134,12.3442531 C12.7354582,12.3476811 12.7309455,12.3511629 12.7264763,12.3546976 C12.7129352,12.3654061 12.6993913,12.376944 12.6862956,12.3889738 L12.6767369,12.3979227 L12.6767369,12.3979227 C12.667665,12.4067047 12.6641485,12.4102035 12.6606688,12.4137389 C12.646529,12.4280718 12.6328503,12.4431955 12.6198309,12.4589001 C12.6159118,12.463671 12.6120324,12.4684785 12.608215,12.4733373 L12.6767369,12.3979227 C12.6427626,12.4303187 12.6127117,12.4652837 12.5865982,12.5022238 C12.5803134,12.5111682 12.5740483,12.520487 12.5680009,12.5299629 L12.5586124,12.5451542 C12.5557038,12.5499752 12.5528509,12.5548338 12.5500547,12.5597293 C12.5452162,12.5681079 12.5408017,12.5762262 12.536557,12.5844112 C12.5317656,12.5936623 12.5270398,12.6032844 12.5225275,12.6130306 L12.5165125,12.6264098 C12.5128328,12.6348048 12.509311,12.6432854 12.505951,12.651848 C12.4996208,12.6681044 12.4939975,12.6841965 12.4889702,12.7004369 C12.4855434,12.7112746 12.4823374,12.7225825 12.4794086,12.734003 C12.4757009,12.7486258 12.472417,12.763392 12.4695974,12.7783354 C12.4680598,12.7868459 12.4678271,12.7881712 12.4675982,12.7894972 C12.4647734,12.8054903 12.4624977,12.8221271 12.4608085,12.8389402 L12.458684,12.8650732 L12.458684,12.8650732 L12.458,12.883 L12.4574224,12.8937163 L12.4574224,12.8937163 L12.4572816,12.901381 L12.4100594,16.5469366 C12.4049925,16.9381055 12.7179899,17.2593181 13.1091588,17.264385 C13.5003277,17.269452 13.8215403,16.9564545 13.8266072,16.5652856 L13.851,14.656 L18.867,19.916 L17.1588157,19.8064617 C16.7684213,19.7813425 16.4315809,20.0774566 16.4064617,20.467851 C16.3813425,20.8582454 16.6774566,21.1950857 17.067851,21.2202049 L20.5906288,21.4468716 L20.6025925,21.4475478 C20.6106718,21.4479256 20.6187872,21.4481684 20.6269366,21.4482739 L20.665,21.446 L20.6869622,21.4465904 C20.6913379,21.446281 20.6957037,21.4459315 20.700059,21.4455422 L20.6269366,21.4482739 C20.6726438,21.448866 20.7173959,21.4451154 20.7608001,21.4374048 C20.7727049,21.4353244 20.7846678,21.4328731 20.7965232,21.4301222 C20.8113825,21.426652 20.8257798,21.4228212 20.8399911,21.4185556 C20.8560545,21.4137348 20.8720818,21.4082799 20.88785,21.4022753 C20.9024513,21.3967403 20.9169018,21.3906821 20.9311016,21.3841676 C20.9439171,21.3782539 20.9565554,21.3719871 20.9689792,21.3653589 C20.98244,21.3582142 20.995532,21.3506774 21.0083533,21.3427425 C21.0215138,21.3345735 21.0348159,21.3257213 21.0477975,21.3164384 C21.0626935,21.3057993 21.076808,21.2948601 21.0904854,21.2834132 C21.0980464,21.2770808 21.1057374,21.2703686 21.1132813,21.2634938 C21.1303989,21.2478891 21.1467852,21.2314138 21.1623373,21.2141678 C21.1655682,21.2106175 21.1688581,21.2068953 21.1721096,21.203138 C21.187649,21.1851295 21.2022282,21.1664678 21.2158618,21.1470888 C21.2215656,21.139027 21.2267534,21.1313234 21.2317928,21.1235117 C21.2417282,21.1080755 21.2513725,21.0917586 21.2603653,21.0750365 C21.2657567,21.0650454 21.2706773,21.0553447 21.2753792,21.0455144 C21.2839693,21.0275498 21.2919575,21.0088657 21.2991467,20.9897863 C21.3029905,20.9795728 21.3067174,20.9689173 21.3101953,20.9581435 C21.3155713,20.9415298 21.3201946,20.9252036 21.3242368,20.9086466 C21.3277278,20.8942475 21.3309694,20.878832 21.3337059,20.8632283 C21.3369689,20.8447777 21.339403,20.8268053 21.3411518,20.8086286 L21.3429827,20.7854824 L21.3429827,20.7854824 L21.3436589,20.7735186 C21.3440367,20.7654393 21.3442795,20.7573239 21.344385,20.7491745 L21.3916072,17.103619 C21.3966742,16.7124501 21.0836767,16.3912375 20.6925079,16.3861705 C20.301339,16.3811036 19.9801264,16.694101 19.9750594,17.0852699 L19.95,18.999 L14.929,13.734 L16.642851,13.8440938 C17.0332454,13.869213 17.3700857,13.573099 17.3952049,13.1827046 C17.4203241,12.7923102 17.1242101,12.4554698 16.7338157,12.4303506 L13.2110379,12.203684 L13.192,12.203 L13.1823948,12.2024224 L13.1823948,12.2024224 Z M22.26368,0.830590414 C27.463611,2.52219233 31.5632408,6.6523601 33.212656,11.8711802 C31.2692726,10.4926347 28.5542288,9.39069899 25.3618623,8.68133663 C24.6934327,5.58835994 23.6591985,2.93232801 22.361814,0.97609449 L22.26368,0.830590414 Z M11.73632,0.830590414 C10.4029944,2.78430111 9.33904098,5.47081478 8.65375585,8.6122971 L8.54365884,8.63587472 C5.47070645,9.29805601 2.82859694,10.3216474 0.874376686,11.6055816 C2.57640797,6.51269537 6.62475211,2.49344673 11.73632,0.830590414 Z M17,0 C18.0189114,0 19.0168863,0.0896395516 19.9864689,0.261462741 C21.6066936,1.87791312 22.977757,4.75551476 23.8355125,8.37915836 C21.663155,7.99803214 19.3070096,7.79166667 16.8488889,7.79166667 C14.5093119,7.79166667 12.2621118,7.97860799 10.1774055,8.32492145 C11.0358867,4.72692347 12.4013634,1.86987086 14.0133375,0.260830644 C14.9831137,0.0896395516 15.9810886,0 17,0 Z" id="形状结合"></path>
                </g>
            </g>
        </g>
    </g>
</svg>