<?xml version="1.0" encoding="UTF-8"?>
<svg width="36px" height="36px" viewBox="0 0 36 36" version="1.1" xmlns="http://www.w3.org/2000/svg" xmlns:xlink="http://www.w3.org/1999/xlink">
    <!-- Generator: Sketch 60.1 (88133) - https://sketch.com -->
    <title>elastic-search</title>
    <desc>Created with Sketch.</desc>
    <g id="页面-1" stroke="none" stroke-width="1" fill="none" fill-rule="evenodd">
        <g id="模型icon-库" transform="translate(-2458.000000, -952.000000)">
            <g id="elastic-search" transform="translate(2458.000000, 952.000000)">
                <rect id="矩形备份-16" opacity="0.446149554" x="0" y="0" width="36" height="36"></rect>
                <path d="M0.21884595,17.8036485 C0.118334216,19.6133375 0.419869419,21.4230265 1.12345156,23.1321772 L14.1899771,23.1321772 C14.592024,21.4230265 14.8935592,19.7138758 14.8935592,18.0047251 C14.8935592,16.2955744 14.6925357,14.5864237 14.1899771,12.877273 L0.922428092,12.877273 C0.520381154,14.4858854 0.21884595,16.0944978 0.21884595,17.8036485 Z M26.6534322,12.877273 L16.7027704,12.877273 C17.1048174,14.5864237 17.4063526,16.2955744 17.4063526,18.0047251 C17.4063526,19.7138758 17.2053291,21.4230265 16.7027704,23.1321772 L26.6534322,23.1321772 C29.4677607,23.3332537 31.9805541,21.2219499 32.1815776,18.4068782 C32.382601,15.5918064 30.2718546,13.0783495 27.457526,12.877273 C27.1559908,12.877273 26.9549674,12.877273 26.6534322,12.877273 Z M2.22908064,10.4643543 L13.5869067,10.4643543 C12.3807658,7.95089744 10.7725781,5.5379788 8.96336686,3.32613672 C6.04852656,5.03528742 3.73675666,7.44820605 2.22908064,10.4643543 Z M28.6636668,10.4643543 C31.2769719,10.4643543 33.890277,9.45897158 35.8,7.54874433 C31.7795306,2.82344534 25.8493383,0.108911877 19.6176107,0.209450154 C16.6022587,0.108911877 13.6874184,0.812679812 10.9736016,2.22021568 C13.084348,4.53259604 14.7930475,7.2471295 15.8986765,10.1627395 L28.6636668,10.4643543 Z M2.02805717,25.5450958 L13.3858832,25.5450958 C12.3807658,28.159091 10.7725781,30.5720096 8.76234339,32.4822369 C5.84750309,30.7730862 3.63624493,28.3601675 2.02805717,25.5450958 L2.02805717,25.5450958 Z M28.6636668,25.5450958 C31.2769719,25.5450958 33.890277,26.5504786 35.8,28.4607058 C32.2820893,32.88439 26.0503617,35.8 19.6176107,35.8 C16.6022587,35.8 13.6874184,35.0962321 10.9736016,33.7892345 C13.1848597,31.4768541 14.7930475,28.7623207 15.8986765,25.8467106 L28.6636668,25.5450958 Z" id="形状" fill="#FFFFFF" fill-rule="nonzero"></path>
            </g>
        </g>
    </g>
</svg>