<?xml version="1.0" encoding="UTF-8"?>
<svg width="24px" height="24px" viewBox="0 0 24 24" version="1.1" xmlns="http://www.w3.org/2000/svg" xmlns:xlink="http://www.w3.org/1999/xlink">
    <title>Etcd</title>
    <g id="页面-1" stroke="none" stroke-width="1" fill="none" fill-rule="evenodd">
        <g id="Etcd备份-2" transform="translate(-12.000000, -12.000000)">
            <g id="Etcd" transform="translate(12.000000, 12.000000)">
                <rect id="矩形" fill="#000000" fill-rule="nonzero" opacity="0" x="0" y="0" width="24" height="24"></rect>
                <path d="M11.1120002,10.875 C11.1124141,11.6313538 10.4996039,12.2448354 9.74325014,12.2452498 C8.98689634,12.2456638 8.37341466,11.6328537 8.3730002,10.8764999 C8.37258616,10.1201461 8.9853962,9.50666433 9.74175,9.50624979 C10.104964,9.50605103 10.4533807,9.65014644 10.7103525,9.90683687 C10.9673242,10.1635273 11.1118011,10.511786 11.1120002,10.875 L11.1120002,10.875 Z M12.8819992,10.875 C12.8813933,11.4291836 13.2148388,11.9291079 13.7267218,12.1414652 C14.2386048,12.3538224 14.8280147,12.2367491 15.2198819,11.8448819 C15.6117491,11.4530147 15.7288224,10.8636048 15.5164652,10.3517218 C15.3041079,9.83983875 14.8041836,9.50639334 14.25,9.50699917 C13.4948172,9.50782669 12.8828267,10.1198172 12.8819992,10.875 L12.8819992,10.875 Z" id="形状" fill="#FFFFFF"></path>
                <path d="M22.2,12.3615 C22.1002117,12.3696919 22.0001238,12.3736954 21.9,12.3735 C21.2973561,12.3728079 20.7028874,12.2340045 20.16225,11.96775 C20.3385725,10.9526123 20.4169327,9.92287928 20.39625,8.89275 C19.8106632,8.04436976 19.1443039,7.25468496 18.4065,6.53475 C18.7337946,5.91999934 19.2175991,5.40256131 19.809,5.03475 L20.06625,4.875 L19.866,4.65 C18.8553987,3.50364417 17.6061789,2.59232805 16.206,1.98 L15.92775,1.8585 L15.85725,2.1525 C15.6915263,2.82970068 15.349133,3.45082245 14.865,3.9525 C13.9507698,3.46614305 12.9912125,3.07026289 12,2.7705 C11.0097008,3.06952789 10.0509152,3.46439582 9.13725,3.9495 C8.65417796,3.44749932 8.31283214,2.82640002 8.148,2.1495 L8.07675,1.8555 L7.79925,1.97625 C6.39934785,2.59226836 5.14964371,3.5044705 4.13625,4.65 L3.93525,4.875 L4.19175,5.0325 C4.78129681,5.39837682 5.26400685,5.91316406 5.59125,6.525 C4.8555172,7.24256011 4.19045909,8.02917719 3.60525,8.874 C3.58030989,9.91083925 3.65566034,10.9476615 3.83025,11.97 C3.29320717,12.2330822 2.7032687,12.370307 2.10525,12.37125 C1.99875,12.37125 1.899,12.3675 1.80525,12.35925 L1.5,12.33825 L1.5285,12.63825 C1.67509203,14.1614016 2.15547915,15.6335474 2.9355,16.95 L3.0855,17.21025 L3.31575,17.0145 C3.84903696,16.5630283 4.49277987,16.261476 5.181,16.14075 C5.62887626,17.0564046 6.16331001,17.9271197 6.777,18.741 C7.75919205,19.085669 8.77240491,19.3345768 9.8025,19.48425 C9.90535711,20.1826429 9.81831154,20.8958467 9.5505,21.549 L9.43575,21.82875 L9.73125,21.894 C10.4762805,22.058823 11.2369563,22.1425602 12,22.14375 L14.26575,21.8925 L14.56125,21.82725 L14.44575,21.54675 C14.1785609,20.8931682 14.0917891,20.1798269 14.1945,19.48125 C15.2205076,19.3314409 16.2296781,19.0830413 17.208,18.7395 C17.8224896,17.9249293 18.3576756,17.0534627 18.80625,16.137 C19.497722,16.25713 20.1448241,16.5589384 20.68125,17.0115 L20.9115,17.2065 L21.0615,16.94625 C21.8418878,15.6313801 22.3220853,14.160311 22.46775,12.63825 L22.49625,12.33825 L22.2,12.3615 Z M15.2355,16.04475 C13.1123035,16.6297094 10.8704465,16.6297094 8.74725,16.04475 C8.16009528,15.1337035 7.69322353,14.1505502 7.35825,13.11975 C7.022979,12.0801209 6.82628307,11.000815 6.77325,9.90975 C7.45518174,9.06338841 8.24574671,8.31064951 9.1245,7.671 C10.0105616,7.02694669 10.9773164,6.50196409 12,6.1095 C13.0177251,6.50185581 13.9800574,7.02499949 14.86275,7.66575 C15.7453818,8.30879249 16.5394622,9.06529972 17.2245,9.91575 C17.1679795,11.002247 16.969287,12.0766486 16.6335,13.1115 C16.2978915,14.1453285 15.8292082,15.1311014 15.23925,16.044 L15.2355,16.04475 Z" id="形状" fill="#FFFFFF" fill-rule="nonzero"></path>
            </g>
        </g>
    </g>
</svg>