<?xml version="1.0" encoding="UTF-8"?>
<svg width="35px" height="35px" viewBox="0 0 35 35" version="1.1" xmlns="http://www.w3.org/2000/svg" xmlns:xlink="http://www.w3.org/1999/xlink">
    <!-- Generator: Sketch 59.1 (86144) - https://sketch.com -->
    <title>网卡</title>
    <desc>Created with Sketch.</desc>
    <defs>
        <linearGradient x1="49.9880952%" y1="100.042834%" x2="49.9880952%" y2="0.0461285008%" id="linearGradient-1">
            <stop stop-color="#FFFFFF" offset="0%"></stop>
            <stop stop-color="#FFFFFF" stop-opacity="0.9701" offset="51.46%"></stop>
            <stop stop-color="#FFFFFF" stop-opacity="0.3" offset="100%"></stop>
        </linearGradient>
    </defs>
    <g id="页面-1" stroke="none" stroke-width="1" fill="none" fill-rule="evenodd">
        <g id="高优先级" transform="translate(-1817.000000, -272.000000)">
            <g id="网卡" transform="translate(1817.000000, 271.000000)">
                <rect id="矩形备份-13" x="0" y="0" width="36" height="36"></rect>
                <g id="编组" transform="translate(1.000000, 2.000000)">
                    <line x1="0.5" y1="0" x2="0.5" y2="33" id="路径" stroke="#FFFFFF" stroke-width="1.5" stroke-linecap="round"></line>
                    <path d="M32.1257109,3 C33.155642,3 34,3.82211538 34,4.84519231 L34,20.1639423 C33.9907213,21.1778846 33.1463634,22 32.1164322,22 L3.00927866,22 C3,22 3,21.9908654 3,21.9908654 L3,3 L32.1257109,3 Z M25.9090093,8.35288462 L21.2696797,8.35288462 C20.2490272,8.35288462 19.4139479,9.16586538 19.4139479,10.1798077 L19.4139479,10.1798077 L19.413,11.778 L13.9631654,11.7782809 C13.6541264,10.5963772 12.5642991,9.72307692 11.2672852,9.72307692 C9.72994667,9.72307692 8.48368752,10.9499889 8.48368752,12.4634615 C8.48368752,13.9769342 9.72994667,15.2038462 11.2672852,15.2038462 C12.5642991,15.2038462 13.6541264,14.3305459 13.9631654,13.1486422 L19.413,13.148 L19.4139479,14.7471154 C19.4139479,15.7016827 20.159233,16.4913702 21.1167988,16.5679525 L21.2696797,16.5740385 L25.9090093,16.5740385 C26.9389404,16.5740385 27.7647411,15.7610577 27.7647411,14.7471154 L27.7647411,14.7471154 L27.7647411,10.1798077 C27.7647411,9.175 26.9389404,8.35288462 25.9090093,8.35288462 L25.9090093,8.35288462 Z" id="形状结合" fill="#FFFFFF" fill-rule="nonzero"></path>
                    <path d="M28,22 L28,28 L9,28 L9,22 L28,22 Z M11.8556548,22.3163097 C11.4652749,22.3163097 11.1488095,22.6482238 11.1488095,23.0576606 L11.1488095,25.8649094 C11.1488095,26.2743462 11.4652749,26.6062603 11.8556548,26.6062603 C12.2460346,26.6062603 12.5625,26.2743462 12.5625,25.8649094 L12.5625,23.0576606 C12.5625,22.6482238 12.2460346,22.3163097 11.8556548,22.3163097 Z M14.1552579,22.3163097 C13.7648781,22.3163097 13.4484127,22.6482238 13.4484127,23.0576606 L13.4484127,25.8649094 C13.4484127,26.2743462 13.7648781,26.6062603 14.1552579,26.6062603 C14.5456378,26.6062603 14.8621032,26.2743462 14.8621032,25.8649094 L14.8621032,23.0576606 C14.8621032,22.6482238 14.5456378,22.3163097 14.1552579,22.3163097 Z M16.3323413,22.3163097 C15.9419614,22.3163097 15.625496,22.6482238 15.625496,23.0576606 L15.625496,25.8649094 C15.625496,26.2743462 15.9419614,26.6062603 16.3323413,26.6062603 C16.7227211,26.6062603 17.0391865,26.2743462 17.0391865,25.8649094 L17.0391865,23.0576606 C17.0391865,22.6482238 16.7227211,22.3163097 16.3323413,22.3163097 Z M25.7003968,22.3163097 C25.310017,22.3163097 24.9935516,22.6482238 24.9935516,23.0576606 L24.9935516,25.8649094 C24.9935516,26.2743462 25.310017,26.6062603 25.7003968,26.6062603 C26.0907767,26.6062603 26.4072421,26.2743462 26.4072421,25.8649094 L26.4072421,23.0576606 C26.4072421,22.6482238 26.0907767,22.3163097 25.7003968,22.3163097 Z M18.6696429,22.3163097 C18.279263,22.3163097 17.9627976,22.6482238 17.9627976,23.0576606 L17.9627976,25.8649094 C17.9627976,26.2743462 18.279263,26.6062603 18.6696429,26.6062603 C19.0600227,26.6062603 19.3764881,26.2743462 19.3764881,25.8649094 L19.3764881,23.0576606 C19.3764881,22.6482238 19.0600227,22.3163097 18.6696429,22.3163097 Z M20.8844246,22.3163097 C20.4940448,22.3163097 20.1775794,22.6482238 20.1775794,23.0576606 L20.1775794,25.8649094 C20.1775794,26.2743462 20.4940448,26.6062603 20.8844246,26.6062603 C21.2748044,26.6062603 21.5912698,26.2743462 21.5912698,25.8649094 L21.5912698,23.0576606 C21.5912698,22.6482238 21.2748044,22.3163097 20.8844246,22.3163097 Z M23.202877,22.3163097 C22.8124971,22.3163097 22.4960317,22.6482238 22.4960317,23.0576606 L22.4960317,25.8649094 C22.4960317,26.2743462 22.8124971,26.6062603 23.202877,26.6062603 C23.5932568,26.6062603 23.9097222,26.2743462 23.9097222,25.8649094 L23.9097222,23.0576606 C23.9097222,22.6482238 23.5932568,22.3163097 23.202877,22.3163097 Z" id="形状结合" fill="url(#linearGradient-1)" fill-rule="nonzero"></path>
                </g>
            </g>
        </g>
    </g>
</svg>