<?xml version="1.0" encoding="UTF-8"?>
<svg width="36px" height="36px" viewBox="0 0 36 36" version="1.1" xmlns="http://www.w3.org/2000/svg" xmlns:xlink="http://www.w3.org/1999/xlink">
    <!-- Generator: Sketch 60.1 (88133) - https://sketch.com -->
    <title>eth</title>
    <desc>Created with Sketch.</desc>
    <g id="页面-1" stroke="none" stroke-width="1" fill="none" fill-rule="evenodd">
        <g id="高优先级" transform="translate(-1806.000000, -1150.000000)">
            <g id="eth" transform="translate(1806.000000, 1150.000000)">
                <rect id="矩形备份-13" x="0" y="0" width="36" height="36"></rect>
                <g id="编组">
                    <line x1="1.09714286" y1="0.72" x2="1.09714286" y2="35.0057143" id="路径" stroke="#FFFFFF" stroke-width="1.5" stroke-linecap="round"></line>
                    <path d="M31.5942857,3.51428571 C33.4971429,3.51428571 35.0571429,5.05714286 35.0571429,6.97714286 L35.0571429,19.8857143 C35.0571429,21.7885714 33.5142857,23.3314286 31.5942857,23.3314286 L3.25714286,23.3314286 C3.24571429,23.3314286 3.24190476,23.3238095 3.24063492,23.3187302 L3.24,3.51428571 L31.5942857,3.51428571 Z M20.1085714,14.2457143 C20.1085714,16.0685714 21.5342667,17.5710476 23.3481568,17.6691873 L23.5371429,17.6742857 L25.2514286,17.6742857 C27.0742857,17.6742857 28.5767619,16.2485905 28.6749016,14.4347003 L28.68,14.2457143 L28.68,12.5314286 C28.68,10.7085714 27.2543048,9.20609524 25.4404146,9.10795556 L25.2514286,9.10285714 L23.5371429,9.10285714 C21.7142857,9.10285714 20.2118095,10.5285524 20.1136698,12.3424425 L20.1085714,12.5314286 L14.4752036,12.5314725 C14.1109434,11.3690728 13.0253887,10.5257143 11.7428571,10.5257143 C10.1617448,10.5257143 8.88,11.8074591 8.88,13.3885714 C8.88,14.9696838 10.1617448,16.2514286 11.7428571,16.2514286 C13.0252819,16.2514286 14.1107625,15.4082105 14.4751126,14.2459609 L20.1085714,14.2457143 Z" id="形状结合" fill="#FFFFFF" fill-rule="nonzero"></path>
                    <path d="M28.5771429,24.1885714 L28.5771429,29.9657143 L9.37714286,29.9657143 L9.37714286,24.1885714 L28.5771429,24.1885714 Z M12.2571429,25.2342857 C12.0204494,25.2342857 11.8285714,25.4261637 11.8285714,25.6628571 L11.8285714,25.6628571 L11.8285714,28.3542857 L11.8398903,28.4525532 C11.8843083,28.6418856 12.0542627,28.7828571 12.2571429,28.7828571 C12.4938363,28.7828571 12.6857143,28.5909792 12.6857143,28.3542857 L12.6857143,28.3542857 L12.6857143,25.6628571 L12.6743954,25.5645896 C12.6299774,25.3752573 12.460023,25.2342857 12.2571429,25.2342857 Z M14.5714286,25.2342857 C14.3347351,25.2342857 14.1428571,25.4261637 14.1428571,25.6628571 L14.1428571,25.6628571 L14.1428571,28.3542857 L14.154176,28.4525532 C14.198594,28.6418856 14.3685485,28.7828571 14.5714286,28.7828571 C14.808122,28.7828571 15,28.5909792 15,28.3542857 L15,28.3542857 L15,25.6628571 L14.9886811,25.5645896 C14.9442631,25.3752573 14.7743087,25.2342857 14.5714286,25.2342857 Z M16.7657143,25.2342857 C16.5290208,25.2342857 16.3371429,25.4261637 16.3371429,25.6628571 L16.3371429,25.6628571 L16.3371429,28.3542857 L16.3484617,28.4525532 C16.3928797,28.6418856 16.5628342,28.7828571 16.7657143,28.7828571 C17.0024077,28.7828571 17.1942857,28.5909792 17.1942857,28.3542857 L17.1942857,28.3542857 L17.1942857,25.6628571 L17.1829668,25.5645896 C17.1385488,25.3752573 16.9685944,25.2342857 16.7657143,25.2342857 Z M26.2457143,25.2342857 C26.0090208,25.2342857 25.8171429,25.4261637 25.8171429,25.6628571 L25.8171429,25.6628571 L25.8171429,28.3542857 L25.8284617,28.4525532 C25.8728797,28.6418856 26.0428342,28.7828571 26.2457143,28.7828571 C26.4824077,28.7828571 26.6742857,28.5909792 26.6742857,28.3542857 L26.6742857,28.3542857 L26.6742857,25.6628571 L26.6629668,25.5645896 C26.6185488,25.3752573 26.4485944,25.2342857 26.2457143,25.2342857 Z M19.1314286,25.2342857 C18.8947351,25.2342857 18.7028571,25.4261637 18.7028571,25.6628571 L18.7028571,25.6628571 L18.7028571,28.3542857 L18.714176,28.4525532 C18.758594,28.6418856 18.9285485,28.7828571 19.1314286,28.7828571 C19.368122,28.7828571 19.56,28.5909792 19.56,28.3542857 L19.56,28.3542857 L19.56,25.6628571 L19.5486811,25.5645896 C19.5042631,25.3752573 19.3343087,25.2342857 19.1314286,25.2342857 Z M21.3771429,25.2342857 C21.1404494,25.2342857 20.9485714,25.4261637 20.9485714,25.6628571 L20.9485714,25.6628571 L20.9485714,28.3542857 L20.9598903,28.4525532 C21.0043083,28.6418856 21.1742627,28.7828571 21.3771429,28.7828571 C21.6138363,28.7828571 21.8057143,28.5909792 21.8057143,28.3542857 L21.8057143,28.3542857 L21.8057143,25.6628571 L21.7943954,25.5645896 C21.7499774,25.3752573 21.580023,25.2342857 21.3771429,25.2342857 Z M23.7257143,25.2342857 C23.4890208,25.2342857 23.2971429,25.4261637 23.2971429,25.6628571 L23.2971429,25.6628571 L23.2971429,28.3542857 L23.3084617,28.4525532 C23.3528797,28.6418856 23.5228342,28.7828571 23.7257143,28.7828571 C23.9624077,28.7828571 24.1542857,28.5909792 24.1542857,28.3542857 L24.1542857,28.3542857 L24.1542857,25.6628571 L24.1429668,25.5645896 C24.0985488,25.3752573 23.9285944,25.2342857 23.7257143,25.2342857 Z" id="形状结合" fill="#FFFFFF" fill-rule="nonzero"></path>
                </g>
            </g>
        </g>
    </g>
</svg>