<?xml version="1.0" encoding="UTF-8"?>
<svg width="35px" height="34px" viewBox="0 0 35 34" version="1.1" xmlns="http://www.w3.org/2000/svg" xmlns:xlink="http://www.w3.org/1999/xlink">
    <!-- Generator: Sketch 59.1 (86144) - https://sketch.com -->
    <title>F5RULE</title>
    <desc>Created with Sketch.</desc>
    <defs>
        <linearGradient x1="50%" y1="0%" x2="50%" y2="59.6706081%" id="linearGradient-1">
            <stop stop-color="#FFFFFF" stop-opacity="0" offset="0%"></stop>
            <stop stop-color="#FFFFFF" offset="100%"></stop>
        </linearGradient>
    </defs>
    <g id="页面-1" stroke="none" stroke-width="1" fill="none" fill-rule="evenodd">
        <g id="高优先级" transform="translate(-696.000000, -273.000000)">
            <g id="F5RULE" transform="translate(695.000000, 271.000000)">
                <rect id="矩形备份-2" x="0" y="0" width="36" height="36"></rect>
                <g id="编组-2" transform="translate(0.000000, 1.000000)">
                    <polygon id="矩形" fill="#FFFFFF" transform="translate(21.061147, 12.703124) rotate(-315.000000) translate(-21.061147, -12.703124) " points="13.3338744 8.15766976 28.7884199 8.15766976 28.7884199 17.2485789 13.3338744 17.2485789"></polygon>
                    <path d="M13.5,0 C14.3284271,-1.52179594e-16 15,0.671572875 15,1.5 L15,8.5 C15,9.32842712 14.3284271,10 13.5,10 C12.6715729,10 12,9.32842712 12,8.5 L12,1.5 C12,0.671572875 12.6715729,1.52179594e-16 13.5,0 Z" id="矩形" fill="#FFFFFF" transform="translate(13.500000, 5.000000) rotate(-315.000000) translate(-13.500000, -5.000000) "></path>
                    <path d="M28.5,15 C29.3284271,15 30,15.6715729 30,16.5 L30,23.5 C30,24.3284271 29.3284271,25 28.5,25 C27.6715729,25 27,24.3284271 27,23.5 L27,16.5 C27,15.6715729 27.6715729,15 28.5,15 Z" id="矩形" fill="#FFFFFF" transform="translate(28.500000, 20.000000) rotate(-315.000000) translate(-28.500000, -20.000000) "></path>
                    <path d="M10.4545455,11.0369988 C11.207661,11.0369988 11.8181818,11.6475195 11.8181818,12.4006351 L11.8181818,34.2188169 C11.8181818,34.9719325 11.207661,35.5824533 10.4545455,35.5824533 C9.70142989,35.5824533 9.09090909,34.9719325 9.09090909,34.2188169 L9.09090909,12.4006351 C9.09090909,11.6475195 9.70142989,11.0369988 10.4545455,11.0369988 Z" id="矩形" fill="url(#linearGradient-1)" transform="translate(10.454545, 23.309726) rotate(-315.000000) translate(-10.454545, -23.309726) "></path>
                    <path d="M17.995061,32 L34.004939,32 C34.0372729,32 34.0676114,32.0156338 34.0863762,32.0419656 L35.8873804,34.5692384 C35.9194319,34.6142149 35.9089541,34.6766584 35.8639776,34.7087099 C35.8470347,34.7207838 35.826748,34.7272727 35.8059432,34.7272727 L16.1940568,34.7272727 C16.1388283,34.7272727 16.0940568,34.6825012 16.0940568,34.6272727 C16.0940568,34.606468 16.1005457,34.5861812 16.1126196,34.5692384 L17.9136238,32.0419656 C17.9323886,32.0156338 17.9627271,32 17.995061,32 Z" id="矩形" fill="#FFFFFF"></path>
                </g>
            </g>
        </g>
    </g>
</svg>