<?xml version="1.0" encoding="UTF-8"?>
<svg width="30px" height="34px" viewBox="0 0 30 34" version="1.1" xmlns="http://www.w3.org/2000/svg" xmlns:xlink="http://www.w3.org/1999/xlink">
    <!-- Generator: Sketch 60.1 (88133) - https://sketch.com -->
    <title>f5-vs</title>
    <desc>Created with Sketch.</desc>
    <g id="页面-1" stroke="none" stroke-width="1" fill="none" fill-rule="evenodd">
        <g id="高优先级" transform="translate(-582.000000, -1151.000000)">
            <g id="f5-vs" transform="translate(579.000000, 1150.000000)">
                <rect id="矩形备份" x="0" y="0" width="36" height="36"></rect>
                <g id="编组" transform="translate(3.000000, 1.000000)">
                    <path d="M14.0586566,0.254929186 C14.6357616,-0.0849763954 15.3547777,-0.0849763954 15.9413434,0.254929186 L15.9413434,0.254929186 L29.0539262,7.80838656 C29.640492,8.14829214 30,8.77145237 30,9.44182172 L30,9.44182172 L30,24.5581783 C30,25.2379894 29.640492,25.8517079 29.0539262,26.1916134 L29.0539262,26.1916134 L15.9413434,33.7450708 C15.3642384,34.0849764 14.6452223,34.0849764 14.0586566,33.7450708 L14.0586566,33.7450708 L0.946073794,26.1916134 C0.359508042,25.8517079 0,25.2285476 0,24.5581783 L0,24.5581783 L0,9.44182172 C0,8.76201055 0.359508042,8.14829214 0.946073794,7.80838656 L0.946073794,7.80838656 Z M13.8338483,11.5676129 L10.845,20.058 L7.8692081,11.5868481 C7.73954149,11.217785 7.33464184,11.0235057 6.96483941,11.1529131 C6.59503698,11.2823204 6.40036843,11.6864105 6.53003504,12.0554735 L10.1724191,22.4225938 C10.3020858,22.7916568 10.7069854,22.9859361 11.0767878,22.8565288 C11.183549,22.8191691 11.2757133,22.7589157 11.3496909,22.6832207 C11.4245551,22.6096299 11.4839173,22.5186715 11.5209293,22.4135035 L15.1727742,12.0369414 C15.3026353,11.6679465 15.1081798,11.2637543 14.7384456,11.1341528 C14.3687115,11.0045513 13.9637095,11.198618 13.8338483,11.5676129 Z M19.9810785,11.0941405 C18.0419956,11.0941405 16.4427625,12.5574802 16.4427625,14.3893363 C16.4427625,16.1621002 17.9404834,17.5897396 19.7945285,17.6800006 L19.7945285,17.6800006 L20.1327989,17.6894536 C21.2350717,17.7611971 22.1002838,18.6076424 22.1002838,19.5917801 C22.1002838,20.6126843 21.1625855,21.4707026 19.9810785,21.4707026 C18.986603,21.4707026 18.1411383,20.8440761 17.9248202,20.0014257 C17.8275632,19.6225687 17.4409812,19.3941291 17.0613651,19.4911917 C16.6817491,19.5882542 16.4528519,19.9740633 16.5501089,20.3529203 C16.930437,21.8344588 18.3505271,22.8869758 19.9810785,22.8869758 C21.9201614,22.8869758 23.5193945,21.4236361 23.5193945,19.5917801 C23.5193945,17.7570972 21.9165196,16.2682588 19.9810785,16.2682588 C18.7995716,16.2682588 17.8618732,15.4102405 17.8618732,14.3893363 C17.8618732,13.3684321 18.7995716,12.5104138 19.9810785,12.5104138 C20.975554,12.5104138 21.8210187,13.1370402 22.0373369,13.9796906 C22.1345939,14.3585477 22.5211759,14.5869872 22.9007919,14.4899247 C23.280408,14.3928621 23.5093052,14.0070531 23.4120482,13.6281961 C23.03172,12.1466576 21.6116299,11.0941405 19.9810785,11.0941405 Z" id="形状结合" fill="#FFFFFF" fill-rule="nonzero"></path>
                    <g transform="translate(6.000000, 12.000000)"></g>
                </g>
            </g>
        </g>
    </g>
</svg>