<?xml version="1.0" encoding="UTF-8"?>
<svg width="32px" height="36px" viewBox="0 0 32 36" version="1.1" xmlns="http://www.w3.org/2000/svg" xmlns:xlink="http://www.w3.org/1999/xlink">
    <!-- Generator: Sketch 59.1 (86144) - https://sketch.com -->
    <title>F5</title>
    <desc>Created with Sketch.</desc>
    <defs>
        <linearGradient x1="49.9921161%" y1="99.9933352%" x2="49.9921161%" y2="-0.00666481533%" id="linearGradient-1">
            <stop stop-color="#FFFFFF" offset="0%"></stop>
            <stop stop-color="#FFFFFF" stop-opacity="0.9701" offset="51.46%"></stop>
            <stop stop-color="#FFFFFF" stop-opacity="0.3" offset="100%"></stop>
        </linearGradient>
    </defs>
    <g id="页面-1" stroke="none" stroke-width="1" fill="none" fill-rule="evenodd">
        <g id="高优先级" transform="translate(-379.000000, -271.000000)">
            <g id="F5" transform="translate(377.000000, 271.000000)">
                <rect id="矩形" x="0" y="0" width="36" height="36"></rect>
                <g id="编组" transform="translate(2.500000, 0.000000)">
                    <path d="M14.5272785,0.762427104 C15.1236203,0.412524299 15.8666036,0.412524299 16.4727215,0.762427104 L16.4727215,0.762427104 L30.0223904,8.53804499 C30.6285084,8.88794779 31,9.52943627 31,10.2195224 L31,10.2195224 L31,25.7804776 C31,26.4802833 30.6285084,27.1120522 30.0223904,27.461955 L30.0223904,27.461955 L16.4727215,35.2375729 C15.8763797,35.5874757 15.1333964,35.5874757 14.5272785,35.2375729 L14.5272785,35.2375729 L0.977609587,27.461955 C0.371491643,27.1120522 0,26.4705637 0,25.7804776 L0,25.7804776 L0,10.2195224 C0,9.51971675 0.371491643,8.88794779 0.977609587,8.53804499 L0.977609587,8.53804499 Z M23.0715863,12.0273535 L17.7045096,12.0273535 L17.6857903,12.0276298 C17.6790178,12.027446 17.6722224,12.0273535 17.6654052,12.0273535 C17.2604661,12.0273535 16.932198,12.3537219 16.932198,12.7563177 L16.932198,16.6149681 C16.932198,17.2340997 17.5576336,17.5928398 18.0890451,17.3947137 C19.6353789,16.6692959 21.4283451,17.2303018 22.1504942,18.5803976 C22.8163426,19.8206893 22.3945562,21.450419 21.211557,22.2526957 C19.8854364,23.1394892 17.9250985,22.7308692 16.9649635,21.3028815 C16.7399216,20.9681816 16.284582,20.8782305 15.947934,21.1019701 C15.611286,21.3257097 15.5208114,21.7784143 15.7458533,22.1131141 C17.152675,24.2054492 20.0238971,24.8039373 22.0339379,23.4597694 C23.8336223,22.2392928 24.465751,19.7968275 23.4446932,17.8948816 C22.5281412,16.1813377 20.5241753,15.3228042 18.6107794,15.6955037 L18.3986124,15.7420007 L18.398,13.485 L23.0715863,13.4852819 C23.4765254,13.4852819 23.8047934,13.1589135 23.8047934,12.7563177 C23.8047934,12.3537219 23.4765254,12.0273535 23.0715863,12.0273535 Z M13.4225796,12.0273535 L7.05834122,12.0273535 L7.05834122,12.0273535 C6.65340207,12.0273535 6.32513403,12.3537219 6.32513403,12.7563177 L6.32513403,23.4477923 C6.32513403,23.8503881 6.65340207,24.1767565 7.05834122,24.1767565 C7.46328037,24.1767565 7.79154841,23.8503881 7.79154841,23.4477923 L7.791,18.743 L13.4225796,18.7435435 C13.8275188,18.7435435 14.1557868,18.4171751 14.1557868,18.0145793 C14.1557868,17.6119835 13.8275188,17.2856151 13.4225796,17.2856151 L7.791,17.285 L7.791,13.485 L13.4225796,13.4852819 C13.8275188,13.4852819 14.1557868,13.1589135 14.1557868,12.7563177 C14.1557868,12.3537219 13.8275188,12.0273535 13.4225796,12.0273535 Z" id="形状结合" fill="url(#linearGradient-1)" fill-rule="nonzero"></path>
                    <g transform="translate(14.000000, 12.000000)">
                        <g transform="translate(0.526316, 0.000000)"></g>
                    </g>
                </g>
            </g>
        </g>
    </g>
</svg>