<?xml version="1.0" encoding="UTF-8"?>
<svg width="33px" height="36px" viewBox="0 0 33 36" version="1.1" xmlns="http://www.w3.org/2000/svg" xmlns:xlink="http://www.w3.org/1999/xlink">
    <!-- Generator: Sketch 60.1 (88133) - https://sketch.com -->
    <title>grafana</title>
    <desc>Created with Sketch.</desc>
    <g id="页面-1" stroke="none" stroke-width="1" fill="none" fill-rule="evenodd">
        <g id="模型icon-库" transform="translate(-4368.000000, -955.000000)">
            <g id="grafana" transform="translate(4367.000000, 955.000000)">
                <rect id="矩形备份-22" opacity="0.446149554" x="0" y="0" width="36" height="36"></rect>
                <path d="M33.2333333,13.9455556 C33.0355556,13.1544444 32.7388889,12.3633333 32.3433333,11.4733333 C31.9477778,10.5833333 31.3544444,9.69333333 30.6622222,8.80333333 C30.3655556,8.50666667 30.0688889,8.11111111 29.7722222,7.81444444 C30.2666667,5.83666667 29.1788889,4.05666667 29.1788889,4.05666667 C27.3,3.95777778 26.0144444,4.65 25.6188889,4.94666667 C25.5121257,4.88985614 24.4185008,4.31047027 24.0124274,4.21796441 C23.6063541,4.12545855 22.4911957,3.95777778 22.0588889,3.95777778 C21.2677778,1.28777778 18.7955556,0.2 18.7955556,0.2 C16.1255556,1.88111111 15.6311111,4.25444444 15.6311111,4.35333333 C15.5322222,4.35333333 14.0041787,4.83927069 13.5041363,5.0742445 C12.994433,5.31375806 12.0604369,5.88691508 11.7376709,6.14953613 C8.07878201,4.76509169 4.65444444,6.43 4.65444444,6.43 C4.35777778,10.3855556 6.13777778,12.8577778 6.53333333,13.3522222 C6.43444444,13.55 5.96605927,14.5829246 5.85954768,15.1762579 C5.75303609,15.7695912 5.74222222,17.11 5.74222222,17.2088889 C2.28111111,18.89 1.29222222,22.3511111 1.29222222,22.3511111 C4.16,25.6144444 7.52222222,25.8122222 7.52222222,25.8122222 C7.91777778,26.6033333 8.01523596,26.9988889 8.60856929,27.6911111 C9.20190262,28.3833333 9.5,28.5811111 9.69777778,28.7788889 C8.61,31.7455556 9.79666667,34.2177778 9.79666667,34.2177778 C12.9611111,34.3166667 15.0377778,32.8333333 15.5322222,32.4377778 C15.8288889,32.5366667 16.7929446,32.9871685 18.1033333,33.13 C18.9769258,33.225221 19.8998888,33.225221 20.8722222,33.13 C22.3555556,35.3055556 25.0255556,35.6022222 25.0255556,35.6022222 C26.2781481,34.2837037 26.9374074,32.7674074 27.0033333,31.0533333 C27.3988889,30.7566667 28.19,30.3311675 28.9811111,29.4779183 C29.5085185,28.9090854 29.9040741,28.313483 30.1677778,27.6911111 C32.2444444,27.79 33.8266667,26.4055556 33.8266667,26.4055556 C33.4311111,24.23 32.2444444,23.1422222 31.9477778,22.9444444 C31.9477778,22.8455556 32.0466667,20.67 31.8488889,19.6811111 C31.6511111,18.6922222 31.2555556,17.8022222 30.7611111,17.0111111 C30.2666667,16.22 29.6733333,15.5277778 28.9811111,14.8355556 C28.2888889,14.2422222 27.4977778,13.7477778 26.7066667,13.3522222 C25.9155556,12.9566667 25.0255556,12.7588889 24.2344444,12.66 C23.4433333,12.5611111 22.5533333,12.4622222 21.6633333,12.66 C20.7733333,12.8577778 19.9822222,13.1544444 19.29,13.55 C18.5977778,13.9455556 18.0044444,14.5388889 17.51,15.0333333 C17.0155556,15.6266667 16.62,16.22 16.3233333,16.9122222 C16.0266667,17.6044444 15.9277778,18.2966667 15.8288889,18.9888889 C15.73,19.6811111 15.9277778,20.5711111 16.0266667,20.8677778 C16.2244444,21.4611111 16.5211111,22.0544444 16.9166667,22.5488889 C17.3122222,23.0433333 18.0044444,23.9333333 19.6855556,24.4277778 C20.2762279,24.6015049 20.6974664,24.6818051 21.2298443,24.6818051 C21.7622222,24.6818051 22.5917188,24.5110715 22.7989959,24.4277778 C23.0062729,24.344484 23.4592438,24.1159973 23.6411111,23.9333333 C23.8229784,23.7506694 23.8170438,23.4820066 23.7181549,23.3831177 C23.619266,23.2842288 23.4433333,23.2411111 23.2455556,23.34 C23.0477778,23.4388889 22.6800203,23.6701315 22.2566667,23.7355556 C21.833313,23.8009796 21.4424299,23.812647 21.2017517,23.7852478 C20.9610735,23.7578486 20.4985524,23.6277094 20.1029968,23.4299316 C19.7074413,23.2321539 19.1928354,22.7972511 18.8944444,22.4617918 C18.0832131,21.549783 17.8966667,20.3219105 18,19.0877778 C18.0843878,18.0799162 18.6030614,17.1156697 19.3941725,16.4234475 C19.6035006,16.2402854 20.203022,15.718812 21.2298443,15.3760727 C22.2566667,15.0333333 23.2660232,15.1322222 23.8593565,15.2311111 C24.4526899,15.33 25.1244444,15.5277778 25.6188889,15.8244444 C26.6077778,16.4177778 27.5467539,17.0111111 27.9849193,18 C28.4230846,18.9888889 28.4230846,19.8431518 28.4230846,20.4364852 C28.4230846,21.0298185 28.1964832,22.6477778 28.0975943,22.9444444 C27.9987054,23.2411111 27.6914733,24.4965412 26.9004284,25.4854301 C26.0634341,26.5317607 25.3222222,27.3615302 24.1355556,27.8559746 C23.5422222,28.1526413 22.3555556,28.5297634 21.1688889,28.5297634 C19.9822222,28.5297634 18.6966667,28.2844444 18.0044444,28.0866667 C17.3122222,27.8888889 16.7188889,27.5922222 16.1255556,27.2955556 C14.9388889,26.6033333 13.8511111,25.8122222 12.9611111,24.7244444 C12.5655556,24.23 12.0343376,23.4609897 11.7376709,22.8676564 C11.4410042,22.2743231 10.8743418,20.4364852 10.8743418,18.9888889 C10.8743418,17.5412926 11.1811111,15.9233333 11.3788889,15.2311111 C11.5766667,14.5388889 11.7744444,13.9455556 12.0711111,13.3522222 C12.6644444,12.1655556 13.4130412,11.0707517 14.6964724,9.86630722 C15.9799036,8.66186269 17.6024333,7.95695247 19.1846555,7.71591166 C20.7668777,7.47487085 22.8234071,7.48302121 23.4167404,7.5819101 C24.5045182,7.77968788 26.2122222,8.40777778 27.2011111,8.80333333 C28.19,9.19888889 29.5606659,10.1173015 29.7722222,10.3441547 C29.9837785,10.5710079 30.9588889,11.4733333 31.4533333,12.1655556 C31.9477778,12.8577778 32.3433333,13.4511111 32.7388889,14.1433333 C33.1344444,14.8355556 33.286745,15.5810018 33.3856339,15.8776684 C33.4845228,16.273224 33.6662068,16.6691032 33.5673179,16.0757698 C33.468429,15.4824365 33.4311111,14.7366667 33.2333333,13.9455556 Z" id="路径" fill="#FFFFFF" fill-rule="nonzero"></path>
            </g>
        </g>
    </g>
</svg>