<?xml version="1.0" encoding="UTF-8"?>
<svg width="36px" height="36px" viewBox="0 0 36 36" version="1.1" xmlns="http://www.w3.org/2000/svg" xmlns:xlink="http://www.w3.org/1999/xlink">
    <!-- Generator: Sketch 60.1 (88133) - https://sketch.com -->
    <title>haproxy</title>
    <desc>Created with Sketch.</desc>
    <g id="页面-1" stroke="none" stroke-width="1" fill="none" fill-rule="evenodd">
        <g id="中优先级" transform="translate(-2362.000000, -1177.000000)">
            <g id="haproxy" transform="translate(2362.000000, 1177.000000)">
                <polygon id="矩形备份-17" points="0 0 36 0 36 36 24.484679 36 0 36"></polygon>
                <g id="编组" fill="#FFFFFF" fill-rule="nonzero">
                    <rect id="矩形" x="15.587027" y="20.9286486" width="5.65297297" height="5.65297297"></rect>
                    <rect id="矩形" x="9.93405405" y="15.2756757" width="5.65297297" height="5.65297297"></rect>
                    <rect id="矩形" x="15.587027" y="9.6227027" width="5.65297297" height="5.65297297"></rect>
                    <rect id="矩形" x="21.24" y="15.2756757" width="5.65297297" height="5.65297297"></rect>
                    <rect id="矩形" x="21.24" y="6.79135135" width="2.83135135" height="2.83135135"></rect>
                    <rect id="矩形" x="12.7556757" y="6.79135135" width="2.83135135" height="2.83135135"></rect>
                    <rect id="矩形" x="21.24" y="26.5913514" width="2.83135135" height="2.83135135"></rect>
                    <rect id="矩形" x="12.7556757" y="26.5913514" width="2.83135135" height="2.83135135"></rect>
                    <polygon id="路径" points="9.93405405 12.4443243 9.93405405 15.2756757 7.1027027 15.2756757 7.1027027 12.4443243"></polygon>
                    <polygon id="路径" points="9.93405405 20.9286486 9.93405405 23.76 7.1027027 23.76 7.1027027 20.9286486"></polygon>
                    <polygon id="路径" points="29.7340541 12.4443243 29.7340541 15.2756757 26.9027027 15.2756757 26.9027027 12.4443243"></polygon>
                    <polygon id="路径" points="29.7340541 20.9286486 29.7340541 23.76 26.9027027 23.76 26.9027027 20.9286486"></polygon>
                    <rect id="矩形" x="15.587027" y="3.25945946" width="1.41081081" height="1.41081081"></rect>
                    <rect id="矩形" x="11.3448649" y="4.67027027" width="1.41081081" height="1.41081081"></rect>
                    <rect id="矩形" x="24.0713514" y="4.67027027" width="1.41081081" height="1.41081081"></rect>
                    <rect id="矩形" x="19.8291892" y="3.25945946" width="1.41081081" height="1.41081081"></rect>
                    <rect id="矩形" x="31.9427027" y="15.4118919" width="1.41081081" height="1.41081081"></rect>
                    <rect id="矩形" x="30.5221622" y="11.0335135" width="1.41081081" height="1.41081081"></rect>
                    <rect id="矩形" x="5.22486486" y="11.0335135" width="1.41081081" height="1.41081081"></rect>
                    <rect id="矩形" x="3.65837838" y="15.2756757" width="1.41081081" height="1.41081081"></rect>
                    <rect id="矩形" x="3.65837838" y="19.5178378" width="1.41081081" height="1.41081081"></rect>
                    <rect id="矩形" x="5.40972973" y="24.0032432" width="1.41081081" height="1.41081081"></rect>
                    <rect id="矩形" x="31.9427027" y="19.5178378" width="1.41081081" height="1.41081081"></rect>
                    <rect id="矩形" x="30.4345946" y="23.9254054" width="1.41081081" height="1.41081081"></rect>
                    <rect id="矩形" x="15.587027" y="31.4464865" width="1.41081081" height="1.41081081"></rect>
                    <rect id="矩形" x="11.0432432" y="29.6464865" width="1.41081081" height="1.41081081"></rect>
                    <rect id="矩形" x="24.0713514" y="30.1232432" width="1.41081081" height="1.41081081"></rect>
                    <rect id="矩形" x="19.8291892" y="31.5827027" width="1.41081081" height="1.41081081"></rect>
                    <rect id="矩形" x="7.70594595" y="7.50162162" width="1.41081081" height="1.41081081"></rect>
                    <rect id="矩形" x="7.68648649" y="27.2918919" width="1.41081081" height="1.41081081"></rect>
                    <rect id="矩形" x="28.0021622" y="27.1654054" width="1.41081081" height="1.41081081"></rect>
                    <rect id="矩形" x="28.0118919" y="7.6572973" width="1.41081081" height="1.41081081"></rect>
                    <rect id="矩形" x="1.13837838" y="20.9286486" width="1" height="1"></rect>
                    <rect id="矩形" x="0.856216216" y="18.8367568" width="1" height="1"></rect>
                    <rect id="矩形" x="2.7827027" y="25.4140541" width="1" height="1"></rect>
                    <rect id="矩形" x="1.81945946" y="23.2832432" width="1" height="1"></rect>
                    <rect id="矩形" x="5.14702703" y="29.0724324" width="1" height="1"></rect>
                    <rect id="矩形" x="3.82378378" y="27.4183784" width="1" height="1"></rect>
                    <rect id="矩形" x="8.86378378" y="32.0691892" width="1" height="1"></rect>
                    <rect id="矩形" x="6.94702703" y="30.7362162" width="1" height="1"></rect>
                    <rect id="矩形" x="10.9362162" y="33.1686486" width="1" height="1"></rect>
                    <rect id="矩形" x="15.3535135" y="34.5794595" width="1" height="1"></rect>
                    <rect id="矩形" x="13.0086486" y="34.0735135" width="1" height="1"></rect>
                    <rect id="矩形" x="20.8118919" y="34.7740541" width="1" height="1"></rect>
                    <rect id="矩形" x="18.0778378" y="34.92" width="1" height="1"></rect>
                    <rect id="矩形" x="1.13837838" y="14.5167568" width="1" height="1"></rect>
                    <rect id="矩形" x="0.856216216" y="16.6086486" width="1" height="1"></rect>
                    <rect id="矩形" x="2.7827027" y="10.0313514" width="1" height="1"></rect>
                    <rect id="矩形" x="1.81945946" y="12.1621622" width="1" height="1"></rect>
                    <rect id="矩形" x="5.14702703" y="6.3827027" width="1" height="1"></rect>
                    <rect id="矩形" x="3.82378378" y="8.02702703" width="1" height="1"></rect>
                    <rect id="矩形" x="8.86378378" y="3.37621622" width="1" height="1"></rect>
                    <rect id="矩形" x="6.94702703" y="4.70918919" width="1" height="1"></rect>
                    <rect id="矩形" x="10.9362162" y="2.27675676" width="1" height="1"></rect>
                    <rect id="矩形" x="15.3535135" y="0.914594595" width="1" height="1"></rect>
                    <rect id="矩形" x="13.0086486" y="1.37189189" width="1" height="1"></rect>
                    <rect id="矩形" transform="translate(35.230086, 21.309276) rotate(-180.000000) translate(-35.230086, -21.309276) " x="34.8895459" y="20.9687351" width="1" height="1"></rect>
                    <rect id="矩形" transform="translate(35.506411, 19.221859) rotate(-180.000000) translate(-35.506411, -19.221859) " x="35.1658703" y="18.8813189" width="1" height="1"></rect>
                    <rect id="矩形" transform="translate(33.585373, 25.799741) rotate(-180.000000) translate(-33.585373, -25.799741) " x="33.2448324" y="25.4592" width="1" height="1"></rect>
                    <rect id="矩形" transform="translate(34.540832, 23.665816) rotate(-180.000000) translate(-34.540832, -23.665816) " x="34.2002919" y="23.3252757" width="1" height="1"></rect>
                    <rect id="矩形" transform="translate(31.213362, 29.453741) rotate(-180.000000) translate(-31.213362, -29.453741) " x="30.8728216" y="29.1132" width="1" height="1"></rect>
                    <rect id="矩形" transform="translate(32.542249, 27.798130) rotate(-180.000000) translate(-32.542249, -27.798130) " x="32.2017081" y="27.4575892" width="1" height="1"></rect>
                    <rect id="矩形" transform="translate(27.496508, 32.452930) rotate(-180.000000) translate(-27.496508, -32.452930) " x="27.1559676" y="32.1123892" width="1" height="1"></rect>
                    <rect id="矩形" transform="translate(29.422703, 31.119762) rotate(-180.000000) translate(-29.422703, -31.119762) " x="29.0821622" y="30.7792216" width="1" height="1"></rect>
                    <rect id="矩形" transform="translate(25.427578, 33.554822) rotate(-180.000000) translate(-25.427578, -33.554822) " x="25.0870378" y="33.2142811" width="1" height="1"></rect>
                    <rect id="矩形" transform="translate(23.356314, 34.459200) rotate(-180.000000) translate(-23.356314, -34.459200) " x="23.015773" y="34.1186595" width="1" height="1"></rect>
                    <rect id="矩形" transform="translate(35.230086, 14.903124) rotate(-180.000000) translate(-35.230086, -14.903124) " x="34.8895459" y="14.5625838" width="1" height="1"></rect>
                    <rect id="矩形" transform="translate(35.506411, 16.990638) rotate(-180.000000) translate(-35.506411, -16.990638) " x="35.1658703" y="16.6500973" width="1" height="1"></rect>
                    <rect id="矩形" transform="translate(33.585373, 10.412757) rotate(-180.000000) translate(-33.585373, -10.412757) " x="33.2448324" y="10.0722162" width="1" height="1"></rect>
                    <rect id="矩形" transform="translate(34.540832, 12.546681) rotate(-180.000000) translate(-34.540832, -12.546681) " x="34.2002919" y="12.2061405" width="1" height="1"></rect>
                    <rect id="矩形" transform="translate(31.213362, 6.758757) rotate(-180.000000) translate(-31.213362, -6.758757) " x="30.8728216" y="6.41821622" width="1" height="1"></rect>
                    <rect id="矩形" transform="translate(32.542249, 8.414368) rotate(-180.000000) translate(-32.542249, -8.414368) " x="32.2017081" y="8.07382703" width="1" height="1"></rect>
                    <rect id="矩形" transform="translate(27.496508, 3.759470) rotate(-180.000000) translate(-27.496508, -3.759470) " x="27.1559676" y="3.41892973" width="1" height="1"></rect>
                    <rect id="矩形" transform="translate(29.422703, 5.092638) rotate(-180.000000) translate(-29.422703, -5.092638) " x="29.0821622" y="4.7520973" width="1" height="1"></rect>
                    <rect id="矩形" transform="translate(25.427578, 2.657676) rotate(-180.000000) translate(-25.427578, -2.657676) " x="25.0870378" y="2.31713514" width="1" height="1"></rect>
                    <rect id="矩形" transform="translate(21.027114, 1.250076) rotate(-180.000000) translate(-21.027114, -1.250076) " x="20.686573" y="0.909535135" width="1" height="1"></rect>
                    <rect id="矩形" transform="translate(23.356314, 1.753200) rotate(-180.000000) translate(-23.356314, -1.753200) " x="23.015773" y="1.41265946" width="1" height="1"></rect>
                    <rect id="矩形" transform="translate(18.414486, 0.910216) rotate(-180.000000) translate(-18.414486, -0.910216) " x="18.0739459" y="0.569675676" width="1" height="1"></rect>
                </g>
            </g>
        </g>
    </g>
</svg>