<?xml version="1.0" encoding="UTF-8"?>
<svg width="36px" height="36px" viewBox="0 0 36 36" version="1.1" xmlns="http://www.w3.org/2000/svg" xmlns:xlink="http://www.w3.org/1999/xlink">
    <!-- Generator: Sketch 59.1 (86144) - https://sketch.com -->
    <title>主机</title>
    <desc>Created with Sketch.</desc>
    <defs>
        <linearGradient x1="50.0072678%" y1="98.3380714%" x2="50.0072678%" y2="-0.359105098%" id="linearGradient-1">
            <stop stop-color="#FFFFFF" offset="0%"></stop>
            <stop stop-color="#FFFFFF" stop-opacity="0.99" offset="37%"></stop>
            <stop stop-color="#FFFFFF" stop-opacity="0.97" offset="51%"></stop>
            <stop stop-color="#FFFFFF" stop-opacity="0.92" offset="60%"></stop>
            <stop stop-color="#FFFFFF" stop-opacity="0.85" offset="68%"></stop>
            <stop stop-color="#FFFFFF" stop-opacity="0.77" offset="75%"></stop>
            <stop stop-color="#FFFFFF" stop-opacity="0.66" offset="80%"></stop>
            <stop stop-color="#FFFFFF" stop-opacity="0.53" offset="86%"></stop>
            <stop stop-color="#FFFFFF" stop-opacity="0.39" offset="91%"></stop>
            <stop stop-color="#FFFFFF" stop-opacity="0.22" offset="95%"></stop>
            <stop stop-color="#FFFFFF" stop-opacity="0.04" offset="99%"></stop>
            <stop stop-color="#FFFFFF" stop-opacity="0" offset="100%"></stop>
        </linearGradient>
        <linearGradient x1="50.0072678%" y1="99.3020127%" x2="50.0072678%" y2="-0.27521505%" id="linearGradient-2">
            <stop stop-color="#FFFFFF" offset="0%"></stop>
            <stop stop-color="#FFFFFF" stop-opacity="0.99" offset="37%"></stop>
            <stop stop-color="#FFFFFF" stop-opacity="0.97" offset="51%"></stop>
            <stop stop-color="#FFFFFF" stop-opacity="0.92" offset="60%"></stop>
            <stop stop-color="#FFFFFF" stop-opacity="0.85" offset="68%"></stop>
            <stop stop-color="#FFFFFF" stop-opacity="0.77" offset="75%"></stop>
            <stop stop-color="#FFFFFF" stop-opacity="0.66" offset="80%"></stop>
            <stop stop-color="#FFFFFF" stop-opacity="0.53" offset="86%"></stop>
            <stop stop-color="#FFFFFF" stop-opacity="0.39" offset="91%"></stop>
            <stop stop-color="#FFFFFF" stop-opacity="0.22" offset="95%"></stop>
            <stop stop-color="#FFFFFF" stop-opacity="0.04" offset="99%"></stop>
            <stop stop-color="#FFFFFF" stop-opacity="0" offset="100%"></stop>
        </linearGradient>
    </defs>
    <g id="页面-1" stroke="none" stroke-width="1" fill="none" fill-rule="evenodd">
        <g id="模型icon-库" transform="translate(-1777.000000, -134.000000)">
            <g id="主机" transform="translate(1777.000000, 134.000000)">
                <g id="编组">
                    <rect id="矩形备份-11" opacity="0.446149554" x="0" y="0" width="36" height="36"></rect>
                    <path d="M33.372973,0.0972972973 L2.43243243,0.0972972973 C1.36216216,0.0972972973 0.486486486,0.972972973 0.389189189,2.14054054 L0.389189189,7.97837838 C0.389189189,9.04864865 1.26486486,10.0216216 2.43243243,10.0216216 L2.43243243,10.0216216 L33.372973,10.0216216 C34.4432432,10.0216216 35.4162162,9.14594595 35.4162162,7.97837838 L35.4162162,7.97837838 L35.4162162,2.14054054 C35.4162162,1.07027027 34.5405405,0.194594595 33.372973,0.0972972973 Z M7.2972973,5.83783784 L5.64324324,5.83783784 L5.64324324,4.18378378 L7.2972973,4.18378378 L7.2972973,5.83783784 Z M10.7027027,5.83783784 L8.95135135,5.83783784 L8.95135135,4.08648649 L10.7027027,4.08648649 L10.7027027,5.83783784 Z M14.2054054,5.83783784 L12.4540541,5.83783784 L12.4540541,4.18378378 L14.2054054,4.18378378 L14.2054054,5.83783784 Z M17.6108108,5.83783784 L15.8594595,5.83783784 L15.8594595,4.18378378 L17.6108108,4.18378378 L17.6108108,5.83783784 Z M31.1351351,5.35135135 C31.1351351,5.54594595 30.9405405,5.74054054 30.6486486,5.74054054 L30.6486486,5.74054054 L27.0486486,5.74054054 C26.8540541,5.74054054 26.5621622,5.54594595 26.5621622,5.35135135 L26.5621622,5.35135135 L26.5621622,4.47567568 C26.5621622,4.28108108 26.7567568,4.08648649 27.0486486,4.08648649 L27.0486486,4.08648649 L30.6486486,4.08648649 C30.8432432,4.08648649 31.1351351,4.28108108 31.1351351,4.47567568 L31.1351351,4.47567568 L31.1351351,5.35135135 Z" id="形状" fill="#FFFFFF" fill-rule="nonzero"></path>
                    <path d="M33.372973,12.8432432 L2.43243243,12.8432432 C1.36216216,12.8432432 0.486486486,13.7189189 0.389189189,14.8864865 L0.389189189,20.7243243 C0.389189189,21.7945946 1.26486486,22.6702703 2.43243243,22.7675676 L33.372973,22.7675676 C34.4432432,22.7675676 35.3189189,21.8918919 35.4162162,20.7243243 L35.4162162,14.8864865 C35.4162162,13.7189189 34.5405405,12.8432432 33.372973,12.8432432 Z M7.2972973,18.5837838 L5.64324324,18.5837838 L5.64324324,16.9297297 L7.2972973,16.9297297 L7.2972973,18.5837838 Z M10.7027027,18.5837838 L8.95135135,18.5837838 L8.95135135,16.8324324 L10.7027027,16.8324324 L10.7027027,18.5837838 Z M14.2054054,18.5837838 L12.4540541,18.5837838 L12.4540541,16.9297297 L14.2054054,16.9297297 L14.2054054,18.5837838 Z M17.6108108,18.5837838 L15.8594595,18.5837838 L15.8594595,16.8324324 L17.6108108,16.8324324 L17.6108108,18.5837838 Z M31.1351351,18.0972973 C31.1351351,18.2918919 30.9405405,18.4864865 30.6486486,18.4864865 L30.6486486,18.4864865 L27.0486486,18.4864865 C26.8540541,18.4864865 26.5621622,18.2918919 26.5621622,18.0972973 L26.5621622,18.0972973 L26.5621622,17.2216216 C26.5621622,17.027027 26.7567568,16.8324324 27.0486486,16.8324324 L27.0486486,16.8324324 L30.6486486,16.8324324 C30.8432432,16.8324324 31.1351351,17.027027 31.1351351,17.2216216 L31.1351351,17.2216216 L31.1351351,18.0972973 Z" id="形状" fill="url(#linearGradient-1)" fill-rule="nonzero"></path>
                    <path d="M33.372973,25.5891892 L2.43243243,25.5891892 C1.36216216,25.5891892 0.486486486,26.4648649 0.389189189,27.6324324 L0.389189189,33.4702703 C0.389189189,34.5405405 1.26486486,35.4162162 2.43243243,35.4162162 L33.372973,35.4162162 C34.4432432,35.4162162 35.3189189,34.5405405 35.4162162,33.4702703 L35.4162162,27.6324324 C35.4162162,26.4648649 34.5405405,25.5891892 33.372973,25.5891892 Z M7.2972973,31.3297297 L5.64324324,31.3297297 L5.64324324,29.5783784 L7.2972973,29.5783784 L7.2972973,31.3297297 Z M10.7027027,31.3297297 L8.95135135,31.3297297 L8.95135135,29.5783784 L10.7027027,29.5783784 L10.7027027,31.3297297 Z M14.2054054,31.3297297 L12.4540541,31.3297297 L12.4540541,29.5783784 L14.2054054,29.5783784 L14.2054054,31.3297297 Z M17.6108108,31.3297297 L15.8594595,31.3297297 L15.8594595,29.5783784 L17.6108108,29.5783784 L17.6108108,31.3297297 Z M31.1351351,30.8432432 C31.1351351,31.0378378 30.9405405,31.2324324 30.6486486,31.2324324 L30.6486486,31.2324324 L27.0486486,31.2324324 C26.8540541,31.2324324 26.5621622,31.0378378 26.5621622,30.8432432 L26.5621622,30.8432432 L26.5621622,30.0648649 C26.5621622,29.8702703 26.7567568,29.6756757 27.0486486,29.6756757 L27.0486486,29.6756757 L30.6486486,29.6756757 C30.8432432,29.6756757 31.1351351,29.8702703 31.1351351,30.0648649 L31.1351351,30.0648649 L31.1351351,30.8432432 Z" id="形状" fill="url(#linearGradient-2)" fill-rule="nonzero"></path>
                </g>
            </g>
        </g>
    </g>
</svg>