<?xml version="1.0" encoding="UTF-8"?>
<svg width="24px" height="21px" viewBox="0 0 24 21" version="1.1" xmlns="http://www.w3.org/2000/svg" xmlns:xlink="http://www.w3.org/1999/xlink">
    <title>HTTP</title>
    <g id="页面-1" stroke="none" stroke-width="1" fill="none" fill-rule="evenodd">
        <g id="HTTP备份-2" transform="translate(-12.000000, -14.000000)">
            <g id="HTTP" transform="translate(12.000000, 14.000000)">
                <g fill="#FFFFFF" id="形状结合">
                    <path d="M3,21 C1.34314575,21 0,19.6568542 0,18 L0,3 C0,1.34314575 1.34314575,0 3,0 L21,0 C22.6568542,0 24,1.34314575 24,3 L24,18 C24,19.6568542 22.6568542,21 21,21 L3,21 Z M21.5,16 L21.5,15 L3,15 L3,16 L21.5,16 Z M16.090901,8 L12.4090815,8 L12.4090815,9.25 L13.6363546,9.25 L13.6363546,13 L14.8636278,13 L14.8636278,9.25 L16.090901,9.25 L16.090901,8 Z M19.7727204,8 L16.9090895,8 L16.9090895,13 L18.1363626,13 L18.1363626,11.3333398 L19.7727204,11.3333398 C20.4681816,11.3333398 20.9999936,10.7916602 20.9999936,10.0833398 L20.9999936,9.25 C20.9999936,8.54166016 20.4681816,8 19.7727204,8 Z M4.22727316,8 L3,8 L3,13 L4.22727316,13 L4.22727316,10.9166602 L5.86363099,10.9166602 L5.86363099,13 L7.09090415,13 L7.09090415,8 L5.86363099,8 L5.86363099,9.66666016 L4.22727316,9.66666016 L4.22727316,8 Z M11.5909121,8 L7.90909265,8 L7.90909265,9.25 L9.13636582,9.25 L9.13636582,13 L10.363639,13 L10.363639,9.25 L11.5909121,9.25 L11.5909121,8 Z M19.7727204,9.25 L19.7727204,10.0833398 L18.1363626,10.0833398 L18.1363626,9.25 L19.7727204,9.25 Z M3.75,4 C3.33578644,4 3,4.33578644 3,4.75 C3,5.16421356 3.33578644,5.5 3.75,5.5 C4.16421356,5.5 4.5,5.16421356 4.5,4.75 C4.5,4.37030423 4.21784612,4.05650904 3.85177056,4.00684662 L3.75,4 Z M6.75,4 C6.33578644,4 6,4.33578644 6,4.75 C6,5.16421356 6.33578644,5.5 6.75,5.5 C7.16421356,5.5 7.5,5.16421356 7.5,4.75 C7.5,4.37030423 7.21784612,4.05650904 6.85177056,4.00684662 L6.75,4 Z M9.75,4 C9.33578644,4 9,4.33578644 9,4.75 C9,5.16421356 9.33578644,5.5 9.75,5.5 C10.1642136,5.5 10.5,5.16421356 10.5,4.75 C10.5,4.37030423 10.2178461,4.05650904 9.85177056,4.00684662 L9.75,4 Z"></path>
                </g>
                <g id="编组-4" transform="translate(6.000000, 4.000000)"></g>
                <g id="http备份-3" transform="translate(12.409081, 8.000000)"></g>
            </g>
        </g>
    </g>
</svg>