<?xml version="1.0" encoding="UTF-8"?>
<svg width="22px" height="34px" viewBox="0 0 22 34" version="1.1" xmlns="http://www.w3.org/2000/svg" xmlns:xlink="http://www.w3.org/1999/xlink">
    <!-- Generator: Sketch 60.1 (88133) - https://sketch.com -->
    <title>ip-address</title>
    <desc>Created with Sketch.</desc>
    <g id="页面-1" stroke="none" stroke-width="1" fill="none" fill-rule="evenodd">
        <g id="高优先级" transform="translate(-1304.000000, -1151.000000)">
            <g id="ip-address" transform="translate(1297.000000, 1150.000000)">
                <rect id="矩形备份-8" x="0" y="0" width="36" height="36"></rect>
                <g id="编组" transform="translate(7.000000, 1.000000)" fill="#FFFFFF" fill-rule="nonzero">
                    <path d="M11,-2.84217094e-14 C17.0702341,-2.84217094e-14 22,4.90253353 22,10.9400894 C22,20.5639344 11,32 11,32 C11,32 1.77635684e-15,20.4876304 1.77635684e-15,10.9400894 C1.77635684e-15,4.90253353 4.92976589,-2.84217094e-14 11,-2.84217094e-14 Z M11,5.69418778 C10.6190343,5.69418778 10.3102007,6.01446098 10.3102007,6.409538 L10.3102007,19.323994 C10.3102007,19.7190711 10.6190343,20.0393443 11,20.0393443 C11.3809657,20.0393443 11.6897993,19.7190711 11.6897993,19.323994 L11.6898494,15.0225554 C16.0577371,14.900998 18.4774247,13.580703 18.4774247,10.3678092 C18.4774247,7.01726033 15.8386601,5.72395666 11.1119938,5.70396165 C11.0754718,5.69739051 11.0380966,5.69418778 11,5.69418778 Z M6.92558528,5.69418778 C6.54461963,5.69418778 6.23578595,6.01446098 6.23578595,6.409538 L6.23578595,19.323994 C6.23578595,19.7190711 6.54461963,20.0393443 6.92558528,20.0393443 C7.30655094,20.0393443 7.61538462,19.7190711 7.61538462,19.323994 L7.61538462,6.409538 C7.61538462,6.01446098 7.30655094,5.69418778 6.92558528,5.69418778 Z M17.0978261,10.3678092 C17.0978261,12.5242136 15.3500105,13.4881505 11.6903095,13.5917601 L11.690489,7.14390298 C15.3455251,7.247831 17.0978261,8.21321847 17.0978261,10.3678092 Z" id="形状结合"></path>
                    <ellipse id="椭圆形" cx="11" cy="31.5" rx="4.5" ry="2.5"></ellipse>
                </g>
            </g>
        </g>
    </g>
</svg>