<?xml version="1.0" encoding="UTF-8"?>
<svg width="36px" height="33px" viewBox="0 0 36 33" version="1.1" xmlns="http://www.w3.org/2000/svg" xmlns:xlink="http://www.w3.org/1999/xlink">
    <!-- Generator: Sketch 59.1 (86144) - https://sketch.com -->
    <title>JBoss</title>
    <desc>Created with Sketch.</desc>
    <defs>
        <linearGradient x1="49.8950684%" y1="100.584788%" x2="49.8950684%" y2="0.584589159%" id="linearGradient-1">
            <stop stop-color="#FFFFFF" offset="0%"></stop>
            <stop stop-color="#FFFFFF" stop-opacity="0.99" offset="37%"></stop>
            <stop stop-color="#FFFFFF" stop-opacity="0.97" offset="51%"></stop>
            <stop stop-color="#FFFFFF" stop-opacity="0.92" offset="60%"></stop>
            <stop stop-color="#FFFFFF" stop-opacity="0.85" offset="68%"></stop>
            <stop stop-color="#FFFFFF" stop-opacity="0.77" offset="75%"></stop>
            <stop stop-color="#FFFFFF" stop-opacity="0.66" offset="80%"></stop>
            <stop stop-color="#FFFFFF" stop-opacity="0.53" offset="86%"></stop>
            <stop stop-color="#FFFFFF" stop-opacity="0.39" offset="91%"></stop>
            <stop stop-color="#FFFFFF" stop-opacity="0.22" offset="95%"></stop>
            <stop stop-color="#FFFFFF" stop-opacity="0.04" offset="99%"></stop>
            <stop stop-color="#FFFFFF" stop-opacity="0" offset="100%"></stop>
        </linearGradient>
        <linearGradient x1="49.9097544%" y1="99.7194237%" x2="49.9097544%" y2="0.610720251%" id="linearGradient-2">
            <stop stop-color="#FFFFFF" offset="0%"></stop>
            <stop stop-color="#FFFFFF" stop-opacity="0.99" offset="37%"></stop>
            <stop stop-color="#FFFFFF" stop-opacity="0.97" offset="51%"></stop>
            <stop stop-color="#FFFFFF" stop-opacity="0.92" offset="60%"></stop>
            <stop stop-color="#FFFFFF" stop-opacity="0.85" offset="68%"></stop>
            <stop stop-color="#FFFFFF" stop-opacity="0.77" offset="75%"></stop>
            <stop stop-color="#FFFFFF" stop-opacity="0.66" offset="80%"></stop>
            <stop stop-color="#FFFFFF" stop-opacity="0.53" offset="86%"></stop>
            <stop stop-color="#FFFFFF" stop-opacity="0.39" offset="91%"></stop>
            <stop stop-color="#FFFFFF" stop-opacity="0.22" offset="95%"></stop>
            <stop stop-color="#FFFFFF" stop-opacity="0.04" offset="99%"></stop>
            <stop stop-color="#FFFFFF" stop-opacity="0" offset="100%"></stop>
        </linearGradient>
    </defs>
    <g id="页面-1" stroke="none" stroke-width="1" fill="none" fill-rule="evenodd">
        <g id="模型icon-库" transform="translate(-1508.000000, -135.000000)">
            <g id="JBoss" transform="translate(1508.000000, 133.000000)">
                <g id="编组">
                    <rect id="矩形备份-9" opacity="0.446149554" x="0" y="0" width="36" height="36"></rect>
                    <path d="M12.015,4.937 C12.015,6.005 12.816,6.895 13.884,6.895 C14.952,6.895 15.842,6.094 15.842,5.026 L15.842,5.026 L15.842,5.026 C15.842,3.958 14.952,3.157 13.884,3.157 C12.816,3.068 12.015,3.869 12.015,4.937 Z M16.91,30.48 C16.91,32.527 18.512,34.129 20.559,34.129 C22.606,34.129 24.208,32.527 24.208,30.48 C24.208,28.433 22.606,26.831 20.559,26.831 L20.559,26.831 C18.601,26.831 16.91,28.522 16.91,30.48 Z M14.774,29.234 C14.774,31.014 13.35,32.438 11.57,32.438 C9.79,32.438 8.366,31.014 8.366,29.234 C8.366,27.454 9.79,26.03 11.57,26.03 L11.57,26.03 L11.57,26.03 C13.261,26.03 14.685,27.454 14.774,29.234 Z M1.691,23.36 C1.602,24.962 2.848,26.297 4.361,26.386 C5.963,26.475 7.298,25.229 7.387,23.716 C7.387,23.627 7.387,23.538 7.387,23.36 L7.387,23.36 C7.298,21.758 5.963,20.601 4.361,20.69 C2.937,20.69 1.691,21.847 1.691,23.36 Z M0.801,15.261 C0.801,16.685 1.958,17.842 3.382,17.842 C4.806,17.842 5.963,16.685 5.963,15.261 C5.963,13.837 4.806,12.68 3.382,12.68 L3.382,12.68 C1.958,12.68 0.801,13.837 0.801,15.261 Z M5.34,8.23 C5.251,9.387 6.141,10.455 7.387,10.544 C8.544,10.633 9.612,9.743 9.701,8.497 C9.701,8.408 9.701,8.319 9.701,8.23 L9.701,8.23 C9.79,7.073 8.9,6.005 7.654,5.916 C6.497,5.827 5.429,6.717 5.34,7.963 C5.34,8.052 5.34,8.141 5.34,8.23 Z M18.957,3.78 C19.046,4.67 19.758,5.382 20.648,5.293 C21.449,5.204 22.072,4.581 22.161,3.78 L22.161,3.78 C22.072,2.89 21.36,2.178 20.47,2.267 C19.669,2.267 19.046,2.979 18.957,3.78 Z" id="形状" fill="#FFFFFF" fill-rule="nonzero"></path>
                    <path d="M18.423,9.387 L22.695,9.387 L22.695,16.863 C22.784,18.109 22.606,19.266 22.25,20.423 C21.894,21.313 21.36,22.025 20.559,22.47 C19.58,23.093 18.423,23.36 17.355,23.36 C16.287,23.449 15.13,23.182 14.151,22.826 C13.439,22.47 12.816,21.847 12.371,21.135 C12.193,20.868 12.104,20.601 12.015,20.245 C11.748,19.444 12.193,18.554 12.994,18.287 C13.083,18.287 13.172,18.198 13.261,18.198 L14.151,18.109 C14.952,18.02 15.664,18.465 15.931,19.266 L15.931,19.266 C16.02,19.533 16.198,19.8 16.465,19.978 C17.088,20.334 17.8,20.156 18.245,19.622 C18.512,19.088 18.601,18.465 18.601,17.842 L18.423,9.387 Z" id="路径" fill="url(#linearGradient-1)" fill-rule="nonzero"></path>
                    <path d="M22.695,9.387 L30.616,9.387 C31.684,9.298 32.752,9.743 33.642,10.455 C34.354,11.078 34.71,11.968 34.71,12.858 C34.71,13.659 34.443,14.371 33.909,14.994 C33.464,15.439 33.019,15.706 32.396,15.884 C33.197,16.062 33.998,16.507 34.621,17.13 C35.066,17.753 35.333,18.554 35.333,19.355 C35.333,20.067 35.155,20.69 34.799,21.313 C34.443,21.847 33.998,22.381 33.464,22.648 C32.93,22.915 32.396,23.093 31.862,23.093 C30.883,23.182 30.26,23.271 29.993,23.271 L22.606,23.271 L22.695,9.387 Z M27.056,14.816 L28.925,14.816 C29.37,14.905 29.904,14.727 30.349,14.46 C30.616,14.193 30.794,13.837 30.705,13.481 C30.705,13.125 30.616,12.769 30.349,12.502 C29.904,12.235 29.459,12.146 29.014,12.146 L27.145,12.146 L27.056,14.816 Z M27.056,20.245 L29.192,20.245 C29.726,20.334 30.26,20.156 30.705,19.889 C30.972,19.622 31.15,19.266 31.15,18.821 C31.15,18.465 30.972,18.109 30.705,17.842 C30.26,17.575 29.726,17.397 29.103,17.486 L26.967,17.486 L26.967,20.245 L27.056,20.245 L27.056,20.245 Z" id="形状" fill="url(#linearGradient-2)" fill-rule="nonzero"></path>
                </g>
            </g>
        </g>
    </g>
</svg>