<?xml version="1.0" encoding="UTF-8"?>
<svg width="32px" height="36px" viewBox="0 0 32 36" version="1.1" xmlns="http://www.w3.org/2000/svg" xmlns:xlink="http://www.w3.org/1999/xlink">
    <!-- Generator: Sketch 60.1 (88133) - https://sketch.com -->
    <title>kafka</title>
    <desc>Created with Sketch.</desc>
    <g id="页面-1" stroke="none" stroke-width="1" fill="none" fill-rule="evenodd">
        <g id="模型icon-库" transform="translate(-2756.000000, -955.000000)">
            <g id="kafka" transform="translate(2754.000000, 955.000000)">
                <rect id="矩形备份-18" opacity="0.446149554" x="0" y="0" width="36" height="36"></rect>
                <path d="M28.0267281,21.512882 C26.0068209,21.512882 24.2503799,22.7423908 23.4599814,24.4988318 L14.9412425,20.2833733 C15.2047086,19.4929749 15.3803527,18.7025764 15.3803527,17.9121779 C15.3803527,17.7365338 15.3803527,17.5608897 15.3803527,17.4730677 L24.0747358,13.1697872 C25.7433548,15.3653385 28.8171266,15.8044487 31.0126778,14.1358297 C33.2082291,12.4672108 33.6473394,9.39343898 31.9787204,7.1978877 C30.3101014,5.00233642 27.2363296,4.56322617 25.0407784,6.23184514 C23.8112696,7.1978877 23.1086932,8.60304052 23.1086932,10.1838374 C23.1086932,10.7985918 23.1965153,11.4133462 23.4599814,12.0281005 L15.1168866,16.1557369 C14.4143102,13.5210754 12.0431148,11.5889903 9.3206312,11.3255241 L9.3206312,7.0222436 C11.1648943,6.6709554 12.394403,4.82669232 12.0431148,2.98242925 C11.6918266,1.13816617 9.84756351,-0.091342544 8.00330043,0.259945661 C6.15903736,0.611233865 4.92952864,2.45549694 5.28081685,4.29976002 C5.544283,5.70491283 6.59814761,6.75877745 8.00330043,7.0222436 L8.00330043,11.3255241 C4.31477428,11.6768123 1.68011275,15.0140503 2.03140095,18.7025764 C2.38268916,21.8641703 4.84170659,24.3231877 8.00330043,24.6744759 L8.00330043,28.9777564 C6.15903736,29.3290446 4.92952864,31.1733077 5.28081685,33.0175708 C5.63210505,34.8618338 7.47636812,36.0913425 9.3206312,35.7400543 C11.1648943,35.3887661 12.394403,33.5445031 12.0431148,31.70024 C11.7796486,30.2950872 10.725784,29.2412226 9.3206312,28.9777564 L9.3206312,24.6744759 C11.4283604,24.4988318 13.2726235,23.2693231 14.3264881,21.512882 L23.1086932,25.8161626 C23.1086932,25.9918067 23.1086932,26.2552728 23.1086932,26.4309169 C23.1086932,29.1534005 25.3042445,31.3489518 28.0267281,31.4367738 C30.7492117,31.4367738 32.944763,29.2412226 33.032585,26.518739 C33.032585,23.7962554 30.8370337,21.512882 28.0267281,21.512882 C28.1145502,21.512882 28.1145502,21.512882 28.0267281,21.512882 L28.0267281,21.512882 Z" id="路径" fill="#FFFFFF" fill-rule="nonzero"></path>
            </g>
        </g>
    </g>
</svg>