<?xml version="1.0" encoding="UTF-8"?>
<svg width="36px" height="36px" viewBox="0 0 36 36" version="1.1" xmlns="http://www.w3.org/2000/svg" xmlns:xlink="http://www.w3.org/1999/xlink">
    <!-- Generator: Sketch 60.1 (88133) - https://sketch.com -->
    <title>kubernetes</title>
    <desc>Created with Sketch.</desc>
    <g id="页面-1" stroke="none" stroke-width="1" fill="none" fill-rule="evenodd">
        <g id="模型icon-库" transform="translate(-145.000000, -958.000000)">
            <g id="kubernetes" transform="translate(145.000000, 958.000000)">
                <rect id="矩形" x="0" y="0" width="36" height="36"></rect>
                <path d="M13.6729626,31.6258748 L13.3537422,31.5092844 C13.2881541,31.6604266 13.1478566,31.7560748 12.9948452,31.7717566 C12.462185,32.1236021 12.210379,32.6291375 12.0592108,32.9814099 C11.5699235,34.128008 11.695701,34.3281769 11.2954711,35.1724286 C10.9867252,35.8283174 10.3396885,36.1632919 9.85029573,35.9213718 C9.3610085,35.6795591 9.21687083,34.9585214 9.52561667,34.3072477 C9.92341975,33.4582736 10.1567202,33.4372371 10.7306329,32.3324975 C10.9362006,31.8887421 11.0447786,31.406549 11.0507559,30.9189521 C10.9173454,30.7897246 10.8724197,30.589077 10.9496548,30.4110955 L10.986,30.343 L10.7877428,30.2173742 C8.22089091,28.5403265 6.29589457,26.0143093 5.34095536,23.0605757 C5.18562029,23.0758537 5.03703122,23.0039365 4.94951675,22.8803895 C4.43406608,22.7657421 3.97393721,22.8635019 3.65332572,22.9520312 C2.46656413,23.2753068 2.39111872,23.5009128 1.49242142,23.7103121 C0.801911252,23.8707693 0.141051657,23.566169 0.0198114089,23.0265177 C-0.103644719,22.4892276 0.362850614,21.9240319 1.05800358,21.7705512 C1.95437948,21.5636204 2.12141456,21.7334152 3.32643078,21.5008328 C3.74394346,21.3996481 4.13704,21.2178059 4.48488844,20.9665552 L4.48125473,20.9509265 C4.42783204,20.7135131 4.57540188,20.4773179 4.81219935,20.421228 L4.775,20.433 L4.76107441,20.3146504 C4.43334837,17.271457 5.13847202,14.202564 6.76346451,11.6198297 C6.5997416,11.4870435 6.55188081,11.2613326 6.63865903,11.0760199 L6.662,11.036 L6.55557266,10.8518854 C6.32998652,10.4990693 6.04137628,10.2595765 5.81887282,10.0944202 C4.83111828,9.34558429 4.61153521,9.42919375 3.89126894,8.84543014 C3.33550533,8.38960295 3.15717982,7.67092651 3.49557623,7.23828243 C3.83397264,6.80563836 4.5588817,6.82431364 5.11453979,7.27552567 C5.83491157,7.85939661 5.80737135,8.09434027 6.73814614,8.9106863 C7.06137647,9.16729861 7.42702796,9.3604445 7.81634892,9.48193821 C7.96822684,9.35350601 8.19297259,9.34471945 8.35607024,9.47081676 L8.37521114,9.48645189 L8.37521114,9.48645189 L8.392,9.501 L8.56327963,9.32333666 C10.6601949,7.18651432 13.4030976,5.82865885 16.3501132,5.46851727 L16.6477931,5.43732793 C16.6471933,5.42794243 16.6468807,5.41847876 16.6468642,5.40894561 C16.6465153,5.20738852 16.7795156,5.03673345 16.9626663,4.98046783 C17.2164275,4.47707082 17.2239035,3.97280303 17.2112354,3.62139513 C17.1631192,2.37465894 16.9642177,2.24908375 16.9642177,1.3117777 C16.9642177,0.588378771 17.4054942,0 17.9474349,0 C18.4893757,0 18.9306522,0.588378771 18.9306522,1.3117777 C18.9306522,2.24908375 18.7293237,2.37240502 18.6836344,3.62139513 C18.6881218,4.09489549 18.7890741,4.56069232 18.9783795,4.98993 C19.1570453,5.04870156 19.2843125,5.21631212 19.2846543,5.41371284 L19.282,5.439 L19.5406336,5.46796845 C22.4548953,5.822827 25.1707588,7.15409795 27.2594016,9.25157966 L27.4889566,9.48938431 C27.4962114,9.48300152 27.5037143,9.47680798 27.5114635,9.47081676 C27.6594237,9.35642282 27.8581196,9.35303691 28.007377,9.44784247 C28.5437819,9.33171973 28.9273288,9.02783944 29.1840529,8.80142516 C30.1146166,7.98733304 30.0871819,7.75002814 30.8052323,7.16626453 C31.3632118,6.71494517 32.0857995,6.69873846 32.4288387,7.12902129 C32.769451,7.56177269 32.5888041,8.27572665 32.033146,8.72929992 C31.3128797,9.31767869 31.0932966,9.23632315 30.1032207,9.97829003 C29.7986563,10.228409 29.5409881,10.5299105 29.3405814,10.8680721 L29.228,11.074 L29.2560121,11.1503516 C29.2986149,11.3091308 29.2522938,11.4834235 29.1273621,11.5998237 L29.087,11.537 L29.2487563,11.7954835 C30.7776325,14.3174142 31.4435751,17.2834802 31.1425855,20.230478 L31.109,20.513 L31.1492205,20.5263498 C31.3107589,20.5967115 31.41523,20.7570309 31.4156172,20.9320549 C31.8457613,21.3029512 32.3321937,21.4238196 32.6756454,21.4892413 C33.882983,21.7218237 34.0475912,21.5519215 34.9462885,21.7613208 C35.6391201,21.921778 36.1031885,22.4801046 35.9802599,23.0195413 C35.8568038,23.556724 35.2004815,23.8614316 34.5076499,23.7009745 C33.6089526,23.4939364 33.5358286,23.2683304 32.3467456,22.9426935 C31.8859316,22.8396926 31.4104159,22.8377362 30.9514952,22.9350693 C30.8647091,23.0786664 30.7010062,23.1612377 30.5304597,23.1407015 L30.5630684,23.0427244 C29.5687672,26.1080942 27.5372404,28.7124111 24.8299504,30.3875931 C24.875915,30.5408638 24.8347951,30.7051474 24.7300662,30.8203733 C24.7489691,31.2341767 24.8682324,31.6393193 25.0773956,32 C25.6513083,33.1002234 25.8845032,33.1304902 26.2847332,33.9747418 C26.5911577,34.6259082 26.4471255,35.3516684 25.9577328,35.5888659 C25.4706614,35.8261708 24.8235192,35.4911963 24.5125574,34.8399227 C24.1169702,33.9955637 24.2405319,33.7956094 23.7488177,32.648904 C23.56654,32.269595 23.3157617,31.9297685 23.0105608,31.6466339 L22.9930601,31.6541791 C22.9905181,31.6553402 22.9879652,31.6564771 22.9854015,31.6575896 C22.8020055,31.7371743 22.5940812,31.681949 22.472386,31.535635 L22.7517776,31.4300734 C19.8380616,32.5782429 16.6240669,32.6447578 13.6729626,31.6258748 Z M17.5903157,23.9513326 C17.3452915,24.2073006 15.4994567,26.9825907 14.382361,29.1200432 C15.5084972,29.5040884 16.6920679,29.7001148 17.8840242,29.7000281 C19.0956718,29.7005089 20.2985691,29.4982511 21.4411846,29.1018901 C20.377345,27.0802818 18.5358499,24.1846354 18.3489204,23.94 C18.1619909,23.6953646 17.8353398,23.6953646 17.5903157,23.9513326 Z M21.8227971,21.7806954 C21.6743655,21.7834966 21.3638456,21.921252 21.4411846,22.2948538 C21.5185236,22.6684556 22.6359115,26.0786515 23.5807718,28.26 C25.5351091,26.927123 27.0167796,24.9468368 27.7941258,22.6287574 C25.4455478,22.1458609 21.9712286,21.7778942 21.8227971,21.7806954 Z M14.0174478,21.7809888 C13.848109,21.7778203 10.277824,22.1539165 8.02941987,22.6416486 C8.81502402,24.9589761 10.3145949,26.9358465 12.2912652,28.26 C13.3038258,25.8477065 14.3313009,22.6612068 14.382361,22.278249 C14.4334212,21.8952913 14.1867866,21.7842383 14.0174478,21.7809888 Z M18.848903,16.9980623 L17.151097,16.9980623 L16.0925323,18.3549581 L16.4703297,20.0469796 L18,20.8 L19.5296703,20.0469796 L19.9074677,18.3549581 L18.848903,16.9980623 Z M8.98486468,13.14 C7.89545228,14.9386359 7.32104025,17.0092235 7.32352941,19.1201912 C7.32691489,19.5277836 7.35134451,19.9350335 7.39671382,20.34 C9.82414055,19.6991551 13.413044,18.396576 13.5447614,18.3334351 C13.6764787,18.2702943 13.8608193,17.9505933 13.6764787,17.7000114 C13.4921381,17.4494295 10.9024215,14.7580391 8.98486468,13.14 Z M27.0049511,13.14 C25.252721,14.8353082 22.9347726,17.5504978 22.8529493,17.6738976 C22.771126,17.7972975 22.709812,18.1320031 22.976381,18.2948284 C23.2429499,18.4576537 26.2815515,19.7190692 28.4409562,20.3398863 C28.682834,17.8248036 28.1772762,15.2900223 27.0049511,13.14 Z M17.2055294,8.104 L16.8462899,8.15220342 C14.5772679,8.4918973 12.4743021,9.55563981 10.8529493,11.1901681 C12.7611105,12.6204543 15.6231715,14.4167222 15.95379,14.58 C16.2844086,14.7432778 16.5233895,14.58 16.619266,14.2432667 C16.7151424,13.9065334 17.1501488,10.5051307 17.2055294,8.104 Z M19.3235375,8.1 C19.4077282,10.6010526 19.8243019,14.0085531 19.8989483,14.2942766 C19.9735948,14.58 20.2424154,14.683555 20.4837496,14.58 C20.7250839,14.476445 23.7630839,12.6338603 25.6764787,11.1748769 C23.9637239,9.46485542 21.7259484,8.38175327 19.3235375,8.1 Z" id="形状结合" fill="#FFFFFF"></path>
            </g>
        </g>
    </g>
</svg>