<?xml version="1.0" encoding="UTF-8"?>
<svg width="36px" height="36px" viewBox="0 0 36 36" version="1.1" xmlns="http://www.w3.org/2000/svg" xmlns:xlink="http://www.w3.org/1999/xlink">
    <!-- Generator: Sketch 60.1 (88133) - https://sketch.com -->
    <title>kubernetes service</title>
    <desc>Created with Sketch.</desc>
    <g id="页面-1" stroke="none" stroke-width="1" fill="none" fill-rule="evenodd">
        <g id="中优先级" transform="translate(-1853.000000, -1177.000000)">
            <g id="kubernetes-service" transform="translate(1853.000000, 1177.000000)">
                <polygon id="矩形备份-18" points="0 0 36 0 36 36 24.484679 36 0 36"></polygon>
                <g id="编组" fill="#FFFFFF" fill-rule="nonzero">
                    <path d="M5.21141352,26.3194655 C3.67896145,23.8657706 2.85459459,21.034634 2.85459459,18.0827027 C2.85459459,9.5009334 9.81336583,2.54216216 18.3951351,2.54216216 C21.3280606,2.54216216 24.1418639,3.35714914 26.589003,4.87331142 C27.0584827,5.1641847 27.6748706,5.0193956 27.9657438,4.54991591 C28.2566171,4.08043623 28.111828,3.46404836 27.6423483,3.17317507 C24.8814885,1.46264232 21.7034621,0.542162162 18.3951351,0.542162162 C8.70879633,0.542162162 0.854594595,8.3963639 0.854594595,18.0827027 C0.854594595,21.4122104 1.78569777,24.6099133 3.51507296,27.3789129 C3.80763127,27.8473444 4.42453541,27.9899178 4.89296692,27.6973595 C5.36139843,27.4048012 5.50397183,26.787897 5.21141352,26.3194655 Z" id="路径"></path>
                    <path d="M31.2419358,9.34586729 C32.9800034,11.8997626 33.9264865,14.9236205 33.9264865,18.0827027 C33.9264865,26.664472 26.9677153,33.6232432 18.3859459,33.6232432 C15.4150087,33.6232432 12.5665447,32.7894925 10.106246,31.2407434 C9.63885647,30.9465233 9.02144989,31.0869049 8.72722984,31.5542945 C8.43300979,32.0216841 8.57338272,32.6390906 9.04078099,32.9333107 C11.8179372,34.6815205 15.0352816,35.6232432 18.3859459,35.6232432 C28.0722847,35.6232432 35.9264865,27.7690415 35.9264865,18.0827027 C35.9264865,14.5190302 34.8574811,11.1037337 32.8953615,8.2206192 C32.5846328,7.76403828 31.9626055,7.64580168 31.5060246,7.95653036 C31.0494437,8.26725904 30.9312071,8.88928637 31.2419358,9.34586729 Z" id="路径"></path>
                    <circle id="椭圆形" cx="32.0962162" cy="8.75567568" r="2.75675676"></circle>
                    <circle id="椭圆形" cx="4.68486486" cy="27.2718919" r="2.75675676"></circle>
                    <path d="M16.0361568,17.0876491 C15.0436234,16.3112319 14.4586486,15.1350592 14.4586486,13.8464865 C14.4586486,11.5774568 16.3007,9.73540541 18.5697297,9.73540541 C20.617101,9.73540541 22.3434352,11.2386869 22.6334482,13.2374255 C22.6929269,13.6473464 23.0734505,13.9314359 23.4833714,13.8719572 C23.8932923,13.8124785 24.1773819,13.4319549 24.1179032,13.022034 C23.7211625,10.28774 21.3643084,8.23540541 18.5697297,8.23540541 C15.4722729,8.23540541 12.9586486,10.7490297 12.9586486,13.8464865 C12.9586486,15.6010017 13.7594329,17.2110892 15.1119513,18.2691076 C15.4382021,18.5243199 15.909571,18.4667319 16.1647833,18.1404811 C16.4199956,17.8142303 16.3624076,17.3428614 16.0361568,17.0876491 Z" id="路径"></path>
                    <path d="M18.641023,21.1301491 C18.0798793,22.774063 16.5203772,23.902973 14.747027,23.902973 C12.4779973,23.902973 10.6359459,22.0609216 10.6359459,19.7918919 C10.6359459,18.3534014 11.3788043,17.0459707 12.5815038,16.292279 C12.9324931,16.0723257 13.0387187,15.6094854 12.8187655,15.2584962 C12.5988122,14.9075069 12.1359719,14.8012813 11.7849826,15.0212345 C10.1498444,16.0459212 9.13594595,17.8303824 9.13594595,19.7918919 C9.13594595,22.8893487 11.6495702,25.402973 14.747027,25.402973 C17.1654908,25.402973 19.2932575,23.8627012 20.0605987,21.6147158 C20.1944081,21.2227108 19.9850992,20.796454 19.5930942,20.6626446 C19.2010892,20.5288352 18.7748324,20.7381441 18.641023,21.1301491 Z" id="路径"></path>
                    <path d="M21.5167519,15.7732214 C21.794626,15.7114716 22.0801543,15.6808108 22.3832432,15.6808108 C24.6522729,15.6808108 26.4943243,17.5228622 26.4943243,19.7918919 C26.4943243,22.0609216 24.6522729,23.902973 22.3832432,23.902973 C21.7081883,23.902973 21.0627998,23.7450798 20.4873825,23.4455475 C20.1199677,23.2542905 19.6670748,23.3970946 19.4758178,23.7645094 C19.2845607,24.1319241 19.4273648,24.5848171 19.7947796,24.7760741 C20.5841048,25.1869558 21.4670752,25.402973 22.3832432,25.402973 C25.4807,25.402973 27.9943243,22.8893487 27.9943243,19.7918919 C27.9943243,16.6944351 25.4807,14.1808108 22.3832432,14.1808108 C21.9718727,14.1808108 21.5772518,14.2231862 21.1913562,14.3089408 C20.7870063,14.3987963 20.5320582,14.799429 20.6219138,15.2037789 C20.7117693,15.6081288 21.112402,15.8630769 21.5167519,15.7732214 Z" id="路径"></path>
                    <polygon id="路径" points="16.6583784 18.5697297 16.0978378 16.107027 14.1497297 18.3675676"></polygon>
                    <polygon id="路径" points="19.212973 15.6475676 21.6021622 16.4654054 20.7108108 13.6167568"></polygon>
                    <polygon id="路径" points="19.8286486 19.6172973 17.9081081 21.2437838 20.8027027 21.9421622"></polygon>
                </g>
            </g>
        </g>
    </g>
</svg>