<?xml version="1.0" encoding="UTF-8"?>
<svg width="36px" height="36px" viewBox="0 0 36 36" version="1.1" xmlns="http://www.w3.org/2000/svg" xmlns:xlink="http://www.w3.org/1999/xlink">
    <!-- Generator: Sketch 60.1 (88133) - https://sketch.com -->
    <title>log-service</title>
    <desc>Created with Sketch.</desc>
    <g id="页面-1" stroke="none" stroke-width="1" fill="none" fill-rule="evenodd">
        <g id="模型icon-库" transform="translate(-4093.000000, -957.000000)">
            <g id="log-service" transform="translate(4093.000000, 957.000000)">
                <g id="编组">
                    <rect id="矩形备份-22" opacity="0.446149554" x="0" y="0" width="36" height="36"></rect>
                    <path d="M30.5513514,28.1189189 L5.54594595,28.1189189 C2.82162162,28.1189189 0.583783784,25.8810811 0.583783784,23.1567568 L0.583783784,30.6486486 C0.583783784,33.372973 2.82162162,35.6108108 5.54594595,35.6108108 L30.5513514,35.6108108 C33.2756757,35.6108108 35.5135135,33.372973 35.5135135,30.6486486 L35.5135135,23.1567568 C35.6108108,25.8810811 33.372973,28.1189189 30.5513514,28.1189189 Z" id="路径" fill="#FFFFFF" fill-rule="nonzero"></path>
                    <path d="M30.5513514,0.583783784 L5.54594595,0.583783784 C2.82162162,0.583783784 0.583783784,2.82162162 0.583783784,5.54594595 L0.583783784,8.07567568 L3.6,8.07567568 C3.89189189,7.2972973 4.57297297,6.81081081 5.64324324,6.81081081 C7.1027027,6.81081081 8.17297297,7.78378378 8.17297297,9.34054054 C8.17297297,10.8972973 7.2,11.8702703 5.64324324,11.8702703 C4.67027027,11.8702703 3.89189189,11.3837838 3.6,10.6054054 L0.583783784,10.6054054 L0.583783784,15.5675676 L3.6,15.5675676 C3.89189189,14.7891892 4.57297297,14.3027027 5.64324324,14.3027027 C7.1027027,14.3027027 8.17297297,15.2756757 8.17297297,16.8324324 C8.17297297,18.3891892 7.33548993,19.336224 5.77873317,19.336224 C4.8057602,19.336224 3.89189189,18.8756757 3.6,18.0972973 L0.583783784,18.0972973 L0.583783784,20.627027 C0.583783784,23.3513514 2.82162162,25.5891892 5.54594595,25.5891892 L30.5513514,25.5891892 C33.2756757,25.5891892 35.5135135,23.3513514 35.5135135,20.627027 L35.5135135,5.64324324 C35.6108108,2.82162162 33.372973,0.583783784 30.5513514,0.583783784 Z M24.3243243,18.0972973 L14.3027027,18.0972973 C13.6216216,18.0972973 13.0378378,17.5135135 13.0378378,16.8324324 C13.0378378,16.1513514 13.6216216,15.5675676 14.3027027,15.5675676 L24.3243243,15.5675676 C25.0054054,15.5675676 25.5891892,16.1513514 25.5891892,16.8324324 C25.5891892,17.5135135 25.0054054,18.0972973 24.3243243,18.0972973 Z M28.1189189,13.1351351 L14.4,13.1351351 C13.7189189,13.1351351 13.1351351,12.5513514 13.1351351,11.8702703 C13.1351351,11.1891892 13.7189189,10.6054054 14.4,10.6054054 L26.9513514,10.6054054 C27.6324324,10.6054054 28.2162162,11.1891892 28.2162162,11.8702703 L28.2162162,13.1351351 L28.1189189,13.1351351 Z M28.1189189,8.07567568 L14.4,8.07567568 C13.7189189,8.07567568 13.1351351,7.49189189 13.1351351,6.81081081 C13.1351351,6.12972973 13.7189189,5.54594595 14.4,5.54594595 L26.9513514,5.54594595 C27.6324324,5.54594595 28.2162162,6.12972973 28.2162162,6.81081081 L28.2162162,8.07567568 L28.1189189,8.07567568 Z" id="形状" fill="#FFFFFF" fill-rule="nonzero"></path>
                </g>
            </g>
        </g>
    </g>
</svg>