<?xml version="1.0" encoding="UTF-8"?>
<svg width="36px" height="33px" viewBox="0 0 36 33" version="1.1" xmlns="http://www.w3.org/2000/svg" xmlns:xlink="http://www.w3.org/1999/xlink">
    <!-- Generator: Sketch 60.1 (88133) - https://sketch.com -->
    <title>log-analysis</title>
    <desc>Created with Sketch.</desc>
    <g id="页面-1" stroke="none" stroke-width="1" fill="none" fill-rule="evenodd">
        <g id="模型icon-库" transform="translate(-4231.000000, -959.000000)">
            <g id="log-analysis" transform="translate(4231.000000, 957.000000)">
                <rect id="矩形备份-22" opacity="0.446149554" x="0" y="0" width="36" height="36"></rect>
                <g id="日志分析" transform="translate(0.400000, 2.000000)" fill="#FFFFFF" fill-rule="nonzero">
                    <g id="编组">
                        <path d="M27.7348837,19.5386047 C28.5627907,19.5386047 29.3906977,19.6213953 30.2186047,19.7869767 L30.2186047,2.15255814 C30.2186047,0.993488372 29.2251163,0 28.0660465,0 C28.0660465,0 28.0660465,0 28.0660465,0 L2.48372093,0 C1.32465116,0 0.331162791,0.993488372 0.331162791,2.15255814 L0.331162791,29.8046512 C0.331162791,30.9637209 1.32465116,31.9572093 2.48372093,31.9572093 L13.412093,31.9572093 C14.4883721,24.92 20.4493023,19.5386047 27.7348837,19.5386047 Z M12.6669767,5.62976744 L23.3469767,5.62976744 C24.1748837,5.62976744 24.92,6.29209302 24.92,7.2027907 C24.92,8.03069767 24.2576744,8.77581395 23.3469767,8.77581395 C23.3469767,8.77581395 23.3469767,8.77581395 23.3469767,8.77581395 L12.584186,8.77581395 C11.7562791,8.77581395 11.0939535,8.11348837 11.0111628,7.2027907 C11.0939535,6.29209302 11.7562791,5.62976744 12.6669767,5.62976744 Z M8.44465116,15.3990698 C8.11348837,15.7302326 7.69953488,15.895814 7.2855814,15.895814 C6.45767442,15.895814 5.79534884,15.2334884 5.71255814,14.3227907 C5.71255814,13.412093 6.45767442,12.7497674 7.2855814,12.7497674 C8.19627907,12.7497674 8.85860465,13.4948837 8.85860465,14.3227907 C8.94139535,14.7367442 8.77581395,15.1506977 8.44465116,15.3990698 Z M8.44465116,8.19627907 C8.11348837,8.52744186 7.69953488,8.69302326 7.2855814,8.69302326 C6.45767442,8.69302326 5.79534884,8.03069767 5.71255814,7.12 C5.71255814,6.20930233 6.45767442,5.54697674 7.2855814,5.54697674 C8.19627907,5.54697674 8.85860465,6.29209302 8.85860465,7.12 C8.94139535,7.53395349 8.77581395,7.94790698 8.44465116,8.19627907 Z M11.0111628,14.4055814 C11.0111628,13.5776744 11.7562791,12.9153488 12.584186,12.8325581 L23.264186,12.8325581 C24.092093,12.8325581 24.8372093,13.4948837 24.8372093,14.4055814 C24.8372093,15.2334884 24.1748837,15.9786047 23.264186,15.9786047 C23.264186,15.9786047 23.264186,15.9786047 23.264186,15.9786047 L12.5013953,15.9786047 C11.7562791,15.895814 11.0939535,15.2334884 11.0111628,14.4055814 Z" id="形状"></path>
                        <path d="M26.6586047,22.8502326 C23.1813953,22.8502326 20.1181395,24.8372093 18.3795349,27.7348837 C20.1181395,30.6325581 23.1813953,32.6195349 26.6586047,32.6195349 C30.135814,32.6195349 33.1990698,30.6325581 34.9376744,27.7348837 C33.1990698,24.7544186 30.135814,22.8502326 26.6586047,22.8502326 L26.6586047,22.8502326 Z M26.6586047,31.0465116 C24.8372093,31.0465116 23.4297674,29.5562791 23.4297674,27.652093 C23.4297674,25.8306977 24.92,24.2576744 26.6586047,24.2576744 C28.3972093,24.2576744 29.8874419,25.747907 29.8874419,27.652093 C29.8874419,29.5562791 28.48,31.0465116 26.6586047,31.0465116 L26.6586047,31.0465116 Z M26.6586047,29.9702326 C27.8176744,29.9702326 28.8111628,28.9767442 28.8111628,27.7348837 C28.8111628,26.4930233 27.8176744,25.4995349 26.6586047,25.4995349 C25.4995349,25.4995349 24.5060465,26.4930233 24.5060465,27.7348837 C24.5060465,28.8939535 25.4995349,29.9702326 26.6586047,29.9702326 L26.6586047,29.9702326 Z" id="形状"></path>
                    </g>
                </g>
            </g>
        </g>
    </g>
</svg>