<?xml version="1.0" encoding="UTF-8"?>
<svg width="34px" height="32px" viewBox="0 0 34 32" version="1.1" xmlns="http://www.w3.org/2000/svg" xmlns:xlink="http://www.w3.org/1999/xlink">
    <!-- Generator: Sketch 60.1 (88133) - https://sketch.com -->
    <title>memcached</title>
    <desc>Created with Sketch.</desc>
    <g id="页面-1" stroke="none" stroke-width="1" fill="none" fill-rule="evenodd">
        <g id="模型icon-库" transform="translate(-4502.000000, -956.000000)">
            <g id="memcached" transform="translate(4501.000000, 955.000000)">
                <rect id="矩形" x="0" y="0" width="36" height="36"></rect>
                <g id="Memcached" transform="translate(1.800000, 1.800000)" fill="#FFFFFF">
                    <path d="M32.3071005,17.1457162 C32.2155212,14.6401318 32.1239419,12.1345475 31.9178886,9.62896308 C31.7576248,7.76116383 31.5286766,5.89336457 31.3455181,4.02556532 C31.2539388,3.15999981 31.1304413,2.07721621 31.0249906,1.42886879 C30.9195399,0.780521383 30.8617468,0.409206511 30.4609122,0.197183807 C30.0600777,-0.0148388971 29.4910377,0.0394083732 29.1018258,0.0394083732 C28.689719,0.0394083732 28.2776123,0.0394083732 27.8655055,0.0394083732 C26.9497128,0.0394083732 26.03392,0.0394083732 25.1181272,0.0394083732 C24.5457567,0.0394083732 23.6171375,-0.0345452427 23.2263886,0.197183807 C22.8356397,0.428912856 22.9992363,0.308912755 22.2208125,1.15170022 C21.4423886,1.99448769 20.8596908,2.90944137 20.2186359,3.843341 C18.5015244,6.34892537 17.6999352,7.60643537 17.470987,7.970884 C17.1275647,8.58589107 16.475671,9.3467053 16.1891476,9.3467053 C15.9026243,9.3467053 15.8686202,9.24173641 15.387829,8.62672934 C14.7925637,7.87505403 14.5636155,7.46504931 14.5636155,7.46504931 C12.9380833,5.07335515 11.4295755,2.49666287 9.32325215,0.469417337 C9.0256195,0.173302821 8.86280544,0.0849644526 8.42780387,0.0394083732 C7.44332664,-0.0289257459 6.43595458,0.0394083732 5.45147735,0.0394083732 C4.62726385,0.0394083732 3.80305036,0.0394083732 2.95594204,0.0394083732 C2.58962493,0.0394083732 2.01725444,-0.0744818253 1.69672697,0.0849644526 C1.3761995,0.24441073 1.3761995,0.540525246 1.33040986,0.882195842 C0.986987571,3.50167041 0.6664601,6.12114497 0.437511906,8.76339758 C0.0940896155,12.8406667 -0.0661741202,16.8723797 0.0254051573,20.9496488 C0.0940896155,24.0702403 0.0254051573,27.2136097 0.231458532,30.3342012 C0.254353351,30.8808741 0.465837041,31.0175424 0.969523068,31.0175424 C1.99660686,31.0175424 3.09197857,31.0175424 4.02176011,31.0175424 C4.52513022,31.0175424 5.14163786,31.014602 5.92005471,31.0175424 C6.57946184,31.0200332 7.43072147,31.0399016 7.64184289,30.9326813 C8.10218891,30.6988896 7.96990748,30.026097 7.90122303,29.6616483 C7.32885254,26.3132765 6.91674579,23.2502308 6.55042868,19.8790809 C6.34437531,18.1023939 6.18411157,16.3257068 6.11542711,14.5490197 C6.02384784,12.8634447 5.81185554,11.037372 6.29264675,9.3973531 C6.38422602,9.10123858 6.48556946,8.81115902 6.78320212,8.67449078 C7.12662441,8.51504451 7.2830629,8.76339758 7.48911628,9.01395601 C7.94701266,9.62896308 8.26754014,10.3806384 8.58806761,11.0639796 C9.34359665,12.6584424 10.0304412,14.2984612 10.6714962,15.9612581 C11.3354459,17.6468331 11.9993957,19.30963 12.6404506,20.9952049 C12.9609781,21.8379924 13.2357159,22.6807798 13.5791382,23.5235673 C13.739402,23.910794 13.8538761,24.0702403 14.3117725,24.0702403 C14.7696688,24.0930183 17.3796783,24.1157963 18.2038917,24.0702403 C18.7762622,24.0474622 18.8449467,23.364121 19.0052104,22.9085602 C19.6233706,21.2229853 20.2873203,19.5601884 20.9054804,17.8973915 C21.5465354,16.1890385 22.2562748,14.5262416 22.9660142,12.8406667 C23.2636468,12.1345475 23.5612795,11.4284282 23.9047018,10.745087 C24.1794396,10.1984141 24.5686515,9.05951209 25.1181272,8.7178415 C26.3544474,7.96616619 26.3315526,12.2256596 26.3315526,12.8178886 C26.3086578,14.5490197 26.1712889,16.3029287 26.0110252,18.0112817 C25.9423407,18.762957 25.7545529,20.7471413 25.4806365,23.0691134 C25.2067201,25.3910855 24.4957179,29.2026314 24.3860617,29.8005133 C24.2764056,30.3983953 24.0620839,30.9872944 25.355222,31.0175424 C26.6483601,31.0477904 26.6814411,31.0175424 27.2767064,31.0175424 C28.6275007,31.0175424 29.7035572,30.9947643 31.0543516,31.0175424 C31.6725117,31.0175424 32.0323627,30.81254 32.1010471,30.220311 C32.1697316,29.6053039 32.1789477,29.0026459 32.2247373,28.3876388 C32.270527,27.1804027 32.3071005,26.1107106 32.3528901,24.7763595 C32.4380466,22.2948227 32.3986798,19.7196347 32.3071005,17.1457162 Z" id="路径"></path>
                    <circle id="椭圆形" cx="19.6225352" cy="29.2056338" r="1.82535211"></circle>
                    <circle id="椭圆形备份" cx="12.7774648" cy="29.2056338" r="1.82535211"></circle>
                </g>
            </g>
        </g>
    </g>
</svg>