<?xml version="1.0" encoding="UTF-8"?>
<svg width="36px" height="36px" viewBox="0 0 36 36" version="1.1" xmlns="http://www.w3.org/2000/svg" xmlns:xlink="http://www.w3.org/1999/xlink">
    <!-- Generator: Sketch 60.1 (88133) - https://sketch.com -->
    <title>message-notify-service</title>
    <desc>Created with Sketch.</desc>
    <g id="页面-1" stroke="none" stroke-width="1" fill="none" fill-rule="evenodd">
        <g id="模型icon-库" transform="translate(-3682.000000, -952.000000)">
            <g id="message-notify-service" transform="translate(3682.000000, 952.000000)">
                <g id="编组">
                    <rect id="矩形备份-22" opacity="0.446149554" x="0" y="0" width="36" height="36"></rect>
                    <path d="M16.1,0.9 C7.5,0.9 0.6,7 0.6,14.5 C0.6,18.8 2.9,22.3 6.4,24.8 L6.4,31.9 L13.5,28 L16.1,28 C24.7,28 31.6,21.9 31.6,14.4 C31.6,6.9 24.6,0.9 16.1,0.9 Z M8.3,16.4 C7.2,16.4 6.3,15.5 6.3,14.4 C6.3,13.3 7.2,12.4 8.3,12.4 C9.4,12.4 10.3,13.3 10.3,14.4 C10.3,15.6 9.4,16.4 8.3,16.4 L8.3,16.4 L8.3,16.4 Z M16.1,16.4 C15,16.4 14.1,15.5 14.1,14.4 C14.1,13.3 15,12.4 16.1,12.4 C17.2,12.4 18.1,13.3 18.1,14.4 C18,15.6 17.1,16.4 16.1,16.4 Z M23.8,16.4 C22.7,16.4 21.8,15.5 21.8,14.4 C21.8,13.3 22.7,12.4 23.8,12.4 C24.9,12.4 25.8,13.3 25.8,14.4 C25.8,15.6 24.9,16.4 23.8,16.4 Z" id="形状" fill="#FFFFFF" fill-rule="nonzero"></path>
                    <path d="M30.5,7.9 C32.1,10 33,12.6 33,15.3 C33,22.8 26.1,28.9 17.5,28.9 L14.9,28.9 L12.8,30 C15.1,31.1 17.7,31.7 20.3,31.7 L22.9,31.7 L30,35.6 L30,28.5 C33.5,26 35.8,22.4 35.8,18.2 C35.8,14.1 33.8,10.3 30.5,7.9 Z" id="路径" fill="#FFFFFF" fill-rule="nonzero"></path>
                </g>
            </g>
        </g>
    </g>
</svg>