<?xml version="1.0" encoding="UTF-8"?>
<svg width="22px" height="24px" viewBox="0 0 22 24" version="1.1" xmlns="http://www.w3.org/2000/svg" xmlns:xlink="http://www.w3.org/1999/xlink">
    <title>MSSQL</title>
    <g id="页面-1" stroke="none" stroke-width="1" fill="none" fill-rule="evenodd">
        <g id="MSSQL备份-2" transform="translate(-13.000000, -12.000000)" fill="#FFFFFF" fill-rule="nonzero">
            <g id="MSSQL" transform="translate(13.000000, 12.000000)">
                <g id="编组-2" transform="translate(3.562618, 0.000000)">
                    <path d="M6.61387289,4.97143286 C5.64123722,3.50243683 5.43098591,1.53917673 5.38512373,0.73239859 C2.91452194,1.27045063 0.460001684,2.23558521 0.601757525,2.94638974 C0.619625908,3.03576516 0.73160111,3.14313564 0.917432296,3.24750694 L0.626773262,3.77116293 C0.271788047,3.57081803 0.0722577669,3.33988153 0.0180570043,3.06395741 C-0.142162833,2.25957862 0.762572975,1.53197871 2.78289151,0.839169228 C4.1623307,0.365899378 5.55368215,0.0833770713 5.61264781,0.0719802054 L5.96822864,0 L5.96822864,0.366499213 C5.96822864,0.391692285 5.98371457,2.93859189 7.10942272,4.63912424 L6.61387289,4.97143286 Z" id="路径"></path>
                    <path d="M3.54051096,4.56534453 C3.47082427,4.56534453 3.40173319,4.54015146 3.34693681,4.49336432 C2.38800024,3.66679163 1.25931403,1.98485417 1.21166501,1.91347379 C1.13483096,1.7989053 1.14674322,1.64594736 1.2390632,1.54397541 C1.33078756,1.44140361 1.48207321,1.41741021 1.60119576,1.48279223 C1.6077475,1.48459174 2.15988055,1.71372872 5.89973317,2.34115618 C6.00753908,2.35915123 6.09628539,2.43473045 6.13202215,2.53790208 C6.16835453,2.6410737 6.14512563,2.75624203 6.07246087,2.8378196 C5.02537361,4.00929744 3.70251764,4.52515558 3.64653004,4.54614981 C3.6119845,4.55874634 3.57565212,4.56534453 3.54051096,4.56534453 Z M2.18430067,2.25358027 C2.56013233,2.76284022 3.10154435,3.45085102 3.59709418,3.91452351 C3.90145231,3.77476194 4.58402455,3.42385844 5.23145563,2.83602009 C3.69298783,2.57149284 2.7543021,2.38314464 2.18430067,2.25358027 Z" id="形状"></path>
                </g>
                <g id="编组" transform="translate(0.000000, 11.327885)">
                    <path d="M11.1693773,12.6721152 L11.0198785,12.6721152 C6.14061861,12.6721152 0.710416927,11.1287396 0.0689419667,8.54584989 C-0.322375627,6.96828372 0.957596229,5.22516308 3.77007976,3.50663568 L4.0797984,4.0188948 C1.54903972,5.56586939 0.329820363,7.12124166 0.647281972,8.40068981 C1.20417992,10.6428732 6.3502743,12.0404889 10.8638279,12.0716803 C11.400475,11.2637025 14.2838365,6.51720777 12.6381584,0.151158431 L13.2141159,0 C15.0897006,7.25320537 11.297434,12.4987628 11.2593148,12.5509485 L11.1693773,12.6721152 Z" id="路径"></path>
                    <path d="M2.34239593,10.4563245 C2.02136065,10.4563245 1.86233204,10.4209342 1.83612507,10.4143361 C1.73129723,10.3885432 1.64910266,10.3075654 1.62051325,10.2031941 C1.59132822,10.0988228 1.62110886,9.98665367 1.6973473,9.91047462 C1.74023142,9.8672865 5.98397245,5.58686361 6.55695194,2.1258154 L7.14422614,2.22418835 C6.65165437,5.20176951 3.74029912,8.59623604 2.58421472,9.84629227 C3.73910789,9.77971058 6.65522805,9.23506036 12.2533925,6.07932818 C7.88457282,5.59706081 7.193662,2.07482942 7.18651464,2.03703981 L7.772002,1.92846967 C7.7999958,2.07602909 8.50222327,5.53407813 13.2778465,5.53407813 C13.2796333,5.53407813 13.2808246,5.53407813 13.2826114,5.53407813 L13.2826114,5.53407813 C13.4178155,5.53407813 13.5351512,5.62525306 13.5696968,5.7560171 C13.6054335,5.88678114 13.5482547,6.02534303 13.4321102,6.09372423 C6.74040067,9.99805054 3.49550227,10.4557247 2.34239593,10.4563245 Z" id="路径"></path>
                    <path d="M5.07804541,11.8923296 C4.95475357,11.8923296 4.84277837,11.8155507 4.79929864,11.6973832 C4.75224523,11.570818 4.79512935,11.4274574 4.9047221,11.3482792 C4.92497293,11.3332833 5.98456806,10.5456999 7.11206305,8.81217665 C6.67845694,8.61902977 6.23949033,8.39349179 5.80409739,8.1301642 C5.27519324,7.81045213 4.87553707,7.46734648 4.57713507,7.11584314 C3.04641024,7.5225313 1.63361673,7.6832871 0.392955317,7.57711629 L0.44298679,6.97968059 C1.56035636,7.07505436 2.83079841,6.94189098 4.20785515,6.59578616 C3.27095625,4.98342956 4.1310211,3.38306966 4.14293336,3.36147559 L4.66349892,3.65359526 C4.62359287,3.72677514 3.91004876,5.07520432 4.8118065,6.43263103 C6.12275022,6.05353528 7.52124902,5.49268951 8.96858807,4.76388993 C9.30153561,3.66319262 9.56181839,2.41133688 9.69821372,0.999325186 C9.70774352,0.902751743 9.7625399,0.816975332 9.84592569,0.768388693 C9.92931148,0.719802054 10.0311613,0.715603209 10.1187163,0.755792157 C10.1377759,0.764789683 12.0627964,1.65014621 13.4565303,2.22778736 C13.5577845,2.26977581 13.6280668,2.36454975 13.6393835,2.47431956 C13.6512957,2.58408938 13.6018599,2.69086001 13.5107311,2.75324286 C12.1473735,3.68898553 10.79295,4.50056235 9.4736677,5.17777611 C9.05554753,6.51240909 8.53796003,7.62330359 8.00905589,8.53145385 C10.2140144,9.36102572 12.1277182,9.37362225 12.1521384,9.37362225 C12.2879381,9.37362225 12.406465,9.46599685 12.4404149,9.5985604 C12.4743649,9.73112394 12.4153992,9.86968584 12.2968723,9.93626753 C9.59279026,11.4490515 5.28829672,11.8749344 5.10663483,11.8923296 C5.09710502,11.8917298 5.08757522,11.8923296 5.07804541,11.8923296 Z M7.68980744,9.05331034 C7.07037015,10.0214441 6.46165389,10.7166529 6.00660573,11.170728 C7.19664006,10.9943765 9.28307161,10.6080828 11.014518,9.88768089 C10.185425,9.78510909 8.98526523,9.55717178 7.68980744,9.05331034 Z M5.22277932,6.93229362 C5.45685514,7.16742896 5.7487054,7.39716578 6.11024236,7.61610557 C6.54861336,7.88123266 6.9935361,8.1061708 7.43250272,8.29691835 C7.88159475,7.53872685 8.3265175,6.62877709 8.70830529,5.55687186 C7.50457187,6.13391317 6.3359796,6.59458649 5.22277932,6.93229362 Z M10.2467731,1.47259504 C10.1246725,2.5331034 9.93645883,3.50063732 9.70297862,4.38179501 C10.6916958,3.85094099 11.7006639,3.24450776 12.7179705,2.56669416 C11.7953663,2.17320237 10.7810377,1.71552823 10.2467731,1.47259504 Z" id="形状"></path>
                </g>
                <path d="M9.43733532,12.8430682 C9.39683366,12.8430682 9.35573637,12.8346705 9.31761716,12.8178751 C9.19909021,12.7650896 9.12761668,12.6415236 9.14131577,12.5119592 C9.3152347,10.8630127 6.80294001,10.2013946 6.77732867,10.1953963 C6.67369204,10.1690035 6.59149748,10.0880258 6.56350368,9.98425433 C6.53550988,9.88048287 6.5646949,9.76891355 6.64033773,9.6927345 C6.76362957,9.56856864 9.70119178,6.63477544 13.3868436,5.0236185 C13.4898847,4.97863088 13.6066248,4.99542626 13.6935842,5.06560696 C13.7799481,5.13638749 13.8198541,5.24975632 13.7972208,5.3589263 C13.0908241,8.8043788 9.80065912,12.5833396 9.66128573,12.7422959 C9.60232006,12.8076779 9.5201255,12.8430682 9.43733532,12.8430682 Z M7.41939924,9.7749119 C8.12460477,10.0418385 9.35990566,10.6596686 9.67260237,11.7879583 C10.5356453,10.7034565 12.3778756,8.20514359 13.0658084,5.82919697 C10.4528551,7.09484892 8.25266151,9.00352403 7.41939924,9.7749119 Z" id="形状"></path>
                <path d="M4.21738495,15.2184149 L3.93446888,14.6905601 C5.05600774,14.0817275 6.3407445,12.9612357 7.39319228,11.6589938 C6.49739066,12.2768239 5.98456806,12.6997076 5.96848652,12.7135038 L5.58788995,12.2516308 C5.61111885,12.2324361 6.63855089,11.3836695 8.34617272,10.320162 C8.81491997,9.56077079 9.1752657,8.77978556 9.36050128,8.03119142 C9.39206875,7.90402639 9.41946694,7.78106021 9.44150461,7.66229287 C8.29495002,7.25020619 7.23714173,7.00607333 6.51049414,6.9011022 C6.40030578,6.88550649 6.30858141,6.80932743 6.27165342,6.7043563 C6.23472543,6.59938517 6.25914555,6.4818175 6.33359715,6.40023993 C6.38422423,6.34505511 7.59391378,5.03981405 9.10557901,4.32301117 C9.22291472,4.26722651 9.36347934,4.29481892 9.45163003,4.39139237 C9.49153609,4.43518033 10.3093124,5.36012597 10.1014436,7.27359976 C10.7893763,7.54352553 11.4981555,7.8716353 12.1807278,8.26212791 C13.8240234,7.51833246 15.6900782,6.84891655 17.6776381,6.44462773 C17.7800835,6.42423334 17.8938455,6.46142311 17.9641278,6.54540001 C18.0337255,6.62937692 18.0528741,6.74514509 18.0135637,6.84711704 C17.2392671,8.84576741 15.1629609,10.9805803 15.0748103,11.0705556 C15.0146534,11.1317388 14.9324588,11.1623304 14.8466906,11.1593312 C14.7615179,11.1545325 14.682897,11.1137437 14.6292919,11.0465622 C13.9622056,10.2019945 13.0902285,9.50258679 12.1497559,8.93334333 C10.8542981,9.53557772 9.70714791,10.1798006 8.76429289,10.7622404 C7.56115508,12.6535203 5.74513172,14.3900427 4.21738495,15.2184149 Z M12.8019519,8.6418235 C13.5702924,9.14088626 14.2856233,9.72752493 14.8770668,10.4101372 C15.3702342,9.87148534 16.5537168,8.50985979 17.2249724,7.1578316 C15.6465985,7.52373097 14.1528017,8.05338532 12.8019519,8.6418235 Z M10.0067411,7.87763365 C9.98708592,7.97540676 9.96445263,8.07557922 9.93943689,8.17755117 C9.81435821,8.68081278 9.61542354,9.19787059 9.36050128,9.71372872 C10.0132929,9.33823199 10.7357712,8.95073855 11.5154283,8.57524181 C11.0163048,8.30891505 10.5070559,8.07737872 10.0067411,7.87763365 Z M7.17698484,6.40803779 C7.83871063,6.53880183 8.65410452,6.75234311 9.52429479,7.05945865 C9.61482793,5.95396266 9.31821277,5.27674889 9.13893332,4.97683137 C8.31937014,5.40751293 7.60165675,6.01334633 7.17698484,6.40803779 Z" id="形状"></path>
                <path d="M7.17817606,9.30404139 C7.17817606,11.9313189 5.00418943,14.0187448 3.43772783,15.5423259 C3.17565821,15.8002549 2.28819517,15.8422434 2.28819517,15.8422434 C2.5085719,15.6143061 2.75872926,15.374372 3.02675501,15.116443 C4.51578695,13.6648422 6.58256329,11.6793882 6.58256329,9.30404139 C6.58256329,6.49081503 5.45685514,5.38112019 4.5693921,4.49336432 C4.17628767,4.09147484 3.84274452,3.70758042 3.64023617,3.23970908 L3.82487613,3.16173052 C4.02738448,3.25170578 4.25967346,3.35367774 4.43835729,3.43165629 C4.58130436,3.64159856 4.77190045,3.84554248 4.99227717,4.06748144 C5.90356472,4.98522906 7.17817606,6.24488266 7.17817606,9.30404139 Z" id="路径"></path>
                <path d="M22,10.0802279 C22,10.0802279 21.6396543,10.1318138 21.5384001,10.1438105 C16.3208322,10.7256504 10.9364927,12.2372348 7.85717463,13.4788933 C6.74337874,13.9287696 5.58788995,14.4746195 4.53365534,15.0864512 C4.52769921,15.0924496 4.52174308,15.0924496 4.50983083,15.0984479 C3.89039354,15.458349 2.38349322,16.2021444 1.16248702,16.8559646 C2.94932535,14.9424908 6.29666915,13.4668966 7.63084177,12.9270451 C10.6505985,11.7093799 15.8383858,10.2397841 20.9427873,9.60995726 C20.3412184,8.90215191 18.8700549,7.40256429 15.9753768,6.28687111 C14.2838365,5.62705256 11.7107893,5.25515483 9.44150461,4.92524556 C5.83209119,4.40338907 3.77722711,4.05548474 3.5806749,3.06575692 C3.538982,2.86781135 3.56876264,2.66986579 3.65810456,2.47791857 C3.85465677,2.8018295 4.13459478,3.02976681 4.31923474,3.16173052 C4.40857665,3.22171403 4.47409406,3.25770413 4.49791857,3.26970083 L4.5038747,3.27569918 C5.34964484,3.72557547 7.63084177,4.05548474 9.53084653,4.33140886 C11.8299118,4.66731649 14.4327397,5.04521257 16.1897974,5.72302617 C20.2816571,7.31258904 21.6932594,9.58596386 21.7528207,9.68193747 C21.8064258,9.77191272 22,10.0802279 22,10.0802279 Z" id="路径"></path>
            </g>
        </g>
    </g>
</svg>