<?xml version="1.0" encoding="UTF-8"?>
<svg width="32px" height="36px" viewBox="0 0 32 36" version="1.1" xmlns="http://www.w3.org/2000/svg" xmlns:xlink="http://www.w3.org/1999/xlink">
    <!-- Generator: Sketch 59.1 (86144) - https://sketch.com -->
    <title>MysQL</title>
    <desc>Created with Sketch.</desc>
    <defs>
        <linearGradient x1="50.0786429%" y1="99.9241721%" x2="50.0786429%" y2="0.101836437%" id="linearGradient-1">
            <stop stop-color="#FFFFFF" offset="0%"></stop>
            <stop stop-color="#FFFFFF" stop-opacity="0.99" offset="37%"></stop>
            <stop stop-color="#FFFFFF" stop-opacity="0.97" offset="51%"></stop>
            <stop stop-color="#FFFFFF" stop-opacity="0.92" offset="60%"></stop>
            <stop stop-color="#FFFFFF" stop-opacity="0.85" offset="68%"></stop>
            <stop stop-color="#FFFFFF" stop-opacity="0.77" offset="75%"></stop>
            <stop stop-color="#FFFFFF" stop-opacity="0.66" offset="80%"></stop>
            <stop stop-color="#FFFFFF" stop-opacity="0.53" offset="86%"></stop>
            <stop stop-color="#FFFFFF" stop-opacity="0.39" offset="91%"></stop>
            <stop stop-color="#FFFFFF" stop-opacity="0.22" offset="95%"></stop>
            <stop stop-color="#FFFFFF" stop-opacity="0.04" offset="99%"></stop>
            <stop stop-color="#FFFFFF" stop-opacity="0" offset="100%"></stop>
        </linearGradient>
    </defs>
    <g id="页面-1" stroke="none" stroke-width="1" fill="none" fill-rule="evenodd">
        <g id="模型icon-库" transform="translate(-419.000000, -134.000000)">
            <g id="MysQL" transform="translate(417.000000, 134.000000)">
                <rect id="矩形备份" x="0" y="0" width="36" height="36"></rect>
                <path d="M32.0750337,8.05506073 L19.1994602,0.560323887 C18.3346829,0.0798920378 17.2777328,0.0798920378 16.4129555,0.560323887 L3.44129555,8.05506073 C2.57651822,8.53549258 2,9.49635628 2,10.5533063 L2,25.4466937 C2,26.5036437 2.57651822,27.4645074 3.44129555,27.9449393 L16.3168691,35.4396761 C17.1816464,35.920108 18.2385965,35.920108 19.1033738,35.4396761 L31.9789474,27.9449393 C32.8437247,27.4645074 33.4202429,26.5036437 33.4202429,25.4466937 L33.4202429,10.5533063 C33.4202429,9.49635628 32.9398111,8.53549258 32.0750337,8.05506073 Z M29.9611336,23.8132254 C29.6728745,25.1584345 28.0394062,24.48583 28.0394062,24.48583 C27.462888,24.2936572 26.8863698,24.2936572 26.3098516,24.48583 C25.637247,24.48583 25.0607287,24.8701754 24.7724696,25.4466937 C24.4842105,25.7349528 24.0037787,25.9271255 23.6194332,25.9271255 C22.4663968,25.7349528 22.9468286,24.3897436 22.9468286,24.3897436 C23.3311741,23.5249663 23.8116059,22.7562753 24.3881242,22.0836707 C23.8116059,21.3149798 23.1390013,20.5462888 22.4663968,19.8736842 C21.6977058,19.1049933 20.7368421,18.528475 19.679892,18.2402159 C18.8151147,18.0480432 17.9503374,17.8558704 17.0855601,17.8558704 C16.8933873,17.8558704 16.6051282,17.9519568 16.6051282,18.2402159 C16.6051282,18.3363023 16.6051282,18.3363023 16.6051282,18.4323887 C16.6051282,18.6245614 16.6051282,18.8167341 16.6051282,18.9128205 C16.3168691,19.8736842 15.0677463,19.6815115 15.0677463,19.6815115 C14.2990553,19.5854251 13.6264507,19.2010796 13.0499325,18.6245614 C12.8577598,18.4323887 12.5695007,18.3363023 12.2812416,18.528475 L9.11039136,19.9697706 C7.66909582,20.7384615 7.18866397,19.7775978 7.18866397,19.7775978 C6.99649123,19.1049933 7.18866397,18.3363023 7.86126856,17.8558704 C7.57300945,15.4537112 9.97516869,13.7241565 9.97516869,13.7241565 C11.9929825,11.8024291 16.02861,11.0337382 16.02861,11.0337382 L16.6051282,10.5533063 C17.1816464,9.40026991 18.4307692,8.72766532 19.679892,8.82375169 C20.3524966,8.91983806 20.8329285,9.49635628 20.8329285,10.1689609 C20.8329285,10.3611336 20.7368421,10.5533063 20.6407557,10.6493927 C19.5838057,11.8985155 20.5446694,12.1867746 20.5446694,12.1867746 C21.9859649,13.051552 23.2350877,14.108502 24.1959514,15.4537112 C25.3489879,17.0871795 26.1176788,19.0089069 26.4059379,21.0267206 C27.3668016,21.2188934 28.2315789,21.6032389 29.0002699,22.2758435 C30.1533063,23.3327935 29.9611336,23.8132254 29.9611336,23.8132254 L29.9611336,23.8132254 Z" id="形状" fill="url(#linearGradient-1)" fill-rule="nonzero"></path>
                <circle id="椭圆形" fill="#FFFFFF" fill-rule="nonzero" cx="10.6" cy="17.5" r="1"></circle>
            </g>
        </g>
    </g>
</svg>