<?xml version="1.0" encoding="UTF-8"?>
<svg width="31px" height="36px" viewBox="0 0 31 36" version="1.1" xmlns="http://www.w3.org/2000/svg" xmlns:xlink="http://www.w3.org/1999/xlink">
    <!-- Generator: Sketch 59.1 (86144) - https://sketch.com -->
    <title>网络服务</title>
    <desc>Created with Sketch.</desc>
    <defs>
        <linearGradient x1="50%" y1="0%" x2="50%" y2="100%" id="linearGradient-1">
            <stop stop-color="#FFFFFF" offset="0%"></stop>
            <stop stop-color="#FFFFFF" stop-opacity="0.87973046" offset="79.8907306%"></stop>
            <stop stop-color="#FFFFFF" stop-opacity="0.170591128" offset="100%"></stop>
        </linearGradient>
    </defs>
    <g id="页面-1" stroke="none" stroke-width="1" fill="none" fill-rule="evenodd">
        <g id="低优先级" transform="translate(-511.000000, -271.000000)">
            <g id="网络服务" transform="translate(509.000000, 271.000000)">
                <polygon id="矩形备份-18" points="0 0 36 0 36 36 24.484679 36 0 36"></polygon>
                <g id="编组-6" transform="translate(2.000000, 0.000000)">
                    <path d="M15.6,0.257142857 C24.073626,0.257142857 30.9428571,7.12637398 30.9428571,15.6 C30.9428571,24.073626 24.073626,30.9428571 15.6,30.9428571 C7.12637398,30.9428571 0.257142857,24.073626 0.257142857,15.6 C0.257142857,7.12637398 7.12637398,0.257142857 15.6,0.257142857 Z M15.6,1.8 C7.97847045,1.8 1.8,7.97847045 1.8,15.6 C1.8,23.2215295 7.97847045,29.4 15.6,29.4 C23.2215295,29.4 29.4,23.2215295 29.4,15.6 C29.4,7.97847045 23.2215295,1.8 15.6,1.8 Z" id="椭圆形" fill="url(#linearGradient-1)" fill-rule="nonzero"></path>
                    <path d="M15.6,4.14285714 C21.9276053,4.14285714 27.0571429,9.27239472 27.0571429,15.6 C27.0571429,21.9276053 21.9276053,27.0571429 15.6,27.0571429 C9.27239472,27.0571429 4.14285714,21.9276053 4.14285714,15.6 C4.14285714,9.27239472 9.27239472,4.14285714 15.6,4.14285714 Z M15.6,5.68571429 C10.1244912,5.68571429 5.68571429,10.1244912 5.68571429,15.6 C5.68571429,21.0755088 10.1244912,25.5142857 15.6,25.5142857 C21.0755088,25.5142857 25.5142857,21.0755088 25.5142857,15.6 C25.5142857,10.1244912 21.0755088,5.68571429 15.6,5.68571429 Z" id="椭圆形" fill="url(#linearGradient-1)" fill-rule="nonzero"></path>
                    <polygon id="三角形" fill="#FFFFFF" points="15.6 17.5428571 21.4285714 36 9.77142857 36"></polygon>
                    <circle id="椭圆形" fill="#FFFFFF" cx="15.6" cy="16.5714286" r="1.94285714"></circle>
                </g>
            </g>
        </g>
    </g>
</svg>