<?xml version="1.0" encoding="UTF-8"?>
<svg width="36px" height="34px" viewBox="0 0 36 34" version="1.1" xmlns="http://www.w3.org/2000/svg" xmlns:xlink="http://www.w3.org/1999/xlink">
    <!-- Generator: Sketch 60.1 (88133) - https://sketch.com -->
    <title>nginx</title>
    <desc>Created with Sketch.</desc>
    <g id="页面-1" stroke="none" stroke-width="1" fill="none" fill-rule="evenodd">
        <g id="模型icon-库" transform="translate(-1099.000000, -954.000000)">
            <g id="nginx" transform="translate(1099.000000, 953.000000)">
                <g id="编组">
                    <rect id="矩形备份-6" opacity="0.446149554" x="0" y="0" width="36" height="36"></rect>
                    <path d="M27.0742893,1.945 C27.4341124,1.945 27.7039798,2.12491156 27.8838913,2.3947789 L27.8838913,2.3947789 L32.2017688,9.86110865 C32.3816804,10.130976 32.4716361,10.4907991 32.4716361,10.8506222 C32.4716361,11.8401358 31.6620341,12.5597821 30.6725205,12.5597821 C30.0428301,12.5597821 29.5030954,12.1999589 29.1432723,11.6602243 L29.1432723,11.6602243 L25.99482,6.26287745 C25.7249526,5.90305433 25.2751737,5.63318699 24.8253948,5.63318699 L24.8253948,5.63318699 L12.8612761,5.63318699 C11.8717625,5.72314277 10.9722047,6.17292167 10.43247,7.07247947 L10.43247,7.07247947 L4.76525584,16.8776595 C4.31547694,17.5973057 4.31547694,18.5868193 4.76525584,19.3064656 L4.76525584,19.3064656 L11.242072,30.5509381 L24.1957044,30.5509381 C25.0952622,30.5509381 25.9048642,30.0112034 26.3546431,29.2915572 L26.3546431,29.2915572 L30.862,21.465 L16.9092862,21.4654043 C15.9197726,21.4654043 15.1101706,20.6558023 15.1101706,19.6662887 C15.1101706,18.6767751 15.9197726,17.8671731 16.9092862,17.8671731 L34.0008844,17.8671731 C34.990398,17.8671731 35.8,18.6767751 35.8,19.6662887 C35.8,20.0126184 35.7008238,20.336909 35.5294692,20.6121625 L35.5141609,20.6346475 L28.2437145,32.7998326 C27.8838913,33.6094346 27.0742893,34.0592135 26.1747315,34.0592135 L26.1747315,34.0592135 L10.6123816,34.0592135 C9.62286797,34.0592135 8.72331017,33.5194788 8.27353127,32.7098768 L8.27353127,32.7098768 L0.537334176,19.2165098 C0.0875552748,18.4968636 0.0875552748,17.50735 0.537334176,16.7877037 L0.537334176,16.7877037 L8.27353127,3.38429248 C8.81326595,2.48473468 9.71282375,1.945 10.7023373,1.945 L10.7023373,1.945 Z" id="形状结合" fill="#FFFFFF" fill-rule="nonzero"></path>
                </g>
            </g>
        </g>
    </g>
</svg>