<?xml version="1.0" encoding="UTF-8"?>
<svg width="36px" height="36px" viewBox="0 0 36 36" version="1.1" xmlns="http://www.w3.org/2000/svg" xmlns:xlink="http://www.w3.org/1999/xlink">
    <!-- Generator: Sketch 60.1 (88133) - https://sketch.com -->
    <title>operator</title>
    <desc>Created with Sketch.</desc>
    <g id="页面-1" stroke="none" stroke-width="1" fill="none" fill-rule="evenodd">
        <g id="中优先级" transform="translate(-503.000000, -1177.000000)">
            <g id="operator" transform="translate(503.000000, 1177.000000)">
                <rect id="矩形" x="0" y="0" width="36" height="36"></rect>
                <path d="M18.176087,-2.84217094e-14 C18.2867352,-2.84217094e-14 18.3969817,0.00227846899 18.5068079,0.0068050329 C28.2154401,0.275073793 36,8.22615116 36,18 C36,21.7122182 34.8632936,25.2485471 32.8038127,28.2143103 L32.8206522,28.2130435 C32.4,28.848913 31.3826087,30.0423913 30.9326087,30.5021739 C29.7586957,31.6956522 28.1054348,32.8206522 26.2271739,33.6717391 C24.6815217,34.376087 22.1576087,35.2956522 18.0097826,35.2956522 C14.3217391,35.2956522 10.3206522,33.7108696 7.57173913,31.5195652 C7.36630435,31.3532609 6.91630435,30.9423913 6.75,30.7663043 L6.405,30.356 L2.46521739,34.2391304 L2.63152174,21.4630435 L15.4271739,21.4630435 L11.1957218,25.6330019 C12.0047767,26.8522975 14.6508703,30.1586451 19.4771739,31.2847826 C20.2597826,31.4706522 26.2956522,32.5565217 30.1891304,29.0054348 C30.5120296,28.7103119 30.7930309,28.4176535 31.0395695,28.1340203 C33.2833216,25.265824 34.5326087,21.7306716 34.5326087,18 C34.5326087,16.6623626 34.3738695,15.3619027 34.0741957,14.1164246 L29.5530042,14.1167107 C29.681733,15.1546376 29.748913,16.224377 29.748913,17.3167272 C29.748913,19.8906028 29.365773,22.3928547 28.6388248,24.6968518 L28.6388248,24.6968518 L27.2394361,24.2553221 C27.9211836,22.0945846 28.2815217,19.7412497 28.2815217,17.3167272 C28.2815217,16.219086 28.209941,15.1487836 28.073969,14.1160645 L19.269,14.116 L19.2197096,20.6119565 C18.8966327,20.4791619 18.5795387,20.3463673 18.264439,20.2220041 L17.7927866,20.0428368 L17.835,14.116 L8.29173083,14.1160939 C8.19245415,14.8724569 8.12766087,15.6491784 8.10019082,16.4422959 L8.09007436,16.8144623 L6.62296912,16.7854887 C6.64091198,15.8769365 6.70525871,14.9855426 6.81268733,14.1166412 L1.92580429,14.1164246 C1.62613046,15.3619027 1.4673913,16.6623626 1.4673913,18 C1.4673913,18.8701671 1.54999722,19.7558861 1.71154952,20.7151029 L1.71154952,20.7151029 L0.264537433,20.9588102 C0.0901018521,19.9230989 3.55271368e-15,18.9570068 3.55271368e-15,18 C3.55271368e-15,11.5836926 3.35485038,5.95293064 8.40659762,2.76566764 C8.45014099,2.72127376 8.50084941,2.68245444 8.55751881,2.65004768 C8.59836165,2.62669145 8.64050504,2.6076931 8.6834112,2.59290617 C11.4012004,0.947771337 14.5896389,5.86197757e-14 18,5.86197757e-14 C18.0388356,5.86197757e-14 18.0776424,0.0001229031 18.1164201,0.000368341674 Z M8.7021681,4.32681993 L8.57232511,4.41589057 C5.70705037,6.40785582 3.50240937,9.28325979 2.35233696,12.6481676 L7.03876547,12.6483297 C7.5330786,9.97596667 8.44279267,7.56127565 9.66148136,5.57515564 C9.31601646,5.18440726 8.99522006,4.7671369 8.7021681,4.32681993 Z M10.7323426,6.64319965 L10.6448835,6.79447949 C9.69564926,8.46366201 8.96541186,10.4510589 8.53225353,12.6477175 L17.845,12.648 L17.8682269,9.48965113 C15.1842963,9.38246274 12.6842492,8.34973176 10.7323426,6.64319965 Z M27.7456043,4.64251903 L27.5755675,4.87577796 C27.3387929,5.19078159 27.0873311,5.49223274 26.822388,5.77932236 C27.9816501,7.72572107 28.8479268,10.0678542 29.3263752,12.648662 L33.647663,12.6481676 C32.5404996,9.40880391 30.4559912,6.62309885 27.7456043,4.64251903 Z M25.7304107,6.81773944 L25.4809031,7.02106483 C23.729493,8.40283251 21.5940775,9.26670185 19.3046872,9.45836397 L19.28,12.648 L27.8328435,12.6478858 C27.4009628,10.4627162 26.674694,8.48305957 25.7304107,6.81773944 Z M17.9258534,1.47227978 C15.5074271,1.56683047 13.2709387,3.02771308 11.5432346,5.39885958 C13.2572671,6.96196552 15.482472,7.91401904 17.8780393,8.02135246 Z M19.3645352,1.57790015 L19.3169258,7.98386902 C21.4253721,7.77882815 23.3777772,6.92025614 24.9374148,5.56661174 C23.4154051,3.41178897 21.4812226,1.97360668 19.3645352,1.57790015 Z M24.5130364,2.79905595 C25.0366163,3.31244273 25.5291002,3.88457536 25.9872591,4.51116491 C26.1740378,4.2933779 26.3528248,4.06649855 26.5224376,3.83133575 C25.8801253,3.44229838 25.2088972,3.09748881 24.5130364,2.79905595 Z M12.1181549,2.54349099 L11.9807169,2.59673052 C11.2800132,2.87064883 10.6025966,3.19098991 9.95224616,3.55397484 C10.1289157,3.81906362 10.3177763,4.07329744 10.5172196,4.31737195 C11.0147897,3.6598175 11.5498389,3.06589229 12.1181549,2.54349099 Z" id="形状结合" fill="#FFFFFF" fill-rule="nonzero"></path>
            </g>
        </g>
    </g>
</svg>