<?xml version="1.0" encoding="UTF-8"?>
<svg width="36px" height="34px" viewBox="0 0 36 34" version="1.1" xmlns="http://www.w3.org/2000/svg" xmlns:xlink="http://www.w3.org/1999/xlink">
    <!-- Generator: Sketch 59.1 (86144) - https://sketch.com -->
    <title>OS镜像</title>
    <desc>Created with Sketch.</desc>
    <defs>
        <linearGradient x1="49.5580342%" y1="100.474272%" x2="49.5580342%" y2="-0.218446602%" id="linearGradient-1">
            <stop stop-color="#FFFFFF" offset="0%"></stop>
            <stop stop-color="#FFFFFF" stop-opacity="0.2222" offset="78.57%"></stop>
        </linearGradient>
    </defs>
    <g id="页面-1" stroke="none" stroke-width="1" fill="none" fill-rule="evenodd">
        <g id="模型icon-库" transform="translate(-3985.000000, -137.000000)">
            <g id="OS镜像" transform="translate(3985.000000, 136.000000)">
                <g id="编组">
                    <rect id="矩形备份-22" opacity="0.446149554" x="0" y="0" width="36" height="36"></rect>
                    <path d="M35.4162162,26.2 C32.1588754,20.2559833 28.8507673,14.4181454 25.4918919,8.68648649 C25.2275023,8.23532624 24.9999782,8.11553844 24.7369927,8.02397412 C24.5795273,7.96914901 24.1245595,7.97871584 23.9688546,8.02397412 C23.4900109,8.16315823 23.2540541,8.50076706 23.2540541,9.07567568 L23.2540541,26.8810811 C23.2540541,27.6594595 23.7405405,28.1459459 24.4216216,28.1459459 L34.5405405,28.1459459 C34.7427632,28.1459459 35.0518799,28.1013415 35.2216216,27.9513514 C35.5793754,27.6352268 35.8692179,26.9306094 35.4162162,26.2 Z M25.4918919,25.7135135 L25.4918919,13.9405405 L32.2054054,25.7135135 L25.4918919,25.7135135 Z" id="形状" fill="url(#linearGradient-1)" fill-rule="nonzero"></path>
                    <path d="M18.0972973,34.5675676 C17.3189189,34.5675676 16.8324324,34.0810811 16.8324324,33.3027027 L16.8324324,3.04324324 C16.8324324,2.45945946 17.3189189,1.77837838 18,1.77837838 L18.0972973,1.77837838 C18.8756757,1.77837838 19.3621622,2.26486486 19.3621622,3.04324324 L19.3621622,33.3027027 C19.3621622,34.0810811 18.8756757,34.5675676 18.0972973,34.5675676 L18.0972973,34.5675676 Z" id="路径" fill="#FFFFFF" fill-rule="nonzero"></path>
                    <path d="M11.8702703,28.2432432 C11.8702703,28.2432432 8.46486486,28.2432432 1.65405405,28.2432432 C1.55675676,28.2432432 1.17760076,28.2432432 0.972972973,28.1459459 C0.451864851,27.8981672 0.291891892,26.9783784 0.583783784,26.3945946 L10.7027027,8.88108108 C10.9408685,8.53438226 11.1722247,8.3199034 11.3967714,8.2376445 C11.6097397,8.15962717 11.8236051,8.12896893 12.1455491,8.19954867 C12.467493,8.2701284 12.8432432,8.58159081 12.8432432,9.07567568 L12.8432432,27.0756757 C12.8432432,27.9467051 12.5513514,28.2432432 11.8702703,28.2432432 Z" id="路径" fill="#FFFFFF" fill-rule="nonzero"></path>
                </g>
            </g>
        </g>
    </g>
</svg>