<?xml version="1.0" encoding="UTF-8"?>
<svg width="36px" height="31px" viewBox="0 0 36 31" version="1.1" xmlns="http://www.w3.org/2000/svg" xmlns:xlink="http://www.w3.org/1999/xlink">
    <!-- Generator: Sketch 59.1 (86144) - https://sketch.com -->
    <title>PC</title>
    <desc>Created with Sketch.</desc>
    <defs>
        <linearGradient x1="50.0517018%" y1="100.640476%" x2="50.0517018%" y2="0.461904762%" id="linearGradient-1">
            <stop stop-color="#FFFFFF" offset="8.043981%"></stop>
            <stop stop-color="#FFFFFF" stop-opacity="0.2222" offset="90.9%"></stop>
        </linearGradient>
        <linearGradient x1="49.8853186%" y1="100.495082%" x2="49.8853186%" y2="0.52295082%" id="linearGradient-2">
            <stop stop-color="#FFFFFF" offset="8.043981%"></stop>
            <stop stop-color="#FFFFFF" stop-opacity="0.2222" offset="90.9%"></stop>
        </linearGradient>
    </defs>
    <g id="页面-1" stroke="none" stroke-width="1" fill="none" fill-rule="evenodd">
        <g id="模型icon-库" transform="translate(-4646.000000, -138.000000)">
            <g id="PC" transform="translate(4646.000000, 136.000000)">
                <rect id="矩形备份-22" opacity="0.446149554" x="0" y="0" width="36" height="36"></rect>
                <path d="M24.6464865,32.7932233 L10.9837838,32.7932233 C10.0216216,32.6970071 9.25189189,31.7348449 9.34810811,30.7726828 C9.25189189,29.8105206 9.92540541,28.8483584 10.9837838,28.7521422 L24.6464865,28.7521422 C25.6086486,28.8483584 26.3783784,29.8105206 26.2821622,30.7726828 C26.3783784,31.8310611 25.6086486,32.6970071 24.6464865,32.7932233" id="路径" fill="url(#linearGradient-1)" fill-rule="nonzero"></path>
                <path d="M0.4,22.882953 C0.496216216,25.1921422 2.42054054,26.9240341 4.72972973,26.9240341 L30.9967568,26.9240341 C33.3059459,26.9240341 35.0378378,25.1921422 35.1340541,22.882953 L35.1340541,21.0548449 L0.4,21.0548449 L0.4,22.882953 Z" id="路径" fill="url(#linearGradient-2)" fill-rule="nonzero"></path>
                <path d="M35.1340541,5.75646654 C35.0378378,3.54349357 33.1135135,1.90781789 30.9005405,2.00403411 L4.63351351,2.00403411 C2.42054054,1.90781789 0.592432432,3.54349357 0.4,5.75646654 L0.4,19.6116017 L35.1340541,19.6116017 L35.1340541,5.75646654 Z" id="路径" fill="#FFFFFF" fill-rule="nonzero"></path>
            </g>
        </g>
    </g>
</svg>