<?xml version="1.0" encoding="UTF-8"?>
<svg width="36px" height="36px" viewBox="0 0 36 36" version="1.1" xmlns="http://www.w3.org/2000/svg" xmlns:xlink="http://www.w3.org/1999/xlink">
    <!-- Generator: Sketch 60.1 (88133) - https://sketch.com -->
    <title>provider</title>
    <desc>Created with Sketch.</desc>
    <g id="页面-1" stroke="none" stroke-width="1" fill="none" fill-rule="evenodd">
        <g id="模型icon-库" transform="translate(-3138.000000, -954.000000)">
            <g id="provider" transform="translate(3138.000000, 954.000000)">
                <rect id="矩形备份-21" opacity="0.446149554" x="0" y="0" width="36" height="36"></rect>
                <path d="M32.4244107,18.8845432 C29.2951268,20.9381358 25.0901515,20.1558148 22.9387688,17.124321 C22.4498181,18.0044321 21.6674972,18.7867531 20.787386,19.2757037 C18.0492626,20.8403457 14.431028,19.8624444 12.866386,17.124321 C11.2039539,19.6668642 7.97687987,20.7425556 5.14096629,19.7646543 C1.52273172,18.5911728 -0.43307075,14.6795679 0.740410732,11.1591235 C0.935990979,10.5723827 1.15625962,10.025117 1.4249416,9.39890123 C1.4249416,9.39890123 2.37024612,7.67127572 4.26085518,4.21602469 C5.43433666,1.96685185 7.87908974,0.5 10.421633,0.5 L25.5791021,0.5 C28.1216453,0.5 30.4686083,1.86906173 31.7398799,4.21602469 L34.5757934,9.39890123 C34.8691638,9.88785185 35.06457,10.5163752 35.2274513,11.0985886 C36.0649172,14.0920788 35.0647441,17.124321 32.4244107,18.8845432 Z" id="路径" fill="#FFFFFF" fill-rule="nonzero"></path>
                <path d="M13.1668951,19.320785 L13.2575465,19.3734938 L13.3553367,19.471284 C15.1155589,21.7204568 18.342633,22.4049877 20.8851762,20.9381358 C21.569707,20.5469753 22.1564478,20.0580247 22.6453984,19.471284 C22.8214206,19.2072506 23.1558628,19.1808473 23.4348581,19.320785 L23.5255095,19.3734938 L23.6232996,19.471284 C25.8724725,22.0138272 29.7840774,22.5027778 32.5222009,20.5469753 C32.8155712,20.3513951 33.2605593,20.4042309 33.4060951,20.4491852 C33.5334389,20.4885202 33.7345168,20.6152372 33.7827966,20.8371696 L33.7934725,20.9381358 L33.7934725,30.8149383 C33.7934725,33.2868553 31.8523838,35.2966083 29.4080499,35.4063539 L29.1973367,35.4110741 L6.41223789,35.4110741 C4.2333517,35.4110741 2.60510795,33.667373 2.50547053,31.6913697 L2.50063295,31.4994691 L2.50063295,21.0359259 C2.50063295,20.6447654 2.73166092,20.4005861 3.12282142,20.4005861 C3.22061154,20.4005861 3.38074407,20.4491852 3.47853419,20.5469753 C6.31444777,22.6005679 10.1282626,22.0138272 12.3774354,19.471284 C12.5534576,19.2072506 12.8878999,19.1808473 13.1668951,19.320785 Z M8.95463295,28.8811864 L4.55422555,28.8812346 L4.55422555,31.1083086 C4.55422555,31.8471674 5.25203655,32.4987997 6.0709953,32.5689229 L6.21665765,32.5751605 L8.95463295,32.5741864 L8.95463295,28.8811864 Z M14.234633,28.8811864 L9.95463295,28.8811864 L9.95463295,32.5741864 L12.5730157,32.5751605 C13.4042317,32.5751605 14.1482214,31.9645759 14.2283214,31.2376894 L14.2354478,31.1083086 L14.234633,28.8811864 Z M6.21665765,24.1652099 C5.3854416,24.1652099 4.64145192,24.7757945 4.56135188,25.502681 L4.55422555,25.6320617 L4.55422555,27.8812346 L8.95463295,27.8811864 L8.9547811,24.1652099 L6.21665765,24.1652099 Z M9.95463295,27.8811864 L14.234633,27.8811864 L14.2354478,25.6320617 C14.2354478,24.8497407 13.4531268,24.1652099 12.5730157,24.1652099 L9.9547811,24.1652099 L9.95463295,27.8811864 Z" id="形状结合" fill="#FFFFFF" fill-rule="nonzero"></path>
            </g>
        </g>
    </g>
</svg>