<?xml version="1.0" encoding="UTF-8"?>
<svg width="34px" height="36px" viewBox="0 0 34 36" version="1.1" xmlns="http://www.w3.org/2000/svg" xmlns:xlink="http://www.w3.org/1999/xlink">
    <!-- Generator: Sketch 59.1 (86144) - https://sketch.com -->
    <title>Rabbitmp</title>
    <desc>Created with Sketch.</desc>
    <defs>
        <linearGradient x1="50.1382195%" y1="100.332669%" x2="50.1382195%" y2="0.33254625%" id="linearGradient-1">
            <stop stop-color="#FFFFFF" offset="0%"></stop>
            <stop stop-color="#FFFFFF" stop-opacity="0.99" offset="37%"></stop>
            <stop stop-color="#FFFFFF" stop-opacity="0.97" offset="51%"></stop>
            <stop stop-color="#FFFFFF" stop-opacity="0.92" offset="60%"></stop>
            <stop stop-color="#FFFFFF" stop-opacity="0.85" offset="68%"></stop>
            <stop stop-color="#FFFFFF" stop-opacity="0.77" offset="75%"></stop>
            <stop stop-color="#FFFFFF" stop-opacity="0.66" offset="80%"></stop>
            <stop stop-color="#FFFFFF" stop-opacity="0.53" offset="86%"></stop>
            <stop stop-color="#FFFFFF" stop-opacity="0.39" offset="91%"></stop>
            <stop stop-color="#FFFFFF" stop-opacity="0.22" offset="95%"></stop>
            <stop stop-color="#FFFFFF" stop-opacity="0.04" offset="99%"></stop>
            <stop stop-color="#FFFFFF" stop-opacity="0" offset="100%"></stop>
        </linearGradient>
    </defs>
    <g id="页面-1" stroke="none" stroke-width="1" fill="none" fill-rule="evenodd">
        <g id="模型icon-库" transform="translate(-2597.000000, -135.000000)">
            <g id="Rabbitmp" transform="translate(2596.000000, 135.000000)">
                <rect id="矩形备份-17" opacity="0.446149554" x="0" y="0" width="36" height="36"></rect>
                <path d="M21.525,14.1989583 L21.525,4.09375 C21.525,1.96145833 19.7635417,0.292708333 17.63125,0.2 L17.63125,0.2 C15.4989583,0.2 13.8302083,1.96145833 13.7375,4.09375 L13.7375,14.1989583 L9.2875,14.1989583 L9.2875,4.09375 C9.2875,1.96145833 7.52604167,0.292708333 5.39375,0.292708333 L5.39375,0.292708333 C3.26145833,0.292708333 1.59270833,2.05416667 1.5,4.09375 L1.5,35.1510417 C1.5,35.521875 1.778125,35.8 2.14895833,35.8 L2.14895833,35.8 L33.484375,35.8 C33.8552083,35.8 34.1333333,35.521875 34.1333333,35.1510417 L34.1333333,14.7552083 C34.1333333,14.384375 33.8552083,14.10625 33.484375,14.10625 L21.525,14.10625 L21.525,14.1989583 L21.525,14.1989583 Z M27.0875,24.4895833 C25.6041667,24.675 24.1208333,23.6552083 23.9354167,22.0791667 C23.75,20.5958333 24.7697917,19.1125 26.3458333,18.9270833 C27.8291667,18.7416667 29.3125,19.7614583 29.4979167,21.3375 C29.4979167,21.615625 29.4979167,21.8010417 29.4979167,22.0791667 C29.3125,23.284375 28.2927083,24.3041667 27.0875,24.4895833 L27.0875,24.4895833 Z" id="形状" fill="url(#linearGradient-1)" fill-rule="nonzero"></path>
            </g>
        </g>
    </g>
</svg>