<?xml version="1.0" encoding="UTF-8"?>
<svg width="36px" height="36px" viewBox="0 0 36 36" version="1.1" xmlns="http://www.w3.org/2000/svg" xmlns:xlink="http://www.w3.org/1999/xlink">
    <!-- Generator: Sketch 59.1 (86144) - https://sketch.com -->
    <title>Redis</title>
    <desc>Created with Sketch.</desc>
    <defs>
        <linearGradient x1="49.9331345%" y1="99.8202251%" x2="49.9331345%" y2="0.064891746%" id="linearGradient-1">
            <stop stop-color="#FFFFFF" offset="0%"></stop>
            <stop stop-color="#FFFFFF" stop-opacity="0.99" offset="37%"></stop>
            <stop stop-color="#FFFFFF" stop-opacity="0.97" offset="51%"></stop>
            <stop stop-color="#FFFFFF" stop-opacity="0.92" offset="60%"></stop>
            <stop stop-color="#FFFFFF" stop-opacity="0.85" offset="68%"></stop>
            <stop stop-color="#FFFFFF" stop-opacity="0.77" offset="75%"></stop>
            <stop stop-color="#FFFFFF" stop-opacity="0.66" offset="80%"></stop>
            <stop stop-color="#FFFFFF" stop-opacity="0.53" offset="86%"></stop>
            <stop stop-color="#FFFFFF" stop-opacity="0.39" offset="91%"></stop>
            <stop stop-color="#FFFFFF" stop-opacity="0.22" offset="95%"></stop>
            <stop stop-color="#FFFFFF" stop-opacity="0.04" offset="99%"></stop>
            <stop stop-color="#FFFFFF" stop-opacity="0" offset="100%"></stop>
        </linearGradient>
        <linearGradient x1="49.9332465%" y1="99.6701029%" x2="49.9332465%" y2="-0.0852304762%" id="linearGradient-2">
            <stop stop-color="#FFFFFF" offset="0%"></stop>
            <stop stop-color="#FFFFFF" stop-opacity="0.99" offset="37%"></stop>
            <stop stop-color="#FFFFFF" stop-opacity="0.97" offset="51%"></stop>
            <stop stop-color="#FFFFFF" stop-opacity="0.92" offset="60%"></stop>
            <stop stop-color="#FFFFFF" stop-opacity="0.85" offset="68%"></stop>
            <stop stop-color="#FFFFFF" stop-opacity="0.77" offset="75%"></stop>
            <stop stop-color="#FFFFFF" stop-opacity="0.66" offset="80%"></stop>
            <stop stop-color="#FFFFFF" stop-opacity="0.53" offset="86%"></stop>
            <stop stop-color="#FFFFFF" stop-opacity="0.39" offset="91%"></stop>
            <stop stop-color="#FFFFFF" stop-opacity="0.22" offset="95%"></stop>
            <stop stop-color="#FFFFFF" stop-opacity="0.04" offset="99%"></stop>
            <stop stop-color="#FFFFFF" stop-opacity="0" offset="100%"></stop>
        </linearGradient>
    </defs>
    <g id="页面-1" stroke="none" stroke-width="1" fill="none" fill-rule="evenodd">
        <g id="模型icon-库" transform="translate(-822.000000, -132.000000)">
            <g id="Redis" transform="translate(822.000000, 132.000000)">
                <rect id="矩形备份-4" opacity="0.446149554" x="0" y="0" width="36" height="36"></rect>
                <g id="编组-3" fill-rule="nonzero">
                    <path d="M35.7024344,24.1900392 C35.7024344,24.1900392 26.975336,27.6000315 18.1470937,30.9364298 C18.0497274,30.9732268 17.9488887,30.9731393 17.8512172,30.9364298 C11.9330506,28.7121059 6.04839525,26.4633091 0.197251019,24.1900392 C0.0986255094,24.1900392 0.0986255094,24.0950196 0,24 L0,29.0360381 C0,29.1310577 0.0975036439,29.1874209 0.197251019,29.2260772 C0.296998394,29.2647336 8.97396736,32.6359821 17.8512172,35.9724679 C17.9488887,36.0091774 18.0494222,36.0091774 18.1470937,35.9724679 C27.0243436,32.6359821 35.604831,29.3023257 35.8010599,29.2260772 C35.9318792,29.1752449 35.9976295,29.1118985 35.9983109,29.0360381 C36.000563,25.764311 36.000563,24.1100046 35.9983109,24.0731188 C35.9949328,24.0177902 35.7024344,24.1900392 35.7024344,24.1900392 Z" id="路径" fill="url(#linearGradient-1)"></path>
                    <path d="M0.119660764,21.2376582 C8.81815946,24.6269323 8.90597236,24.6417766 17.7925543,27.972463 C17.890516,28.009179 17.9907864,28.009179 18.0887481,27.972463 C26.9753301,24.6417766 35.5653736,21.3137094 35.7616417,21.2376582 C35.8924871,21.1869574 35.9719398,21.1151951 36,21.0223714 L36,16 C36,16.0948564 35.8777414,16.1263035 35.7616417,16.1902047 C35.645542,16.2541058 27.0250702,19.6045264 18.1874793,22.9450735 C18.0898922,22.9819608 17.9893416,22.9818249 17.8912856,22.9450735 C11.9669605,20.7246395 6.07599595,18.4797046 0.218392013,16.2102687 C0.119660764,16.2102687 0.119660764,16.1154123 0.0209295145,16.0205559 L0.0209295145,21.0479454 C0.0209295145,21.1494446 -0.0676529575,21.1646735 0.119660764,21.2376582 Z" id="路径" fill="url(#linearGradient-2)"></path>
                    <path d="M35.8027397,6.80092399 C35.8027397,6.80092399 29.9178082,4.53394933 18.1479452,0 L17.8520548,0 L0.197260274,6.80092399 C0.098630137,6.80092399 0,6.89671165 0,6.99249932 L0,11.9734577 C0,12.0692454 0.098630137,12.1650331 0.197260274,12.1650331 C6.0634324,14.4622681 11.9483639,16.7292428 17.8520548,18.965957 C17.9718609,19.0113477 18.0281391,19.0113477 18.1479452,18.965957 C24.0516361,16.7292428 29.9365676,14.4622681 35.8027397,12.1650331 L36,11.9734577 L36,6.99249932 C35.9013699,6.80092399 35.9013699,6.80092399 35.8027397,6.80092399 Z M12.0774384,3.90240095 C13.200428,3.71607492 14.336259,3.53279733 15.4849315,3.35256817 C14.9910209,2.52093246 14.7280072,2.07392337 14.6958904,2.0115409 C14.6477152,1.91796719 14.6486225,1.85365915 14.6722565,1.81996558 C14.6880124,1.79750319 14.7287671,1.79750319 14.7945205,1.81996558 L17.6547945,2.87362986 L21.0082192,2.29890388 C21.0575081,2.28441869 21.0903848,2.28441869 21.1068493,2.29890388 C21.131546,2.32063168 21.1549268,2.35111241 21.1068493,2.39469155 C20.6457503,2.81264788 20.1525996,3.22772774 19.6273973,3.63993115 L22.3890411,4.69359543 C22.3890411,4.69359543 22.4822998,4.70494336 22.4822998,4.80073102 C22.4822998,4.89651869 22.290411,4.88517075 22.290411,4.88517075 L18.4438356,4.69359543 C17.9026516,5.15205329 17.3437475,5.59906238 16.7671233,6.0346227 C16.7443883,6.05179585 16.6782699,6.05361264 16.6684932,6.0346227 C16.3791206,5.47255669 16.1161069,4.89783072 15.8794521,4.31044478 C13.4274891,4.20621647 12.1452973,4.14235803 12.0328767,4.11886946 C11.8205204,4.07450085 11.7190022,3.96187255 12.0774384,3.90240095 Z M9.39962692,8.77665256 C8.40461841,8.77665256 7.30842755,8.62019949 6.4109589,8.33352658 C5.51349025,8.04685367 5.20430303,7.56884912 5.13639993,7.18407464 C5.06849683,6.79930016 5.3912004,6.28596249 6.16083722,6.0346227 C6.93047404,5.78328291 7.98476128,5.6281132 9.08784146,5.66477665 C10.1909216,5.7014401 10.7867693,5.74725971 11.7730707,6.0346227 C12.759372,6.32198568 13.2227234,6.82636779 13.2978996,7.33614676 C13.3730758,7.84592572 13.1910642,8.14195126 12.230137,8.42931424 C11.2692098,8.71667723 10.3946354,8.77665256 9.39962692,8.77665256 Z M19.0356164,12.8355467 C14.7073169,11.1305324 12.5517578,10.2565228 12.5689392,10.2135179 C12.5861206,10.1705131 15.3992139,9.86314152 21.0082192,9.2914032 L19.0356164,12.8355467 Z M31.2657534,7.18407464 C29.9324898,7.81710732 28.4530378,8.42376251 26.8273973,9.00404021 C25.0167053,8.34211051 23.339993,7.70352609 21.7972603,7.08828698 C21.5550507,6.99169421 21.5605157,6.89997461 21.7972603,6.80092399 C23.1622964,6.22981207 24.6417484,5.62315688 26.2356164,4.98095842 C28.0649231,5.59058896 29.7416355,6.22917337 31.2657534,6.89671165 C31.494645,6.99696234 31.4850361,7.07995937 31.2657534,7.18407464 Z" id="形状" fill="#FFFFFF"></path>
                </g>
            </g>
        </g>
    </g>
</svg>