<?xml version="1.0" encoding="UTF-8"?>
<svg width="35px" height="33px" viewBox="0 0 35 33" version="1.1" xmlns="http://www.w3.org/2000/svg" xmlns:xlink="http://www.w3.org/1999/xlink">
    <!-- Generator: Sketch 60.1 (88133) - https://sketch.com -->
    <title>rfid</title>
    <desc>Created with Sketch.</desc>
    <g id="页面-1" stroke="none" stroke-width="1" fill="none" fill-rule="evenodd">
        <g id="低优先级" transform="translate(-1123.000000, -1224.000000)">
            <g id="rfid" transform="translate(1123.000000, 1222.000000)">
                <polygon id="矩形备份-24" points="0 0 36 0 36 36 24.484679 36 0 36"></polygon>
                <path d="M16,2 C24.836556,2 32,9.163444 32,18 C32,18.6775931 31.9578795,19.3453483 31.8761139,20.0007904 L29.8581018,20.0008423 C29.9516145,19.347368 30,18.6793345 30,18 C30,10.2680135 23.7319865,4 16,4 C8.2680135,4 2,10.2680135 2,18 C2,25.7319865 8.2680135,32 16,32 C16.6793345,32 17.347368,31.9516145 18.0008423,31.8581018 L18.0007904,33.8761139 C17.3453483,33.9578795 16.6775931,34 16,34 C7.163444,34 0,26.836556 0,18 C0,9.163444 7.163444,2 16,2 Z" id="形状结合" fill="#FFFFFF" fill-rule="nonzero"></path>
                <path d="M16,8 C21.5228475,8 26,12.4771525 26,18 C26,18.6852782 25.9310698,19.3544568 25.7997646,20.0009807 L23.7478729,20.0003581 C23.9124613,19.3610104 24,18.6907281 24,18 C24,13.581722 20.418278,10 16,10 C11.581722,10 8,13.581722 8,18 C8,22.418278 11.581722,26 16,26 C16.6907281,26 17.3610104,25.9124613 18.0003581,25.7478729 L18.0009807,27.7997646 C17.3544568,27.9310698 16.6852782,28 16,28 C10.4771525,28 6,23.5228475 6,18 C6,12.4771525 10.4771525,8 16,8 Z" id="形状结合" fill="#FFFFFF" fill-rule="nonzero"></path>
                <g id="编组-13" transform="translate(14.000000, 16.000000)" fill="#FFFFFF">
                    <circle id="椭圆形" cx="1.7027027" cy="1.7027027" r="1.37837838"></circle>
                    <path d="M20.9,5.3784262 C20.9552285,5.3784262 21,5.42319773 21,5.4784262 L21,18.1432432 C21,18.1984717 20.9552285,18.2432432 20.9,18.2432432 L5.47842556,18.2432432 C5.42319709,18.2432432 5.37842556,18.1984717 5.37842556,18.1432432 L5.37837838,9.03237838 L8.98337838,5.37837838 L20.9,5.3784262 Z M13.1891892,10.4324324 C12.4279318,10.4324324 11.8108108,11.0495535 11.8108108,11.8108108 C11.8108108,12.5720682 12.4279318,13.1891892 13.1891892,13.1891892 C13.9504465,13.1891892 14.5675676,12.5720682 14.5675676,11.8108108 C14.5675676,11.0495535 13.9504465,10.4324324 13.1891892,10.4324324 Z" id="形状结合"></path>
                </g>
            </g>
        </g>
    </g>
</svg>