<?xml version="1.0" encoding="UTF-8"?>
<svg width="35px" height="33px" viewBox="0 0 35 33" version="1.1" xmlns="http://www.w3.org/2000/svg" xmlns:xlink="http://www.w3.org/1999/xlink">
    <!-- Generator: Sketch 60.1 (88133) - https://sketch.com -->
    <title>rfid</title>
    <desc>Created with Sketch.</desc>
    <g id="页面-1" stroke="none" stroke-width="1" fill="none" fill-rule="evenodd">
        <g id="低优先级" transform="translate(-1122.000000, -1167.000000)">
            <g id="rfid" transform="translate(1122.000000, 1165.000000)">
                <polygon id="矩形备份-24" points="0 0 36 0 36 36 24.484679 36 0 36"></polygon>
                <g id="编组-13" transform="translate(0.000000, 2.000000)" fill="#FFFFFF">
                    <path d="M16.1621622,0.25 C24.9502067,0.25 32.0743243,7.37411766 32.0743243,16.1621622 C32.0743243,16.7840356 32.0386504,17.3975769 31.9692374,18.0008514 L30.4581516,18.000741 C30.5348101,17.3986904 30.5743243,16.7850408 30.5743243,16.1621622 C30.5743243,8.20254479 24.1217795,1.75 16.1621622,1.75 C8.20254479,1.75 1.75,8.20254479 1.75,16.1621622 C1.75,24.1217795 8.20254479,30.5743243 16.1621622,30.5743243 C16.7850408,30.5743243 17.3986904,30.5348101 18.000741,30.4581516 L18.0008514,31.9692374 C17.3975769,32.0386504 16.7840356,32.0743243 16.1621622,32.0743243 C7.37411766,32.0743243 0.25,24.9502067 0.25,16.1621622 C0.25,7.37411766 7.37411766,0.25 16.1621622,0.25 Z" id="形状结合" fill-rule="nonzero"></path>
                    <path d="M15.7027027,5.76351351 C21.1919653,5.76351351 25.6418919,10.2134401 25.6418919,15.7027027 C25.6418919,16.4935287 25.5495313,17.2627827 25.3750085,18.0002663 L23.8253091,18.0004515 C24.0315466,17.269943 24.1418919,16.4992091 24.1418919,15.7027027 C24.1418919,11.0418672 20.3635382,7.26351351 15.7027027,7.26351351 C11.0418672,7.26351351 7.26351351,11.0418672 7.26351351,15.7027027 C7.26351351,20.3635382 11.0418672,24.1418919 15.7027027,24.1418919 C16.4992091,24.1418919 17.269943,24.0315466 18.0004515,23.8253091 L18.0002663,25.3750085 C17.2627827,25.5495313 16.4935287,25.6418919 15.7027027,25.6418919 C10.2134401,25.6418919 5.76351351,21.1919653 5.76351351,15.7027027 C5.76351351,10.2134401 10.2134401,5.76351351 15.7027027,5.76351351 Z" id="形状结合" fill-rule="nonzero"></path>
                    <circle id="椭圆形" cx="15.7027027" cy="15.7027027" r="1.37837838"></circle>
                    <path d="M34.9,19.3784262 C34.9552285,19.3784262 35,19.4231977 35,19.4784262 L35,32.1432432 C35,32.1984717 34.9552285,32.2432432 34.9,32.2432432 L19.4784256,32.2432432 C19.4231971,32.2432432 19.3784256,32.1984717 19.3784256,32.1432432 L19.3783784,23.0323784 L22.9833784,19.3783784 L34.9,19.3784262 Z M27.1891892,24.4324324 C26.4279318,24.4324324 25.8108108,25.0495535 25.8108108,25.8108108 C25.8108108,26.5720682 26.4279318,27.1891892 27.1891892,27.1891892 C27.9504465,27.1891892 28.5675676,26.5720682 28.5675676,25.8108108 C28.5675676,25.0495535 27.9504465,24.4324324 27.1891892,24.4324324 Z" id="形状结合"></path>
                </g>
            </g>
        </g>
    </g>
</svg>