<?xml version="1.0" encoding="UTF-8"?>
<svg width="34px" height="36px" viewBox="0 0 34 36" version="1.1" xmlns="http://www.w3.org/2000/svg" xmlns:xlink="http://www.w3.org/1999/xlink">
    <!-- Generator: Sketch 59.1 (86144) - https://sketch.com -->
    <title>路由器</title>
    <desc>Created with Sketch.</desc>
    <defs>
        <linearGradient x1="50.0515353%" y1="101.054896%" x2="50.0515353%" y2="0.203268354%" id="linearGradient-1">
            <stop stop-color="#FFFFFF" offset="0%"></stop>
            <stop stop-color="#FFFFFF" stop-opacity="0.99" offset="37%"></stop>
            <stop stop-color="#FFFFFF" stop-opacity="0.97" offset="51%"></stop>
            <stop stop-color="#FFFFFF" stop-opacity="0.92" offset="60%"></stop>
            <stop stop-color="#FFFFFF" stop-opacity="0.85" offset="68%"></stop>
            <stop stop-color="#FFFFFF" stop-opacity="0.77" offset="75%"></stop>
            <stop stop-color="#FFFFFF" stop-opacity="0.66" offset="80%"></stop>
            <stop stop-color="#FFFFFF" stop-opacity="0.53" offset="86%"></stop>
            <stop stop-color="#FFFFFF" stop-opacity="0.39" offset="91%"></stop>
            <stop stop-color="#FFFFFF" stop-opacity="0.22" offset="95%"></stop>
            <stop stop-color="#FFFFFF" stop-opacity="0.04" offset="99%"></stop>
            <stop stop-color="#FFFFFF" stop-opacity="0" offset="100%"></stop>
        </linearGradient>
    </defs>
    <g id="页面-1" stroke="none" stroke-width="1" fill="none" fill-rule="evenodd">
        <g id="模型icon-库" transform="translate(-2050.000000, -134.000000)">
            <g id="路由器" transform="translate(2049.000000, 134.000000)">
                <g id="编组">
                    <rect id="矩形备份-13" opacity="0.446149554" x="0" y="0" width="36" height="36"></rect>
                    <path d="M32.0378378,21.5027027 L23.6702703,21.5027027 L23.6702703,13.9135135 C23.6702703,12.9405405 22.8918919,12.1621622 21.9189189,12.0648649 L21.9189189,12.0648649 C20.9459459,12.0648649 20.1675676,12.9405405 20.1675676,13.9135135 L20.1675676,13.9135135 L20.1675676,21.5027027 L4.01621622,21.5027027 C2.45945946,21.5027027 1.19459459,22.7675676 1.19459459,24.3243243 L1.19459459,32.3027027 C1.19459459,33.8594595 2.45945946,35.1243243 4.01621622,35.1243243 L32.0378378,35.1243243 C33.5945946,35.1243243 34.8594595,33.8594595 34.8594595,32.3027027 L34.8594595,24.3243243 C34.8594595,22.7675676 33.5945946,21.5027027 32.0378378,21.5027027 Z M11.6054054,27.5351351 C11.6054054,28.9945946 10.4378378,30.1621622 8.97837838,30.1621622 C7.51891892,30.1621622 6.35135135,28.9945946 6.35135135,27.5351351 C6.35135135,26.0756757 7.51891892,24.9081081 8.97837838,24.9081081 L8.97837838,24.9081081 C10.4378378,25.0054054 11.6054054,26.172973 11.6054054,27.5351351 L11.6054054,27.5351351 Z M16.7621622,30.1621622 C15.3027027,30.1621622 14.1351351,28.9945946 14.1351351,27.6324324 C14.1351351,26.172973 15.3027027,25.0054054 16.6648649,25.0054054 C18.1243243,25.0054054 19.2918919,26.172973 19.2918919,27.5351351 L19.2918919,27.5351351 C19.2918919,28.9945946 18.1243243,30.1621622 16.7621622,30.1621622 L16.7621622,30.1621622 Z" id="形状" fill="url(#linearGradient-1)" fill-rule="nonzero"></path>
                    <path d="M21.9189189,6.22702703 C17.6378378,6.22702703 14.1351351,9.92432432 14.1351351,14.5945946 C14.0378378,15.5675676 14.8162162,16.5405405 15.8864865,16.5405405 C16.8594595,16.6378378 17.8324324,15.8594595 17.8324324,14.7891892 C17.8324324,14.6918919 17.8324324,14.5945946 17.8324324,14.4972973 C17.6378378,12.2594595 19.3891892,10.3135135 21.627027,10.1189189 C23.8648649,9.92432432 25.8108108,11.6756757 26.0054054,13.9135135 C26.0054054,14.1081081 26.0054054,14.3027027 26.0054054,14.4972973 C25.9081081,15.4702703 26.6864865,16.4432432 27.7567568,16.4432432 C28.7297297,16.5405405 29.7027027,15.7621622 29.7027027,14.6918919 C29.7027027,14.5945946 29.7027027,14.4972973 29.7027027,14.4 C29.7027027,9.92432432 26.2,6.22702703 21.9189189,6.22702703 Z" id="路径" fill="#FFFFFF" fill-rule="nonzero"></path>
                    <path d="M21.9189189,0.291891892 C14.8162162,0.291891892 8.97837838,6.42162162 8.97837838,13.9135135 C8.88108108,14.8864865 9.65945946,15.7621622 10.6324324,15.7621622 C11.6054054,15.7621622 12.4810811,15.0810811 12.4810811,14.1081081 C12.4810811,14.0108108 12.4810811,13.9135135 12.4810811,13.8162162 C12.1891892,8.56216216 16.0810811,4.08648649 21.3351351,3.79459459 C26.5891892,3.5027027 31.0648649,7.39459459 31.3567568,12.6486486 C31.3567568,13.0378378 31.3567568,13.427027 31.3567568,13.8162162 C31.2594595,14.7891892 32.0378378,15.6648649 33.0108108,15.6648649 C33.9837838,15.7621622 34.8594595,14.9837838 34.8594595,14.0108108 C34.8594595,13.9135135 34.8594595,13.8162162 34.8594595,13.7189189 C34.8594595,6.42162162 29.0216216,0.291891892 21.9189189,0.291891892 Z" id="路径" fill="#FFFFFF" fill-rule="nonzero"></path>
                </g>
            </g>
        </g>
    </g>
</svg>