<?xml version="1.0" encoding="UTF-8"?>
<svg width="25px" height="35px" viewBox="0 0 25 35" version="1.1" xmlns="http://www.w3.org/2000/svg" xmlns:xlink="http://www.w3.org/1999/xlink">
    <!-- Generator: Sketch 60.1 (88133) - https://sketch.com -->
    <title>security-service</title>
    <desc>Created with Sketch.</desc>
    <g id="页面-1" stroke="none" stroke-width="1" fill="none" fill-rule="evenodd">
        <g id="低优先级" transform="translate(-824.000000, -1166.000000)">
            <g id="security-service" transform="translate(819.000000, 1165.000000)">
                <polygon id="矩形备份-21" points="0 0 36 0 36 36 24.484679 36 0 36"></polygon>
                <g id="编组-15" transform="translate(5.000000, 1.000000)" fill="#FFFFFF">
                    <path d="M12.6084035,3.55237718 L21.553923,6.40814275 C21.7623331,6.47905373 21.8884009,6.63941196 21.8884009,6.79189189 L21.8884009,22.6743243 C21.8884009,22.7682274 21.8448984,22.8574825 21.7603159,22.9239402 L12.8705673,30.3442842 C12.5940296,30.5731345 12.0667812,30.5731345 11.7878661,30.3423082 L2.91727055,22.9375275 C2.81591241,22.8574825 2.77240991,22.7682274 2.77240991,22.6743243 L2.77240991,6.79189189 C2.77240991,6.62683126 2.88960927,6.47655143 3.10409359,6.40902859 L12.0582361,3.55051838 C12.2349036,3.49336125 12.4206255,3.49336125 12.6084035,3.55237718 Z M16.793166,12.3490723 L10.4341155,18.7081229 L7.51238953,15.786397 C7.22763223,15.5016397 6.76594943,15.5016397 6.48119214,15.786397 C6.19643484,16.0711543 6.19643484,16.532837 6.48119214,16.8175943 L9.91851677,20.254919 C10.2032741,20.5396763 10.6649569,20.5396763 10.9497142,20.254919 L17.8243634,13.3802697 C18.1091207,13.0955124 18.1091207,12.6338296 17.8243634,12.3490723 C17.5396061,12.064315 17.0779233,12.064315 16.793166,12.3490723 Z" id="形状结合"></path>
                    <path d="M11.7202703,0.0851351351 C12.1175676,-0.0283783784 12.5337838,-0.0283783784 12.9121622,0.0851351351 L12.9121622,0.0851351351 L23.6202703,3.5 C24.2256757,3.69864865 24.6324324,4.20945946 24.6135135,4.78648649 L24.6135135,4.78648649 L24.6135135,23.7810811 C24.6135135,24.1594595 24.4337838,24.5094595 24.1310811,24.7743243 L24.1310811,24.7743243 L13.5175676,33.6283784 C12.8554054,34.177027 11.7675676,34.177027 11.0959459,33.6283784 L11.0959459,33.6283784 L0.482432432,24.7743243 C0.17027027,24.5189189 4.4408921e-13,24.1594595 4.4408921e-13,23.7810811 L4.4408921e-13,23.7810811 L4.4408921e-13,4.78648649 C4.4408921e-13,4.20945946 0.406756757,3.69864865 1.01216216,3.5 L1.01216216,3.5 Z M11.7868623,2.11315026 L11.6108045,2.16251909 L2.66338246,5.01888427 C1.86022218,5.27172485 1.31407658,5.97202445 1.31407658,6.79189189 L1.31407658,22.6743243 C1.31407658,23.2163253 1.56350446,23.7280825 1.99950512,24.0706544 L10.8557024,31.4638239 C11.676462,32.1430817 12.9843488,32.1430817 13.802731,31.4657999 L22.6780814,24.0570671 C23.0973064,23.7280825 23.3467342,23.2163253 23.3467342,22.6743243 L23.3467342,6.79189189 C23.3467342,5.98699886 22.7997562,5.2912428 22.0101629,5.02307902 L13.0487797,2.16212752 C12.6313952,2.03094277 12.2003763,2.01442388 11.7868623,2.11315026 Z" id="形状结合" fill-rule="nonzero"></path>
                </g>
            </g>
        </g>
    </g>
</svg>