<?xml version="1.0" encoding="UTF-8"?>
<svg width="27px" height="36px" viewBox="0 0 27 36" version="1.1" xmlns="http://www.w3.org/2000/svg" xmlns:xlink="http://www.w3.org/1999/xlink">
    <!-- Generator: Sketch 60.1 (88133) - https://sketch.com -->
    <title>service-node</title>
    <desc>Created with Sketch.</desc>
    <g id="页面-1" stroke="none" stroke-width="1" fill="none" fill-rule="evenodd">
        <g id="模型图标库" transform="translate(-441.000000, -1186.000000)">
            <g id="service-node" transform="translate(436.000000, 1186.000000)">
                <rect id="矩形" x="0" y="0" width="36" height="36"></rect>
                <path d="M29.6910995,-5.32907052e-14 C30.7728204,-5.32907052e-14 31.6820931,0.862241313 31.7591154,1.92692189 L31.7643979,2.07329843 L31.7643979,33.9267016 C31.7643979,35.0575916 30.8219895,36 29.6910995,36 L7.07329843,36 C5.94240838,36 5,35.0575916 5,33.9267016 L5,2.07329843 C5,0.942408377 5.94240838,-5.32907052e-14 7.07329843,-5.32907052e-14 L29.6910995,-5.32907052e-14 Z M18.382199,21.6753927 C15.9880012,21.6753927 14.0471204,23.6162734 14.0471204,26.0104712 C14.0471204,28.404669 15.9880012,30.3455497 18.382199,30.3455497 C20.7763967,30.3455497 22.7172775,28.404669 22.7172775,26.0104712 C22.7172775,23.6162734 20.7763967,21.6753927 18.382199,21.6753927 Z M18.382199,23.5602094 C19.7354412,23.5602094 20.8324607,24.657229 20.8324607,26.0104712 C20.8324607,27.3637134 19.7354412,28.460733 18.382199,28.460733 C17.0289567,28.460733 15.9319372,27.3637134 15.9319372,26.0104712 C15.9319372,24.657229 17.0289567,23.5602094 18.382199,23.5602094 Z M25.7329843,9.04712042 L10.8429319,9.04712042 L10.6735328,9.06230388 C10.2339008,9.14209941 9.90052356,9.52688188 9.90052356,9.9895288 C9.90052356,10.5100066 10.3224542,10.9319372 10.8429319,10.9319372 L10.8429319,10.9319372 L25.7329843,10.9319372 L25.9023834,10.9167537 C26.3420154,10.8369582 26.6753927,10.4521757 26.6753927,9.9895288 C26.6753927,9.46905102 26.2534621,9.04712042 25.7329843,9.04712042 L25.7329843,9.04712042 Z M25.7329843,4.90052356 L10.8429319,4.90052356 L10.6735328,4.91570702 C10.2339008,4.99550255 9.90052356,5.38028503 9.90052356,5.84293194 C9.90052356,6.36340971 10.3224542,6.78534031 10.8429319,6.78534031 L10.8429319,6.78534031 L25.7329843,6.78534031 L25.9023834,6.77015685 C26.3420154,6.69036133 26.6753927,6.30557885 26.6753927,5.84293194 C26.6753927,5.32245416 26.2534621,4.90052356 25.7329843,4.90052356 L25.7329843,4.90052356 Z" id="形状结合" fill="#FFFFFF" fill-rule="nonzero"></path>
            </g>
        </g>
    </g>
</svg>