<?xml version="1.0" encoding="UTF-8"?>
<svg width="34px" height="36px" viewBox="0 0 34 36" version="1.1" xmlns="http://www.w3.org/2000/svg" xmlns:xlink="http://www.w3.org/1999/xlink">
    <!-- Generator: Sketch 60.1 (88133) - https://sketch.com -->
    <title>server-room</title>
    <desc>Created with Sketch.</desc>
    <g id="页面-1" stroke="none" stroke-width="1" fill="none" fill-rule="evenodd">
        <g id="高优先级" transform="translate(-884.000000, -1150.000000)">
            <g id="server-room" transform="translate(883.000000, 1150.000000)">
                <g id="机房">
                    <rect id="矩形备份-4" x="0" y="0" width="36" height="36"></rect>
                    <g id="编组" transform="translate(1.000000, 0.000000)" fill="#FFFFFF" fill-rule="nonzero">
                        <path d="M10.7828571,0.72 L10.7828571,35.0057143 L0.497142857,35.0057143 L0.497142857,3.18857143 C0.497142857,1.81714286 1.50251343,0.72 2.72442535,0.72 L10.7828571,0.72 Z M8.34857143,26.6485714 L4.06285714,26.6485714 L3.93329901,26.661632 C3.64035985,26.721576 3.42,26.9807684 3.42,27.2914286 C3.42,27.6464688 3.70781695,27.9342857 4.06285714,27.9342857 L4.06285714,27.9342857 L8.34857143,27.9342857 L8.47812957,27.9212251 C8.77106872,27.8612811 8.99142857,27.6020887 8.99142857,27.2914286 C8.99142857,26.9363884 8.70361162,26.6485714 8.34857143,26.6485714 L8.34857143,26.6485714 Z M8.34857143,24.8657143 L4.06285714,24.8657143 L3.93329901,24.8787749 C3.64035985,24.9387189 3.42,25.1979113 3.42,25.5085714 C3.42,25.8636116 3.70781695,26.1514286 4.06285714,26.1514286 L4.06285714,26.1514286 L8.34857143,26.1514286 L8.47812957,26.138368 C8.77106872,26.078424 8.99142857,25.8192316 8.99142857,25.5085714 C8.99142857,25.1535312 8.70361162,24.8657143 8.34857143,24.8657143 L8.34857143,24.8657143 Z M8.34857143,23.0828571 L4.06285714,23.0828571 L3.93329901,23.0959177 C3.64035985,23.1558617 3.42,23.4150541 3.42,23.7257143 C3.42,24.0807545 3.70781695,24.3685714 4.06285714,24.3685714 L4.06285714,24.3685714 L8.34857143,24.3685714 L8.47812957,24.3555109 C8.77106872,24.2955668 8.99142857,24.0363745 8.99142857,23.7257143 C8.99142857,23.3706741 8.70361162,23.0828571 8.34857143,23.0828571 L8.34857143,23.0828571 Z M8.57142857,12.9857143 C8.21638838,12.9857143 7.92857143,13.2735312 7.92857143,13.6285714 L7.92857143,13.6285714 L7.92857143,17.9142857 L7.941632,18.0438439 C8.00157603,18.336783 8.2607684,18.5571429 8.57142857,18.5571429 C8.92646877,18.5571429 9.21428571,18.2693259 9.21428571,17.9142857 L9.21428571,17.9142857 L9.21428571,13.6285714 L9.20122514,13.4990133 C9.14128111,13.2060741 8.88208874,12.9857143 8.57142857,12.9857143 Z M8.34857143,6.42 L4.06285714,6.42 L3.93329901,6.43306057 C3.64035985,6.4930046 3.42,6.75219697 3.42,7.06285714 C3.42,7.41789734 3.70781695,7.70571429 4.06285714,7.70571429 L4.06285714,7.70571429 L8.34857143,7.70571429 L8.47812957,7.69265371 C8.77106872,7.63270969 8.99142857,7.37351731 8.99142857,7.06285714 C8.99142857,6.70781695 8.70361162,6.42 8.34857143,6.42 L8.34857143,6.42 Z M8.34857143,4.63714286 L4.06285714,4.63714286 L3.93329901,4.65020343 C3.64035985,4.71014746 3.42,4.96933983 3.42,5.28 C3.42,5.6350402 3.70781695,5.92285714 4.06285714,5.92285714 L4.06285714,5.92285714 L8.34857143,5.92285714 L8.47812957,5.90979657 C8.77106872,5.84985254 8.99142857,5.59066017 8.99142857,5.28 C8.99142857,4.9249598 8.70361162,4.63714286 8.34857143,4.63714286 L8.34857143,4.63714286 Z" id="形状结合"></path>
                        <path d="M31.4258217,0.72 C32.6632009,0.72 33.6685714,1.83428571 33.6685714,3.20571429 L33.6685714,35.0057143 L23.3828571,35.0057143 L23.3828571,0.72 L31.4258217,0.72 Z M31.2342857,26.6485714 L26.9485714,26.6485714 L26.8190133,26.661632 C26.5260741,26.721576 26.3057143,26.9807684 26.3057143,27.2914286 C26.3057143,27.6464688 26.5935312,27.9342857 26.9485714,27.9342857 L26.9485714,27.9342857 L31.2342857,27.9342857 L31.3638439,27.9212251 C31.656783,27.8612811 31.8771429,27.6020887 31.8771429,27.2914286 C31.8771429,26.9363884 31.5893259,26.6485714 31.2342857,26.6485714 L31.2342857,26.6485714 Z M31.2342857,24.8657143 L26.9485714,24.8657143 L26.8190133,24.8787749 C26.5260741,24.9387189 26.3057143,25.1979113 26.3057143,25.5085714 C26.3057143,25.8636116 26.5935312,26.1514286 26.9485714,26.1514286 L26.9485714,26.1514286 L31.2342857,26.1514286 L31.3638439,26.138368 C31.656783,26.078424 31.8771429,25.8192316 31.8771429,25.5085714 C31.8771429,25.1535312 31.5893259,24.8657143 31.2342857,24.8657143 L31.2342857,24.8657143 Z M31.2342857,23.0828571 L26.9485714,23.0828571 L26.8190133,23.0959177 C26.5260741,23.1558617 26.3057143,23.4150541 26.3057143,23.7257143 C26.3057143,24.0807545 26.5935312,24.3685714 26.9485714,24.3685714 L26.9485714,24.3685714 L31.2342857,24.3685714 L31.3638439,24.3555109 C31.656783,24.2955668 31.8771429,24.0363745 31.8771429,23.7257143 C31.8771429,23.3706741 31.5893259,23.0828571 31.2342857,23.0828571 L31.2342857,23.0828571 Z M31.4571429,12.9857143 C31.1021027,12.9857143 30.8142857,13.2735312 30.8142857,13.6285714 L30.8142857,13.6285714 L30.8142857,17.9142857 L30.8273463,18.0438439 C30.8872903,18.336783 31.1464827,18.5571429 31.4571429,18.5571429 C31.8121831,18.5571429 32.1,18.2693259 32.1,17.9142857 L32.1,17.9142857 L32.1,13.6285714 L32.0869394,13.4990133 C32.0269954,13.2060741 31.767803,12.9857143 31.4571429,12.9857143 Z M31.2342857,6.42 L26.9485714,6.42 L26.8190133,6.43306057 C26.5260741,6.4930046 26.3057143,6.75219697 26.3057143,7.06285714 C26.3057143,7.41789734 26.5935312,7.70571429 26.9485714,7.70571429 L26.9485714,7.70571429 L31.2342857,7.70571429 L31.3638439,7.69265371 C31.656783,7.63270969 31.8771429,7.37351731 31.8771429,7.06285714 C31.8771429,6.70781695 31.5893259,6.42 31.2342857,6.42 L31.2342857,6.42 Z M31.2342857,4.63714286 L26.9485714,4.63714286 L26.8190133,4.65020343 C26.5260741,4.71014746 26.3057143,4.96933983 26.3057143,5.28 C26.3057143,5.6350402 26.5935312,5.92285714 26.9485714,5.92285714 L26.9485714,5.92285714 L31.2342857,5.92285714 L31.3638439,5.90979657 C31.656783,5.84985254 31.8771429,5.59066017 31.8771429,5.28 C31.8771429,4.9249598 31.5893259,4.63714286 31.2342857,4.63714286 L31.2342857,4.63714286 Z" id="形状结合"></path>
                        <path d="M22.2857143,0.72 L22.2857143,35.0057143 L12,35.0057143 L12,0.72 L22.2857143,0.72 Z M19.8342857,26.6485714 L15.5485714,26.6485714 L15.4190133,26.661632 C15.1260741,26.721576 14.9057143,26.9807684 14.9057143,27.2914286 C14.9057143,27.6464688 15.1935312,27.9342857 15.5485714,27.9342857 L15.5485714,27.9342857 L19.8342857,27.9342857 L19.9638439,27.9212251 C20.256783,27.8612811 20.4771429,27.6020887 20.4771429,27.2914286 C20.4771429,26.9363884 20.1893259,26.6485714 19.8342857,26.6485714 L19.8342857,26.6485714 Z M19.8342857,24.8657143 L15.5485714,24.8657143 L15.4190133,24.8787749 C15.1260741,24.9387189 14.9057143,25.1979113 14.9057143,25.5085714 C14.9057143,25.8636116 15.1935312,26.1514286 15.5485714,26.1514286 L15.5485714,26.1514286 L19.8342857,26.1514286 L19.9638439,26.138368 C20.256783,26.078424 20.4771429,25.8192316 20.4771429,25.5085714 C20.4771429,25.1535312 20.1893259,24.8657143 19.8342857,24.8657143 L19.8342857,24.8657143 Z M19.8342857,23.0828571 L15.5485714,23.0828571 L15.4190133,23.0959177 C15.1260741,23.1558617 14.9057143,23.4150541 14.9057143,23.7257143 C14.9057143,24.0807545 15.1935312,24.3685714 15.5485714,24.3685714 L15.5485714,24.3685714 L19.8342857,24.3685714 L19.9638439,24.3555109 C20.256783,24.2955668 20.4771429,24.0363745 20.4771429,23.7257143 C20.4771429,23.3706741 20.1893259,23.0828571 19.8342857,23.0828571 L19.8342857,23.0828571 Z M20.0742857,12.9857143 C19.7192455,12.9857143 19.4314286,13.2735312 19.4314286,13.6285714 L19.4314286,13.6285714 L19.4314286,17.9142857 L19.4444891,18.0438439 C19.5044332,18.336783 19.7636255,18.5571429 20.0742857,18.5571429 C20.4293259,18.5571429 20.7171429,18.2693259 20.7171429,17.9142857 L20.7171429,17.9142857 L20.7171429,13.6285714 L20.7040823,13.4990133 C20.6441383,13.2060741 20.3849459,12.9857143 20.0742857,12.9857143 Z M19.8342857,6.42 L15.5485714,6.42 L15.4190133,6.43306057 C15.1260741,6.4930046 14.9057143,6.75219697 14.9057143,7.06285714 C14.9057143,7.41789734 15.1935312,7.70571429 15.5485714,7.70571429 L15.5485714,7.70571429 L19.8342857,7.70571429 L19.9638439,7.69265371 C20.256783,7.63270969 20.4771429,7.37351731 20.4771429,7.06285714 C20.4771429,6.70781695 20.1893259,6.42 19.8342857,6.42 L19.8342857,6.42 Z M19.8342857,4.63714286 L15.5485714,4.63714286 L15.4190133,4.65020343 C15.1260741,4.71014746 14.9057143,4.96933983 14.9057143,5.28 C14.9057143,5.6350402 15.1935312,5.92285714 15.5485714,5.92285714 L15.5485714,5.92285714 L19.8342857,5.92285714 L19.9638439,5.90979657 C20.256783,5.84985254 20.4771429,5.59066017 20.4771429,5.28 C20.4771429,4.9249598 20.1893259,4.63714286 19.8342857,4.63714286 L19.8342857,4.63714286 Z" id="形状结合"></path>
                    </g>
                </g>
            </g>
        </g>
    </g>
</svg>