<?xml version="1.0" encoding="UTF-8"?>
<svg width="34px" height="34px" viewBox="0 0 34 34" version="1.1" xmlns="http://www.w3.org/2000/svg" xmlns:xlink="http://www.w3.org/1999/xlink">
    <!-- Generator: Sketch 59.1 (86144) - https://sketch.com -->
    <title>机房</title>
    <desc>Created with Sketch.</desc>
    <defs>
        <linearGradient x1="20.039097%" y1="50.0077778%" x2="-0.02090301%" y2="50.0077778%" id="linearGradient-1">
            <stop stop-color="#FFFFFF" offset="0%"></stop>
            <stop stop-color="#FFFFFF" stop-opacity="0.3" offset="100%"></stop>
        </linearGradient>
    </defs>
    <g id="页面-1" stroke="none" stroke-width="1" fill="none" fill-rule="evenodd">
        <g id="高优先级" transform="translate(-901.000000, -272.000000)">
            <g id="机房" transform="translate(900.000000, 271.000000)">
                <rect id="矩形备份-4" x="0" y="0" width="36" height="36"></rect>
                <path d="M13,1 L12.9899749,35 L1,35 L1,2.88888889 C1,1.85 1.89223058,1 3.00501253,1 L13,1 Z M9.25062657,26.6322222 L4.73934837,26.6322222 C4.32409668,26.6322222 3.98746867,26.9493539 3.98746867,27.3405556 C3.98746867,27.7317573 4.32409668,28.0488889 4.73934837,28.0488889 L9.25062657,28.0488889 C9.66587826,28.0488889 10.0025063,27.7317573 10.0025063,27.3405556 C10.0025063,26.9493539 9.66587826,26.6322222 9.25062657,26.6322222 Z M9.25062657,24.8661111 L4.73934837,24.8661111 C4.32409668,24.8661111 3.98746867,25.1832427 3.98746867,25.5744444 C3.98746867,25.9656461 4.32409668,26.2827778 4.73934837,26.2827778 L9.25062657,26.2827778 C9.66587826,26.2827778 10.0025063,25.9656461 10.0025063,25.5744444 C10.0025063,25.1832427 9.66587826,24.8661111 9.25062657,24.8661111 Z M9.25062657,23.1094444 L4.73934837,23.1094444 C4.32409668,23.1094444 3.98746867,23.4265761 3.98746867,23.8177778 C3.98746867,24.2089795 4.32409668,24.5261111 4.73934837,24.5261111 L9.25062657,24.5261111 C9.66587826,24.5261111 10.0025063,24.2089795 10.0025063,23.8177778 C10.0025063,23.4265761 9.66587826,23.1094444 9.25062657,23.1094444 Z M10.4536341,13.0888889 C10.0383824,13.0888889 9.70175439,13.4060205 9.70175439,13.7972222 L9.70175439,18.0472222 C9.70175439,18.4384239 10.0383824,18.7555556 10.4536341,18.7555556 C10.8688858,18.7555556 11.2055138,18.4384239 11.2055138,18.0472222 L11.2055138,13.7972222 C11.2055138,13.4060205 10.8688858,13.0888889 10.4536341,13.0888889 Z M9.25062657,6.57222222 L4.73934837,6.57222222 C4.32409668,6.57222222 3.98746867,6.88935386 3.98746867,7.28055556 C3.98746867,7.67175725 4.32409668,7.98888889 4.73934837,7.98888889 L9.25062657,7.98888889 C9.66587826,7.98888889 10.0025063,7.67175725 10.0025063,7.28055556 C10.0025063,6.88935386 9.66587826,6.57222222 9.25062657,6.57222222 Z M9.25062657,4.80611111 L4.73934837,4.80611111 C4.32409668,4.80611111 3.98746867,5.12324275 3.98746867,5.51444444 C3.98746867,5.90564614 4.32409668,6.22277778 4.73934837,6.22277778 L9.25062657,6.22277778 C9.66587826,6.22277778 10.0025063,5.90564614 10.0025063,5.51444444 C10.0025063,5.12324275 9.66587826,4.80611111 9.25062657,4.80611111 Z" id="形状结合" fill="#FFFFFF" fill-rule="nonzero"></path>
                <path d="M32.993311,1 C34.1070234,1 35,1.85 35,2.88888889 L35,35 L23,35 L23,1 L32.993311,1 Z M31.2575251,26.6322222 L26.7424749,26.6322222 C26.326876,26.6322222 25.9899666,26.9493539 25.9899666,27.3405556 C25.9899666,27.7317573 26.326876,28.0488889 26.7424749,28.0488889 L31.2575251,28.0488889 C31.673124,28.0488889 32.0100334,27.7317573 32.0100334,27.3405556 C32.0100334,26.9493539 31.673124,26.6322222 31.2575251,26.6322222 Z M31.2575251,24.8661111 L26.7424749,24.8661111 C26.326876,24.8661111 25.9899666,25.1832427 25.9899666,25.5744444 C25.9899666,25.9656461 26.326876,26.2827778 26.7424749,26.2827778 L31.2575251,26.2827778 C31.673124,26.2827778 32.0100334,25.9656461 32.0100334,25.5744444 C32.0100334,25.1832427 31.673124,24.8661111 31.2575251,24.8661111 Z M31.2575251,23.1094444 L26.7424749,23.1094444 C26.326876,23.1094444 25.9899666,23.4265761 25.9899666,23.8177778 C25.9899666,24.2089795 26.326876,24.5261111 26.7424749,24.5261111 L31.2575251,24.5261111 C31.673124,24.5261111 32.0100334,24.2089795 32.0100334,23.8177778 C32.0100334,23.4265761 31.673124,23.1094444 31.2575251,23.1094444 Z M32.4615385,13.0888889 C32.0459396,13.0888889 31.7090301,13.4060205 31.7090301,13.7972222 L31.7090301,18.0472222 C31.7090301,18.4384239 32.0459396,18.7555556 32.4615385,18.7555556 C32.8771374,18.7555556 33.2140468,18.4384239 33.2140468,18.0472222 L33.2140468,13.7972222 C33.2140468,13.4060205 32.8771374,13.0888889 32.4615385,13.0888889 Z M31.2575251,6.57222222 L26.7424749,6.57222222 C26.326876,6.57222222 25.9899666,6.88935386 25.9899666,7.28055556 C25.9899666,7.67175725 26.326876,7.98888889 26.7424749,7.98888889 L31.2575251,7.98888889 C31.673124,7.98888889 32.0100334,7.67175725 32.0100334,7.28055556 C32.0100334,6.88935386 31.673124,6.57222222 31.2575251,6.57222222 Z M31.2575251,4.80611111 L26.7424749,4.80611111 C26.326876,4.80611111 25.9899666,5.12324275 25.9899666,5.51444444 C25.9899666,5.90564614 26.326876,6.22277778 26.7424749,6.22277778 L31.2575251,6.22277778 C31.673124,6.22277778 32.0100334,5.90564614 32.0100334,5.51444444 C32.0100334,5.12324275 31.673124,4.80611111 31.2575251,4.80611111 Z" id="形状结合" fill="url(#linearGradient-1)" fill-rule="nonzero"></path>
                <path d="M24,1 L24,35 L12,35 L12,1 L24,1 Z M20.2575251,26.6322222 L15.7424749,26.6322222 C15.326876,26.6322222 14.9899666,26.9493539 14.9899666,27.3405556 C14.9899666,27.7317573 15.326876,28.0488889 15.7424749,28.0488889 L20.2575251,28.0488889 C20.673124,28.0488889 21.0100334,27.7317573 21.0100334,27.3405556 C21.0100334,26.9493539 20.673124,26.6322222 20.2575251,26.6322222 Z M20.2575251,24.8661111 L15.7424749,24.8661111 C15.326876,24.8661111 14.9899666,25.1832427 14.9899666,25.5744444 C14.9899666,25.9656461 15.326876,26.2827778 15.7424749,26.2827778 L20.2575251,26.2827778 C20.673124,26.2827778 21.0100334,25.9656461 21.0100334,25.5744444 C21.0100334,25.1832427 20.673124,24.8661111 20.2575251,24.8661111 Z M20.2575251,23.1094444 L15.7424749,23.1094444 C15.326876,23.1094444 14.9899666,23.4265761 14.9899666,23.8177778 C14.9899666,24.2089795 15.326876,24.5261111 15.7424749,24.5261111 L20.2575251,24.5261111 C20.673124,24.5261111 21.0100334,24.2089795 21.0100334,23.8177778 C21.0100334,23.4265761 20.673124,23.1094444 20.2575251,23.1094444 Z M21.4615385,13.0888889 C21.0459396,13.0888889 20.7090301,13.4060205 20.7090301,13.7972222 L20.7090301,18.0472222 C20.7090301,18.4384239 21.0459396,18.7555556 21.4615385,18.7555556 C21.8771374,18.7555556 22.2140468,18.4384239 22.2140468,18.0472222 L22.2140468,13.7972222 C22.2140468,13.4060205 21.8771374,13.0888889 21.4615385,13.0888889 Z M20.2575251,6.57222222 L15.7424749,6.57222222 C15.326876,6.57222222 14.9899666,6.88935386 14.9899666,7.28055556 C14.9899666,7.67175725 15.326876,7.98888889 15.7424749,7.98888889 L20.2575251,7.98888889 C20.673124,7.98888889 21.0100334,7.67175725 21.0100334,7.28055556 C21.0100334,6.88935386 20.673124,6.57222222 20.2575251,6.57222222 Z M20.2575251,4.80611111 L15.7424749,4.80611111 C15.326876,4.80611111 14.9899666,5.12324275 14.9899666,5.51444444 C14.9899666,5.90564614 15.326876,6.22277778 15.7424749,6.22277778 L20.2575251,6.22277778 C20.673124,6.22277778 21.0100334,5.90564614 21.0100334,5.51444444 C21.0100334,5.12324275 20.673124,4.80611111 20.2575251,4.80611111 Z" id="形状结合" fill="url(#linearGradient-1)" fill-rule="nonzero"></path>
            </g>
        </g>
    </g>
</svg>