<?xml version="1.0" encoding="UTF-8"?>
<svg width="26px" height="36px" viewBox="0 0 26 36" version="1.1" xmlns="http://www.w3.org/2000/svg" xmlns:xlink="http://www.w3.org/1999/xlink">
    <!-- Generator: Sketch 59.1 (86144) - https://sketch.com -->
    <title>服务节点</title>
    <desc>Created with Sketch.</desc>
    <defs>
        <linearGradient x1="49.6821037%" y1="38.2732123%" x2="49.6821037%" y2="51.8474574%" id="linearGradient-1">
            <stop stop-color="#FFFFFF" offset="0%"></stop>
            <stop stop-color="#FFFFFF" stop-opacity="0" offset="100%"></stop>
        </linearGradient>
    </defs>
    <g id="页面-1" stroke="none" stroke-width="1" fill="none" fill-rule="evenodd">
        <g id="模型图标库" transform="translate(-472.000000, -318.000000)">
            <g id="服务节点" transform="translate(467.000000, 318.000000)">
                <rect id="矩形" x="0" y="0" width="36" height="36"></rect>
                <g id="编组-26" transform="translate(5.000000, 0.000000)" fill-rule="nonzero">
                    <path d="M24.008243,0 C25.1037094,0 26,0.915254237 26,2.03389831 L26,33.9661017 C26,35.0847458 25.1037094,36 24.008243,36 L1.99932874,36 C0.903862417,36 0.00757178944,35.0847458 0.00757178944,33.9661017 L0.00757178944,2.03389831 C-0.0920160581,0.915254237 0.80427457,0 1.89974089,0 L24.008243,0 Z M20.2239048,9.20338983 L5.58449125,9.20338983 C5.17198488,9.20338983 4.8375824,9.54486756 4.8375824,9.96610169 C4.8375824,10.3873358 5.17198488,10.7288136 5.58449125,10.7288136 L20.2239048,10.7288136 C20.6364112,10.7288136 20.9708137,10.3873358 20.9708137,9.96610169 C20.9708137,9.54486756 20.6364112,9.20338983 20.2239048,9.20338983 Z M20.2239048,5.13559322 L5.58449125,5.13559322 C5.17198488,5.13559322 4.8375824,5.47707095 4.8375824,5.89830508 C4.8375824,6.31953922 5.17198488,6.66101695 5.58449125,6.66101695 L20.2239048,6.66101695 C20.6364112,6.66101695 20.9708137,6.31953922 20.9708137,5.89830508 C20.9708137,5.47707095 20.6364112,5.13559322 20.2239048,5.13559322 Z" id="形状结合" fill="url(#linearGradient-1)"></path>
                    <path d="M26,16 L26,33.9695431 C26,35.0862944 25.1068702,36 24.0152672,36 L1.98473282,36 C0.893129771,36 1.27897692e-12,35.0862944 1.27897692e-12,33.9695431 L1.27897692e-12,16 L26,16 Z M13,22.0406091 C10.7803212,22.0406091 8.98091603,23.8814688 8.98091603,26.1522843 C8.98091603,28.4230997 10.7803212,30.2639594 13,30.2639594 C15.2196788,30.2639594 17.019084,28.4230997 17.019084,26.1522843 C17.019084,23.8814688 15.2196788,22.0406091 13,22.0406091 Z M13,23.5634518 C14.3975755,23.5634518 15.5305344,24.7225116 15.5305344,26.1522843 C15.5305344,27.582057 14.3975755,28.7411168 13,28.7411168 C11.6024245,28.7411168 10.4694656,27.582057 10.4694656,26.1522843 C10.4694656,24.7225116 11.6024245,23.5634518 13,23.5634518 Z" id="形状结合" fill="#FFFFFF"></path>
                </g>
            </g>
        </g>
    </g>
</svg>