<?xml version="1.0" encoding="UTF-8"?>
<svg width="34px" height="34px" viewBox="0 0 34 34" version="1.1" xmlns="http://www.w3.org/2000/svg" xmlns:xlink="http://www.w3.org/1999/xlink">
    <!-- Generator: Sketch 59.1 (86144) - https://sketch.com -->
    <title>编组</title>
    <desc>Created with Sketch.</desc>
    <defs>
        <linearGradient x1="50%" y1="20.6400167%" x2="50%" y2="-0.0199833472%" id="linearGradient-1">
            <stop stop-color="#FFFFFF" offset="0%"></stop>
            <stop stop-color="#FFFFFF" stop-opacity="0" offset="100%"></stop>
        </linearGradient>
    </defs>
    <g id="页面-1" stroke="none" stroke-width="1" fill="none" fill-rule="evenodd">
        <g id="高优先级" transform="translate(-799.000000, -273.000000)">
            <g id="编组" transform="translate(797.000000, 271.000000)">
                <g id="机柜">
                    <rect id="矩形备份-3" x="0" y="0" width="38" height="38"></rect>
                    <path d="M33.7333333,2 C34.9894444,2 36,2.98001665 36,4.19816819 L36,13 L2,13 L2,3.83180683 C2,2.82431307 2.85,2 3.88888889,2 L33.7333333,2 Z M21.1911111,5.02248127 L16.7994444,5.02248127 C16.6388889,5.02248127 16.5161111,5.15070774 16.5161111,5.29725229 L16.5161111,5.29725229 L16.5161111,6.39633639 C16.5161111,6.55203997 16.6483333,6.67110741 16.7994444,6.67110741 L16.7994444,6.67110741 L21.1911111,6.67110741 C21.3516667,6.67110741 21.4744444,6.54288093 21.4744444,6.39633639 L21.4744444,6.39633639 L21.4744444,5.29725229 C21.4744444,5.14154871 21.3422222,5.02248127 21.1911111,5.02248127 L21.1911111,5.02248127 Z" id="形状结合" fill="#FFFFFF" fill-rule="nonzero"></path>
                    <path d="M36,14 L36,25 L2,25 L2,14 L36,14 Z M21.3611111,17.0041632 L16.9694444,17.0041632 C16.8088889,17.0041632 16.6861111,17.1323897 16.6861111,17.2789342 L16.6861111,17.2789342 L16.6861111,18.3780183 C16.6861111,18.5337219 16.8183333,18.6527893 16.9694444,18.6527893 L16.9694444,18.6527893 L21.3611111,18.6527893 C21.5122222,18.6527893 21.635,18.5337219 21.6444444,18.3780183 L21.6444444,18.3780183 L21.6444444,17.2789342 C21.6444444,17.1232306 21.5122222,17.0041632 21.3611111,17.0041632 L21.3611111,17.0041632 Z" id="形状结合" fill="url(#linearGradient-1)" fill-rule="nonzero"></path>
                    <path d="M36,25 L36,34.1681932 C36,35.184846 35.15,36 34.1111111,36 L3.88888889,36 C2.85,36 2,35.1756869 2,34.1681932 L2,25 L36,25 Z M21.1911111,27.7660283 L16.7994444,27.7660283 C16.6388889,27.7660283 16.5161111,27.8942548 16.5161111,28.0407993 L16.5161111,28.0407993 L16.5161111,29.1398834 C16.5161111,29.295587 16.6483333,29.4146545 16.7994444,29.4146545 L16.7994444,29.4146545 L21.1911111,29.4146545 C21.3516667,29.4146545 21.4744444,29.295587 21.4744444,29.1398834 L21.4744444,29.1398834 L21.4744444,28.0407993 C21.4744444,27.8850958 21.3422222,27.7660283 21.1911111,27.7660283 L21.1911111,27.7660283 Z" id="形状结合" fill="url(#linearGradient-1)" fill-rule="nonzero"></path>
                </g>
            </g>
        </g>
    </g>
</svg>