<?xml version="1.0" encoding="UTF-8"?>
<svg width="36px" height="36px" viewBox="0 0 36 36" version="1.1" xmlns="http://www.w3.org/2000/svg" xmlns:xlink="http://www.w3.org/1999/xlink">
    <!-- Generator: Sketch 60.1 (88133) - https://sketch.com -->
    <title>server-rack</title>
    <desc>Created with Sketch.</desc>
    <g id="页面-1" stroke="none" stroke-width="1" fill="none" fill-rule="evenodd">
        <g id="高优先级" transform="translate(-774.000000, -1150.000000)">
            <g id="server-rack" transform="translate(774.000000, 1150.000000)">
                <g id="机柜备份">
                    <g id="机柜">
                        <rect id="矩形备份-3" x="0" y="0" width="36" height="36"></rect>
                    </g>
                </g>
                <g id="编组-3" fill="#FFFFFF" fill-rule="nonzero">
                    <path d="M33.606,0 C34.938,0 36,0.971514243 36,2.15352324 L36,10.8 L0,10.8 L0,1.79730135 C0,0.809595202 0.9,0 1.998,0 L33.606,0 Z M20.232,1.8 L15.75,1.8 C15.534,1.8 15.354,1.98 15.354,2.196 L15.354,2.196 L15.354,3.222 C15.354,3.438 15.534,3.618 15.75,3.618 L15.75,3.618 L20.232,3.618 C20.448,3.618 20.628,3.438 20.628,3.222 L20.628,3.222 L20.628,2.196 C20.628,1.98 20.448,1.8 20.232,1.8 L20.232,1.8 Z" id="形状结合备份"></path>
                    <path d="M36,12.6 L36,23.4 L0,23.4 L0,12.6 L36,12.6 Z M20.412,14.4 L15.93,14.4 C15.714,14.4 15.534,14.58 15.534,14.796 L15.534,14.796 L15.534,15.822 C15.534,16.038 15.714,16.218 15.93,16.218 L15.93,16.218 L20.412,16.218 C20.628,16.218 20.79,16.038 20.808,15.822 L20.808,15.822 L20.808,14.796 C20.808,14.58 20.628,14.4 20.412,14.4 L20.412,14.4 Z" id="形状结合备份-2"></path>
                    <path d="M36,25.2 L36,33.6683658 C36,34.9637181 34.83,36 33.39,36 L2.592,36 C1.152,36 0,34.9475262 0,33.6683658 L0,25.2 L36,25.2 Z M20.232,27 L15.75,27 C15.534,27 15.354,27.18 15.354,27.396 L15.354,27.396 L15.354,28.422 C15.354,28.638 15.534,28.818 15.75,28.818 L15.75,28.818 L20.232,28.818 C20.448,28.818 20.628,28.638 20.628,28.422 L20.628,28.422 L20.628,27.396 C20.628,27.18 20.448,27 20.232,27 L20.232,27 Z" id="形状结合备份-3"></path>
                </g>
            </g>
        </g>
    </g>
</svg>