<?xml version="1.0" encoding="UTF-8"?>
<svg width="34px" height="34px" viewBox="0 0 34 34" version="1.1" xmlns="http://www.w3.org/2000/svg" xmlns:xlink="http://www.w3.org/1999/xlink">
    <!-- Generator: Sketch 59.1 (86144) - https://sketch.com -->
    <title>网站</title>
    <desc>Created with Sketch.</desc>
    <defs>
        <linearGradient x1="88.0412382%" y1="89.0234163%" x2="27.5178369%" y2="6.05749334%" id="linearGradient-1">
            <stop stop-color="#FFFFFF" stop-opacity="0" offset="0%"></stop>
            <stop stop-color="#FFFFFF" stop-opacity="0.854544975" offset="41.6965794%"></stop>
            <stop stop-color="#FFFFFF" offset="100%"></stop>
        </linearGradient>
    </defs>
    <g id="页面-1" stroke="none" stroke-width="1" fill="none" fill-rule="evenodd">
        <g id="低优先级" transform="translate(-714.000000, -272.000000)">
            <g id="网站" transform="translate(713.000000, 271.000000)">
                <polygon id="矩形备份-20" points="0 0 36 0 36 36 24.484679 36 0 36"></polygon>
                <g id="编组-14" transform="translate(1.000000, 1.000000)">
                    <path d="M16.7763158,0 C26.0416192,0 33.5526316,7.51101242 33.5526316,16.7763158 C33.5526316,26.0416192 26.0416192,33.5526316 16.7763158,33.5526316 C7.51101242,33.5526316 0,26.0416192 0,16.7763158 C0,7.51101242 7.51101242,0 16.7763158,0 Z M16.0610951,25.5533448 C14.3282304,25.5902167 12.515418,25.7427127 10.8562714,25.9798444 C12.0933663,29.2745428 13.9771663,31.5063824 16.0607563,31.9049247 Z M17.402,25.547 L17.4024016,31.9049247 C19.5003563,31.5036347 21.3957568,29.243682 22.632846,25.911524 C21.0050472,25.6996928 19.228655,25.5708205 17.5045739,25.5480199 L17.5045739,25.5480199 L17.402,25.547 Z M23.9893752,26.1110237 L23.9170013,26.3127084 C23.0592438,28.6441591 21.8826437,30.5350079 20.4899162,31.7607818 C23.466799,31.0256072 26.1035677,29.4261729 28.1185079,27.2439759 C27.2056882,26.7919559 25.7307785,26.4026602 23.9893752,26.1110237 Z M9.50481618,26.1993172 L9.39508774,26.2181865 C7.76104437,26.5204019 6.37836861,26.9068384 5.52376153,27.340792 C7.49962891,29.4435757 10.0565896,30.992102 12.938302,31.7295524 C11.5382681,30.4831364 10.3588001,28.5631095 9.50481618,26.1993172 Z M8.01130287,17.4477769 L1.35644832,17.4477698 C1.49919788,20.7826666 2.70019069,23.8434458 4.63214285,26.3028235 L4.66838549,26.2775107 C5.62041926,25.7329317 7.20836784,25.2642024 9.08504521,24.9107445 C8.43293512,22.6862286 8.05083778,20.1453603 8.01130287,17.4477769 Z M32.1961833,17.4477698 L25.451855,17.4477769 C25.4128592,20.1085798 25.0405786,22.6169121 24.4050141,24.8197948 C26.462666,25.1795922 28.1853091,25.6825534 29.1642348,26.2897352 L29.0036472,26.1960059 C30.8868737,23.755074 32.0554931,20.7345546 32.1961833,17.4477698 Z M16.06,17.447 L9.35357676,17.447492 C9.39434181,20.0962407 9.78170432,22.5643342 10.4202151,24.6870646 C12.2154739,24.4167698 14.1806141,24.2487893 16.0611245,24.210789 L16.06,17.447 Z M24.1095811,17.447492 L17.402,17.447 L17.4025676,24.2044714 C19.308092,24.2236555 21.2716456,24.36668 23.0660787,24.6119696 C23.6903658,22.5072302 24.0692875,20.0656118 24.1095811,17.447492 Z M4.52961661,7.38207677 L4.42481509,7.51978736 C2.61429506,9.93180554 1.49381876,12.8914607 1.35641127,16.1057279 L8.02001196,16.105059 C8.09335191,13.4577003 8.49703846,10.9710508 9.160854,8.79856324 C7.21339609,8.43036777 5.54192346,7.94152782 4.52961661,7.38207677 Z M10.4974818,9.02648704 L10.4150805,9.29424136 C9.81274406,11.3026993 9.4350807,13.6194035 9.36272839,16.1052047 L16.06,16.105 L16.0609577,9.51166181 C14.2318073,9.47268162 12.291759,9.29986165 10.4974818,9.02648704 Z M22.9823437,9.07913811 L22.7190492,9.11619969 C21.0035774,9.34905558 19.1612535,9.49024376 17.402496,9.51586357 L17.402,16.105 L24.1004295,16.1052047 C24.0254799,13.5301672 23.6229053,11.1365852 22.9823437,9.07913811 Z M29.0569249,7.42608604 L29.027404,7.44512085 C28.0270385,8.01734637 26.3245526,8.50582541 24.3225924,8.86482293 C24.9743016,11.0216793 25.3705523,13.4846417 25.4431459,16.105059 L32.1962203,16.1057279 C32.0570282,12.8497151 30.9090661,9.85497077 29.0569249,7.42608604 Z M17.4024016,2.05928584 L17.402549,8.17353957 C19.0989869,8.14752032 20.8828338,8.00836455 22.5319825,7.78553448 C21.2934139,4.60002779 19.4437978,2.44975745 17.4024016,2.05928584 Z M16.0607563,2.05928584 C14.0301124,2.44770079 12.1892336,4.57742516 10.9514021,7.73529674 C12.602618,7.97515578 14.3834979,8.1311729 16.0608917,8.16901663 Z M19.7488533,1.62809414 L19.9059892,1.73794027 C21.5390163,2.90861523 22.9157418,4.96186294 23.8894327,7.57701514 C25.7086905,7.2647496 27.2574572,6.84880938 28.1816476,6.37694148 C25.994561,3.97991095 23.0611688,2.27432169 19.7488533,1.62809414 Z M13.6780834,1.65319666 L13.4061019,1.71115728 C10.278901,2.40766848 7.5092847,4.05299935 5.41501961,6.32938328 C6.34594498,6.78569825 7.85005148,7.19675595 9.59821916,7.51485004 C10.5937431,4.86472055 12.0053572,2.79889824 13.6780834,1.65319666 Z" id="形状结合" fill="url(#linearGradient-1)" fill-rule="nonzero"></path>
                    <path d="M25.6789474,20.1136842 L29.7052632,26.3768421 L27.0206316,25.8536842 L27.0210526,30.8505263 L24.3368421,30.8505263 L24.3366316,25.8536842 L21.6526316,26.3768421 L25.6789474,20.1136842 Z" id="形状结合" fill="#FFFFFF" transform="translate(25.678947, 25.482105) rotate(-45.000000) translate(-25.678947, -25.482105) "></path>
                </g>
            </g>
        </g>
    </g>
</svg>