<?xml version="1.0" standalone="no"?><!DOCTYPE svg PUBLIC "-//W3C//DTD SVG 1.1//EN" "http://www.w3.org/Graphics/SVG/1.1/DTD/svg11.dtd"><svg t="1600144491524" class="icon" viewBox="0 0 1024 1024" version="1.1" xmlns="http://www.w3.org/2000/svg" p-id="28930" xmlns:xlink="http://www.w3.org/1999/xlink" width="48" height="48"><defs><style type="text/css"></style></defs><path d="M512.112785 1023.998951a509.445183 509.445183 0 0 1-286.203026-87.427064A513.355579 513.355579 0 0 1 40.443126 711.367042 511.228084 511.228084 0 0 1 87.612589 225.898629 513.395532 513.395532 0 0 1 312.847399 40.431996a511.218096 511.218096 0 0 1 482.891447 45.471462 515.782721 515.782721 0 0 1 75.411212 61.332787l56.009055-90.328648a1.598118 1.598118 0 0 1 0.099882 0.264689c3.765566 10.89717 23.572246 68.918855 44.342792 142.472254 13.234418 46.859828 24.14657 90.393571 32.42682 129.427613a871.678692 871.678692 0 0 1 18.687997 124.603293c0.699177 11.651282 0.9339 23.002917 0.699177 33.730286 0.389541 8.235304 0.584312 16.545519 0.584312 24.695923a509.445183 509.445183 0 0 1-87.427064 286.203027 513.450467 513.450467 0 0 1-225.23481 185.466633A508.686077 508.686077 0 0 1 512.112785 1023.998951z m-279.670717-192.273618a44.94708 44.94708 0 1 0 44.947079 44.947079 44.997021 44.997021 0 0 0-44.947079-44.947079z m252.667511 34.923881c56.688256 0 105.670584 1.24853 145.593579 3.715625 7.800815 0.499412 15.666554 0.724147 23.392458 0.724147a370.918284 370.918284 0 0 0 145.229008-29.625119 275.17601 275.17601 0 0 0 53.756708-29.620126 287.201851 287.201851 0 0 0 59.774621-57.891838 379.123623 379.123623 0 0 0 77.328954-184.542721c12.090764-87.247276-8.100463-203.070906-27.168013-284.869597-20.475892-87.926476-44.487621-157.514544-44.727338-158.208726l-65.20323 83.601568a580.496528 580.496528 0 0 1-93.839514 73.568381 552.654309 552.654309 0 0 1-102.953783 51.983795 407.175594 407.175594 0 0 1-127.569801 26.593689c-94.124179 3.455931-155.94639 15.981184-191.234841 25.909494-38.075171 10.702399-54.385966 20.80051-54.545778 20.900392a301.834622 301.834622 0 0 0-142.117672 203.98483c-12.090764 72.544587 12.645112 120.96258 35.528169 148.824775a172.332097 172.332097 0 0 0 53.087496 43.448843c1.498236-0.214747 37.111305-5.383661 94.888279-18.807855a2025.924691 2025.924691 0 0 0 237.829981-71.475845c98.469063-36.277287 175.503364-114.365347 222.792685-173.475751a774.862682 774.862682 0 0 0 79.831008-120.782791 0.244712 0.244712 0 0 1-0.024971 0.089894l-0.029965 0.064923c-3.211219 7.49118-20.670663 47.414175-49.261999 98.683811-18.203567 32.651556-37.206194 63.230553-56.478503 90.892983a690.68679 690.68679 0 0 1-73.078957 89.489635c-24.416252 24.790811-59.819569 49.182093-105.231102 72.494646a1023.29518 1023.29518 0 0 1-127.195241 53.531972 1504.55355 1504.55355 0 0 1-152.120894 44.502603H301.870323a4847.972034 4847.972034 0 0 1 183.24425-3.705637z" p-id="28931" fill="currentColor" fill-rule="nonzero"></path></svg>