<?xml version="1.0" encoding="UTF-8"?>
<svg width="36px" height="34px" viewBox="0 0 36 34" version="1.1" xmlns="http://www.w3.org/2000/svg" xmlns:xlink="http://www.w3.org/1999/xlink">
    <!-- Generator: Sketch 60.1 (88133) - https://sketch.com -->
    <title>sql-Server</title>
    <desc>Created with Sketch.</desc>
    <g id="页面-1" stroke="none" stroke-width="1" fill="none" fill-rule="evenodd">
        <g id="模型icon-库" transform="translate(-694.000000, -956.000000)">
            <g id="sql-Server" transform="translate(694.000000, 955.000000)">
                <g id="编组">
                    <rect id="矩形备份-3" opacity="0.446149554" x="0" y="0" width="36" height="36"></rect>
                    <path d="M14.9702564,13.505641 C22.0902564,13.505641 27.7497436,11.3148718 29.1189744,8.39384615 L29.1189744,7.29846154 C29.1189744,3.82974359 22.7292308,1 14.9702564,1 C7.21128205,1 0.912820513,3.73846154 0.912820513,7.29846154 L0.912820513,8.3025641 C2.28205128,11.4974359 7.85025641,13.505641 14.9702564,13.505641 Z" id="路径" fill="#FFFFFF" fill-rule="nonzero"></path>
                    <path d="M18.7128205,14.9661538 C17.4348718,15.1487179 16.1569231,15.1487179 14.9702564,15.1487179 C7.85025641,15.1487179 2.00820513,12.8666667 0.821538462,9.85435897 L0.821538462,14.7835897 C2.19076923,17.7046154 7.94153846,19.8953846 14.8789744,19.8953846 L15.1528205,19.8953846 C15.8830769,17.9784615 17.0697436,16.2441026 18.7128205,14.9661538 Z" id="路径" fill="#FFFFFF" fill-rule="nonzero"></path>
                    <path d="M29.0276923,10.0369231 C28.3887179,11.3148718 27.2933333,12.3189744 26.0153846,12.8666667 C27.0194872,12.9579487 28.0235897,13.2317949 29.0276923,13.5969231 L29.0276923,10.0369231 Z" id="路径" fill="#FFFFFF" fill-rule="nonzero"></path>
                    <path d="M14.6964103,21.8123077 C7.85025641,21.7210256 2.19076923,19.5302564 0.912820513,16.7005128 L0.912820513,21.4471795 C2.19076923,24.3682051 8.03282051,26.5589744 14.9702564,26.5589744 L15.0615385,26.5589744 C14.5138462,25.0071795 14.4225641,23.3641026 14.6964103,21.8123077 Z" id="路径" fill="#FFFFFF" fill-rule="nonzero"></path>
                    <path d="M15.7005128,28.2933333 L14.9702564,28.2933333 C8.03282051,28.2933333 2.19076923,26.1025641 0.912820513,23.1815385 L0.912820513,27.745641 C0.912820513,31.305641 7.21128205,34.2266667 15.0615385,34.2266667 C17.2523077,34.2266667 19.3517949,34.0441026 21.4512821,33.4964103 C18.9866667,32.4923077 16.8871795,30.6666667 15.7005128,28.2933333 Z" id="路径" fill="#FFFFFF" fill-rule="nonzero"></path>
                    <path d="M25.5589744,13.7794872 C25.5589744,13.7794872 26.745641,17.065641 27.6584615,17.8871795 C27.6584615,17.8871795 29.7579487,22.5425641 28.9364103,26.8328205 C28.9364103,26.8328205 28.3887179,30.3928205 27.1107692,32.1271795 C27.1107692,32.1271795 22.9117949,32.2184615 20.3558974,30.6666667 C20.3558974,30.6666667 17.3435897,29.1148718 19.8082051,26.7415385 L27.4758974,21.3558974 L24.4635897,17.5220513 L21.9989744,16.3353846 C21.9989744,16.3353846 21.2687179,15.9702564 21.9076923,15.5138462 C22.8205128,14.9661538 23.7333333,14.5097436 24.7374359,14.1446154 L25.5589744,13.7794872 Z" id="路径" fill="#FFFFFF" fill-rule="nonzero"></path>
                    <path d="M35.5087179,21.1733333 C35.5087179,21.1733333 33.865641,17.8871795 28.6625641,17.2482051 L22.6379487,16.2441026 C22.6379487,16.2441026 21.5425641,15.9702564 21.5425641,15.6964103 C21.5425641,15.6964103 21.36,15.8789744 21.8164103,16.3353846 C22.5466667,16.8830769 23.094359,17.6133333 23.6420513,18.3435897 C24.1897436,19.4389744 24.3723077,20.625641 23.9158974,21.8123077 C23.6420513,22.6338462 23.185641,23.3641026 22.6379487,24.0030769 C21.8164103,24.9158974 20.9948718,25.7374359 20.0820513,26.4676923 C24.8287179,23.7292308 30.0317949,21.9948718 35.5087179,21.1733333 Z" id="路径" fill="#FFFFFF" fill-rule="nonzero"></path>
                </g>
            </g>
        </g>
    </g>
</svg>