<?xml version="1.0" encoding="UTF-8"?>
<svg width="34px" height="26px" viewBox="0 0 34 26" version="1.1" xmlns="http://www.w3.org/2000/svg" xmlns:xlink="http://www.w3.org/1999/xlink">
    <!-- Generator: Sketch 59.1 (86144) - https://sketch.com -->
    <title>SSL证书</title>
    <desc>Created with Sketch.</desc>
    <defs>
        <linearGradient x1="49.9969453%" y1="42.4035767%" x2="49.9969453%" y2="100.038601%" id="linearGradient-1">
            <stop stop-color="#FFFFFF" offset="0%"></stop>
            <stop stop-color="#FFFFFF" stop-opacity="0" offset="100%"></stop>
        </linearGradient>
    </defs>
    <g id="页面-1" stroke="none" stroke-width="1" fill="none" fill-rule="evenodd">
        <g id="中优先级" transform="translate(-1333.000000, -275.000000)">
            <g id="SSL证书" transform="translate(1332.000000, 271.000000)">
                <polygon id="矩形备份-13" points="0 0 36 0 36 36 24.484679 36 0 36"></polygon>
                <g id="编组-22" transform="translate(1.000000, 4.000000)">
                    <path d="M33.9905582,8 L0,8 L0,1.93003619 C0,0.868516285 0.840322133,0 1.88836434,0 L32.1116357,0 C33.150236,0 34,0.858866104 34,1.93003619 L34,8 L33.9905582,8 Z" id="路径" fill="url(#linearGradient-1)" fill-rule="nonzero"></path>
                    <path d="M34,6 L34,24.1421273 C33.9905556,25.1639573 33.15,26 32.1016667,26 L1.88888889,26 C0.840555556,26 0,25.1639573 0,24.1421273 L0,6 L34,6 Z M16.8528524,11.006967 C15.4061566,11.006967 14.2267677,12.1501189 14.2267677,13.561542 C14.2267677,14.9339909 15.341922,16.0527798 16.7336384,16.1135205 L16.7336384,16.1135205 L16.9180467,16.1222724 C17.5247107,16.1832991 18.0045455,16.6901761 18.0045455,17.287403 C18.0045455,17.9182187 17.4648767,18.438458 16.7951274,18.438458 C16.2770368,18.438458 15.8249302,18.1165587 15.6592518,17.659973 L15.6592518,17.659973 L15.595237,17.4526765 C15.4690445,17.132733 15.1187362,16.9457869 14.7700105,17.0279934 C14.3895824,17.1176732 14.1550981,17.493707 14.246275,17.8678883 C14.5246596,19.0103511 15.5767617,19.8318625 16.7951274,19.8318625 C18.2409744,19.8318625 19.4212121,18.6941164 19.4212121,17.287403 C19.4212121,15.9170813 18.3021052,14.7851046 16.9110742,14.7252047 L16.9110742,14.7252047 L16.7290386,14.7166732 C16.1184986,14.656781 15.6434343,14.1589737 15.6434343,13.561542 C15.6434343,12.9242816 16.1839519,12.4003716 16.8528524,12.4003716 C17.3731612,12.4003716 17.8277392,12.728084 17.9913587,13.1930429 L17.9913587,13.1930429 L18.052426,13.3931779 C18.1782169,13.7132744 18.5282903,13.9006457 18.8771189,13.8188626 C19.2576592,13.7296448 19.4926153,13.353896 19.401908,12.9796042 C19.1239773,11.8327597 18.0721504,11.006967 16.8528524,11.006967 Z M10.2417413,11.006967 C8.79504551,11.006967 7.61565657,12.1501189 7.61565657,13.561542 C7.61565657,14.9339909 8.73081089,16.0527798 10.1225273,16.1135205 L10.1225273,16.1135205 L10.3069356,16.1222724 C10.9135995,16.1832991 11.3934343,16.6901761 11.3934343,17.287403 C11.3934343,17.9182187 10.8537656,18.438458 10.1840163,18.438458 C9.66592565,18.438458 9.2138191,18.1165587 9.04814066,17.659973 L9.04814066,17.659973 L8.9841259,17.4526765 C8.85793341,17.132733 8.50762512,16.9457869 8.15889937,17.0279934 C7.77847129,17.1176732 7.54398694,17.493707 7.63516392,17.8678883 C7.91354848,19.0103511 8.96565059,19.8318625 10.1840163,19.8318625 C11.6298633,19.8318625 12.810101,18.6941164 12.810101,17.287403 C12.810101,15.9170813 11.6909941,14.7851046 10.2999631,14.7252047 L10.2999631,14.7252047 L10.1179275,14.7166732 C9.50738746,14.656781 9.03232323,14.1589737 9.03232323,13.561542 C9.03232323,12.9242816 9.57284075,12.4003716 10.2417413,12.4003716 C10.7620501,12.4003716 11.2166281,12.728084 11.3802476,13.1930429 L11.3802476,13.1930429 L11.4413149,13.3931779 C11.5671057,13.7132744 11.9171791,13.9006457 12.2660078,13.8188626 C12.6465481,13.7296448 12.8815042,13.353896 12.7907969,12.9796042 C12.5128662,11.8327597 11.4610393,11.006967 10.2417413,11.006967 Z M22.0184343,11.006967 C21.6272326,11.006967 21.310101,11.3188913 21.310101,11.7036693 L21.310101,19.1351602 C21.310101,19.5199383 21.6272326,19.8318625 22.0184343,19.8318625 L25.7962121,19.8318625 C26.1874138,19.8318625 26.5045455,19.5199383 26.5045455,19.1351602 C26.5045455,18.7503822 26.1874138,18.438458 25.7962121,18.438458 L22.726,18.438 L22.7267677,11.7036693 C22.7267677,11.3188913 22.409636,11.006967 22.0184343,11.006967 Z" id="形状结合" fill="#FFFFFF" fill-rule="nonzero"></path>
                    <g id="编组-20" transform="translate(20.000000, 10.000000)"></g>
                </g>
            </g>
        </g>
    </g>
</svg>