<?xml version="1.0" encoding="UTF-8"?>
<svg width="34px" height="35px" viewBox="0 0 34 35" version="1.1" xmlns="http://www.w3.org/2000/svg" xmlns:xlink="http://www.w3.org/1999/xlink">
    <!-- Generator: Sketch 60.1 (88133) - https://sketch.com -->
    <title>storage-resource-group</title>
    <desc>Created with Sketch.</desc>
    <g id="页面-1" stroke="none" stroke-width="1" fill="none" fill-rule="evenodd">
        <g id="中优先级" transform="translate(-1549.000000, -1177.000000)">
            <g id="storage-resource-group" transform="translate(1548.000000, 1177.000000)">
                <polygon id="矩形备份-15" points="0 0 36 0 36 36 24.484679 36 0 36"></polygon>
                <g id="编组-63" transform="translate(11.500000, 11.000000)" fill="#FFFFFF" fill-rule="nonzero">
                    <g id="编组-8">
                        <path d="M12.9925028,10.672459 C13.4961976,11.1586674 13.78125,11.7124251 13.78125,12.3 C13.78125,14.2329966 10.6962121,15.8 6.890625,15.8 C3.0850379,15.8 0,14.2329966 0,12.3 C0,11.712604 0.284878913,11.1590046 0.788287349,10.672903 C2.22126605,11.6848452 4.4403374,12.2888889 6.890625,12.2888889 C9.33279522,12.2888889 11.5452786,11.6888407 12.9782283,10.6823081 L12.9925028,10.672459 Z" id="形状结合"></path>
                        <path d="M12.9396192,6.22240391 C13.4761998,6.72051747 13.78125,7.29216393 13.78125,7.9 C13.78125,9.83299662 10.6962121,11.4 6.890625,11.4 C3.0850379,11.4 0,9.83299662 0,7.9 C0,7.29250886 0.30470404,6.72116626 0.84071757,6.22325197 C2.24364723,7.26407758 4.4508963,7.88888889 6.890625,7.88888889 C9.28517353,7.88888889 11.4557731,7.28700447 12.8618438,6.27998222 L12.9396192,6.22240391 Z" id="形状结合"></path>
                        <ellipse id="椭圆形" cx="6.890625" cy="3.5" rx="6.74296875" ry="3.5"></ellipse>
                    </g>
                </g>
                <g id="编组-42" transform="translate(1.000000, 0.000000)" fill="#FFFFFF">
                    <path d="M17.5151515,2.34090909 C26.4646748,2.34090909 33.719697,9.59593121 33.719697,18.5454545 C33.719697,27.4949779 26.4646748,34.75 17.5151515,34.75 C8.56562818,34.75 1.31060606,27.4949779 1.31060606,18.5454545 C1.31060606,9.59593121 8.56562818,2.34090909 17.5151515,2.34090909 Z M17.5151515,3.84090909 C9.39405531,3.84090909 2.81060606,10.4243583 2.81060606,18.5454545 C2.81060606,26.6665508 9.39405531,33.25 17.5151515,33.25 C25.6362477,33.25 32.219697,26.6665508 32.219697,18.5454545 C32.219697,10.4243583 25.6362477,3.84090909 17.5151515,3.84090909 Z" id="椭圆形" fill-rule="nonzero"></path>
                    <circle id="椭圆形" cx="17.5151515" cy="3.09090909" r="3.09090909"></circle>
                    <circle id="椭圆形" cx="3.09090909" cy="24.7272727" r="3.09090909"></circle>
                    <circle id="椭圆形" cx="30.9090909" cy="25.7575758" r="3.09090909"></circle>
                </g>
            </g>
        </g>
    </g>
</svg>