<?xml version="1.0" encoding="UTF-8"?>
<svg width="36px" height="36px" viewBox="0 0 36 36" version="1.1" xmlns="http://www.w3.org/2000/svg" xmlns:xlink="http://www.w3.org/1999/xlink">
    <!-- Generator: Sketch 59.1 (86144) - https://sketch.com -->
    <title>存储设备</title>
    <desc>Created with Sketch.</desc>
    <defs>
        <linearGradient x1="49.9262596%" y1="100.181868%" x2="49.9262596%" y2="0.494421513%" id="linearGradient-1">
            <stop stop-color="#FFFFFF" offset="0%"></stop>
            <stop stop-color="#FFFFFF" stop-opacity="0.99" offset="37%"></stop>
            <stop stop-color="#FFFFFF" stop-opacity="0.97" offset="51%"></stop>
            <stop stop-color="#FFFFFF" stop-opacity="0.92" offset="60%"></stop>
            <stop stop-color="#FFFFFF" stop-opacity="0.85" offset="68%"></stop>
            <stop stop-color="#FFFFFF" stop-opacity="0.77" offset="75%"></stop>
            <stop stop-color="#FFFFFF" stop-opacity="0.66" offset="80%"></stop>
            <stop stop-color="#FFFFFF" stop-opacity="0.53" offset="86%"></stop>
            <stop stop-color="#FFFFFF" stop-opacity="0.39" offset="91%"></stop>
            <stop stop-color="#FFFFFF" stop-opacity="0.22" offset="95%"></stop>
            <stop stop-color="#FFFFFF" stop-opacity="0.04" offset="99%"></stop>
            <stop stop-color="#FFFFFF" stop-opacity="0" offset="100%"></stop>
        </linearGradient>
    </defs>
    <g id="页面-1" stroke="none" stroke-width="1" fill="none" fill-rule="evenodd">
        <g id="模型icon-库" transform="translate(-2188.000000, -137.000000)">
            <g id="存储设备" transform="translate(2188.000000, 137.000000)">
                <rect id="矩形备份-14" opacity="0.446149554" x="0" y="0" width="36" height="36"></rect>
                <path d="M33.9532181,35.5684848 C12.6817396,35.5684848 2.04600036,35.5684848 2.04600036,35.5684848 C1.50495183,35.5684848 0.3,35.022016 0.3,33.950303 C0.3,33.7339777 0.3,29.9941797 0.3,22.7309091 L8.30751813,22.7309091 C8.30751813,25.8953535 8.30751813,27.4775758 8.30751813,27.4775758 C8.30751813,28.2327273 9.02587009,29.0957576 9.93066369,29.0957576 C9.93066369,29.0957576 15.2690091,29.0957576 25.9456999,29.0957576 C26.8113776,28.9878788 27.4606358,28.3406061 27.5688455,27.4775758 L27.5688455,22.7309091 L35.5763636,22.7309091 L35.5763636,33.950303 C35.4681539,34.8133333 34.8188957,35.4606061 33.9532181,35.5684848 Z" id="路径" fill="url(#linearGradient-1)" fill-rule="nonzero"></path>
                <path d="M33.850303,0.4 L1.91818182,0.4 C1.05515152,0.507878788 0.407878788,1.15515152 0.3,2.01818182 L0.3,19.6024242 L9.90121212,19.6024242 C11.0753432,19.6024242 11.5193939,20.6104526 11.5193939,21.8678788 L11.5193939,25.9672727 L24.3569697,25.9672727 L24.3569697,21.8678788 C24.3569697,20.4119986 24.8946929,19.6024242 25.9751515,19.6024242 L35.5763636,19.6024242 L35.5763636,1.58666667 C35.5763636,0.4 34.4975758,0.4 33.850303,0.4 Z M6.34121212,5.14666667 L29.3193939,5.14666667 C30.0745455,5.14666667 30.6139394,6.00969697 30.6139394,6.76484848 C30.5060606,7.62787879 29.8587879,8.27515152 28.9957576,8.3830303 L6.5569697,8.3830303 C5.69393939,8.27515152 5.04666667,7.62787879 4.93878788,6.76484848 C5.04666667,6.00969697 5.58606061,5.14666667 6.34121212,5.14666667 Z M6.5569697,14.7478788 C5.80181818,14.64 5.15454545,13.9927273 5.04666667,13.2375758 C5.04666667,12.4824242 5.58606061,11.6193939 6.34121212,11.6193939 L29.3193939,11.6193939 C30.0745455,11.6193939 30.6139394,12.4824242 30.6139394,13.2375758 C30.5060606,13.9927273 29.8587879,14.64 28.9957576,14.7478788 L6.5569697,14.7478788 Z" id="形状" fill="#FFFFFF" fill-rule="nonzero"></path>
            </g>
        </g>
    </g>
</svg>