<?xml version="1.0" encoding="UTF-8"?>
<svg width="36px" height="35px" viewBox="0 0 36 35" version="1.1" xmlns="http://www.w3.org/2000/svg" xmlns:xlink="http://www.w3.org/1999/xlink">
    <!-- Generator: Sketch 59.1 (86144) - https://sketch.com -->
    <title>存储交换机</title>
    <desc>Created with Sketch.</desc>
    <defs>
        <linearGradient x1="50.0958056%" y1="100.062257%" x2="50.0958056%" y2="-0.257265862%" id="linearGradient-1">
            <stop stop-color="#FFFFFF" offset="0%"></stop>
            <stop stop-color="#FFFFFF" stop-opacity="0.99" offset="37%"></stop>
            <stop stop-color="#FFFFFF" stop-opacity="0.97" offset="51%"></stop>
            <stop stop-color="#FFFFFF" stop-opacity="0.92" offset="60%"></stop>
            <stop stop-color="#FFFFFF" stop-opacity="0.85" offset="68%"></stop>
            <stop stop-color="#FFFFFF" stop-opacity="0.77" offset="75%"></stop>
            <stop stop-color="#FFFFFF" stop-opacity="0.66" offset="80%"></stop>
            <stop stop-color="#FFFFFF" stop-opacity="0.53" offset="86%"></stop>
            <stop stop-color="#FFFFFF" stop-opacity="0.39" offset="91%"></stop>
            <stop stop-color="#FFFFFF" stop-opacity="0.22" offset="95%"></stop>
            <stop stop-color="#FFFFFF" stop-opacity="0.04" offset="99%"></stop>
            <stop stop-color="#FFFFFF" stop-opacity="0" offset="100%"></stop>
        </linearGradient>
    </defs>
    <g id="页面-1" stroke="none" stroke-width="1" fill="none" fill-rule="evenodd">
        <g id="模型icon-库" transform="translate(-2321.000000, -135.000000)">
            <g id="存储交换机" transform="translate(2321.000000, 134.000000)">
                <rect id="矩形备份-15" opacity="0.446149554" x="0" y="0" width="36" height="36"></rect>
                <path d="M35.5,20.7 L35.5,20.7 L35.5,20.7 L35.5,34.2 C35.5,35 34.9,35.6 34.1,35.6 L2.1,35.6 C1.3,35.6 0.7,35 0.7,34.2 L0.7,34.2 L0.7,20.8 L0.7,20.8 L0.7,20.8 L3.4,1.9 C3.5,1.3 4,0.8 4.6,0.8 L31.8,0.8 C32.4,0.8 32.9,1.3 33,1.9 L35.5,20.7 Z M33.1,33.1 L33.1,20.7 L3.2,20.7 L3.2,33.1 L33.1,33.1 Z M8.7,11.1 C8.6,11.1 8.4,11.2 8.4,11.4 L7.7,16.1 C7.7,16.2 7.7,16.3 7.9,16.4 C7.9,16.4 7.9,16.4 8,16.4 L9.4,16.4 C9.5,16.4 9.7,16.3 9.7,16.1 L10.2,11.4 C10.2,11.3 10.1,11.2 10,11.1 L10,11.1 L8.7,11.1 Z M14.8,11.1 C14.7,11.1 14.6,11.2 14.6,11.4 L14.3,16.1 C14.3,16.2 14.4,16.4 14.5,16.4 L14.5,16.4 L15.9,16.4 C16,16.4 16.2,16.3 16.2,16.1 L16.2,16.1 L16.4,11.4 C16.4,11.3 16.3,11.2 16.2,11.1 L16.2,11.1 L14.8,11.1 Z M20.2,11.1 C20.1,11.1 20,11.2 20,11.4 L20,11.4 L20.1,16.1 C20.1,16.2 20.2,16.4 20.4,16.4 L20.4,16.4 L21.8,16.4 C21.9,16.4 22,16.3 22,16.2 L22,16.2 L21.7,11.5 C21.7,11.4 21.6,11.3 21.5,11.2 L20.2,11.1 L20.2,11.1 Z M26,11.1 C25.9,11.1 25.8,11.2 25.8,11.3 L25.8,11.3 L26.3,16 C26.3,16.1 26.4,16.3 26.6,16.3 L28,16.3 C28.1,16.3 28.2,16.2 28.2,16.1 C28.2,16.1 28.2,16.1 28.2,16 L27.5,11.3 C27.5,11.2 27.4,11.1 27.2,11 L26,11 L26,11.1 L26,11.1 Z M9.7,4 C9.6,4 9.5,4.1 9.5,4.3 L8.8,8.3 C8.8,8.4 8.8,8.5 9,8.5 L9,8.5 L10.2,8.5 C10.3,8.5 10.4,8.4 10.5,8.2 L11,4.2 C11,4.1 10.9,3.9 10.8,3.9 L9.7,4 L9.7,4 Z M15.4,4 C15.3,4 15.2,4.1 15.2,4.3 L14.9,8.3 C14.9,8.4 15,8.5 15.1,8.6 L15.1,8.6 L16.3,8.6 C16.4,8.6 16.5,8.5 16.5,8.3 L16.7,4.3 C16.7,4.2 16.6,4 16.5,4 L15.4,4 Z M20.2,4 C20.1,4 20,4.1 20,4.3 L20.1,8.3 C20.1,8.4 20.2,8.5 20.3,8.6 L21.6,8.6 C21.7,8.6 21.8,8.5 21.8,8.4 L21.8,8.4 L21.5,4.4 C21.5,4.3 21.4,4.2 21.3,4.1 L20.2,4 L20.2,4 Z M25.4,4 C25.3,4 25.2,4.1 25.2,4.3 L25.7,8.3 C25.7,8.4 25.8,8.5 26,8.6 L27.2,8.6 C27.3,8.6 27.4,8.5 27.4,8.4 L27.4,8.4 L26.7,4.4 C26.7,4.3 26.6,4.2 26.5,4.1 L25.4,4 L25.4,4 Z M6.5,25.7 C6,25.7 5.7,25.3 5.7,24.9 L5.7,24.9 L5.7,24.1 C5.7,23.6 6.1,23.3 6.5,23.2 L9.8,23.2 C10.3,23.2 10.6,23.6 10.6,24.1 L10.6,24.9 C10.6,25.4 10.2,25.7 9.8,25.7 L6.5,25.7 Z M6.5,30.6 C6,30.6 5.7,30.2 5.7,29.8 L5.7,29.8 L5.7,29 C5.7,28.5 6.1,28.2 6.5,28.1 L9.8,28.1 C10.3,28.1 10.6,28.5 10.6,29 L10.6,29.8 C10.6,30.3 10.2,30.6 9.8,30.6 L6.5,30.6 Z M14.4,25.7 C13.7,25.7 13.2,25.1 13.2,24.5 L13.2,24.5 L13.2,24.5 C13.2,23.8 13.7,23.3 14.4,23.3 L14.4,23.3 L14.4,23.3 C15.1,23.3 15.6,23.9 15.6,24.5 C15.6,25.1 15,25.7 14.4,25.7 L14.4,25.7 Z M14.4,30.6 C13.7,30.6 13.2,30 13.2,29.4 L13.2,29.4 L13.2,29.4 C13.2,28.7 13.7,28.2 14.4,28.2 L14.4,28.2 L14.4,28.2 C15.1,28.2 15.6,28.8 15.6,29.4 L15.6,29.4 L15.6,29.4 C15.6,30.1 15,30.6 14.4,30.6 L14.4,30.6 Z M19.3,25.7 C18.6,25.7 18.1,25.1 18.1,24.5 L18.1,24.5 C18.1,23.8 18.7,23.3 19.3,23.3 L19.3,23.3 C20,23.3 20.5,23.9 20.5,24.5 C20.6,25.1 20,25.7 19.3,25.7 L19.3,25.7 L19.3,25.7 Z M19.3,30.6 C18.6,30.6 18.1,30 18.1,29.4 L18.1,29.4 L18.1,29.4 C18.1,28.7 18.7,28.2 19.3,28.2 L19.3,28.2 C20,28.2 20.5,28.8 20.5,29.4 C20.6,30.1 20,30.7 19.3,30.6 L19.3,30.6 L19.3,30.6 Z M24.3,25.7 C23.6,25.7 23.1,25.1 23.1,24.5 L23.1,24.5 C23.1,23.8 23.7,23.3 24.3,23.3 L24.3,23.3 C25,23.3 25.5,23.9 25.5,24.5 C25.6,25.1 25,25.7 24.3,25.7 L24.3,25.7 Z M24.3,30.6 C23.6,30.6 23.1,30 23.1,29.4 L23.1,29.4 L23.1,29.4 C23.1,28.7 23.7,28.2 24.3,28.2 L24.3,28.2 C25,28.2 25.5,28.8 25.5,29.4 C25.6,30.1 25,30.7 24.3,30.6 L24.3,30.6 Z M29.3,25.7 C28.6,25.7 28.1,25.1 28.1,24.5 L28.1,24.5 L28.1,24.5 C28.1,23.8 28.6,23.3 29.3,23.3 L29.3,23.3 L29.3,23.3 C30,23.3 30.5,23.9 30.5,24.5 C30.6,25.1 30,25.7 29.3,25.7 L29.3,25.7 L29.3,25.7 Z M29.3,30.6 C28.6,30.6 28.1,30.1 28.1,29.4 L28.1,29.4 L28.1,29.4 C28.1,28.7 28.6,28.2 29.3,28.2 L29.3,28.2 L29.3,28.2 C30,28.2 30.5,28.8 30.5,29.4 C30.6,30.1 30,30.7 29.3,30.6 L29.3,30.6 L29.3,30.6 Z" id="形状" fill="url(#linearGradient-1)" fill-rule="nonzero"></path>
            </g>
        </g>
    </g>
</svg>