<?xml version="1.0" encoding="UTF-8"?>
<svg width="36px" height="33px" viewBox="0 0 36 33" version="1.1" xmlns="http://www.w3.org/2000/svg" xmlns:xlink="http://www.w3.org/1999/xlink">
    <!-- Generator: Sketch 59.1 (86144) - https://sketch.com -->
    <title>交换机</title>
    <desc>Created with Sketch.</desc>
    <defs>
        <linearGradient x1="50.0287053%" y1="99.7949528%" x2="50.0287053%" y2="-0.0950019849%" id="linearGradient-1">
            <stop stop-color="#FFFFFF" offset="0%"></stop>
            <stop stop-color="#FFFFFF" stop-opacity="0.99" offset="37%"></stop>
            <stop stop-color="#FFFFFF" stop-opacity="0.97" offset="51%"></stop>
            <stop stop-color="#FFFFFF" stop-opacity="0.92" offset="60%"></stop>
            <stop stop-color="#FFFFFF" stop-opacity="0.85" offset="68%"></stop>
            <stop stop-color="#FFFFFF" stop-opacity="0.77" offset="75%"></stop>
            <stop stop-color="#FFFFFF" stop-opacity="0.66" offset="80%"></stop>
            <stop stop-color="#FFFFFF" stop-opacity="0.53" offset="86%"></stop>
            <stop stop-color="#FFFFFF" stop-opacity="0.39" offset="91%"></stop>
            <stop stop-color="#FFFFFF" stop-opacity="0.22" offset="95%"></stop>
            <stop stop-color="#FFFFFF" stop-opacity="0.04" offset="99%"></stop>
            <stop stop-color="#FFFFFF" stop-opacity="0" offset="100%"></stop>
        </linearGradient>
    </defs>
    <g id="页面-1" stroke="none" stroke-width="1" fill="none" fill-rule="evenodd">
        <g id="模型icon-库" transform="translate(-1934.000000, -139.000000)">
            <g id="交换机" transform="translate(1934.000000, 137.000000)">
                <rect id="矩形备份-12" opacity="0.446149554" x="0" y="0" width="36" height="36"></rect>
                <path d="M35.6108108,23.0864865 C35.6108108,22.9891892 35.6108108,22.9891892 35.6108108,22.8918919 L32.5945946,4.21081081 C32.4972973,3.52972973 32.2054054,2.84864865 31.7189189,2.36216216 C31.2324324,1.87567568 30.4540541,1.48648649 29.6756757,1.58378378 L6.22702703,1.58378378 C5.44864865,1.58378378 4.67027027,1.87567568 4.18378378,2.45945946 L4.18378378,2.45945946 C3.6972973,2.94594595 3.40540541,3.72432432 3.30810811,4.40540541 L0.291891892,22.8918919 C0.291891892,22.9891892 0.291891892,23.0864865 0.291891892,23.2810811 L0.291891892,31.1621622 C0.389189189,32.6216216 1.36216216,33.7891892 2.72432432,34.1783784 L2.72432432,34.1783784 L3.01621622,34.1783784 L3.21081081,34.1783784 L32.3027027,34.1783784 C34.1513514,34.1783784 35.6108108,32.7189189 35.6108108,30.8702703 L35.6108108,23.0864865 L35.6108108,23.0864865 Z M7.68648649,31.9405405 C7.68648649,32.427027 7.2972973,32.7189189 6.90810811,32.7189189 C6.42162162,32.7189189 6.12972973,32.3297297 6.12972973,31.9405405 L6.12972973,31.9405405 L6.12972973,27.5621622 C6.12972973,27.0756757 6.51891892,26.7837838 6.90810811,26.7837838 C7.39459459,26.7837838 7.68648649,27.172973 7.68648649,27.5621622 L7.68648649,27.5621622 L7.68648649,31.9405405 Z M8.36756757,8.68648649 C8.36756757,8.2972973 8.85405405,8.1027027 8.85405405,8.1027027 L14.5945946,4.98918919 C14.7891892,4.89189189 14.9837838,4.89189189 15.1783784,4.89189189 C15.4702703,4.98918919 15.4702703,5.08648649 15.4702703,5.08648649 L15.4702703,7.51891892 L20.9189189,7.51891892 C25.3945946,7.51891892 25.4918919,11.4108108 25.4918919,11.4108108 C25.4918919,10.1459459 21.1135135,9.75675676 21.1135135,9.75675676 L15.4702703,9.75675676 L15.4702703,12.0918919 C15.4702703,12.0918919 15.4702703,12.2864865 15.1783784,12.3837838 C14.9837838,12.3837838 14.6918919,12.3837838 14.4972973,12.2864865 L8.75675676,9.27027027 C8.56216216,9.07567568 8.46486486,8.88108108 8.36756757,8.68648649 Z M10.7027027,31.9405405 C10.7027027,32.427027 10.3135135,32.7189189 9.92432432,32.7189189 C9.43783784,32.7189189 9.14594595,32.3297297 9.14594595,31.9405405 L9.14594595,31.9405405 L9.14594595,27.5621622 C9.14594595,27.0756757 9.53513514,26.7837838 9.92432432,26.7837838 C10.4108108,26.7837838 10.7027027,27.172973 10.7027027,27.5621622 L10.7027027,27.5621622 L10.7027027,31.9405405 Z M13.7189189,31.9405405 C13.7189189,32.427027 13.3297297,32.7189189 12.9405405,32.7189189 C12.4540541,32.7189189 12.1621622,32.3297297 12.1621622,31.9405405 L12.1621622,31.9405405 L12.1621622,27.5621622 C12.1621622,27.0756757 12.5513514,26.7837838 12.9405405,26.7837838 C13.427027,26.7837838 13.7189189,27.172973 13.7189189,27.5621622 L13.7189189,31.9405405 Z M21.6972973,20.1675676 C21.3081081,20.1675676 21.3081081,19.972973 21.3081081,19.972973 L21.3081081,17.4432432 L15.8594595,17.4432432 C11.3837838,17.4432432 11.2864865,13.5513514 11.2864865,13.5513514 C11.2864865,14.8162162 15.6648649,15.3027027 15.6648649,15.3027027 L21.3081081,15.3027027 L21.3081081,12.9675676 C21.3081081,12.9675676 21.3081081,12.772973 21.6972973,12.772973 C21.8918919,12.6756757 22.0864865,12.6756757 22.2810811,12.772973 L28.0216216,15.7891892 C28.2162162,15.8864865 28.4108108,16.0810811 28.4108108,16.372973 C28.4108108,16.7621622 27.9243243,16.9567568 27.9243243,16.9567568 L22.1837838,20.0702703 C21.9891892,20.0702703 21.7945946,20.1675676 21.6972973,20.1675676 Z M27.9243243,32.5243243 C26.4648649,32.5243243 25.2,31.2594595 25.2,29.8 C25.2,28.3405405 26.4648649,27.0756757 27.9243243,27.0756757 C29.3837838,27.0756757 30.6486486,28.3405405 30.6486486,29.8 C30.6486486,31.2594595 29.3837838,32.5243243 27.9243243,32.5243243 Z" id="形状" fill="url(#linearGradient-1)" fill-rule="nonzero"></path>
            </g>
        </g>
    </g>
</svg>