<?xml version="1.0" encoding="UTF-8"?>
<svg width="32px" height="36px" viewBox="0 0 32 36" version="1.1" xmlns="http://www.w3.org/2000/svg" xmlns:xlink="http://www.w3.org/1999/xlink">
    <!-- Generator: Sketch 60.1 (88133) - https://sketch.com -->
    <title>tenant</title>
    <desc>Created with Sketch.</desc>
    <g id="页面-1" stroke="none" stroke-width="1" fill="none" fill-rule="evenodd">
        <g id="模型icon-库" transform="translate(-3298.000000, -955.000000)">
            <g id="tenant" transform="translate(3296.000000, 955.000000)">
                <rect id="矩形备份-22" opacity="0.446149554" x="0" y="0" width="36" height="36"></rect>
                <circle id="椭圆形" fill="#FFFFFF" fill-rule="nonzero" cx="18.2233333" cy="9.19888889" r="8.99888889"></circle>
                <path d="M17.63,31.0533333 C17.63,26.2077778 21.2888889,22.0544444 26.1344444,21.4611111 C18.4211111,17.11 8.82888889,19.8788889 4.47777778,27.4933333 C3.19222222,29.8666667 2.5,32.5366667 2.5,35.3055556 C2.5,35.7011111 10.9055556,35.8 19.0144444,35.8 C18.0255556,34.4155556 17.63,32.8333333 17.63,31.0533333 Z" id="路径" fill="#FFFFFF" fill-rule="nonzero"></path>
                <path d="M26.9255556,24.7244444 C27.8155556,24.7244444 28.5077778,25.5155556 28.5077778,26.4055556 L28.5077778,27.2955556 L30.7822222,27.2955556 C31.6722222,27.2955556 32.3644444,28.0866667 32.3644444,28.9766667 L32.3644444,35.0088889 L32.76,35.0088889 L32.76,35.0088889 C32.9330556,35.0088889 33.0303993,35.0846007 33.0520312,35.3022721 L33.0566667,35.4044444 L33.0566667,35.4044444 C33.0566667,35.6022222 32.8588889,35.8 32.6611111,35.8 L21.8822222,35.8 C21.7091667,35.8 21.5361111,35.6485764 21.4955512,35.4782248 L21.4866667,35.4044444 C21.4866667,35.2066667 21.6844444,35.0088889 21.8822222,35.0088889 L22.2777778,35.0088889 L22.2777778,26.4055556 C22.2777778,25.4166667 22.97,24.7244444 23.86,24.7244444 L26.9255556,24.7244444 Z M30.4855556,32.3388889 L29.5955556,32.3388889 C29.4197531,32.3388889 29.2439506,32.4951578 29.2070538,32.7382426 L29.2,32.8333333 L29.2,32.8333333 C29.2,33.13 29.3977778,33.3277778 29.5955556,33.3277778 L30.4855556,33.3277778 C30.661358,33.3277778 30.8371605,33.1715089 30.8740573,32.928424 L30.8811111,32.8333333 L30.8811111,32.8333333 C30.8811111,32.5366667 30.6833333,32.3388889 30.4855556,32.3388889 Z M26.53,32.24 L24.2555556,32.24 C24.0797531,32.24 23.9039506,32.3962689 23.8670538,32.6393538 L23.86,32.7344444 L23.86,32.7344444 C23.86,33.0311111 24.0577778,33.2288889 24.2555556,33.2288889 L26.53,33.2288889 C26.7058025,33.2288889 26.8816049,33.07262 26.9185018,32.8295351 L26.9255556,32.7344444 L26.9255556,32.7344444 C26.9255556,32.4377778 26.7277778,32.24 26.53,32.24 Z M30.4855556,29.7677778 L29.5955556,29.7677778 C29.4197531,29.7677778 29.2439506,29.9240466 29.2070538,30.1671315 L29.2,30.2622222 L29.2,30.2622222 C29.2,30.5588889 29.3977778,30.7566667 29.5955556,30.7566667 L30.4855556,30.7566667 C30.661358,30.7566667 30.8371605,30.6003978 30.8740573,30.3573129 L30.8811111,30.2622222 L30.8811111,30.2622222 C30.8811111,29.9655556 30.6833333,29.7677778 30.4855556,29.7677778 Z M26.53,29.6688889 L24.2555556,29.6688889 C24.0797531,29.6688889 23.9039506,29.8251578 23.8670538,30.0682426 L23.86,30.1633333 L23.86,30.1633333 C23.86,30.46 24.0577778,30.6577778 24.2555556,30.6577778 L26.53,30.6577778 C26.7058025,30.6577778 26.8816049,30.5015089 26.9185018,30.258424 L26.9255556,30.1633333 L26.9255556,30.1633333 C26.9255556,29.8666667 26.7277778,29.6688889 26.53,29.6688889 Z M26.53,27.0977778 L24.2555556,27.0977778 C24.0797531,27.0977778 23.9039506,27.2540466 23.8670538,27.4971315 L23.86,27.5922222 L23.86,27.5922222 C23.86,27.8888889 24.0577778,28.0866667 24.2555556,28.0866667 L26.53,28.0866667 C26.7058025,28.0866667 26.8816049,27.9303978 26.9185018,27.6873129 L26.9255556,27.5922222 L26.9255556,27.5922222 C26.9255556,27.2955556 26.7277778,27.0977778 26.53,27.0977778 Z" id="形状结合" fill="#FFFFFF" fill-rule="nonzero"></path>
            </g>
        </g>
    </g>
</svg>