<?xml version="1.0" encoding="UTF-8"?>
<svg width="36px" height="25px" viewBox="0 0 36 25" version="1.1" xmlns="http://www.w3.org/2000/svg" xmlns:xlink="http://www.w3.org/1999/xlink">
    <!-- Generator: Sketch 60.1 (88133) - https://sketch.com -->
    <title>tomcat</title>
    <desc>Created with Sketch.</desc>
    <g id="页面-1" stroke="none" stroke-width="1" fill="none" fill-rule="evenodd">
        <g id="模型icon-库" transform="translate(-1252.000000, -961.000000)">
            <g id="tomcat" transform="translate(1252.000000, 955.000000)">
                <g id="编组">
                    <rect id="矩形备份-7" opacity="0.446149554" x="0" y="2.84217094e-14" width="36" height="36"></rect>
                    <path d="M18.0053846,10.7238462 C18.0738462,12.0246154 18.2107692,13.2569231 18.5530769,14.4892308 C18.5530769,14.4892308 21.2915385,20.9930769 26.4946154,22.7046154 C28.0692308,21.6092308 29.37,20.24 30.3284615,18.5969231 L30.6023077,18.1861538 C30.7392308,17.9807692 30.8076923,17.7753846 30.9446154,17.57 L31.15,17.1592308 C32.1084615,15.0369231 32.5876923,12.7776923 32.5192308,10.5184615 L32.5192308,10.5184615 C32.5192308,9.83384615 32.3138462,6.95846154 31.9030769,6.20538462 C30.8761538,6.61615385 28.9592308,7.91692308 28.5484615,9.21769231 C26.4261538,8.94384615 24.2353846,8.94384615 22.1130769,9.28615385 C21.7707692,7.84846154 20.0592308,6.75307692 18.7584615,6.20538462 C18.2107692,7.09538462 17.9369231,9.21769231 18.0053846,10.7238462 L18.0053846,10.7238462 Z" id="路径" fill="#FFFFFF" fill-rule="nonzero"></path>
                    <path d="M34.5730769,29.2084615 C33.7515385,28.4553846 32.6561538,28.1130769 31.5607692,28.1815385 C31.0815385,27.5653846 28.8223077,25.1692308 27.4530769,23.7315385 L26.7684615,24.2107692 L26.1523077,24.0053846 C20.4015385,22.1569231 17.5261538,15.3107692 17.3892308,15.0369231 L17.3892308,14.9684615 L17.3892308,14.9 C13.35,16.2007692 9.65307692,18.46 6.64076923,21.4038462 L6.23,21.8146154 C6.02461538,22.02 5.81923077,22.2253846 5.68230769,22.4307692 C2.73846154,25.6484615 0.616153846,29.14 0.616153846,29.7561538 L0.616153846,30.03 L4.45,30.03 L4.38153846,29.6876923 C4.24461538,28.3869231 4.58692308,27.0861538 5.47692308,26.0592308 C6.23,25.1692308 7.25692308,24.5530769 8.42076923,24.2792308 C9.58461538,23.8684615 12.7338462,24.2107692 12.7338462,24.2107692 C18.8953846,24.7584615 24.8515385,27.2230769 31.4923077,30.7146154 L35.1892308,30.7146154 L35.2576923,30.4407692 C35.1207692,29.9615385 34.9153846,29.5507692 34.5730769,29.2084615 Z" id="路径" fill="#FFFFFF" fill-rule="nonzero"></path>
                    <path d="M15.4038462,26.9492308 C14.8561538,26.6753846 14.1715385,26.6069231 13.6238462,26.8123077 C13.2130769,26.3330769 12.9392308,25.7853846 12.8023077,25.2376923 L12.5969231,25.2376923 C11.5015385,25.1007692 10.4061538,25.1007692 9.24230769,25.1692308 C10.4061538,26.1961538 11.7069231,27.2230769 13.0076923,28.1130769 L15.8830769,28.1130769 L15.8830769,27.7707692 C15.8830769,27.4284615 15.6776923,27.1546154 15.4038462,26.9492308 Z" id="路径" fill="#FFFFFF" fill-rule="nonzero"></path>
                    <path d="M5.40846154,20.7876923 L5.68230769,20.5138462 C5.75076923,20.4453846 5.75076923,20.3769231 5.81923077,20.3769231 C5.20307692,19.4184615 4.79230769,18.3230769 4.58692308,17.2276923 C4.38153846,15.9269231 4.72384615,14.6946154 5.54538462,13.6676923 C6.77769231,12.0930769 8.55769231,12.0246154 10.4061538,12.2984615 C10.3376923,12.5723077 10.4061538,12.7776923 10.5430769,13.0515385 C11.0223077,13.7361538 13.6238462,14.01 15.1984615,13.3253846 C14.0346154,11.7507692 11.7753846,10.9292308 11.0907692,11.2715385 C10.8853846,11.4084615 10.68,11.5453846 10.6115385,11.7507692 C10.0638462,11.6138462 9.44769231,11.5453846 8.9,11.5453846 C7.46230769,11.4769231 6.02461538,12.1615385 5.13461538,13.2569231 C4.24461538,14.4207692 3.83384615,15.8584615 4.10769231,17.2961538 C4.17615385,18.5284615 4.65538462,19.6923077 5.40846154,20.7876923 Z" id="路径" fill="#FFFFFF" fill-rule="nonzero"></path>
                </g>
            </g>
        </g>
    </g>
</svg>