<?xml version="1.0" encoding="UTF-8"?>
<svg width="36px" height="34px" viewBox="0 0 36 34" version="1.1" xmlns="http://www.w3.org/2000/svg" xmlns:xlink="http://www.w3.org/1999/xlink">
    <!-- Generator: Sketch 59.1 (86144) - https://sketch.com -->
    <title>用户组</title>
    <desc>Created with Sketch.</desc>
    <defs>
        <linearGradient x1="113.559453%" y1="50.2647483%" x2="51.4055666%" y2="50.2647483%" id="linearGradient-1">
            <stop stop-color="#FFFFFF" offset="0%"></stop>
            <stop stop-color="#FFFFFF" stop-opacity="0" offset="100%"></stop>
        </linearGradient>
        <radialGradient cx="43.0177003%" cy="46.6898242%" fx="43.0177003%" fy="46.6898242%" r="86.9178989%" gradientTransform="translate(0.430177,0.466898),scale(0.996914,1.000000),rotate(180.000000),translate(-0.430177,-0.466898)" id="radialGradient-2">
            <stop stop-color="#FFFFFF" stop-opacity="0" offset="0%"></stop>
            <stop stop-color="#FFFFFF" offset="100%"></stop>
        </radialGradient>
    </defs>
    <g id="页面-1" stroke="none" stroke-width="1" fill="none" fill-rule="evenodd">
        <g id="模型图标库" transform="translate(-570.000000, -319.000000)">
            <g id="用户组" transform="translate(570.000000, 318.000000)">
                <rect id="矩形" x="0" y="0" width="36" height="36"></rect>
                <g id="编组-28" transform="translate(0.000000, 1.000000)" fill-rule="nonzero">
                    <g id="编组-2" transform="translate(0.000000, 0.011969)">
                        <path d="M9.66315789,29.6555556 L9.66315789,25.8777778 C9.66315789,22.2888889 12.6,19.3611111 16.2947368,19.2666667 L28.8,19.2666667 C32.4,19.2666667 35.3368421,22.1944444 35.4315789,25.8777778 L35.4315789,29.6555556 C35.4315789,30.5055556 34.7684211,31.2611111 33.8210526,31.2611111 L33.8210526,31.2611111 L11.2736842,31.2611111 C10.4210526,31.2611111 9.66315789,30.5055556 9.66315789,29.6555556 L9.66315789,29.6555556 Z" id="路径" fill="url(#linearGradient-1)"></path>
                        <ellipse id="椭圆形" fill="url(#radialGradient-2)" cx="22.5473684" cy="9.16111111" rx="6.72631579" ry="6.70555556"></ellipse>
                        <path d="M22.4526316,19.3611111 C26.7157895,19.3611111 30.2210526,22.8555556 30.2210526,27.1055556 L30.2210526,27.1055556 L30.2210526,31.5444444 C30.2210526,32.5833333 29.3684211,33.3388889 28.3263158,33.4333333 L28.3263158,33.4333333 L1.89473684,33.4333333 C0.852631579,33.4333333 1.10134124e-13,32.5833333 1.10134124e-13,31.5444444 L1.10134124e-13,31.5444444 L1.10134124e-13,27.1055556 C1.10134124e-13,22.8555556 3.50526316,19.3611111 7.76842105,19.3611111 L7.76842105,19.3611111 Z M24.8210526,24.7916667 L20.1789474,24.7916667 C19.7865345,24.7916667 19.4684211,25.1087983 19.4684211,25.5 C19.4684211,25.8912017 19.7865345,26.2083333 20.1789474,26.2083333 L24.8210526,26.2083333 C25.2134655,26.2083333 25.5315789,25.8912017 25.5315789,25.5 C25.5315789,25.1087983 25.2134655,24.7916667 24.8210526,24.7916667 Z" id="形状结合" fill="#FFFFFF"></path>
                        <ellipse id="椭圆形" fill="#FFFFFF" cx="15.0631579" cy="7.93333333" rx="7.95789474" ry="7.93333333"></ellipse>
                    </g>
                </g>
            </g>
        </g>
    </g>
</svg>