<?xml version="1.0" encoding="UTF-8"?>
<svg width="33px" height="36px" viewBox="0 0 33 36" version="1.1" xmlns="http://www.w3.org/2000/svg" xmlns:xlink="http://www.w3.org/1999/xlink">
    <!-- Generator: Sketch 60.1 (88133) - https://sketch.com -->
    <title>user</title>
    <desc>Created with Sketch.</desc>
    <g id="页面-1" stroke="none" stroke-width="1" fill="none" fill-rule="evenodd">
        <g id="模型图标库" transform="translate(-242.000000, -1186.000000)">
            <g id="user" transform="translate(240.000000, 1186.000000)">
                <rect id="矩形" x="0" y="0" width="36" height="36"></rect>
                <path d="M26,21 C30.5,21 34.2,24.7 34.2,29.2 L34.2,29.2 L34.2,33.9 C34.2,35 33.3,35.8 32.2,35.9 L32.2,35.9 L4.3,35.9 C3.2,35.9 2.3,35 2.3,33.9 L2.3,33.9 L2.3,29.2 C2.3,24.7 6,21 10.5,21 L10.5,21 Z M28.5,26.75 L23.6,26.75 C23.1857864,26.75 22.85,27.0857864 22.85,27.5 C22.85,27.9142136 23.1857864,28.25 23.6,28.25 L28.5,28.25 C28.9142136,28.25 29.25,27.9142136 29.25,27.5 C29.25,27.0857864 28.9142136,26.75 28.5,26.75 Z" id="形状结合" fill="#FFFFFF" fill-rule="nonzero"></path>
                <circle id="椭圆形" fill="#FFFFFF" fill-rule="nonzero" cx="18.2" cy="8.9" r="8.4"></circle>
            </g>
        </g>
    </g>
</svg>