<?xml version="1.0" encoding="UTF-8"?>
<svg width="35px" height="33px" viewBox="0 0 35 33" version="1.1" xmlns="http://www.w3.org/2000/svg" xmlns:xlink="http://www.w3.org/1999/xlink">
    <!-- Generator: Sketch 60.1 (88133) - https://sketch.com -->
    <title>user-group</title>
    <desc>Created with Sketch.</desc>
    <g id="页面-1" stroke="none" stroke-width="1" fill="none" fill-rule="evenodd">
        <g id="模型图标库" transform="translate(-539.000000, -1188.000000)">
            <g id="user-group" transform="translate(539.000000, 1186.000000)">
                <g id="用户组备份">
                    <rect id="矩形" x="0" y="0" width="36" height="36"></rect>
                </g>
                <g id="编组-57备份" transform="translate(0.000000, 2.000000)" fill="#FFFFFF" fill-rule="nonzero">
                    <g id="编组-56">
                        <g id="编组-2">
                            <path d="M26.5692839,17.9993645 L28.1368421,18 C31.7368421,18 34.6736842,20.8552632 34.7684211,24.4473684 L34.7684211,28.1315789 C34.7684211,28.9144737 34.1769006,29.6152128 33.3130929,29.6906564 L33.1578947,29.6973684 L32.021,29.6968145 L32.0210526,26.4342105 C32.0210526,22.726636 29.7812007,19.5103811 26.5692839,17.9993645 Z" id="形状结合"></path>
                            <path d="M24.3,1.8 C27.7793939,1.8 30.6,4.62060608 30.6,8.1 C30.6,11.5793939 27.7793939,14.4 24.3,14.4 C23.6162715,14.4 22.9579823,14.2910813 22.3415368,14.0896481 C23.8829631,12.40411 24.8210526,10.1797409 24.8210526,7.73684211 C24.8210526,5.56784627 24.0815312,3.5711233 22.8371193,1.97131777 C23.3058016,1.85918549 23.795989,1.8 24.3,1.8 Z" id="形状结合"></path>
                            <path d="M22.4526316,18.8815789 C26.7157895,18.8815789 30.2210526,22.2894737 30.2210526,26.4342105 L30.2210526,26.4342105 L30.2210526,30.7631579 C30.2210526,31.7763158 29.3684211,32.5131579 28.3263158,32.6052632 L28.3263158,32.6052632 L1.89473684,32.6052632 C0.852631579,32.6052632 -2.84217094e-13,31.7763158 -2.84217094e-13,30.7631579 L-2.84217094e-13,30.7631579 L-2.84217094e-13,26.4342105 C-2.84217094e-13,22.2894737 3.50526316,18.8815789 7.76842105,18.8815789 L7.76842105,18.8815789 Z M24.8210526,23.5184211 L20.1789474,23.5184211 L19.9957604,23.530745 C19.3368244,23.6201373 18.8289474,24.1849687 18.8289474,24.8684211 C18.8289474,25.6140055 19.433363,26.2184211 20.1789474,26.2184211 L20.1789474,26.2184211 L24.8210526,26.2184211 L25.0042396,26.2060971 C25.6631756,26.1167048 26.1710526,25.5518734 26.1710526,24.8684211 C26.1710526,24.1228366 25.566637,23.5184211 24.8210526,23.5184211 L24.8210526,23.5184211 Z" id="形状结合"></path>
                            <ellipse id="椭圆形" cx="15.0631579" cy="7.73684211" rx="7.95789474" ry="7.73684211"></ellipse>
                        </g>
                    </g>
                </g>
            </g>
        </g>
    </g>
</svg>