<?xml version="1.0" encoding="UTF-8"?>
<svg width="36px" height="25px" viewBox="0 0 36 25" version="1.1" xmlns="http://www.w3.org/2000/svg" xmlns:xlink="http://www.w3.org/1999/xlink">
    <!-- Generator: Sketch 60.1 (88133) - https://sketch.com -->
    <title>vpc</title>
    <desc>Created with Sketch.</desc>
    <g id="页面-1" stroke="none" stroke-width="1" fill="none" fill-rule="evenodd">
        <g id="低优先级" transform="translate(-406.000000, -1171.000000)">
            <g id="vpc" transform="translate(406.000000, 1165.000000)">
                <polygon id="矩形备份-17" points="0 0 36 0 36 36 24.484679 36 0 36"></polygon>
                <g id="编组" transform="translate(0.000000, 6.000000)" fill="#FFFFFF" fill-rule="nonzero">
                    <path d="M19.2160535,7.99360578e-14 C23.8467344,7.99360578e-14 27.6429299,3.47702261 28.1484186,7.96347519 L28.173913,8.22341137 L28.1859532,8.22341137 C32.5204013,8.34381271 36,11.8956522 36,16.2662207 C36,20.5527399 32.6529452,24.0401353 28.4464092,24.308986 L28.1979933,24.3210702 L28.173913,24.3210702 L7.13979933,24.3331104 L7.07959866,24.3331104 C3.2346188,24.2977271 0.129076653,21.2352707 0.00392123831,17.4206439 L0,17.1812709 L0,17.1571906 C0.0240802676,13.2200669 3.21471572,10.0414716 7.15183946,10.0414716 C8.03906277,10.0414716 8.69483387,10.1776199 9.22664503,10.3373057 C9.16546321,10.4513487 9.13322142,10.5823977 9.13952283,10.7207102 L9.15162579,10.8256542 L10.7070229,19.2265029 C10.2824788,19.4914165 10,19.96272 10,20.5 C10,21.3284271 10.6715729,22 11.5,22 C12.3284271,22 13,21.3284271 13,20.5 C13,20.3355793 12.9735456,20.1773374 12.9246611,20.0292985 L19.0292985,13.9246611 C19.1773374,13.9735456 19.3355793,14 19.5,14 C20.3284271,14 21,13.3284271 21,12.5 C21,11.6715729 20.3284271,11 19.5,11 C19.0562667,11 18.6575354,11.1926764 18.3829054,11.4989299 L10.1511653,9.97544279 C10.1814232,9.59160632 10.2152567,9.17121778 10.2220736,8.99397993 C10.4147157,4.03344482 14.2434783,7.99360578e-14 19.2160535,7.99360578e-14 Z M10.8251916,11.6251916 L17.8965251,12.9346978 L12.1346978,18.6965251 L10.8251916,11.6251916 Z" id="形状结合"></path>
                </g>
            </g>
        </g>
    </g>
</svg>