<?xml version="1.0" encoding="UTF-8"?>
<svg width="36px" height="21px" viewBox="0 0 36 21" version="1.1" xmlns="http://www.w3.org/2000/svg" xmlns:xlink="http://www.w3.org/1999/xlink">
    <!-- Generator: Sketch 60.1 (88133) - https://sketch.com -->
    <title>vpn</title>
    <desc>Created with Sketch.</desc>
    <g id="页面-1" stroke="none" stroke-width="1" fill="none" fill-rule="evenodd">
        <g id="模型icon-库" transform="translate(-4784.000000, -955.000000)">
            <g id="vpn" transform="translate(4784.000000, 947.000000)">
                <rect id="矩形备份-22" opacity="0.446149554" x="0" y="0" width="36" height="36"></rect>
                <path d="M0.688648649,8.28864865 L4.44108108,8.28864865 C4.44108108,8.28864865 6.07675676,18.9686486 6.55783784,21.2778378 C7.03891892,19.2572973 8.67459459,8.28864865 8.67459459,8.28864865 L12.2345946,8.28864865 L8.28972973,28.1091892 L4.63351351,28.1091892 L0.688648649,8.28864865 Z" id="路径" fill="#FFFFFF" fill-rule="nonzero"></path>
                <path d="M17.9113514,8.28864865 L13.1005405,8.28864865 L13.1005405,28.1091892 L16.5643243,28.1091892 L16.5643243,21.4702703 L18.1037838,21.4702703 C20.8940541,21.4702703 23.2032432,19.4497297 23.2032432,14.6389189 C23.107027,9.73189189 20.7978378,8.28864865 17.9113514,8.28864865 Z M18.2962162,18.1989189 L16.6605405,18.1989189 L16.6605405,11.3675676 L18.1037838,11.3675676 C19.4508108,11.3675676 19.9318919,12.6183784 19.9318919,14.6389189 C20.0281081,16.7556757 19.6432432,18.1989189 18.2962162,18.1989189 Z" id="形状" fill="#FFFFFF" fill-rule="nonzero"></path>
                <polygon id="路径" fill="#FFFFFF" fill-rule="nonzero" points="23.8767568 8.28864865 28.3027027 8.28864865 32.0551351 21.7589189 32.0551351 8.28864865 35.3264865 8.28864865 35.3264865 28.1091892 30.4194595 28.1091892 27.1481081 15.7935135 27.1481081 28.1091892 23.8767568 28.1091892"></polygon>
            </g>
        </g>
    </g>
</svg>