<?xml version="1.0" encoding="UTF-8"?>
<svg width="36px" height="20px" viewBox="0 0 36 20" version="1.1" xmlns="http://www.w3.org/2000/svg" xmlns:xlink="http://www.w3.org/1999/xlink">
    <!-- Generator: Sketch 60.1 (88133) - https://sketch.com -->
    <title>zookeeper</title>
    <desc>Created with Sketch.</desc>
    <g id="页面-1" stroke="none" stroke-width="1" fill="none" fill-rule="evenodd">
        <g id="模型icon-库" transform="translate(-2859.000000, -963.000000)">
            <g id="zookeeper" transform="translate(2859.000000, 954.000000)">
                <rect id="矩形" x="0" y="0" width="36" height="36"></rect>
                <path d="M19.5462766,21.6498555 C23.7590426,22.722196 27.1292553,24.1775151 29.5037234,26.015813 C31.5718085,27.6243236 31.9547872,28.4668768 30.6526596,28.4668768 C29.3505319,28.4668768 28.0484043,27.8541108 24.7547872,26.4753874 C21.4611702,25.096664 18.5252596,24.2541108 14.3890894,23.6413449 C10.2529192,23.0285789 7.9037234,22.5690045 7.52074468,22.5690045 C11.2739362,20.9604938 15.5632979,20.6541108 19.5462766,21.6498555 Z M17.028,17.52 L16.712234,17.5136853 C17.4781915,17.5136853 18.2441489,17.5902811 19.0101064,17.6668768 C18.9335106,18.0498555 18.9335106,18.4328343 19.0101064,18.815813 C19.0867021,19.122196 19.2176531,19.557231 19.5066559,19.8672769 C19.7956586,20.1773228 20.1632988,20.4922913 20.8142271,20.7116172 C21.4651555,20.9309431 22.087121,20.9734529 22.6101064,20.8838981 C23.1330917,20.7943432 23.7012635,20.5009194 23.9310508,20.1179406 C24.1280113,19.8553267 24.2548728,19.4801638 24.2870993,19.1371578 L24.2952128,18.9690045 L24.9845745,19.2753874 C24.831383,19.8115577 24.89464,20.4741535 25.1244273,21.0103237 C25.3542145,21.5464939 25.6212566,21.8908046 26.0569149,22.2695011 C26.4925732,22.6481977 27.0526596,22.8753874 27.6654255,22.8753874 C28.0484043,22.8753874 28.3547872,22.7987917 28.6611702,22.5690045 C28.8909574,22.3392172 29.1207447,22.10943 29.1973404,21.803047 C29.8817463,22.3175645 30.4468527,22.7691195 31.0167811,23.3052897 C31.3967334,23.6627365 31.6072808,23.9279464 31.6484233,24.1009194 C31.5718085,24.4073023 31.3930572,24.6309751 31.2398657,24.8607624 C31.0675253,25.0905496 30.9095623,25.2806911 30.7444105,25.4583416 L30.5760638,25.6328343 L30.1930851,25.3264513 C28.125,23.7945364 25.8271277,22.6456002 23.3760638,21.803047 C21.2940185,21.0715176 19.1292928,20.546689 16.9122575,20.3196736 L18.6642862,18.5966938 L16.1390593,18.2710416 L17.028,17.52 Z M17.1128989,9.00029879 L17.7079787,9.01155766 C20.7718085,9.01155766 23.8356383,9.54772787 26.6696809,10.696664 C29.3505319,11.7690045 31.725,13.3775151 33.7930851,15.3690045 C35.4781915,17.2073023 36.0909574,19.0456002 35.7845745,20.8073023 C35.5547872,21.6498555 35.0952128,22.4924087 34.4058511,23.1817704 C33.7930851,23.7945364 33.1803191,24.3307066 32.4143617,24.7136853 C32.4909574,24.6370896 32.5304704,24.5422079 32.5675532,24.4073023 C32.6046359,24.2723968 32.6622667,24.0563328 32.6046359,23.7945364 C32.5470052,23.53274 32.4774878,23.4296333 31.8808966,22.7675865 C31.3695326,22.2001179 30.7198655,21.6154392 30.0623302,21.1223226 L29.7335106,20.8838981 L29.4271277,20.6541108 C29.3505319,20.1945364 29.2294956,19.7772476 29.0825334,19.4285789 C28.9355713,19.0799103 28.7439697,18.815813 28.4268791,18.4940945 C28.1097885,18.172376 27.5737939,17.8808625 27.1655038,17.8200683 C26.7572136,17.7592741 26.4148022,17.7744133 26.1041309,17.8808625 C25.7934595,17.9873116 25.6739362,18.1264513 25.5207447,18.2796428 C25.3673325,18.2182779 25.2139203,18.156913 25.0555847,18.0955481 C24.8186509,18.0037215 24.5706926,17.9118949 24.2952128,17.8200683 C24.218617,17.6668768 24.057431,17.3592078 23.9310508,17.1717389 C23.8046706,16.9842701 23.3023783,16.3647491 22.6101064,16.1349619 C21.9178345,15.9051747 21.2738016,15.9051747 20.8142271,16.0583662 C20.3546527,16.2115577 20.0058511,16.4413449 19.6228723,16.7477279 C19.1483544,16.6290984 18.6738365,16.5564015 18.1993185,16.5296371 L20.1519294,14.8824492 L13.6413277,14.2114095 L11.4676249,16.2599797 L14.6419215,16.5197025 L14.6242265,16.5328553 C11.41836,16.66745 8.24212569,17.4879585 5.29946809,18.8924087 C4.68670213,19.1987917 4.12295745,19.5051747 3.56901702,19.8507747 L3.15478723,20.1179406 L2.54202128,20.5009194 L2.84840426,21.496664 C2.00585106,21.0370896 1.23989362,20.4243236 0.703723404,19.6583662 C0.167553191,18.8924087 -0.0622340426,17.9732598 0.0143617021,17.0541108 C0.397340426,15.215813 1.77606383,13.6838981 4.15053191,12.3817704 C6.21861702,11.2328343 8.36329787,10.3902811 10.5845745,9.7775151 C12.4994681,9.33070659 14.5207447,9.04347255 16.5154255,9.00446546 L17.1128989,9.00029879 Z M13.3185528,17.6364397 L10.4782165,20.0356645 L12.6002586,20.2999125 C10.9201183,20.4869756 9.24993173,20.9230936 7.71094373,21.6082664 L7.29095745,21.803047 L5.68244681,22.5690045 L5.91223404,23.4115577 C5.52925532,23.4881534 5.1462766,23.6413449 4.76329787,23.7945364 C4.53351064,23.8711321 4.45691489,23.8711321 4.45691489,23.8711321 C4.39308511,23.4243236 4.32925532,22.9243236 4.17677305,22.4597846 L4.07393617,22.1860257 L3.69095745,20.8838981 C5.1462766,19.9647491 6.75478723,19.1987917 8.43989362,18.6626215 C10.0243094,18.153345 11.6505291,17.8112844 13.3185528,17.6364397 Z M27.0331149,18.8636853 C27.8791681,18.8636853 28.5038799,19.726732 28.5038799,20.5727853 C28.5038799,21.4188385 28.1056827,21.959342 27.3901242,21.959342 C26.6745657,21.959342 25.8271277,21.1937811 25.8271277,20.3477279 C25.8271277,19.5016746 26.1870616,18.8636853 27.0331149,18.8636853 Z M21.635039,17.0139313 C22.4810922,17.0139313 23.225929,17.6935602 23.225929,18.6468217 C23.225929,19.6000832 22.6031497,20.2691101 21.5980988,20.1179406 C20.593048,19.9667712 20.0441489,19.3928664 20.0441489,18.4532759 C20.0441489,17.5136853 20.7889857,17.0139313 21.635039,17.0139313 Z" id="形状结合" fill="#FFFFFF" fill-rule="nonzero"></path>
                <polygon id="路径备份-5" fill="#FFFFFF" fill-rule="nonzero" points="13.1132086 15.7119067 16.3512733 16.0186379 12.2712665 19.4639226 16.1390593 19.8672769 16.9604073 19.1247019 14.3460093 18.8427836 18.4425776 15.3835138 14.0179778 14.8824492"></polygon>
            </g>
        </g>
    </g>
</svg>