<?xml version="1.0" encoding="UTF-8"?>
<svg width="15px" height="14px" viewBox="0 0 15 14" version="1.1" xmlns="http://www.w3.org/2000/svg" xmlns:xlink="http://www.w3.org/1999/xlink">
    <!-- Generator: Sketch 59.1 (86144) - https://sketch.com -->
    <title>B8DF9445-F611-401B-81D5-0200E0910943</title>
    <desc>Created with Sketch.</desc>
    <g id="迭代二" stroke="none" stroke-width="1" fill="none" fill-rule="evenodd">
        <g id="Easyops-5.0-IDC首页备份" transform="translate(-43.000000, -221.000000)">
            <g id="通用设备" transform="translate(43.000000, 222.000000)">
                <line x1="10.8252" y1="9.95" x2="12.8372" y2="9.95" id="Stroke-1" stroke="#FFFFFF" stroke-linecap="round"></line>
                <g id="编组" transform="translate(0.000000, 0.025000)">
                    <path d="M0.5,8.3498 L2.631,0.8048 C2.747,0.6178 2.975,0.4748 3.145,0.4748 L11.855,0.4748 C12.025,0.4748 12.253,0.6178 12.369,0.8048 L14.5,8.3498" id="Stroke-2" stroke="#FFFFFF" stroke-linecap="round"></path>
                    <path d="M0.5,8.3498 L0.5,10.7098 C0.5,11.1448 0.855,11.4998 1.29,11.4998 L13.714,11.4998 C14.146,11.4998 14.5,11.1458 14.5,10.7138 L14.5,8.3498 L0.5,8.3498 Z" id="Stroke-4" stroke="#FFFFFF" stroke-linecap="round" stroke-linejoin="round"></path>
                    <path d="M3.2314,9.9191 C3.2344,10.1951 3.0134,10.4211 2.7374,10.4251 C2.4614,10.4281 2.2344,10.2071 2.2314,9.9311 C2.2284,9.6551 2.4494,9.4281 2.7254,9.4251 C3.0014,9.4211 3.2284,9.6431 3.2314,9.9191" id="Fill-6" fill="#FFFFFF"></path>
                    <path d="M4.8062,9.9191 C4.8092,10.1951 4.5882,10.4211 4.3122,10.4251 C4.0362,10.4281 3.8092,10.2071 3.8062,9.9311 C3.8032,9.6551 4.0242,9.4281 4.3002,9.4251 C4.5762,9.4211 4.8032,9.6431 4.8062,9.9191" id="Fill-8" fill="#FFFFFF"></path>
                </g>
            </g>
        </g>
    </g>
</svg>