<?xml version="1.0" encoding="UTF-8"?>
<svg width="13px" height="16px" viewBox="0 0 13 16" version="1.1" xmlns="http://www.w3.org/2000/svg" xmlns:xlink="http://www.w3.org/1999/xlink">
    <!-- Generator: Sketch 58 (84663) - https://sketch.com -->
    <title>F8C1ABCA-3B6E-4A1E-9DE6-752E74B6A51A</title>
    <desc>Created with Sketch.</desc>
    <g id="页面-1" stroke="none" stroke-width="1" fill="none" fill-rule="evenodd">
        <g id="Easyops-5.0-IDC首页" transform="translate(-45.000000, -179.000000)">
            <g id="防火墙管理" transform="translate(44.000000, 179.000000)">
                <g id="icon/防火墙管理">
                    <g transform="translate(2.000000, 1.000000)">
                        <path d="M11.1725714,2.07614286 C10.9732857,1.81042857 10.699,1.62042857 10.3811429,1.52614286 L6.63542857,0.426857143 C6.154,0.286142857 5.64471429,0.286142857 5.16114286,0.426857143 L1.41614286,1.52614286 C1.09685714,1.62042857 0.822571429,1.81042857 0.624714286,2.07614286 C0.426857143,2.34257143 0.321857143,2.65828571 0.321857143,2.99042857 L0.321857143,9.03614286 C0.321857143,9.36328571 0.423285714,9.67614286 0.618285714,9.94042857 C1.03185714,10.5018571 1.86685714,11.5875714 2.81328571,12.554 C4.074,13.8382857 5.08257143,14.4625714 5.89971429,14.4625714 C6.71685714,14.4625714 7.72542857,13.8382857 8.98471429,12.554 C9.934,11.5875714 10.7675714,10.5032857 11.1804286,9.94042857 C11.3754286,9.67614286 11.4775714,9.36328571 11.4775714,9.03614286 L11.4775714,2.99042857 C11.4775714,2.65828571 11.3718571,2.34257143 11.1725714,2.07614286 Z" id="Stroke-1" stroke="#FFFFFF" stroke-width="0.9"></path>
                        <path d="M2.31271429,2.69978571 C2.057,2.77478571 1.83771429,2.92692857 1.67985714,3.13907143 C1.52128571,3.35192857 1.437,3.6055 1.437,3.87121429 L1.437,7.23121429 L5.882,7.23121429 L5.882,1.65192857 L2.31271429,2.69978571 Z" id="Fill-3" fill="#FFFFFF"></path>
                        <path d="M5.88171429,7.23135714 L5.88171429,13.0427857 C5.89314286,13.0463571 5.89957143,13.0492143 5.89957143,13.0492143 C5.89957143,13.0492143 7.36028571,12.5492143 8.36814286,11.5220714 C9.12671429,10.7485 9.79385714,9.88064286 10.1245714,9.43064286 C10.2802857,9.21921429 10.3617143,8.96921429 10.3617143,8.70707143 L10.3617143,7.23135714 L5.88171429,7.23135714 Z" id="Fill-5" fill="#FFFFFF"></path>
                    </g>
                </g>
            </g>
        </g>
    </g>
</svg>