<?xml version="1.0" encoding="UTF-8"?>
<svg width="14px" height="17px" viewBox="0 0 14 17" version="1.1" xmlns="http://www.w3.org/2000/svg" xmlns:xlink="http://www.w3.org/1999/xlink">
    <!-- Generator: Sketch 59.1 (86144) - https://sketch.com -->
    <title>94F0BB8B-B2F6-45E1-A39C-746710685B75</title>
    <desc>Created with Sketch.</desc>
    <g id="迭代二" stroke="none" stroke-width="1" fill="none" fill-rule="evenodd">
        <g id="Easyops-5.0-IDC首页" transform="translate(-44.000000, -339.000000)">
            <g id="主机管理" transform="translate(45.000000, 339.000000)">
                <path d="M10.9706,16.025 L1.1896,16.025 C0.8106,16.025 0.4996,15.714 0.4996,15.335 L0.4996,1.19 C0.4996,0.81 0.8106,0.5 1.1896,0.5 L10.9706,0.5 C11.3496,0.5 11.6596,0.81 11.6596,1.19 L11.6596,15.335 C11.6596,15.714 11.3496,16.025 10.9706,16.025 Z" id="Stroke-1" stroke="#FFFFFF"></path>
                <line x1="2.8398" y1="3.4249" x2="9.3198" y2="3.4249" id="Stroke-3" stroke="#FFFFFF" stroke-width="0.9" stroke-linecap="round" stroke-linejoin="round"></line>
                <line x1="2.8398" y1="6.3048" x2="9.3198" y2="6.3048" id="Stroke-5" stroke="#FFFFFF" stroke-width="0.9" stroke-linecap="round" stroke-linejoin="round"></line>
                <path d="M6.7997,13.1452 C6.7997,13.5422 6.4777,13.8652 6.0797,13.8652 C5.6827,13.8652 5.3607,13.5422 5.3607,13.1452 C5.3607,12.7472 5.6827,12.4252 6.0797,12.4252 C6.4777,12.4252 6.7997,12.7472 6.7997,13.1452" id="Fill-7" fill="#FFFFFF"></path>
            </g>
        </g>
    </g>
</svg>