<?xml version="1.0" encoding="UTF-8"?>
<svg width="17px" height="14px" viewBox="0 0 17 14" version="1.1" xmlns="http://www.w3.org/2000/svg" xmlns:xlink="http://www.w3.org/1999/xlink">
    <!-- Generator: Sketch 58 (84663) - https://sketch.com -->
    <title>6849E8A3-15E8-4620-9DCF-C41F0D23C271</title>
    <desc>Created with Sketch.</desc>
    <g id="页面-1" stroke="none" stroke-width="1" fill="none" fill-rule="evenodd">
        <g id="Easyops-5.0-IDC首页" transform="translate(-42.000000, -260.000000)">
            <g id="交换机管理" transform="translate(42.000000, 259.000000)">
                <g id="icon/交换机管理" transform="translate(1.000000, 2.000000)">
                    <path d="M0.421221053,8.84210526 L2.69995789,0.773052632 C2.82374737,0.574315789 3.06795789,0.421052632 3.24901053,0.421052632 L12.5635368,0.421052632 C12.7454316,0.421052632 12.9888,0.574315789 13.1125895,0.773052632 L15.3913263,8.84210526" id="Stroke-1" stroke="#FFFFFF" stroke-linecap="round"></path>
                    <path d="M0.421221053,8.84210526 L0.421221053,11.3658947 C0.421221053,11.8298947 0.801010526,12.2105263 1.26585263,12.2105263 L14.5509053,12.2105263 C15.0132211,12.2105263 15.3913263,11.8324211 15.3913263,11.3701053 L15.3913263,8.84210526 L0.421221053,8.84210526 Z" id="Stroke-3" stroke="#FFFFFF" stroke-linecap="round" stroke-linejoin="round"></path>
                    <polyline id="Stroke-5" stroke="#FFFFFF" stroke-linecap="round" points="5.60917895 3.23806316 6.59444211 3.23806316 9.55023158 6.85069474 10.5354947 6.85069474"></polyline>
                    <polygon id="Fill-7" fill="#FFFFFF" points="5.93642105 4.65170526 4.52336842 3.23781053 5.93642105 1.82475789"></polygon>
                    <polyline id="Stroke-9" stroke="#FFFFFF" stroke-linecap="round" points="10.2694737 3.23806316 9.28421053 3.23806316 6.32842105 6.85069474 5.34315789 6.85069474"></polyline>
                    <polygon id="Fill-11" fill="#FFFFFF" points="9.94223158 4.65170526 11.3552842 3.23781053 9.94223158 1.82475789"></polygon>
                </g>
            </g>
        </g>
    </g>
</svg>