<?xml version="1.0" encoding="UTF-8"?>
<svg width="20px" height="20px" viewBox="0 0 20 20" version="1.1" xmlns="http://www.w3.org/2000/svg" xmlns:xlink="http://www.w3.org/1999/xlink">
    <!-- Generator: Sketch 63.1 (92452) - https://sketch.com -->
    <title>敏捷团队管理小产品图标</title>
    <desc>Created with Sketch.</desc>
    <g id="页面-1" stroke="none" stroke-width="1" fill="none" fill-rule="evenodd">
        <g id="Apple-TV备份-25" transform="translate(-725.000000, -596.000000)">
            <g id="敏捷团队管理小产品图标" transform="translate(724.000000, 595.000000)">
                <rect id="矩形" fill="#D8D8D8" fill-rule="nonzero" opacity="0" x="0" y="0" width="22" height="22"></rect>
                <path d="M11,2 C15.9705627,2 20,6.02943725 20,11 C20,15.9705627 15.9705627,20 11,20 C6.02943725,20 2,15.9705627 2,11 C2,6.02943725 6.02943725,2 11,2 Z M11,3 C6.581722,3 3,6.581722 3,11 C3,15.418278 6.581722,19 11,19 C15.418278,19 19,15.418278 19,11 C19,6.581722 15.418278,3 11,3 Z" id="椭圆形" fill="#FFFFFF" fill-rule="nonzero"></path>
                <circle id="椭圆形备份" fill="#FFFFFF" cx="19.5" cy="10.5" r="1.5"></circle>
                <circle id="椭圆形备份-2" fill="#FFFFFF" cx="11" cy="19.5" r="1.5"></circle>
                <path d="M12.5092307,15.7692308 C12.7216479,15.7692308 12.8938461,15.9930884 12.8938461,16.2692308 C12.8938461,16.5256487 12.7453691,16.7369844 12.554085,16.7658669 L12.5092307,16.7692308 L9.43230769,16.7692308 C9.21989048,16.7692308 9.04769231,16.5453732 9.04769231,16.2692308 C9.04769231,16.0128129 9.1961693,15.8014772 9.38745341,15.7725947 L9.43230769,15.7692308 L12.5092307,15.7692308 Z" id="形状结合-path" fill="#FFFFFF" fill-rule="nonzero"></path>
                <path d="M10.9707692,7.69230769 C12.8825241,7.69230769 14.4323077,9.24209125 14.4323077,11.1538462 C14.4323077,12.2522348 13.91617,13.2610193 13.0681955,13.9075317 L12.8942307,14.0319231 L12.8936606,15.1282051 L9.0477179,15.1282051 L9.04730769,14.0323077 C8.18570703,13.4550855 7.62255387,12.5224024 7.52453339,11.4804471 L7.51118045,11.2706721 L7.50923077,11.1538462 C7.50923077,9.24209125 9.05901433,7.69230769 10.9707692,7.69230769 Z M12.3521205,11.8214854 C12.2482153,11.6552023 12.0380403,11.5957338 11.8646355,11.6761034 L11.8646355,11.6761034 L11.8221331,11.6991282 L10.957,12.239 L10.093272,11.6991282 L10.0507696,11.6761034 C9.87736486,11.5957338 9.66718979,11.6552023 9.56328459,11.8214854 C9.45072062,12.0016254 9.50550182,12.2389089 9.68564183,12.3514729 L9.68564183,12.3514729 L10.586,12.913 L10.586,14.358 L11.3303228,14.3588462 L11.3303228,12.913 L12.2297633,12.3514729 C12.4099033,12.2389089 12.4646845,12.0016254 12.3521205,11.8214854 Z" id="形状结合" fill="#FFFFFF" fill-rule="nonzero"></path>
                <path d="M7.36034594,6.61911715 L7.39657953,6.65111277 L8.21247197,7.46700521 C8.36267362,7.61720686 8.36267362,7.86073185 8.21247197,8.0109335 C8.07382429,8.14958118 7.8556585,8.16024639 7.70477727,8.04292912 L7.66854368,8.0109335 L6.85265124,7.19504107 C6.70244959,7.04483941 6.70244959,6.80131442 6.85265124,6.65111277 C6.99129891,6.51246509 7.20946471,6.50179989 7.36034594,6.61911715 Z" id="形状结合-path" fill="#FFFFFF" fill-rule="nonzero"></path>
                <path d="M14.6278542,6.61911715 C14.7787354,6.50179989 14.9969012,6.51246509 15.1355489,6.65111277 C15.2857505,6.80131442 15.2857505,7.04483941 15.1355489,7.19504107 L15.1355489,7.19504107 L14.3196564,8.0109335 L14.2834228,8.04292912 C14.1325416,8.16024639 13.9143758,8.14958118 13.7757281,8.0109335 C13.6255265,7.86073185 13.6255265,7.61720686 13.7757281,7.46700521 L13.7757281,7.46700521 L14.5916206,6.65111277 L14.6278542,6.61911715 Z" id="形状结合-path" fill="#FFFFFF" fill-rule="nonzero"></path>
                <path d="M11.0861538,5 C11.3425717,5 11.5539074,5.14847699 11.5827899,5.3397611 L11.5861538,5.38461538 L11.5861538,6.53846153 C11.5861538,6.75087875 11.3622962,6.92307692 11.0861538,6.92307692 C10.8297359,6.92307692 10.6184002,6.77459992 10.5895177,6.58331581 L10.5861538,6.53846153 L10.5861538,5.38461538 C10.5861538,5.17219817 10.8100114,5 11.0861538,5 Z" id="形状结合-path" fill="#FFFFFF" fill-rule="nonzero"></path>
                <circle id="椭圆形备份-3" fill="#FFFFFF" cx="2.5" cy="10.5" r="1.5"></circle>
                <circle id="椭圆形" fill="#FFFFFF" cx="11" cy="2.5" r="1.5"></circle>
            </g>
        </g>
    </g>
</svg>