<?xml version="1.0" encoding="UTF-8"?>
<svg width="22px" height="22px" viewBox="0 0 22 22" version="1.1" xmlns="http://www.w3.org/2000/svg" xmlns:xlink="http://www.w3.org/1999/xlink">
    <title>产品管理</title>
    <g id="产品管理" stroke="none" stroke-width="1" fill="none" fill-rule="evenodd">
        <g id="Redis" transform="translate(2, 2)">
            <rect id="矩形备份-4" opacity="0.446149554" x="0" y="0" width="17.9999994" height="18"></rect>
            <g id="编组-3" fill="#57689C">
                <path d="M9.95600094,0.162119188 L17.6040107,3.29324193 C17.83029,3.38588147 17.9595924,3.50318907 17.991918,3.62402069 L18,3.68463227 L18,5.93463227 C18,6.07628772 17.8680032,6.21794316 17.6040107,6.32602262 L9.95600094,9.45714536 C9.42801604,9.67330428 8.57198338,9.67330428 8.04399848,9.45714536 L0.395988674,6.32602262 C0.131996225,6.21794316 0,6.07628772 0,5.93463227 L0,3.68463227 L0.0080814015,3.62402069 C0.0404070075,3.50318907 0.169709432,3.38588147 0.395988674,3.29324193 L8.04399848,0.162119188 C8.57198338,-0.0540397294 9.42801604,-0.0540397294 9.95600094,0.162119188 Z M9.74280791,4.74047921 L8.59031292,5.20879933 C8.22044992,5.36046313 7.86488891,5.50768402 7.52362989,5.650462 C7.4052576,5.6999873 7.4025251,5.74584711 7.52362989,5.79414349 L8.48142461,6.16888983 C8.97639951,6.35906444 9.49549075,6.55344119 10.0386983,6.75202011 C10.8515185,6.46188125 11.5912445,6.15855366 12.2578763,5.84203732 C12.3675176,5.78997969 12.3723221,5.74848117 12.2578763,5.69835583 C11.4958174,5.36458669 10.6574612,5.04529448 9.74280791,4.74047921 Z M14.8319995,4.129875 L12.24111,5.00690774 L13.1591099,5.37703274 L15.7499995,4.5 L14.8319995,4.129875 Z M14.1119849,3.08428274 L10.71336,4.38928274 L11.630235,4.75940774 L15.0299849,3.45440774 L14.1119849,3.08428274 Z M5.07080759,2.55986415 L4.53131974,2.77861657 L3.02363004,3.400462 C2.90525774,3.4499873 2.90252524,3.49584711 3.02363004,3.54414349 L3.98142475,3.91888983 C4.47639966,4.10906444 4.99549089,4.30344119 5.53869845,4.50202011 C6.18895463,4.26990902 6.79243051,4.02935715 7.34912609,3.78036447 L7.69707305,3.61961415 L5.07080759,2.55986415 Z M10.3331247,1.879875 L7.19323512,2.96728274 L8.11011009,3.33740774 L11.2499996,2.25 L10.3331247,1.879875 Z M9.06411006,1.04465774 L5.66548517,2.34965774 L6.58236014,2.71978274 L9.98211003,1.41590774 L9.06411006,1.04465774 Z" id="形状" fill-rule="nonzero"></path>
                <path d="M18,7.65 L18,9.9 C17.9999994,10.0416554 17.8680032,10.1833109 17.6040107,10.2913903 L9.95600094,13.4225131 C9.42801604,13.638672 8.57198338,13.638672 8.04399848,13.4225131 L0.395988674,10.2913903 C0.131996225,10.1833109 6.9388939e-17,10.0416554 1.38777878e-17,9.9 L0,7.65 C6.9388939e-17,7.79165544 0.131996225,7.93331088 0.395988674,8.04139034 L8.04399848,11.1725131 C8.57198338,11.388672 9.42801604,11.388672 9.95600094,11.1725131 L17.6040107,8.04139034 C17.8680032,7.93331088 17.9999994,7.79165544 17.9999994,7.65 Z" id="形状结合" opacity="0.55"></path>
                <path d="M18,11.5596323 L18,13.8096323 C17.9999994,13.9512877 17.8680032,14.0929432 17.6040107,14.2010226 L9.95600094,17.3321454 C9.42801604,17.5483043 8.57198338,17.5483043 8.04399848,17.3321454 L0.395988674,14.2010226 C0.131996225,14.0929432 6.9388939e-17,13.9512877 1.38777878e-17,13.8096323 L0,11.5596323 C6.9388939e-17,11.7012877 0.131996225,11.8429432 0.395988674,11.9510226 L8.04399848,15.0821454 C8.57198338,15.2983043 9.42801604,15.2983043 9.95600094,15.0821454 L17.6040107,11.9510226 C17.8680032,11.8429432 17.9999994,11.7012877 17.9999994,11.5596323 Z" id="形状结合备份" opacity="0.55"></path>
            </g>
        </g>
    </g>
</svg>