<?xml version="1.0" encoding="UTF-8"?>
<svg width="20px" height="20px" viewBox="0 0 20 20" version="1.1" xmlns="http://www.w3.org/2000/svg" xmlns:xlink="http://www.w3.org/1999/xlink">
    <title>business-scene-second-menu</title>
    <g id="business-scene-second-menu" stroke="none" stroke-width="1" fill="none" fill-rule="evenodd">
        <g>
            <rect id="矩形备份-49" fill-opacity="0.1" fill="#FFFFFF" opacity="0" x="0" y="0" width="20" height="20"></rect>
            <g id="数据审批" transform="translate(2, 2)">
                <path d="M2.79974207,0 L2.79974207,2.25714286 C2.79974207,2.58851371 3.06837122,2.85714286 3.39974207,2.85714286 L10.0526031,2.85714286 C10.383974,2.85714286 10.6526031,2.58851371 10.6526031,2.25714286 L10.6526031,0 L12.2620475,0 C12.9247892,-1.21743675e-16 13.4620475,0.5372583 13.4620475,1.2 L13.4627973,8.14421664 C13.10401,8.05007316 12.7278502,8 12.3402102,8 C9.86191571,8 7.85286105,10.0466983 7.85286105,12.5714286 C7.85286105,13.9370216 8.44062691,15.1627623 9.37249686,16.0004235 L1.2,16 C0.5372583,16 3.03207055e-16,15.4627417 0,14.8 L0,1.2 C-8.11624501e-17,0.5372583 0.5372583,3.4378828e-16 1.2,0 L2.79974207,0 Z M7.28709125,7.89748509 L2.79974207,7.89748509 L2.79974207,9.04034223 L7.28709125,9.04034223 L7.28709125,7.89748509 Z M10.6526031,5.38319937 L2.79974207,5.38319937 L2.79974207,6.52605651 L10.6526031,6.52605651 L10.6526031,5.38319937 Z M9.53076583,0 L9.53076583,1.71428571 L3.92157937,1.71428571 L3.92157937,0 L9.53076583,0 Z" id="形状结合" fill="#57689C"></path>
                <g id="yonghu" transform="translate(9.6654, 9.5432)" fill-rule="nonzero">
                    <rect id="矩形" fill="#000000" opacity="0" x="0" y="0" width="6.33508119" height="6.45378151"></rect>
                    <path d="M3.1041636,0 C3.941965,0 4.62108832,0.722371764 4.62108832,1.61318723 C4.62108832,2.50438991 3.941965,3.22676168 3.1041636,3.22676168 C2.26630331,3.22676168 1.58717998,2.50438992 1.58717998,1.61318723 C1.58717998,0.722113612 2.26653891,0 3.1041636,0 Z M2.53547881,3.76481345 L3.79977908,3.76481345 C4.88195885,3.76481345 5.75916472,4.69757849 5.75916472,5.8487395 L5.75916472,5.98278454 C5.75916472,6.43654992 4.88178215,6.45378151 3.79977908,6.45378151 L2.53547881,6.45378151 C1.45318123,6.45378151 0.575916472,6.45300706 0.575916472,5.98278454 L0.575916472,5.8487395 C0.575916472,4.69757849 1.45318123,3.76481345 2.53547881,3.76481345 L2.53547881,3.76481345 Z" id="形状" fill="#57689C" opacity="0.55"></path>
                </g>
            </g>
        </g>
    </g>
</svg>