<?xml version="1.0" encoding="UTF-8"?>
<svg width="20px" height="20px" viewBox="0 0 20 20" version="1.1" xmlns="http://www.w3.org/2000/svg" xmlns:xlink="http://www.w3.org/1999/xlink">
    <title>domain-model-second-menu</title>
    <g id="domain-model-second-menu" stroke="none" stroke-width="1" fill="none" fill-rule="evenodd">
        <rect id="矩形" fill="#000000" fill-rule="nonzero" opacity="0" x="0" y="0" width="20" height="20"></rect>
        <path d="M10.2222222,0 C10.2238875,0.00166015625 15.1958656,5.37167969 15.1958656,11.8991602 C15.1958656,14.8625 14.0565201,16.8183398 14.0565201,16.8183398 L12.8377701,16.1075 L7.60667438,16.1075 L6.38792438,16.8183398 C6.38792438,16.8183398 5.24857886,14.8625 5.24857886,11.8991602 C5.24857886,5.37167969 10.2205569,0.00166015625 10.2222222,0 Z M12.8409468,7.68351276 C12.5261711,7.36970559 12.0358224,7.31394303 11.6582421,7.5490153 C11.2806618,7.78408757 11.1157317,8.24781067 11.2604363,8.6675 L10.9386062,8.98833984 C10.3534382,8.6578146 9.63457359,8.66929635 9.06032685,9.01833984 L8.67999644,8.60583984 C8.73717033,8.35197549 8.62722447,8.08980568 8.40581794,7.95205145 C8.18441141,7.81429721 7.89986883,7.83102506 7.69623723,7.99376667 C7.49260563,8.15650827 7.41433004,8.42974335 7.50103676,8.67514917 C7.58774347,8.92055499 7.82050771,9.08456881 8.08149474,9.08416016 C8.10907962,9.08416016 8.13582206,9.07916016 8.16340694,9.07583984 L8.54040678,9.48416016 C8.09980344,10.0591169 8.03641596,10.837564 8.37822808,11.4758398 L8.01962469,11.7866602 C7.94272792,11.7583398 7.86081573,11.7408398 7.77386851,11.7408398 C7.46742374,11.7405425 7.19407245,11.932856 7.09166741,12.2207955 C6.98926236,12.5087349 7.08004699,12.8297569 7.31823804,13.021968 C7.55642908,13.214179 7.89028901,13.2358291 8.15145015,13.0759997 C8.4126113,12.9161704 8.54434679,12.6095784 8.4802216,12.3108398 L8.81707839,12.0191602 C9.35836945,12.4806221 10.1168995,12.5923509 10.7689239,12.3066602 L11.0706923,12.7175 C10.819516,13.1562829 10.8697871,13.7047181 11.1965773,14.0908485 C11.5233676,14.4769788 12.0571847,14.6186934 12.5333204,14.445719 C13.009456,14.2727447 13.3266596,13.8218645 13.3276367,13.3166602 C13.3276367,12.6516835 12.7876104,12.1122293 12.1205829,12.1108398 C11.9793083,12.1108398 11.8447341,12.1366602 11.7185059,12.1808398 L11.4434995,11.8066602 C11.9906778,11.1687825 12.0380493,10.2434381 11.5588545,9.55333984 L11.8539225,9.25916016 C12.2749072,9.40341943 12.7400615,9.23899684 12.9758593,8.86257832 C13.2116571,8.48615981 13.1557225,7.99731992 12.8409468,7.68351276 Z M10.0232898,9.145 C10.5552349,9.13243431 11.0522564,9.40816607 11.3219342,9.86544667 C11.591612,10.3227273 11.591612,10.8897727 11.3219342,11.3470533 C11.0522564,11.8043339 10.5552349,12.0800657 10.0232898,12.0675 C9.22730074,12.048697 8.59184963,11.4000126 8.59184963,10.60625 C8.59184963,9.81248739 9.22730074,9.16380298 10.0232898,9.145 Z M9.27516758,10.3733398 C9.18711447,10.3658719 9.1023491,10.4084809 9.05601641,10.4835006 C9.00968373,10.5585203 9.00968373,10.6531594 9.05601641,10.7281791 C9.1023491,10.8031987 9.18711447,10.8458078 9.27516758,10.8383398 C9.39630666,10.8280658 9.48938696,10.7270424 9.48938696,10.6058398 C9.48938696,10.4846373 9.39630666,10.3836139 9.27516758,10.3733398 Z M10.0232898,10.3733398 C9.9352367,10.3658719 9.85047132,10.4084809 9.80413864,10.4835006 C9.75780596,10.5585203 9.75780596,10.6531594 9.80413864,10.7281791 C9.85047132,10.8031987 9.9352367,10.8458078 10.0232898,10.8383398 C10.1444289,10.8280658 10.2375092,10.7270424 10.2375092,10.6058398 C10.2375092,10.4846373 10.1444289,10.3836139 10.0232898,10.3733398 Z M10.7714316,10.3733398 C10.6833785,10.3658719 10.5986131,10.4084809 10.5522805,10.4835006 C10.5059478,10.5585203 10.5059478,10.6531594 10.5522805,10.7281791 C10.5986131,10.8031987 10.6833785,10.8458078 10.7714316,10.8383398 C10.8925707,10.8280658 10.985651,10.7270424 10.985651,10.6058398 C10.985651,10.4846373 10.8925707,10.3836139 10.7714316,10.3733398 Z" id="形状结合" fill="#57689C"></path>
        <path d="M10.2222222,20 C8.64236111,18.5375 8.70671929,16.8808398 8.70671929,16.8808398 L11.7377252,16.8808398 C11.7377252,16.8808398 11.8020833,18.5375 10.2222222,20 Z" id="路径" fill="#57689C"></path>
        <path d="M15.8838026,13.845 C15.8838026,14.9808398 15.3780864,16.2158398 15.0295139,16.7366602 L17.4444444,16.7366602 L17.1769613,15.0991602 L15.8838026,13.845 Z" id="路径" fill="#57689C"></path>
        <path d="M3.26748318,15.1 L3,16.7375 L5.41493056,16.7375 C5.06551559,16.2166602 4.56064182,14.9816602 4.56064182,13.8458398 L3.26748318,15.1 L3.26748318,15.1 Z" id="路径" fill="#57689C"></path>
    </g>
</svg>