<?xml version="1.0" encoding="UTF-8"?>
<svg width="22px" height="22px" viewBox="0 0 22 22" version="1.1" xmlns="http://www.w3.org/2000/svg" xmlns:xlink="http://www.w3.org/1999/xlink">
    <title>easy-now</title>
    <g id="页面-1" stroke="none" stroke-width="1" fill="none" fill-rule="evenodd">
        <g id="Apple-TV" transform="translate(-363.000000, -880.000000)">
            <g id="easy-now" transform="translate(363.000000, 880.000000)">
                <rect id="矩形备份-56" x="0" y="0" width="22" height="22"></rect>
                <g transform="translate(1.000000, 2.000000)">
                    <path d="M2,3 L2,3 L2,2 C2,0.8954305 2.8954305,0 4,0 L17,0 C18.1045695,0 19,0.8954305 19,2 L19,15 C19,16.1045695 18.1045695,17 17,17 L16,17 L16,17" id="路径" stroke="#FFFFFF"></path>
                    <path d="M15,2 C16.1045695,2 17,2.8954305 17,4 L17,17 C17,18.1045695 16.1045695,19 15,19 L2,19 C0.8954305,19 1.3527075e-16,18.1045695 0,17 L0,4 C-1.3527075e-16,2.8954305 0.8954305,2 2,2 L15,2 Z M8.5,14 L2.5,14 C2.22385763,14 2,14.2238576 2,14.5 C2,14.7761424 2.22385763,15 2.5,15 L2.5,15 L8.5,15 C8.77614237,15 9,14.7761424 9,14.5 C9,14.2238576 8.77614237,14 8.5,14 L8.5,14 Z M13.5,11 L2.5,11 C2.22385763,11 2,11.2238576 2,11.5 C2,11.7761424 2.22385763,12 2.5,12 L2.5,12 L13.5,12 C13.7761424,12 14,11.7761424 14,11.5 C14,11.2238576 13.7761424,11 13.5,11 L13.5,11 Z M11.5,8 L2.5,8 C2.22385763,8 2,8.22385763 2,8.5 C2,8.77614237 2.22385763,9 2.5,9 L2.5,9 L11.5,9 C11.7761424,9 12,8.77614237 12,8.5 C12,8.22385763 11.7761424,8 11.5,8 L11.5,8 Z M5.5,4 L2.5,4 C2.22385763,4 2,4.22385763 2,4.5 C2,4.77614237 2.22385763,5 2.5,5 L2.5,5 L5.5,5 C5.77614237,5 6,4.77614237 6,4.5 C6,4.22385763 5.77614237,4 5.5,4 L5.5,4 Z M14.5,4 C14.2238576,4 14,4.22385763 14,4.5 C14,4.77614237 14.2238576,5 14.5,5 C14.7761424,5 15,4.77614237 15,4.5 C15,4.22385763 14.7761424,4 14.5,4 Z M12.5,4 C12.2238576,4 12,4.22385763 12,4.5 C12,4.77614237 12.2238576,5 12.5,5 C12.7761424,5 13,4.77614237 13,4.5 C13,4.22385763 12.7761424,4 12.5,4 Z" id="形状结合" fill="#FFFFFF"></path>
                </g>
            </g>
        </g>
    </g>
</svg>