<?xml version="1.0" encoding="UTF-8"?>
<svg width="20px" height="20px" viewBox="0 0 20 20" version="1.1" xmlns="http://www.w3.org/2000/svg" xmlns:xlink="http://www.w3.org/1999/xlink">
    <!-- Generator: Sketch 63.1 (92452) - https://sketch.com -->
    <title>产品敏捷管理小产品图标</title>
    <desc>Created with Sketch.</desc>
    <g id="页面-1" stroke="none" stroke-width="1" fill="none" fill-rule="evenodd">
        <g id="Apple-TV备份-25" transform="translate(-765.000000, -597.000000)">
            <g id="产品敏捷管理小产品图标" transform="translate(764.000000, 596.000000)">
                <rect id="矩形" fill="#D8D8D8" fill-rule="nonzero" opacity="0" x="0" y="0" width="22" height="22"></rect>
                <path d="M11,2 C15.9705627,2 20,6.02943725 20,11 C20,15.9705627 15.9705627,20 11,20 C6.02943725,20 2,15.9705627 2,11 C2,6.02943725 6.02943725,2 11,2 Z M11,3 C6.581722,3 3,6.581722 3,11 C3,15.418278 6.581722,19 11,19 C15.418278,19 19,15.418278 19,11 C19,6.581722 15.418278,3 11,3 Z" id="椭圆形" fill="#FFFFFF" fill-rule="nonzero"></path>
                <circle id="椭圆形备份" fill="#FFFFFF" cx="19.5" cy="10.5" r="1.5"></circle>
                <circle id="椭圆形备份-2" fill="#FFFFFF" cx="11" cy="19.5" r="1.5"></circle>
                <circle id="椭圆形备份-3" fill="#FFFFFF" cx="2.5" cy="10.5" r="1.5"></circle>
                <circle id="椭圆形" fill="#FFFFFF" cx="11" cy="2.5" r="1.5"></circle>
                <path d="M11,6 C11.1999316,6 11.3865344,6.11908078 11.4798358,6.29108635 L12.7327404,8.81824513 L15.5451114,9.22841226 C15.745043,9.25487465 15.9183171,9.40041783 15.9716321,9.5856546 C16.038276,9.77089136 15.9849609,9.98259053 15.8383444,10.1281337 L13.8256998,12.0995822 L14.3055356,14.8781337 C14.3455219,15.0766017 14.2522205,15.2750696 14.0922752,15.3941504 C13.93233,15.5132312 13.7057408,15.5264624 13.5324668,15.433844 L11.0133288,14.1239554 L8.49419077,15.433844 C8.41421813,15.4735376 8.3342455,15.5 8.25427286,15.5 C8.14764268,15.5 8.02768373,15.4603064 7.93438232,15.3941504 C7.77443705,15.2750696 7.69446442,15.0766017 7.72112196,14.8781337 L8.20095777,12.0995822 L6.16165558,10.1281337 C6.01503908,9.98259053 5.96172399,9.77089136 6.02836785,9.5856546 C6.09501172,9.40041783 6.25495699,9.25487465 6.45488857,9.22841226 L9.26725957,8.81824513 L10.5201642,6.29108635 C10.6134656,6.10584958 10.8000684,6 11,6 Z" id="形状结合" fill="#FFFFFF" fill-rule="nonzero"></path>
            </g>
        </g>
    </g>
</svg>