<?xml version="1.0" encoding="UTF-8"?>
<svg width="20px" height="20px" viewBox="0 0 20 20" version="1.1" xmlns="http://www.w3.org/2000/svg" xmlns:xlink="http://www.w3.org/1999/xlink">
    <title>product-overview-second-menu</title>
    <g id="product-overview-second-menu" stroke="none" stroke-width="1" fill="none" fill-rule="evenodd">
        <g>
            <rect id="矩形" x="0" y="0" width="20" height="20"></rect>
            <g id="编组" transform="translate(3, 1.5)" fill="#57689C">
                <path d="M13,0.996358 C13.5522847,0.996358 14,1.44407325 14,1.996358 L14,15.5335387 C14,16.0858234 13.5522847,16.5335387 13,16.5335387 L1,16.5335387 C0.44771525,16.5335387 0,16.0858234 0,15.5335387 L0,1.996358 C0,1.44407325 0.44771525,0.996358 1,0.996358 L3.5,0.996358 C3.5,1.77969612 4.09488808,2.42044868 4.85553999,2.49313342 L5,2.5 L9,2.5 C9.82842712,2.5 10.5,1.82842712 10.5,1 L13,0.996358 Z M3.6796875,10.2625 C3.29136229,10.2625 2.9765625,10.5772998 2.9765625,10.965625 C2.9765625,11.3539502 3.29136229,11.66875 3.6796875,11.66875 C4.06801271,11.66875 4.3828125,11.3539502 4.3828125,10.965625 C4.3828125,10.5772998 4.06801271,10.2625 3.6796875,10.2625 Z M9.0234375,10.403125 L5.5078125,10.403125 L5.5078125,11.528125 L9.0234375,11.528125 L9.0234375,10.403125 Z M3.6796875,7.73125 C3.29136229,7.73125 2.9765625,8.04604979 2.9765625,8.434375 C2.9765625,8.82270021 3.29136229,9.1375 3.6796875,9.1375 C4.06801271,9.1375 4.3828125,8.82270021 4.3828125,8.434375 C4.3828125,8.04604979 4.06801271,7.73125 3.6796875,7.73125 Z M11.0234375,7.871875 L5.5078125,7.871875 L5.48495865,8.996875 L11.0234375,8.996875 L11.0234375,7.871875 Z M3.6796875,5.2 C3.29136229,5.2 2.9765625,5.51479979 2.9765625,5.903125 C2.9765625,6.29145021 3.29136229,6.60625 3.6796875,6.60625 C4.06801271,6.60625 4.3828125,6.29145021 4.3828125,5.903125 C4.3828125,5.51479979 4.06801271,5.2 3.6796875,5.2 Z M11.0234375,5.340625 L5.5078125,5.340625 L5.5078125,6.465625 L11.0234375,6.465625 L11.0234375,5.340625 Z" id="形状" fill-rule="nonzero"></path>
                <path d="M9,2 L5,2 C4.44771525,2 4,1.55228475 4,1 C4,0.44771525 4.44771525,1.01453063e-16 5,0 L9,0 C9.55228475,-1.01453063e-16 10,0.44771525 10,1 C10,1.55228475 9.55228475,2 9,2 Z" id="路径" opacity="0.55"></path>
            </g>
        </g>
    </g>
</svg>