<?xml version="1.0" encoding="UTF-8"?>
<svg width="20px" height="20px" viewBox="0 0 20 20" version="1.1" xmlns="http://www.w3.org/2000/svg" xmlns:xlink="http://www.w3.org/1999/xlink">
    <title>research-materials-second-menu</title>
    <defs>
        <linearGradient x1="-3.35277807%" y1="50.0024078%" x2="103.379328%" y2="50.0024078%" id="linearGradient-1">
            <stop stop-color="#0471EA" offset="0.4092262%"></stop>
            <stop stop-color="#2AC6CC" offset="76.74%"></stop>
        </linearGradient>
    </defs>
    <g id="research-materials-second-menu" stroke="none" stroke-width="1" fill="none" fill-rule="evenodd">
        <g>
            <g id="Mysql" stroke-linejoin="round">
                <g id="SVGID_1_-link">
                    <rect id="矩形" x="0" y="0" width="20" height="20"></rect>
                </g>
            </g>
            <g id="填报" transform="translate(2.19, 2)" fill="#57689C">
                <path d="M12.9783282,0 C13.2755418,0 13.5232198,0.247678019 13.5232198,0.544891641 L13.5232198,5.3993808 L10.6006192,8.27244582 L3.02167183,8.27244582 C2.87306502,8.27244582 2.7244582,8.42105263 2.7244582,8.56965944 L2.7244582,8.86687307 C2.7244582,9.01547988 2.87306502,9.16408669 3.02167183,9.16408669 L9.65944272,9.16408669 L7.38080495,11.3931889 L7.23219814,11.5417957 L3.02167183,11.5417957 C2.87306502,11.5417957 2.7244582,11.6904025 2.7244582,11.8390093 L2.7244582,12.1362229 C2.7244582,12.2848297 2.87306502,12.4334365 2.97213622,12.3839009 L6.19195046,12.3839009 C6.19195046,12.4169247 6.18094255,12.4829721 6.16626534,12.5600275 L6.11856438,12.8022016 C6.10388717,12.879257 6.09287926,12.9453044 6.09287926,12.9783282 L6.09287926,13.0278638 L5.15170279,15.8513932 L0.594427245,15.8513932 C0.297213622,15.9009288 0,15.5541796 0,15.2569659 L0,0.643962848 C0,0.346749226 0.247678019,0 0.643962848,0.0495356037 L4.50773994,0 Z M10.8482972,4.60681115 L3.02167183,4.60681115 C2.87306502,4.60681115 2.7244582,4.75541796 2.7244582,4.90402477 L2.7244582,5.20123839 C2.7244582,5.3498452 2.87306502,5.49845201 3.02167183,5.49845201 L10.8482972,5.49845201 C10.996904,5.49845201 11.1455108,5.3498452 11.1455108,5.20123839 L11.1455108,4.90402477 C11.1455108,4.75541796 10.996904,4.60681115 10.8482972,4.60681115 Z" id="形状结合" fill-rule="nonzero"></path>
                <path d="M15.504644,8.42105263 L14.1176471,7.08359133 C13.9195046,6.88544892 13.5727554,6.93498452 13.3250774,7.13312693 L12.5820433,7.87616099 L14.6625387,9.90712074 L15.4055728,9.16408669 C15.6532508,8.96594427 15.6532508,8.61919505 15.504644,8.42105263 L15.504644,8.42105263 Z" id="路径" opacity="0.55"></path>
                <path d="M8.22291022,12.1362229 L7.28173375,12.9783282 C7.23219814,12.9783282 7.18266254,13.0773994 7.18266254,13.1764706 L7.18266254,13.2260062 L6.34055728,15.752322 C6.29102167,15.8513932 6.34055728,15.9009288 6.39009288,15.9504644 C6.43962848,16 6.53869969,16 6.58823529,16 L9.16408669,15.2074303 L9.21362229,15.2074303 C9.3126935,15.2074303 9.3622291,15.1083591 9.41176471,15.1083591 L14.3653251,10.3034056 L12.2848297,8.27244582 L8.22291022,12.1362229 L8.22291022,12.1362229 Z" id="路径" opacity="0.55"></path>
            </g>
        </g>
    </g>
</svg>