<?xml version="1.0" encoding="UTF-8"?>
<svg width="38px" height="38px" viewBox="0 0 38 38" version="1.1" xmlns="http://www.w3.org/2000/svg" xmlns:xlink="http://www.w3.org/1999/xlink">
    <title>累计完成</title>
    <g id="设计稿2" stroke="none" stroke-width="1" fill="none" fill-rule="evenodd">
        <g id="工作台" transform="translate(-404.000000, -181.000000)">
            <g id="path-2-link" transform="translate(404.000000, 181.000000)">
                <rect id="矩形" x="0" y="0" width="38" height="38"></rect>
                <path d="M28,21.75 C30.0020321,21.75 31.8145321,22.561484 33.1265241,23.8734759 C34.438516,25.1854679 35.25,26.9979679 35.25,29 C35.25,31.0020321 34.438516,32.8145321 33.1265241,34.1265241 C31.8145321,35.438516 30.0020321,36.25 28,36.25 C25.9979679,36.25 24.1854679,35.438516 22.8734759,34.1265241 C21.561484,32.8145321 20.75,31.0020321 20.75,29 C20.75,26.9979679 21.561484,25.1854679 22.8734759,23.8734759 C24.1854679,22.561484 25.9979679,21.75 28,21.75 Z" id="path-2-path" stroke="#0071EB" stroke-width="1.5" fill-rule="nonzero"></path>
                <polyline id="路径-24" stroke="#0071EB" stroke-width="1.5" stroke-linecap="round" stroke-linejoin="round" points="24 28.4079129 26.9129763 32 32 27"></polyline>
                <path d="M19,36 L5,36 C3.895431,36 3,35.104569 3,34 L3,4 C3,2.895431 3.895431,2 5,2 L7.857143,2 L7.857143,5.642857 L7.863955,5.82168 C7.959112,7.06388 9.038813,7.991372 10.319917,8.066506 L10.488095,8.071429 L24.654762,8.071429 L24.838122,8.065576 C26.117621,7.983712 27.192622,7.051615 27.279985,5.806935 L27.285714,5.642857 L27.285714,2 L30.142857,2 C31.247427,2 32.142857,2.895431 32.142857,4 L32.142562,19.000323" id="路径" stroke="#000000" stroke-width="1.5" stroke-linecap="round" fill-rule="nonzero"></path>
                <path d="M20.071429,20.214286 L9.071429,20.214286 L8.929817,20.2193316 C8.325906,20.2626552 7.857143,20.5796589 7.857143,20.9642857 C7.857143,21.352611 8.334964,21.6720062 8.947275,21.710414 L9.071429,21.714286 L20.071429,21.714286 L20.21304,21.7092404 C20.816951,21.6659162 21.285714,21.3489131 21.285714,20.9642857 C21.285714,20.5500724 20.74206,20.214286 20.071429,20.214286 Z" id="path-2-path" fill="#000000" fill-rule="nonzero"></path>
                <path d="M26.071429,12.928571 L9.071429,12.928571 L8.929817,12.9336172 C8.325906,12.9769408 7.857143,13.2939444 7.857143,13.678571 C7.857143,14.0668961 8.334964,14.3862912 8.947275,14.424699 L9.071429,14.428571 L26.071429,14.428571 L26.21304,14.4235248 C26.816951,14.3802012 27.285714,14.0631976 27.285714,13.678571 C27.285714,13.2643578 26.74206,12.928571 26.071429,12.928571 Z" id="path-2-path" fill="#000000" fill-rule="nonzero"></path>
                <path d="M24,3 C24,4.1045695 23.1045695,5 22,5 L13,5 C11.8954305,5 11,4.1045695 11,3 C11,1.8954305 11.8954305,1 13,1 L22,1 C23.1045695,1 24,1.8954305 24,3 Z" id="path-2-path" fill="#000000" fill-rule="nonzero"></path>
            </g>
        </g>
    </g>
</svg>