<?xml version="1.0" encoding="UTF-8"?>
<svg width="48px" height="48px" viewBox="0 0 48 48" version="1.1" xmlns="http://www.w3.org/2000/svg" xmlns:xlink="http://www.w3.org/1999/xlink">
    <title>电话备份</title>
    <g id="设计稿2" stroke="none" stroke-width="1" fill="none" fill-rule="evenodd">
        <g id="电话备份">
            <rect id="矩形" fill="#000000" fill-rule="nonzero" opacity="0" x="0" y="0" width="48" height="48"></rect>
            <path d="M37.6391618,20.5064535 C34.0077542,14.4592345 29.5233743,10.7409136 24.0540732,10.7409136 C18.640595,10.7409136 13.9520776,14.4940983 10.4689845,20.5064535 C6.98507098,26.5188498 4.19576635,31.3320974 4.19576635,31.3320974 C1.57327447,37.48481 4.89972687,42.5193808 11.5891361,42.5193808 L36.5189692,42.5193808 C43.2071479,42.5193808 46.5344207,37.4847689 43.9123389,31.3316872 C43.9123389,31.3320974 41.2704874,26.5537136 37.6391618,20.5064535 Z M24.053622,31.4778688 C19.3420125,31.4778688 15.5225047,27.6591404 15.5225047,22.9471207 C15.5225047,18.2350601 19.3420125,14.4163726 24.053622,14.4163726 C28.7660928,14.4163726 32.5852314,18.2350601 32.5852314,22.9471207 C32.5852314,27.6595915 28.7660928,31.4778688 24.053622,31.4778688 Z M5.13741557,20.1351752 C6.70447936,21.1075045 8.56718771,19.7865377 8.89437369,18.9293408 C11.0418573,13.3105357 16.3242888,9.21084642 22.7032876,8.85593351 L22.7032876,8.85929683 C23.5751477,8.79098058 24.4510057,8.79070631 25.3229084,8.85847651 C31.6893562,9.22512005 36.9620669,13.3184928 39.1062282,18.9297509 C39.4334142,19.7869889 41.2961225,21.1079146 42.8631863,20.1356263 C44.7162559,18.9843845 46.1333235,14.8048778 43.7283814,11.3789202 C42.0727227,9.01889075 35.5420461,6.37749042 25.4963658,6.34512866 L25.4963658,6.34262668 C24.5135222,6.29684578 23.5290802,6.29684578 22.5462367,6.34262668 L22.5462367,6.3447185 C12.4749213,6.36949227 5.93083237,9.01638876 4.27181032,11.3793303 C1.8668272,14.8044676 3.28434603,18.9847946 5.13741557,20.1351752 Z" id="形状" fill="#14C2C2"></path>
        </g>
    </g>
</svg>