<?xml version="1.0" encoding="UTF-8"?>
<svg width="38px" height="38px" viewBox="0 0 38 38" version="1.1" xmlns="http://www.w3.org/2000/svg" xmlns:xlink="http://www.w3.org/1999/xlink">
    <title>我的工单备份</title>
    <g id="设计稿2" stroke="none" stroke-width="1" fill="none" fill-rule="evenodd">
        <g id="我的工单备份">
            <rect id="矩形" x="0" y="0" width="38" height="38"></rect>
            <g id="待办工单备份" transform="translate(3.000000, 1.000000)" fill-rule="nonzero">
                <g id="path-2-link">
                    <path d="M16,35 L2,35 C0.895431,35 0,34.104569 0,33 L0,3 C0,1.895431 0.895431,1 2,1 L4.857143,1 L4.857143,4.642857 L4.863955,4.82168 C4.959112,6.06388 6.038813,6.991372 7.319917,7.066506 L7.488095,7.071429 L21.654762,7.071429 L21.838122,7.065576 C23.117621,6.983712 24.192622,6.051615 24.279985,4.806935 L24.285714,4.642857 L24.285714,1 L27.142857,1 C28.247427,1 29.142857,1.895431 29.142857,3 L29.142562,18.000323" id="路径" stroke="#000000" stroke-width="1.5" stroke-linecap="round"></path>
                    <path d="M26.3801161,29 L23.7799875,29 C21.1324598,29 19,31.2259569 19,33.9569257 L19,34.2275291 C19,35.3176946 19.5782874,35.7202187 21.1783222,35.8597561 L21.5821752,35.8884131 C21.6528293,35.8924202 21.7251749,35.8960609 21.7992405,35.8993623 L22.5130356,35.9206493 L23.0427677,35.9268375 L26.8341426,35.9275803 L27.3917366,35.9226015 L27.9052748,35.9115003 L28.3759852,35.8929256 C30.3996613,35.7904979 31.1597402,35.4200279 31.1597402,34.2275291 L31.1597402,33.9569257 C31.1597402,31.2259851 29.0274305,29 26.3801161,29 Z M23.7799875,30.5 L26.3801161,30.5 C28.1842331,30.5 29.6597402,32.0403283 29.6597402,33.9569257 L29.6597402,34.2275291 L29.640366,34.2362063 L29.5814755,34.2504518 L29.4165279,34.2795611 L29.1561914,34.3142582 L28.9277207,34.3384372 L28.4997662,34.3731925 L28.1559516,34.3935543 L27.5495834,34.4167997 L27.0832279,34.4256323 C27.0012813,34.4265744 26.9172084,34.4272344 26.8309852,34.4275865 L23.0785707,34.426693 L22.6217851,34.4197389 L22.2140942,34.4078377 L21.6912966,34.382764 L21.3997148,34.3626026 L21.0439798,34.329539 L20.7816652,34.295906 L20.6561644,34.2747322 L20.5683964,34.2556523 L20.5168466,34.239605 C20.5055314,34.2348657 20.5,34.2307882 20.5,34.2275291 L20.5,33.9569257 C20.5,32.0403265 21.9756281,30.5 23.7799875,30.5 Z" id="path-2-path备份" fill="#0071EB"></path>
                    <path d="M24.8297978,21.2214286 C22.7588941,21.2214286 21.0797396,22.9001127 21.0797396,24.9710686 C21.0797396,27.0424153 22.7585791,28.7214286 24.8297978,28.7214286 C26.9009224,28.7214286 28.5797396,27.0423928 28.5797396,24.9710686 C28.5797396,22.9003252 26.9007833,21.2214286 24.8297978,21.2214286 Z M24.8297978,22.7214286 C26.0723681,22.7214286 27.0797396,23.7287642 27.0797396,24.9710686 C27.0797396,26.2140094 26.0724516,27.2214286 24.8297978,27.2214286 C23.587041,27.2214286 22.5797396,26.2140229 22.5797396,24.9710686 C22.5797396,23.7286339 23.5872271,22.7214286 24.8297978,22.7214286 Z" id="path-2-path备份-2" fill="#0071EB"></path>
                    <path d="M17.071429,19.214286 L6.071429,19.214286 L5.929817,19.2193316 C5.325906,19.2626552 4.857143,19.5796589 4.857143,19.9642857 C4.857143,20.352611 5.334964,20.6720062 5.947275,20.710414 L6.071429,20.714286 L17.071429,20.714286 L17.21304,20.7092404 C17.816951,20.6659162 18.285714,20.3489131 18.285714,19.9642857 C18.285714,19.5500724 17.74206,19.214286 17.071429,19.214286 Z" id="path-2-path" fill="#000000"></path>
                    <path d="M23.071429,11.928571 L6.071429,11.928571 L5.929817,11.9336172 C5.325906,11.9769408 4.857143,12.2939444 4.857143,12.678571 C4.857143,13.0668961 5.334964,13.3862912 5.947275,13.424699 L6.071429,13.428571 L23.071429,13.428571 L23.21304,13.4235248 C23.816951,13.3802012 24.285714,13.0631976 24.285714,12.678571 C24.285714,12.2643578 23.74206,11.928571 23.071429,11.928571 Z" id="path-2-path" fill="#000000"></path>
                    <path d="M21,2 C21,3.1045695 20.1045695,4 19,4 L10,4 C8.8954305,4 8,3.1045695 8,2 C8,0.8954305 8.8954305,2.02906125e-16 10,0 L19,0 C20.1045695,-2.02906125e-16 21,0.8954305 21,2 Z" id="path-2-path" fill="#000000"></path>
                </g>
            </g>
        </g>
    </g>
</svg>