<?xml version="1.0" encoding="UTF-8"?>
<svg width="963px" height="800px" viewBox="0 0 963 800" version="1.1" xmlns="http://www.w3.org/2000/svg" xmlns:xlink="http://www.w3.org/1999/xlink">
    <title>communication</title>
    <defs>
        <path d="M63.8316019,13.8703879 C63.6063121,12.472058 64.0523466,11.7857515 58.4300263,7.8463098 C52.807706,3.90686808 43.7302207,-0.739375572 34.5874724,1.28269343 C22.7223144,3.90686808 18.0096896,11.7334607 13.4342504,15.53842 C9.30961496,18.9685997 5.17113608,19.3686267 2.71853915,23.6249189 C0.265942216,27.881211 -1.03893126,40.126363 1.09371744,44.994651 C4.03559556,51.7102015 9.8370167,53.518756 14.0720132,55.4535191 C21.3350997,58.7716687 31.6013093,55.2672607 31.850001,54.6867488 C33.773739,50.1962391 44.128815,37.5287794 50.3571429,32.206743 C54.9371384,28.2931881 64.8889888,20.433381 63.8316019,13.8703879 Z" id="path-1"></path>
    </defs>
    <g id="Templates-🖥📱" stroke="none" stroke-width="1" fill="none" fill-rule="evenodd">
        <g id="communication">
            <g id="Scene/Home" transform="translate(22.000000, 0.000000)">
                <g id="Background-Shape-2" opacity="0.504510789" transform="translate(49.563707, 373.815126)" fill="#F2F2F2">
                    <path d="M819.937866,170.596673 C831.895079,246.846132 541.912312,296.581045 292.317422,261.872249 C42.7225325,227.163452 -71.7797685,91.6216867 47.3227517,19.3997059 C166.425272,-52.822275 807.980653,94.3472142 819.937866,170.596673 Z" id="Background-Shape"></path>
                </g>
                <path d="M599.685575,495.153862 C599.897879,497.208335 600.224428,499.215169 600.685575,501.153862 C600.025076,499.437681 599.730904,497.383209 599.685575,495.153862 Z M777.405329,243.615184 C776.857801,248.374066 774.466658,252.603835 771.688437,256.323299 C771.390636,256.716999 771.470549,256.701326 771.42872,256.128956 C771.374404,256.407932 771.269518,256.610424 771.122179,256.75336 C771.123428,259.273542 771.247667,261.860178 771.00668,264.077562 C770.316183,270.427545 769.238608,276.794454 767.832016,283.024697 C767.489889,284.539941 767.110303,286.040766 766.69513,287.526545 C769.354731,285.490965 772.888378,283.743764 774.26313,283.211516 C777.831115,281.831685 783.292036,280.42615 786.615912,283.254773 C789.373531,285.601301 789.307353,289.485643 786.823186,291.987018 C783.865161,294.964846 778.768842,294.583684 774.976102,294.079647 C774.794554,294.055499 774.529638,294.02026 774.203707,293.974898 L773.496946,293.873879 C770.409675,293.420613 764.494335,292.389843 766.359247,291.241621 C766.188183,291.296162 765.829824,291.431575 765.443994,291.620902 C765.203632,292.347492 764.953279,293.070947 764.694187,293.790641 C764.74663,293.825121 764.790956,293.861482 764.847145,293.895962 C764.785962,293.865244 764.743508,293.833271 764.689817,293.802552 C762.094521,300.995731 758.580852,307.790193 754.116344,314.085008 C755.690877,313.558402 757.312859,313.182256 758.944206,313.062516 C763.775189,312.707057 773.675645,316.965664 767.972488,323.074286 C764.472703,326.822111 760.071502,325.30743 755.837265,323.413305 L755.308933,323.174917 C755.133163,323.095031 754.957761,323.014839 754.782803,322.934695 L754.25934,322.69476 C752.432427,321.857959 750.663034,321.065362 749.040628,320.725877 C742.959757,328.337205 736.315126,335.588685 729.383933,342.571221 C729.778503,342.717919 730.116884,342.998148 730.297312,343.416298 C731.046322,343.084383 731.80617,342.708643 732.565725,342.330704 L733.476336,341.878787 C735.142919,341.058106 736.786522,340.307376 738.2886,340.069846 C741.835358,339.510014 749.051865,339.436039 751.538529,342.714784 C754.59707,346.746449 750.93731,349.699201 747.045927,350.237717 C741.403329,351.018849 734.233646,347.906235 728.955025,345.780379 C728.334452,345.856863 727.672673,345.641832 727.297458,345.129019 C727.18071,345.083881 727.063962,345.03937 726.950336,344.996114 C719.937981,351.938527 712.684639,358.627042 705.481242,365.163217 C705.554287,365.163217 705.627333,365.16259 705.7035,365.16259 C707.549612,364.085557 709.514345,363.225435 711.615804,362.831108 C716.477379,361.912683 722.125596,362.202943 725.839047,365.880403 C729.53814,369.542191 730.595737,375.662724 726.377835,379.335796 C717.935164,386.68821 707.025184,368.343537 703.01081,367.391259 C695.694412,373.960034 688.002797,380.052356 680.202551,386.008011 C681.064112,385.794235 681.943778,385.650045 682.847168,385.611804 C690.206645,385.294587 706.924044,395.172825 697.474346,403.534565 C692.431578,407.996689 687.368908,403.992622 682.814802,398.952276 L682.43117,398.52403 C682.367437,398.4523 682.303808,398.380406 682.240285,398.308369 L681.860418,397.874591 C681.608031,397.584481 681.357377,397.292742 681.10855,397.000704 L680.677667,396.492768 C678.604146,394.038785 676.663572,391.618038 674.912069,390.019616 C667.565079,395.566525 660.181878,401.070805 652.985349,406.814564 C656.788078,406.015252 660.420368,406.058509 664.377304,407.484105 C668.471591,408.961108 675.020076,412.454256 672.095764,417.93346 C669.121507,423.505445 661.196397,420.483734 657.092746,418.450034 C654.854561,417.341029 650.438126,413.761993 646.480566,412.144562 C634.964371,421.929391 624.861635,432.842033 616.961498,445.90686 C612.029375,454.064227 608.150479,462.852267 605.267996,471.942478 C603.428127,477.744541 599.892607,487.466051 600.09551,495.153862 C598.019024,479.677935 604.190421,461.545158 610.517273,448.141171 C616.334681,435.815472 624.63251,425.162372 634.194585,415.682849 C632.283543,408.740435 613.703799,397.898007 625.451617,392.156755 C631.689191,389.122506 637.60649,395.009828 638.622882,400.969872 C639.320871,405.065482 637.667674,410.07889 635.990127,413.930632 C638.993104,411.045587 642.103463,408.263983 645.298729,405.584565 C649.71454,401.881401 654.225247,398.29735 658.774662,394.763452 C651.955846,387.649892 646.177771,368.032589 655.958982,365.386397 C670.401986,361.492026 662.187816,387.407277 660.939177,392.27963 C660.656985,392.281511 660.442219,392.184966 660.29051,391.994386 C660.346698,392.449523 660.414125,392.936633 660.500905,393.428758 C669.206414,386.702629 678.028047,380.123824 686.587465,373.218398 C685.879487,372.63537 684.81752,370.493842 683.955335,369.338445 C682.009331,366.733629 680.158849,364.022239 678.85964,361.026231 C676.807503,356.291798 674.980744,348.815883 681.203959,346.420456 C687.972206,343.809998 690.67863,352.299001 690.464488,357.267272 C690.375336,359.328931 689.941409,361.310472 689.465183,363.287454 L689.144752,364.605595 C688.931379,365.485012 688.722929,366.366845 688.545955,367.257727 C688.483773,367.570305 688.4707,368.217804 688.44713,368.914147 L688.437002,369.194611 L688.424905,369.476217 C688.355867,370.927122 688.17411,372.260816 687.353505,370.952114 C687.381599,371.706288 687.36287,372.250447 687.309178,372.634117 C688.846253,371.387817 690.372714,370.126472 691.890434,368.855097 C691.832372,368.681442 691.792416,368.493369 691.792416,368.277711 C691.792416,366.793186 693.312009,366.301061 694.33402,366.789424 C696.338709,365.074823 698.325918,363.336398 700.281286,361.559732 C704.425518,357.795758 708.632806,353.921447 712.816994,349.958742 C711.99539,349.174476 712.391209,348.168911 711.627666,347.342015 C710.865372,346.517 709.305822,346.001052 708.399311,345.224309 C706.119296,343.2696 704.288792,340.499907 703.001445,337.801055 C700.876262,333.341836 698.312807,324.086747 705.293322,322.380295 C712.488602,320.618048 715.625183,329.562189 715.793749,335.060199 C715.826838,336.125321 714.532,345.639324 713.742236,349.077305 C721.486293,341.711099 729.12484,334.047738 736.092244,326.208841 C734.110655,326.086594 728.7028,321.730189 727.624601,320.562253 C724.993719,317.713569 720.899433,311.50903 725.925828,308.60267 C730.394706,306.025438 735.50913,310.365544 737.150466,314.409121 C737.420172,315.0749 738.174349,321.179761 738.115663,323.898047 C741.003765,320.570403 743.768251,317.215802 746.353557,313.840512 C748.077303,311.596797 749.699285,309.286003 751.227618,306.919414 C750.900475,306.710652 750.600802,306.360836 750.32298,305.930775 C743.178893,304.329644 734.57827,292.601391 743.250066,289.132065 C747.37869,287.482662 751.549143,291.552568 753.359045,294.800595 C753.72989,295.465121 754.215611,298.733835 754.615175,301.312948 C759.067821,293.440825 762.595225,285.044604 765.398419,276.393231 C764.779094,276.204531 764.272771,275.69736 764.245926,274.86921 C760.850877,272.690694 758.17442,270.884563 755.932489,266.919977 C754.539633,264.45747 752.091676,258.869812 756.620489,257.780867 C762.514064,256.364048 765.694971,265.419152 765.940953,269.810037 C765.969671,270.319716 765.890383,271.793584 765.800481,273.143324 C766.003385,273.126397 766.206913,273.140189 766.404822,273.185954 C768.022433,267.822729 769.374709,262.375499 770.509722,256.90758 C767.395617,255.722091 767.719639,239.058167 769.952829,236.800033 C774.944886,231.743368 777.869198,239.57913 777.405329,243.615184 Z M791.886003,259.120231 C788.600621,265.857908 777.784418,265.376417 771.685575,264.919831 C771.999839,264.919831 772.757582,263.285129 773.518919,261.568327 L773.746988,261.052376 C774.390997,259.592334 775.005821,258.185151 775.321316,257.784318 C777.455879,255.071623 780.423945,253.180144 783.520434,251.839122 C788.556982,249.662197 794.953192,252.828285 791.886003,259.120231 Z" id="Leaf-Bottom" fill="#F2F2F2" transform="translate(696.185575, 368.153862) scale(-1, 1) rotate(-3.000000) translate(-696.185575, -368.153862) "></path>
                <path d="M80.9970115,218.484568 C81.2093149,219.854217 81.5358644,221.192106 81.9970115,222.484568 C81.336512,221.340448 81.0423399,219.9708 80.9970115,218.484568 Z M210.854876,37.061764 C210.455094,40.5028019 208.70918,43.5612505 206.680638,46.2507088 C206.463196,46.5353843 206.521545,46.5240516 206.491003,46.1101842 C206.451344,46.3119049 206.374761,46.4583224 206.26718,46.561676 C206.268091,48.3839619 206.358806,50.2542981 206.182847,51.8576377 C205.678674,56.4491636 204.891873,61.0529288 203.864838,65.5578734 C203.615031,66.6535115 203.337873,67.7387235 203.034731,68.8130563 C204.976662,67.3411751 207.556786,66.0778142 208.560572,65.6929583 C211.165768,64.6952341 215.153107,63.6789244 217.580064,65.7242363 C219.593564,67.4209568 219.545243,70.2296343 217.731407,72.038321 C215.571579,74.1915196 211.850458,73.9159102 209.081155,73.551453 C208.632081,73.492301 207.484391,73.3411033 206.272699,73.1251144 L205.888672,73.0547854 C203.837076,72.66855 201.79342,72.1066675 202.789483,71.4993415 C202.664579,71.538779 202.40292,71.6366929 202.121204,71.773591 C201.9457,72.2989714 201.762904,72.8220853 201.573725,73.3424794 C201.612017,73.3674112 201.644382,73.3937029 201.685409,73.4186346 C201.640735,73.3964227 201.609737,73.3733041 201.570534,73.3510922 C199.675556,78.5523133 197.11002,83.4652324 193.850221,88.0168674 C194.99988,87.6360912 196.184184,87.3641083 197.375326,87.277527 C200.902711,87.0205031 208.131615,90.0998037 203.967405,94.5168072 C201.571719,97.0574001 198.597557,96.2535816 195.687692,95.0146666 L195.20342,94.8046509 C193.430747,94.0234799 191.695422,93.1401805 190.144142,92.8187268 C185.704141,98.3223023 180.852506,103.565681 175.791635,108.614591 C176.079733,108.720665 176.326805,108.923292 176.458547,109.225646 C176.852312,109.052846 177.25018,108.863619 177.649116,108.669198 L178.447514,108.276762 C179.777556,107.622256 181.096995,106.993271 182.293455,106.805904 C184.883152,106.401103 190.152347,106.347613 191.968007,108.718398 C194.201227,111.633602 191.529021,113.768669 188.687694,114.158058 C184.567702,114.722876 179.332695,112.472216 175.478464,110.935059 C175.025347,110.990363 174.542144,110.834879 174.268177,110.464075 C174.182932,110.431438 174.097688,110.399253 174.014723,110.367975 C168.894591,115.387874 163.598499,120.224184 158.338876,124.950342 L158.50116,124.949889 C159.849115,124.171111 161.283682,123.549176 162.81808,123.264047 C166.367802,122.599956 170.491897,122.809836 173.203306,125.468923 C175.90423,128.116677 176.676444,132.542293 173.596706,135.198207 C170.074141,138.236127 165.963321,135.206792 162.539847,131.923754 L162.147954,131.544147 C159.750984,129.200372 157.726847,126.841356 156.535069,126.561388 C151.192937,131.311117 145.576837,135.716335 139.88142,140.022732 C140.510496,139.868155 141.152792,139.763895 141.81241,139.736243 C147.185996,139.506871 159.392351,146.649597 152.492572,152.695778 C148.350496,156.325371 144.190031,152.207919 140.560501,147.991696 L140.210932,147.583623 L139.864788,147.176473 L139.522181,146.771788 C138.272572,145.294342 137.096507,143.897653 136.018528,142.92343 C130.654059,146.934272 125.26315,150.91429 120.008542,155.06747 C122.785138,154.489506 125.437286,154.520784 128.326477,155.5516 C131.315956,156.619586 136.09739,159.145401 133.962178,163.107287 C131.790498,167.136261 126.00391,164.951331 123.007594,163.48081 C121.373363,162.678913 118.148665,160.090995 115.259017,158.921469 C106.850367,165.996652 99.4737664,173.887332 93.7054124,183.334207 C90.1041798,189.232611 87.2719699,195.58704 85.1673001,202.159962 C83.8239036,206.355299 81.2424124,213.384699 81.3905644,218.943578 C79.8743999,207.753292 84.3804992,194.641899 89.0001057,184.949786 C93.2477367,176.037357 99.3064687,168.334346 106.288301,161.479922 C105.883646,160.024151 104.455426,158.331217 102.840545,156.559858 L102.504042,156.192303 C102.052553,155.700876 101.591251,155.204315 101.137706,154.70595 L100.799276,154.331891 L100.495986,153.992037 L100.197682,153.652117 C97.194435,150.196722 95.1551008,146.767327 99.9045468,144.468747 C104.458966,142.274751 108.779534,146.531738 109.521661,150.841308 C110.031304,153.802749 108.824207,157.427829 107.599332,160.212934 C109.791982,158.126825 112.063037,156.115511 114.396089,154.178086 C117.620332,151.500413 120.913864,148.908869 124.235659,146.353589 C119.256841,141.209937 115.037929,127.025119 122.179766,125.111718 C132.725451,122.295788 126.727804,141.034508 125.816099,144.557594 C125.610054,144.558954 125.453241,144.489145 125.342469,144.351341 C125.383495,144.68044 125.432727,145.032658 125.496091,145.388502 C131.852494,140.524994 138.293686,135.768011 144.54342,130.774857 C144.026484,130.353284 143.251079,128.804794 142.621547,127.969353 C141.200656,126.085871 139.84951,124.125327 138.900882,121.958983 C137.402495,118.535624 136.068672,113.129962 140.612607,111.397884 C145.554501,109.510322 147.53062,115.648524 147.374263,119.240966 C147.26577,121.72553 146.458,124.049172 145.973429,126.464834 C145.928026,126.690852 145.91848,127.159043 145.901271,127.662553 L145.886247,128.043575 C145.836744,129.10241 145.706755,130.090084 145.102751,129.13616 C145.123264,129.681486 145.109589,130.074954 145.070386,130.352377 C146.192694,129.451207 147.307252,128.539157 148.415429,127.619855 C148.373035,127.494289 148.34386,127.358298 148.34386,127.202361 C148.34386,126.128935 149.453405,125.77309 150.199635,126.126215 C151.663376,124.886426 153.114354,123.629411 154.542083,122.344745 C157.56803,119.623102 160.640018,116.821677 163.69514,113.956337 C163.095239,113.389252 163.384249,112.662151 162.826742,112.064242 C162.270146,111.467693 161.131427,111.094623 160.46953,110.532978 C158.804757,109.119573 157.468199,107.116872 156.528231,105.165394 C154.97651,101.941036 153.104781,95.2488947 158.201665,94.0149986 C163.455362,92.7407583 165.745563,99.2080601 165.868643,103.183545 C165.892804,103.95371 164.947366,110.833066 164.370713,113.31899 C170.025104,107.992657 175.602456,102.451457 180.689767,96.7833319 C179.242892,96.6949375 175.2943,93.5449213 174.507043,92.7004142 C172.586082,90.6405965 169.596603,86.1542373 173.266669,84.0527156 C176.52966,82.1891789 180.264001,85.3274091 181.462436,88.2512261 C181.659365,88.7326359 182.210034,93.1469196 182.167184,95.1124499 C184.275956,92.7063072 186.29447,90.2806724 188.182154,87.8400785 C189.440762,86.2177 190.625066,84.546818 191.740993,82.8355918 C191.502126,82.6846412 191.283317,82.4316971 191.080463,82.1207299 C185.864146,80.962989 179.584325,72.4825599 185.916113,69.9739703 C188.930664,68.7813249 191.975756,71.7241807 193.297272,74.0727537 C193.568048,74.5532569 193.922701,76.916789 194.214447,78.7816856 C197.465585,73.0895352 200.04115,67.018422 202.087926,60.7628136 C201.635721,60.6263688 201.266025,60.2596451 201.246423,59.6608292 C198.767499,58.0855945 196.81326,56.779623 195.176295,53.9129224 C194.159289,52.1323406 192.371892,48.0920335 195.678644,47.3046428 C199.981889,46.2801736 202.304456,52.8277104 202.484062,56.0026583 C202.505031,56.3711952 202.447138,57.4369151 202.381495,58.4128807 C202.529647,58.4006415 202.678255,58.4106142 202.82276,58.4437054 C204.003873,54.5656815 204.991249,50.6269148 205.819989,46.673189 C203.546198,45.8159893 203.782785,33.7666903 205.413368,32.1338858 C209.058363,28.4775281 211.193575,34.1433867 210.854876,37.061764 Z M220.677794,47.8588384 C218.331092,52.6714644 210.605232,52.3275425 206.248916,52.0014097 C206.686641,52.0014097 208.328887,47.5614418 208.845874,46.9046148 C210.370562,44.9669752 212.490609,43.6159186 214.702387,42.658046 C218.299921,41.1030993 222.868643,43.3645911 220.677794,47.8588384 Z" id="Leaf-Top" fill="#C1DEE2" transform="translate(151.122964, 126.714073) rotate(-3.000000) translate(-151.122964, -126.714073) "></path>
                <g id="Plant-Right" opacity="0.7" transform="translate(682.857143, 282.285714)">
                    <path d="M79.9047528,113.040378 C66.2530447,113.763024 50.2943362,123.453253 50.3969417,138.364313 C50.4717916,149.198479 51.9215094,159.856965 51.4184788,170.735674 C51.0157194,179.430065 49.1251777,187.934396 46.1884145,196.124248 C43.3645394,203.999655 36.5431303,211.167853 35.436189,219.380461 C34.7305556,224.613392 36.1801359,231.717944 38.4174204,236.528898 C41.1381257,242.378219 39.9806746,242.014971 36.3655703,247.542924 C29.2817053,258.37603 23.0341453,269.378157 19.1082064,281.839931 C13.4530146,299.789359 10.6714461,320.367962 15.4148106,338.86673 C16.0178728,341.21586 17.3353725,349.734582 20.6839214,349.987756 C24.4238591,350.27121 22.1932685,345.554422 21.8310908,343.993101 C19.5216852,334.030746 17.4849615,325.324509 17.9135797,314.914948 C19.5678962,274.751412 45.2035015,245.709474 60.1509621,210.198324 C60.9846805,208.360426 62.6955789,204.012856 63.9005736,201.136619 C65.8029769,196.595678 67.3104972,188.177093 70.1621387,184.658557 C75.5325909,178.03009 71.2830113,190.667575 70.3556501,193.092328 C69.1832784,196.159421 67.8821244,199.424932 66.6353083,202.135537 C60.9464558,214.690583 54.5660296,228.413437 48.6881887,241.356913 C80.3924105,245.15732 98.2859955,205.641673 104.022858,180.295993 C108.749645,159.413931 111.985935,111.412785 79.9047528,113.040378" id="Leaf-Me-Alone!" fill="#69A1AC" transform="translate(60.000000, 231.500000) scale(-1, 1) rotate(6.000000) translate(-60.000000, -231.500000) "></path>
                    <path d="M210.80537,78.1211996 C187.982635,79.932006 173.33094,94.991753 166.510526,116.055531 C162.834567,127.406956 162.413232,139.068178 160.370472,150.73361 C157.297501,168.284374 150.685653,181.584667 137.763871,194.088576 C133.761608,197.961058 130.812263,201.937087 128.715679,206.190925 C124.553629,210.438027 120.930652,215.244115 118.268925,221.120186 C114.86881,228.624383 113.90672,237.627904 117.832452,245.109372 C118.887892,247.120537 121.521026,251.158021 124.250033,252.992399 C114.032868,274.752382 108.415067,298.584143 109.048331,322.385598 C109.430981,336.75335 110.132365,351.126994 110.950647,365.477066 C111.170985,369.330186 112.42574,375.692843 114.310394,369.230849 C116.035261,363.320262 113.872239,354.041458 113.672084,347.866532 C112.69822,317.785763 111.865642,290.435094 124.248351,262.330974 C125.546836,259.385362 126.923534,256.463322 128.357419,253.564853 C128.441517,253.516026 128.519729,253.457097 128.598782,253.399851 C128.653446,253.441944 128.703065,253.487403 128.757729,253.528654 C128.849397,253.365336 128.974704,253.17087 129.121036,252.953674 C129.532279,252.529385 129.891381,251.99313 130.232822,251.394579 C131.331152,249.872525 132.574133,248.084448 132.580861,247.105384 C132.580861,247.097807 132.576656,247.086022 132.576656,247.078445 C140.242263,234.565276 149.022178,222.741577 157.990476,211.149386 C157.923197,211.23357 167.718185,197.897078 166.203566,205.272473 C165.473588,208.826738 158.268843,215.595164 155.359024,219.35989 C148.922101,227.735396 141.3633,238.347681 135.081959,248.609759 C134.236766,249.095503 133.042563,251.480447 132.178869,253.256738 C131.702028,254.156669 131.257146,255.064177 130.819832,255.854668 C153.076582,263.208176 170.390004,248.395931 182.195796,231.167594 C182.210092,231.147389 182.222707,231.126343 182.236163,231.106139 C185.828864,226.345511 189.509028,221.618557 194.10671,217.855515 C201.777363,211.576201 209.992135,210.468334 219.036121,207.377925 C243.699779,198.951066 254.18606,166.987092 257.516373,143.269822 C261.273908,116.512653 242.894113,75.4828606 210.80537,78.1211996" id="Leaf-Me-Alone!" fill="#89C5CC"></path>
                    <path d="M187.087285,8.28187838 C160.498481,29.1635113 144.586107,61.0733802 131.288496,91.3053591 C116.436639,125.071454 104.873047,159.852852 99.4843227,196.372108 C95.9443747,220.365462 91.8946121,244.44009 89.9250364,268.625714 C89.2249833,277.215152 88.8748455,285.868946 89.0407006,294.486685 C89.0545865,295.194866 89.4310473,314.437622 92.9380414,310.458848 C94.9325477,308.196212 92.5847722,290.502543 92.6250129,287.616161 C92.8548439,271.35938 94.6480975,255.202131 97.0075499,239.126854 C100.892071,212.659438 103.8149,186.195152 110.209077,160.179766 C111.163144,156.295431 112.0616,152.201098 113.539379,148.477679 C115.109085,144.518959 113.591965,146.130097 117.057176,144.962594 C120.424285,143.827288 124.27953,144.598829 127.821221,143.078763 C141.869801,137.048323 151.32577,117.815648 158.339102,105.310098 C166.360518,91.0095004 172.210631,75.380055 177.309925,59.8610252 C181.055021,48.4585852 184.191433,37.0431561 186.706808,25.3142977 C187.499429,21.6177491 188.064185,17.7150456 189.314089,14.1464607 C189.650899,13.1838012 190.889167,11.5711488 190.976475,10.6889811 C191.161137,8.82194319 190.19407,7.57272465 190.321563,6 C189.227765,6.73737876 188.148642,7.49851591 187.087285,8.28187838" id="Leaf-Me-Alone!" fill="#89C5CC" transform="translate(140.000000, 158.500000) rotate(-8.000000) translate(-140.000000, -158.500000) "></path>
                    <path d="M38,328 C38,368.316787 70.6832133,401 111,401 C151.316787,401 184,368.316787 184,328" id="Base" fill="#89C5CC"></path>
                    <path d="M161.027565,264.084806 C179.094613,262.752829 199.271153,277.328505 207.986064,292.49664 C215.01153,304.726145 213.827993,320.785081 209.488635,333.777767 C206.582823,342.476182 200.240879,354.878099 189.6648,354.998958 C176.432916,355.150242 175.794849,338.796344 175.538949,329.235863 C175.198872,316.525461 173.592762,305.452985 163.577306,296.789222 C161.24306,294.770973 158.691635,292.995286 156.33382,291.004928 C155.982198,290.708236 155.627056,290.410869 155.271843,290.111195 L154.739402,289.65975 C151.549609,286.938247 148.493754,283.963757 148.086094,279.546212 C147.429508,272.435859 151.443098,271.156282 157.571231,272.477271 C158.615876,272.702085 169.138923,277.424009 167.580795,273.69177 C167.105191,272.551646 165.367764,271.648167 163.174937,270.971192 C157.500522,270.354223 150.733481,269.63837 148.787294,270.066022 C127.791706,274.672159 119.617215,303.755053 117.446273,322.232845 C117.21196,324.227477 117.022484,326.228615 116.857255,328.232828 L112.999987,328.232604 C113.26763,323.393002 113.621136,318.561868 114.430188,313.776147 C117.524558,295.473303 127.199937,268.591213 148.420279,265.620466 C149.203131,265.50975 152.082849,265.491157 155.57117,265.695686 C157.224419,264.771923 159.076327,264.213271 161.027565,264.084806 Z" id="Leaf-Me-Alone!" fill="#69A1AC"></path>
                </g>
                <g id="Plant-Left" opacity="0.5" transform="translate(0.000000, 153.285714)">
                    <path d="M178.22298,111.444518 C182.425309,105.452509 190.223629,90.2347729 196.138329,88.0936482 C199.947942,86.7145659 198.837195,100.980115 198.884241,103.700243 C199.067454,114.223987 198.04293,124.681002 196.777726,135.11639 C194.498335,153.936569 187.044926,170.697369 176.822023,186.715278 C171.561534,194.957467 165.391397,203.299596 156.84547,208.442327 C152.911771,210.810658 148.178543,211.207195 144.293769,213.247706 C139.769382,215.623126 142.233354,213.702848 140.194367,218.417487 C137.362802,224.963133 136.457106,233.407714 135.146985,240.392151 C129.131553,272.454512 114.568305,441.944513 117.093014,474.558062 C117.317249,477.448784 113.286509,478.140055 113.085292,474.611088 C112.015789,455.899518 121.270437,326.322179 125.939564,283.946664 C130.608691,241.571148 135.333634,204.134499 140.071325,189.473898 C145.818851,171.687472 156.199212,150.297922 164.840137,133.71131 C168.853782,126.005544 173.228734,118.565238 178.22298,111.444518 Z" id="Leaf" fill="#69A1AC"></path>
                    <path d="M209.414132,319.277765 C220.349167,311.249697 232.185522,326.401056 222.290441,334.430358 C216.820206,338.868469 211.101395,337.289712 207.88186,333.591199 C205.791868,336.13879 203.835706,338.802543 201.956089,341.052489 C196.229376,347.9085 190.816767,354.92815 185.643881,362.111477 C174.898009,377.034662 165.688992,392.800688 156.060308,408.278421 C146.558057,423.5541 137.131786,438.908021 128.519073,454.570722 C121.222883,467.840829 111.497988,483.452044 109,498 C112.790111,467.146303 127.171863,437.490438 144.298022,410.29054 C161.284824,383.314089 180.779154,353.852808 207.081026,332.563583 C204.404139,328.627042 204.329828,323.00793 209.414132,319.277765 Z" id="Leaf" fill="#C1DEE2"></path>
                    <path d="M1.9131966,244.030768 C8.03244063,245.227492 18.0312164,259.070175 23.0752982,264.344345 C29.0698505,270.611956 34.5083971,277.292338 39.6348672,284.291716 C50.6711078,299.357587 60.5410853,315.375735 68.9339235,332.079859 C82.6164473,359.310923 93.5779281,387.264554 101.533144,416.917658 C106.40282,435.069395 109.555733,453.882964 111.42432,472.565152 C111.77721,476.088501 115.4712,503.252852 110.148387,503.985007 C105.361077,504.644266 106.839698,483.358557 106.608745,480.463176 C103.998072,447.797866 96.1772343,416.014794 85.2985211,385.226103 C82.9289815,378.519078 80.7275953,370.304171 76.9381423,364.268497 C74.2092052,359.921096 76.9185722,361.437175 72.1228242,359.791894 C68.0049102,358.378312 63.3131333,358.72373 59.0962962,356.993389 C49.9356343,353.236662 42.6005721,345.943735 36.1708879,338.607909 C23.6757579,324.351374 13.774003,308.928035 8.61263648,290.66039 C5.74946717,280.531578 3.11836073,270.343849 1.65825821,259.901833 C1.28055511,257.202878 -2.02816228,243.259967 1.9131966,244.030768 Z" id="Leaf" fill="#69A1AC"></path>
                    <path d="M26.061363,13.7160319 C49.111288,53.6904115 68.0527721,97.6012194 80.2834249,142.076227 C87.6937407,169.023152 92.875997,196.674657 98.0249813,224.126418 C105.997255,266.632047 113.538111,309.134396 115.683127,352.395051 C117.841152,395.906414 122.108499,446.091658 107.860834,488 C114.977614,445.451647 108.201957,400.162237 107.002263,357.34982 C106.428958,336.911865 104.767627,316.673726 102.588271,296.3552 C100.473423,276.645138 97.0183596,257.028931 93.8009172,237.47379 C92.2336415,227.950082 90.5876488,218.440705 88.9117997,208.936528 C88.4115013,206.100946 88.2001646,197.686783 86.4014385,195.749671 C84.5910631,193.799805 75.3542884,193.004911 72.454369,191.574216 C66.6149274,188.69262 61.1221445,184.599523 56.2608889,180.274642 C46.9417982,171.983953 38.8346584,161.151161 32.435855,150.472492 C17.6306837,125.76373 11.7115834,95.6100441 12.0107586,66.9941546 C12.0682413,61.4382419 21.003398,1.60995132 17.4148953,0.786066265 C17.6309536,0.533029377 17.8353283,0.27176118 18.0280364,0 C20.7448404,4.54878452 23.4108122,9.12839556 26.061363,13.7160319 Z" id="Leaf" fill="#89C5CC"></path>
                    <path d="M274.846162,157.887288 C275.201814,157.374304 277.516546,153.806661 276.35092,154.034666 C278.724178,153.570439 273.086653,157.969398 279,155.270217 C276.192302,157.921907 277.812715,161.366495 277.85019,164.93538 C277.91133,170.729664 276.941861,176.476433 275.850557,182.146394 C274.126127,191.108872 271.55719,199.823019 267.828427,208.1592 C259.70147,226.325634 245.90148,243.814146 229.518328,255.171668 C221.430419,260.779333 213.503908,262.688536 204.279644,265.270093 C198.453207,266.901031 197.991162,269.91496 194.898475,275.568863 C188.459734,287.344734 182.135661,299.078246 176.457263,311.251437 C169.676879,325.787507 163.094762,340.339599 156.885915,355.131559 C135.969422,404.957486 118.945337,456.577892 110.004808,510 C109.785907,478.518515 117.068634,446.095278 126.255091,416.088186 C132.946871,394.2257 141.658313,373.150925 150.949917,352.289498 C153.201461,347.235572 156.613471,340.734509 157.569628,335.154756 C158.23913,331.245304 156.192265,327.485558 155.255097,323.367253 C151.601499,307.329812 151.862999,289.362708 155.071402,273.239515 C158.608912,255.460636 168.839228,247.208854 186.145128,244.690591 C192.474243,243.769436 200.51871,244.107045 206.322196,241.408429 C212.645007,238.469723 215.253262,228.810237 218.848644,222.609606 C228.505717,205.953401 239.979718,189.979083 253.15504,175.944848 C256.803162,172.05859 260.726377,168.473254 264.88847,165.150086 C267.513083,163.053353 273.057504,160.47018 274.846162,157.887288 Z" id="Leaf" fill="#89C5CC"></path>
                    <path d="M80.7914533,476 L142.208547,476 C144.96997,476 147.208547,478.238576 147.208547,481 C147.208547,481.244141 147.190665,481.487955 147.155046,481.729484 L142.408062,513.917935 C140.96096,523.730477 132.540739,531 122.622066,531 L100.377934,531 C90.4592609,531 82.03904,523.730477 80.5919379,513.917935 L75.8449542,481.729484 C75.4420714,478.997608 77.3300935,476.456384 80.0619696,476.053501 C80.3034985,476.017881 80.547312,476 80.7914533,476 Z" id="Base" fill="#C1DEE2"></path>
                </g>
                <g id="Maceta" transform="translate(10.000000, 597.285714)" fill="#F2F2F2">
                    <path d="M15.4177215,48.4556962 C15.4177215,69.7431274 17.0976047,87 39.6455696,87 C62.1935345,87 63.8734177,69.7431274 63.8734177,48.4556962" id="Base"></path>
                    <path d="M46.353417,35.1741665 C45.5269187,36.603205 44.7899627,38.0608242 44.1390143,39.5403256 C44.1160396,36.4933476 44.2845204,33.4240409 44.7446025,30.3127562 C45.5310424,24.9833358 46.7322042,19.6816031 47.8609075,14.3883552 C48.6720893,10.5844334 48.6208382,3.75184321 51.6994412,0.720495335 C52.5436123,0.0653705071 52.7468496,1.35061199 52.7468496,1.90838357 C52.7574533,2.02627925 52.7444932,-0.368253357 51.9250641,0.0488472497 C47.0544384,2.56440155 45.4762567,10.4741295 43.916926,14.4343524 C41.6418466,20.2148131 39.7060851,26.1238872 38.9090415,32.1379063 C38.7075715,33.6571528 38.5980001,35.1759528 38.5726691,36.6920733 C38.4071338,36.2865836 38.2516131,35.877968 38.0795978,35.473818 C35.2684432,28.8805917 31.4746806,22.4472391 26.743081,16.51405 C25.578443,15.0541979 10.9341658,0.649489986 9.78778975,2.85422841 C9.90089571,3.17442235 10.1377113,3.44013419 10.4988257,3.65136394 C10.5200331,3.67547897 10.5206222,3.66208173 10.5082512,3.62635577 C11.3683278,5.01564911 13.8136552,7.16143971 14.5753532,8.37880186 C16.4922637,11.4423031 17.9820814,14.6933656 19.4960519,17.8823543 C22.69483,24.6216105 25.6620943,31.428746 28.5386382,38.2501718 C29.2084376,39.839084 29.9065135,41.4190647 30.6187276,42.994133 C23.2768544,32.4045113 13.4825846,22.7906549 -1.42108547e-14,17.2870705 C4.60494447,19.6298004 7.62404905,24.037491 10.733874,27.4122547 C14.4846328,31.4827815 18.4350943,35.4438975 22.1929222,39.5099586 C26.6252623,44.3066155 31.8405077,49.35782 36.1037779,54.6658048 C40.2333239,63.3356026 44.2462293,72.0147785 46.7233678,81.1284714 C45.7083596,77.9796744 46.6438402,73.6282523 46.4700576,70.3236008 C46.3322097,67.6932768 46.0247028,65.0843884 45.6035009,62.4804124 C46.1242596,63.6549034 46.5731489,64.8302875 46.7763862,65.923502 C46.5908217,64.089867 46.3769808,62.2678429 46.1472343,60.4551969 C46.7369169,58.7582137 47.3159959,57.1746605 47.7071541,55.8702163 C49.7118395,49.1787436 52.0988467,42.6024871 55.349465,36.192803 C58.3573768,30.263633 61.8076979,24.4099342 65.5672931,18.7348651 C67.3210246,16.088911 69.0989091,13.4527816 70.8656007,10.8121864 C72.0219914,9.08349646 73.1230073,6.31562756 74.733,4.65928264 C64.3260729,14.1739995 52.9559778,23.7574888 46.353417,35.1741665" id="Fill-27"></path>
                </g>
                <g id="Top-Leaves" transform="translate(695.857143, 0.000000)" fill="#F2F2F2">
                    <path d="M211.459988,136.913619 C211.697988,126.527619 207.442988,116.955619 202.732988,107.921619 C193.563988,90.3346193 188.977988,79.8126193 190.459988,58.9256193 C191.331988,46.6416193 192.373988,33.6626193 186.103988,22.5076193 C181.538988,14.3846193 171.962988,5.69461932 161.850988,7.16361932 C145.843988,10.8096193 136.907988,26.0616193 133.481988,41.2056193 C129.235988,59.9756193 134.097988,73.9796193 148.271988,86.0066193 C156.258988,92.7816193 160.763988,99.7606193 162.941988,110.078619 C164.684988,118.329619 164.189988,127.791619 167.170988,135.726619 C171.627988,147.588619 179.674988,154.832619 191.778988,157.035619 C187.410988,133.523619 181.274988,109.229619 171.435988,87.4316193 C170.552988,85.2746193 164.205988,76.0546193 166.846988,73.7256193 C169.755988,71.1616193 174.556988,85.9036193 174.518988,85.8116193 C177.307988,92.3626193 179.660988,99.1256193 181.922988,105.916619 C181.910988,105.918619 181.897988,105.917619 181.884988,105.919619 C184.219988,112.892619 186.494988,119.937619 188.667988,127.028619 C189.511988,130.003619 190.301988,132.995619 191.003988,136.027619 C192.033988,140.476619 192.155988,152.193619 195.076988,155.672619 C195.701988,156.416619 196.337988,156.925619 196.978988,157.258619 C198.148988,162.164619 199.240988,167.081619 200.197988,172.008619 C202.696988,184.876619 204.141988,198.075619 202.521988,211.160619 C202.048988,214.979619 197.189988,228.261619 198.799988,231.652619 C201.742988,237.854619 203.397988,228.290619 204.025988,225.445619 C209.218988,201.883619 207.341988,179.762619 201.675988,156.694619 C206.884988,153.106619 211.362988,141.121619 211.459988,136.913619" id="Leaf" transform="translate(171.734760, 120.352443) rotate(-18.000000) translate(-171.734760, -120.352443) "></path>
                    <path d="M115.85853,100.65925 C108.257019,101.771171 101.081536,111.378886 97.541036,117.784796 C93.1599315,125.711405 90.104439,134.755685 87.8025125,143.463054 C84.0100599,157.806497 83.4975663,173.726407 83.4506116,188.416535 C83.4448854,190.186755 83.0755464,211.810007 85.6036573,211.455273 C88.1082908,211.103988 86.5221374,188.659157 86.7357241,184.011394 C87.1903832,174.09264 86.510685,164.31072 88.8372342,154.517877 C91.2456677,144.377773 95.6617019,134.821802 101.24187,126.063265 C101.958215,124.939269 103.473937,120.760077 105.195801,121.725391 C106.879872,122.669432 102.214748,128.236513 101.552229,129.318538 C98.8168301,133.786922 96.4416084,138.518625 94.4746637,143.379689 C90.7892908,152.487211 88.8744544,162.017885 88.9397329,171.831426 C94.724898,172.719698 99.7650864,169.33219 101.705691,163.687492 C103.382318,158.808606 103.546087,153.133437 105.450616,148.52017 C106.762485,145.343087 108.849107,142.644924 111.400695,140.363587 C118.131826,134.346332 125.159001,132.841156 127.165456,122.85456 C128.738439,115.02569 126.785237,99.0684087 115.85853,100.65925" id="Leaf" transform="translate(105.535828, 156.004078) scale(-1, 1) rotate(58.000000) translate(-105.535828, -156.004078) "></path>
                    <path d="M29.3523143,41.0512563 C40.3903669,40.2462156 52.7172123,49.0556901 58.0415826,58.2232442 C62.3337871,65.6147029 61.6107055,75.3206535 58.9595774,83.1733759 C57.1842731,88.4306594 53.3096661,95.9263239 46.8482165,95.9993701 C38.7642046,96.0908055 38.3743782,86.2065813 38.2180362,80.4282689 C38.0102659,72.7461579 37.0290143,66.0540017 30.910077,60.8176615 C29.4839707,59.597841 27.9251794,58.5246237 26.4846732,57.3216599 C24.2290287,55.4388046 21.7362997,53.5109978 21.4457299,50.3960624 C21.0445893,46.0985958 23.4966899,45.3252255 27.240669,46.1236256 C27.878894,46.2595018 34.3079438,49.1134119 33.3560062,46.8576634 C33.0654364,46.1685771 32.0039566,45.6225184 30.6642498,45.2133575 C30.3392392,45.1783988 30.0083614,45.1429148 29.6745935,45.1075242 L29.0040863,45.0370509 C25.977401,44.7221319 22.8773648,44.4481921 21.8741275,44.6662772 C9.04688492,47.450206 4.05268426,65.0277791 2.72634882,76.1956755 C2.57618831,77.4602301 2.45616882,78.7291115 2.35177061,79.9999262 L-4.75510154e-05,80.0008615 C0.164716163,77.0159735 0.379303579,74.0359397 0.883673399,71.0844844 C2.77417712,60.0223263 8.68534409,43.7749092 21.6499002,41.9794028 C22.1281833,41.9124864 23.8875448,41.9012485 26.0187329,42.0248651 C27.0287844,41.4665469 28.1602067,41.1288998 29.3523143,41.0512563 Z" id="Leaf-Me-Alone!" transform="translate(30.552422, 68.500000) scale(-1, 1) translate(-30.552422, -68.500000) "></path>
                </g>
            </g>
            <g id="Group-2" transform="translate(142.857143, 275.238095)">
                <g id="Group" transform="translate(0.000000, 67.619048)">
                    <g id="Head" transform="translate(96.285714, 24.623620)">
                        <g transform="translate(40.653968, 8.564737)" fill="#B28B67">
                            <path d="M40.8073208,9.77871708 C47.0068484,21.3423135 46.2701834,50.6743348 38.2578463,52.741072 C35.0624462,53.5653074 28.2551912,51.5461797 21.3270916,47.3672505 L25.6761905,78.1532285 L0,78.1532285 L8.83947313,36.9250377 C3.90965818,31.1344388 0.573038495,24.0379559 1.13058294,16.0861333 C2.73700725,-6.82504712 34.6077931,-1.78487934 40.8073208,9.77871708 Z"></path>
                        </g>
                        <path d="M83.8852869,23.5355051 C83.6309518,22.0366228 83.0093727,20.3721303 82.5078318,18.9540468 C81.8612171,17.1259503 80.8826735,15.4776905 79.8058113,13.9242735 C77.7784255,10.9996474 75.3463252,8.35863794 72.6610503,6.16667305 C67.7560633,2.16284436 61.5122521,-0.146579782 55.3722309,0.603408536 C52.2721279,0.982050498 49.2627167,2.16539783 46.7012935,4.13502911 C44.387076,5.91460986 42.1610634,8.53427966 39.1644187,8.7225063 C35.9038226,8.92714805 32.9149704,6.0472075 30.2999942,4.26853871 C27.3515969,2.26334134 24.2150182,0.802213805 20.7690592,0.234250862 C14.996282,-0.716913798 9.57317414,1.23484325 5.59466988,5.97443383 C1.3610015,11.0180688 -1.71655292,18.4145368 1.06372454,25.097312 C1.58051891,26.3395714 2.24537147,27.3868557 3.19954267,28.2548504 C4.07462791,29.050801 5.41113078,29.8976385 5.76593988,31.1694451 C6.14280019,32.5213209 5.0170274,34.2653356 4.58047957,35.4851609 C3.95508709,37.2328234 3.44160869,39.0673036 3.62415299,40.9668971 C3.92408274,44.0864983 5.88315952,47.0645647 7.9518292,49.1149949 C10.0569746,51.2015382 12.64791,52.3980177 15.4152552,52.9495655 C17.263081,53.3178112 19.1515276,53.5209938 21.0295288,53.3827421 C21.9618146,53.3141634 22.7845075,53.054987 23.6877785,52.8488861 C24.5661797,52.6484393 25.0571095,52.8818987 25.8023744,53.3639559 C29.2644159,55.603707 32.986927,56.4702426 36.9844981,56.1371982 C40.3583347,55.8559526 44.2469761,55.0377504 46.9992336,52.724496 C50.0557316,50.1553483 49.9948835,46.6126019 49.275649,42.827459 C50.0376596,43.2053714 52.1457893,43.439378 50.8860512,41.9330177 C50.3869973,41.3364195 49.4441004,41.0936582 48.8037861,40.7427396 C48.0581896,40.3341856 47.301153,39.8061661 46.7221841,39.1397125 C44.3844232,36.4487281 46.7455617,30.9722813 49.6838453,30.0698148 C54.0493236,28.7290648 55.0267066,34.9071665 58.1430579,36.5052691 C59.9348438,37.4241507 61.8091975,36.1682121 63.1516691,34.8858269 C64.9499212,33.167894 66.1755048,30.8920297 67.2336317,28.5760395 C68.1052352,26.6687856 68.9163222,24.7347204 69.8046713,22.8369509 C70.2194995,21.9507171 71.6556474,19.4454059 70.9344233,18.4433544 C74.0612199,17.8193977 77.5438204,19.1196571 80.236722,20.8248227 C81.3497283,21.5297606 82.1982857,22.3069251 82.7920107,23.5513731 C82.9191782,23.8180275 83.196062,24.6106951 83.5437417,24.6431606 C84.1910196,24.7037141 83.9491194,23.9121408 83.8852869,23.5355051" id="hair" fill="#191847"></path>
                    </g>
                    <g id="Bottom" transform="translate(56.701587, 201.271328)">
                        <g id="Seat" transform="translate(0.000000, 44.964871)" fill="#AFB9C5">
                            <path d="M141.266667,0 C150.103223,-1.623249e-15 157.266667,7.163444 157.266667,16 L157.266667,116.753429 C157.266667,125.589985 150.103223,132.753429 141.266667,132.753429 L16,132.753429 C7.163444,132.753429 -1.31286887e-14,125.589985 -1.42108547e-14,116.753429 L-1.42108547e-14,16 C-1.52930207e-14,7.163444 7.163444,-1.92946468e-15 16,0 L141.266667,0 Z M123.311111,29.9765808 L33.9555556,29.9765808 C31.7464166,29.9765808 29.9555556,31.7674418 29.9555556,33.9765808 L29.9555556,98.7768484 C29.9555556,100.985987 31.7464166,102.776848 33.9555556,102.776848 L123.311111,102.776848 C125.52025,102.776848 127.311111,100.985987 127.311111,98.7768484 L127.311111,33.9765808 C127.311111,31.7674418 125.52025,29.9765808 123.311111,29.9765808 Z"></path>
                        </g>
                        <path d="M263.351018,172.36534 C242.258168,146.58995 227.986242,127.481228 220.535239,115.039175 C207.777313,93.7353595 197.335561,74.7788983 194.040404,67.5376154 C186.18268,50.2698477 212.130155,42.1841345 218.002658,50.2383941 C226.890924,62.4288359 245.873107,100.788724 274.949206,165.318058 L263.351018,172.36534 Z" id="LegLower" fill="#B28B67"></path>
                        <path d="M220.127937,164.871194 L180.872925,65.9878508 C172.477059,47.9620766 213.022255,36.113297 219.192582,44.5021311 C233.201135,63.5473815 266.496225,138.678132 270.669841,144.352348 L220.127937,164.871194 Z" id="LegLower" fill="#2F3676"></path>
                        <g id="Lower-Leg" transform="translate(178.848533, 105.452562) rotate(39.000000) translate(-178.848533, -105.452562) translate(149.427898, 28.369926)" fill="#B28B67">
                            <path d="M5.14643056,147.693579 C4.06948936,134.203459 2.0686661,87.5034728 4.0705711,65.8877794 C4.64583831,59.676296 5.25192094,53.670788 5.86270647,48.0370888 C7.6781772,31.2917413 38.705817,31.8210724 36.2418334,47.7299917 C30.1055405,87.3494885 19.3049652,142.873919 18.5308475,147.671543 C17.4458884,154.395617 5.82325452,156.171699 5.14643056,147.693579 Z" id="LegLower"></path>
                        </g>
                        <g id="Right-Shoe" transform="translate(140.484766, 158.423464) rotate(30.000000) translate(-140.484766, -158.423464) translate(109.459369, 147.182246)" fill="#E4E4E4">
                            <path d="M1.85037396,6.70737187 C0.616791322,9.97818537 -7.39273005e-15,12.4193376 -7.39273005e-15,14.0308286 C-7.39273005e-15,15.9614127 0.321395514,18.778615 0.964186542,22.4824356 C3.20222874,22.4824356 23.3158909,22.4824356 61.3051729,22.4824356 C62.8732213,17.294889 61.9680528,14.4942995 58.5896676,14.0806671 C55.2112824,13.6670348 52.4048004,13.2935579 50.1702217,12.9602364 L22.0590543,0.419341807 C21.5546839,0.194333131 20.9634053,0.420800588 20.7383966,0.925171028 C20.7344783,0.93395411 20.7306869,0.942793261 20.7270236,0.951685722 L18.8968343,5.39438747 L18.8968343,5.39438747 C15.7693332,6.85462927 13.2279139,7.58475018 11.2725763,7.58475018 C9.6595183,7.58475018 7.42243501,6.92282098 4.56132645,5.59896258 L4.56137008,5.59886825 C3.55886047,5.13513529 2.37023602,5.57190007 1.90650306,6.57440968 C1.88630095,6.61808313 1.86768157,6.66247143 1.85068129,6.70748793 Z" id="shoe"></path>
                        </g>
                        <g id="Right-Shoe" transform="translate(252.482540, 161.659418)" fill="#E4E4E4">
                            <path d="M1.85037396,6.70737187 C0.616791322,9.97818537 0,12.4193376 0,14.0308286 C0,15.9614127 0.321395514,18.778615 0.964186542,22.4824356 C3.20222874,22.4824356 23.3158909,22.4824356 61.3051729,22.4824356 C62.8732213,17.294889 61.9680528,14.4942995 58.5896676,14.0806671 C55.2112824,13.6670348 52.4048004,13.2935579 50.1702217,12.9602364 L22.0590543,0.419341807 C21.5546839,0.194333131 20.9634053,0.420800588 20.7383966,0.925171028 C20.7344783,0.93395411 20.7306869,0.942793261 20.7270236,0.951685722 L18.8968343,5.39438747 L18.8968343,5.39438747 C15.7693332,6.85462927 13.2279139,7.58475018 11.2725763,7.58475018 C9.6595183,7.58475018 7.42243501,6.92282098 4.56132645,5.59896258 L4.56137008,5.59886825 C3.55886047,5.13513529 2.37023602,5.57190007 1.90650306,6.57440968 C1.88630095,6.61808313 1.86768157,6.66247143 1.85068129,6.70748793 Z" id="shoe"></path>
                        </g>
                        <path d="M166.747697,70.9267873 C134.120942,65.6077459 112.267099,61.970606 101.186168,60.0153674 C69.601146,54.4421669 60.390685,37.4336092 65.8364014,0.323563636 L124.031267,0.323563636 C131.732422,2.54907312 163.910836,16.3131273 220.566509,41.6157262 C230.759982,46.6794602 228.861622,61.6099011 226.998436,66.5288209 C226.922448,66.7294332 209.738206,96.1959343 175.445709,154.928324 L127.839856,124.579983 L166.837101,74.5029241 C167.866981,72.4271528 167.83718,71.2351072 166.747697,70.9267873 Z" id="Leg-and-Butt" fill="#5C63AB"></path>
                    </g>
                    <g id="Body/Long-Sleeve-1" transform="translate(45.107459, 82.723712)">
                        <path d="M189.715343,104.052156 L220.021704,133.637996 C228.839738,137.401995 236.064861,141.558211 241.697073,146.106643 C242.963673,147.635525 244.342573,150.564943 238.383283,149.254071 C232.423992,147.943198 226.0968,146.832556 224.976762,148.771921 C223.856725,150.711287 227.157007,153.683083 225.087039,156.221213 C223.70706,157.9133 219.066082,152.531104 211.164105,140.074624 L179.649498,121.481349 L189.715343,104.052156 Z M41.5173662,77.2759493 C31.07472,131.885735 24.8083522,161.312234 22.7182628,165.555446 C21.1855781,168.667038 9.84208407,178.120233 1.97045523,183.521502 C-1.18910985,185.689499 0.118588727,188.463834 1.31192175,189.200674 C11.0182256,195.193965 17.4089522,188.107037 25.8100926,184.195785 C35.0142635,179.910672 34.2368278,192.010442 41.533195,188.743243 C39.2929611,183.718557 34.0543596,174.368434 36.5299119,168.229085 C37.6301573,165.500485 47.1015532,135.2121 64.9440996,77.3639302 L41.5173662,77.2759493 Z" id="Skin" fill="#B28B67"></path>
                        <path d="M107.628132,15.4613952 L116.705586,13.0732873 C135.716301,63.1579885 213.370694,91.6375585 219.629373,110.434677 C221.924596,117.328077 217.172611,121.329997 219.97571,123.245586 L208.76463,133.068708 C206.528919,130.877796 202.579132,135.588844 193.274052,133.349276 C183.968972,131.109707 112.948183,76.2698599 107.628132,15.4613952 Z" id="Clothes-Back" fill="#DB2721" transform="translate(163.953231, 73.521542) rotate(5.000000) translate(-163.953231, -73.521542) "></path>
                        <path d="M95.9707055,-0.0183437607 L96.1702014,-0.00931067446 L125.54331,2.04649034 C127.746881,2.20107874 129.408316,4.11234071 129.254722,6.31598094 L128.465191,17.573252 C127.37714,85.8673291 166.825934,103.278694 158.041771,130.664841 C150.789851,153.273957 81.3770193,177.578662 69.3655571,155.416392 C64.5030759,146.44466 62.2971639,135.593832 62.0471688,123.796649 C58.9778804,132.860307 56.5496135,140.663007 54.7634293,147.20467 C51.6823475,158.488723 39.7376509,160.282373 39.7376509,164.629396 L24.0006818,160.282373 C25.0680834,154.376763 17.6492959,151.501083 19.6384662,138.307434 C28.5510362,79.1926795 52.497369,36.3421031 91.4774645,9.75570481 L91.9014901,3.70215523 C92.05044,1.56514442 93.8522114,-0.0620999094 95.9707055,-0.0183437607 Z" id="Clothes-Front" fill="#FF4133"></path>
                    </g>
                </g>
                <g id="Head" transform="translate(471.011905, 68.035714) scale(-1, 1) translate(-471.011905, -68.035714) translate(436.190476, 24.642857)">
                    <g transform="translate(24.642857, 8.571429)" fill="#B28B67">
                        <path d="M40.8678658,9.7863567 C47.0765915,21.3589872 46.3388335,50.7139241 38.3146086,52.782276 C35.1146031,53.6071204 28.2976899,51.5866212 21.3596151,47.4047872 L25.7142857,78.2142857 L0,78.2142857 L8.85258807,36.9538854 C3.91545886,31.1587626 0.573888701,24.0567356 1.13226036,16.0987006 C2.74106809,-6.83037919 34.65914,-1.78627378 40.8678658,9.7863567 Z"></path>
                    </g>
                    <g id="Turban" transform="translate(0.000000, -0.000000)">
                        <mask id="mask-2" fill="white">
                            <use xlink:href="#path-1"></use>
                        </mask>
                        <use fill="#5C63AB" xlink:href="#path-1"></use>
                        <path d="M8.5697239,17.5094387 C11.7334711,30.6086851 19.9483251,42.9864913 33.2142857,54.6428571 C17.864295,45.3773974 8.22143783,33.4206219 4.28571429,18.7725304 L8.5697239,17.5094387 Z M13.346811,12.8571429 C15.275475,25.0496669 20.3385243,36.2007494 28.5359588,46.3103903 C18.9774549,38.8939023 12.6797543,28.5237141 9.64285714,15.1998258 L13.346811,12.8571429 Z" id="SHade" fill-opacity="0.2" fill="#000000" mask="url(#mask-2)"></path>
                    </g>
                </g>
                <g id="Bottom" transform="translate(462.993651, 330.000000) scale(-1, 1) translate(-462.993651, -330.000000) translate(381.685714, 201.904762)">
                    <polygon id="Leg" fill="#997659" points="46.0031746 1.42108547e-13 86.2621978 131.872891 105.764673 244.02229 121.05596 244.02229 100.448439 1.42108547e-13"></polygon>
                    <path d="M31.6006797,2.84217094e-14 C34.3351701,72.405305 31.1170444,109.753273 30.5050327,116.331609 C29.8930211,122.909946 21.5125782,165.564234 1.67289727,246.230637 L17.9669061,240.623635 C49.321672,166.640605 60.0062583,128.190318 63.6024126,118.475463 C67.1985669,108.760607 76.7497741,69.2687862 92.2560343,2.84217094e-14 L31.6006797,2.84217094e-14 Z" id="Leg" fill="#B28B67"></path>
                    <g id="Left-Shoe" transform="translate(0.000000, 233.680016)" fill="#E4E4E4">
                        <path d="M1.85037396,6.7157327 C0.616791322,9.99062331 -1.42108547e-14,12.4348185 -1.42108547e-14,14.0483182 C-1.42108547e-14,15.9813088 0.321395514,18.8020228 0.964186542,22.5104603 C3.20222874,22.5104603 23.3158909,22.5104603 61.3051729,22.5104603 C62.8732213,17.3164473 61.9680528,14.5123668 58.5896676,14.0982189 C55.2112824,13.6840709 52.4048004,13.3101285 50.1702217,12.9763915 L22.0597084,0.420156692 C21.5554424,0.194914169 20.9640588,0.421107429 20.7388163,0.92537348 C20.7347713,0.934429354 20.7308612,0.943544906 20.7270874,0.95271711 L18.8968343,5.40111164 L18.8968343,5.40111164 C15.7693332,6.86317366 13.2279139,7.59420467 11.2725763,7.59420467 C9.6595183,7.59420467 7.42243501,6.93145037 4.56132645,5.60594176 L4.56157325,5.60540816 C3.55904145,5.14172316 2.37043789,5.5785448 1.9067529,6.5810766 C1.88631873,6.62525724 1.86750433,6.67016917 1.85034727,6.71572264 Z" id="shoe"></path>
                    </g>
                    <g id="Right-Shoe" transform="translate(100.565079, 233.680016)" fill="#E4E4E4">
                        <path d="M1.85037396,6.7157327 C0.616791322,9.99062331 1.42108547e-14,12.4348185 1.42108547e-14,14.0483182 C1.42108547e-14,15.9813088 0.321395514,18.8020228 0.964186542,22.5104603 C3.20222874,22.5104603 23.3158909,22.5104603 61.3051729,22.5104603 C62.8732213,17.3164473 61.9680528,14.5123668 58.5896676,14.0982189 C55.2112824,13.6840709 52.4048004,13.3101285 50.1702217,12.9763915 L22.0597084,0.420156692 C21.5554424,0.194914169 20.9640588,0.421107429 20.7388163,0.92537348 C20.7347713,0.934429354 20.7308612,0.943544906 20.7270874,0.95271711 L18.8968343,5.40111164 L18.8968343,5.40111164 C15.7693332,6.86317366 13.2279139,7.59420467 11.2725763,7.59420467 C9.6595183,7.59420467 7.42243501,6.93145037 4.56132645,5.60594176 L4.56157325,5.60540816 C3.55904145,5.14172316 2.37043789,5.5785448 1.9067529,6.5810766 C1.88631873,6.62525724 1.86750433,6.67016917 1.85034727,6.71572264 Z" id="shoe"></path>
                    </g>
                    <polygon fill="#69A1AC" points="40.6539683 2.84217094e-14 57.7714286 67.1878498 110.054912 67.1878498 102.259231 2.84217094e-14"></polygon>
                    <path d="M31.0253968,2.84217094e-14 C25.3931524,16.9155883 24.3233111,39.3115383 27.815873,67.1878498 L81.1691972,67.1878498 L95.8401836,2.84217094e-14 L31.0253968,2.84217094e-14 Z" fill="#89C5CC"></path>
                </g>
                <g id="Body" transform="translate(428.081768, 157.423240) scale(-1, 1) rotate(8.000000) translate(-428.081768, -157.423240) translate(335.224625, 71.708954)">
                    <path d="M120.369784,25.3606965 L160.980973,13.1912651 C168.557023,7.30415776 175.702977,2.99978121 182.418835,0.278135487 C184.372041,-0.0888500638 187.605666,0.124286269 183.564847,4.69994103 C179.524029,9.2755958 175.479846,14.2699046 176.633567,16.1884963 C177.787289,18.1070881 181.990894,16.6607775 183.207497,19.6999428 C184.018566,21.726053 177.054184,23.1771956 162.314352,24.0533705 L130.738349,42.6031968 L120.369784,25.3606965 Z M116.781154,96.8337473 L150.957873,121.885724 C160.227303,124.382493 167.971612,127.488894 174.1908,131.204928 C175.659881,132.54119 177.435402,135.247343 171.342771,134.779652 C165.25014,134.311961 158.820535,134.09354 157.97987,136.167938 C157.139205,138.242336 160.826136,140.723089 159.126786,143.521995 C157.993887,145.387932 152.641614,140.709163 143.069967,129.485689 L109.22605,115.476487 L116.781154,96.8337473 Z" id="Skin" fill="#997659"></path>
                    <path d="M51.3176052,39.6111627 C78.2607309,68.2550134 111.129543,86.9395755 155.961383,103.505676 L145.99508,123.390416 C99.733234,119.055756 75.0013321,115.588386 55.6244806,86.8969633 C50.7612837,79.695998 42.0709134,54.9152433 36.8638598,42.0468691 L51.3176052,39.6111627 Z" id="Coat-Back" fill="#2026A2" transform="translate(96.412621, 81.500789) rotate(15.000000) translate(-96.412621, -81.500789) "></path>
                    <path d="M11.6666667,144.782277 L94.1666667,144.782277 C75.4790353,87.889636 65.9326838,48.8420643 65.5276119,27.6395616 C65.506961,26.5586375 63.5070722,24.6538966 62.6222777,24.9033393 C56.1518703,26.7274875 49.2280238,26.045422 41.8507382,22.8571429 C22.2925434,54.2565084 15.5289806,92.915485 11.6666667,144.782277 Z" id="Shirt" fill="#F2F2F2"></path>
                    <path d="M155.155247,13.2314744 L159.52381,35.021293 C126.080622,56.4919505 92.2165848,73.1240477 62.5433887,70.7615809 C75.4300073,125.933701 74.8361039,171.098818 46.3889584,171.098818 L2.40001685,171.098818 C-4.5864425,124.230348 13.7753398,59.2460361 30.7980471,26.4684736 C31.448093,25.2167973 32.832106,22.8571429 36.0920244,22.8571429 L48.8739131,22.8571429 C48.8795686,22.8741411 48.8852234,22.8911393 48.8908773,22.9081375 C72.5373006,23.1009343 110.90565,27.4121814 155.155247,13.2314744 Z" id="Coat-Front" fill="#1F28CF"></path>
                </g>
            </g>
        </g>
    </g>
</svg>