<?xml version="1.0" encoding="UTF-8"?>
<svg width="807px" height="931px" viewBox="0 0 807 931" version="1.1" xmlns="http://www.w3.org/2000/svg" xmlns:xlink="http://www.w3.org/1999/xlink">
    <title>empty-state</title>
    <g id="Templates-🖥📱" stroke="none" stroke-width="1" fill="none" fill-rule="evenodd">
        <g id="empty-state">
            <g id="Background">
                <path d="M200.85113,82.3233575 C257.51222,-45.7332223 617.760134,-22.2958629 728.605646,143.941561 C839.451157,310.178985 712.770572,679.497908 599.214377,679.497908 C485.658181,679.497908 485.658181,430.146651 438.835508,356.9171 C392.012835,283.687548 144.19004,210.379937 200.85113,82.3233575 Z" id="Weird-Shape" fill-opacity="0.7" fill="#91FFBD"></path>
                <path d="M232.648914,490.733343 C299.12024,505.963151 301.818932,433.751406 301.785957,337.865546 C301.752982,241.979686 315.037966,131.993945 248.56664,116.764137 C182.095314,101.534329 112.19925,193.654767 112.232213,289.540628 C112.2652,385.426488 166.177588,475.503534 232.648914,490.733343 Z" id="Weird-Shape" fill-opacity="0.6" fill="#2B44FF" transform="translate(207.540321, 303.935840) rotate(49.000000) translate(-207.540321, -303.935840) "></path>
                <path d="M707.08489,630.013508 C752.854532,630.013508 803.34728,586.189542 803.34728,530.346259 C803.34728,474.502976 752.854532,430.67901 707.08489,430.67901 C661.315247,430.67901 644.295302,494.586658 644.295302,540.3881 C644.295302,586.189542 661.315247,630.013508 707.08489,630.013508 Z" id="Weird-Shape" fill-opacity="0.7" fill="#FF73C6"></path>
            </g>
            <g id="A-Human/Sitting" transform="translate(196.373780, 210.376095)">
                <g id="Head/Front" transform="translate(119.609484, 0.000000)">
                    <g id="Head" transform="translate(7.140865, 12.545189)" fill="#B28B67">
                        <path d="M68.0941101,16.3695599 C78.4391,35.7270055 77.2098463,84.8287716 63.8398686,88.288487 C58.5080323,89.6681929 47.14974,86.2885485 35.5895492,79.293678 L42.8451883,130.828404 L0,130.828404 L14.7493312,61.8114445 C6.52355339,52.1181762 0.956247042,40.23904 1.88657421,26.9281666 C4.5671725,-11.4251201 57.7491203,-2.98788573 68.0941101,16.3695599 Z"></path>
                    </g>
                    <path d="M18.5986291,82.9909447 C13.2211363,58.9739657 -2.09846322,42.6023959 0.2412071,31.8678333 C1.80098731,24.7114583 5.95826917,20.2611599 12.7130527,18.5169382 C16.2065628,4.32898798 27.4738495,-1.70570023 46.514913,0.412873538 C75.0765083,3.5907342 92.5089162,15.4982531 84.9807208,41.6999909 C78.0605389,41.6999909 69.7064003,39.1875636 58.1543631,43.4921609 C54.4889483,44.8579922 51.8673362,49.093555 50.2895268,56.1988493 L45.0692068,56.1988493 C40.0026663,47.7668075 35.007025,44.6682623 30.0822827,46.9032135 C25.1575405,49.1381648 24.0380665,54.5668704 26.7238608,63.1893303 L24.1523254,82.9909447 L18.5986291,82.9909447 Z" id="Hair" fill="#191847"></path>
                </g>
                <g id="Bottom/Skinny-Jeans-1" transform="translate(0.000000, 292.123698)">
                    <g id="Seat" transform="translate(0.000000, 75.271137)">
                        <g transform="translate(0.000000, 0.000000)" id="Seat-Stuff">
                            <polygon fill="#C5CFD6" points="49.3123865 0 187.228462 0 205.299861 222.229071 0 222.229071"></polygon>
                            <polygon fill-opacity="0.1" fill="#000000" points="49.3123865 0 91.7294078 0 117.116918 222.229071 0 222.229071"></polygon>
                        </g>
                    </g>
                    <path d="M344.463824,37.1990207 L344.978548,36.898452 C359.736323,28.5986117 383.838223,39.8698564 383.821487,52.4002087 C383.770798,90.3305804 349.289474,269.096286 347.489158,280.397011 C345.688843,291.697736 326.402946,294.682684 325.279866,280.434046 C323.492855,257.762056 320.172809,179.276352 323.49465,142.948226 C324.865939,127.951609 326.342752,113.669386 327.796633,100.927818 C309.705456,133.728172 281.721884,180.694308 243.848262,241.824259 L223.288721,232.394572 C239.433489,178.99494 252.671957,141.296221 263.004123,119.298415 C279.280006,84.6460768 294.622474,54.5727905 302.409521,41.1355761 L302.906592,40.2829461 C303.392815,39.4541498 303.846291,38.6972268 304.265181,38.0155214 C315.247276,20.1431869 334.363496,26.3794923 344.463824,37.1990207 Z" id="Skin" fill="#B28B67"></path>
                    <path d="M256.860171,220.960851 L265.773404,39.131374 C272.321838,7.69676916 328.096831,22.3591711 328.094925,39.209358 C328.090597,77.4644987 305.344023,209.586682 305.342733,220.984167 L256.860171,220.960851 Z" id="LegLower" fill="#1F28CF" transform="translate(292.477548, 120.821798) rotate(20.000000) translate(-292.477548, -120.821798) "></path>
                    <g id="Right-Shoe" transform="translate(259.389206, 252.656910) rotate(30.000000) translate(-259.389206, -252.656910) translate(207.617937, 233.839126)" fill="#E4E4E4">
                        <path d="M4.10351321,8.62055951 C1.36783774,15.4220197 -2.58945419e-14,20.3776962 -2.58945419e-14,23.4875891 C-2.58945419e-14,26.7193844 0.536304298,31.4353775 1.60891289,37.6355684 C5.34347545,37.6355684 38.906618,37.6355684 102.298341,37.6355684 C104.914902,28.951622 103.404471,24.2634388 97.7670478,23.5710188 C92.1296246,22.8785987 87.4465215,22.2533989 83.7177383,21.6954192 L35.617509,0.168571468 C35.4158678,0.0783286594 35.179249,0.168634913 35.0890062,0.370276131 C35.0873091,0.374068337 35.0856711,0.377886755 35.0840929,0.381729995 L31.5326538,9.03019771 L31.5326538,9.03019771 C26.3138744,11.4746406 22.0730744,12.6968621 18.8102536,12.6968621 C15.6820561,12.6968621 11.1474256,11.2002402 5.20636197,8.20699655 L5.20664296,8.20644068 C4.81233393,8.00711138 4.33109498,8.16517369 4.13176569,8.55948273 C4.12164464,8.57950397 4.11237024,8.59994208 4.10396709,8.62074287 Z" id="shoe"></path>
                    </g>
                    <g id="Right-Shoe" transform="translate(317.768480, 259.864639)" fill="#E4E4E4">
                        <path d="M4.10351321,8.62055951 C1.36783774,15.4220197 0,20.3776962 0,23.4875891 C0,26.7193844 0.536304298,31.4353775 1.60891289,37.6355684 C5.34347545,37.6355684 38.906618,37.6355684 102.298341,37.6355684 C104.914902,28.951622 103.404471,24.2634388 97.7670478,23.5710188 C92.1296246,22.8785987 87.4465215,22.2533989 83.7177383,21.6954192 L35.617509,0.168571468 C35.4158678,0.0783286594 35.179249,0.168634913 35.0890062,0.370276131 C35.0873091,0.374068337 35.0856711,0.377886755 35.0840929,0.381729995 L31.5326538,9.03019771 L31.5326538,9.03019771 C26.3138744,11.4746406 22.0730744,12.6968621 18.8102536,12.6968621 C15.6820561,12.6968621 11.1474256,11.2002402 5.20636197,8.20699655 L5.20664296,8.20644068 C4.81233393,8.00711138 4.33109498,8.16517369 4.13176569,8.55948273 C4.12164464,8.57950397 4.11237024,8.59994208 4.10396709,8.62074287 Z" id="shoe"></path>
                    </g>
                    <path d="M388.767193,65.2941767 C388.767193,112.906705 366.243525,223.968001 366.229272,234.451869 L317.76848,234.489238 C324.861639,135.390339 327.376819,85.3070963 325.314022,84.2395098 C322.219827,82.6381301 198.472904,96.6428179 161.359188,96.6428179 C107.841027,96.6428179 85.7016351,62.7625025 83.9051604,-5.68434189e-14 L189.922647,-5.68434189e-14 C211.508759,2.31882941 324.1039,25.1177216 365.919503,32.9551605 C383.821478,36.3105022 388.767193,52.1781508 388.767193,65.2941767 Z" id="Leg-and-Butt" fill="#2B44FF"></path>
                </g>
                <g id="Body/Long-Sleeve-1" transform="translate(65.927459, 65.908823)">
                    <path d="M199.099028,42.2321844 L266.765462,21.8401253 C279.388691,11.9752238 291.295293,4.76247091 302.485266,0.201866652 C305.739702,-0.413083285 311.127573,-0.0559352327 304.394754,7.61139282 C297.661935,15.2787209 290.92351,23.6475786 292.845843,26.8625223 C294.768176,30.077466 301.77223,27.6539138 303.799337,32.746579 C305.150741,36.1416891 293.546676,38.5733381 268.987141,40.0415258 L216.37515,71.125078 L199.099028,42.2321844 Z M193.119647,161.998066 L250.064956,203.977135 C265.509697,208.160917 278.413278,213.366248 288.775701,219.593128 C291.223485,221.832274 294.181862,226.366917 284.030309,225.583217 C273.878756,224.799517 263.165737,224.433514 261.76502,227.909539 C260.364303,231.385564 266.507473,235.542508 263.676013,240.232576 C261.788374,243.359288 252.870407,235.519174 236.922113,216.712234 L180.531318,193.237311 L193.119647,161.998066 Z" id="Skin" fill="#997659"></path>
                    <path d="M83.9156175,66.0256092 C128.893271,114.069156 183.72448,145.444496 258.491081,173.299663 L241.925995,206.583865 C164.804786,199.213511 123.572532,193.346917 91.2065083,145.241612 C83.0832926,133.168155 68.5391526,91.6387103 59.8293563,70.0712798 L83.9156175,66.0256092 Z" id="Coat-Back" fill="#2026A2" transform="translate(159.160219, 136.304737) rotate(15.000000) translate(-159.160219, -136.304737) "></path>
                    <path d="M17.9777018,242.344404 L155.439348,242.344404 C124.301983,147.010608 108.395835,81.5794165 107.720904,46.0508304 C107.686495,44.2395488 104.354277,41.0478147 102.880031,41.4658007 C92.0990267,44.5224872 80.5625015,43.3795644 68.2704551,38.0370324 C35.6825564,90.6522861 24.413096,155.432317 17.9777018,242.344404 Z" id="Shirt" fill="#F2F2F2"></path>
                    <path d="M257.058629,21.9075031 L264.337534,58.4202418 C208.61448,94.3981405 152.190208,122.268179 102.748704,118.309497 C124.220292,210.760304 123.230711,286.442476 75.8320456,286.442476 L2.53759348,286.442476 C-9.10325743,207.905972 21.4911767,99.0131322 49.8544417,44.0884631 C50.9375493,41.9910555 53.2435943,38.0370324 58.6752761,38.0370324 L79.9724815,38.0370324 C79.9818551,38.065366 79.9912274,38.0936995 80.0005984,38.1220329 C119.400971,38.4456064 183.330166,45.6697191 257.058629,21.9075031 Z" id="Coat-Front" fill="#1F28CF"></path>
                </g>
            </g>
        </g>
    </g>
</svg>