<?xml version="1.0" encoding="UTF-8"?>
<svg width="817px" height="800px" viewBox="0 0 817 800" version="1.1" xmlns="http://www.w3.org/2000/svg" xmlns:xlink="http://www.w3.org/1999/xlink">
    <title>组合8</title>
    <g id="Templates-🖥📱" stroke="none" stroke-width="1" fill="none" fill-rule="evenodd">
        <g id="组合8">
            <g id="Scene/Whiteboard备份" transform="translate(22.000000, 0.000000)">
                <g id="Background-Shape-2" opacity="0.504510789" transform="translate(38.716910, 396.470588)" fill="#F2F2F2">
                    <path d="M695.661198,180.935866 C705.806075,261.806504 459.775532,314.555654 248.011339,277.743294 C36.2471468,240.930934 -60.900224,97.1745162 40.150118,20.5754456 C141.20046,-56.023625 685.516321,100.065227 695.661198,180.935866 Z" id="Background-Shape"></path>
                </g>
                <path d="M453.746861,540.868148 C453.959165,542.92262 454.285714,544.929454 454.746861,546.868148 C454.086362,545.151967 453.79219,543.097495 453.746861,540.868148 Z M631.466615,289.329469 C630.919087,294.088352 628.527944,298.318121 625.749723,302.037584 C625.451922,302.431285 625.531835,302.415612 625.490006,301.843242 C625.43569,302.122217 625.330805,302.32471 625.183465,302.467646 C625.184714,304.987828 625.308953,307.574463 625.067966,309.791848 C624.377469,316.141831 623.299894,322.50874 621.893302,328.738982 C621.551175,330.254227 621.171589,331.755052 620.756417,333.240831 C623.416017,331.205251 626.949665,329.458049 628.324416,328.925802 C631.892401,327.545971 637.353322,326.140436 640.677199,328.969059 C643.434817,331.315587 643.368639,335.199928 640.884473,337.701304 C637.926448,340.679131 632.830129,340.297969 629.037389,339.793933 C628.85584,339.769785 628.590924,339.734546 628.264993,339.689184 L627.558233,339.588165 C624.470961,339.134898 618.555621,338.104129 620.420533,336.955906 C620.249469,337.010448 619.89111,337.14586 619.505281,337.335188 C619.264918,338.061777 619.014566,338.785233 618.755473,339.504927 C618.807916,339.539407 618.852243,339.575768 618.908431,339.610248 C618.847248,339.579529 618.804794,339.547557 618.751103,339.516838 C616.155807,346.710016 612.642138,353.504479 608.17763,359.799293 C609.752164,359.272688 611.374145,358.896541 613.005492,358.776801 C617.836475,358.421343 627.736931,362.67995 622.033774,368.788572 C618.53399,372.536397 614.132788,371.021715 609.898552,369.127591 L609.370219,368.889202 C609.194449,368.809316 609.019047,368.729125 608.844089,368.648981 L608.320626,368.409045 C606.493713,367.572245 604.72432,366.779648 603.101914,366.440163 C597.021043,374.05149 590.376412,381.302971 583.445219,388.285507 C583.839789,388.432204 584.17817,388.712434 584.358598,389.130583 C585.107608,388.798669 585.867457,388.422928 586.627011,388.04499 L587.537622,387.593072 C589.204205,386.772391 590.847808,386.021661 592.349886,385.784132 C595.896644,385.2243 603.113152,385.150325 605.599816,388.42907 C608.658356,392.460735 604.998596,395.413486 601.107214,395.952003 C595.464615,396.733134 588.294932,393.620521 583.016312,391.494665 C582.395738,391.571148 581.73396,391.356118 581.358744,390.843304 C581.241996,390.798167 581.125248,390.753656 581.011622,390.710399 C573.999267,397.652813 566.745925,404.341327 559.542528,410.877503 C559.615573,410.877503 559.688619,410.876876 559.764786,410.876876 C561.610898,409.799843 563.575631,408.93972 565.67709,408.545393 C570.538665,407.626969 576.186882,407.917228 579.900334,411.594689 C583.599426,415.256477 584.657023,421.37701 580.439121,425.050082 C571.996451,432.402496 561.08647,414.057823 557.072096,413.105545 C549.755698,419.674319 542.064083,425.766642 534.263837,431.722297 C535.125398,431.50852 536.005064,431.364331 536.908454,431.326089 C544.267931,431.008872 560.98533,440.887111 551.535632,449.248851 C546.492864,453.710975 541.430195,449.706907 536.876088,444.666561 L536.492456,444.238316 C536.428724,444.166586 536.365095,444.094692 536.301571,444.022654 L535.921704,443.588877 C535.669318,443.298767 535.418664,443.007028 535.169836,442.71499 L534.738953,442.207054 C532.665433,439.753071 530.724858,437.332324 528.973355,435.733901 C521.626365,441.280811 514.243164,446.78509 507.046635,452.52885 C510.849364,451.729538 514.481654,451.772795 518.43859,453.198391 C522.532877,454.675393 529.081362,458.168542 526.157051,463.647745 C523.182793,469.219731 515.257683,466.19802 511.154032,464.16432 C508.915847,463.055314 504.499412,459.476279 500.541852,457.858848 C489.025657,467.643677 478.922921,478.556318 471.022784,491.621146 C466.090661,499.778513 462.211765,508.566553 459.329282,517.656764 C457.489413,523.458826 453.953893,533.180337 454.156797,540.868148 C452.08031,525.39222 458.251707,507.259443 464.57856,493.855457 C470.395967,481.529758 478.693796,470.876657 488.255871,461.397134 C486.34483,454.454721 467.765086,443.612293 479.512903,437.871041 C485.750478,434.836791 491.667776,440.724114 492.684168,446.684158 C493.382157,450.779768 491.72896,455.793176 490.051414,459.644918 C493.05439,456.759873 496.164749,453.978268 499.360015,451.29885 C503.775826,447.595686 508.286533,444.011636 512.835948,440.477738 C506.017132,433.364177 500.239057,413.746875 510.020268,411.100683 C524.463272,407.206311 516.249102,433.121563 515.000464,437.993916 C514.718271,437.995797 514.503505,437.899252 514.351796,437.708671 C514.407985,438.163809 514.475411,438.650919 514.562191,439.143044 C523.267701,432.416915 532.089333,425.838109 540.648751,418.932684 C539.940773,418.349656 538.878806,416.208128 538.016621,415.052731 C536.070618,412.447915 534.220135,409.736524 532.920926,406.740516 C530.868789,402.006084 529.04203,394.530169 535.265246,392.134741 C542.033492,389.524283 544.739916,398.013287 544.525775,402.981557 C544.436622,405.043217 544.002695,407.024758 543.526469,409.00174 L543.206038,410.319881 C542.992665,411.199298 542.784215,412.08113 542.607241,412.972013 C542.545059,413.284591 542.531986,413.932089 542.508416,414.628433 L542.498288,414.908897 L542.486192,415.190503 C542.417153,416.641407 542.235397,417.975102 541.414791,416.6664 C541.442886,417.420574 541.424156,417.964733 541.370465,418.348402 C542.907539,417.102103 544.434,415.840758 545.95172,414.569382 C545.893658,414.395728 545.853702,414.207655 545.853702,413.991997 C545.853702,412.507472 547.373295,412.015346 548.395306,412.50371 C550.399995,410.789108 552.387204,409.050684 554.342572,407.274018 C558.486804,403.510043 562.694092,399.635733 566.878281,395.673028 C566.056676,394.888762 566.452495,393.883196 565.688952,393.056301 C564.926658,392.231286 563.367108,391.715338 562.460597,390.938595 C560.180582,388.983886 558.350078,386.214193 557.062732,383.51534 C554.937549,379.056122 552.374093,369.801033 559.354608,368.094581 C566.549889,366.332334 569.686469,375.276475 569.855035,380.774485 C569.888124,381.839607 568.593286,391.35361 567.803522,394.791591 C575.547579,387.425385 583.186126,379.762024 590.15353,371.923127 C588.171941,371.80088 582.764087,367.444474 581.685887,366.276539 C579.055005,363.427855 574.960719,357.223316 579.987114,354.316956 C584.455992,351.739724 589.570416,356.07983 591.211752,360.123406 C591.481458,360.789186 592.235635,366.894046 592.176949,369.612333 C595.065051,366.284689 597.829537,362.930087 600.414843,359.554798 C602.138589,357.311083 603.760571,355.000289 605.288905,352.633699 C604.961761,352.424938 604.662088,352.075121 604.384266,351.64506 C597.240179,350.04393 588.639556,338.315676 597.311352,334.84635 C601.439976,333.196947 605.610429,337.266854 607.420331,340.514881 C607.791177,341.179406 608.276897,344.448121 608.676461,347.027233 C613.129107,339.15511 616.656511,330.75889 619.459705,322.107517 C618.84038,321.918816 618.334057,321.411645 618.307212,320.583496 C614.912163,318.40498 612.235706,316.598849 609.993775,312.634263 C608.600919,310.171756 606.152963,304.584097 610.681775,303.495153 C616.57535,302.078334 619.756257,311.133438 620.002239,315.524323 C620.030958,316.034002 619.951669,317.50787 619.861767,318.85761 C620.064671,318.840683 620.268199,318.854475 620.466108,318.900239 C622.08372,313.537015 623.435995,308.089784 624.571008,302.621866 C621.456903,301.436377 621.780925,284.772453 624.014115,282.514319 C629.006173,277.457654 631.930484,285.293416 631.466615,289.329469 Z M645.94729,304.834517 C642.661907,311.572193 631.845704,311.090703 625.746861,310.634117 C626.061125,310.634117 626.818868,308.999415 627.580205,307.282613 L627.808275,306.766662 C628.452283,305.30662 629.067107,303.899437 629.382602,303.498604 C631.517165,300.785909 634.485231,298.894429 637.58172,297.553408 C642.618268,295.376482 649.014478,298.542571 645.94729,304.834517 Z" id="Leaf-Bottom" fill="#F2F2F2" transform="translate(550.246861, 413.868148) scale(-1, 1) rotate(-3.000000) translate(-550.246861, -413.868148) "></path>
                <path d="M80.9970115,218.484568 C81.2093149,219.854217 81.5358644,221.192106 81.9970115,222.484568 C81.336512,221.340448 81.0423399,219.9708 80.9970115,218.484568 Z M210.854876,37.061764 C210.455094,40.5028019 208.70918,43.5612505 206.680638,46.2507088 C206.463196,46.5353843 206.521545,46.5240516 206.491003,46.1101842 C206.451344,46.3119049 206.374761,46.4583224 206.26718,46.561676 C206.268091,48.3839619 206.358806,50.2542981 206.182847,51.8576377 C205.678674,56.4491636 204.891873,61.0529288 203.864838,65.5578734 C203.615031,66.6535115 203.337873,67.7387235 203.034731,68.8130563 C204.976662,67.3411751 207.556786,66.0778142 208.560572,65.6929583 C211.165768,64.6952341 215.153107,63.6789244 217.580064,65.7242363 C219.593564,67.4209568 219.545243,70.2296343 217.731407,72.038321 C215.571579,74.1915196 211.850458,73.9159102 209.081155,73.551453 C208.632081,73.492301 207.484391,73.3411033 206.272699,73.1251144 L205.888672,73.0547854 C203.837076,72.66855 201.79342,72.1066675 202.789483,71.4993415 C202.664579,71.538779 202.40292,71.6366929 202.121204,71.773591 C201.9457,72.2989714 201.762904,72.8220853 201.573725,73.3424794 C201.612017,73.3674112 201.644382,73.3937029 201.685409,73.4186346 C201.640735,73.3964227 201.609737,73.3733041 201.570534,73.3510922 C199.675556,78.5523133 197.11002,83.4652324 193.850221,88.0168674 C194.99988,87.6360912 196.184184,87.3641083 197.375326,87.277527 C200.902711,87.0205031 208.131615,90.0998037 203.967405,94.5168072 C201.571719,97.0574001 198.597557,96.2535816 195.687692,95.0146666 L195.20342,94.8046509 C193.430747,94.0234799 191.695422,93.1401805 190.144142,92.8187268 C185.704141,98.3223023 180.852506,103.565681 175.791635,108.614591 C176.079733,108.720665 176.326805,108.923292 176.458547,109.225646 C176.852312,109.052846 177.25018,108.863619 177.649116,108.669198 L178.447514,108.276762 C179.777556,107.622256 181.096995,106.993271 182.293455,106.805904 C184.883152,106.401103 190.152347,106.347613 191.968007,108.718398 C194.201227,111.633602 191.529021,113.768669 188.687694,114.158058 C184.567702,114.722876 179.332695,112.472216 175.478464,110.935059 C175.025347,110.990363 174.542144,110.834879 174.268177,110.464075 C174.182932,110.431438 174.097688,110.399253 174.014723,110.367975 C168.894591,115.387874 163.598499,120.224184 158.338876,124.950342 L158.50116,124.949889 C159.849115,124.171111 161.283682,123.549176 162.81808,123.264047 C166.367802,122.599956 170.491897,122.809836 173.203306,125.468923 C175.90423,128.116677 176.676444,132.542293 173.596706,135.198207 C170.074141,138.236127 165.963321,135.206792 162.539847,131.923754 L162.147954,131.544147 C159.750984,129.200372 157.726847,126.841356 156.535069,126.561388 C151.192937,131.311117 145.576837,135.716335 139.88142,140.022732 C140.510496,139.868155 141.152792,139.763895 141.81241,139.736243 C147.185996,139.506871 159.392351,146.649597 152.492572,152.695778 C148.350496,156.325371 144.190031,152.207919 140.560501,147.991696 L140.210932,147.583623 L139.864788,147.176473 L139.522181,146.771788 C138.272572,145.294342 137.096507,143.897653 136.018528,142.92343 C130.654059,146.934272 125.26315,150.91429 120.008542,155.06747 C122.785138,154.489506 125.437286,154.520784 128.326477,155.5516 C131.315956,156.619586 136.09739,159.145401 133.962178,163.107287 C131.790498,167.136261 126.00391,164.951331 123.007594,163.48081 C121.373363,162.678913 118.148665,160.090995 115.259017,158.921469 C106.850367,165.996652 99.4737664,173.887332 93.7054124,183.334207 C90.1041798,189.232611 87.2719699,195.58704 85.1673001,202.159962 C83.8239036,206.355299 81.2424124,213.384699 81.3905644,218.943578 C79.8743999,207.753292 84.3804992,194.641899 89.0001057,184.949786 C93.2477367,176.037357 99.3064687,168.334346 106.288301,161.479922 C105.883646,160.024151 104.455426,158.331217 102.840545,156.559858 L102.504042,156.192303 C102.052553,155.700876 101.591251,155.204315 101.137706,154.70595 L100.799276,154.331891 L100.495986,153.992037 L100.197682,153.652117 C97.194435,150.196722 95.1551008,146.767327 99.9045468,144.468747 C104.458966,142.274751 108.779534,146.531738 109.521661,150.841308 C110.031304,153.802749 108.824207,157.427829 107.599332,160.212934 C109.791982,158.126825 112.063037,156.115511 114.396089,154.178086 C117.620332,151.500413 120.913864,148.908869 124.235659,146.353589 C119.256841,141.209937 115.037929,127.025119 122.179766,125.111718 C132.725451,122.295788 126.727804,141.034508 125.816099,144.557594 C125.610054,144.558954 125.453241,144.489145 125.342469,144.351341 C125.383495,144.68044 125.432727,145.032658 125.496091,145.388502 C131.852494,140.524994 138.293686,135.768011 144.54342,130.774857 C144.026484,130.353284 143.251079,128.804794 142.621547,127.969353 C141.200656,126.085871 139.84951,124.125327 138.900882,121.958983 C137.402495,118.535624 136.068672,113.129962 140.612607,111.397884 C145.554501,109.510322 147.53062,115.648524 147.374263,119.240966 C147.26577,121.72553 146.458,124.049172 145.973429,126.464834 C145.928026,126.690852 145.91848,127.159043 145.901271,127.662553 L145.886247,128.043575 C145.836744,129.10241 145.706755,130.090084 145.102751,129.13616 C145.123264,129.681486 145.109589,130.074954 145.070386,130.352377 C146.192694,129.451207 147.307252,128.539157 148.415429,127.619855 C148.373035,127.494289 148.34386,127.358298 148.34386,127.202361 C148.34386,126.128935 149.453405,125.77309 150.199635,126.126215 C151.663376,124.886426 153.114354,123.629411 154.542083,122.344745 C157.56803,119.623102 160.640018,116.821677 163.69514,113.956337 C163.095239,113.389252 163.384249,112.662151 162.826742,112.064242 C162.270146,111.467693 161.131427,111.094623 160.46953,110.532978 C158.804757,109.119573 157.468199,107.116872 156.528231,105.165394 C154.97651,101.941036 153.104781,95.2488947 158.201665,94.0149986 C163.455362,92.7407583 165.745563,99.2080601 165.868643,103.183545 C165.892804,103.95371 164.947366,110.833066 164.370713,113.31899 C170.025104,107.992657 175.602456,102.451457 180.689767,96.7833319 C179.242892,96.6949375 175.2943,93.5449213 174.507043,92.7004142 C172.586082,90.6405965 169.596603,86.1542373 173.266669,84.0527156 C176.52966,82.1891789 180.264001,85.3274091 181.462436,88.2512261 C181.659365,88.7326359 182.210034,93.1469196 182.167184,95.1124499 C184.275956,92.7063072 186.29447,90.2806724 188.182154,87.8400785 C189.440762,86.2177 190.625066,84.546818 191.740993,82.8355918 C191.502126,82.6846412 191.283317,82.4316971 191.080463,82.1207299 C185.864146,80.962989 179.584325,72.4825599 185.916113,69.9739703 C188.930664,68.7813249 191.975756,71.7241807 193.297272,74.0727537 C193.568048,74.5532569 193.922701,76.916789 194.214447,78.7816856 C197.465585,73.0895352 200.04115,67.018422 202.087926,60.7628136 C201.635721,60.6263688 201.266025,60.2596451 201.246423,59.6608292 C198.767499,58.0855945 196.81326,56.779623 195.176295,53.9129224 C194.159289,52.1323406 192.371892,48.0920335 195.678644,47.3046428 C199.981889,46.2801736 202.304456,52.8277104 202.484062,56.0026583 C202.505031,56.3711952 202.447138,57.4369151 202.381495,58.4128807 C202.529647,58.4006415 202.678255,58.4106142 202.82276,58.4437054 C204.003873,54.5656815 204.991249,50.6269148 205.819989,46.673189 C203.546198,45.8159893 203.782785,33.7666903 205.413368,32.1338858 C209.058363,28.4775281 211.193575,34.1433867 210.854876,37.061764 Z M220.677794,47.8588384 C218.331092,52.6714644 210.605232,52.3275425 206.248916,52.0014097 C206.686641,52.0014097 208.328887,47.5614418 208.845874,46.9046148 C210.370562,44.9669752 212.490609,43.6159186 214.702387,42.658046 C218.299921,41.1030993 222.868643,43.3645911 220.677794,47.8588384 Z" id="Leaf-Top" fill="#C1DEE2" transform="translate(151.122964, 126.714073) rotate(-3.000000) translate(-151.122964, -126.714073) "></path>
                <g id="Plant-Right" opacity="0.7" transform="translate(536.918429, 328.000000)">
                    <path d="M79.9047528,113.040378 C66.2530447,113.763024 50.2943362,123.453253 50.3969417,138.364313 C50.4717916,149.198479 51.9215094,159.856965 51.4184788,170.735674 C51.0157194,179.430065 49.1251777,187.934396 46.1884145,196.124248 C43.3645394,203.999655 36.5431303,211.167853 35.436189,219.380461 C34.7305556,224.613392 36.1801359,231.717944 38.4174204,236.528898 C41.1381257,242.378219 39.9806746,242.014971 36.3655703,247.542924 C29.2817053,258.37603 23.0341453,269.378157 19.1082064,281.839931 C13.4530146,299.789359 10.6714461,320.367962 15.4148106,338.86673 C16.0178728,341.21586 17.3353725,349.734582 20.6839214,349.987756 C24.4238591,350.27121 22.1932685,345.554422 21.8310908,343.993101 C19.5216852,334.030746 17.4849615,325.324509 17.9135797,314.914948 C19.5678962,274.751412 45.2035015,245.709474 60.1509621,210.198324 C60.9846805,208.360426 62.6955789,204.012856 63.9005736,201.136619 C65.8029769,196.595678 67.3104972,188.177093 70.1621387,184.658557 C75.5325909,178.03009 71.2830113,190.667575 70.3556501,193.092328 C69.1832784,196.159421 67.8821244,199.424932 66.6353083,202.135537 C60.9464558,214.690583 54.5660296,228.413437 48.6881887,241.356913 C80.3924105,245.15732 98.2859955,205.641673 104.022858,180.295993 C108.749645,159.413931 111.985935,111.412785 79.9047528,113.040378" id="Leaf-Me-Alone!" fill="#69A1AC" transform="translate(60.000000, 231.500000) scale(-1, 1) rotate(6.000000) translate(-60.000000, -231.500000) "></path>
                    <path d="M210.80537,78.1211996 C187.982635,79.932006 173.33094,94.991753 166.510526,116.055531 C162.834567,127.406956 162.413232,139.068178 160.370472,150.73361 C157.297501,168.284374 150.685653,181.584667 137.763871,194.088576 C133.761608,197.961058 130.812263,201.937087 128.715679,206.190925 C124.553629,210.438027 120.930652,215.244115 118.268925,221.120186 C114.86881,228.624383 113.90672,237.627904 117.832452,245.109372 C118.887892,247.120537 121.521026,251.158021 124.250033,252.992399 C114.032868,274.752382 108.415067,298.584143 109.048331,322.385598 C109.430981,336.75335 110.132365,351.126994 110.950647,365.477066 C111.170985,369.330186 112.42574,375.692843 114.310394,369.230849 C116.035261,363.320262 113.872239,354.041458 113.672084,347.866532 C112.69822,317.785763 111.865642,290.435094 124.248351,262.330974 C125.546836,259.385362 126.923534,256.463322 128.357419,253.564853 C128.441517,253.516026 128.519729,253.457097 128.598782,253.399851 C128.653446,253.441944 128.703065,253.487403 128.757729,253.528654 C128.849397,253.365336 128.974704,253.17087 129.121036,252.953674 C129.532279,252.529385 129.891381,251.99313 130.232822,251.394579 C131.331152,249.872525 132.574133,248.084448 132.580861,247.105384 C132.580861,247.097807 132.576656,247.086022 132.576656,247.078445 C140.242263,234.565276 149.022178,222.741577 157.990476,211.149386 C157.923197,211.23357 167.718185,197.897078 166.203566,205.272473 C165.473588,208.826738 158.268843,215.595164 155.359024,219.35989 C148.922101,227.735396 141.3633,238.347681 135.081959,248.609759 C134.236766,249.095503 133.042563,251.480447 132.178869,253.256738 C131.702028,254.156669 131.257146,255.064177 130.819832,255.854668 C153.076582,263.208176 170.390004,248.395931 182.195796,231.167594 C182.210092,231.147389 182.222707,231.126343 182.236163,231.106139 C185.828864,226.345511 189.509028,221.618557 194.10671,217.855515 C201.777363,211.576201 209.992135,210.468334 219.036121,207.377925 C243.699779,198.951066 254.18606,166.987092 257.516373,143.269822 C261.273908,116.512653 242.894113,75.4828606 210.80537,78.1211996" id="Leaf-Me-Alone!" fill="#89C5CC"></path>
                    <path d="M187.087285,8.28187838 C160.498481,29.1635113 144.586107,61.0733802 131.288496,91.3053591 C116.436639,125.071454 104.873047,159.852852 99.4843227,196.372108 C95.9443747,220.365462 91.8946121,244.44009 89.9250364,268.625714 C89.2249833,277.215152 88.8748455,285.868946 89.0407006,294.486685 C89.0545865,295.194866 89.4310473,314.437622 92.9380414,310.458848 C94.9325477,308.196212 92.5847722,290.502543 92.6250129,287.616161 C92.8548439,271.35938 94.6480975,255.202131 97.0075499,239.126854 C100.892071,212.659438 103.8149,186.195152 110.209077,160.179766 C111.163144,156.295431 112.0616,152.201098 113.539379,148.477679 C115.109085,144.518959 113.591965,146.130097 117.057176,144.962594 C120.424285,143.827288 124.27953,144.598829 127.821221,143.078763 C141.869801,137.048323 151.32577,117.815648 158.339102,105.310098 C166.360518,91.0095004 172.210631,75.380055 177.309925,59.8610252 C181.055021,48.4585852 184.191433,37.0431561 186.706808,25.3142977 C187.499429,21.6177491 188.064185,17.7150456 189.314089,14.1464607 C189.650899,13.1838012 190.889167,11.5711488 190.976475,10.6889811 C191.161137,8.82194319 190.19407,7.57272465 190.321563,6 C189.227765,6.73737876 188.148642,7.49851591 187.087285,8.28187838" id="Leaf-Me-Alone!" fill="#89C5CC" transform="translate(140.000000, 158.500000) rotate(-8.000000) translate(-140.000000, -158.500000) "></path>
                    <path d="M38,328 C38,368.316787 70.6832133,401 111,401 C151.316787,401 184,368.316787 184,328" id="Base" fill="#89C5CC"></path>
                    <path d="M161.027565,264.084806 C179.094613,262.752829 199.271153,277.328505 207.986064,292.49664 C215.01153,304.726145 213.827993,320.785081 209.488635,333.777767 C206.582823,342.476182 200.240879,354.878099 189.6648,354.998958 C176.432916,355.150242 175.794849,338.796344 175.538949,329.235863 C175.198872,316.525461 173.592762,305.452985 163.577306,296.789222 C161.24306,294.770973 158.691635,292.995286 156.33382,291.004928 C155.982198,290.708236 155.627056,290.410869 155.271843,290.111195 L154.739402,289.65975 C151.549609,286.938247 148.493754,283.963757 148.086094,279.546212 C147.429508,272.435859 151.443098,271.156282 157.571231,272.477271 C158.615876,272.702085 169.138923,277.424009 167.580795,273.69177 C167.105191,272.551646 165.367764,271.648167 163.174937,270.971192 C157.500522,270.354223 150.733481,269.63837 148.787294,270.066022 C127.791706,274.672159 119.617215,303.755053 117.446273,322.232845 C117.21196,324.227477 117.022484,326.228615 116.857255,328.232828 L112.999987,328.232604 C113.26763,323.393002 113.621136,318.561868 114.430188,313.776147 C117.524558,295.473303 127.199937,268.591213 148.420279,265.620466 C149.203131,265.50975 152.082849,265.491157 155.57117,265.695686 C157.224419,264.771923 159.076327,264.213271 161.027565,264.084806 Z" id="Leaf-Me-Alone!" fill="#69A1AC"></path>
                </g>
                <g id="Plant-Left" opacity="0.5" transform="translate(0.000000, 199.000000)">
                    <path d="M178.22298,111.444518 C182.425309,105.452509 190.223629,90.2347729 196.138329,88.0936482 C199.947942,86.7145659 198.837195,100.980115 198.884241,103.700243 C199.067454,114.223987 198.04293,124.681002 196.777726,135.11639 C194.498335,153.936569 187.044926,170.697369 176.822023,186.715278 C171.561534,194.957467 165.391397,203.299596 156.84547,208.442327 C152.911771,210.810658 148.178543,211.207195 144.293769,213.247706 C139.769382,215.623126 142.233354,213.702848 140.194367,218.417487 C137.362802,224.963133 136.457106,233.407714 135.146985,240.392151 C129.131553,272.454512 114.568305,441.944513 117.093014,474.558062 C117.317249,477.448784 113.286509,478.140055 113.085292,474.611088 C112.015789,455.899518 121.270437,326.322179 125.939564,283.946664 C130.608691,241.571148 135.333634,204.134499 140.071325,189.473898 C145.818851,171.687472 156.199212,150.297922 164.840137,133.71131 C168.853782,126.005544 173.228734,118.565238 178.22298,111.444518 Z" id="Leaf" fill="#69A1AC"></path>
                    <path d="M209.414132,319.277765 C220.349167,311.249697 232.185522,326.401056 222.290441,334.430358 C216.820206,338.868469 211.101395,337.289712 207.88186,333.591199 C205.791868,336.13879 203.835706,338.802543 201.956089,341.052489 C196.229376,347.9085 190.816767,354.92815 185.643881,362.111477 C174.898009,377.034662 165.688992,392.800688 156.060308,408.278421 C146.558057,423.5541 137.131786,438.908021 128.519073,454.570722 C121.222883,467.840829 111.497988,483.452044 109,498 C112.790111,467.146303 127.171863,437.490438 144.298022,410.29054 C161.284824,383.314089 180.779154,353.852808 207.081026,332.563583 C204.404139,328.627042 204.329828,323.00793 209.414132,319.277765 Z" id="Leaf" fill="#C1DEE2"></path>
                    <path d="M1.9131966,244.030768 C8.03244063,245.227492 18.0312164,259.070175 23.0752982,264.344345 C29.0698505,270.611956 34.5083971,277.292338 39.6348672,284.291716 C50.6711078,299.357587 60.5410853,315.375735 68.9339235,332.079859 C82.6164473,359.310923 93.5779281,387.264554 101.533144,416.917658 C106.40282,435.069395 109.555733,453.882964 111.42432,472.565152 C111.77721,476.088501 115.4712,503.252852 110.148387,503.985007 C105.361077,504.644266 106.839698,483.358557 106.608745,480.463176 C103.998072,447.797866 96.1772343,416.014794 85.2985211,385.226103 C82.9289815,378.519078 80.7275953,370.304171 76.9381423,364.268497 C74.2092052,359.921096 76.9185722,361.437175 72.1228242,359.791894 C68.0049102,358.378312 63.3131333,358.72373 59.0962962,356.993389 C49.9356343,353.236662 42.6005721,345.943735 36.1708879,338.607909 C23.6757579,324.351374 13.774003,308.928035 8.61263648,290.66039 C5.74946717,280.531578 3.11836073,270.343849 1.65825821,259.901833 C1.28055511,257.202878 -2.02816228,243.259967 1.9131966,244.030768 Z" id="Leaf" fill="#69A1AC"></path>
                    <path d="M26.061363,13.7160319 C49.111288,53.6904115 68.0527721,97.6012194 80.2834249,142.076227 C87.6937407,169.023152 92.875997,196.674657 98.0249813,224.126418 C105.997255,266.632047 113.538111,309.134396 115.683127,352.395051 C117.841152,395.906414 122.108499,446.091658 107.860834,488 C114.977614,445.451647 108.201957,400.162237 107.002263,357.34982 C106.428958,336.911865 104.767627,316.673726 102.588271,296.3552 C100.473423,276.645138 97.0183596,257.028931 93.8009172,237.47379 C92.2336415,227.950082 90.5876488,218.440705 88.9117997,208.936528 C88.4115013,206.100946 88.2001646,197.686783 86.4014385,195.749671 C84.5910631,193.799805 75.3542884,193.004911 72.454369,191.574216 C66.6149274,188.69262 61.1221445,184.599523 56.2608889,180.274642 C46.9417982,171.983953 38.8346584,161.151161 32.435855,150.472492 C17.6306837,125.76373 11.7115834,95.6100441 12.0107586,66.9941546 C12.0682413,61.4382419 21.003398,1.60995132 17.4148953,0.786066265 C17.6309536,0.533029377 17.8353283,0.27176118 18.0280364,0 C20.7448404,4.54878452 23.4108122,9.12839556 26.061363,13.7160319 Z" id="Leaf" fill="#89C5CC"></path>
                    <path d="M274.846162,157.887288 C275.201814,157.374304 277.516546,153.806661 276.35092,154.034666 C278.724178,153.570439 273.086653,157.969398 279,155.270217 C276.192302,157.921907 277.812715,161.366495 277.85019,164.93538 C277.91133,170.729664 276.941861,176.476433 275.850557,182.146394 C274.126127,191.108872 271.55719,199.823019 267.828427,208.1592 C259.70147,226.325634 245.90148,243.814146 229.518328,255.171668 C221.430419,260.779333 213.503908,262.688536 204.279644,265.270093 C198.453207,266.901031 197.991162,269.91496 194.898475,275.568863 C188.459734,287.344734 182.135661,299.078246 176.457263,311.251437 C169.676879,325.787507 163.094762,340.339599 156.885915,355.131559 C135.969422,404.957486 118.945337,456.577892 110.004808,510 C109.785907,478.518515 117.068634,446.095278 126.255091,416.088186 C132.946871,394.2257 141.658313,373.150925 150.949917,352.289498 C153.201461,347.235572 156.613471,340.734509 157.569628,335.154756 C158.23913,331.245304 156.192265,327.485558 155.255097,323.367253 C151.601499,307.329812 151.862999,289.362708 155.071402,273.239515 C158.608912,255.460636 168.839228,247.208854 186.145128,244.690591 C192.474243,243.769436 200.51871,244.107045 206.322196,241.408429 C212.645007,238.469723 215.253262,228.810237 218.848644,222.609606 C228.505717,205.953401 239.979718,189.979083 253.15504,175.944848 C256.803162,172.05859 260.726377,168.473254 264.88847,165.150086 C267.513083,163.053353 273.057504,160.47018 274.846162,157.887288 Z" id="Leaf" fill="#89C5CC"></path>
                    <path d="M80.7914533,476 L142.208547,476 C144.96997,476 147.208547,478.238576 147.208547,481 C147.208547,481.244141 147.190665,481.487955 147.155046,481.729484 L142.408062,513.917935 C140.96096,523.730477 132.540739,531 122.622066,531 L100.377934,531 C90.4592609,531 82.03904,523.730477 80.5919379,513.917935 L75.8449542,481.729484 C75.4420714,478.997608 77.3300935,476.456384 80.0619696,476.053501 C80.3034985,476.017881 80.547312,476 80.7914533,476 Z" id="Base" fill="#C1DEE2"></path>
                </g>
                <g id="Maceta" transform="translate(10.000000, 643.000000)" fill="#F2F2F2">
                    <path d="M15.4177215,48.4556962 C15.4177215,69.7431274 17.0976047,87 39.6455696,87 C62.1935345,87 63.8734177,69.7431274 63.8734177,48.4556962" id="Base"></path>
                    <path d="M46.353417,35.1741665 C45.5269187,36.603205 44.7899627,38.0608242 44.1390143,39.5403256 C44.1160396,36.4933476 44.2845204,33.4240409 44.7446025,30.3127562 C45.5310424,24.9833358 46.7322042,19.6816031 47.8609075,14.3883552 C48.6720893,10.5844334 48.6208382,3.75184321 51.6994412,0.720495335 C52.5436123,0.0653705071 52.7468496,1.35061199 52.7468496,1.90838357 C52.7574533,2.02627925 52.7444932,-0.368253357 51.9250641,0.0488472497 C47.0544384,2.56440155 45.4762567,10.4741295 43.916926,14.4343524 C41.6418466,20.2148131 39.7060851,26.1238872 38.9090415,32.1379063 C38.7075715,33.6571528 38.5980001,35.1759528 38.5726691,36.6920733 C38.4071338,36.2865836 38.2516131,35.877968 38.0795978,35.473818 C35.2684432,28.8805917 31.4746806,22.4472391 26.743081,16.51405 C25.578443,15.0541979 10.9341658,0.649489986 9.78778975,2.85422841 C9.90089571,3.17442235 10.1377113,3.44013419 10.4988257,3.65136394 C10.5200331,3.67547897 10.5206222,3.66208173 10.5082512,3.62635577 C11.3683278,5.01564911 13.8136552,7.16143971 14.5753532,8.37880186 C16.4922637,11.4423031 17.9820814,14.6933656 19.4960519,17.8823543 C22.69483,24.6216105 25.6620943,31.428746 28.5386382,38.2501718 C29.2084376,39.839084 29.9065135,41.4190647 30.6187276,42.994133 C23.2768544,32.4045113 13.4825846,22.7906549 -1.42108547e-14,17.2870705 C4.60494447,19.6298004 7.62404905,24.037491 10.733874,27.4122547 C14.4846328,31.4827815 18.4350943,35.4438975 22.1929222,39.5099586 C26.6252623,44.3066155 31.8405077,49.35782 36.1037779,54.6658048 C40.2333239,63.3356026 44.2462293,72.0147785 46.7233678,81.1284714 C45.7083596,77.9796744 46.6438402,73.6282523 46.4700576,70.3236008 C46.3322097,67.6932768 46.0247028,65.0843884 45.6035009,62.4804124 C46.1242596,63.6549034 46.5731489,64.8302875 46.7763862,65.923502 C46.5908217,64.089867 46.3769808,62.2678429 46.1472343,60.4551969 C46.7369169,58.7582137 47.3159959,57.1746605 47.7071541,55.8702163 C49.7118395,49.1787436 52.0988467,42.6024871 55.349465,36.192803 C58.3573768,30.263633 61.8076979,24.4099342 65.5672931,18.7348651 C67.3210246,16.088911 69.0989091,13.4527816 70.8656007,10.8121864 C72.0219914,9.08349646 73.1230073,6.31562756 74.733,4.65928264 C64.3260729,14.1739995 52.9559778,23.7574888 46.353417,35.1741665" id="Fill-27"></path>
                </g>
                <g id="Top-Leaves" transform="translate(549.918429, 0.000000)" fill="#F2F2F2">
                    <path d="M211.459988,136.913619 C211.697988,126.527619 207.442988,116.955619 202.732988,107.921619 C193.563988,90.3346193 188.977988,79.8126193 190.459988,58.9256193 C191.331988,46.6416193 192.373988,33.6626193 186.103988,22.5076193 C181.538988,14.3846193 171.962988,5.69461932 161.850988,7.16361932 C145.843988,10.8096193 136.907988,26.0616193 133.481988,41.2056193 C129.235988,59.9756193 134.097988,73.9796193 148.271988,86.0066193 C156.258988,92.7816193 160.763988,99.7606193 162.941988,110.078619 C164.684988,118.329619 164.189988,127.791619 167.170988,135.726619 C171.627988,147.588619 179.674988,154.832619 191.778988,157.035619 C187.410988,133.523619 181.274988,109.229619 171.435988,87.4316193 C170.552988,85.2746193 164.205988,76.0546193 166.846988,73.7256193 C169.755988,71.1616193 174.556988,85.9036193 174.518988,85.8116193 C177.307988,92.3626193 179.660988,99.1256193 181.922988,105.916619 C181.910988,105.918619 181.897988,105.917619 181.884988,105.919619 C184.219988,112.892619 186.494988,119.937619 188.667988,127.028619 C189.511988,130.003619 190.301988,132.995619 191.003988,136.027619 C192.033988,140.476619 192.155988,152.193619 195.076988,155.672619 C195.701988,156.416619 196.337988,156.925619 196.978988,157.258619 C198.148988,162.164619 199.240988,167.081619 200.197988,172.008619 C202.696988,184.876619 204.141988,198.075619 202.521988,211.160619 C202.048988,214.979619 197.189988,228.261619 198.799988,231.652619 C201.742988,237.854619 203.397988,228.290619 204.025988,225.445619 C209.218988,201.883619 207.341988,179.762619 201.675988,156.694619 C206.884988,153.106619 211.362988,141.121619 211.459988,136.913619" id="Leaf" transform="translate(171.734760, 120.352443) rotate(-18.000000) translate(-171.734760, -120.352443) "></path>
                    <path d="M115.85853,100.65925 C108.257019,101.771171 101.081536,111.378886 97.541036,117.784796 C93.1599315,125.711405 90.104439,134.755685 87.8025125,143.463054 C84.0100599,157.806497 83.4975663,173.726407 83.4506116,188.416535 C83.4448854,190.186755 83.0755464,211.810007 85.6036573,211.455273 C88.1082908,211.103988 86.5221374,188.659157 86.7357241,184.011394 C87.1903832,174.09264 86.510685,164.31072 88.8372342,154.517877 C91.2456677,144.377773 95.6617019,134.821802 101.24187,126.063265 C101.958215,124.939269 103.473937,120.760077 105.195801,121.725391 C106.879872,122.669432 102.214748,128.236513 101.552229,129.318538 C98.8168301,133.786922 96.4416084,138.518625 94.4746637,143.379689 C90.7892908,152.487211 88.8744544,162.017885 88.9397329,171.831426 C94.724898,172.719698 99.7650864,169.33219 101.705691,163.687492 C103.382318,158.808606 103.546087,153.133437 105.450616,148.52017 C106.762485,145.343087 108.849107,142.644924 111.400695,140.363587 C118.131826,134.346332 125.159001,132.841156 127.165456,122.85456 C128.738439,115.02569 126.785237,99.0684087 115.85853,100.65925" id="Leaf" transform="translate(105.535828, 156.004078) scale(-1, 1) rotate(58.000000) translate(-105.535828, -156.004078) "></path>
                    <path d="M29.3523143,41.0512563 C40.3903669,40.2462156 52.7172123,49.0556901 58.0415826,58.2232442 C62.3337871,65.6147029 61.6107055,75.3206535 58.9595774,83.1733759 C57.1842731,88.4306594 53.3096661,95.9263239 46.8482165,95.9993701 C38.7642046,96.0908055 38.3743782,86.2065813 38.2180362,80.4282689 C38.0102659,72.7461579 37.0290143,66.0540017 30.910077,60.8176615 C29.4839707,59.597841 27.9251794,58.5246237 26.4846732,57.3216599 C24.2290287,55.4388046 21.7362997,53.5109978 21.4457299,50.3960624 C21.0445893,46.0985958 23.4966899,45.3252255 27.240669,46.1236256 C27.878894,46.2595018 34.3079438,49.1134119 33.3560062,46.8576634 C33.0654364,46.1685771 32.0039566,45.6225184 30.6642498,45.2133575 C30.3392392,45.1783988 30.0083614,45.1429148 29.6745935,45.1075242 L29.0040863,45.0370509 C25.977401,44.7221319 22.8773648,44.4481921 21.8741275,44.6662772 C9.04688492,47.450206 4.05268426,65.0277791 2.72634882,76.1956755 C2.57618831,77.4602301 2.45616882,78.7291115 2.35177061,79.9999262 L-4.75510154e-05,80.0008615 C0.164716163,77.0159735 0.379303579,74.0359397 0.883673399,71.0844844 C2.77417712,60.0223263 8.68534409,43.7749092 21.6499002,41.9794028 C22.1281833,41.9124864 23.8875448,41.9012485 26.0187329,42.0248651 C27.0287844,41.4665469 28.1602067,41.1288998 29.3523143,41.0512563 Z" id="Leaf-Me-Alone!" transform="translate(30.552422, 68.500000) scale(-1, 1) translate(-30.552422, -68.500000) "></path>
                </g>
            </g>
            <g id="Head" transform="translate(404.833837, 215.105740)" fill="#B28B67">
                <path d="M46.0946724,11.0379854 C53.0974648,24.0907005 52.265351,57.199995 43.2148657,59.5328792 C39.6055999,60.463216 31.9168531,58.1843126 24.0914433,53.4676559 L29.0030211,88.2175227 L0,88.2175227 L9.98397204,41.6791497 C4.41585745,35.1430343 0.647317268,27.1330375 1.2770711,18.1576482 C3.09163773,-7.70395236 39.0918799,-2.01472974 46.0946724,11.0379854 Z"></path>
            </g>
            <path d="M439.472502,211.927464 C435.50943,210.719005 429.756443,210.309177 427.336332,210.586422 C428.713001,207.288029 429.259284,203.613222 428.813932,200.035149 C428.381069,196.558388 426.827517,193.598027 425.390715,190.495926 C424.728422,189.066061 423.977873,187.643988 422.85885,186.550304 C421.718918,185.436065 420.275918,184.700578 418.762794,184.349687 C417.21433,183.990516 415.595187,184.020422 414.044318,184.346375 C413.35825,184.49055 412.742676,184.804228 412.069837,184.978602 C411.380809,185.157262 411.046563,184.726003 410.546444,184.292601 C409.341199,183.248307 407.574315,182.732783 406.049534,182.548278 C404.338804,182.341368 402.563687,182.599422 400.932147,183.161802 C399.344088,183.709277 397.818475,184.598291 396.67031,185.893431 C396.159089,186.469936 395.69505,187.126127 395.393461,187.850607 C395.269773,188.147919 395.249327,188.324046 394.952642,188.432957 C394.678252,188.533782 394.357328,188.536705 394.074149,188.632659 C391.335983,189.560055 388.994877,191.675726 387.720156,194.392158 C386.976453,195.976915 386.624168,198.76711 386.720657,201.894461 C386.817147,205.021812 389.64098,213.181962 392.282102,216.158397 C394.639582,218.815114 398.104799,220.568301 401.449011,221.335741 C399.229281,223.872929 397.751681,227.043415 396.659023,230.26787 C395.472189,233.770446 394.737644,237.409794 394.466399,241.117917 C394.208754,244.641047 394.184886,248.366803 395.010832,251.814729 C395.783491,255.039086 397.435846,257.68421 400.194272,259.362291 C401.4578,260.130997 402.817262,260.708476 404.184587,261.236273 C405.532115,261.756375 406.883714,262.262059 408.29526,262.553916 C410.966725,263.106068 414.044873,263.011282 416.102707,260.884896 C416.844375,260.118333 417.660052,259.155088 418.201154,258.218632 C418.395707,257.881866 418.513012,257.66161 418.276644,257.332443 C417.993465,256.938202 417.535439,256.636116 417.171682,256.327699 C415.097288,254.569251 413.813223,252.221731 413.489524,249.431944 C413.161107,246.601341 413.921462,242.94777 416.673506,241.712444 C420.070634,240.187501 423.811815,241.937863 426.831217,243.569476 C428.11445,239.040433 430.74928,234.96252 434.880213,232.885036 C439.450392,230.586711 444.694613,230.317747 449.391164,228.345764 C450.615003,227.831897 451.861508,227.248573 452.762574,226.20155 C453.139098,225.76396 453.580842,225.196319 453.731174,224.617573 C453.928686,223.857342 453.438373,223.219952 453.05963,222.627276 C451.051382,219.484748 443.435573,213.135923 439.472502,211.927464 Z" id="hair" fill="#191847"></path>
            <g id="A-Human/Standing备份" transform="translate(240.483384, 282.779456)">
                <g id="Bottom/Skinny-Jeans-1" transform="translate(-0.385228, 121.041626)">
                    <path d="M118.098612,124.382028 C147.088761,132.490609 172.100585,136.544899 193.134084,136.544899 C214.167584,136.544899 233.704471,130.301364 251.744745,117.814294 C223.375247,109.491574 200.011703,105.330214 181.65411,105.330214 C163.296518,105.330214 142.111352,111.680819 118.098612,124.382028 Z" id="Skirt-Shadow" fill="#1F28CF"></path>
                    <path d="M218.230347,148.232485 C217.950812,147.812253 217.714745,147.355125 217.527502,146.859947 C213.652463,136.612136 151.583881,26.0587165 145.400334,5.8465913 L215.280802,5.8465913 C219.98224,21.2141555 241.142954,117.652947 244.120963,136.893908 C253.517129,167.244439 272.862897,265.53873 275.332543,272.348258 C277.930569,279.511766 263.312339,286.974289 259.416925,278.167644 C253.218663,264.154785 238.45006,225.381457 231.874213,201.706734 C225.709371,179.511731 220.689543,159.543874 218.230347,148.232485 Z" id="Leg" fill="#997659"></path>
                    <path d="M161.058415,161.73009 C132.681679,168.902149 28.885565,181.867962 21.762621,183.901617 C14.435334,185.993613 8.01070528,170.890433 17.0676278,167.618828 C31.4787207,162.413152 71.1878046,150.385216 95.2635657,145.476853 C114.62865,141.528863 132.299527,138.307308 144.163289,136.420801 C143.158218,103.095462 138.563785,23.1197581 141.575183,5.8465913 L203.406376,5.8465913 C200.518648,22.4103968 176.107418,143.269811 171.570243,155.367496 C170.130366,159.686451 165.834073,161.59511 161.058415,161.73009 L161.058415,161.73009 Z" id="Leg" fill="#B28B67"></path>
                    <g id="Left-Shoe" transform="translate(18.581606, 196.973182) rotate(80.000000) translate(-18.581606, -196.973182) translate(-16.463712, 184.284360)" fill="#E4E4E4">
                        <path d="M2.19158429,7.30386342 C0.730528098,11.1304274 1.67403491e-14,13.9750291 1.67403491e-14,15.8376687 C1.67403491e-14,18.0168665 0.363038314,21.1968581 1.08911494,25.3776435 C3.61713737,25.3776435 26.3369006,25.3776435 69.2484046,25.3776435 C71.0196229,19.5220631 69.997173,16.3608237 66.1810548,15.8939253 C62.3649366,15.4270268 59.1948224,15.0054549 56.6707122,14.6292095 L24.795057,0.41888346 C24.2906279,0.194006431 23.6994084,0.4206282 23.4745314,0.925057349 C23.4706843,0.933686736 23.4669598,0.94237021 23.4633589,0.951105155 L21.3452726,6.08905745 L21.3452726,6.08905745 C17.8125453,7.737344 14.9418375,8.56148727 12.7331494,8.56148727 C10.8657942,8.56148727 8.25807815,7.776707 4.9100013,6.20714647 L4.90981249,6.20754872 C3.9099096,5.73822157 2.71886331,6.16833819 2.24953616,7.16824109 C2.22864192,7.21275633 2.20939656,7.25802704 2.19183933,7.3039609 Z" id="shoe"></path>
                    </g>
                    <g id="Right-Shoe" transform="translate(252.953204, 269.290700)" fill="#E4E4E4">
                        <path d="M2.19158429,7.30386342 C0.730528098,11.1304274 2.84217094e-14,13.9750291 2.84217094e-14,15.8376687 C2.84217094e-14,18.0168665 0.363038314,21.1968581 1.08911494,25.3776435 C3.61713737,25.3776435 26.3369006,25.3776435 69.2484046,25.3776435 C71.0196229,19.5220631 69.997173,16.3608237 66.1810548,15.8939253 C62.3649366,15.4270268 59.1948224,15.0054549 56.6707122,14.6292095 L24.795057,0.41888346 C24.2906279,0.194006431 23.6994084,0.4206282 23.4745314,0.925057349 C23.4706843,0.933686736 23.4669598,0.94237021 23.4633589,0.951105155 L21.3452726,6.08905745 L21.3452726,6.08905745 C17.8125453,7.737344 14.9418375,8.56148727 12.7331494,8.56148727 C10.8657942,8.56148727 8.25807815,7.776707 4.9100013,6.20714647 L4.90981249,6.20754872 C3.9099096,5.73822157 2.71886331,6.16833819 2.24953616,7.16824109 C2.22864192,7.21275633 2.20939656,7.25802704 2.19183933,7.3039609 Z" id="shoe"></path>
                    </g>
                    <path d="M141.774956,5.8465913 C169.021892,-1.94886377 194.802355,-1.94886377 219.116346,5.8465913 C227.57556,44.441719 248.130171,59.7601552 251.744745,118.932906 C210.657131,139.348373 159.901844,104.372823 117.605772,124.282012 C105.52118,96.4340322 122.439609,29.3686676 141.774956,5.8465913 Z" id="Skirt" fill="#2B44FF"></path>
                </g>
                <g id="Body/Long-Sleeve-1" transform="translate(19.808919, -0.000000)">
                    <path d="M245.681081,109.056482 L282.160381,139.982948 C292.393068,143.526498 300.861718,147.637206 307.566332,152.315074 C309.113942,153.936835 310.898371,157.126788 304.080124,156.120271 C297.261876,155.113754 290.044836,154.361691 288.935463,156.633721 C287.82609,158.905752 291.778902,161.992029 289.646277,165.013134 C288.224527,167.027204 282.571203,161.332392 272.686304,147.928696 L235.71108,129.475355 L245.681081,109.056482 Z M72.4869208,85.1265694 C50.2948492,129.996009 37.474069,154.468834 34.02458,158.545045 C31.4950333,161.534175 16.4809478,168.78795 6.37856351,172.552614 C2.32360345,174.0637 2.99925796,177.459633 4.10595656,178.592754 C13.1075954,187.809304 22.0472,181.793745 32.3230498,179.805716 C43.5811259,177.627659 39.4248906,190.667447 48.3140161,189.082917 C47.2308044,182.967462 44.0425067,171.29523 48.4322581,165.247614 C50.3832587,162.559785 65.3887431,137.629007 93.4487113,90.4552818 L72.4869208,85.1265694 Z" id="Skin" fill="#B28B67" transform="translate(156.126127, 137.171718) rotate(-4.000000) translate(-156.126127, -137.171718) "></path>
                    <path d="M173.863784,2.46700214 C191.880132,39.7080431 216.262651,75.4362943 252.482202,105.955627 C257.443023,105.599374 262.837076,106.421041 268.620174,108.369585 C271.46632,109.328559 272.996175,112.413219 272.037201,115.259365 C271.480342,116.91207 270.206721,118.120933 268.679249,118.65637 C269.784657,119.463755 270.90143,120.266879 272.028131,121.065463 L262.303447,140.917974 C221.381474,120.514234 182.918735,105.130925 165.392116,71.4459913 C162.039156,65.0018366 161.244266,49.7539174 161.076642,35.2449693 L161.06123,33.7208532 C161.043549,31.6934368 161.036889,29.6871726 161.035912,27.7284432 L161.036162,26.2687211 C161.042097,18.777133 161.113335,12.098348 160.939279,7.76745457 L173.863784,2.46700214 Z" id="Back-Arm" fill="#69A1AC"></path>
                    <path d="M115.538513,137.655281 C153.530448,141.828904 183.434268,141.828904 205.249974,137.655281 C207.952793,137.138197 207.834099,125.486889 206.58067,122.304807 C187.061514,72.7515097 174.221657,36.4761722 174.221657,2.05756778 C170.640138,3.92837455 164.372141,4.20873833 155.417667,2.89865912 C131.352654,38.3681376 120.290824,79.065306 115.538513,137.655281 Z" id="Shirt" fill="#191847"></path>
                    <path d="M159.464102,8.11263779e-13 C155.417667,53.5114687 211.308473,170.338248 191.901767,270.112522 C156.031391,278.123008 104.821788,253.199717 54.9739364,273.111782 C56.0596022,249.593721 69.2387555,223.669833 82.8892662,197.748397 L84.4966824,194.698973 C84.7647139,194.190786 85.0327513,193.682636 85.3007072,193.174541 L86.9067621,190.126785 C95.1632212,174.440434 103.174583,158.841603 108.358216,143.865453 C107.08173,142.875055 106.384419,141.229437 106.684251,139.529005 L107.639578,134.111075 C108.034152,131.873338 110.018975,130.315426 112.226896,130.394627 L112.448307,129.381159 C112.74512,127.971877 113.007291,126.570119 113.232455,125.176376 C114.610499,116.646432 113.88021,108.210286 113.018999,99.8629776 L112.851209,98.2484775 L112.683336,96.636188 C112.130517,91.2979916 111.628783,85.9960638 111.699583,80.7290964 C92.2674489,97.3070132 74.8352848,125.934981 59.4031036,166.61153 L36.5791923,159.895441 C37.3780716,156.927515 38.2032045,153.993028 39.054591,151.091981 L39.287472,150.309802 C36.6526651,148.815688 33.5721997,141.953148 35.7881855,140.805028 C38.0759196,139.619735 40.4994873,138.785443 43.0517512,138.294337 C63.979805,75.2621411 98.2025212,29.1638451 145.720596,3.35200146e-13 Z" id="Coat-Front" fill="#89C5CC"></path>
                    <polygon id="Shade-Lapel" fill-opacity="0.1" fill="#000000" points="150.711635 1.20845921 144.477007 20.3812026 157.032164 34.7541312 145.685466 46.0489505 173.136399 93.0513595 139.567016 46.1428543 150.711635 34.7541312 139.567016 22.0525175"></polygon>
                    <path d="M165.085341,111.178248 C167.754995,111.178248 169.919178,109.014065 169.919178,106.344411 C169.919178,103.674756 167.754995,101.510574 165.085341,101.510574 C162.415686,101.510574 160.251504,103.674756 160.251504,106.344411 C160.251504,109.014065 162.415686,111.178248 165.085341,111.178248 Z M171.127637,138.97281 C173.797291,138.97281 175.961474,136.808627 175.961474,134.138973 C175.961474,131.469318 173.797291,129.305136 171.127637,129.305136 C168.457982,129.305136 166.2938,131.469318 166.2938,134.138973 C166.2938,136.808627 168.457982,138.97281 171.127637,138.97281 Z M172.336096,166.767372 C175.00575,166.767372 177.169933,164.603189 177.169933,161.933535 C177.169933,159.26388 175.00575,157.099698 172.336096,157.099698 C169.666442,157.099698 167.502259,159.26388 167.502259,161.933535 C167.502259,164.603189 169.666442,166.767372 172.336096,166.767372 Z" id="Buttons" fill-opacity="0.4" fill="#000000"></path>
                </g>
            </g>
        </g>
    </g>
</svg>