<?xml version="1.0" encoding="UTF-8"?>
<svg width="866px" height="800px" viewBox="0 0 866 800" version="1.1" xmlns="http://www.w3.org/2000/svg" xmlns:xlink="http://www.w3.org/1999/xlink">
    <title>project-board</title>
    <g id="Templates-🖥📱" stroke="none" stroke-width="1" fill="none" fill-rule="evenodd">
        <g id="project-board" transform="translate(1.000000, 0.000000)">
            <g id="Web" transform="translate(235.265720, 107.730223)">
                <rect id="Container" fill="#F2F2F2" x="0" y="0" width="396" height="346" rx="8"></rect>
                <path d="M8,0 L388,0 C392.418278,-8.11624501e-16 396,3.581722 396,8 L396,27 L396,27 L0,27 L0,8 C-5.41083001e-16,3.581722 3.581722,8.11624501e-16 8,0 Z" id="Header" fill="#C5CFD6"></path>
                <g id="Buttons" transform="translate(9.000000, 10.000000)" fill="#F2F2F2">
                    <circle id="buttons" cx="4" cy="4" r="4"></circle>
                    <circle id="buttons" cx="16" cy="4" r="4"></circle>
                    <circle id="buttons" cx="28" cy="4" r="4"></circle>
                </g>
                <g id="Content" transform="translate(16.000000, 43.000000)">
                    <g id="Components" transform="translate(294.000000, 89.000000)">
                        <rect id="Background" fill="#FFFFFF" x="0" y="0" width="70" height="194" rx="8"></rect>
                        <g id="Rows" transform="translate(18.000000, 18.000000)">
                            <rect id="Data" fill="#DDE3E9" x="0" y="0" width="34" height="26" rx="4"></rect>
                            <rect id="Data" fill="#AFB9C5" x="0" y="34" width="34" height="25" rx="4"></rect>
                            <rect id="Data" fill="#DDE3E9" x="0" y="67" width="34" height="25" rx="4"></rect>
                            <rect id="Data" fill="#DDE3E9" x="0" y="133" width="34" height="25" rx="4"></rect>
                            <rect id="Data" fill="#C5CFD6" x="0" y="100" width="34" height="25" rx="4"></rect>
                        </g>
                    </g>
                    <g id="Profile" transform="translate(294.000000, 0.000000)">
                        <rect id="Background" fill="#FFFFFF" x="0" y="0" width="70" height="81" rx="8"></rect>
                        <g id="Profile-Info" transform="translate(10.000000, 15.000000)" fill="#DDE3E9">
                            <circle id="Avatar" cx="25" cy="16" r="16"></circle>
                            <rect id="Name" x="0" y="36" width="50" height="6" rx="3"></rect>
                            <rect id="Name" x="8" y="46" width="34" height="6" rx="3"></rect>
                        </g>
                    </g>
                    <g id="Rows">
                        <g id="Row">
                            <rect id="Container" fill="#FFFFFF" x="0" y="0" width="286" height="47" rx="4"></rect>
                            <g id="Text-Stuff" transform="translate(9.000000, 14.100000)" fill="#DDE3E9">
                                <rect id="Label" x="0" y="0" width="228" height="7.05" rx="3"></rect>
                                <rect id="Label" x="0" y="11.75" width="153.041096" height="7.05" rx="3"></rect>
                            </g>
                            <g id="Check" transform="translate(248.435115, 16.500000)">
                                <circle id="Background" fill="#DDE3E9" cx="7" cy="7" r="7"></circle>
                                <circle id="Indicator" fill="#F2F2F2" cx="7" cy="7" r="3"></circle>
                            </g>
                        </g>
                        <g id="Row" transform="translate(0.000000, 55.000000)">
                            <rect id="Container" fill="#FFFFFF" x="0" y="0" width="286" height="39" rx="4"></rect>
                            <g id="Text-Stuff" transform="translate(9.000000, 11.700000)" fill="#DDE3E9">
                                <rect id="Label" x="0" y="0" width="228" height="5.85" rx="2.925"></rect>
                                <rect id="Label" x="0" y="9.75" width="153.041096" height="5.85" rx="2.925"></rect>
                            </g>
                            <g id="Check" transform="translate(248.435115, 12.500000)">
                                <circle id="Background" fill="#DDE3E9" cx="7" cy="7" r="7"></circle>
                                <circle id="Indicator" fill="#F2F2F2" cx="7" cy="7" r="3"></circle>
                            </g>
                        </g>
                        <g id="Row" transform="translate(0.000000, 102.000000)">
                            <rect id="Container" fill="#FFFFFF" x="0" y="0" width="286" height="39" rx="4"></rect>
                            <g id="Text-Stuff" transform="translate(9.000000, 11.700000)" fill="#DDE3E9">
                                <rect id="Label" x="0" y="0" width="228" height="5.85" rx="2.925"></rect>
                                <rect id="Label" x="0" y="9.75" width="153.041096" height="5.85" rx="2.925"></rect>
                            </g>
                            <g id="Check" transform="translate(248.435115, 12.500000)">
                                <circle id="Background" fill="#DDE3E9" cx="7" cy="7" r="7"></circle>
                                <circle id="Indicator" fill="#F2F2F2" cx="7" cy="7" r="3"></circle>
                            </g>
                        </g>
                        <g id="Row" transform="translate(0.000000, 243.000000)">
                            <rect id="Container" fill="#FFFFFF" x="0" y="0" width="286" height="39" rx="4"></rect>
                            <g id="Text-Stuff" transform="translate(9.000000, 11.700000)" fill="#DDE3E9">
                                <rect id="Label" x="0" y="0" width="228" height="5.85" rx="2.925"></rect>
                                <rect id="Label" x="0" y="9.75" width="153.041096" height="5.85" rx="2.925"></rect>
                            </g>
                            <g id="Check" transform="translate(248.435115, 12.500000)">
                                <circle id="Background" fill="#DDE3E9" cx="7" cy="7" r="7"></circle>
                                <circle id="Indicator" fill="#F2F2F2" cx="7" cy="7" r="3"></circle>
                            </g>
                        </g>
                        <g id="Row" transform="translate(0.000000, 196.000000)">
                            <rect id="Container" fill="#FFFFFF" x="0" y="0" width="286" height="39" rx="4"></rect>
                            <g id="Text-Stuff" transform="translate(9.000000, 11.700000)" fill="#DDE3E9">
                                <rect id="Label" x="0" y="0" width="228" height="5.85" rx="2.925"></rect>
                                <rect id="Label" x="0" y="9.75" width="153.041096" height="5.85" rx="2.925"></rect>
                            </g>
                            <g id="Check" transform="translate(248.435115, 12.500000)">
                                <circle id="Background" fill="#DDE3E9" cx="7" cy="7" r="7"></circle>
                                <circle id="Indicator" fill="#F2F2F2" cx="7" cy="7" r="3"></circle>
                            </g>
                        </g>
                        <g id="Row" transform="translate(0.000000, 149.000000)">
                            <rect id="Container" fill="#FFFFFF" x="0" y="0" width="286" height="39" rx="4"></rect>
                            <g id="Text-Stuff" transform="translate(9.000000, 11.700000)" fill="#DDE3E9">
                                <rect id="Label" x="0" y="0" width="228" height="5.85" rx="2.925"></rect>
                                <rect id="Label" x="0" y="9.75" width="153.041096" height="5.85" rx="2.925"></rect>
                            </g>
                            <g id="Check" transform="translate(248.435115, 12.500000)">
                                <circle id="Background" fill="#DDE3E9" cx="7" cy="7" r="7"></circle>
                                <circle id="Indicator" fill="#F2F2F2" cx="7" cy="7" r="3"></circle>
                            </g>
                        </g>
                    </g>
                </g>
            </g>
            <g id="Group-3" transform="translate(432.454361, 486.815416) scale(-1, 1) translate(-432.454361, -486.815416) translate(0.000000, 173.630832)">
                <g id="Humaaan" transform="translate(648.275862, 313.184584) scale(-1, 1) translate(-648.275862, -313.184584) translate(431.643002, 1.622718)">
                    <g id="Head/Front" transform="translate(184.745232, 91.585563) rotate(-8.000000) translate(-184.745232, -91.585563) translate(143.583840, 19.591734)">
                        <g id="Head" transform="translate(21.665584, 38.876668)" fill="#B28B67">
                            <path d="M55.0873409,13.1517361 C63.456317,28.7040184 62.4618651,68.1536723 51.6457091,70.9332989 C47.3323246,72.0417887 38.1436275,69.3265067 28.7915878,63.7066667 L34.6612576,105.11099 L0,105.11099 L11.9324478,49.6614255 C5.277664,41.8735102 0.773577214,32.329326 1.52621653,21.6347992 C3.69478929,-9.17924284 46.7183647,-2.40054619 55.0873409,13.1517361 Z"></path>
                        </g>
                        <path d="M63.0619499,35.0897582 C58.3257178,33.6498816 51.4503729,33.1615734 48.5581197,33.4919098 C50.2033651,29.5618814 50.8562227,25.1833569 50.3239862,20.9200904 C49.8066753,16.7775371 47.9500389,13.2502731 46.2329294,9.55412659 C45.4414294,7.85044496 44.544455,6.15604896 43.2071195,4.85292635 C41.8447975,3.52531288 40.1202805,2.6489812 38.3119589,2.23089555 C36.4614033,1.80294391 34.5263797,1.83857753 32.6729496,2.22694915 C31.8530356,2.39873338 31.1173684,2.77248013 30.3132645,2.98024618 C29.4898126,3.19311933 29.0903589,2.67927558 28.4926708,2.16287828 C27.0522933,0.918603374 24.9407052,0.304358709 23.118453,0.0845213324 C21.0739749,-0.162012241 18.952547,0.145458303 17.0027084,0.815532841 C15.1048331,1.4678486 13.2815858,2.52710726 11.909424,4.0702635 C11.2984686,4.75716825 10.743899,5.5390186 10.3834729,6.40223432 C10.235654,6.75648125 10.2112202,6.96633657 9.85665387,7.0961033 C9.5287325,7.21623618 9.14519938,7.21971829 8.8067748,7.33404766 C5.53441583,8.43903806 2.73658097,10.9598555 1.21317283,14.1964791 C0.324379879,16.0847127 -0.0966331269,19.4092247 0.0186810971,23.1354565 C0.133995321,26.8616882 3.50873298,36.5844901 6.66511436,40.1309057 C9.48251836,43.2963782 13.6237695,45.3852975 17.6204079,46.2997003 C14.9676279,49.3227544 13.2017614,53.1003823 11.8959356,56.9423132 C10.4775596,61.1156252 9.59971211,65.4519001 9.27554978,69.8701206 C8.9676398,74.0679234 8.93911528,78.5071527 9.9261962,82.6153492 C10.8495945,86.4571641 12.8243091,89.6088242 16.1208807,91.6082533 C17.6309111,92.5241649 19.2555923,93.2122304 20.8896712,93.8410999 C22.5000901,94.4607999 24.1153738,95.0633215 25.8023003,95.4110684 C28.9949455,96.0689556 32.6736129,95.9560191 35.1329126,93.4224339 C36.0192733,92.5090758 36.994082,91.3613715 37.6407483,90.2455865 C37.8732562,89.8443311 38.0134465,89.5818959 37.7309653,89.1896939 C37.3925407,88.7199569 36.8451575,88.3600225 36.410435,87.9925436 C33.9313451,85.8973564 32.3967703,83.1002914 32.0099204,79.7762667 C31.6174319,76.4036085 32.5261257,72.0503874 35.8150687,70.5784984 C39.8749475,68.761532 44.3459995,70.8470853 47.9544613,72.7911488 C49.488041,67.3948028 52.6369043,62.535979 57.5737461,60.0606612 C63.0355275,57.3222117 69.3028501,57.0017413 74.9156566,54.6521278 C76.3782567,54.0398563 77.867944,53.3448266 78.9447997,52.0973018 C79.3947795,51.5759134 79.9227041,50.8995711 80.1023643,50.2099967 C80.3384102,49.3041832 79.7524415,48.5447344 79.2998083,47.838562 C76.8997688,44.0942463 67.798182,36.5296348 63.0619499,35.0897582 Z" id="hair" fill="#191847"></path>
                    </g>
                    <g id="Bottom/Skinny-Jeans-1" transform="translate(-0.374853, 278.993229)">
                        <polygon id="Leg" fill="#997659" points="188.123331 1.70530257e-13 295.43807 178.871417 375.893249 330.092124 393.22258 330.092124 258.418799 9.03482008e-13"></polygon>
                        <g id="Right-Shoe" transform="translate(362.873838, 313.893095)" fill="#E4E4E4">
                            <path d="M2.77398149,8.30105537 C0.924660497,13.0633939 0,16.5865583 0,18.8705485 C0,21.4670581 0.433863922,25.2560113 1.30159177,30.2374082 C4.32280932,30.2374082 31.4750002,30.2374082 82.7581643,30.2374082 C84.8749319,23.2604967 83.6530109,19.4938867 79.0924014,18.9375781 C74.5317918,18.3812696 70.743216,17.8789675 67.7266739,17.4306719 L29.4474656,0.416921361 C28.9427852,0.192608812 28.3518196,0.419891878 28.1275071,0.924572297 C28.123965,0.932541621 28.1205273,0.94055694 28.1171949,0.948616196 L25.5095491,7.255099 L25.5095491,7.255099 C21.2876175,9.2190289 17.8568597,10.2009939 15.2172758,10.2009939 C12.9173063,10.2009939 9.67754295,9.20781044 5.4979857,7.22144362 L5.49789637,7.22163129 C4.50054041,6.74691573 3.30719065,7.1705995 2.8324751,8.16795546 C2.81164557,8.21171737 2.79241365,8.25622196 2.77481743,8.30138109 Z" id="shoe"></path>
                        </g>
                        <path d="M353.548598,305.877142 L386.967908,295.798006 C372.325998,252.158206 354.380257,204.134206 333.130687,151.726006 C311.881116,99.3178055 289.059868,48.7424703 264.666942,2.27373675e-13 L170.278666,2.27373675e-13 C197.398355,61.6569868 226.148861,117.680274 256.530186,168.069861 C286.91151,218.459449 319.250981,264.395209 353.548598,305.877142 Z" id="Pant" fill="#DB2721"></path>
                        <path d="M181.070672,2.27373675e-13 C170.942177,62.8566442 151.407081,143.163283 149.563495,145.64157 C148.334438,147.293761 104.088053,162.075674 16.8243407,189.987309 L20.5676855,205.22264 C124.629458,190.25345 179.461137,178.639737 185.062723,170.3815 C193.465103,157.994144 235.419319,60.1337629 251.66897,2.27373675e-13 L181.070672,2.27373675e-13 Z" id="Leg" fill="#B28B67"></path>
                        <path d="M47.4990098,176.817531 L54.092504,201.355133 C131.924646,208.160971 179.614119,203.243326 197.160922,186.602197 C214.707725,169.961068 234.705901,107.760336 257.15545,0 L167.150593,0 C152.927087,88.2412153 144.975222,134.213957 143.294997,137.918226 C141.614771,141.622494 109.682776,154.588929 47.4990098,176.817531 Z" id="Pant" fill="#FF4133"></path>
                        <g id="Left-Shoe" transform="translate(22.161811, 223.405158) rotate(80.000000) translate(-22.161811, -223.405158) translate(-19.720542, 208.286454)" fill="#E4E4E4">
                            <path d="M2.77398149,8.30105537 C0.924660497,13.0633939 -5.41582168e-15,16.5865583 -5.41582168e-15,18.8705485 C-5.41582168e-15,21.4670581 0.433863922,25.2560113 1.30159177,30.2374082 C4.32280932,30.2374082 31.4750002,30.2374082 82.7581643,30.2374082 C84.8749319,23.2604967 83.6530109,19.4938867 79.0924014,18.9375781 C74.5317918,18.3812696 70.743216,17.8789675 67.7266739,17.4306719 L29.4474656,0.416921361 C28.9427852,0.192608812 28.3518196,0.419891878 28.1275071,0.924572297 C28.123965,0.932541621 28.1205273,0.94055694 28.1171949,0.948616196 L25.5095491,7.255099 L25.5095491,7.255099 C21.2876175,9.2190289 17.8568597,10.2009939 15.2172758,10.2009939 C12.9173063,10.2009939 9.67754295,9.20781044 5.4979857,7.22144362 L5.49789637,7.22163129 C4.50054041,6.74691573 3.30719065,7.1705995 2.8324751,8.16795546 C2.81164557,8.21171737 2.79241365,8.25622196 2.77481743,8.30138109 Z" id="shoe"></path>
                        </g>
                    </g>
                    <g id="Body/Long-Sleeve-1" transform="translate(261.136275, 226.857896) rotate(-8.000000) translate(-261.136275, -226.857896) translate(131.706336, 122.586990)">
                        <path d="M230.053446,59.8867361 L230.013427,60.3683957 C229.738219,63.8324013 229.757652,67.4868775 232.999491,66.8214795 C235.473387,66.3137041 239.356378,64.2366089 243.310237,62.0525018 L244.00844,61.666258 C244.124839,61.6017981 244.241231,61.53732 244.357582,61.472861 L245.054928,61.086633 L245.74966,60.702648 C250.946254,57.8356355 255.78436,55.3085489 257.161348,56.5116995 C261.054594,59.9134462 257.583136,70.3587801 253.492934,75.5547743 C245.848352,85.2660811 239.518967,88.5870549 223.87491,92.9358902 C215.695389,95.2096858 206.85188,99.7673133 197.344384,106.608773 L196.090478,84.5781196 L218.109797,72.5182415 C221.199419,60.7972202 224.892686,54.8999781 229.189598,54.8265151 C230.700863,54.1254528 230.315277,56.8498026 230.053446,59.8867361 Z M195.100901,16.6183456 C194.848206,17.0655058 194.595953,17.5148232 194.345576,17.9648195 L193.971598,18.6401385 C190.373547,25.1695724 187.320869,31.6863619 189.187573,33.6838872 C191.247384,35.8880531 196.383706,32.8089305 198.841029,36.4711708 C200.479244,38.9126643 191.704244,42.7695367 172.516026,48.041788 L136.091541,81.2920368 L117.579898,61.483065 L167.708427,34.1104197 C176.044494,24.2410742 184.257842,16.5761447 192.348471,11.1156311 C194.820707,10.0866164 199.144022,9.46378324 195.100901,16.6183456 Z" id="Skin" fill="#997659"></path>
                        <path d="M94.7871386,50.0195595 C112.158134,52.5836191 135.862222,52.5946322 163.010813,40.8869883 L169.288845,63.9672921 C149.601152,78.1120912 123.477369,88.1581744 102.6442,84.257922 C86.2265156,81.1843081 80.9481311,59.9623184 94.7871386,50.0195595 Z" id="Sleeve" fill="#2026A2" transform="translate(128.066714, 62.996057) rotate(-9.000000) translate(-128.066714, -62.996057) "></path>
                        <path d="M94.3362181,1.66939435e-13 C96.5472268,28.3207109 107.675769,59.5325626 116.808773,90.3676169 C135.447472,95.003518 166.706518,89.5379677 210.584564,73.9713856 C221.467824,96.4192026 226.498882,112.422775 225.677739,121.982101 C188.033512,141.586864 155.769788,150.326358 129.189599,150.901474 L129.198554,150.894424 C130.044094,166.620146 128.124903,181.58351 121.675549,195.255855 C108.418698,223.359797 30.7924683,197.332413 4.69215099,202.455238 C-11.6526351,149.533084 19.9505034,128.025734 19.9759317,94.1630555 C20.0037785,57.0798138 49.8696667,1.66939435e-13 54.2638339,1.66939435e-13 Z" id="Clothes" fill="#1F28CF"></path>
                    </g>
                </g>
                <g id="Humaaan">
                    <g id="Head/Front" transform="translate(160.795168, 72.963755) rotate(7.000000) translate(-160.795168, -72.963755) translate(41.647095, -6.949395)">
                        <g id="Head" transform="translate(177.638945, 54.715310)" fill="#B28B67">
                            <path d="M55.0873409,13.1517361 C63.456317,28.7040184 62.4618651,68.1536723 51.6457091,70.9332989 C47.3323246,72.0417887 38.1436275,69.3265067 28.7915878,63.7066667 L34.6612576,105.11099 L0,105.11099 L11.9324478,49.6614255 C5.277664,41.8735102 0.773577214,32.329326 1.52621653,21.6347992 C3.69478929,-9.17924284 46.7183647,-2.40054619 55.0873409,13.1517361 Z"></path>
                        </g>
                        <path d="M212.970248,49.9424889 C208.401995,49.1955977 196.101771,48.6820892 193.83339,48.6824207 C192.383788,48.6824207 190.81286,49.0126044 189.954303,47.6855712 C189.251214,46.5988826 189.508781,44.760993 189.298949,43.4999303 C189.055304,42.0349891 188.709229,40.588944 188.359177,39.1465455 C187.363051,35.0421245 185.856764,31.1372723 183.749156,27.471107 C179.794489,20.5929447 174.001051,15.2052497 166.687072,12.0701629 C158.610336,8.60853912 149.470846,7.81589954 140.783176,8.51803699 C131.486228,9.26923787 123.070379,12.329072 114.292544,15.2085648 C105.927744,17.9524703 97.1664827,19.0325287 88.4178183,17.6925667 C79.6031876,16.3426594 72.9429054,11.5795287 65.507933,7.05873149 C57.8966082,2.4305252 49.1983301,-0.596489464 40.2003858,0.0993493014 C31.8011111,0.749108225 24.0598425,4.20675393 17.1144797,8.82567795 C10.6162958,13.1472378 5.25445712,18.3466352 2.22729725,25.6643794 C-1.02925319,33.5360761 -1.02626979,42.1765438 4.32893912,49.1332739 C12.0910915,59.2171346 26.5012609,61.8247895 38.4899013,61.565549 C45.424325,61.4160381 52.2347717,60.1539808 58.7816845,57.8582765 C67.51278,54.7964533 75.0578069,49.6070012 83.2260336,45.396497 C87.0593754,43.4206995 91.0216664,41.7979597 95.1748953,40.6290567 C99.2051416,39.4942991 103.174725,38.973829 106.823759,41.4011427 C110.683952,43.9690165 114.143042,46.4914734 118.559142,48.0989638 C122.795574,49.6411467 127.282944,50.5037348 131.796502,50.4689263 C140.578315,50.4012983 149.235157,47.6733054 157.764376,45.8460241 C164.719683,44.3562197 172.161617,42.871388 179.252504,44.3035097 C182.211377,44.9012216 186.533334,46.1351006 187.602055,49.2009018 C169.615117,52.4510225 162.550766,74.6290184 167.621557,90.9097891 C170.358332,99.6971155 186.809464,109.969407 193.205881,105.349777 C197.258195,102.423108 194.798024,98.5809225 193.205881,96.0445421 C190.156843,91.1872627 189.113646,84.9479194 194.755593,81.5661895 C199.622187,78.6495675 204.739075,85.5757706 204.83587,85.5681459 C206.173429,85.4630573 217.731102,78.9463389 225.694129,69.4367941 C233.549684,69.9010629 234.741486,64.7368865 232.865733,60.5135606 C230.98998,56.2902348 219.282135,50.9751415 212.970248,49.9424889 Z" id="hair" fill="#191847"></path>
                    </g>
                    <g id="Bottom/Skinny-Jeans-1" transform="translate(36.105477, 240.485047)">
                        <path d="M263.193097,26.0126862 C235.660219,48.4704162 246.425525,245.729321 244.58917,248.210019 C243.773012,249.312551 200.102915,258.642141 113.578877,276.19879 L117.336258,291.470241 C218.569479,286.583782 272.131067,280.38352 278.021023,272.869456 C286.453753,262.111469 296.809803,201.893664 309.089175,92.2160402 L263.193097,26.0126862 Z" id="Leg" fill="#B28B67" transform="translate(211.334026, 158.741464) rotate(-55.000000) translate(-211.334026, -158.741464) "></path>
                        <path d="M128.199304,260.147162 L134.814265,284.743735 C210.293433,293.524992 260.028666,282.858216 277.516487,266.2082 C289.175034,255.108189 299.558204,195.054122 308.665997,86.0459984 L259.569262,15.9285935 C194.023391,65.3897378 233.364434,227.663992 231.692848,231.373383 C230.021262,235.082774 190.226111,237.961426 128.199304,260.147162 Z" id="Pant" fill="#2F3676" transform="translate(218.432651, 151.911315) rotate(-55.000000) translate(-218.432651, -151.911315) "></path>
                        <g id="Right-Show" transform="translate(281.152837, 322.396639) rotate(20.000000) translate(-281.152837, -322.396639) translate(239.270484, 307.277935)" fill="#E4E4E4">
                            <path d="M2.77398149,8.30105537 C0.924660497,13.0633939 -1.77198295e-14,16.5865583 -1.77198295e-14,18.8705485 C-1.77198295e-14,21.4670581 0.433863922,25.2560113 1.30159177,30.2374082 C4.32280932,30.2374082 31.4750002,30.2374082 82.7581643,30.2374082 C84.8749319,23.2604967 83.6530109,19.4938867 79.0924014,18.9375781 C74.5317918,18.3812696 70.743216,17.8789675 67.7266739,17.4306719 L29.4474656,0.416921361 C28.9427852,0.192608812 28.3518196,0.419891878 28.1275071,0.924572297 C28.123965,0.932541621 28.1205273,0.94055694 28.1171949,0.948616196 L25.5095491,7.255099 L25.5095491,7.255099 C21.2876175,9.2190289 17.8568597,10.2009939 15.2172758,10.2009939 C12.9173063,10.2009939 9.67754295,9.20781044 5.4979857,7.22144362 L5.49789637,7.22163129 C4.50054041,6.74691573 3.30719065,7.1705995 2.8324751,8.16795546 C2.81164557,8.21171737 2.79241365,8.25622196 2.77481743,8.30138109 Z" id="shoe"></path>
                        </g>
                        <polygon id="Leg" fill="#997659" points="151.643002 40.1309006 76.9104965 219.002318 3.4600754 370.223024 20.789407 370.223024 210.384717 40.1309006"></polygon>
                        <g id="Left-Shot" transform="translate(0.000000, 354.023995)" fill="#E4E4E4">
                            <path d="M2.77398149,8.30105537 C0.924660497,13.0633939 -3.10862447e-15,16.5865583 -3.10862447e-15,18.8705485 C-3.10862447e-15,21.4670581 0.433863922,25.2560113 1.30159177,30.2374082 C4.32280932,30.2374082 31.4750002,30.2374082 82.7581643,30.2374082 C84.8749319,23.2604967 83.6530109,19.4938867 79.0924014,18.9375781 C74.5317918,18.3812696 70.743216,17.8789675 67.7266739,17.4306719 L29.4474656,0.416921361 C28.9427852,0.192608812 28.3518196,0.419891878 28.1275071,0.924572297 C28.123965,0.932541621 28.1205273,0.94055694 28.1171949,0.948616196 L25.5095491,7.255099 L25.5095491,7.255099 C21.2876175,9.2190289 17.8568597,10.2009939 15.2172758,10.2009939 C12.9173063,10.2009939 9.67754295,9.20781044 5.4979857,7.22144362 L5.49789637,7.22163129 C4.50054041,6.74691573 3.30719065,7.1705995 2.8324751,8.16795546 C2.81164557,8.21171737 2.79241365,8.25622196 2.77481743,8.30138109 Z" id="shoe"></path>
                        </g>
                        <path d="M10.0929954,338.80866 L48.5989622,346.008043 C78.3716677,302.368242 202.971656,123.430409 216.63286,40.1309006 L130.909899,40.1309006 C85.2881845,100.348011 38.4725325,294.446974 10.0929954,338.80866 Z" id="Pant" fill="#5C63AB"></path>
                    </g>
                    <g id="Body/Long-Sleeve-1" transform="translate(219.581619, 249.912531) rotate(7.000000) translate(-219.581619, -249.912531) translate(36.407059, 129.682836)">
                        <path d="M283.066937,111.759027 L335.39759,88.846395 C344.5647,79.738957 353.416851,72.8168829 361.954044,68.0801728 C364.506827,67.2698955 368.868137,67.0251011 364.21496,73.8011166 C359.561783,80.5771321 354.973001,87.9131249 356.832288,90.2878878 C358.691575,92.6626506 364.077525,90.0415591 366.20535,93.9033893 C367.623899,96.4779427 358.545127,99.5576464 338.969034,103.1425 L299.776465,133.101164 L283.066937,111.759027 Z M71.5008061,118.06988 L101.095335,123.924194 C71.3329871,179.222963 55.3719747,208.531342 53.2122976,211.849333 C48.3530239,219.314811 52.8868246,232.996852 54.5615916,240.201909 C44.0550425,242.640255 48.1985027,226.874161 34.9026678,230.165978 C22.7668463,233.170596 12.477133,240.881516 1.16097652,230.48211 C-0.230278431,229.203564 -1.24874283,225.207191 3.49475003,223.157471 C15.3125206,218.05087 32.7722813,208.488863 35.603383,204.776507 C39.4640959,199.714045 51.4299036,170.811836 71.5008061,118.06988 Z" id="Skin" fill="#B28B67"></path>
                        <path d="M175.174355,14.241283 L187.429045,11.0253999 C216.819118,34.8612818 233.385363,96.8545588 252.172892,103.608552 C269.93574,109.99418 293.471603,100.251944 321.339906,87.4395859 L331.867256,106.294339 C308.194517,136.775745 254.591508,165.467725 230.829502,153.84416 C192.838993,135.260496 177.714045,58.3367355 175.174355,14.241283 Z" id="Coat-Back" fill="#DB2721" transform="translate(253.520805, 83.756149) rotate(5.000000) translate(-253.520805, -83.756149) "></path>
                        <path d="M127.091278,164.14593 C177.164889,164.14593 213.997987,164.14593 237.590574,164.14593 C242.639828,164.14593 241.688392,156.876911 240.958492,153.208924 C232.534561,110.87592 199.650727,65.24299 199.650727,4.98302451 L167.777529,-7.18158977e-15 C141.414299,42.2724825 132.297437,94.3184674 127.091278,164.14593 Z" id="Shirt" fill="#DDE3E9"></path>
                        <path d="M178.34141,-1.72548186e-14 C206.955037,97.2448695 214.843307,162.039316 202.006221,194.383339 L102.539554,194.383339 C104.113351,170.7147 109.15985,145.684132 116.071874,121.279065 C93.5456815,161.793318 74.6103768,190.960627 59.2670608,208.782104 L36.1054767,204.259193 C51.0251156,112.008967 94.230399,43.9225695 165.721327,-1.59363366e-13 Z" id="Coat-Front" fill="#FF4133"></path>
                    </g>
                </g>
            </g>
            <g id="Image" transform="translate(369.754971, 273.904582) rotate(-14.000000) translate(-369.754971, -273.904582) translate(319.254971, 239.904582)">
                <path d="M50.8280383,54.6067275 C50.8260383,54.6117275 50.8240383,54.6167275 50.8210383,54.6227275 C50.8240383,54.6177275 50.8280383,54.5977275 50.8280383,54.6067275" id="Fill-35" fill="#C5CFD6"></path>
                <path d="M50.8233815,54.6143262 C50.8233815,54.6153262 50.8223815,54.6173262 50.8223815,54.6193262 C50.8223815,54.6143262 50.8313815,54.5993262 50.8233815,54.6143262" id="Fill-37" fill="#C5CFD6"></path>
                <path d="M50.8581098,54.5297294 C50.8511098,54.5497294 50.8421098,54.5687294 50.8341098,54.5887294 C50.8381098,54.5787294 50.8421098,54.5707294 50.8461098,54.5607294 C50.7421098,54.8207294 50.8081098,54.6517294 50.8581098,54.5297294" id="Fill-39" fill="#C5CFD6"></path>
                <path d="M50.8357258,54.5899536 C50.8317258,54.5989536 50.8277258,54.6089536 50.8237258,54.6179536 C50.7947258,54.6739536 50.8357258,54.5899536 50.8357258,54.5899536" id="Fill-41" fill="#C5CFD6"></path>
                <polygon id="Fill-43" fill="#C5CFD6" points="50.8245383 54.6140786 50.8245383 54.6140786 50.8245383 54.6130786"></polygon>
                <path d="M50.8240383,54.6145786 C50.8240383,54.6135786 50.8240383,54.6135786 50.8250383,54.6125786 C50.8240383,54.6135786 50.8240383,54.6135786 50.8240383,54.6145786" id="Fill-45" fill="#C5CFD6"></path>
                <path d="M50.8192941,54.621754 C50.8132941,54.633754 50.8472941,54.575754 50.8192941,54.621754" id="Fill-47" fill="#C5CFD6"></path>
                <path d="M50.8235383,54.6145786 L50.8255383,54.6125786 C50.8245383,54.6135786 50.8245383,54.6145786 50.8235383,54.6145786" id="Fill-49" fill="#C5CFD6"></path>
                <rect id="Photo-Background" fill="#2B44FF" x="0.574535623" y="0.818446954" width="100" height="66" rx="4"></rect>
                <g id="icons8-night_landscape" transform="translate(9.057629, 20.092572)" fill="#000000" fill-opacity="0.2">
                    <polygon id="Mountains" points="29.3115079 0 0.47121868 47 58.1517972 47"></polygon>
                    <polygon id="Mountains" points="59.0474583 12.5892857 33.5509707 47 84.543946 47"></polygon>
                </g>
                <circle id="Sun" fill="#FFFFFF" cx="79.0165764" cy="23.6424793" r="9.5"></circle>
            </g>
        </g>
    </g>
</svg>