<?xml version="1.0" encoding="UTF-8"?>
<svg width="545px" height="800px" viewBox="0 0 545 800" version="1.1" xmlns="http://www.w3.org/2000/svg" xmlns:xlink="http://www.w3.org/1999/xlink">
    <title>space</title>
    <defs>
        <rect id="path-1" x="0" y="0" width="248.207664" height="510.25958" rx="36.4499981"></rect>
        <filter x="-29.0%" y="-7.8%" width="150.0%" height="124.3%" filterUnits="objectBoundingBox" id="filter-2">
            <feOffset dx="-10" dy="22" in="SourceAlpha" result="shadowOffsetOuter1"></feOffset>
            <feGaussianBlur stdDeviation="17" in="shadowOffsetOuter1" result="shadowBlurOuter1"></feGaussianBlur>
            <feColorMatrix values="0 0 0 0 0   0 0 0 0 0   0 0 0 0 0  0 0 0 0.1 0" type="matrix" in="shadowBlurOuter1"></feColorMatrix>
        </filter>
        <rect id="path-3" x="0" y="0" width="315.451174" height="498.393078"></rect>
    </defs>
    <g id="Templates-🖥📱" stroke="none" stroke-width="1" fill="none" fill-rule="evenodd">
        <g id="space" transform="translate(45.000000, 0.000000)">
            <g id="Background" opacity="0.2" transform="translate(44.499382, 0.000000)">
                <circle id="Oval" fill="#FF9B21" cx="227.441286" cy="289.74042" r="227.441286"></circle>
                <circle id="Oval" fill="#2B44FF" cx="365.883807" cy="759.456119" r="40.5438813"></circle>
                <polygon id="Polygon" fill="#2B44FF" points="189.86403 0 238.318912 48.4548826 189.86403 96.9097651 141.409147 48.4548826"></polygon>
                <polygon id="Polygon" fill="#FF9B21" points="55.3770087 682.323857 79.1100124 706.05686 55.3770087 729.789864 31.6440049 706.05686"></polygon>
                <polygon id="Polygon" fill="#2026A2" points="398.516687 62.2991347 410.383189 74.1656366 398.516687 86.0321384 386.650185 74.1656366"></polygon>
            </g>
            <g id="Group-4" transform="translate(0.000000, 105.809642)">
                <g id="Group" transform="translate(175.921997, 260.806772) rotate(-2.000000) translate(-175.921997, -260.806772) translate(8.802096, 5.676982)">
                    <g id="base">
                        <use fill="black" fill-opacity="1" filter="url(#filter-2)" xlink:href="#path-1"></use>
                        <use fill="#F2F2F2" fill-rule="evenodd" xlink:href="#path-1"></use>
                    </g>
                    <g id="Illustration" transform="translate(18.788628, 0.000000)">
                        <mask id="mask-4" fill="white">
                            <use xlink:href="#path-3"></use>
                        </mask>
                        <g id="Mask"></g>
                        <g id="Group-2" mask="url(#mask-4)">
                            <g transform="translate(94.597134, 289.130818) rotate(14.000000) translate(-94.597134, -289.130818) translate(-176.849096, -78.236301)">
                                <g id="Head/Front" transform="translate(340.536346, 135.261907) rotate(32.000000) translate(-340.536346, -135.261907) translate(265.266230, 64.315776)">
                                    <g id="Head" transform="translate(79.498775, 18.581130)" fill="#B28B67">
                                        <path d="M64.5180618,15.428981 C74.3197715,33.6741667 73.1550736,79.9545933 60.4872372,83.2155169 C55.4353225,84.5159685 44.6732432,81.3303838 33.7199563,74.7372021 L40.595119,123.311132 L0,123.311132 L13.9746542,58.2597054 C6.18091687,49.1234237 0.906032184,37.9268919 1.78749838,25.3809004 C4.32732166,-10.7686439 54.7163522,-2.81620474 64.5180618,15.428981 Z"></path>
                                    </g>
                                    <path d="M131.934137,-2.04976168e-14 C141.275831,-2.04976168e-14 148.84877,7.56277732 148.84877,16.8919359 C148.84877,25.9142365 141.765821,33.2844456 132.85,33.7595315 C127.750015,35.3311599 121.19703,36.4850632 113.929808,36.9716225 C114.636008,39.620819 115.019504,42.6312312 115.019504,46.0331643 C115.019504,49.0366988 114.687558,52.2221054 114.07633,55.4564512 C112.499842,53.5856909 110.392525,52.3650014 108.253651,52.3650014 C102.269988,52.3650014 98.104871,57.2808066 98.104871,62.5001629 C98.104871,69.1239136 101.933659,73.9158316 107.523072,74.2996606 C102.490369,83.949328 95.5280266,91.216454 88.5723561,91.216454 C75.3608174,91.216454 65.9670684,73.5766774 65.9670684,54.6109003 C65.9670684,53.9449006 65.9802753,53.2833291 66.0063335,52.6266959 C61.5375746,55.6881394 57.3965668,59.701462 53.2260257,63.7444805 L52.160464,64.7767026 C43.627316,73.0305575 34.8442003,81.0812925 22.7683569,81.0812925 C-2.38965002,81.0812925 -12.3809434,30.4054847 22.7683569,30.4054847 C46.6738216,30.4054847 58.4321318,33.8864059 68.5658814,39.0337715 C70.5630387,33.405757 73.6107381,28.6748612 77.337462,25.3711803 C78.2331169,24.3644062 79.6058854,23.4010071 81.3767038,22.507795 C82.4562931,21.917746 83.5726709,21.4367743 84.7199441,21.07403 C90.8324003,18.8282619 99.692586,17.2433038 109.590927,16.89811 C111.437304,16.8337196 113.250664,16.8148779 115.019673,16.8386153 C115.048254,7.53409921 122.610172,-2.04976168e-14 131.934137,-2.04976168e-14 Z" id="hair" fill="#191847"></path>
                                </g>
                                <g id="Bottom/Skinny-Jeans-1" transform="translate(-0.023889, 321.383104)">
                                    <path d="M165.278651,174.177683 C205.844075,185.532489 240.842697,191.209891 270.274517,191.209891 C299.706336,191.209891 327.043971,182.466792 352.287421,164.980592 C312.590464,153.325918 279.898251,147.498581 254.210783,147.498581 C228.523316,147.498581 198.879271,156.391615 165.278651,174.177683 Z" id="Skirt-Shadow" fill="#1F28CF"></path>
                                    <path d="M305.391291,207.576538 C305.000144,206.988068 304.669819,206.347931 304.407812,205.654511 C298.985536,191.304047 212.13402,36.491179 203.481488,8.18724169 L301.264044,8.18724169 C307.842686,29.707125 337.452514,164.754652 341.619592,191.698624 C354.767489,234.199822 381.837694,371.845687 385.293428,381.381372 C388.928802,391.41275 368.47376,401.862853 363.022973,389.530517 C354.34985,369.907688 333.684394,315.611673 324.482923,282.458905 C315.856564,251.378257 308.832403,223.416378 305.391291,207.576538 Z" id="Leg" fill="#997659"></path>
                                    <path d="M225.391575,226.477835 C185.68449,236.521187 40.444345,254.677791 30.4773302,257.525608 C20.2243815,260.455124 11.2345073,239.305469 23.9077057,234.724096 C44.0729039,227.434357 99.6371525,210.591103 133.325957,203.717704 C160.423192,198.189158 185.149751,193.677871 201.750511,191.036112 C200.344134,144.369158 193.915221,32.375625 198.129019,8.18724169 L284.648361,8.18724169 C280.607612,31.3822748 246.449391,200.627084 240.100599,217.568011 C238.085803,223.616036 232.074073,226.288816 225.391575,226.477835 L225.391575,226.477835 Z" id="Leg" fill="#B28B67"></path>
                                    <g id="Left-Shoe" transform="translate(26.014189, 275.830934) rotate(80.000000) translate(-26.014189, -275.830934) translate(-23.024130, 258.062213)" fill="#E4E4E4">
                                        <path d="M3.38640668,9.3999393 C1.12880223,15.1778224 1.76089468e-14,19.4372398 1.76089468e-14,22.1781914 C1.76089468e-14,25.229819 0.507993364,29.6829026 1.52398009,35.5374423 C5.06139906,35.5374423 36.852779,35.5374423 96.8981199,35.5374423 C99.3765557,27.3376128 97.9458588,22.9107887 92.6060292,22.2569701 C87.2661997,21.6031514 82.8303126,21.0128055 79.2983679,20.4859323 L34.3205305,0.4193788 C33.8161648,0.194359503 33.2248815,0.420814507 32.9998622,0.925180209 C32.9959381,0.933975688 32.9921414,0.942827397 32.988473,0.951732566 L29.8680785,8.52677782 L29.8680785,8.52677782 C24.924793,10.8349467 20.9078602,11.9890312 17.8172803,11.9890312 C15.0654872,11.9890312 11.1647058,10.7701833 6.11493636,8.33248767 L6.11615251,8.32996159 C5.12091553,7.85081951 3.92569514,8.26919708 3.44655306,9.26443406 C3.42511433,9.30896493 3.4053336,9.35427517 3.38725161,9.40027146 Z" id="shoe"></path>
                                    </g>
                                    <g id="Right-Shoe" transform="translate(353.978398, 377.099738)" fill="#E4E4E4">
                                        <path d="M3.38640668,9.3999393 C1.12880223,15.1778224 0,19.4372398 0,22.1781914 C0,25.229819 0.507993364,29.6829026 1.52398009,35.5374423 C5.06139906,35.5374423 36.852779,35.5374423 96.8981199,35.5374423 C99.3765557,27.3376128 97.9458588,22.9107887 92.6060292,22.2569701 C87.2661997,21.6031514 82.8303126,21.0128055 79.2983679,20.4859323 L34.3205305,0.4193788 C33.8161648,0.194359503 33.2248815,0.420814507 32.9998622,0.925180209 C32.9959381,0.933975688 32.9921414,0.942827397 32.988473,0.951732566 L29.8680785,8.52677782 L29.8680785,8.52677782 C24.924793,10.8349467 20.9078602,11.9890312 17.8172803,11.9890312 C15.0654872,11.9890312 11.1647058,10.7701833 6.11493636,8.33248767 L6.11615251,8.32996159 C5.12091553,7.85081951 3.92569514,8.26919708 3.44655306,9.26443406 C3.42511433,9.30896493 3.4053336,9.35427517 3.38725161,9.40027146 Z" id="shoe"></path>
                                    </g>
                                    <path d="M198.408559,8.18724169 C236.534734,-2.72908056 272.6089,-2.72908056 306.631055,8.18724169 C318.467891,62.2337146 347.229609,83.6848017 352.287421,166.547036 C294.79422,195.135721 223.773206,146.157904 164.589028,174.037626 C147.679263,135.040862 171.352934,41.1262507 198.408559,8.18724169 Z" id="Skirt" fill="#2B44FF"></path>
                                </g>
                                <g id="Body/Long-Sleeve-1" transform="translate(302.510960, 334.525462) rotate(21.000000) translate(-302.510960, -334.525462) translate(125.328707, 181.521045)">
                                    <path d="M270.433945,150.545175 L318.349555,197.226079 C332.291231,203.164964 343.714449,209.722693 352.619208,216.899265 C354.621755,219.311555 356.801854,223.933627 347.37997,221.865316 C337.958085,219.797005 327.954532,218.04462 326.183707,221.104575 C324.412881,224.164529 329.630764,228.853467 326.358058,232.85816 C324.176254,235.527955 316.838676,227.035859 304.345324,207.381871 L254.519427,178.045171 L270.433945,150.545175 Z M57.7553014,157.128605 C46.5019603,222.380151 39.2230308,258.35342 35.918513,265.048412 C33.4952752,269.957921 15.560742,284.873288 3.11537121,293.395478 C-1.88003184,296.81617 0.187493681,301.19355 2.07420254,302.356145 C17.4202703,311.812434 27.5242734,300.630592 40.8068238,294.459369 C55.3589987,287.698265 54.1298407,306.789432 65.665699,301.634406 C62.1237965,293.706394 53.8413509,278.953654 57.7553014,269.266913 C59.494835,264.961695 71.2772254,227.628531 93.1024726,157.267422 L57.7553014,157.128605 Z" id="Skin" fill="#B28B67"></path>
                                    <path d="M148.618681,15.6031954 L162.970959,11.8326057 C193.532121,72.2203182 242.304446,125.252643 309.287934,170.929579 L267.067013,232.370972 C198.194161,165.01446 153.094628,93.2499366 148.618681,15.6031954 Z" id="Coat-Back" fill="#191847" transform="translate(228.953308, 122.101789) rotate(5.000000) translate(-228.953308, -122.101789) "></path>
                                    <path d="M94.4466449,192.56807 L224.689318,192.56807 C194.515084,119.299545 179.427967,57.0588034 179.427967,5.84584344 L140.140186,9.17310782e-14 C109.263682,49.5920327 100.544076,110.649866 94.4466449,192.56807 Z" id="Shirt" fill="#DDE3E9"></path>
                                    <path d="M141.888388,1.82595615e-14 C144.957088,0.10552922 149.631112,0.295661064 155.91046,0.570395532 L165.403798,27.6637209 C166.407982,60.6968185 172.272268,127.267423 182.996654,227.375536 L97.6199654,227.375453 C97.8437794,234.289534 98.2128142,241.268203 98.7270699,248.311458 L35.2454296,248.311458 C44.7411632,141.324631 79.418395,58.5541447 139.277125,1.17735544e-13 L139.30743,0.028 L139.323843,1.82595615e-14 Z" id="Coat-Front" fill="#2F3676"></path>
                                    <path d="M121.510058,228.041135 L97.6419227,228.040147 C96.5971008,197.033145 98.4694359,167.323551 103.258928,138.911364 C105.689873,182.009519 111.773272,211.718897 121.510058,228.041135 Z" id="Shade" fill="#2F3676"></path>
                                    <polygon id="Light" fill-opacity="0.2" fill="#FFFFFF" points="116.623249 175.676134 158.72225 156.130934 158.72225 175.676134"></polygon>
                                </g>
                            </g>
                        </g>
                    </g>
                </g>
                <g id="Group" transform="translate(323.856613, 368.355995) scale(-1, 1) translate(-323.856613, -368.355995) translate(172.064277, 149.320148)">
                    <g id="Head/Front" transform="translate(111.351349, 83.492855) rotate(-27.000000) translate(-111.351349, -83.492855) translate(75.257406, 38.993473)">
                        <g id="Head" transform="translate(23.733004, 16.810878)" fill="#B28B67">
                            <path d="M37.7190026,9.03231933 C43.449347,19.7132803 42.7684331,46.8064236 35.3624736,48.7154092 C32.4090015,49.4767064 26.1172441,47.611846 19.7136875,43.7521513 L23.7330037,72.1878863 L0,72.1878863 L8.16928921,34.1051756 C3.61322816,28.7568257 0.529716209,22.2025184 1.04501986,14.858298 C2.52986919,-6.30409946 31.9886582,-1.64864164 37.7190026,9.03231933 Z"></path>
                        </g>
                        <path d="M71.9660814,11.0362796 C71.47462,9.30877529 70.1527137,7.82967152 68.3712235,7.39086294 C67.9392147,7.2844241 67.4930599,7.24143294 67.0485348,7.25935675 C66.8890821,7.265721 66.8443623,7.31169946 66.769851,7.20019519 C66.7145706,7.11752488 66.713332,6.91555734 66.690581,6.8184051 C66.6197855,6.51629803 66.5312586,6.21795755 66.4220015,5.92734509 C66.0492497,4.93614555 65.4228468,4.05891805 64.6676952,3.31995063 C63.255241,1.93747957 61.3467623,0.983361525 59.3639679,0.810747466 C58.2787635,0.71632277 57.2014469,0.892638485 56.1754994,1.24565956 C55.6443379,1.42840447 55.1292781,1.6559589 54.6276473,1.90754161 C54.476604,1.98326321 53.9865768,2.35414315 53.835012,2.33011486 C53.6676061,2.3036188 53.3311647,1.88760463 53.1950497,1.78317896 C51.5125819,0.492340117 49.4349372,-0.0151763885 47.3393003,-8.12308778e-15 C44.9739106,0.0178138079 42.6962003,0.136007031 40.723445,1.57796436 C40.305843,1.88325356 39.9081238,2.21750659 39.5294398,2.56942367 C39.3300261,2.75470128 39.1368705,2.94692763 38.9526458,3.14714175 C38.8414983,3.26793263 38.7332842,3.39145104 38.6291119,3.51828146 C38.4523188,3.73356197 38.4806761,3.80428308 38.2332179,3.65407378 C37.2838026,3.07726488 36.1836046,2.80749859 35.0754536,2.94368056 C34.4174339,3.02459746 33.7772109,3.22214899 33.1693217,3.48217408 C32.962346,3.57068911 32.4832706,3.92377513 32.2626704,3.92721702 C32.0438303,3.93059397 31.5714694,3.60328966 31.3460452,3.52009982 C30.1285067,3.07064086 28.8161831,2.95985095 27.5364541,3.16753333 C26.216373,3.38183972 24.9196297,3.90851392 23.8011788,4.63631142 C23.2632376,4.98641014 22.7938754,5.37430472 22.4168863,5.89487443 C22.2541089,6.11963638 22.1069769,6.35738659 21.9224915,6.56578332 C21.814473,6.68780809 21.6005873,6.81301497 21.5426341,6.96744546 C21.5773147,6.874969 20.0989543,6.30504388 19.9594494,6.26861179 C19.2162275,6.07450215 18.4594462,6.1138566 17.731674,6.35336023 C16.3631574,6.80372836 15.1862317,7.81369595 14.2189545,8.84918548 C13.7221477,9.38105499 13.287401,9.96896886 12.918365,10.595328 C12.7415067,10.895357 12.5797724,11.2039582 12.4317929,11.5191184 C12.3600848,11.6717955 12.3125619,11.862788 12.2181027,12.0003337 C12.0963293,12.1775586 12.0145169,12.1809356 11.7939819,12.2582157 C10.6739664,12.6505913 9.65297329,13.3147463 8.87546183,14.2121705 C8.08901944,15.1201153 7.57871846,16.2382102 7.36476754,17.4156615 C7.35218602,17.4850188 7.34468927,17.7724491 7.3040764,17.8099852 C7.24840483,17.8616785 7.02317618,17.8388192 6.93797391,17.8488201 C6.64292764,17.8834339 6.34996742,17.9349324 6.06091855,18.0033805 C5.52806211,18.1294966 5.00941692,18.3150989 4.51880307,18.5578496 C2.60628262,19.5041097 1.23861341,21.2781121 0.569250812,23.2742787 C-0.13309752,25.3691562 -0.120646385,27.769193 0.718794814,29.8249758 C0.854388329,30.1570208 1.01573157,30.4793247 1.20523655,30.7842242 C1.32159925,30.9713851 1.35914823,30.9718397 1.28359396,31.1682223 C1.19936952,31.3866849 1.04552303,31.5989782 0.945522817,31.8124403 C0.619250921,32.509066 0.391153945,33.2479035 0.247085836,34.0025218 C0.010709833,35.2403685 -0.106435141,36.5412083 0.126746591,37.7884715 C0.235025836,38.3676183 0.423683351,38.9337768 0.711493625,39.4496058 C0.858234491,39.7126182 1.02994282,39.9620579 1.22381547,40.1927944 C1.32446758,40.3126112 1.43137785,40.4270378 1.54317731,40.5366588 C1.60712791,40.5992622 1.6909612,40.6540727 1.74532899,40.7240145 C1.87805418,40.8945505 1.90595515,40.7543421 1.8375065,41.0047559 C1.74180877,41.3548546 1.52485915,41.7002776 1.39200358,42.0409598 C1.25510628,42.3920326 1.1313772,42.7479111 1.01820876,43.1072965 C0.789003572,43.835029 0.59519611,44.5759447 0.474009406,45.3295888 C0.241283998,46.7765466 0.28215762,48.3183188 0.966578925,49.6463041 C1.2592132,50.2143459 1.67903158,50.7126407 2.18822434,51.1002755 C2.43744262,51.2899042 2.70739105,51.4533616 2.99057289,51.5875953 C3.13607517,51.6566929 3.32186436,51.6863061 3.38822695,51.827034 C3.4596743,51.9783473 3.35361149,52.2788308 3.3294263,52.448003 C3.1189956,53.9197035 3.0134543,55.4649175 3.45093895,56.9071346 C3.85387334,58.2355095 4.74103302,59.40835 5.89286082,60.1848535 C8.12735068,61.6911677 11.139352,61.6062244 13.4872059,60.4003288 C14.099202,60.0859478 14.6717586,59.6956504 15.182516,59.2352813 C16.4831055,60.9860996 19.1594477,60.9307047 21.0602993,60.4318254 C23.4284922,59.8103368 25.328757,58.1636195 26.4236095,56.0000341 C27.9206792,57.8224827 31.0625374,57.2311918 32.1006753,55.2541179 C32.3547827,54.7702401 32.5055001,54.2369419 32.5796854,53.6972794 C32.6187338,53.4134858 32.5938315,53.1272244 32.6231666,52.8457037 C32.6605852,52.4869678 32.9002207,52.1383627 33.0379655,51.7913163 C33.306219,51.1159264 33.4727773,50.4182617 33.4799482,49.6897498 C33.4836639,49.3093884 33.4354891,48.9387033 33.3993091,48.5613942 C33.3667797,48.221751 33.4609781,47.9052919 33.5144984,47.5700648 C32.9071307,47.6700744 32.1671683,47.5062924 31.5949375,47.3301715 C31.0333979,47.1573626 30.5074515,46.7021888 30.1111012,46.2864993 C29.1908254,45.3212114 28.6286338,44.0558295 28.244148,42.7964223 C27.4001435,40.0322595 27.7461026,36.7159005 30.5263563,35.198871 C31.8215352,34.4921794 35.7017274,34.4944974 37.2443428,34.8437685 C38.8663354,35.2110117 40.7051268,38.7899967 40.7956094,39.1263928 C40.8516069,39.3345947 40.8234452,39.5922819 41.0147103,39.7309966 C41.4350502,40.0360261 42.128272,39.5066893 42.4383118,39.2454303 C42.9733195,38.7945426 43.354937,38.1946146 43.6854462,37.586504 C44.4055912,36.2617008 44.9861661,34.8409793 45.3962713,33.3906446 C45.7124389,32.2724847 45.9145906,31.1194514 46.3278248,30.0298008 C46.7390383,28.9455403 47.3872796,27.9764208 48.3951696,27.3622057 C49.4915866,26.6940243 50.748369,26.3421073 51.9520222,25.9221966 C53.1451148,25.5060525 54.3176075,24.997432 55.2424466,24.1144248 C55.4457717,23.9202502 55.6432949,23.7139316 55.806985,23.4853381 C55.9361899,23.3048661 56.0638955,22.9593782 56.2607669,22.8449516 C56.5668302,22.6669474 57.0135065,23.1298492 57.2781746,23.2979174 C58.5839141,24.1272182 59.6732906,25.2838233 60.5519105,26.5473219 C61.4256412,27.8039366 62.142579,29.0130793 62.7251748,30.4162666 C63.1573139,31.4569515 63.4270146,32.7897424 64.1870553,33.6426169 C64.5263651,34.0234329 67.0485348,34.2538162 67.8654857,33.9213451 C68.6824367,33.5888741 69.5980188,32.7255804 69.8722046,32.1845541 C70.1529092,31.6307994 70.2199889,31.022494 70.1000408,30.4162666 C70.0295061,30.0596088 69.885438,29.7264598 69.8066242,29.3761663 C69.7402617,29.0819171 69.6800268,28.8037734 69.5368062,28.5342019 C69.2653584,28.0233734 68.8016025,27.6561951 68.2423444,27.5026738 C68.8243535,26.9660636 69.3066232,26.3241185 69.6403266,25.6065168 C69.9870679,24.8609903 70.2809408,23.9543444 70.3643178,23.1360836 C70.4321145,22.471474 70.3274859,21.7829011 69.963665,21.2117421 C69.5819823,20.6125933 68.90584,20.2217115 68.3208322,19.8479741 C69.2144456,19.1488157 69.9792452,18.2985389 70.607995,17.3571493 C71.8307486,15.5264532 72.5870736,13.2188279 71.9660814,11.0362796 Z" id="hair" fill="#191847"></path>
                    </g>
                    <g id="Bottom/Skinny-Jeans-1" transform="translate(23.947468, 201.730532)">
                        <polygon id="Leg" fill="#997659" points="115.483929 0 164.019543 122.844904 196.57258 226.699916 209.427069 226.699916 159.660629 5.03374932e-13"></polygon>
                        <path d="M105.710508,0 C105.193673,43.1685427 97.6563225,101.287979 96.4521079,103.978886 C95.6492981,105.772824 67.9350118,128.585874 13.3092489,172.418036 L22.1628625,181.892446 C86.6162021,144.311867 120.334164,123.015416 123.316747,118.003093 C127.790622,110.484608 142.356018,41.2985285 154.05006,0 L105.710508,0 Z" id="Leg" fill="#B28B67"></path>
                        <g id="Left-Shoe" transform="translate(26.387449, 192.557192) rotate(50.000000) translate(-26.387449, -192.557192) translate(-2.289931, 182.174003)" fill="#E4E4E4">
                            <path d="M1.65083411,6.35375293 C0.550278036,9.29546614 1.15241243e-14,11.4975059 1.15241243e-14,12.9598723 C1.15241243e-14,14.7430972 0.297072143,17.3452659 0.891216429,20.7663782 C2.95988249,20.7663782 21.5513327,20.7663782 56.6655672,20.7663782 C58.1149448,15.9747909 57.27828,13.387967 54.1555727,13.0059067 C51.0328653,12.6238464 48.4387793,12.2788765 46.3733146,11.9709971 L20.460384,0.41888346 C19.9559548,0.194006431 19.3647353,0.4206282 19.1398583,0.925057349 C19.1360113,0.933686736 19.1322867,0.94237021 19.1286858,0.951105155 L17.4667126,4.98264034 L17.4667126,4.98264034 C14.5759023,6.33142364 12.2268189,7.00581529 10.4194622,7.00581529 C8.95539739,7.00581529 6.93517141,6.41628609 4.35878425,5.23722769 L4.35853899,5.23776187 C3.35471674,4.77687722 2.16733719,5.21701511 1.70645254,6.22083737 C1.68640776,6.26449557 1.66794249,6.30886182 1.65109266,6.35384977 Z" id="shoe"></path>
                        </g>
                        <g id="Right-Shoe" transform="translate(189.649566, 215.574784)" fill="#E4E4E4">
                            <path d="M1.65083411,6.35375293 C0.550278036,9.29546614 0,11.4975059 0,12.9598723 C0,14.7430972 0.297072143,17.3452659 0.891216429,20.7663782 C2.95988249,20.7663782 21.5513327,20.7663782 56.6655672,20.7663782 C58.1149448,15.9747909 57.27828,13.387967 54.1555727,13.0059067 C51.0328653,12.6238464 48.4387793,12.2788765 46.3733146,11.9709971 L20.460384,0.41888346 C19.9559548,0.194006431 19.3647353,0.4206282 19.1398583,0.925057349 C19.1360113,0.933686736 19.1322867,0.94237021 19.1286858,0.951105155 L17.4667126,4.98264034 L17.4667126,4.98264034 C14.5759023,6.33142364 12.2268189,7.00581529 10.4194622,7.00581529 C8.95539739,7.00581529 6.93517141,6.41628609 4.35878425,5.23722769 L4.35853899,5.23776187 C3.35471674,4.77687722 2.16733719,5.21701511 1.70645254,6.22083737 C1.68640776,6.26449557 1.66794249,6.30886182 1.65109266,6.35384977 Z" id="shoe"></path>
                        </g>
                        <polygon id="Pant" fill="#69A1AC" points="148.116809 216.002857 209.233709 209.369916 163.938812 2.84217094e-14 109.198711 2.84217094e-14"></polygon>
                        <path d="M25.9511312,157.132736 L66.0401714,204.584386 C108.265094,158.467205 132.882334,128.375736 139.891891,114.309979 C146.901449,100.244222 153.202685,62.1408959 158.795598,0 L97.1681278,0 C94.1129946,54.6688496 92.0536221,83.275279 90.9900105,85.8192881 C89.9263989,88.3632972 68.2467725,112.134446 25.9511312,157.132736 Z" id="Pant" fill="#89C5CC"></path>
                    </g>
                    <g id="Body/Long-Sleeve-1" transform="translate(144.056553, 184.710006) rotate(-14.000000) translate(-144.056553, -184.710006) translate(18.634603, 102.138930)">
                        <path d="M193.81953,76.7536095 L229.650993,61.0177245 C235.92783,54.762939 241.989011,50.0090127 247.834535,46.7559458 C249.582458,46.1994654 252.568703,46.0313461 249.382613,50.6849625 C246.196524,55.338579 243.054526,60.3767754 244.327604,62.0077096 C245.600681,63.6386438 249.28851,61.8385366 250.745458,64.4907555 C251.716757,66.2589014 245.500407,68.3739733 232.096407,70.8359711 L205.260757,91.410914 L193.81953,76.7536095 Z M48.9575109,81.0877627 L69.2212608,85.1083754 C48.8426031,123.086338 37.913895,143.21468 36.4351366,145.493401 C33.1079302,150.620526 36.2122811,160.017047 37.3590154,164.965319 C30.1650476,166.639921 33.0021275,155.812119 23.8983003,158.072865 C15.5887491,160.13637 8.54325159,165.432058 0.79493538,158.289978 C-0.157674569,157.411901 -0.855030093,154.667281 2.39289977,153.259579 C10.4846775,149.752479 22.4395976,143.185506 24.3780889,140.635942 C27.0215681,137.159156 35.2147088,117.309763 48.9575109,81.0877627 Z" id="Skin" fill="#B28B67"></path>
                        <path d="M119.931023,9.76729816 L128.321581,7.56094891 C148.450072,23.935797 159.804565,66.5133961 172.670131,71.1551509 C184.834002,75.5437422 200.947929,68.8573643 220.02785,60.0633198 L227.239607,73.013936 C211.035675,93.9431639 174.337317,113.638116 158.064712,105.651232 C132.0482,92.8818661 121.677927,40.0508361 119.931023,9.76729816 Z" id="Coat-Back" fill="#DB2721" transform="translate(173.585315, 57.514727) rotate(5.000000) translate(-173.585315, -57.514727) "></path>
                        <path d="M87.0210136,112.731768 C121.307052,112.731768 146.527142,112.731768 162.681286,112.731768 C166.138575,112.731768 165.487115,107.739567 164.987343,105.220475 C159.21937,76.1471113 136.703391,44.8074319 136.703391,3.42223021 L114.879407,4.59559902e-15 C96.8281681,29.0317991 90.5857368,64.7758219 87.0210136,112.731768 Z" id="Shirt" fill="#DDE3E9"></path>
                        <path d="M122.112631,1.54904879e-14 C141.704744,66.7856096 147.105943,111.284992 138.316228,133.498146 L70.210136,133.498146 C71.2877206,117.243267 74.7430459,100.05307 79.4756999,83.2924238 C64.0517922,111.116239 51.0866228,131.147563 40.5809099,143.386897 L24.7218789,140.280663 C34.9375453,76.925263 64.5207521,30.1650421 113.471499,-8.39854951e-14 Z" id="Coat-Front" fill="#FF4133"></path>
                    </g>
                </g>
            </g>
        </g>
    </g>
</svg>