<?xml version="1.0" standalone="no"?><!DOCTYPE svg PUBLIC "-//W3C//DTD SVG 1.1//EN" "http://www.w3.org/Graphics/SVG/1.1/DTD/svg11.dtd"><svg t="1652253217887" class="icon" viewBox="0 0 1024 1024" version="1.1" xmlns="http://www.w3.org/2000/svg" p-id="1327" xmlns:xlink="http://www.w3.org/1999/xlink" width="200" height="200"><defs><style type="text/css">@font-face { font-family: feedback-iconfont; src: url("//at.alicdn.com/t/font_1031158_u69w8yhxdu.woff2?t=1630033759944") format("woff2"), url("//at.alicdn.com/t/font_1031158_u69w8yhxdu.woff?t=1630033759944") format("woff"), url("//at.alicdn.com/t/font_1031158_u69w8yhxdu.ttf?t=1630033759944") format("truetype"); }
</style></defs><path d="M491.648 403.424l-103.776 103.744a32 32 0 1 1-45.248-45.248l158.4-158.4a32 32 0 0 1 45.248 0l158.4 158.4a32 32 0 0 1-45.248 45.248l-103.776-103.744v317.728a32 32 0 1 1-64 0v-317.76zM512 64a448 448 0 0 1 448 448c0 247.424-200.576 448-448 448S64 759.424 64 512 264.576 64 512 64z m0 832a384 384 0 0 0 384-384c0-212.064-171.936-384-384-384S128 299.936 128 512s171.936 384 384 384z" fill="#333333" p-id="1328"></path></svg>