<?xml version="1.0" encoding="UTF-8"?>
<svg width="16px" height="16px" viewBox="0 0 16 16" version="1.1" xmlns="http://www.w3.org/2000/svg" xmlns:xlink="http://www.w3.org/1999/xlink">
    <title>6D4B31E1-F3C4-489D-82D5-8373CC78909A</title>
    <g id="移动端2" stroke="none" stroke-width="1" fill="none" fill-rule="evenodd">
        <g id="工单详情-动作图标及颜色" transform="translate(-134.000000, -521.000000)" fill-rule="nonzero">
            <g id="新建关联单" transform="translate(134.000000, 521.000000)">
                <rect id="矩形" fill="#000000" opacity="0" x="0" y="0" width="16" height="16"></rect>
                <path d="M8,1.16666667 C4.226,1.16666667 1.16666667,4.226 1.16666667,8 C1.16666667,11.774 4.226,14.8333333 8,14.8333333 C11.774,14.8333333 14.8333333,11.774 14.8333333,8 C14.8333333,4.226 11.774,1.16666667 8,1.16666667 Z M8,2.16666667 C11.2216667,2.16666667 13.8333333,4.77833334 13.8333333,8 C13.8333333,11.2216667 11.2216667,13.8333333 8,13.8333333 C4.77833333,13.8333333 2.16666667,11.2216667 2.16666667,8 C2.16666667,4.77833333 4.77833333,2.16666667 8,2.16666667 Z" id="形状" fill="#333333"></path>
                <path d="M5.5,7.5 L10.5,7.5 C10.8333333,7.5 11,7.66666667 11,8 L11,8 C11,8.33333333 10.8333333,8.5 10.5,8.5 L5.5,8.5 C5.16666667,8.5 5,8.33333333 5,8 L5,8 C5,7.66666667 5.16666667,7.5 5.5,7.5 Z" id="路径" fill="#333333"></path>
                <path d="M8.5,5.66666667 L8.5,10.6666667 C8.5,11 8.33333333,11.1666667 8,11.1666667 L8,11.1666667 C7.66666667,11.1666667 7.5,11 7.5,10.6666667 L7.5,5.66666667 C7.5,5.33333334 7.66666667,5.16666667 8,5.16666667 L8,5.16666667 C8.33333333,5.16666667 8.5,5.33333334 8.5,5.66666667 Z" id="路径" fill="#333333"></path>
            </g>
        </g>
    </g>
</svg>