<?xml version="1.0" encoding="UTF-8"?>
<svg width="24px" height="24px" viewBox="0 0 24 24" version="1.1" xmlns="http://www.w3.org/2000/svg" xmlns:xlink="http://www.w3.org/1999/xlink">
    <title>指派</title>
    <g id="红色顶栏" stroke="none" stroke-width="1" fill="none" fill-rule="evenodd">
        <g id="指派">
            <rect id="转派" x="0" y="0" width="24" height="24"></rect>
            <path d="M7.06284867,21.7555686 L22.0874677,21.7555686 C22.5517115,21.7555686 22.9174794,22.1494725 22.9174794,22.6277843 C22.9174794,23.1060961 22.5376435,23.5 22.0874677,23.5 L7.06284867,23.5 C6.59860483,23.5 6.23283695,23.1060961 6.23283695,22.6277843 C6.23283695,22.1494725 6.61267282,21.7555686 7.06284867,21.7555686 Z M7.06284867,16.9443142 L22.0874677,16.9443142 C22.5517115,16.9443142 22.9174794,17.3382181 22.9174794,17.8165299 C22.9174794,18.2948417 22.5376435,18.6887456 22.0874677,18.6887456 L7.06284867,18.6887456 C6.59860483,18.6887456 6.23283695,18.2948417 6.23283695,17.8165299 C6.23283695,17.3382181 6.61267282,16.9443142 7.06284867,16.9443142 Z M3.53178185,17.1283705 C3.23635395,17.8599062 2.16718631,17.6910903 2.09684633,16.9173505 C1.42158255,8.75791325 4.2914536,4.67819461 10.2703516,3.58089097 L10.2703516,1.24560375 C10.2703516,0.837631887 10.6079835,0.5 11.0159554,0.5 C11.1847713,0.5 11.3395192,0.556271981 11.4661312,0.654747948 L18.162497,5.85990621 C18.4860609,6.11313013 18.5423328,6.57737397 18.2891089,6.90093787 C18.2469049,6.94314185 18.204701,6.99941383 18.162497,7.02754982 L11.4661312,12.2327081 C11.3114489,12.3543751 11.114673,12.4094138 10.9193145,12.385654 C10.723956,12.3618942 10.5461092,12.2612933 10.4250996,12.1060961 C10.3266236,11.9794842 10.2703516,11.8106682 10.2703516,11.6559203 L10.2703516,9.47538101 C7.37234457,9.82708089 5.43096122,12.373388 3.53178185,17.1283705 Z M11.0018874,8.06858148 C11.4379952,8.06858148 11.7756271,8.42028136 11.7756271,8.84232122 L11.7756271,10.3616647 L16.7275615,6.492966 L11.7756271,2.62426729 L11.7756271,4.14361079 C11.7756271,4.53751465 11.4942672,4.86107855 11.1003633,4.91735053 C6.12029299,5.63481829 3.44737388,8.26553341 3.13787798,13.9490035 C5.16366931,10.0803048 7.49895653,8.06858148 11.0018874,8.06858148 Z" id="形状" stroke="#313236" stroke-width="0.5" fill="#313236" fill-rule="nonzero"></path>
        </g>
    </g>
</svg>