<?xml version="1.0" encoding="UTF-8"?>
<svg width="16px" height="16px" viewBox="0 0 16 16" version="1.1" xmlns="http://www.w3.org/2000/svg" xmlns:xlink="http://www.w3.org/1999/xlink">
    <title>E53DA3B3-DFF4-4294-AC00-4FCE476C0B32</title>
    <g id="移动端2" stroke="none" stroke-width="1" fill="none" fill-rule="evenodd">
        <g id="工单详情备份-5" transform="translate(-255.000000, -210.000000)" fill-rule="nonzero">
            <g id="编组-8备份-4" transform="translate(245.000000, 68.000000)">
                <g id="编组-34备份-4" transform="translate(2.000000, 134.000000)">
                    <g id="管理" transform="translate(8.000000, 8.000000)">
                        <rect id="矩形" fill="#000000" opacity="0" x="0" y="0" width="16" height="16"></rect>
                        <path d="M7.9265625,5.896875 C6.8125,5.896875 5.90625,6.803125 5.90625,7.9171875 C5.90625,9.03125 6.8125,9.9375 7.9265625,9.9375 L7.9265625,9.053125 C7.3,9.053125 6.790625,8.54375 6.790625,7.9171875 C6.790625,7.290625 7.3,6.78125 7.9265625,6.78125 C8.553125,6.78125 9.0625,7.290625 9.0625,7.9171875 L9.946875,7.9171875 C9.946875,6.803125 9.040625,5.896875 7.9265625,5.896875 Z" id="路径" fill="#333333"></path>
                        <path d="M12.3875,3.6453125 L10.9546875,4.1765625 C10.5953125,3.89375 10.2015625,3.665625 9.778125,3.496875 L9.521875,1.990625 L6.509375,1.990625 L6.2546875,3.496875 C5.83125,3.665625 5.4359375,3.89375 5.078125,4.1765625 L3.6453125,3.6453125 L2.1390625,6.2546875 L3.3140625,7.228125 C3.28125,7.453125 3.265625,7.68125 3.265625,7.9078125 C3.265625,8.1359375 3.2828125,8.3625 3.3140625,8.5875 L2.1375,9.5625 L3.64375,12.171875 L5.0765625,11.6390625 C5.4359375,11.921875 5.8296875,12.15 6.253125,12.31875 L6.5078125,13.825 L9.5203125,13.825 L9.7765625,12.31875 C10.2,12.15 10.5953125,11.921875 10.953125,11.6390625 L12.3859375,12.171875 L13.8921875,9.5625 L12.715625,8.5890625 C12.7484375,8.3640625 12.7640625,8.1359375 12.7640625,7.909375 C12.7640625,7.6828125 12.746875,7.4546875 12.715625,7.2296875 L13.8921875,6.25625 L12.3875,3.6453125 Z M11.7515625,6.8796875 L11.803125,7.1390625 C11.8546875,7.3921875 11.8796875,7.6515625 11.8796875,7.909375 C11.8796875,8.1671875 11.853125,8.4265625 11.803125,8.6796875 L11.7515625,8.9390625 L12.753125,9.76875 L11.99375,11.0828125 L10.7734375,10.6296875 L10.575,10.8046875 C10.184375,11.15 9.7359375,11.409375 9.24375,11.5734375 L8.9921875,11.6578125 L8.775,12.940625 L7.2578125,12.940625 L7.040625,11.6578125 L6.7890625,11.5734375 C6.296875,11.409375 5.8484375,11.15 5.4578125,10.8046875 L5.259375,10.628125 L4.0375,11.08125 L3.278125,9.7671875 L4.2796875,8.9375 L4.2265625,8.678125 C4.175,8.4265625 4.15,8.1671875 4.15,7.9078125 C4.15,7.6484375 4.1765625,7.390625 4.2265625,7.1375 L4.2796875,6.878125 L3.278125,6.0484375 L4.0375,4.734375 L5.2578125,5.1875 L5.45625,5.0125 C5.846875,4.6671875 6.2953125,4.4078125 6.7875,4.24375 L7.0390625,4.159375 L7.25625,2.8765625 L8.7734375,2.8765625 L8.990625,4.159375 L9.2421875,4.24375 C9.734375,4.409375 10.1828125,4.6671875 10.5734375,5.0125 L10.771875,5.1875 L11.9921875,4.734375 L12.7515625,6.0484375 L11.7515625,6.8796875 Z" id="形状" fill="#333333"></path>
                    </g>
                </g>
            </g>
        </g>
    </g>
</svg>