<?xml version="1.0" encoding="UTF-8"?>
<svg width="24px" height="24px" viewBox="0 0 24 24" version="1.1" xmlns="http://www.w3.org/2000/svg" xmlns:xlink="http://www.w3.org/1999/xlink">
    <title>作废</title>
    <g id="红色顶栏" stroke="none" stroke-width="1" fill="none" fill-rule="evenodd">
        <g id="编组-13">
            <rect id="矩形" x="0" y="0" width="24" height="24"></rect>
            <path d="M12,0 C5.4,0 0,5.4 0,12 C0,18.6 5.4,24 12,24 C18.6,24 24,18.6 24,12 C24,5.4 18.6,0 12,0 Z M12,2.4 C14.28,2.4 16.32,3.12 17.88,4.44 L4.44,17.88 C3.12,16.32 2.4,14.28 2.4,12 C2.4,6.72 6.72,2.4 12,2.4 Z M12,21.6 C9.72,21.6 7.68,20.88 6.12,19.56 L19.56,6.12 C20.88,7.68 21.6,9.72 21.6,12 C21.6,17.28 17.28,21.6 12,21.6 Z" id="形状" fill="#313236" fill-rule="nonzero"></path>
        </g>
    </g>
</svg>