<?xml version="1.0" encoding="UTF-8"?>
<svg width="187px" height="187px" viewBox="0 0 187 187" version="1.1" xmlns="http://www.w3.org/2000/svg" xmlns:xlink="http://www.w3.org/1999/xlink">
    <title>已作废</title>
    <g id="V6.3" stroke="none" stroke-width="1" fill="none" fill-rule="evenodd">
        <g id="Apple-TV" transform="translate(-570.000000, -92.000000)" fill="#f5222d" fill-rule="nonzero">
            <g id="已作废" transform="translate(570.000000, 92.000000)">
                <path d="M169.368017,39.9196738 C139.922275,-2.19858535 81.8994342,-12.485635 39.781175,16.9601076 C-2.33708418,46.4058502 -12.6241338,104.428691 16.8216088,146.54695 C46.2673514,188.665209 104.290192,198.952259 146.408451,169.506516 C188.52671,140.060774 198.81376,82.037933 169.368017,39.9196738 Z M142.047589,163.271673 C103.364225,190.301084 50.1079088,180.869451 23.0564516,142.186088 C-3.97295898,103.502724 5.45867383,50.2243609 44.1420373,23.1949504 C82.8254008,-3.83446016 136.081717,5.60158203 163.133175,44.2805363 C190.162585,82.9638998 180.726543,136.224626 142.047589,163.271673 Z" id="形状"></path>
                <path d="M157.647924,46.7321434 C132.443991,10.6988086 82.8121727,1.89771504 46.7788379,27.0840107 C10.7455031,52.2879439 1.94881895,101.924171 27.1351146,137.957506 C52.3214104,173.990841 101.953228,182.791934 138.004201,157.605639 C174.050763,132.419343 182.83422,82.7654781 157.647924,46.7321434 Z M135.843612,154.505855 C101.512292,178.497213 54.235075,170.115009 30.2260799,135.801326 C6.23472227,101.470007 14.616926,54.1927898 48.9306082,30.1793854 C83.2619279,6.18802773 130.539145,14.5702314 154.54814,48.8839139 C178.543907,83.219643 170.157294,130.49686 135.843612,154.505855 Z" id="形状"></path>
                <path d="M68.6360627,61.5079271 C79.0149551,54.142705 92.2985302,52.207328 104.347514,56.304876 L108.245393,53.5578412 C94.4170702,47.8361046 78.6196198,49.6143168 66.4093332,58.2670436 C53.7059512,67.2445117 47.1139498,81.7954178 47.6386643,96.3815988 L51.5365434,93.6345643 C51.8760645,81.2266098 57.8198893,69.1493576 68.6360627,61.5079271 L68.6360627,61.5079271 Z M135.552593,93.0833936 L131.659124,95.8304281 C131.315193,108.238383 125.371368,120.311225 114.555195,127.952656 C104.179629,135.326179 90.8919081,137.26216 78.8437437,133.155707 L74.950274,135.907151 C88.7785968,141.628888 104.576047,139.850676 116.786334,131.197949 C129.480897,122.220481 136.077308,107.669575 135.552593,93.0833936 L135.552593,93.0833936 Z M56.660226,55.0967098 L59.1603363,47.8036193 L66.7709012,47.9314908 L60.6815674,43.2972477 L63.1816775,36.0041572 L56.9291973,40.4223414 L50.8398635,35.7660516 L53.0489557,43.1517387 L46.7964754,47.5655135 L54.4246777,47.715432 L56.660226,55.0967098 Z M49.5567383,62.9189242 L42.0916824,61.3227338 L41.2935873,53.6460285 L37.4706674,60.3173984 L30.023249,58.7035707 L35.1160662,64.4401553 L31.2931463,71.1291627 L38.2687625,67.9941039 L43.3615797,73.7306883 L42.5811221,66.053983 L49.5567383,62.9189242 L49.5567383,62.9189242 Z M76.5023707,43.879284 L81.8112467,38.3278928 L88.6589914,41.7186949 L85.0918146,34.9018158 L90.3830533,29.3504246 L82.8827227,30.6864625 L79.293499,23.8695834 L78.2220232,31.5110137 L70.7216926,32.8470516 L77.5694371,36.2378535 L76.5023707,43.879284 Z M99.1709187,42.1949064 L106.292044,39.4258248 L111.093843,45.4181525 L110.692591,37.7194004 L117.813716,34.9503189 L110.454485,32.9528764 L110.057642,25.2585336 L105.890792,31.7270727 L98.5359701,29.7119926 L103.337769,35.7219578 L99.1709187,42.1949064 L99.1709187,42.1949064 Z M32.761465,85.6095189 L28.8459484,78.9954707 L28.175725,86.6721762 L20.7283066,88.4138754 L27.7568352,91.4387002 L27.0866117,99.1154055 L32.086832,93.2862242 L39.1153607,96.311049 L35.1822066,89.6970008 L40.1824271,83.8898664 L32.761465,85.6095189 L32.761465,85.6095189 Z M126.531032,134.372692 L124.030921,141.665782 L116.420356,141.537911 L122.50969,146.172154 L120.00958,153.465245 L126.26206,149.04706 L132.351394,153.70335 L130.142302,146.317663 L136.394782,141.899479 L128.76658,141.75397 L126.531032,134.372692 L126.531032,134.372692 Z M151.898111,118.33583 L144.922495,121.466479 L139.829678,115.729895 L140.610136,123.4066 L133.634519,126.541659 L141.099575,128.13344 L141.89767,135.810145 L145.72059,129.138775 L153.168009,130.752603 L148.075191,125.016018 L151.898111,118.33583 L151.898111,118.33583 Z M106.688887,145.585708 L101.380011,151.1371 L94.5322662,147.746297 L98.1038523,154.563177 L92.8126137,160.114568 L100.312944,158.77853 L103.902168,165.595409 L104.973644,157.953979 L112.473974,156.617941 L105.62623,153.227139 L106.688887,145.585708 Z M84.0203389,147.274495 L76.8992137,150.043577 L72.0974146,144.051249 L72.4986668,151.750001 L65.3775416,154.519083 L72.7323633,156.516525 L73.1292061,164.210868 L77.2960564,157.742329 L84.6508781,159.757409 L79.8490791,153.747444 L84.0203389,147.274495 L84.0203389,147.274495 Z M155.430013,98.0307016 L156.100237,90.3539963 L151.100016,96.1831775 L144.067078,93.1583527 L148.000232,99.772401 L143.000012,105.579535 L150.429793,103.855473 L154.3409,110.469522 L155.011123,102.792816 L162.458542,101.051117 L155.430013,98.0307016 L155.430013,98.0307016 Z" id="形状"></path>
                <path d="M72.92,104.304 C74.2,104.24 75.256,103.856 76.024,103.152 C76.664,102.448 77.208,100.048 77.624,95.952 L74.36,94.928 C74.168,98.192 73.88,100.08 73.432,100.528 C72.984,100.912 72.504,101.104 71.992,101.104 L56.088,101.104 C54.936,101.104 54.36,100.528 54.36,99.376 L54.36,90.832 L74.104,90.832 L74.104,77.136 L49.688,77.136 L49.688,80.336 L70.712,80.336 L70.712,87.632 L54.36,87.632 L54.36,83.408 L51.032,83.408 L51.032,99.984 C51.032,102.864 52.376,104.304 55.128,104.304 L72.92,104.304 Z M99.256,105.424 L99.256,98.288 L108.088,98.288 L108.088,95.056 L99.256,95.056 L99.256,90.672 L108.088,90.672 L108.088,87.408 L99.256,87.408 L99.256,83.152 L109.304,83.152 L109.304,79.856 L96.408,79.856 C96.856,78.672 97.304,77.456 97.752,76.176 L94.36,75.408 C92.44,80.912 90.2,85.136 87.64,88.144 L90.04,91.024 C91.832,88.848 93.464,86.224 94.936,83.152 L95.864,83.152 L95.864,105.424 L99.256,105.424 Z M87.128,105.424 L87.128,83.888 C88.408,81.712 89.464,79.408 90.264,77.008 L87.096,75.536 C85.528,80.336 83.128,84.528 79.896,88.08 L81.016,91.664 C81.976,90.704 82.872,89.712 83.736,88.688 L83.736,105.424 L87.128,105.424 Z M114.68,105.232 C116.792,100.976 117.88,95.312 118.008,88.24 L118.008,81.424 L141.304,81.424 L141.304,78.224 L130.104,78.224 C129.72,77.232 129.368,76.336 128.984,75.568 L125.432,76.144 C125.816,76.784 126.2,77.456 126.584,78.224 L114.744,78.224 L114.744,88.24 C114.68,94.512 113.784,99.376 112.056,102.896 L114.68,105.232 Z M136.312,87.184 L138.488,85.008 C137.464,83.984 136.184,82.96 134.648,81.936 L132.568,83.984 C134.168,85.136 135.416,86.224 136.312,87.184 Z M139.64,105.456 L141.112,102.768 C138.616,102 136.44,101.168 134.552,100.272 C136.536,98.736 137.848,97.008 138.52,95.12 L138.52,92.496 L127.896,92.496 C128.152,91.856 128.376,91.184 128.632,90.48 L140.888,90.48 L140.888,87.536 L129.464,87.536 C129.848,86 130.2,84.4 130.488,82.672 L127.256,82.256 C126.968,84.08 126.584,85.84 126.136,87.536 L123.032,87.536 L124.408,83.472 L121.304,83.024 L119.032,90.48 L125.24,90.48 C123.448,95.408 120.76,99.344 117.176,102.224 L118.776,105.104 C121.656,102.96 124.024,100.144 125.944,96.688 C126.712,97.904 127.8,99.056 129.176,100.144 C127.384,101.04 125.272,101.872 122.808,102.64 L124.312,105.328 C127.288,104.336 129.848,103.248 131.96,102.032 C134.008,103.248 136.568,104.368 139.64,105.456 Z M131.704,98.672 C130.104,97.616 128.888,96.496 128.056,95.28 L135.192,95.28 C134.424,96.464 133.24,97.584 131.704,98.672 Z" stroke="#f5222d" transform="translate(95.496000, 90.432000) rotate(-36.000000) translate(-95.496000, -90.432000) "></path>
            </g>
        </g>
    </g>
</svg>