<?xml version="1.0" encoding="UTF-8"?>
<svg width="16px" height="16px" viewBox="0 0 16 16" version="1.1" xmlns="http://www.w3.org/2000/svg" xmlns:xlink="http://www.w3.org/1999/xlink">
    <title>重启</title>
    <g id="移动端2" stroke="none" stroke-width="1" fill="none" fill-rule="evenodd">
        <g id="工单详情-动作图标及颜色" transform="translate(-242.000000, -521.000000)">
            <g id="重启" transform="translate(242.000000, 521.000000)">
                <rect id="矩形" x="0" y="0" width="16" height="16"></rect>
                <path d="M6.49984487,1.16112364 L6.49964375,2.18886757 C6.45162592,2.20122357 6.40377658,2.21417621 6.3561033,2.22772266 C3.79854689,2.95445717 2,5.30063055 2,8 C2,11.3137085 4.6862915,14 8,14 C11.3137085,14 14,11.3137085 14,8 C14,5.33824654 12.2509986,3.01674704 9.74289117,2.25678281 L9.5,2.19012364 L9.50069715,1.16124201 C9.68077918,1.20057768 9.85826959,1.24684529 10.0328747,1.29975117 C12.9074568,2.17075835 15,4.84100935 15,8 C15,11.8659932 11.8659932,15 8,15 C4.13400675,15 1,11.8659932 1,8 C1,4.79879879 3.14883807,2.0994856 6.08277193,1.26580273 C6.22012228,1.22677437 6.35919323,1.1918347 6.49984487,1.16112364 Z" id="形状结合" fill="#333333" fill-rule="nonzero"></path>
                <polyline id="路径-18" stroke="#333333" points="8 1 8 3.5 8 7"></polyline>
            </g>
        </g>
    </g>
</svg>