<svg id="图层_1" data-name="图层 1" xmlns="http://www.w3.org/2000/svg" viewBox="0 0 186.13 186.13"><defs><style>.cls-1,.cls-2{fill:#21d4f3;}.cls-2{stroke:#21d4f3;}</style></defs><g id="移动端"><g id="Apple-TV"><g id="已完成备份"><path id="形状" class="cls-1" d="M169.34,39.75a93.06,93.06,0,1,0-23,129.59A93.07,93.07,0,0,0,169.34,39.75ZM142,163.1a85.45,85.45,0,1,1,21.08-119A85.46,85.46,0,0,1,142,163.1Z" transform="translate(0 0)"/><path id="形状-2" data-name="形状" class="cls-1" d="M157.62,46.56A79.62,79.62,0,1,0,138,157.44,79.63,79.63,0,0,0,157.62,46.56ZM135.81,154.34A75.85,75.85,0,1,1,154.52,48.72,75.86,75.86,0,0,1,135.81,154.34Z" transform="translate(0 0)"/><path id="形状-3" data-name="形状" class="cls-1" d="M68.61,61.34a39.65,39.65,0,0,1,35.71-5.2l3.9-2.75A43.57,43.57,0,0,0,66.38,58.1,44.62,44.62,0,0,0,47.61,96.21l3.9-2.74a40.57,40.57,0,0,1,17.1-32.13Zm66.91,31.58-3.89,2.74a40.61,40.61,0,0,1-17.1,32.13A39.64,39.64,0,0,1,78.81,133l-3.89,2.75A43.57,43.57,0,0,0,116.76,131a44.64,44.64,0,0,0,18.76-38.11Zm-78.89-38,2.5-7.29,7.61.12-6.09-4.63,2.5-7.29L56.9,40.25,50.81,35.6,53,43,46.77,47.4l7.63.15Zm-7.1,7.82-7.47-1.59-.8-7.68-3.82,6.67L30,58.54l5.1,5.73L31.26,71l7-3.13,5.09,5.73-.78-7.67,7-3.14Zm26.94-19,5.31-5.55,6.85,3.39-3.57-6.82,5.29-5.55-7.5,1.34L79.26,23.7l-1.07,7.64-7.5,1.34,6.85,3.39ZM99.14,42l7.12-2.77,4.8,6-.4-7.7,7.12-2.77-7.35-2-.4-7.7-4.17,6.47-7.35-2,4.8,6L99.14,42ZM32.73,85.44l-3.91-6.61-.67,7.67L20.7,88.25l7,3L27.06,99l5-5.83,7,3-3.94-6.61,5-5.81-7.42,1.72Zm93.77,48.77L124,141.5l-7.61-.13,6.09,4.63-2.5,7.3,6.25-4.42,6.09,4.66-2.21-7.39,6.26-4.42-7.63-.14-2.24-7.38Zm25.37-16-7,3.13-5.09-5.74.78,7.68-7,3.13,7.46,1.6.8,7.67,3.82-6.67,7.45,1.62-5.09-5.74,3.82-6.68Zm-45.21,27.25L101.35,151l-6.85-3.39,3.57,6.82L92.78,160l7.5-1.34,3.59,6.82,1.07-7.64,7.5-1.34-6.84-3.39ZM84,147.11l-7.12,2.77-4.8-6,.4,7.7-7.12,2.77,7.35,2,.4,7.69,4.17-6.47,7.35,2-4.8-6L84,147.11ZM155.4,97.86l.67-7.67-5,5.83-7-3L148,99.6l-5,5.81,7.43-1.72,3.91,6.61.67-7.67,7.45-1.75-7-3Z" transform="translate(0 0)"/><path id="提前关单" class="cls-2" d="M95.26,111.34,95,107.61c-6.4,2-11.32,1.94-14.73-.13L89.2,101l-1.92-2.64-10.22,7.43A32.71,32.71,0,0,0,75,102.15l-.46-.62,8.37-6.08L81,92.81l-4.79,3.48A29.26,29.26,0,0,0,75,90.38l-3.17,1.19a31.08,31.08,0,0,1,1.31,6.92l-5.1,3.71,1-1.84a62,62,0,0,0-5.87-2.19l-1.62,3a40.07,40.07,0,0,1,5.34,1.9L61.47,107l1.92,2.64,8.39-6.1.45.62a29,29,0,0,1,2.06,3.65l-9.48,6.89,1.92,2.64,8.7-6.32a15.64,15.64,0,0,1,.44,3c0,3-1.47,6.52-4.51,10.72L74.54,126q4.63-6.21,4.73-11.62a20.62,20.62,0,0,0-.53-4.17C82.84,112.65,88.35,113,95.26,111.34Zm17-12.24L109,94.57l10.25-7.45-1.84-2.54L107.14,92l-1.39-1.91,8-5.78-8.19-11.26-4.6,3.35a27.12,27.12,0,0,0-.41-4.53l-3.29,1a33.27,33.27,0,0,1,.87,5.62l-5,3.65,1-1.89a32.49,32.49,0,0,0-4.79-1.38l-1.47,2.73a32.89,32.89,0,0,1,4.34,1.23l-5.17,3.77,8.18,11.26,8-5.78L104.45,94,94.2,101.44,96,104l10.25-7.44,3.29,4.53ZM98.11,85.26l-5.33,3.88L91.25,87l5.33-3.87Zm8-5.83-5.33,3.88-1.52-2.1,5.33-3.87Zm3.22,4.43L104,87.73l-1.56-2.14,5.33-3.88Zm-8,5.83L96,93.57l-1.56-2.15,5.33-3.88Z" transform="translate(0 0)"/></g></g></g></svg>