<?xml version="1.0" encoding="UTF-8"?>
<svg width="16px" height="16px" viewBox="0 0 16 16" version="1.1" xmlns="http://www.w3.org/2000/svg" xmlns:xlink="http://www.w3.org/1999/xlink">
    <title>评价</title>
    <g id="移动端2" stroke="none" stroke-width="1" fill="none" fill-rule="evenodd">
        <g id="工单详情-动作图标及颜色" transform="translate(-62.000000, -484.000000)" fill-rule="nonzero">
            <g id="评价" transform="translate(62.000000, 484.000000)">
                <rect id="矩形" fill="#000000" opacity="0" x="0" y="0" width="16" height="16"></rect>
                <g id="编组-16" transform="translate(1.000000, 1.000000)" fill="#333333">
                    <path d="M12.3825608,3.83993488 L9.99860348,3.49183888 C9.76967196,3.45826397 9.57202633,3.31394774 9.47033681,3.10611088 L8.40417148,0.935401547 C8.12477535,0.363042335 7.54356911,6.54883555e-14 6.90665681,6.54883555e-14 C6.26974452,6.54883555e-14 5.68853828,0.363042335 5.40914215,0.935401547 L4.34297681,3.10611088 C4.24120708,3.31386743 4.04359581,3.45813064 3.81471015,3.49176421 L1.43075281,3.83993488 C0.800273512,3.93453913 0.277669355,4.37786413 0.0815298063,4.98448048 C-0.114609743,5.59109682 0.0495164898,6.25646495 0.505259481,6.70228155 L2.23005948,8.39198821 C2.3955312,8.55436354 2.47086315,8.78755778 2.43165948,9.01605221 L2.02442748,11.4019509 C1.91417827,12.0310856 2.17207143,12.6680527 2.68896081,13.0432735 C3.20166193,13.4210385 3.88577132,13.4707042 4.44765948,13.1709535 L6.57991548,12.0445322 C6.78417065,11.9364229 7.02869498,11.9364229 7.23295015,12.0445322 L9.36543015,13.1711775 C9.92964586,13.4671217 10.6130293,13.4166099 11.1276022,13.0409278 C11.6421751,12.6652456 11.8984522,12.0297251 11.7884381,11.4021749 L11.3812808,9.01627621 C11.3420508,8.7877799 11.4173866,8.55457364 11.5828808,8.39221221 L13.3076808,6.70250555 C13.7635444,6.25675535 13.9277978,5.59136891 13.7317316,4.98468708 C13.5356653,4.37800525 13.0130723,3.93459251 12.3825608,3.83993488 Z M12.6321715,6.00526821 L10.9073715,7.69497488 C10.5134256,8.08139495 10.3339731,8.63640863 10.4271155,9.18031888 L10.8342728,11.5662175 C10.882918,11.8307731 10.7741236,12.0995866 10.5551688,12.2558389 C10.3404853,12.4168098 10.0516324,12.4377589 9.81596881,12.3094495 L7.68378748,11.1830282 C7.19756306,10.926064 6.61575057,10.926064 6.12952615,11.1830282 L3.99734481,12.3096735 C3.76166465,12.4379065 3.47285571,12.4169605 3.25814481,12.2560629 C3.03920716,12.0997936 2.93039435,11.8310064 2.97896615,11.5664415 L3.38619815,9.18061755 C3.47932679,8.63668578 3.29987815,8.08165605 2.90594215,7.69519888 L1.18114215,6.00549221 C0.989727859,5.81813551 0.920825924,5.53859204 1.00324472,5.28374089 C1.08566353,5.02888975 1.30520635,4.84262925 1.57008081,4.80283621 L3.95396348,4.45474021 C4.49878325,4.37473134 4.9691613,4.03133302 5.21135015,3.53678821 L6.27744081,1.36637755 C6.394818,1.12586592 6.63903162,0.973305263 6.90665681,0.973305263 C7.17428201,0.973305263 7.41849563,1.12586592 7.53587281,1.36637755 L8.60203815,3.53708688 C8.84426715,4.03151392 9.31461004,4.37479524 9.85935015,4.45474021 L12.2433075,4.80276155 C12.5082012,4.84255693 12.7277553,5.02884063 12.8101611,5.2837164 C12.892567,5.53859217 12.8236279,5.81815078 12.6321715,6.00549221 L12.6321715,6.00526821 Z" id="形状"></path>
                    <path d="M8.90160081,5.60318821 L6.61680081,8.30694288 L5.24778748,7.18126821 C5.14854227,7.09958036 5.02080442,7.06087009 4.89290879,7.07372413 C4.76501317,7.08657818 4.64753337,7.14993384 4.56652881,7.24973755 C4.39720416,7.45784543 4.42762048,7.76360953 4.63462481,7.93428155 L6.03148881,9.08280421 C6.42498627,9.4036407 7.00280347,9.35091579 7.33173415,8.96415888 L9.63975548,6.23300155 C9.81274149,6.02793932 9.78786771,5.72171835 9.58405415,5.54726288 C9.48632574,5.46374731 9.3593103,5.42268405 9.23118748,5.43318339 C9.10306466,5.44368273 8.98442894,5.50487649 8.90160081,5.60318821 L8.90160081,5.60318821 Z" id="路径"></path>
                </g>
            </g>
        </g>
    </g>
</svg>