<?xml version="1.0" encoding="UTF-8"?>
<svg width="24px" height="24px" viewBox="0 0 24 24" version="1.1" xmlns="http://www.w3.org/2000/svg" xmlns:xlink="http://www.w3.org/1999/xlink">
    <title>派单</title>
    <g id="红色顶栏" stroke="none" stroke-width="1" fill="none" fill-rule="evenodd">
        <g id="派单" transform="translate(0.000000, -0.000000)">
            <path d="M23.0769231,18.7384615 L11.4461539,18.7384615 C10.8923077,18.7384615 10.5230769,18.3692308 10.5230769,17.8153846 C10.5230769,17.2615385 10.8923077,16.8923077 11.4461539,16.8923077 L23.0769231,16.8923077 C23.6307692,16.8923077 24,17.2615385 24,17.8153846 C24,18.3692308 23.6307692,18.7384615 23.0769231,18.7384615 L23.0769231,18.7384615 Z" id="路径" fill="#FFFFFF" fill-rule="nonzero"></path>
            <path d="M20.3076923,0 C22.2729528,0 23.8924198,1.55607141 23.9948565,3.49697767 L24,3.6923077 L24,7.1076923 C24,7.66153847 23.6307693,8.03076926 23.0769231,8.03076923 C22.5626374,8.03076921 22.2075353,7.71240187 22.1594304,7.22348059 L22.1538461,7.1076923 L22.1538461,4.61538462 C22.1538461,3.10427351 21.0410889,1.93554923 19.5574127,1.85104992 L19.3846154,1.84615385 L4.61538462,1.84615385 C3.10427351,1.84615385 1.93554923,2.95891105 1.85104992,4.44258732 L1.84615385,4.61538462 L1.84615385,19.3846154 C1.84615385,20.8957265 2.95891105,22.0644508 4.44258732,22.1489501 L4.61538462,22.1538461 L7.1076923,22.1538461 C7.66153847,22.1538462 8.03076926,22.5230769 8.03076923,23.0769231 C8.03076921,23.5912088 7.71240187,23.9463108 7.22348059,23.9944158 L7.1076923,24 L3.6923077,24 C1.72704715,24 0.107580245,22.4439286 0.00514352556,20.5030223 L0,20.3076923 L0,3.6923077 C0,1.72704715 1.55607141,0.107580245 3.49697767,0.00514352556 L3.6923077,0 L20.3076923,0 Z M17.9076923,11.7230769 C18.1384615,11.7230769 18.3051282,11.7871795 18.4611111,11.9153846 L18.5538461,12 L23.6365118,17.0807268 C23.7892469,17.1989476 23.900064,17.3625157 23.9568522,17.5411546 C23.9598994,17.554152 23.9637491,17.5667445 23.9673081,17.5793869 C23.9733565,17.5986715 23.9779806,17.6181543 23.9819608,17.6377481 C23.9847492,17.6527376 23.9875857,17.6683847 23.9899893,17.684073 L23.9966306,17.7390817 L23.998,17.795 L23.998656,17.7671698 L23.9993256,17.7812269 L23.9993256,17.7812269 L23.9996914,17.8384933 L23.999664,17.9318056 C23.9983098,17.980391 23.9928619,18.0289052 23.9833205,18.0769171 L23.9983614,17.9609257 C23.9952153,18.0119895 23.9875388,18.062879 23.9753319,18.1130924 C23.9681309,18.1427441 23.9592806,18.1723564 23.9488292,18.2016246 C23.9455758,18.2107345 23.9421786,18.2197824 23.9386273,18.2287941 C23.927186,18.2578391 23.9140833,18.286624 23.8993665,18.3149225 C23.8940546,18.3251316 23.888623,18.3351181 23.8829879,18.3450385 C23.8675346,18.3722492 23.8505018,18.3990307 23.8319298,18.4252126 C23.8268775,18.4323422 23.8214452,18.4397812 23.8158871,18.4471689 L23.8093255,18.4557905 C23.7832503,18.4896612 23.7545008,18.5224223 23.7230769,18.5538461 L23.7230769,18.5538461 L18.5538461,23.7230769 C18.3759294,23.9009936 18.1551475,23.9931798 17.9328101,23.9996354 C17.9233958,23.9998365 17.9154623,24 17.9076923,24 L17.8825745,23.9996354 C17.6602372,23.9931798 17.4394552,23.9009936 17.2615385,23.7230769 C17.2035745,23.6651129 17.15471,23.6025991 17.114945,23.5369641 C17.103417,23.5179193 17.0928231,23.4989406 17.0829696,23.4797413 C17.0746069,23.4634656 17.0666077,23.4466464 17.0591656,23.4296827 C17.0517976,23.4128665 17.0451225,23.3963041 17.0389698,23.379626 C17.0317102,23.359967 17.0250973,23.3398739 17.0192302,23.319649 C17.0146709,23.3039499 17.0105031,23.287919 17.006799,23.2718224 C17.002432,23.252811 16.998766,23.2340442 16.9957245,23.2152147 C16.992464,23.1950599 16.9899005,23.1746268 16.9880673,23.1541529 C16.9865247,23.1369427 16.9854959,23.119628 16.9849877,23.1023038 C16.9844379,23.0834365 16.9844992,23.064733 16.9851665,23.0460429 C16.9859327,23.024207 16.9875847,23.0018661 16.990104,22.9795862 C16.9915673,22.9667145 16.9932371,22.9543886 16.9951732,22.9420888 C16.9991545,22.9166921 17.0044022,22.89088 17.010833,22.8652498 C17.0136629,22.8539686 17.0167341,22.8426816 17.0200361,22.8314358 C17.0269483,22.8079188 17.0347817,22.7848123 17.0436049,22.7619341 C17.0487444,22.7485917 17.0543651,22.7349997 17.0603392,22.7215001 C17.1065245,22.6172372 17.1735468,22.5187609 17.2615385,22.4307692 L17.2615385,22.4307692 L20.953,18.738 L11.4461539,18.7384615 C10.9318681,18.7384615 10.5767661,18.4200942 10.5286611,17.9311729 L10.5230769,17.8153846 C10.5230769,17.3010989 10.8414443,16.9459969 11.3303656,16.8978919 L11.4461539,16.8923077 L20.861,16.892 L17.2615385,13.2923077 C16.9207101,12.9514793 16.8944925,12.4533455 17.1828858,12.0883162 L17.2615385,12 C17.4461538,11.8153846 17.6307692,11.7230769 17.9076923,11.7230769 Z M13.0153846,11.0769231 C13.5692308,11.0769231 13.9384615,11.4461539 13.9384615,12 C13.9384615,12.5538461 13.4769231,12.9230769 13.0153846,12.9230769 L6,12.9230769 C5.53846153,12.9230769 5.07692309,12.5538461 5.07692309,12 C5.07692309,11.5384615 5.44615385,11.0769231 6,11.0769231 L13.0153846,11.0769231 Z M17.0769231,5.53846153 C17.5384616,5.53846153 18,5.9076923 18,6.46153847 C18,7.01538464 17.5384615,7.38461538 17.0769231,7.38461538 L6,7.38461538 C5.53846153,7.38461538 5.07692309,7.01538462 5.07692309,6.46153847 C5.07692309,6 5.44615385,5.53846153 6,5.53846153 L17.0769231,5.53846153 Z" id="形状结合" fill="#313236" fill-rule="nonzero"></path>
            <rect id="转派" x="0" y="2.55795385e-13" width="24" height="24"></rect>
            <path d="M17.9076923,12.6461539 L23.0769231,17.8153846 L17.9076923,12.6461539 Z" id="路径" fill="#FFFFFF" fill-rule="nonzero"></path>
        </g>
    </g>
</svg>