<?xml version="1.0" encoding="UTF-8"?>
<svg width="187px" height="187px" viewBox="0 0 187 187" version="1.1" xmlns="http://www.w3.org/2000/svg" xmlns:xlink="http://www.w3.org/1999/xlink">
    <title>通过</title>
    <g id="V6.3" stroke="none" stroke-width="1" fill="none" fill-rule="evenodd">
        <g id="Apple-TV" transform="translate(-851.000000, -367.000000)" fill="#2FC25B" fill-rule="nonzero">
            <g id="通过" transform="translate(851.000000, 367.000000)">
                <path d="M169.368017,39.9196738 C139.922275,-2.19858535 81.8994342,-12.485635 39.781175,16.9601076 C-2.33708418,46.4058502 -12.6241338,104.428691 16.8216088,146.54695 C46.2673514,188.665209 104.290192,198.952259 146.408451,169.506516 C188.52671,140.060774 198.81376,82.037933 169.368017,39.9196738 Z M142.047589,163.271673 C103.364225,190.301084 50.1079088,180.869451 23.0564516,142.186088 C-3.97295898,103.502724 5.45867383,50.2243609 44.1420373,23.1949504 C82.8254008,-3.83446016 136.081717,5.60158203 163.133175,44.2805363 C190.162585,82.9638998 180.726543,136.224626 142.047589,163.271673 Z" id="形状"></path>
                <path d="M157.647924,46.7321434 C132.443991,10.6988086 82.8121727,1.89771504 46.7788379,27.0840107 C10.7455031,52.2879439 1.94881895,101.924171 27.1351146,137.957506 C52.3214104,173.990841 101.953228,182.791934 138.004201,157.605639 C174.050763,132.419343 182.83422,82.7654781 157.647924,46.7321434 Z M135.843612,154.505855 C101.512292,178.497213 54.235075,170.115009 30.2260799,135.801326 C6.23472227,101.470007 14.616926,54.1927898 48.9306082,30.1793854 C83.2619279,6.18802773 130.539145,14.5702314 154.54814,48.8839139 C178.543907,83.219643 170.157294,130.49686 135.843612,154.505855 Z" id="形状"></path>
                <path d="M68.6360627,61.5079271 C79.0149551,54.142705 92.2985302,52.207328 104.347514,56.304876 L108.245393,53.5578412 C94.4170702,47.8361046 78.6196198,49.6143168 66.4093332,58.2670436 C53.7059512,67.2445117 47.1139498,81.7954178 47.6386643,96.3815988 L51.5365434,93.6345643 C51.8760645,81.2266098 57.8198893,69.1493576 68.6360627,61.5079271 L68.6360627,61.5079271 Z M135.552593,93.0833936 L131.659124,95.8304281 C131.315193,108.238383 125.371368,120.311225 114.555195,127.952656 C104.179629,135.326179 90.8919081,137.26216 78.8437437,133.155707 L74.950274,135.907151 C88.7785968,141.628888 104.576047,139.850676 116.786334,131.197949 C129.480897,122.220481 136.077308,107.669575 135.552593,93.0833936 L135.552593,93.0833936 Z M56.660226,55.0967098 L59.1603363,47.8036193 L66.7709012,47.9314908 L60.6815674,43.2972477 L63.1816775,36.0041572 L56.9291973,40.4223414 L50.8398635,35.7660516 L53.0489557,43.1517387 L46.7964754,47.5655135 L54.4246777,47.715432 L56.660226,55.0967098 Z M49.5567383,62.9189242 L42.0916824,61.3227338 L41.2935873,53.6460285 L37.4706674,60.3173984 L30.023249,58.7035707 L35.1160662,64.4401553 L31.2931463,71.1291627 L38.2687625,67.9941039 L43.3615797,73.7306883 L42.5811221,66.053983 L49.5567383,62.9189242 L49.5567383,62.9189242 Z M76.5023707,43.879284 L81.8112467,38.3278928 L88.6589914,41.7186949 L85.0918146,34.9018158 L90.3830533,29.3504246 L82.8827227,30.6864625 L79.293499,23.8695834 L78.2220232,31.5110137 L70.7216926,32.8470516 L77.5694371,36.2378535 L76.5023707,43.879284 Z M99.1709187,42.1949064 L106.292044,39.4258248 L111.093843,45.4181525 L110.692591,37.7194004 L117.813716,34.9503189 L110.454485,32.9528764 L110.057642,25.2585336 L105.890792,31.7270727 L98.5359701,29.7119926 L103.337769,35.7219578 L99.1709187,42.1949064 L99.1709187,42.1949064 Z M32.761465,85.6095189 L28.8459484,78.9954707 L28.175725,86.6721762 L20.7283066,88.4138754 L27.7568352,91.4387002 L27.0866117,99.1154055 L32.086832,93.2862242 L39.1153607,96.311049 L35.1822066,89.6970008 L40.1824271,83.8898664 L32.761465,85.6095189 L32.761465,85.6095189 Z M126.531032,134.372692 L124.030921,141.665782 L116.420356,141.537911 L122.50969,146.172154 L120.00958,153.465245 L126.26206,149.04706 L132.351394,153.70335 L130.142302,146.317663 L136.394782,141.899479 L128.76658,141.75397 L126.531032,134.372692 L126.531032,134.372692 Z M151.898111,118.33583 L144.922495,121.466479 L139.829678,115.729895 L140.610136,123.4066 L133.634519,126.541659 L141.099575,128.13344 L141.89767,135.810145 L145.72059,129.138775 L153.168009,130.752603 L148.075191,125.016018 L151.898111,118.33583 L151.898111,118.33583 Z M106.688887,145.585708 L101.380011,151.1371 L94.5322662,147.746297 L98.1038523,154.563177 L92.8126137,160.114568 L100.312944,158.77853 L103.902168,165.595409 L104.973644,157.953979 L112.473974,156.617941 L105.62623,153.227139 L106.688887,145.585708 Z M84.0203389,147.274495 L76.8992137,150.043577 L72.0974146,144.051249 L72.4986668,151.750001 L65.3775416,154.519083 L72.7323633,156.516525 L73.1292061,164.210868 L77.2960564,157.742329 L84.6508781,159.757409 L79.8490791,153.747444 L84.0203389,147.274495 L84.0203389,147.274495 Z M155.430013,98.0307016 L156.100237,90.3539963 L151.100016,96.1831775 L144.067078,93.1583527 L148.000232,99.772401 L143.000012,105.579535 L150.429793,103.855473 L154.3409,110.469522 L155.011123,102.792816 L162.458542,101.051117 L155.430013,98.0307016 L155.430013,98.0307016 Z" id="形状"></path>
                <path d="M68.52,85.344 L70.856,83.04 C69.384,81.376 67.56,79.68 65.448,77.984 L63.176,80.128 C65.48,81.984 67.272,83.744 68.52,85.344 Z M75.656,102.4 L75.656,97.184 L79.816,97.184 L79.816,102.368 L82.888,102.368 L82.888,97.184 L87.176,97.184 L87.176,98.528 C87.176,99.2 86.824,99.552 86.12,99.552 L83.912,99.456 L84.648,102.208 L87.048,102.208 C89.224,102.208 90.312,101.184 90.312,99.2 L90.312,85.024 L83.848,85.024 L83.784,84.96 C85.896,83.84 87.848,82.496 89.672,80.96 L89.672,78.624 L71.976,78.624 L71.976,81.376 L78.024,81.376 L76.328,83.04 C77.544,83.712 78.632,84.384 79.624,85.024 L72.52,85.024 L72.52,102.4 L75.656,102.4 Z M81.768,83.424 C80.872,82.752 79.848,82.08 78.76,81.376 L85.16,81.376 C84.104,82.112 82.984,82.784 81.768,83.424 Z M87.176,89.792 L82.888,89.792 L82.888,87.776 L87.176,87.776 L87.176,89.792 Z M79.816,89.792 L75.656,89.792 L75.656,87.776 L79.816,87.776 L79.816,89.792 Z M64.968,107.488 C66.568,104.608 67.656,103.2 68.296,103.2 C68.648,103.2 69.032,103.456 69.48,104 C70.44,105.088 71.56,105.824 72.84,106.208 C74.184,106.528 75.88,106.72 77.96,106.752 C80.008,106.784 81.928,106.816 83.688,106.816 L91.016,106.816 L91.816,103.52 C90.952,103.584 89.704,103.648 88.072,103.712 C86.408,103.712 84.808,103.744 83.208,103.744 C80.712,103.744 78.568,103.712 76.712,103.68 C74.824,103.616 73.416,103.36 72.488,102.88 C71.72,102.464 70.984,101.824 70.248,100.992 L69.896,100.64 L69.896,88.48 L62.568,88.48 L62.568,91.552 L66.792,91.552 L66.792,100.32 C65.512,101.024 64.104,102.656 62.504,105.216 L64.968,107.488 Z M79.816,94.496 L75.656,94.496 L75.656,92.48 L79.816,92.48 L79.816,94.496 Z M87.176,94.496 L82.888,94.496 L82.888,92.48 L87.176,92.48 L87.176,94.496 Z M115.464,102.464 C117.768,102.464 118.92,101.312 118.92,99.04 L118.92,85.856 L123.368,85.856 L123.368,82.592 L118.92,82.592 L118.92,77.792 L115.592,77.792 L115.592,82.592 L103.624,82.592 L103.624,85.856 L115.592,85.856 L115.592,98.208 C115.592,99.04 115.144,99.488 114.312,99.488 C113.032,99.488 111.656,99.392 110.248,99.264 L110.984,102.464 L115.464,102.464 Z M100.328,85.376 L102.76,82.944 C101.256,81.28 99.432,79.648 97.288,77.984 L95.016,80.16 C97.32,82.016 99.08,83.776 100.328,85.376 Z M109.64,95.936 L112.328,94.08 C111.272,92.352 109.768,90.304 107.848,88 L105.256,89.6 C107.112,91.968 108.552,94.08 109.64,95.936 Z M96.936,107.616 C98.568,104.672 99.688,103.2 100.328,103.2 C100.712,103.2 101.16,103.456 101.608,104 C102.568,105.088 103.72,105.824 105.096,106.208 C106.472,106.528 108.264,106.72 110.44,106.752 C112.584,106.784 114.568,106.816 116.392,106.816 L123.176,106.816 L123.976,103.456 C123.176,103.52 121.992,103.584 120.456,103.648 C118.92,103.68 117.416,103.712 115.944,103.712 C113.352,103.712 111.08,103.68 109.16,103.648 C107.176,103.584 105.704,103.296 104.712,102.848 C103.944,102.432 103.144,101.792 102.376,100.96 L101.992,100.608 L101.992,100.608 L101.992,88.448 L94.536,88.448 L94.536,91.584 L98.824,91.584 L98.824,100.352 C97.544,101.056 96.072,102.72 94.472,105.344 L96.936,107.616 Z" stroke="#2FC25B" transform="translate(93.240000, 92.704000) rotate(-36.000000) translate(-93.240000, -92.704000) "></path>
            </g>
        </g>
    </g>
</svg>