<?xml version="1.0" encoding="UTF-8"?>
<svg width="16px" height="16px" viewBox="0 0 16 16" version="1.1" xmlns="http://www.w3.org/2000/svg" xmlns:xlink="http://www.w3.org/1999/xlink">
    <title>分阅</title>
    <g id="移动端2" stroke="none" stroke-width="1" fill="none" fill-rule="evenodd">
        <g id="工单详情-处理历史备份" transform="translate(-254.000000, -114.000000)" fill-rule="nonzero">
            <g id="编组-8备份-4" transform="translate(245.000000, 68.000000)">
                <g id="编组-34备份" transform="translate(2.000000, 38.000000)">
                    <g id="分阅" transform="translate(7.000000, 8.000000)">
                        <rect id="矩形" fill="#000000" opacity="0" x="0" y="0" width="16" height="16"></rect>
                        <path d="M6.3553891,1.5 C6.47440699,1.5 6.58531003,1.53857919 6.67592593,1.60471494 L6.67592593,1.60471494 L7.19121931,1.90783714 C7.45630462,2.06353173 7.54692052,2.40798877 7.39409072,2.67804309 C7.24126092,2.94809742 6.90314191,3.04041191 6.6380566,2.88471732 L6.6380566,2.88471732 L6.20120682,2.62844128 L2.932,2.628 L2.87109375,2.63782773 C2.73973451,2.67218732 2.63804522,2.78094964 2.61167193,2.91761297 L2.607,2.952 L2.607,12.073 L2.61553917,12.1233782 C2.65244376,12.2698061 2.77679014,12.380045 2.92877891,12.3931743 L6.39596338,12.3917318 C6.40137328,12.3931096 6.40678319,12.3931096 6.41219309,12.3931096 L6.41219309,12.3931096 C6.42707033,12.3944874 6.43518519,12.3944874 6.44194757,12.3958653 L6.44194757,12.3958653 C6.52850603,12.4068879 6.60694965,12.4372001 6.67457345,12.4812906 L6.67457345,12.4812906 L7.825,13.158 L7.88438104,13.1847382 C8.05978496,13.2439326 8.32575352,13.2351594 8.46254682,13.1454038 L8.427,13.166 L9.59321681,12.4812906 C9.639201,12.4509784 9.68939289,12.4280146 9.74259028,12.4128074 L9.82449022,12.3958653 C9.83260508,12.3944874 9.84071993,12.3931096 9.84748231,12.3931096 C9.86100707,12.3917318 9.86641698,12.3917318 9.87182688,12.3917318 L13.099,12.391 L13.1302587,12.3864788 C13.2647456,12.3513011 13.3681328,12.2381356 13.3914356,12.0968851 L13.39,2.934 L13.3844608,2.89679485 C13.3475562,2.75036691 13.2232099,2.64012808 13.0712211,2.62699871 L9.475,2.628 L9.42654527,2.63644991 C9.28580323,2.67326375 9.17912107,2.79548889 9.16264147,2.94593025 L9.1644819,10.6914918 C9.1644819,11.0042588 8.91697878,11.2564013 8.60996671,11.2564013 C8.30295464,11.2564013 8.05545152,11.002881 8.05545152,10.6914918 L8.05545152,10.6914918 L8.05545152,2.40661094 C8.07168123,1.91334845 8.45984186,1.51653394 8.9440283,1.5 L8.9440283,1.5 L12.8432168,1.5 L12.8432168,1.50137783 L13.5749064,1.50137783 L13.5749064,1.50275566 C14.0590928,1.50275566 14.4526633,1.87339144 14.5,2.34874216 L14.5,2.34874216 L14.5,12.6672974 C14.4607782,13.1178472 14.1091344,13.4774604 13.6668747,13.5187952 L13.6668747,13.5187952 L10.0435913,13.5187952 L8.52070329,14.4143835 C8.27320017,14.5301211 7.98512276,14.5287433 7.73897212,14.4088722 L7.73897212,14.4088722 L6.22690387,13.5187952 L2.33042031,13.5187952 C1.88004578,13.4760825 1.52569705,13.1013133 1.5,12.638363 L1.5,12.638363 L1.5,2.43692316 C1.5,1.92988239 1.89492301,1.51791177 2.38857678,1.5 L2.38857678,1.5 Z M6.30534748,9.60025188 C6.61235955,9.60025188 6.85986267,9.85377226 6.85986267,10.1651614 C6.85986267,10.4765506 6.61100707,10.730071 6.30534748,10.730071 L6.30534748,10.730071 L5.24906367,10.730071 C4.9420516,10.730071 4.69454848,10.4765506 4.69454848,10.1651614 C4.69454848,9.85239443 4.94340408,9.60025188 5.24906367,9.60025188 L5.24906367,9.60025188 Z M6.30534748,7.0788263 C6.61235955,7.0788263 6.85986267,7.33234669 6.85986267,7.64373586 C6.85986267,7.95512503 6.61100707,8.20726758 6.30534748,8.20864541 L6.30534748,8.20864541 L4.84332085,8.20864541 C4.53630878,8.20864541 4.28880566,7.95512503 4.28880566,7.64373586 C4.28880566,7.33096886 4.53766126,7.0788263 4.84332085,7.0788263 L4.84332085,7.0788263 Z M6.30534748,4.55740073 C6.61235955,4.55740073 6.85986267,4.81092112 6.85986267,5.12231029 C6.85986267,5.43369946 6.61100707,5.68584201 6.30534748,5.68721984 L6.30534748,5.68721984 L5.11381606,5.68721984 C4.806804,5.68721984 4.55930087,5.43369946 4.55930087,5.12231029 C4.55930087,4.80954329 4.80815647,4.55740073 5.11381606,4.55740073 L5.11381606,4.55740073 Z" id="形状结合备份" fill="#333333"></path>
                    </g>
                </g>
            </g>
        </g>
    </g>
</svg>