<?xml version="1.0" encoding="UTF-8"?>
<svg width="16px" height="16px" viewBox="0 0 16 16" version="1.1" xmlns="http://www.w3.org/2000/svg" xmlns:xlink="http://www.w3.org/1999/xlink">
    <title>关联</title>
    <g id="移动端2" stroke="none" stroke-width="1" fill="none" fill-rule="evenodd">
        <g id="工单详情-处理历史备份" transform="translate(-256.000000, -178.000000)" fill-rule="nonzero">
            <g id="编组-8备份-4" transform="translate(245.000000, 68.000000)">
                <g id="编组-34备份-3" transform="translate(2.000000, 102.000000)">
                    <g id="关联" transform="translate(9.000000, 8.000000)">
                        <rect id="矩形" fill="#000000" opacity="0" x="0" y="0" width="16" height="16"></rect>
                        <path d="M6.22222222,6.22222222 L8.88888889,6.22222222 L8.88888889,7.11111111 L6.22222222,7.11111111 L6.22222222,6.22222222 Z M0.888888891,8.88888889 L4.44444444,8.88888889 L4.44444444,9.77777778 L0.888888891,9.77777778 L0.888888891,8.88888889 Z M15.1111111,7.11111111 L11.5555556,7.11111111 L11.5555556,6.22222222 L15.1111111,6.22222222 L15.1111111,7.11111111 Z M6.22222222,13.3333333 L5.33333333,13.3333333 L5.33333333,6.22222222 L6.22222222,6.22222222 L6.22222222,13.3333333 Z M14.6666667,13.3333333 L6.22222222,13.3333333 L6.22222222,12.4444444 L14.2222222,12.4444444 L14.2222222,7.11111111 L15.1111111,7.11111111 L15.1111111,13.3333333 L14.6666667,13.3333333 Z M1.33333333,2.66666667 L9.77777778,2.66666667 L9.77777778,3.55555556 L1.77777778,3.55555556 L1.77777778,8.88888889 L0.888888891,8.88888889 L0.888888891,2.66666667 L1.33333333,2.66666667 Z M10.2222222,9.77777778 L7.11111111,9.77777778 L7.11111111,8.88888889 L9.77777778,8.88888889 L9.77777778,2.66666667 L10.6666667,2.66666667 L10.6666667,9.77777778 L10.2222222,9.77777778 Z" id="形状" fill="#333333"></path>
                    </g>
                </g>
            </g>
        </g>
    </g>
</svg>