<?xml version="1.0" encoding="UTF-8"?>
<svg width="16px" height="16px" viewBox="0 0 16 16" version="1.1" xmlns="http://www.w3.org/2000/svg" xmlns:xlink="http://www.w3.org/1999/xlink">
    <title>挂起</title>
    <g id="移动端2" stroke="none" stroke-width="1" fill="none" fill-rule="evenodd">
        <g id="工单详情-动作图标及颜色" transform="translate(-62.000000, -521.000000)">
            <g id="挂起" transform="translate(62.000000, 521.000000)">
                <rect id="矩形" fill="#000000" fill-rule="nonzero" opacity="0" x="0" y="0" width="16" height="16"></rect>
                <g id="3.0-未完成" transform="translate(1.000000, 1.000000)">
                    <path d="M7,0.5 C8.7875,0.5 10.4121816,1.23178833 11.5901966,2.40980339 C12.7682117,3.58781845 13.5,5.2125 13.5,7 C13.5,8.7875 12.7682117,10.4121816 11.5901966,11.5901966 C10.4121816,12.7682117 8.7875,13.5 7,13.5 C5.2125,13.5 3.58781845,12.7682117 2.40980339,11.5901966 C1.23178833,10.4121816 0.5,8.7875 0.5,7 C0.5,5.2125 1.23178833,3.58781845 2.40980339,2.40980339 C3.58781845,1.23178833 5.2125,0.5 7,0.5 Z" id="路径" stroke="#333333"></path>
                    <path d="M7,10.9375 C6.475,10.9375 6.125,10.5875 6.125,10.0625 C6.125,9.5375 6.475,9.1875 7,9.1875 C7.525,9.1875 7.875,9.5375 7.875,10.0625 C7.875,10.5875 7.525,10.9375 7,10.9375 Z" id="路径" fill="#333333"></path>
                    <path d="M7,8.3125 C6.3,8.3125 6.125,4.4625 6.125,3.9375 C6.125,3.4125 6.475,3.0625 7,3.0625 C7.525,3.0625 7.875,3.4125 7.875,3.9375 C7.875,4.375 7.7,8.3125 7,8.3125 Z" id="路径" fill="#333333"></path>
                </g>
            </g>
        </g>
    </g>
</svg>