<?xml version="1.0" encoding="UTF-8"?>
<svg width="16px" height="16px" viewBox="0 0 16 16" version="1.1" xmlns="http://www.w3.org/2000/svg" xmlns:xlink="http://www.w3.org/1999/xlink">
    <title>发起</title>
    <g id="移动端2" stroke="none" stroke-width="1" fill="none" fill-rule="evenodd">
        <g id="工单详情-动作图标及颜色" transform="translate(-181.000000, -739.000000)">
            <g id="发起" transform="translate(173.000000, 735.000000)">
                <g transform="translate(8.000000, 4.000000)">
                    <rect id="矩形" fill="#000000" fill-rule="nonzero" opacity="0" x="0" y="0" width="16" height="16"></rect>
                    <path d="M8,1 C11.8659932,1 15,4.13400675 15,8 C15,11.8659932 11.8659932,15 8,15 C4.13400675,15 1,11.8659932 1,8 C1,4.13400675 4.13400675,1 8,1 Z M10.6632687,4.42516516 L4.38228474,7.13674583 C4.16890931,7.2288995 4.13528461,7.51745914 4.32171314,7.65620031 L5.45631109,8.50121731 C5.52230349,8.5503188 5.61084329,8.55644666 5.682885,8.51685122 L8.92963263,6.53762909 L6.63875352,9.17559681 C6.56268723,9.24792517 6.52461715,9.35153618 6.53575824,9.45590739 L6.73530669,11.3256136 C6.75824691,11.5268904 7.00438286,11.6115806 7.14634508,11.4669473 L8.01736623,10.4057266 L9.8106312,11.7399516 C9.9971383,11.8786927 10.2638576,11.7635203 10.2907259,11.532704 L11.0828704,4.73737207 C11.1097388,4.50647722 10.8766442,4.33309004 10.6632687,4.42516516 Z" id="形状结合" fill="#FFFFFF"></path>
                </g>
            </g>
        </g>
    </g>
</svg>