<?xml version="1.0" encoding="UTF-8"?>
<svg width="28px" height="28px" viewBox="0 0 28 28" version="1.1" xmlns="http://www.w3.org/2000/svg" xmlns:xlink="http://www.w3.org/1999/xlink">
    <title>认领</title>
    <defs>
        <filter x="-27.8%" y="-66.7%" width="155.6%" height="266.7%" filterUnits="objectBoundingBox" id="filter-1">
            <feOffset dx="0" dy="0" in="SourceAlpha" result="shadowOffsetOuter1"></feOffset>
            <feGaussianBlur stdDeviation="2" in="shadowOffsetOuter1" result="shadowBlurOuter1"></feGaussianBlur>
            <feColorMatrix values="0 0 0 0 0   0 0 0 0 0   0 0 0 0 0  0 0 0 0.08 0" type="matrix" in="shadowBlurOuter1" result="shadowMatrixOuter1"></feColorMatrix>
            <feMerge>
                <feMergeNode in="shadowMatrixOuter1"></feMergeNode>
                <feMergeNode in="SourceGraphic"></feMergeNode>
            </feMerge>
        </filter>
    </defs>
    <g id="移动端2" stroke="none" stroke-width="1" fill="none" fill-rule="evenodd">
        <g id="工单详情-动作图标及颜色" transform="translate(-175.000000, -61.000000)" fill-rule="nonzero">
            <g id="认领" filter="url(#filter-1)" transform="translate(173.000000, 63.000000)">
                <g transform="translate(8.000000, 4.000000)">
                    <rect id="矩形" fill="#000000" opacity="0" x="0" y="0" width="16" height="16"></rect>
                    <path d="M8,1 C11.8659932,1 15,4.13400673 15,8 C15,10.5008591 13.6658076,12.8117482 11.5,14.0621778 C9.33419248,15.3126074 6.66580752,15.3126074 4.5,14.0621778 C2.33419242,12.8117482 1,10.5008591 1,8 C1,4.13400673 4.13400675,1 8,1 Z M9.97958085,8.63375958 C9.74267512,8.64233849 9.5384316,8.81910389 9.50334055,9.06204252 C9.46386312,9.33534847 9.65341859,9.5889095 9.92672455,9.62838693 L9.92672455,9.62838693 L10.1134191,9.65754117 C10.2482337,9.68017305 10.3751854,9.7049062 10.4933735,9.73039895 L10.4933735,9.73039895 L10.8207467,9.80781433 L11.0901359,9.88173722 L11.398,9.976 L11.3279275,10.0132785 C11.1753633,10.0858557 10.9645444,10.1576893 10.7071593,10.2220355 C10.0046491,10.3976631 9.03684253,10.5 8,10.5 C6.96315747,10.5 5.9953509,10.3976631 5.29284069,10.2220355 L5.29284069,10.2220355 L5.10871567,10.1724773 C4.93368707,10.121726 4.78649563,10.0677114 4.67207245,10.0132785 L4.67207245,10.0132785 L4.601,9.976 L4.9057236,9.8829739 L5.17087346,9.80998445 L5.49293138,9.73335885 C5.66731614,9.69543772 5.86108121,9.65907963 6.07128623,9.62867446 C6.34458439,9.58914316 6.53408988,9.33554478 6.49455858,9.06224661 C6.45502728,8.78894844 6.20142889,8.59944295 5.92813073,8.63897425 C4.4283774,8.85590655 3.5,9.24968415 3.5,10 C3.5,10.7745651 4.65133358,11.2431304 6.33376684,11.4196234 L6.33376684,11.4196234 L6.78430229,11.4590488 L7.25648611,11.4852782 C7.49758231,11.495103 7.74587906,11.5 8,11.5 L8,11.5 L8.25212857,11.4983665 C8.41885205,11.4961878 8.58278309,11.4918281 8.74351389,11.4852782 L8.74351389,11.4852782 L9.21569771,11.4590488 L9.66623316,11.4196234 C11.3486664,11.2431304 12.5,10.7745651 12.5,10 C12.5,9.24936704 11.5707062,8.85547217 10.069685,8.63865852 L10.069685,8.63865852 Z M8,4 C7.99352259,4 7.98707394,4.00012317 7.98152275,4.00028364 C7.95864063,4.00115111 7.93588168,4.003586 7.91304291,4.00753491 C7.90175805,4.00951386 7.89060345,4.01187123 7.88022843,4.01455712 L7.88022843,4.01455712 L7.83226628,4.02882947 C7.81879767,4.03362454 7.80559522,4.03898073 7.79304181,4.04479219 C7.77919303,4.05107365 7.76560808,4.05799538 7.75240536,4.06550857 L7.75240536,4.06550857 L7.71684736,4.08775458 C7.70544398,4.09557673 7.69433049,4.1038993 7.68348479,4.11291708 C7.66985138,4.12407828 7.65681836,4.13594553 7.64450006,4.14823889 L7.64450006,4.14823889 L7.617,4.178 L7.585,4.222 L7.60544685,4.19278988 L7.60544685,4.19278988 L7.60182899,4.19753213 L7.58385791,4.22272972 L7.57125354,4.24275212 C7.56444057,4.25403326 7.55905538,4.2637993 7.5539939,4.27375753 L7.5539939,4.27375753 L7.53192059,4.32396445 C7.50951774,4.38332622 7.49913218,4.44518887 7.49997146,4.50638262 L7.49997146,4.50638262 L7.5,9 L7.50805567,9.08987563 C7.55039163,9.32312484 7.75454011,9.5 8,9.5 C8.27614237,9.5 8.5,9.27614237 8.5,9 L8.5,9 L8.5,7.338 L10.6856953,6.46423835 L10.7682005,6.4224893 C11.073757,6.23150174 11.0845393,5.7676284 10.7572479,5.57125354 L10.7572479,5.57125354 L8.25724788,4.07125354 C8.24596674,4.06444057 8.2362007,4.05905538 8.22624247,4.0539939 L8.22624247,4.0539939 L8.17603555,4.03192059 C8.12058775,4.01099485 8.06295797,4.00055395 8,4 Z M8.5,5.382 L9.378,5.909 L8.5,6.26 L8.5,5.382 Z" id="形状结合" fill="#FFFFFF"></path>
                </g>
            </g>
        </g>
    </g>
</svg>