<?xml version="1.0" encoding="UTF-8"?>
<svg width="16px" height="16px" viewBox="0 0 16 16" version="1.1" xmlns="http://www.w3.org/2000/svg" xmlns:xlink="http://www.w3.org/1999/xlink">
    <title>退回</title>
    <g id="移动端2" stroke="none" stroke-width="1" fill="none" fill-rule="evenodd">
        <g id="工单详情-动作图标及颜色" transform="translate(-31.000000, -151.000000)">
            <g id="退回" transform="translate(23.000000, 147.000000)">
                <g transform="translate(8.000000, 4.000000)">
                    <rect id="矩形" fill="#000000" fill-rule="nonzero" opacity="0" x="0" y="0" width="16" height="16"></rect>
                    <path d="M8,1 C11.8659932,1 15,4.13400675 15,8 C15,11.8659932 11.8659932,15 8,15 C4.13400675,15 1,11.8659932 1,8 C1,4.13400675 4.13400675,1 8,1 Z M5.94621165,4.89705176 C5.65260016,4.6791973 5.23593648,4.70340335 4.96966991,4.96966991 C4.6767767,5.26256313 4.6767767,5.73743687 4.96966991,6.03033009 L4.96966991,6.03033009 L6.939,8 L4.96966991,9.96966991 L4.89705176,10.0537883 C4.6791973,10.3473998 4.70340335,10.7640635 4.96966991,11.0303301 C5.26256313,11.3232233 5.73743687,11.3232233 6.03033009,11.0303301 L6.03033009,11.0303301 L8,9.061 L9.96966991,11.0303301 L10.0537883,11.1029482 C10.3473998,11.3208027 10.7640635,11.2965966 11.0303301,11.0303301 C11.3232233,10.7374369 11.3232233,10.2625631 11.0303301,9.96966991 L11.0303301,9.96966991 L9.061,8 L11.0303301,6.03033009 L11.1029482,5.94621165 C11.3208027,5.65260016 11.2965966,5.23593648 11.0303301,4.96966991 C10.7374369,4.6767767 10.2625631,4.6767767 9.96966991,4.96966991 L9.96966991,4.96966991 L8,6.939 L6.03033009,4.96966991 Z" id="形状结合" fill="#FFFFFF"></path>
                </g>
            </g>
        </g>
    </g>
</svg>