<?xml version="1.0" encoding="UTF-8"?>
<svg width="28px" height="28px" viewBox="0 0 28 28" version="1.1" xmlns="http://www.w3.org/2000/svg" xmlns:xlink="http://www.w3.org/1999/xlink">
    <title>派单x</title>
    <defs>
        <filter x="-27.8%" y="-66.7%" width="155.6%" height="266.7%" filterUnits="objectBoundingBox" id="filter-1">
            <feOffset dx="0" dy="0" in="SourceAlpha" result="shadowOffsetOuter1"></feOffset>
            <feGaussianBlur stdDeviation="2" in="shadowOffsetOuter1" result="shadowBlurOuter1"></feGaussianBlur>
            <feColorMatrix values="0 0 0 0 0   0 0 0 0 0   0 0 0 0 0  0 0 0 0.08 0" type="matrix" in="shadowBlurOuter1" result="shadowMatrixOuter1"></feColorMatrix>
            <feMerge>
                <feMergeNode in="shadowMatrixOuter1"></feMergeNode>
                <feMergeNode in="SourceGraphic"></feMergeNode>
            </feMerge>
        </filter>
    </defs>
    <g id="移动端2" stroke="none" stroke-width="1" fill="none" fill-rule="evenodd">
        <g id="工单详情-动作图标及颜色" transform="translate(-25.000000, -649.000000)" fill-rule="nonzero">
            <g id="通过备份-2" filter="url(#filter-1)" transform="translate(23.000000, 651.000000)">
                <g id="派单x" transform="translate(8.000000, 4.000000)">
                    <rect id="矩形" fill="#000000" opacity="0" x="0" y="0" width="16" height="16"></rect>
                    <path d="M8,1 C11.8659932,1 15,4.13400673 15,8 C15,10.5008591 13.6658076,12.8117482 11.5,14.0621778 C9.33419248,15.3126074 6.66580752,15.3126074 4.5,14.0621778 C2.33419242,12.8117482 1,10.5008591 1,8 C1,4.13400673 4.13400675,1 8,1 Z M9.75,4 L5.35,4 L5.23734555,4.00572855 C4.71828328,4.05876695 4.3,4.47408545 4.3,5 L4.3,5 L4.3,11 L4.30628659,11.1109115 C4.36442142,11.6197425 4.81816066,12 5.35,12 L5.35,12 L7.8,12 L7.88987563,11.9919443 C8.12312484,11.9496084 8.3,11.7454599 8.3,11.5 C8.3,11.2238576 8.07614237,11 7.8,11 L7.8,11 L5.3,11 L5.30458844,5.00497561 L5.35,5 L9.8,5 L9.8,6.5 L9.80805567,6.58987563 C9.85039163,6.82312484 10.0545401,7 10.3,7 C10.5761424,7 10.8,6.77614237 10.8,6.5 L10.8,6.5 L10.8,5 L10.7937134,4.88908854 C10.7355786,4.38025753 10.2818393,4 9.75,4 L9.75,4 Z M9.99810057,8.54082354 C9.78054173,8.44666581 9.5201315,8.51841493 9.38397485,8.7226499 C9.23079862,8.95241425 9.29288556,9.26284892 9.5226499,9.41602515 L9.5226499,9.41602515 L9.648,9.5 L8.3,9.5 L8.21012437,9.50805567 C7.97687516,9.55039163 7.8,9.75454011 7.8,10 C7.8,10.2761424 8.02385763,10.5 8.3,10.5 L8.3,10.5 L9.647,10.5 L9.5226499,10.5839749 L9.45233734,10.6405316 C9.28174603,10.8051406 9.2478182,11.0731151 9.38397485,11.2773501 C9.53715108,11.5071144 9.84758575,11.5692014 10.0773501,11.4160251 L10.0773501,11.4160251 L11.5773501,10.4160251 L11.584,10.41 C11.5985575,10.4013021 11.6038273,10.3973276 11.6089034,10.393192 C11.6186006,10.3855629 11.6280087,10.3775829 11.6371085,10.369271 L11.6371085,10.369271 L11.669271,10.3371085 L11.669271,10.3371085 L11.6932401,10.3090266 C11.6995149,10.3010449 11.7055237,10.2928972 11.7160251,10.2773501 L11.7160251,10.2773501 L11.7260549,10.2618159 C11.7300959,10.2552539 11.7339896,10.2485915 11.7376927,10.2419271 C11.743547,10.2313148 11.7490006,10.2205136 11.7540487,10.209548 L11.7540487,10.209548 L11.7591765,10.1981006 L11.7591765,10.1981006 L11.7655349,10.1827874 C11.7684874,10.1752736 11.7712632,10.1676711 11.7737813,10.1598607 C11.7776752,10.1482932 11.7811439,10.1365939 11.7841823,10.1247885 L11.7841823,10.1247885 L11.786774,10.1148337 C11.7879476,10.1098559 11.7890425,10.1048674 11.789972,10.1001291 L11.789972,10.1001291 L11.795,10.06 L11.7941844,10.0760581 C11.7949553,10.0710583 11.7956509,10.0660463 11.796284,10.0609875 L11.797,10.05 C11.7984662,10.040598 11.7988463,10.0355573 11.7991498,10.0305161 L11.7998304,10.0153922 L11.8,10 C11.8,9.99454534 11.7999127,9.98911107 11.7998304,9.98460782 C11.7995195,9.97419028 11.7988826,9.96376781 11.7968744,9.94408112 C11.7961894,9.93802224 11.7953944,9.93197758 11.7945257,9.92575651 L11.7945257,9.92575651 L11.7902613,9.90112957 L11.7902613,9.90112957 L11.7842913,9.87510728 L11.7801605,9.86051189 C11.7779814,9.85299635 11.7756259,9.8455289 11.7731972,9.83807253 C11.7709144,9.8313999 11.7684945,9.8247909 11.7660044,9.81849016 C11.7638342,9.81293429 11.7615584,9.80740315 11.7591765,9.80189943 L11.7591765,9.80189943 L11.752,9.788 C11.7460754,9.77380407 11.7425257,9.76692005 11.7387947,9.76009764 C11.7351223,9.75339489 11.7313008,9.74678545 11.7273347,9.7402738 L11.7273347,9.7402738 L11.7160251,9.7226499 C11.7143232,9.72009696 11.7126018,9.71756473 11.7108614,9.71505326 L11.7108614,9.71505326 L11.705163,9.70677887 C11.7013021,9.70144252 11.6973276,9.69617274 11.693192,9.69109665 C11.6855629,9.68139941 11.6775829,9.67199131 11.669271,9.66289152 L11.669271,9.66289152 L11.6371085,9.63072899 L11.6371085,9.63072899 L11.6090266,9.60675988 C11.6010449,9.60048507 11.5928972,9.59447634 11.5773501,9.58397485 L11.5773501,9.58397485 L10.0773501,8.58397485 Z M7.3,8 L6.3,8 L6.21012437,8.00805567 C5.97687516,8.05039163 5.8,8.25454011 5.8,8.5 C5.8,8.77614237 6.02385763,9 6.3,9 L6.3,9 L7.3,9 L7.38987563,8.99194433 C7.62312484,8.94960837 7.8,8.74545989 7.8,8.5 C7.8,8.22385763 7.57614237,8 7.3,8 L7.3,8 Z M8.8,6 L6.3,6 L6.21012437,6.00805567 C5.97687516,6.05039163 5.8,6.25454011 5.8,6.5 C5.8,6.77614237 6.02385763,7 6.3,7 L6.3,7 L8.8,7 L8.88987563,6.99194433 C9.12312484,6.94960837 9.3,6.74545989 9.3,6.5 C9.3,6.22385763 9.07614237,6 8.8,6 L8.8,6 Z" id="形状结合" fill="#FFFFFF"></path>
                </g>
            </g>
        </g>
    </g>
</svg>