<?xml version="1.0" encoding="UTF-8"?>
<svg width="24px" height="24px" viewBox="0 0 24 24" version="1.1" xmlns="http://www.w3.org/2000/svg" xmlns:xlink="http://www.w3.org/1999/xlink">
    <title>直达</title>
    <g id="红色顶栏" stroke="none" stroke-width="1" fill="none" fill-rule="evenodd">
        <g id="直达">
            <path d="M3.81530925,4.3279853 C3.99167177,3.79889773 4.15921617,3.38003674 4.31794244,3.07140233 C4.47666871,2.76276791 4.64862217,2.53349663 4.83380282,2.38358849 C5.01898347,2.23368034 5.22620943,2.13668096 5.45548071,2.09259032 C5.68475199,2.04849969 5.96693203,2.01763625 6.30202082,2 L9.37072872,2 L6.30202082,21.2587875 L2.25450092,21.2587875 C1.16105328,21.2587875 0.468830374,20.875199 0.177832211,20.108022 C-0.113165952,19.3408451 -0.0470300061,18.2518065 0.376240049,16.8409063 C0.517330067,16.3823637 0.684874464,15.8047765 0.878873239,15.1081445 C1.07287201,14.4115126 1.28009798,13.6619718 1.50055113,12.8595224 C1.72100429,12.0570729 1.94145744,11.228169 2.16191059,10.3728108 C2.38236375,9.51745254 2.59840784,8.70177587 2.81004287,7.92578077 C3.02167789,7.14978567 3.21126761,6.44874464 3.378812,5.82265769 C3.5463564,5.19657073 3.69185548,4.6983466 3.81530925,4.3279853 Z M12.8891611,5.25388855 L10.9579914,5.25388855 L11.1167177,2.02645438 L12.7039804,2.02645438 L12.8891611,5.25388855 Z M13.2595224,13.2960196 L10.5876301,13.2960196 L10.8786283,6.86760563 L12.9685242,6.86760563 L13.2595224,13.2960196 Z M13.3124311,14.9097367 L13.6034293,21.3381506 L10.2172688,21.3381506 L10.508267,14.9097367 L13.3124311,14.9097367 Z M23.6560931,17.1583588 C23.7795468,17.5463564 23.8765462,17.9784446 23.9470912,18.4546234 C24.0176363,18.9308022 24.0176363,19.3761176 23.9470912,19.7905695 C23.8765462,20.2050214 23.7134109,20.5533374 23.4576852,20.8355175 C23.2019596,21.1176975 22.8183711,21.2587875 22.3069198,21.2587875 L17.4922229,21.2587875 L14.3970606,2 L16.8837722,2 C17.7655848,2 18.5063074,2.19399878 19.10594,2.58199633 C19.7055726,2.96999388 20.1641151,3.66662584 20.4815677,4.67189222 C20.5873852,4.98934476 20.7196571,5.48315983 20.8783833,6.15333742 L21.4603797,8.42841396 C21.6720147,9.27495407 21.8880588,10.1567667 22.1085119,11.0738518 C22.3289651,11.9909369 22.5361911,12.8551133 22.7301898,13.6663809 L23.2857318,15.8356399 C23.4444581,16.470545 23.5679118,16.9114513 23.6560931,17.1583588 Z" id="形状" fill="#313236" fill-rule="nonzero"></path>
            <rect id="转派" x="0" y="0" width="24" height="24"></rect>
        </g>
    </g>
</svg>