<?xml version="1.0" encoding="UTF-8"?>
<svg width="16px" height="16px" viewBox="0 0 16 16" version="1.1" xmlns="http://www.w3.org/2000/svg" xmlns:xlink="http://www.w3.org/1999/xlink">
    <title>派单</title>
    <g id="移动端2" stroke="none" stroke-width="1" fill="none" fill-rule="evenodd">
        <g id="工单详情-动作图标及颜色" transform="translate(-134.000000, -484.000000)">
            <g id="派单" transform="translate(134.000000, 484.000000)">
                <rect id="矩形" x="-1.13686838e-13" y="0" width="16" height="16"></rect>
                <polygon id="路径" fill="#333333" fill-rule="nonzero" points="5.26666667 6.13333333 10.8666667 6.13333333 10.8666667 7.06666667 5.26666667 7.06666667"></polygon>
                <path d="M13.2,1.93333333 L10.7733333,1.93333333 C10.5866667,1.37333333 10.0733333,1 9.46666667,1 L6.66666667,1 C6.06,1 5.54666667,1.37333333 5.36,1.93333333 L2.93333333,1.93333333 C2.42,1.93333333 2,2.35333333 2,2.86666667 L2,14.0666667 C2,14.58 2.42,15 2.93333333,15 L8.06666667,15 L8.06666667,14.0666667 L2.93333333,14.0666667 L2.93333333,2.86666667 L5.26666667,2.86666667 L5.26666667,3.8 L10.8666667,3.8 L10.8666667,2.86666667 L13.2,2.86666667 L13.2,8.46666667 L14.1333333,8.46666667 L14.1333333,2.86666667 C14.1333333,2.35333333 13.7133333,1.93333333 13.2,1.93333333 Z M9.93333333,2.86666667 L6.2,2.86666667 L6.2,2.4 C6.2,2.12 6.38666667,1.93333333 6.66666667,1.93333333 L9.46666667,1.93333333 C9.74666667,1.93333333 9.93333333,2.12 9.93333333,2.4 L9.93333333,2.86666667 Z" id="形状" fill="#333333" fill-rule="nonzero"></path>
                <polygon id="路径" fill="#333333" fill-rule="nonzero" points="10.3533333 9.26 12.36 11.2666667 8.06666667 11.2666667 8.06666667 12.2 12.36 12.2 10.3533333 14.2066667 11.0066667 14.86 14.1333333 11.7333333 11.0066667 8.60666667"></polygon>
            </g>
        </g>
    </g>
</svg>