<?xml version="1.0" encoding="UTF-8"?>
<svg width="187px" height="187px" viewBox="0 0 187 187" version="1.1" xmlns="http://www.w3.org/2000/svg" xmlns:xlink="http://www.w3.org/1999/xlink">
    <title>return_status</title>
    <g id="页面-1" stroke="none" stroke-width="1" fill="none" fill-rule="evenodd">
        <g id="return_status" transform="translate(0.029028, 0.167527)" fill="#F5222D" fill-rule="nonzero">
            <path d="M169.338989,39.7521467 C139.893247,-2.36611244 81.8704059,-12.6531621 39.7521467,16.7925805 C-2.36611247,46.2383231 -12.6531621,104.261164 16.7925805,146.379423 C46.2383231,188.497682 104.261164,198.784732 146.379423,169.338989 C188.497682,139.893247 198.784732,81.8704059 169.338989,39.7521467 Z M142.018561,163.104146 C103.335197,190.133557 50.0788805,180.701924 23.0274233,142.018561 C-4.00198727,103.335197 5.42964554,50.0568338 44.113009,23.0274233 C82.7963725,-4.00198725 136.052689,5.43405494 163.104147,44.1130092 C190.133557,82.7963727 180.697515,136.057099 142.018561,163.104146 Z" id="形状"></path>
            <path d="M157.618896,46.5646163 C132.414963,10.5312815 82.7831444,1.73018795 46.7498096,26.9164836 C10.7164748,52.1204168 1.91979066,101.756644 27.1060863,137.789979 C52.2923821,173.823314 101.9242,182.624407 137.975173,157.438112 C174.021735,132.251816 182.805192,82.597951 157.618896,46.5646163 Z M135.814584,154.338328 C101.483264,178.329686 54.2060467,169.947482 30.1970516,135.633799 C6.20569398,101.30248 14.5878977,54.0252627 48.9015799,30.0118583 C83.2328996,6.02050064 130.510117,14.4027043 154.519112,48.7163868 C178.514879,83.0521159 170.128266,130.329333 135.814584,154.338328 Z" id="形状"></path>
            <path d="M68.6070344,61.3404 C78.9859268,53.9751779 92.2695019,52.0398009 104.318486,56.1373489 L108.216365,53.3903141 C94.3880419,47.6685775 78.5905915,49.4467897 66.3803049,58.0995165 C53.6769229,67.0769846 47.0849215,81.6278907 47.609636,96.2140717 L51.5075151,93.4670372 C51.8470362,81.0590827 57.790861,68.9818305 68.6070344,61.3404 L68.6070344,61.3404 Z M135.523565,92.9158665 L131.630096,95.662901 C131.286165,108.070856 125.34234,120.143698 114.526167,127.785129 C104.150601,135.158652 90.8628798,137.094633 78.8147154,132.98818 L74.9212457,135.739624 C88.7495685,141.461361 104.547019,139.683149 116.757306,131.030422 C129.451869,122.052954 136.04828,107.502048 135.523565,92.9158665 L135.523565,92.9158665 Z M56.6311977,54.9291827 L59.131308,47.6360922 L66.7418729,47.7639637 L60.6525391,43.1297206 L63.1526492,35.8366301 L56.900169,40.2548143 L50.8108352,35.5985245 L53.0199274,42.9842116 L46.7674471,47.3979864 L54.3956494,47.5479049 L56.6311977,54.9291827 Z M49.52771,62.7513971 L42.0626541,61.1552067 L41.264559,53.4785014 L37.4416391,60.1498713 L29.9942207,58.5360436 L35.0870379,64.2726282 L31.264118,70.9616356 L38.2397342,67.8265768 L43.3325514,73.5631612 L42.5520938,65.8864559 L49.52771,62.7513971 L49.52771,62.7513971 Z M76.4733424,43.7117569 L81.7822184,38.1603657 L88.6299631,41.5511678 L85.0627863,34.7342887 L90.354025,29.1828975 L82.8536944,30.5189354 L79.2644707,23.7020563 L78.1929949,31.3434866 L70.6926643,32.6795245 L77.5404088,36.0703264 L76.4733424,43.7117569 Z M99.1418904,42.0273793 L106.263016,39.2582977 L111.064815,45.2506254 L110.663563,37.5518733 L117.784688,34.7827918 L110.425457,32.7853493 L110.028614,25.0910065 L105.861764,31.5595456 L98.5069418,29.5444655 L103.308741,35.5544307 L99.1418904,42.0273793 L99.1418904,42.0273793 Z M32.7324367,85.4419918 L28.8169201,78.8279436 L28.1466967,86.5046491 L20.6992783,88.2463483 L27.7278069,91.2711731 L27.0575834,98.9478784 L32.0578037,93.1186971 L39.0863324,96.1435219 L35.1531783,89.5294737 L40.1533988,83.7223393 L32.7324367,85.4419918 L32.7324367,85.4419918 Z M126.502004,134.205165 L124.001893,141.498255 L116.391328,141.370384 L122.480662,146.004627 L119.980552,153.297718 L126.233032,148.879533 L132.322366,153.535823 L130.113274,146.150136 L136.365754,141.731952 L128.737552,141.586443 L126.502004,134.205165 L126.502004,134.205165 Z M151.869083,118.168303 L144.893467,121.298952 L139.80065,115.562368 L140.581108,123.239073 L133.605491,126.374132 L141.070547,127.965913 L141.868642,135.642618 L145.691562,128.971248 L153.138981,130.585076 L148.046163,124.848491 L151.869083,118.168303 L151.869083,118.168303 Z M106.659859,145.418181 L101.350983,150.969573 L94.5032379,147.57877 L98.074824,154.39565 L92.7835854,159.947041 L100.283916,158.611003 L103.87314,165.427882 L104.944616,157.786452 L112.444946,156.450414 L105.597202,153.059612 L106.659859,145.418181 Z M83.9913106,147.106968 L76.8701854,149.87605 L72.0683863,143.883722 L72.4696385,151.582474 L65.3485133,154.351556 L72.703335,156.348998 L73.1001778,164.043341 L77.2670281,157.574802 L84.6218498,159.589882 L79.8200508,153.579917 L83.9913106,147.106968 L83.9913106,147.106968 Z M155.400985,97.8631745 L156.071209,90.1864692 L151.070988,96.0156504 L144.03805,92.9908256 L147.971204,99.6048739 L142.970984,105.412008 L150.400765,103.687946 L154.311872,110.301995 L154.982095,102.625289 L162.429514,100.88359 L155.400985,97.8631745 L155.400985,97.8631745 Z" id="形状"></path>
            <path d="M65.0670401,77.4338023 L62.7630401,79.6098023 C65.0670401,81.4658023 66.8270401,83.1938023 68.0430401,84.7938023 L70.4430401,82.4258023 C68.9710401,80.7618023 67.1790401,79.0978023 65.0670401,77.4338023 Z M83.2430401,106.265802 L90.6030401,106.265802 L91.4350401,102.969802 C90.5390401,103.033802 89.2910401,103.097802 87.6270401,103.161802 C85.9630401,103.161802 84.3630401,103.193802 82.7630401,103.193802 C80.2990401,103.193802 78.1230401,103.161802 76.2670401,103.129802 C74.3790401,103.065802 72.9710401,102.809802 72.0430401,102.329802 C71.3070401,101.913802 70.5710401,101.273802 69.8350401,100.441802 L69.4830401,100.089802 L69.4830401,87.9298023 L62.1550401,87.9298023 L62.1550401,91.0018023 L66.3790401,91.0018023 L66.3790401,99.7698023 C65.0990401,100.473802 63.6910401,102.105802 62.0910401,104.665802 L64.5550401,106.937802 C66.1550401,104.057802 67.2430401,102.649802 67.8830401,102.649802 C68.2350401,102.649802 68.6190401,102.905802 69.0670401,103.449802 C70.0270401,104.537802 71.1470401,105.273802 72.4270401,105.657802 C73.7710401,105.977802 75.4670401,106.169802 77.5150401,106.201802 C79.5630401,106.233802 81.4830401,106.265802 83.2430401,106.265802 Z M80.1710401,91.3538023 L78.2830401,93.6258023 C82.6030401,96.1218023 86.1550401,98.7778023 88.9390401,101.625802 L91.0190401,99.1298023 C89.8030401,97.9778023 88.4910401,96.8898023 87.0830401,95.8338023 C87.9470401,95.0658023 88.8110401,94.1698023 89.6430401,93.2098023 L87.2430401,91.3538023 C86.5070401,92.3138023 85.6430401,93.2098023 84.6830401,94.1058023 C83.2750401,93.1458023 81.7710401,92.2498023 80.1710401,91.3538023 Z M76.2350401,85.8818023 L85.7070401,85.8818023 L85.7070401,87.8978023 L76.2350401,87.8978023 L76.2350401,85.8818023 Z M85.7070401,83.1298023 L76.2350401,83.1298023 L76.2350401,81.1138023 L85.7070401,81.1138023 L85.7070401,83.1298023 Z M76.2350401,90.8418023 L88.9710401,90.8418023 L88.9710401,78.1698023 L73.0030401,78.1698023 L73.0030401,97.5618023 C73.0030401,98.1378023 72.6190401,98.5858023 71.8510401,98.8738023 L72.5870401,101.689802 C76.4910401,101.049802 79.7550401,100.377802 82.3150401,99.7058023 L81.5470401,96.6978023 C79.8190401,97.2098023 78.0270401,97.6578023 76.2350401,97.9778023 L76.2350401,90.8418023 Z M102.12304,85.9458023 L102.12304,97.9458023 L115.08304,97.9458023 L115.08304,85.9458023 L102.12304,85.9458023 Z M111.94704,95.1618023 L105.22704,95.1618023 L105.22704,88.7298023 L111.94704,88.7298023 L111.94704,95.1618023 Z M121.80304,78.9058023 L95.3710401,78.9058023 L95.3710401,106.137802 L98.6030401,106.137802 L98.6030401,105.113802 L118.57104,105.113802 L118.57104,106.137802 L121.80304,106.137802 L121.80304,78.9058023 Z M98.6030401,102.169802 L98.6030401,81.8498023 L118.57104,81.8498023 L118.57104,102.169802 L98.6030401,102.169802 Z" id="形状结合" stroke="#F5222D" transform="translate(91.947040, 92.185802) rotate(-36.000000) translate(-91.947040, -92.185802) "></path>
        </g>
    </g>
</svg>