<?xml version="1.0" encoding="UTF-8"?>
<svg width="187px" height="187px" viewBox="0 0 187 187" version="1.1" xmlns="http://www.w3.org/2000/svg" xmlns:xlink="http://www.w3.org/1999/xlink">
    <title>revoked_status</title>
    <g id="snippet截图" stroke="none" stroke-width="1" fill="none" fill-rule="evenodd">
        <g id="无菜单-首页" transform="translate(-394.000000, -181.000000)" fill="#722ED1" fill-rule="nonzero">
            <g id="revoked_status" transform="translate(394.000000, 181.000000)">
                <path d="M169.338989,39.7521467 C139.893247,-2.36611244 81.8704059,-12.6531621 39.7521467,16.7925805 C-2.36611247,46.2383231 -12.6531621,104.261164 16.7925805,146.379423 C46.2383231,188.497682 104.261164,198.784732 146.379423,169.338989 C188.497682,139.893247 198.784732,81.8704059 169.338989,39.7521467 Z M142.018561,163.104146 C103.335197,190.133557 50.0788805,180.701924 23.0274233,142.018561 C-4.00198727,103.335197 5.42964554,50.0568338 44.113009,23.0274233 C82.7963725,-4.00198725 136.052689,5.43405494 163.104147,44.1130092 C190.133557,82.7963727 180.697515,136.057099 142.018561,163.104146 Z" id="形状"></path>
                <path d="M157.618896,46.5646163 C132.414963,10.5312815 82.7831444,1.73018795 46.7498096,26.9164836 C10.7164748,52.1204168 1.91979066,101.756644 27.1060863,137.789979 C52.2923821,173.823314 101.9242,182.624407 137.975173,157.438112 C174.021735,132.251816 182.805192,82.597951 157.618896,46.5646163 Z M135.814584,154.338328 C101.483264,178.329686 54.2060467,169.947482 30.1970516,135.633799 C6.20569398,101.30248 14.5878977,54.0252627 48.9015799,30.0118583 C83.2328996,6.02050064 130.510117,14.4027043 154.519112,48.7163868 C178.514879,83.0521159 170.128266,130.329333 135.814584,154.338328 Z" id="形状"></path>
                <path d="M68.6070344,61.3404 C78.9859268,53.9751779 92.2695019,52.0398009 104.318486,56.1373489 L108.216365,53.3903141 C94.3880419,47.6685775 78.5905915,49.4467897 66.3803049,58.0995165 C53.6769229,67.0769846 47.0849215,81.6278907 47.609636,96.2140717 L51.5075151,93.4670372 C51.8470362,81.0590827 57.790861,68.9818305 68.6070344,61.3404 L68.6070344,61.3404 Z M135.523565,92.9158665 L131.630096,95.662901 C131.286165,108.070856 125.34234,120.143698 114.526167,127.785129 C104.150601,135.158652 90.8628798,137.094633 78.8147154,132.98818 L74.9212457,135.739624 C88.7495685,141.461361 104.547019,139.683149 116.757306,131.030422 C129.451869,122.052954 136.04828,107.502048 135.523565,92.9158665 L135.523565,92.9158665 Z M56.6311977,54.9291827 L59.131308,47.6360922 L66.7418729,47.7639637 L60.6525391,43.1297206 L63.1526492,35.8366301 L56.900169,40.2548143 L50.8108352,35.5985245 L53.0199274,42.9842116 L46.7674471,47.3979864 L54.3956494,47.5479049 L56.6311977,54.9291827 Z M49.52771,62.7513971 L42.0626541,61.1552067 L41.264559,53.4785014 L37.4416391,60.1498713 L29.9942207,58.5360436 L35.0870379,64.2726282 L31.264118,70.9616356 L38.2397342,67.8265768 L43.3325514,73.5631612 L42.5520938,65.8864559 L49.52771,62.7513971 L49.52771,62.7513971 Z M76.4733424,43.7117569 L81.7822184,38.1603657 L88.6299631,41.5511678 L85.0627863,34.7342887 L90.354025,29.1828975 L82.8536944,30.5189354 L79.2644707,23.7020563 L78.1929949,31.3434866 L70.6926643,32.6795245 L77.5404088,36.0703264 L76.4733424,43.7117569 Z M99.1418904,42.0273793 L106.263016,39.2582977 L111.064815,45.2506254 L110.663563,37.5518733 L117.784688,34.7827918 L110.425457,32.7853493 L110.028614,25.0910065 L105.861764,31.5595456 L98.5069418,29.5444655 L103.308741,35.5544307 L99.1418904,42.0273793 L99.1418904,42.0273793 Z M32.7324367,85.4419918 L28.8169201,78.8279436 L28.1466967,86.5046491 L20.6992783,88.2463483 L27.7278069,91.2711731 L27.0575834,98.9478784 L32.0578037,93.1186971 L39.0863324,96.1435219 L35.1531783,89.5294737 L40.1533988,83.7223393 L32.7324367,85.4419918 L32.7324367,85.4419918 Z M126.502004,134.205165 L124.001893,141.498255 L116.391328,141.370384 L122.480662,146.004627 L119.980552,153.297718 L126.233032,148.879533 L132.322366,153.535823 L130.113274,146.150136 L136.365754,141.731952 L128.737552,141.586443 L126.502004,134.205165 L126.502004,134.205165 Z M151.869083,118.168303 L144.893467,121.298952 L139.80065,115.562368 L140.581108,123.239073 L133.605491,126.374132 L141.070547,127.965913 L141.868642,135.642618 L145.691562,128.971248 L153.138981,130.585076 L148.046163,124.848491 L151.869083,118.168303 L151.869083,118.168303 Z M106.659859,145.418181 L101.350983,150.969573 L94.5032379,147.57877 L98.074824,154.39565 L92.7835854,159.947041 L100.283916,158.611003 L103.87314,165.427882 L104.944616,157.786452 L112.444946,156.450414 L105.597202,153.059612 L106.659859,145.418181 Z M83.9913106,147.106968 L76.8701854,149.87605 L72.0683863,143.883722 L72.4696385,151.582474 L65.3485133,154.351556 L72.703335,156.348998 L73.1001778,164.043341 L77.2670281,157.574802 L84.6218498,159.589882 L79.8200508,153.579917 L83.9913106,147.106968 L83.9913106,147.106968 Z M155.400985,97.8631745 L156.071209,90.1864692 L151.070988,96.0156504 L144.03805,92.9908256 L147.971204,99.6048739 L142.970984,105.412008 L150.400765,103.687946 L154.311872,110.301995 L154.982095,102.625289 L162.429514,100.88359 L155.400985,97.8631745 L155.400985,97.8631745 Z" id="形状"></path>
                <g id="撤销" transform="translate(92.771503, 93.708595) rotate(-37.000000) translate(-92.771503, -93.708595) translate(62.003503, 78.812595)" stroke="#722ED1">
                    <path d="M12.352,20.064 L16.512,20.064 L16.512,21.92 L12.352,21.92 L12.352,20.064 Z M16.512,17.632 L12.352,17.632 L12.352,15.808 L16.512,15.808 L16.512,17.632 Z M12.352,24.352 L16.512,24.352 L16.512,25.984 C16.512,26.528 16.128,26.816 15.392,26.816 L13.696,26.688 L14.432,29.536 L16.288,29.536 C18.336,29.536 19.392,28.544 19.392,26.624 L19.392,13.6 L20.48,14.944 C20.736,14.56 20.96,14.144 21.216,13.728 C21.792,16.544 22.496,19.072 23.296,21.28 C22.336,23.584 21.056,25.472 19.456,26.944 L21.152,29.664 C22.56,28.32 23.776,26.688 24.8,24.768 C25.792,26.752 26.912,28.384 28.16,29.632 L30.048,26.88 C28.64,25.536 27.392,23.68 26.304,21.344 C27.584,17.664 28.32,13.216 28.448,8 L29.376,8 L29.376,4.896 L24.416,4.896 C24.704,3.52 24.96,2.048 25.184,0.512 L22.208,5.4345611e-13 C21.728,4.032 20.928,7.456 19.776,10.272 C19.232,8.896 18.592,7.584 17.888,6.304 L15.584,7.072 C15.872,7.616 16.16,8.224 16.48,8.896 L12.832,9.44 C13.472,8.352 14.144,7.2 14.784,5.984 L20.544,5.984 L20.544,2.976 L16.096,2.976 C15.808,1.92 15.52,0.96 15.232,0.096 L11.968,0.608 C12.32,1.312 12.672,2.112 12.992,2.976 L8.64,2.976 L8.64,5.984 L11.648,5.984 C11.136,7.072 10.688,7.904 10.368,8.48 C9.888,9.216 9.344,9.632 8.736,9.696 L9.12,12.288 C12.768,11.936 15.52,11.552 17.376,11.104 C17.472,11.36 17.568,11.68 17.696,12 L19.36,11.232 C19.104,11.712 18.88,12.192 18.624,12.672 L19.04,13.184 L9.472,13.184 L9.472,29.664 L12.352,29.664 L12.352,24.352 Z M23.072,9.632 C23.264,9.12 23.424,8.576 23.616,8 L25.696,8 C25.6,11.328 25.248,14.304 24.672,16.928 C24.032,14.752 23.488,12.32 23.072,9.632 Z M3.52,29.568 C5.504,29.568 6.528,28.448 6.528,26.24 L6.528,17.44 C7.168,17.056 7.84,16.672 8.48,16.288 L8.48,12.896 C7.84,13.312 7.168,13.696 6.528,14.08 L6.528,9.024 L8.448,9.024 L8.448,5.856 L6.528,5.856 L6.528,0.352 L3.36,0.352 L3.36,5.856 L0.608,5.856 L0.608,9.024 L3.36,9.024 L3.36,15.584 C2.272,16.032 1.152,16.384 -8.58299224e-14,16.672 L0.864,20.064 C1.696,19.744 2.528,19.392 3.36,19.008 L3.36,25.408 C3.36,26.272 3.04,26.72 2.432,26.72 C1.792,26.72 1.12,26.624 0.416,26.496 L1.12,29.568 L3.52,29.568 Z" id="形状"></path>
                    <path d="M51.52,0.416 L51.52,8.928 L45.6,8.928 L45.6,29.792 L48.928,29.792 L48.928,23.04 L57.376,23.04 L57.376,25.12 C57.376,26.176 57.024,26.72 56.32,26.72 L53.472,26.56 L54.336,29.728 L57.376,29.728 C59.584,29.728 60.704,28.416 60.704,25.856 L60.704,8.928 L54.816,8.928 L54.816,0.416 L51.52,0.416 Z M48.928,17.568 L57.376,17.568 L57.376,20.224 L48.928,20.224 L48.928,17.568 Z M57.376,14.752 L48.928,14.752 L48.928,12.096 L57.376,12.096 L57.376,14.752 Z M47.552,1.632 L44.768,2.976 C45.792,4.512 46.752,6.272 47.648,8.192 L50.336,6.848 C49.44,4.928 48.512,3.2 47.552,1.632 Z M58.784,1.28 C58.08,3.104 57.12,4.928 55.904,6.784 L58.592,8.192 C59.808,6.4 60.768,4.544 61.536,2.624 L58.784,1.28 Z M36.128,0.384 C35.328,4.032 33.952,7.488 31.968,10.72 L34.688,12.448 C35.008,11.936 35.328,11.392 35.648,10.816 L35.648,13.056 L37.184,13.056 L37.184,16.064 L33.152,16.064 L33.152,19.136 L37.184,19.136 L37.184,25.088 C37.184,25.664 36.768,26.112 35.968,26.4 L37.344,29.28 C40.192,28.512 42.72,27.552 44.928,26.4 L44.352,23.488 C43.072,24.256 41.76,24.864 40.448,25.376 L40.448,19.136 L44.48,19.136 L44.48,16.064 L40.448,16.064 L40.448,13.056 L43.392,13.056 L43.392,10.08 L36.032,10.08 C36.544,9.056 37.056,7.936 37.536,6.752 L43.936,6.752 L43.936,3.584 L38.624,3.584 C38.88,2.784 39.104,1.952 39.328,1.056 L36.128,0.384 Z" id="形状"></path>
                </g>
            </g>
        </g>
    </g>
</svg>