<?xml version="1.0" encoding="UTF-8"?>
<svg width="187px" height="187px" viewBox="0 0 187 187" version="1.1" xmlns="http://www.w3.org/2000/svg" xmlns:xlink="http://www.w3.org/1999/xlink">
    <title>流转中</title>
    <g id="V6.3" stroke="none" stroke-width="1" fill="none" fill-rule="evenodd">
        <g id="Apple-TV" transform="translate(-843.000000, -92.000000)" fill-rule="nonzero">
            <g id="流转中" transform="translate(843.000000, 92.000000)">
                <path d="M169.368017,39.9196738 C139.922275,-2.19858535 81.8994342,-12.485635 39.781175,16.9601076 C-2.33708418,46.4058502 -12.6241338,104.428691 16.8216088,146.54695 C46.2673514,188.665209 104.290192,198.952259 146.408451,169.506516 C188.52671,140.060774 198.81376,82.037933 169.368017,39.9196738 Z M142.047589,163.271673 C103.364225,190.301084 50.1079088,180.869451 23.0564516,142.186088 C-3.97295898,103.502724 5.45867383,50.2243609 44.1420373,23.1949504 C82.8254008,-3.83446016 136.081717,5.60158203 163.133175,44.2805363 C190.162585,82.9638998 180.726543,136.224626 142.047589,163.271673 Z" id="形状" fill="#1890ff"></path>
                <path d="M157.647924,46.7321434 C132.443991,10.6988086 82.8121727,1.89771504 46.7788379,27.0840107 C10.7455031,52.2879439 1.94881895,101.924171 27.1351146,137.957506 C52.3214104,173.990841 101.953228,182.791934 138.004201,157.605639 C174.050763,132.419343 182.83422,82.7654781 157.647924,46.7321434 Z M135.843612,154.505855 C101.512292,178.497213 54.235075,170.115009 30.2260799,135.801326 C6.23472227,101.470007 14.616926,54.1927898 48.9306082,30.1793854 C83.2619279,6.18802773 130.539145,14.5702314 154.54814,48.8839139 C178.543907,83.219643 170.157294,130.49686 135.843612,154.505855 Z" id="形状" fill="#1890ff"></path>
                <path d="M68.6360627,61.5079271 C79.0149551,54.142705 92.2985302,52.207328 104.347514,56.304876 L108.245393,53.5578412 C94.4170702,47.8361046 78.6196198,49.6143168 66.4093332,58.2670436 C53.7059512,67.2445117 47.1139498,81.7954178 47.6386643,96.3815988 L51.5365434,93.6345643 C51.8760645,81.2266098 57.8198893,69.1493576 68.6360627,61.5079271 L68.6360627,61.5079271 Z M135.552593,93.0833936 L131.659124,95.8304281 C131.315193,108.238383 125.371368,120.311225 114.555195,127.952656 C104.179629,135.326179 90.8919081,137.26216 78.8437437,133.155707 L74.950274,135.907151 C88.7785968,141.628888 104.576047,139.850676 116.786334,131.197949 C129.480897,122.220481 136.077308,107.669575 135.552593,93.0833936 L135.552593,93.0833936 Z M56.660226,55.0967098 L59.1603363,47.8036193 L66.7709012,47.9314908 L60.6815674,43.2972477 L63.1816775,36.0041572 L56.9291973,40.4223414 L50.8398635,35.7660516 L53.0489557,43.1517387 L46.7964754,47.5655135 L54.4246777,47.715432 L56.660226,55.0967098 Z M49.5567383,62.9189242 L42.0916824,61.3227338 L41.2935873,53.6460285 L37.4706674,60.3173984 L30.023249,58.7035707 L35.1160662,64.4401553 L31.2931463,71.1291627 L38.2687625,67.9941039 L43.3615797,73.7306883 L42.5811221,66.053983 L49.5567383,62.9189242 L49.5567383,62.9189242 Z M76.5023707,43.879284 L81.8112467,38.3278928 L88.6589914,41.7186949 L85.0918146,34.9018158 L90.3830533,29.3504246 L82.8827227,30.6864625 L79.293499,23.8695834 L78.2220232,31.5110137 L70.7216926,32.8470516 L77.5694371,36.2378535 L76.5023707,43.879284 Z M99.1709187,42.1949064 L106.292044,39.4258248 L111.093843,45.4181525 L110.692591,37.7194004 L117.813716,34.9503189 L110.454485,32.9528764 L110.057642,25.2585336 L105.890792,31.7270727 L98.5359701,29.7119926 L103.337769,35.7219578 L99.1709187,42.1949064 L99.1709187,42.1949064 Z M32.761465,85.6095189 L28.8459484,78.9954707 L28.175725,86.6721762 L20.7283066,88.4138754 L27.7568352,91.4387002 L27.0866117,99.1154055 L32.086832,93.2862242 L39.1153607,96.311049 L35.1822066,89.6970008 L40.1824271,83.8898664 L32.761465,85.6095189 L32.761465,85.6095189 Z M126.531032,134.372692 L124.030921,141.665782 L116.420356,141.537911 L122.50969,146.172154 L120.00958,153.465245 L126.26206,149.04706 L132.351394,153.70335 L130.142302,146.317663 L136.394782,141.899479 L128.76658,141.75397 L126.531032,134.372692 L126.531032,134.372692 Z M151.898111,118.33583 L144.922495,121.466479 L139.829678,115.729895 L140.610136,123.4066 L133.634519,126.541659 L141.099575,128.13344 L141.89767,135.810145 L145.72059,129.138775 L153.168009,130.752603 L148.075191,125.016018 L151.898111,118.33583 L151.898111,118.33583 Z M106.688887,145.585708 L101.380011,151.1371 L94.5322662,147.746297 L98.1038523,154.563177 L92.8126137,160.114568 L100.312944,158.77853 L103.902168,165.595409 L104.973644,157.953979 L112.473974,156.617941 L105.62623,153.227139 L106.688887,145.585708 Z M84.0203389,147.274495 L76.8992137,150.043577 L72.0974146,144.051249 L72.4986668,151.750001 L65.3775416,154.519083 L72.7323633,156.516525 L73.1292061,164.210868 L77.2960564,157.742329 L84.6508781,159.757409 L79.8490791,153.747444 L84.0203389,147.274495 L84.0203389,147.274495 Z M155.430013,98.0307016 L156.100237,90.3539963 L151.100016,96.1831775 L144.067078,93.1583527 L148.000232,99.772401 L143.000012,105.579535 L150.429793,103.855473 L154.3409,110.469522 L155.011123,102.792816 L162.458542,101.051117 L155.430013,98.0307016 L155.430013,98.0307016 Z" id="形状" fill="#1890ff"></path>
                <path d="M74.424,90.64 L77.208,88.72 C76.024,86.736 74.328,84.432 72.088,81.808 L69.4,83.472 C69.976,84.176 70.552,84.912 71.128,85.68 C68.12,86.032 65.08,86.32 62.072,86.512 C63,85.36 64.056,83.728 65.24,81.616 L76.888,81.616 L76.888,78.608 L68.792,78.608 C68.408,77.392 67.992,76.304 67.608,75.344 L64.216,75.92 C64.632,76.752 65.016,77.648 65.4,78.608 L56.984,78.608 L56.984,81.616 L61.784,81.616 C60.152,84.272 58.808,85.936 57.752,86.576 C57.592,86.672 57.368,86.768 57.08,86.864 L57.816,89.68 C63.256,89.328 68.344,88.88 73.016,88.368 C73.528,89.136 73.976,89.904 74.424,90.64 Z M54.136,82.416 L56.504,80.048 C55.16,78.672 53.496,77.296 51.576,75.952 L49.176,78.256 C51.32,79.728 52.984,81.136 54.136,82.416 Z M53.464,90.608 L55.832,88.24 C54.488,86.704 52.792,85.136 50.808,83.6 L48.44,85.904 C50.616,87.6 52.28,89.168 53.464,90.608 Z M67.352,104.688 L67.352,90.608 L63.96,90.608 L63.96,104.688 L67.352,104.688 Z M56.824,105.328 C58.648,103.792 59.96,101.968 60.728,99.92 C61.432,97.936 61.848,94.832 61.976,90.608 L58.712,90.608 C58.584,94.256 58.264,96.88 57.72,98.416 C57.144,100.048 56.12,101.456 54.712,102.64 L56.824,105.328 Z M74.616,105.04 C76.056,104.912 76.984,104.528 77.4,103.888 C77.848,103.216 78.072,101.328 78.072,98.224 L75.16,97.136 C75.16,98.608 75.128,99.792 75.064,100.656 C75.032,101.488 74.84,101.936 74.456,102 L73.4,102 C73.144,101.936 73.016,101.744 73.016,101.424 L73.016,90.608 L69.848,90.608 L69.848,102.096 C69.848,104.048 71,105.04 73.304,105.04 L74.616,105.04 Z M52.056,104.912 C53.528,101.328 54.872,97.488 56.088,93.424 L53.144,92.272 C51.992,96.112 50.584,99.888 48.984,103.536 L52.056,104.912 Z M89.464,105.296 L89.464,98.544 C90.808,98.256 92.12,97.936 93.4,97.616 L93.4,94.48 C92.152,94.8 90.84,95.088 89.464,95.344 L89.464,92.016 L92.696,92.016 L92.696,89.008 L89.464,89.008 L89.464,84.656 L86.232,84.656 L86.232,89.008 L83.928,89.008 C84.664,87.184 85.368,85.104 86.04,82.768 L92.536,82.768 L92.536,79.568 L86.872,79.568 C87.128,78.48 87.352,77.36 87.608,76.208 L84.44,75.728 C84.184,77.072 83.896,78.352 83.64,79.568 L80.12,79.568 L80.12,82.768 L82.84,82.768 C82.136,85.296 81.368,87.408 80.536,89.072 L81.24,92.016 L86.232,92.016 L86.232,95.92 C84.312,96.24 82.296,96.496 80.152,96.752 L80.6,100.016 C82.552,99.76 84.44,99.504 86.232,99.184 L86.232,105.296 L89.464,105.296 Z M105.368,105.52 L107.256,102.64 C106.264,101.904 105.208,101.2 104.12,100.528 C106.168,98.512 107.672,96.528 108.632,94.576 L108.632,91.824 L98.776,91.824 C99.096,90.832 99.416,89.776 99.736,88.656 L109.912,88.656 L109.912,85.488 L100.536,85.488 C100.728,84.624 100.952,83.728 101.176,82.768 L109.08,82.768 L109.08,79.568 L101.816,79.568 C102.008,78.416 102.2,77.264 102.424,76.048 L99.128,75.728 L98.456,79.568 L93.688,79.568 L93.688,82.768 L97.816,82.768 C97.624,83.664 97.4,84.592 97.208,85.488 L92.792,85.488 L92.792,88.656 L96.408,88.656 C95.832,90.768 95.256,92.816 94.616,94.768 L105.208,94.768 C104.248,96.176 103,97.552 101.432,98.96 C100.024,98.192 98.584,97.488 97.112,96.848 L95.32,99.504 C98.776,100.976 102.104,102.992 105.368,105.52 Z M128.728,105.584 L128.728,94.896 L136.728,94.896 L136.728,96.656 L140.088,96.656 L140.088,81.04 L128.728,81.04 L128.728,75.568 L125.272,75.568 L125.272,81.04 L113.944,81.04 L113.944,96.656 L117.304,96.656 L117.304,94.896 L125.272,94.896 L125.272,105.584 L128.728,105.584 Z M125.272,91.632 L117.304,91.632 L117.304,84.304 L125.272,84.304 L125.272,91.632 Z M136.728,91.632 L128.728,91.632 L128.728,84.304 L136.728,84.304 L136.728,91.632 Z" stroke="#1890ff" fill="#1890ff" transform="translate(94.264000, 90.464000) rotate(-36.000000) translate(-94.264000, -90.464000) "></path>
            </g>
        </g>
    </g>
</svg>