<?xml version="1.0" encoding="UTF-8"?>
<svg width="16px" height="16px" viewBox="0 0 16 16" version="1.1" xmlns="http://www.w3.org/2000/svg" xmlns:xlink="http://www.w3.org/1999/xlink">
    <title>状态</title>
    <g id="优化" stroke="none" stroke-width="1" fill="none" fill-rule="evenodd">
        <g id="服务详情" transform="translate(-20.000000, -427.000000)" fill="#FFFFFF" fill-rule="nonzero">
            <g id="编组-2" transform="translate(0.000000, 110.000000)">
                <g id="状态" transform="translate(20.000000, 317.000000)">
                    <path d="M4.19784217,8.00009878 C4.19784217,9.53982542 5.12535111,10.9279407 6.54787304,11.5171685 C7.97039497,12.1063964 9.60778854,11.7806986 10.6965397,10.6919474 C11.7852908,9.60319629 12.1109887,7.96580272 11.5217608,6.5432808 C10.9325329,5.12075887 9.54441766,4.19324993 8.00469102,4.19324993 C5.90402501,4.19758569 4.20217793,5.89943277 4.19784217,8.00009878 Z M10.6371704,8.00009878 C10.6371704,9.44859661 9.46368916,10.6232377 8.01519205,10.6246846 C6.56669494,10.6261289 5.39087802,9.45383239 5.38797493,8.00533746 C5.38508257,6.55684253 6.55619972,5.37985096 8.00469102,5.37550112 C9.45241975,5.37982918 10.6249606,6.55237005 10.6292887,8.00009878 L10.6371704,8.00009878 Z" id="形状"></path>
                    <path d="M14.8065763,7.44838155 L14.8065763,7.558725 C14.819643,7.7091022 14.8955154,7.84699796 15.0155465,7.93852165 C15.1355776,8.03004534 15.288638,8.06671094 15.4371102,8.03950716 C15.7713255,7.98685489 16.0064251,7.68260829 15.9730641,7.34591979 C15.618672,3.02661257 11.8893116,-0.22506378 7.56198965,0.0121979706 C3.23466768,0.249459721 -0.11683545,3.88937112 0.00312186267,8.22153212 C0.123079175,12.5536931 3.6708703,16.0025634 8.00469102,16 C11.3179052,15.988009 14.2844251,13.944615 15.4765186,10.853265 C15.5940477,10.54856 15.4423116,10.2062716 15.1376066,10.0887426 C14.8329016,9.97121349 14.4906132,10.1229496 14.3730842,10.4276546 C13.135442,13.6719199 9.65718968,15.4676877 6.29555541,14.5979575 C2.93392114,13.7282273 0.763018726,10.4708965 1.25407911,7.03347377 C1.7451395,3.59605101 4.74125842,1.07686612 8.21195177,1.18318274 C11.6826451,1.28949935 14.5189524,3.98734705 14.7986946,7.44838155 L14.8065763,7.44838155 Z" id="路径"></path>
                </g>
            </g>
        </g>
    </g>
</svg>