<?xml version="1.0" encoding="UTF-8"?>
<svg width="187px" height="187px" viewBox="0 0 187 187" version="1.1" xmlns="http://www.w3.org/2000/svg" xmlns:xlink="http://www.w3.org/1999/xlink">
    <title>挂起中</title>
    <g id="V6.3" stroke="none" stroke-width="1" fill="none" fill-rule="evenodd">
        <g id="Apple-TV" transform="translate(-1142.000000, -92.000000)" fill="#fa8c16" fill-rule="nonzero">
            <g id="挂起中" transform="translate(1142.000000, 92.000000)">
                <path d="M169.368017,39.9196738 C139.922275,-2.19858535 81.8994342,-12.485635 39.781175,16.9601076 C-2.33708418,46.4058502 -12.6241338,104.428691 16.8216088,146.54695 C46.2673514,188.665209 104.290192,198.952259 146.408451,169.506516 C188.52671,140.060774 198.81376,82.037933 169.368017,39.9196738 Z M142.047589,163.271673 C103.364225,190.301084 50.1079088,180.869451 23.0564516,142.186088 C-3.97295898,103.502724 5.45867383,50.2243609 44.1420373,23.1949504 C82.8254008,-3.83446016 136.081717,5.60158203 163.133175,44.2805363 C190.162585,82.9638998 180.726543,136.224626 142.047589,163.271673 Z" id="形状"></path>
                <path d="M157.647924,46.7321434 C132.443991,10.6988086 82.8121727,1.89771504 46.7788379,27.0840107 C10.7455031,52.2879439 1.94881895,101.924171 27.1351146,137.957506 C52.3214104,173.990841 101.953228,182.791934 138.004201,157.605639 C174.050763,132.419343 182.83422,82.7654781 157.647924,46.7321434 Z M135.843612,154.505855 C101.512292,178.497213 54.235075,170.115009 30.2260799,135.801326 C6.23472227,101.470007 14.616926,54.1927898 48.9306082,30.1793854 C83.2619279,6.18802773 130.539145,14.5702314 154.54814,48.8839139 C178.543907,83.219643 170.157294,130.49686 135.843612,154.505855 Z" id="形状"></path>
                <path d="M68.6360627,61.5079271 C79.0149551,54.142705 92.2985302,52.207328 104.347514,56.304876 L108.245393,53.5578412 C94.4170702,47.8361046 78.6196198,49.6143168 66.4093332,58.2670436 C53.7059512,67.2445117 47.1139498,81.7954178 47.6386643,96.3815988 L51.5365434,93.6345643 C51.8760645,81.2266098 57.8198893,69.1493576 68.6360627,61.5079271 L68.6360627,61.5079271 Z M135.552593,93.0833936 L131.659124,95.8304281 C131.315193,108.238383 125.371368,120.311225 114.555195,127.952656 C104.179629,135.326179 90.8919081,137.26216 78.8437437,133.155707 L74.950274,135.907151 C88.7785968,141.628888 104.576047,139.850676 116.786334,131.197949 C129.480897,122.220481 136.077308,107.669575 135.552593,93.0833936 L135.552593,93.0833936 Z M56.660226,55.0967098 L59.1603363,47.8036193 L66.7709012,47.9314908 L60.6815674,43.2972477 L63.1816775,36.0041572 L56.9291973,40.4223414 L50.8398635,35.7660516 L53.0489557,43.1517387 L46.7964754,47.5655135 L54.4246777,47.715432 L56.660226,55.0967098 Z M49.5567383,62.9189242 L42.0916824,61.3227338 L41.2935873,53.6460285 L37.4706674,60.3173984 L30.023249,58.7035707 L35.1160662,64.4401553 L31.2931463,71.1291627 L38.2687625,67.9941039 L43.3615797,73.7306883 L42.5811221,66.053983 L49.5567383,62.9189242 L49.5567383,62.9189242 Z M76.5023707,43.879284 L81.8112467,38.3278928 L88.6589914,41.7186949 L85.0918146,34.9018158 L90.3830533,29.3504246 L82.8827227,30.6864625 L79.293499,23.8695834 L78.2220232,31.5110137 L70.7216926,32.8470516 L77.5694371,36.2378535 L76.5023707,43.879284 Z M99.1709187,42.1949064 L106.292044,39.4258248 L111.093843,45.4181525 L110.692591,37.7194004 L117.813716,34.9503189 L110.454485,32.9528764 L110.057642,25.2585336 L105.890792,31.7270727 L98.5359701,29.7119926 L103.337769,35.7219578 L99.1709187,42.1949064 L99.1709187,42.1949064 Z M32.761465,85.6095189 L28.8459484,78.9954707 L28.175725,86.6721762 L20.7283066,88.4138754 L27.7568352,91.4387002 L27.0866117,99.1154055 L32.086832,93.2862242 L39.1153607,96.311049 L35.1822066,89.6970008 L40.1824271,83.8898664 L32.761465,85.6095189 L32.761465,85.6095189 Z M126.531032,134.372692 L124.030921,141.665782 L116.420356,141.537911 L122.50969,146.172154 L120.00958,153.465245 L126.26206,149.04706 L132.351394,153.70335 L130.142302,146.317663 L136.394782,141.899479 L128.76658,141.75397 L126.531032,134.372692 L126.531032,134.372692 Z M151.898111,118.33583 L144.922495,121.466479 L139.829678,115.729895 L140.610136,123.4066 L133.634519,126.541659 L141.099575,128.13344 L141.89767,135.810145 L145.72059,129.138775 L153.168009,130.752603 L148.075191,125.016018 L151.898111,118.33583 L151.898111,118.33583 Z M106.688887,145.585708 L101.380011,151.1371 L94.5322662,147.746297 L98.1038523,154.563177 L92.8126137,160.114568 L100.312944,158.77853 L103.902168,165.595409 L104.973644,157.953979 L112.473974,156.617941 L105.62623,153.227139 L106.688887,145.585708 Z M84.0203389,147.274495 L76.8992137,150.043577 L72.0974146,144.051249 L72.4986668,151.750001 L65.3775416,154.519083 L72.7323633,156.516525 L73.1292061,164.210868 L77.2960564,157.742329 L84.6508781,159.757409 L79.8490791,153.747444 L84.0203389,147.274495 L84.0203389,147.274495 Z M155.430013,98.0307016 L156.100237,90.3539963 L151.100016,96.1831775 L144.067078,93.1583527 L148.000232,99.772401 L143.000012,105.579535 L150.429793,103.855473 L154.3409,110.469522 L155.011123,102.792816 L162.458542,101.051117 L155.430013,98.0307016 L155.430013,98.0307016 Z" id="形状"></path>
                <path d="M77.336,89.264 L77.336,86.064 L69.656,86.064 L69.656,82.288 L75.896,82.288 L75.896,79.12 L69.656,79.12 L69.656,75.728 L66.36,75.728 L66.36,79.12 L60.248,79.12 L60.248,82.288 L66.36,82.288 L66.36,86.064 L58.808,86.064 L58.808,89.264 L77.336,89.264 Z M52.056,104.976 C54.2,104.976 55.288,103.856 55.288,101.648 L55.288,93.168 C56.248,92.72 57.24,92.272 58.232,91.76 L58.232,88.496 C57.272,89.008 56.28,89.52 55.288,89.968 L55.288,84.464 L58.712,84.464 L58.712,81.232 L55.288,81.232 L55.288,75.76 L51.96,75.76 L51.96,81.232 L48.696,81.232 L48.696,84.464 L51.96,84.464 L51.96,91.248 C50.744,91.632 49.496,91.984 48.248,92.272 L49.08,95.568 C50.04,95.248 51,94.928 51.96,94.544 L51.96,100.848 C51.96,101.648 51.608,102.064 50.936,102.064 C50.232,102.064 49.464,102 48.664,101.872 L49.368,104.976 L52.056,104.976 Z M77.72,104.24 L77.72,101.04 L69.592,101.04 L69.592,96.688 L76.024,96.688 L76.024,93.52 L69.592,93.52 L69.592,90.288 L66.296,90.288 L66.296,93.52 L59.96,93.52 L59.96,96.688 L66.296,96.688 L66.296,101.04 L57.944,101.04 L57.944,104.24 L77.72,104.24 Z M82.552,105.392 C83.192,103.824 83.704,102.16 84.152,100.432 C85.208,101.84 86.424,102.832 87.768,103.472 C89.6130909,104.285091 94.1476364,104.731438 101.371636,104.751307 L109.304,104.752 L109.88,101.552 C107.96,101.68 105.048,101.744 101.144,101.776 C96.088,101.776 92.568,101.552 90.584,101.168 L90.584,96.112 L94.744,96.112 L94.744,93.104 L90.584,93.104 L90.584,89.52 L94.904,89.52 L94.904,86.448 L89.912,86.448 L89.912,82.672 L94.488,82.672 L94.488,79.664 L89.912,79.664 L89.912,75.568 L86.584,75.568 L86.584,79.664 L81.656,79.664 L81.656,82.672 L86.584,82.672 L86.584,86.448 L81.112,86.448 L81.112,89.52 L87.352,89.52 L87.352,99.728 C86.456,99.056 85.624,98.128 84.856,96.912 C85.112,95.152 85.272,93.328 85.336,91.44 L82.36,91.088 C82.168,95.504 81.368,99.504 79.96,103.12 L82.552,105.392 Z M104.92,99.504 C106.584,99.504 107.64,99.088 108.12,98.32 C108.632,97.52 109.016,95.824 109.272,93.2 L106.104,92.144 C106.008,93.712 105.88,94.8 105.688,95.376 C105.496,95.952 105.08,96.272 104.376,96.272 L100.664,96.272 C99.96,96.24 99.608,95.92 99.608,95.28 L99.608,88.848 L107.896,88.848 L107.896,77.52 L95.928,77.52 L95.928,80.624 L104.632,80.624 L104.632,85.68 L96.28,85.68 L96.28,96.624 C96.28,98.544 97.24,99.504 99.16,99.504 L104.92,99.504 Z M128.728,105.584 L128.728,94.896 L136.728,94.896 L136.728,96.656 L140.088,96.656 L140.088,81.04 L128.728,81.04 L128.728,75.568 L125.272,75.568 L125.272,81.04 L113.944,81.04 L113.944,96.656 L117.304,96.656 L117.304,94.896 L125.272,94.896 L125.272,105.584 L128.728,105.584 Z M125.272,91.632 L117.304,91.632 L117.304,84.304 L125.272,84.304 L125.272,91.632 Z M136.728,91.632 L128.728,91.632 L128.728,84.304 L136.728,84.304 L136.728,91.632 Z" stroke="#fa8c16" transform="translate(94.168000, 90.576000) rotate(-36.000000) translate(-94.168000, -90.576000) "></path>
            </g>
        </g>
    </g>
</svg>