<?xml version="1.0" encoding="UTF-8"?>
<svg width="24px" height="24px" viewBox="0 0 24 24" version="1.1" xmlns="http://www.w3.org/2000/svg" xmlns:xlink="http://www.w3.org/1999/xlink">
    <title>挂起</title>
    <g id="红色顶栏" stroke="none" stroke-width="1" fill="none" fill-rule="evenodd">
        <g id="挂起" fill-rule="nonzero" stroke="#313236">
            <path d="M17.7954545,11.6590909 L17.7954545,12.3409091 L6.20454545,12.3409091 L6.20454545,11.6590909 L17.7954545,11.6590909 Z" id="形状" stroke-width="1.5"></path>
            <path d="M12,1 C15.0375661,1 17.7875661,2.23121694 19.7781746,4.22182542 C21.7687831,6.21243389 23,8.96243388 23,12 C23,15.0375661 21.7687831,17.7875661 19.7781746,19.7781746 C17.7875661,21.7687831 15.0375661,23 12,23 C8.96243388,23 6.21243389,21.7687831 4.22182542,19.7781746 C2.23121694,17.7875661 1,15.0375661 1,12 C1,8.96243387 2.23121694,6.21243387 4.22182541,4.22182541 C6.21243387,2.23121694 8.96243387,1 12,1 Z" id="路径" stroke-width="2"></path>
        </g>
    </g>
</svg>