<?xml version="1.0" encoding="UTF-8"?>
<svg width="187px" height="187px" viewBox="0 0 187 187" version="1.1" xmlns="http://www.w3.org/2000/svg" xmlns:xlink="http://www.w3.org/1999/xlink">
    <title>转派</title>
    <g id="移动端2" stroke="none" stroke-width="1" fill="none" fill-rule="evenodd">
        <g id="工作台备份-10" transform="translate(-460.000000, -37.000000)" fill="#7A8EF0" fill-rule="nonzero">
            <g id="转派" transform="translate(460.000000, 37.000000)">
                <path d="M169.368017,39.9196738 C139.922275,-2.19858535 81.8994342,-12.485635 39.781175,16.9601076 C-2.33708418,46.4058502 -12.6241338,104.428691 16.8216088,146.54695 C46.2673514,188.665209 104.290192,198.952259 146.408451,169.506516 C188.52671,140.060774 198.81376,82.037933 169.368017,39.9196738 Z M142.047589,163.271673 C103.364225,190.301084 50.1079088,180.869451 23.0564516,142.186088 C-3.97295898,103.502724 5.45867383,50.2243609 44.1420373,23.1949504 C82.8254008,-3.83446016 136.081717,5.60158203 163.133175,44.2805363 C190.162585,82.9638998 180.726543,136.224626 142.047589,163.271673 Z" id="形状"></path>
                <path d="M157.647924,46.7321434 C132.443991,10.6988086 82.8121727,1.89771504 46.7788379,27.0840107 C10.7455031,52.2879439 1.94881895,101.924171 27.1351146,137.957506 C52.3214104,173.990841 101.953228,182.791934 138.004201,157.605639 C174.050763,132.419343 182.83422,82.7654781 157.647924,46.7321434 Z M135.843612,154.505855 C101.512292,178.497213 54.235075,170.115009 30.2260799,135.801326 C6.23472227,101.470007 14.616926,54.1927898 48.9306082,30.1793854 C83.2619279,6.18802773 130.539145,14.5702314 154.54814,48.8839139 C178.543907,83.219643 170.157294,130.49686 135.843612,154.505855 Z" id="形状"></path>
                <path d="M68.6360627,61.5079271 C79.0149551,54.142705 92.2985302,52.207328 104.347514,56.304876 L108.245393,53.5578412 C94.4170702,47.8361046 78.6196198,49.6143168 66.4093332,58.2670436 C53.7059512,67.2445117 47.1139498,81.7954178 47.6386643,96.3815988 L51.5365434,93.6345643 C51.8760645,81.2266098 57.8198893,69.1493576 68.6360627,61.5079271 L68.6360627,61.5079271 Z M135.552593,93.0833936 L131.659124,95.8304281 C131.315193,108.238383 125.371368,120.311225 114.555195,127.952656 C104.179629,135.326179 90.8919081,137.26216 78.8437437,133.155707 L74.950274,135.907151 C88.7785968,141.628888 104.576047,139.850676 116.786334,131.197949 C129.480897,122.220481 136.077308,107.669575 135.552593,93.0833936 L135.552593,93.0833936 Z M56.660226,55.0967098 L59.1603363,47.8036193 L66.7709012,47.9314908 L60.6815674,43.2972477 L63.1816775,36.0041572 L56.9291973,40.4223414 L50.8398635,35.7660516 L53.0489557,43.1517387 L46.7964754,47.5655135 L54.4246777,47.715432 L56.660226,55.0967098 Z M49.5567383,62.9189242 L42.0916824,61.3227338 L41.2935873,53.6460285 L37.4706674,60.3173984 L30.023249,58.7035707 L35.1160662,64.4401553 L31.2931463,71.1291627 L38.2687625,67.9941039 L43.3615797,73.7306883 L42.5811221,66.053983 L49.5567383,62.9189242 L49.5567383,62.9189242 Z M76.5023707,43.879284 L81.8112467,38.3278928 L88.6589914,41.7186949 L85.0918146,34.9018158 L90.3830533,29.3504246 L82.8827227,30.6864625 L79.293499,23.8695834 L78.2220232,31.5110137 L70.7216926,32.8470516 L77.5694371,36.2378535 L76.5023707,43.879284 Z M99.1709187,42.1949064 L106.292044,39.4258248 L111.093843,45.4181525 L110.692591,37.7194004 L117.813716,34.9503189 L110.454485,32.9528764 L110.057642,25.2585336 L105.890792,31.7270727 L98.5359701,29.7119926 L103.337769,35.7219578 L99.1709187,42.1949064 L99.1709187,42.1949064 Z M32.761465,85.6095189 L28.8459484,78.9954707 L28.175725,86.6721762 L20.7283066,88.4138754 L27.7568352,91.4387002 L27.0866117,99.1154055 L32.086832,93.2862242 L39.1153607,96.311049 L35.1822066,89.6970008 L40.1824271,83.8898664 L32.761465,85.6095189 L32.761465,85.6095189 Z M126.531032,134.372692 L124.030921,141.665782 L116.420356,141.537911 L122.50969,146.172154 L120.00958,153.465245 L126.26206,149.04706 L132.351394,153.70335 L130.142302,146.317663 L136.394782,141.899479 L128.76658,141.75397 L126.531032,134.372692 L126.531032,134.372692 Z M151.898111,118.33583 L144.922495,121.466479 L139.829678,115.729895 L140.610136,123.4066 L133.634519,126.541659 L141.099575,128.13344 L141.89767,135.810145 L145.72059,129.138775 L153.168009,130.752603 L148.075191,125.016018 L151.898111,118.33583 L151.898111,118.33583 Z M106.688887,145.585708 L101.380011,151.1371 L94.5322662,147.746297 L98.1038523,154.563177 L92.8126137,160.114568 L100.312944,158.77853 L103.902168,165.595409 L104.973644,157.953979 L112.473974,156.617941 L105.62623,153.227139 L106.688887,145.585708 Z M84.0203389,147.274495 L76.8992137,150.043577 L72.0974146,144.051249 L72.4986668,151.750001 L65.3775416,154.519083 L72.7323633,156.516525 L73.1292061,164.210868 L77.2960564,157.742329 L84.6508781,159.757409 L79.8490791,153.747444 L84.0203389,147.274495 L84.0203389,147.274495 Z M155.430013,98.0307016 L156.100237,90.3539963 L151.100016,96.1831775 L144.067078,93.1583527 L148.000232,99.772401 L143.000012,105.579535 L150.429793,103.855473 L154.3409,110.469522 L155.011123,102.792816 L162.458542,101.051117 L155.430013,98.0307016 L155.430013,98.0307016 Z" id="形状"></path>
                <path d="M71.464,108.296 L71.464,101.544 C72.808,101.256 74.12,100.936 75.4,100.616 L75.4,97.48 C74.152,97.8 72.84,98.088 71.464,98.344 L71.464,95.016 L74.696,95.016 L74.696,92.008 L71.464,92.008 L71.464,87.656 L68.232,87.656 L68.232,92.008 L65.928,92.008 C66.664,90.184 67.368,88.104 68.04,85.768 L74.536,85.768 L74.536,82.568 L68.872,82.568 C69.128,81.48 69.352,80.36 69.608,79.208 L66.44,78.728 C66.184,80.072 65.896,81.352 65.64,82.568 L62.12,82.568 L62.12,85.768 L64.84,85.768 C64.136,88.296 63.368,90.408 62.536,92.072 L63.24,95.016 L68.232,95.016 L68.232,98.92 C66.312,99.24 64.296,99.496 62.152,99.752 L62.6,103.016 C64.552,102.76 66.44,102.504 68.232,102.184 L68.232,108.296 L71.464,108.296 Z M87.368,108.52 L89.256,105.64 C88.264,104.904 87.208,104.2 86.12,103.528 C88.168,101.512 89.672,99.528 90.632,97.576 L90.632,94.824 L80.776,94.824 C81.096,93.832 81.416,92.776 81.736,91.656 L91.912,91.656 L91.912,88.488 L82.536,88.488 C82.728,87.624 82.952,86.728 83.176,85.768 L91.08,85.768 L91.08,82.568 L83.816,82.568 C84.008,81.416 84.2,80.264 84.424,79.048 L81.128,78.728 L80.456,82.568 L75.688,82.568 L75.688,85.768 L79.816,85.768 C79.624,86.664 79.4,87.592 79.208,88.488 L74.792,88.488 L74.792,91.656 L78.408,91.656 C77.832,93.768 77.256,95.816 76.616,97.768 L87.208,97.768 C86.248,99.176 85,100.552 83.432,101.96 C82.024,101.192 80.584,100.488 79.112,99.848 L77.32,102.504 C80.776,103.976 84.104,105.992 87.368,108.52 Z M103.272,108.36 C105.832,104.232 107.176,99.24 107.304,93.416 L107.304,84.36 C113,83.784 117.8,82.728 121.672,81.192 L119.432,78.632 C116.072,80.04 110.984,81.064 104.2,81.64 L104.2,93.416 C104.072,98.216 102.952,102.376 100.84,105.832 L103.272,108.36 Z M100.296,86.12 L102.568,83.816 C101.16,82.216 99.464,80.584 97.48,78.984 L95.112,81.256 C97.352,82.984 99.08,84.616 100.296,86.12 Z M121.608,108.04 L124.104,105.512 C121.896,103.016 120.264,100.232 119.208,97.096 C121.032,96.008 122.536,94.952 123.688,93.864 L121.864,91.528 C120.904,92.456 119.784,93.352 118.44,94.248 C118.056,92.52 117.832,90.728 117.8,88.808 C119.464,88.424 121.032,87.944 122.568,87.4 L120.904,84.68 C117.32,85.992 113.544,86.856 109.576,87.304 L109.576,103.752 C109.576,104.328 109.16,104.68 108.36,104.872 L109.064,107.72 C112.2,106.888 114.952,106.024 117.256,105.192 L116.68,102.312 C115.368,102.856 114.056,103.336 112.712,103.752 L112.712,89.768 C113.448,89.64 114.184,89.544 114.888,89.416 C115.144,96.584 117.384,102.792 121.608,108.04 Z M99.304,93.64 L101.608,91.368 C100.264,89.736 98.664,88.104 96.744,86.472 L94.408,88.776 C96.52,90.504 98.152,92.136 99.304,93.64 Z M98.056,108.04 C99.656,104.52 101.128,100.744 102.44,96.744 L99.496,95.56 C98.216,99.336 96.68,103.016 94.92,106.664 L98.056,108.04 Z" stroke="#7A8EF0" transform="translate(93.112000, 93.576000) rotate(-35.000000) translate(-93.112000, -93.576000) "></path>
            </g>
        </g>
    </g>
</svg>