<?xml version="1.0" encoding="UTF-8"?>
<svg width="12px" height="12px" viewBox="0 0 12 12" version="1.1" xmlns="http://www.w3.org/2000/svg" xmlns:xlink="http://www.w3.org/1999/xlink">
    <!-- Generator: Sketch 55.2 (78181) - https://sketchapp.com -->
    <title>E124AEB9-6F91-465E-A312-FE8C0E9C1D5E</title>
    <desc>Created with Sketch.</desc>
    <g id="icon-图标" stroke="none" stroke-width="1" fill="none" fill-rule="evenodd" opacity="0.65">
        <g id="画板" transform="translate(-288.000000, -78.000000)" fill="#000000" fill-rule="nonzero">
            <g id="7.Icon/arrow/22.swap" transform="translate(286.000000, 76.000000)">
                <path d="M13.2484375,9.25 L2.375,9.25 C2.30625,9.25 2.25,9.30625 2.25,9.375 L2.25,10.3125 C2.25,10.38125 2.30625,10.4375 2.375,10.4375 L11.83125,10.4375 L9.5765625,13.296875 C9.5125,13.378125 9.5703125,13.5 9.675,13.5 L10.8078125,13.5 C10.884375,13.5 10.95625,13.465625 11.0046875,13.4046875 L13.6421875,10.059375 C13.9,9.73125 13.6671875,9.25 13.2484375,9.25 L13.2484375,9.25 Z M13.625,5.5625 L4.16875,5.5625 L6.4234375,2.703125 C6.4875,2.621875 6.4296875,2.5 6.325,2.5 L5.1921875,2.5 C5.115625,2.5 5.04375,2.534375 4.9953125,2.5953125 L2.3578125,5.940625 C2.1,6.26875 2.3328125,6.75 2.75,6.75 L13.625,6.75 C13.69375,6.75 13.75,6.69375 13.75,6.625 L13.75,5.6875 C13.75,5.61875 13.69375,5.5625 13.625,5.5625 Z" id="fill"></path>
            </g>
        </g>
    </g>
</svg>