<?xml version="1.0" encoding="UTF-8"?>
<svg width="187px" height="187px" viewBox="0 0 187 187" version="1.1" xmlns="http://www.w3.org/2000/svg" xmlns:xlink="http://www.w3.org/1999/xlink">
    <title>撤回</title>
    <g id="V6.3" stroke="none" stroke-width="1" fill="none" fill-rule="evenodd">
        <g id="Apple-TV" transform="translate(-1114.000000, -367.000000)" fill="#722ed1" fill-rule="nonzero">
            <g id="撤回" transform="translate(1114.000000, 367.000000)">
                <path d="M169.368017,39.9196738 C139.922275,-2.19858535 81.8994342,-12.485635 39.781175,16.9601076 C-2.33708418,46.4058502 -12.6241338,104.428691 16.8216088,146.54695 C46.2673514,188.665209 104.290192,198.952259 146.408451,169.506516 C188.52671,140.060774 198.81376,82.037933 169.368017,39.9196738 Z M142.047589,163.271673 C103.364225,190.301084 50.1079088,180.869451 23.0564516,142.186088 C-3.97295898,103.502724 5.45867383,50.2243609 44.1420373,23.1949504 C82.8254008,-3.83446016 136.081717,5.60158203 163.133175,44.2805363 C190.162585,82.9638998 180.726543,136.224626 142.047589,163.271673 Z" id="形状"></path>
                <path d="M157.647924,46.7321434 C132.443991,10.6988086 82.8121727,1.89771504 46.7788379,27.0840107 C10.7455031,52.2879439 1.94881895,101.924171 27.1351146,137.957506 C52.3214104,173.990841 101.953228,182.791934 138.004201,157.605639 C174.050763,132.419343 182.83422,82.7654781 157.647924,46.7321434 Z M135.843612,154.505855 C101.512292,178.497213 54.235075,170.115009 30.2260799,135.801326 C6.23472227,101.470007 14.616926,54.1927898 48.9306082,30.1793854 C83.2619279,6.18802773 130.539145,14.5702314 154.54814,48.8839139 C178.543907,83.219643 170.157294,130.49686 135.843612,154.505855 Z" id="形状"></path>
                <path d="M68.6360627,61.5079271 C79.0149551,54.142705 92.2985302,52.207328 104.347514,56.304876 L108.245393,53.5578412 C94.4170702,47.8361046 78.6196198,49.6143168 66.4093332,58.2670436 C53.7059512,67.2445117 47.1139498,81.7954178 47.6386643,96.3815988 L51.5365434,93.6345643 C51.8760645,81.2266098 57.8198893,69.1493576 68.6360627,61.5079271 L68.6360627,61.5079271 Z M135.552593,93.0833936 L131.659124,95.8304281 C131.315193,108.238383 125.371368,120.311225 114.555195,127.952656 C104.179629,135.326179 90.8919081,137.26216 78.8437437,133.155707 L74.950274,135.907151 C88.7785968,141.628888 104.576047,139.850676 116.786334,131.197949 C129.480897,122.220481 136.077308,107.669575 135.552593,93.0833936 L135.552593,93.0833936 Z M56.660226,55.0967098 L59.1603363,47.8036193 L66.7709012,47.9314908 L60.6815674,43.2972477 L63.1816775,36.0041572 L56.9291973,40.4223414 L50.8398635,35.7660516 L53.0489557,43.1517387 L46.7964754,47.5655135 L54.4246777,47.715432 L56.660226,55.0967098 Z M49.5567383,62.9189242 L42.0916824,61.3227338 L41.2935873,53.6460285 L37.4706674,60.3173984 L30.023249,58.7035707 L35.1160662,64.4401553 L31.2931463,71.1291627 L38.2687625,67.9941039 L43.3615797,73.7306883 L42.5811221,66.053983 L49.5567383,62.9189242 L49.5567383,62.9189242 Z M76.5023707,43.879284 L81.8112467,38.3278928 L88.6589914,41.7186949 L85.0918146,34.9018158 L90.3830533,29.3504246 L82.8827227,30.6864625 L79.293499,23.8695834 L78.2220232,31.5110137 L70.7216926,32.8470516 L77.5694371,36.2378535 L76.5023707,43.879284 Z M99.1709187,42.1949064 L106.292044,39.4258248 L111.093843,45.4181525 L110.692591,37.7194004 L117.813716,34.9503189 L110.454485,32.9528764 L110.057642,25.2585336 L105.890792,31.7270727 L98.5359701,29.7119926 L103.337769,35.7219578 L99.1709187,42.1949064 L99.1709187,42.1949064 Z M32.761465,85.6095189 L28.8459484,78.9954707 L28.175725,86.6721762 L20.7283066,88.4138754 L27.7568352,91.4387002 L27.0866117,99.1154055 L32.086832,93.2862242 L39.1153607,96.311049 L35.1822066,89.6970008 L40.1824271,83.8898664 L32.761465,85.6095189 L32.761465,85.6095189 Z M126.531032,134.372692 L124.030921,141.665782 L116.420356,141.537911 L122.50969,146.172154 L120.00958,153.465245 L126.26206,149.04706 L132.351394,153.70335 L130.142302,146.317663 L136.394782,141.899479 L128.76658,141.75397 L126.531032,134.372692 L126.531032,134.372692 Z M151.898111,118.33583 L144.922495,121.466479 L139.829678,115.729895 L140.610136,123.4066 L133.634519,126.541659 L141.099575,128.13344 L141.89767,135.810145 L145.72059,129.138775 L153.168009,130.752603 L148.075191,125.016018 L151.898111,118.33583 L151.898111,118.33583 Z M106.688887,145.585708 L101.380011,151.1371 L94.5322662,147.746297 L98.1038523,154.563177 L92.8126137,160.114568 L100.312944,158.77853 L103.902168,165.595409 L104.973644,157.953979 L112.473974,156.617941 L105.62623,153.227139 L106.688887,145.585708 Z M84.0203389,147.274495 L76.8992137,150.043577 L72.0974146,144.051249 L72.4986668,151.750001 L65.3775416,154.519083 L72.7323633,156.516525 L73.1292061,164.210868 L77.2960564,157.742329 L84.6508781,159.757409 L79.8490791,153.747444 L84.0203389,147.274495 L84.0203389,147.274495 Z M155.430013,98.0307016 L156.100237,90.3539963 L151.100016,96.1831775 L144.067078,93.1583527 L148.000232,99.772401 L143.000012,105.579535 L150.429793,103.855473 L154.3409,110.469522 L155.011123,102.792816 L162.458542,101.051117 L155.430013,98.0307016 L155.430013,98.0307016 Z" id="形状"></path>
                <path d="M74.28,107.072 L74.28,101.76 L78.44,101.76 L78.44,103.392 C78.44,103.936 78.056,104.224 77.32,104.224 L75.624,104.096 L76.36,106.944 L78.216,106.944 C80.264,106.944 81.32,105.952 81.32,104.032 L81.32,91.008 L82.408,92.352 C82.664,91.968 82.888,91.552 83.144,91.136 C83.72,93.952 84.424,96.48 85.224,98.688 C84.264,100.992 82.984,102.88 81.384,104.352 L83.08,107.072 C84.488,105.728 85.704,104.096 86.728,102.176 C87.72,104.16 88.84,105.792 90.088,107.04 L91.976,104.288 C90.568,102.944 89.32,101.088 88.232,98.752 C89.512,95.072 90.248,90.624 90.376,85.408 L91.304,85.408 L91.304,82.304 L86.344,82.304 C86.632,80.928 86.888,79.456 87.112,77.92 L84.136,77.408 C83.656,81.44 82.856,84.864 81.704,87.68 C81.16,86.304 80.52,84.992 79.816,83.712 L77.512,84.48 C77.8,85.024 78.088,85.632 78.408,86.304 L74.76,86.848 C75.4,85.76 76.072,84.608 76.712,83.392 L82.472,83.392 L82.472,80.384 L78.024,80.384 C77.736,79.328 77.448,78.368 77.16,77.504 L73.896,78.016 C74.248,78.72 74.6,79.52 74.92,80.384 L70.568,80.384 L70.568,83.392 L73.576,83.392 C73.064,84.48 72.616,85.312 72.296,85.888 C71.816,86.624 71.272,87.04 70.664,87.104 L71.048,89.696 C74.696,89.344 77.448,88.96 79.304,88.512 C79.4,88.768 79.496,89.088 79.624,89.408 L81.288,88.64 L80.552,90.08 L80.552,90.08 L80.968,90.592 L71.4,90.592 L71.4,107.072 L74.28,107.072 Z M65.448,106.976 C67.432,106.976 68.456,105.856 68.456,103.648 L68.456,94.848 L70.408,93.696 L70.408,93.696 L70.408,90.304 C69.768,90.72 69.096,91.104 68.456,91.488 L68.456,86.432 L70.376,86.432 L70.376,83.264 L68.456,83.264 L68.456,77.76 L65.288,77.76 L65.288,83.264 L62.536,83.264 L62.536,86.432 L65.288,86.432 L65.288,92.992 C64.2,93.44 63.08,93.792 61.928,94.08 L62.792,97.472 C63.624,97.152 64.456,96.8 65.288,96.416 L65.288,102.816 C65.288,103.68 64.968,104.128 64.36,104.128 C63.72,104.128 63.048,104.032 62.344,103.904 L63.048,106.976 L65.448,106.976 Z M86.6,94.336 C85.96,92.16 85.416,89.728 85,87.04 C85.192,86.528 85.352,85.984 85.544,85.408 L87.624,85.408 C87.528,88.736 87.176,91.712 86.6,94.336 Z M78.44,95.04 L74.28,95.04 L74.28,93.216 L78.44,93.216 L78.44,95.04 Z M78.44,99.328 L74.28,99.328 L74.28,97.472 L78.44,97.472 L78.44,99.328 Z M99.016,106.688 L99.016,105.664 L118.984,105.664 L118.984,106.688 L122.216,106.688 L122.216,79.456 L95.784,79.456 L95.784,106.688 L99.016,106.688 Z M118.984,102.72 L99.016,102.72 L99.016,82.4 L118.984,82.4 L118.984,102.72 Z M115.496,98.496 L115.496,86.496 L102.536,86.496 L102.536,98.496 L115.496,98.496 Z M112.36,95.712 L105.64,95.712 L105.64,89.28 L112.36,89.28 L112.36,95.712 Z" stroke="#722ed1" transform="translate(92.072000, 92.240000) rotate(-36.000000) translate(-92.072000, -92.240000) "></path>
            </g>
        </g>
    </g>
</svg>