<?xml version="1.0" encoding="UTF-8"?>
<svg width="240px" height="262px" viewBox="0 0 240 262" version="1.1" xmlns="http://www.w3.org/2000/svg" xmlns:xlink="http://www.w3.org/1999/xlink">
    <!-- Generator: Sketch 61.2 (89653) - https://sketch.com -->
    <title>浏览器版本低</title>
    <desc>Created with Sketch.</desc>
    <defs>
        <path d="M0.723,18.157 C8.474,21.54 16.927,25.909 25.434,31.06 L25.434,31.06 C33.862,36.162 41.496,41.509 47.949,46.69 L47.949,46.69 C52.843,41.798 55.854,35.17 55.854,27.867 L55.854,27.867 C55.854,12.817 43.094,0.616 27.354,0.616 L27.354,0.616 C15.192,0.616 4.815,7.904 0.723,18.157" id="path-1"></path>
        <radialGradient cx="41.6544231%" cy="28.9394331%" fx="41.6544231%" fy="28.9394331%" r="128.11208%" gradientTransform="translate(0.416544,0.289394),scale(0.835719,1.000000),rotate(74.943528),translate(-0.416544,-0.289394)" id="radialGradient-3">
            <stop stop-color="#FFFFFF" offset="0%"></stop>
            <stop stop-color="#231714" offset="100%"></stop>
        </radialGradient>
        <polygon id="path-4" points="0.3522 0.6294 19.457 0.6294 19.457 25.7044 0.3522 25.7044"></polygon>
    </defs>
    <g id="Data-Display数据展示" stroke="none" stroke-width="1" fill="none" fill-rule="evenodd">
        <g id="空状态" transform="translate(-2371.000000, -1442.000000)">
            <g id="编组-13" transform="translate(166.000000, 580.000000)">
                <g id="空页面" transform="translate(4.000000, 757.000000)">
                    <g id="插图" transform="translate(0.000000, 105.000000)">
                        <g id="浏览器版本低" transform="translate(2201.000000, 0.000000)">
                            <g id="编组">
                                <g transform="translate(84.000000, 40.759000)" fill="#DBDBDB" id="Fill-2">
                                    <path d="M79.9499,37.6904 C74.7609,42.8784 67.4559,46.1164 59.3539,46.1164 C43.6139,46.1164 30.8539,33.9164 30.8539,18.8664 C30.8539,15.4454 31.5199,12.1734 32.7229,9.1574 C14.8109,1.3394 2.5549,-2.8806 0.3539,2.6164 C-1.7671,7.9144 9.1859,30.5614 37.3539,47.6164 C65.5219,64.6704 99.3539,68.3474 99.3539,60.6164 C99.3539,55.6164 95.0649,49.8274 79.9499,37.6904"></path>
                                </g>
                                <g transform="translate(115.000000, 33.759000)">
                                    <mask id="mask-2" fill="white">
                                        <use xlink:href="#path-1"></use>
                                    </mask>
                                    <g id="Clip-4"></g>
                                    <path d="M0.723,18.157 C8.474,21.54 16.927,25.909 25.434,31.06 L25.434,31.06 C33.862,36.162 41.496,41.509 47.949,46.69 L47.949,46.69 C52.843,41.798 55.854,35.17 55.854,27.867 L55.854,27.867 C55.854,12.817 43.094,0.616 27.354,0.616 L27.354,0.616 C15.192,0.616 4.815,7.904 0.723,18.157" id="Fill-3" fill="url(#radialGradient-3)" mask="url(#mask-2)"></path>
                                </g>
                                <g>
                                    <path d="M142.3542,88.1162 C150.4562,88.1162 157.7602,84.8792 162.9502,79.6902 C156.4972,74.5092 148.8622,69.1622 140.4342,64.0592 C131.9272,58.9092 123.4732,54.5402 115.7232,51.1572 C114.5202,54.1742 113.8542,57.4452 113.8542,60.8662 C113.8542,75.9162 126.6142,88.1162 142.3542,88.1162" id="Fill-5" fill="#DBDBDB"></path>
                                    <g transform="translate(220.000000, 66.000000)">
                                        <mask id="mask-5" fill="white">
                                            <use xlink:href="#path-4"></use>
                                        </mask>
                                        <g id="Clip-8"></g>
                                        <path d="M0.3522,12.6504 C0.3522,12.6504 8.3542,9.6164 10.6242,0.6294 C13.8942,7.9994 15.5802,11.1864 19.4572,12.5874 C14.1782,15.0644 11.8852,17.8464 10.0792,25.7044 C8.0062,16.4464 6.1192,15.2484 0.3522,12.6504" id="Fill-7" fill="#DBDBDB" mask="url(#mask-5)"></path>
                                    </g>
                                    <path d="M29.8073,78.1875 C29.8073,78.1875 35.0473,76.2005 36.5353,70.3155 C38.6753,75.1415 39.7803,77.2285 42.3193,78.1465 C38.8633,79.7685 37.3603,81.5905 36.1773,86.7365 C34.8203,80.6725 33.5833,79.8885 29.8073,78.1875" id="Fill-9" fill="#DBDBDB"></path>
                                    <path d="M75.8542,199.1162 C75.8542,199.1162 79.8542,227.1162 78.8542,234.1162 C77.8542,241.1162 77.8542,255.1162 78.8542,256.1162 C79.8542,257.1162 83.3542,259.6162 84.3542,257.6162 C85.3542,255.6162 87.8542,243.1162 89.8542,237.1162 C91.8542,231.1162 93.8542,220.1162 94.8542,219.1162 C95.8542,218.1162 98.8542,233.1162 99.8542,236.1162 C100.8542,239.1162 102.8542,254.1162 104.8542,256.1162 C106.8542,258.1162 111.8542,256.1162 111.8542,255.1162 C111.8542,254.1162 109.3542,243.6162 109.3542,238.6162 C109.3542,233.6162 111.7042,207.0332 112.8542,205.1162 C114.3542,202.6162 111.8542,195.1162 111.8542,195.1162 L75.8542,199.1162 Z" id="Fill-11" fill="#1452CC"></path>
                                    <path d="M117.9714,156.1162 C117.9714,156.1162 126.1004,168.5002 126.1004,180.0572 C126.1004,185.8372 127.1164,191.6162 125.0834,191.6162 C123.0514,191.6162 122.0354,191.6162 121.0204,189.9652 C120.0034,188.3132 120.0034,180.8842 118.9884,176.7562 C117.9714,172.6282 108.8264,160.2442 110.8594,158.5932 C112.8914,156.9412 117.9714,156.1162 117.9714,156.1162" id="Fill-13" fill="#FFDCB6"></path>
                                    <path d="M69.8102,154.1162 C69.8102,154.1162 66.4842,158.1192 63.9902,165.3232 C61.4952,172.5282 58.1682,182.9352 62.3272,186.1372 C63.1582,186.9372 63.9902,186.9372 64.8212,184.5362 C65.6532,182.1352 64.8212,179.7332 66.4842,178.9322 L66.4842,182.1352 C66.4842,183.7362 67.3152,184.5362 68.1472,182.9352 C68.9782,181.3342 68.9782,179.7332 68.9782,178.1322 C68.9782,176.5312 71.4732,157.3182 73.9672,155.7172 C76.4622,154.1162 69.8102,154.1162 69.8102,154.1162" id="Fill-15" fill="#FFDCB6"></path>
                                    <path d="M86.8542,124.1162 C86.8542,124.1162 88.8542,133.1162 87.8542,133.1162 C86.8542,133.1162 95.8542,134.1162 95.8542,134.1162 C95.8542,134.1162 98.8542,126.1162 98.8542,125.1162 C98.8542,124.1162 86.8542,124.1162 86.8542,124.1162" id="Fill-17" fill="#FFDCB6"></path>
                                    <path d="M78.8542,106.1162 C78.8542,106.1162 78.9632,106.6382 79.3542,108.6162 C79.4532,109.1182 78.3542,106.6162 76.3542,107.6162 C75.4572,108.0642 75.5282,109.7902 78.3542,112.6162 C79.3542,113.6162 80.2272,113.1122 80.3542,113.6162 C81.0012,116.1872 82.0982,119.9822 82.8542,121.1162 C84.8542,124.1162 87.8542,128.1162 91.8542,128.1162 C95.8542,128.1162 100.8542,128.1162 102.8542,124.1162 C104.8542,120.1162 107.3542,117.6162 106.8542,111.1162 C106.7992,110.4002 110.3542,110.6162 108.3542,104.6162 C107.9072,103.2742 105.3542,104.6162 105.3542,105.6162 C105.3542,108.6802 104.8542,100.1162 104.8542,100.1162 L78.8542,106.1162 Z" id="Fill-19" fill="#FFDCB6"></path>
                                    <path d="M78.8542,95.1162 C78.8542,95.1162 74.8542,117.1162 90.8542,119.1162 C101.8542,120.1162 106.3542,114.6162 107.3542,100.6162 C107.9282,92.5742 107.8542,89.1162 107.8542,85.1162 C107.8542,80.8742 108.3792,87.3632 99.3542,84.6162 C87.8542,81.1162 80.8542,86.1162 78.8542,95.1162" id="Fill-21" fill="#191F35"></path>
                                    <path d="M65.8542,153.1162 C65.8542,153.1162 72.8542,136.1162 87.8542,134.1162 C102.8542,132.1162 109.8542,138.1162 114.8542,144.1162 C119.8542,150.1162 122.0212,152.6472 121.8542,156.1162 C121.7002,159.3142 117.8542,165.1162 111.8542,164.1162 C111.8542,164.1162 118.8542,182.1162 118.8542,194.1162 C118.8542,206.1162 106.8542,203.1162 102.8542,203.1162 L84.8542,203.1162 C82.8542,203.1162 71.8542,201.1162 70.8542,199.1162 C69.8542,197.1162 69.8542,181.1162 72.8542,171.1162 C75.8542,161.1162 77.8542,159.1162 77.8542,159.1162 C77.8542,159.1162 65.8542,157.1162 65.8542,153.1162" id="Fill-23" fill="#FFBA2A"></path>
                                    <path d="M78.5466,254.3125 C78.5466,254.3125 78.6646,257.3175 78.7406,259.2675 C78.8166,261.1775 79.9706,261.0875 81.8546,261.1165 C83.7666,261.1445 83.8066,259.6535 86.8546,259.1165 C99.1416,256.9535 97.8976,249.9245 93.8546,249.1165 C91.3546,248.6165 89.7976,250.8955 86.5966,250.9835 C83.3046,251.0745 82.4846,253.2115 82.4846,253.2115 L78.5466,254.3125 Z" id="Fill-25" fill="#7F5916"></path>
                                    <path d="M103.5622,254.0635 C103.5622,254.0635 102.4052,257.2165 102.8542,259.1165 C103.2932,260.9765 106.0002,261.4495 107.8542,261.1165 C109.7362,260.7785 109.7492,258.2955 112.6372,257.1855 C124.2822,252.7065 121.9712,248.3315 117.8542,248.1165 C116.7182,248.0565 113.9502,248.5525 110.8252,249.2525 C107.6122,249.9725 107.2172,252.2275 107.2172,252.2275 L103.5622,254.0635 Z" id="Fill-27" fill="#7F5916"></path>
                                    <line x1="158.3542" y1="5.1162" x2="167.3542" y2="5.1162" id="Stroke-29" stroke="#7A7561" stroke-width="0.75" stroke-linecap="round" stroke-linejoin="round"></line>
                                    <line x1="162.8542" y1="0.6162" x2="162.8542" y2="9.6162" id="Stroke-31" stroke="#7A7561" stroke-width="0.75" stroke-linecap="round" stroke-linejoin="round"></line>
                                    <line x1="184.8542" y1="119.3662" x2="193.3542" y2="119.3662" id="Stroke-33" stroke="#7A7561" stroke-width="0.708" stroke-linecap="round" stroke-linejoin="round"></line>
                                    <line x1="189.1042" y1="115.1162" x2="189.1042" y2="123.6162" id="Stroke-35" stroke="#7A7561" stroke-width="0.708" stroke-linecap="round" stroke-linejoin="round"></line>
                                    <line x1="0.3542" y1="137.3662" x2="8.8542" y2="137.3662" id="Stroke-37" stroke="#7A7561" stroke-width="0.708" stroke-linecap="round" stroke-linejoin="round"></line>
                                    <line x1="4.6042" y1="133.1162" x2="4.6042" y2="141.6162" id="Stroke-39" stroke="#7A7561" stroke-width="0.708" stroke-linecap="round" stroke-linejoin="round"></line>
                                    <path d="M99.3542,98.6162 C99.3542,98.6162 99.3542,100.6162 98.8542,101.5012 C98.6012,101.9472 99.3542,103.6162 100.3542,102.6162 C101.3542,101.6162 99.3542,98.6162 99.3542,98.6162" id="Fill-41" fill="#E8E8E8"></path>
                                    <path d="M102.2868,104.3594 C102.2868,104.3594 102.0168,105.4774 101.6188,105.9054 C101.4178,106.1214 101.6138,107.1564 102.3078,106.7314 C103.0018,106.3064 102.2868,104.3594 102.2868,104.3594" id="Fill-43" fill="#E8E8E8"></path>
                                </g>
                            </g>
                        </g>
                    </g>
                </g>
            </g>
        </g>
    </g>
</svg>