<?xml version="1.0" encoding="UTF-8"?>
<svg width="233px" height="260px" viewBox="0 0 233 260" version="1.1" xmlns="http://www.w3.org/2000/svg" xmlns:xlink="http://www.w3.org/1999/xlink">
    <!-- Generator: Sketch 61.2 (89653) - https://sketch.com -->
    <title>暂无数据</title>
    <desc>Created with Sketch.</desc>
    <defs>
        <path d="M11.957,0.713 C11.957,0.713 10.458,6.463 7.708,7.213 L7.708,7.213 C4.958,7.963 1.208,7.713 0.458,10.213 L0.458,10.213 C-0.408,13.095 3.208,14.463 10.708,13.963 L10.708,13.963 C18.208,13.462 19.957,14.213 19.957,11.963 L19.957,11.963 C19.957,9.591 17.458,2.463 17.458,1.213 L17.458,1.213 C17.458,0.645 16.322,0.49 15.083,0.49 L15.083,0.49 C13.595,0.49 11.957,0.713 11.957,0.713 L11.957,0.713 Z" id="path-1"></path>
        <path d="M12.207,2.713 C12.207,2.713 10.957,9.713 7.458,9.713 L7.458,9.713 C3.958,9.713 0.708,11.213 0.958,13.963 L0.958,13.963 C1.208,16.713 5.208,16.463 11.708,16.213 L11.708,16.213 C18.208,15.963 19.957,16.463 19.957,13.963 L19.957,13.963 C19.957,11.698 18.458,8.712 18.208,6.963 L18.208,6.963 C17.958,5.213 17.707,0.963 17.707,0.963 L17.707,0.963 L12.207,2.713 Z" id="path-3"></path>
        <path d="M1.457,5.213 C1.457,5.213 0.958,44.947 0.958,46.963 L0.958,46.963 C0.958,55.713 4.708,74.463 5.708,75.963 L5.708,75.963 C6.708,77.463 14.208,77.212 14.708,75.213 L14.708,75.213 C15.208,73.213 14.458,62.713 12.958,55.963 L12.958,55.963 C11.458,49.213 16.458,30.463 22.208,22.963 L22.208,22.963 C22.208,22.963 25.446,40.462 25.207,50.713 L25.207,50.713 C24.958,61.462 31.458,76.463 32.957,77.713 L32.957,77.713 C34.458,78.963 38.958,77.713 38.958,77.713 L38.958,77.713 C38.958,77.713 39.208,67.213 37.708,61.963 L37.708,61.963 C36.208,56.713 35.958,52.963 36.457,49.213 L36.457,49.213 C36.958,45.463 43.207,14.963 39.208,5.213 L39.208,5.213 C37.874,1.963 33.235,0.879 27.643,0.879 L27.643,0.879 C16.457,0.879 1.457,5.213 1.457,5.213 L1.457,5.213 Z" id="path-5"></path>
        <path d="M2.056,3.831 L7.078,6.749 C6.059,6.157 5.428,4.898 5.423,3.109 L5.423,3.109 L0.401,0.191 C0.406,1.979 1.038,3.238 2.056,3.831" id="path-7"></path>
        <polygon id="path-9" points="0.223572133 0.099 114.9696 0.099 114.9696 134.1084 0.223572133 134.1084"></polygon>
        <path d="M0.656,0.991 L0.965,1.17 C0.921,1.139 0.877,1.113 0.836,1.088 L0.836,1.088 L0.527,0.908 C0.57,0.933 0.613,0.961 0.656,0.991" id="path-11"></path>
        <path d="M0.651,0.867 C0.727,0.911 0.802,0.953 0.877,0.993 L0.877,0.993 L0.568,0.814 C0.509,0.782 0.448,0.749 0.386,0.713 L0.386,0.713" id="path-13"></path>
        <path d="M0.651,0.867 C0.727,0.911 0.802,0.953 0.877,0.993 L0.877,0.993 L0.568,0.814 C0.509,0.782 0.448,0.749 0.386,0.713 L0.386,0.713" id="path-15"></path>
        <polygon id="path-17" points="0 0.404066008 17.083563 0.404066008 17.083563 30.612532 0 30.612532"></polygon>
        <path d="M0.707,3.713 C0.707,3.713 4.208,8.213 3.208,11.963 L3.208,11.963 C2.208,15.713 11.708,9.213 11.708,9.213 L11.708,9.213 C11.708,9.213 8.708,0.963 4.958,0.213 L4.958,0.213 C4.654,0.152 4.372,0.124 4.109,0.124 L4.109,0.124 C1.13,0.124 0.707,3.713 0.707,3.713 L0.707,3.713 Z" id="path-19"></path>
        <path d="M26.958,0.463 L20.957,1.713 C20.957,1.713 7.439,5.655 4.958,17.463 L4.958,17.463 C-1.292,47.213 0.449,71.09 0.707,74.963 L0.707,74.963 C0.848,77.073 1.7,77.046 3.621,77.02 L3.621,77.02 C5.115,76.999 7.254,76.979 10.208,77.963 L10.208,77.963 C16.958,80.213 49.958,81.463 50.708,76.963 L50.708,76.963 C51.457,72.463 56.458,32.213 48.208,23.963 L48.208,23.963 C48.208,23.963 50.707,22.617 53.012,22.617 L53.012,22.617 C54.884,22.617 45.754,0.137 30.224,0.135 L30.224,0.135 C29.164,0.135 28.076,0.239 26.958,0.463 L26.958,0.463 Z" id="path-21"></path>
    </defs>
    <g id="Data-Display数据展示" stroke="none" stroke-width="1" fill="none" fill-rule="evenodd">
        <g id="空状态" transform="translate(-572.000000, -1457.000000)">
            <g id="编组-13" transform="translate(166.000000, 580.000000)">
                <g id="空页面" transform="translate(4.000000, 757.000000)">
                    <g id="插图" transform="translate(0.000000, 105.000000)">
                        <g id="暂无数据" transform="translate(402.000000, 14.000000)">
                            <g id="编组">
                                <g transform="translate(144.000000, 245.901000)" fill="#7F5916" id="Fill-2">
                                    <path d="M11.9578,0.7129 C11.9578,0.7129 10.4578,6.4629 7.7078,7.2129 C4.9578,7.9629 1.2078,7.7129 0.4578,10.2129 C-0.4072,13.0959 3.2078,14.4629 10.7078,13.9629 C18.2078,13.4629 19.9578,14.2129 19.9578,11.9629 C19.9578,9.5909 17.4578,2.4629 17.4578,1.2129 C17.4578,-0.0371 11.9578,0.7129 11.9578,0.7129"></path>
                                </g>
                                <g transform="translate(144.000000, 245.901000)">
                                    <mask id="mask-2" fill="white">
                                        <use xlink:href="#path-1"></use>
                                    </mask>
                                    <g id="Clip-4"></g>
                                    <path d="M10.0116,-0.3838 C10.0116,-0.3838 13.0116,6.6162 19.0116,5.6162 C25.0116,4.6162 22.0116,-0.3838 22.0116,-0.3838 L15.0116,-2.3838 L10.0116,-0.3838 Z" id="Fill-3" fill="#604211" mask="url(#mask-2)"></path>
                                </g>
                                <path d="M130.2078,246.6139 C130.2078,246.6139 128.9578,253.6139 125.4578,253.6139 C121.9578,253.6139 118.7078,255.1139 118.9578,257.8639 C119.2078,260.6139 123.2078,260.3639 129.7078,260.1139 C136.2078,259.8639 137.9578,260.3639 137.9578,257.8639 C137.9578,255.5989 136.4578,252.6139 136.2078,250.8639 C135.9578,249.1139 135.7078,244.8639 135.7078,244.8639 L130.2078,246.6139 Z" id="Fill-5" fill="#7F5916"></path>
                                <g transform="translate(118.000000, 243.901000)">
                                    <mask id="mask-4" fill="white">
                                        <use xlink:href="#path-3"></use>
                                    </mask>
                                    <g id="Clip-8"></g>
                                    <path d="M9.0116,0.6162 C9.0116,0.6162 12.0116,7.6162 18.0116,6.6162 C24.0116,5.6162 21.0116,0.6162 21.0116,0.6162 L14.0116,-1.3838 L9.0116,0.6162 Z" id="Fill-7" fill="#604211" mask="url(#mask-4)"></path>
                                </g>
                                <path d="M124.4579,176.1139 C124.4579,176.1139 123.9579,215.8479 123.9579,217.8639 C123.9579,226.6139 127.7079,245.3639 128.7079,246.8639 C129.7079,248.3639 137.2079,248.1139 137.7079,246.1139 C138.2079,244.1139 137.4579,233.6139 135.9579,226.8639 C134.4579,220.1139 139.4579,201.3639 145.2079,193.8639 C145.2079,193.8639 148.4459,211.3629 148.2079,221.6139 C147.9579,232.3639 154.4759,247.3429 155.9579,248.6139 C157.0119,249.5169 161.1189,249.0609 161.9579,248.6139 C164.0119,247.5169 162.2079,238.1139 160.7079,232.8639 C159.2079,227.6139 158.9579,223.8639 159.4579,220.1139 C159.9579,216.3639 166.2079,185.8639 162.2079,176.1139 C158.2079,166.3639 124.4579,176.1139 124.4579,176.1139" id="Fill-9" fill="#1452CC"></path>
                                <g transform="translate(123.000000, 170.901000)">
                                    <mask id="mask-6" fill="white">
                                        <use xlink:href="#path-5"></use>
                                    </mask>
                                    <g id="Clip-12"></g>
                                    <path d="M34.0116,4.6162 C34.0116,4.6162 29.0116,13.6162 23.0116,21.6162 C20.4656,25.0112 18.0116,56.6162 18.0116,56.6162 C18.0116,56.6162 19.0116,82.6162 18.0116,83.6162 C17.0116,84.6162 3.0116,99.6162 2.0116,98.6162 C1.0116,97.6162 -14.9884,82.6162 -14.9884,82.6162 L-17.9884,24.6162 L-11.9884,-0.3838 L13.0116,-9.3838 L41.0116,-5.3838 L34.0116,4.6162 Z" id="Fill-11" fill="#1177CC" mask="url(#mask-6)"></path>
                                </g>
                                <g transform="translate(12.000000, 114.901000)">
                                    <path d="M157.6473,6.9375 C157.6473,6.9375 159.0113,10.6165 158.0113,11.6165 C157.0113,12.6165 151.0113,13.6165 151.0113,13.6165 L153.0113,6.6165 L154.0113,5.6165 L157.6473,6.9375 Z" id="Fill-13" fill="#FFDCB6"></path>
                                    <path d="M204.9012,58.6289 C204.9012,58.6289 187.8052,59.4049 186.2522,39.9789 C184.6972,20.5509 190.9142,2.6779 198.6842,0.3469 C206.4562,-1.9851 204.3462,11.3209 210.5112,16.1159 C219.5112,23.1159 228.9912,58.6289 204.9012,58.6289" id="Fill-15" fill="#BBBCBA"></path>
                                    <path d="M6.6571,103.1006 C6.6571,103.1006 1.1371,103.3516 0.6361,97.0796 C0.1341,90.8076 1.9171,84.5196 4.4261,83.7676 C6.9341,83.0146 7.9071,85.5466 8.9371,86.9906 C12.1611,91.5016 13.4501,103.1046 6.6571,103.1006" id="Fill-17" fill="#A4A5A4"></path>
                                    <line x1="6.0565" y1="100.5918" x2="6.0565" y2="107.6158" id="Stroke-19" stroke="#757070" stroke-linecap="round" stroke-linejoin="round"></line>
                                </g>
                                <g transform="translate(13.000000, 131.901000)">
                                    <mask id="mask-8" fill="white">
                                        <use xlink:href="#path-7"></use>
                                    </mask>
                                    <g id="Clip-22"></g>
                                    <path d="M7.078,6.749 L2.057,3.831 C1.038,3.238 0.406,1.979 0.401,0.19 L5.423,3.108 C5.428,4.897 6.059,6.157 7.078,6.749" id="Fill-21" fill="#858585" mask="url(#mask-8)"></path>
                                </g>
                                <g transform="translate(5.000000, 0.901000)">
                                    <path d="M118.9305,3.7939 C122.0655,1.9839 124.6155,3.4379 124.6245,7.0389 L124.802536,69.8029 C124.8135,73.4049 122.2805,77.7919 119.1455,79.6019 L19.1175,137.3539 C15.9825,139.1629 13.4325,137.7109 13.4225,134.1079 L13.2444705,71.3449 C13.2345,67.7419 15.7675,63.3559 18.9025,61.5459 L118.9305,3.7939 Z" id="Fill-23" fill="#E5E5E5"></path>
                                    <g transform="translate(8.000000, 0.000000)">
                                        <mask id="mask-10" fill="white">
                                            <use xlink:href="#path-9"></use>
                                        </mask>
                                        <g id="Clip-26"></g>
                                        <path d="M114.9696,3.3984 L109.9486,0.4804 C109.9376,0.4744 109.9276,0.4684 109.9166,0.4624 C109.8246,0.4114 109.7296,0.3644 109.6316,0.3234 C109.6136,0.3154 109.5936,0.3104 109.5756,0.3034 C109.5436,0.2914 109.5116,0.2814 109.4806,0.2694 C109.4306,0.2524 109.3826,0.2324 109.3316,0.2174 C109.2796,0.2024 109.2236,0.1924 109.1686,0.1794 C109.1346,0.1714 109.1016,0.1634 109.0676,0.1564 C109.0486,0.1534 109.0326,0.1474 109.0136,0.1444 C108.9026,0.1254 108.7866,0.1114 108.6706,0.1044 C108.6626,0.1034 108.6566,0.1044 108.6486,0.1034 C108.6206,0.1024 108.5926,0.1044 108.5646,0.1034 C108.4756,0.1004 108.3866,0.0964 108.2946,0.1004 C108.2646,0.1024 108.2326,0.1084 108.2006,0.1104 C108.1446,0.1144 108.0876,0.1214 108.0306,0.1274 C107.9776,0.1334 107.9256,0.1344 107.8716,0.1434 C107.8246,0.1504 107.7776,0.1654 107.7306,0.1734 C107.6536,0.1884 107.5756,0.2044 107.4966,0.2234 C107.4546,0.2334 107.4146,0.2384 107.3716,0.2504 C107.3306,0.2614 107.2866,0.2814 107.2456,0.2944 C107.1136,0.3334 106.9796,0.3794 106.8446,0.4324 C106.7966,0.4504 106.7516,0.4604 106.7036,0.4804 C106.6776,0.4914 106.6496,0.5094 106.6226,0.5204 C106.3886,0.6224 106.1516,0.7364 105.9086,0.8764 L5.8806,58.6274 C5.5786,58.8014 5.2846,59.0054 4.9956,59.2254 C4.9476,59.2624 4.8976,59.2974 4.8496,59.3364 C4.5746,59.5514 4.3096,59.7874 4.0506,60.0384 C4.0296,60.0584 4.0056,60.0754 3.9846,60.0964 C3.9436,60.1364 3.9056,60.1824 3.8646,60.2244 C3.7346,60.3554 3.6086,60.4904 3.4846,60.6294 C3.4446,60.6724 3.4036,60.7124 3.3646,60.7564 C3.3316,60.7944 3.3016,60.8354 3.2696,60.8724 C3.1946,60.9614 3.1206,61.0514 3.0466,61.1434 C2.9996,61.2024 2.9496,61.2574 2.9036,61.3174 C2.8646,61.3674 2.8296,61.4194 2.7926,61.4674 C2.7396,61.5394 2.6866,61.6114 2.6336,61.6834 C2.5986,61.7324 2.5606,61.7804 2.5266,61.8304 C2.4666,61.9144 2.4106,62.0014 2.3536,62.0864 C2.3166,62.1424 2.2796,62.1964 2.2426,62.2524 C2.2286,62.2754 2.2116,62.2974 2.1976,62.3204 C2.0966,62.4784 1.9986,62.6384 1.9046,62.8004 L1.8866,62.8334 C1.8666,62.8664 1.8496,62.8994 1.8296,62.9334 C1.7646,63.0474 1.6986,63.1624 1.6376,63.2784 C1.6086,63.3334 1.5816,63.3884 1.5546,63.4434 C1.5256,63.5004 1.4966,63.5554 1.4686,63.6124 C1.4436,63.6624 1.4166,63.7114 1.3936,63.7614 C1.3286,63.8934 1.2696,64.0284 1.2096,64.1624 C1.1986,64.1864 1.1876,64.2104 1.1766,64.2344 C1.1736,64.2414 1.1706,64.2474 1.1676,64.2534 C1.0946,64.4224 1.0256,64.5924 0.9586,64.7624 C0.9476,64.7944 0.9376,64.8264 0.9256,64.8574 C0.9026,64.9194 0.8806,64.9814 0.8596,65.0444 C0.8276,65.1284 0.7956,65.2134 0.7676,65.2984 C0.7446,65.3654 0.7276,65.4314 0.7056,65.4994 C0.6816,65.5774 0.6566,65.6544 0.6346,65.7324 C0.6206,65.7814 0.6046,65.8294 0.5906,65.8774 C0.5666,65.9634 0.5486,66.0504 0.5276,66.1374 C0.5026,66.2344 0.4776,66.3314 0.4556,66.4274 C0.4486,66.4614 0.4386,66.4954 0.4306,66.5284 C0.4156,66.5984 0.4076,66.6684 0.3956,66.7374 C0.3656,66.8884 0.3386,67.0404 0.3176,67.1904 C0.3116,67.2314 0.3006,67.2744 0.2956,67.3154 C0.2906,67.3544 0.2926,67.3924 0.2876,67.4314 C0.2486,67.7674 0.223572133,68.1004 0.223572133,68.4264 L0.4016,131.1904 L5.4226,134.1084 L5.2446,71.3444 C5.2436,71.0184 5.2706,70.6844 5.3096,70.3484 C5.3196,70.2684 5.3266,70.1894 5.3386,70.1094 C5.3606,69.9594 5.3876,69.8064 5.4166,69.6544 C5.4366,69.5514 5.4536,69.4494 5.4776,69.3454 C5.4986,69.2494 5.5246,69.1524 5.5486,69.0554 C5.5816,68.9204 5.6166,68.7864 5.6566,68.6514 C5.6796,68.5734 5.7026,68.4954 5.7286,68.4164 C5.7756,68.2654 5.8256,68.1144 5.8796,67.9634 C5.9026,67.9004 5.9236,67.8374 5.9476,67.7744 C6.0256,67.5664 6.1086,67.3584 6.1986,67.1524 C6.2086,67.1284 6.2206,67.1054 6.2306,67.0824 C6.3126,66.8964 6.3996,66.7124 6.4896,66.5304 C6.5186,66.4734 6.5466,66.4184 6.5756,66.3624 C6.6636,66.1904 6.7556,66.0194 6.8516,65.8514 C6.8706,65.8184 6.8886,65.7844 6.9076,65.7514 C7.0216,65.5544 7.1416,65.3604 7.2646,65.1694 C7.3006,65.1154 7.3376,65.0614 7.3746,65.0054 C7.4666,64.8694 7.5606,64.7334 7.6566,64.6004 C7.7076,64.5294 7.7606,64.4584 7.8136,64.3874 C7.8976,64.2764 7.9836,64.1674 8.0706,64.0594 C8.1426,63.9694 8.2156,63.8794 8.2896,63.7924 C8.3616,63.7084 8.4346,63.6274 8.5066,63.5454 C8.6306,63.4084 8.7566,63.2744 8.8846,63.1434 C8.9476,63.0804 9.0096,63.0174 9.0726,62.9564 C9.3306,62.7054 9.5976,62.4694 9.8706,62.2534 C9.9196,62.2154 9.9686,62.1804 10.0176,62.1434 C10.3066,61.9244 10.6006,61.7194 10.9026,61.5454 L110.9306,3.7944 C111.1726,3.6544 111.4096,3.5404 111.6446,3.4394 C111.7186,3.4074 111.7926,3.3784 111.8656,3.3504 C112.0006,3.2974 112.1356,3.2524 112.2676,3.2114 C112.3516,3.1864 112.4366,3.1624 112.5196,3.1414 C112.5976,3.1234 112.6746,3.1064 112.7516,3.0914 C112.8536,3.0734 112.9526,3.0564 113.0516,3.0454 C113.1096,3.0394 113.1666,3.0324 113.2226,3.0284 C113.3466,3.0204 113.4676,3.0174 113.5866,3.0214 C113.6146,3.0224 113.6426,3.0204 113.6696,3.0224 C113.8146,3.0304 113.9526,3.0484 114.0886,3.0754 C114.1226,3.0814 114.1566,3.0904 114.1896,3.0974 C114.2956,3.1224 114.4006,3.1524 114.5006,3.1874 C114.5326,3.1994 114.5666,3.2104 114.5976,3.2214 C114.7266,3.2724 114.8516,3.3304 114.9696,3.3984 L114.9656,3.3964 C114.9676,3.3974 114.9696,3.3984 114.9696,3.3984" id="Fill-25" fill="#D3D3D3" mask="url(#mask-10)"></path>
                                    </g>
                                    <path d="M51.326,101.1816 C53.676,99.8256 55.591,100.9166 55.598,103.6166 L55.6750192,130.3716 C55.682,133.0726 53.779,136.3606 51.43,137.7166 L5.831,164.0436 C3.481,165.4006 1.566,164.3166 1.558,161.6166 L1.48197488,134.8606 C1.474,132.1606 3.378,128.8656 5.727,127.5086 L51.326,101.1816 Z" id="Fill-27" fill="#E5E5E5"></path>
                                    <path d="M52.9461,100.0674 C52.9381,100.0624 52.9301,100.0584 52.9231,100.0534 C52.8531,100.0144 52.7821,99.9794 52.7091,99.9494 C52.6951,99.9434 52.6801,99.9404 52.6671,99.9344 C52.6421,99.9244 52.6191,99.9174 52.5941,99.9094 C52.5571,99.8954 52.5211,99.8804 52.4831,99.8704 C52.4431,99.8584 52.4011,99.8504 52.3611,99.8414 C52.3361,99.8364 52.3101,99.8294 52.2851,99.8244 C52.2711,99.8214 52.2581,99.8174 52.2441,99.8144 C52.1601,99.7994 52.0741,99.7904 51.9861,99.7844 L51.9691,99.7844 C51.9511,99.7834 51.9301,99.7844 51.9111,99.7844 C51.8421,99.780916 51.7741,99.7794 51.7041,99.7824 C51.6811,99.7834 51.6571,99.7884 51.6341,99.7894 C51.5921,99.7924 51.5501,99.7964 51.5081,99.8014 C51.4671,99.8064 51.4271,99.8074 51.3861,99.8134 C51.3521,99.8194 51.3161,99.8304 51.2811,99.8374 C51.2231,99.8474 51.1661,99.8594 51.1071,99.8744 C51.0751,99.8814 51.0451,99.8854 51.0121,99.8934 C50.9811,99.9024 50.9481,99.9174 50.9171,99.9264 C50.8181,99.9564 50.7191,99.9914 50.6181,100.0304 C50.5821,100.0444 50.5481,100.0514 50.5111,100.0664 C50.4911,100.0754 50.4701,100.0884 50.4501,100.0964 C50.2751,100.1724 50.0971,100.2574 49.9171,100.3624 L4.3171,126.6894 C4.0431,126.8474 3.7771,127.0374 3.5171,127.2444 C3.4321,127.3114 3.3531,127.3884 3.2701,127.4614 C3.1451,127.5704 3.0171,127.6714 2.8971,127.7904 C2.8411,127.8444 2.7901,127.9054 2.7351,127.9624 C2.6871,128.0114 2.6401,128.0624 2.5921,128.1134 C2.5401,128.1714 2.4841,128.2254 2.4311,128.2854 C2.3131,128.4214 2.1981,128.5614 2.0861,128.7064 C2.0471,128.7564 2.0091,128.8094 1.9711,128.8624 C1.9511,128.8884 1.9311,128.9154 1.9121,128.9424 C1.8761,128.9924 1.8381,129.0404 1.8021,129.0904 C1.7171,129.2124 1.6341,129.3354 1.5551,129.4604 C1.4791,129.5794 1.4061,129.6994 1.3351,129.8204 C1.3291,129.8314 1.3241,129.8404 1.3181,129.8514 C1.3121,129.8614 1.3061,129.8714 1.3011,129.8804 C1.2451,129.9794 1.1881,130.0794 1.1341,130.1794 C1.0711,130.2994 1.0091,130.4214 0.9511,130.5434 C0.8981,130.6524 0.8481,130.7624 0.8001,130.8734 C0.7971,130.8794 0.7931,130.8864 0.7901,130.8934 C0.7871,130.9004 0.7841,130.9064 0.7811,130.9134 C0.7261,131.0404 0.6741,131.1674 0.6251,131.2964 C0.5731,131.4284 0.5251,131.5634 0.4801,131.6984 C0.4591,131.7634 0.4401,131.8314 0.4201,131.8974 C0.4111,131.9264 0.4011,131.9564 0.3921,131.9854 C0.3791,132.0344 0.3611,132.0834 0.3481,132.1314 C0.3021,132.2954 0.2621,132.4584 0.2281,132.6204 C0.2081,132.7174 0.1951,132.8154 0.1781,132.9124 C0.1691,132.9634 0.1591,133.0154 0.1511,133.0674 C0.1441,133.1144 0.1331,133.1634 0.1271,133.2104 C0.0911,133.4914 0.0721,133.7694 0.073062453,134.0414 L0.1481,160.7974 C0.1521,162.1364 0.6261,163.0784 1.3881,163.5214 L2.7981,164.3404 C2.0351,163.8974 1.5621,162.9564 1.5581,161.6164 L1.4821,134.8604 C1.4811,134.5434 1.5111,134.2164 1.5611,133.8864 C1.5691,133.8354 1.5791,133.7834 1.5881,133.7314 C1.6401,133.4234 1.7111,133.1144 1.8021,132.8044 C1.8111,132.7754 1.8201,132.7454 1.8291,132.7154 C1.9321,132.3804 2.0551,132.0444 2.2001,131.7134 L2.2091,131.6924 C2.3571,131.3544 2.5261,131.0214 2.7121,130.6984 C2.7161,130.6894 2.7211,130.6804 2.7271,130.6714 C2.9091,130.3564 3.1091,130.0524 3.3221,129.7604 C3.3411,129.7344 3.3611,129.7084 3.3811,129.6804 C3.5771,129.4184 3.7861,129.1694 4.0031,128.9324 C4.0501,128.8814 4.0961,128.8314 4.1441,128.7814 C4.3161,128.6024 4.4981,128.4394 4.6801,128.2804 C4.7631,128.2084 4.8421,128.1294 4.9271,128.0634 C5.1861,127.8564 5.4531,127.6674 5.7271,127.5084 L51.3261,101.1814 C51.5081,101.0774 51.6851,100.9924 51.8601,100.9164 C51.9161,100.8914 51.9711,100.8704 52.0271,100.8494 C52.1281,100.8104 52.2281,100.7754 52.3271,100.7464 C52.3901,100.7264 52.4541,100.7084 52.5161,100.6924 C52.5751,100.6784 52.6341,100.6674 52.6911,100.6554 C52.7671,100.6414 52.8421,100.6294 52.9161,100.6214 C52.9591,100.6164 53.0021,100.6114 53.0451,100.6084 C53.1371,100.6014 53.2291,100.6004 53.3191,100.6024 C53.3391,100.6034 53.3601,100.6024 53.3801,100.6034 C53.4881,100.6094 53.5921,100.6244 53.6941,100.6434 C53.7201,100.6484 53.7451,100.6554 53.7701,100.6614 C53.8501,100.6784 53.9281,100.7014 54.0041,100.7284 C54.0281,100.7364 54.0521,100.7444 54.0761,100.7544 C54.1731,100.7924 54.2661,100.8354 54.3551,100.8864 L52.9461,100.0674 Z" id="Fill-29" fill="#D3D3D3"></path>
                                    <path d="M100.7176,32.0693 C108.8326,27.4943 115.4106,31.2433 115.5336,40.5123 L100.7656,49.0383 L100.7176,32.0693 Z" id="Fill-31" fill="#FFFFFF"></path>
                                    <path d="M97.2879,38.0107 L97.3359,54.9797 L112.1029,46.4527 L112.103982,46.6587 C112.1309,56.1527 105.4619,67.7037 97.2059,72.4707 C88.9439,77.2397 82.2309,73.4147 82.2048183,63.9207 C82.1779,54.4357 88.8479,42.8837 97.1089,38.1137 L97.2879,38.0107 Z" id="Fill-33" fill="#FFFFFF"></path>
                                    <polygon id="Fill-35" fill="#EFEFEF" points="30.3104 76.8672 30.3294 83.3892 24.6524 86.6672 24.6334 80.1442"></polygon>
                                    <polygon id="Fill-37" fill="#EFEFEF" points="67.245 71.0557 67.256 75.1347 33.916 94.3847 33.904 90.3057"></polygon>
                                    <polygon id="Fill-39" fill="#EFEFEF" points="70.0418 56.375 70.0538 60.454 33.8788 81.34 33.8668 77.261"></polygon>
                                    <polygon id="Fill-41" fill="#EFEFEF" points="30.3495 90.7266 30.3655 96.4336 24.6895 99.7106 24.6735 94.0026"></polygon>
                                </g>
                                <g transform="translate(46.000000, 121.901000)">
                                    <mask id="mask-12" fill="white">
                                        <use xlink:href="#path-11"></use>
                                    </mask>
                                    <g id="Clip-44"></g>
                                    <path d="M0.9647,1.1699 L0.6557,0.9909 C0.6127,0.9609 0.5687,0.9339 0.5277,0.9079 L0.8357,1.0879 C0.8777,1.1119 0.9207,1.1399 0.9647,1.1699" id="Fill-43" fill="#6E1212" mask="url(#mask-12)"></path>
                                </g>
                                <g transform="translate(33.000000, 138.901000)">
                                    <g>
                                        <mask id="mask-14" fill="white">
                                            <use xlink:href="#path-13"></use>
                                        </mask>
                                        <g id="Clip-46"></g>
                                        <path d="M0.6512,0.8672 L0.3422,0.6872 C0.3732,0.7052 0.4022,0.7212 0.4302,0.7382 L0.7392,0.9172 C0.7102,0.9012 0.6802,0.8842 0.6512,0.8672" id="Fill-45" fill="#831515" mask="url(#mask-14)"></path>
                                    </g>
                                    <g>
                                        <mask id="mask-16" fill="white">
                                            <use xlink:href="#path-15"></use>
                                        </mask>
                                        <g id="Clip-48"></g>
                                        <path d="M0.7391,0.917 L0.4301,0.738 C0.4771,0.765 0.5231,0.789 0.5681,0.813 L0.8771,0.993 C0.8311,0.969 0.7851,0.943 0.7391,0.917" id="Fill-47" fill="#871616" mask="url(#mask-16)"></path>
                                    </g>
                                </g>
                                <g transform="translate(0.000000, 94.901000)">
                                    <path d="M45.9774,25.7275 C46.3694,25.5005 46.7134,25.4055 47.0274,25.3785 C47.3334,25.3635 47.6154,25.4135 47.8724,25.5155 C48.3834,25.7195 48.8264,26.0955 49.2494,26.5725 C50.0964,27.5305 50.8614,28.9045 51.5874,30.2705 C52.1664,31.3615 52.8764,31.6205 53.4584,31.6515 C54.0474,31.6795 54.5334,31.4355 54.5964,31.3985 C55.1594,31.0885 55.5874,31.3555 55.5824434,31.9835 C55.5794,32.6015 55.1394,33.3485 54.6074,33.6565 C54.4024,33.7715 53.6524,34.1645 52.7174,34.1805 C51.7464,34.2065 50.5934,33.7685 49.8024,32.2555 C49.3334,31.3665 48.8584,30.4945 48.3754,29.7735 C47.8944,29.0515 47.4074,28.4735 46.9644,28.1695 C46.6764,27.9695 46.4074,27.8965 46.2354,27.9085 C46.1324,27.9155 46.0684,27.9455 46.0114,27.9705 C45.7814,28.1185 45.6664,28.2135 45.4304,28.5345 C45.2074,28.8535 44.8894,29.4195 44.5144,30.2895 C43.7464,32.0415 42.7444,34.9205 41.2084,39.3485 C40.6504,40.9565 40.1114,42.2975 39.5444,43.4405 C38.9794,44.5815 38.3804,45.5385 37.6984,46.3065 C37.2514,46.8135 36.7604,47.2225 36.2824,47.4985 C35.7264,47.8195 35.1834,47.9635 34.6844,47.9875 C34.1794,48.0075 33.7004,47.9105 33.2254,47.7355 C32.2854,47.3735 31.3364,46.7095 30.2974,45.8615 C29.4974,45.2065 28.7984,44.8685 28.2354,44.7665 C27.6654,44.6625 27.2574,44.7735 26.9694,44.9385 C26.7784,45.0495 26.6244,45.1815 26.4534,45.3765 C26.2874,45.5685 26.1024,45.8295 25.9124,46.1605 C25.5364,46.8175 25.1494,47.7615 24.8134,48.7925 C24.5014,49.7215 24.2294,50.5405 23.9504,51.2895 C23.6704,52.0315 23.3784,52.7145 23.0094,53.3695 C22.7614,53.8055 22.4684,54.2325 22.1364,54.6075 C21.6974,55.1115 21.1994,55.5155 20.6884,55.8105 C19.7374,56.3525 18.7214,56.6085 17.3664,56.8185 C16.7714,56.9115 16.2984,57.0885 15.9354,57.2985 C15.3924,57.6205 15.0924,57.9545 14.8124,58.3805 C14.5394,58.8025 14.3104,59.3545 14.1394,59.9595 C13.7974,61.1565 13.7434,62.4735 13.7454,62.9575 C13.7454,63.0655 13.7494,63.1305 13.7514,63.1525 C13.7794,63.7605 13.3654,64.5365 12.8234,64.8785 C12.2534,65.2085 11.8124,64.9965 11.7864,64.4055 C11.7854,64.3825 11.7794,64.2765 11.7783756,64.0925 C11.7774,63.6165 11.8064,62.6445 12.0134,61.4585 C12.2344,60.2655 12.6324,58.8155 13.5314,57.4015 C14.1234,56.4615 14.9554,55.6015 15.9014,55.0545 C16.5734,54.6665 17.2764,54.4225 18.0434,54.3035 C19.2894,54.1195 20.1514,53.8505 20.6584,53.5575 C20.9634,53.3815 21.1224,53.2385 21.2694,53.0805 C21.4104,52.9115 21.5494,52.7055 21.7274,52.3605 C22.0784,51.6805 22.4904,50.4945 23.0294,48.8535 C23.3274,47.9535 23.6634,47.0685 24.0704,46.2235 C24.4774,45.3785 24.9604,44.5555 25.5854,43.8425 C25.9994,43.3685 26.4714,42.9625 26.9634,42.6795 C27.7424,42.2295 28.5354,42.1025 29.3224,42.2505 C30.1154,42.4025 30.9284,42.8225 31.8134,43.5455 C32.5634,44.1645 33.2554,44.6615 33.8764,44.9935 C34.4984,45.3255 35.0614,45.4775 35.5084,45.4545 C35.8164,45.4385 36.0584,45.3645 36.2754,45.2395 C36.4604,45.1325 36.6394,44.9855 36.8494,44.7465 C37.0604,44.5145 37.3084,44.1725 37.5764,43.7095 C38.1234,42.7765 38.7654,41.3325 39.4444,39.3535 C40.5984,36.0275 41.4554,33.5555 42.1844,31.6715 C42.9144,29.7955 43.4994,28.4805 44.2704,27.3735 C44.7724,26.6585 45.3854,26.0685 45.9774,25.7275" id="Fill-49" fill="#FFFFFF"></path>
                                    <g transform="translate(0.000000, 98.000000)">
                                        <mask id="mask-18" fill="white">
                                            <use xlink:href="#path-17"></use>
                                        </mask>
                                        <g id="Clip-52"></g>
                                        <path d="M9.4725,30.6104 C9.4725,30.6104 0.9095,30.9994 0.1315,21.2684 C-0.6465,11.5384 2.1185,1.7844 6.0115,0.6164 C9.9045,-0.5516 11.4115,3.3774 13.0115,5.6164 C18.0115,12.6164 20.0115,30.6164 9.4725,30.6104" id="Fill-51" fill="#BBBCBA" mask="url(#mask-18)"></path>
                                    </g>
                                    <line x1="10.0116" y1="120.6162" x2="10.2516" y2="135.6162" id="Stroke-53" stroke="#757070" stroke-linecap="round" stroke-linejoin="round"></line>
                                    <path d="M6.5535,123.1885 C6.5535,123.1885 8.2595,126.7135 10.0115,126.6165" id="Stroke-55" stroke="#757070" stroke-linecap="round" stroke-linejoin="round"></path>
                                    <path d="M10.0858,124.4893 C10.2778,124.1873 10.8608,123.4153 12.0318,122.9623" id="Stroke-57" stroke="#757070" stroke-linecap="round" stroke-linejoin="round"></path>
                                    <line x1="216.4207" y1="63.7168" x2="216.8667" y2="91.6158" id="Stroke-59" stroke="#757070" stroke-linecap="round" stroke-linejoin="round"></line>
                                    <path d="M209.9901,68.501 C209.9901,68.501 213.1631,75.058 216.4211,74.877" id="Stroke-61" stroke="#757070" stroke-linecap="round" stroke-linejoin="round"></path>
                                    <path d="M216.5594,70.9209 C216.9164,70.3589 218.0004,68.9229 220.1784,68.0799" id="Stroke-63" stroke="#757070" stroke-linecap="round" stroke-linejoin="round"></path>
                                    <path d="M134.7078,3.7129 C134.7078,3.7129 138.2078,8.2129 137.2078,11.9629 C136.2078,15.7129 145.7078,9.2129 145.7078,9.2129 C145.7078,9.2129 142.7078,0.9629 138.9578,0.2129 C135.2078,-0.5371 134.7078,3.7129 134.7078,3.7129" id="Fill-65" fill="#FFDCB6"></path>
                                </g>
                                <g transform="translate(134.000000, 94.901000)">
                                    <mask id="mask-20" fill="white">
                                        <use xlink:href="#path-19"></use>
                                    </mask>
                                    <g id="Clip-68"></g>
                                    <path d="M7.0116,-0.3838 C7.0116,-0.3838 6.0116,5.6162 1.0116,6.6162 C-3.9884,7.6162 2.0116,1.6162 2.0116,1.6162 L7.0116,-0.3838 Z" id="Fill-67" fill="#CCAF93" mask="url(#mask-20)"></path>
                                </g>
                                <g transform="translate(117.000000, 65.901000)">
                                    <path d="M11.4578,10.7129 C11.4578,10.7129 8.2078,16.2129 9.4578,21.9629 C9.4578,21.9629 6.9578,22.9629 7.4578,24.7129 C7.9578,26.4629 9.7078,26.2129 10.2078,26.2129 C10.2078,26.2129 13.4578,33.7129 17.4578,33.4629 C21.4578,33.2129 23.7078,30.7129 23.9578,28.4629 C24.2078,26.2129 24.9578,15.4629 24.9578,15.4629 L18.4578,10.7129 L11.4578,10.7129 Z" id="Fill-69" fill="#FFDCB6"></path>
                                    <path d="M1.9579,4.4629 C1.9579,4.4629 5.2079,2.7129 8.7079,1.7129 C12.6719,0.5799 28.7079,-3.5371 31.7079,8.7129 C34.7079,20.9629 27.4579,28.2129 23.4579,29.7129 C23.4579,29.7129 22.4579,27.9629 22.2079,21.7129 C21.9579,19.4629 23.9769,21.2099 23.2079,16.2129 C22.7079,12.9629 18.9579,14.7129 18.4579,16.9629 C18.4579,16.9629 13.8839,14.6169 9.9579,10.2129 C5.9559,5.7229 3.2019,5.6419 1.9579,4.4629" id="Fill-71" fill="#191F35"></path>
                                    <path d="M20.9578,36.7129 C20.9578,36.7129 7.4378,40.6549 4.9578,52.4629 C-1.2922,82.2129 0.4488,106.0899 0.7078,109.9629 C0.9578,113.7129 3.4578,110.7129 10.2078,112.9629 C16.9578,115.2129 49.9578,116.4629 50.7078,111.9629 C51.4578,107.4629 56.4578,67.2129 48.2078,58.9629 C48.2078,58.9629 50.7068,57.6159 53.0118,57.6159 C55.0118,57.6159 44.4578,31.9629 26.9578,35.4629 L20.9578,36.7129 Z" id="Fill-73" fill="#FFBA2A"></path>
                                </g>
                                <g transform="translate(117.000000, 100.901000)">
                                    <mask id="mask-22" fill="white">
                                        <use xlink:href="#path-21"></use>
                                    </mask>
                                    <g id="Clip-76"></g>
                                    <path d="M11.6434,26.2549 C11.6434,26.2549 6.3684,38.5909 1.3764,38.8879 C-3.6146,39.1859 4.8344,29.6659 4.8344,29.6659 L11.6434,26.2549 Z" id="Fill-75" fill="#E57529" mask="url(#mask-22)"></path>
                                </g>
                                <g transform="translate(83.000000, 98.901000)" fill="#FFDCB6">
                                    <path d="M45.4578,28.2129 C45.4578,28.2129 28.9578,43.4629 20.2078,34.9629 C11.4578,26.4629 5.7078,11.4629 5.7078,11.4629 L8.9578,8.9629 C8.9578,8.9629 17.2078,24.7129 24.7078,24.4629 C32.2078,24.2129 40.9578,16.2129 40.9578,16.2129 L45.4578,28.2129 Z" id="Fill-77"></path>
                                    <path d="M5.7079,3.4629 C5.7079,3.4629 4.9579,0.4629 6.9579,0.7129 C8.5259,0.9079 10.6159,8.7009 8.8599,10.1459 C7.1039,11.5889 4.5409,12.9649 2.2079,8.7129 C0.1599,4.9809 0.2079,3.7129 1.2079,2.4629 C2.7109,0.5829 5.7079,3.4629 5.7079,3.4629" id="Fill-79"></path>
                                </g>
                            </g>
                        </g>
                    </g>
                </g>
            </g>
        </g>
    </g>
</svg>