<?xml version="1.0" encoding="UTF-8"?>
<svg width="176px" height="266px" viewBox="0 0 176 266" version="1.1" xmlns="http://www.w3.org/2000/svg" xmlns:xlink="http://www.w3.org/1999/xlink">
    <!-- Generator: Sketch 61.2 (89653) - https://sketch.com -->
    <title>无历史版本</title>
    <desc>Created with Sketch.</desc>
    <defs>
        <path d="M3.916,1.862 C-0.883,4.261 1.517,13.861 1.517,13.861 L1.517,13.861 C1.517,13.861 10.317,13.861 9.517,10.661 L9.517,10.661 C8.716,7.461 9.517,2.661 9.517,2.661 L9.517,2.661 C9.517,2.661 9.094,0.969 7.016,0.969 L7.016,0.969 C6.237,0.969 5.225,1.207 3.916,1.862 L3.916,1.862 Z" id="path-1"></path>
    </defs>
    <g id="Data-Display数据展示" stroke="none" stroke-width="1" fill="none" fill-rule="evenodd">
        <g id="空状态" transform="translate(-2015.000000, -1460.000000)">
            <g id="编组-13" transform="translate(166.000000, 580.000000)">
                <g id="空页面" transform="translate(4.000000, 757.000000)">
                    <g id="插图" transform="translate(0.000000, 105.000000)">
                        <g id="无历史版本" transform="translate(1845.000000, 17.000000)">
                            <g id="编组">
                                <g transform="translate(0.000000, 0.884000)">
                                    <path d="M153.8579,110.6162 L63.3129,110.6162 C62.0869,110.6162 61.0859,109.6142 61.0859,108.3882 L61.0859,2.3442 C61.0859,1.1182 62.0869,0.1162 63.3129,0.1162 L153.8579,0.1162 C155.0839,0.1162 156.0859,1.1182 156.0859,2.3442 L156.0859,108.3882 C156.0859,109.6142 155.0839,110.6162 153.8579,110.6162" id="Fill-2" fill="#D3D1C7"></path>
                                    <path d="M121.4624,253.7383 C121.4624,253.7383 122.4624,259.3383 125.2624,259.3383 C128.0634,259.3383 130.6624,260.5383 130.4624,262.7383 C130.2624,264.9373 127.0634,264.7383 121.8624,264.5383 C116.6624,264.3383 115.2624,264.7383 115.2624,262.7383 C115.2624,260.9263 116.4624,258.5383 116.6624,257.1373 C116.8624,255.7383 117.0634,252.3383 117.0634,252.3383 L121.4624,253.7383 Z" id="Fill-3" fill="#7F5916"></path>
                                    <path d="M89.6626,255.3379 C89.6626,255.3379 90.8626,259.9379 93.0626,260.5379 C95.2626,261.1379 98.2626,260.9379 98.8626,262.9379 C99.5546,265.2449 96.6626,266.3379 90.6626,265.9379 C84.6626,265.5379 83.2626,266.1379 83.2626,264.3379 C83.2626,262.4409 85.2626,256.7379 85.2626,255.7379 C85.2626,254.7379 89.6626,255.3379 89.6626,255.3379" id="Fill-4" fill="#7F5916"></path>
                                    <path d="M70.5854,162.6162 C70.5854,162.6162 71.3884,183.0232 70.9164,188.6612 C70.5854,192.6162 69.5854,193.6162 70.9164,195.0602 C72.4494,196.7242 73.7854,195.8162 74.5854,192.6162 C75.3854,189.4162 75.4054,181.7492 75.7164,180.6612 C76.5854,177.6162 70.5854,162.6162 70.5854,162.6162" id="Fill-5" fill="#FFDCB6"></path>
                                    <path d="M140.5854,119.6162 C140.5854,119.6162 149.5854,109.6162 153.0974,103.2472 C155.6884,98.5472 153.5364,98.2662 153.5364,98.2662 C151.4564,99.0862 150.1324,101.2002 145.5854,106.6162 C141.9664,110.9272 134.4744,115.9682 134.5854,115.6162 L140.5854,119.6162 Z" id="Fill-6" fill="#FFDCB6"></path>
                                    <path d="M79.7163,185.4609 C80.5173,186.2609 81.3173,222.2609 82.1163,230.2609 C82.9163,238.2609 86.1163,251.8609 85.3173,255.0609 C84.5173,258.2609 90.5853,256.6159 90.5853,256.6159 C90.5853,256.6159 90.5853,251.6159 90.9163,245.4609 C91.2713,238.8729 96.5173,215.8609 97.3173,207.8609 C100.5173,207.8609 111.5973,240.0539 114.9163,250.2609 C116.4213,254.8889 116.5173,255.0609 120.5173,254.2609 C123.6543,253.6339 119.7163,242.2609 118.9163,231.0609 C118.1163,219.8609 118.1163,217.4609 118.9163,207.8609 C119.7163,198.2609 119.7163,186.2609 118.1163,184.6609 C116.5173,183.0609 79.7163,185.4609 79.7163,185.4609" id="Fill-7" fill="#1452CC"></path>
                                    <path d="M20.4956,207.1055 C20.4956,207.1055 14.4326,207.3805 13.8816,200.4905 C13.3296,193.6005 15.2886,186.6935 18.0446,185.8665 C20.8016,185.0395 21.8686,187.8215 23.0016,189.4075 C26.5416,194.3635 27.9586,207.1095 20.4956,207.1055" id="Fill-8" fill="#A4A5A4"></path>
                                    <line x1="19.8364" y1="204.3486" x2="19.8364" y2="212.0656" id="Stroke-9" stroke="#757070" stroke-width="0.428" stroke-linecap="round" stroke-linejoin="round"></line>
                                    <path d="M10.4067,213.1582 C10.4067,213.1582 0.9997,213.5862 0.1447,202.8952 C-0.7103,192.2062 2.3287,181.4902 6.6037,180.2082 C10.8807,178.9252 12.5367,183.2402 14.2947,185.7002 C19.7867,193.3902 21.9837,213.1642 10.4067,213.1582" id="Fill-10" fill="#BBBCBA"></path>
                                    <line x1="10.9985" y1="204.376" x2="11.2625" y2="220.855" id="Stroke-11" stroke="#757070" stroke-width="0.428" stroke-linecap="round" stroke-linejoin="round"></line>
                                    <path d="M7.1997,207.2012 C7.1997,207.2012 9.0747,211.0742 10.9987,210.9682" id="Stroke-12" stroke="#757070" stroke-width="0.428" stroke-linecap="round" stroke-linejoin="round"></path>
                                    <path d="M11.0796,208.6309 C11.2916,208.2989 11.9316,207.4509 13.2186,206.9529" id="Stroke-13" stroke="#757070" stroke-width="0.428" stroke-linecap="round" stroke-linejoin="round"></path>
                                    <path d="M80.4604,22.6162 C80.4604,25.1012 78.4454,27.1162 75.9604,27.1162 C73.4754,27.1162 71.4604,25.1012 71.4604,22.6162 C71.4604,20.1312 73.4754,18.1162 75.9604,18.1162 C78.4454,18.1162 80.4604,20.1312 80.4604,22.6162" id="Fill-14" fill="#BCB8A2"></path>
                                    <path d="M80.4604,46.1162 C80.4604,48.6012 78.4454,50.6162 75.9604,50.6162 C73.4754,50.6162 71.4604,48.6012 71.4604,46.1162 C71.4604,43.6312 73.4754,41.6162 75.9604,41.6162 C78.4454,41.6162 80.4604,43.6312 80.4604,46.1162" id="Fill-15" fill="#BCB8A2"></path>
                                    <path d="M80.4604,69.6162 C80.4604,72.1012 78.4454,74.1162 75.9604,74.1162 C73.4754,74.1162 71.4604,72.1012 71.4604,69.6162 C71.4604,67.1312 73.4754,65.1162 75.9604,65.1162 C78.4454,65.1162 80.4604,67.1312 80.4604,69.6162" id="Fill-16" fill="#BCB8A2"></path>
                                    <line x1="75.9604" y1="29.6162" x2="75.9604" y2="30.6162" id="Stroke-17" stroke="#BCB8A2" stroke-linecap="round" stroke-linejoin="round"></line>
                                    <line x1="75.9604" y1="34.0166" x2="75.9604" y2="37.4156" id="Stroke-18" stroke="#BCB8A2" stroke-linecap="round" stroke-linejoin="round" stroke-dasharray="1.7,3.4"></line>
                                    <line x1="75.9604" y1="39.1162" x2="75.9604" y2="40.1162" id="Stroke-19" stroke="#BCB8A2" stroke-linecap="round" stroke-linejoin="round"></line>
                                    <line x1="75.9604" y1="52.6162" x2="75.9604" y2="53.6162" id="Stroke-20" stroke="#BCB8A2" stroke-linecap="round" stroke-linejoin="round"></line>
                                    <line x1="75.9604" y1="57.0166" x2="75.9604" y2="60.4156" id="Stroke-21" stroke="#BCB8A2" stroke-linecap="round" stroke-linejoin="round" stroke-dasharray="1.7,3.4"></line>
                                    <line x1="75.9604" y1="62.1162" x2="75.9604" y2="63.1162" id="Stroke-22" stroke="#BCB8A2" stroke-linecap="round" stroke-linejoin="round"></line>
                                    <polygon id="Fill-23" fill="#DBDBDB" points="85.585 25.116 120.585 25.116 120.585 20.116 85.585 20.116"></polygon>
                                    <polygon id="Fill-24" fill="#DBDBDB" points="85.585 47.616 120.585 47.616 120.585 42.616 85.585 42.616"></polygon>
                                    <polygon id="Fill-25" fill="#DBDBDB" points="85.585 68.616 105.585 68.616 105.585 63.616 85.585 63.616"></polygon>
                                    <path d="M155.9741,41.6162 C145.7731,41.6162 137.4741,33.3172 137.4741,23.1162 C137.4741,12.9152 145.7731,4.6162 155.9741,4.6162 C166.1751,4.6162 174.4741,12.9152 174.4741,23.1162 C174.4741,33.3172 166.1751,41.6162 155.9741,41.6162" id="Fill-26" fill="#DBDBDB"></path>
                                    <path d="M155.9741,3.6162 C145.2221,3.6162 136.4741,12.3642 136.4741,23.1162 C136.4741,33.8682 145.2221,42.6162 155.9741,42.6162 C166.7271,42.6162 175.4741,33.8682 175.4741,23.1162 C175.4741,12.3642 166.7271,3.6162 155.9741,3.6162 M155.9741,5.6162 C165.6391,5.6162 173.4741,13.4512 173.4741,23.1162 C173.4741,32.7812 165.6391,40.6162 155.9741,40.6162 C146.3091,40.6162 138.4741,32.7812 138.4741,23.1162 C138.4741,13.4512 146.3091,5.6162 155.9741,5.6162" id="Fill-27" fill="#FFFFFF"></path>
                                    <line x1="155.9741" y1="5.6162" x2="155.9741" y2="7.6162" id="Stroke-28" stroke="#A59960" stroke-linecap="round"></line>
                                    <line x1="155.9741" y1="38.1162" x2="155.9741" y2="40.1162" id="Stroke-29" stroke="#A59960" stroke-linecap="round"></line>
                                    <line x1="168.1723" y1="35.0635" x2="165.3433" y2="32.2355" id="Stroke-30" stroke="#A59960" stroke-linecap="round"></line>
                                    <line x1="146.605" y1="13.4971" x2="143.777" y2="10.6691" id="Stroke-31" stroke="#A59960" stroke-linecap="round"></line>
                                    <line x1="143.7768" y1="35.0635" x2="146.6048" y2="32.2355" id="Stroke-32" stroke="#A59960" stroke-linecap="round"></line>
                                    <line x1="165.3432" y1="13.4971" x2="168.1722" y2="10.6691" id="Stroke-33" stroke="#A59960" stroke-linecap="round"></line>
                                    <line x1="173.2241" y1="22.8662" x2="171.2241" y2="22.8662" id="Stroke-34" stroke="#A59960" stroke-linecap="round"></line>
                                    <line x1="140.7241" y1="22.8662" x2="138.7241" y2="22.8662" id="Stroke-35" stroke="#A59960" stroke-linecap="round"></line>
                                    <polyline id="Stroke-36" stroke="#A59960" stroke-linecap="round" points="156.0854 19.1162 156.0854 23.1162 160.0854 27.1162"></polyline>
                                    <path d="M152.9927,96.3379 C152.9927,96.3379 153.5927,93.9379 151.9927,94.1379 C150.7367,94.2949 149.0647,100.5289 150.4707,101.6849 C151.8747,102.8389 153.9267,103.9409 155.7927,100.5379 C157.4297,97.5529 157.3917,96.5379 156.5927,95.5379 C155.3887,94.0339 152.9927,96.3379 152.9927,96.3379" id="Fill-37" fill="#FFDCB6"></path>
                                    <path d="M104.5171,108.6611 C104.5171,108.6611 103.7161,113.4611 104.5171,116.6611 C105.3171,119.8611 96.5171,119.8611 96.5171,119.8611 C96.5171,119.8611 94.1171,110.2611 98.9161,107.8611 C103.7161,105.4611 104.5171,108.6611 104.5171,108.6611" id="Fill-38" fill="#FFDCB6"></path>
                                    <path d="M77.3169,132.6611 C77.3169,132.6611 91.6799,114.8781 113.3169,115.8611 C130.9169,116.6611 131.7249,117.4761 135.5859,113.6161 C137.1849,112.0161 138.4549,111.7711 142.5859,117.6161 C143.3849,119.2161 143.1849,121.6161 137.5859,125.6161 C131.9859,129.6161 125.3169,131.0601 125.3169,131.0601 C125.3169,131.0601 116.5619,163.9541 120.5859,184.6161 C121.2159,187.8531 117.7859,187.6161 114.5859,187.6161 C111.3849,187.6161 84.5169,189.4611 77.3169,187.8611 C70.1169,186.2611 66.9169,145.4611 77.3169,132.6611" id="Fill-39" fill="#FFBA2A"></path>
                                </g>
                                <g transform="translate(95.000000, 106.884000)">
                                    <mask id="mask-2" fill="white">
                                        <use xlink:href="#path-1"></use>
                                    </mask>
                                    <g id="Clip-41"></g>
                                    <path d="M10.5854,2.6162 C10.5854,2.6162 5.5854,8.6162 -0.4146,8.6162 L-0.4146,1.6162 C-0.4146,0.6162 9.5854,1.6162 9.5854,1.6162 L10.5854,2.6162 Z" id="Fill-40" fill="#CCAF93" mask="url(#mask-2)"></path>
                                </g>
                                <g transform="translate(83.000000, 82.884000)">
                                    <path d="M15.9165,11.4609 C15.9165,11.4609 19.9165,13.8609 20.7165,15.4609 C22.3165,14.6609 23.9165,14.6609 23.9165,16.2609 C23.9165,17.8609 23.1165,18.6609 23.1165,18.6609 C23.1165,18.6609 27.1165,21.8609 25.5175,25.0609 C23.9165,28.2609 17.5175,29.0609 13.5175,26.6609 C9.5175,24.2609 6.3165,17.8609 6.3165,17.8609 L15.9165,11.4609 Z" id="Fill-42" fill="#FFDCB6"></path>
                                    <path d="M19.5171,0.6611 C19.5171,0.6611 14.7161,3.8611 12.3171,4.6611 C9.9161,5.4611 -1.6829,11.4611 1.5171,22.6611 C4.7161,33.8611 14.3171,31.4611 15.1171,27.4611 C15.9161,23.4611 13.5171,22.6611 13.5171,22.6611 C13.5171,22.6611 13.5901,24.9451 11.1171,23.4611 C7.1171,21.0601 9.5851,18.6161 11.5851,19.6161 C12.8501,20.2491 16.7161,16.2611 17.5171,12.2611 C18.3171,8.2611 23.1171,5.8611 19.5171,0.6611" id="Fill-44" fill="#191F35"></path>
                                </g>
                            </g>
                        </g>
                    </g>
                </g>
            </g>
        </g>
    </g>
</svg>