<?xml version="1.0" encoding="UTF-8"?>
<svg width="358px" height="189px" viewBox="0 0 358 189" version="1.1" xmlns="http://www.w3.org/2000/svg" xmlns:xlink="http://www.w3.org/1999/xlink">
    <!-- Generator: Sketch 61.2 (89653) - https://sketch.com -->
    <title>无访问记录</title>
    <desc>Created with Sketch.</desc>
    <defs>
        <path d="M191.723,0.49 C161.532,0.497 144.299,19.455 132.143,38.414 L132.143,38.414 C116.996,62.036 109.723,85.658 95.051,72.616 L95.051,72.616 C68.051,48.616 40.051,59.616 19.051,80.617 L19.051,80.617 C-1.949,101.616 0.051,118.616 0.051,118.616 L0.051,118.616 L0.051,167.616 L164.051,170.617 L358.051,170.617 C358.051,170.617 337.196,46.616 306.051,46.616 L306.051,46.616 C282.051,46.616 286.051,78.616 264.051,77.616 L264.051,77.616 C228.86,76.017 248.051,3.616 196.051,0.616 L196.051,0.616 C194.588,0.532 193.156,0.49 191.749,0.49 L191.749,0.49 L191.723,0.49 Z" id="path-1"></path>
        <linearGradient x1="49.9181828%" y1="58.3142754%" x2="47.6835861%" y2="-45.9489844%" id="linearGradient-3">
            <stop stop-color="#FFFFFF" offset="0%"></stop>
            <stop stop-color="#231714" offset="100%"></stop>
        </linearGradient>
        <path d="M2.052,15.616 C6.051,16.616 8.051,12.616 8.051,12.616 L8.051,12.616 L8.051,4.616 L2.052,0.617 C2.052,0.617 -1.949,14.616 2.052,15.616 L2.052,15.616 Z" id="path-4"></path>
    </defs>
    <g id="Data-Display数据展示" stroke="none" stroke-width="1" fill="none" fill-rule="evenodd">
        <g id="空状态" transform="translate(-1491.000000, -1507.000000)">
            <g id="编组-13" transform="translate(166.000000, 580.000000)">
                <g id="空页面" transform="translate(4.000000, 757.000000)">
                    <g id="插图" transform="translate(0.000000, 105.000000)">
                        <g id="无访问记录" transform="translate(1321.000000, 64.000000)">
                            <g id="编组">
                                <g transform="translate(92.000000, 25.510000)" fill="#FFDCB6" id="Fill-2">
                                    <path d="M2.0512,3.6162 C2.0512,3.6162 -0.0398,0.6162 2.0512,0.6162 C3.0512,0.6162 5.0512,2.6162 5.0512,2.6162 C5.0512,2.6162 9.9162,-1.4158 12.0072,1.7202 C14.1032,4.8622 13.0522,7.9902 7.8252,9.0362 C2.5982,10.0812 3.0512,10.6162 3.0512,10.6162 C3.0512,10.6162 1.4372,9.5532 1.0512,8.6162 C0.2932,6.7732 0.6652,4.3082 2.0512,3.6162"></path>
                                </g>
                                <g transform="translate(0.000000, 0.510000)">
                                    <mask id="mask-2" fill="white">
                                        <use xlink:href="#path-1"></use>
                                    </mask>
                                    <g id="Clip-4"></g>
                                    <path d="M191.7232,0 C161.5322,0.007 144.2992,18.965 132.1432,37.924 L132.1432,37.924 C116.9962,61.546 109.7232,85.168 95.0512,72.126 L95.0512,72.126 C68.0512,48.126 40.0512,59.126 19.0512,80.127 L19.0512,80.127 C-1.9488,101.126 0.0512,118.126 0.0512,118.126 L0.0512,118.126 L0.0512,167.126 L164.0512,170.127 L358.0512,170.127 C358.0512,170.127 337.1962,46.126 306.0512,46.126 L306.0512,46.126 C282.0512,46.126 286.0512,78.126 264.0512,77.126 L264.0512,77.126 C228.8602,75.527 248.0512,3.126 196.0512,0.126 L196.0512,0.126 C194.5882,0.042 193.1562,0 191.7492,0 L191.7492,0 L191.7232,0 Z" id="Fill-3" fill="url(#linearGradient-3)" mask="url(#mask-2)"></path>
                                </g>
                                <g transform="translate(43.000000, 15.510000)">
                                    <path d="M11.9916,77.7861 C11.9916,77.7861 14.9576,76.9111 14.7916,78.9201 C14.6616,80.4951 6.9626,82.9101 5.4466,81.2161 C3.9306,79.5211 2.4486,77.0171 6.5996,74.5091 C10.2426,72.3071 11.5126,72.3021 12.8026,73.2481 C14.7436,74.6721 11.9916,77.7861 11.9916,77.7861" id="Fill-5" fill="#FFDCB6"></path>
                                    <path d="M15.0512,34.6162 C15.0512,34.6162 4.0512,47.6162 1.0512,63.6162 C-1.9488,79.6162 6.0512,81.6162 6.0512,81.6162 C6.0512,81.6162 13.0512,81.6162 7.0512,73.6162 C3.9912,69.5372 8.0512,55.6162 13.0512,52.6162 C18.0512,49.6162 15.0512,34.6162 15.0512,34.6162" id="Fill-7" fill="#FFDCB6"></path>
                                    <path d="M19.0512,161.6162 C19.0512,161.6162 16.8512,165.2162 16.0512,167.6162 C14.0512,173.6162 16.8772,173.6162 19.2772,173.6162 L34.8772,173.6162 C34.8772,173.6162 36.2002,172.2522 34.8772,170.4162 C34.4552,169.8312 33.2772,168.8162 31.6772,168.8162 C30.0772,168.8162 25.2972,168.8212 26.0772,165.6162 C27.0512,161.6162 21.2772,161.6162 21.2772,161.6162 L19.0512,161.6162 Z" id="Fill-9" fill="#7F5916"></path>
                                    <path d="M58.7319,124.334 C58.7319,124.334 56.9229,130.683 56.4789,133.173 C55.4649,138.853 60.1849,137.666 62.3839,136.706 C66.7839,134.786 74.8489,131.267 78.5159,129.667 C78.5159,129.667 79.1829,127.888 77.2359,126.734 C76.6159,126.367 75.1289,125.908 73.6629,126.548 C72.1969,127.188 67.7969,129.107 67.2509,125.855 C66.7039,122.602 61.2519,124.107 61.2519,124.107 L58.7319,124.334 Z" id="Fill-11" fill="#7F5916"></path>
                                    <path d="M32.0512,23.6162 L32.0512,31.6162 C32.0512,31.6162 30.0512,35.6162 26.0512,34.6162 C22.0512,33.6162 26.0512,19.6162 26.0512,19.6162 L32.0512,23.6162 Z" id="Fill-13" fill="#FFDCB6"></path>
                                    <path d="M16.0512,81.6162 C16.0512,81.6162 7.1982,121.2082 18.0512,162.6162 C19.0512,166.1162 25.0512,165.6162 25.0512,163.6162 C25.0512,161.6162 24.0512,136.6162 27.0512,131.6162 C30.9692,125.0862 33.0512,107.6162 32.0512,102.6162 C39.1982,105.2082 49.4042,100.0242 52.4042,96.5242 C52.4042,96.5242 56.5512,124.1162 58.0512,125.6162 C59.5512,127.1162 62.0512,125.6162 65.0512,124.6162 C66.7752,124.0422 66.0512,120.6162 65.0512,115.6162 C64.5612,113.1652 65.0512,96.6162 66.0512,89.6162 C66.7222,84.9212 69.0512,75.1162 62.0512,75.6162 C55.0512,76.1162 36.4042,81.5242 36.4042,81.5242 L16.0512,81.6162 Z" id="Fill-15" fill="#1452CC"></path>
                                    <path d="M20.0512,31.6162 C20.0512,31.6162 28.0512,34.6162 34.0512,28.6162 C34.0512,28.6162 47.0512,30.6162 52.0512,31.6162 C54.0512,33.6162 59.0512,47.6162 57.0512,49.6162 C55.0512,51.6162 48.0512,49.6162 48.0512,49.6162 C48.0512,49.6162 59.0512,75.6162 55.0512,79.6162 C51.0512,83.6162 29.0512,91.6162 13.0512,85.6162 C6.0512,82.6162 6.0512,32.6162 20.0512,31.6162" id="Fill-17" fill="#FFBA2A"></path>
                                    <path d="M51.0512,34.6162 L57.0512,34.6162 C59.0512,34.6162 55.7382,22.4602 52.0512,20.6162 C50.0512,19.6162 50.8892,16.6162 54.0512,16.6162 C56.0512,16.6162 58.7762,17.9162 60.0512,19.6162 C63.0512,23.6162 71.0512,37.6162 69.0512,45.6162 C67.0512,53.6162 55.0512,46.6162 55.0512,46.6162 L51.0512,34.6162 Z" id="Fill-19" fill="#FFDCB6"></path>
                                    <path d="M48.0248,15.3408 L67.9338,8.9228 C67.9338,8.9228 68.1498,10.8678 68.1238,11.8678 C68.0968,12.8678 69.4488,14.7288 69.4488,14.7288 L48.9198,19.3648 L48.0248,15.3408 Z" id="Fill-21" fill="#2AC6CC"></path>
                                    <path d="M270.0512,10.916 C270.0512,16.715 264.6512,29.816 260.4512,29.816 C256.2512,29.816 249.0512,16.715 249.0512,10.916 C249.0512,5.117 253.7522,0.416 259.5512,0.416 C265.3502,0.416 270.0512,5.117 270.0512,10.916" id="Fill-23" fill="#D3BCA5"></path>
                                    <path d="M264.8012,10.916 C264.8012,13.815 262.4502,16.166 259.5512,16.166 C256.6522,16.166 254.3012,13.815 254.3012,10.916 C254.3012,8.017 256.6522,5.666 259.5512,5.666 C262.4502,5.666 264.8012,8.017 264.8012,10.916" id="Fill-25" fill="#EFE5DA"></path>
                                    <path d="M260.3959,37.1162 C260.3959,37.1162 260.4609,37.9422 260.5169,39.3522" id="Stroke-27" stroke="#D3BCA5"></path>
                                    <path d="M260.5629,46.0586 C260.2769,57.5266 257.9029,75.8946 245.5889,75.4036 C213.2269,74.1116 178.5979,70.8986 181.0509,97.6166 C182.6359,114.8786 185.3479,111.7196 242.0229,110.1166 C295.0509,108.6166 302.0509,112.6166 302.0509,131.6166 C302.0509,154.9116 149.1939,145.7216 86.5329,144.4326" id="Stroke-29" stroke="#D3BCA5" stroke-dasharray="4.471,6.706"></path>
                                    <path d="M83.1762,144.3701 C82.4142,144.3571 81.6682,144.3461 80.9382,144.3361" id="Stroke-31" stroke="#D3BCA5"></path>
                                    <path d="M85.0512,143.6162 C85.0512,150.2432 79.6782,155.6162 73.0512,155.6162 C66.4242,155.6162 61.0512,150.2432 61.0512,143.6162 C61.0512,135.6162 67.0512,134.6162 73.0512,131.6162 C78.9792,128.6522 85.0512,136.9892 85.0512,143.6162" id="Fill-33" fill="#2AC6CC"></path>
                                    <path d="M48.9037,16.9912 C49.2577,18.3342 49.3317,19.4782 49.0697,19.5482 C48.8067,19.6172 48.3067,18.5852 47.9527,17.2422 C47.5977,15.8992 47.5237,14.7552 47.7867,14.6852 C48.0497,14.6172 48.5497,15.6492 48.9037,16.9912" id="Fill-35" fill="#2AC6CC"></path>
                                    <polygon id="Fill-37" fill="#2AC6CC" points="65.1498 16.4561 63.1638 10.1511 66.3508 7.0681 69.5288 17.1551"></polygon>
                                    <path d="M65.3901,16.54 C65.8721,16.389 65.7971,14.789 65.2241,12.968 C64.6501,11.146 63.7941,9.793 63.3121,9.945 C62.8291,10.097 62.9041,11.696 63.4781,13.518 C64.0521,15.339 64.9081,16.692 65.3901,16.54" id="Fill-39" fill="#2AC6CC"></path>
                                    <path d="M69.5287,17.1553 C68.8327,17.3753 67.5557,15.2953 66.6787,12.5093 C65.8007,9.7233 65.6537,7.2883 66.3507,7.0683 C67.0477,6.8483 68.3227,8.9283 69.2007,11.7153 C70.0787,14.5003 70.2247,16.9363 69.5287,17.1553" id="Fill-41" fill="#23A5A5"></path>
                                    <path d="M55.0512,12.6162 C55.0512,12.6162 56.0512,14.6162 57.0512,14.6162 C58.0512,14.6162 58.0512,12.6162 58.0512,12.6162 C58.0512,12.6162 58.0512,13.6162 59.0512,13.6162 C60.0512,13.6162 60.0512,11.6162 60.0512,11.6162 L58.5842,10.6992 L55.0512,12.6162 Z" id="Fill-43" fill="#FFDCB6"></path>
                                    <path d="M31.6635,101.9795 L31.6625,101.9795 C31.3725,101.8855 29.7635,101.1025 28.4695,99.9725 C27.1405,98.8845 26.1675,97.5395 26.0985,97.5875 C26.0005,97.6345 26.8305,99.0985 28.1085,100.3225 C29.3435,101.5885 31.0055,102.5125 31.3405,102.6345 L31.3515,102.6405 C31.3565,102.6435 31.3715,102.6505 31.3925,102.6605 L31.3935,102.6605 C31.6675,102.8315 33.4605,103.5085 35.2555,103.5905 C37.0495,103.7085 38.7065,103.2785 38.6855,103.2085 C38.6675,103.0885 37.0235,103.3295 35.3335,103.0945 C33.6375,102.8905 31.9925,102.1925 31.7125,102.0035 L31.7025,101.9975 C31.6965,101.9955 31.6835,101.9885 31.6635,101.9795" id="Fill-45" fill="#DCE9FF"></path>
                                </g>
                                <g transform="translate(67.000000, 34.510000)">
                                    <mask id="mask-5" fill="white">
                                        <use xlink:href="#path-4"></use>
                                    </mask>
                                    <g id="Clip-48"></g>
                                    <path d="M-0.9488,10.6162 C-0.9488,10.6162 9.0512,10.6162 9.0512,6.6162 C9.0512,2.6162 5.0512,3.6162 5.0512,3.6162 L1.0512,5.6162 L-1.9488,9.6162 L-0.9488,10.6162 Z" id="Fill-47" fill="#CCAF93" mask="url(#mask-5)"></path>
                                </g>
                                <g transform="translate(54.000000, 8.510000)">
                                    <path d="M20.0512,11.6162 C20.0512,11.6162 23.9702,13.3102 25.2542,19.0532 C25.2542,19.0532 27.9432,18.9092 28.2252,20.7072 C28.5072,22.5052 26.8152,23.0132 26.3612,23.2242 C26.3612,23.2242 28.0892,33.7882 22.8322,34.8512 C19.0512,35.6162 17.0512,35.6162 13.0512,32.6162 C12.4572,32.1712 11.9342,31.4812 11.1212,29.7502 C10.7592,28.9752 8.4482,29.4122 8.0512,28.6162 C6.0512,24.6162 9.0842,25.5752 9.0002,25.1242 C8.6072,23.0212 8.3082,22.4872 8.0512,21.6162 C7.4472,19.5672 8.0512,15.6162 11.0512,13.6162 C17.0512,9.6162 20.0512,11.6162 20.0512,11.6162" id="Fill-49" fill="#FFDCB6"></path>
                                    <path d="M15.0512,15.6162 C15.0512,15.6162 24.0512,12.6162 25.0512,6.6162 C26.0512,0.6162 22.0512,-0.3838 18.0512,0.6162 C14.0512,1.6162 4.0512,4.6162 2.0512,11.6162 C0.4032,17.3862 -0.9488,30.6162 4.0512,33.6162 C9.0512,36.6162 12.0512,31.6162 12.0512,31.6162 C12.0512,31.6162 11.0512,30.4272 11.2532,27.6162 C11.3212,26.6812 9.2992,24.6062 9.0512,23.6162 C8.0512,19.6162 11.8762,22.1102 12.1342,20.9202 C12.7252,18.1922 13.6392,15.9702 15.0512,15.6162" id="Fill-51" fill="#191F35"></path>
                                </g>
                            </g>
                        </g>
                    </g>
                </g>
            </g>
        </g>
    </g>
</svg>