<?xml version="1.0" encoding="UTF-8"?>
<svg width="402px" height="215px" viewBox="0 0 402 215" version="1.1" xmlns="http://www.w3.org/2000/svg" xmlns:xlink="http://www.w3.org/1999/xlink">
    <!-- Generator: Sketch 61.2 (89653) - https://sketch.com -->
    <title>搜索为空</title>
    <desc>Created with Sketch.</desc>
    <defs>
        <path d="M239.688,0.504 C219.946,0.571 198.053,9.74 183.072,25.574 L183.072,25.574 C166,43.616 151.711,57.494 137.711,50.774 L137.711,50.774 C84.511,22.215 63.849,53.247 53,68.617 L53,68.617 C17,119.616 0,197.616 0,197.616 L0,197.616 C0,197.616 336.511,235.574 356.671,168.934 L356.671,168.934 C376.831,102.294 312.64,92.506 305.711,83.815 L305.711,83.815 C292,66.616 295.28,36.017 274,13.616 L274,13.616 C265.505,4.674 253.307,0.547 240.116,0.504 L240.116,0.504 L239.688,0.504 Z" id="path-1"></path>
        <linearGradient x1="49.9052768%" y1="58.3438834%" x2="45.1842575%" y2="-55.5161964%" id="linearGradient-3">
            <stop stop-color="#FFFFFF" offset="0%"></stop>
            <stop stop-color="#231714" offset="100%"></stop>
        </linearGradient>
        <path d="M0.039,6.797 C0.039,6.797 5.158,13.837 5.798,11.917 L5.798,11.917 C6.438,9.997 10.279,5.518 10.279,4.877 L10.279,4.877 C10.279,4.877 8.999,0.397 6.438,0.397 L6.438,0.397 C3.879,0.397 0.039,6.797 0.039,6.797 L0.039,6.797 Z" id="path-4"></path>
        <path d="M18.053,0.888 L0.704,14.965 C0.215,15.361 0.139,16.086 0.536,16.575 L0.536,16.575 L0.606,16.661 C1.003,17.149 1.728,17.226 2.216,16.828 L2.216,16.828 L19.565,2.751 C20.053,2.354 20.129,1.63 19.732,1.141 L19.732,1.141 L19.662,1.055 C19.437,0.777 19.106,0.633 18.772,0.633 L18.772,0.633 C18.519,0.633 18.264,0.716 18.053,0.888 L18.053,0.888 Z" id="path-6"></path>
    </defs>
    <g id="Data-Display数据展示" stroke="none" stroke-width="1" fill="none" fill-rule="evenodd">
        <g id="空状态" transform="translate(-947.000000, -1493.000000)">
            <g id="编组-13" transform="translate(166.000000, 580.000000)">
                <g id="空页面" transform="translate(4.000000, 757.000000)">
                    <g id="插图" transform="translate(0.000000, 105.000000)">
                        <g id="搜索为空" transform="translate(777.000000, 50.000000)">
                            <g id="编组">
                                <g transform="translate(0.000000, 0.497000)">
                                    <mask id="mask-2" fill="white">
                                        <use xlink:href="#path-1"></use>
                                    </mask>
                                    <g id="Clip-3"></g>
                                    <path d="M239.688,1 C219.946,1.067 198.053,10.236 183.072,26.07 L183.072,26.07 C166,44.112 151.711,57.99 137.711,51.27 L137.711,51.27 C84.511,22.711 63.849,53.743 53,69.113 L53,69.113 C17,120.112 0,198.112 0,198.112 L0,198.112 C0,198.112 336.511,236.07 356.671,169.43 L356.671,169.43 C376.831,102.79 312.64,93.002 305.711,84.311 L305.711,84.311 C292,67.112 295.28,36.513 274,14.112 L274,14.112 C265.505,5.17 253.307,1.043 240.116,1 L240.116,1 L239.688,1 Z" id="Fill-2" fill="url(#linearGradient-3)" mask="url(#mask-2)"></path>
                                </g>
                                <g transform="translate(74.000000, 77.497000)">
                                    <polygon id="Fill-4" fill="#E5E5E5" points="200.3369 48.793 162.4929 98.037 118.6489 52.483 156.4929 3.239"></polygon>
                                    <polygon id="Fill-6" fill="#A4A5A4" points="200.3369 48.793 225.6499 45.868 187.8069 95.112 162.4929 98.037"></polygon>
                                    <polygon id="Fill-8" fill="#D3D3D3" points="156.4932 3.2393 181.8062 0.3133 225.6502 45.8683 200.3372 48.7933"></polygon>
                                    <polygon id="Fill-10" fill="#FFFFFF" points="154.2305 50.8545 158.7105 55.8945 160.9515 49.1745"></polygon>
                                    <line x1="170.0352" y1="56.4766" x2="170.3862" y2="56.8326" id="Stroke-12" stroke="#FFFFFF" stroke-width="2" stroke-linecap="round" stroke-linejoin="round"></line>
                                    <line x1="171.0674" y1="57.5283" x2="174.8194" y2="61.3503" id="Stroke-14" stroke="#FFFFFF" stroke-width="2" stroke-linecap="round" stroke-linejoin="round" stroke-dasharray="0.974,0.974"></line>
                                    <line x1="175.1611" y1="61.6973" x2="175.5111" y2="62.0543" id="Stroke-16" stroke="#FFFFFF" stroke-width="2" stroke-linecap="round" stroke-linejoin="round"></line>
                                    <line x1="149.751" y1="34.6143" x2="150.083" y2="34.9883" id="Stroke-18" stroke="#FFFFFF" stroke-width="2" stroke-linecap="round" stroke-linejoin="round"></line>
                                    <line x1="150.708" y1="35.6924" x2="154.145" y2="39.5664" id="Stroke-20" stroke="#FFFFFF" stroke-width="2" stroke-linecap="round" stroke-linejoin="round" stroke-dasharray="0.9420000000000001,0.9419999999999999"></line>
                                    <line x1="154.457" y1="39.9189" x2="154.789" y2="40.2929" id="Stroke-22" stroke="#FFFFFF" stroke-width="2" stroke-linecap="round" stroke-linejoin="round"></line>
                                    <path d="M20.9102,93.1055 C20.9102,93.1055 14.8472,93.3805 14.2962,86.4905 C13.7442,79.6005 15.7032,72.6935 18.4592,71.8665 C21.2162,71.0395 22.2832,73.8215 23.4162,75.4075 C26.9562,80.3635 28.3732,93.1095 20.9102,93.1055" id="Fill-24" fill="#A4A5A4"></path>
                                    <line x1="20.251" y1="90.3486" x2="20.251" y2="98.0656" id="Stroke-26" stroke="#757070" stroke-width="0.428" stroke-linecap="round" stroke-linejoin="round"></line>
                                    <path d="M10.8213,99.1582 C10.8213,99.1582 1.4143,99.5862 0.5593,88.8952 C-0.2957,78.2062 2.7433,67.4902 7.0183,66.2082 C11.2953,64.9252 12.9513,69.2402 14.7093,71.7002 C20.2013,79.3902 22.3983,99.1642 10.8213,99.1582" id="Fill-28" fill="#BBBCBA"></path>
                                    <line x1="11.4131" y1="90.376" x2="11.6771" y2="106.855" id="Stroke-30" stroke="#757070" stroke-width="0.428" stroke-linecap="round" stroke-linejoin="round"></line>
                                    <path d="M7.6143,93.2012 C7.6143,93.2012 9.4893,97.0742 11.4133,96.9682" id="Stroke-32" stroke="#757070" stroke-width="0.428" stroke-linecap="round" stroke-linejoin="round"></path>
                                    <path d="M11.4941,94.6309 C11.7061,94.2989 12.3461,93.4509 13.6331,92.9529" id="Stroke-34" stroke="#757070" stroke-width="0.428" stroke-linecap="round" stroke-linejoin="round"></path>
                                </g>
                                <text id="︖" font-family="PingFangSC-Regular, PingFang SC" font-size="13.3495" font-weight="normal" fill="#2AC6CC">
                                    <tspan x="198.1918" y="51.9464815">︖</tspan>
                                </text>
                                <g transform="translate(114.000000, 53.497000)">
                                    <line x1="101.333" y1="124.4492" x2="110" y2="126.4492" id="Stroke-36" stroke="#757070" stroke-width="0.428" stroke-linecap="round" stroke-linejoin="round"></line>
                                    <line x1="101" y1="128.7832" x2="103.667" y2="132.1162" id="Stroke-38" stroke="#757070" stroke-width="0.428" stroke-linecap="round" stroke-linejoin="round"></line>
                                    <path d="M287.625,76.6162 C287.625,81.5872 283.596,85.6162 278.625,85.6162 C273.654,85.6162 269.625,81.5872 269.625,76.6162 C269.625,71.6452 273.654,67.6162 278.625,67.6162 C283.596,67.6162 287.625,71.6452 287.625,76.6162" id="Fill-40" fill="#DEE0DE"></path>
                                    <path d="M278.625,98.6162 L278.625,98.6162 C277.938,98.6162 277.375,98.0542 277.375,97.3662 L277.375,78.8662 C277.375,78.1792 277.938,77.6162 278.625,77.6162 C279.312,77.6162 279.875,78.1792 279.875,78.8662 L279.875,97.3662 C279.875,98.0542 279.312,98.6162 278.625,98.6162" id="Fill-42" fill="#DEE0DE"></path>
                                    <path d="M7.8262,148.166 C7.8262,148.166 3.6292,153.262 2.2252,155.366 C-0.9738,160.166 3.8262,160.966 6.2252,160.966 L23.8262,160.966 C23.8262,160.966 25.1492,159.602 23.8262,157.767 C23.4042,157.182 22.2252,156.166 20.6262,156.166 C19.0262,156.166 14.2252,156.166 15.0262,152.966 C15.8262,149.767 10.2252,148.966 10.2252,148.966 L7.8262,148.166 Z" id="Fill-44" fill="#7F5916"></path>
                                    <path d="M43.8262,148.9658 C43.8262,148.9658 39.0262,156.1658 38.2252,158.5668 C37.2142,161.6018 40.6262,161.7668 43.0262,161.7668 L63.0262,161.7668 C63.0262,161.7668 64.6262,161.7668 63.0262,158.5668 C62.2252,156.9658 59.0262,156.9658 57.4262,156.9658 C55.8262,156.9658 51.0262,156.9658 51.8262,153.7668 C52.6262,150.5668 47.0262,149.7668 47.0262,149.7668 L43.8262,148.9658 Z" id="Fill-46" fill="#7F5916"></path>
                                    <path d="M29.0264,92.5664 C29.0264,92.5664 33.4254,111.3664 48.6264,120.9654 C51.0264,122.5664 49.4254,124.9654 48.6264,127.3664 C47.8264,129.7664 38.2254,148.1664 39.0264,152.1664 C39.8264,156.1664 52.6264,156.1664 52.6264,156.1664 C52.6264,156.1664 54.2254,152.9654 55.8264,148.1664 C57.4254,143.3664 67.0264,124.1664 64.6264,118.5664 C62.2254,112.9654 50.2254,97.7664 47.0264,92.1664 C43.8264,86.5664 42.2254,78.5664 42.2254,78.5664 L8.6264,65.7664 C8.6264,65.7664 1.2374,85.0114 3.8264,95.3664 C7.8264,111.3664 15.8264,112.1664 17.4254,117.7664 C18.9644,123.1504 9.4254,145.7664 6.2254,149.7664 C6.2254,149.7664 10.0004,153.0164 14.0004,154.6164 C18.0004,156.2154 31.0264,129.7664 32.6264,123.3664 C34.2254,116.9654 31.0264,112.1664 30.2254,108.9654 C29.4254,105.7664 25.8264,98.9654 28.2254,94.1664" id="Fill-48" fill="#1452CC"></path>
                                    <path d="M63,60.6162 C62.492,68.8102 71.504,76.1572 73.552,78.7182 C74.983,80.5062 72.528,80.7662 72.528,80.7662 C55.114,78.7182 55.932,59.6342 55.932,59.6342 C55.932,59.6342 63.145,58.2792 63,60.6162" id="Fill-50" fill="#FFDCB6"></path>
                                    <path d="M66.3584,10.8369 C66.3584,10.8369 72.1194,15.3169 76.5984,13.3979 C81.0794,11.4779 81.7184,8.9169 79.1584,8.2769 C76.5984,7.6379 70.1984,4.4379 67.6384,2.5179 C65.0794,0.5979 52.2784,-3.2431 46.5184,6.9969 C40.7584,17.2369 40.7584,23.6379 44.5984,27.4779 C48.4384,31.3169 47.7984,23.6379 47.7984,23.6379 L59.9594,11.4779 L66.3584,10.8369 Z" id="Fill-52" fill="#191F35"></path>
                                    <path d="M52.2783,33.877 C52.2783,34.518 48.4383,38.997 47.7993,40.917 C47.1583,42.837 42.0393,35.797 42.0393,35.797 C42.0393,35.797 45.8793,29.398 48.4383,29.398 C50.9993,29.398 52.2783,33.877 52.2783,33.877" id="Fill-54" fill="#FFDCB6"></path>
                                    <path d="M43.8262,36.9658 C43.8262,36.9658 37.3222,28.5988 31.0262,30.5668 C18.2252,34.5668 6.4302,48.0758 2.2252,60.1658 C-4.1738,78.5668 9.4262,74.5668 26.2252,80.1658 C38.9482,84.4068 44.6262,81.7668 44.6262,81.7668 C44.6262,81.7668 47.0262,65.7668 54.2252,56.9658 C54.2252,56.9658 54.0002,60.6158 59.0002,60.6158 C62.2002,60.6158 62.0002,60.6158 64.0002,59.6158 C66.5302,58.3518 64.8002,58.4158 64.0002,53.6158 C63.2002,48.8168 66.2252,44.9658 60.6262,42.5668 C57.3382,41.1568 46.2252,40.1658 43.8262,36.9658" id="Fill-56" fill="#FFBA2A"></path>
                                    <path d="M38.2256,56.9658 C38.6206,69.7848 48.2256,72.5668 51.4256,76.5668 C53.6616,79.3608 49.8266,79.7668 49.8266,79.7668 C27.9996,76.6158 24.9736,61.6658 27.9996,54.6158 C29.1296,51.9848 37.9996,49.6158 38.2256,56.9658" id="Fill-58" fill="#FFDCB6"></path>
                                    <path d="M53.2168,80.8281 L70.5648,66.7511 C71.0538,66.3541 71.1288,65.6301 70.7328,65.1401 L70.6618,65.0551 C70.2658,64.5651 69.5408,64.4901 69.0528,64.8881 L51.7038,78.9651 C51.2148,79.3611 51.1398,80.0861 51.5358,80.5751 L51.6068,80.6611 C52.0028,81.1491 52.7278,81.2251 53.2168,80.8281" id="Fill-60" fill="#9E5A2D"></path>
                                    <path d="M49.0264,79.7666 C49.0264,79.7666 49.0264,82.1656 53.8264,82.1656 C54.9334,82.1656 53.9464,80.3396 54.6264,80.5666 C57.0264,81.3666 56.0854,77.6016 55.0264,76.9656 C53.0264,75.7666 50.6264,75.7666 50.6264,75.7666 L49.0264,79.7666 Z" id="Fill-62" fill="#FFDCB6"></path>
                                    <path d="M69.8086,79.8584 C69.8086,79.8584 68.9996,81.6164 72.9486,83.4314 C73.8596,83.8504 73.6626,82.1394 74.1456,82.5624 C75.8506,84.0564 76.3436,80.9434 75.6866,80.0774 C74.4466,78.4414 72.4716,77.5344 72.4716,77.5344 L69.8086,79.8584 Z" id="Fill-64" fill="#FFDCB6"></path>
                                </g>
                                <g transform="translate(156.000000, 82.497000)">
                                    <mask id="mask-5" fill="white">
                                        <use xlink:href="#path-4"></use>
                                    </mask>
                                    <g id="Clip-67"></g>
                                    <path d="M0,3.6162 C0,3.6162 8,7.6162 11,5.6162 C14,3.6162 8,0.6162 8,0.6162 L3,-0.3838 L0,3.6162 Z" id="Fill-66" fill="#CCAF93" mask="url(#mask-5)"></path>
                                </g>
                                <path d="M162.1191,71.0546 C162.1191,71.0546 157.6391,69.1346 156.9991,72.9746 C156.3581,76.8146 160.1981,78.0946 160.1981,78.0946 C160.1981,78.0946 158.5981,82.8946 162.4381,86.7346 C166.2781,90.5746 172.6791,88.0146 175.2381,84.8146 C177.3911,82.1226 178.4381,75.8546 180.9991,72.0146 C182.7731,69.3516 182.9191,64.3336 178.4381,63.0546 C175.6861,62.2676 172.2061,62.8856 169.4781,64.3336 C167.2781,65.5036 162.1191,71.0546 162.1191,71.0546" id="Fill-68" fill="#FFDCB6"></path>
                                <g transform="translate(165.000000, 117.497000)">
                                    <mask id="mask-7" fill="white">
                                        <use xlink:href="#path-6"></use>
                                    </mask>
                                    <g id="Clip-71"></g>
                                    <path d="M17,0.6162 C17,0.6162 16,2.6162 18,4.6162 C20,6.6162 20,2.6162 20,2.6162 L17,0.6162 Z" id="Fill-70" fill="#54301C" mask="url(#mask-7)"></path>
                                </g>
                                <g transform="translate(141.000000, 98.497000)">
                                    <path d="M42.3516,21.6914 C45.0436,24.7144 52.1476,22.7854 58.2176,17.3804 C64.2886,11.9764 67.0266,5.1444 64.3336,2.1214 C61.6426,-0.9036 54.5396,1.0264 48.4686,6.4304 C42.3986,11.8354 39.6606,18.6674 42.3516,21.6914" id="Fill-72" fill="#9E5A2D"></path>
                                    <path d="M44.1289,20.0791 C45.9659,22.1431 51.4519,20.2591 56.3829,15.8701 C61.3129,11.4811 63.8189,6.2501 61.9819,4.1851 C60.1439,2.1211 54.6569,4.0061 49.7279,8.3941 C44.7979,12.7841 42.2909,18.0161 44.1289,20.0791" id="Fill-74" fill="#B9E8EF"></path>
                                    <line x1="56" y1="7.6162" x2="55" y2="12.6162" id="Stroke-76" stroke="#FFFFFF" stroke-linecap="round"></line>
                                    <line x1="51.5" y1="13.1162" x2="51" y2="15.6162" id="Stroke-78" stroke="#FFFFFF" stroke-linecap="round"></line>
                                    <path d="M1.3896,49.4385 C1.4286,49.3625 2.1316,47.7645 3.0686,46.3315 C3.5346,45.6165 4.0666,44.9475 4.5616,44.5585 C5.0486,44.1475 5.5036,44.1245 5.4996,44.0745 C5.5146,44.0475 5.0046,43.9965 4.4366,44.3835 C3.8656,44.7465 3.2656,45.4055 2.7456,46.1105 C1.7016,47.5265 0.9316,49.1245 0.8896,49.2055 C0.8136,49.3705 0.8656,49.5575 1.0056,49.6185 C1.1456,49.6795 1.3146,49.5995 1.3896,49.4385" id="Fill-80" fill="#DCE9FF"></path>
                                </g>
                            </g>
                        </g>
                    </g>
                </g>
            </g>
        </g>
    </g>
</svg>