<?xml version="1.0" encoding="UTF-8"?>
<svg width="237px" height="227px" viewBox="0 0 237 227" version="1.1" xmlns="http://www.w3.org/2000/svg" xmlns:xlink="http://www.w3.org/1999/xlink">
    <!-- Generator: Sketch 61.2 (89653) - https://sketch.com -->
    <title>新建</title>
    <desc>Created with Sketch.</desc>
    <defs>
        <path d="M11.947,0.713 C11.947,0.713 10.446,6.463 7.697,7.212 L7.697,7.212 C4.946,7.963 1.196,7.713 0.446,10.213 L0.446,10.213 C-0.419,13.096 3.197,14.463 10.696,13.962 L10.696,13.962 C18.196,13.463 19.947,14.213 19.947,11.963 L19.947,11.963 C19.947,9.591 17.446,2.463 17.446,1.213 L17.446,1.213 C17.446,0.645 16.309,0.49 15.069,0.49 L15.069,0.49 C13.582,0.49 11.947,0.713 11.947,0.713 L11.947,0.713 Z" id="path-1"></path>
        <path d="M11.946,0.713 C11.946,0.713 10.447,6.463 7.696,7.212 L7.696,7.212 C4.946,7.963 1.196,7.713 0.446,10.213 L0.446,10.213 C-0.419,13.096 3.196,14.463 10.696,13.962 L10.696,13.962 C18.197,13.463 19.946,14.213 19.946,11.963 L19.946,11.963 C19.946,9.591 17.446,2.463 17.446,1.213 L17.446,1.213 C17.446,0.645 16.309,0.49 15.069,0.49 L15.069,0.49 C13.582,0.49 11.946,0.713 11.946,0.713 L11.946,0.713 Z" id="path-3"></path>
        <path d="M38,0.616 C29.275,4.203 23.325,18.292 17,24.617 L17,24.617 C14,27.616 7.722,23.159 6.152,20.945 L6.152,20.945 C4.581,18.73 -0.951,17.198 1,23.617 L1,23.617 C16.633,40.866 23.558,29.139 30,23.617 L30,23.617 C37,17.616 38,12.616 38,12.616 L38,12.616 C38,12.616 43.058,0.337 39.184,0.337 L39.184,0.337 C38.856,0.337 38.464,0.425 38,0.616 L38,0.616 Z" id="path-5"></path>
        <path d="M2,5.616 C2,5.616 3,15.617 1,18.616 L1,18.616 C0.008,20.105 9.391,22.053 10,19.616 L10,19.616 C11,15.617 7,0.616 7,0.616 L7,0.616 L2,5.616 Z" id="path-7"></path>
        <path d="M0.959,6.007 C0.959,6.007 15.203,28.858 17.599,31.195 L17.599,31.195 C25.373,38.775 37,39.616 39.315,40.044 L39.315,40.044 C42.406,40.615 43.921,39.191 41,36.616 L41,36.616 C38.079,34.041 32.017,33.023 28,28.616 L28,28.616 C23.984,24.209 9.878,0.787 8,0.616 L8,0.616 C7.971,0.614 7.942,0.612 7.912,0.612 L7.912,0.612 C5.967,0.612 0.959,6.007 0.959,6.007 L0.959,6.007 Z" id="path-9"></path>
        <path d="M1,49.617 C0.686,59.833 0.5,87.116 4.5,95.116 L4.5,95.116 C5.72,97.556 10.679,97.74 11.5,96.116 L11.5,96.116 C13.929,91.314 14.204,81.697 15.5,69.116 L15.5,69.116 C17.35,51.156 23.5,30.116 23.5,30.116 L23.5,30.116 C23.5,30.116 29.124,77.988 34.5,94.116 L34.5,94.116 C34.968,95.523 35.812,96.951 37,97.616 L37,97.616 C39.614,99.078 43.242,98.382 43.598,96.493 L43.598,96.493 C44.319,92.673 42,85.617 42.5,77.116 L42.5,77.116 C43.978,51.981 41.5,1.116 41.5,1.116 L41.5,1.116 L4.5,0.117 C4.5,0.117 1.346,38.325 1,49.617 L1,49.617 Z" id="path-11"></path>
    </defs>
    <g id="Data-Display数据展示" stroke="none" stroke-width="1" fill="none" fill-rule="evenodd">
        <g id="空状态" transform="translate(-170.000000, -1488.000000)">
            <g id="编组-13" transform="translate(166.000000, 580.000000)">
                <g id="空页面" transform="translate(4.000000, 757.000000)">
                    <g id="插图" transform="translate(0.000000, 105.000000)">
                        <g id="新建" transform="translate(0.000000, 45.000000)">
                            <g id="编组">
                                <g transform="translate(118.000000, 213.060000)" fill="#7F5916" id="Fill-2">
                                    <path d="M11.9463,0.7129 C11.9463,0.7129 10.4463,6.4629 7.6963,7.2129 C4.9463,7.9629 1.1963,7.7129 0.4463,10.2129 C-0.4187,13.0959 3.1963,14.4629 10.6963,13.9629 C18.1963,13.4629 19.9463,14.2129 19.9463,11.9629 C19.9463,9.5909 17.4463,2.4629 17.4463,1.2129 C17.4463,-0.0371 11.9463,0.7129 11.9463,0.7129"></path>
                                </g>
                                <g transform="translate(118.000000, 213.060000)">
                                    <mask id="mask-2" fill="white">
                                        <use xlink:href="#path-1"></use>
                                    </mask>
                                    <g id="Clip-4"></g>
                                    <path d="M9,-0.3838 C9,-0.3838 12,6.6162 18,5.6162 C24,4.6162 21,-0.3838 21,-0.3838 L14,-2.3838 L9,-0.3838 Z" id="Fill-3" fill="#604211" mask="url(#mask-2)"></path>
                                </g>
                                <path d="M97.9463,213.7729 C97.9463,213.7729 96.4463,219.5229 93.6963,220.2729 C90.9463,221.0229 87.1963,220.7729 86.4463,223.2729 C85.5813,226.1559 89.1963,227.5229 96.6963,227.0229 C104.1963,226.5229 105.9463,227.2729 105.9463,225.0229 C105.9463,222.6509 103.4463,215.5229 103.4463,214.2729 C103.4463,213.0229 97.9463,213.7729 97.9463,213.7729" id="Fill-5" fill="#7F5916"></path>
                                <g transform="translate(86.000000, 213.060000)">
                                    <mask id="mask-4" fill="white">
                                        <use xlink:href="#path-3"></use>
                                    </mask>
                                    <g id="Clip-8"></g>
                                    <path d="M10,-1.3838 C10,-1.3838 13,5.6162 19,4.6162 C25,3.6162 22,-1.3838 22,-1.3838 L15,-3.3838 L10,-1.3838 Z" id="Fill-7" fill="#604211" mask="url(#mask-4)"></path>
                                </g>
                                <g transform="translate(0.000000, 25.060000)">
                                    <path d="M36.6045,50.667 C37.2375,50.417 37.9295,50.673 38.1485,51.239 C38.3685,51.806 38.0415,52.464 37.4205,52.71 C37.1095,52.833 32.5035,54.523 28.1075,56.521 C23.6895,58.47 19.5385,60.809 19.3745,60.558 C19.2025,60.303 23.1005,57.471 27.4115,55.13 C31.6925,52.743 36.2905,50.792 36.6045,50.667" id="Fill-9" fill="#F7F7F7"></path>
                                    <path d="M63,57.6162 L63,13.6162 C63,13.6162 105,0.6162 159,12.6162 L157,59.6162 C157,59.6162 105,40.6162 63,57.6162" id="Fill-11" fill="#A4A5A4"></path>
                                    <path d="M97,40.6162 C97,40.6162 96,45.6162 89,51.6162 C82.558,57.1382 75.633,68.8662 60,51.6162 C58.049,45.1982 63.582,46.7292 65.152,48.9442 C66.723,51.1592 73,55.6162 76,52.6162 C82.325,46.2922 88.274,32.2032 97,28.6162 C102.949,26.1712 97,40.6162 97,40.6162" id="Fill-13" fill="#FFDCB6"></path>
                                    <path d="M97.5,93.1162 C97.5,93.1162 94.346,131.3252 94,142.6162 C93.687,152.8332 93.5,180.1162 97.5,188.1162 C98.72,190.5552 103.679,190.7392 104.5,189.1162 C106.929,184.3142 107.204,174.6972 108.5,162.1162 C110.35,144.1552 116.5,123.1162 116.5,123.1162 C116.5,123.1162 122.124,170.9882 127.5,187.1162 C127.969,188.5222 128.812,189.9512 130,190.6162 C132.614,192.0782 136.242,191.3822 136.599,189.4932 C137.319,185.6732 135,178.6162 135.5,170.1162 C136.979,144.9802 134.5,94.1162 134.5,94.1162 L97.5,93.1162 Z" id="Fill-15" fill="#1452CC"></path>
                                    <path d="M131.959,35.0068 C131.959,35.0068 146.203,57.8588 148.599,60.1938 C156.373,67.7758 168,68.6158 170.315,69.0438 C173.405,69.6148 174.921,68.1918 172,65.6158 C169.079,63.0408 163.017,62.0238 159,57.6158 C154.983,53.2088 140.878,29.7868 139,29.6158 C137.122,29.4448 131.959,35.0068 131.959,35.0068" id="Fill-17" fill="#FFDCB6"></path>
                                    <path d="M175.3857,68.501 C175.3857,68.501 177.0867,68.711 175.9997,69.616 C174.7847,70.628 168.4737,69.84 167.9997,67.616 C167.5267,65.393 167.9107,64.36 172.7607,64.246 C177.0157,64.146 178.0617,64.295 178.6457,65.785 C179.4597,67.868 175.3857,68.501 175.3857,68.501" id="Fill-19" fill="#FFDCB6"></path>
                                    <path d="M110,5.6162 C110,5.6162 111,15.6162 109,18.6162 C108.008,20.1042 117.391,22.0532 118,19.6162 C119,15.6162 115,0.6162 115,0.6162 L110,5.6162 Z" id="Fill-21" fill="#FFDCB6"></path>
                                    <path d="M56.5962,46.3779 C56.5962,46.3779 55.7452,44.1409 57.8222,44.8869 C59.8982,45.6339 60.5942,46.3569 61.7632,46.9539 C62.9332,47.5529 65.8632,48.2299 64.2632,50.3759 C62.3982,52.8779 59.6792,53.3089 53.9842,50.9569 C48.8192,48.8239 52.3892,45.4169 56.5962,46.3779" id="Fill-23" fill="#FFDCB6"></path>
                                    <path d="M30,84.6162 L30,120.6162 C30,120.6162 1,111.6162 1,91.6162 C1,71.6162 0,52.6162 0,52.6162 C0,52.6162 3,77.6162 30,84.6162" id="Fill-25" fill="#D3D3D3"></path>
                                </g>
                                <g transform="translate(59.000000, 53.060000)">
                                    <mask id="mask-6" fill="white">
                                        <use xlink:href="#path-5"></use>
                                    </mask>
                                    <g id="Clip-28"></g>
                                    <path d="M28.0508,6.5547 C28.0508,6.5547 31.7818,16.3057 36.9908,18.9277 C42.1988,21.5497 39.4648,11.7247 39.4648,11.7247 L34.9578,5.0397 L28.0508,6.5547 Z" id="Fill-27" fill="#CCAF93" mask="url(#mask-6)"></path>
                                </g>
                                <g transform="translate(1.000000, 47.060000)">
                                    <path d="M17,56.6162 L17,7.6162 C17,7.6162 0,16.6162 0,28.6162 C0,45.6162 17,56.6162 17,56.6162" id="Fill-29" fill="#A4A5A4"></path>
                                    <path d="M197,0.6162 C197,0.6162 229.049,13.6032 233,28.6162 C238,47.6162 217,62.6162 217,62.6162 C217,62.6162 215,49.6162 196,42.6162 C196,36.6162 197,0.6162 197,0.6162" id="Fill-31" fill="#A4A5A4"></path>
                                    <path d="M217,63.6162 L217,95.6162 C217,95.6162 236,86.6162 236,73.6162 C236,60.6162 235,34.6162 235,34.6162 C235,34.6162 234,52.6162 217,63.6162" id="Fill-33" fill="#D3D3D3"></path>
                                </g>
                                <g transform="translate(108.000000, 25.060000)">
                                    <mask id="mask-8" fill="white">
                                        <use xlink:href="#path-7"></use>
                                    </mask>
                                    <g id="Clip-36"></g>
                                    <path d="M0,10.6162 C0,10.6162 6,16.6162 13,12.6162 C20,8.6162 7,7.6162 7,7.6162 L0,10.6162 Z" id="Fill-35" fill="#CCAF93" mask="url(#mask-8)"></path>
                                </g>
                                <g transform="translate(19.000000, 0.060000)">
                                    <path d="M75,7.6162 C75,7.6162 83.4,-1.5838 93,1.6162 C102.6,4.8162 105.695,9.7662 105.5,18.1162 C105.284,27.3372 103.031,30.6002 99,32.6162 C97,33.6162 93,33.6162 93,33.6162 L92.516,17.0952 L88.516,16.2952 C88.516,16.2952 79.8,14.8162 79,11.6162 C78.2,8.4162 75,7.6162 75,7.6162" id="Fill-37" fill="#191F35"></path>
                                    <path d="M82,13.6162 C82,13.6162 79.934,15.3422 80,21.6162 C80.008,22.3352 78.229,22.4732 78,23.6162 C77.5,26.1162 80.927,27.0082 81,27.6162 C81.713,33.5182 87.179,38.5712 95,36.6162 C99,35.6162 99,29.8162 99,26.6162 C99,26.6162 103.55,23.1662 101,20.6162 C99,18.6162 97,21.6162 97,21.6162 C97,21.6162 97.92,18.0162 95.716,14.6952 C95,13.6162 88,18.0162 82,13.6162" id="Fill-39" fill="#FFDCB6"></path>
                                    <path d="M20.0986,126.9785 C18.7676,126.5085 17.8596,125.6625 18.0696,125.0925 C18.2796,124.5215 19.5086,124.4375 20.8166,124.8995 C21.1476,125.0035 23.6996,125.9425 27.4096,127.1045 C31.1136,128.2825 35.9896,129.6355 40.8686,130.8135 C45.7506,131.9835 50.6346,132.9775 54.2986,133.6745 C57.9626,134.3715 60.4006,134.8145 60.3797346,134.9725 C60.3616,135.1165 57.8856,134.9595 54.1666,134.5205 C50.4496,134.0815 45.4966,133.3175 40.5356,132.3325 C35.5766,131.3405 30.6106,130.1315 26.8296,129.0465 C23.0446,127.9785 20.4336,127.0845 20.0986,126.9785" id="Fill-41" fill="#F7F7F7"></path>
                                    <path d="M26.5205,144.0479 C25.3935,143.7019 24.6275,142.9519 24.8105,142.3719 C24.9935,141.7929 26.0425,141.6009 27.1525,141.9409 C27.7025,142.1239 35.8465,144.6609 44.0515,146.4869 C48.1465,147.4199 52.2355,148.2349 55.2995,148.8279 C58.3645,149.4209 60.3995,149.8179 60.3796461,149.9729 C60.3615,150.1179 58.2875,150.0089 55.1715,149.6749 C52.0575,149.3409 47.9065,148.7559 43.7415,148.0119 C35.3995,146.5659 27.0775,144.2349 26.5205,144.0479" id="Fill-43" fill="#F7F7F7"></path>
                                    <path d="M163.502,133.0391 C162.499,133.3351 161.55,133.1021 161.383,132.5181 C161.216,131.9351 161.881,131.2241 162.869,130.9321 C163.361,130.7851 170.652,128.7601 177.58,126.0521 C181.049,124.7171 184.428,123.2361 186.925,122.0581 C189.427,120.8881 191.068,120.0581 191.149,120.1961 C191.224,120.3181 189.725,121.4001 187.324,122.8151 C184.929,124.2381 181.613,125.9511 178.18,127.4871 C171.321,130.5991 163.998,132.8911 163.502,133.0391" id="Fill-45" fill="#F7F7F7"></path>
                                    <path d="M155.2773,153.2969 C153.9793,153.6149 152.8143,153.3939 152.6753,152.8029 C152.5373,152.2109 153.4623,151.4779 154.7433,151.1629 C155.3793,151.0039 164.8193,148.8199 173.7663,145.5749 C178.2423,143.9739 182.5943,142.1489 185.7893,140.6449 C188.9903,139.1549 191.0653,138.0539 191.1493,138.1959 C191.2213,138.3149 189.2883,139.6699 186.1783,141.4069 C183.0783,143.1589 178.7763,145.2219 174.3213,147.0279 C165.4173,150.6849 155.9193,153.1379 155.2773,153.2969" id="Fill-47" fill="#F7F7F7"></path>
                                    <path d="M162.0771,52.9248 C162.6811,53.0918 163.0381,53.7008 162.8741,54.2858 C162.7101,54.8708 162.0951,55.2118 161.4991,55.0478 C161.2011,54.9638 156.8611,53.6568 152.5421,52.5088 C148.2291,51.3398 143.9471,50.3078 144.0001,50.0068 C144.0521,49.7088 148.4441,50.2018 152.8791,50.9898 C157.3151,51.7558 161.7761,52.8398 162.0771,52.9248" id="Fill-49" fill="#F7F7F7"></path>
                                    <path d="M169.5156,73.126 C170.3646,73.403 170.8966,74.095 170.7036,74.671 C170.5116,75.247 169.6786,75.494 168.8436,75.222 C168.4296,75.079 162.3236,73.009 156.1876,71.353 C150.0646,69.654 143.9476,68.309 143.9996,68.007 C144.0496,67.71 150.2836,68.517 156.5516,69.841 C162.8286,71.12 169.0956,72.981 169.5156,73.126" id="Fill-51" fill="#F7F7F7"></path>
                                    <path d="M31.6099,50.8643 C32.7489,50.5363 33.8039,50.7453 33.9669,51.3313 C34.1299,51.9163 33.3509,52.6523 32.2289,52.9753 C31.6709,53.1383 23.3889,55.3883 15.5689,58.5383 C11.6559,60.0953 7.8579,61.8423 5.0699,63.2623 C2.2759,64.6703 0.4629,65.6953 0.3749,65.5573 C0.2979,65.4403 1.9609,64.1673 4.6529,62.5143 C7.3369,60.8503 11.0759,58.8683 14.9599,57.1073 C22.7199,53.5493 31.0479,51.0283 31.6099,50.8643" id="Fill-53" fill="#F7F7F7"></path>
                                </g>
                                <g transform="translate(131.000000, 54.060000)">
                                    <mask id="mask-10" fill="white">
                                        <use xlink:href="#path-9"></use>
                                    </mask>
                                    <g id="Clip-56"></g>
                                    <path d="M20,9.6162 C20,9.6162 16,18.6162 11,19.6162 C6,20.6162 8,15.6162 8,15.6162 L11,12.6162 L20,9.6162 Z" id="Fill-55" fill="#CCAF93" mask="url(#mask-10)"></path>
                                </g>
                                <g transform="translate(93.000000, 118.060000)">
                                    <mask id="mask-12" fill="white">
                                        <use xlink:href="#path-11"></use>
                                    </mask>
                                    <g id="Clip-58"></g>
                                    <path d="M23.6689,31.5205 C23.6689,31.5205 17.9999,5.6165 17.9999,-4.3835 C17.9999,-14.3835 50.6669,0.1165 50.6669,0.1165 L55.9999,88.6165 L48.9999,99.6165 L34.9999,102.6165 L24.9999,88.6165 L23.6689,31.5205 Z" id="Fill-57" fill="#1177CC" mask="url(#mask-12)"></path>
                                </g>
                                <g transform="translate(85.000000, 41.060000)">
                                    <path d="M8,9.6162 C11.768,6.4272 17,2.6162 25.716,0.8952 C46.496,-3.2078 55,10.6162 62,18.6162 C66.656,23.9372 68.628,24.8032 57,30.6162 C53,32.6162 50,27.6162 50,27.6162 C50,27.6162 64,67.6162 57,77.6162 C55.416,79.8782 49.993,79.3872 46,79.6162 C11,81.6162 7.542,76.7852 7,74.6162 C6,70.6162 6,67.6162 7,60.6162 C8.667,48.9472 11.8,37.8192 11,28.6162 C10.906,27.5352 7.402,25.4622 5,23.6162 C2.188,21.4552 0.456,18.5242 1,17.6162 C4,12.6162 5.972,11.3332 8,9.6162" id="Fill-59" fill="#FFBA2A"></path>
                                    <path d="M1,121.6162 L1,80.6162 C1,80.6162 28,88.6162 78,78.6162 L78,121.6162 C78,121.6162 45,130.6162 1,121.6162" id="Fill-61" fill="#D3D3D3"></path>
                                </g>
                            </g>
                        </g>
                    </g>
                </g>
            </g>
        </g>
    </g>
</svg>