<?xml version="1.0" encoding="UTF-8"?>
<svg width="100px" height="100px" viewBox="0 0 100 100" version="1.1" xmlns="http://www.w3.org/2000/svg" xmlns:xlink="http://www.w3.org/1999/xlink">
    <title>3AABB3DE-4BD2-452A-92A7-F8ECD2403571</title>
    <g id="页面-1" stroke="none" stroke-width="1" fill="none" fill-rule="evenodd">
        <g id="Grid-带二级菜单布局">
            <rect id="矩形备份-68" x="0" y="0" width="100" height="100" rx="2"></rect>
            <g id="编组-40" fill-rule="nonzero">
                <rect id="矩形备份-72" fill="#E8E8E8" x="0" y="0" width="8" height="100"></rect>
                <rect id="矩形备份-84" fill="#FAFAFA" x="2" y="10" width="4" height="4"></rect>
                <rect id="矩形备份-85" fill="#FAFAFA" x="2" y="16" width="4" height="4"></rect>
                <rect id="矩形备份-86" fill="#FAFAFA" x="2" y="22" width="4" height="4"></rect>
            </g>
            <rect id="矩形备份-69" fill="#D8D8D8" fill-rule="nonzero" x="0" y="0" width="100" height="8"></rect>
            <rect id="矩形备份-69" fill="#FFFFFF" fill-rule="nonzero" x="2" y="2" width="7" height="4"></rect>
            <rect id="矩形备份-70" fill="#FFFFFF" fill-rule="nonzero" x="18" y="2" width="5" height="4"></rect>
            <rect id="矩形备份-80" fill="#FFFFFF" fill-rule="nonzero" x="25" y="2" width="5" height="4"></rect>
            <rect id="矩形备份-81" fill="#FFFFFF" fill-rule="nonzero" x="32" y="2" width="5" height="4"></rect>
            <rect id="矩形备份-82" fill="#FFFFFF" fill-rule="nonzero" x="39" y="2" width="5" height="4"></rect>
            <rect id="矩形备份-83" fill="#FFFFFF" fill-rule="nonzero" x="46" y="2" width="5" height="4"></rect>
            <rect id="矩形备份-87" fill="#FFFFFF" fill-rule="nonzero" x="94" y="2" width="4" height="4" rx="2"></rect>
            <rect id="矩形备份-71" fill="#D8D8D8" fill-rule="nonzero" x="12" y="12" width="88" height="88" rx="2"></rect>
        </g>
    </g>
</svg>