<?xml version="1.0" encoding="UTF-8"?>
<svg width="34px" height="34px" viewBox="0 0 34 34" version="1.1" xmlns="http://www.w3.org/2000/svg" xmlns:xlink="http://www.w3.org/1999/xlink">
    <title>C866F509-0229-49D1-AFD9-3177403410BC</title>
    <g id="Symbols" stroke="none" stroke-width="1" fill="none" fill-rule="evenodd">
        <g id="图标/开发">
            <rect id="Rectangle" fill="#FFFFFF" opacity="0" x="0" y="0" width="34" height="34"></rect>
            <circle id="Oval" stroke="#8C8C8C" cx="17" cy="4" r="2.5"></circle>
            <circle id="Oval-Copy" stroke="#8C8C8C" cx="3" cy="29" r="2.5"></circle>
            <circle id="Oval-Copy-2" stroke="#8C8C8C" cx="31" cy="29" r="2.5"></circle>
            <line x1="17" y1="6.5" x2="17" y2="8.79378025" id="Path-2" stroke="#8C8C8C" stroke-linecap="round" stroke-linejoin="round"></line>
            <line x1="27.7644064" y1="25.2781083" x2="27.6872669" y2="28.1960941" id="Path-2" stroke="#8C8C8C" stroke-linecap="round" stroke-linejoin="round" transform="translate(27.725837, 26.737101) rotate(120.000000) translate(-27.725837, -26.737101) "></line>
            <line x1="6.31535634" y1="25.1292288" x2="6.38630296" y2="28.249296" id="Path-2" stroke="#8C8C8C" stroke-linecap="round" stroke-linejoin="round" transform="translate(6.350830, 26.689262) rotate(240.000000) translate(-6.350830, -26.689262) "></line>
            <circle id="Oval-Copy-3" stroke="#8C8C8C" stroke-linecap="round" stroke-linejoin="round" cx="17" cy="20" r="11"></circle>
            <g id="编组" transform="translate(10.000000, 13.000000)" stroke="#8C8C8C" stroke-linecap="round" stroke-linejoin="round">
                <g id="Group" transform="translate(1.909091, 3.818182)">
                    <g>
                        <line x1="3.74181818" y1="6.07727273" x2="0.502727273" y2="3.21363636" id="Path"></line>
                        <line x1="0.502727273" y1="3.21363636" x2="3.74181818" y2="0.35" id="Path"></line>
                    </g>
                    <g transform="translate(6.363636, 0.000000)">
                        <line x1="0.502727273" y1="6.07727273" x2="3.74181818" y2="3.21363636" id="Path"></line>
                        <line x1="3.74181818" y1="3.21363636" x2="0.502727273" y2="0.35" id="Path"></line>
                    </g>
                </g>
            </g>
        </g>
    </g>
</svg>