<?xml version="1.0" encoding="UTF-8"?>
<svg width="24px" height="24px" viewBox="0 0 24 24" version="1.1" xmlns="http://www.w3.org/2000/svg" xmlns:xlink="http://www.w3.org/1999/xlink">
    <title>baoan</title>
    <g id="图标" stroke="none" stroke-width="1" fill="none" fill-rule="evenodd">
        <g id="baoan">
            <rect id="矩形备份" x="0" y="0" width="24" height="24"></rect>
            <path d="M17.926,12.45 L17.9456685,12.3460987 L17.965,12.35 L17.939,12.463 L18.034,12.558 L17.901,12.635 L17.9,12.641 L17.9340004,12.622417 L17.896,12.658 L17.8495274,12.8725898 L17.886,12.668 L17.267963,13.2665406 L17.7002281,13.6988058 L17.8410929,13.952033 L17.9156282,14.1922386 L16.3815115,14.2286065 L15.9969754,14.6131426 L15.3920605,16.1413052 L15.439,17.102 L15.0237,17.6075733 L15.127,17.893 L15.1274102,18.7057131 L14.6359168,19.5199409 L14.0179958,20.5309278 L12.2626303,21.4234865 L10.652956,20.94808 L11.1803502,20.0650204 L11.0564015,19.5072515 L10.7055607,19.1062906 L9.14424419,17.7680193 L8.01691944,15.9133883 L7.54337592,14.8934484 L7.21865367,13.9553619 L6.75513958,12.8505786 L6.46407713,11.6547305 L6.88799243,9.71165807 L7.5249872,9.26576173 L8.28983382,8.90346597 L8.6401627,8.49474894 L8.7612169,7.88947795 L9.09560112,7.29617126 L9.42416648,7.10262397 L9.9975183,6.62483079 L9.70783649,6.14202778 L10.2476992,6.50838218 L10.632703,6.02712743 L10.0803437,6.17295061 L10.9976543,5.9150934 L11.2771267,5.30025426 L10.939,4.394 L11.0502836,4.07939509 L11.3544596,3.62854097 L11.4949728,4.33110714 L11.832,4.162 L11.9996302,4.49671219 L12.4260654,3.85705936 L12.677,3.836 L13.16,4.319 L13.0989036,4.41125263 L12.826278,4.97798516 L12.1329917,5.89565134 L11.0399094,6.16892191 L11.6150779,6.74409035 L11.676,6.918 L11.4507748,7.59637519 L12.042,7.715 L12.1495013,7.86151491 L12.3719078,7.75684235 L12.2140056,8.07264666 L12.7877868,8.73982912 L12.922,9.289 L12.901172,9.35924386 L12.4939887,10.0613372 L12.405293,10.5492686 L12.405,10.931 L12.1749784,11.0762055 L12.493,11.554 L12.5614932,11.7584643 L12.1207155,12.0890475 L12.76,12.729 L12.9590032,13.02729 L13.436,12.708 L13.6704607,12.7725782 L14.095,12.468 L14.34,12.572 L12.0656452,13.3308984 L14.826,12.778 L14.9224173,12.8194205 L14.914,12.761 L17.683842,12.2079395 L17.926,12.45 Z M15.3277288,11.493174 L16.0843675,11.5449164 L16.189,11.956 L14.862,12.398 L14.782,11.837 L14.9066163,11.743337 L14.768,11.741 L14.768,11.738 L15.0562873,11.7383743 L14.939,11.523 L15.3277288,11.493174 Z M16.830397,11.2381096 L17.214,11.614 L16.419,11.879 L16.7969754,11.6280622 L16.796,11.257 L16.830397,11.2381096 Z M17.531,11.016 L17.811,11.082 L17.811,11.415 L17.345,11.57 L17.449,11.259 L17.7856907,11.0912302 L17.528,11.023 L17.531,11.016 Z M13.809,3.08 L13.853,3.243 L13.726,3.498 L13.7200885,3.47947536 L13.485,3.831 L13.119,3.22 L13.173,3.08 L13.224,3.08 L13.3763047,3.26469123 L13.468,3.08 L13.564,3.08 L13.5470081,3.24364186 L13.643,3.08 L13.809,3.08 Z" id="宝安区" stroke="#548FF7" stroke-width="0.8" fill="#0F57EF" fill-rule="nonzero"></path>
        </g>
    </g>
</svg>