<?xml version="1.0" encoding="UTF-8"?>
<svg width="26px" height="26px" viewBox="0 0 26 26" version="1.1" xmlns="http://www.w3.org/2000/svg" xmlns:xlink="http://www.w3.org/1999/xlink">
    <title>5108CA82-6553-4102-97B3-714E32629F46</title>
    <defs>
        <radialGradient cx="50%" cy="0%" fx="50%" fy="0%" r="100%" gradientTransform="translate(0.500000,0.000000),scale(0.809524,1.000000),rotate(90.000000),translate(-0.500000,-0.000000)" id="radialGradient-1">
            <stop stop-color="#F6F2F2" offset="0%"></stop>
            <stop stop-color="#C1C3C2" offset="100%"></stop>
        </radialGradient>
        <radialGradient cx="43.9649435%" cy="50%" fx="43.9649435%" fy="50%" r="726.80628%" gradientTransform="translate(0.439649,0.500000),scale(0.058824,1.000000),rotate(84.262967),translate(-0.439649,-0.500000)" id="radialGradient-2">
            <stop stop-color="#F4F0F0" offset="0%"></stop>
            <stop stop-color="#C1C3C2" offset="100%"></stop>
        </radialGradient>
        <linearGradient x1="17.3765646%" y1="25.0757401%" x2="78.8059301%" y2="78.9495897%" id="linearGradient-3">
            <stop stop-color="#F2F2F2" offset="0%"></stop>
            <stop stop-color="#CBCDCF" offset="37.6104715%"></stop>
            <stop stop-color="#BEC1C4" offset="48.6459144%"></stop>
            <stop stop-color="#D9DFE3" offset="100%"></stop>
        </linearGradient>
        <linearGradient x1="7.60530325%" y1="19.2702127%" x2="80.091589%" y2="84.2157716%" id="linearGradient-4">
            <stop stop-color="#DCDCDC" offset="0%"></stop>
            <stop stop-color="#7F8083" offset="41.4824415%"></stop>
            <stop stop-color="#D9DADA" offset="100%"></stop>
        </linearGradient>
        <linearGradient x1="7.60530325%" y1="19.2702127%" x2="80.091589%" y2="84.2157716%" id="linearGradient-5">
            <stop stop-color="#BBBFC3" offset="0%"></stop>
            <stop stop-color="#7F8083" offset="41.4824415%"></stop>
            <stop stop-color="#B9BBC2" offset="100%"></stop>
        </linearGradient>
        <path d="M2,4.00101885 C2,2.89454915 2.89454915,2 4.00101885,2 C5.10545085,2 6,2.89658687 6,4.00101885 C6,5.10341313 5.10545085,6 4.00101885,6 C2.89658685,6 2,5.10341313 2,4.00101885 Z" id="path-6"></path>
        <filter x="-5.0%" y="-5.0%" width="110.0%" height="110.0%" filterUnits="objectBoundingBox" id="filter-7">
            <feOffset dx="0" dy="0.3" in="SourceAlpha" result="shadowOffsetInner1"></feOffset>
            <feComposite in="shadowOffsetInner1" in2="SourceAlpha" operator="arithmetic" k2="-1" k3="1" result="shadowInnerInner1"></feComposite>
            <feColorMatrix values="0 0 0 0 0   0 0 0 0 0   0 0 0 0 0  0 0 0 0.5 0" type="matrix" in="shadowInnerInner1"></feColorMatrix>
        </filter>
        <filter x="-70.0%" y="-70.0%" width="240.0%" height="240.0%" filterUnits="objectBoundingBox" id="filter-8">
            <feOffset dx="0" dy="0" in="SourceAlpha" result="shadowOffsetOuter1"></feOffset>
            <feGaussianBlur stdDeviation="0.5" in="shadowOffsetOuter1" result="shadowBlurOuter1"></feGaussianBlur>
            <feColorMatrix values="0 0 0 0 0   0 0 0 0 0   0 0 0 0 0  0 0 0 0.16 0" type="matrix" in="shadowBlurOuter1" result="shadowMatrixOuter1"></feColorMatrix>
            <feMerge>
                <feMergeNode in="shadowMatrixOuter1"></feMergeNode>
                <feMergeNode in="SourceGraphic"></feMergeNode>
            </feMerge>
        </filter>
        <path d="M1,2.50076413 C1,1.67091186 1.67091186,1 2.50076413,1 C3.32908814,1 4,1.67244015 4,2.50076413 C4,3.32755985 3.32908814,4 2.50076413,4 C1.67244013,4 1,3.32755985 1,2.50076413 Z" id="path-9"></path>
        <filter x="-6.7%" y="-6.7%" width="113.3%" height="113.3%" filterUnits="objectBoundingBox" id="filter-10">
            <feOffset dx="0" dy="0.3" in="SourceAlpha" result="shadowOffsetInner1"></feOffset>
            <feComposite in="shadowOffsetInner1" in2="SourceAlpha" operator="arithmetic" k2="-1" k3="1" result="shadowInnerInner1"></feComposite>
            <feColorMatrix values="0 0 0 0 0   0 0 0 0 0   0 0 0 0 0  0 0 0 0.5 0" type="matrix" in="shadowInnerInner1"></feColorMatrix>
        </filter>
    </defs>
    <g id="V1.0" stroke="none" stroke-width="1" fill="none" fill-rule="evenodd">
        <g id="工具列表页-A" transform="translate(-885.000000, -236.000000)">
            <g id="内容区" transform="translate(300.000000, 124.000000)">
                <g id="应用/电网项目" transform="translate(20.000000, 80.000000)">
                    <g id="卡片/鼠标悬浮" transform="translate(532.000000, 0.000000)">
                        <g id="logo" transform="translate(26.000000, 25.000000)">
                            <g id="Icon-BAT" transform="translate(7.000000, 7.000000)">
                                <rect id="矩形" stroke="url(#radialGradient-1)" fill="#FFFFFF" x="3.5" y="5.5" width="20" height="16"></rect>
                                <rect id="矩形" fill="url(#radialGradient-2)" opacity="0.649999976" x="6" y="21" width="17" height="1"></rect>
                                <g id="编组" transform="translate(8.000000, 9.000000)" fill-rule="nonzero">
                                    <path d="M7.30434782,3.33806936 C7.26923077,3.16422901 7.22073578,2.9970748 7.16220735,2.83493522 L7.57190636,2.59757627 C7.67056857,2.54074384 7.70401339,2.41537818 7.6471572,2.3167572 L7.23578596,1.60468032 C7.17892977,1.50605934 7.05183947,1.47262849 6.9548495,1.52946094 L6.52842809,1.7751776 C6.41304348,1.64479733 6.28929765,1.52277475 6.1555184,1.41078145 L6.39297659,0.999582118 C6.44983278,0.900961138 6.41471572,0.775595482 6.31605351,0.718763055 L5.60367893,0.307563739 C5.50668896,0.252402849 5.37959865,0.285833694 5.32274248,0.382783119 L5.07692308,0.809026327 C4.91304348,0.752193899 4.74414715,0.710405348 4.57023412,0.680317596 L4.57023412,0.205599666 C4.57023412,0.0919348107 4.47826087,0 4.3645485,0 L3.54347826,0 C3.42809364,0 3.3361204,0.0919348107 3.3361204,0.205599666 L3.3361204,0.69703301 C3.1638796,0.730463855 2.99665551,0.778938575 2.83444815,0.839114079 L2.5986622,0.427914763 C2.54180601,0.329293784 2.41638795,0.295862939 2.3160535,0.352695367 L1.60367892,0.763894699 C1.50501671,0.819055589 1.47157189,0.946092783 1.52842809,1.04471375 L1.77424748,1.47095695 C1.64381271,1.58629335 1.52173911,1.70998747 1.40969899,1.84371083 L1,1.60969495 C0.90133778,1.55286252 0.775919714,1.5879649 0.71739129,1.68491433 L0.306020066,2.39699123 C0.249163879,2.49561221 0.2826087,2.62097786 0.381270893,2.67781028 L0.807692298,2.92352696 C0.752508347,3.08733807 0.709030089,3.25449228 0.680601995,3.42833264 L0.205685603,3.42833264 C0.0919732285,3.42833264 0,3.52026745 0,3.6339323 L0,4.45633097 C0,4.56999582 0.0919732453,4.66193064 0.205685603,4.66193064 L0.697324414,4.66193064 C0.730769235,4.83409946 0.779264221,5.0029252 0.839464882,5.16506476 L0.428093642,5.40242373 C0.329431433,5.45925616 0.297658865,5.58462182 0.352842799,5.68324278 L0.764214039,6.39531968 C0.821070226,6.49226912 0.946488293,6.52737151 1.0451505,6.47053906 L1.47157191,6.2248224 C1.58695652,6.35520267 1.71070235,6.47889679 1.8444816,6.58921855 L1.60702341,7.00041788 C1.55016722,7.09903886 1.58361205,7.22440452 1.68227424,7.28123693 L2.39632107,7.69243626 C2.49331104,7.74926869 2.62040135,7.71583784 2.67558528,7.61721688 L2.92307692,7.19097367 C3.08695652,7.24613456 3.25585285,7.28792311 3.42809364,7.31801087 L3.42809364,7.79440033 C3.42809364,7.90806519 3.52006689,8 3.63377926,8 L4.45819398,8 C4.57190636,8 4.6638796,7.90806519 4.6638796,7.79440033 L4.6638796,7.30296697 C4.8361204,7.26786459 5.00334449,7.22106141 5.16555183,7.1608859 L5.40301004,7.5704137 C5.45986622,7.66903468 5.58361204,7.70246552 5.68227425,7.6456331 L6.39464883,7.23443376 C6.49331103,7.17927287 6.52675586,7.05223568 6.46989967,6.9536147 L6.22408026,6.52737149 C6.35451504,6.4120351 6.47658863,6.28834098 6.58862877,6.15461763 L7,6.39197659 C7.09866222,6.44880902 7.22408029,6.41537817 7.28093646,6.31675721 L7.6923077,5.60468031 C7.74916388,5.50773087 7.71571906,5.38069367 7.61705685,5.32386126 L7.19063545,5.07814458 C7.2458194,4.91433347 7.28929766,4.74550772 7.31939801,4.5733389 L7.79431438,4.5733389 C7.90802675,4.5733389 8,4.48140409 8,4.36773923 L8,3.54366903 C8,3.43000418 7.90802675,3.33806936 7.79431438,3.33806936 L7.30434782,3.33806936 Z" id="形状" stroke="url(#linearGradient-4)" stroke-width="0.1" fill="url(#linearGradient-3)"></path>
                                    <g id="路径">
                                        <use fill="#FFFFFF" xlink:href="#path-6"></use>
                                        <use fill="black" fill-opacity="1" filter="url(#filter-7)" xlink:href="#path-6"></use>
                                        <use stroke="url(#linearGradient-5)" stroke-width="0.1" xlink:href="#path-6"></use>
                                    </g>
                                </g>
                                <g id="编组备份" filter="url(#filter-8)" transform="translate(13.000000, 14.000000)" fill-rule="nonzero">
                                    <path d="M4.56521739,2.08629335 C4.54326923,1.97764313 4.51295986,1.87317175 4.4763796,1.77183451 L4.73244147,1.62348517 C4.79410535,1.5879649 4.81500837,1.50961136 4.77947325,1.44797325 L4.52236623,1.0029252 C4.48683111,0.941287086 4.40739967,0.920392808 4.34678094,0.955913085 L4.08026756,1.109486 C4.00815218,1.02799833 3.93081103,0.951734219 3.847199,0.881738406 L3.99561037,0.624738823 C4.03114548,0.563100711 4.00919732,0.484747177 3.94753344,0.449226909 L3.50229933,0.192227337 C3.4416806,0.157751781 3.36224916,0.178646059 3.32671405,0.239239449 L3.17307692,0.505641455 C3.07065217,0.470121187 2.96509197,0.444003342 2.85639632,0.425198497 L2.85639632,0.128499791 C2.85639632,0.0574592567 2.79891305,0 2.72784281,0 L2.21467391,0 C2.14255853,0 2.08507525,0.0574592567 2.08507525,0.128499791 L2.08507525,0.435645631 C1.97742475,0.456539909 1.87290969,0.48683661 1.77153009,0.5244463 L1.62416388,0.267446727 C1.58862876,0.205808615 1.51024247,0.184914337 1.44753344,0.220434604 L1.00229933,0.477434187 C0.940635445,0.511909743 0.919732432,0.591307989 0.955267559,0.652946091 L1.10890468,0.919348096 C1.02738294,0.991433342 0.951086946,1.06874217 0.88106187,1.15231927 L0.624999993,1.00605934 C0.563336113,0.970539075 0.484949821,0.992478064 0.448369556,1.05307145 L0.191262541,1.49811952 C0.155727424,1.55975763 0.176630437,1.63811117 0.238294308,1.67363142 L0.504807686,1.82720435 C0.470317717,1.92958629 0.443143805,2.03405767 0.425376247,2.1427079 L0.128553502,2.1427079 C0.0574832678,2.1427079 0,2.20016716 0,2.27120769 L0,2.78520686 C0,2.85624739 0.0574832783,2.91370665 0.128553502,2.91370665 L0.435827759,2.91370665 C0.456730772,3.02131216 0.487040138,3.12682825 0.524665551,3.22816548 L0.267558526,3.37651483 C0.205894645,3.4120351 0.186036791,3.49038864 0.220526749,3.55202674 L0.477633774,3.9970748 C0.513168891,4.0576682 0.591555183,4.07960719 0.653219064,4.04408691 L0.919732442,3.890514 C0.991847824,3.97200167 1.06918897,4.04931049 1.152801,4.11826159 L1.00438963,4.37526118 C0.968854515,4.43689929 0.989757528,4.51525282 1.0514214,4.55077308 L1.49770067,4.80777266 C1.5583194,4.84329293 1.63775084,4.82239865 1.6722408,4.76076055 L1.82692308,4.49435855 C1.92934783,4.5288341 2.03490803,4.55495195 2.14255853,4.57375679 L2.14255853,4.87150021 C2.14255853,4.94254074 2.20004181,5 2.27111204,5 L2.78637124,5 C2.85744147,5 2.91492475,4.94254074 2.91492475,4.87150021 L2.91492475,4.56435436 C3.02257525,4.54241537 3.12709031,4.51316338 3.2284699,4.47555369 L3.37688127,4.73150856 C3.41241639,4.79314667 3.48975752,4.81404095 3.5514214,4.77852068 L3.99665552,4.5215211 C4.0583194,4.48704555 4.07922241,4.4076473 4.04368729,4.34600919 L3.89005016,4.07960718 C3.9715719,4.00752194 4.0478679,3.93021311 4.11789298,3.84663602 L4.37500001,3.99498537 C4.43666389,4.03050564 4.51505018,4.00961136 4.55058529,3.94797326 L4.80769231,3.50292519 C4.84322743,3.44233179 4.82232441,3.36293355 4.76066053,3.32741329 L4.49414716,3.17384036 C4.52863712,3.07145842 4.55581104,2.96594233 4.57462375,2.85833681 L4.87144649,2.85833681 C4.94251672,2.85833681 5,2.80087756 5,2.72983702 L5,2.21479314 C5,2.14375261 4.94251672,2.08629335 4.87144649,2.08629335 L4.56521739,2.08629335 Z" id="形状" stroke="url(#linearGradient-4)" stroke-width="0.1" fill="url(#linearGradient-3)"></path>
                                    <g id="路径">
                                        <use fill="#FFFFFF" xlink:href="#path-9"></use>
                                        <use fill="black" fill-opacity="1" filter="url(#filter-10)" xlink:href="#path-9"></use>
                                        <use stroke="url(#linearGradient-5)" stroke-width="0.1" xlink:href="#path-9"></use>
                                    </g>
                                </g>
                                <path d="M17.3250857,20.9991928 C17.6244519,20.9959642 17.8199637,20.9830497 17.9116211,20.9604492 C18.0654297,20.9223633 18.1987305,20.8223877 18.3115234,20.6605225 C18.4243164,20.4986572 18.4807129,20.3005371 18.4807129,20.0661621 C18.4807129,19.8728027 18.4364014,19.7087402 18.3477783,19.5739746 C18.2591553,19.439209 18.1364746,19.3439941 17.9797363,19.2883301 C18.0895996,19.2282715 18.1789551,19.1356201 18.2478027,19.010376 C18.3166504,18.8851318 18.3510742,18.744873 18.3510742,18.5895996 C18.3510742,18.4211426 18.310791,18.2702637 18.2302246,18.1369629 C18.1496582,18.0036621 18.0507812,17.9106445 17.9335938,17.8579102 C17.8164062,17.8051758 17.6135254,17.7788086 17.3249512,17.7788086 L17.3249512,17.7788086 L16.2680664,17.7788086 L16.2680664,21 L17.3250857,20.9991928 Z M17.2682617,19.059375 L16.7998047,19.0598145 L16.7998047,18.3149414 L17.1074219,18.3149414 C17.3886719,18.3149414 17.55896,18.3222656 17.6182861,18.3369141 C17.6776123,18.3515625 17.7281494,18.3885498 17.7698975,18.447876 C17.8116455,18.5072021 17.8325195,18.5844727 17.8325195,18.6796875 C17.8325195,18.7866211 17.8068848,18.8712158 17.7556152,18.9334717 C17.7043457,18.9957275 17.6333008,19.0341797 17.5424805,19.0488281 C17.4926758,19.0561523 17.3623047,19.0598145 17.1513672,19.0598145 L17.2682617,19.059375 Z M17.2941895,20.4572754 L16.7998047,20.4572754 L16.7998047,19.5959473 L17.2304688,19.5959473 C17.4589844,19.5959473 17.6102295,19.6087646 17.6842041,19.6343994 C17.7581787,19.6600342 17.8175049,19.7069092 17.8621826,19.7750244 C17.9068604,19.8431396 17.9291992,19.9299316 17.9291992,20.0354004 C17.9291992,20.1379395 17.9083252,20.2225342 17.8665771,20.2891846 C17.8248291,20.355835 17.7731934,20.4005127 17.7116699,20.4232178 C17.6501465,20.4459229 17.5109863,20.4572754 17.2941895,20.4572754 L17.2941895,20.4572754 Z M19.2299805,21 L19.4475098,20.2683105 L20.5021973,20.2683105 L20.7329102,21 L21.3129883,21 L20.2561035,17.7788086 L19.6914062,17.7788086 L18.6630859,21 L19.2299805,21 Z M20.3308105,19.7255859 L19.6101074,19.7255859 L19.9682617,18.5302734 L20.3308105,19.7255859 Z M22.7214355,21 L22.7214355,18.3237305 L23.5036621,18.3237305 L23.5036621,17.7788086 L21.4052734,17.7788086 L21.4052734,18.3237305 L22.1896973,18.3237305 L22.1896973,21 L22.7214355,21 Z" id="BAT" fill="#666667" fill-rule="nonzero"></path>
                            </g>
                        </g>
                    </g>
                </g>
            </g>
        </g>
    </g>
</svg>