<?xml version="1.0" encoding="UTF-8"?>
<svg width="20px" height="20px" viewBox="0 0 20 20" version="1.1" xmlns="http://www.w3.org/2000/svg" xmlns:xlink="http://www.w3.org/1999/xlink">
    <title>be-in-common-use</title>
    <defs>
        <linearGradient x1="-26.6809645%" y1="74.7911888%" x2="59.7611871%" y2="46.8450032%" id="linearGradient-1">
            <stop stop-color="#3E1D81" offset="0%"></stop>
            <stop stop-color="#3763DD" offset="100%"></stop>
        </linearGradient>
        <linearGradient x1="-0.00400341847%" y1="50%" x2="99.9989847%" y2="50%" id="linearGradient-2">
            <stop stop-color="#5F1DCE" offset="0%"></stop>
            <stop stop-color="#37A9DD" offset="100%"></stop>
        </linearGradient>
        <linearGradient x1="374.624798%" y1="-50.8401009%" x2="-58.854768%" y2="83.6410209%" id="linearGradient-3">
            <stop stop-color="#9B09FF" offset="0%"></stop>
            <stop stop-color="#2509B8" offset="100%"></stop>
        </linearGradient>
        <linearGradient x1="-316.001248%" y1="-48.1470657%" x2="306.955708%" y2="118.905588%" id="linearGradient-4">
            <stop stop-color="#9B09FF" offset="0%"></stop>
            <stop stop-color="#2509B8" offset="100%"></stop>
        </linearGradient>
        <linearGradient x1="-47.5786122%" y1="67.0364898%" x2="212.750431%" y2="20.0162813%" id="linearGradient-5">
            <stop stop-color="#00A7F6" offset="0%"></stop>
            <stop stop-color="#032D8F" offset="100%"></stop>
        </linearGradient>
        <linearGradient x1="374.624798%" y1="-56.6793115%" x2="-58.854768%" y2="85.5890257%" id="linearGradient-6">
            <stop stop-color="#9B09FF" offset="0%"></stop>
            <stop stop-color="#2509B8" offset="100%"></stop>
        </linearGradient>
        <linearGradient x1="-316.001248%" y1="-52.0705746%" x2="306.955708%" y2="121.660145%" id="linearGradient-7">
            <stop stop-color="#9B09FF" offset="0%"></stop>
            <stop stop-color="#2509B8" offset="100%"></stop>
        </linearGradient>
        <linearGradient x1="-47.5786122%" y1="67.0004176%" x2="212.750431%" y2="20.0797672%" id="linearGradient-8">
            <stop stop-color="#00A7F6" offset="0%"></stop>
            <stop stop-color="#032D8F" offset="100%"></stop>
        </linearGradient>
        <linearGradient x1="374.624798%" y1="-56.2777141%" x2="-58.854768%" y2="85.4550498%" id="linearGradient-9">
            <stop stop-color="#9B09FF" offset="0%"></stop>
            <stop stop-color="#2509B8" offset="100%"></stop>
        </linearGradient>
        <linearGradient x1="-316.001248%" y1="-51.0385671%" x2="306.955708%" y2="120.935609%" id="linearGradient-10">
            <stop stop-color="#9B09FF" offset="0%"></stop>
            <stop stop-color="#2509B8" offset="100%"></stop>
        </linearGradient>
        <linearGradient x1="-47.5786122%" y1="67.0322695%" x2="212.750431%" y2="20.0237088%" id="linearGradient-11">
            <stop stop-color="#00A7F6" offset="0%"></stop>
            <stop stop-color="#032D8F" offset="100%"></stop>
        </linearGradient>
        <linearGradient x1="45.7409954%" y1="-34.8654336%" x2="52.9719428%" y2="109.547015%" id="linearGradient-12">
            <stop stop-color="#3281FF" offset="0%"></stop>
            <stop stop-color="#241B96" offset="93%"></stop>
            <stop stop-color="#23138E" offset="100%"></stop>
        </linearGradient>
        <linearGradient x1="43.4556909%" y1="4.11671568%" x2="70.7006831%" y2="194.820176%" id="linearGradient-13">
            <stop stop-color="#3281FF" offset="0%"></stop>
            <stop stop-color="#241B96" offset="93%"></stop>
            <stop stop-color="#23138E" offset="100%"></stop>
        </linearGradient>
        <linearGradient x1="-47.5786122%" y1="66.7545138%" x2="212.750431%" y2="20.5125507%" id="linearGradient-14">
            <stop stop-color="#00A7F6" offset="0%"></stop>
            <stop stop-color="#032D8F" offset="100%"></stop>
        </linearGradient>
        <linearGradient x1="-316.001248%" y1="-58.083766%" x2="306.955708%" y2="125.881794%" id="linearGradient-15">
            <stop stop-color="#9B09FF" offset="0%"></stop>
            <stop stop-color="#2509B8" offset="100%"></stop>
        </linearGradient>
        <linearGradient x1="374.624798%" y1="-64.1027928%" x2="-58.854768%" y2="88.0655553%" id="linearGradient-16">
            <stop stop-color="#9B09FF" offset="0%"></stop>
            <stop stop-color="#2509B8" offset="100%"></stop>
        </linearGradient>
        <linearGradient x1="-47.5786122%" y1="66.7597447%" x2="212.750431%" y2="20.5033444%" id="linearGradient-17">
            <stop stop-color="#00A7F6" offset="0%"></stop>
            <stop stop-color="#032D8F" offset="100%"></stop>
        </linearGradient>
        <linearGradient x1="-316.001248%" y1="-58.0834904%" x2="306.955708%" y2="125.881601%" id="linearGradient-18">
            <stop stop-color="#9B09FF" offset="0%"></stop>
            <stop stop-color="#2509B8" offset="100%"></stop>
        </linearGradient>
        <linearGradient x1="374.624798%" y1="-64.0896548%" x2="-58.854768%" y2="88.0611724%" id="linearGradient-19">
            <stop stop-color="#9B09FF" offset="0%"></stop>
            <stop stop-color="#2509B8" offset="100%"></stop>
        </linearGradient>
        <linearGradient x1="48.8932378%" y1="-34.8654336%" x2="50.7723011%" y2="109.547015%" id="linearGradient-20">
            <stop stop-color="#3281FF" offset="0%"></stop>
            <stop stop-color="#241B96" offset="93%"></stop>
            <stop stop-color="#23138E" offset="100%"></stop>
        </linearGradient>
        <linearGradient x1="48.1290732%" y1="4.11671568%" x2="55.9180368%" y2="194.820176%" id="linearGradient-21">
            <stop stop-color="#3281FF" offset="0%"></stop>
            <stop stop-color="#241B96" offset="93%"></stop>
            <stop stop-color="#23138E" offset="100%"></stop>
        </linearGradient>
        <linearGradient x1="49.0258299%" y1="59.3658537%" x2="54.7515645%" y2="3.75609756%" id="linearGradient-22">
            <stop stop-color="#FFD54D" offset="0%"></stop>
            <stop stop-color="#FF5E61" offset="100%"></stop>
        </linearGradient>
        <linearGradient x1="128.40024%" y1="76.3619429%" x2="-107.24985%" y2="-11.417718%" id="linearGradient-23">
            <stop stop-color="#1CFBE9" offset="0%"></stop>
            <stop stop-color="#38FF9B" offset="100%"></stop>
        </linearGradient>
        <linearGradient x1="103.350251%" y1="160.903514%" x2="15.4960466%" y2="17.3452315%" id="linearGradient-24">
            <stop stop-color="#E94287" offset="0%"></stop>
            <stop stop-color="#FCA15A" offset="100%"></stop>
        </linearGradient>
        <linearGradient x1="49.9656409%" y1="4.1031653%" x2="50.0343591%" y2="103.634232%" id="linearGradient-25">
            <stop stop-color="#B24592" offset="0%"></stop>
            <stop stop-color="#F15F79" offset="100%"></stop>
        </linearGradient>
        <linearGradient x1="-0.407331976%" y1="35.1923443%" x2="141.955193%" y2="75.4643783%" id="linearGradient-26">
            <stop stop-color="#B24592" offset="0%"></stop>
            <stop stop-color="#F15F79" offset="100%"></stop>
        </linearGradient>
        <linearGradient x1="49.2303031%" y1="151.517939%" x2="51.0202959%" y2="-93.8362466%" id="linearGradient-27">
            <stop stop-color="#3281FF" offset="0%"></stop>
            <stop stop-color="#241B96" offset="93%"></stop>
            <stop stop-color="#23138E" offset="100%"></stop>
        </linearGradient>
        <linearGradient x1="-61.1022965%" y1="55.174602%" x2="170.05428%" y2="44.4164337%" id="linearGradient-28">
            <stop stop-color="#9B09FF" offset="0%"></stop>
            <stop stop-color="#2509B8" offset="100%"></stop>
        </linearGradient>
        <linearGradient x1="-12.57503%" y1="63.4744331%" x2="144.407763%" y2="29.7177357%" id="linearGradient-29">
            <stop stop-color="#00A7F6" offset="0%"></stop>
            <stop stop-color="#032D8F" offset="100%"></stop>
        </linearGradient>
        <linearGradient x1="122.689076%" y1="59.4476258%" x2="-46.1684674%" y2="39.9077791%" id="linearGradient-30">
            <stop stop-color="#1CFBE9" offset="0%"></stop>
            <stop stop-color="#38FF9B" offset="100%"></stop>
        </linearGradient>
        <linearGradient x1="-24.6786042%" y1="86.2258754%" x2="287.213039%" y2="-65.039845%" id="linearGradient-31">
            <stop stop-color="#00A7F6" offset="0%"></stop>
            <stop stop-color="#032D8F" offset="100%"></stop>
        </linearGradient>
        <linearGradient x1="-56.6539924%" y1="13.7425606%" x2="233.014291%" y2="112.220644%" id="linearGradient-32">
            <stop stop-color="#00CCFF" offset="0%"></stop>
            <stop stop-color="#03C3E2" offset="100%"></stop>
        </linearGradient>
        <linearGradient x1="49.8697836%" y1="59.3658537%" x2="50.6351372%" y2="3.75609756%" id="linearGradient-33">
            <stop stop-color="#FFD54D" offset="0%"></stop>
            <stop stop-color="#FF5E61" offset="100%"></stop>
        </linearGradient>
        <linearGradient x1="49.9819626%" y1="4.1031653%" x2="50.0180374%" y2="103.634232%" id="linearGradient-34">
            <stop stop-color="#B24592" offset="0%"></stop>
            <stop stop-color="#F15F79" offset="100%"></stop>
        </linearGradient>
        <linearGradient x1="-0.407331976%" y1="27.3404844%" x2="141.955193%" y2="88.9670376%" id="linearGradient-35">
            <stop stop-color="#B24592" offset="0%"></stop>
            <stop stop-color="#F15F79" offset="100%"></stop>
        </linearGradient>
        <linearGradient x1="57.3832214%" y1="155.107084%" x2="46.2606941%" y2="-3.62438221%" id="linearGradient-36">
            <stop stop-color="#E94287" offset="0%"></stop>
            <stop stop-color="#FCA15A" offset="100%"></stop>
        </linearGradient>
        <linearGradient x1="-0.407331976%" y1="27.3944035%" x2="141.955193%" y2="88.8743141%" id="linearGradient-37">
            <stop stop-color="#B24592" offset="0%"></stop>
            <stop stop-color="#F15F79" offset="100%"></stop>
        </linearGradient>
        <linearGradient x1="57.3680296%" y1="155.107084%" x2="46.2683881%" y2="-3.62438221%" id="linearGradient-38">
            <stop stop-color="#E94287" offset="0%"></stop>
            <stop stop-color="#FCA15A" offset="100%"></stop>
        </linearGradient>
        <linearGradient x1="49.9819514%" y1="4.1031653%" x2="50.0180486%" y2="103.634232%" id="linearGradient-39">
            <stop stop-color="#B24592" offset="0%"></stop>
            <stop stop-color="#F15F79" offset="100%"></stop>
        </linearGradient>
    </defs>
    <g id="图标" stroke="none" stroke-width="1" fill="none" fill-rule="evenodd">
        <g id="be-in-common-use" transform="translate(-0.000000, 0.000000)" fill-rule="nonzero">
            <path d="M0.00204397417,13.7129109 L0.00204397417,13.7129109 L0.00204397417,13.2960551 L0.120774227,13.2163238 L0.220438309,13.3350541 L8.224764,8.72190708 C8.62531816,8.49044042 9.11897625,8.49044042 9.51953041,8.72190708 L19.4339399,14.4460919 L19.6012022,14.2952958 L19.6705337,14.3715605 L19.6705337,14.8499481 L19.6705337,14.8499481 C19.6658022,15.0002674 19.5834668,15.1373837 19.4530061,15.2122054 L11.4478137,19.8270857 C11.0467054,20.0576381 10.553289,20.0576381 10.1521807,19.8270857 L0.219571665,14.0899012 C0.085171118,14.0127181 0.00204397417,13.8696303 0.00204397417,13.7146442 L0.00204397417,13.7146442 L0.00204397417,13.7129109 Z" id="路径" fill="url(#linearGradient-1)"></path>
            <path d="M11.449547,19.3599644 L19.4547393,14.7450842 C19.5913661,14.6683874 19.6759477,14.5239094 19.6759477,14.3672273 C19.6759477,14.2105452 19.5913661,14.0660672 19.4547393,13.9893704 L9.52213034,8.25478586 C9.12124292,8.02456535 8.62825136,8.02456535 8.22736393,8.25478586 L0.220438309,12.8687995 C0.0842436115,12.9456194 0,13.0898571 0,13.246223 C0,13.4025889 0.0842436115,13.5468267 0.220438309,13.6236466 L10.153914,19.3590978 C10.554868,19.5899186 11.0482845,19.5902487 11.449547,19.3599644 Z" id="路径" fill="url(#linearGradient-2)"></path>
            <g id="编组" transform="translate(2.550845, 9.124030)">
                <polygon id="路径" fill="url(#linearGradient-3)" points="7.93152758 8.62657622 7.93152758 8.89870249 14.8334819 4.91040595 14.8334819 4.63827968"></polygon>
                <polygon id="路径" fill="url(#linearGradient-4)" points="7.93152758 8.62657622 3.07893865e-16 4.05156156 3.07893865e-16 4.32368784 7.93152758 8.89870249"></polygon>
                <polygon id="路径" fill="url(#linearGradient-5)" points="14.8334819 4.63827968 6.83782262 0 3.07893865e-16 4.05156156 7.93152758 8.62657622"></polygon>
            </g>
            <g id="编组" transform="translate(3.002366, 9.102364)">
                <polygon id="路径" fill="url(#linearGradient-6)" points="7.48000596 7.90552825 7.48000596 8.24438613 13.6089136 4.69201162 13.608047 4.35315374"></polygon>
                <polygon id="路径" fill="url(#linearGradient-7)" points="7.48000596 7.90552825 0 3.58270706 0 3.92069829 7.48000596 8.24438613"></polygon>
                <polygon id="路径" fill="url(#linearGradient-8)" points="13.608047 4.35315374 6.06304272 0 0 3.58270706 7.48000596 7.90552825"></polygon>
            </g>
            <g id="编组" transform="translate(3.543152, 9.157829)">
                <polygon id="路径" fill="url(#linearGradient-9)" points="6.9296869 7.12728178 6.9296869 7.40980778 12.2578153 4.31675468 12.2569487 4.03336204"></polygon>
                <polygon id="路径" fill="url(#linearGradient-10)" points="6.9296869 7.12728178 0 3.11298591 0 3.39637856 6.9296869 7.40980778"></polygon>
                <polygon id="路径" fill="url(#linearGradient-11)" points="0 3.11298591 5.28132966 0 12.2569487 4.03336204 6.9296869 7.12728178"></polygon>
            </g>
            <g id="编组" transform="translate(4.473928, 6.268437)">
                <polygon id="路径" fill="url(#linearGradient-12)" points="5.76665041 6.00497756 5.77011698 9.4030894 10.3875972 6.73642525 10.383264 3.32011387"></polygon>
                <polygon id="路径" fill="url(#linearGradient-13)" points="5.76665041 6.00497756 0 2.68226375 0.00433322092 6.06910923 5.77011698 9.4030894"></polygon>
                <polygon id="路径" fill="#67C17E" points="10.383264 3.32011387 4.63047988 0 0 2.68226375 5.76665041 6.00497756"></polygon>
            </g>
            <polygon id="路径" fill="url(#linearGradient-14)" points="15.1986498 9.23669372 9.02380994 5.68085263 4.07873822 8.5243122 10.2544447 12.0940196"></polygon>
            <polygon id="路径" fill="url(#linearGradient-15)" points="10.2544447 12.0957529 4.07873822 8.5243122 4.07873822 8.91516873 10.2544447 12.4848761"></polygon>
            <polygon id="路径" fill="url(#linearGradient-16)" points="15.1986498 9.23842701 10.2544447 12.0957529 10.2544447 12.4848761 15.1986498 9.62755025"></polygon>
            <polygon id="路径" fill="url(#linearGradient-17)" points="14.7982601 8.79557183 9.14687341 5.54132292 4.62212412 8.1438554 10.2735109 11.411104"></polygon>
            <polygon id="路径" fill="url(#linearGradient-18)" points="10.2735109 11.4119706 4.62212412 8.1438554 4.62212412 8.50091281 10.2735109 11.7681614"></polygon>
            <polygon id="路径" fill="url(#linearGradient-19)" points="14.7982601 8.79730512 10.2735109 11.4119706 10.2735109 11.7681614 14.7982601 9.15349588"></polygon>
            <g id="编组" transform="translate(6.304280, 0.562452)">
                <polygon id="路径" fill="url(#linearGradient-20)" points="3.86869964 4.02902882 3.87129957 10.2324679 6.96868589 8.44284765 6.96608596 2.22727555"></polygon>
                <polygon id="路径" fill="url(#linearGradient-21)" points="3.86869964 4.02902882 0 1.79915333 0.00259993255 7.9947926 3.87129957 10.2324679"></polygon>
                <g id="编组-2" transform="translate(1.074200, 3.372737)">
                    <polygon id="_路径_13" fill="url(#linearGradient-22)" points="1.7420928 1.0039709 1.74000771 2.13721738 0 1.13324648 0.00208509013 0"></polygon>
                    <polygon id="_路径_15" fill="url(#linearGradient-23)" points="1.74000771 2.13721738 0 1.13324648 0.264806446 0.973737089 1.74000771 1.81090077"></polygon>
                    <polygon id="_路径_16" fill="#FFFFFF" opacity="0.1" points="0.267934081 0.800674609 1.18537374 0.682867016 0.265848991 0.151169034"></polygon>
                    <polygon id="_路径_17" fill="url(#linearGradient-24)" points="0.204338832 1.00709853 0.206423923 0.116765047 0.146998854 0.08236106 0.145956309 0.973737089 0.144913764 0.972694544 0.144913764 1.0456727 1.74000771 1.95164436 1.74000771 1.87553857"></polygon>
                    <polygon id="_路径_18" fill="url(#linearGradient-25)" points="0.263763901 0.972694544 0.204338832 1.00605599 0.206423923 0.116765047 0.265848991 0.151169034"></polygon>
                    <polygon id="_路径_19" fill="url(#linearGradient-26)" points="1.74000771 1.87553857 0.204338832 1.00605599 0.263763901 0.972694544 1.74000771 1.80360296"></polygon>
                    <polygon id="_路径_20" fill="url(#linearGradient-27)" points="0.00208509013 0 0.146998854 0.08236106 0.144913764 1.0456727 0 1.13324648"></polygon>
                </g>
                <g id="编组-2" transform="translate(1.074200, 5.143573)">
                    <polygon id="_路径_13" fill="url(#linearGradient-22)" points="1.7420928 1.0039709 1.74000771 2.13721738 0 1.13324648 0.00208509013 0"></polygon>
                    <polygon id="_路径_15" fill="url(#linearGradient-23)" points="1.74000771 2.13721738 0 1.13324648 0.264806446 0.973737089 1.74000771 1.81090077"></polygon>
                    <polygon id="_路径_16" fill="#FFFFFF" opacity="0.1" points="0.267934081 0.800674609 1.18537374 0.682867016 0.265848991 0.151169034"></polygon>
                    <polygon id="_路径_17" fill="url(#linearGradient-24)" points="0.204338832 1.00709853 0.206423923 0.116765047 0.146998854 0.08236106 0.145956309 0.973737089 0.144913764 0.972694544 0.144913764 1.0456727 1.74000771 1.95164436 1.74000771 1.87553857"></polygon>
                    <polygon id="_路径_18" fill="url(#linearGradient-25)" points="0.263763901 0.972694544 0.204338832 1.00605599 0.206423923 0.116765047 0.265848991 0.151169034"></polygon>
                    <polygon id="_路径_19" fill="url(#linearGradient-26)" points="1.74000771 1.87553857 0.204338832 1.00605599 0.263763901 0.972694544 1.74000771 1.80360296"></polygon>
                    <polygon id="_路径_20" fill="url(#linearGradient-27)" points="0.00208509013 0 0.146998854 0.08236106 0.144913764 1.0456727 0 1.13324648"></polygon>
                </g>
                <g id="编组-2" transform="translate(1.074200, 6.914408)">
                    <polygon id="_路径_13" fill="url(#linearGradient-22)" points="1.7420928 1.0039709 1.74000771 2.13721738 0 1.13324648 0.00208509013 0"></polygon>
                    <polygon id="_路径_15" fill="url(#linearGradient-23)" points="1.74000771 2.13721738 0 1.13324648 0.264806446 0.973737089 1.74000771 1.81090077"></polygon>
                    <polygon id="_路径_16" fill="#FFFFFF" opacity="0.1" points="0.267934081 0.800674609 1.18537374 0.682867016 0.265848991 0.151169034"></polygon>
                    <polygon id="_路径_17" fill="url(#linearGradient-24)" points="0.204338832 1.00709853 0.206423923 0.116765047 0.146998854 0.08236106 0.145956309 0.973737089 0.144913764 0.972694544 0.144913764 1.0456727 1.74000771 1.95164436 1.74000771 1.87553857"></polygon>
                    <polygon id="_路径_18" fill="url(#linearGradient-25)" points="0.263763901 0.972694544 0.204338832 1.00605599 0.206423923 0.116765047 0.265848991 0.151169034"></polygon>
                    <polygon id="_路径_19" fill="url(#linearGradient-26)" points="1.74000771 1.87553857 0.204338832 1.00605599 0.263763901 0.972694544 1.74000771 1.80360296"></polygon>
                    <polygon id="_路径_20" fill="url(#linearGradient-27)" points="0.00208509013 0 0.146998854 0.08236106 0.144913764 1.0456727 0 1.13324648"></polygon>
                </g>
                <polygon id="路径" fill="#67C17E" points="6.96608596 2.22727555 3.10605276 0 0 1.79915333 3.86869964 4.02902882"></polygon>
            </g>
            <polygon id="路径" fill="url(#linearGradient-28)" points="13.5476926 2.38587144 9.40426673 0 6.0867528 1.90835049 10.2301786 4.30288838"></polygon>
            <polygon id="路径" fill="url(#linearGradient-29)" points="12.8171115 2.3399393 9.48486464 0.421189074 6.81733384 1.95601593 10.1495807 3.8816993"></polygon>
            <polygon id="路径" fill="url(#linearGradient-30)" points="9.48486464 0.656916292 12.6125835 2.45780291 12.8171115 2.3399393 9.48486464 0.421189074 6.81733384 1.95601593 7.02186187 2.07387953"></polygon>
            <polygon id="路径" fill="url(#linearGradient-31)" points="13.5476926 2.38673808 10.2301786 4.30375502 10.2301786 4.70761121 13.5476926 2.79059427"></polygon>
            <g id="编组" transform="translate(6.086753, 1.907484)" fill="url(#linearGradient-32)">
                <polygon id="路径" points="0 -3.8374425e-17 0 0.404722834 4.14342585 2.80012736 4.14342585 2.39627117"></polygon>
            </g>
            <g id="编组" transform="translate(4.956649, 9.828612)">
                <polygon id="路径" fill="url(#linearGradient-33)" points="1.00184068 0.578051671 0.999240745 3.36344608 0 2.78539441 0.00173328837 0.00173328837"></polygon>
                <polygon id="路径" fill="url(#linearGradient-34)" points="0.00173328837 0 0.236593862 0.136929781 0.236593862 2.63546497 0 2.78539441"></polygon>
                <polygon id="路径" fill="url(#linearGradient-35)" points="1.00097403 3.06532048 0.999240745 3.36344608 0 2.78539441 0.236593862 2.63546497"></polygon>
            </g>
            <path d="M5.95762281,10.4066634 L5.95762281,10.4066634 L4.95751542,9.8286117 L4.95751542,12.6148728 L5.95848946,13.1929244 L5.95762281,10.4066634 Z M5.87875819,13.055128 L5.0355134,12.5672073 L5.0355134,9.96727477 L5.88049148,10.4560621 L5.87875819,13.055128 Z" id="形状" fill="url(#linearGradient-36)"></path>
            <polygon id="路径" fill="#FFFFFF" opacity="0.1" points="5.66296379 10.3277988 5.03638004 12.1122191 5.0355134 9.96554148"></polygon>
            <g id="编组" transform="translate(6.072886, 10.476862)">
                <polygon id="路径" fill="url(#linearGradient-33)" points="1.00184068 0.578051671 0.999240745 3.36344608 0 2.78539441 0.00173328837 0.00173328837"></polygon>
                <polygon id="路径" fill="url(#linearGradient-34)" points="0.00173328837 0 0.236593862 0.136929781 0.236593862 2.63633161 0 2.78539441"></polygon>
                <polygon id="路径" fill="url(#linearGradient-37)" points="1.00097403 3.06532048 0.999240745 3.36344608 0 2.78539441 0.236593862 2.63633161"></polygon>
            </g>
            <path d="M7.07386052,11.0549132 L7.07386052,11.0549132 L6.07375313,10.4777282 L6.07375313,13.2665892 L7.07472717,13.8455075 L7.07386052,11.0549132 Z M6.99326261,13.6999113 L6.15001782,13.2119906 L6.15001782,10.612058 L6.99326261,11.0999787 L6.99326261,13.6999113 Z" id="形状" fill="url(#linearGradient-38)"></path>
            <polygon id="路径" fill="#FFFFFF" opacity="0.1" points="6.7792015 10.9760486 6.15261775 12.760469 6.15175111 10.6137913"></polygon>
            <g id="编组" transform="translate(7.544448, 11.325306)">
                <polygon id="路径" fill="url(#linearGradient-33)" points="1.00184068 0.578918315 1.00010739 3.36344608 0 2.78539441 0.00173328837 0.00173328837"></polygon>
                <polygon id="路径" fill="url(#linearGradient-34)" points="0.00173328837 0 0.236593862 0.136929781 0.236593862 2.63546497 0 2.78539441"></polygon>
                <polygon id="路径" fill="url(#linearGradient-35)" points="1.00097403 3.06618713 1.00010739 3.36344608 0 2.78539441 0.236593862 2.63546497"></polygon>
            </g>
            <path d="M8.54542235,11.9033579 L8.54542235,11.9033579 L7.54531496,11.3261729 L7.54531496,14.1115673 L8.54628899,14.6904856 L8.54542235,11.9033579 Z M8.46655773,14.5518225 L7.62331294,14.0639018 L7.62331294,11.4639693 L8.46829102,11.9527566 L8.46655773,14.5518225 Z" id="形状" fill="url(#linearGradient-36)"></path>
            <polygon id="路径" fill="#FFFFFF" opacity="0.1" points="8.25076332 11.8244933 7.62417958 13.6089136 7.62331294 11.462236"></polygon>
            <g id="编组" transform="translate(8.660686, 11.970956)">
                <polygon id="路径" fill="url(#linearGradient-33)" points="1.00184068 0.578051671 1.00010739 3.36344608 0 2.78452777 0.00173328837 0.00173328837"></polygon>
                <polygon id="路径" fill="url(#linearGradient-39)" points="0.00173328837 0 0.236593862 0.136929781 0.236593862 2.63546497 0 2.78452777"></polygon>
                <polygon id="路径" fill="url(#linearGradient-35)" points="1.00097403 3.06532048 1.00010739 3.36344608 0 2.78452777 0.236593862 2.63546497"></polygon>
            </g>
            <path d="M9.66166006,12.5481412 L9.66166006,12.5481412 L8.66155267,11.9666229 L8.66155267,14.7520173 L9.6625267,15.3309356 L9.66166006,12.5481412 Z M9.58279544,15.1966058 L8.73955065,14.7095517 L8.73955065,12.1096192 L9.58452873,12.5975399 L9.58279544,15.1966058 Z" id="形状" fill="url(#linearGradient-36)"></path>
            <polygon id="路径" fill="#FFFFFF" opacity="0.1" points="9.36700103 12.4701432 8.74041729 14.2536969 8.73955065 12.1070193"></polygon>
        </g>
    </g>
</svg>