<?xml version="1.0" encoding="UTF-8"?>
<svg width="40px" height="40px" viewBox="0 0 40 40" version="1.1" xmlns="http://www.w3.org/2000/svg" xmlns:xlink="http://www.w3.org/1999/xlink">
    <title>D8C23E0A-2358-45A0-A988-E1A7CD9EA4E0</title>
    <defs>
        <linearGradient x1="24.588135%" y1="12.8516674%" x2="50%" y2="62.6278893%" id="linearGradient-1">
            <stop stop-color="#A4D1FF" offset="0%"></stop>
            <stop stop-color="#5CABFB" offset="100%"></stop>
        </linearGradient>
        <linearGradient x1="0%" y1="4.4014251%" x2="100%" y2="95.5985749%" id="linearGradient-2">
            <stop stop-color="#FFFFFF" stop-opacity="0" offset="0%"></stop>
            <stop stop-color="#FFFFFF" offset="100%"></stop>
        </linearGradient>
    </defs>
    <g id="入口卡片" stroke="none" stroke-width="1" fill="none" fill-rule="evenodd">
        <g id="卡片项---功能入口卡片" transform="translate(-241.000000, -3824.000000)" fill-rule="nonzero">
            <g id="功能入口卡片" transform="translate(181.000000, 381.000000)">
                <g id="自定义" transform="translate(0.000000, 2907.000000)">
                    <g id="2" transform="translate(7.000000, 414.000000)">
                        <g id="自定义-1" transform="translate(0.000000, 42.000000)">
                            <g id="卡片" transform="translate(20.000000, 62.000000)">
                                <g id="我的收藏" transform="translate(33.000000, 18.000000)">
                                    <rect id="矩形" fill="#000000" opacity="0" x="0" y="0" width="40" height="40"></rect>
                                    <path d="M35.4726562,13.7929687 L25.5546875,12.3515625 L21.1210937,3.36328125 C21,3.1171875 20.8007812,2.91796875 20.5546875,2.796875 C19.9375,2.4921875 19.1875,2.74609375 18.8789062,3.36328125 L14.4453125,12.3515625 L4.52734375,13.7929687 C4.25390625,13.8320312 4.00390625,13.9609375 3.8125,14.15625 C3.33203125,14.6523437 3.33984375,15.4414062 3.8359375,15.9257812 L11.0117187,22.921875 L9.31640625,32.8007812 C9.26953125,33.0703125 9.3125,33.3515625 9.44140625,33.59375 C9.76171875,34.203125 10.5195312,34.4414062 11.1289062,34.1171875 L20,29.453125 L28.8710938,34.1171875 C29.1132812,34.2460938 29.3945312,34.2890625 29.6640625,34.2421875 C30.34375,34.125 30.8007812,33.4804688 30.6835937,32.8007812 L28.9882812,22.921875 L36.1640625,15.9257812 C36.359375,15.734375 36.4882812,15.484375 36.5273437,15.2109375 C36.6328125,14.5273437 36.15625,13.8945312 35.4726562,13.7929687 Z" id="路径" fill="#1979FF"></path>
                                    <path d="M19.4411559,2.2606386 C19.86567,2.11715481 20.3440905,2.13530045 20.7754413,2.34824626 C21.0718653,2.49410567 21.3197954,2.72079167 21.4914501,3.00054204 L21.4914501,3.00054204 L25.8865621,11.894542 L35.5461354,13.2983974 C36.0250413,13.3695491 36.4310035,13.6275447 36.6984676,13.9871354 C36.9660593,14.3468974 37.0953963,14.8082008 37.0223185,15.2816482 C36.9752818,15.6109048 36.835519,15.9160421 36.6233485,16.1655677 L36.6233485,16.1655677 L29.4034969,23.2144755 C26.0272935,26.5722193 23.0810095,28.7367444 20.5122025,29.7888859 L20.5122025,29.7888859 L11.3637597,34.5585987 C10.9370405,34.7856352 10.4584115,34.8164335 10.0300704,34.6835685 C9.60134866,34.5505854 9.22335002,34.2535362 9.00003287,33.8286745 C8.84456618,33.5365856 8.77745183,33.2041264 8.80346418,32.876164 L8.80346418,32.876164 L10.4746242,23.0965393 L3.4866348,16.2835348 C3.13997979,15.9450685 2.96398717,15.5002135 2.95806816,15.0533281 C2.95213891,14.6056696 3.11701371,14.1556573 3.45539358,13.8062857 C3.68548805,13.5714954 3.97622809,13.4055964 4.29605928,13.3286946 L4.29605928,13.3286946 L14.1131081,11.89478 L18.4316927,3.13967445 C18.6473652,2.70832931 19.0172828,2.40390572 19.4411559,2.2606386 Z" id="形状结合" stroke="url(#linearGradient-2)" fill-opacity="0.7" fill="url(#linearGradient-1)"></path>
                                    <path d="M24.3890139,17.8881254 L21.93174,17.5310029 L20.8332737,15.3040681 C20.8032715,15.243096 20.7539131,15.1937376 20.692941,15.1637354 C20.5400267,15.0882461 20.3542069,15.1511539 20.2777498,15.3040681 L19.1792835,17.5310029 L16.7220095,17.8881254 C16.6542627,17.8978035 16.5923228,17.9297413 16.5449,17.9781319 C16.4258591,18.101044 16.4277948,18.2965419 16.5507069,18.4165506 L18.328577,20.1499014 L17.9085467,22.5974972 C17.8969329,22.6642762 17.9075789,22.7339586 17.9395167,22.7939629 C18.0188772,22.9449416 18.2066327,23.0039781 18.3576113,22.9236497 L20.5555117,21.7680825 L22.7534121,22.9236497 C22.8134164,22.9555875 22.8830989,22.9662334 22.9498779,22.9546197 C23.1182771,22.9255853 23.2315111,22.7658964 23.2024767,22.5974972 L22.7824465,20.1499014 L24.5603166,18.4165506 C24.6087072,18.3691278 24.6406449,18.3071879 24.6503231,18.239441 C24.676454,18.070074 24.558381,17.9132885 24.3890139,17.8881254 Z" id="路径" fill="#FFFFFF"></path>
                                </g>
                            </g>
                        </g>
                    </g>
                </g>
            </g>
        </g>
    </g>
</svg>