<?xml version="1.0" encoding="UTF-8"?>
<svg width="14px" height="14px" viewBox="0 0 14 14" version="1.1" xmlns="http://www.w3.org/2000/svg" xmlns:xlink="http://www.w3.org/1999/xlink">
    <title>交易</title>
    <defs>
        <path d="M4.447625,9.75 C4.68980241,11.1808846 5.51328052,12.447774 6.72262499,13.25 L0.875000006,13.25 C0.391750846,13.25 0,12.8582492 0,12.375 L0,10.625 C0,10.1417508 0.391750846,9.75 0.875000006,9.75 L4.447625,9.75 L4.447625,9.75 Z M9.625,4.5 C12.0412458,4.5 14,6.45875422 14,8.875 C14,11.2912458 12.0412458,13.25 9.625,13.25 C7.20875422,13.25 5.25,11.2912458 5.25,8.875 C5.25,6.45875422 7.20875422,4.5 9.625,4.5 Z M8.6275,7.12499794 L8.19875,7.12499794 C8.13423609,7.12468754 8.07478271,7.15989558 8.04404368,7.21661642 C8.01330464,7.27333725 8.01626617,7.34237014 8.05175,7.39625001 L9.055375,8.93625 L8.29675,8.93625 C8.25033712,8.93624999 8.20582518,8.95468744 8.17300631,8.9875063 C8.14018744,9.02032517 8.12174999,9.0648371 8.12174999,9.11124999 L8.12174999,9.322125 C8.12174999,9.41837499 8.20049999,9.49712499 8.29675,9.49712499 L9.268,9.49712499 L9.27412499,9.50325 L9.27412499,9.955625 L8.29675,9.955625 C8.25033712,9.955625 8.20582518,9.97406244 8.17300631,10.0068813 C8.14018744,10.0397002 8.12174999,10.0842121 8.12174999,10.130625 L8.12174999,10.347625 C8.12174999,10.443875 8.20049999,10.522625 8.29675,10.522625 L9.27412499,10.522625 L9.27412499,11.0765 C9.27412499,11.17275 9.35287499,11.2515 9.449125,11.2515 L9.800875,11.2515 C9.89752483,11.2515 9.97587499,11.1731498 9.97587499,11.0765 L9.97587499,10.522625 L10.969875,10.522625 C11.0162879,10.522625 11.0607998,10.5041876 11.0936187,10.4713687 C11.1264376,10.4385498 11.144875,10.3940379 11.144875,10.347625 L11.144875,10.130625 C11.144875,10.0842121 11.1264376,10.0397002 11.0936187,10.0068813 C11.0607998,9.97406244 11.0162879,9.955625 10.969875,9.955625 L9.97499999,9.955625 L9.97499999,9.50325 L10.969875,9.498875 C11.0661829,9.49839347 11.1440012,9.42018415 11.144,9.32387499 L11.144,9.11124999 C11.144,9.01460016 11.0656498,8.93625 10.969,8.93625 L10.19375,8.93625 L11.197375,7.39625001 C11.2327714,7.3425013 11.2358102,7.27366152 11.2052877,7.21700288 C11.1747651,7.16034425 11.115607,7.12499794 11.05125,7.12499794 L10.6225,7.12499794 C10.5929193,7.12485719 10.5652692,7.13966976 10.549,7.164375 L9.625,8.58099999 L8.700125,7.164375 C8.68402644,7.1399288 8.65677042,7.12515143 8.6275,7.12499794 L8.6275,7.12499794 Z M5.71199999,5.37500001 C4.84945907,6.33655979 4.37321644,7.58326825 4.37500001,8.87500001 L0.875000006,8.87500001 C0.391750854,8.87500001 0,8.48324916 0,8.00000001 L0,6.24999999 C0,5.76675084 0.391750854,5.37500001 0.875000006,5.37500001 L5.71199999,5.37500001 L5.71199999,5.37500001 Z M9.625,1 C10.1082492,1 10.5,1.39175085 10.5,1.87500001 L10.5,3.625 L10.4965,3.69675 C10.2084808,3.64880028 9.91698324,3.62480148 9.625,3.625 C8.5920377,3.62330212 7.58174451,3.92779072 6.72175001,4.5 L0.875000006,4.5 C0.642935576,4.5 0.4203759,4.40781277 0.256281568,4.24371843 C0.0921872359,4.0796241 0,3.85706443 0,3.625 L0,1.87500001 C0,1.39175085 0.391750846,1 0.875000006,1 L9.625,1 Z" id="path-1"></path>
        <filter x="-14.3%" y="-16.3%" width="128.6%" height="132.7%" filterUnits="objectBoundingBox" id="filter-2">
            <feGaussianBlur stdDeviation="1.5" in="SourceAlpha" result="shadowBlurInner1"></feGaussianBlur>
            <feOffset dx="0" dy="1" in="shadowBlurInner1" result="shadowOffsetInner1"></feOffset>
            <feComposite in="shadowOffsetInner1" in2="SourceAlpha" operator="arithmetic" k2="-1" k3="1" result="shadowInnerInner1"></feComposite>
            <feColorMatrix values="0 0 0 0 1   0 0 0 0 1   0 0 0 0 1  0 0 0 0.5 0" type="matrix" in="shadowInnerInner1"></feColorMatrix>
        </filter>
    </defs>
    <g id="页面-2" stroke="none" stroke-width="1" fill="none" fill-rule="evenodd">
        <g id="交易">
            <rect id="矩形" x="0" y="0" width="14" height="14"></rect>
            <g id="形状">
                <use fill="#DDE6FF" fill-rule="evenodd" xlink:href="#path-1"></use>
                <use fill="black" fill-opacity="1" filter="url(#filter-2)" xlink:href="#path-1"></use>
            </g>
        </g>
    </g>
</svg>