<?xml version="1.0" encoding="UTF-8"?>
<svg width="42px" height="42px" viewBox="0 0 42 42" version="1.1" xmlns="http://www.w3.org/2000/svg" xmlns:xlink="http://www.w3.org/1999/xlink">
    <title>图标-实例访问</title>
    <defs>
        <linearGradient x1="0%" y1="0%" x2="100%" y2="100%" id="linearGradient-1">
            <stop stop-color="#38B2FF" offset="0%"></stop>
            <stop stop-color="#1A7AFF" offset="100%"></stop>
        </linearGradient>
        <circle id="path-2" cx="21" cy="21" r="21"></circle>
        <linearGradient x1="50%" y1="0%" x2="50%" y2="100%" id="linearGradient-4">
            <stop stop-color="#FFFFFF" offset="0%"></stop>
            <stop stop-color="#FFFFFF" stop-opacity="0.3" offset="100%"></stop>
        </linearGradient>
        <linearGradient x1="0.13602367%" y1="0%" x2="74.3020316%" y2="100%" id="linearGradient-5">
            <stop stop-color="#4FA3FF" offset="0%"></stop>
            <stop stop-color="#EFF7FF" offset="100%"></stop>
        </linearGradient>
    </defs>
    <g id="1.0" stroke="none" stroke-width="1" fill="none" fill-rule="evenodd">
        <g id="权限中心-添加权限-2" transform="translate(-769.000000, -444.000000)">
            <g id="card" transform="translate(701.000000, 422.000000)">
                <g id="图标-实例访问" transform="translate(68.000000, 22.000000)">
                    <mask id="mask-3" fill="white">
                        <use xlink:href="#path-2"></use>
                    </mask>
                    <use id="蒙版" fill="url(#linearGradient-1)" xlink:href="#path-2"></use>
                    <g mask="url(#mask-3)">
                        <g transform="translate(9.767241, 10.112676)">
                            <rect id="矩形" fill="#FFFFFF" opacity="0" x="0" y="0" width="22.4482759" height="22.4788732"></rect>
                            <polygon id="路径" fill="url(#linearGradient-4)" points="16.9158966 1.60523646 19.2408966 3.93323646 19.2413793 20.8732394 3.20689655 20.8732394 3.20689655 1.6056338"></polygon>
                            <rect id="矩形备份-6" fill="#FFFFFF" opacity="0.199999988" x="5.61206897" y="12.0422535" width="11.2241379" height="1.6056338"></rect>
                            <rect id="矩形备份-7" fill="#FFFFFF" opacity="0.199999988" x="5.61206897" y="15.2535211" width="11.2241379" height="1.6056338"></rect>
                            <g id="search" transform="translate(0.000000, 5.619718)" fill-rule="nonzero">
                                <rect id="矩形" fill="#000000" opacity="0" x="0" y="0" width="9.62068966" height="9.63380282"></rect>
                                <path d="M6.98281681,1.98355986 C8.3441444,3.34674295 8.3900431,5.52839788 7.12051293,6.94697536 L8.62675216,8.4550669 C8.6418067,8.47012519 8.65026566,8.49055869 8.65026566,8.5118662 C8.65026566,8.5331737 8.6418067,8.5536072 8.62675216,8.56866549 L8.3150819,8.88076056 C8.3000441,8.89583562 8.27963842,8.90430611 8.25835992,8.90430611 C8.23708141,8.90430611 8.21667573,8.89583562 8.20163793,8.88076056 L6.68377371,7.36082746 C5.26732759,8.49681338 3.19366811,8.4075 1.8806444,7.09268662 C0.47161423,5.68173592 0.47161423,3.39430987 1.8806444,1.98355986 C3.28967457,0.572609155 5.57378664,0.572609155 6.98281681,1.98355986 Z" id="路径" fill="#FFFFFF"></path>
                                <path d="M2.30575862,2.40925352 C1.13163362,3.58497887 1.13163362,5.49126761 2.30575862,6.66699296 C3.47988363,7.84251761 5.38357759,7.84251761 6.55770259,6.66699296 C7.73162715,5.49126761 7.73162715,3.58497887 6.55770259,2.40925352 C5.38357758,1.23352816 3.47988362,1.23352816 2.30575862,2.40925352 Z" id="路径" fill="url(#linearGradient-5)"></path>
                            </g>
                        </g>
                    </g>
                </g>
            </g>
        </g>
    </g>
</svg>