<?xml version="1.0" encoding="UTF-8"?>
<svg width="42px" height="42px" viewBox="0 0 42 42" version="1.1" xmlns="http://www.w3.org/2000/svg" xmlns:xlink="http://www.w3.org/1999/xlink">
    <title>图标-主机实例操作</title>
    <defs>
        <linearGradient x1="0%" y1="0%" x2="100%" y2="100%" id="linearGradient-1">
            <stop stop-color="#9699FF" offset="0%"></stop>
            <stop stop-color="#364DD8" offset="100%"></stop>
        </linearGradient>
        <linearGradient x1="50%" y1="0%" x2="50%" y2="99.7042996%" id="linearGradient-2">
            <stop stop-color="#FFFFFF" offset="0%"></stop>
            <stop stop-color="#FFFFFF" stop-opacity="0.4" offset="100%"></stop>
        </linearGradient>
        <linearGradient x1="99.869493%" y1="-29.8043756%" x2="19.7067733%" y2="72.2233954%" id="linearGradient-3">
            <stop stop-color="#A7AFF3" offset="0%"></stop>
            <stop stop-color="#EFF7FF" offset="100%"></stop>
        </linearGradient>
    </defs>
    <g id="0526" stroke="none" stroke-width="1" fill="none" fill-rule="evenodd">
        <g id="权限中心-添加权限" transform="translate(-1166.000000, -574.000000)">
            <g id="Card备份-3" transform="translate(1098.000000, 552.000000)">
                <g id="图标-主机实例操作" transform="translate(68.000000, 22.000000)">
                    <circle id="椭圆形" fill="url(#linearGradient-1)" fill-rule="nonzero" cx="21" cy="21" r="21"></circle>
                    <g id="图标-实例编辑" transform="translate(9.620690, 9.633803)">
                        <rect id="矩形" fill="#FFFFFF" fill-rule="nonzero" opacity="0" x="0" y="0" width="22.4482759" height="22.4788732"></rect>
                        <polygon id="形状结合" fill="url(#linearGradient-2)" fill-rule="nonzero" points="19.0431034 2.4084507 19.0431034 20.8732394 3.40517241 20.8732394 3.40517241 2.4084507"></polygon>
                        <polygon id="矩形备份-7" fill="#FFFFFF" fill-rule="nonzero" opacity="0.699999988" points="6.81034483 6.056338 15.637931 6.056338 15.637931 7.6619718 6.81034483 7.6619718"></polygon>
                        <polygon id="矩形备份-7备份" fill="#FFFFFF" fill-rule="nonzero" opacity="0.699999988" points="6.81034483 9.056338 15.637931 9.056338 15.637931 10.6619718 6.81034483 10.6619718"></polygon>
                        <circle id="椭圆形" fill="#FFFFFF" opacity="0.399999976" cx="11" cy="16" r="2"></circle>
                        <g id="edit-fill" transform="translate(11.224138, 8.225352)" fill-rule="nonzero">
                            <rect id="矩形" fill="#000000" opacity="0" x="0" y="0" width="12.8275862" height="12.8450704"></rect>
                            <path d="M8.61602909,0.404929577 C8.31887719,0.404929577 8.03243709,0.521454477 7.81949964,0.734682172 L2.50932992,6.05208974 C2.34881239,6.21282605 2.24428321,6.41368247 2.20121069,6.62933863 L1.8272922,8.76257973 C1.74832948,9.22446748 1.89376147,9.68638835 2.222463,10.0155379 C2.50046244,10.2856455 2.85320886,10.4330986 3.22819235,10.4330986 C3.30610285,10.4330986 3.37853007,10.4267526 3.45189217,10.4157333 L5.5833633,10.0417038 C5.82833916,9.99293085 6.04004936,9.88398704 6.20829668,9.70347635 L11.4945359,4.41087241 C11.9332734,3.97153692 11.9332734,3.2600872 11.4945359,2.82075171 L9.41277104,0.734895012 C9.1996211,0.521454477 8.913181,0.404929577 8.61602909,0.404929577 Z" id="路径" fill="#FFFFFF"></path>
                            <path d="M8.61602909,1.40492958 C8.63857759,1.40492958 8.66001257,1.41050469 8.67884938,1.42128326 L8.70497037,1.44130722 L10.7869477,3.52737676 C10.823589,3.564068 10.8327494,3.61769366 10.8144287,3.66285211 L10.7869477,3.70424736 L5.47677802,9.02165493 L5.44640019,9.04439096 L5.41038524,9.05677817 L3.30335399,9.42682658 C3.27830011,9.43058979 3.25324623,9.43309859 3.22819235,9.43309859 C3.11670259,9.43309859 3.01272899,9.38919454 2.93005119,9.30891285 C2.85088093,9.22963468 2.80778825,9.12707482 2.8059042,9.01793187 L2.81229795,8.93510123 L3.18184267,6.82519806 L3.19421303,6.78960442 L3.2169181,6.75871479 L8.52708782,1.44130722 C8.55088901,1.41747359 8.58220636,1.40492958 8.61602909,1.40492958 Z" id="路径" fill="url(#linearGradient-3)"></path>
                        </g>
                    </g>
                </g>
            </g>
        </g>
    </g>
</svg>