<?xml version="1.0" encoding="UTF-8"?>
<svg width="43px" height="43px" viewBox="0 0 43 43" version="1.1" xmlns="http://www.w3.org/2000/svg" xmlns:xlink="http://www.w3.org/1999/xlink">
    <title>图标-实例提交变更</title>
    <defs>
        <linearGradient x1="0%" y1="0%" x2="100%" y2="100%" id="linearGradient-1">
            <stop stop-color="#9699FF" offset="0%"></stop>
            <stop stop-color="#364DD8" offset="100%"></stop>
        </linearGradient>
        <linearGradient x1="50%" y1="0%" x2="50%" y2="100%" id="linearGradient-2">
            <stop stop-color="#FFFFFF" offset="0%"></stop>
            <stop stop-color="#FFFFFF" stop-opacity="0.4" offset="100%"></stop>
        </linearGradient>
        <linearGradient x1="50%" y1="0%" x2="50%" y2="100%" id="linearGradient-3">
            <stop stop-color="#FFFFFF" offset="0%"></stop>
            <stop stop-color="#FFFFFF" offset="100%"></stop>
        </linearGradient>
    </defs>
    <g id="1.0" stroke="none" stroke-width="1" fill="none" fill-rule="evenodd">
        <g id="权限中心-添加权限-2" transform="translate(-1172.000000, -574.000000)">
            <g id="card备份-5" transform="translate(1100.000000, 552.000000)">
                <g id="图标-实例提交变更" transform="translate(72.155172, 22.478873)">
                    <circle id="椭圆形" fill="url(#linearGradient-1)" cx="21" cy="21" r="21"></circle>
                    <g transform="translate(9.620690, 9.633803)">
                        <rect id="矩形" fill="#FFFFFF" opacity="0" x="0" y="0" width="22.4482759" height="22.4788732"></rect>
                        <polygon id="路径" fill="url(#linearGradient-2)" points="16.9158966 1.60523646 19.2408966 3.93323646 19.2413793 20.8732394 3.20689655 20.8732394 3.20689655 1.6056338"></polygon>
                        <g id="cloud-download" transform="translate(11.124125, 11.413910) scale(1, -1) translate(-11.124125, -11.413910) translate(8.017241, 7.225352)" fill="url(#linearGradient-3)" fill-rule="nonzero">
                            <path d="M4.3009536,5.23179569 L4.3009536,0.130218927 C4.3009536,0.0585985173 4.24243484,0 4.17091192,0 L2.03960398,0 C1.96808105,0 1.9095623,0.0585985173 1.9095623,0.130218927 L1.9095623,5.23179569 L0.130304615,5.23179569 C0.021394709,5.23179569 -0.0387495672,5.35713141 0.0278967929,5.44177371 L3.00447565,8.32706196 C3.05649232,8.39379916 3.15727462,8.39379916 3.20929129,8.32706196 L6.18587015,5.44177371 C6.25251651,5.35713141 6.19237223,5.23179569 6.08346233,5.23179569 L4.3009536,5.23179569 Z" id="路径"></path>
                        </g>
                        <rect id="矩形备份-7" fill="#FFFFFF" opacity="0.199999988" x="5.61206897" y="15.2535211" width="11.2241379" height="1.6056338"></rect>
                    </g>
                </g>
            </g>
        </g>
    </g>
</svg>