<?xml version="1.0" encoding="UTF-8"?>
<svg width="43px" height="43px" viewBox="0 0 43 43" version="1.1" xmlns="http://www.w3.org/2000/svg" xmlns:xlink="http://www.w3.org/1999/xlink">
    <title>图标-实例编辑</title>
    <defs>
        <linearGradient x1="0%" y1="0%" x2="100%" y2="100%" id="linearGradient-1">
            <stop stop-color="#9699FF" offset="0%"></stop>
            <stop stop-color="#3C52DB" offset="100%"></stop>
        </linearGradient>
        <linearGradient x1="50%" y1="0%" x2="50%" y2="99.7042996%" id="linearGradient-2">
            <stop stop-color="#FFFFFF" offset="0%"></stop>
            <stop stop-color="#FFFFFF" stop-opacity="0.4" offset="100%"></stop>
        </linearGradient>
        <linearGradient x1="39.3695884%" y1="24.4835594%" x2="19.7067733%" y2="72.2233954%" id="linearGradient-3">
            <stop stop-color="#B6C4FA" offset="0%"></stop>
            <stop stop-color="#E1E8FF" offset="100%"></stop>
        </linearGradient>
    </defs>
    <g id="1.0" stroke="none" stroke-width="1" fill="none" fill-rule="evenodd">
        <g id="权限中心-添加权限-2" transform="translate(-971.000000, -444.000000)">
            <g id="card备份" transform="translate(899.000000, 422.000000)">
                <g id="图标-实例编辑" transform="translate(72.155172, 22.478873)">
                    <circle id="椭圆形" fill="url(#linearGradient-1)" cx="21" cy="21" r="21"></circle>
                    <g id="图标-实例编辑" transform="translate(9.620690, 9.633803)">
                        <rect id="矩形" fill="#FFFFFF" opacity="0" x="0" y="0" width="22.4482759" height="22.4788732"></rect>
                        <path d="M5.61206897,1.6056338 L5.61117241,2.4076338 L7.21517241,2.4076338 L7.21551724,1.6056338 L8.81896552,1.6056338 L8.81817241,2.4076338 L10.4221724,2.4076338 L10.4224138,1.6056338 L12.0258621,1.6056338 L12.0251724,2.4076338 L13.6291724,2.4076338 L13.6293103,1.6056338 L15.2327586,1.6056338 L15.2321724,2.4076338 L16.8361724,2.4076338 L16.8362069,1.6056338 L18.4396552,1.6056338 L18.4391724,2.4076338 L20.0431034,2.4084507 L20.0431034,20.8732394 L2.40517241,20.8732394 L2.40517241,2.4084507 L4.00817241,2.4076338 L4.00862069,1.6056338 L5.61206897,1.6056338 Z" id="形状结合" fill="url(#linearGradient-2)"></path>
                        <rect id="矩形备份-7" fill="#FFFFFF" opacity="0.199999988" x="4.81034483" y="16.056338" width="12.8275862" height="1.6056338"></rect>
                        <g id="edit-fill" transform="translate(11.224138, 7.225352)" fill-rule="nonzero">
                            <rect id="矩形" fill="#000000" opacity="0" x="0" y="0" width="12.8275862" height="12.8450704"></rect>
                            <path d="M8.61602909,0.404929577 C8.31887719,0.404929577 8.03243709,0.521454477 7.81949964,0.734682172 L2.50932992,6.05208974 C2.34881239,6.21282605 2.24428321,6.41368247 2.20121069,6.62933863 L1.8272922,8.76257973 C1.74832948,9.22446748 1.89376147,9.68638835 2.222463,10.0155379 C2.50046244,10.2856455 2.85320886,10.4330986 3.22819235,10.4330986 C3.30610285,10.4330986 3.37853007,10.4267526 3.45189217,10.4157333 L5.5833633,10.0417038 C5.82833916,9.99293085 6.04004936,9.88398704 6.20829668,9.70347635 L11.4945359,4.41087241 C11.9332734,3.97153692 11.9332734,3.2600872 11.4945359,2.82075171 L9.41277104,0.734895012 C9.1996211,0.521454477 8.913181,0.404929577 8.61602909,0.404929577 Z" id="路径" fill="#FFFFFF"></path>
                            <path d="M8.61602909,1.40492958 C8.63857759,1.40492958 8.66001257,1.41050469 8.67884938,1.42128326 L8.70497037,1.44130722 L10.7869477,3.52737676 C10.823589,3.564068 10.8327494,3.61769366 10.8144287,3.66285211 L10.7869477,3.70424736 L5.47677802,9.02165493 L5.44640019,9.04439096 L5.41038524,9.05677817 L3.30335399,9.42682658 C3.27830011,9.43058979 3.25324623,9.43309859 3.22819235,9.43309859 C3.11670259,9.43309859 3.01272899,9.38919454 2.93005119,9.30891285 C2.85088093,9.22963468 2.80778825,9.12707482 2.8059042,9.01793187 L2.81229795,8.93510123 L3.18184267,6.82519806 L3.19421303,6.78960442 L3.2169181,6.75871479 L8.52708782,1.44130722 C8.55088901,1.41747359 8.58220636,1.40492958 8.61602909,1.40492958 Z" id="路径" fill="url(#linearGradient-3)"></path>
                        </g>
                    </g>
                </g>
            </g>
        </g>
    </g>
</svg>