<?xml version="1.0" encoding="UTF-8"?>
<svg width="43px" height="43px" viewBox="0 0 43 43" version="1.1" xmlns="http://www.w3.org/2000/svg" xmlns:xlink="http://www.w3.org/1999/xlink">
    <title>图标-实例导出</title>
    <defs>
        <linearGradient x1="0%" y1="0%" x2="100%" y2="100%" id="linearGradient-1">
            <stop stop-color="#FDE162" offset="0%"></stop>
            <stop stop-color="#FA9503" offset="100%"></stop>
        </linearGradient>
        <linearGradient x1="18.3227191%" y1="4.02262611%" x2="70.1595849%" y2="82.1882321%" id="linearGradient-2">
            <stop stop-color="#FFFFFF" offset="0%"></stop>
            <stop stop-color="#FFFFFF" stop-opacity="0.3" offset="100%"></stop>
        </linearGradient>
        <linearGradient x1="47.8155716%" y1="24.4835594%" x2="43.7750873%" y2="72.2233954%" id="linearGradient-3">
            <stop stop-color="#FFF7E7" offset="0%"></stop>
            <stop stop-color="#FFE6AA" offset="100%"></stop>
        </linearGradient>
    </defs>
    <g id="1.0" stroke="none" stroke-width="1" fill="none" fill-rule="evenodd">
        <g id="权限中心-添加权限-2" transform="translate(-1172.000000, -444.000000)">
            <g id="card备份-2" transform="translate(1100.000000, 422.000000)">
                <g id="图标-实例导出" transform="translate(72.155172, 22.478873)">
                    <circle id="椭圆形" fill="url(#linearGradient-1)" cx="21" cy="21" r="21"></circle>
                    <g id="图标-实例导出" transform="translate(9.620690, 9.633803)">
                        <rect id="矩形" fill="#FFFFFF" opacity="0" x="0" y="0" width="22.4482759" height="22.4788732"></rect>
                        <circle id="椭圆形" fill="url(#linearGradient-2)" cx="11.4745704" cy="11.4898691" r="10"></circle>
                        <g id="cloud-download" transform="translate(11.524987, 17.049265) scale(1, -1) translate(-11.524987, -17.049265) translate(7.215517, 11.239437)" fill-rule="nonzero">
                            <path d="M5.78535327,0 C5.8647192,0 5.932541,0.0520194153 5.95649508,0.12369061 L5.96573039,0.18062297 L5.96573039,7.25687497 L8.43819753,7.25687497 C8.57038013,7.25687497 8.65077478,7.38997857 8.60687831,7.50190661 L8.58024451,7.5481295 L4.45151665,11.5502308 C4.39139095,11.6273718 4.28429204,11.6402287 4.2085086,11.5888013 L0.0386948479,7.5481295 C-0.0421930136,7.44540019 0.0115678211,7.29945542 0.127474208,7.26457437 L0.180741824,7.25687497 L2.64869954,7.25687497 L2.64869954,0.18062297 C2.64869954,0.101148863 2.70064815,0.0332346264 2.77222179,0.00924789605 L2.82907665,0 L5.78535327,0 Z" id="路径" fill="#FFFFFF"></path>
                            <polygon id="路径" fill="url(#linearGradient-3)" points="4.965 1 3.648 1 3.64869954 8.25687497 2.205 8.256 4.309 10.295 6.413 8.256 4.96573039 8.25687497"></polygon>
                        </g>
                    </g>
                </g>
            </g>
        </g>
    </g>
</svg>