<?xml version="1.0" encoding="UTF-8"?>
<svg width="43px" height="43px" viewBox="0 0 43 43" version="1.1" xmlns="http://www.w3.org/2000/svg" xmlns:xlink="http://www.w3.org/1999/xlink">
    <title>图标-实例创建</title>
    <defs>
        <linearGradient x1="0%" y1="0%" x2="100%" y2="100%" id="linearGradient-1">
            <stop stop-color="#67A0FF" offset="0%"></stop>
            <stop stop-color="#1D7DFA" offset="100%"></stop>
        </linearGradient>
        <linearGradient x1="50%" y1="0%" x2="50%" y2="100%" id="linearGradient-2">
            <stop stop-color="#FFFFFF" offset="0%"></stop>
            <stop stop-color="#FFFFFF" stop-opacity="0.4" offset="100%"></stop>
        </linearGradient>
        <linearGradient x1="0%" y1="0%" x2="74.368325%" y2="100%" id="linearGradient-3">
            <stop stop-color="#4FA3FF" offset="0%"></stop>
            <stop stop-color="#EFF7FF" offset="100%"></stop>
        </linearGradient>
    </defs>
    <g id="1.0" stroke="none" stroke-width="1" fill="none" fill-rule="evenodd">
        <g id="权限中心-添加权限-2" transform="translate(-971.000000, -574.000000)">
            <g id="card备份-4" transform="translate(899.000000, 552.000000)">
                <g id="图标-实例创建" transform="translate(72.155172, 22.478873)">
                    <circle id="椭圆形" fill="url(#linearGradient-1)" cx="21" cy="21" r="21"></circle>
                    <g id="图标" transform="translate(9.620690, 9.633803)">
                        <rect id="矩形" fill="#FFFFFF" opacity="0" x="0" y="0" width="22.4482759" height="22.4788732"></rect>
                        <path d="M5.61206897,1.6056338 L5.61117241,2.4076338 L7.21517241,2.4076338 L7.21551724,1.6056338 L8.81896552,1.6056338 L8.81817241,2.4076338 L10.4221724,2.4076338 L10.4224138,1.6056338 L12.0258621,1.6056338 L12.0251724,2.4076338 L13.6291724,2.4076338 L13.6293103,1.6056338 L15.2327586,1.6056338 L15.2321724,2.4076338 L16.8361724,2.4076338 L16.8362069,1.6056338 L18.4396552,1.6056338 L18.4391724,2.4076338 L20.0431034,2.4084507 L20.0431034,20.8732394 L2.40517241,20.8732394 L2.40517241,2.4084507 L4.00817241,2.4076338 L4.00862069,1.6056338 L5.61206897,1.6056338 Z" id="形状结合" fill="url(#linearGradient-2)"></path>
                        <rect id="矩形备份-12" fill="#FFFFFF" opacity="0.449999988" x="4.81034483" y="12.0422535" width="7.827586" height="1.6056338"></rect>
                        <rect id="矩形备份-13" fill="#FFFFFF" opacity="0.449999988" x="4.81034483" y="8.02816901" width="12.8275862" height="1.6056338"></rect>
                        <g id="plus-circle-fill" transform="translate(12.224138, 12.887324)" fill-rule="nonzero">
                            <path d="M1.4644878,1.4644878 C-0.4881626,3.4171382 -0.4881626,6.58311181 1.4644878,8.53576221 C3.4171382,10.4880793 6.58311182,10.4880793 8.53576221,8.53576221 C10.4880793,6.58311181 10.4880793,3.4171382 8.53576221,1.4644878 C6.5831118,-0.488162599 3.41713819,-0.488162599 1.4644878,1.4644878 Z" id="路径" fill="#FFFFFF"></path>
                            <path d="M2.17159024,2.17159024 C0.60946992,3.73371056 0.60946992,6.26648945 2.17159024,7.82860977 C3.73371056,9.39046341 6.26648946,9.39046341 7.82860976,7.82860977 C9.39046341,6.26648945 9.39046341,3.73371056 7.82860976,2.17159024 C6.26648944,0.60946992 3.73371055,0.60946992 2.17159024,2.17159024 Z" id="路径" fill="url(#linearGradient-3)"></path>
                            <path d="M7.41034483,5.40950704 C7.41034483,5.4647007 7.36524784,5.50985915 7.31012931,5.50985915 L5.40603448,5.50985915 L5.40603448,7.4165493 C5.40603448,7.47174296 5.3609375,7.51690141 5.30581897,7.51690141 L4.70452586,7.51690141 C4.64940733,7.51690141 4.60431034,7.47174296 4.60431034,7.4165493 L4.60431034,5.50985915 L2.70021552,5.50985915 C2.64509698,5.50985915 2.6,5.4647007 2.6,5.40950704 L2.6,4.80739437 C2.6,4.7522007 2.64509698,4.70704225 2.70021552,4.70704225 L4.60431034,4.70704225 L4.60431034,2.80035211 C4.60431034,2.74515845 4.64940733,2.7 4.70452586,2.7 L5.30581897,2.7 C5.3609375,2.7 5.40603448,2.74515845 5.40603448,2.80035211 L5.40603448,4.70704225 L7.31012931,4.70704225 C7.36524784,4.70704225 7.41034483,4.7522007 7.41034483,4.80739437 L7.41034483,5.40950704 Z" id="路径" fill="#FFFFFF"></path>
                        </g>
                    </g>
                </g>
            </g>
        </g>
    </g>
</svg>