<?xml version="1.0" encoding="UTF-8"?>
<svg width="43px" height="43px" viewBox="0 0 43 43" version="1.1" xmlns="http://www.w3.org/2000/svg" xmlns:xlink="http://www.w3.org/1999/xlink">
    <title>图标-实例删除</title>
    <defs>
        <linearGradient x1="0%" y1="0%" x2="100%" y2="100%" id="linearGradient-1">
            <stop stop-color="#FA7E6E" offset="0%"></stop>
            <stop stop-color="#F76514" offset="100%"></stop>
        </linearGradient>
        <linearGradient x1="50%" y1="0%" x2="50%" y2="100%" id="linearGradient-2">
            <stop stop-color="#FFFFFF" offset="0%"></stop>
            <stop stop-color="#FFFFFF" stop-opacity="0.4" offset="100%"></stop>
        </linearGradient>
        <linearGradient x1="75.5467343%" y1="17.2853652%" x2="19.549976%" y2="81.8013371%" id="linearGradient-3">
            <stop stop-color="#FD9C82" offset="0%"></stop>
            <stop stop-color="#FFEFEA" offset="100%"></stop>
        </linearGradient>
    </defs>
    <g id="1.0" stroke="none" stroke-width="1" fill="none" fill-rule="evenodd">
        <g id="权限中心-添加权限-2" transform="translate(-769.000000, -574.000000)">
            <g id="card备份-3" transform="translate(701.000000, 552.000000)">
                <g id="图标-实例删除" transform="translate(68.146552, 22.478873)">
                    <circle id="椭圆形" fill="url(#linearGradient-1)" cx="21" cy="21" r="21"></circle>
                    <g id="-实例删除" transform="translate(9.620690, 9.633803)">
                        <rect id="矩形" fill="#FFFFFF" opacity="0" x="0" y="0" width="22.4482759" height="22.4788732"></rect>
                        <path d="M5.61206897,1.6056338 L5.61117241,2.4076338 L7.21517241,2.4076338 L7.21551724,1.6056338 L8.81896552,1.6056338 L8.81817241,2.4076338 L10.4221724,2.4076338 L10.4224138,1.6056338 L12.0258621,1.6056338 L12.0251724,2.4076338 L13.6291724,2.4076338 L13.6293103,1.6056338 L15.2327586,1.6056338 L15.2321724,2.4076338 L16.8361724,2.4076338 L16.8362069,1.6056338 L18.4396552,1.6056338 L18.4391724,2.4076338 L20.0431034,2.4084507 L20.0431034,20.8732394 L2.40517241,20.8732394 L2.40517241,2.4084507 L4.00817241,2.4076338 L4.00862069,1.6056338 L5.61206897,1.6056338 Z" id="形状结合" fill="url(#linearGradient-2)"></path>
                        <rect id="矩形备份-6" fill="#FFFFFF" opacity="0.299999982" x="5.61206897" y="6.42253521" width="4.81034483" height="3.21126761"></rect>
                        <rect id="矩形备份-24" fill="#FFFFFF" opacity="0.299999982" x="5.61206897" y="10.4366197" width="4.81034483" height="3.21126761"></rect>
                        <rect id="矩形备份-14" fill="#FFFFFF" opacity="0.299999982" x="12.0258621" y="6.42253521" width="4.81034483" height="3.21126761"></rect>
                        <rect id="矩形备份-25" fill="#FFFFFF" opacity="0.299999982" x="12.0258621" y="10.4366197" width="4.81034483" height="3.21126761"></rect>
                        <g id="minus-circle-fill" transform="translate(12.232759, 11.887324)" fill-rule="nonzero">
                            <path d="M5,0 C7.76116071,0 10,2.23883929 10,5 C10,7.76116071 7.76116071,10 5,10 C2.23883929,10 0,7.76116071 0,5 C0,2.23883929 2.23883929,0 5,0 Z" id="路径" fill="#FFFFFF"></path>
                            <path d="M5,1 C2.79143736,1 1,2.79081403 1,5 C1,7.20918597 2.79143736,9 5,9 C7.20856264,9 9,7.20918597 9,5 C9,2.79081403 7.20856264,1 5,1 Z" id="路径" fill="url(#linearGradient-3)"></path>
                            <path d="M6.8,5.23525528 C6.8,5.28354974 6.764375,5.32306338 6.72083333,5.32306338 L3.07916667,5.32306338 C3.035625,5.32306338 3,5.28354974 3,5.23525528 L3,4.70840669 C3,4.66011224 3.035625,4.62059859 3.07916667,4.62059859 L6.72083333,4.62059859 C6.764375,4.62059859 6.8,4.66011224 6.8,4.70840669 L6.8,5.23525528 Z" id="路径" fill="#FFFFFF"></path>
                        </g>
                    </g>
                </g>
            </g>
        </g>
    </g>
</svg>