<?xml version="1.0" encoding="UTF-8"?>
<svg width="20px" height="15px" viewBox="0 0 20 15" version="1.1" xmlns="http://www.w3.org/2000/svg" xmlns:xlink="http://www.w3.org/1999/xlink">
    <title>commercial-centre</title>
    <defs>
        <linearGradient x1="-26.6701991%" y1="74.7836598%" x2="59.7341811%" y2="46.8436762%" id="linearGradient-1">
            <stop stop-color="#3E1D81" offset="0%"></stop>
            <stop stop-color="#3763DD" offset="100%"></stop>
        </linearGradient>
        <linearGradient x1="0.00262266721%" y1="50.0029%" x2="99.9890752%" y2="50.0029%" id="linearGradient-2">
            <stop stop-color="#5F1DCE" offset="0%"></stop>
            <stop stop-color="#37A9DD" offset="100%"></stop>
        </linearGradient>
        <linearGradient x1="50.0579906%" y1="34.9320029%" x2="49.4490891%" y2="194.664843%" id="linearGradient-3">
            <stop stop-color="#3281FF" offset="0%"></stop>
            <stop stop-color="#241B96" offset="93%"></stop>
            <stop stop-color="#23138E" offset="100%"></stop>
        </linearGradient>
        <linearGradient x1="-12.57503%" y1="63.2320687%" x2="144.407763%" y2="30.0825525%" id="linearGradient-4">
            <stop stop-color="#00A7F6" offset="0%"></stop>
            <stop stop-color="#032D8F" offset="100%"></stop>
        </linearGradient>
        <linearGradient x1="-56.6539924%" y1="13.067283%" x2="233.014291%" y2="113.379474%" id="linearGradient-5">
            <stop stop-color="#00CCFF" offset="0%"></stop>
            <stop stop-color="#03C3E2" offset="100%"></stop>
        </linearGradient>
        <linearGradient x1="-225.244177%" y1="-142.031619%" x2="195.304282%" y2="151.429047%" id="linearGradient-6">
            <stop stop-color="#9B09FF" offset="0%"></stop>
            <stop stop-color="#2509B8" offset="100%"></stop>
        </linearGradient>
        <linearGradient x1="51.4651818%" y1="-8.01475282%" x2="47.8636511%" y2="134.442159%" id="linearGradient-7">
            <stop stop-color="#3281FF" offset="0%"></stop>
            <stop stop-color="#241B96" offset="93%"></stop>
            <stop stop-color="#23138E" offset="100%"></stop>
        </linearGradient>
        <linearGradient x1="50.0931365%" y1="34.9320029%" x2="49.1152034%" y2="194.664843%" id="linearGradient-8">
            <stop stop-color="#3281FF" offset="0%"></stop>
            <stop stop-color="#241B96" offset="93%"></stop>
            <stop stop-color="#23138E" offset="100%"></stop>
        </linearGradient>
        <linearGradient x1="-24.6786042%" y1="79.5713682%" x2="287.213039%" y2="-43.9076166%" id="linearGradient-9">
            <stop stop-color="#00A7F6" offset="0%"></stop>
            <stop stop-color="#032D8F" offset="100%"></stop>
        </linearGradient>
        <linearGradient x1="-56.6539924%" y1="17.4348564%" x2="233.014291%" y2="105.884372%" id="linearGradient-10">
            <stop stop-color="#00CCFF" offset="0%"></stop>
            <stop stop-color="#03C3E2" offset="100%"></stop>
        </linearGradient>
        <linearGradient x1="-12.57503%" y1="63.3154286%" x2="144.407763%" y2="29.9570757%" id="linearGradient-11">
            <stop stop-color="#00A7F6" offset="0%"></stop>
            <stop stop-color="#032D8F" offset="100%"></stop>
        </linearGradient>
        <linearGradient x1="51.8029281%" y1="-8.01475282%" x2="47.3711907%" y2="134.442159%" id="linearGradient-12">
            <stop stop-color="#3281FF" offset="0%"></stop>
            <stop stop-color="#241B96" offset="93%"></stop>
            <stop stop-color="#23138E" offset="100%"></stop>
        </linearGradient>
        <linearGradient x1="-24.6786042%" y1="80.1839042%" x2="287.213039%" y2="-45.852802%" id="linearGradient-13">
            <stop stop-color="#00A7F6" offset="0%"></stop>
            <stop stop-color="#032D8F" offset="100%"></stop>
        </linearGradient>
        <linearGradient x1="-316.001248%" y1="-118.584347%" x2="306.955708%" y2="168.357116%" id="linearGradient-14">
            <stop stop-color="#9B09FF" offset="0%"></stop>
            <stop stop-color="#2509B8" offset="100%"></stop>
        </linearGradient>
        <linearGradient x1="120.581429%" y1="-214.650078%" x2="26.3322916%" y2="138.289269%" id="linearGradient-15">
            <stop stop-color="#9B09FF" offset="0%"></stop>
            <stop stop-color="#2509B8" offset="100%"></stop>
        </linearGradient>
        <linearGradient x1="374.624798%" y1="-116.681613%" x2="-58.854768%" y2="105.606248%" id="linearGradient-16">
            <stop stop-color="#9B09FF" offset="0%"></stop>
            <stop stop-color="#2509B8" offset="100%"></stop>
        </linearGradient>
        <linearGradient x1="-308.180934%" y1="-212.796577%" x2="301.46536%" y2="234.500194%" id="linearGradient-17">
            <stop stop-color="#9B09FF" offset="0%"></stop>
            <stop stop-color="#2509B8" offset="100%"></stop>
        </linearGradient>
        <linearGradient x1="46.699181%" y1="-87.2424172%" x2="50.6202403%" y2="75.8508914%" id="linearGradient-18">
            <stop stop-color="#780206" offset="1%"></stop>
            <stop stop-color="#061161" offset="100%"></stop>
        </linearGradient>
        <linearGradient x1="49.9959722%" y1="0.603015075%" x2="50.0063294%" y2="154.874372%" id="linearGradient-19">
            <stop stop-color="#B24592" offset="0%"></stop>
            <stop stop-color="#F15F79" offset="100%"></stop>
        </linearGradient>
        <linearGradient x1="50.0369044%" y1="77.245509%" x2="49.7416691%" y2="-101.896208%" id="linearGradient-20">
            <stop stop-color="#FFD54D" offset="0%"></stop>
            <stop stop-color="#FF5E61" offset="100%"></stop>
        </linearGradient>
        <linearGradient x1="1.46252285%" y1="36.5969349%" x2="100.731261%" y2="64.1061767%" id="linearGradient-21">
            <stop stop-color="#B24592" offset="0%"></stop>
            <stop stop-color="#F15F79" offset="100%"></stop>
        </linearGradient>
        <linearGradient x1="50.0006466%" y1="-2.38993711%" x2="49.9980603%" y2="139.874214%" id="linearGradient-22">
            <stop stop-color="#B24592" offset="0%"></stop>
            <stop stop-color="#F15F79" offset="100%"></stop>
        </linearGradient>
        <linearGradient x1="5.08474576%" y1="36.2943491%" x2="166.949153%" y2="81.7029704%" id="linearGradient-23">
            <stop stop-color="#B24592" offset="0%"></stop>
            <stop stop-color="#F15F79" offset="100%"></stop>
        </linearGradient>
        <linearGradient x1="57.2520672%" y1="155.061728%" x2="46.3552755%" y2="-3.45679012%" id="linearGradient-24">
            <stop stop-color="#E94287" offset="0%"></stop>
            <stop stop-color="#FCA15A" offset="100%"></stop>
        </linearGradient>
        <linearGradient x1="-1954.64513%" y1="-8.52049085%" x2="-1958.57331%" y2="154.572818%" id="linearGradient-25">
            <stop stop-color="#780206" offset="1%"></stop>
            <stop stop-color="#061161" offset="100%"></stop>
        </linearGradient>
        <linearGradient x1="50.0369612%" y1="77.245509%" x2="49.7412714%" y2="-101.896208%" id="linearGradient-26">
            <stop stop-color="#FFD54D" offset="0%"></stop>
            <stop stop-color="#FF5E61" offset="100%"></stop>
        </linearGradient>
        <linearGradient x1="50.0006462%" y1="-2.38993711%" x2="49.9980615%" y2="139.874214%" id="linearGradient-27">
            <stop stop-color="#B24592" offset="0%"></stop>
            <stop stop-color="#F15F79" offset="100%"></stop>
        </linearGradient>
        <linearGradient x1="-1935.40342%" y1="-8.52049085%" x2="-1939.33161%" y2="154.572818%" id="linearGradient-28">
            <stop stop-color="#780206" offset="1%"></stop>
            <stop stop-color="#061161" offset="100%"></stop>
        </linearGradient>
        <linearGradient x1="50.0368727%" y1="77.245509%" x2="49.7418913%" y2="-101.896208%" id="linearGradient-29">
            <stop stop-color="#FFD54D" offset="0%"></stop>
            <stop stop-color="#FF5E61" offset="100%"></stop>
        </linearGradient>
        <linearGradient x1="1.46252285%" y1="36.5853979%" x2="100.731261%" y2="64.1183189%" id="linearGradient-30">
            <stop stop-color="#B24592" offset="0%"></stop>
            <stop stop-color="#F15F79" offset="100%"></stop>
        </linearGradient>
        <linearGradient x1="5.08474576%" y1="36.2825516%" x2="166.949153%" y2="81.7302593%" id="linearGradient-31">
            <stop stop-color="#B24592" offset="0%"></stop>
            <stop stop-color="#F15F79" offset="100%"></stop>
        </linearGradient>
        <linearGradient x1="-47.5786122%" y1="67.3085008%" x2="212.750431%" y2="19.53755%" id="linearGradient-32">
            <stop stop-color="#00A7F6" offset="0%"></stop>
            <stop stop-color="#032D8F" offset="100%"></stop>
        </linearGradient>
        <linearGradient x1="-47.5786122%" y1="62.5216532%" x2="212.750431%" y2="27.9622602%" id="linearGradient-33">
            <stop stop-color="#00A7F6" offset="0%"></stop>
            <stop stop-color="#032D8F" offset="100%"></stop>
        </linearGradient>
        <linearGradient x1="53.2986369%" y1="-87.1990741%" x2="49.3759336%" y2="75.8564815%" id="linearGradient-34">
            <stop stop-color="#780206" offset="1%"></stop>
            <stop stop-color="#061161" offset="100%"></stop>
        </linearGradient>
        <linearGradient x1="49.9959699%" y1="0.603015075%" x2="50.0063329%" y2="154.874372%" id="linearGradient-35">
            <stop stop-color="#B24592" offset="0%"></stop>
            <stop stop-color="#F15F79" offset="100%"></stop>
        </linearGradient>
        <linearGradient x1="1.46252285%" y1="36.5555355%" x2="100.731261%" y2="64.1497479%" id="linearGradient-36">
            <stop stop-color="#B24592" offset="0%"></stop>
            <stop stop-color="#F15F79" offset="100%"></stop>
        </linearGradient>
        <linearGradient x1="5.08474576%" y1="36.3440522%" x2="166.949153%" y2="81.5880005%" id="linearGradient-37">
            <stop stop-color="#B24592" offset="0%"></stop>
            <stop stop-color="#F15F79" offset="100%"></stop>
        </linearGradient>
        <linearGradient x1="57.2555466%" y1="155.061728%" x2="46.3535268%" y2="-3.45679012%" id="linearGradient-38">
            <stop stop-color="#E94287" offset="0%"></stop>
            <stop stop-color="#FCA15A" offset="100%"></stop>
        </linearGradient>
        <linearGradient x1="-56.6539924%" y1="14.8886767%" x2="233.014291%" y2="110.253818%" id="linearGradient-39">
            <stop stop-color="#00CCFF" offset="0%"></stop>
            <stop stop-color="#03C3E2" offset="100%"></stop>
        </linearGradient>
        <linearGradient x1="-12.57503%" y1="63.4579904%" x2="144.407763%" y2="29.7424859%" id="linearGradient-40">
            <stop stop-color="#00A7F6" offset="0%"></stop>
            <stop stop-color="#032D8F" offset="100%"></stop>
        </linearGradient>
        <linearGradient x1="-56.6539924%" y1="14.8627977%" x2="233.014291%" y2="110.298229%" id="linearGradient-41">
            <stop stop-color="#00CCFF" offset="0%"></stop>
            <stop stop-color="#03C3E2" offset="100%"></stop>
        </linearGradient>
        <linearGradient x1="-56.6539924%" y1="14.9058776%" x2="233.014291%" y2="110.2243%" id="linearGradient-42">
            <stop stop-color="#00CCFF" offset="0%"></stop>
            <stop stop-color="#03C3E2" offset="100%"></stop>
        </linearGradient>
        <linearGradient x1="-9.15484613%" y1="124.018725%" x2="237.902559%" y2="-185.055816%" id="linearGradient-43">
            <stop stop-color="#00A7F6" offset="0%"></stop>
            <stop stop-color="#032D8F" offset="100%"></stop>
        </linearGradient>
        <linearGradient x1="-12.57503%" y1="63.3313995%" x2="144.407763%" y2="29.9330356%" id="linearGradient-44">
            <stop stop-color="#00A7F6" offset="0%"></stop>
            <stop stop-color="#032D8F" offset="100%"></stop>
        </linearGradient>
        <linearGradient x1="53.9293418%" y1="-87.9427943%" x2="49.6548055%" y2="75.9955996%" id="linearGradient-45">
            <stop stop-color="#780206" offset="1%"></stop>
            <stop stop-color="#061161" offset="100%"></stop>
        </linearGradient>
        <linearGradient x1="49.9966088%" y1="0.603015075%" x2="50.005329%" y2="154.874372%" id="linearGradient-46">
            <stop stop-color="#B24592" offset="0%"></stop>
            <stop stop-color="#F15F79" offset="100%"></stop>
        </linearGradient>
        <linearGradient x1="50.0252066%" y1="77.245509%" x2="49.8235539%" y2="-101.896208%" id="linearGradient-47">
            <stop stop-color="#FFD54D" offset="0%"></stop>
            <stop stop-color="#FF5E61" offset="100%"></stop>
        </linearGradient>
        <linearGradient x1="1.46252285%" y1="39.5460662%" x2="100.731261%" y2="61.0023369%" id="linearGradient-48">
            <stop stop-color="#B24592" offset="0%"></stop>
            <stop stop-color="#F15F79" offset="100%"></stop>
        </linearGradient>
        <linearGradient x1="50.0005352%" y1="-2.38993711%" x2="49.9983943%" y2="139.874214%" id="linearGradient-49">
            <stop stop-color="#B24592" offset="0%"></stop>
            <stop stop-color="#F15F79" offset="100%"></stop>
        </linearGradient>
        <linearGradient x1="5.08474576%" y1="39.2267633%" x2="166.949153%" y2="74.9199113%" id="linearGradient-50">
            <stop stop-color="#B24592" offset="0%"></stop>
            <stop stop-color="#F15F79" offset="100%"></stop>
        </linearGradient>
        <linearGradient x1="56.5285415%" y1="155.061728%" x2="46.7189031%" y2="-3.45679012%" id="linearGradient-51">
            <stop stop-color="#E94287" offset="0%"></stop>
            <stop stop-color="#FCA15A" offset="100%"></stop>
        </linearGradient>
        <linearGradient x1="53.9276133%" y1="-87.9014518%" x2="49.6549573%" y2="75.9788825%" id="linearGradient-52">
            <stop stop-color="#780206" offset="1%"></stop>
            <stop stop-color="#061161" offset="100%"></stop>
        </linearGradient>
        <linearGradient x1="49.9966105%" y1="0.603015075%" x2="50.0053263%" y2="154.874372%" id="linearGradient-53">
            <stop stop-color="#B24592" offset="0%"></stop>
            <stop stop-color="#F15F79" offset="100%"></stop>
        </linearGradient>
        <linearGradient x1="5.08474576%" y1="39.2585662%" x2="166.949153%" y2="74.846347%" id="linearGradient-54">
            <stop stop-color="#B24592" offset="0%"></stop>
            <stop stop-color="#F15F79" offset="100%"></stop>
        </linearGradient>
        <linearGradient x1="55.3526755%" y1="-84.52237%" x2="48.9819119%" y2="75.3325272%" id="linearGradient-55">
            <stop stop-color="#780206" offset="1%"></stop>
            <stop stop-color="#061161" offset="100%"></stop>
        </linearGradient>
        <linearGradient x1="49.9907052%" y1="0.603015075%" x2="50.0146061%" y2="154.874372%" id="linearGradient-56">
            <stop stop-color="#B24592" offset="0%"></stop>
            <stop stop-color="#F15F79" offset="100%"></stop>
        </linearGradient>
        <linearGradient x1="50.1311965%" y1="77.245509%" x2="49.0816247%" y2="-101.896208%" id="linearGradient-57">
            <stop stop-color="#FFD54D" offset="0%"></stop>
            <stop stop-color="#FF5E61" offset="100%"></stop>
        </linearGradient>
        <linearGradient x1="1.46252285%" y1="33.9747913%" x2="100.731261%" y2="66.8658754%" id="linearGradient-58">
            <stop stop-color="#B24592" offset="0%"></stop>
            <stop stop-color="#F15F79" offset="100%"></stop>
        </linearGradient>
        <linearGradient x1="50.0015722%" y1="-2.38993711%" x2="49.9952835%" y2="139.874214%" id="linearGradient-59">
            <stop stop-color="#B24592" offset="0%"></stop>
            <stop stop-color="#F15F79" offset="100%"></stop>
        </linearGradient>
        <linearGradient x1="5.08474576%" y1="34.5729145%" x2="166.949153%" y2="85.6848745%" id="linearGradient-60">
            <stop stop-color="#B24592" offset="0%"></stop>
            <stop stop-color="#F15F79" offset="100%"></stop>
        </linearGradient>
        <linearGradient x1="49.9175277%" y1="0.603015075%" x2="50.1295994%" y2="154.874372%" id="linearGradient-61">
            <stop stop-color="#B24592" offset="0%"></stop>
            <stop stop-color="#F15F79" offset="100%"></stop>
        </linearGradient>
        <linearGradient x1="50.5225056%" y1="77.245509%" x2="46.3424605%" y2="-101.896208%" id="linearGradient-62">
            <stop stop-color="#FFD54D" offset="0%"></stop>
            <stop stop-color="#FF5E61" offset="100%"></stop>
        </linearGradient>
        <linearGradient x1="50.020465%" y1="-2.38993711%" x2="49.9386049%" y2="139.874214%" id="linearGradient-63">
            <stop stop-color="#B24592" offset="0%"></stop>
            <stop stop-color="#F15F79" offset="100%"></stop>
        </linearGradient>
        <linearGradient x1="126.170099%" y1="155.061728%" x2="11.7186357%" y2="-3.45679012%" id="linearGradient-64">
            <stop stop-color="#E94287" offset="0%"></stop>
            <stop stop-color="#FCA15A" offset="100%"></stop>
        </linearGradient>
        <linearGradient x1="70.3712831%" y1="155.061728%" x2="39.7618551%" y2="-3.45679012%" id="linearGradient-65">
            <stop stop-color="#E94287" offset="0%"></stop>
            <stop stop-color="#FCA15A" offset="100%"></stop>
        </linearGradient>
        <linearGradient x1="-47.5786122%" y1="69.7683695%" x2="212.750431%" y2="15.2082536%" id="linearGradient-66">
            <stop stop-color="#00A7F6" offset="0%"></stop>
            <stop stop-color="#032D8F" offset="100%"></stop>
        </linearGradient>
        <linearGradient x1="53.299291%" y1="-87.2222222%" x2="49.3729209%" y2="75.8333333%" id="linearGradient-67">
            <stop stop-color="#780206" offset="1%"></stop>
            <stop stop-color="#061161" offset="100%"></stop>
        </linearGradient>
        <linearGradient x1="50.0369476%" y1="77.245509%" x2="49.7413669%" y2="-101.896208%" id="linearGradient-68">
            <stop stop-color="#FFD54D" offset="0%"></stop>
            <stop stop-color="#FF5E61" offset="100%"></stop>
        </linearGradient>
    </defs>
    <g id="图标" stroke="none" stroke-width="1" fill="none" fill-rule="evenodd">
        <g id="commercial-centre" fill-rule="nonzero">
            <g id="_编组_4" transform="translate(0.000000, 2.875297)">
                <path d="M0.00135422433,5.72463366 L0.00135422433,5.72463366 L0.00135422433,5.30037801 L0.121872143,5.21894699 L0.222032306,5.33865059 L8.36513495,0.649852094 C8.77232863,0.414952501 9.27386665,0.414952501 9.68106033,0.649852094 L19.7589642,6.46891324 L19.929155,6.31582291 L20,6.39318239 L20,6.88176855 L20,6.88176855 C19.9958423,7.03459956 19.912167,7.17416132 19.7793219,7.24983678 L11.6419194,11.9410782 C11.234429,12.1759557 10.7326702,12.1759557 10.3251798,11.9410782 L0.222032306,6.10817379 C0.0850132592,6.02984426 0.000539884598,5.88409045 0.000539884598,5.72626228 L0.000539884598,5.72626228 L0.00135422433,5.72463366 Z" id="_路径_" fill="url(#linearGradient-1)"></path>
                <path d="M11.6370336,11.4647067 L19.7744361,6.77346528 C19.9118002,6.6944155 19.9964684,6.54800387 19.9964684,6.38951799 C19.9964684,6.23103211 19.9118002,6.08462048 19.7744361,6.0055707 L9.67698878,0.17592352 C9.26970549,-0.0586411734 8.76834669,-0.0586411734 8.3610634,0.17592352 L0.222032306,4.86635064 C0.0846681619,4.94540042 0,5.09181205 0,5.25029793 C0,5.40878381 0.0846681619,5.55519544 0.222032306,5.63424522 L10.3194796,11.4638924 C10.7270318,11.6993349 11.2291907,11.6996453 11.6370336,11.4647067 Z" id="_路径_2" fill="url(#linearGradient-2)"></path>
            </g>
            <g id="_编组_5" transform="translate(4.375015, 0.000000)">
                <g id="_编组_6" transform="translate(0.135990, 0.000000)">
                    <g id="_编组_8">
                        <g id="_编组_9" transform="translate(2.251568, 1.289867)" fill="#7A7A7A">
                            <polygon id="_路径_3" points="0 2.38674338 0.00407155132 6.99003931 3.83784427 4.78081556 3.83621565 -2.89301121e-16"></polygon>
                        </g>
                        <g id="_编组_10" transform="translate(0.005700, 2.368829)" fill="url(#linearGradient-3)">
                            <polygon id="_路径_4" points="2.24586771 1.30289642 0 -2.89301121e-16 0.00407155132 4.60411023 2.24993926 5.91107821"></polygon>
                        </g>
                        <g id="_编组_11" fill="url(#linearGradient-4)">
                            <polygon id="_路径_5" points="6.08778353 1.28986746 3.86064496 0 0 2.20108064 2.25156788 3.47954776"></polygon>
                        </g>
                    </g>
                    <g id="_编组_13" transform="translate(0.000000, 1.289867)">
                        <g id="_编组_14" transform="translate(2.252382, 0.000000)" fill="#5E5E5E">
                            <polygon id="_路径_6" points="1.15720449e-15 2.1896803 0.00407155132 2.45025958 3.83702996 0.232078425 3.83295841 2.89301121e-16"></polygon>
                        </g>
                        <g id="_编组_15" transform="translate(0.000000, 0.911213)" fill="url(#linearGradient-5)">
                            <polygon id="_路径_7" points="2.25238219 1.27846711 0 0 0.00407155132 0.232078425 2.25645374 1.5390464"></polygon>
                        </g>
                    </g>
                </g>
                <polygon id="_路径_8" fill="url(#linearGradient-6)" points="2.38755769 8.27990677 0 6.88906483 0 6.02671026 2.38755769 7.41836651"></polygon>
                <g id="_编组_16" transform="translate(2.061834, 0.701121)">
                    <g id="_编组_17" transform="translate(0.102603, 0.315952)">
                        <g id="_编组_18" transform="translate(0.000000, -0.000000)">
                            <g id="_编组_19" transform="translate(3.706740, 2.151408)" fill="url(#linearGradient-7)">
                                <polygon id="_路径_9" points="0 2.21492392 0.00407155132 7.75304802 3.83784427 5.54463859 3.83377272 0"></polygon>
                            </g>
                            <g id="_编组_20" transform="translate(-0.000000, 2.206781)" fill="url(#linearGradient-8)">
                                <polygon id="_路径_10" points="3.70674032 2.15385065 0 0 0.00325724106 5.54056704 3.71081187 7.69278906"></polygon>
                            </g>
                            <g id="_编组_21" transform="translate(0.000000, -0.000000)" fill="#C8C8C8">
                                <polygon id="_路径_11" points="7.54051305 2.15140772 3.85005893 4.33951682e-16 -1.15720449e-15 2.21166668 3.70674032 4.36633164"></polygon>
                            </g>
                        </g>
                    </g>
                    <g id="_编组_23">
                        <g id="_编组_24" transform="translate(3.843544, 2.219810)" fill="url(#linearGradient-9)">
                            <polygon id="_路径_12" points="0 2.23528167 0 2.48446062 3.93067564 0.24755032 3.92660409 0"></polygon>
                        </g>
                        <g id="_编组_25" transform="translate(0.000000, 2.242610)" fill="url(#linearGradient-10)">
                            <polygon id="_路径_13" points="3.84354445 2.21248099 0 0 0.00407155132 0.24755032 3.84354445 2.46165993"></polygon>
                        </g>
                        <g id="_编组_26" fill="url(#linearGradient-11)">
                            <polygon id="_路径_14" points="7.77014854 2.21980978 3.96080512 0 0 2.24261047 3.84354445 4.45509145"></polygon>
                        </g>
                    </g>
                </g>
                <g id="_编组_27" transform="translate(6.400479, 3.639967)">
                    <g id="_编组_29">
                        <g id="_编组_30" transform="translate(2.251568, 1.289867)" fill="url(#linearGradient-12)">
                            <polygon id="_路径_15" points="0 2.38674338 0.00407155132 6.989225 3.83784427 4.78081556 3.83621565 0"></polygon>
                        </g>
                        <g id="_编组_31" transform="translate(0.005700, 2.368014)" fill="url(#linearGradient-3)">
                            <polygon id="_路径_16" points="2.24586771 1.30371073 0 0 0.00407155132 4.60492454 2.24993926 5.91107821"></polygon>
                        </g>
                        <g id="_编组_32" fill="url(#linearGradient-4)">
                            <polygon id="_路径_17" points="6.08778353 1.28986746 3.86064496 0 0 2.20108064 2.25156788 3.47954776"></polygon>
                        </g>
                    </g>
                    <g id="_编组_34" transform="translate(0.000000, 1.289867)">
                        <g id="_编组_35" transform="translate(2.252382, 0.000000)" fill="url(#linearGradient-13)">
                            <polygon id="_路径_18" points="0 2.1896803 0.00407155132 2.45025958 3.83702996 0.232078425 3.83295841 0"></polygon>
                        </g>
                        <g id="_编组_36" transform="translate(0.000000, 0.911213)" fill="url(#linearGradient-5)">
                            <polygon id="_路径_19" points="2.25238219 1.27846711 0 0 0.00407155132 0.232078425 2.25645374 1.5390464"></polygon>
                        </g>
                    </g>
                </g>
                <polygon id="_路径_20" fill="url(#linearGradient-14)" points="5.87524856 10.9858598 2.0545048 8.75709258 2.0545048 7.9256818 5.87524856 10.1267624"></polygon>
                <polygon id="_路径_21" fill="url(#linearGradient-15)" points="6.40617885 9.83849661 5.871177 10.1471202 5.871177 10.9858598 6.40617885 10.6878222"></polygon>
                <polygon id="_路径_22" fill="url(#linearGradient-16)" points="12.5819079 8.90773998 8.65611811 11.1552363 8.65611811 12.023291 12.5819079 9.79615248"></polygon>
                <polygon id="_路径_23" fill="url(#linearGradient-17)" points="8.65611811 11.0607763 6.40617885 9.74892248 6.40617885 10.6878222 8.65611811 12.023291"></polygon>
                <g id="_编组_37" transform="translate(11.143022, 5.804404)">
                    <g id="_编组_38" opacity="0.3" fill="url(#linearGradient-18)">
                        <g id="编组">
                            <polygon id="路径" points="1 0 0 0.527673051 0 3.51700603 0.977954145 2.99829039"></polygon>
                        </g>
                    </g>
                    <g id="_编组_39" transform="translate(0.061888, 0.000000)">
                        <polygon id="_路径_24" fill="url(#linearGradient-19)" points="0.096 3.435575 0.004 3.3956738 0.004 0.487771848 0.096 0.527673051"></polygon>
                        <polygon id="_路径_25" fill="url(#linearGradient-20)" points="0.957831325 0.070844993 0.957831325 2.9355885 0.110154905 3.3875307 0.110154905 0.520344259"></polygon>
                        <polygon id="_路径_26" fill="#FFFFFF" opacity="0.1" points="0.166953528 0.477185815 0.95524957 0.0602589595 0.95524957 1.19459316"></polygon>
                        <polygon id="_路径_27" fill="url(#linearGradient-21)" points="1 0.0399012029 0.082616179 0.527673051 0.00344234079 0.487771848 0.921686747 0"></polygon>
                        <polygon id="_路径_28" fill="url(#linearGradient-22)" points="0.888051635 0.162047743 0.888051635 2.89243006 0.952051635 2.91278781 0.952051635 0.131918263"></polygon>
                        <polygon id="_路径_29" fill="url(#linearGradient-23)" points="0.885542169 2.89243006 0.141996558 3.28899916 0.141996558 3.34111501 0.940619621 2.91278781"></polygon>
                    </g>
                    <path d="M0.139247055,0.527673051 L0.139247055,3.435575 L0.139247055,3.435575 L1.13924706,2.93721712 L1.13924706,0.0399012029 L0.139247055,0.528487361 L0.139247055,0.527673051 Z M0.20397501,2.03007549 L1.0745191,1.60500553 L1.0745191,2.91278781 L0.20397501,3.34111501 L0.20397501,2.03007549 Z M0.20397501,1.94864446 L0.20397501,0.55454529 L1.0745191,0.131918263 L1.0745191,1.52438881 L0.20397501,1.94864446 Z" id="_复合路径_" fill="url(#linearGradient-24)"></path>
                </g>
                <g id="_编组_40" transform="translate(10.045331, 6.453409)">
                    <g id="_编组_41" opacity="0.3" fill="url(#linearGradient-25)">
                        <g id="编组">
                            <polygon id="路径" points="1 0 0 0.527673051 0 3.51700603 0.977954145 2.99747608"></polygon>
                        </g>
                    </g>
                    <g id="_编组_42" transform="translate(0.061888, 0.000000)">
                        <polygon id="_路径_30" fill="url(#linearGradient-19)" points="0.096 3.435575 0.004 3.39485949 0.004 0.487771848 0.096 0.527673051"></polygon>
                        <polygon id="_路径_31" fill="url(#linearGradient-26)" points="0.957831325 0.0700306827 0.957831325 2.93477419 0.10929432 3.3875307 0.10929432 0.520344259"></polygon>
                        <polygon id="_路径_32" fill="#FFFFFF" opacity="0.1" points="0.166953528 0.477185815 0.95524957 0.0602589595 0.95524957 1.19459316"></polygon>
                        <polygon id="_路径_33" fill="url(#linearGradient-21)" points="1 0.0399012029 0.082616179 0.527673051 0.00344234079 0.487771848 0.921686747 0"></polygon>
                        <polygon id="_路径_34" fill="url(#linearGradient-27)" points="0.888121343 0.161233432 0.888121343 2.89243006 0.951121343 2.91278781 0.951121343 0.131103953"></polygon>
                        <polygon id="_路径_35" fill="url(#linearGradient-23)" points="0.885542169 2.89243006 0.141135972 3.28818485 0.141135972 3.34111501 0.939759036 2.91278781"></polygon>
                    </g>
                    <path d="M0.138432745,0.527673051 L0.138432745,3.435575 L0.138432745,3.435575 L1.13843274,2.93721712 L1.13843274,0.0399012029 L0.138432745,0.528487361 L0.138432745,0.527673051 Z M0.204037243,2.02926118 L1.07001662,1.60826277 L1.07001662,2.91115919 L0.200288415,3.33948639 L0.204037243,2.02926118 Z M0.204037243,1.94783015 L0.204037243,0.55454529 L1.07376545,0.131103953 L1.07376545,1.52683175 L0.204037243,1.94783015 Z" id="_复合路径_2" fill="url(#linearGradient-24)"></path>
                </g>
                <g id="_编组_43" transform="translate(8.946013, 7.102414)">
                    <g id="_编组_44" opacity="0.3" fill="url(#linearGradient-28)">
                        <g id="编组">
                            <polygon id="路径" points="1 0 0 0.527673051 0 3.51700603 0.977954145 2.99829039"></polygon>
                        </g>
                    </g>
                    <g id="_编组_45" transform="translate(0.062295, 0.000000)">
                        <polygon id="_路径_36" fill="url(#linearGradient-19)" points="0.0955 3.435575 0.0045 3.3956738 0.0045 0.487771848 0.0955 0.527673051"></polygon>
                        <polygon id="_路径_37" fill="url(#linearGradient-29)" points="0.956989247 0.070844993 0.956989247 2.9355885 0.109677419 3.3875307 0.109677419 0.520344259"></polygon>
                        <polygon id="_路径_38" fill="#FFFFFF" opacity="0.1" points="0.166451613 0.477185815 0.954408602 0.0602589595 0.954408602 1.19459316"></polygon>
                        <polygon id="_路径_39" fill="url(#linearGradient-30)" points="1 0.0399012029 0.0821505376 0.527673051 0.00387096774 0.487771848 0.920860215 0"></polygon>
                        <polygon id="_路径_40" fill="url(#linearGradient-22)" points="0.887247312 0.161233432 0.887247312 2.89243006 0.951247312 2.91278781 0.951247312 0.131918263"></polygon>
                        <polygon id="_路径_41" fill="url(#linearGradient-31)" points="0.884731183 2.89243006 0.141505376 3.28899916 0.141505376 3.34111501 0.939784946 2.91278781"></polygon>
                    </g>
                    <path d="M0.139247055,0.527673051 L0.139247055,3.435575 L0.139247055,3.435575 L1.13924706,2.93721712 L1.13924706,0.0399012029 L0.139247055,0.528487361 L0.139247055,0.527673051 Z M0.204913096,2.03007549 L1.07545719,1.60500553 L1.07545719,2.91360212 L0.204913096,3.34192932 L0.204913096,2.03007549 Z M0.204913096,1.94864446 L0.204913096,0.552102359 L1.07545719,0.129475332 L1.07545719,1.52194588 L0.204913096,1.94864446 Z" id="_复合路径_3" fill="url(#linearGradient-24)"></path>
                </g>
                <polygon id="_路径_42" fill="url(#linearGradient-32)" points="12.4898908 8.8539955 8.65611811 11.0607763 8.65611811 11.1552363 12.5819079 8.90773998"></polygon>
                <polygon id="_路径_43" fill="url(#linearGradient-33)" points="8.65611811 11.0607763 6.40617885 9.74892248 5.871177 10.0551031 2.16769392 7.89799525 2.16769392 7.86379422 2.0545048 7.9256818 5.871177 10.1471202 6.40617885 9.83849661 8.65611811 11.1552363"></polygon>
                <g id="_编组_46" transform="translate(0.794767, 3.186396)">
                    <g id="_编组_47" opacity="0.3" transform="translate(0.086317, 0.000000)" fill="url(#linearGradient-34)">
                        <g id="编组">
                            <polygon id="路径" points="0 -5.78602243e-16 1 0.528487361 1 3.51782034 0.0211827008 2.99829039"></polygon>
                        </g>
                    </g>
                    <g id="_编组_48" transform="translate(0.000814, 0.000000)">
                        <polygon id="_路径_44" fill="url(#linearGradient-35)" points="0.91794148 3.435575 1.00994148 3.3956738 1.00994148 0.488586158 0.91794148 0.528487361"></polygon>
                        <polygon id="_路径_45" fill="url(#linearGradient-26)" points="0.0421686747 0.070844993 0.0421686747 2.9355885 0.89070568 3.38834501 0.89070568 0.520344259"></polygon>
                        <polygon id="_路径_46" fill="#FFFFFF" opacity="0.1" points="0.833046472 0.478000125 0.0447504303 0.0610732698 0.0447504303 1.19459316"></polygon>
                        <polygon id="_路径_47" fill="url(#linearGradient-36)" points="0 0.0407155132 0.917383821 0.528487361 0.996557659 0.488586158 0.078313253 0"></polygon>
                        <polygon id="_路径_48" fill="url(#linearGradient-27)" points="0.125889845 0.162047743 0.125889845 2.89324437 0.0618898451 2.91360212 0.0618898451 0.131918263"></polygon>
                        <polygon id="_路径_49" fill="url(#linearGradient-37)" points="0.114457831 2.89324437 0.858003442 3.28899916 0.858003442 3.34111501 0.0593803787 2.91360212"></polygon>
                    </g>
                    <path d="M1,0.528487361 L0,0.0399012029 L0,2.93721712 L1,3.43476069 L1,3.43476069 L1,0.528487361 Z M0.935332709,3.34111501 L0.0656044986,2.91360212 L0.0656044986,1.60500553 L0.935332709,2.03007549 L0.935332709,3.34111501 Z M0.0656044986,1.52438881 L0.0656044986,0.131918263 L0.935332709,0.55454529 L0.935332709,1.95027308 L0.0656044986,1.52438881 Z" id="_复合路径_4" fill="url(#linearGradient-38)"></path>
                </g>
                <g id="_编组_49" transform="translate(0.858283, 8.051086)">
                    <polygon id="_路径_50" fill="url(#linearGradient-39)" points="3.32320019 3.67579653 0 1.75321 0 1.46575848 3.32320019 3.38834501"></polygon>
                    <polygon id="_路径_51" fill="url(#linearGradient-40)" points="0.55373098 1.15876351 0 1.46575848 3.32320019 3.38834501 3.86797375 3.07972142"></polygon>
                    <polygon id="_路径_52" fill="url(#linearGradient-41)" points="3.6814967 3.18639606 0.358296516 1.26380953 0.358296516 0.975543696 3.6814967 2.89813023"></polygon>
                    <polygon id="_路径_53" fill="url(#linearGradient-40)" points="0.912027496 0.668548727 0.358296516 0.975543696 3.6814967 2.89813023 4.22627027 2.58950664"></polygon>
                    <polygon id="_路径_54" fill="url(#linearGradient-42)" points="4.05363649 2.68640956 0.729621997 0.763823028 0.729621997 0.476371504 4.05363649 2.39895804"></polygon>
                    <polygon id="_路径_55" fill="url(#linearGradient-43)" points="4.05363649 2.39895804 4.05363649 2.68722387 3.6814967 2.89813023 3.6814967 3.18395313 3.32320019 3.38834501 3.32320019 3.67579653 4.05363649 3.2604983 4.05363649 3.26131261 4.82153107 2.82158507 4.82560262 1.98773135"></polygon>
                    <polygon id="_路径_56" fill="url(#linearGradient-44)" points="1.57324743 0 0.716593032 0.482885987 4.04060753 2.40547252 4.90947658 1.9437586"></polygon>
                </g>
                <g id="_编组_50" transform="translate(2.391629, 4.479521)">
                    <g id="_编组_51" opacity="0.3" fill="url(#linearGradient-45)">
                        <g id="编组" transform="translate(0.000000, -0.000000)">
                            <polygon id="路径" points="0.0915492958 -1.15720449e-15 1 0.426698578 1 3.70104015 0 3.23118313"></polygon>
                        </g>
                    </g>
                    <polygon id="_路径_57" fill="url(#linearGradient-46)" points="0.819919517 3.61879481 0.912474849 3.57889361 0.912474849 0.386797375 0.819919517 0.426698578"></polygon>
                    <polygon id="_路径_58" fill="url(#linearGradient-47)" points="0.0492957746 0.070844993 0.0492957746 3.2287402 0.788732394 3.57156482 0.788732394 0.419369786"></polygon>
                    <polygon id="_路径_59" fill="#FFFFFF" opacity="0.1" points="0.721327968 0.376211342 0.0523138833 0.0602589595 0.0523138833 1.39817072"></polygon>
                    <polygon id="_路径_60" fill="url(#linearGradient-48)" points="0 0.0399012029 0.819919517 0.426698578 0.912474849 0.386797375 0.0915492958 0"></polygon>
                    <polygon id="_路径_61" fill="url(#linearGradient-49)" points="0.134808853 0.162047743 0.134808853 3.18639606 0.0704225352 3.20675382 0.0704225352 0.131918263"></polygon>
                    <polygon id="_路径_62" fill="url(#linearGradient-50)" points="0.134808853 3.18639606 0.750503018 3.47221897 0.750503018 3.52514913 0.0704225352 3.20675382"></polygon>
                    <path d="M1,0.426698578 L0,0.0399012029 L0,3.23118313 L1,3.61879481 L1,3.61879481 L1,0.426698578 L1,0.426698578 Z M0.915337423,3.52514913 L0.0846625767,3.20675382 L0.0846625767,1.78578241 L0.915337423,2.09196307 L0.915337423,3.52514913 Z M0.0846625767,1.70923724 L0.0846625767,0.131918263 L0.915337423,0.457642368 L0.915337423,2.0154179 L0.0846625767,1.70923724 Z" id="_复合路径_5" fill="url(#linearGradient-51)"></path>
                </g>
                <g id="_编组_52" transform="translate(4.841075, 5.915150)">
                    <g id="_编组_53" opacity="0.3" fill="url(#linearGradient-52)">
                        <g id="编组">
                            <polygon id="路径" points="0.0915492958 -1.15720449e-15 1 0.426698578 1 3.70185446 0 3.23199744"></polygon>
                        </g>
                    </g>
                    <polygon id="_路径_63" fill="url(#linearGradient-53)" points="0.819919517 3.61960912 0.912474849 3.57889361 0.912474849 0.386797375 0.819919517 0.426698578"></polygon>
                    <polygon id="_路径_64" fill="url(#linearGradient-47)" points="0.0492957746 0.070844993 0.0492957746 3.22955451 0.788732394 3.57156482 0.788732394 0.419369786"></polygon>
                    <polygon id="_路径_65" fill="#FFFFFF" opacity="0.1" points="0.721327968 0.376211342 0.0523138833 0.0610732698 0.0523138833 1.39817072"></polygon>
                    <polygon id="_路径_66" fill="url(#linearGradient-48)" points="0 0.0407155132 0.819919517 0.426698578 0.912474849 0.386797375 0.0915492958 0"></polygon>
                    <polygon id="_路径_67" fill="url(#linearGradient-49)" points="0.134808853 0.162047743 0.134808853 3.18639606 0.0704225352 3.20675382 0.0704225352 0.131918263"></polygon>
                    <polygon id="_路径_68" fill="url(#linearGradient-54)" points="0.134808853 3.18639606 0.751509054 3.47221897 0.751509054 3.52514913 0.0704225352 3.20675382"></polygon>
                    <path d="M1,0.426698578 L0,0.0407155132 L0,3.23199744 L1,3.61960912 L1,3.61960912 L1,0.426698578 Z M0.915337423,3.52514913 L0.0858895706,3.2051252 L0.0858895706,1.78578241 L0.915337423,2.09196307 L0.915337423,3.52514913 Z M0.0858895706,1.70598 L0.0858895706,0.131918263 L0.915337423,0.453570817 L0.915337423,2.01216066 L0.0858895706,1.70598 Z" id="_复合路径_6" fill="url(#linearGradient-51)"></path>
                </g>
                <g id="_编组_54" transform="translate(3.276785, 6.694445)">
                    <g id="_编组_55" opacity="0.3" transform="translate(0.074917, 0.000000)" fill="url(#linearGradient-55)">
                        <g id="编组">
                            <polygon id="路径" points="0 0 1.37455573 0.80290992 1.37455573 2.69373835 0.0342010311 1.89489998"></polygon>
                        </g>
                    </g>
                    <polygon id="_路径_69" fill="url(#linearGradient-56)" points="1.31350375 2.70351008 1.40450375 2.66360887 1.40450375 0.763008717 1.31350375 0.80290992"></polygon>
                    <polygon id="_路径_70" fill="url(#linearGradient-57)" points="0.0407155132 0.070844993 0.0407155132 1.93724412 1.28661022 2.65628008 1.28661022 0.795581128"></polygon>
                    <polygon id="_路径_71" fill="#FFFFFF" opacity="0.1" points="1.23286574 0.752422684 0.043158444 0.0602589595 0.043158444 1.60419122"></polygon>
                    <polygon id="_路径_72" fill="url(#linearGradient-58)" points="0 0.0399012029 1.31266815 0.80290992 1.38677038 0.763008717 0.0749165443 0"></polygon>
                    <polygon id="_路径_73" fill="url(#linearGradient-59)" points="0.124344134 0.161233432 0.124344134 1.89489998 0.0603441337 1.91525774 0.0603441337 0.131918263"></polygon>
                    <polygon id="_路径_74" fill="url(#linearGradient-60)" points="0.109117575 1.89489998 1.25648074 2.55693423 1.25648074 2.6098644 0.0570017185 1.91525774"></polygon>
                    <polygon id="_路径_75" fill="url(#linearGradient-59)" points="0.758691829 0.528487361 0.758691829 2.26215391 0.694691829 2.28251167 0.694691829 0.499172192"></polygon>
                </g>
                <g id="_编组_56" transform="translate(3.313428, 4.976250)">
                    <polygon id="_路径_76" fill="url(#linearGradient-61)" points="1.31350375 1.41445693 1.40450375 1.37455573 1.40450375 0.763008717 1.31350375 0.80290992"></polygon>
                    <polygon id="_路径_77" fill="url(#linearGradient-62)" points="0.0399012029 0.070844993 0.0399012029 0.64819097 1.28661022 1.36722693 1.28661022 0.795581128"></polygon>
                    <polygon id="_路径_78" fill="#FFFFFF" opacity="0.1" points="1.17179247 0.780923543 0.108303265 0.161233432 0.108303265 0.480443056"></polygon>
                    <polygon id="_路径_79" fill="url(#linearGradient-58)" points="0 0.0399012029 1.31266815 0.80290992 1.38677038 0.763008717 0.074102234 0"></polygon>
                    <polygon id="_路径_80" fill="url(#linearGradient-63)" points="0.123436979 0.161233432 0.123436979 0.605846836 0.0604369786 0.626204593 0.0604369786 0.131918263"></polygon>
                    <path d="M1.31266815,0.805352851 L1.31266815,0.805352851 L0,0.0399012029 L0,0.650633901 L1.31185384,1.41527124 L1.31185384,1.41527124 L1.31266815,0.805352851 Z M0.0561874082,0.134361194 L1.25566643,0.83222509 M0.0561874082,0.134361194 L1.25566643,0.83222509 L1.25566643,1.32081125 L0.0561874082,0.626204593" id="_复合路径_7" fill="url(#linearGradient-64)"></path>
                    <polygon id="_路径_81" fill="url(#linearGradient-60)" points="0.108303265 0.605846836 1.25648074 1.26788108 1.25648074 1.32081125 0.0570017185 0.626204593"></polygon>
                </g>
                <g id="_编组_56备份" transform="translate(3.313428, 5.871991)">
                    <polygon id="_路径_76" fill="url(#linearGradient-61)" points="1.31350375 1.41445693 1.40450375 1.37455573 1.40450375 0.763008717 1.31350375 0.80290992"></polygon>
                    <polygon id="_路径_77" fill="url(#linearGradient-62)" points="0.0399012029 0.070844993 0.0399012029 0.64819097 1.28661022 1.36722693 1.28661022 0.795581128"></polygon>
                    <polygon id="_路径_78" fill="#FFFFFF" opacity="0.1" points="1.17179247 0.780923543 0.108303265 0.161233432 0.108303265 0.480443056"></polygon>
                    <polygon id="_路径_79" fill="url(#linearGradient-58)" points="0 0.0399012029 1.31266815 0.80290992 1.38677038 0.763008717 0.074102234 0"></polygon>
                    <polygon id="_路径_80" fill="url(#linearGradient-63)" points="0.123436979 0.161233432 0.123436979 0.605846836 0.0604369786 0.626204593 0.0604369786 0.131918263"></polygon>
                    <path d="M1.31266815,0.805352851 L1.31266815,0.805352851 L0,0.0399012029 L0,0.650633901 L1.31185384,1.41527124 L1.31185384,1.41527124 L1.31266815,0.805352851 Z M0.0561874082,0.134361194 L1.25566643,0.83222509 M0.0561874082,0.134361194 L1.25566643,0.83222509 L1.25566643,1.32081125 L0.0561874082,0.626204593" id="_复合路径_7" fill="url(#linearGradient-64)"></path>
                    <polygon id="_路径_81" fill="url(#linearGradient-60)" points="0.108303265 0.605846836 1.25648074 1.26788108 1.25648074 1.32081125 0.0570017185 0.626204593"></polygon>
                </g>
                <path d="M4.59026696,7.4973546 L4.59026696,7.4973546 L3.2767845,6.73434588 L3.2767845,8.6316888 L4.58945265,9.39551183 L4.58945265,9.39551183 L4.59026696,7.4973546 Z M3.33378622,6.82636294 L3.90868927,7.16593032 L3.90868927,8.94764118 L3.33052898,8.61295966 L3.33378622,6.82636294 Z M4.53326524,9.30430908 L3.96813392,8.97858497 L3.96813392,7.19524549 L4.53326524,7.5209696 L4.53326524,9.30430908 Z" id="_复合路径_8" fill="url(#linearGradient-65)"></path>
                <polygon id="_路径_82" fill="url(#linearGradient-66)" points="0.144947227 6.00065234 2.16687961 7.19524549 2.16687961 7.28970548 0 6.02671026 0.144947227 5.93225027"></polygon>
                <g id="_编组_96" transform="translate(7.015283, 6.814148)">
                    <g id="_编组_97" opacity="0.3" transform="translate(0.085503, 0.000000)" fill="url(#linearGradient-67)">
                        <g id="编组">
                            <polygon id="路径" points="2.50632358e-15 0 1 0.527673051 1 3.51782034 0.0220458554 2.99829039"></polygon>
                        </g>
                    </g>
                    <g id="_编组_98">
                        <polygon id="_路径_118" fill="url(#linearGradient-19)" points="0.918478495 3.435575 1.00947849 3.3956738 1.00947849 0.487771848 0.918478495 0.527673051"></polygon>
                        <polygon id="_路径_119" fill="url(#linearGradient-68)" points="0.0421505376 0.070844993 0.0421505376 2.9355885 0.890322581 3.3875307 0.890322581 0.520344259"></polygon>
                        <polygon id="_路径_120" fill="#FFFFFF" opacity="0.1" points="0.833548387 0.478000125 0.0447311828 0.0602589595 0.0447311828 1.19459316"></polygon>
                        <polygon id="_路径_121" fill="url(#linearGradient-30)" points="0 0.0399012029 0.917849462 0.527673051 0.996129032 0.487771848 0.0791397849 0"></polygon>
                        <polygon id="_路径_122" fill="url(#linearGradient-22)" points="0.126731183 0.162047743 0.126731183 2.89243006 0.0627311828 2.91278781 0.0627311828 0.131918263"></polygon>
                        <polygon id="_路径_123" fill="url(#linearGradient-31)" points="0.115268817 2.89243006 0.858494624 3.28899916 0.858494624 3.34111501 0.0602150538 2.91278781"></polygon>
                    </g>
                    <path d="M0.999062793,0.527673051 L0,0.0390868927 L0,2.93721712 L1,3.43476069 L1,3.43476069 L1,0.527673051 L0.999062793,0.527673051 Z M0.935332709,3.34111501 L0.0656044986,2.91278781 L0.0656044986,1.60500553 L0.935332709,2.03007549 L0.935332709,3.34111501 Z M0.0656044986,1.52438881 L0.0656044986,0.131918263 L0.935332709,0.55454529 L0.935332709,1.94945877 L0.0656044986,1.52438881 Z" id="_复合路径_13" fill="url(#linearGradient-24)"></path>
                </g>
            </g>
        </g>
    </g>
</svg>