<?xml version="1.0" encoding="UTF-8"?>
<svg width="16px" height="16px" viewBox="0 0 16 16" version="1.1" xmlns="http://www.w3.org/2000/svg" xmlns:xlink="http://www.w3.org/1999/xlink">
    <title>DB4ACDB7-5653-4CE2-A805-2C32770EBE27</title>
    <g id="页面-1" stroke="none" stroke-width="1" fill="none" fill-rule="evenodd">
        <g id="vvv" transform="translate(-84.000000, -56.000000)">
            <g id="危险等级-3" transform="translate(84.000000, 56.000000)">
                <rect id="矩形" fill="#D8D8D8" opacity="0" x="0" y="0" width="16" height="16"></rect>
                <g id="风险" transform="translate(1.000000, 0.000000)" fill-rule="nonzero">
                    <path d="M0,1.56811712 C0,1.38397723 0.148852832,1.19983732 0.329043089,1.16795445 C0.329043089,1.16795445 6.07946278,0 6.99608282,0 C7.91270285,0 13.6787913,1.16795445 13.6787913,1.16795445 C13.8589815,1.20797071 13.9921657,1.37616918 14,1.56811712 L14,7.64798699 C14,9.87978853 12.5271405,12.7199675 10.686066,13.9601464 C10.686066,13.9601464 7.95970901,16 7.02742026,16 C6.09513151,16 3.32176833,13.9438796 3.32176832,13.9438796 C1.48852825,12.704026 0,9.88011388 0,7.64798699 L0,1.56811712 Z" id="路径" fill="#FFC119"></path>
                    <path d="M5.94027229,3.31725623 L4.0225804,8.011553 C3.95192858,8.17507101 4.05285974,8.31942063 4.24462894,8.31942063 L6.0815759,8.31942063 C6.27334509,8.31942063 6.39446248,8.46416146 6.35409001,8.64645663 L5.75859622,11.3879259 C5.60719949,12.1096741 5.83934113,12.205516 6.28343819,11.6093403 L9.94723901,6.73235713 C10.0582633,6.5880075 9.98761148,6.46282626 9.79584228,6.45343767 L7.50470514,6.39554134 C7.31293594,6.39554134 7.22209791,6.25119171 7.29274972,6.0876737 L8.57457536,3.29847904 C8.64522717,3.13456986 8.55438914,3 8.36261994,3 L6.4146487,3 C6.2228795,3.00938859 6.01092408,3.14434963 5.94027229,3.31725623 L5.94027229,3.31725623 Z" id="路径" fill="#FFFFFF"></path>
                </g>
            </g>
        </g>
    </g>
</svg>