<?xml version="1.0" encoding="UTF-8"?>
<svg width="24px" height="24px" viewBox="0 0 24 24" version="1.1" xmlns="http://www.w3.org/2000/svg" xmlns:xlink="http://www.w3.org/1999/xlink">
    <title>dapeng</title>
    <g id="图标" stroke="none" stroke-width="1" fill="none" fill-rule="evenodd">
        <g id="dapeng">
            <rect id="矩形备份-10" x="0" y="0" width="24" height="24"></rect>
            <path d="M10.4280343,4.54150943 L10.8783914,4.57615229 L11.0020538,4.69981472 L11.6887576,5.08131684 L12.147394,4.77555927 L12.2541277,4.45535814 L12.629915,4.40167424 L13.2896783,4.44048384 L13.66,4.672 L13.6283019,4.71572327 L13.6283019,5.15625146 L13.979071,5.50702055 L15.2276622,5.34416082 L16.826446,5.39118387 L17.7840018,5.29038852 L18.7333999,5.0191319 L19.5016929,5.10000485 L19.7677349,5.1997706 L19.9112272,5.31934753 L19.9581776,5.46019855 L19.9896986,5.68084536 L19.8769488,6.16942782 L19.2053311,7.42311415 L18.8298281,7.9655074 L17.8396301,8.71994396 L17.0204059,9.89757871 L16.8430195,10.370609 L16.7798186,11.0026189 L17.1215814,11.743105 L17.5506847,12.38676 L18.1132777,12.8368343 L19.1894907,13.2980685 L19.9161992,13.4537917 L20.5723398,13.4975345 L20.767037,13.594883 L20.9224551,13.8746357 L21.1099345,14.4839437 L21.5165161,15.2519312 L21.5975384,15.9811321 L21.5618225,16.3025751 L21.4599367,16.5403089 L20.8522423,17.4084437 L20.6150184,17.6117784 L18.9040434,18.2421377 L17.633849,18.6050503 L16.4893718,18.7090937 L16.0080855,19.19038 L15.5444827,20.1639459 L15.0979236,20.5360785 L14.8238704,20.6388484 L13.6842987,20.8076739 L12.6532428,20.477736 L12.4298479,20.3181682 L12.1559128,19.9268323 L11.7677069,19.1504206 L11.367454,17.2381012 L11.6534479,14.9501497 L11.3174695,13.9422144 L9.96735488,12.3420786 L9.17302129,11.7242635 L8.98933056,11.2466676 L8.79300296,10.2650296 L8.48315676,9.76927572 L7.63553229,9.08058084 L7.15312325,8.86617682 L6.47172833,8.60410185 L5.48368387,8.54921049 L4.37902307,8.91743076 L3.67475382,9.33999231 L3.33025868,9.44764704 L3.29622642,9.35405831 L3.29622642,8.71169631 L2.75471698,8.53119317 L2.619,8.576 L2.78738714,8.21904722 L2.71699452,7.5855136 L2.683,7.535 L2.694,7.53 L3.06,7.652 L3.12145484,7.72845172 L3.59126064,7.91637404 L3.685,7.884 L3.88679245,8.01847602 L4.41429573,7.66680717 L4.43797205,7.31166238 L4.50449326,7.33827086 L4.579,7.188 L4.99433962,7.27094043 L4.994,6.763 L5.25532492,6.79246622 L5.8627097,7.1973894 L5.95419609,6.37401191 L6.29310806,6.26104125 L6.355,6.137 L6.47059609,6.07984008 L6.801,6.013 L6.85785813,6.02771849 L6.945,5.983 L7.04716981,6.13620459 L7.25,5.831 L7.628,5.642 L7.8274816,5.69229417 L7.907,5.532 L8.15471698,5.53207547 L8.154,5.285 L8.36901913,5.17779837 L8.47,5.075 L8.94248785,4.98168814 L9.04010136,4.88407463 L9.82352108,4.70998136 L10.161,4.541 L10.4280343,4.54150943 Z" id="龙岗区-path" stroke="#548FF7" stroke-width="0.8" fill="#0F57EF" fill-rule="nonzero"></path>
        </g>
    </g>
</svg>