<?xml version="1.0" encoding="UTF-8"?>
<svg width="22px" height="22px" viewBox="0 0 22 22" version="1.1" xmlns="http://www.w3.org/2000/svg" xmlns:xlink="http://www.w3.org/1999/xlink">
    <title>知识文档</title>
    <g id="页面-1" stroke="none" stroke-width="1" fill="none" fill-rule="evenodd">
        <g id="Apple-TV备份-3" transform="translate(-521.000000, -230.000000)">
            <g id="知识文档" transform="translate(521.000000, 230.000000)">
                <rect id="矩形" x="0" y="0" width="22" height="22"></rect>
                <path d="M3.8,2 L3.8,20 L3,20 C2.44771525,20 2,19.5522847 2,19 L2,3 C2,2.44771525 2.44771525,2 3,2 L3.8,2 Z M12.9421488,6.72727273 L15.1735537,4.36363636 L17.0330579,6.72727273 L17.0330579,2 L19,2 C19.5522847,2 20,2.44771525 20,3 L20,19 C20,19.5522847 19.5522847,20 19,20 L5.6,20 L5.6,2 L12.9421488,2 L12.9421488,6.72727273 Z M16.8140496,13.4242424 L9.81404959,13.4242424 C9.48769951,13.4242424 9.2231405,13.6888014 9.2231405,14.0151515 C9.2231405,14.3415016 9.48769951,14.6060606 9.81404959,14.6060606 L9.81404959,14.6060606 L16.8140496,14.6060606 C17.1403997,14.6060606 17.4049587,14.3415016 17.4049587,14.0151515 C17.4049587,13.6888014 17.1403997,13.4242424 16.8140496,13.4242424 L16.8140496,13.4242424 Z M16.8140496,10.2727273 L9.81404959,10.2727273 C9.48769951,10.2727273 9.2231405,10.5372863 9.2231405,10.8636364 C9.2231405,11.1899864 9.48769951,11.4545455 9.81404959,11.4545455 L9.81404959,11.4545455 L16.8140496,11.4545455 C17.1403997,11.4545455 17.4049587,11.1899864 17.4049587,10.8636364 C17.4049587,10.5372863 17.1403997,10.2727273 16.8140496,10.2727273 L16.8140496,10.2727273 Z" id="形状结合" fill="#FFFFFF"></path>
            </g>
        </g>
    </g>
</svg>