<?xml version="1.0" standalone="no"?><!DOCTYPE svg PUBLIC "-//W3C//DTD SVG 1.1//EN" "http://www.w3.org/Graphics/SVG/1.1/DTD/svg11.dtd"><svg t="1610418818228" class="icon" viewBox="0 0 1024 1024" version="1.1" xmlns="http://www.w3.org/2000/svg" p-id="3961" xmlns:xlink="http://www.w3.org/1999/xlink" width="32" height="32"><defs><style type="text/css"></style></defs><path d="M638.635 341.333c5.461-0.682 10.24 0.854 14.336 4.608a18.219 18.219 0 0 1 5.632 13.312v36.864l-0.256 3.243a18.176 18.176 0 0 1-3.84 8.533 16.47 16.47 0 0 1-10.752 6.144c-2.731 0.342-5.12 0.683-7.168 1.024a27.136 27.136 0 0 0-5.632 1.536c-9.899 3.755-17.067 7.51-21.504 11.264a33.408 33.408 0 0 0-8.192 10.752c-1.707 5.803-2.56 11.264-2.56 16.384 0 0.683 0.17 1.707 0.512 3.072 0.341 1.366 1.706 3.243 4.096 5.632 4.778 4.779 11.776 9.046 20.992 12.8 3.072 1.366 6.485 2.646 10.24 3.84a292.268 292.268 0 0 1 11.264 3.84c2.389 0.683 4.693 1.28 6.912 1.792a138.84 138.84 0 0 1 6.912 1.792 989.183 989.183 0 0 1 21.504 5.376 693.76 693.76 0 0 0 28.672 6.912l3.072 1.024 6.613 1.707a615.808 615.808 0 0 1 28.16 8.533c16.085 5.462 30.08 12.118 42.027 19.968 14.677 9.216 25.856 20.48 33.536 33.792 7.68 13.312 11.52 28.16 11.52 44.544 0 38.571-14.678 68.096-44.032 88.576-10.24 7.51-22.102 13.483-35.584 17.92a214.272 214.272 0 0 1-44.8 9.216h-2.048l-3.414-0.298a15.275 15.275 0 0 1-8.362-4.31 16.512 16.512 0 0 1-6.144-13.312V670.55l0.298-3.413a16.299 16.299 0 0 1 4.31-8.619 19.115 19.115 0 0 1 11.264-5.888c13.312-1.365 23.552-3.84 30.72-7.424 7.168-3.584 12.458-7.424 15.872-11.52a24.021 24.021 0 0 0 5.888-12.288c0.512-4.096 0.768-7.509 0.768-10.24a19.712 19.712 0 0 0-9.216-17.408 139.008 139.008 0 0 0-41.984-18.432l-3.072-1.024-1.536-0.512-11.392-3.072-11.648-3.072a496.47 496.47 0 0 0-24.064-5.632 380.843 380.843 0 0 1-20.48-5.12 274.347 274.347 0 0 1-38.912-12.8 154.453 154.453 0 0 1-49.664-32.256c-15.019-15.018-22.528-34.816-22.528-59.392 0-33.792 12.97-61.269 38.912-82.432 17.749-15.018 42.666-24.576 74.752-28.672z m-65.536 242.688l3.456 0.299a17.067 17.067 0 0 1 8.832 4.565c3.413 3.243 5.29 7.254 5.632 12.032 1.024 17.067 9.386 30.208 25.088 39.424a69.363 69.363 0 0 0 13.056 5.888c4.608 1.536 9.642 2.987 15.104 4.352a15.53 15.53 0 0 1 10.496 6.144c2.56 3.414 3.84 7.168 3.84 11.264v37.888l-0.256 3.328a16.47 16.47 0 0 1-5.888 10.496 18.347 18.347 0 0 1-11.776 4.096h-2.56l-11.648-2.048c-26.539-5.418-48.768-15.146-66.688-29.184-26.624-21.162-41.643-50.688-45.056-88.576a15.787 15.787 0 0 1 4.608-13.824 16.512 16.512 0 0 1 13.312-6.144h40.448z m-317.142-242.73v375.808l-46.378 0.042-3.456-0.341a17.579 17.579 0 0 1-9.088-5.035 17.195 17.195 0 0 1-5.376-12.544V359.253l0.341-3.456a17.579 17.579 0 0 1 5.035-9.088 17.195 17.195 0 0 1 12.544-5.376h46.378z m34.134 303.104l169.344 0.042 3.669 0.342a16.64 16.64 0 0 1 9.13 5.034c3.414 3.584 5.12 7.766 5.12 12.544v36.864l-0.34 3.456a17.835 17.835 0 0 1-4.78 9.088 16.939 16.939 0 0 1-12.8 5.376H290.092v-72.746z m0-152.064l146.816 0.042 3.669 0.342a16.64 16.64 0 0 1 9.13 5.034c3.414 3.584 5.12 7.766 5.12 12.544v37.376l-0.34 3.456a17.835 17.835 0 0 1-4.78 9.088 16.939 16.939 0 0 1-12.8 5.376H290.092v-73.258z m418.048-149.803l3.2 0.341c30.037 4.779 54.442 15.019 73.216 30.72 25.6 21.163 39.253 48.128 40.96 80.896a18.219 18.219 0 0 1-4.608 13.312 18.219 18.219 0 0 1-13.312 5.632h-39.936l-3.2-0.256a16.512 16.512 0 0 1-8.32-4.096 18.347 18.347 0 0 1-5.888-11.52 143.403 143.403 0 0 0-2.816-10.496 36.053 36.053 0 0 0-6.144-11.52 48.64 48.64 0 0 0-12.288-10.752 76.501 76.501 0 0 0-20.736-8.704c-1.024 0-1.707-0.17-2.048-0.512h-2.048l-2.944-0.981a18.048 18.048 0 0 1-10.88-16.939v-37.376l0.256-3.157a17.707 17.707 0 0 1 6.4-10.667 16.555 16.555 0 0 1 14.336-3.584z m-248.704-1.195l3.669 0.342a16.64 16.64 0 0 1 9.13 5.034c3.414 3.584 5.12 7.766 5.12 12.544v36.864l-0.34 3.456a17.835 17.835 0 0 1-4.78 9.088 16.939 16.939 0 0 1-12.8 5.376H290.092v-72.789l169.344 0.085z" fill="#5063C2" p-id="3962"></path></svg>