<?xml version="1.0" encoding="UTF-8"?>
<svg width="70px" height="70px" viewBox="0 0 70 70" version="1.1" xmlns="http://www.w3.org/2000/svg" xmlns:xlink="http://www.w3.org/1999/xlink">
    <title>4F5AC6B3-513C-4314-8D1B-A33B9F650F02</title>
    <defs>
        <linearGradient x1="98.8750751%" y1="50%" x2="0%" y2="50%" id="linearGradient-1">
            <stop stop-color="#FFC766" offset="0%"></stop>
            <stop stop-color="#BE4100" offset="100%"></stop>
        </linearGradient>
        <rect id="path-2" x="9.9" y="6.62068966" width="56.1" height="19.862069" rx="9.9"></rect>
        <filter x="-3.6%" y="-10.1%" width="107.1%" height="120.1%" filterUnits="objectBoundingBox" id="filter-3">
            <feGaussianBlur stdDeviation="1.5" in="SourceAlpha" result="shadowBlurInner1"></feGaussianBlur>
            <feOffset dx="1" dy="1" in="shadowBlurInner1" result="shadowOffsetInner1"></feOffset>
            <feComposite in="shadowOffsetInner1" in2="SourceAlpha" operator="arithmetic" k2="-1" k3="1" result="shadowInnerInner1"></feComposite>
            <feColorMatrix values="0 0 0 0 1   0 0 0 0 1   0 0 0 0 1  0 0 0 0.5 0" type="matrix" in="shadowInnerInner1"></feColorMatrix>
        </filter>
    </defs>
    <g id="事件概览" stroke="none" stroke-width="1" fill="none" fill-rule="evenodd">
        <g id="紧急备份" transform="translate(0.000000, 17.000000)">
            <g id="矩形" fill-rule="nonzero">
                <use fill="url(#linearGradient-1)" xlink:href="#path-2"></use>
                <use fill="black" fill-opacity="1" filter="url(#filter-3)" xlink:href="#path-2"></use>
            </g>
            <rect id="矩形" fill="#000000" fill-rule="nonzero" opacity="0" x="0" y="0" width="31.9" height="32"></rect>
            <polygon id="路径" fill="#82D2FF" fill-rule="nonzero" points="22.3455762 19.703125 27.2801074 22.5625 15.95 29.125 4.61989258 22.5625 4.61989258 9.4375 9.55442383 12.296875 9.55442383 19.703125 15.95 23.40625"></polygon>
            <polygon id="路径" fill="#BE4100" fill-rule="nonzero" points="22.3455762 12.296875 15.95 8.59375 15.95 2.875 27.2801074 9.4375"></polygon>
            <polygon id="路径" fill="#E76402" fill-rule="nonzero" points="15.95 2.875 15.95 8.59375 9.55442383 12.296875 4.61989258 9.4375"></polygon>
            <polygon id="路径" fill="#BE4100" fill-rule="nonzero" points="9.55442383 12.296875 9.55442383 19.703125 4.61989258 22.5625 4.61989258 9.4375"></polygon>
            <path d="M27.2801074,9.4375 L27.2801074,22.5625 L22.3455762,19.703125 L22.3455762,12.296875 L27.2801074,9.4375 Z M15.95,23.40625 L15.95,29.125 L4.61989258,22.5625 L9.55442383,19.703125 L15.95,23.40625 Z" id="形状" fill="#981D00" fill-rule="nonzero"></path>
            <polygon id="路径" fill="#6A0100" fill-rule="nonzero" points="27.2801074 22.5625 15.95 29.125 15.95 23.40625 22.3455762 19.703125"></polygon>
            <polygon id="路径" fill="#FFC766" fill-rule="nonzero" points="22.3455762 19.703125 22.3455762 12.296875 15.95 8.59375 9.55442383 12.296875 9.55442383 19.703125 15.95 23.40625"></polygon>
            <polygon id="路径" fill="#FF932F" fill-rule="nonzero" points="22.3455762 19.703125 22.3455762 12.296875 15.95 8.59375 15.95 23.40625"></polygon>
            <path d="M26.1523926,10.775 C25.5075391,10.628125 25.0028711,10.11875 24.8564551,9.475 C24.8439941,9.425 24.7816895,9.425 24.7692285,9.475 C24.6228125,10.121875 24.1150293,10.628125 23.473291,10.775 C23.4234473,10.7875 23.4234473,10.85 23.473291,10.8625 C24.1181445,11.009375 24.6228125,11.51875 24.7692285,12.1625 C24.7816895,12.2125 24.8439941,12.2125 24.8564551,12.1625 C25.0028711,11.515625 25.5106543,11.009375 26.1523926,10.8625 C26.1991211,10.85 26.1991211,10.784375 26.1523926,10.775 Z M23.3331055,12.296875 C22.8284375,12.165625 22.4296875,11.765625 22.2988477,11.259375 C22.2863867,11.209375 22.2209668,11.209375 22.2053906,11.259375 C22.0745508,11.765625 21.6758008,12.165625 21.1711328,12.296875 C21.1212891,12.309375 21.1212891,12.375 21.1711328,12.390625 C21.6758008,12.521875 22.0745508,12.921875 22.2053906,13.428125 C22.2178516,13.478125 22.2832715,13.478125 22.2988477,13.428125 C22.4296875,12.921875 22.8284375,12.521875 23.3331055,12.390625 C23.3829492,12.375 23.3829492,12.309375 23.3331055,12.296875 Z" id="形状" fill="#FFFFFF" fill-rule="nonzero"></path>
            <text id="紧急" font-family="PingFang-SC-Medium, PingFang SC" font-size="11" font-weight="400" fill="#FFFFFF">
                <tspan x="31.9" y="20.8526646">紧急</tspan>
            </text>
            <path d="M15.47238,13.1255153 C15.5859,13.1255153 15.67808,13.2179862 15.67808,13.3318621 L15.67808,14.9843862 C15.6780333,15.071075 15.7320058,15.1485498 15.8131733,15.1783058 C15.8943408,15.2080618 15.9853941,15.1837535 16.04108,15.1174621 L17.6561,13.1990069 C17.6952382,13.1525365 17.7527551,13.1256649 17.8134,13.1255153 L19.44272,13.1255153 C19.5214417,13.1253914 19.5933311,13.1703462 19.6278797,13.2413035 C19.6624282,13.3122608 19.6535761,13.3967748 19.60508,13.4589793 L15.88268,18.2333793 C15.843766,18.2832934 15.7841477,18.3125044 15.72098,18.3126069 L14.52352,18.3126069 C14.4099795,18.3123646 14.3179629,18.2201581 14.3176,18.1062621 L14.3176,14.2828138 C14.3174787,14.1689031 14.2254547,14.0765906 14.1119,14.076469 L13.52098,14.076469 C13.4075469,14.0762256 13.31572,13.9839131 13.31572,13.8701241 L13.31572,13.3307586 C13.3159529,13.2760909 13.3378253,13.2237552 13.3765254,13.1852648 C13.4152255,13.1467745 13.4675832,13.1252826 13.52208,13.1255153 L15.47238,13.1255153 L15.47238,13.1255153 Z" id="路径" fill="#FFFFFF" fill-rule="nonzero"></path>
        </g>
    </g>
</svg>