<?xml version="1.0" encoding="UTF-8"?>
<svg width="20px" height="14px" viewBox="0 0 20 14" version="1.1" xmlns="http://www.w3.org/2000/svg" xmlns:xlink="http://www.w3.org/1999/xlink">
    <title>exhibition-hall</title>
    <defs>
        <linearGradient x1="-26.6701991%" y1="74.7717882%" x2="59.7341811%" y2="46.8451882%" id="linearGradient-1">
            <stop stop-color="#3E1D81" offset="0%"></stop>
            <stop stop-color="#3763DD" offset="100%"></stop>
        </linearGradient>
        <linearGradient x1="0.00262266721%" y1="50.0029%" x2="99.9890752%" y2="50.0029%" id="linearGradient-2">
            <stop stop-color="#5F1DCE" offset="0%"></stop>
            <stop stop-color="#37A9DD" offset="100%"></stop>
        </linearGradient>
        <linearGradient x1="49.9512721%" y1="27.4787234%" x2="51.0598325%" y2="164.276596%" id="linearGradient-3">
            <stop stop-color="#3281FF" offset="0%"></stop>
            <stop stop-color="#241B96" offset="93%"></stop>
            <stop stop-color="#23138E" offset="100%"></stop>
        </linearGradient>
        <linearGradient x1="50.1312143%" y1="34.9320029%" x2="48.7534638%" y2="194.664843%" id="linearGradient-4">
            <stop stop-color="#3281FF" offset="0%"></stop>
            <stop stop-color="#241B96" offset="93%"></stop>
            <stop stop-color="#23138E" offset="100%"></stop>
        </linearGradient>
        <linearGradient x1="-837.740654%" y1="50.7965202%" x2="-837.939626%" y2="180.442888%" id="linearGradient-5">
            <stop stop-color="#3281FF" offset="0%"></stop>
            <stop stop-color="#241B96" offset="93%"></stop>
            <stop stop-color="#23138E" offset="100%"></stop>
        </linearGradient>
        <linearGradient x1="52.205129%" y1="-8.01475282%" x2="46.7847505%" y2="134.442159%" id="linearGradient-6">
            <stop stop-color="#3281FF" offset="0%"></stop>
            <stop stop-color="#241B96" offset="93%"></stop>
            <stop stop-color="#23138E" offset="100%"></stop>
        </linearGradient>
        <linearGradient x1="-58.4775087%" y1="98.6196889%" x2="101.95718%" y2="26.714319%" id="linearGradient-7">
            <stop stop-color="#9B09FF" offset="0%"></stop>
            <stop stop-color="#2509B8" offset="100%"></stop>
        </linearGradient>
        <linearGradient x1="52.5977121%" y1="-20.0234676%" x2="47.0209724%" y2="134.631466%" id="linearGradient-8">
            <stop stop-color="#9B09FF" offset="0%"></stop>
            <stop stop-color="#2509B8" offset="100%"></stop>
        </linearGradient>
        <linearGradient x1="41.2408759%" y1="45.4657935%" x2="129.492527%" y2="141.593231%" id="linearGradient-9">
            <stop stop-color="#1CFBE9" offset="0%"></stop>
            <stop stop-color="#38FF9B" offset="100%"></stop>
        </linearGradient>
        <linearGradient x1="48.3733592%" y1="-12.5758059%" x2="52.2724233%" y2="159.602085%" id="linearGradient-10">
            <stop stop-color="#3281FF" offset="0%"></stop>
            <stop stop-color="#241B96" offset="93%"></stop>
            <stop stop-color="#23138E" offset="100%"></stop>
        </linearGradient>
        <linearGradient x1="51.9605857%" y1="-8.01475282%" x2="47.1413136%" y2="134.442159%" id="linearGradient-11">
            <stop stop-color="#3281FF" offset="0%"></stop>
            <stop stop-color="#241B96" offset="93%"></stop>
            <stop stop-color="#23138E" offset="100%"></stop>
        </linearGradient>
        <linearGradient x1="49.9478429%" y1="-2.94881934%" x2="50.0799743%" y2="111.128686%" id="linearGradient-12">
            <stop stop-color="#3281FF" offset="0%"></stop>
            <stop stop-color="#241B96" offset="93%"></stop>
            <stop stop-color="#23138E" offset="100%"></stop>
        </linearGradient>
        <linearGradient x1="50.0379122%" y1="34.9320029%" x2="49.639834%" y2="194.664843%" id="linearGradient-13">
            <stop stop-color="#3281FF" offset="0%"></stop>
            <stop stop-color="#241B96" offset="93%"></stop>
            <stop stop-color="#23138E" offset="100%"></stop>
        </linearGradient>
        <linearGradient x1="87.1965731%" y1="18.322429%" x2="39.3860067%" y2="59.0294377%" id="linearGradient-14">
            <stop stop-color="#9B09FF" offset="0%"></stop>
            <stop stop-color="#2509B8" offset="100%"></stop>
        </linearGradient>
        <linearGradient x1="51.8199361%" y1="-56.2652155%" x2="48.5632083%" y2="113.203494%" id="linearGradient-15">
            <stop stop-color="#9B09FF" offset="0%"></stop>
            <stop stop-color="#2509B8" offset="100%"></stop>
        </linearGradient>
        <linearGradient x1="374.624798%" y1="-61.8086787%" x2="-58.854768%" y2="87.3002215%" id="linearGradient-16">
            <stop stop-color="#9B09FF" offset="0%"></stop>
            <stop stop-color="#2509B8" offset="100%"></stop>
        </linearGradient>
        <linearGradient x1="49.5101185%" y1="94.2385088%" x2="51.1328509%" y2="-52.234696%" id="linearGradient-17">
            <stop stop-color="#FFD54D" offset="0%"></stop>
            <stop stop-color="#FF5E61" offset="100%"></stop>
        </linearGradient>
        <linearGradient x1="49.9856626%" y1="26.8001112%" x2="50.075128%" y2="176.230192%" id="linearGradient-18">
            <stop stop-color="#B24592" offset="0%"></stop>
            <stop stop-color="#F15F79" offset="100%"></stop>
        </linearGradient>
        <linearGradient x1="59.2445494%" y1="108.323033%" x2="39.547114%" y2="-15.8014009%" id="linearGradient-19">
            <stop stop-color="#E94287" offset="0%"></stop>
            <stop stop-color="#FCA15A" offset="100%"></stop>
        </linearGradient>
        <linearGradient x1="-4.5622688%" y1="28.6633124%" x2="135.635018%" y2="80.8196599%" id="linearGradient-20">
            <stop stop-color="#B24592" offset="0%"></stop>
            <stop stop-color="#F15F79" offset="100%"></stop>
        </linearGradient>
        <linearGradient x1="55.3880357%" y1="-85.7034221%" x2="48.9612255%" y2="75.6653992%" id="linearGradient-21">
            <stop stop-color="#780206" offset="1%"></stop>
            <stop stop-color="#061161" offset="100%"></stop>
        </linearGradient>
        <linearGradient x1="50.0124191%" y1="-1.77192185%" x2="49.9737819%" y2="172.239891%" id="linearGradient-22">
            <stop stop-color="#B24592" offset="0%"></stop>
            <stop stop-color="#F15F79" offset="100%"></stop>
        </linearGradient>
        <linearGradient x1="50%" y1="76.7850325%" x2="50%" y2="-69.4539901%" id="linearGradient-23">
            <stop stop-color="#FFD54D" offset="0%"></stop>
            <stop stop-color="#FF5E61" offset="100%"></stop>
        </linearGradient>
        <linearGradient x1="10.8604845%" y1="38.1894183%" x2="163.324979%" y2="84.241873%" id="linearGradient-24">
            <stop stop-color="#B24592" offset="0%"></stop>
            <stop stop-color="#F15F79" offset="100%"></stop>
        </linearGradient>
        <linearGradient x1="50%" y1="7.62582613%" x2="50%" y2="125.826131%" id="linearGradient-25">
            <stop stop-color="#B24592" offset="0%"></stop>
            <stop stop-color="#F15F79" offset="100%"></stop>
        </linearGradient>
        <linearGradient x1="60.5088728%" y1="102.117561%" x2="39.727486%" y2="-1.13179993%" id="linearGradient-26">
            <stop stop-color="#E94287" offset="0%"></stop>
            <stop stop-color="#FCA15A" offset="100%"></stop>
        </linearGradient>
        <linearGradient x1="36.1262242%" y1="47.2549873%" x2="184.76605%" y2="69.7521566%" id="linearGradient-27">
            <stop stop-color="#B24592" offset="0%"></stop>
            <stop stop-color="#F15F79" offset="100%"></stop>
        </linearGradient>
        <linearGradient x1="-4.64705882%" y1="20.5002076%" x2="179%" y2="120.083322%" id="linearGradient-28">
            <stop stop-color="#E94287" offset="0%"></stop>
            <stop stop-color="#FCA15A" offset="100%"></stop>
        </linearGradient>
        <linearGradient x1="8.10810811%" y1="22.0398945%" x2="156.425814%" y2="103.350062%" id="linearGradient-29">
            <stop stop-color="#B24592" offset="0%"></stop>
            <stop stop-color="#F15F79" offset="100%"></stop>
        </linearGradient>
        <linearGradient x1="117.003996%" y1="-13.6310223%" x2="-47.6295599%" y2="143.243243%" id="linearGradient-30">
            <stop stop-color="#E94287" offset="0%"></stop>
            <stop stop-color="#FCA15A" offset="100%"></stop>
        </linearGradient>
        <linearGradient x1="68.2804674%" y1="14.5717464%" x2="-84.7245409%" y2="191.991101%" id="linearGradient-31">
            <stop stop-color="#B24592" offset="0%"></stop>
            <stop stop-color="#F15F79" offset="100%"></stop>
        </linearGradient>
        <linearGradient x1="44.6071365%" y1="-85.7034221%" x2="51.0475346%" y2="75.6653992%" id="linearGradient-32">
            <stop stop-color="#780206" offset="1%"></stop>
            <stop stop-color="#061161" offset="100%"></stop>
        </linearGradient>
        <linearGradient x1="49.9875922%" y1="-1.77111717%" x2="50.0261943%" y2="172.207084%" id="linearGradient-33">
            <stop stop-color="#B24592" offset="0%"></stop>
            <stop stop-color="#F15F79" offset="100%"></stop>
        </linearGradient>
        <linearGradient x1="49.8987854%" y1="78.6860199%" x2="49.8987854%" y2="-67.6470588%" id="linearGradient-34">
            <stop stop-color="#FFD54D" offset="0%"></stop>
            <stop stop-color="#FF5E61" offset="100%"></stop>
        </linearGradient>
        <linearGradient x1="89.0651085%" y1="38.1894183%" x2="-63.2721202%" y2="84.1978037%" id="linearGradient-35">
            <stop stop-color="#B24592" offset="0%"></stop>
            <stop stop-color="#F15F79" offset="100%"></stop>
        </linearGradient>
        <linearGradient x1="49.5%" y1="7.62970498%" x2="49.5%" y2="125.890132%" id="linearGradient-36">
            <stop stop-color="#B24592" offset="0%"></stop>
            <stop stop-color="#F15F79" offset="100%"></stop>
        </linearGradient>
        <linearGradient x1="39.4780469%" y1="102.26691%" x2="60.3211873%" y2="-1.13345521%" id="linearGradient-37">
            <stop stop-color="#E94287" offset="0%"></stop>
            <stop stop-color="#FCA15A" offset="100%"></stop>
        </linearGradient>
        <linearGradient x1="63.8344227%" y1="47.2444052%" x2="-84.8583878%" y2="69.7683973%" id="linearGradient-38">
            <stop stop-color="#B24592" offset="0%"></stop>
            <stop stop-color="#F15F79" offset="100%"></stop>
        </linearGradient>
        <linearGradient x1="117.161745%" y1="-13.7647059%" x2="-47.9442118%" y2="143.411765%" id="linearGradient-39">
            <stop stop-color="#E94287" offset="0%"></stop>
            <stop stop-color="#FCA15A" offset="100%"></stop>
        </linearGradient>
        <linearGradient x1="68.2235069%" y1="14.4605117%" x2="-84.6537844%" y2="191.991101%" id="linearGradient-40">
            <stop stop-color="#B24592" offset="0%"></stop>
            <stop stop-color="#F15F79" offset="100%"></stop>
        </linearGradient>
        <linearGradient x1="44.6119643%" y1="-85.7034221%" x2="51.0387745%" y2="75.6653992%" id="linearGradient-41">
            <stop stop-color="#780206" offset="1%"></stop>
            <stop stop-color="#061161" offset="100%"></stop>
        </linearGradient>
        <linearGradient x1="49.9875809%" y1="-1.77192185%" x2="50.0262181%" y2="172.239891%" id="linearGradient-42">
            <stop stop-color="#B24592" offset="0%"></stop>
            <stop stop-color="#F15F79" offset="100%"></stop>
        </linearGradient>
        <linearGradient x1="50%" y1="74.0740741%" x2="50%" y2="-72.203131%" id="linearGradient-43">
            <stop stop-color="#FFD54D" offset="0%"></stop>
            <stop stop-color="#FF5E61" offset="100%"></stop>
        </linearGradient>
        <linearGradient x1="89.1395155%" y1="38.145349%" x2="-63.3249791%" y2="84.1978037%" id="linearGradient-44">
            <stop stop-color="#B24592" offset="0%"></stop>
            <stop stop-color="#F15F79" offset="100%"></stop>
        </linearGradient>
        <linearGradient x1="49%" y1="7.62582613%" x2="49%" y2="125.826131%" id="linearGradient-45">
            <stop stop-color="#B24592" offset="0%"></stop>
            <stop stop-color="#F15F79" offset="100%"></stop>
        </linearGradient>
        <linearGradient x1="39.4674989%" y1="102.229532%" x2="60.3136439%" y2="-1.09649123%" id="linearGradient-46">
            <stop stop-color="#E94287" offset="0%"></stop>
            <stop stop-color="#FCA15A" offset="100%"></stop>
        </linearGradient>
        <linearGradient x1="63.7649619%" y1="47.2549873%" x2="-84.7660501%" y2="69.6924824%" id="linearGradient-47">
            <stop stop-color="#B24592" offset="0%"></stop>
            <stop stop-color="#F15F79" offset="100%"></stop>
        </linearGradient>
        <linearGradient x1="117.003996%" y1="-13.6310223%" x2="-47.7141609%" y2="143.243243%" id="linearGradient-48">
            <stop stop-color="#E94287" offset="0%"></stop>
            <stop stop-color="#FCA15A" offset="100%"></stop>
        </linearGradient>
        <linearGradient x1="68.2235069%" y1="14.5717464%" x2="-84.6537844%" y2="191.991101%" id="linearGradient-49">
            <stop stop-color="#B24592" offset="0%"></stop>
            <stop stop-color="#F15F79" offset="100%"></stop>
        </linearGradient>
        <linearGradient x1="44.6265353%" y1="-85.7414449%" x2="51.0475346%" y2="75.6653992%" id="linearGradient-50">
            <stop stop-color="#780206" offset="1%"></stop>
            <stop stop-color="#061161" offset="100%"></stop>
        </linearGradient>
        <linearGradient x1="50%" y1="71.2867507%" x2="50%" y2="-74.9904544%" id="linearGradient-51">
            <stop stop-color="#FFD54D" offset="0%"></stop>
            <stop stop-color="#FF5E61" offset="100%"></stop>
        </linearGradient>
        <linearGradient x1="39.4982283%" y1="102.29927%" x2="60.2835531%" y2="-0.912408759%" id="linearGradient-52">
            <stop stop-color="#E94287" offset="0%"></stop>
            <stop stop-color="#FCA15A" offset="100%"></stop>
        </linearGradient>
        <linearGradient x1="-16.919395%" y1="-13.3960047%" x2="147.714161%" y2="143.478261%" id="linearGradient-53">
            <stop stop-color="#E94287" offset="0%"></stop>
            <stop stop-color="#FCA15A" offset="100%"></stop>
        </linearGradient>
        <linearGradient x1="31.7195326%" y1="14.5717464%" x2="184.724541%" y2="191.991101%" id="linearGradient-54">
            <stop stop-color="#B24592" offset="0%"></stop>
            <stop stop-color="#F15F79" offset="100%"></stop>
        </linearGradient>
        <linearGradient x1="55.3928635%" y1="-85.7034221%" x2="48.9524654%" y2="75.6653992%" id="linearGradient-55">
            <stop stop-color="#780206" offset="1%"></stop>
            <stop stop-color="#061161" offset="100%"></stop>
        </linearGradient>
        <linearGradient x1="50.0124191%" y1="-1.81735575%" x2="49.9737819%" y2="172.285325%" id="linearGradient-56">
            <stop stop-color="#B24592" offset="0%"></stop>
            <stop stop-color="#F15F79" offset="100%"></stop>
        </linearGradient>
        <linearGradient x1="50%" y1="72.6231386%" x2="50%" y2="-73.6540664%" id="linearGradient-57">
            <stop stop-color="#FFD54D" offset="0%"></stop>
            <stop stop-color="#FF5E61" offset="100%"></stop>
        </linearGradient>
        <linearGradient x1="10.851419%" y1="38.145349%" x2="163.27212%" y2="84.1978037%" id="linearGradient-58">
            <stop stop-color="#B24592" offset="0%"></stop>
            <stop stop-color="#F15F79" offset="100%"></stop>
        </linearGradient>
        <linearGradient x1="50.5%" y1="7.62582613%" x2="50.5%" y2="125.826131%" id="linearGradient-59">
            <stop stop-color="#B24592" offset="0%"></stop>
            <stop stop-color="#F15F79" offset="100%"></stop>
        </linearGradient>
        <linearGradient x1="60.4635487%" y1="101.930783%" x2="39.7719943%" y2="-1.12932605%" id="linearGradient-60">
            <stop stop-color="#E94287" offset="0%"></stop>
            <stop stop-color="#FCA15A" offset="100%"></stop>
        </linearGradient>
        <linearGradient x1="36.1655773%" y1="47.2444052%" x2="184.858388%" y2="69.7683973%" id="linearGradient-61">
            <stop stop-color="#B24592" offset="0%"></stop>
            <stop stop-color="#F15F79" offset="100%"></stop>
        </linearGradient>
    </defs>
    <g id="图标" stroke="none" stroke-width="1" fill="none" fill-rule="evenodd">
        <g id="exhibition-hall" transform="translate(0.000000, 0.105465)" fill-rule="nonzero">
            <g id="_编组_12" transform="translate(0.000000, 1.065521)">
                <path d="M0.00224718636,5.72233139 L0.00224718636,5.72233139 L0.00224718636,5.29793672 L0.122916462,5.21584878 L0.223884632,5.33569718 L8.35879977,0.647654759 C8.76548441,0.414216011 9.26552222,0.414216011 9.67220686,0.647654759 L19.7591733,6.46604815 L19.9290953,6.31336458 L19.999691,6.39052724 L19.999691,6.85760764 C20,6.86087823 20,6.8641876 19.999691,6.86745819 L19.999691,6.87812963 L19.999691,6.87812963 C19.9947147,7.03067578 19.9111822,7.16979322 19.7788744,7.24588361 L11.6414966,11.9363887 C11.235127,12.1710062 10.7344591,12.1710062 10.3280895,11.9363887 L0.231272547,6.10814472 C0.0943005636,6.02984791 0.00973478181,5.88420684 0.00963510123,5.72643579 L0.00963510123,5.72643579 L0.00224718636,5.72233139 Z" id="_路径_92" fill="url(#linearGradient-1)"></path>
                <path d="M11.6373922,11.4610995 L19.77477,6.77059442 C19.9117966,6.69137806 19.996189,6.54511004 19.996189,6.38683329 C19.996189,6.22855654 19.9117966,6.08228852 19.77477,6.00307215 L9.67795302,0.174828208 C9.27117927,-0.0582760693 8.77131968,-0.0582760693 8.36454593,0.174828208 L0.222242873,4.86369151 C0.0847749503,4.94257383 0,5.08896021 0,5.24745264 C0,5.40594507 0.0847749503,5.55233145 0.222242873,5.63121377 L10.3190599,11.4594577 C10.7263846,11.6964836 11.2294784,11.6971101 11.6373922,11.4610995 Z" id="_路径_93" fill="url(#linearGradient-2)"></path>
            </g>
            <g id="_编组_13" transform="translate(3.318600, 0.000000)">
                <g id="_编组_16" transform="translate(0.000000, 0.010671)">
                    <g id="_编组_19" transform="translate(0.288129, 2.226225)">
                        <g id="_编组_20">
                            <polygon id="_路径_94" fill="url(#linearGradient-3)" points="4.41797309 0 4.41468957 7.71626663 0 5.18385359 0.00410439715 1.42668845"></polygon>
                            <polygon id="_路径_95" fill="url(#linearGradient-4)" points="4.41797309 0 4.41468957 7.71626663 0 5.18385359 0.00410439715 1.42668845"></polygon>
                        </g>
                        <g id="_编组_21" transform="translate(4.414690, 0.445738)">
                            <polygon id="_路径_96" fill="url(#linearGradient-5)" points="0.00328351772 0 4.41222693 0.744537642 4.40894341 4.71431056 0 7.26560383"></polygon>
                            <polygon id="_路径_97" fill="url(#linearGradient-6)" points="0.00328351772 0 4.41222693 0.744537642 4.40894341 4.71431056 0 7.26560383"></polygon>
                        </g>
                    </g>
                    <g id="_编组_22">
                        <g id="_编组_24">
                            <g id="_编组_25" transform="translate(0.000000, 0.000000)" fill="url(#linearGradient-7)">
                                <polygon id="_路径_98" points="1.16653983e-15 3.75470251 5.8101846 0.438349615 7.59149296 8.20223318e-17 2.42898223 3.02822421"></polygon>
                            </g>
                            <g id="_编组_26" transform="translate(2.428982, 0.000000)" fill="url(#linearGradient-8)">
                                <polygon id="_路径_99" points="1.16653983e-15 3.02822421 5.16415249 -2.09612626e-16 6.88882017 3.41239579 2.294358 6.0974924"></polygon>
                            </g>
                        </g>
                        <polygon id="_路径_100" fill="url(#linearGradient-9)" points="1.74980975e-15 3.75470251 0.125594553 3.81708935 2.37644595 3.16202756 4.5772237 6.08353745 4.72334023 6.0974924 2.42898223 3.02822421"></polygon>
                    </g>
                </g>
                <g id="_编组_29" transform="translate(7.565225, 0.000000)">
                    <g id="_编组_32" transform="translate(0.000000, 1.860934)">
                        <g id="_编组_33" transform="translate(2.232792, 0.000000)">
                            <polygon id="_路径_101" fill="url(#linearGradient-10)" points="0 0 0.00328351772 7.71544575 4.41797309 5.18303272 4.41468957 1.42586757"></polygon>
                            <polygon id="_路径_102" fill="url(#linearGradient-11)" points="0 0 0.00328351772 7.71544575 4.41797309 5.18303272 4.41468957 1.42586757"></polygon>
                        </g>
                        <g id="_编组_34" transform="translate(0.000000, 0.444917)">
                            <polygon id="_路径_103" fill="url(#linearGradient-12)" points="2.23279205 -2.91634958e-16 0 1.99391613 0.00328351772 5.96368905 2.23607556 7.26560383"></polygon>
                            <polygon id="_路径_104" fill="url(#linearGradient-13)" points="2.23279205 -2.91634958e-16 0 1.99391613 0.00328351772 5.96368905 2.23607556 7.26560383"></polygon>
                        </g>
                    </g>
                    <g id="_编组_35">
                        <g id="_编组_37">
                            <g id="_编组_38" transform="translate(0.041044, 0.000000)" fill="url(#linearGradient-14)">
                                <polygon id="_路径_105" points="6.89867072 3.38941116 1.78130836 0.438349615 0 0 4.46968849 2.66211199"></polygon>
                            </g>
                            <g id="_编组_39" fill="url(#linearGradient-15)">
                                <polygon id="_路径_106" points="4.51073246 2.66211199 0.0426857303 0 0 4.44588299 2.21637446 5.73220105"></polygon>
                            </g>
                        </g>
                        <polygon id="_路径_107" fill="url(#linearGradient-16)" points="6.93971469 3.38941116 6.81412014 3.45097712 4.56326875 2.79591534 2.362491 5.71742522 2.21637446 5.73220105 4.51073246 2.66211199"></polygon>
                    </g>
                </g>
                <g id="_编组_41" transform="translate(2.275478, 5.435043)">
                    <polygon id="_路径_108" fill="url(#linearGradient-17)" points="0.0582824395 0.0451483686 0.0582824395 3.12098359 1.45870275 3.92052015 1.45870275 0.854535486"></polygon>
                    <polygon id="_路径_109" fill="#FFFFFF" opacity="0.1" points="1.37907744 0.79132777 0.0623868366 0.0303725389 0.0623868366 2.10719749"></polygon>
                    <polygon id="_路径_110" fill="url(#linearGradient-18)" points="0.176535744 0.179772595 0.176535744 3.05777587 0.0835357443 3.08814841 0.0835357443 0.135445106"></polygon>
                    <path d="M1.49810496,0.865206918 L1.49810496,0.865206918 L0,0 L0,3.12426711 L1.49810496,3.98454875 L1.49810496,0.865206918 Z M0.0829088223,0.135445106 L1.41437526,0.904609131 M0.0829088223,0.135445106 L1.41437526,0.904609131 L1.41437526,3.85156628 L0.0829088223,3.08814841" id="_复合路径_" fill="url(#linearGradient-19)"></path>
                    <polygon id="_路径_111" fill="url(#linearGradient-20)" points="0.159250609 3.05777587 1.41437526 3.77440361 1.41437526 3.85156628 0.0829088223 3.08814841"></polygon>
                </g>
                <g id="_编组_43" transform="translate(0.761776, 4.722519)">
                    <g id="_编组_44" opacity="0.1" transform="translate(0.132982, 0.087013)" fill="url(#linearGradient-21)">
                        <g id="编组">
                            <polygon id="路径" points="0 0 1 0.428499062 1 2.1227942 0.936651584 2.1589129 0 1.72877208"></polygon>
                        </g>
                    </g>
                    <g id="_编组_45">
                        <polygon id="_路径_112" fill="url(#linearGradient-22)" points="0.90726817 2.29517888 1.00726817 2.24592612 1.00726817 0.48842326 0.90726817 0.536855147"></polygon>
                        <polygon id="_路径_113" fill="url(#linearGradient-23)" points="0.0501253133 0.0870132195 0.0501253133 1.80347211 0.875522139 2.23689644 0.875522139 0.527825473"></polygon>
                        <polygon id="_路径_114" fill="#FFFFFF" opacity="0.1" points="0.807852966 0.475289189 0.0526315789 0.074700028 0.0526315789 1.46280714"></polygon>
                        <polygon id="_路径_115" fill="url(#linearGradient-24)" points="0 0.0492527657 0.90726817 0.536855147 1 0.48842326 0.0927318296 0"></polygon>
                        <polygon id="_路径_116" fill="url(#linearGradient-25)" points="0.149985798 0.198652822 0.149985798 1.75093582 0.0719857978 1.77638308 0.0719857978 0.161713248"></polygon>
                        <path d="M1,0.536855147 L1,0.536855147 L0,0.0492527657 L0,1.80511386 L0.999080882,2.29764152 L0.999080882,2.29764152 L1,0.536855147 Z M0.0808823529,0.161713248 L0.919117647,0.573794721 L0.919117647,0.76259699 L0.0753676471,0.352157275 L0.0808823529,0.161713248 Z M0.0808823529,0.422752906 L0.924632353,0.833192621 L0.924632353,2.18189752 L0.0808823529,1.77802484 L0.0808823529,0.422752906 Z" id="_复合路径_2" fill="url(#linearGradient-26)"></path>
                        <polygon id="_路径_117" fill="url(#linearGradient-27)" points="0.135338346 1.75093582 0.837928154 2.11540629 0.837928154 2.17943488 0.0701754386 1.77638308"></polygon>
                    </g>
                </g>
                <g id="_编组_46" transform="translate(2.291074, 4.914605)">
                    <polygon id="_复合路径_3" fill="url(#linearGradient-28)" points="1.39877855 0.843043174 1.39877855 0.843043174 0.00328351772 0.0394022126 0.00328351772 0.250368226 1.39877855 1.05072567"></polygon>
                    <polygon id="_路径_118" fill="url(#linearGradient-29)" points="0 0.0394022126 0.0771626663 0 1.4882544 0.800357443 1.4882544 1.00393554 1.39713679 1.05072567 1.39795767 0.843043174"></polygon>
                </g>
                <g id="_编组_47" transform="translate(10.989113, 5.016394)">
                    <polygon id="_复合路径_4" fill="url(#linearGradient-30)" points="0.092654424 1 1 0.339265851 1 0.0533926585 0.0918196995 0.72080089 0.0918196995 0.72080089"></polygon>
                    <polygon id="_路径_119" fill="url(#linearGradient-31)" points="1 0.0533926585 0.921535893 1.58074024e-15 2.37242984e-15 0.660734149 2.37242984e-15 0.936596218 0.092654424 1 0.0918196995 0.718576196"></polygon>
                </g>
                <g id="_编组_49" transform="translate(10.931651, 5.488400)">
                    <g id="_编组_50" opacity="0.1" transform="translate(0.000000, 0.087013)" fill="url(#linearGradient-32)">
                        <g id="编组">
                            <polygon id="路径" points="1 1.16653983e-15 0 0.428499062 0 2.1227942 0.0632911392 2.1589129 1 1.72877208"></polygon>
                        </g>
                    </g>
                    <g id="_编组_51" transform="translate(0.057462, 0.000000)">
                        <polygon id="_路径_120" fill="url(#linearGradient-33)" points="0.1 2.29517888 2.37242984e-15 2.24592612 2.37242984e-15 0.487602381 0.1 0.536855147"></polygon>
                        <polygon id="_路径_121" fill="url(#linearGradient-34)" points="0.949916528 0.0870132195 0.949916528 1.80265123 0.125208681 2.23607556 0.125208681 0.527825473"></polygon>
                        <polygon id="_路径_122" fill="#FFFFFF" opacity="0.1" points="0.191986644 0.475289189 0.946577629 0.0738791486 0.946577629 1.46198626"></polygon>
                        <polygon id="_路径_123" fill="url(#linearGradient-35)" points="1 0.0492527657 0.092654424 0.536855147 2.37242984e-15 0.487602381 0.907345576 1.16653983e-15"></polygon>
                        <polygon id="_路径_124" fill="url(#linearGradient-36)" points="0.866675292 0.198652822 0.866675292 1.75093582 0.943675292 1.77556221 0.943675292 0.161713248"></polygon>
                        <path d="M0.0918196995,2.294358 L0.0918196995,2.294358 L1.0918197,1.80593474 L1.0918197,0.0492527657 L0.0927396627,0.536855147 L0.0927396627,0.536855147 L0.0918196995,2.294358 Z M1.0117829,0.350515516 L0.167256682,0.760955231 L0.167256682,0.572152962 L1.0117829,0.161713248 L1.0117829,0.350515516 Z M1.0117829,1.77556221 L0.167256682,2.17943488 L0.167256682,0.829909103 L1.0117829,0.419469388 L1.0117829,1.77556221 Z" id="_复合路径_5" fill="url(#linearGradient-37)"></path>
                        <polygon id="_路径_125" fill="url(#linearGradient-38)" points="0.864774624 1.75093582 0.162771285 2.11540629 0.162771285 2.17943488 0.929048414 1.77556221"></polygon>
                    </g>
                </g>
                <g id="_编组_52" transform="translate(12.479830, 4.242305)">
                    <polygon id="_复合路径_6" fill="url(#linearGradient-39)" points="0.092654424 0.998887653 1 0.338153504 1 0.0533926585 0.0918196995 0.72080089 0.0918196995 0.72080089"></polygon>
                    <polygon id="_路径_126" fill="url(#linearGradient-40)" points="0.999165275 0.0533926585 0.921535893 7.90370118e-16 0 0.660734149 0 0.935483871 0.092654424 1 0.0918196995 0.717463849"></polygon>
                </g>
                <g id="_编组_54" transform="translate(12.422368, 4.714311)">
                    <g id="_编组_55" opacity="0.1" transform="translate(0.000000, 0.086192)" fill="url(#linearGradient-41)">
                        <g id="编组">
                            <polygon id="路径" points="1 5.83269915e-16 0 0.428499062 0 2.12361508 0.0633484163 2.1589129 1 1.72959296"></polygon>
                        </g>
                    </g>
                    <g id="_编组_56" transform="translate(0.057462, 0.000000)">
                        <polygon id="_路径_127" fill="url(#linearGradient-42)" points="0.1 2.294358 0 2.24510524 0 0.487602381 0.1 0.536855147"></polygon>
                        <polygon id="_路径_128" fill="url(#linearGradient-43)" points="0.949874687 0.0861923401 0.949874687 1.80265123 0.124477861 2.23607556 0.124477861 0.527004593"></polygon>
                        <polygon id="_路径_129" fill="#FFFFFF" opacity="0.1" points="0.192147034 0.475289189 0.947368421 0.0738791486 0.947368421 1.46198626"></polygon>
                        <polygon id="_路径_130" fill="url(#linearGradient-44)" points="1 0.0492527657 0.0927318296 0.536855147 0 0.487602381 0.90726817 -5.83269915e-16"></polygon>
                        <polygon id="_路径_131" fill="url(#linearGradient-45)" points="0.866472013 0.197831942 0.866472013 1.75093582 0.944472013 1.77556221 0.944472013 0.160892368"></polygon>
                        <path d="M0.0918964077,2.294358 L0.0918964077,2.294358 L1.09189641,1.80183035 L1.09189641,0.0484318863 L0.0918964077,0.536034267 L0.0918964077,0.536034267 L0.0918964077,2.294358 Z M1.01185961,0.349694637 L0.16733339,0.760134351 L0.16733339,0.571332083 L1.01185961,0.160892368 L1.01185961,0.349694637 Z M1.01185961,1.77556221 L0.16733339,2.178614 L0.16733339,0.828267344 L1.01185961,0.417827629 L1.01185961,1.77556221 Z" id="_复合路径_7" fill="url(#linearGradient-46)"></path>
                        <polygon id="_路径_132" fill="url(#linearGradient-47)" points="0.864661654 1.75093582 0.162071846 2.11458541 0.162071846 2.17943488 0.929824561 1.77556221"></polygon>
                    </g>
                </g>
            </g>
            <g id="_编组_57" transform="translate(9.110725, 5.568025)">
                <polygon id="_复合路径_8" fill="url(#linearGradient-48)" points="0.092654424 1 1 0.339265851 1 0.0533926585 0.0918196995 0.72080089 0.0918196995 0.72080089"></polygon>
                <polygon id="_路径_133" fill="url(#linearGradient-49)" points="0.999165275 0.0533926585 0.921535893 1.58074024e-15 1.18621492e-15 0.660734149 1.18621492e-15 0.936596218 0.092654424 1 0.0918196995 0.718576196"></polygon>
            </g>
            <g id="_编组_59" transform="translate(9.052443, 6.040031)">
                <g id="_编组_60" opacity="0.1" transform="translate(0.000000, 0.087013)" fill="url(#linearGradient-50)">
                    <g id="编组">
                        <polygon id="路径" points="1 1.16653983e-15 0 0.428499062 0 2.1227942 0.0641952984 2.1589129 1 1.72877208"></polygon>
                    </g>
                </g>
                <g id="_编组_61" transform="translate(0.058282, 0.000000)">
                    <polygon id="_路径_134" fill="url(#linearGradient-33)" points="0.1 2.29517888 1.18720591e-15 2.24592612 1.18720591e-15 0.487602381 0.1 0.536855147"></polygon>
                    <polygon id="_路径_135" fill="url(#linearGradient-51)" points="0.949874687 0.0870132195 0.949874687 1.80347211 0.124477861 2.23689644 0.124477861 0.527825473"></polygon>
                    <polygon id="_路径_136" fill="#FFFFFF" opacity="0.1" points="0.192147034 0.475289189 0.947368421 0.0738791486 0.947368421 1.46280714"></polygon>
                    <polygon id="_路径_137" fill="url(#linearGradient-44)" points="1 0.0492527657 0.0927318296 0.536855147 1.18720591e-15 0.487602381 0.908103592 1.16653983e-15"></polygon>
                    <polygon id="_路径_138" fill="url(#linearGradient-25)" points="0.866472013 0.198652822 0.866472013 1.75093582 0.944472013 1.77638308 0.944472013 0.161713248"></polygon>
                    <path d="M0.0918964077,2.29353712 L0.0918964077,2.29353712 L1.09189641,1.80100947 L1.09189641,0.0443274892 L0.0918964077,0.53192987 L0.0918964077,0.53192987 L0.0918964077,2.29353712 Z M1.01185961,0.348873757 L0.16733339,0.759313472 L0.16733339,0.569690324 L1.01185961,0.159250609 L1.01185961,0.348873757 Z M1.01185961,1.77392045 L0.16733339,2.17779313 L0.16733339,0.830729982 L1.01185961,0.420290268 L1.01185961,1.77392045 Z" id="_复合路径_9" fill="url(#linearGradient-52)"></path>
                    <polygon id="_路径_139" fill="url(#linearGradient-47)" points="0.864661654 1.75093582 0.162071846 2.11540629 0.162071846 2.17943488 0.929824561 1.77638308"></polygon>
                </g>
            </g>
            <g id="_编组_62" transform="translate(11.425605, 5.312732)">
                <polygon id="_复合路径_10" fill="url(#linearGradient-53)" points="0.908180301 0.718576196 0.908180301 0.718576196 4.74485967e-15 0.0511679644 4.74485967e-15 0.337041157 0.907345576 0.997775306"></polygon>
                <polygon id="_路径_140" fill="url(#linearGradient-54)" points="2.37242984e-15 0.0545050056 0.0784641068 0 1 0.660734149 1 0.936596218 0.907345576 1 0.908180301 0.718576196"></polygon>
            </g>
            <g id="_编组_64" transform="translate(11.425605, 5.785558)">
                <g id="_编组_65" opacity="0.1" transform="translate(0.132982, 0.086192)" fill="url(#linearGradient-55)">
                    <g id="编组">
                        <polygon id="路径" points="0 0 1 0.428499062 1 2.12361508 0.936708861 2.1589129 0 1.72877208"></polygon>
                    </g>
                </g>
                <g id="_编组_66">
                    <polygon id="_路径_141" fill="url(#linearGradient-56)" points="0.907345576 2.294358 1.00734558 2.24510524 1.00734558 0.487602381 0.907345576 0.536855147"></polygon>
                    <polygon id="_路径_142" fill="url(#linearGradient-57)" points="0.0500834725 0.0861923401 0.0500834725 1.80265123 0.874791319 2.23607556 0.874791319 0.527004593"></polygon>
                    <polygon id="_路径_143" fill="#FFFFFF" opacity="0.1" points="0.808013356 0.47446831 0.0534223706 0.0738791486 0.0534223706 1.46198626"></polygon>
                    <polygon id="_路径_144" fill="url(#linearGradient-58)" points="2.37242984e-15 0.0484318863 0.907345576 0.536855147 1 0.487602381 0.092654424 1.16653983e-15"></polygon>
                    <polygon id="_路径_145" fill="url(#linearGradient-59)" points="0.149852254 0.197831942 0.149852254 1.75093582 0.0728522538 1.77556221 0.0728522538 0.160892368"></polygon>
                    <path d="M1.00083472,0.536034267 L1.00083472,0.536034267 L0.000834724541,0.0484318863 L0.000834724541,1.80921826 L1.00083472,2.30174592 L1.00083472,2.30174592 L1.00083472,0.536034267 Z M0.0808715231,0.160892368 L0.925397742,0.571332083 L0.925397742,0.760134351 L0.0808715231,0.349694637 L0.0808715231,0.160892368 Z M0.0808715231,0.421932027 L0.925397742,0.832371741 L0.925397742,2.178614 L0.0808715231,1.77556221 L0.0808715231,0.421932027 Z" id="_复合路径_11" fill="url(#linearGradient-60)"></path>
                    <polygon id="_路径_146" fill="url(#linearGradient-61)" points="0.135225376 1.75093582 0.837228715 2.11540629 0.837228715 2.17943488 0.070951586 1.77556221"></polygon>
                </g>
            </g>
        </g>
    </g>
</svg>