<?xml version="1.0" encoding="UTF-8"?>
<svg width="32px" height="32px" viewBox="0 0 32 32" version="1.1" xmlns="http://www.w3.org/2000/svg" xmlns:xlink="http://www.w3.org/1999/xlink">
    <title>图标-扩容／缩容</title>
    <g id="数据展示" stroke="none" stroke-width="1" fill="none" fill-rule="evenodd">
        <g id="卡片" transform="translate(-2043.000000, -6294.000000)" fill-rule="nonzero">
            <g id="栅格卡片" transform="translate(204.000000, 4721.000000)">
                <g transform="translate(67.000000, 569.000000)" id="5-1备份">
                    <g transform="translate(1667.000000, 938.000000)">
                        <g id="#4备份-10" transform="translate(87.000000, 48.553933)">
                            <g id="图标-扩容／缩容" transform="translate(18.318182, 18.101124)">
                                <path d="M26.4397273,0 L4.92390909,0 C2.21591064,0 0,2.19101277 0,4.87982022 L0,26.1538876 C0,28.8426951 2.21591064,31.0337079 4.92390909,31.0337079 L26.4397273,31.0337079 C29.1477257,31.0337079 31.3636364,28.8426951 31.3636364,26.1538876 L31.3636364,4.87982022 C31.3636364,2.19101277 29.1477257,0 26.4397273,0 Z M4.92390909,2 L26.4397273,2 C28.0481834,2 29.3636364,3.30067263 29.3636364,4.87982022 L29.3636364,26.1538876 C29.3636364,27.7330352 28.0481834,29.0337079 26.4397273,29.0337079 L4.92390909,29.0337079 C3.315453,29.0337079 2,27.7330352 2,26.1538876 L2,4.87982022 C2,3.30067263 3.315453,2 4.92390909,2 Z" id="Stroke-1" fill="#FFFFFF"></path>
                                <polygon id="Stroke-3" fill="#3F75DD" points="11.0454545 4.83426966 11.0454545 6.33426966 6.386 6.334 6.38636364 10.9325843 4.88636364 10.9325843 4.88636364 4.83426966"></polygon>
                                <polygon id="Stroke-5" fill="#3F75DD" points="6.93641636 5.05095187 11.57278 9.63522154 10.5181291 10.7018571 5.88176545 6.11758745"></polygon>
                                <polygon id="Stroke-7" fill="#3F75DD" points="11.7954545 19.3511236 11.7954545 25.4494382 10.2954545 25.4494382 10.295 20.851 5.63636364 20.8511236 5.63636364 19.3511236"></polygon>
                                <polygon id="Stroke-9" fill="#3F75DD" points="10.5181291 20.3318507 11.57278 21.3984863 6.93641636 25.982756 5.88176545 24.9161204"></polygon>
                                <polygon id="Stroke-11" fill="#FFFFFF" points="20.1590909 1.76404494 20.1590909 29.2696629 18.1590909 29.2696629 18.1590909 1.76404494"></polygon>
                            </g>
                        </g>
                    </g>
                </g>
            </g>
        </g>
    </g>
</svg>