<?xml version="1.0" encoding="UTF-8"?>
<svg width="58px" height="58px" viewBox="0 0 58 58" version="1.1" xmlns="http://www.w3.org/2000/svg" xmlns:xlink="http://www.w3.org/1999/xlink">
    <title>25C82902-2AB0-432D-9CE0-A65714B13A35</title>
    <defs>
        <path d="M19,2.53326441 L41,15.5311967 C41.5522847,15.8257105 42,16.5121763 42,17.0644611 L42,51.0644611 C42,51.6167458 41.5522847,51.8257105 41,51.5311967 L19,38.5332644 C18.4477153,38.2387506 18,37.5522847 18,37 L18,3 C18,2.44771525 18.4477153,2.23875061 19,2.53326441 Z" id="path-1"></path>
        <filter x="-4.2%" y="-4.1%" width="116.7%" height="108.1%" filterUnits="objectBoundingBox" id="filter-2">
            <feOffset dx="1" dy="0" in="SourceAlpha" result="shadowOffsetOuter1"></feOffset>
            <feGaussianBlur stdDeviation="0.5" in="shadowOffsetOuter1" result="shadowBlurOuter1"></feGaussianBlur>
            <feColorMatrix values="0 0 0 0 0   0 0 0 0 0   0 0 0 0 0  0 0 0 0.08 0" type="matrix" in="shadowBlurOuter1"></feColorMatrix>
        </filter>
    </defs>
    <g id="入口卡片" stroke="none" stroke-width="1" fill="none" fill-rule="evenodd">
        <g id="卡片项---功能入口卡片" transform="translate(-2745.000000, -631.000000)">
            <g id="功能入口卡片" transform="translate(176.000000, 381.000000)">
                <g id="宣传" transform="translate(2537.000000, 0.000000)">
                    <g id="通用样式" transform="translate(-0.000000, 173.000000)">
                        <g id="功能入口#1" transform="translate(0.000000, 41.000000)">
                            <g id="图标1-通用样式" transform="translate(32.000000, 36.000000)">
                                <rect id="矩形" fill="#F1F1F1" opacity="0" x="0" y="0" width="58" height="58"></rect>
                                <path d="M28,1.53326441 L47,12.5311967 C47.5522847,12.8257105 48,13.5121763 48,14.0644611 L48,48.0644611 C48,48.6167458 47.5522847,48.8257105 47,48.5311967 L28,37.5332644 C27.4477153,37.2387506 27,36.5522847 27,36 L27,2 C27,1.44771525 27.4477153,1.23875061 28,1.53326441 Z" id="矩形" fill="#5087E4"></path>
                                <path d="M21,1.53326441 L43,14.5311967 C43.5522847,14.8257105 44,15.5121763 44,16.0644611 L44,50.0644611 C44,50.3653979 43.8670689,50.5643996 43.6567224,50.6355551 L41.7591954,51.5885369 L41.544621,50.2405546 L40.6228488,49.567127 L40.8014617,49.2313992 L21,37.5332644 C20.4477153,37.2387506 20,36.5522847 20,36 L19.9994617,4.52739917 L18.9364721,4.42426715 L18.3344617,2.45571683 L20.2072878,1.49773125 C20.3912505,1.3609875 20.6778339,1.36146469 21,1.53326441 Z" id="形状结合" fill="#A2BEF2"></path>
                                <g id="矩形">
                                    <use fill="black" fill-opacity="1" filter="url(#filter-2)" xlink:href="#path-1"></use>
                                    <use fill="#DAE8F5" fill-rule="evenodd" xlink:href="#path-1"></use>
                                </g>
                                <polygon id="矩形" fill="#9FB8D3" points="22 9 37 17.2287721 37 19.2287721 22 11"></polygon>
                                <polygon id="矩形备份-53" fill="#9FB8D3" points="21 30 36 38.2287721 36 43.2287721 21 35"></polygon>
                                <polygon id="矩形备份-51" fill="#9FB8D3" points="22 14 37 22.2287721 37 24.2287721 22 16"></polygon>
                                <polygon id="矩形备份-52" fill="#9FB8D3" points="22 18 32 23.2287721 32 25.2287721 22 20"></polygon>
                                <polygon id="矩形备份-54" fill="#9FB8D3" points="21 26 34 33.2287721 34 34.2287721 21 27"></polygon>
                                <g id="放大镜" transform="translate(6.000000, 18.629704)" fill-rule="nonzero">
                                    <path d="M11.7291204,0.499605193 C17.1023653,2.26194431 21.4582408,8.16775494 21.4582408,13.6906024 C21.4582408,18.5281718 18.1162614,21.4673312 13.6758986,20.9378822 L13.6749445,33.1378046 L11.6749445,34.1378046 L11.3051905,33.5282175 L10.873,32.218 L9.78329634,31.8614057 L9.78331492,19.6613795 C5.34246748,17.2783186 2,12.1465305 2,7.30860794 C2,1.78576045 6.35587558,-1.26273392 11.7291204,0.499605193 Z M10.4825221,4.30039361 C7.66487625,3.37625045 6,4.5414274 6,7.30860794 C6,10.4776311 8.30474215,14.1876432 11.4068741,15.9872752 L11.6746887,16.1367937 L12.955,16.823 L14.1494861,16.9660168 C16.1719118,17.2071618 17.3786949,16.1696397 17.4544474,13.9196414 L17.4582408,13.6906024 C17.4582408,9.99272785 14.365004,5.71844744 10.7259091,4.38490144 L10.4825221,4.30039361 Z" id="形状结合" fill="#F16991"></path>
                                    <path d="M9.72912042,1.49960519 C15.1023653,3.26194431 19.4582408,9.16775494 19.4582408,14.6906024 C19.4582408,19.5281718 16.1162614,22.4673312 11.6758986,21.9378822 L11.6749445,34.1378046 L7.78329634,32.8614057 L7.78331492,20.6613795 C3.34246748,18.2783186 1.77635684e-15,13.1465305 1.77635684e-15,8.30860794 C1.77635684e-15,2.78576045 4.35587558,-0.262733924 9.72912042,1.49960519 Z M8.48252208,5.30039361 C5.66487625,4.37625045 4,5.5414274 4,8.30860794 C4,11.4776311 6.30474215,15.1876432 9.40687405,16.9872752 L9.67468871,17.1367937 L10.955,17.823 L12.1494861,17.9660168 C14.1719118,18.2071618 15.3786949,17.1696397 15.4544474,14.9196414 L15.4582408,14.6906024 C15.4582408,10.9927278 12.365004,6.71844744 8.72590913,5.38490144 L8.48252208,5.30039361 Z" id="路径" fill="#E73D71"></path>
                                </g>
                            </g>
                        </g>
                    </g>
                </g>
            </g>
        </g>
    </g>
</svg>