<?xml version="1.0" encoding="UTF-8"?>
<svg width="58px" height="58px" viewBox="0 0 58 58" version="1.1" xmlns="http://www.w3.org/2000/svg" xmlns:xlink="http://www.w3.org/1999/xlink">
    <title>16425AF0-0817-4A68-AB47-F00F6CF14031</title>
    <defs>
        <path d="M0.708333333,1.47020207 L16.2916667,10.9683394 C16.6828684,11.1835531 17,11.6851826 17,12.0887604 L17,36.9339945 C17,37.3375723 16.6828684,37.4902715 16.2916667,37.2750579 L0.708333333,27.7769205 C0.317131636,27.5617069 0,27.0600773 0,26.6564996 L0,1.81126545 C0,1.40768769 0.317131636,1.25498841 0.708333333,1.47020207 Z" id="path-1"></path>
        <filter x="-5.9%" y="-5.6%" width="123.5%" height="111.1%" filterUnits="objectBoundingBox" id="filter-2">
            <feOffset dx="1" dy="0" in="SourceAlpha" result="shadowOffsetOuter1"></feOffset>
            <feGaussianBlur stdDeviation="0.5" in="shadowOffsetOuter1" result="shadowBlurOuter1"></feGaussianBlur>
            <feColorMatrix values="0 0 0 0 0   0 0 0 0 0   0 0 0 0 0  0 0 0 0.08 0" type="matrix" in="shadowBlurOuter1"></feColorMatrix>
        </filter>
    </defs>
    <g id="入口卡片" stroke="none" stroke-width="1" fill="none" fill-rule="evenodd">
        <g id="卡片项---功能入口卡片" transform="translate(-3225.000000, -631.000000)">
            <g id="功能入口卡片" transform="translate(176.000000, 381.000000)">
                <g id="宣传" transform="translate(2537.000000, 0.000000)">
                    <g id="通用样式" transform="translate(-0.000000, 173.000000)">
                        <g id="功能入口#1备份" transform="translate(480.000000, 41.000000)">
                            <g id="图标2-通用样式" transform="translate(32.000000, 36.000000)">
                                <rect id="背景区域" fill="#F1F1F1" opacity="0" x="0" y="0" width="58" height="58"></rect>
                                <path d="M42.0553932,3.97234613 L57.1849575,12.8274953 C57.5351886,13.0142611 57.8191069,13.449583 57.8191069,13.799814 L57.8191069,30.9558912 C57.8191069,31.1515804 57.7304694,31.2792999 57.5911525,31.3213332 L57.5976752,31.3365459 L54.6777792,33.2739485 L53.9260603,31.3365459 L54.337948,29.6935168 L42.0553932,22.9736363 C41.7051622,22.7868705 41.4212438,22.3515486 41.4212438,22.0013176 L41.420948,8.3115168 L40.6796189,8.36178505 L38.588948,5.92952954 L41.558527,3.94614363 C41.6751302,3.86313381 41.8543347,3.86512875 42.0553932,3.97234613 Z" id="路径" fill="#FCE4A0"></path>
                                <g id="编组-12" transform="translate(42.000000, 1.500971)" stroke-width="2">
                                    <path d="M3.95056004,1.0247203 C4.45993075,0.952524907 5.02996311,1.03748727 5.63259061,1.27554844 C6.83743594,1.75150892 7.91665848,2.73144271 8.70433331,3.90904704 C9.49655453,5.09344839 10,6.48839698 10,7.82068242 L10,7.82068242 L10,15.8206824 C10,16.9396055 9.64079016,17.8335399 8.95935324,18.3139266 C8.29026224,18.7856099 7.36495743,18.8094998 6.36740939,18.4154298 C5.16256406,17.9394693 4.08334152,16.9595355 3.29566669,15.7819312 C2.50344547,14.5975298 2,13.2025812 2,11.8702958 L2,11.8702958 L2,3.87029581 C2,3.66400501 2.01230316,3.46586716 2.03658488,3.27647185 C1.98615232,2.75232915 1.96894773,2.58168024 1.96156391,2.40957682 L1.96156391,2.40957682 L2.76947734,1.60710358 C3.08379697,1.28905756 3.4885517,1.09020281 3.95056004,1.0247203 Z" id="形状结合" stroke="#2F5FAA"></path>
                                    <path d="M2.04064676,2.3770516 C2.70973776,1.90536831 3.63504257,1.88147839 4.63259061,2.27554844 C5.83743594,2.75150892 6.91665848,3.73144271 7.70433331,4.90904704 C8.49655453,6.09344839 9,7.48839698 9,8.82068242 L9,8.82068242 L9,16.8206824 C9,17.9396055 8.64079016,18.8335399 7.95935324,19.3139266 C7.29026224,19.7856099 6.36495743,19.8094998 5.36740939,19.4154298 C4.16256406,18.9394693 3.08334152,17.9595355 2.29566669,16.7819312 C1.50344547,15.5975298 1,14.2025812 1,12.8702958 L1,12.8702958 L1,4.87029581 C1,3.75137269 1.35920984,2.85743828 2.04064676,2.3770516 Z" id="矩形" stroke="#184490"></path>
                                </g>
                                <polyline id="路径-11" fill="#FCE4A0" points="40.5545417 6.8689758 41.6286252 6.64397631 44.0950534 8.04635771 45.4604464 7.05756992 45.3385815 9.66080436"></polyline>
                                <polyline id="路径-11备份" fill="#FCE4A0" points="48.5545417 11.8689758 49.6286252 11.6439763 52.0950534 13.0463577 53.4604464 12.0575699 53.3385815 14.6608044"></polyline>
                                <path d="M39.0553932,5.97234613 L54.1849575,14.8274953 C54.5351886,15.0142611 54.8191069,15.449583 54.8191069,15.799814 L54.8191069,32.9558912 C54.8191069,33.3061222 54.5351886,33.438637 54.1849575,33.2518713 L39.0553932,24.9736363 C38.7051622,24.7868705 38.4212438,24.3515486 38.4212438,24.0013176 L38.4212438,6.26832623 C38.4212438,5.91809518 38.7051622,5.78558038 39.0553932,5.97234613 Z" id="矩形备份-60" fill="#F0BF28"></path>
                                <path d="" id="形状结合" stroke="#164894" stroke-width="4"></path>
                                <path d="M33.5380556,17.1228842 L47.7033985,25.5291591 C48.0536295,25.7159248 48.3375479,26.1512468 48.3375479,26.5014778 L48.3375479,49.657555 C48.3375479,50.007786 48.0536295,50.1403008 47.7033985,49.9535351 L33.5380556,42.1241744 C33.1878246,41.9374086 32.9039062,41.5020867 32.9039062,41.1518557 L32.9039062,17.4188643 C32.9039062,17.0686333 33.1878246,16.9361185 33.5380556,17.1228842 Z" id="矩形备份-59" fill="#4B89E5"></path>
                                <path d="M20,1.13352465 L42.060713,14.4740183 C42.6129977,14.7685321 43.060713,15.4549979 43.060713,16.0072827 L43.3375479,52.4379494 C43.3375479,52.6704903 43.2581745,52.8421657 43.1250425,52.9410201 L43.1247185,52.9413452 C43.0802511,52.9735321 43.0347419,52.9963025 42.9850463,53.012066 L41.0547227,53.9759966 L40.64138,52.3712288 L40.585141,51.9358544 L20,40.5584452 C19.4477153,40.2639314 19,39.5774656 19,39.0251808 L18.999141,3.15785435 L17.9719087,3.19136793 L17.258141,2.06557417 L19.2843876,1.05221617 C19.4670266,0.964319181 19.7200822,0.984254474 20,1.13352465 Z" id="形状结合" fill="#2F63A9"></path>
                                <path d="M18,2.13352465 L40.3375479,15.3895093 C40.8898326,15.6840231 41.3375479,16.370489 41.3375479,16.9227737 L41.3375479,53.4379494 C41.3375479,53.9902341 40.8898326,54.1991988 40.3375479,53.904685 L18,41.5584452 C17.4477153,41.2639314 17,40.5774656 17,40.0251808 L17,2.60026024 C17,2.04797549 17.4477153,1.83901085 18,2.13352465 Z" id="矩形" fill="#17488C"></path>
                                <path d="M21.4428026,31.969295 L36.9312296,40.8156104 L36.9312296,46.60698 L21.4428026,37.7606646 L21.4428026,31.969295 Z M22.4428026,28.969295 L33.3120222,35.0128571 L33.3120222,36.4002619 L22.4428026,30.3566999 L22.4428026,28.969295 Z M21.4428026,14.3589872 L31.6419738,20.3658335 L31.6419738,22.198992 L21.4428026,16.1921457 L21.4428026,14.3589872 Z M21.4428026,8.96929503 L36.9312296,17.8156104 L36.9312296,20.6487689 L21.4428026,11.8024535 L21.4428026,8.96929503 Z" id="形状结合" fill="#86A1BD"></path>
                                <g id="编组-10" transform="translate(8.000000, 18.627370)">
                                    <path d="M3,0.102789546 L19.2916667,9.50143438 C19.6828684,9.72860436 20,10.2581022 20,10.684101 L20,35.9096259 C20,36.1740546 19.8778087,36.3364492 19.6915585,36.3672641 L16.8013633,37.3263119 L16.2978415,34.359 L3,25.8709924 C2.6087983,25.6438224 2.29166667,25.1143245 2.29166667,24.6883258 L2.29084149,2.957 L1,2.68548839 L0.188841488,1.41889907 L2.46512084,0.0578310926 C2.47029265,0.0543531868 2.47556216,0.0510269289 2.48092687,0.0478535879 L2.49491286,0.0400574099 C2.49506434,0.0404025969 2.49521579,0.0407477314 2.49536722,0.0410928134 C2.62316257,-0.0276660703 2.80210397,-0.0121282487 3,0.102789546 Z" id="形状结合" fill="#A1C0F4"></path>
                                    <g id="矩形">
                                        <use fill="black" fill-opacity="1" filter="url(#filter-2)" xlink:href="#path-1"></use>
                                        <use fill="#DAE8F5" fill-rule="evenodd" xlink:href="#path-1"></use>
                                    </g>
                                    <path d="M1,14.37263 L10.7621119,20.0213989 L10.7621119,21.8545574 L1,16.2057885 L1,14.37263 Z M1,10.37263 L14.7621119,18.0213989 L14.7621119,19.8545574 L1,12.2057885 L1,10.37263 Z M6,7.37262997 L14.222018,12.0300877 L14.222018,14.8632463 L6,10.2057885 L6,7.37262997 Z M1,6.37262997 C1,5.26806047 1.8954305,4.7206276 3,5.14990444 C4.1045695,5.57918127 5,6.8226094 5,7.9271789 C5,9.0317484 4.1045695,9.57918127 3,9.14990444 C1.8954305,8.7206276 1,7.47719947 1,6.37262997 Z" id="形状结合" fill="#ABC7E9"></path>
                                </g>
                            </g>
                        </g>
                    </g>
                </g>
            </g>
        </g>
    </g>
</svg>