<?xml version="1.0" encoding="UTF-8"?>
<svg width="20px" height="21px" viewBox="0 0 20 21" version="1.1" xmlns="http://www.w3.org/2000/svg" xmlns:xlink="http://www.w3.org/1999/xlink">
    <title>flats</title>
    <defs>
        <linearGradient x1="-26.6701991%" y1="74.7722888%" x2="59.7341811%" y2="46.8451244%" id="linearGradient-1">
            <stop stop-color="#3E1D81" offset="0%"></stop>
            <stop stop-color="#3763DD" offset="100%"></stop>
        </linearGradient>
        <linearGradient x1="0.00262266721%" y1="50.0029%" x2="99.9890752%" y2="50.0029%" id="linearGradient-2">
            <stop stop-color="#5F1DCE" offset="0%"></stop>
            <stop stop-color="#37A9DD" offset="100%"></stop>
        </linearGradient>
        <linearGradient x1="50.5029437%" y1="-8.01475282%" x2="49.266669%" y2="134.442159%" id="linearGradient-3">
            <stop stop-color="#3281FF" offset="0%"></stop>
            <stop stop-color="#241B96" offset="93%"></stop>
            <stop stop-color="#23138E" offset="100%"></stop>
        </linearGradient>
        <linearGradient x1="48.3853744%" y1="102.137931%" x2="52.7761237%" y2="-39.630094%" id="linearGradient-4">
            <stop stop-color="#90CBB2" offset="0%"></stop>
            <stop stop-color="#2A3F6C" offset="100%"></stop>
        </linearGradient>
        <linearGradient x1="50.1552418%" y1="18.4133861%" x2="49.2864997%" y2="192.925973%" id="linearGradient-5">
            <stop stop-color="#3281FF" offset="0%"></stop>
            <stop stop-color="#241B96" offset="93%"></stop>
            <stop stop-color="#23138E" offset="100%"></stop>
        </linearGradient>
        <linearGradient x1="-24.6786042%" y1="80.0827558%" x2="287.213039%" y2="-45.5315926%" id="linearGradient-6">
            <stop stop-color="#00A7F6" offset="0%"></stop>
            <stop stop-color="#032D8F" offset="100%"></stop>
        </linearGradient>
        <linearGradient x1="-56.6539924%" y1="20.2999962%" x2="233.014291%" y2="100.967564%" id="linearGradient-7">
            <stop stop-color="#00CCFF" offset="0%"></stop>
            <stop stop-color="#03C3E2" offset="100%"></stop>
        </linearGradient>
        <linearGradient x1="-61.1022965%" y1="55.1847274%" x2="170.05428%" y2="44.405508%" id="linearGradient-8">
            <stop stop-color="#9B09FF" offset="0%"></stop>
            <stop stop-color="#2509B8" offset="100%"></stop>
        </linearGradient>
        <linearGradient x1="-12.57503%" y1="63.5005107%" x2="144.407763%" y2="29.6784825%" id="linearGradient-9">
            <stop stop-color="#00A7F6" offset="0%"></stop>
            <stop stop-color="#032D8F" offset="100%"></stop>
        </linearGradient>
        <linearGradient x1="122.689076%" y1="62.3470352%" x2="-46.1684674%" y2="36.810548%" id="linearGradient-10">
            <stop stop-color="#1CFBE9" offset="0%"></stop>
            <stop stop-color="#38FF9B" offset="100%"></stop>
        </linearGradient>
        <linearGradient x1="63.4416249%" y1="102.371917%" x2="37.4063731%" y2="9.44454028%" id="linearGradient-11">
            <stop stop-color="#3281FF" offset="0%"></stop>
            <stop stop-color="#241B96" offset="93%"></stop>
            <stop stop-color="#23138E" offset="100%"></stop>
        </linearGradient>
        <linearGradient x1="49.0258299%" y1="59.3658537%" x2="54.7515645%" y2="3.75609756%" id="linearGradient-12">
            <stop stop-color="#FFD54D" offset="0%"></stop>
            <stop stop-color="#FF5E61" offset="100%"></stop>
        </linearGradient>
        <linearGradient x1="128.40024%" y1="76.3619429%" x2="-107.24985%" y2="-11.417718%" id="linearGradient-13">
            <stop stop-color="#1CFBE9" offset="0%"></stop>
            <stop stop-color="#38FF9B" offset="100%"></stop>
        </linearGradient>
        <linearGradient x1="103.350251%" y1="160.903514%" x2="15.4960466%" y2="17.3452315%" id="linearGradient-14">
            <stop stop-color="#E94287" offset="0%"></stop>
            <stop stop-color="#FCA15A" offset="100%"></stop>
        </linearGradient>
        <linearGradient x1="49.9559419%" y1="4.1031653%" x2="50.0440581%" y2="103.634232%" id="linearGradient-15">
            <stop stop-color="#B24592" offset="0%"></stop>
            <stop stop-color="#F15F79" offset="100%"></stop>
        </linearGradient>
        <linearGradient x1="-0.407331976%" y1="35.1923443%" x2="141.955193%" y2="75.4643783%" id="linearGradient-16">
            <stop stop-color="#B24592" offset="0%"></stop>
            <stop stop-color="#F15F79" offset="100%"></stop>
        </linearGradient>
        <linearGradient x1="49.2303031%" y1="151.517939%" x2="51.0202959%" y2="-93.8362466%" id="linearGradient-17">
            <stop stop-color="#3281FF" offset="0%"></stop>
            <stop stop-color="#241B96" offset="93%"></stop>
            <stop stop-color="#23138E" offset="100%"></stop>
        </linearGradient>
        <linearGradient x1="56.9188632%" y1="-0.263388938%" x2="41.1043188%" y2="120.193152%" id="linearGradient-18">
            <stop stop-color="#5C258D" offset="1%"></stop>
            <stop stop-color="#4389A2" offset="100%"></stop>
        </linearGradient>
        <linearGradient x1="49.225396%" y1="55.2901024%" x2="57.2097758%" y2="0.682593857%" id="linearGradient-19">
            <stop stop-color="#FFD54D" offset="0%"></stop>
            <stop stop-color="#FF5E61" offset="100%"></stop>
        </linearGradient>
        <linearGradient x1="56.9188632%" y1="-0.263388938%" x2="41.1043188%" y2="120.105356%" id="linearGradient-20">
            <stop stop-color="#5C258D" offset="1%"></stop>
            <stop stop-color="#4389A2" offset="100%"></stop>
        </linearGradient>
        <linearGradient x1="144.637507%" y1="82.8215573%" x2="-130.8568%" y2="-21.1167158%" id="linearGradient-21">
            <stop stop-color="#1CFBE9" offset="0%"></stop>
            <stop stop-color="#38FF9B" offset="100%"></stop>
        </linearGradient>
        <linearGradient x1="101.541768%" y1="128.109314%" x2="3.31258171%" y2="12.9949805%" id="linearGradient-22">
            <stop stop-color="#E94287" offset="0%"></stop>
            <stop stop-color="#FCA15A" offset="100%"></stop>
        </linearGradient>
        <linearGradient x1="50.5%" y1="5.74443142%" x2="50.5%" y2="105.744431%" id="linearGradient-23">
            <stop stop-color="#B24592" offset="0%"></stop>
            <stop stop-color="#F15F79" offset="100%"></stop>
        </linearGradient>
        <linearGradient x1="4.88798371%" y1="35.3120828%" x2="144.195519%" y2="78.7771422%" id="linearGradient-24">
            <stop stop-color="#B24592" offset="0%"></stop>
            <stop stop-color="#F15F79" offset="100%"></stop>
        </linearGradient>
        <linearGradient x1="48.9860678%" y1="56.9268293%" x2="58.1313385%" y2="-4.7804878%" id="linearGradient-25">
            <stop stop-color="#FFD54D" offset="0%"></stop>
            <stop stop-color="#FF5E61" offset="100%"></stop>
        </linearGradient>
        <linearGradient x1="135.829838%" y1="79.4067874%" x2="-184.781306%" y2="-41.1850791%" id="linearGradient-26">
            <stop stop-color="#1CFBE9" offset="0%"></stop>
            <stop stop-color="#38FF9B" offset="100%"></stop>
        </linearGradient>
        <linearGradient x1="86.1696615%" y1="125.934189%" x2="3.97886495%" y2="7.25041829%" id="linearGradient-27">
            <stop stop-color="#E94287" offset="0%"></stop>
            <stop stop-color="#FCA15A" offset="100%"></stop>
        </linearGradient>
        <linearGradient x1="50.5%" y1="-1.75849941%" x2="50.5%" y2="113.130129%" id="linearGradient-28">
            <stop stop-color="#B24592" offset="0%"></stop>
            <stop stop-color="#F15F79" offset="100%"></stop>
        </linearGradient>
        <linearGradient x1="4.88798371%" y1="35.1125187%" x2="175.356415%" y2="89.0347366%" id="linearGradient-29">
            <stop stop-color="#B24592" offset="0%"></stop>
            <stop stop-color="#F15F79" offset="100%"></stop>
        </linearGradient>
        <linearGradient x1="49.9401198%" y1="78.9952904%" x2="49.9401198%" y2="-43.3908948%" id="linearGradient-30">
            <stop stop-color="#FFD54D" offset="0%"></stop>
            <stop stop-color="#FF5E61" offset="100%"></stop>
        </linearGradient>
        <linearGradient x1="48.8492436%" y1="198.261665%" x2="51.4576248%" y2="-146.111619%" id="linearGradient-31">
            <stop stop-color="#3281FF" offset="0%"></stop>
            <stop stop-color="#241B96" offset="93%"></stop>
            <stop stop-color="#23138E" offset="100%"></stop>
        </linearGradient>
        <linearGradient x1="49.2477827%" y1="123.281393%" x2="51.3326685%" y2="-90.8340972%" id="linearGradient-32">
            <stop stop-color="#3281FF" offset="0%"></stop>
            <stop stop-color="#241B96" offset="93%"></stop>
            <stop stop-color="#23138E" offset="100%"></stop>
        </linearGradient>
        <linearGradient x1="49.1856727%" y1="56.1677231%" x2="58.3220277%" y2="-11.9941492%" id="linearGradient-33">
            <stop stop-color="#FFD54D" offset="0%"></stop>
            <stop stop-color="#FF5E61" offset="100%"></stop>
        </linearGradient>
        <linearGradient x1="120.191732%" y1="74.3605328%" x2="-152.786099%" y2="-32.9060107%" id="linearGradient-34">
            <stop stop-color="#1CFBE9" offset="0%"></stop>
            <stop stop-color="#38FF9B" offset="100%"></stop>
        </linearGradient>
        <linearGradient x1="93.3560021%" y1="134.85778%" x2="-6.25334191%" y2="-5.52147239%" id="linearGradient-35">
            <stop stop-color="#E94287" offset="0%"></stop>
            <stop stop-color="#FCA15A" offset="100%"></stop>
        </linearGradient>
        <linearGradient x1="50.5%" y1="8.55803048%" x2="50.5%" y2="96.8347011%" id="linearGradient-36">
            <stop stop-color="#B24592" offset="0%"></stop>
            <stop stop-color="#F15F79" offset="100%"></stop>
        </linearGradient>
        <linearGradient x1="1.83299389%" y1="35.4287102%" x2="148.676171%" y2="78.1658447%" id="linearGradient-37">
            <stop stop-color="#B24592" offset="0%"></stop>
            <stop stop-color="#F15F79" offset="100%"></stop>
        </linearGradient>
        <linearGradient x1="49.4974691%" y1="135.43956%" x2="50.9163799%" y2="-118.040293%" id="linearGradient-38">
            <stop stop-color="#3281FF" offset="0%"></stop>
            <stop stop-color="#241B96" offset="93%"></stop>
            <stop stop-color="#23138E" offset="100%"></stop>
        </linearGradient>
        <linearGradient x1="-316.001248%" y1="-119.003937%" x2="306.955708%" y2="168.651695%" id="linearGradient-39">
            <stop stop-color="#9B09FF" offset="0%"></stop>
            <stop stop-color="#2509B8" offset="100%"></stop>
        </linearGradient>
        <linearGradient x1="-47.5786122%" y1="56.4069436%" x2="212.750431%" y2="38.7239686%" id="linearGradient-40">
            <stop stop-color="#00A7F6" offset="0%"></stop>
            <stop stop-color="#032D8F" offset="100%"></stop>
        </linearGradient>
        <linearGradient x1="-225.244177%" y1="-104.587395%" x2="195.304282%" y2="131.651408%" id="linearGradient-41">
            <stop stop-color="#9B09FF" offset="0%"></stop>
            <stop stop-color="#2509B8" offset="100%"></stop>
        </linearGradient>
        <linearGradient x1="-14.9132129%" y1="18.8787099%" x2="274.176408%" y2="161.21506%" id="linearGradient-42">
            <stop stop-color="#00A7F6" offset="0%"></stop>
            <stop stop-color="#032D8F" offset="100%"></stop>
        </linearGradient>
        <linearGradient x1="50.0232959%" y1="34.9320029%" x2="49.7786886%" y2="194.664843%" id="linearGradient-43">
            <stop stop-color="#3281FF" offset="0%"></stop>
            <stop stop-color="#241B96" offset="93%"></stop>
            <stop stop-color="#23138E" offset="100%"></stop>
        </linearGradient>
        <linearGradient x1="374.624798%" y1="-95.8336054%" x2="-58.854768%" y2="98.6511946%" id="linearGradient-44">
            <stop stop-color="#9B09FF" offset="0%"></stop>
            <stop stop-color="#2509B8" offset="100%"></stop>
        </linearGradient>
    </defs>
    <g id="图标" stroke="none" stroke-width="1" fill="none" fill-rule="evenodd">
        <g id="flats" transform="translate(0.000000, 0.623915)">
            <g id="_编组_3" transform="translate(0.000000, 7.645450)" fill-rule="nonzero">
                <g id="_编组_4">
                    <path d="M0.000524521262,5.72462333 L0.000524521262,5.72462333 L0.000524521262,5.30073724 L0.120625579,5.22037551 L0.228363293,5.33871037 L8.36432689,0.649470525 C8.77181148,0.414629111 9.27353846,0.414629111 9.68102305,0.649470525 L19.7597979,6.46907327 L19.9293523,6.31541457 L20,6.39312701 L20,6.87882982 L20,6.87882982 C19.9950619,7.03150513 19.9115619,7.17078313 19.779226,7.24708086 L11.6370807,11.9380869 C11.229918,12.1729523 10.7284304,12.1729523 10.3212677,11.9380869 L0.222181621,6.10965319 C0.0858425077,6.0309382 0.00172666453,5.88558602 0.00140761728,5.72815571 L0.00140761728,5.72815571 L0.000524521262,5.72462333 Z" id="_路径_" fill="url(#linearGradient-1)"></path>
                    <path d="M11.6370807,11.4647474 L19.7756936,6.7737414 C19.9140352,6.6953396 19.9995356,6.54860797 19.9995356,6.38959463 C19.9995356,6.23058129 19.9140352,6.08384966 19.7756936,6.00544786 L9.67749067,0.176131061 C9.27000608,-0.0587103536 8.76827909,-0.0587103536 8.36079451,0.176131061 L0.223064717,4.866254 C0.0851599231,4.94477755 0,5.09126556 0,5.24995922 C0,5.40865289 0.0851599231,5.5551409 0.223064717,5.63366444 L10.3221508,11.4620981 C10.7286162,11.6974445 11.2296702,11.698454 11.6370807,11.4647474 Z" id="_路径_2" fill="url(#linearGradient-2)"></path>
                </g>
            </g>
            <g id="_编组_6" transform="translate(4.611169, 0.000000)">
                <g id="_编组_7" transform="translate(0.262280, 0.151893)" fill-rule="nonzero">
                    <g id="_编组_8">
                        <g id="_编组_9" transform="translate(6.439536, 3.716068)" fill="url(#linearGradient-3)">
                            <polygon id="_路径_3" points="0 2.0841066 0.00353238406 12.4507707 3.61097961 10.3454698 3.60744723 0"></polygon>
                        </g>
                        <g id="_编组_10" transform="translate(0.000000, 2.081457)" fill="url(#linearGradient-4)">
                            <polygon id="_路径_4" points="6.43953615 3.71871732 0 0 0.00353238406 10.4249485 2.2386484 11.6957236 2.31724395 11.6612829 3.72754828 12.4569524 6.44306853 14.0853815"></polygon>
                        </g>
                        <g id="_编组_11" transform="translate(0.000000, 2.081457)" fill="url(#linearGradient-5)">
                            <polygon id="_路径_5" points="2.42056618 1.53393778 0 0 0.00353238406 10.4249485 2.2386484 11.8220064 2.42056618 11.7195672"></polygon>
                        </g>
                        <g id="_编组_12" fill="#C8C8C8">
                            <polygon id="_路径_6" points="10.0469834 3.71606804 3.62334295 9.8043353e-17 -6.27477459e-16 2.08145731 6.43953615 5.80017463"></polygon>
                        </g>
                    </g>
                </g>
                <g id="_编组_13" fill-rule="nonzero">
                    <g id="_编组_14">
                        <g id="_编组_15" transform="translate(6.731841, 3.884739)" fill="url(#linearGradient-6)">
                            <polygon id="_路径_7" points="0 2.22010338 0.00353238406 2.45235764 3.84676625 0.232254252 3.84323386 0"></polygon>
                        </g>
                        <g id="_编组_16" transform="translate(0.000000, 2.217454)" fill="url(#linearGradient-7)">
                            <polygon id="_路径_8" points="6.73184093 3.88738866 0 0 0.00353238406 0.233137348 6.73537332 4.11964292"></polygon>
                        </g>
                        <g id="_编组_17" fill="url(#linearGradient-8)">
                            <polygon id="_路径_9" points="10.5750748 3.88473938 3.85912959 0 0 2.2174541 6.73184093 6.10484276"></polygon>
                        </g>
                        <g id="_编组_18" transform="translate(0.873382, 0.504248)" fill="url(#linearGradient-9)">
                            <polygon id="_路径_10" points="8.82742778 3.32662269 3.07670652 0 0 1.76795822 5.7639677 5.09634711"></polygon>
                        </g>
                        <polygon id="_路径_11" fill="url(#linearGradient-10)" points="3.95008848 0.702944429 9.52948911 3.92977727 9.70080974 3.83087052 3.95008848 0.504247825 0.87338196 2.27220605 1.04558568 2.3719959"></polygon>
                    </g>
                </g>
                <polygon id="_路径_12" fill="url(#linearGradient-11)" fill-rule="nonzero" points="4.06047548 4.79344518 2.6828457 3.99777567 2.50092792 3.89268724 2.50269411 5.91409402 2.50357721 7.52132877 2.50799269 13.4230594 2.36581423 13.5043043 2.36581423 14.1313025 2.6828457 13.9529171 2.68295941 11.6065058 4.06047548 12.3412668 4.06047548 11.2700714 2.6828457 10.4708695 2.6828457 9.51271029 4.06047548 10.3074967 4.06047548 9.66636899 2.6828457 8.87069948 2.6828457 7.90900792 4.06047548 8.70379434 4.06047548 8.06266663 2.6828457 7.26699712 2.6828457 6.30618865 4.06047548 7.10009197 4.06047548 6.45896426 2.6828457 5.66417785 2.6828457 4.70248629 4.06047548 5.4981558"></polygon>
                <g id="_编组_19" transform="translate(2.606899, 4.660098)">
                    <g id="_编组_20" fill-rule="nonzero">
                        <g id="_编组_21">
                            <g id="编组-2">
                                <polygon id="_路径_13" fill="url(#linearGradient-12)" points="1.47565344 0.850421464 1.47388725 1.81034683 5.01981967e-15 0.95992537 0.00176619203 0"></polygon>
                                <polygon id="_路径_15" fill="url(#linearGradient-13)" points="1.47388725 1.81034683 0 0.95992537 0.224306388 0.824811679 1.47388725 1.53393778"></polygon>
                                <polygon id="_路径_16" fill="#FFFFFF" opacity="0.1" points="0.226955676 0.67821774 1.00408017 0.578427891 0.225189484 0.128048922"></polygon>
                                <polygon id="_路径_17" fill="url(#linearGradient-14)" points="0.173086819 0.853070752 0.174853011 0.0989067538 0.124516538 0.0697645853 0.123633442 0.824811679 0.122750346 0.823928583 0.122750346 0.885745304 1.47388725 1.65315574 1.47388725 1.58868973"></polygon>
                                <polygon id="_路径_18" fill="url(#linearGradient-15)" points="0.232483351 0.823928583 0.175483351 0.852187656 0.177483351 0.0989067538 0.234483351 0.128048922"></polygon>
                                <polygon id="_路径_19" fill="url(#linearGradient-16)" points="1.47388725 1.58868973 0.173086819 0.852187656 0.223423292 0.823928583 1.47388725 1.52775611"></polygon>
                                <polygon id="_路径_20" fill="url(#linearGradient-17)" points="0.00176619203 0 0.124516538 0.0697645853 0.122750346 0.885745304 5.01981967e-15 0.95992537"></polygon>
                            </g>
                            <g id="_编组_23" transform="translate(1.467706, 0.804500)" fill="url(#linearGradient-18)">
                                <polygon id="_路径_14" points="0.09 0.0459209928 0.93 -1.25495492e-15 0.92 0.960808466 0.07 1.00584636"></polygon>
                            </g>
                        </g>
                    </g>
                    <g id="_编组_24" transform="translate(0.122750, 0.069765)"></g>
                </g>
                <g id="_编组_25" transform="translate(2.606899, 6.262034)" fill-rule="nonzero">
                    <g id="_编组_27" transform="translate(0.000000, 0.000000)">
                        <g id="_编组_28" fill="url(#linearGradient-19)">
                            <polygon id="_路径_21" points="1.47565344 0.850421464 1.47388725 1.81122993 -1.25495492e-15 0.95992537 0.00176619203 0"></polygon>
                        </g>
                        <g id="_编组_29" transform="translate(1.467706, 0.805384)" fill="url(#linearGradient-20)">
                            <polygon id="_路径_22" points="0.09 0.0450378968 0.93 0 0.92 0.95992537 0.07 1.00584636"></polygon>
                        </g>
                    </g>
                    <polygon id="_路径_23" fill="#FFFFFF" opacity="0.1" points="0.226955676 0.679100836 1.00408017 0.578427891 0.225189484 0.128932018"></polygon>
                    <polygon id="_路径_24" fill="url(#linearGradient-21)" points="1.47388725 1.81122993 0 0.95992537 0.224306388 0.824811679 1.47388725 1.53482088"></polygon>
                    <g id="_编组_30" transform="translate(0.122750, 0.069765)">
                        <polygon id="_路径_25" fill="url(#linearGradient-22)" points="0.0503364729 0.783306166 0.052102665 0.0291421685 0.00176619203 1.25495492e-15 0.000883096016 0.755047094 0 0.755047094 0 0.815980719 1.3511369 1.58339116 1.3511369 1.51980824"></polygon>
                        <polygon id="_路径_26" fill="url(#linearGradient-23)" points="0.109733005 0.755047094 0.0527330046 0.78242307 0.0547330046 0.0291421685 0.111733005 0.0591674331"></polygon>
                        <polygon id="_路径_27" fill="url(#linearGradient-24)" points="1.3511369 1.51980824 0.0503364729 0.78242307 0.100672946 0.755047094 1.3511369 1.45887462"></polygon>
                    </g>
                </g>
                <g id="_编组_31" transform="translate(2.606899, 7.864853)" fill-rule="nonzero">
                    <g id="_编组_33" transform="translate(0.000000, 0.000000)">
                        <g id="_编组_34" fill="url(#linearGradient-25)">
                            <polygon id="_路径_28" points="1.47565344 0.850421464 1.47388725 1.81034683 -1.25495492e-15 0.95992537 0.00176619203 0"></polygon>
                        </g>
                        <g id="_编组_35" transform="translate(1.467706, 0.804500)" fill="url(#linearGradient-18)">
                            <polygon id="_路径_29" points="0.09 0.0459209928 0.93 -1.25495492e-15 0.92 0.960808466 0.07 1.00584636"></polygon>
                        </g>
                    </g>
                    <polygon id="_路径_30" fill="#FFFFFF" opacity="0.1" points="0.226955676 0.67821774 1.00408017 0.578427891 0.225189484 0.128048922"></polygon>
                    <polygon id="_路径_31" fill="url(#linearGradient-26)" points="1.47388725 1.81034683 1.25495492e-15 0.95992537 0.224306388 0.824811679 1.47388725 1.53393778"></polygon>
                    <g id="_编组_36" transform="translate(0.122750, 0.069765)">
                        <polygon id="_路径_32" fill="url(#linearGradient-27)" points="0.0503364729 0.783306166 0.052102665 0.0291421685 0.00176619203 0 0.000883096016 0.754163998 0 0.754163998 0 0.815980719 1.3511369 1.58339116 1.3511369 1.51892515"></polygon>
                        <polygon id="_路径_33" fill="url(#linearGradient-28)" points="0.109733005 0.754163998 0.0527330046 0.78242307 0.0547330046 0.0291421685 0.111733005 0.0582843371"></polygon>
                        <polygon id="_路径_34" fill="url(#linearGradient-29)" points="1.3511369 1.51892515 0.0503364729 0.78242307 0.100672946 0.754163998 1.3511369 1.45799152"></polygon>
                    </g>
                </g>
                <g id="_编组_37" transform="translate(2.683087, 11.606506)" fill="url(#linearGradient-30)" fill-rule="nonzero">
                    <g id="_编组_41">
                        <polygon id="_路径_35" points="1.43386536 3.16202315 0 2.34729435 3.7873512e-15 -7.84533486e-14 1.43386536 0.772964537"></polygon>
                    </g>
                </g>
                <polygon id="_路径_43" fill="url(#linearGradient-31)" fill-rule="nonzero" points="2.60866563 6.26203385 2.73141598 6.33356463 2.72964979 7.15307773 2.60689944 7.2272578"></polygon>
                <polygon id="_路径_44" fill="url(#linearGradient-32)" fill-rule="nonzero" points="2.60866563 7.86485312 2.73141598 7.93726699 2.72964979 8.75413081 2.60689944 8.82831087"></polygon>
                <g id="_编组_50" transform="translate(2.606899, 9.466789)" fill-rule="nonzero">
                    <g id="_编组_52" transform="translate(0.000000, 0.000000)">
                        <g id="_编组_53" fill="url(#linearGradient-33)">
                            <polygon id="_路径_45" points="1.47565344 0.850421464 1.47388725 1.81122993 -1.25495492e-15 0.95992537 0.00176619203 0"></polygon>
                        </g>
                        <g id="_编组_54" transform="translate(1.467706, 0.805384)" fill="url(#linearGradient-20)">
                            <polygon id="_路径_46" points="0.09 0.0450378968 0.93 0 0.92 0.95992537 0.07 1.00584636"></polygon>
                        </g>
                    </g>
                    <polygon id="_路径_47" fill="#FFFFFF" opacity="0.1" points="0.226955676 0.679100836 1.00408017 0.578427891 0.225189484 0.128932018"></polygon>
                    <polygon id="_路径_48" fill="url(#linearGradient-34)" points="1.47388725 1.81122993 0 0.95992537 0.224306388 0.824811679 1.47388725 1.53482088"></polygon>
                    <g id="_编组_55" transform="translate(0.122750, 0.069765)">
                        <polygon id="_路径_49" fill="url(#linearGradient-35)" points="0.0503364729 0.783306166 0.052102665 0.0291421685 0.00176619203 0 0.000883096016 0.755047094 0 0.755047094 0 0.815980719 1.3511369 1.58339116 1.3511369 1.51980824"></polygon>
                        <polygon id="_路径_50" fill="url(#linearGradient-36)" points="0.109733005 0.755047094 0.0527330046 0.78242307 0.0547330046 0.0291421685 0.111733005 0.0591674331"></polygon>
                        <polygon id="_路径_51" fill="url(#linearGradient-37)" points="1.3511369 1.51892515 0.0503364729 0.78242307 0.100672946 0.755047094 1.3511369 1.45887462"></polygon>
                    </g>
                </g>
                <polygon id="_路径_52" fill="url(#linearGradient-38)" fill-rule="nonzero" points="2.60866563 9.46237381 2.73141598 9.5321384 2.72964979 10.3525346 2.60689944 10.4267147"></polygon>
                <g id="_编组_56" transform="translate(0.015013, 4.793445)" fill-rule="nonzero">
                    <g id="_编组_57" transform="translate(3.861779, 8.835376)">
                        <polygon id="_路径_53" fill="url(#linearGradient-39)" points="2.83120583 2.97515048 0 1.33259189 0 0.704710621 2.83120583 2.37376209"></polygon>
                        <polygon id="_路径_54" fill="url(#linearGradient-40)" points="6.43776996 0 6.43776996 0.0697645853 2.83120583 2.13885855 2.83120583 2.13974165 2.83120583 2.13885855 0.183683971 0.611102443 0 0.704710621 2.83120583 2.37376209 6.65589467 0.135996786"></polygon>
                    </g>
                    <g id="_编组_58" transform="translate(0.000000, 7.197233)">
                        <g id="_编组_59" transform="translate(0.000000, 0.150126)" fill="url(#linearGradient-41)">
                            <polygon id="_路径_55" points="2.3508016 1.99049842 0 0.626998171 0 0 2.3508016 1.36350025"></polygon>
                        </g>
                        <polygon id="_路径_56" fill="url(#linearGradient-42)" points="0.250799269 0 0 0.150126323 2.3508016 1.51362657 2.49298005 1.43238174 0.250799269 0.133347498"></polygon>
                    </g>
                    <polygon id="_路径_57" fill="url(#linearGradient-43)" points="4.04546285 9.44647809 4.04546285 0 6.68680303 1.52422372 6.69298471 10.9742342"></polygon>
                </g>
                <polygon id="_路径_58" fill="url(#linearGradient-44)" fill-rule="nonzero" points="6.70799734 16.0025829 10.5326862 13.7648176 10.5326862 14.3467779 6.70799734 16.6039713"></polygon>
            </g>
        </g>
    </g>
</svg>