<?xml version="1.0" encoding="UTF-8"?>
<svg width="24px" height="24px" viewBox="0 0 24 24" version="1.1" xmlns="http://www.w3.org/2000/svg" xmlns:xlink="http://www.w3.org/1999/xlink">
    <title>futian</title>
    <g id="图标" stroke="none" stroke-width="1" fill="none" fill-rule="evenodd">
        <g id="futian">
            <rect id="矩形备份-5" x="0" y="0" width="24" height="24"></rect>
            <path d="M13.4080055,4.71314682 L14.9307491,4.74042596 L15.3572602,5.48682027 L15.9388923,5.83579956 L16.5084757,7.08888303 L17.361133,8.1120718 L18.1353018,7.64757052 L18.8052486,7.73131388 L19.7117449,8.76730962 L21.4510985,8.25573503 L21.3599254,9.98802395 L21.5823729,14.214526 L21.4926787,14.2324648 L20.6296203,13.6159945 L19.58762,13.963328 L19.1216021,14.6623548 L17.5664339,15.0079478 L18.8916518,16.6276585 L18.5677465,17.275469 L18.2195612,17.5540173 L17.1182859,17.1135072 L15.4481948,17.53103 L14.1949621,18.7842627 L14.0713544,19.7731243 L13.8796406,20.0287427 L13.0667561,20.1190632 L11.7970625,19.6573565 L9.24192468,19.3089286 L8.02522454,18.2138984 L2.4,18.0990979 L2.4,16.9210869 L3.02470138,16.5462661 L2.88199313,15.2618919 L3.35343251,11.7254935 L3.54893191,10.4547474 L5.17506911,10.1837245 L4.58208933,8.55303015 L4.91497006,7.6653482 L4.91497006,6.44113453 L5.39921836,5.95688623 L7.01640542,5.95688623 L7.85472877,5.47784431 L8.37263868,5.47784431 L8.92788511,5.75546753 L10.8195479,4.9988024 L11.4151529,4.9988024 L11.751558,5.33520745 L13.0072807,5.51459641 L13.4080055,4.71314682 Z" id="福田区" stroke="#548FF7" stroke-width="0.8" fill="#0F57EF" fill-rule="nonzero"></path>
        </g>
    </g>
</svg>