<?xml version="1.0" encoding="UTF-8"?>
<svg width="40px" height="40px" viewBox="0 0 40 40" version="1.1" xmlns="http://www.w3.org/2000/svg" xmlns:xlink="http://www.w3.org/1999/xlink">
    <title>800ECF55-A5EE-4D0B-A976-CBECE7A047DF</title>
    <defs>
        <linearGradient x1="5.25973986%" y1="0%" x2="94.4059541%" y2="93.9734771%" id="linearGradient-1">
            <stop stop-color="#89EEBD" offset="0%"></stop>
            <stop stop-color="#57BD8B" offset="100%"></stop>
        </linearGradient>
        <linearGradient x1="0%" y1="0%" x2="100%" y2="100%" id="linearGradient-2">
            <stop stop-color="#FFFFFF" offset="0%"></stop>
            <stop stop-color="#FFFFFF" stop-opacity="0" offset="100%"></stop>
        </linearGradient>
        <path d="M20.5,13 C21.3284271,13 22,13.6715729 22,14.5 L22,17 L24.5,17 C25.3284271,17 26,17.6715729 26,18.5 C26,19.3284271 25.3284271,20 24.5,20 L22,20 L22,22.5 C22,23.3284271 21.3284271,24 20.5,24 C19.6715729,24 19,23.3284271 19,22.5 L19,20 L16.5,20 C15.6715729,20 15,19.3284271 15,18.5 C15,17.6715729 15.6715729,17 16.5,17 L19,17 L19,14.5 C19,13.6715729 19.6715729,13 20.5,13 Z" id="path-3"></path>
        <filter x="-18.2%" y="-9.1%" width="136.4%" height="136.4%" filterUnits="objectBoundingBox" id="filter-4">
            <feOffset dx="0" dy="1" in="SourceAlpha" result="shadowOffsetOuter1"></feOffset>
            <feGaussianBlur stdDeviation="0.5" in="shadowOffsetOuter1" result="shadowBlurOuter1"></feGaussianBlur>
            <feColorMatrix values="0 0 0 0 0.207843137   0 0 0 0 0.647058824   0 0 0 0 0.552941176  0 0 0 0.52 0" type="matrix" in="shadowBlurOuter1"></feColorMatrix>
        </filter>
    </defs>
    <g id="入口卡片" stroke="none" stroke-width="1" fill="none" fill-rule="evenodd">
        <g id="卡片项---功能入口卡片" transform="translate(-371.000000, -3824.000000)">
            <g id="功能入口卡片" transform="translate(181.000000, 381.000000)">
                <g id="自定义" transform="translate(0.000000, 2907.000000)">
                    <g id="2" transform="translate(7.000000, 414.000000)">
                        <g id="自定义-1" transform="translate(0.000000, 42.000000)">
                            <g id="卡片" transform="translate(20.000000, 62.000000)">
                                <g id="Card备份-6" transform="translate(130.000000, 0.000000)">
                                    <g id="新建-绿色" transform="translate(33.000000, 18.000000)">
                                        <rect id="矩形" fill="#000000" fill-rule="nonzero" opacity="0" x="0" y="0" width="40" height="40"></rect>
                                        <rect id="矩形" fill="#35A58D" x="5" y="3" width="30" height="30" rx="4"></rect>
                                        <path d="M31,2.5 C32.2426407,2.5 33.3676407,3.00367966 34.1819805,3.81801948 C34.9963203,4.63235931 35.5,5.75735931 35.5,7 L35.5,7 L35.5,29 C35.5,30.2426407 34.9963203,31.3676407 34.1819805,32.1819805 C33.3676407,32.9963203 32.2426407,33.5 31,33.5 L31,33.5 L9,33.5 C7.75735931,33.5 6.63235931,32.9963203 5.81801948,32.1819805 C5.00367966,31.3676407 4.5,30.2426407 4.5,29 L4.5,29 L4.5,18 C4.5,13.7197932 6.23489659,9.84479319 9.03984489,7.03984489 C11.8447932,4.23489659 15.7197932,2.5 20,2.5 L20,2.5 Z" id="矩形" stroke="url(#linearGradient-2)" fill-opacity="0.7" fill="url(#linearGradient-1)"></path>
                                        <g id="形状结合">
                                            <use fill="black" fill-opacity="1" filter="url(#filter-4)" xlink:href="#path-3"></use>
                                            <use fill="#FFFFFF" fill-rule="evenodd" xlink:href="#path-3"></use>
                                        </g>
                                    </g>
                                </g>
                            </g>
                        </g>
                    </g>
                </g>
            </g>
        </g>
    </g>
</svg>