<?xml version="1.0" encoding="UTF-8"?>
<svg width="24px" height="24px" viewBox="0 0 24 24" version="1.1" xmlns="http://www.w3.org/2000/svg" xmlns:xlink="http://www.w3.org/1999/xlink">
    <title>guangming</title>
    <g id="图标" stroke="none" stroke-width="1" fill="none" fill-rule="evenodd">
        <g id="guangming">
            <rect id="矩形备份-3" x="0" y="0" width="24" height="24"></rect>
            <path d="M13.0054638,2.42459856 L13.7295555,3.06823562 L14.2363699,3.1527047 L15.0824444,3.99877916 L16.0111236,5.15962814 L16.5485721,4.72966929 L17.2460797,5.11012797 L16.9856417,6.16710522 L17.6794797,7.20786231 L19.0200817,6.44180404 L19.3965368,7.33590862 L19.8543771,8.98413385 L20.1566097,9.58859901 L19.9644249,10.5495231 L20.6776673,11.1608737 L20.3017042,11.559943 L20.5468946,12.9084906 L21.647619,14.2632284 L21.647619,15.0326797 L19.1293987,16.7114933 L18.8708354,17.3148077 L17.5439485,18.1733816 L16.3721727,17.6781167 L15.4425495,17.0971022 L14.4230781,17.8900243 L12.6506802,18.8398668 L12.0668451,18.8929427 L11.8089171,18.3770868 L10.2848438,18.4943232 L9.69185721,19.0025974 L8.74718615,19.0025974 L8.74718615,19.8683456 L8.38793055,20.3174151 L7.47954447,21.2355797 L6.31659248,21.0805195 L6.20446299,20.5604254 L5.87169124,20.0058058 L5.54457666,19.1553079 L6.54528175,18.1546028 L6.41693992,17.3845518 L5.92678031,16.2408461 L6.35217874,14.0287742 L5.9657134,12.2896802 L5.28360234,11.5101247 L4.90805438,11.1345767 L3.94194614,9.13885185 L4.22398744,8.15549974 L6.37212487,7.03473239 L6.83765415,5.26572114 L7.31089515,4.39811263 L8.11443616,3.51421752 L8.88306719,2.9761758 L9.8302425,2.73938197 L10.9606624,2.57789341 L11.4831168,2.66496914 L13.0054638,2.42459856 Z" id="光明区" stroke="#548FF7" stroke-width="0.8" fill="#0F57EF" fill-rule="nonzero"></path>
        </g>
    </g>
</svg>