<?xml version="1.0" encoding="UTF-8"?>
<svg width="14px" height="14px" viewBox="0 0 14 14" version="1.1" xmlns="http://www.w3.org/2000/svg" xmlns:xlink="http://www.w3.org/1999/xlink">
    <title>清单</title>
    <defs>
        <path d="M11.6875,0.87181325 C12.2397847,0.87181325 12.6875,1.3195285 12.6875,1.87181325 L12.6875,12.9968132 C12.6875,13.549098 12.2397847,13.9968132 11.6875,13.9968132 L2.3125,13.9968132 C1.76021525,13.9968132 1.3125,13.549098 1.3125,12.9968132 L1.3125,1.87181325 C1.3125,1.3195285 1.76021525,0.87181325 2.3125,0.87181325 L3.9375,0.87181325 C3.9375,1.55456913 4.4539684,2.11351059 5.1158045,2.18072371 L5.25,2.1875 L8.75,2.1875 C9.47487373,2.1875 10.0625,1.59987373 10.0625,0.875 L11.6875,0.87181325 Z M4.09773437,8.9796875 C3.75794981,8.9796875 3.4825,9.25513731 3.4825,9.59492188 C3.4825,9.93470644 3.75794981,10.2101563 4.09773437,10.2101563 C4.43751894,10.2101563 4.71296875,9.93470644 4.71296875,9.59492188 C4.71296875,9.25513731 4.43751894,8.9796875 4.09773437,8.9796875 Z M10.5235156,9.10273438 L5.69734375,9.10273438 L5.69734375,10.0871094 L10.5235156,10.0871094 L10.5235156,9.10273438 Z M4.09773437,6.76484375 C3.75794981,6.76484375 3.4825,7.04029356 3.4825,7.38007813 C3.4825,7.71986269 3.75794981,7.9953125 4.09773437,7.9953125 C4.43751894,7.9953125 4.71296875,7.71986269 4.71296875,7.38007813 C4.71296875,7.04029356 4.43751894,6.76484375 4.09773437,6.76484375 Z M10.5235156,6.88789063 L5.69734375,6.88789063 L5.67734663,7.87226563 L10.5235156,7.87226563 L10.5235156,6.88789063 Z M4.09773437,4.55 C3.75794981,4.55 3.4825,4.82544981 3.4825,5.16523438 C3.4825,5.50501894 3.75794981,5.78046875 4.09773437,5.78046875 C4.43751894,5.78046875 4.71296875,5.50501894 4.71296875,5.16523438 C4.71296875,4.82544981 4.43751894,4.55 4.09773437,4.55 Z M10.5235156,4.67304688 L5.69734375,4.67304688 L5.69734375,5.65742188 L10.5235156,5.65742188 L10.5235156,4.67304688 Z" id="path-1"></path>
        <filter x="-17.6%" y="-15.2%" width="135.2%" height="130.5%" filterUnits="objectBoundingBox" id="filter-2">
            <feGaussianBlur stdDeviation="1.5" in="SourceAlpha" result="shadowBlurInner1"></feGaussianBlur>
            <feOffset dx="0" dy="1" in="shadowBlurInner1" result="shadowOffsetInner1"></feOffset>
            <feComposite in="shadowOffsetInner1" in2="SourceAlpha" operator="arithmetic" k2="-1" k3="1" result="shadowInnerInner1"></feComposite>
            <feColorMatrix values="0 0 0 0 1   0 0 0 0 1   0 0 0 0 1  0 0 0 0.5 0" type="matrix" in="shadowInnerInner1"></feColorMatrix>
        </filter>
        <path d="M8.75,1.75 L5.25,1.75 C4.76675084,1.75 4.375,1.35824916 4.375,0.875 C4.375,0.391750844 4.76675084,8.87714298e-17 5.25,0 L8.75,0 C9.23324916,-8.87714298e-17 9.625,0.391750844 9.625,0.875 C9.625,1.35824916 9.23324916,1.75 8.75,1.75 Z" id="path-3"></path>
        <filter x="-38.1%" y="-114.3%" width="176.2%" height="328.6%" filterUnits="objectBoundingBox" id="filter-4">
            <feGaussianBlur stdDeviation="1.5" in="SourceAlpha" result="shadowBlurInner1"></feGaussianBlur>
            <feOffset dx="0" dy="1" in="shadowBlurInner1" result="shadowOffsetInner1"></feOffset>
            <feComposite in="shadowOffsetInner1" in2="SourceAlpha" operator="arithmetic" k2="-1" k3="1" result="shadowInnerInner1"></feComposite>
            <feColorMatrix values="0 0 0 0 1   0 0 0 0 1   0 0 0 0 1  0 0 0 0.5 0" type="matrix" in="shadowInnerInner1"></feColorMatrix>
        </filter>
    </defs>
    <g id="页面-2" stroke="none" stroke-width="1" fill="none" fill-rule="evenodd">
        <g id="清单">
            <rect id="矩形" fill="#FFFFFF" opacity="0" x="0" y="0" width="14" height="14"></rect>
            <g id="形状结合">
                <use fill="#DDE6FF" fill-rule="evenodd" xlink:href="#path-1"></use>
                <use fill="black" fill-opacity="1" filter="url(#filter-2)" xlink:href="#path-1"></use>
            </g>
            <g id="路径">
                <use fill="#DDE6FF" fill-rule="evenodd" xlink:href="#path-3"></use>
                <use fill="black" fill-opacity="1" filter="url(#filter-4)" xlink:href="#path-3"></use>
            </g>
        </g>
    </g>
</svg>