<?xml version="1.0" encoding="UTF-8"?>
<svg width="22px" height="22px" viewBox="0 0 22 22" version="1.1" xmlns="http://www.w3.org/2000/svg" xmlns:xlink="http://www.w3.org/1999/xlink">
    <title>iptables管理</title>
    <g id="页面-1" stroke="none" stroke-width="1" fill="none" fill-rule="evenodd">
        <g id="Apple-TV备份-3" transform="translate(-499.000000, -230.000000)">
            <g id="iptables管理" transform="translate(499.000000, 230.000000)">
                <rect id="矩形" x="0" y="0" width="22" height="22"></rect>
                <g id="编组" transform="translate(2.580000, 1.300000)">
                    <path d="M15.9012866,2.40907359 C15.6092413,2.04429273 15.2072866,1.7834548 14.7414797,1.65401643 L9.25228569,0.14488272 C8.54677143,-0.04829424 7.80043364,-0.04829424 7.09177911,0.14488272 L1.60363182,1.65401643 C1.13573141,1.7834548 0.733776702,2.04429273 0.443824995,2.40907359 C0.153873288,2.77483504 1.85115081e-13,3.20825746 1.85115081e-13,3.66423353 L1.85115081e-13,11.9639787 C1.85115081e-13,12.4130906 0.148639503,12.8425906 0.434404181,13.2054103 C1.04047652,13.9761569 2.26413553,15.4666594 3.65108864,16.7934027 C5.49861486,18.5565101 6.97663583,19.413549 8.17412591,19.413549 C9.37161599,19.413549 10.849637,18.5565101 12.6950697,16.7934027 C14.0862098,15.4666594 15.3077753,13.9781181 15.9128009,13.2054103 C16.1985656,12.8425906 16.3482518,12.4130906 16.3482518,11.9639787 L16.3482518,3.66423353 C16.3482518,3.20825746 16.1933318,2.77483504 15.9012866,2.40907359 Z" id="Stroke-1" stroke="#FFFFFF"></path>
                    <path d="M2.84109328,2.97189788 C2.4590189,3.07491165 2.13137411,3.28388243 1.89551255,3.57526422 C1.65858374,3.8676271 1.53264861,4.21591173 1.53264861,4.58087479 L1.53264861,9.19589146 L8.17412591,9.19589146 L8.17412591,1.53264842 L2.84109328,2.97189788 Z" id="Fill-3" fill="#FFFFFF"></path>
                    <path d="M8.17412591,9.19589158 L8.17412591,17.8713037 C8.19106846,17.8766352 8.20059864,17.8809004 8.20059864,17.8809004 C8.20059864,17.8809004 10.3660676,17.1344908 11.8601882,15.6011522 C12.9847495,14.4463499 13.9737706,13.1507961 14.4640454,12.4790275 C14.6948876,12.1634029 14.8156032,11.7901981 14.8156032,11.3988662 L14.8156032,9.19589158 L8.17412591,9.19589158 Z" id="Fill-5" fill="#FFFFFF"></path>
                </g>
            </g>
        </g>
    </g>
</svg>