<?xml version="1.0" encoding="UTF-8"?>
<svg width="14px" height="14px" viewBox="0 0 14 14" version="1.1" xmlns="http://www.w3.org/2000/svg" xmlns:xlink="http://www.w3.org/1999/xlink">
    <title>项目</title>
    <defs>
        <path d="M13.4306755,3.15286271 C13.5849678,3.15286271 13.7361431,3.21832007 13.8421217,3.33053268 C13.9496588,3.4427453 14.0057651,3.59547913 13.9995311,3.75132998 L13.536654,11.9147975 C13.5195105,12.2140312 13.2701491,12.449366 12.9709155,12.449366 L1.04676686,12.449366 C0.747533227,12.449366 0.498171866,12.2155897 0.481028272,11.9163561 L0.00100765172,3.75288849 C-0.00834339933,3.59703764 0.047762907,3.4427453 0.153741486,3.33053268 C0.259720064,3.21832007 0.409336881,3.15286271 0.565187732,3.15286271 Z M9.38478738,5.57322643 L4.52068233,5.57322643 C4.21989018,5.57322643 3.97520435,5.81791226 3.97520435,6.1187044 C3.97520435,6.41949655 4.21989018,6.66418238 4.52068233,6.66418238 L9.38478738,6.66418238 C9.68557952,6.66418238 9.93026536,6.41949655 9.93026536,6.1187044 C9.93026536,5.81791226 9.68557952,5.57322643 9.38478738,5.57322643 Z" id="path-1"></path>
        <filter x="-14.3%" y="-21.5%" width="128.6%" height="143.0%" filterUnits="objectBoundingBox" id="filter-2">
            <feGaussianBlur stdDeviation="1.5" in="SourceAlpha" result="shadowBlurInner1"></feGaussianBlur>
            <feOffset dx="0" dy="1" in="shadowBlurInner1" result="shadowOffsetInner1"></feOffset>
            <feComposite in="shadowOffsetInner1" in2="SourceAlpha" operator="arithmetic" k2="-1" k3="1" result="shadowInnerInner1"></feComposite>
            <feColorMatrix values="0 0 0 0 1   0 0 0 0 1   0 0 0 0 1  0 0 0 0.5 0" type="matrix" in="shadowInnerInner1"></feColorMatrix>
        </filter>
    </defs>
    <g id="页面-2" stroke="none" stroke-width="1" fill="none" fill-rule="evenodd">
        <g id="项目">
            <rect id="矩形" x="0" y="0" width="14" height="14"></rect>
            <g id="项目-(3)" transform="translate(0.000000, 0.800000)">
                <path d="M6.57564921,0.5 L7.51387134,1.8746045 L11.8581404,1.8746045 L12.048573,10.3690677 L2.41301636,10.8690677 L1.91301636,0.690419269 L6.57564921,0.5 Z" id="形状" stroke="#DDE6FF"></path>
                <g id="形状结合">
                    <use fill="#DDE6FF" fill-rule="evenodd" xlink:href="#path-1"></use>
                    <use fill="black" fill-opacity="1" filter="url(#filter-2)" xlink:href="#path-1"></use>
                </g>
            </g>
        </g>
    </g>
</svg>