<?xml version="1.0" encoding="UTF-8"?>
<svg width="24px" height="24px" viewBox="0 0 24 24" version="1.1" xmlns="http://www.w3.org/2000/svg" xmlns:xlink="http://www.w3.org/1999/xlink">
    <title>longhua</title>
    <g id="图标" stroke="none" stroke-width="1" fill="none" fill-rule="evenodd">
        <g id="longhua">
            <rect id="矩形备份-4" x="0" y="0" width="24" height="24"></rect>
            <path d="M12.593,2.826 L12.769,2.966 L12.4807947,3.19847854 L12.4807947,3.82489937 L13.3277259,4.0668797 L13.5067499,4.0310749 L13.8308945,4.46326774 L13.937,4.356 L13.9377483,4.51788079 L14.602649,5.01655629 L14.798,4.869 L14.7986755,5.32665628 L15.4483181,5.75975138 L16.0769998,5.13106977 L16.4596026,5.00353548 L16.459,4.786 L16.4924793,4.81141246 L16.699,4.77 L16.901104,5.17345629 L17.2231979,5.10187986 L17.2144725,5.15423189 L17.5456968,5.40265009 L17.5517338,5.43887215 L17.2590105,5.73159545 L17.9067356,6.6384106 L18.059,6.638 L18.2368461,7.40787048 L18.431,7.472 L18.3748344,7.52967881 L18.3748344,7.86080464 L18.1099338,8.1257053 L18.109,8.276 L17.9515196,8.38160218 L17.9050985,8.61370775 L17.365883,8.72155084 L16.8516556,9.33862373 L16.8516556,10.2451556 L17.184,10.578 L16.9398933,11.0668459 L17.4556526,12.1720444 L17.4940029,12.5938981 L16.8363246,13.0323503 L16.8,13.082 L16.5373591,12.8848074 L16.3560646,12.2804923 L16.0580457,11.8831337 L15.4797734,11.5939976 L15.1659799,11.8450323 L14.7758681,11.6109652 L13.8566914,12.7422596 L13.2625471,12.5937236 L12.9035316,13.3117547 L13.103,13.461 L13.062023,13.4820398 L13.1090429,14.2813773 L12.8423258,14.1924716 L12.5632769,15.5877165 L13.162,15.437 L12.9292204,15.750002 L12.958,15.798 L12.817,16.5 L12.7456954,16.5006623 L12.745,16.859 L12.723999,16.9695364 L12.745,16.969 L12.745,17.249 L12.3837185,17.4304636 L13.247,17.861 L13.1477881,18.3605245 L13.438,18.457 L13.5297991,19.2777628 L13.3008826,19.7355957 L13.6728477,20.0145695 L13.6728477,20.2790287 L14.15,20.917 L13.8264949,20.8197402 L13.6107422,21.0354929 L13.2065403,21.1163333 L13.0493081,21.4307976 L13.0031313,21.4242009 L12.7815795,21.202649 L12.0752849,21.202649 L11.1400819,21.5767302 L10.997466,21.5339454 L11.2020911,20.8689138 L10.8304636,20.3486352 L10.8304636,19.8525927 L10.5452268,19.2821192 L10.0001225,19.2821192 L9.74333758,19.0253343 L9.49031134,18.6710975 L9.42263742,18.1297062 L8.8593102,17.4255472 L8.61920068,16.8252734 L8.23528267,16.9212529 L8.04537717,16.7313474 L7.909,16.758 L7.89935141,16.6981028 L7.53886537,16.0672522 L7.00776408,15.8017016 L6.52186471,15.6397351 L5.76146689,15.6397351 L5.749,15.651 L5.613,15.378 L5.50591129,14.6777017 L5.60502249,14.6281461 L6.11074476,13.8695626 L6.016,13.775 L6.06225166,13.6838312 L6.06225166,13.1546277 L5.65358206,12.4190225 L5.56568542,12.3311258 L5.5986755,12.2981358 L5.598,12.222 L5.96137851,12.1011775 L5.878,11.936 L6.34967234,11.9364238 L6.15011384,11.3377483 L6.375,10.66 L6.42661258,10.6092715 L6.401,10.583 L6.41589751,10.5403974 L6.357,10.54 L6.333,10.516 L6.52582781,10.4845462 L6.525,10.28 L6.97171691,10.2807947 L6.37304141,9.08344371 L6.274,9.083 L6.30863946,8.84675887 L6.59415597,8.46607018 L6.506,8.29 L7.17662267,7.82627491 L7.38656508,7.33640928 L8.73129843,6.10860927 L9.4397351,6.10860927 L9.4397351,4.76361324 L9.16121995,4.44531021 L9.53334678,4.16621508 L8.387,3.402 L8.685,3.253 L8.87908914,3.5120747 L9.24091154,3.4216191 L9.524968,3.59205298 L10.214101,3.59205298 L10.28,3.459 L10.475032,3.45960265 L11.014,3.135 L11.4390304,3.41801868 L11.542,3.109 L12.2601922,3.22923606 L12.5297979,2.8697618 L12.593,2.826 Z" id="龙华区" stroke="#548FF7" stroke-width="0.8" fill="#0F57EF" fill-rule="nonzero"></path>
        </g>
    </g>
</svg>