<?xml version="1.0" encoding="UTF-8"?>
<svg width="24px" height="24px" viewBox="0 0 24 24" version="1.1" xmlns="http://www.w3.org/2000/svg" xmlns:xlink="http://www.w3.org/1999/xlink">
    <title>longgang</title>
    <g id="图标" stroke="none" stroke-width="1" fill="none" fill-rule="evenodd">
        <g id="longgang">
            <rect id="矩形备份-6" x="0" y="0" width="24" height="24"></rect>
            <path d="M21.2170404,4.71390135 L21.23,4.73 L21.0939204,5.13942644 L21.2860987,5.33160471 L21.286,5.389 L21.1018823,5.44213624 L20.557391,6.07737614 L21.0534576,6.82147603 L21.249,6.919 L21.1779847,6.99175589 L21.0170404,7.31364456 L21.0170404,7.43366941 L20.5420194,7.59200973 L20.768,7.818 L20.776,7.857 L20.6849358,7.88816765 L20.297181,8.66367713 L20.488,9.046 L20.4096434,9.75832006 L20.557,9.857 L20.5187694,10.5866745 L20.611,10.771 L20.4890928,10.8779805 L19.6819023,10.9513614 L19.754,11.313 L19.20032,11.3130045 L19.345,11.604 L18.9782174,11.9717922 L19.27,12.147 L19.0673596,12.622608 L18.9067638,12.658296 L18.2515519,12.658296 L18.047,12.944 L17.8770534,12.8590261 L17.4243686,13.1985397 L17.421,13.204 L17.1584287,13.1669381 L16.9716104,13.4160291 L16.3021969,13.5594749 L15.972,14.22 L15.8967656,14.2806515 L15.7119101,14.6503626 L15.7836036,15.1522174 L15.784,15.154 L15.661147,15.2311155 L15.642,15.259 L15.4920965,15.2591928 L15.1129334,16.2450168 L15.2167349,16.5045204 L15.1480572,16.8479091 L15.6613518,17.2678774 L15.6573943,17.3074519 L15.6159772,17.3333376 L15.4192507,17.27713 L14.8093472,17.27713 L14.4506028,17.5910314 L14.2433797,17.5910314 L13.6648343,18.2338596 L13.4839157,18.7766154 L13.577,18.823 L13.4229813,19.0294479 L13.3117994,19.5112365 L13.2799399,19.5271662 L13.266,19.55 L13.0726457,19.2600557 L13.0726457,18.6847665 L12.569325,18.7686533 L12.3899528,18.544438 L12.163,18.582 L12.2049534,18.396955 L11.8344502,17.8782506 L11.3772325,17.5734388 L10.7961299,17.6564534 L10.7023092,17.5626328 L10.0480023,17.6716839 L9.85875107,17.9871026 L9.8270434,18.0108834 L9.41880116,18.0619136 L8.94452526,18.6224215 L8.67687326,18.6224215 L8.26529849,18.8282089 L7.83318386,19.2603235 L7.833,19.379 L7.578,19.416 L7.5005384,19.3384404 L7.276,19.517 L7.25352898,19.4950184 L6.97610043,19.5346511 L6.81069492,19.3141104 L6.588,19.388 L6.44601722,19.2934357 L5.96334061,19.4744395 L5.765,19.474 L5.54395046,19.3081871 L4.95402502,18.6592691 L4.54095872,18.777288 L4.07585725,18.5705763 L3.63416043,18.8466368 L3.119,18.846 L2.987,18.671 L2.99112457,18.6592504 L2.85891694,17.6015894 L2.82,17.588 L2.8283133,17.5482655 L2.808,17.518 L2.98198612,17.4315569 L2.579,17.129 L2.579,17.097 L2.75874439,17.1336615 L2.75874439,16.4004172 L2.705,16.311 L2.78144053,16.2106951 L2.727,15.889 L2.68385648,15.1366755 L2.70218115,15.1275132 L2.739,14.978 L2.7777338,14.9879099 L3.3024439,14.3421129 L3.46767314,14.4412504 L3.634,14.308 L3.76231718,14.7342939 L3.92473486,14.8561072 L3.97797319,15.1222988 L4.63803835,15.4523314 L5.01830672,14.9199557 L5.69175665,14.4709891 L5.62092062,13.6209566 L5.426,13.232 L6.59817375,12.8972456 L5.36380052,12.4034963 L5.22511211,12.2648078 L5.22511211,12.1717258 L5.26622577,12.1223894 L5.83769248,12.0080961 L5.90233958,11.6848606 L6.07713004,11.5683336 L6.077,11.384 L6.25650224,11.2060442 L6.25650224,10.9818289 L6.267,10.97 L6.32024037,11.1813248 L6.75336323,11.3978862 L6.946,11.3 L6.98898939,11.4060087 L7.76316248,11.6640664 L7.77,11.65 L7.78364805,11.6701249 L7.68861959,11.9076961 L8.0497224,12.3891665 L8.195,12.418 L8.25997733,12.6098655 L8.15360008,12.9289972 L9.01960903,13.4238595 L9.179,13.583 L9.199,13.764 L8.96482381,13.8820337 L8.57769303,13.7529901 L8.26057832,15.0214489 L8.736,15.259 L8.66476059,15.4762332 L9.568,15.476 L10.2664405,15.7553266 L10.711189,15.4217652 L10.918467,14.9381166 L10.9997661,14.9381166 L11.4722895,14.4655932 L11.287,14.157 L12.2716786,13.1729306 L11.978,13.026 L12.1257848,12.0685936 L12.097,12.054 L12.1413859,11.9370592 L12.078,11.495 L12.7139013,11.2838194 L12.7139013,10.0923116 L12.8058637,9.96356424 L13.2503008,9.74134569 L13.1416621,9.08951305 L12.818,8.636 L12.9566088,8.31399207 L12.649,8.138 L12.7883353,8.03430907 L12.229,7.475 L12.3334926,7.11391001 L11.4373563,7.00189297 L11.368,7.018 L11.3686099,6.91599402 L11.068871,6.51634216 L11.057,6.513 L11.1076332,6.45083825 L11.2242493,6.37309417 L11.765643,6.37309417 L11.8859688,6.19260549 L12.4259397,6.06799681 L12.7893289,5.7046077 L13.0971508,4.93505282 L13.024,4.862 L13.076,4.759 L13.2087657,4.79297732 L13.451,4.657 L13.4909207,4.68769723 L13.6098944,5.10410546 L13.5287769,5.67192831 L14.473,5.962 L14.8069607,6.54576119 L15.2628377,6.77369972 L15.45,6.586 L15.8711445,6.6709397 L16.2582088,6.36128826 L16.7916369,5.82786014 L16.76,5.765 L16.8491592,5.72549481 L17.1085202,5.46613386 L17.108,5.409 L17.2161335,5.37350883 L17.536,4.972 L17.8881414,5.14913183 L18.8656088,5.28877003 L18.89,5.238 L19.4183523,5.41460048 L19.701,5.018 L19.7828227,5.07926948 L20.4938023,4.81265211 L20.543,4.713 L21.2170404,4.71390135 Z" id="龙岗区-path" stroke="#548FF7" stroke-width="0.8" fill="#0F57EF" fill-rule="nonzero"></path>
        </g>
    </g>
</svg>