<?xml version="1.0" encoding="UTF-8"?>
<svg width="24px" height="24px" viewBox="0 0 24 24" version="1.1" xmlns="http://www.w3.org/2000/svg" xmlns:xlink="http://www.w3.org/1999/xlink">
    <title>luohu</title>
    <g id="图标" stroke="none" stroke-width="1" fill="none" fill-rule="evenodd">
        <g id="luohu">
            <rect id="矩形备份-7" x="0" y="0" width="24" height="24"></rect>
            <path d="M18.3074612,6.4 L18.9815457,7.0694928 L18.7739184,8.00381563 L19.705313,8.46951295 L20.4949767,8.84385472 L21.5037869,9.91397974 L21.4251931,10.9356998 L20.2017078,11.7100364 L19.3744573,12.3994118 L19.8598451,13.5643426 L19.5917623,14.0468917 L17.8369856,14.4855859 L17.2549711,13.9035714 L16.1782842,13.9035714 L15.0869476,14.0027838 L14.1807548,14.5464996 L13.472698,14.664509 L13.0349282,16.1529262 L11.7224581,16.2301303 L10.5272266,16.7817756 L9.68867585,16.9914133 L8.3241413,17.294531 L7.48127605,17.4149404 L7.39087346,12.261993 L5.54897381,12.7736317 L5.07525633,12.1420084 L4.05545954,12.0145338 L3.09670522,10.8879755 L2.65257731,10.6214988 L3.05211368,9.5191315 L3.44631808,8.80956358 L4.15288622,8.48839625 L5.02320134,8.83652229 L6.19387786,9.51147982 L7.0452381,10.15 L8.05467669,10.15 L8.72025197,9.90040927 L10.1004729,10.2454645 L10.9034014,10.1450984 L12.4279015,9.84019841 L13.1737489,8.62819626 L14.3900707,8.45357143 L14.7333098,7.7670934 L15.2961925,7.27457096 L16.0400251,7.18159189 L16.67113,6.46032917 L18.3074612,6.4 Z" id="罗湖区" stroke="#548FF7" stroke-width="0.8" fill="#0F57EF" fill-rule="nonzero"></path>
        </g>
    </g>
</svg>