<?xml version="1.0" encoding="UTF-8"?>
<svg width="22px" height="22px" viewBox="0 0 22 22" version="1.1" xmlns="http://www.w3.org/2000/svg" xmlns:xlink="http://www.w3.org/1999/xlink">
    <title>中间件安装</title>
    <g id="页面-1" stroke="none" stroke-width="1" fill="none" fill-rule="evenodd">
        <g id="Apple-TV备份-2" transform="translate(-169.000000, -744.000000)">
            <g id="中间件安装" transform="translate(169.000000, 744.000000)">
                <rect id="矩形" x="0" y="0" width="22" height="22"></rect>
                <g id="中间件安装备份" transform="translate(0.564821, 1.000000)">
                    <g id="中间件安装" transform="translate(0.223169, 0.000000)" fill="#FFFFFF" fill-rule="nonzero">
                        <path d="M8.59476696,0 L8.9957629,1.45299146 C9.10422908,1.48335414 9.21083901,1.51973788 9.31507448,1.56196581 L9.31507448,1.56196581 L10.6071725,0.835470083 L11.5131263,1.71452992 L10.7705412,3.00769231 C10.8225222,3.10940171 10.8670773,3.22564103 10.9116324,3.33461538 L10.9116324,3.33461538 L12.3076923,3.74145299 L12.3076923,4.99102564 L10.8893548,5.39786325 C10.8447997,5.5068376 10.8002446,5.61581196 10.7482637,5.71752136 L10.7482637,5.71752136 L11.1687436,6.45 L10.0101497,6.2410757 L9.77421484,6.2 L9.53828003,6.2410757 L4.55674359,7.153 L4.40658717,7.0034188 L5.14917224,5.71025641 C5.09719128,5.60854701 5.06006203,5.49957265 5.01550692,5.39059829 L5.01550692,5.39059829 L3.58974359,4.98376069 L3.58974359,3.74145299 L5.03035863,3.32735043 C5.06971306,3.21770957 5.11685851,3.11089618 5.17144979,3.00769231 L5.17144979,3.00769231 L4.42886472,1.71452992 L5.31254095,0.864529917 L6.60463897,1.59102564 C6.70950129,1.53633276 6.81878177,1.4901659 6.9313764,1.45299146 L6.9313764,1.45299146 L7.30266894,0 L8.59476696,0 Z M7.96356965,2.9059829 C7.14333283,2.9059829 6.47839951,3.55650934 6.47839951,4.35897436 C6.47839951,5.16143938 7.14333283,5.81196581 7.96356965,5.81196581 C8.78380647,5.81196581 9.44873979,5.16143938 9.44873979,4.35897436 C9.44873979,3.55650934 8.78380647,2.9059829 7.96356965,2.9059829 Z" id="形状结合"></path>
                        <path d="M9.77421484,6.91887588 L10.0101497,6.95995158 L17.3341476,8.28314018 C17.4228272,8.29963165 17.4987079,8.35661161 17.5392756,8.43717406 L19.3548717,12.4272777 C19.4470416,12.6026008 19.2932582,12.8169959 19.0881301,12.8069775 L17.6006387,12.6834999 L17.6006387,18.3764919 L10.3279854,19.9461347 C9.98633253,20.0179552 9.63347873,20.0179552 9.29182582,19.9461347 L2.30645198,18.4791812 C2.18133601,18.4512133 2.09204641,18.3406395 2.09105501,18.2124396 L1.96732698,13.5556072 C1.97065552,13.4098525 2.0793537,13.2880978 2.22379966,13.2683277 L8.15372835,12.7453639 C8.25774533,12.73877 8.34714855,12.6692341 8.37914377,12.5700408 L9.80502163,9.12343882 L9.80502163,18.6224452 L16.2466433,17.4019459 L16.2466433,12.5810611 L12.4513988,12.3451263 C12.1426276,12.3243158 11.8704758,12.1349844 11.7435944,11.8527188 L9.78448377,7.47264645 L7.80583718,11.9246013 C7.76656618,12.0165628 7.68000324,12.0795614 7.58042175,12.0886536 L0.593545152,12.7964581 C0.49478602,12.8076017 0.397763718,12.7642451 0.340184165,12.6832381 C0.282604611,12.602231 0.273548238,12.4963485 0.316534635,12.4067398 L2.17320641,8.42665467 C2.21214024,8.34903334 2.28352112,8.29269934 2.36806554,8.27287125 L9.53828003,6.95995158 L9.77421484,6.91887588 Z M15.4702311,0 L15.682523,0.769230771 C15.7399463,0.785305133 15.7963869,0.804567113 15.8515704,0.826923078 L15.8515704,0.826923078 L16.5356222,0.442307691 L17.0152448,0.907692309 L16.6221116,1.59230769 C16.6496309,1.64615385 16.6732189,1.70769231 16.6968069,1.76538462 L16.6968069,1.76538462 L17.4358974,1.98076923 L17.4358974,2.64230769 L16.6850129,2.85769231 C16.6614249,2.91538461 16.6378369,2.97307692 16.6103176,3.02692308 L16.6103176,3.02692308 L17.0034508,3.71153846 L16.5356222,4.17692308 L15.847639,3.79230769 C15.7934834,3.82125966 15.736935,3.84570477 15.6785917,3.86538462 L15.6785917,3.86538462 L15.4662997,4.61538462 L14.8058358,4.61538462 L14.5738872,3.86153846 C14.5188486,3.83846154 14.4638099,3.81923077 14.4048399,3.78846154 L14.4048399,3.78846154 L13.720788,4.17307692 L13.2529594,3.70769231 L13.6460927,3.02307692 C13.6185734,2.96923077 13.5989167,2.91153846 13.5753287,2.85384615 L13.5753287,2.85384615 L12.8205128,2.63846154 L12.8205128,1.98076923 L13.5831914,1.76153846 C13.6040261,1.7034933 13.6289854,1.64694504 13.6578867,1.59230769 L13.6578867,1.59230769 L13.2647534,0.907692309 L13.732582,0.457692309 L14.4166339,0.842307692 C14.4721493,0.813352639 14.5300036,0.78891136 14.5896125,0.769230771 L14.5896125,0.769230771 L14.7861792,0 L15.4702311,0 Z M15.1360678,1.53846154 C14.7018248,1.53846154 14.3498012,1.88285788 14.3498012,2.30769231 C14.3498012,2.73252673 14.7018248,3.07692308 15.1360678,3.07692308 C15.5703108,3.07692308 15.9223343,2.73252673 15.9223343,2.30769231 C15.9223343,1.88285788 15.5703108,1.53846154 15.1360678,1.53846154 Z" id="形状结合"></path>
                    </g>
                    <g id="中间件安装" transform="translate(13.043681, 0.000000)"></g>
                </g>
            </g>
        </g>
    </g>
</svg>