<?xml version="1.0" encoding="UTF-8"?>
<svg width="24px" height="24px" viewBox="0 0 24 24" version="1.1" xmlns="http://www.w3.org/2000/svg" xmlns:xlink="http://www.w3.org/1999/xlink">
    <title>nanshan</title>
    <g id="图标" stroke="none" stroke-width="1" fill="none" fill-rule="evenodd">
        <g id="nanshan">
            <rect id="矩形备份-2" x="0" y="0" width="24" height="24"></rect>
            <path d="M4.067,20.606 L4.08441805,20.6673267 L4.7669967,20.6673267 L5.33515512,21.5497193 L4.58257348,21.2509178 L3.904,20.769 L4.067,20.606 Z M17.0289109,3.58811881 L17.423301,3.75244801 L17.518195,3.91851254 L17.6238526,4.55245798 L18.0665499,4.46391851 L18.2238348,4.62120336 L18.33,4.594 L18.4068252,4.74768152 L18.6576137,5.04026812 L18.7047578,5.41742125 L19.0303822,5.87329532 L19.4679779,6.31089109 L19.6918943,6.31089109 L19.7287129,6.42134671 L19.7287129,6.81915077 L19.8774644,6.96790226 L19.779,7.312 L19.7051453,7.34257426 L18.9234235,7.34257426 L18.3920792,7.87391854 L18.3920792,8.51162458 L18.2171637,8.97806607 L18.3012456,9.2092914 L17.7339366,9.30384289 L17.912,9.9 L17.7378634,10.1621936 L17.7962714,10.8338858 L17.6990099,10.8014653 L17.699,11.154 L17.6876894,11.1544554 L17.545003,11.7252011 L17.574101,11.987083 L17.3524752,12.1200585 L17.3524752,12.7000657 L15.8251372,12.7424918 L15.1291671,13.2992679 L14.741,14.559 L14.2753251,15.4413172 L10.7442169,17.9366337 L10.4706648,17.9366337 L10.1330918,17.7678472 L9.38849174,16.8918471 L8.93282665,15.7071178 L8.70130709,14.2716965 L8.78846535,13.6180095 L9.0605066,12.6930693 L8.87355158,12.0574223 L11.5408019,10.7011933 L12.7564356,9.65922149 L12.7564356,8.96482977 L13.427004,8.38367053 L13.8350544,7.48595954 L13.509,7.206 L13.6475248,7.17940671 L13.6475248,6.53840174 L13.4300802,6.39343872 L13.354,6.184 L13.5406087,6.13854453 L13.5942328,5.87042412 L13.8932817,5.77074115 L13.6425664,4.95591637 L13.7734696,4.79228728 L13.858502,4.28209323 L13.7576357,4.02992761 L13.824,3.558 L13.8341212,3.54005397 L14.1954495,3.35938982 L14.2944594,2.86434031 L14.5386139,2.7422631 L14.538,2.561 L14.5906384,2.50970046 L15.6120078,2.4990099 L15.731,2.499 L15.7341013,2.51209447 L15.5621529,2.68404291 L15.7810032,3.34059406 L16.019,3.34 L16.0606573,3.42168242 L16.6758672,3.79080834 L16.877,3.588 L17.0289109,3.58811881 Z" id="南山区" stroke="#548FF7" stroke-width="0.8" fill="#0F57EF" fill-rule="nonzero"></path>
        </g>
    </g>
</svg>