<?xml version="1.0" encoding="UTF-8"?>
<svg width="22px" height="23px" viewBox="0 0 22 23" version="1.1" xmlns="http://www.w3.org/2000/svg" xmlns:xlink="http://www.w3.org/1999/xlink">
    <title>office-building</title>
    <defs>
        <linearGradient x1="-26.6809645%" y1="74.7994007%" x2="59.7611871%" y2="46.8439581%" id="linearGradient-1">
            <stop stop-color="#3E1D81" offset="0%"></stop>
            <stop stop-color="#3763DD" offset="100%"></stop>
        </linearGradient>
        <linearGradient x1="-0.00400341847%" y1="50%" x2="99.9989847%" y2="50%" id="linearGradient-2">
            <stop stop-color="#5F1DCE" offset="0%"></stop>
            <stop stop-color="#37A9DD" offset="100%"></stop>
        </linearGradient>
        <linearGradient x1="49.8973288%" y1="41.0720344%" x2="52.0657448%" y2="231.742621%" id="linearGradient-3">
            <stop stop-color="#3281FF" offset="0%"></stop>
            <stop stop-color="#241B96" offset="93%"></stop>
            <stop stop-color="#23138E" offset="100%"></stop>
        </linearGradient>
        <linearGradient x1="50.1603207%" y1="-7.69741943%" x2="49.739857%" y2="144.235242%" id="linearGradient-4">
            <stop stop-color="#3281FF" offset="0%"></stop>
            <stop stop-color="#241B96" offset="93%"></stop>
            <stop stop-color="#23138E" offset="100%"></stop>
        </linearGradient>
        <linearGradient x1="102.62872%" y1="67.4966581%" x2="424.788182%" y2="174.712881%" id="linearGradient-5">
            <stop stop-color="#00A7F6" offset="0%"></stop>
            <stop stop-color="#032D8F" offset="100%"></stop>
        </linearGradient>
        <linearGradient x1="50.0929192%" y1="41.6405434%" x2="46.5736027%" y2="356.165099%" id="linearGradient-6">
            <stop stop-color="#3281FF" offset="0%"></stop>
            <stop stop-color="#241B96" offset="93%"></stop>
            <stop stop-color="#23138E" offset="100%"></stop>
        </linearGradient>
        <linearGradient x1="50.29756%" y1="-21.4537223%" x2="49.40488%" y2="192.78169%" id="linearGradient-7">
            <stop stop-color="#3281FF" offset="0%"></stop>
            <stop stop-color="#241B96" offset="93%"></stop>
            <stop stop-color="#23138E" offset="100%"></stop>
        </linearGradient>
        <linearGradient x1="-5.19125683%" y1="40.0451081%" x2="452.04918%" y2="122.701353%" id="linearGradient-8">
            <stop stop-color="#00A7F6" offset="0%"></stop>
            <stop stop-color="#032D8F" offset="100%"></stop>
        </linearGradient>
        <linearGradient x1="49.9520827%" y1="47.5043029%" x2="59.6792876%" y2="591.092943%" id="linearGradient-9">
            <stop stop-color="#3281FF" offset="0%"></stop>
            <stop stop-color="#241B96" offset="93%"></stop>
            <stop stop-color="#23138E" offset="100%"></stop>
        </linearGradient>
        <linearGradient x1="48.2537441%" y1="-12.3563218%" x2="53.9824684%" y2="191.912972%" id="linearGradient-10">
            <stop stop-color="#3281FF" offset="0%"></stop>
            <stop stop-color="#241B96" offset="93%"></stop>
            <stop stop-color="#23138E" offset="100%"></stop>
        </linearGradient>
        <linearGradient x1="55.7634526%" y1="-22.6835138%" x2="44.0610107%" y2="203.459687%" id="linearGradient-11">
            <stop stop-color="#9B09FF" offset="0%"></stop>
            <stop stop-color="#2509B8" offset="100%"></stop>
        </linearGradient>
        <linearGradient x1="69.8640127%" y1="216.576414%" x2="33.8040195%" y2="-18.4115523%" id="linearGradient-12">
            <stop stop-color="#9B09FF" offset="0%"></stop>
            <stop stop-color="#2509B8" offset="100%"></stop>
        </linearGradient>
        <linearGradient x1="49.9872864%" y1="72.3567914%" x2="49.9113732%" y2="228.183318%" id="linearGradient-13">
            <stop stop-color="#00A7F6" offset="0%"></stop>
            <stop stop-color="#032D8F" offset="100%"></stop>
        </linearGradient>
        <linearGradient x1="49.9899955%" y1="69.2768659%" x2="49.9136646%" y2="225.120496%" id="linearGradient-14">
            <stop stop-color="#00A7F6" offset="0%"></stop>
            <stop stop-color="#032D8F" offset="100%"></stop>
        </linearGradient>
        <linearGradient x1="49.99148%" y1="66.2022533%" x2="49.9148004%" y2="222.009582%" id="linearGradient-15">
            <stop stop-color="#00A7F6" offset="0%"></stop>
            <stop stop-color="#032D8F" offset="100%"></stop>
        </linearGradient>
        <linearGradient x1="49.9940521%" y1="63.1322391%" x2="49.9194348%" y2="218.961678%" id="linearGradient-16">
            <stop stop-color="#00A7F6" offset="0%"></stop>
            <stop stop-color="#032D8F" offset="100%"></stop>
        </linearGradient>
        <linearGradient x1="49.9944434%" y1="60.0567797%" x2="49.9177562%" y2="215.885002%" id="linearGradient-17">
            <stop stop-color="#00A7F6" offset="0%"></stop>
            <stop stop-color="#032D8F" offset="100%"></stop>
        </linearGradient>
        <linearGradient x1="49.5855067%" y1="-0.38310099%" x2="50.7884191%" y2="146.004044%" id="linearGradient-18">
            <stop stop-color="#3281FF" offset="0%"></stop>
            <stop stop-color="#241B96" offset="93%"></stop>
            <stop stop-color="#23138E" offset="100%"></stop>
        </linearGradient>
        <linearGradient x1="57.4498229%" y1="-41.1758782%" x2="48.5950413%" y2="67.1688968%" id="linearGradient-19">
            <stop stop-color="#780206" offset="1%"></stop>
            <stop stop-color="#061161" offset="100%"></stop>
        </linearGradient>
        <linearGradient x1="50.5649718%" y1="68.1634809%" x2="46.0451977%" y2="-51.2630691%" id="linearGradient-20">
            <stop stop-color="#FFD54D" offset="0%"></stop>
            <stop stop-color="#FF5E61" offset="100%"></stop>
        </linearGradient>
        <linearGradient x1="46.5%" y1="0.603015075%" x2="55.5%" y2="154.874372%" id="linearGradient-21">
            <stop stop-color="#B24592" offset="0%"></stop>
            <stop stop-color="#F15F79" offset="100%"></stop>
        </linearGradient>
        <linearGradient x1="1.46252285%" y1="34.1821088%" x2="100.731261%" y2="66.6476823%" id="linearGradient-22">
            <stop stop-color="#B24592" offset="0%"></stop>
            <stop stop-color="#F15F79" offset="100%"></stop>
        </linearGradient>
        <linearGradient x1="50.5%" y1="-2.38993711%" x2="48.5%" y2="139.874214%" id="linearGradient-23">
            <stop stop-color="#B24592" offset="0%"></stop>
            <stop stop-color="#F15F79" offset="100%"></stop>
        </linearGradient>
        <linearGradient x1="5.08474576%" y1="34.5315674%" x2="166.949153%" y2="85.7805158%" id="linearGradient-24">
            <stop stop-color="#B24592" offset="0%"></stop>
            <stop stop-color="#F15F79" offset="100%"></stop>
        </linearGradient>
        <linearGradient x1="133.62069%" y1="120.28388%" x2="7.97413793%" y2="14.2386369%" id="linearGradient-25">
            <stop stop-color="#E94287" offset="0%"></stop>
            <stop stop-color="#FCA15A" offset="100%"></stop>
        </linearGradient>
        <filter x="-373.2%" y="-535.7%" width="846.4%" height="1171.5%" filterUnits="objectBoundingBox" id="filter-26">
            <feOffset dx="0" dy="2" in="SourceAlpha" result="shadowOffsetOuter1"></feOffset>
            <feGaussianBlur stdDeviation="2" in="shadowOffsetOuter1" result="shadowBlurOuter1"></feGaussianBlur>
            <feColorMatrix values="0 0 0 0 0   0 0 0 0 0   0 0 0 0 0  0 0 0 0.5 0" type="matrix" in="shadowBlurOuter1" result="shadowMatrixOuter1"></feColorMatrix>
            <feMerge>
                <feMergeNode in="shadowMatrixOuter1"></feMergeNode>
                <feMergeNode in="SourceGraphic"></feMergeNode>
            </feMerge>
        </filter>
        <filter x="-373.2%" y="-535.7%" width="846.4%" height="1171.5%" filterUnits="objectBoundingBox" id="filter-27">
            <feOffset dx="0" dy="2" in="SourceAlpha" result="shadowOffsetOuter1"></feOffset>
            <feGaussianBlur stdDeviation="2" in="shadowOffsetOuter1" result="shadowBlurOuter1"></feGaussianBlur>
            <feColorMatrix values="0 0 0 0 0   0 0 0 0 0   0 0 0 0 0  0 0 0 0.5 0" type="matrix" in="shadowBlurOuter1" result="shadowMatrixOuter1"></feColorMatrix>
            <feMerge>
                <feMergeNode in="shadowMatrixOuter1"></feMergeNode>
                <feMergeNode in="SourceGraphic"></feMergeNode>
            </feMerge>
        </filter>
        <linearGradient x1="45.4312553%" y1="48.4685405%" x2="362.019641%" y2="153.624673%" id="linearGradient-28">
            <stop stop-color="#00A7F6" offset="0%"></stop>
            <stop stop-color="#032D8F" offset="100%"></stop>
        </linearGradient>
        <linearGradient x1="-20.1284797%" y1="26.8065107%" x2="340.991129%" y2="146.289841%" id="linearGradient-29">
            <stop stop-color="#1CFBE9" offset="0%"></stop>
            <stop stop-color="#38FF9B" offset="100%"></stop>
        </linearGradient>
        <linearGradient x1="50.1570475%" y1="46.4119547%" x2="285.492737%" y2="108.803239%" id="linearGradient-30">
            <stop stop-color="#00A7F6" offset="0%"></stop>
            <stop stop-color="#032D8F" offset="100%"></stop>
        </linearGradient>
        <linearGradient x1="-40.0428266%" y1="20.2095035%" x2="321.046191%" y2="139.692834%" id="linearGradient-31">
            <stop stop-color="#1CFBE9" offset="0%"></stop>
            <stop stop-color="#38FF9B" offset="100%"></stop>
        </linearGradient>
        <linearGradient x1="35.7872006%" y1="42.6053234%" x2="271.12289%" y2="104.96471%" id="linearGradient-32">
            <stop stop-color="#00A7F6" offset="0%"></stop>
            <stop stop-color="#032D8F" offset="100%"></stop>
        </linearGradient>
        <linearGradient x1="-59.9877638%" y1="13.6124963%" x2="301.131845%" y2="133.095827%" id="linearGradient-33">
            <stop stop-color="#1CFBE9" offset="0%"></stop>
            <stop stop-color="#38FF9B" offset="100%"></stop>
        </linearGradient>
        <linearGradient x1="21.4173537%" y1="38.7930908%" x2="256.733412%" y2="101.152478%" id="linearGradient-34">
            <stop stop-color="#00A7F6" offset="0%"></stop>
            <stop stop-color="#032D8F" offset="100%"></stop>
        </linearGradient>
        <linearGradient x1="-79.9327011%" y1="6.98475374%" x2="281.186907%" y2="126.527234%" id="linearGradient-35">
            <stop stop-color="#1CFBE9" offset="0%"></stop>
            <stop stop-color="#38FF9B" offset="100%"></stop>
        </linearGradient>
        <linearGradient x1="7.04750687%" y1="34.9883922%" x2="242.363565%" y2="97.3477789%" id="linearGradient-36">
            <stop stop-color="#00A7F6" offset="0%"></stop>
            <stop stop-color="#032D8F" offset="100%"></stop>
        </linearGradient>
        <linearGradient x1="100.103704%" y1="-148.909546%" x2="12.1727286%" y2="200.214516%" id="linearGradient-37">
            <stop stop-color="#3281FF" offset="0%"></stop>
            <stop stop-color="#241B96" offset="93%"></stop>
            <stop stop-color="#23138E" offset="100%"></stop>
        </linearGradient>
        <linearGradient x1="99.4490331%" y1="-106.20155%" x2="3.59214951%" y2="196.589147%" id="linearGradient-38">
            <stop stop-color="#3281FF" offset="0%"></stop>
            <stop stop-color="#241B96" offset="93%"></stop>
            <stop stop-color="#23138E" offset="100%"></stop>
        </linearGradient>
        <linearGradient x1="93.9339608%" y1="-108.372093%" x2="-2.97387041%" y2="241.001789%" id="linearGradient-39">
            <stop stop-color="#3281FF" offset="0%"></stop>
            <stop stop-color="#241B96" offset="93%"></stop>
            <stop stop-color="#23138E" offset="100%"></stop>
        </linearGradient>
        <linearGradient x1="9.78229034%" y1="40.7577203%" x2="217.787757%" y2="82.7001477%" id="linearGradient-40">
            <stop stop-color="#00A7F6" offset="0%"></stop>
            <stop stop-color="#032D8F" offset="100%"></stop>
        </linearGradient>
        <linearGradient x1="61.6540012%" y1="-100.641026%" x2="41.6929435%" y2="157.422402%" id="linearGradient-41">
            <stop stop-color="#3281FF" offset="0%"></stop>
            <stop stop-color="#241B96" offset="93%"></stop>
            <stop stop-color="#23138E" offset="100%"></stop>
        </linearGradient>
        <linearGradient x1="49.4799246%" y1="4.11671568%" x2="51.6450808%" y2="194.820176%" id="linearGradient-42">
            <stop stop-color="#3281FF" offset="0%"></stop>
            <stop stop-color="#241B96" offset="93%"></stop>
            <stop stop-color="#23138E" offset="100%"></stop>
        </linearGradient>
        <linearGradient x1="49.4494647%" y1="-34.8654336%" x2="50.3841647%" y2="109.547015%" id="linearGradient-43">
            <stop stop-color="#3281FF" offset="0%"></stop>
            <stop stop-color="#241B96" offset="93%"></stop>
            <stop stop-color="#23138E" offset="100%"></stop>
        </linearGradient>
        <linearGradient x1="-11.1883554%" y1="29.617424%" x2="310.971106%" y2="136.833646%" id="linearGradient-44">
            <stop stop-color="#00A7F6" offset="0%"></stop>
            <stop stop-color="#032D8F" offset="100%"></stop>
        </linearGradient>
        <linearGradient x1="49.8373913%" y1="31.9749216%" x2="52.3578259%" y2="322.439916%" id="linearGradient-45">
            <stop stop-color="#3281FF" offset="0%"></stop>
            <stop stop-color="#241B96" offset="93%"></stop>
            <stop stop-color="#23138E" offset="100%"></stop>
        </linearGradient>
        <linearGradient x1="49.5288633%" y1="-26.6851107%" x2="50.6447134%" y2="155.910463%" id="linearGradient-46">
            <stop stop-color="#3281FF" offset="0%"></stop>
            <stop stop-color="#241B96" offset="93%"></stop>
            <stop stop-color="#23138E" offset="100%"></stop>
        </linearGradient>
        <linearGradient x1="5.49180328%" y1="48.5307302%" x2="248.688525%" y2="56.6234995%" id="linearGradient-47">
            <stop stop-color="#00A7F6" offset="0%"></stop>
            <stop stop-color="#032D8F" offset="100%"></stop>
        </linearGradient>
        <linearGradient x1="50.9351913%" y1="18.3383556%" x2="37.9624093%" y2="466.681016%" id="linearGradient-48">
            <stop stop-color="#3281FF" offset="0%"></stop>
            <stop stop-color="#241B96" offset="93%"></stop>
            <stop stop-color="#23138E" offset="100%"></stop>
        </linearGradient>
        <linearGradient x1="50.4017461%" y1="-28.2430213%" x2="49.246726%" y2="199.137931%" id="linearGradient-49">
            <stop stop-color="#3281FF" offset="0%"></stop>
            <stop stop-color="#241B96" offset="93%"></stop>
            <stop stop-color="#23138E" offset="100%"></stop>
        </linearGradient>
        <linearGradient x1="59.5682894%" y1="-29.3922984%" x2="41.3100725%" y2="196.179302%" id="linearGradient-50">
            <stop stop-color="#9B09FF" offset="0%"></stop>
            <stop stop-color="#2509B8" offset="100%"></stop>
        </linearGradient>
        <linearGradient x1="71.7384851%" y1="223.22503%" x2="31.8216638%" y2="-26.6847172%" id="linearGradient-51">
            <stop stop-color="#9B09FF" offset="0%"></stop>
            <stop stop-color="#2509B8" offset="100%"></stop>
        </linearGradient>
        <linearGradient x1="50.0088929%" y1="30.7913511%" x2="49.9321915%" y2="186.634981%" id="linearGradient-52">
            <stop stop-color="#00A7F6" offset="0%"></stop>
            <stop stop-color="#032D8F" offset="100%"></stop>
        </linearGradient>
        <linearGradient x1="50.0110036%" y1="27.7379418%" x2="49.9363227%" y2="183.633749%" id="linearGradient-53">
            <stop stop-color="#00A7F6" offset="0%"></stop>
            <stop stop-color="#032D8F" offset="100%"></stop>
        </linearGradient>
        <linearGradient x1="50.0124342%" y1="24.6541742%" x2="49.9378307%" y2="180.482396%" id="linearGradient-54">
            <stop stop-color="#00A7F6" offset="0%"></stop>
            <stop stop-color="#032D8F" offset="100%"></stop>
        </linearGradient>
        <linearGradient x1="50.0138192%" y1="21.582972%" x2="49.9375374%" y2="177.409498%" id="linearGradient-55">
            <stop stop-color="#00A7F6" offset="0%"></stop>
            <stop stop-color="#032D8F" offset="100%"></stop>
        </linearGradient>
        <linearGradient x1="50.0149247%" y1="18.5036208%" x2="49.938643%" y2="174.330147%" id="linearGradient-56">
            <stop stop-color="#00A7F6" offset="0%"></stop>
            <stop stop-color="#032D8F" offset="100%"></stop>
        </linearGradient>
    </defs>
    <g id="图标" stroke="none" stroke-width="1" fill="none" fill-rule="evenodd">
        <g id="office-building" transform="translate(4.438424, 0.283337)" fill-rule="nonzero">
            <g id="_编组_3" transform="translate(0.000000, 10.838401)">
                <g id="_编组_4" transform="translate(0.000000, -0.000000)">
                    <path d="M6.22676944e-16,4.33016641 L6.22676944e-16,4.33016641 L6.22676944e-16,4.00942601 L0.0876339891,3.94895856 L0.16387556,4.03659255 L6.31753427,0.490921349 C6.62554989,0.313088451 7.00504077,0.313088451 7.31305639,0.490921349 L14.9372134,4.89190028 L15.0651591,4.77622342 L15.1186158,4.83406185 L15.1186158,5.2021246 L15.1186158,5.2021246 C15.115898,5.3178093 15.0526958,5.42358981 14.9521112,5.48080069 L8.79757616,9.02822457 C8.48956055,9.20605746 8.11006966,9.20605746 7.80205405,9.02822457 L0.168257259,4.61935857 C0.0645732551,4.56033321 0.00038851225,4.45034998 6.22676944e-16,4.33104275 L6.22676944e-16,4.33104275 L6.22676944e-16,4.33016641 Z" id="_路径_" fill="url(#linearGradient-1)"></path>
                    <path d="M8.80108152,8.67067789 L14.9556166,5.12325401 C15.059303,5.06325516 15.123151,4.95254187 15.123151,4.83274734 C15.123151,4.71295281 15.059303,4.60223952 14.9556166,4.54224066 L7.31919077,0.133374674 C7.01117515,-0.0444582245 6.63168427,-0.0444582245 6.32366865,0.133374674 L0.168257259,3.68079855 C0.064528941,3.74055698 0.000605418785,3.85115643 0.000605418785,3.97086706 C0.000605418785,4.09057768 0.064528941,4.20117713 0.168257259,4.26093556 L7.80555941,8.67067789 C8.11357502,8.84851079 8.49306591,8.84851079 8.80108152,8.67067789 L8.80108152,8.67067789 Z" id="_路径_2" fill="url(#linearGradient-2)"></path>
                </g>
            </g>
            <g id="_编组_5" transform="translate(2.780626, 0.000000)">
                <g id="_编组_6" transform="translate(0.186660, 0.000000)">
                    <g id="_编组_7" transform="translate(0.000000, 4.958331)">
                        <g id="_编组_8" transform="translate(0.000000, -0.000000)">
                            <g id="_编组_9" transform="translate(0.000000, 1.240021)" fill="url(#linearGradient-3)">
                                <polygon id="_路径_3" points="1.87449103 1.07965075 1.87624371 7.74947366 0.00175267978 6.67069925 0 1.24535389e-15"></polygon>
                            </g>
                            <g id="_编组_10" transform="translate(1.874491, 1.077022)" fill="url(#linearGradient-4)">
                                <polygon id="_路径_4" points="0 1.24264997 2.15930149 0 2.16105417 6.66105951 0.00175267978 7.91247287"></polygon>
                            </g>
                            <g id="_编组_11" transform="translate(0.000000, -0.000000)" fill="url(#linearGradient-5)">
                                <polygon id="_路径_5" points="0 1.24002095 2.15141443 0 4.03379252 1.07702173 1.87449103 2.31967169"></polygon>
                            </g>
                        </g>
                    </g>
                    <g id="_编组_13" transform="translate(0.413632, 2.679847)">
                        <g id="_编组_14" transform="translate(0.000000, 0.986759)" fill="url(#linearGradient-6)">
                            <polygon id="_路径_6" points="1.49065415 0.857936753 1.49153049 3.3546291 0.000876339891 2.49669235 0 0"></polygon>
                        </g>
                        <g id="_编组_15" transform="translate(1.490654, 0.857060)" fill="url(#linearGradient-7)">
                            <polygon id="_路径_7" points="0 0.987635057 1.71674985 0 1.71762619 2.48968163 0.000876339891 3.48432741"></polygon>
                        </g>
                        <g id="_编组_16" fill="url(#linearGradient-8)">
                            <polygon id="_路径_8" points="0 0.986758717 1.71061547 0 3.207404 0.857060413 1.49065415 1.84469547"></polygon>
                        </g>
                    </g>
                    <g id="_编组_17" transform="translate(0.798346, 1.509934)">
                        <g id="_编组_18" transform="translate(0.000000, 0.000000)">
                            <g id="_编组_19" transform="translate(0.000000, 0.750147)" fill="url(#linearGradient-9)">
                                <polygon id="_路径_9" points="1.13310748 0.652873219 1.13398382 2.03661391 0 1.38461703 0 6.22676944e-16"></polygon>
                            </g>
                            <g id="_编组_20" transform="translate(1.133107, 0.651997)" fill="url(#linearGradient-10)">
                                <polygon id="_路径_10" points="-6.22676944e-16 0.751023286 1.30574644 0 1.30662278 1.37848265 0.000876339891 2.13476397"></polygon>
                            </g>
                            <g id="_编组_21" transform="translate(0.000000, 0.000000)" fill="#BCBCBC">
                                <polygon id="_路径_11" points="0 0.750146947 1.3004884 3.11338472e-16 2.43885392 0.651996879 1.13310748 1.40302017"></polygon>
                            </g>
                        </g>
                    </g>
                    <polygon id="_路径_12" fill="url(#linearGradient-11)" points="1.93145312 2.9129538 0.798345641 2.26008058 1.93145312 0"></polygon>
                    <polygon id="_路径_13" fill="url(#linearGradient-12)" points="1.93145312 2.9129538 3.23719956 2.16193051 1.93145312 0"></polygon>
                    <path d="M0.327751119,12.7691486 L0.170886279,12.6815146 L0.170886279,6.64265637 C0.170905223,6.6253127 0.180077317,6.60926702 0.195012531,6.60044985 C0.209947745,6.59163267 0.228427827,6.59135358 0.24362249,6.59971572 L0.24362249,6.59971572 C0.296819943,6.62853399 0.330324934,6.68381722 0.331256479,6.7443118 L0.327751119,12.7691486 Z" id="_路径_14" fill="url(#linearGradient-13)"></path>
                    <path d="M0.665141977,12.9654487 L0.507400797,12.8778147 L0.507400797,6.83895651 C0.5077648,6.82156702 0.517148219,6.80561892 0.532172181,6.79685494 C0.547196143,6.78809096 0.565697213,6.78777311 0.581013348,6.79601585 L0.581013348,6.79601585 C0.634210801,6.82483412 0.667715792,6.88011736 0.668647337,6.94061194 L0.665141977,12.9654487 Z" id="_路径_15" fill="url(#linearGradient-14)"></path>
                    <path d="M1.00428551,13.1626252 L0.847420674,13.0749912 L0.847420674,7.03525664 C0.847784678,7.01786716 0.857168097,7.00191905 0.872192058,6.99315507 C0.88721602,6.9843911 0.90571709,6.98407325 0.921033225,6.99231599 L0.921033225,6.99231599 C0.974363954,7.02099416 1.00792154,7.07636417 1.00866721,7.13691207 L1.00428551,13.1626252 Z" id="_路径_16" fill="url(#linearGradient-15)"></path>
                    <path d="M1.34430587,13.358049 L1.18744055,13.270415 L1.18744055,7.23155678 C1.18780456,7.21416729 1.19718797,7.19821919 1.21221194,7.18945521 C1.2272359,7.18069123 1.24573697,7.18037339 1.2610531,7.18861612 L1.2610531,7.18861612 C1.31269342,7.21843045 1.34444814,7.27358339 1.34430587,7.33321221 L1.34430587,13.358049 Z" id="_路径_17" fill="url(#linearGradient-16)"></path>
                    <path d="M1.68432527,13.5543491 L1.52745843,13.4667151 L1.52745843,7.42785692 C1.52730196,7.41024549 1.536593,7.39389961 1.55180599,7.38502536 C1.56701898,7.37615112 1.58582084,7.37610948 1.60107298,7.38491626 L1.60107298,7.38491626 C1.65440371,7.41359443 1.6879613,7.46896445 1.68870697,7.52951234 L1.68432527,13.5543491 Z" id="_路径_18" fill="url(#linearGradient-17)"></path>
                </g>
                <g id="_编组_107" transform="translate(2.219374, 6.257067)">
                    <g id="_编组_108" transform="translate(0.000000, 0.790459)">
                        <polygon id="_路径_83" fill="url(#linearGradient-18)" points="2.98258007 1.56514305 2.98345641 8.23496595 0.253657646 6.66894657 0.253657646 0"></polygon>
                        <g id="_编组_175" transform="translate(0.000000, 1.702475)">
                            <g id="_编组_176" opacity="0.3" transform="translate(0.535548, 0.179195)" fill="url(#linearGradient-19)">
                                <g id="编组">
                                    <polygon id="路径" points="2.28240514 1.31165708 2.28158257 1.94421775 0.00575802954 0.642431581 0 0"></polygon>
                                </g>
                            </g>
                            <g id="_编组_178" transform="translate(0.450000, 0.179195)">
                                <g id="_编组_179" transform="translate(0.000000, 0.051822)" fill="url(#linearGradient-20)">
                                    <polygon id="_路径_159" points="2.21413136 1.80849277 0 0.537964474 0.000822575648 0 2.21495394 1.2705283"></polygon>
                                </g>
                                <g id="_编组_180" transform="translate(1.765296, 1.060726)" fill="url(#linearGradient-21)">
                                    <polygon id="_路径_160" points="0.44965837 0.26162473 0.55132872 0.199438011 0.55132872 0.745284906 0.44867128 0.800561989"></polygon>
                                </g>
                                <g id="_编组_181" transform="translate(0.000823, 0.000000)" fill="url(#linearGradient-22)">
                                    <polygon id="_路径_161" points="0.0847252918 0 2.29885666 1.2705283 2.21413136 1.32235056 0 0.0518222658"></polygon>
                                </g>
                            </g>
                            <polygon id="_路径_162" fill="#FFFFFF" opacity="0.1" points="1.38091335 0.761227976 0.53308014 0.278727151 0.52567696 0.625031499"></polygon>
                            <polygon id="_路径_163" fill="url(#linearGradient-23)" points="0.55 0.717982547 0.549019608 0.278727151 0.450980392 0.231017763 0.45 0.768982237"></polygon>
                            <polygon id="_路径_164" fill="url(#linearGradient-24)" points="0.45 0.768982237 0.533902716 0.717982547 2.66413136 1.9391563 2.66413136 2.03951053"></polygon>
                            <path d="M2.62135743,1.47686879 L0.45,0.231017763 L0.45,0.768982237 L2.66413136,2.04197826 L2.66413136,1.50401379 L2.62135743,1.47686879 Z M2.62135743,1.96218842 L0.493596509,0.742659816 L0.493596509,0.306694723 L2.62053485,1.52951363 L2.62135743,1.96218842 Z" id="_复合路径_20" fill="url(#linearGradient-25)"></path>
                        </g>
                        <g id="_编组_175" filter="url(#filter-26)" transform="translate(0.000000, 3.052475)">
                            <g id="_编组_176" opacity="0.3" transform="translate(0.535548, 0.179195)" fill="url(#linearGradient-19)">
                                <g id="编组">
                                    <polygon id="路径" points="2.28240514 1.31165708 2.28158257 1.94421775 0.00575802954 0.642431581 0 0"></polygon>
                                </g>
                            </g>
                            <g id="_编组_178" transform="translate(0.450000, 0.179195)">
                                <g id="_编组_179" transform="translate(0.000000, 0.051822)" fill="url(#linearGradient-20)">
                                    <polygon id="_路径_159" points="2.21413136 1.80849277 0 0.537964474 0.000822575648 0 2.21495394 1.2705283"></polygon>
                                </g>
                                <g id="_编组_180" transform="translate(1.765296, 1.060726)" fill="url(#linearGradient-21)">
                                    <polygon id="_路径_160" points="0.44965837 0.26162473 0.55132872 0.199438011 0.55132872 0.745284906 0.44867128 0.800561989"></polygon>
                                </g>
                                <g id="_编组_181" transform="translate(0.000823, 0.000000)" fill="url(#linearGradient-22)">
                                    <polygon id="_路径_161" points="0.0847252918 0 2.29885666 1.2705283 2.21413136 1.32235056 0 0.0518222658"></polygon>
                                </g>
                            </g>
                            <polygon id="_路径_162" fill="#FFFFFF" opacity="0.1" points="1.38091335 0.761227976 0.53308014 0.278727151 0.52567696 0.625031499"></polygon>
                            <polygon id="_路径_163" fill="url(#linearGradient-23)" points="0.55 0.717982547 0.549019608 0.278727151 0.450980392 0.231017763 0.45 0.768982237"></polygon>
                            <polygon id="_路径_164" fill="url(#linearGradient-24)" points="0.45 0.768982237 0.533902716 0.717982547 2.66413136 1.9391563 2.66413136 2.03951053"></polygon>
                            <path d="M2.62135743,1.47686879 L0.45,0.231017763 L0.45,0.768982237 L2.66413136,2.04197826 L2.66413136,1.50401379 L2.62135743,1.47686879 Z M2.62135743,1.96218842 L0.493596509,0.742659816 L0.493596509,0.306694723 L2.62053485,1.52951363 L2.62135743,1.96218842 Z" id="_复合路径_20" fill="url(#linearGradient-25)"></path>
                        </g>
                        <g id="_编组_175" filter="url(#filter-27)" transform="translate(0.000000, 4.352475)">
                            <g id="_编组_176" opacity="0.3" transform="translate(0.535548, 0.179195)" fill="url(#linearGradient-19)">
                                <g id="编组">
                                    <polygon id="路径" points="2.28240514 1.31165708 2.28158257 1.94421775 0.00575802954 0.642431581 0 0"></polygon>
                                </g>
                            </g>
                            <g id="_编组_178" transform="translate(0.450000, 0.179195)">
                                <g id="_编组_179" transform="translate(0.000000, 0.051822)" fill="url(#linearGradient-20)">
                                    <polygon id="_路径_159" points="2.21413136 1.80849277 0 0.537964474 0.000822575648 0 2.21495394 1.2705283"></polygon>
                                </g>
                                <g id="_编组_180" transform="translate(1.765296, 1.060726)" fill="url(#linearGradient-21)">
                                    <polygon id="_路径_160" points="0.44965837 0.26162473 0.55132872 0.199438011 0.55132872 0.745284906 0.44867128 0.800561989"></polygon>
                                </g>
                                <g id="_编组_181" transform="translate(0.000823, 0.000000)" fill="url(#linearGradient-22)">
                                    <polygon id="_路径_161" points="0.0847252918 0 2.29885666 1.2705283 2.21413136 1.32235056 0 0.0518222658"></polygon>
                                </g>
                            </g>
                            <polygon id="_路径_162" fill="#FFFFFF" opacity="0.1" points="1.38091335 0.761227976 0.53308014 0.278727151 0.52567696 0.625031499"></polygon>
                            <polygon id="_路径_163" fill="url(#linearGradient-23)" points="0.55 0.717982547 0.549019608 0.278727151 0.450980392 0.231017763 0.45 0.768982237"></polygon>
                            <polygon id="_路径_164" fill="url(#linearGradient-24)" points="0.45 0.768982237 0.533902716 0.717982547 2.66413136 1.9391563 2.66413136 2.03951053"></polygon>
                            <path d="M2.62135743,1.47686879 L0.45,0.231017763 L0.45,0.768982237 L2.66413136,2.04197826 L2.66413136,1.50401379 L2.62135743,1.47686879 Z M2.62135743,1.96218842 L0.493596509,0.742659816 L0.493596509,0.306694723 L2.62053485,1.52951363 L2.62135743,1.96218842 Z" id="_复合路径_20" fill="url(#linearGradient-25)"></path>
                        </g>
                        <g id="_编组_175" transform="translate(0.050000, 0.373279)">
                            <g id="_编组_176" opacity="0.3" transform="translate(0.535548, 0.179195)" fill="url(#linearGradient-19)">
                                <g id="编组">
                                    <polygon id="路径" points="2.28240514 1.31165708 2.28158257 1.94421775 0.00575802954 0.642431581 0 0"></polygon>
                                </g>
                            </g>
                            <g id="_编组_178" transform="translate(0.450000, 0.179195)">
                                <g id="_编组_179" transform="translate(0.000000, 0.051822)" fill="url(#linearGradient-20)">
                                    <polygon id="_路径_159" points="2.21413136 1.80849277 0 0.537964474 0.000822575648 0 2.21495394 1.2705283"></polygon>
                                </g>
                                <g id="_编组_180" transform="translate(1.765296, 1.060726)" fill="url(#linearGradient-21)">
                                    <polygon id="_路径_160" points="0.44965837 0.26162473 0.55132872 0.199438011 0.55132872 0.745284906 0.44867128 0.800561989"></polygon>
                                </g>
                                <g id="_编组_181" transform="translate(0.000823, 0.000000)" fill="url(#linearGradient-22)">
                                    <polygon id="_路径_161" points="0.0847252918 0 2.29885666 1.2705283 2.21413136 1.32235056 0 0.0518222658"></polygon>
                                </g>
                            </g>
                            <polygon id="_路径_162" fill="#FFFFFF" opacity="0.1" points="1.38091335 0.761227976 0.53308014 0.278727151 0.52567696 0.625031499"></polygon>
                            <polygon id="_路径_163" fill="url(#linearGradient-23)" points="0.55 0.717982547 0.549019608 0.278727151 0.450980392 0.231017763 0.45 0.768982237"></polygon>
                            <polygon id="_路径_164" fill="url(#linearGradient-24)" points="0.45 0.768982237 0.533902716 0.717982547 2.66413136 1.9391563 2.66413136 2.03951053"></polygon>
                            <path d="M2.62135743,1.47686879 L0.45,0.231017763 L0.45,0.768982237 L2.66413136,2.04197826 L2.66413136,1.50401379 L2.62135743,1.47686879 Z M2.62135743,1.96218842 L0.493596509,0.742659816 L0.493596509,0.306694723 L2.62053485,1.52951363 L2.62135743,1.96218842 Z" id="_复合路径_20" fill="url(#linearGradient-25)"></path>
                        </g>
                    </g>
                    <g id="_编组_109" transform="translate(2.982580, 1.564267)" fill="#898989">
                        <polygon id="_路径_84" points="0 0.791334921 1.37585363 0 1.37672997 6.66368853 0.000876339891 7.46115783"></polygon>
                    </g>
                    <g id="_编组_110" transform="translate(0.253658, 0.000000)" fill="url(#linearGradient-28)">
                        <polygon id="_路径_85" points="0 0.790458582 1.36971925 0 4.10477605 1.56426671 2.72892242 2.35560163"></polygon>
                    </g>
                </g>
                <g id="_编组_261" transform="translate(2.338075, 8.170993)">
                    <polygon id="_路径_206" fill="url(#linearGradient-29)" points="2.8647551 1.84469547 0 0.205939874 0 0.0744888907 2.8647551 1.71412083"></polygon>
                    <polygon id="_路径_207" fill="#BCBCBC" points="4.4640754 0.916651526 2.8647551 1.84469547 2.8647551 1.71412083 4.4640754 0.794840281"></polygon>
                    <polygon id="_路径_208" fill="url(#linearGradient-30)" points="2.8647551 1.71412083 0 0.0744888907 0.134956343 0 0.134956343 0.0622201323 2.8647551 1.6168471 4.34576952 0.775560803 4.34576952 0.72648577 4.4640754 0.794840281"></polygon>
                </g>
                <g id="_编组_262" transform="translate(2.338075, 9.544218)">
                    <polygon id="_路径_209" fill="url(#linearGradient-31)" points="2.8647551 1.84381913 0 0.205063534 0 0.0736125508 2.8647551 1.71324449"></polygon>
                    <polygon id="_路径_210" fill="#BCBCBC" points="4.4640754 0.915775186 2.8647551 1.84381913 2.8647551 1.71324449 4.4640754 0.793963941"></polygon>
                    <polygon id="_路径_211" fill="url(#linearGradient-32)" points="2.8647551 1.71324449 0 0.0736125508 0.134956343 0 0.134956343 0.0613437924 2.8647551 1.61597076 4.34576952 0.774684464 4.34576952 0.72560943 4.4640754 0.793963941"></polygon>
                </g>
                <g id="_编组_263" transform="translate(2.338075, 10.916566)">
                    <polygon id="_路径_212" fill="url(#linearGradient-33)" points="2.8647551 1.84381913 0 0.205063534 0 0.0736125508 2.8647551 1.71324449"></polygon>
                    <polygon id="_路径_213" fill="#BCBCBC" points="4.4640754 0.915775186 2.8647551 1.84381913 2.8647551 1.71324449 4.4640754 0.793963941"></polygon>
                    <polygon id="_路径_214" fill="url(#linearGradient-34)" points="2.8647551 1.71324449 0 0.0736125508 0.134956343 0 0.134956343 0.0613437924 2.8647551 1.61597076 4.34576952 0.774684464 4.34576952 0.72648577 4.4640754 0.793963941"></polygon>
                </g>
                <g id="_编组_264" transform="translate(2.338075, 12.288914)">
                    <polygon id="_路径_215" fill="url(#linearGradient-35)" points="2.8647551 1.84469547 0 0.205063534 0 0.0736125508 2.8647551 1.71324449"></polygon>
                    <polygon id="_路径_216" fill="#BCBCBC" points="4.4640754 0.916651526 2.8647551 1.84469547 2.8647551 1.71324449 4.4640754 0.794840281"></polygon>
                    <polygon id="_路径_217" fill="url(#linearGradient-36)" points="2.8647551 1.71324449 0 0.0736125508 0.134956343 0 0.134956343 0.0613437924 2.8647551 1.61597076 4.34576952 0.774684464 4.34576952 0.72648577 4.4640754 0.794840281"></polygon>
                </g>
                <polygon id="_路径_218" fill="url(#linearGradient-37)" points="6.65492513 17.9737312 4.7804341 16.8940804 4.7804341 15.5226085 6.65492513 16.6022592"></polygon>
                <polygon id="_路径_219" fill="url(#linearGradient-38)" points="2.0629041 15.325432 2.0629041 14.0678843 4.77955776 15.6356563 4.7804341 16.8940804"></polygon>
                <polygon id="_路径_220" fill="url(#linearGradient-39)" points="2.0629041 15.325432 0 14.1309807 0 12.876062 2.0629041 14.0678843"></polygon>
                <polygon id="_路径_221" fill="url(#linearGradient-40)" points="5.20282993 15.2824914 4.7804341 15.5217321 6.65492513 16.6013829 8.81510296 15.3499695 8.81510296 15.2833677 8.9763495 15.3762597 6.65492513 16.7179361 0 12.876062 0.188413077 12.7691486 0.188413077 12.8690513 2.0629041 13.9539601 2.47303117 13.716472"></polygon>
                <polygon id="_路径_222" fill="url(#linearGradient-41)" points="6.65580147 17.9737312 8.9763495 16.6215387 8.9763495 15.3762597 6.65492513 16.7179361"></polygon>
                <g id="_编组_277" transform="translate(4.779558, 2.653557)">
                    <g id="_编组_279" transform="translate(0.000000, 4.958331)">
                        <g id="_编组_280" transform="translate(0.000000, 1.240897)" fill="url(#linearGradient-42)">
                            <polygon id="_路径_233" points="1.87449103 1.07877441 1.87536737 7.74859732 0.000876339891 6.66982291 0 1.24535389e-15"></polygon>
                        </g>
                        <g id="_编组_281" transform="translate(1.874491, 1.077022)" fill="url(#linearGradient-43)">
                            <polygon id="_路径_234" points="0 1.24264997 2.15930149 -2.49070777e-15 2.16105417 6.66105951 0.000876339891 7.91247287"></polygon>
                        </g>
                        <g id="_编组_282" transform="translate(0.000000, -0.000000)" fill="url(#linearGradient-44)">
                            <polygon id="_路径_235" points="1.24535389e-15 1.24089729 2.15141443 0 4.03379252 1.07702173 1.87449103 2.31967169"></polygon>
                        </g>
                    </g>
                    <g id="_编组_284" transform="translate(0.413632, 2.679847)">
                        <g id="_编组_285" transform="translate(0.000000, 0.986759)" fill="url(#linearGradient-45)">
                            <polygon id="_路径_236" points="1.49065415 0.857936753 1.49153049 3.3546291 0.000876339891 2.49669235 0 0"></polygon>
                        </g>
                        <g id="_编组_286" transform="translate(1.490654, 0.857060)" fill="url(#linearGradient-46)">
                            <polygon id="_路径_237" points="0 0.987635057 1.71674985 0 1.71762619 2.48968163 0.000876339891 3.48432741"></polygon>
                        </g>
                        <g id="_编组_287" fill="url(#linearGradient-47)">
                            <polygon id="_路径_238" points="1.24535389e-15 0.986758717 1.70973913 1.24535389e-15 3.207404 0.857060413 1.49065415 1.84469547"></polygon>
                        </g>
                    </g>
                    <g id="_编组_289" transform="translate(0.797469, 1.510810)">
                        <g id="_编组_290" transform="translate(0.000000, 0.750147)" fill="url(#linearGradient-48)">
                            <polygon id="_路径_239" points="1.13398382 0.651996879 1.13398382 2.03573757 0.000876339891 1.38374069 0 1.24535389e-15"></polygon>
                        </g>
                        <g id="_编组_291" transform="translate(1.133984, 0.651121)" fill="url(#linearGradient-49)">
                            <polygon id="_路径_240" points="0 0.751023286 1.30574644 1.24535389e-15 1.30574644 1.37848265 0 2.13476397"></polygon>
                        </g>
                        <g id="_编组_292" transform="translate(0.000000, -0.000000)" fill="#BCBCBC">
                            <polygon id="_路径_241" points="0 0.750146947 1.3004884 0 2.43973026 0.651120539 1.13398382 1.40214383"></polygon>
                        </g>
                    </g>
                    <polygon id="_路径_242" fill="url(#linearGradient-50)" points="1.93145312 2.9129538 0.797469301 2.26095692 1.93145312 0"></polygon>
                    <polygon id="_路径_243" fill="url(#linearGradient-51)" points="1.93145312 2.9129538 3.23719956 2.16193051 1.93145312 0"></polygon>
                    <path d="M0.32424576,12.7691486 L0.167380919,12.6815146 L0.167380919,6.64265637 C0.167744923,6.62526689 0.177128341,6.60931878 0.192152303,6.6005548 C0.207176265,6.59179083 0.225677335,6.59147298 0.24099347,6.59971572 L0.24099347,6.59971572 C0.294462439,6.62868637 0.328011731,6.68437819 0.328627459,6.74518814 L0.32424576,12.7691486 Z" id="_路径_244" fill="url(#linearGradient-52)"></path>
                    <path d="M0.664266117,12.9628197 L0.507400797,12.8751857 L0.507400797,6.83895651 C0.5077648,6.82156702 0.517148219,6.80561892 0.532172181,6.79685494 C0.547196143,6.78809096 0.565697213,6.78777311 0.581013348,6.79601585 L0.581013348,6.79601585 C0.632653664,6.82583018 0.664408389,6.88098312 0.664266117,6.94061194 L0.664266117,12.9628197 Z" id="_路径_245" fill="url(#linearGradient-53)"></path>
                    <path d="M1.00428599,13.1617488 L0.847418679,13.0741148 L0.847418679,7.03525664 C0.847262201,7.01764522 0.856553243,7.00129933 0.871766234,6.99242509 C0.886979225,6.98355084 0.90578108,6.98350921 0.921033225,6.99231599 L0.921033225,6.99231599 C0.972673541,7.02213031 1.00442827,7.07728326 1.00428599,7.13691207 L1.00428599,13.1617488 Z" id="_路径_246" fill="url(#linearGradient-54)"></path>
                    <path d="M1.34342905,13.358049 L1.18656421,13.270415 L1.18656421,7.23155678 C1.18658316,7.21421311 1.19575525,7.19816743 1.21069046,7.18935025 C1.22562568,7.18053308 1.24410576,7.18025398 1.25930042,7.18861612 L1.25930042,7.18861612 C1.31276603,7.21715206 1.34637724,7.27261055 1.34693441,7.33321221 L1.34342905,13.358049 Z" id="_路径_247" fill="url(#linearGradient-55)"></path>
                    <path d="M1.68432527,13.5543491 L1.52746043,13.4667151 L1.52746043,7.42785692 C1.52747937,7.41051325 1.53665147,7.39446756 1.55158668,7.38565039 C1.5665219,7.37683321 1.58500198,7.37655412 1.60019664,7.38491626 L1.60019664,7.38491626 C1.65339409,7.41373453 1.68689909,7.46901777 1.68783063,7.52951234 L1.68432527,13.5543491 Z" id="_路径_248" fill="url(#linearGradient-56)"></path>
                </g>
            </g>
        </g>
    </g>
</svg>