<?xml version="1.0" encoding="UTF-8"?>
<svg width="58px" height="58px" viewBox="0 0 58 58" version="1.1" xmlns="http://www.w3.org/2000/svg" xmlns:xlink="http://www.w3.org/1999/xlink">
    <title>24AA6CA3-3533-482C-8E90-E29FE6694ED4</title>
    <g id="入口卡片" stroke="none" stroke-width="1" fill="none" fill-rule="evenodd">
        <g id="卡片项---功能入口卡片" transform="translate(-3705.000000, -631.000000)">
            <g id="功能入口卡片" transform="translate(176.000000, 381.000000)">
                <g id="宣传" transform="translate(2537.000000, 0.000000)">
                    <g id="通用样式" transform="translate(-0.000000, 173.000000)">
                        <g id="功能入口#1备份-2" transform="translate(960.000000, 41.000000)">
                            <g id="图标3-通用样式" transform="translate(32.000000, 36.000000)">
                                <rect id="蒙版" fill="#F1F1F1" opacity="0" x="0" y="0" width="58" height="58"></rect>
                                <g id="楼房" transform="translate(20.000000, 3.943609)">
                                    <polygon id="矩形备份-62" fill="#95B6D6" points="18 18.5902813 36 9.05639078 36 35.5225002 18 45.0563908"></polygon>
                                    <polygon id="矩形备份-61" fill="#E9EEF3" transform="translate(9.000000, 27.056391) scale(-1, 1) translate(-9.000000, -27.056391) " points="0 18.5902813 18 9.05639078 18 35.5225002 0 45.0563908"></polygon>
                                    <path d="M10,32.0563908 L12.5,33.3805422 L12.5,38.0563908 L10,36.7322393 L10,32.0563908 Z M6,30.0563908 L8.5,31.3805422 L8.5,36.0563908 L6,34.7322393 L6,30.0563908 Z M10,25.0563908 L12.5,26.3805422 L12.5,31.0563908 L10,29.7322393 L10,25.0563908 Z M6,23.0563908 L8.5,24.3805422 L8.5,29.0563908 L6,27.7322393 L6,23.0563908 Z M2,21.0563908 L4.5,22.3805422 L4.5,27.0563908 L2,25.7322393 L2,21.0563908 Z M10,18.0563908 L12.5,19.3805422 L12.5,24.0563908 L10,22.7322393 L10,18.0563908 Z M6,16.0563908 L8.5,17.3805422 L8.5,22.0563908 L6,20.7322393 L6,16.0563908 Z M2,14.0563908 L4.5,15.3805422 L4.5,20.0563908 L2,18.7322393 L2,14.0563908 Z" id="形状结合" fill="#B0C4D7"></path>
                                    <polygon id="矩形" fill="#BCD1E6" points="22 31.0563908 31 25.4912788 31 38.1664682 22 42.9535426"></polygon>
                                    <path d="M27,32.0563908 L29.5,33.3805422 L29.5,38.0563908 L27,36.7322393 L27,32.0563908 Z M23,30.0563908 L25.5,31.3805422 L25.5,36.0563908 L23,34.7322393 L23,30.0563908 Z M29,20.0563908 L31.5,21.3805422 L31.5,26.0563908 L29,24.7322393 L29,20.0563908 Z M25,18.0563908 L27.5,19.3805422 L27.5,24.0563908 L25,22.7322393 L25,18.0563908 Z M21,16.0563908 L23.5,17.3805422 L23.5,22.0563908 L21,20.7322393 L21,16.0563908 Z" id="形状结合备份-7" fill="#DEEFFF" transform="translate(26.250000, 27.056391) scale(-1, 1) translate(-26.250000, -27.056391) "></path>
                                    <polygon id="路径-21" fill="#CFDFF1" points="18 18.5902813 36 9.05639078 17.4774125 -3.07397444e-13 0.0432202729 9.05639078"></polygon>
                                    <path d="M19.0432203,30.3992527 L28.0822203,27.6006093 L31.8171802,25.6193138 L32.8212203,26.1336093 L35.2519034,25.3816093 L35.2519034,27.3816093 L35.2472203,27.3826093 L22.25,34.5563908 L19.0432203,32.3992527 L19.0432203,30.3992527 Z" id="形状结合" fill="#4E6F9B"></path>
                                    <polygon id="路径-21备份" fill="#E9F0F7" points="22.25 32.5563908 35.2519034 25.3816093 31.8171802 23.6193138 19.0432203 30.3992527"></polygon>
                                </g>
                                <g id="齿轮-小" transform="translate(0.000000, 20.712981)">
                                    <path d="M14.5005992,2.62090084 C14.8745493,2.81037626 15.1255226,3.18738404 15.1255226,3.56403186 L15.1255226,5.9394242 C15.6249594,6.44106955 16.125651,6.9458617 16.4996012,7.38518019 L18.4973484,7.14694046 C18.7470668,7.14792006 19.1235267,7.33866713 19.3719902,7.83995254 L21.8704291,13.4800141 C22.1188926,13.9812995 21.9959157,14.2931256 21.6219656,14.2291995 L19.6229635,14.4655479 L19.6229635,15.9671173 L21.6219656,18.2291995 C21.8704291,18.4806418 21.9959157,18.9183611 21.8704291,19.230171 L19.3732451,22.339019 C19.2477585,22.5252797 18.8712986,22.4600819 18.4986033,22.145693 L16.4996012,19.8823553 C16.125651,19.942723 15.6249594,20.0656772 15.1255226,19.9356577 L15.1255226,22.3110501 C15.1230129,22.6864263 14.8745493,22.8103763 14.4980894,22.6196292 L9.50246658,20.0884156 C9.12726154,19.8983044 8.87628827,19.5212966 8.87628827,19.1446488 L8.87628827,16.7717674 C8.37685147,16.2688666 7.87615982,15.7640744 7.50220965,15.3260114 L5.50446246,15.5629957 C5.25474406,15.5620161 4.87828416,15.371269 4.62982062,14.8712391 L2.13012692,9.22928622 C1.88040851,8.72862048 2.00464028,8.41617467 2.37859045,8.48010081 L4.37633764,8.24311659 L4.37633764,6.74280272 L2.38110016,4.48262794 C2.00589513,4.16696741 1.88040849,3.72799271 2.13138178,3.48102061 L4.62856576,0.370917119 C4.75405239,0.185911905 5.1305123,0.251109693 5.50446246,0.689172684 L7.50220965,2.95187458 C7.87615982,2.89150693 8.37685149,2.76855269 8.87628827,2.89857219 L8.87628827,0.397630563 C8.87628827,0.0222382171 9.12600668,-0.102331434 9.50246658,0.0884156355 L14.5005992,2.62090084 Z M11.9996506,7.60354755 C9.87641675,6.5277341 8.25136486,7.32895025 8.25136486,9.45575503 C8.25136486,11.5825598 9.87641675,14.0293035 12.0009054,15.1057528 L12.2036494,15.2034426 C14.2272903,16.1284184 15.7491912,15.3105689 15.7491912,13.2548008 C15.7491912,11.130507 14.1241393,8.67999682 11.9996506,7.60354755 Z" id="形状" fill="#68A0E9" fill-rule="nonzero"></path>
                                    <polygon id="路径-23" fill="#68A0E9" points="17.3389506 24.374157 19.3140725 22.4048323 19.3756382 21.2870187 17.5286161 22.4048323 16.7384502 23.797689"></polygon>
                                    <polygon id="路径-24" fill="#68A0E9" points="19.9146514 16.1672797 21.9146888 14.1655889 20.5560006 13.4364547 18.8518136 13.9468815 19.2026536 15.5184247"></polygon>
                                    <path d="M6.96886767,2.08549897 L8.98308086,0.0735189618 L10.7257099,2.39236792 C10.239951,4.28743209 9.9550402,5.21191225 9.87097765,5.16580839 C9.74488381,5.09665261 8.0562857,3.62475069 7.94804868,3.45588472 C7.87589066,3.3433074 7.54949699,2.88651215 6.96886767,2.08549897 Z" id="路径-25" fill="#68A0E9"></path>
                                    <polygon id="路径-26" fill="#68A0E9" points="2.68056862 2.31816969 4.64257908 0.347325057 5.34724422 1.94527617 3.43174899 3.0729295"></polygon>
                                    <path d="M0.076643497,10.5476427 L2.08442066,8.54803509 L3.71538156,9.92441327 C3.35803638,10.9349889 3.17936379,11.4402767 3.17936379,11.4402767 C3.17936379,11.4402767 2.32031099,11.3634818 0.602205388,11.209892 L0.076643497,10.5476427 Z" id="路径-27" fill="#68A0E9"></path>
                                    <polygon id="路径-28" fill="#68A0E9" points="13.0131642 24.6367862 14.9957986 22.6477351 13.4326025 21.5142645 12.7485886 21.7606605 12.6601753 23.608927"></polygon>
                                    <path d="M12.5005992,4.62090084 C12.8745493,4.81037626 13.1255226,5.18738404 13.1255226,5.56403186 L13.1255226,7.9394242 C13.6249594,8.44106955 14.125651,8.9458617 14.4996012,9.38518019 L16.4973484,9.14694046 C16.7470668,9.14792006 17.1235267,9.33866713 17.3719902,9.83995254 L19.8704291,15.4800141 C20.1188926,15.9812995 19.9959157,16.2931256 19.6219656,16.2291995 L17.6229635,16.4655479 L17.6229635,17.9671173 L19.6219656,20.2291995 C19.8704291,20.4806418 19.9959157,20.9183611 19.8704291,21.230171 L17.3732451,24.339019 C17.2477585,24.5252797 16.8712986,24.4600819 16.4986033,24.145693 L14.4996012,21.8823553 C14.125651,21.942723 13.6249594,22.0656772 13.1255226,21.9356577 L13.1255226,24.3110501 C13.1230129,24.6864263 12.8745493,24.8103763 12.4980894,24.6196292 L7.50246658,22.0884156 C7.12726154,21.8983044 6.87628827,21.5212966 6.87628827,21.1446488 L6.87628827,18.7717674 C6.37685147,18.2688666 5.87615982,17.7640744 5.50220965,17.3260114 L3.50446246,17.5629957 C3.25474406,17.5620161 2.87828416,17.371269 2.62982062,16.8712391 L0.130126916,11.2292862 C-0.119591486,10.7286205 0.00464028058,10.4161747 0.378590448,10.4801008 L2.37633764,10.2431166 L2.37633764,8.74280272 L0.381100164,6.48262794 C0.0058951273,6.16696741 -0.119591508,5.72799271 0.131381784,5.48102061 L2.62856576,2.37091712 C2.75405239,2.1859119 3.1305123,2.25110969 3.50446246,2.68917268 L5.50220965,4.95187458 C5.87615982,4.89150693 6.37685149,4.76855269 6.87628827,4.89857219 L6.87628827,2.39763056 C6.87628827,2.02223822 7.12600668,1.89766857 7.50246658,2.08841564 L12.5005992,4.62090084 Z M9.99965057,9.60354755 C7.87641675,8.5277341 6.25136486,9.32895025 6.25136486,11.455755 C6.25136486,13.5825598 7.87641675,16.0293035 10.0009054,17.1057528 L10.2036494,17.2034426 C12.2272903,18.1284184 13.7491912,17.3105689 13.7491912,15.2548008 C13.7491912,13.130507 12.1241393,10.6799968 9.99965057,9.60354755 Z" id="形状" fill="#115BD7" fill-rule="nonzero"></path>
                                </g>
                                <g id="齿轮-大" transform="translate(20.000000, 45.000000)">
                                    <path d="M7.90941772,1.3789643 C8.11339054,1.47865516 8.25028505,1.67701454 8.25028505,1.87518453 L8.25028505,3.12497667 C8.52270512,3.38891303 8.79580966,3.65450505 8.99978248,3.88564867 L10.0894628,3.7603009 C10.2256728,3.76081631 10.4310146,3.86117623 10.5665401,4.12492321 L11.929325,7.0923928 C12.0648505,7.35613979 11.9977722,7.52020441 11.7937994,7.48657023 L10.7034346,7.61092289 L10.7034346,8.40096062 L11.7937994,9.59113563 C11.929325,9.72342984 11.9977722,9.95373202 11.929325,10.1177881 L10.5672246,11.7534816 C10.4987773,11.8514811 10.2934356,11.8171778 10.0901472,11.6517648 L8.99978248,10.4609293 C8.79580966,10.4926912 8.52270511,10.5573825 8.25028505,10.4889739 L8.25028505,11.738766 C8.2489161,11.9362669 8.11339054,12.0014821 7.90804878,11.9011222 L5.18316359,10.5693461 C4.9785063,10.4693207 4.84161179,10.2709613 4.84161179,10.0727913 L4.84161179,8.82432034 C4.56919171,8.55972341 4.29608718,8.29413139 4.09211436,8.06364834 L3.00243407,8.18833554 C2.86622403,8.18782013 2.66088227,8.08746021 2.5253567,7.8243738 L1.16188741,4.85590911 C1.02567737,4.59248816 1.09344015,4.4280975 1.29741297,4.46173168 L2.38709326,4.33704449 L2.38709326,3.54766732 L1.29878191,2.35849591 C1.09412461,2.19241386 1.02567736,1.96145112 1.16257188,1.83150888 L2.52467223,0.195154833 C2.59311949,0.0978159404 2.79846125,0.132119193 3.00243407,0.362602246 L4.09211436,1.55310328 C4.29608718,1.52134136 4.56919172,1.45665005 4.84161179,1.52505868 L4.84161179,0.209209881 C4.84161179,0.0117004455 4.97782182,-0.0538407987 5.18316359,0.0465191218 L7.90941772,1.3789643 Z M6.54526395,4.00054077 C5.38713641,3.43451083 4.50074447,3.85606378 4.50074447,4.97506371 C4.50074447,6.09406366 5.38713641,7.38139667 6.54594842,7.94776114 L6.65653601,7.99915982 C7.76034018,8.48582781 8.5904679,8.0555234 8.5904679,6.97389875 C8.5904679,5.85621996 7.70407596,4.56690524 6.54526395,4.00054077 Z" id="形状" fill="#5684C7" fill-rule="nonzero"></path>
                                    <g id="补充图形" transform="translate(0.041806, 0.038681)" fill="#5684C7">
                                        <polygon id="路径-23" points="9.41580386 12.7855705 10.4931431 11.7494273 10.5267244 11.1612994 9.51925777 11.7494273 9.08825818 12.4822668"></polygon>
                                        <polygon id="路径-24" points="10.8207316 8.46759299 11.9116611 7.41442072 11.1705584 7.03079303 10.2410019 7.29934969 10.4323691 8.12620355"></polygon>
                                        <path d="M3.759395,1.05858588 L4.85805675,0 L5.80858167,1.22004232 C5.54362225,2.21711394 5.38821639,2.70352118 5.34236408,2.67926403 C5.27358563,2.64287832 4.35253211,1.86844985 4.29349373,1.77960248 C4.25413482,1.7203709 4.0761019,1.48003203 3.759395,1.05858588 Z" id="路径-25"></path>
                                        <polygon id="路径-26" points="1.4203228 1.18100356 2.49051032 0.144060708 2.87487312 0.984808861 1.83005754 1.57811391"></polygon>
                                        <path d="M0,5.51086959 L1.09515118,4.45879335 L1.98476622,5.18296282 C1.78985066,5.71466845 1.69239289,5.98052126 1.69239289,5.98052126 C1.69239289,5.98052126 1.22381863,5.94011628 0.286670122,5.85930633 L0,5.51086959 Z" id="路径-27"></path>
                                        <polygon id="路径-28" points="7.05628401 12.9237506 8.13772096 11.8772285 7.28506853 11.2808628 6.91197008 11.4105019 6.86374461 12.3829513"></polygon>
                                    </g>
                                    <path d="M6.81850863,2.431247 C7.02248145,2.53093786 7.15937596,2.72929724 7.15937596,2.92746723 L7.15937596,4.17725936 C7.43179603,4.44119572 7.70490057,4.70678775 7.90887339,4.93793137 L8.99855367,4.8125836 C9.13476371,4.81309901 9.34010548,4.91345893 9.47563104,5.17720591 L10.8384159,8.1446755 C10.9739414,8.40842248 10.9068631,8.57248711 10.7028903,8.53885293 L9.61252555,8.66320559 L9.61252555,9.45324332 L10.7028903,10.6434183 C10.8384159,10.7757125 10.9068631,11.0060147 10.8384159,11.1700708 L9.47631551,12.8057643 C9.40786826,12.9037638 9.20252649,12.8694605 8.99923815,12.7040475 L7.90887339,11.513212 C7.70490057,11.5449739 7.43179602,11.6096652 7.15937596,11.5412566 L7.15937596,12.7910487 C7.15800701,12.9885496 7.02248145,13.0537648 6.81713969,12.9534049 L4.0922545,11.6216288 C3.88759721,11.5216034 3.75070269,11.323244 3.75070269,11.125074 L3.75070269,9.87660304 C3.47828262,9.61200611 3.20517808,9.34641409 3.00120527,9.11593104 L1.91152498,9.24061824 C1.77531494,9.24010283 1.56997318,9.13974291 1.43444761,8.87665649 L0.0709783177,5.90819181 C-0.0652317195,5.64477086 0.00253106214,5.4803802 0.206503881,5.51401438 L1.29618417,5.38932719 L1.29618417,4.59995002 L0.207872817,3.41077861 C0.00321552398,3.24469656 -0.0652317315,3.01373381 0.0716627915,2.88379158 L1.43376314,1.24743753 C1.50221039,1.15009864 1.70755216,1.18440189 1.91152498,1.41488494 L3.00120527,2.60538597 C3.20517808,2.57362406 3.47828263,2.50893275 3.75070269,2.57734138 L3.75070269,1.26149258 C3.75070269,1.06398314 3.88691273,0.9984419 4.0922545,1.09880182 L6.81850863,2.431247 Z M5.45435486,5.05282347 C4.29622732,4.48679353 3.40983538,4.90834648 3.40983538,6.02734641 C3.40983538,7.14634636 4.29622732,8.43367937 5.45503933,9.00004384 L5.56562692,9.05144252 C6.66943109,9.53811051 7.49955881,9.1078061 7.49955881,8.02618145 C7.49955881,6.90850265 6.61316687,5.61918794 5.45435486,5.05282347 Z" id="形状" fill="#1A4895" fill-rule="nonzero"></path>
                                </g>
                                <polygon id="十字架投影" fill="#BEC9DA" opacity="0.799999952" points="38.0123106 16.2387499 42.0550052 14.1181438 34.084136 10.2208856 30.2849268 12.1360081"></polygon>
                                <g id="十字架" transform="translate(31.000000, 0.546364)">
                                    <polygon id="形状结合" fill="#DD4370" points="9 2.06181851 9 5.06081851 12 6.60818239 12 10.6081824 9 9.06181851 9 12.0618185 5 10 5 7 2 5.45363612 2 1.45363612 5 3 5 0"></polygon>
                                    <polygon id="路径-30" fill="#DD4370" points="10 11.6081824 12 10.6081824 12 6.60818239 10 7.60818239"></polygon>
                                    <polygon id="路径-30备份" fill="#DD4370" points="7 13.0618185 9 12.0618185 9 7.60818239 7 8.60818239"></polygon>
                                    <polygon id="路径-32" fill="#DD4370" points="0 2.45363612 2 1.45363612 2 5.36648175 0 6.45363612"></polygon>
                                    <polygon id="路径-31" fill="#DD4370" points="7 3.06181851 9 2.06181851 5 0 3 1"></polygon>
                                    <polygon id="形状结合" fill="#F06A98" points="7 3.06181851 7 6.06081851 10 7.60818239 10 11.6081824 7 10.0618185 7 13.0618185 3 11 3 8 0 6.45363612 0 2.45363612 3 4 3 1"></polygon>
                                </g>
                            </g>
                        </g>
                    </g>
                </g>
            </g>
        </g>
    </g>
</svg>