<?xml version="1.0" encoding="UTF-8"?>
<svg width="14px" height="14px" viewBox="0 0 14 14" version="1.1" xmlns="http://www.w3.org/2000/svg" xmlns:xlink="http://www.w3.org/1999/xlink">
    <title>普惠</title>
    <defs>
        <path d="M13,2.45 C13.5522847,2.45 14,2.89771525 14,3.45 L14,11.075 C14,11.6272847 13.5522847,12.075 13,12.075 L7.273,12.075 L4.53318505,13.8655047 C4.47898291,13.9009067 4.41869003,13.9252754 4.35574425,13.9375876 L4.25976562,13.9468858 C3.98362325,13.9468858 3.75976562,13.7230282 3.75976562,13.4468858 L3.759,12.075 L1,12.075 C0.44771525,12.075 -5.9849844e-16,11.6272847 0,11.075 L0,3.45 C-6.76353751e-17,2.89771525 0.44771525,2.45 1,2.45 L13,2.45 Z M8.75,7.87540476 L5.25,7.87540476 L5.25,8.3125 C5.25,9.27899831 6.03350169,10.0625 7,10.0625 C7.96649831,10.0625 8.75,9.27899831 8.75,8.3125 L8.75,7.87540476 Z M5.25,4.8125 C4.76675084,4.8125 4.375,5.20425084 4.375,5.6875 C4.375,6.17074916 4.76675084,6.5625 5.25,6.5625 C5.73324916,6.5625 6.125,6.17074916 6.125,5.6875 C6.125,5.20425084 5.73324916,4.8125 5.25,4.8125 Z M8.75,4.8125 C8.26675084,4.8125 7.875,5.20425084 7.875,5.6875 C7.875,6.17074916 8.26675084,6.5625 8.75,6.5625 C9.23324916,6.5625 9.625,6.17074916 9.625,5.6875 C9.625,5.20425084 9.23324916,4.8125 8.75,4.8125 Z" id="path-1"></path>
        <filter x="-14.3%" y="-17.3%" width="128.6%" height="134.6%" filterUnits="objectBoundingBox" id="filter-2">
            <feGaussianBlur stdDeviation="1.5" in="SourceAlpha" result="shadowBlurInner1"></feGaussianBlur>
            <feOffset dx="0" dy="1" in="shadowBlurInner1" result="shadowOffsetInner1"></feOffset>
            <feComposite in="shadowOffsetInner1" in2="SourceAlpha" operator="arithmetic" k2="-1" k3="1" result="shadowInnerInner1"></feComposite>
            <feColorMatrix values="0 0 0 0 1   0 0 0 0 1   0 0 0 0 1  0 0 0 0.5 0" type="matrix" in="shadowInnerInner1"></feColorMatrix>
        </filter>
        <rect id="path-3" x="0.875" y="0" width="12.25" height="1.4875" rx="0.74375"></rect>
        <filter x="-16.3%" y="-134.5%" width="132.7%" height="368.9%" filterUnits="objectBoundingBox" id="filter-4">
            <feGaussianBlur stdDeviation="1.5" in="SourceAlpha" result="shadowBlurInner1"></feGaussianBlur>
            <feOffset dx="0" dy="1" in="shadowBlurInner1" result="shadowOffsetInner1"></feOffset>
            <feComposite in="shadowOffsetInner1" in2="SourceAlpha" operator="arithmetic" k2="-1" k3="1" result="shadowInnerInner1"></feComposite>
            <feColorMatrix values="0 0 0 0 1   0 0 0 0 1   0 0 0 0 1  0 0 0 0.5 0" type="matrix" in="shadowInnerInner1"></feColorMatrix>
        </filter>
    </defs>
    <g id="页面-2" stroke="none" stroke-width="1" fill="none" fill-rule="evenodd">
        <g id="普惠">
            <rect id="矩形" fill="#D8D8D8" opacity="0" x="0" y="0" width="14" height="14"></rect>
            <g id="图形">
                <g id="形状结合">
                    <use fill="#DDE6FF" fill-rule="evenodd" xlink:href="#path-1"></use>
                    <use fill="black" fill-opacity="1" filter="url(#filter-2)" xlink:href="#path-1"></use>
                </g>
                <g id="矩形">
                    <use fill="#DDE6FF" fill-rule="evenodd" xlink:href="#path-3"></use>
                    <use fill="black" fill-opacity="1" filter="url(#filter-4)" xlink:href="#path-3"></use>
                </g>
            </g>
        </g>
    </g>
</svg>