<?xml version="1.0" encoding="UTF-8"?>
<svg width="20px" height="20px" viewBox="0 0 20 20" version="1.1" xmlns="http://www.w3.org/2000/svg" xmlns:xlink="http://www.w3.org/1999/xlink">
    <title>performing-arts-hall</title>
    <defs>
        <linearGradient x1="-26.6701991%" y1="74.7835343%" x2="59.7341811%" y2="46.8436922%" id="linearGradient-1">
            <stop stop-color="#3E1D81" offset="0%"></stop>
            <stop stop-color="#3763DD" offset="100%"></stop>
        </linearGradient>
        <linearGradient x1="0.00262266721%" y1="50.0029%" x2="99.9890752%" y2="50.0029%" id="linearGradient-2">
            <stop stop-color="#5F1DCE" offset="0%"></stop>
            <stop stop-color="#37A9DD" offset="100%"></stop>
        </linearGradient>
        <linearGradient x1="50.9767042%" y1="-8.01475282%" x2="48.5758894%" y2="134.442159%" id="linearGradient-3">
            <stop stop-color="#3281FF" offset="0%"></stop>
            <stop stop-color="#241B96" offset="93%"></stop>
            <stop stop-color="#23138E" offset="100%"></stop>
        </linearGradient>
        <linearGradient x1="50.0902694%" y1="34.9320029%" x2="49.1424404%" y2="194.664843%" id="linearGradient-4">
            <stop stop-color="#3281FF" offset="0%"></stop>
            <stop stop-color="#241B96" offset="93%"></stop>
            <stop stop-color="#23138E" offset="100%"></stop>
        </linearGradient>
        <linearGradient x1="-24.6786042%" y1="76.3206561%" x2="287.213039%" y2="-33.5845694%" id="linearGradient-5">
            <stop stop-color="#00A7F6" offset="0%"></stop>
            <stop stop-color="#032D8F" offset="100%"></stop>
        </linearGradient>
        <linearGradient x1="-56.6539924%" y1="8.17777223%" x2="233.014291%" y2="121.770263%" id="linearGradient-6">
            <stop stop-color="#00CCFF" offset="0%"></stop>
            <stop stop-color="#03C3E2" offset="100%"></stop>
        </linearGradient>
        <linearGradient x1="-316.001248%" y1="-65.3235678%" x2="306.955708%" y2="130.964604%" id="linearGradient-7">
            <stop stop-color="#9B09FF" offset="0%"></stop>
            <stop stop-color="#2509B8" offset="100%"></stop>
        </linearGradient>
        <linearGradient x1="-47.5786122%" y1="55.6032616%" x2="212.750431%" y2="40.1384251%" id="linearGradient-8">
            <stop stop-color="#00A7F6" offset="0%"></stop>
            <stop stop-color="#032D8F" offset="100%"></stop>
        </linearGradient>
        <linearGradient x1="374.624798%" y1="-71.571205%" x2="-58.854768%" y2="90.5570741%" id="linearGradient-9">
            <stop stop-color="#9B09FF" offset="0%"></stop>
            <stop stop-color="#2509B8" offset="100%"></stop>
        </linearGradient>
        <linearGradient x1="-47.5786122%" y1="55.6056513%" x2="212.750431%" y2="40.1342193%" id="linearGradient-10">
            <stop stop-color="#00A7F6" offset="0%"></stop>
            <stop stop-color="#032D8F" offset="100%"></stop>
        </linearGradient>
        <linearGradient x1="49.7341365%" y1="59.3658537%" x2="51.2967628%" y2="3.75609756%" id="linearGradient-11">
            <stop stop-color="#FFD54D" offset="0%"></stop>
            <stop stop-color="#FF5E61" offset="100%"></stop>
        </linearGradient>
        <linearGradient x1="-65.38165%" y1="-53.0516654%" x2="102.31303%" y2="96.4170391%" id="linearGradient-12">
            <stop stop-color="#5C258D" offset="1%"></stop>
            <stop stop-color="#4389A2" offset="100%"></stop>
        </linearGradient>
        <linearGradient x1="49.7253825%" y1="151.517939%" x2="50.3640278%" y2="-93.8362466%" id="linearGradient-13">
            <stop stop-color="#3281FF" offset="0%"></stop>
            <stop stop-color="#241B96" offset="93%"></stop>
            <stop stop-color="#23138E" offset="100%"></stop>
        </linearGradient>
        <linearGradient x1="128.40024%" y1="74.3435946%" x2="-107.24985%" y2="-6.71539592%" id="linearGradient-14">
            <stop stop-color="#1CFBE9" offset="0%"></stop>
            <stop stop-color="#38FF9B" offset="100%"></stop>
        </linearGradient>
        <linearGradient x1="66.6391357%" y1="160.903514%" x2="39.2387392%" y2="17.3452315%" id="linearGradient-15">
            <stop stop-color="#E94287" offset="0%"></stop>
            <stop stop-color="#FCA15A" offset="100%"></stop>
        </linearGradient>
        <linearGradient x1="49.9897718%" y1="4.1031653%" x2="50.0102282%" y2="103.634232%" id="linearGradient-16">
            <stop stop-color="#B24592" offset="0%"></stop>
            <stop stop-color="#F15F79" offset="100%"></stop>
        </linearGradient>
        <linearGradient x1="-0.407331976%" y1="35.2876135%" x2="141.955193%" y2="75.300546%" id="linearGradient-17">
            <stop stop-color="#B24592" offset="0%"></stop>
            <stop stop-color="#F15F79" offset="100%"></stop>
        </linearGradient>
        <linearGradient x1="49.7045891%" y1="151.517939%" x2="50.3915912%" y2="-93.8362466%" id="linearGradient-18">
            <stop stop-color="#3281FF" offset="0%"></stop>
            <stop stop-color="#241B96" offset="93%"></stop>
            <stop stop-color="#23138E" offset="100%"></stop>
        </linearGradient>
        <linearGradient x1="128.40024%" y1="71.6140062%" x2="-107.24985%" y2="-0.356035648%" id="linearGradient-19">
            <stop stop-color="#1CFBE9" offset="0%"></stop>
            <stop stop-color="#38FF9B" offset="100%"></stop>
        </linearGradient>
        <linearGradient x1="49.9900235%" y1="4.1031653%" x2="50.0099765%" y2="103.634232%" id="linearGradient-20">
            <stop stop-color="#B24592" offset="0%"></stop>
            <stop stop-color="#F15F79" offset="100%"></stop>
        </linearGradient>
        <linearGradient x1="-0.407331976%" y1="37.2231218%" x2="141.955193%" y2="71.9720979%" id="linearGradient-21">
            <stop stop-color="#B24592" offset="0%"></stop>
            <stop stop-color="#F15F79" offset="100%"></stop>
        </linearGradient>
        <linearGradient x1="49.3135822%" y1="59.3658537%" x2="53.3480376%" y2="3.75609756%" id="linearGradient-22">
            <stop stop-color="#FFD54D" offset="0%"></stop>
            <stop stop-color="#FF5E61" offset="100%"></stop>
        </linearGradient>
        <linearGradient x1="49.6514239%" y1="151.517939%" x2="50.462066%" y2="-93.8362466%" id="linearGradient-23">
            <stop stop-color="#3281FF" offset="0%"></stop>
            <stop stop-color="#241B96" offset="93%"></stop>
            <stop stop-color="#23138E" offset="100%"></stop>
        </linearGradient>
        <linearGradient x1="49.9929658%" y1="4.1031653%" x2="50.0070342%" y2="103.634232%" id="linearGradient-24">
            <stop stop-color="#B24592" offset="0%"></stop>
            <stop stop-color="#F15F79" offset="100%"></stop>
        </linearGradient>
        <linearGradient x1="-0.407331976%" y1="35.6888699%" x2="141.955193%" y2="74.6105149%" id="linearGradient-25">
            <stop stop-color="#B24592" offset="0%"></stop>
            <stop stop-color="#F15F79" offset="100%"></stop>
        </linearGradient>
        <linearGradient x1="85.5911462%" y1="160.903514%" x2="26.9816405%" y2="17.3452315%" id="linearGradient-26">
            <stop stop-color="#E94287" offset="0%"></stop>
            <stop stop-color="#FCA15A" offset="100%"></stop>
        </linearGradient>
        <linearGradient x1="49.9929597%" y1="4.1031653%" x2="50.0070403%" y2="103.634232%" id="linearGradient-27">
            <stop stop-color="#B24592" offset="0%"></stop>
            <stop stop-color="#F15F79" offset="100%"></stop>
        </linearGradient>
        <linearGradient x1="98.9249985%" y1="74.6275008%" x2="63.5586715%" y2="55.9141487%" id="linearGradient-28">
            <stop stop-color="#5C258D" offset="0%"></stop>
            <stop stop-color="#4AC9D8" offset="100%"></stop>
        </linearGradient>
        <linearGradient x1="-47.5786122%" y1="67.3934956%" x2="212.750431%" y2="19.3879615%" id="linearGradient-29">
            <stop stop-color="#00A7F6" offset="0%"></stop>
            <stop stop-color="#032D8F" offset="100%"></stop>
        </linearGradient>
        <linearGradient x1="55.0956558%" y1="155.061728%" x2="47.439039%" y2="-3.53909465%" id="linearGradient-30">
            <stop stop-color="#E94287" offset="0%"></stop>
            <stop stop-color="#FCA15A" offset="100%"></stop>
        </linearGradient>
        <linearGradient x1="49.9121396%" y1="0.703517588%" x2="50.1380664%" y2="154.974874%" id="linearGradient-31">
            <stop stop-color="#B24592" offset="0%"></stop>
            <stop stop-color="#F15F79" offset="100%"></stop>
        </linearGradient>
        <linearGradient x1="-12.57503%" y1="60.2651048%" x2="144.407763%" y2="34.5485471%" id="linearGradient-32">
            <stop stop-color="#00A7F6" offset="0%"></stop>
            <stop stop-color="#032D8F" offset="100%"></stop>
        </linearGradient>
        <linearGradient x1="1.46252285%" y1="34.7301124%" x2="100.731261%" y2="66.277801%" id="linearGradient-33">
            <stop stop-color="#B24592" offset="0%"></stop>
            <stop stop-color="#F15F79" offset="100%"></stop>
        </linearGradient>
        <linearGradient x1="50.0327011%" y1="94.0238197%" x2="50.0327011%" y2="-24.2662697%" id="linearGradient-34">
            <stop stop-color="#E94287" offset="0%"></stop>
            <stop stop-color="#FCA15A" offset="100%"></stop>
        </linearGradient>
        <linearGradient x1="-13.9728884%" y1="-24.6473029%" x2="125.755996%" y2="137.759336%" id="linearGradient-35">
            <stop stop-color="#FF105B" offset="0%"></stop>
            <stop stop-color="#7E0187" offset="100%"></stop>
        </linearGradient>
        <linearGradient x1="50%" y1="-12.386418%" x2="50%" y2="110.509326%" id="linearGradient-36">
            <stop stop-color="#FF105B" offset="0%"></stop>
            <stop stop-color="#7E0187" offset="100%"></stop>
        </linearGradient>
        <linearGradient x1="-316.001248%" y1="-48.2521282%" x2="306.955708%" y2="118.979349%" id="linearGradient-37">
            <stop stop-color="#9B09FF" offset="0%"></stop>
            <stop stop-color="#2509B8" offset="100%"></stop>
        </linearGradient>
        <linearGradient x1="374.624798%" y1="-214.650078%" x2="-58.854768%" y2="138.289269%" id="linearGradient-38">
            <stop stop-color="#9B09FF" offset="0%"></stop>
            <stop stop-color="#2509B8" offset="100%"></stop>
        </linearGradient>
        <linearGradient x1="-12.57503%" y1="63.2587967%" x2="144.407763%" y2="30.0423204%" id="linearGradient-39">
            <stop stop-color="#20B7FF" offset="0%"></stop>
            <stop stop-color="#2567FF" offset="100%"></stop>
        </linearGradient>
        <linearGradient x1="-1.43596987%" y1="36.9232217%" x2="94.9858757%" y2="59.9504705%" id="linearGradient-40">
            <stop stop-color="#E99C42" offset="0%"></stop>
            <stop stop-color="#FCC45A" offset="100%"></stop>
        </linearGradient>
        <linearGradient x1="-1.43596987%" y1="36.9394133%" x2="94.9858757%" y2="59.9381499%" id="linearGradient-41">
            <stop stop-color="#E99C42" offset="0%"></stop>
            <stop stop-color="#FCC45A" offset="100%"></stop>
        </linearGradient>
        <linearGradient x1="-1.43596987%" y1="36.9454844%" x2="94.9858757%" y2="59.9335302%" id="linearGradient-42">
            <stop stop-color="#E99C42" offset="0%"></stop>
            <stop stop-color="#FCC45A" offset="100%"></stop>
        </linearGradient>
        <linearGradient x1="-1.43596987%" y1="36.925329%" x2="94.9858757%" y2="59.948867%" id="linearGradient-43">
            <stop stop-color="#E99C42" offset="0%"></stop>
            <stop stop-color="#FCC45A" offset="100%"></stop>
        </linearGradient>
    </defs>
    <g id="图标" stroke="none" stroke-width="1" fill="none" fill-rule="evenodd">
        <g id="performing-arts-hall" fill-rule="nonzero">
            <g id="_编组_4" transform="translate(0.000000, 6.988178)">
                <path d="M5.24661871e-05,5.72566196 L5.24661871e-05,5.72566196 L5.24661871e-05,5.30173117 L0.120942265,5.22004893 L0.224678701,5.33767135 L8.36267963,0.649927965 C8.76977555,0.414696316 9.27148449,0.414696316 9.67858041,0.649927965 L19.7598017,6.47060393 L19.9297007,6.31704133 L19.9999474,6.39463945 L19.9999474,6.88064874 L19.9999474,6.88064874 C19.9957016,7.03328867 19.9120897,7.17264189 19.7794054,7.24821879 L11.6381372,11.9408631 C11.2310413,12.1760948 10.7293323,12.1760948 10.3222364,11.9408631 L0.221411412,6.10956845 C0.0844136668,6.03105817 5.24661871e-05,5.88519505 5.24661871e-05,5.7272956 L5.24661871e-05,5.7272956 L5.24661871e-05,5.72566196 Z" id="_路径_" fill="url(#linearGradient-1)"></path>
                <path d="M11.638954,11.4638389 L19.7785886,6.77201137 C19.9156181,6.69272796 20,6.54641766 20,6.38810487 C20,6.22979208 19.9156181,6.08348179 19.7785886,6.00419837 L9.67858041,0.176171011 C9.2713942,-0.0587236702 8.76986584,-0.0587236702 8.36267963,0.176171011 L0.221411412,4.86718168 C0.0843819224,4.9464651 7.25483971e-17,5.09277539 7.25483971e-17,5.25108818 C7.25483971e-17,5.40940097 0.0843819224,5.55571127 0.221411412,5.63499468 L10.3230532,11.4638389 C10.7302394,11.6987335 11.2317678,11.6987335 11.638954,11.4638389 Z" id="_路径_2" fill="url(#linearGradient-2)"></path>
            </g>
            <g id="_编组_5" transform="translate(3.842718, 0.000000)">
                <g id="_编组_6" transform="translate(0.430132, 0.437000)">
                    <g id="_编组_8" transform="translate(0.362669, 0.000000)">
                        <g id="_编组_9" transform="translate(6.144138, 3.545009)" fill="url(#linearGradient-3)">
                            <polygon id="_路径_3" points="0 2.86051182 0.00490093401 12.2596864 4.95484429 9.35343256 4.94994335 0"></polygon>
                        </g>
                        <g id="_编组_10" transform="translate(0.000000, 2.856428)" fill="url(#linearGradient-4)">
                            <path d="M0,0 L6.14413761,3.54909305 L6.14903854,12.9482677 L1.68673812,10.3736437 L0.00490093401,9.4024419 L0,0 Z M1.88032502,10.2641895 L1.68673812,10.3736437 L4.1911154,11.8186024 L4.1911154,11.5841744 L1.88032502,10.2641895 Z" id="形状结合"></path>
                        </g>
                        <g id="_编组_11" fill="#C8C8C8">
                            <polygon id="_路径_5" points="11.094081 3.54500894 4.97118073 -1.45096794e-16 0 2.85642771 6.14413761 6.40552075"></polygon>
                        </g>
                    </g>
                    <g id="_编组_13" transform="translate(0.000000, 1.732480)">
                        <g id="_编组_14" transform="translate(6.545197, 1.606690)" fill="url(#linearGradient-5)">
                            <polygon id="_路径_6" points="0 2.17356423 0.00571775635 3.14803328 5.27912275 0.537469097 5.273405 0"></polygon>
                        </g>
                        <g id="_编组_15" fill="url(#linearGradient-6)">
                            <polygon id="_路径_7" points="6.54519737 3.78025377 0 0 0.00490093401 0.973652224 6.55091513 4.75472281"></polygon>
                        </g>
                    </g>
                    <g id="_编组_16" transform="translate(0.130692, 3.973841)">
                        <polygon id="_路径_8" fill="url(#linearGradient-7)" points="6.38346655 4.36346492 0 0.67142796 0 0.134775685 6.38346655 3.83089675"></polygon>
                        <polygon id="_路径_9" fill="url(#linearGradient-8)" points="6.38346655 3.83089675 0 0.134775685 0.231977543 0 0.232794366 0.133958863 6.38346655 3.69530425 11.3260585 0.872366254 11.3260585 0.81845598 11.4861557 0.905039148"></polygon>
                        <polygon id="_路径_10" fill="url(#linearGradient-9)" points="11.4861557 1.43842413 6.38346655 4.36346492 6.38346655 3.83089675 11.4861557 0.905039148"></polygon>
                    </g>
                    <g id="_编组_17" transform="translate(0.130692, 7.098186)">
                        <polygon id="_路径_11" fill="url(#linearGradient-7)" points="6.38346655 4.36428174 0 0.672244782 0 0.135592508 6.38346655 3.83171358"></polygon>
                        <polygon id="_路径_12" fill="url(#linearGradient-10)" points="6.38346655 3.83171358 0 0.135592508 0.231977543 0 0.232794366 0.134775685 6.38346655 3.69530425 11.3260585 0.873183077 11.3260585 0.81845598 11.4861557 0.90585597"></polygon>
                        <polygon id="_路径_13" fill="url(#linearGradient-9)" points="11.4861557 1.43842413 6.38346655 4.36428174 6.38346655 3.83171358 11.4861557 0.90585597"></polygon>
                    </g>
                </g>
                <g id="_编组_20" transform="translate(1.111362, 10.023227)">
                    <g id="_编组_21">
                        <g id="_编组_23">
                            <g id="_编组_24" transform="translate(0.000000, 0.050643)" fill="url(#linearGradient-11)">
                                <polygon id="_路径_14" points="1 0.572592457 0.998320739 2.34836421 0 1.80272689 0.000839630563 0"></polygon>
                            </g>
                            <g id="_编组_26" transform="translate(0.000817, 0.000000)" fill="url(#linearGradient-12)">
                                <polygon id="_路径_16" points="0 0.0812581913 0.0873999899 -1.86249734e-15 1.05941857 0.914809961 0.972018579 1"></polygon>
                            </g>
                        </g>
                        <polygon id="_路径_17" fill="url(#linearGradient-13)" points="1.16077435e-15 1.85336988 0.139676619 1.77495493 0.139676619 0.131508396 0.000816822335 0.0506429848"></polygon>
                        <polygon id="_路径_18" fill="url(#linearGradient-14)" points="0.971201757 2.3990072 1.16077435e-15 1.85336988 0.139676619 1.77495493 0.971201757 2.22992498"></polygon>
                    </g>
                    <path d="M0.13978271,0.131508396 L0.22778271,0.173983157 L0.227676619,1.7355084 L1.13967662,2.14252499 L1.13967662,2.22992498 L0.227676619,1.8145084 L0.13978271,1.77495493 L0.13978271,0.131508396 Z" id="形状结合" fill="url(#linearGradient-15)"></path>
                    <polygon id="_路径_21" fill="url(#linearGradient-16)" points="0.301564462 1.69735681 0.212564462 1.73738111 0.212564462 0.173983157 0.301564462 0.216457919"></polygon>
                    <polygon id="_路径_22" fill="url(#linearGradient-17)" points="0.971201757 2.14252499 0.211556985 1.73738111 0.284254173 1.69735681 0.971201757 2.05430817"></polygon>
                </g>
                <g id="_编组_29" transform="translate(5.376809, 12.580698)">
                    <g id="_编组_30">
                        <g id="_编组_33" fill="url(#linearGradient-11)">
                            <polygon id="_路径_23" points="1 0.572592457 0.99832636 2.34836421 0 1.82233063 0.00418410042 0"></polygon>
                        </g>
                        <polygon id="_路径_26" fill="url(#linearGradient-18)" points="0 1.82233063 0.143933054 1.74391569 0.146443515 0.0808654112 0.00418410042 0"></polygon>
                        <polygon id="_路径_27" fill="url(#linearGradient-19)" points="0.99832636 2.34836421 0 1.82233063 0.143933054 1.74391569 0.99832636 2.17928199"></polygon>
                    </g>
                    <path d="M0.147025611,0.0808654112 L0.235025611,0.123340173 L0.231933054,1.70286541 L1.14393305,2.091882 L1.14393305,2.17928199 L0.231933054,1.78186541 L0.144025611,1.74391569 L0.147025611,0.0808654112 Z" id="形状结合" fill="url(#linearGradient-15)"></path>
                    <polygon id="_路径_30" fill="url(#linearGradient-20)" points="0.307225941 1.66550074 0.218225941 1.70634186 0.221225941 0.123340173 0.310225941 0.165814934"></polygon>
                    <polygon id="_路径_31" fill="url(#linearGradient-21)" points="0.99832636 2.091882 0.217573222 1.70634186 0.292050209 1.66550074 0.99832636 2.00366519"></polygon>
                </g>
                <g id="_编组_72" transform="translate(2.479540, 11.379969)">
                    <g id="_编组_73">
                        <g id="_编组_75">
                            <g id="_编组_76" transform="translate(0.000000, 0.069430)" fill="url(#linearGradient-22)">
                                <path d="M0.00245046701,0 L2.50601092,1.45639422 L2.50437728,3.42820334 L0.193586893,2.10821845 L0,2.21767264 L0.00245046701,0 Z" id="形状结合"></path>
                            </g>
                            <g id="_编组_77" transform="translate(0.002450, 0.000000)" fill="#449854">
                                <polygon id="_路径_69" points="0 0.0694298985 0.120889706 0 2.62445016 1.45149329 2.50356046 1.52582412"></polygon>
                            </g>
                        </g>
                        <polygon id="_路径_70" fill="url(#linearGradient-23)" points="0 2.28710254 0.193586893 2.17764835 0.193586893 0.181334558 0.00245046701 0.0694298985"></polygon>
                    </g>
                    <polygon id="_路径_74" fill="url(#linearGradient-24)" points="0.358628005 2.09759976 0.297628005 2.12537172 0.297628005 0.240145767 0.358628005 0.281803706"></polygon>
                    <polygon id="_路径_75" fill="url(#linearGradient-25)" points="2.50437728 3.37510989 0.294056041 2.12537172 0.343882203 2.09759976 2.50437728 3.31548186"></polygon>
                    <path d="M0.193586893,0.181334558 L0.294056041,0.240145767 L0.293586893,2.12633456 L0.942586893,2.49333456 L0.943429797,0.602814884 L1.04389894,0.661626092 L1.04358689,2.55033456 L1.70958689,2.92633456 L1.70960915,1.04389894 L1.8100783,1.10271015 L1.80958689,2.98333456 L2.50437728,3.37592671 L2.50437728,3.49681642 L0.193586893,2.17764835 L0.193586893,0.181334558 Z" id="形状结合" fill="url(#linearGradient-26)"></path>
                    <polygon id="_路径_77" fill="url(#linearGradient-24)" points="1.10847091 2.52234737 1.04747091 2.55011933 1.04747091 0.664893381 1.10847091 0.70655132"></polygon>
                    <polygon id="_路径_78" fill="url(#linearGradient-27)" points="1.87465026 2.95608003 1.81365026 2.98303517 1.81365026 1.09862604 1.87465026 1.13946716"></polygon>
                    <polygon id="_路径_80" fill="#FFFFFF" opacity="0.1" points="0.343882203 0.267917726 0.851128873 0.562790589 0.343882203 1.39594937"></polygon>
                    <polygon id="_路径_81" fill="#FFFFFF" opacity="0.1" points="1.09535875 0.69593263 1.60260542 0.98998867 1.09535875 1.82396427"></polygon>
                    <polygon id="_路径_82" fill="#FFFFFF" opacity="0.1" points="1.85990446 1.12966529 2.36715113 1.42453815 1.85990446 2.25769693"></polygon>
                </g>
                <path d="M0.794435255,9.17128118 L6.9434738,12.0808023 L6.9434738,12.7342602 L6.23610565,13.1263349 C5.94221441,13.2950459 5.58084934,13.2950459 5.2869581,13.1263349 L0.200605417,10.2119128 C0.0788816117,10.1407098 0.0040689592,10.0102756 0.0040689592,9.86925587 C0.0040689592,9.72823615 0.0788816117,9.59780195 0.200605417,9.5265989 L0.794435255,9.17128118 Z" id="_路径_83" fill="#5E205E"></path>
                <path d="M0.794435255,9.17128118 L0.405627823,9.4024419 L0.475874544,9.17128118 L0.00211758949,9.19986996 L0.00211758949,9.82637269 L0.00211758949,9.82637269 C-0.0140269161,9.98202334 0.0631570389,10.1325481 0.198971772,10.2102792 L5.28532445,13.1206172 C5.57891846,13.2893491 5.94006118,13.2893491 6.23365519,13.1206172 L6.94184015,12.7285425 L6.94184015,12.0750846 L0.794435255,9.17128118 Z" id="_路径_84" fill="url(#linearGradient-28)"></path>
                <path d="M0.794435255,8.52190743 L6.9434738,12.0808023 L6.23610565,12.4728771 C5.94230358,12.6419221 5.58076018,12.6419221 5.2869581,12.4728771 L0.200605417,9.56172226 C0.0788816117,9.49051921 0.0040689592,9.360085 0.0040689592,9.21906529 C0.0040689592,9.07804558 0.0788816117,8.94761137 0.200605417,8.87640832 L0.794435255,8.52190743 Z" id="_路径_85" fill="url(#linearGradient-29)"></path>
                <g id="_编组_79" transform="translate(0.430132, 0.000000)">
                    <g id="_编组_80" transform="translate(2.323860, 3.831714)" fill="url(#linearGradient-30)">
                        <polygon id="_路径_86" points="1.76351942 0.998973716 1.76351942 7.14392815 0.0187869137 6.15230583 0 0"></polygon>
                    </g>
                    <g id="_编组_81" transform="translate(3.797320, 4.664073)" fill="url(#linearGradient-31)">
                        <polygon id="_路径_87" points="0.651928954 1.31672015e-13 0.651928954 6.21990436 0.348071046 6.31156873 0.348071046 0.166614301"></polygon>
                    </g>
                    <polygon id="_路径_88" fill="url(#linearGradient-32)" points="11.8186024 3.77616966 5.29627602 0 0 2.16948012 2.65467259 3.70265565 2.59504456 3.68713602 2.32385954 3.83171358 4.08737897 4.83068729 4.34059389 4.67712469 4.34059389 4.67630787 6.54519737 5.94973389"></polygon>
                    <polygon id="_路径_88" fill="url(#linearGradient-33)" points="2.65467259 3.70265565 2.59504456 3.68713602 2.32385954 3.83171358 4.08737897 4.83068729 4.34059389 4.67712469 4.34059389 4.67630787"></polygon>
                </g>
                <g id="_编组_83" transform="translate(2.914906, 3.178256)">
                    <g id="_编组_84" transform="translate(0.000000, 0.064529)" fill="url(#linearGradient-34)">
                        <polygon id="_路径_89" points="0.596280305 1.16077435e-15 1.24892135 0.91974195 1.24892135 7.68139724 0 6.96422723 0.00490093401 0.230343899"></polygon>
                    </g>
                    <g id="_编组_85" transform="translate(0.596280, 0.000000)" fill="url(#linearGradient-35)">
                        <polygon id="_路径_90" points="0.160583942 0 1 0.954789518 0.783169255 1 0 0.065560166"></polygon>
                    </g>
                    <g id="_编组_86" transform="translate(0.928853, 0.939772)" fill="url(#linearGradient-36)">
                        <polygon id="_路径_91" points="0.600913182 1.98413571e-14 0.615917562 6.76871167 0.384082438 6.80615465 0.384082438 0.0444993622"></polygon>
                    </g>
                </g>
                <g id="_编组_87" transform="translate(2.978618, 3.382461)" fill="#FFFFFF">
                    <path d="M0.079997421,0.177243992 C0.0804012372,0.189550558 0.0732441605,0.20085425 0.0619470638,0.205752234 C0.0506499671,0.210650218 0.0375070949,0.208147798 0.028800355,0.199441058 C0.0200936151,0.190734318 0.0175911954,0.177591446 0.0224891792,0.166294349 C0.0273871631,0.154997253 0.0386908548,0.147840176 0.050997421,0.148243992 C0.0670136787,0.148243992 0.079997421,0.161227734 0.079997421,0.177243992 Z" id="_路径_92"></path>
                    <path d="M0.0799087175,0.309749503 C0.0820969145,0.321584412 0.0770004217,0.333581414 0.0669632341,0.340222811 C0.0569260464,0.346864208 0.0438913886,0.346864208 0.033854201,0.340222811 C0.0238170133,0.333581414 0.0187205206,0.321584412 0.0209087175,0.309749503 C0.0187205206,0.297914593 0.0238170133,0.285917591 0.033854201,0.279276194 C0.0438913886,0.272634797 0.0569260464,0.272634797 0.0669632341,0.279276194 C0.0770004217,0.285917591 0.0820969145,0.297914593 0.0799087175,0.309749503 L0.0799087175,0.309749503 Z" id="_路径_93"></path>
                    <circle id="_路径_94" cx="0.0671535754" cy="0.457594345" r="1"></circle>
                    <path d="M0.0799087175,0.573583117 C0.0820969145,0.585418026 0.0770004217,0.597415029 0.0669632341,0.604056425 C0.0569260464,0.610697822 0.0438913886,0.610697822 0.033854201,0.604056425 C0.0238170133,0.597415029 0.0187205206,0.585418026 0.0209087175,0.573583117 C0.0187205206,0.561748208 0.0238170133,0.549751205 0.033854201,0.543109808 C0.0438913886,0.536468412 0.0569260464,0.536468412 0.0669632341,0.543109808 C0.0770004217,0.549751205 0.0820969145,0.561748208 0.0799087175,0.573583117 L0.0799087175,0.573583117 Z" id="_路径_95"></path>
                    <circle id="_路径_96" cx="0.0671535754" cy="0.72142796" r="1"></circle>
                    <circle id="_路径_97" cx="0.0671535754" cy="0.852936356" r="1"></circle>
                    <path d="M0.080000375,0.9689281 C0.0799935824,0.981151522 0.0725713587,0.992148533 0.0612378829,0.996727225 C0.0499044071,1.00130592 0.0369262782,0.998550591 0.0284307284,0.989762091 C0.0199351786,0.980973592 0.0176212456,0.967909543 0.0225813832,0.956737742 C0.0275415208,0.945565942 0.0387837436,0.938520654 0.051000375,0.9389281 C0.0671771296,0.939467622 0.0800093695,0.952742353 0.080000375,0.9689281 L0.080000375,0.9689281 Z" id="_路径_98"></path>
                    <circle id="_路径_99" cx="0.0671535754" cy="1.11676997" r="1"></circle>
                    <circle id="_路径_100" cx="0.0671535754" cy="1.24827837" r="1"></circle>
                    <path d="M0.079997421,1.36408685 C0.0804012372,1.37639341 0.0732441605,1.3876971 0.0619470638,1.39259509 C0.0506499671,1.39749307 0.0375070949,1.39499065 0.028800355,1.38628391 C0.0200936151,1.37757717 0.0175911954,1.3644343 0.0224891792,1.3531372 C0.0273871631,1.34184011 0.0386908548,1.33468303 0.050997421,1.33508685 C0.0670136787,1.33508685 0.079997421,1.34807059 0.079997421,1.36408685 Z" id="_路径_101"></path>
                    <circle id="_路径_102" cx="0.0671535754" cy="1.51211198" r="1"></circle>
                    <circle id="_路径_103" cx="0.0671535754" cy="1.6444372" r="1"></circle>
                    <path d="M0.0799087175,1.7655092 C0.0772788211,1.77973305 0.0648736499,1.79005484 0.0504087175,1.79005484 C0.0359437851,1.79005484 0.0235386139,1.77973305 0.0209087175,1.7655092 C0.0187205206,1.75367429 0.0238170133,1.74167729 0.033854201,1.73503589 C0.0438913886,1.72839449 0.0569260464,1.72839449 0.0669632341,1.73503589 C0.0770004217,1.74167729 0.0820969145,1.75367429 0.0799087175,1.7655092 L0.0799087175,1.7655092 Z" id="_路径_104"></path>
                    <circle id="_路径_105" cx="0.0671535754" cy="1.90827081" r="1"></circle>
                    <path d="M0.079997421,2.02326247 C0.0804012372,2.03556904 0.0732441605,2.04687273 0.0619470638,2.05177071 C0.0506499671,2.0566687 0.0375070949,2.05416628 0.028800355,2.04545954 C0.0200936151,2.0367528 0.0175911954,2.02360992 0.0224891792,2.01231283 C0.0273871631,2.00101573 0.0386908548,1.99385865 0.050997421,1.99426247 C0.0670136787,1.99426247 0.079997421,2.00724621 0.079997421,2.02326247 Z" id="_路径_106"></path>
                    <path d="M0.0799087175,2.15576798 C0.0820969145,2.16760289 0.0770004217,2.17959989 0.0669632341,2.18624129 C0.0569260464,2.19288269 0.0438913886,2.19288269 0.033854201,2.18624129 C0.0238170133,2.17959989 0.0187205206,2.16760289 0.0209087175,2.15576798 C0.0187205206,2.14393307 0.0238170133,2.13193607 0.033854201,2.12529467 C0.0438913886,2.11865328 0.0569260464,2.11865328 0.0669632341,2.12529467 C0.0770004217,2.13193607 0.0820969145,2.14393307 0.0799087175,2.15576798 L0.0799087175,2.15576798 Z" id="_路径_107"></path>
                    <circle id="_路径_108" cx="0.0671535754" cy="2.30361282" r="1"></circle>
                    <path d="M0.0799087175,2.41796795 C0.0820969145,2.42980286 0.0770004217,2.44179986 0.0669632341,2.44844126 C0.0569260464,2.45508266 0.0438913886,2.45508266 0.033854201,2.44844126 C0.0238170133,2.44179986 0.0187205206,2.42980286 0.0209087175,2.41796795 C0.0187205206,2.40613304 0.0238170133,2.39413604 0.033854201,2.38749464 C0.0438913886,2.38085325 0.0569260464,2.38085325 0.0669632341,2.38749464 C0.0770004217,2.39413604 0.0820969145,2.40613304 0.0799087175,2.41796795 L0.0799087175,2.41796795 Z" id="_路径_109"></path>
                    <path d="M0.0799087175,2.55110999 C0.0820969145,2.5629449 0.0770004217,2.5749419 0.0669632341,2.5815833 C0.0569260464,2.5882247 0.0438913886,2.5882247 0.033854201,2.5815833 C0.0238170133,2.5749419 0.0187205206,2.5629449 0.0209087175,2.55110999 C0.0187205206,2.53927508 0.0238170133,2.52727808 0.033854201,2.52063668 C0.0438913886,2.51399529 0.0569260464,2.51399529 0.0669632341,2.52063668 C0.0770004217,2.52727808 0.0820969145,2.53927508 0.0799087175,2.55110999 L0.0799087175,2.55110999 Z" id="_路径_110"></path>
                    <circle id="_路径_111" cx="0.0671535754" cy="2.69895483" r="1"></circle>
                    <path d="M0.080000375,2.81494658 C0.0799935824,2.82717 0.0725713587,2.83816701 0.0612378829,2.8427457 C0.0499044071,2.8473244 0.0369262782,2.84456907 0.0284307284,2.83578057 C0.0199351786,2.82699207 0.0176212456,2.81392802 0.0225813832,2.80275622 C0.0275415208,2.79158442 0.0387837436,2.78453913 0.051000375,2.78494658 C0.0671771296,2.7854861 0.0800093695,2.79876083 0.080000375,2.81494658 L0.080000375,2.81494658 Z" id="_路径_112"></path>
                    <circle id="_路径_113" cx="0.0671535754" cy="2.96278845" r="1"></circle>
                    <circle id="_路径_114" cx="0.0671535754" cy="3.09429684" r="1"></circle>
                    <path d="M0.079997421,3.21010532 C0.0804012372,3.22241189 0.0732441605,3.23371558 0.0619470638,3.23861357 C0.0506499671,3.24351155 0.0375070949,3.24100913 0.028800355,3.23230239 C0.0200936151,3.22359565 0.0175911954,3.21045278 0.0224891792,3.19915568 C0.0273871631,3.18785858 0.0386908548,3.18070151 0.050997421,3.18110532 C0.0670136787,3.18110532 0.079997421,3.19408907 0.079997421,3.21010532 Z" id="_路径_115"></path>
                    <circle id="_路径_116" cx="0.0671535754" cy="3.35813046" r="1"></circle>
                    <circle id="_路径_117" cx="0.0671535754" cy="3.49045568" r="1"></circle>
                    <path d="M0.0799087175,3.60744356 C0.0772788211,3.62166741 0.0648736499,3.63198921 0.0504087175,3.63198921 C0.0359437851,3.63198921 0.0235386139,3.62166741 0.0209087175,3.60744356 C0.0187205206,3.59560866 0.0238170133,3.58361165 0.033854201,3.57697026 C0.0438913886,3.57032886 0.0569260464,3.57032886 0.0669632341,3.57697026 C0.0770004217,3.58361165 0.0820969145,3.59560866 0.0799087175,3.60744356 L0.0799087175,3.60744356 Z" id="_路径_118"></path>
                    <circle id="_路径_119" cx="0.0671535754" cy="3.75428929" r="1"></circle>
                    <path d="M0.079997421,3.86928095 C0.0804012372,3.88158751 0.0732441605,3.89289121 0.0619470638,3.89778919 C0.0506499671,3.90268717 0.0375070949,3.90018475 0.028800355,3.89147801 C0.0200936151,3.88277127 0.0175911954,3.8696284 0.0224891792,3.85833131 C0.0273871631,3.84703421 0.0386908548,3.83987713 0.050997421,3.84028095 C0.0670136787,3.84028095 0.079997421,3.85326469 0.079997421,3.86928095 Z" id="_路径_120"></path>
                    <path d="M0.0799087175,4.00178646 C0.0820969145,4.01362137 0.0770004217,4.02561837 0.0669632341,4.03225977 C0.0569260464,4.03890116 0.0438913886,4.03890116 0.033854201,4.03225977 C0.0238170133,4.02561837 0.0187205206,4.01362137 0.0209087175,4.00178646 C0.0187205206,3.98995155 0.0238170133,3.97795455 0.033854201,3.97131315 C0.0438913886,3.96467175 0.0569260464,3.96467175 0.0669632341,3.97131315 C0.0770004217,3.97795455 0.0820969145,3.98995155 0.0799087175,4.00178646 L0.0799087175,4.00178646 Z" id="_路径_121"></path>
                    <circle id="_路径_122" cx="0.0671535754" cy="4.1496313" r="1"></circle>
                    <path d="M0.0799087175,4.26562007 C0.0820969145,4.27745498 0.0770004217,4.28945198 0.0669632341,4.29609338 C0.0569260464,4.30273478 0.0438913886,4.30273478 0.033854201,4.29609338 C0.0238170133,4.28945198 0.0187205206,4.27745498 0.0209087175,4.26562007 C0.0187205206,4.25378516 0.0238170133,4.24178816 0.033854201,4.23514676 C0.0438913886,4.22850537 0.0569260464,4.22850537 0.0669632341,4.23514676 C0.0770004217,4.24178816 0.0820969145,4.25378516 0.0799087175,4.26562007 L0.0799087175,4.26562007 Z" id="_路径_123"></path>
                    <path d="M0.0799087175,4.39712847 C0.0820969145,4.40896338 0.0770004217,4.42096038 0.0669632341,4.42760178 C0.0569260464,4.43424317 0.0438913886,4.43424317 0.033854201,4.42760178 C0.0238170133,4.42096038 0.0187205206,4.40896338 0.0209087175,4.39712847 C0.0187205206,4.38529356 0.0238170133,4.37329656 0.033854201,4.36665516 C0.0438913886,4.36001376 0.0569260464,4.36001376 0.0669632341,4.36665516 C0.0770004217,4.37329656 0.0820969145,4.38529356 0.0799087175,4.39712847 L0.0799087175,4.39712847 Z" id="_路径_124"></path>
                    <circle id="_路径_125" cx="0.0671535754" cy="4.54497331" r="1"></circle>
                    <path d="M0.0799087175,4.66096208 C0.0820969145,4.67279699 0.0770004217,4.68479399 0.0669632341,4.69143539 C0.0569260464,4.69807679 0.0438913886,4.69807679 0.033854201,4.69143539 C0.0238170133,4.68479399 0.0187205206,4.67279699 0.0209087175,4.66096208 C0.0187205206,4.64912717 0.0238170133,4.63713017 0.033854201,4.63048877 C0.0438913886,4.62384738 0.0569260464,4.62384738 0.0669632341,4.63048877 C0.0770004217,4.63713017 0.0820969145,4.64912717 0.0799087175,4.66096208 L0.0799087175,4.66096208 Z" id="_路径_126"></path>
                    <circle id="_路径_127" cx="0.0671535754" cy="4.80880693" r="1"></circle>
                    <circle id="_路径_128" cx="0.0671535754" cy="4.94031532" r="1"></circle>
                    <path d="M0.079997421,5.0561238 C0.0804012372,5.06843037 0.0732441605,5.07973406 0.0619470638,5.08463204 C0.0506499671,5.08953003 0.0375070949,5.08702761 0.028800355,5.07832087 C0.0200936151,5.06961413 0.0175911954,5.05647126 0.0224891792,5.04517416 C0.0273871631,5.03387706 0.0386908548,5.02671999 0.050997421,5.0271238 C0.0670136787,5.0271238 0.079997421,5.04010754 0.079997421,5.0561238 Z" id="_路径_129"></path>
                    <circle id="_路径_130" cx="0.0671535754" cy="5.20414894" r="1"></circle>
                    <circle id="_路径_131" cx="0.0671535754" cy="5.33647415" r="1"></circle>
                    <path d="M0.0799087175,5.45346204 C0.0772788211,5.46768589 0.0648736499,5.47800769 0.0504087175,5.47800769 C0.0359437851,5.47800769 0.0235386139,5.46768589 0.0209087175,5.45346204 C0.0187205206,5.44162713 0.0238170133,5.42963013 0.033854201,5.42298873 C0.0438913886,5.41634734 0.0569260464,5.41634734 0.0669632341,5.42298873 C0.0770004217,5.42963013 0.0820969145,5.44162713 0.0799087175,5.45346204 L0.0799087175,5.45346204 Z" id="_路径_132"></path>
                    <circle id="_路径_133" cx="0.0671535754" cy="5.60030777" r="1"></circle>
                    <circle id="_路径_134" cx="0.0671535754" cy="5.73181616" r="1"></circle>
                    <path d="M0.0799087175,5.84862176 C0.0820969145,5.86045667 0.0770004217,5.87245367 0.0669632341,5.87909507 C0.0569260464,5.88573646 0.0438913886,5.88573646 0.033854201,5.87909507 C0.0238170133,5.87245367 0.0187205206,5.86045667 0.0209087175,5.84862176 C0.0187205206,5.83678685 0.0238170133,5.82478985 0.033854201,5.81814845 C0.0438913886,5.81150705 0.0569260464,5.81150705 0.0669632341,5.81814845 C0.0770004217,5.82478985 0.0820969145,5.83678685 0.0799087175,5.84862176 L0.0799087175,5.84862176 Z" id="_路径_135"></path>
                    <circle id="_路径_136" cx="0.0671535754" cy="5.99564978" r="1"></circle>
                    <path d="M0.0799087175,6.11163855 C0.0820969145,6.12347346 0.0770004217,6.13547046 0.0669632341,6.14211186 C0.0569260464,6.14875326 0.0438913886,6.14875326 0.033854201,6.14211186 C0.0238170133,6.13547046 0.0187205206,6.12347346 0.0209087175,6.11163855 C0.0187205206,6.09980364 0.0238170133,6.08780664 0.033854201,6.08116524 C0.0438913886,6.07452385 0.0569260464,6.07452385 0.0669632341,6.08116524 C0.0770004217,6.08780664 0.0820969145,6.09980364 0.0799087175,6.11163855 L0.0799087175,6.11163855 Z" id="_路径_137"></path>
                    <path d="M0.0799087175,6.24314695 C0.0820969145,6.25498186 0.0770004217,6.26697886 0.0669632341,6.27362026 C0.0569260464,6.28026165 0.0438913886,6.28026165 0.033854201,6.27362026 C0.0238170133,6.26697886 0.0187205206,6.25498186 0.0209087175,6.24314695 C0.0187205206,6.23131204 0.0238170133,6.21931504 0.033854201,6.21267364 C0.0438913886,6.20603224 0.0569260464,6.20603224 0.0669632341,6.21267364 C0.0770004217,6.21931504 0.0820969145,6.23131204 0.0799087175,6.24314695 L0.0799087175,6.24314695 Z" id="_路径_138"></path>
                    <circle id="_路径_139" cx="0.0671535754" cy="6.39099179" r="1"></circle>
                    <path d="M0.0799087175,6.50698056 C0.0820969145,6.51881547 0.0770004217,6.53081247 0.0669632341,6.53745387 C0.0569260464,6.54409527 0.0438913886,6.54409527 0.033854201,6.53745387 C0.0238170133,6.53081247 0.0187205206,6.51881547 0.0209087175,6.50698056 C0.0187205206,6.49514565 0.0238170133,6.48314865 0.033854201,6.47650725 C0.0438913886,6.46986586 0.0569260464,6.46986586 0.0669632341,6.47650725 C0.0770004217,6.48314865 0.0820969145,6.49514565 0.0799087175,6.50698056 L0.0799087175,6.50698056 Z" id="_路径_140"></path>
                    <path d="M0.079997421,6.63830866 C0.0804012372,6.65061523 0.0732441605,6.66191892 0.0619470638,6.66681691 C0.0506499671,6.67171489 0.0375070949,6.66921247 0.028800355,6.66050573 C0.0200936151,6.65179899 0.0175911954,6.63865612 0.0224891792,6.62735902 C0.0273871631,6.61606193 0.0386908548,6.60890485 0.050997421,6.60930866 C0.0670136787,6.60930866 0.079997421,6.62229241 0.079997421,6.63830866 Z" id="_路径_141"></path>
                    <circle id="_路径_142" cx="0.0671535754" cy="6.7863338" r="1"></circle>
                    <path d="M0.189454499,6.83534314 C0.189454495,6.85191168 0.176023039,6.86534313 0.159454499,6.86534313 C0.14288596,6.86534313 0.129454503,6.85191168 0.129454499,6.83534314 C0.129454499,6.8187746 0.142885957,6.80534314 0.159454499,6.80534314 C0.176023042,6.80534314 0.189454499,6.8187746 0.189454499,6.83534314 Z" id="_路径_143"></path>
                    <path d="M0.316878784,6.90313939 C0.316878784,6.91970794 0.303447326,6.93313939 0.286878784,6.93313939 C0.270310241,6.93313939 0.256878784,6.91970794 0.256878784,6.90313939 C0.256878784,6.88657085 0.270310241,6.87313939 0.286878784,6.87313939 C0.303447326,6.87313939 0.316878784,6.88657085 0.316878784,6.90313939 Z" id="_路径_144"></path>
                    <circle id="_路径_145" cx="0.448609606" cy="7.0019749" r="1"></circle>
                    <path d="M0.599497673,7.05670035 C0.599780033,7.06474009 0.596710093,7.07253586 0.591021638,7.07822432 C0.585333183,7.08391277 0.577537407,7.08698271 0.569497673,7.08670035 C0.55292913,7.08670035 0.539497673,7.0732689 0.539497673,7.05670035 C0.540017064,7.04035178 0.553149101,7.02721975 0.569497673,7.02670035 C0.586066215,7.02670035 0.599497673,7.04013181 0.599497673,7.05670035 L0.599497673,7.05670035 Z" id="_路径_146"></path>
                    <path d="M0.730192524,7.13348165 C0.730192524,7.1500502 0.716761067,7.16348165 0.700192524,7.16348165 C0.69215279,7.16376401 0.684357014,7.16069407 0.678668559,7.15500562 C0.672980104,7.14931716 0.669910164,7.14152139 0.670192524,7.13348165 C0.670192524,7.11691311 0.683623982,7.10348165 0.700192524,7.10348165 C0.716541096,7.10400104 0.729673133,7.11713308 0.730192524,7.13348165 Z" id="_路径_147"></path>
                    <circle id="_路径_148" cx="0.833332926" cy="7.21108141" r="1"></circle>
                    <path d="M0.968611418,7.26825898 C0.970799615,7.28009389 0.965703123,7.29209089 0.955665935,7.29873229 C0.945628747,7.30537368 0.932594089,7.30537368 0.922556902,7.29873229 C0.912519714,7.29209089 0.907423221,7.28009389 0.909611418,7.26825898 C0.907423221,7.25642407 0.912519714,7.24442707 0.922556902,7.23778567 C0.932594089,7.23114427 0.945628747,7.23114427 0.955665935,7.23778567 C0.965703123,7.24442707 0.970799615,7.25642407 0.968611418,7.26825898 L0.968611418,7.26825898 Z" id="_路径_149"></path>
                    <path d="M0.209876696,0.13086705 C0.209357305,0.147215622 0.196225268,0.160347659 0.179876696,0.16086705 C0.163308154,0.16086705 0.149876696,0.147435592 0.149876696,0.13086705 C0.149594336,0.122827316 0.152664276,0.11503154 0.158352731,0.109343085 C0.164041186,0.103654629 0.171836963,0.10058469 0.179876696,0.10086705 C0.196445239,0.10086705 0.209876696,0.114298507 0.209876696,0.13086705 Z" id="_路径_150"></path>
                    <path d="M0.351187918,0.074633602 C0.351187918,0.0912021445 0.33775646,0.104633602 0.321187918,0.104633602 C0.313148184,0.104915962 0.305352408,0.101846022 0.299663953,0.0961575672 C0.293975497,0.0904691119 0.290905558,0.0826733358 0.291187918,0.074633602 C0.290756217,0.0655576521 0.294461151,0.0567750871 0.301262981,0.0507506089 C0.308064811,0.0447261307 0.317230533,0.0421089723 0.326187918,0.043633602 C0.340934439,0.0465399963 0.3514716,0.0596060758 0.351187918,0.074633602 L0.351187918,0.074633602 Z" id="_路径_151"></path>
                    <circle id="_路径_152" cx="0.483732966" cy="0.05" r="1"></circle>
                    <circle id="_路径_153" cx="0.57603389" cy="0.129231767" r="1"></circle>
                    <path d="M0.671288088,0.22479998 C0.673476285,0.236634889 0.668379793,0.248631892 0.658342605,0.255273288 C0.648305417,0.261914685 0.635270759,0.261914685 0.625233572,0.255273288 C0.615196384,0.248631892 0.610099891,0.236634889 0.612288088,0.22479998 C0.610099891,0.21296507 0.615196384,0.200968068 0.625233572,0.194326671 C0.635270759,0.187685275 0.648305417,0.187685275 0.658342605,0.194326671 C0.668379793,0.200968068 0.673476285,0.21296507 0.671288088,0.22479998 L0.671288088,0.22479998 Z" id="_路径_154"></path>
                    <path d="M0.752743008,0.334345762 C0.752747687,0.342213478 0.749555451,0.349745433 0.743898654,0.355213671 C0.738241856,0.360681909 0.730606046,0.363617064 0.722743008,0.363345762 C0.710908098,0.365533958 0.698911096,0.360437466 0.692269699,0.350400278 C0.685628302,0.34036309 0.685628302,0.327328433 0.692269699,0.317291245 C0.698911096,0.307254057 0.710908098,0.302157565 0.722743008,0.304345762 C0.730782742,0.304063402 0.738578518,0.307133341 0.744266973,0.312821796 C0.749955428,0.318510252 0.753025368,0.326306028 0.752743008,0.334345762 Z" id="_路径_155"></path>
                    <path d="M0.834425241,0.457502757 C0.834707601,0.46554249 0.831637662,0.473338266 0.825949206,0.479026722 C0.820260751,0.484715177 0.812464975,0.487785116 0.804425241,0.487502757 C0.792590332,0.489690953 0.780593329,0.484594461 0.773951933,0.474557273 C0.767310536,0.464520085 0.767310536,0.451485428 0.773951933,0.44144824 C0.780593329,0.431411052 0.792590332,0.42631456 0.804425241,0.428502757 C0.81228828,0.428231455 0.81992409,0.431166609 0.825580887,0.436634847 C0.831237685,0.442103085 0.83442992,0.44963504 0.834425241,0.457502757 L0.834425241,0.457502757 Z" id="_路径_156"></path>
                    <path d="M0.920191586,0.57530835 C0.920196266,0.583176067 0.91700403,0.590708022 0.911347232,0.59617626 C0.905690435,0.601644498 0.898054625,0.604579652 0.890191586,0.60430835 C0.878356677,0.606496547 0.866359675,0.601400055 0.859718278,0.591362867 C0.853076881,0.581325679 0.853076881,0.568291022 0.859718278,0.558253834 C0.866359675,0.548216646 0.878356677,0.543120154 0.890191586,0.54530835 C0.89823132,0.545025991 0.906027096,0.54809593 0.911715552,0.553784385 C0.917404007,0.559472841 0.920473946,0.567268617 0.920191586,0.57530835 L0.920191586,0.57530835 Z" id="_路径_157"></path>
                    <path d="M1.01249251,0.702732635 C1.01249719,0.710600351 1.00930495,0.718132307 1.00364816,0.723600544 C0.997991359,0.729068782 0.990355549,0.732003937 0.98249251,0.731732635 C0.970657601,0.733920832 0.958660599,0.728824339 0.952019202,0.718787151 C0.945377805,0.708749964 0.945377805,0.695715306 0.952019202,0.685678118 C0.958660599,0.675640931 0.970657601,0.670544438 0.98249251,0.672732635 C0.990532244,0.672450275 0.99832802,0.675520214 1.00401648,0.68120867 C1.00970493,0.686897125 1.01277487,0.694692901 1.01249251,0.702732635 Z" id="_路径_158"></path>
                    <path d="M1.11246374,0.84395131 C1.11194435,0.860299882 1.09881231,0.873431919 1.08246374,0.87395131 C1.0658952,0.87395131 1.05246374,0.860519852 1.05246374,0.84395131 C1.05246374,0.827382767 1.0658952,0.81395131 1.08246374,0.81395131 C1.09881231,0.814470701 1.11194435,0.827602738 1.11246374,0.84395131 L1.11246374,0.84395131 Z" id="_路径_159"></path>
                    <path d="M1.11246374,0.968925127 C1.11194435,0.985273699 1.09881231,0.998405736 1.08246374,0.998925127 C1.0658952,0.998925127 1.05246374,0.98549367 1.05246374,0.968925127 C1.05246374,0.952356585 1.0658952,0.938925127 1.08246374,0.938925127 C1.09881231,0.939444518 1.11194435,0.952576555 1.11246374,0.968925127 L1.11246374,0.968925127 Z" id="_路径_160"></path>
                    <circle id="_路径_161" cx="1.09880018" cy="1.11023539" r="1"></circle>
                    <circle id="_路径_162" cx="1.09880018" cy="1.23520921" r="1"></circle>
                    <circle id="_路径_163" cx="1.09880018" cy="1.36018303" r="1"></circle>
                    <path d="M1.11246538,1.46881876 C1.11246538,1.4853873 1.09903392,1.49881876 1.08246538,1.49881876 C1.07442564,1.49910112 1.06662987,1.49603118 1.06094141,1.49034272 C1.05525296,1.48465427 1.05218302,1.47685849 1.05246538,1.46881876 C1.05246538,1.45225022 1.06589683,1.43881876 1.08246538,1.43881876 C1.09881395,1.43933815 1.11194599,1.45247019 1.11246538,1.46881876 Z" id="_路径_164"></path>
                    <path d="M1.11246538,1.59379258 C1.11246538,1.61036112 1.09903392,1.62379258 1.08246538,1.62379258 C1.07442564,1.62407494 1.06662987,1.621005 1.06094141,1.61531654 C1.05525296,1.60962809 1.05218302,1.60183231 1.05246538,1.59379258 C1.05246538,1.57722403 1.06589683,1.56379258 1.08246538,1.56379258 C1.09881395,1.56431197 1.11194599,1.577444 1.11246538,1.59379258 Z" id="_路径_165"></path>
                    <circle id="_路径_166" cx="1.09880018" cy="1.73510448" r="1"></circle>
                    <circle id="_路径_167" cx="1.09880018" cy="1.8600783" r="1"></circle>
                    <path d="M1.1129633,1.96862408 C1.1129633,1.98519262 1.09953184,1.99862408 1.0829633,1.99862408 C1.07112839,2.00081227 1.05913138,1.99571578 1.05248999,1.98567859 C1.04584859,1.97564141 1.04584859,1.96260675 1.05248999,1.95256956 C1.05913138,1.94253237 1.07112839,1.93743588 1.0829633,1.93962408 C1.09914904,1.93961508 1.11242377,1.95244732 1.1129633,1.96862408 Z" id="_路径_168"></path>
                    <path d="M1.1129633,2.09114743 C1.1129633,2.10771597 1.09953184,2.12114743 1.0829633,2.12114743 C1.07112839,2.12333562 1.05913138,2.11823913 1.05248999,2.10820194 C1.04584859,2.09816476 1.04584859,2.0851301 1.05248999,2.07509291 C1.05913138,2.06505572 1.07112839,2.05995923 1.0829633,2.06214743 C1.09914904,2.06213843 1.11242377,2.07497067 1.1129633,2.09114743 Z" id="_路径_169"></path>
                    <circle id="_路径_170" cx="1.09880018" cy="2.23499975" r="1"></circle>
                    <circle id="_路径_171" cx="1.09880018" cy="2.35997356" r="1"></circle>
                    <path d="M1.1129633,2.46951935 C1.11242377,2.4856961 1.09914904,2.49852834 1.0829633,2.49851935 C1.07112839,2.50070754 1.05913138,2.49561105 1.05248999,2.48557386 C1.04584859,2.47553668 1.04584859,2.46250202 1.05248999,2.45246483 C1.05913138,2.44242764 1.07112839,2.43733115 1.0829633,2.43951935 C1.09953184,2.43951935 1.1129633,2.4529508 1.1129633,2.46951935 Z" id="_路径_172"></path>
                    <path d="M1.1129633,2.59449316 C1.11242377,2.61066992 1.09914904,2.62350216 1.0829633,2.62349316 C1.07112839,2.62568136 1.05913138,2.62058487 1.05248999,2.61054768 C1.04584859,2.60051049 1.04584859,2.58747583 1.05248999,2.57743865 C1.05913138,2.56740146 1.07112839,2.56230497 1.0829633,2.56449316 C1.09091979,2.56449316 1.09855041,2.56765387 1.1041765,2.57327996 C1.10980259,2.57890605 1.1129633,2.58653667 1.1129633,2.59449316 L1.1129633,2.59449316 Z" id="_路径_173"></path>
                    <circle id="_路径_174" cx="1.09880018" cy="2.73489502" r="1"></circle>
                    <circle id="_路径_175" cx="1.09880018" cy="2.85986883" r="1"></circle>
                    <circle id="_路径_176" cx="1.09880018" cy="2.98484265" r="1"></circle>
                    <path d="M1.11246538,3.09429848 C1.11194599,3.11064705 1.09881395,3.12377909 1.08246538,3.12429848 C1.06589683,3.12429848 1.05246538,3.11086703 1.05246538,3.09429848 C1.05218302,3.08625875 1.05525296,3.07846297 1.06094141,3.07277452 C1.06662987,3.06708606 1.07442564,3.06401612 1.08246538,3.06429848 C1.09903392,3.06429848 1.11246538,3.07772994 1.11246538,3.09429848 Z" id="_路径_177"></path>
                    <path d="M1.11246538,3.2192723 C1.11194599,3.23562087 1.09881395,3.24875291 1.08246538,3.2492723 C1.06589683,3.2492723 1.05246538,3.23584084 1.05246538,3.2192723 C1.05218302,3.21123257 1.05525296,3.20343679 1.06094141,3.19774833 C1.06662987,3.19205988 1.07442564,3.18898994 1.08246538,3.1892723 C1.09903392,3.1892723 1.11246538,3.20270376 1.11246538,3.2192723 Z" id="_路径_178"></path>
                    <circle id="_路径_179" cx="1.09880018" cy="3.3597641" r="1"></circle>
                    <circle id="_路径_180" cx="1.09880018" cy="3.48473792" r="1"></circle>
                    <path d="M1.11246538,3.59419375 C1.11194599,3.61054232 1.09881395,3.62367436 1.08246538,3.62419375 C1.06589683,3.62419375 1.05246538,3.61076229 1.05246538,3.59419375 C1.05218302,3.58615402 1.05525296,3.57835824 1.06094141,3.57266979 C1.06662987,3.56698133 1.07442564,3.56391139 1.08246538,3.56419375 C1.09903392,3.56419375 1.11246538,3.57762521 1.11246538,3.59419375 Z" id="_路径_181"></path>
                    <path d="M1.11246374,3.71916593 C1.11194435,3.7355145 1.09881231,3.74864654 1.08246374,3.74916593 C1.0658952,3.74916593 1.05246374,3.73573447 1.05246374,3.71916593 C1.05246374,3.70259739 1.0658952,3.68916593 1.08246374,3.68916593 C1.09881231,3.68968532 1.11194435,3.70281736 1.11246374,3.71916593 L1.11246374,3.71916593 Z" id="_路径_182"></path>
                    <circle id="_路径_183" cx="1.09880018" cy="3.86047619" r="1"></circle>
                    <circle id="_路径_184" cx="1.09880018" cy="3.98545001" r="1"></circle>
                    <path d="M1.11246538,4.09408574 C1.11246538,4.11065429 1.09903392,4.12408574 1.08246538,4.12408574 C1.07442564,4.1243681 1.06662987,4.12129816 1.06094141,4.11560971 C1.05525296,4.10992125 1.05218302,4.10212548 1.05246538,4.09408574 C1.05246538,4.0775172 1.06589683,4.06408574 1.08246538,4.06408574 C1.09881395,4.06460513 1.11194599,4.07773717 1.11246538,4.09408574 L1.11246538,4.09408574 Z" id="_路径_185"></path>
                    <path d="M1.11246538,4.21905956 C1.11246538,4.2356281 1.09903392,4.24905956 1.08246538,4.24905956 C1.07442564,4.24934192 1.06662987,4.24627198 1.06094141,4.24058353 C1.05525296,4.23489507 1.05218302,4.22709929 1.05246538,4.21905956 C1.05246538,4.20249102 1.06589683,4.18905956 1.08246538,4.18905956 C1.09881395,4.18957895 1.11194599,4.20271099 1.11246538,4.21905956 L1.11246538,4.21905956 Z" id="_路径_186"></path>
                    <path d="M1.11246538,4.34403338 C1.11246538,4.36060192 1.09903392,4.37403338 1.08246538,4.37403338 C1.07442564,4.37431574 1.06662987,4.3712458 1.06094141,4.36555734 C1.05525296,4.35986889 1.05218302,4.35207311 1.05246538,4.34403338 C1.05246538,4.32746484 1.06589683,4.31403338 1.08246538,4.31403338 C1.09881395,4.31455277 1.11194599,4.32768481 1.11246538,4.34403338 L1.11246538,4.34403338 Z" id="_路径_187"></path>
                    <circle id="_路径_188" cx="1.09880018" cy="4.48534528" r="1"></circle>
                    <circle id="_路径_189" cx="1.09880018" cy="4.6103191" r="1"></circle>
                    <path d="M1.1129633,4.71886488 C1.1129633,4.73543342 1.09953184,4.74886488 1.0829633,4.74886488 C1.07112839,4.75105308 1.05913138,4.74595658 1.05248999,4.7359194 C1.04584859,4.72588221 1.04584859,4.71284755 1.05248999,4.70281036 C1.05913138,4.69277318 1.07112839,4.68767668 1.0829633,4.68986488 C1.09914904,4.68985589 1.11242377,4.70268813 1.1129633,4.71886488 Z" id="_路径_190"></path>
                    <path d="M1.1129633,4.8438387 C1.1129633,4.86040724 1.09953184,4.8738387 1.0829633,4.8738387 C1.07112839,4.87602689 1.05913138,4.8709304 1.05248999,4.86089321 C1.04584859,4.85085603 1.04584859,4.83782137 1.05248999,4.82778418 C1.05913138,4.81774699 1.07112839,4.8126505 1.0829633,4.8148387 C1.09914904,4.8148297 1.11242377,4.82766194 1.1129633,4.8438387 Z" id="_路径_191"></path>
                    <circle id="_路径_192" cx="1.09880018" cy="4.98524055" r="1"></circle>
                    <circle id="_路径_193" cx="1.09880018" cy="5.11021437" r="1"></circle>
                    <path d="M1.1129633,5.21976015 C1.11242377,5.2359369 1.09914904,5.24876914 1.0829633,5.24876015 C1.07112839,5.25094835 1.05913138,5.24585185 1.05248999,5.23581467 C1.04584859,5.22577748 1.04584859,5.21274282 1.05248999,5.20270563 C1.05913138,5.19266845 1.07112839,5.18757195 1.0829633,5.18976015 C1.09953184,5.18976015 1.1129633,5.20319161 1.1129633,5.21976015 Z" id="_路径_194"></path>
                    <path d="M1.1129633,5.34473397 C1.11242377,5.36091072 1.09914904,5.37374296 1.0829633,5.37373397 C1.07112839,5.37592216 1.05913138,5.37082567 1.05248999,5.36078848 C1.04584859,5.3507513 1.04584859,5.33771664 1.05248999,5.32767945 C1.05913138,5.31764226 1.07112839,5.31254577 1.0829633,5.31473397 C1.09953184,5.31473397 1.1129633,5.32816542 1.1129633,5.34473397 L1.1129633,5.34473397 Z" id="_路径_195"></path>
                    <circle id="_路径_196" cx="1.09880018" cy="5.48513582" r="1"></circle>
                    <circle id="_路径_197" cx="1.09880018" cy="5.61010964" r="1"></circle>
                    <path d="M1.11246538,5.71956547 C1.11194599,5.73591404 1.09881395,5.74904608 1.08246538,5.74956547 C1.06589683,5.74956547 1.05246538,5.73613401 1.05246538,5.71956547 C1.05218302,5.71152573 1.05525296,5.70372996 1.06094141,5.6980415 C1.06662987,5.69235305 1.07442564,5.68928311 1.08246538,5.68956547 C1.09042187,5.68956547 1.09805249,5.69272617 1.10367858,5.69835227 C1.10930467,5.70397836 1.11246538,5.71160897 1.11246538,5.71956547 L1.11246538,5.71956547 Z" id="_路径_198"></path>
                    <path d="M1.11246538,5.8486234 C1.11194599,5.86497197 1.09881395,5.87810401 1.08246538,5.8786234 C1.06589683,5.8786234 1.05246538,5.86519194 1.05246538,5.8486234 C1.05218302,5.84058366 1.05525296,5.83278789 1.06094141,5.82709943 C1.06662987,5.82141098 1.07442564,5.81834104 1.08246538,5.8186234 C1.09903392,5.8186234 1.11246538,5.83205486 1.11246538,5.8486234 Z" id="_路径_199"></path>
                    <path d="M1.11246538,5.9695131 C1.11194599,5.98586168 1.09881395,5.99899371 1.08246538,5.9995131 C1.06589683,5.9995131 1.05246538,5.98608165 1.05246538,5.9695131 C1.05218302,5.96147337 1.05525296,5.95367759 1.06094141,5.94798914 C1.06662987,5.94230068 1.07442564,5.93923074 1.08246538,5.9395131 C1.09042187,5.9395131 1.09805249,5.94267381 1.10367858,5.9482999 C1.10930467,5.95392599 1.11246538,5.96155661 1.11246538,5.9695131 Z" id="_路径_200"></path>
                    <circle id="_路径_201" cx="1.09880018" cy="6.11000491" r="1"></circle>
                    <circle id="_路径_202" cx="1.09880018" cy="6.23497872" r="1"></circle>
                    <path d="M1.11246538,6.34443456 C1.11194599,6.36078313 1.09881395,6.37391516 1.08246538,6.37443456 C1.06589683,6.37443456 1.05246538,6.3610031 1.05246538,6.34443456 C1.05218302,6.33639482 1.05525296,6.32859905 1.06094141,6.32291059 C1.06662987,6.31722213 1.07442564,6.3141522 1.08246538,6.31443456 C1.09903392,6.31443456 1.11246538,6.32786601 1.11246538,6.34443456 Z" id="_路径_203"></path>
                    <path d="M1.11246374,6.46940673 C1.11194435,6.48575531 1.09881231,6.49888734 1.08246374,6.49940673 C1.0658952,6.49940673 1.05246374,6.48597527 1.05246374,6.46940673 C1.05246374,6.45283819 1.0658952,6.43940674 1.08246374,6.43940673 C1.09881231,6.43992612 1.11194435,6.45305816 1.11246374,6.46940673 L1.11246374,6.46940673 Z" id="_路径_204"></path>
                    <circle id="_路径_205" cx="1.09880018" cy="6.610717" r="1"></circle>
                    <circle id="_路径_206" cx="1.09880018" cy="6.73569082" r="1"></circle>
                    <path d="M1.11246538,6.84432655 C1.11246538,6.86089509 1.09903392,6.87432655 1.08246538,6.87432655 C1.07442564,6.87460891 1.06662987,6.87153897 1.06094141,6.86585051 C1.05525296,6.86016206 1.05218302,6.85236628 1.05246538,6.84432655 C1.05246538,6.827758 1.06589683,6.81432655 1.08246538,6.81432655 C1.09881395,6.81484594 1.11194599,6.82797798 1.11246538,6.84432655 L1.11246538,6.84432655 Z" id="_路径_207"></path>
                    <path d="M1.11246538,6.96930036 C1.11246538,6.97725686 1.10930467,6.98488748 1.10367858,6.99051357 C1.09805249,6.99613966 1.09042187,6.99930036 1.08246538,6.99930036 C1.07442564,6.99958272 1.06662987,6.99651278 1.06094141,6.99082433 C1.05525296,6.98513587 1.05218302,6.9773401 1.05246538,6.96930036 C1.05246538,6.95273182 1.06589683,6.93930036 1.08246538,6.93930036 C1.09881395,6.93981976 1.11194599,6.95295179 1.11246538,6.96930036 L1.11246538,6.96930036 Z" id="_路径_208"></path>
                    <circle id="_路径_209" cx="1.09880018" cy="7.11061227" r="1"></circle>
                    <circle id="_路径_210" cx="1.09880018" cy="7.23558608" r="1"></circle>
                    <path d="M1.11246538,7.34422182 C1.11246538,7.36079036 1.09903392,7.37422182 1.08246538,7.37422182 C1.07442564,7.37450418 1.06662987,7.37143424 1.06094141,7.36574578 C1.05525296,7.36005733 1.05218302,7.35226155 1.05246538,7.34422182 C1.05246538,7.33626532 1.05562608,7.3286347 1.06125217,7.32300861 C1.06687826,7.31738252 1.07450888,7.31422182 1.08246538,7.31422182 C1.09881395,7.31474121 1.11194599,7.32787324 1.11246538,7.34422182 Z" id="_路径_211"></path>
                </g>
                <g id="_编组_89" transform="translate(0.604116, 9.234993)">
                    <g id="_编组_90" transform="translate(0.000000, 0.088217)" fill="url(#linearGradient-37)">
                        <polygon id="_路径_212" points="4.95076017 3.02714357 0 0.164181289 -4.13186235e-16 -2.48162764e-16 4.94095831 2.82375481"></polygon>
                    </g>
                    <g id="_编组_91" transform="translate(4.940958, 2.836007)" fill="url(#linearGradient-38)">
                        <polygon id="_路径_213" points="0.943005181 2.70100948e-15 1 0.675438596 0.0621761658 1 -2.46977462e-17 0.271929825"></polygon>
                    </g>
                    <g id="_编组_92" fill="url(#linearGradient-39)">
                        <polygon id="_路径_214" points="0.164181289 1.71360164e-15 5.08961997 2.83600715 4.94095831 2.91197163 1.46045625e-16 0.0882168122"></polygon>
                    </g>
                </g>
                <path d="M5.27388894,13.0038116 C5.5816043,13.1797371 5.95942954,13.1797371 6.2671449,13.0038116 L6.9434738,12.6297069 L6.9434738,12.6043855 L6.25652621,12.9793069 C5.95533798,13.1512739 5.58569587,13.1512739 5.28450763,12.9793069 L0.0160035692,9.96523249 L0.0160035692,9.96523249 C0.0160035692,9.97503436 0.0225381479,9.98565305 0.0266222595,9.99627174 L5.27388894,13.0038116 Z" id="_路径_250" fill="url(#linearGradient-40)" opacity="0.5"></path>
                <path d="M5.27388894,12.8706695 C5.58147186,13.0470929 5.95956198,13.0470929 6.2671449,12.8706695 L6.9434738,12.4957481 L6.9434738,12.4712434 L6.25652621,12.8518826 C5.95533798,13.0238496 5.58569587,13.0238496 5.28450763,12.8518826 L0.0160035692,9.83699138 L0.00375123416,9.82882316 C0.00375123416,9.83780821 0.00375123416,9.84597643 0.00375123416,9.85496148 L0.00375123416,9.85496148 L5.27388894,12.8706695 Z" id="_路径_251" fill="url(#linearGradient-41)" opacity="0.5"></path>
                <path d="M5.76888328,12.8690374 C5.94380154,12.8693403 6.11569308,12.8234086 6.2671449,12.7358939 L6.9434738,12.3617892 L6.9434738,12.3364677 L6.25652621,12.7171069 C5.95533798,12.8890739 5.58569587,12.8890739 5.28450763,12.7171069 L0.0160035692,9.70384934 L0.00211758949,9.6948643 L0.00211758949,9.72100261 L0.00211758949,9.72100261 L5.27388894,12.7342602 C5.42432703,12.8215437 5.594961,12.8680034 5.76888328,12.8690374 L5.76888328,12.8690374 Z" id="_路径_252" fill="url(#linearGradient-42)" opacity="0.5"></path>
                <path d="M5.76888328,12.7342607 C5.94367738,12.7344291 6.11546644,12.6888065 6.2671449,12.601935 L6.9434738,12.2270135 L6.9434738,12.201692 L6.25652621,12.5823313 C5.95533798,12.7542982 5.58569587,12.7542982 5.28450763,12.5823313 L0.0160035692,9.56744001 L0.00211758949,9.55763815 L0.00211758949,9.58377646 L0.00211758949,9.58377646 L5.27143848,12.5986677 C5.42250234,12.6866854 5.59404983,12.7334454 5.76888328,12.7342607 Z" id="_路径_253" fill="url(#linearGradient-43)" opacity="0.5"></path>
            </g>
        </g>
    </g>
</svg>