<?xml version="1.0" encoding="UTF-8"?>
<svg width="24px" height="24px" viewBox="0 0 24 24" version="1.1" xmlns="http://www.w3.org/2000/svg" xmlns:xlink="http://www.w3.org/1999/xlink">
    <title>pingshan</title>
    <g id="图标" stroke="none" stroke-width="1" fill="none" fill-rule="evenodd">
        <g id="pingshan">
            <rect id="矩形备份-9" x="0" y="0" width="24" height="24"></rect>
            <path d="M17.3825572,2.48670421 L18.1961447,3.30029167 L18.639852,4.44125336 L18.12252,5.4759174 L18.2793503,6.41689902 L18.0317626,7.03586835 L17.3833841,7.92738866 L17.2904605,8.76370181 L17.3874027,9.92700849 L18.540572,10.6366511 L20.985193,12.5465101 L21.458549,12.9146759 L21.2089186,13.7134931 L19.6362384,14.4584468 L19.8231662,15.6734775 L19.5796402,16.6475817 L18.2229125,17.0214441 L17.8869845,17.5253361 L16.3700897,18.1754339 L15.3957084,18.6626245 L13.39394,18.5756689 L12.9574471,20.5398869 L11.4928387,19.7120647 L9.5296511,20.4802685 L8.82864973,20.8307692 L5.79204752,19.6327329 L5.53657583,18.7811606 L3.80986624,18.6167121 L3.35955463,18.1101115 L3.18601974,17.5027394 L2.61130103,17.1743287 L3.03067119,15.4299807 L3.94075508,15.2349628 L4.87309229,14.980689 L6.13541337,14.0153846 L6.89006274,14.0153846 L7.82536206,13.8075403 L8.66879885,14.057187 L8.77564864,12.027041 L10.0383536,10.8344864 L10.7909257,10.1759858 L10.7071932,7.74925572 L10.6316015,6.23742022 L10.6991617,5.42669788 L11.3172554,4.31412912 L13.0234112,4.24850774 L14.1335827,4.59543636 L14.6259189,4.92366044 L15.3597123,5.01538462 L16.7846154,5.01538462 L16.7846154,3.19775505 L17.3825572,2.48670421 Z" id="坪山区" stroke="#548FF7" stroke-width="0.8" fill="#0F57EF" fill-rule="nonzero"></path>
        </g>
    </g>
</svg>