<?xml version="1.0" encoding="UTF-8"?>
<svg width="14px" height="14px" viewBox="0 0 14 14" version="1.1" xmlns="http://www.w3.org/2000/svg" xmlns:xlink="http://www.w3.org/1999/xlink">
    <title>双碳现状</title>
    <defs>
        <path d="M13,0 C13.5522847,-1.01453063e-16 14,0.44771525 14,1 L14,9.5 C14,10.0522847 13.5522847,10.5 13,10.5 L1,10.5 C0.44771525,10.5 -4.87476137e-16,10.0522847 0,9.5 L0,1 C-6.76353751e-17,0.44771525 0.44771525,1.01453063e-16 1,0 L13,0 Z M4.4296875,3.390625 C2.94973696,3.390625 1.75,4.59036196 1.75,6.0703125 C1.75,7.55026304 2.94973696,8.75 4.4296875,8.75 C5.90963804,8.75 7.109375,7.55026304 7.109375,6.0703125 L4.4296875,6.0703125 Z M12.3375,3.4125 L11.2875,3.4125 L11.2875,7.9625 L12.3375,7.9625 L12.3375,3.4125 Z M10.5875,6.0375 L9.5375,6.0375 L9.5375,7.9625 L10.5875,7.9625 L10.5875,6.0375 Z M4.8125,2.625 L4.8125,5.6875 L7.875,5.6875 C7.875,3.99612795 6.50387205,2.625 4.8125,2.625 Z" id="path-1"></path>
        <filter x="-14.3%" y="-19.0%" width="128.6%" height="138.1%" filterUnits="objectBoundingBox" id="filter-2">
            <feGaussianBlur stdDeviation="1.5" in="SourceAlpha" result="shadowBlurInner1"></feGaussianBlur>
            <feOffset dx="0" dy="1" in="shadowBlurInner1" result="shadowOffsetInner1"></feOffset>
            <feComposite in="shadowOffsetInner1" in2="SourceAlpha" operator="arithmetic" k2="-1" k3="1" result="shadowInnerInner1"></feComposite>
            <feColorMatrix values="0 0 0 0 1   0 0 0 0 1   0 0 0 0 1  0 0 0 0.5 0" type="matrix" in="shadowInnerInner1"></feColorMatrix>
        </filter>
        <path d="M5.38754028,11.375 L8.61245972,11.375 C8.90930535,11.375 9.37052951,11.7107864 9.64263271,12.125 L10.3816624,13.25 C10.6537656,13.6642136 10.4406975,14 9.90576159,14 L4.09423841,14 C3.55930248,14 3.34623444,13.6642136 3.61833764,13.25 L4.35736729,12.125 C4.62947049,11.7107864 5.09069465,11.375 5.38754028,11.375 Z" id="path-3"></path>
        <filter x="-28.6%" y="-76.2%" width="157.1%" height="252.4%" filterUnits="objectBoundingBox" id="filter-4">
            <feGaussianBlur stdDeviation="1.5" in="SourceAlpha" result="shadowBlurInner1"></feGaussianBlur>
            <feOffset dx="0" dy="1" in="shadowBlurInner1" result="shadowOffsetInner1"></feOffset>
            <feComposite in="shadowOffsetInner1" in2="SourceAlpha" operator="arithmetic" k2="-1" k3="1" result="shadowInnerInner1"></feComposite>
            <feColorMatrix values="0 0 0 0 1   0 0 0 0 1   0 0 0 0 1  0 0 0 0.5 0" type="matrix" in="shadowInnerInner1"></feColorMatrix>
        </filter>
    </defs>
    <g id="页面-2" stroke="none" stroke-width="1" fill="none" fill-rule="evenodd">
        <g id="双碳现状">
            <rect id="底框" fill-opacity="0" fill="#FFFFFF" x="0" y="0" width="14" height="14"></rect>
            <g id="编组">
                <g id="形状结合">
                    <use fill="#DDE6FF" fill-rule="evenodd" xlink:href="#path-1"></use>
                    <use fill="black" fill-opacity="1" filter="url(#filter-2)" xlink:href="#path-1"></use>
                </g>
                <g id="矩形">
                    <use fill="#DDE6FF" fill-rule="evenodd" xlink:href="#path-3"></use>
                    <use fill="black" fill-opacity="1" filter="url(#filter-4)" xlink:href="#path-3"></use>
                </g>
            </g>
        </g>
    </g>
</svg>