<?xml version="1.0" encoding="UTF-8"?>
<svg width="42px" height="41px" viewBox="0 0 42 41" version="1.1" xmlns="http://www.w3.org/2000/svg" xmlns:xlink="http://www.w3.org/1999/xlink">
    <title>CA3E3DB1-78C3-44DD-A5C9-936039F91716</title>
    <defs>
        <linearGradient x1="5.25973986%" y1="32.6335919%" x2="94.4059541%" y2="65.273227%" id="linearGradient-1">
            <stop stop-color="#8B70FD" offset="0%"></stop>
            <stop stop-color="#C5B8FF" offset="100%"></stop>
        </linearGradient>
        <linearGradient x1="-7.34834481%" y1="50%" x2="111.976955%" y2="50%" id="linearGradient-2">
            <stop stop-color="#FFFFFF" offset="0%"></stop>
            <stop stop-color="#FFFFFF" stop-opacity="0" offset="100%"></stop>
        </linearGradient>
        <path d="M10.5,16 L14.5,16 C15.3284271,16 16,16.6715729 16,17.5 C16,18.3284271 15.3284271,19 14.5,19 L10.5,19 C9.67157288,19 9,18.3284271 9,17.5 C9,16.6715729 9.67157288,16 10.5,16 Z" id="path-3"></path>
        <filter x="-28.6%" y="-33.3%" width="157.1%" height="233.3%" filterUnits="objectBoundingBox" id="filter-4">
            <feOffset dx="0" dy="1" in="SourceAlpha" result="shadowOffsetOuter1"></feOffset>
            <feGaussianBlur stdDeviation="0.5" in="shadowOffsetOuter1" result="shadowBlurOuter1"></feGaussianBlur>
            <feColorMatrix values="0 0 0 0 0.403921569   0 0 0 0 0.28627451   0 0 0 0 0.917647059  0 0 0 0.4 0" type="matrix" in="shadowBlurOuter1"></feColorMatrix>
        </filter>
    </defs>
    <g id="入口卡片" stroke="none" stroke-width="1" fill="none" fill-rule="evenodd">
        <g id="卡片项---功能入口卡片" transform="translate(-759.000000, -3823.000000)">
            <g id="功能入口卡片" transform="translate(181.000000, 381.000000)">
                <g id="自定义" transform="translate(0.000000, 2907.000000)">
                    <g id="2" transform="translate(7.000000, 414.000000)">
                        <g id="自定义-1" transform="translate(0.000000, 42.000000)">
                            <g id="卡片" transform="translate(20.000000, 62.000000)">
                                <g id="Card备份-9" transform="translate(520.000000, 0.000000)">
                                    <g id="我喜欢的" transform="translate(33.000000, 18.000000)">
                                        <rect id="矩形" fill="#000000" fill-rule="nonzero" opacity="0" x="2.27373675e-13" y="0" width="40" height="40"></rect>
                                        <path d="M17.7027958,8.2027958 L28.7027958,8.2027958 C33.1210738,8.2027958 36.7027958,11.7845178 36.7027958,16.2027958 C36.7027958,20.6210738 33.1210738,24.2027958 28.7027958,24.2027958 L13.7027958,24.2027958 C11.4936568,24.2027958 9.7027958,22.4119348 9.7027958,20.2027958 L9.7027958,16.2027958 C9.7027958,11.7845178 13.2845178,8.2027958 17.7027958,8.2027958 Z" id="矩形" fill="#6749EA" transform="translate(23.202796, 16.202796) rotate(-45.000000) translate(-23.202796, -16.202796) "></path>
                                        <path d="M2.686091,7.74650028 L20.9165645,7.7739833 C23.261269,7.77751988 25.3830638,8.73016388 26.9186825,10.2681005 C28.4543012,11.8060372 29.4037437,13.9292665 29.4037437,16.2739736 C29.4037437,18.6210663 28.4573122,20.7341937 26.927646,22.2638599 C25.3977862,23.7937197 23.2843045,24.7399577 20.9469336,24.7399494 L20.9469336,24.7399494 L5.70551389,24.6520497 C4.47136607,24.6449214 3.355264,24.1413801 2.54650301,23.3310811 C1.73774202,22.5207821 1.23632212,21.4037253 1.23153863,20.1695662 L1.23153863,20.1695662 L1.18922438,9.25230602 C1.18761894,8.83809557 1.35405744,8.46244765 1.62444992,8.18995099 C1.8948424,7.91745432 2.26918885,7.74810891 2.686091,7.74650028 L2.686091,7.74650028 Z" id="矩形备份-13" stroke="url(#linearGradient-2)" fill-opacity="0.7" fill="url(#linearGradient-1)" transform="translate(15.294534, 16.265504) scale(-1, 1) rotate(-45.000000) translate(-15.294534, -16.265504) "></path>
                                        <g id="形状结合备份" transform="translate(12.500000, 17.500000) rotate(45.000000) translate(-12.500000, -17.500000) ">
                                            <use fill="black" fill-opacity="1" filter="url(#filter-4)" xlink:href="#path-3"></use>
                                            <use fill="#FFFFFF" fill-rule="evenodd" xlink:href="#path-3"></use>
                                        </g>
                                    </g>
                                </g>
                            </g>
                        </g>
                    </g>
                </g>
            </g>
        </g>
    </g>
</svg>