<?xml version="1.0" encoding="UTF-8"?>
<svg width="26px" height="26px" viewBox="0 0 26 26" version="1.1" xmlns="http://www.w3.org/2000/svg" xmlns:xlink="http://www.w3.org/1999/xlink">
    <title>3A656107-E8C0-4783-8FDF-8E52E34CBBB6</title>
    <defs>
        <linearGradient x1="50%" y1="0%" x2="50%" y2="100%" id="linearGradient-1">
            <stop stop-color="#4580B1" offset="0%"></stop>
            <stop stop-color="#407098" offset="100%"></stop>
        </linearGradient>
        <linearGradient x1="50%" y1="0%" x2="50%" y2="100%" id="linearGradient-2">
            <stop stop-color="#F9C557" offset="0%"></stop>
            <stop stop-color="#FCDB6B" offset="100%"></stop>
        </linearGradient>
    </defs>
    <g id="V1.0" stroke="none" stroke-width="1" fill="none" fill-rule="evenodd">
        <g id="工具列表页-A" transform="translate(-885.000000, -236.000000)">
            <g id="内容区" transform="translate(300.000000, 124.000000)">
                <g id="应用/电网项目" transform="translate(20.000000, 80.000000)">
                    <g id="卡片/鼠标悬浮" transform="translate(532.000000, 0.000000)">
                        <g id="logo" transform="translate(26.000000, 25.000000)">
                            <g id="Icon-python" transform="translate(7.000000, 7.000000)">
                                <path d="M7,5 C7,2.790861 8.790861,1 11,1 L15,1 C17.209139,1 19,2.790861 19,5 L19,9 L18.9951047,9.19964034 C18.8944345,11.2477608 17.253315,12.8909069 15.2060394,12.9947851 L15,13 L10,13 C7.85780461,13 6.10892112,14.6839685 6.00489531,16.8003597 L6,17 L6,20 L5,20 C2.23857625,20 3.38176876e-16,17.7614237 0,15 L0,13 C-3.38176876e-16,10.2385763 2.23857625,8 5,8 L13,8 L13,7 L7,7 L7,5 Z M10,3 C9.44771525,3 9,3.44771525 9,4 C9,4.55228475 9.44771525,5 10,5 C10.5522847,5 11,4.55228475 11,4 C11,3.44771525 10.5522847,3 10,3 Z" id="形状结合" fill="url(#linearGradient-1)"></path>
                                <path d="M14,11 C14,8.790861 15.790861,7 18,7 L22,7 C24.209139,7 26,8.790861 26,11 L26,15 L25.9951047,15.1996403 C25.8944345,17.2477608 24.253315,18.8909069 22.2060394,18.9947851 L22,19 L17,19 C14.8578046,19 13.1089211,20.6839685 13.0048953,22.8003597 L13,23 L13,26 L12,26 C9.23857625,26 7,23.7614237 7,21 L7,19 C7,16.2385763 9.23857625,14 12,14 L20,14 L20,13 L14,13 L14,11 Z M17,9 C16.4477153,9 16,9.44771525 16,10 C16,10.5522847 16.4477153,11 17,11 C17.5522847,11 18,10.5522847 18,10 C18,9.44771525 17.5522847,9 17,9 Z" id="形状结合备份" fill="url(#linearGradient-2)" transform="translate(16.500000, 16.500000) scale(-1, -1) translate(-16.500000, -16.500000) "></path>
                            </g>
                        </g>
                    </g>
                </g>
            </g>
        </g>
    </g>
</svg>