<?xml version="1.0" encoding="UTF-8"?>
<svg width="14px" height="14px" viewBox="0 0 14 14" version="1.1" xmlns="http://www.w3.org/2000/svg" xmlns:xlink="http://www.w3.org/1999/xlink">
    <title>配额</title>
    <defs>
        <path d="M7,0 C10.8659932,0 14,3.13400675 14,7 C14,10.8659932 10.8659932,14 7,14 C3.13400675,14 0,10.8659932 0,7 C0,3.13400675 3.13400675,0 7,0 Z M7,1.08423913 C3.73281549,1.08423913 1.08423913,3.73281549 1.08423913,7 C1.08423913,10.2671845 3.73281549,12.9157609 7,12.9157609 C10.2671845,12.9157609 12.9157609,10.2671845 12.9157609,7 C12.9157609,3.73281549 10.2671845,1.08423913 7,1.08423913 Z M7,1.95923913 C9.78393536,1.95923913 12.0407609,4.21606464 12.0407609,7 C12.0407609,9.78393536 9.78393536,12.0407609 7,12.0407609 C4.21606464,12.0407609 1.95923913,9.78393536 1.95923913,7 C1.95923913,4.21606464 4.21606464,1.95923913 7,1.95923913 Z M7.12173913,3.70086957 C6.08086957,3.70086957 5.28652174,4.03869565 4.73869565,4.7326087 C4.25478261,5.33521739 4.0173913,6.12956522 4.0173913,7.0973913 C4.0173913,8.08347826 4.24565217,8.86869565 4.71130435,9.45304348 C5.24086957,10.1286957 6.05347826,10.4756522 7.14,10.4756522 C7.84304348,10.4756522 8.44565217,10.2747826 8.94782609,9.87304348 C9.48652174,9.44391304 9.82434783,8.85043478 9.97043478,8.08347826 L8.92956522,8.08347826 C8.80173913,8.57652174 8.5826087,8.95086957 8.27217391,9.1973913 C7.98,9.41652174 7.59652174,9.53521739 7.13086957,9.53521739 C6.41869565,9.53521739 5.88913043,9.30695652 5.55130435,8.86869565 C5.24086957,8.45782609 5.08565217,7.86434783 5.08565217,7.0973913 C5.08565217,6.34869565 5.24086957,5.76434783 5.56043478,5.34434783 C5.9073913,4.86956522 6.41869565,4.64130435 7.10347826,4.64130435 C7.56,4.64130435 7.93434783,4.7326087 8.22652174,4.93347826 C8.52782609,5.13434783 8.72869565,5.44478261 8.83826087,5.87391304 L9.87913043,5.87391304 C9.77869565,5.21652174 9.49565217,4.68695652 9.02086957,4.30347826 C8.52782609,3.90173913 7.88869565,3.70086957 7.12173913,3.70086957 Z" id="path-1"></path>
        <filter x="-14.3%" y="-14.3%" width="128.6%" height="128.6%" filterUnits="objectBoundingBox" id="filter-2">
            <feGaussianBlur stdDeviation="1.5" in="SourceAlpha" result="shadowBlurInner1"></feGaussianBlur>
            <feOffset dx="0" dy="1" in="shadowBlurInner1" result="shadowOffsetInner1"></feOffset>
            <feComposite in="shadowOffsetInner1" in2="SourceAlpha" operator="arithmetic" k2="-1" k3="1" result="shadowInnerInner1"></feComposite>
            <feColorMatrix values="0 0 0 0 1   0 0 0 0 1   0 0 0 0 1  0 0 0 0.5 0" type="matrix" in="shadowInnerInner1"></feColorMatrix>
        </filter>
    </defs>
    <g id="页面-2" stroke="none" stroke-width="1" fill="none" fill-rule="evenodd">
        <g id="配额">
            <rect id="矩形" x="0" y="0" width="14" height="14"></rect>
            <g id="形状结合">
                <use fill="#DDE6FF" fill-rule="evenodd" xlink:href="#path-1"></use>
                <use fill="black" fill-opacity="1" filter="url(#filter-2)" xlink:href="#path-1"></use>
            </g>
            <g id="C" transform="translate(4.017391, 3.700870)"></g>
        </g>
    </g>
</svg>