<?xml version="1.0" encoding="UTF-8"?>
<svg width="32px" height="32px" viewBox="0 0 32 32" version="1.1" xmlns="http://www.w3.org/2000/svg" xmlns:xlink="http://www.w3.org/1999/xlink">
    <title>9FB8E5F7-E06A-4895-AE34-55F0C094DA98</title>
    <g id="页面-1" stroke="none" stroke-width="1" fill="none" fill-rule="evenodd">
        <g id="工具高危命令的三个小图标-" transform="translate(-153.000000, -185.000000)">
            <g id="编组" transform="translate(74.000000, 76.000000)">
                <g id="字符串" transform="translate(79.000000, 109.000000)">
                    <rect id="矩形备份" fill="#D8D8D8" opacity="0" x="0" y="0" width="32" height="32"></rect>
                    <g transform="translate(0.000000, 6.000000)">
                        <path d="M32,6.6894347 L32,17.1429528 C31.9953192,18.7189483 30.6956544,19.9954028 29.0910021,20 L2.90899801,20 C1.30434565,19.9954028 0.00468085301,18.7189483 0,17.1429528 L0,2.85704726 C0,2.09925678 0.306243908,1.37245241 0.851826065,0.836613611 C1.39740822,0.300774809 2.13742834,0 2.90899801,0 L25.1984744,0 C26.0981671,0 26.9608841,0.351592613 27.5961051,0.977349279 L31.0113566,4.34064928 C31.6444222,4.96421609 32,5.80885486 32,6.6894347 L32,6.6894347 Z" id="路径" fill="#0071EB" fill-rule="nonzero"></path>
                        <g id="编组-4" transform="translate(6.000000, 4.000000)" fill="#FFFFFF">
                            <polygon id="路径" points="6 8.92289761 4.77396675 10 0 5.86197825 4.77396675 2 6 2.97941868 2.2897936 5.86197825"></polygon>
                            <polygon id="路径备份" transform="translate(17.000000, 6.000000) scale(-1, 1) translate(-17.000000, -6.000000) " points="20 8.92289761 18.7739667 10 14 5.86197825 18.7739667 2 20 2.97941868 16.2897936 5.86197825"></polygon>
                            <polygon id="路径" points="9.95887218 12 7.62314402 12 9.95887218 0 12.2955545 0"></polygon>
                        </g>
                    </g>
                </g>
            </g>
        </g>
    </g>
</svg>