<svg width="32" height="32" xmlns="http://www.w3.org/2000/svg"><g fill="none" fill-rule="evenodd"><path d="M32 12.69v10.453c-.005 1.576-1.304 2.852-2.909 2.857H2.909C1.304 25.995.005 24.719 0 23.143V8.857c0-.758.306-1.485.852-2.02A2.936 2.936 0 0 1 2.909 6h22.29c.9 0 1.762.352 2.397.977l3.415 3.364c.633.623.989 1.468.989 2.348z" fill="#0071EB" fill-rule="nonzero"/><path d="M12 18.923L10.774 20 6 15.862 10.774 12l1.226.98-3.71 2.882zm8 0L21.226 20 26 15.862 21.226 12 20 12.98l3.71 2.882zM15.959 22h-2.336l2.336-12h2.337z" fill="#FFF"/></g></svg>