<?xml version="1.0" encoding="UTF-8"?>
<svg width="32px" height="32px" viewBox="0 0 32 32" version="1.1" xmlns="http://www.w3.org/2000/svg" xmlns:xlink="http://www.w3.org/1999/xlink">
    <title>CB8E84E4-E1BD-4B62-9D1B-B18A1E047E13</title>
    <g id="页面-1" stroke="none" stroke-width="1" fill="none" fill-rule="evenodd">
        <g id="工具高危命令的三个小图标-" transform="translate(-153.000000, -135.000000)">
            <g id="编组" transform="translate(74.000000, 76.000000)">
                <g id="正则" transform="translate(79.000000, 59.000000)">
                    <rect id="矩形备份" fill="#D8D8D8" opacity="0" x="0" y="0" width="32" height="32"></rect>
                    <g id="字符串" transform="translate(0.000000, 6.000000)" fill-rule="nonzero">
                        <path d="M32,6.6894347 L32,17.1429528 C31.9953192,18.7189483 30.6956544,19.9954028 29.0910021,20 L2.90899801,20 C1.30434565,19.9954028 0.00468085301,18.7189483 0,17.1429528 L0,2.85704726 C0,2.09925678 0.306243908,1.37245241 0.851826065,0.836613611 C1.39740822,0.300774809 2.13742834,0 2.90899801,0 L25.1984744,0 C26.0981671,0 26.9608841,0.351592613 27.5961051,0.977349279 L31.0113566,4.34064928 C31.6444222,4.96421609 32,5.80885486 32,6.6894347 L32,6.6894347 Z" id="路径" fill="#13C2C2"></path>
                        <path d="M6.03722865,11.3969971 C6.8430812,12.0425393 7.75842583,12.3653104 8.78326255,12.3653104 C9.36507569,12.3653104 9.80258446,12.2684457 10.0957889,12.0747165 C10.3889933,11.8809873 10.5354806,11.6324458 10.5352508,11.329092 C10.5352508,11.0672358 10.4189801,10.8196929 10.1864387,10.5864633 C9.95389723,10.3532338 9.33968455,10.0363434 8.34380062,9.63579211 C6.77989059,8.99513201 5.99862493,8.06310139 6.00000182,6.83970024 C6.00000182,5.94095643 6.3542157,5.24282111 7.06263983,4.74529429 C7.77106396,4.24776747 8.70938699,3.99933693 9.87760894,4.00000133 C10.8555697,4.00000133 11.6761284,4.12272003 12.3392851,4.36815476 L12.3392851,6.30278403 C11.6662477,5.86184478 10.879697,5.64137516 9.97963304,5.64137516 C9.45411699,5.64137516 9.03384202,5.73380153 8.71880814,5.91865427 C8.40377425,6.10350701 8.24671687,6.35227042 8.24763601,6.6649445 C8.24763601,6.91459556 8.35528982,7.14438549 8.57059744,7.35431429 C8.78590507,7.5642431 9.31785507,7.84829052 10.1664474,8.20645658 C11.161642,8.61854726 11.845709,9.05338392 12.2186485,9.51096658 C12.591588,9.96854923 12.7778279,10.5135652 12.7773692,11.1460146 C12.7773692,12.0740508 12.4369433,12.7813955 11.7560933,13.2680486 C11.0752432,13.7547017 10.1081972,13.9985831 8.85495517,13.9996926 C7.70902227,13.9996926 6.7697801,13.8208315 6.03722865,13.4631093 L6.03722865,11.3969971 Z M18.0895153,13.7500416 C17.7751707,13.9164756 17.299288,13.9996926 16.6618672,13.9996926 C15.1452927,13.9996926 14.3870054,13.2299907 14.3870054,11.6905868 L14.3870054,8.432474 L13.2109708,8.432474 L13.2109708,6.92824315 L14.3870054,6.92824315 L14.3870054,5.41169619 L16.460921,4.83749875 L16.460921,6.92824315 L18.0895153,6.92824315 L18.0895153,8.432474 L16.460921,8.432474 L16.460921,11.3410753 C16.460921,12.0773795 16.7625126,12.4455316 17.3656956,12.4455316 C17.5984668,12.4455316 17.83974,12.3789579 18.0895153,12.2458107 L18.0895153,13.7500416 Z M23.9190209,8.75702038 C23.66465,8.6156624 23.3567394,8.54498341 22.9952892,8.54498341 C22.5214745,8.54498341 22.1452032,8.71973915 21.8664752,9.06925064 C21.5877472,9.41876212 21.4489576,9.89931267 21.4501065,10.5109023 L21.4501065,13.8299299 L19.3630932,13.8299299 L19.3630932,6.92824315 L21.4497619,6.92824315 L21.4497619,8.22642866 L21.4756126,8.22642866 C21.8202886,7.28197096 22.4473692,6.80974212 23.3568543,6.80974212 C23.6026083,6.80974212 23.7894227,6.83670443 23.9186762,6.89096193 L23.9190209,8.75702038 Z M23.5254009,12.9261931 C23.5180168,12.6290782 23.6538891,12.3454907 23.8931702,12.1585993 C24.1386655,11.9588273 24.4511419,11.8523197 24.7720941,11.859018 C25.1167701,11.859018 25.4077916,11.9609866 25.6451585,12.1649238 C25.8752598,12.3547299 26.0053687,12.6339965 25.9998301,12.9261931 C25.9998301,13.246856 25.8816062,13.5059383 25.6451585,13.70344 C25.4087107,13.9009418 25.1090723,13.9996926 24.7462434,13.9996926 C24.4292987,14.006587 24.1214138,13.8972858 23.8845533,13.6937869 C23.6511084,13.5033141 23.5191413,13.2212692 23.5254009,12.9261931 L23.5254009,12.9261931 Z" id="形状" fill="#FFFFFF"></path>
                    </g>
                </g>
            </g>
        </g>
    </g>
</svg>