<?xml version="1.0" encoding="UTF-8"?>
<svg width="100px" height="100px" viewBox="0 0 100 100" version="1.1" xmlns="http://www.w3.org/2000/svg" xmlns:xlink="http://www.w3.org/1999/xlink">
    <title>图形</title>
    <g id="页面-1" stroke="none" stroke-width="1" fill="none" fill-rule="evenodd" opacity="0.449999988">
        <g id="图形">
            <path d="M50.7653669,0.317025336 L84.5899722,14.3276356 C85.0800284,14.5306235 85.4693765,14.9199716 85.6723644,15.4100278 L99.6829747,49.2346331 C99.8859626,49.7246893 99.8859626,50.2753107 99.6829747,50.7653669 L85.6723644,84.5899722 C85.4693765,85.0800284 85.0800284,85.4693765 84.5899722,85.6723644 L50.7653669,99.6829747 C50.2753107,99.8859626 49.7246893,99.8859626 49.2346331,99.6829747 L15.4100278,85.6723644 C14.9199716,85.4693765 14.5306235,85.0800284 14.3276356,84.5899722 L0.317025336,50.7653669 C0.114037422,50.2753107 0.114037422,49.7246893 0.317025336,49.2346331 L14.3276356,15.4100278 C14.5306235,14.9199716 14.9199716,14.5306235 15.4100278,14.3276356 L49.2346331,0.317025336 C49.7246893,0.114037422 50.2753107,0.114037422 50.7653669,0.317025336 Z" id="多边形" fill="#0071EB" opacity="0.149999991"></path>
            <g id="编组-10" transform="translate(26.000000, 26.000000)">
                <rect id="矩形" x="0" y="0" width="48" height="48"></rect>
                <path d="M34,0 C36.209139,-4.05812251e-16 38,1.790861 38,4 L38,7 L11,7 C8.85780461,7 7.10892112,8.68396847 7.00489531,10.8003597 L7,11 L7,38 L4,38 C1.790861,38 2.705415e-16,36.209139 0,34 L0,4 C-2.705415e-16,1.790861 1.790861,4.05812251e-16 4,0 L34,0 Z" id="形状结合" fill="#0071EB"></path>
                <path d="M44,10 C46.209139,10 48,11.790861 48,14 L48,44 C48,46.209139 46.209139,48 44,48 L14,48 C11.790861,48 10,46.209139 10,44 L10,14 C10,11.790861 11.790861,10 14,10 L44,10 Z M28.3333333,17.5 C22.9025333,17.5 18.5,21.9025333 18.5,27.3333333 C18.5,32.7641334 22.9025333,37.1666667 28.3333333,37.1666667 C30.2684706,37.1666667 32.0730504,36.6076837 33.5944134,35.6423771 L33.5944134,35.6423771 L37.3990516,39.4462979 L37.512974,39.5492681 C38.1021347,40.0297961 38.9711971,39.9954726 39.5203719,39.4462979 C40.1061584,38.8605114 40.1061584,37.910764 39.5203719,37.3249775 L39.5203719,37.3249775 L35.8583378,33.6636655 C37.2987771,31.9531545 38.1666667,29.7445972 38.1666667,27.3333333 C38.1666667,21.9025333 33.7641334,17.5 28.3333333,17.5 Z M28.3333333,20.5 C32.1072791,20.5 35.1666667,23.5593875 35.1666667,27.3333333 C35.1666667,31.1072791 32.1072791,34.1666667 28.3333333,34.1666667 C24.5593875,34.1666667 21.5,31.1072791 21.5,27.3333333 C21.5,23.5593875 24.5593875,20.5 28.3333333,20.5 Z" id="形状结合" fill="#0071EB"></path>
                <g id="编组-8" transform="translate(18.000000, 17.000000)"></g>
            </g>
        </g>
    </g>
</svg>