<?xml version="1.0" standalone="no"?><!DOCTYPE svg PUBLIC "-//W3C//DTD SVG 1.1//EN" "http://www.w3.org/Graphics/SVG/1.1/DTD/svg11.dtd"><svg t="1610348734224" class="icon" viewBox="0 0 1024 1024" version="1.1" xmlns="http://www.w3.org/2000/svg" p-id="11728" xmlns:xlink="http://www.w3.org/1999/xlink" width="32" height="32"><defs><style type="text/css"></style></defs><path d="M222.208 276.48l123.904 123.904c15.36 15.36 38.912 15.36 54.272 0s15.36-38.912 0-54.272L276.48 222.208c-15.36-15.36-38.912-15.36-54.272 0s-14.336 38.912 0 54.272z m-81.92 273.408h175.104c21.504 0 37.888-17.408 37.888-37.888s-17.408-37.888-37.888-37.888H140.288C118.784 474.112 102.4 491.52 102.4 512s17.408 37.888 37.888 37.888zM276.48 801.792l123.904-123.904c15.36-15.36 15.36-38.912 0-54.272s-38.912-15.36-54.272 0L222.208 747.52c-15.36 15.36-15.36 38.912 0 54.272 15.36 14.336 38.912 14.336 54.272 0z m273.408 81.92V708.608c0-21.504-17.408-37.888-37.888-37.888s-37.888 17.408-37.888 37.888v175.104c0 21.504 17.408 37.888 37.888 37.888s37.888-17.408 37.888-37.888zM801.792 747.52L677.888 623.616c-15.36-15.36-38.912-15.36-54.272 0s-15.36 38.912 0 54.272L747.52 801.792c15.36 15.36 38.912 15.36 54.272 0 14.336-15.36 14.336-38.912 0-54.272z m81.92-273.408H708.608c-21.504 0-37.888 17.408-37.888 37.888s17.408 37.888 37.888 37.888h175.104c21.504 0 37.888-17.408 37.888-37.888s-17.408-37.888-37.888-37.888zM747.52 222.208L623.616 346.112c-15.36 15.36-15.36 38.912 0 54.272s38.912 15.36 54.272 0L801.792 276.48c15.36-15.36 15.36-38.912 0-54.272-15.36-14.336-38.912-14.336-54.272 0z m-273.408-81.92v175.104c0 21.504 17.408 37.888 37.888 37.888s37.888-17.408 37.888-37.888V140.288c0-21.504-17.408-37.888-37.888-37.888s-37.888 17.408-37.888 37.888z" p-id="11729"></path></svg>