<?xml version="1.0" encoding="UTF-8"?>
<svg width="16px" height="16px" viewBox="0 0 16 16" version="1.1" xmlns="http://www.w3.org/2000/svg" xmlns:xlink="http://www.w3.org/1999/xlink">
    <title>图标-OOM</title>
    <g id="页面-1" stroke="none" stroke-width="1" fill="none" fill-rule="evenodd">
        <g id="节点方案-终稿" transform="translate(-986, -173)" fill="#FAAD14">
            <g id="编组-2" transform="translate(24, 150)">
                <g id="图例" transform="translate(756, 22)">
                    <g id="编组-3备份-2" transform="translate(206, 0)">
                        <g id="图标-OOM" transform="translate(0.5, 1.75)">
                            <g id="骷髅头" transform="translate(0, -0)">
                                <path d="M15,7.46016758 C15,6.94942759 14.4286262,0 7.41635193,0 C1.16222117,0 0,6.21297061 0,7.49645933 C0,12.1342795 4.3682875,12.8450667 4.3682875,12.8450667 C4.13017821,14.0856249 4.99940989,14.9552992 6.3807093,14.3361265 C7.50973681,15.0951552 8.32010504,14.3945474 8.32010504,14.3945474 C9.23580786,14.8906822 10.6432196,14.2923109 10.4453853,12.8326744 C10.4453853,12.8326744 15,11.9271509 15,7.46016758 L15,7.46016758 Z M4.38156497,9.31370234 C3.22509737,9.31370234 2.28726543,8.22317951 2.28726543,6.87772925 C2.28726543,5.53316416 3.22509737,4.44264133 4.38156497,4.44264133 C5.5371474,4.44264133 6.4749795,5.53316416 6.4749795,6.87772925 C6.47542193,8.22317951 5.53758999,9.31370234 4.38156497,9.31370234 L4.38156497,9.31370234 Z M8.41924348,10.5724065 C8.37542783,11.4075593 6.92995396,11.6806326 6.77682048,10.5724065 C6.76088752,10.3449192 6.97598253,9.46462292 7.59825327,9.46462292 C8.22008144,9.46462292 8.4635017,10.2997758 8.41924348,10.5724065 L8.41924348,10.5724065 Z M10.6179924,9.31370234 C9.46108226,9.31370234 8.5236929,8.22317951 8.5236929,6.87772925 C8.5236929,5.53316416 9.46108226,4.44264133 10.6179924,4.44264133 C11.7735749,4.44264133 12.711407,5.53316416 12.711407,6.87772925 C12.7118494,8.22317951 11.7740175,9.31370234 10.6179924,9.31370234 L10.6179924,9.31370234 Z" id="形状"></path>
                            </g>
                        </g>
                    </g>
                </g>
            </g>
        </g>
    </g>
</svg>