<?xml version="1.0" encoding="UTF-8"?>
<svg width="16px" height="16px" viewBox="0 0 16 16" version="1.1" xmlns="http://www.w3.org/2000/svg" xmlns:xlink="http://www.w3.org/1999/xlink">
    <title>图标-高负载</title>
    <g id="页面-1" stroke="none" stroke-width="1" fill="none" fill-rule="evenodd">
        <g id="节点方案-终稿" transform="translate(-908, -174)" fill-rule="nonzero">
            <g id="编组-2" transform="translate(24, 150)">
                <g id="图例" transform="translate(756, 22)">
                    <g id="编组-3备份" transform="translate(128, 0)">
                        <g id="275折线图" transform="translate(0.5, 3.5586)">
                            <path d="M0.402698283,12.6986917 L14.5973017,12.6986917 C14.8180703,12.6986917 15,12.5167621 15,12.2959935 L15,5.47219951 C15,5.25143091 14.8180703,5.06950123 14.5973017,5.06950123 C14.5645953,5.06950123 14.5298446,5.07358953 14.4971382,5.0838103 L9.38470973,6.40637776 C9.33769419,6.41864268 9.29476697,6.43704007 9.25388389,6.46770237 L6.63736713,8.29721995 C6.62919052,8.30335241 6.61896975,8.30539657 6.61488144,8.30539657 C6.61079313,8.30539657 6.60057236,8.30335241 6.5944399,8.2992641 L3.2992641,6.36549469 C3.23793949,6.32869992 3.16639411,6.31030253 3.09484873,6.31030253 C2.99059689,6.31030253 2.89247751,6.34914146 2.81684383,6.42068684 L0.124693377,8.99632052 C0.0449713818,9.07195421 0,9.1782502 0,9.28863451 L0,12.2959935 C0,12.5167621 0.179885527,12.6986917 0.402698283,12.6986917 Z" id="路径" fill="#8796BE" opacity="0.5"></path>
                            <path d="M0.402698283,8.01717089 C0.504905969,8.01717089 0.605069501,7.97628782 0.680703189,7.90474244 L3.05396566,5.62142273 C3.06418643,5.61120196 3.0744072,5.60915781 3.08258381,5.60915781 C3.09076043,5.60915781 3.09689289,5.61120196 3.10302535,5.61529027 L6.36549469,7.54905969 C6.4268193,7.58585446 6.49836468,7.60629599 6.56991006,7.60629599 C6.65167621,7.60629599 6.7313982,7.58176615 6.79885527,7.53475061 L9.4480785,5.70318888 C9.4521668,5.70114473 9.45829926,5.69705642 9.46238757,5.69705642 L14.6954211,4.34791496 C14.8753066,4.30294358 14.9979558,4.14145544 14.9979558,3.95952576 L14.9979558,0.402698283 C14.9979558,0.181929681 14.8160262,0 14.5952576,0 C14.5584628,0 14.5237122,0.00613246116 14.4889616,0.0163532298 L8.94521668,1.55151267 C8.88798038,1.5678659 8.83687653,1.59648406 8.79190515,1.63327882 L6.18765331,3.87162715 C6.1794767,3.87775961 6.16925593,3.88184791 6.16107931,3.88184791 C6.1529027,3.88184791 6.14677024,3.87980376 6.14063778,3.87571545 L3.30335241,2.17702371 C3.2420278,2.14022895 3.16843827,2.11978741 3.09689289,2.11978741 C2.99264105,2.11978741 2.89452167,2.15862633 2.81888798,2.23017171 L0.124693377,4.8098937 C0.0449713818,4.88552739 0,4.99182339 0,5.10220769 L0,7.61651676 C0,7.83728536 0.181929681,8.01717089 0.402698283,8.01717089 Z" id="路径" fill="#F24C25"></path>
                        </g>
                    </g>
                </g>
            </g>
        </g>
    </g>
</svg>