<?xml version="1.0" encoding="UTF-8"?>
<svg width="16px" height="16px" viewBox="0 0 16 16" version="1.1" xmlns="http://www.w3.org/2000/svg" xmlns:xlink="http://www.w3.org/1999/xlink">
    <title>图标-告警</title>
    <g id="页面-1" stroke="none" stroke-width="1" fill="none" fill-rule="evenodd">
        <g id="节点方案-终稿" transform="translate(-780, -174)" fill="#F24C25" fill-rule="nonzero">
            <g id="编组-2" transform="translate(24, 150)">
                <g id="图例" transform="translate(756, 22)">
                    <g id="error-fill" transform="translate(0, 2)">
                        <rect id="矩形" opacity="0" x="0" y="0" width="16" height="16"></rect>
                        <path d="M14.9328125,13.375 L8.4328125,2.125 C8.3359375,1.9578125 8.16875,1.875 8,1.875 C7.83125,1.875 7.6625,1.9578125 7.5671875,2.125 L1.0671875,13.375 C0.875,13.709375 1.115625,14.125 1.5,14.125 L14.5,14.125 C14.884375,14.125 15.125,13.709375 14.9328125,13.375 Z M7.5,6.5 C7.5,6.43125 7.55625,6.375 7.625,6.375 L8.375,6.375 C8.44375,6.375 8.5,6.43125 8.5,6.5 L8.5,9.375 C8.5,9.44375 8.44375,9.5 8.375,9.5 L7.625,9.5 C7.55625,9.5 7.5,9.44375 7.5,9.375 L7.5,6.5 Z M8,12 C7.5859375,12 7.25,11.6640625 7.25,11.25 C7.25,10.8359375 7.5859375,10.5 8,10.5 C8.4140625,10.5 8.75,10.8359375 8.75,11.25 C8.75,11.6640625 8.4140625,12 8,12 Z" id="形状"></path>
                    </g>
                </g>
            </g>
        </g>
    </g>
</svg>