<?xml version="1.0" encoding="UTF-8"?>
<svg width="108px" height="88px" viewBox="0 0 108 88" version="1.1" xmlns="http://www.w3.org/2000/svg" xmlns:xlink="http://www.w3.org/1999/xlink">
    <title>40DD177F-C378-40D0-B7E6-566A331C88E5</title>
    <defs>
        <ellipse id="path-1" cx="23" cy="44" rx="16" ry="2"></ellipse>
        <filter x="-3.1%" y="-25.0%" width="106.2%" height="150.0%" filterUnits="objectBoundingBox" id="filter-2">
            <feGaussianBlur stdDeviation="0.5" in="SourceAlpha" result="shadowBlurInner1"></feGaussianBlur>
            <feOffset dx="0" dy="-1" in="shadowBlurInner1" result="shadowOffsetInner1"></feOffset>
            <feComposite in="shadowOffsetInner1" in2="SourceAlpha" operator="arithmetic" k2="-1" k3="1" result="shadowInnerInner1"></feComposite>
            <feColorMatrix values="0 0 0 0 0   0 0 0 0 0   0 0 0 0 0  0 0 0 0.07 0" type="matrix" in="shadowInnerInner1"></feColorMatrix>
        </filter>
        <linearGradient x1="50%" y1="0%" x2="50%" y2="80.2563357%" id="linearGradient-3">
            <stop stop-color="#64F8FF" stop-opacity="0" offset="0%"></stop>
            <stop stop-color="#8FA6D3" offset="100%"></stop>
        </linearGradient>
    </defs>
    <g id="入口卡片" stroke="none" stroke-width="1" fill="none" fill-rule="evenodd">
        <g id="卡片项---功能入口卡片" transform="translate(-2741.000000, -847.000000)">
            <g id="功能入口卡片" transform="translate(176.000000, 381.000000)">
                <g id="宣传" transform="translate(2537.000000, 0.000000)">
                    <g id="自定义1" transform="translate(-0.000000, 404.000000)">
                        <g id="功能入口#3" transform="translate(0.000000, 41.000000)">
                            <g id="插画图标-蓝色" transform="translate(28.000000, 21.000000)">
                                <rect id="矩形" fill="#FFFFFF" opacity="0" x="0" y="0" width="108" height="88"></rect>
                                <circle id="背景圆" fill="#A2CEFF" cx="57.5" cy="45.5" r="34.5"></circle>
                                <g id="主题图形" transform="translate(34.000000, 27.000000)">
                                    <g id="椭圆形">
                                        <use fill="#86B3FF" fill-rule="evenodd" xlink:href="#path-1"></use>
                                        <use fill="black" fill-opacity="1" filter="url(#filter-2)" xlink:href="#path-1"></use>
                                    </g>
                                    <rect id="矩形备份-49" fill="#5F90F4" x="7.12529049" y="36.0996606" width="6" height="8" rx="3"></rect>
                                    <rect id="矩形备份-50" fill="#5F90F4" x="32.1252905" y="36.0996606" width="6" height="8" rx="3"></rect>
                                    <rect id="矩形" fill="#CFE4FF" x="0" y="0" width="47" height="41" rx="4"></rect>
                                    <rect id="矩形备份-47" fill="#B2D5FB" transform="translate(40.125290, 12.099661) rotate(-9.000000) translate(-40.125290, -12.099661) " x="35.1252905" y="8.09966056" width="10" height="8" rx="1"></rect>
                                    <rect id="矩形备份-48" fill="#C2DFFF" transform="translate(42.625290, 22.099661) rotate(2.000000) translate(-42.625290, -22.099661) " x="36.1252905" y="18.0996606" width="13" height="8" rx="1"></rect>
                                    <rect id="矩形" fill="#E5F0FF" x="0" y="0" width="40" height="41" rx="4"></rect>
                                    <circle id="椭圆形" stroke="#C7DAF5" stroke-width="2" cx="18" cy="20" r="10"></circle>
                                    <path d="M18,9 C18.5522847,9 19,9.44771525 19,10 L19,19 C19,19.1830104 18.9508382,19.3545385 18.8650005,19.5020984 C19.034615,19.4993331 19.2076298,19.5425248 19.3660254,19.6339746 L27.160254,24.1339746 C27.6385467,24.410117 27.8024218,25.0217074 27.5262794,25.5 C27.2501371,25.9782926 26.6385467,26.1421678 26.160254,25.8660254 L18.3660254,21.3660254 C18.2074336,21.2744624 18.0834104,21.1460187 17.9985344,20.9977826 C17.9165896,21.1460187 17.7925664,21.2744624 17.6339746,21.3660254 L9.83974596,25.8660254 C9.36145334,26.1421678 8.74986293,25.9782926 8.47372056,25.5 C8.19757818,25.0217074 8.36145334,24.410117 8.83974596,24.1339746 L16.6339746,19.6339746 C16.7923702,19.5425248 16.965385,19.4993331 17.1359939,19.4998374 C17.0491618,19.3545385 17,19.1830104 17,19 L17,10 C17,9.44771525 17.4477153,9 18,9 Z" id="形状结合" fill="#C7DAF5"></path>
                                    <rect id="矩形" fill="#C6DAF7" x="35" y="16" width="2" height="11" rx="1"></rect>
                                </g>
                                <circle id="椭圆形备份-3" fill="#6087FA" cx="52" cy="47" r="4"></circle>
                                <circle id="椭圆形备份-4" fill="#E3DAC5" cx="91.5" cy="19.5" r="2.5"></circle>
                                <circle id="椭圆形备份-5" fill="#9CC3F9" cx="101.5" cy="61.5" r="2.5"></circle>
                                <path d="M24.4225013,36.7070403 C18.6025076,38.4232465 15.1175867,40.607023 15.1175867,42.9845964 C15.1175867,48.5074439 33.9216272,52.9845964 57.1175867,52.9845964 C80.3135462,52.9845964 99.1175867,48.5074439 99.1175867,42.9845964 C99.1175867,40.6648588 95.800149,38.5296044 90.2332345,36.8331095" id="路径" stroke="url(#linearGradient-3)" transform="translate(57.117587, 44.845818) rotate(-14.000000) translate(-57.117587, -44.845818) "></path>
                                <g id="金币备份" transform="translate(26.000000, 67.000000)">
                                    <path d="M0,2 L12,2 L12,5 C12,6.1045695 9.3137085,7 6,7 C2.6862915,7 0,6.1045695 0,5 L0,5 L0,2 Z" id="形状结合" fill="#F4B43D"></path>
                                    <ellipse id="椭圆形" fill="#F8D598" cx="6" cy="2" rx="6" ry="2"></ellipse>
                                </g>
                                <g id="金币" transform="translate(26.000000, 63.000000)">
                                    <path d="M0,2 L12,2 L12,5 C12,6.1045695 9.3137085,7 6,7 C2.6862915,7 0,6.1045695 0,5 L0,5 L0,2 Z" id="形状结合" fill="#F4B43D"></path>
                                    <ellipse id="椭圆形" fill="#F8D598" cx="6" cy="2" rx="6" ry="2"></ellipse>
                                </g>
                            </g>
                        </g>
                    </g>
                </g>
            </g>
        </g>
    </g>
</svg>