<?xml version="1.0" standalone="no"?><!DOCTYPE svg PUBLIC "-//W3C//DTD SVG 1.1//EN" "http://www.w3.org/Graphics/SVG/1.1/DTD/svg11.dtd"><svg t="1610348696297" class="icon" viewBox="0 0 1024 1024" version="1.1" xmlns="http://www.w3.org/2000/svg" p-id="10220" xmlns:xlink="http://www.w3.org/1999/xlink" width="32" height="32"><defs><style type="text/css"></style></defs><path d="M512 65.290005c-246.710938 0-446.708971 199.999057-446.708971 446.708971s199.999057 446.708971 446.708971 446.708971S958.708971 758.710938 958.708971 512 758.710938 65.290005 512 65.290005zM512 894.89355c-211.466226 0-382.89355-171.427324-382.89355-382.89355s171.427324-382.89355 382.89355-382.89355 382.89355 171.427324 382.89355 382.89355S723.466226 894.89355 512 894.89355z" p-id="10221"></path><path d="M455.934077 310.028009c-16.643052-14.896268-30.259164-8.809643-30.259164 13.526061L425.674912 700.44593c0 22.335704 13.680581 28.493961 30.401404 13.684674l196.46251-173.997869c16.720823-14.808264 16.784268-39.11281 0.141216-54.008055L455.934077 310.028009z" p-id="10222"></path></svg>