<?xml version="1.0" standalone="no"?><!DOCTYPE svg PUBLIC "-//W3C//DTD SVG 1.1//EN" "http://www.w3.org/Graphics/SVG/1.1/DTD/svg11.dtd"><svg t="1610348763845" class="icon" viewBox="0 0 1024 1024" version="1.1" xmlns="http://www.w3.org/2000/svg" p-id="12673" xmlns:xlink="http://www.w3.org/1999/xlink" width="32" height="32"><defs><style type="text/css"></style></defs><path d="M512 928.3c-229.2 0-415-185.8-415-415s185.8-415 415-415 415 185.8 415 415-185.8 415-415 415z m0.4-77.5c186.2 0 337.2-151 337.2-337.2s-151-337.2-337.2-337.2-337.2 151-337.2 337.2 150.9 337.2 337.2 337.2zM382.3 357.6h259.4c14.3 0 25.9 11.6 25.9 25.9V643c0 14.3-11.6 25.9-25.9 25.9H382.3c-14.3 0-25.9-11.6-25.9-25.9V383.6c0-14.4 11.6-26 25.9-26z" p-id="12674"></path></svg>