<svg width="32" height="32" xmlns="http://www.w3.org/2000/svg"><g fill="none"><path d="M32 12.69v10.453c-.005 1.576-1.304 2.852-2.909 2.857H2.909C1.304 25.995.005 24.719 0 23.143V8.857c0-.758.306-1.485.852-2.02A2.936 2.936 0 0 1 2.909 6h22.29c.9 0 1.762.352 2.397.977l3.415 3.364c.633.623.989 1.468.989 2.348z" fill="#13C2C2"/><path d="M6.037 17.397a4.274 4.274 0 0 0 2.746.968c.582 0 1.02-.097 1.313-.29.293-.194.44-.443.44-.746 0-.262-.117-.51-.35-.743-.232-.233-.846-.55-1.842-.95C6.78 14.996 5.999 14.063 6 12.84c0-.899.354-1.597 1.063-2.095C7.77 10.248 8.709 10 9.878 10c.978 0 1.798.123 2.461.368v1.935c-.673-.441-1.46-.662-2.36-.662-.525 0-.945.093-1.26.278-.315.185-.472.433-.471.746 0 .25.107.48.323.69.215.21.747.493 1.595.851.996.413 1.68.847 2.053 1.305.373.458.559 1.003.558 1.635 0 .928-.34 1.635-1.02 2.122-.682.487-1.649.73-2.902.732-1.146 0-2.085-.18-2.818-.537v-2.066zM18.09 19.75c-.315.166-.79.25-1.428.25-1.517 0-2.275-.77-2.275-2.31v-3.258h-1.176v-1.504h1.176v-1.516l2.074-.575v2.091h1.629v1.504h-1.63v2.91c0 .735.303 1.104.906 1.104.232 0 .474-.067.724-.2v1.504zm5.829-4.993c-.254-.141-.562-.212-.924-.212-.474 0-.85.175-1.129.524-.278.35-.417.83-.416 1.442v3.319h-2.087v-6.902h2.087v1.298h.026c.344-.944.971-1.416 1.88-1.416.247 0 .433.027.563.081v1.866zm-.394 4.17a.945.945 0 0 1 .368-.768c.246-.2.558-.307.88-.3.344 0 .635.102.872.306.23.19.36.469.355.761 0 .32-.118.58-.355.777-.236.198-.536.297-.899.297a1.28 1.28 0 0 1-.861-.306.965.965 0 0 1-.36-.768z" fill="#FFF"/></g></svg>