<?xml version="1.0" encoding="UTF-8"?>
<svg width="14px" height="14px" viewBox="0 0 14 14" version="1.1" xmlns="http://www.w3.org/2000/svg" xmlns:xlink="http://www.w3.org/1999/xlink">
    <title>目标</title>
    <defs>
        <path d="M7,0 C10.8660371,0 14,3.13396289 14,7 C14,10.8660371 10.8660371,14 7,14 C3.13396289,14 0,10.8660371 0,7 C0,3.13396289 3.13396289,0 7,0 Z M7,1.75 C4.10050506,1.75 1.75,4.10050506 1.75,7 C1.75,9.89949494 4.10050506,12.25 7,12.25 C9.89949494,12.25 12.25,9.89949494 12.25,7 C12.25,6.36816418 12.1383844,5.76239759 11.9337948,5.20134184 L11.2514724,5.96342934 C11.3322082,6.29572661 11.375,6.64286603 11.375,7 C11.375,9.41624578 9.41624578,11.375 7,11.375 C4.58375422,11.375 2.625,9.41624578 2.625,7 C2.625,4.58375422 4.58375422,2.625 7,2.625 C7.43744285,2.625 7.8598908,2.68920079 8.25843551,2.80869402 L8.93983928,2.12001818 C8.33973445,1.88126431 7.68519643,1.75 7,1.75 Z M7.16922504,4.840815 C5.9689211,4.840815 4.9958825,5.8138536 4.9958825,7.01415754 C4.9958825,8.21446148 5.9689211,9.18750008 7.16922504,9.18750008 C8.36952898,9.18750008 9.34256758,8.21446148 9.34256758,7.01415754 C9.34256758,6.77542919 9.3040769,6.54569082 9.23296293,6.33080982 L8.46288604,7.1251944 C8.40655632,7.7902726 7.84887706,8.31250008 7.16922504,8.31250008 C6.45217026,8.31250008 5.8708825,7.73121233 5.8708825,7.01415754 C5.8708825,6.39324014 6.30674967,5.87412497 6.88920802,5.74608803 L7.63975022,4.8918854 C7.48823866,4.85844473 7.33079067,4.840815 7.16922504,4.840815 Z M10.94625,1.3125 L8.95621289,3.23225 L9.04808789,4.430125 L7.31266211,6.216 C7.29849531,6.22866071 7.28524155,6.24230737 7.273,6.25683789 C7.18656737,6.35805112 7.14986509,6.49162425 7.17223394,6.62199742 C7.19460279,6.75237059 7.27373101,6.86607004 7.38821289,6.93233789 C7.55781808,7.03066233 7.77189065,7.00574236 7.914375,6.87108789 L9.70667578,5.09016211 L10.8546621,5.16716211 L12.7683008,3.20133789 L11.1151387,3.03246289 L10.94625,1.3125 Z" id="path-1"></path>
        <filter x="-14.3%" y="-14.3%" width="128.6%" height="128.6%" filterUnits="objectBoundingBox" id="filter-2">
            <feGaussianBlur stdDeviation="1.5" in="SourceAlpha" result="shadowBlurInner1"></feGaussianBlur>
            <feOffset dx="0" dy="1" in="shadowBlurInner1" result="shadowOffsetInner1"></feOffset>
            <feComposite in="shadowOffsetInner1" in2="SourceAlpha" operator="arithmetic" k2="-1" k3="1" result="shadowInnerInner1"></feComposite>
            <feColorMatrix values="0 0 0 0 1   0 0 0 0 1   0 0 0 0 1  0 0 0 0.5 0" type="matrix" in="shadowInnerInner1"></feColorMatrix>
        </filter>
    </defs>
    <g id="页面-2" stroke="none" stroke-width="1" fill="none" fill-rule="evenodd">
        <g id="目标">
            <rect id="矩形" x="0" y="0" width="14" height="14"></rect>
            <g id="形状结合">
                <use fill="#DDE6FF" fill-rule="evenodd" xlink:href="#path-1"></use>
                <use fill="black" fill-opacity="1" filter="url(#filter-2)" xlink:href="#path-1"></use>
            </g>
        </g>
    </g>
</svg>