<?xml version="1.0" standalone="no"?><!DOCTYPE svg PUBLIC "-//W3C//DTD SVG 1.1//EN" "http://www.w3.org/Graphics/SVG/1.1/DTD/svg11.dtd"><svg t="1610348634957" class="icon" viewBox="0 0 1024 1024" version="1.1" xmlns="http://www.w3.org/2000/svg" p-id="9461" xmlns:xlink="http://www.w3.org/1999/xlink" width="32" height="32"><defs><style type="text/css"></style></defs><path d="M477.611096 844.226806c0.511614 0.787098 1.101937 1.574196 1.731616 2.361294 3.660006 4.604524 23.219392 16.017445 57.458157 19.244547 22.23552 2.08581 78.709805 2.597424 122.275682-36.757479 52.57815-47.462012 71.625922-108.304691 58.245256-185.755139l-2.479359-14.28583 9.838725-10.074855c173.47641-177.884159 145.613139-402.915491 127.785369-485.442721-24.793589-6.493559-82.251746-18.496804-153.720249-13.459377-119.717613 8.26453-222.866812 58.245256-306.338561 148.525402l-9.563241 10.350339-13.538087-2.597423c-73.514958-14.089055-131.2486 5.94259-176.309962 61.354292-37.426512 45.927171-36.836189 105.431784-34.868444 128.847951 3.069682 36.20651 13.892281 56.789124 18.30003 60.567195 0.865808 0.787098 1.574196 1.298712 2.203874 1.810325l0.629679-1.69226 102.75565-70.130437-11.176792 62.220101c-6.375494 35.734251-11.885181 80.126581-10.783244 95.750478l136.758286 144.157007c13.144537 1.692261 52.814279-3.738716 89.138854-12.278729l61.393648-14.36454-68.005271 110.744696-1.731616 0.905163z" fill="#007AFF" p-id="9462"></path><path d="M535.226673 905.935293a267.613337 267.613337 0 0 1-22.274875-0.983873c-43.014908-3.778071-78.394966-17.867126-94.49112-37.583932-17.394867-21.251647-17.630996-39.079418-14.758089-50.33492 1.731616-6.729688 4.722588-12.20002 8.26453-16.607769-39.276193 4.604524-58.874934 1.731616-70.64205-10.11421l-146.990561-146.715076c-9.878081-9.838726-14.167765-24.0852-8.658078-71.783342-4.604524 3.974845-10.468404 7.477431-17.985191 9.366467-11.255502 2.872908-29.004563 2.597424-50.374275-14.758089-19.756161-16.096155-33.845216-51.436857-37.623287-94.373056-5.509686-61.787197 12.003245-121.252454 47.894917-163.086715 55.372348-64.54204 127.627949-91.027889 214.995832-78.90658 91.618213-89.414338 207.59711-140.969261 336.366351-149.351854 109.01308-7.083882 189.100306 18.969063 190.005469 19.362612l13.616796 4.486458 3.974845 15.978091c16.410994 63.085909 22.15681 131.2486 16.529059 197.286126a530.818924 530.818924 0 0 1-40.260065 164.346072 521.767296 521.767296 0 0 1-107.635658 160.056388c12.12131 87.289174-14.364539 159.466065-78.985289 214.759703-36.600059 31.601987-87.249819 48.957499-141.008616 48.957499z m-77.922707-74.026572a27.430367 27.430367 0 0 0 1.770971 2.24323c3.738716 4.486459 23.612941 15.466477 58.481385 18.575514 22.629069 2.0071 80.126581 2.518714 124.518911-35.419413 53.522667-45.848461 72.885279-104.526621 59.229128-179.34029l-2.479358-13.734861 9.996145-9.720661c176.624802-171.705439 148.249917-388.826436 130.107307-468.480758a524.089236 524.089236 0 0 0-156.475092-12.987118c-121.882133 7.989045-226.881013 56.159446-311.887602 143.330554l-9.760015 9.996146-13.734861-2.518714c-74.853024-13.616796-133.609894 5.745816-179.458356 59.189773-38.174255 44.352975-37.544577 101.771778-35.537476 124.361492 3.148392 34.986508 14.12841 54.821379 18.614868 58.44203 0.905163 0.787098 1.652906 1.259357 2.282585 1.770971l0.590323-1.652906 104.644686-67.690432-11.412922 60.094936c-6.454204 34.43554-12.081955 77.293028-10.980018 92.40531l139.277 139.080226c13.380667 1.613551 53.719442-3.620651 90.71305-11.845826l62.53494-13.892281-69.264628 106.887915-1.770971 0.905163z" fill="#7FBCFF" p-id="9463"></path><path d="M27.902626 844.148096a27.705851 27.705851 0 0 1-19.677451-47.343948l119.638903-118.851805a28.0994 28.0994 0 0 1 39.591032 0 27.627142 27.627142 0 0 1 0 39.236838l-119.717613 118.851805a28.453594 28.453594 0 0 1-19.834871 8.067755z m60.60655 117.080835a27.705851 27.705851 0 0 1-19.716807-47.304593l148.328628-147.266045a28.0994 28.0994 0 0 1 39.551677 0 27.627142 27.627142 0 0 1 0 39.236838l-148.367983 147.187335a28.138755 28.138755 0 0 1-19.83487 8.146465zM243.606846 984.645098a27.705851 27.705851 0 0 1-19.677451-47.343948l82.52723-81.936907a28.0994 28.0994 0 0 1 39.551677 0 27.627142 27.627142 0 0 1 0 39.236838l-82.566585 81.976262A28.453594 28.453594 0 0 1 243.606846 984.645098z" fill="#007AFF" p-id="9464"></path><path d="M649.35589 512.386268a136.482802 136.482802 0 0 1-97.364028-40.37813A136.95506 136.95506 0 0 1 511.613732 374.64411c0-36.718124 14.28583-71.389793 40.37813-97.364029A136.95506 136.95506 0 0 1 649.35589 236.901951c36.718124 0 71.389793 14.28583 97.364029 40.37813A136.95506 136.95506 0 0 1 787.098049 374.64411c0 36.718124-14.28583 71.389793-40.37813 97.364028A136.246672 136.246672 0 0 1 649.35589 512.386268z m0-224.244234c-23.061973 0-44.785879 9.051628-61.118163 25.383912a85.951107 85.951107 0 0 0-25.383912 61.118164c0 23.061973 9.051628 44.785879 25.383912 61.118163 16.332285 16.371639 38.056191 25.383912 61.118163 25.383912s44.785879-9.051628 61.118164-25.383912c16.371639-16.332285 25.383912-38.056191 25.383912-61.118163s-9.051628-44.785879-25.383912-61.118164a85.714977 85.714977 0 0 0-61.118164-25.383912z" fill="#FFFFFF" p-id="9465"></path><path d="M182.409973 158.192146a25.069073 25.069073 0 0 1-17.670351-42.739424L272.099795 8.131903a25.069073 25.069073 0 1 1 35.419413 35.419413L200.198389 150.950844A25.501977 25.501977 0 0 1 182.409973 158.192146zM890.798217 669.805878a25.069073 25.069073 0 0 1-17.670352-42.739424l107.320819-107.320819a25.069073 25.069073 0 1 1 35.419413 35.419412l-107.281465 107.360174a25.620041 25.620041 0 0 1-17.788415 7.280657zM851.443314 945.290195a25.069073 25.069073 0 0 1-17.670351-42.739424l107.320819-107.320819a25.069073 25.069073 0 1 1 35.419412 35.419412l-107.281464 107.360174a25.187138 25.187138 0 0 1-17.788416 7.280657z" fill="#007AFF" p-id="9466"></path></svg>