<?xml version="1.0" encoding="UTF-8"?>
<svg width="51px" height="49px" viewBox="0 0 51 49" version="1.1" xmlns="http://www.w3.org/2000/svg" xmlns:xlink="http://www.w3.org/1999/xlink">
    <title>编组 21</title>
    <g id="页面-1" stroke="none" stroke-width="1" fill="none" fill-rule="evenodd">
        <g id="上传" transform="translate(-2324.000000, -1183.000000)">
            <g id="编组-24" transform="translate(2115.000000, 1151.000000)">
                <g id="原子组件/upload-拖拽上传备份-3" transform="translate(45.000000, 0.000000)">
                    <g id="编组-21" transform="translate(165.000000, 32.000000)">
                        <g id="编组-17" transform="translate(0.059574, 0.000000)">
                            <path d="M5.1213772,39.9780557 C9.2816525,38.7625587 16.1509443,38.7625587 19.4404643,38.7625587 C22.7299843,38.7625587 29.2122737,36.715406 37.4360738,37.7389823 C45.6598738,38.7625587 48.9493938,39.9780557 48.4656409,43.1127583 C47.9818879,46.247461 42.080102,48.1666667 32.5985443,48.1666667 C23.1169867,48.1666667 20.1177184,46.8232227 14.2159325,46.375408 C8.31414662,45.9275933 2.70261248,45.7996463 1.25135365,44.2003082 C-0.199905174,42.6009701 0.961101889,41.1935526 5.1213772,39.9780557 Z" id="路径-15" fill="#E5F4FE"></path>
                            <g id="编组-13" transform="translate(4.940426, 0.357143)">
                                <polygon id="矩形备份-9" stroke="#0071EB" fill="#41A8F4" stroke-linejoin="round" points="10.4529617 19.6645022 38.961039 19.6645022 38.961039 40.0455601 10.4529617 40.0455601"></polygon>
                                <g id="编组-20" transform="translate(16.000000, 0.642857)">
                                    <path d="M17.3599979,2.51490627 C17.7742109,2.51419416 18.149499,2.68144244 18.4214119,2.95242199 C18.6933247,3.22340153 18.8618624,3.59811234 18.8625743,4.01415992 L18.8625743,4.01415992 L18.8431199,13.9903539 C18.8423139,14.4034922 18.6745286,14.777405 18.4036601,15.0482107 C18.1327916,15.3190165 17.75884,15.4867153 17.3457015,15.4874255 L17.3457015,15.4874255 L3.3690675,15.5114538 C2.95485455,15.5121659 2.57956647,15.3449176 2.3076536,15.0739381 C2.03574073,14.8029585 1.86720307,14.4282477 1.86649118,14.0122002 L1.86649118,14.0122002 L1.88594557,4.03600618 C1.8867515,3.62286789 2.05453687,3.24895511 2.32540536,2.97814933 C2.59627386,2.70734355 2.97022549,2.53964478 3.38336396,2.53893453 L3.38336396,2.53893453 Z" id="矩形" stroke="#0071EB" fill="#E5F4FE" stroke-linejoin="round" transform="translate(10.364533, 9.013180) rotate(20.000000) translate(-10.364533, -9.013180) "></path>
                                    <path d="M5.01506839,4.02141319 L15.9963311,4.00179323 C16.548615,4.00080648 16.9971295,4.44772109 16.9981162,5.00000496 C16.9981184,5.0012262 16.9981184,5.00244745 16.9981161,5.00366869 L16.9831432,12.9804655 C16.9821092,13.531319 16.5357852,13.9776026 15.9849316,13.9785868 L5.00366885,13.9982068 C4.45138498,13.9991935 4.00287053,13.5522789 4.00188378,12.999995 C4.00188159,12.9987738 4.00188165,12.9975526 4.00188394,12.9963313 L4.01685683,5.01953454 C4.01789081,4.468681 4.46421475,4.02239739 5.01506839,4.02141319 Z" id="矩形" fill="#FFFFFF" transform="translate(10.500000, 9.000000) rotate(20.000000) translate(-10.500000, -9.000000) "></path>
                                    <ellipse id="椭圆形" fill="#41A8F4" transform="translate(14.474347, 8.467925) rotate(20.000000) translate(-14.474347, -8.467925) " cx="14.4743466" cy="8.46792526" rx="1.47434664" ry="1.46792526"></ellipse>
                                    <path d="M1.8908702,12.3298143 L6.12692448,6.9121676 C6.4671107,6.47709085 7.09558551,6.40016687 7.53066227,6.74035309 C7.637907,6.82420767 7.7269008,6.92907673 7.79219089,7.04853479 L11.4714129,13.7802254 L11.4714129,13.7802254 L4.0996923,13.7936959 L3.35609887,13.7950547 C2.54835142,13.7965307 1.89234619,13.1429185 1.89087018,12.3351711 C1.89086692,12.3333855 1.89086692,12.3315999 1.8908702,12.3298143 L1.8908702,12.3298143 L1.8908702,12.3298143 Z" id="路径-7" fill="#41A8F4" transform="translate(6.679795, 9.756235) rotate(20.000000) translate(-6.679795, -9.756235) "></path>
                                    <path d="M11.9135954,10.274326 C12.0381566,10.3600898 12.1416435,10.4729885 12.2162681,10.604526 L15.1734171,15.8169593 L10.747443,15.8169593 L9.03385335,12.6934131 L10.5228454,10.5308693 C10.8360479,10.0759818 11.4587079,9.96112345 11.9135954,10.274326 Z" id="形状结合" fill="#41A8F4" transform="translate(12.103635, 12.842686) rotate(20.000000) translate(-12.103635, -12.842686) "></path>
                                </g>
                                <polygon id="矩形备份-8" stroke="#0071EB" fill="#FFFFFF" stroke-linejoin="round" points="0 22.2777426 10.4529617 19.6645022 10.4529617 40.0455601 0 42.6588005"></polygon>
                            </g>
                        </g>
                        <g id="编组-19" transform="translate(17.963461, 18.863636) rotate(-30.000000) translate(-17.963461, -18.863636) translate(8.963461, 6.863636)">
                            <rect id="矩形" stroke="#0071EB" fill="#41A8F4" x="-0.5" y="-0.311097993" width="18.2727273" height="24.6363636" rx="1"></rect>
                            <rect id="矩形" fill="#E5F4FE" x="2.72727273" y="2.91617473" width="11.8181818" height="18.1818182" rx="1"></rect>
                            <line x1="4.72727273" y1="6.09799292" x2="8.36363636" y2="6.09799292" id="路径-8" stroke="#2675B7" stroke-linecap="round"></line>
                            <line x1="4.54545455" y1="9.73435655" x2="13.6363636" y2="9.73435655" id="路径-9" stroke="#2675B7" stroke-linecap="round"></line>
                            <line x1="4.54545455" y1="13.3707202" x2="13.6363636" y2="13.3707202" id="路径-10" stroke="#2675B7" stroke-linecap="round"></line>
                            <line x1="4.54545455" y1="17.0070838" x2="13.6363636" y2="17.0070838" id="路径-11" stroke="#2675B7" stroke-linecap="round"></line>
                        </g>
                        <path d="M33.5080773,22.6348854 L33.5080773,43.0159434 L5,43.0159434 L5,22.6348854 L13,22.634 L13,25 C13,25.5128358 13.3860402,25.9355072 13.8833789,25.9932723 L14,26 L25,26 C25.5522847,26 26,25.5522847 26,25 L26,25 L26,22.634 L33.5080773,22.6348854 Z" id="形状结合" stroke="#0071EB" fill="#E5F4FE" stroke-linejoin="round"></path>
                        <polyline id="路径-16" stroke="#0071EB" stroke-width="2" stroke-linecap="round" stroke-linejoin="round" points="16 34 19.5 30 23 34"></polyline>
                        <line x1="19.5" y1="30" x2="19.5" y2="39" id="路径-17" stroke="#0071EB" stroke-width="2" stroke-linecap="round" stroke-linejoin="round"></line>
                        <polygon id="矩形备份-7" stroke="#0071EB" fill="#FFFFFF" stroke-linejoin="round" points="33.5080773 22.6348854 43.961039 20.021645 43.961039 40.402703 33.5080773 43.0159434"></polygon>
                        <g id="编组-22" transform="translate(45.464668, 7.102610) rotate(38.000000) translate(-45.464668, -7.102610) translate(43.964668, 5.102610)" stroke="#0071EB" stroke-linecap="round">
                            <line x1="0" y1="2" x2="2.66666667" y2="2" id="路径-18"></line>
                            <line x1="1.33333333" y1="0" x2="1.33333333" y2="4" id="路径-19"></line>
                        </g>
                        <g id="编组-23" transform="translate(8.000000, 3.000000)" stroke="#41A8F4" stroke-linecap="round">
                            <line x1="0" y1="1.29903811" x2="3" y2="1.29903811" id="路径-20"></line>
                            <line x1="2.25" y1="1.8189894e-12" x2="0.75" y2="2.59807621" id="路径-21"></line>
                            <line x1="0.75" y1="0" x2="2.25" y2="2.59807621" id="路径-21"></line>
                        </g>
                        <g id="编组-23备份" transform="translate(0.000000, 19.000000)" stroke="#41A8F4" stroke-linecap="round" stroke-width="0.5">
                            <line x1="0" y1="0.866025404" x2="2" y2="0.866025404" id="路径-20"></line>
                            <line x1="1.5" y1="1.2126596e-12" x2="0.5" y2="1.73205081" id="路径-21"></line>
                            <line x1="0.5" y1="0" x2="1.5" y2="1.73205081" id="路径-21"></line>
                        </g>
                    </g>
                </g>
            </g>
        </g>
    </g>
</svg>