<?xml version="1.0" encoding="UTF-8"?>
<svg width="163px" height="43px" viewBox="0 0 163 43" version="1.1" xmlns="http://www.w3.org/2000/svg" xmlns:xlink="http://www.w3.org/1999/xlink">
    <title>插图</title>
    <defs>
        <linearGradient x1="50%" y1="0%" x2="50%" y2="100%" id="linearGradient-1">
            <stop stop-color="#18355F" offset="0%"></stop>
            <stop stop-color="#18355F" stop-opacity="0" offset="100%"></stop>
        </linearGradient>
        <linearGradient x1="50%" y1="0%" x2="50%" y2="100%" id="linearGradient-2">
            <stop stop-color="#184481" offset="0%"></stop>
            <stop stop-color="#184481" stop-opacity="0" offset="100%"></stop>
        </linearGradient>
        <linearGradient x1="50%" y1="0%" x2="50%" y2="100%" id="linearGradient-3">
            <stop stop-color="#184481" offset="0%"></stop>
            <stop stop-color="#184481" stop-opacity="0" offset="100%"></stop>
        </linearGradient>
        <radialGradient cx="42.690336%" cy="10.1003888%" fx="42.690336%" fy="10.1003888%" r="65.8505026%" gradientTransform="translate(0.426903,0.101004),scale(0.997922,1.000000),rotate(68.471785),translate(-0.426903,-0.101004)" id="radialGradient-4">
            <stop stop-color="#1A6BDD" offset="0%"></stop>
            <stop stop-color="#184481" offset="100%"></stop>
            <stop stop-color="#184481" offset="100%"></stop>
        </radialGradient>
        <radialGradient cx="42.690336%" cy="10.1003888%" fx="42.690336%" fy="10.1003888%" r="65.8505026%" gradientTransform="translate(0.426903,0.101004),scale(0.997922,1.000000),rotate(68.471785),translate(-0.426903,-0.101004)" id="radialGradient-5">
            <stop stop-color="#1A6BDD" offset="0%"></stop>
            <stop stop-color="#184481" offset="100%"></stop>
            <stop stop-color="#184481" offset="100%"></stop>
        </radialGradient>
        <radialGradient cx="42.690336%" cy="10.1003888%" fx="42.690336%" fy="10.1003888%" r="65.8505026%" gradientTransform="translate(0.426903,0.101004),scale(0.997922,1.000000),rotate(68.471785),translate(-0.426903,-0.101004)" id="radialGradient-6">
            <stop stop-color="#1A6BDD" offset="0%"></stop>
            <stop stop-color="#184481" offset="100%"></stop>
            <stop stop-color="#184481" offset="100%"></stop>
        </radialGradient>
        <linearGradient x1="50%" y1="0%" x2="50%" y2="98.666958%" id="linearGradient-7">
            <stop stop-color="#FF88C9" offset="0%"></stop>
            <stop stop-color="#EF82CE" offset="100%"></stop>
        </linearGradient>
        <linearGradient x1="50%" y1="0%" x2="50%" y2="100%" id="linearGradient-8">
            <stop stop-color="#B376FF" offset="0%"></stop>
            <stop stop-color="#E576FF" offset="100%"></stop>
        </linearGradient>
        <linearGradient x1="50%" y1="36.5144232%" x2="50%" y2="98.8581731%" id="linearGradient-9">
            <stop stop-color="#1A6BDD" offset="0%"></stop>
            <stop stop-color="#3E8AE8" offset="100%"></stop>
        </linearGradient>
    </defs>
    <g id="其他" stroke="none" stroke-width="1" fill="none" fill-rule="evenodd">
        <g id="48.forms.upload-img" transform="translate(-1230.000000, -1633.000000)">
            <g id="编组" transform="translate(1130.000000, 1597.000000)">
                <g id="3.数据录入/10.Upload上传/暗色/拖拽上传" transform="translate(99.000000, 36.000000)">
                    <g id="插图" transform="translate(1.000000, 0.000000)">
                        <g id="背景素材" transform="translate(0.000000, 8.000000)">
                            <path d="M19,30.2702832 L31.5811839,16.0688499 C34.1845589,13.1302031 38.609066,12.6853812 41.7453071,15.0469906 C44.675033,17.2530926 48.8384441,16.6664796 51.0445462,13.7367538 C51.1056386,13.6556225 51.1648617,13.5731003 51.2221688,13.4892524 L53.8703919,9.61454874 C56.9051834,5.17424386 62.9649464,4.03485019 67.4052513,7.06964174 C67.8823759,7.39573959 68.3295254,7.76366225 68.7414057,8.16905383 L78.1517669,17.4311638 C80.2830592,19.5288796 83.7113477,19.5016605 85.8090635,17.3703682 C86.1397255,17.0344136 86.4251022,16.6567187 86.6579558,16.2468626 C88.2550819,13.4356894 91.8287144,12.4515098 94.6398875,14.0486359 C94.9534967,14.2268082 95.2499685,14.4335822 95.525521,14.6663201 L114,30.2702832 L114,30.2702832" id="路径-6备份" fill="url(#linearGradient-1)"></path>
                            <path d="M0,33.2702832 L5.36227665,28.1737386 C6.57149406,27.0244449 8.40746834,26.8449378 9.8163957,27.7382498 C11.1831083,28.6047961 12.9821106,28.3108871 14.0019823,27.0544366 L15.049327,25.7641401 C16.599734,23.8540863 19.4049918,23.562535 21.3150456,25.112942 C21.326785,25.1224709 21.3384757,25.1320595 21.3501174,25.1417075 L25.6281258,28.6870748 C26.6633912,29.5450431 28.1981603,29.4013155 29.0561287,28.3660501 C29.1071206,28.3045208 29.1550522,28.2405181 29.1997494,28.1742745 C30.0095582,26.9740931 31.6389773,26.6576337 32.8391587,27.4674426 C32.8569922,27.4794755 32.8746769,27.4917275 32.8922087,27.5041958 L41,33.2702832 L41,33.2702832" id="路径-6" fill="url(#linearGradient-2)"></path>
                            <path d="M104,33.2702832 L111.756478,25.3529434 C113.446555,23.6278168 116.129836,23.3615061 118.126033,24.720777 C120.057947,26.0362761 122.682145,25.6050056 124.09143,23.7404015 L125.656349,21.6698802 C127.736636,18.9174817 131.654302,18.3726281 134.406701,20.4529156 C134.539739,20.5534676 134.668699,20.6593064 134.793268,20.7701779 L140.819924,26.1341196 C142.23891,27.3970682 144.413047,27.2705752 145.675995,25.8515895 C145.802858,25.7090531 145.917639,25.556207 146.019152,25.3946334 C147.109166,23.6596928 149.399244,23.1368767 151.134185,24.226891 C151.229817,24.2869738 151.322655,24.3513922 151.41241,24.4199449 L163,33.2702832 L163,33.2702832" id="路径-6备份-2" fill="url(#linearGradient-3)"></path>
                            <g id="爱心装饰" transform="translate(36.455262, 18.341984)">
                                <path d="M98.0647972,3.08574497 C98.9043028,2.81838432 99.8325578,3.19713019 100.138113,3.93169755 C100.202749,4.0870868 100.270351,4.36439529 100.340916,4.76362302 L100.34106,4.76166056 C100.498065,4.11533946 101.22414,3.70276101 101.962792,3.8401408 C102.701445,3.97752059 103.172963,4.61283569 103.015958,5.25915679 C102.912153,5.68647594 102.182984,6.90957337 100.828453,8.92844909 L100.837551,9.03355544 C98.5482165,6.76749414 97.3016976,5.38960771 97.0979943,4.89989613 C96.7924392,4.16532877 97.2252916,3.35310563 98.0647972,3.08574497 Z" id="形状结合" fill="url(#radialGradient-4)"></path>
                                <path d="M90.7059169,11.0568454 C91.2624747,10.8795962 91.8778697,11.1306892 92.0804402,11.6176773 C92.1231381,11.7203249 92.1677873,11.9032219 92.2143876,12.1663682 C92.3190739,11.7394244 92.8004315,11.4659018 93.290128,11.5569789 C93.7798244,11.6480561 94.0924217,12.069244 93.9883335,12.4977284 C93.919517,12.7810149 93.4361353,13.5918382 92.5381883,14.9301982 L92.5441389,15 C91.0264041,13.4976942 90.2000132,12.584212 90.0649662,12.2595533 C89.8623957,11.7725652 90.1493591,11.2340946 90.7059169,11.0568454 Z" id="形状结合备份" fill="url(#radialGradient-5)"></path>
                                <path d="M1.58831305,0.127902158 C2.84056806,-0.270908448 4.22520689,0.294050782 4.68099044,1.38977392 C4.77731691,1.62134688 4.87805709,2.03444501 4.98321096,2.6290683 L4.98371793,2.62779471 C5.21791637,1.6637048 6.30097091,1.04827894 7.40278795,1.25320258 C8.50460498,1.45812621 9.20794883,2.40579893 8.97375038,3.36988884 C8.81889503,4.00735884 7.7310477,5.83206653 5.71020837,8.84401192 L5.7243126,9 C2.30940916,5.61981201 0.450029594,3.56447696 0.146173895,2.83399487 C-0.309609655,1.73827174 0.336058036,0.526712763 1.58831305,0.127902158 Z" id="形状结合备份-2" fill="url(#radialGradient-6)"></path>
                            </g>
                        </g>
                        <g id="主体图形" transform="translate(60.000000, 0.000000)">
                            <g id="文件夹">
                                <path d="M2.28776056,6.8 L15.4,6.8 L15.4,6.8 L21.4,11.4 L49.2858444,11.4 C50.2722518,11.4 51.1113566,12.1191782 51.262292,13.0939694 L55.4429372,40.0939694 C55.6119532,41.1855313 54.8640821,42.2074316 53.7725202,42.3764476 C53.6712639,42.392126 53.5689525,42.4 53.4664896,42.4 L6.54843472,42.4 C5.54714907,42.4 4.7001642,41.6595511 4.56637007,40.6672447 L0.305695911,9.06724467 C0.158100754,7.97258059 0.92585181,6.9655305 2.02051589,6.81793535 C2.10909659,6.80599188 2.19837831,6.8 2.28776056,6.8 Z" id="矩形" fill="#184481"></path>
                                <rect id="矩形" fill="#48D6E9" x="4.8" y="2.6" width="21.6" height="32.2" rx="2"></rect>
                                <rect id="矩形备份" fill="url(#linearGradient-7)" x="21.6" y="0" width="21.6" height="32.2" rx="2"></rect>
                                <rect id="矩形备份-2" fill="url(#linearGradient-8)" x="34.2" y="4.6" width="21.6" height="32.2" rx="2"></rect>
                                <path d="M10.7879727,5 L24.4,5 L24.4,5 L30.4,9.6 L57.7275726,9.6 C58.8321421,9.6 59.7275726,10.4954305 59.7275726,11.6 C59.7275726,11.6849325 59.7221625,11.7697788 59.711375,11.8540235 L56.0235702,40.6540235 C55.8957506,41.6522337 55.0461282,42.4 54.0397677,42.4 L7.03717059,42.4 C5.93260109,42.4 5.03717059,41.5045695 5.03717059,40.4 C5.03717059,40.3254266 5.04134148,40.2509116 5.04966372,40.176804 L8.80046586,6.77680404 C8.91409512,5.76496252 9.76977094,5 10.7879727,5 Z" id="矩形" fill="url(#linearGradient-9)"></path>
                            </g>
                            <path d="M34.7491543,19.5946083 L34.8240205,19.599829 C37.0707621,19.7726553 38.5518881,21.530874 38.6575515,23.7364162 L38.6609714,23.8282255 L38.7025564,23.8296806 C39.4845204,23.8630289 40.3210514,24.1177204 41.0371297,24.5574292 L41.1083296,24.6020155 C42.280141,25.3502806 43,26.5136547 43,27.912095 C43,29.2508435 42.4476381,30.3189651 41.5180374,31.0536495 C40.8327292,31.5952641 39.9606634,31.919945 39.2925752,31.9397086 L39.2285714,31.9406664 L36.4857143,31.9406664 L36.4857143,30.5692378 L39.2285714,30.5692378 C39.5892122,30.5692378 40.1977531,30.3490746 40.6676769,29.9776832 C41.2779908,29.4953384 41.6285714,28.8174083 41.6285714,27.912095 C41.6285714,27.0115847 41.1680529,26.2673343 40.3702419,25.7578887 C39.6692801,25.3102866 38.7911257,25.1149534 38.1440914,25.2286748 L38.0841215,25.2402434 L37.1480547,25.4373101 L37.2620273,24.4875382 C37.4883026,22.601911 36.4386826,21.0995139 34.7188367,20.967218 C33.1742188,20.8484013 32.0690653,21.72698 31.581775,23.0262379 L31.5600516,23.0855828 L31.3726248,23.6103777 L30.8205915,23.5342352 C28.4678889,23.2097245 26.3714286,24.7200776 26.3714286,27.0549521 C26.3714286,28.1944603 26.8472321,29.0899585 27.6742436,29.7412301 C28.3100874,30.241957 29.1249463,30.5495914 29.6630867,30.5683295 L29.7142857,30.5692378 L31.5142857,30.5692378 L31.5142857,31.9406664 L29.7142857,31.9406664 C28.8605312,31.9406664 27.7173266,31.5207857 26.8257564,30.8186741 C25.6818564,29.9178529 25,28.6345477 25,27.0549521 C25,24.0169231 27.5488281,21.9983889 30.4489211,22.124927 L30.4754286,22.1262826 L30.4972657,22.0813037 C31.2590916,20.5257425 32.7588436,19.4701734 34.7491543,19.5946083 Z M33.9142857,25.3429624 L36.0160946,27.6549521 L34.7714286,27.6548541 L34.7714286,31.7692378 L33.2285714,31.7692378 L33.2285714,27.6548541 L31.8124769,27.6549521 L33.9142857,25.3429624 Z" id="云朵" fill="#FFFFFF" fill-rule="nonzero"></path>
                        </g>
                    </g>
                </g>
            </g>
        </g>
    </g>
</svg>