<?xml version="1.0" encoding="UTF-8"?>
<svg width="47px" height="40px" viewBox="0 0 47 40" version="1.1" xmlns="http://www.w3.org/2000/svg" xmlns:xlink="http://www.w3.org/1999/xlink">
    <title>0E0D39F2-3206-455C-B78E-CF55F49AADAB</title>
    <defs>
        <linearGradient x1="5.25973986%" y1="13.2653061%" x2="94.4059541%" y2="82.3070444%" id="linearGradient-1">
            <stop stop-color="#94E5FE" offset="0%"></stop>
            <stop stop-color="#5CD3F8" offset="100%"></stop>
        </linearGradient>
        <linearGradient x1="0%" y1="13.2653061%" x2="100%" y2="86.7346939%" id="linearGradient-2">
            <stop stop-color="#FFFFFF" stop-opacity="0" offset="0%"></stop>
            <stop stop-color="#FFFFFF" offset="100%"></stop>
            <stop stop-color="#FFFFFF" offset="100%"></stop>
        </linearGradient>
        <path d="M13.552603,15.7094573 L18.9118631,21.0687173 C19.3023874,21.4592416 19.3023874,22.0924066 18.9118631,22.4829309 C18.7599736,22.6348203 18.5632127,22.7337645 18.3507088,22.7651157 L12.0639482,23.6926162 C11.5175776,23.7732236 11.0093115,23.3956478 10.9287041,22.8492771 C10.9144262,22.7524992 10.9144262,22.65415 10.9287041,22.5573721 L11.8562046,16.2706115 C11.936812,15.7242409 12.4450781,15.3466651 12.9914488,15.4272725 C13.2039526,15.4586237 13.4007136,15.5575678 13.552603,15.7094573 Z" id="path-3"></path>
        <filter x="-18.9%" y="1.2%" width="128.2%" height="128.2%" filterUnits="objectBoundingBox" id="filter-4">
            <feOffset dx="0" dy="1" in="SourceAlpha" result="shadowOffsetOuter1"></feOffset>
            <feGaussianBlur stdDeviation="0.5" in="shadowOffsetOuter1" result="shadowBlurOuter1"></feGaussianBlur>
            <feColorMatrix values="0 0 0 0 0.254901961   0 0 0 0 0.71372549   0 0 0 0 0.854901961  0 0 0 0.4 0" type="matrix" in="shadowBlurOuter1"></feColorMatrix>
        </filter>
    </defs>
    <g id="入口卡片" stroke="none" stroke-width="1" fill="none" fill-rule="evenodd">
        <g id="卡片项---功能入口卡片" transform="translate(-630.000000, -3824.000000)">
            <g id="功能入口卡片" transform="translate(181.000000, 381.000000)">
                <g id="自定义" transform="translate(0.000000, 2907.000000)">
                    <g id="2" transform="translate(7.000000, 414.000000)">
                        <g id="自定义-1" transform="translate(0.000000, 42.000000)">
                            <g id="卡片" transform="translate(20.000000, 62.000000)">
                                <g id="Card" transform="translate(390.000000, 0.000000)">
                                    <g id="视频" transform="translate(32.000000, 18.000000)">
                                        <rect id="矩形" fill="#000000" fill-rule="nonzero" opacity="0" x="0" y="0" width="40" height="40"></rect>
                                        <path d="M33.4308956,15.0019634 L40.447784,22.0188518 C41.2288326,22.7999004 41.2288326,24.0662304 40.447784,24.847279 C40.120416,25.174647 39.6896137,25.3783024 39.2288577,25.4235083 L29.0251263,26.4246212 L29.0251263,26.4246212 L30.0262392,16.2208898 C30.1340933,15.1215986 31.112678,14.31788 32.2119693,14.4257341 C32.6727253,14.47094 33.1035276,14.6745954 33.4308956,15.0019634 Z" id="矩形备份-9" fill="#41B6DA" transform="translate(36.232233, 19.217514) rotate(45.000000) translate(-36.232233, -19.217514) "></path>
                                        <rect id="矩形" stroke="url(#linearGradient-2)" fill-opacity="0.7" fill="url(#linearGradient-1)" x="2.5" y="6.5" width="29" height="25" rx="4"></rect>
                                        <g id="矩形备份-10" transform="translate(15.525126, 19.096194) scale(-1, 1) rotate(45.000000) translate(-15.525126, -19.096194) ">
                                            <use fill="black" fill-opacity="1" filter="url(#filter-4)" xlink:href="#path-3"></use>
                                            <use fill="#FFFFFF" fill-rule="evenodd" xlink:href="#path-3"></use>
                                        </g>
                                    </g>
                                </g>
                            </g>
                        </g>
                    </g>
                </g>
            </g>
        </g>
    </g>
</svg>