<?xml version="1.0" encoding="UTF-8"?>
<svg width="20px" height="19px" viewBox="0 0 20 19" version="1.1" xmlns="http://www.w3.org/2000/svg" xmlns:xlink="http://www.w3.org/1999/xlink">
    <title>wineshop</title>
    <defs>
        <linearGradient x1="-26.6701991%" y1="74.7682184%" x2="59.7341811%" y2="46.8456428%" id="linearGradient-1">
            <stop stop-color="#3E1D81" offset="0%"></stop>
            <stop stop-color="#3763DD" offset="100%"></stop>
        </linearGradient>
        <linearGradient x1="0.00262266721%" y1="50.0029%" x2="99.9890752%" y2="50.0029%" id="linearGradient-2">
            <stop stop-color="#5F1DCE" offset="0%"></stop>
            <stop stop-color="#37A9DD" offset="100%"></stop>
        </linearGradient>
        <linearGradient x1="50.2254177%" y1="-8.01475282%" x2="49.6713235%" y2="134.442159%" id="linearGradient-3">
            <stop stop-color="#3281FF" offset="0%"></stop>
            <stop stop-color="#241B96" offset="93%"></stop>
            <stop stop-color="#23138E" offset="100%"></stop>
        </linearGradient>
        <linearGradient x1="50.0333426%" y1="34.9320029%" x2="49.6832451%" y2="194.664843%" id="linearGradient-4">
            <stop stop-color="#3281FF" offset="0%"></stop>
            <stop stop-color="#241B96" offset="93%"></stop>
            <stop stop-color="#23138E" offset="100%"></stop>
        </linearGradient>
        <linearGradient x1="-12.57503%" y1="63.7298874%" x2="144.407763%" y2="29.3332155%" id="linearGradient-5">
            <stop stop-color="#00A7F6" offset="0%"></stop>
            <stop stop-color="#032D8F" offset="100%"></stop>
        </linearGradient>
        <linearGradient x1="-316.001248%" y1="-53.4009104%" x2="306.955708%" y2="122.594127%" id="linearGradient-6">
            <stop stop-color="#9B09FF" offset="0%"></stop>
            <stop stop-color="#2509B8" offset="100%"></stop>
        </linearGradient>
        <linearGradient x1="-47.5786122%" y1="56.9208416%" x2="212.750431%" y2="37.8195232%" id="linearGradient-7">
            <stop stop-color="#00A7F6" offset="0%"></stop>
            <stop stop-color="#032D8F" offset="100%"></stop>
        </linearGradient>
        <linearGradient x1="-7.03856103e-14%" y1="50%" x2="100%" y2="50%" id="linearGradient-8">
            <stop stop-color="#5C258D" offset="1%"></stop>
            <stop stop-color="#4389A2" offset="100%"></stop>
        </linearGradient>
        <linearGradient x1="45.3000568%" y1="-85.2875755%" x2="50.8918567%" y2="75.5322529%" id="linearGradient-9">
            <stop stop-color="#780206" offset="1%"></stop>
            <stop stop-color="#061161" offset="100%"></stop>
        </linearGradient>
        <linearGradient x1="50.5%" y1="161.490683%" x2="50.5%" y2="36.9772257%" id="linearGradient-10">
            <stop stop-color="#5C258D" offset="1%"></stop>
            <stop stop-color="#4389A2" offset="100%"></stop>
        </linearGradient>
        <linearGradient x1="47.6182909%" y1="-8.14363578%" x2="53.1177475%" y2="125.905739%" id="linearGradient-11">
            <stop stop-color="#5C258D" offset="1%"></stop>
            <stop stop-color="#4389A2" offset="100%"></stop>
        </linearGradient>
        <linearGradient x1="-78.8634789%" y1="121.576382%" x2="165.003465%" y2="-13.8739891%" id="linearGradient-12">
            <stop stop-color="#AEDAAF" offset="0%"></stop>
            <stop stop-color="#64B3F4" offset="100%"></stop>
        </linearGradient>
        <linearGradient x1="49.9731241%" y1="-36.7590618%" x2="50.0349386%" y2="166.609808%" id="linearGradient-13">
            <stop stop-color="#43CEA2" offset="0%"></stop>
            <stop stop-color="#185A9D" offset="100%"></stop>
        </linearGradient>
        <linearGradient x1="47.0215821%" y1="-21.6182573%" x2="54.1692762%" y2="150.207469%" id="linearGradient-14">
            <stop stop-color="#AEDAAF" offset="0%"></stop>
            <stop stop-color="#64B3F4" offset="100%"></stop>
        </linearGradient>
        <linearGradient x1="47.0168504%" y1="-21.6216216%" x2="54.1764094%" y2="150.18711%" id="linearGradient-15">
            <stop stop-color="#AEDAAF" offset="0%"></stop>
            <stop stop-color="#64B3F4" offset="100%"></stop>
        </linearGradient>
        <linearGradient x1="50.4372632%" y1="-13.8697558%" x2="49.0161578%" y2="194.834064%" id="linearGradient-16">
            <stop stop-color="#AEDAAF" offset="0%"></stop>
            <stop stop-color="#64B3F4" offset="100%"></stop>
        </linearGradient>
        <linearGradient x1="50.8665718%" y1="-8.01475282%" x2="48.736471%" y2="134.442159%" id="linearGradient-17">
            <stop stop-color="#3281FF" offset="0%"></stop>
            <stop stop-color="#241B96" offset="93%"></stop>
            <stop stop-color="#23138E" offset="100%"></stop>
        </linearGradient>
        <linearGradient x1="50.090165%" y1="34.9320029%" x2="49.1434321%" y2="194.664843%" id="linearGradient-18">
            <stop stop-color="#3281FF" offset="0%"></stop>
            <stop stop-color="#241B96" offset="93%"></stop>
            <stop stop-color="#23138E" offset="100%"></stop>
        </linearGradient>
        <linearGradient x1="-61.1022965%" y1="55.1921453%" x2="170.05428%" y2="44.3975039%" id="linearGradient-19">
            <stop stop-color="#9B09FF" offset="0%"></stop>
            <stop stop-color="#2509B8" offset="100%"></stop>
        </linearGradient>
        <linearGradient x1="-12.57503%" y1="63.5180589%" x2="144.407763%" y2="29.6520683%" id="linearGradient-20">
            <stop stop-color="#00A7F6" offset="0%"></stop>
            <stop stop-color="#032D8F" offset="100%"></stop>
        </linearGradient>
        <linearGradient x1="122.689076%" y1="60.0840409%" x2="-46.1684674%" y2="39.2279424%" id="linearGradient-21">
            <stop stop-color="#1CFBE9" offset="0%"></stop>
            <stop stop-color="#38FF9B" offset="100%"></stop>
        </linearGradient>
        <linearGradient x1="0.00262266721%" y1="50.0029%" x2="99.9890752%" y2="50.0029%" id="linearGradient-22">
            <stop stop-color="#5F1DCE" offset="0%"></stop>
            <stop stop-color="#37A9DD" offset="100%"></stop>
        </linearGradient>
        <linearGradient x1="50.0483239%" y1="34.9320029%" x2="49.5409227%" y2="194.664843%" id="linearGradient-23">
            <stop stop-color="#3281FF" offset="0%"></stop>
            <stop stop-color="#241B96" offset="93%"></stop>
            <stop stop-color="#23138E" offset="100%"></stop>
        </linearGradient>
        <linearGradient x1="50.6247831%" y1="-8.01475282%" x2="49.0890176%" y2="134.442159%" id="linearGradient-24">
            <stop stop-color="#3281FF" offset="0%"></stop>
            <stop stop-color="#241B96" offset="93%"></stop>
            <stop stop-color="#23138E" offset="100%"></stop>
        </linearGradient>
        <linearGradient x1="56.4892305%" y1="-83.3456699%" x2="48.7529593%" y2="75.2035529%" id="linearGradient-25">
            <stop stop-color="#780206" offset="1%"></stop>
            <stop stop-color="#061161" offset="100%"></stop>
        </linearGradient>
        <linearGradient x1="53.3164899%" y1="-7.09433962%" x2="45.6897188%" y2="124.566038%" id="linearGradient-26">
            <stop stop-color="#3D3393" offset="0%"></stop>
            <stop stop-color="#9B3D89" offset="100%"></stop>
        </linearGradient>
        <linearGradient x1="114.694111%" y1="66.4431623%" x2="-80.3316181%" y2="16.7381116%" id="linearGradient-27">
            <stop stop-color="#5C258D" offset="1%"></stop>
            <stop stop-color="#534794" offset="35%"></stop>
            <stop stop-color="#4389A2" offset="100%"></stop>
        </linearGradient>
        <linearGradient x1="49.640122%" y1="101.880342%" x2="50.551813%" y2="-32.5356125%" id="linearGradient-28">
            <stop stop-color="#5C258D" offset="1%"></stop>
            <stop stop-color="#4389A2" offset="100%"></stop>
        </linearGradient>
        <linearGradient x1="34.1944112%" y1="6.48688047%" x2="79.1975163%" y2="130.794461%" id="linearGradient-29">
            <stop stop-color="#5C258D" offset="1%"></stop>
            <stop stop-color="#4389A2" offset="100%"></stop>
        </linearGradient>
        <linearGradient x1="49.9845541%" y1="0.603015075%" x2="50.0242722%" y2="154.874372%" id="linearGradient-30">
            <stop stop-color="#B24592" offset="0%"></stop>
            <stop stop-color="#F15F79" offset="100%"></stop>
        </linearGradient>
        <linearGradient x1="50.21192%" y1="77.245509%" x2="48.5165597%" y2="-101.896208%" id="linearGradient-31">
            <stop stop-color="#FFD54D" offset="0%"></stop>
            <stop stop-color="#FF5E61" offset="100%"></stop>
        </linearGradient>
        <linearGradient x1="1.46252285%" y1="34.3899942%" x2="100.731261%" y2="66.4288913%" id="linearGradient-32">
            <stop stop-color="#B24592" offset="0%"></stop>
            <stop stop-color="#F15F79" offset="100%"></stop>
        </linearGradient>
        <linearGradient x1="50.0023992%" y1="-2.38993711%" x2="49.9928024%" y2="139.874214%" id="linearGradient-33">
            <stop stop-color="#B24592" offset="0%"></stop>
            <stop stop-color="#F15F79" offset="100%"></stop>
        </linearGradient>
        <linearGradient x1="53.9346955%" y1="-21.3105727%" x2="44.496804%" y2="149.72467%" id="linearGradient-34">
            <stop stop-color="#AEDAAF" offset="0%"></stop>
            <stop stop-color="#64B3F4" offset="100%"></stop>
        </linearGradient>
        <linearGradient x1="80.8797126%" y1="155.061728%" x2="34.4805568%" y2="-3.45679012%" id="linearGradient-35">
            <stop stop-color="#E94287" offset="0%"></stop>
            <stop stop-color="#FCA15A" offset="100%"></stop>
        </linearGradient>
        <linearGradient x1="374.624798%" y1="-57.2423471%" x2="-58.854768%" y2="85.7768587%" id="linearGradient-36">
            <stop stop-color="#9B09FF" offset="0%"></stop>
            <stop stop-color="#2509B8" offset="100%"></stop>
        </linearGradient>
        <linearGradient x1="-316.001248%" y1="-47.4953583%" x2="306.955708%" y2="118.448047%" id="linearGradient-37">
            <stop stop-color="#9B09FF" offset="0%"></stop>
            <stop stop-color="#2509B8" offset="100%"></stop>
        </linearGradient>
        <linearGradient x1="57.4498229%" y1="-22.2802864%" x2="48.5950413%" y2="63.6107576%" id="linearGradient-38">
            <stop stop-color="#780206" offset="1%"></stop>
            <stop stop-color="#061161" offset="100%"></stop>
        </linearGradient>
        <linearGradient x1="50.5649718%" y1="64.6661449%" x2="46.0451977%" y2="-31.7651009%" id="linearGradient-39">
            <stop stop-color="#FFD54D" offset="0%"></stop>
            <stop stop-color="#FF5E61" offset="100%"></stop>
        </linearGradient>
        <linearGradient x1="46.5%" y1="0.603015075%" x2="55.5%" y2="154.874372%" id="linearGradient-40">
            <stop stop-color="#B24592" offset="0%"></stop>
            <stop stop-color="#F15F79" offset="100%"></stop>
        </linearGradient>
        <linearGradient x1="1.46252285%" y1="34.0728982%" x2="100.731261%" y2="66.7626219%" id="linearGradient-41">
            <stop stop-color="#B24592" offset="0%"></stop>
            <stop stop-color="#F15F79" offset="100%"></stop>
        </linearGradient>
        <linearGradient x1="50.0172768%" y1="-2.38993711%" x2="49.9481697%" y2="139.874214%" id="linearGradient-42">
            <stop stop-color="#B24592" offset="0%"></stop>
            <stop stop-color="#F15F79" offset="100%"></stop>
        </linearGradient>
        <linearGradient x1="5.08474576%" y1="34.81941%" x2="166.949153%" y2="85.1146981%" id="linearGradient-43">
            <stop stop-color="#B24592" offset="0%"></stop>
            <stop stop-color="#F15F79" offset="100%"></stop>
        </linearGradient>
        <linearGradient x1="133.62069%" y1="106.693012%" x2="7.97413793%" y2="21.1538494%" id="linearGradient-44">
            <stop stop-color="#E94287" offset="0%"></stop>
            <stop stop-color="#FCA15A" offset="100%"></stop>
        </linearGradient>
        <linearGradient x1="50.5649718%" y1="64.6757731%" x2="46.0451977%" y2="-31.818779%" id="linearGradient-45">
            <stop stop-color="#FFD54D" offset="0%"></stop>
            <stop stop-color="#FF5E61" offset="100%"></stop>
        </linearGradient>
        <linearGradient x1="5.08474576%" y1="34.8070404%" x2="166.949153%" y2="85.1433106%" id="linearGradient-46">
            <stop stop-color="#B24592" offset="0%"></stop>
            <stop stop-color="#F15F79" offset="100%"></stop>
        </linearGradient>
        <linearGradient x1="133.62069%" y1="106.591422%" x2="7.97413793%" y2="21.2055399%" id="linearGradient-47">
            <stop stop-color="#E94287" offset="0%"></stop>
            <stop stop-color="#FCA15A" offset="100%"></stop>
        </linearGradient>
        <linearGradient x1="57.4498229%" y1="-22.2667349%" x2="48.5950413%" y2="63.6154718%" id="linearGradient-48">
            <stop stop-color="#780206" offset="1%"></stop>
            <stop stop-color="#061161" offset="100%"></stop>
        </linearGradient>
        <linearGradient x1="0.0264131009%" y1="50.0218245%" x2="127.786582%" y2="50.0218245%" id="linearGradient-49">
            <stop stop-color="#3CA1FB" offset="0%"></stop>
            <stop stop-color="#C465DF" offset="100%"></stop>
        </linearGradient>
        <linearGradient x1="27.3906353%" y1="40.9346245%" x2="173.686525%" y2="99.6016073%" id="linearGradient-50">
            <stop stop-color="#3CA1FB" offset="0%"></stop>
            <stop stop-color="#C465DF" offset="100%"></stop>
        </linearGradient>
        <linearGradient x1="-12.57503%" y1="63.739781%" x2="144.407763%" y2="29.3183232%" id="linearGradient-51">
            <stop stop-color="#00A7F6" offset="0%"></stop>
            <stop stop-color="#032D8F" offset="100%"></stop>
        </linearGradient>
        <linearGradient x1="-316.001248%" y1="-46.0622352%" x2="306.955708%" y2="117.441902%" id="linearGradient-52">
            <stop stop-color="#9B09FF" offset="0%"></stop>
            <stop stop-color="#2509B8" offset="100%"></stop>
        </linearGradient>
        <linearGradient x1="-47.5786122%" y1="53.5164167%" x2="212.750431%" y2="43.8112105%" id="linearGradient-53">
            <stop stop-color="#00A7F6" offset="0%"></stop>
            <stop stop-color="#032D8F" offset="100%"></stop>
        </linearGradient>
        <linearGradient x1="374.624798%" y1="-63.1220457%" x2="-58.854768%" y2="87.7383707%" id="linearGradient-54">
            <stop stop-color="#9B09FF" offset="0%"></stop>
            <stop stop-color="#2509B8" offset="100%"></stop>
        </linearGradient>
        <linearGradient x1="-61.1022965%" y1="55.1744545%" x2="170.05428%" y2="44.4165928%" id="linearGradient-55">
            <stop stop-color="#9B09FF" offset="0%"></stop>
            <stop stop-color="#2509B8" offset="100%"></stop>
        </linearGradient>
        <linearGradient x1="-12.57503%" y1="63.4171294%" x2="144.407763%" y2="29.8039915%" id="linearGradient-56">
            <stop stop-color="#00A7F6" offset="0%"></stop>
            <stop stop-color="#032D8F" offset="100%"></stop>
        </linearGradient>
        <linearGradient x1="122.689076%" y1="58.9072598%" x2="-46.1684674%" y2="40.4850133%" id="linearGradient-57">
            <stop stop-color="#1CFBE9" offset="0%"></stop>
            <stop stop-color="#38FF9B" offset="100%"></stop>
        </linearGradient>
        <linearGradient x1="-316.001248%" y1="-66.7657827%" x2="306.955708%" y2="131.977132%" id="linearGradient-58">
            <stop stop-color="#9B09FF" offset="0%"></stop>
            <stop stop-color="#2509B8" offset="100%"></stop>
        </linearGradient>
        <linearGradient x1="374.624798%" y1="-75.3509826%" x2="-58.854768%" y2="91.8180366%" id="linearGradient-59">
            <stop stop-color="#9B09FF" offset="0%"></stop>
            <stop stop-color="#2509B8" offset="100%"></stop>
        </linearGradient>
    </defs>
    <g id="图标" stroke="none" stroke-width="1" fill="none" fill-rule="evenodd">
        <g id="wineshop" transform="translate(0.000000, 0.992533)" fill-rule="nonzero">
            <g id="_编组_4" transform="translate(0.000000, 5.515074)">
                <path d="M0.00318335643,5.72542211 L0.00318335643,5.72542211 L0.00318335643,5.30097307 L0.124102711,5.21871551 L0.227747243,5.34292443 L8.36466555,0.654243236 C8.77187482,0.419140857 9.27357732,0.419140857 9.68078659,0.654243236 L19.759806,6.47314337 L19.9300792,6.3201443 L19.9999981,6.39746641 L19.9999981,6.88360862 L19.9999981,6.88360862 C19.9956943,7.03623875 19.9121463,7.17558923 19.7795478,7.25129993 L11.6409844,11.9399811 C11.2337751,12.1750835 10.7320726,12.1750835 10.3248633,11.9399811 L0.224456941,6.10874236 C0.0873985483,6.03059716 0.00289590734,5.88483795 0.00318335643,5.72706726 L0.00318335643,5.72706726 L0.00318335643,5.72542211 Z" id="_路径_" fill="url(#linearGradient-1)"></path>
                <path d="M11.6401618,11.465355 L19.7787252,6.77667378 C19.9156731,6.69741203 20,6.55117355 20,6.39294224 C20,6.23471094 19.9156731,6.08847246 19.7787252,6.0092107 L9.68078659,0.176326784 C9.27357732,-0.0587755948 8.77187482,-0.0587755948 8.36466555,0.176326784 L0.221166638,4.86500798 C0.0842571618,4.94449437 0,5.09084006 0,5.24915081 C0,5.40746155 0.0842571618,5.55380724 0.221166638,5.63329363 L10.3199279,11.4637098 C10.7278861,11.7009075 11.2316137,11.7015352 11.6401618,11.465355 Z" id="_路径_2" fill="url(#linearGradient-2)"></path>
            </g>
            <g id="_编组_5" transform="translate(4.802090, 0.000000)">
                <g id="_编组_6" transform="translate(1.530813, 0.000000)">
                    <g id="_编组_8" transform="translate(0.137370, 0.000000)">
                        <g id="_编组_9" transform="translate(2.402743, 1.383572)" fill="url(#linearGradient-3)">
                            <polygon id="_路径_3" points="0 0.899897759 0.00246772694 7.8333879 1.52094237 6.95734483 1.51929722 0"></polygon>
                        </g>
                        <g id="_编组_10" transform="translate(0.000000, 0.883446)" fill="url(#linearGradient-4)">
                            <polygon id="_路径_4" points="2.40274347 1.40002375 0 -1.46118788e-16 0.0016451513 6.94665135 2.40521119 8.33351389"></polygon>
                        </g>
                        <g id="_编组_11" fill="url(#linearGradient-5)">
                            <polygon id="_路径_5" points="3.92204069 1.38357224 1.52505525 0 0 0.883446246 2.40274347 2.28347"></polygon>
                        </g>
                    </g>
                    <polygon id="_路径_6" fill="url(#linearGradient-6)" points="2.5401136 6.92937726 0 5.46601518 0 5.33604823 2.5401136 6.80763606"></polygon>
                    <polygon id="_路径_7" fill="url(#linearGradient-7)" points="2.5401136 6.80763606 0 5.33604823 0.138192709 5.25050036 0.141483011 5.29903232 2.5401136 6.68918517 4.06105597 5.81478726 4.06105597 5.76790044 4.20089383 5.8435774"></polygon>
                    <polygon id="_路径_8" fill="url(#linearGradient-8)" points="4.20089383 5.9653186 2.5401136 6.92937726 2.5401136 6.80763606 4.20089383 5.8435774"></polygon>
                    <g id="_编组_12" transform="translate(2.687355, 6.492590)">
                        <g id="_编组_13" opacity="0.1" transform="translate(0.000000, 0.037838)" fill="url(#linearGradient-9)">
                            <g id="编组">
                                <polygon id="路径" points="1.15325106 0 0 0.636673552 0 2.57301663 0.0246772694 2.58864556 1.15325106 1.94785913"></polygon>
                            </g>
                        </g>
                        <g id="_编组_14" transform="translate(0.003702, 0.000000)">
                            <polygon id="_路径_9" fill="url(#linearGradient-10)" points="0.0745 2.64869359 0.0255 2.62648404 0.0255 0.662173397 0.0745 0.683560364"></polygon>
                            <polygon id="_路径_10" fill="url(#linearGradient-11)" points="1.18656537 0.0378384798 1.14954947 1.98405246 0.0769108231 2.60345193 0.0752656718 0.679447485"></polygon>
                            <polygon id="_路径_11" fill="#FFFFFF" opacity="0.1" points="0.716052102 0.305998141 0.0612818858 0.683560364 0.0917171848 2.5030977"></polygon>
                            <polygon id="_路径_12" fill="url(#linearGradient-12)" points="1.20795234 0.0213869668 0.0612818858 0.683560364 0.020975679 0.662173397 1.16764613 0"></polygon>
                            <polygon id="_路径_13" fill="url(#linearGradient-13)" points="1.15540447 0.0871930187 1.15540447 1.98405246 1.18940447 1.9996814 1.18940447 0.0707415057"></polygon>
                            <polygon id="_路径_14" fill="url(#linearGradient-14)" points="0.0668707529 0.683560364 0.0668707529 2.64869359 0.0678707529 2.64787101 0.0668707529 2.64869359 0.103870753 2.6314195 0.103870753 2.5976939 0.103870753 0.698366725 0.103870753 0.666286275 0.0678707529 0.683560364"></polygon>
                            <polygon id="_路径_15" fill="url(#linearGradient-15)" points="1.18310591 0.0707415057 1.18310591 0.0707415057 1.18310591 1.96842353 1.18310591 1.96842353 1.18310591 1.9996814 1.22010591 1.98158474 1.22010591 1.97664928 1.22010591 1.95114944 1.22010591 0.0213869668 1.18310591 0.0394836311"></polygon>
                            <polygon id="_路径_16" fill="url(#linearGradient-16)" points="0.0621044614 0.683560364 0.0612818858 0.683560364 0.0612818858 2.64869359 0.0621044614 2.64787101 0.0612818858 2.64869359 0.0917171848 2.6314195 0.0917171848 2.5976939 0.0917171848 1.04138077 0.0917171848 0.698366725 1.17751704 0.0707415057 1.17751704 1.96842353 1.17751704 1.96842353 1.17751704 1.9996814 1.20795234 1.98158474 1.20795234 1.97664928 1.20795234 1.95114944 1.20795234 0.0213869668"></polygon>
                        </g>
                    </g>
                </g>
                <g id="_编组_142" transform="translate(2.741645, 2.352566)">
                    <g id="_编组_143" transform="translate(4.112056, 2.377244)" fill="#888888">
                        <polygon id="_路径_125" points="0 1.76936022 0.00246772694 8.0595962 3.06820717 6.29023598 3.06573944 0"></polygon>
                    </g>
                    <g id="_编组_144" transform="translate(0.000000, 1.767715)" fill="#C2C2C2">
                        <polygon id="_路径_126" points="4.11205566 2.37888877 0 0 0.00246772694 6.29023598 0.664641124 6.67684654 0.664641124 6.62173397 3.15293246 8.05301559 3.34870546 8.21999845 4.11452339 8.66912476"></polygon>
                    </g>
                    <g id="_编组_145" fill="#DEDEDE">
                        <polygon id="_路径_127" points="7.17779511 2.37724362 3.06985232 0 0 1.76771507 4.11205566 4.14660384"></polygon>
                    </g>
                </g>
                <g id="_编组_147" transform="translate(2.741645, 2.352566)">
                    <g id="_编组_148" transform="translate(4.112056, 2.377244)" fill="url(#linearGradient-17)">
                        <polygon id="_路径_128" points="0 1.76936022 0.00246772694 8.0595962 3.06820717 6.29023598 3.06573944 0"></polygon>
                    </g>
                    <g id="_编组_149" transform="translate(0.000000, 1.767715)" fill="url(#linearGradient-18)">
                        <polygon id="_路径_129" points="4.11205566 2.37888877 0 0 0.00246772694 6.29023598 0.664641124 6.67684654 0.664641124 6.62173397 3.15293246 8.05301559 3.34870546 8.21999845 4.11452339 8.66912476"></polygon>
                    </g>
                    <g id="_编组_150" fill="url(#linearGradient-19)">
                        <polygon id="_路径_130" points="7.17779511 2.37724362 3.06985232 0 0 1.76771507 4.11205566 4.14660384"></polygon>
                    </g>
                    <g id="_编组_151" transform="translate(0.658883, 0.380853)" fill="url(#linearGradient-20)">
                        <polygon id="_路径_131" points="5.85920634 1.94045595 2.506388 0 0 1.44279769 3.35693122 3.38489879"></polygon>
                    </g>
                    <polygon id="_路径_132" fill="url(#linearGradient-21)" points="3.16527109 0.609528555 0.857123825 1.93798823 0.658883094 1.82365021 3.16527109 0.380852525 6.51808944 2.32130848 6.32067128 2.43564649"></polygon>
                </g>
                <polygon id="_路径_133" fill="url(#linearGradient-22)" points="6.85616803 12.7055035 3.74189662 14.5061216 0 12.309022 3.08877156 10.5445972"></polygon>
                <g id="_编组_158" transform="translate(0.929680, 9.920558)">
                    <g id="_编组_159" transform="translate(0.000000, 0.179663)" fill="url(#linearGradient-23)">
                        <polygon id="_路径_137" points="3.00149224 3.73602924 2.57803605 3.49786922 2.61332387 1.33767976 3.03678007 1.57666236"></polygon>
                        <polygon id="_路径_137备份" points="0.610750851 2.39834948 0.187294657 2.16018946 0.222582482 -1.83521074e-13 0.646038676 0.238982601"></polygon>
                    </g>
                    <g id="_编组_160" transform="translate(0.385847, 0.000000)" fill="url(#linearGradient-24)">
                        <polygon id="_路径_138" points="2.99283306 1.33767976 2.96762505 3.69982169 2.62198305 3.91569201 2.64719107 1.5560178"></polygon>
                        <polygon id="_路径_138备份" points="0.602091672 1.86165044e-13 0.576883658 2.36214193 0.231241662 2.57801225 0.256449675 0.218338041"></polygon>
                    </g>
                </g>
                <g id="_编组_162" transform="translate(3.375850, 9.267960)">
                    <g id="_编组_163" opacity="0.1" transform="translate(0.069919, 0.045242)" fill="url(#linearGradient-25)">
                        <g id="编组">
                            <polygon id="路径" points="0 0 1.38686254 0.764995353 1.38686254 2.20368016 1.35642724 2.2225994 0 1.45678147"></polygon>
                        </g>
                    </g>
                    <g id="_编组_164">
                        <polygon id="_路径_140" fill="url(#linearGradient-26)" points="0.0254998451 0.0452416606 0.0254998451 1.45760405 1.36054012 2.22506713 1.36054012 0.816817619"></polygon>
                        <polygon id="_路径_141" fill="#FFFFFF" opacity="0.1" points="0.590609315 0.367691315 1.37781421 0.821753072 1.34162088 2.12306775"></polygon>
                        <polygon id="_路径_142" fill="url(#linearGradient-27)" points="0 0.0254998451 1.37781421 0.821753072 1.43868481 0.788850047 0.0649834762 0"></polygon>
                        <polygon id="_路径_143" fill="url(#linearGradient-28)" points="0.128531963 0.114338015 0.128531963 1.50860374 0.0685319632 1.53410358 0.0685319632 0.0904833213"></polygon>
                        <polygon id="_路径_144" fill="url(#linearGradient-29)" points="1.37781421 0.821753072 1.37781421 0.821753072 1.37205618 2.28264742 1.30954043 2.24069607 1.30954043 0.864527006 0.0649834762 0.139015285 0.0649834762 1.53410358 0 1.4929748 0 0.0254998451"></polygon>
                    </g>
                </g>
                <g id="_编组_165" transform="translate(4.747907, 10.056810)">
                    <g id="_编组_166" opacity="0.1" transform="translate(0.070742, 0.046064)" fill="url(#linearGradient-25)">
                        <g id="编组">
                            <polygon id="路径" points="0 0 1.38686254 0.764995353 1.38686254 2.20368016 1.35642724 2.2225994 0 1.45678147"></polygon>
                        </g>
                    </g>
                    <g id="_编组_167">
                        <polygon id="_路径_145" fill="url(#linearGradient-30)" points="1.3809433 2.29498606 1.4549433 2.26455076 1.4549433 0.789672622 1.3809433 0.822575648"></polygon>
                        <polygon id="_路径_146" fill="url(#linearGradient-31)" points="0.0263224207 0.0460642363 0.0263224207 1.45842662 1.3613627 2.2258897 1.3613627 0.817640194"></polygon>
                        <polygon id="_路径_147" fill="#FFFFFF" opacity="0.1" points="0.591431891 0.367691315 1.37863679 0.822575648 1.34244346 2.12389032"></polygon>
                        <polygon id="_路径_148" fill="url(#linearGradient-32)" points="0 0.0263224207 1.37863679 0.822575648 1.43950738 0.789672622 0.0658060518 0"></polygon>
                        <polygon id="_路径_149" fill="url(#linearGradient-33)" points="0.129354539 0.115160591 0.129354539 1.50942631 0.0693545389 1.53492616 0.0693545389 0.0913058969"></polygon>
                        <polygon id="_路径_150" fill="url(#linearGradient-34)" points="1.39141134 0.822575648 1.39141134 2.29498606 1.39141134 2.29416348 1.39141134 2.29498606 1.34741134 2.27359909 1.34741134 2.23329288 1.34741134 0.839849737 1.34741134 0.801188681 1.39141134 0.822575648"></polygon>
                        <polygon id="_路径_151" fill="url(#linearGradient-35)" points="1.37863679 0.822575648 1.37863679 0.822575648 1.37863679 2.29498606 1.37863679 2.29416348 1.37863679 2.29498606 1.31036301 2.26126046 1.31036301 0.865349582 0.0658060518 0.13983786 0.0658060518 1.53492616 0 1.49379738 0 0.0263224207"></polygon>
                    </g>
                </g>
                <polygon id="_路径_152" fill="url(#linearGradient-36)" points="6.85616803 10.5051136 9.0154291 9.25233089 9.0154291 9.13058969 6.85616803 10.3833724"></polygon>
                <polygon id="_路径_153" fill="url(#linearGradient-37)" points="2.60345193 8.03656408 6.85616803 10.5051136 6.85616803 10.3833724 2.60345193 7.91482289"></polygon>
                <g id="_编组_175" transform="translate(3.055046, 5.582821)">
                    <g id="_编组_176" opacity="0.3" transform="translate(0.085548, 0.000000)" fill="url(#linearGradient-38)">
                        <g id="编组">
                            <polygon id="路径" points="3.48360787 2.00955231 3.48278529 2.64211298 0.00575802954 0.642431581 0 0"></polygon>
                        </g>
                    </g>
                    <g id="_编组_178">
                        <g id="_编组_179" transform="translate(0.000000, 0.051822)" fill="url(#linearGradient-39)">
                            <polygon id="_路径_159" points="3.41615667 1.96842353 3.41533409 2.506388 0 0.537964474 0.000822575648 0"></polygon>
                        </g>
                        <g id="_编组_180" transform="translate(2.966951, 1.763442)" fill="url(#linearGradient-40)">
                            <polygon id="_路径_160" points="0.550794046 0.195281031 0.550876304 0.745869725 0.449205954 0.804718969 0.449123696 0.260429023"></polygon>
                        </g>
                        <g id="_编组_181" transform="translate(0.000823, 0.000000)" fill="url(#linearGradient-41)">
                            <polygon id="_路径_161" points="0 0.0518222658 0.0847252918 0 3.50005938 1.96842353 3.41533409 2.02024579"></polygon>
                        </g>
                    </g>
                    <polygon id="_路径_162" fill="#FFFFFF" opacity="0.1" points="0.0756769596 0.445836001 2.13211608 1.27992771 0.0830801405 0.0995316534"></polygon>
                    <polygon id="_路径_163" fill="url(#linearGradient-42)" points="0 0.58978674 0.1 0.538787049 0.0990196078 0.0995316534 0.000980392157 0.0518222658"></polygon>
                    <polygon id="_路径_164" fill="url(#linearGradient-43)" points="3.41533409 2.55821027 0 0.58978674 0.0839027161 0.538787049 3.41533409 2.45785604"></polygon>
                    <path d="M3.37256016,1.99556852 L3.37256016,1.99556852 L0,0.0518222658 L0,0.58978674 L3.41533409,2.56067799 L3.41533409,2.02271352 L3.37256016,1.99556852 Z M3.37256016,2.48088815 L0.0435965093,0.563464319 L0.0435965093,0.127499225 L3.37173758,2.04821336 L3.37256016,2.48088815 Z" id="_复合路径_20" fill="url(#linearGradient-44)"></path>
                </g>
                <g id="_编组_175" transform="translate(3.055046, 4.719116)">
                    <g id="_编组_176" opacity="0.3" transform="translate(0.085548, 0.000000)" fill="url(#linearGradient-38)">
                        <g id="编组">
                            <polygon id="路径" points="0 0 3.48360787 2.00955231 3.48278529 2.64211298 0.00575802954 0.642431581"></polygon>
                        </g>
                    </g>
                    <g id="_编组_178">
                        <g id="_编组_179" transform="translate(0.000000, 0.051822)" fill="url(#linearGradient-39)">
                            <polygon id="_路径_159" points="3.41615667 1.96842353 3.41533409 2.506388 0 0.537964474 0.000822575648 0"></polygon>
                        </g>
                        <g id="_编组_180" transform="translate(2.966498, 1.758621)" fill="url(#linearGradient-40)">
                            <polygon id="_路径_160" points="0.44965837 0.26162473 0.55132872 0.199438011 0.55132872 0.745284906 0.44867128 0.800561989"></polygon>
                        </g>
                        <g id="_编组_181" transform="translate(0.000823, 0.000000)" fill="url(#linearGradient-41)">
                            <polygon id="_路径_161" points="0 0.0518222658 0.0847252918 0 3.50005938 1.96842353 3.41533409 2.02024579"></polygon>
                        </g>
                    </g>
                    <polygon id="_路径_162" fill="#FFFFFF" opacity="0.1" points="0.0756769596 0.445836001 2.13211608 1.27992771 0.0830801405 0.0995316534"></polygon>
                    <polygon id="_路径_163" fill="url(#linearGradient-42)" points="0 0.58978674 0.1 0.538787049 0.0990196078 0.0995316534 0.000980392157 0.0518222658"></polygon>
                    <polygon id="_路径_164" fill="url(#linearGradient-43)" points="3.41533409 2.55821027 0 0.58978674 0.0839027161 0.538787049 3.41533409 2.45785604"></polygon>
                    <path d="M3.37256016,1.99556852 L3.37256016,1.99556852 L0,0.0518222658 L0,0.58978674 L3.41533409,2.56067799 L3.41533409,2.02271352 L3.37256016,1.99556852 Z M3.37256016,2.48088815 L0.0435965093,0.563464319 L0.0435965093,0.127499225 L3.37173758,2.04821336 L3.37256016,2.48088815 Z" id="_复合路径_20" fill="url(#linearGradient-44)"></path>
                </g>
                <g id="_编组_182" transform="translate(3.055046, 6.418558)">
                    <g id="_编组_183" opacity="0.3" transform="translate(0.085548, 0.000000)" fill="url(#linearGradient-38)">
                        <g id="编组">
                            <polygon id="路径" points="0 0 3.48360787 2.00955231 3.48278529 2.64211298 0.00575802954 0.642431581"></polygon>
                        </g>
                    </g>
                    <g id="_编组_185">
                        <g id="_编组_186" transform="translate(0.000000, 0.051822)" fill="url(#linearGradient-45)">
                            <polygon id="_路径_165" points="3.41615667 1.96842353 3.41533409 2.50721058 0 0.537964474 0.000822575648 0"></polygon>
                        </g>
                        <g id="_编组_187" transform="translate(2.966457, 1.761716)" fill="url(#linearGradient-40)">
                            <polygon id="_路径_166" points="0.551369849 0.197829617 0.551287592 0.745690664 0.448630151 0.802170383 0.449699499 0.259029245"></polygon>
                        </g>
                        <g id="_编组_188" transform="translate(0.000823, 0.000000)" fill="url(#linearGradient-41)">
                            <polygon id="_路径_167" points="0 0.0518222658 0.0847252918 0 3.50005938 1.9692461 3.41533409 2.02024579"></polygon>
                        </g>
                    </g>
                    <polygon id="_路径_168" fill="#FFFFFF" opacity="0.1" points="0.0756769596 0.445836001 2.13211608 1.28075028 0.0830801405 0.100354229"></polygon>
                    <polygon id="_路径_169" fill="url(#linearGradient-42)" points="0 0.58978674 0.1 0.538787049 0.0990196078 0.100354229 0.000980392157 0.0518222658"></polygon>
                    <polygon id="_路径_170" fill="url(#linearGradient-46)" points="3.41533409 2.55903284 0 0.58978674 0.0839027161 0.538787049 3.41533409 2.45785604"></polygon>
                    <path d="M3.37256016,1.99556852 L3.37256016,1.99556852 L0,0.0518222658 L0,0.58978674 L3.41615667,2.55903284 L3.41615667,2.02024579 L3.37256016,1.99556852 Z M3.37256016,2.48171073 L0.0452416606,0.563464319 L0.0452416606,0.127499225 L3.37338273,2.04821336 L3.37256016,2.48171073 Z" id="_复合路径_21" fill="url(#linearGradient-47)"></path>
                </g>
                <g id="_编组_189" transform="translate(3.055046, 7.255117)">
                    <g id="_编组_190" opacity="0.3" transform="translate(0.085548, 0.000000)" fill="url(#linearGradient-48)">
                        <g id="编组">
                            <polygon id="路径" points="0 0 3.48360787 2.00955231 3.48278529 2.64129041 0.00575802954 0.642431581"></polygon>
                        </g>
                    </g>
                    <g id="_编组_192">
                        <g id="_编组_193" transform="translate(0.000000, 0.051822)" fill="url(#linearGradient-39)">
                            <polygon id="_路径_171" points="3.41615667 1.96842353 3.41533409 2.506388 0 0.537964474 0.000822575648 0"></polygon>
                        </g>
                        <g id="_编组_194" transform="translate(2.966498, 1.753644)" fill="url(#linearGradient-40)">
                            <polygon id="_路径_172" points="0.55132872 0.197840578 0.55132872 0.74862433 0.44867128 0.802159422 0.44867128 0.267924023"></polygon>
                        </g>
                        <g id="_编组_195" transform="translate(0.000823, 0.000000)" fill="url(#linearGradient-41)">
                            <polygon id="_路径_173" points="0 0.0518222658 0.0847252918 0 3.50005938 1.96842353 3.41533409 2.02024579"></polygon>
                        </g>
                    </g>
                    <polygon id="_路径_174" fill="#FFFFFF" opacity="0.1" points="0.0756769596 0.445836001 2.13211608 1.27992771 0.0830801405 0.0995316534"></polygon>
                    <polygon id="_路径_175" fill="url(#linearGradient-42)" points="0 0.58978674 0.1 0.538787049 0.0990196078 0.0995316534 0.000980392157 0.0518222658"></polygon>
                    <polygon id="_路径_176" fill="url(#linearGradient-43)" points="3.41533409 2.55821027 0 0.58978674 0.0839027161 0.538787049 3.41533409 2.45703346"></polygon>
                    <path d="M3.37256016,1.99474595 L3.37256016,1.99474595 L0,0.0509996902 L0,0.58978674 L3.41615667,2.55821027 L3.41615667,2.02024579 L3.37256016,1.99474595 Z M3.37256016,2.48088815 L0.0435965093,0.559351441 L0.0435965093,0.123386347 L3.37173758,2.04492306 L3.37256016,2.48088815 Z" id="_复合路径_22" fill="url(#linearGradient-47)"></path>
                </g>
                <polygon id="_路径_183" fill="url(#linearGradient-49)" points="3.74189662 14.5061216 3.74189662 14.5900243 6.85616803 12.7894062 6.85616803 12.7055035"></polygon>
                <polygon id="_路径_184" fill="url(#linearGradient-50)" points="3.74189662 14.5061216 3.74189662 14.5900243 0 12.3929247 0 12.309022"></polygon>
                <g id="_编组_206" transform="translate(2.603452, 3.770687)">
                    <g id="_编组_208" transform="translate(6.309978, 0.000000)">
                        <g id="_编组_209" transform="translate(2.402743, 1.383572)" fill="url(#linearGradient-3)">
                            <polygon id="_路径_185" points="0 0.900720335 0.00246772694 7.8333879 1.52094237 6.95734483 1.51929722 0"></polygon>
                        </g>
                        <g id="_编组_210" transform="translate(0.000000, 0.883446)" fill="url(#linearGradient-4)">
                            <polygon id="_路径_186" points="2.40274347 1.40084633 0 0 0.0016451513 6.94747392 2.40521119 8.33351389"></polygon>
                        </g>
                        <g id="_编组_211" fill="url(#linearGradient-51)">
                            <polygon id="_路径_187" points="3.92204069 1.38357224 1.52505525 0 0 0.883446246 2.40274347 2.28429257"></polygon>
                        </g>
                    </g>
                    <polygon id="_路径_188" fill="url(#linearGradient-52)" points="8.71272126 6.93019984 6.20797842 5.47835382 6.27049417 5.47917639 6.31080037 5.41583807 8.71272126 6.80845864"></polygon>
                    <polygon id="_路径_189" fill="url(#linearGradient-53)" points="10.3735015 5.84439998 10.2336636 5.76790044 10.2336636 5.81560983 8.71272126 6.69000775 6.3132681 5.2998549 6.31080037 5.30150005 6.3099778 5.30067748 4.2527161 6.49423474 0.13983786 4.11534597 0.13983786 4.06763658 0 4.14413612 4.2527161 6.61268563 6.3132681 5.41748322 8.71272126 6.80845864"></polygon>
                    <polygon id="_路径_190" fill="url(#linearGradient-54)" points="10.3735015 5.96614118 8.71272126 6.93019984 8.71272126 6.80845864 10.3735015 5.84439998"></polygon>
                </g>
                <g id="_编组_395" transform="translate(1.006833, 8.690512)">
                    <g id="_编组_396" fill="url(#linearGradient-55)">
                        <polygon id="_路径_352" points="5.29162914 1.69203811 2.35256635 0 0 1.35313694 2.93824021 3.05175565"></polygon>
                    </g>
                    <g id="_编组_397" transform="translate(0.589787, 0.339724)" fill="url(#linearGradient-56)">
                        <polygon id="_路径_353" points="4.11041051 1.31694361 1.81460188 0 0 1.0438485 2.29580863 2.36572756"></polygon>
                    </g>
                    <polygon id="_路径_354" fill="url(#linearGradient-57)" points="2.40438862 0.415400702 0.655592792 1.4222333 0.58978674 1.38357224 2.40438862 0.339723743 4.70019725 1.65666736 4.6343912 1.69450584"></polygon>
                    <g id="_编组_398" transform="translate(0.000000, 1.353137)" fill="url(#linearGradient-58)">
                        <polygon id="_路径_355" points="2.93824021 1.69861871 0 0 0 0.26075648 2.93824021 1.95855262"></polygon>
                    </g>
                    <polygon id="_路径_356" fill="url(#linearGradient-59)" points="5.29162914 1.69203811 2.93824021 3.05175565 2.93824021 3.31168956 5.29162914 1.95279459"></polygon>
                </g>
            </g>
        </g>
    </g>
</svg>