<?xml version="1.0" encoding="UTF-8"?>
<svg width="24px" height="24px" viewBox="0 0 24 24" version="1.1" xmlns="http://www.w3.org/2000/svg" xmlns:xlink="http://www.w3.org/1999/xlink">
    <title>yantian</title>
    <g id="图标" stroke="none" stroke-width="1" fill="none" fill-rule="evenodd">
        <g id="yantian">
            <rect id="矩形备份-8" x="0" y="0" width="24" height="24"></rect>
            <path d="M10.8746334,4.46994955 L11.3341487,5.24883008 L12.1453606,5.82826716 L14.0094083,6.3366438 L14.2692713,7.2028538 L16.0991817,8.11780903 L18.8268832,8.92601686 L19.2716604,8.48123962 L19.89641,8.70842128 L20.230137,9.30912986 L19.3075667,11.5954623 L20.8385019,11.9016493 L21.2548674,12.3450997 L21.4526668,12.8890481 L19.7950465,13.0962506 L18.1200199,12.9977196 L16.2193239,14.5983058 L15.3560438,15.8932258 L14.787127,16.0557735 L14.0565334,16.6037187 L13.5328508,16.7533423 L11.6313546,16.8438897 L9.2192154,17.3263175 L6.42240982,19.6569889 L4.96313697,18.2258783 L2.71616904,18.0760804 L2.99559919,17.6569352 L2.54410498,16.4830503 L2.87853614,16.0371421 L4.12735902,15.6803355 L4.60076726,15.2069273 L5.17747642,14.2457454 L5.65330632,13.3892515 L6.10062326,12.1367641 L6.64178279,11.4152181 L7.33968404,9.75770261 L8.22686112,9.24018265 L8.88461729,9.24018265 L9.64106153,9.45630957 L10.6889824,8.80135902 L10.8211922,7.47926107 L9.83137552,6.66941105 L10.1272358,4.96821465 L10.8746334,4.46994955 Z" id="盐田区" stroke="#548FF7" stroke-width="0.8" fill="#0F57EF" fill-rule="nonzero"></path>
        </g>
    </g>
</svg>