<svg id="图层_1" data-name="图层 1" xmlns="http://www.w3.org/2000/svg" xmlns:xlink="http://www.w3.org/1999/xlink" viewBox="0 0 800 800"><defs><style>.cls-1,.cls-13,.cls-15,.cls-17,.cls-18,.cls-19,.cls-3,.cls-4,.cls-6{fill:none;}.cls-2{fill:#e3eaf0;}.cls-15,.cls-3{stroke:#c5d1df;}.cls-19,.cls-3,.cls-4,.cls-6{stroke-miterlimit:10;}.cls-3{stroke-width:2px;}.cls-4{stroke:#6bd6a5;stroke-width:0.46px;}.cls-5{fill:#6bd6a5;}.cls-6{stroke:#f9c152;stroke-width:0.52px;}.cls-13,.cls-15,.cls-17,.cls-18,.cls-19,.cls-6{stroke-linecap:round;}.cls-7{fill:#f7f7f7;}.cls-8{fill:#fff3e1;}.cls-9{fill:#f9c152;}.cls-10{fill:#fff;}.cls-11{fill:#ace4b3;}.cls-12{fill:#263166;}.cls-13,.cls-17,.cls-18{stroke:#fff;}.cls-13,.cls-15,.cls-17,.cls-18{stroke-linejoin:round;}.cls-13{stroke-width:0.41px;}.cls-14{fill:#f2b5bc;}.cls-15{stroke-width:0.22px;}.cls-16{fill:#2e64ff;}.cls-17{stroke-width:0.16px;}.cls-18,.cls-19{stroke-width:0.2px;}.cls-19{stroke:#f58b8d;}.cls-20{clip-path:url(#clip-path);}.cls-21{clip-path:url(#clip-path-2);}.cls-22{fill:#f58b8d;}.cls-23{clip-path:url(#clip-path-3);}</style><clipPath id="clip-path"><path class="cls-1" d="M514.35,420.52s.8-1.55,2.68-.08,2,1.32,2.82,1.17v3s0,.55-.41.65-1.83.55-3.36.91-4.79.45-4.94-.82a1.89,1.89,0,0,1,.93-1.89A22.11,22.11,0,0,0,514.35,420.52Z"/></clipPath><clipPath id="clip-path-2"><path class="cls-1" d="M544,421a26.24,26.24,0,0,0,1.71,2.58,3.4,3.4,0,0,1,.9,2.36c-.11.86-2.64.94-4.05.78s-4-1-4-1.57,0-3.28,0-3.28.21-.42,1.2-.1a1.33,1.33,0,0,0,1.05-.14,5.29,5.29,0,0,1,1.67-1.16C543.25,420.23,543.44,420.21,544,421Z"/></clipPath><clipPath id="clip-path-3"><path class="cls-1" d="M534.67,362c.48.05.57.25,2.14.71.64.19.59.62.32.89a1.78,1.78,0,0,1-2.06,0C534.31,363.2,534.37,362,534.67,362Z"/></clipPath></defs><path class="cls-2" d="M442.87,290.61l-.5-5.75,13.83-9.67-6.83-17.25L433.12,261l-4.59-4.75,3.34-14.91-17.34-7.67L406.37,247h-6.75l-8.34-13.83L373.62,240l3.25,16.34-3.5,4.16-16.17-3.91-7.83,17.58,13.25,9,.33,7.75-13.58,8.42L357,316.61l14.17-3.17,5.16,5.67-3.16,14.58,17.5,7.75,8.25-13,7.33.17,9.5,15.58,16.42-8.33-3.75-17.34,4.16-5.16,15.67,4.33,9.58-17.5Zm-39.29,13.93a15.85,15.85,0,1,1,15.85-15.85A15.85,15.85,0,0,1,403.58,304.54Z"/><circle class="cls-3" cx="403.58" cy="288.69" r="10.51"/><path class="cls-4" d="M484.42,266.94s25.95,15.78,45.48,42.81c0,0-1.19,8.33,12.47,16.63,1-.84-8.09-12.7-9.79-14.82s-2.21-1.92-2.21-1.92"/><path class="cls-4" d="M496.69,275.69s31.7-4.48,31.7,2.19C528.39,280.72,500.38,279,496.69,275.69Z"/><path class="cls-4" d="M485,267.32s30.19-5.66,34.29,1.58C522.16,274,488.24,269.26,485,267.32Z"/><path class="cls-4" d="M506.62,284.05s27.68-5.78,29.67,1.21C537.31,288.87,511,286.93,506.62,284.05Z"/><path class="cls-5" d="M516.19,293.35s18.75-6.13,22.82-2.12C540.56,293.27,530.58,294,516.19,293.35Z"/><path class="cls-5" d="M522.62,300.48s14.59-3.34,22.25,2.87C545.42,303.89,540.13,306.42,522.62,300.48Z"/><path class="cls-5" d="M524.73,303s-4.75,13.75-1.14,17.88S527,305.05,524.73,303Z"/><path class="cls-4" d="M484.75,267.15s7.35,19.23.48,26.26C481.44,297.29,482.71,266.19,484.75,267.15Z"/><path class="cls-4" d="M495.39,274.68s6.14,16,1.3,23.41C494,302.14,493.46,274.61,495.39,274.68Z"/><path class="cls-5" d="M505.84,283.34s7.29,18.73,1.07,24.08C504.44,309.55,503.9,283.53,505.84,283.34Z"/><path class="cls-5" d="M518.39,295.69s2.85,17.08-2.38,18.22C513.67,314.43,515.62,293.81,518.39,295.69Z"/><path class="cls-4" d="M531.72,309.72s17.37,2,20.27,6.15-18.86-4.17-18.86-4.17Z"/><line class="cls-6" x1="559.44" y1="352.32" x2="559.44" y2="353.4"/><line class="cls-6" x1="557.52" y1="353.43" x2="558.46" y2="353.97"/><line class="cls-6" x1="557.52" y1="355.64" x2="558.46" y2="355.1"/><line class="cls-6" x1="559.44" y1="356.75" x2="559.44" y2="355.67"/><line class="cls-6" x1="561.36" y1="355.64" x2="560.42" y2="355.1"/><line class="cls-6" x1="561.36" y1="353.43" x2="560.42" y2="353.97"/><ellipse class="cls-7" cx="459.61" cy="402.86" rx="123.81" ry="38.92"/><ellipse class="cls-8" cx="458.24" cy="392.33" rx="40.91" ry="10.78"/><circle class="cls-9" cx="458.24" cy="310.86" r="56.95"/><rect class="cls-10" x="433.13" y="298.42" width="50.23" height="9.76" rx="4.45" transform="translate(761.54 -154.95) rotate(90)"/><rect class="cls-10" x="453.37" y="336.82" width="9.75" height="9.76" rx="4.88" transform="translate(799.94 -116.54) rotate(90)"/><path class="cls-5" d="M351.66,394.52s-2.47-6.29-.33-11.9a38.57,38.57,0,0,1,5.92-10s2.83,2.83.4,10.86S351.66,394.52,351.66,394.52Z"/><path class="cls-11" d="M363.05,387.35c-.36-.25-.75-1.33.49-3.1s2.2-1.86,2.46-1.81c.54.1,1.06,1.13-.52,3.21S363.29,387.51,363.05,387.35Z"/><path class="cls-11" d="M359.45,388.11s1.43,2.19-1.87,5.15-3.38,3.66-3.38,3.66-1.37-1.84,1.41-5.32S359.45,388.11,359.45,388.11Z"/><path class="cls-5" d="M355.86,396.05s4.74-5.52,11.5-5.41,9.73,2.65,9.45,5-7.24-.87-10.73-.94S358.35,395,355.86,396.05Z"/><path class="cls-11" d="M337.34,385.67a5.26,5.26,0,0,1,4.92,2.44S337.18,388.63,337.34,385.67Z"/><path class="cls-11" d="M348.26,382.26a4.94,4.94,0,0,0,1-6.27c-2.1-3.71-3.68-2.71-3.68-2.71s-.95.56.22,3.69A34.56,34.56,0,0,0,348.26,382.26Z"/><path class="cls-5" d="M350.7,395.55s-11.68-28.1-13.86-26.9-1.52,6.09,1.74,11.25S350.7,395.55,350.7,395.55Z"/><path class="cls-11" d="M339.79,395.94a1.26,1.26,0,0,0,.62-1.47c-.19-1.14-.43-1.29-.81-1.17S339.39,395.6,339.79,395.94Z"/><path class="cls-5" d="M349.37,395.55s-8.19-7.48-16.22-6.62c-5.37,5.91-.94,15.19-.94,15.19s5.51-.26,6.32-11.95A44.67,44.67,0,0,1,349.37,395.55Z"/><path class="cls-12" d="M344.58,396.33a65.4,65.4,0,0,1,15.26,0l-2.54,19.05a22,22,0,0,1-10.58,0Z"/><path class="cls-13" d="M345.94,408.43s9.34.16,12.29-.06"/><path class="cls-2" d="M522.08,387.06s2.58-17.23,5.39-20.5a35.76,35.76,0,0,0,3.74-.91l8.88,3.26,2.77,2.51-2.41,9-3.07,9.74L522,387.79Z"/><polygon class="cls-14" points="528.44 366.32 531.14 365.57 539.93 368.74 540.84 369.58 531.02 373.11 528.91 369.7 528.44 366.32"/><polygon class="cls-14" points="519.87 418.52 519.5 422.01 515.68 420.26 516.49 417.63 519.87 418.52"/><polygon class="cls-14" points="538.91 418.96 539.49 423.02 542.79 421.04 542.17 418.09 538.91 418.96"/><path class="cls-12" d="M522.13,386l-7.76,31.25s4.88,2,8.2,1.39l6.54-23.22,7,24.25s5.39-.16,7.9-1.52l-6.35-30.3S528.69,389,522.13,386Z"/><path class="cls-15" d="M521.1,391.42s2.8-.76,3.18-3.4"/><path class="cls-15" d="M532.23,390.09a6,6,0,0,0,6.4,4.25"/><path class="cls-16" d="M529.84,390.58s2.42-17.53,4.11-19.82a20.11,20.11,0,0,0,4.55-.68,16.9,16.9,0,0,1,2.15-.67l2.15,1.94s-1.94-.59-3.32,3.33.18,7.29,1.24,4.73a31,31,0,0,0-.94,4.61c-.13,1.24-.09,6.42-.3,6.94s-1.26.79-3,.74S530.55,391.45,529.84,390.58Z"/><path class="cls-15" d="M515.05,415.35s2.37,1.67,7.68,1.31"/><path class="cls-15" d="M536,417.53a25.43,25.43,0,0,0,7.21-1.3"/><path class="cls-9" d="M514.35,420.52s.8-1.55,2.68-.08,2,1.32,2.82,1.17v3s0,.55-.41.65-1.83.55-3.36.91-4.79.45-4.94-.82a1.89,1.89,0,0,1,.93-1.89A22.11,22.11,0,0,0,514.35,420.52Z"/><path class="cls-17" d="M513.12,423a2.49,2.49,0,0,1,2.07.48"/><path class="cls-17" d="M515.76,422.9a3.25,3.25,0,0,0-2-.61"/><path class="cls-17" d="M516.25,422.5a3.19,3.19,0,0,0-2.1-.73"/><path class="cls-17" d="M516.76,421.9a4.8,4.8,0,0,0-2-.74"/><path class="cls-14" d="M515.07,360.55s1.23-2.38,2.22-1.58a1.28,1.28,0,0,1,.15,1.84,5.91,5.91,0,0,0-.88,2.26c0,.8,1.06,4.06,1.45,4.25a4.38,4.38,0,0,0,1.88,0l.48,4-1.67,2.11a9.91,9.91,0,0,1-5.8-5.2,18.24,18.24,0,0,0-2.78-4.58s-1-1-.55-1.85,1-.62,1-.62a1,1,0,0,1,.21-1c.51-.48.92-.26.92-.26s.34-1.22,1.16-1S514.13,359.26,515.07,360.55Z"/><path class="cls-2" d="M527,366.27l-7.86.77a7.19,7.19,0,0,1-.63,6.52s.37,1.11,5.91-.25Z"/><path class="cls-9" d="M544,421a26.24,26.24,0,0,0,1.71,2.58,3.4,3.4,0,0,1,.9,2.36c-.11.86-2.64.94-4.05.78s-4-1-4-1.57,0-3.28,0-3.28.21-.42,1.2-.1a1.33,1.33,0,0,0,1.05-.14,5.29,5.29,0,0,1,1.67-1.16C543.25,420.23,543.44,420.21,544,421Z"/><path class="cls-14" d="M544.2,382.43a4.9,4.9,0,0,0,3.79,1.25c2.2-.29,7.82-2.41,9.54-4,.69-.54,1.07-1.63.6-2.13,0,0,.67-1.46-.26-1.91,0,0,.27-1.38-.92-1.45a4.38,4.38,0,0,0-1.86.24s.5-2.12-.71-2.13a1.46,1.46,0,0,0-1.42,1.21s-.24,3-1.93,3.85-2,1.16-2.86.9-1.67-.41-1.67-.41l-4.14,2.74,1.5,1.48Z"/><path class="cls-17" d="M545.21,423.32a3.24,3.24,0,0,0-2.37.47"/><path class="cls-17" d="M542.65,423.22a2.37,2.37,0,0,1,2-.43"/><path class="cls-17" d="M542.5,422.71a2.44,2.44,0,0,1,1.84-.41"/><path class="cls-18" d="M542.4,422a2.66,2.66,0,0,1,2.12-.51"/><path class="cls-2" d="M539.87,377.75l3.77,4.87a5,5,0,0,1,2-3.73c1.92-1.32,2.79-.75,2.79-.75l-5.61-6.81S539.51,373,539.87,377.75Z"/><path class="cls-19" d="M510.92,361.44s1.54.71,1.78,1.53-.89,1.09-.89,1.09"/><path class="cls-19" d="M512,360.1s1.59.69,1.78,1.28.18,1-.76,1.47"/><path class="cls-19" d="M514,361.59a.85.85,0,0,0,1-.76"/><path class="cls-19" d="M557.52,375.63s-2.19-.26-2.82,1c-.17.4,0,.94.44.87"/><path class="cls-19" d="M557.52,377.19s-2.77-.36-2.55,1.3a.9.9,0,0,0,1.22.72,1.59,1.59,0,0,1,.71-.11"/><path class="cls-19" d="M555,374.85s-1,.68,0,1.36"/><path class="cls-16" d="M521.1,388.73s3.29-20.42,5.93-22.46l3.26-.44s-2,1.53.23,3.92c0,0-4.55,11.57-4.93,19.14,0,.82-.22,1.39-1.9.87A13.39,13.39,0,0,1,521.1,388.73Z"/><path class="cls-15" d="M524.5,389.3s2.16-15,5.34-19.6"/><g class="cls-20"><path class="cls-12" d="M511.33,425.45a1.89,1.89,0,0,1,.94-.28c.47,0,1.84.83,3.22.57s3.7-1.48,4.15-1.37c.17.05.54.18.62.34.25.52-1,2-1,2l-7.79.34-.63-1.23Z"/></g><g class="cls-21"><path class="cls-12" d="M538.88,424.7a10,10,0,0,0,4.3,1.51c.69.07,1.37-.55,2-.72a2.84,2.84,0,0,1,1.37.09l.7.32a19.46,19.46,0,0,1-.51,1.92c-.06,0-8.93-2.22-8.93-2.22l.44-1.34Z"/></g><path class="cls-14" d="M533.11,361.12a1.8,1.8,0,0,1,.22-2.27c.32-.33,1-.06,1.13.28Z"/><path class="cls-12" d="M533.28,368.85s4.65,1.89,6.08.24,1.37-3.56,1.85-4.67,2.76-3.32,2.37-4.43-1.87-2.58-5-3.71-4.54.51-4.35,3.06c-.58,1.28-2.74,2.48-3.66,6.32C530.49,366.41,530.52,367.62,533.28,368.85Z"/><path class="cls-14" d="M533.3,361s1.54-4.57,4-4.5,5,2.21,3.86,5.15-1.93,2.4-2.29,2-1.38-2.07-2.75-2.33S533.11,361.45,533.3,361Z"/><ellipse class="cls-12" cx="536.04" cy="359.57" rx="0.34" ry="0.29" transform="translate(-58.34 611.26) rotate(-56.8)"/><ellipse class="cls-12" cx="537.97" cy="360.62" rx="0.34" ry="0.29" transform="translate(-58.34 613.35) rotate(-56.8)"/><path class="cls-12" d="M539.32,360.11s-.22-.29-.3-.38-.36-.31-.36-.31a.18.18,0,0,1,0-.25h0c.07-.07.22-.11.62.3s.36.56.28.63h0A.18.18,0,0,1,539.32,360.11Z"/><path class="cls-12" d="M536.65,358.55s-.36,0-.48,0-.48.06-.48.06a.18.18,0,0,1-.17-.18h0c0-.1.06-.24.64-.26s.65.12.65.22h0A.16.16,0,0,1,536.65,358.55Z"/><path class="cls-12" d="M541.57,358.89s-6,.16-5.77-2.33,2.51-2.56,4.18-.87,2.62,2.14,2.56,2.64S541.57,358.89,541.57,358.89Z"/><circle class="cls-22" cx="536.42" cy="360.92" r="0.71"/><path class="cls-10" d="M534.67,362c.48.05.57.25,2.14.71.64.19.59.62.32.89a1.78,1.78,0,0,1-2.06,0C534.31,363.2,534.37,362,534.67,362Z"/><path class="cls-14" d="M542.28,362a1.23,1.23,0,0,1,.58,1.83c-.73,1.25-1.2,1.25-2,1A20,20,0,0,0,542.28,362Z"/><g class="cls-23"><ellipse class="cls-14" cx="535.09" cy="364.11" rx="1.16" ry="1.33" transform="translate(25.73 763.42) rotate(-72.33)"/></g></svg>