<?xml version="1.0" encoding="UTF-8"?>
<svg width="253px" height="209px" viewBox="0 0 253 209" version="1.1" xmlns="http://www.w3.org/2000/svg" xmlns:xlink="http://www.w3.org/1999/xlink">
    <title>874FDC00-9D85-475F-A7C9-88B146D07382</title>
    <defs>
        <path d="M183.861062,187.328 C183.861062,187.328 182.555062,189.331 181.578062,190.275 L181.578062,190.275 C181.300062,190.545 180.506062,190.916 180.652062,192.168 L180.652062,192.168 C180.799062,193.44 184.061062,193.36 185.590062,192.994 L185.590062,192.994 C187.119062,192.627 188.497062,192.19 188.948062,192.081 L188.948062,192.081 C189.399062,191.974 189.360062,191.425 189.360062,191.425 L189.360062,191.425 L189.361062,188.419 C188.570062,188.57 188.419062,188.721 186.537062,187.251 L186.537062,187.251 C185.931062,186.777 185.438062,186.616 185.048062,186.616 L185.048062,186.616 C184.226062,186.616 183.861062,187.328 183.861062,187.328 L183.861062,187.328 Z" id="path-1"></path>
        <path d="M212.016062,187.225 C211.304062,187.402 210.536062,188.269 210.343062,188.391 L210.343062,188.391 C210.020062,188.597 209.586062,188.617 209.298062,188.526 L209.298062,188.526 C208.305062,188.211 208.099062,188.626 208.099062,188.626 L208.099062,188.626 C208.099062,188.626 208.033062,191.349 208.059062,191.909 L208.059062,191.909 C208.085062,192.472 210.656062,193.321 212.067062,193.478 L212.067062,193.478 C213.478062,193.635 216.005062,193.557 216.116062,192.704 L216.116062,192.704 C216.219062,191.912 215.743062,190.959 215.221062,190.334 L215.221062,190.334 C214.538062,189.519 213.509062,187.754 213.509062,187.754 L213.509062,187.754 C213.141062,187.275 212.931062,187.118 212.623062,187.118 L212.623062,187.118 C212.460062,187.118 212.271062,187.162 212.016062,187.225 L212.016062,187.225 Z" id="path-3"></path>
        <path d="M204.580062,130.42 C205.611062,130.973 206.369062,130.705 206.640062,130.435 L206.640062,130.435 C206.911062,130.166 206.962062,129.744 206.321062,129.554 L206.321062,129.554 C204.752062,129.088 204.654062,128.892 204.180062,128.835 L204.180062,128.835 C204.176062,128.834 204.171062,128.834 204.167062,128.834 L204.167062,128.834 C203.872062,128.834 203.832062,130.016 204.580062,130.42" id="path-5"></path>
    </defs>
    <g id="页面-1" stroke="none" stroke-width="1" fill="none" fill-rule="evenodd">
        <g id="反馈-异常" transform="translate(-0.000062, 0.000000)">
            <path d="M73.0842623,71.354 C64.3282623,71.354 57.2302623,64.255 57.2302623,55.5 C57.2302623,46.744 64.3282623,39.645 73.0842623,39.645 C81.8402623,39.645 88.9382623,46.744 88.9382623,55.5 C88.9382623,64.255 81.8402623,71.354 73.0842623,71.354 L73.0842623,71.354 Z M112.376262,57.416 L111.876262,51.667 L125.709262,42 L118.876262,24.75 L102.626262,27.833 L98.0422623,23.083 L101.376262,8.166 L84.0422623,0.5 L75.8762623,13.833 L69.1262623,13.833 L60.7922623,0 L43.1262623,6.833 L46.3762623,23.166 L42.8762623,27.333 L26.7092623,23.416 L18.8762623,41 L32.1262623,50 L32.4592623,57.75 L18.8762623,66.167 L26.4592623,83.417 L40.6262623,80.25 L45.7922623,85.917 L42.6262623,100.5 L60.1262623,108.25 L68.3762623,95.25 L75.7092623,95.416 L85.2092623,111 L101.626262,102.666 L97.8762623,85.333 L102.042262,80.167 L117.709262,84.5 L127.292262,67 L112.376262,57.416 Z" id="Fill-1" fill="#E3EAF0"></path>
            <path d="M83.5953623,55.4996 C83.5953623,61.3056 78.8893623,66.0116 73.0843623,66.0116 C67.2783623,66.0116 62.5723623,61.3056 62.5723623,55.4996 C62.5723623,49.6936 67.2783623,44.9876 73.0843623,44.9876 C78.8893623,44.9876 83.5953623,49.6936 83.5953623,55.4996 Z" id="Stroke-3" stroke="#C5D1DF" stroke-width="2"></path>
            <path d="M153.923162,33.7535 C153.923162,33.7535 179.882162,49.5275 199.409162,76.5605 C199.409162,76.5605 198.213162,84.8875 211.882162,93.1865 C212.915162,92.3545 203.784162,80.4935 202.090162,78.3685 C200.395162,76.2435 199.878162,76.4445 199.878162,76.4445" id="Stroke-5" stroke="#6BD6A5" stroke-width="0.459"></path>
            <path d="M166.198562,42.4976 C166.198562,42.4976 197.897562,38.0226 197.897562,44.6856 C197.897562,47.5276 169.884562,45.7876 166.198562,42.4976 Z" id="Stroke-7" stroke="#6BD6A5" stroke-width="0.459"></path>
            <path d="M154.515562,34.1246 C154.515562,34.1246 184.706562,28.4706 188.803562,35.7066 C191.671562,40.7716 157.749562,36.0646 154.515562,34.1246 Z" id="Stroke-9" stroke="#6BD6A5" stroke-width="0.459"></path>
            <path d="M176.132462,50.8619 C176.132462,50.8619 203.812462,45.0779 205.793462,52.0649 C206.819462,55.6789 180.495462,53.7399 176.132462,50.8619 Z" id="Stroke-11" stroke="#6BD6A5" stroke-width="0.459"></path>
            <path d="M185.699162,60.1568 C185.699162,60.1568 204.444162,54.0338 208.522162,58.0378 C210.073162,60.0768 200.092162,60.8398 185.699162,60.1568" id="Fill-13" fill="#6BD6A5"></path>
            <path d="M192.125262,67.2847 C192.125262,67.2847 206.713262,63.9537 214.380262,70.1557 C214.925262,70.7017 209.642262,73.2277 192.125262,67.2847" id="Fill-15" fill="#6BD6A5"></path>
            <path d="M194.232962,69.8179 C194.232962,69.8179 189.482962,83.5659 193.101962,87.7019 C196.719962,91.8369 196.541962,71.8639 194.232962,69.8179" id="Fill-17" fill="#6BD6A5"></path>
            <path d="M154.254462,33.9595 C154.254462,33.9595 161.611462,53.1885 154.736462,60.2205 C150.946462,64.0975 152.221462,32.9975 154.254462,33.9595 Z" id="Stroke-19" stroke="#6BD6A5" stroke-width="0.459"></path>
            <path d="M164.897662,41.4857742 C164.897662,41.4857742 171.035662,57.4989 166.198662,64.9009 C163.552662,68.9499 162.968662,41.4179 164.897662,41.4857742 Z" id="Stroke-21" stroke="#6BD6A5" stroke-width="0.459"></path>
            <path d="M175.343662,50.1539 C175.343662,50.1539 182.639662,68.8809 176.417662,74.2339 C173.947662,76.3589 173.408662,50.3389 175.343662,50.1539" id="Fill-23" fill="#6BD6A5"></path>
            <path d="M187.893462,62.4986 C187.893462,62.4986 190.746462,79.5746 185.520462,80.7236 C183.180462,81.2376 185.129462,60.6166 187.893462,62.4986" id="Fill-25" fill="#6BD6A5"></path>
            <path d="M201.228162,76.5308 C201.228162,76.5308 218.601162,78.5698 221.502162,82.6768 C224.402162,86.7828 202.635162,78.5118 202.635162,78.5118 L201.228162,76.5308 Z" id="Stroke-27" stroke="#6BD6A5" stroke-width="0.459"></path>
            <line x1="228.946162" y1="119.1314" x2="228.946162" y2="120.2094" id="Stroke-29" stroke="#F9C152" stroke-width="0.518" stroke-linecap="round"></line>
            <line x1="227.028762" y1="120.2378" x2="227.962762" y2="120.7778" id="Stroke-31" stroke="#F9C152" stroke-width="0.518" stroke-linecap="round"></line>
            <line x1="227.028762" y1="122.4527" x2="227.962762" y2="121.9127" id="Stroke-33" stroke="#F9C152" stroke-width="0.518" stroke-linecap="round"></line>
            <line x1="228.946162" y1="123.5591" x2="228.946162" y2="122.4801" id="Stroke-35" stroke="#F9C152" stroke-width="0.518" stroke-linecap="round"></line>
            <line x1="230.863662" y1="122.4527" x2="229.929662" y2="121.9127" id="Stroke-37" stroke="#F9C152" stroke-width="0.518" stroke-linecap="round"></line>
            <line x1="230.863662" y1="120.2378" x2="229.929662" y2="120.7778" id="Stroke-39" stroke="#F9C152" stroke-width="0.518" stroke-linecap="round"></line>
            <path d="M252.930062,169.6724 C252.930062,191.1644 197.498062,208.5874 129.119062,208.5874 C60.7400623,208.5874 5.30706231,191.1644 5.30706231,169.6724 C5.30706231,148.1804 60.7400623,130.7574 129.119062,130.7574 C197.498062,130.7574 252.930062,148.1804 252.930062,169.6724" id="Fill-41" fill="#F7F7F7"></path>
            <path d="M168.664262,159.1363 C168.664262,165.0903 150.346262,169.9163 127.749262,169.9163 C105.152262,169.9163 86.8342623,165.0903 86.8342623,159.1363 C86.8342623,153.1833 105.152262,148.3563 127.749262,148.3563 C150.346262,148.3563 168.664262,153.1833 168.664262,159.1363" id="Fill-44" fill="#FFF3E1"></path>
            <path d="M184.699262,77.6665 C184.699262,109.1185 159.202262,134.6155 127.749262,134.6155 C96.2962623,134.6155 70.7992623,109.1185 70.7992623,77.6665 C70.7992623,46.2135 96.2962623,20.7165 127.749262,20.7165 C159.202262,20.7165 184.699262,46.2135 184.699262,77.6665" id="Fill-45" fill="#F9C152"></path>
            <path d="M122.870962,90.7662 L122.870962,49.4432 C122.870962,46.9932 124.874962,44.9892 127.324962,44.9892 L128.173962,44.9892 C130.622962,44.9892 132.627962,46.9932 132.627962,49.4432 L132.627962,90.7662 C132.627962,93.2152 130.622962,95.2192 128.173962,95.2192 L127.324962,95.2192 C124.874962,95.2192 122.870962,93.2152 122.870962,90.7662" id="Fill-46" fill="#FFFFFF"></path>
            <path d="M122.870962,108.5103 L122.870962,108.5103 C122.870962,105.8283 125.064962,103.6343 127.746962,103.6343 L127.751962,103.6343 C130.432962,103.6343 132.627962,105.8283 132.627962,108.5103 C132.627962,111.1923 130.432962,113.3853 127.751962,113.3853 L127.746962,113.3853 C125.064962,113.3853 122.870962,111.1923 122.870962,108.5103" id="Fill-47" fill="#FFFFFF"></path>
            <path d="M21.1725623,161.3306 C21.1725623,161.3306 18.7015623,155.0336 20.8395623,149.4276 C22.9785623,143.8196 26.7565623,139.3996 26.7565623,139.3996 C26.7565623,139.3996 29.5835623,142.2266 27.1605623,150.2586 C24.7365623,158.2896 21.1725623,161.3306 21.1725623,161.3306" id="Fill-48" fill="#6BD6A5"></path>
            <path d="M32.5536623,154.1548 C32.1946623,153.9118 31.8046623,152.8248 33.0526623,151.0538 C34.2996623,149.2848 35.2476623,149.2008 35.5116623,149.2488 C36.0496623,149.3458 36.5686623,150.3778 34.9886623,152.4568 C33.4086623,154.5358 32.7966623,154.3198 32.5536623,154.1548" id="Fill-49" fill="#ACE4B3"></path>
            <path d="M28.9527623,154.9156 C28.9527623,154.9156 30.3917623,157.1126 27.0887623,160.0706 C23.7857623,163.0296 23.7027623,163.7296 23.7027623,163.7296 C23.7027623,163.7296 22.3367623,161.8896 25.1167623,158.4076 C27.8967623,154.9276 28.9527623,154.9156 28.9527623,154.9156" id="Fill-50" fill="#ACE4B3"></path>
            <path d="M25.3662623,162.8628 C25.3662623,162.8628 30.1062623,157.3398 36.8662623,157.4458 C43.6262623,157.5518 46.5952623,160.0948 46.3222623,162.4598 C46.0492623,164.8238 39.0752623,161.5918 35.5832623,161.5208 C32.0902623,161.4498 27.8612623,161.8178 25.3662623,162.8628" id="Fill-51" fill="#6BD6A5"></path>
            <path d="M6.84526231,152.48 C6.84526231,152.48 10.1602623,152.113 11.7632623,154.916 C11.7632623,154.916 6.69126231,155.438 6.84526231,152.48" id="Fill-52" fill="#ACE4B3"></path>
            <path d="M17.7629623,149.0708 C17.7629623,149.0708 20.8399623,146.5098 18.7369623,142.7998 C16.6339623,139.0918 15.0539623,140.0898 15.0539623,140.0898 C15.0539623,140.0898 14.1039623,140.6478 15.2799623,143.7838 C16.4559623,146.9208 17.7629623,149.0708 17.7629623,149.0708" id="Fill-53" fill="#ACE4B3"></path>
            <path d="M20.2063623,162.3599 C20.2063623,162.3599 8.53236231,134.2599 6.34636231,135.4639 C4.16036231,136.6679 4.82536231,141.5469 8.08836231,146.7109 C11.3513623,151.8749 20.2063623,162.3599 20.2063623,162.3599" id="Fill-54" fill="#6BD6A5"></path>
            <path d="M9.30046231,162.7486 C9.30046231,162.7486 10.1084623,162.4076 9.91846231,161.2746 C9.72846231,160.1426 9.49046231,159.9916 9.11046231,160.1106 C8.73046231,160.2296 8.89646231,162.4076 9.30046231,162.7486" id="Fill-55" fill="#ACE4B3"></path>
            <path d="M18.8757623,162.3599 C18.8757623,162.3599 10.6867623,154.8829 2.65576231,155.7389 C-2.71423769,161.6469 1.72076231,170.9289 1.72076231,170.9289 C1.72076231,170.9289 7.22576231,170.6689 8.03276231,158.9779 C8.03276231,158.9779 12.3017623,159.5169 18.8757623,162.3599" id="Fill-56" fill="#6BD6A5"></path>
            <path d="M14.0920623,163.1363 C14.0920623,163.1363 22.3370623,162.0913 29.3460623,163.1363 L26.8040623,182.1923 C26.8040623,182.1923 21.5290623,183.6643 16.2300623,182.1923 L14.0920623,163.1363 Z" id="Fill-57" fill="#263166"></path>
            <path d="M15.4504623,175.2417 C15.4504623,175.2417 24.7894623,175.3957 27.7384623,175.1817" id="Stroke-58" stroke="#FFFFFF" stroke-width="0.407" stroke-linecap="round" stroke-linejoin="round"></path>
            <path d="M191.584262,153.8736 C191.584262,153.8736 194.170262,136.6406 196.975262,133.3736 C198.690262,133.0766 200.718262,132.4606 200.718262,132.4606 L209.600262,135.7156 L212.371262,138.2276 L209.959262,147.2196 L206.884262,156.9646 L191.489262,154.5956 L191.584262,153.8736 Z" id="Fill-59" fill="#E3EAF0"></path>
            <polygon id="Fill-60" fill="#F2B5BC" points="197.945862 133.1285 200.649862 132.3845 209.442862 135.5515 210.344862 136.3895 200.525862 139.9195 198.417862 136.5075"></polygon>
            <polygon id="Fill-61" fill="#F2B5BC" points="189.375762 185.3326 189.008762 188.8166 185.182762 187.0696 185.993762 184.4356"></polygon>
            <polygon id="Fill-62" fill="#F2B5BC" points="208.418362 185.772 208.995362 189.83 212.295362 187.849 211.674362 184.897"></polygon>
            <path d="M191.641162,152.815 L183.877162,184.073 C183.877162,184.073 188.755162,186.111 192.077162,185.458 L198.616162,162.235 L205.607162,186.492 C205.607162,186.492 210.998162,186.329 213.503162,184.967 L207.159162,154.667 C207.159162,154.667 198.202162,155.783 191.641162,152.815" id="Fill-63" fill="#263166"></path>
            <path d="M190.606562,158.233 C190.606562,158.233 193.410562,157.47 193.791562,154.83" id="Stroke-64" stroke="#C5D1DF" stroke-width="0.218" stroke-linecap="round" stroke-linejoin="round"></path>
            <path d="M201.741562,156.899 C201.741562,156.899 203.130562,161.663 208.139562,161.146" id="Stroke-65" stroke="#C5D1DF" stroke-width="0.218" stroke-linecap="round" stroke-linejoin="round"></path>
            <path d="M199.348662,157.3882 C199.348662,157.3882 201.768662,139.8562 203.456662,137.5692 C203.456662,137.5692 206.396662,137.4592 208.003662,136.8882 C209.609662,136.3172 210.160662,136.2182 210.160662,136.2182 L212.312662,138.1562 C212.312662,138.1562 210.371662,137.5692 208.983662,141.4892 C207.594662,145.4092 209.165662,148.7772 210.227662,146.2172 C210.227662,146.2172 209.498662,148.7422 209.282662,150.8272 C209.154662,152.0742 209.201662,157.2522 208.983662,157.7702 C208.765662,158.2862 207.730662,158.5592 206.015662,158.5042 C204.300662,158.4502 200.059662,158.2602 199.348662,157.3882" id="Fill-66" fill="#2E64FF"></path>
            <path d="M184.562662,182.1636 C184.562662,182.1636 186.931662,183.8236 192.239662,183.4706" id="Stroke-67" stroke="#C5D1DF" stroke-width="0.218" stroke-linecap="round" stroke-linejoin="round"></path>
            <path d="M205.525862,184.3414 C205.525862,184.3414 210.072862,184.1784 212.740862,183.0344" id="Stroke-68" stroke="#C5D1DF" stroke-width="0.218" stroke-linecap="round" stroke-linejoin="round"></path>
            <path d="M183.861462,187.3287 C183.861462,187.3287 184.655462,185.7797 186.537462,187.2507 C188.418462,188.7207 188.570462,188.5697 189.360462,188.4197 L189.359462,191.4257 C189.359462,191.4257 189.399462,191.9747 188.948462,192.0817 C188.497462,192.1897 187.118462,192.6277 185.589462,192.9937 C184.060462,193.3597 180.798462,193.4397 180.651462,192.1677 C180.506462,190.9157 181.299462,190.5447 181.577462,190.2747 C182.555462,189.3307 183.861462,187.3287 183.861462,187.3287" id="Fill-69" fill="#F9C152"></path>
            <path d="M182.626662,189.7691 C182.626662,189.7691 183.684662,189.4651 184.694662,190.2491" id="Stroke-70" stroke="#FFFFFF" stroke-width="0.157" stroke-linecap="round" stroke-linejoin="round"></path>
            <path d="M185.263062,189.7115 C185.263062,189.7115 184.391062,189.0145 183.224062,189.1025" id="Stroke-71" stroke="#FFFFFF" stroke-width="0.157" stroke-linecap="round" stroke-linejoin="round"></path>
            <path d="M185.753062,189.3081 C185.753062,189.3081 184.959062,188.5631 183.660062,188.5831" id="Stroke-72" stroke="#FFFFFF" stroke-width="0.157" stroke-linecap="round" stroke-linejoin="round"></path>
            <path d="M186.262762,188.7105 C186.262762,188.7105 185.488762,188.1425 184.243762,187.9655" id="Stroke-73" stroke="#FFFFFF" stroke-width="0.157" stroke-linecap="round" stroke-linejoin="round"></path>
            <path d="M184.580962,127.3599 C184.580962,127.3599 185.805962,124.9839 186.802962,125.7799 C187.798962,126.5759 186.949962,127.6219 186.949962,127.6219 C186.949962,127.6219 186.034962,129.0749 186.066962,129.8759 C186.099962,130.6749 187.128962,133.9399 187.514962,134.1249 C188.094962,134.4019 189.401962,134.1699 189.401962,134.1699 L189.873962,138.1369 L188.208962,140.2459 C188.208962,140.2459 184.471962,139.2719 182.409962,135.0529 C180.648962,131.4519 179.630962,130.4689 179.630962,130.4689 C179.630962,130.4689 178.585962,129.4509 179.075962,128.6179 C179.560962,127.7929 180.088962,127.9969 180.088962,127.9969 C180.088962,127.9969 179.866962,127.4119 180.300962,127.0009 C180.807962,126.5209 181.215962,126.7389 181.215962,126.7389 C181.215962,126.7389 181.554962,125.5189 182.379962,125.7209 C183.298962,125.9469 183.641962,126.0689 184.580962,127.3599" id="Fill-74" fill="#F2B5BC"></path>
            <path d="M196.541662,133.0767 L188.673662,133.8527 C188.673662,133.8527 190.170662,137.1607 188.047662,140.3727 C188.047662,140.3727 188.414662,141.4757 193.955662,140.1147 L196.541662,133.0767 Z" id="Fill-75" fill="#E3EAF0"></path>
            <path d="M213.509062,187.7544 C213.509062,187.7544 214.538062,189.5194 215.221062,190.3344 C215.744062,190.9584 216.219062,191.9114 216.116062,192.7034 C216.005062,193.5574 213.479062,193.6354 212.067062,193.4784 C210.656062,193.3214 208.086062,192.4724 208.060062,191.9094 C208.034062,191.3484 208.099062,188.6264 208.099062,188.6264 C208.099062,188.6264 208.305062,188.2114 209.298062,188.5254 C209.585062,188.6164 210.020062,188.5974 210.343062,188.3914 C210.536062,188.2694 211.304062,187.4014 212.016062,187.2254 C212.755062,187.0424 212.947062,187.0234 213.509062,187.7544" id="Fill-76" fill="#F9C152"></path>
            <path d="M213.707562,149.2359 C213.707562,149.2359 215.291562,150.7879 217.497562,150.4939 C219.702562,150.1999 225.321562,148.0769 227.036562,146.5079 C227.722562,145.9689 228.106562,144.8829 227.641562,144.3769 C227.641562,144.3769 228.311562,142.9149 227.379562,142.4649 C227.379562,142.4649 227.649562,141.0859 226.456562,141.0199 C225.264562,140.9549 224.594562,141.2569 224.594562,141.2569 C224.594562,141.2569 225.101562,139.1409 223.892562,139.1249 C222.683562,139.1089 222.471562,140.3419 222.471562,140.3419 C222.471562,140.3419 222.226562,143.3639 220.535562,144.1889 C218.844562,145.0129 218.549562,145.3499 217.674562,145.0899 C216.795562,144.8279 216.010562,144.6789 216.010562,144.6789 L211.866562,147.4149 L213.372562,148.9019 L213.707562,149.2359 Z" id="Fill-77" fill="#F2B5BC"></path>
            <path d="M214.721262,190.1333 C214.721262,190.1333 213.114262,189.8593 212.343262,190.6033" id="Stroke-78" stroke="#FFFFFF" stroke-width="0.157" stroke-linecap="round" stroke-linejoin="round"></path>
            <path d="M212.156562,190.0289 C212.156562,190.0289 213.028562,189.2939 214.175562,189.5969" id="Stroke-79" stroke="#FFFFFF" stroke-width="0.157" stroke-linecap="round" stroke-linejoin="round"></path>
            <path d="M212.009562,189.524 C212.009562,189.524 212.970562,188.842 213.852562,189.107" id="Stroke-80" stroke="#FFFFFF" stroke-width="0.157" stroke-linecap="round" stroke-linejoin="round"></path>
            <path d="M211.912162,188.7759 C211.912162,188.7759 212.659162,188.0779 214.031162,188.2739" id="Stroke-81" stroke="#FFFFFF" stroke-width="0.196" stroke-linecap="round" stroke-linejoin="round"></path>
            <path d="M209.378062,144.5552 L213.144062,149.4302 C213.144062,149.4302 213.189062,147.0252 215.113062,145.7002 C217.037062,144.3742 217.904062,144.9512 217.904062,144.9512 L212.300062,138.1402 C212.300062,138.1402 209.015062,139.8172 209.378062,144.5552" id="Fill-82" fill="#E3EAF0"></path>
            <path d="M180.431762,128.2505 C180.431762,128.2505 181.967762,128.9605 182.212762,129.7765 C182.457762,130.5945 181.321762,130.8715 181.321762,130.8715" id="Stroke-83" stroke="#F58B8D" stroke-width="0.196" stroke-linecap="round"></path>
            <path d="M181.493562,126.9107 C181.493562,126.9107 183.086562,127.5967 183.282562,128.1927 C183.478562,128.7897 183.461562,129.1737 182.522562,129.6547" id="Stroke-84" stroke="#F58B8D" stroke-width="0.196" stroke-linecap="round"></path>
            <path d="M183.511062,128.397 C183.511062,128.397 184.360062,128.495 184.467062,127.637" id="Stroke-85" stroke="#F58B8D" stroke-width="0.196" stroke-linecap="round"></path>
            <path d="M227.028762,142.441 C227.028762,142.441 224.835762,142.184 224.210762,143.458 C224.039762,143.862 224.259762,144.401 224.651762,144.328" id="Stroke-86" stroke="#F58B8D" stroke-width="0.196" stroke-linecap="round"></path>
            <path d="M227.028762,143.9966 C227.028762,143.9966 224.259762,143.6416 224.480762,145.2956 C224.639762,146.1526 225.448762,146.1526 225.693762,146.0176 C225.938762,145.8836 226.403762,145.9076 226.403762,145.9076" id="Stroke-87" stroke="#F58B8D" stroke-width="0.196" stroke-linecap="round"></path>
            <path d="M224.467962,141.6568 C224.467962,141.6568 223.450962,142.3368 224.467962,143.0168" id="Stroke-88" stroke="#F58B8D" stroke-width="0.196" stroke-linecap="round"></path>
            <path d="M190.606562,155.5376 C190.606562,155.5376 193.900562,135.1186 196.541562,133.0766 L199.800562,132.6376 C199.800562,132.6376 197.793562,134.1656 200.026562,136.5606 C200.026562,136.5606 195.479562,148.1326 195.098562,155.7006 C195.071562,156.5166 194.880562,157.0896 193.192562,156.5716 C191.504562,156.0546 190.606562,155.5376 190.606562,155.5376" id="Fill-89" fill="#2E64FF"></path>
            <path d="M194.008862,156.105 C194.008862,156.105 196.165862,141.135 199.348862,136.507" id="Stroke-90" stroke="#C5D1DF" stroke-width="0.218" stroke-linecap="round" stroke-linejoin="round"></path>
            <mask id="mask-2" fill="white">
                <use xlink:href="#path-1"></use>
            </mask>
            <g id="Clip-92"></g>
            <path d="M180.833062,192.2613 C180.833062,192.2613 181.303062,191.9613 181.774062,191.9743 C182.244062,191.9873 183.621062,192.8103 184.997062,192.5493 C186.374062,192.2873 188.699062,191.0643 189.147062,191.1833 C189.318062,191.2293 189.690062,191.3613 189.765062,191.5183 C190.016062,192.0403 188.819062,193.4723 188.819062,193.4723 L181.027062,193.8053 L180.397062,192.5833 L180.833062,192.2613 Z" id="Fill-91" fill="#263166"></path>
            <mask id="mask-4" fill="white">
                <use xlink:href="#path-3"></use>
            </mask>
            <g id="Clip-94"></g>
            <path d="M208.383162,191.5083 C209.275162,192.1643 211.108162,192.8613 212.686162,193.0183 C213.383162,193.0863 214.058162,192.4693 214.675162,192.3023 C215.293162,192.1353 216.047162,192.3903 216.047162,192.3903 L216.751162,192.7113 C216.751162,192.7113 216.310162,194.6333 216.242162,194.6333 C216.173162,194.6333 207.305162,192.4073 207.305162,192.4073 L207.744162,191.0713 L208.383162,191.5083 Z" id="Fill-93" fill="#263166"></path>
            <path d="M202.620062,127.9283 C202.620062,127.9283 201.790062,126.7473 202.837062,125.6603 C203.158062,125.3273 203.816062,125.5963 203.969062,125.9373 L202.620062,127.9283 Z" id="Fill-95" fill="#F2B5BC"></path>
            <path d="M202.790062,135.6548 C202.790062,135.6548 207.435062,137.5508 208.871062,135.9008 C210.307062,134.2518 210.242062,132.3438 210.714062,131.2298 C211.185062,130.1158 213.478062,127.9088 213.092062,126.7948 C212.707062,125.6798 211.222062,124.2228 208.118062,123.0878 C205.014062,121.9518 203.578062,123.6008 203.771062,126.1508 C203.193062,127.4298 201.026062,128.6338 200.104062,132.4688 C199.997062,133.2188 200.030062,134.4328 202.790062,135.6548" id="Fill-97" fill="#263166"></path>
            <path d="M202.803762,127.7769 C202.803762,127.7769 204.347762,123.2079 206.846762,123.2809 C209.345762,123.3539 211.820762,125.4859 210.705762,128.4259 C209.590762,131.3669 208.782762,130.8279 208.414762,130.3859 C208.047762,129.9449 207.034762,128.3159 205.672762,128.0589 C204.310762,127.8009 202.619762,128.2589 202.803762,127.7769" id="Fill-99" fill="#F2B5BC"></path>
            <path d="M205.788862,126.5386 C205.684862,126.6976 205.494862,126.7556 205.362862,126.6696 C205.230862,126.5826 205.207862,126.3846 205.310862,126.2266 C205.414862,126.0676 205.605862,126.0106 205.737862,126.0966 C205.869862,126.1826 205.892862,126.3806 205.788862,126.5386" id="Fill-101" fill="#263166"></path>
            <path d="M207.718462,127.5865 C207.614462,127.7445 207.424462,127.8035 207.292462,127.7165 C207.160462,127.6305 207.137462,127.4325 207.240462,127.2745 C207.344462,127.1155 207.535462,127.0575 207.667462,127.1445 C207.799462,127.2305 207.822462,127.4285 207.718462,127.5865" id="Fill-103" fill="#263166"></path>
            <path d="M208.832062,126.9165 C208.832062,126.9165 208.613062,126.6295 208.529062,126.5435 C208.445062,126.4575 208.164062,126.2305 208.164062,126.2305 C208.098062,126.1635 208.104062,126.0515 208.175062,125.9815 C208.247062,125.9115 208.398062,125.8705 208.798062,126.2815 C209.175062,126.6685 209.153062,126.8415 209.081062,126.9115 C209.010062,126.9805 208.897062,126.9835 208.832062,126.9165" id="Fill-105" fill="#263166"></path>
            <path d="M206.157162,125.3628 C206.157162,125.3628 205.797162,125.3328 205.677162,125.3368 C205.557162,125.3408 205.200162,125.3958 205.200162,125.3958 C205.107162,125.3988 205.027162,125.3198 205.024162,125.2198 C205.020162,125.1198 205.091162,124.9808 205.664162,124.9618 C206.204162,124.9418 206.318162,125.0748 206.321162,125.1758 C206.325162,125.2748 206.251162,125.3598 206.157162,125.3628" id="Fill-107" fill="#263166"></path>
            <path d="M211.081562,125.6978 C211.081562,125.6978 205.086562,125.8618 205.307562,123.3708 C205.527562,120.8798 207.822562,120.8058 209.488562,122.4968 C211.154562,124.1868 212.110562,124.6358 212.045562,125.1348 C211.979562,125.6338 211.081562,125.6978 211.081562,125.6978" id="Fill-109" fill="#263166"></path>
            <path d="M206.639962,127.7281 C206.639962,128.1211 206.321962,128.4381 205.928962,128.4381 C205.536962,128.4381 205.218962,128.1211 205.218962,127.7281 C205.218962,127.3351 205.536962,127.0171 205.928962,127.0171 C206.321962,127.0171 206.639962,127.3351 206.639962,127.7281" id="Fill-111" fill="#F58B8D"></path>
            <path d="M204.179962,128.8345 C204.653962,128.8925 204.751962,129.0875 206.320962,129.5535 C206.961962,129.7435 206.910962,130.1655 206.639962,130.4355 C206.368962,130.7045 205.611962,130.9735 204.579962,130.4195 C203.820962,130.0105 203.872962,128.7975 204.179962,128.8345" id="Fill-113" fill="#FFFFFF"></path>
            <path d="M211.783962,128.8335 C211.783962,128.8335 213.106962,129.3975 212.371962,130.6555 C211.636962,131.9135 211.162962,131.9135 210.411962,131.6515 C210.411962,131.6515 211.391962,129.9845 211.783962,128.8335" id="Fill-115" fill="#F2B5BC"></path>
            <mask id="mask-6" fill="white">
                <use xlink:href="#path-5"></use>
            </mask>
            <g id="Clip-118"></g>
            <path d="M205.866562,131.3228 C205.671562,131.9348 204.946562,132.2518 204.246562,132.0278 C203.547562,131.8048 203.138562,131.1288 203.333562,130.5158 C203.528562,129.9028 204.253562,129.5878 204.953562,129.8098 C205.652562,130.0328 206.061562,130.7108 205.866562,131.3228" id="Fill-117" fill="#F2B5BC"></path>
        </g>
    </g>
</svg>