<?xml version="1.0" encoding="UTF-8"?>
<svg width="253px" height="209px" viewBox="0 0 253 209" version="1.1" xmlns="http://www.w3.org/2000/svg" xmlns:xlink="http://www.w3.org/1999/xlink">
    <title>结果反馈-异常</title>
    <defs>
        <polygon id="path-1" points="0 0 108.416 0 108.416 110.9996 0 110.9996"></polygon>
        <path d="M0.943759542,3.66 C0.665759542,3.929 -0.128240458,4.3 0.017759542,5.552 C0.163759542,6.824 3.42675954,6.743 4.95575954,6.378 C6.48375954,6.011 7.86375954,5.574 8.31375954,5.466 C8.76475954,5.358 8.72575954,4.809 8.72575954,4.809 L8.72675954,1.804 C7.93575954,1.954 7.78475954,2.105 5.90275954,0.634 C5.29675954,0.161 4.80375954,0 4.41375954,0 C3.59275954,0 3.22775954,0.712 3.22775954,0.712 C3.22775954,0.712 1.92075954,2.715 0.943759542,3.66 Z" id="path-3"></path>
        <path d="M0.61054029,1.585 C1.64154029,2.14 2.39954029,1.871 2.67054029,1.602 L2.67054029,1.602 C2.94154029,1.332 2.99254029,0.91 2.35154029,0.72 L2.35154029,0.72 C0.78254029,0.254 0.68454029,0.057 0.21054029,0.001 L0.21054029,0.001 C0.20654029,0 0.20154029,0 0.19754029,0 L0.19754029,0 C-0.0974597099,0 -0.13745971,1.183 0.61054029,1.585" id="path-5"></path>
    </defs>
    <g id="空状态插画-暗色" stroke="none" stroke-width="1" fill="none" fill-rule="evenodd">
        <g id="结果反馈-异常" transform="translate(-274.000000, -234.000000)">
            <g transform="translate(274.000000, 234.000000)">
                <g id="编组" transform="translate(5.306962, 0.000000)">
                    <g transform="translate(13.569300, 0.000000)">
                        <mask id="mask-2" fill="white">
                            <use xlink:href="#path-1"></use>
                        </mask>
                        <g id="Clip-2"></g>
                        <path d="M54.208,71.3536 C45.452,71.3536 38.354,64.2556 38.354,55.4996 C38.354,46.7436 45.452,39.6456 54.208,39.6456 C62.964,39.6456 70.062,46.7436 70.062,55.4996 C70.062,64.2556 62.964,71.3536 54.208,71.3536 L54.208,71.3536 Z M93.5,57.4156 L93,51.6666 L106.833,41.9996 L100,24.7496 L83.75,27.8326 L79.166,23.0826 L82.5,8.1656 L65.166,0.4996 L57,13.8326 L50.25,13.8326 L41.916,-0.0004 L24.25,6.8326 L27.5,23.1656 L24,27.3326 L7.833,23.4156 L0,40.9996 L13.25,49.9996 L13.583,57.7496 L0,66.1666 L7.583,83.4166 L21.75,80.2496 L26.916,85.9166 L23.75,100.4996 L41.25,108.2496 L49.5,95.2496 L56.833,95.4156 L66.333,110.9996 L82.75,102.6656 L79,85.3326 L83.166,80.1666 L98.833,84.4996 L108.416,66.9996 L93.5,57.4156 Z" id="Fill-1" fill="#2F3439" mask="url(#mask-2)"></path>
                    </g>
                    <path d="M78.2886,55.4996 C78.2886,61.3046 73.5816,66.0106 67.7766,66.0106 C61.9716,66.0106 57.2656,61.3046 57.2656,55.4996 C57.2656,49.6946 61.9716,44.9886 67.7766,44.9886 C73.5816,44.9886 78.2886,49.6946 78.2886,55.4996 Z" id="Stroke-3" stroke="#4F5256" stroke-width="2"></path>
                    <path d="M148.6162,33.7535 C148.6162,33.7535 174.5752,49.5285 194.1022,76.5595 C194.1022,76.5595 192.9062,84.8875 206.5742,93.1865 C207.6082,92.3535 198.4772,80.4935 196.7832,78.3685 C195.0882,76.2435 194.5712,76.4445 194.5712,76.4445" id="Stroke-5" stroke="#6BD6A5" stroke-width="0.459"></path>
                    <path d="M160.8916,42.4971 C160.8916,42.4971 192.5896,38.0231 192.5896,44.6851 C192.5896,47.5281 164.5776,45.7881 160.8916,42.4971 Z" id="Stroke-7" stroke="#6BD6A5" stroke-width="0.459"></path>
                    <path d="M149.2085,34.1241 C149.2085,34.1241 179.3995,28.4701 183.4965,35.7061 C186.3645,40.7711 152.4425,36.0651 149.2085,34.1241 Z" id="Stroke-9" stroke="#6BD6A5" stroke-width="0.459"></path>
                    <path d="M170.8252,50.8619 C170.8252,50.8619 198.5052,45.0769 200.4872,52.0649 C201.5122,55.6789 175.1882,53.7399 170.8252,50.8619 Z" id="Stroke-11" stroke="#6BD6A5" stroke-width="0.459"></path>
                    <path d="M180.3921,60.1568 C180.3921,60.1568 199.1371,54.0328 203.2151,58.0378 C204.7661,60.0768 194.7851,60.8398 180.3921,60.1568" id="Fill-13" fill="#6BD6A5"></path>
                    <path d="M186.8183,67.2842 C186.8183,67.2842 201.4053,63.9532 209.0733,70.1562 C209.6183,70.7012 204.3353,73.2282 186.8183,67.2842" id="Fill-15" fill="#6BD6A5"></path>
                    <path d="M188.9258,69.8179 C188.9258,69.8179 184.1758,83.5669 187.7948,87.7019 C191.4128,91.8369 191.2348,71.8629 188.9258,69.8179" id="Fill-17" fill="#6BD6A5"></path>
                    <path d="M148.9472,33.959 C148.9472,33.959 156.3042,53.189 149.4292,60.22 C145.6392,64.097 146.9142,32.997 148.9472,33.959 Z" id="Stroke-19" stroke="#6BD6A5" stroke-width="0.459"></path>
                    <path d="M159.5903,41.4862742 C159.5903,41.4862742 165.7293,57.4984 160.8913,64.9014 C158.2453,68.9494 157.6613,41.4184 159.5903,41.4862742 Z" id="Stroke-21" stroke="#6BD6A5" stroke-width="0.459"></path>
                    <path d="M170.0366,50.1534 C170.0366,50.1534 177.3316,68.8804 171.1106,74.2344 C168.6406,76.3594 168.1006,50.3384 170.0366,50.1534" id="Fill-23" fill="#6BD6A5"></path>
                    <path d="M182.5864,62.4986 C182.5864,62.4986 185.4404,79.5746 180.2134,80.7236 C177.8734,81.2376 179.8224,60.6166 182.5864,62.4986" id="Fill-25" fill="#6BD6A5"></path>
                    <path d="M195.9209,76.5308 C195.9209,76.5308 213.2949,78.5698 216.1949,82.6768 C219.0949,86.7828 197.3279,78.5118 197.3279,78.5118 L195.9209,76.5308 Z" id="Stroke-27" stroke="#6BD6A5" stroke-width="0.459"></path>
                    <line x1="223.6391" y1="119.1309" x2="223.6391" y2="120.2099" id="Stroke-29" stroke="#F9C152" stroke-width="0.518" stroke-linecap="round"></line>
                    <line x1="221.7217" y1="120.2378" x2="222.6567" y2="120.7778" id="Stroke-31" stroke="#F9C152" stroke-width="0.518" stroke-linecap="round"></line>
                    <line x1="221.7217" y1="122.4522" x2="222.6567" y2="121.9122" id="Stroke-33" stroke="#F9C152" stroke-width="0.518" stroke-linecap="round"></line>
                    <line x1="223.6391" y1="123.5591" x2="223.6391" y2="122.4801" id="Stroke-35" stroke="#F9C152" stroke-width="0.518" stroke-linecap="round"></line>
                    <line x1="225.5566" y1="122.4522" x2="224.6216" y2="121.9122" id="Stroke-37" stroke="#F9C152" stroke-width="0.518" stroke-linecap="round"></line>
                    <line x1="225.5566" y1="120.2378" x2="224.6216" y2="120.7778" id="Stroke-39" stroke="#F9C152" stroke-width="0.518" stroke-linecap="round"></line>
                    <path d="M247.623,169.6724 C247.623,191.1644 192.191,208.5874 123.811,208.5874 C55.433,208.5874 0,191.1644 0,169.6724 C0,148.1804 55.433,130.7574 123.811,130.7574 C192.191,130.7574 247.623,148.1804 247.623,169.6724" id="Fill-41" fill="#2A2A2B"></path>
                </g>
                <g id="编组" transform="translate(0.000000, 20.716100)">
                    <path d="M168.664362,138.4202 C168.664362,144.3742 150.346362,149.2002 127.749362,149.2002 C105.152362,149.2002 86.8343623,144.3742 86.8343623,138.4202 C86.8343623,132.4662 105.152362,127.6402 127.749362,127.6402 C150.346362,127.6402 168.664362,132.4662 168.664362,138.4202" id="Fill-44" fill="#463617"></path>
                    <path d="M184.699062,56.95 C184.699062,88.403 159.202062,113.9 127.749062,113.9 C96.2970623,113.9 70.7990623,88.403 70.7990623,56.95 C70.7990623,25.497 96.2970623,0 127.749062,0 C159.202062,0 184.699062,25.497 184.699062,56.95" id="Fill-45" fill="#F9C152"></path>
                    <path d="M184.699062,56.95 C184.699062,88.403 159.202062,113.9 127.749062,113.9 C96.2970623,113.9 70.7990623,88.403 70.7990623,56.95 C70.7990623,25.497 96.2970623,0 127.749062,0 C159.202062,0 184.699062,25.497 184.699062,56.95" id="Fill-45备份" fill="#FFFFFF" opacity="0.199999988"></path>
                    <path d="M122.870962,70.0496 L122.870962,28.7266 C122.870962,26.2776 124.874962,24.2726 127.324962,24.2726 L128.173962,24.2726 C130.622962,24.2726 132.626962,26.2776 132.626962,28.7266 L132.626962,70.0496 C132.626962,72.4996 130.622962,74.5036 128.173962,74.5036 L127.324962,74.5036 C124.874962,74.5036 122.870962,72.4996 122.870962,70.0496" id="Fill-46" fill="#FFFFFF"></path>
                    <path d="M122.870962,87.7937 L122.870962,87.7937 C122.870962,85.1117 125.064962,82.9187 127.745962,82.9187 L127.751962,82.9187 C130.432962,82.9187 132.626962,85.1117 132.626962,87.7937 C132.626962,90.4757 130.432962,92.6687 127.751962,92.6687 L127.745962,92.6687 C125.064962,92.6687 122.870962,90.4757 122.870962,87.7937" id="Fill-47" fill="#FFFFFF"></path>
                    <path d="M21.1726623,140.6145 C21.1726623,140.6145 18.7016623,134.3185 20.8396623,128.7105 C22.9786623,123.1035 26.7556623,118.6835 26.7556623,118.6835 C26.7556623,118.6835 29.5836623,121.5115 27.1596623,129.5425 C24.7366623,137.5725 21.1726623,140.6145 21.1726623,140.6145" id="Fill-48" fill="#6BD6A5"></path>
                    <path d="M32.5535623,133.4392 C32.1945623,133.1952 31.8045623,132.1082 33.0525623,130.3382 C34.2995623,128.5682 35.2475623,128.4842 35.5115623,128.5322 C36.0495623,128.6302 36.5695623,129.6612 34.9895623,131.7402 C33.4085623,133.8192 32.7965623,133.6032 32.5535623,133.4392" id="Fill-49" fill="#247E55"></path>
                    <path d="M28.9529623,134.2 C28.9529623,134.2 30.3909623,136.397 27.0889623,139.355 C23.7859623,142.313 23.7029623,143.014 23.7029623,143.014 C23.7029623,143.014 22.3369623,141.173 25.1169623,137.692 C27.8959623,134.211 28.9529623,134.2 28.9529623,134.2" id="Fill-50" fill="#247E55"></path>
                    <path d="M25.3660623,142.1472 C25.3660623,142.1472 30.1060623,136.6232 36.8660623,136.7302 C43.6260623,136.8362 46.5950623,139.3792 46.3230623,141.7432 C46.0490623,144.1072 39.0750623,140.8762 35.5830623,140.8042 C32.0900623,140.7332 27.8610623,141.1022 25.3660623,142.1472" id="Fill-51" fill="#6BD6A5"></path>
                    <path d="M6.84506231,131.7639 C6.84506231,131.7639 10.1590623,131.3969 11.7630623,134.1999 C11.7630623,134.1999 6.69106231,134.7219 6.84506231,131.7639" id="Fill-52" fill="#247E55"></path>
                    <path d="M17.7629623,128.3543 C17.7629623,128.3543 20.8399623,125.7943 18.7369623,122.0843 C16.6339623,118.3753 15.0539623,119.3733 15.0539623,119.3733 C15.0539623,119.3733 14.1039623,119.9313 15.2799623,123.0673 C16.4559623,126.2043 17.7629623,128.3543 17.7629623,128.3543" id="Fill-53" fill="#247E55"></path>
                    <path d="M20.2063623,141.6443 C20.2063623,141.6443 8.53236231,113.5433 6.34636231,114.7483 C4.16036231,115.9513 4.82536231,120.8303 8.08836231,125.9943 C11.3523623,131.1583 20.2063623,141.6443 20.2063623,141.6443" id="Fill-54" fill="#6BD6A5"></path>
                    <path d="M9.30056231,142.032 C9.30056231,142.032 10.1085623,141.692 9.91856231,140.559 C9.72756231,139.427 9.49056231,139.276 9.11056231,139.395 C8.73056231,139.513 8.89656231,141.692 9.30056231,142.032" id="Fill-55" fill="#247E55"></path>
                    <path d="M18.8757623,141.6443 C18.8757623,141.6443 10.6867623,134.1673 2.65576231,135.0233 C-2.71423769,140.9313 1.72076231,150.2133 1.72076231,150.2133 C1.72076231,150.2133 7.22576231,149.9523 8.03276231,138.2623 C8.03276231,138.2623 12.3017623,138.8013 18.8757623,141.6443" id="Fill-56" fill="#6BD6A5"></path>
                    <path d="M14.0920623,142.4202 C14.0920623,142.4202 22.3370623,141.3752 29.3460623,142.4202 L26.8030623,161.4762 C26.8030623,161.4762 21.5290623,162.9492 16.2300623,161.4762 L14.0920623,142.4202 Z" id="Fill-57" fill="#365FAF"></path>
                    <path d="M15.4504623,154.5256 C15.4504623,154.5256 24.7894623,154.6796 27.7384623,154.4656" id="Stroke-58" stroke="#FFFFFF" stroke-width="0.407" stroke-linecap="round" stroke-linejoin="round"></path>
                    <path d="M191.584262,133.158 C191.584262,133.158 194.170262,115.925 196.974262,112.658 C198.689262,112.361 200.718262,111.745 200.718262,111.745 L209.600262,114.999 L212.371262,117.511 L209.959262,126.503 L206.884262,136.248 L191.489262,133.879 L191.584262,133.158 Z" id="Fill-59" fill="#E3EAF0"></path>
                    <polygon id="Fill-60" fill="#F2B5BC" points="197.945562 112.4124 200.650562 111.6684 209.442562 114.8354 210.344562 115.6734 200.525562 119.2034 198.417562 115.7904"></polygon>
                    <polygon id="Fill-61" fill="#F2B5BC" points="189.375762 164.617 189.008762 168.101 185.183762 166.353 185.992762 163.719"></polygon>
                    <polygon id="Fill-62" fill="#F2B5BC" points="208.418262 165.0559 208.996262 169.1139 212.295262 167.1339 211.673262 164.1809"></polygon>
                    <path d="M191.640962,132.0989 L183.876962,163.3569 C183.876962,163.3569 188.754962,165.3949 192.076962,164.7419 L198.615962,141.5189 L205.607962,165.7759 C205.607962,165.7759 210.997962,165.6129 213.502962,164.2519 L207.159962,133.9499 C207.159962,133.9499 198.202962,135.0659 191.640962,132.0989" id="Fill-63" fill="#515A84"></path>
                    <path d="M190.606762,137.5164 C190.606762,137.5164 193.410762,136.7544 193.791762,134.1134" id="Stroke-64" stroke="#C5D1DF" stroke-width="0.218" stroke-linecap="round" stroke-linejoin="round"></path>
                    <path d="M201.741462,136.1824 C201.741462,136.1824 203.130462,140.9474 208.139462,140.4294" id="Stroke-65" stroke="#C5D1DF" stroke-width="0.218" stroke-linecap="round" stroke-linejoin="round"></path>
                    <path d="M199.348462,136.6726 C199.348462,136.6726 201.768462,119.1396 203.456462,116.8526 C203.456462,116.8526 206.396462,116.7436 208.003462,116.1726 C209.609462,115.6006 210.160462,115.5026 210.160462,115.5026 L212.312462,117.4396 C212.312462,117.4396 210.371462,116.8526 208.983462,120.7736 C207.595462,124.6936 209.165462,128.0606 210.227462,125.5016 C210.227462,125.5016 209.498462,128.0266 209.283462,130.1116 C209.154462,131.3576 209.201462,136.5366 208.983462,137.0536 C208.765462,137.5706 207.731462,137.8426 206.015462,137.7886 C204.300462,137.7346 200.059462,137.5436 199.348462,136.6726" id="Fill-66" fill="#2E64FF"></path>
                    <path d="M184.562762,161.4475 C184.562762,161.4475 186.930762,163.1085 192.239762,162.7545" id="Stroke-67" stroke="#C5D1DF" stroke-width="0.218" stroke-linecap="round" stroke-linejoin="round"></path>
                    <path d="M205.525662,163.6253 C205.525662,163.6253 210.072662,163.4623 212.740662,162.3183" id="Stroke-68" stroke="#C5D1DF" stroke-width="0.218" stroke-linecap="round" stroke-linejoin="round"></path>
                    <path d="M183.861662,166.6126 C183.861662,166.6126 184.654662,165.0636 186.536662,166.5336 C188.418662,168.0046 188.569662,167.8536 189.360662,167.7036 L189.359662,170.7096 C189.359662,170.7096 189.398662,171.2586 188.947662,171.3656 C188.497662,171.4736 187.118662,171.9116 185.589662,172.2776 C184.060662,172.6436 180.798662,172.7246 180.651662,171.4516 C180.506662,170.1996 181.298662,169.8286 181.577662,169.5596 C182.554662,168.6146 183.861662,166.6126 183.861662,166.6126" id="Fill-69" fill="#E8B143"></path>
                    <path d="M182.626262,169.053 C182.626262,169.053 183.685262,168.749 184.694262,169.533" id="Stroke-70" stroke="#FFFFFF" stroke-width="0.157" stroke-linecap="round" stroke-linejoin="round"></path>
                    <path d="M185.262962,168.9949 C185.262962,168.9949 184.389962,168.2979 183.223962,168.3869" id="Stroke-71" stroke="#FFFFFF" stroke-width="0.157" stroke-linecap="round" stroke-linejoin="round"></path>
                    <path d="M185.753262,168.592 C185.753262,168.592 184.959262,167.847 183.660262,167.867" id="Stroke-72" stroke="#FFFFFF" stroke-width="0.157" stroke-linecap="round" stroke-linejoin="round"></path>
                    <path d="M186.262462,167.9944 C186.262462,167.9944 185.488462,167.4264 184.243462,167.2494" id="Stroke-73" stroke="#FFFFFF" stroke-width="0.157" stroke-linecap="round" stroke-linejoin="round"></path>
                    <path d="M184.580862,106.6438 C184.580862,106.6438 185.805862,104.2678 186.802862,105.0638 C187.798862,105.8598 186.949862,106.9048 186.949862,106.9048 C186.949862,106.9048 186.034862,108.3588 186.066862,109.1598 C186.099862,109.9598 187.128862,113.2238 187.514862,113.4078 C188.094862,113.6858 189.401862,113.4528 189.401862,113.4528 L189.873862,117.4208 L188.208862,119.5298 C188.208862,119.5298 184.472862,118.5558 182.410862,114.3378 C180.648862,110.7348 179.630862,109.7528 179.630862,109.7528 C179.630862,109.7528 178.585862,108.7348 179.075862,107.9018 C179.560862,107.0768 180.088862,107.2808 180.088862,107.2808 C180.088862,107.2808 179.866862,106.6958 180.300862,106.2848 C180.807862,105.8048 181.215862,106.0228 181.215862,106.0228 C181.215862,106.0228 181.554862,104.8028 182.379862,105.0058 C183.298862,105.2308 183.641862,105.3528 184.580862,106.6438" id="Fill-74" fill="#F2B5BC"></path>
                    <path d="M196.541362,112.3606 L188.673362,113.1366 C188.673362,113.1366 190.170362,116.4446 188.047362,119.6566 C188.047362,119.6566 188.415362,120.7596 193.955362,119.3986 L196.541362,112.3606 Z" id="Fill-75" fill="#E3EAF0"></path>
                    <path d="M213.509062,167.0383 C213.509062,167.0383 214.538062,168.8023 215.221062,169.6183 C215.743062,170.2423 216.219062,171.1953 216.116062,171.9883 C216.005062,172.8403 213.478062,172.9193 212.067062,172.7623 C210.656062,172.6053 208.086062,171.7563 208.060062,171.1943 C208.033062,170.6323 208.099062,167.9113 208.099062,167.9113 C208.099062,167.9113 208.304062,167.4963 209.298062,167.8093 C209.585062,167.9013 210.020062,167.8813 210.343062,167.6753 C210.536062,167.5533 211.304062,166.6853 212.016062,166.5093 C212.755062,166.3263 212.947062,166.3063 213.509062,167.0383" id="Fill-76" fill="#E8B143"></path>
                    <path d="M213.707362,128.5203 C213.707362,128.5203 215.291362,130.0723 217.497362,129.7783 C219.702362,129.4843 225.321362,127.3603 227.037362,125.7923 C227.723362,125.2533 228.106362,124.1663 227.641362,123.6603 C227.641362,123.6603 228.311362,122.1983 227.379362,121.7493 C227.379362,121.7493 227.649362,120.3693 226.457362,120.3033 C225.264362,120.2383 224.594362,120.5413 224.594362,120.5413 C224.594362,120.5413 225.101362,118.4253 223.892362,118.4093 C222.683362,118.3923 222.471362,119.6253 222.471362,119.6253 C222.471362,119.6253 222.226362,122.6473 220.535362,123.4733 C218.844362,124.2973 218.549362,124.6343 217.674362,124.3733 C216.795362,124.1123 216.010362,123.9623 216.010362,123.9623 L211.866362,126.6983 L213.372362,128.1853 L213.707362,128.5203 Z" id="Fill-77" fill="#F2B5BC"></path>
                    <path d="M209.377762,123.8391 L213.144762,128.7141 C213.144762,128.7141 213.189762,126.3081 215.112762,124.9841 C217.037762,123.6581 217.903762,124.2351 217.903762,124.2351 L212.299762,117.4241 C212.299762,117.4241 209.014762,119.1011 209.377762,123.8391" id="Fill-82" fill="#E3EAF0"></path>
                    <path d="M180.431962,107.5344 C180.431962,107.5344 181.966962,108.2444 182.211962,109.0614 C182.456962,109.8784 181.321962,110.1554 181.321962,110.1554" id="Stroke-83" stroke="#F58B8D" stroke-width="0.196" stroke-linecap="round"></path>
                    <path d="M181.493462,106.1946 C181.493462,106.1946 183.086462,106.8806 183.282462,107.4766 C183.478462,108.0726 183.461462,108.4566 182.522462,108.9386" id="Stroke-84" stroke="#F58B8D" stroke-width="0.196" stroke-linecap="round"></path>
                    <path d="M183.511062,107.6809 C183.511062,107.6809 184.360062,107.7789 184.467062,106.9209" id="Stroke-85" stroke="#F58B8D" stroke-width="0.196" stroke-linecap="round"></path>
                    <path d="M227.028662,121.7249 C227.028662,121.7249 224.835662,121.4679 224.210662,122.7419 C224.039662,123.1459 224.259662,123.6849 224.651662,123.6119" id="Stroke-86" stroke="#F58B8D" stroke-width="0.196" stroke-linecap="round"></path>
                    <path d="M227.028662,123.2805 C227.028662,123.2805 224.259662,122.9255 224.480662,124.5795 C224.639662,125.4365 225.447662,125.4365 225.693662,125.3015 C225.938662,125.1675 226.403662,125.1925 226.403662,125.1925" id="Stroke-87" stroke="#F58B8D" stroke-width="0.196" stroke-linecap="round"></path>
                    <path d="M224.468062,120.9407 C224.468062,120.9407 223.451062,121.6207 224.468062,122.3007" id="Stroke-88" stroke="#F58B8D" stroke-width="0.196" stroke-linecap="round"></path>
                    <path d="M190.606762,134.8211 C190.606762,134.8211 193.900762,114.4031 196.541762,112.3611 L199.800762,111.9211 C199.800762,111.9211 197.793762,113.4491 200.025762,115.8451 C200.025762,115.8451 195.479762,127.4161 195.098762,134.9851 C195.071762,135.8011 194.880762,136.3731 193.192762,135.8561 C191.504762,135.3391 190.606762,134.8211 190.606762,134.8211" id="Fill-89" fill="#2E64FF"></path>
                    <path d="M194.008562,135.3894 C194.008562,135.3894 196.166562,120.4194 199.348562,115.7904" id="Stroke-90" stroke="#C5D1DF" stroke-width="0.218" stroke-linecap="round" stroke-linejoin="round"></path>
                </g>
                <g id="编组" transform="translate(180.634203, 186.616000)">
                    <mask id="mask-4" fill="white">
                        <use xlink:href="#path-3"></use>
                    </mask>
                    <g id="Clip-92"></g>
                    <path d="M0.198659542,5.6458 C0.198659542,5.6458 0.669659542,5.3448 1.13965954,5.3578 C1.61065954,5.3718 2.98665954,6.1948 4.36365954,5.9338 C5.73965954,5.6718 8.06565954,4.4478 8.51265954,4.5668 C8.68365954,4.6128 9.05465954,4.7448 9.13065954,4.9018 C9.38165954,5.4248 8.18465954,6.8558 8.18465954,6.8558 L0.392659542,7.1888 L-0.237340458,5.9668 L0.198659542,5.6458 Z" id="Fill-91" fill="#252E4D" mask="url(#mask-4)"></path>
                </g>
                <g id="编组" transform="translate(208.053474, 187.118000)" fill="#252E4D">
                    <path d="M0.329588074,4.3903 C1.22158807,5.0473 3.05458807,5.7433 4.63258807,5.8993 C5.32958807,5.9693 6.00458807,5.3503 6.62158807,5.1843 C7.23958807,5.0173 7.99458807,5.2723 7.99458807,5.2723 L8.69758807,5.5943 C8.69758807,5.5943 8.25658807,7.5153 8.18758807,7.5153 C8.11958807,7.5153 -0.748411926,5.2903 -0.748411926,5.2903 L-0.309411926,3.9533 L0.329588074,4.3903 Z" id="Fill-93"></path>
                </g>
                <g id="编组" transform="translate(200.074162, 121.344783)">
                    <path d="M2.54580019,6.58301697 C2.54580019,6.58301697 1.71580019,5.40301697 2.76280019,4.31601697 C3.08380019,3.98301697 3.74180019,4.25101697 3.89480019,4.59201697 L2.54580019,6.58301697 Z" id="Fill-95" fill="#F2B5BC"></path>
                    <path d="M2.71570019,14.309517 C2.71570019,14.309517 7.36170019,16.205517 8.79670019,14.556517 C10.2327002,12.906517 10.1687002,10.999517 10.6397002,9.88551697 C11.1117002,8.77051697 13.4037002,6.56351697 13.0177002,5.44951697 C12.6327002,4.33551697 11.1477002,2.87751697 8.04370019,1.74251697 C4.93970019,0.606516971 3.50470019,2.25651697 3.69670019,4.80651697 C3.11870019,6.08551697 0.951700189,7.28851697 0.0297001889,11.124517 C-0.0762998111,11.874517 -0.0442998111,13.088517 2.71570019,14.309517" id="Fill-97" fill="#515A84"></path>
                    <path d="M2.72940019,6.43211697 C2.72940019,6.43211697 4.27340019,1.86211697 6.77240019,1.93611697 C9.27140019,2.00911697 11.7464002,4.14111697 10.6314002,7.08111697 C9.51740019,10.021117 8.70840019,9.48211697 8.34040019,9.04111697 C7.97340019,8.60011697 6.95940019,6.97111697 5.59840019,6.71411697 C4.23640019,6.45611697 2.54540019,6.91411697 2.72940019,6.43211697" id="Fill-99" fill="#F2B5BC"></path>
                    <path d="M5.71470019,5.19431697 C5.61070019,5.35231697 5.42070019,5.41131697 5.28770019,5.32431697 C5.15570019,5.23831697 5.13270019,5.04031697 5.23670019,4.88231697 C5.33970019,4.72331697 5.53070019,4.66531697 5.66370019,4.75131697 C5.79570019,4.83831697 5.81870019,5.03631697 5.71470019,5.19431697" id="Fill-101" fill="#263166"></path>
                    <path d="M7.64440019,6.24171697 C7.54040019,6.39971697 7.34940019,6.45871697 7.21740019,6.37171697 C7.08540019,6.28571697 7.06240019,6.08771697 7.16640019,5.92971697 C7.26940019,5.77071697 7.46040019,5.71271697 7.59240019,5.79871697 C7.72540019,5.88571697 7.74840019,6.08371697 7.64440019,6.24171697" id="Fill-103" fill="#263166"></path>
                    <path d="M8.75770019,5.57171697 C8.75770019,5.57171697 8.53870019,5.28471697 8.45470019,5.19871697 C8.37070019,5.11271697 8.08970019,4.88571697 8.08970019,4.88571697 C8.02470019,4.81871697 8.02870019,4.70671697 8.10070019,4.63671697 C8.17270019,4.56671697 8.32370019,4.52571697 8.72370019,4.93671697 C9.10070019,5.32371697 9.07870019,5.49671697 9.00770019,5.56671697 C8.93570019,5.63671697 8.82270019,5.63871697 8.75770019,5.57171697" id="Fill-105" fill="#263166"></path>
                    <path d="M6.08290019,4.01851697 C6.08290019,4.01851697 5.72290019,3.98751697 5.60290019,3.99151697 C5.48290019,3.99651697 5.12590019,4.05151697 5.12590019,4.05151697 C5.03290019,4.05451697 4.95290019,3.97551697 4.94990019,3.87551697 C4.94590019,3.77551697 5.01690019,3.63651697 5.58990019,3.61651697 C6.12990019,3.59751697 6.24390019,3.73051697 6.24690019,3.83051697 C6.24990019,3.93051697 6.17690019,4.01551697 6.08290019,4.01851697" id="Fill-107" fill="#263166"></path>
                    <path d="M11.0072002,4.35351697 C11.0072002,4.35351697 5.01220019,4.51651697 5.23320019,2.02551697 C5.45320019,-0.465483029 7.74820019,-0.539483029 9.41420019,1.15151697 C11.0812002,2.84251697 12.0362002,3.29151697 11.9712002,3.79051697 C11.9052002,4.28851697 11.0072002,4.35351697 11.0072002,4.35351697" id="Fill-109" fill="#515A84"></path>
                    <path d="M6.56580019,6.38331697 C6.56580019,6.77531697 6.24780019,7.09331697 5.85480019,7.09331697 C5.46280019,7.09331697 5.14480019,6.77531697 5.14480019,6.38331697 C5.14480019,5.99031697 5.46280019,5.67231697 5.85480019,5.67231697 C6.24780019,5.67231697 6.56580019,5.99031697 6.56580019,6.38331697" id="Fill-111" fill="#F58B8D"></path>
                    <path d="M4.10580019,7.48971697 C4.57980019,7.54671697 4.67780019,7.74271697 6.24680019,8.20871697 C6.88780019,8.39871697 6.83680019,8.82171697 6.56580019,9.09071697 C6.29480019,9.36071697 5.53780019,9.62871697 4.50580019,9.07371697 C3.74680019,8.66571697 3.79880019,7.45271697 4.10580019,7.48971697" id="Fill-113" fill="#FFFFFF"></path>
                    <path d="M11.7098002,7.48871697 C11.7098002,7.48871697 13.0328002,8.05271697 12.2978002,9.31071697 C11.5628002,10.568717 11.0888002,10.568717 10.3378002,10.307717 C10.3378002,10.307717 11.3178002,8.63971697 11.7098002,7.48871697" id="Fill-115" fill="#F2B5BC"></path>
                </g>
                <path d="M214.720962,190.1329 C214.720962,190.1329 213.113962,189.8589 212.342962,190.6039" id="Stroke-78" stroke="#FFFFFF" stroke-width="0.157" stroke-linecap="round" stroke-linejoin="round"></path>
                <path d="M212.156562,190.0284 C212.156562,190.0284 213.028562,189.2934 214.175562,189.5974" id="Stroke-79" stroke="#FFFFFF" stroke-width="0.157" stroke-linecap="round" stroke-linejoin="round"></path>
                <path d="M212.009562,189.5235 C212.009562,189.5235 212.969562,188.8425 213.851562,189.1065" id="Stroke-80" stroke="#FFFFFF" stroke-width="0.157" stroke-linecap="round" stroke-linejoin="round"></path>
                <path d="M211.911962,188.7764 C211.911962,188.7764 212.659962,188.0784 214.031962,188.2744" id="Stroke-81" stroke="#FFFFFF" stroke-width="0.196" stroke-linecap="round" stroke-linejoin="round"></path>
                <g id="编组" transform="translate(203.969422, 128.834000)">
                    <mask id="mask-6" fill="white">
                        <use xlink:href="#path-5"></use>
                    </mask>
                    <g id="Clip-118"></g>
                    <path d="M1.89704029,2.4888 C1.70204029,3.1008 0.97704029,3.4168 0.27704029,3.1948 C-0.42195971,2.9708 -0.83095971,2.2948 -0.63595971,1.6818 C-0.44095971,1.0698 0.28404029,0.7538 0.98404029,0.9758 C1.68304029,1.1988 2.09204029,1.8768 1.89704029,2.4888" id="Fill-117" fill="#F2B5BC" mask="url(#mask-6)"></path>
                </g>
            </g>
        </g>
    </g>
</svg>