<svg id="图层_1" data-name="图层 1" xmlns="http://www.w3.org/2000/svg" viewBox="0 0 800 800"><defs><style>.cls-1{fill:#fcf8f5;}.cls-2{fill:#ffe6e3;}.cls-3{fill:#f9513c;}.cls-4{fill:#fff;}.cls-5{fill:#ace4b3;}.cls-11,.cls-15,.cls-6{fill:none;}.cls-6{stroke:#ace4b3;stroke-width:0.34px;}.cls-11,.cls-6{stroke-miterlimit:10;}.cls-7{fill:#2e64ff;}.cls-8{fill:#cf3e83;}.cls-9{fill:#f2b5bc;}.cls-10{fill:#263166;}.cls-11{stroke:#263166;stroke-width:0.14px;}.cls-11,.cls-15{stroke-linecap:round;}.cls-12{fill:#ff4d4e;}.cls-13{fill:#2f2f3d;}.cls-14{fill:#f58b8d;}.cls-15{stroke:#fff;stroke-linejoin:round;stroke-width:0.19px;}</style></defs><ellipse class="cls-1" cx="379.61" cy="423.86" rx="123.81" ry="38.92"/><ellipse class="cls-2" cx="378.24" cy="413.33" rx="40.91" ry="10.78"/><circle class="cls-3" cx="378.24" cy="331.86" r="56.95"/><rect class="cls-4" x="348.12" y="326.98" width="60.24" height="9.76" rx="4.88" transform="translate(345.44 -170.26) rotate(45)"/><rect class="cls-4" x="348.12" y="326.98" width="60.24" height="9.76" rx="4.88" transform="translate(880.36 299.06) rotate(135)"/><polygon class="cls-5" points="447.28 419.63 441.43 413.32 442.38 411.86 447.9 417.71 443.51 410.74 444.66 409.78 448.74 416.53 447.95 407.58 450.54 407.02 450.99 417.71 453.36 407.02 456.56 407.64 453.58 417.04 458.48 409.1 461.18 411.47 454.48 419.63 462.81 414.17 463.88 417.54 454.76 424.41 464.72 420.92 463.99 426.1 456.23 426.66 462.53 429.42 460.22 432.29 454.2 427.84 455.89 433.86 452.23 434.48 452.06 427 450.43 434.48 447.79 433.75 451.5 425.7 446.83 433.81 444.52 433.25 449.7 424.86 443.12 432.96 441.09 431.05 448.57 423.79 439.79 428.97 438.56 427 447.56 422.44 437.94 423.85 437.49 421.43 446.94 420.75 438.56 418.56 439.91 415.52 447.28 419.63"/><polygon class="cls-5" points="466.68 390.25 469.93 383.92 472.29 385.74 468.58 393.42 473.9 387.89 475.33 391.35 469.34 395.91 475.58 393.54 474.87 397.09 469.68 397.55 473.52 398.52 472.5 400.17 469.46 398.1 471.13 400.76 468.16 403.08 467.52 399.07 467.31 403.71 465.37 404.39 465.37 398.02 464.48 404.39 462.2 404.6 464.1 397.51 460.56 403.97 458.87 402.49 463.13 396.71 457.65 400.97 456.89 399.41 461.57 395.99 455.58 397.34 455.24 395.61 461.78 394.26 454.9 392.49 454.9 390.84 461.36 392.53 454.9 389.62 455.58 388.14 461.15 390.97 456.76 385.52 458.87 383.92 463.18 390.97 460.43 382.82 463.18 381.94 464.72 389.28 464.72 381.94 467.78 382.44 466.68 390.25"/><path class="cls-6" d="M469.23,401.22s6.13,22.35,0,32.76"/><path class="cls-7" d="M288.76,392.92c.11,2.54,1.46,4.07,1.58,6.45.16,3.05-1.59,2.73-1.46,5.24.07,1.29-11.5,4.43-14.77.35-2.09-2.63,0-2.95-.2-6.51s2.35-4.05,2.25-5.91c-.13-2.47,1.85-5.76,5.09-5.93,3.95-.21,7.35,2.46,7.51,6.31"/><path class="cls-8" d="M282.86,398.9a4.61,4.61,0,0,1-1.67-.15l1.65.91Z"/><path class="cls-9" d="M280.21,396.73a2,2,0,0,1,.1,1.79c-.06.16-.45,1.48-.52,1.54-.24.24,3,1.46,3,1.46l.07-2.62a4.81,4.81,0,0,0,2.57-.53c1.71-1.27,1.59-5.34,1.55-5.55l-1.56-1.57s-2.29-.92-2.61-.46c-.58.84-1.84,4.5-2.91,4.15,0,0,.07-1.13-.86-1.07a.85.85,0,0,0-.84.92c.06,1.09,1.47,1.18,2,1.94"/><path class="cls-10" d="M284.27,395.07c0,.24-.13.43-.29.43s-.29-.19-.29-.43.13-.43.29-.43.29.19.29.43"/><path class="cls-10" d="M286.25,394.73c0,.22-.12.39-.26.39s-.27-.18-.27-.39.12-.39.27-.39.26.17.26.39"/><path class="cls-7" d="M284.89,390.88a3.11,3.11,0,0,0,.26,1.09l.06.12a2.93,2.93,0,0,0,.53.77,3.28,3.28,0,0,0,2.26,1.05h.14l-.07-1.18h0v-.11a6.1,6.1,0,0,0-1.58-3.76,5.44,5.44,0,0,0-.55-.52,3.16,3.16,0,0,0-1.05,2.54"/><path class="cls-11" d="M285.07,397.22a1.14,1.14,0,0,1-1.09-.37"/><path class="cls-7" d="M279.9,394.94s2.17.68,5.45-4.28-7.38-.36-7.38-.36l2.22,2.39Z"/><path class="cls-7" d="M280.32,396.94s1.83,4.18-5.34,5.25Z"/><path class="cls-9" d="M288.89,404.77s2.05,7.6,2.1,11.85-.17,8.45-.17,8.45,1.75,4.06,1,4.55c-.41.26-.86-.2-1-.92-.63.65-.75-.07-.87-.89a11,11,0,0,0-.44-2.43c-.08-.25-.63-8.3-1-10.23s-2.81-9.67-2.81-9.67l.83.15Z"/><path class="cls-9" d="M274.84,404.77s-2,7.6-2.1,11.85.18,8.45.18,8.45-1.75,4.06-1,4.55c.41.26.86-.2,1-.92.63.65.75-.07.87-.89a11,11,0,0,1,.44-2.43c.08-.25.63-8.3,1-10.23s2.42-8.53,2.42-8.53l-.44-1Z"/><path class="cls-12" d="M275.85,401.62a8.54,8.54,0,0,1,5.5-2,10.87,10.87,0,0,1,6,2,7.1,7.1,0,0,1,2.32,4.17,20.92,20.92,0,0,1-3.29,1.5l-.19,7.61h-8.7l-.26-7.77-3.75-1.73A11.79,11.79,0,0,1,275.85,401.62Z"/><path class="cls-10" d="M277.15,468.9l2.67-.13.29,3.38h-6.38A5.93,5.93,0,0,1,277.15,468.9Z"/><path class="cls-10" d="M291.49,468.77s5,1.33,6.93,3.29l-9.06,0,.24-3.36Z"/><path class="cls-9" d="M279.28,469.23a4,4,0,0,1-2.86,1.3c-1.27,0,1.06-1.57,1.47-1.85l-2.43-27,6.37-2.95-2,30.6-.58-.1Z"/><path class="cls-9" d="M292.22,469l3.28,1.42a9.58,9.58,0,0,1-5.07-1.15h-.65l-6-26.58,5.48-.26s.57,6,1.23,12.56C291.23,462.31,292,467.75,292.22,469Z"/><path class="cls-13" d="M277.68,414.27s-1.53.71-3,5.11c-2,5.9-2.55,23.76-2.55,23.76h19l-4.91-28.85Z"/><circle class="cls-14" cx="285.29" cy="395.97" r="0.2"/><path class="cls-15" d="M278.65,417.78s-3.65,7.77-4,23.43"/></svg>