<?xml version="1.0" encoding="UTF-8"?>
<svg width="248px" height="198px" viewBox="0 0 248 198" version="1.1" xmlns="http://www.w3.org/2000/svg" xmlns:xlink="http://www.w3.org/1999/xlink">
    <title>73162BCB-8B7C-4F3D-84A1-347BBAB5B48A</title>
    <defs>
        <polygon id="path-1" points="0 110.0409 247.622 110.0409 247.622 187.8709 0 187.8709"></polygon>
    </defs>
    <g id="页面-1" stroke="none" stroke-width="1" fill="none" fill-rule="evenodd">
        <g id="反馈-失败" transform="translate(0.000000, 0.000500)">
            <g transform="translate(0.000000, 0.000000)" id="反馈-失败">
                <mask id="mask-2" fill="white">
                    <use xlink:href="#path-1"></use>
                </mask>
                <g id="Clip-2"></g>
                <path d="M247.6225,148.9559 C247.6225,170.4479 192.1905,187.8709 123.8115,187.8709 C55.4325,187.8709 -0.0005,170.4479 -0.0005,148.9559 C-0.0005,127.4639 55.4325,110.0409 123.8115,110.0409 C192.1905,110.0409 247.6225,127.4639 247.6225,148.9559" id="Fill-1" fill="#FCF8F5" mask="url(#mask-2)"></path>
                <path d="M163.3566,138.4198 C163.3566,144.3738 145.0386,149.1998 122.4416,149.1998 C99.8446,149.1998 81.5266,144.3738 81.5266,138.4198 C81.5266,132.4668 99.8446,127.6398 122.4416,127.6398 C145.0386,127.6398 163.3566,132.4668 163.3566,138.4198" id="Fill-4" fill="#FFE6E3"></path>
                <path d="M179.3918,56.95 C179.3918,88.402 153.8938,113.899 122.4418,113.899 C90.9888,113.899 65.4918,88.402 65.4918,56.95 C65.4918,25.497 90.9888,0 122.4418,0 C153.8938,0 179.3918,25.497 179.3918,56.95" id="Fill-5" fill="#F9513C"></path>
                <path d="M136.8403,78.2469 L101.1443,42.5519 C99.2473,40.6539 99.2473,37.5509 101.1443,35.6539 L101.1453,35.6519 C103.0423,33.7559 106.1463,33.7559 108.0433,35.6519 L143.7393,71.3489 C145.6363,73.2449 145.6363,76.3489 143.7393,78.2459 L143.7373,78.2469 C141.8403,80.1439 138.7373,80.1439 136.8403,78.2469" id="Fill-6" fill="#FFFFFF"></path>
                <path d="M101.1442,71.3485 L136.8402,35.6525 C138.7372,33.7555 141.8412,33.7555 143.7372,35.6525 L143.7392,35.6545 C145.6362,37.5505 145.6362,40.6545 143.7392,42.5515 L108.0432,78.2465 C106.1462,80.1445 103.0422,80.1445 101.1452,78.2465 L101.1442,78.2455 C99.2472,76.3485 99.2472,73.2445 101.1442,71.3485" id="Fill-7" fill="#FFFFFF"></path>
                <polygon id="Fill-8" fill="#ACE4B3" points="191.4782 144.7186 185.6252 138.4156 186.5822 136.9526 192.0972 142.8056 187.7082 135.8266 188.8612 134.8706 192.9412 141.6236 192.1532 132.6756 194.7422 132.1136 195.1922 142.8056 197.5562 132.1136 200.7632 132.7326 197.7812 142.1296 202.6772 134.1956 205.3782 136.5596 198.6812 144.7186 207.0102 139.2606 208.0792 142.6366 198.9632 149.5016 208.9232 146.0136 208.1922 151.1906 200.4262 151.7526 206.7282 154.5106 204.4212 157.3806 198.4002 152.9346 200.0882 158.9556 196.4302 159.5746 196.2612 152.0906 194.6292 159.5746 191.9852 158.8436 195.6992 150.7966 191.0282 158.9006 188.7212 158.3366 193.8982 149.9516 187.3172 158.0556 185.2882 156.1426 192.7722 148.8826 183.9942 154.0606 182.7562 152.0906 191.7592 147.5316 182.1362 148.9396 181.6862 146.5196 191.1402 145.8446 182.7562 143.6496 184.1062 140.6116"></polygon>
                <polygon id="Fill-9" fill="#ACE4B3" points="210.8788 115.3436 214.1288 109.0126 216.4928 110.8266 212.7778 118.5086 218.0958 112.9806 219.5308 116.4416 213.5378 120.9986 219.7848 118.6356 219.0668 122.1806 213.8758 122.6456 217.7158 123.6156 216.7028 125.2616 213.6648 123.1946 215.3318 125.8526 212.3558 128.1736 211.7228 124.1646 211.5118 128.8076 209.5708 129.4826 209.5708 123.1096 208.6838 129.4826 206.4048 129.6936 208.3048 122.6026 204.7588 129.0606 203.0708 127.5826 207.3338 121.8006 201.8468 126.0636 201.0868 124.5016 205.7718 121.0836 199.7788 122.4346 199.4408 120.7036 205.9828 119.3536 199.1038 117.5796 199.1038 115.9346 205.5608 117.6226 199.1038 114.7106 199.7788 113.2336 205.3498 116.0616 200.9608 110.6156 203.0708 109.0126 207.3758 116.0616 204.6328 107.9146 207.3758 107.0296 208.9228 114.3726 208.9228 107.0296 211.9758 107.5346"></polygon>
                <path d="M213.4252,126.3172 C213.4252,126.3172 219.5592,148.6582 213.4252,159.0692" id="Stroke-10" stroke="#ACE4B3" stroke-width="0.338"></path>
                <path d="M32.9631,118.0116 C33.0691,120.5576 34.4151,122.0816 34.5411,124.4576 C34.7031,127.5136 32.9511,127.1906 33.0831,129.6986 C33.1521,130.9966 21.5771,134.1336 18.3141,130.0476 C16.2211,127.4256 18.2971,127.0996 18.1091,123.5416 C17.9221,120.0206 20.4571,119.4916 20.3591,117.6356 C20.2281,115.1646 22.2131,111.8736 25.4531,111.7016 C29.3991,111.4916 32.8031,114.1646 32.9631,118.0116" id="Fill-11" fill="#2E64FF"></path>
                <path d="M27.0639,123.9881 C27.0639,123.9881 25.9039,124.0841 25.3939,123.8401 L27.0429,124.7571 L27.0639,123.9881 Z" id="Fill-12" fill="#CF3E83"></path>
                <path d="M24.4059,121.8182 C24.8019,122.3812 24.6929,123.1572 24.5089,123.6172 C24.4469,123.7752 24.0589,125.0922 23.9949,125.1552 C23.7479,125.3952 26.9919,126.6092 26.9919,126.6092 L27.0639,123.9882 C27.9859,123.9922 29.0619,123.8862 29.6329,123.4612 C31.3359,122.1942 31.2239,118.1192 31.1849,117.9172 L29.6169,116.3392 C29.6169,116.3392 27.3299,115.4262 27.0139,115.8822 C26.4349,116.7172 25.1709,120.3842 24.0969,120.0302 C24.0969,120.0302 24.1709,118.9082 23.2389,118.9582 C22.5459,118.9962 22.3869,119.5622 22.4049,119.8842 C22.4639,120.9692 23.8739,121.0582 24.4059,121.8182" id="Fill-13" fill="#F2B5BC"></path>
                <path d="M28.4716,120.1649 C28.4716,120.4039 28.3416,120.5979 28.1806,120.5969 C28.0196,120.5959 27.8886,120.4009 27.8886,120.1619 C27.8876,119.9239 28.0186,119.7299 28.1796,119.7309 C28.3406,119.7319 28.4716,119.9269 28.4716,120.1649" id="Fill-14" fill="#263166"></path>
                <path d="M30.4516,119.8221 C30.4516,120.0381 30.3346,120.2131 30.1886,120.2121 C30.0436,120.2111 29.9246,120.0351 29.9246,119.8191 C29.9236,119.6031 30.0416,119.4291 30.1876,119.4291 C30.3326,119.4301 30.4516,119.6061 30.4516,119.8221" id="Fill-15" fill="#263166"></path>
                <path d="M29.09,115.9686 C29.111,116.3546 29.201,116.7216 29.347,117.0596 C29.366,117.1016 29.385,117.1446 29.407,117.1866 C29.546,117.4686 29.725,117.7266 29.935,117.9536 C30.504,118.5676 31.309,118.9596 32.201,118.9996 C32.246,119.0016 32.291,119.0026 32.337,119.0016 L32.272,117.8266 L32.271,117.8266 C32.27,117.7896 32.268,117.7536 32.266,117.7176 C32.187,116.2676 31.602,114.9616 30.687,113.9576 C30.517,113.7706 30.335,113.5946 30.143,113.4296 C29.746,113.7886 29.442,114.2416 29.263,114.7506 C29.129,115.1306 29.067,115.5416 29.09,115.9686" id="Fill-16" fill="#2E64FF"></path>
                <path d="M29.2707,122.3104 C29.2707,122.3104 28.7167,122.4794 28.1837,121.9464" id="Stroke-17" stroke="#263166" stroke-width="0.141" stroke-linecap="round"></path>
                <path d="M24.0971,120.0301 C24.0971,120.0301 26.2701,120.7131 29.5471,115.7511 C32.8241,110.7881 22.1661,115.3931 22.1661,115.3931 L24.3861,117.7801 L24.0971,120.0301 Z" id="Fill-18" fill="#2E64FF"></path>
                <path d="M24.5222,122.036 C24.5222,122.036 26.3492,126.21 19.1752,127.284 L24.5222,122.036 Z" id="Fill-19" fill="#2E64FF"></path>
                <path d="M33.0944,129.8602 C33.0944,129.8602 35.1444,137.4602 35.1944,141.7102 C35.2444,145.9602 35.0194,150.1602 35.0194,150.1602 C35.0194,150.1602 36.7684,154.2262 36.0274,154.7102 C35.6194,154.9762 35.1694,154.5092 35.0364,153.7932 C34.4094,154.4392 34.2864,153.7182 34.1694,152.9012 C34.0524,152.0852 34.0574,151.4162 33.7324,150.4722 C33.6464,150.2232 33.1034,142.1762 32.7694,140.2432 C32.4364,138.3102 29.9614,130.5682 29.9614,130.5682 L30.7864,130.7262 L33.0944,129.8602 Z" id="Fill-20" fill="#F2B5BC"></path>
                <path d="M19.0446,129.8602 C19.0446,129.8602 16.9946,137.4602 16.9446,141.7102 C16.8946,145.9602 17.1196,150.1602 17.1196,150.1602 C17.1196,150.1602 15.3706,154.2262 16.1116,154.7102 C16.5196,154.9762 16.9696,154.5092 17.1026,153.7932 C17.7296,154.4392 17.8526,153.7182 17.9696,152.9012 C18.0866,152.0852 18.0816,151.4162 18.4066,150.4722 C18.4926,150.2232 19.0366,142.1762 19.3696,140.2432 C19.7026,138.3102 21.7946,131.7102 21.7946,131.7102 L21.3526,130.7262 L19.0446,129.8602 Z" id="Fill-21" fill="#F2B5BC"></path>
                <path d="M20.0456,126.7157 C20.0456,126.7157 22.1366,124.7567 25.5536,124.7567 C28.9706,124.7567 31.6056,126.8027 31.6056,126.8027 C31.6056,126.8027 33.7446,128.6287 33.9176,130.9707 C32.7636,131.7117 30.6256,132.4707 30.6256,132.4707 L30.4426,140.0837 L21.7376,140.0837 L21.4826,132.3097 L17.7256,130.5837 C17.7256,130.5837 18.6396,128.0457 20.0456,126.7157" id="Fill-22" fill="#FF4D4E"></path>
                <path d="M21.3461,193.9969 L24.0231,193.8619 L24.3091,197.2409 L17.9271,197.2409 C19.3241,194.4939 21.3461,193.9969 21.3461,193.9969" id="Fill-23" fill="#263166"></path>
                <path d="M35.6911,193.867 C35.6911,193.867 40.7291,195.188 42.6231,197.152 L33.5561,197.169 L33.8031,193.809 L35.6911,193.867 Z" id="Fill-24" fill="#263166"></path>
                <path d="M23.485,194.3202 C22.987,194.8412 22.027,195.5972 20.625,195.62549 C19.349,195.6502 21.682,194.0492 22.087,193.7772 L19.663,166.7672 L26.031,163.8172 L24.057,194.4242 L23.485,194.3202 Z" id="Fill-25" fill="#F2B5BC"></path>
                <path d="M36.4199,194.0907 L39.7029,195.5157 C37.6909,195.7367 35.6709,194.8957 34.6279,194.3637 L33.9779,194.3637 L27.9889,167.7787 L33.4659,167.5237 C33.4659,167.5237 34.0399,173.5277 34.6989,180.0867 C35.4349,187.3987 36.2319,192.8407 36.4199,194.0907" id="Fill-26" fill="#F2B5BC"></path>
                <path d="M21.8837,139.3602 C21.8837,139.3602 20.3477,140.0712 18.8707,144.4762 C16.8947,150.3722 16.3157,168.2302 16.3157,168.2302 L35.3487,168.2302 L30.4437,139.3872 L21.8837,139.3602 Z" id="Fill-27" fill="#2F2F3D"></path>
                <path d="M29.6857,121.0653 C29.6857,121.1733 29.5977,121.2623 29.4887,121.2623 C29.3797,121.2623 29.2917,121.1733 29.2917,121.0653 C29.2917,120.9563 29.3797,120.8683 29.4887,120.8683 C29.5977,120.8683 29.6857,120.9563 29.6857,121.0653" id="Fill-28" fill="#F58B8D"></path>
                <path d="M22.8474,142.8739 C22.8474,142.8739 19.1964,150.6409 18.8614,166.3079" id="Stroke-29" stroke="#FFFFFF" stroke-width="0.194" stroke-linecap="round" stroke-linejoin="round"></path>
            </g>
        </g>
    </g>
</svg>