<?xml version="1.0" encoding="UTF-8"?>
<svg width="248px" height="198px" viewBox="0 0 248 198" version="1.1" xmlns="http://www.w3.org/2000/svg" xmlns:xlink="http://www.w3.org/1999/xlink">
    <title>结果反馈-失败</title>
    <g id="空状态插画-暗色" stroke="none" stroke-width="1" fill="none" fill-rule="evenodd">
        <g id="结果反馈-失败" transform="translate(-276.000000, -275.000000)">
            <g transform="translate(276.000000, 275.000000)">
                <path d="M247.622,148.9563 C247.622,170.4483 192.19,187.8713 123.811,187.8713 C55.432,187.8713 0,170.4483 0,148.9563 C0,127.4643 55.432,110.0413 123.811,110.0413 C192.19,110.0413 247.622,127.4643 247.622,148.9563" id="Fill-1" fill="#2A2A2B"></path>
                <g id="编组" transform="translate(15.928782, 0.000000)">
                    <path d="M147.427618,138.4202 C147.427618,144.3742 129.109618,149.2002 106.512618,149.2002 C83.9166178,149.2002 65.5976178,144.3742 65.5976178,138.4202 C65.5976178,132.4662 83.9166178,127.6402 106.512618,127.6402 C129.109618,127.6402 147.427618,132.4662 147.427618,138.4202" id="Fill-4" fill="#442320"></path>
                    <path d="M106.512818,113.9 C75.0608178,113.9 49.5628178,88.403 49.5628178,56.95 C49.5628178,25.497 75.0608178,0 106.512818,0 C137.965818,0 163.462818,25.497 163.462818,56.95 C163.462818,88.403 137.965818,113.9 106.512818,113.9 Z" id="Fill-5" fill="#F9513C"></path>
                    <path d="M106.512818,113.9 C75.0608178,113.9 49.5628178,88.403 49.5628178,56.95 C49.5628178,25.497 75.0608178,0 106.512818,0 C137.965818,0 163.462818,25.497 163.462818,56.95 C163.462818,88.403 137.965818,113.9 106.512818,113.9 Z" id="Fill-5备份" fill="#FFFFFF" opacity="0.199999988"></path>
                    <path d="M120.911518,78.2478 L85.2155178,42.5518 C83.3185178,40.6548 83.3185178,37.5508 85.2155178,35.6538 L85.2175178,35.6528 C87.1135178,33.7558 90.2175178,33.7558 92.1145178,35.6528 L127.810518,71.3488 C129.706518,73.2458 129.706518,76.3498 127.810518,78.2458 L127.808518,78.2478 C125.911518,80.1438 122.808518,80.1438 120.911518,78.2478" id="Fill-6" fill="#FFFFFF"></path>
                    <path d="M85.2152178,71.3489 L120.911218,35.6529 C122.808218,33.7559 125.912218,33.7559 127.809218,35.6529 L127.810218,35.6539 C129.707218,37.5509 129.707218,40.6549 127.810218,42.5519 L92.1142178,78.2479 C90.2172178,80.1439 87.1132178,80.1439 85.2172178,78.2479 L85.2152178,78.2459 C83.3192178,76.3489 83.3192178,73.2449 85.2152178,71.3489" id="Fill-7" fill="#FFFFFF"></path>
                    <polygon id="Fill-8" fill="#ACE4B3" points="175.549718 144.719 169.696718 138.416 170.653718 136.953 176.168718 142.806 171.778718 135.828 172.932718 134.871 177.012718 141.624 176.224718 132.677 178.813718 132.114 179.263718 142.806 181.626718 132.114 184.834718 132.733 181.852718 142.131 186.747718 134.196 189.448718 136.559 182.752718 144.719 191.080718 139.261 192.150718 142.637 183.033718 149.503 192.994718 146.013 192.262718 151.191 184.496718 151.754 190.799718 154.511 188.492718 157.381 182.471718 152.935 184.158718 158.957 180.501718 159.575 180.332718 152.091 178.700718 159.575 176.055718 158.844 179.770718 150.797 175.099718 158.9 172.791718 158.338 177.969718 149.953 171.387718 158.056 169.359718 156.143 176.843718 148.884 168.065718 154.061 166.826718 152.091 175.830718 147.533 166.207718 148.94 165.757718 146.52 175.211718 145.844 166.826718 143.65 168.177718 140.611"></polygon>
                    <polygon id="Fill-9" fill="#ACE4B3" points="194.950118 115.344 198.200118 109.013 200.563118 110.828 196.849118 118.51 202.167118 112.98 203.602118 116.441 197.609118 120.999 203.855118 118.636 203.138118 122.181 197.947118 122.645 201.788118 123.616 200.774118 125.262 197.736118 123.194 199.403118 125.853 196.428118 128.175 195.794118 124.165 195.583118 128.807 193.641118 129.483 193.641118 123.11 192.756118 129.483 190.476118 129.694 192.376118 122.603 188.830118 129.061 187.142118 127.584 191.405118 121.802 185.918118 126.064 185.158118 124.503 189.844118 121.084 183.850118 122.434 183.512118 120.704 190.054118 119.353 183.175118 117.581 183.175118 115.935 189.632118 117.623 183.175118 114.711 183.850118 113.234 189.421118 116.061 185.032118 110.617 187.142118 109.013 191.447118 116.061 188.704118 107.916 191.447118 107.029 192.995118 114.373 192.995118 107.029 196.048118 107.536"></polygon>
                    <path d="M197.496918,126.3171 C197.496918,126.3171 203.630918,148.6581 197.496918,159.0691" id="Stroke-10" stroke="#ACE4B3" stroke-width="0.338"></path>
                    <path d="M17.0340178,118.012 C17.1400178,120.557 18.4870178,122.083 18.6120178,124.458 C18.7740178,127.514 17.0220178,127.191 17.1550178,129.698 C17.2230178,130.997 5.64801781,134.134 2.38601781,130.049 C0.292017806,127.427 2.36801781,127.099 2.18001781,123.542 C1.99301781,120.021 4.52901781,119.492 4.43001781,117.636 C4.30001781,115.166 6.28401781,111.874 9.52401781,111.702 C13.4710178,111.492 16.8740178,114.165 17.0340178,118.012" id="Fill-11" fill="#2E64FF"></path>
                    <path d="M11.1351178,123.9885 C11.1351178,123.9885 9.97511781,124.0845 9.46511781,123.8405 L11.1141178,124.7575 L11.1351178,123.9885 Z" id="Fill-12" fill="#CF3E83"></path>
                    <path d="M8.47691781,121.8181 C8.87291781,122.3821 8.76391781,123.1581 8.57991781,123.6181 C8.51791781,123.7761 8.12991781,125.0931 8.06591781,125.1551 C7.81891781,125.3961 11.0629178,126.6101 11.0629178,126.6101 L11.1349178,123.9881 C12.0569178,123.9931 13.1329178,123.8871 13.7049178,123.4621 C15.4069178,122.1941 15.2959178,118.1191 15.2559178,117.9171 L13.6879178,116.3391 C13.6879178,116.3391 11.4009178,115.4271 11.0849178,115.8831 C10.5059178,116.7181 9.24291781,120.3841 8.16791781,120.0311 C8.16791781,120.0311 8.24191781,118.9081 7.30991781,118.9591 C6.61691781,118.9961 6.45791781,119.5631 6.47591781,119.8841 C6.53491781,120.9701 7.94491781,121.0591 8.47691781,121.8181" id="Fill-13" fill="#F2B5BC"></path>
                    <path d="M12.5428178,120.1653 C12.5428178,120.4043 12.4128178,120.5973 12.2518178,120.5973 C12.0908178,120.5963 11.9598178,120.4013 11.9598178,120.1633 C11.9588178,119.9233 12.0888178,119.7303 12.2508178,119.7313 C12.4118178,119.7323 12.5428178,119.9263 12.5428178,120.1653" id="Fill-14" fill="#263166"></path>
                    <path d="M14.5228178,119.8225 C14.5228178,120.0385 14.4058178,120.2125 14.2598178,120.2125 C14.1138178,120.2115 13.9958178,120.0355 13.9958178,119.8205 C13.9958178,119.6045 14.1128178,119.4295 14.2588178,119.4305 C14.4038178,119.4305 14.5228178,119.6065 14.5228178,119.8225" id="Fill-15" fill="#263166"></path>
                    <path d="M13.1610178,115.9685 C13.1820178,116.3545 13.2720178,116.7225 13.4180178,117.0595 C13.4370178,117.1015 13.4570178,117.1455 13.4780178,117.1865 C13.6170178,117.4685 13.7960178,117.7265 14.0070178,117.9545 C14.5750178,118.5675 15.3810178,118.9605 16.2720178,119.0005 C16.3170178,119.0015 16.3620178,119.0035 16.4080178,119.0025 L16.3440178,117.8275 L16.3430178,117.8275 C16.3420178,117.7905 16.3400178,117.7545 16.3380178,117.7185 C16.2590178,116.2675 15.6740178,114.9625 14.7590178,113.9575 C14.5890178,113.7705 14.4070178,113.5945 14.2140178,113.4305 C13.8180178,113.7895 13.5130178,114.2425 13.3340178,114.7515 C13.2010178,115.1315 13.1380178,115.5425 13.1610178,115.9685" id="Fill-16" fill="#2E64FF"></path>
                    <path d="M13.3417178,122.3113 C13.3417178,122.3113 12.7877178,122.4803 12.2547178,121.9463" id="Stroke-17" stroke="#263166" stroke-width="0.141" stroke-linecap="round"></path>
                    <path d="M8.16831781,120.031 C8.16831781,120.031 10.3413178,120.713 13.6183178,115.751 C16.8953178,110.789 6.23731781,115.394 6.23731781,115.394 L8.45731781,117.781 L8.16831781,120.031 Z" id="Fill-18" fill="#2E64FF"></path>
                    <path d="M8.59311781,122.0369 C8.59311781,122.0369 10.4201178,126.2109 3.24611781,127.2849 L8.59311781,122.0369 Z" id="Fill-19" fill="#2E64FF"></path>
                    <path d="M17.1659178,129.8601 C17.1659178,129.8601 19.2159178,137.4601 19.2659178,141.7101 C19.3159178,145.9601 19.0909178,150.1601 19.0909178,150.1601 C19.0909178,150.1601 20.8389178,154.2271 20.0989178,154.7101 C19.6909178,154.9771 19.2409178,154.5101 19.1069178,153.7941 C18.4799178,154.4401 18.3569178,153.7181 18.2409178,152.9021 C18.1239178,152.0851 18.1279178,151.4171 17.8029178,150.4731 C17.7179178,150.2241 17.1739178,142.1771 16.8409178,140.2441 C16.5069178,138.3101 14.0329178,130.5681 14.0329178,130.5681 L14.8569178,130.7271 L17.1659178,129.8601 Z" id="Fill-20" fill="#F2B5BC"></path>
                    <path d="M3.11561781,129.8601 C3.11561781,129.8601 1.06561781,137.4601 1.01561781,141.7101 C0.965617806,145.9601 1.19061781,150.1601 1.19061781,150.1601 C1.19061781,150.1601 -0.557382194,154.2271 0.182617806,154.7101 C0.590617806,154.9771 1.04061781,154.5101 1.17461781,153.7941 C1.80161781,154.4401 1.92461781,153.7181 2.04061781,152.9021 C2.15761781,152.0851 2.15361781,151.4171 2.47861781,150.4731 C2.56361781,150.2241 3.10761781,142.1771 3.44061781,140.2441 C3.77461781,138.3101 5.86561781,131.7101 5.86561781,131.7101 L5.42461781,130.7271 L3.11561781,129.8601 Z" id="Fill-21" fill="#F2B5BC"></path>
                    <path d="M4.11661781,126.7161 C4.11661781,126.7161 6.20861781,124.7581 9.62461781,124.7581 C13.0416178,124.7581 15.6766178,126.8031 15.6766178,126.8031 C15.6766178,126.8031 17.8166178,128.6291 17.9886178,130.9711 C16.8346178,131.7121 14.6966178,132.4711 14.6966178,132.4711 L14.5136178,140.0841 L5.80861781,140.0841 L5.55461781,132.3101 L1.79661781,130.5841 C1.79661781,130.5841 2.71161781,128.0461 4.11661781,126.7161" id="Fill-22" fill="#FF4D4E"></path>
                    <path d="M4.11661781,126.7161 C4.11661781,126.7161 6.20861781,124.7581 9.62461781,124.7581 C13.0416178,124.7581 15.6766178,126.8031 15.6766178,126.8031 C15.6766178,126.8031 17.8166178,128.6291 17.9886178,130.9711 C16.8346178,131.7121 14.6966178,132.4711 14.6966178,132.4711 L14.5136178,140.0841 L5.80861781,140.0841 L5.55461781,132.3101 L1.79661781,130.5841 C1.79661781,130.5841 2.71161781,128.0461 4.11661781,126.7161" id="Fill-22备份" fill="#FFFFFF" opacity="0.149999991"></path>
                    <path d="M5.41731781,193.9968 L8.09431781,193.8628 L8.38031781,197.2418 L1.99831781,197.2418 C3.39531781,194.4948 5.41731781,193.9968 5.41731781,193.9968" id="Fill-23" fill="#263166"></path>
                    <path d="M19.7621178,193.8674 C19.7621178,193.8674 24.8011178,195.1884 26.6951178,197.1524 L17.6271178,197.1684 L17.8741178,193.8094 L19.7621178,193.8674 Z" id="Fill-24" fill="#263166"></path>
                    <path d="M7.55651781,194.3201 C7.05851781,194.8421 6.09851781,195.5981 4.69651781,195.626389 C3.41951781,195.6511 5.75251781,194.0491 6.15851781,193.7781 L3.73451781,166.7681 L10.1025178,163.8181 L8.12751781,194.4251 L7.55651781,194.3201 Z" id="Fill-25" fill="#F2B5BC"></path>
                    <path d="M20.4911178,194.0916 L23.7741178,195.5166 C21.7621178,195.7366 19.7411178,194.8956 18.6991178,194.3636 L18.0491178,194.3636 L12.0601178,167.7796 L17.5371178,167.5236 C17.5371178,167.5236 18.1111178,173.5276 18.7701178,180.0876 C19.5061178,187.3986 20.3031178,192.8406 20.4911178,194.0916" id="Fill-26" fill="#F2B5BC"></path>
                    <path d="M5.95491781,139.3606 C5.95491781,139.3606 4.41891781,140.0716 2.94191781,144.4766 C0.965917806,150.3726 0.386917806,168.2306 0.386917806,168.2306 L19.4199178,168.2306 L14.5149178,139.3876 L5.95491781,139.3606 Z" id="Fill-27" fill="#1B1F22"></path>
                    <path d="M13.7567178,121.0657 C13.7567178,121.1747 13.6687178,121.2627 13.5597178,121.2627 C13.4507178,121.2627 13.3627178,121.1747 13.3627178,121.0657 C13.3627178,120.9567 13.4507178,120.8687 13.5597178,120.8687 C13.6687178,120.8687 13.7567178,120.9567 13.7567178,121.0657" id="Fill-28" fill="#F58B8D"></path>
                    <path d="M6.91881781,142.8743 C6.91881781,142.8743 3.26781781,150.6413 2.93281781,166.3073" id="Stroke-29" stroke="#C5D1DF" stroke-width="0.194" stroke-linecap="round" stroke-linejoin="round"></path>
                </g>
            </g>
        </g>
    </g>
</svg>