<?xml version="1.0" encoding="UTF-8"?>
<svg width="248px" height="247px" viewBox="0 0 248 247" version="1.1" xmlns="http://www.w3.org/2000/svg" xmlns:xlink="http://www.w3.org/1999/xlink">
    <title>结果反馈-信息</title>
    <g id="空状态插画-暗色" stroke="none" stroke-width="1" fill="none" fill-rule="evenodd">
        <g id="结果反馈-信息" transform="translate(-276.000000, -220.000000)">
            <g transform="translate(276.000000, 220.000000)">
                <polygon id="Fill-1" fill="#292C2F" points="182.948 155.159 232.619 155.159 232.619 31.946 182.948 31.946"></polygon>
                <polygon id="Fill-2" fill="#292C2F" points="119.67 155.159 169.341 155.159 169.341 72.674 119.67 72.674"></polygon>
                <polygon id="Fill-3" fill="#373B3F" points="156.803 155.159 206.474 155.159 206.474 0 156.803 0"></polygon>
                <path d="M167.9,29.892 L195.379,29.892 L195.379,24.496 L167.9,24.496 L167.9,29.892 Z M167.9,44.153 L195.379,44.153 L195.379,38.757 L167.9,38.757 L167.9,44.153 Z M167.9,58.413 L195.379,58.413 L195.379,53.017 L167.9,53.017 L167.9,58.413 Z M167.9,72.674 L195.379,72.674 L195.379,67.278 L167.9,67.278 L167.9,72.674 Z M167.9,86.934 L195.379,86.934 L195.379,81.538 L167.9,81.538 L167.9,86.934 Z M167.9,101.194 L195.379,101.194 L195.379,95.798 L167.9,95.798 L167.9,101.194 Z M167.9,115.455 L195.379,115.455 L195.379,110.059 L167.9,110.059 L167.9,115.455 Z M167.9,129.715 L195.379,129.715 L195.379,124.319 L167.9,124.319 L167.9,129.715 Z" id="形状结合" fill="#292C2F"></path>
                <path d="M247.622,194.3294 C247.622,215.8214 192.19,233.2444 123.811,233.2444 C55.433,233.2444 0,215.8214 0,194.3294 C0,172.8374 55.433,155.4144 123.811,155.4144 C192.19,155.4144 247.622,172.8374 247.622,194.3294" id="Fill-12" fill="#2A2A2B"></path>
                <g id="编组" transform="translate(22.904400, 45.373100)">
                    <path d="M140.452,138.4202 C140.452,144.3742 122.134,149.2002 99.537,149.2002 C76.94,149.2002 58.622,144.3742 58.622,138.4202 C58.622,132.4662 76.94,127.6402 99.537,127.6402 C122.134,127.6402 140.452,132.4662 140.452,138.4202" id="Fill-15" fill="#14284A"></path>
                    <path d="M156.4872,56.95 C156.4872,88.403 130.9902,113.9 99.5372,113.9 C68.0852,113.9 42.5882,88.403 42.5882,56.95 C42.5882,25.497 68.0852,2.84217094e-14 99.5372,2.84217094e-14 C130.9902,2.84217094e-14 156.4872,25.497 156.4872,56.95" id="Fill-16" fill="#6DA9FF"></path>
                    <path d="M156.4872,56.95 C156.4872,88.403 130.9902,113.9 99.5372,113.9 C68.0852,113.9 42.5882,88.403 42.5882,56.95 C42.5882,25.497 68.0852,2.84217094e-14 99.5372,2.84217094e-14 C130.9902,2.84217094e-14 156.4872,25.497 156.4872,56.95" id="Fill-16备份" fill="#FFFFFF" opacity="0.199999988"></path>
                    <path d="M21.1209,130.3069 C21.1209,130.3069 18.1959,119.5069 6.0829,118.5319 C6.0829,118.5319 11.7079,115.7199 19.8839,120.6319 C19.8839,120.6319 17.0589,114.5069 17.5959,103.6439 C17.5959,103.6439 22.1709,117.4069 25.0959,121.2689 C25.0959,121.2689 24.0459,110.9189 29.2209,102.1069 C29.2209,102.1069 27.7959,118.0439 29.2209,120.7439 C29.2209,120.7439 36.6079,117.3689 42.1579,119.3189 C42.1579,119.3189 32.5959,121.8689 31.2459,130.3069 L21.1209,130.3069 Z" id="Fill-17" fill="#6BD6A5"></path>
                    <path d="M10.579,132.8904 C10.579,132.8904 8.521,125.2924 0,124.6064 C0,124.6064 3.957,122.6274 9.709,126.0834 C9.709,126.0834 7.721,121.7744 8.1,114.1324 C8.1,114.1324 11.317,123.8144 13.376,126.5324 C13.376,126.5324 12.637,119.2504 16.277,113.0514 C16.277,113.0514 15.275,124.2634 16.277,126.1624 C16.277,126.1624 21.475,123.7884 25.38,125.1604 C25.38,125.1604 18.652,126.9544 17.702,132.8904 L10.579,132.8904 Z" id="Fill-18" fill="#6BD6A5"></path>
                    <path d="M23.952,130.3069 C23.952,130.3069 21.983,117.5949 6.083,118.5319" id="Stroke-19" stroke="#FFFFFF" stroke-width="0.581" stroke-linecap="round" stroke-linejoin="round"></path>
                    <path d="M9.8709,121.4568 C9.8709,121.4568 15.2329,122.9948 16.3579,127.5688" id="Stroke-20" stroke="#6BD6A5" stroke-width="0.3" stroke-linecap="round"></path>
                    <path d="M13.5086,110.5349 C13.5086,111.2189 12.9536,111.7719 12.2706,111.7719 C11.5866,111.7719 11.0326,111.2189 11.0326,110.5349 C11.0326,109.8509 11.5866,109.2979 12.2706,109.2979 C12.9536,109.2979 13.5086,109.8509 13.5086,110.5349 Z" id="Stroke-21" stroke="#6BD6A5" stroke-width="0.3"></path>
                    <path d="M13.1141,111.4382 C13.1141,111.4382 18.2981,117.1432 20.1951,120.6122" id="Stroke-22" stroke="#6BD6A5" stroke-width="0.3" stroke-linecap="round"></path>
                    <path d="M94.659,86.9915 L94.659,45.6685 C94.659,43.2185 96.663,41.2145 99.113,41.2145 L99.962,41.2145 C102.411,41.2145 104.416,43.2185 104.416,45.6685 L104.416,86.9915 C104.416,89.4405 102.411,91.4455 99.962,91.4455 L99.113,91.4455 C96.663,91.4455 94.659,89.4405 94.659,86.9915" id="Fill-23" fill="#FFFFFF"></path>
                    <path d="M99.537,50.971 L85.672,50.971 C82.989,50.971 80.794,48.776 80.794,46.093 C80.794,43.409 82.989,41.215 85.672,41.215 L99.537,41.215 C102.221,41.215 104.416,43.409 104.416,46.093 C104.416,48.776 102.221,50.971 99.537,50.971" id="Fill-24" fill="#FFFFFF"></path>
                    <path d="M110.4286,91.4451 L85.6716,91.4451 C82.9886,91.4451 80.7936,89.2501 80.7936,86.5671 C80.7936,83.8831 82.9886,81.6881 85.6716,81.6881 L110.4286,81.6881 C113.1116,81.6881 115.3066,83.8831 115.3066,86.5671 C115.3066,89.2501 113.1116,91.4451 110.4286,91.4451" id="Fill-25" fill="#FFFFFF"></path>
                    <path d="M94.659,27.3308 L94.659,27.3308 C94.659,24.6488 96.853,22.4558 99.535,22.4558 L99.54,22.4558 C102.221,22.4558 104.416,24.6488 104.416,27.3308 C104.416,30.0128 102.221,32.2058 99.54,32.2058 L99.535,32.2058 C96.853,32.2058 94.659,30.0128 94.659,27.3308" id="Fill-26" fill="#FFFFFF"></path>
                    <path d="M187.1307,188.8953 C187.1307,188.8953 187.5007,195.0193 187.4227,195.4853 C187.3447,195.9523 185.4587,197.6043 185.4587,197.6043 L188.9587,198.6733 L191.8557,196.1843 L191.8557,187.5933 L187.1307,188.8953 Z" id="Fill-27" fill="#F2B5BC"></path>
                    <path d="M188.0174,199.717 C188.9354,199.659 191.1414,199.479 191.5084,198.918 C191.8754,198.356 191.9844,197.789 191.8554,195.779 C190.7324,196.448 190.2194,197.73 188.0174,197.74 C186.1164,197.75 185.0174,197.073 185.0384,198.391 C185.0604,199.709 185.2254,199.893 188.0174,199.717" id="Fill-28" fill="#263166"></path>
                    <path d="M199.2118,190.3147 L200.4688,197.6447 L202.6978,199.5287 L205.5358,198.4667 C205.5358,198.4667 204.6548,197.5597 204.4868,196.3537 C204.3178,195.1487 203.6698,188.1637 203.6698,188.1637 L199.2118,190.3147 Z" id="Fill-29" fill="#F2B5BC"></path>
                    <path d="M200.2577,196.4133 C200.2577,196.4133 199.9657,199.4383 200.9877,200.0733 C201.8407,200.6033 204.3037,200.9483 206.1997,200.2033 C206.1997,199.2313 206.2477,198.5943 206.0307,198.3453 C205.8157,198.0973 204.8167,197.4023 204.8167,197.4023 C204.8167,197.4023 205.3607,198.3373 205.0177,198.4163 C204.4287,198.5543 200.8087,198.7353 200.2577,196.4133" id="Fill-30" fill="#263166"></path>
                    <path d="M188.0174,199.717 C188.9354,199.659 191.1414,199.479 191.5084,198.918 C191.8754,198.356 191.9844,197.789 191.8554,195.779 C190.7324,196.448 190.2194,197.73 188.0174,197.74 C186.1164,197.75 185.0174,197.073 185.0384,198.391 C185.0604,199.709 185.2254,199.893 188.0174,199.717" id="Fill-28备份" fill="#FFFFFF" opacity="0.149999991"></path>
                    <path d="M200.2577,196.4133 C200.2577,196.4133 199.9657,199.4383 200.9877,200.0733 C201.8407,200.6033 204.3037,200.9483 206.1997,200.2033 C206.1997,199.2313 206.2477,198.5943 206.0307,198.3453 C205.8157,198.0973 204.8167,197.4023 204.8167,197.4023 C204.8167,197.4023 205.3607,198.3373 205.0177,198.4163 C204.4287,198.5543 200.8087,198.7353 200.2577,196.4133" id="Fill-30备份" fill="#FFFFFF" opacity="0.149999991"></path>
                    <path d="M193.3133,115.8538 C193.3133,115.8538 196.2723,115.6698 197.3963,118.6188 C198.0503,121.6868 197.6973,124.6418 198.1043,125.9228 C198.5113,127.2048 201.1623,128.6158 200.6283,130.6458 C200.0953,132.6768 199.8943,132.7918 199.8943,132.7918 L186.1273,132.8778 C186.1273,132.8778 184.7463,132.0718 184.9903,128.3858 C185.2353,124.6988 186.4313,123.6908 186.3953,122.5968 C186.3583,121.5018 185.1773,121.3438 186.7043,119.7598 C188.2303,118.1758 193.3133,115.8538 193.3133,115.8538" id="Fill-31" fill="#2437A8"></path>
                    <polygon id="Fill-32" fill="#F2B5BC" points="187.2489 129.134 190.8929 127.771 193.5399 127.559 197.1079 128.468 194.8739 133.778 188.6429 131.449"></polygon>
                    <polygon id="Fill-33" fill="#F2B5BC" points="190.2196 131.1919 193.8476 131.1919 193.8476 126.4879 190.2196 126.4879"></polygon>
                    <path d="M186.6112,121.0169 C186.3262,120.7919 186.1682,120.1039 186.4802,119.4609 C186.7942,118.8189 186.9312,118.6279 187.1222,118.1469 C187.4642,117.2819 188.8482,114.9459 191.5892,115.1289 C194.1372,115.2999 193.7492,117.0769 193.7492,117.0769 C193.7492,117.0769 193.8682,117.3609 191.5562,117.6349 C190.6932,117.7369 190.2822,118.1929 188.9542,119.8319 C187.6262,121.4729 186.7962,121.1619 186.6112,121.0169" id="Fill-34" fill="#2437A8"></path>
                    <path d="M198.2831,151.176 C198.2831,151.176 193.3671,153.451 188.6431,151.176 L188.9861,128.418 L192.6871,130.986 L196.3221,128.218 L201.2351,132.686 L198.9251,139.724 L198.2831,151.176 Z" id="Fill-35" fill="#E3EAF0"></path>
                    <path d="M190.0907,131.4358 C190.0907,131.4358 188.4497,132.2388 188.5147,132.6698 C188.5797,133.1028 190.9987,138.9558 190.9987,138.9558" id="Stroke-36" stroke="#F2B5BC" stroke-width="0.311"></path>
                    <path d="M189.4247,132.5994 C189.4677,132.6814 189.6437,132.6724 189.8187,132.5804 C189.9917,132.4884 190.0977,132.3474 190.0547,132.2664 C190.0117,132.1834 189.8347,132.1924 189.6607,132.2844 C189.4867,132.3764 189.3817,132.5174 189.4247,132.5994" id="Fill-37" fill="#F2B5BC"></path>
                    <path d="M194.1209,134.3186 C194.1209,134.4706 193.9969,134.5946 193.8449,134.5946 C193.6919,134.5946 193.5679,134.4706 193.5679,134.3186 C193.5679,134.1656 193.6919,134.0426 193.8449,134.0426 C193.9969,134.0426 194.1209,134.1656 194.1209,134.3186" id="Fill-38" fill="#C5D1DF"></path>
                    <path d="M194.2069,137.1795 C194.2069,137.3325 194.0839,137.4555 193.9309,137.4555 C193.7779,137.4555 193.6539,137.3325 193.6539,137.1795 C193.6539,137.0275 193.7779,136.9035 193.9309,136.9035 C194.0839,136.9035 194.2069,137.0275 194.2069,137.1795" id="Fill-39" fill="#C5D1DF"></path>
                    <path d="M194.3241,140.1121 C194.3241,140.2641 194.2001,140.3881 194.0481,140.3881 C193.8951,140.3881 193.7711,140.2641 193.7711,140.1121 C193.7711,139.9591 193.8951,139.8361 194.0481,139.8361 C194.2001,139.8361 194.3241,139.9591 194.3241,140.1121" id="Fill-40" fill="#C5D1DF"></path>
                    <path d="M194.3241,142.929 C194.3241,143.082 194.2001,143.205 194.0481,143.205 C193.8951,143.205 193.7711,143.082 193.7711,142.929 C193.7711,142.777 193.8951,142.653 194.0481,142.653 C194.2001,142.653 194.3241,142.777 194.3241,142.929" id="Fill-41" fill="#C5D1DF"></path>
                    <path d="M194.3241,145.9187 C194.3241,146.0717 194.2001,146.1947 194.0481,146.1947 C193.8951,146.1947 193.7711,146.0717 193.7711,145.9187 C193.7711,145.7667 193.8951,145.6427 194.0481,145.6427 C194.2001,145.6427 194.3241,145.7667 194.3241,145.9187" id="Fill-42" fill="#C5D1DF"></path>
                    <path d="M193.1131,133.218 C193.1131,133.218 193.6561,143.722 193.1571,148.975" id="Stroke-43" stroke="#C5D1DF" stroke-width="0.108"></path>
                    <path d="M192.9051,157.1912 L198.5791,189.7522 C198.5791,189.7522 198.6941,190.7892 200.3071,190.5302 C201.9201,190.2712 204.2531,189.9542 204.3101,189.3492 C204.3681,188.7442 201.6611,150.7572 201.6611,150.7572 L183.5751,151.0312 L186.3971,188.3342 C186.3971,188.3342 186.4401,189.3492 188.3621,189.3922 C190.2851,189.4352 192.1851,189.2842 192.2081,188.7442 C192.2291,188.2042 192.9051,157.1912 192.9051,157.1912" id="Fill-44" fill="#2E64FF"></path>
                    <path d="M192.9051,157.1912 L198.5791,189.7522 C198.5791,189.7522 198.6941,190.7892 200.3071,190.5302 C201.9201,190.2712 204.2531,189.9542 204.3101,189.3492 C204.3681,188.7442 201.6611,150.7572 201.6611,150.7572 L183.5751,151.0312 L186.3971,188.3342 C186.3971,188.3342 186.4401,189.3492 188.3621,189.3922 C190.2851,189.4352 192.1851,189.2842 192.2081,188.7442 C192.2291,188.2042 192.9051,157.1912 192.9051,157.1912" id="Fill-44备份" fill="#FFFFFF" opacity="0.149999991"></path>
                    <path d="M204.3114,157.2732 C204.3114,157.2732 203.1804,162.3272 201.8194,162.7382 C200.4584,163.1482 200.4374,157.8712 200.4374,157.8712 L202.7264,154.8972 L204.3114,157.2732 Z" id="Fill-45" fill="#F2B5BC"></path>
                    <path d="M189.1571,128.2991 C189.1571,128.2991 184.0151,130.1981 183.5181,131.1491 C183.0211,132.0991 181.2321,136.3391 181.2321,136.3391 L177.0211,138.3301 L178.1451,144.8961 C178.1451,144.8961 178.6491,148.6581 181.5011,148.7701 C183.3451,148.8421 183.9591,146.6321 184.1651,145.6431 C184.4841,144.1131 185.9651,139.6911 185.9651,139.6911 C185.9651,139.6911 185.8821,145.3191 182.2311,151.4311 C182.2311,151.4311 188.3621,153.6011 189.4421,151.4631 C190.5221,149.3241 191.6891,140.4681 191.5381,137.7251 C191.3861,134.9821 191.4611,130.7201 189.1571,128.2991" id="Fill-46" fill="#FF8227"></path>
                    <path d="M196.0555,128.1213 C196.0555,128.1213 201.3445,129.5603 202.5105,131.4173 C203.6765,133.2753 207.0755,139.9573 206.4425,147.9923 C205.8085,156.0273 204.6855,157.8713 204.6855,157.8713 L200.3935,156.5683 C200.3935,156.5683 202.8415,144.8533 200.3935,140.3313 C200.0195,143.7873 200.3355,145.5563 203.5615,151.8343 C203.5615,151.8343 198.9825,154.7313 197.7155,152.0813 C196.4485,149.4323 196.7745,136.4023 196.5925,134.3123 C196.3625,131.6633 195.7525,128.4673 196.0555,128.1213" id="Fill-47" fill="#FF8227"></path>
                    <path d="M189.1571,128.2991 C189.1571,128.2991 184.0151,130.1981 183.5181,131.1491 C183.0211,132.0991 181.2321,136.3391 181.2321,136.3391 L177.0211,138.3301 L178.1451,144.8961 C178.1451,144.8961 178.6491,148.6581 181.5011,148.7701 C183.3451,148.8421 183.9591,146.6321 184.1651,145.6431 C184.4841,144.1131 185.9651,139.6911 185.9651,139.6911 C185.9651,139.6911 185.8821,145.3191 182.2311,151.4311 C182.2311,151.4311 188.3621,153.6011 189.4421,151.4631 C190.5221,149.3241 191.6891,140.4681 191.5381,137.7251 C191.3861,134.9821 191.4611,130.7201 189.1571,128.2991" id="Fill-46备份" fill="#FFFFFF" opacity="0.199999988"></path>
                    <path d="M196.0555,128.1213 C196.0555,128.1213 201.3445,129.5603 202.5105,131.4173 C203.6765,133.2753 207.0755,139.9573 206.4425,147.9923 C205.8085,156.0273 204.6855,157.8713 204.6855,157.8713 L200.3935,156.5683 C200.3935,156.5683 202.8415,144.8533 200.3935,140.3313 C200.0195,143.7873 200.3355,145.5563 203.5615,151.8343 C203.5615,151.8343 198.9825,154.7313 197.7155,152.0813 C196.4485,149.4323 196.7745,136.4023 196.5925,134.3123 C196.3625,131.6633 195.7525,128.4673 196.0555,128.1213" id="Fill-47备份" fill="#FFFFFF" opacity="0.199999988"></path>
                    <path d="M196.3543,129.8411 C196.3543,129.8411 199.5733,131.5261 199.5083,131.9581 C199.4433,132.3901 197.0243,138.2431 197.0243,138.2431" id="Stroke-48" stroke="#FFFFFF" stroke-width="0.209" stroke-linecap="round" stroke-linejoin="round"></path>
                    <path d="M185.9149,145.429 L187.7869,145.076 C187.7869,145.076 188.0239,147.114 185.3819,147.913" id="Stroke-49" stroke="#FFFFFF" stroke-width="0.209" stroke-linecap="round" stroke-linejoin="round"></path>
                    <path d="M177.1141,138.572 C177.1141,138.572 175.2281,133.656 175.8891,132.202 C176.5511,130.747 177.9301,131.01 180.5551,132.652 C180.5551,132.652 180.8371,132.905 180.5551,133.527 C180.2731,134.149 181.5831,137.179 181.5831,137.179 C181.5831,137.179 182.4041,139.009 180.0711,139.631 C177.7381,140.253 177.1141,138.572 177.1141,138.572" id="Fill-50" fill="#F2B5BC"></path>
                    <path d="M176.6961,133.8088 C176.6961,133.8088 176.3271,132.3708 177.1821,131.7878" id="Stroke-51" stroke="#F58B8D" stroke-width="0.212" stroke-linecap="round"></path>
                    <path d="M177.8729,133.8088 C177.8729,133.8088 177.5219,132.5098 178.3009,132.2018" id="Stroke-52" stroke="#F58B8D" stroke-width="0.212" stroke-linecap="round"></path>
                    <path d="M179.0682,133.8088 C179.0682,133.8088 179.0292,132.7008 179.5842,132.6428" id="Stroke-53" stroke="#F58B8D" stroke-width="0.212" stroke-linecap="round"></path>
                    <path d="M184.0926,144.4353 C184.0926,144.4353 183.3726,140.2213 183.2296,139.7223" id="Stroke-54" stroke="#FFFFFF" stroke-width="0.209" stroke-linecap="round" stroke-linejoin="round"></path>
                    <path d="M185.8934,139.1795 C185.8934,139.1795 185.8464,136.9035 184.8134,136.0405" id="Stroke-55" stroke="#FFFFFF" stroke-width="0.209" stroke-linecap="round" stroke-linejoin="round"></path>
                    <path d="M192.034,127.2952 L192.034,127.2952 C189.906,127.2952 188.165,125.5542 188.165,123.4262 L188.165,121.2542 C188.165,119.1272 189.906,117.3862 192.034,117.3862 C194.161,117.3862 195.902,119.1272 195.902,121.2542 L195.902,123.4262 C195.902,125.5542 194.161,127.2952 192.034,127.2952" id="Fill-56" fill="#F2B5BC"></path>
                    <path d="M187.5272,123.7039 C187.6652,124.1799 188.0602,124.4829 188.4132,124.3809 C188.7642,124.2799 188.9392,123.8119 188.8022,123.3369 C188.6662,122.8609 188.2692,122.5579 187.9172,122.6599 C187.5652,122.7609 187.3902,123.2279 187.5272,123.7039" id="Fill-57" fill="#F2B5BC"></path>
                    <path d="M196.5877,123.7039 C196.4497,124.1799 196.0547,124.4829 195.7017,124.3809 C195.3507,124.2799 195.1757,123.8119 195.3127,123.3369 C195.4487,122.8609 195.8457,122.5579 196.1977,122.6599 C196.5497,122.7609 196.7247,123.2279 196.5877,123.7039" id="Fill-58" fill="#F2B5BC"></path>
                    <path d="M190.5809,123.5901 L190.5809,123.5901 C190.4489,123.5901 190.3409,123.4821 190.3409,123.3501 L190.3409,123.0181 C190.3409,122.8861 190.4489,122.7781 190.5809,122.7781 C190.7129,122.7781 190.8199,122.8861 190.8199,123.0181 L190.8199,123.3501 C190.8199,123.4821 190.7129,123.5901 190.5809,123.5901" id="Fill-59" fill="#263166"></path>
                    <path d="M194.4989,121.6951 C194.4989,121.6951 194.1109,121.6041 193.8249,121.5711 C193.5659,121.5411 193.1489,121.5571 193.1489,121.5571 C193.0179,121.5431 192.9359,121.4511 192.9449,121.3551 C192.9549,121.2591 193.0769,121.1151 193.8859,121.1981 C194.6469,121.2761 194.7539,121.4411 194.7439,121.5361 C194.7339,121.6321 194.6309,121.7091 194.4989,121.6951" id="Fill-60" fill="#263166"></path>
                    <path d="M189.5301,121.6951 C189.5301,121.6951 189.9181,121.6041 190.2031,121.5711 C190.4621,121.5411 190.8791,121.5571 190.8791,121.5571 C191.0101,121.5431 191.0921,121.4511 191.0831,121.3551 C191.0731,121.2591 190.9511,121.1151 190.1431,121.1981 C189.3821,121.2761 189.2751,121.4411 189.2851,121.5361 C189.2951,121.6321 189.3971,121.7091 189.5301,121.6951" id="Fill-61" fill="#263166"></path>
                    <path d="M193.6493,123.5901 L193.6493,123.5901 C193.5173,123.5901 193.4103,123.4821 193.4103,123.3501 L193.4103,123.0181 C193.4103,122.8861 193.5173,122.7781 193.6493,122.7781 C193.7813,122.7781 193.8893,122.8861 193.8893,123.0181 L193.8893,123.3501 C193.8893,123.4821 193.7813,123.5901 193.6493,123.5901" id="Fill-62" fill="#263166"></path>
                    <path d="M192.704,125.2459 C192.511,125.3779 192.268,125.4559 192.004,125.4559 C191.607,125.4559 191.258,125.2789 191.056,125.0109" id="Stroke-63" stroke="#263166" stroke-width="0.216" stroke-linecap="round" stroke-linejoin="round"></path>
                    <path d="M199.4432,145.9187 C199.4432,145.9187 199.7892,147.6287 200.6852,148.3847" id="Stroke-64" stroke="#FFFFFF" stroke-width="0.209" stroke-linecap="round" stroke-linejoin="round"></path>
                    <path d="M195.9979,121.7659 C195.9979,121.7659 192.3629,121.4689 191.0079,119.0659 C191.0079,119.0659 190.7359,121.3009 188.1179,122.2459 L187.2399,118.7479 L191.4539,115.9089 L196.7799,118.9579 L195.9979,121.7659 Z" id="Fill-65" fill="#2437A8"></path>
                    <path d="M192.1961,123.8137 C192.1961,123.8907 192.1341,123.9527 192.0571,123.9527 C191.9811,123.9527 191.9191,123.8907 191.9191,123.8137 C191.9191,123.7367 191.9811,123.6747 192.0571,123.6747 C192.1341,123.6747 192.1961,123.7367 192.1961,123.8137" id="Fill-66" fill="#F58B8D"></path>
                </g>
            </g>
        </g>
    </g>
</svg>