<svg id="图层_1" data-name="图层 1" xmlns="http://www.w3.org/2000/svg" viewBox="0 0 800 800"><defs><style>.cls-1{fill:#c5d1df;}.cls-2{fill:#e3eaf0;}.cls-3{fill:#fcf8f5;}.cls-4{fill:#d3d9f1;}.cls-5{fill:#6da9ff;}.cls-6{fill:#6bd6a5;}.cls-14,.cls-15,.cls-18,.cls-19,.cls-20,.cls-7,.cls-8,.cls-9{fill:none;}.cls-18,.cls-7{stroke:#fff;}.cls-18,.cls-19,.cls-20,.cls-7,.cls-8{stroke-linecap:round;}.cls-18,.cls-20,.cls-7{stroke-linejoin:round;}.cls-7{stroke-width:0.58px;}.cls-8,.cls-9{stroke:#6bd6a5;stroke-width:0.3px;}.cls-14,.cls-15,.cls-19,.cls-8,.cls-9{stroke-miterlimit:10;}.cls-10{fill:#fff;}.cls-11{fill:#f2b5bc;}.cls-12{fill:#263166;}.cls-13{fill:#2437a8;}.cls-14{stroke:#f2b5bc;stroke-width:0.31px;}.cls-15{stroke:#c5d1df;stroke-width:0.11px;}.cls-16{fill:#2e64ff;}.cls-17{fill:#ff8227;}.cls-18{stroke-width:0.21px;}.cls-19{stroke:#f58b8d;stroke-width:0.21px;}.cls-20{stroke:#263166;stroke-width:0.22px;}.cls-21{fill:#f58b8d;}</style></defs><rect class="cls-1" x="482.75" y="251.48" width="49.67" height="123.21"/><rect class="cls-1" x="419.47" y="292.21" width="49.67" height="82.49"/><rect class="cls-2" x="456.6" y="219.53" width="49.67" height="155.16"/><rect class="cls-1" x="467.7" y="244.03" width="27.48" height="5.4"/><rect class="cls-1" x="467.7" y="258.29" width="27.48" height="5.4"/><rect class="cls-1" x="467.7" y="272.55" width="27.48" height="5.4"/><rect class="cls-1" x="467.7" y="286.81" width="27.48" height="5.4"/><rect class="cls-1" x="467.7" y="301.07" width="27.48" height="5.4"/><rect class="cls-1" x="467.7" y="315.33" width="27.48" height="5.4"/><rect class="cls-1" x="467.7" y="329.59" width="27.48" height="5.4"/><rect class="cls-1" x="467.7" y="343.85" width="27.48" height="5.4"/><ellipse class="cls-3" cx="423.61" cy="413.86" rx="123.81" ry="38.92"/><ellipse class="cls-4" cx="422.24" cy="403.33" rx="40.91" ry="10.78"/><circle class="cls-5" cx="422.24" cy="321.86" r="56.95"/><path class="cls-6" d="M343.82,395.21a16.94,16.94,0,0,0-15-11.77s5.62-2.81,13.8,2.1c0,0-2.83-6.13-2.29-17,0,0,4.57,13.76,7.5,17.63,0,0-1.05-10.35,4.12-19.17,0,0-1.42,15.94,0,18.64,0,0,7.39-3.37,12.94-1.42,0,0-9.56,2.55-10.91,11Z"/><path class="cls-6" d="M333.28,397.8a11.93,11.93,0,0,0-10.58-8.29s4-2,9.71,1.48c0,0-2-4.31-1.61-11.95,0,0,3.22,9.68,5.28,12.4,0,0-.74-7.28,2.9-13.48,0,0-1,11.21,0,13.11,0,0,5.2-2.37,9.1-1,0,0-6.72,1.79-7.67,7.73Z"/><path class="cls-7" d="M346.66,395.21s-2-12.71-17.87-11.77"/><path class="cls-8" d="M332.57,386.36s5.37,1.54,6.49,6.12"/><circle class="cls-9" cx="334.97" cy="375.44" r="1.24"/><path class="cls-8" d="M335.82,376.35s5.18,5.7,7.08,9.17"/><rect class="cls-10" x="397.13" y="326.36" width="50.23" height="9.76" rx="4.45" transform="translate(753.48 -91) rotate(90)"/><rect class="cls-10" x="403.5" y="306.12" width="23.62" height="9.76" rx="4.88"/><rect class="cls-10" x="403.5" y="346.6" width="34.51" height="9.76" rx="4.88"/><rect class="cls-10" x="417.37" y="287.36" width="9.75" height="9.76" rx="4.88" transform="translate(714.48 -130) rotate(90)"/><path class="cls-11" d="M509.84,453.8s.36,6.13.29,6.59-2,2.12-2,2.12l3.5,1.07,2.9-2.49V452.5Z"/><path class="cls-12" d="M510.72,464.62c.92-.05,3.13-.23,3.49-.8s.48-1.12.35-3.13c-1.12.67-1.64,1.95-3.84,2-1.9,0-3-.67-3,.65S507.93,464.8,510.72,464.62Z"/><path class="cls-11" d="M521.92,455.22l1.25,7.33,2.23,1.89,2.84-1.07a4.23,4.23,0,0,1-1-2.11c-.17-1.2-.82-8.19-.82-8.19Z"/><path class="cls-12" d="M523,461.32s-.29,3,.73,3.66a7,7,0,0,0,5.21.13c0-1,.05-1.61-.16-1.86a12.1,12.1,0,0,0-1.22-.94s.54.93.2,1C527.13,463.46,523.51,463.64,523,461.32Z"/><path class="cls-13" d="M516,380.76a4.24,4.24,0,0,1,4.08,2.77c.66,3.06.3,6,.71,7.3s3.06,2.69,2.52,4.72-.73,2.15-.73,2.15l-13.77.09s-1.38-.81-1.14-4.5,1.45-4.69,1.41-5.79-1.22-1.25.31-2.83S516,380.76,516,380.76Z"/><polygon class="cls-11" points="509.95 394.04 513.6 392.68 516.24 392.47 519.81 393.38 517.58 398.69 511.35 396.36 509.95 394.04"/><rect class="cls-11" x="512.92" y="391.4" width="3.63" height="4.7"/><path class="cls-13" d="M509.32,385.92a1.36,1.36,0,0,1-.14-1.55,14.2,14.2,0,0,0,.65-1.32,4.64,4.64,0,0,1,4.46-3c2.55.17,2.16,1.94,2.16,1.94s.12.29-2.19.56c-.86.1-1.27.56-2.6,2.2S509.5,386.07,509.32,385.92Z"/><path class="cls-2" d="M521,416.08s-4.92,2.28-9.64,0l.34-22.75,3.7,2.56,3.64-2.76,4.91,4.46-2.31,7Z"/><path class="cls-14" d="M512.8,396.34s-1.65.81-1.58,1.24,2.48,6.28,2.48,6.28"/><ellipse class="cls-11" cx="512.44" cy="397.34" rx="0.36" ry="0.17" transform="translate(-126.36 285.93) rotate(-27.9)"/><circle class="cls-1" cx="516.55" cy="399.23" r="0.28"/><circle class="cls-1" cx="516.64" cy="402.09" r="0.28"/><circle class="cls-1" cx="516.75" cy="405.02" r="0.28"/><circle class="cls-1" cx="516.75" cy="407.84" r="0.28"/><circle class="cls-1" cx="516.75" cy="410.83" r="0.28"/><path class="cls-15" d="M515.82,398.12s.54,10.51,0,15.76"/><path class="cls-16" d="M515.61,422.1l5.67,32.56s.12,1,1.73.78,4-.58,4-1.18-2.64-38.6-2.64-38.6l-18.09.28,2.82,37.3s0,1,2,1.06,3.82-.11,3.84-.65S515.61,422.1,515.61,422.1Z"/><path class="cls-11" d="M527,422.18s-1.14,5.05-2.5,5.46-1.38-4.86-1.38-4.86l2.29-3Z"/><path class="cls-17" d="M511.86,393.21s-5.14,1.9-5.64,2.85-2.28,5.19-2.28,5.19l-4.21,2,1.12,6.56s.5,3.77,3.36,3.88c1.84.07,2.45-2.14,2.66-3.13.32-1.53,1.8-5.95,1.8-5.95a26,26,0,0,1-3.73,11.74s6.13,2.17,7.21,0,2.24-11,2.09-13.74S514.17,395.63,511.86,393.21Z"/><path class="cls-17" d="M518.76,393s5.29,1.44,6.45,3.29a29.27,29.27,0,0,1,3.94,16.58c-.64,8-1.76,9.88-1.76,9.88l-4.29-1.3s2.45-11.72,0-16.24c-.38,3.45-.06,5.22,3.17,11.5,0,0-4.58,2.9-5.85.25s-.94-15.68-1.12-17.77C519.07,396.57,518.46,393.37,518.76,393Z"/><path class="cls-18" d="M519.06,394.75s3.22,1.68,3.15,2.11-2.48,6.29-2.48,6.29"/><path class="cls-18" d="M508.62,410.34l1.87-.36s.24,2-2.4,2.84"/><path class="cls-11" d="M499.82,403.48s-1.89-4.92-1.23-6.37,2.05-1.19,4.67.45c0,0,.28.25,0,.87s1,3.66,1,3.66.82,1.83-1.51,2.45S499.82,403.48,499.82,403.48Z"/><path class="cls-19" d="M499.4,398.72s-.37-1.44.49-2"/><path class="cls-19" d="M500.58,398.72s-.35-1.3.42-1.61"/><path class="cls-19" d="M501.77,398.72s0-1.11.52-1.17"/><path class="cls-18" d="M506.8,409.34s-.72-4.21-.87-4.71"/><path class="cls-18" d="M508.6,404.09s-.05-2.28-1.08-3.14"/><rect class="cls-11" x="510.87" y="382.29" width="7.74" height="9.91" rx="3.87"/><ellipse class="cls-11" cx="510.87" cy="388.43" rx="0.66" ry="0.9" transform="translate(-87.53 156.53) rotate(-16.06)"/><ellipse class="cls-11" cx="518.65" cy="388.43" rx="0.9" ry="0.66" transform="translate(1.88 779.35) rotate(-73.94)"/><rect class="cls-12" x="513.05" y="387.69" width="0.48" height="0.81" rx="0.24"/><path class="cls-12" d="M517.2,386.6a6.42,6.42,0,0,0-.67-.12,6.34,6.34,0,0,0-.68,0,.19.19,0,0,1-.2-.2h0c0-.09.13-.24.94-.15s.87.24.86.33h0A.21.21,0,0,1,517.2,386.6Z"/><path class="cls-12" d="M512.23,386.6a6.87,6.87,0,0,1,.68-.12,6.17,6.17,0,0,1,.67,0c.14,0,.22-.1.21-.2h0c0-.09-.13-.24-.94-.15s-.87.24-.86.33h0A.2.2,0,0,0,512.23,386.6Z"/><rect class="cls-12" x="516.11" y="387.69" width="0.48" height="0.81" rx="0.24"/><path class="cls-20" d="M515.41,390.15a1.26,1.26,0,0,1-.7.21,1.17,1.17,0,0,1-1-.44"/><path class="cls-18" d="M522.15,410.83a5.07,5.07,0,0,0,1.24,2.46"/><path class="cls-13" d="M518.7,386.67s-3.63-.29-5-2.7a4.19,4.19,0,0,1-2.89,3.18l-.88-3.5,4.22-2.83,5.32,3Z"/><circle class="cls-21" cx="514.76" cy="388.72" r="0.14"/></svg>