<?xml version="1.0" encoding="UTF-8"?>
<svg width="248px" height="247px" viewBox="0 0 248 247" version="1.1" xmlns="http://www.w3.org/2000/svg" xmlns:xlink="http://www.w3.org/1999/xlink">
    <title>907E5487-D22A-4510-8F5C-10D391A82354</title>
    <defs>
        <polygon id="path-1" points="0 155.4144 247.622 155.4144 247.622 233.2444 0 233.2444"></polygon>
    </defs>
    <g id="页面-1" stroke="none" stroke-width="1" fill="none" fill-rule="evenodd">
        <g id="反馈-信息">
            <polygon id="Fill-1" fill="#C5D1DF" points="182.948 155.159 232.619 155.159 232.619 31.945 182.948 31.945"></polygon>
            <polygon id="Fill-2" fill="#C5D1DF" points="119.67 155.159 169.341 155.159 169.341 72.674 119.67 72.674"></polygon>
            <polygon id="Fill-3" fill="#E3EAF0" points="156.803 155.159 206.474 155.159 206.474 0 156.803 0"></polygon>
            <polygon id="Fill-4" fill="#C5D1DF" points="167.9 29.893 195.379 29.893 195.379 24.497 167.9 24.497"></polygon>
            <polygon id="Fill-5" fill="#C5D1DF" points="167.9 44.153 195.379 44.153 195.379 38.757 167.9 38.757"></polygon>
            <polygon id="Fill-6" fill="#C5D1DF" points="167.9 58.413 195.379 58.413 195.379 53.017 167.9 53.017"></polygon>
            <polygon id="Fill-7" fill="#C5D1DF" points="167.9 72.674 195.379 72.674 195.379 67.278 167.9 67.278"></polygon>
            <polygon id="Fill-8" fill="#C5D1DF" points="167.9 86.934 195.379 86.934 195.379 81.538 167.9 81.538"></polygon>
            <polygon id="Fill-9" fill="#C5D1DF" points="167.9 101.195 195.379 101.195 195.379 95.799 167.9 95.799"></polygon>
            <polygon id="Fill-10" fill="#C5D1DF" points="167.9 115.454 195.379 115.454 195.379 110.058 167.9 110.058"></polygon>
            <polygon id="Fill-11" fill="#C5D1DF" points="167.9 129.715 195.379 129.715 195.379 124.319 167.9 124.319"></polygon>
            <mask id="mask-2" fill="white">
                <use xlink:href="#path-1"></use>
            </mask>
            <g id="Clip-13"></g>
            <path d="M247.6225,194.3294 C247.6225,215.8214 192.1905,233.2444 123.8115,233.2444 C55.4325,233.2444 -0.0005,215.8214 -0.0005,194.3294 C-0.0005,172.8374 55.4325,155.4144 123.8115,155.4144 C192.1905,155.4144 247.6225,172.8374 247.6225,194.3294" id="Fill-12" fill="#FCF8F5" mask="url(#mask-2)"></path>
            <path d="M163.3566,183.7933 C163.3566,189.7473 145.0386,194.5733 122.4416,194.5733 C99.8446,194.5733 81.5266,189.7473 81.5266,183.7933 C81.5266,177.8403 99.8446,173.0133 122.4416,173.0133 C145.0386,173.0133 163.3566,177.8403 163.3566,183.7933" id="Fill-15" fill="#D3D9F1"></path>
            <path d="M179.3918,102.3235 C179.3918,133.7755 153.8938,159.2725 122.4418,159.2725 C90.9888,159.2725 65.4918,133.7755 65.4918,102.3235 C65.4918,70.8705 90.9888,45.3735 122.4418,45.3735 C153.8938,45.3735 179.3918,70.8705 179.3918,102.3235" id="Fill-16" fill="#6DA9FF"></path>
            <path d="M44.0251,175.68 C44.0251,175.68 41.1001,164.88 28.9871,163.905 C28.9871,163.905 34.6121,161.092 42.7871,166.005 C42.7871,166.005 39.9631,159.88 40.5001,149.018 C40.5001,149.018 45.0751,162.78 48.0001,166.643 C48.0001,166.643 46.9501,156.292 52.1251,147.48 C52.1251,147.48 50.7001,163.417 52.1251,166.117 C52.1251,166.117 59.5131,162.742 65.0621,164.693 C65.0621,164.693 55.5001,167.242 54.1501,175.68 L44.0251,175.68 Z" id="Fill-17" fill="#6BD6A5"></path>
            <path d="M33.4833,178.263 C33.4833,178.263 31.4253,170.665 22.9043,169.979 C22.9043,169.979 26.8613,168 32.6123,171.456 C32.6123,171.456 30.6253,167.148 31.0033,159.505 C31.0033,159.505 34.2223,169.188 36.2803,171.906 C36.2803,171.906 35.5413,164.623 39.1813,158.424 C39.1813,158.424 38.1793,169.636 39.1813,171.535 C39.1813,171.535 44.3793,169.161 48.2833,170.534 C48.2833,170.534 41.5563,172.327 40.6063,178.263 L33.4833,178.263 Z" id="Fill-18" fill="#6BD6A5"></path>
            <path d="M46.8564,175.68 C46.8564,175.68 44.8874,162.967 28.9874,163.905" id="Stroke-19" stroke="#FFFFFF" stroke-width="0.581" stroke-linecap="round" stroke-linejoin="round"></path>
            <path d="M32.7751,166.8304 C32.7751,166.8304 38.1381,168.3674 39.2631,172.9424" id="Stroke-20" stroke="#6BD6A5" stroke-width="0.3" stroke-linecap="round"></path>
            <path d="M36.4125,155.9085 C36.4125,156.5915 35.8585,157.1455 35.1745,157.1455 C34.4915,157.1455 33.9375,156.5915 33.9375,155.9085 C33.9375,155.2245 34.4915,154.6705 35.1745,154.6705 C35.8585,154.6705 36.4125,155.2245 36.4125,155.9085 Z" id="Stroke-21" stroke="#6BD6A5" stroke-width="0.3"></path>
            <path d="M36.0187,156.8118 C36.0187,156.8118 41.2017,162.5158 43.0987,165.9848" id="Stroke-22" stroke="#6BD6A5" stroke-width="0.3" stroke-linecap="round"></path>
            <path d="M117.5634,132.3646 L117.5634,91.0416 C117.5634,88.5926 119.5674,86.5876 122.0174,86.5876 L122.8664,86.5876 C125.3154,86.5876 127.3204,88.5926 127.3204,91.0416 L127.3204,132.3646 C127.3204,134.8136 125.3154,136.8176 122.8664,136.8176 L122.0174,136.8176 C119.5674,136.8176 117.5634,134.8136 117.5634,132.3646" id="Fill-23" fill="#FFFFFF"></path>
            <path d="M122.4416,96.3441 L108.5766,96.3441 C105.8926,96.3441 103.6976,94.1491 103.6976,91.4661 C103.6976,88.7821 105.8926,86.5871 108.5766,86.5871 L122.4416,86.5871 C125.1246,86.5871 127.3196,88.7821 127.3196,91.4661 C127.3196,94.1491 125.1246,96.3441 122.4416,96.3441" id="Fill-24" fill="#FFFFFF"></path>
            <path d="M133.3329,136.8177 L108.5759,136.8177 C105.8929,136.8177 103.6979,134.6237 103.6979,131.9397 C103.6979,129.2567 105.8929,127.0617 108.5759,127.0617 L133.3329,127.0617 C136.0159,127.0617 138.2109,129.2567 138.2109,131.9397 C138.2109,134.6237 136.0159,136.8177 133.3329,136.8177" id="Fill-25" fill="#FFFFFF"></path>
            <path d="M117.5634,72.7044 L117.5634,72.7044 C117.5634,70.0224 119.7574,67.8284 122.4384,67.8284 L122.4444,67.8284 C125.1254,67.8284 127.3204,70.0224 127.3204,72.7044 C127.3204,75.3854 125.1254,77.5794 122.4444,77.5794 L122.4384,77.5794 C119.7574,77.5794 117.5634,75.3854 117.5634,72.7044" id="Fill-26" fill="#FFFFFF"></path>
            <path d="M210.0356,234.2689 C210.0356,234.2689 210.4046,240.3919 210.3276,240.8589 C210.2496,241.3259 208.3636,242.9779 208.3636,242.9779 L211.8626,244.0469 L214.7596,241.5579 L214.7596,232.9659 L210.0356,234.2689 Z" id="Fill-27" fill="#F2B5BC"></path>
            <path d="M210.9213,245.0901 C211.8393,245.0321 214.0463,244.8531 214.4133,244.2911 C214.7803,243.7301 214.8893,243.1621 214.7593,241.1521 C213.6363,241.8211 213.1243,243.1041 210.9213,243.1131 C209.0203,243.1221 207.9223,242.4461 207.9433,243.7641 C207.9653,245.0811 208.1303,245.2661 210.9213,245.0901" id="Fill-28" fill="#263166"></path>
            <path d="M222.1164,235.6878 L223.3734,243.0178 L225.6024,244.9028 L228.4404,243.8388 C228.4404,243.8388 227.5594,242.9318 227.3914,241.7268 C227.2224,240.5218 226.5744,233.5368 226.5744,233.5368 L222.1164,235.6878 Z" id="Fill-29" fill="#F2B5BC"></path>
            <path d="M223.1623,241.7864 C223.1623,241.7864 222.8703,244.8104 223.8923,245.4464 C224.7453,245.9764 227.2083,246.3214 229.1043,245.5764 C229.1043,244.6034 229.1523,243.9674 228.9353,243.7184 C228.7203,243.4704 227.7213,242.7754 227.7213,242.7754 C227.7213,242.7754 228.2643,243.7104 227.9223,243.7904 C227.3333,243.9274 223.7133,244.1084 223.1623,241.7864" id="Fill-30" fill="#263166"></path>
            <path d="M216.218,161.2269 C216.218,161.2269 219.177,161.0429 220.3,163.9919 C220.956,167.0599 220.602,170.0149 221.009,171.2959 C221.416,172.5779 224.066,173.9889 223.533,176.0199 C223,178.0499 222.799,178.1649 222.799,178.1649 L209.032,178.2509 C209.032,178.2509 207.65,177.4449 207.895,173.7589 C208.14,170.0729 209.336,169.0639 209.3,167.9699 C209.263,166.8749 208.082,166.7169 209.608,165.1329 C211.135,163.5489 216.218,161.2269 216.218,161.2269" id="Fill-31" fill="#2437A8"></path>
            <polygon id="Fill-32" fill="#F2B5BC" points="210.153 174.5071 213.797 173.1441 216.444 172.9321 220.013 173.8411 217.778 179.1521 211.547 176.8221"></polygon>
            <polygon id="Fill-33" fill="#F2B5BC" points="213.124 176.565 216.751 176.565 216.751 171.862 213.124 171.862"></polygon>
            <path d="M209.5158,166.39 C209.2308,166.165 209.0718,165.477 209.3848,164.834 C209.6978,164.192 209.8358,164.001 210.0258,163.52 C210.3678,162.655 211.7528,160.319 214.4938,160.502 C217.0418,160.673 216.6538,162.45 216.6538,162.45 C216.6538,162.45 216.7728,162.735 214.4608,163.008 C213.5978,163.11 213.1868,163.566 211.8588,165.205 C210.5298,166.846 209.6998,166.536 209.5158,166.39" id="Fill-34" fill="#2437A8"></path>
            <path d="M221.1879,196.5491 C221.1879,196.5491 216.2709,198.8241 211.5479,196.5491 L211.8899,173.7911 L215.5909,176.3591 L219.2259,173.5911 L224.1399,178.0591 L221.8299,185.0971 L221.1879,196.5491 Z" id="Fill-35" fill="#E3EAF0"></path>
            <path d="M212.9953,176.8089 C212.9953,176.8089 211.3543,177.6119 211.4193,178.0429 C211.4843,178.4759 213.9033,184.3299 213.9033,184.3299" id="Stroke-36" stroke="#F2B5BC" stroke-width="0.311"></path>
            <path d="M212.329,177.972 C212.372,178.054 212.548,178.045 212.722,177.953 C212.896,177.862 213.002,177.721 212.959,177.639 C212.915,177.557 212.739,177.566 212.566,177.658 C212.391,177.749 212.286,177.891 212.329,177.972" id="Fill-37" fill="#F2B5BC"></path>
            <path d="M217.0253,179.6917 C217.0253,179.8437 216.9013,179.9677 216.7493,179.9677 C216.5963,179.9677 216.4723,179.8437 216.4723,179.6917 C216.4723,179.5397 216.5963,179.4157 216.7493,179.4157 C216.9013,179.4157 217.0253,179.5397 217.0253,179.6917" id="Fill-38" fill="#C5D1DF"></path>
            <path d="M217.1115,182.553 C217.1115,182.705 216.9875,182.829 216.8355,182.829 C216.6825,182.829 216.5595,182.705 216.5595,182.553 C216.5595,182.4 216.6825,182.277 216.8355,182.277 C216.9875,182.277 217.1115,182.4 217.1115,182.553" id="Fill-39" fill="#C5D1DF"></path>
            <path d="M217.2285,185.4847 C217.2285,185.6377 217.1045,185.7607 216.9525,185.7607 C216.7995,185.7607 216.6755,185.6377 216.6755,185.4847 C216.6755,185.3327 216.7995,185.2087 216.9525,185.2087 C217.1045,185.2087 217.2285,185.3327 217.2285,185.4847" id="Fill-40" fill="#C5D1DF"></path>
            <path d="M217.2285,188.3021 C217.2285,188.4541 217.1045,188.5781 216.9525,188.5781 C216.7995,188.5781 216.6755,188.4541 216.6755,188.3021 C216.6755,188.1501 216.7995,188.0261 216.9525,188.0261 C217.1045,188.0261 217.2285,188.1501 217.2285,188.3021" id="Fill-41" fill="#C5D1DF"></path>
            <path d="M217.2285,191.2923 C217.2285,191.4443 217.1045,191.5683 216.9525,191.5683 C216.7995,191.5683 216.6755,191.4443 216.6755,191.2923 C216.6755,191.1393 216.7995,191.0163 216.9525,191.0163 C217.1045,191.0163 217.2285,191.1393 217.2285,191.2923" id="Fill-42" fill="#C5D1DF"></path>
            <path d="M216.0173,178.5911 C216.0173,178.5911 216.5603,189.0961 216.0613,194.3481" id="Stroke-43" stroke="#C5D1DF" stroke-width="0.108"></path>
            <path d="M215.8095,202.5648 L221.4835,235.1258 C221.4835,235.1258 221.5995,236.1628 223.2115,235.9028 C224.8245,235.6438 227.1575,235.3268 227.2155,234.7218 C227.2725,234.1178 224.5655,196.1298 224.5655,196.1298 L206.4785,196.4038 L209.3015,233.7078 C209.3015,233.7078 209.3445,234.7218 211.2675,234.7648 C213.1895,234.8088 215.0905,234.6578 215.1115,234.1178 C215.1335,233.5778 215.8095,202.5648 215.8095,202.5648" id="Fill-44" fill="#2E64FF"></path>
            <path d="M227.216,202.6458 C227.216,202.6458 226.085,207.7008 224.724,208.1108 C223.363,208.5218 223.341,203.2438 223.341,203.2438 L225.631,200.2698 L227.216,202.6458 Z" id="Fill-45" fill="#F2B5BC"></path>
            <path d="M212.0612,173.6722 C212.0612,173.6722 206.9192,175.5712 206.4222,176.5222 C205.9262,177.4722 204.1362,181.7112 204.1362,181.7112 L199.9262,183.7032 L201.0502,190.2702 C201.0502,190.2702 201.5542,194.0312 204.4052,194.1432 C206.2492,194.2152 206.8632,192.0052 207.0692,191.0162 C207.3892,189.4862 208.8692,185.0642 208.8692,185.0642 C208.8692,185.0642 208.7862,190.6922 205.1352,196.8052 C205.1352,196.8052 211.2672,198.9742 212.3472,196.8352 C213.4272,194.6972 214.5932,185.8412 214.4422,183.0982 C214.2912,180.3552 214.3652,176.0932 212.0612,173.6722" id="Fill-46" fill="#FF8227"></path>
            <path d="M218.9597,173.4944 C218.9597,173.4944 224.2487,174.9324 225.4147,176.7914 C226.5817,178.6484 229.9797,185.3304 229.3457,193.3654 C228.7127,201.4004 227.5897,203.2434 227.5897,203.2434 L223.2987,201.9414 C223.2987,201.9414 225.7467,190.2254 223.2987,185.7044 C222.9237,189.1604 223.2397,190.9304 226.4657,197.2084 C226.4657,197.2084 221.8867,200.1044 220.6197,197.4554 C219.3527,194.8054 219.6787,181.7744 219.4967,179.6844 C219.2667,177.0354 218.6577,173.8404 218.9597,173.4944" id="Fill-47" fill="#FF8227"></path>
            <path d="M219.259,175.2142 C219.259,175.2142 222.478,176.8992 222.413,177.3312 C222.348,177.7632 219.929,183.6162 219.929,183.6162" id="Stroke-48" stroke="#FFFFFF" stroke-width="0.209" stroke-linecap="round" stroke-linejoin="round"></path>
            <path d="M208.819,190.8021 L210.691,190.4491 C210.691,190.4491 210.929,192.4871 208.286,193.2861" id="Stroke-49" stroke="#FFFFFF" stroke-width="0.209" stroke-linecap="round" stroke-linejoin="round"></path>
            <path d="M200.019,183.9446 C200.019,183.9446 198.133,179.0296 198.794,177.5746 C199.455,176.1206 200.835,176.3826 203.46,178.0256 C203.46,178.0256 203.742,178.2786 203.46,178.9006 C203.178,179.5226 204.488,182.5526 204.488,182.5526 C204.488,182.5526 205.308,184.3816 202.976,185.0046 C200.643,185.6266 200.019,183.9446 200.019,183.9446" id="Fill-50" fill="#F2B5BC"></path>
            <path d="M199.601,179.1819 C199.601,179.1819 199.232,177.7439 200.087,177.1609" id="Stroke-51" stroke="#F58B8D" stroke-width="0.212" stroke-linecap="round"></path>
            <path d="M200.777,179.1819 C200.777,179.1819 200.427,177.8829 201.205,177.5749" id="Stroke-52" stroke="#F58B8D" stroke-width="0.212" stroke-linecap="round"></path>
            <path d="M201.9726,179.1819 C201.9726,179.1819 201.9336,178.0749 202.4876,178.0159" id="Stroke-53" stroke="#F58B8D" stroke-width="0.212" stroke-linecap="round"></path>
            <path d="M206.9975,189.8089 C206.9975,189.8089 206.2775,185.5939 206.1335,185.0949" id="Stroke-54" stroke="#FFFFFF" stroke-width="0.209" stroke-linecap="round" stroke-linejoin="round"></path>
            <path d="M208.7975,184.5521 C208.7975,184.5521 208.7505,182.2771 207.7175,181.4131" id="Stroke-55" stroke="#FFFFFF" stroke-width="0.209" stroke-linecap="round" stroke-linejoin="round"></path>
            <path d="M214.9379,172.6683 L214.9379,172.6683 C212.8099,172.6683 211.0689,170.9273 211.0689,168.7993 L211.0689,166.6273 C211.0689,164.5003 212.8099,162.7593 214.9379,162.7593 C217.0659,162.7593 218.8069,164.5003 218.8069,166.6273 L218.8069,168.7993 C218.8069,170.9273 217.0659,172.6683 214.9379,172.6683" id="Fill-56" fill="#F2B5BC"></path>
            <path d="M210.4318,169.0775 C210.5688,169.5525 210.9648,169.8555 211.3168,169.7545 C211.6698,169.6525 211.8438,169.1855 211.7068,168.7105 C211.5698,168.2345 211.1738,167.9315 210.8218,168.0325 C210.4698,168.1345 210.2948,168.6015 210.4318,169.0775" id="Fill-57" fill="#F2B5BC"></path>
            <path d="M219.4919,169.0775 C219.3549,169.5525 218.9589,169.8555 218.6069,169.7545 C218.2549,169.6525 218.0799,169.1855 218.2169,168.7105 C218.3539,168.2345 218.7509,167.9315 219.1019,168.0325 C219.4539,168.1345 219.6289,168.6015 219.4919,169.0775" id="Fill-58" fill="#F2B5BC"></path>
            <path d="M213.485,168.9632 L213.485,168.9632 C213.353,168.9632 213.245,168.8562 213.245,168.7242 L213.245,168.3912 C213.245,168.2592 213.353,168.1512 213.485,168.1512 C213.617,168.1512 213.725,168.2592 213.725,168.3912 L213.725,168.7242 C213.725,168.8562 213.617,168.9632 213.485,168.9632" id="Fill-59" fill="#263166"></path>
            <path d="M217.403,167.0677 C217.403,167.0677 217.015,166.9767 216.73,166.9447 C216.471,166.9147 216.054,166.9297 216.054,166.9297 C215.922,166.9167 215.84,166.8237 215.85,166.7287 C215.86,166.6327 215.982,166.4887 216.789,166.5717 C217.551,166.6497 217.658,166.8137 217.648,166.9097 C217.638,167.0057 217.535,167.0817 217.403,167.0677" id="Fill-60" fill="#263166"></path>
            <path d="M212.4343,167.0677 C212.4343,167.0677 212.8223,166.9767 213.1073,166.9447 C213.3663,166.9147 213.7833,166.9297 213.7833,166.9297 C213.9153,166.9167 213.9973,166.8237 213.9873,166.7287 C213.9773,166.6327 213.8553,166.4887 213.0473,166.5717 C212.2863,166.6497 212.1793,166.8137 212.1893,166.9097 C212.1993,167.0057 212.3023,167.0817 212.4343,167.0677" id="Fill-61" fill="#263166"></path>
            <path d="M216.5541,168.9632 L216.5541,168.9632 C216.4221,168.9632 216.3141,168.8562 216.3141,168.7242 L216.3141,168.3912 C216.3141,168.2592 216.4221,168.1512 216.5541,168.1512 C216.6861,168.1512 216.7941,168.2592 216.7941,168.3912 L216.7941,168.7242 C216.7941,168.8562 216.6861,168.9632 216.5541,168.9632" id="Fill-62" fill="#263166"></path>
            <path d="M215.6081,170.6194 C215.4151,170.7504 215.1721,170.8294 214.9081,170.8294 C214.5111,170.8294 214.1621,170.6514 213.9601,170.3844" id="Stroke-63" stroke="#263166" stroke-width="0.216" stroke-linecap="round" stroke-linejoin="round"></path>
            <path d="M222.3478,191.2923 C222.3478,191.2923 222.6938,193.0013 223.5898,193.7583" id="Stroke-64" stroke="#FFFFFF" stroke-width="0.209" stroke-linecap="round" stroke-linejoin="round"></path>
            <path d="M218.9018,167.139 C218.9018,167.139 215.2678,166.842 213.9118,164.439 C213.9118,164.439 213.6408,166.674 211.0218,167.619 L210.1438,164.121 L214.3588,161.282 L219.6848,164.331 L218.9018,167.139 Z" id="Fill-65" fill="#2437A8"></path>
            <path d="M215.1005,169.1868 C215.1005,169.2628 215.0385,169.3258 214.9615,169.3258 C214.8855,169.3258 214.8235,169.2628 214.8235,169.1868 C214.8235,169.1108 214.8855,169.0478 214.9615,169.0478 C215.0385,169.0478 215.1005,169.1108 215.1005,169.1868" id="Fill-66" fill="#F58B8D"></path>
        </g>
    </g>
</svg>