<?xml version="1.0" encoding="UTF-8"?>
<svg width="277px" height="196px" viewBox="0 0 277 196" version="1.1" xmlns="http://www.w3.org/2000/svg" xmlns:xlink="http://www.w3.org/1999/xlink">
    <title>结果反馈-成功-暗色</title>
    <g id="空状态插画-暗色" stroke="none" stroke-width="1" fill="none" fill-rule="evenodd">
        <g id="结果反馈-成功" transform="translate(-273.000000, -244.000000)">
            <g id="结果反馈-成功-暗色" transform="translate(273.000500, 244.000500)">
                <g id="编组" transform="translate(0.000000, 23.301600)">
                    <path d="M159.1625,0 C177.6435,0 187.2715,26.229 195.3505,26.229 C203.4295,26.229 203.4295,15.494 215.9345,15.604 C228.4405,15.715 276.2485,74.147 276.2485,74.147 L99.6235,74.147 C99.6235,74.147 140.6805,0 159.1625,0" id="Fill-1" fill="#383838"></path>
                    <path d="M153.5228,42.6133 C165.1428,42.6133 172.9448,55.3123 177.5928,55.6483 C182.2408,55.9843 190.2918,54.9883 195.9358,59.3873 C201.5798,63.7863 209.5478,72.9163 221.5828,73.3313 C233.6188,73.7463 247.8948,85.6943 247.8948,85.6943 L115.0938,84.7853 C115.0938,84.7853 141.9028,42.6133 153.5228,42.6133" id="Fill-3" fill="#4B4B4B"></path>
                    <path d="M247.622,125.6543 C247.622,147.1463 192.19,164.5693 123.811,164.5693 C55.432,164.5693 0,147.1463 0,125.6543 C0,104.1623 55.432,86.7393 123.811,86.7393 C192.19,86.7393 247.622,104.1623 247.622,125.6543" id="Fill-5" fill="#2A2A2B"></path>
                </g>
                <g id="编组" transform="translate(22.904000, 0.000000)">
                    <path d="M140.4521,138.4198 C140.4521,144.3738 122.1341,149.1998 99.5371,149.1998 C76.9401,149.1998 58.6221,144.3738 58.6221,138.4198 C58.6221,132.4668 76.9401,127.6398 99.5371,127.6398 C122.1341,127.6398 140.4521,132.4668 140.4521,138.4198" id="Fill-8" fill="#284818"></path>
                    <path d="M156.4872,56.95 C156.4872,88.402 130.9902,113.899 99.5372,113.899 C68.0842,113.899 42.5872,88.402 42.5872,56.95 C42.5872,25.497 68.0842,0 99.5372,0 C130.9902,0 156.4872,25.497 156.4872,56.95" id="Fill-9" fill="#2AD894"></path>
                    <path d="M156.4872,56.95 C156.4872,88.402 130.9902,113.899 99.5372,113.899 C68.0842,113.899 42.5872,88.402 42.5872,56.95 C42.5872,25.497 68.0842,0 99.5372,0 C130.9902,0 156.4872,25.497 156.4872,56.95" id="Fill-9备份" fill="#FFFFFF" opacity="0.199999988"></path>
                    <path d="M93.1883,79.3309 L72.3413,58.4829 C70.4443,56.5869 70.4443,53.4829 72.3413,51.5869 L72.3433,51.5849 C74.2403,49.6879 77.3433,49.6879 79.2403,51.5849 L100.0873,72.4319 C101.9843,74.3279 101.9843,77.4329 100.0873,79.3289 L100.0853,79.3309 C98.1883,81.2269 95.0853,81.2269 93.1883,79.3309" id="Fill-10" fill="#FFFFFF"></path>
                    <path d="M93.1867,72.4315 L128.8827,36.7355 C130.7797,34.8385 133.8837,34.8385 135.7797,36.7355 L135.7817,36.7375 C137.6787,38.6335 137.6787,41.7385 135.7817,43.6345 L100.0857,79.3305 C98.1887,81.2275 95.0847,81.2275 93.1887,79.3305 L93.1867,79.3285 C91.2897,77.4325 91.2897,74.3275 93.1867,72.4315" id="Fill-11" fill="#FFFFFF"></path>
                    <path d="M21.1206,130.3065 C21.1206,130.3065 18.1956,119.5065 6.0836,118.5315 C6.0836,118.5315 11.7086,115.7185 19.8826,120.6315 C19.8826,120.6315 17.0586,114.5065 17.5956,103.6445 C17.5956,103.6445 22.1706,117.4065 25.0956,121.2695 C25.0956,121.2695 24.0456,110.9185 29.2206,102.1065 C29.2206,102.1065 27.7956,118.0435 29.2206,120.7435 C29.2206,120.7435 36.6076,117.3685 42.1576,119.3195 C42.1576,119.3195 32.5956,121.8685 31.2456,130.3065 L21.1206,130.3065 Z" id="Fill-12" fill="#6BD6A5"></path>
                    <path d="M10.579,132.8895 C10.579,132.8895 8.521,125.2915 0,124.6055 C0,124.6055 3.957,122.6265 9.708,126.0825 C9.708,126.0825 7.721,121.7745 8.099,114.1315 C8.099,114.1315 11.318,123.8145 13.376,126.5325 C13.376,126.5325 12.637,119.2495 16.277,113.0505 C16.277,113.0505 15.275,124.2625 16.277,126.1615 C16.277,126.1615 21.475,123.7875 25.379,125.1605 C25.379,125.1605 18.652,126.9535 17.702,132.8895 L10.579,132.8895 Z" id="Fill-13" fill="#6BD6A5"></path>
                    <path d="M23.9518,130.3065 C23.9518,130.3065 21.9828,117.5935 6.0828,118.5315" id="Stroke-14" stroke="#247E55" stroke-width="0.581" stroke-linecap="round" stroke-linejoin="round"></path>
                    <path d="M9.8706,121.4569 C9.8706,121.4569 15.2326,122.9939 16.3576,127.5689" id="Stroke-15" stroke="#6BD6A5" stroke-width="0.3" stroke-linecap="round"></path>
                    <path d="M13.508,110.535 C13.508,111.218 12.954,111.772 12.271,111.772 C11.587,111.772 11.033,111.218 11.033,110.535 C11.033,109.851 11.587,109.297 12.271,109.297 C12.954,109.297 13.508,109.851 13.508,110.535 Z" id="Stroke-16" stroke="#6BD6A5" stroke-width="0.3"></path>
                    <path d="M13.1144,111.4383 C13.1144,111.4383 18.2974,117.1423 20.1944,120.6113" id="Stroke-17" stroke="#6BD6A5" stroke-width="0.3" stroke-linecap="round"></path>
                    <path d="M161.824,192.9022 C161.824,192.9022 161.461,195.1522 164.599,195.2172 C166.971,195.2732 167.455,194.5552 167.568,194.3132 C167.68,194.0722 167.568,192.8532 167.568,192.8532 L161.824,192.9022 Z" id="Fill-18" fill="#252E4D"></path>
                    <path d="M178.2154,192.9022 C178.2154,192.9022 178.5784,195.1522 175.4404,195.2172 C173.0694,195.2732 172.5844,194.5552 172.4714,194.3132 C172.3594,194.0722 172.4714,192.8532 172.4714,192.8532 L178.2154,192.9022 Z" id="Fill-19" fill="#252E4D"></path>
                    <polygon id="Fill-20" fill="#1B1F22" points="162.833 143.993 163.106 181.161 166.911 181.251 170.398 150.885 172.984 181.241 177.07 181.241 178.015 143.998"></polygon>
                    <polygon id="Fill-21" fill="#F2B5BC" points="174.092 122.6034 170.715 121.8654 166.692 122.5204 166.692 125.4414 171.525 126.6384 174.248 125.0234 174.49 123.3594"></polygon>
                    <path d="M158.7721,129.9374 C158.7721,129.9374 157.6751,131.3084 156.3521,132.1474 C155.0291,132.9864 151.9641,136.0194 150.3181,138.0684 C148.6731,140.1174 144.6071,144.1994 144.6071,144.1994 C144.6071,144.1994 143.4451,144.4094 142.4291,143.9894 C141.4131,143.5704 140.6871,142.7794 140.1861,143.3434 C139.6861,143.9094 141.5901,145.1194 141.5901,145.1194 C141.5901,145.1194 141.7031,145.3444 141.4451,145.5384 C141.1871,145.7314 137.3151,147.6674 137.331051,148.2814 C137.3471,148.8934 137.8151,148.9744 138.1541,148.8454 C138.4921,148.7164 140.6461,147.4334 140.8641,147.5544 C141.0821,147.6754 140.1861,148.2564 139.8231,148.4744 C139.4601,148.6924 137.1611,149.9264 137.7421,150.4344 C138.3231,150.9434 139.7511,149.8054 139.7511,149.8054 C139.7511,149.8054 141.6141,148.4024 141.8321,148.5464 C142.0501,148.6924 138.3711,151.0874 138.9761,151.6684 C139.5811,152.2494 140.5981,151.2824 140.5981,151.2824 C140.5981,151.2824 142.7271,149.3704 142.8241,149.5154 C142.9211,149.6604 140.3561,151.6934 140.9611,152.2494 C141.5661,152.8064 142.3641,151.4024 142.8971,150.9184 C143.4291,150.4344 145.7041,148.6204 146.0751,147.8614 C146.4461,147.1034 146.4461,146.7484 146.4461,146.7484 C146.4461,146.7484 156.1831,138.7214 156.9331,137.8504 C157.6831,136.9794 160.6351,133.2284 161.4101,132.8414 C162.1841,132.4544 158.7721,129.9374 158.7721,129.9374" id="Fill-22" fill="#F2B5BC"></path>
                    <path d="M186.8265,133.412 C186.8265,133.412 187.9235,134.783 189.2465,135.622 C190.5695,136.461 193.6345,139.494 195.2805,141.543 C196.9255,143.592 200.9915,147.674 200.9915,147.674 C200.9915,147.674 202.1535,147.884 203.1695,147.464 C204.1855,147.045 204.9115,146.254 205.4125,146.818 C205.9125,147.384 204.0085,148.594 204.0085,148.594 C204.0085,148.594 203.8955,148.819 204.1535,149.013 C204.4115,149.206 208.2835,151.142 208.267549,151.756 C208.2515,152.368 207.7835,152.449 207.4445,152.32 C207.1065,152.191 204.9525,150.908 204.7345,151.029 C204.5165,151.15 205.4125,151.731 205.7755,151.949 C206.1385,152.167 208.4375,153.401 207.8565,153.909 C207.2755,154.418 205.8475,153.28 205.8475,153.28 C205.8475,153.28 203.9845,151.877 203.7665,152.021 C203.5485,152.167 207.2275,154.562 206.6225,155.143 C206.0175,155.724 205.0005,154.757 205.0005,154.757 C205.0005,154.757 202.8715,152.845 202.7745,152.99 C202.6775,153.135 205.2425,155.168 204.6375,155.724 C204.0325,156.281 203.2345,154.877 202.7015,154.393 C202.1695,153.909 199.8945,152.095 199.5235,151.336 C199.1525,150.578 199.1525,150.223 199.1525,150.223 C199.1525,150.223 189.4155,142.196 188.6655,141.325 C187.9155,140.454 184.9635,136.703 184.1885,136.316 C183.4145,135.929 186.8265,133.412 186.8265,133.412" id="Fill-23" fill="#F2B5BC"></path>
                    <path d="M172.4776,116.2948 C172.4776,116.2948 172.1946,116.2578 172.0996,116.2568 C172.0046,116.2548 171.7216,116.2848 171.7216,116.2848 C171.6476,116.2838 171.5876,116.2188 171.5886,116.1398 C171.5896,116.0608 171.6506,115.9538 172.1036,115.9598 C172.5306,115.9648 172.6156,116.0738 172.6136,116.1528 C172.6126,116.2328 172.5516,116.2958 172.4776,116.2948" id="Fill-24" fill="#263166"></path>
                    <path d="M168.0885,116.2948 C168.0885,116.2948 168.3715,116.2578 168.4665,116.2568 C168.5615,116.2548 168.8445,116.2848 168.8445,116.2848 C168.9185,116.2838 168.9785,116.2188 168.9775,116.1398 C168.9765,116.0608 168.9155,115.9538 168.4625,115.9598 C168.0355,115.9648 167.9505,116.0738 167.9525,116.1528 C167.9535,116.2328 168.0145,116.2958 168.0885,116.2948" id="Fill-25" fill="#263166"></path>
                    <path d="M175.8313,116.5819 C175.8313,117.2239 175.3283,117.7439 174.7083,117.7439 C174.0883,117.7439 173.5853,117.2239 173.5853,116.5819 C173.5853,115.9399 174.0883,115.4209 174.7083,115.4209 C175.3283,115.4209 175.8313,115.9399 175.8313,116.5819" id="Fill-26" fill="#F2B5BC"></path>
                    <path d="M167.0346,116.5819 C167.0346,117.2239 166.5316,117.7439 165.9116,117.7439 C165.2916,117.7439 164.7886,117.2239 164.7886,116.5819 C164.7886,115.9399 165.2916,115.4209 165.9116,115.4209 C166.5316,115.4209 167.0346,115.9399 167.0346,116.5819" id="Fill-27" fill="#F2B5BC"></path>
                    <path d="M170.3271,121.9012 L170.3271,121.9012 C168.2371,121.9012 166.5261,120.1902 166.5261,118.0992 L166.5261,115.4962 C166.5261,113.4062 168.2371,111.6952 170.3271,111.6952 C172.4171,111.6952 174.1281,113.4062 174.1281,115.4962 L174.1281,118.0992 C174.1281,120.1902 172.4171,121.9012 170.3271,121.9012" id="Fill-28" fill="#F2B5BC"></path>
                    <path d="M166.5882,116.0692 C166.5882,116.0692 165.2152,114.3792 165.5152,112.9842 C165.8162,111.5902 166.3962,111.4742 166.3962,111.4742 L167.7132,112.7472 C167.7132,112.7472 166.5692,114.6462 166.5882,116.0692" id="Fill-29" fill="#603624"></path>
                    <path d="M173.1145,110.3319 C173.1145,110.3319 175.4085,111.3389 175.3605,113.4879 C175.3115,115.6369 174.0915,115.9079 174.0915,115.9079 C174.0915,115.9079 174.0915,113.9069 172.1315,112.1609 C171.7505,111.8219 173.1145,110.3319 173.1145,110.3319" id="Fill-30" fill="#603624"></path>
                    <path d="M168.6339,116.9793 L168.6339,116.9793 C168.5319,116.9793 168.4489,116.8953 168.4489,116.7933 L168.4489,116.2533 C168.4489,116.1523 168.5319,116.0693 168.6339,116.0693 L168.6339,116.0693 C168.7359,116.0693 168.8189,116.1523 168.8189,116.2533 L168.8189,116.7933 C168.8189,116.8953 168.7359,116.9793 168.6339,116.9793" id="Fill-31" fill="#263166"></path>
                    <path d="M172.0801,116.9793 L172.0801,116.9793 C171.9781,116.9793 171.8951,116.8953 171.8951,116.7933 L171.8951,116.2533 C171.8951,116.1523 171.9781,116.0693 172.0801,116.0693 L172.0801,116.0693 C172.1821,116.0693 172.2651,116.1523 172.2651,116.2533 L172.2651,116.7933 C172.2651,116.8953 172.1821,116.9793 172.0801,116.9793" id="Fill-32" fill="#263166"></path>
                    <path d="M171.8174,118.3465 C171.8174,118.6815 171.5234,118.9535 171.1614,118.9535 C170.9504,118.9535 170.7624,118.8615 170.6424,118.7175" id="Stroke-33" stroke="#263166" stroke-width="0.155" stroke-linecap="round"></path>
                    <path d="M169.7588,116.1678 C169.7588,117.1688 168.9478,117.9798 167.9468,117.9798 C166.9458,117.9798 166.1348,117.1688 166.1348,116.1678 C166.1348,115.1668 166.9458,114.3558 167.9468,114.3558 C168.9478,114.3558 169.7588,115.1668 169.7588,116.1678 Z" id="Stroke-34" stroke="#2E64FF" stroke-width="0.155"></path>
                    <path d="M171.0235,116.1678 C171.0235,117.1688 171.8345,117.9798 172.8355,117.9798 C173.8365,117.9798 174.6475,117.1688 174.6475,116.1678 C174.6475,115.1668 173.8365,114.3558 172.8355,114.3558 C171.8345,114.3558 171.0235,115.1668 171.0235,116.1678 Z" id="Stroke-35" stroke="#2E64FF" stroke-width="0.155"></path>
                    <path d="M169.7672,116.0536 C169.9532,115.9446 170.1942,115.8776 170.4562,115.8776 C170.6682,115.8776 170.8652,115.9216 171.0322,115.9956" id="Stroke-36" stroke="#2E64FF" stroke-width="0.155"></path>
                    <path d="M172.5753,125.2293 L168.0543,125.2293 C167.9693,125.2293 167.8993,125.1603 167.8993,125.0753 L167.8993,120.7063 C167.8993,120.6213 167.9693,120.5513 168.0543,120.5513 L172.5753,120.5513 C172.6603,120.5513 172.7303,120.6213 172.7303,120.7063 L172.7303,125.0753 C172.7303,125.1603 172.6603,125.2293 172.5753,125.2293" id="Fill-37" fill="#F2B5BC"></path>
                    <path d="M166.8496,122.4833 C166.8496,122.4833 162.0256,123.5323 159.9606,125.8393 C157.8956,128.1463 153.5076,133.2123 153.5076,133.2123 L157.5246,138.1493 L161.5576,135.4223 L162.8646,143.2143 L178.0296,143.2143 L179.1916,135.1313 L183.5476,138.1493 L187.3226,133.3093 L182.4826,127.5333 C182.4826,127.5333 180.1906,125.0183 177.8526,123.9843 C175.3356,122.8713 174.0616,122.5963 174.0616,122.5963 C174.0616,122.5963 173.8516,125.7433 170.6246,125.6623 C167.3976,125.5813 166.9626,123.6933 166.8496,122.4833" id="Fill-38" fill="#E8B143"></path>
                    <line x1="159.7508" y1="136.326" x2="155.6048" y2="131.131" id="Stroke-39" stroke="#FFFFFF" stroke-width="0.194" stroke-linecap="round" stroke-linejoin="round"></line>
                    <line x1="181.2889" y1="136.1805" x2="184.7499" y2="131.1955" id="Stroke-40" stroke="#FFFFFF" stroke-width="0.194" stroke-linecap="round" stroke-linejoin="round"></line>
                    <path d="M198.5354,149.9911 C198.8254,149.9911 199.4384,149.4101 199.9224,148.8291 C200.4064,148.2491 200.9994,147.3121 200.8304,147.0831 C200.6614,146.8531 199.4634,145.7161 199.4634,145.7161 C199.4634,145.7161 199.4384,146.8291 198.5554,147.6641 C197.6724,148.4991 197.2894,148.7571 196.8654,148.7321 C197.8214,149.8451 198.0574,149.9901 198.5354,149.9911" id="Fill-41" fill="#7E5038"></path>
                    <path d="M162.8357,143.7313 C162.8357,143.7313 162.7677,144.3763 163.8647,144.4413 C164.9617,144.5063 171.1487,144.8353 176.3517,144.4413 C177.2837,144.3623 178.0147,144.2343 178.0147,143.9983 C178.0147,143.7603 178.0547,143.0313 178.0547,143.0313 L162.8327,142.9813 L162.8357,143.7313 Z" id="Fill-42" fill="#7E5038"></path>
                    <path d="M171.8808,145.2 L168.9138,145.2 C168.2508,145.2 167.7068,144.657 167.7068,143.993 C167.7068,143.33 168.2508,142.787 168.9138,142.787 L171.8808,142.787 C172.5448,142.787 173.0878,143.33 173.0878,143.993 C173.0878,144.657 172.5448,145.2 171.8808,145.2" id="Fill-43" fill="#E3EAF0"></path>
                    <path d="M166.9786,180.5868 C166.9786,180.9038 166.0796,181.1608 164.9716,181.1608 C163.8636,181.1608 162.9646,180.9038 162.9646,180.5868 C162.9646,180.2708 163.8636,180.0138 164.9716,180.0138 C166.0796,180.0138 166.9786,180.2708 166.9786,180.5868" id="Fill-44" fill="#272A2C"></path>
                    <polygon id="Fill-45" fill="#F2B5BC" points="163.9015 186.6065 166.1275 186.6065 166.1275 182.2135 163.9015 182.2135"></polygon>
                    <path d="M163.5624,187.7069 C163.5624,187.7069 162.4494,186.3889 164.8694,186.4489 C167.2894,186.5099 167.0474,187.2239 166.4904,187.7799 C166.4904,187.7799 166.8214,188.8069 166.0464,188.7999 C164.5744,188.7879 163.2074,189.1269 163.5624,187.7069" id="Fill-46" fill="#515A84"></path>
                    <path d="M164.6877,194.035 C164.6877,194.035 167.5767,194.073 167.5887,193.117 C167.6007,192.161 166.9097,191.107 166.9787,190.599 C167.0467,190.091 167.3377,189.522 167.1677,188.712 C166.9987,187.9 166.8577,187.099 166.8577,187.099 L163.3217,186.974 C163.3217,186.974 162.1117,190.331 161.8217,192.921 C161.8217,193.078 161.7297,194.036 164.6877,194.035" id="Fill-47" fill="#3B4575"></path>
                    <path d="M164.1876,189.7157 C164.1876,189.7157 165.2846,189.6027 166.0106,189.7157" id="Stroke-48" stroke="#F2F2F2" stroke-width="0.242" stroke-linecap="round"></path>
                    <path d="M164.1069,190.3934 C164.1069,190.3934 165.5549,190.1754 166.0109,190.3934" id="Stroke-49" stroke="#F2F2F2" stroke-width="0.242" stroke-linecap="round"></path>
                    <path d="M173.0609,180.5868 C173.0609,180.9038 173.9599,181.1608 175.0679,181.1608 C176.1759,181.1608 177.0749,180.9038 177.0749,180.5868 C177.0749,180.2708 176.1759,180.0138 175.0679,180.0138 C173.9599,180.0138 173.0609,180.2708 173.0609,180.5868" id="Fill-50" fill="#272A2C"></path>
                    <polygon id="Fill-51" fill="#F2B5BC" points="173.9115 186.6065 176.1375 186.6065 176.1375 182.2135 173.9115 182.2135"></polygon>
                    <path d="M176.4772,187.7069 C176.4772,187.7069 177.5902,186.3889 175.1702,186.4489 C172.7502,186.5099 172.9922,187.2239 173.5492,187.7799 C173.5492,187.7799 173.2182,188.8069 173.9922,188.7999 C175.4652,188.7879 176.8322,189.1269 176.4772,187.7069" id="Fill-52" fill="#515A84"></path>
                    <path d="M175.3518,194.035 C175.3518,194.035 172.4568,194.064 172.4448,193.108 C172.4328,192.152 173.1298,191.107 173.0608,190.599 C172.9928,190.091 172.7018,189.522 172.8718,188.712 C173.0408,187.9 173.1818,187.099 173.1818,187.099 L176.7178,186.974 C176.7178,186.974 177.9248,190.312 178.2158,192.902 C178.2158,193.059 178.3098,194.036 175.3518,194.035" id="Fill-53" fill="#3B4575"></path>
                    <path d="M175.8519,189.7157 C175.8519,189.7157 174.7549,189.6027 174.0289,189.7157" id="Stroke-54" stroke="#F2F2F2" stroke-width="0.242" stroke-linecap="round"></path>
                    <path d="M175.9326,190.3934 C175.9326,190.3934 174.4846,190.1754 174.0286,190.3934" id="Stroke-55" stroke="#F2F2F2" stroke-width="0.242" stroke-linecap="round"></path>
                    <path d="M165.1963,111.2811 C165.1963,111.2811 165.2643,108.4831 169.1163,108.9091 C172.9693,109.3351 174.0143,111.0491 174.0533,111.2811 C174.0923,111.5131 174.4543,113.4331 171.5653,113.0131 C168.6343,112.5871 165.2733,113.6521 165.1963,111.2811" id="Fill-56" fill="#7E5038"></path>
                    <path d="M165.8493,122.8641 C165.8493,122.8641 166.5753,126.7651 170.5913,126.5991 C174.6063,126.4331 174.8943,122.9841 174.8943,122.9841" id="Stroke-57" stroke="#FFFFFF" stroke-width="0.194" stroke-linecap="round" stroke-linejoin="round"></path>
                    <path d="M162.9647,180.5868 L163.2437,183.7668 C163.2437,183.7668 163.2237,185.1458 164.9717,185.1938 C166.4337,185.2338 166.7767,184.4358 166.7767,183.9918 C166.7767,183.5488 166.9787,180.5868 166.9787,180.5868 L162.9647,180.5868 Z" id="Fill-58" fill="#272A2C"></path>
                    <path d="M164.9717,181.161 C166.0797,181.161 166.9787,180.904 166.9787,180.587 L162.9647,180.587 C162.9647,180.904 163.8637,181.161 164.9717,181.161" id="Fill-59" fill="#272A2C"></path>
                    <path d="M177.1426,180.5868 L176.8496,183.7668 C176.8496,183.7668 176.8706,185.1458 175.0336,185.1938 C173.4966,185.2338 173.1366,184.4358 173.1366,183.9918 C173.1366,183.5488 172.9246,180.5868 172.9246,180.5868 L177.1426,180.5868 Z" id="Fill-60" fill="#272A2C"></path>
                    <path d="M175.0679,181.161 C176.1759,181.161 177.0749,180.904 177.0749,180.587 L173.0609,180.587 C173.0609,180.904 173.9599,181.161 175.0679,181.161" id="Fill-61" fill="#272A2C"></path>
                    <path d="M170.7147,117.578 C170.7147,117.724 170.5967,117.842 170.4507,117.842 C170.3047,117.842 170.1867,117.724 170.1867,117.578 C170.1867,117.432 170.3047,117.313 170.4507,117.313 C170.5967,117.313 170.7147,117.432 170.7147,117.578" id="Fill-62" fill="#F58B8D"></path>
                </g>
            </g>
        </g>
    </g>
</svg>