<svg id="图层_1" data-name="图层 1" xmlns="http://www.w3.org/2000/svg" viewBox="0 0 800 800"><defs><style>.cls-1{fill:#d6d6d6;}.cls-1,.cls-2{opacity:0.6;}.cls-2{fill:#eaeaea;}.cls-3{fill:#fcf8f5;}.cls-4{fill:#eaffe6;}.cls-5{fill:#2ad894;}.cls-6{fill:#fff;}.cls-7{fill:#6bd6a5;}.cls-10,.cls-14,.cls-15,.cls-18,.cls-22,.cls-8,.cls-9{fill:none;}.cls-18,.cls-8{stroke:#fff;stroke-linejoin:round;}.cls-14,.cls-18,.cls-22,.cls-8,.cls-9{stroke-linecap:round;}.cls-8{stroke-width:0.58px;}.cls-10,.cls-9{stroke:#6bd6a5;stroke-width:0.3px;}.cls-10,.cls-14,.cls-15,.cls-22,.cls-9{stroke-miterlimit:10;}.cls-11{fill:#f2b5bc;}.cls-12{fill:#603624;}.cls-13{fill:#263166;}.cls-14{stroke:#263166;}.cls-14,.cls-15{stroke-width:0.39px;}.cls-15{stroke:#2e64ff;}.cls-16{fill:#7e5038;}.cls-17{fill:#f58b8d;}.cls-18{stroke-width:0.48px;}.cls-19{fill:#f9c152;}.cls-20{fill:#2f2f3d;}.cls-21{fill:#0e183a;}.cls-22{stroke:#f2f2f2;stroke-width:0.43px;}</style></defs><path class="cls-1" d="M476,266.21c18.48,0,28.11,26.23,36.19,26.23s8.08-10.74,20.59-10.63,60.31,58.55,60.31,58.55H416.42S457.48,266.21,476,266.21Z"/><path class="cls-2" d="M470.32,308.82c11.62,0,19.43,12.7,24.07,13s12.7-.66,18.35,3.74,13.61,13.53,25.64,13.94,26.31,12.36,26.31,12.36L431.89,351S458.7,308.82,470.32,308.82Z"/><ellipse class="cls-3" cx="439.24" cy="390.01" rx="123.81" ry="38.92"/><ellipse class="cls-4" cx="439.24" cy="377.62" rx="40.91" ry="10.78"/><circle class="cls-5" cx="439.24" cy="299.86" r="56.95"/><rect class="cls-6" x="406.3" y="303.49" width="39.24" height="9.76" rx="4.88" transform="translate(342.8 -210.85) rotate(45)"/><rect class="cls-6" x="424.07" y="296.06" width="60.24" height="9.76" rx="4.88" transform="translate(988.15 192.58) rotate(135)"/><path class="cls-7" d="M360.82,369.21a16.94,16.94,0,0,0-15-11.77s5.62-2.81,13.8,2.1c0,0-2.83-6.13-2.29-17,0,0,4.57,13.76,7.5,17.63,0,0-1.05-10.35,4.12-19.17,0,0-1.42,15.94,0,18.64,0,0,7.39-3.37,12.94-1.42,0,0-9.56,2.55-10.91,11Z"/><path class="cls-7" d="M350.28,371.8a11.93,11.93,0,0,0-10.58-8.29s4-2,9.71,1.48c0,0-2-4.31-1.61-11.95,0,0,3.22,9.68,5.28,12.4,0,0-.74-7.28,2.9-13.48,0,0-1,11.21,0,13.11,0,0,5.2-2.37,9.1-1,0,0-6.72,1.79-7.67,7.73Z"/><path class="cls-8" d="M363.66,369.21s-2-12.71-17.87-11.77"/><path class="cls-9" d="M349.57,360.36s5.37,1.54,6.49,6.12"/><circle class="cls-10" cx="350.97" cy="349.44" r="1.24"/><path class="cls-9" d="M352.82,350.35s5.18,5.7,7.08,9.17"/><polygon class="cls-11" points="527.41 379.79 523.19 378.87 518.16 379.69 518.16 383.34 524.2 384.84 527.61 382.82 527.91 380.74 527.41 379.79"/><ellipse class="cls-11" cx="528.26" cy="372.77" rx="1.4" ry="1.45"/><ellipse class="cls-11" cx="517.26" cy="372.77" rx="1.4" ry="1.45"/><rect class="cls-11" x="518.03" y="366.66" width="9.5" height="12.76" rx="4.75"/><path class="cls-12" d="M518.11,372.13s-1.72-2.12-1.34-3.86,1.1-1.89,1.1-1.89l1.64,1.59A10,10,0,0,0,518.11,372.13Z"/><path class="cls-12" d="M526.27,365s2.86,1.25,2.8,3.94-1.58,3-1.58,3a6.82,6.82,0,0,0-2.45-4.68C524.56,366.82,526.27,365,526.27,365Z"/><rect class="cls-13" x="520.43" y="372.13" width="0.46" height="1.14" rx="0.23"/><rect class="cls-13" x="524.74" y="372.13" width="0.46" height="1.14" rx="0.23"/><path class="cls-14" d="M524.64,375a.79.79,0,0,1-.82.76.82.82,0,0,1-.64-.29"/><circle class="cls-15" cx="519.81" cy="372.25" r="2.26"/><circle class="cls-15" cx="525.92" cy="372.25" r="2.26"/><path class="cls-15" d="M522.08,372.11a1.66,1.66,0,0,1,.86-.22,1.81,1.81,0,0,1,.72.14"/><rect class="cls-11" x="519.75" y="377.73" width="6.04" height="5.85" rx="0.39"/><path class="cls-16" d="M516.37,366.14s.08-3.5,4.9-3,6.12,2.67,6.17,3,.5,2.69-3.11,2.17S516.46,369.11,516.37,366.14Z"/><circle class="cls-17" cx="522.94" cy="374.01" r="0.33"/><path class="cls-11" d="M513.13,384.54s-1.43-2.18-2.46.19a62.26,62.26,0,0,0-3.52,9.71c-.54,2.46-.61,15.47-.61,15.47l2.22.34v-.08c.19-.9,1.68-12.29,2-13.71s4.65-9.84,4.65-9.84Z"/><path class="cls-11" d="M508.77,410.17a5.63,5.63,0,0,0-.2,1.69c.12.48.49.67,1.22,2.13-.24,1.18,0,2.79-.22,2.92-1.5-.46-.51-2.69-.93-2.74s-1,1.36-.71,2.26c.22.65,1.23,1.36.79,1.82s-1.64-1.26-2.22-2-.33-2.41,0-6.36Z"/><path class="cls-11" d="M532.76,383.63s2.33.84,3.9,4.86a41.78,41.78,0,0,1,2,5.95c.54,2.46.6,15.47.6,15.47l-2.21.34,0-.08c-.18-.9-1.67-12.29-2-13.71s-4.65-9.84-4.65-9.84Z"/><path class="cls-11" d="M537,410.17a5.77,5.77,0,0,1,.21,1.69c-.12.48-.5.67-1.22,2.13.23,1.18,0,2.79.22,2.92,1.5-.46.51-2.69.92-2.74s1,1.36.71,2.26c-.22.65-1.22,1.36-.78,1.82s1.64-1.26,2.21-2,.34-2.41,0-6.36Z"/><polygon class="cls-11" points="526.91 379.78 522.69 378.86 517.66 379.68 517.66 383.33 523.7 384.82 527.11 382.81 527.41 380.73 526.91 379.78"/><line class="cls-18" x1="533.04" y1="393.24" x2="537.71" y2="389.79"/><path class="cls-18" d="M516.94,380.37s.91,4.88,5.93,4.67,5.38-4.52,5.38-4.52"/><path class="cls-19" d="M533.83,382.71c-2.32-2.6-6.7-3.24-6.7-3.24-1.61.16-.22,1.94-4.22,1.94-3.5,0-2.87-1.94-4.27-1.94,0,0-4.38.64-6.7,3.24s-4.44,7.71-4.44,7.71L513,394.1l1-1.91.14,14.09,8.73.43,8.52-.3.36-14.22,1,1.91,5.54-3.68S536.15,385.3,533.83,382.71Z"/><polygon class="cls-20" points="514.19 406.65 511.51 456.52 516.26 456.63 522.72 413.15 529.15 456.52 534.26 456.52 531.31 406.69 514.19 406.65"/><path class="cls-16" d="M514.1,405.93a1.37,1.37,0,0,0,.24.75,3,3,0,0,0,1,.13,129.76,129.76,0,0,0,13.77,0c2.29,0,2.26,0,2.29-.51,0-.3,0-1.25,0-1.25L514.09,405Z"/><polygon class="cls-11" points="512.42 458.14 515.21 458.14 515.21 456.61 512.42 456.54 512.42 458.14"/><rect class="cls-11" x="530.08" y="456.52" width="2.78" height="1.62" transform="translate(1062.94 914.66) rotate(-180)"/><line class="cls-18" x1="513.01" y1="392.7" x2="508.62" y2="389.63"/><line class="cls-18" x1="532.76" y1="392.7" x2="537.15" y2="389.63"/><path class="cls-13" d="M512.26,457.88a11,11,0,0,0,3.19.08.73.73,0,0,1,.85.72,9.19,9.19,0,0,0,.06,1.71c.17.83,1.42,1.83,1.17,4.5H510s-.17-3.08.83-3.75c.61-.41.63-1.62.55-2.51A.71.71,0,0,1,512.26,457.88Z"/><rect class="cls-21" x="509.83" y="464.72" width="7.97" height="1.92" rx="0.73"/><path class="cls-22" d="M512.72,461.28a9.85,9.85,0,0,1,2.49,0"/><path class="cls-13" d="M533.19,457.88A11,11,0,0,1,530,458a.73.73,0,0,0-.85.72,7.74,7.74,0,0,1-.06,1.71c-.16.83-1.41,1.83-1.16,4.5h7.5s.16-3.08-.84-3.75c-.61-.41-.63-1.62-.55-2.51A.71.71,0,0,0,533.19,457.88Z"/><rect class="cls-21" x="527.66" y="464.72" width="7.97" height="1.92" rx="0.73" transform="translate(1063.28 931.37) rotate(-180)"/><path class="cls-22" d="M532.74,461.28a9.87,9.87,0,0,0-2.49,0"/><path class="cls-18" d="M518.41,380s.72,2.49,4.72,2.39,4.28-2.31,4.28-2.31"/></svg>