<?xml version="1.0" encoding="UTF-8"?>
<svg width="60px" height="42px" viewBox="0 0 60 42" version="1.1" xmlns="http://www.w3.org/2000/svg" xmlns:xlink="http://www.w3.org/1999/xlink">
    <title>接入交换机</title>
    <g id="图表" stroke="none" stroke-width="1" fill="none" fill-rule="evenodd">
        <g id="编组" fill="#3B81F1" fill-rule="nonzero">
            <polygon id="路径" points="31.5288485 41.6730255 0 26.2442351 0 11.3519405 31.5288485 25.5729674"></polygon>
            <polygon id="路径" points="31.5288485 41.6730255 59.7039501 26.2442351 59.7039501 11.4841207 31.5288485 25.5729674"></polygon>
            <path d="M27.959985,-1.5720758e-12 L59.7039501,11.4841207 L31.5288485,25.5729674 L4.33431069e-12,11.3519405 L27.959985,-1.5720758e-12 Z M25.6222109,14.8974781 L23.6291419,15.8849414 L30.4584486,18.8758408 L28.4601961,19.9125477 L36.3028837,20.4749612 L34.4497702,16.8127941 L32.4411506,17.8417257 L25.6222109,14.8974781 Z M34.0687804,10.7195493 L32.0834867,11.7044208 L38.9464863,14.4672448 L36.935275,15.5091352 L44.8116556,15.8979003 L42.9326244,12.3964227 L40.9343718,13.4331296 L34.0687804,10.7195493 Z M15.7734954,7.25694826 L17.6732608,10.6262457 L19.6455957,9.71912715 L26.4956365,12.5700711 L28.4809302,11.6033419 L21.6257059,8.81200863 L23.5850819,7.89452301 L15.7734954,7.25694826 Z M24.1397201,3.53257874 L26.0654031,6.75414543 L28.0455133,5.84184338 L34.9344306,8.46989535 L36.9197244,7.51612498 L30.0178482,4.92435776 L31.9953666,4.00946393 L24.1397201,3.53257874 Z" id="形状结合"></path>
        </g>
    </g>
</svg>