<?xml version="1.0" encoding="UTF-8"?>
<svg width="60px" height="60px" viewBox="0 0 60 60" version="1.1" xmlns="http://www.w3.org/2000/svg" xmlns:xlink="http://www.w3.org/1999/xlink">
    <title>应用</title>
    <g id="图表" stroke="none" stroke-width="1" fill="none" fill-rule="evenodd">
        <g id="编组" fill="#3B81F1" fill-rule="nonzero">
            <path d="M56.2767857,14.4441964 L29.8459821,27.5357143 L3.41517857,14.4441964 C1.96205357,13.6741071 2.0625,11.8459821 3.50892857,11.1696429 L27.9107143,0.482142857 C29.0758929,-0.09375 30.5223214,-0.09375 31.6875,0.482142857 L56.0825893,11.0758929 C57.7299107,11.8459821 57.7299107,13.6741071 56.2767857,14.4441964 Z M24.5223214,59.4107143 L2.16294643,47.2767857 C0.810267857,46.6004464 0.0334821429,45.4486607 0.0334821429,44.1026786 L0.0334821429,19.7410714 C0.0334821429,18.2946429 1.875,17.4308036 3.22767857,18.2008929 L25.59375,30.3348214 C26.8526786,31.0111607 27.6294643,32.1629464 27.6294643,33.5089286 L27.6294643,57.8705357 C27.7165179,59.2165179 25.8816964,60.1808036 24.5223214,59.4107143 Z M35.2700893,59.4107143 L57.6361607,47.2767857 C58.8950893,46.6004464 59.671875,45.4486607 59.671875,44.1026786 L59.671875,19.7410714 C59.671875,18.2946429 57.8303571,17.4308036 56.4776786,18.2008929 L34.0111607,30.234375 C32.7522321,30.9107143 31.9754464,32.0625 31.9754464,33.4084821 L31.9754464,57.7700893 C31.9754464,59.2165179 33.8169643,60.1808036 35.2700893,59.4107143 Z" id="形状"></path>
        </g>
    </g>
</svg>