<?xml version="1.0" encoding="UTF-8"?>
<svg width="55px" height="44px" viewBox="0 0 55 44" version="1.1" xmlns="http://www.w3.org/2000/svg" xmlns:xlink="http://www.w3.org/1999/xlink">
    <title>机柜</title>
    <g id="图表" stroke="none" stroke-width="1" fill="none" fill-rule="evenodd">
        <g id="编组" fill="#3B81F1" fill-rule="nonzero">
            <path d="M7.53909933,0.0212191358 L46.7222643,0.0212191358 C47.571576,0.0214206787 48.3683384,0.322765453 48.8609848,0.830108025 L54.2350589,6.35850309 L0.0263047138,6.35850309 L5.40004209,0.830108025 C5.89282645,0.322623515 6.68988668,0.0212191358 7.53943603,0.0212191358 L7.53909933,0.0212191358 Z M0.0263047138,6.35875 L54.2350589,6.35875 L54.2350589,41.5464043 C54.2350589,42.613071 53.0582912,43.4780093 51.6067761,43.4780093 L2.65458754,43.4780093 C1.20307239,43.4780093 0.0263047138,42.6133179 0.0263047138,41.5466512 L0.0263047138,6.35875 Z M49.6357323,19.0938117 L49.6357323,9.1350463 L4.62563131,9.1350463 L4.62563131,19.0938117 L49.6357323,19.0938117 L49.6357323,19.0938117 Z M43.8862374,13.9031944 L47.582197,13.9031944 L47.582197,16.6192438 L43.8862374,16.6192438 L43.8862374,13.9031944 Z M37.725968,13.9031944 L41.4219276,13.9031944 L41.4219276,16.6192438 L37.725968,16.6192438 L37.725968,13.9031944 Z M31.5660354,13.9031944 L35.2619949,13.9031944 L35.2619949,16.6192438 L31.5660354,16.6192438 L31.5660354,13.9031944 Z M6.59701178,11.1268981 L47.6643519,11.1268981 L47.6643519,12.0320833 L6.59701178,12.0320833 L6.59701178,11.1268981 Z M49.6353956,31.7083796 L49.6353956,21.7496142 L4.62596801,21.7496142 L4.62596801,31.7083796 L49.6353956,31.7083796 Z M43.8862374,26.5177623 L47.582197,26.5177623 L47.582197,29.2338117 L43.8862374,29.2338117 L43.8862374,26.5177623 Z M37.725968,26.5177623 L41.4219276,26.5177623 L41.4219276,29.2338117 L37.725968,29.2338117 L37.725968,26.5177623 Z M31.5660354,26.5177623 L35.2619949,26.5177623 L35.2619949,29.2338117 L31.5660354,29.2338117 L31.5660354,26.5177623 Z M6.59701178,23.741466 L47.6643519,23.741466 L47.6643519,24.6466512 L6.59701178,24.6466512 L6.59701178,23.741466 Z" id="形状"></path>
        </g>
    </g>
</svg>