<?xml version="1.0" encoding="UTF-8"?>
<svg width="60px" height="61px" viewBox="0 0 60 61" version="1.1" xmlns="http://www.w3.org/2000/svg" xmlns:xlink="http://www.w3.org/1999/xlink">
    <title>集群</title>
    <g id="图表" stroke="none" stroke-width="1" fill="none" fill-rule="evenodd">
        <g id="编组" fill="#3B81F1" fill-rule="nonzero">
            <polygon id="路径" points="27.6058824 16.3451225 41.3705882 8.39806373 42.9392157 11.1149265 29.1745098 19.0619853"></polygon>
            <path d="M44.5058824,8.31139706 L30.1490196,0.0172794118 L15.7882353,8.31139706 L15.7882353,24.8917892 L30.1490196,33.2015931 L44.5058824,24.9113971 L44.5058824,8.31139706 Z M39.8,22.1741422 L30.1490196,27.7466912 L30.1490196,16.7310049 L20.4941176,11.3192402 L20.4941176,11.0251225 L30.1490196,5.45257353 L39.8,11.0251225 L39.8,22.1741422 Z M0.0196078431,35.6878676 L0.0196078431,52.2682598 L14.3803922,60.5584559 L28.7411765,52.2682598 L28.7411765,35.6878676 L14.3803922,27.3976716 L0.0196078431,35.6878676 Z M14.3803922,32.8329657 L22.7686275,37.6761029 L12.9098039,43.366299 L4.7254902,38.7702206 L4.7254902,38.4055147 L14.3803922,32.8329657 Z M14.3803922,55.1270833 L14.3803922,46.1427696 L24.0352941,40.5702206 L24.0352941,49.5545343 L14.3803922,55.1270833 Z M45.3254902,27.3976716 L30.9803922,35.6878676 L30.9803922,52.2682598 L45.3411765,60.5584559 L59.7019608,52.2682598 L59.7019608,35.6878676 L45.3254902,27.3976716 Z M45.3254902,32.8329657 L53.6588235,37.6447304 L43.8,43.3349265 L35.6862745,38.7702206 L35.6862745,38.4055147 L45.3254902,32.8329657 Z M45.3254902,55.1270833 L45.3254902,46.0761029 L54.9803922,40.5035539 L54.9803922,49.5545343 L45.3254902,55.1270833 Z" id="形状"></path>
        </g>
    </g>
</svg>