<?xml version="1.0" encoding="UTF-8"?>
<svg width="60px" height="42px" viewBox="0 0 60 42" version="1.1" xmlns="http://www.w3.org/2000/svg" xmlns:xlink="http://www.w3.org/1999/xlink">
    <title>核心汇聚交换机</title>
    <g id="图表" stroke="none" stroke-width="1" fill="none" fill-rule="evenodd">
        <g id="编组" fill="#3B81F1" fill-rule="nonzero">
            <polygon id="路径" points="31.5276354 41.6689979 0 26.2394666 0 11.3375439 31.5276354 25.5708938"></polygon>
            <polygon id="路径" points="31.5276354 41.6730255 59.7204621 26.2434941 59.7204621 11.4865631 31.5276354 25.5829765"></polygon>
            <path d="M27.959229,2.26485497e-12 L59.7204621,11.4744805 L31.5276354,25.5708938 L4.08562073e-13,11.3496266 L27.959229,2.26485497e-12 Z M28.821124,11.8289046 L20.834499,12.6505241 L22.6106471,13.3311795 L16.009498,15.8564513 L18.3051996,16.7344564 L24.9063487,14.2091847 L26.6784692,14.8898401 L28.821124,11.8289046 Z M31.1732113,12.2840174 L33.3158661,15.3409253 L35.0920142,14.6602699 L40.0740894,16.569327 L42.369791,15.6913218 L37.3836883,13.7822647 L39.1598363,13.1016093 L31.1732113,12.2840174 Z M40.5090645,6.4722675 L33.9079155,9.00156681 L32.1317674,8.32091143 L29.9931401,11.3778194 L37.9797652,10.5602274 L36.2036171,9.879572 L42.8007385,7.35027269 L40.5090645,6.4722675 Z M18.7361472,6.63739694 L16.4444731,7.51942964 L21.4265483,9.42848677 L19.6544278,10.1091421 L27.6370253,10.9267341 L25.498398,7.86982621 L23.7222499,8.55048158 L18.7361472,6.63739694 Z" id="形状结合"></path>
        </g>
    </g>
</svg>