<?xml version="1.0" encoding="UTF-8"?>
<svg width="80px" height="80px" viewBox="0 0 80 80" version="1.1" xmlns="http://www.w3.org/2000/svg" xmlns:xlink="http://www.w3.org/1999/xlink">
    <title>防火墙</title>
    <g id="页面-1" stroke="none" stroke-width="1" fill="none" fill-rule="evenodd">
        <g id="防火墙备份-8">
            <rect id="矩形备份" x="0" y="0" width="80" height="80"></rect>
            <g id="防火墙备份">
                <rect id="矩形备份" x="0" y="0" width="79.0123457" height="78.0487805"></rect>
                <g id="编组" transform="translate(0.987654, 1.951220)">
                    <path d="M52.132113,63.0256518 L61.5598836,66.0131063 L61.5598836,77.9103588 L52.1313366,74.6644065 L52.132113,63.0256518 Z M25.5250461,54.606462 L35.4809549,57.7574321 C35.2011006,58.1052214 34.8397625,58.4217137 34.3972172,58.7054548 C34.3387774,58.7409753 34.3225501,58.8156216 34.3450298,58.8760956 C34.3774843,58.9402108 34.4494046,58.9686271 34.5168797,58.9473149 C35.1785363,58.7307894 35.8947401,58.4582076 36.6171246,58.1171504 L50.3583085,62.4649565 L50.3573366,74.0534065 L25.5243366,65.5044065 L25.5243142,59.2115687 C25.9852439,59.3210748 26.4523061,59.419086 26.9404138,59.5092869 C27.0113945,59.5234951 27.077207,59.4843334 27.0969399,59.4203967 C27.1203592,59.3528186 27.0798092,59.2816351 27.0250196,59.2532187 C26.5075415,59.0307027 25.9855696,58.7458043 25.5241238,58.3821447 L25.5250461,54.606462 Z M3.0243366,47.48388 L16.864847,51.8654806 C16.9051928,52.1436794 16.9625295,52.4211332 17.0384266,52.6967594 C17.7715738,55.3295755 20.0300474,57.3553288 23.7496647,58.7141303 L23.7503366,64.8944065 L3.0243366,57.7603729 L3.0243366,47.48388 Z M42.0955305,47.3307612 L61.5598836,53.4938324 L61.5598836,64.1733249 L39.8928622,57.3135688 L39.8938666,55.9414537 C40.6498241,55.2259106 41.301939,54.3800106 41.7631264,53.3813928 C42.5762299,51.6234385 42.6869604,49.5942781 42.0955305,47.3307612 Z M30.1516942,43.5583035 L30.8939842,43.7929864 C31.9972136,44.7934918 33.2401288,46.7742309 32.054746,50.2423532 C31.5370279,52.2041503 32.948763,53.614471 33.0090821,53.6749449 C33.0559207,53.7157487 33.1296481,53.7283147 33.1846184,53.6909737 C33.2368058,53.658916 33.2565387,53.5895174 33.2368058,53.5290791 C33.1899672,53.4099876 32.1321959,50.5980569 34.4234194,49.0489747 C34.2963842,49.7694499 34.109066,51.5514674 34.9302591,52.522513 C35.647173,53.3799961 36.3402281,54.7669398 36.1738559,56.1359766 L24.763202,52.5223549 C25.9359866,49.7857704 25.689669,48.3397097 25.4170756,47.6974145 C26.1624813,48.1135565 27.6470764,49.191342 27.2742832,51.083562 C27.2608388,51.1387524 27.2895708,51.19737 27.3391922,51.2259648 C27.3932229,51.2543812 27.450723,51.2507399 27.4957184,51.2152195 C27.5392325,51.1808685 31.7083903,47.7931896 30.1516942,43.5583035 Z M52.132113,38.4514298 L61.5598836,41.2987104 L61.5598836,51.6628119 L52.132113,48.6753574 L52.132113,38.4514298 Z M14.8822194,38.7230165 L20.6014443,40.5335752 C20.5260205,41.8017357 20.2318391,43.115724 19.4708525,44.0193572 C18.2581103,45.4626026 17.0623544,47.6773837 16.8304524,50.0107754 L14.8822194,49.3937482 L14.8822194,38.7230165 Z M3.0243366,34.9646061 L13.1084149,38.1535604 L13.1084149,48.833053 L3.0243366,45.6440987 L3.0243366,34.9646061 Z M39.5418951,34.6464888 L50.3583085,37.9170171 L50.3583085,48.1146622 L41.3933905,45.2782593 C41.3837504,45.2552249 41.3740454,45.2321699 41.3642757,45.2090943 C38.5041157,39.0915984 39.0118883,35.9489159 39.5418951,34.6464888 Z M24.1100921,41.6450349 L25.4207229,42.060156 C25.2317039,43.7908928 24.3679885,45.1409422 23.8334905,45.8281489 C24.0217484,45.1612221 24.2522188,44.0335654 24.2142347,42.7352322 C24.2033487,42.3922486 24.1718523,42.0255994 24.1100921,41.6450349 Z M29.3437655,31.5636716 L38.5585712,34.3482938 C36.945804,35.3611194 34.4200794,37.5401497 34.905864,41.0580623 C34.7510639,40.9210183 34.538951,40.7266317 34.287248,40.4794387 L34.0913246,40.2842137 C32.5689918,38.7454285 29.9321657,35.5687189 29.3437655,31.5636716 Z M3.0243366,23.6017662 L23.7512417,29.8745444 L23.7512417,39.6867115 L23.4685726,39.5969375 C22.920143,38.474683 22.0012679,37.3756333 20.4980125,36.5158775 C20.4521135,36.4892819 20.3962397,36.490924 20.3512444,36.5229816 C20.3053454,36.558502 20.2856125,36.6102297 20.2990569,36.665206 C20.30387,36.6863373 20.491206,37.5319461 20.5785067,38.6823816 L3.0243366,33.1248248 L3.0243366,23.6017662 Z M3.0243366,9.4004065 L61.5598836,26.2212644 L61.5598836,39.4764508 L39.8928622,32.9233249 L39.8928622,21.2100505 L38.1190578,21.2100505 L38.1190578,32.3889123 L29.2280967,29.7010275 C29.266291,28.0854933 29.6716789,26.367212 30.6197,24.5910895 C30.6394329,24.5377197 30.6340841,24.4772814 30.5916908,24.4344785 C30.5538875,24.3936746 30.4908216,24.379288 30.4414171,24.3989581 C30.3449932,24.4381197 28.1205219,25.3771078 26.3551483,27.7479429 C26.1497027,28.0219285 25.9461553,28.3223393 25.7513037,28.6500317 L14.8822194,25.3626997 L14.8822194,13.5968601 L13.1084149,13.5968601 L13.1084149,24.8195262 L3.0243366,21.7707457 L3.0243366,9.4004065 Z" id="形状结合" fill="#416480" fill-rule="nonzero"></path>
                    <g transform="translate(17.777778, 29.268293)"></g>
                    <path d="M75.7503193,52.7403981 L75.7503193,63.0168909 L61.5598836,77.9103588 L61.5598836,66.2146061 L75.7503193,52.7403981 Z M75.7503193,50.2347911 L61.5598836,63.7089992 L61.5598836,53.6164844 L75.7503193,41.19358 L75.7503193,50.2347911 Z M75.7503193,38.819386 L61.5598836,51.2422904 L61.5598836,41.4826885 L75.7503193,30.1286095 L75.7503193,38.819386 Z M61.5598836,26.2212644 L75.7503193,14.8321419 L75.7503193,27.8770676 L61.5598836,39.2399075 L61.5598836,26.2212644 Z" id="形状结合" fill="#7B95A1" fill-rule="nonzero"></path>
                    <polygon id="路径" fill="#3ED6FF" fill-rule="nonzero" points="3.0243366 9.4004065 61.5598836 26.2212644 75.7503193 14.8321419 20.3721442 1.11262966"></polygon>
                    <polygon id="路径" fill="#AFC0C8" fill-rule="nonzero" points="0.186249468 8.96236333 61.8791684 26.0986123 78.6948347 14.7795767 20.3721442 0.0613260443"></polygon>
                    <polygon id="路径" fill="#87A9B8" fill-rule="nonzero" opacity="0.798409598" points="0.062083156 10.8371881 0.062083156 8.96236333 61.8791684 26.0986123 61.8791684 28.2713064"></polygon>
                    <polygon id="路径" fill="#87A9B8" fill-rule="nonzero" opacity="0.798409598" points="78.6948347 14.7795767 78.6948347 16.8646622 61.8791684 28.2713064 61.8791684 26.0986123"></polygon>
                </g>
            </g>
        </g>
    </g>
</svg>