<?xml version="1.0" encoding="UTF-8"?>
<svg width="42px" height="42px" viewBox="0 0 42 42" version="1.1" xmlns="http://www.w3.org/2000/svg" xmlns:xlink="http://www.w3.org/1999/xlink">
    <title>防火墙</title>
    <g id="图表" stroke="none" stroke-width="1" fill="none" fill-rule="evenodd">
        <g id="编组-70" fill="#3B81F1" fill-rule="nonzero">
            <path d="M34.173473,35.8933327 L34.2060991,35.8933327 C35.0217507,35.8933327 35.6835937,35.2314897 35.6835937,34.4158381 L35.6835937,34.4111772 C35.6835937,33.5955256 35.0217507,32.9336825 34.2060991,32.9336825 L34.173473,32.9336825 C33.3578214,32.9336825 32.6959783,33.5955256 32.6959783,34.4111772 L32.6959783,34.4158381 C32.6959783,35.2361506 33.3578214,35.8933327 34.173473,35.8933327 Z" id="路径"></path>
            <path d="M28.2122248,29.9600497 L28.2448509,29.9600497 C29.0605025,29.9600497 29.7223455,29.2982067 29.7223455,28.482555 L29.7223455,28.4778942 C29.7223455,27.6622425 29.0605025,27.0003995 28.2448509,27.0003995 L28.2122248,27.0003995 C27.3965732,27.0003995 26.7347301,27.6622425 26.7347301,28.4778942 L26.7347301,28.482555 C26.7347301,29.2982067 27.3965732,29.9600497 28.2122248,29.9600497 Z" id="路径"></path>
            <path d="M27.5876687,5.45787464 C25.1919833,5.32737038 22.9128196,4.60493608 20.9738991,3.3791282 L20.9738991,10.6267756 L27.9978249,10.6267756 C28.2821378,8.89759411 28.1562944,7.13112571 27.5876687,5.45787464 L27.5876687,5.45787464 Z" id="路径"></path>
            <path d="M34.173473,29.9600497 L34.2060991,29.9600497 C35.0217507,29.9600497 35.6835937,29.2982067 35.6835937,28.482555 L35.6835937,28.4778942 C35.6835937,27.6622425 35.0217507,27.0003995 34.2060991,27.0003995 L34.173473,27.0003995 C33.3578214,27.0003995 32.6959783,27.6622425 32.6959783,28.4778942 L32.6959783,28.482555 C32.6959783,29.2982067 33.3578214,29.9600497 34.173473,29.9600497 Z" id="路径"></path>
            <path d="M28.2122248,35.8933327 L28.2448509,35.8933327 C29.0605025,35.8933327 29.7223455,35.2314897 29.7223455,34.4158381 L29.7223455,34.4111772 C29.7223455,33.5955256 29.0605025,32.9336825 28.2448509,32.9336825 L28.2122248,32.9336825 C27.3965732,32.9336825 26.7347301,33.5955256 26.7347301,34.4111772 L26.7347301,34.4158381 C26.7347301,35.2361506 27.3965732,35.8933327 28.2122248,35.8933327 Z" id="路径"></path>
            <path d="M20.9692383,19.4824219 L20.9692383,10.6221147 L13.9499734,10.6221147 C14.5652077,14.313521 17.0541104,17.7625621 20.9692383,19.4824219 L20.9692383,19.4824219 Z" id="路径"></path>
            <path d="M22.2929244,35.8933327 L22.3255504,35.8933327 C23.1412021,35.8933327 23.8030451,35.2314897 23.8030451,34.4158381 L23.8030451,34.4111772 C23.8030451,33.5955256 23.1412021,32.9336825 22.3255504,32.9336825 L22.2929244,32.9336825 C21.4772727,32.9336825 20.8154297,33.5955256 20.8154297,34.4111772 L20.8154297,34.4158381 C20.8200906,35.2361506 21.4772727,35.8933327 22.2929244,35.8933327 Z" id="路径"></path>
            <path d="M6.97265625,29.9600497 L10.9204102,29.9600497 C11.4750533,29.9600497 11.9271573,29.5079457 11.9271573,28.9533026 L11.9271573,28.0118075 C11.9271573,27.4571644 11.4750533,27.0050604 10.9204102,27.0050604 L6.97265625,27.0050604 C6.41801314,27.0050604 5.96590909,27.4571644 5.96590909,28.0118075 L5.96590909,28.9533026 C5.96590909,29.5079457 6.41335227,29.9600497 6.97265625,29.9600497 Z" id="路径"></path>
            <path d="M6.97265625,35.8933327 L10.9204102,35.8933327 C11.4750533,35.8933327 11.9271573,35.4412287 11.9271573,34.8865856 L11.9271573,33.9450906 C11.9271573,33.3904474 11.4750533,32.9383434 10.9204102,32.9383434 L6.97265625,32.9383434 C6.41801314,32.9383434 5.96590909,33.3904474 5.96590909,33.9450906 L5.96590909,34.8865856 C5.96590909,35.4458896 6.41335227,35.8933327 6.97265625,35.8933327 Z" id="路径"></path>
            <path d="M22.2929244,29.9600497 L22.3255504,29.9600497 C23.1412021,29.9600497 23.8030451,29.2982067 23.8030451,28.482555 L23.8030451,28.4778942 C23.8030451,27.6622425 23.1412021,27.0003995 22.3255504,27.0003995 L22.2929244,27.0003995 C21.4772727,27.0003995 20.8154297,27.6622425 20.8154297,28.4778942 L20.8154297,28.482555 C20.8200906,29.2982067 21.4772727,29.9600497 22.2929244,29.9600497 Z" id="路径"></path>
            <path d="M37.1797319,1.00186526e-12 C37.8788619,1.00186526e-12 38.4755802,0.483382832 38.6319286,1.15059452 L38.6572266,1.28639915 L41.677468,23.9195668 L41.7333984,40.0321822 C41.7333984,40.9241248 41.0473602,41.6571074 40.1746209,41.7317927 L40.0275213,41.7380593 L1.70587713,41.7380593 C0.813934472,41.7380593 0.0809518914,41.0520211 0.0062665856,40.1792818 L-3.55271368e-15,40.0321822 L-3.55271368e-15,23.9568537 L3.1833718,1.28173828 C3.28387174,0.591347434 3.84317571,0.0689116391 4.5233254,0.00630400398 L4.66086648,1.00186526e-12 L37.1797319,1.00186526e-12 Z M38.7504439,23.9195668 L2.98295455,23.9195668 L2.98295455,38.7597656 L38.7504439,38.7597656 L38.7504439,23.9195668 Z M20.9692383,2.30712891 C18.9790483,3.70072798 16.4295543,4.56298828 13.6796431,4.56764915 C11.1441317,10.5242365 13.9686168,18.0328924 20.9692383,20.8713601 C27.9745206,18.0328924 30.7943448,10.5242365 28.2634943,4.56764915 C25.5089222,4.56298828 22.9594283,3.70072798 20.9692383,2.30712891 Z" id="形状结合"></path>
            <path d="M16.3316761,35.8933327 L16.3643022,35.8933327 C17.1799538,35.8933327 17.8417969,35.2314897 17.8417969,34.4158381 L17.8417969,34.4111772 C17.8417969,33.5955256 17.1799538,32.9336825 16.3643022,32.9336825 L16.3316761,32.9336825 C15.5160245,32.9336825 14.8541815,33.5955256 14.8541815,34.4111772 L14.8541815,34.4158381 C14.8588423,35.2361506 15.5160245,35.8933327 16.3316761,35.8933327 Z" id="路径"></path>
            <path d="M16.3316761,29.9600497 L16.3643022,29.9600497 C17.1799538,29.9600497 17.8417969,29.2982067 17.8417969,28.482555 L17.8417969,28.4778942 C17.8417969,27.6622425 17.1799538,27.0003995 16.3643022,27.0003995 L16.3316761,27.0003995 C15.5160245,27.0003995 14.8541815,27.6622425 14.8541815,28.4778942 L14.8541815,28.482555 C14.8588423,29.2982067 15.5160245,29.9600497 16.3316761,29.9600497 Z" id="路径"></path>
        </g>
    </g>
</svg>