<?xml version="1.0" encoding="UTF-8"?>
<svg width="66px" height="66px" viewBox="0 0 66 66" version="1.1" xmlns="http://www.w3.org/2000/svg" xmlns:xlink="http://www.w3.org/1999/xlink">
    <title>9D9A6FE2-B02A-4CCB-8676-0F2F85DAEFBC</title>
    <g id="页面-1" stroke="none" stroke-width="1" fill="none" fill-rule="evenodd">
        <g id="节点" transform="translate(-3212.000000, -245.000000)">
            <g id="节点A备份" transform="translate(2122.000000, 2.000000)">
                <g id="1" transform="translate(52.000000, 164.000000)">
                    <g id="防火墙" transform="translate(1038.000000, 79.000000)">
                        <g id="背景区域" fill="#D8D8D8" opacity="0">
                            <rect id="矩形" x="0" y="0" width="66" height="66"></rect>
                            <rect id="矩形" x="6" y="6" width="58" height="58"></rect>
                        </g>
                        <g id="图形" transform="translate(14.154270, 10.545455)">
                            <path d="M35.8449421,36.4691818 L35.8449421,42.9001818 L34.8614641,43.51389 L23.9669421,50.2987573 L23.9669421,43.9901265 L35.8449421,36.4691818 Z M35.8449421,29.4701818 L35.8449421,35.9001818 L34.9943194,36.4311506 L23.9669421,43.2987573 L23.9669421,36.9901265 L34.8404025,30.1068313 L35.8449421,29.4701818 Z M35.8449421,22.4701818 L35.8449421,28.9001818 L34.8306997,29.5330494 L23.9669421,36.2987573 L23.9669421,29.9901265 L34.705521,23.1922161 L35.8449421,22.4701818 Z M35.8449421,15.4701818 L35.8449421,21.9001818 L34.8306997,22.5330494 L23.9669421,29.2987573 L23.9669421,22.9901265 L34.705521,16.1922161 L35.8449421,15.4701818 Z" id="形状结合" fill="#ABBCC4"></path>
                            <path d="M15.495,38.6271818 L23.9669421,43.9901265 L23.9669421,50.2987573 L15.495,45.0221818 L15.495,38.6271818 Z M7.495,33.5621818 L14.845,38.2151818 L14.845,44.6171818 L7.495,40.0401818 L7.495,33.5621818 Z M15.495,31.6271818 L23.9669421,36.9901265 L23.9669421,43.2987573 L15.495,38.0221818 L15.495,31.6271818 Z M-9.09494702e-13,28.8181818 L6.845,33.1511818 L6.845,39.6351818 L-9.09494702e-13,35.3726757 L-9.09494702e-13,28.8181818 Z M7.495,26.5621818 L14.845,31.2151818 L14.845,37.6171818 L7.495,33.0401818 L7.495,26.5621818 Z M15.495,24.6271818 L23.9669421,29.9901265 L23.9669421,36.2987573 L15.495,31.0221818 L15.495,24.6271818 Z M-9.09494702e-13,21.8181818 L6.845,26.1511818 L6.845,32.6351818 L-9.09494702e-13,28.3726757 L-9.09494702e-13,21.8181818 Z M7.495,19.5621818 L14.845,24.2151818 L14.845,30.6171818 L7.495,26.0401818 L7.495,19.5621818 Z M15.495,17.6271818 L23.9669421,22.9901265 L23.9669421,29.2987573 L15.495,24.0221818 L15.495,17.6271818 Z M0,14.8181818 L6.845,19.1511818 L6.845,25.6351818 L0,21.3726757 L0,14.8181818 Z M7.495,12.5621818 L14.845,17.2151818 L14.845,23.6171818 L7.495,19.0401818 L7.495,12.5621818 Z M0,7.81818182 L6.845,12.1511818 L6.845,18.6351818 L0,14.3726757 L0,7.81818182 Z" id="形状结合" fill="#416480"></path>
                            <path d="M11.691,0.181442983 L35.942,15.408443 L23.9669421,22.9901265 L-7.15729698e-11,7.81818182 L11.691,0.181442983 Z" id="形状结合" fill="#EEF3F7"></path>
                        </g>
                    </g>
                </g>
            </g>
        </g>
    </g>
</svg>