<?xml version="1.0" encoding="UTF-8"?>
<svg width="60px" height="42px" viewBox="0 0 60 42" version="1.1" xmlns="http://www.w3.org/2000/svg" xmlns:xlink="http://www.w3.org/1999/xlink">
    <title>交换机</title>
    <g id="图表" stroke="none" stroke-width="1" fill="none" fill-rule="evenodd">
        <g id="编组备份-5" fill="#3B81F1" fill-rule="nonzero">
            <path d="M59.3345664,17.0602575 L59.3345664,41.4400298 L13.7276745,41.4400298 L13.7276745,17.0602575 L59.3345664,17.0602575 Z M29.4663278,22.2507296 L20.2024279,22.2507296 L20.2024279,28.2060938 L29.4663278,28.2060938 L29.4654279,27.0957296 L35.7394279,29.7537296 L29.4654279,32.4127296 L29.4663278,31.8053671 L20.2024279,31.8053671 L20.2024279,37.7607313 L29.4663278,37.7607313 L29.4654279,34.8777296 L44.0014279,34.8777296 L44.0020994,37.7607313 L53.2659993,37.7607313 L53.2659993,31.8053671 L44.0020994,31.8053671 L44.0014279,32.6237296 L37.2304279,29.7537296 L44.0014279,26.8847296 L44.0020994,28.2060938 L53.2659993,28.2060938 L53.2659993,22.2507296 L44.0020994,22.2507296 L44.0014279,24.9507296 L29.4654279,24.9507296 L29.4663278,22.2507296 Z M36.4854279,30.0697296 L44.0014279,33.2547296 L44.0014279,34.5057296 L29.4654279,34.5057296 L29.4654279,33.0447296 L36.4854279,30.0697296 Z M44.0014279,25.3227296 L44.0014279,26.2527296 L36.4854279,29.4377296 L29.4654279,26.4627296 L29.4654279,25.3227296 L44.0014279,25.3227296 Z" id="形状结合"></path>
            <path d="M45.3218489,0.930525651 L58.7188733,16.5633568 L13.3970245,16.5633568 L0.712607678,0.930525651 L45.3218489,0.930525651 Z M32.3523889,2.97344632 L33.7806892,3.90744632 L27.0790921,3.90820776 L27.9536892,7.82644632 L17.3876275,3.90820776 L10.7406892,3.90744632 L9.45197784,2.97344632 L4.56068918,4.46652318 L13.8245891,6.14146937 L12.5386892,5.21044632 L18.0446892,5.21044632 L28.1876892,8.87244632 L29.0316892,12.6544463 L23.6376892,12.6544463 L21.9483168,11.5385182 L17.3876275,13.2134644 L26.7642084,14.719388 L25.3296892,13.7714463 L32.0673459,13.7717798 L31.1966892,9.95844632 L41.7588104,13.7717798 L48.2956892,13.7714463 L50.0250596,14.8884106 L54.4432272,13.2134644 L44.8998012,11.5800077 L46.5646892,12.6544463 L40.9716892,12.6544463 L30.9656892,8.94344632 L30.1136892,5.21044632 L35.7729058,5.21094372 L37.1981212,6.14146937 L41.7588104,4.46652318 L32.3523889,2.97344632 Z" id="形状结合"></path>
            <path d="M0.570086155,1.44398324 L13.1977104,17.0602575 L13.3970245,40.9431291 L0.570086155,22.8909313 L0.570086155,1.44398324 Z M2.42286614,8.37473094 L4.27564613,13.3995695 L4.36077999,12.4297309 L5.89977999,15.0567309 L6.84177999,20.9007309 L5.39877999,22.5607309 L3.90777999,20.0157309 L3.99751484,19.0892344 L1.85277999,17.3077773 L3.70555998,22.1465108 L3.78077999,21.3457309 L5.55833997,24.3797723 L7.12577999,22.6597309 L8.12372763,28.8462955 L9.89677999,31.8757309 L9.77773255,33.0153876 L11.9718091,34.6155546 L10.1190291,29.7768212 L10.03578,30.5647309 L8.64577999,28.1927309 L7.61877999,22.1177309 L9.12137839,20.4715646 L9.11377999,20.4277309 L10.51478,23.0167309 L10.3454149,24.00554 L12.3272372,25.7602528 L10.8988848,20.7780716 L10.72878,21.7667309 L8.83633531,18.6105132 L7.32077999,20.3517309 L6.27094764,14.14399 L4.48077999,11.0877309 L4.56068918,10.2017086 L2.42286614,8.37473094 Z" id="形状结合"></path>
        </g>
    </g>
</svg>