<?xml version="1.0" encoding="UTF-8"?>
<svg width="60px" height="47px" viewBox="0 0 60 47" version="1.1" xmlns="http://www.w3.org/2000/svg" xmlns:xlink="http://www.w3.org/1999/xlink">
    <title>机房</title>
    <g id="图表" stroke="none" stroke-width="1" fill="none" fill-rule="evenodd">
        <g id="编组" fill="#3B81F1" fill-rule="nonzero">
            <path d="M13.1998339,8.94827694 C13.1998339,9.44095735 12.8246965,9.85110756 12.334517,9.89362316 L2.95608255,10.4288192 C2.73493709,10.4454567 2.51680291,10.369583 2.35371806,10.2192984 C2.19063322,10.0690138 2.0972216,9.85779448 2.09576747,9.63602882 L2.09576747,8.79572107 C2.09576747,8.32804979 2.48090849,7.92540237 2.95858348,7.89038956 L12.337018,7.22514594 C12.5650388,7.20945145 12.7890357,7.29108728 12.953487,7.44981851 C13.1179383,7.60854974 13.2074496,7.82951748 13.1998339,8.0579509 L13.1998339,8.95077787 L13.1998339,8.94827694 Z M13.1998339,13.4174136 C13.2045767,13.906927 12.8233232,14.3135239 12.334517,14.3402516 L2.95608255,14.6653706 C2.73273477,14.6755716 2.51485261,14.5944423 2.35256845,14.4406497 C2.19028429,14.2868572 2.09757337,14.0736454 2.09576747,13.8500721 L2.09576747,13.0047625 C2.09576747,12.5370912 2.48090849,12.1419465 2.95858348,12.1169374 L12.337018,11.6667725 C12.5663225,11.6577157 12.7891501,11.7439658 12.9525994,11.9050463 C13.1160487,12.0661268 13.2055424,12.2876716 13.1998339,12.5170839 L13.1998339,13.4149127 L13.1998339,13.4174136 Z M13.1998339,17.8815484 C13.2068907,18.368941 12.8217308,18.7719118 12.334517,18.78688 L2.95608255,18.8969203 C2.73106853,18.9022877 2.51330692,18.8171611 2.35158811,18.6606136 C2.18986929,18.504066 2.09771309,18.2891849 2.09576747,18.0641153 L2.09576747,17.2238076 C2.09576747,16.7561363 2.48090849,16.3684943 2.95858348,16.3559897 L12.337018,16.1184027 C12.5682053,16.1149379 12.7908351,16.2057675 12.9536183,16.3699662 C13.1164015,16.5341649 13.2053002,16.7575728 13.1998339,16.9887214 L13.1998339,17.8815484 L13.1998339,17.8815484 Z M13.1998339,22.3506851 C13.2045389,22.5831994 13.1154532,22.8078205 12.9526621,22.9739051 C12.7898709,23.1399897 12.567079,23.233556 12.334517,23.2335084 L2.95608255,23.1334717 C2.48441655,23.1321363 2.1012342,22.7522957 2.09576747,22.2806594 L2.09576747,21.4378508 C2.09576747,20.9701795 2.48090849,20.5925412 2.95858348,20.5925412 L12.337018,20.5675321 C12.5696153,20.5708206 12.7913371,20.6665593 12.9532236,20.8336074 C13.1151101,21.0006556 13.2038449,21.2252721 13.1998339,21.4578581 L13.1998339,22.3506851 Z M14.4327854,3.04361462 L0.865316891,4.28406886 C0.387853857,4.32436385 0.0160493856,4.71551075 0,5.19440223 L0,44.7413848 C0.0170221138,45.2203173 0.387977041,45.6116426 0.865316891,45.6542191 C5.38697276,46.0668702 9.90862863,46.5270387 14.4327854,46.9396898 C14.4377872,46.9396898 14.5253193,46.9546953 14.5903432,46.9396898 L20.0623471,46.161905 L20.0623471,4.42662107 L14.7754109,3.08112835 C14.6647875,3.05028172 14.5500483,3.03678299 14.4352864,3.04111369 L14.4302845,3.04111369 L14.4327854,3.04361462 Z M57.8962022,13.8525729 C57.8951363,14.0768312 57.8023021,14.2908751 57.6393009,14.4448995 C57.4762996,14.5989239 57.2573455,14.6794974 57.0333863,14.6678716 L47.6549518,14.3427525 C47.1677132,14.313505 46.7885987,13.9080173 46.7921112,13.4199145 L46.7921112,12.5295885 C46.7921112,12.0344071 47.1772768,11.6542679 47.6574527,11.6767761 L57.0333863,12.1294419 C57.5085603,12.1519502 57.8962022,12.5470949 57.8962022,13.0147662 L57.8962022,13.8575748 L57.8962022,13.8525729 Z M57.0333863,18.9019221 L47.6549518,18.7893809 C47.1687233,18.7730795 46.7850488,18.3704994 46.7921358,17.8840493 L46.7921358,16.9912224 C46.7866479,16.7596325 46.8758854,16.5358288 47.0392174,16.3715527 C47.2025493,16.2072766 47.425835,16.1167506 47.6574527,16.1209037 L57.0333863,16.3584907 C57.5085603,16.3684943 57.8886995,16.7511345 57.8962022,17.2263084 L57.8962022,18.0666162 C57.8942698,18.2921306 57.8017703,18.5074033 57.6395046,18.6640249 C57.477239,18.8206466 57.2588278,18.9054702 57.0333863,18.8994212 L57.0333863,18.9019221 Z M57.8962022,22.2856613 C57.8893663,22.7572909 57.5050654,23.1360222 57.0333863,23.1359727 L47.6549518,23.2360093 C47.4232657,23.2353745 47.2015111,23.1418559 47.0393372,22.9763915 C46.8771633,22.8109271 46.7881172,22.587339 46.7921358,22.3556869 L46.7921358,21.4578581 C46.7921358,20.9626768 47.1772768,20.5650311 47.6574527,20.5650311 L57.0333863,20.5900403 C57.505212,20.5872571 57.890708,20.9660488 57.8962022,21.4378508 L57.8962022,22.2806594 L57.8962022,22.2856613 Z M46.7921303,8.0579509 C46.7921303,7.56527049 47.1797777,7.19263401 47.6574527,7.22514594 L57.0358871,7.89038956 C57.5110612,7.92540237 57.8861986,8.31554524 57.8962023,8.79572107 L57.8962023,9.63602882 C57.8962023,9.85875646 57.8030073,10.0713212 57.6390004,10.2220174 C57.4749935,10.3727136 57.2553097,10.44773 57.0333863,10.4288192 L47.6574527,9.89362316 C47.1672293,9.85317888 46.7904702,9.44266393 46.7921303,8.95077787 L46.7921303,8.0529491 L46.7921303,8.05544998 L46.7921303,8.0579509 Z M59.9919697,5.19940408 C59.9750929,4.72134005 59.6055096,4.33033164 59.1291537,4.28656979 L45.5616852,3.05111735 C45.4459097,3.04620137 45.3301224,3.06056913 45.2190597,3.0936329 L39.9346245,4.43412381 L39.9346245,46.1669068 L45.4066284,46.9471926 C45.4716522,46.9621981 45.5566833,46.9471926 45.5616852,46.9471926 C50.085842,46.5345414 54.6099988,46.071872 59.1316547,45.6617218 C59.6089945,45.6191453 59.9799494,45.22782 59.9969716,44.7488875 L59.9969716,5.20190501 L59.9919697,5.19940408 Z M36.240775,6.32981805 C36.2414359,6.58849912 36.1393118,6.83684903 35.9568656,7.02023318 C35.7744195,7.20361733 35.5265966,7.30701372 35.2679155,7.30767615 L24.7265551,7.30767615 C24.1898346,7.30492371 23.7561869,6.86904657 23.7561869,6.33231898 L23.7561869,5.35696176 C23.7548698,5.09827993 23.856357,4.84966506 24.0383347,4.66581133 C24.2203123,4.48195761 24.4678733,4.3779259 24.7265551,4.37660274 L35.2679155,4.37660274 C35.8056135,4.37798144 36.240775,4.81426019 36.240775,5.35195995 L36.240775,6.33231898 L36.240775,6.32981805 Z M36.240775,11.2116058 C36.2414362,11.4700564 36.1392325,11.7181492 35.9567145,11.9011364 C35.7741965,12.0841236 35.5263669,12.186963 35.2679155,12.186963 L24.7265551,12.186963 C24.4685373,12.1863006 24.2213505,12.0831677 24.0393734,11.9002525 C23.8573963,11.7173374 23.7555356,11.4696236 23.7561965,11.2116058 L23.7561965,10.2362486 C23.7561965,9.69952104 24.1898346,9.2636439 24.7265551,9.26089146 L35.2679155,9.26089146 C35.8056135,9.26227016 36.240775,9.69854889 36.240775,10.2362486 L36.240775,11.2116058 L36.240775,11.2116058 Z M36.2407718,16.0908927 C36.2407718,16.6285924 35.8056135,17.0648711 35.2679155,17.0662498 L24.7265551,17.0662498 C24.4685373,17.0655874 24.2213505,16.9624545 24.0393734,16.7795394 C23.8573963,16.5966242 23.7555356,16.3489104 23.7561965,16.0908927 L23.7561965,15.1155355 C23.7561965,14.5753376 24.1888582,14.1401783 24.7265551,14.1401783 L35.2679155,14.1401783 C35.8056135,14.141557 36.2407718,14.5778357 36.2407718,15.1155355 L36.2407718,16.0908927 L36.2407718,16.0908927 Z M36.240775,20.9726804 C36.2414362,21.231131 36.1392325,21.4792238 35.9567145,21.662211 C35.7741965,21.8451982 35.5263669,21.9480376 35.2679155,21.9480376 L24.7265551,21.9480376 C24.4685373,21.9473752 24.2213505,21.8442423 24.0393734,21.6613271 C23.8573963,21.478412 23.7555356,21.2306982 23.7561965,20.9726804 L23.7561965,19.9973232 C23.754814,19.4596203 24.1888574,19.0222208 24.7265551,19.0194652 L35.2679155,19.0194652 C35.8056135,19.0208438 36.240775,19.4571226 36.240775,19.9948223 L36.240775,20.9701795 L36.240775,20.9726804 Z M29.9959849,38.3790548 C28.1185045,38.3735374 26.6005933,36.8477904 26.6047345,34.9703065 C26.6005909,33.0924147 28.1181011,31.5659516 29.9959849,31.5590573 C30.8984864,31.5610442 31.7631972,31.9216398 32.3997199,32.5614459 C33.0362425,33.201252 33.3923843,34.0678067 33.3897425,34.9703065 C33.3922286,36.8459934 31.8741727,38.3715521 29.9984858,38.3790548 L29.9959849,38.3790548 Z M37.6237782,0 L22.3706924,0 C22.112241,0 21.8644114,0.102839439 21.6818934,0.285826636 C21.4993754,0.468813833 21.3971717,0.716906603 21.3978329,0.975357169 L21.3978329,45.9718354 C21.3978329,46.5120332 21.8354964,46.9471926 22.3706924,46.9471926 L37.6237782,46.9471926 C37.881796,46.9465301 38.1289828,46.8433972 38.3109599,46.6604821 C38.4929371,46.477567 38.5947977,46.2298532 38.5941368,45.9718354 L38.5941368,0.975357169 C38.5947977,0.717339388 38.4929371,0.469625612 38.3109599,0.286710477 C38.1289828,0.103795342 37.881796,0.000662435489 37.6237782,0 L37.6237782,0 Z" id="形状"></path>
        </g>
    </g>
</svg>