<?xml version="1.0" encoding="UTF-8"?>
<svg width="66px" height="66px" viewBox="0 0 66 66" version="1.1" xmlns="http://www.w3.org/2000/svg" xmlns:xlink="http://www.w3.org/1999/xlink">
    <title>B60060F0-EC5E-4E52-8C14-99E4B5CA8AE4</title>
    <defs>
        <linearGradient x1="50%" y1="1.99956294%" x2="50%" y2="100%" id="linearGradient-1">
            <stop stop-color="#D9E3EC" offset="0%"></stop>
            <stop stop-color="#ABBCC4" offset="100%"></stop>
        </linearGradient>
        <path d="M24.7818182,18.5204545 L23.7475524,19.5090909 L21.0309983,16.9128198 L21.0313363,22.1454545 L19.5686637,22.1454545 L19.5685465,16.9128198 L16.8524476,19.5090909 L15.8181818,18.5204545 L20.3,14.2363636 L24.7818182,18.5204545 Z M12.5666667,9.49090909 L13.8848485,10.2818182 L10.4231537,12.358835 L17.4,12.3589246 L17.4,13.477439 L10.4231537,13.4771805 L13.8848485,15.5545455 L12.5666667,16.3454545 L6.85454545,12.9181818 L12.5666667,9.49090909 Z M28.5606061,9.49090909 L34.2727273,12.9181818 L28.5606061,16.3454545 L27.2424242,15.5545455 L30.704119,13.4775286 L23.7272727,13.477439 L23.7272727,12.3589246 L30.704119,12.3591831 L27.2424242,10.2818182 L28.5606061,9.49090909 Z M24.7818182,7.05227273 L20.3,11.3363636 L15.8181818,7.05227273 L16.8524476,6.06363636 L19.5690017,8.65990744 L19.5686637,3.42727273 L21.0313363,3.42727273 L21.0314535,8.65990744 L23.7475524,6.06363636 L24.7818182,7.05227273 Z" id="path-2"></path>
        <filter x="-1.8%" y="-2.7%" width="103.6%" height="110.7%" filterUnits="objectBoundingBox" id="filter-3">
            <feOffset dx="0" dy="1" in="SourceAlpha" result="shadowOffsetOuter1"></feOffset>
            <feColorMatrix values="0 0 0 0 0   0 0 0 0 0   0 0 0 0 0  0 0 0 1 0" type="matrix" in="shadowOffsetOuter1"></feColorMatrix>
        </filter>
    </defs>
    <g id="页面-1" stroke="none" stroke-width="1" fill="none" fill-rule="evenodd">
        <g id="节点" transform="translate(-2929.000000, -250.000000)">
            <g id="节点A备份" transform="translate(2122.000000, 0.000000)">
                <g id="1" transform="translate(52.000000, 166.000000)">
                    <g id="路由器" transform="translate(755.000000, 84.000000)">
                        <g id="背景区域" fill="#D8D8D8" opacity="0">
                            <rect id="矩形" x="0" y="0" width="66" height="66"></rect>
                            <rect id="矩形" x="4" y="4" width="58" height="58"></rect>
                        </g>
                        <g id="图形" transform="translate(12.963636, 19.290909)">
                            <path d="M20.3,8.43636364 C26.1803236,8.43636364 31.4766842,10.059898 35.1840007,12.6543167 L40.6,12.6545455 L40.6,22.1454545 L40.5840178,22.1460981 C40.1572911,29.1814783 31.2390981,34.8 20.3,34.8 C9.3609019,34.8 0.442708915,29.1814783 0.0159822109,22.1460981 L0,22.1454545 L0,12.6545455 L5.41599925,12.6543167 C9.1233158,10.059898 14.4196764,8.43636364 20.3,8.43636364 Z" id="形状结合" fill="url(#linearGradient-1)"></path>
                            <ellipse id="椭圆形备份-10" fill="#416480" cx="20.3" cy="13.1818182" rx="20.3" ry="13.1818182"></ellipse>
                            <ellipse id="椭圆形备份-13" stroke="#BAC9D1" stroke-width="0.6" fill="#416480" cx="20.3" cy="13.1818182" rx="17.8909091" ry="10.7727273"></ellipse>
                            <g id="形状结合备份-3">
                                <use fill="black" fill-opacity="1" filter="url(#filter-3)" xlink:href="#path-2"></use>
                                <use fill="#FFFFFF" fill-rule="evenodd" xlink:href="#path-2"></use>
                            </g>
                            <polygon id="路径" fill="#23CCD1" transform="translate(20.300000, 18.190909) rotate(90.000000) translate(-20.300000, -18.190909) " points="20.6295455 13.7090909 21.6181818 14.7433566 19.0219107 17.4599108 24.2545455 17.4595728 24.2545455 18.9222454 19.0219107 18.9223626 21.6181818 21.6384615 20.6295455 22.6727273 16.3454545 18.1909091"></polygon>
                            <polygon id="路径" fill="#23CCD1" transform="translate(20.300000, 7.381818) rotate(90.000000) translate(-20.300000, -7.381818) " points="19.9704545 2.9 24.2545455 7.38181818 19.9704545 11.8636364 18.9818182 10.8293706 21.5780893 8.11281646 16.3454545 8.1131545 16.3454545 6.65048187 21.5780893 6.65036471 18.9818182 3.93426573"></polygon>
                        </g>
                    </g>
                </g>
            </g>
        </g>
    </g>
</svg>