<?xml version="1.0" encoding="UTF-8"?>
<svg width="80px" height="80px" viewBox="0 0 80 80" version="1.1" xmlns="http://www.w3.org/2000/svg" xmlns:xlink="http://www.w3.org/1999/xlink">
    <title>路由器</title>
    <g id="页面-1" stroke="none" stroke-width="1" fill="none" fill-rule="evenodd">
        <g id="路由器">
            <g id="编组" transform="translate(0.000000, 7.000000)" fill-rule="nonzero">
                <path d="M79.7002033,24.0650407 L79.7002033,42.5101626 C79.7002033,48.3917683 75.8130081,54.273374 68.0386179,58.757622 C52.4898374,67.7261179 27.2992886,67.7261179 11.7505081,58.757622 C3.97611789,54.273374 0.0889227642,48.3917683 0.0889227642,42.5101626 L0.0889227642,42.5101626 L0.0889227642,24.0650407 L0.380922764,24.0646736 L0.348338984,24.347993 C-0.906118165,36.4687353 14.9153518,46.8797269 39.788323,47.371172 C61.7470952,47.371172 80.3698491,37.2065561 79.4092595,24.0644593 L79.7002033,24.0650407 Z" id="形状结合" fill="#7B95A1"></path>
                <path d="M39.7992886,0.462398374 C61.7798288,0.462398374 79.5985772,10.7509767 79.5985772,23.4425813 C79.5985772,36.1341859 61.7798288,46.4227642 39.7992886,46.4227642 C17.8187485,46.4227642 -4.40536496e-13,36.1341859 -4.40536496e-13,23.4425813 C-4.40536496e-13,10.7509767 17.8187485,0.462398374 39.7992886,0.462398374 Z M43.2799797,24.949187 L45.2489837,32.507622 L48.7169715,30.5005081 L60.1880081,37.1189024 L64.3546748,34.7179878 L52.8836382,28.0868902 L56.3643293,26.0924797 L43.2799797,24.949187 Z M32.3297764,24.7713415 L20.8587398,31.3897358 L17.390752,29.382622 L15.421748,36.9410569 L28.5060976,35.7977642 L25.0381098,33.7906504 L36.4964431,27.1722561 L32.3297764,24.7713415 Z M20.7317073,9.52743902 L16.5650407,11.9283537 L28.0360772,18.5594512 L24.5553862,20.566565 L37.652439,21.6971545 L35.6707317,14.1387195 L32.2027439,16.1458333 L20.7317073,9.52743902 Z M64.0497967,8.86686992 L50.9527439,10.0101626 L54.433435,12.0045732 L42.9623984,18.6356707 L47.129065,21.0365854 L58.6001016,14.4181911 L62.0680894,16.4253049 L64.0497967,8.86686992 Z" id="形状结合" fill="#416480"></path>
            </g>
            <rect id="矩形备份" x="0" y="0" width="80" height="80"></rect>
        </g>
    </g>
</svg>