<?xml version="1.0" encoding="UTF-8"?>
<svg width="42px" height="42px" viewBox="0 0 42 42" version="1.1" xmlns="http://www.w3.org/2000/svg" xmlns:xlink="http://www.w3.org/1999/xlink">
    <title>路由器</title>
    <g id="图表" stroke="none" stroke-width="1" fill="none" fill-rule="evenodd">
        <g id="编组-69" fill="#3B81F1" fill-rule="nonzero">
            <path d="M37.4155812,-3.21875859e-12 C38.160927,-3.21875859e-12 38.7936943,0.553070547 38.8968405,1.29364172 L42,24.0676013 L41.9671509,24.0676482 L42,24.105139 L42,40.2845757 C42,41.2313225 41.2312375,42 40.284339,42 L1.71561404,42 C0.768762528,42 -6.73097134e-12,41.2313225 -6.73097134e-12,40.2845288 L-6.73097134e-12,24.1051859 L0.0328490886,24.0676482 L-6.73097134e-12,24.0676482 L3.19218058,1.28425731 C3.30001944,0.548378339 3.93283367,-3.21875859e-12 4.67813256,-3.21875859e-12 L37.4155812,-3.21875859e-12 Z M39.0562055,24.0676482 L3.05623228,24.0676482 L3.05623228,39.0003184 L39.0562055,39.0003184 L39.0562055,24.0676482 Z M21.7089914,14.4925344 C20.2493338,14.4925344 19.0660475,15.6756897 19.0660475,17.1351859 C19.0660475,18.594682 20.2493338,19.7778374 21.7089914,19.7778374 C23.1686489,19.7778374 24.3519352,18.594682 24.3519352,17.1351859 C24.3519352,15.6756897 23.1686489,14.4925344 21.7089914,14.4925344 Z M21.1089827,3.60361568 C12.6797627,3.60361568 5.85132847,8.3598198 5.85132847,14.230098 C5.89106495,15.0032175 6.8023957,15.615668 7.91306654,15.615668 C9.02373738,15.615668 9.93506814,15.0032175 9.97480462,14.230098 C9.97340225,12.1729704 11.1460137,10.1998169 13.2343812,8.74520785 C15.3227487,7.29059881 18.1555854,6.47384063 21.1089827,6.47481742 C24.0621512,6.47408482 26.8946484,7.29095081 28.9827301,8.74553335 C31.0708119,10.2001159 32.2432421,12.1731299 32.24184,14.230098 C32.2815765,15.0032175 33.1929072,15.615668 34.3035781,15.615668 C35.4142489,15.615668 36.3255797,15.0032175 36.3653161,14.230098 C36.3639954,8.3598198 29.5355611,3.60361568 21.1089827,3.60361568 Z M21.5895081,9.60964182 C19.3271852,9.60926256 17.1573041,10.1030998 15.5574782,10.982455 C13.9576523,11.8618101 13.0590119,13.0546067 13.0593571,14.2982975 C13.0984962,14.8993135 13.9961254,15.3754269 15.0900977,15.3754269 C16.1840699,15.3754269 17.0816991,14.8993135 17.1208382,14.2982975 C17.120147,13.6467135 17.5907716,13.0217179 18.4289971,12.5610455 C19.2672226,12.100373 20.4042512,11.8418335 21.5895081,11.8424032 C22.7745396,11.8420235 23.9112338,12.1006468 24.7491778,12.5612986 C25.5871218,13.0219505 26.0575678,13.6468375 26.056877,14.2982975 C26.0960164,14.8993134 26.9936455,15.3754269 28.0876175,15.3754269 C29.1815896,15.3754269 30.0792187,14.8993134 30.118358,14.2982975 C30.118358,11.7088246 26.2998618,9.60964182 21.5895081,9.60964182 Z" id="形状结合"></path>
            <path d="M7.24500575,30.1 L10.9549943,30.1 C11.4756322,30.1 11.9,29.6712118 11.9,29.1462419 L11.9,28.2537581 C11.9,27.7287444 11.4756322,27.3 10.9549943,27.3 L7.24500575,27.3 C6.72436785,27.3 6.3,27.7287444 6.3,28.2537581 L6.3,29.1462419 C6.3,29.6755917 6.72441165,30.1 7.24500575,30.1 L7.24500575,30.1 Z" id="路径"></path>
            <path d="M7.24500575,35.7 L10.9549943,35.7 C11.4756322,35.7 11.9,35.2712118 11.9,34.7462419 L11.9,33.8537581 C11.9,33.3287444 11.4756322,32.9 10.9549943,32.9 L7.24500575,32.9 C6.72436785,32.9 6.3,33.3287882 6.3,33.8537581 L6.3,34.7462419 C6.3,35.2756355 6.72441165,35.7 7.24500575,35.7 L7.24500575,35.7 Z" id="路径"></path>
            <path d="M16.0847163,30.1 L16.1152837,30.1 C16.8796873,30.1 17.5,29.4743372 17.5,28.6999781 C17.5,27.925619 16.8796873,27.3 16.1152837,27.3 L16.0846726,27.3 C15.3202689,27.3 14.7,27.925619 14.7,28.6999781 L14.7,28.704358 C14.7,29.4743372 15.3202689,30.1 16.0847163,30.1 L16.0847163,30.1 Z" id="路径"></path>
            <path d="M16.0847163,35.7 L16.1152837,35.7 C16.8796873,35.7 17.5,35.0753483 17.5,34.3021865 L17.5,34.2978135 C17.5,33.5246517 16.8796873,32.9 16.1152837,32.9 L16.0846726,32.9 C15.3202689,32.9 14.7,33.5246517 14.7,34.2978135 L14.7,34.3021865 C14.7,35.0797214 15.3202689,35.7 16.0847163,35.7 L16.0847163,35.7 Z" id="路径"></path>
            <path d="M22.3847163,30.1 L22.4153274,30.1 C23.1797311,30.1 23.8,29.4743372 23.8,28.6999781 C23.8,27.925619 23.1797311,27.3 22.4152837,27.3 L22.3847163,27.3 C21.6203127,27.3 21,27.925619 21,28.6999781 L21,28.704358 C21,29.4743372 21.6202689,30.1 22.3847163,30.1 L22.3847163,30.1 Z" id="路径"></path>
            <path d="M22.3846942,35.7 L22.4153058,35.7 C23.1797214,35.7 23.8,35.074381 23.8,34.2999781 C23.8,33.525619 23.1797214,32.9 22.4153058,32.9 L22.3846942,32.9 C21.6202786,32.9 21,33.525619 21,34.2999781 L21,34.304358 C21,35.078717 21.6202786,35.7 22.3847379,35.7 L22.3846942,35.7 Z" id="路径"></path>
            <path d="M28.6846942,30.1 L28.7153058,30.1 C29.4797214,30.1 30.1,29.4743372 30.1,28.6999781 C30.1,27.925619 29.4797214,27.3 28.7153058,27.3 L28.6846942,27.3 C27.9202786,27.3 27.3,27.925619 27.3,28.6999781 L27.3,28.704358 C27.3,29.4743372 27.9202786,30.1 28.6846942,30.1 L28.6846942,30.1 Z" id="路径"></path>
            <path d="M28.6846942,35.7 L28.7153058,35.7 C29.4797214,35.7 30.1,35.074381 30.1,34.2999781 C30.1,33.525619 29.4797214,32.9 28.7153058,32.9 L28.6846942,32.9 C27.9202786,32.9 27.3,33.525619 27.3,34.2999781 L27.3,34.304358 C27.3,35.078717 27.9202786,35.7 28.6846942,35.7 L28.6846942,35.7 Z" id="路径"></path>
            <path d="M34.9847379,30.1 L35.0153058,30.1 C35.7797214,30.1 36.4,29.4743372 36.4,28.6999781 C36.4,27.925619 35.7797214,27.3 35.0153058,27.3 L34.9846942,27.3 C34.2202786,27.3 33.6,27.925619 33.6,28.6999781 L33.6,28.704358 C33.6,29.4743372 34.2202786,30.1 34.9847379,30.1 L34.9847379,30.1 Z" id="路径"></path>
            <path d="M34.9847379,35.7 L35.0153058,35.7 C35.7797214,35.7 36.4,35.074381 36.4,34.2999781 C36.4,33.525619 35.7797214,32.9 35.0153058,32.9 L34.9846942,32.9 C34.2202786,32.9 33.6,33.525619 33.6,34.2999781 L33.6,34.304358 C33.6,35.078717 34.2202786,35.7 34.9847379,35.7 L34.9847379,35.7 Z" id="路径"></path>
        </g>
    </g>
</svg>