<?xml version="1.0" encoding="UTF-8"?>
<svg width="56px" height="55px" viewBox="0 0 56 55" version="1.1" xmlns="http://www.w3.org/2000/svg" xmlns:xlink="http://www.w3.org/1999/xlink">
    <title>服务器</title>
    <g id="图表" stroke="none" stroke-width="1" fill="none" fill-rule="evenodd">
        <g id="编组备份-25" fill-rule="nonzero">
            <polygon id="路径" fill="#3B81F1" points="0.0157051282 2.11056775 25.2516026 0 55.513141 8.25120083 32.7199431 12.6236923"></polygon>
            <path d="M28.4392949,53.1282051 L28.4392949,47.1046154 L3.63060489,38.4684103 L3.63060489,43.8530256 L0.292143349,41.6525128 L0.0157051282,2.7734359 L31.8387821,13.1025641 L31.8387821,54.0148718 L28.4392949,53.1282051 Z M20.3975513,37.1969231 L27.7637051,41.6051282 L27.7637051,15.6591795 L20.3975513,13.3617436 L20.3975513,37.1969231 Z M22.1069872,35.4738462 L22.1069872,16.1323077 L27.0895513,17.8697436 L27.0895513,37.9579487 L22.1069872,35.4738462 Z" id="形状" fill="#3B81F1"></path>
            <path d="M55.513141,9.15384615 L55.513141,44.8179487 L53.6105769,45.7318974 L53.6105769,40.2295385 L36.3798077,47.3250256 L36.3798077,54.0148718 L32.8199777,54.0148718 L32.8199777,13.3617436 L55.513141,9.15384615 Z M51.9327308,38.3650256 L38.3319103,42.9871795 L38.3319103,43.8530256 L51.9327308,38.9939487 L51.9327308,38.3650256 Z M51.9327308,37.1043077 L38.3319103,41.5512821 L38.3319103,42.4171282 L51.9327308,37.7935385 L51.9327308,37.1043077 Z M51.9327308,35.8414359 L38.3319103,40.1153846 L38.3319103,40.9812308 L51.9327308,36.4918974 L51.9327308,35.8414359 Z M46.0721154,28.5384615 C45.0827821,28.5384615 44.2772436,29.8264615 44.2772436,31.4102564 C44.2772436,32.9940513 45.0820641,34.2820513 46.0721154,34.2820513 C47.0621667,34.2820513 47.8669872,32.9933333 47.8669872,31.4102564 C47.8669872,29.8271795 47.0614487,28.5384615 46.0721154,28.5384615 Z M53.6105769,12.6236923 L36.3798077,16.3333333 L36.3798077,29.2205128 L53.6105769,24.0275897 L53.6105769,12.6236923 Z" id="形状结合" fill="#3B81F1"></path>
            <polygon id="路径" fill="#3E7FE8" points="38.4496538 47.9358235 52.2418576 42.1616789 52.2418576 45.7697692 38.3319103 52.052282"></polygon>
            <polygon id="路径" fill="#3E7FE8" points="38.5336538 17.7692308 52.1746795 14.7775385 52.1746795 22.2686154 38.5336538 26.2647179"></polygon>
            <path d="M44.9951923,31.4102564 C44.9951923,32.4015367 45.4773472,33.2051282 46.0721154,33.2051282 C46.6668836,33.2051282 47.1490385,32.4015367 47.1490385,31.4102564 C47.1490385,30.4189761 46.6668836,29.6153846 46.0721154,29.6153846 C45.4773472,29.6153846 44.9951923,30.4189761 44.9951923,31.4102564 Z" id="路径" fill="#3E7FE8"></path>
            <polygon id="路径" fill="#3E7FE8" opacity="0.9" points="4.7900641 40.923111 25.6106395 47.8137754 27.2994872 48.3849999 27.2994872 52.052282 5.27975685 43.5910862 4.7900641 43.4222564"></polygon>
        </g>
    </g>
</svg>