<?xml version="1.0" encoding="UTF-8"?>
<svg width="56px" height="51px" viewBox="0 0 56 51" version="1.1" xmlns="http://www.w3.org/2000/svg" xmlns:xlink="http://www.w3.org/1999/xlink">
    <title>存储器</title>
    <g id="图表" stroke="none" stroke-width="1" fill="none" fill-rule="evenodd">
        <g id="编组" transform="translate(28.000000, 25.103448) scale(-1, 1) translate(-28.000000, -25.103448) " fill="#3B81F1" fill-rule="nonzero">
            <path d="M56,6.75862069 L56,41.081632 L17.1542904,50.2068966 L17.1542904,14.9475731 L56,6.75862069 Z M21.8969393,20.0344507 L21.8509348,20.0412896 L19.5523058,20.5815807 C19.4352833,20.6144858 19.3443988,20.7553064 19.3179955,20.9336706 L19.3103448,21.0256556 L19.3336103,46.012269 C19.3322878,46.111524 19.3595017,46.2063178 19.4075242,46.2697317 C19.4435411,46.3172921 19.4883121,46.3433051 19.5342199,46.3447628 L19.5802244,46.3379239 L21.8788533,45.7976328 C21.9909808,45.7539118 22.0746868,45.610842 22.096568,45.4359449 L22.1022019,45.3461566 L22.0975488,20.3669445 C22.0988714,20.2676895 22.0716575,20.1728957 22.023635,20.1094818 C21.9996237,20.0777748 21.9717217,20.0556445 21.942186,20.0439821 L21.8969393,20.0344507 Z M25.405373,19.2055109 L25.3593685,19.2123498 L23.0746988,19.7526409 C22.9576763,19.785546 22.8667918,19.9263666 22.8403885,20.1047308 L22.8327379,20.1967158 L22.8792688,45.1759279 C22.8779462,45.275183 22.9051602,45.3699767 22.9531827,45.4333907 C22.9891996,45.4809511 23.0339706,45.5069641 23.0798784,45.5084217 L23.1258829,45.5015829 L25.4245118,44.9612917 C25.5367946,44.9206351 25.6218661,44.7803764 25.645799,44.6065951 L25.6525135,44.5172169 L25.6059826,19.5380047 C25.6073051,19.4387497 25.5800912,19.3439559 25.5320687,19.280542 C25.5080574,19.248835 25.4801554,19.2267047 25.4506197,19.2150423 L25.405373,19.2055109 Z M28.9696439,18.3469662 L28.9236394,18.353805 L26.6250104,18.8940961 C26.5079879,18.9270012 26.4171034,19.0678218 26.3907001,19.246186 L26.3830495,19.338171 L26.4295804,44.3173832 C26.4310545,44.414044 26.4594565,44.5046648 26.5070985,44.5647167 C26.54283,44.6097556 26.5866128,44.6341063 26.6313719,44.6351111 L26.6761945,44.6282356 L28.9748234,44.0879445 C29.0890546,44.0561192 29.1788296,43.9212511 29.2076328,43.748124 L29.2167844,43.6586721 L29.1702535,18.6794599 C29.171576,18.5802049 29.1443621,18.4854112 29.0963396,18.4219972 C29.0723283,18.3902903 29.0444263,18.36816 29.0148906,18.3564975 L28.9696439,18.3469662 Z M32.5199555,17.5402301 L32.473951,17.547069 L30.175322,18.0873601 C30.0582995,18.1202652 29.967415,18.2610858 29.9410117,18.43945 L29.933361,18.531435 L29.979892,43.5106471 C29.9785694,43.6099022 30.0057834,43.7046959 30.0538059,43.7681098 C30.0898227,43.8156703 30.1345938,43.8416832 30.1805015,43.8431409 L30.226506,43.836302 L32.525135,43.2960109 C32.6466467,43.2649391 32.7407014,43.1177915 32.7653832,42.9325612 L32.7717491,42.8371336 L32.720565,17.8727239 C32.7218876,17.7734688 32.6946736,17.6786751 32.6466511,17.6152612 C32.6226399,17.5835542 32.5947379,17.5614239 32.5652022,17.5497615 L32.5199555,17.5402301 Z M36.0749202,16.6816854 L36.0289157,16.6885242 L33.7302867,17.2288153 C33.6132642,17.2617204 33.5223797,17.402541 33.4959764,17.5809052 L33.4883257,17.6728902 L33.5162443,42.6817074 C33.5149217,42.7809624 33.5421357,42.8757561 33.5901582,42.93917 C33.6261751,42.9867305 33.6709461,43.0127435 33.7168539,43.0142011 L33.7628583,43.0073623 L36.0614873,42.4670712 C36.1934898,42.4436484 36.2965506,42.2833676 36.3180122,42.0819518 L36.3220607,41.9933913 L36.2755297,17.0141791 C36.2768523,16.9149241 36.2496383,16.8201304 36.2016158,16.7567164 C36.1776046,16.7250095 36.1497026,16.7028792 36.1201669,16.6912167 L36.0749202,16.6816854 Z M39.6205787,15.8749493 L39.5745742,15.8817882 L37.2759452,16.4220793 C37.1589227,16.4549843 37.0680382,16.595805 37.0416349,16.7741692 L37.0339842,16.8661541 L37.0805152,41.8453663 C37.0791926,41.9446214 37.1064065,42.0394151 37.154429,42.102829 C37.1904459,42.1503895 37.235217,42.1764024 37.2811247,42.1778601 L37.3271292,42.1710212 L39.6257582,41.6307301 C39.7427807,41.5978251 39.8336652,41.4570044 39.8600685,41.2786402 L39.8677192,41.1866553 L39.8211882,16.2074431 C39.8225108,16.108188 39.7952968,16.0133943 39.7472743,15.9499804 C39.7232631,15.9182734 39.6953611,15.8961431 39.6658254,15.8844807 L39.6205787,15.8749493 Z M43.1708902,15.0016021 L43.1248858,15.0084409 L40.8262568,15.548732 C40.7092343,15.5816371 40.6183498,15.7224577 40.5919465,15.9008219 L40.5842958,15.9928069 L40.6308268,40.9720191 C40.6295042,41.0712741 40.6567181,41.1660678 40.7047406,41.2294818 C40.7407575,41.2770422 40.7855286,41.3030552 40.8314363,41.3045128 L40.8774408,41.297674 L43.1760698,40.7573829 C43.2930923,40.7244778 43.3839768,40.5836572 43.4103801,40.405293 L43.4180308,40.313308 L43.3714998,15.3340958 C43.3728224,15.2348408 43.3456084,15.140047 43.2975859,15.0766331 C43.2735747,15.0449262 43.2456727,15.0227959 43.216137,15.0111334 L43.1708902,15.0016021 Z M46.730508,14.2170698 L46.6845036,14.2239086 L44.3858745,14.7641997 C44.2688521,14.7971048 44.1779676,14.9379254 44.1515643,15.1162896 L44.1439136,15.2082746 L44.1904446,40.1874868 C44.189122,40.2867418 44.2163359,40.3815356 44.2643584,40.4449495 C44.3003753,40.4925099 44.3451464,40.5185229 44.3910541,40.5199805 L44.4370586,40.5131417 L46.7263814,39.9728506 C46.846558,39.9453983 46.9414233,39.8041589 46.9694168,39.6225842 L46.9776485,39.5287757 L46.9311176,14.5495635 C46.9324402,14.4503085 46.9052262,14.3555147 46.8572037,14.2921008 C46.8331925,14.2603939 46.8052905,14.2382636 46.7757548,14.2266011 L46.730508,14.2170698 Z M50.2808196,13.3363212 L50.2348151,13.3431601 L47.9361861,13.8834512 C47.8191637,13.9163563 47.7282792,14.0571769 47.7018759,14.2355411 L47.6942252,14.3275261 L47.73145,39.3141395 C47.7301274,39.4133945 47.7573413,39.5081883 47.8053638,39.5716022 C47.8413807,39.6191627 47.8861518,39.6451756 47.9320595,39.6466333 L47.978064,39.6397944 L50.276693,39.0995033 C50.3983145,39.0716271 50.4937796,38.9273319 50.5205162,38.7431108 L50.5279601,38.6480272 L50.4814292,13.668815 C50.4827518,13.56956 50.4555378,13.4747662 50.4075153,13.4113523 C50.3835041,13.3796453 50.3556021,13.357515 50.3260664,13.3458526 L50.2808196,13.3363212 Z M53.821825,12.551789 L53.7758205,12.5586278 L51.4771915,13.0989189 C51.3601691,13.131824 51.2692846,13.2726446 51.2428813,13.4510088 L51.2352306,13.5429938 L51.2817615,38.522206 C51.280439,38.621461 51.3076529,38.7162547 51.3556754,38.7796687 C51.3916923,38.8272291 51.4364634,38.8532421 51.4823711,38.8546997 L51.5283756,38.8478609 L53.8270046,38.3075697 C53.944027,38.2746647 54.0349115,38.133844 54.0613148,37.9554798 L54.0689655,37.8634949 L54.0224346,12.8842827 C54.0237571,12.7850277 53.9965432,12.6902339 53.9485207,12.62682 C53.9245095,12.5951131 53.8966075,12.5729828 53.8670717,12.5613203 L53.821825,12.551789 Z M32.230497,14.3064076 L32.2006773,14.3081059 L31.8742897,14.3755228 C31.807097,14.3902193 31.7564248,14.4823162 31.7547675,14.5927548 L31.7547675,14.5927548 L31.7547675,15.1245989 C31.7542611,15.1740297 31.7674001,15.2212197 31.7905608,15.2531536 C31.8137215,15.2850874 31.8444568,15.2983912 31.8742897,15.2893957 L31.8742897,15.2893957 L32.2006773,15.2219788 C32.26787,15.2072823 32.3185422,15.1151854 32.3201995,15.0047467 L32.3201995,15.0047467 L32.3201995,14.4729026 C32.3207059,14.4234719 32.3075669,14.3762819 32.2844062,14.344348 C32.2612456,14.3124142 32.2305102,14.2991103 32.2006773,14.3081059 Z M33.7934796,13.9693233 L33.7636599,13.9710216 L33.4372723,14.0384385 C33.3700795,14.053135 33.3194073,14.1452319 33.3177501,14.2556706 L33.3177501,14.2556706 L33.3177501,14.7875147 C33.3172436,14.8369454 33.3303827,14.8841354 33.3535434,14.9160693 C33.376704,14.9480032 33.4074394,14.961307 33.4372723,14.9523114 L33.4372723,14.9523114 L33.7636599,14.8848945 C33.8308526,14.870198 33.8815248,14.7781011 33.883182,14.6676625 L33.883182,14.6676625 L33.883182,14.1358184 C33.8836885,14.0863876 33.8705495,14.0391976 33.8473888,14.0072637 C33.8242281,13.9753299 33.7934928,13.9620261 33.7636599,13.9710216 Z M38.3123381,12.5535693 L38.2825183,12.5552676 L35.6024629,13.1245655 C35.5352701,13.1392621 35.4845979,13.231359 35.4829266,13.3417976 L35.4829266,13.3417976 L35.4829266,14.7800239 C35.4824342,14.8294546 35.4955733,14.8766447 35.5187339,14.9085785 C35.5418946,14.9405124 35.57263,14.9538162 35.6024629,14.9448206 L35.6024629,14.9448206 L38.2641303,14.3905043 C38.3336572,14.3915153 38.3927727,14.3080311 38.4020546,14.1957445 L38.4020546,14.1957445 L38.4020546,12.7200644 C38.402547,12.6706336 38.3894079,12.6234436 38.3662473,12.5915098 C38.3430866,12.5595759 38.3123512,12.5462721 38.2825183,12.5552676 Z M40.2890513,12.5910232 L40.2592316,12.5927215 L39.932844,12.6601383 C39.8656513,12.6748348 39.8149791,12.7669318 39.8133218,12.8773704 L39.8133218,12.8773704 L39.8133218,13.4092145 C39.8128154,13.4586452 39.8259544,13.5058353 39.8491151,13.5377691 C39.8722758,13.569703 39.9030111,13.5830068 39.932844,13.5740112 L39.932844,13.5740112 L40.2592316,13.5065944 C40.3264243,13.4918978 40.3770965,13.3998009 40.3787538,13.2893623 L40.3787538,13.2893623 L40.3787538,12.7575182 C40.3792602,12.7080875 40.3661212,12.6608975 40.3429605,12.6289636 C40.3197998,12.5970297 40.2890645,12.5837259 40.2592316,12.5927215 Z M41.8612279,12.2614296 L41.8314082,12.2631279 L41.5050206,12.3305448 C41.4378279,12.3452414 41.3871557,12.4373383 41.3854984,12.5477769 L41.3854984,12.5477769 L41.3854984,13.079621 C41.384992,13.1290517 41.398131,13.1762417 41.4212917,13.2081756 C41.4444523,13.2401095 41.4751877,13.2534133 41.5050206,13.2444177 L41.5050206,13.2444177 L41.8314082,13.1770009 C41.8986009,13.1623043 41.9492731,13.0702074 41.9509303,12.9597688 L41.9509303,12.9597688 L41.9509303,12.4279247 C41.9514368,12.3784939 41.9382978,12.3313039 41.9151371,12.2993701 C41.8919764,12.2674362 41.8612411,12.2541324 41.8314082,12.2631279 Z M43.4471955,11.9468176 L43.4173758,11.948516 L43.0909882,11.9934605 C43.0237955,12.0081571 42.9731233,12.100254 42.971466,12.2106926 L42.971466,12.2106926 L42.971466,12.7425367 C42.9709596,12.7919675 42.9840986,12.8391575 43.0072593,12.8710914 C43.03042,12.9030252 43.0611553,12.916329 43.0909882,12.9073335 L43.0909882,12.9073335 L43.4173758,12.8399166 C43.4798244,12.8270508 43.5290024,12.7469159 43.536898,12.6451568 L43.536898,12.6451568 L43.536898,12.1133127 C43.5374045,12.063882 43.5242654,12.0166919 43.5011047,11.9847581 C43.477944,11.9528242 43.4472087,11.9395204 43.4173758,11.948516 Z M45.0009841,11.587261 L44.9711643,11.5889594 L44.6447768,11.6563763 C44.577584,11.6710728 44.5269118,11.7631697 44.5252546,11.8736083 L44.5252546,11.8736083 L44.5252546,12.4054524 C44.5247481,12.4548832 44.5378872,12.5020732 44.5610478,12.5340071 C44.5842085,12.5659409 44.6149439,12.5792447 44.6447768,12.5702492 L44.6447768,12.5702492 L44.9711643,12.5028323 C45.0383571,12.4881358 45.0890293,12.3960389 45.0906865,12.2856002 L45.0906865,12.2856002 L45.0906865,11.7537561 C45.091193,11.7043254 45.078054,11.6571354 45.0548933,11.6252015 C45.0317326,11.5932676 45.0009973,11.5799638 44.9711643,11.5889594 Z" id="形状结合"></path>
            <polygon id="路径" points="56 6.3306537 16.7939989 14.4827586 0 8.41865875 37.7720729 0"></polygon>
            <polygon id="路径" points="16.425738 50.2068966 0 43.4319587 0 8.98474255 16.425738 15.0938382"></polygon>
            <path d="M21.5815898,43.1849922 C21.5709099,43.7923425 21.2969279,44.3016728 20.9288147,44.3984956 C20.7651563,44.4483199 20.5964425,44.3750366 20.4697193,44.1990805 C20.342996,44.0231245 20.2718203,43.7633126 20.2760396,43.4921135 C20.2867195,42.8847631 20.5607015,42.3754329 20.9288147,42.27861 C21.0924731,42.2287857 21.2611868,42.3020691 21.3879101,42.4780252 C21.5146334,42.6539812 21.585809,42.9137857 21.5815898,43.1849922 Z M25.0293454,42.37599 C25.0186655,42.9833403 24.7446836,43.4926705 24.3765704,43.5894933 C24.2140166,43.6276594 24.0494796,43.5458193 23.9277163,43.3662352 C23.8059531,43.186651 23.7396271,42.9279996 23.7467803,42.6606389 C23.7574602,42.0532886 24.0314422,41.5439584 24.3995554,41.4471355 C24.5621091,41.4089695 24.7266462,41.4908096 24.8484094,41.6703937 C24.9701726,41.8499778 25.0364986,42.1086293 25.0293454,42.37599 Z M28.5552503,41.5520062 C28.5445704,42.1593565 28.2705884,42.6686867 27.9024752,42.7655096 C27.7388168,42.8153339 27.570103,42.7420505 27.4433798,42.5660945 C27.3166565,42.3901384 27.2454808,42.1303265 27.2497001,41.8591274 C27.26038,41.2517771 27.534362,40.7424468 27.9024752,40.645624 C28.0661336,40.5957997 28.2348473,40.6690831 28.3615706,40.8450391 C28.4882939,41.0209952 28.5594695,41.2807996 28.5552503,41.5520062 L28.5552503,41.5520062 Z M32.0627671,40.7355132 C32.0414635,41.3285433 31.7699694,41.8176713 31.409992,41.9115627 C31.2463335,41.961387 31.0776198,41.8881037 30.9508965,41.7121476 C30.8241733,41.5361916 30.7529976,41.2763871 30.7572169,41.0051806 C30.7678968,40.3978303 31.0418788,39.8885 31.409992,39.7916772 C31.5777797,39.7400338 31.7507862,39.8179154 31.8785091,40.0025877 C32.006232,40.1872599 32.0742718,40.4579029 32.0627671,40.7355132 Z M35.5702842,39.9115294 C35.5706692,40.5331036 35.2940634,41.0631821 34.9175087,41.1624866 C34.7538503,41.2123109 34.5851366,41.1390275 34.4584133,40.9630714 C34.33169,40.7871154 34.2605144,40.5273109 34.2647337,40.2561044 C34.2754136,39.6487541 34.5493956,39.1394239 34.9175087,39.042601 C35.0771971,38.9940367 35.2419038,39.0626315 35.3677088,39.2300943 C35.4935138,39.3975571 35.5676263,39.6468616 35.5702842,39.9115294 L35.5702842,39.9115294 Z M39.0778006,39.0950364 C39.0671207,39.7023867 38.7931387,40.2117169 38.4250255,40.3085397 C38.2613671,40.358364 38.0926534,40.2850806 37.9659301,40.1091246 C37.8392068,39.9331685 37.7680312,39.6733641 37.7722505,39.4021576 C37.7763454,38.7862605 38.0518849,38.2645493 38.4250255,38.1661819 C38.5911419,38.1153368 38.762395,38.1913905 38.8897077,38.3725478 C39.0170204,38.5537051 39.0863398,38.8199697 39.0778006,39.0950364 L39.0778006,39.0950364 Z M42.5853174,38.2710525 C42.5746375,38.8784029 42.3006555,39.3877331 41.9325423,39.484556 C41.7688839,39.5343803 41.6001702,39.4610969 41.4734469,39.2851408 C41.3467236,39.1091848 41.275548,38.8493729 41.2797673,38.5781738 C41.2904471,37.9708235 41.5644291,37.4614932 41.9325423,37.3646704 C42.0962007,37.3148461 42.2649145,37.3881295 42.3916377,37.5640855 C42.518361,37.7400416 42.5895367,37.999846 42.5853174,38.2710525 Z M46.0928342,37.4171057 C46.0821543,38.024456 45.8081723,38.5337863 45.4400591,38.6306091 C45.280994,38.6744374 45.118126,38.6026097 44.9943392,38.4340386 C44.8705524,38.2654676 44.7982531,38.017048 44.796478,37.75419 C44.8071579,37.1468397 45.0811399,36.6375094 45.4492531,36.5406866 C45.6083183,36.4968584 45.7711862,36.5686861 45.894973,36.7372571 C46.0187598,36.9058281 46.0910591,37.1542477 46.0928342,37.4171057 Z M49.595754,36.6680296 C49.5736006,37.2658481 49.2973841,37.7565723 48.9337849,37.8440791 C48.7701264,37.8939034 48.6014127,37.8206201 48.4746894,37.644664 C48.3479662,37.468708 48.2767905,37.2089035 48.2810098,36.937697 C48.2916897,36.3303467 48.5656717,35.8210164 48.9337849,35.7241936 C49.1029555,35.6671901 49.2787449,35.7426119 49.4087523,35.9279766 C49.5387597,36.1133412 49.6079706,36.387241 49.595754,36.6680296 L49.595754,36.6680296 Z M53.1032707,35.8140827 C53.0925908,36.421433 52.8186089,36.9307632 52.4504957,37.0275861 C52.2868373,37.0774104 52.1181235,37.004127 51.9914003,36.828171 C51.864677,36.6522149 51.7935013,36.3924031 51.7977206,36.1212039 C51.8084005,35.5138536 52.0823825,35.0045234 52.4504957,34.9077006 C52.6141541,34.8578763 52.7828678,34.9311597 52.9095911,35.1071157 C53.0363144,35.2830717 53.10749,35.5428762 53.1032707,35.8140827 L53.1032707,35.8140827 Z M20.8874416,22.9674264 L21.2597992,22.1808964 L20.519681,22.3606747 L20.8874416,22.9674264 Z M24.3949584,22.1284611 L24.767316,21.3419311 L24.0271978,21.5217094 L24.3949584,22.1284611 Z M27.8978782,21.2894958 L28.2656388,20.5029658 L27.5301176,20.6827441 L27.8978782,21.2894958 Z M31.405395,20.4430397 L31.7731556,19.6640005 L31.0376344,19.836288 L31.405395,20.4430397 Z M34.9175087,19.6040744 L35.2852694,18.8175444 L34.5451511,18.9973227 L34.9175087,19.6040744 Z M38.4250255,18.7651091 L38.7927862,17.9785791 L38.0526679,18.1583574 L38.4250255,18.7651091 Z M41.9279453,17.9261438 L42.2957059,17.1396138 L41.5555877,17.3119013 L41.9279453,17.9261438 Z M45.4354621,17.0796877 L45.8032227,16.3006485 L45.0631045,16.472936 L45.4354621,17.0796877 L45.4354621,17.0796877 Z M48.9521729,16.2407224 L49.3199335,15.4541924 L48.5798153,15.6339707 L48.9521729,16.2407224 Z M52.4596897,15.4017571 L52.8274503,14.6152271 L52.0873321,14.7875147 L52.4596897,15.4017571 Z" id="形状"></path>
        </g>
    </g>
</svg>