<?xml version="1.0" encoding="UTF-8"?>
<svg width="66px" height="66px" viewBox="0 0 66 66" version="1.1" xmlns="http://www.w3.org/2000/svg" xmlns:xlink="http://www.w3.org/1999/xlink">
    <title>0C5F9615-C615-4A4C-A4F0-142BEA97E2B8</title>
    <defs>
        <path d="M14.6386289,18.4545455 L13.2784139,19.3333333 L8.17381922,15.8181818 L13.8413816,12.1565657 L15.1175302,13.0353535 L11.7716187,15.1964353 L19.7723997,15.1968857 C19.968981,14.6731215 20.383998,14.1749065 21.0143208,13.7676768 C21.6447864,13.3603547 22.4047843,13.0995375 23.1960937,12.9852251 L23.4500034,7.65143448 L20.5583901,9.52020202 L19.2822414,8.64141414 L24.4963988,5.27272727 L29.6009935,8.78787879 L28.2407785,9.66666667 L25.314194,7.65143448 L25.0589137,12.9852251 C25.8392878,13.0995375 26.5743354,13.3603547 27.1658359,13.7676768 C27.7572025,14.1749065 28.1245594,14.6731215 28.2710366,15.1968857 L36.271433,15.1964353 L33.3453732,13.1818182 L34.7055882,12.3030303 L39.8101829,15.8181818 L34.5964789,19.1865758 L33.3203302,18.3077879 L36.2119892,16.439229 L28.2115553,16.4396035 C28.0149547,16.9633218 27.5999537,17.4614896 26.9696813,17.8686869 C26.3395527,18.2757911 25.5800305,18.5365472 24.7891777,18.650955 L24.5329632,23.984644 L27.879017,21.8232323 L29.1551656,22.7020202 L23.4876033,26.3636364 L18.3830086,22.8484848 L19.7432236,21.969697 L22.6687726,23.984644 L22.9238366,18.650955 C22.1439283,18.5365472 21.4093504,18.2757911 20.8181661,17.8686869 C20.2268469,17.4614896 19.8595014,16.9633218 19.7130006,16.4396035 L11.7121748,16.439229 L14.6386289,18.4545455 Z M21.6778028,15.4514956 L21.6442537,15.5447287 L21.619228,15.638756 L21.6164729,15.6516417 C21.6173591,15.647372 21.6182715,15.6431037 21.619228,15.638756 L21.6107839,15.6810685 L21.6085703,15.6915348 L21.6074285,15.700853 L21.6058648,15.7105152 L21.6085703,15.6915348 L21.6164729,15.6516417 L21.6040546,15.7234609 L21.5999619,15.7587573 L21.6007007,15.7501565 L21.5993394,15.7629036 L21.5969095,15.7906855 L21.5960876,15.8018589 L21.5946828,15.8312291 L21.5960629,15.8023742 L21.5940827,15.8437741 L21.5946828,15.8312291 L21.5942135,15.8482969 L21.5939723,15.871454 L21.594329,15.8941994 L21.5952035,15.9208824 L21.5962825,15.9359086 L21.5997254,15.9778346 L21.6000808,15.9817781 L21.6005098,15.985337 L21.6124321,16.0643161 C21.6233176,16.1217937 21.639034,16.1788704 21.659595,16.2352633 L21.6704496,16.2645084 L21.6737849,16.2721732 L21.6893233,16.3084008 L21.6795774,16.2866523 L21.6892297,16.3085605 C21.6996854,16.3320583 21.7108435,16.355108 21.722842,16.3779975 L21.709536,16.3518519 C21.8149785,16.5654059 21.9927943,16.7658316 22.2437626,16.9368414 C22.5121231,17.1197023 22.8340423,17.2484295 23.1793424,17.3230231 C23.197539,17.3269528 23.215605,17.3306935 23.2337303,17.3342871 L23.2958105,17.3459797 C23.3330719,17.3526316 23.3705599,17.3586705 23.4082382,17.3640963 L23.358407,17.3565449 C23.3963848,17.362588 23.4345742,17.3680025 23.4729374,17.3727883 L23.4166987,17.3649815 L23.4887794,17.3747277 C23.5157137,17.3779623 23.5427309,17.3808878 23.5698181,17.3835042 C23.5969636,17.386127 23.624276,17.3884464 23.6516457,17.3904532 L23.6372597,17.3891026 L23.6659282,17.3910797 L23.6850468,17.392266 L23.7645513,17.3969456 L23.718509,17.3942431 L23.7508253,17.396346 L23.789666,17.3974065 L23.817773,17.3985928 L23.8260529,17.3989926 L23.8500935,17.3993837 L23.8859945,17.4 L23.8500935,17.3993837 L23.8268389,17.399012 L23.8876525,17.4 L23.9452124,17.4 L24.0112561,17.3988851 C24.0959087,17.3966923 24.1805595,17.3915623 24.264827,17.383495 L24.3137065,17.3784812 L24.3954348,17.3685915 L24.4198082,17.3649815 L24.4777502,17.3562821 L24.4281944,17.3640924 L24.4854123,17.3554894 L24.5139877,17.3503507 L24.5446673,17.3455682 L24.6010143,17.3349291 L24.5447943,17.3452102 L24.601753,17.3350191 L24.6675848,17.3216208 L24.7021069,17.313576 L24.7176552,17.3105266 L24.7292772,17.3078379 C25.0565469,17.2315167 25.3661867,17.1078512 25.633514,16.9368414 C25.9186748,16.7544236 26.1237995,16.5385343 26.2479426,16.308943 L26.2595801,16.2869213 L26.2667763,16.2720215 L26.2588858,16.2866523 L26.2701129,16.2649038 C26.3157587,16.1733129 26.3481176,16.0797996 26.3677133,15.985563 L26.3681464,15.9817781 L26.3746775,15.948956 L26.3763326,15.9359086 L26.3739297,15.9485623 L26.3803593,15.9122923 L26.3837555,15.8809443 L26.3848086,15.871454 L26.3872036,15.8481851 L26.3900102,15.7906902 L26.3900098,15.7627116 L26.3900972,15.7502165 L26.3892986,15.723519 L26.3883118,15.7105152 L26.386135,15.6808582 L26.385782,15.6715287 L26.3729424,15.5784283 L26.3517153,15.486007 L26.338254,15.4416249 L26.329581,15.4152836 C26.3253666,15.403242 26.3209322,15.3912305 26.3162777,15.3792517 L26.3086585,15.3601526 L26.2978004,15.3352551 L26.2779868,15.2916016 L26.2924685,15.3225112 C26.2803091,15.2955533 26.267013,15.2687869 26.2525786,15.2422439 L26.2727892,15.2818724 L26.2284532,15.1998719 C26.1203309,15.0182284 25.9578503,14.8480677 25.7405055,14.6999689 C25.4749082,14.5189909 25.1568496,14.3910375 24.8155847,14.3161087 L24.7731632,14.3070916 L24.7662851,14.3055633 L24.7594211,14.3042972 L24.7304446,14.2986044 L24.6837299,14.2901417 L24.6379676,14.2822332 L24.6219208,14.2794652 L24.5939723,14.2751155 L24.4768424,14.2598942 C24.3889422,14.2498173 24.3001934,14.2430235 24.2110465,14.2395128 L24.1751746,14.238278 L24.1894278,14.2387362 L24.1929621,14.2388461 L24.2110465,14.2395128 L24.1894278,14.2387362 L24.1477514,14.2375733 L24.1014357,14.2367591 L24.0672986,14.2363636 L24.0343221,14.2367591 L23.9879318,14.2375691 L23.9479385,14.2387362 L23.8244843,14.2447919 C23.7793493,14.2477986 23.7342784,14.2516429 23.6893298,14.2563248 L23.554909,14.2728836 L23.4908923,14.282594 L23.4612997,14.2874884 L23.523552,14.2774909 L23.4366586,14.2917234 L23.3993364,14.2985806 L23.4271621,14.2934572 C23.3886832,14.3003812 23.3503828,14.3079386 23.3122991,14.3161294 L23.3993364,14.2985806 C23.3543361,14.307055 23.3095937,14.3163998 23.2651708,14.326615 C22.9341431,14.4027357 22.6208517,14.527187 22.3507541,14.6999689 C22.0678442,14.8809469 21.8637118,15.0948701 21.7392802,15.3224333 L21.7322742,15.3352551 L21.7099647,15.3793257 L21.7011282,15.3979642 L21.6932338,15.4153208 L21.6829948,15.4384615 L21.6778028,15.4514956 Z" id="path-1"></path>
        <filter x="-1.6%" y="-2.4%" width="103.2%" height="109.5%" filterUnits="objectBoundingBox" id="filter-2">
            <feOffset dx="0" dy="1" in="SourceAlpha" result="shadowOffsetOuter1"></feOffset>
            <feColorMatrix values="0 0 0 0 0   0 0 0 0 0   0 0 0 0 0  0 0 0 1 0" type="matrix" in="shadowOffsetOuter1"></feColorMatrix>
        </filter>
    </defs>
    <g id="页面-1" stroke="none" stroke-width="1" fill="none" fill-rule="evenodd">
        <g id="节点" transform="translate(-3022.000000, -250.000000)">
            <g id="节点A备份" transform="translate(2122.000000, 0.000000)">
                <g id="1" transform="translate(52.000000, 166.000000)">
                    <g id="交换机" transform="translate(848.000000, 84.000000)">
                        <g id="背景区域" fill="#D8D8D8" opacity="0">
                            <rect id="矩形" x="0" y="0" width="66" height="66"></rect>
                            <rect id="矩形" x="4" y="4" width="58" height="58"></rect>
                        </g>
                        <g id="图形" transform="translate(8.154270, 14.545455)">
                            <polygon id="路径-7" fill="#ABBCC4" points="23.9669421 39.2987573 23.9669421 30.9901265 47.9338843 15.8181818 47.9338843 24.3726757"></polygon>
                            <polygon id="路径-7备份-2" fill="#D9E3EC" transform="translate(11.983471, 27.558470) scale(-1, 1) translate(-11.983471, -27.558470) " points="0 39.2987573 0 30.9901265 23.9669421 15.8181818 23.9669421 24.3726757"></polygon>
                            <polygon id="路径-4" fill="#416480" points="23.9669421 30.9901265 47.9338843 15.8181818 23.9669421 0.163442983 0 15.8181818"></polygon>
                            <path d="M23.9669421,1.94092491 L44.9853773,15.7694367 L23.9669421,29.1714753 L2.94850699,15.7694367 L23.9669421,1.94092491 Z" id="路径-4备份" stroke="#BAC9D1" stroke-width="0.6" fill="#416480"></path>
                            <g id="形状结合备份-2">
                                <use fill="black" fill-opacity="1" filter="url(#filter-2)" xlink:href="#path-1"></use>
                                <use fill="#FFFFFF" fill-rule="evenodd" xlink:href="#path-1"></use>
                            </g>
                            <path d="M21.6778028,15.4514956 L21.6442537,15.5447287 L21.619228,15.638756 L21.6164729,15.6516417 C21.6173591,15.647372 21.6182715,15.6431037 21.619228,15.638756 L21.6107839,15.6810685 L21.6085703,15.6915348 L21.6074285,15.700853 L21.6058648,15.7105152 L21.6085703,15.6915348 L21.6164729,15.6516417 L21.6040546,15.7234609 L21.5999619,15.7587573 L21.6007007,15.7501565 L21.5993394,15.7629036 L21.5969095,15.7906855 L21.5960876,15.8018589 L21.5946828,15.8312291 L21.5960629,15.8023742 L21.5940827,15.8437741 L21.5946828,15.8312291 L21.5942135,15.8482969 L21.5939723,15.871454 L21.594329,15.8941994 L21.5952035,15.9208824 L21.5962825,15.9359086 L21.5997254,15.9778346 L21.6000808,15.9817781 L21.6005098,15.985337 L21.6124321,16.0643161 C21.6233176,16.1217937 21.639034,16.1788704 21.659595,16.2352633 L21.6704496,16.2645084 L21.6737849,16.2721732 L21.6893233,16.3084008 L21.6795774,16.2866523 L21.6892297,16.3085605 C21.6996854,16.3320583 21.7108435,16.355108 21.722842,16.3779975 L21.709536,16.3518519 C21.8149785,16.5654059 21.9927943,16.7658316 22.2437626,16.9368414 C22.5121231,17.1197023 22.8340423,17.2484295 23.1793424,17.3230231 C23.197539,17.3269528 23.215605,17.3306935 23.2337303,17.3342871 L23.2958105,17.3459797 C23.3330719,17.3526316 23.3705599,17.3586705 23.4082382,17.3640963 L23.358407,17.3565449 C23.3963848,17.362588 23.4345742,17.3680025 23.4729374,17.3727883 L23.4166987,17.3649815 L23.4887794,17.3747277 C23.5157137,17.3779623 23.5427309,17.3808878 23.5698181,17.3835042 C23.5969636,17.386127 23.624276,17.3884464 23.6516457,17.3904532 L23.6372597,17.3891026 L23.6659282,17.3910797 L23.6850468,17.392266 L23.7645513,17.3969456 L23.718509,17.3942431 L23.7508253,17.396346 L23.789666,17.3974065 L23.817773,17.3985928 L23.8260529,17.3989926 L23.8500935,17.3993837 L23.8859945,17.4 L23.8500935,17.3993837 L23.8268389,17.399012 L23.8876525,17.4 L23.9452124,17.4 L24.0112561,17.3988851 C24.0959087,17.3966923 24.1805595,17.3915623 24.264827,17.383495 L24.3137065,17.3784812 L24.3954348,17.3685915 L24.4198082,17.3649815 L24.4777502,17.3562821 L24.4281944,17.3640924 L24.4854123,17.3554894 L24.5139877,17.3503507 L24.5446673,17.3455682 L24.6010143,17.3349291 L24.5447943,17.3452102 L24.601753,17.3350191 L24.6675848,17.3216208 L24.7021069,17.313576 L24.7176552,17.3105266 L24.7292772,17.3078379 C25.0565469,17.2315167 25.3661867,17.1078512 25.633514,16.9368414 C25.9186748,16.7544236 26.1237995,16.5385343 26.2479426,16.308943 L26.2595801,16.2869213 L26.2667763,16.2720215 L26.2588858,16.2866523 L26.2701129,16.2649038 C26.3157587,16.1733129 26.3481176,16.0797996 26.3677133,15.985563 L26.3681464,15.9817781 L26.3746775,15.948956 L26.3763326,15.9359086 L26.3739297,15.9485623 L26.3803593,15.9122923 L26.3837555,15.8809443 L26.3848086,15.871454 L26.3872036,15.8481851 L26.3900102,15.7906902 L26.3900098,15.7627116 L26.3900972,15.7502165 L26.3892986,15.723519 L26.3883118,15.7105152 L26.386135,15.6808582 L26.385782,15.6715287 L26.3729424,15.5784283 L26.3517153,15.486007 L26.338254,15.4416249 L26.329581,15.4152836 C26.3253666,15.403242 26.3209322,15.3912305 26.3162777,15.3792517 L26.3086585,15.3601526 L26.2978004,15.3352551 L26.2779868,15.2916016 L26.2924685,15.3225112 C26.2803091,15.2955533 26.267013,15.2687869 26.2525786,15.2422439 L26.2727892,15.2818724 L26.2284532,15.1998719 C26.1203309,15.0182284 25.9578503,14.8480677 25.7405055,14.6999689 C25.4749082,14.5189909 25.1568496,14.3910375 24.8155847,14.3161087 L24.7731632,14.3070916 L24.7662851,14.3055633 L24.7594211,14.3042972 L24.7304446,14.2986044 L24.6837299,14.2901417 L24.6379676,14.2822332 L24.6219208,14.2794652 L24.5939723,14.2751155 L24.4768424,14.2598942 C24.3889422,14.2498173 24.3001934,14.2430235 24.2110465,14.2395128 L24.1751746,14.238278 L24.1894278,14.2387362 L24.1929621,14.2388461 L24.2110465,14.2395128 L24.1894278,14.2387362 L24.1477514,14.2375733 L24.1014357,14.2367591 L24.0672986,14.2363636 L24.0343221,14.2367591 L23.9879318,14.2375691 L23.9479385,14.2387362 L23.8244843,14.2447919 C23.7793493,14.2477986 23.7342784,14.2516429 23.6893298,14.2563248 L23.554909,14.2728836 L23.4908923,14.282594 L23.4612997,14.2874884 L23.523552,14.2774909 L23.4366586,14.2917234 L23.3993364,14.2985806 L23.4271621,14.2934572 C23.3886832,14.3003812 23.3503828,14.3079386 23.3122991,14.3161294 L23.3993364,14.2985806 C23.3543361,14.307055 23.3095937,14.3163998 23.2651708,14.326615 C22.9341431,14.4027357 22.6208517,14.527187 22.3507541,14.6999689 C22.0678442,14.8809469 21.8637118,15.0948701 21.7392802,15.3224333 L21.7322742,15.3352551 L21.7099647,15.3793257 L21.7011282,15.3979642 L21.6932338,15.4153208 L21.6829948,15.4384615 L21.6778028,15.4514956 Z" id="路径" fill="#23CCD1"></path>
                        </g>
                    </g>
                </g>
            </g>
        </g>
    </g>
</svg>