<?xml version="1.0" encoding="UTF-8"?>
<svg width="80px" height="80px" viewBox="0 0 80 80" version="1.1" xmlns="http://www.w3.org/2000/svg" xmlns:xlink="http://www.w3.org/1999/xlink">
    <title>交换机</title>
    <g id="页面-1" stroke="none" stroke-width="1" fill="none" fill-rule="evenodd">
        <g id="交换机">
            <rect id="矩形备份" x="0" y="0" width="80" height="80"></rect>
            <g id="编组备份-21" transform="translate(39.500000, 39.500000) scale(-1, 1) translate(-39.500000, -39.500000) translate(0.000000, 8.000000)" fill="#416480" fill-rule="nonzero">
                <path d="M78.2113379,25.7586252 L78.2113379,62.5687038 L24.1587253,62.5687038 L24.1587253,25.7586252 L78.2113379,25.7586252 Z M71.0189622,48.021698 L60.0395252,48.021698 L60.0395252,57.0134729 L71.0189622,57.0134729 L71.0189622,48.021698 Z M42.8119441,48.021698 L31.8325072,48.021698 L31.8325072,57.0134729 L42.8119441,57.0134729 L42.8119441,48.021698 Z M71.0189622,33.5955191 L60.0395252,33.5955191 L60.0395252,42.587294 L71.0189622,42.587294 L71.0189622,33.5955191 Z M42.8119441,33.5955191 L31.8325072,33.5955191 L31.8325072,42.587294 L42.8119441,42.587294 L42.8119441,33.5955191 Z" id="形状结合"></path>
                <path d="M54.2632966,0.837264448 L77.4816277,25.008374 L23.7668438,25.008374 L2.4497132,0.837264448 L54.2632966,0.837264448 Z M16.4897185,4.33898305 L11,6.70598446 L21.979437,9.23492115 L20.403,7.82898305 L26.982,7.82898305 L39.002,13.3579831 L40.004,19.0689831 L33.834,19.0689831 L31.6075586,17.3837172 L26.2022973,19.9126539 L37.6884775,21.9873079 L36.061,20.7549831 L43.600482,20.7556327 L42.569,14.9979831 L55.0866622,20.7556327 L62.835,20.7549831 L64.8836982,22.4415906 L70.1200451,19.9126539 L58.7402035,17.3837172 L60.788,19.0689831 L54.153,19.0689831 L42.295,13.4659831 L41.285,7.82898305 L47.9922568,7.82995634 L49.6814009,9.23492115 L55.0866622,6.70598446 L43.9383108,4.4580407 L45.627,5.86298305 L37.6884775,5.86300552 L38.726,11.7799831 L26.2022973,5.86300552 L18.198,5.86298305 L16.4897185,4.33898305 Z" id="形状结合"></path>
                <path d="M1.99916324,1.55638145 L23.7315523,25.91258 L23.568281,62.3942688 L0.820948659,34.1990488 L1.99916324,1.55638145 Z M4.81868146,14.2724529 L8.17437241,21.4223443 L7.98013984,19.8606924 L10.467707,23.5935083 L12.9510197,32.1321575 L11.652122,34.8751203 L9.21236245,31.2152881 L9.28229157,32.1988947 L8.99257753,29.8276207 L6.26127751,27.699756 L9.57301149,34.5721139 L9.41334669,33.2756498 L12.2693477,37.5590031 L13.6983729,34.7028958 L16.3273417,43.7441739 L18.3655112,46.8017515 L17.6594957,48.4698857 L22.1945477,51.6342627 L19.3661727,44.4438444 L18.8210324,45.7272635 L16.7825962,42.6694991 L14.1475324,33.8055844 L15.4288417,31.2456261 L18.2454085,32.9581014 L18.2159825,33.8825412 L21.6959013,35.5926315 L18.3841673,28.7202736 L18.3073089,31.0732119 L14.7438815,28.3477125 L13.3803671,31.224822 L10.6858875,22.1625417 L7.7697664,17.7879851 L7.83297198,18.6822054 L7.54998147,16.4003177 L4.81868146,14.2724529 Z" id="形状结合"></path>
            </g>
        </g>
    </g>
</svg>