<?xml version="1.0" encoding="UTF-8"?>
<svg width="60px" height="43px" viewBox="0 0 60 43" version="1.1" xmlns="http://www.w3.org/2000/svg" xmlns:xlink="http://www.w3.org/1999/xlink">
    <title>编组</title>
    <g id="图表" stroke="none" stroke-width="1" fill="none" fill-rule="evenodd">
        <g id="编组" fill-rule="nonzero">
            <polygon id="路径" fill="#E8E8E8" points="13.3970245 16.5633568 13.3970245 41.8736548 0 23.0770364 0 0"></polygon>
            <polygon id="路径" fill="#4D8EF7" points="59.3345664 41.4400298 13.7276745 41.4400298 13.7276745 17.0602575 59.3345664 17.0602575"></polygon>
            <path d="M59.7165241,42.0597599 L13.3970245,42.0597599 L13.3970245,16.5633568 L59.7165241,16.5633568 L59.7165241,42.0597599 Z M14.1096322,41.1292343 L59.0039164,41.1292343 L59.0039164,17.4938824 L14.1096322,17.4938824 L14.1096322,41.1292343 Z M13.3970245,16.5633568 L59.7165241,16.5633568 L45.7494135,0 L0,0 L13.3970245,16.5633568 Z" id="形状" fill="#E8E8E8"></path>
            <polygon id="路径" fill="#4D8EF7" opacity="0.601981027" points="13.3970245 16.5633568 58.7188733 16.5633568 45.3218489 0.930525651 0.712607678 0.930525651"></polygon>
            <polygon id="路径" fill="#4D8EF7" opacity="0.802222842" points="13.3970245 17.6799876 13.3970245 40.9431291 0.570086155 22.8909313 0.570086155 2.04715646"></polygon>
            <polygon id="路径" fill="#000000" points="5.98590457 14.7023055 8.40877071 28.8462955 8.83633531 28.4740852 6.41346917 14.14399"></polygon>
            <path d="M5.70086149,24.3797723 L9.40642146,20.4715646 L9.12137839,18.7966184 L5.41581841,22.7048261 L5.70086149,24.3797723 Z M8.40877071,28.8462955 L10.2615507,32.0100828 L10.2615507,30.7073468 L8.55129223,27.5435596 L8.40877071,28.8462955 Z" id="形状" fill="#000000"></path>
            <polygon id="路径" fill="#000000" points="10.4040722 29.7768212 12.1143307 34.6155546 10.1190291 33.1267135"></polygon>
            <polygon id="路径" fill="#000000" points="8.97885683 20.0993543 10.8316368 23.2631415 10.8316368 21.9604056 9.12137839 18.7966184"></polygon>
            <polygon id="路径" fill="#000000" points="10.9741584 20.8437748 12.6844168 25.6825083 10.6891153 24.1936672"></polygon>
            <polygon id="路径" fill="#000000" points="5.70086149 24.3797723 3.99060305 21.2159851 3.99060305 19.9132491 5.84338304 23.0770364"></polygon>
            <polygon id="路径" fill="#000000" points="4.13312458 18.9827235 2.13782307 17.3077773 3.8480815 22.3326159"></polygon>
            <polygon id="路径" fill="#000000" points="6.27094764 15.446726 4.56068918 12.2829387 4.56068918 10.9802028 6.41346917 14.14399"></polygon>
            <polygon id="路径" fill="#000000" points="4.70321073 10.0496771 2.70790922 8.5608361 4.41816765 13.3995695"></polygon>
            <polygon id="路径" fill="#FFFFFF" points="5.84338304 14.7023055 8.12372763 28.8462955 8.69381379 28.4740852 6.27094764 14.14399"></polygon>
            <path d="M5.55833997,24.3797723 L9.12137839,20.4715646 L8.83633531,18.6105132 L5.27329689,22.7048261 L5.55833997,24.3797723 Z M8.12372763,28.8462955 L9.97650762,32.0100828 L10.1190291,30.7073468 L8.26624915,27.5435596 L8.12372763,28.8462955 Z" id="形状" fill="#FFFFFF"></path>
            <polygon id="路径" fill="#FFFFFF" points="10.1190291 29.7768212 11.9718091 34.6155546 9.97650762 33.1267135"></polygon>
            <polygon id="路径" fill="#FFFFFF" points="8.83633531 19.9132491 10.5465937 23.0770364 10.6891153 21.7743005 8.83633531 18.6105132"></polygon>
            <polygon id="路径" fill="#FFFFFF" points="10.6891153 20.8437748 12.5418953 25.6825083 10.5465937 24.1936672"></polygon>
            <polygon id="路径" fill="#FFFFFF" points="5.55833997 24.3797723 3.70555998 21.2159851 3.8480815 19.9132491 5.70086149 23.0770364"></polygon>
            <polygon id="路径" fill="#FFFFFF" points="3.8480815 18.9827235 1.85277999 17.3077773 3.70555998 22.1465108"></polygon>
            <polygon id="路径" fill="#FFFFFF" points="6.12842609 15.446726 4.27564613 12.2829387 4.41816765 10.9802028 6.27094764 14.14399"></polygon>
            <polygon id="路径" fill="#FFFFFF" points="4.41816765 10.0496771 2.42286614 8.37473094 4.27564613 13.3995695"></polygon>
            <polygon id="路径" fill="#000000" points="17.8151921 4.6526283 42.0438535 13.5856747 41.7588104 12.4690439 17.5301491 3.53599753"></polygon>
            <path d="M32.3523889,13.5856747 L30.2145659,4.6526283 L27.3641352,3.53599753 L29.3594367,12.4690439 L32.3523889,13.5856747 Z M42.0438535,13.5856747 L48.7423657,13.5856747 L46.8895857,12.2829387 L40.1910735,12.2829387 L42.0438535,13.5856747 Z" id="形状" fill="#000000"></path>
            <polygon id="路径" fill="#000000" points="45.4643704 11.3524131 54.7282703 12.8412541 50.3101026 14.5162003"></polygon>
            <polygon id="路径" fill="#000000" points="29.2169152 4.83873345 36.0579489 4.83873345 34.2051689 3.53599753 27.3641352 3.53599753"></polygon>
            <polygon id="路径" fill="#000000" points="32.637432 2.60547184 42.0438535 4.28041803 37.4831643 5.7692591"></polygon>
            <polygon id="路径" fill="#000000" points="32.3523889 13.5856747 25.5113552 13.5856747 23.6585752 12.2829387 30.499609 12.2829387"></polygon>
            <polygon id="路径" fill="#000000" points="22.2333598 11.3524131 17.6726706 12.8412541 26.9365705 14.5162003"></polygon>
            <polygon id="路径" fill="#000000" points="19.5254506 4.83873345 12.6844168 4.83873345 10.8316368 3.53599753 17.6726706 3.53599753"></polygon>
            <polygon id="路径" fill="#000000" points="9.40642146 2.60547184 4.84573226 4.28041803 14.1096322 5.7692591"></polygon>
            <polygon id="路径" fill="#FFFFFF" points="17.5301491 5.02483857 41.7588104 13.7717798 41.4737673 12.8412541 17.3876275 3.90820776"></polygon>
            <path d="M32.0673459,13.7717798 L30.0720444,5.02483857 L27.0790921,3.90820776 L29.0743936,12.8412541 L32.0673459,13.7717798 Z M41.7588104,13.7717798 L48.4573226,13.7717798 L46.6045427,12.655149 L39.9060304,12.655149 L41.7588104,13.7717798 Z" id="形状" fill="#FFFFFF"></path>
            <polygon id="路径" fill="#FFFFFF" points="45.1793273 11.5385182 54.4432272 13.2134644 50.0250596 14.8884106"></polygon>
            <polygon id="路径" fill="#FFFFFF" points="28.9318721 5.21094372 35.7729058 5.21094372 33.9201259 3.90820776 27.0790921 3.90820776"></polygon>
            <polygon id="路径" fill="#FFFFFF" points="32.3523889 2.97768211 41.7588104 4.46652318 37.1981212 6.14146937"></polygon>
            <polygon id="路径" fill="#FFFFFF" points="32.0673459 13.7717798 25.2263121 13.7717798 23.3735321 12.655149 30.2145659 12.655149"></polygon>
            <polygon id="路径" fill="#FFFFFF" points="21.9483168 11.5385182 17.3876275 13.2134644 26.6515275 14.8884106"></polygon>
            <polygon id="路径" fill="#FFFFFF" points="19.2404075 5.21094372 12.3993737 5.21094372 10.5465937 3.90820776 17.3876275 3.90820776"></polygon>
            <polygon id="路径" fill="#FFFFFF" points="9.12137839 2.97768211 4.56068918 4.46652318 13.8245891 6.14146937"></polygon>
            <path d="M53.9101967,27.6273069 L44.6462967,27.6273069 L44.6462967,21.6719426 L53.9101967,21.6719426 L53.9101967,27.6273069 Z M53.9101967,37.1838055 L44.6462967,37.1838055 L44.6462967,31.2284412 L53.9101967,31.2284412 L53.9101967,37.1838055 Z M30.1105252,27.6273069 L20.8466253,27.6273069 L20.8466253,21.6719426 L30.1105252,21.6719426 L30.1105252,27.6273069 Z M30.1105252,37.1838055 L20.8466253,37.1838055 L20.8466253,31.2284412 L30.1105252,31.2284412 L30.1105252,37.1838055 Z" id="形状" fill="#000000"></path>
            <polygon id="路径" fill="#000000" points="28.2192644 31.6378725 45.891935 26.7991391 46.0344565 27.3574544 28.3617859 32.1961879"></polygon>
            <polygon id="路径" fill="#000000" points="46.0344565 31.6378725 28.3617859 26.7991391 28.2192644 27.3574544 45.891935 32.1961879"></polygon>
            <path d="M44.9712459,34.2991759 L29.4363983,34.2991759 L29.4363983,33.9269656 L44.9712459,33.9269656 L44.9712459,34.2991759 Z M44.9712459,24.7445384 L29.4363983,24.7445384 L29.4363983,24.3723281 L44.9712459,24.3723281 L44.9712459,24.7445384 Z" id="形状" fill="#000000"></path>
            <path d="M53.2659993,28.2060938 L44.0020994,28.2060938 L44.0020994,22.2507296 L53.2659993,22.2507296 L53.2659993,28.2060938 Z M53.2659993,37.7607313 L44.0020994,37.7607313 L44.0020994,31.8053671 L53.2659993,31.8053671 L53.2659993,37.7607313 Z M29.4663278,28.2060938 L20.2024279,28.2060938 L20.2024279,22.2507296 L29.4663278,22.2507296 L29.4663278,28.2060938 Z M29.4663278,37.7607313 L20.2024279,37.7607313 L20.2024279,31.8053671 L29.4663278,31.8053671 L29.4663278,37.7607313 Z" id="形状" fill="#FFFFFF"></path>
            <polygon id="路径" fill="#FFFFFF" points="27.6491782 32.382293 45.1793273 27.5435596 45.3218489 27.9157699 27.7916998 32.7545033"></polygon>
            <polygon id="路径" fill="#FFFFFF" points="45.3218489 32.382293 27.7916998 27.5435596 27.6491782 27.9157699 45.1793273 32.7545033"></polygon>
            <path d="M44.3270485,34.8779629 L28.792201,34.8779629 L28.792201,34.5057526 L44.3270485,34.5057526 L44.3270485,34.8779629 Z M44.3270485,25.3233254 L28.792201,25.3233254 L28.792201,24.9511151 L44.3270485,24.9511151 L44.3270485,25.3233254 Z" id="形状" fill="#FFFFFF"></path>
        </g>
    </g>
</svg>