<svg xmlns="http://www.w3.org/2000/svg" xmlns:xlink="http://www.w3.org/1999/xlink" width="29px" height="30px" viewBox="0 0 29 30" version="1.1">
    <title>资源自动发现</title>
    <g id="页面-1" stroke="none" stroke-width="1" fill="none" fill-rule="evenodd">
        <g id="Hub商城30*30备份" transform="translate(-13.000000, -12.000000)" fill="#29C8CC">
            <g id="资源自动发现" transform="translate(13.000000, 12.000000)">
                <path d="M24.667447,13.5999686 C25.1829244,13.5999686 25.6008013,14.0178455 25.6008013,14.5333229 C25.6008013,21.2345282 20.168401,26.6669286 13.4671956,26.6669286 C10.1587668,26.6669286 7.05965306,25.3352003 4.79206118,23.0166321 C4.4316374,22.6481059 4.43820573,22.0571751 4.80673197,21.6967514 C5.1752582,21.3363276 5.76618894,21.3428959 6.12661272,21.7114221 C8.04652084,23.6744905 10.6662473,24.80022 13.4671956,24.80022 C19.1374463,24.80022 23.7340927,20.2035736 23.7340927,14.5333229 C23.7340927,14.0178455 24.1519697,13.5999686 24.667447,13.5999686 Z M13.4671956,2.39971716 C17.3708534,2.39971716 20.9664952,4.25709417 23.239188,7.33954978 C23.5450916,7.75444719 23.4567347,8.33877188 23.0418373,8.6446755 C22.6269399,8.95057912 22.0426152,8.8622222 21.7367116,8.44732479 C19.8122268,5.83714411 16.7715191,4.26642573 13.4671956,4.26642573 C7.79694489,4.26642573 3.20029847,8.86307214 3.20029847,14.5333229 C3.20029847,15.0488002 2.78242153,15.4666771 2.26694419,15.4666771 C1.75146685,15.4666771 1.33358991,15.0488002 1.33358991,14.5333229 C1.33358991,7.83211747 6.76599022,2.39971716 13.4671956,2.39971716 Z" id="形状" fill-rule="nonzero"/>
                <path d="M15.07309,13.0434852 L8.8767259,9.52199787 C8.78777077,9.47141255 8.6872099,9.44470287 8.58487768,9.44470287 C8.42903019,9.44434118 8.2794433,9.50600616 8.16912668,9.61609165 C7.98201831,9.80179998 7.94095072,10.0923648 8.06925777,10.32232 L11.5463817,16.5632226 C11.5990169,16.6576128 11.6765239,16.7357653 11.7704742,16.7891818 L17.9655549,20.3101734 C18.0547691,20.3612349 18.1557765,20.3881084 18.2585698,20.3881084 L18.2611657,20.3881084 C18.5867314,20.3881084 18.8515123,20.1233858 18.8515123,19.7978785 C18.8515123,19.6798967 18.8156948,19.5637233 18.7499225,19.4665669 L15.2973867,13.269882 C15.2447581,13.1753344 15.1672096,13.0970294 15.0731775,13.0434852 L15.07309,13.0434852 Z M13.4430742,16.1585552 C12.7569713,16.1585552 12.1988255,15.6004676 12.1988255,14.9143064 C12.1988255,14.2281452 12.756913,13.6700285 13.4430742,13.6700285 C14.1291771,13.6700285 14.6873522,14.228116 14.6873522,14.9143064 C14.687323,15.6004093 14.1292355,16.1585552 13.4430742,16.1585552 Z" id="形状备份-4"/>
                <path d="M22.9377751,5.1301009 L25.8205325,9.21535004 C26.0784555,9.58086109 25.9912381,10.0862542 25.6257271,10.3441772 C25.4890866,10.4405976 25.3259511,10.4923609 25.1587162,10.4923609 L19.3932014,10.4923609 C18.9458507,10.4923609 18.5832014,10.1297116 18.5832014,9.68236094 C18.5832014,9.51512603 18.6349647,9.35199052 18.7313851,9.21535004 L21.6141425,5.1301009 C21.8720655,4.76458985 22.3774586,4.67737249 22.7429697,4.93529549 C22.8185523,4.98863037 22.8844402,5.0545183 22.9377751,5.1301009 Z" id="多边形" transform="translate(22.275959, 7.342290) rotate(-225.000000) translate(-22.275959, -7.342290) "/>
                <path d="M6.51914896,20.4455204 L9.40190636,24.5307696 C9.65982936,24.8962806 9.572612,25.4016738 9.20710095,25.6595968 C9.07046047,25.7560172 8.90732496,25.8077805 8.74009005,25.8077805 L2.97457525,25.8077805 C2.5272246,25.8077805 2.16457525,25.4451311 2.16457525,24.9977805 C2.16457525,24.8305456 2.21633854,24.6674101 2.31275894,24.5307696 L5.19551634,20.4455204 C5.45343934,20.0800094 5.95883249,19.992792 6.32434355,20.250715 C6.39992614,20.3040499 6.46581408,20.3699379 6.51914896,20.4455204 Z" id="多边形备份" transform="translate(5.857333, 22.657710) rotate(-45.000000) translate(-5.857333, -22.657710) "/>
            </g>
        </g>
    </g>
</svg>