<svg xmlns="http://www.w3.org/2000/svg" xmlns:xlink="http://www.w3.org/1999/xlink" width="25.7142857px" height="29.9978573px" viewBox="0 0 25.7142857 29.9978573" version="1.1">
    <title>编组</title>
    <g id="页面-1" stroke="none" stroke-width="1" fill="none" fill-rule="evenodd">
        <g id="Hub商城30*30" transform="translate(-14.000000, -12.000000)" fill="#29C8CC">
            <g id="编组" transform="translate(14.000000, 12.000000)">
                <path d="M14.327,0 L25.714,11.386 L25.7142857,26.9978573 C25.7142857,28.6547116 24.37114,29.9978573 22.7142857,29.9978573 L3,29.9978573 C1.34314575,29.9978573 1.09108455e-15,28.6547116 0,26.9978573 L0,3.00008963 C-2.02906125e-16,1.34323538 1.34314575,8.96340113e-05 3,8.96340113e-05 L14.327,0 Z M7.78571429,7.42818271 C6.40500241,7.42818271 5.28571429,8.54747083 5.28571429,9.92818271 C5.28571429,11.3088946 6.40500241,12.4281827 7.78571429,12.4281827 C8.86661444,12.4281827 9.78729705,11.7422098 10.1361708,10.7818554 L19.4080204,10.7819704 L19.4080204,15.4889704 L7.55102041,15.4895458 L4.91836735,15.4895458 L4.91836735,24.1971212 L16.3000248,24.1972503 C16.434232,25.4514273 17.4959064,26.4281827 18.7857143,26.4281827 C20.1664262,26.4281827 21.2857143,25.3088946 21.2857143,23.9281827 C21.2857143,22.5474708 20.1664262,21.4281827 18.7857143,21.4281827 C18.0773711,21.4281827 17.4378339,21.7227763 16.982938,22.1961281 L6.91893878,22.1965458 L6.91893878,17.4895458 L21.4081633,17.4895458 L21.4081633,8.7819704 L10.0077016,8.78128347 C9.59200184,7.97754267 8.75301301,7.42818271 7.78571429,7.42818271 Z" id="形状结合"/>
            </g>
        </g>
    </g>
</svg>