<svg xmlns="http://www.w3.org/2000/svg" xmlns:xlink="http://www.w3.org/1999/xlink" width="12.1333333px" height="14px" viewBox="0 0 12.1333333 14" version="1.1">
    <title>编组备份</title>
    <g id="页面-1" stroke="none" stroke-width="1" fill="none" fill-rule="evenodd">
        <g id="筛选14*14" transform="translate(-1.000000, 0.000000)">
            <g id="编组备份" transform="translate(1.000000, 0.000000)">
                <path d="M6.759,0 L12.133,5.314 L12.1333333,12.5 C12.1333333,13.3284271 11.4617605,14 10.6333333,14 L1.5,14 C0.671572875,14 5.45542273e-16,13.3284271 0,12.5 L0,1.50004183 C-1.01453063e-16,0.671614707 0.671572875,4.18321931e-05 1.5,4.18321931e-05 L6.759,0 Z M3.6737037,3.46673287 C3.02221225,3.46673287 2.49407407,3.98910464 2.49407407,4.63348287 C2.49407407,5.2778611 3.02221225,5.80023287 3.6737037,5.80023287 C4.18336605,5.80023287 4.61753684,5.48054413 4.78241965,5.03284713 L9.15771037,5.03194558 L9.15771037,7.22870248 L2.32074074,7.22897101 L2.32074074,11.2927964 L7.69074074,11.2927329 L7.68444444,11.1672829 C7.68444444,11.8116611 8.21258262,12.3340329 8.86407407,12.3340329 C9.51556553,12.3340329 10.0437037,11.8116611 10.0437037,11.1672829 C10.0437037,10.5229046 9.51556553,10.0005329 8.86407407,10.0005329 C8.52989728,10.0005329 8.2281758,10.1379734 8.01353911,10.3588215 L3.26471407,10.3591279 L3.26471407,8.16237101 L10.1014815,8.16237101 L10.1014815,4.09854558 L4.7219272,4.09779427 C4.52570074,3.72292291 4.12995068,3.46673287 3.6737037,3.46673287 Z" id="形状结合" fill="#29C8CC"/>
                <g id="编组-8" transform="translate(2.320741, 3.466733)"/>
            </g>
        </g>
    </g>
</svg>