<svg xmlns="http://www.w3.org/2000/svg" xmlns:xlink="http://www.w3.org/1999/xlink" width="24px" height="24px" viewBox="0 0 24 24" version="1.1">
    <title>资源自动发现</title>
    <g id="页面-1" stroke="none" stroke-width="1" fill="none" fill-rule="evenodd">
        <g id="新增资源24*24备份" transform="translate(-12.000000, -12.000000)">
            <g id="资源自动发现" transform="translate(12.000000, 12.000000)">
                <path d="M4.39431654,18.0196678 C6.1911036,19.8568473 8.69754493,20.9971036 11.4703074,20.9971036 C16.9362075,20.9971036 21.3671949,16.5661161 21.3671949,11.100216 M19.441324,5.23300835 C17.6392576,2.78886386 14.7399433,1.20332846 11.4703074,1.20332846 C6.00440733,1.20332846 1.57341985,5.63431594 1.57341985,11.100216" id="形状" stroke="#FFFFFF" stroke-width="2" stroke-linecap="round" stroke-linejoin="round"/>
                <path d="M12.8893252,9.78374955 L7.4140268,6.6720547 C7.33542331,6.62735596 7.24656461,6.60375446 7.15614071,6.60375446 C7.01842906,6.60343486 6.88624948,6.65792394 6.78877031,6.75519887 C6.62343558,6.91929648 6.587147,7.17604855 6.70052306,7.37924402 L9.77301695,12.893898 C9.81952712,12.9773041 9.88801462,13.0463621 9.97103203,13.0935626 L15.4451964,16.2048193 C15.5240288,16.2499388 15.6132821,16.2736851 15.7041134,16.2736851 L15.7064072,16.2736851 C15.9940871,16.2736851 16.2280557,16.039768 16.2280557,15.7521398 C16.2280557,15.6478874 16.1964063,15.5452329 16.1382878,15.4593826 L13.0875207,9.9838007 C13.0410164,9.90025553 12.9724922,9.83106278 12.8894025,9.78374955 L12.8893252,9.78374955 Z M11.448993,12.5363214 C10.8427313,12.5363214 10.3495364,12.0431781 10.3495364,11.4368648 C10.3495364,10.8305516 10.8426798,10.3373825 11.448993,10.3373825 C12.0552547,10.3373825 12.5484754,10.8305258 12.5484754,11.4368648 C12.5484496,12.0431265 12.0553062,12.5363214 11.448993,12.5363214 Z" id="形状备份-4" fill="#FFFFFF" fill-rule="nonzero"/>
                <path d="M19.9158185,2.90037957 L22.2812339,6.25248654 C22.5391569,6.6179976 22.4519395,7.12339075 22.0864285,7.38131374 C21.949788,7.47773414 21.7866525,7.52949744 21.6194176,7.52949744 L16.8885868,7.52949744 C16.4412362,7.52949744 16.0785868,7.16684808 16.0785868,6.71949744 C16.0785868,6.55226253 16.1303501,6.38912702 16.2267705,6.25248654 L18.5921859,2.90037957 C18.8501089,2.53486852 19.355502,2.44765117 19.7210131,2.70557416 C19.7965957,2.75890904 19.8624836,2.82479698 19.9158185,2.90037957 Z" id="多边形" fill="#FFFFFF" transform="translate(19.254002, 4.745998) rotate(-225.000000) translate(-19.254002, -4.745998) "/>
                <path d="M5.40781412,16.4335566 L7.77322951,19.7856636 C8.0311525,20.1511746 7.94393515,20.6565678 7.57842409,20.9144908 C7.44178361,21.0109112 7.2786481,21.0626745 7.1114132,21.0626745 L2.38058243,21.0626745 C1.93323178,21.0626745 1.57058243,20.7000251 1.57058243,20.2526745 C1.57058243,20.0854396 1.62234572,19.922304 1.71876612,19.7856636 L4.08418151,16.4335566 C4.3421045,16.0680455 4.84749765,15.9808282 5.21300871,16.2387512 C5.2885913,16.2920861 5.35447924,16.357974 5.40781412,16.4335566 Z" id="多边形备份" fill="#FFFFFF" transform="translate(4.745998, 18.279175) rotate(-45.000000) translate(-4.745998, -18.279175) "/>
            </g>
        </g>
    </g>
</svg>