<svg xmlns="http://www.w3.org/2000/svg" xmlns:xlink="http://www.w3.org/1999/xlink" width="14px" height="14px" viewBox="0 0 14 14" version="1.1">
    <title>自动发现</title>
    <g id="页面-1" stroke="none" stroke-width="1" fill="none" fill-rule="evenodd">
        <g id="自动发现">
            <path d="M2.54693972,10.436546 C3.49558645,11.4068046 4.81890819,12.0090013 6.28283906,12.0090013 C9.16866139,12.0090013 11.5080826,9.66889042 11.5080826,6.78221733 M10.4912837,3.68360407 C9.53984964,2.39279266 8.0091034,1.55543334 6.28283906,1.55543334 C3.39701673,1.55543334 1.0575955,3.89554424 1.0575955,6.78221733" id="形状" stroke="#29C8CC" stroke-linecap="round" stroke-linejoin="round"/>
            <path d="M7.03203557,6.08695978 L4.14125122,4.443599 C4.09975106,4.41999252 4.05283648,4.40752801 4.00509552,4.40752801 C3.93238813,4.40735922 3.86260149,4.43613621 3.81113557,4.48750943 C3.72384407,4.57417332 3.70468484,4.70977026 3.76454381,4.81708267 L5.3867234,7.72950388 C5.4112793,7.77355264 5.44743853,7.81002383 5.49126909,7.83495152 L8.38145472,9.4780809 C8.42307576,9.50190963 8.47019865,9.51445061 8.51815471,9.51445061 L8.51936577,9.51445061 C8.67125163,9.51445061 8.79477965,9.39091339 8.79477965,9.23900998 C8.79477965,9.1839518 8.77806976,9.12973753 8.74738506,9.0843979 L7.13667652,6.1926116 C7.11212373,6.14848939 7.07594513,6.11194704 7.03207639,6.08695978 L7.03203557,6.08695978 Z M6.27158574,7.54065908 C5.95149875,7.54065908 5.69110744,7.28021823 5.69110744,6.96000966 C5.69110744,6.63980108 5.95147153,6.37934662 6.27158574,6.37934662 C6.59167273,6.37934662 6.85207764,6.63978747 6.85207764,6.96000966 C6.85206403,7.28019101 6.59169994,7.54065908 6.27158574,7.54065908 Z" id="形状备份-4" fill="#29C8CC"/>
            <path d="M10.723747,2.42512865 L12.01636,4.25712469 C12.1453125,4.43988658 12.1016914,4.692581 11.9189295,4.82153347 C11.8506291,4.86972461 11.7690903,4.89560146 11.6855,4.89561378 L9.09973392,4.89599487 C8.8760586,4.89602784 8.6947072,4.71472989 8.69467424,4.49105457 C8.69466191,4.40740991 8.72054835,4.32581317 8.76877761,4.25747309 L10.0619307,2.42509596 C10.1909012,2.2423468 10.4436,2.19875061 10.6263491,2.32772113 C10.6641391,2.35439044 10.6970814,2.38733604 10.723747,2.42512865 Z" id="多边形" fill="#29C8CC" transform="translate(10.392429, 3.426141) rotate(-225.000000) translate(-10.392429, -3.426141) "/>
            <path d="M3.06388946,9.57284697 L4.35650249,11.404843 C4.48545496,11.5876049 4.4418338,11.8402993 4.2590719,11.9692518 C4.19077151,12.0174429 4.10923274,12.0433198 4.0256425,12.0433321 L1.43987637,12.0437132 C1.21620105,12.0437462 1.03484965,11.8624482 1.03481668,11.6387729 C1.03480436,11.5551282 1.0606908,11.4735315 1.10892006,11.4051914 L2.40207315,9.57281428 C2.53104368,9.39006512 2.78374241,9.34646893 2.96649156,9.47543945 C3.00428154,9.50210876 3.03722389,9.53505435 3.06388946,9.57284697 Z" id="多边形备份" fill="#29C8CC" transform="translate(2.732571, 10.573859) rotate(-45.000000) translate(-2.732571, -10.573859) "/>
        </g>
    </g>
</svg>