<svg xmlns="http://www.w3.org/2000/svg" xmlns:xlink="http://www.w3.org/1999/xlink" width="32px" height="31px" viewBox="0 0 32 31" version="1.1">
    <title>资源自动发现</title>
    <g id="页面-1" stroke="none" stroke-width="1" fill="none" fill-rule="evenodd">
        <g id="资源详情32*32备份" transform="translate(0.000000, -1.000000)">
            <g id="资源自动发现" transform="translate(0.000000, 1.000000)">
                <path d="M5.85908872,24.0262237 C8.2548048,26.4757963 11.5967266,27.9961381 15.2937432,27.9961381 C22.5816099,27.9961381 28.4895933,22.0881548 28.4895933,14.800288 M25.9217653,6.97734447 C23.5190102,3.71848515 19.6532578,1.60443794 15.2937432,1.60443794 C8.00587644,1.60443794 2.09789313,7.51242126 2.09789313,14.800288" id="形状" stroke="#262626" stroke-width="2" stroke-linecap="round" stroke-linejoin="round"/>
                <path d="M17.1857669,13.0449994 L9.88536906,8.89607294 C9.78056441,8.83647461 9.66208615,8.80500595 9.54152095,8.80500595 C9.35790542,8.80457982 9.18166597,8.87723191 9.05169374,9.00693183 C8.83124745,9.22572864 8.78286266,9.56806473 8.93403075,9.83899203 L13.0306893,17.191864 C13.0927028,17.3030721 13.1840195,17.3951495 13.2947094,17.4580834 L20.5935952,21.6064257 C20.6987051,21.6665851 20.8177095,21.6982468 20.9388179,21.6982468 L20.9418763,21.6982468 C21.3254494,21.6982468 21.6374076,21.3863574 21.6374076,21.002853 C21.6374076,20.8638498 21.5952083,20.7269773 21.5177171,20.6125101 L17.4500276,13.3117343 C17.3880219,13.2003407 17.2966563,13.1080837 17.18587,13.0449994 L17.1857669,13.0449994 Z M15.265324,16.7150952 C14.4569751,16.7150952 13.7993819,16.0575707 13.7993819,15.2491531 C13.7993819,14.4407355 14.4569064,13.7831766 15.265324,13.7831766 C16.0736729,13.7831766 16.7313005,14.4407011 16.7313005,15.2491531 C16.7312661,16.057502 16.0737416,16.7150952 15.265324,16.7150952 Z" id="形状备份-4" fill="#262626"/>
                <path d="M26.3338192,3.55454564 L30.0086862,8.76231902 C30.2666092,9.12783007 30.1793919,9.63322323 29.8138808,9.89114622 C29.6772403,9.98756662 29.5141048,10.0393299 29.3468699,10.0393299 L21.9971359,10.0393299 C21.5497853,10.0393299 21.1871359,9.67668056 21.1871359,9.22932992 C21.1871359,9.06209501 21.2388992,8.8989595 21.3353196,8.76231902 L25.0101866,3.55454564 C25.2681096,3.18903458 25.7735028,3.10181723 26.1390138,3.35974022 C26.2145964,3.41307511 26.2804843,3.47896304 26.3338192,3.55454564 Z" id="多边形" fill="#262626" transform="translate(25.672003, 6.327997) rotate(-225.000000) translate(-25.672003, -6.327997) "/>
                <path d="M6.98981339,21.5987817 L10.6646804,26.806555 C10.9226034,27.1720661 10.835386,27.6774593 10.469875,27.9353822 C10.3332345,28.0318026 10.170099,28.0835659 10.0028641,28.0835659 L2.65313008,28.0835659 C2.20577943,28.0835659 1.84313008,27.7209166 1.84313008,27.2735659 C1.84313008,27.106331 1.89489338,26.9431955 1.99131377,26.806555 L5.66618078,21.5987817 C5.92410377,21.2332706 6.42949693,21.1460533 6.79500798,21.4039763 C6.87059057,21.4573111 6.93647851,21.5231991 6.98981339,21.5987817 Z" id="多边形备份" fill="#262626" transform="translate(6.327997, 24.372233) rotate(-45.000000) translate(-6.327997, -24.372233) "/>
            </g>
        </g>
    </g>
</svg>