<svg xmlns="http://www.w3.org/2000/svg" xmlns:xlink="http://www.w3.org/1999/xlink" width="26px" height="30px" viewBox="0 0 26 30" version="1.1">
    <title>编组 24</title>
    <g id="页面-1" stroke="none" stroke-width="1" fill="none" fill-rule="evenodd">
        <g id="资源详情32*32" transform="translate(-3.000000, -1.000000)">
            <g id="编组-24" transform="translate(3.000000, 1.000000)">
                <path d="M14.075046,1.00001459 L25,11.8044658 L25,28.1 C25,28.3485281 24.8992641,28.5735281 24.7363961,28.7363961 C24.5735281,28.8992641 24.3485281,29 24.1,29 L1.9,29 C1.65147186,29 1.42647186,28.8992641 1.2636039,28.7363961 C1.10073593,28.5735281 1,28.3485281 1,28.1 L1,1.90044678 C1,1.65191864 1.10073593,1.42691864 1.2636039,1.26405067 C1.42647186,1.10118271 1.65147186,1.00044678 1.9000355,1.00044678 L14.075046,1.00001459 Z" id="形状结合备份" stroke="#262626" stroke-width="2"/>
                <g id="编组-8" transform="translate(5.281250, 7.366422)">
                    <ellipse id="椭圆形备份-2" fill="#262626" cx="13.7447917" cy="16.40625" rx="2.36979167" ry="2.34375"/>
                    <ellipse id="椭圆形备份-3" fill="#262626" cx="2.36979167" cy="2.34375" rx="2.36979167" ry="2.34375"/>
                    <polyline id="路径" stroke="#262626" stroke-width="2" stroke-linecap="round" points="2.35367063 2.41648732 13.187004 2.41648732 13.187004 9.12446195 2.35367063 9.12446195"/>
                    <polyline id="路径" stroke="#262626" stroke-width="2" stroke-linecap="round" transform="translate(6.480655, 12.478449) scale(-1, 1) translate(-6.480655, -12.478449) " points="0.702876984 9.12446195 12.2584325 9.12446195 12.2584325 15.8324366 0.702876984 15.8324366"/>
                </g>
            </g>
        </g>
    </g>
</svg>