<svg xmlns="http://www.w3.org/2000/svg" xmlns:xlink="http://www.w3.org/1999/xlink" width="21px" height="24px" viewBox="0 0 21 24" version="1.1">
    <title>编组备份</title>
    <g id="页面-1" stroke="none" stroke-width="1" fill="none" fill-rule="evenodd">
        <g id="新增资源24*24" transform="translate(-14.000000, -12.000000)" fill="#FFFFFF">
            <g id="编组备份" transform="translate(14.000000, 12.000000)">
                <path d="M11.7,0 L21,9.11 L21,21.6 C21,22.9254834 19.9254834,24 18.6,24 L2.4,24 C1.0745166,24 6.0641411e-16,22.9254834 0,21.6 L0,2.40007171 C-1.623249e-16,1.07458831 1.0745166,7.1712331e-05 2.4,7.1712331e-05 L11.7,0 Z M6.35833333,5.94297063 C5.23075197,5.94297063 4.31666667,6.83846509 4.31666667,7.94311349 C4.31666667,9.04776188 5.23075197,9.94325634 6.35833333,9.94325634 C7.24065626,9.94325634 7.99225702,9.39495129 8.27747339,8.62717665 L15.8498833,8.62619243 L15.8498833,12.3920614 L4.01666667,12.3925217 L4.01666667,19.3590796 L13.3117447,19.3597113 C13.4215939,20.3628705 14.2885085,21.1440563 15.3416667,21.1440563 C16.469248,21.1440563 17.3833333,20.2485619 17.3833333,19.1439135 C17.3833333,18.0392651 16.469248,17.1437706 15.3416667,17.1437706 C14.7633039,17.1437706 14.2411098,17.3793666 13.8696256,17.7579402 L5.65046667,17.758505 L5.65046667,13.992636 L17.4833333,13.992636 L17.4833333,7.02607814 L8.17317081,7.02593491 C7.8337568,6.38267517 7.14846035,5.94297063 6.35833333,5.94297063 Z" id="形状结合"/>
            </g>
        </g>
    </g>
</svg>