<?xml version="1.0" encoding="UTF-8"?>
<svg width="16px" height="16px" viewBox="0 0 16 16" version="1.1" xmlns="http://www.w3.org/2000/svg" xmlns:xlink="http://www.w3.org/1999/xlink">
    <title>AMQ-third menu</title>
    <g id="AMQ-third-menu" stroke="none" stroke-width="1" fill="none" fill-rule="evenodd">
        <g id="图形">
            <rect id="矩形" fill="#FFFFFF" opacity="0" x="0" y="0" width="16" height="16"></rect>
            <path d="M7.87831583,0.578249699 C8.9818134,0.626227854 9.87083333,1.50067369 9.87083333,2.59201389 L9.87033333,5.98477778 L13.2740741,5.98576389 C14.0537702,5.98576389 14.6945228,6.58065197 14.7672075,7.34130388 L14.7740741,7.48576389 L14.7740741,13.9222222 C14.7740741,14.7506493 14.1025012,15.4222222 13.2740741,15.4222222 L2.58333333,15.4222222 C1.75490621,15.4222222 1.08333333,14.7506493 1.08333333,13.9222222 L1.08384906,2.56931006 C1.13267768,1.49508051 2.01392717,0.613831019 3.09756944,0.613831019 C4.20630264,0.613831019 5.11180556,1.48964531 5.11180556,2.59201389 L5.11133333,5.98477778 L5.84233333,5.98477778 L5.84283303,2.57029528 C5.88852651,1.51934522 6.68385055,0.662932687 7.72099413,0.584160359 L7.87831583,0.578249699 Z M7.85659722,1.57777778 C7.31431189,1.57777778 6.86716554,2.03237657 6.84236111,2.59201389 L6.84236111,6.48477778 C6.84236111,6.76080889 6.61867709,6.98462041 6.34264602,6.9847777 L4.61209047,6.98576381 C4.33583687,6.98592122 4.11180556,6.76201754 4.11180556,6.48576389 L4.11180556,2.59201389 C4.11180556,2.04952724 3.66133997,1.61383102 3.09756944,1.61383102 C2.59729828,1.61383102 2.17268908,2.00270657 2.09457088,2.49852741 L2.08333333,2.60377778 L2.08333333,13.9222222 C2.08333333,14.1676821 2.26020849,14.3718306 2.4934577,14.4141666 L2.58333333,14.4222222 L13.2740741,14.4222222 C13.5502164,14.4222222 13.7740741,14.1983646 13.7740741,13.9222222 L13.7740741,7.48576389 C13.7740741,7.20962151 13.5502164,6.98576389 13.2740741,6.98576389 L9.37083333,6.98576389 C9.09469096,6.98576389 8.87083333,6.76190626 8.87083333,6.48576389 L8.87083333,2.59201389 C8.87083333,2.04972856 8.41623454,1.6025822 7.85659722,1.57777778 Z M11.3608227,8.35228556 C11.897124,8.34226543 12.4041127,8.72587191 12.471412,9.29791667 L12.471412,9.58634259 C12.3993056,10.0550347 12.0027199,10.4516204 11.5340278,10.5237269 C10.9571759,10.5958333 10.3803241,10.1992477 10.3082176,9.58634259 C10.2361111,9.00949074 10.6326968,8.43263889 11.2456019,8.36053241 Z" id="形状结合" fill="#262626" fill-rule="nonzero"></path>
        </g>
    </g>
</svg>