<?xml version="1.0" encoding="UTF-8"?>
<svg width="16px" height="16px" viewBox="0 0 16 16" version="1.1" xmlns="http://www.w3.org/2000/svg" xmlns:xlink="http://www.w3.org/1999/xlink">
    <title>automatic discovery-third menu</title>
    <g id="automatic-discovery-third-menu" stroke="none" stroke-width="1" fill="none" fill-rule="evenodd">
        <rect id="矩形" fill-opacity="0" fill="#F0F0F0" x="0" y="0" width="16" height="16"></rect>
        <g id="图形" transform="translate(1.437822, 0.654701)" fill="#262626" fill-rule="nonzero">
            <path d="M7.31217783,0.200961894 L12.3743557,3.12361163 C12.8384573,3.39156082 13.1243557,3.88675135 13.1243557,4.42264973 L13.1243557,10.2679492 C13.1243557,10.8038476 12.8384573,11.2990381 12.3743557,11.5669873 L7.31217783,14.489637 C6.84807621,14.7575862 6.27627944,14.7575862 5.81217783,14.489637 L0.75,11.5669873 C0.285898385,11.2990381 0,10.8038476 0,10.2679492 L0,4.42264973 C0,3.88675135 0.285898385,3.39156082 0.75,3.12361163 L5.81217783,0.200961894 C6.27627944,-0.0669872981 6.84807621,-0.0669872981 7.31217783,0.200961894 Z M6.31217783,1.0669873 L1.25,3.98963703 C1.09529946,4.07895343 1,4.24401694 1,4.42264973 L1,10.2679492 C1,10.446582 1.09529946,10.6116455 1.25,10.7009619 L6.31217783,13.6236116 C6.46687836,13.712928 6.65747729,13.712928 6.81217783,13.6236116 L11.8743557,10.7009619 C12.0290562,10.6116455 12.1243557,10.446582 12.1243557,10.2679492 L12.1243557,4.42264973 C12.1243557,4.24401694 12.0290562,4.07895343 11.8743557,3.98963703 L6.81217783,1.0669873 C6.65747729,0.977670901 6.46687836,0.977670901 6.31217783,1.0669873 Z M4.09467783,6.29529946 L6.38792129,7.49066402 L6.38792129,10.1324895 L4.335,8.969 L2.944,9.772 L2.94495005,10.4077995 L2.18717783,10.8452995 L1.4294056,10.4077995 L1.4294056,9.53279946 L2.18717783,9.09529946 L2.551,9.305 L4.094,8.415 L4.09467783,6.29529946 Z M9.04792129,6.29529946 L9.047,8.453 L10.547,9.32 L10.9371778,9.09529946 L11.6949501,9.53279946 L11.6949501,10.4077995 L10.9371778,10.8452995 L10.1794056,10.4077995 L10.179,9.8 L8.771,8.987 L6.75467783,10.1194145 L6.75467783,7.49066402 L9.04792129,6.29529946 Z M6.56217783,1.22029946 L7.31995005,1.65779946 L7.31995005,2.53279946 L6.858,2.799 L6.837,4.863 L8.8558334,5.91566402 L6.56217796,7.11102858 L4.26852253,5.91566402 L6.237,4.89 L6.258,2.794 L5.8044056,2.53279946 L5.8044056,1.65779946 L6.56217783,1.22029946 Z" id="形状结合"></path>
        </g>
    </g>
</svg>