<?xml version="1.0" encoding="UTF-8"?>
<svg width="16px" height="16px" viewBox="0 0 16 16" version="1.1" xmlns="http://www.w3.org/2000/svg" xmlns:xlink="http://www.w3.org/1999/xlink">
    <title>build machine management</title>
    <g id="build-machine-management" stroke="none" stroke-width="1" fill="none" fill-rule="evenodd">
        <rect id="矩形" fill="#000000" opacity="0" x="0" y="0" width="16" height="16"></rect>
        <path d="M14,0.4 C14.8836556,0.4 15.6,1.1163444 15.6,2 L15.6,10.5 C15.6,11.3836556 14.8836556,12.1 14,12.1 L6.33,12.1 L4.784,14.0246775 L11.226,14.0246775 L11.2187848,14.0139279 C11.0873963,13.8389207 11.0436001,13.7805849 10.937238,13.6389124 L10.8781479,13.5602054 C10.6791965,13.2952055 10.7327394,12.9190986 10.9977393,12.7201471 C11.2627393,12.5211957 11.6388462,12.5747386 11.8377976,12.8397385 C12.0348803,13.1022494 12.0348803,13.1022494 12.3445818,13.5147666 C12.9916193,14.3766095 12.3763817,15.225 11.3208704,15.225 L4.67912961,15.225 C3.62361834,15.225 3.00838073,14.3766095 3.66746524,13.4992555 L4.79,12.1 L2,12.1 C1.1163444,12.1 0.4,11.3836556 0.4,10.5 L0.4,2 C0.4,1.1163444 1.1163444,0.4 2,0.4 L14,0.4 Z M14,1.6 L2,1.6 C1.7790861,1.6 1.6,1.7790861 1.6,2 L1.6,10.5 C1.6,10.7209139 1.7790861,10.9 2,10.9 L14,10.9 C14.2209139,10.9 14.4,10.7209139 14.4,10.5 L14.4,2 C14.4,1.7790861 14.2209139,1.6 14,1.6 Z M4.0625,7.125 C4.78737373,7.125 5.375,7.71262627 5.375,8.4375 C5.375,9.16237373 4.78737373,9.75 4.0625,9.75 C3.33762627,9.75 2.75,9.16237373 2.75,8.4375 C2.75,7.71262627 3.33762627,7.125 4.0625,7.125 Z M12.4375,7.8375 C12.7688708,7.8375 13.0375,8.10612915 13.0375,8.4375 C13.0375,8.76887085 12.7688708,9.0375 12.4375,9.0375 L7.9375,9.0375 C7.60612915,9.0375 7.3375,8.76887085 7.3375,8.4375 C7.3375,8.10612915 7.60612915,7.8375 7.9375,7.8375 L12.4375,7.8375 Z M6.38570467,3.19250344 C6.62456593,3.42218134 6.6320105,3.80200738 6.4023326,4.04086864 L4.63268337,5.8812748 L4.21379464,6.31691221 L3.78119962,5.89488228 L2.76851281,4.90692792 C2.5313197,4.67552768 2.52662365,4.29565772 2.75802388,4.05846461 C2.98942412,3.8212715 3.36929408,3.81657545 3.60648719,4.04797569 L4.1865,4.614 L5.53733947,3.20913136 C5.76701738,2.97027011 6.14684342,2.96282553 6.38570467,3.19250344 Z M12.4375,4.3375 C12.7688708,4.3375 13.0375,4.60612915 13.0375,4.9375 C13.0375,5.26887085 12.7688708,5.5375 12.4375,5.5375 L7.9375,5.5375 C7.60612915,5.5375 7.3375,5.26887085 7.3375,4.9375 C7.3375,4.60612915 7.60612915,4.3375 7.9375,4.3375 L12.4375,4.3375 Z" id="形状结合" fill="#262626" fill-rule="nonzero"></path>
    </g>
</svg>