<?xml version="1.0" encoding="UTF-8"?>
<svg width="16px" height="16px" viewBox="0 0 16 16" version="1.1" xmlns="http://www.w3.org/2000/svg" xmlns:xlink="http://www.w3.org/1999/xlink">
    <title>clickhouse-third menu</title>
    <g id="clickhouse-third-menu" stroke="none" stroke-width="1" fill="none" fill-rule="evenodd">
        <rect id="矩形" fill-opacity="0" fill="#F0F0F0" x="0" y="0" width="16" height="16"></rect>
        <g>
            <rect id="矩形" fill-opacity="0" fill="#D8D8D8" x="0" y="0" width="16" height="16"></rect>
            <path d="M13.5546769,9.38870455 C13.7190357,9.46449892 13.7908313,9.6591815 13.7150369,9.82354027 C13.696232,9.86431847 13.6692472,9.9007969 13.6357571,9.93071182 L8.6247333,14.4067958 C8.24616767,14.7449486 7.67431133,14.7458366 7.29469733,14.4088612 L2.24860799,9.9295531 C2.11370843,9.80980558 2.10142528,9.60337333 2.2211728,9.46847376 C2.25110958,9.43474898 2.28770584,9.40758899 2.32865641,9.38870455 C2.60402306,9.26171868 2.92852026,9.31053641 3.15433608,9.51292073 L7.29076137,13.2201351 C7.67163316,13.5614862 8.24868771,13.5604313 8.62830899,13.2176901 L12.7302187,9.51427861 C12.9551455,9.31120331 13.2794908,9.26180195 13.5546769,9.38870455 Z M6.82696804,5.10868182 L6.82696804,10.8531364 L5.95759162,10.8531364 L5.95759162,5.10868182 L6.82696804,5.10868182 Z M8.37667101,5.10868182 L8.37667101,10.8531364 L7.50729459,10.8531364 L7.50729459,5.10868182 L8.37667101,5.10868182 Z M9.88875368,5.10868182 L9.88875368,10.8531364 L9.01937728,10.8531364 L9.01937728,5.10868182 L9.88875368,5.10868182 Z M11.4763931,8.38054546 L11.4763931,10.0923636 L10.6070167,10.0923636 L10.6070167,8.38054546 L11.4763931,8.38054546 Z M5.31488536,6.09790908 L5.31488536,10.0923636 L4.44550894,10.0923636 L4.44550894,6.09790908 L5.31488536,6.09790908 Z M11.4763931,6.09790908 L11.4763931,7.80972728 L10.6070167,7.80972728 L10.6070167,6.09790908 L11.4763931,6.09790908 Z M8.62215184,1.58675666 L13.628448,6.02727406 C13.7706827,6.15343432 13.7837136,6.37101141 13.6575533,6.5132461 C13.6285875,6.54590256 13.593675,6.57275212 13.5546769,6.59236363 C13.2811966,6.72989237 12.9513283,6.68535032 12.7241181,6.48021345 L8.62830899,2.78230994 C8.24868771,2.43956866 7.67163316,2.43851381 7.29076137,2.77986492 L3.16040356,6.48164136 C2.93230913,6.68606787 2.60233808,6.73005676 2.32865641,6.59252273 C2.15941327,6.50747248 2.09116144,6.30132695 2.17621168,6.1320838 C2.19591257,6.09288062 2.22295275,6.05782177 2.25586564,6.02880875 L7.29731753,1.58472059 C7.67610593,1.25081499 8.24439154,1.25168835 8.62215184,1.58675666 Z" id="形状" fill="#262626" fill-rule="nonzero"></path>
        </g>
    </g>
</svg>