<?xml version="1.0" encoding="UTF-8"?>
<svg width="16px" height="16px" viewBox="0 0 16 16" version="1.1" xmlns="http://www.w3.org/2000/svg" xmlns:xlink="http://www.w3.org/1999/xlink">
    <title>Cluster overview</title>
    <g id="Cluster-overview" stroke="none" stroke-width="1" fill="none" fill-rule="evenodd">
        <rect id="矩形" fill="#000000" opacity="0" x="0" y="0" width="16" height="16"></rect>
        <g id="K8s" transform="translate(1.000000, 1.000000)" fill="#262626">
            <path d="M6.97955803,0 C7.19031276,0 7.36192029,0.228813966 7.36192029,0.510135771 C7.36192029,0.874643682 7.2836259,0.922601954 7.26585783,1.40832033 C7.26760312,1.59248106 7.3068714,1.77364526 7.38050695,1.94058735 C7.45041593,1.96398328 7.49945549,2.02891861 7.49958778,2.10533277 L7.497,2.116 L7.72026002,2.14266722 C8.8499798,2.30799625 9.89627611,2.85153961 10.6914425,3.69109038 L10.6989025,3.68309541 C10.7569975,3.63817981 10.8352055,3.63727075 10.8934318,3.67523838 C11.1031852,3.62676261 11.2504639,3.50999113 11.3493539,3.42277645 C11.7112398,3.10618507 11.7005708,3.01389983 11.9798126,2.78688065 C12.1968046,2.61136756 12.4778109,2.60506495 12.611215,2.77239717 C12.7436754,2.94068938 12.6734238,3.21833814 12.4573345,3.39472775 C12.177231,3.62354171 12.0918376,3.59190345 11.706808,3.88044612 C11.5641164,3.99762952 11.4478946,4.14381495 11.3651909,4.30899123 L11.3490946,4.27756865 C11.4023874,4.35012869 11.3921376,4.45019538 11.3277824,4.51059842 L11.307,4.479 L11.4328836,4.68583053 C12.0043226,5.67669765 12.2396449,6.83387185 12.0985537,7.97787358 L12.0842346,7.97269977 C12.1632627,7.99141907 12.2167355,8.06172185 12.2171821,8.13963953 C12.3848813,8.28458502 12.5737787,8.33151353 12.7071954,8.35692716 C13.1767156,8.44737588 13.2407299,8.38130282 13.5902233,8.46273588 C13.8596578,8.5251359 14.0401289,8.74226291 13.9923233,8.95204382 C13.9443126,9.16094822 13.6890761,9.27944564 13.4196416,9.21704563 C13.0701482,9.13653082 13.0417111,9.04879515 12.57929,8.9221586 C12.3999878,8.88208104 12.2149621,8.88134105 12.0364035,8.91925497 C12.0021967,8.97539702 11.9389344,9.00707555 11.873034,8.99917101 L11.883,8.967 L11.7966349,9.21375314 C11.3846343,10.296286 10.6333388,11.2129306 9.65537243,11.8178424 C9.6737145,11.8768851 9.6581234,11.9399225 9.61830588,11.9845262 C9.62423836,12.1453966 9.67066249,12.3036327 9.75232051,12.4444412 C9.97550879,12.8723091 10.0661957,12.8840795 10.2218407,13.2123996 C10.3410058,13.465631 10.2849933,13.747871 10.0946738,13.8401145 C9.90525721,13.9323998 9.65359078,13.8021319 9.53266123,13.5488588 C9.37882176,13.220497 9.42687351,13.142737 9.23565134,12.696796 C9.16470253,12.5491558 9.06706723,12.4168972 8.94823479,12.3067307 C8.94075705,12.3104101 8.93976423,12.3108522 8.93876727,12.3112849 C8.86946627,12.341358 8.79115914,12.3219323 8.74336151,12.2686064 L8.739,12.262 L8.59313757,12.3154871 C7.56699779,12.6582608 6.46075623,12.6656137 5.43030006,12.3365098 L5.19312195,12.2536106 C5.16825377,12.3109172 5.11576792,12.3477094 5.05800858,12.355167 L5.137,12.306 L5.04324317,12.361318 C4.84343791,12.4984738 4.74758731,12.691191 4.68969307,12.8261039 C4.4994147,13.2720031 4.54832818,13.3498466 4.39268319,13.6781667 C4.27261536,13.9332346 4.02098997,14.0635024 3.83067056,13.9694224 C3.64039219,13.8753841 3.58433866,13.5949806 3.70440648,13.3417075 C3.85910768,13.0115509 3.94983562,13.00337 4.1730239,12.573749 C4.25303683,12.4010265 4.29526552,12.2133299 4.29752218,12.0235393 C4.2456951,11.9740527 4.22811109,11.8958723 4.25819908,11.8265371 L4.274,11.8 L4.1074089,11.6925314 C3.15285846,11.040653 2.43706114,10.0822416 2.07675893,8.96713759 C2.01802893,8.97393022 1.9611971,8.94715139 1.92686398,8.9007629 C1.72644222,8.85290181 1.54614516,8.89116164 1.42073778,8.92578991 C0.959219384,9.0515082 0.929879502,9.13924387 0.580386108,9.22067693 C0.311854376,9.28307695 0.0548534222,9.16462127 0.00770443678,8.95475687 C-0.0403062795,8.74581073 0.141108572,8.52601242 0.411445836,8.46632545 C0.760036464,8.38585239 0.824994552,8.45188371 1.29361197,8.36143499 C1.45584212,8.3221183 1.60859298,8.25148732 1.74378358,8.15390564 C1.72193468,8.05525509 1.77932295,7.9634014 1.87141086,7.94158866 L1.858,7.946 L1.84014979,7.78210437 C1.74271809,6.63770828 2.01922223,5.49015607 2.6299792,4.51923116 C2.57209019,4.47258111 2.5513254,4.39481569 2.57407231,4.32644868 L2.5913929,4.29333225 C2.50020031,4.11516644 2.3639987,4.00065349 2.26289499,3.92560787 C1.87876822,3.63439389 1.7933748,3.66690868 1.51327126,3.4398895 C1.29714096,3.26262337 1.22779215,2.98313809 1.35939076,2.81488761 C1.49098936,2.64663714 1.77289844,2.65389975 1.9889877,2.82937109 C2.26913228,3.05643202 2.25842219,3.14779899 2.62039017,3.46526689 C2.74673369,3.56557092 2.8897435,3.64094047 3.04201481,3.68814311 C3.10059917,3.63740821 3.18682618,3.6345757 3.24958287,3.68309541 L3.25731571,3.68942572 L3.264,3.696 L3.40431335,3.55169186 C4.23787234,2.73588847 5.31936222,2.22789878 6.47497548,2.11376505 C6.47391876,2.1111714 6.47378722,2.10733977 6.47378053,2.10347885 C6.47364745,2.02661263 6.52338443,1.96130318 6.59247893,1.93816887 C6.69526693,1.74178505 6.69819352,1.54522347 6.69325823,1.40832033 C6.67454636,0.923478476 6.59719576,0.874643682 6.59719576,0.510135771 C6.59719576,0.228813966 6.76880329,0 6.97955803,0 Z M6.84067831,9.31440712 C6.77341678,9.38467285 6.39596356,9.94311172 6.02695442,10.5578875 L5.84462869,10.8679709 C5.75529282,11.0233607 5.66980383,11.1777733 5.59314041,11.3244613 C6.03108223,11.4738121 6.49135973,11.5500447 6.9548983,11.5500109 C7.42609459,11.5501979 7.89388799,11.4715421 8.33823845,11.3174017 C7.92452304,10.5312207 7.20838607,9.405136 7.13569127,9.31 C7.06299646,9.214864 6.93596548,9.214864 6.84067831,9.31440712 Z M5.45122972,8.47038452 C5.38537574,8.46915233 3.99693155,8.61541197 3.12255217,8.80508556 C3.4280649,9.70626847 4.01123134,10.4750514 4.77993649,10.99 C5.17371001,10.0518859 5.5732837,8.81269152 5.59314041,8.66376351 C5.61299711,8.51483549 5.51708369,8.47164821 5.45122972,8.47038452 Z M8.4866433,8.47027043 C8.42891992,8.47135979 8.30816217,8.52493132 8.33823845,8.67022091 C8.36831473,8.8155105 8.80285446,10.1416978 9.17030015,10.99 C9.93032019,10.4716589 10.5065254,9.70154765 10.8088267,8.80007232 C9.8954908,8.61227924 8.54436668,8.46918107 8.4866433,8.47027043 Z M7.33012893,6.61035755 L6.66987107,6.61035755 L6.25820702,7.13803927 L6.40512822,7.79604762 L7,8.08888889 L7.59487178,7.79604762 L7.74179298,7.13803927 L7.33012893,6.61035755 Z M10.5019254,5.11 C9.8205026,5.76928652 8.91907822,6.82519359 8.88725806,6.87318241 C8.85543789,6.92117124 8.83159357,7.05133455 8.93525926,7.1146555 C9.03892496,7.17797644 10.2206034,7.66852692 11.0603719,7.90995578 C11.1544355,6.93186806 10.9578296,5.94611978 10.5019254,5.11 Z M3.49411404,5.11 C3.07045367,5.80946951 2.84707121,6.61469803 2.84803922,7.43562993 C2.84935579,7.59413808 2.8588562,7.75251304 2.87649982,7.91 C3.8204991,7.66078255 5.21618378,7.154224 5.26740719,7.12966922 C5.3186306,7.10511444 5.39031862,6.98078629 5.3186306,6.88333777 C5.24694259,6.78588925 4.23983057,5.73923743 3.49411404,5.11 Z M6.69103922,3.151 L6.45869482,3.18524433 C5.61177722,3.3317078 4.82899377,3.73838565 4.22059139,4.35173206 C4.96265409,4.90795447 6.0756778,5.6065031 6.20425168,5.67 C6.33282556,5.7334969 6.42576259,5.67 6.46304787,5.53904816 C6.50033315,5.40809632 6.66950232,4.0853286 6.69103922,3.151 Z M7.51470904,3.15 C7.54744985,4.12263158 7.70945073,5.44777066 7.73847991,5.55888533 C7.76750908,5.67 7.87205044,5.71027139 7.96590264,5.67 C8.05975483,5.62972861 9.24119931,4.9131679 9.98529727,4.34578547 C9.31922595,3.68077711 8.44897992,3.25957072 7.51470904,3.15 Z" id="形状结合"></path>
        </g>
    </g>
</svg>