<?xml version="1.0" encoding="UTF-8"?>
<svg width="16px" height="16px" viewBox="0 0 16 16" version="1.1" xmlns="http://www.w3.org/2000/svg" xmlns:xlink="http://www.w3.org/1999/xlink">
    <title>Database-third menu</title>
    <g id="Database-third-menu" stroke="none" stroke-width="1" fill="none" fill-rule="evenodd">
        <g>
            <rect id="矩形" fill-opacity="0" fill="#D8D8D8" x="0" y="0" width="16" height="16"></rect>
            <path d="M13,0.4 C13.8836556,0.4 14.6,1.1163444 14.6,2 L14.6,13.996358 C14.6,14.8800136 13.8836556,15.596358 13,15.596358 L3,15.596358 C2.1163444,15.596358 1.4,14.8800136 1.4,13.996358 L1.4,2 C1.4,1.1163444 2.1163444,0.4 3,0.4 L13,0.4 Z M13.4,10.6 L2.6,10.6 L2.6,13.996358 C2.6,14.2172719 2.7790861,14.396358 3,14.396358 L13,14.396358 C13.2209139,14.396358 13.4,14.2172719 13.4,13.996358 L13.4,10.6 Z M4.625,11.46875 C5.05664062,11.46875 5.40625,11.8183594 5.40625,12.25 C5.40625,12.6816406 5.05664062,13.03125 4.625,13.03125 C4.19335937,13.03125 3.84375,12.6816406 3.84375,12.25 C3.84375,11.8183594 4.19335937,11.46875 4.625,11.46875 Z M13.4,6.6 L2.6,6.6 L2.6,9.4 L13.4,9.4 L13.4,6.6 Z M4.625,7.21875 C5.05664062,7.21875 5.40625,7.56835938 5.40625,8 C5.40625,8.43164062 5.05664062,8.78125 4.625,8.78125 C4.19335937,8.78125 3.84375,8.43164062 3.84375,8 C3.84375,7.56835938 4.19335937,7.21875 4.625,7.21875 Z M13,1.6 L3,1.6 C2.7790861,1.6 2.6,1.7790861 2.6,2 L2.6,5.4 L13.4,5.4 L13.4,2 C13.4,1.7790861 13.2209139,1.6 13,1.6 Z M4.625,2.96875 C5.05664062,2.96875 5.40625,3.31835938 5.40625,3.75 C5.40625,4.18164062 5.05664062,4.53125 4.625,4.53125 C4.19335937,4.53125 3.84375,4.18164062 3.84375,3.75 C3.84375,3.31835938 4.19335937,2.96875 4.625,2.96875 Z" id="形状结合" fill="#262626" fill-rule="nonzero"></path>
        </g>
    </g>
</svg>