<?xml version="1.0" encoding="UTF-8"?>
<svg width="16px" height="16px" viewBox="0 0 16 16" version="1.1" xmlns="http://www.w3.org/2000/svg" xmlns:xlink="http://www.w3.org/1999/xlink">
    <title>Deployment instance-third menu</title>
    <g id="Deployment-instance-third-menu" stroke="none" stroke-width="1" fill="none" fill-rule="evenodd">
        <g id="主机监控">
            <rect id="矩形" fill="#D8D8D8" opacity="0" x="0" y="0" width="16" height="16"></rect>
            <g id="图形" transform="translate(1.000000, 1.375000)" fill="#262626" fill-rule="nonzero">
                <path d="M8.42041305,6.63658016 L7.85112201,7.42857234 C7.38141735,8.08202091 7.125,8.86480654 7.125,9.6875 C7.125,10.5371358 7.39857021,11.3440132 7.89719801,12.0091929 L8.49683415,12.8091199 L7.49711086,12.8091199 L1.5,12.8089385 C0.671572875,12.8089385 0,12.1373656 0,11.3089385 L0,8.13770399 C0,7.30927686 0.671572875,6.63770399 1.4999188,6.637704 L7.44504447,6.63673855 L8.42041305,6.63658016 Z M13.9926754,9.02333721 C14.0406122,9.23996568 14.065,9.46232356 14.065,9.6875 C14.065,11.378872 12.693872,12.75 11.0025,12.75 C10.3101193,12.75 9.65293183,12.5187765 9.12133066,12.1043274 L8.69432804,12.4116817 L8.75543624,11.5527385 C8.75568792,11.5389837 8.75650405,11.5252337 8.75788592,11.511526 L8.80244594,10.90505 L10.2965639,11.2571945 L9.98536229,11.4823657 C10.2907358,11.6558635 10.6389405,11.75 11.0025,11.75 C12.1415873,11.75 13.065,10.8265873 13.065,9.6875 C13.065,9.53510635 13.0485577,9.38519238 13.0162951,9.23939619 C12.9566321,8.96977621 13.1268358,8.70283958 13.3964558,8.64317654 C13.6660757,8.5835135 13.9330124,8.75371723 13.9926754,9.02333721 Z M6.577,7.636 L1.5,7.63770399 C1.22385763,7.63770399 1,7.86156161 1,8.13770399 L1,11.3089385 C1,11.5850809 1.22385763,11.8089385 1.50001297,11.8089385 L6.611,11.809 L6.56625119,11.7169525 C6.31423832,11.1671547 6.16541503,10.5707239 6.13214691,9.95331392 L6.125,9.6875 C6.125,8.99824018 6.26863162,8.33001124 6.53948475,7.71751407 L6.577,7.636 Z M11.0025,6.625 C11.7141997,6.625 12.3884823,6.86934233 12.9271979,7.30523199 L13.3235425,6.97770869 L13.2726882,8.44996262 L11.8024459,8.23553699 L12.13283,7.96186023 C11.801802,7.74441772 11.4119135,7.625 11.0025,7.625 C9.8634127,7.625 8.94,8.5484127 8.94,9.6875 C8.94,9.84742404 8.95810764,10.0046111 8.99359648,10.1571567 C9.05616842,10.4261164 8.88885802,10.694876 8.61989824,10.7574479 C8.35093846,10.8200199 8.0821789,10.6527095 8.01960696,10.3837497 C7.96686511,10.1570437 7.94,9.92383565 7.94,9.6875 C7.94,7.99612795 9.31112795,6.625 11.0025,6.625 Z M3.2751999,8.75853868 L3.2751999,10.6109212 L2.2751999,10.6109212 L2.2751999,8.75853868 L3.2751999,8.75853868 Z M5.05039981,8.75853868 L5.05039981,10.6109212 L4.05039981,10.6109212 L4.05039981,8.75853868 L5.05039981,8.75853868 Z M11.8492167,0 C12.6776438,0 13.3492167,0.671572875 13.3492167,1.5 L13.3492167,4.5940519 C13.3492167,5.1833445 13.0060738,5.71063911 12.4811486,5.95470638 L12.3072052,6.03558249 L12.1238026,5.97936197 C11.7637728,5.86899787 11.3867187,5.8125 11,5.8125 C10.5260011,5.8125 10.0644663,5.89740376 9.63113337,6.06106809 L9.45451625,6.09331806 L1.5,6.0940519 C0.671572875,6.0940519 0,5.42247902 0,4.5940519 L0,1.5 C0,0.671572875 0.671572875,0 1.5,0 L11.8492167,0 Z M11.8492167,1 L1.5,1 C1.22385763,1 1,1.22385763 1,1.5 L1,4.5940519 C1,4.87019427 1.22385763,5.0940519 1.49995387,5.0940519 L9.37,5.093 L9.5535671,5.03079796 C9.92491437,4.91555854 10.3104006,4.8449915 10.7036792,4.82137426 L11,4.8125 C11.3888435,4.8125 11.7711446,4.85813121 12.1414697,4.94779513 L12.188,4.96 L12.2447809,4.89837663 C12.2957012,4.83321163 12.3288373,4.75790731 12.3423718,4.6768343 L12.3492167,4.5940519 L12.3492167,1.5 C12.3492167,1.22385763 12.1253591,1 11.8492167,1 Z M3.2751999,2.12083469 L3.2751999,3.9732172 L2.2751999,3.9732172 L2.2751999,2.12083469 L3.2751999,2.12083469 Z M5.05039981,2.12083469 L5.05039981,3.9732172 L4.05039981,3.9732172 L4.05039981,2.12083469 L5.05039981,2.12083469 Z M10.7988169,2.12083469 L10.7988169,3.9732172 L9.29881692,3.9732172 L9.29881692,2.12083469 L10.7988169,2.12083469 Z" id="形状结合"></path>
            </g>
        </g>
    </g>
</svg>