<?xml version="1.0" encoding="UTF-8"?>
<svg width="16px" height="16px" viewBox="0 0 16 16" version="1.1" xmlns="http://www.w3.org/2000/svg" xmlns:xlink="http://www.w3.org/1999/xlink">
    <title>Deploy orchestration tasks</title>
    <g id="Deploy-orchestration-tasks" stroke="none" stroke-width="1" fill="none" fill-rule="evenodd">
        <rect id="矩形" fill="#000000" opacity="0" x="0" y="0" width="16" height="16"></rect>
        <g id="默认" transform="translate(1.000000, 1.000000)" fill="#262626">
            <path d="M13.583841,2.86029856 L7.28424314,0.0603108005 C7.10327855,-0.0201036002 6.89672145,-0.0201036002 6.71575686,0.0603108005 L0.416159037,2.86029856 C0.163124748,2.97253982 0,3.22335497 0,3.50017077 C0,3.77698656 0.163124748,4.02780171 0.416159037,4.14004297 L6.71575686,6.94003073 C6.89675249,7.02003038 7.10324751,7.02003038 7.28424314,6.94003073 L13.583841,4.14004297 C13.8368753,4.02780171 14,3.77698656 14,3.50017077 C14,3.22335497 13.8368753,2.97253982 13.583841,2.86029856 L13.583841,2.86029856 Z" id="路径"></path>
            <path d="M6.99975,10.5002652 C6.90200237,10.5002652 6.80500471,10.4795153 6.71575686,10.4397654 L0.416159037,7.64002767 C0.187603898,7.53843071 0.0306105004,7.32261613 0.00431673707,7.07387918 C-0.0219770263,6.82514222 0.0864234929,6.58127197 0.288684868,6.43413198 C0.490946243,6.28699198 0.75634016,6.25893632 0.984895299,6.36053327 L7,9.03402159 L13.0151047,6.36003328 C13.2436598,6.25843632 13.5090538,6.28649199 13.7113151,6.43363198 C13.9135765,6.58077197 14.021977,6.82464223 13.9956833,7.07337918 C13.9693895,7.32211613 13.8123961,7.53793072 13.583841,7.63952768 L7.28424314,10.4395154 C7.19477099,10.479345 7.09793668,10.4999557 7,10.5000152 L6.99975,10.5002652 Z" id="路径"></path>
            <path d="M7,14 C6.90225237,14 6.80525471,13.9795 6.71600686,13.9400001 L0.416159037,11.1400124 C0.0627743692,10.9829571 -0.0963845571,10.5691581 0.060667625,10.2157664 C0.217719807,9.86237476 0.631510631,9.70321268 0.984895299,9.86026797 L7,12.5337563 L13.0153547,9.86026797 C13.2439098,9.758671 13.5093038,9.78672666 13.7115652,9.93386666 C13.9138266,10.0810067 14.0222271,10.3248769 13.9959333,10.5736139 C13.9696395,10.8223508 13.8126461,11.0381654 13.584091,11.1397624 L7.28449312,13.9397502 C7.19492534,13.979528 7.09800305,14.0000541 7,14 L7,14 Z" id="路径"></path>
        </g>
    </g>
</svg>