<?xml version="1.0" encoding="UTF-8"?>
<svg width="16px" height="16px" viewBox="0 0 16 16" version="1.1" xmlns="http://www.w3.org/2000/svg" xmlns:xlink="http://www.w3.org/1999/xlink">
    <title>Inspection overview</title>
    <defs>
        <path d="M3.10040697,0.434881654 C3.10040697,0.615901767 3.20225801,0.770752306 3.34684054,0.836259584 L3.34684054,0.836259584 L3.34684054,1.52550283 L2.89517329,1.54000444 C2.01527219,1.59884432 1.45654647,1.78753195 1.10535183,2.05906212 L1.10535183,2.05906212 C0.836250656,2.32725858 0.645873447,2.68596511 0.572050586,3.08900989 L0.572050586,3.08900989 L0.363294241,3.08900989 C0.163267985,3.08900989 0,3.26702967 0,3.48438715 L0,3.48438715 L0,4.04911657 C0,4.26647405 0.163267985,4.44449383 0.363294241,4.44449383 L0.363294241,4.44449383 L0.53973394,4.44449383 C0.554743567,4.97305256 0.769013653,5.4497722 1.10535183,5.78497611 L1.10535183,5.78497611 C1.45195169,6.05300589 2.00194731,6.23952661 2.86163137,6.30086676 L2.86163137,6.30086676 C2.85872134,6.32136904 2.85703658,6.34370486 2.85703658,6.36887432 L2.85703658,6.36887432 L2.85703658,6.55406156 C2.85703658,6.75791755 3.00912393,6.92343594 3.19628479,6.92343594 L3.19628479,6.92343594 L3.21420445,6.92343594 L3.21420445,7.24080453 L1.91970068,7.24080453 C1.58274987,7.24080453 1.307216,7.54083787 1.307216,7.90754528 L1.307216,7.90754528 L1.307216,8.3709301 C1.92460179,8.77014113 2.64521705,9 3.41530282,9 L3.41530282,9 C4.25476982,9 5.0354236,8.72696966 5.68757658,8.25925103 L5.68757658,8.25925103 L5.68757658,7.90754528 C5.68757658,7.54083787 5.41173639,7.24080453 5.07493874,7.24080453 L5.07493874,7.24080453 L3.78028181,7.24080453 L3.78028181,6.92343594 L3.79820147,6.92343594 C3.98566865,6.92343594 4.13760284,6.75791755 4.13760284,6.55406156 L4.13760284,6.55406156 L4.13760284,6.36887432 C4.13760284,6.34387154 4.13760284,6.3218691 4.13729652,6.3027003 L4.13729652,6.3027003 L4.16792841,6.30170019 C4.95777175,6.2453606 5.48004551,6.08234248 5.82327586,5.84764974 L5.82327586,5.84764974 C6.19713811,5.51061229 6.43867058,5.00705634 6.45459916,4.44449383 L6.45459916,4.44449383 L6.63670576,4.44449383 C6.83657886,4.44449383 7,4.26647405 7,4.04911657 L7,4.04911657 L7,3.48438715 C7,3.26702967 6.83657886,3.08900989 6.63670576,3.08900989 L6.63670576,3.08900989 L6.42197619,3.08900989 C6.34218012,2.65362818 6.12668475,2.26991888 5.82327586,1.99638849 L5.82327586,1.99638849 C5.48004551,1.76169574 4.95777175,1.59867763 4.16792841,1.54233804 L4.16792841,1.54233804 L3.65315946,1.52550283 L3.65315946,0.836259584 C3.79774199,0.770752306 3.89959303,0.615901767 3.89959303,0.434881654 L3.89959303,0.434881654 C3.89959303,0.194688299 3.72070278,0 3.5,0 L3.5,0 C3.27914406,0 3.10040697,0.194688299 3.10040697,0.434881654" id="path-1"></path>
    </defs>
    <g id="Inspection-overview" stroke="none" stroke-width="1" fill="none" fill-rule="evenodd">
        <rect id="矩形" fill="#000000" opacity="0" x="0" y="0" width="16" height="16"></rect>
        <g id="编组-3备份-2" transform="translate(0.400000, 0.400000)">
            <path d="M13.6,0 C14.4836556,0 15.2,0.7163444 15.2,1.6 L15.2,4.98738771 C15.2,5.31875856 14.9313708,5.58738771 14.6,5.58738771 C14.2686292,5.58738771 14,5.31875856 14,4.98738771 L14,1.6 C14,1.3790861 13.8209139,1.2 13.6,1.2 L1.6,1.2 C1.3790861,1.2 1.2,1.3790861 1.2,1.6 L1.2,10.1 C1.2,10.3209139 1.3790861,10.5 1.6,10.5 L6.83142279,10.5 C7.16279364,10.5 7.43142279,10.7686292 7.43142279,11.1 C7.43142279,11.4313708 7.16279364,11.7 6.83142279,11.7 L1.6,11.7 C0.7163444,11.7 0,10.9836556 0,10.1 L0,1.6 C0,0.7163444 0.7163444,0 1.6,0 L13.6,0 Z M6.28586291,2.01390531 L6.76260092,3.42742513 L7.796,6.494 L8.92628531,5.09048296 L9.08840047,4.88902289 L12.6,4.88902289 C12.8982338,4.88902289 13.14,5.13078913 13.14,5.42902289 C13.14,5.72725666 12.8982338,5.96902289 12.6,5.96902289 L9.604,5.969 L8.02070264,7.93853993 L7.40313249,8.70599266 L7.08831854,7.77257487 L6.216,5.185 L5.45615281,7.14890759 L5.32257776,7.49396527 L2.6,7.49396527 C2.30176624,7.49396527 2.06,7.25219904 2.06,6.95396527 C2.06,6.65573151 2.30176624,6.41396527 2.6,6.41396527 L4.582,6.413 L5.74733483,3.40505768 L6.28586291,2.01390531 Z" id="形状结合" fill="#262626" fill-rule="nonzero"></path>
            <g id="编组-15" transform="translate(6.725000, 4.100000)"></g>
        </g>
        <g id="巡检管理" transform="translate(8.000000, 6.000000)">
            <g id="Fill-1-Clipped">
                <mask id="mask-2" fill="white">
                    <use xlink:href="#path-1"></use>
                </mask>
                <g id="path-1"></g>
                <path d="M3.10040697,0.434881654 C3.10040697,0.615901767 3.20225801,0.770752306 3.34684054,0.836259584 L3.34684054,0.836259584 L3.34684054,1.52550283 L2.89517329,1.54000444 C2.01527219,1.59884432 1.45654647,1.78753195 1.10535183,2.05906212 L1.10535183,2.05906212 C0.836250656,2.32725858 0.645873447,2.68596511 0.572050586,3.08900989 L0.572050586,3.08900989 L0.363294241,3.08900989 C0.163267985,3.08900989 0,3.26702967 0,3.48438715 L0,3.48438715 L0,4.04911657 C0,4.26647405 0.163267985,4.44449383 0.363294241,4.44449383 L0.363294241,4.44449383 L0.53973394,4.44449383 C0.554743567,4.97305256 0.769013653,5.4497722 1.10535183,5.78497611 L1.10535183,5.78497611 C1.45195169,6.05300589 2.00194731,6.23952661 2.86163137,6.30086676 L2.86163137,6.30086676 C2.85872134,6.32136904 2.85703658,6.34370486 2.85703658,6.36887432 L2.85703658,6.36887432 L2.85703658,6.55406156 C2.85703658,6.75791755 3.00912393,6.92343594 3.19628479,6.92343594 L3.19628479,6.92343594 L3.21420445,6.92343594 L3.21420445,7.24080453 L1.91970068,7.24080453 C1.58274987,7.24080453 1.307216,7.54083787 1.307216,7.90754528 L1.307216,7.90754528 L1.307216,8.3709301 C1.92460179,8.77014113 2.64521705,9 3.41530282,9 L3.41530282,9 C4.25476982,9 5.0354236,8.72696966 5.68757658,8.25925103 L5.68757658,8.25925103 L5.68757658,7.90754528 C5.68757658,7.54083787 5.41173639,7.24080453 5.07493874,7.24080453 L5.07493874,7.24080453 L3.78028181,7.24080453 L3.78028181,6.92343594 L3.79820147,6.92343594 C3.98566865,6.92343594 4.13760284,6.75791755 4.13760284,6.55406156 L4.13760284,6.55406156 L4.13760284,6.36887432 C4.13760284,6.34387154 4.13760284,6.3218691 4.13729652,6.3027003 L4.13729652,6.3027003 L4.16792841,6.30170019 C4.95777175,6.2453606 5.48004551,6.08234248 5.82327586,5.84764974 L5.82327586,5.84764974 C6.19713811,5.51061229 6.43867058,5.00705634 6.45459916,4.44449383 L6.45459916,4.44449383 L6.63670576,4.44449383 C6.83657886,4.44449383 7,4.26647405 7,4.04911657 L7,4.04911657 L7,3.48438715 C7,3.26702967 6.83657886,3.08900989 6.63670576,3.08900989 L6.63670576,3.08900989 L6.42197619,3.08900989 C6.34218012,2.65362818 6.12668475,2.26991888 5.82327586,1.99638849 L5.82327586,1.99638849 C5.48004551,1.76169574 4.95777175,1.59867763 4.16792841,1.54233804 L4.16792841,1.54233804 L3.65315946,1.52550283 L3.65315946,0.836259584 C3.79774199,0.770752306 3.89959303,0.615901767 3.89959303,0.434881654 L3.89959303,0.434881654 C3.89959303,0.194688299 3.72070278,0 3.5,0 L3.5,0 C3.27914406,0 3.10040697,0.194688299 3.10040697,0.434881654" id="Fill-1" fill="#262626" mask="url(#mask-2)"></path>
            </g>
            <path d="M4.27832575,4.24670519 C4.07768685,4.24670519 3.91518467,4.06968552 3.91518467,3.85132793 C3.91518467,3.63313702 4.07768685,3.45611735 4.27832575,3.45611735 C4.47896464,3.45611735 4.64146683,3.63313702 4.64146683,3.85132793 C4.64146683,4.06968552 4.47896464,4.24670519 4.27832575,4.24670519 M2.77353405,4.24670519 C2.57289515,4.24670519 2.4102398,4.06968552 2.4102398,3.85132793 C2.4102398,3.63313702 2.57289515,3.45611735 2.77353405,3.45611735 C2.97401978,3.45611735 3.13682829,3.63313702 3.13682829,3.85132793 C3.13682829,4.06968552 2.97401978,4.24670519 2.77353405,4.24670519 M4.27832575,2.63719302 L2.72161299,2.63719302 C2.12230002,2.63719302 1.63188342,3.17091899 1.63188342,3.82315813 L1.63188342,3.99267696 C1.63188342,4.6449161 2.12230002,5.17847539 2.72161299,5.17847539 L3.55189043,5.17847539 L3.55189043,5.56968552 C3.55189043,5.66002889 3.64179503,5.7162018 3.71347366,5.67069674 L4.74530894,5.06562951 C4.75066953,5.06212913 4.75465167,5.05879542 4.75786802,5.05529503 C5.11809907,4.86127347 5.36805531,4.45772864 5.36805531,3.99267696 L5.36805531,3.82315813 C5.36805531,3.17091899 4.87763872,2.63719302 4.27832575,2.63719302" id="Fill-3" fill="#FFFFFF" fill-rule="nonzero"></path>
        </g>
    </g>
</svg>