<?xml version="1.0" encoding="UTF-8"?>
<svg width="16px" height="16px" viewBox="0 0 16 16" version="1.1" xmlns="http://www.w3.org/2000/svg" xmlns:xlink="http://www.w3.org/1999/xlink">
    <title>loadbalance-third menu</title>
    <g id="loadbalance-third-menu" stroke="none" stroke-width="1" fill="none" fill-rule="evenodd">
        <g id="负载均衡" fill-rule="nonzero">
            <rect id="矩形" fill="#000000" opacity="0" x="0" y="0" width="16" height="16"></rect>
            <path d="M6.04471182,10.97701 C6.486383,11.1599562 6.8242462,11.5104352 6.99704238,11.9367662 L12.9416667,11.9375 C13.2730375,11.9375 13.5416667,12.2061292 13.5416667,12.5375 C13.5416667,12.8688708 13.2730375,13.1375 12.9416667,13.1375 L7.03902062,13.1370863 C6.81044764,13.8375925 6.15184631,14.34375 5.37502558,14.34375 C4.66722699,14.34375 4.02912281,13.9173824 3.75826002,13.2634618 L3.71166666,13.13675 L2.76666666,13.1375 C2.43529581,13.1375 2.16666666,12.8688708 2.16666666,12.5375 C2.16666666,12.2061292 2.43529581,11.9375 2.76666666,11.9375 L3.75323792,11.9362165 C3.83956026,11.7231771 3.96857964,11.5253839 4.13760681,11.3563568 C4.638096,10.8558676 5.3907912,10.7061472 6.04471182,10.97701 Z M5.53134624,12.0980743 C5.34451177,12.0206849 5.129456,12.0634622 4.98645909,12.2064591 C4.84346218,12.349456 4.80068492,12.5645118 4.87807429,12.7513462 C4.95546366,12.9381807 5.13777914,13.06 5.34,13.06 C5.61614564,13.06 5.84,12.8361457 5.84,12.56 C5.84,12.3577792 5.7181807,12.1754637 5.53134624,12.0980743 Z M6.04471182,1.97701003 C6.486383,2.15995624 6.8242462,2.51043517 6.99704238,2.93676619 L12.9416667,2.9375 C13.2730375,2.9375 13.5416667,3.20612915 13.5416667,3.5375 C13.5416667,3.86887085 13.2730375,4.1375 12.9416667,4.1375 L7.03902062,4.1370863 C6.81044764,4.83759247 6.15184631,5.34375 5.37502558,5.34375 C4.66722699,5.34375 4.02912281,4.91738242 3.75826002,4.26346179 L3.71166666,4.13675 L2.76666666,4.1375 C2.43529581,4.1375 2.16666666,3.86887085 2.16666666,3.5375 C2.16666666,3.20612915 2.43529581,2.9375 2.76666666,2.9375 L3.75323792,2.93621646 C3.83956026,2.72317709 3.96857964,2.52538395 4.13760681,2.35635678 C4.638096,1.8558676 5.3907912,1.70614723 6.04471182,1.97701003 Z M5.53134624,3.0980743 C5.34451177,3.02068492 5.129456,3.06346217 4.98645909,3.20645908 C4.84346218,3.34945599 4.80068492,3.56451176 4.87807429,3.75134622 C4.95546366,3.93818069 5.13777914,4.06 5.34,4.06 C5.61614564,4.06 5.84,3.83614565 5.84,3.56 C5.84,3.35777915 5.7181807,3.17546367 5.53134624,3.0980743 Z M9.6636215,6.47326003 C9.22195032,6.65620624 8.88408713,7.00668517 8.71129094,7.43301619 L2.82291666,7.43375 C2.4604798,7.43375 2.16666666,7.72756313 2.16666666,8.09 C2.16666666,8.45243687 2.4604798,8.74625 2.82291666,8.74625 L8.71065939,8.74656503 C8.97033695,9.38773513 9.5990063,9.84 10.3333077,9.84 C11.0411063,9.84 11.6792105,9.41363242 11.9500733,8.75971179 L11.9556667,8.746 L12.8854167,8.74625 C13.2478535,8.74625 13.5416667,8.45243687 13.5416667,8.09 C13.5416667,7.72756313 13.2478535,7.43375 12.8854167,7.43375 L11.9550954,7.43246646 C11.8687731,7.21942709 11.7397537,7.02163395 11.5707265,6.85260678 C11.0702373,6.3521176 10.3175421,6.20239723 9.6636215,6.47326003 Z M10.1659054,7.68581501 C10.3293855,7.61809931 10.5175593,7.6555294 10.6426816,7.78065169 C10.7678039,7.90577399 10.805234,8.09394779 10.7375183,8.25742795 C10.6698026,8.4209081 10.5102766,8.5275 10.3333269,8.5275 C10.0917059,8.5275 9.89583332,8.33162745 9.89583332,8.0900064 C9.89583332,7.91305676 10.0024252,7.75353071 10.1659054,7.68581501 Z" id="形状结合" fill="#262626"></path>
        </g>
    </g>
</svg>