<?xml version="1.0" encoding="UTF-8"?>
<svg width="16px" height="16px" viewBox="0 0 16 16" version="1.1" xmlns="http://www.w3.org/2000/svg" xmlns:xlink="http://www.w3.org/1999/xlink">
    <title>node-third menu</title>
    <g id="node-third-menu" stroke="none" stroke-width="1" fill="none" fill-rule="evenodd">
        <g id="node">
            <g id="图形">
                <rect id="矩形" x="0" y="0" width="16" height="16"></rect>
                <path d="M11.125794,9.8 C12.2893379,9.8 13.2328894,10.6177149 13.4531236,11.6869569 C14.2395694,11.7498588 14.9,12.4418102 14.9,13.259253 C14.9,14.1401016 14.3340203,14.8322747 13.4531236,14.8322747 L9.23869097,14.8322747 C8.20093044,14.8322747 7.35158796,13.983008 7.35158796,12.9453178 C7.35158796,11.970076 8.07491529,11.183671 9.05002097,11.0583609 C9.42737103,10.3035076 10.2133431,9.8 11.125794,9.8 Z M6.93105778,10.49 C7.26242863,10.49 7.53105778,10.7586292 7.53105778,11.09 C7.53105778,11.4213708 7.26242863,11.69 6.93105778,11.69 L2.5,11.69 L2.5,13.49 L5.91356252,13.49 C6.21179628,13.49 6.45920927,13.7075896 6.50570953,13.9926769 L6.51356252,14.09 C6.51356252,14.4213708 6.24493337,14.69 5.91356252,14.69 L2.4,14.69 C1.79248678,14.69 1.3,14.1975132 1.3,13.59 L1.3,11.59 C1.3,10.9824868 1.79248678,10.49 2.4,10.49 L6.93105778,10.49 Z M11.125794,11 C10.6830195,11 10.30419,11.233231 10.1233772,11.5949301 L9.83737696,12.1670466 L9.20297422,12.2485732 C8.81307817,12.2986784 8.55158796,12.5873354 8.55158796,12.9453178 C8.55158796,13.3202411 8.86364688,13.6322747 9.23869097,13.6322747 L13.4531236,13.6322747 C13.6130967,13.6322747 13.7,13.534477 13.7,13.259253 C13.7,13.0783936 13.5312116,12.8970348 13.3574501,12.8831369 L12.4595205,12.8113182 L12.277796,11.9290418 C12.1670721,11.3914746 11.6936443,11 11.125794,11 Z M3.99994877,11.99 C4.33131962,11.99 4.59994877,12.2586292 4.59994877,12.59 C4.59994877,12.9213708 4.33131962,13.19 3.99994877,13.19 C3.66857792,13.19 3.39994877,12.9213708 3.39994877,12.59 C3.39994877,12.2586292 3.66857792,11.99 3.99994877,11.99 Z M11.0698612,5.84422622 C11.6773744,5.84422622 12.1698612,6.336713 12.1698612,6.94422622 L12.1698612,7.82826289 C12.1698612,8.15963374 11.901232,8.42826289 11.5698612,8.42826289 C11.2384903,8.42826289 10.9698612,8.15963374 10.9698612,7.82826289 L10.969,7.04422622 L2.5,7.04422622 L2.5,8.84422622 L8.42857861,8.84422622 C8.72681237,8.84422622 8.97422536,9.06181583 9.02072562,9.3469031 L9.02857861,9.44422622 C9.02857861,9.77559707 8.75994946,10.0442262 8.42857861,10.0442262 L2.4,10.0442262 C1.79248678,10.0442262 1.3,9.55173945 1.3,8.94422622 L1.3,6.94422622 C1.3,6.336713 1.79248678,5.84422622 2.4,5.84422622 L11.0698612,5.84422622 Z M3.99994877,7.342142 C4.33131962,7.342142 4.59994877,7.61077115 4.59994877,7.942142 C4.59994877,8.27351285 4.33131962,8.542142 3.99994877,8.542142 C3.66857792,8.542142 3.39994877,8.27351285 3.39994877,7.942142 C3.39994877,7.61077115 3.66857792,7.342142 3.99994877,7.342142 Z M11.0698612,1.2 C11.6773744,1.2 12.1698612,1.69248678 12.1698612,2.3 L12.1698612,4.3 C12.1698612,4.90751322 11.6773744,5.4 11.0698612,5.4 L2.4,5.4 C1.79248678,5.4 1.3,4.90751322 1.3,4.3 L1.3,2.3 C1.3,1.69248678 1.79248678,1.2 2.4,1.2 Z M10.969,2.4 L2.5,2.4 L2.5,4.2 L10.969,4.2 L10.969,2.4 Z M3.99994877,2.8 C4.33131962,2.8 4.59994877,3.06862915 4.59994877,3.4 C4.59994877,3.73137085 4.33131962,4 3.99994877,4 C3.66857792,4 3.39994877,3.73137085 3.39994877,3.4 C3.39994877,3.06862915 3.66857792,2.8 3.99994877,2.8 Z" id="形状结合" fill="#262626" fill-rule="nonzero"></path>
            </g>
            <g id="云" transform="translate(7.351588, 9.800000)"></g>
        </g>
    </g>
</svg>