<?xml version="1.0" encoding="UTF-8"?>
<svg width="16px" height="16px" viewBox="0 0 16 16" version="1.1" xmlns="http://www.w3.org/2000/svg" xmlns:xlink="http://www.w3.org/1999/xlink">
    <title>Pipeline template</title>
    <g id="Pipeline-template" stroke="none" stroke-width="1" fill="none" fill-rule="evenodd">
        <rect id="矩形" fill="#000000" opacity="0" x="0" y="0" width="16" height="16"></rect>
        <path d="M8.9334641,0.399260531 L9.10922415,0.574987518 L14.4242242,5.88898752 L14.6,6.0647303 L14.6,14 C14.6,14.8836556 13.8836556,15.6 13,15.6 L3,15.6 C2.1163444,15.6 1.4,14.8836556 1.4,14 L1.4,2 C1.4,1.1163444 2.1163444,0.4 2.99992522,0.400000005 L8.9334641,0.399260531 Z M8.435,1.5982915 L3,1.6 C2.7790861,1.6 2.6,1.7790861 2.6,2 L2.6,14 C2.6,14.2209139 2.7790861,14.4 3,14.4 L13,14.4 C13.2209139,14.4 13.4,14.2209139 13.4,14 L13.4,6.5622915 L8.435,1.5982915 Z M5.46031746,4 C6.08357994,4 6.61564687,4.40106471 6.82525436,4.96564589 L11.1238095,4.96521739 L11.1238095,9.29565217 L5.3622381,9.29565217 L5.3622381,11.2256522 L9.4287139,11.2265155 C9.63832138,10.6619343 10.1703883,10.2608696 10.7936508,10.2608696 C11.6001619,10.2608696 12.2539683,10.9324424 12.2539683,11.7608696 C12.2539683,12.5892967 11.6001619,13.2608696 10.7936508,13.2608696 C10.2198306,13.2608696 9.72331108,12.9209124 9.48456947,12.4263797 L4.16190476,12.426087 L4.16190476,8.09565217 L9.92380952,8.09521739 L9.92380952,6.16521739 L6.7694439,6.16541667 C6.53071973,6.66000004 6.0341738,7 5.46031746,7 C4.6538064,7 4,6.32842712 4,5.5 C4,4.67157288 4.6538064,4 5.46031746,4 Z" id="形状结合" fill="#262626" fill-rule="nonzero"></path>
        <g id="编组-8" transform="translate(4.000000, 4.000000)"></g>
    </g>
</svg>