<?xml version="1.0" encoding="UTF-8"?>
<svg width="16px" height="16px" viewBox="0 0 16 16" version="1.1" xmlns="http://www.w3.org/2000/svg" xmlns:xlink="http://www.w3.org/1999/xlink">
    <title>pod-third menu</title>
    <g id="pod-third-menu" stroke="none" stroke-width="1" fill="none" fill-rule="evenodd">
        <g id="pod">
            <rect id="矩形" x="0" y="0" width="16" height="16"></rect>
            <path d="M4.2,7.60538476 C4.38564065,7.49820508 4.61435935,7.49820508 4.8,7.60538476 L7.39807621,9.10538476 C7.58371686,9.21256443 7.69807621,9.41064065 7.69807621,9.625 L7.69807621,12.625 C7.69807621,12.8393594 7.58371686,13.0374356 7.39807621,13.1446152 L4.8,14.6446152 C4.61435935,14.7517949 4.38564065,14.7517949 4.2,14.6446152 L1.60192379,13.1446152 C1.41628314,13.0374356 1.30192379,12.8393594 1.30192379,12.625 L1.30192379,9.625 C1.30192379,9.41064065 1.41628314,9.21256443 1.60192379,9.10538476 Z M11.8027752,7.60699694 L14.2616321,9.04421029 C14.5477173,9.21142842 14.6440781,9.57890337 14.47686,9.86498856 C14.3096418,10.1510737 13.9421669,10.2474345 13.6560817,10.0802164 L11.4979238,8.819 L9.50192379,9.971 L9.50192379,12.278 L11.4999238,13.432 L13.4979238,12.278 L13.4980762,12.0493345 C13.4980762,11.7511008 13.7156658,11.5036878 14.0007531,11.4571875 L14.0980762,11.4493345 C14.4294471,11.4493345 14.6980762,11.7179637 14.6980762,12.0493345 L14.6980762,12.625 C14.6980762,12.8393594 14.5837169,13.0374356 14.3980762,13.1446152 L11.8,14.6446152 C11.6143594,14.7517949 11.3856406,14.7517949 11.2,14.6446152 L8.60192379,13.1446152 C8.41628314,13.0374356 8.30192379,12.8393594 8.30192379,12.625 L8.30192379,9.625 C8.30192379,9.41064065 8.41628314,9.21256443 8.60192379,9.10538476 L11.2,7.60538476 C11.386634,7.49763155 11.6167202,7.49824694 11.8027752,7.60699694 Z M4.5,8.817 L2.501,9.971 L2.501,12.278 L4.5,13.432 L6.498,12.278 L6.498,9.971 L4.5,8.817 Z M7.7,1.48038476 C7.88564065,1.37320508 8.11435935,1.37320508 8.3,1.48038476 L10.8980762,2.98038476 C11.0837169,3.08756443 11.1980762,3.28564065 11.1980762,3.5 L11.1980762,6.5 C11.1980762,6.71435935 11.0837169,6.91243557 10.8980762,7.01961524 L8.3,8.51961524 C8.11435935,8.62679492 7.88564065,8.62679492 7.7,8.51961524 L5.10192379,7.01961524 C4.91628314,6.91243557 4.80192379,6.71435935 4.80192379,6.5 L4.80192379,3.5 C4.80192379,3.28564065 4.91628314,3.08756443 5.10192379,2.98038476 Z M8,2.692 L6.001,3.846 L6.001,6.153 L8,7.307 L9.998,6.153 L9.998,3.846 L8,2.692 Z" id="形状结合" fill="#262626" fill-rule="nonzero"></path>
        </g>
    </g>
</svg>