<?xml version="1.0" encoding="UTF-8"?>
<svg width="16px" height="16px" viewBox="0 0 16 16" version="1.1" xmlns="http://www.w3.org/2000/svg" xmlns:xlink="http://www.w3.org/1999/xlink">
    <title>process management</title>
    <g id="process-management" stroke="none" stroke-width="1" fill="none" fill-rule="evenodd">
        <rect id="矩形" fill="#000000" opacity="0" x="0" y="0" width="16" height="16"></rect>
        <path d="M9.31249649,0.460099803 L9.47075783,0.618710012 L14.4607578,5.61971001 L14.6184628,5.7777626 L14.6185,6.00103703 L14.619,9.5180998 L15.54,9.51886837 L15.54,14.28 C15.54,14.9758788 14.9758788,15.54 14.28,15.54 L2.72,15.54 C2.02412122,15.54 1.46,14.9758788 1.46,14.28 L1.46,9.51886837 L2.272,9.5180998 L2.2725,1.79279382 C2.2725,1.05715054 2.86885671,0.460793825 3.60443434,0.460793829 L9.31249649,0.460099803 Z M5.116,10.5988684 L2.54,10.5988684 L2.54,14.28 C2.54,14.359529 2.5915768,14.4270116 2.66310608,14.4508235 L2.72,14.46 L14.28,14.46 C14.3794113,14.46 14.46,14.3794113 14.46,14.28 L14.46,10.5988684 L11.882,10.5988684 L11.8837499,11.7056664 L11.883996,12.2459122 L5.11633196,12.2459122 L5.116,10.5988684 Z M8.8635,1.53912704 L3.6045,1.54079383 C3.48520649,1.54079383 3.38527328,1.6236851 3.3591555,1.73501253 L3.3525,1.79279382 L3.352,9.5180998 L6.19591804,9.51886837 L6.19599999,10.0587864 L6.196,11.1658684 L10.803,11.1658684 L10.8030001,10.0591143 L10.802754,9.51886837 L13.539,9.5180998 L13.5385,6.22512704 L11.5538336,4.23600035 C11.5729269,4.28895818 11.5833333,4.34606626 11.5833333,4.40560489 L11.5833333,7.19559451 C11.5833333,7.47173689 11.3594757,7.69559451 11.0833333,7.69559451 L5.66733333,7.69559451 L5.66733333,8.50059451 L8.64003604,8.49995167 C8.81440643,8.20693859 9.13427572,8.01061008 9.5,8.01061008 C10.0522847,8.01061008 10.5,8.45832533 10.5,9.01061008 C10.5,9.56289483 10.0522847,10.0106101 9.5,10.0106101 C9.1260572,10.0106101 8.80005344,9.80535868 8.62850229,9.50136945 L5.16666667,9.50079383 C4.89052429,9.50079383 4.66666667,9.2769362 4.66666667,9.00079383 L4.66666667,7.19559451 C4.66666667,6.91945214 4.89052429,6.69559451 5.16666667,6.69559451 L5.83333333,6.69559451 L10.5833333,6.69460489 L10.5833333,4.90560489 L6.3623062,4.90670182 C6.18846788,5.20190278 5.86736798,5.4 5.5,5.4 C4.94771525,5.4 4.5,4.95228475 4.5,4.4 C4.5,3.84771525 4.94771525,3.4 5.5,3.4 C5.87212117,3.4 6.19676923,3.60325654 6.36897964,3.90480509 L11.0833333,3.90560489 C11.1432372,3.90560489 11.2006807,3.91613944 11.2539121,3.93545702 L8.8635,1.53912704 Z" id="形状结合" fill="#262626" fill-rule="nonzero"></path>
    </g>
</svg>