<?xml version="1.0" encoding="UTF-8"?>
<svg width="16px" height="16px" viewBox="0 0 16 16" version="1.1" xmlns="http://www.w3.org/2000/svg" xmlns:xlink="http://www.w3.org/1999/xlink">
    <title>source analysis-third menu</title>
    <g id="source-analysis-third-menu" stroke="none" stroke-width="1" fill="none" fill-rule="evenodd">
        <g id="编组-3">
            <rect id="矩形" x="0" y="0" width="16" height="16"></rect>
            <g id="编组-2" transform="translate(2.000000, 2.962285)" fill="#262626" fill-rule="nonzero">
                <path d="M8.96099819,1.09771452 C11.1701372,1.09771452 12.9609982,2.88857552 12.9609982,5.09771452 C12.9609982,7.30685352 11.1701372,9.09771452 8.96099819,9.09771452 C6.75185919,9.09771452 4.96099819,7.30685352 4.96099819,5.09771452 C4.96099819,2.88857552 6.75185919,1.09771452 8.96099819,1.09771452 Z M8.96498173,2.1669033 C7.34460463,2.1669033 6.03102945,3.48047848 6.03102945,5.10085558 C6.03102945,6.72123268 7.34460463,8.03480786 8.96498173,8.03480786 C10.5853588,8.03480786 11.898934,6.72123268 11.898934,5.10085558 C11.898934,3.48047848 10.5853588,2.1669033 8.96498173,2.1669033 Z M0,4.55721543 L2.582,4.55631525 L2.58257195,3.65331525 L4.05709801,5.09955554 L2.58257195,6.54579583 L2.582,5.64131525 L0,5.64189565 L0,4.55721543 Z M0.542944088,-6.94999613e-14 L2.77947177,1.29022042 L3.23146709,0.508485454 L3.78532397,2.49822931 L1.7852268,3.01344712 L2.23697177,2.22985798 L0.000603979215,0.939360623 L0.542944088,-6.94999613e-14 Z M0.000603979216,9.25975045 L2.23623148,7.96797087 L1.7852268,7.18566396 L3.78532397,7.70088176 L3.23146709,9.69062562 L2.77873148,8.90760844 L0.542944088,10.1991111 L0.000603979216,9.25975045 Z" id="形状"></path>
            </g>
            <g id="编组" transform="translate(1.548654, 2.179485)"></g>
        </g>
    </g>
</svg>