<svg id="图层_1" data-name="图层 1" xmlns="http://www.w3.org/2000/svg" viewBox="0 0 800 800"><defs><style>.cls-1{fill:#e3eaf0;}.cls-10,.cls-13,.cls-14,.cls-16,.cls-17,.cls-2,.cls-5,.cls-9{fill:none;}.cls-13,.cls-17,.cls-2{stroke:#c5d1df;}.cls-13,.cls-14,.cls-2,.cls-5{stroke-linecap:round;}.cls-10,.cls-14,.cls-17,.cls-2,.cls-5,.cls-9{stroke-miterlimit:10;}.cls-2,.cls-5{stroke-width:3px;}.cls-3{fill:#c5d1df;}.cls-4{fill:#fff;}.cls-5{stroke:#fff;}.cls-6{fill:#f9c152;}.cls-7{fill:#ff8227;}.cls-8{fill:#2e64ff;}.cls-10,.cls-9{stroke:#2e64ff;}.cls-9{stroke-width:11.4px;}.cls-10{stroke-width:4.5px;}.cls-11{fill:#f2b5bc;}.cls-12{fill:#263166;}.cls-13{stroke-linejoin:round;stroke-width:0.3px;}.cls-14{stroke:#f2f2f2;stroke-width:0.25px;}.cls-15{fill:#fcb5b1;}.cls-17{stroke-width:2.2px;}</style></defs><rect class="cls-1" x="241.66" y="223.75" width="289.33" height="71" rx="9.67"/><path class="cls-2" d="M255.33,423.12H185s-24.57,1.5-24.57,24.19,18.75,26.25,18.75,26.25h60.38s21,2.44,21,22.5S238.64,516.31,234,516.31,209,516.5,209,535.62s8.46,22.34,15.37,23.25c14.73,1.94,59.44,0,59.44,0"/><path class="cls-3" d="M304.59,545.51H295.3a13.1,13.1,0,0,0,0,26.2h9.29Z"/><rect class="cls-1" x="304.63" y="542.91" width="10.13" height="31.42" rx="1.8"/><line class="cls-2" x1="314.75" y1="551.97" x2="322.93" y2="551.97"/><line class="cls-2" x1="314.75" y1="564.68" x2="322.93" y2="564.68"/><circle class="cls-4" cx="495.39" cy="259.44" r="7.13"/><line class="cls-5" x1="474.58" y1="259.44" x2="427.7" y2="259.44"/><circle class="cls-4" cx="276.63" cy="260.42" r="4.36"/><circle class="cls-4" cx="291.17" cy="260.42" r="4.36"/><circle class="cls-4" cx="305.71" cy="260.42" r="4.36"/><rect class="cls-3" x="279.38" y="294.75" width="213.38" height="14.78"/><rect class="cls-1" x="241.66" y="309.53" width="289.33" height="71" rx="9.67"/><circle class="cls-4" cx="495.39" cy="341.75" r="7.13"/><line class="cls-5" x1="474.58" y1="341.75" x2="427.7" y2="341.75"/><circle class="cls-4" cx="276.63" cy="342.73" r="4.36"/><circle class="cls-4" cx="291.17" cy="342.73" r="4.36"/><circle class="cls-4" cx="305.71" cy="342.73" r="4.36"/><rect class="cls-3" x="279.38" y="380.54" width="213.38" height="14.78"/><rect class="cls-1" x="241.66" y="395.31" width="289.33" height="71" rx="9.67"/><circle class="cls-4" cx="495.39" cy="424.06" r="7.13"/><line class="cls-5" x1="474.58" y1="424.06" x2="427.7" y2="424.06"/><circle class="cls-4" cx="276.63" cy="425.04" r="4.36"/><circle class="cls-4" cx="291.17" cy="425.04" r="4.36"/><circle class="cls-4" cx="305.71" cy="425.04" r="4.36"/><polygon class="cls-6" points="334.71 558.61 335.43 560.45 337.32 559.87 336.33 561.58 337.96 562.7 336.01 563 336.16 564.97 334.71 563.63 333.26 564.97 333.4 563 331.45 562.7 333.08 561.58 332.09 559.87 333.98 560.45 334.71 558.61"/><path class="cls-7" d="M314.63,536.94s1.72-.69,2-3.72c0,0,1.77,2.25,3.83,2,0,0-2.08,2.08-2.13,3.85C318.3,539,316.31,536.58,314.63,536.94Z"/><path class="cls-8" d="M280,389.83h51V407H296.47l-1.84,11.61a37.12,37.12,0,0,1,7.09-2.54,29.72,29.72,0,0,1,6.94-.84q11.59,0,18.82,7a23.6,23.6,0,0,1,7.23,17.67,30,30,0,0,1-3.72,14.4,25.23,25.23,0,0,1-10.55,10.54q-6.82,3.65-17.48,3.64a51.34,51.34,0,0,1-13.1-1.45,26.69,26.69,0,0,1-9.29-4.32,25.86,25.86,0,0,1-6.19-6.51,34.3,34.3,0,0,1-4-9.07l21.73-2.38q.8,5.22,3.69,7.94a9.76,9.76,0,0,0,6.91,2.71,9.34,9.34,0,0,0,7.41-3.4q2.93-3.39,2.92-10.15t-2.95-10.12a10.14,10.14,0,0,0-7.86-3.22,12.75,12.75,0,0,0-6,1.53,17.37,17.37,0,0,0-4.74,4l-18.3-2.64Z"/><path class="cls-8" d="M440.7,428.16q0-22,7.93-30.85t24.18-8.8a36.3,36.3,0,0,1,12.82,1.92,23.9,23.9,0,0,1,8.17,5,26.62,26.62,0,0,1,5,6.49,33.6,33.6,0,0,1,2.93,7.93,74.21,74.21,0,0,1,2.16,18q0,21-7.12,30.8t-24.52,9.75q-9.75,0-15.77-3.11a25.55,25.55,0,0,1-9.86-9.12,34.51,34.51,0,0,1-4.35-11.68A79.69,79.69,0,0,1,440.7,428.16Zm21.3.06q0,14.76,2.61,20.17t7.57,5.4a7.93,7.93,0,0,0,5.67-2.29c1.6-1.53,2.77-3.95,3.53-7.25s1.14-8.46,1.14-15.45q0-15.41-2.62-20.7t-7.83-5.3q-5.32,0-7.7,5.4T462,428.22Z"/><rect class="cls-9" x="350.97" y="395.41" width="68.84" height="66.45" rx="4.56"/><line class="cls-10" x1="367.03" y1="411.24" x2="377.76" y2="421.97"/><line class="cls-10" x1="377.76" y1="411.24" x2="367.03" y2="421.97"/><line class="cls-10" x1="394.76" y1="411.24" x2="405.49" y2="421.97"/><line class="cls-10" x1="405.49" y1="411.24" x2="394.76" y2="421.97"/><line class="cls-10" x1="376.32" y1="434.45" x2="392.01" y2="434.45"/><path class="cls-10" d="M383.65,434.45V440a4.18,4.18,0,0,0,4.18,4.17h0A4.18,4.18,0,0,0,392,440v-5.55Z"/><polygon class="cls-11" points="457.12 598.18 453.64 598.18 453.64 595.19 457.12 595.06 457.12 598.18"/><rect class="cls-11" x="431.57" y="595.02" width="3.48" height="3.16"/><polygon class="cls-12" points="457.13 533.53 460.48 595.55 449.68 595.69 444.32 544.46 439.72 595.55 428.65 595.55 432.33 533.57 457.13 533.53"/><line class="cls-13" x1="458.85" y1="593.21" x2="450.31" y2="593.21"/><line class="cls-13" x1="438.87" y1="593.21" x2="430.33" y2="593.21"/><path class="cls-12" d="M442,483s9.69,3.9,10.84-.3-2.55-5.71-6.3-4-5.58,1.9-5.77,2.76S442,483,442,483Z"/><path class="cls-6" d="M431.46,597.84a13.7,13.7,0,0,0,3.79.09.86.86,0,0,1,1,.86,10,10,0,0,0,.07,2c.2,1,1.68,2.17,1.39,5.34h-8.91s-.2-3.66,1-4.45c.72-.49.75-1.93.66-3A.83.83,0,0,1,431.46,597.84Z"/><rect class="cls-12" x="428.58" y="605.96" width="9.46" height="2.28" rx="0.43"/><path class="cls-14" d="M432,601.87a11.52,11.52,0,0,1,3,0"/><path class="cls-6" d="M457.32,597.84a13.7,13.7,0,0,1-3.79.09.86.86,0,0,0-1,.86,10.73,10.73,0,0,1-.08,2c-.19,1-1.68,2.17-1.38,5.34H460s.19-3.66-1-4.45c-.73-.49-.75-1.93-.66-3A.84.84,0,0,0,457.32,597.84Z"/><rect class="cls-12" x="450.75" y="605.96" width="9.46" height="2.28" rx="0.43" transform="translate(910.96 1214.2) rotate(-180)"/><path class="cls-14" d="M456.78,601.87a11.45,11.45,0,0,0-2.95,0"/><path class="cls-11" d="M457.77,505.57s1.12-2.32,2.91.61a75.61,75.61,0,0,1,5.82,11c1.1,3,3.44,19,3.44,19l-2.68.8,0-.1c-.38-1.08-4.21-14.92-4.89-16.62S454.86,509,454.86,509Z"/><path class="cls-11" d="M467.22,537a7.11,7.11,0,0,1,.55,2.06c-.06.61-.49.92-1.13,2.85.49,1.42.48,3.46.78,3.58,1.77-.83.16-3.42.66-3.55s1.49,1.51,1.27,2.67c-.15.84-1.27,1.9-.65,2.39s1.81-1.84,2.4-2.84,0-3-1.16-7.86Z"/><path class="cls-11" d="M433.47,505.57s-1.12-2.32-2.91.61a75.61,75.61,0,0,0-5.82,11c-1.1,3-3.44,19-3.44,19l2.68.8,0-.1c.38-1.08,4.21-14.92,4.89-16.62S436.38,509,436.38,509Z"/><path class="cls-11" d="M424,537a7.11,7.11,0,0,0-.55,2.06c.06.61.5.92,1.14,2.85-.5,1.42-.49,3.46-.79,3.58-1.77-.83-.16-3.42-.66-3.55s-1.49,1.51-1.27,2.67c.16.84,1.28,1.9.65,2.39s-1.81-1.84-2.39-2.84,0-3,1.15-7.86Z"/><rect class="cls-15" x="442.71" y="495.49" width="7.16" height="6.94" rx="0.23" transform="translate(892.59 997.91) rotate(-180)"/><polygon class="cls-15" points="451.1 498.51 449.83 498.09 449.38 497.26 443.15 497.3 441.89 497.93 439.65 498.63 442.08 508.61 449.49 507.83 453.44 501.34 451.1 498.51"/><path class="cls-8" d="M455.88,533.51s2-24.95.12-30.1c-1.92-1.12-4.56-4.71-4.56-4.71s-3.33-.06-6.21-.06c-2.72,0-5.44.11-5.44.11l-4.37,3.62-1.11,11.82-.24,21.62h21.84Z"/><path class="cls-16" d="M450.77,498.39h0Z"/><path class="cls-16" d="M440.14,499.84l.93,4.23h-1.24a.3.3,0,0,1-.3-.29v-4Z"/><polygon class="cls-15" points="451.51 482.93 440.52 482.86 440.47 489.18 451.01 487.47 452.83 485.74 451.51 482.93"/><path class="cls-12" d="M443.09,489.17s.42-.05.56-.05a5.09,5.09,0,0,1,.56,0,.21.21,0,0,0,.2-.22h0c0-.11-.09-.27-.77-.26s-.75.17-.75.28h0A.2.2,0,0,0,443.09,489.17Z"/><path class="cls-12" d="M449.6,489.17s-.42-.05-.56-.05a5.09,5.09,0,0,0-.56,0,.21.21,0,0,1-.2-.22h0c0-.11.09-.27.76-.26s.76.17.76.28h0A.2.2,0,0,1,449.6,489.17Z"/><ellipse class="cls-15" cx="440.24" cy="489.6" rx="1.67" ry="1.72"/><ellipse class="cls-15" cx="452.37" cy="489.6" rx="1.67" ry="1.72"/><rect class="cls-15" x="440.64" y="482.35" width="11.27" height="15.13" rx="5.64" transform="translate(892.56 979.84) rotate(-180)"/><path class="cls-12" d="M445.57,496.29c-1.41-.1-4.36-.61-4.93-2.8a8,8,0,0,1-.4-4.14c.11-1.54-.84-4.67.25-5.72s3.61-1.83,7.8-1.32,5.5,2.3,3.8,5.09c-.08,1.79.66,1.7-.52,6.59C451.26,494.9,450.07,496.62,445.57,496.29Z"/><path class="cls-12" d="M451.89,488.15a5,5,0,0,0,1.18-3.89c-.45-2.06-1.31-2.23-1.31-2.23l-2.33.94S451.92,486,451.89,488.15Z"/><path class="cls-12" d="M443.17,480.93s-2.76,0-3.78,1.42a4.51,4.51,0,0,0-.58,2.66c0,3.19,1.89,3.59,1.89,3.59s.71-5.57,1.44-5.76S443.17,480.93,443.17,480.93Z"/><path class="cls-8" d="M448,502.13a3.65,3.65,0,0,0,3.14-3.61s5.68,1.23,8.13,4,7.65,8.74,7.65,8.74l-6.57,6.08-3-3.45s.51,7.39.91,11.39c.27,2.8.92,10.56.92,10.56h-8.39a.89.89,0,0,1-.88-.91C450.12,526.09,448.36,504.93,448,502.13Z"/><path class="cls-8" d="M443.07,502.13a3.66,3.66,0,0,1-3.14-3.62s-5.51,1.4-8.13,4c-3,2.92-6.74,10-6.74,10l6.31,5,2.33-3.64s-.41,5-.64,7.49c-.4,4.24-2.75,14.46-1.74,14.46h9.45a.88.88,0,0,0,.88-.91C441.38,526.1,442.67,504.93,443.07,502.13Z"/><path class="cls-1" d="M438.84,498.82s8.42.14,13.38,0l-1-.27a29.34,29.34,0,0,0-3.56-.32,46.12,46.12,0,0,0-7.48.23Z"/><rect class="cls-3" x="354.42" y="506.91" width="27.95" height="27.95" rx="4.68"/><circle class="cls-1" cx="368.4" cy="522.39" r="9.02"/><circle class="cls-3" cx="365.38" cy="521.83" r="1.43"/><circle class="cls-3" cx="371.42" cy="521.83" r="1.43"/><line class="cls-17" x1="368.4" y1="515.09" x2="368.4" y2="510.05"/><line class="cls-17" x1="368.4" y1="534.81" x2="368.4" y2="529.03"/></svg>