<?xml version="1.0" encoding="UTF-8"?>
<svg width="407px" height="422px" viewBox="0 0 407 422" version="1.1" xmlns="http://www.w3.org/2000/svg" xmlns:xlink="http://www.w3.org/1999/xlink">
    <title>web端异常-500</title>
    <g id="空状态插画-暗色" stroke="none" stroke-width="1" fill="none" fill-rule="evenodd">
        <g id="web端异常-500" transform="translate(-208.000000, -265.000000)">
            <g transform="translate(210.000000, 265.901025)" id="编组">
                <g>
                    <path d="M394.432896,77.648883 L99.3278265,77.648883 C93.5152635,77.648883 88.7596295,72.8905622 88.7596295,67.0747153 L88.7596295,10.5741676 C88.7596295,4.75832075 93.5152635,0 99.3278265,0 L394.432896,0 C400.245459,0 405,4.75832075 405,10.5741676 L405,67.0747153 C405,72.8905622 400.245459,77.648883 394.432896,77.648883" id="Fill-1" fill="#3E4246"></path>
                    <path d="M103.698179,218.035312 L26.8462152,218.035312 C26.8462152,218.035312 0,219.675735 0,244.486588 C0,269.298535 20.4937112,273.195087 20.4937112,273.195087 L86.4834613,273.195087 C86.4834613,273.195087 109.436418,275.860228 109.436418,297.801434 C109.436418,319.741547 85.4593223,319.947147 80.335348,319.947147 C75.2124667,319.947147 53.0781655,320.151653 53.0781655,341.067048 C53.0781655,361.982443 62.332579,365.497323 69.8841017,366.493607 C85.9850543,368.616314 134.84862,366.493607 134.84862,366.493607" id="Stroke-3" stroke="#333539" stroke-width="3" stroke-linecap="round"></path>
                    <path d="M157.540568,351.880389 L147.388804,351.880389 C139.513754,351.880389 133.071624,358.328346 133.071624,366.206751 C133.071624,374.086251 139.513754,380.53202 147.388804,380.53202 L157.540568,380.53202 L157.540568,351.880389 Z" id="Fill-5" fill="#333539"></path>
                    <path d="M166.681092,383.402979 L159.54928,383.402979 C158.467212,383.402979 157.581884,382.517151 157.581884,381.434472 L157.581884,351.004622 C157.581884,349.923036 158.467212,349.036114 159.54928,349.036114 L166.681092,349.036114 C167.763159,349.036114 168.648488,349.923036 168.648488,351.004622 L168.648488,381.434472 C168.648488,382.517151 167.763159,383.402979 166.681092,383.402979" id="Fill-7" fill="#4F5256"></path>
                    <line x1="168.648269" y1="358.94088" x2="177.583527" y2="358.94088" id="Stroke-9" stroke="#333539" stroke-width="3" stroke-linecap="round"></line>
                    <line x1="168.648269" y1="372.84281" x2="177.583527" y2="372.84281" id="Stroke-11" stroke="#333539" stroke-width="3" stroke-linecap="round"></line>
                    <path d="M373.873605,39.0241357 C373.873605,43.3275124 370.386942,46.8161456 366.085995,46.8161456 C361.785048,46.8161456 358.298384,43.3275124 358.298384,39.0241357 C358.298384,34.7196653 361.785048,31.2321257 366.085995,31.2321257 C370.386942,31.2321257 373.873605,34.7196653 373.873605,39.0241357" id="Fill-13" fill="#FFFFFF" opacity="0.119999997"></path>
                    <line x1="343.337975" y1="39.0241357" x2="292.103697" y2="39.0241357" id="Stroke-15" stroke="#FFFFFF" stroke-width="3" opacity="0.119999997" stroke-linecap="round"></line>
                    <path d="M131.740352,40.1006907 C131.740352,42.733023 129.60682,44.8677604 126.975974,44.8677604 C124.344035,44.8677604 122.210503,42.733023 122.210503,40.1006907 C122.210503,37.4672647 124.344035,35.333621 126.975974,35.333621 C129.60682,35.333621 131.740352,37.4672647 131.740352,40.1006907" id="Fill-17" fill="#FFFFFF" opacity="0.119999997"></path>
                    <path d="M147.634182,40.1006907 C147.634182,42.733023 145.50065,44.8677604 142.869804,44.8677604 C140.237865,44.8677604 138.104333,42.733023 138.104333,40.1006907 C138.104333,37.4672647 140.237865,35.333621 142.869804,35.333621 C145.50065,35.333621 147.634182,37.4672647 147.634182,40.1006907" id="Fill-19" fill="#FFFFFF" opacity="0.119999997"></path>
                    <path d="M163.528011,40.1006907 C163.528011,42.733023 161.394479,44.8677604 158.763633,44.8677604 C156.131694,44.8677604 153.998162,42.733023 153.998162,40.1006907 C153.998162,37.4672647 156.131694,35.333621 158.763633,35.333621 C161.394479,35.333621 163.528011,37.4672647 163.528011,40.1006907" id="Fill-21" fill="#FFFFFF" opacity="0.119999997"></path>
                    <polygon id="Fill-23" fill="#333539" points="129.983686 93.8118629 363.20212 93.8118629 363.20212 77.6493204 129.983686 77.6493204"></polygon>
                    <path d="M394.432896,171.460527 L99.3278265,171.460527 C93.5152635,171.460527 88.7596295,166.702206 88.7596295,160.88636 L88.7596295,104.385812 C88.7596295,98.5699649 93.5152635,93.8116442 99.3278265,93.8116442 L394.432896,93.8116442 C400.245459,93.8116442 405,98.5699649 405,104.385812 L405,160.88636 C405,166.702206 400.245459,171.460527 394.432896,171.460527" id="Fill-25" fill="#3E4246"></path>
                    <path d="M373.873605,129.042356 C373.873605,133.345733 370.386942,136.834366 366.085995,136.834366 C361.785048,136.834366 358.298384,133.345733 358.298384,129.042356 C358.298384,124.737886 361.785048,121.250346 366.085995,121.250346 C370.386942,121.250346 373.873605,124.737886 373.873605,129.042356" id="Fill-26" fill="#FFFFFF" opacity="0.119999997"></path>
                    <line x1="343.337975" y1="129.042356" x2="292.103697" y2="129.042356" id="Stroke-27" stroke="#FFFFFF" stroke-width="3" opacity="0.119999997" stroke-linecap="round"></line>
                    <path d="M131.740352,130.118911 C131.740352,132.751243 129.60682,134.885981 126.975974,134.885981 C124.344035,134.885981 122.210503,132.751243 122.210503,130.118911 C122.210503,127.485485 124.344035,125.351841 126.975974,125.351841 C129.60682,125.351841 131.740352,127.485485 131.740352,130.118911" id="Fill-28" fill="#FFFFFF" opacity="0.119999997"></path>
                    <path d="M147.634182,130.118911 C147.634182,132.751243 145.50065,134.885981 142.869804,134.885981 C140.237865,134.885981 138.104333,132.751243 138.104333,130.118911 C138.104333,127.485485 140.237865,125.351841 142.869804,125.351841 C145.50065,125.351841 147.634182,127.485485 147.634182,130.118911" id="Fill-29" fill="#FFFFFF" opacity="0.119999997"></path>
                    <path d="M163.528011,130.118911 C163.528011,132.751243 161.394479,134.885981 158.763633,134.885981 C156.131694,134.885981 153.998162,132.751243 153.998162,130.118911 C153.998162,127.485485 156.131694,125.351841 158.763633,125.351841 C161.394479,125.351841 163.528011,127.485485 163.528011,130.118911" id="Fill-30" fill="#FFFFFF" opacity="0.119999997"></path>
                    <polygon id="Fill-31" fill="#333539" points="129.983686 187.623288 363.20212 187.623288 363.20212 171.460746 129.983686 171.460746"></polygon>
                    <path d="M394.432896,265.272281 L99.3278265,265.272281 C93.5152635,265.272281 88.7596295,260.51396 88.7596295,254.699207 L88.7596295,198.197565 C88.7596295,192.381718 93.5152635,187.623398 99.3278265,187.623398 L394.432896,187.623398 C400.245459,187.623398 405,192.381718 405,198.197565 L405,254.699207 C405,260.51396 400.245459,265.272281 394.432896,265.272281" id="Fill-32" fill="#3E4246"></path>
                    <path d="M373.873605,219.060576 C373.873605,223.363953 370.386942,226.852586 366.085995,226.852586 C361.785048,226.852586 358.298384,223.363953 358.298384,219.060576 C358.298384,214.756106 361.785048,211.268566 366.085995,211.268566 C370.386942,211.268566 373.873605,214.756106 373.873605,219.060576" id="Fill-33" fill="#FFFFFF"></path>
                    <line x1="343.337975" y1="219.060576" x2="292.103697" y2="219.060576" id="Stroke-34" stroke="#FFFFFF" stroke-width="3" opacity="0.119999997" stroke-linecap="round"></line>
                    <path d="M131.740352,220.137131 C131.740352,222.769464 129.60682,224.904201 126.975974,224.904201 C124.344035,224.904201 122.210503,222.769464 122.210503,220.137131 C122.210503,217.503705 124.344035,215.370062 126.975974,215.370062 C129.60682,215.370062 131.740352,217.503705 131.740352,220.137131" id="Fill-35" fill="#FFFFFF" opacity="0.119999997"></path>
                    <path d="M147.634182,220.137131 C147.634182,222.769464 145.50065,224.904201 142.869804,224.904201 C140.237865,224.904201 138.104333,222.769464 138.104333,220.137131 C138.104333,217.503705 140.237865,215.370062 142.869804,215.370062 C145.50065,215.370062 147.634182,217.503705 147.634182,220.137131" id="Fill-36" fill="#FFFFFF" opacity="0.119999997"></path>
                    <path d="M163.528011,220.137131 C163.528011,222.769464 161.394479,224.904201 158.763633,224.904201 C156.131694,224.904201 153.998162,222.769464 153.998162,220.137131 C153.998162,217.503705 156.131694,215.370062 158.763633,215.370062 C161.394479,215.370062 163.528011,217.503705 163.528011,220.137131" id="Fill-37" fill="#FFFFFF" opacity="0.119999997"></path>
                    <polygon id="Fill-38" fill="#F9C152" points="190.458059 366.206314 191.250483 368.215286 193.314063 367.583176 192.238553 369.455445 194.020139 370.67592 191.886608 371.001818 192.042906 373.155147 190.458059 371.690795 188.873212 373.155147 189.029511 371.001818 186.895979 370.67592 188.677566 369.455445 187.602056 367.583176 189.665636 368.215286"></polygon>
                    <path d="M168.517,342.507777 C168.517,342.507777 170.400236,341.756463 170.673485,338.434059 C170.673485,338.434059 172.606998,340.90235 174.850923,340.598324 C174.850923,340.598324 172.575301,342.867576 172.52721,344.803276 C172.52721,344.803276 170.35433,342.117356 168.517,342.507777" id="Fill-39" fill="#FF8227"></path>
                    <path d="M130.686921,181.621308 L186.423257,181.621308 L186.423257,200.364783 L148.670016,200.364783 L146.652342,213.051816 C149.264607,211.821498 151.848454,210.898487 154.404976,210.283875 C156.959312,209.66817 159.486323,209.360864 161.984917,209.360864 C170.43707,209.360864 177.296725,211.917736 182.561696,217.031482 C187.824481,222.145228 190.458606,228.584436 190.458606,236.351292 C190.458606,241.810621 189.103288,247.058881 186.394839,252.09498 C183.685298,257.132173 179.842317,260.977325 174.86699,263.629342 C169.889478,266.282453 163.520579,267.609009 155.7592,267.609009 C150.187097,267.609009 145.413975,267.080792 141.436556,266.023266 C137.459136,264.96574 134.0774,263.38984 131.292442,261.294473 C128.505297,259.199106 126.248256,256.824867 124.519134,254.171756 C122.790011,251.518645 121.34944,248.212645 120.196327,244.252664 L143.943893,241.656421 C144.519903,245.463296 145.86429,248.355909 147.978148,250.336447 C150.090913,252.316984 152.608087,253.306706 155.529671,253.306706 C158.794456,253.306706 161.495254,252.066546 163.627693,249.586226 C165.760131,247.107 166.825804,243.406206 166.825804,238.484936 C166.825804,233.448837 165.749202,229.757885 163.598182,227.41208 C161.446069,225.067368 158.583507,223.893919 155.010497,223.893919 C152.742526,223.893919 150.552158,224.451663 148.439393,225.567151 C146.86329,226.374239 145.134168,227.835309 143.252025,229.949268 L123.251256,227.066497 L130.686921,181.621308 Z" id="Fill-40" fill="#2E64FF"></path>
                    <path d="M329.591668,223.60597 C329.591668,234.37152 330.542576,241.723897 332.444393,245.665287 C334.347302,249.605583 337.103843,251.576278 340.716201,251.576278 C343.097844,251.576278 345.16361,250.740756 346.912406,249.067525 C348.66011,247.395387 349.947662,244.752118 350.773968,241.137719 C351.599181,237.524414 352.013428,231.891201 352.013428,224.240267 C352.013428,213.013211 351.062519,205.468358 349.15961,201.604615 C347.257794,197.740872 344.405069,195.808453 340.600343,195.808453 C336.719108,195.808453 333.914475,197.779148 332.185352,201.719444 C330.456229,205.660834 329.591668,212.956343 329.591668,223.60597 M306.305347,223.548008 C306.305347,207.47733 309.196327,196.231682 314.980472,189.811066 C320.762431,183.39045 329.571994,180.179595 341.408069,180.179595 C347.093844,180.179595 351.763131,180.881696 355.413744,182.284805 C359.063264,183.687913 362.041684,185.514251 364.347909,187.763818 C366.653042,190.012291 368.468512,192.376688 369.794318,194.857008 C371.120125,197.336234 372.186891,200.22994 372.993523,203.53594 C374.568533,209.841726 375.356585,216.416542 375.356585,223.260388 C375.356585,238.600531 372.7629,249.827587 367.575532,256.939369 C362.388164,264.052243 353.453999,267.608681 340.773037,267.608681 C333.664178,267.608681 327.920474,266.474601 323.539739,264.206443 C319.159003,261.938285 315.565226,258.6126 312.761686,254.229389 C310.724338,251.114773 309.139491,246.857328 308.006052,241.454868 C306.87152,236.053501 306.305347,230.084548 306.305347,223.548008" id="Fill-41" fill="#2E64FF"></path>
                    <path d="M278.493468,260.395849 L213.225097,260.395849 C210.482765,260.395849 208.23884,258.150657 208.23884,255.406776 L208.23884,192.718552 C208.23884,189.973577 210.482765,187.729478 213.225097,187.729478 L278.493468,187.729478 C281.2358,187.729478 283.479725,189.973577 283.479725,192.718552 L283.479725,255.406776 C283.479725,258.150657 281.2358,260.395849 278.493468,260.395849 Z" id="Stroke-42" stroke="#2E64FF" stroke-width="11.4"></path>
                    <line x1="225.786813" y1="205.040098" x2="237.513588" y2="216.773498" id="Stroke-43" stroke="#2E64FF" stroke-width="4.5"></line>
                    <line x1="237.514025" y1="205.040098" x2="225.78725" y2="216.773498" id="Stroke-44" stroke="#2E64FF" stroke-width="4.5"></line>
                    <line x1="256.099362" y1="205.040098" x2="267.826136" y2="216.773498" id="Stroke-45" stroke="#2E64FF" stroke-width="4.5"></line>
                    <line x1="267.826136" y1="205.040098" x2="256.099362" y2="216.773498" id="Stroke-46" stroke="#2E64FF" stroke-width="4.5"></line>
                    <line x1="235.945026" y1="230.427178" x2="253.088699" y2="230.427178" id="Stroke-47" stroke="#2E64FF" stroke-width="4.5"></line>
                    <path d="M243.958887,230.427178 L243.958887,236.490182 C243.958887,239.002216 246.01263,241.058213 248.523246,241.058213 L248.524339,241.058213 C251.034956,241.058213 253.088699,239.002216 253.088699,236.490182 L253.088699,230.427178 L243.958887,230.427178 Z" id="Stroke-48" stroke="#2E64FF" stroke-width="4.5"></path>
                </g>
                <g transform="translate(211.704545, 278.062070)">
                    <polygon id="Fill-49" fill="#F2B5BC" points="112.317762 131.180649 108.512642 131.180649 108.512642 127.917661 112.317762 127.776836"></polygon>
                    <polygon id="Fill-51" fill="#F2B5BC" points="84.3736992 131.180321 88.1788193 131.180321 88.1788193 127.726292 84.3736992 127.726292"></polygon>
                    <polygon id="Fill-53" fill="#3B4575" points="112.328918 60.5986952 115.996227 128.304875 104.184933 128.458799 98.3279574 72.5305979 93.2934739 128.304875 81.1824951 128.304875 85.2129256 60.6489118"></polygon>
                    <line x1="114.210916" y1="125.751142" x2="104.868192" y2="125.751142" id="Stroke-54" stroke="#C5D1DF" stroke-width="0.3" stroke-linecap="round" stroke-linejoin="round"></line>
                    <line x1="92.3590922" y1="125.751142" x2="83.0163683" y2="125.751142" id="Stroke-55" stroke="#C5D1DF" stroke-width="0.3" stroke-linecap="round" stroke-linejoin="round"></line>
                    <path d="M95.7299977,5.43018368 C95.7299977,5.43018368 106.32396,9.69204538 107.582854,5.10705072 C108.842842,0.523147737 104.794912,-1.128542 100.697763,0.779689104 C96.6017082,2.68901188 94.5968834,2.85712835 94.3836042,3.78722726 C94.1692312,4.71841784 95.7299977,5.43018368 95.7299977,5.43018368" id="Fill-56" fill="#263166"></path>
                    <path d="M84.2580909,130.804352 C85.354018,131.020501 86.8743161,131.067443 88.4055516,130.906968 C88.9972647,130.843652 89.5244472,131.249751 89.5025724,131.842525 C89.4752289,132.604508 89.4741352,133.51059 89.5835091,134.056423 C89.7989758,135.137172 91.4231792,136.432978 91.0983385,139.890283 L81.3574935,139.890283 C81.3574935,139.890283 81.140933,135.893696 82.4392019,135.029097 C83.2332569,134.501822 83.2584129,132.925458 83.1588826,131.780301 C83.1063831,131.168968 83.6565341,130.68536 84.2580909,130.804352" id="Fill-57" fill="#E8B143"></path>
                    <path d="M90.9796678,142.159091 L81.573507,142.159091 C81.3142907,142.159091 81.1021053,141.947308 81.1021053,141.688583 L81.1021053,140.144968 C81.1021053,139.886244 81.3142907,139.67446 81.573507,139.67446 L90.9796678,139.67446 C91.2388841,139.67446 91.4510695,139.886244 91.4510695,140.144968 L91.4510695,141.688583 C91.4510695,141.947308 91.2388841,142.159091 90.9796678,142.159091" id="Fill-58" fill="#3B4575"></path>
                    <path d="M84.8514447,135.202999 C84.8514447,135.202999 86.7436142,134.960649 88.084539,135.202999" id="Stroke-59" stroke="#F2F2F2" stroke-width="0.254" stroke-linecap="round"></path>
                    <path d="M112.544166,130.804352 C111.448239,131.020501 109.927941,131.067443 108.396706,130.906968 C107.804992,130.843652 107.27781,131.249751 107.299685,131.842525 C107.327028,132.604508 107.328122,133.51059 107.218748,134.056423 C107.002188,135.137172 105.379078,136.432978 105.703919,139.890283 L115.444764,139.890283 C115.444764,139.890283 115.661324,135.893696 114.363055,135.029097 C113.569,134.501822 113.54275,132.925458 113.642281,131.780301 C113.695874,131.168968 113.145723,130.68536 112.544166,130.804352" id="Fill-60" fill="#E8B143"></path>
                    <path d="M105.822589,142.159091 L115.22875,142.159091 C115.487966,142.159091 115.700152,141.947308 115.700152,141.688583 L115.700152,140.144968 C115.700152,139.886244 115.487966,139.67446 115.22875,139.67446 L105.822589,139.67446 C105.563373,139.67446 105.351188,139.886244 105.351188,140.144968 L105.351188,141.688583 C105.351188,141.947308 105.563373,142.159091 105.822589,142.159091" id="Fill-61" fill="#3B4575"></path>
                    <path d="M111.950812,135.202999 C111.950812,135.202999 110.058643,134.960649 108.717718,135.202999" id="Stroke-62" stroke="#F2F2F2" stroke-width="0.254" stroke-linecap="round"></path>
                    <path d="M113.032849,30.0790058 C113.032849,30.0790058 114.260025,27.5463421 116.218913,30.7492883 C118.521234,34.5144423 121.317927,39.3941866 122.583383,42.7990909 C123.782122,46.0249622 126.341473,63.5920417 126.341473,63.5920417 L123.411344,64.465374 C123.411344,64.465374 123.391657,64.4086074 123.374157,64.3583908 C122.953067,63.1815755 118.767326,48.0696515 118.018114,46.2192786 C117.239372,44.2913975 109.847879,33.8081348 109.847879,33.8081348 L113.032849,30.0790058 Z" id="Fill-63" fill="#F2B5BC"></path>
                    <path d="M123.37372,64.3588275 C123.75981,65.4363012 124.006995,66.2747002 123.971995,66.6076582 C123.901996,67.2746657 123.4295,67.613082 122.729507,69.7134462 C123.268721,71.2679777 123.25669,73.4927918 123.584811,73.6248833 C125.521824,72.718801 123.75981,69.890296 124.311055,69.7483795 C124.862299,69.606463 125.938539,71.3967943 125.701198,72.6631261 C125.52948,73.580125 124.304492,74.7394737 124.985892,75.2754814 C125.662917,75.8082141 126.963373,73.2624504 127.608679,72.170785 C128.205861,71.1588112 127.604305,68.8597639 126.342129,63.5924784 L123.37372,64.3588275 Z" id="Fill-64" fill="#F2B5BC"></path>
                    <path d="M86.4567263,30.0790058 C86.4567263,30.0790058 85.2295505,27.5463421 83.2706628,30.7492883 C80.9683409,34.5144423 78.1716487,39.3941866 76.906192,42.7990909 C75.7074533,46.0249622 73.1470089,63.5920417 73.1470089,63.5920417 L76.0782311,64.465374 C76.0782311,64.465374 76.0979184,64.4086074 76.1154182,64.3583908 C76.536508,63.1815755 80.7222495,48.0696515 81.4703674,46.2192786 C82.2502037,44.2913975 89.6416961,33.8081348 89.6416961,33.8081348 L86.4567263,30.0790058 Z" id="Fill-65" fill="#F2B5BC"></path>
                    <path d="M76.1158557,64.3588275 C75.7297656,65.4363012 75.4825805,66.2747002 75.5175801,66.6076582 C75.5875795,67.2746657 76.060075,67.613082 76.7600683,69.7134462 C76.2208547,71.2679777 76.2328858,73.4927918 75.904764,73.6248833 C73.9677511,72.718801 75.7297656,69.890296 75.1785209,69.7483795 C74.6272761,69.606463 73.5510363,71.3967943 73.7883778,72.6631261 C73.9600949,73.580125 75.1850833,74.7394737 74.5036835,75.2754814 C73.8255649,75.8082141 72.5262023,73.2624504 71.8808959,72.170785 C71.2837141,71.1588112 71.8852709,68.8597639 73.1474464,63.5924784 L76.1158557,64.3588275 Z" id="Fill-66" fill="#F2B5BC"></path>
                    <path d="M96.8179405,26.6451723 L104.151465,26.6451723 C104.289276,26.6451723 104.403025,26.5327307 104.403025,26.3951809 L104.403025,19.3222808 C104.403025,19.184731 104.289276,19.0722894 104.151465,19.0722894 L96.8179405,19.0722894 C96.6801293,19.0722894 96.5663804,19.184731 96.5663804,19.3222808 L96.5663804,26.3951809 C96.5663804,26.5327307 96.6801293,26.6451723 96.8179405,26.6451723" id="Fill-67" fill="#FCB5B1"></path>
                    <polygon id="Fill-68" fill="#FCB5B1" points="105.737606 22.3787256 104.34965 21.9093095 103.858561 21.0119605 97.0445633 21.0479855 95.659889 21.741193 93.2099122 22.5031754 95.8676995 33.3925377 103.979966 32.5497721 108.301331 25.4626803"></polygon>
                    <path d="M110.962291,60.5805735 C110.962291,60.5805735 113.171645,33.346797 111.092446,27.7192619 C108.992466,26.4987799 106.112649,22.5818845 106.112649,22.5818845 C106.112649,22.5818845 102.472684,22.5120179 99.3194324,22.5120179 C96.3378982,22.5120179 93.3673014,22.6397428 93.3673014,22.6397428 L88.5898467,26.5828382 L87.3736082,39.4950565 L87.1078295,63.0870373 L110.99729,63.0870373 L110.962291,60.5805735 Z" id="Fill-69" fill="#2E64FF"></path>
                    <polygon id="Fill-70" fill="#FCB5B1" points="106.19107 5.36621209 94.1686844 5.28652052 94.1063412 12.1814791 105.637638 10.315823 107.626057 8.43597518"></polygon>
                    <path d="M96.9759859,12.1816975 C96.9759859,12.1816975 97.4342628,12.1194725 97.58848,12.1183809 C97.7426973,12.1161976 98.2031617,12.1653225 98.2031617,12.1653225 C98.3223793,12.1631392 98.4197221,12.0583393 98.4186375,11.9306144 C98.4164409,11.8007063 98.3180044,11.6282231 97.5830113,11.6380481 C96.8895804,11.6467814 96.752863,11.8236312 96.7550504,11.9513561 C96.7561442,12.0790809 96.8556745,12.1827891 96.9759859,12.1816975" id="Fill-71" fill="#263166"></path>
                    <path d="M104.095465,12.1816975 C104.095465,12.1816975 103.637188,12.1194725 103.481877,12.1183809 C103.328754,12.1161976 102.868289,12.1653225 102.868289,12.1653225 C102.749072,12.1631392 102.651729,12.0583393 102.652813,11.9306144 C102.65501,11.8007063 102.753447,11.6282231 103.48844,11.6380481 C104.181871,11.6467814 104.318588,11.8236312 104.316401,11.9513561 C104.315307,12.0790809 104.215777,12.1827891 104.095465,12.1816975" id="Fill-72" fill="#263166"></path>
                    <path d="M92.0386265,12.6454369 C92.0386265,13.6847024 92.8545562,14.5263764 93.8607967,14.5263764 C94.8659434,14.5263764 95.6818731,13.6847024 95.6818731,12.6454369 C95.6818731,11.6072631 94.8659434,10.7644975 93.8607967,10.7644975 C92.8545562,10.7644975 92.0386265,11.6072631 92.0386265,12.6454369" id="Fill-73" fill="#FCB5B1"></path>
                    <path d="M105.302407,12.6454369 C105.302407,13.6847024 106.118337,14.5263764 107.123483,14.5263764 C108.129724,14.5263764 108.94456,13.6847024 108.94456,12.6454369 C108.94456,11.6072631 108.129724,10.7644975 107.123483,10.7644975 C106.118337,10.7644975 105.302407,11.6072631 105.302407,12.6454369" id="Fill-74" fill="#FCB5B1"></path>
                    <path d="M100.464468,21.2561661 L100.464468,21.2561661 C103.855061,21.2561661 106.628785,18.4877026 106.628785,15.1024482 L106.628785,10.8875282 C106.628785,7.50336543 103.855061,4.73381033 100.464468,4.73381033 C97.0727818,4.73381033 94.2990581,7.50336543 94.2990581,10.8875282 L94.2990581,15.1024482 C94.2990581,18.4877026 97.0727818,21.2561661 100.464468,21.2561661" id="Fill-75" fill="#FCB5B1"></path>
                    <path d="M99.6899913,19.9533726 C98.1434435,19.8420227 94.9190991,19.2852734 94.2989488,16.8967095 C93.533331,13.9470296 93.7389541,14.0583795 93.8603592,12.3772147 C93.9817643,10.69605 92.9427116,7.27040404 94.1294191,6.13179703 C95.3161266,4.99428169 98.0865691,4.1264077 102.666057,4.68424872 C107.244451,5.24099807 108.682718,7.20272078 106.824455,10.2441006 C106.731487,12.1981816 107.544136,12.0944734 106.254617,17.4370838 C105.912276,18.434866 104.607445,20.3037972 99.6899913,19.9533726" id="Fill-76" fill="#263166"></path>
                    <path d="M106.604394,11.0686354 C106.604394,11.0686354 108.37844,9.07852943 107.891726,6.82096539 C107.405012,4.56449302 106.463302,4.37672658 106.463302,4.37672658 L103.912701,5.40507538 C103.912701,5.40507538 106.635019,8.76522146 106.604394,11.0686354" id="Fill-77" fill="#263166"></path>
                    <path d="M97.0651256,3.18178962 C97.0651256,3.18178962 94.0507792,3.17960631 92.9307899,4.73413783 C92.4593881,5.3880454 92.2997021,6.31705265 92.3007903,7.63578444 C92.3018896,11.1171054 94.3592138,11.5537715 94.3592138,11.5537715 C94.3592138,11.5537715 95.1423314,5.47428696 95.9429488,5.27014553 C96.7435662,5.06709577 97.0651256,3.18178962 97.0651256,3.18178962" id="Fill-78" fill="#263166"></path>
                    <path d="M95.7299977,5.43018368 C95.7299977,5.43018368 106.32396,9.69204538 107.582854,5.10705072 C108.842842,0.523147737 104.794912,-1.128542 100.697763,0.779689104 C96.6017082,2.68901188 94.5968834,2.85712835 94.3836042,3.78722726 C94.1692312,4.71841784 95.7299977,5.43018368 95.7299977,5.43018368" id="Fill-56备份" fill="#3B4575"></path>
                    <path d="M99.6899913,19.9533726 C98.1434435,19.8420227 94.9190991,19.2852734 94.2989488,16.8967095 C93.533331,13.9470296 93.7389541,14.0583795 93.8603592,12.3772147 C93.9817643,10.69605 92.9427116,7.27040404 94.1294191,6.13179703 C95.3161266,4.99428169 98.0865691,4.1264077 102.666057,4.68424872 C107.244451,5.24099807 108.682718,7.20272078 106.824455,10.2441006 C106.731487,12.1981816 107.544136,12.0944734 106.254617,17.4370838 C105.912276,18.434866 104.607445,20.3037972 99.6899913,19.9533726" id="Fill-76备份" fill="#3B4575"></path>
                    <path d="M106.604394,11.0686354 C106.604394,11.0686354 108.37844,9.07852943 107.891726,6.82096539 C107.405012,4.56449302 106.463302,4.37672658 106.463302,4.37672658 L103.912701,5.40507538 C103.912701,5.40507538 106.635019,8.76522146 106.604394,11.0686354" id="Fill-77备份" fill="#3B4575"></path>
                    <path d="M97.0651256,3.18178962 C97.0651256,3.18178962 94.0507792,3.17960631 92.9307899,4.73413783 C92.4593881,5.3880454 92.2997021,6.31705265 92.3007903,7.63578444 C92.3018896,11.1171054 94.3592138,11.5537715 94.3592138,11.5537715 C94.3592138,11.5537715 95.1423314,5.47428696 95.9429488,5.27014553 C96.7435662,5.06709577 97.0651256,3.18178962 97.0651256,3.18178962" id="Fill-78备份" fill="#3B4575"></path>
                    <path d="M102.301513,26.3199652 C105.133205,25.7337408 105.61117,23.7327182 105.738043,22.3790531 C105.738043,22.3790531 111.948297,23.7250765 114.627959,26.7129647 C117.307621,29.7019445 123.001629,36.2617619 123.001629,36.2617619 L115.813573,42.8979958 L112.555322,39.1252002 C112.555322,39.1252002 113.11313,47.1936991 113.540782,51.565819 C113.840466,54.6224822 114.552491,63.0872556 114.552491,63.0872556 L105.38039,63.0872556 C104.836802,63.0872556 104.398212,62.6407645 104.412431,62.0982068 C104.668366,52.4751763 102.744478,29.3777199 102.301513,26.3199652" id="Fill-79" fill="#2E64FF"></path>
                    <path d="M96.9572829,26.3199652 C94.125591,25.7337408 93.6476268,23.7250765 93.5196593,22.3703198 C93.5196593,22.3703198 87.4898728,23.8953763 84.6308374,26.7129647 C81.3944619,29.902811 77.2590324,37.585952 77.2590324,37.585952 L84.1539669,43.1086872 L86.703474,39.1252002 C86.703474,39.1252002 86.2583219,44.5857105 86.0056681,47.301774 C85.5747347,51.931527 82.9935092,63.0872556 84.1047486,63.0872556 L94.4340256,63.0872556 C94.9798017,63.0872556 95.4183913,62.6396728 95.4019852,62.0949318 C95.1110504,52.4871846 96.5143184,29.3766283 96.9572829,26.3199652" id="Fill-80" fill="#2E64FF"></path>
                    <path d="M92.3334987,22.7145219 C92.3334987,22.7145219 101.540599,22.8586217 106.960079,22.6937802 L105.844464,22.4023056 C105.844464,22.4023056 103.565111,22.0562476 101.957314,22.051881 C97.910477,22.0365976 96.990642,21.9143311 93.7761412,22.3018723 L92.3334987,22.7145219 Z" id="Fill-81" fill="#E3EAF0"></path>
                    <path d="M25.4535084,62.0529027 L5.1154202,62.0529027 C2.29029076,62.0529027 0,59.7669553 0,56.9460919 L0,36.6476656 C0,33.8278939 2.29029076,31.5419466 5.1154202,31.5419466 L25.4535084,31.5419466 C28.2786379,31.5419466 30.5689286,33.8278939 30.5689286,36.6476656 L30.5689286,56.9460919 C30.5689286,59.7669553 28.2786379,62.0529027 25.4535084,62.0529027" id="Fill-82" fill="#2F3236"></path>
                    <path d="M25.1459488,48.439071 C25.1459488,53.874473 20.730522,58.2815262 15.2847924,58.2815262 C9.83796913,58.2815262 5.42254228,53.874473 5.42254228,48.439071 C5.42254228,43.003669 9.83796913,38.5955242 15.2847924,38.5955242 C20.730522,38.5955242 25.1459488,43.003669 25.1459488,48.439071" id="Fill-83" fill="#55585C"></path>
                    <path d="M13.5457464,47.8270834 C13.5457464,48.6873157 12.8468468,49.3848899 11.98498,49.3848899 C11.1242069,49.3848899 10.4242136,48.6873157 10.4242136,47.8270834 C10.4242136,46.9679427 11.1242069,46.2703686 11.98498,46.2703686 C12.8468468,46.2703686 13.5457464,46.9679427 13.5457464,47.8270834" id="Fill-84" fill="#2F3236"></path>
                    <path d="M20.1439494,47.8270834 C20.1439494,48.6873157 19.4450498,49.3848899 18.583183,49.3848899 C17.7224099,49.3848899 17.0235103,48.6873157 17.0235103,47.8270834 C17.0235103,46.9679427 17.7224099,46.2703686 18.583183,46.2703686 C19.4450498,46.2703686 20.1439494,46.9679427 20.1439494,47.8270834" id="Fill-85" fill="#2F3236"></path>
                    <line x1="15.2846831" y1="40.4722062" x2="15.2846831" y2="34.9713042" id="Stroke-86" stroke="#2F3236" stroke-width="2.2"></line>
                    <line x1="15.2846831" y1="61.9963544" x2="15.2846831" y2="55.6952617" id="Stroke-87" stroke="#2F3236" stroke-width="2.2"></line>
                </g>
            </g>
        </g>
    </g>
</svg>