<svg id="图层_1" data-name="图层 1" xmlns="http://www.w3.org/2000/svg" xmlns:xlink="http://www.w3.org/1999/xlink" viewBox="0 0 800 800"><defs><style>.cls-1,.cls-10,.cls-14,.cls-15,.cls-16,.cls-17,.cls-23,.cls-26,.cls-3,.cls-5,.cls-7,.cls-8{fill:none;}.cls-2{fill:#e3eaf0;}.cls-14,.cls-3,.cls-5,.cls-7,.cls-8{stroke:#c5d1df;}.cls-10,.cls-17,.cls-23,.cls-3,.cls-5,.cls-7,.cls-8{stroke-miterlimit:10;}.cls-3{stroke-width:1.32px;}.cls-4{fill:#c5d1df;}.cls-5{stroke-width:1.5px;}.cls-6{fill:#f3faff;}.cls-7{stroke-width:3px;}.cls-8{stroke-width:4px;}.cls-9{fill:#2e64ff;}.cls-10{stroke:#2e64ff;stroke-width:11.4px;}.cls-11{fill:#f9c152;}.cls-12{fill:#f2b5bc;}.cls-13{fill:#263166;}.cls-14,.cls-15,.cls-16,.cls-17,.cls-23,.cls-26{stroke-linecap:round;}.cls-14,.cls-15,.cls-16,.cls-26{stroke-linejoin:round;}.cls-14{stroke-width:0.36px;}.cls-15,.cls-16,.cls-26{stroke:#fff;}.cls-15{stroke-width:0.26px;}.cls-16,.cls-17{stroke-width:0.33px;}.cls-17{stroke:#f58b8d;}.cls-18{clip-path:url(#clip-path);}.cls-19{clip-path:url(#clip-path-2);}.cls-20{fill:#f58b8d;}.cls-21{fill:#fff;}.cls-22{clip-path:url(#clip-path-3);}.cls-23{stroke:#6bd6a5;}.cls-24{fill:#ace4b3;}.cls-25{fill:#6bd6a5;}.cls-26{stroke-width:0.68px;}</style><clipPath id="clip-path"><path class="cls-1" d="M581.32,570.43s1.32-2.58,4.46-.13,3.39,2.2,4.71,2v5s.06.91-.69,1.09-3,.91-5.6,1.52-8,.75-8.23-1.38a3.13,3.13,0,0,1,1.55-3.15A37.28,37.28,0,0,0,581.32,570.43Z"/></clipPath><clipPath id="clip-path-2"><path class="cls-1" d="M630.73,571.14a42.41,42.41,0,0,0,2.86,4.3,5.74,5.74,0,0,1,1.49,3.95c-.19,1.42-4.4,1.55-6.75,1.29s-6.63-1.68-6.68-2.62.07-5.47.07-5.47.34-.69,2-.17a2.19,2.19,0,0,0,1.74-.22c.32-.2,1.6-1.65,2.79-1.94S629.8,569.92,630.73,571.14Z"/></clipPath><clipPath id="clip-path-3"><path class="cls-1" d="M615.19,472.94c.79.09.95.42,3.56,1.2,1.07.31,1,1,.54,1.47s-1.72.89-3.44,0C614.59,474.9,614.67,472.88,615.19,472.94Z"/></clipPath></defs><path class="cls-2" d="M268.26,400.65l-.33-3.8,9.13-6.38-4.51-11.4-10.73,2-3-3.14,2.2-9.85-11.44-5.06-5.4,8.8H239.7l-5.51-9.13-11.67,4.51L224.67,378l-2.31,2.75-10.68-2.59-5.17,11.62,8.75,5.94.22,5.12-9,5.56,5,11.39,9.35-2.09,3.42,3.74-2.1,9.63,11.56,5.12,5.45-8.59,4.84.11L250.32,436l10.84-5.5-2.48-11.45,2.75-3.41,10.35,2.86L278.11,407Zm-25.95,9.2a10.47,10.47,0,1,1,10.47-10.47A10.47,10.47,0,0,1,242.31,409.85Z"/><circle class="cls-3" cx="242.31" cy="399.38" r="8.9"/><rect class="cls-2" x="260.97" y="353.78" width="310.24" height="227.22" rx="12.76"/><circle class="cls-4" cx="275.11" cy="364.01" r="3.17"/><circle class="cls-4" cx="287.17" cy="364.01" r="3.17"/><circle class="cls-4" cx="299.23" cy="364.01" r="3.17"/><rect class="cls-4" x="304.09" y="410.78" width="41.83" height="37.88" rx="4.33"/><rect class="cls-4" x="304.09" y="486.65" width="41.83" height="37.88" rx="4.33"/><line class="cls-5" x1="373.09" y1="414.71" x2="522.59" y2="414.71"/><line class="cls-5" x1="373.09" y1="424.71" x2="480.95" y2="424.71"/><line class="cls-5" x1="373.09" y1="434.71" x2="504.41" y2="434.71"/><line class="cls-5" x1="373.09" y1="444.71" x2="420.9" y2="444.71"/><line class="cls-5" x1="373.09" y1="489.4" x2="522.59" y2="489.4"/><line class="cls-5" x1="373.09" y1="499.4" x2="507.77" y2="499.4"/><line class="cls-5" x1="373.09" y1="509.4" x2="488.06" y2="509.4"/><line class="cls-5" x1="373.09" y1="519.4" x2="500.59" y2="519.4"/><rect class="cls-6" x="449.97" y="453.65" width="71.87" height="16.5" rx="8.25"/><rect class="cls-6" x="449.97" y="529.4" width="71.87" height="16.5" rx="8.25"/><line class="cls-7" x1="260.97" y1="374.53" x2="571.21" y2="374.53"/><polyline class="cls-5" points="320.84 359.15 315.09 364.01 320.84 368.65"/><polyline class="cls-5" points="325.97 359.15 331.72 364.01 325.97 368.65"/><line class="cls-8" x1="209.51" y1="581" x2="710.5" y2="581"/><path class="cls-9" d="M379.12,565.23H340V547.57l39.13-46.52h18.72v47.52h9.7v16.66h-9.7v14.45H379.12Zm0-16.66V524.24l-20.68,24.33Z"/><circle class="cls-10" cx="456.06" cy="540.39" r="34.41"/><line class="cls-10" x1="430.83" y1="564.19" x2="483.81" y2="519.74"/><path class="cls-9" d="M571,545.91a16.67,16.67,0,0,0-6-6.25,24.36,24.36,0,0,0-6.86-2.59,23.32,23.32,0,0,0,8.28-7.12,15.81,15.81,0,0,0,2.74-9.07,17.72,17.72,0,0,0-6.75-14.18q-6.75-5.64-21.88-5.65-13.18,0-20.38,5.17a24.58,24.58,0,0,0-9.73,14.87,27.79,27.79,0,0,0-.37,3.64h20.67q.84-5.75,3.22-8a8.48,8.48,0,0,1,6.17-2.29,7.83,7.83,0,0,1,5.8,2.11,7.63,7.63,0,0,1,2.11,5.64,8.49,8.49,0,0,1-2.83,6.38,9.8,9.8,0,0,1-7,2.69l-7.42,0L532.57,545l8.65,0a9.81,9.81,0,0,1,7.52,3c1.84,2,2.77,4.74,2.77,8.33a12.05,12.05,0,0,1-2.88,8.44,9.3,9.3,0,0,1-7.2,3.16,9.47,9.47,0,0,1-6.77-2.5q-2.67-2.5-3.93-9l-21.46,2.84a33.33,33.33,0,0,0,6,12,24.85,24.85,0,0,0,10,7.25Q531.41,581,542,581q10.81,0,17.46-3.35a23.6,23.6,0,0,0,10.17-9.54,25.75,25.75,0,0,0,3.54-13A18.79,18.79,0,0,0,571,545.91Z"/><polygon class="cls-11" points="467.76 505.98 496.86 465.56 480.22 465.56 486.24 432.59 462.86 476.07 477.36 475.97 467.76 505.98"/><path class="cls-2" d="M594.19,514.67s4.31-28.72,9-34.17a60.7,60.7,0,0,0,6.24-1.52l14.8,5.43,4.62,4.18-4,15-5.13,16.24-25.66-4Z"/><polygon class="cls-12" points="604.79 480.1 609.3 478.86 623.96 484.13 625.46 485.53 609.1 491.41 605.58 485.73 604.79 480.1"/><polygon class="cls-12" points="590.51 567.1 589.9 572.91 583.52 570 584.88 565.61 590.51 567.1"/><polygon class="cls-12" points="622.25 567.84 623.21 574.6 628.71 571.3 627.68 566.38 622.25 567.84"/><path class="cls-13" d="M594.29,512.91,581.35,565s8.13,3.4,13.66,2.31l10.9-38.7L617.57,569s9-.27,13.15-2.54L620.15,516S605.22,517.85,594.29,512.91Z"/><path class="cls-14" d="M592.56,521.94s4.68-1.27,5.31-5.68"/><path class="cls-14" d="M611.12,519.71s2.32,7.94,10.66,7.08"/><path class="cls-9" d="M607.13,520.53s4-29.22,6.85-33a33.63,33.63,0,0,0,7.58-1.14,27.58,27.58,0,0,1,3.59-1.11l3.59,3.22s-3.23-1-5.55,5.56.31,12.15,2.07,7.88a53.32,53.32,0,0,0-1.57,7.68c-.21,2.08-.14,10.71-.5,11.57s-2.09,1.32-4.94,1.23S608.32,522,607.13,520.53Z"/><path class="cls-14" d="M582.49,561.82s4,2.77,12.8,2.18"/><path class="cls-14" d="M617.43,565.45s7.58-.27,12-2.18"/><path class="cls-11" d="M581.32,570.43s1.32-2.58,4.46-.13,3.39,2.2,4.71,2v5s.06.91-.69,1.09-3,.91-5.6,1.52-8,.75-8.23-1.38a3.13,3.13,0,0,1,1.55-3.15A37.28,37.28,0,0,0,581.32,570.43Z"/><path class="cls-15" d="M579.26,574.5a4.11,4.11,0,0,1,3.45.8"/><path class="cls-15" d="M583.66,574.4a5.31,5.31,0,0,0-3.4-1"/><path class="cls-15" d="M584.47,573.73a5.28,5.28,0,0,0-3.48-1.21"/><path class="cls-15" d="M585.32,572.73a8,8,0,0,0-3.36-1.24"/><path class="cls-12" d="M582.52,470.48s2-4,3.7-2.63a2.15,2.15,0,0,1,.25,3.07s-1.53,2.42-1.47,3.75,1.77,6.78,2.41,7.08a7.08,7.08,0,0,0,3.14.08l.79,6.61L588.57,492a16.52,16.52,0,0,1-9.67-8.66c-2.93-6-4.63-7.64-4.63-7.64s-1.74-1.69-.92-3.08,1.68-1,1.68-1a1.61,1.61,0,0,1,.36-1.66c.84-.8,1.52-.43,1.52-.43s.57-2,1.94-1.7C580.38,468.13,581,468.33,582.52,470.48Z"/><path class="cls-2" d="M602.46,480l-13.12,1.29a12,12,0,0,1-1,10.87s.61,1.84,9.84-.43Z"/><path class="cls-11" d="M630.73,571.14a42.41,42.41,0,0,0,2.86,4.3,5.74,5.74,0,0,1,1.49,3.95c-.19,1.42-4.4,1.55-6.75,1.29s-6.63-1.68-6.68-2.62.07-5.47.07-5.47.34-.69,2-.17a2.19,2.19,0,0,0,1.74-.22c.32-.2,1.6-1.65,2.79-1.94S629.8,569.92,630.73,571.14Z"/><path class="cls-15" d="M632.75,575.1s-2.67-.45-4,.79"/><path class="cls-15" d="M628.48,574.93a4,4,0,0,1,3.37-.72"/><path class="cls-15" d="M628.23,574.09a4.13,4.13,0,0,1,3.08-.7"/><path class="cls-16" d="M628.07,572.84a4.43,4.43,0,0,1,3.53-.84"/><path class="cls-2" d="M623.85,499.14l6.28,8.12a8.3,8.3,0,0,1,3.28-6.21c3.2-2.21,4.65-1.25,4.65-1.25l-9.34-11.35S623.24,491.24,623.85,499.14Z"/><path class="cls-17" d="M575.61,472s2.55,1.18,3,2.54-1.48,1.82-1.48,1.82"/><path class="cls-17" d="M577.38,469.73s2.65,1.15,3,2.14.3,1.63-1.27,2.44"/><path class="cls-17" d="M580.74,472.21a1.42,1.42,0,0,0,1.59-1.27"/><path class="cls-9" d="M592.56,517.44s5.49-34,9.9-37.43l5.43-.73s-3.35,2.54.37,6.54c0,0-7.57,19.28-8.21,31.9,0,1.36-.36,2.31-3.18,1.45A22.52,22.52,0,0,1,592.56,517.44Z"/><path class="cls-14" d="M598.23,518.39s3.6-24.95,8.9-32.66"/><g class="cls-18"><path class="cls-13" d="M576.27,578.65a3.28,3.28,0,0,1,1.57-.48c.79,0,3.08,1.4,5.37,1s6.17-2.48,6.92-2.28c.29.08.9.3,1,.56.42.87-1.58,3.26-1.58,3.26l-13,.55-1.05-2Z"/></g><g class="cls-19"><path class="cls-13" d="M622.19,577.4a16.7,16.7,0,0,0,7.17,2.51c1.16.12,2.29-.91,3.32-1.19a4.55,4.55,0,0,1,2.28.15l1.18.53s-.74,3.2-.85,3.2-14.9-3.71-14.9-3.71l.74-2.22Z"/></g><path class="cls-12" d="M612.59,471.43a3,3,0,0,1,.36-3.78c.53-.56,1.63-.11,1.88.46Z"/><path class="cls-13" d="M612.87,484.31s7.74,3.16,10.13.41,2.29-5.93,3.08-7.79,4.6-5.53,4-7.39-3.12-4.29-8.29-6.18-7.57.86-7.25,5.11c-1,2.13-4.57,4.13-6.11,10.53C608.21,480.25,608.27,482.27,612.87,484.31Z"/><path class="cls-12" d="M612.89,471.18s2.57-7.62,6.74-7.5,8.29,3.68,6.43,8.58-3.2,4-3.82,3.27-2.3-3.46-4.57-3.88S612.59,472,612.89,471.18Z"/><ellipse class="cls-13" cx="617.47" cy="468.85" rx="0.57" ry="0.48" transform="matrix(0.55, -0.84, 0.84, 0.55, -112.94, 728.84)"/><ellipse class="cls-13" cx="620.68" cy="470.6" rx="0.57" ry="0.48" transform="matrix(0.55, -0.84, 0.84, 0.55, -112.94, 732.32)"/><path class="cls-13" d="M622.94,469.74s-.37-.48-.51-.62-.6-.52-.6-.52a.31.31,0,0,1,0-.42h0c.12-.11.38-.18,1,.5s.59.94.47,1.05h0A.29.29,0,0,1,622.94,469.74Z"/><path class="cls-13" d="M618.48,467.15s-.6,0-.8,0-.79.1-.79.1a.31.31,0,0,1-.3-.3h0c0-.16.11-.39,1.07-.43s1.09.19,1.09.36h0A.28.28,0,0,1,618.48,467.15Z"/><path class="cls-13" d="M626.69,467.71s-10,.27-9.63-3.88,4.2-4.27,7-1.45,4.37,3.56,4.26,4.39S626.69,467.71,626.69,467.71Z"/><circle class="cls-20" cx="618.1" cy="471.09" r="1.18"/><path class="cls-21" d="M615.19,472.94c.79.09.95.42,3.56,1.2,1.07.31,1,1,.54,1.47s-1.72.89-3.44,0C614.59,474.9,614.67,472.88,615.19,472.94Z"/><path class="cls-12" d="M627.86,472.94a2,2,0,0,1,1,3c-1.23,2.1-2,2.1-3.27,1.67A32.6,32.6,0,0,0,627.86,472.94Z"/><g class="cls-22"><ellipse class="cls-12" cx="615.89" cy="476.41" rx="1.94" ry="2.22" transform="translate(-25.01 918.62) rotate(-72.33)"/></g><path class="cls-4" d="M552.35,445.16l19.29,12.45a8.81,8.81,0,0,1,2.62,12.16l-3,4.7a8.83,8.83,0,0,1-12.16,2.62l-19.29-12.45a31.08,31.08,0,1,0,12.57-19.48Z"/><rect class="cls-4" x="606.55" y="467.69" width="16.9" height="63.41" rx="8.15" transform="translate(-138.1 745.28) rotate(-57.16)"/><path class="cls-12" d="M639.4,512.19c-3.57,1-9.38.07-13-1.21a2.48,2.48,0,0,1-1.69-3s-2-1-.88-2.28a1.8,1.8,0,0,1,.7-2.65,8.5,8.5,0,0,1,2.62-.95s-2.08-2.31-.41-3.43c1.16-.77,2.13.91,2.13.91s2.4,4.69,5.53,4.47c2.56-.19-1.24-3-1.24-3l3.77-2.65s5.45,4.86,5.72,8.14C642.78,508.42,643,511.21,639.4,512.19Z"/><line class="cls-23" x1="254.83" y1="520.48" x2="254.83" y2="544.48"/><path class="cls-24" d="M246.37,536s1.41-2.58,4.64,0a49.64,49.64,0,0,1,3.82,3.21S244.37,539.75,246.37,536Z"/><path class="cls-25" d="M261.65,534.81s2.57,2.22-6.82,4.45C255.52,537.36,259.34,532.55,261.65,534.81Z"/><path class="cls-25" d="M246.37,528.57s1.41-2.58,4.64,0a49.64,49.64,0,0,1,3.82,3.21S244.37,532.36,246.37,528.57Z"/><path class="cls-24" d="M247.28,514.41s1.64-1.29,4.19,2a20.32,20.32,0,0,1,3.36,7S243.77,516.86,247.28,514.41Z"/><path class="cls-24" d="M261.65,527.42s2.57,2.22-6.82,4.45C255.52,530,259.34,525.16,261.65,527.42Z"/><path class="cls-25" d="M262.23,512.11c1,.94,3.07,2.89-7.4,8.37C255.08,517.75,259,509.09,262.23,512.11Z"/><polygon class="cls-9" points="242.16 580.33 238.41 544.48 268.82 544.48 264.41 580.33 242.16 580.33"/><path class="cls-26" d="M240.15,553.4c3.52-.3,7.14,0,10.08-.53a106,106,0,0,1,17.19-2.11"/><path class="cls-26" d="M240.45,556.8c3.51-.31,7.51-.13,10-.31,12.93-.9,11.69.41,16.11.54"/></svg>