<?xml version="1.0" encoding="UTF-8"?>
<svg width="442px" height="245px" viewBox="0 0 442 245" version="1.1" xmlns="http://www.w3.org/2000/svg" xmlns:xlink="http://www.w3.org/1999/xlink">
    <title>A4448AC8-BE2B-4D46-82F6-59871D37B694</title>
    <defs>
        <polygon id="path-1" points="0 244.089 441.501 244.089 441.501 0 0 0"></polygon>
    </defs>
    <g id="数据展示" stroke="none" stroke-width="1" fill="none" fill-rule="evenodd">
        <g id="头像" transform="translate(-1927.000000, -1963.000000)">
            <g id="404" transform="translate(1927.000000, 1963.000000)">
                <path d="M263.6231,47.6434 C263.6231,47.6434 260.1851,37.9554 256.2481,37.9554 C252.3101,37.9554 249.4351,41.8314 249.4351,41.8314 C249.4351,41.8314 245.4981,29.0814 240.1851,29.0814 C234.8731,29.0814 230.3101,35.7054 230.3101,35.7054 C230.3101,35.7054 226.8101,25.6434 220.4351,25.6434 C214.0601,25.6434 212.3731,36.6434 212.3731,36.6434 C212.3731,36.6434 202.8101,27.7064 195.9981,34.5184 C189.1851,41.3314 194.3731,47.6434 194.3731,47.6434 L263.6231,47.6434 Z" id="Fill-1" fill="#4DD9FE"></path>
                <path d="M44.6184,72.6864 C44.6474,72.3964 44.6624,72.1014 44.6624,71.8034 C44.6624,66.9254 40.7084,62.9714 35.8314,62.9714 C33.9884,62.9714 32.2774,63.5374 30.8614,64.5024 C29.3734,60.1864 25.2784,57.0844 20.4564,57.0844 C14.3774,57.0844 9.4504,62.0114 9.4504,68.0904 C9.4504,68.9444 9.5504,69.7744 9.7344,70.5724 C9.5224,70.5574 9.3094,70.5464 9.0934,70.5464 C4.0714,70.5464 0.0004,74.6184 0.0004,79.6404 C0.0004,84.5834 3.9444,88.6024 8.8574,88.7284 L41.1724,88.7304 C41.9294,88.9584 42.7304,89.0824 43.5614,89.0824 C48.1084,89.0824 51.7944,85.3974 51.7944,80.8504 C51.7944,76.6614 48.6654,73.2064 44.6184,72.6864" id="Fill-3" fill="#4DD9FE"></path>
                <mask id="mask-2" fill="white">
                    <use xlink:href="#path-1"></use>
                </mask>
                <g id="Clip-6"></g>
                <polygon id="Fill-5" fill="#C5D1DF" mask="url(#mask-2)" points="277.76 242.089 355.26 242.089 355.26 49.843 277.76 49.843"></polygon>
                <polygon id="Fill-7" fill="#C5D1DF" mask="url(#mask-2)" points="45.719 242.089 110.272 242.089 110.272 49.843 45.719 49.843"></polygon>
                <polygon id="Fill-8" fill="#C5D1DF" mask="url(#mask-2)" points="179.029 242.089 256.529 242.089 256.529 113.39 179.029 113.39"></polygon>
                <polygon id="Fill-9" fill="#E3EAF0" mask="url(#mask-2)" points="236.968 242.089 314.468 242.089 314.468 0 236.968 0"></polygon>
                <polygon id="Fill-10" fill="#C5D1DF" mask="url(#mask-2)" points="254.28 46.64 297.155 46.64 297.155 38.221 254.28 38.221"></polygon>
                <polygon id="Fill-11" fill="#C5D1DF" mask="url(#mask-2)" points="254.28 68.89 297.155 68.89 297.155 60.471 254.28 60.471"></polygon>
                <polygon id="Fill-12" fill="#C5D1DF" mask="url(#mask-2)" points="254.28 91.14 297.155 91.14 297.155 82.721 254.28 82.721"></polygon>
                <polygon id="Fill-13" fill="#C5D1DF" mask="url(#mask-2)" points="254.28 113.39 297.155 113.39 297.155 104.971 254.28 104.971"></polygon>
                <polygon id="Fill-14" fill="#C5D1DF" mask="url(#mask-2)" points="254.28 135.64 297.155 135.64 297.155 127.221 254.28 127.221"></polygon>
                <polygon id="Fill-15" fill="#C5D1DF" mask="url(#mask-2)" points="254.28 157.89 297.155 157.89 297.155 149.471 254.28 149.471"></polygon>
                <polygon id="Fill-16" fill="#C5D1DF" mask="url(#mask-2)" points="254.28 180.14 297.155 180.14 297.155 171.721 254.28 171.721"></polygon>
                <polygon id="Fill-17" fill="#C5D1DF" mask="url(#mask-2)" points="254.28 202.39 297.155 202.39 297.155 193.971 254.28 193.971"></polygon>
                <line x1="0.5147" y1="242.0887" x2="441.5007" y2="242.0887" id="Stroke-18" stroke="#C5D1DF" stroke-width="4" mask="url(#mask-2)"></line>
                <path d="M128.3508,208.9217 L128.3508,184.5927 L107.6758,208.9217 L128.3508,208.9217 Z M128.3508,225.5857 L89.2218,225.5857 L89.2218,207.9197 L128.3508,161.4077 L147.0718,161.4077 L147.0718,208.9217 L156.7748,208.9217 L156.7748,225.5857 L147.0718,225.5857 L147.0718,240.0347 L128.3508,240.0347 L128.3508,225.5857 Z" id="Fill-19" fill="#2E64FF" mask="url(#mask-2)"></path>
                <path d="M296.9739,195.8768 L293.0499,171.8658 L276.5689,199.2118 L296.9739,195.8768 Z M299.6619,212.3228 L261.0449,218.6338 L258.1959,201.1988 L289.3109,148.9848 L307.7869,145.9658 L315.4499,192.8568 L325.0259,191.2928 L327.7129,207.7378 L318.1369,209.3038 L320.4669,223.5638 L301.9919,226.5828 L299.6619,212.3228 Z" id="Fill-20" fill="#2E64FF" mask="url(#mask-2)"></path>
                <path d="M219.836,177.5829 C230.792,188.5389 230.792,206.3019 219.836,217.2579 C208.88,228.2139 191.117,228.2139 180.161,217.2579 C169.205,206.3019 169.205,188.5389 180.161,177.5829 C191.117,166.6269 208.88,166.6269 219.836,177.5829 Z" id="Stroke-21" stroke="#2E64FF" stroke-width="15" mask="url(#mask-2)"></path>
                <line x1="219.836" y1="217.2577" x2="239.283" y2="236.7047" id="Stroke-22" stroke="#2E64FF" stroke-width="12" mask="url(#mask-2)"></line>
                <line x1="365.3899" y1="242.0887" x2="365.3899" y2="44.5887" id="Stroke-23" stroke="#2E64FF" stroke-width="3" mask="url(#mask-2)"></line>
                <line x1="381.1831" y1="242.0887" x2="381.1831" y2="85.2327" id="Stroke-24" stroke="#2E64FF" stroke-width="3" mask="url(#mask-2)"></line>
                <line x1="381.1831" y1="242.0887" x2="365.3901" y2="228.9887" id="Stroke-25" stroke="#2E64FF" stroke-width="3" mask="url(#mask-2)"></line>
                <line x1="365.3899" y1="228.9891" x2="381.1829" y2="216.3391" id="Stroke-26" stroke="#2E64FF" stroke-width="3" mask="url(#mask-2)"></line>
                <line x1="381.1831" y1="215.9462" x2="365.3901" y2="202.8462" id="Stroke-27" stroke="#2E64FF" stroke-width="3" mask="url(#mask-2)"></line>
                <line x1="365.3899" y1="202.8466" x2="381.1829" y2="190.1966" id="Stroke-28" stroke="#2E64FF" stroke-width="3" mask="url(#mask-2)"></line>
                <line x1="381.1831" y1="189.8036" x2="365.3901" y2="176.7026" id="Stroke-29" stroke="#2E64FF" stroke-width="3" mask="url(#mask-2)"></line>
                <line x1="365.3899" y1="176.703" x2="381.1829" y2="164.054" id="Stroke-30" stroke="#2E64FF" stroke-width="3" mask="url(#mask-2)"></line>
                <line x1="381.1831" y1="163.661" x2="365.3901" y2="150.56" id="Stroke-31" stroke="#2E64FF" stroke-width="3" mask="url(#mask-2)"></line>
                <line x1="365.3899" y1="150.5604" x2="381.1829" y2="137.9114" id="Stroke-32" stroke="#2E64FF" stroke-width="3" mask="url(#mask-2)"></line>
                <line x1="381.1831" y1="137.5175" x2="365.3901" y2="124.4175" id="Stroke-33" stroke="#2E64FF" stroke-width="3" mask="url(#mask-2)"></line>
                <line x1="365.3899" y1="124.4178" x2="381.1829" y2="111.7678" id="Stroke-34" stroke="#2E64FF" stroke-width="3" mask="url(#mask-2)"></line>
                <line x1="381.1831" y1="111.3749" x2="365.3901" y2="98.2749" id="Stroke-35" stroke="#2E64FF" stroke-width="3" mask="url(#mask-2)"></line>
                <line x1="365.3899" y1="98.2753" x2="381.1829" y2="85.6253" id="Stroke-36" stroke="#2E64FF" stroke-width="3" mask="url(#mask-2)"></line>
                <line x1="381.1831" y1="85.2323" x2="365.3901" y2="72.1323" id="Stroke-37" stroke="#2E64FF" stroke-width="3" mask="url(#mask-2)"></line>
                <line x1="400.1831" y1="85.4286" x2="305.9331" y2="85.4286" id="Stroke-38" stroke="#2E64FF" stroke-width="3" mask="url(#mask-2)"></line>
                <line x1="365.3899" y1="44.5887" x2="321.4329" y2="85.4287" id="Stroke-39" stroke="#2E64FF" stroke-width="3" mask="url(#mask-2)"></line>
                <path d="M305.9336,85.4286 C305.9336,87.3546 304.3726,88.9156 302.4456,88.9156 C300.5196,88.9156 298.9586,87.3546 298.9586,85.4286 C298.9586,83.5026 300.5196,81.9416 302.4456,81.9416 C304.3726,81.9416 305.9336,83.5026 305.9336,85.4286 Z" id="Stroke-40" stroke="#2E64FF" stroke-width="3" mask="url(#mask-2)"></path>
                <path d="M305.8448,156.6219 C305.8448,159.2819 303.6888,161.4379 301.0278,161.4379 C298.3678,161.4379 296.2108,159.2819 296.2108,156.6219 C296.2108,153.9619 298.3678,151.8059 301.0278,151.8059 C303.6888,151.8059 305.8448,153.9619 305.8448,156.6219" id="Fill-41" fill="#E3EAF0" mask="url(#mask-2)"></path>
                <line x1="302.4461" y1="88.9159" x2="302.4461" y2="155.7859" id="Stroke-42" stroke="#2E64FF" stroke-width="3" mask="url(#mask-2)"></line>
            </g>
        </g>
    </g>
</svg>