<?xml version="1.0" encoding="UTF-8"?>
<svg width="504px" height="231px" viewBox="0 0 504 231" version="1.1" xmlns="http://www.w3.org/2000/svg" xmlns:xlink="http://www.w3.org/1999/xlink">
    <title>3BE5C0D5-45AD-4B00-A996-C4D6891A6900</title>
    <defs>
        <polygon id="path-1" points="0 0.7283 71.5999 0.7283 71.5999 74.0343 0 74.0343"></polygon>
        <polygon id="path-3" points="0.4594 0.777 310.7004 0.777 310.7004 227.9997 0.4594 227.9997"></polygon>
        <path d="M5.812,1.429 C5.812,1.429 3.635,4.766 2.006,6.341 L2.006,6.341 C1.542,6.789 0.22,7.408 0.462,9.494 L0.462,9.494 C0.707,11.615 6.144,11.48 8.693,10.871 L8.693,10.871 C11.241,10.26 13.539,9.531 14.29,9.352 L14.29,9.352 C15.042,9.171 14.976,8.256 14.976,8.256 L14.976,8.256 L14.978,3.248 C13.66,3.498 13.408,3.749 10.272,1.298 L10.272,1.298 C9.262,0.51 8.44,0.242 7.79,0.242 L7.79,0.242 C6.421,0.243 5.812,1.429 5.812,1.429 L5.812,1.429 Z" id="path-5"></path>
        <path d="M6.736,0.257 C5.549,0.55 4.27,1.996 3.948,2.201 L3.948,2.201 C3.409,2.544 2.685,2.576 2.207,2.423 L2.207,2.423 C0.551,1.901 0.208,2.592 0.208,2.592 L0.208,2.592 C0.208,2.592 0.099,7.128 0.143,8.065 L0.143,8.065 C0.186,9.001 4.469,10.417 6.822,10.679 L6.822,10.679 C9.174,10.94 13.386,10.809 13.57,9.388 L13.57,9.388 C13.741,8.068 12.949,6.479 12.078,5.438 L12.078,5.438 C10.94,4.079 9.225,1.138 9.225,1.138 L9.225,1.138 C8.612,0.34 8.262,0.079 7.749,0.079 L7.749,0.079 C7.478,0.079 7.162,0.152 6.736,0.257 L6.736,0.257 Z" id="path-7"></path>
        <path d="M1.343,3.58 C3.062,4.504 4.324,4.057 4.776,3.607 L4.776,3.607 C5.228,3.158 5.313,2.454 4.245,2.137 L4.245,2.137 C1.63,1.361 1.466,1.033 0.676,0.939 L0.676,0.939 C0.669,0.938 0.661,0.938 0.654,0.938 L0.654,0.938 C0.163,0.938 0.096,2.909 1.343,3.58" id="path-9"></path>
    </defs>
    <g id="数据展示" stroke="none" stroke-width="1" fill="none" fill-rule="evenodd">
        <g id="头像" transform="translate(-1896.000000, -1222.000000)">
            <g id="403" transform="translate(1896.000000, 1222.000000)">
                <g id="编组" transform="translate(0.000000, 0.223000)">
                    <g transform="translate(0.000000, 9.000000)">
                        <mask id="mask-2" fill="white">
                            <use xlink:href="#path-1"></use>
                        </mask>
                        <g id="Clip-2"></g>
                        <path d="M35.7999,47.8513 C30.0169,47.8513 25.3299,43.1643 25.3299,37.3813 C25.3299,31.5983 30.0169,26.9113 35.7999,26.9113 C41.5829,26.9113 46.2699,31.5983 46.2699,37.3813 C46.2699,43.1643 41.5829,47.8513 35.7999,47.8513 L35.7999,47.8513 Z M61.7489,38.6473 L61.4179,34.8493 L70.5539,28.4653 L66.0409,17.0743 L55.3099,19.1103 L52.2829,15.9723 L54.4839,6.1223 L43.0369,1.0583 L37.6439,9.8643 L33.1859,9.8643 L27.6819,0.7283 L16.0149,5.2413 L18.1619,16.0283 L15.8499,18.7803 L5.1729,16.1933 L-0.0001,27.8053 L8.7509,33.7483 L8.9709,38.8673 L-0.0001,44.4253 L5.0079,55.8183 L14.3639,53.7263 L17.7759,57.4683 L15.6849,67.1003 L27.2419,72.2183 L32.6909,63.6323 L37.5339,63.7433 L43.8079,74.0343 L54.6489,68.5313 L52.1729,57.0833 L54.9239,53.6713 L65.2709,56.5343 L71.5999,44.9763 L61.7489,38.6473 Z" id="Fill-1" fill="#E3EAF0" mask="url(#mask-2)"></path>
                    </g>
                    <path d="M44.6995,46.3816 C44.6995,51.2966 40.7155,55.2806 35.7995,55.2806 C30.8845,55.2806 26.9005,51.2966 26.9005,46.3816 C26.9005,41.4666 30.8845,37.4816 35.7995,37.4816 C40.7155,37.4816 44.6995,41.4666 44.6995,46.3816 Z" id="Stroke-3" stroke="#C5D1DF" stroke-width="1.321"></path>
                    <g transform="translate(54.000000, 0.000000)">
                        <mask id="mask-4" fill="white">
                            <use xlink:href="#path-3"></use>
                        </mask>
                        <g id="Clip-6"></g>
                        <path d="M297.9444,227.9997 L13.2154,227.9997 C6.1994,227.9997 0.4594,222.2597 0.4594,215.2437 L0.4594,13.5327 C0.4594,6.5177 6.1994,0.7767 13.2154,0.7767 L297.9444,0.7767 C304.9604,0.7767 310.7004,6.5177 310.7004,13.5327 L310.7004,215.2437 C310.7004,222.2597 304.9604,227.9997 297.9444,227.9997" id="Fill-5" fill="#E3EAF0" mask="url(#mask-4)"></path>
                    </g>
                    <path d="M71.7716,11.0115 C71.7716,12.7635 70.3516,14.1835 68.5996,14.1835 C66.8476,14.1835 65.4276,12.7635 65.4276,11.0115 C65.4276,9.2595 66.8476,7.8395 68.5996,7.8395 C70.3516,7.8395 71.7716,9.2595 71.7716,11.0115" id="Fill-7" fill="#C5D1DF"></path>
                    <path d="M83.8341,11.0115 C83.8341,12.7635 82.4141,14.1835 80.6621,14.1835 C78.9101,14.1835 77.4901,12.7635 77.4901,11.0115 C77.4901,9.2595 78.9101,7.8395 80.6621,7.8395 C82.4141,7.8395 83.8341,9.2595 83.8341,11.0115" id="Fill-9" fill="#C5D1DF"></path>
                    <path d="M95.8966,11.0115 C95.8966,12.7635 94.4766,14.1835 92.7246,14.1835 C90.9726,14.1835 89.5526,12.7635 89.5526,11.0115 C89.5526,9.2595 90.9726,7.8395 92.7246,7.8395 C94.4766,7.8395 95.8966,9.2595 95.8966,11.0115" id="Fill-11" fill="#C5D1DF"></path>
                    <path d="M135.0831,95.6521 L101.9121,95.6521 C99.5221,95.6521 97.5841,93.7151 97.5841,91.3241 L97.5841,62.1051 C97.5841,59.7151 99.5221,57.7771 101.9121,57.7771 L135.0831,57.7771 C137.4731,57.7771 139.4111,59.7151 139.4111,62.1051 L139.4111,91.3241 C139.4111,93.7151 137.4731,95.6521 135.0831,95.6521" id="Fill-13" fill="#C5D1DF"></path>
                    <path d="M135.0831,171.5271 L101.9121,171.5271 C99.5221,171.5271 97.5841,169.5901 97.5841,167.1991 L97.5841,137.9801 C97.5841,135.5901 99.5221,133.6521 101.9121,133.6521 L135.0831,133.6521 C137.4731,133.6521 139.4111,135.5901 139.4111,137.9801 L139.4111,167.1991 C139.4111,169.5901 137.4731,171.5271 135.0831,171.5271" id="Fill-15" fill="#C5D1DF"></path>
                    <line x1="166.5841" y1="61.7146" x2="316.0841" y2="61.7146" id="Stroke-17" stroke="#C5D1DF" stroke-width="1.5"></line>
                    <line x1="166.5841" y1="71.7146" x2="274.4401" y2="71.7146" id="Stroke-19" stroke="#C5D1DF" stroke-width="1.5"></line>
                    <line x1="166.5841" y1="81.7146" x2="297.8981" y2="81.7146" id="Stroke-21" stroke="#C5D1DF" stroke-width="1.5"></line>
                    <line x1="166.5841" y1="91.7146" x2="214.3951" y2="91.7146" id="Stroke-23" stroke="#C5D1DF" stroke-width="1.5"></line>
                    <line x1="166.5841" y1="136.4021" x2="316.0841" y2="136.4021" id="Stroke-25" stroke="#C5D1DF" stroke-width="1.5"></line>
                    <line x1="166.5841" y1="146.4021" x2="301.2651" y2="146.4021" id="Stroke-27" stroke="#C5D1DF" stroke-width="1.5"></line>
                    <line x1="166.5841" y1="156.4021" x2="281.5531" y2="156.4021" id="Stroke-29" stroke="#C5D1DF" stroke-width="1.5"></line>
                    <line x1="166.5841" y1="166.4021" x2="294.0761" y2="166.4021" id="Stroke-31" stroke="#C5D1DF" stroke-width="1.5"></line>
                    <path d="M307.084,117.1521 L251.709,117.1521 C247.171,117.1521 243.459,113.4401 243.459,108.9021 C243.459,104.3651 247.171,100.6521 251.709,100.6521 L307.084,100.6521 C311.622,100.6521 315.334,104.3651 315.334,108.9021 C315.334,113.4401 311.622,117.1521 307.084,117.1521" id="Fill-33" fill="#F3FAFF"></path>
                    <path d="M307.084,192.9021 L251.709,192.9021 C247.171,192.9021 243.459,189.1901 243.459,184.6521 C243.459,180.1151 247.171,176.4021 251.709,176.4021 L307.084,176.4021 C311.622,176.4021 315.334,180.1151 315.334,184.6521 C315.334,189.1901 311.622,192.9021 307.084,192.9021" id="Fill-35" fill="#F3FAFF"></path>
                    <line x1="54.4591" y1="21.5271" x2="364.7001" y2="21.5271" id="Stroke-37" stroke="#C5D1DF" stroke-width="3"></line>
                    <polyline id="Stroke-39" stroke="#C5D1DF" stroke-width="1.5" points="114.3341 6.1521 108.5841 11.0111 114.3341 15.6521"></polyline>
                    <polyline id="Stroke-41" stroke="#C5D1DF" stroke-width="1.5" points="119.4591 6.1521 125.2091 11.0111 119.4591 15.6521"></polyline>
                    <line x1="3.0025" y1="227.9997" x2="503.9885" y2="227.9997" id="Stroke-43" stroke="#C5D1DF" stroke-width="4"></line>
                    <path d="M172.6087,195.5681 L172.6087,171.2391 L151.9337,195.5681 L172.6087,195.5681 Z M172.6087,212.2321 L133.4797,212.2321 L133.4797,194.5661 L172.6087,148.0541 L191.3297,148.0541 L191.3297,195.5681 L201.0327,195.5681 L201.0327,212.2321 L191.3297,212.2321 L191.3297,226.6811 L172.6087,226.6811 L172.6087,212.2321 Z" id="Fill-45" fill="#2E64FF"></path>
                    <path d="M283.962,187.3933 C283.962,206.3993 268.554,221.8063 249.548,221.8063 C230.542,221.8063 215.134,206.3993 215.134,187.3933 C215.134,168.3863 230.542,152.9793 249.548,152.9793 C268.554,152.9793 283.962,168.3863 283.962,187.3933 Z" id="Stroke-47" stroke="#2E64FF" stroke-width="11.4"></path>
                    <line x1="224.3228" y1="211.1892" x2="277.3008" y2="166.7352" id="Stroke-49" stroke="#2E64FF" stroke-width="11.4"></line>
                    <path d="M364.4827,192.905 C363.0587,190.321 361.0627,188.238 358.4977,186.656 C356.9157,185.672 354.6297,184.81 351.6417,184.072 C355.3337,182.033 358.0927,179.66 359.9207,176.953 C361.7487,174.246 362.6637,171.222 362.6637,167.883 C362.6637,162.187 360.4137,157.459 355.9137,153.697 C351.4127,149.935 344.1187,148.054 334.0287,148.054 C325.2397,148.054 318.4457,149.777 313.6467,153.222 C308.8477,156.668 305.4257,161.581 303.9177,168.093 C303.6497,169.248 303.5557,171.732 303.5557,171.732 L324.2197,171.732 C324.7817,167.9 325.8547,165.219 327.4367,163.69 C329.0187,162.161 331.0757,161.396 333.6067,161.396 C336.0667,161.396 338.0017,162.099 339.4077,163.506 C340.8127,164.912 341.5167,166.793 341.5167,169.148 C341.5167,171.609 340.5757,173.736 338.6957,175.529 C336.8147,177.322 334.4677,178.218 331.6557,178.218 L324.2357,178.242 L326.0627,192.017 C326.0627,192.017 333.1077,192.035 334.7137,192.035 C337.8787,192.035 340.3827,193.019 342.2287,194.988 C344.0747,196.957 344.9977,199.734 344.9977,203.32 C344.9977,206.836 344.0397,209.648 342.1237,211.758 C340.2067,213.867 337.8067,214.922 334.9247,214.922 C332.1827,214.922 329.9237,214.087 328.1487,212.417 C326.3737,210.747 325.0637,207.75 324.2197,203.426 L302.7567,206.273 C304.1627,211.09 306.1757,215.089 308.7947,218.27 C311.4137,221.452 314.7537,223.869 318.8147,225.521 C322.8757,227.174 328.4207,228 335.4527,228 C342.6587,228 348.4777,226.884 352.9077,224.651 C357.3367,222.419 360.7297,219.237 363.0857,215.106 C365.4397,210.975 366.6187,206.66 366.6187,202.16 C366.6187,198.574 365.9067,195.489 364.4827,192.905" id="Fill-51" fill="#2E64FF"></path>
                    <polygon id="Fill-53" fill="#F9C152" points="261.2542 152.9792 290.3452 112.5572 273.7072 112.5572 279.7302 79.5872 256.3552 123.0712 270.8492 122.9692"></polygon>
                    <path d="M387.6834,161.6716 C387.6834,161.6716 391.9944,132.9486 396.6674,127.5036 C399.5264,127.0096 402.9064,125.9836 402.9064,125.9836 L417.7104,131.4056 L422.3284,135.5926 L418.3074,150.5796 L413.1844,166.8206 L387.5244,162.8736 L387.6834,161.6716 Z" id="Fill-55" fill="#E3EAF0"></path>
                    <polygon id="Fill-57" fill="#F2B5BC" points="398.2859 127.0954 402.7929 125.8554 417.4469 131.1334 418.9509 132.5304 402.5859 138.4134 399.0729 132.7264"></polygon>
                    <polygon id="Fill-59" fill="#F2B5BC" points="384.0027 214.1023 383.3917 219.9103 377.0147 216.9983 378.3657 212.6073"></polygon>
                    <polygon id="Fill-61" fill="#F2B5BC" points="415.7403 214.8347 416.7023 221.5977 422.2023 218.2977 421.1663 213.3767"></polygon>
                    <path d="M387.7784,159.906 L374.8374,212.004 C374.8374,212.004 382.9684,215.4 388.5044,214.31 L399.4024,175.606 L411.0554,216.035 C411.0554,216.035 420.0394,215.762 424.2144,213.494 L413.6424,162.992 C413.6424,162.992 398.7134,164.852 387.7784,159.906" id="Fill-63" fill="#263166"></path>
                    <path d="M386.054,168.9353 C386.054,168.9353 390.728,167.6643 391.363,163.2633" id="Stroke-65" stroke="#C5D1DF" stroke-width="0.363" stroke-linecap="round" stroke-linejoin="round"></path>
                    <path d="M404.6124,166.7126 C404.6124,166.7126 406.9264,174.6526 415.2754,173.7906" id="Stroke-67" stroke="#C5D1DF" stroke-width="0.363" stroke-linecap="round" stroke-linejoin="round"></path>
                    <path d="M400.6241,167.529 C400.6241,167.529 404.6581,138.307 407.4711,134.496 C407.4711,134.496 412.3711,134.314 415.0491,133.362 C417.7261,132.409 418.6431,132.245 418.6431,132.245 L422.2311,135.473 C422.2311,135.473 418.9961,134.496 416.6821,141.03 C414.3681,147.564 416.9861,153.175 418.7551,148.911 C418.7551,148.911 417.5401,153.118 417.1811,156.593 C416.9671,158.671 417.0451,167.302 416.6821,168.165 C416.3191,169.026 414.5951,169.48 411.7361,169.389 C408.8781,169.299 401.8091,168.981 400.6241,167.529" id="Fill-69" fill="#2E64FF"></path>
                    <path d="M375.9808,208.8201 C375.9808,208.8201 379.9288,211.5891 388.7768,210.9991" id="Stroke-71" stroke="#C5D1DF" stroke-width="0.363" stroke-linecap="round" stroke-linejoin="round"></path>
                    <path d="M410.9195,212.4499 C410.9195,212.4499 418.4975,212.1789 422.9435,210.2719" id="Stroke-73" stroke="#C5D1DF" stroke-width="0.363" stroke-linecap="round" stroke-linejoin="round"></path>
                    <path d="M374.8121,217.4285 C374.8121,217.4285 376.1351,214.8485 379.2711,217.2985 C382.4081,219.7485 382.6601,219.4975 383.9781,219.2475 L383.9761,224.2565 C383.9761,224.2565 384.0411,225.1715 383.2901,225.3515 C382.5391,225.5315 380.2411,226.2605 377.6931,226.8705 C375.1441,227.4805 369.7081,227.6155 369.4621,225.4935 C369.2201,223.4075 370.5421,222.7885 371.0061,222.3405 C372.6351,220.7665 374.8121,217.4285 374.8121,217.4285" id="Fill-75" fill="#F9C152"></path>
                    <path d="M372.754,221.4958 C372.754,221.4958 374.518,220.9898 376.201,222.2968" id="Stroke-77" stroke="#FFFFFF" stroke-width="0.261" stroke-linecap="round" stroke-linejoin="round"></path>
                    <path d="M377.148,221.4001 C377.148,221.4001 375.694,220.2381 373.75,220.3851" id="Stroke-79" stroke="#FFFFFF" stroke-width="0.261" stroke-linecap="round" stroke-linejoin="round"></path>
                    <path d="M377.9649,220.7283 C377.9649,220.7283 376.6419,219.4873 374.4769,219.5193" id="Stroke-81" stroke="#FFFFFF" stroke-width="0.261" stroke-linecap="round" stroke-linejoin="round"></path>
                    <path d="M378.8143,219.7322 C378.8143,219.7322 377.5233,218.7852 375.4493,218.4912" id="Stroke-83" stroke="#FFFFFF" stroke-width="0.261" stroke-linecap="round" stroke-linejoin="round"></path>
                    <path d="M376.0113,117.4812 C376.0113,117.4812 378.0533,113.5202 379.7133,114.8472 C381.3743,116.1742 379.9593,117.9172 379.9593,117.9172 C379.9593,117.9172 378.4343,120.3392 378.4883,121.6732 C378.5433,123.0072 380.2583,128.4472 380.9013,128.7542 C381.8673,129.2172 384.0453,128.8302 384.0453,128.8302 L384.8333,135.4442 L382.0583,138.9582 C382.0583,138.9582 375.8303,137.3352 372.3933,130.3032 C369.4583,124.3002 367.7623,122.6632 367.7623,122.6632 C367.7623,122.6632 366.0193,120.9652 366.8363,119.5772 C367.6453,118.2022 368.5243,118.5432 368.5243,118.5432 C368.5243,118.5432 368.1543,117.5682 368.8783,116.8812 C369.7223,116.0832 370.4033,116.4462 370.4033,116.4462 C370.4033,116.4462 370.9673,114.4142 372.3423,114.7512 C373.8743,115.1262 374.4463,115.3302 376.0113,117.4812" id="Fill-85" fill="#F2B5BC"></path>
                    <path d="M395.9459,127.0095 L382.8319,128.3025 C382.8319,128.3025 385.3279,133.8155 381.7889,139.1695 C381.7889,139.1695 382.4019,141.0075 391.6349,138.7385 L395.9459,127.0095 Z" id="Fill-87" fill="#E3EAF0"></path>
                    <path d="M424.2249,218.1384 C424.2249,218.1384 425.9399,221.0784 427.0779,222.4384 C427.9489,223.4784 428.7419,225.0684 428.5699,226.3884 C428.3849,227.8094 424.1739,227.9404 421.8219,227.6784 C419.4699,227.4164 415.1859,226.0014 415.1429,225.0654 C415.0989,224.1284 415.2079,219.5924 415.2079,219.5924 C415.2079,219.5924 415.5509,218.9014 417.2059,219.4234 C417.6849,219.5754 418.4099,219.5434 418.9489,219.2004 C419.2699,218.9954 420.5489,217.5504 421.7359,217.2564 C422.9679,216.9514 423.2879,216.9194 424.2249,218.1384" id="Fill-89" fill="#F9C152"></path>
                    <path d="M426.2449,222.1033 C426.2449,222.1033 423.5659,221.6453 422.2809,222.8863" id="Stroke-91" stroke="#FFFFFF" stroke-width="0.261" stroke-linecap="round" stroke-linejoin="round"></path>
                    <path d="M421.9705,221.9285 C421.9705,221.9285 423.4245,220.7035 425.3355,221.2095" id="Stroke-93" stroke="#FFFFFF" stroke-width="0.261" stroke-linecap="round" stroke-linejoin="round"></path>
                    <path d="M421.7256,221.0876 C421.7256,221.0876 423.3266,219.9516 424.7966,220.3936" id="Stroke-95" stroke="#FFFFFF" stroke-width="0.261" stroke-linecap="round" stroke-linejoin="round"></path>
                    <path d="M421.563,219.8415 C421.563,219.8415 422.809,218.6785 425.095,219.0045" id="Stroke-97" stroke="#FFFFFF" stroke-width="0.327" stroke-linecap="round" stroke-linejoin="round"></path>
                    <path d="M417.3397,146.1404 L423.6167,154.2644 C423.6167,154.2644 423.6927,150.2554 426.8987,148.0474 C430.1057,145.8394 431.5497,146.7994 431.5497,146.7994 L422.2097,135.4484 C422.2097,135.4484 416.7347,138.2434 417.3397,146.1404" id="Fill-99" fill="#E3EAF0"></path>
                    <path d="M369.096,118.9656 C369.096,118.9656 371.655,120.1496 372.064,121.5106 C372.472,122.8716 370.58,123.3346 370.58,123.3346" id="Stroke-101" stroke="#F58B8D" stroke-width="0.327" stroke-linecap="round"></path>
                    <path d="M370.8655,116.7322 C370.8655,116.7322 373.5205,117.8762 373.8465,118.8702 C374.1735,119.8632 374.1465,120.5032 372.5805,121.3062" id="Stroke-103" stroke="#F58B8D" stroke-width="0.327" stroke-linecap="round"></path>
                    <path d="M374.2278,119.2097 C374.2278,119.2097 375.6438,119.3727 375.8208,117.9437" id="Stroke-105" stroke="#F58B8D" stroke-width="0.327" stroke-linecap="round"></path>
                    <path d="M386.054,164.4441 C386.054,164.4441 391.544,130.4131 395.946,127.0091 L401.377,126.2771 C401.377,126.2771 398.033,128.8241 401.754,132.8171 C401.754,132.8171 394.176,152.1011 393.541,164.7151 C393.495,166.0771 393.178,167.0301 390.365,166.1681 C387.551,165.3051 386.054,164.4441 386.054,164.4441" id="Fill-107" fill="#2E64FF"></path>
                    <path d="M391.7242,165.3904 C391.7242,165.3904 395.3202,140.4404 400.6242,132.7264" id="Stroke-109" stroke="#C5D1DF" stroke-width="0.363" stroke-linecap="round" stroke-linejoin="round"></path>
                </g>
                <g id="编组" transform="translate(369.000000, 216.223000)">
                    <mask id="mask-6" fill="white">
                        <use xlink:href="#path-5"></use>
                    </mask>
                    <g id="Clip-112"></g>
                    <path d="M0.7647,9.6511 C0.7647,9.6511 1.5487,9.1501 2.3327,9.1721 C3.1167,9.1931 5.4107,10.5651 7.7047,10.1301 C9.9997,9.6941 13.8757,7.6551 14.6217,7.8531 C14.9057,7.9291 15.5257,8.1491 15.6507,8.4111 C16.0687,9.2821 14.0747,11.6681 14.0747,11.6681 L1.0887,12.2231 L0.0377,10.1861 L0.7647,9.6511 Z" id="Fill-111" fill="#263166" mask="url(#mask-6)"></path>
                </g>
                <g id="编组" transform="translate(415.000000, 217.223000)">
                    <mask id="mask-8" fill="white">
                        <use xlink:href="#path-7"></use>
                    </mask>
                    <g id="Clip-114"></g>
                    <path d="M0.6817,7.3952 C2.1677,8.4902 5.2227,9.6492 7.8527,9.9112 C9.0147,10.0262 10.1397,8.9962 11.1687,8.7182 C12.1977,8.4402 13.4557,8.8652 13.4557,8.8652 L14.6287,9.4012 C14.6287,9.4012 13.8937,12.6032 13.7797,12.6032 C13.6647,12.6032 -1.1153,8.8952 -1.1153,8.8952 L-0.3833,6.6672 L0.6817,7.3952 Z" id="Fill-113" fill="#263166" mask="url(#mask-8)"></path>
                </g>
                <g id="编组" transform="translate(401.000000, 107.223000)">
                    <path d="M5.0765,11.4275 C5.0765,11.4275 3.6925,9.4605 5.4375,7.6495 C5.9725,7.0945 7.0695,7.5405 7.3255,8.1095 L5.0765,11.4275 Z" id="Fill-115" fill="#F2B5BC"></path>
                    <path d="M5.3597,24.3054 C5.3597,24.3054 13.1017,27.4664 15.4947,24.7164 C17.8877,21.9664 17.7807,18.7874 18.5657,16.9314 C19.3517,15.0744 23.1727,11.3954 22.5307,9.5384 C21.8877,7.6814 19.4127,5.2524 14.2397,3.3604 C9.0667,1.4674 6.6737,4.2174 6.9947,8.4664 C6.0307,10.5984 2.4197,12.6044 0.8837,18.9964 C0.7047,20.2464 0.7597,22.2694 5.3597,24.3054" id="Fill-117" fill="#263166"></path>
                    <path d="M5.3826,11.1765 C5.3826,11.1765 7.9556,3.5605 12.1206,3.6825 C16.2866,3.8045 20.4106,7.3585 18.5526,12.2585 C16.6946,17.1585 15.3466,16.2605 14.7346,15.5255 C14.1216,14.7895 12.4336,12.0745 10.1636,11.6455 C7.8936,11.2165 5.0766,11.9805 5.3826,11.1765" id="Fill-119" fill="#F2B5BC"></path>
                    <path d="M10.3577,9.113 C10.1847,9.377 9.8667,9.474 9.6467,9.33 C9.4277,9.186 9.3887,8.856 9.5617,8.592 C9.7337,8.328 10.0527,8.231 10.2727,8.375 C10.4917,8.518 10.5307,8.849 10.3577,9.113" id="Fill-121" fill="#263166"></path>
                    <path d="M13.5738,10.8591 C13.4008,11.1231 13.0828,11.2191 12.8628,11.0761 C12.6428,10.9321 12.6048,10.6011 12.7778,10.3381 C12.9498,10.0741 13.2678,9.9771 13.4878,10.1211 C13.7078,10.2641 13.7468,10.5951 13.5738,10.8591" id="Fill-123" fill="#263166"></path>
                    <path d="M15.4297,9.7419 C15.4297,9.7419 15.0637,9.2639 14.9247,9.1209 C14.7847,8.9769 14.3157,8.5989 14.3157,8.5989 C14.2067,8.4869 14.2157,8.3009 14.3357,8.1839 C14.4547,8.0669 14.7057,7.9989 15.3727,8.6829 C16.0017,9.3289 15.9647,9.6169 15.8457,9.7339 C15.7257,9.8499 15.5387,9.8539 15.4297,9.7419" id="Fill-125" fill="#263166"></path>
                    <path d="M10.9715,7.1531 C10.9715,7.1531 10.3715,7.1021 10.1715,7.1091 C9.9715,7.1161 9.3775,7.2091 9.3775,7.2091 C9.2205,7.2141 9.0885,7.0821 9.0825,6.9151 C9.0765,6.7481 9.1955,6.5161 10.1505,6.4831 C11.0505,6.4521 11.2395,6.6741 11.2445,6.8411 C11.2505,7.0071 11.1275,7.1481 10.9715,7.1531" id="Fill-127" fill="#263166"></path>
                    <path d="M19.179,7.7117 C19.179,7.7117 9.187,7.9837 9.555,3.8317 C9.922,-0.3193 13.748,-0.4423 16.524,2.3757 C19.301,5.1927 20.894,5.9417 20.785,6.7727 C20.676,7.6037 19.179,7.7117 19.179,7.7117" id="Fill-129" fill="#263166"></path>
                    <path d="M11.7762,11.0945 C11.7762,11.7485 11.2462,12.2795 10.5922,12.2795 C9.9382,12.2795 9.4072,11.7485 9.4072,11.0945 C9.4072,10.4405 9.9382,9.9095 10.5922,9.9095 C11.2462,9.9095 11.7762,10.4405 11.7762,11.0945" id="Fill-131" fill="#F58B8D"></path>
                    <path d="M7.6763,12.9392 C8.4663,13.0342 8.6293,13.3612 11.2453,14.1362 C12.3133,14.4542 12.2283,15.1582 11.7763,15.6072 C11.3243,16.0562 10.0623,16.5032 8.3433,15.5802 C7.0773,14.8992 7.1653,12.8772 7.6763,12.9392" id="Fill-133" fill="#FFFFFF"></path>
                    <path d="M20.3497,12.9372 C20.3497,12.9372 22.5547,13.8772 21.3297,15.9742 C20.1047,18.0712 19.3147,18.0712 18.0627,17.6352 C18.0627,17.6352 19.6957,14.8552 20.3497,12.9372" id="Fill-135" fill="#F2B5BC"></path>
                </g>
                <g id="编组" transform="translate(408.000000, 119.223000)">
                    <mask id="mask-10" fill="white">
                        <use xlink:href="#path-9"></use>
                    </mask>
                    <g id="Clip-138"></g>
                    <path d="M3.4874,5.0857 C3.1624,6.1067 1.9534,6.6337 0.7874,6.2617 C-0.3786,5.8907 -1.0596,4.7617 -0.7346,3.7407 C-0.4096,2.7207 0.7994,2.1927 1.9654,2.5647 C3.1314,2.9367 3.8124,4.0647 3.4874,5.0857" id="Fill-137" fill="#F2B5BC" mask="url(#mask-10)"></path>
                </g>
                <g id="编组" transform="translate(31.000000, 86.223000)">
                    <path d="M314.8399,6.1599 L334.1329,18.6129 C338.1969,21.2359 339.3759,26.7089 336.7529,30.7729 L333.7219,35.4679 C331.0989,39.5319 325.6269,40.7119 321.5619,38.0879 L302.2699,25.6359 C299.9349,37.7259 304.9499,50.5669 315.9299,57.6539 C330.3539,66.9639 349.5929,62.8179 358.9029,48.3949 C368.2119,33.9719 364.0669,14.7329 349.6429,5.4229 C338.6629,-1.6641 324.8969,-0.9461 314.8399,6.1599" id="Fill-139" fill="#C5D1DF"></path>
                    <path d="M404.2923,77.3308 L403.9623,77.8418 C401.5323,81.6068 396.4633,82.6988 392.6983,80.2688 L353.1133,54.7178 C349.3483,52.2878 348.2553,47.2188 350.6863,43.4538 L351.0153,42.9428 C353.4463,39.1778 358.5143,38.0858 362.2793,40.5158 L401.8653,66.0668 C405.6303,68.4968 406.7223,73.5658 404.2923,77.3308" id="Fill-141" fill="#C5D1DF"></path>
                    <path d="M401.8929,73.1941 C398.3199,74.1831 392.5159,73.2601 388.8619,71.9751 C387.4579,71.5961 386.7909,70.0241 387.1739,68.9441 C387.1739,68.9441 385.1589,67.9601 386.2929,66.6631 C386.2929,66.6631 385.2009,64.8851 386.9869,64.0061 C388.7729,63.1281 389.6119,63.0581 389.6119,63.0581 C389.6119,63.0581 387.5319,60.7541 389.2049,59.6311 C390.3619,58.8561 391.3289,60.5381 391.3289,60.5381 C391.3289,60.5381 393.7339,65.2301 396.8619,65.0061 C399.4239,64.8231 395.6229,62.0381 395.6229,62.0381 L399.3919,59.3921 C399.3919,59.3921 404.8409,64.2511 405.1119,67.5271 C405.2679,69.4181 405.4669,72.2051 401.8929,73.1941" id="Fill-143" fill="#F2B5BC"></path>
                    <line x1="17.3158" y1="81.4802" x2="17.3158" y2="105.4802" id="Stroke-145" stroke="#6BD6A5" stroke-linecap="round"></line>
                    <path d="M8.8575,96.9587 C8.8575,96.9587 10.2745,94.3757 13.5035,96.9587 C16.7325,99.5427 17.3155,100.1677 17.3155,100.1677 C17.3155,100.1677 6.8575,100.7507 8.8575,96.9587" id="Fill-147" fill="#ACE4B3"></path>
                    <path d="M24.1387,95.8113 C24.1387,95.8113 26.7117,98.0273 17.3157,100.2553 C18.0107,98.3593 21.8257,93.5523 24.1387,95.8113" id="Fill-149" fill="#6BD6A5"></path>
                    <path d="M8.8575,89.5701 C8.8575,89.5701 10.2745,86.9871 13.5035,89.5701 C16.7325,92.1541 17.3155,92.7791 17.3155,92.7791 C17.3155,92.7791 6.8575,93.3621 8.8575,89.5701" id="Fill-151" fill="#6BD6A5"></path>
                    <path d="M9.774,75.407 C9.774,75.407 11.41,74.121 13.961,77.376 C16.412,80.503 17.316,84.345 17.316,84.345 C17.316,84.345 6.256,77.856 9.774,75.407" id="Fill-153" fill="#ACE4B3"></path>
                    <path d="M24.1387,88.4226 C24.1387,88.4226 26.7117,90.6386 17.3157,92.8666 C18.0107,90.9706 21.8257,86.1636 24.1387,88.4226" id="Fill-155" fill="#ACE4B3"></path>
                    <path d="M24.722,73.1052 C25.753,74.0522 27.791,76.0012 17.316,81.4802 C17.571,78.7512 21.446,70.0932 24.722,73.1052" id="Fill-157" fill="#6BD6A5"></path>
                    <polygon id="Fill-159" fill="#2E64FF" points="4.649 141.3269 0.899 105.4799 31.316 105.4799 26.899 141.3269"></polygon>
                    <path d="M2.6446,114.3992 C6.1616,114.0952 9.7816,114.3992 12.7196,113.8712 C18.0936,112.9032 23.8006,111.8712 29.9146,111.7572" id="Stroke-161" stroke="#FFFFFF" stroke-width="0.678" stroke-linecap="round" stroke-linejoin="round"></path>
                    <path d="M2.9383,117.7966 C6.4553,117.4916 10.4493,117.6666 12.9813,117.4906 C25.9103,116.5936 24.6743,117.8976 29.0943,118.0326" id="Stroke-163" stroke="#FFFFFF" stroke-width="0.678" stroke-linecap="round" stroke-linejoin="round"></path>
                </g>
            </g>
        </g>
    </g>
</svg>