<?xml version="1.0" encoding="UTF-8"?>
<svg width="484px" height="268px" viewBox="0 0 484 268" version="1.1" xmlns="http://www.w3.org/2000/svg" xmlns:xlink="http://www.w3.org/1999/xlink">
    <title>web端异常-404</title>
    <g id="空状态插画-暗色" stroke="none" stroke-width="1" fill="none" fill-rule="evenodd">
        <g id="web端异常-404" transform="translate(-179.000000, -311.000000)">
            <g transform="translate(179.000000, 311.220453)" id="编组">
                <path d="M288.999087,52.1991292 C288.999087,52.1991292 285.23014,41.5850386 280.914159,41.5850386 C276.598177,41.5850386 273.446426,45.8315513 273.446426,45.8315513 C273.446426,45.8315513 269.130444,31.8627595 263.306007,31.8627595 C257.482666,31.8627595 252.480424,39.1199577 252.480424,39.1199577 C252.480424,39.1199577 248.643509,28.0961158 241.654842,28.0961158 C234.666175,28.0961158 232.816782,40.1476225 232.816782,40.1476225 C232.816782,40.1476225 222.333233,30.3563211 214.8655,37.8194905 C207.39667,45.2837556 213.084075,52.1991292 213.084075,52.1991292 L288.999087,52.1991292 Z" id="Fill-1" fill="#4DD9FE"></path>
                <path d="M48.9129956,79.6360276 C48.9447872,79.3183061 48.9612311,78.9951066 48.9612311,78.6675247 C48.9612311,73.3243249 44.6266131,68.992356 39.2801458,68.992356 C37.2597358,68.992356 35.3840324,69.6124608 33.8317261,70.6697066 C32.200489,65.9411337 27.7112982,62.5415132 22.4251252,62.5415132 C15.7609516,62.5415132 10.3596712,67.9405882 10.3596712,74.600689 C10.3596712,75.5363242 10.4692973,76.4445695 10.6710094,77.3188516 C10.438602,77.3024177 10.2050983,77.2914618 9.96940207,77.2914618 C4.46288056,77.2914618 0,81.7527104 0,87.2547711 C0,92.6691843 4.32365535,97.0734622 9.7095881,97.2115068 L45.1363747,97.213698 C45.9651484,97.4634928 46.8432539,97.5993462 47.7542472,97.5993462 C52.7389482,97.5993462 56.7797681,93.5620914 56.7797681,88.5793412 C56.7797681,83.9910039 53.3495659,80.2057352 48.9129956,79.6360276" id="Fill-3" fill="#4DD9FE"></path>
                <path d="M288.999087,52.1991292 C288.999087,52.1991292 285.23014,41.5850386 280.914159,41.5850386 C276.598177,41.5850386 273.446426,45.8315513 273.446426,45.8315513 C273.446426,45.8315513 269.130444,31.8627595 263.306007,31.8627595 C257.482666,31.8627595 252.480424,39.1199577 252.480424,39.1199577 C252.480424,39.1199577 248.643509,28.0961158 241.654842,28.0961158 C234.666175,28.0961158 232.816782,40.1476225 232.816782,40.1476225 C232.816782,40.1476225 222.333233,30.3563211 214.8655,37.8194905 C207.39667,45.2837556 213.084075,52.1991292 213.084075,52.1991292 L288.999087,52.1991292 Z" id="Fill-1备份" fill="#FFFFFF" opacity="0.199999988"></path>
                <path d="M48.9129956,79.6360276 C48.9447872,79.3183061 48.9612311,78.9951066 48.9612311,78.6675247 C48.9612311,73.3243249 44.6266131,68.992356 39.2801458,68.992356 C37.2597358,68.992356 35.3840324,69.6124608 33.8317261,70.6697066 C32.200489,65.9411337 27.7112982,62.5415132 22.4251252,62.5415132 C15.7609516,62.5415132 10.3596712,67.9405882 10.3596712,74.600689 C10.3596712,75.5363242 10.4692973,76.4445695 10.6710094,77.3188516 C10.438602,77.3024177 10.2050983,77.2914618 9.96940207,77.2914618 C4.46288056,77.2914618 0,81.7527104 0,87.2547711 C0,92.6691843 4.32365535,97.0734622 9.7095881,97.2115068 L45.1363747,97.213698 C45.9651484,97.4634928 46.8432539,97.5993462 47.7542472,97.5993462 C52.7389482,97.5993462 56.7797681,93.5620914 56.7797681,88.5793412 C56.7797681,83.9910039 53.3495659,80.2057352 48.9129956,79.6360276" id="Fill-3备份" fill="#FFFFFF" opacity="0.199999988"></path>
                <polygon id="Fill-5" fill="#333539" points="304.496169 265.231751 389.456435 265.231751 389.456435 54.6086637 304.496169 54.6086637"></polygon>
                <polygon id="Fill-7" fill="#333539" points="50.1207469 265.231751 120.887715 265.231751 120.887715 54.6086637 50.1207469 54.6086637"></polygon>
                <polygon id="Fill-8" fill="#333539" points="196.262271 265.231751 281.222537 265.231751 281.222537 124.230218 196.262271 124.230218"></polygon>
                <polygon id="Fill-9" fill="#3E4246" points="259.778566 265.231751 344.737736 265.231751 344.737736 0 259.778566 0"></polygon>
                <path d="M278.757045,51.099484 L325.759257,51.099484 L325.759257,41.875699 L278.757045,41.875699 L278.757045,51.099484 Z M278.757045,75.4763953 L325.759257,75.4763953 L325.759257,66.2526103 L278.757045,66.2526103 L278.757045,75.4763953 Z M278.757045,99.8533066 L325.759257,99.8533066 L325.759257,90.6295216 L278.757045,90.6295216 L278.757045,99.8533066 Z M278.757045,124.230218 L325.759257,124.230218 L325.759257,115.006433 L278.757045,115.006433 L278.757045,124.230218 Z M278.757045,148.607129 L325.759257,148.607129 L325.759257,139.383344 L278.757045,139.383344 L278.757045,148.607129 Z M278.757045,172.98404 L325.759257,172.98404 L325.759257,163.760255 L278.757045,163.760255 L278.757045,172.98404 Z M278.757045,197.360952 L325.759257,197.360952 L325.759257,188.137167 L278.757045,188.137167 L278.757045,197.360952 Z M278.757045,221.737863 L325.759257,221.737863 L325.759257,212.514078 L278.757045,212.514078 L278.757045,221.737863 Z" id="形状结合" fill="#292C2F"></path>
                <line x1="0.564026541" y1="265.231751" x2="484" y2="265.231751" id="Stroke-18" stroke="#333539" stroke-width="4"></line>
                <path d="M140.705602,228.894267 L140.705602,202.238525 L118.040395,228.894267 L140.705602,228.894267 Z M140.705602,247.151204 L97.8099857,247.151204 L97.8099857,227.796484 L140.705602,176.838331 L161.228713,176.838331 L161.228713,228.894267 L171.865739,228.894267 L171.865739,247.151204 L161.228713,247.151204 L161.228713,262.981406 L140.705602,262.981406 L140.705602,247.151204 Z" id="Fill-19" fill="#2E64FF"></path>
                <path d="M325.561053,214.602385 L321.259323,188.295042 L303.191837,218.255087 L325.561053,214.602385 Z M328.507804,232.619388 L286.172377,239.533666 L283.050224,220.432028 L317.160401,163.227908 L337.414928,159.920317 L345.81558,211.293699 L356.31338,209.580194 L359.259035,227.597196 L348.761235,229.312892 L351.315524,244.936027 L331.062093,248.243618 L328.507804,232.619388 Z" id="Fill-20" fill="#2E64FF"></path>
                <path d="M240.997414,194.558648 C253.008055,206.561948 253.008055,226.024036 240.997414,238.027337 C228.986773,250.030638 209.51388,250.030638 197.503239,238.027337 C185.492598,226.024036 185.492598,206.561948 197.503239,194.558648 C209.51388,182.556443 228.986773,182.556443 240.997414,194.558648 Z" id="Stroke-21" stroke="#2E64FF" stroke-width="15"></path>
                <line x1="240.997414" y1="238.027008" x2="262.316411" y2="259.332976" id="Stroke-22" stroke="#2E64FF" stroke-width="12"></line>
                <line x1="400.56288" y1="265.231751" x2="400.56288" y2="48.8524258" id="Stroke-23" stroke="#2E64FF" stroke-width="3"></line>
                <line x1="417.876137" y1="265.231751" x2="417.876137" y2="93.3816475" id="Stroke-24" stroke="#2E64FF" stroke-width="3"></line>
                <line x1="417.876137" y1="265.231751" x2="400.56288" y2="250.879502" id="Stroke-25" stroke="#2E64FF" stroke-width="3"></line>
                <line x1="400.56288" y1="250.87994" x2="417.876137" y2="237.020707" id="Stroke-26" stroke="#2E64FF" stroke-width="3"></line>
                <line x1="417.876137" y1="236.59014" x2="400.56288" y2="222.236795" id="Stroke-27" stroke="#2E64FF" stroke-width="3"></line>
                <line x1="400.56288" y1="222.237234" x2="417.876137" y2="208.379097" id="Stroke-28" stroke="#2E64FF" stroke-width="3"></line>
                <line x1="417.876137" y1="207.948529" x2="400.56288" y2="193.595185" id="Stroke-29" stroke="#2E64FF" stroke-width="3"></line>
                <line x1="400.56288" y1="193.595732" x2="417.876137" y2="179.737595" id="Stroke-30" stroke="#2E64FF" stroke-width="3"></line>
                <line x1="417.876137" y1="179.305932" x2="400.56288" y2="164.953683" id="Stroke-31" stroke="#2E64FF" stroke-width="3"></line>
                <line x1="400.56288" y1="164.954122" x2="417.876137" y2="151.094889" id="Stroke-32" stroke="#2E64FF" stroke-width="3"></line>
                <line x1="417.876137" y1="150.664321" x2="400.56288" y2="136.312072" id="Stroke-33" stroke="#2E64FF" stroke-width="3"></line>
                <line x1="400.56288" y1="136.312511" x2="417.876137" y2="122.453278" id="Stroke-34" stroke="#2E64FF" stroke-width="3"></line>
                <line x1="417.876137" y1="122.022711" x2="400.56288" y2="107.670462" id="Stroke-35" stroke="#2E64FF" stroke-width="3"></line>
                <line x1="400.56288" y1="107.6709" x2="417.876137" y2="93.8116672" id="Stroke-36" stroke="#2E64FF" stroke-width="3"></line>
                <line x1="417.876137" y1="93.3812093" x2="400.56288" y2="79.0278648" id="Stroke-37" stroke="#2E64FF" stroke-width="3"></line>
                <line x1="438.705106" y1="93.5961643" x2="335.38246" y2="93.5961643" id="Stroke-38" stroke="#2E64FF" stroke-width="3"></line>
                <line x1="400.56288" y1="48.8524258" x2="352.374513" y2="93.5963834" id="Stroke-39" stroke="#2E64FF" stroke-width="3"></line>
                <path d="M335.38246,93.5961643 C335.38246,95.7062736 333.671195,97.416492 331.559796,97.416492 C329.448396,97.416492 327.736036,95.7062736 327.736036,93.5961643 C327.736036,91.4849595 329.448396,89.7758367 331.559796,89.7758367 C333.671195,89.7758367 335.38246,91.4849595 335.38246,93.5961643 Z" id="Stroke-40" stroke="#2E64FF" stroke-width="3"></path>
                <path d="M335.285002,171.59505 C335.285002,174.509323 332.921462,176.871418 330.005407,176.871418 C327.088255,176.871418 324.724715,174.509323 324.724715,171.59505 C324.724715,168.680776 327.088255,166.317585 330.005407,166.317585 C332.921462,166.317585 335.285002,168.680776 335.285002,171.59505" id="Fill-41" fill="#373B3F"></path>
                <line x1="331.559467" y1="97.4168206" x2="331.559467" y2="170.679025" id="Stroke-42" stroke="#2E64FF" stroke-width="3"></line>
            </g>
        </g>
    </g>
</svg>