<?xml version="1.0" encoding="UTF-8"?>
<svg width="486px" height="251px" viewBox="0 0 486 251" version="1.1" xmlns="http://www.w3.org/2000/svg" xmlns:xlink="http://www.w3.org/1999/xlink">
    <title>we端异常-403</title>
    <defs>
        <path d="M5.91677197,1.29251375 C5.91677197,1.29251375 3.52192281,4.92614338 1.7299112,6.64005798 L1.7299112,6.64005798 C1.2194794,7.12897009 -0.234811176,7.80299369 0.0325054738,10.0744205 L0.0325054738,10.0744205 C0.300922192,12.3839586 6.28199472,12.2380472 9.08606937,11.5727347 L9.08606937,11.5727347 C11.889044,10.9085111 14.4170014,10.1147095 15.2431529,9.919798 L15.2431529,9.919798 C16.0704044,9.72270871 15.9977999,8.72746224 15.9977999,8.72746224 L15.9977999,8.72746224 L16,3.27211778 C14.5490096,3.54542945 14.2717924,3.81765223 10.8230776,1.14986901 L10.8230776,1.14986901 C9.71200836,0.290733926 8.80775203,0 8.0927075,0 L8.0927075,0 C6.5867137,0 5.91677197,1.29251375 5.91677197,1.29251375 L5.91677197,1.29251375 Z" id="path-1"></path>
        <path d="M7.35831473,0.200573385 C6.03561214,0.530006766 4.61039174,2.14916063 4.25157941,2.37774706 L4.25157941,2.37774706 C3.6520731,2.76320652 2.8441882,2.79906322 2.31154133,2.62874392 L2.31154133,2.62874392 C0.467335105,2.04271107 0.0851219723,2.81699157 0.0851219723,2.81699157 L0.0851219723,2.81699157 C0.0851219723,2.81699157 -0.0374536678,7.89967802 0.0115765882,8.94848634 L0.0115765882,8.94848634 C0.0594925203,9.99841517 4.83214222,11.5850739 7.45414659,11.8786506 L7.45414659,11.8786506 C10.0750366,12.1711068 14.7685693,12.0243184 14.9736049,10.4309366 L14.9736049,10.4309366 C15.1652687,8.9518479 14.2827241,7.17245943 13.3121479,6.00599634 L13.3121479,6.00599634 C12.0418185,4.48320734 10.1318672,1.18887353 10.1318672,1.18887353 L10.1318672,1.18887353 C9.44878655,0.293576687 9.05988748,0 8.48823926,0 L8.48823926,0 C8.18625746,0.0011205217 7.83301675,0.0817980845 7.35831473,0.200573385 L7.35831473,0.200573385 Z" id="path-3"></path>
        <path d="M1.06733355,2.49086137 C2.8689355,3.36167329 4.19339606,2.94040389 4.66739145,2.51630717 L4.66739145,2.51630717 C5.14138684,2.0931529 5.23052314,1.42873471 4.1116004,1.13092457 L4.1116004,1.13092457 C1.36829965,0.399593349 1.19631903,0.0914164029 0.367875757,0.000942437144 L0.367875757,0.000942437144 C0.360535121,0 0.352145822,0 0.344805185,0 L0.344805185,0 C-0.170088036,0 -0.240348414,1.85848605 1.06733355,2.49086137" id="path-5"></path>
    </defs>
    <g id="空状态插画-暗色" stroke="none" stroke-width="1" fill="none" fill-rule="evenodd">
        <g id="we端异常-403" transform="translate(-148.000000, -326.000000)">
            <g transform="translate(148.000219, 326.090816)" id="编组">
                <g>
                    <path d="M39.2103796,61.3796702 C32.8764794,61.3796702 27.7418912,56.2492455 27.7418912,49.9191311 C27.7418912,43.5890167 32.8764794,38.458592 39.2103796,38.458592 C45.5431845,38.458592 50.6777727,43.5890167 50.6777727,49.9191311 C50.6777727,56.2492455 45.5431845,61.3796702 39.2103796,61.3796702 L39.2103796,61.3796702 Z M67.630238,51.304904 L67.2688015,47.1475852 L77.2751151,40.1596118 L72.3321977,27.6909393 L60.5789412,29.9184653 L57.2624879,26.484682 L59.6742548,15.7027994 L47.1356954,10.1597077 L41.2300427,19.7988202 L36.3473647,19.7988202 L30.3190427,9.7984873 L17.5406209,14.7384503 L19.8910532,26.54598 L17.3599027,29.5572449 L5.66579032,26.7265902 L0,39.4371709 L9.5835425,45.9424225 L9.82450014,51.5457176 L0,57.6295454 L5.48507209,70.1004071 L15.7312481,67.8104885 L19.4693773,71.9065092 L17.1791845,82.4486728 L29.8360321,88.0508733 L35.80521,78.6536691 L41.1084686,78.7751705 L47.9801424,90.0397749 L59.854973,84.0161505 L57.1420091,71.4850854 L60.1561701,67.7502851 L71.488846,70.8830514 L78.4207592,58.232674 L67.630238,51.304904 Z" id="Fill-15" fill="#3E4246"></path>
                    <path d="M48.9575542,49.91935 C48.9575542,55.2993452 44.5940304,59.660261 39.2108177,59.660261 C33.827605,59.660261 29.4618906,55.2993452 29.4618906,49.91935 C29.4618906,44.5382602 33.827605,40.1773444 39.2108177,40.1773444 C44.5940304,40.1773444 48.9575542,44.5382602 48.9575542,49.91935 Z" id="Stroke-16" stroke="#4F5256" stroke-width="1.321"></path>
                    <path d="M385.471437,248.71997 L73.6185829,248.71997 C65.9342248,248.71997 59.6474209,242.436923 59.6474209,234.757158 L59.6474209,13.9628116 C59.6474209,6.28414089 65.9342248,0 73.6185829,0 L385.471437,0 C393.155795,0 399.442599,6.28414089 399.442599,13.9628116 L399.442599,234.757158 C399.442599,242.436923 393.155795,248.71997 385.471437,248.71997" id="Fill-17" fill="#3E4246"></path>
                    <path d="M78.6088157,11.202978 C78.6088157,13.1207301 77.0524484,14.6750726 75.1346446,14.6750726 C73.2157456,14.6750726 71.6604735,13.1207301 71.6604735,11.202978 C71.6604735,9.2852259 73.2157456,7.73088344 75.1346446,7.73088344 C77.0524484,7.73088344 78.6088157,9.2852259 78.6088157,11.202978" id="Fill-18" fill="#333539"></path>
                    <path d="M91.8204135,11.202978 C91.8204135,13.1207301 90.2640462,14.6750726 88.3462425,14.6750726 C86.4273435,14.6750726 84.8720714,13.1207301 84.8720714,11.202978 C84.8720714,9.2852259 86.4273435,7.73088344 88.3462425,7.73088344 C90.2640462,7.73088344 91.8204135,9.2852259 91.8204135,11.202978" id="Fill-19" fill="#333539"></path>
                    <path d="M105.032011,11.202978 C105.032011,13.1207301 103.475644,14.6750726 101.55784,14.6750726 C99.6389413,14.6750726 98.0836693,13.1207301 98.0836693,11.202978 C98.0836693,9.2852259 99.6389413,7.73088344 101.55784,7.73088344 C103.475644,7.73088344 105.032011,9.2852259 105.032011,11.202978" id="Fill-20" fill="#333539"></path>
                    <path d="M147.951496,103.851202 L111.62056,103.851202 C109.001789,103.851202 106.880266,101.730948 106.880266,99.1137416 L106.880266,67.1304089 C106.880266,64.5132027 109.001789,62.3929482 111.62056,62.3929482 L147.951496,62.3929482 C150.569172,62.3929482 152.69179,64.5132027 152.69179,67.1304089 L152.69179,99.1137416 C152.69179,101.730948 150.569172,103.851202 147.951496,103.851202" id="Fill-21" fill="#333539"></path>
                    <path d="M147.951496,186.904536 L111.62056,186.904536 C109.001789,186.904536 106.880266,184.784282 106.880266,182.167075 L106.880266,150.183743 C106.880266,147.566537 109.001789,145.446282 111.62056,145.446282 L147.951496,145.446282 C150.569172,145.446282 152.69179,147.566537 152.69179,150.183743 L152.69179,182.167075 C152.69179,184.784282 150.569172,186.904536 147.951496,186.904536" id="Fill-22" fill="#333539"></path>
                    <line x1="182.453344" y1="66.7029647" x2="346.195013" y2="66.7029647" id="Stroke-23" stroke="#333539" stroke-width="1.5"></line>
                    <line x1="182.453344" y1="77.6490384" x2="300.582827" y2="77.6490384" id="Stroke-24" stroke="#333539" stroke-width="1.5"></line>
                    <line x1="182.453344" y1="88.5951121" x2="326.275483" y2="88.5951121" id="Stroke-25" stroke="#333539" stroke-width="1.5"></line>
                    <line x1="182.453344" y1="99.5411857" x2="234.818915" y2="99.5411857" id="Stroke-26" stroke="#333539" stroke-width="1.5"></line>
                    <line x1="182.453344" y1="148.456452" x2="346.195013" y2="148.456452" id="Stroke-27" stroke="#333539" stroke-width="1.5"></line>
                    <line x1="182.453344" y1="159.402526" x2="329.964325" y2="159.402526" id="Stroke-28" stroke="#333539" stroke-width="1.5"></line>
                    <line x1="182.453344" y1="170.3486" x2="308.374521" y2="170.3486" id="Stroke-29" stroke="#333539" stroke-width="1.5"></line>
                    <line x1="182.453344" y1="181.294673" x2="322.089392" y2="181.294673" id="Stroke-30" stroke="#333539" stroke-width="1.5"></line>
                    <path d="M336.337655,127.385261 L275.687522,127.385261 C270.717223,127.385261 266.65161,123.320983 266.65161,118.35475 C266.65161,113.388516 270.717223,109.324239 275.687522,109.324239 L336.337655,109.324239 C341.306859,109.324239 345.373566,113.388516 345.373566,118.35475 C345.373566,123.320983 341.306859,127.385261 336.337655,127.385261" id="Fill-31" fill="#4F5256"></path>
                    <path d="M336.337655,210.301769 L275.687522,210.301769 C270.717223,210.301769 266.65161,206.237491 266.65161,201.271258 C266.65161,196.305024 270.717223,192.240747 275.687522,192.240747 L336.337655,192.240747 C341.306859,192.240747 345.373566,196.305024 345.373566,201.271258 C345.373566,206.237491 341.306859,210.301769 336.337655,210.301769" id="Fill-32" fill="#4F5256"></path>
                    <line x1="59.6470923" y1="22.7134312" x2="399.44227" y2="22.7134312" id="Stroke-33" stroke="#333539" stroke-width="3"></line>
                    <polyline id="Stroke-34" stroke="#333539" stroke-width="1.5" points="125.225905 5.88384297 118.928148 11.2025402 125.225905 16.282613"></polyline>
                    <polyline id="Stroke-35" stroke="#333539" stroke-width="1.5" points="130.839122 5.88384297 137.136879 11.2025402 130.839122 16.282613"></polyline>
                    <line x1="3.28808605" y1="248.71997" x2="485.999014" y2="248.71997" id="Stroke-36" stroke="#2D3034" stroke-width="4"></line>
                    <path d="M189.05164,213.220101 L189.05164,186.588304 L166.407099,213.220101 L189.05164,213.220101 Z M189.05164,231.460638 L146.195134,231.460638 L146.195134,212.123305 L189.05164,161.210927 L209.55604,161.210927 L209.55604,213.220101 L220.183367,213.220101 L220.183367,231.460638 L209.55604,231.460638 L209.55604,247.27662 L189.05164,247.27662 L189.05164,231.460638 Z" id="Fill-37" fill="#2E64FF"></path>
                    <path d="M311.012898,204.27081 C311.012898,225.076013 294.137101,241.940628 273.320551,241.940628 C252.504001,241.940628 235.628205,225.076013 235.628205,204.27081 C235.628205,183.466703 252.504001,166.602087 273.320551,166.602087 C294.137101,166.602087 311.012898,183.466703 311.012898,204.27081 Z" id="Stroke-38" stroke="#2E64FF" stroke-width="11.4"></path>
                    <line x1="245.69191" y1="230.319072" x2="303.7167" y2="181.659397" id="Stroke-39" stroke="#2E64FF" stroke-width="11.4"></line>
                    <path d="M399.203941,210.305052 C397.644288,207.476587 395.458145,205.19652 392.648798,203.464851 C390.916094,202.387757 388.41123,201.444206 385.139682,200.636386 C389.183389,198.404481 392.205217,195.806978 394.207356,192.843876 C396.209495,189.880774 397.21166,186.570681 397.21166,182.915787 C397.21166,176.680903 394.74732,171.5056 389.818641,167.387687 C384.888867,163.269774 376.900026,161.210817 365.848832,161.210817 C356.222575,161.210817 348.781365,163.096826 343.525202,166.867748 C338.26904,170.639765 334.521053,176.017571 332.869398,183.145654 C332.575868,184.408831 332.471818,187.128931 332.471818,187.128931 L355.105407,187.128931 C355.720945,182.934395 356.896161,179.999753 358.628865,178.326098 C360.36157,176.652444 362.614524,175.815069 365.386632,175.815069 C368.080976,175.815069 370.200308,176.584578 371.740247,178.12469 C373.27909,179.663708 374.050154,181.722665 374.050154,184.300465 C374.050154,186.994294 373.019513,189.322524 370.96042,191.285155 C368.900232,193.247786 366.329652,194.228554 363.249776,194.228554 L355.122932,194.254825 L357.123975,209.333041 C357.123975,209.333041 364.839001,209.352744 366.599087,209.352744 C370.065591,209.352744 372.808127,210.429838 374.829981,212.58512 C376.851834,214.740401 377.862761,217.780126 377.862761,221.705388 C377.862761,225.554028 376.8135,228.632064 374.714978,230.941685 C372.615361,233.250212 369.986732,234.405023 366.830187,234.405023 C363.826979,234.405023 361.351687,233.491026 359.408692,231.663031 C357.464602,229.835037 356.029809,226.554499 355.105407,221.821417 L331.597799,224.937764 C333.137738,230.210487 335.3425,234.587822 338.210991,238.069768 C341.079482,241.552809 344.737657,244.198475 349.185516,246.006766 C353.633375,247.816152 359.705508,248.720298 367.408486,248.720298 C375.300943,248.720298 381.674273,247.498716 386.526284,245.054458 C391.377199,242.611294 395.093423,239.128254 397.67386,234.606431 C400.252107,230.084608 401.543421,225.361377 401.543421,220.435644 C401.543421,216.510382 400.763594,213.133518 399.203941,210.305052" id="Fill-40" fill="#2E64FF"></path>
                    <polygon id="Fill-41" fill="#F9C152" points="286.141688 166.601978 318.003955 122.355759 299.780986 122.355759 306.377749 86.2665538 280.775999 133.864461 296.650727 133.752811"></polygon>
                    <path d="M424.614239,176.115648 C424.614239,176.115648 429.335913,144.676335 434.454073,138.716198 C437.585427,138.174368 441.288507,137.0513 441.288507,137.0513 L457.501671,142.987356 L462.560686,147.570477 L458.156638,163.974263 L452.544515,181.752876 L424.441187,177.432461 L424.614239,176.115648 Z" id="Fill-42" fill="#E3EAF0"></path>
                    <polygon id="Fill-43" fill="#F2B5BC" points="436.226864 138.269379 441.164305 136.912066 457.213179 142.689404 458.860453 144.218571 440.93649 150.657051 437.088835 144.433114"></polygon>
                    <polygon id="Fill-44" fill="#F2B5BC" points="420.582908 233.507664 419.914798 239.865143 412.930312 236.676552 414.408916 231.870131"></polygon>
                    <polygon id="Fill-45" fill="#F2B5BC" points="455.344662 234.309464 456.398304 241.712293 462.422245 238.098994 461.287553 232.712431"></polygon>
                    <path d="M424.719055,174.183994 L410.54527,231.209754 C410.54527,231.209754 419.44975,234.927041 425.514216,233.735014 L437.450381,191.368236 L450.213469,235.623211 C450.213469,235.623211 460.053303,235.324384 464.626022,232.841814 L453.045816,177.560858 C453.045816,177.560858 436.695745,179.596828 424.719055,174.183994" id="Fill-46" fill="#3B4575"></path>
                    <path d="M422.830167,184.067533 C422.830167,184.067533 427.949421,182.676287 428.644912,177.85892" id="Stroke-47" stroke="#C5D1DF" stroke-width="0.363" stroke-linecap="round" stroke-linejoin="round"></path>
                    <path d="M443.156696,181.633564 C443.156696,181.633564 445.690037,190.325841 454.835475,189.382289" id="Stroke-48" stroke="#C5D1DF" stroke-width="0.363" stroke-linecap="round" stroke-linejoin="round"></path>
                    <path d="M438.788462,182.528296 C438.788462,182.528296 443.205654,150.541679 446.287721,146.370131 C446.287721,146.370131 451.654505,146.170912 454.586522,145.127751 C457.519633,144.085685 458.523988,143.90617 458.523988,143.90617 L462.452693,147.439562 C462.452693,147.439562 458.910616,146.370131 456.37618,153.522295 C453.840648,160.67446 456.708044,166.816302 458.646658,162.147801 C458.646658,162.147801 457.315914,166.753909 456.922715,170.55767 C456.688329,172.832264 456.77376,182.278725 456.37618,183.223372 C455.977504,184.166923 454.090368,184.663875 450.959014,184.564266 C447.82766,184.465751 440.086348,184.117666 438.788462,182.528296" id="Fill-49" fill="#2E64FF"></path>
                    <path d="M411.797373,227.725729 C411.797373,227.725729 416.120372,230.755602 425.812346,230.109783" id="Stroke-50" stroke="#C5D1DF" stroke-width="0.363" stroke-linecap="round" stroke-linejoin="round"></path>
                    <path d="M450.064075,231.699044 C450.064075,231.699044 458.363971,231.401311 463.233505,229.314989" id="Stroke-51" stroke="#C5D1DF" stroke-width="0.363" stroke-linecap="round" stroke-linejoin="round"></path>
                    <path d="M410.517012,237.148547 C410.517012,237.148547 411.966044,234.323365 415.401881,237.005153 C418.836622,239.686941 419.112628,239.413289 420.556184,239.138543 L420.553993,244.622526 C420.553993,244.622526 420.625185,245.624092 419.803739,245.821121 C418.980102,246.01815 416.463189,246.816119 413.672462,247.482735 C410.880639,248.15154 404.926795,248.299312 404.65736,245.976555 C404.392307,243.693204 405.839148,243.015642 406.348445,242.524163 C408.132627,240.801251 410.517012,237.148547 410.517012,237.148547" id="Fill-52" fill="#E8B143"></path>
                    <path d="M408.263401,241.600753 C408.263401,241.600753 410.195443,241.046881 412.037674,242.477533" id="Stroke-53" stroke="#FFFFFF" stroke-width="0.261" stroke-linecap="round" stroke-linejoin="round"></path>
                    <path d="M413.075544,241.494904 C413.075544,241.494904 411.484128,240.224065 409.354939,240.384972" id="Stroke-54" stroke="#FFFFFF" stroke-width="0.261" stroke-linecap="round" stroke-linejoin="round"></path>
                    <path d="M413.970702,240.760532 C413.970702,240.760532 412.52167,239.402124 410.150428,239.437152" id="Stroke-55" stroke="#FFFFFF" stroke-width="0.261" stroke-linecap="round" stroke-linejoin="round"></path>
                    <path d="M414.900251,239.670194 C414.900251,239.670194 413.487363,238.6336 411.215789,238.310691" id="Stroke-56" stroke="#FFFFFF" stroke-width="0.261" stroke-linecap="round" stroke-linejoin="round"></path>
                    <path d="M411.83045,127.745496 C411.83045,127.745496 414.066975,123.409756 415.886205,124.8623 C417.70434,126.313749 416.153449,128.222745 416.153449,128.222745 C416.153449,128.222745 414.48427,130.873884 414.54451,132.33409 C414.603654,133.794296 416.482028,139.74896 417.186281,140.085005 C418.244305,140.591808 420.629785,140.168195 420.629785,140.168195 L421.492852,147.406833 L418.4535,151.254378 C418.4535,151.254378 411.632208,149.476736 407.868888,141.780552 C404.653198,135.208529 402.795634,133.417751 402.795634,133.417751 C402.795634,133.417751 400.887688,131.559108 401.781421,130.039793 C402.667488,128.534708 403.630224,128.907969 403.630224,128.907969 C403.630224,128.907969 403.226072,127.839632 404.017946,127.088731 C404.942348,126.215235 405.688221,126.612577 405.688221,126.612577 C405.688221,126.612577 406.305949,124.38724 407.811934,124.757218 C409.489875,125.167696 410.116365,125.390995 411.83045,127.745496" id="Fill-57" fill="#F2B5BC"></path>
                    <path d="M433.66406,138.174258 L419.30189,139.59068 C419.30189,139.59068 422.034568,145.62525 418.158436,151.485778 C418.158436,151.485778 418.829832,153.497667 428.942386,151.012908 L433.66406,138.174258 Z" id="Fill-58" fill="#E3EAF0"></path>
                    <path d="M464.637303,237.925718 C464.637303,237.925718 466.515677,241.143864 467.763181,242.63253 C468.717154,243.770921 469.584601,245.510252 469.396216,246.955134 C469.193593,248.511666 464.581444,248.653965 462.005388,248.368272 C459.428237,248.081485 454.73723,246.531521 454.690133,245.506969 C454.641942,244.481321 454.761325,239.517277 454.761325,239.517277 C454.761325,239.517277 455.137,238.760903 456.949659,239.332288 C457.474289,239.498669 458.268354,239.463641 458.8587,239.088191 C459.21028,238.863796 460.61112,237.282089 461.912291,236.960274 C463.260558,236.626419 463.611042,236.590297 464.637303,237.925718" id="Fill-59" fill="#E8B143"></path>
                    <path d="M466.849184,242.264523 C466.849184,242.264523 463.914978,241.764287 462.507566,243.122695" id="Stroke-60" stroke="#FFFFFF" stroke-width="0.261" stroke-linecap="round" stroke-linejoin="round"></path>
                    <path d="M462.168692,242.07428 C462.168692,242.07428 463.760107,240.732291 465.853153,241.287257" id="Stroke-61" stroke="#FFFFFF" stroke-width="0.261" stroke-linecap="round" stroke-linejoin="round"></path>
                    <path d="M461.900243,241.152839 C461.900243,241.152839 463.653758,239.91046 465.262697,240.394276" id="Stroke-62" stroke="#FFFFFF" stroke-width="0.261" stroke-linecap="round" stroke-linejoin="round"></path>
                    <path d="M461.721606,239.789944 C461.721606,239.789944 463.086302,238.515821 465.590071,238.873757" id="Stroke-63" stroke="#FFFFFF" stroke-width="0.327" stroke-linecap="round" stroke-linejoin="round"></path>
                    <path d="M457.095657,159.114973 L463.970617,168.008658 C463.970617,168.008658 464.053857,163.620377 467.566362,161.203484 C471.077772,158.785496 472.65933,159.837414 472.65933,159.837414 L462.430678,147.412525 C462.430678,147.412525 456.434119,150.471953 457.095657,159.114973" id="Fill-64" fill="#E3EAF0"></path>
                    <path d="M404.256714,129.370331 C404.256714,129.370331 407.060584,130.666346 407.507451,132.156107 C407.954318,133.644773 405.880987,134.151576 405.880987,134.151576" id="Stroke-65" stroke="#F58B8D" stroke-width="0.327" stroke-linecap="round"></path>
                    <path d="M406.19478,126.925635 C406.19478,126.925635 409.101605,128.177866 409.459756,129.264811 C409.817906,130.352851 409.787239,131.053399 408.073154,131.931274" id="Stroke-66" stroke="#F58B8D" stroke-width="0.327" stroke-linecap="round"></path>
                    <path d="M409.877379,129.637634 C409.877379,129.637634 411.42827,129.816055 411.622131,128.250767" id="Stroke-67" stroke="#F58B8D" stroke-width="0.327" stroke-linecap="round"></path>
                    <path d="M422.830167,179.150447 C422.830167,179.150447 428.843155,141.899864 433.664498,138.17382 L439.612866,137.372568 C439.612866,137.372568 435.95031,140.161627 440.024685,144.532394 C440.024685,144.532394 431.725884,165.640803 431.029298,179.44818 C430.980011,180.939035 430.632813,181.982196 427.551841,181.038645 C424.469774,180.093999 422.830167,179.150447 422.830167,179.150447" id="Fill-68" fill="#2E64FF"></path>
                    <path d="M429.040193,180.187259 C429.040193,180.187259 432.978755,152.876805 438.788024,144.433004" id="Stroke-69" stroke="#C5D1DF" stroke-width="0.363" stroke-linecap="round" stroke-linejoin="round"></path>
                </g>
                <g transform="translate(403.999781, 235.909184)">
                    <mask id="mask-2" fill="white">
                        <use xlink:href="#path-1"></use>
                    </mask>
                    <g id="Clip-71"></g>
                    <path d="M0.364726166,10.2447231 C0.364726166,10.2447231 1.22717988,9.69918866 2.08853353,9.72314427 C2.95208732,9.74709987 5.4756445,11.2410585 7.99920167,10.766302 C10.5227589,10.2926343 14.7866244,8.07238535 15.6072755,8.28798579 C15.9207951,8.36965262 16.6028375,8.61029755 16.7403461,8.89558703 C17.2001748,9.84401118 15.0066381,12.4421054 15.0066381,12.4421054 L0.720048297,13.0464399 L-0.436123715,10.8283687 L0.364726166,10.2447231 Z" id="Fill-70" fill="#3B4575" mask="url(#mask-2)"></path>
                </g>
                <g transform="translate(453.999781, 236.909184)">
                    <mask id="mask-4" fill="white">
                        <use xlink:href="#path-3"></use>
                    </mask>
                    <g id="Clip-73"></g>
                    <path d="M0.612197225,8.19941758 C2.26808269,9.42526832 5.67234251,10.7250735 8.60301464,11.0186502 C9.8967448,11.1475102 11.1514736,9.99337283 12.2969987,9.68186779 C13.4447524,9.37036276 14.8454577,9.84658448 14.8454577,9.84658448 L16.1525597,10.4471841 C16.1525597,10.4471841 15.3346459,14.0339741 15.207613,14.0339741 C15.0794657,14.0339741 -1.390243,9.87907961 -1.390243,9.87907961 L-0.574557836,7.38367777 L0.612197225,8.19941758 Z" id="Fill-72" fill="#3B4575" mask="url(#mask-4)"></path>
                </g>
                <g transform="translate(439.999781, 116.909184)">
                    <path d="M4.67754069,12.1015538 C4.67754069,12.1015538 3.15172437,9.93183909 5.0755318,7.93420141 C5.66535242,7.32090127 6.8747603,7.81396811 7.15699222,8.441608 L4.67754069,12.1015538 Z" id="Fill-74" fill="#F2B5BC"></path>
                    <path d="M4.98975976,26.3067321 C4.98975976,26.3067321 13.5250704,29.7934978 16.1632774,26.7600889 C18.800382,23.7266799 18.6835203,20.2200592 19.548958,18.1716809 C20.4154982,16.1244056 24.6280301,12.0662559 23.9202454,10.0167745 C23.2102557,7.96949926 20.4827488,5.29017186 14.7796795,3.20318651 C9.07661028,1.11399503 6.43730082,4.14740398 6.79339813,8.83539963 C5.72951608,11.1871189 1.74850253,13.3987498 0.0551110025,20.4494952 C-0.14112838,21.8283175 -0.0815950845,24.0609065 4.98975976,26.3067321" id="Fill-76" fill="#3B4575"></path>
                    <path d="M5.01445505,11.8236935 C5.01445505,11.8236935 7.85110635,3.42280531 12.4428874,3.55848142 C17.035771,3.69305447 21.5823508,7.61221884 19.5350669,13.0172021 C17.4866806,18.4232883 16.0005531,17.4327424 15.3258424,16.621995 C14.6489268,15.8101444 12.78796,12.8142394 10.2853567,12.3421307 C7.78385578,11.8689189 4.67709971,12.7116551 5.01445505,11.8236935" id="Fill-78" fill="#F2B5BC"></path>
                    <path d="M10.499897,9.54863681 C10.30917,9.83984407 9.95858503,9.94573762 9.71604197,9.78800035 C9.47349892,9.62916003 9.43160512,9.2640479 9.62233216,8.97394369 C9.81195673,8.68273644 10.1625417,8.57573983 10.4050848,8.73458015 C10.6476278,8.89231742 10.6906241,9.25742955 10.499897,9.54863681" id="Fill-80" fill="#263166"></path>
                    <path d="M14.0452151,11.473583 C13.854488,11.7658933 13.5050055,11.8717868 13.26136,11.7140496 C13.0188169,11.5552093 12.9769231,11.1900971 13.1676502,10.8988899 C13.3572747,10.6087857 13.7078597,10.500686 13.9504028,10.6606294 C14.1940483,10.8183666 14.2359421,11.1823757 14.0452151,11.473583" id="Fill-82" fill="#263166"></path>
                    <path d="M16.0919477,10.2423499 C16.0919477,10.2423499 15.6884443,9.71398517 15.5340987,9.55735097 C15.3797531,9.39851064 14.8637979,8.98155479 14.8637979,8.98155479 C14.7436288,8.85801232 14.753551,8.65284357 14.8847448,8.52268275 C15.0159385,8.39472804 15.2937606,8.31972011 16.0280046,9.07421165 C16.7214572,9.78678699 16.6817683,10.1044676 16.5494721,10.2324223 C16.4182784,10.3614801 16.2110143,10.3658923 16.0919477,10.2423499" id="Fill-84" fill="#263166"></path>
                    <path d="M11.1771434,7.38664352 C11.1771434,7.38664352 10.5145599,7.33038757 10.2951686,7.33810898 C10.074675,7.34583038 9.41870624,7.4473117 9.41870624,7.4473117 C9.24672116,7.45393005 9.10009285,7.30832642 9.09347804,7.12411576 C9.08686323,6.93990511 9.21805698,6.68289264 10.2709143,6.64759479 C11.2642384,6.6134 11.4726049,6.85717578 11.4781173,7.04138643 C11.4836296,7.22559708 11.348026,7.38002517 11.1771434,7.38664352" id="Fill-86" fill="#263166"></path>
                    <path d="M20.2251019,8.00281161 C20.2251019,8.00281161 9.20923723,8.30284333 9.61494562,3.72294734 C10.0195515,-0.855845589 14.2364933,-0.991521698 17.2991507,2.11689518 C20.3596031,5.22420901 22.1158353,6.0503993 21.9956662,6.96704033 C21.8754972,7.88257831 20.2251019,8.00281161 20.2251019,8.00281161" id="Fill-88" fill="#3B4575"></path>
                    <path d="M12.0631973,11.7342355 C12.0631973,12.4545323 11.478889,13.040256 10.7578747,13.040256 C10.0368603,13.040256 9.45255202,12.4545323 9.45255202,11.7342355 C9.45255202,11.0128357 10.0368603,10.427112 10.7578747,10.427112 C11.478889,10.427112 12.0631973,11.0128357 12.0631973,11.7342355" id="Fill-90" fill="#F58B8D"></path>
                    <path d="M7.54351766,13.7680535 C8.41446773,13.8739471 8.59417009,14.234647 11.4782275,15.0895168 C12.6556638,15.4391861 12.561954,16.2168418 12.0636383,16.7121148 C11.5653225,17.2073877 10.1740074,17.7004546 8.27886411,16.6823322 C6.88313906,15.9311499 6.98015628,13.6996639 7.54351766,13.7680535" id="Fill-92" fill="#FFFFFF"></path>
                    <path d="M21.5159822,13.7669504 C21.5159822,13.7669504 23.9469251,14.8038248 22.5952988,17.116937 C21.2458775,19.4300492 20.3749274,19.4300492 18.9946369,18.9480129 C18.9946369,18.9480129 20.7949679,15.8826153 21.5159822,13.7669504" id="Fill-94" fill="#F2B5BC"></path>
                </g>
                <g transform="translate(446.999781, 130.909184)">
                    <mask id="mask-6" fill="white">
                        <use xlink:href="#path-5"></use>
                    </mask>
                    <g id="Clip-97"></g>
                    <path d="M3.31639973,3.91007747 C2.97558446,4.87230579 1.70775166,5.36802773 0.485011344,5.01838355 C-0.737728974,4.66873937 -1.45291671,3.60472783 -1.11210144,2.64249951 C-0.769188845,1.68027118 0.497595292,1.18360681 1.72033561,1.53419343 C2.94307593,1.88478004 3.657215,2.94784914 3.31639973,3.91007747" id="Fill-96" fill="#F2B5BC" mask="url(#mask-6)"></path>
                </g>
                <g transform="translate(34.999781, 93.909184)">
                    <path d="M343.662155,6.23648587 L364.780524,19.8500188 C369.229262,22.7174641 370.520973,28.6994164 367.648559,33.1432461 L364.33171,38.2757874 C361.460391,42.718524 355.469263,44.0073985 351.020526,41.1399532 L329.902157,27.5264203 C327.346103,40.7431241 332.835872,54.7819091 344.855345,62.5293682 C360.644862,72.7069954 381.705213,68.1746171 391.896589,52.4074939 C402.08687,36.6403707 397.549463,15.6073366 381.761042,5.4308026 C369.740473,-2.31665646 354.671249,-1.53174386 343.662155,6.23648587" id="Fill-98" fill="#333539"></path>
                    <path d="M441.582773,84.0400183 L441.221532,84.5986399 C438.561485,88.7134185 433.012604,89.9082785 428.891172,87.2518195 L385.557575,59.3196441 C381.437238,56.6620918 380.240764,51.1217895 382.901906,47.0059177 L383.263147,46.4462029 C385.9221,42.3314243 391.472076,41.1376575 395.592413,43.7941166 L438.92601,71.7262919 C443.047441,74.382751 444.242821,79.9230533 441.582773,84.0400183" id="Fill-100" fill="#333539"></path>
                    <path d="M438.956223,79.5176973 C435.044968,80.5977721 428.69041,79.5887549 424.691581,78.185095 C423.15357,77.7707749 422.423425,76.0522754 422.843779,74.8716269 C422.843779,74.8716269 420.638019,73.795925 421.879374,72.3780536 C421.879374,72.3780536 420.683995,70.4343564 422.639075,69.4734397 C424.594155,68.5136162 425.512583,68.4370927 425.512583,68.4370927 C425.512583,68.4370927 423.23567,65.9172827 425.067053,64.6907202 C426.333586,63.8434956 427.392131,65.6822462 427.392131,65.6822462 C427.392131,65.6822462 430.024812,70.811508 433.448939,70.5666327 C436.253483,70.3665784 432.092643,67.3220358 432.092643,67.3220358 L436.218454,64.429447 C436.218454,64.429447 442.183309,69.741272 442.479965,73.3225724 C442.650733,75.3898004 442.867478,78.4365294 438.956223,79.5176973" id="Fill-102" fill="#F2B5BC"></path>
                    <line x1="17.9711934" y1="88.5761135" x2="17.9711934" y2="114.812746" id="Stroke-104" stroke="#6BD6A5" stroke-linecap="round"></line>
                    <path d="M8.71247658,105.497102 C8.71247658,105.497102 10.262529,102.673384 13.7983123,105.497102 C17.3330009,108.321913 17.9711934,109.005158 17.9711934,109.005158 C17.9711934,109.005158 6.52313707,109.64249 8.71247658,105.497102" id="Fill-106" fill="#247E55"></path>
                    <path d="M25.4404535,104.242663 C25.4404535,104.242663 28.2559441,106.665179 17.9715218,109.100813 C18.7312226,107.028119 22.9084824,101.77314 25.4404535,104.242663" id="Fill-108" fill="#6BD6A5"></path>
                    <path d="M8.71247658,97.4198265 C8.71247658,97.4198265 10.262529,94.5961089 13.7983123,97.4198265 C17.3330009,100.243544 17.9711934,100.92679 17.9711934,100.92679 C17.9711934,100.92679 6.52313707,101.565215 8.71247658,97.4198265" id="Fill-110" fill="#6BD6A5"></path>
                    <path d="M9.71519408,81.9368242 C9.71519408,81.9368242 11.5071685,80.530978 14.2985763,84.0893213 C16.9827066,87.5077359 17.9711934,91.7077836 17.9711934,91.7077836 C17.9711934,91.7077836 5.86414588,84.614054 9.71519408,81.9368242" id="Fill-112" fill="#247E55"></path>
                    <path d="M25.4404535,96.1644037 C25.4404535,96.1644037 28.2559441,98.5869194 17.9715218,101.023647 C18.7312226,98.9509527 22.9084824,93.6959738 25.4404535,96.1644037" id="Fill-114" fill="#247E55"></path>
                    <path d="M26.078646,79.4206218 C27.2072505,80.4558756 29.4381875,82.5865088 17.9715218,88.5761135 C18.2517572,85.5916965 22.4925079,76.1279244 26.078646,79.4206218" id="Fill-116" fill="#6BD6A5"></path>
                    <line x1="17.9711934" y1="88.5761135" x2="17.9711934" y2="114.812746" id="Stroke-104备份" stroke="#FFFFFF" opacity="0.199999988" stroke-linecap="round"></line>
                    <path d="M25.4404535,104.242663 C25.4404535,104.242663 28.2559441,106.665179 17.9715218,109.100813 C18.7312226,107.028119 22.9084824,101.77314 25.4404535,104.242663" id="Fill-108备份" fill="#FFFFFF" opacity="0.199999988"></path>
                    <path d="M8.71247658,97.4198265 C8.71247658,97.4198265 10.262529,94.5961089 13.7983123,97.4198265 C17.3330009,100.243544 17.9711934,100.92679 17.9711934,100.92679 C17.9711934,100.92679 6.52313707,101.565215 8.71247658,97.4198265" id="Fill-110备份" fill="#FFFFFF" opacity="0.199999988"></path>
                    <path d="M26.078646,79.4206218 C27.2072505,80.4558756 29.4381875,82.5865088 17.9715218,88.5761135 C18.2517572,85.5916965 22.4925079,76.1279244 26.078646,79.4206218" id="Fill-116备份" fill="#FFFFFF" opacity="0.199999988"></path>
                    <polygon id="Fill-118" fill="#2E64FF" points="4.10501158 154 0 114.812309 33.2965699 114.812309 28.4614136 154"></polygon>
                    <path d="M1.91140286,124.562826 C5.76135639,124.230495 9.7240609,124.562826 12.939106,123.984527 C18.8218612,122.927409 25.0691415,121.799234 31.7630471,121.67461" id="Stroke-120" stroke="#FFFFFF" stroke-width="0.678" stroke-linecap="round" stroke-linejoin="round"></path>
                    <path d="M2.2321411,128.276949 C6.0831893,127.943525 10.4553003,128.133741 13.2270041,127.941339 C27.3799894,126.960745 26.0258829,128.387362 30.8643232,128.534943" id="Stroke-122" stroke="#FFFFFF" stroke-width="0.678" stroke-linecap="round" stroke-linejoin="round"></path>
                </g>
            </g>
        </g>
    </g>
</svg>