<?xml version="1.0" encoding="UTF-8"?>
<svg width="373px" height="386px" viewBox="0 0 373 386" version="1.1" xmlns="http://www.w3.org/2000/svg" xmlns:xlink="http://www.w3.org/1999/xlink">
    <title>990AE22F-1AA4-418F-8A5E-EFB03697587E</title>
    <defs>
        <polygon id="path-1" points="0.7074 0.5133 290.041 0.5133 290.041 71.5163 0.7074 71.5163"></polygon>
        <polygon id="path-3" points="0 385.487 372.041 385.487 372.041 1 0 1"></polygon>
    </defs>
    <g id="数据展示" stroke="none" stroke-width="1" fill="none" fill-rule="evenodd">
        <g id="头像" transform="translate(-2874.000000, -1259.000000)">
            <g id="500" transform="translate(2874.000000, 1259.000000)">
                <g id="编组" transform="translate(82.000000, 0.487000)">
                    <mask id="mask-2" fill="white">
                        <use xlink:href="#path-1"></use>
                    </mask>
                    <g id="Clip-2"></g>
                    <path d="M280.3724,71.5163 L10.3764,71.5163 C5.0584,71.5163 0.7074,67.1643 0.7074,61.8473 L0.7074,10.1823 C0.7074,4.8643 5.0584,0.5133 10.3764,0.5133 L280.3724,0.5133 C285.6904,0.5133 290.0414,4.8643 290.0414,10.1823 L290.0414,61.8473 C290.0414,67.1643 285.6904,71.5163 280.3724,71.5163" id="Fill-1" fill="#E3EAF0" mask="url(#mask-2)"></path>
                </g>
                <path d="M96.3749,200.3714 L26.0619,200.3714 C26.0619,200.3714 1.4999,201.8714 1.4999,224.5584 C1.4999,247.2464 20.2499,250.8094 20.2499,250.8094 L80.6249,250.8094 C80.6249,250.8094 101.6249,253.2464 101.6249,273.3094 C101.6249,293.3714 79.6879,293.5594 74.9999,293.5594 C70.3129,293.5594 50.0619,293.7464 50.0619,312.8714 C50.0619,331.9964 58.5289,335.2114 65.4379,336.1214 C80.1689,338.0634 124.8749,336.1214 124.8749,336.1214" id="Stroke-3" stroke="#C5D1DF" stroke-width="3" stroke-linecap="round"></path>
                <path d="M145.6364,322.7601 L136.3484,322.7601 C129.1434,322.7601 123.2494,328.6551 123.2494,335.8601 C123.2494,343.0641 129.1434,348.9591 136.3484,348.9591 L145.6364,348.9591 L145.6364,322.7601 Z" id="Fill-5" fill="#C5D1DF"></path>
                <path d="M153.9989,351.5843 L147.4739,351.5843 C146.4839,351.5843 145.6739,350.7733 145.6739,349.7843 L145.6739,321.9593 C145.6739,320.9693 146.4839,320.1593 147.4739,320.1593 L153.9989,320.1593 C154.9889,320.1593 155.7989,320.9693 155.7989,321.9593 L155.7989,349.7843 C155.7989,350.7733 154.9889,351.5843 153.9989,351.5843" id="Fill-7" fill="#E3EAF0"></path>
                <line x1="155.7987" y1="329.2152" x2="163.9737" y2="329.2152" id="Stroke-9" stroke="#C5D1DF" stroke-width="3" stroke-linecap="round"></line>
                <line x1="155.7987" y1="341.9281" x2="163.9737" y2="341.9281" id="Stroke-11" stroke="#C5D1DF" stroke-width="3" stroke-linecap="round"></line>
                <path d="M343.5624,36.684 C343.5624,40.62 340.3724,43.809 336.4374,43.809 C332.5024,43.809 329.3124,40.62 329.3124,36.684 C329.3124,32.749 332.5024,29.559 336.4374,29.559 C340.3724,29.559 343.5624,32.749 343.5624,36.684" id="Fill-13" fill="#FFFFFF"></path>
                <line x1="315.6249" y1="36.684" x2="268.7499" y2="36.684" id="Stroke-15" stroke="#FFFFFF" stroke-width="3" stroke-linecap="round"></line>
                <path d="M122.0311,37.6683 C122.0311,40.0763 120.0791,42.0273 117.6721,42.0273 C115.2641,42.0273 113.3121,40.0763 113.3121,37.6683 C113.3121,35.2613 115.2641,33.3093 117.6721,33.3093 C120.0791,33.3093 122.0311,35.2613 122.0311,37.6683" id="Fill-17" fill="#FFFFFF"></path>
                <path d="M136.5726,37.6683 C136.5726,40.0763 134.6206,42.0273 132.2136,42.0273 C129.8056,42.0273 127.8536,40.0763 127.8536,37.6683 C127.8536,35.2613 129.8056,33.3093 132.2136,33.3093 C134.6206,33.3093 136.5726,35.2613 136.5726,37.6683" id="Fill-19" fill="#FFFFFF"></path>
                <path d="M151.1142,37.6683 C151.1142,40.0763 149.1622,42.0273 146.7552,42.0273 C144.3472,42.0273 142.3952,40.0763 142.3952,37.6683 C142.3952,35.2613 144.3472,33.3093 146.7552,33.3093 C149.1622,33.3093 151.1142,35.2613 151.1142,37.6683" id="Fill-21" fill="#FFFFFF"></path>
                <mask id="mask-4" fill="white">
                    <use xlink:href="#path-3"></use>
                </mask>
                <g id="Clip-24"></g>
                <polygon id="Fill-23" fill="#C5D1DF" mask="url(#mask-4)" points="120.423 86.782 333.798 86.782 333.798 72.004 120.423 72.004"></polygon>
                <path d="M362.3724,157.7845 L92.3764,157.7845 C87.0584,157.7845 82.7074,153.4325 82.7074,148.1155 L82.7074,96.4505 C82.7074,91.1325 87.0584,86.7815 92.3764,86.7815 L362.3724,86.7815 C367.6904,86.7815 372.0414,91.1325 372.0414,96.4505 L372.0414,148.1155 C372.0414,153.4325 367.6904,157.7845 362.3724,157.7845" id="Fill-25" fill="#E3EAF0" mask="url(#mask-4)"></path>
                <path d="M343.5624,118.9965 C343.5624,122.9325 340.3724,126.1215 336.4374,126.1215 C332.5024,126.1215 329.3124,122.9325 329.3124,118.9965 C329.3124,115.0615 332.5024,111.8715 336.4374,111.8715 C340.3724,111.8715 343.5624,115.0615 343.5624,118.9965" id="Fill-26" fill="#FFFFFF" mask="url(#mask-4)"></path>
                <line x1="315.6249" y1="118.9965" x2="268.7499" y2="118.9965" id="Stroke-27" stroke="#FFFFFF" stroke-width="3" stroke-linecap="round" mask="url(#mask-4)"></line>
                <path d="M122.0311,119.9808 C122.0311,122.3888 120.0791,124.3398 117.6721,124.3398 C115.2641,124.3398 113.3121,122.3888 113.3121,119.9808 C113.3121,117.5738 115.2641,115.6218 117.6721,115.6218 C120.0791,115.6218 122.0311,117.5738 122.0311,119.9808" id="Fill-28" fill="#FFFFFF" mask="url(#mask-4)"></path>
                <path d="M136.5726,119.9808 C136.5726,122.3888 134.6206,124.3398 132.2136,124.3398 C129.8056,124.3398 127.8536,122.3888 127.8536,119.9808 C127.8536,117.5738 129.8056,115.6218 132.2136,115.6218 C134.6206,115.6218 136.5726,117.5738 136.5726,119.9808" id="Fill-29" fill="#FFFFFF" mask="url(#mask-4)"></path>
                <path d="M151.1142,119.9808 C151.1142,122.3888 149.1622,124.3398 146.7552,124.3398 C144.3472,124.3398 142.3952,122.3888 142.3952,119.9808 C142.3952,117.5738 144.3472,115.6218 146.7552,115.6218 C149.1622,115.6218 151.1142,117.5738 151.1142,119.9808" id="Fill-30" fill="#FFFFFF" mask="url(#mask-4)"></path>
                <polygon id="Fill-31" fill="#C5D1DF" mask="url(#mask-4)" points="120.423 172.563 333.798 172.563 333.798 157.785 120.423 157.785"></polygon>
                <path d="M362.3724,243.5658 L92.3764,243.5658 C87.0584,243.5658 82.7074,239.2138 82.7074,233.8968 L82.7074,182.2318 C82.7074,176.9138 87.0584,172.5628 92.3764,172.5628 L362.3724,172.5628 C367.6904,172.5628 372.0414,176.9138 372.0414,182.2318 L372.0414,233.8968 C372.0414,239.2138 367.6904,243.5658 362.3724,243.5658" id="Fill-32" fill="#E3EAF0" mask="url(#mask-4)"></path>
                <path d="M343.5624,201.3089 C343.5624,205.2449 340.3724,208.4339 336.4374,208.4339 C332.5024,208.4339 329.3124,205.2449 329.3124,201.3089 C329.3124,197.3739 332.5024,194.1839 336.4374,194.1839 C340.3724,194.1839 343.5624,197.3739 343.5624,201.3089" id="Fill-33" fill="#FFFFFF" mask="url(#mask-4)"></path>
                <line x1="315.6249" y1="201.3089" x2="268.7499" y2="201.3089" id="Stroke-34" stroke="#FFFFFF" stroke-width="3" stroke-linecap="round" mask="url(#mask-4)"></line>
                <path d="M122.0311,202.2933 C122.0311,204.7013 120.0791,206.6523 117.6721,206.6523 C115.2641,206.6523 113.3121,204.7013 113.3121,202.2933 C113.3121,199.8863 115.2641,197.9343 117.6721,197.9343 C120.0791,197.9343 122.0311,199.8863 122.0311,202.2933" id="Fill-35" fill="#FFFFFF" mask="url(#mask-4)"></path>
                <path d="M136.5726,202.2933 C136.5726,204.7013 134.6206,206.6523 132.2136,206.6523 C129.8056,206.6523 127.8536,204.7013 127.8536,202.2933 C127.8536,199.8863 129.8056,197.9343 132.2136,197.9343 C134.6206,197.9343 136.5726,199.8863 136.5726,202.2933" id="Fill-36" fill="#FFFFFF" mask="url(#mask-4)"></path>
                <path d="M151.1142,202.2933 C151.1142,204.7013 149.1622,206.6523 146.7552,206.6523 C144.3472,206.6523 142.3952,204.7013 142.3952,202.2933 C142.3952,199.8863 144.3472,197.9343 146.7552,197.9343 C149.1622,197.9343 151.1142,199.8863 151.1142,202.2933" id="Fill-37" fill="#FFFFFF" mask="url(#mask-4)"></path>
                <polygon id="Fill-38" fill="#F9C152" mask="url(#mask-4)" points="175.7528 335.8597 176.4778 337.6967 178.3668 337.1177 177.3828 338.8307 179.0118 339.9457 177.0598 340.2447 177.2028 342.2137 175.7528 340.8737 174.3028 342.2137 174.4458 340.2447 172.4938 339.9457 174.1238 338.8307 173.1398 337.1177 175.0278 337.6967"></polygon>
                <path d="M155.6786,314.1888 C155.6786,314.1888 157.4016,313.5018 157.6506,310.4638 C157.6506,310.4638 159.4206,312.7208 161.4736,312.4438 C161.4736,312.4438 159.3916,314.5188 159.3486,316.2878 C159.3486,316.2878 157.3596,313.8328 155.6786,314.1888" id="Fill-39" fill="#FF8227" mask="url(#mask-4)"></path>
                <path d="M121.0673,167.0746 L172.0613,167.0746 L172.0613,184.2136 L137.5203,184.2136 L135.6743,195.8146 C138.0643,194.6896 140.4293,193.8456 142.7673,193.2836 C145.1043,192.7206 147.4163,192.4396 149.7023,192.4396 C157.4353,192.4396 163.7113,194.7776 168.5283,199.4536 C173.3443,204.1296 175.7533,210.0176 175.7533,217.1196 C175.7533,222.1116 174.5133,226.9106 172.0353,231.5156 C169.5563,236.1216 166.0403,239.6376 161.4883,242.0626 C156.9343,244.4886 151.1073,245.7016 144.0063,245.7016 C138.9083,245.7016 134.5413,245.2186 130.9023,244.2516 C127.2633,243.2846 124.1693,241.8436 121.6213,239.9276 C119.0713,238.0116 117.0063,235.8406 115.4243,233.4146 C113.8423,230.9886 112.5243,227.9656 111.4693,224.3446 L133.1963,221.9706 C133.7233,225.4516 134.9533,228.0966 136.8873,229.9076 C138.8203,231.7186 141.1233,232.6236 143.7963,232.6236 C146.7833,232.6236 149.2543,231.4896 151.2053,229.2216 C153.1563,226.9546 154.1313,223.5706 154.1313,219.0706 C154.1313,214.4656 153.1463,211.0906 151.1783,208.9456 C149.2093,206.8016 146.5903,205.7286 143.3213,205.7286 C141.2463,205.7286 139.2423,206.2386 137.3093,207.2586 C135.8673,207.9966 134.2853,209.3326 132.5633,211.2656 L114.2643,208.6296 L121.0673,167.0746 Z" id="Fill-40" fill="#2E64FF" mask="url(#mask-4)"></path>
                <path d="M303.0485,205.4652 C303.0485,215.3092 303.9185,222.0322 305.6585,225.6362 C307.3995,229.2392 309.9205,231.0412 313.2265,231.0412 C315.4055,231.0412 317.2945,230.2772 318.8955,228.7472 C320.4945,227.2182 321.6715,224.8012 322.4285,221.4962 C323.1835,218.1922 323.5625,213.0412 323.5625,206.0452 C323.5625,195.7792 322.6925,188.8802 320.9515,185.3472 C319.2115,181.8142 316.6015,180.0472 313.1205,180.0472 C309.5695,180.0472 307.0035,181.8492 305.4215,185.4522 C303.8395,189.0562 303.0485,195.7272 303.0485,205.4652 M281.7435,205.4122 C281.7435,190.7172 284.3885,180.4342 289.6805,174.5632 C294.9705,168.6922 303.0305,165.7562 313.8595,165.7562 C319.0615,165.7562 323.3325,166.3982 326.6735,167.6812 C330.0125,168.9642 332.7375,170.6342 334.8475,172.6912 C336.9565,174.7472 338.6175,176.9092 339.8305,179.1772 C341.0435,181.4442 342.0195,184.0902 342.7575,187.1132 C344.1985,192.8792 344.9195,198.8912 344.9195,205.1492 C344.9195,219.1762 342.5465,229.4422 337.8005,235.9452 C333.0545,242.4492 324.8805,245.7012 313.2785,245.7012 C306.7745,245.7012 301.5195,244.6642 297.5115,242.5902 C293.5035,240.5162 290.2155,237.4752 287.6505,233.4672 C285.7865,230.6192 284.3355,226.7262 283.2995,221.7862 C282.2615,216.8472 281.7435,211.3892 281.7435,205.4122" id="Fill-41" fill="#2E64FF" mask="url(#mask-4)"></path>
                <path d="M256.2977,239.1058 L196.5827,239.1058 C194.0737,239.1058 192.0207,237.0528 192.0207,234.5438 L192.0207,177.2218 C192.0207,174.7128 194.0737,172.6598 196.5827,172.6598 L256.2977,172.6598 C258.8067,172.6598 260.8597,174.7128 260.8597,177.2218 L260.8597,234.5438 C260.8597,237.0528 258.8067,239.1058 256.2977,239.1058 Z" id="Stroke-42" stroke="#2E64FF" stroke-width="11.4" mask="url(#mask-4)"></path>
                <line x1="208.0758" y1="188.4886" x2="218.8048" y2="199.2176" id="Stroke-43" stroke="#2E64FF" stroke-width="4.5" mask="url(#mask-4)"></line>
                <line x1="218.8051" y1="188.4886" x2="208.0761" y2="199.2176" id="Stroke-44" stroke="#2E64FF" stroke-width="4.5" mask="url(#mask-4)"></line>
                <line x1="235.8087" y1="188.4886" x2="246.5377" y2="199.2176" id="Stroke-45" stroke="#2E64FF" stroke-width="4.5" mask="url(#mask-4)"></line>
                <line x1="246.538" y1="188.4886" x2="235.809" y2="199.2176" id="Stroke-46" stroke="#2E64FF" stroke-width="4.5" mask="url(#mask-4)"></line>
                <line x1="217.3695" y1="211.7035" x2="233.0545" y2="211.7035" id="Stroke-47" stroke="#2E64FF" stroke-width="4.5" mask="url(#mask-4)"></line>
                <path d="M224.7018,211.7035 L224.7018,217.2475 C224.7018,219.5445 226.5808,221.4235 228.8778,221.4235 L228.8788,221.4235 C231.1758,221.4235 233.0548,219.5445 233.0548,217.2475 L233.0548,211.7035 L224.7018,211.7035 Z" id="Stroke-48" stroke="#2E64FF" stroke-width="4.5" mask="url(#mask-4)"></path>
                <polygon id="Fill-49" fill="#F2B5BC" mask="url(#mask-4)" points="298.1632 375.43 294.6842 375.43 294.6842 372.441 298.1632 372.312"></polygon>
                <polygon id="Fill-50" fill="#F2B5BC" mask="url(#mask-4)" points="272.614 375.43 276.093 375.43 276.093 372.266 272.614 372.266"></polygon>
                <polygon id="Fill-51" fill="#263166" mask="url(#mask-4)" points="298.1732 310.7748 301.5262 372.7958 290.7272 372.9378 285.3722 321.7048 280.7692 372.7958 269.6962 372.7958 273.3812 310.8208"></polygon>
                <line x1="299.8939" y1="370.4564" x2="291.3519" y2="370.4564" id="Stroke-52" stroke="#C5D1DF" stroke-width="0.3" stroke-linecap="round" stroke-linejoin="round" mask="url(#mask-4)"></line>
                <line x1="279.9147" y1="370.4564" x2="271.3727" y2="370.4564" id="Stroke-53" stroke="#C5D1DF" stroke-width="0.3" stroke-linecap="round" stroke-linejoin="round" mask="url(#mask-4)"></line>
                <path d="M282.9969,260.2386 C282.9969,260.2386 292.6829,264.1426 293.8339,259.9426 C294.9859,255.7436 291.2849,254.2306 287.5389,255.9796 C283.7939,257.7276 281.9619,257.8816 281.7659,258.7336 C281.5699,259.5876 282.9969,260.2386 282.9969,260.2386" id="Fill-54" fill="#263166" mask="url(#mask-4)"></path>
                <path d="M272.5082,375.0853 C273.5102,375.2833 274.9002,375.3263 276.3002,375.1793 C276.8412,375.1223 277.3232,375.4933 277.3032,376.0373 C277.2782,376.7343 277.2772,377.5643 277.3772,378.0643 C277.5752,379.0553 279.0592,380.2423 278.7622,383.4083 L269.8562,383.4083 C269.8562,383.4083 269.6582,379.7473 270.8452,378.9553 C271.5712,378.4723 271.5952,377.0293 271.5032,375.9793 C271.4552,375.4203 271.9582,374.9773 272.5082,375.0853" id="Fill-55" fill="#F9C152" mask="url(#mask-4)"></path>
                <path d="M278.6537,385.4867 L270.0537,385.4867 C269.8167,385.4867 269.6227,385.2937 269.6227,385.0557 L269.6227,383.6417 C269.6227,383.4047 269.8167,383.2117 270.0537,383.2117 L278.6537,383.2117 C278.8907,383.2117 279.0847,383.4047 279.0847,383.6417 L279.0847,385.0557 C279.0847,385.2937 278.8907,385.4867 278.6537,385.4867" id="Fill-56" fill="#263166" mask="url(#mask-4)"></path>
                <path d="M273.0507,379.1156 C273.0507,379.1156 274.7807,378.8926 276.0067,379.1156" id="Stroke-57" stroke="#F2F2F2" stroke-width="0.254" stroke-linecap="round" mask="url(#mask-4)"></path>
                <path d="M298.37,375.0853 C297.368,375.2833 295.978,375.3263 294.578,375.1793 C294.037,375.1223 293.555,375.4933 293.575,376.0373 C293.6,376.7343 293.601,377.5643 293.501,378.0643 C293.303,379.0553 291.819,380.2423 292.116,383.4083 L301.022,383.4083 C301.022,383.4083 301.22,379.7473 300.033,378.9553 C299.307,378.4723 299.283,377.0293 299.375,375.9793 C299.423,375.4203 298.92,374.9773 298.37,375.0853" id="Fill-58" fill="#F9C152" mask="url(#mask-4)"></path>
                <path d="M292.2245,385.4867 L300.8245,385.4867 C301.0615,385.4867 301.2555,385.2937 301.2555,385.0557 L301.2555,383.6417 C301.2555,383.4047 301.0615,383.2117 300.8245,383.2117 L292.2245,383.2117 C291.9875,383.2117 291.7935,383.4047 291.7935,383.6417 L291.7935,385.0557 C291.7935,385.2937 291.9875,385.4867 292.2245,385.4867" id="Fill-59" fill="#263166" mask="url(#mask-4)"></path>
                <path d="M297.8275,379.1156 C297.8275,379.1156 296.0975,378.8926 294.8715,379.1156" id="Stroke-60" stroke="#F2F2F2" stroke-width="0.254" stroke-linecap="round" mask="url(#mask-4)"></path>
                <path d="M298.817,282.8177 C298.817,282.8177 299.939,280.4977 301.73,283.4317 C303.835,286.8807 306.391,291.3507 307.549,294.4707 C308.645,297.4247 310.985,313.5167 310.985,313.5167 L308.306,314.3167 C308.306,314.3167 308.287,314.2647 308.271,314.2187 C307.887,313.1417 304.059,299.2987 303.375,297.6027 C302.662,295.8367 295.905,286.2337 295.905,286.2337 L298.817,282.8177 Z" id="Fill-61" fill="#F2B5BC" mask="url(#mask-4)"></path>
                <path d="M308.2714,314.2191 C308.6244,315.2071 308.8504,315.9741 308.8184,316.2791 C308.7544,316.8911 308.3224,317.2011 307.6824,319.1241 C308.1754,320.5481 308.1644,322.5861 308.4644,322.7071 C310.2354,321.8771 308.6244,319.2861 309.1284,319.1561 C309.6324,319.0261 310.6164,320.6661 310.3994,321.8261 C310.2424,322.6671 309.1224,323.7291 309.7454,324.2191 C310.3654,324.7071 311.5534,322.3751 312.1434,321.3751 C312.6894,320.4481 312.1394,318.3421 310.9854,313.5171 L308.2714,314.2191 Z" id="Fill-62" fill="#F2B5BC" mask="url(#mask-4)"></path>
                <path d="M274.5184,282.8177 C274.5184,282.8177 273.3964,280.4977 271.6054,283.4317 C269.5004,286.8807 266.9444,291.3507 265.7864,294.4707 C264.6904,297.4247 262.3494,313.5167 262.3494,313.5167 L265.0294,314.3167 C265.0294,314.3167 265.0474,314.2647 265.0634,314.2187 C265.4484,313.1417 269.2754,299.2987 269.9604,297.6027 C270.6734,295.8367 277.4304,286.2337 277.4304,286.2337 L274.5184,282.8177 Z" id="Fill-63" fill="#F2B5BC" mask="url(#mask-4)"></path>
                <path d="M265.0638,314.2191 C264.7108,315.2071 264.4858,315.9741 264.5168,316.2791 C264.5808,316.8911 265.0128,317.2011 265.6528,319.1241 C265.1598,320.5481 265.1708,322.5861 264.8708,322.7071 C263.0998,321.8771 264.7108,319.2861 264.2068,319.1561 C263.7028,319.0261 262.7188,320.6661 262.9358,321.8261 C263.0938,322.6671 264.2128,323.7291 263.5898,324.2191 C262.9698,324.7071 261.7818,322.3751 261.1928,321.3751 C260.6458,320.4481 261.1958,318.3421 262.3498,313.5171 L265.0638,314.2191 Z" id="Fill-64" fill="#F2B5BC" mask="url(#mask-4)"></path>
                <path d="M283.9916,279.6732 L290.6966,279.6732 C290.8226,279.6732 290.9266,279.5692 290.9266,279.4442 L290.9266,272.9652 C290.9266,272.8382 290.8226,272.7362 290.6966,272.7362 L283.9916,272.7362 C283.8656,272.7362 283.7616,272.8382 283.7616,272.9652 L283.7616,279.4442 C283.7616,279.5692 283.8656,279.6732 283.9916,279.6732" id="Fill-65" fill="#FCB5B1" mask="url(#mask-4)"></path>
                <polygon id="Fill-66" fill="#FCB5B1" mask="url(#mask-4)" points="292.1469 275.764 290.8789 275.334 290.4289 274.512 284.1989 274.545 282.9329 275.18 280.6929 275.878 283.1229 285.853 290.5399 285.081 294.4909 278.589"></polygon>
                <path d="M296.9237,310.7591 C296.9237,310.7591 298.9437,285.8111 297.0427,280.6561 C295.1227,279.5391 292.4897,275.9501 292.4897,275.9501 C292.4897,275.9501 289.1617,275.8861 286.2787,275.8861 C283.5537,275.8861 280.8367,276.0031 280.8367,276.0031 L276.4687,279.6151 L275.3567,291.4431 L275.1137,313.0551 L296.9557,313.0551 L296.9237,310.7591 Z" id="Fill-67" fill="#2E64FF" mask="url(#mask-4)"></path>
                <polygon id="Fill-68" fill="#FCB5B1" mask="url(#mask-4)" points="292.5614 260.18 281.5704 260.107 281.5124 266.423 292.0554 264.714 293.8734 262.993"></polygon>
                <path d="M284.1364,266.4232 C284.1364,266.4232 284.5554,266.3672 284.6964,266.3652 C284.8374,266.3632 285.2584,266.4082 285.2584,266.4082 C285.3674,266.4072 285.4564,266.3102 285.455408,266.1932 C285.4534,266.0752 285.3624,265.9162 284.6904,265.9252 C284.0574,265.9332 283.9324,266.0952 283.933394,266.2122 C283.9354,266.3292 284.0264,266.4242 284.1364,266.4232" id="Fill-69" fill="#263166" mask="url(#mask-4)"></path>
                <path d="M290.6454,266.4232 C290.6454,266.4232 290.2264,266.3672 290.0854,266.3652 C289.9444,266.3632 289.5234,266.4082 289.5234,266.4082 C289.4134,266.4072 289.3254,266.3102 289.326392,266.1932 C289.3284,266.0752 289.4194,265.9162 290.0914,265.9252 C290.7244,265.9332 290.8494,266.0952 290.8474,266.2122 C290.8464,266.3292 290.7554,266.4242 290.6454,266.4232" id="Fill-70" fill="#263166" mask="url(#mask-4)"></path>
                <path d="M279.6222,266.849 C279.6222,267.8 280.3672,268.572 281.2872,268.572 C282.2072,268.572 282.9522,267.8 282.9522,266.849 C282.9522,265.897 282.2072,265.126 281.2872,265.126 C280.3672,265.126 279.6222,265.897 279.6222,266.849" id="Fill-71" fill="#FCB5B1" mask="url(#mask-4)"></path>
                <path d="M291.7489,266.849 C291.7489,267.8 292.4939,268.572 293.4139,268.572 C294.3339,268.572 295.0789,267.8 295.0789,266.849 C295.0789,265.897 294.3339,265.126 293.4139,265.126 C292.4939,265.126 291.7489,265.897 291.7489,266.849" id="Fill-72" fill="#FCB5B1" mask="url(#mask-4)"></path>
                <path d="M287.3253,274.7367 L287.3253,274.7367 C290.4253,274.7367 292.9623,272.1997 292.9623,269.0997 L292.9623,265.2387 C292.9623,262.1377 290.4253,259.6017 287.3253,259.6017 C284.2253,259.6017 281.6893,262.1377 281.6893,265.2387 L281.6893,269.0997 C281.6893,272.1997 284.2253,274.7367 287.3253,274.7367" id="Fill-73" fill="#FCB5B1" mask="url(#mask-4)"></path>
                <path d="M286.6176,273.5423 C285.2036,273.4403 282.2556,272.9303 281.6886,270.7423 C280.9886,268.0413 281.1766,268.1423 281.2876,266.6023 C281.3986,265.0623 280.4486,261.9243 281.5336,260.8813 C282.6186,259.8393 285.1516,259.0443 289.3386,259.5553 C293.5246,260.0653 294.8396,261.8623 293.1406,264.6483 C293.0566,266.4383 293.7986,266.3443 292.6196,271.2373 C292.3066,272.1513 291.1136,273.8633 286.6176,273.5423" id="Fill-74" fill="#263166" mask="url(#mask-4)"></path>
                <path d="M292.9391,265.4037 C292.9391,265.4037 294.5611,263.5807 294.1161,261.5127 C293.6711,259.4457 292.8101,259.2737 292.8101,259.2737 L290.4781,260.2157 C290.4781,260.2157 292.9681,263.2937 292.9391,265.4037" id="Fill-75" fill="#263166" mask="url(#mask-4)"></path>
                <path d="M284.2174,258.1791 C284.2174,258.1791 281.4614,258.1771 280.4374,259.6021 C280.0064,260.2001 279.8614,261.0511 279.8614,262.2601 C279.8624,265.4481 281.7434,265.8491 281.7434,265.8491 C281.7434,265.8491 282.4594,260.2791 283.1914,260.0921 C283.9244,259.9061 284.2174,258.1791 284.2174,258.1791" id="Fill-76" fill="#263166" mask="url(#mask-4)"></path>
                <path d="M289.0052,279.3744 C291.5942,278.8384 292.0312,277.0054 292.1472,275.7644 C292.1472,275.7644 297.8252,276.9984 300.2752,279.7344 C302.7252,282.4724 307.9312,288.4824 307.9312,288.4824 L301.3592,294.5604 L298.3802,291.1044 C298.3802,291.1044 298.8902,298.4954 299.2822,302.5004 C299.5552,305.3004 300.2062,313.0554 300.2062,313.0554 L291.8212,313.0554 C291.3232,313.0554 290.9222,312.6464 290.9352,312.1484 C291.1692,303.3334 289.4102,282.1754 289.0052,279.3744" id="Fill-77" fill="#2E64FF" mask="url(#mask-4)"></path>
                <path d="M284.119,279.3744 C281.53,278.8384 281.093,276.9974 280.977,275.7564 C280.977,275.7564 275.463,277.1544 272.849,279.7344 C269.89,282.6564 266.109,289.6954 266.109,289.6954 L272.414,294.7534 L274.744,291.1044 C274.744,291.1044 274.338,296.1064 274.106,298.5944 C273.712,302.8354 271.352,313.0554 272.368,313.0554 L281.812,313.0554 C282.311,313.0554 282.713,312.6444 282.697,312.1454 C282.431,303.3444 283.714,282.1744 284.119,279.3744" id="Fill-78" fill="#2E64FF" mask="url(#mask-4)"></path>
                <path d="M279.8915,276.0726 C279.8915,276.0726 288.3105,276.2046 293.2645,276.0536 L292.2445,275.7866 C292.2445,275.7866 290.1605,275.4696 288.6915,275.4646 C284.9905,275.4506 284.1495,275.3386 281.2105,275.6936 L279.8915,276.0726 Z" id="Fill-79" fill="#E3EAF0" mask="url(#mask-4)"></path>
                <path d="M218.7435,312.1068 L200.1485,312.1068 C197.5655,312.1068 195.4715,310.0128 195.4715,307.4298 L195.4715,288.8348 C195.4715,286.2518 197.5655,284.1578 200.1485,284.1578 L218.7435,284.1578 C221.3265,284.1578 223.4205,286.2518 223.4205,288.8348 L223.4205,307.4298 C223.4205,310.0128 221.3265,312.1068 218.7435,312.1068" id="Fill-80" fill="#C5D1DF" mask="url(#mask-4)"></path>
                <path d="M218.4623,299.6361 C218.4623,304.6151 214.4253,308.6531 209.4463,308.6531 C204.4663,308.6531 200.4303,304.6151 200.4303,299.6361 C200.4303,294.6571 204.4663,290.6191 209.4463,290.6191 C214.4253,290.6191 218.4623,294.6571 218.4623,299.6361" id="Fill-81" fill="#E3EAF0" mask="url(#mask-4)"></path>
                <path d="M207.8563,299.0765 C207.8563,299.8635 207.2173,300.5025 206.4293,300.5025 C205.6413,300.5025 205.0033,299.8635 205.0033,299.0765 C205.0033,298.2885 205.6413,297.6495 206.4293,297.6495 C207.2173,297.6495 207.8563,298.2885 207.8563,299.0765" id="Fill-82" fill="#C5D1DF" mask="url(#mask-4)"></path>
                <path d="M213.8891,299.0765 C213.8891,299.8635 213.2501,300.5025 212.4621,300.5025 C211.6741,300.5025 211.0361,299.8635 211.0361,299.0765 C211.0361,298.2885 211.6741,297.6495 212.4621,297.6495 C213.2501,297.6495 213.8891,298.2885 213.8891,299.0765" id="Fill-83" fill="#C5D1DF" mask="url(#mask-4)"></path>
                <line x1="209.4462" y1="292.3382" x2="209.4462" y2="287.2992" id="Stroke-84" stroke="#C5D1DF" stroke-width="2.2" mask="url(#mask-4)"></line>
                <line x1="209.4462" y1="312.055" x2="209.4462" y2="306.283" id="Stroke-85" stroke="#C5D1DF" stroke-width="2.2" mask="url(#mask-4)"></line>
            </g>
        </g>
    </g>
</svg>