<?xml version="1.0" encoding="UTF-8"?>
<svg width="26px" height="26px" viewBox="0 0 26 26" version="1.1" xmlns="http://www.w3.org/2000/svg" xmlns:xlink="http://www.w3.org/1999/xlink">
    <title>75BF476F-2650-4BBD-80C7-1CFD4780ACB9</title>
    <g id="V1.0" stroke="none" stroke-width="1" fill="none" fill-rule="evenodd">
        <g id="工具列表页-A" transform="translate(-885.000000, -236.000000)">
            <g id="内容区" transform="translate(300.000000, 124.000000)">
                <g id="应用/电网项目" transform="translate(20.000000, 80.000000)">
                    <g id="卡片/鼠标悬浮" transform="translate(532.000000, 0.000000)">
                        <g id="logo" transform="translate(26.000000, 25.000000)">
                            <g id="Icon-Shell" transform="translate(7.000000, 7.000000)">
                                <path d="M14.1753404,12.2803108 L22.8457068,6.87671749 C23.3245579,6.57828527 23.7127434,6.7740637 23.7127434,7.31400085 L23.7127434,17.0904279 C23.7127434,17.6303651 23.3245579,18.3099977 22.8457068,18.6084299 L14.1753404,24.0120233 C13.6964893,24.3104555 13.3083038,24.1146771 13.3083038,23.5747399 L13.3083038,13.7983129 C13.3083038,13.2583757 13.6964893,12.5787431 14.1753404,12.2803108 Z" id="矩形" fill="#2D3335"></path>
                                <path d="M14.5,1.57735027 L22.4592921,6.17264973 C23.0780943,6.52991532 23.4592921,7.19016936 23.4592921,7.90470054 L23.4592921,17.0952995 C23.4592921,17.8098306 23.0780943,18.4700847 22.4592921,18.8273503 L14.5,23.4226497 C13.8811978,23.7799153 13.1188022,23.7799153 12.5,23.4226497 L4.54070786,18.8273503 C3.9219057,18.4700847 3.54070786,17.8098306 3.54070786,17.0952995 L3.54070786,7.90470054 C3.54070786,7.19016936 3.9219057,6.52991532 4.54070786,6.17264973 L12.5,1.57735027 C13.1188022,1.22008468 13.8811978,1.22008468 14.5,1.57735027 Z" id="多边形" stroke="#2D3335"></path>
                                <path d="M16.1176304,19.8345063 L16.1176304,19.3669936 C16.3786827,19.1392237 16.5867088,18.8907304 16.7498665,18.614894 C16.9497347,18.2667676 17.0517083,17.9024506 17.0517083,17.5305655 C17.0517083,17.1586804 16.9048663,16.9962658 16.6193403,17.0313891 C16.5296036,17.0563926 16.3623669,17.1124078 16.1176304,17.1941221 L16.1176304,15.8022093 C16.2563144,15.7109241 16.3705248,15.6713741 16.4602616,15.6941844 C16.574472,15.7236988 16.6478929,15.8500636 16.6764455,16.0819014 L17.002761,15.8171114 C16.9619715,15.478325 16.859998,15.2848144 16.6968403,15.2365795 C16.5499983,15.1963556 16.3542091,15.2649147 16.1176304,15.4356368 L16.1176304,15 L15.9136832,15.1654937 L15.9136832,15.6011306 C15.6771045,15.8037286 15.4853942,16.044295 15.3344733,16.3155144 C15.1386841,16.6550183 15.0448684,16.9967776 15.0448684,17.3420995 C15.0448684,17.7139846 15.1876314,17.8797091 15.4813153,17.8326533 C15.6240783,17.7805595 15.7668413,17.7337782 15.9136832,17.6889998 L15.9136832,19.1606022 C15.7464466,19.2750565 15.6159204,19.3065955 15.5261836,19.2572219 C15.4201311,19.1998372 15.354868,19.0243515 15.3303944,18.7254521 L15,18.993552 C15.0285526,19.3953944 15.1223683,19.6327133 15.285526,19.7128241 C15.432368,19.7902364 15.640394,19.7329983 15.9136832,19.5324873 L15.9136832,20 L16.1176304,19.8345063 Z M15.9136832,17.2639882 L15.8117096,17.2989213 C15.5221047,17.3851683 15.3793417,17.3097588 15.3793417,17.0706898 C15.3793417,16.8369334 15.4405258,16.611968 15.5628941,16.4011063 C15.6485519,16.2465966 15.7668413,16.0974838 15.9136832,15.967703 L15.9136832,17.2639882 Z M16.1176304,18.9951085 L16.1176304,17.6191336 C16.1706566,17.5973558 16.2277618,17.5775808 16.284867,17.5578058 C16.570393,17.4695559 16.717235,17.5522809 16.717235,17.8126005 C16.717235,18.0357316 16.6560508,18.2553843 16.5377615,18.4735615 C16.431709,18.6658711 16.288946,18.8401558 16.1176304,18.9951085 Z" id="$_" fill="#F7F7F7" fill-rule="nonzero"></path>
                                <polygon id="路径" fill="#5F9C59" fill-rule="nonzero" points="19.6397301 18.1499485 19.6397301 17.817618 18 18.768917 18 19.1248641"></polygon>
                            </g>
                        </g>
                    </g>
                </g>
            </g>
        </g>
    </g>
</svg>