<?xml version="1.0" encoding="UTF-8"?>
<svg width="20px" height="20px" viewBox="0 0 20 20" version="1.1" xmlns="http://www.w3.org/2000/svg" xmlns:xlink="http://www.w3.org/1999/xlink">
    <title>access-service-drm-second-menu</title>
    <g id="access-service-drm-second-menu" stroke="none" stroke-width="1" fill="none" fill-rule="evenodd">
        <g id="接入代理">
            <rect id="矩形" x="0" y="0" width="20" height="20"></rect>
            <g id="编组" transform="translate(2.000000, 2.500000)" fill="#57689C">
                <path d="M8.75420755,6.33866038 L12.9811321,6.33962264 L12.9811321,7.54716981 L8.75420755,7.54666038 L8.75471698,13.5849057 L2.11320755,13.5849057 L2.11320755,12.3773585 L7.54620755,12.3766604 L7.54620755,7.54666038 L2.11320755,7.54716981 L2.11320755,6.33962264 L7.54620755,6.33866038 L7.54620755,2.11266038 L2.11320755,2.11320755 L2.11320755,0.905660377 L8.75471698,0.905660377 L8.75420755,6.33866038 Z" id="形状结合" opacity="0.55"></path>
                <polygon id="多边形" points="1.81132075 11.1698113 3.53398916 12.4214032 2.87598838 14.4465213 0.746653128 14.4465213 0.0886523478 12.4214032"></polygon>
                <rect id="矩形" x="0.301886792" y="5.43396226" width="3.01886792" height="3.01886792"></rect>
                <circle id="椭圆形备份-16" cx="1.81132075" cy="1.50943396" r="1.50943396"></circle>
                <polygon id="路径-2" points="12.3773585 9.66037736 12.3773585 4.22641509 16 6.94339623"></polygon>
            </g>
        </g>
    </g>
</svg>