<?xml version="1.0" encoding="UTF-8"?>
<svg width="20px" height="20px" viewBox="0 0 20 20" version="1.1" xmlns="http://www.w3.org/2000/svg" xmlns:xlink="http://www.w3.org/1999/xlink">
    <title>active-monitor-second-menu</title>
    <g id="active-monitor-second-menu" stroke="none" stroke-width="1" fill="none" fill-rule="evenodd">
        <g id="编组-2">
            <rect id="矩形" x="0" y="0" width="20" height="20"></rect>
            <g id="编组-33" transform="translate(2.000000, 2.000000)" fill="#57689C">
                <path d="M13.6585366,11.7073171 C14.3769558,11.7073171 14.9593496,12.2897109 14.9593496,13.0081301 C14.9593496,13.7265493 14.3769558,14.3089431 13.6585366,14.3089431 C13.4552996,14.3089431 13.2629486,14.2623344 13.0915894,14.1792229 C12.4523257,14.7234128 11.7235011,15.1613509 10.9354462,15.4709606 C10.0493892,15.8190731 9.10184117,16 8.1300813,16 C6.02235911,16 4.04939258,15.1455134 2.6129362,13.6603426 C2.41315243,13.4537835 2.41864486,13.1243776 2.62520388,12.9245939 C2.83176289,12.7248101 3.1611688,12.7303025 3.36095257,12.9368615 C4.60331304,14.2213541 6.30730745,14.9593496 8.1300813,14.9593496 C8.97107229,14.9593496 9.7895852,14.803061 10.5549121,14.5023806 C11.2340247,14.235572 11.862564,13.8582341 12.4162708,13.3890588 C12.3775432,13.2685629 12.3577236,13.140661 12.3577236,13.0081301 C12.3577236,12.2897109 12.9401174,11.7073171 13.6585366,11.7073171 Z M7.00019645,1.24020985 C7.06567285,1.52001875 6.89192203,1.79992779 6.61211312,1.86540419 C3.63659452,2.56168741 1.49593496,5.22745426 1.49593496,8.32520325 C1.49593496,8.59599207 1.51213446,8.86449564 1.54416574,9.12971218 C2.14779506,9.24413011 2.60162602,9.77231814 2.60162602,10.4065041 C2.60162602,11.1249233 2.01923219,11.7073171 1.30081301,11.7073171 C0.582393821,11.7073171 0,11.1249233 0,10.4065041 C0,9.97949366 0.205749045,9.60053852 0.523517893,9.36336789 C0.478693698,9.02131062 0.455284553,8.67477828 0.455284553,8.32520325 C0.455284553,4.74140616 2.93135293,1.65795416 6.37500211,0.852126519 C6.65481101,0.78665012 6.93472005,0.960400944 7.00019645,1.24020985 Z M9.75609756,0 C10.4745167,0 11.0569106,0.582393821 11.0569106,1.30081301 L11.0539218,1.2265412 C13.8744536,2.38740791 15.804878,5.16068029 15.804878,8.32520325 C15.804878,8.85884333 15.7503352,9.38577182 15.643029,9.90010138 C15.5843383,10.1814118 15.3087128,10.3618808 15.0274024,10.3031901 C14.7460919,10.2444994 14.5656229,9.96887399 14.6243136,9.68756352 C14.7170567,9.24303679 14.7642276,8.78732673 14.7642276,8.32520325 C14.7642276,5.60233604 13.1104741,3.21418742 10.6912586,2.2027878 C10.4555152,2.44922387 10.1236041,2.60162602 9.75609756,2.60162602 C9.03767837,2.60162602 8.45528455,2.01923219 8.45528455,1.30081301 C8.45528455,0.582393821 9.03767837,0 9.75609756,0 Z" id="形状结合" opacity="0.55"></path>
                <g id="webx-Web应用托管服务器" transform="translate(2.915004, 3.092387)">
                    <path d="M0.390243908,3.26385808 C0.141906885,3.8669623 0,4.54101995 0,5.21507761 C0,5.7827051 0.106430155,6.3503326 0.283813753,6.84700665 C0.603104219,6.31485587 1.02882484,5.71175166 1.56097562,5.07317072 C1.49002217,4.93126386 1.41906875,4.75388026 1.41906873,4.57649668 C1.41906873,4.43458981 1.45454544,4.32815965 1.49002217,4.22172948 C0.99334811,3.8669623 0.638580932,3.54767184 0.390243908,3.26385808 L0.390243908,3.26385808 Z M2.23503326,9.47228382 C2.41241686,9.33037695 2.55432373,9.18847007 2.73170732,9.08203991 C4.18625279,7.98226165 5.49889136,7.34368071 6.52771619,6.98891352 C6.52771619,6.91796008 6.49223947,6.84700665 6.49223947,6.77605321 L6.49223947,6.66962305 C6.13747229,6.5631929 5.74722839,6.45676274 5.39246121,6.31485587 C4.47006652,5.99556541 3.68957872,5.6053215 3.01552106,5.25055432 C2.83813746,5.42793792 2.58980044,5.53436807 2.34146342,5.53436807 C2.19955655,5.53436807 2.09312639,5.49889136 1.98669624,5.46341463 C1.31263859,6.24390243 0.851441242,6.98891352 0.532150776,7.55654103 C0.957871398,8.33702883 1.52549889,8.97560976 2.23503326,9.47228382 L2.23503326,9.47228382 Z M5.60532152,5.7827051 C5.99556543,5.92461197 6.38580932,6.03104212 6.77605323,6.13747228 C6.88248338,6.03104212 6.98891354,5.96008868 7.09534369,5.92461197 C6.98891354,5.53436806 6.84700667,5.14412417 6.66962307,4.75388026 C6.42128605,4.18625277 6.13747229,3.65410199 5.85365854,3.19290466 C5.74722839,3.22838137 5.67627494,3.22838137 5.56984479,3.22838137 C5.35698448,3.22838137 5.14412417,3.15742793 4.96674059,3.01552106 C4.57649668,3.26385808 4.18625279,3.51219512 3.76053215,3.83148559 L3.22838137,4.25720621 C3.26385808,4.36363637 3.29933481,4.50554323 3.29933481,4.61197339 L3.29933481,4.75388026 C3.93791575,5.07317072 4.71840355,5.46341463 5.60532152,5.7827051 L5.60532152,5.7827051 Z M10.5720621,5.21507761 C10.5720621,3.72505544 9.93348115,2.34146342 8.8691796,1.41906873 C8.33702883,1.52549889 7.5210643,1.7383592 6.52771619,2.16407982 L6.52771619,2.27050997 C6.52771619,2.48337028 6.45676274,2.66075388 6.3503326,2.83813746 C6.66962307,3.33481153 6.95343682,3.90243902 7.23725056,4.54101995 C7.41463416,5.00221728 7.59201774,5.46341463 7.73392462,5.88913525 C8.01773838,5.9600887 8.2660754,6.17294901 8.40798227,6.45676274 C8.62084258,6.49223946 8.83370289,6.49223946 9.0465632,6.49223947 C9.57871398,6.52771619 10.075388,6.49223947 10.4656319,6.49223947 C10.5011086,6.03104214 10.5720621,5.64079823 10.5720621,5.21507761 L10.5720621,5.21507761 Z M5.28603105,1.34811529 C5.39246121,1.31263858 5.46341465,1.31263858 5.56984479,1.31263858 C5.85365854,1.31263858 6.10199556,1.41906873 6.27937916,1.63192904 C7.05986696,1.27716186 7.73392462,1.06430155 8.2660754,0.922394668 C7.41463416,0.354767179 6.38580932,0 5.28603105,0 C4.89578714,0 4.47006652,0.0354767129 4.11529934,0.141906868 C4.43458981,0.461197334 4.86031043,0.851441242 5.28603105,1.34811529 L5.28603105,1.34811529 Z M7.69844789,9.827051 C7.73392461,9.29490022 7.69844789,8.58536585 7.52106431,7.69844789 L7.45011087,7.69844789 C7.20177385,7.69844789 6.98891354,7.62749445 6.84700665,7.48558758 C5.85365854,7.84035476 4.54101995,8.44345898 3.12195122,9.54323725 C3.01552106,9.61419069 2.90909091,9.72062084 2.76718404,9.79157429 C3.51219512,10.1818182 4.36363637,10.3946785 5.25055432,10.3946785 C6.13747228,10.4301552 6.98891352,10.2172949 7.69844789,9.827051 Z M0.674057645,2.6962306 C0.922394668,2.98004435 1.31263858,3.37028824 1.88026608,3.79600886 C2.02217295,3.72505542 2.19955655,3.65410199 2.37694013,3.65410199 C2.55432373,3.65410199 2.73170731,3.68957871 2.87361419,3.79600886 L3.40576497,3.37028824 C3.83148559,3.05099777 4.25720621,2.76718402 4.64745012,2.518847 C4.61197341,2.44789355 4.61197341,2.37694013 4.61197339,2.27050997 C4.61197339,2.05764966 4.68292683,1.88026607 4.78935699,1.70288248 C4.25720621,1.09977827 3.79600888,0.638580932 3.40576497,0.354767179 C2.23503326,0.7804878 1.27716186,1.63192904 0.674057645,2.6962306 L0.674057645,2.6962306 Z M8.90465633,7.05986696 C8.79822618,7.05986696 8.62084258,7.05986696 8.37250555,7.1308204 C8.30155211,7.27272727 8.23059869,7.37915743 8.12416851,7.48558758 C8.26607538,8.26607538 8.33702883,8.94013304 8.33702883,9.47228382 C9.18847007,8.8691796 9.86252771,8.05321509 10.2527716,7.05986696 L8.90465633,7.05986696 L8.90465633,7.05986696 Z" id="形状结合"></path>
                </g>
            </g>
        </g>
    </g>
</svg>