<?xml version="1.0" encoding="UTF-8"?>
<svg width="20px" height="20px" viewBox="0 0 20 20" version="1.1" xmlns="http://www.w3.org/2000/svg" xmlns:xlink="http://www.w3.org/1999/xlink">
    <title>active-monitor-second-menu</title>
    <g id="active-monitor-second-menu" stroke="none" stroke-width="1" fill="none" fill-rule="evenodd">
        <g>
            <rect id="矩形" x="0" y="0" width="20" height="20"></rect>
            <g id="编组-10" transform="translate(2.000000, 2.000000)">
                <g id="编组-9备份-2">
                    <path d="M8,16 C10.0233968,16 11.8713446,15.2488132 13.2801782,14.0101048 C14.9476657,12.5439765 16,10.3948812 16,8 C16,6.13090512 15.3590141,4.41152053 14.28487,3.04967397 C12.8198882,1.19230638 10.5491831,0 8,0 C5.49307421,0 3.25547047,1.15310473 1.78864603,2.95785692 C0.670296954,4.33385182 0,6.08864779 0,8 C0,10.4196403 1.07420557,12.5883864 2.77173575,14.0553573 C4.17390612,15.2670844 6.00136226,16 8,16 Z" id="椭圆形备份-21" stroke="#57689C" stroke-width="1.2" stroke-linecap="round" stroke-linejoin="round"></path>
                    <path d="M7.63192798,8.24231313 L13.342898,13.9543763 C13.3220896,13.9730602 13.3011827,13.9916367 13.2801782,14.0101048 C11.8713446,15.2488132 10.0233968,16 8,16 C6.00136226,16 4.17390612,15.2670844 2.77173575,14.0553573 C2.6017716,13.9084778 2.4380562,13.754563 2.28104214,13.5940656 L7.63192798,8.24231313 Z" id="形状结合" fill="#57689C"></path>
                    <path d="M8,13.3333333 C9.34893123,13.3333333 10.5808964,12.8325421 11.5201188,12.0067365 C12.6317771,11.0293176 13.3333333,9.59658743 13.3333333,8 C13.3333333,6.75393675 12.9060094,5.60768035 12.1899133,4.69978265 C11.2132588,3.46153758 9.69945541,2.66666667 8,2.66666667 C6.32871614,2.66666667 4.83698031,3.43540315 3.85909735,4.63857128 C3.1135313,5.55590121 2.66666667,6.72576519 2.66666667,8 C2.66666667,9.6130935 3.38280371,11.0589242 4.5144905,12.0369049 C5.44927075,12.8447229 6.66757484,13.3333333 8,13.3333333 Z" id="椭圆形备份-21" stroke="#57689C" stroke-width="0.8" opacity="0.55" stroke-linecap="round" stroke-linejoin="round"></path>
                    <path d="M7.75757576,10.6666667 C8.49335643,10.6666667 9.16533744,10.3935078 9.67764055,9.94306841 C10.2839996,9.40993083 10.6666667,8.62844163 10.6666667,7.75757576 C10.6666667,7.07790489 10.4335809,6.45267413 10.042983,5.9574572 C9.51026236,5.2820508 8.68455144,4.84848485 7.75757576,4.84848485 C6.84596638,4.84848485 6.03229229,5.26779566 5.49890159,5.92406918 C5.0922292,6.42443096 4.84848485,7.06253859 4.84848485,7.75757576 C4.84848485,8.63744494 5.23910506,9.42607989 5.85638876,9.95952388 C6.36626889,10.4001519 7.0307984,10.6666667 7.75757576,10.6666667 Z" id="椭圆形备份-22" stroke="#57689C" stroke-width="0.8" opacity="0.55" stroke-linecap="round" stroke-linejoin="round"></path>
                    <line x1="0.117171717" y1="7.88282828" x2="15.6323232" y2="7.88282828" id="直线备份" stroke="#57689C" stroke-width="0.5" stroke-linecap="round"></line>
                    <line x1="7.63232323" y1="0.242424242" x2="7.63232323" y2="15.7575758" id="直线备份-2" stroke="#57689C" stroke-width="0.5" stroke-linecap="round"></line>
                </g>
                <path d="M5.2,4.6 C5.50350953,4.6 5.78070169,4.48732198 5.99202673,4.30151572 C6.24214985,4.08159647 6.4,3.75923217 6.4,3.4 C6.4,3.11963577 6.30385211,2.86172808 6.1427305,2.6574511 C5.92298322,2.37884596 5.58237747,2.2 5.2,2.2 C4.82396113,2.2 4.48832057,2.37296571 4.2682969,2.64367854 C4.10054454,2.85007777 4,3.11329717 4,3.4 C4,3.76294604 4.16113084,4.08825795 4.41576036,4.3083036 C4.62608592,4.49006266 4.90020434,4.6 5.2,4.6 Z" id="椭圆形备份-30" fill="#57689C"></path>
                <path d="M13.2,11.2 C13.5035095,11.2 13.7807017,11.087322 13.9920267,10.9015157 C14.2421499,10.6815965 14.4,10.3592322 14.4,10 C14.4,9.71963577 14.3038521,9.46172808 14.1427305,9.2574511 C13.9229832,8.97884596 13.5823775,8.8 13.2,8.8 C12.8239611,8.8 12.4883206,8.97296571 12.2682969,9.24367854 C12.1005445,9.45007777 12,9.71329717 12,10 C12,10.362946 12.1611308,10.688258 12.4157604,10.9083036 C12.6260859,11.0900627 12.9002043,11.2 13.2,11.2 Z" id="椭圆形备份-31" fill="#57689C"></path>
            </g>
        </g>
    </g>
</svg>