<?xml version="1.0" encoding="UTF-8"?>
<svg width="20px" height="20px" viewBox="0 0 20 20" version="1.1" xmlns="http://www.w3.org/2000/svg" xmlns:xlink="http://www.w3.org/1999/xlink">
    <title>advanced settings-second menu-pressed</title>
    <g id="advanced-settings-second-menu-pressed" stroke="none" stroke-width="1" fill="none" fill-rule="evenodd">
        <rect id="矩形" fill="#D8D8D8" opacity="0" x="0" y="0" width="20" height="20"></rect>
        <g id="服务设置" transform="translate(2.000000, 3.000000)" fill="#FFFFFF">
            <g id="setting" transform="translate(0.000000, 1.500000)" fill-rule="nonzero">
                <path d="M10.8548635,6.89809699 L10.0053998,6.21055862 C10.0456034,5.97728668 10.0663537,5.73910374 10.0663537,5.50092081 C10.0663537,5.26273788 10.0456034,5.02455494 10.0053998,4.791283 L10.8548635,4.10374463 C10.9858495,3.99815838 11.0338345,3.82627379 10.9754744,3.67157766 L10.9638024,3.63965623 C10.7290651,3.01964395 10.3814982,2.44996931 9.93018012,1.946593 L9.90683608,1.92081031 C9.79530344,1.79680786 9.61503558,1.75015347 9.45162729,1.80417434 L8.3972548,2.15899325 C8.00818746,1.85696746 7.57372893,1.61878453 7.10425434,1.45181093 L6.90064243,0.408225905 C6.86951704,0.247391037 6.73593725,0.122160835 6.56604451,0.0926949048 L6.53102845,0.0865561694 C5.85534817,-0.0288520565 5.14465183,-0.0288520565 4.46897155,0.0865561694 L4.43395549,0.0926949048 C4.26406275,0.122160835 4.13048296,0.247391037 4.09935757,0.408225905 L3.89444877,1.45672192 C3.42886486,1.62369552 2.99700011,1.86065071 2.61052655,2.16144874 L1.54837271,1.80417434 C1.38626132,1.75015347 1.20469656,1.79558011 1.09316392,1.92081031 L1.06981988,1.946593 C0.618501763,2.45119705 0.270934938,3.0208717 0.0361976425,3.63965623 L0.0245256223,3.67157766 C-0.0338344788,3.82504604 0.0141504932,3.99693063 0.145136498,4.10374463 L1.00497532,4.79864948 C0.964771696,5.02946593 0.945318329,5.26519337 0.945318329,5.49969306 C0.945318329,5.7354205 0.964771696,5.97114794 1.00497532,6.20073665 L0.145136498,6.8956415 C0.0141504932,7.00122775 -0.0338344788,7.17311234 0.0245256223,7.32780847 L0.0361976425,7.3597299 C0.270934938,7.97851443 0.618501763,8.54941682 1.06981988,9.05279312 L1.09316392,9.07857581 C1.20469656,9.20257827 1.38496442,9.24923266 1.54837271,9.19521179 L2.61052655,8.83793738 C2.99700011,9.13873542 3.42886486,9.37691835 3.89444877,9.54266421 L4.09935757,10.5911602 C4.13048296,10.7519951 4.26406275,10.8772253 4.43395549,10.9066912 L4.46897155,10.91283 C4.80746013,10.9705341 5.15373007,11 5.5,11 C5.84626993,11 6.19383676,10.9705341 6.53102845,10.91283 L6.56604451,10.9066912 C6.73593725,10.8772253 6.86951704,10.7519951 6.90064243,10.5911602 L7.10425434,9.5475752 C7.57372893,9.3806016 8.00818746,9.14364641 8.3972548,8.84039288 L9.45162729,9.19521179 C9.61373868,9.24923266 9.79530344,9.20380602 9.90683608,9.07857581 L9.93018012,9.05279312 C10.3814982,8.54818907 10.7290651,7.97851443 10.9638024,7.3597299 L10.9754744,7.32780847 C11.0338345,7.17679558 10.9858495,7.00491099 10.8548635,6.89809699 L10.8548635,6.89809699 Z M6.52843467,6.35174954 C6.25349375,6.61080417 5.88906734,6.75445058 5.50129689,6.75445058 C5.11352644,6.75445058 4.74910003,6.61080417 4.47415911,6.35174954 C4.20051508,6.09146716 4.04877882,5.74647023 4.04877882,5.37937385 C4.04877882,5.01227747 4.20051508,4.66728054 4.47415911,4.40699816 C4.74910003,4.14671578 5.11352644,4.00429711 5.50129689,4.00429711 C5.88906734,4.00429711 6.25349375,4.14671578 6.52843467,4.40699816 C6.8020787,4.66728054 6.95381496,5.01227747 6.95381496,5.37937385 C6.95381496,5.74647023 6.8020787,6.09146716 6.52843467,6.35174954 Z" id="形状"></path>
            </g>
            <polygon id="多边形" opacity="0.550000012" points="13 0 14.7320508 1 14.7320508 3 13 4 11.2679492 3 11.2679492 1"></polygon>
            <polygon id="多边形备份" opacity="0.550000012" points="13 10 14.7320508 11 14.7320508 13 13 14 11.2679492 13 11.2679492 11"></polygon>
        </g>
    </g>
</svg>