<?xml version="1.0" encoding="UTF-8"?>
<svg width="20px" height="20px" viewBox="0 0 20 20" version="1.1" xmlns="http://www.w3.org/2000/svg" xmlns:xlink="http://www.w3.org/1999/xlink">
    <title>alert-statistic-second-menu</title>
    <g id="alert-statistic-second-menu" stroke="none" stroke-width="1" fill="none" fill-rule="evenodd">
        <g id="图形" transform="translate(2.000000, 2.105859)">
            <path d="M8.21786722,12.808493 C8.21786722,13.5662759 8.38136165,14.2858727 8.67500027,14.933933 L1,14.9333333 C0.44771525,14.9333333 -4.87476137e-16,14.4856181 0,13.9333333 L0,13.8 C-6.76353751e-17,13.2477153 0.44771525,12.8 1,12.8 L8.21787335,12.8004571 Z M8.68274558,10.6660417 L1,10.6666667 C0.44771525,10.6666667 -3.76453835e-16,10.2189514 0,9.66666667 L0,9.53333333 C-6.76353751e-17,8.98104858 0.44771525,8.53333333 1,8.53333333 L10.4920756,8.53271547 C9.70923341,9.06126273 9.07935808,9.7991368 8.68274558,10.6660417 Z M13.9333333,4.26666667 C14.4856181,4.26666667 14.9333333,4.71438192 14.9333333,5.26666667 L14.9333333,5.4 C14.9333333,5.95228475 14.4856181,6.4 13.9333333,6.4 L1,6.4 C0.44771525,6.4 -3.76453835e-16,5.95228475 0,5.4 L0,5.26666667 C-6.76353751e-17,4.71438192 0.44771525,4.26666667 1,4.26666667 L13.9333333,4.26666667 Z M13.9333333,0 C14.4856181,-1.01453063e-16 14.9333333,0.44771525 14.9333333,1 L14.9333333,1.13333333 C14.9333333,1.68561808 14.4856181,2.13333333 13.9333333,2.13333333 L1,2.13333333 C0.44771525,2.13333333 -3.76453835e-16,1.68561808 0,1.13333333 L0,1 C-6.76353751e-17,0.44771525 0.44771525,1.01453063e-16 1,0 L13.9333333,0 Z" id="形状结合" fill="#9FAECF"></path>
            <path d="M12.8000016,9.31641827 C14.5673119,9.31641827 16,10.749108 16,12.5164183 C16,14.2837286 14.5673119,15.7164167 12.8000016,15.7164167 C11.0326913,15.7164167 9.6000016,14.2837286 9.6000016,12.5164183 C9.59915298,11.6674656 9.93602166,10.8530394 10.5363222,10.2527388 C11.1366227,9.65243833 11.9510489,9.31556964 12.8000016,9.31641827 Z M13.0697158,13.582932 L12.5421732,13.582932 C12.4711832,13.5834302 12.4137571,13.6408563 12.4132589,13.7118462 L12.4132589,14.2393888 C12.4137571,14.3103788 12.4711832,14.3678049 12.5421732,14.3683031 L13.0697158,14.3683031 C13.1029861,14.3727751 13.1365339,14.3623332 13.1613893,14.3397694 C13.1862447,14.3172057 13.1998729,14.2848211 13.19863,14.2512745 L13.19863,13.7118462 C13.1978876,13.6409586 13.1406033,13.5836744 13.0697158,13.582932 Z M13.19863,10.6526478 L12.4013732,10.6526478 C12.3282875,10.658839 12.2721972,10.7201007 12.2724581,10.7934477 L12.3894875,13.0558466 C12.3902299,13.1267342 12.4475141,13.1840185 12.5184017,13.1847608 L13.0692586,13.1847608 C13.1401462,13.1840185 13.1974305,13.1267342 13.1981728,13.0558466 L13.3270871,10.7934477 C13.3296606,10.7575441 13.3171491,10.7223134 13.2928616,10.6957867 C13.2685741,10.6692599 13.2345806,10.6536978 13.19863,10.6526478 Z" id="形状结合" fill="#57689C" fill-rule="nonzero"></path>
        </g>
    </g>
</svg>