<?xml version="1.0" encoding="UTF-8"?>
<svg width="20px" height="20px" viewBox="0 0 20 20" version="1.1" xmlns="http://www.w3.org/2000/svg" xmlns:xlink="http://www.w3.org/1999/xlink">
    <title>alert-history-second-menu</title>
    <g id="alert-history-second-menu" stroke="none" stroke-width="1" fill="none" fill-rule="evenodd">
        <rect id="矩形" fill="#FFFFFF" opacity="0" x="0" y="0" width="20" height="20"></rect>
        <g id="编组" transform="translate(2.977704, 2.000000)">
            <path d="M13.0818888,14.133013 C14.5578104,12.9193843 15.0222963,11.4628676 15.0222963,9.37931034 C15.0222963,5.72280442 12.1145817,2.75862069 8.52773387,2.75862069 L8.52773387,9.48621649 L13.0818888,14.133013 Z" id="路径" fill="#9FAECF"></path>
            <path d="M3.8843079,14.0081942 C5.0634004,15.2372063 6.70818415,16 8.52773387,16 C12.1145817,16 15.0222963,13.0358163 15.0222963,9.37931034 C15.0222963,5.72280442 12.1145817,2.75862069 8.52773387,2.75862069 C4.94088606,2.75862069 2.0331714,5.72280442 2.0331714,9.37931034" id="路径备份-6" stroke="#57689C" stroke-width="1.2" stroke-linecap="round" stroke-linejoin="round"></path>
            <g id="编组-2" transform="translate(7.072053, 5.800000)" fill="#57689C">
                <path d="M1.82440781,5.80943616 L1.82440781,4.93861112 C1.82320942,4.82417387 1.73073264,4.73169709 1.61629539,4.7304987 L0.764658023,4.7304987 C0.650055493,4.73130296 0.557349858,4.82400859 0.5565456,4.93861112 L0.5565456,5.79024848 C0.557349858,5.90485101 0.650055493,5.99755665 0.764658023,5.99836091 L1.61629539,5.99836091 C1.67000532,6.00558027 1.72416317,5.98872351 1.76428845,5.95229772 C1.80441373,5.91587193 1.82641433,5.86359195 1.82440781,5.80943616 Z" id="路径"></path>
                <path d="M1.97653028,0.0696411658 C1.93732183,0.0268177606 1.88244445,0.00169510388 1.82440763,0 L0.537357747,0 C0.419372015,0.00999475271 0.328822745,0.108892537 0.329245324,0.227300093 L0.518170077,3.87959932 C0.519368471,3.99403657 0.611845249,4.08651335 0.7262825,4.08771175 L1.61555722,4.08771175 C1.72999447,4.08651335 1.82247125,3.99403657 1.82366964,3.87959932 L2.03178206,0.227300093 C2.03593671,0.169339138 2.01573872,0.112464571 1.97653028,0.0696411658 Z" id="路径"></path>
            </g>
            <polyline id="路径-4备份-6" stroke="#57689C" stroke-width="1.2" stroke-linecap="round" stroke-linejoin="round" transform="translate(2.375109, 7.519596) rotate(-45.000000) translate(-2.375109, -7.519596) " points="0.687136134 5.88018942 0.655604339 9.15900245 4.09461278 9.12593009"></polyline>
            <line x1="8.52773387" y1="2.20689655" x2="8.52773387" y2="1.10344828" id="直线-4" stroke="#57689C" stroke-width="1.2" stroke-linecap="round" stroke-linejoin="round"></line>
            <line x1="6.36287972" y1="0.551724138" x2="10.692588" y2="0.551724138" id="直线-2" stroke="#57689C" stroke-width="1.2" stroke-linecap="round" stroke-linejoin="round"></line>
        </g>
    </g>
</svg>