<?xml version="1.0" encoding="UTF-8"?>
<svg width="20px" height="20px" viewBox="0 0 20 20" version="1.1" xmlns="http://www.w3.org/2000/svg" xmlns:xlink="http://www.w3.org/1999/xlink">
    <title>alert-rules-second-menu</title>
    <g id="alert-rules-second-menu" stroke="none" stroke-width="1" fill="none" fill-rule="evenodd">
        <g id="Alert-rules">
            <g id="编组-22" transform="translate(10.000000, 10.000000) scale(-1, 1) translate(-10.000000, -10.000000) ">
                <rect id="矩形" x="0" y="0" width="20" height="20"></rect>
                <path d="M11.3310382,2.00075573 L16.9990382,7.66775573 L17,15.9340445 C17,16.4863293 16.5522847,16.9340445 16,16.9340445 L5.20003818,16.9340445 C4.64775343,16.9340445 4.20003818,16.4863293 4.20003818,15.9340445 L4.20003818,3.00075573 C4.20003818,2.44847098 4.64775343,2.00075573 5.20003818,2.00075573 L11.3310382,2.00075573 Z M14.9333413,9.40073186 L10.6571749,9.40073186 L10.6571749,10.6007319 L14.9333413,10.6007319 L14.9333413,9.40073186 Z M12.3428728,5.13407793 L5.6571749,5.13407793 L5.6571749,6.33407793 L12.3428728,6.33407793 L12.3428728,5.13407793 Z" id="形状" fill="#57689C" fill-rule="nonzero" opacity="0.55"></path>
                <path d="M16.001,2.00000549 C16.5532847,2.00000549 17.001,2.44772074 17.001,3.00000549 L17.0007502,7.66824976 L11.3317502,1.99924976 L16.001,2.00000549 Z" id="形状结合" fill="#57689C" transform="translate(14.166375, 4.833750) rotate(-180.000000) translate(-14.166375, -4.833750) "></path>
            </g>
            <path d="M13.1991662,10.008079 C13.3196689,10.085545 13.4221211,10.1879972 13.4995871,10.3084999 L17.4536359,16.4592424 C17.7522881,16.9238125 17.6177851,17.5425263 17.153215,17.8411785 C16.9919177,17.9448696 16.8042091,18 16.6124574,18 L8.70435986,18 C8.15207511,18 7.70435986,17.5522847 7.70435986,17 C7.70435986,16.8082484 7.75949024,16.6205397 7.86318139,16.4592424 L11.8172302,10.3084999 C12.1158823,9.84392981 12.7345962,9.7094268 13.1991662,10.008079 Z M12.65,15.5 C12.3186292,15.5 12.05,15.7686292 12.05,16.1 C12.05,16.4313708 12.3186292,16.7 12.65,16.7 C12.9813708,16.7 13.25,16.4313708 13.25,16.1 C13.25,15.7686292 12.9813708,15.5 12.65,15.5 Z M12.65,11.5321465 C12.3186291,11.5321465 12.0778967,11.8007756 12.1123091,12.1321465 L12.3853547,14.7614145 C12.3994341,14.8969907 12.5136947,15 12.65,15 C12.7863053,15 12.9005659,14.8969907 12.9146453,14.7614145 L13.1876909,12.1321465 C13.2221033,11.8007756 12.9813709,11.5321465 12.65,11.5321465 Z" id="形状结合备份-2" fill="#57689C"></path>
        </g>
    </g>
</svg>