<?xml version="1.0" encoding="UTF-8"?>
<svg width="20px" height="20px" viewBox="0 0 20 20" version="1.1" xmlns="http://www.w3.org/2000/svg" xmlns:xlink="http://www.w3.org/1999/xlink">
    <title>alert-ledger-second-menu</title>
    <g id="HyperInsight-lydia" stroke="none" stroke-width="1" fill="none" fill-rule="evenodd">
        <g id="alert-ledger-second-menu">
            <polygon id="路径" fill="#D8D8D8" fill-rule="nonzero" opacity="0.001" points="0 0 20 0 20 20 0 20"></polygon>
            <g id="编组-7" transform="translate(1.818182, 1.545455)">
                <path d="M4.59014989,0.000856541087 C4.81027838,0.000856541087 4.91905783,0.110492512 4.91905781,0.329764454 L4.91905781,1.25738758 L8.20214131,1.25738758 L8.20214131,0.329764454 C8.20214131,0.110492512 8.31263383,0.000856522685 8.5301927,0.000856541087 L9.84411135,0.000856541087 C10.0633833,0.000856541087 10.1721627,0.110492512 10.1721627,0.329764454 L10.1721627,1.25824412 L12.3546038,1.25824412 C12.785439,1.25824412 13.1340471,1.59828693 13.1340471,2.01884368 L13.1352023,7.28919961 C12.7905708,7.2051548 12.4304672,7.16059957 12.0599572,7.16059957 C9.56225826,7.16059957 7.53747323,9.1853846 7.53747323,11.6830835 C7.53747323,12.9140923 8.02931004,14.0302264 8.82719517,14.8456973 L0.746895068,14.8453961 C0.339776171,14.8501585 0.00564008852,14.5244524 0,14.1173448 L0,2.01713063 C0.00517332949,1.59171135 0.35401912,1.25091583 0.779443243,1.25567451 L2.94817986,1.25567451 L2.94817986,0.328907931 C2.94817986,0.108779448 3.05867237,0 3.27708779,0 L4.59014989,0.000856541087 Z M5.86466809,7.28051392 L2.22441113,7.28051392 C1.90412833,7.2786533 1.63762147,7.52618619 1.61586498,7.8457346 C1.5941085,8.16528301 1.82460484,8.44665442 2.14218414,8.48822271 L2.22441113,8.49421842 L5.86466809,8.49421842 C6.19982333,8.49421842 6.47152034,8.22252141 6.47152034,7.88736617 C6.47152034,7.55221093 6.19982333,7.28051392 5.86466809,7.28051392 Z M9.10064239,4.04453961 L2.22441113,4.04453961 C1.90412833,4.04267898 1.63762147,4.29021187 1.61586498,4.60976028 C1.5941085,4.9293087 1.82460484,5.2106801 2.14218414,5.25224839 L2.22441113,5.25824412 L9.10064239,5.25824412 C9.43579763,5.25824412 9.70749464,4.98654711 9.70749464,4.65139186 C9.70749464,4.31623662 9.43579763,4.04453961 9.10064239,4.04453961 Z" id="形状结合" fill="#9FAECF"></path>
                <g id="监控" transform="translate(8.736617, 8.462527)" fill="#57689C">
                    <path d="M3.25188131,0 C5.06087488,0 6.50376262,1.44288773 6.50376262,3.25188131 C6.50376262,4.6732334 5.59926583,5.87922912 4.30712756,6.33147752 C4.97473233,6.57913735 5.39467727,7.02061793 5.39467727,7.53747323 L1.0229428,7.53747323 C1.0229428,7.02061793 1.47519119,6.56836953 2.1643316,6.33147752 C0.904496788,5.87922912 0,4.6732334 0,3.25188131 C0,1.44288773 1.44288773,0 3.25188131,0 Z M3.31648822,2.26124197 C2.37968798,2.26124197 1.5936372,3.04729275 1.5936372,3.98409299 C1.5936372,4.92089324 2.37968798,5.70694402 3.31648822,5.70694402 C4.28559192,5.70694402 5.03933925,4.92089324 5.03933925,3.98409299 C5.03933925,3.04729275 4.2748241,2.26124197 3.31648822,2.26124197 Z M3.31648822,3.23034567 C3.76873662,3.23034567 4.1563781,3.59645151 4.1563781,4.07023555 C4.1563781,4.52248394 3.79027225,4.91012542 3.31648822,4.91012542 C2.86423983,4.91012542 2.47659835,4.54401958 2.47659835,4.07023555 C2.47659835,3.61798715 2.86423983,3.23034567 3.31648822,3.23034567 Z" id="形状结合"></path>
                </g>
            </g>
        </g>
    </g>
</svg>