<?xml version="1.0" encoding="UTF-8"?>
<svg width="20px" height="20px" viewBox="0 0 20 20" version="1.1" xmlns="http://www.w3.org/2000/svg" xmlns:xlink="http://www.w3.org/1999/xlink">
    <title>alibaba-ecs-second-menu</title>
    <g id="alibaba-ecs-second-menu" stroke="none" stroke-width="1" fill="none" fill-rule="evenodd">
        <rect id="矩形" fill="#FFFFFF" opacity="0" x="0" y="0" width="20" height="20"></rect>
        <g id="资源实例" transform="translate(0.000000, 2.000000)">
            <rect id="矩形" fill="#FFFFFF" opacity="0" x="2" y="0" width="16" height="16"></rect>
            <path d="M10,0.8 C12.4175968,0.8 14.5000801,2.1007237 15.4998932,4.05075495 C18.083498,4.37447155 20,6.40601116 20,8.92537748 C20,11.6060684 17.7496128,13.8 15,13.8 L4.16747663,13.8 C1.83348465,13.8 0,12.0118921 0,9.73637409 C0,7.62465375 1.74985314,5.83711861 3.83359147,5.67462252 C4.41711616,2.91242321 6.91711617,0.8 10,0.8 Z M14,10.5176471 L6,10.5176471 L6,12.3176471 L14,12.3176471 L14,10.5176471 Z M13.1,11.02 L13.1,11.82 L12.3,11.82 L12.3,11.02 L13.1,11.02 Z M14,8.21764706 L6,8.21764706 L6,10.0176471 L14,10.0176471 L14,8.21764706 Z M13.1,8.72 L13.1,9.52 L12.3,9.52 L12.3,8.72 L13.1,8.72 Z M14,5.91764706 L6,5.91764706 L6,7.71764706 L14,7.71764706 L14,5.91764706 Z M13.1,6.45 L13.1,7.25 L12.3,7.25 L12.3,6.45 L13.1,6.45 Z" id="形状结合" fill="#57689C"></path>
        </g>
    </g>
</svg>