<?xml version="1.0" encoding="UTF-8"?>
<svg width="20px" height="20px" viewBox="0 0 20 20" version="1.1" xmlns="http://www.w3.org/2000/svg" xmlns:xlink="http://www.w3.org/1999/xlink">
    <title>alibaba-cloud-disk-second-menu</title>
    <defs>
        <linearGradient x1="87.4278771%" y1="8.16452323%" x2="12.5721229%" y2="100%" id="linearGradient-1">
            <stop stop-color="#FFFFFF" offset="0%"></stop>
            <stop stop-color="#FFFFFF" stop-opacity="0" offset="100%"></stop>
        </linearGradient>
    </defs>
    <g id="alibaba-cloud-disk-second-menu" stroke="none" stroke-width="1" fill="none" fill-rule="evenodd">
        <g id="编组">
            <rect id="矩形" fill-opacity="0" fill="#D8D8D8" x="0" y="0" width="20" height="20"></rect>
            <path d="M9.66838174,3.02091427 C11.7022583,3.1939607 13.4901934,4.43634529 14.3615529,6.28217382 C16.9633767,6.42563966 18.9995774,8.57678209 19.0000012,11.1824091 C19.0000012,11.3021357 18.9957143,11.4208615 18.9872854,11.5384413 C18.8617282,11.5128587 18.7323658,11.5 18.6,11.5 L11.4,11.5 C10.2954305,11.5 9.4,12.3954305 9.4,13.5 L9.399,16.09 L5.09332162,16.0906745 C2.83442135,16.0923637 1.00169279,14.2623819 1.00000123,12.0034816 C0.998734729,10.3668301 1.97341502,8.88695566 3.47758779,8.24146502 C3.74550338,5.09028752 6.51720423,2.75299869 9.66838174,3.02091427 Z" id="形状结合" fill="#57689C" fill-rule="nonzero"></path>
            <path d="M14.2638575,5.63747945 L15.1832077,6.03091962 C14.3850123,7.89606015 13.1894834,9.36157905 11.6019017,10.4164504 L11.0484794,9.5835496 C12.4708983,8.63842095 13.5409309,7.32673954 14.2638575,5.63747945 Z" id="路径-35" fill="url(#linearGradient-1)" fill-rule="nonzero"></path>
            <path d="M17.6069829,13.0010715 C17.9804473,12.9859968 18.3431161,13.1305362 18.6074025,13.3997827 C18.8716889,13.6690291 19.0135657,14.0385044 18.9987686,14.4189778 L18.9987686,16.6965917 C19.0148722,17.0792347 18.8724347,17.4511664 18.6062256,17.7215967 C18.3400165,17.992027 17.9745305,18.136073 17.5989841,18.1185725 L15.5592981,18.1185725 C15.6232883,17.8578081 15.6792797,17.6133415 15.7472692,17.3729493 C15.7592673,17.3403538 15.8112593,17.3036838 15.8512532,17.3036838 L17.4989995,16.9329094 C17.7138916,16.9052828 17.8681439,16.7083972 17.846946,16.4887951 L17.846946,14.6308489 C17.8682914,14.4126365 17.7162798,14.2163547 17.5029989,14.1867345 L15.8672507,13.8200346 C15.7986152,13.8152529 15.7422674,13.7629128 15.7312716,13.6937269 C15.683279,13.4696325 15.6272877,13.2455381 15.5672969,13.0010715 Z M14.4314717,13.0092204 C14.371481,13.2577614 14.3154896,13.502228 14.2475001,13.7426202 C14.2395013,13.7752158 14.1755111,13.8159602 14.1355173,13.8159602 L12.4997691,14.1867345 C12.286573,14.2143484 12.1329136,14.4086779 12.1518227,14.6267744 L12.1518227,16.496944 C12.1372074,16.7106347 12.2875066,16.8993639 12.4957697,16.928835 L14.1435161,17.3036838 C14.1895069,17.3133815 14.2289914,17.3431782 14.2514995,17.3851726 C14.319489,17.6214904 14.371481,17.865957 14.4354711,18.1185725 L12.3197968,18.1185725 C11.5973303,18.1142218 11.0108681,17.5221845 11,16.7862295 L11,14.3089678 C11.0266538,13.6026904 11.5825371,13.0363745 12.2758036,13.0092204 Z M16.0057493,15.24 C16.1194973,15.24 16.1194973,15.3769889 16.1194973,15.5710565 L16.1190365,15.6652363 C16.1134412,15.8079331 16.0831611,15.8792815 16.0199678,15.8792815 L14.3184875,15.8792815 C14.2,15.8906972 14.2,15.7651241 14.2,15.5710565 L14.2002764,15.4916122 C14.2019345,15.3406449 14.2135414,15.24 14.29479,15.24 Z" id="形状结合" fill="#57689C" opacity="0.550000012"></path>
        </g>
    </g>
</svg>