<?xml version="1.0" encoding="UTF-8"?>
<svg width="20px" height="20px" viewBox="0 0 20 20" version="1.1" xmlns="http://www.w3.org/2000/svg" xmlns:xlink="http://www.w3.org/1999/xlink">
    <title>alibaba-ecs-second-menu</title>
    <g id="alibaba-ecs-second-menu" stroke="none" stroke-width="1" fill="none" fill-rule="evenodd">
        <rect id="矩形" fill="#FFFFFF" opacity="0" x="0" y="0" width="20" height="20"></rect>
        <g id="资源实例" transform="translate(0.500000, 2.000000)">
            <rect id="矩形" fill="#FFFFFF" opacity="0" x="1.5" y="0" width="16" height="16"></rect>
            <path d="M9.5,1.4 C11.796717,1.4 13.7750761,2.7007237 14.7248985,4.65075495 C17.1793231,4.97447155 19,7.00601116 19,9.52537748 C19,12.2060684 16.8621322,14.4 14.25,14.4 L3.9591028,14.4 C1.74181042,14.4 0,12.6118921 0,10.3363741 C0,8.22465375 1.66236048,6.43711861 3.6419119,6.27462252 C4.19626035,3.51242321 6.57126036,1.4 9.5,1.4 Z M13.5,11.1176471 L5.5,11.1176471 L5.5,12.9176471 L13.5,12.9176471 L13.5,11.1176471 Z M12.6,11.62 L12.6,12.42 L11.8,12.42 L11.8,11.62 L12.6,11.62 Z M13.5,8.81764706 L5.5,8.81764706 L5.5,10.6176471 L13.5,10.6176471 L13.5,8.81764706 Z M12.6,9.32 L12.6,10.12 L11.8,10.12 L11.8,9.32 L12.6,9.32 Z M13.5,6.51764706 L5.5,6.51764706 L5.5,8.31764706 L13.5,8.31764706 L13.5,6.51764706 Z M12.6,7.05 L12.6,7.85 L11.8,7.85 L11.8,7.05 L12.6,7.05 Z" id="形状结合" fill="#57689C"></path>
        </g>
    </g>
</svg>