<?xml version="1.0" encoding="UTF-8"?>
<svg width="20px" height="20px" viewBox="0 0 20 20" version="1.1" xmlns="http://www.w3.org/2000/svg" xmlns:xlink="http://www.w3.org/1999/xlink">
    <title>alibaba-cloud-elastic -public-ip-second-menu</title>
    <g id="alibaba-cloud-elastic--public-ip-second-menu" stroke="none" stroke-width="1" fill="none" fill-rule="evenodd">
        <rect id="矩形" fill-opacity="0" fill="#D8D8D8" x="0" y="0" width="20" height="20"></rect>
        <g id="服务名" transform="translate(1.420000, 2.000000)">
            <rect id="矩形" fill-opacity="0" fill="#D8D8D8" x="0.58" y="0" width="16" height="16"></rect>
            <g id="编组" transform="translate(0.000000, 2.021320)" fill="#57689C">
                <path d="M6.74518519,0.732233047 C7.72149592,-0.244077682 9.30440837,-0.244077682 10.2807191,0.732233047 L13.816253,4.26776695 L12.4020394,5.68198052 L8.86650553,2.14644661 C8.67124339,1.95118446 8.3546609,1.95118446 8.15939875,2.14644661 L7.45229197,2.85355339 C7.25702983,3.04881554 7.25702983,3.36539803 7.45229197,3.56066017 L7.62624472,3.73461292 C7.69305265,3.80142086 7.73528031,3.84364851 7.77845337,3.88682157 L7.93633439,4.04470259 L6.52212083,5.45891616 C6.49859099,5.43538632 6.47800238,5.41479771 6.45940961,5.39620493 L6.32043649,5.25723181 C6.29018384,5.22697916 6.25656978,5.19336511 6.21203115,5.14882648 L6.03807841,4.97487373 C5.06176768,3.998563 5.06176768,2.41565056 6.03807841,1.43933983 L6.74518519,0.732233047 Z" id="路径" fill-rule="nonzero" opacity="0.550000012"></path>
                <path d="M10.0408008,6.13165455 L10.816253,6.90710678 C11.7925637,7.88341751 11.7925637,9.46632996 10.816253,10.4426407 L10.1091462,11.1497475 C9.13283549,12.1260582 7.54992304,12.1260582 6.57361231,11.1497475 L3.03807841,7.61421356 L4.45229197,6.2 L7.98782588,9.73553391 C8.18308802,9.93079605 8.49967051,9.93079605 8.69493266,9.73553391 L9.40203944,9.02842712 C9.59730159,8.83316498 9.59730159,8.51658249 9.40203944,8.32132034 C9.27213359,8.1914145 9.17765662,8.09693752 9.10287807,8.02215897 L8.92190728,7.84118819 C8.90486991,7.82415081 8.88827342,7.80755433 8.87153522,7.79081612 L8.62658721,7.54586811 L10.0408008,6.13165455 Z M9.14888966,5.23974344 L9.47139554,5.56224932 C9.53488636,5.62574014 9.61790233,5.70875611 9.74242628,5.83328006 L8.32821272,7.24749362 C8.16218078,7.08146169 8.06994082,6.98922173 7.99938536,6.91866627 L7.7346761,6.65395701 L9.14888966,5.23974344 Z M8.28013042,4.3709842 L8.82528078,4.91613456 L7.41106721,6.33034812 C7.09040993,6.00969084 7.09040993,6.00969084 6.86591686,5.78519777 L8.28013042,4.3709842 Z" id="形状" fill-rule="nonzero" opacity="0.550000012"></path>
                <path d="M11,6.00064453 L13.8284271,3.17221741 L17.2457528,6.58954305 L15.1527606,8.67819536 L14.2775473,7.80298205 L12.8288881,7.82953259 L11,6.00064453 Z M6.24575277,6.58954305 L3.41732564,9.41797017 L1.0658141e-14,6.00064453 L2.09299216,3.91199222 L2.96820547,4.78720553 L4.41686471,4.76065499 L6.24575277,6.58954305 Z" id="形状结合"></path>
            </g>
        </g>
    </g>
</svg>