<?xml version="1.0" encoding="UTF-8"?>
<svg width="20px" height="20px" viewBox="0 0 20 20" version="1.1" xmlns="http://www.w3.org/2000/svg" xmlns:xlink="http://www.w3.org/1999/xlink">
    <title>alibaba-cloud-snapshot-second-menu</title>
    <g id="alibaba-cloud-snapshot-second-menu" stroke="none" stroke-width="1" fill="none" fill-rule="evenodd">
        <g id="图标">
            <rect id="矩形" fill-opacity="0" fill="#D8D8D8" x="0" y="0" width="20" height="20"></rect>
            <g id="编组" transform="translate(2.000000, 3.000000)" fill="#57689C">
                <path d="M10.381966,0 C10.7607381,0 11.1070012,0.214002376 11.2763932,0.552786405 L12,2 L15,2 C15.5522847,2 16,2.44771525 16,3 L16,7.5 L11.5,7.5 C11.5,5.56700338 9.93299662,4 8,4 C6.06700338,4 4.5,5.56700338 4.5,7.5 C4.5,9.08556977 5.55433459,10.4248865 7.00016263,10.8551091 L7,12.5 C7,12.6730179 7.02196989,12.8409045 7.06327212,13.0010222 L1,13 C0.44771525,13 0,12.5522847 0,12 L0,3 C0,2.44771525 0.44771525,2 1,2 L3.999,2 L4.7236068,0.552786405 C4.89299881,0.214002376 5.23926193,0 5.61803399,0 L10.381966,0 Z M8,5.5 C9.1045695,5.5 10,6.3954305 10,7.5 L9,7.5 C7.98312204,7.5 7.14349422,8.25889809 7.01658759,9.24122323 C6.40986724,8.8988832 6,8.24730641 6,7.5 C6,6.3954305 6.8954305,5.5 8,5.5 Z" id="形状"></path>
                <path d="M15.6069829,9.0010715 C15.9804473,8.98599676 16.3431161,9.1305362 16.6074025,9.39978265 C16.8716889,9.66902911 17.0135657,10.0385044 16.9987686,10.4189778 L16.9987686,12.6965917 C17.0148722,13.0792347 16.8724347,13.4511664 16.6062256,13.7215967 C16.3400165,13.992027 15.9745305,14.136073 15.5989841,14.1185725 L13.5592981,14.1185725 C13.6232883,13.8578081 13.6792797,13.6133415 13.7472692,13.3729493 C13.7592673,13.3403538 13.8112593,13.3036838 13.8512532,13.3036838 L15.4989995,12.9329094 C15.7138916,12.9052828 15.8681439,12.7083972 15.846946,12.4887951 L15.846946,10.6308489 C15.8682914,10.4126365 15.7162798,10.2163547 15.5029989,10.1867345 L13.8672507,9.82003464 C13.7986152,9.81525293 13.7422674,9.76291281 13.7312716,9.69372689 C13.683279,9.4696325 13.6272877,9.24553811 13.5672969,9.0010715 Z M12.4314717,9.00922039 C12.371481,9.25776144 12.3154896,9.50222805 12.2475001,9.74262021 C12.2395013,9.77521576 12.1755111,9.81596019 12.1355173,9.81596019 L10.4997691,10.1867345 C10.286573,10.2143484 10.1329136,10.4086779 10.1518227,10.6267744 L10.1518227,12.496944 C10.1372074,12.7106347 10.2875066,12.8993639 10.4957697,12.928835 L12.1435161,13.3036838 C12.1895069,13.3133815 12.2289914,13.3431782 12.2514995,13.3851726 C12.319489,13.6214904 12.371481,13.865957 12.4354711,14.1185725 L10.3197968,14.1185725 C9.59733034,14.1142218 9.01086809,13.5221845 9,12.7862295 L9,10.3089678 C9.02665384,9.6026904 9.58253714,9.03637447 10.2758036,9.00922039 Z M14.0057493,11.24 C14.1194973,11.24 14.1194973,11.3769889 14.1194973,11.5710565 L14.1190365,11.6652363 C14.1134412,11.8079331 14.0831611,11.8792815 14.0199678,11.8792815 L12.3184875,11.8792815 C12.2,11.8906972 12.2,11.7651241 12.2,11.5710565 L12.2002764,11.4916122 C12.2019345,11.3406449 12.2135414,11.24 12.29479,11.24 Z" id="形状结合" opacity="0.550000012"></path>
            </g>
        </g>
    </g>
</svg>