<?xml version="1.0" encoding="UTF-8"?>
<svg width="20px" height="20px" viewBox="0 0 20 20" version="1.1" xmlns="http://www.w3.org/2000/svg" xmlns:xlink="http://www.w3.org/1999/xlink">
    <title>alisql-second-menu</title>
    <g id="alisql-second-menu" stroke="none" stroke-width="1" fill="none" fill-rule="evenodd">
        <rect id="矩形" fill-opacity="0" fill="#D8D8D8" x="0" y="0" width="20" height="20"></rect>
        <g id="编组" transform="translate(1.888668, 1.400000)">
            <rect id="矩形" fill-opacity="0" fill="#D8D8D8" x="0.11133204" y="1.09529946" width="16" height="16"></rect>
            <path d="M5.32,14.455 L7.54729584,15.7414068 C7.58384487,15.7625084 7.62463451,15.7730592 7.66542416,15.7730592 L7.66542416,17.190599 C7.37989664,17.190599 7.09436913,17.1167434 6.83852593,16.9690323 L3.902,15.274 L5.32,14.455 Z M8.49232239,0.221566714 L11.247,1.812 L9.848,2.619 L8.91342543,3.15349088 C11.085276,4.87762901 12.4706722,7.42876339 12.7160279,10.2184071 C13.1229499,10.0465676 13.5243462,9.85197343 13.9173569,9.63567241 L13.946,9.687 L15.33,9.687 L15.33,10.485 L11.314,10.485 L11.309753,10.4092143 C11.1042953,7.85998684 9.79484345,5.53808542 7.74294419,4.04387017 L7.63951874,3.97106202 C5.54406555,5.57080102 4.2723161,8.04402943 4.20647958,10.7000322 L4.20557195,10.794478 C5.33772107,11.1024905 6.50167826,11.2548631 7.66522424,11.25167 L7.66550904,12.6692139 C6.52023583,12.6720716 5.37462951,12.538988 4.25368575,12.2699057 L4.32281475,13.880068 L2.902,14.696 L0.827007959,13.4982808 C0.315321551,13.2028585 0.000109724999,12.6568956 0.000109724999,12.066051 L0,9.687 L1.309,9.687 L1.33834398,9.63410946 L1.39403917,9.66442995 C1.85381986,9.91473481 2.3248841,10.1354275 2.80455965,10.3265141 C2.96510292,7.54955223 4.2594042,4.97121662 6.35790371,3.18419592 L5.4214239,2.63873219 L4.04,1.837 L6.83852593,0.221566714 C7.35021233,-0.0738555713 7.98063599,-0.0738555713 8.49232239,0.221566714 Z M1.41728639,11.2667617 L1.41764955,12.066051 C1.41764955,12.1504574 1.46267982,12.2284521 1.53577787,12.2706553 L2.867,13.039 L2.81606168,11.84478 C2.3424951,11.6775526 1.87556261,11.4848814 1.41728639,11.2667617 Z M12.247,2.389 L14.5038404,3.69231823 C15.0155268,3.98774052 15.3307386,4.53370341 15.3307386,5.12454798 L15.33,8.687 L13.913,8.687 L13.9131988,5.12454798 C13.9131988,5.04014162 13.8681685,4.96214692 13.7950704,4.91994373 L10.83,3.207 L12.247,2.389 Z M3.04,2.414 L4.457,3.232 L1.53577787,4.91994373 C1.46267982,4.96214692 1.41764955,5.04014162 1.41764955,5.12454798 L1.417,8.687 L0,8.687 L0.000109724999,5.12454798 C0.000109724999,4.53370341 0.315321551,3.98774052 0.827007959,3.69231823 L3.04,2.414 Z M7.54729584,1.44919222 L6.868,1.841 L7.60987319,2.27320011 C7.71288628,2.20964523 7.81728428,2.14777077 7.92304078,2.08762447 L8.409,1.81 L7.78355248,1.44919222 C7.71045442,1.40698903 7.6203939,1.40698903 7.54729584,1.44919222 Z" id="形状结合" fill="#57689C" fill-rule="nonzero"></path>
            <path d="M15.3634638,11.5963459 C15.7281751,11.5816244 16.0823439,11.7227762 16.3404361,11.9857122 C16.5985283,12.2486482 16.7370798,12.6094639 16.7226295,12.98102 L16.7226295,15.2052523 C16.7383557,15.5789271 16.5992565,15.9421416 16.3392867,16.2062337 C16.0793169,16.4703259 15.722397,16.6109958 15.3556525,16.5939054 L13.3637716,16.5939054 C13.426262,16.3392527 13.4809411,16.1005158 13.5473371,15.8657578 C13.5590541,15.8339262 13.6098275,15.7981157 13.648884,15.7981157 L15.2580113,15.4360313 C15.4678668,15.4090522 15.6185038,15.2167811 15.5978027,15.0023259 L15.5978978,13.1092935 C15.5806007,12.92945 15.4441637,12.7795301 15.2619169,12.7542199 L13.6645066,12.3961145 C13.5974797,12.3914449 13.5424526,12.3403315 13.5317145,12.2727671 C13.4848467,12.053925 13.4301676,11.8350828 13.3715829,11.5963459 Z M12.2623787,11.6043038 C12.2037939,11.8470196 12.1491149,12.0857565 12.0827188,12.3205145 C12.0749075,12.3523461 12.0124171,12.3921356 11.9733607,12.3921356 L10.3759503,12.7542199 C10.167751,12.7811865 10.017693,12.9709615 10.0361589,13.1839464 L10.0361589,15.0102838 C10.0218862,15.2189661 10.1686627,15.403272 10.3720447,15.4320524 L11.981172,15.7981157 C12.0260848,15.8075861 12.064644,15.8366845 12.0866245,15.8776946 C12.1530205,16.1084737 12.2037939,16.3472106 12.2662843,16.5939054 L10.2001961,16.5939054 C9.49466245,16.5896567 8.92194541,16.0114953 8.91133204,15.2927892 L8.91133204,12.8735884 C8.93736118,12.1838643 9.48021597,11.6308214 10.157234,11.6043038 Z M13.7997591,13.7827995 C13.9108411,13.7827995 13.9108411,13.9165777 13.9108411,14.1060968 L13.9103911,14.1980693 C13.904927,14.3374216 13.8753566,14.4070978 13.8136443,14.4070978 L12.1520425,14.4070978 C12.036332,14.418246 12.036332,14.2956159 12.036332,14.1060968 L12.0366019,14.0285145 C12.0382212,13.8810855 12.0495561,13.7827995 12.1289004,13.7827995 Z" id="形状结合" fill="#57689C" opacity="0.550000012"></path>
        </g>
    </g>
</svg>