<?xml version="1.0" encoding="UTF-8"?>
<svg width="20px" height="20px" viewBox="0 0 20 20" version="1.1" xmlns="http://www.w3.org/2000/svg" xmlns:xlink="http://www.w3.org/1999/xlink">
    <title>AMQ-second menu-pressed</title>
    <g id="AMQ-second-menu-pressed" stroke="none" stroke-width="1" fill="none" fill-rule="evenodd">
        <g id="图形" fill="#FFFFFF">
            <rect id="矩形" opacity="0" x="0" y="0" width="20" height="20"></rect>
            <path d="M16.1703704,8.26944444 C16.7226551,8.26944444 17.1703704,8.71715969 17.1703704,9.26944444 L17.1703704,16.9111111 C17.1703704,17.4633959 16.7226551,17.9111111 16.1703704,17.9111111 L3.66666667,17.9111111 C3.11438192,17.9111111 2.66666667,17.4633959 2.66666667,16.9111111 L2.66666667,8.26944444 L8.10555556,8.31064815 L11.5666667,8.31064815 L11.5666667,8.26944444 Z M13.8327295,10.4027924 L13.7092593,10.412037 C13.0087963,10.4944444 12.5555556,11.1537037 12.637963,11.812963 C12.7203704,12.5134259 13.3796296,12.9666667 14.0388889,12.8842593 C14.574537,12.8018519 15.0277778,12.3486111 15.1101852,11.812963 L15.1101852,11.4833333 C15.0277778,10.7828704 14.3685185,10.3296296 13.7092593,10.412037 Z" id="形状结合" fill-rule="nonzero" opacity="0.550000012"></path>
            <path d="M11.5666667,3.81944444 C11.5666667,2.87175926 10.7837963,2.13009259 9.83611111,2.08888889 C8.88842593,2.08888889 8.14675926,2.87175926 8.10555556,3.81944444 L8.19435125,8.26944444 L6.12777778,8.31064815 L6.12777778,3.81944444 C6.12777778,2.87175926 5.34490741,2.13009259 4.39722222,2.13009259 C3.44953704,2.13009259 2.70787037,2.91296296 2.66666667,3.81944444 L2.66666667,8.31064815 L11.5666667,8.26944444 L11.5666667,8.18515062 L11.5666667,3.81944444 Z" id="路径" fill-rule="nonzero"></path>
        </g>
    </g>
</svg>