<?xml version="1.0" encoding="UTF-8"?>
<svg width="20px" height="20px" viewBox="0 0 20 20" version="1.1" xmlns="http://www.w3.org/2000/svg" xmlns:xlink="http://www.w3.org/1999/xlink">
    <title>AMQ-second menu-normal</title>
    <g id="AMQ-second-menu-normal" stroke="none" stroke-width="1" fill="none" fill-rule="evenodd">
        <rect id="矩形" fill-opacity="0" fill="#D8D8D8" x="0" y="0" width="20" height="20"></rect>
        <g id="图形" transform="translate(2.666667, 2.088889)" fill-rule="nonzero">
            <path d="M7.16944444,0 C8.11712963,0.0412037037 8.9,0.78287037 8.9,1.73055556 L8.9,6.18055556 L13.5037037,6.18055556 C14.0559885,6.18055556 14.5037037,6.62827081 14.5037037,7.18055556 L14.5037037,14.8222222 C14.5037037,15.374507 14.0559885,15.8222222 13.5037037,15.8222222 L1,15.8222222 C0.44771525,15.8222222 -4.33869274e-17,15.374507 0,14.8222222 L0,1.73055556 C0.0412037037,0.824074074 0.78287037,0.0412037037 1.73055556,0.0412037037 C2.67824074,0.0412037037 3.46111111,0.78287037 3.46111111,1.73055556 L3.46111111,6.22175926 L5.43888889,6.22175926 L5.43888889,1.73055556 C5.48009259,0.78287037 6.22175926,0 7.16944444,0 Z M11.1660629,8.31390347 L11.0425926,8.32314815 C10.3421296,8.40555556 9.88888889,9.06481481 9.9712963,9.72407407 C10.0537037,10.424537 10.712963,10.8777778 11.3722222,10.7953704 C11.9078704,10.712963 12.3611111,10.2597222 12.4435185,9.72407407 L12.4435185,9.39444444 C12.3611111,8.69398148 11.7018519,8.24074074 11.0425926,8.32314815 Z" id="形状结合" fill="#9FAECF"></path>
            <path d="M8.9,1.73055556 C8.9,0.78287037 8.11712963,0.0412037037 7.16944444,0 C6.22175926,0 5.48009259,0.78287037 5.43888889,1.73055556 L5.43888889,6.22175926 L3.46111111,6.22175926 L3.46111111,1.73055556 C3.46111111,0.78287037 2.67824074,0.0412037037 1.73055556,0.0412037037 C0.78287037,0.0412037037 0.0412037037,0.824074074 0,1.73055556 L0,6.22175926 L8.9,6.18055556 L8.9,6.22175926 L8.9,1.73055556 Z" id="路径" fill="#57689C"></path>
        </g>
    </g>
</svg>