<?xml version="1.0" encoding="UTF-8"?>
<svg width="20px" height="20px" viewBox="0 0 20 20" version="1.1" xmlns="http://www.w3.org/2000/svg" xmlns:xlink="http://www.w3.org/1999/xlink">
    <title>anywhere-door-second-menu</title>
    <g id="anywhere-door-second-menu" stroke="none" stroke-width="1" fill="none" fill-rule="evenodd">
        <rect id="矩形" fill-opacity="0" fill="#D8D8D8" x="0" y="0" width="20" height="20"></rect>
        <g id="任意门" transform="translate(2.000000, 2.000000)">
            <rect id="矩形" fill="#FFFFFF" opacity="0" x="0" y="0" width="16" height="16"></rect>
            <g id="图形" transform="translate(1.000000, 0.125420)" fill="#57689C">
                <path d="M8.99304982,0.882402487 C8.99767924,0.921463252 9,0.960763135 9,1.00009728 L9,14.7490626 C9,15.3013473 8.55228475,15.7490626 8,15.7490626 C7.96066586,15.7490626 7.92136597,15.7467418 7.88230521,15.7421124 L0.882305207,14.9124828 C0.379069024,14.85284 1.62837728e-15,14.4261912 0,13.919433 L0,1.82972691 C-3.95126894e-16,1.32296866 0.379069024,0.896319901 0.882305207,0.836677094 L7.88230521,0.00704746469 C8.43075148,-0.0579535746 8.92804878,0.333956218 8.99304982,0.882402487 Z M7.5,5.87457993 L6.3,5.87457993 L6.3,8.87457993 L7.5,8.87457993 L7.5,5.87457993 Z" id="形状结合" opacity="0.550000012"></path>
                <path d="M9,1.87457993 L13,1.87457993 C13.5522847,1.87457993 14,2.32229518 14,2.87457993 L14,12.8745799 C14,13.4268647 13.5522847,13.8745799 13,13.8745799 L9,13.8745799 L9,13.8745799 L9,1.87457993 Z" id="矩形"></path>
            </g>
        </g>
    </g>
</svg>