<?xml version="1.0" encoding="UTF-8"?>
<svg width="20px" height="20px" viewBox="0 0 20 20" version="1.1" xmlns="http://www.w3.org/2000/svg" xmlns:xlink="http://www.w3.org/1999/xlink">
    <title>apachel-second-menu</title>
    <defs>
        <linearGradient x1="-3.35277807%" y1="50.0024078%" x2="103.379328%" y2="50.0024078%" id="linearGradient-1">
            <stop stop-color="#0471EA" offset="0.4092262%"></stop>
            <stop stop-color="#2AC6CC" offset="76.74%"></stop>
        </linearGradient>
    </defs>
    <g id="apachel-second-menu" stroke="none" stroke-width="1" fill="none" fill-rule="evenodd">
        <g id="Mysql" stroke-linejoin="round">
            <g id="SVGID_1_-link">
                <rect id="矩形" x="0" y="0" width="20" height="20"></rect>
            </g>
        </g>
        <g id="路径" transform="translate(2.000000, 3.000000)" fill="#57689C">
            <path d="M0.252282081,0.0342188975 C0.426732629,-0.0530063761 0.601183174,0.0342188975 0.68840845,0.208669445 L1.822337,2.73820238 C3.61045511,2.52013919 6.45752,3.52322984 8.03802002,4.74315684 C8.85962847,5.37732473 9.28332621,5.73728271 9.57834674,6.01633871 C8.33338568,6.27960718 7.24172458,6.16282802 6.95436633,6.13268554 C6.66700811,6.10254307 6.32663211,6.10231613 6.27576365,6.36909883 C6.22489522,6.63588156 6.43188461,6.80606169 6.76716927,6.86635665 C7.10227036,6.92661861 8.95162558,7.06169798 10.1392299,6.60232995 C10.4811463,6.98811144 10.9883195,7.58352505 11.3474477,7.99962556 C10.4904682,8.18001338 9.96214197,8.21294723 9.61944608,8.21580543 L9.45007201,8.21509397 C9.37373113,8.21395913 9.30926549,8.21218981 9.25377712,8.21218981 C8.95783915,8.21218981 8.63802854,8.18172715 8.58716008,8.44850988 C8.53629165,8.71529258 8.72828811,8.89464778 9.07366102,8.94152346 C9.41884137,8.98837305 10.7104287,9.08478172 11.8974124,8.62538746 C12.4552745,9.24820445 13.469073,10.3489802 14.4700017,11.2426665 C15.6911555,12.3329825 16.0400566,12.507433 15.9964439,13.0307846 C13.5541363,12.1585319 11.1554413,11.1118286 8.88758415,9.93428744 C4.9188342,7.84088089 2.08401283,3.43600457 1.90956228,3.52322984 C1.64788646,3.65406775 1.6772156,3.79404662 1.822337,4.04343795 C1.96745841,4.29282928 4.43909522,8.40784514 8.62590835,10.588477 C10.8501528,11.7224055 13.1616226,12.7691088 15.5167049,13.6849742 C14.2083258,14.3391638 9.86582032,14.857109 4.19742114,10.9947076 C-1.29384056,7.25300628 1.01131493,3.29882069 1.16074971,3.05533809 L1.16814745,3.04349083 L0.0342188975,0.513957901 L0.0342188975,0.470345265 C-0.0530063761,0.295894718 0.0342188975,0.121444171 0.208669445,0.0342188975 Z" id="形状结合"></path>
        </g>
    </g>
</svg>