<?xml version="1.0" encoding="UTF-8"?>
<svg width="20px" height="20px" viewBox="0 0 20 20" version="1.1" xmlns="http://www.w3.org/2000/svg" xmlns:xlink="http://www.w3.org/1999/xlink">
    <title>api list-second menu-normal</title>
    <g id="api-list-second-menu-normal" stroke="none" stroke-width="1" fill="none" fill-rule="evenodd">
        <g id="api-list">
            <rect id="矩形" x="0" y="0" width="20" height="20"></rect>
            <polygon id="多边形" fill="#9FAECF" points="10.0555556 2 16.5988586 6 16.5988586 14 10.0555556 18 3.5122525 14 3.5122525 6"></polygon>
            <g id="接口" transform="translate(5.500000, 5.500000)" fill="#57689C" fill-rule="nonzero">
                <path d="M5.08072134,4.69491374 L4.24559209,5.53014349 L3.46925353,4.75370443 L4.30438278,3.91857518 L3.79275306,3.40694545 L2.95752331,4.2420747 L2.49352912,3.77808051 L1.12908269,5.14242644 C0.462989224,5.8085199 0.385908101,6.84082407 0.897336832,7.59133493 L0,8.48837028 L0.512534197,9 L1.40946904,8.10296466 C2.16048239,8.61449389 3.19228407,8.53731227 3.85837753,7.8712188 L5.22232148,6.50677237 L4.75722182,6.04177321 L5.59235107,5.20664396 L5.08072134,4.69491374 Z M9.00261292,0.511629725 L8.49098319,0 L7.59404835,0.896934845 C6.84383898,0.388320027 5.81394674,0.466305622 5.14895874,1.13129362 L3.78451231,2.49563955 L6.51330467,5.22443191 L7.8777511,3.86008598 C8.54495003,3.19288705 8.62142817,2.15867344 8.10698453,1.40735861 L9.00261292,0.511629725 Z" id="形状"></path>
            </g>
        </g>
    </g>
</svg>