<?xml version="1.0" encoding="UTF-8"?>
<svg width="20px" height="20px" viewBox="0 0 20 20" version="1.1" xmlns="http://www.w3.org/2000/svg" xmlns:xlink="http://www.w3.org/1999/xlink">
    <title>api-topology-second-menu</title>
    <g id="api-topology-second-menu" stroke="none" stroke-width="1" fill="none" fill-rule="evenodd">
        <rect id="矩形" fill="#FFFFFF" opacity="0" x="0" y="0" width="20" height="20"></rect>
        <path d="M17,2 C17.5522847,2 18,2.44771525 18,3 L18,17 C18,17.5522847 17.5522847,18 17,18 L3,18 C2.44771525,18 2,17.5522847 2,17 L2,3 C2,2.44771525 2.44771525,2 3,2 L17,2 Z M10.2649995,3.01939896 C10.0308312,2.8730438 9.72235601,2.94423038 9.57600085,3.17839864 L7.97812467,5.73500053 C7.92845854,5.81446633 7.90212382,5.90629014 7.90212382,6 C7.90212382,6.27614237 8.12598145,6.5 8.40212382,6.5 L9.399,6.49933119 L9.399,9.54533119 L6.1,9.545 L6.09978159,8.8752823 C6.62966968,8.64386519 7,8.11518024 7,7.5 C7,6.67157288 6.32842712,6 5.5,6 C4.67157288,6 4,6.67157288 4,7.5 C4,8.11479039 4.36986111,8.64319509 4.89921121,8.87484199 L4.9,10.2455654 C4.9,10.5217078 5.12385763,10.7455654 5.4,10.7455654 L9.399,10.7453312 L9.39906616,13.091854 C8.58812706,13.3469949 8,14.1048152 8,15 C8,16.1045695 8.8954305,17 10,17 C11.1045695,17 12,16.1045695 12,15 C12,14.1044433 11.4113842,13.3463652 10.599923,13.0915363 L10.599,12.2673312 L14.6,12.2677447 C14.8761424,12.2677447 15.1,12.0438871 15.1,11.7677447 L15.1007888,9.87484199 C15.6301389,9.64319509 16,9.11479039 16,8.5 C16,7.67157288 15.3284271,7 14.5,7 C13.6715729,7 13,7.67157288 13,8.5 C13,9.11518024 13.3703303,9.64386519 13.9002184,9.8752823 L13.9,11.067 L10.599,11.0673312 L10.599,6.49933119 L11.5978762,6.5 C11.691586,6.5 11.7834098,6.47366528 11.8628756,6.42399915 C12.0970439,6.27764399 12.1682305,5.9691688 12.0218753,5.73500053 L10.4239992,3.17839864 C10.3837588,3.11401408 10.329384,3.05963931 10.2649995,3.01939896 Z" id="形状结合" fill="#57689C" fill-rule="nonzero"></path>
    </g>
</svg>