<?xml version="1.0" encoding="UTF-8"?>
<svg width="20px" height="20px" viewBox="0 0 20 20" version="1.1" xmlns="http://www.w3.org/2000/svg" xmlns:xlink="http://www.w3.org/1999/xlink">
    <title>api-list-second-menu</title>
    <g id="api-list-second-menu" stroke="none" stroke-width="1" fill="none" fill-rule="evenodd">
        <g id="api-list">
            <rect id="矩形" x="0" y="0" width="20" height="20"></rect>
            <path d="M10.0555556,2 L16.5988586,6 L16.5988586,14 L10.0555556,18 L3.5122525,14 L3.5122525,6 L10.0555556,2 Z M9.29275306,8.90694545 L8.45752331,9.7420747 L7.99352912,9.27808051 L6.62908269,10.6424264 C5.96298922,11.3085199 5.8859081,12.3408241 6.39733683,13.0913349 L5.5,13.9883703 L6.0125342,14.5 L6.90946904,13.6029647 C7.66048239,14.1144939 8.69228407,14.0373123 9.35837753,13.3712188 L10.7223215,12.0067724 L10.2572218,11.5417732 L11.0923511,10.706644 L10.5807213,10.1949137 L9.74559209,11.0301435 L8.96925353,10.2537044 L9.80438278,9.41857518 L9.29275306,8.90694545 Z M13.9909832,5.5 L13.0940484,6.39693484 C12.343839,5.88832003 11.3139467,5.96630562 10.6489587,6.63129362 L9.28451231,7.99563955 L12.0133047,10.7244319 L13.3777511,9.36008598 C14.04495,8.69288705 14.1214282,7.65867344 13.6069845,6.90735861 L14.5026129,6.01162972 L13.9909832,5.5 Z" id="形状结合" fill="#57689C" fill-rule="nonzero"></path>
            <g id="接口" transform="translate(5.500000, 5.500000)"></g>
        </g>
    </g>
</svg>