<?xml version="1.0" encoding="UTF-8"?>
<svg width="20px" height="20px" viewBox="0 0 20 20" version="1.1" xmlns="http://www.w3.org/2000/svg" xmlns:xlink="http://www.w3.org/1999/xlink">
    <title>apm-second-menu</title>
    <g id="apm-second-menu" stroke="none" stroke-width="1" fill="none" fill-rule="evenodd">
        <g>
            <rect id="矩形" x="0" y="0" width="20" height="20"></rect>
            <path d="M17,4 C17.5522847,4 18,4.44771525 18,5 L18,15 C18,15.5522847 17.5522847,16 17,16 L3,16 C2.44771525,16 2,15.5522847 2,15 L2,5 C2,4.44771525 2.44771525,4 3,4 L17,4 Z M16,12.6 L8,12.6 L8,13.8 L16,13.8 L16,12.6 Z M14,10.4 L6,10.4 L6,11.6 L14,11.6 L14,10.4 Z M11,8.2 L4,8.2 L4,9.4 L11,9.4 L11,8.2 Z M16,6 L4,6 L4,7.2 L16,7.2 L16,6 Z" id="形状结合" fill="#57689C"></path>
        </g>
    </g>
</svg>