<?xml version="1.0" encoding="UTF-8"?>
<svg width="20px" height="20px" viewBox="0 0 20 20" version="1.1" xmlns="http://www.w3.org/2000/svg" xmlns:xlink="http://www.w3.org/1999/xlink">
    <title>app-resource-atlas-second-menu</title>
    <g id="app-resource-atlas-second-menu" stroke="none" stroke-width="1" fill="none" fill-rule="evenodd">
        <g id="pod">
            <rect id="矩形" x="0" y="0" width="20" height="20"></rect>
        </g>
        <g id="编组-2" transform="translate(10.000000, 9.993526) rotate(-360.000000) translate(-10.000000, -9.993526) translate(2.000000, 2.550000)" fill="#57689C">
            <g id="编组" transform="translate(5.208678, 12.095729) rotate(-360.000000) translate(-5.208678, -12.095729) translate(2.791322, 9.304407)" fill-rule="nonzero" opacity="0.55">
                <polygon id="多边形备份" points="2.41735583 0 4.83471167 1.39566104 4.83471167 4.18698312 2.41735583 5.58264417 3.04054503e-16 4.18698312 -5.84450167e-18 1.39566104"></polygon>
            </g>
            <g id="编组备份-5" transform="translate(5.208678, 2.791322) rotate(-360.000000) translate(-5.208678, -2.791322) translate(2.791322, 0.000000)" fill-rule="nonzero" opacity="0.55">
                <polygon id="多边形备份" points="2.41735583 0 4.83471167 1.39566104 4.83471167 4.18698312 2.41735583 5.58264417 2.45578116e-16 4.18698312 -6.43208886e-17 1.39566104"></polygon>
            </g>
            <g id="编组备份-2" transform="translate(8.000000, 7.443526) rotate(-360.000000) translate(-8.000000, -7.443526) translate(5.582644, 4.652203)">
                <polygon id="多边形备份" points="2.41735583 0 4.83471167 1.39566104 4.83471167 4.18698312 2.41735583 5.58264417 5.28390017e-16 4.18698312 2.18491013e-16 1.39566104"></polygon>
            </g>
            <g id="编组备份-4" transform="translate(13.582644, 7.443526) rotate(-360.000000) translate(-13.582644, -7.443526) translate(11.165288, 4.652203)" fill-rule="nonzero" opacity="0.55">
                <polygon id="多边形备份" points="2.41735583 0 4.83471167 1.39566104 4.83471167 4.18698312 2.41735583 5.58264417 4.96860914e-16 4.18698312 1.8696191e-16 1.39566104"></polygon>
            </g>
            <g id="编组备份-3" transform="translate(2.417356, 7.443526) rotate(-360.000000) translate(-2.417356, -7.443526) translate(0.000000, 4.652203)">
                <polygon id="多边形备份" points="2.41735583 0 4.83471167 1.39566104 4.83471167 4.18698312 2.41735583 5.58264417 5.28390017e-16 4.18698312 2.18491013e-16 1.39566104"></polygon>
            </g>
            <g id="编组备份" transform="translate(10.791322, 12.095729) rotate(-360.000000) translate(-10.791322, -12.095729) translate(8.373966, 9.304407)">
                <polygon id="多边形备份" points="2.41735583 0 4.83471167 1.39566104 4.83471167 4.18698312 2.41735583 5.58264417 5.28390017e-16 4.18698312 2.18491013e-16 1.39566104"></polygon>
            </g>
            <g id="编组备份-6" transform="translate(10.791322, 2.791322) rotate(-360.000000) translate(-10.791322, -2.791322) translate(8.373966, 0.000000)">
                <polygon id="多边形备份" points="2.41735583 0 4.83471167 1.39566104 4.83471167 4.18698312 2.41735583 5.58264417 2.45578116e-16 4.18698312 -6.43208886e-17 1.39566104"></polygon>
            </g>
        </g>
    </g>
</svg>