<?xml version="1.0" encoding="UTF-8"?>
<svg width="20px" height="20px" viewBox="0 0 20 20" version="1.1" xmlns="http://www.w3.org/2000/svg" xmlns:xlink="http://www.w3.org/1999/xlink">
    <title>app-deploy-statistics-second-menu</title>
    <g id="app-deploy-statistics-second-menu" stroke="none" stroke-width="1" fill="none" fill-rule="evenodd">
        <g id="统计">
            <rect id="矩形" x="0" y="0" width="20" height="20"></rect>
            <path d="M17.9962546,2.3 L14.7178284,2.64277688 L15.7973102,3.67110753 L12.2390183,7.81489919 L8.54479177,4.56232743 C8.29691077,4.34142677 7.90509886,4.34142677 7.6492217,4.55471017 L2.21982809,9.22409305 C1.9479586,9.46022824 1.92397012,9.86394323 2.17185112,10.1229302 C2.29978971,10.260041 2.48370142,10.3285963 2.66761313,10.3285963 C2.82753636,10.3285963 2.98745959,10.2752755 3.11539817,10.1686338 L8.08901057,5.88773138 L11.8552026,9.20124126 C11.9911373,9.32311748 12.1750491,9.37643833 12.3509646,9.36882107 C12.5348763,9.35358654 12.7027957,9.26979663 12.8227381,9.14030314 L16.7408572,4.57756196 L17.6364273,5.43069554 L17.9962546,2.3 Z" id="路径" fill="#57689C" opacity="0.55"></path>
            <path d="M3.86045355,17.5345282 L2.43221653,17.5345282 C2.19655743,17.5345282 2.00374543,17.328862 2.00374543,17.0774923 L2.00374543,11.8977527 C2.00374543,11.646383 2.19655743,11.4407169 2.43221653,11.4407169 L3.86045355,11.4407169 C4.09611266,11.4407169 4.28892465,11.646383 4.28892465,11.8977527 L4.28892465,17.0774923 C4.28892465,17.328862 4.09611266,17.5345282 3.86045355,17.5345282 Z M8.430812,17.5345282 L7.00257498,17.5345282 C6.76691588,17.5345282 6.57410388,17.328862 6.57410388,17.0774923 L6.57410388,8.85084711 C6.57410388,8.59947739 6.76691588,8.39381126 7.00257498,8.39381126 L8.430812,8.39381126 C8.66647111,8.39381126 8.8592831,8.59947739 8.8592831,8.85084711 L8.8592831,17.0774923 C8.8592831,17.328862 8.66647111,17.5345282 8.430812,17.5345282 Z M13.0011704,17.5345282 L11.5729334,17.5345282 C11.3372743,17.5345282 11.1444623,17.328862 11.1444623,17.0774923 L11.1444623,11.1360263 C11.1444623,10.8846566 11.3372743,10.6789905 11.5729334,10.6789905 L13.0011704,10.6789905 C13.2368296,10.6789905 13.4296416,10.8846566 13.4296416,11.1360263 L13.4296416,17.0774923 C13.4296416,17.328862 13.2368296,17.5345282 13.0011704,17.5345282 Z M17.5715289,17.5345282 L16.1432919,17.5345282 C15.9076328,17.5345282 15.7148208,17.328862 15.7148208,17.0774923 L15.7148208,7.32739429 C15.7148208,7.07602458 15.9076328,6.87035845 16.1432919,6.87035845 L17.5715289,6.87035845 C17.807188,6.87035845 18,7.07602458 18,7.32739429 L18,17.0774923 C18,17.328862 17.807188,17.5345282 17.5715289,17.5345282 L17.5715289,17.5345282 Z" id="形状结合" fill="#57689C"></path>
        </g>
    </g>
</svg>