<?xml version="1.0" encoding="UTF-8"?>
<svg width="20px" height="20px" viewBox="0 0 20 20" version="1.1" xmlns="http://www.w3.org/2000/svg" xmlns:xlink="http://www.w3.org/1999/xlink">
    <title>application-deployment-history-second-menu</title>
    <g id="application-deployment-history-second-menu" stroke="none" stroke-width="1" fill="none" fill-rule="evenodd">
        <rect id="矩形" fill="#000000" opacity="0" x="0" y="0" width="20" height="20"></rect>
        <g id="编组" transform="translate(3.071797, 2.000000)">
            <g id="编组备份" fill="#57689C">
                <path d="M6.92820323,0 L13.8564065,4 L13.8580172,10.209551 C13.3021721,9.82529458 12.6262196,9.6 11.8974074,9.6 C10.2834721,9.6 8.92875531,10.7048205 8.56353593,12.1941183 L8.24717046,11.7910347 C8.11027512,11.617649 7.85874261,11.5880677 7.68535357,11.7249588 C7.5119711,11.8618583 7.48238977,12.1133908 7.61928091,12.2867799 L8.55358413,13.4701196 C8.65993662,13.6048211 8.83564805,13.652849 8.99018752,13.6030874 C9.06079322,13.9562702 9.19537062,14.2877877 9.38037851,14.5846224 L6.92820323,16 L-1.50102153e-13,12 L-1.50990331e-13,4 L6.92820323,0 Z M9.45702603,5 L6.42820323,6.731 L3.39938043,5 L2.92820323,5.80773234 L5.95720323,7.539 L5.95702603,11 L6.89938043,11 L6.90020323,7.539 L9.92820323,5.80773234 L9.45702603,5 Z" id="形状结合" opacity="0.55"></path>
                <path d="M10.0150125,14.816325 C9.85974428,14.6591794 9.60648286,14.6576575 9.4493373,14.8129258 L9.50465016,14.7685109 C9.2552072,14.4272589 9.07609399,14.0313446 8.98864083,13.6020984 L9.04393339,13.5813332 L9.11217864,13.5387064 L10.3632835,12.5714904 C10.538055,12.4363687 10.5702036,12.1851514 10.4350861,12.0103766 L10.3793509,11.9515698 C10.2383587,11.8301783 10.0269045,11.820343 9.87397655,11.9385708 L9.35189166,12.3409509 C9.64703346,11.2246461 10.6742098,10.4 11.8974074,10.4 C13.3512651,10.4 14.5282032,11.5649793 14.5282032,13 C14.5282032,14.3798276 13.4400578,15.5099867 12.0638801,15.5948809 L11.8974074,15.6 C11.1786712,15.6 10.5070784,15.3143405 10.0150125,14.816325 Z M12.1987661,11.8336806 L11.5987661,11.8336806 L11.5987661,13.0027818 L11.6750603,13.2026711 L12.5332322,14.1630925 L12.7331215,14.3867982 L13.180533,13.9870195 L12.9806437,13.7633138 L12.1987661,12.8886806 L12.1987661,11.8336806 Z" id="形状结合"></path>
            </g>
            <g id="编组-21" transform="translate(7.533210, 9.600000)"></g>
        </g>
    </g>
</svg>