<?xml version="1.0" encoding="UTF-8"?>
<svg width="20px" height="20px" viewBox="0 0 20 20" version="1.1" xmlns="http://www.w3.org/2000/svg" xmlns:xlink="http://www.w3.org/1999/xlink">
    <title>Application products 3</title>
    <g id="Application-products" stroke="none" stroke-width="1" fill="none" fill-rule="evenodd">
        <rect id="矩形" fill="#000000" opacity="0" x="0" y="0" width="20" height="20"></rect>
        <path d="M11.8,3.4 C12.4075132,3.4 12.9,3.89248678 12.9,4.5 L12.9,5.999 L16,6 C16.5522847,6 17,6.44771525 17,7 L17,8 L3,8 L3,7 C3,6.44771525 3.44771525,6 4,6 L7.1,5.999 L7.1,4.5 C7.1,3.89248678 7.59248678,3.4 8.2,3.4 L11.8,3.4 Z M11.699,4.6 L8.3,4.6 L8.3,5.999 L11.699,5.999 L11.699,4.6 Z" id="形状结合" fill="#57689C" fill-rule="nonzero"></path>
        <path d="M17,9 L17,16 C17,16.5522847 16.5522847,17 16,17 L4,17 C3.44771525,17 3,16.5522847 3,16 L3,9 L17,9 Z M7.81868452,10.1515212 L7.38986846,10.5711839 L5.58033729,12.3420895 L5.13690327,12.7760582 L5.58548698,13.2047016 L7.39501815,14.933796 L7.82881414,15.348309 L8.65784017,14.480717 L8.22404419,14.066204 L6.862,12.765 L8.22919388,11.4288161 L8.65800994,11.0091534 L7.81868452,10.1515212 Z M11.6813155,10.1515212 L10.8419901,11.0091534 L11.2708061,11.4288161 L12.638,12.765 L11.2759558,14.066204 L10.8421598,14.480717 L11.6711859,15.348309 L12.1049818,14.933796 L13.914513,13.2047016 L14.3630967,12.7760582 L13.9196627,12.3420895 L12.1101315,10.5711839 L11.6813155,10.1515212 Z" id="形状结合" fill="#9FAECF"></path>
    </g>
</svg>