<?xml version="1.0" encoding="UTF-8"?>
<svg width="20px" height="20px" viewBox="0 0 20 20" version="1.1" xmlns="http://www.w3.org/2000/svg" xmlns:xlink="http://www.w3.org/1999/xlink">
    <title>project list-second menu-normal</title>
    <g id="project-list-second-menu-normal" stroke="none" stroke-width="1" fill="none" fill-rule="evenodd">
        <g id="project-list" fill="#000000" opacity="0">
            <rect id="矩形" x="0" y="0" width="20" height="20"></rect>
        </g>
        <g id="编组-34" transform="translate(2.000000, 2.000000)" fill="#57689C">
            <path d="M7.62508889,9.03297114 C7.50003877,9.03297114 7.37692069,9.00211612 7.26669973,8.94304943 L0.399900929,5.2605129 C0.155697478,5.12958478 0.00237526735,4.87585941 0,4.59878183 C-0.00232057647,4.32170425 0.146679849,4.06541704 0.388629453,3.93036932 L7.25542826,0.0962072025 C7.4851762,-0.0320690675 7.76500158,-0.0320690675 7.99474952,0.0962072025 L14.8615483,3.93036932 C15.1034156,4.06548375 15.252343,4.32175011 15.2500228,4.5987883 C15.2476479,4.87582648 15.094399,5.12953227 14.8502769,5.26052853 L7.98332172,8.94306507 C7.87315399,9.00212023 7.75008665,9.03297114 7.62508889,9.03297114 L7.62508889,9.03297114 Z" id="路径"></path>
            <path d="M7.62508889,12.51647 C7.50001923,12.5165395 7.37688322,12.485601 7.26669973,12.4264231 L0.399900929,8.74404293 C0.0368248936,8.54320066 -0.0974058313,8.08784019 0.0986743162,7.72217039 C0.294754464,7.35650059 0.748321809,7.21633031 1.11652291,7.40761484 L7.62508889,10.8978015 L14.1336549,7.40761484 C14.501856,7.21633031 14.9554233,7.35650059 15.1515035,7.72217039 C15.3475836,8.08784019 15.2133529,8.54320066 14.8502769,8.74404293 L7.98332172,12.4264231 C7.87319431,12.4856004 7.75010886,12.5165397 7.62508889,12.51647 L7.62508889,12.51647 Z" id="路径" opacity="0.55"></path>
            <path d="M7.62508889,16 C7.50002761,16 7.37691039,15.9690315 7.26669973,15.909922 L0.399900929,12.2275418 C0.0368248936,12.0266995 -0.0974058313,11.571339 0.0986743162,11.2056692 C0.294754464,10.8399994 0.748321809,10.6998292 1.11652291,10.8911137 L7.62508889,14.3814567 L14.1336549,10.8911137 C14.501856,10.6998292 14.9554233,10.8399994 15.1515035,11.2056692 C15.3475836,11.571339 15.2133529,12.0266995 14.8502769,12.2275418 L7.98332172,15.9099376 C7.87316711,15.9690465 7.75010047,16 7.62508889,16 L7.62508889,16 Z" id="路径" opacity="0.55"></path>
        </g>
    </g>
</svg>