<?xml version="1.0" encoding="UTF-8"?>
<svg width="20px" height="20px" viewBox="0 0 20 20" version="1.1" xmlns="http://www.w3.org/2000/svg" xmlns:xlink="http://www.w3.org/1999/xlink">
    <title>application-blueprint-second-menu</title>
    <g id="application-blueprint-second-menu" stroke="none" stroke-width="1" fill="none" fill-rule="evenodd">
        <g id="图形" transform="translate(2.888889, 2.088889)">
            <path d="M3,2 L2.99913166,7.394 L3.27313166,7.516 L11.2241817,3.63956167 L11.6625528,4.53835572 L4.46613166,8.047 L11.7278683,11.2802788 L11.3211317,12.1938243 L3.29413166,8.619 L2.99913166,8.763 L3,14 L2,14 L1.99913166,9.251 L1.77581832,9.36043833 L1.33744717,8.46164428 L1.99913166,8.138 L1.99913166,8.043 L1.27213166,7.71972119 L1.6788683,6.80617573 L1.99913166,6.949 L2,2 L3,2 Z" id="形状结合" fill="#57689C"></path>
            <path d="M2.5,3 C3.32842712,3 4,2.32842712 4,1.5 C4,0.671572875 3.32842712,0 2.5,0 C1.67157288,0 1,0.671572875 1,1.5 C1,2.32842712 1.67157288,3 2.5,3 Z M2.5,16 C3.32842712,16 4,15.3284271 4,14.5 C4,13.6715729 3.32842712,13 2.5,13 C1.67157288,13 1,13.6715729 1,14.5 C1,15.3284271 1.67157288,16 2.5,16 Z M12,14 C13.1045695,14 14,13.1045695 14,12 C14,10.8954305 13.1045695,10 12,10 C10.8954305,10 10,10.8954305 10,12 C10,13.1045695 10.8954305,14 12,14 Z M12,6 C13.1045695,6 14,5.1045695 14,4 C14,2.8954305 13.1045695,2 12,2 C10.8954305,2 10,2.8954305 10,4 C10,5.1045695 10.8954305,6 12,6 Z M3,11 C4.65685425,11 6,9.65685425 6,8 C6,6.34314575 4.65685425,5 3,5 C1.34314575,5 0,6.34314575 0,8 C0,9.65685425 1.34314575,11 3,11 Z" id="形状结合" fill="#9FAECF"></path>
        </g>
    </g>
</svg>