<?xml version="1.0" encoding="UTF-8"?>
<svg width="20px" height="20px" viewBox="0 0 20 20" version="1.1" xmlns="http://www.w3.org/2000/svg" xmlns:xlink="http://www.w3.org/1999/xlink">
    <title>Application Deployment History 2</title>
    <g id="Application-Deployment-History" stroke="none" stroke-width="1" fill="none" fill-rule="evenodd">
        <rect id="矩形" fill="#000000" opacity="0" x="0" y="0" width="20" height="20"></rect>
        <g id="编组" transform="translate(3.071797, 2.000000)">
            <g id="编组备份" fill="#FFFFFF">
                <path d="M6.92820323,0 L13.8564065,4 L13.8564065,12 L6.92820323,16 L-1.50102153e-13,12 L-1.50990331e-13,4 L6.92820323,0 Z M9.45702603,5 L6.42820323,6.731 L3.39938043,5 L2.92820323,5.80773234 L5.95720323,7.539 L5.95702603,11 L6.89938043,11 L6.90020323,7.539 L9.92820323,5.80773234 L9.45702603,5 Z" id="形状结合" opacity="0.55"></path>
                <path d="M11.8974074,9.6 C13.7912743,9.6 15.3282032,11.1213122 15.3282032,13 C15.3282032,14.8786878 13.7912743,16.4 11.8974074,16.4 C10.9629419,16.4 10.0870125,16.0274267 9.44593807,15.378601 C9.29066984,15.2214554 9.29219173,14.968194 9.4493373,14.8129258 C9.60648286,14.6576575 9.85974428,14.6591794 10.0150125,14.816325 C10.5070784,15.3143405 11.1786712,15.6 11.8974074,15.6 C13.3512651,15.6 14.5282032,14.4350207 14.5282032,13 C14.5282032,11.5649793 13.3512651,10.4 11.8974074,10.4 C10.6742098,10.4 9.64703346,11.2246461 9.35189166,12.3409509 L9.87397655,11.9385708 C9.99038903,11.8485729 10.1407153,11.8327828 10.2680585,11.8839193 C10.6264686,11.3513413 11.2363058,11 11.9282032,11 C13.0327727,11 13.9282032,11.8954305 13.9282032,13 C13.9282032,14.1045695 13.0327727,15 11.9282032,15 C10.8236337,15 9.92820323,14.1045695 9.92820323,13 L9.93121033,12.905 L9.11217864,13.5387064 C8.93866468,13.6728492 8.68949191,13.6422546 8.55358413,13.4701196 L7.61928091,12.2867799 C7.48238977,12.1133908 7.5119711,11.8618583 7.68535357,11.7249588 C7.85874261,11.5880677 8.11027512,11.617649 8.24717046,11.7910347 L8.56353593,12.1941183 C8.92875531,10.7048205 10.2834721,9.6 11.8974074,9.6 Z M12.3075259,12 L11.9282032,12 L11.9282032,12.9158225 L11.9764368,13.072407 L12.5189768,13.8247588 L12.6453477,14 L12.9282032,13.686831 L12.8018323,13.5115898 L12.3075259,12.8264406 L12.3075259,12 Z" id="形状结合"></path>
            </g>
            <g id="编组-21" transform="translate(7.533210, 9.600000)">
                <path d="M6.48946939,5.55402153 C7.17823281,5.00409603 7.3949929,4.34411189 7.3949929,3.4 C7.3949929,1.74314575 6.03805939,0.4 4.36419708,0.4 L4.36419708,3.44844185 L6.48946939,5.55402153 Z" id="路径"></path>
            </g>
        </g>
    </g>
</svg>