<?xml version="1.0" encoding="UTF-8"?>
<svg width="20px" height="20px" viewBox="0 0 20 20" version="1.1" xmlns="http://www.w3.org/2000/svg" xmlns:xlink="http://www.w3.org/1999/xlink">
    <title>application services (public network)-second-menu</title>
    <g id="application-services-(public-network)-second-menu" stroke="none" stroke-width="1" fill="none" fill-rule="evenodd">
        <rect id="矩形" fill-opacity="0" fill="#D8D8D8" x="0" y="0" width="20" height="20"></rect>
        <g id="服务名" transform="translate(0, 2)">
            <rect id="矩形" fill-opacity="0" fill="#D8D8D8" x="2" y="0" width="16" height="16"></rect>
            <g id="VPC" transform="translate(0, 1)" fill="#57689C" fill-rule="nonzero">
                <path d="M5.43636363,2.14909091 C5.90856774,2.75105683 6.45053918,3.29485925 7.05090908,3.76909091 C7.42987141,4.07047306 7.82797951,4.34696232 8.24272726,4.59681819 C8.04038694,5.24818592 8.35043737,5.94886963 8.9685806,6.23717585 C9.58672383,6.52548208 10.3228099,6.3127236 10.6918182,5.73909092 L10.7981818,5.77681818 C11.9345454,6.205 13.0327273,6.57409091 14.0931818,6.88363637 L14.0909091,6.81772728 C14.090861,7.32300052 14.3702047,7.78688238 14.8168182,8.02318183 C14.5776066,8.66937058 14.272674,9.28928835 13.9068182,9.87318182 L13.7804545,10.0622727 C13.3125248,9.90073814 12.7938617,10.0607063 12.4982102,10.4577477 C12.2025588,10.8547891 12.1979508,11.3975414 12.4868182,11.7995455 C11.9550581,12.4510349 11.3786699,13.0647858 10.7618182,13.6363636 L4.31818181,13.6363636 C1.93318181,13.6363636 0,11.7027273 0,9.31818182 C0,6.93318182 1.93318183,4.99999999 4.31818181,5.00000001 L4.54545454,5.00000001 C4.54545454,4.0068182 4.83545455,3.08090911 5.335,2.30272728 L5.43681819,2.14954545 L5.43636363,2.14909091 Z M16.6209091,7.52409092 C17.7863636,7.77136364 18.9004546,7.93772728 19.9622727,8.02227273 C19.9872727,8.22318182 20,8.42818183 20,8.6359091 C20,11.3972727 17.7613636,13.6359091 15,13.6359091 L11.745,13.6363636 C12.1974919,13.1816563 12.6274026,12.7050227 13.0331818,12.2081818 C13.5023868,12.3728537 14.0241611,12.2133314 14.3210666,11.8144364 C14.617972,11.4155413 14.6210388,10.8699348 14.3286364,10.4677273 L14.4809091,10.2418182 C14.9159091,9.53863637 15.2459091,8.8518182 15.4840909,8.18045455 L15.4545455,8.18136365 C15.9386364,8.18136365 16.3636364,7.92909092 16.6059091,7.54863638 L16.6209091,7.52409092 L16.6209091,7.52409092 Z M19.8045455,7.24681818 L19.8263636,7.32636365 C18.8151388,7.23341056 17.8103355,7.08041332 16.8172727,6.86818183 L16.8181818,6.81818182 C16.8185363,6.26613555 16.4860135,5.76833834 15.9759091,5.55727272 C15.9895455,4.92090908 15.9254545,4.30136363 15.7977273,3.69954546 C17.7062406,4.00876425 19.266022,5.38947597 19.8045455,7.24636364 L19.8045455,7.24681818 Z M9.54545455,0 C11.8340909,0 13.7636364,1.53772728 14.3572727,3.63636365 L15,3.63636365 L15.0845455,3.63727272 C15.2189969,4.19151383 15.2899081,4.75926097 15.2959091,5.32954545 L15.2959091,5.46318181 C14.8373004,5.51710812 14.4370781,5.79931619 14.2322727,6.21318182 C13.1514913,5.89444626 12.083152,5.53494688 11.0295455,5.13545455 L10.905,5.09181819 C10.9325768,4.68549371 10.7770983,4.28811075 10.4811009,4.00838661 C10.1851035,3.72866247 9.77957255,3.59587904 9.37545455,3.64636364 L9.15454545,3.08363636 L8.52000001,3.33181818 L8.74227273,3.89772727 C8.69227273,3.93409091 8.64545455,3.97363637 8.60136363,4.01590909 C8.20942695,3.78100447 7.83345499,3.52043585 7.47590909,3.23590909 C6.91081173,2.78993395 6.40139692,2.27761954 5.95863635,1.71 L5.87772727,1.60181819 C6.41138806,1.02549436 7.07315613,0.58281045 7.80954546,0.309545455 C7.88045455,0.879090917 7.96863638,1.39863637 8.07318182,1.86863636 L8.14772728,2.20136363 L8.81318182,2.05318183 L8.7390909,1.72045455 C8.62962143,1.21920184 8.5440701,0.71302315 8.48272726,0.203636357 L8.47272727,0.115454553 C8.81818181,0.0399999929 9.17727273,0 9.54545455,0 Z" id="形状"></path>
            </g>
        </g>
    </g>
</svg>