<?xml version="1.0" encoding="UTF-8"?>
<svg width="20px" height="20px" viewBox="0 0 20 20" version="1.1" xmlns="http://www.w3.org/2000/svg" xmlns:xlink="http://www.w3.org/1999/xlink">
    <title>project list-second menu-normal备份 6</title>
    <g id="project-list-second-menu-normal备份-6" stroke="none" stroke-width="1" fill="none" fill-rule="evenodd">
        <g id="project-list" fill="#000000" opacity="0">
            <rect id="矩形" x="0" y="0" width="20" height="20"></rect>
        </g>
        <g id="Kafka" transform="translate(2.000000, 2.000000)">
            <rect id="矩形备份-18" opacity="0.446149554" x="0" y="0" width="16" height="16"></rect>
            <path d="M12.4563236,9.56128091 C11.5585871,9.56128091 10.7779466,10.1077292 10.4266584,10.8883697 L6.64055221,9.01483259 C6.75764828,8.66354439 6.83571233,8.31225618 6.83571233,7.96096798 C6.83571233,7.88290393 6.83571233,7.80483989 6.83571233,7.76580786 L10.6998826,5.85323875 C11.441491,6.82903932 12.8076118,7.02419943 13.7834124,6.282591 C14.7592129,5.54098257 14.9543731,4.17486177 14.2127646,3.1990612 C13.4711562,2.22326063 12.1050354,2.02810052 11.1292348,2.76970895 C10.5827865,3.1990612 10.2705303,3.82357357 10.2705303,4.52614998 C10.2705303,4.79937413 10.3095623,5.07259829 10.4266584,5.34582245 L6.71861626,7.18032752 C6.40636007,6.00936684 5.35249546,5.15066234 4.14250276,5.03356627 L4.14250276,3.12099716 C4.96217523,2.96486907 5.50862355,2.14519659 5.35249546,1.32552411 C5.19636737,0.505851632 4.37669489,-0.0405966862 3.55702241,0.115531405 C2.73734994,0.271659496 2.19090162,1.09133197 2.34702971,1.91100445 C2.46412578,2.53551682 2.93251005,3.00390109 3.55702241,3.12099716 L3.55702241,5.03356627 C1.91767746,5.18969436 0.746716776,6.67291123 0.902844867,8.31225618 C1.05897296,9.717409 2.1518696,10.8103056 3.55702241,10.9664337 L3.55702241,12.8790028 C2.73734994,13.0351309 2.19090162,13.8548034 2.34702971,14.6744759 C2.5031578,15.4941484 3.32283028,16.0405967 4.14250276,15.8844686 C4.96217523,15.7283405 5.50862355,14.908668 5.35249546,14.0889955 C5.23539939,13.4644832 4.76701512,12.9960989 4.14250276,12.8790028 L4.14250276,10.9664337 C5.0792713,10.8883697 5.89894378,10.3419214 6.36732805,9.56128091 L10.2705303,11.47385 C10.2705303,11.5519141 10.2705303,11.6690101 10.2705303,11.7470742 C10.2705303,12.9570669 11.2463309,13.9328675 12.4563236,13.9718995 C13.6663163,13.9718995 14.6421169,12.9960989 14.6811489,11.7861062 C14.6811489,10.5761135 13.7053483,9.56128091 12.4563236,9.56128091 C12.4953556,9.56128091 12.4953556,9.56128091 12.4563236,9.56128091 L12.4563236,9.56128091 Z" id="路径" fill="#57689C"></path>
        </g>
    </g>
</svg>