<?xml version="1.0" encoding="UTF-8"?>
<svg width="20px" height="20px" viewBox="0 0 20 20" version="1.1" xmlns="http://www.w3.org/2000/svg" xmlns:xlink="http://www.w3.org/1999/xlink">
    <title>project list-second menu-normal备份</title>
    <g id="project-list-second-menu-normal备份" stroke="none" stroke-width="1" fill="none" fill-rule="evenodd">
        <g id="project-list" fill="#000000" opacity="0">
            <rect id="矩形" x="0" y="0" width="20" height="20"></rect>
        </g>
        <g id="编组-35" transform="translate(2.632000, 1.968000)" fill="#57689C">
            <path d="M2.42505593,5.2885906 L2.38926174,10.5503356 L6.93512304,13.2348993 L11.5615213,10.6577181 L11.5973154,5.4049217 L7.01565996,2.72035794 L2.42505593,5.2885906 Z M6.63982103,12.3042506 L3.0246085,10.2192394 L3.06040268,5.96868009 L6.67561521,7.86577181 L6.63982103,12.3042506 Z M10.8903803,10.2908277 L7.27516779,12.3042506 L7.31096197,7.82997763 L10.9261745,6.00447427 L10.8903803,10.2908277 L10.8903803,10.2908277 Z M7.01565996,7.31096197 L3.54362416,5.47651007 L7.05145414,3.46308725 L10.5145414,5.51230425 C10.5145414,5.5212528 7.00671141,7.31096197 7.01565996,7.31096197 Z" id="形状" opacity="0.55"></path>
            <path d="M9.80760626,1.56599553 L9.20805369,2.4966443 L12.8590604,4.69798658 L12.787472,11.3736018 L11.6689038,12.0447427 L12.2237136,13.0111857 L13.8612975,12.0447427 L13.9328859,4.06263982 L13.9328859,4.02684564 L9.80760626,1.56599553 Z M1.15436242,4.5458613 L7.04250559,1.22595078 L8.19686801,1.93288591 L8.75167785,1.00223714 L7.08724832,0 L7.05145414,0 L0.0715883669,3.87472036 L0.0357941834,8.72483221 L1.11856823,8.72483221 L1.15436242,4.5458613 Z M6.93512304,14.7293065 L1.08277405,11.3020134 L1.11856823,9.95973154 L0.0357941834,9.92393736 L0,11.9373602 L6.89932886,16 L6.93512304,16 L11.1498881,13.6107383 L11.1856823,13.5749441 L10.6308725,12.6085011 L6.93512304,14.7293065 L6.93512304,14.7293065 Z" id="形状"></path>
        </g>
    </g>
</svg>