<?xml version="1.0" encoding="UTF-8"?>
<svg width="20px" height="20px" viewBox="0 0 20 20" version="1.1" xmlns="http://www.w3.org/2000/svg" xmlns:xlink="http://www.w3.org/1999/xlink">
    <title>application-deployment-second-menu</title>
    <g id="application-deployment-second-menu" stroke="none" stroke-width="1" fill="none" fill-rule="evenodd">
        <g id="compute-drm-second-menu">
            <rect id="矩形" fill="#000000" opacity="0" x="0" y="0" width="20" height="20"></rect>
            <g id="编组备份" transform="translate(3.071797, 2.000000)" fill="#9FAECF">
                <path d="M6.92820323,0 L13.8564065,4 L13.8566662,8.49472297 C13.2847666,8.17941594 12.6274374,8 11.9282032,8 C9.71906423,8 7.92820323,9.790861 7.92820323,12 C7.92820323,13.0787049 8.35519659,14.0576802 9.04938304,14.7771256 L6.92820323,16 L-1.50102153e-13,12 L-1.50990331e-13,4 L6.92820323,0 Z M9.45702603,5 L6.42820323,6.731 L3.39938043,5 L2.92820323,5.80773234 L5.95720323,7.539 L5.95702603,11 L6.89938043,11 L6.90020323,7.539 L9.92820323,5.80773234 L9.45702603,5 Z" id="形状结合"></path>
            </g>
            <g id="编组备份-4" transform="translate(12.093476, 10.936779)" fill="#57689C">
                <path d="M4.98952463,5.3123108 L5.48390698,6.40024153 C5.53890587,6.52043344 5.52380593,6.64816408 5.4406625,6.75940706 C5.28448725,6.96924594 4.9361685,7.06322115 4.65995888,7.06322115 L1.1147062,7.06322115 C0.791636509,7.06322115 0.492338162,6.95112303 0.351960487,6.77781502 C0.263678725,6.66852989 0.239757361,6.54000413 0.284674616,6.41511644 L0.290758099,6.40024153 L0.785132958,5.3123108 C1.32736555,5.78982293 2.06973047,6.0854457 2.88737005,6.0854457 C3.7048971,6.0854457 4.44699948,5.79007799 4.98952463,5.3123108 Z M2.90713961,0 C4.51269895,0 5.81427923,1.30130271 5.81427923,2.90651701 C5.81427923,4.51173131 4.51269895,5.81301901 2.90713961,5.81301901 C1.30158025,5.81301901 0,4.51173131 0,2.90650951 C0,1.30128771 1.30158025,0 2.90713961,0 Z M2.90713961,1.77717208 C1.99311696,1.77717208 1.25217727,2.51796174 1.25217727,3.43178185 C1.25217727,4.34560198 1.99312446,5.08639915 2.90713961,5.08639915 C3.82116225,5.08639915 4.56210195,4.34560948 4.56210195,3.43178934 C4.56210195,2.51796924 3.82116225,1.77717208 2.90713961,1.77717208 Z M2.90713961,2.56508435 C3.40525757,2.56508435 3.80904779,2.96879957 3.80904779,3.46680503 C3.80904779,3.96481045 3.40525757,4.36852566 2.90713961,4.36852566 C2.40902165,4.36852566 2.00523142,3.96481045 2.00523142,3.46680503 C2.00523142,2.96879957 2.40902915,2.56508435 2.90713961,2.56508435 Z" id="形状结合"></path>
            </g>
        </g>
    </g>
</svg>