<?xml version="1.0" encoding="UTF-8"?>
<svg width="20px" height="20px" viewBox="0 0 20 20" version="1.1" xmlns="http://www.w3.org/2000/svg" xmlns:xlink="http://www.w3.org/1999/xlink">
    <title> application services (intranet)-second-menu</title>
    <g id="-application-services-(intranet)-second-menu" stroke="none" stroke-width="1" fill="none" fill-rule="evenodd">
        <rect id="矩形" fill-opacity="0" fill="#D8D8D8" x="0" y="0" width="20" height="20"></rect>
        <g id="图形" transform="translate(2, 2)">
            <rect id="矩形" fill-opacity="0" fill="#D8D8D8" x="0" y="0" width="16" height="16"></rect>
            <path d="M2.41720114,3.51871103 C2.88306814,3.77758499 3.39639331,4.00012052 3.94483884,4.18364126 C3.66413709,5.24952442 3.50387597,6.4247886 3.47776418,7.64503531 L0,7.64503531 C0.069022167,5.96898735 0.646195987,4.35589691 1.65212566,3.02766006 C1.89632428,3.20822407 2.15189921,3.37226059 2.41720114,3.51871103 L2.41720114,3.51871103 Z M7.65184823,8.35474859 L4.17429621,8.35474859 C4.19986944,9.50728878 4.3502244,10.6155114 4.61254998,11.6163311 C5.55658915,11.3656524 6.58594859,11.2218114 7.65184823,11.1960952 L7.65184823,8.35474859 Z M2.41720114,12.4815217 C2.88306814,12.2226477 3.39639331,12.0001122 3.94483884,11.8165915 C3.66413709,10.7507083 3.50387597,9.57544413 3.47776418,8.35518079 L0,8.35518079 C0.0689287311,10.0313895 0.646107493,11.6446564 1.65212566,12.9730215 C1.89631174,12.7923037 2.15188696,12.628117 2.41720114,12.4815217 L2.41720114,12.4815217 Z M8.34816809,0.231512083 L8.34816809,4.09475671 C9.34629131,4.06960573 10.3074174,3.93617085 11.1870583,3.7048915 C11.0401134,3.25535233 10.8590698,2.81813369 10.6455651,2.39718984 C10.0059404,1.1479023 9.20071807,0.393422593 8.34816809,0.231512083 Z M7.65184823,7.64548414 L7.65184823,4.80412091 C6.5856222,4.77842135 5.55658915,4.6345637 4.61254998,4.383885 C4.3502244,5.38472136 4.19986944,6.49294395 4.17429621,7.64548414 L7.65184823,7.64548414 Z M11.3874663,4.383885 C10.4434109,4.6345637 9.41439412,4.77842135 8.34816809,4.80412091 L8.34816809,7.64548414 L11.8257038,7.64548414 C11.8001469,6.49294395 11.6497756,5.38472136 11.3874663,4.383885 Z M7.65184823,15.7687206 L7.65184823,11.905476 C6.65372501,11.930627 5.69259894,12.0640619 4.81295798,12.2953412 C4.95987691,12.7450676 5.14092086,13.1824706 5.35445124,13.6035915 C5.99407589,14.8523304 6.79929825,15.6068101 7.65184823,15.7687206 Z M5.35445124,2.39664127 C5.14092086,2.81776212 4.95987691,3.25516512 4.81295798,3.7048915 C5.69259894,3.93617085 6.65372501,4.06960573 7.65184823,4.09475671 L7.65184823,0.231512083 C6.79929825,0.393422593 5.99407589,1.1479023 5.35445124,2.39664127 L5.35445124,2.39664127 Z M13.5828152,3.51871103 C13.1169319,3.77758499 12.603623,4.00012052 12.0551612,4.18364126 C12.3358629,5.24952442 12.496124,6.4247886 12.5222358,7.64503531 L16,7.64503531 C15.9310726,5.96883418 15.3538998,4.3555738 14.3478907,3.02721123 C14.1037046,3.20792904 13.8481294,3.37211568 13.5828152,3.51871103 L13.5828152,3.51871103 Z M2.75066503,2.89610361 C3.17498164,3.1320541 3.64336189,3.33562249 4.14492044,3.5049636 C4.31291718,2.99185357 4.51092615,2.51034434 4.73711954,2.06859794 C5.14294574,1.27623384 5.61981232,0.650634229 6.15454916,0.209353283 C6.24609275,0.13361773 6.33871889,0.063833302 6.43242758,0 C4.73374133,0.343552826 3.22862505,1.23401077 2.10146063,2.48396323 C2.30949291,2.6345707 2.52629147,2.77220291 2.75066503,2.89610361 L2.75066503,2.89610361 Z M6.15454916,15.7908794 C5.61981232,15.3493658 5.14271726,14.7237828 4.73711954,13.9314021 C4.51092615,13.489772 4.31280294,13.0081464 4.14492044,12.4950364 C3.64336189,12.6643775 3.17530804,12.8679625 2.75066503,13.1038964 C2.52629147,13.2277971 2.30949291,13.3654293 2.10146063,13.5160368 C3.22862505,14.7660059 4.73374133,15.6565635 6.43242758,16 C6.33871889,15.9363108 6.24609275,15.8666039 6.15454916,15.7908794 L6.15454916,15.7908794 Z M13.2493513,13.1038964 C12.8250347,12.8679625 12.357193,12.6643775 11.8550796,12.4950364 C11.6870991,13.0081464 11.4890902,13.489772 11.2628968,13.9314021 C10.8570706,14.7237828 10.380204,15.3499143 9.84545084,15.7908794 C9.75384197,15.8664598 9.66122127,15.9361667 9.56758874,16 C11.2662587,15.6564472 12.7713913,14.7660059 13.8985557,13.5160368 C13.6905179,13.3655032 13.4737194,13.2279432 13.2493513,13.1041125 L13.2493513,13.1038964 Z M10.6455651,13.6033754 C10.8590955,13.1822545 11.0401394,12.7448515 11.1870583,12.2951251 C10.3074174,12.0638291 9.34629131,11.9304109 8.34816809,11.9052433 L8.34816809,15.7687206 C9.20071807,15.6068101 10.0059404,14.8523304 10.6455651,13.6035915 L10.6455651,13.6033754 Z M8.34816809,8.35474859 L8.34816809,11.1960952 C9.41439412,11.2218114 10.4434109,11.3656524 11.3874663,11.6163311 C11.6497756,10.6150625 11.8001469,9.50783735 11.8257038,8.35474859 L8.34816809,8.35474859 Z M9.84545084,0.209353283 C10.380204,0.650866955 10.8572827,1.27644994 11.2628968,2.06883067 C11.4890902,2.51056044 11.6872134,2.99208629 11.8550796,3.5051797 C12.3566544,3.33585522 12.8247083,3.13227021 13.2493513,2.89633634 C13.4737253,2.77243026 13.6905238,2.63479248 13.8985557,2.48417934 C12.7713913,1.23401077 11.2662587,0.343436463 9.56758874,0 C9.66129743,0.063833302 9.75391813,0.13361773 9.84545084,0.209353283 Z M14.3478907,12.9727888 C15.3539409,11.6443666 15.931116,10.0310244 16,8.35474859 L12.5222358,8.35474859 C12.496124,9.5749953 12.3358629,10.7502595 12.0551612,11.8161426 C12.6040636,12.0001122 13.1169319,12.2226477 13.5828152,12.4810729 C13.8481294,12.6276682 14.1037046,12.7918549 14.3478907,12.9725727 L14.3478907,12.9727888 Z" id="形状" fill="#57689C"></path>
        </g>
    </g>
</svg>