<?xml version="1.0" encoding="UTF-8"?>
<svg width="20px" height="20px" viewBox="0 0 20 20" version="1.1" xmlns="http://www.w3.org/2000/svg" xmlns:xlink="http://www.w3.org/1999/xlink">
    <title>Application Deployment History 3</title>
    <g id="Application-Deployment-History" stroke="none" stroke-width="1" fill="none" fill-rule="evenodd">
        <rect id="矩形" fill="#000000" opacity="0" x="0" y="0" width="20" height="20"></rect>
        <g id="编组" transform="translate(3.071797, 2.000000)">
            <g id="编组备份">
                <path d="M6.92820323,0 L13.8564065,4 L13.8570667,10.7021965 C13.3355542,10.2639608 12.6627044,10 11.9282032,10 C10.271349,10 8.92820323,11.3431458 8.92820323,13 C8.92820323,13.5817325 9.09378069,14.1247924 9.38037851,14.5846224 L6.92820323,16 L-1.50102153e-13,12 L-1.50990331e-13,4 L6.92820323,0 Z M9.45702603,5 L6.42820323,6.731 L3.39938043,5 L2.92820323,5.80773234 L5.95720323,7.539 L5.95702603,11 L6.89938043,11 L6.90020323,7.539 L9.92820323,5.80773234 L9.45702603,5 Z" id="形状结合" fill="#9FAECF"></path>
                <circle id="椭圆形" fill="#57689C" cx="11.9282032" cy="13" r="3"></circle>
            </g>
            <g id="编组-21" transform="translate(7.533210, 9.600000)" fill="#FFFFFF" fill-rule="nonzero">
                <polygon id="路径-3备份-8" points="4.66555575 2.23368057 4.66555575 3.28868057 5.44743336 4.1633138 5.64732268 4.38701953 5.19991121 4.78679819 5.00002188 4.56309245 4.14185001 3.60267114 4.06555575 3.40278181 4.06555575 2.23368057"></polygon>
                <path d="M4.36419708,0 C6.25806399,0 7.7949929,1.52131222 7.7949929,3.4 C7.7949929,5.27868778 6.25806399,6.8 4.36419708,6.8 C3.42973159,6.8 2.55380221,6.42742666 1.91272774,5.77860098 C1.75745952,5.62145542 1.7589814,5.368194 1.91612697,5.21292577 C2.07327254,5.05765754 2.32653396,5.05917943 2.48180218,5.216325 C2.97386812,5.71434049 3.64546088,6 4.36419708,6 C5.81805479,6 6.9949929,4.83502072 6.9949929,3.4 C6.9949929,1.96497928 5.81805479,0.8 4.36419708,0.8 C3.14099949,0.8 2.11382313,1.62464614 1.81868133,2.74095092 L2.34076622,2.33857077 C2.49369414,2.22034298 2.70514837,2.23017827 2.84614059,2.35156984 L2.90187576,2.41037665 C3.03699324,2.58515142 3.00484465,2.83636871 2.83007317,2.97149039 L1.57896831,3.93870641 C1.40545435,4.07284916 1.15628158,4.04225459 1.0203738,3.87011963 L0.0860705785,2.68677987 C-0.0508205561,2.51339084 -0.0212392261,2.26185832 0.152143246,2.12495879 C0.325532279,1.98806765 0.577064796,2.01764898 0.713960129,2.19103474 L1.03032561,2.59411831 C1.39554498,1.10482046 2.75026174,0 4.36419708,0 Z" id="形状结合"></path>
                <path d="M4.36419708,0 C6.25806399,0 7.7949929,1.52131222 7.7949929,3.4 C7.7949929,5.27868778 6.25806399,6.8 4.36419708,6.8 C3.42973159,6.8 2.55380221,6.42742666 1.91272774,5.77860098 C1.75745952,5.62145542 1.7589814,5.368194 1.91612697,5.21292577 C2.07327254,5.05765754 2.32653396,5.05917943 2.48180218,5.216325 C2.97386812,5.71434049 3.64546088,6 4.36419708,6 C5.81805479,6 6.9949929,4.83502072 6.9949929,3.4 C6.9949929,1.96497928 5.81805479,0.8 4.36419708,0.8 C3.14099949,0.8 2.11382313,1.62464614 1.81868133,2.74095092 L2.34076622,2.33857077 C2.49369414,2.22034298 2.70514837,2.23017827 2.84614059,2.35156984 L2.90187576,2.41037665 C3.03699324,2.58515142 3.00484465,2.83636871 2.83007317,2.97149039 L1.57896831,3.93870641 C1.40545435,4.07284916 1.15628158,4.04225459 1.0203738,3.87011963 L0.0860705785,2.68677987 C-0.0508205561,2.51339084 -0.0212392261,2.26185832 0.152143246,2.12495879 C0.325532279,1.98806765 0.577064796,2.01764898 0.713960129,2.19103474 L1.03032561,2.59411831 C1.39554498,1.10482046 2.75026174,0 4.36419708,0 Z" id="形状结合"></path>
            </g>
        </g>
    </g>
</svg>