<?xml version="1.0" encoding="UTF-8"?>
<svg width="20px" height="20px" viewBox="0 0 20 20" version="1.1" xmlns="http://www.w3.org/2000/svg" xmlns:xlink="http://www.w3.org/1999/xlink">
    <title>business-list-second-menu</title>
    <g id="business-list-second-menu" stroke="none" stroke-width="1" fill="none" fill-rule="evenodd">
        <rect id="矩形备份-6" stroke="#57689C" stroke-width="1.2" x="7.7" y="4" width="4.6" height="3" rx="0.5"></rect>
        <path d="M6.399,11 L6.399531,12 C6.399531,12.3313708 6.66816015,12.6 6.999531,12.6 C7.33090185,12.6 7.599531,12.3313708 7.599531,12 L7.599,11 L12.399,11 L12.399531,12 C12.399531,12.2982338 12.6171206,12.5456468 12.9022079,12.592147 L12.999531,12.6 C13.3309018,12.6 13.599531,12.3313708 13.599531,12 L13.599,11 L17,11 L17,16 C17,16.5522847 16.5522847,17 16,17 L4,17 C3.44771525,17 3,16.5522847 3,16 L3,11 L6.399,11 Z" id="形状结合" fill="#9FAECF"></path>
        <path d="M16,6 C16.5522847,6 17,6.44771525 17,7 L17,10 L13.599,10 L13.599531,9 C13.599531,8.70176624 13.3819414,8.45435325 13.0968541,8.40785299 L12.999531,8.4 C12.6681602,8.4 12.399531,8.66862915 12.399531,9 L12.399,10 L7.599,10 L7.599531,9 C7.599531,8.70176624 7.38194139,8.45435325 7.09685412,8.40785299 L6.999531,8.4 C6.66816015,8.4 6.399531,8.66862915 6.399531,9 L6.399,10 L3,10 L3,7 C3,6.44771525 3.44771525,6 4,6 L16,6 Z" id="形状结合" fill="#57689C"></path>
        <g id="编组-2备份-2" transform="translate(6.399531, 8.400000)"></g>
    </g>
</svg>