<?xml version="1.0" encoding="UTF-8"?>
<svg width="20px" height="20px" viewBox="0 0 20 20" version="1.1" xmlns="http://www.w3.org/2000/svg" xmlns:xlink="http://www.w3.org/1999/xlink">
    <title>architecture-observe-second-menu</title>
    <g id="architecture-observe-second-menu" stroke="none" stroke-width="1" fill="none" fill-rule="evenodd">
        <g>
            <rect id="矩形" x="0" y="0" width="20" height="20"></rect>
            <g id="架构拓扑" transform="translate(2.000000, 3.314286)">
                <path d="M8.23529412,3.76470588 L8.23505882,5.94070588 L13.210084,5.94117647 C13.8412666,5.94117647 14.3529412,6.45285104 14.3529412,7.08403361 L14.3529412,9.05882353 L13.4117647,9.05882353 L13.4117647,7.08403361 C13.4117647,6.97264845 13.3214692,6.88235294 13.210084,6.88235294 L8.23505882,6.88170588 L8.23529412,9.05882353 L7.29411765,9.05882353 L7.29405882,6.88170588 L2.78991597,6.88235294 C2.67853081,6.88235294 2.58823529,6.97264845 2.58823529,7.08403361 L2.58823529,9.05882353 L1.64705882,9.05882353 L1.64705882,7.08403361 C1.64705882,6.45285104 2.1587334,5.94117647 2.78991597,5.94117647 L7.29405882,5.94070588 L7.29411765,3.76470588 L8.23529412,3.76470588 Z" id="形状结合" fill="#57689C" opacity="0.55"></path>
                <g id="Fill-3-Clipped" transform="translate(1.647059, 6.941176)"></g>
                <path d="M8.97485303,0 L9.08871168,0.00628728807 C9.53625824,0.056081294 9.88235294,0.395561961 9.88235294,0.80687229 L9.88235294,2.95757179 L9.87528421,3.05878126 C9.81930067,3.4566414 9.43760933,3.76470588 8.97485303,3.76470588 L6.55514783,3.76470588 L6.44122134,3.75841419 C5.9934045,3.70858586 5.64705882,3.36888212 5.64705882,2.95757179 L5.64705882,0.80687229 L5.65413265,0.705667234 C5.71015641,0.307841411 6.09211964,0 6.55514783,0 L8.97485303,0 Z M7.76470588,1.22705672 C7.37485782,1.22705672 7.05882353,1.54309102 7.05882353,1.93293908 C7.05882353,2.32278714 7.37485782,2.63882143 7.76470588,2.63882143 C8.15455394,2.63882143 8.47058824,2.32278714 8.47058824,1.93293908 C8.47058824,1.54309102 8.15455394,1.22705672 7.76470588,1.22705672 Z" id="形状结合" fill="#57689C"></path>
                <path d="M0.908089002,9.05882353 C0.406475129,9.05882353 0,9.42010963 0,9.86569582 L0,9.86569582 L0,12.0163953 C0,12.4619815 0.406475129,12.8235294 0.908089002,12.8235294 L0.908089002,12.8235294 L3.32779421,12.8235294 C3.82911354,12.8235294 4.23529412,12.4619815 4.23529412,12.0163953 L4.23529412,12.0163953 L4.23529412,9.86569582 C4.23529412,9.42010963 3.82911354,9.05882353 3.32779421,9.05882353 L3.32779421,9.05882353 L0.908089002,9.05882353 Z M1.41176471,10.2352941 L2.82352941,10.2352941 L2.82352941,11.6470588 L1.41176471,11.6470588 Z" id="形状结合备份" fill="#57689C"></path>
                <path d="M6.55514783,9.05882353 C6.05353395,9.05882353 5.64705882,9.42010963 5.64705882,9.86569582 L5.64705882,9.86569582 L5.64705882,12.0163953 C5.64705882,12.4619815 6.05353395,12.8235294 6.55514783,12.8235294 L6.55514783,12.8235294 L8.97485303,12.8235294 C9.47617236,12.8235294 9.88235294,12.4619815 9.88235294,12.0163953 L9.88235294,12.0163953 L9.88235294,9.86569582 C9.88235294,9.42010963 9.47617236,9.05882353 8.97485303,9.05882353 L8.97485303,9.05882353 L6.55514783,9.05882353 Z M7.05882353,10.2352941 L8.47058824,10.2352941 L8.47058824,11.6470588 L7.05882353,11.6470588 Z" id="形状结合备份-3" fill="#57689C"></path>
                <path d="M12.6727949,9.05882353 C12.171181,9.05882353 11.7647059,9.42010963 11.7647059,9.86569582 L11.7647059,9.86569582 L11.7647059,12.0163953 C11.7647059,12.4619815 12.171181,12.8235294 12.6727949,12.8235294 L12.6727949,12.8235294 L15.0925001,12.8235294 C15.5938194,12.8235294 16,12.4619815 16,12.0163953 L16,12.0163953 L16,9.86569582 C16,9.42010963 15.5938194,9.05882353 15.0925001,9.05882353 L15.0925001,9.05882353 L12.6727949,9.05882353 Z M13.1764706,10.2352941 L14.5882353,10.2352941 L14.5882353,11.6470588 L13.1764706,11.6470588 Z" id="形状结合备份-2" fill="#57689C"></path>
            </g>
        </g>
    </g>
</svg>