<?xml version="1.0" encoding="UTF-8"?>
<svg width="20px" height="20px" viewBox="0 0 20 20" version="1.1" xmlns="http://www.w3.org/2000/svg" xmlns:xlink="http://www.w3.org/1999/xlink">
    <title>area-second-menu</title>
    <g id="area-second-menu" stroke="none" stroke-width="1" fill="none" fill-rule="evenodd">
        <rect id="矩形" fill-opacity="0" fill="#D8D8D8" x="0" y="0" width="20" height="20"></rect>
        <g id="行政区域管理" transform="translate(2.000000, 2.000000)" fill="#57689C" fill-rule="nonzero">
            <path d="M5.89511898,0.528753236 L2.64894559,0.528753236 C1.09468553,0.528753236 0,1.81426312 0,3.53676782 L0,5.51783599 L3.63656919,8.12234196 L5.89436788,0.52948868 L5.89511898,0.528753236 Z M0,12.5236482 C0,13.6248901 0.49382745,14.6154242 1.37656416,15.1281698 L3.14203759,10.0298344 L0,7.8281016 L0,12.5236482 L0,12.5236482 Z M13.145662,9.62637272 L13.1289189,9.6613298 C13.1381945,9.65471483 13.1469562,9.64740732 13.1551289,9.63946989 L13.273113,9.78806096 L14.6423853,8.12016692 C14.6812838,8.07326787 14.7196441,8.0259251 14.7574588,7.97814791 L14.7574588,12.4857962 C14.7574588,13.40349 14.2622074,14.2097562 13.5928591,14.7967973 L5.4369997,9.40494136 L8.36708847,0.530943921 L9.12162314,0.530943921 C8.94219842,1.02767839 8.85100211,1.55195791 8.85215318,2.08010281 C8.85215318,2.96503021 9.21849838,3.90530371 9.86016581,5.04295797 C10.0473442,5.3743461 10.2563669,5.716672 10.4836192,6.0669939 C10.9371575,6.76449544 11.4207363,7.4419966 11.9329924,8.09758721 L13.145662,9.62707687 L13.145662,9.62637272 Z M3.31829389,15.5331493 L10.9803415,15.5331493 L4.69629764,11.2403446 L3.31829389,15.5331493 L3.31829389,15.5331493 Z" id="形状" opacity="0.550000012"></path>
            <path d="M13.2971636,0 C14.8026339,0 16,1.20393815 16,2.72906208 L15.9919711,2.88163751 C15.8379821,4.57000648 13.2971636,7.66351853 13.2971636,7.66351853 C13.2971636,7.66351853 10.5935917,4.25346622 10.5935917,2.72760684 C10.5935917,1.20248291 11.790238,0 13.2971636,0 Z M13.2971636,1.54042744 C12.6256402,1.54042744 12.0254863,2.12673311 12.0254863,2.82374664 C12.0254863,3.52147996 12.5207533,4.10780129 13.1908214,4.10780129 C13.861625,4.10780129 14.4617632,3.52147996 14.4617632,2.82374664 C14.4617632,2.12673311 13.9672316,1.54042744 13.2971636,1.54042744 Z" id="形状结合"></path>
        </g>
    </g>
</svg>