<?xml version="1.0" encoding="UTF-8"?>
<svg width="20px" height="20px" viewBox="0 0 20 20" version="1.1" xmlns="http://www.w3.org/2000/svg" xmlns:xlink="http://www.w3.org/1999/xlink">
    <title>arrange-template-library-second-menu</title>
    <g id="arrange-template-library-second-menu" stroke="none" stroke-width="1" fill="none" fill-rule="evenodd">
        <rect id="矩形" fill="#000000" opacity="0" x="0" y="0" width="20" height="20"></rect>
        <g id="编组" transform="translate(2.000000, 3.500000)">
            <path d="M11.9961226,0 C12.1967587,0 12.4357795,0.149238417 12.5307518,0.333333333 L13.1808157,1.5 L13.9477886,1.5 C14.2004711,1.5 14.4577102,1.72385763 14.522348,2 L15.3036879,3.576436 L15.2781224,3.56671312 C15.257359,3.55911278 15.2363025,3.55212043 15.2149746,3.54575763 L15.3036879,3.576436 C15.2552374,3.55731187 15.2051034,3.54152835 15.1535696,3.52936934 C15.1306646,3.5239692 15.1076701,3.51931674 15.0844278,3.51539324 C15.06618,3.51230567 15.0473634,3.50961869 15.0283997,3.50741404 L14.9,3.5 L1.1,3.5 C1.05670595,3.5 1.01399608,3.50250115 0.972006998,3.50736683 L1.1,3.5 C1.03785451,3.5 0.976912686,3.5051535 0.917578574,3.51505645 C0.892665651,3.51921462 0.868042925,3.52420848 0.843733362,3.53000929 C0.825640499,3.5343287 0.807832972,3.5390623 0.790208868,3.54422521 C0.768710131,3.55051276 0.747033439,3.55760221 0.725664667,3.5653348 L0.697815712,3.5758438 L1.47765198,2 C1.54228985,1.72385763 1.79952885,1.5 2.05221139,1.5 L2.81881571,1.5 L3.4692482,0.333333333 C3.56422046,0.149238417 3.80324131,0 4.00387745,0 L11.9961226,0 Z" id="形状结合" fill="#57689C"></path>
            <path d="M14.9,3.5 C15.5075132,3.5 16,3.99248678 16,4.6 L16,13.125 C16,13.8843915 15.4883254,14.5 14.8571429,14.5 L1.14285714,14.5 C0.511674572,14.5 0,13.8843915 0,13.125 L0,4.6 C-7.43989126e-17,3.99248678 0.492486775,3.5 1.1,3.5 L14.9,3.5 Z M5.46031746,4.5 C4.6538064,4.5 4,5.17157288 4,6 C4,6.82842712 4.6538064,7.5 5.46031746,7.5 C6.07212726,7.5 6.59606224,7.11353929 6.81337431,6.56531016 L11.0238095,6.56521739 L11.0238095,8.69521739 L4.26190476,8.69565217 L4.26190476,12.826087 L9.44095371,12.8270865 C9.65848386,13.3748349 10.1821784,13.7608696 10.7936508,13.7608696 C11.6001619,13.7608696 12.2539683,13.0892967 12.2539683,12.2608696 C12.2539683,11.4324424 11.6001619,10.7608696 10.7936508,10.7608696 C10.1341732,10.7608696 9.57679698,11.2098967 9.3954872,11.8265413 L5.2622381,11.8256522 L5.2622381,9.69565217 L12.0238095,9.69565217 L12.0238095,5.56521739 L6.85848105,5.56567176 C6.67717127,4.94902715 6.11979507,4.5 5.46031746,4.5 Z" id="形状结合" fill="#57689C" opacity="0.55"></path>
            <g id="编组-8" transform="translate(4.000000, 4.500000)"></g>
        </g>
    </g>
</svg>