<?xml version="1.0" encoding="UTF-8"?>
<svg width="20px" height="20px" viewBox="0 0 20 20" version="1.1" xmlns="http://www.w3.org/2000/svg" xmlns:xlink="http://www.w3.org/1999/xlink">
    <title>Arrange template library 2</title>
    <g id="Arrange-template-library" stroke="none" stroke-width="1" fill="none" fill-rule="evenodd">
        <rect id="矩形" fill="#000000" opacity="0" x="0" y="0" width="20" height="20"></rect>
        <g id="编组" transform="translate(2.000000, 3.500000)">
            <path d="M2.07320147,4.25648958 C2.38343408,3.42171411 2.84878298,2.16955092 3.4692482,0.5 C3.56422046,0.223857625 3.80324131,0 4.00387745,0 L11.9961226,0 C12.1967587,0 12.4357795,0.223857625 12.5307518,0.5 C13.0962229,2.0215724 13.5203262,3.1627517 13.8030617,3.9235379" id="路径" fill="#FFFFFF" opacity="0.55"></path>
            <path d="M0.731934653,4.5 C0.897649615,3.92377018 1.14622206,3.05942546 1.47765198,1.90696583 C1.54228985,1.68220481 1.79952885,1.5 2.05221139,1.5 L13.9477886,1.5 C14.2004711,1.5 14.4577102,1.68220481 14.522348,1.90696583 C14.8310388,2.980356 15.0625568,3.78539863 15.2169022,4.32209371" id="路径" fill="#FFFFFF" opacity="0.55"></path>
            <path d="M14.9,3.5 C15.5075132,3.5 16,3.99248678 16,4.6 L16,13.125 C16,13.8843915 15.4883254,14.5 14.8571429,14.5 L1.14285714,14.5 C0.511674572,14.5 0,13.8843915 0,13.125 L0,4.6 C-7.43989126e-17,3.99248678 0.492486775,3.5 1.1,3.5 L14.9,3.5 Z M5,5 C4.44771525,5 4,5.44771525 4,6 C4,6.55228475 4.44771525,7 5,7 C5.34218606,7 5.64422969,6.82812987 5.82451471,6.56600582 L11.0238095,6.56521739 L11.0238095,8.69521739 L4.26190476,8.69565217 L4.26190476,12.826087 L10.0545143,12.8264988 C10.1898447,13.2184622 10.562044,13.5 11,13.5 C11.5522847,13.5 12,13.0522847 12,12.5 C12,11.9477153 11.5522847,11.5 11,11.5 C10.7075008,11.5 10.4443326,11.6255814 10.2614714,11.8257684 L5.2622381,11.8256522 L5.2622381,9.69565217 L12.0238095,9.69565217 L12.0238095,5.56521739 L5.9007391,5.56511216 C5.73896963,5.23067111 5.39642288,5 5,5 Z" id="形状结合" fill="#FFFFFF"></path>
            <g id="编组-8" transform="translate(4.000000, 5.000000)"></g>
        </g>
    </g>
</svg>