<?xml version="1.0" encoding="UTF-8"?>
<svg width="20px" height="20px" viewBox="0 0 20 20" version="1.1" xmlns="http://www.w3.org/2000/svg" xmlns:xlink="http://www.w3.org/1999/xlink">
    <title>authority management 2</title>
    <g id="authority-management" stroke="none" stroke-width="1" fill="none" fill-rule="evenodd">
        <rect id="矩形" fill="#000000" opacity="0" x="0" y="0" width="20" height="20"></rect>
        <path d="M12.1270721,5.6298717 C12.1270721,7.6345848 10.5019629,9.2597277 8.49723856,9.2597277 C6.49252546,9.2597277 4.86738257,7.6345848 4.86738257,5.6298717 C4.86738257,3.62514738 6.49252546,2 8.49723856,2 C10.5019629,2 12.1270721,3.62514738 12.1270721,5.6298717 Z M9.81471486,10.4696834 C11.0799689,10.4696834 12.2115671,10.7419851 13.1621347,11.2207568 C12.9298877,11.5509081 12.5909085,11.7506338 12.1843121,11.7883714 L12.0649659,11.7947385 C11.7418778,11.799537 11.380886,11.7062708 11,11.5 L10,13.1675578 C11.2806445,13.8610976 11.358841,15.0965547 10,15.8324422 L11,17.5 L11.1363188,17.4306936 C11.4077427,17.3016932 11.6713785,17.2301597 11.9181006,17.2123619 L12.0400099,17.2079238 C12.4853194,17.2079433 12.8676007,17.38956 13.1291624,17.7291858 L3.65724734,17.7293842 C2.65489079,17.7293842 1.94688176,16.9248336 2.00312851,15.923969 C2.17545849,12.8576574 4.75021119,10.4696834 8.49707029,10.4696834 L9.81471486,10.4696834 Z" id="形状结合" fill="#FFFFFF" opacity="0.55"></path>
        <g id="编组-14备份-2" transform="translate(11.000000, 11.000000)" fill="#FFFFFF">
            <path d="M4.27777778,0 C4.27777778,1.22590139 5.19306283,1.72401337 6.22222222,1.16666667 L7,2.46365606 C5.94312367,3.03601301 6.00394319,3.99692412 7,4.53634394 L6.22222222,5.83333333 C4.27777778,4.90034911 4.27777778,7 4.27777778,7 L2.72222222,7 C2.72222222,5.77409861 1.80693717,5.27598663 0.777777778,5.83333333 L0,4.53634394 C1.05687633,3.96398699 0.996056812,3.00307588 0,2.46365606 L0.777777778,1.16666667 C1.85166479,1.74823585 2.72222222,1.17484234 2.72222222,0 L4.27777778,0 Z M3.5,2.33333333 C2.85566779,2.33333333 2.33333333,2.85566779 2.33333333,3.5 C2.33333333,4.14433221 2.85566779,4.66666667 3.5,4.66666667 C4.14433221,4.66666667 4.66666667,4.14433221 4.66666667,3.5 C4.66666667,2.85566779 4.14433221,2.33333333 3.5,2.33333333 Z" id="形状结合"></path>
        </g>
    </g>
</svg>