<?xml version="1.0" encoding="UTF-8"?>
<svg width="20px" height="20px" viewBox="0 0 20 20" version="1.1" xmlns="http://www.w3.org/2000/svg" xmlns:xlink="http://www.w3.org/1999/xlink">
    <title>automatic-collection-second-menu</title>
    <g id="automatic-collection-second-menu" stroke="none" stroke-width="1" fill="none" fill-rule="evenodd">
        <g id="自动采集" transform="translate(0.000000, 0.000000)">
            <rect id="矩形" fill="#D8D8D8" opacity="0" x="0" y="0" width="20" height="20"></rect>
            <g id="编组" transform="translate(2.000000, 2.000000)" fill="#57689C" fill-rule="nonzero">
                <path d="M8.80899654,1.18477509 L7.35017301,1.18477509 L7.35017301,0.728027682 L8.81176471,0.728027682 L8.80899654,1.18477509 L8.80899654,1.18477509 Z M7.36401384,0 L8.80899654,0 L8.79515571,0.465051903 L7.36401384,0.465051903 L7.36401384,0 Z M7.36401384,1.38961938 L8.80899654,1.38961938 L8.80899654,2.33356401 L9.92733564,2.33356401 L8.06435986,4.53979239 L6.20138408,2.33356401 L7.36401384,2.33356401 L7.36401384,1.38961938 Z" id="形状" opacity="0.55"></path>
                <path d="M4.20833909,1.81581538 C4.2052866,2.02156283 4.21842341,5.26699937 8.06435986,5.30540147 C11.9102963,5.34380357 11.9102963,2.14024392 11.8817654,1.87124117 L14.2077975,2.91670565 C14.2999952,2.9547372 14.404078,3.0124138 14.5127294,3.10340122 C14.7396254,3.29340964 14.8953408,3.559372 14.8906906,3.88961938 C14.8906906,4.20525992 14.7619272,4.4664289 14.5666349,4.66765891 C14.4626982,4.77475569 14.3593939,4.84678144 14.2503563,4.90434917 L8.60403812,7.71367382 C8.25708004,7.88630275 7.84967595,7.88824476 7.50108791,7.71893135 L1.67132425,4.8846743 C1.5918144,4.83785183 1.49841015,4.77056617 1.40148068,4.67525219 C1.19406242,4.4712909 1.05276817,4.22088609 1.05276817,3.89515571 C1.05276817,3.54637846 1.21888897,3.28574064 1.45507292,3.09706496 C1.56399339,3.01005378 1.66711074,2.95414916 1.73636678,2.92584998 L4.20833909,1.81581538 Z" id="路径"></path>
                <path d="M1,5.6804326 C1.14595953,5.6804326 1.29014971,5.7123844 1.42244571,5.77404437 L7.21122285,8.47205387 C7.38737944,8.55415621 7.5,8.73089794 7.5,8.92524798 L7.5,14.4306441 C7.5,14.9829289 7.05228475,15.4306441 6.5,15.4306441 C6.35404047,15.4306441 6.20985029,15.3986923 6.07755429,15.3370323 L0.288777147,12.6390229 C0.112620558,12.5569205 0,12.3801788 0,12.1858287 L0,6.6804326 C0,6.12814785 0.44771525,5.6804326 1,5.6804326 Z" id="矩形"></path>
                <path d="M9.5,5.6804326 C9.64595953,5.6804326 9.79014971,5.7123844 9.92244571,5.77404437 L15.7112229,8.47205387 C15.8873794,8.55415621 16,8.73089794 16,8.92524798 L16,14.4306441 C16,14.9829289 15.5522847,15.4306441 15,15.4306441 C14.8540405,15.4306441 14.7098503,15.3986923 14.5775543,15.3370323 L8.78877715,12.6390229 C8.61262056,12.5569205 8.5,12.3801788 8.5,12.1858287 L8.5,6.6804326 C8.5,6.12814785 8.94771525,5.6804326 9.5,5.6804326 Z" id="矩形备份-2" transform="translate(12.250000, 10.555538) scale(-1, 1) translate(-12.250000, -10.555538) "></path>
            </g>
        </g>
    </g>
</svg>