<?xml version="1.0" encoding="UTF-8"?>
<svg width="20px" height="20px" viewBox="0 0 20 20" version="1.1" xmlns="http://www.w3.org/2000/svg" xmlns:xlink="http://www.w3.org/1999/xlink">
    <title>auto-discovery-second-menu</title>
    <g id="auto-discovery-second-menu" stroke="none" stroke-width="1" fill="none" fill-rule="evenodd">
        <g id="编组-5">
            <g id="编组备份-2">
                <rect id="矩形" x="0" y="0" width="20" height="20"></rect>
                <path d="M9.45473482,3.31270212 C12.8468858,3.31270212 15.5967675,6.06258383 15.5967675,9.45473482 L15.5944808,9.6239112 C15.5533759,11.1429365 14.959649,12.562943 13.9371448,13.6538858 L13.4651404,14.1569344 L12.8946486,14.544009 L12.7421662,14.6440663 C11.7681273,15.2628184 10.6378738,15.5967675 9.45473482,15.5967675 C6.06258383,15.5967675 3.31270212,12.8468858 3.31270212,9.45473482 C3.31270212,6.06258383 6.06258383,3.31270212 9.45473482,3.31270212 Z M6.97406265,8.18825475 L6.97406265,10.9049245 L9.31824608,12.307572 L9.31824608,9.59197985 L6.97406265,8.18825475 Z M12.1491995,8.20518591 L9.86463388,9.59092552 L9.86463388,12.2931098 L12.1491995,10.966794 L12.1491995,8.20518591 Z M9.55789801,6.45845306 L7.23860597,7.74613633 L9.55789801,9.09159642 L11.8415651,7.6928197 L9.55789801,6.45845306 Z" id="形状结合" fill="#57689C"></path>
                <path d="M9.45473482,2 C13.5718712,2 16.9094696,5.33759846 16.9094696,9.45473482 C16.9094696,11.4259698 16.1443658,13.2185052 14.8949214,14.5515778 L16.9290915,16.5859968 C17.2525643,16.9094696 17.2525643,17.4339226 16.9290915,17.7573954 C16.6056188,18.0808682 16.0811658,18.0808682 15.757693,17.7573954 L13.6309495,15.6307692 C12.4395585,16.4379594 11.0022102,16.9094696 9.45473482,16.9094696 C5.33759846,16.9094696 2,13.5718712 2,9.45473482 C2,5.33759846 5.33759846,2 9.45473482,2 Z M9.45473482,3.31270212 C6.06258383,3.31270212 3.31270212,6.06258383 3.31270212,9.45473482 C3.31270212,12.8468858 6.06258383,15.5967675 9.45473482,15.5967675 C10.6378738,15.5967675 11.7681273,15.2628184 12.7421662,14.6440663 L12.8946486,14.544009 L13.4651404,14.1569344 L13.9371448,13.6538858 C14.959649,12.562943 15.5533759,11.1429365 15.5944808,9.6239112 L15.5967675,9.45473482 C15.5967675,6.06258383 12.8468858,3.31270212 9.45473482,3.31270212 Z" id="形状结合" fill="#57689C" opacity="0.55"></path>
            </g>
            <g id="编组-8备份-3" transform="translate(9.510292, 9.466133) rotate(-30.000000) translate(-9.510292, -9.466133) translate(6.594457, 6.840729)">
                <g id="编组-7" transform="translate(-0.000000, -0.000000)"></g>
            </g>
        </g>
    </g>
</svg>