<?xml version="1.0" encoding="UTF-8"?>
<svg width="20px" height="20px" viewBox="0 0 20 20" version="1.1" xmlns="http://www.w3.org/2000/svg" xmlns:xlink="http://www.w3.org/1999/xlink">
    <title>automatic collection-second menu-normal</title>
    <g id="automatic-collection-second-menu-normal" stroke="none" stroke-width="1" fill="none" fill-rule="evenodd">
        <g id="自动采集" transform="translate(0.000000, 0.000000)">
            <rect id="矩形" fill="#D8D8D8" opacity="0" x="0" y="0" width="20" height="20"></rect>
            <path d="M10.8089965,3.18477509 L9.35017301,3.18477509 L9.35017301,2.72802768 L10.8117647,2.72802768 L10.8089965,3.18477509 L10.8089965,3.18477509 Z M9.36401384,2 L10.8089965,2 L10.7951557,2.4650519 L9.36401384,2.4650519 L9.36401384,2 Z M9.36401384,3.38961938 L10.8089965,3.38961938 L10.8089965,4.33356401 L11.9273356,4.33356401 L10.0643599,6.53979239 L8.20138408,4.33356401 L9.36401384,4.33356401 L9.36401384,3.38961938 Z" id="形状" fill="#57689C" fill-rule="nonzero"></path>
            <path d="M3,7.6804326 C3.14595953,7.6804326 3.29014971,7.7123844 3.42244571,7.77404437 L9.21122285,10.4720539 C9.38737944,10.5541562 9.5,10.7308979 9.5,10.925248 L9.5,16.4306441 C9.5,16.9829289 9.05228475,17.4306441 8.5,17.4306441 C8.35404047,17.4306441 8.20985029,17.3986923 8.07755429,17.3370323 L2.28877715,14.6390229 C2.11262056,14.5569205 2,14.3801788 2,14.1858287 L2,8.6804326 C2,8.12814785 2.44771525,7.6804326 3,7.6804326 Z M17,7.6804326 C17.5522847,7.6804326 18,8.12814785 18,8.6804326 L18,14.1858287 C18,14.3801788 17.8873794,14.5569205 17.7112229,14.6390229 L11.9224457,17.3370323 C11.7901497,17.3986923 11.6459595,17.4306441 11.5,17.4306441 C10.9477153,17.4306441 10.5,16.9829289 10.5,16.4306441 L10.5,10.925248 C10.5,10.7308979 10.6126206,10.5541562 10.7887771,10.4720539 L16.5775543,7.77404437 C16.7098503,7.7123844 16.8540405,7.6804326 17,7.6804326 Z M3.5,9.46507672 L3.5,13.5480767 L8,15.6460767 L8,11.5620767 L3.5,9.46507672 Z M16.5,9.46507672 L12,11.5620767 L12,15.6460767 L16.5,13.5480767 L16.5,9.46507672 Z M7.19975556,4.19276816 C7.36943502,4.57063289 7.20066751,5.01450516 6.82280277,5.18418462 L5.14676817,5.936 L10.0457682,8.315 L14.8227682,5.939 L13.2670235,5.23948547 C12.9206792,5.08387556 12.7500814,4.69790324 12.8548091,4.34362966 L12.8902723,4.2479924 C13.0600286,3.87016217 13.5039352,3.7014849 13.8817654,3.87124117 L16.2077975,4.91670565 C16.2999952,4.9547372 16.404078,5.0124138 16.5127294,5.10340122 C16.7396254,5.29340964 16.8953408,5.559372 16.8906906,5.88961938 C16.8906906,6.20525992 16.7619272,6.4664289 16.5666349,6.66765891 C16.4626982,6.77475569 16.3593939,6.84678144 16.2503563,6.90434917 L10.6040381,9.71367382 C10.25708,9.88630275 9.84967595,9.88824476 9.50108791,9.71893135 L3.67132425,6.8846743 C3.5918144,6.83785183 3.49841015,6.77056617 3.40148068,6.67525219 C3.19406242,6.4712909 3.05276817,6.22088609 3.05276817,5.89515571 C3.05276817,5.54637846 3.21888897,5.28574064 3.45507292,5.09706496 C3.56399339,5.01005378 3.66711074,4.95414916 3.73636678,4.92584998 L6.20833909,3.81581538 C6.58620383,3.64613592 7.0300761,3.81490343 7.19975556,4.19276816 Z" id="形状结合" fill="#9FAECF" fill-rule="nonzero"></path>
        </g>
    </g>
</svg>