<?xml version="1.0" encoding="UTF-8"?>
<svg width="20px" height="20px" viewBox="0 0 20 20" version="1.1" xmlns="http://www.w3.org/2000/svg" xmlns:xlink="http://www.w3.org/1999/xlink">
    <title>availability-zone-second-menu</title>
    <g id="availability-zone-second-menu" stroke="none" stroke-width="1" fill="none" fill-rule="evenodd">
        <rect id="矩形" fill-opacity="0" fill="#D8D8D8" x="0" y="0" width="20" height="20"></rect>
        <g id="数据中心" transform="translate(2.200000, 2.220000)" fill="#57689C" fill-rule="nonzero">
            <path d="M13.0674451,7.84055203 C13.2486199,7.84055203 13.4297947,7.93113943 13.5203821,8.11231423 L15.4227176,11.4187544 C15.513305,11.5999292 15.513305,11.781104 15.4227176,11.9622788 L13.5203821,15.268719 C13.4297948,15.4498938 13.2486199,15.5404812 13.0674451,15.5404812 L9.21748053,15.5404812 C9.03630573,15.5404812 8.85513093,15.4498938 8.76454352,15.268719 L6.86220805,11.9622788 C6.77162065,11.781104 6.77162065,11.5999292 6.86220805,11.4187544 L8.76454352,8.11231423 C8.85513091,7.93113943 9.03630573,7.84055203 9.21748053,7.84055203 Z M6.27317763,3.99058741 C6.45435243,3.99058741 6.63552723,4.08117482 6.72611463,4.26234961 L8.6284501,7.56878982 C8.71903751,7.74996462 8.71903751,7.93113943 8.6284501,8.11231423 L6.72611463,11.4187544 C6.63552724,11.5999292 6.45435243,11.6905166 6.27317763,11.6905166 L2.42321301,11.6905166 C2.24203821,11.6905166 2.06086341,11.5999292 1.970276,11.4187544 L0.0679405559,8.11231423 C-0.022646852,7.93113943 -0.022646852,7.74996462 0.0679405559,7.56878982 L1.970276,4.26234961 C2.0608634,4.08117482 2.24203821,3.99058741 2.42321301,3.99058741 Z" id="形状结合"></path>
            <path d="M13.0174451,0 L9.16748053,0 C8.98630573,0 8.80513091,0.0905874079 8.71454352,0.271762207 L6.81220805,3.57820239 C6.72162065,3.75937719 6.72162065,3.94055201 6.81220805,4.12172681 L8.71454352,7.42816701 C8.80513093,7.60934181 8.98630573,7.69992922 9.16748053,7.69992922 L13.0174451,7.69992922 C13.1986199,7.69992922 13.3797948,7.60934181 13.4703821,7.42816701 L15.3727176,4.12172681 C15.463305,3.94055201 15.463305,3.75937719 15.3727176,3.57820239 L13.4703821,0.271762207 C13.3797947,0.0905874079 13.1986199,0 13.0174451,0 Z" id="路径备份" opacity="0.550000012"></path>
        </g>
    </g>
</svg>