<?xml version="1.0" encoding="UTF-8"?>
<svg width="20px" height="20px" viewBox="0 0 20 20" version="1.1" xmlns="http://www.w3.org/2000/svg" xmlns:xlink="http://www.w3.org/1999/xlink">
    <title>backend-second-menu</title>
    <defs>
        <linearGradient x1="-3.35277807%" y1="50.0024078%" x2="103.379328%" y2="50.0024078%" id="linearGradient-1">
            <stop stop-color="#0471EA" offset="0.4092262%"></stop>
            <stop stop-color="#2AC6CC" offset="76.74%"></stop>
        </linearGradient>
    </defs>
    <g id="backend-second-menu" stroke="none" stroke-width="1" fill="none" fill-rule="evenodd">
        <g id="Mysql" stroke-linejoin="round">
            <g id="SVGID_1_-link">
                <rect id="矩形" x="0" y="0" width="20" height="20"></rect>
            </g>
        </g>
        <g id="编组-2" transform="translate(2.000000, 2.000000)" fill="#57689C">
            <path d="M15,0 C15.5522847,-1.01453063e-16 16,0.44771525 16,1 L16,6 L0,6 L0,1 C-6.76353751e-17,0.44771525 0.44771525,-2.31613845e-16 1,0 L15,0 Z M13.4,2.4 L5.6,2.4 C5.26862915,2.4 5,2.66862915 5,3 C5,3.33137085 5.26862915,3.6 5.6,3.6 L13.4,3.6 C13.7313708,3.6 14,3.33137085 14,3 C14,2.66862915 13.7313708,2.4 13.4,2.4 Z M2.6,2.4 C2.26862915,2.4 2,2.66862915 2,3 C2,3.33137085 2.26862915,3.6 2.6,3.6 C2.93137085,3.6 3.2,3.33137085 3.2,3 C3.2,2.66862915 2.93137085,2.4 2.6,2.4 Z" id="形状结合" fill-rule="nonzero" opacity="0.55"></path>
            <path d="M16,7 L16,12 C16,12.5522847 15.5522847,13 15,13 L1,13 C0.44771525,13 6.76353751e-17,12.5522847 0,12 L0,7 L16,7 Z M13.4,9.4 L5.6,9.4 C5.26862915,9.4 5,9.66862915 5,10 C5,10.3313708 5.26862915,10.6 5.6,10.6 L13.4,10.6 C13.7313708,10.6 14,10.3313708 14,10 C14,9.66862915 13.7313708,9.4 13.4,9.4 Z M2.6,9.4 C2.26862915,9.4 2,9.66862915 2,10 C2,10.3313708 2.26862915,10.6 2.6,10.6 C2.93137085,10.6 3.2,10.3313708 3.2,10 C3.2,9.66862915 2.93137085,9.4 2.6,9.4 Z" id="形状结合"></path>
            <rect id="矩形备份-3" x="0" y="13.8" width="16" height="1.2" rx="0.6"></rect>
            <rect id="矩形备份-3" transform="translate(8.000000, 13.600000) rotate(-90.000000) translate(-8.000000, -13.600000) " x="5.5" y="13" width="5" height="1.2" rx="0.6"></rect>
        </g>
    </g>
</svg>