<?xml version="1.0" encoding="UTF-8"?>
<svg width="20px" height="20px" viewBox="0 0 20 20" version="1.1" xmlns="http://www.w3.org/2000/svg" xmlns:xlink="http://www.w3.org/1999/xlink">
    <title>basic-cloud-resources-second-menu</title>
    <g id="basic-cloud-resources-second-menu" stroke="none" stroke-width="1" fill="none" fill-rule="evenodd">
        <rect id="矩形" fill="#D8D8D8" opacity="0" x="0" y="0" width="20" height="20"></rect>
        <g id="node" transform="translate(2.000000, 2.000000)">
            <rect id="矩形" fill="#D8D8D8" opacity="0" x="0" y="0" width="16" height="16"></rect>
            <g id="图形" transform="translate(0.500051, 0.800000)" fill="#57689C">
                <path d="M11.5,0 C11.7761424,-5.07265313e-17 12,0.223857625 12,0.5 L12,13.5 C12,13.7761424 11.7761424,14 11.5,14 L0.5,14 C0.223857625,14 3.38176876e-17,13.7761424 0,13.5 L0,0.5 C-3.38176876e-17,0.223857625 0.223857625,5.07265313e-17 0.5,0 L11.5,0 Z M2.68307377,8.8125 C2.29474856,8.8125 1.97994877,9.12729979 1.97994877,9.515625 C1.97994877,9.90395021 2.29474856,10.21875 2.68307377,10.21875 C3.07139899,10.21875 3.38619877,9.90395021 3.38619877,9.515625 C3.38619877,9.12729979 3.07139899,8.8125 2.68307377,8.8125 Z M10.0268238,8.953125 L4.51119877,8.953125 L4.51119877,10.078125 L10.0268238,10.078125 L10.0268238,8.953125 Z M2.68307377,6.28125 C2.29474856,6.28125 1.97994877,6.59604979 1.97994877,6.984375 C1.97994877,7.37270021 2.29474856,7.6875 2.68307377,7.6875 C3.07139899,7.6875 3.38619877,7.37270021 3.38619877,6.984375 C3.38619877,6.59604979 3.07139899,6.28125 2.68307377,6.28125 Z M10.0268238,6.421875 L4.51119877,6.421875 L4.48834492,7.546875 L10.0268238,7.546875 L10.0268238,6.421875 Z M2.68307377,3.75 C2.29474856,3.75 1.97994877,4.06479979 1.97994877,4.453125 C1.97994877,4.84145021 2.29474856,5.15625 2.68307377,5.15625 C3.07139899,5.15625 3.38619877,4.84145021 3.38619877,4.453125 C3.38619877,4.06479979 3.07139899,3.75 2.68307377,3.75 Z M10.0268238,3.890625 L4.51119877,3.890625 L4.51119877,5.015625 L10.0268238,5.015625 L10.0268238,3.890625 Z" id="形状结合" opacity="0.550000012"></path>
                <path d="M13.7748326,10.2498258 C13.5122465,8.97496456 12.3872465,8 10.9999488,8 C9.91203021,8 8.97491272,8.60033402 8.52499683,9.50034844 C7.36237466,9.6497561 6.49994877,10.5873898 6.49994877,11.7501742 C6.49994877,12.9874162 7.512623,14 8.74994878,14 L13.6245843,14 C14.6748807,14 15.4999488,13.1747194 15.4999488,12.1244803 C15.4999488,11.1498402 14.7125149,10.324824 13.7748326,10.2498258" id="路径"></path>
            </g>
        </g>
    </g>
</svg>