<?xml version="1.0" encoding="UTF-8"?>
<svg width="20px" height="20px" viewBox="0 0 20 20" version="1.1" xmlns="http://www.w3.org/2000/svg" xmlns:xlink="http://www.w3.org/1999/xlink">
    <title>Basic Info-second menu-normal</title>
    <g id="Basic-Info-second-menu-normal" stroke="none" stroke-width="1" fill="none" fill-rule="evenodd">
        <g id="Basic-Info-second-menu-default">
            <rect id="矩形" fill="#FFFFFF" opacity="0" x="0" y="0" width="20" height="20"></rect>
            <path d="M15.5,2.496358 C16.0522847,2.496358 16.5,2.94407325 16.5,3.496358 L16.5,16.496358 C16.5,17.0486427 16.0522847,17.496358 15.5,17.496358 L4.5,17.496358 C3.94771525,17.496358 3.5,17.0486427 3.5,16.496358 L3.5,3.496358 C3.5,2.94407325 3.94771525,2.496358 4.5,2.496358 L6.5,2.496358 C6.5,3.27969612 7.09488808,3.92044868 7.85553999,3.99313342 L8,4 L12,4 C12.8284271,4 13.5,3.32842712 13.5,2.5 L15.5,2.496358 Z M6.683125,11.7625 C6.29479979,11.7625 5.98,12.0772998 5.98,12.465625 C5.98,12.8539502 6.29479979,13.16875 6.683125,13.16875 C7.07145021,13.16875 7.38625,12.8539502 7.38625,12.465625 C7.38625,12.0772998 7.07145021,11.7625 6.683125,11.7625 Z M14.026875,11.903125 L8.51125,11.903125 L8.51125,13.028125 L14.026875,13.028125 L14.026875,11.903125 Z M6.683125,9.23125 C6.29479979,9.23125 5.98,9.54604979 5.98,9.934375 C5.98,10.3227002 6.29479979,10.6375 6.683125,10.6375 C7.07145021,10.6375 7.38625,10.3227002 7.38625,9.934375 C7.38625,9.54604979 7.07145021,9.23125 6.683125,9.23125 Z M14.026875,9.371875 L8.51125,9.371875 L8.48839615,10.496875 L14.026875,10.496875 L14.026875,9.371875 Z M6.683125,6.7 C6.29479979,6.7 5.98,7.01479979 5.98,7.403125 C5.98,7.79145021 6.29479979,8.10625 6.683125,8.10625 C7.07145021,8.10625 7.38625,7.79145021 7.38625,7.403125 C7.38625,7.01479979 7.07145021,6.7 6.683125,6.7 Z M14.026875,6.840625 L8.51125,6.840625 L8.51125,7.965625 L14.026875,7.965625 L14.026875,6.840625 Z" id="形状结合" fill="#9FAECF" fill-rule="nonzero"></path>
            <path d="M12,3.5 L8,3.5 C7.44771525,3.5 7,3.05228475 7,2.5 C7,1.94771525 7.44771525,1.5 8,1.5 L12,1.5 C12.5522847,1.5 13,1.94771525 13,2.5 C13,3.05228475 12.5522847,3.5 12,3.5 Z" id="路径" fill="#57689C" fill-rule="nonzero"></path>
        </g>
    </g>
</svg>