<?xml version="1.0" encoding="UTF-8"?>
<svg width="20px" height="20px" viewBox="0 0 20 20" version="1.1" xmlns="http://www.w3.org/2000/svg" xmlns:xlink="http://www.w3.org/1999/xlink">
    <title>besappservice-second-menu</title>
    <g id="besappservice-second-menu" stroke="none" stroke-width="1" fill="none" fill-rule="evenodd">
        <rect id="矩形" fill="#FFFFFF" opacity="0" x="0" y="0" width="20" height="20"></rect>
        <g id="蓝图实例" transform="translate(0.000000, 2.000000)">
            <rect id="矩形" fill="#FFFFFF" opacity="0" x="2" y="0" width="16" height="16"></rect>
            <path d="M6.27893645,6 C7.12289506,6.03588299 7.42127597,6.40097835 7.17407919,7.0952861 C6.92688241,7.78959385 6.40320499,8.0537492 5.60304693,7.88775217 C6.42504641,8.10919813 6.62715637,8.57237204 6.20937681,9.27727391 C5.58286605,10.0251773 4.86993617,9.96116169 4.40211058,10.02956 C4.26488174,10.0496235 3.90395072,10.060859 3.31931752,10.0632666 L2.79106425,10.0632666 C2.08441168,10.060859 1.15405693,10.0496235 0,10.02956 L1.049,7.374 L5.44155701,7.37491538 C5.58357309,7.37491538 5.7025412,7.27623528 5.7336338,7.14370263 L5.74155701,7.07491538 C5.74155701,6.90922995 5.60724244,6.77491538 5.44155701,6.77491538 L0.752,6.774 L1.24704781,6 L6.27893645,6 Z M13.800677,6 L13.266286,6.86166057 L9.82778422,6.86166057 L9.56503131,7.52902452 L13.0209464,7.52902452 L12.6142477,8.32382277 L9.26188688,8.32382277 L8.83640123,9.15191785 L13.645219,9.151 L17.0708903,9.14734862 C17.2213866,9.14734862 17.3447449,9.03115683 17.356152,8.88358633 L17.3570129,8.86122602 C17.3570129,8.76906427 17.3134391,8.68707972 17.2457693,8.63475005 L15.0405416,8.63471229 C14.3557833,8.63471229 13.800677,8.079606 13.800677,7.39484768 C13.800677,6.71008937 14.3557833,6 15.0405416,6 L20,6 L19.6900338,6.92989846 L15.97044,6.92989846 C15.7136557,6.92989846 15.5054908,7.13806332 15.5054908,7.39484768 C15.5054908,7.65163205 15.7136557,7.85979691 15.97044,7.85979691 L18.1402031,7.85979691 C18.6071908,7.85979691 18.9937789,8.20402891 19.0600647,8.65259034 L19.0748885,8.64957882 C19.0747524,8.68881869 19.0729852,8.72767272 19.0696512,8.76607679 L19.0701015,8.78969537 C19.0701015,9.00112762 18.9995376,9.19607879 18.8806752,9.35228338 C18.6392332,9.75791281 18.1963051,10.02956 17.6901121,10.02956 L6.62621899,10.02956 L8.39188377,6 L13.800677,6 Z M4.26921779,8.32474614 L2.64189549,8.32474614 L2.33192934,9.09966152 L4.26921779,9.09966152 C4.48320477,9.09966152 4.65667548,8.9261908 4.65667548,8.71220383 C4.65667548,8.49821686 4.48320477,8.32474614 4.26921779,8.32474614 Z" id="形状结合" fill="#57689C" fill-rule="nonzero"></path>
        </g>
    </g>
</svg>