<?xml version="1.0" encoding="UTF-8"?>
<svg width="20px" height="20px" viewBox="0 0 20 20" version="1.1" xmlns="http://www.w3.org/2000/svg" xmlns:xlink="http://www.w3.org/1999/xlink">
    <title>blocks-second-menu</title>
    <g id="blocks-second-menu" stroke="none" stroke-width="1" fill="none" fill-rule="evenodd">
        <g id="blocks" transform="translate(0.000000, 0.000000)">
            <rect id="矩形备份" fill="#FFFFFF" opacity="0" x="0" y="0" width="20" height="20"></rect>
            <g id="图形" transform="translate(2.000000, 1.882020)" fill="#57689C">
                <path d="M12.8394267,7.08252112 C13.0096542,7.04907481 13.1858441,7.03151705 13.3662715,7.03151705 C14.8208396,7.03151705 16,8.17264004 16,9.58028662 C16,10.9879332 14.8208396,12.1290562 13.3662715,12.1290562 C13.1858441,12.1290562 13.0096542,12.1114984 12.8394267,12.0780521 L12.8394267,7.08252112 Z" id="路径"></path>
                <path d="M4.83942674,-0.917478881 C5.00965417,-0.950925187 5.18584406,-0.968482953 5.36627148,-0.968482953 C6.82083958,-0.968482953 8,0.172640044 8,1.58028662 C8,2.98793319 6.82083958,4.12905622 5.36627148,4.12905622 C5.18584406,4.12905622 5.00965417,4.11149843 4.83942674,4.07805214 L4.83942674,-0.917478881 Z" id="路径备份" transform="translate(6.419713, 1.580287) rotate(-90.000000) translate(-6.419713, -1.580287) "></path>
                <rect id="矩形" opacity="0.550000012" x="0" y="3.0809242" width="12.8394267" height="12.8394267" rx="1"></rect>
            </g>
        </g>
    </g>
</svg>