<?xml version="1.0" encoding="UTF-8"?>
<svg width="20px" height="20px" viewBox="0 0 20 20" version="1.1" xmlns="http://www.w3.org/2000/svg" xmlns:xlink="http://www.w3.org/1999/xlink">
    <title>blueprint-instance-second-menu</title>
    <g id="blueprint-instance-second-menu" stroke="none" stroke-width="1" fill="none" fill-rule="evenodd">
        <g id="蓝图实例" transform="translate(1.869737, 2.000000)">
            <rect id="矩形" fill="#FFFFFF" opacity="0" x="0.130263286" y="0" width="16" height="16"></rect>
            <path d="M8.63026329,-0.5 C9.73483279,-0.5 10.6302633,0.3954305 10.6302633,1.5 L11.6302633,1.5 C12.1036502,1.5 12.5002106,1.82893365 12.6038526,2.27070917 L12.6235356,2.38337887 L12.6302633,2.5 L12.6302633,5.5 C12.6302633,6.05228475 12.182548,6.5 11.6302633,6.5 C11.4497734,6.5 11.2804518,6.45218311 11.1342754,6.36852632 L11.0362633,6.305 L10.9336954,6.23293827 C10.7014907,6.08550484 10.4258624,6 10.1302633,6 C9.30183616,6 8.63026329,6.67157288 8.63026329,7.5 C8.63026329,8.32842712 9.30183616,9 10.1302633,9 C10.4314852,9 10.7119694,8.91121133 10.946972,8.75837778 L11.024251,8.70447815 C11.1924011,8.57618896 11.4024347,8.5 11.6302633,8.5 C12.182548,8.5 12.6302633,8.94771525 12.6302633,9.5 L12.6302633,10.5 C12.6302633,11.0522847 12.182548,11.5 11.6302633,11.5 L5.63026329,11.5 C5.07797854,11.5 4.63026329,11.0522847 4.63026329,10.5 L4.63026329,2.5 C4.63026329,1.94771525 5.07797854,1.5 5.63026329,1.5 L6.63026329,1.5 C6.63026329,0.3954305 7.52569379,-0.5 8.63026329,-0.5 Z" id="形状结合" fill="#57689C" opacity="0.550000012" transform="translate(8.630263, 5.500000) scale(-1, 1) rotate(-90.000000) translate(-8.630263, -5.500000) "></path>
            <path d="M14.2849749,9.43270205 C14.4325995,8.90051277 14.9836976,8.58876149 15.5158868,8.73638607 C16.0480761,8.88401065 16.3598274,9.43510867 16.2122028,9.96729795 L15.222666,13.5345959 C14.9824501,14.4005785 14.1941203,15 13.2954382,15 L3.03429304,15 C2.15107643,15 1.37243057,14.4206635 1.11864033,13.5746953 L0.0424369345,9.98734767 C-0.116260799,9.45835478 0.183922734,8.90087138 0.712915621,8.74217365 C1.24190851,8.58347592 1.7993919,8.88365945 1.95808964,9.41265233 L3.03429304,13 L13.2954382,13 L14.2849749,9.43270205 Z" id="路径-2" fill="#57689C" fill-rule="nonzero"></path>
        </g>
    </g>
</svg>