<?xml version="1.0" encoding="UTF-8"?>
<svg width="20px" height="20px" viewBox="0 0 20 20" version="1.1" xmlns="http://www.w3.org/2000/svg" xmlns:xlink="http://www.w3.org/1999/xlink">
    <title>broadband-line-second-menu</title>
    <g id="broadband-line-second-menu" stroke="none" stroke-width="1" fill="none" fill-rule="evenodd">
        <rect id="矩形" fill-opacity="0" fill="#D8D8D8" x="0" y="0" width="20" height="20"></rect>
        <g id="线路" transform="translate(2.000000, 2.000000)">
            <rect id="矩形" fill-opacity="0" fill="#D8D8D8" x="0" y="0" width="16" height="16"></rect>
            <path d="M12.2035123,3.88158625 C12.2778046,3.7998465 12.4042936,3.79380919 12.4860333,3.86810154 L15.8162275,6.89487805 C15.8209945,6.89921063 15.8255493,6.90377099 15.829876,6.90854317 C15.9040687,6.99037336 15.8978773,7.11685491 15.8160471,7.19104762 L12.4858529,10.2104237 C12.449062,10.2437808 12.4011767,10.262257 12.3515152,10.262257 C12.2410582,10.262257 12.1515152,10.172714 12.1515152,10.062257 L12.1517617,8.49991076 C8.62385473,9.07930843 5.87197792,12.0049113 5.56778309,15.6172249 L5.56778309,16 L3.37318677,16 C3.37318677,16 3.53440748,12.3791224 6.29930888,9.1440723 C7.22647528,8.2169059 8.30675173,7.49388623 9.50611377,6.9835194 C10.354896,6.62307763 11.2394383,6.38580938 12.1515938,6.27171465 L12.1515152,4.01610444 C12.1515152,3.96635886 12.1700538,3.91839869 12.2035123,3.88158625 Z" id="形状结合" fill="#57689C" fill-rule="nonzero"></path>
            <path d="M5.56778309,4.81924508 L7.48901395,4.81924508 C7.5994709,4.81924508 7.68901395,4.72970203 7.68901395,4.61924508 C7.68901395,4.56950717 7.67048097,4.52155383 7.63703179,4.48474334 L4.61867699,1.16307347 C4.54439373,1.08132547 4.41790541,1.07527411 4.33615741,1.14955737 C4.33138454,1.15389441 4.32682423,1.15845976 4.32249248,1.16323743 L1.30313292,4.49341341 C1.22894022,4.5752436 1.23513162,4.70172516 1.31696181,4.77591786 C1.35375274,4.80927497 1.40163806,4.8277512 1.45129959,4.8277512 L3.37320574,4.8277512 L3.37320574,4.8277512 L3.37320574,15.5236576 C3.35619351,15.778841 3.37320574,16 3.37320574,16 L5.56778309,16 L5.56778309,4.81924508 Z" id="路径备份" fill="#57689C" fill-rule="nonzero" opacity="0.550000012"></path>
        </g>
    </g>
</svg>