<?xml version="1.0" encoding="UTF-8"?>
<svg width="20px" height="20px" viewBox="0 0 20 20" version="1.1" xmlns="http://www.w3.org/2000/svg" xmlns:xlink="http://www.w3.org/1999/xlink">
    <title>Broker-second menu-pressed</title>
    <g id="Broker-second-menu-pressed" stroke="none" stroke-width="1" fill="none" fill-rule="evenodd">
        <g id="Broker">
            <rect id="矩形" x="0" y="0" width="20" height="20"></rect>
            <path d="M15.1175102,2 C15.6697949,2 16.1175102,2.44771525 16.1175102,3 L16.1175102,17 C16.1175102,17.5522847 15.6697949,18 15.1175102,18 L5.22222222,18 C4.66993747,18 4.22222222,17.5522847 4.22222222,17 L4.22222222,3 C4.22222222,2.44771525 4.66993747,2 5.22222222,2 L15.1175102,2 Z M10.2431646,11.6335079 C9.13859513,11.6335079 8.24316463,12.5289384 8.24316463,13.6335079 C8.24316463,14.7380774 9.13859513,15.6335079 10.2431646,15.6335079 C11.3477341,15.6335079 12.2431646,14.7380774 12.2431646,13.6335079 C12.2431646,12.5289384 11.3477341,11.6335079 10.2431646,11.6335079 Z M10.24,12.83 C10.6818278,12.83 11.04,13.1881722 11.04,13.63 C11.04,14.0718278 10.6818278,14.43 10.24,14.43 C9.7981722,14.43 9.44,14.0718278 9.44,13.63 C9.44,13.1881722 9.7981722,12.83 10.24,12.83 Z M13.8557301,6.58 L6.40023269,6.58 L6.40023269,7.78 L13.8557301,7.78 L13.8557301,6.58 Z M13.8557301,4.17801047 L6.40023269,4.17801047 L6.40023269,5.37801047 L13.8557301,5.37801047 L13.8557301,4.17801047 Z" id="形状结合" fill="#FFFFFF" fill-rule="nonzero" opacity="0.550000012"></path>
        </g>
    </g>
</svg>