<?xml version="1.0" encoding="UTF-8"?>
<svg width="20px" height="20px" viewBox="0 0 20 20" version="1.1" xmlns="http://www.w3.org/2000/svg" xmlns:xlink="http://www.w3.org/1999/xlink">
    <title>Broker-second menu-normal</title>
    <g id="Broker-second-menu-normal" stroke="none" stroke-width="1" fill="none" fill-rule="evenodd">
        <g id="Broker" transform="translate(2.000000, 2.000000)">
            <rect id="矩形" x="0" y="0" width="16" height="16"></rect>
            <path d="M13.1175102,0 C13.6697949,7.68579428e-16 14.1175102,0.44771525 14.1175102,1 L14.1175102,15 C14.1175102,15.5522847 13.6697949,16 13.1175102,16 L3.22222222,16 C2.66993747,16 2.22222222,15.5522847 2.22222222,15 L2.22222222,1 C2.22222222,0.44771525 2.66993747,-9.5692398e-18 3.22222222,0 L13.1175102,0 Z M8.24316463,9.63350785 C7.13859513,9.63350785 6.24316463,10.5289384 6.24316463,11.6335079 C6.24316463,12.7380774 7.13859513,13.6335079 8.24316463,13.6335079 C9.34773413,13.6335079 10.2431646,12.7380774 10.2431646,11.6335079 C10.2431646,10.5289384 9.34773413,9.63350785 8.24316463,9.63350785 Z M8.24,10.83 C8.6818278,10.83 9.04,11.1881722 9.04,11.63 C9.04,12.0718278 8.6818278,12.43 8.24,12.43 C7.7981722,12.43 7.44,12.0718278 7.44,11.63 C7.44,11.1881722 7.7981722,10.83 8.24,10.83 Z M11.8557301,4.58 L4.40023269,4.58 L4.40023269,5.78 L11.8557301,5.78 L11.8557301,4.58 Z M11.8557301,2.17801047 L4.40023269,2.17801047 L4.40023269,3.37801047 L11.8557301,3.37801047 L11.8557301,2.17801047 Z" id="形状结合" fill="#9FAECF" fill-rule="nonzero"></path>
        </g>
    </g>
</svg>