<?xml version="1.0" encoding="UTF-8"?>
<svg width="20px" height="20px" viewBox="0 0 20 20" version="1.1" xmlns="http://www.w3.org/2000/svg" xmlns:xlink="http://www.w3.org/1999/xlink">
    <title>build-machine-management-second-menu</title>
    <g id="build-machine-management-second-menu" stroke="none" stroke-width="1" fill="none" fill-rule="evenodd">
        <rect id="矩形" fill="#000000" opacity="0" x="0" y="0" width="20" height="20"></rect>
        <path d="M17,2 C17.5522847,2 18,2.44771525 18,3 L18,13 C18,13.5522847 17.5522847,14 17,14 L3,14 C2.44771525,14 2,13.5522847 2,13 L2,3 C2,2.44771525 2.44771525,2 3,2 L17,2 Z M5.5,9 C4.67157288,9 4,9.67157288 4,10.5 C4,11.3284271 4.67157288,12 5.5,12 C6.32842712,12 7,11.3284271 7,10.5 C7,9.67157288 6.32842712,9 5.5,9 Z M15.6714286,9.9 L9.32857143,9.9 L9.32857143,11.1 L15.6714286,11.1 L15.6714286,9.9 Z M8.52817781,4.98337208 L7.66318469,4.1516348 L5.643,6.251 L4.48951108,5.12576733 L3.65153669,5.98471956 L5.67096419,7.95482738 L8.52817781,4.98337208 Z M15.6714286,5.9 L9.32857143,5.9 L9.32857143,7.1 L15.6714286,7.1 L15.6714286,5.9 Z" id="形状" fill="#57689C" opacity="0.55"></path>
        <path d="M8.1571889,15 L11.8428111,15 C12.1820633,15 12.7091766,15.3837559 13.0201517,15.8571429 L13.864757,17.1428571 C14.1757321,17.6162441 13.9322257,18 13.3208704,18 L6.67912961,18 C6.06777426,18 5.82426794,17.6162441 6.13524302,17.1428571 L6.97984833,15.8571429 C7.29082341,15.3837559 7.81793674,15 8.1571889,15 Z" id="矩形" fill="#57689C"></path>
    </g>
</svg>