<?xml version="1.0" encoding="UTF-8"?>
<svg width="20px" height="20px" viewBox="0 0 20 20" version="1.1" xmlns="http://www.w3.org/2000/svg" xmlns:xlink="http://www.w3.org/1999/xlink">
    <title>build history 3</title>
    <g id="build-history" stroke="none" stroke-width="1" fill="none" fill-rule="evenodd">
        <g id="build-history-second-menu-default">
            <rect id="矩形" fill="#000000" opacity="0" x="0" y="0" width="20" height="20"></rect>
            <path d="M15.207355,14.3080431 C16.5708848,13.2081921 17,11.8882238 17,10 C17,6.6862915 14.3137085,4 11,4 L11,10.0968837 L15.207355,14.3080431 Z" id="路径" fill="#9FAECF"></path>
            <path d="M11,3.4 C14.6450793,3.4 17.6,6.35492065 17.6,10 C17.6,13.6450793 14.6450793,16.6 11,16.6 C9.20048138,16.6 7.51459824,15.8755547 6.28121865,14.6144483 C6.04952285,14.3775439 6.05374526,13.9976684 6.29064966,13.7659726 C6.52755406,13.5342768 6.90742958,13.5384992 7.13912538,13.7754036 C8.148999,14.8079796 9.5267115,15.4 11,15.4 C13.9823376,15.4 16.4,12.9823376 16.4,10 C16.4,7.01766235 13.9823376,4.6 11,4.6 C8.28035352,4.6 6.03028756,6.61051323 5.65500594,9.22633589 L7.0642731,7.81784861 C7.27515622,7.60696549 7.60396271,7.58587718 7.8384305,7.75458368 L7.91280124,7.81784861 C8.14711582,8.05216319 8.14711582,8.43206217 7.91280124,8.66637675 L5.68783797,10.89134 C5.4535234,11.1256546 5.07362441,11.1256546 4.83930983,10.89134 L2.71798949,8.77001968 C2.48367491,8.5357051 2.48367491,8.15580611 2.71798949,7.92149154 C2.95230406,7.68717696 3.33220305,7.68717696 3.56651763,7.92149154 L4.49900346,8.85477726 C5.04120372,5.75557175 7.74551523,3.4 11,3.4 Z M11.6026897,7.66736114 L11.6026897,9.77836114 L13.5485314,11.9783348 L12.6496652,12.7733439 L10.5532566,10.4030682 C10.4562419,10.2933798 10.4026897,10.1519993 10.4026897,10.0055636 L10.4026897,7.66736114 L11.6026897,7.66736114 Z" id="形状" fill="#57689C" fill-rule="nonzero"></path>
        </g>
    </g>
</svg>