<?xml version="1.0" encoding="UTF-8"?>
<svg width="20px" height="20px" viewBox="0 0 20 20" version="1.1" xmlns="http://www.w3.org/2000/svg" xmlns:xlink="http://www.w3.org/1999/xlink">
    <title>business flow-second-menu</title>
    <g id="business-flow-second-menu" stroke="none" stroke-width="1" fill="none" fill-rule="evenodd">
        <rect id="矩形" fill-opacity="0" fill="#D8D8D8" x="0" y="0" width="20" height="20"></rect>
        <rect id="矩形备份" fill="#FFFFFF" opacity="0" x="0" y="0" width="20" height="20"></rect>
        <rect id="矩形备份-2" x="0" y="0" width="20" height="20"></rect>
        <rect id="矩形备份-3" fill="#57689C" x="6" y="2" width="8" height="8" rx="1"></rect>
        <path d="M5,14 C5.55228475,14 6,14.4477153 6,15 L6,17 C6,17.5522847 5.55228475,18 5,18 L3,18 C2.44771525,18 2,17.5522847 2,17 L2,15 C2,14.4477153 2.44771525,14 3,14 L5,14 Z M10.6,10 L10.6,11.247 L15,11.2470877 C15.8836556,11.2470877 16.6,11.9634321 16.6,12.8470877 L16.6,14 L15.4,14 L15.4,12.8470877 C15.4,12.6261738 15.2209139,12.4470877 15,12.4470877 L10.6,12.447 L10.6,14 L11,14 C11.5522847,14 12,14.4477153 12,15 L12,17 C12,17.5522847 11.5522847,18 11,18 L9,18 C8.44771525,18 8,17.5522847 8,17 L8,15 C8,14.4477153 8.44771525,14 9,14 L9.4,14 L9.4,12.447 L5,12.4470877 C4.7790861,12.4470877 4.6,12.6261738 4.6,12.8470877 L4.6,14 L3.4,14 L3.4,12.8470877 C3.4,11.9634321 4.1163444,11.2470877 5,11.2470877 L9.4,11.247 L9.4,10 L10.6,10 Z M17,14 C17.5522847,14 18,14.4477153 18,15 L18,17 C18,17.5522847 17.5522847,18 17,18 L15,18 C14.4477153,18 14,17.5522847 14,17 L14,15 C14,14.4477153 14.4477153,14 15,14 L17,14 Z M4.8,15.2 L3.2,15.2 L3.2,16.8 L4.8,16.8 L4.8,15.2 Z M10.8,15.2 L9.2,15.2 L9.2,16.8 L10.8,16.8 L10.8,15.2 Z M16.8,15.2 L15.2,15.2 L15.2,16.8 L16.8,16.8 L16.8,15.2 Z" id="形状结合备份" fill="#57689C" opacity="0.55"></path>
    </g>
</svg>