<?xml version="1.0" encoding="UTF-8"?>
<svg width="20px" height="20px" viewBox="0 0 20 20" version="1.1" xmlns="http://www.w3.org/2000/svg" xmlns:xlink="http://www.w3.org/1999/xlink">
    <title>cabinet-list-second-menu</title>
    <g id="cabinet-list-second-menu" stroke="none" stroke-width="1" fill="none" fill-rule="evenodd">
        <rect id="矩形" fill-opacity="0" fill="#D8D8D8" x="0" y="0" width="20" height="20"></rect>
        <g id="机柜" transform="translate(1.200000, 2.000000)">
            <rect id="矩形备份-3" x="0" y="0" width="16" height="16"></rect>
            <g id="编组" transform="translate(0.842105, 0.260000)" fill="#57689C">
                <path d="M12.6578947,8.74 C14.5908914,8.74 16.1578947,10.3070034 16.1578947,12.24 C16.1578947,14.1729966 14.5908914,15.74 12.6578947,15.74 C10.7248981,15.74 9.15789474,14.1729966 9.15789474,12.24 C9.15789474,10.3070034 10.7248981,8.74 12.6578947,8.74 Z M13.1578947,12.74 L11.1578947,12.74 L11.1578947,13.74 L13.1578947,13.74 L13.1578947,12.74 Z M15.1578947,10.74 L11.1578947,10.74 L11.1578947,11.74 L15.1578947,11.74 L15.1578947,10.74 Z" id="形状结合"></path>
                <path d="M8.15789474,12.24 C8.15789474,13.5234946 8.69523747,14.6814861 9.55723317,15.5012847 L0.795321637,15.5015789 C0.357894737,15.5015789 0,15.1544998 0,14.7302919 L0,10.87 L8.37019534,10.870137 C8.2323158,11.3020676 8.15789474,11.7623428 8.15789474,12.24 Z M12.3157895,5.43473684 L12.3151769,7.75285557 C10.7636177,7.86969858 9.43160495,8.77332403 8.71700546,10.0658651 L0,10.0663158 L0,5.43473684 L12.3157895,5.43473684 Z M12.3157895,4.63157895 L0,4.63157895 L0,0.771287085 C0,0.347079188 0.357894737,0 0.795321637,0 L11.3614035,0 C11.8902924,0 12.3157895,0.412638591 12.3157895,0.925544502 L12.3157895,4.63157895 Z" id="形状结合" fill-rule="nonzero" opacity="0.550000012"></path>
            </g>
        </g>
    </g>
</svg>