<?xml version="1.0" encoding="UTF-8"?>
<svg width="20px" height="20px" viewBox="0 0 20 20" version="1.1" xmlns="http://www.w3.org/2000/svg" xmlns:xlink="http://www.w3.org/1999/xlink">
    <title>cabinet-second-menu</title>
    <g id="cabinet-second-menu" stroke="none" stroke-width="1" fill="none" fill-rule="evenodd">
        <rect id="矩形" fill-opacity="0" fill="#D8D8D8" x="0" y="0" width="20" height="20"></rect>
        <g id="机柜" transform="translate(2.000000, 2.000000)">
            <rect id="矩形备份-3" x="0" y="0" width="16" height="16"></rect>
            <path d="M13.2035088,0.26 C13.7323977,0.26 14.1578947,0.672638591 14.1578947,1.1855445 L14.1578947,4.89157895 L1.84210526,4.89157895 L1.84210526,1.03128709 C1.84210526,0.607079188 2.2,0.26 2.6374269,0.26 L13.2035088,0.26 Z M9.04187135,1.91472895 L6.95415205,1.91472895 L6.95415205,2.91472895 L9.04187135,2.91472895 L9.04187135,1.91472895 Z" id="形状结合" fill="#57689C" fill-rule="nonzero" opacity="0.550000012"></path>
            <path d="M14.1578947,11.13 L14.1578947,14.9902919 C14.1578947,15.4183562 13.8,15.7615789 13.3625731,15.7615789 L2.6374269,15.7615789 C2.2,15.7615789 1.84210526,15.4144998 1.84210526,14.9902919 L1.84210526,11.13 L14.1578947,11.13 Z M9.04187135,11.9146435 L6.95415205,11.9146435 L6.95415205,12.9146435 L9.04187135,12.9146435 L9.04187135,11.9146435 Z M14.1578947,5.69473684 L14.1578947,10.3263158 L1.84210526,10.3263158 L1.84210526,5.69473684 L14.1578947,5.69473684 Z M9.11345029,6.95964766 L7.02573099,6.95964766 L7.02573099,7.95964766 L9.11345029,7.95964766 L9.11345029,6.95964766 Z" id="形状结合" fill="#57689C" fill-rule="nonzero"></path>
        </g>
    </g>
</svg>