<?xml version="1.0" encoding="UTF-8"?>
<svg width="20px" height="20px" viewBox="0 0 20 20" version="1.1" xmlns="http://www.w3.org/2000/svg" xmlns:xlink="http://www.w3.org/1999/xlink">
    <title>cache-service-drm-second-menu</title>
    <defs>
        <filter x="-78.6%" y="-78.6%" width="257.1%" height="268.0%" filterUnits="objectBoundingBox" id="filter-1">
            <feOffset dx="0" dy="1" in="SourceAlpha" result="shadowOffsetOuter1"></feOffset>
            <feGaussianBlur stdDeviation="1.5" in="shadowOffsetOuter1" result="shadowBlurOuter1"></feGaussianBlur>
            <feColorMatrix values="0 0 0 0 0.176470588   0 0 0 0 0.447058824   0 0 0 0 0.945098039  0 0 0 1 0" type="matrix" in="shadowBlurOuter1" result="shadowMatrixOuter1"></feColorMatrix>
            <feMerge>
                <feMergeNode in="shadowMatrixOuter1"></feMergeNode>
                <feMergeNode in="SourceGraphic"></feMergeNode>
            </feMerge>
        </filter>
        <path d="M5.10228733,2.56378304 L5.10228733,7.29105577" id="path-2"></path>
        <filter x="-1325.0%" y="-84.6%" width="2750.0%" height="311.5%" filterUnits="objectBoundingBox" id="filter-3">
            <feOffset dx="0" dy="1" in="SourceAlpha" result="shadowOffsetOuter1"></feOffset>
            <feGaussianBlur stdDeviation="1.5" in="shadowOffsetOuter1" result="shadowBlurOuter1"></feGaussianBlur>
            <feColorMatrix values="0 0 0 0 0.931131999   0 0 0 0 0.649545397   0 0 0 0 0.1274895  0 0 0 1 0" type="matrix" in="shadowBlurOuter1"></feColorMatrix>
        </filter>
    </defs>
    <g id="cache-service-drm-second-menu" stroke="none" stroke-width="1" fill="none" fill-rule="evenodd">
        <rect id="矩形" fill="#FFFFFF" opacity="0" x="0" y="0" width="20" height="20"></rect>
        <g id="编组-2">
            <rect id="矩形" x="0" y="0" width="20" height="20"></rect>
            <path d="M10,2 C14.418278,2 18,5.581722 18,10 C18,14.418278 14.418278,18 10,18 C5.581722,18 2,14.418278 2,10 C2,5.581722 5.581722,2 10,2 Z M10,4.90909091 C7.18836855,4.90909091 4.90909091,7.18836855 4.90909091,10 C4.90909091,12.8116315 7.18836855,15.0909091 10,15.0909091 C10.6022779,15.0909091 11.1801284,14.9863229 11.7163807,14.7943213 L11.3460901,14.1520647 C10.9221199,14.2894167 10.4697274,14.3636364 10,14.3636364 C7.59003018,14.3636364 5.63636364,12.4099698 5.63636364,10 C5.63636364,7.59003018 7.59003018,5.63636364 10,5.63636364 C12.4099698,5.63636364 14.3636364,7.59003018 14.3636364,10 C14.3636364,11.0135129 14.0181063,11.9463229 13.4384194,12.687057 L13.8261709,13.3583397 C14.6135113,12.4620322 15.0909091,11.2867672 15.0909091,10 C15.0909091,7.18836855 12.8116315,4.90909091 10,4.90909091 Z M10.6477419,7.47287395 L9.64774187,7.47287395 L9.6472667,11.3458739 L7.72811458,9.56395891 L7.2332667,10.0969235 L9.6386369,12.3302659 L9.87789346,12.5524113 L10.142755,12.5543685 L10.363733,12.3491944 L10.5242667,12.1998739 L10.6477419,12.2001467 L10.6472667,12.0848739 L12.7894898,10.0969235 L12.2946419,9.56395891 L10.6472667,11.0918739 L10.6477419,7.47287395 Z" id="形状结合" fill="#57689C"></path>
            <g id="编组" filter="url(#filter-1)" transform="translate(4.909091, 4.909091)" fill="black" fill-opacity="1">
                <g id="路径-3">
                    <use filter="url(#filter-3)" xlink:href="#path-2"></use>
                </g>
            </g>
        </g>
    </g>
</svg>