<?xml version="1.0" encoding="UTF-8"?>
<svg width="20px" height="20px" viewBox="0 0 20 20" version="1.1" xmlns="http://www.w3.org/2000/svg" xmlns:xlink="http://www.w3.org/1999/xlink">
    <title>call relationship-second menu-pressed</title>
    <g id="call-relationship-second-menu-pressed" stroke="none" stroke-width="1" fill="none" fill-rule="evenodd">
        <g id="资源拓扑">
            <rect id="矩形" fill="#D8D8D8" opacity="0" x="0" y="0" width="20" height="20"></rect>
            <g id="架构拓扑" transform="translate(2.000280, 3.000479)" fill="#FFFFFF">
                <path d="M8.59999999,5.00291695 L8.599,6.39967661 L12,6.4 C12.8836556,6.4 13.6,7.1163444 13.6,8 L13.6,9 L12.4,9 L12.4,8 C12.4,7.7790861 12.2209139,7.6 12,7.6 L4,7.6 C3.7790861,7.6 3.6,7.7790861 3.6,8 L3.6,9 L2.4,9 L2.4,8 C2.4,7.1163444 3.1163444,6.4 4,6.4 L7.399,6.39967661 L7.40000001,5.00267661 L8.59999999,5.00291695 Z M1,9 L4,9 C4.55228475,9 5,9.44771525 5,10 L5,13 C5,13.5522847 4.55228475,14 4,14 L1,14 C0.44771525,14 6.76353751e-17,13.5522847 0,13 L0,10 C-6.76353751e-17,9.44771525 0.44771525,9 1,9 Z M12,9 L15,9 C15.5522847,9 16,9.44771525 16,10 L16,13 C16,13.5522847 15.5522847,14 15,14 L12,14 C11.4477153,14 11,13.5522847 11,13 L11,10 C11,9.44771525 11.4477153,9 12,9 Z" id="形状结合" fill-rule="nonzero" opacity="0.550000012"></path>
                <rect id="矩形" x="5.49972" y="0" width="5" height="5" rx="1"></rect>
            </g>
        </g>
    </g>
</svg>