<?xml version="1.0" encoding="UTF-8"?>
<svg width="20px" height="20px" viewBox="0 0 20 20" version="1.1" xmlns="http://www.w3.org/2000/svg" xmlns:xlink="http://www.w3.org/1999/xlink">
    <title>capacity-management-second-menu</title>
    <g id="capacity-management-second-menu" stroke="none" stroke-width="1" fill="none" fill-rule="evenodd">
        <g id="图形">
            <rect id="矩形备份-4" x="0" y="0" width="20" height="20"></rect>
            <g id="编组" transform="translate(3.000000, 2.000000)" fill="#57689C">
                <path d="M7.14250286,0 C9.24728,0 11.1104,0.428457143 12.4156571,1.08108571 C13.7722286,1.75938286 14.2850286,2.53785143 14.2850286,3.14285714 C14.2850286,3.74786286 13.7722286,4.52633143 12.4156571,5.20462857 C11.1104,5.85725714 9.24728,6.28571429 7.14250286,6.28571429 C5.03772571,6.28571429 3.17458286,5.85725714 1.86933714,5.20462857 C0.512742857,4.52633143 0,3.74786286 0,3.14285714 C0,2.53785143 0.512742857,1.75938286 1.86933714,1.08108571 C3.17458286,0.428457143 5.03772571,0 7.14250286,0 Z M8.58116924,1 L5.41883076,1 C5.22554815,1 5.04206148,1.06133076 4.93685414,1.16088958 L3.10404937,2.78979287 C2.9852141,2.88935168 2.96656304,3.0120132 3.05639038,3.11157202 L4.63755962,4.74047531 C4.74101489,4.84003412 4.94315262,4.90136488 5.16719523,4.90136488 L8.83280477,4.90136488 C9.05684738,4.90136488 9.25898511,4.84003412 9.36244038,4.74047531 L10.9436096,3.11157202 C11.033437,3.0120132 11.0147859,2.88935168 10.8959506,2.78979287 L9.06314586,1.16088958 C8.95793852,1.06133076 8.77445185,1 8.58116924,1 Z M7.04095014,2.33022684 C7.67095449,2.33022684 8.19484785,2.61835771 8.21109873,2.97378515 C8.2273496,3.32921258 7.7043693,3.61734345 7.04298954,3.61734345 C6.38160977,3.61734345 5.8577164,3.32921258 5.87284095,2.97378515 C5.8879655,2.61835771 6.4109458,2.33022684 7.04095014,2.33022684 Z" id="形状结合"></path>
                <path d="M14.2857143,4.88284571 C14.0076571,5.21485714 13.6466286,5.50595429 13.1826286,5.73793143 C11.5926857,6.53293714 9.45611429,6.99994286 7.14285714,6.99998857 C4.82964571,6.99994286 2.69305143,6.53293714 1.10304,5.73793143 C0.639085714,5.50595429 0.278034286,5.21485714 0,4.88284571 L0,7.785703 C0.000354285714,8.39070871 0.513097143,9.16917729 1.86969143,9.847543 C3.17493714,10.5001144 5.03808,10.928571 7.14285714,10.928571 C9.24763429,10.928571 11.1107429,10.5001144 12.416,9.847543 C13.7725714,9.16917729 14.2853714,8.39070871 14.2853714,7.785703 L14.2857143,4.88284571 Z" id="路径" opacity="0.55"></path>
                <path d="M1.86969143,9.847543 C3.17493714,10.5001144 5.03808,10.928571 7.14285714,10.928571 C9.24763429,10.928571 11.1107429,10.5001144 12.416,9.847543 C13.7725714,9.16917729 14.2853714,8.39070871 14.2853714,7.785703 L14.2853714,9.28570286 C14.2853714,9.89070857 13.7725714,10.6691771 12.416,11.3475429 C11.1107429,12.0001143 9.24763429,12.4285714 7.14285714,12.4285714 C5.03808,12.4285714 3.17493714,12.0001143 1.86969143,11.3475429 C0.513097143,10.6691771 0.000354285714,9.89070857 0,9.28570286 L0,7.785703 C0.000354285714,8.39070871 0.513097143,9.16917729 1.86969143,9.847543 Z" id="形状结合"></path>
                <path d="M0,12.9403429 L0,11.0257143 C0.278034286,11.3577143 0.639085714,11.6488 1.10304,11.8808 C2.69305143,12.6757714 4.82964571,13.1428571 7.14285714,13.1428571 C9.45611429,13.1428571 11.5926857,12.6757714 13.1826286,11.8808 C13.6466286,11.6488 14.0076571,11.3577143 14.2857143,11.0257143 L14.2857143,12.9403429 L14.2740571,13.0230857 C14.1891429,13.6244571 13.5874286,14.3737143 12.2444571,15.0020571 C10.9483429,15.6084571 9.15483429,16 7.14285714,16 C5.13088,16 3.33736,15.6084571 2.04121143,15.0020571 C0.698308571,14.3737143 0.0965714286,13.6244571 0.01168,13.0230857 L0,12.9403429 Z" id="路径" opacity="0.55"></path>
            </g>
        </g>
    </g>
</svg>