<?xml version="1.0" encoding="UTF-8"?>
<svg width="20px" height="20px" viewBox="0 0 20 20" version="1.1" xmlns="http://www.w3.org/2000/svg" xmlns:xlink="http://www.w3.org/1999/xlink">
    <title>carbon-second-menu</title>
    <defs>
        <linearGradient x1="-3.35277807%" y1="50.0024078%" x2="103.379328%" y2="50.0024078%" id="linearGradient-1">
            <stop stop-color="#0471EA" offset="0.4092262%"></stop>
            <stop stop-color="#2AC6CC" offset="76.74%"></stop>
        </linearGradient>
    </defs>
    <g id="carbon-second-menu" stroke="none" stroke-width="1" fill="none" fill-rule="evenodd">
        <g id="编组-4" stroke-linejoin="round">
            <g id="SVGID_1_-link">
                <rect id="矩形" x="0" y="0" width="20" height="20"></rect>
            </g>
        </g>
        <g id="CO2浓度" transform="translate(2.000000, 3.300000)" fill="#57689C">
            <path d="M7.35748031,0 C8.66411699,0 9.89156355,0.516535433 10.8130484,1.45421822 C11.6697413,2.32350956 12.1664792,3.4591676 12.2312711,4.67581552 C13.176153,4.79640045 14.0508436,5.22294713 14.7347582,5.90686164 C15.5500562,6.72395951 16,7.8056243 16,8.96107987 C16,10.1165354 15.5500562,11.2017998 14.7347582,12.0170979 C13.9176603,12.832396 12.832396,13.2823397 11.6787402,13.2823397 L4.32125984,13.2823397 C3.16580427,13.2823397 2.08053993,12.832396 1.26524184,12.0170979 C0.449943757,11.2 0,10.1147357 0,8.96107987 C0,8.05219348 0.278965129,7.18110236 0.808098988,6.44499438 C1.24184477,5.84026997 1.81417323,5.36512936 2.47829021,5.0519685 C2.47649044,5.015973 2.47649044,4.98177728 2.47649044,4.94758155 C2.47649044,3.62834646 2.984027,2.38830146 3.90191226,1.45421822 C4.82339708,0.516535433 6.05084364,0 7.35748031,0 Z M8.79370079,6.39820022 C8.2231721,6.39820022 7.7408324,6.59257593 7.40067492,6.96332958 C7.05331834,7.34128234 6.86974128,7.88841395 6.86974128,8.54353206 C6.86974128,9.8735658 7.62564679,10.7320585 8.79370079,10.7320585 C9.96355456,10.7320585 10.7176603,9.8735658 10.7176603,8.54353206 C10.7176603,7.88841395 10.5340832,7.34308211 10.1867267,6.96512936 C9.84656918,6.5943757 9.36422947,6.39820022 8.79370079,6.39820022 Z M5.51091114,6.39640045 C4.97097863,6.39640045 4.47424072,6.6015748 4.11068616,6.97232846 C3.71833521,7.37187852 3.51136108,7.92980877 3.51136108,8.58492688 C3.51136108,9.24724409 3.71293588,9.79977503 4.09448819,10.1849269 C4.44364454,10.5376828 4.9367829,10.7302587 5.47851519,10.7302587 C6.02744657,10.7302587 6.50258718,10.5142857 6.85354331,10.1075366 L6.90393701,10.0499438 L6.28301462,9.31023622 L6.21462317,9.38582677 C6.00944882,9.60899888 5.77367829,9.7223847 5.51631046,9.7223847 C4.98897638,9.7223847 4.67581552,9.28503937 4.67581552,8.55253093 C4.67581552,7.87401575 5.02677165,7.39887514 5.52710911,7.39887514 C5.75208099,7.39887514 5.93745782,7.48346457 6.16602925,7.68863892 L6.23622047,7.75163105 L6.84634421,7.00292463 L6.79055118,6.94533183 C6.58897638,6.74015748 6.1552306,6.39640045 5.51091114,6.39640045 Z M11.6625422,8.48593926 C11.3709786,8.48593926 11.1604049,8.58312711 10.9336333,8.82249719 L10.8724409,8.88728909 L11.2593926,9.27064117 L11.3223847,9.20764904 C11.4141732,9.11586052 11.4987627,9.04026997 11.5977503,9.04026997 C11.6715411,9.04026997 11.7687289,9.06006749 11.7687289,9.23284589 C11.7687289,9.47221597 11.3943757,9.8231721 10.9606299,10.2263217 L10.9318335,10.2533183 L10.9318335,10.6564679 L12.4994376,10.6564679 L12.4994376,10.0733408 L12.0404949,10.0733408 C12.0116985,10.0733408 11.9775028,10.0751406 11.9433071,10.0769404 C12.1898763,9.80337458 12.4094488,9.50281215 12.4094488,9.20584927 C12.4094488,8.78290214 12.1016873,8.48593926 11.6625422,8.48593926 Z M8.79370079,7.40067492 C9.27244094,7.40067492 9.55861341,7.8272216 9.55861341,8.54353206 C9.56040495,9.27064117 9.26704162,9.72418448 8.79370079,9.72418448 C8.32395951,9.72418448 8.03419573,9.27244094 8.03419573,8.54353206 C8.03419573,7.82902137 8.31856018,7.40067492 8.79370079,7.40067492 Z" id="形状结合"></path>
        </g>
    </g>
</svg>