<?xml version="1.0" encoding="UTF-8"?>
<svg width="20px" height="20px" viewBox="0 0 20 20" version="1.1" xmlns="http://www.w3.org/2000/svg" xmlns:xlink="http://www.w3.org/1999/xlink">
    <title>Ceph-second menu-normal</title>
    <g id="Ceph-second-menu-normal" stroke="none" stroke-width="1" fill="none" fill-rule="evenodd">
        <g id="CEPH" transform="translate(2.000000, 2.000000)">
            <rect id="矩形" fill-opacity="0" fill="#D8D8D8" x="0" y="0" width="16" height="16"></rect>
            <g id="图形" transform="translate(0.500000, 0.700000)" fill-rule="nonzero">
                <path d="M7.47404892,0 C6.46516654,0 5.48743318,0.197288792 4.56507587,0.58751689 C3.67663601,0.962097261 2.86962823,1.50607811 2.1890973,2.18909603 C1.5067301,2.87027187 0.962688104,3.67710884 0.586999,4.56507461 C0.197792308,5.48541913 -0.00184789702,6.47479173 0,7.47404766 C0,8.05030466 0.0652528012,8.62483117 0.195559556,9.18205265 C0.322585389,9.72450016 0.510075613,10.250982 0.75451155,10.7516175 C1.20444194,11.6722443 1.93471358,12.5911406 2.7601628,13.2798802 C3.29834877,12.985695 3.60291703,12.6603607 3.6669456,12.3142604 C3.73097415,11.9802736 3.58388153,11.6220598 3.20663219,11.1859734 C2.3119629,10.159786 1.82050048,8.84114386 1.82050048,7.47404766 C1.82050048,4.35741443 4.3556852,1.82049922 7.47404892,1.82049922 L7.52596396,1.82049922 C10.6425972,1.82049922 13.1795124,4.35741443 13.1795124,7.47404766 C13.1795124,8.84114386 12.6863195,10.159786 11.7933807,11.1842429 C11.4195924,11.6185988 11.2690387,11.9923871 11.3330673,12.3281044 C11.4005569,12.6759352 11.7068556,12.996078 12.2398501,13.2798802 C13.0652993,12.5928711 13.795571,11.6739748 14.2455013,10.7516175 C14.489502,10.2515026 14.6781267,9.72369962 14.8044533,9.18205265 C14.9342409,8.62483117 15,8.05030466 15,7.47404766 C15,6.46689578 14.8027228,5.48743192 14.4116295,4.56507461 C14.0365031,3.67714104 13.4929182,2.87028488 12.8109156,2.18909603 C12.1297666,1.50682705 11.3229145,0.962951119 10.434937,0.58751689 C9.51465059,0.198063847 8.52526254,-0.00175604884 7.52596396,0 L7.47404892,0 L7.47404892,0 Z" id="路径" fill="#9FAECF"></path>
                <path d="M7.47404892,3.02318907 C7.26292773,3.02318907 7.05180656,3.04050278 6.84587687,3.06646031 C6.23847083,3.15298539 5.64317832,3.37102857 5.12229737,3.69463236 C4.62181894,4.00787182 4.18787179,4.41653478 3.84518724,4.89733091 C3.4938007,5.39454164 3.24711608,5.95797166 3.12010712,6.55342085 C2.985128,7.19543691 2.9937805,7.87033251 3.14433414,8.50715706 C3.28450476,9.09206658 3.547541,9.65621007 3.90748531,10.135559 C4.00439339,10.2653466 4.11168449,10.3847512 4.22589758,10.5093473 L4.34184119,10.6356739 L4.3591462,10.6529789 C4.75543104,11.1132923 4.95789972,11.6099463 4.95789972,12.1273662 C4.95789972,12.9095529 4.52354384,13.627711 3.83999575,13.9963079 C4.23628059,14.2160815 4.65506196,14.4012452 5.08422634,14.5448768 C5.22785796,14.5916004 5.37322009,14.6365934 5.51858221,14.6746645 C5.60510729,14.6210189 5.90102305,14.3995147 6.1917473,13.9980384 C6.46862754,13.6155975 6.79569232,12.9805035 6.77838732,12.1290967 C6.76108231,11.6185988 6.66417421,11.1184839 6.47208854,10.6477874 C6.28173337,10.1822825 6.00831413,9.75484865 5.65875284,9.37759932 L5.58088027,9.28934374 C5.44936215,9.13705961 5.31438304,8.97958397 5.20536144,8.79442032 C5.07038233,8.56772462 4.97347424,8.32891541 4.91636769,8.0849147 C4.82675076,7.70541484 4.82084563,7.31095202 4.89906267,6.92893968 C4.97460106,6.57738398 5.12059343,6.24478041 5.32822705,5.95120633 C5.52896523,5.66913458 5.79027094,5.42340337 6.08445621,5.23997021 C6.39075498,5.04788454 6.74204678,4.91982743 7.1019911,4.86964289 C7.2213957,4.85233788 7.34772231,4.84368537 7.47231842,4.84368537 L7.52596396,4.84368537 C7.65229058,4.84368537 7.77688669,4.86099037 7.89802179,4.86964289 C8.2579661,4.91982743 8.60925791,5.04788454 8.91555668,5.23997021 C9.20974195,5.42340337 9.47104766,5.66913459 9.67178584,5.95120633 C9.87889049,6.24487367 10.0242981,6.57748614 10.0992197,6.92893968 C10.1805533,7.30791951 10.1753618,7.70766536 10.0819147,8.0849147 C10.0248081,8.32891541 9.92616956,8.56772462 9.79292095,8.79442032 C9.68389935,8.97958397 9.54892024,9.13705962 9.41740212,9.28934374 L9.33952955,9.37759932 C8.98996824,9.75484864 8.716549,10.1822825 8.52619383,10.6477874 C8.33307515,11.1182774 8.22920705,11.6206 8.21989507,12.1290967 C8.20259007,12.9805035 8.52965485,13.6155975 8.80653509,13.9980384 C9.09552884,14.3995147 9.3931751,14.6210189 9.47970018,14.6746645 C9.6250623,14.6365934 9.77042443,14.5916004 9.91405605,14.5448768 C10.3432204,14.4012452 10.7620018,14.2160816 11.1582866,13.9963079 C10.4747385,13.627711 10.0403827,12.9095529 10.0403827,12.1273662 C10.0403827,11.6168683 10.2359293,11.1357888 10.6374057,10.6547094 C10.6374057,10.6374044 10.6547107,10.6374044 10.6547107,10.6356739 L10.7706543,10.5093473 C10.8848674,10.3847512 10.9921585,10.2653466 11.0890666,10.135559 C11.4490109,9.65621007 11.7120471,9.09206658 11.8522178,8.50715706 C12.0027714,7.87033251 12.0114239,7.19543692 11.8764448,6.55342085 C11.7518487,5.96331984 11.500926,5.39052383 11.1513646,4.89733091 C10.8086801,4.41653478 10.3747329,4.00787182 9.87425452,3.69463236 C9.34905181,3.36891681 8.76229348,3.15506814 8.15067501,3.06646031 C7.94256703,3.03723929 7.73265202,3.02278233 7.52250297,3.02318907 L7.46712691,3.02318907 L7.47404892,3.02318907 Z" id="路径" fill="#9FAECF"></path>
                <path d="M7.50173694,6.07061093 C6.68840123,6.07061093 6.02561915,6.73166251 6.02561915,7.54499822 C6.02561915,8.36006444 6.68840123,9.02111601 7.50173694,9.02111601 C8.31507266,9.02111601 8.97612423,8.36006444 8.97612423,7.54499822 C8.97612423,6.73166251 8.31507266,6.07061093 7.50173694,6.07061093 L7.50173694,6.07061093 Z" id="路径" fill="#57689C"></path>
            </g>
        </g>
    </g>
</svg>