<?xml version="1.0" encoding="UTF-8"?>
<svg width="20px" height="20px" viewBox="0 0 20 20" version="1.1" xmlns="http://www.w3.org/2000/svg" xmlns:xlink="http://www.w3.org/1999/xlink">
    <title>change-history-second-menu</title>
    <g id="change-history-second-menu" stroke="none" stroke-width="1" fill="none" fill-rule="evenodd">
        <rect id="矩形" fill-opacity="0" fill="#D8D8D8" x="0" y="0" width="20" height="20"></rect>
        <g id="图形" transform="translate(2.000000, 3.105859)" fill="#57689C">
            <path d="M6.23463102,14.0011012 L1,14 C0.44771525,14 6.76353751e-17,13.5522847 0,13 C-6.76353751e-17,12.4477153 0.44771525,12 1,12 L5.36217029,12.0008072 C5.53681942,12.7239265 5.83557584,13.3986274 6.23463102,14.0011012 Z M5.20549872,10.0004684 L1,10 C0.44771525,10 6.76353751e-17,9.55228475 0,9 C-6.76353751e-17,8.44771525 0.44771525,8 1,8 L5.70177935,8.00007385 C5.43330319,8.62164256 5.26155294,9.29476412 5.20549872,10.0004684 Z M11.5177436,4.17644748 C9.78511361,4.17644748 8.21501059,4.87230841 7.07166147,5.9998034 L1,6 C0.44771525,6 6.76353751e-17,5.55228475 0,5 C-6.76353751e-17,4.44771525 0.44771525,4 1,4 L12.7290904,4.00030137 C12.2494152,4.05582394 11.8338964,4.11601118 11.5177436,4.17644748 Z M13,0 C13.5522847,-1.01453063e-16 14,0.44771525 14,1 C14,1.55228475 13.5522847,2 13,2 L1,2 C0.44771525,2 6.76353751e-17,1.55228475 0,1 C-6.76353751e-17,0.44771525 0.44771525,1.01453063e-16 1,0 L13,0 Z" id="形状结合" opacity="0.550000012"></path>
            <path d="M11.5,6 C13.9852814,6 16,8.01471863 16,10.5 C16,12.9852814 13.9852814,15 11.5,15 C9.01471863,15 7,12.9852814 7,10.5 C7,8.01471863 9.01471863,6 11.5,6 Z M11.5,8.69414062 L10.5,8.69414062 L10.5,11.6941406 L13.5,11.6941406 L13.5,10.6941406 L11.5,10.6941406 L11.5,8.69414062 Z" id="形状结合"></path>
        </g>
    </g>
</svg>