<?xml version="1.0" encoding="UTF-8"?>
<svg width="20px" height="20px" viewBox="0 0 20 20" version="1.1" xmlns="http://www.w3.org/2000/svg" xmlns:xlink="http://www.w3.org/1999/xlink">
    <title>chaos-library-second-menu</title>
    <g id="chaos-library-second-menu" stroke="none" stroke-width="1" fill="none" fill-rule="evenodd">
        <g id="故障1" transform="translate(2.000000, 3.000000)" fill="#57689C" fill-rule="nonzero">
            <path d="M15.8300918,12.4010196 L8.98844083,0.553031106 L8.98750349,0.553031106 C8.90220547,0.237147237 8.51227167,0 8.04360124,0 C7.56836943,0 7.17749829,0.240896601 7.09688698,0.562404515 L0.0949507674,12.6878459 L0.101512153,12.6953446 C-0.0597104742,12.8546925 -0.0278408851,13.2315036 0.189622194,13.5830064 C0.407085273,13.9420079 0.736091914,14.1416615 0.948868289,14.0591755 L0.957304357,14.0722983 L15.1289608,14.0722983 L15.1392715,14.0535515 C15.3754814,14.0901078 15.6660571,13.8829555 15.8488386,13.5117685 C16.0606776,13.0852784 16.0456802,12.6081719 15.8300918,12.4010196 Z M7.05189462,4.27802368 C7.06800425,3.76548148 7.48815693,3.35832707 8.00095224,3.35832707 C8.51374754,3.35832707 8.93390022,3.76548148 8.95000985,4.27802368 L8.95000985,9.17281764 C8.95000985,9.69722651 8.52489244,10.1223439 8.00048357,10.1223439 C7.47607469,10.1223439 7.05095728,9.69722651 7.05095728,9.17281764 L7.05095728,4.27802368 L7.05189462,4.27802368 Z M7.99954622,12.8200109 C7.42958158,12.8200109 6.96753394,12.3579633 6.96753394,11.7879986 C6.96753394,11.218034 7.42958158,10.7559863 7.99954622,10.7559863 C8.56951087,10.7559863 9.03155851,11.218034 9.03155851,11.7879986 C9.03155851,12.3579633 8.56951087,12.8200109 7.99954622,12.8200109 Z" id="形状"></path>
        </g>
    </g>
</svg>