<?xml version="1.0" encoding="UTF-8"?>
<svg width="20px" height="20px" viewBox="0 0 20 20" version="1.1" xmlns="http://www.w3.org/2000/svg" xmlns:xlink="http://www.w3.org/1999/xlink">
    <title>child-app-system-second-menu</title>
    <g id="child-app-system-second-menu" stroke="none" stroke-width="1" fill="none" fill-rule="evenodd">
        <g id="third-party-events">
            <rect id="矩形" x="0" y="0" width="20" height="20"></rect>
        </g>
        <g id="子系统">
            <rect id="矩形备份-10" x="0" y="0" width="20" height="20"></rect>
            <path d="M13,2 C13.5522847,2 14,2.44771525 14,3 L14,9 C14,9.55228475 13.5522847,10 13,10 L10.6,10 L10.6,11.247 L15,11.2470877 C15.8836556,11.2470877 16.6,11.9634321 16.6,12.8470877 L16.6,14 L15.4,14 L15.4,12.8470877 C15.4,12.6261738 15.2209139,12.4470877 15,12.4470877 L10.6,12.447 L10.6,14 L9.4,14 L9.4,12.447 L5,12.4470877 C4.7790861,12.4470877 4.6,12.6261738 4.6,12.8470877 L4.6,14 L3.4,14 L3.4,12.8470877 C3.4,11.9634321 4.1163444,11.2470877 5,11.2470877 L9.4,11.247 L9.4,10 L7,10 C6.44771525,10 6,9.55228475 6,9 L6,3 C6,2.44771525 6.44771525,2 7,2 L13,2 Z M12.8,3.2 L7.2,3.2 L7.2,8.8 L12.8,8.8 L12.8,3.2 Z" id="形状结合" fill="#57689C" opacity="0.55"></path>
            <rect id="矩形备份-13" fill="#57689C" x="2" y="14" width="4" height="4" rx="1"></rect>
            <rect id="矩形备份-24" fill="#57689C" x="8" y="14" width="4" height="4" rx="1"></rect>
            <rect id="矩形备份-25" fill="#57689C" x="14" y="14" width="4" height="4" rx="1"></rect>
        </g>
    </g>
</svg>