<?xml version="1.0" encoding="UTF-8"?>
<svg width="20px" height="20px" viewBox="0 0 20 20" version="1.1" xmlns="http://www.w3.org/2000/svg" xmlns:xlink="http://www.w3.org/1999/xlink">
    <title>ci-statistic-second-menu</title>
    <g id="ci-statistic-second-menu" stroke="none" stroke-width="1" fill="none" fill-rule="evenodd">
        <g id="测试管理-TUNA">
            <rect id="矩形备份-6" x="0" y="0" width="20" height="20"></rect>
            <g id="编组-29" transform="translate(1.950982, 1.950982)" fill="#57689C">
                <path d="M8.75612503,-0.121320344 L16.2193568,7.34191146 C16.6098811,7.73243576 16.6098811,8.36560073 16.2193568,8.75612503 L8.75612503,16.2193568 C8.36560073,16.6098811 7.73243576,16.6098811 7.34191146,16.2193568 L-0.121320344,8.75612503 C-0.511844635,8.36560073 -0.511844635,7.73243576 -0.121320344,7.34191146 L7.34191146,-0.121320344 C7.73243576,-0.511844635 8.36560073,-0.511844635 8.75612503,-0.121320344 Z M8.08408669,1.16611962 C7.87607594,1.16556595 7.70700107,1.33374313 7.7064474,1.54175388 L7.70287557,2.90286758 C7.40679664,2.9668235 7.12506417,3.11385837 6.89495035,3.3439722 L3.3439722,6.89495035 C3.12386332,7.11505922 2.97976619,7.38239574 2.9116808,7.664341 L1.55495258,7.660588 C1.34694184,7.66003432 1.17786697,7.82821151 1.17731329,8.03622225 C1.17675962,8.244233 1.3449368,8.41330787 1.55294755,8.41386155 L2.90775729,8.41706713 C2.97413555,8.70512188 3.11954052,8.97865446 3.3439722,9.20308614 L6.89495035,12.7540643 C7.11789769,12.9770116 7.38929861,13.1219741 7.6752559,13.1889518 L7.67178167,14.5653564 C7.67122799,14.7733671 7.83940518,14.942442 8.04741592,14.9429957 C8.25542667,14.9435493 8.42450154,14.7753721 8.42505522,14.5673614 L8.42917106,13.1874414 C8.71278018,13.1198093 8.98180021,12.9753502 9.20308614,12.7540643 L12.7540643,9.20308614 C12.9712305,8.9859199 13.1144038,8.72278034 13.1835842,8.44499554 L14.57655,8.44852728 C14.7845608,8.44908095 14.9536356,8.28090377 14.9541893,8.07289302 C14.954743,7.86488227 14.7865658,7.6958074 14.5785551,7.69525373 L13.1926746,7.69152416 C13.1274389,7.39959965 12.9812355,7.12212154 12.7540643,6.89495035 L9.20308614,3.3439722 C8.98886253,3.12974859 8.72990305,2.98752626 8.45627946,2.91730523 L8.45972095,1.54375891 C8.46027462,1.33574817 8.29209744,1.1666733 8.08408669,1.16611962 Z M8.67043942,3.87661892 L12.2214176,7.42759707 C12.564619,7.77079851 12.564619,8.32723798 12.2214176,8.67043942 L8.67043942,12.2214176 C8.32723798,12.564619 7.77079851,12.564619 7.42759707,12.2214176 L3.87661892,8.67043942 C3.53341748,8.32723798 3.53341748,7.77079851 3.87661892,7.42759707 L7.42759707,3.87661892 C7.77079851,3.53341748 8.32723798,3.53341748 8.67043942,3.87661892 Z M9.40878559,6.73764921 C9.21316221,6.54274897 8.89658027,6.54333519 8.70168003,6.73895857 L6.04966461,9.40081373 C5.85476437,9.59643711 5.85535059,9.91301906 6.05097397,10.1079193 C6.24659735,10.3028195 6.5631793,10.3022333 6.75807954,10.1066099 L9.41009495,7.44475478 C9.60499519,7.2491314 9.60440897,6.93254946 9.40878559,6.73764921 Z M7.285072,6.732376 C7.08653631,6.54044323 6.76999907,6.54579595 6.5780663,6.74433165 L5.00567527,8.37081651 C4.8137425,8.5693522 4.81909523,8.88588944 5.01763092,9.07782221 C5.21616662,9.26975498 5.53270385,9.26440225 5.72463663,9.06586656 L7.29702765,7.4393817 C7.48896042,7.24084601 7.4836077,6.92430877 7.285072,6.732376 Z" id="形状结合"></path>
            </g>
        </g>
    </g>
</svg>