<?xml version="1.0" encoding="UTF-8"?>
<svg width="20px" height="20px" viewBox="0 0 20 20" version="1.1" xmlns="http://www.w3.org/2000/svg" xmlns:xlink="http://www.w3.org/1999/xlink">
    <title>clickhouse-second menu-normal</title>
    <g id="clickhouse-second-menu-normal" stroke="none" stroke-width="1" fill="none" fill-rule="evenodd">
        <g id="clickhouse-second-menu-default">
            <rect id="矩形" fill-opacity="0" fill="#D8D8D8" x="0" y="0" width="20" height="20"></rect>
            <path d="M10.7094949,1.51710678 L18.4876695,9.29528137 C18.8781938,9.68580567 18.8781938,10.3189706 18.4876695,10.7094949 L10.7094949,18.4876695 C10.3189706,18.8781938 9.68580567,18.8781938 9.29528137,18.4876695 L1.51710678,10.7094949 C1.12658249,10.3189706 1.12658249,9.68580567 1.51710678,9.29528137 L9.29528137,1.51710678 C9.68580567,1.12658249 10.3189706,1.12658249 10.7094949,1.51710678 Z M8.65939204,6.69563636 L7.66581899,6.69563636 L7.66581899,13.2607273 L8.65939204,13.2607273 L8.65939204,6.69563636 Z M10.4304812,6.69563636 L9.4369081,6.69563636 L9.4369081,13.2607273 L10.4304812,13.2607273 L10.4304812,6.69563636 Z M12.1585756,6.69563636 L11.1650026,6.69563636 L11.1650026,13.2607273 L12.1585756,13.2607273 L12.1585756,6.69563636 Z M13.9730207,10.4349091 L12.9794476,10.4349091 L12.9794476,12.3912727 L13.9730207,12.3912727 L13.9730207,10.4349091 Z M6.93129755,7.82618181 L5.9377245,7.82618181 L5.9377245,12.3912727 L6.93129755,12.3912727 L6.93129755,7.82618181 Z M13.9730207,7.82618181 L12.9794476,7.82618181 L12.9794476,9.78254546 L13.9730207,9.78254546 L13.9730207,7.82618181 Z" id="形状" fill="#9FAECF" fill-rule="nonzero"></path>
        </g>
    </g>
</svg>