<?xml version="1.0" encoding="UTF-8"?>
<svg width="20px" height="20px" viewBox="0 0 20 20" version="1.1" xmlns="http://www.w3.org/2000/svg" xmlns:xlink="http://www.w3.org/1999/xlink">
    <title>cluster-overview-second-menu</title>
    <g id="cluster-overview-second-menu" stroke="none" stroke-width="1" fill="none" fill-rule="evenodd">
        <rect id="矩形" fill="#000000" opacity="0" x="0" y="0" width="20" height="20"></rect>
        <g id="K8s" transform="translate(2.000000, 2.000000)">
            <rect id="矩形" x="0" y="0" width="16" height="16"></rect>
            <path d="M9.84026566,14.0682779 C8.5714155,14.4971093 7.19405131,14.4764137 5.9344158,14.0046871 C5.90649863,14.0697973 5.84626618,14.1118959 5.7800438,14.1202595 L5.88813055,14.0547372 C5.57307708,14.2087188 5.43684154,14.4785206 5.35964922,14.6584044 C5.14218823,15.1680035 5.19808935,15.2569675 5.02020936,15.6321905 C4.88298898,15.9236966 4.5954171,16.0725742 4.37790921,15.9650542 C4.16044822,15.8575818 4.09638704,15.5371206 4.23360741,15.2476657 C4.41040878,14.8703438 4.51409785,14.8609943 4.76917017,14.3699989 C4.86067268,14.1724741 4.9089373,13.9578138 4.91145887,13.7407668 C4.85221008,13.6845743 4.832138,13.5952572 4.86651323,13.5160424 L4.885,13.487 L4.6941816,13.3628931 C3.60343522,12.6180042 2.78546531,11.5229 2.3736295,10.2487474 C2.30564867,10.2555942 2.24119241,10.2250504 2.20215933,10.1723397 C1.97273287,10.1176751 1.7669034,10.1613606 1.62370032,10.2009027 C1.09625072,10.3445808 1.06271943,10.4448501 0.66329841,10.5379165 C0.356405001,10.6092308 0.0626896254,10.4738529 0.00880507061,10.2340079 C-0.0460643194,9.99521227 0.16126694,9.7440142 0.470223813,9.67580052 C0.868613101,9.5838313 0.942850917,9.65929567 1.47841368,9.5559257 C1.66398039,9.51095336 1.83869485,9.43013115 1.99329756,9.31845901 C1.97215405,9.22474802 2.01417638,9.13622977 2.08967584,9.09490035 L2.123,9.082 L2.10480358,8.91427584 C1.98837324,7.59937408 2.30416578,6.27974415 3.00609036,5.16420005 C2.93953153,5.11079332 2.91591062,5.02220891 2.94186624,4.94433249 L2.961,4.906 L2.8937857,4.79324394 C2.79684768,4.65261424 2.67865621,4.55506135 2.5861657,4.486409 C2.14716368,4.15359302 2.0495712,4.19075278 1.72945286,3.93130228 C1.48244682,3.72871242 1.40319103,3.40930067 1.55358943,3.21701441 C1.70398784,3.02472816 2.02616964,3.03302828 2.27312879,3.23356696 C2.59329403,3.49306516 2.58105394,3.59748456 2.99473162,3.96030502 C3.13918753,4.07498846 3.30270733,4.16115036 3.47681728,4.21509164 C3.543926,4.15702555 3.64222687,4.15390889 3.713809,4.20925189 L3.72259321,4.21644036 L3.73,4.224 L3.89068222,4.05903885 C4.84350778,3.12652626 6.07978684,2.54593439 7.40077016,2.41565271 C7.39876522,2.41279434 7.39861398,2.40840193 7.39860632,2.40397583 C7.39845119,2.31437483 7.45758896,2.23851422 7.53901749,2.21352446 C7.65175757,1.98899692 7.65505802,1.76540711 7.64943797,1.60950895 C7.62805298,1.05540397 7.53965229,0.999592779 7.53965229,0.58301231 C7.53965229,0.261501676 7.73577519,0 7.97663774,0 C8.2175003,0 8.41362319,0.261501676 8.41362319,0.58301231 C8.41362319,0.999592779 8.32414388,1.05440223 8.30383752,1.60950895 C8.30583551,1.82033364 8.35086181,2.02772217 8.4352916,2.21878019 C8.51438387,2.24405385 8.57080576,2.31847075 8.57095747,2.4060946 L8.568,2.417 L8.8032028,2.44587823 C10.1021461,2.63135118 11.305731,3.2541588 12.2192245,4.21884631 L12.2273171,4.20925189 C12.2925612,4.15880905 12.3800021,4.15693195 12.4461576,4.19805735 C12.6858531,4.14764659 12.8564995,4.01245339 12.9706902,3.91174451 C13.3842741,3.5499258 13.3720809,3.44445695 13.6912144,3.18500646 C13.9392052,2.98442007 14.2603553,2.97721709 14.4128172,3.16845391 C14.5642004,3.36078786 14.4839129,3.67810073 14.2369538,3.87968885 C13.9168354,4.14119053 13.8192429,4.10503251 13.3792092,4.43479557 C13.2567059,4.53539958 13.1512736,4.6547076 13.0663269,4.78786955 L12.989,4.924 L12.9983809,4.94176879 C13.0242243,5.01600515 13.0046421,5.10057429 12.9452181,5.15573407 L12.928,5.129 L13.0560618,5.33780521 C13.7163861,6.47395795 13.9889388,7.80315816 13.8269675,9.11717313 L13.8105538,9.11165688 C13.9015661,9.13321485 13.9629214,9.21463535 13.9624948,9.30450063 C14.1553325,9.46839086 14.3704505,9.52180932 14.5225091,9.5507739 C15.0591036,9.65414386 15.1322628,9.5786318 15.5316838,9.67169815 C15.8396089,9.74301246 16.0458615,9.99115761 15.9912266,10.2309072 C15.9363573,10.4696551 15.6446584,10.6050807 15.3367333,10.5337664 C14.9373123,10.4417495 14.9048127,10.3414802 14.3763314,10.1967527 C14.171321,10.1509288 13.9597635,10.1501033 13.7556101,10.1934937 C13.7170177,10.2576074 13.6442581,10.2940274 13.5685398,10.2846888 L13.5835859,10.2412108 C13.1415801,11.6038877 12.2383887,12.7615649 11.0347642,13.5060729 C11.0557095,13.5731562 11.0380168,13.6452455 10.9926098,13.6963093 C10.9992356,13.8808146 11.0522789,14.0614553 11.1455092,14.2222185 C11.4005815,14.7112104 11.5042237,14.7246623 11.6821037,15.0998853 C11.8182923,15.3892925 11.754278,15.7118526 11.5367701,15.8172737 C11.320294,15.9227426 11.0326752,15.773865 10.89447,15.4844101 C10.7186534,15.1091394 10.7735697,15.0202708 10.5550301,14.510624 C10.4739597,14.3419214 10.3624009,14.1907917 10.2266241,14.0649 L10.215734,14.0700398 C10.1365329,14.1044092 10.047039,14.0822083 9.99241316,14.0212645 L9.84026566,14.0682779 Z M7.81791807,10.6450367 C7.70901844,10.7588003 6.88864742,11.9922625 6.39216047,12.9422414 C6.89266541,13.1129282 7.41869683,13.200051 7.94845519,13.2000125 C8.48696525,13.2002262 9.02158628,13.1103338 9.52941537,12.9341734 C9.05659776,12.0356808 8.23815551,10.7487269 8.15507573,10.64 C8.07199595,10.5312731 7.9268177,10.5312731 7.81791807,10.6450367 Z M6.22997682,9.68043945 C6.15471513,9.67903124 4.56792177,9.84618511 3.56863105,10.0629549 C3.91778845,11.0928783 4.58426438,11.9714873 5.46278456,12.56 C5.91281145,11.4878695 6.36946709,10.0716475 6.39216047,9.90144401 C6.41485385,9.73124056 6.3052385,9.68188367 6.22997682,9.68043945 Z M9.69902091,9.68030906 C9.63305134,9.68155405 9.49504248,9.74277865 9.52941537,9.9088239 C9.56378826,10.0748691 10.0604051,11.5905118 10.480343,12.56 C11.3489374,11.9676102 12.0074576,11.087483 12.3529448,10.0572255 C11.3091323,9.84260485 9.76499049,9.67906408 9.69902091,9.68030906 Z M8.37729021,7.55469434 L7.62270979,7.55469434 L7.1522366,8.15775917 L7.32014654,8.90976871 L8,9.24444444 L8.67985346,8.90976871 L8.8477634,8.15775917 L8.37729021,7.55469434 Z M12.0022005,5.84 C11.2234315,6.5934703 10.1932323,7.80022124 10.1568663,7.85506562 C10.1205004,7.90990999 10.0932498,8.05866806 10.2117249,8.13103485 C10.3302,8.20340165 11.6806896,8.76403076 12.640425,9.03994947 C12.7479262,7.92213493 12.5232339,6.79556546 12.0022005,5.84 Z M3.99327319,5.84 C3.5090899,6.63939373 3.25379567,7.55965489 3.25490196,8.49786277 C3.25640662,8.67901495 3.26726423,8.86001491 3.28742836,9.04 C3.49292481,8.98574858 3.71715003,8.92082672 3.94591815,8.85107372 L4.2907043,8.74355078 C5.15232145,8.46933459 5.97807891,8.16823812 6.01989394,8.14819339 C6.07843498,8.12013078 6.16036414,7.97804148 6.07843498,7.86667174 C5.99650582,7.755302 4.84552065,6.55912849 3.99327319,5.84 Z M7.64690196,3.602 L7.40168194,3.63681128 C6.42598145,3.80117726 5.52371238,4.26753888 4.82353302,4.97340807 C5.67160467,5.60909082 6.94363178,6.40743211 7.09057335,6.48 C7.23751493,6.55256789 7.34372867,6.48 7.38634042,6.33034076 C7.42895218,6.18068151 7.62228837,4.66894698 7.64690196,3.602 Z M8.5882389,3.6 C8.62565697,4.71157895 8.81080083,6.22602361 8.84397704,6.35301181 C8.87715324,6.48 8.99662907,6.52602444 9.10388873,6.48 C9.21114838,6.43397556 10.5613706,5.61504903 11.4117683,4.96661197 C10.6505439,4.20660241 9.65597705,3.72522367 8.5882389,3.6 Z" id="形状结合" fill="#57689C" opacity="0.55"></path>
        </g>
    </g>
</svg>