<?xml version="1.0" encoding="UTF-8"?>
<svg width="20px" height="20px" viewBox="0 0 20 20" version="1.1" xmlns="http://www.w3.org/2000/svg" xmlns:xlink="http://www.w3.org/1999/xlink">
    <title>cluster-second menu-pressed</title>
    <g id="cluster-second-menu-pressed" stroke="none" stroke-width="1" fill="none" fill-rule="evenodd">
        <g id="cluster">
            <rect id="矩形" x="0" y="0" width="20" height="20"></rect>
            <rect id="矩形" x="2" y="2" width="16" height="16"></rect>
            <path d="M14.5777778,9.57777778 L17.6444444,11.3111111 C17.7777778,11.4 17.8666667,11.5333333 17.8666667,11.7111111 L17.8666667,15.2222222 C17.8666667,15.4 17.7777778,15.5333333 17.6444444,15.6222222 L14.5777778,17.3555556 C14.4444444,17.4444444 14.2666667,17.4444444 14.1333333,17.3555556 L11.0666667,15.6222222 C10.9333333,15.5333333 10.8444444,15.4 10.8444444,15.2222222 L10.8444444,11.7111111 C10.8444444,11.5333333 10.9333333,11.4 11.0666667,11.3111111 L14.1333333,9.57777778 C14.2666667,9.48888889 14.4444444,9.48888889 14.5777778,9.57777778 Z M11.4222222,12.2444444 C11.3777778,12.2888889 11.3777778,12.3777778 11.3777778,12.4666667 L11.3777778,15.0888889 C11.3777778,15.2222222 11.4666667,15.4 11.6,15.4444444 L13.9111111,16.7333333 C14.1333333,16.8666667 14.4,16.7777778 14.4888889,16.5555556 C14.5222222,16.5222222 14.5305556,16.4638889 14.5326389,16.3993056 L14.5333333,13.7111111 C14.5333333,13.5777778 14.4444444,13.4 14.3111111,13.3555556 L12,12.0666667 C11.7777778,11.9333333 11.5111111,12.0222222 11.4222222,12.2444444 Z M10.2222222,2.51111111 L13.2888889,4.24444444 C13.4222222,4.33333333 13.5111111,4.46666667 13.5111111,4.64444444 L13.5111111,8.15555556 C13.5111111,8.33333333 13.4222222,8.46666667 13.2888889,8.55555556 L10.2222222,10.2888889 C10.0888889,10.3777778 9.91111111,10.3777778 9.77777778,10.2888889 L6.71111111,8.55555556 C6.57777778,8.46666667 6.48888889,8.33333333 6.48888889,8.15555556 L6.48888889,4.64444444 C6.48888889,4.46666667 6.57777778,4.33333333 6.71111111,4.24444444 L9.77777778,2.51111111 C9.91111111,2.42222222 10.0888889,2.42222222 10.2222222,2.51111111 Z M7.06666667,5.26666667 C7.02222222,5.31111111 7.02222222,5.4 7.02222222,5.48888889 L7.02222222,8.11111111 C7.02222222,8.24444444 7.11111111,8.42222222 7.24444444,8.46666667 L9.55555556,9.75555556 C9.77777778,9.88888889 10.0444444,9.8 10.1333333,9.57777778 C10.1666667,9.54444444 10.175,9.48611111 10.1770833,9.42152778 L10.1777778,6.73333333 C10.1777778,6.6 10.0888889,6.42222222 9.95555556,6.37777778 L7.64444444,5.08888889 C7.42222222,4.95555556 7.15555556,5.04444444 7.06666667,5.26666667 Z" id="形状结合" fill="#FFFFFF" fill-rule="nonzero"></path>
            <path d="M5.42222222,9.57777778 C5.55555556,9.48888889 5.73333333,9.48888889 5.86666667,9.57777778 L8.93333333,11.3111111 C9.06666667,11.4 9.15555556,11.5333333 9.15555556,11.7111111 L9.15555556,15.2222222 C9.15555556,15.4 9.06666667,15.5333333 8.93333333,15.6222222 L5.86666667,17.3555556 C5.73333333,17.4444444 5.55555556,17.4444444 5.42222222,17.3555556 L2.35555556,15.6222222 C2.22222222,15.5333333 2.13333333,15.4 2.13333333,15.2222222 L2.13333333,11.7111111 C2.13333333,11.5333333 2.22222222,11.4 2.35555556,11.3111111 Z M2.71111111,12.2444444 C2.66666667,12.2888889 2.66666667,12.3777778 2.66666667,12.4666667 L2.66666667,15.0888889 C2.66666667,15.2222222 2.75555556,15.4 2.88888889,15.4444444 L5.2,16.7333333 C5.42222222,16.8666667 5.68888889,16.7777778 5.77777778,16.5555556 C5.81111111,16.5222222 5.81944444,16.4638889 5.82152778,16.3993056 L5.82222222,13.7111111 C5.82222222,13.5777778 5.73333333,13.4 5.6,13.3555556 L3.28888889,12.0666667 C3.06666667,11.9333333 2.8,12.0222222 2.71111111,12.2444444 Z" id="形状结合" fill="#FFFFFF" fill-rule="nonzero" opacity="0.55"></path>
        </g>
    </g>
</svg>