<?xml version="1.0" encoding="UTF-8"?>
<svg width="20px" height="20px" viewBox="0 0 20 20" version="1.1" xmlns="http://www.w3.org/2000/svg" xmlns:xlink="http://www.w3.org/1999/xlink">
    <title>Cluster overview 2</title>
    <g id="Cluster-overview" stroke="none" stroke-width="1" fill="none" fill-rule="evenodd">
        <rect id="矩形" fill="#000000" opacity="0" x="0" y="0" width="20" height="20"></rect>
        <path d="M11.8402657,16.0682779 C10.5714155,16.4971093 9.19405131,16.4764137 7.9344158,16.0046871 C7.90649863,16.0697973 7.84626618,16.1118959 7.7800438,16.1202595 L7.88813055,16.0547372 C7.57307708,16.2087188 7.43684154,16.4785206 7.35964922,16.6584044 C7.14218823,17.1680035 7.19808935,17.2569675 7.02020936,17.6321905 C6.88298898,17.9236966 6.5954171,18.0725742 6.37790921,17.9650542 C6.16044822,17.8575818 6.09638704,17.5371206 6.23360741,17.2476657 C6.41040878,16.8703438 6.51409785,16.8609943 6.76917017,16.3699989 C6.86067268,16.1724741 6.9089373,15.9578138 6.91145887,15.7407668 C6.85221008,15.6845743 6.832138,15.5952572 6.86651323,15.5160424 L6.885,15.487 L6.6941816,15.3628931 C5.60343522,14.6180042 4.78546531,13.5229 4.3736295,12.2487474 C4.30564867,12.2555942 4.24119241,12.2250504 4.20215933,12.1723397 C3.97273287,12.1176751 3.7669034,12.1613606 3.62370032,12.2009027 C3.09625072,12.3445808 3.06271943,12.4448501 2.66329841,12.5379165 C2.356405,12.6092308 2.06268963,12.4738529 2.00880507,12.2340079 C1.95393568,11.9952123 2.16126694,11.7440142 2.47022381,11.6758005 C2.8686131,11.5838313 2.94285092,11.6592957 3.47841368,11.5559257 C3.66398039,11.5109534 3.83869485,11.4301311 3.99329756,11.318459 C3.97215405,11.224748 4.01417638,11.1362298 4.08967584,11.0949003 L4.123,11.082 L4.10480358,10.9142758 C3.98837324,9.59937408 4.30416578,8.27974415 5.00609036,7.16420005 C4.93953153,7.11079332 4.91591062,7.02220891 4.94186624,6.94433249 L4.961,6.906 L4.8937857,6.79324394 C4.79684768,6.65261424 4.67865621,6.55506135 4.5861657,6.486409 C4.14716368,6.15359302 4.0495712,6.19075278 3.72945286,5.93130228 C3.48244682,5.72871242 3.40319103,5.40930067 3.55358943,5.21701441 C3.70398784,5.02472816 4.02616964,5.03302828 4.27312879,5.23356696 C4.59329403,5.49306516 4.58105394,5.59748456 4.99473162,5.96030502 C5.13918753,6.07498846 5.30270733,6.16115036 5.47681728,6.21509164 C5.543926,6.15702555 5.64222687,6.15390889 5.713809,6.20925189 L5.72259321,6.21644036 L5.73,6.224 L5.89068222,6.05903885 C6.84350778,5.12652626 8.07978684,4.54593439 9.40077016,4.41565271 C9.39876522,4.41279434 9.39861398,4.40840193 9.39860632,4.40397583 C9.39845119,4.31437483 9.45758896,4.23851422 9.53901749,4.21352446 C9.65175757,3.98899692 9.65505802,3.76540711 9.64943797,3.60950895 C9.62805298,3.05540397 9.53965229,2.99959278 9.53965229,2.58301231 C9.53965229,2.26150168 9.73577519,2 9.97663774,2 C10.2175003,2 10.4136232,2.26150168 10.4136232,2.58301231 C10.4136232,2.99959278 10.3241439,3.05440223 10.3038375,3.60950895 C10.3058355,3.82033364 10.3508618,4.02772217 10.4352916,4.21878019 C10.5143839,4.24405385 10.5708058,4.31847075 10.5709575,4.4060946 L10.568,4.417 L10.8032028,4.44587823 C12.1021461,4.63135118 13.305731,5.2541588 14.2192245,6.21884631 L14.2273171,6.20925189 C14.2925612,6.15880905 14.3800021,6.15693195 14.4461576,6.19805735 C14.6858531,6.14764659 14.8564995,6.01245339 14.9706902,5.91174451 C15.3842741,5.5499258 15.3720809,5.44445695 15.6912144,5.18500646 C15.9392052,4.98442007 16.2603553,4.97721709 16.4128172,5.16845391 C16.5642004,5.36078786 16.4839129,5.67810073 16.2369538,5.87968885 C15.9168354,6.14119053 15.8192429,6.10503251 15.3792092,6.43479557 C15.2567059,6.53539958 15.1512736,6.6547076 15.0663269,6.78786955 L14.989,6.924 L14.9983809,6.94176879 C15.0242243,7.01600515 15.0046421,7.10057429 14.9452181,7.15573407 L14.928,7.129 L15.0560618,7.33780521 C15.7163861,8.47395795 15.9889388,9.80315816 15.8269675,11.1171731 L15.8105538,11.1116569 C15.9015661,11.1332148 15.9629214,11.2146353 15.9624948,11.3045006 C16.1553325,11.4683909 16.3704505,11.5218093 16.5225091,11.5507739 C17.0591036,11.6541439 17.1322628,11.5786318 17.5316838,11.6716982 C17.8396089,11.7430125 18.0458615,11.9911576 17.9912266,12.2309072 C17.9363573,12.4696551 17.6446584,12.6050807 17.3367333,12.5337664 C16.9373123,12.4417495 16.9048127,12.3414802 16.3763314,12.1967527 C16.171321,12.1509288 15.9597635,12.1501033 15.7556101,12.1934937 C15.7170177,12.2576074 15.6442581,12.2940274 15.5685398,12.2846888 L15.5835859,12.2412108 C15.1415801,13.6038877 14.2383887,14.7615649 13.0347642,15.5060729 C13.0557095,15.5731562 13.0380168,15.6452455 12.9926098,15.6963093 C12.9992356,15.8808146 13.0522789,16.0614553 13.1455092,16.2222185 C13.4005815,16.7112104 13.5042237,16.7246623 13.6821037,17.0998853 C13.8182923,17.3892925 13.754278,17.7118526 13.5367701,17.8172737 C13.320294,17.9227426 13.0326752,17.773865 12.89447,17.4844101 C12.7186534,17.1091394 12.7735697,17.0202708 12.5550301,16.510624 C12.4739597,16.3419214 12.3624009,16.1907917 12.2266241,16.0649 L12.215734,16.0700398 C12.1365329,16.1044092 12.047039,16.0822083 11.9924132,16.0212645 L11.8402657,16.0682779 Z M9.81791807,12.6450367 C9.70901844,12.7588003 8.88864742,13.9922625 8.39216047,14.9422414 C8.89266541,15.1129282 9.41869683,15.200051 9.94845519,15.2000125 C10.4869653,15.2002262 11.0215863,15.1103338 11.5294154,14.9341734 C11.0565978,14.0356808 10.2381555,12.7487269 10.1550757,12.64 C10.071996,12.5312731 9.9268177,12.5312731 9.81791807,12.6450367 Z M8.22997682,11.6804395 C8.15471513,11.6790312 6.56792177,11.8461851 5.56863105,12.0629549 C5.91778845,13.0928783 6.58426438,13.9714873 7.46278456,14.56 C7.91281145,13.4878695 8.36946709,12.0716475 8.39216047,11.901444 C8.41485385,11.7312406 8.3052385,11.6818837 8.22997682,11.6804395 Z M11.6990209,11.6803091 C11.6330513,11.681554 11.4950425,11.7427787 11.5294154,11.9088239 C11.5637883,12.0748691 12.0604051,13.5905118 12.480343,14.56 C13.3489374,13.9676102 14.0074576,13.087483 14.3529448,12.0572255 C13.3091323,11.8426049 11.7649905,11.6790641 11.6990209,11.6803091 Z M10.3772902,9.55469434 L9.62270979,9.55469434 L9.1522366,10.1577592 L9.32014654,10.9097687 L10,11.2444444 L10.6798535,10.9097687 L10.8477634,10.1577592 L10.3772902,9.55469434 Z M14.0022005,7.84 C13.2234315,8.5934703 12.1932323,9.80022124 12.1568663,9.85506562 C12.1205004,9.90990999 12.0932498,10.0586681 12.2117249,10.1310349 C12.3302,10.2034017 13.6806896,10.7640308 14.640425,11.0399495 C14.7479262,9.92213493 14.5232339,8.79556546 14.0022005,7.84 Z M5.99327319,7.84 C5.5090899,8.63939373 5.25379567,9.55965489 5.25490196,10.4978628 C5.25640662,10.679015 5.26726423,10.8600149 5.28742836,11.04 C5.49292481,10.9857486 5.71715003,10.9208267 5.94591815,10.8510737 L6.2907043,10.7435508 C7.15232145,10.4693346 7.97807891,10.1682381 8.01989394,10.1481934 C8.07843498,10.1201308 8.16036414,9.97804148 8.07843498,9.86667174 C7.99650582,9.755302 6.84552065,8.55912849 5.99327319,7.84 Z M9.64690196,5.602 L9.40168194,5.63681128 C8.42598145,5.80117726 7.52371238,6.26753888 6.82353302,6.97340807 C7.67160467,7.60909082 8.94363178,8.40743211 9.09057335,8.48 C9.23751493,8.55256789 9.34372867,8.48 9.38634042,8.33034076 C9.42895218,8.18068151 9.62228837,6.66894698 9.64690196,5.602 Z M10.5882389,5.6 C10.625657,6.71157895 10.8108008,8.22602361 10.843977,8.35301181 C10.8771532,8.48 10.9966291,8.52602444 11.1038887,8.48 C11.2111484,8.43397556 12.5613706,7.61504903 13.4117683,6.96661197 C12.6505439,6.20660241 11.6559771,5.72522367 10.5882389,5.6 Z" id="形状结合" fill="#FFFFFF" opacity="0.55"></path>
    </g>
</svg>