<?xml version="1.0" encoding="UTF-8"?>
<svg width="20px" height="20px" viewBox="0 0 20 20" version="1.1" xmlns="http://www.w3.org/2000/svg" xmlns:xlink="http://www.w3.org/1999/xlink">
    <title>cmdb-data-quality-second-menu</title>
    <g id="cmdb-data-quality-second-menu" stroke="none" stroke-width="1" fill="none" fill-rule="evenodd">
        <g id="应用性能监控">
            <rect id="矩形" x="0" y="0" width="20" height="20"></rect>
            <path d="M15.5409091,2 C16.0931938,2 16.5409091,2.44771525 16.5409091,3 L16.5409091,17 C16.5409091,17.5522847 16.0931938,18 15.5409091,18 L4.45,18 C3.89771525,18 3.45,17.5522847 3.45,17 L3.45,3 C3.45,2.44771525 3.89771525,2 4.45,2 L15.5409091,2 Z M7.5219194,12.3056552 L6.542,13.622 L6.06032858,13.0985804 C5.94380981,12.9718689 5.75815535,12.9466849 5.61439502,13.027681 L5.54652005,13.077049 C5.39869,13.2129875 5.38905004,13.4430275 5.52498861,13.5908575 L6.28083292,14.4128207 C6.3585121,14.4972951 6.46691825,14.5366461 6.57315365,14.5294952 L6.64296159,14.5264705 C6.73503944,14.5129675 6.82196609,14.4643381 6.88191673,14.3837827 L8.10535333,12.7398562 C8.22525461,12.5787454 8.19184767,12.35094 8.03073684,12.2310388 C7.869626,12.1111375 7.64182068,12.1445444 7.5219194,12.3056552 Z M14.5863636,12.9090909 L10.1318182,12.9090909 C9.85567581,12.9090909 9.63181818,13.1329485 9.63181818,13.4090909 C9.63181818,13.6852333 9.85567581,13.9090909 10.1318182,13.9090909 L14.5863636,13.9090909 C14.862506,13.9090909 15.0863636,13.6852333 15.0863636,13.4090909 C15.0863636,13.1329485 14.862506,12.9090909 14.5863636,12.9090909 Z M6.72272727,8.72727273 C6.12023482,8.72727273 5.63181818,9.21568936 5.63181818,9.81818182 C5.63181818,10.4206743 6.12023482,10.9090909 6.72272727,10.9090909 C7.32521973,10.9090909 7.81363636,10.4206743 7.81363636,9.81818182 C7.81363636,9.21568936 7.32521973,8.72727273 6.72272727,8.72727273 Z M14.5863636,9.27272727 L10.1318182,9.27272727 C9.85567581,9.27272727 9.63181818,9.4965849 9.63181818,9.77272727 C9.63181818,10.0488696 9.85567581,10.2727273 10.1318182,10.2727273 L14.5863636,10.2727273 C14.862506,10.2727273 15.0863636,10.0488696 15.0863636,9.77272727 C15.0863636,9.4965849 14.862506,9.27272727 14.5863636,9.27272727 Z M6.72272727,9.45454545 C6.92355809,9.45454545 7.08636364,9.617351 7.08636364,9.81818182 C7.08636364,10.0190126 6.92355809,10.1818182 6.72272727,10.1818182 C6.52189645,10.1818182 6.35909091,10.0190126 6.35909091,9.81818182 C6.35909091,9.617351 6.52189645,9.45454545 6.72272727,9.45454545 Z M7.5219194,5.03292798 L6.542,6.349 L6.06032858,5.82585314 C5.94380981,5.69914167 5.75815535,5.67395761 5.61439502,5.75495374 L5.54652005,5.8043217 C5.39869,5.94026026 5.38905004,6.17030018 5.52498861,6.31813023 L6.28083292,7.14009347 C6.35632737,7.22219194 6.46084471,7.26166961 6.56418562,7.25726096 C6.68384056,7.2651397 6.80505145,7.21433895 6.88191673,7.11105539 L8.10535333,5.46712892 C8.22525461,5.30601809 8.19184767,5.07821276 8.03073684,4.95831148 C7.869626,4.8384102 7.64182068,4.87181714 7.5219194,5.03292798 Z M14.5863636,5.63636364 L10.1318182,5.63636364 C9.85567581,5.63636364 9.63181818,5.86022126 9.63181818,6.13636364 C9.63181818,6.41250601 9.85567581,6.63636364 10.1318182,6.63636364 L14.5863636,6.63636364 C14.862506,6.63636364 15.0863636,6.41250601 15.0863636,6.13636364 C15.0863636,5.86022126 14.862506,5.63636364 14.5863636,5.63636364 Z" id="形状结合" fill="#57689C"></path>
        </g>
    </g>
</svg>