<?xml version="1.0" encoding="UTF-8"?>
<svg width="20px" height="20px" viewBox="0 0 20 20" version="1.1" xmlns="http://www.w3.org/2000/svg" xmlns:xlink="http://www.w3.org/1999/xlink">
    <title>cmdb-relation-query-second-menu</title>
    <g id="cmdb-relation-query-second-menu" stroke="none" stroke-width="1" fill="none" fill-rule="evenodd">
        <g id="应用性能监控">
            <rect id="矩形" x="0" y="0" width="20" height="20"></rect>
            <rect id="矩形备份-50" fill="#57689C" opacity="0.55" x="4.28571429" y="3" width="12" height="4" rx="1"></rect>
            <path d="M16,5.28571429 C17.1045695,5.28571429 18,6.18114479 18,7.28571429 L18,15.2857143 C18,16.3902838 17.1045695,17.2857143 16,17.2857143 L4,17.2857143 C2.8954305,17.2857143 2,16.3902838 2,15.2857143 L2,7.28571429 C2,6.18114479 2.8954305,5.28571429 4,5.28571429 L16,5.28571429 Z M9.6,7.58571429 C7.77746033,7.58571429 6.3,9.06317461 6.3,10.8857143 C6.3,12.708254 7.77746033,14.1857143 9.6,14.1857143 C10.330977,14.1857143 11.0064439,13.9480471 11.5533418,13.5457714 L13.2210421,15.2138632 L13.2616402,15.2503121 C13.457976,15.4082575 13.7459042,15.3961078 13.9281489,15.2138632 C14.123411,15.018601 14.123411,14.7020185 13.9281489,14.5067564 L12.2600572,12.8390561 C12.6623328,12.2921582 12.9,11.6166913 12.9,10.8857143 C12.9,9.06317461 11.4225397,7.58571429 9.6,7.58571429 Z M9.6,8.58571429 C10.8702549,8.58571429 11.9,9.61545936 11.9,10.8857143 C11.9,12.1559692 10.8702549,13.1857143 9.6,13.1857143 C8.32974508,13.1857143 7.3,12.1559692 7.3,10.8857143 C7.3,9.61545936 8.32974508,8.58571429 9.6,8.58571429 Z" id="形状结合" fill="#57689C"></path>
        </g>
    </g>
</svg>