<?xml version="1.0" encoding="UTF-8"?>
<svg width="20px" height="20px" viewBox="0 0 20 20" version="1.1" xmlns="http://www.w3.org/2000/svg" xmlns:xlink="http://www.w3.org/1999/xlink">
    <title>cmdb-data-operations-second-menu</title>
    <g id="cmdb-data-operations-second-menu" stroke="none" stroke-width="1" fill="none" fill-rule="evenodd">
        <g id="编组">
            <rect id="矩形" x="0" y="0" width="20" height="20"></rect>
            <path d="M17,3 C17.5522847,3 18,3.44771525 18,4 L18,16.4 C18,16.9522847 17.5522847,17.4 17,17.4 L3,17.4 C2.44771525,17.4 2,16.9522847 2,16.4 L2,4 C2,3.44771525 2.44771525,3 3,3 L17,3 Z M5.9,12.6 L4.9,12.6 C4.62385763,12.6 4.4,12.8238576 4.4,13.1 L4.4,15.3 C4.4,15.5761424 4.62385763,15.8 4.9,15.8 L5.9,15.8 C6.17614237,15.8 6.4,15.5761424 6.4,15.3 L6.4,13.1 C6.4,12.8238576 6.17614237,12.6 5.9,12.6 Z M10.3,9.8 L9.3,9.8 C9.02385763,9.8 8.8,10.0238576 8.8,10.3 L8.8,15.3 C8.8,15.5761424 9.02385763,15.8 9.3,15.8 L10.3,15.8 C10.5761424,15.8 10.8,15.5761424 10.8,15.3 L10.8,10.3 C10.8,10.0238576 10.5761424,9.8 10.3,9.8 Z M14.7,5 L13.7,5 C13.4238576,5 13.2,5.22385763 13.2,5.5 L13.2,15.3 C13.2,15.5761424 13.4238576,15.8 13.7,15.8 L14.7,15.8 C14.9761424,15.8 15.2,15.5761424 15.2,15.3 L15.2,5.5 C15.2,5.22385763 14.9761424,5 14.7,5 Z M8.89354138,4.95657625 L9.53627954,5.7614592 L8.42029667,6.65708147 L7.13512868,7.73557283 L5.09228338,9.44972357 C5.02310486,9.50777124 5.01399135,9.61193912 5.07203902,9.68111763 L5.84896844,10.607026 C5.9070161,10.6762046 6.01118399,10.6853181 6.08036249,10.6272704 L10.462522,6.87043009 L11.219806,7.70459953 L11.4503948,5.02358304 L8.89354138,4.95657625 Z" id="形状结合" fill="#57689C"></path>
        </g>
    </g>
</svg>