<?xml version="1.0" encoding="UTF-8"?>
<svg width="16px" height="16px" viewBox="0 0 16 16" version="1.1" xmlns="http://www.w3.org/2000/svg" xmlns:xlink="http://www.w3.org/1999/xlink">
    <title>资源数据运营</title>
    <g id="IT资源管理-Ada" stroke="none" stroke-width="1" fill="none" fill-rule="evenodd">
        <g id="资源数据运营">
            <rect id="矩形" x="0" y="0" width="16" height="16"></rect>
            <g id="编组-2" transform="translate(1.000000, 1.000000)" fill="#FFFFFF">
                <rect id="矩形" fill-rule="nonzero" x="0" y="9.174663" width="3.37931034" height="4.822069" rx="0.5"></rect>
                <rect id="矩形备份" fill-rule="nonzero" x="5.31034483" y="5.795353" width="3.37931034" height="8.201379" rx="0.5"></rect>
                <path d="M3.29913094,4.01611048 L1.02331801,6.29192342 C0.94625032,6.3689911 0.94625032,6.4951912 1.02331801,6.57225887 L2.05481773,7.60375859 C2.13188541,7.68082628 2.25808551,7.68082628 2.33515318,7.60375859 L7.20866648,2.62594421 L8.20689655,3.54921226 L8.20212369,0.301560387 L5.12096047,0.489948065 L5.9783911,1.3900537 L4.73084918,2.58425185 L3.29913094,4.01611048 Z" id="路径" transform="translate(4.586207, 3.981560) rotate(5.000000) translate(-4.586207, -3.981560) "></path>
                <rect id="矩形备份-2" fill-rule="nonzero" x="10.6206897" y="0.00225" width="3.37931034" height="13.994483" rx="0.5"></rect>
            </g>
        </g>
    </g>
</svg>