<?xml version="1.0" encoding="UTF-8"?>
<svg width="20px" height="20px" viewBox="0 0 20 20" version="1.1" xmlns="http://www.w3.org/2000/svg" xmlns:xlink="http://www.w3.org/1999/xlink">
    <title>code-project-second-menu</title>
    <g id="code-project-second-menu" stroke="none" stroke-width="1" fill="none" fill-rule="evenodd">
        <g fill="#000000" id="矩形" opacity="0">
            <rect x="0" y="0" width="20" height="20"></rect>
        </g>
        <g id="Gitlab/默认" transform="translate(2.000000, 2.000000)" fill="#57689C">
            <path d="M15.4517945,14.360815 L11.134827,1.45268492 C11.0472429,1.19080017 10.7639423,1.04950164 10.5020576,1.13708581 C10.350722,1.18769815 10.2326342,1.3075058 10.1842152,1.4595573 L7.81319155,8.90534282 C7.75093813,9.10083879 7.81443093,9.31452476 7.97333497,9.44430792 L14.661326,14.9066525 C14.8751996,15.0813314 15.1901836,15.0495579 15.3648625,14.8356843 C15.4733982,14.7027952 15.5062144,14.5235356 15.4517945,14.360815 Z" id="路径-2备份" opacity="0.55" transform="translate(11.855021, 8.000000) scale(-1, 1) translate(-11.855021, -8.000000) "></path>
            <path d="M8.41813544,15.0442014 C8.25607146,15.2677855 7.94344187,15.3176575 7.71985771,15.1555935 C7.67741371,15.1248281 7.64007184,15.0875795 7.60920047,15.0452125 L7.54585446,14.9589697 C7.68971868,14.9540562 7.83037293,14.8873715 7.92510481,14.7644479 C8.02871328,14.630006 8.05704269,14.4521829 8.00033948,14.2922015 L4.98162816,5.7781273 L11.1274254,5.77813438 L8.25824745,14.360815 C8.20382753,14.5235356 8.23664372,14.7027952 8.34517944,14.8356843 C8.38524113,14.8847351 8.43268272,14.9242076 8.48459196,14.953808 L8.41813544,15.0442014 Z" id="形状结合" opacity="0.55"></path>
            <path d="M14.1545683,5.77823949 C14.4307107,5.77823949 14.6545683,6.00209711 14.6545683,6.27823949 C14.6545683,6.38363921 14.6212608,6.48634331 14.5594033,6.57168229 L8.48459196,14.953808 C8.43268272,14.9242076 8.38524113,14.8847351 8.34517944,14.8356843 C8.23664372,14.7027952 8.20382753,14.5235356 8.25824745,14.360815 L11.1274254,5.77813438 L14.1545683,5.77823949 Z" id="形状结合"></path>
            <path d="M8.00033948,14.2922015 L3.51992115,1.65122715 C3.42766949,1.39094991 3.14188835,1.25473827 2.88161111,1.34698993 C2.73701713,1.39823927 2.62395237,1.51302932 2.5748985,1.65838278 L0.114102132,8.95006507 C0.0458351168,9.15234974 0.113537674,9.37566412 0.282641162,9.50598482 L7.22385585,14.8552768 C7.44258213,15.0238397 7.75654198,14.9831742 7.92510481,14.7644479 C8.02871328,14.630006 8.05704269,14.4521829 8.00033948,14.2922015 Z" id="路径-2" opacity="0.55"></path>
            <path d="M4.98162816,5.7781273 L8.00033948,14.2922015 C8.05704269,14.4521829 8.02871328,14.630006 7.92510481,14.7644479 C7.83015211,14.887658 7.6890627,14.9543668 7.54484837,14.959003 L1.43556303,6.57269349 C1.27294057,6.3495152 1.32203078,6.0367619 1.54520906,5.87413945 C1.63073834,5.81181716 1.7338362,5.77823949 1.83966307,5.77823949 L4.98162816,5.7781273 Z" id="形状结合"></path>
        </g>
    </g>
</svg>