<?xml version="1.0" encoding="UTF-8"?>
<svg width="20px" height="20px" viewBox="0 0 20 20" version="1.1" xmlns="http://www.w3.org/2000/svg" xmlns:xlink="http://www.w3.org/1999/xlink">
    <title>Component Cleanup 2</title>
    <g id="Component-Cleanup" stroke="none" stroke-width="1" fill="none" fill-rule="evenodd">
        <rect id="矩形" fill="#000000" opacity="0" x="0" y="0" width="20" height="20"></rect>
        <g id="编组" transform="translate(2.000000, 11.177665)" fill="#FFFFFF">
            <path d="M14.8975619,0 L15.9917565,6.20507614 C16.0433694,6.49137056 15.8472402,6.76548223 15.5540787,6.8142132 C15.5251754,6.82030457 15.4942076,6.82233503 15.4632399,6.82233503 L0.536774682,6.82233503 C0.239484089,6.82233503 0,6.58680203 0,6.29441624 C0,6.26598985 0.00206451801,6.23553299 0.00825807203,6.20507614 L1.10245262,0 L14.8975619,0 Z M5.41677847,2.77238579 L3.97677847,2.77238579 L3.97677847,6.81137056 L5.41677847,6.81137056 L5.41677847,2.77238579 Z M12.0232361,2.77238579 L10.5832361,2.77238579 L10.5832361,6.81137056 L12.0232361,6.81137056 L12.0232361,2.77238579 Z" id="形状结合"></path>
        </g>
        <path d="M16.8975619,11.177665 L17.2671107,11.177665 C17.5644013,11.177665 17.8038853,10.942132 17.8038853,10.6497462 L17.8038853,6.75126904 C17.8038853,6.45888325 17.5644013,6.22335025 17.2671107,6.22335025 L12.1883964,6.22335025 L12.1883964,2.52791878 C12.1883964,2.23553299 11.9489123,2 11.6516217,2 L8.34839287,2 C8.05110228,2 7.81161819,2.23553299 7.81161819,2.52791878 L7.81161819,6.22335025 L2.73290389,6.22335025 C2.4356133,6.22335025 2.19612921,6.45888325 2.19612921,6.75126904 L2.19612921,10.6497462 C2.19612921,10.942132 2.4356133,11.177665 2.73290389,11.177665 L3.10245262,11.177665 L16.8975619,11.177665 Z" id="路径备份" fill="#FFFFFF" opacity="0.55"></path>
    </g>
</svg>