<?xml version="1.0" encoding="UTF-8"?>
<svg width="20px" height="20px" viewBox="0 0 20 20" version="1.1" xmlns="http://www.w3.org/2000/svg" xmlns:xlink="http://www.w3.org/1999/xlink">
    <title>component-management-second-menu</title>
    <g id="component-management-second-menu" stroke="none" stroke-width="1" fill="none" fill-rule="evenodd">
        <g id="component-management">
            <rect id="矩形" x="0" y="0" width="20" height="20"></rect>
            <g id="编组-24" transform="translate(2.001000, 2.000000)" fill="#57689C" fill-rule="nonzero">
                <path d="M7.999,3.2 L13.998,8 L7.999,12.8 L1.999,8 L7.999,3.2 Z" id="形状结合" opacity="0.55"></path>
                <path d="M7.999,0 L15.998,6.401 L15.998,9.6 L7.999,16 L0,9.6 L0,6.399 L7.999,0 Z M2.959,8.767 L1.92,9.6 L7.398,13.981 L7.398,12.319 L2.959,8.767 Z M13.038,8.768 L8.598,12.321 L8.598,13.981 L14.077,9.6 L13.038,8.768 Z M7.999,4.737 L3.919,7.999 L7.999,11.262 L12.077,7.999 L7.999,4.737 Z M1.199,7.36 L1.199,8.639 L1.999,7.999 L1.199,7.36 Z M14.798,7.361 L13.999,7.999 L14.798,8.638 L14.798,7.361 Z M7.398,2.017 L1.92,6.4 L2.959,7.231 L7.398,3.68 L7.398,2.017 Z M8.598,2.017 L8.598,3.678 L13.038,7.231 L14.077,6.4 L8.598,2.017 Z" id="形状"></path>
            </g>
        </g>
    </g>
</svg>