<?xml version="1.0" encoding="UTF-8"?>
<svg width="20px" height="20px" viewBox="0 0 20 20" version="1.1" xmlns="http://www.w3.org/2000/svg" xmlns:xlink="http://www.w3.org/1999/xlink">
    <title>Component inspection 3</title>
    <g id="Component-inspection" stroke="none" stroke-width="1" fill="none" fill-rule="evenodd">
        <rect id="矩形" fill="#000000" opacity="0" x="0" y="0" width="20" height="20"></rect>
        <path d="M13.4992572,2.5 C15.9808709,2.5 18,4.70743333 18,7.42098796 C18,9.03979151 17.2765908,10.1753848 16.6950189,11.0878685 C15.0061028,13.7381893 10.7580086,17.0363432 10.577837,17.1754218 C10.4047412,17.3093771 10.2024109,17.3764623 9.99977608,17.3764623 C9.79760701,17.3764623 9.59495428,17.309413 9.42160765,17.1754218 C9.24170476,17.0363432 4.99389718,13.7381893 3.30444372,11.0878685 C2.72314046,10.1754565 2,9.03980943 2,7.42098796 C2,4.70743333 4.01903956,2.5 6.50074284,2.5 C7.8781831,2.5 9.15790652,3.19032337 10,4.32937394 C10.8425055,3.19062789 12.1225334,2.5 13.4992572,2.5 Z M9.58008589,6.29550065 C9.39442195,5.78338024 8.67739295,5.76374193 8.463976,6.26493213 L7.19,9.253 L5,9.25396527 C4.66862915,9.25396527 4.4,9.52259442 4.4,9.85396527 C4.4,10.1853361 4.66862915,10.4539653 5,10.4539653 L7.58782498,10.4539653 L7.67673699,10.4473612 C7.88074623,10.4168429 8.05740696,10.2826675 8.1398604,10.0890331 L8.971,8.137 L10.2646351,11.7044994 L10.3069753,11.7974155 C10.5333484,12.2025806 11.1442694,12.2084447 11.3648585,11.7693406 L12.791,8.929 L16,8.92902289 C16.3313708,8.92902289 16.6,8.66039374 16.6,8.32902289 C16.6,7.99765205 16.3313708,7.72902289 16,7.72902289 L12.4216867,7.72902289 L12.325902,7.73670127 C12.1377133,7.76710468 11.9728255,7.88592766 11.8855379,8.05968227 L10.917,9.985 Z" id="形状结合" fill="#9FAECF"></path>
    </g>
</svg>