<?xml version="1.0" encoding="UTF-8"?>
<svg width="20px" height="20px" viewBox="0 0 20 20" version="1.1" xmlns="http://www.w3.org/2000/svg" xmlns:xlink="http://www.w3.org/1999/xlink">
    <title>component-cleanup-second-menu</title>
    <g id="component-cleanup-second-menu" stroke="none" stroke-width="1" fill="none" fill-rule="evenodd">
        <rect id="矩形" fill="#000000" opacity="0" x="0" y="0" width="20" height="20"></rect>
        <g id="编组" transform="translate(2.196129, 2.000000)" fill="#57689C" opacity="0.55">
            <path d="M14.7014327,9.17766497 L15.0709815,9.17766497 C15.368272,9.17766497 15.6077561,8.94213198 15.6077561,8.64974619 L15.6077561,4.75126904 C15.6077561,4.45888325 15.368272,4.22335025 15.0709815,4.22335025 L9.99226715,4.22335025 L9.99226715,0.527918782 C9.99226715,0.235532995 9.75278306,0 9.45549247,0 L6.15226366,0 C5.85497307,0 5.61548898,0.235532995 5.61548898,0.527918782 L5.61548898,4.22335025 L0.536774682,4.22335025 C0.239484089,4.22335025 0,4.45888325 0,4.75126904 L0,8.64974619 C0,8.94213198 0.239484089,9.17766497 0.536774682,9.17766497 L0.906323405,9.17766497 L14.7014327,9.17766497 Z" id="路径备份"></path>
        </g>
        <path d="M16.8975619,11.177665 L17.9917565,17.3827411 C18.0433694,17.6690355 17.8472402,17.9431472 17.5540787,17.9918782 L17.5094335,17.9982234 L14.023,17.999665 L14.0232361,13.9500508 L12.5832361,13.9500508 L12.583,17.999665 L7.416,17.999665 L7.41677847,13.9500508 L5.97677847,13.9500508 L5.976,17.999665 L2.53677468,18 C2.26921315,18 2.04847488,17.8092183 2.00700285,17.5579127 L2,17.4720812 L2.00180645,17.4281726 L3.10245262,11.177665 L16.8975619,11.177665 Z" id="路径" fill="#57689C"></path>
    </g>
</svg>