<?xml version="1.0" encoding="UTF-8"?>
<svg width="20px" height="20px" viewBox="0 0 20 20" version="1.1" xmlns="http://www.w3.org/2000/svg" xmlns:xlink="http://www.w3.org/1999/xlink">
    <title>computer-room-details-second-menu</title>
    <g id="computer-room-details-second-menu" stroke="none" stroke-width="1" fill="none" fill-rule="evenodd">
        <rect id="矩形" fill-opacity="0" fill="#D8D8D8" x="0" y="0" width="20" height="20"></rect>
        <g id="机房环境设备" transform="translate(1.500000, 2.500000)">
            <rect id="矩形" fill-opacity="0" fill="#D8D8D8" x="0.5" y="0.5" width="16" height="16"></rect>
            <path d="M5.8,0 C6.35228475,-1.01453063e-16 6.8,0.44771525 6.8,1 L6.8,14.5 C6.8,15.0522847 6.35228475,15.5 5.8,15.5 L1,15.5 C0.44771525,15.5 6.76353751e-17,15.0522847 0,14.5 L0,1 C-6.76353751e-17,0.44771525 0.44771525,1.01453063e-16 1,0 L5.8,0 Z M13.3,0 C13.8522847,-1.01453063e-16 14.3,0.44771525 14.3,1 L14.3009741,6.89289594 C14.0185242,6.84335659 13.7279137,6.81752343 13.4312695,6.81752343 C10.6698458,6.81752343 8.43126951,9.05609968 8.43126951,11.8175234 C8.43126951,13.2747544 9.05466341,14.5863839 10.0493153,15.500276 L8.5,15.5 C7.94771525,15.5 7.5,15.0522847 7.5,14.5 L7.5,1 C7.5,0.44771525 7.94771525,1.01453063e-16 8.5,0 L13.3,0 Z M3.24705857,12.5692511 C2.81470564,12.5692511 2.46096233,12.9229944 2.46096233,13.3553473 C2.46096233,13.7877002 2.81470564,14.1414435 3.24705857,14.1414435 C3.67941151,14.1414435 4.03315481,13.7877002 4.03315481,13.3553473 C4.03315481,12.9229944 3.67941151,12.5692511 3.24705857,12.5692511 Z M5,5.4 L1.5,5.4 L1.5,6.57914435 L5,6.57914435 L5,5.4 Z M12.5,5.4 L9,5.4 L9,6.57914435 L12.5,6.57914435 L12.5,5.4 Z M5,2.92219248 L1.5,2.92219248 L1.5,4.10133683 L5,4.14064164 L5,2.92219248 Z M12.5,2.92219248 L9,2.92219248 L9,4.10133683 L12.5,4.14064164 L12.5,2.92219248 Z" id="形状结合" fill="#57689C" opacity="0.550000012"></path>
            <path d="M13.5,8.32 C11.5671875,8.32 10,9.8871875 10,11.82 C10,13.7528125 11.5671875,15.32 13.5,15.32 C15.4328125,15.32 17,13.7528125 17,11.82 C17,9.8871875 15.4328125,8.32 13.5,8.32 Z M14,13.5075 C14,13.541875 13.94375,13.57 13.875,13.57 L13.125,13.57 C13.05625,13.57 13,13.541875 13,13.5075 L13,11.3825 C13,11.348125 13.05625,11.32 13.125,11.32 L13.875,11.32 C13.94375,11.32 14,11.348125 14,11.3825 L14,13.5075 Z M13.51,10.8 C13.2339583,10.8 13.01,10.5760417 13.01,10.3 C13.01,10.0239583 13.2339583,9.8 13.51,9.8 C13.7860417,9.8 14.01,10.0239583 14.01,10.3 C14.01,10.5760417 13.7860417,10.8 13.51,10.8 Z" id="形状" fill="#57689C" fill-rule="nonzero"></path>
        </g>
    </g>
</svg>