<?xml version="1.0" encoding="UTF-8"?>
<svg width="20px" height="20px" viewBox="0 0 20 20" version="1.1" xmlns="http://www.w3.org/2000/svg" xmlns:xlink="http://www.w3.org/1999/xlink">
    <title>configuration-second menu-pressed</title>
    <g id="configuration-second-menu-pressed" stroke="none" stroke-width="1" fill="none" fill-rule="evenodd">
        <g id="配置中心备份" fill-rule="nonzero">
            <rect id="矩形" fill="#000000" opacity="0" x="0" y="0" width="20" height="20"></rect>
            <path d="M16.2631688,2 C16.6684208,2 17,2.37894768 17,2.8420928 L17,17.1579072 C17,17.6210523 16.6684208,18 16.2631688,18 L3.7368312,18 C3.33157922,18 3,17.6210523 3,17.1579072 L3,2.8420928 C3,2.37894768 3.33157922,2 3.7368312,2 Z M8.705,10.5166797 C7.91333984,10.5166797 7.205,11.0583398 6.955,11.7666797 L5.58,11.7666797 L5.58,13.0166797 L6.955,13.0166797 C7.205,13.725 7.91332031,14.2666797 8.705,14.2666797 C9.49667969,14.2666797 10.205,13.725 10.455,13.0166797 L14.4133203,13.0166797 L14.4133203,11.7666797 L10.455,11.7666797 C10.205,11.0583398 9.49666016,10.5166797 8.705,10.5166797 Z M8.705,11.7666797 C9.03832031,11.7666797 9.33,12.0583398 9.33,12.3916797 C9.33,12.7250195 9.03832031,13.0166797 8.705,13.0166797 C8.37167969,13.0166797 8.08,12.725 8.08,12.3916797 C8.08,12.0583594 8.37166016,11.7666797 8.705,11.7666797 Z M9.955,5.6 C9.16333984,5.6 8.455,6.14167969 8.205,6.85 L5.58,6.85 L5.58,8.1 L8.205,8.1 C8.455,8.80833984 9.16332031,9.35 9.955,9.35 C10.7466797,9.35 11.455,8.80833984 11.705,8.1 L14.4133203,8.1 L14.4133203,6.85 L11.705,6.85 C11.455,6.14167969 10.7466602,5.6 9.955,5.6 Z M9.955,6.85 C10.2883203,6.85 10.58,7.14167969 10.58,7.475 C10.58,7.80832031 10.2883203,8.1 9.955,8.1 C9.62167969,8.1 9.33,7.80833984 9.33,7.475 C9.33,7.14166016 9.62166016,6.85 9.955,6.85 Z" id="形状结合" fill="#FFFFFF" opacity="0.550000012"></path>
        </g>
    </g>
</svg>