<?xml version="1.0" encoding="UTF-8"?>
<svg width="20px" height="20px" viewBox="0 0 20 20" version="1.1" xmlns="http://www.w3.org/2000/svg" xmlns:xlink="http://www.w3.org/1999/xlink">
    <title>connection-second-menu</title>
    <defs>
        <linearGradient x1="-3.35277807%" y1="50.0024078%" x2="103.379328%" y2="50.0024078%" id="linearGradient-1">
            <stop stop-color="#0471EA" offset="0.4092262%"></stop>
            <stop stop-color="#2AC6CC" offset="76.74%"></stop>
        </linearGradient>
    </defs>
    <g id="connection-second-menu" stroke="none" stroke-width="1" fill="none" fill-rule="evenodd">
        <g id="编组" stroke-linejoin="round">
            <g id="SVGID_1_-link">
                <rect id="矩形" x="0" y="0" width="20" height="20"></rect>
            </g>
        </g>
        <g id="编组-2" transform="translate(0.551472, 0.551472)" fill="#57689C">
            <path d="M6.62109731,7.87830727 C6.95246816,7.87830727 7.22109731,8.14693642 7.22109731,8.47830727 C7.22109731,8.80967812 6.95246816,9.07830727 6.62109731,9.07830727 L5.08253421,9.07830727 C3.53847139,9.07830727 2.28676116,10.3300175 2.28676116,11.8740803 C2.28676116,13.4181431 3.53847139,14.6698534 5.08253421,14.6698534 L8.9634177,14.6698534 C10.5074805,14.6698534 11.7591908,13.4181431 11.7591908,11.8740803 C11.7591908,11.5427095 12.0278199,11.2740803 12.3591908,11.2740803 C12.6905616,11.2740803 12.9591908,11.5427095 12.9591908,11.8740803 C12.9591908,14.0808848 11.1702222,15.8698534 8.9634177,15.8698534 L5.08253421,15.8698534 C2.87572969,15.8698534 1.08676116,14.0808848 1.08676116,11.8740803 C1.08676116,9.6672758 2.87572969,7.87830727 5.08253421,7.87830727 L6.62109731,7.87830727 Z" id="路径" fill-rule="nonzero" opacity="0.55" transform="translate(7.022976, 11.874080) rotate(-45.000000) translate(-7.022976, -11.874080) "></path>
            <path d="M13.8145221,3.02720291 C16.0213266,3.02720291 17.8102951,4.81617144 17.8102951,7.02297596 C17.8102951,9.22978048 16.0213266,11.018749 13.8145221,11.018749 L11.4722017,11.018749 C11.1408308,11.018749 10.8722017,10.7501199 10.8722017,10.418749 C10.8722017,10.0873782 11.1408308,9.81874901 11.4722017,9.81874901 L13.8145221,9.81874901 C15.3585849,9.81874901 16.6102951,8.56703878 16.6102951,7.02297596 C16.6102951,5.47891314 15.3585849,4.22720291 13.8145221,4.22720291 L9.93363857,4.22720291 C8.38957575,4.22720291 7.13786552,5.47891314 7.13786552,7.02297596 C7.13786552,7.35434681 6.86923637,7.62297596 6.53786552,7.62297596 C6.20649467,7.62297596 5.93786552,7.35434681 5.93786552,7.02297596 C5.93786552,4.81617144 7.72683405,3.02720291 9.93363857,3.02720291 L13.8145221,3.02720291 Z" id="路径" transform="translate(11.874080, 7.022976) rotate(-45.000000) translate(-11.874080, -7.022976) "></path>
        </g>
    </g>
</svg>