<?xml version="1.0" encoding="UTF-8"?>
<svg width="20px" height="20px" viewBox="0 0 20 20" version="1.1" xmlns="http://www.w3.org/2000/svg" xmlns:xlink="http://www.w3.org/1999/xlink">
    <title>consumer-group-second-menu</title>
    <g id="consumer-group-second-menu" stroke="none" stroke-width="1" fill="none" fill-rule="evenodd">
        <g id="消费组">
            <rect id="矩形" fill="#D8D8D8" opacity="0" x="0" y="0" width="20" height="20"></rect>
            <g id="图形" transform="translate(2.000000, 3.800000)" fill="#57689C">
                <path d="M15,0 C15.5522847,-1.01453063e-16 16,0.44771525 16,1 L16,9 C16,9.55228475 15.5522847,10 15,10 L14,10 L14,3 C14,2.48716416 13.6139598,2.06449284 13.1166211,2.00672773 L13,2 L2,2 L2,1 C2,0.44771525 2.44771525,1.01453063e-16 3,0 L15,0 Z" id="形状结合"></path>
                <path d="M13,2 C13.5522847,2 14,2.44771525 14,3 L14,11 C14,11.5522847 13.5522847,12 13,12 L7.311,12 L4.07029442,14.1184563 C4.01609229,14.1538582 3.95579941,14.1782269 3.89285362,14.1905392 L3.796875,14.1998373 C3.52073263,14.1998373 3.296875,13.9759797 3.296875,13.6998373 L3.296,12 L1,12 C0.44771525,12 6.76353751e-17,11.5522847 0,11 L0,3 C-6.76353751e-17,2.44771525 0.44771525,2 1,2 L13,2 Z M10.1754974,7.6 L3.72,7.6 L3.72,8.8 L10.1754974,8.8 L10.1754974,7.6 Z M10.1754974,5.2 L3.72,5.2 L3.72,6.4 L10.1754974,6.4 L10.1754974,5.2 Z" id="形状结合" opacity="0.550000012"></path>
            </g>
        </g>
    </g>
</svg>