<?xml version="1.0" encoding="UTF-8"?>
<svg width="20px" height="20px" viewBox="0 0 20 20" version="1.1" xmlns="http://www.w3.org/2000/svg" xmlns:xlink="http://www.w3.org/1999/xlink">
    <title>continuous-integration-second-menu</title>
    <defs>
        <filter x="-84.4%" y="-174.3%" width="268.8%" height="448.5%" filterUnits="objectBoundingBox" id="filter-1">
            <feOffset dx="0" dy="2" in="SourceAlpha" result="shadowOffsetOuter1"></feOffset>
            <feGaussianBlur stdDeviation="2.5" in="shadowOffsetOuter1" result="shadowBlurOuter1"></feGaussianBlur>
            <feColorMatrix values="0 0 0 0 0   0 0 0 0 0   0 0 0 0 0  0 0 0 0.04 0" type="matrix" in="shadowBlurOuter1" result="shadowMatrixOuter1"></feColorMatrix>
            <feMerge>
                <feMergeNode in="shadowMatrixOuter1"></feMergeNode>
                <feMergeNode in="SourceGraphic"></feMergeNode>
            </feMerge>
        </filter>
        <polygon id="path-2" points="0 0 16 0 16 7.74711246 0 7.74711246"></polygon>
    </defs>
    <g id="continuous-integration-second-menu" stroke="none" stroke-width="1" fill="none" fill-rule="evenodd">
        <g id="持续集成" filter="url(#filter-1)" transform="translate(2.000000, 6.000000)">
            <g>
                <mask id="mask-3" fill="white">
                    <use xlink:href="#path-2"></use>
                </mask>
                <g id="Clip-2"></g>
                <path d="M8.52466059,4.70030395 L7.16133739,3.33779129 L6.30541033,4.19452888 L6.28109422,4.21803445 L5.33438703,5.16474164 L5.17552178,5.32360689 C4.89426545,5.57487335 4.54006079,5.74346505 4.14857143,5.79777102 L4.14857143,7.74711246 C5.19092199,7.67659574 6.12141844,7.20081054 6.77876393,6.46970618 C6.77876393,6.46970618 7.62010132,5.62593718 8.53681864,4.70840932 C8.53357649,4.70516717 8.52790274,4.7035461 8.52466059,4.70030395 L8.52466059,4.70030395 Z M14.0557649,3.93920973 C14.024154,4.87051672 13.3392503,5.63485309 12.4436069,5.78723404 L12.4436069,7.74468085 C14.4156434,7.57933131 15.9662006,5.94528875 16.0002432,3.93920973 L14.0557649,3.93920973 Z M3.55931104,5.78804458 C2.66204661,5.63647416 1.97552178,4.87213779 1.94391084,3.93920973 L-0.000567375886,3.93920973 C0.0334751773,5.94690983 1.5856535,7.58095238 3.55931104,7.74468085 L3.55931104,5.78804458 Z M11.8543465,5.79777102 C11.4612361,5.74508612 11.1062209,5.57568389 10.824154,5.32360689 L10.6652888,5.16474164 L10.0282067,4.52847011 L8.65677812,5.90070922 L9.22091185,6.46970618 C9.87906788,7.20162107 10.8103749,7.67740628 11.8543465,7.74711246 L11.8543465,5.79777102 Z M4.14857143,1.94934144 C4.53195542,2.00202634 4.88048632,2.16575481 5.15850051,2.40729483 C5.22739615,2.46727457 5.29142857,2.53130699 5.35059777,2.5993921 L5.96579534,3.21458967 L7.34046606,1.84072948 L6.78119554,1.28064843 C6.12466059,0.547922999 5.19254306,0.0705167173 4.14857143,0 L4.14857143,1.94934144 Z M2.01442756,3.34994934 C2.21463019,2.63343465 2.81442756,2.08470111 3.55931104,1.95906788 L3.55931104,0.00243161094 C1.73884498,0.153191489 0.277446809,1.55704154 0.0359067882,3.34994934 L2.01442756,3.34994934 Z M12.4436069,1.95987842 C13.1876798,2.08632219 13.7858561,2.63424519 13.9852482,3.34994934 L15.963769,3.34994934 C15.722229,1.55785208 14.2624519,0.154812563 12.4436069,0.00243161094 L12.4436069,1.95987842 Z M7.57876393,2.92117528 L9.21848024,1.28064843 C9.87582573,0.547112462 10.8087538,0.0697061803 11.8543465,0 L11.8543465,1.9485309 C11.470152,2.00121581 11.12,2.16494428 10.8411753,2.40729483 C10.8087538,2.43566363 9.89933131,3.34508612 8.94857143,4.29503546 C8.94613982,4.29179331 8.94532928,4.28693009 8.9412766,4.28368794 L7.57876393,2.92117528 Z" id="Fill-1" fill="#57689C" mask="url(#mask-3)"></path>
            </g>
        </g>
    </g>
</svg>