<?xml version="1.0" encoding="UTF-8"?>
<svg width="20px" height="20px" viewBox="0 0 20 20" version="1.1" xmlns="http://www.w3.org/2000/svg" xmlns:xlink="http://www.w3.org/1999/xlink">
    <title>continuous-deployment-second-menu</title>
    <g id="continuous-deployment-second-menu" stroke="none" stroke-width="1" fill="none" fill-rule="evenodd">
        <rect id="矩形" fill="#000000" opacity="0" x="0" y="0" width="20" height="20"></rect>
        <g id="编组-10备份" transform="translate(3.001148, 3.000000)" fill="#57689C">
            <path d="M4.00427344,9.62671586 L4.00485921,10.4630917 L4.48727344,10.7547159 L3.74836962,11.2720751 C3.694081,11.3100884 3.635685,11.3378603 3.57547559,11.3557953 L3.53095827,10.6918434 L2.92227344,10.4229259 C2.95971963,10.3724817 3.00578927,10.327106 3.0600779,10.2890927 L4.00427344,9.62671586 Z M9.56227344,9.22571586 L11.0855158,10.2921844 C11.1209542,10.3169987 11.1528904,10.3449502 11.1812117,10.3754009 L10.4667459,10.6918434 L10.4253543,11.2937287 C10.4158656,11.2878381 10.4064851,11.2816515 10.3972241,11.2751669 L9.38727344,10.5687159 L9.56307187,10.4630917 L9.56227344,9.22571586 Z M7.38396554,3.99038958 L7.38327344,5.79071586 L6.78396554,5.42876782 L6.18327344,5.79071586 L6.18396554,3.99038958 C6.18396554,3.92447559 6.19459422,3.86104407 6.21423121,3.8017154 L6.78396554,4.14510385 L7.35337714,3.80074317 C7.37322037,3.8603509 7.38396554,3.92411541 7.38396554,3.99038958 Z" id="形状结合" fill-rule="nonzero"></path>
            <path d="M6.78396554,0 L8.50013707,1.03627596 L8.50013707,3.10882788 L6.78396554,4.14510385 L5.06779401,3.10882788 L5.06779401,1.03627596 L6.78396554,0 Z M0.135487978,13.0693773 L0,11.0691884 L1.69773514,9.88042149 L3.53095827,10.6918434 L3.66644625,12.6920323 L1.9687111,13.8807993 L0.135487978,13.0693773 Z M13.8622162,13.0693773 L13.9977042,11.0691884 L12.299969,9.88042149 L10.4667459,10.6918434 L10.3312579,12.6920323 L12.0289931,13.8807993 L13.8622162,13.0693773 Z M6.78396554,5.42876782 L9.56307187,7.10687576 L9.56307187,10.4630917 L6.78396554,12.1411996 L4.00485921,10.4630917 L4.00485921,7.10687576 L6.78396554,5.42876782 Z" id="形状" opacity="0.55"></path>
        </g>
    </g>
</svg>