<?xml version="1.0" encoding="UTF-8"?>
<svg width="20px" height="20px" viewBox="0 0 20 20" version="1.1" xmlns="http://www.w3.org/2000/svg" xmlns:xlink="http://www.w3.org/1999/xlink">
    <title>continuous-integration-second-menu</title>
    <defs>
        <filter x="-67.5%" y="-67.5%" width="235.0%" height="235.0%" filterUnits="objectBoundingBox" id="filter-1">
            <feOffset dx="0" dy="2" in="SourceAlpha" result="shadowOffsetOuter1"></feOffset>
            <feGaussianBlur stdDeviation="2.5" in="shadowOffsetOuter1" result="shadowBlurOuter1"></feGaussianBlur>
            <feColorMatrix values="0 0 0 0 0   0 0 0 0 0   0 0 0 0 0  0 0 0 0.04 0" type="matrix" in="shadowBlurOuter1" result="shadowMatrixOuter1"></feColorMatrix>
            <feMerge>
                <feMergeNode in="shadowMatrixOuter1"></feMergeNode>
                <feMergeNode in="SourceGraphic"></feMergeNode>
            </feMerge>
        </filter>
    </defs>
    <g id="continuous-integration-second-menu" stroke="none" stroke-width="1" fill="none" fill-rule="evenodd">
        <g filter="url(#filter-1)">
            <g>
                <rect id="矩形" x="0" y="0" width="20" height="20"></rect>
                <path d="M10.5902432,11.2878419 L9.05650456,9.7550152 L8.09358663,10.718845 L8.066231,10.7452888 L7.00118541,11.8103343 L6.82246201,11.9890578 C6.50604863,12.2717325 6.10756839,12.4613982 5.66714286,12.5224924 L5.66714286,14.7155015 C6.83978723,14.6361702 7.88659574,14.1009119 8.62610942,13.2784195 C8.62610942,13.2784195 9.57261398,12.3291793 10.603921,11.2969605 C10.6002736,11.2933131 10.5938906,11.2914894 10.5902432,11.2878419 L10.5902432,11.2878419 Z M16.8127356,10.4316109 C16.7771733,11.4793313 16.0066565,12.3392097 14.9990578,12.5106383 L14.9990578,14.712766 C17.2175988,14.5267477 18.9619757,12.6884498 19.0002736,10.4316109 L16.8127356,10.4316109 Z M5.00422492,12.5115502 C3.99480243,12.3410334 3.22246201,11.481155 3.1868997,10.4316109 L0.999361702,10.4316109 C1.03765957,12.6902736 2.78386018,14.5285714 5.00422492,14.712766 L5.00422492,12.5115502 Z M3.266231,9.76869301 C3.49145897,8.96261398 4.166231,8.34528875 5.00422492,8.20395137 L5.00422492,6.00273556 C2.95620061,6.17234043 1.31212766,7.75167173 1.04039514,9.76869301 L3.266231,9.76869301 Z M14.9990578,8.20486322 C15.8361398,8.34711246 16.5090881,8.96352584 16.7334043,9.76869301 L18.9592401,9.76869301 C18.6875076,7.75258359 17.0452584,6.17416413 14.9990578,6.00273556 L14.9990578,8.20486322 Z M9.52610942,9.28632219 L11.3707903,7.44072948 C12.110304,6.61550152 13.159848,6.07841945 14.3361398,6 L14.3361398,8.19209726 C13.903921,8.25136778 13.51,8.43556231 13.1963222,8.70820669 C13.159848,8.74012158 12.1367477,9.76322188 11.0671429,10.8319149 C11.0644073,10.8282675 11.0634954,10.8227964 11.0589362,10.8191489 L9.52610942,9.28632219 Z" fill="#57689C"></path>
                <path d="M14.3361398,12.5224924 C13.8938906,12.4632219 13.4944985,12.2726444 13.1771733,11.9890578 L12.9984498,11.8103343 L12.2817325,11.0945289 L10.7388754,12.6382979 L11.3735258,13.2784195 C12.1139514,14.1018237 13.1616717,14.6370821 14.3361398,14.7155015 L14.3361398,12.5224924 Z" id="路径" fill="#57689C" opacity="0.55"></path>
                <path d="M5.66714286,8.19300912 C6.09844985,8.25227964 6.49054711,8.43647416 6.80331307,8.70820669 C6.88082067,8.77568389 6.95285714,8.84772036 7.01942249,8.92431611 L7.71151976,9.61641337 L9.25802432,8.07082067 L8.62884498,7.44072948 C7.89024316,6.61641337 6.84161094,6.07933131 5.66714286,6 L5.66714286,8.19300912 Z" id="路径" fill="#57689C" opacity="0.55"></path>
            </g>
        </g>
    </g>
</svg>