<?xml version="1.0" encoding="UTF-8"?>
<svg width="20px" height="20px" viewBox="0 0 20 20" version="1.1" xmlns="http://www.w3.org/2000/svg" xmlns:xlink="http://www.w3.org/1999/xlink">
    <title>project list-second menu-normal备份 5</title>
    <g id="project-list-second-menu-normal备份-5" stroke="none" stroke-width="1" fill="none" fill-rule="evenodd">
        <g id="project-list" fill="#000000" opacity="0">
            <rect id="矩形" x="0" y="0" width="20" height="20"></rect>
        </g>
        <g id="编组-7" transform="translate(2.100000, 4.500000)" fill="#57689C">
            <path d="M12.7207207,2.82539683 C13.2252252,3.22943723 13.5855856,3.81713236 13.7297297,4.47828939 C13.7657658,4.58848222 13.7657658,4.69867506 13.7657658,4.8088679 C13.8738739,4.73540601 13.981982,4.73540601 14.0900901,4.69867506 C14.7387387,4.58848222 15.3873874,4.69867506 16,5.10271547 C15.5675676,5.61694871 15.027027,5.98425817 14.3783784,6.13118195 C14.0900901,6.20464384 13.7657658,6.24137479 13.4774775,6.24137479 C13.4414414,7.38003411 12.3963964,8.92273383 10.7387387,10.0981241 C10.0540541,10.5756264 9.33333333,10.9429359 8.57657658,11.2367834 C7.74774775,11.5673619 6.84684685,11.7142857 5.94594595,11.7142857 C2.66666667,11.7142857 0,9.6206218 0,7.04945559 C0,6.86580087 0,6.64541519 0.036036036,6.46176046 L3.92792793,6.46176046 C4.57657658,6.46176046 5.26126126,6.49849141 5.90990991,6.49849141 C7.0990991,6.49849141 8.25225225,6.49849141 9.44144144,6.42502952 C10.4504505,6.35156762 11.5675676,6.27810573 12.4684685,5.80060344 C12.5045045,5.76387249 12.7207207,5.65367965 12.7207207,5.61694871 C12.7207207,5.58021776 12.6126126,5.50675587 12.6126126,5.47002492 C12.5045045,5.2863702 12.3963964,5.06598452 12.3603604,4.84559885 C12.2882883,4.14771087 12.3963964,3.4498229 12.7207207,2.82539683 Z M4.68468468,8.15138397 C4.30654377,8.15138397 4,8.46383906 4,8.84927194 C4,9.23470482 4.30654377,9.54715991 4.68468468,9.54715991 C5.06282559,9.54715991 5.36936937,9.23470482 5.36936937,8.84927194 C5.36936937,8.46383906 5.06282559,8.15138397 4.68468468,8.15138397 Z M4.68468468,8.51869343 C4.86380406,8.51869343 5.00900901,8.66669847 5.00900901,8.84927194 C5.00900901,9.03184541 4.86380406,9.17985045 4.68468468,9.17985045 C4.50556531,9.17985045 4.36036036,9.03184541 4.36036036,8.84927194 C4.36036036,8.66669847 4.50556531,8.51869343 4.68468468,8.51869343 Z" id="形状结合"></path>
            <rect id="矩形" opacity="0.552662" x="1.41269841" y="4.23809524" width="1.64814815" height="1.64814815"></rect>
            <rect id="矩形" opacity="0.552662" x="3.53174603" y="4.23809524" width="1.64814815" height="1.64814815"></rect>
            <rect id="矩形" opacity="0.552662" x="5.65079365" y="4.23809524" width="1.64814815" height="1.64814815"></rect>
            <rect id="矩形" opacity="0.552662" x="7.76984127" y="4.23809524" width="1.64814815" height="1.64814815"></rect>
            <rect id="矩形" opacity="0.552662" x="3.53174603" y="2.11904762" width="1.64814815" height="1.64814815"></rect>
            <rect id="矩形" opacity="0.552662" x="5.65079365" y="2.11904762" width="1.64814815" height="1.64814815"></rect>
            <rect id="矩形" opacity="0.552662" x="7.76984127" y="2.11904762" width="1.64814815" height="1.64814815"></rect>
            <rect id="矩形" opacity="0.552662" x="7.76984127" y="0" width="1.64814815" height="1.64814815"></rect>
            <rect id="矩形" opacity="0.552662" x="9.88888889" y="4.23809524" width="1.64814815" height="1.64814815"></rect>
        </g>
    </g>
</svg>