<?xml version="1.0" encoding="UTF-8"?>
<svg width="20px" height="20px" viewBox="0 0 20 20" version="1.1" xmlns="http://www.w3.org/2000/svg" xmlns:xlink="http://www.w3.org/1999/xlink">
    <title>container-second menu-pressed</title>
    <g id="container-second-menu-pressed" stroke="none" stroke-width="1" fill="none" fill-rule="evenodd">
        <g id="容器" transform="translate(2.000000, 2.189447)" fill="#FFFFFF">
            <path d="M1.42244571,5.58459688 L6.92244571,8.1480143 C7.27475888,8.31221898 7.5,8.66570245 7.5,9.05440253 L7.5,14.2411966 C7.5,14.7934814 7.05228475,15.2411966 6.5,15.2411966 C6.35404047,15.2411966 6.20985029,15.2092448 6.07755429,15.1475848 L0.577554294,12.5841674 C0.225241115,12.4199627 -2.85464876e-16,12.0664793 0,11.6777792 L0,6.49098511 C-6.76353751e-17,5.93870036 0.44771525,5.49098511 1,5.49098511 C1.14595953,5.49098511 1.29014971,5.5229369 1.42244571,5.58459688 Z" id="矩形" opacity="0.550000012"></path>
            <path d="M9.92244571,5.58459688 L15.4224457,8.1480143 C15.7747589,8.31221898 16,8.66570245 16,9.05440253 L16,14.2411966 C16,14.7934814 15.5522847,15.2411966 15,15.2411966 C14.8540405,15.2411966 14.7098503,15.2092448 14.5775543,15.1475848 L9.07755429,12.5841674 C8.72524112,12.4199627 8.5,12.0664793 8.5,11.6777792 L8.5,6.49098511 C8.5,5.93870036 8.94771525,5.49098511 9.5,5.49098511 C9.64595953,5.49098511 9.79014971,5.5229369 9.92244571,5.58459688 Z" id="矩形备份-2" opacity="0.550000012" transform="translate(12.250000, 10.366091) scale(-1, 1) translate(-12.250000, -10.366091) "></path>
            <path d="M8.48399261,7.21122407 L14.0611938,4.53830486 C14.5592353,4.29961441 14.7694808,3.70237518 14.5307904,3.2043337 C14.4288928,2.99171855 14.2551483,2.8219446 14.0402348,2.7249886 L8.41122828,0.185521329 C8.14976413,0.0675645166 7.85023587,0.0675645166 7.58877172,0.185521329 L1.9734538,2.71881314 C1.47002836,2.94592825 1.24603458,3.53814838 1.47314969,4.04157382 C1.5708567,4.25815209 1.74248618,4.43286484 1.9572906,4.5344122 L7.62441385,7.21350686 C7.89666765,7.34221302 8.21242627,7.34137446 8.48399261,7.21122407 Z" id="路径-2"></path>
        </g>
        <rect id="矩形" fill="#D8D8D8" opacity="0" x="0" y="0" width="20" height="20"></rect>
    </g>
</svg>