<?xml version="1.0" encoding="UTF-8"?>
<svg width="20px" height="20px" viewBox="0 0 20 20" version="1.1" xmlns="http://www.w3.org/2000/svg" xmlns:xlink="http://www.w3.org/1999/xlink">
    <title>current-alert-second-menu</title>
    <g id="current-alert-second-menu" stroke="none" stroke-width="1" fill="none" fill-rule="evenodd">
        <g id="event">
            <g id="紧急告警">
                <g id="编组-2">
                    <rect id="矩形" x="0" y="0" width="20" height="20"></rect>
                    <path d="M10,5.4 C12.7614237,5.4 15,7.63857625 15,10.4 L15,16.4 L16.8,16.4 C17.4213203,16.4 17.9323525,16.8721997 17.9938045,17.477307 L18,17.6 L2,17.6 C2,16.9372583 2.5372583,16.4 3.2,16.4 L5,16.4 L5,10.4 C5,7.63857625 7.23857625,5.4 10,5.4 Z M10.3966698,13.5427247 L9.68697202,13.5427247 C9.59146991,13.5433949 9.51421521,13.6206496 9.513545,13.7161517 L9.513545,14.4258496 C9.51421521,14.5213517 9.59146991,14.5986064 9.68697202,14.5992766 L10.3966698,14.5992766 C10.4414281,14.6052927 10.4865596,14.5912454 10.5199974,14.5608906 C10.5534351,14.5305358 10.5717689,14.4869691 10.5700968,14.4418393 L10.5700968,13.7161517 C10.5690982,13.6207874 10.4920342,13.5437234 10.3966698,13.5427247 Z M10.5700967,9.60064248 L9.49755512,9.60064248 C9.39923368,9.60897144 9.32377595,9.69138626 9.3241281,9.79005922 L9.4815654,12.8336419 C9.48256406,12.9290063 9.55962804,13.0060703 9.65499242,13.0070689 L10.3960547,13.0070689 C10.4914191,13.0060703 10.568483,12.9290063 10.5694817,12.8336419 L10.7429087,9.79005922 C10.7463709,9.74175843 10.7295393,9.69436296 10.6968656,9.65867678 C10.6641919,9.62299061 10.6184607,9.60205507 10.5700967,9.60064248 Z" id="形状结合" fill="#57689C" fill-rule="nonzero"></path>
                    <g id="编组-3" transform="translate(2.833975, 2.300000)" fill="#57689C" fill-rule="nonzero" opacity="0.55">
                        <path d="M7.7660254,0 L7.7660254,2 L6.5660254,2 L6.5660254,0 L7.7660254,0 Z M10.7660254,0.6 L11.8052559,1.2 L10.8052559,2.93205081 L9.7660254,2.33205081 L10.7660254,0.6 Z M13.7320508,3.08038476 L14.3320508,4.11961524 L12.6,5.11961524 L12,4.08038476 L13.7320508,3.08038476 Z M3.60525589,0.6 L2.5660254,1.2 L3.5660254,2.93205081 L4.60525589,2.33205081 L3.60525589,0.6 Z M0.6,3.08038476 L0,4.11961524 L1.73205081,5.11961524 L2.33205081,4.08038476 L0.6,3.08038476 Z" id="形状"></path>
                    </g>
                </g>
                <g id="编组-2" transform="translate(9.049757, 9.600642)"></g>
            </g>
            <g id="编组" transform="translate(3.133975, 2.400000)"></g>
        </g>
    </g>
</svg>