<?xml version="1.0" encoding="UTF-8"?>
<svg width="20px" height="20px" viewBox="0 0 20 20" version="1.1" xmlns="http://www.w3.org/2000/svg" xmlns:xlink="http://www.w3.org/1999/xlink">
    <title>custom-monitor-second-menu</title>
    <g id="custom-monitor-second-menu" stroke="none" stroke-width="1" fill="none" fill-rule="evenodd">
        <g id="third-party-events">
            <rect id="矩形" x="0" y="0" width="20" height="20"></rect>
            <g id="编组-41" transform="translate(2.000000, 2.000000)" fill="#57689C" fill-rule="nonzero">
                <g id="编组-42">
                    <polygon id="路径-49备份" points="5.43333334 7.39907696 7.60610083 3.008401 10.1793333 9.31607696 10.7588065 7.4 14.0666667 7.4 14.0666667 8.6 11.6493333 8.59907696 10.3480742 12.9068188 7.50033334 5.92807696 6.17940743 8.6 1.93333334 8.6 1.93333334 7.4"></polygon>
                    <path d="M16,1 L16,6.375 L16,6.375 L10.0484746,6.375 L7.59669301,0.791281502 L4.89983899,6.375 L1.8189894e-12,6.375 L1.8189894e-12,1 C1.81892177e-12,0.44771525 0.44771525,-3.42636147e-16 1,0 L15,0 C15.5522847,-2.12475365e-16 16,0.44771525 16,1 Z" id="形状结合备份" opacity="0.55"></path>
                    <path d="M16,10.62 L16,15.995 L16,15.995 L8.37684088,15.995 L5.62316361,10.4670735 L3.33635924,15.995 L-4.47641924e-13,15.995 L-4.47641924e-13,10.62 C-4.47709559e-13,10.0677153 0.44771525,9.62 1,9.62 L15,9.62 C15.5522847,9.62 16,10.0677153 16,10.62 Z" id="形状结合备份" opacity="0.55" transform="translate(8.000000, 12.807500) rotate(-180.000000) translate(-8.000000, -12.807500) "></path>
                </g>
            </g>
        </g>
        <g id="链路" transform="translate(-14.000000, 1.000000)"></g>
    </g>
</svg>