<?xml version="1.0" encoding="UTF-8"?>
<svg width="20px" height="20px" viewBox="0 0 20 20" version="1.1" xmlns="http://www.w3.org/2000/svg" xmlns:xlink="http://www.w3.org/1999/xlink">
    <title>customization-second-menu</title>
    <g id="customization-second-menu" stroke="none" stroke-width="1" fill="none" fill-rule="evenodd">
        <g id="定制-(1)">
            <rect id="矩形" x="0" y="0" width="20" height="20"></rect>
            <path d="M4.90652443,11.6949425 L8.21409714,15.0025152 L7.73034609,15.4862662 L3.03359472,16.8051444 L4.41866038,12.1869511 L4.90652443,11.6949425 Z M11.9185735,4.67874874 L15.2261462,7.98632146 L8.76811708,14.4733314 L5.46054436,11.165727 L11.9185735,4.67874874 Z M13.4152594,3.19032045 C14.17186,2.42960688 14.6266619,2.42960688 15.3874071,3.19032045 L16.7186875,4.52166411 C17.4794327,5.2906353 17.4794327,5.74132423 16.7186875,6.50618243 L15.7801662,7.44470377 L12.4725935,4.13713106 Z" id="形状结合" fill="#57689C" fill-rule="nonzero"></path>
            <path d="M5.03051529,5.60075484 L5.58456687,6.15474314 L4.48067163,7.25452538 L5.03051529,7.80440069 L6.68434911,6.15063015 L7.23422442,6.70050545 L5.58042224,8.35430763 L5.74994076,8.51968152 L5.20006545,9.09850595 L2.5498753,6.4483158 L3.1038636,5.8984405 L3.93076469,6.72530995 L3.93076469,6.70465008 L5.03051529,5.60075484 Z M8.06109387,2.57017627 L9.88438293,4.39349697 L9.33036299,4.96403214 L7.67656081,3.3102616 L7.67247946,3.28542546 C6.91173426,2.5247119 6.45693233,2.5247119 5.69618712,3.28542546 L2.5498753,6.42762429 L2,5.87774899 L5.30750944,2.57017627 C6.06795138,1.80994124 7.30065192,1.80994124 8.06109387,2.57017627 Z M15.5279449,10.0411719 L17.4298237,11.9430191 C18.1900377,12.7034574 18.1900377,13.9361336 17.4298237,14.6965719 L14.6721263,17.4501247 L14.122251,18 L13.5723757,17.4501247 L10.8435958,14.7213764 L11.3934711,14.1715011 L14.122251,16.9002494 L16.7145745,14.3079259 C17.4794327,13.5472123 17.4794327,13.0923787 16.7145745,12.3316652 L14.9780696,10.5910472 L15.5279449,10.0411719 Z M14.122251,14.142552 L14.6721263,14.6924273 L13.2953499,16.0692353 L12.7454746,15.51936 L14.122251,14.142552 Z M13.2953499,12.7657756 L13.8493699,13.3156509 L12.1955993,14.9694531 L11.6415794,14.4195778 L13.2953499,12.7657756 Z" id="形状结合" fill="#57689C" fill-rule="nonzero" opacity="0.55"></path>
        </g>
    </g>
</svg>