<?xml version="1.0" encoding="UTF-8"?>
<svg width="20px" height="20px" viewBox="0 0 20 20" version="1.1" xmlns="http://www.w3.org/2000/svg" xmlns:xlink="http://www.w3.org/1999/xlink">
    <title>dashboard-list-second-menu</title>
    <g id="dashboard-list-second-menu" stroke="none" stroke-width="1" fill="none" fill-rule="evenodd">
        <g id="Dashboard-list">
            <rect id="矩形" x="0" y="0" width="20" height="20"></rect>
            <path d="M2.5,2.9 C2.83137085,2.9 3.1,3.16862915 3.1,3.5 L3.1,15.5 C3.1,15.7209139 3.2790861,15.9 3.5,15.9 L17.3711866,15.9 C17.7025575,15.9 17.9711866,16.1686292 17.9711866,16.5 C17.9711866,16.8313708 17.7025575,17.1 17.3711866,17.1 L3.5,17.1 C2.6163444,17.1 1.9,16.3836556 1.9,15.5 L1.9,3.5 C1.9,3.16862915 2.16862915,2.9 2.5,2.9 Z" id="路径-4" fill="#57689C" fill-rule="nonzero" opacity="0.55"></path>
            <polygon id="路径-20" fill="#57689C" transform="translate(10.500000, 10.750000) scale(-1, 1) translate(-10.500000, -10.750000) " points="4 11 4 15 17 15 17 8.5 13 6.5 10 10 6.5 9"></polygon>
        </g>
    </g>
</svg>