<?xml version="1.0" encoding="UTF-8"?>
<svg width="20px" height="20px" viewBox="0 0 20 20" version="1.1" xmlns="http://www.w3.org/2000/svg" xmlns:xlink="http://www.w3.org/1999/xlink">
    <title>Dashboard-second menu-pressed</title>
    <g id="Dashboard-second-menu-pressed" stroke="none" stroke-width="1" fill="none" fill-rule="evenodd">
        <g id="Dashboard">
            <rect id="矩形" x="0" y="0" width="20" height="20"></rect>
            <path d="M10,3.5 C14.418278,3.5 18,7.081722 18,11.5 C18,13.3921736 17.3430872,15.130917 16.2448832,16.5006084 L3.75511684,16.5006084 C2.65691284,15.130917 2,13.3921736 2,11.5 C2,7.081722 5.581722,3.5 10,3.5 Z" id="形状结合" fill="#FFFFFF" opacity="0.55"></path>
            <path d="M13.1266527,8.44515689 C13.3371951,8.65569921 13.3666664,8.98682884 13.1966164,9.23124478 L11.17799,12.1326539 C10.7822,12.7015302 10.0001834,12.8418444 9.43130709,12.4460544 C9.37031021,12.4036164 9.31320349,12.3558442 9.26066017,12.3033009 C8.77160353,11.8142442 8.77160353,11.0213267 9.26066017,10.5322701 C9.31368062,10.4792496 9.37135583,10.4310982 9.43299076,10.3883961 L12.3399874,8.37436146 C12.5848515,8.20471396 12.9160124,8.23451657 13.1266527,8.44515689 Z M17,10.9 L17,12.1 L14.9497475,12.1 L14.9497475,10.9 L17,10.9 Z M14.5254834,6.12598846 L15.3740115,6.9745166 L13.9242641,8.42426407 L13.0757359,7.57573593 L14.5254834,6.12598846 Z M10.6,4.5 L10.6,6.55025253 L9.4,6.55025253 L9.4,4.5 L10.6,4.5 Z M3,10.9 L5.05025253,10.9 L5.05025253,12.1 L3,12.1 L3,10.9 Z M5.4745166,6.12598846 L6.92426407,7.57573593 L6.07573593,8.42426407 L4.62598846,6.9745166 L5.4745166,6.12598846 Z" id="形状结合" fill="#FFFFFF"></path>
        </g>
    </g>
</svg>