<?xml version="1.0" encoding="UTF-8"?>
<svg width="20px" height="20px" viewBox="0 0 20 20" version="1.1" xmlns="http://www.w3.org/2000/svg" xmlns:xlink="http://www.w3.org/1999/xlink">
    <title>dashboard-second-menu</title>
    <g id="dashboard-second-menu" stroke="none" stroke-width="1" fill="none" fill-rule="evenodd">
        <g id="Dashboard">
            <rect id="矩形" x="0" y="0" width="20" height="20"></rect>
            <path d="M10,3.5 C14.418278,3.5 18,7.081722 18,11.5 C18,13.3921736 17.3430872,15.130917 16.2448832,16.5006084 L3.75511684,16.5006084 C2.65691284,15.130917 2,13.3921736 2,11.5 C2,7.081722 5.581722,3.5 10,3.5 Z M17,10.9 L14.9497475,10.9 L14.9497475,12.1 L17,12.1 L17,10.9 Z M5.05025253,10.9 L3,10.9 L3,12.1 L5.05025253,12.1 L5.05025253,10.9 Z M14.5254834,6.12598846 L13.0757359,7.57573593 L13.9242641,8.42426407 L15.3740115,6.9745166 L14.5254834,6.12598846 Z M5.4745166,6.12598846 L4.62598846,6.9745166 L6.07573593,8.42426407 L6.92426407,7.57573593 L5.4745166,6.12598846 Z M10.6,4.5 L9.4,4.5 L9.4,6.55025253 L10.6,6.55025253 L10.6,4.5 Z" id="形状" fill="#57689C" fill-rule="nonzero" opacity="0.55"></path>
            <path d="M11.1972441,7.64137206 C11.4949959,7.64137206 11.7499793,7.85467669 11.802564,8.14774833 L12.4267856,11.6267389 C12.5491761,12.308861 12.095424,12.9610473 11.4133019,13.0834378 C11.3401624,13.0965609 11.2660018,13.1031614 11.1916943,13.1031614 C10.5000638,13.1031614 9.93938643,12.5424841 9.93938643,11.8508535 C9.93938643,11.7758713 9.94612078,11.7010406 9.9595083,11.6272631 L10.5909278,8.14756853 C10.6441139,7.85446459 10.8993537,7.64137206 11.1972441,7.64137206 Z" id="矩形" fill="#57689C" transform="translate(11.191694, 10.372267) rotate(-315.000000) translate(-11.191694, -10.372267) "></path>
        </g>
    </g>
</svg>