<?xml version="1.0" encoding="UTF-8"?>
<svg width="20px" height="20px" viewBox="0 0 20 20" version="1.1" xmlns="http://www.w3.org/2000/svg" xmlns:xlink="http://www.w3.org/1999/xlink">
    <title>database-second-menu</title>
    <g id="database-second-menu" stroke="none" stroke-width="1" fill="none" fill-rule="evenodd">
        <g id="Database-second-menu-default">
            <rect id="矩形" fill-opacity="0" fill="#D8D8D8" x="0" y="0" width="20" height="20"></rect>
            <g id="图形" transform="translate(3.000000, 2.000000)">
                <rect id="矩形备份-11" opacity="0.446149554" x="0" y="0" width="14" height="16"></rect>
                <path d="M13,11.5 C13.5522847,11.5 14,11.9477153 14,12.5 L14,15 C14,15.5522847 13.5522847,16 13,16 L1,16 C0.44771525,16 0,15.5522847 0,15 L0,12.5 C0,11.9477153 0.44771525,11.5 1,11.5 L13,11.5 Z M2.75155925,13 C2.33508834,13 2,13.3350883 2,13.7484407 C2,14.1617932 2.33508834,14.4968815 2.74844075,14.4968815 C3.16491166,14.4968815 3.5,14.1617932 3.5,13.7484407 C3.5,13.3350883 3.16491166,13 2.75155925,13 Z" id="形状结合" fill="#57689C" opacity="0.550000012"></path>
                <path d="M13,5.75 C13.5522847,5.75 14,6.19771525 14,6.75 L14,9.25 C14,9.80228475 13.5522847,10.25 13,10.25 L1,10.25 C0.44771525,10.25 0,9.80228475 0,9.25 L0,6.75 C0,6.19771525 0.44771525,5.75 1,5.75 L13,5.75 Z M2.75155925,7.25 C2.33508834,7.25 2,7.58508834 2,7.99844075 C2,8.41179316 2.33508834,8.7468815 2.74844075,8.7468815 C3.16491166,8.7468815 3.5,8.41179316 3.5,7.99844075 C3.5,7.58508834 3.16491166,7.25 2.75155925,7.25 Z" id="形状结合备份" fill="#57689C"></path>
                <path d="M13,0 C13.5522847,0 14,0.44771525 14,1 L14,3.5 C14,4.05228475 13.5522847,4.5 13,4.5 L1,4.5 C0.44771525,4.5 0,4.05228475 0,3.5 L0,1 C0,0.44771525 0.44771525,0 1,0 L13,0 Z M2.75155925,1.5 C2.33508834,1.5 2,1.83508834 2,2.24844075 C2,2.66179316 2.33508834,2.9968815 2.74844075,2.9968815 C3.16491166,2.9968815 3.5,2.66179316 3.5,2.24844075 C3.5,1.83508834 3.16491166,1.5 2.75155925,1.5 Z" id="形状结合备份-2" fill="#57689C" opacity="0.550000012"></path>
            </g>
        </g>
    </g>
</svg>