<?xml version="1.0" encoding="UTF-8"?>
<svg width="20px" height="20px" viewBox="0 0 20 20" version="1.1" xmlns="http://www.w3.org/2000/svg" xmlns:xlink="http://www.w3.org/1999/xlink">
    <title>data-source-management-second-menu</title>
    <g id="data-source-management-second-menu" stroke="none" stroke-width="1" fill="none" fill-rule="evenodd">
        <g id="Data-source-management">
            <rect id="矩形" x="0" y="0" width="20" height="20"></rect>
            <path d="M16.3334167,8.83391667 L16.3334167,6.09225 C15.2525,7.01916667 12.78675,7.66666667 9.91675,7.66666667 C7.04675,7.66666667 4.581,7.01916667 3.50008333,6.09225 L3.50008333,8.83333333 L3.4995,8.83333333 C4.57925,9.8635 7.04616667,10.5833333 9.91675,10.5833333 C12.78675,10.5833333 15.2525,9.86408333 16.3334167,8.83391667 Z M3.50008333,12.91725 L3.50008333,14.82825 L3.58116667,14.9945 C4.112,16.083 6.77375,17 9.91675,17 C13.05975,17 15.7220833,16.083 16.2523333,14.9945 L16.3334167,14.82825 L16.3334167,12.9166667 C15.2525,13.9474167 12.78675,14.6666667 9.91675,14.6666667 C7.04675,14.6666667 4.581,13.9474167 3.50008333,12.91725 L3.50008333,12.91725 Z" id="形状结合" fill="#57689C" fill-rule="nonzero" opacity="0.55"></path>
            <path d="M3.50008333,11.75 C3.50008333,12.8991667 6.34266667,14.0833333 9.91675,14.0833333 C13.4908333,14.0833333 16.3334167,12.8991667 16.3334167,11.75 L16.3334167,9.587 C14.9800833,10.5693333 12.5884167,11.1666667 9.91675,11.1666667 C7.24508333,11.1666667 4.85341667,10.5693333 3.50008333,9.587 L3.50008333,11.75 Z M9.91675,7.08333333 C13.47975,7.08333333 16.3334167,6.01291667 16.3334167,5.04166667 C16.3334167,4.07041667 13.47975,3 9.91675,3 C6.35375,3 3.50008333,4.07041667 3.50008333,5.04166667 C3.50008333,6.01291667 6.35375,7.08333333 9.91675,7.08333333 Z" id="形状结合" fill="#57689C" fill-rule="nonzero"></path>
        </g>
    </g>
</svg>