<?xml version="1.0" encoding="UTF-8"?>
<svg width="20px" height="20px" viewBox="0 0 20 20" version="1.1" xmlns="http://www.w3.org/2000/svg" xmlns:xlink="http://www.w3.org/1999/xlink">
    <title>database-alteration-task-second-menu</title>
    <g id="database-alteration-task-second-menu" stroke="none" stroke-width="1" fill="none" fill-rule="evenodd">
        <rect id="矩形" fill="#000000" opacity="0" x="0" y="0" width="20" height="20"></rect>
        <g id="infrastructure" transform="translate(3.000000, 2.000000)" fill="#57689C">
            <path d="M7.14250286,0 C5.03772571,0 3.17458286,0.428457143 1.86933714,1.08108571 C0.512742857,1.75938286 0,2.53785143 0,3.14285714 C0,3.74786286 0.512742857,4.52633143 1.86933714,5.20462857 C3.17458286,5.85725714 5.03772571,6.28571429 7.14250286,6.28571429 C9.24728,6.28571429 11.1104,5.85725714 12.4156571,5.20462857 C13.7722286,4.52633143 14.2850286,3.74786286 14.2850286,3.14285714 C14.2850286,2.53785143 13.7722286,1.75938286 12.4156571,1.08108571 C11.1104,0.428457143 9.24728,0 7.14250286,0 Z" id="路径"></path>
            <path d="M0,11.0257143 C0.278034286,11.3577143 0.639085714,11.6488 1.10304,11.8808 C2.69305143,12.6757714 4.82964571,13.1428571 7.14285714,13.1428571 L7.41894921,13.1390233 C7.52212124,14.2348289 8.03972523,15.2100716 8.81337598,15.9063662 C8.2796284,15.9677553 7.72023854,16 7.14285714,16 C5.13088,16 3.33736,15.6084571 2.04121143,15.0020571 C0.698308571,14.3737143 0.0965714286,13.6244571 0.01168,13.0230857 L0,12.9403429 L0,11.0257143 Z M14.2857143,5.88284571 L14.2857143,8.28570286 L14.2805665,8.38809637 C14.2587548,8.62255057 14.1618187,8.87938775 13.9721549,9.14405793 C13.3071162,8.71549767 12.5158487,8.46740012 11.6666348,8.46740012 C9.76882698,8.46740012 8.16041742,9.70646159 7.60624753,11.4197432 L7.53459361,11.4236003 L7.14285714,11.4285714 C5.03808,11.4285714 3.17493714,11.0001143 1.86969143,10.3475429 C0.513097143,9.66917714 0.000354285714,8.89070857 0.000354285714,8.28570286 L0,5.88284571 C0.278034286,6.21485714 0.639085714,6.50595429 1.10304,6.73793143 C2.69305143,7.53293714 4.82964571,7.99994286 7.14285714,7.99998857 C9.45611429,7.99994286 11.5926857,7.53293714 13.1826286,6.73793143 C13.6466286,6.50595429 14.0076571,6.21485714 14.2857143,5.88284571 Z" id="形状" opacity="0.55"></path>
        </g>
        <path d="M14.6666348,10.4674001 C17.0230427,10.4674001 18.9332888,12.3776462 18.9332888,14.7340541 C18.9332888,17.090462 17.0230427,19.000708 14.6666348,19.000708 C12.3102269,19.000708 10.3999809,17.090462 10.3999809,14.7340541 C10.3999809,12.3776462 12.3102269,10.4674001 14.6666348,10.4674001 Z M17.524476,13.7310508 L16.8317879,13.0663831 L14.0417052,15.974061 L12.3979802,14.3377652 L11.7208849,15.0183105 L13.7115542,16.9988879 C13.9018912,17.18826 14.2105495,17.1846822 14.3964459,16.9909491 L17.524476,13.7310508 Z" id="形状" fill="#57689C"></path>
    </g>
</svg>