<?xml version="1.0" encoding="UTF-8"?>
<svg width="20px" height="20px" viewBox="0 0 20 20" version="1.1" xmlns="http://www.w3.org/2000/svg" xmlns:xlink="http://www.w3.org/1999/xlink">
    <title>db2-second-menu</title>
    <g id="db2-second-menu" stroke="none" stroke-width="1" fill="none" fill-rule="evenodd">
        <rect id="矩形" fill-opacity="0" fill="#D8D8D8" x="0" y="0" width="20" height="20"></rect>
        <g id="DB2" transform="translate(0.480000, 2.000000)">
            <rect id="矩形" fill-opacity="0" fill="#D8D8D8" x="1.52" y="0" width="16" height="16"></rect>
            <path d="M0,11.9904535 L0,4.13365155 L2.56165473,4.13365155 C5.19331742,4.13365155 6.5043755,5.41288783 6.5043755,7.9681782 C6.5043755,9.1805887 6.13842482,10.1607001 5.39697693,10.8926014 C4.65552904,11.6245028 3.70723946,11.9968178 2.54574383,11.9968178 L0,11.9968178 L0,11.9904535 L0,11.9904535 Z M1.58154336,5.49880668 L1.58154336,10.618934 L2.44391408,10.618934 C3.19490851,10.618934 3.78042959,10.3802705 4.21002387,9.90930788 C4.63961814,9.43198091 4.85282418,8.79554495 4.85282418,7.98727128 C4.85282418,7.20763723 4.62688942,6.59665871 4.18456643,6.1575179 C3.73587908,5.71837709 3.15990453,5.50198886 2.44391408,5.50198886 L1.58154336,5.50198886 L1.58154336,5.49880668 Z M7.75497216,11.9904535 L7.75497216,4.13365155 L10.3866348,4.13365155 C11.1917263,4.13365155 11.8154336,4.29594272 12.2545744,4.62052506 C12.6937152,4.9451074 12.9069212,5.39379475 12.9069212,5.96976929 C12.9069212,6.39618138 12.7700875,6.7716786 12.4996022,7.08989658 C12.2291169,7.40811456 11.8886237,7.63086714 11.4749403,7.75497216 L11.4749403,7.77724741 C11.9904535,7.84725537 12.407319,8.0477327 12.725537,8.38822593 C13.0405728,8.72871917 13.1996818,9.15194909 13.1996818,9.66109785 C13.1996818,10.3770883 12.9610183,10.9435163 12.4805091,11.3667462 C12,11.7899761 11.3476531,12 10.5202864,12 L7.75497216,12 L7.75497216,11.9904535 Z M9.33333333,5.38424821 L9.33333333,7.32856006 L10.0843278,7.32856006 C10.4470963,7.32856006 10.7271281,7.23627685 10.9371519,7.05171042 C11.1471758,6.86714399 11.2490056,6.61256961 11.2490056,6.28162291 C11.2490056,5.68019093 10.8353222,5.37788385 10.0047733,5.37788385 L9.33333333,5.38424821 L9.33333333,5.38424821 Z M9.33333333,8.5823389 L9.33333333,10.7366746 L10.2720764,10.7366746 C10.6698488,10.7366746 10.9817025,10.638027 11.2044551,10.4439141 C11.4272076,10.2498011 11.5417661,9.97613365 11.5417661,9.62927605 C11.5417661,9.29832936 11.4303898,9.04057279 11.2044551,8.85600636 C10.9785203,8.67143994 10.6634845,8.57915672 10.2498011,8.57915672 L9.33333333,8.5823389 Z M15.8886237,10.6316627 L19.0326173,10.6316627 L19.0326173,11.9968178 L14.1034208,11.9968178 L14.1034208,11.4112967 C14.1034208,11.0007955 14.1734288,10.6252983 14.3166269,10.2911695 C14.459825,9.95704057 14.6539379,9.63564041 14.902148,9.34287987 C15.1535402,9.05011933 15.5354018,8.70962609 16.0604614,8.3150358 C16.5409706,7.9363564 16.8719173,7.59904535 17.0660302,7.30946698 C17.2601432,7.01670644 17.3524264,6.708035 17.3524264,6.37708831 C17.3524264,5.66746221 16.9896579,5.31742243 16.2609387,5.31742243 C15.6245028,5.31742243 15.0167064,5.58790772 14.4343675,6.12887828 L14.4343675,4.66507558 C15.0835322,4.21957041 15.805887,4 16.6173429,4 C17.3587908,4 17.9443119,4.20047733 18.3739061,4.60143198 C18.8035004,5.00238663 19.0230708,5.55290374 19.0230708,6.25934765 C19.0230708,6.65393795 18.9626094,7.0071599 18.8353222,7.31901352 C18.7143994,7.63404932 18.5298329,7.92999204 18.2943516,8.21320605 C18.0588703,8.49005569 17.6833731,8.82418457 17.1614956,9.21559268 C16.6618934,9.59427208 16.3245823,9.88703262 16.1527446,10.0938743 C15.9809069,10.300716 15.8886237,10.4725537 15.8886237,10.6316627 L15.8886237,10.6316627 Z" id="形状" fill="#57689C" fill-rule="nonzero"></path>
        </g>
    </g>
</svg>