<?xml version="1.0" encoding="UTF-8"?>
<svg width="20px" height="20px" viewBox="0 0 20 20" version="1.1" xmlns="http://www.w3.org/2000/svg" xmlns:xlink="http://www.w3.org/1999/xlink">
    <title>dependent resources-second menu-pressed</title>
    <g id="dependent-resources-second-menu-pressed" stroke="none" stroke-width="1" fill="none" fill-rule="evenodd">
        <g id="dependent-resources">
            <rect id="矩形" x="0" y="0" width="20" height="20"></rect>
            <path d="M17.5,5.9 C17.8313708,5.9 18.1,6.16862915 18.1,6.5 L18.1,17.5 C18.1,17.8313708 17.8313708,18.1 17.5,18.1 L6.5,18.1 C6.16862915,18.1 5.9,17.8313708 5.9,17.5 L5.9,16 C5.9,15.6686292 6.16862915,15.4 6.5,15.4 C6.83137085,15.4 7.1,15.6686292 7.1,16 L7.1,16.9 L16.9,16.9 L16.9,7.1 L11,7.1 C10.7017662,7.1 10.4543532,6.88241039 10.407853,6.59732312 L10.4,6.5 C10.4,6.16862915 10.6686292,5.9 11,5.9 L17.5,5.9 Z M5.42426407,4.57573593 L15.4242641,14.5757359 C15.6585786,14.8100505 15.6585786,15.1899495 15.4242641,15.4242641 C15.1899495,15.6585786 14.8100505,15.6585786 14.5757359,15.4242641 L4.57573593,5.42426407 C4.34142136,5.18994949 4.34142136,4.81005051 4.57573593,4.57573593 C4.81005051,4.34142136 5.18994949,4.34142136 5.42426407,4.57573593 Z M13.5,1.9 C13.8313708,1.9 14.1,2.16862915 14.1,2.5 L14.1,4 C14.1,4.33137085 13.8313708,4.6 13.5,4.6 C13.1686292,4.6 12.9,4.33137085 12.9,4 L12.9,3.1 L3.1,3.1 L3.1,12.9 L9,12.9 C9.29823376,12.9 9.54564675,13.1175896 9.59214701,13.4026769 L9.6,13.5 C9.6,13.8313708 9.33137085,14.1 9,14.1 L2.5,14.1 C2.16862915,14.1 1.9,13.8313708 1.9,13.5 L1.9,2.5 C1.9,2.16862915 2.16862915,1.9 2.5,1.9 L13.5,1.9 Z" id="形状" fill="#FFFFFF" fill-rule="nonzero"></path>
            <polygon id="路径" fill="#FFFFFF" opacity="0.55" points="6.5 6.5 11 6.5 17.5 6.5 17.5 17.5 6.5 17.5 6.5 16"></polygon>
        </g>
    </g>
</svg>