<?xml version="1.0" encoding="UTF-8"?>
<svg width="20px" height="20px" viewBox="0 0 20 20" version="1.1" xmlns="http://www.w3.org/2000/svg" xmlns:xlink="http://www.w3.org/1999/xlink">
    <title>deployment-instance-second-menu</title>
    <g id="deployment-instance-second-menu" stroke="none" stroke-width="1" fill="none" fill-rule="evenodd">
        <g id="主机监控">
            <rect id="矩形" fill="#D8D8D8" opacity="0" x="0" y="0" width="20" height="20"></rect>
            <g id="图形" transform="translate(2.000000, 3.000000)" fill="#57689C" fill-rule="nonzero">
                <path d="M7,10.5 C7,11.6238877 7.37081017,12.6611681 7.99676118,13.4961718 L1,13.4959297 C0.44771525,13.4959297 6.76353751e-17,13.0482145 0,12.4959297 L0,8.58594742 C-6.76353751e-17,8.03366267 0.44771525,7.58594742 1,7.58594742 L7.93664659,7.58573445 C7.34713969,8.40622917 7,9.41257517 7,10.5 Z M3.02879989,9.43832992 L2.02879989,9.43832992 L2.02879989,11.5553385 L3.02879989,11.5553385 L3.02879989,9.43832992 Z M5.05759978,9.43832992 L4.05759978,9.43832992 L4.05759978,11.5553385 L5.05759978,11.5553385 L5.05759978,9.43832992 Z M13.1133905,0 C13.6656753,-1.01453063e-16 14.1133905,0.44771525 14.1133905,1 L14.1133905,4.8217736 C14.1133905,5.23005067 13.8687177,5.58118134 13.5180011,5.73653649 C13.0389573,5.58217515 12.5290751,5.5 12,5.5 C11.3783596,5.5 10.7832157,5.6134447 10.2341416,5.82076067 L1,5.8217736 C0.44771525,5.8217736 -4.22892021e-16,5.37405835 0,4.8217736 L0,1 C-6.76353751e-17,0.44771525 0.44771525,1.01453063e-16 1,0 L13.1133905,0 Z M3.02879989,1.85238251 L2.02879989,1.85238251 L2.02879989,3.96939109 L3.02879989,3.96939109 L3.02879989,1.85238251 Z M5.05759978,1.85238251 L4.05759978,1.85238251 L4.05759978,3.96939109 L5.05759978,3.96939109 L5.05759978,1.85238251 Z M11.7557908,1.85238251 L10.0557908,1.85238251 L10.0557908,3.96939109 L11.7557908,3.96939109 L11.7557908,1.85238251 Z" id="形状结合" opacity="0.550000012"></path>
                <path d="M15.9055359,9.63237381 C15.9681433,9.91529948 16,10.2057559 16,10.5 C16,12.709139 14.209139,14.5 12,14.5 C11.0579028,14.5 10.1660014,14.1724168 9.45717385,13.5878885 L8.97400327,14.009705 L8.9,12.2 L10.6457735,12.5482765 L10.2239607,12.9181669 C10.7325319,13.2926337 11.3495657,13.5 12,13.5 C13.6568542,13.5 15,12.1568542 15,10.5 C15,10.2785387 14.9760888,10.0605262 14.9291556,9.84843279 C14.8694925,9.57881281 15.0396962,9.31187618 15.3093162,9.25221314 C15.5789362,9.1925501 15.8458728,9.36275383 15.9055359,9.63237381 Z M12,6.5 C12.9451592,6.5 13.839498,6.82976937 14.5488364,7.41706013 L15.0267416,7 L15.1007449,8.80970504 L13.3549714,8.46142852 L13.7832551,8.08714287 C13.2735903,7.70952673 12.6537208,7.5 12,7.5 C10.3431458,7.5 9,8.84314575 9,10.5 C9,10.7324106 9.02633437,10.9610114 9.07796296,11.1829322 C9.1405349,11.451892 8.9732245,11.7206516 8.70426472,11.7832235 C8.43530494,11.8457954 8.16654538,11.678485 8.10397344,11.4095253 C8.03509183,11.1134439 8,10.8088222 8,10.5 C8,8.290861 9.790861,6.5 12,6.5 Z" id="形状结合"></path>
            </g>
        </g>
    </g>
</svg>