<?xml version="1.0" encoding="UTF-8"?>
<svg width="20px" height="20px" viewBox="0 0 20 20" version="1.1" xmlns="http://www.w3.org/2000/svg" xmlns:xlink="http://www.w3.org/1999/xlink">
    <title>deployment strategy 3</title>
    <g id="deployment-strategy" stroke="none" stroke-width="1" fill="none" fill-rule="evenodd">
        <rect id="矩形" fill="#000000" opacity="0" x="0" y="0" width="20" height="20"></rect>
        <path d="M10.685,2.9992915 L16,8.3132915 L16,11.2202915 L14.1,10.0602915 L14.1,9.9 L5.32857143,9.9 L5.32857143,11.1 L12.198,11.0992915 L10.5358984,12.1151452 L10.5358984,16.3454355 L11.606,16.9992915 L5,17 C4.44771525,17 4,16.5522847 4,16 L4,4 C4,3.44771525 4.44771525,3 5,3 L10.685,2.9992915 Z M11.6714286,5.9 L5.32857143,5.9 L5.32857143,7.1 L11.6714286,7.1 L11.6714286,5.9 Z" id="形状结合" fill="#9FAECF"></path>
        <path d="M15,3 C15.5522847,3 16,3.44771525 16,4 L16,8.3132915 L10.686,2.9992915 L15,3 Z" id="形状结合" fill="#9FAECF" transform="translate(13.343000, 5.656292) rotate(-180.000000) translate(-13.343000, -5.656292) "></path>
        <polygon id="多边形备份-3" fill="#57689C" points="14 10 17.4641016 12.1151452 17.4641016 16.3454355 14 18.4605806 10.5358984 16.3454355 10.5358984 12.1151452"></polygon>
        <path d="M14.1070508,13 L14.107,14.855 L15.7141016,15.7834936 L15.4641016,16.2165064 L13.857,15.288 L12.25,16.2165064 L12,15.7834936 L13.607,14.855 L13.6070508,13 L14.1070508,13 Z" id="形状结合" fill="#FFFFFF" transform="translate(13.857051, 14.608253) rotate(-180.000000) translate(-13.857051, -14.608253) "></path>
    </g>
</svg>