<?xml version="1.0" encoding="UTF-8"?>
<svg width="20px" height="20px" viewBox="0 0 20 20" version="1.1" xmlns="http://www.w3.org/2000/svg" xmlns:xlink="http://www.w3.org/1999/xlink">
    <title>deployment-orchestration-history-second-menu</title>
    <g id="deployment-orchestration-history-second-menu" stroke="none" stroke-width="1" fill="none" fill-rule="evenodd">
        <rect id="矩形" fill="#000000" opacity="0" x="0" y="0" width="20" height="20"></rect>
        <g id="编组-2" transform="translate(2.995448, 3.579350)">
            <g id="编组" fill="#57689C">
                <path d="M0.00455237464,2 L14.0045524,2 L14.0045524,0 L0.00455237464,0 L0.00455237464,2 Z M0.00455237464,9.68627451 L6.00455237,9.68627451 L6.00455237,7.68627451 L0.00455237464,7.68627451 L0.00455237464,9.68627451 Z" id="形状结合" opacity="0.55"></path>
                <path d="M0.00910474928,3.47611015 L14.0091047,3.53984405 L14,5.53982333 L0,5.47608942 L0.00910474928,3.47611015 Z M0.00910474928,11.1623847 L6.00904258,11.1896989 L5.99993783,13.1896782 L0,13.1623639 L0.00910474928,11.1623847 Z" id="形状结合" fill-rule="nonzero"></path>
            </g>
            <g id="编组备份" transform="translate(0.000000, 11.162385)"></g>
        </g>
        <path d="M14,10 C16.209139,10 18,11.790861 18,14 C18,16.209139 16.209139,18 14,18 C11.790861,18 10,16.209139 10,14 C10,11.790861 11.790861,10 14,10 Z M14.48,11.52 L13.52,11.52 L13.52,13.4251279 C13.52,13.5162545 13.5459399,13.6054983 13.5947873,13.6824268 L14.8520861,15.6625115 L15.6625115,15.1479139 L14.48,13.285 L14.48,11.52 Z" id="形状" fill="#57689C"></path>
    </g>
</svg>