<?xml version="1.0" encoding="UTF-8"?>
<svg width="20px" height="20px" viewBox="0 0 20 20" version="1.1" xmlns="http://www.w3.org/2000/svg" xmlns:xlink="http://www.w3.org/1999/xlink">
    <title>deployment tasks 4</title>
    <g id="deployment-tasks" stroke="none" stroke-width="1" fill="none" fill-rule="evenodd">
        <rect id="矩形" fill="#000000" opacity="0" x="0" y="0" width="20" height="20"></rect>
        <g id="编组" transform="translate(3.000000, 2.000000)" fill="#FFFFFF">
            <path d="M7.13,0 L12.799,5.668 L12.7999618,13.9340445 C12.7999618,14.4863293 12.3522466,14.9340445 11.7999618,14.9340445 L1,14.9340445 C0.44771525,14.9340445 -4.33869274e-17,14.4863293 0,13.9340445 L0,1.00075573 C-1.78657678e-16,0.44847098 0.44771525,0.000755729996 1,0.000755729996 L7.13,0 Z M10.7333031,7.40073186 L1.45713672,7.40073186 L1.45713672,8.60073186 L10.7333031,8.60073186 L10.7333031,7.40073186 Z M8.14283464,3.13407793 L1.45713672,3.13407793 L1.45713672,4.33407793 L8.14283464,4.33407793 L8.14283464,3.13407793 Z" id="形状结合" opacity="0.55"></path>
            <path d="M11.7999618,0.000755729996 C12.3522466,0.000755729996 12.7999618,0.44847098 12.7999618,1.00075573 L12.7997121,5.669 L7.13071206,0 L11.7999618,0.000755729996 Z" id="形状结合" transform="translate(9.965837, 2.834125) rotate(-180.000000) translate(-9.965837, -2.834125) "></path>
        </g>
        <path d="M14.9692042,10.6 C16.8630711,10.6 18.4,12.1213122 18.4,14 C18.4,15.8786878 16.8630711,17.4 14.9692042,17.4 C14.0347387,17.4 13.1588093,17.0274267 12.5177348,16.378601 C12.3624666,16.2214554 12.3639885,15.968194 12.5211341,15.8129258 C12.6782796,15.6576575 12.9315411,15.6591794 13.0868093,15.816325 C13.5788752,16.3143405 14.250468,16.6 14.9692042,16.6 C16.4230619,16.6 17.6,15.4350207 17.6,14 C17.6,12.5649793 16.4230619,11.4 14.9692042,11.4 C13.7460066,11.4 12.7188302,12.2246461 12.4236884,13.3409509 L12.9457733,12.9385708 C13.0621858,12.8485729 13.2125121,12.8327828 13.3398553,12.8839193 C13.6982654,12.3513413 14.3081026,12 15,12 C16.1045695,12 17,12.8954305 17,14 C17,15.1045695 16.1045695,16 15,16 C13.8954305,16 13,15.1045695 13,14 L13.0030071,13.905 L12.1839754,14.5387064 C12.0104614,14.6728492 11.7612887,14.6422546 11.6253809,14.4701196 L10.6910777,13.2867799 C10.5541865,13.1133908 10.5837679,12.8618583 10.7571503,12.7249588 C10.9305394,12.5880677 11.1820719,12.617649 11.3189672,12.7910347 L11.6353327,13.1941183 C12.0005521,11.7048205 13.3552688,10.6 14.9692042,10.6 Z M15.3793226,13 L15,13 L15,13.9158225 L15.0482336,14.072407 L15.5907736,14.8247588 L15.7171445,15 L16,14.686831 L15.8736291,14.5115898 L15.3793226,13.8264406 L15.3793226,13 Z" id="形状结合" fill="#FFFFFF"></path>
    </g>
</svg>