<?xml version="1.0" encoding="UTF-8"?>
<svg width="20px" height="20px" viewBox="0 0 20 20" version="1.1" xmlns="http://www.w3.org/2000/svg" xmlns:xlink="http://www.w3.org/1999/xlink">
    <title>deployment tasks 6</title>
    <g id="deployment-tasks" stroke="none" stroke-width="1" fill="none" fill-rule="evenodd">
        <rect id="矩形" fill="#000000" opacity="0" x="0" y="0" width="20" height="20"></rect>
        <g id="编组" transform="translate(3.000000, 2.000000)">
            <path d="M7.13,0 L12.799,5.668 L12.7999618,13.9340445 C12.7999618,14.4863293 12.3522466,14.9340445 11.7999618,14.9340445 L1,14.9340445 C0.44771525,14.9340445 -4.33869274e-17,14.4863293 0,13.9340445 L0,1.00075573 C-1.78657678e-16,0.44847098 0.44771525,0.000755729996 1,0.000755729996 L7.13,0 Z" id="形状结合" fill="#9FAECF"></path>
            <line x1="2.05713672" y1="3.73407793" x2="7.54283464" y2="3.73407793" id="直线-2" stroke="#FFFFFF" stroke-width="1.2" stroke-linecap="square"></line>
            <line x1="2.05713672" y1="8.00073186" x2="10.1333031" y2="8.00073186" id="直线-2备份" stroke="#FFFFFF" stroke-width="1.2" stroke-linecap="square"></line>
            <path d="M11.7999618,0.000755729996 C12.3522466,0.000755729996 12.7999618,0.44847098 12.7999618,1.00075573 L12.7997121,5.669 L7.13071206,0 L11.7999618,0.000755729996 Z" id="形状结合" fill="#9FAECF" transform="translate(9.965837, 2.834125) rotate(-180.000000) translate(-9.965837, -2.834125) "></path>
        </g>
        <path d="M14,12 C15.6568542,12 17,13.3431458 17,15 C17,16.6568542 15.6568542,18 14,18 C12.3431458,18 11,16.6568542 11,15 C11,13.3431458 12.3431458,12 14,12 Z M14.2705628,13.8336806 L13.6705628,13.8336806 L13.6705628,15.0027818 L13.7468571,15.2026711 L14.605029,16.1630925 L14.8049183,16.3867982 L15.2523298,15.9870195 L15.0524405,15.7633138 L14.2705628,14.8886806 L14.2705628,13.8336806 Z" id="形状结合" fill="#57689C"></path>
        <path d="M13.9692042,11.6 C15.8630711,11.6 17.4,13.1213122 17.4,15 C17.4,16.8786878 15.8630711,18.4 13.9692042,18.4 C13.0347387,18.4 12.1588093,18.0274267 11.5177348,17.378601 C11.3624666,17.2214554 11.3639885,16.968194 11.5211341,16.8129258 C11.6782796,16.6576575 11.9315411,16.6591794 12.0868093,16.816325 C12.5788752,17.3143405 13.250468,17.6 13.9692042,17.6 C15.4230619,17.6 16.6,16.4350207 16.6,15 C16.6,13.5649793 15.4230619,12.4 13.9692042,12.4 C12.7460066,12.4 11.7188302,13.2246461 11.4236884,14.3409509 L11.9457733,13.9385708 C12.0987012,13.820343 12.3101555,13.8301783 12.4511477,13.9515698 L12.5068829,14.0103766 C12.6420003,14.1851514 12.6098517,14.4363687 12.4350803,14.5714904 L11.1839754,15.5387064 C11.0104614,15.6728492 10.7612887,15.6422546 10.6253809,15.4701196 L9.69107768,14.2867799 C9.55418654,14.1133908 9.58376787,13.8618583 9.75715034,13.7249588 C9.93053938,13.5880677 10.1820719,13.617649 10.3189672,13.7910347 L10.6353327,14.1941183 C11.0005521,12.7048205 12.3552688,11.6 13.9692042,11.6 Z" id="形状结合" fill="#FFFFFF" fill-rule="nonzero"></path>
        <path d="M13.9692042,11.6 C15.8630711,11.6 17.4,13.1213122 17.4,15 C17.4,16.8786878 15.8630711,18.4 13.9692042,18.4 C13.0347387,18.4 12.1588093,18.0274267 11.5177348,17.378601 C11.3624666,17.2214554 11.3639885,16.968194 11.5211341,16.8129258 C11.6782796,16.6576575 11.9315411,16.6591794 12.0868093,16.816325 C12.5788752,17.3143405 13.250468,17.6 13.9692042,17.6 C15.4230619,17.6 16.6,16.4350207 16.6,15 C16.6,13.5649793 15.4230619,12.4 13.9692042,12.4 C12.7460066,12.4 11.7188302,13.2246461 11.4236884,14.3409509 L11.9457733,13.9385708 C12.0987012,13.820343 12.3101555,13.8301783 12.4511477,13.9515698 L12.5068829,14.0103766 C12.6420003,14.1851514 12.6098517,14.4363687 12.4350803,14.5714904 L11.1839754,15.5387064 C11.0104614,15.6728492 10.7612887,15.6422546 10.6253809,15.4701196 L9.69107768,14.2867799 C9.55418654,14.1133908 9.58376787,13.8618583 9.75715034,13.7249588 C9.93053938,13.5880677 10.1820719,13.617649 10.3189672,13.7910347 L10.6353327,14.1941183 C11.0005521,12.7048205 12.3552688,11.6 13.9692042,11.6 Z" id="形状结合" fill="#FFFFFF" fill-rule="nonzero"></path>
    </g>
</svg>