<?xml version="1.0" encoding="UTF-8"?>
<svg width="20px" height="20px" viewBox="0 0 20 20" version="1.1" xmlns="http://www.w3.org/2000/svg" xmlns:xlink="http://www.w3.org/1999/xlink">
    <title>deployment-notification-second-menu</title>
    <g id="deployment-notification-second-menu" stroke="none" stroke-width="1" fill="none" fill-rule="evenodd">
        <rect id="矩形" fill="#000000" opacity="0" x="0" y="0" width="20" height="20"></rect>
        <g id="编组-17" transform="translate(3.000000, 2.000000)" fill="#57689C">
            <path d="M7,0 C7.85387897,0 8.58309312,0.603598565 8.72549316,1.42825697 C10.8359192,2.14835641 12.2500341,4.09765469 12.25,6.2866422 L12.25,10.3205268 C13.2457568,10.49994 14,11.3547223 14,12.3814854 C14,12.4866091 13.9125,12.5717458 13.8057568,12.5717458 L0.194243165,12.5717458 C0.142723714,12.5717458 0.0933146146,12.5516983 0.0568864638,12.5160139 C0.020458313,12.4803295 0,12.4319318 0,12.3814687 C0,11.3711215 0.735752256,10.5045263 1.75,10.3205268 L1.75,6.2866422 C1.74996592,4.09765469 3.16408085,2.14835641 5.27450684,1.42825697 C5.41690688,0.603598565 6.14612103,0 7,0 Z M9.56340259,3.68004188 C9.40427204,3.68004188 9.2516593,3.74573086 9.13913852,3.86262768 C9.02661774,3.97952449 8.96341064,4.13806998 8.96341064,4.30338481 L8.96341064,6.90338657 L8.96866356,6.98129188 C9.01016822,7.30591953 9.28640914,7.54182324 9.60101794,7.52130869 C9.91562673,7.50079414 10.1613052,7.23085789 10.1634106,6.90338657 L10.1634106,4.30336807 L10.1588989,4.22544603 C10.1210967,3.9137054 9.86585293,3.67993232 9.56340259,3.68004188 Z" id="形状结合" opacity="0.55"></path>
            <path d="M4.08332764,13.3602232 C4.11555663,13.2325635 4.23259049,13.1429429 4.36684815,13.1431125 L9.63316895,13.1431125 C9.76742022,13.1429506 9.8844449,13.2325696 9.91667236,13.3602232 C9.79809453,14.8515056 8.52710959,16.0018281 7,16 C5.47289041,16.0018281 4.20190547,14.8515056 4.08332764,13.3602232 Z" id="路径"></path>
        </g>
    </g>
</svg>