<?xml version="1.0" encoding="UTF-8"?>
<svg width="20px" height="20px" viewBox="0 0 20 20" version="1.1" xmlns="http://www.w3.org/2000/svg" xmlns:xlink="http://www.w3.org/1999/xlink">
    <title>deployment-strategy-second-menu</title>
    <g id="deployment-strategy-second-menu" stroke="none" stroke-width="1" fill="none" fill-rule="evenodd">
        <rect id="矩形" fill="#000000" opacity="0" x="0" y="0" width="20" height="20"></rect>
        <path d="M10.685,2.9992915 L16,8.3132915 L16,11.2202915 L14.1,10.0602915 L14.1,9.9 L5.32857143,9.9 L5.32857143,11.1 L12.198,11.0992915 L10.5358984,12.1151452 L10.5358984,16.3454355 L11.606,16.9992915 L5,17 C4.44771525,17 4,16.5522847 4,16 L4,4 C4,3.44771525 4.44771525,3 5,3 L10.685,2.9992915 Z M10.685,5.8992915 L5.32857143,5.9 L5.32857143,7.1 L10.685,7.0992915 L10.685,5.8992915 Z" id="形状" fill="#57689C" opacity="0.55"></path>
        <path d="M14,10 L17.4641016,12.1151452 L17.4641016,16.3454355 L14,18.4605806 L10.5358984,16.3454355 L10.5358984,12.1151452 L14,10 Z M15.4641016,13 L13.8571016,13.9285064 L12.25,13 L12,13.4330127 L13.6071016,14.3615064 L13.6070508,16.2165064 L14.1070508,16.2165064 L14.1071016,14.3615064 L15.7141016,13.4330127 L15.4641016,13 Z" id="形状" fill="#57689C"></path>
    </g>
</svg>