<?xml version="1.0" encoding="UTF-8"?>
<svg width="20px" height="20px" viewBox="0 0 20 20" version="1.1" xmlns="http://www.w3.org/2000/svg" xmlns:xlink="http://www.w3.org/1999/xlink">
    <title>Deployment Orchestration History 2</title>
    <g id="Deployment-Orchestration-History" stroke="none" stroke-width="1" fill="none" fill-rule="evenodd">
        <rect id="矩形" fill="#000000" opacity="0" x="0" y="0" width="20" height="20"></rect>
        <g id="编组-2" transform="translate(2.993497, 3.579350)">
            <g id="编组" fill="#FFFFFF" fill-rule="nonzero">
                <path d="M0.00650332221,2 L14.0065033,2 L14.0065033,0 L0.00650332221,0 L0.00650332221,2 Z M0.00650332221,9.68627451 L6.00650332,9.68627451 L6.00650332,7.68627451 L0.00650332221,7.68627451 L0.00650332221,9.68627451 Z" id="形状结合" fill-opacity="0.55"></path>
                <path d="M0.0110556968,3.47611015 L14.0110557,3.53984405 L14.0019509,5.53982333 L0.00195094757,5.47608942 L0.0110556968,3.47611015 Z M0.0130066444,11.1623954 L6.01287976,11.2014154 L5.99987312,13.2013731 L0,13.1623531 L0.0130066444,11.1623954 Z" id="形状结合"></path>
            </g>
            <g id="编组备份" transform="translate(0.006503, 7.686275)"></g>
        </g>
        <path d="M14,10 C16.209139,10 18,11.790861 18,14 C18,16.209139 16.209139,18 14,18 C11.790861,18 10,16.209139 10,14 C10,11.790861 11.790861,10 14,10 Z M14.48,11.52 L13.52,11.52 L13.52,13.4251279 C13.52,13.5162545 13.5459399,13.6054983 13.5947873,13.6824268 L14.5947873,15.2572988 L14.8520861,15.6625115 L15.6625115,15.1479139 L15.4052127,14.7427012 L14.48,13.285 L14.48,11.52 Z" id="形状结合" fill="#FFFFFF"></path>
    </g>
</svg>