<?xml version="1.0" encoding="UTF-8"?>
<svg width="20px" height="20px" viewBox="0 0 20 20" version="1.1" xmlns="http://www.w3.org/2000/svg" xmlns:xlink="http://www.w3.org/1999/xlink">
    <title>deployment-architecture-second-menu</title>
    <g id="deployment-architecture-second-menu" stroke="none" stroke-width="1" fill="none" fill-rule="evenodd">
        <g id="deployment-architecture">
            <rect id="矩形" x="0" y="0" width="20" height="20"></rect>
            <path d="M10,6.4 C10.3313708,6.4 10.6,6.66862915 10.6,7 L10.6,9.9 L16,9.9 C16.3313708,9.9 16.6,10.1686292 16.6,10.5 L16.6,13 C16.6,13.3313708 16.3313708,13.6 16,13.6 C15.6686292,13.6 15.4,13.3313708 15.4,13 L15.4,11.1 L10.6,11.1 L10.6,13.5 C10.6,13.8313708 10.3313708,14.1 10,14.1 C9.66862915,14.1 9.4,13.8313708 9.4,13.5 L9.4,11.1 L4.6,11.1 L4.6,13 C4.6,13.2982338 4.38241039,13.5456468 4.09732312,13.592147 L4,13.6 C3.66862915,13.6 3.4,13.3313708 3.4,13 L3.4,10.5 C3.4,10.1686292 3.66862915,9.9 4,9.9 L9.4,9.9 L9.4,7 C9.4,6.66862915 9.66862915,6.4 10,6.4 Z" id="形状结合" fill="#57689C" fill-rule="nonzero" opacity="0.55"></path>
            <path d="M8,3 L12,3 C12.5522847,3 13,3.44771525 13,4 L13,6 C13,6.55228475 12.5522847,7 12,7 L8,7 C7.44771525,7 7,6.55228475 7,6 L7,4 C7,3.44771525 7.44771525,3 8,3 Z M3,13 L5,13 C5.55228475,13 6,13.4477153 6,14 L6,16 C6,16.5522847 5.55228475,17 5,17 L3,17 C2.44771525,17 2,16.5522847 2,16 L2,14 C2,13.4477153 2.44771525,13 3,13 Z M9,13 L11,13 C11.5522847,13 12,13.4477153 12,14 L12,16 C12,16.5522847 11.5522847,17 11,17 L9,17 C8.44771525,17 8,16.5522847 8,16 L8,14 C8,13.4477153 8.44771525,13 9,13 Z M15,13 L17,13 C17.5522847,13 18,13.4477153 18,14 L18,16 C18,16.5522847 17.5522847,17 17,17 L15,17 C14.4477153,17 14,16.5522847 14,16 L14,14 C14,13.4477153 14.4477153,13 15,13 Z" id="形状结合" fill="#57689C"></path>
        </g>
    </g>
</svg>