<?xml version="1.0" encoding="UTF-8"?>
<svg width="20px" height="20px" viewBox="0 0 20 20" version="1.1" xmlns="http://www.w3.org/2000/svg" xmlns:xlink="http://www.w3.org/1999/xlink">
    <title>Deploy orchestration tasks 2</title>
    <g id="Deploy-orchestration-tasks" stroke="none" stroke-width="1" fill="none" fill-rule="evenodd">
        <rect id="矩形" fill="#000000" opacity="0" x="0" y="0" width="20" height="20"></rect>
        <g id="默认" transform="translate(2.000000, 2.000000)" fill="#FFFFFF">
            <path d="M15.5243897,3.26891262 L8.3248493,0.0689266286 C8.11803263,-0.0229755429 7.88196737,-0.0229755429 7.6751507,0.0689266286 L0.475610328,3.26891262 C0.186428284,3.39718834 0,3.68383423 0,4.00019513 C0,4.31655604 0.186428284,4.60320192 0.475610328,4.73147764 L7.6751507,7.93146363 C7.88200285,8.02289181 8.11799715,8.02289181 8.3248493,7.93146363 L15.5243897,4.73147764 C15.8135717,4.60320192 16,4.31655604 16,4.00019513 C16,3.68383423 15.8135717,3.39718834 15.5243897,3.26891262 L15.5243897,3.26891262 Z" id="路径"></path>
            <path d="M7.99971428,12.000303 C7.88800271,12.000303 7.77714823,11.9765888 7.6751507,11.9311604 L0.475610328,8.73146013 C0.214404455,8.61534932 0.0349834291,8.36870408 0.00493341379,8.08443328 C-0.0251166015,7.80016248 0.0987697061,7.52145362 0.329925564,7.35329363 C0.561081421,7.18513364 0.864388755,7.15307002 1.12559463,7.26918083 L8,10.324596 L14.8744054,7.26860941 C15.1356112,7.1524986 15.4389186,7.18456222 15.6700744,7.35272221 C15.9012303,7.5208822 16.0251166,7.79959106 15.9950666,8.08386186 C15.9650166,8.36813266 15.7855955,8.6147779 15.5243897,8.73088871 L8.3248493,11.9308747 C8.22259541,11.9763942 8.11192764,11.9999493 8,12.0000173 L7.99971428,12.000303 Z" id="路径" opacity="0.55"></path>
            <path d="M8,15.9999999 C7.88828842,15.9999999 7.77743395,15.9765713 7.67543641,15.9314286 L0.475610328,12.7314426 C0.0717421363,12.5519509 -0.11015378,12.0790377 0.0693344285,11.6751615 C0.248822637,11.2712854 0.721726436,11.0893858 1.12559463,11.2688776 L8,14.3242928 L14.8746911,11.2688776 C15.135897,11.1527668 15.4392043,11.1848304 15.6703602,11.3529904 C15.9015161,11.5211504 16.0254024,11.7998592 15.9953523,12.0841301 C15.9653023,12.3684009 15.7858813,12.6150461 15.5246754,12.7311569 L8.325135,15.9311429 C8.22277182,15.9766033 8.11200348,16.0000617 8,15.9999999 L8,15.9999999 Z" id="路径" opacity="0.55"></path>
        </g>
    </g>
</svg>