<?xml version="1.0" encoding="UTF-8"?>
<svg width="20px" height="20px" viewBox="0 0 20 20" version="1.1" xmlns="http://www.w3.org/2000/svg" xmlns:xlink="http://www.w3.org/1999/xlink">
    <title>destination-analysis-second-menu</title>
    <g id="destination-analysis-second-menu" stroke="none" stroke-width="1" fill="none" fill-rule="evenodd">
        <g id="Destination-analysis">
            <g id="编组-2">
                <rect id="矩形" x="0" y="0" width="20" height="20"></rect>
                <path d="M7,14.5 C9.76142375,14.5 12,12.2614237 12,9.5 C12,6.73857625 9.76142375,4.5 7,4.5 C4.23857625,4.5 2,6.73857625 2,9.5 C2,12.2614237 4.23857625,14.5 7,14.5 Z M13,9 L15.857,9 L15.8571429,8 L17.4884359,9.6 L15.8571429,11.2 L15.857,10.2 L13,10.2 L13,9 Z M13.0006682,6.20249373 L15.4749028,4.77399373 L14.9750265,3.9078969 L17.1877677,4.47789103 L16.5750265,6.67917819 L16.0749028,5.81322421 L13.6006682,7.24172421 L13.0006682,6.20249373 Z M13.6006682,11.9582758 L16.0749028,13.3867758 L16.5750265,12.5208218 L17.1877677,14.722109 L14.9750265,15.2921031 L15.4749028,14.4260063 L13.0006682,12.9975063 L13.6006682,11.9582758 Z" id="形状结合" fill="#57689C" fill-rule="nonzero" opacity="0.55"></path>
                <circle id="椭圆形" fill="#57689C" fill-rule="nonzero" cx="7" cy="9.5" r="3.8"></circle>
            </g>
            <g id="编组" transform="translate(12.500668, 3.092250)"></g>
        </g>
    </g>
</svg>