<?xml version="1.0" encoding="UTF-8"?>
<svg width="20px" height="20px" viewBox="0 0 20 20" version="1.1" xmlns="http://www.w3.org/2000/svg" xmlns:xlink="http://www.w3.org/1999/xlink">
    <title>dm-second-menu</title>
    <g id="dm-second-menu" stroke="none" stroke-width="1" fill="none" fill-rule="evenodd">
        <rect id="矩形" fill-opacity="0" fill="#D8D8D8" x="0" y="0" width="20" height="20"></rect>
        <g id="DB2" transform="translate(1.572970, 2.000000)">
            <rect id="矩形" fill-opacity="0" fill="#D8D8D8" x="0.427030236" y="0" width="16" height="16"></rect>
            <path d="M2.74929768,5.94652693 C2.57997461,7.95608189 3.51165261,9.16270345 5.50880885,9.47944639 C8.31496619,9.92449446 8.84397271,11.1098763 7.83124469,14.1610657 C7.77618082,14.3269644 7.72458692,14.4826558 7.67645911,14.6281522 C4.43917931,15.4841995 1.55132387,14.9569526 0.4497889,13.0490381 C-0.635056144,11.1700314 0.306133269,8.46012244 2.58841104,6.10895908 Z M4.7280133,4.30047998 C4.3554254,6.93469815 5.20707591,8.47322302 7.28612847,8.80295447 L7.49333977,8.83932987 C9.65872019,9.25766673 10.3904007,10.6465071 9.90409318,12.9926309 L9.88119536,13.0919193 L9.87084331,13.1027366 C9.85865442,13.1137667 9.85255741,13.1192872 9.84643132,13.12487 L9.83698911,13.1465291 C9.83290426,13.1559831 9.83248937,13.1572538 9.83124469,13.1610657 L9.86419536,13.1719193 L9.85494011,13.2153841 L9.85119536,13.2289193 L9.84278054,13.2219432 C9.82132619,13.203328 9.82182201,13.2004808 9.82264838,13.1957355 L9.81738788,13.2173106 C9.80670282,13.2618227 9.80670282,13.2618227 9.79053056,13.3282824 C9.75948126,13.4552846 9.7532714,13.480685 9.72774111,13.5846756 L9.70420764,13.6805177 C9.6662654,13.8350102 9.65867695,13.8659087 9.63720012,13.9536593 C9.17518038,14.150621 8.71417485,14.3194629 8.25828212,14.4614927 L8.30578822,14.3185726 C9.40750122,10.9992855 8.73139619,9.4842898 5.58712847,8.98561845 C3.64796642,8.67807321 2.91749217,7.48916144 3.34605896,5.29736835 L3.32665665,5.40308517 C3.72243015,5.05119442 4.14886902,4.71087897 4.60340739,4.38659538 Z M6.52156993,3.2091695 C5.88267843,6.05917431 6.73579249,7.7198963 9.07874955,8.05408181 C10.7401106,8.27789845 11.5786289,9.19450503 11.8234704,10.5966874 C11.9739311,11.4583613 11.8553178,12.5210839 11.7422128,12.827553 L11.7912587,12.8456876 C11.6714055,12.9190057 11.5499836,12.9911907 11.4270302,13.0621778 C11.0375634,13.2870366 10.6453716,13.4925786 10.2528269,13.6788065 C11.0619769,10.6522495 10.2072357,8.75998404 7.36444809,8.30912652 C5.44225992,8.00427329 4.76429983,6.52530077 5.33457719,3.72887376 L5.29669596,3.91866416 C5.50199845,3.78764811 5.71217611,3.65994447 5.92703024,3.53589838 C6.11249064,3.42882277 6.29856895,3.32612739 6.48500903,3.22781194 Z M8.47657461,2.34530751 C7.72758215,5.45028966 8.54000348,7.24669273 10.9259884,7.58701547 C12.5866051,7.81073184 13.4045747,8.70691119 13.6190638,10.075614 C13.6953109,10.5621632 13.6821379,11.1005335 13.6328442,11.5350925 C13.2244861,11.8715812 12.7871314,12.1972106 12.3233638,12.5060093 C12.403082,11.9751223 12.4349823,11.1919796 12.3160178,10.5106814 C12.0356884,8.90526294 11.0367985,7.81334996 9.14742785,7.55882479 C7.00193158,7.25279629 6.33406097,5.71662937 7.14313942,2.78552558 L7.10824336,2.91594622 C7.55453398,2.70448416 8.00126245,2.51798643 8.44494298,2.35644886 Z M9.0416873,2.15355345 C12.5314076,1.05109439 15.7310442,1.51694873 16.9042716,3.54903811 C18.0793254,5.58429109 16.8773915,8.59437664 14.1688852,11.0675148 C14.1814335,10.7189089 14.1678733,10.3481382 14.1130352,9.99820382 C13.8659256,8.42134288 12.884778,7.34638341 10.9946667,7.09175845 C8.85424762,6.78645414 8.20831885,5.15821271 9.07272461,2.03830759 Z" id="形状结合" fill="#57689C"></path>
        </g>
    </g>
</svg>