<?xml version="1.0" encoding="UTF-8"?>
<svg width="20px" height="20px" viewBox="0 0 20 20" version="1.1" xmlns="http://www.w3.org/2000/svg" xmlns:xlink="http://www.w3.org/1999/xlink">
    <title>easy-agile-ideas-second-menu</title>
    <g id="easy-agile-ideas-second-menu" stroke="none" stroke-width="1" fill="none" fill-rule="evenodd">
        <g id="编组">
            <rect id="矩形" x="0" y="0" width="20" height="20"></rect>
            <path d="M16.2380952,2 C16.79038,2 17.2380952,2.44771525 17.2380952,3 L17.2380952,17 C17.2380952,17.5522847 16.79038,18 16.2380952,18 L3,18 C2.44771525,18 2,17.5522847 2,17 L2,3 C2,2.44771525 2.44771525,2 3,2 L16.2380952,2 Z M13.4285714,14.1904762 L5.80952381,14.1904762 C5.38873543,14.1904762 5.04761905,14.5315926 5.04761905,14.952381 C5.04761905,15.3731693 5.38873543,15.7142857 5.80952381,15.7142857 L13.4285714,15.7142857 C13.8493598,15.7142857 14.1904762,15.3731693 14.1904762,14.952381 C14.1904762,14.5315926 13.8493598,14.1904762 13.4285714,14.1904762 Z M13.4285714,11.1428571 L5.80952381,11.1428571 C5.38873543,11.1428571 5.04761905,11.4839735 5.04761905,11.9047619 C5.04761905,12.3255503 5.38873543,12.6666667 5.80952381,12.6666667 L13.4285714,12.6666667 C13.8493598,12.6666667 14.1904762,12.3255503 14.1904762,11.9047619 C14.1904762,11.4839735 13.8493598,11.1428571 13.4285714,11.1428571 Z M11.1128399,5.21346496 L11.0253322,5.32911771 C10.6828119,5.7831056 8.96668306,8.05723019 8.82830943,8.2493905 C8.73239364,8.38306064 8.68897487,8.4878903 8.65334467,8.60389706 C8.60603161,8.7581513 8.48159145,9.48594045 8.47640749,9.71714478 C8.47349941,9.8525977 8.49976056,9.94398701 8.55871855,10.004399 C8.60537412,10.0520661 8.66792295,10.0761905 8.74505007,10.0761905 C8.78521939,10.0761905 8.82961173,10.0697169 8.880503,10.0564156 C9.09663594,10.0000243 9.75279802,9.68118584 9.95727338,9.54395016 C10.0551237,9.47849326 10.1607625,9.37918894 10.2395207,9.27839265 C10.2511871,9.26347243 10.2883396,9.21450132 10.3452072,9.13918287 L10.4835189,8.95569873 C10.9670539,8.31355219 12.0218173,6.90778717 12.4012167,6.40237312 L12.484476,6.2910572 L11.1128399,5.21346496 Z M12.1523616,4.28571429 C11.9682933,4.28571429 11.8101701,4.35262521 11.6951369,4.47884817 C11.6274294,4.55320629 11.5172514,4.68948105 11.4365461,4.78911411 L11.3393407,4.90868643 L12.7129367,5.98694879 L12.8007604,5.87629034 C12.8351136,5.83350376 12.9267937,5.71652342 13.0428131,5.55904502 C13.1860546,5.36592378 13.1873316,5.11560204 13.0460499,4.87207002 C12.9151361,4.64688412 12.6387682,4.40512224 12.4293997,4.33320436 C12.3665348,4.31148233 12.2677109,4.28571429 12.1523616,4.28571429 Z" id="形状结合" fill="#57689C" fill-rule="nonzero"></path>
            <g id="编组-18" transform="translate(9.323077, 4.584615)"></g>
        </g>
    </g>
</svg>