<?xml version="1.0" encoding="UTF-8"?>
<svg width="20px" height="20px" viewBox="0 0 20 20" version="1.1" xmlns="http://www.w3.org/2000/svg" xmlns:xlink="http://www.w3.org/1999/xlink">
    <title>easy-analysis-second-menu</title>
    <g id="easy-analysis-second-menu" stroke="none" stroke-width="1" fill="none" fill-rule="evenodd">
        <rect id="矩形" fill="#FFFFFF" opacity="0" x="0" y="0" width="20" height="20"></rect>
        <g id="分析-(4)备份-2" transform="translate(2.000000, 2.000000)" fill="#57689C">
            <path d="M14.8377695,0 C15.3926172,0 15.8424101,0.449792936 15.8424101,1.00464064 L15.8421971,7.81962043 C15.8421867,8.15280953 15.5720807,8.42290714 15.2388916,8.42290714 L14.6356049,8.42290714 C12.539455,8.12171128 10.8658603,8.57466441 9.61482066,9.78176654 C8.363781,10.9888687 7.96647649,12.6068148 8.42290714,14.6356049 L8.42290714,14.6356049 L8.42290714,15.2388916 C8.42290714,15.5720807 8.15280953,15.8421867 7.81962043,15.8421971 L1.00464064,15.8424101 L1.00464064,15.8424101 C0.449792936,15.8424101 0,15.3926172 0,14.8377695 L0,1.00464064 C0,0.449792936 0.449792936,0 1.00464064,0 L14.8377695,0 Z" id="路径" fill-rule="nonzero" opacity="0.55"></path>
            <rect id="矩形" x="3.01392192" y="3.01392192" width="2.00928128" height="10.0464064" rx="0.5"></rect>
            <rect id="矩形备份" x="7.03248449" y="3.01392192" width="2.00928128" height="4.01856257" rx="0.5"></rect>
            <rect id="矩形备份-2" x="11.0510471" y="3.01392192" width="2.00928128" height="3.01392192" rx="0.5"></rect>
            <path d="M15.020626,14.2597147 C15.3021631,13.8412135 15.4619545,13.331403 15.4619545,12.791156 C15.4619545,11.3225972 14.2673238,10.1279666 12.7987651,10.1279666 C11.3302064,10.1279666 10.1355757,11.3225973 10.1355757,12.791156 C10.1355757,14.2597147 11.3302064,15.4543454 12.7987651,15.4543454 C13.3390121,15.4543454 13.8488226,15.294554 14.2673238,15.0130168 L15.0839144,15.8400098 C15.2913829,16.0501213 15.6298984,16.0522638 15.8400098,15.8447953 C15.8408124,15.8440027 15.8416125,15.8432077 15.8424101,15.8424101 C16.05253,15.6322903 16.05253,15.2916187 15.8424101,15.0814988 L15.020626,14.2597147 L15.020626,14.2597147 Z M11.2008515,12.7987651 C11.2008515,11.916108 11.916108,11.2008515 12.7987651,11.2008515 C13.6814222,11.2008515 14.3966787,11.916108 14.3966787,12.7987651 C14.3966787,13.6814222 13.6814222,14.3966787 12.7987651,14.3966787 C11.916108,14.3966787 11.2008515,13.6814222 11.2008515,12.7987651 Z" id="形状"></path>
        </g>
    </g>
</svg>