<?xml version="1.0" encoding="UTF-8"?>
<svg width="20px" height="20px" viewBox="0 0 20 20" version="1.1" xmlns="http://www.w3.org/2000/svg" xmlns:xlink="http://www.w3.org/1999/xlink">
    <title>elasticsearch-second-menu</title>
    <g id="elasticsearch-second-menu" stroke="none" stroke-width="1" fill="none" fill-rule="evenodd">
        <rect id="矩形" fill-opacity="0" fill="#D8D8D8" x="0" y="0" width="20" height="20"></rect>
        <g id="elasticsearch" transform="translate(2.000000, 2.000000)">
            <rect id="矩形" fill-opacity="0" fill="#D8D8D8" x="0" y="0" width="16" height="16"></rect>
            <path d="M7.19037874,11.202576 L1.17259358,11.202576 C1.80676896,12.6246675 2.85425083,13.8332364 4.18491705,14.6781498 C5.51870762,15.5442368 7.08515519,16.0042157 8.68624781,15.9999709 C11.5338885,15.9999709 14.0247163,14.5775058 15.5,12.4438524 C14.7181498,11.6508805 13.6415858,11.2007657 12.5151237,11.1958664 L7.19037874,11.202576 Z M12.5151237,4.79490622 C13.6816271,4.79490622 14.7452037,4.31181489 15.5,3.55362988 C13.8320432,1.12288849 10.9428271,-0.226938343 7.96090725,0.031404752 C4.97898744,0.289747847 2.37749332,2.1152706 1.17259358,4.79490622 L7.16979338,4.79490622 L12.5151237,4.79490622 Z" id="形状" fill="#57689C" fill-rule="nonzero" opacity="0.550000012"></path>
            <path d="M7.49915905,10.3974238 L0.870675043,10.3974238 C0.62163847,9.62012593 0.496658083,8.80992862 0.50006793,7.99538632 C0.50006793,7.15668609 0.623650794,6.35153386 0.870675043,5.5933394 L11.7534656,5.5933394 C12.4055339,5.59156032 13.0314224,5.84405702 13.4925061,6.29491471 C13.9535899,6.74577241 14.2118136,7.35777976 14.2100231,7.99538632 C14.2136334,8.630048 13.9588218,9.24003654 13.5017973,9.69070151 C13.0447729,10.1413665 12.4231153,10.395651 11.7740509,10.3974238 L7.49915905,10.3974238 Z" id="路径" fill="#57689C" fill-rule="nonzero"></path>
        </g>
    </g>
</svg>