<?xml version="1.0" encoding="UTF-8"?>
<svg width="20px" height="20px" viewBox="0 0 20 20" version="1.1" xmlns="http://www.w3.org/2000/svg" xmlns:xlink="http://www.w3.org/1999/xlink">
    <title>engine-room-second-menu</title>
    <g id="engine-room-second-menu" stroke="none" stroke-width="1" fill="none" fill-rule="evenodd">
        <rect id="矩形" fill-opacity="0" fill="#D8D8D8" x="0" y="0" width="20" height="20"></rect>
        <g id="机房类申请-(1)" transform="translate(1.500000, 2.000000)">
            <rect id="矩形" fill-opacity="0" fill="#D8D8D8" x="0.5" y="0" width="16" height="16"></rect>
            <path d="M10.2483954,0.85 C10.8006801,0.85 11.2483954,1.29771525 11.2483954,1.85 L11.2483954,14.213636 C11.2483954,14.7659207 10.8006801,15.213636 10.2483954,15.213636 L6.74572176,15.213636 C6.19343701,15.213636 5.74572176,14.7659207 5.74572176,14.213636 L5.74572176,1.85 C5.74572176,1.29771525 6.19343701,0.85 6.74572176,0.85 Z M8.49705857,12.0692511 C8.06470564,12.0692511 7.71096233,12.4229944 7.71096233,12.8553473 C7.71096233,13.2877002 8.06470564,13.6414435 8.49705857,13.6414435 C8.92941151,13.6414435 9.28315481,13.2877002 9.28315481,12.8553473 C9.28315481,12.4229944 8.92941151,12.0692511 8.49705857,12.0692511 Z M10.25,5.9 L6.75,5.9 L6.75,7.07914435 L10.25,7.07914435 L10.25,5.9 Z M10.25,3.42219248 L6.75,3.42219248 L6.75,4.60133683 L10.25,4.64064164 L10.25,3.42219248 Z" id="形状结合" fill="#57689C" fill-rule="nonzero"></path>
            <path d="M13.0189823,1.97358157 L13.1084652,1.9852145 L16.2169305,2.67598455 C16.674468,2.77765956 17,3.18347296 17,3.65217161 L17,13.4114644 C17,13.880163 16.674468,14.2859764 16.2169305,14.3876515 L13.1084652,15.0784215 C13.0728528,15.0863354 13.0364812,15.090328 13,15.090328 C12.7238576,15.090328 12.5,14.8664703 12.5,14.590328 L12.5,2.47330803 C12.5,2.43682685 12.5039926,2.40045525 12.5119065,2.3648428 C12.5718102,2.09527618 12.8388986,1.9253108 13.1084652,1.9852145 Z M4.48809353,2.3648428 C4.49600741,2.40045525 4.5,2.43682685 4.5,2.47330803 L4.5,14.590328 C4.5,14.8664703 4.27614237,15.090328 4,15.090328 C3.96351883,15.090328 3.92714722,15.0863354 3.89153477,15.0784215 L0.783069542,14.3876515 C0.325531987,14.2859764 -8.8817842e-16,13.880163 0,13.4114644 L0,3.65217161 C0,3.18347296 0.325531987,2.77765956 0.783069542,2.67598455 L3.89153477,1.9852145 C4.16110138,1.9253108 4.42818984,2.09527618 4.48809353,2.3648428 Z M15.75,6.9 L13.75,6.9 L13.75,8.07914435 L15.75,8.11844916 L15.75,6.9 Z M3.25,6.9 L1.25,6.9 L1.25,8.07914435 L3.25,8.11844916 L3.25,6.9 Z M15.75,4.42219248 L13.75,4.42219248 L13.75,5.60133683 L15.75,5.64064164 L15.75,4.42219248 Z M3.25,4.42219248 L1.25,4.42219248 L1.25,5.60133683 L3.25,5.64064164 L3.25,4.42219248 Z" id="形状结合" fill="#57689C" fill-rule="nonzero" opacity="0.550000012"></path>
        </g>
    </g>
</svg>