<?xml version="1.0" encoding="UTF-8"?>
<svg width="20px" height="20px" viewBox="0 0 20 20" version="1.1" xmlns="http://www.w3.org/2000/svg" xmlns:xlink="http://www.w3.org/1999/xlink">
    <title>enterprise-second-menu</title>
    <defs>
        <linearGradient x1="-3.35277807%" y1="50.0024078%" x2="103.379328%" y2="50.0024078%" id="linearGradient-1">
            <stop stop-color="#0471EA" offset="0.4092262%"></stop>
            <stop stop-color="#2AC6CC" offset="76.74%"></stop>
        </linearGradient>
    </defs>
    <g id="enterprise-second-menu" stroke="none" stroke-width="1" fill="none" fill-rule="evenodd">
        <g id="编组-4">
            <g id="编组-2" stroke-linejoin="round">
                <g id="SVGID_1_-link">
                    <rect id="矩形" x="0" y="0" width="20" height="20"></rect>
                </g>
            </g>
            <g id="编组-3" transform="translate(2.000000, 1.808907)" fill="#57689C">
                <path d="M0.6,16.1910925 C0.26862915,16.1910925 4.05812251e-17,15.9224634 0,15.5910925 C-4.05812251e-17,15.2597217 0.26862915,14.9910925 0.6,14.9910925 L2,14.991 L2,3.30912652 C2,2.93035446 2.21400238,2.58409135 2.5527864,2.41469933 L7.2763932,0.0528959328 C7.52338245,-0.0705986916 7.82371897,0.0295134818 7.9472136,0.276502731 C7.98192745,0.345930448 8,0.422486981 8,0.500109528 L8,14.991 L15.4,14.9910925 C15.7313708,14.9910925 16,15.2597217 16,15.5910925 C16,15.9224634 15.7313708,16.1910925 15.4,16.1910925 L0.6,16.1910925 Z M6.4,7.59109253 L3.6,7.59109253 C3.26862915,7.59109253 3,7.85972168 3,8.19109253 C3,8.52246338 3.26862915,8.79109253 3.6,8.79109253 L6.4,8.79109253 C6.73137085,8.79109253 7,8.52246338 7,8.19109253 C7,7.85972168 6.73137085,7.59109253 6.4,7.59109253 Z M6.4,5.19109253 L3.6,5.19109253 C3.26862915,5.19109253 3,5.45972168 3,5.79109253 C3,6.12246338 3.26862915,6.39109253 3.6,6.39109253 L6.4,6.39109253 C6.73137085,6.39109253 7,6.12246338 7,5.79109253 C7,5.45972168 6.73137085,5.19109253 6.4,5.19109253 Z" id="形状结合"></path>
                <path d="M8,3.19109253 L13.4472136,5.91469933 C13.7859976,6.08409135 14,6.43035446 14,6.80912652 L14,14.9910925 L8,14.9910925 L8,3.19109253 Z M12.4,10.0910925 L9.6,10.0910925 C9.26862915,10.0910925 9,10.3597217 9,10.6910925 C9,11.0224634 9.26862915,11.2910925 9.6,11.2910925 L12.4,11.2910925 C12.7313708,11.2910925 13,11.0224634 13,10.6910925 C13,10.3597217 12.7313708,10.0910925 12.4,10.0910925 Z M12.4,7.69109253 L9.6,7.69109253 C9.26862915,7.69109253 9,7.95972168 9,8.29109253 C9,8.62246338 9.26862915,8.89109253 9.6,8.89109253 L12.4,8.89109253 C12.7313708,8.89109253 13,8.62246338 13,8.29109253 C13,7.95972168 12.7313708,7.69109253 12.4,7.69109253 Z" id="形状结合" fill-rule="nonzero" opacity="0.55"></path>
            </g>
        </g>
    </g>
</svg>