<?xml version="1.0" encoding="UTF-8"?>
<svg width="20px" height="20px" viewBox="0 0 20 20" version="1.1" xmlns="http://www.w3.org/2000/svg" xmlns:xlink="http://www.w3.org/1999/xlink">
    <title>ETCD-second menu-pressed</title>
    <g id="ETCD-second-menu-pressed" stroke="none" stroke-width="1" fill="none" fill-rule="evenodd">
        <rect id="矩形" fill-opacity="0" fill="#D8D8D8" x="0" y="0" width="20" height="20"></rect>
        <g id="icon_etcd" transform="translate(2.000000, 2.300000)" fill="#FFFFFF" fill-rule="nonzero">
            <path d="M7.32473672,6.87322736 C7.32505212,7.44959985 6.85806575,7.91709789 6.28169326,7.91741367 C5.70532078,7.91772913 5.23782269,7.4507428 5.23750685,6.87437032 C5.23719133,6.29799783 5.70417761,5.8304997 6.2805501,5.8301838 C6.557334,5.83003234 6.82284178,5.93983893 7.01866474,6.13544752 C7.21448769,6.33105611 7.32458502,6.59644346 7.32473672,6.87322736 L7.32473672,6.87322736 Z M8.67354822,6.87322736 C8.67308655,7.29553788 8.92718557,7.67650067 9.31726133,7.83832553 C9.7073371,8.0001504 10.1564915,7.9109358 10.4551103,7.61231699 C10.7537292,7.31369818 10.8429438,6.86454374 10.6811189,6.47446798 C10.519294,6.08439221 10.1383312,5.83029319 9.71602072,5.83075486 C9.14054055,5.83138547 8.67417882,6.29774719 8.67354822,6.87322736 L8.67354822,6.87322736 Z" id="形状"></path>
            <path d="M15.7742454,8.00600107 C15.6982027,8.01224365 15.6219316,8.01529449 15.5456331,8.01514556 C15.0863938,8.01461816 14.6333844,7.90884427 14.2213967,7.70594749 C14.3557616,6.93237113 14.4154753,6.14767249 14.3997142,5.36267191 C13.9534732,4.71617152 13.4456802,4.11439944 12.8834435,3.5657796 C13.1328553,3.09731449 13.5015341,2.70300558 13.9522058,2.42271834 L14.1482408,2.30098232 L13.9956421,2.12952313 C13.2255226,1.25595317 12.2735661,0.561493067 11.2065726,0.0948740847 L10.9945347,0.00228612252 L10.9408109,0.22632613 C10.8145227,0.742380704 10.5536049,1.21570086 10.1846758,1.59799964 C9.48799505,1.22737578 8.75677324,0.925698934 8.00142883,0.697267369 C7.24678038,0.925138835 6.51614663,1.22604432 5.81989641,1.59571352 C5.45177579,1.2131685 5.19165633,0.73986547 5.06604751,0.224040007 L5.0117521,0 L4.80028577,0.0920164315 C3.73350316,0.561447581 2.78117756,1.25658287 2.00893017,2.12952313 L1.85575996,2.30098232 L2.05122343,2.42100375 C2.50048218,2.69981683 2.86832695,3.09210573 3.11769959,3.55834971 C2.55704115,4.10515981 2.0502397,4.70459415 1.60428648,5.34838364 C1.58528109,6.1384975 1.64270121,6.92859836 1.77574567,7.70766208 C1.3664971,7.90814148 0.91693989,8.0127124 0.461225219,8.01343097 C0.380067869,8.01343097 0.304054295,8.01057332 0.232612967,8.00428648 L0,7.98828362 L0.021718164,8.21689587 C0.133427275,9.37759959 0.499501879,10.4994348 1.09390963,11.5026255 L1.20821575,11.7009466 L1.38367566,11.5517771 C1.7900621,11.2077372 2.28062049,10.9779421 2.80507233,10.8859439 C3.14637234,11.5837101 3.55363268,12.2472306 4.02128952,12.8674406 C4.76975997,13.1300925 5.54186955,13.3197704 6.32684408,13.4338275 C6.4052254,13.9660314 6.33889312,14.5095218 6.13480979,15.0072513 L6.0473656,15.2204322 L6.27254867,15.2701554 C6.84029236,15.3957572 7.41995836,15.4595684 8.00142883,15.4604751 L9.72802286,15.2690123 L9.95320593,15.2192892 L9.86519021,15.0055367 C9.66158118,14.5074807 9.59545758,13.9638855 9.67372745,13.4315413 C10.4555871,13.3173807 11.2246163,13.1280901 11.9701375,12.8662976 C12.4384037,12.2455614 12.8462372,11.5814683 13.1880693,10.8830863 C13.7149992,10.9746302 14.2081174,11.2046206 14.6168959,11.549491 L14.7923558,11.6980889 L14.9066619,11.4997678 C15.5013493,10.4977833 15.8672794,9.37676854 15.9782818,8.21689587 L16,7.98828362 L15.7742454,8.00600107 Z M5.52270048,10.812788 C5.07526461,10.1185334 4.71948927,9.36933042 4.46422575,8.58381854 C4.20873556,7.79157869 4.05884523,6.96910354 4.01843186,6.13766744 C4.5380917,5.49270534 5.14053449,4.91908756 5.81018039,4.43164851 C6.48539555,3.94085358 7.22210212,3.5407954 8.00142883,3.24172174 C8.77697693,3.54071289 9.51031341,3.93936974 10.1829612,4.42764779 C10.8555627,4.91767243 11.4606844,5.49416184 11.9827112,6.14223969 C11.9396402,6.97019479 11.7882285,7.78893267 11.5323451,8.5775317 C11.2765977,9.36535126 10.9194418,10.1165504 10.4698696,10.8122165 C8.84904954,11.258551 7.14066291,11.258551 5.52270048,10.812788 Z" id="形状" opacity="0.550000012"></path>
        </g>
    </g>
</svg>