<?xml version="1.0" encoding="UTF-8"?>
<svg width="20px" height="20px" viewBox="0 0 20 20" version="1.1" xmlns="http://www.w3.org/2000/svg" xmlns:xlink="http://www.w3.org/1999/xlink">
    <title>event-bridge-second-menu</title>
    <g id="event-bridge-second-menu" stroke="none" stroke-width="1" fill="none" fill-rule="evenodd">
        <g id="编组-3" fill="#000000" opacity="0">
            <rect id="矩形" x="0" y="0" width="20" height="20"></rect>
        </g>
        <g id="编组" transform="translate(1.000000, 2.600000)" fill="#57689C">
            <path d="M8.099038,6.6 L8.099038,7.725 L6.161038,7.724 L6.161538,13.725 L2.099038,13.725 L2.099038,12.6 L5.036038,12.6 L5.036038,7.724 L2.099038,7.725 L2.099038,6.6 L5.036038,6.6 L5.036038,2.225 L2.099038,2.225 L2.099038,1.1 L6.161538,1.1 L6.161038,6.6 L8.099038,6.6 Z M15.599038,1.1 L15.599038,2.225 L12.661038,2.225 L12.661038,6.6 L15.599038,6.6 L15.599038,7.725 L12.661038,7.724 L12.661038,12.6 L15.599038,12.6 L15.599038,13.725 L11.536538,13.725 L11.536038,7.724 L9.599038,7.725 L9.599038,6.6 L11.536038,6.6 L11.536538,1.1 L15.599038,1.1 Z" id="形状结合" opacity="0.55"></path>
            <polygon id="多边形" points="1.7 11.2 3.4 12.4351223 2.75065778 14.4335922 0.649342219 14.4335922 2.02027351e-18 12.4351223"></polygon>
            <polygon id="多边形备份" points="16.2490381 5.3 17.8658342 6.47467111 17.248273 8.37532889 15.2498032 8.37532889 14.632242 6.47467111"></polygon>
            <rect id="矩形" x="0" y="5.8" width="3" height="3"></rect>
            <polygon id="矩形备份" points="14.7990381 0.1 17.7990381 0.1 17.7990381 3.1 14.7990381 3.1"></polygon>
            <circle id="椭圆形备份-16" cx="8.849038" cy="7.1" r="1.75"></circle>
            <polygon id="多边形备份-2" points="1.5 -2.90367366e-14 3 0.866025404 3 2.59807621 1.5 3.46410162 -5.13968214e-18 2.59807621 -5.13968214e-18 0.866025404"></polygon>
            <polygon id="多边形" points="16.2990381 11.5 17.7990381 12.3660254 17.7990381 14.0980762 16.2990381 14.9641016 14.7990381 14.0980762 14.7990381 12.3660254"></polygon>
        </g>
    </g>
</svg>