<?xml version="1.0" encoding="UTF-8"?>
<svg width="20px" height="20px" viewBox="0 0 20 20" version="1.1" xmlns="http://www.w3.org/2000/svg" xmlns:xlink="http://www.w3.org/1999/xlink">
    <title>event-second menu-normal</title>
    <g id="event-second-menu-normal" stroke="none" stroke-width="1" fill="none" fill-rule="evenodd">
        <g id="event">
            <g id="紧急告警">
                <g id="编组-2">
                    <rect id="矩形" x="0" y="0" width="20" height="20"></rect>
                    <path d="M3.2,16.4 L16.8,16.4 C17.4627417,16.4 18,16.9372583 18,17.6 L18,17.6 L18,17.6 L2,17.6 C2,16.9372583 2.5372583,16.4 3.2,16.4 Z" id="矩形" fill="#9FAECF"></path>
                    <path d="M10,5.4 C12.7614237,5.4 15,7.63857625 15,10.4 L15,16.4 L15,16.4 L5,16.4 L5,10.4 C5,7.63857625 7.23857625,5.4 10,5.4 Z" id="矩形" fill="#9FAECF"></path>
                    <g id="编组-3" transform="translate(2.833975, 2.300000)" fill="#57689C" fill-rule="nonzero">
                        <path d="M7.7660254,0 L7.7660254,2 L6.5660254,2 L6.5660254,0 L7.7660254,0 Z M10.7660254,0.6 L11.8052559,1.2 L10.8052559,2.93205081 L9.7660254,2.33205081 L10.7660254,0.6 Z M13.7320508,3.08038476 L14.3320508,4.11961524 L12.6,5.11961524 L12,4.08038476 L13.7320508,3.08038476 Z M3.60525589,0.6 L2.5660254,1.2 L3.5660254,2.93205081 L4.60525589,2.33205081 L3.60525589,0.6 Z M0.6,3.08038476 L0,4.11961524 L1.73205081,5.11961524 L2.33205081,4.08038476 L0.6,3.08038476 Z" id="形状"></path>
                    </g>
                </g>
                <path d="M12.1845934,10.3810425 L10.4316422,10.3810425 L10.760148,8.08702291 C10.7670537,8.02723003 10.7344171,7.96985661 10.6794928,7.9452354 C10.6245686,7.92061419 10.5600227,7.93442303 10.5199799,7.97936134 L7.70697637,11.2588983 C7.67283428,11.2998851 7.66536628,11.3568764 7.6877954,11.4052761 C7.71022452,11.4536758 7.75853513,11.4848185 7.81187739,11.4852637 L9.56482856,11.4852637 L9.23632275,13.7792833 C9.22941708,13.8390761 9.26205369,13.8964495 9.31697793,13.9210708 C9.37190217,13.945692 9.43644807,13.9318831 9.47649087,13.8869448 L12.2894944,10.6074078 C12.3236365,10.5664211 12.3311045,10.5094298 12.3086754,10.4610301 C12.2862463,10.4126304 12.2379357,10.3814877 12.1845934,10.3810425 L12.1845934,10.3810425 Z" id="路径" fill="#57689C" fill-rule="nonzero"></path>
            </g>
            <g id="编组" transform="translate(3.133975, 2.400000)"></g>
        </g>
    </g>
</svg>