<?xml version="1.0" encoding="UTF-8"?>
<svg width="20px" height="20px" viewBox="0 0 20 20" version="1.1" xmlns="http://www.w3.org/2000/svg" xmlns:xlink="http://www.w3.org/1999/xlink">
    <title>event-flow-second-menu</title>
    <g id="event-flow-second-menu" stroke="none" stroke-width="1" fill="none" fill-rule="evenodd">
        <g id="编组-52" transform="translate(2.500000, 2.000000)" fill="#57689C" fill-rule="nonzero" opacity="0.55">
            <g id="分析-(4)备份-2">
                <path d="M12.8377695,0 C13.3926172,0 13.8424101,0.449792936 13.8424101,1.00464064 L13.8421971,7.81962043 C13.8421867,8.15280953 13.5720807,8.42290714 13.2388916,8.42290714 L12.6356049,8.42290714 C10.9222337,8.28996492 9.52660744,8.81299587 8.44872612,9.992 C7.42473886,11.1120539 7.06493896,12.5650078 7.3693264,14.3508615 L7.42290714,14.6356049 L7.42290714,15.2388916 C7.42290714,15.5720811 7.15281001,15.842188 6.81962043,15.8422001 L1.00464064,15.8424101 C0.449792936,15.8424101 0,15.3926172 0,14.8377695 L0,1.00464064 C0,0.449792936 0.449792936,0 1.00464064,0 L12.8377695,0 Z M6.5,9 L4,9 L4,10.2 L6.5,10.2 L6.5,9 Z M3.2,9 L2,9 L2,10.2 L3.2,10.2 L3.2,9 Z M11,6 L4,6 L4,7.2 L11,7.2 L11,6 Z M3.2,6 L2,6 L2,7.2 L3.2,7.2 L3.2,6 Z M11,3 L4,3 L4,4.2 L11,4.2 L11,3 Z M3.2,3 L2,3 L2,4.2 L3.2,4.2 L3.2,3 Z" id="形状结合"></path>
            </g>
        </g>
        <path d="M14.0000015,11.8400015 C15.6568549,11.8400015 17.0000015,13.1831481 17.0000015,14.8400015 C17.0000015,16.4968549 15.6568549,17.8400015 14.0000015,17.8400015 C12.3431481,17.8400015 11.0000015,16.4968549 11.0000015,14.8400015 C10.9992059,14.0441083 11.3150203,13.2805838 11.877802,12.717802 C12.4405838,12.1550203 13.2041083,11.8392059 14.0000015,11.8400015 Z M14.2528585,15.8398581 L13.7582873,15.8398581 C13.6917342,15.8403252 13.6378973,15.8941621 13.6374303,15.9607152 L13.6374303,16.4552864 C13.6378973,16.5218395 13.6917342,16.5756764 13.7582873,16.5761435 L14.2528585,16.5761435 C14.2840495,16.580336 14.3155006,16.5705468 14.3388025,16.5493932 C14.3621044,16.5282397 14.3748808,16.4978791 14.3737156,16.4664293 L14.3737156,15.9607152 C14.3730197,15.8942581 14.3193156,15.8405541 14.2528585,15.8398581 Z M14.3737156,13.0927167 L13.6262874,13.0927167 C13.5577696,13.0985209 13.5051849,13.1559538 13.5054295,13.2247166 L13.6151446,15.3457155 C13.6158405,15.4121727 13.6695445,15.4658767 13.7360016,15.4665726 L14.2524299,15.4665726 C14.3188871,15.4658767 14.3725911,15.4121727 14.373287,15.3457155 L14.4941441,13.2247166 C14.4965568,13.1910569 14.4848273,13.1580282 14.4620578,13.1331594 C14.4392882,13.1082905 14.4074193,13.0937011 14.3737156,13.0927167 Z" id="形状结合" fill="#57689C" fill-rule="nonzero"></path>
    </g>
</svg>