<?xml version="1.0" encoding="UTF-8"?>
<svg width="20px" height="20px" viewBox="0 0 20 20" version="1.1" xmlns="http://www.w3.org/2000/svg" xmlns:xlink="http://www.w3.org/1999/xlink">
    <title>event-second menu-pressed</title>
    <g id="event-second-menu-pressed" stroke="none" stroke-width="1" fill="none" fill-rule="evenodd">
        <g id="编组-2">
            <rect id="矩形" x="0" y="0" width="20" height="20"></rect>
            <g id="event" transform="translate(2.000000, 2.300000)">
                <g id="紧急告警" fill="#FFFFFF">
                    <g id="编组-2">
                        <path d="M3,8.2 C3,5.43857625 5.23857625,3.2 8,3.2 C10.7614237,3.2 13,5.43857625 13,8.2 L13,14.2 L14.8,14.2 C15.4213203,14.2 15.9323525,14.6721997 15.9938045,15.277307 L16,15.4 L0,15.4 C0,14.7372583 0.5372583,14.2 1.2,14.2 L3,14.2 L3,8.2 Z" id="路径" opacity="0.55"></path>
                        <g id="编组-3" transform="translate(0.833975, 0.000000)" fill-rule="nonzero">
                            <path d="M7.7660254,0 L7.7660254,2 L6.5660254,2 L6.5660254,0 L7.7660254,0 Z M10.7660254,0.6 L11.8052559,1.2 L10.8052559,2.93205081 L9.7660254,2.33205081 L10.7660254,0.6 Z M13.7320508,3.08038476 L14.3320508,4.11961524 L12.6,5.11961524 L12,4.08038476 L13.7320508,3.08038476 Z M3.60525589,0.6 L2.5660254,1.2 L3.5660254,2.93205081 L4.60525589,2.33205081 L3.60525589,0.6 Z M0.6,3.08038476 L0,4.11961524 L1.73205081,5.11961524 L2.33205081,4.08038476 L0.6,3.08038476 Z" id="形状"></path>
                        </g>
                    </g>
                    <path d="M10.1845934,8.18104247 L8.43164221,8.18104247 L8.76014802,5.88702291 C8.76705369,5.82723003 8.73441708,5.76985661 8.67949284,5.7452354 C8.6245686,5.72061419 8.5600227,5.73442303 8.51997991,5.77936134 L5.70697637,9.05889834 C5.67283428,9.09988507 5.66536628,9.1568764 5.6877954,9.20527609 C5.71022452,9.25367577 5.75853513,9.28481848 5.81187739,9.28526368 L7.56482856,9.28526368 L7.23632275,11.5792833 C7.22941708,11.6390761 7.26205369,11.6964495 7.31697793,11.7210708 C7.37190217,11.745692 7.43644807,11.7318831 7.47649087,11.6869448 L10.2894944,8.40740782 C10.3236365,8.36642108 10.3311045,8.30942976 10.3086754,8.26103007 C10.2862463,8.21263038 10.2379357,8.18148768 10.1845934,8.18104247 L10.1845934,8.18104247 Z" id="路径" fill-rule="nonzero"></path>
                </g>
                <g id="编组" transform="translate(1.133975, 0.200000)"></g>
            </g>
        </g>
    </g>
</svg>