<?xml version="1.0" encoding="UTF-8"?>
<svg width="20px" height="20px" viewBox="0 0 20 20" version="1.1" xmlns="http://www.w3.org/2000/svg" xmlns:xlink="http://www.w3.org/1999/xlink">
    <title>exchanges-second-menu</title>
    <g id="exchanges-second-menu" stroke="none" stroke-width="1" fill="none" fill-rule="evenodd">
        <g id="交换数据" transform="translate(2.000000, 2.000000)" fill="#57689C">
            <path d="M14.5,2 C15.0522847,2 15.5,2.44771525 15.5,3 L15.5,14.5 C15.5,15.0522847 15.0522847,15.5 14.5,15.5 L3,15.5 C2.44771525,15.5 2,15.0522847 2,14.5 L2,13.5 L12.5,13.5 C13.0128358,13.5 13.4355072,13.1139598 13.4932723,12.6166211 L13.5,12.5 L13.5,2 L14.5,2 Z" id="形状结合"></path>
            <path d="M12.5,0 C13.0522847,7.68579428e-16 13.5,0.44771525 13.5,1 L13.5,12.5 C13.5,13.0522847 13.0522847,13.5 12.5,13.5 L1,13.5 C0.44771525,13.5 9.37667865e-16,13.0522847 0,12.5 L0,1 C-1.78657678e-16,0.44771525 0.44771525,-9.5692398e-18 1,0 L12.5,0 Z M6.03919693,2.50585938 L2.4,2.50585938 L2.4,6.10585938 L3.6,6.10585938 L3.6,4.50585938 L8.881,9.78985938 L7.46,9.79 L7.46,10.99 L11.0991969,10.99 L11.0991969,7.39 L9.89919693,7.39 L9.899,9.11085938 L4.497,3.70585938 L6.03919693,3.70585938 L6.03919693,2.50585938 Z" id="形状结合" opacity="0.550000012"></path>
        </g>
    </g>
</svg>