<?xml version="1.0" encoding="UTF-8"?>
<svg width="20px" height="20px" viewBox="0 0 20 20" version="1.1" xmlns="http://www.w3.org/2000/svg" xmlns:xlink="http://www.w3.org/1999/xlink">
    <title>Exporter-second menu-normal</title>
    <g id="Exporter-second-menu-normal" stroke="none" stroke-width="1" fill="none" fill-rule="evenodd">
        <rect id="矩形" fill="#000000" fill-rule="nonzero" opacity="0" x="0" y="0" width="20" height="20"></rect>
        <rect id="矩形备份" fill="#000000" fill-rule="nonzero" opacity="0" x="2" y="2" width="16" height="16"></rect>
        <g id="端口" transform="translate(3.000000, 3.000000)" fill-rule="nonzero">
            <path d="M12,0 C12.5522847,-1.08250786e-15 13,0.44771525 13,1 L13.0007613,8.12621352 C12.6809122,8.04382251 12.3455738,8 12,8 C9.790861,8 8,9.790861 8,12 C8,12.7290322 8.1950335,13.4125119 8.53577067,14.0011092 L1,14 C0.44771525,14 6.76353751e-17,13.5522847 0,13 L0,1 C-6.76353751e-17,0.44771525 0.44771525,1.01453063e-16 1,0 L12,0 Z M3.33631579,10 L2.31,10 L2.31,12.3 L3.33631579,12.3 L3.33631579,10 Z M5.16631579,10 L4.14,10 L4.14,12.3 L5.16631579,12.3 L5.16631579,10 Z M6.99631579,10 L5.97,10 L5.97,12.3 L6.99631579,12.3 L6.99631579,10 Z M10.7889474,2.71052631 L2.21,2.71052631 L2.21,6.81578947 L3.94684211,6.81578947 L4.22104984,4.76315789 L8.72485767,4.76315789 L9.05210527,6.81578947 L10.7889474,6.81578947 L10.7889474,2.71052631 Z" id="形状结合" fill="#9FAECF"></path>
            <g id="编组" transform="translate(12.393953, 12.000000) rotate(90.000000) translate(-12.393953, -12.000000) translate(9.658979, 9.499009)" fill="#57689C">
                <path d="M1.58139399,0.186286854 C1.87792411,-0.179812523 2.46993132,0.0298659691 2.46993132,0.500991073 L2.46993132,4.50099107 C2.46993132,4.77713345 2.2460737,5.00099107 1.96993132,5.00099107 C1.69378895,5.00099107 1.46993132,4.77713345 1.46993132,4.50099107 L1.46901653,1.91299107 L0.888553857,2.63046844 C0.734059332,2.82120909 0.468121351,2.86852099 0.260222694,2.75461017 L0.185312311,2.70430154 C-0.0292709294,2.5304952 -0.0623271382,2.21564324 0.111479202,2.00106 L1.58139399,0.186286854 Z M3.88855386,4.81569529 C3.59202374,5.18179467 3.00001653,4.97211618 3.00001653,4.50099107 L3.00001653,0.500991073 C3.00001653,0.224848698 3.22387415,0.000991072957 3.50001653,0.000991072957 C3.7761589,0.000991072957 4.00001653,0.224848698 4.00001653,0.500991073 L4.00093132,3.08899107 L4.58139399,2.37151371 C4.73588852,2.18077305 5.0018265,2.13346116 5.20972516,2.24737198 L5.28463554,2.2976806 C5.49921878,2.47148694 5.53227499,2.78633891 5.35846865,3.00092215 L3.88855386,4.81569529 Z" id="形状结合"></path>
            </g>
        </g>
    </g>
</svg>