<?xml version="1.0" encoding="UTF-8"?>
<svg width="20px" height="20px" viewBox="0 0 20 20" version="1.1" xmlns="http://www.w3.org/2000/svg" xmlns:xlink="http://www.w3.org/1999/xlink">
    <title>failure resource-second menu-normal</title>
    <g id="failure-resource-second-menu-normal" stroke="none" stroke-width="1" fill="none" fill-rule="evenodd">
        <g id="failure-resource">
            <rect id="矩形" x="0" y="0" width="20" height="20"></rect>
            <path d="M11.8,3.4 C12.4075132,3.4 12.9,3.89248678 12.9,4.5 L12.899,6 L16,6 C16.5522847,6 17,6.44771525 17,7 L17,8 L3,8 L3,7 C3,6.44771525 3.44771525,6 4,6 L7.099,6 L7.1,4.5 C7.1,3.93298766 7.5290107,3.46617613 8.08014288,3.40645465 L8.2,3.4 L11.8,3.4 Z M11.699,4.6 L8.3,4.6 L8.299,6 L11.698,6 L11.699,4.6 Z" id="形状" fill="#57689C" fill-rule="nonzero"></path>
            <g id="形状结合-2" transform="translate(3.000000, 9.000000)" fill="#9FAECF">
                <path d="M14,0 L14,7 C14,7.55228475 13.5522847,8 13,8 L1,8 C0.44771525,8 0,7.55228475 0,7 L0,0 L14,0 Z M7.6,1.5 L6.4,1.5 L6.4,3.4 L4.5,3.4 L4.5,4.6 L6.4,4.6 L6.4,6.5 L7.6,6.5 L7.6,4.6 L9.5,4.6 L9.5,3.4 L7.6,3.4 L7.6,1.5 Z" id="形状"></path>
            </g>
            <g id="编组" transform="translate(10.000000, 13.000000) rotate(-90.000000) translate(-10.000000, -13.000000) translate(7.500000, 10.500000)"></g>
        </g>
    </g>
</svg>