<?xml version="1.0" encoding="UTF-8"?>
<svg width="20px" height="20px" viewBox="0 0 20 20" version="1.1" xmlns="http://www.w3.org/2000/svg" xmlns:xlink="http://www.w3.org/1999/xlink">
    <title>fault-pool-second-menu</title>
    <g id="fault-pool-second-menu" stroke="none" stroke-width="1" fill="none" fill-rule="evenodd">
        <g>
            <rect id="矩形" fill="#000000" opacity="0" x="0" y="0" width="20" height="20"></rect>
            <g id="编组-3" transform="translate(2.000000, 2.000000)" fill="#57689C">
                <g id="编组-4" transform="translate(1.000000, 0.000000)">
                    <path d="M9.086,0 L14,4.867 L14,14.9 C14,15.5075132 13.5075132,16 12.9,16 L1.1,16 C0.492486775,16 7.43989126e-17,15.5075132 0,14.9 L0,1.10080967 C-7.43989126e-17,0.493296447 0.492486775,0.00080967215 1.1,0.00080967215 L9.086,0 Z M7.0933474,8.0834475 C6.64018058,8.0834475 6.27281629,8.44731309 6.27281629,8.89616403 C6.27281629,9.34501498 6.64018058,9.70888057 7.0933474,9.70888057 C7.54651423,9.70888057 7.91387852,9.34501498 7.91387852,8.89616403 C7.91387852,8.44731309 7.54651423,8.0834475 7.0933474,8.0834475 Z M7.0933474,2.70888057 C6.64018058,2.70888057 6.31096652,3.07274616 6.35802723,3.5215971 L6.73110894,7.07993931 C6.75055132,7.26537497 6.90689529,7.40618372 7.09334741,7.40618372 C7.27979953,7.40618372 7.43614349,7.26537497 7.45558587,7.07993931 L7.82866758,3.5215971 C7.87572829,3.07274616 7.54651423,2.70888057 7.0933474,2.70888057 Z" id="形状结合" fill-rule="nonzero" opacity="0.55"></path>
                    <path d="M12.9,0 C13.5075132,9.67561903e-16 14,0.492486775 14,1.1 L13.9995385,4.813 L9.08553846,0 L12.9,0 Z" id="形状结合" transform="translate(11.543269, 2.406082) rotate(-180.000000) translate(-11.543269, -2.406082) "></path>
                </g>
                <path d="M16,10 L16,15 C16,15.5522847 15.5522847,16 15,16 L1,16 C0.44771525,16 6.76353751e-17,15.5522847 0,15 L0,10 L4.5,10 L4.5,12 L11.5,12 L11.5,10 L16,10 Z" id="形状结合"></path>
            </g>
        </g>
    </g>
</svg>