<?xml version="1.0" encoding="UTF-8"?>
<svg width="20px" height="20px" viewBox="0 0 20 20" version="1.1" xmlns="http://www.w3.org/2000/svg" xmlns:xlink="http://www.w3.org/1999/xlink">
    <title>Filesystems-second menu-normal</title>
    <g id="Filesystems-second-menu-normal" stroke="none" stroke-width="1" fill="none" fill-rule="evenodd">
        <g id="文件系统">
            <rect id="矩形" fill="#FFFFFF" opacity="0" x="0" y="0" width="20" height="20"></rect>
            <g id="图形" transform="translate(2.000000, 3.000000)">
                <path d="M5.91112296,0.168900741 C5.72693333,0.0583822222 5.51616,0 5.30135704,0 L1.18518519,0 C0.530631111,0 0,0.530631111 0,1.18518519 L0,3.55555556 C0,3.88283259 0.265315556,4.14814815 0.592592593,4.14814815 L15.4074074,4.14814815 C15.734637,4.14814815 16,3.88283259 16,3.55555556 L16,2.96296296 C16,2.30840889 15.4693926,1.77777778 14.8148148,1.77777778 L8.92086519,1.77777778 C8.70606222,1.77777778 8.49528889,1.71939556 8.31109926,1.60887704 L5.91112296,0.168900741 Z" id="路径备份" fill="#57689C"></path>
                <path d="M15,5 C15.5522847,5 16,5.44771525 16,6 L16,13 C16,13.5522847 15.5522847,14 15,14 L1,14 C0.44771525,14 6.76353751e-17,13.5522847 0,13 L0,6 C-6.76353751e-17,5.44771525 0.44771525,5 1,5 L15,5 Z M7.6,10.1709056 L2.4,10.1709056 L2.4,11.3709056 L7.6,11.3709056 L7.6,10.1709056 Z" id="形状结合" fill="#9FAECF" opacity="0.55"></path>
            </g>
        </g>
    </g>
</svg>