<?xml version="1.0" encoding="UTF-8"?>
<svg width="20px" height="20px" viewBox="0 0 20 20" version="1.1" xmlns="http://www.w3.org/2000/svg" xmlns:xlink="http://www.w3.org/1999/xlink">
    <title>firewall-second-menu</title>
    <g id="firewall-second-menu" stroke="none" stroke-width="1" fill="none" fill-rule="evenodd">
        <g id="图形" fill-rule="nonzero">
            <rect id="矩形" fill="#000000" opacity="0" x="0" y="0" width="20" height="20"></rect>
            <path d="M9.78507923,2.03145998 C9.91222464,1.98951334 10.049481,1.98951334 10.1766264,2.03145998 L16.666343,4.17624867 C16.9216113,4.26058759 17.0938414,4.49917887 17.0938414,4.76801885 L17.0938414,10.9615834 C17.0938414,11.6663683 16.7617382,12.4749133 16.1073204,13.3649712 C15.5963514,14.0619252 14.8783962,14.8190351 14.0310525,15.5569235 C13.2995712,16.1949675 12.4967215,16.7952805 11.7707574,17.2476955 C10.5640802,18 10.1260812,18 9.98209866,18 C9.83811608,18 9.39993918,18 8.18970243,17.2336354 C7.46747585,16.776593 6.66533805,16.1696949 5.93083113,15.5250658 C5.08544516,14.7830839 4.36855786,14.0247282 3.85741081,13.3322236 C3.20228118,12.4446574 2.87,11.646969 2.87,10.9612275 L2.87,4.7676629 C2.87,4.49904868 3.04213927,4.26067028 3.29714238,4.17624867 Z M10,10 L4.115,9.99907169 L4.11512005,10.9619394 C4.11512005,11.7573141 5.09808146,13.1236358 6.68206779,14.5276884 C7.35392717,15.123552 8.09323944,15.6902276 8.76349703,16.1232432 C9.49355456,16.5948795 9.87762675,16.7351246 9.98209866,16.7538121 C9.99137131,16.7522166 10.0028438,16.749686 10.0165617,16.7460752 L9.99794085,16.7506372 L10,10 L15.847,9.99907169 L15.8480094,5.21794216 L9.999,3.28507169 L10,10 Z" id="形状结合" fill="#57689C"></path>
        </g>
    </g>
</svg>