<?xml version="1.0" encoding="UTF-8"?>
<svg width="20px" height="20px" viewBox="0 0 20 20" version="1.1" xmlns="http://www.w3.org/2000/svg" xmlns:xlink="http://www.w3.org/1999/xlink">
    <title>flow-builder-second-menu</title>
    <g id="flow-builder-second-menu" stroke="none" stroke-width="1" fill="none" fill-rule="evenodd">
        <g id="低代码-Flow-Builder">
            <rect id="矩形" x="0" y="0" width="20" height="20"></rect>
            <path d="M15.9909091,4.01818182 L15.9909091,17.2 C15.9909091,17.7522847 15.5431938,18.2 14.9909091,18.2 L3.9,18.2 C3.34771525,18.2 2.9,17.7522847 2.9,17.2 L2.9,4.01818182 L15.9909091,4.01818182 Z M11.6823691,5.65454545 L9.91928375,7.19724518 L11.2407273,7.19654545 L11.2415978,11.0099174 L11.2385712,11.0735912 C11.2065339,11.4088648 10.9241085,11.6710744 10.5804408,11.6710744 C10.2152938,11.6710744 9.91928375,11.3750643 9.91928375,11.0099174 L9.91928375,9.90798898 L9.91700105,9.82334537 C9.87305849,9.01070087 9.20019324,8.36528926 8.37658402,8.36528926 C7.52457449,8.36528926 6.8338843,9.05597945 6.8338843,9.90798898 L6.83418769,13.1510617 C6.44484554,13.3210324 6.17272727,13.7094542 6.17272727,14.1614325 C6.17272727,14.7700107 6.66607741,15.2633609 7.27465565,15.2633609 C7.88323388,15.2633609 8.37658402,14.7700107 8.37658402,14.1614325 C8.37658402,13.7094542 8.10446576,13.3210324 7.71512361,13.1510617 L7.715427,9.90798898 L7.71845359,9.84431515 C7.75049094,9.50904158 8.03291631,9.24683196 8.37658402,9.24683196 C8.74173096,9.24683196 9.03774105,9.54284204 9.03774105,9.90798898 L9.03774105,11.0099174 L9.04002374,11.094561 C9.0839663,11.9072055 9.75683156,12.5526171 10.5804408,12.5526171 C11.4324503,12.5526171 12.1231405,11.8619269 12.1231405,11.0099174 L12.1227273,7.19654545 L13.4454545,7.19724518 L11.6823691,5.65454545 Z" id="形状结合" fill="#57689C"></path>
            <path d="M14.9909091,2.2 C15.5431938,2.2 15.9909091,2.64771525 15.9909091,3.2 L15.9909091,4.01818182 L2.9,4.01818182 L2.9,3.2 C2.9,2.64771525 3.34771525,2.2 3.9,2.2 L14.9909091,2.2 Z M4.49090909,2.74545455 C4.21476672,2.74545455 3.99090909,2.96931217 3.99090909,3.24545455 C3.99090909,3.52159692 4.21476672,3.74545455 4.49090909,3.74545455 C4.76705147,3.74545455 4.99090909,3.52159692 4.99090909,3.24545455 C4.99090909,2.96931217 4.76705147,2.74545455 4.49090909,2.74545455 Z M7.49090909,2.74545455 C7.21476672,2.74545455 6.99090909,2.96931217 6.99090909,3.24545455 C6.99090909,3.52159692 7.21476672,3.74545455 7.49090909,3.74545455 C7.76705147,3.74545455 7.99090909,3.52159692 7.99090909,3.24545455 C7.99090909,2.96931217 7.76705147,2.74545455 7.49090909,2.74545455 Z M5.99090909,2.74545455 C5.71476672,2.74545455 5.49090909,2.96931217 5.49090909,3.24545455 C5.49090909,3.52159692 5.71476672,3.74545455 5.99090909,3.74545455 C6.26705147,3.74545455 6.49090909,3.52159692 6.49090909,3.24545455 C6.49090909,2.96931217 6.26705147,2.74545455 5.99090909,2.74545455 Z" id="形状结合" fill="#57689C" opacity="0.55"></path>
        </g>
    </g>
</svg>