<?xml version="1.0" encoding="UTF-8"?>
<svg width="20px" height="20px" viewBox="0 0 20 20" version="1.1" xmlns="http://www.w3.org/2000/svg" xmlns:xlink="http://www.w3.org/1999/xlink">
    <title>frontend-second-menu</title>
    <defs>
        <linearGradient x1="-3.35277807%" y1="50.0024078%" x2="103.379328%" y2="50.0024078%" id="linearGradient-1">
            <stop stop-color="#0471EA" offset="0.4092262%"></stop>
            <stop stop-color="#2AC6CC" offset="76.74%"></stop>
        </linearGradient>
    </defs>
    <g id="frontend-second-menu" stroke="none" stroke-width="1" fill="none" fill-rule="evenodd" stroke-linejoin="round">
        <g id="SVGID_1_-link">
            <rect id="矩形" x="0" y="0" width="20" height="20"></rect>
            <path d="M17,2 C17.5522847,2 18,2.44771525 18,3 L18,14 C18,14.5522847 17.5522847,15 17,15 L10.6,15 L10.6,16.8 L17.4,16.8 C17.7313708,16.8 18,17.0686292 18,17.4 C18,17.7313708 17.7313708,18 17.4,18 L2.6,18 C2.26862915,18 2,17.7313708 2,17.4 C2,17.0686292 2.26862915,16.8 2.6,16.8 L9.4,16.8 L9.4,15 L3,15 C2.44771525,15 2,14.5522847 2,14 L2,3 C2,2.44771525 2.44771525,2 3,2 L17,2 Z M15.4377223,5.58963532 C15.2110842,5.34788796 14.8313827,5.33563952 14.5896353,5.56227768 L11.063,8.868 L9.46852129,6.87518297 C9.24994278,6.60195984 8.84489771,6.57296919 8.58963532,6.81227768 L4.58963532,10.5622777 C4.34788796,10.7889158 4.33563952,11.1686173 4.56227768,11.4103647 L4.64309354,11.4824343 C4.8715908,11.6518847 5.19547813,11.6391785 5.41036468,11.4377223 L8.937,8.131 L10.5314787,10.124817 C10.7500572,10.3980402 11.1551023,10.4270308 11.4103647,10.1877223 L15.4103647,6.43772232 C15.652112,6.21108417 15.6643605,5.83138269 15.4377223,5.58963532 Z" id="形状结合" fill="#57689C" fill-rule="nonzero" opacity="0.55"></path>
        </g>
    </g>
</svg>