<?xml version="1.0" encoding="UTF-8"?>
<svg width="20px" height="20px" viewBox="0 0 20 20" version="1.1" xmlns="http://www.w3.org/2000/svg" xmlns:xlink="http://www.w3.org/1999/xlink">
    <title>functional-use-case-set-second-menu</title>
    <g id="functional-use-case-set-second-menu" stroke="none" stroke-width="1" fill="none" fill-rule="evenodd">
        <g id="编组" transform="translate(2.000000, 2.938109)" fill="#57689C">
            <path d="M1.3158274,1.16256242 L7.47536736,3.21285472 C7.56490329,3.24265805 7.65763106,3.25945425 7.75078374,3.26322128 L7.75,13.6583604 L0.880286461,12.8307157 C0.416584303,12.7748022 0.0588810971,12.4073036 0.00659363445,11.953127 L0,11.8379072 L0,2.11137908 C2.08899183e-16,2.00403856 0.0172822636,1.89739815 0.0511833403,1.79555168 C0.225609997,1.27153471 0.791810428,0.988135765 1.3158274,1.16256242 Z M15,1.08836036 C15.5522847,1.08836036 16,1.53607561 16,2.08836036 L16,11.8379072 C16,12.34389 15.6220575,12.7701427 15.1197135,12.8307157 L8.25,13.6583604 L8.25,3.16736036 L14.6993194,1.13463548 C14.7641729,1.11418912 14.8308574,1.10043786 14.8983301,1.09354216 L15,1.08836036 Z M4.67723944,6.44332086 C4.38120542,6.26226097 3.98465918,6.34046698 3.79152862,6.61799888 C3.59839807,6.89553078 3.68181782,7.26729288 3.97785184,7.44835278 L6.18479243,8.79815851 C6.48082646,8.97921841 6.8773727,8.90101239 7.07050325,8.62348049 C7.2636338,8.34594859 7.18021406,7.97418649 6.88418003,7.7931266 Z M11.5212813,6.44140323 L9.28574589,7.79120896 C8.98858218,7.97063501 8.90283385,8.34193117 9.09422163,8.62052215 C9.28560941,8.89911313 9.68165865,8.97950219 9.97882236,8.80007615 L12.2143578,7.45027041 C12.5115215,7.27084437 12.5972698,6.8995482 12.4058821,6.62095722 C12.2144943,6.34236624 11.818445,6.26197718 11.5212813,6.44140323 Z M11.5212813,3.44140323 L9.28574589,4.79120896 C8.98858218,4.97063501 8.90283385,5.34193117 9.09422163,5.62052215 C9.28560941,5.89911313 9.68165865,5.97950219 9.97882236,5.80007615 L12.2143578,4.45027041 C12.5115215,4.27084437 12.5972698,3.8995482 12.4058821,3.62095722 C12.2144943,3.34236624 11.818445,3.26197718 11.5212813,3.44140323 Z M4.67547825,3.44224754 C4.37881192,3.26209954 3.98254162,3.34152533 3.79038375,3.61965 C3.59822588,3.89777468 3.68294672,4.26927809 3.97961304,4.4494261 L6.18655363,5.78957127 C6.48321995,5.96971927 6.87949026,5.89029348 7.07164813,5.6121688 C7.263806,5.33404413 7.17908516,4.96254071 6.88241883,4.78239271 Z" id="形状结合" fill-rule="nonzero" opacity="0.55"></path>
            <path d="M3.65171577,0.144997912 L7.74080878,2.62376385 L7.74933333,2.627 L7.74933333,13.562 L2.6823129,11.00199 C2.34562314,10.8318481 2.13333333,10.4867141 2.13333333,10.1094764 L2.13333333,1.00014682 C2.13333333,0.817361746 2.18343185,0.638072843 2.27818443,0.481764387 C2.56447914,0.00947868674 3.17943007,-0.1412968 3.65171577,0.144997912 Z M12.8666667,0.000146819655 C13.4189514,0.000146819655 13.8666667,0.44786207 13.8666667,1.00014682 L13.8666667,9.65377067 C13.8666667,10.0075181 13.6797726,10.3349432 13.3751761,10.5148271 L8.24933333,13.542 L8.25040888,2.62896634 L12.3482842,0.144997912 C12.5045927,0.0502453412 12.6838816,0.000146819655 12.8666667,0.000146819655 Z M3.79152862,6.61799888 C3.59839807,6.89553078 3.68181782,7.26729288 3.97785184,7.44835278 L6.18479243,8.79815851 C6.48082646,8.97921841 6.8773727,8.90101239 7.07050325,8.62348049 C7.2636338,8.34594859 7.18021406,7.97418649 6.88418003,7.7931266 L4.67723944,6.44332086 C4.38120542,6.26226097 3.98465918,6.34046698 3.79152862,6.61799888 Z M11.5212813,6.44140323 L9.28574589,7.79120896 C8.98858218,7.97063501 8.90283385,8.34193117 9.09422163,8.62052215 C9.28560941,8.89911313 9.68165865,8.97950219 9.97882236,8.80007615 L12.2143578,7.45027041 C12.5115215,7.27084437 12.5972698,6.8995482 12.4058821,6.62095722 C12.2144943,6.34236624 11.818445,6.26197718 11.5212813,6.44140323 Z M11.5212813,3.44140323 L9.28574589,4.79120896 C8.98858218,4.97063501 8.90283385,5.34193117 9.09422163,5.62052215 C9.28560941,5.89911313 9.68165865,5.97950219 9.97882236,5.80007615 L12.2143578,4.45027041 C12.5115215,4.27084437 12.5972698,3.8995482 12.4058821,3.62095722 C12.2144943,3.34236624 11.818445,3.26197718 11.5212813,3.44140323 Z M3.79038375,3.61965 C3.59822588,3.89777468 3.68294672,4.26927809 3.97961304,4.4494261 L6.18655363,5.78957127 C6.48321995,5.96971927 6.87949026,5.89029348 7.07164813,5.6121688 C7.263806,5.33404413 7.17908516,4.96254071 6.88241883,4.78239271 L4.67547825,3.44224754 C4.37881192,3.26209954 3.98254162,3.34152533 3.79038375,3.61965 Z" id="形状结合"></path>
        </g>
    </g>
</svg>