<?xml version="1.0" encoding="UTF-8"?>
<svg width="20px" height="20px" viewBox="0 0 20 20" version="1.1" xmlns="http://www.w3.org/2000/svg" xmlns:xlink="http://www.w3.org/1999/xlink">
    <title>gaussdb-for-opengauss-second-menu</title>
    <g id="gaussdb-for-opengauss-second-menu" stroke="none" stroke-width="1" fill="none" fill-rule="evenodd">
        <rect id="矩形" fill-opacity="0" fill="#D8D8D8" x="0" y="0" width="20" height="20"></rect>
        <g id="logo-dark" transform="translate(2.000000, 2.000000)">
            <rect id="矩形" fill-opacity="0" fill="#D8D8D8" x="0" y="0" width="16" height="16"></rect>
            <g id="图形" transform="translate(0.600000, 0.000000)" fill="#57689C" fill-rule="nonzero">
                <path d="M7.40476692,0 L7.40476692,1.75474037 C6.91536055,1.75474037 6.4254146,1.86211839 6.05417801,2.07633485 L1.1795395,4.89568245 L6.0547176,7.71449047 C6.79719077,8.14346297 8.01342225,8.14346297 8.75589542,7.71449047 L13.4677126,4.989 L10.0352587,3.13716497 L7.59362274,4.5411731 L7.55298529,4.56538246 C7.38561275,4.66936963 6.75628999,5.10234468 6.71139627,5.747692 C6.63207682,5.69589154 6.49178393,5.557757 6.47775464,5.44822062 L6.4750567,5.4131474 L6.4750567,3.69455943 C6.4750567,3.57261253 6.55437614,3.45120522 6.71139627,3.35893566 L10.0476692,1.43098753 L14.5688776,3.86560885 C14.718997,3.93937075 14.7962971,3.99440944 14.800778,4.0307249 L14.8009004,4.01777268 L14.8009004,5.77305264 C14.8009004,5.89715789 14.7199622,6.02126314 14.556467,6.11569105 L8.75589542,9.46923083 C8.01288266,9.89874293 6.79719077,9.89874293 6.0547176,9.46923083 L0.254145975,6.11569105 C0.0911903818,6.02126314 0.00971258505,5.89769748 0.00971258505,5.77305264 L0.00971258505,4.01777268 L0.0118709373,3.98108069 C0.0269794029,3.86992555 0.107917612,3.75984959 0.254145975,3.67567385 L6.05417801,0.321594483 C6.4254146,0.107378024 6.91536055,0 7.40476692,0 Z" id="形状结合"></path>
                <path d="M14.5688776,10.0649361 L14.5688776,11.8693185 C14.5688776,11.9966613 14.4879394,12.1245437 14.3276817,12.2216695 L8.61452335,15.668558 C7.88338153,16.1104807 6.68603563,16.1104807 5.95435422,15.668558 L0.241195862,12.2216695 C0.0798590326,12.1245437 0,11.9961217 0,11.8687789 L0,10.0645624 L0.00959603403,10.1408755 C0.0352027249,10.2421799 0.112126399,10.3394785 0.241195862,10.4167475 L5.95435422,13.8641756 C6.68603563,14.3055586 7.88338153,14.3055586 8.61452335,13.8641756 L14.3276817,10.4167475 C14.488479,10.3196216 14.5688776,10.1922788 14.5688776,10.0649361 Z M14.5688776,7.12310196 L14.5688776,8.92748442 C14.5688776,9.05536679 14.4879394,9.18216999 14.3276817,9.27929584 L8.61452335,12.7272635 C7.88338153,13.1686466 6.68603563,13.1686466 5.95435422,12.7272635 L0.241195862,9.27875625 C0.0798590326,9.1816304 0,9.05428762 0,8.92694484 L0,7.12256237 C0,7.25044474 0.0798590326,7.37778752 0.241195862,7.47491337 L5.95435422,10.9228811 C6.68603563,11.3642641 7.88338153,11.3642641 8.61452335,10.9228811 L14.3276817,7.47491337 C14.488479,7.37778752 14.5688776,7.25044474 14.5688776,7.12310196 Z" id="形状结合" opacity="0.550000012"></path>
            </g>
        </g>
    </g>
</svg>