<?xml version="1.0" encoding="UTF-8"?>
<svg width="20px" height="20px" viewBox="0 0 20 20" version="1.1" xmlns="http://www.w3.org/2000/svg" xmlns:xlink="http://www.w3.org/1999/xlink">
    <title>grouping-rules-second-menu</title>
    <g id="grouping-rules-second-menu" stroke="none" stroke-width="1" fill="none" fill-rule="evenodd">
        <g id="grouping-rules">
            <rect id="矩形" x="0" y="0" width="20" height="20"></rect>
            <path d="M17.4,3 C18.0075132,3 18.5,3.49248678 18.5,4.1 L18.5,13.625 C18.5,14.3843915 18.0522847,15 17.5,15 L16.5,15 L16.5,6.2 C16.5,5.57867966 16.0362325,5.06764746 15.4419307,5.00619546 L15.3214286,5 L3.5,5 L3.5,4.1 C3.5,3.49248678 3.99248678,3 4.6,3 L17.4,3 Z" id="路径" fill="#57689C"></path>
            <path d="M15.3214286,5 C15.9723356,5 16.5,5.5372583 16.5,6.2 L16.5,15.5 C16.5,16.3284271 16.0203051,17 15.4285714,17 L2.57142857,17 C1.97969491,17 1.5,16.3284271 1.5,15.5 L1.5,6.2 C1.5,5.5372583 2.0276644,5 2.67857143,5 L15.3214286,5 Z M8.5,13 L3.5,13 L3.5,14 L8.5,14 L8.5,13 Z M13.5,8 L3.5,8 L3.5,9 L13.5,9 L13.5,8 Z M13.5,10.5 L3.5,10.5 L3.5,11.5 L13.5,11.5 L13.5,10.5 Z" id="形状" fill="#57689C" fill-rule="nonzero" opacity="0.55"></path>
        </g>
    </g>
</svg>