<?xml version="1.0" encoding="UTF-8"?>
<svg width="20px" height="20px" viewBox="0 0 20 20" version="1.1" xmlns="http://www.w3.org/2000/svg" xmlns:xlink="http://www.w3.org/1999/xlink">
    <title>group-alert-second-menu</title>
    <g id="group-alert-second-menu" stroke="none" stroke-width="1" fill="none" fill-rule="evenodd">
        <g id="分组-(1)" transform="translate(2.000000, 2.000000)">
            <g id="编组" transform="translate(4.449757, 7.600642)"></g>
            <path d="M10.72,4.21416825 C11.4436923,4.21416825 12.032,4.84186056 12.032,5.61355286 L12.032,14.5981682 C12.032,15.3698605 11.4436923,15.9975529 10.72,15.9975529 L1.312,15.9975529 C0.588307687,15.9975529 0,15.3698605 0,14.5981682 L0,5.61355286 C0,4.84186054 0.588307687,4.21416825 1.312,4.21416825 L10.72,4.21416825 Z M6.39666982,11.5427247 L5.68697202,11.5427247 C5.59146991,11.5433949 5.51421521,11.6206496 5.513545,11.7161517 L5.513545,12.4258496 C5.51421521,12.5213517 5.59146991,12.5986064 5.68697202,12.5992766 L6.39666982,12.5992766 C6.4414281,12.6052927 6.48655964,12.5912454 6.51999738,12.5608906 C6.55343511,12.5305358 6.57176894,12.4869691 6.57009684,12.4418393 L6.57009684,11.7161517 C6.56909818,11.6207874 6.4920342,11.5437234 6.39666982,11.5427247 Z M6.57009669,7.60064248 L5.49755512,7.60064248 C5.39923368,7.60897144 5.32377595,7.69138626 5.3241281,7.79005922 L5.4815654,10.8336419 C5.48256406,10.9290063 5.55962804,11.0060703 5.65499242,11.0070689 L6.39605468,11.0070689 C6.49141906,11.0060703 6.56848304,10.9290063 6.5694817,10.8336419 L6.74290872,7.79005922 C6.74637093,7.74175843 6.72953927,7.69436296 6.69686556,7.65867678 C6.66419186,7.62299061 6.61846071,7.60205507 6.57009669,7.60064248 Z" id="形状结合" fill="#57689C" fill-rule="nonzero"></path>
            <path d="M12.6953846,2.10216825 C13.4190769,2.10216825 14.0073846,2.72986056 14.0073846,3.50155286 L14.0073846,12.4861682 C14.0073846,12.8135529 13.76,13.0769375 13.4510769,13.0769375 C13.1396923,13.0769375 12.8996923,12.8184759 12.8996923,12.4738605 L12.8996923,3.48924517 C12.8996923,3.38216825 12.8110769,3.28616825 12.7113846,3.28616825 L4.288,3.28616825 C3.98030769,3.28616825 3.73169231,3.02155286 3.73169231,2.69416825 C3.73169231,2.36555286 3.9803077,2.10216825 4.288,2.10216825 L12.6953846,2.10216825 Z M14.6855385,7.17294824e-06 C15.4116923,-0.00244714319 16,0.625245169 16,1.39816825 L16,10.3827836 C16,10.7101682 15.7526154,10.9735529 15.4449231,10.9735529 C15.2881276,10.9683949 15.1403589,10.8989614 15.0363077,10.7815529 C14.9312885,10.6645759 14.8781079,10.5121249 14.8873846,10.3569375 L14.8873846,1.38216825 C14.8873846,1.27386056 14.7987692,1.17786056 14.6990769,1.17786054 L6.28061539,1.17786054 C5.97046153,1.17909133 5.72307692,0.914475935 5.72307692,0.588322091 C5.72307692,0.259706701 5.97046153,7.17294824e-06 6.27815384,7.17294824e-06 L14.6855385,7.17294824e-06 Z" id="形状结合" fill="#57689C" fill-rule="nonzero" opacity="0.55"></path>
        </g>
    </g>
</svg>