<?xml version="1.0" encoding="UTF-8"?>
<svg width="20px" height="20px" viewBox="0 0 20 20" version="1.1" xmlns="http://www.w3.org/2000/svg" xmlns:xlink="http://www.w3.org/1999/xlink">
    <title>grouping rules-second menu-normal</title>
    <g id="grouping-rules-second-menu-normal" stroke="none" stroke-width="1" fill="none" fill-rule="evenodd">
        <g id="grouping-rules">
            <rect id="矩形" x="0" y="0" width="20" height="20"></rect>
            <path d="M17.4,3 C18.0075132,3 18.5,3.49248678 18.5,4.1 L18.5,12.625 C18.5,13.3843915 18.0522847,14 17.5,14 L15.5,14 L15.5,7.1 C15.5,6.53298766 15.0709893,6.06617613 14.5198571,6.00645465 L14.4,6 L4.5,6 L4.5,4.1 C4.5,3.49248678 4.99248678,3 5.6,3 L17.4,3 Z" id="路径" fill="#242C4F"></path>
            <path d="M15.9,4.5 C16.5075132,4.5 17,4.99248678 17,5.6 L17,14.125 C17,14.8843915 16.5522847,15.5 16,15.5 L15.5,15.5 L15.5,7.1 C15.5,6.53298766 15.0709893,6.06617613 14.5198571,6.00645465 L14.4,6 L3,6 L3,5.6 C3,4.99248678 3.49248678,4.5 4.1,4.5 L15.9,4.5 Z" id="形状结合" fill="#FFFFFF" opacity="0.55"></path>
            <path d="M15.9,4.5 C16.5075132,4.5 17,4.99248678 17,5.6 L17,14.125 C17,14.8843915 16.5522847,15.5 16,15.5 L15.5,15.5 L15.5,7.1 C15.5,6.53298766 15.0709893,6.06617613 14.5198571,6.00645465 L14.4,6 L3,6 L3,5.6 C3,4.99248678 3.49248678,4.5 4.1,4.5 L15.9,4.5 Z" id="路径" fill="#57689C"></path>
            <path d="M14.4,6 C15.0075132,6 15.5,6.49248678 15.5,7.1 L15.5,15.625 C15.5,16.3843915 15.0522847,17 14.5,17 L2.5,17 C1.94771525,17 1.5,16.3843915 1.5,15.625 L1.5,7.1 C1.5,6.49248678 1.99248678,6 2.6,6 L14.4,6 Z M8.5,13 L3.5,13 L3.5,14 L8.5,14 L8.5,13 Z M13.5,9 L3.5,9 L3.5,10 L13.5,10 L13.5,9 Z" id="形状" fill="#9FAECF"></path>
        </g>
    </g>
</svg>