<?xml version="1.0" encoding="UTF-8"?>
<svg width="20px" height="20px" viewBox="0 0 20 20" version="1.1" xmlns="http://www.w3.org/2000/svg" xmlns:xlink="http://www.w3.org/1999/xlink">
    <title>haproxy-second-menu</title>
    <g id="haproxy-second-menu" stroke="none" stroke-width="1" fill="none" fill-rule="evenodd">
        <rect id="矩形" fill-opacity="0" fill="#D8D8D8" x="0" y="0" width="20" height="20"></rect>
        <g id="haproxy" transform="translate(2.000000, 2.000000)">
            <polygon id="背景" points="0 0 16 0 16 16 10.8820796 16 0 16"></polygon>
            <g id="图形" transform="translate(0.380541, 0.253189)" fill="#57689C" fill-rule="nonzero" opacity="0.550000012">
                <path d="M6.54702703,9.04843243 L9.05945946,9.04843243 L9.05945946,11.5608649 L6.54702703,11.5608649 Z M4.03459459,6.536 L6.54702703,6.536 L6.54702703,9.04843243 L4.03459459,9.04843243 Z M9.05945946,4.02356757 L9.05945946,6.536 L6.54702703,6.536 L6.54702703,4.02356757 L9.05945946,4.02356757 Z M6.54702703,2.76518919 L6.54702703,4.02356757 L5.28864865,4.02356757 L5.28864865,2.76518919 L6.54702703,2.76518919 Z M9.05945946,6.536 L11.5718919,6.536 L11.5718919,9.04843243 L9.05945946,9.04843243 Z M9.05945946,2.76518919 L10.3178378,2.76518919 L10.3178378,4.02356757 L9.05945946,4.02356757 Z M9.05945946,11.5651892 L10.3178378,11.5651892 L10.3178378,12.8235676 L9.05945946,12.8235676 Z M5.28864865,11.5651892 L6.54702703,11.5651892 L6.54702703,12.8235676 L5.28864865,12.8235676 Z M4.03459459,5.27762162 L4.03459459,6.536 L2.77621622,6.536 L2.77621622,5.27762162 L4.03459459,5.27762162 Z M4.03459459,9.04843243 L4.03459459,10.3068108 L2.77621622,10.3068108 L2.77621622,9.04843243 L4.03459459,9.04843243 Z M12.8345946,5.27762162 L12.8345946,6.536 L11.5762162,6.536 L11.5762162,5.27762162 L12.8345946,5.27762162 Z M12.8345946,9.04843243 L12.8345946,10.3068108 L11.5762162,10.3068108 L11.5762162,9.04843243 L12.8345946,9.04843243 Z M6.54702703,1.19545946 L7.17405405,1.19545946 L7.17405405,1.82248649 L6.54702703,1.82248649 Z M4.66162162,1.82248649 L5.28864865,1.82248649 L5.28864865,2.44951351 L4.66162162,2.44951351 Z M10.3178378,1.82248649 L10.9448649,1.82248649 L10.9448649,2.44951351 L10.3178378,2.44951351 Z M8.43243243,1.19545946 L9.05945946,1.19545946 L9.05945946,1.82248649 L8.43243243,1.82248649 Z M13.8162162,6.59654054 L14.4432432,6.59654054 L14.4432432,7.22356757 L13.8162162,7.22356757 Z M13.1848649,4.65059459 L13.8118919,4.65059459 L13.8118919,5.27762162 L13.1848649,5.27762162 Z M1.94162162,4.65059459 L2.56864865,4.65059459 L2.56864865,5.27762162 L1.94162162,5.27762162 Z M1.24540541,6.536 L1.87243243,6.536 L1.87243243,7.16302703 L1.24540541,7.16302703 Z M1.24540541,8.42140541 L1.87243243,8.42140541 L1.87243243,9.04843243 L1.24540541,9.04843243 Z M2.02378378,10.4149189 L2.65081081,10.4149189 L2.65081081,11.0419459 L2.02378378,11.0419459 Z M13.8162162,8.42140541 L14.4432432,8.42140541 L14.4432432,9.04843243 L13.8162162,9.04843243 Z M13.1459459,10.3803243 L13.772973,10.3803243 L13.772973,11.0073514 L13.1459459,11.0073514 Z M6.54702703,13.723027 L7.17405405,13.723027 L7.17405405,14.3500541 L6.54702703,14.3500541 Z M4.52756757,12.923027 L5.15459459,12.923027 L5.15459459,13.5500541 L4.52756757,13.5500541 Z M10.3178378,13.1349189 L10.9448649,13.1349189 L10.9448649,13.7619459 L10.3178378,13.7619459 Z M8.43243243,13.7835676 L9.05945946,13.7835676 L9.05945946,14.4105946 L8.43243243,14.4105946 Z M3.04432432,3.08086486 L3.67135135,3.08086486 L3.67135135,3.70789189 L3.04432432,3.70789189 Z M3.03567568,11.8765405 L3.6627027,11.8765405 L3.6627027,12.5035676 L3.03567568,12.5035676 Z M12.0648649,11.8203243 L12.6918919,11.8203243 L12.6918919,12.4473514 L12.0648649,12.4473514 Z M12.0691892,3.15005405 L12.6962162,3.15005405 L12.6962162,3.77708108 L12.0691892,3.77708108 Z M0.125405405,9.04843243 L0.428108108,9.04843243 L0.428108108,9.35113514 L0.125405405,9.35113514 Z M0,8.1187027 L0.302702703,8.1187027 L0.302702703,8.42140541 L0,8.42140541 Z M0.856216216,11.0419459 L1.15891892,11.0419459 L1.15891892,11.3446486 L0.856216216,11.3446486 Z M0.428108108,10.0949189 L0.730810811,10.0949189 L0.730810811,10.3976216 L0.428108108,10.3976216 Z M1.90702703,12.6678919 L2.20972973,12.6678919 L2.20972973,12.9705946 L1.90702703,12.9705946 Z M1.31891892,11.9327568 L1.62162162,11.9327568 L1.62162162,12.2354595 L1.31891892,12.2354595 Z M3.55891892,13.9997838 L3.86162162,13.9997838 L3.86162162,14.3024865 L3.55891892,14.3024865 Z M2.70702703,13.4073514 L3.00972973,13.4073514 L3.00972973,13.7100541 L2.70702703,13.7100541 Z M4.48,14.4884324 L4.7827027,14.4884324 L4.7827027,14.7911351 L4.48,14.7911351 Z M6.44324324,15.1154595 L6.74594595,15.1154595 L6.74594595,15.4181622 L6.44324324,15.4181622 Z M5.40108108,14.8905946 L5.70378378,14.8905946 L5.70378378,15.1932973 L5.40108108,15.1932973 Z M8.86918919,15.2019459 L9.17189189,15.2019459 L9.17189189,15.5046486 L8.86918919,15.5046486 Z M7.65405405,15.2668108 L7.95675676,15.2668108 L7.95675676,15.5695135 L7.65405405,15.5695135 Z M0.125405405,6.1987027 L0.428108108,6.1987027 L0.428108108,6.50140541 L0.125405405,6.50140541 Z M0,7.12843243 L0.302702703,7.12843243 L0.302702703,7.43113514 L0,7.43113514 Z M0.856216216,4.20518919 L1.15891892,4.20518919 L1.15891892,4.50789189 L0.856216216,4.50789189 Z M0.428108108,5.15221622 L0.730810811,5.15221622 L0.730810811,5.45491892 L0.428108108,5.45491892 Z M1.90702703,2.58356757 L2.20972973,2.58356757 L2.20972973,2.88627027 L1.90702703,2.88627027 Z M1.31891892,3.31437838 L1.62162162,3.31437838 L1.62162162,3.61708108 L1.31891892,3.61708108 Z M3.55891892,1.24735135 L3.86162162,1.24735135 L3.86162162,1.55005405 L3.55891892,1.55005405 Z M2.70702703,1.83978378 L3.00972973,1.83978378 L3.00972973,2.14248649 L2.70702703,2.14248649 Z M4.48,0.758702703 L4.7827027,0.758702703 L4.7827027,1.06140541 L4.48,1.06140541 Z M6.44324324,0.153297297 L6.74594595,0.153297297 L6.74594595,0.456 L6.44324324,0.456 Z M5.40108108,0.356540541 L5.70378378,0.356540541 L5.70378378,0.659243243 L5.40108108,0.659243243 Z M15.428627,9.36895135 L15.1259243,9.36895135 L15.1259243,9.06624865 L15.428627,9.06624865 Z M15.5514378,8.44121081 L15.2487351,8.44121081 L15.2487351,8.13850811 L15.5514378,8.13850811 Z M14.6976432,11.3647135 L14.3949405,11.3647135 L14.3949405,11.0620108 L14.6976432,11.0620108 Z M15.1222919,10.4163027 L14.8195892,10.4163027 L14.8195892,10.1136 L15.1222919,10.1136 Z M13.6434162,12.9887135 L13.3407135,12.9887135 L13.3407135,12.6860108 L13.6434162,12.6860108 Z M14.2340324,12.2528865 L13.9313297,12.2528865 L13.9313297,11.9501838 L14.2340324,11.9501838 Z M11.9914811,14.3216865 L11.6887784,14.3216865 L11.6887784,14.0189838 L11.9914811,14.0189838 Z M12.8475676,13.7291676 L12.5448649,13.7291676 L12.5448649,13.4264649 L12.8475676,13.4264649 Z M11.0719568,14.8114162 L10.7692541,14.8114162 L10.7692541,14.5087135 L11.0719568,14.5087135 Z M10.1513946,15.2133622 L9.84869189,15.2133622 L9.84869189,14.9106595 L10.1513946,14.9106595 Z M15.428627,6.52177297 L15.1259243,6.52177297 L15.1259243,6.21907027 L15.428627,6.21907027 Z M15.5514378,7.44955676 L15.2487351,7.44955676 L15.2487351,7.14685405 L15.5514378,7.14685405 Z M14.6976432,4.52605405 L14.3949405,4.52605405 L14.3949405,4.22335135 L14.6976432,4.22335135 Z M15.1222919,5.47446486 L14.8195892,5.47446486 L14.8195892,5.17176216 L15.1222919,5.17176216 Z M13.6434162,2.90205405 L13.3407135,2.90205405 L13.3407135,2.59935135 L13.6434162,2.59935135 Z M14.2340324,3.63788108 L13.9313297,3.63788108 L13.9313297,3.33517838 L14.2340324,3.33517838 Z M11.9914811,1.56903784 L11.6887784,1.56903784 L11.6887784,1.26633514 L11.9914811,1.26633514 Z M12.8475676,2.16155676 L12.5448649,2.16155676 L12.5448649,1.85885405 L12.8475676,1.85885405 Z M11.0719568,1.07935135 L10.7692541,1.07935135 L10.7692541,0.776648649 L11.0719568,0.776648649 Z M9.11619459,0.453751351 L8.81349189,0.453751351 L8.81349189,0.151048649 L9.11619459,0.151048649 Z M10.1513946,0.677362162 L9.84869189,0.677362162 L9.84869189,0.374659459 L10.1513946,0.374659459 Z M7.95502703,0.302702703 L7.65232432,0.302702703 L7.65232432,-5.55111512e-17 L7.95502703,0 Z" id="形状结合"></path>
            </g>
        </g>
    </g>
</svg>