<?xml version="1.0" encoding="UTF-8"?>
<svg width="20px" height="20px" viewBox="0 0 20 20" version="1.1" xmlns="http://www.w3.org/2000/svg" xmlns:xlink="http://www.w3.org/1999/xlink">
    <title>hbase-second-menu</title>
    <g id="hbase-second-menu" stroke="none" stroke-width="1" fill="none" fill-rule="evenodd">
        <rect id="矩形" fill-opacity="0" fill="#D8D8D8" x="0" y="0" width="20" height="20"></rect>
        <g id="HBASE" transform="translate(1.000000, 2.000000)">
            <rect id="矩形" fill-opacity="0" fill="#D8D8D8" x="1" y="0" width="16" height="16"></rect>
            <path d="M10.3002353,9.43884012 L7.64055012,9.43884012 C7.19726926,9.43884012 6.79428666,9.64033142 6.51219882,9.96271749 C6.10921623,10.4462966 5.78683014,11.0910688 5.18235624,11.3328583 C5.10175973,11.4134548 5.06146146,11.4940514 5.06146146,11.6149462 C5.06146146,11.6552444 5.18235624,11.7358409 5.26295277,11.7358409 C5.98832145,11.9373322 6.75398839,11.9776305 7.47935707,11.8164375 C8.52711184,11.6955427 9.49427007,11.2119636 10.1390422,10.4059983 C10.3002353,10.204507 10.4211301,9.96271749 10.5017266,9.72092793 C10.6226213,9.55973489 10.5017266,9.43884012 10.3002353,9.43884012 L10.3002353,9.43884012 Z M1.67640762,8.14929578 C1.55551284,8.028401 1.47491631,7.8269097 1.31372329,7.66571667 C1.23312678,7.5448219 1.15253025,7.50452363 0.991337204,7.62541841 C0.427161566,8.31048882 0.265968524,9.23734881 0.58835459,10.043314 L1.67640762,8.14929578 Z M16.2240795,8.35078709 C16.0225882,8.35078709 15.9016934,8.22989231 15.8210969,8.028401 C15.2972195,7.26273406 14.6524474,6.49706711 14.0076752,5.8119967 C12.7987274,4.52245238 11.1062005,3.7970837 9.33307703,3.71648717 C8.3659188,3.67618891 7.35846228,3.75678544 6.39130405,3.87768021 C5.98832145,3.95827673 5.58533884,3.75678544 5.38384755,3.39410111 C5.30325103,3.23290806 5.22265451,3.11201329 5.18235624,2.95082025 C5.06146146,2.38664461 4.90026842,1.74187244 4.81967191,1.21799505 C4.77937364,1.01650374 4.7390754,0.935907231 4.49728583,1.05680201 C4.17489974,1.17769678 3.93311019,1.4597846 3.89281192,1.7821707 C3.81221541,2.06425852 3.77191715,2.38664461 3.73161888,2.66873243 C3.73161888,3.35380284 3.77191715,4.03887327 3.85251366,4.72394369 C3.93311017,5.08662804 3.81221539,5.44931237 3.53012759,5.69110192 C3.20774151,6.05378627 3.00625022,6.4164706 2.72416238,6.73885669 C1.71670588,8.028401 0.910740674,9.43884012 0.386863301,10.970174 C0.0644772173,11.7358409 -0.0564175598,12.5821044 0.0241789525,13.3880696 C0.0644772173,13.6701574 0.104775465,13.9522452 0.104775482,14.2343331 C0.185371994,14.6373157 0.548056343,14.9597017 0.951038939,15 C1.35402153,15 1.71670588,14.838807 1.9987937,14.5567191 C2.52267108,14.1537365 3.12714498,13.8313505 3.73161888,13.5492626 C4.45698756,13.1865783 5.14205798,12.7432974 5.70623363,12.1791218 L5.82712841,12.058227 C5.50474232,11.9776305 5.30325103,11.9373322 5.0211632,11.8567357 C4.69877711,11.7761392 4.65847885,11.5343496 4.90026842,11.3731566 C4.94056669,11.2925601 5.06146146,11.2522618 5.10175973,11.1716653 C5.30325103,10.970174 5.54504059,10.7686827 5.70623363,10.6074897 C5.90772494,10.4059983 6.06891798,10.1642088 6.18981276,9.92241922 C6.47190058,9.55973488 6.91518144,9.35824359 7.39876054,9.35824359 L8.28532227,9.35824359 C8.48681357,9.35824359 8.68830486,9.27764707 8.84949792,9.1567523 C9.25248052,8.79406795 9.69576138,8.43138362 10.1793405,8.10899753 C10.8241127,7.70601494 11.5494814,7.50452363 12.3151483,7.58512014 C13.6852891,7.70601492 14.6121491,8.4313836 15.4584126,9.43884012 C15.4987108,9.47913838 15.4987108,9.51943663 15.4987108,9.55973489 C15.4987108,9.60003316 15.4181143,9.60003316 15.4181143,9.60003316 L14.4509561,8.59257664 C14.289763,8.79406795 14.1688683,8.99555924 14.0479735,9.11645403 C13.8464822,9.31794534 13.6449909,9.55973489 13.4837978,9.80152445 C13.20171,10.204507 13.3226048,10.7283844 13.6852891,11.0507705 C13.7255874,11.0104723 13.7658856,10.970174 13.7658856,10.9298757 C13.8061839,10.7283844 13.8061839,10.5671914 14.0479735,10.5671914 C14.12857,10.5671914 14.0882717,10.4462966 14.2494648,10.4462966 C14.289763,10.4462966 14.289763,10.4865949 14.3703595,10.4865949 C14.4106578,10.4865949 14.4509561,10.4059984 14.4912543,10.3657001 C14.6121491,10.3254018 14.7330439,10.3254018 14.8539387,10.3254018 C15.05543,10.3254018 15.1763248,10.2448053 15.1763248,10.1239105 C15.1763248,10.043314 15.216623,10.0030158 15.2569213,9.80152445 C15.2972195,10.0836123 15.5793073,10.3254018 15.8613952,10.2851036 L16.304676,10.2851036 C16.5061673,10.2851036 16.7076586,10.3657001 16.8688517,10.4462966 C17.1509395,10.5268931 17.392729,10.7283844 17.4733256,11.0104723 C17.5136238,11.0104723 17.5539221,11.0104723 17.5942203,10.9298757 C17.7151151,10.8492792 17.7957117,10.6880862 17.7957117,10.4865949 C17.9569047,9.51943665 17.3121325,8.71347144 16.2240795,8.35078709 L16.2240795,8.35078709 Z M4.45698756,10.1239105 C4.73907538,10.1239105 4.77937364,10.1642088 4.65847887,10.4462966 C4.6181806,10.4865949 4.6181806,10.5268931 4.6181806,10.6074897 C4.57788234,11.0104723 4.33609278,11.3731566 4.0137067,11.5746479 C3.81221539,11.6955427 3.65102235,11.8164374 3.48982933,11.9776305 C3.36893455,12.0179288 3.20774151,12.0985253 3.08684673,12.058227 C3.04654847,12.0179288 3.00625022,11.9776305 3.0062502,11.897034 C2.96595194,11.7761392 2.96595194,11.6149462 3.0062502,11.4537531 C3.16744324,10.7686827 3.73161888,10.2448053 4.45698756,10.1239105 L4.45698756,10.1239105 Z M2.92565369,12.5418061 C3.0062502,12.4209114 3.127145,12.3000166 3.28833802,12.2194201 C3.36893455,12.2194201 3.36893455,12.2597183 3.36893455,12.3403148 C3.36893455,12.4209113 3.08684673,12.6627009 2.92565369,12.6224027 C2.84505718,12.6224027 2.92565369,12.5821044 2.92565369,12.5418061 L2.92565369,12.5418061 Z M5.50474232,12.3000166 C5.18235624,12.6224027 4.77937364,12.9044905 4.37639105,13.1059818 C4.05400496,13.2671748 3.77191715,13.4686661 3.44953106,13.5895609 C3.0062502,13.8716487 2.56296934,14.1134383 2.07939021,14.4358244 C1.75700413,14.6776139 1.35402153,14.7985087 0.951038939,14.8791052 L0.951038939,14.7985087 C1.3943198,14.6373157 1.75700415,14.3552278 2.07939021,13.9925435 C2.32117977,13.7910522 2.56296934,13.6298592 2.84505716,13.5089644 C3.36893453,13.1865783 3.81221539,12.7835957 4.17489974,12.2597183 C4.45698756,11.8567357 4.45698756,11.8567357 4.77937364,12.0985253 C5.06146146,12.1791218 5.18235624,12.1791218 5.50474232,12.3000166 L5.50474232,12.3000166 Z M11.9121657,6.98064624 C12.3151483,6.98064624 12.6778326,7.02094451 13.0808152,7.10154103 C13.3226048,7.18213755 13.5643943,7.30303234 13.6852891,7.5448219 C13.20171,7.42392712 12.9599204,7.34333059 12.5166396,7.26273406 C11.5494814,7.14183928 10.6226214,7.4239271 9.89725267,8.06869927 C9.57486658,8.35078709 9.2524805,8.63287491 8.9703927,8.91496273 C8.80919966,9.07615577 8.80919966,9.11645403 8.40621706,9.11645403 C8.76890141,8.55227839 9.09128748,7.98810276 9.41367356,7.4239271 C10.4614283,5.61050539 13.1211135,5.89259321 14.0479735,6.98064624 C14.0882717,7.02094451 14.0882717,7.06124275 14.12857,7.14183928 C13.6852891,6.90004973 13.1614118,6.73885669 12.6778326,6.69855842 C12.4360431,6.69855842 12.1942535,6.73885669 11.9524639,6.77915495 C11.9121657,6.77915495 11.7912709,6.85975146 11.7912709,6.94034799 C11.6703761,6.98064626 11.8315692,6.98064626 11.9121657,6.98064624 L11.9121657,6.98064624 Z M17.4733256,10.3254018 C17.1509395,9.88212098 16.7882552,9.96271749 16.3449743,9.96271749 L15.9822899,9.96271749 C15.7807986,10.0030158 15.5793073,9.88212098 15.5390091,9.68062967 C15.4987108,9.64033141 15.4584126,9.55973489 15.4181143,9.55973489 C15.377816,9.55973489 15.377816,9.60003316 15.3375178,9.60003316 C15.1763248,10.0030158 14.8539387,10.043314 14.4509561,10.043314 C14.2494648,10.0030158 14.0479735,10.1239105 13.9673769,10.3254018 C13.9673769,10.3657001 13.8464822,10.4059983 13.8464822,10.4059983 C13.8061839,10.3657001 13.7658856,10.3254018 13.7658856,10.2448053 C13.8061839,10.0836123 13.8867804,9.96271749 13.9673769,9.80152445 C14.2494648,9.4388401 14.4509561,9.19705054 14.7330439,8.83436621 C14.8539387,8.99555926 15.0151317,9.11645403 15.1763248,9.27764707 C15.2972195,9.39854185 15.3778161,9.55973489 15.5793073,9.64033141 C15.6599039,9.68062967 15.7807987,9.68062967 15.9016934,9.64033141 C15.9419917,9.55973489 15.9419917,9.4388401 15.9016934,9.31794534 C15.8210969,9.1567523 15.7002021,9.03585752 15.5793073,8.87466448 C15.4987108,8.79406797 15.4584126,8.67317317 15.2972195,8.51198013 C16.2240795,8.39108535 17.6345186,9.55973489 17.4733256,10.3254018 L17.4733256,10.3254018 Z" id="tuxing" fill="#57689C" fill-rule="nonzero"></path>
        </g>
    </g>
</svg>