<?xml version="1.0" encoding="UTF-8"?>
<svg width="20px" height="20px" viewBox="0 0 20 20" version="1.1" xmlns="http://www.w3.org/2000/svg" xmlns:xlink="http://www.w3.org/1999/xlink">
    <title>hi-event-second-menu</title>
    <g id="hi-event-second-menu" stroke="none" stroke-width="1" fill="none" fill-rule="evenodd">
        <g id="事件备份-2" transform="translate(2.000000, 2.000000)" fill="#57689C" fill-rule="nonzero">
            <path d="M3.11,2.2 L3.1102994,4.23944246 C3.1102994,5.06786959 3.78187227,5.73944246 4.6102994,5.73944246 C5.43872652,5.73944246 6.1102994,5.06786959 6.1102994,4.23944246 L6.11,2.2 L9.967,2.2 L9.96744225,4.23944246 C9.96744225,5.01913858 10.5623303,5.65989114 11.3229822,5.73257588 L11.4674423,5.73944246 C12.2958694,5.73944246 12.9674423,5.06786959 12.9674423,4.23944246 L12.967,2.2 L15,2.2 C15.5522847,2.2 16,2.64771525 16,3.2 L16,14.9142857 C16,15.4665705 15.5522847,15.9142857 15,15.9142857 L1,15.9142857 C0.44771525,15.9142857 6.76353751e-17,15.4665705 0,14.9142857 L0,3.2 C-6.76353751e-17,2.64771525 0.44771525,2.2 1,2.2 L3.11,2.2 Z M5.525,7.08714286 L4.125,7.08714286 L4.125,13.7771429 L5.525,13.7771429 L5.525,10.7271429 L8.065,10.7271429 L8.065,13.7771429 L9.465,13.7771429 L9.465,7.08714286 L8.065,7.08714286 L8.065,9.79714286 L5.525,9.79714286 L5.525,7.08714286 Z M11.565,8.82714286 L10.175,8.82714286 L10.175,13.7471429 L11.565,13.7471429 L11.565,8.82714286 Z M11.565,7.02714286 L10.175,7.02714286 L10.175,8.24714286 L11.565,8.24714286 L11.565,7.02714286 Z" id="形状结合"></path>
            <path d="M4.6102994,0 C4.94167025,0 5.2102994,0.26862915 5.2102994,0.6 L5.2102994,4.23944246 C5.2102994,4.57081331 4.94167025,4.83944246 4.6102994,4.83944246 C4.27892855,4.83944246 4.0102994,4.57081331 4.0102994,4.23944246 L4.0102994,0.6 C4.0102994,0.26862915 4.27892855,0 4.6102994,0 Z" id="路径-59" opacity="0.550000012"></path>
            <path d="M11.4674423,0 C11.7988131,0 12.0674423,0.26862915 12.0674423,0.6 L12.0674423,4.23944246 C12.0674423,4.57081331 11.7988131,4.83944246 11.4674423,4.83944246 C11.1360714,4.83944246 10.8674423,4.57081331 10.8674423,4.23944246 L10.8674423,0.6 C10.8674423,0.26862915 11.1360714,0 11.4674423,0 Z" id="路径-59备份" opacity="0.550000012"></path>
        </g>
    </g>
</svg>