<?xml version="1.0" encoding="UTF-8"?>
<svg width="20px" height="20px" viewBox="0 0 20 20" version="1.1" xmlns="http://www.w3.org/2000/svg" xmlns:xlink="http://www.w3.org/1999/xlink">
    <title>high-load-second-menu</title>
    <g id="high-load-second-menu" stroke="none" stroke-width="1" fill="none" fill-rule="evenodd">
        <rect id="矩形" x="0" y="0" width="20" height="20"></rect>
        <g id="hospital" transform="translate(2.000000, 2.000000)" fill="#57689C" fill-rule="nonzero">
            <path d="M15.9985001,1.99925007 L15.9985001,13.5987251 C15.9985001,14.9141018 14.9141018,15.9985001 13.5987251,15.9985001 L2.39977502,15.9985001 C1.08439834,15.9985001 0,14.9141018 0,13.5987251 L0,1.99925007 L15.9985001,1.99925007 Z M6.39940006,3.99962503 L4.79955005,3.99962503 L4.79955005,11.9988751 L6.39940006,11.9988751 L6.39940006,8.79917508 L9.59910008,8.79917508 L9.59910008,11.9988751 L11.1989501,11.9988751 L11.1989501,3.99962503 L9.59910008,3.99962503 L9.59910008,7.19932506 L6.39940006,7.19932506 L6.39940006,3.99962503 Z" id="形状"></path>
            <path d="M13.5987251,0 C14.7496797,0 15.7237915,0.83024247 15.9493358,1.9190027 L15.963,2 L0.036,2 L0.0491643364,1.91900271 C0.263968418,0.882088207 1.15774531,0.0796569206 2.23661768,0.00558617337 L2.39977502,0 Z" id="形状" opacity="0.550000012"></path>
        </g>
    </g>
</svg>