<?xml version="1.0" encoding="UTF-8"?>
<svg width="20px" height="20px" viewBox="0 0 20 20" version="1.1" xmlns="http://www.w3.org/2000/svg" xmlns:xlink="http://www.w3.org/1999/xlink">
    <title>host resources 2</title>
    <g id="host-resources" stroke="none" stroke-width="1" fill="none" fill-rule="evenodd">
        <rect id="矩形" fill="#000000" opacity="0" x="0" y="0" width="20" height="20"></rect>
        <path d="M10,4.48419941 L4.56841659,7.17895163 L10,9.49473643 L15.4315834,7.17895163 L10,4.48419941 Z M15.6842152,7.89472853 L10.4631649,10.2947305 L10.4631649,12.4421007 L15.6842152,9.95790128 L15.6842152,7.89472853 Z M15.6842152,10.8842113 L10.4631649,13.2842132 L10.4631649,15.3052675 L15.6842152,12.7789497 L15.6842152,10.8842113 Z M9.53683515,10.2947305 L4.3157848,7.89472853 L4.3157848,9.95790128 L9.53683515,12.400002 L9.53683515,10.2947305 Z M8.06316288,11.2210602 C7.76841264,11.1789418 7.51578085,10.8842113 7.51578085,10.5894807 C7.51578085,10.2947502 7.76841264,10.0842172 8.06316288,10.1684146 C8.35791312,10.252612 8.61052517,10.5052636 8.61052517,10.7999941 C8.61052517,11.0947246 8.35789339,11.3052577 8.06316288,11.2210602 Z M4.3157848,10.8842113 L4.3157848,12.7789497 L9.53683515,15.3052675 L9.53683515,13.2842132 L4.3157848,10.8842113 Z M8.06316288,14.1684245 C7.76841264,14.1263258 7.51578085,13.8315755 7.51578085,13.536845 C7.51578085,13.2421145 7.76841264,13.0315814 8.06316288,13.1157986 C8.35791312,13.2000158 8.61052517,13.4526278 8.61052517,13.7473781 C8.61052517,14.0421283 8.35789339,14.2526417 8.06316288,14.1684245 Z" id="形状" fill="#FFFFFF"></path>
        <path d="M8.34467624,2.28629206 C8.64174401,2.13946775 9.00158964,2.26126414 9.14841396,2.55833191 C9.29523827,2.85539968 9.17344188,3.21524532 8.87637411,3.36206963 L3.02313772,6.25492699 C2.88968894,6.32341293 2.80577137,6.46080275 2.80577137,6.61079909 L2.80577137,13.3892009 C2.80577137,13.5391973 2.88968894,13.6765871 3.02507577,13.7460721 L8.88641369,16.7810726 C9.18067603,16.9334416 9.29570328,17.2955079 9.14333426,17.5897702 C8.99096524,17.8840325 8.62889899,17.9990598 8.33463665,17.8466908 L2.47523678,14.8126893 C1.94144165,14.5387455 1.60577137,13.9891863 1.60577137,13.3892009 L1.60577137,6.61079909 C1.60577137,6.01081372 1.94144165,5.46125448 2.48333831,5.18323006 L8.34467624,2.28629206 Z M11.1651552,2.50266253 C11.3200731,2.20973407 11.6831243,2.09785443 11.9760528,2.25277236 L17.5247632,5.18731069 C18.0585584,5.46125448 18.3942286,6.01081372 18.3942286,6.61079909 L18.3942286,13.3892009 C18.3942286,13.9891863 18.0585584,14.5387455 17.5204266,14.8148927 L11.6097482,17.7879639 C11.3137172,17.9368675 10.9530264,17.8175972 10.8041228,17.5215661 C10.6552192,17.2255351 10.7744895,16.8648444 11.0705206,16.7159408 L16.9768623,13.745073 C17.1103111,13.6765871 17.1942286,13.5391973 17.1942286,13.3892009 L17.1942286,6.61079909 C17.1942286,6.46080275 17.1103111,6.32341293 16.970309,6.25151272 L11.4150453,3.31356012 C11.1221169,3.1586422 11.0102372,2.79559098 11.1651552,2.50266253 Z" id="形状结合" fill-opacity="0.5" fill="#FFFFFF" fill-rule="nonzero"></path>
    </g>
</svg>