<?xml version="1.0" encoding="UTF-8"?>
<svg width="20px" height="20px" viewBox="0 0 20 20" version="1.1" xmlns="http://www.w3.org/2000/svg" xmlns:xlink="http://www.w3.org/1999/xlink">
    <title>Host Instance Maintenance 2</title>
    <defs>
        <filter x="-84.4%" y="-84.9%" width="268.8%" height="269.9%" filterUnits="objectBoundingBox" id="filter-1">
            <feOffset dx="0" dy="2" in="SourceAlpha" result="shadowOffsetOuter1"></feOffset>
            <feGaussianBlur stdDeviation="2.5" in="shadowOffsetOuter1" result="shadowBlurOuter1"></feGaussianBlur>
            <feColorMatrix values="0 0 0 0 0   0 0 0 0 0   0 0 0 0 0  0 0 0 0.04 0" type="matrix" in="shadowBlurOuter1" result="shadowMatrixOuter1"></feColorMatrix>
            <feMerge>
                <feMergeNode in="shadowMatrixOuter1"></feMergeNode>
                <feMergeNode in="SourceGraphic"></feMergeNode>
            </feMerge>
        </filter>
        <polygon id="path-2" points="0 0 16 0 16 15.8961768 0 15.8961768"></polygon>
    </defs>
    <g id="Host-Instance-Maintenance" stroke="none" stroke-width="1" fill="none" fill-rule="evenodd">
        <rect id="矩形" fill="#000000" opacity="0" x="0" y="0" width="20" height="20"></rect>
        <g id="工具库" filter="url(#filter-1)" transform="translate(2.000000, 2.000000)">
            <mask id="mask-3" fill="white">
                <use xlink:href="#path-2"></use>
            </mask>
            <g id="Clip-2"></g>
            <path d="M14.2337025,14.103645 C14.0380198,14.3097963 13.7569777,14.3146279 13.552437,14.1157242 C13.3897708,13.9546685 13.3841338,13.6301413 13.5411631,13.4247953 C13.7360405,13.2186441 14.0170826,13.2138124 14.2216233,13.4127162 C14.426164,13.6116199 14.4309957,13.8974937 14.2337025,14.103645 M13.2061673,13.0889943 C12.9959896,13.2991719 12.6553569,13.2991719 12.4451793,13.0889943 L9.07347881,9.71729383 C8.86330116,9.50711618 8.86330116,9.16648344 9.07347881,8.95630579 C9.28365646,8.74693342 9.62348393,8.74693342 9.83366157,8.95630579 L13.2061673,12.3288115 C13.4155397,12.5389892 13.4155397,12.8788166 13.2061673,13.0889943 M15.4569203,12.7878202 L9.21118141,6.67012056 C9.87150966,4.90092403 9.53812442,2.79834226 8.07654422,1.36736264 C6.81708888,0.134481484 5.02856567,-0.286679092 3.45183066,0.193266804 C2.66346316,0.409081401 7.7165848,3.48363414 5.62769276,5.67801764 C3.58711742,7.87240114 0.330571783,2.85954342 0.147773598,3.66562704 C-0.270165865,5.27940485 0.207364196,7.07839668 1.46681953,8.31127784 C2.92839974,9.74225746 5.01326538,10.0571213 6.73172938,9.27439074 L12.9774682,15.3920904 C13.6836974,16.0814086 14.8207504,16.0612767 15.5020159,15.3469948 C16.1832814,14.6335181 16.1631494,13.4771384 15.4569203,12.7878202" id="Fill-1" fill="#FFFFFF" mask="url(#mask-3)"></path>
        </g>
    </g>
</svg>