<?xml version="1.0" encoding="UTF-8"?>
<svg width="20px" height="20px" viewBox="0 0 20 20" version="1.1" xmlns="http://www.w3.org/2000/svg" xmlns:xlink="http://www.w3.org/1999/xlink">
    <title>host-second-menu</title>
    <g id="host-second-menu" stroke="none" stroke-width="1" fill="none" fill-rule="evenodd">
        <rect id="矩形备份-11" opacity="0.446149554" x="0" y="0" width="20" height="20"></rect>
        <path d="M16.5,13.25 C17.0522847,13.25 17.5,13.6977153 17.5,14.25 L17.5,16.75 C17.5,17.3022847 17.0522847,17.75 16.5,17.75 L3.5,17.75 C2.94771525,17.75 2.5,17.3022847 2.5,16.75 L2.5,14.25 C2.5,13.6977153 2.94771525,13.25 3.5,13.25 L16.5,13.25 Z M5.28,15.09 L4.5,15.09 L4.5,15.8683784 L5.28,15.8683784 L5.28,15.09 Z M6.86,15.09 L6.08,15.09 L6.08,15.8683784 L6.86,15.8683784 L6.86,15.09 Z M8.44,15.09 L7.66,15.09 L7.66,15.8683784 L8.44,15.8683784 L8.44,15.09 Z M10.02,15.09 L9.24,15.09 L9.24,15.8683784 L10.02,15.8683784 L10.02,15.09 Z M15.3486486,15.09 L13.7486487,15.09 C13.6381917,15.09 13.5486486,15.1795431 13.5486486,15.29 L13.5486486,15.6683784 C13.5486486,15.7788353 13.6381917,15.8683784 13.7486487,15.8683784 L15.3486486,15.8683784 C15.4591056,15.8683784 15.5486486,15.7788353 15.5486486,15.6683784 L15.5486486,15.29 C15.5486486,15.1795431 15.4591056,15.09 15.3486486,15.09 Z M16.5,7.75 C17.0522847,7.75 17.5,8.19771525 17.5,8.75 L17.5,11.25 C17.5,11.8022847 17.0522847,12.25 16.5,12.25 L3.5,12.25 C2.94771525,12.25 2.5,11.8022847 2.5,11.25 L2.5,8.75 C2.5,8.19771525 2.94771525,7.75 3.5,7.75 L16.5,7.75 Z M5.28,9.59 L4.5,9.59 L4.5,10.3683784 L5.28,10.3683784 L5.28,9.59 Z M6.86,9.59 L6.08,9.59 L6.08,10.3683784 L6.86,10.3683784 L6.86,9.59 Z M8.44,9.59 L7.66,9.59 L7.66,10.3683784 L8.44,10.3683784 L8.44,9.59 Z M10.02,9.59 L9.24,9.59 L9.24,10.3683784 L10.02,10.3683784 L10.02,9.59 Z M15.3486486,9.59 L13.7486487,9.59 C13.6381917,9.59 13.5486486,9.67954305 13.5486486,9.79 L13.5486486,10.1683784 C13.5486486,10.2788353 13.6381917,10.3683784 13.7486487,10.3683784 L15.3486486,10.3683784 C15.4591056,10.3683784 15.5486486,10.2788353 15.5486486,10.1683784 L15.5486486,9.79 C15.5486486,9.67954305 15.4591056,9.59 15.3486486,9.59 Z" id="形状结合" fill="#57689C" opacity="0.550000012"></path>
        <path d="M16.5,2.25 C17.0522847,2.25 17.5,2.69771525 17.5,3.25 L17.5,5.75 C17.5,6.30228475 17.0522847,6.75 16.5,6.75 L3.5,6.75 C2.94771525,6.75 2.5,6.30228475 2.5,5.75 L2.5,3.25 C2.5,2.69771525 2.94771525,2.25 3.5,2.25 L16.5,2.25 Z M5.28,4.09 L4.5,4.09 L4.5,4.86837838 L5.28,4.86837838 L5.28,4.09 Z M6.86,4.09 L6.08,4.09 L6.08,4.86837838 L6.86,4.86837838 L6.86,4.09 Z M8.44,4.09 L7.66,4.09 L7.66,4.86837838 L8.44,4.86837838 L8.44,4.09 Z M10.02,4.09 L9.24,4.09 L9.24,4.86837838 L10.02,4.86837838 L10.02,4.09 Z M15.3486486,4.09 L13.7486487,4.09 C13.6381917,4.09 13.5486486,4.17954305 13.5486486,4.29 L13.5486486,4.66837838 C13.5486486,4.77883533 13.6381917,4.86837838 13.7486487,4.86837838 L15.3486486,4.86837838 C15.4591056,4.86837838 15.5486486,4.77883533 15.5486486,4.66837838 L15.5486486,4.29 C15.5486486,4.17954305 15.4591056,4.09 15.3486486,4.09 Z" id="形状结合备份-2" fill="#57689C"></path>
    </g>
</svg>