<?xml version="1.0" encoding="UTF-8"?>
<svg width="20px" height="20px" viewBox="0 0 20 20" version="1.1" xmlns="http://www.w3.org/2000/svg" xmlns:xlink="http://www.w3.org/1999/xlink">
    <title>host-Instance-maintenance-second-menu</title>
    <g id="host-Instance-maintenance-second-menu" stroke="none" stroke-width="1" fill="none" fill-rule="evenodd">
        <rect id="矩形" fill="#000000" opacity="0" x="0" y="0" width="20" height="20"></rect>
        <g id="工具库" transform="translate(2.000000, 1.999823)" fill="#57689C" fill-rule="nonzero">
            <path d="M14.2337025,14.1038218 C14.0380198,14.309973 13.7569777,14.3148047 13.552437,14.115901 C13.3897708,13.9548453 13.3841338,13.6303181 13.5411631,13.4249721 C13.7360405,13.2188209 14.0170826,13.2139892 14.2216233,13.412893 C14.426164,13.6117967 14.4309957,13.8976705 14.2337025,14.1038218 M13.2061673,13.0891711 C12.9959896,13.2993487 12.6553569,13.2993487 12.4451793,13.0891711 L9.07347881,9.71747062 C8.86330116,9.50729297 8.86330116,9.16666023 9.07347881,8.95648258 C9.28365646,8.74711021 9.62348393,8.74711021 9.83366157,8.95648258 L13.2061673,12.3289883 C13.4155397,12.5391659 13.4155397,12.8789934 13.2061673,13.0891711 M15.4569203,12.787997 L9.21118141,6.67029735 C9.87150966,4.90110081 9.53812442,2.79851905 8.07654422,1.36753942 C6.81708888,0.134658269 5.02856567,-0.286502307 3.45183066,0.193443588 C2.66346316,0.409258186 7.7165848,3.48381092 5.62769276,5.67819442 C3.58711742,7.87257792 0.330571783,2.8597202 0.147773598,3.66580383 C-0.270165865,5.27958164 0.207364196,7.07857347 1.46681953,8.31145462 C2.92839974,9.74243425 5.01326538,10.0572981 6.73172938,9.27456752 L12.9774682,15.3922671 C13.6836974,16.0815854 14.8207504,16.0614534 15.5020159,15.3471716 C16.1832814,14.6336949 16.1631494,13.4773152 15.4569203,12.787997" id="Fill-1"></path>
        </g>
    </g>
</svg>