<?xml version="1.0" encoding="UTF-8"?>
<svg width="20px" height="20px" viewBox="0 0 20 20" version="1.1" xmlns="http://www.w3.org/2000/svg" xmlns:xlink="http://www.w3.org/1999/xlink">
    <title>host-secondmenu-pressed</title>
    <g id="host-secondmenu-pressed" stroke="none" stroke-width="1" fill="none" fill-rule="evenodd">
        <rect id="矩形备份-11" opacity="0.446149554" x="0" y="0" width="20" height="20"></rect>
        <path d="M17,13.5 C17.5522847,13.5 18,13.9477153 18,14.5 L18,17 C18,17.5522847 17.5522847,18 17,18 L3,18 C2.44771525,18 2,17.5522847 2,17 L2,14.5 C2,13.9477153 2.44771525,13.5 3,13.5 L17,13.5 Z M4.78,15.34 L4,15.34 L4,16.1183784 L4.78,16.1183784 L4.78,15.34 Z M6.36,15.34 L5.58,15.34 L5.58,16.1183784 L6.36,16.1183784 L6.36,15.34 Z M7.94,15.34 L7.16,15.34 L7.16,16.1183784 L7.94,16.1183784 L7.94,15.34 Z M9.52,15.34 L8.74,15.34 L8.74,16.1183784 L9.52,16.1183784 L9.52,15.34 Z M15.8486486,15.34 L14.2486487,15.34 C14.1381917,15.34 14.0486486,15.4295431 14.0486486,15.54 L14.0486486,15.9183784 C14.0486486,16.0288353 14.1381917,16.1183784 14.2486487,16.1183784 L15.8486486,16.1183784 C15.9591056,16.1183784 16.0486486,16.0288353 16.0486486,15.9183784 L16.0486486,15.54 C16.0486486,15.4295431 15.9591056,15.34 15.8486486,15.34 Z" id="形状结合" fill="#FFFFFF" opacity="0.550000012"></path>
        <path d="M17,7.75 C17.5522847,7.75 18,8.19771525 18,8.75 L18,11.25 C18,11.8022847 17.5522847,12.25 17,12.25 L3,12.25 C2.44771525,12.25 2,11.8022847 2,11.25 L2,8.75 C2,8.19771525 2.44771525,7.75 3,7.75 L17,7.75 Z M4.78,9.59 L4,9.59 L4,10.3683784 L4.78,10.3683784 L4.78,9.59 Z M6.36,9.59 L5.58,9.59 L5.58,10.3683784 L6.36,10.3683784 L6.36,9.59 Z M7.94,9.59 L7.16,9.59 L7.16,10.3683784 L7.94,10.3683784 L7.94,9.59 Z M9.52,9.59 L8.74,9.59 L8.74,10.3683784 L9.52,10.3683784 L9.52,9.59 Z M15.8486486,9.59 L14.2486487,9.59 C14.1381917,9.59 14.0486486,9.67954305 14.0486486,9.79 L14.0486486,10.1683784 C14.0486486,10.2788353 14.1381917,10.3683784 14.2486487,10.3683784 L15.8486486,10.3683784 C15.9591056,10.3683784 16.0486486,10.2788353 16.0486486,10.1683784 L16.0486486,9.79 C16.0486486,9.67954305 15.9591056,9.59 15.8486486,9.59 Z" id="形状结合备份" fill="#FFFFFF" opacity="0.550000012"></path>
        <path d="M17,2 C17.5522847,2 18,2.44771525 18,3 L18,5.5 C18,6.05228475 17.5522847,6.5 17,6.5 L3,6.5 C2.44771525,6.5 2,6.05228475 2,5.5 L2,3 C2,2.44771525 2.44771525,2 3,2 L17,2 Z M4.78,3.84 L4,3.84 L4,4.61837838 L4.78,4.61837838 L4.78,3.84 Z M6.36,3.84 L5.58,3.84 L5.58,4.61837838 L6.36,4.61837838 L6.36,3.84 Z M7.94,3.84 L7.16,3.84 L7.16,4.61837838 L7.94,4.61837838 L7.94,3.84 Z M9.52,3.84 L8.74,3.84 L8.74,4.61837838 L9.52,4.61837838 L9.52,3.84 Z M15.8486486,3.84 L14.2486487,3.84 C14.1381917,3.84 14.0486486,3.92954305 14.0486486,4.04 L14.0486486,4.41837838 C14.0486486,4.52883533 14.1381917,4.61837838 14.2486487,4.61837838 L15.8486486,4.61837838 C15.9591056,4.61837838 16.0486486,4.52883533 16.0486486,4.41837838 L16.0486486,4.04 C16.0486486,3.92954305 15.9591056,3.84 15.8486486,3.84 Z" id="形状结合备份-2" fill="#FFFFFF" opacity="0.550000012"></path>
    </g>
</svg>