<?xml version="1.0" encoding="UTF-8"?>
<svg width="20px" height="20px" viewBox="0 0 20 20" version="1.1" xmlns="http://www.w3.org/2000/svg" xmlns:xlink="http://www.w3.org/1999/xlink">
    <title>http-monitoring-info-second-menu</title>
    <g id="http-monitoring-info-second-menu" stroke="none" stroke-width="1" fill="none" fill-rule="evenodd">
        <rect id="矩形" fill="#FFFFFF" opacity="0" x="0" y="0" width="20" height="20"></rect>
        <g id="图形" transform="translate(2.000000, 2.000000)">
            <rect id="矩形" fill="#FFFFFF" opacity="0" x="0" y="0" width="16" height="16"></rect>
            <path d="M15,0 C15.5522847,-1.01453063e-16 16,0.44771525 16,1 L16,11 C16,11.5522847 15.5522847,12 15,12 L1,12 C0.44771525,12 6.76353751e-17,11.5522847 0,11 L0,1 C-6.76353751e-17,0.44771525 0.44771525,1.01453063e-16 1,0 L15,0 Z M7.58008589,3.79550065 C7.39442195,3.28338024 6.67739295,3.26374193 6.463976,3.76493213 L5.19,6.753 L3,6.75396527 C2.66862915,6.75396527 2.4,7.02259442 2.4,7.35396527 C2.4,7.68533612 2.66862915,7.95396527 3,7.95396527 L5.58782498,7.95396527 L5.67673699,7.94736121 C5.88074623,7.91684289 6.05740696,7.78266751 6.1398604,7.58903314 L6.971,5.637 L8.2646351,9.20449935 L8.3069753,9.29741554 C8.53334844,9.70258061 9.14426942,9.70844472 9.36485846,9.26934062 L10.791,6.429 L14,6.42902289 C14.3313708,6.42902289 14.6,6.16039374 14.6,5.82902289 C14.6,5.49765205 14.3313708,5.22902289 14,5.22902289 L10.4216867,5.22902289 L10.325902,5.23670127 C10.1377133,5.26710468 9.97282551,5.38592766 9.88553786,5.55968227 L8.917,7.485 Z" id="形状结合" fill="#57689C" opacity="0.550000012"></path>
            <path d="M6.1571889,13 L9.8428111,13 C10.1820633,13 10.7091766,13.3837559 11.0201517,13.8571429 L11.864757,15.1428571 C12.1757321,15.6162441 11.9322257,16 11.3208704,16 L4.67912961,16 C4.06777426,16 3.82426794,15.6162441 4.13524302,15.1428571 L4.97984833,13.8571429 C5.29082341,13.3837559 5.81793674,13 6.1571889,13 Z" id="矩形" fill="#57689C"></path>
        </g>
    </g>
</svg>