<?xml version="1.0" encoding="UTF-8"?>
<svg width="20px" height="20px" viewBox="0 0 20 20" version="1.1" xmlns="http://www.w3.org/2000/svg" xmlns:xlink="http://www.w3.org/1999/xlink">
    <title>huawei-cloud-private-certificate-second-menu</title>
    <g id="huawei-cloud-private-certificate-second-menu" stroke="none" stroke-width="1" fill="none" fill-rule="evenodd">
        <path d="M17,4 C17.5522847,4 18,4.44771525 18,5 L18,15 C18,15.5522847 17.5522847,16 17,16 L16.181,16 L16.1811579,13.8377614 L16.267645,13.7264675 C16.5709139,13.3127417 16.75,12.8022847 16.75,12.25 C16.75,10.8692881 15.6307119,9.75 14.25,9.75 C12.8692881,9.75 11.75,10.8692881 11.75,12.25 C11.75,12.8022847 11.9290861,13.3127417 12.232355,13.7264675 L12.3196563,13.83875 L12.32,16 L3,16 C2.44771525,16 2,15.5522847 2,15 L2,5 C2,4.44771525 2.44771525,4 3,4 L17,4 Z M14.25,10.95 C14.9679702,10.95 15.55,11.5320298 15.55,12.25 C15.55,12.9679702 14.9679702,13.55 14.25,13.55 C13.5320298,13.55 12.95,12.9679702 12.95,12.25 C12.95,11.5320298 13.5320298,10.95 14.25,10.95 Z M7.40023269,11.98 L4.40023269,11.98 L4.40023269,13.18 L7.40023269,13.18 L7.40023269,11.98 Z M10.4002327,9.58 L4.40023269,9.58 L4.40023269,10.78 L10.4002327,10.78 L10.4002327,9.58 Z M16.4002327,7.17801047 L4.40023269,7.17801047 L4.40023269,8.37801047 L16.4002327,8.37801047 L16.4002327,7.17801047 Z" id="形状结合" fill="#57689C"></path>
        <path d="M14.25,13.55 C14.652395,13.55 15.0120887,13.3671742 15.2505467,13.080057 L15.25,18.4033847 L14.2418065,17.1835853 L13.2508462,18.4033847 L13.2485868,13.0790125 C13.4870394,13.3667307 13.8471173,13.55 14.25,13.55 Z" id="形状结合" fill="#57689C" opacity="0.550000012"></path>
    </g>
</svg>