<?xml version="1.0" encoding="UTF-8"?>
<svg width="20px" height="20px" viewBox="0 0 20 20" version="1.1" xmlns="http://www.w3.org/2000/svg" xmlns:xlink="http://www.w3.org/1999/xlink">
    <title>huawei-cloud-cloud-disk-evs-second-menu</title>
    <g id="huawei-cloud-cloud-disk-evs-second-menu" stroke="none" stroke-width="1" fill="none" fill-rule="evenodd">
        <g id="图标">
            <rect id="矩形" fill-opacity="0" fill="#FFFFFF" x="0" y="0" width="20" height="20"></rect>
            <g id="编组" transform="translate(3.000000, 2.000810)" fill="#57689C">
                <path d="M12.9,0 C13.5075132,9.67561924e-16 14,0.492486786 14,1.10000002 L14,14.8991903 C14,15.5067035 13.5075132,15.9991903 12.9,15.9991903 L1.10000002,15.9991903 C0.492486786,15.9991903 7.43989142e-17,15.5067035 0,14.8991903 L0,1.10000002 C-7.43989142e-17,0.492486786 0.492486786,1.11598371e-16 1.10000002,0 L12.9,0 Z M7.00000001,5.99919033 C5.64389274,5.99919033 4.54418599,6.97415489 4.28750358,8.24901611 C3.37090314,8.3240143 2.60117302,9.14903052 2.60117302,10.1236707 C2.60117302,11.1739098 3.4076912,11.9991903 4.43437389,11.9991903 L9.19941349,11.9991903 C10.4089206,11.9991903 11.398827,10.9866065 11.398827,9.74936455 C11.398827,8.58658009 10.5557909,7.64894643 9.41930786,7.49953877 C8.97950738,6.59952434 8.06345901,5.99919033 7.00000001,5.99919033 Z M4,1.99919033 L2,1.99919033 L2,3.99919033 L4,3.99919033 L4,1.99919033 Z M12,1.99919033 L10,1.99919033 L10,3.99919033 L12,3.99919033 L12,1.99919033 Z" id="形状结合"></path>
            </g>
        </g>
    </g>
</svg>