<?xml version="1.0" encoding="UTF-8"?>
<svg width="20px" height="20px" viewBox="0 0 20 20" version="1.1" xmlns="http://www.w3.org/2000/svg" xmlns:xlink="http://www.w3.org/1999/xlink">
    <title>huawei-cloud-dns-resolution-second-menu</title>
    <g id="huawei-cloud-dns-resolution-second-menu" stroke="none" stroke-width="1" fill="none" fill-rule="evenodd">
        <g id="域名" transform="translate(2.000000, 2.000000)">
            <path d="M13.6421053,13.0526316 L2.35789473,13.0526316 C2.1473684,13.0526316 2.02105261,13.3052632 2.18947368,13.4736842 C3.6631579,15.0315789 5.72631579,16 8,16 C10.2736842,16 12.3789474,15.0315789 13.8105263,13.4736842 C13.9789474,13.3052632 13.8526316,13.0526316 13.6421053,13.0526316 Z M1.68421052,3.78947369 L14.3157895,3.78947369 C14.5263158,3.78947369 14.6526316,3.53684211 14.5263158,3.36842104 C13.0947369,1.34736841 10.6947369,0 8,0 C5.30526314,0 2.90526316,1.34736841 1.4736842,3.36842104 C1.34736841,3.53684209 1.4736842,3.78947369 1.68421052,3.78947369 L1.68421052,3.78947369 Z M14.3157895,5.05263158 C15.2421053,5.05263158 16,5.81052632 16,6.7368421 L16,10.1052632 C16,11.0315789 15.2421053,11.7894737 14.3157895,11.7894737 L1.68421052,11.7894737 C0.757894737,11.7894737 0,11.0315789 0,10.1052632 L0,6.7368421 C0,5.81052632 0.757894737,5.05263158 1.68421052,5.05263158 Z M11.6336,6.9208 C10.8608,6.9208 10.4144,7.1896 10.4144,7.8952 C10.4144,8.4904 10.6208,8.692 11.3312,8.8552 C11.84,8.98 11.936,9.0712 11.936,9.3256 C11.936,9.6232 11.792,9.724 11.3504,9.724 C11.0144,9.724 10.616,9.6664 10.4096,9.5896 L10.4096,10.228 C10.616,10.2856 10.9904,10.348 11.3792,10.348 C12.296,10.348 12.6608,9.9976 12.6608,9.3448 C12.6608,8.7256 12.488,8.476 11.6912,8.284 C11.2016,8.1688 11.1248,8.092 11.1248,7.876 C11.1248,7.5928 11.2832,7.5208 11.6624,7.5208 C11.9408,7.5208 12.3248,7.588 12.488,7.6408 L12.488,7.0408 C12.3104,6.9784 12.0128,6.9208 11.6336,6.9208 Z M4.592,6.9688 L3.4496,6.9688 L3.4496,10.3 L4.592,10.3 C5.5712,10.3 6.2144,9.9208 6.2144,8.6344 C6.2144,7.2472 5.5712,6.9688 4.592,6.9688 Z M7.9856,6.9688 L6.872,6.9688 L6.872,10.3 L7.592,10.3 L7.592,7.7656 L7.6208,7.7656 L8.7728,10.3 L9.776,10.3 L9.776,6.9688 L9.0608,6.9688 L9.0608,9.3496 L9.032,9.3496 L7.9856,6.9688 Z M4.5536,7.5832 C5.1536,7.5832 5.4608,7.7752 5.4608,8.6344 C5.4608,9.4456 5.168,9.676 4.5536,9.676 L4.1792,9.676 L4.1792,7.5832 L4.5536,7.5832 Z" id="形状" fill="#57689C" fill-rule="nonzero"></path>
            <g id="DNS" transform="translate(3.449600, 6.920800)"></g>
        </g>
    </g>
</svg>