<?xml version="1.0" encoding="UTF-8"?>
<svg width="20px" height="20px" viewBox="0 0 20 20" version="1.1" xmlns="http://www.w3.org/2000/svg" xmlns:xlink="http://www.w3.org/1999/xlink">
    <title>huawei-cloud-private-ca-second-menu</title>
    <g id="huawei-cloud-private-ca-second-menu" stroke="none" stroke-width="1" fill="none" fill-rule="evenodd">
        <g id="图形" transform="translate(2.000000, 2.000000)" fill-rule="nonzero">
            <rect id="矩形" fill="#000000" opacity="0" x="0" y="0" width="16" height="16"></rect>
            <path d="M7.78507923,0.0314599807 C7.91222464,-0.0104866602 8.04948101,-0.0104866602 8.17662642,0.0314599807 L14.666343,2.17624867 C14.9216113,2.26058759 15.0938414,2.49917887 15.0938414,2.76801885 L15.0938414,8.96158341 C15.0938414,9.66636834 14.7617382,10.4749133 14.1073204,11.3649712 C13.5963514,12.0619252 12.8783962,12.8190351 12.0310525,13.5569235 C11.2995712,14.1949675 10.4967215,14.7952805 9.77075739,15.2476955 C8.56408015,16 8.12608123,16 7.98209866,16 C7.83811608,16 7.39993918,16 6.18970243,15.2336354 C5.46747585,14.776593 4.66533805,14.1696949 3.93083113,13.5250658 C3.08544516,12.7830839 2.36855786,12.0247282 1.85741081,11.3322236 C1.20228118,10.4446574 0.87,9.64696895 0.87,8.96122745 L0.87,2.7676629 C0.87,2.49904868 1.04213927,2.26067028 1.29714238,2.17624867 Z M8,2.75 C6.20507456,2.75 4.75,4.20507456 4.75,6 C4.75,7.04573113 5.24389258,7.97610748 6.01114003,8.57059131 L5.9997856,8.56175348 L6.00169237,12.4033847 L7.98361309,11.1835853 L10,12.4033847 L10.0010369,8.56111011 C9.99457096,8.56616924 9.98808533,8.57120441 9.98158018,8.57621549 C10.7530486,7.98185958 11.25,7.0489644 11.25,6 C11.25,4.20507456 9.79492544,2.75 8,2.75 Z M8.92371415,9.11685492 L8.90048324,9.12363435 L8.9,10.452 L8.55297557,10.2424018 L7.97867398,9.89498196 L7.40705248,10.246794 L7.1,10.435 L7.10052843,9.12392528 C7.09714024,9.1229515 7.09375433,9.12197235 7.0903707,9.12098784 C7.37904967,9.20497722 7.68426702,9.25 8,9.25 C8.32089082,9.25 8.63091962,9.20349421 8.92371415,9.11685492 Z M8,3.95 C9.13218374,3.95 10.05,4.86781626 10.05,6 C10.05,7.13218374 9.13218374,8.05 8,8.05 C6.86781626,8.05 5.95,7.13218374 5.95,6 C5.95,4.86781626 6.86781626,3.95 8,3.95 Z" id="形状结合" fill="#57689C"></path>
        </g>
    </g>
</svg>