<?xml version="1.0" encoding="UTF-8"?>
<svg width="20px" height="20px" viewBox="0 0 20 20" version="1.1" xmlns="http://www.w3.org/2000/svg" xmlns:xlink="http://www.w3.org/1999/xlink">
    <title>huawei-cloud-elastic-public-network-ip-second-menu</title>
    <g id="huawei-cloud-elastic-public-network-ip-second-menu" stroke="none" stroke-width="1" fill="none" fill-rule="evenodd">
        <g id="编组">
            <rect id="矩形" fill-opacity="0" fill="#D8D8D8" x="0" y="0" width="20" height="20"></rect>
            <path d="M10,2 C14.3999913,2 18,5.59999041 18,10 C18,14.3999913 14.399973,18 10,18 C5.59999041,18 2,14.3999913 2,10 C2,5.59999041 5.59999041,2 10,2 Z M14.3018711,13.0999614 C14.0809359,12.9343044 13.767541,12.9791163 13.601884,13.2000515 C12.7539625,14.3309169 11.4292433,15.0114746 10,15.0114746 C8.57861394,15.0114746 7.26042694,14.3384557 6.41164118,13.2180064 C6.24489541,12.9978918 5.93128307,12.9546277 5.71116842,13.1213735 C5.49105378,13.2881193 5.44778976,13.6017316 5.61453553,13.8218463 C6.64999921,15.1887218 8.26145761,16.0114746 10,16.0114746 C11.7481581,16.0114746 13.3675513,15.1795318 14.4019613,13.7999485 C14.5676182,13.5790133 14.5228064,13.2656184 14.3018711,13.0999614 Z M8.348,6.288 L7.412,6.288 L7.412,12 L8.348,12 L8.348,6.288 Z M11.836,6.288 L9.468,6.288 L9.468,12 L10.404,12 L10.404,9.808 L11.82,9.808 C13.212,9.808 13.908,9.216 13.908,8.04 C13.908,6.872 13.212,6.288 11.836,6.288 Z M11.764,7.088 C12.172,7.088 12.476,7.16 12.668,7.312 C12.86,7.456 12.964,7.696 12.964,8.04 C12.964,8.384 12.868,8.632 12.676,8.784 C12.484,8.928 12.18,9.008 11.764,9.008 L10.404,9.008 L10.404,7.088 L11.764,7.088 Z" id="形状结合" fill="#57689C" fill-rule="nonzero"></path>
        </g>
    </g>
</svg>