<?xml version="1.0" encoding="UTF-8"?>
<svg width="20px" height="20px" viewBox="0 0 20 20" version="1.1" xmlns="http://www.w3.org/2000/svg" xmlns:xlink="http://www.w3.org/1999/xlink">
    <title>huawei-cloud-elastic-cloud-server-ecs-second-menu</title>
    <g id="huawei-cloud-elastic-cloud-server-ecs-second-menu" stroke="none" stroke-width="1" fill="none" fill-rule="evenodd">
        <g id="服务名">
            <rect id="矩形" fill-opacity="0" fill="#D8D8D8" x="0" y="0" width="20" height="20"></rect>
            <g id="VPC" transform="translate(0.000000, 3.180000)" fill="#57689C">
                <path d="M10,0 C12.4175968,0 14.5000801,1.36475933 15.4998932,3.41079212 C18.083498,3.75044553 20,5.8819994 20,8.52539606 C20,11.3380595 17.7496128,13.64 15,13.64 L4.16747663,13.64 C1.83348465,13.64 0,11.7638622 0,9.37631866 C0,7.1606367 1.74985314,5.28509984 3.83359147,5.11460394 C4.41711616,2.21641943 6.91711617,0 10,0 Z M15,10.64 L5,10.64 L5,11.64 L15,11.64 L15,10.64 Z M14.5,6.82 L5.5,6.82 C5.22385763,6.82 5,7.04385763 5,7.32 L5,9.32 C5,9.59614237 5.22385763,9.82 5.5,9.82 L14.5,9.82 C14.7761424,9.82 15,9.59614237 15,9.32 L15,7.32 C15,7.04385763 14.7761424,6.82 14.5,6.82 Z M12.75,7.57 C13.1642136,7.57 13.5,7.90578644 13.5,8.32 C13.5,8.73421356 13.1642136,9.07 12.75,9.07 C12.3357864,9.07 12,8.73421356 12,8.32 C12,7.90578644 12.3357864,7.57 12.75,7.57 Z" id="形状结合"></path>
            </g>
        </g>
    </g>
</svg>