<?xml version="1.0" encoding="UTF-8"?>
<svg width="20px" height="20px" viewBox="0 0 20 20" version="1.1" xmlns="http://www.w3.org/2000/svg" xmlns:xlink="http://www.w3.org/1999/xlink">
    <title>huawei-cloud-cloud-container-engine-cce-cluster-second-menu</title>
    <g id="huawei-cloud-cloud-container-engine-cce-cluster-second-menu" stroke="none" stroke-width="1" fill="none" fill-rule="evenodd">
        <rect id="矩形" fill-opacity="0" fill="#D8D8D8" x="0" y="0" width="20" height="20"></rect>
        <g id="编组-22" transform="translate(2.000000, 4.000000)" fill="#57689C">
            <path d="M1.799,8 L1.8,10.2 L4,10.2 L4,12 L1.22033898,12 C0.565620791,12 0.0313249929,11.481481 0.00132826834,10.8305006 L0,10.7727273 L0,8 L1.799,8 Z M16,8 L16,10.7727273 C16,11.4505313 15.4536356,12 14.779661,12 L12,12 L12,10.2 L14.2,10.2 L14.2,8 L16,8 Z M8,3.75 L10.25,6 L8,8.25 L5.75,6 L8,3.75 Z M4,0 L4,1.8 L1.8,1.8 L1.799,4 L0,4 L0,1.22727273 C0,0.549468716 0.546364373,0 1.22033898,0 L4,0 Z M14.779661,0 C15.4536356,0 16,0.549468716 16,1.22727273 L16,3.999 L14.2,3.999 L14.2,1.8 L12,1.8 L12,0 L14.779661,0 Z" id="形状结合"></path>
            <path d="M11.1819805,2.81801948 L11.1819805,9.18198052 L4.81801948,9.18198052 L4.81801948,2.81801948 L11.1819805,2.81801948 Z M10.1213203,3.87867966 L10.1213203,8.12132034 L5.87867966,8.12132034 L5.87867966,3.87867966 L10.1213203,3.87867966 Z" id="矩形" opacity="0.550000012" transform="translate(8.000000, 6.000000) rotate(45.000000) translate(-8.000000, -6.000000) "></path>
        </g>
    </g>
</svg>