<?xml version="1.0" encoding="UTF-8"?>
<svg width="20px" height="20px" viewBox="0 0 20 20" version="1.1" xmlns="http://www.w3.org/2000/svg" xmlns:xlink="http://www.w3.org/1999/xlink">
    <title>huawei-cloud-elastic-load-balancing-elb-second-menu</title>
    <g id="huawei-cloud-elastic-load-balancing-elb-second-menu" stroke="none" stroke-width="1" fill="none" fill-rule="evenodd">
        <g id="服务名">
            <rect id="矩形" fill-opacity="0" fill="#D8D8D8" x="0" y="0" width="20" height="20"></rect>
            <g id="编组" transform="translate(1.000000, 2.000000)" fill="#57689C" fill-rule="nonzero">
                <path d="M3.99935234,12.0514011 L7.27543003,12.9865243 C7.10853139,13.2699137 7.0094909,13.5980515 7.00064766,13.9485989 L3.72516368,13.0124669 C3.89170348,12.7293077 3.99051959,12.4015326 3.99935234,12.0514011 Z M14.0012216,12.0504005 L14,12 C14,12.3698634 14.1003988,12.7162774 14.27543,13.0134757 L10.9972216,13.9484005 L10.9945143,13.8507377 C10.9713671,13.5369944 10.8758413,13.2433789 10.72457,12.9865243 L14.0012216,12.0504005 Z M9.40252792,2.20340048 L15.2530286,10.1441562 C14.9369467,10.2714985 14.6608764,10.4772492 14.448909,10.7373172 L9.49947208,4.02040048 L9.50001923,12.0630137 C9.34020348,12.0218783 9.17265671,12 9,12 C8.82698208,12 8.65909551,12.0219699 8.49897784,12.0632721 L8.49947208,4.02240048 L3.55109104,10.7373172 C3.33901386,10.4771146 3.06276755,10.2712856 2.74648065,10.1439586 L8.59747208,2.20340048 L8.99947208,2.49940048 L9.40252792,2.20340048 Z" id="形状结合" opacity="0.550000012"></path>
                <path d="M9,12 C10.1045695,12 11,12.8954305 11,14 C11,15.1045695 10.1045695,16 9,16 C7.8954305,16 7,15.1045695 7,14 C7,12.8954305 7.8954305,12 9,12 Z M9,13 C8.44771525,13 8,13.4477153 8,14 C8,14.5522847 8.44771525,15 9,15 C9.55228475,15 10,14.5522847 10,14 C10,13.4477153 9.55228475,13 9,13 Z M2,10 C3.1045695,10 4,10.8954305 4,12 C4,13.1045695 3.1045695,14 2,14 C0.8954305,14 0,13.1045695 0,12 C0,10.8954305 0.8954305,10 2,10 Z M16,10 C17.1045695,10 18,10.8954305 18,12 C18,13.1045695 17.1045695,14 16,14 C14.8954305,14 14,13.1045695 14,12 C14,10.8954305 14.8954305,10 16,10 Z M2,11 C1.44771525,11 1,11.4477153 1,12 C1,12.5522847 1.44771525,13 2,13 C2.55228475,13 3,12.5522847 3,12 C3,11.4477153 2.55228475,11 2,11 Z M16,11 C15.4477153,11 15,11.4477153 15,12 C15,12.5522847 15.4477153,13 16,13 C16.5522847,13 17,12.5522847 17,12 C17,11.4477153 16.5522847,11 16,11 Z M9,5 C10.3807119,5 11.5,3.88071187 11.5,2.5 C11.5,1.11928813 10.3807119,0 9,0 C7.61928813,0 6.5,1.11928813 6.5,2.5 C6.5,3.88071187 7.61928813,5 9,5 Z" id="形状结合"></path>
            </g>
        </g>
    </g>
</svg>