<?xml version="1.0" encoding="UTF-8"?>
<svg width="20px" height="20px" viewBox="0 0 20 20" version="1.1" xmlns="http://www.w3.org/2000/svg" xmlns:xlink="http://www.w3.org/1999/xlink">
    <title>huawei-cloud-api-gateway-apig-second-menu</title>
    <g id="huawei-cloud-api-gateway-apig-second-menu" stroke="none" stroke-width="1" fill="none" fill-rule="evenodd">
        <g id="编组" transform="translate(2.400000, 2.500000)" fill="#57689C">
            <path d="M2.449,7.08 L2.45,13.2 L12.85,13.2 L12.8473102,11.4142322 C12.4561969,11.1435132 12.2,10.6916756 12.2,10.18 C12.2,9.35157288 12.8715729,8.68 13.7,8.68 C14.5284271,8.68 15.2,9.35157288 15.2,10.18 C15.2,10.6476302 14.9860119,11.0652809 14.6506151,11.3403724 L14.65,13.7738902 C14.65,14.451052 14.1358772,15 13.5016746,15 L1.79832536,15 C1.16412278,15 0.65,14.451052 0.65,13.7738902 L0.65,7.08 L2.449,7.08 Z M13.5016746,0 C14.1358772,0 14.65,0.548948035 14.65,1.22610975 L14.65,7.6 L12.849,7.6 L12.85,1.8 L2.45,1.8 L2.44960648,3.33880107 C2.78558281,3.6138822 3,4.03190119 3,4.5 C3,5.32842712 2.32842712,6 1.5,6 C0.671572875,6 0,5.32842712 0,4.5 C0,3.98788932 0.256632813,3.53571845 0.648308276,3.26507755 L0.65,1.22610975 C0.65,0.548948035 1.16412278,0 1.79832536,0 L13.5016746,0 Z" id="形状结合"></path>
            <path d="M5.8516,11.8 L6.6244,11.8 L5.3908,8.4688 L4.4116,8.4688 L3.1684,11.8 L3.9268,11.8 L4.2148,10.9744 L5.5684,10.9744 L5.8516,11.8 Z M4.426,10.3696 L4.8676,9.1072 L4.9252,9.1072 L5.3572,10.3696 L4.426,10.3696 Z M7.0036,11.8 L7.7332,11.8 L7.7332,10.7728 L8.1412,10.7728 C9.082,10.7728 9.4516,10.4704 9.4516,9.6016 C9.4516,8.8 9.1396,8.4688 8.1412,8.4688 L7.0036,8.4688 L7.0036,11.8 Z M7.7332,10.1872 L7.7332,9.0448 L8.0452,9.0448 C8.5348,9.0448 8.7076,9.1888 8.7076,9.616 C8.7076,10.0576 8.5396,10.1872 8.0452,10.1872 L7.7332,10.1872 Z M10.0468,11.8 L10.7764,11.8 L10.7764,8.4688 L10.0468,8.4688 L10.0468,11.8 Z" id="形状结合" fill-rule="nonzero" opacity="0.550000012"></path>
        </g>
    </g>
</svg>