<?xml version="1.0" encoding="UTF-8"?>
<svg width="20px" height="20px" viewBox="0 0 20 20" version="1.1" xmlns="http://www.w3.org/2000/svg" xmlns:xlink="http://www.w3.org/1999/xlink">
    <title>huawei-cloud-virtual-private-cloud-vpc-second-menu</title>
    <g id="huawei-cloud-virtual-private-cloud-vpc-second-menu" stroke="none" stroke-width="1" fill="none" fill-rule="evenodd">
        <g id="服务名">
            <rect id="矩形" fill-opacity="0" fill="#D8D8D8" x="0" y="0" width="20" height="20"></rect>
            <g id="VPC" transform="translate(0.000000, 3.180000)" fill="#57689C">
                <path d="M10,0 C12.4175968,0 14.5000801,1.36475933 15.4998932,3.41079212 C18.083498,3.75044553 20,5.8819994 20,8.52539606 C20,11.3380595 17.7496128,13.64 15,13.64 L4.16747663,13.64 C1.83348465,13.64 0,11.7638622 0,9.37631866 C0,7.30021009 1.53633839,5.52274256 3.44413474,5.1667808 L3.45116686,5.23548679 L4.29478735,9.61100412 C4.11271016,9.79211578 4,10.0428955 4,10.32 C4,10.8722847 4.44771525,11.32 5,11.32 C5.54790154,11.32 5.99288682,10.8793631 5.99991557,10.3331297 L9.00114,7.37457707 C9.09551269,7.40409301 9.19589871,7.42 9.3,7.42 C9.85228475,7.42 10.3,6.97228475 10.3,6.42 C10.3,5.86771525 9.85228475,5.42 9.3,5.42 C8.97643028,5.42 8.68875397,5.57367794 8.50597805,5.81202682 L3.93287922,4.76974425 L3.91353351,4.76708134 C4.61989108,2.04109901 7.0415569,0 10,0 Z M4.35192715,5.68472826 L8.31439213,6.59000399 C8.32974791,6.67966668 8.35704124,6.76525336 8.39457793,6.8450698 L5.64508276,9.55585898 C5.48371652,9.41949628 5.27857004,9.33332188 5.05372616,9.32141862 L4.35192715,5.68472826 Z" id="形状结合"></path>
            </g>
        </g>
    </g>
</svg>