<?xml version="1.0" encoding="UTF-8"?>
<svg width="20px" height="20px" viewBox="0 0 20 20" version="1.1" xmlns="http://www.w3.org/2000/svg" xmlns:xlink="http://www.w3.org/1999/xlink">
    <title>huawei-cloud-cloud-database-gaussdb-second-menu</title>
    <g id="huawei-cloud-cloud-database-gaussdb-second-menu" stroke="none" stroke-width="1" fill="none" fill-rule="evenodd">
        <g id="编组">
            <rect id="矩形" fill-opacity="0" fill="#D8D8D8" x="0" y="0" width="20" height="20"></rect>
            <path d="M10.5,2.28867513 L16.4282032,5.71132487 C16.7376043,5.88995766 16.9282032,6.22008468 16.9282032,6.57735027 L16.9282032,13.4226497 C16.9282032,13.7799153 16.7376043,14.1100423 16.4282032,14.2886751 L10.5,17.7113249 C10.1905989,17.8899577 9.80940108,17.8899577 9.5,17.7113249 L3.57179677,14.2886751 C3.26239569,14.1100423 3.07179677,13.7799153 3.07179677,13.4226497 L3.07179677,6.57735027 C3.07179677,6.22008468 3.26239569,5.88995766 3.57179677,5.71132487 L9.5,2.28867513 C9.80940108,2.11004234 10.1905989,2.11004234 10.5,2.28867513 Z M10.02,7 C9.172,7 8.5,7.288 8.004,7.88 C7.532,8.432 7.3,9.136 7.3,9.992 C7.3,10.84 7.532,11.536 8.004,12.072 C8.508,12.648 9.212,12.936 10.124,12.936 C10.636,12.936 11.092,12.872 11.508,12.744 C11.9,12.616 12.244,12.44 12.548,12.2 L12.548,9.784 L10.1,9.784 L10.1,10.584 L11.612,10.584 L11.612,11.76 C11.42,11.872 11.22,11.96 10.996,12.024 C10.756,12.088 10.5,12.12 10.228,12.12 C9.532,12.12 9.02,11.928 8.692,11.544 C8.388,11.184 8.236,10.664 8.236,9.992 C8.236,9.288 8.404,8.752 8.748,8.368 C9.06,8 9.484,7.824 10.02,7.824 C10.452,7.824 10.804,7.912 11.068,8.096 C11.324,8.28 11.5,8.552 11.58,8.92 L12.524,8.92 C12.42,8.28 12.164,7.808 11.756,7.488 C11.332,7.16 10.756,7 10.02,7 Z" id="形状结合" fill="#57689C"></path>
        </g>
    </g>
</svg>