<?xml version="1.0" encoding="UTF-8"?>
<svg width="20px" height="20px" viewBox="0 0 20 20" version="1.1" xmlns="http://www.w3.org/2000/svg" xmlns:xlink="http://www.w3.org/1999/xlink">
    <title>huawei-cloud-nat-gateway-second-menu</title>
    <g id="huawei-cloud-nat-gateway-second-menu" stroke="none" stroke-width="1" fill="none" fill-rule="evenodd">
        <g id="图标">
            <rect id="矩形" fill-opacity="0" fill="#FFFFFF" x="0" y="0" width="20" height="20"></rect>
            <path d="M16.4,2.00080967 C17.0075132,2.00080967 17.5,2.49329646 17.5,3.1008097 L17.5,16.9 C17.5,17.5075132 17.0075132,18 16.4,18 L3.60000002,18 C2.99248679,18 2.5,17.5075132 2.5,16.9 L2.5,3.1008097 C2.5,2.49329646 2.99248679,2.00080967 3.60000002,2.00080967 L16.4,2.00080967 Z M12.75,12 L11.75,12 L11.75,16 L13.75,14 L12.75,14 L12.75,12 Z M7.24998077,11.9369863 L7.25,15.5 L8.25,15.5 L8.25,12 L7.75,12 C7.57734329,12 7.40979652,11.9781217 7.24998077,11.9369863 Z M8.25,4 L6.25,6 L7.25,6 L7.25013463,7.01025734 C5.7101879,7.13723098 4.5,8.42728822 4.5,10 C4.5,11.3062521 5.3348501,12.4175144 6.50008893,12.8293257 L6.49992752,11.7323937 C5.90216612,11.3865739 5.5,10.7402524 5.5,10 C5.5,8.98037093 6.26300996,8.13895239 7.24920101,8.01557324 L7.24998077,8.06301369 C7.40979652,8.02187826 7.57734329,8 7.75,8 L12.5,8 C13.6045695,8 14.5,8.8954305 14.5,10 C14.5,10.7398375 14.0982846,11.3858493 13.5010775,11.7318119 L13.5009007,12.8289758 C14.6656226,12.4168852 15.5,11.3058822 15.5,10 C15.5,8.42763027 14.2903384,7.13779213 12.7508701,7.01034035 L12.75,4.5 L11.75,4.5 L11.75,7 L8.25,7 L8.25,4 Z" id="形状结合" fill="#57689C"></path>
        </g>
    </g>
</svg>