<?xml version="1.0" encoding="UTF-8"?>
<svg width="20px" height="20px" viewBox="0 0 20 20" version="1.1" xmlns="http://www.w3.org/2000/svg" xmlns:xlink="http://www.w3.org/1999/xlink">
    <title>huawei-cloud-cdn-second-menu</title>
    <g id="huawei-cloud-cdn-second-menu" stroke="none" stroke-width="1" fill="none" fill-rule="evenodd">
        <g id="编组">
            <rect id="矩形" fill-opacity="0" fill="#D8D8D8" x="0" y="0" width="20" height="20"></rect>
            <path d="M10,2 C14.3999913,2 18,5.59999041 18,10 C18,14.3999913 14.399973,18 10,18 C5.59999041,18 2,14.3999913 2,10 C2,5.59999041 5.59999041,2 10,2 Z M14.8150063,5.18746395 C14.3861564,4.75861406 13.684404,4.75861406 13.2555541,5.18746395 C12.9011412,5.54187683 12.8396233,6.08267807 13.0710023,6.50179514 L11.8948317,7.67691618 C10.7964961,6.78026428 9.19789345,6.78047546 8.09979354,7.67754971 L6.92389143,6.50271099 C7.15586448,6.08346665 7.0945173,5.5421344 6.73984685,5.18746395 C6.31099697,4.75861406 5.60924277,4.75861584 5.18039288,5.18746573 C4.751543,5.61631562 4.751543,6.31806804 5.18039288,6.74691792 C5.53623618,7.10276122 6.07997541,7.16334053 6.4997928,6.92865382 L7.67429848,8.10304477 C6.77701626,9.20139998 6.77701274,10.8005004 7.67429775,11.8988594 L6.52863461,13.0443401 L6.46426659,12.972901 C6.03541848,12.5440529 5.33366072,12.5440511 4.90481083,12.972901 C4.47596095,13.4017509 4.47596273,14.1035051 4.90481262,14.532355 C5.3336625,14.9612048 6.03541492,14.9612048 6.46426481,14.532355 C6.70645819,14.2901616 6.8118732,13.9609271 6.78050918,13.6429646 L8.09979202,12.3243536 C9.19814446,13.2216322 10.7972519,13.2216357 11.8956081,12.3243544 L13.0667494,13.4956059 C12.8320629,13.9154231 12.8926397,14.4591648 13.248483,14.8150081 C13.6773329,15.243858 14.3790871,15.2438562 14.807937,14.8150063 C15.2367869,14.3861564 15.2367869,13.684404 14.807937,13.2555541 C14.4532666,12.9008837 13.9119367,12.839534 13.4926922,13.0715073 L12.3211032,11.8988594 C13.2185994,10.8002419 13.2183847,9.20064708 12.3204687,8.10226918 L13.4947026,6.92814603 C13.9146429,7.16342484 14.4589095,7.10301649 14.8150081,6.74691792 C15.243858,6.31806804 15.2438562,5.61631384 14.8150063,5.18746395 Z" id="形状结合" fill="#57689C" fill-rule="nonzero"></path>
        </g>
    </g>
</svg>