<?xml version="1.0" encoding="UTF-8"?>
<svg width="20px" height="20px" viewBox="0 0 20 20" version="1.1" xmlns="http://www.w3.org/2000/svg" xmlns:xlink="http://www.w3.org/1999/xlink">
    <title>huawei-cloud-virtual-private-network-vpn-second-menu</title>
    <g id="huawei-cloud-virtual-private-network-vpn-second-menu" stroke="none" stroke-width="1" fill="none" fill-rule="evenodd">
        <g id="编组">
            <rect id="矩形" fill-opacity="0" fill="#D8D8D8" x="0" y="0" width="20" height="20"></rect>
            <path d="M10,2 C14.3999913,2 18,5.59999041 18,10 C18,11.2273516 17.7198826,12.3924568 17.2204223,13.434542 L4.90442319,13.4340907 C4.66712364,13.4340907 4.52376202,13.6965654 4.65200943,13.8962243 C5.54885081,15.2924502 6.97590457,16.0941943 8.9060343,16.29833 L9.20437039,16.3298828 L9.26747602,15.7332106 L8.96913993,15.7016578 L8.6808391,15.6658384 C7.35680607,15.4760773 6.3316609,14.9698283 5.59263571,14.1456202 L5.4990347,14.0349939 L16.9005739,14.0349382 C15.5072465,16.4023864 12.9311235,18 10,18 C5.59999041,18 2,14.3999913 2,10 C2,8.66724054 2.33029169,7.40788118 2.91306281,6.2997342 L15.5060347,6.29999388 C15.7433342,6.29999388 15.8866959,6.03751919 15.7584485,5.8378603 C14.8616071,4.44163443 13.4345533,3.63989027 11.5044236,3.43575464 L11.2060875,3.40420182 L11.1429819,4.00087399 L11.441318,4.03242681 L11.7296188,4.06824623 C13.0536518,4.25800729 14.078797,4.76425629 14.8178222,5.58846441 L14.9114232,5.69909072 L3.26285573,5.69929105 C4.68847655,3.47882565 7.17991994,2 10,2 Z M4.654,7.716 L3.892,7.716 L5.416,12 L6.262,12 L7.786,7.716 L7.024,7.716 L5.848,11.208 L5.83,11.208 L4.654,7.716 Z M10.012,7.716 L8.236,7.716 L8.236,12 L8.938,12 L8.938,10.356 L10,10.356 C11.044,10.356 11.566,9.912 11.566,9.03 C11.566,8.154 11.044,7.716 10.012,7.716 Z M12.868,7.716 L12.166,7.716 L12.166,12 L12.868,12 L12.868,8.868 L12.892,8.868 L15.034,12 L15.718,12 L15.718,7.716 L15.01,7.716 L15.01,10.806 L14.986,10.806 L12.868,7.716 Z M9.958,8.316 C10.264,8.316 10.492,8.37 10.636,8.484 C10.78,8.592 10.858,8.772 10.858,9.03 C10.858,9.288 10.786,9.474 10.642,9.588 C10.498,9.696 10.27,9.756 9.958,9.756 L8.938,9.756 L8.938,8.316 L9.958,8.316 Z" id="形状" fill="#57689C" fill-rule="nonzero"></path>
        </g>
    </g>
</svg>