<?xml version="1.0" encoding="UTF-8"?>
<svg width="20px" height="20px" viewBox="0 0 20 20" version="1.1" xmlns="http://www.w3.org/2000/svg" xmlns:xlink="http://www.w3.org/1999/xlink">
    <title>hyper-deploy-second-menu</title>
    <g id="hyper-deploy-second-menu" stroke="none" stroke-width="1" fill="none" fill-rule="evenodd">
        <g>
            <rect id="矩形" x="0" y="0" width="20" height="20"></rect>
            <g id="编组-9" transform="translate(2.420000, 2.000000)" fill="#57689C" opacity="0.55">
                <g id="编组-10">
                    <path d="M0,10.2607349 L5.12711887,13.3737756 L6.78249502,12.4116744 L6.818,12.613 L6.83537009,12.6991714 C6.84966256,12.7640406 6.8653523,12.8279845 6.88248354,12.8913362 C6.88813857,12.9122587 6.89408869,12.9335964 6.90020193,12.954865 C6.91437662,13.0041718 6.92936811,13.0529249 6.94521196,13.101292 C6.9548559,13.1307312 6.96479945,13.1599815 6.97505381,13.1890854 C7.02557693,13.332477 7.08363394,13.4722894 7.14875653,13.608069 C7.15960294,13.6306812 7.17056877,13.6530291 7.18172575,13.6752645 C7.21213323,13.7358612 7.24390403,13.7955224 7.27704626,13.8543076 L7.2832242,13.8652275 L5.12711887,15.1578947 L0,11.9750079 L0,10.2607349 Z M0,9.43238829 L0.00685967738,6.89799671 L2.12943985,5.62422466 L2.172,5.65 L2.17745759,4.08537852 L4.30003777,2.8126182 L4.342,2.837 L4.34707555,1.27377205 L6.46965573,0 L11.5967746,3.05543416 L11.5847124,7.62687146 C11.512828,7.61595639 11.4403466,7.60685893 11.3673166,7.59962743 C11.3454426,7.59745774 11.3228206,7.59539733 11.3001477,7.59351657 L11.1627107,7.58435883 L10.9473684,7.57894737 L10.701113,7.58602882 L10.803,7.581 L10.9473684,7.57894737 L10.8237991,7.58072584 L10.803,7.581 C10.7538638,7.58304192 10.7058443,7.58548809 10.6580438,7.58873204 C10.5937335,7.59309569 10.529773,7.59890866 10.4662417,7.60613555 C10.4376327,7.6093912 10.4092977,7.61290841 10.3810515,7.61670568 C10.3415041,7.62202252 10.3021606,7.62788348 10.2629987,7.63428472 C10.2224645,7.64090803 10.1819047,7.64815284 10.1415505,7.65597391 C10.0921675,7.66554474 10.0430836,7.67598058 9.99432401,7.68726336 C9.9733236,7.69212308 9.95243847,7.69712625 9.93161448,7.7022844 C9.86011039,7.71999526 9.78928098,7.73954754 9.71922596,7.76087706 C9.68929549,7.76998648 9.65909136,7.77955698 9.6290368,7.78945675 C9.58379847,7.80435757 9.53886809,7.82001578 9.49429165,7.83640646 L9.46410661,7.84763765 L9.45851516,9.90486768 L7.844,8.942 L7.76961323,9.02705915 C7.75569671,9.04305447 7.74189897,9.05915587 7.72822138,9.07536197 C7.71159628,9.0950626 7.69529152,9.11474236 7.67916361,9.13457172 C7.64946282,9.1710841 7.62019283,9.20832615 7.59154489,9.24606625 C7.57398411,9.2692035 7.55681827,9.2923063 7.53988526,9.31558933 C7.51593366,9.34851741 7.49225724,9.38208464 7.46906416,9.4160085 L7.42151707,9.48709011 L7.41518391,9.49679803 C7.37591448,9.55717422 7.3381511,9.61862 7.30194703,9.68108213 L7.29281701,11.1968509 L6.82678774,10.9196697 C6.8235617,10.9350301 6.82041851,10.950425 6.81735958,10.9658502 L6.81335522,10.9863095 C6.81106429,10.9981709 6.80882314,11.0100501 6.806632,11.0219467 L6.78249502,11.167273 C6.77975663,11.185761 6.77713841,11.2042881 6.77464118,11.2228536 L6.76631299,11.2886904 C6.75893503,11.3509433 6.75291257,11.4136489 6.74828036,11.4767408 L6.74552379,11.5168912 L5.12711887,12.4888342 L0,9.43238829 Z M2.12980705,6.11432992 L0.827070204,6.89664571 L5.13275441,9.46338255 L6.43549126,8.68190887 L5.528,8.14 L2.12980705,6.11432992 Z M4.30040496,3.30272346 L2.99851022,4.08335504 L4.337,4.881 L7.30335233,6.65093399 L8.60608917,5.8686182 L4.30040496,3.30272346 Z M6.47002292,0.490105263 L5.16644397,1.27242105 L9.47297029,3.83831579 L10.7765492,3.056 L6.47002292,0.490105263 Z" id="形状结合"></path>
                </g>
            </g>
            <path d="M13.3673684,9.57894737 C15.6927779,9.57894737 17.5778947,11.4640642 17.5778947,13.7894737 C17.5778947,16.1148832 15.6927779,18 13.3673684,18 C11.0419589,18 9.15684211,16.1148832 9.15684211,13.7894737 C9.15684211,11.4640642 11.0419589,9.57894737 13.3673684,9.57894737 Z M14.1573379,16.0094246 L12.8178516,16.0094246 L12.8178516,16.3157895 L14.1573379,16.3157895 L14.1573379,16.0094246 Z M14.1574867,15.2438953 L12.8180004,15.2438953 L12.8180004,15.7032129 L14.1574867,15.7032129 L14.1574867,15.2438953 Z M13.4875948,11.2631579 L11.6831579,13.8659577 L12.8181805,13.8667895 L12.8180004,14.9376835 L14.1574867,14.9376835 L14.1581805,13.8667895 L15.2921805,13.8659577 L13.4875948,11.2631579 Z" id="形状结合" fill="#57689C"></path>
        </g>
    </g>
</svg>