<?xml version="1.0" encoding="UTF-8"?>
<svg width="20px" height="20px" viewBox="0 0 20 20" version="1.1" xmlns="http://www.w3.org/2000/svg" xmlns:xlink="http://www.w3.org/1999/xlink">
    <title>iis-second-menu</title>
    <g id="iis-second-menu" stroke="none" stroke-width="1" fill="none" fill-rule="evenodd">
        <rect id="矩形" fill="#FFFFFF" opacity="0" x="0" y="0" width="20" height="20"></rect>
        <g id="资源实例" transform="translate(2.000000, 2.000000)">
            <rect id="矩形" fill="#FFFFFF" opacity="0" x="0" y="0" width="16" height="16"></rect>
            <path d="M12.2102823,0.865747044 L12.4480186,0.870719306 C13.2765141,0.874676102 14.0987292,1.01474681 14.8818022,1.28533322 L15.0501532,1.34350594 L15.0501532,2.85671121 L14.6984857,2.70016941 C13.9526633,2.36817294 13.1445603,2.19921784 12.3133993,2.20425837 C11.6100813,2.16720404 10.9173493,2.38761876 10.3676273,2.8219793 C9.90771759,3.19652247 9.64592256,3.76199973 9.65760251,4.37310858 C9.63041916,4.89285951 9.80028641,5.40373848 10.1108987,5.78014553 C10.7913221,6.40944848 11.5536173,6.9439767 12.3854448,7.37374042 C13.631355,8.07812756 14.478198,8.71844882 14.9152628,9.29263319 C15.3547817,9.87301497 15.5871656,10.5839262 15.5752015,11.2993891 C15.6091863,12.311014 15.194511,13.2859755 14.4430619,13.9624237 C13.6925049,14.6442274 12.6437326,14.9814859 11.3032803,14.9814859 C10.7564466,14.9706208 10.2126905,14.8967258 9.69420238,14.7638997 C9.20019859,14.6620024 8.72359772,14.4889509 8.27930089,14.2501558 L8.14765615,14.179401 L8.14765615,12.5233854 L8.53819559,12.7888471 C9.33901377,13.3331879 10.2808125,13.6329717 11.2614492,13.6522588 C12.0335296,13.7059641 12.8011817,13.4979212 13.4244372,13.0736334 C13.8988831,12.6909421 14.162289,12.1048641 14.1334766,11.4726225 C14.1575599,10.9523386 13.9877471,10.4416231 13.6799776,10.0638318 C12.9971709,9.43041145 12.2321435,8.89186379 11.3956222,8.4572839 C10.0277304,7.66664243 9.16120886,6.99818295 8.78693337,6.43100753 C8.40171546,5.85261331 8.20245811,5.17030781 8.21582147,4.4826691 C8.2065853,3.49826735 8.6356204,2.5607462 9.3855605,1.92515624 C10.1161674,1.29890102 11.0282968,0.932363029 11.9734044,0.873996997 L12.2102823,0.865747044 Z M0.6,14.3867546 L0.6,1.23297063 L2.1,1.23297063 L2.1,14.3867546 L0.6,14.3867546 Z M4.58502324,14.3867546 L4.58502324,1.23297063 L6.08502324,1.23297063 L6.08502324,14.3867546 L4.58502324,14.3867546 Z" id="形状结合" fill="#57689C" fill-rule="nonzero"></path>
        </g>
    </g>
</svg>