<?xml version="1.0" encoding="UTF-8"?>
<svg width="20px" height="20px" viewBox="0 0 20 20" version="1.1" xmlns="http://www.w3.org/2000/svg" xmlns:xlink="http://www.w3.org/1999/xlink">
    <title>incident-management-second-menu</title>
    <g id="incident-management-second-menu" stroke="none" stroke-width="1" fill="none" fill-rule="evenodd">
        <g id="编组-3" fill="#000000" opacity="0">
            <rect id="矩形" x="0" y="0" width="20" height="20"></rect>
        </g>
        <g id="编组-2" transform="translate(2.000000, 2.200103)" fill="#57689C">
            <g id="编组" opacity="0.55">
                <path d="M12,0 C12.5522847,-1.01453063e-16 13,0.44771525 13,1 L13,7.922 L12.1109293,6.74231257 C12.0655401,6.68211835 12.0135636,6.62734733 11.9560447,6.57898394 L11.8657403,6.51136764 C11.4056817,6.20581158 10.7850284,6.33106065 10.4794723,6.79111927 L5.03162388,14.993639 C4.9227233,15.1576045 4.8646337,15.3500622 4.8646337,15.5468972 C4.8646337,15.5752195 4.86581113,15.6032668 4.8681197,15.6309928 L1,15.6309928 C0.44771525,15.6309928 6.76353751e-17,15.1832775 0,14.6309928 L0,1 C-6.76353751e-17,0.44771525 0.44771525,3.23497668e-16 1,0 L12,0 Z M6.6,5.94689718 L3.2,5.94689718 C2.7581722,5.94689718 2.4,6.30506939 2.4,6.74689718 C2.4,7.18872498 2.7581722,7.54689718 3.2,7.54689718 L6.6,7.54689718 C7.0418278,7.54689718 7.4,7.18872498 7.4,6.74689718 C7.4,6.30506939 7.0418278,5.94689718 6.6,5.94689718 Z M10.6,2.94689718 L3.2,2.94689718 C2.7581722,2.94689718 2.4,3.30506939 2.4,3.74689718 C2.4,4.18872498 2.7581722,4.54689718 3.2,4.54689718 L10.6,4.54689718 C11.0418278,4.54689718 11.4,4.18872498 11.4,3.74689718 C11.4,3.30506939 11.0418278,2.94689718 10.6,2.94689718 Z" id="形状结合"></path>
            </g>
            <path d="M12.0407023,8.53667503 C12.1612049,8.61414102 12.2636572,8.71659326 12.3411232,8.83709591 L15.7648347,14.1628694 C16.0634869,14.6274395 15.9289839,15.2461533 15.4644138,15.5448055 C15.3031165,15.6484966 15.1154078,15.703627 14.9236562,15.703627 L8.07623314,15.703627 C7.52394839,15.703627 7.07623314,15.2559118 7.07623314,14.703627 C7.07623314,14.5118754 7.13136352,14.3241667 7.23505467,14.1628694 L10.6587662,8.83709591 C10.9574184,8.37252587 11.5761322,8.23802286 12.0407023,8.53667503 Z M11.4923068,13.4327851 C11.1913105,13.4327851 10.9473047,13.6767908 10.9473047,13.9777871 C10.9473047,14.2787835 11.1913105,14.5227892 11.4923068,14.5227892 C11.7933031,14.5227892 12.0373089,14.2787835 12.0373089,13.9777871 C12.0373089,13.6767908 11.7933031,13.4327851 11.4923068,13.4327851 Z M11.4923068,9.82863783 C11.1913105,9.82863783 10.9726444,10.0726436 11.0039024,10.3736399 L11.2519197,12.7619007 C11.2647085,12.8850495 11.3684957,12.9786167 11.4923068,12.9786167 C11.6161179,12.9786167 11.719905,12.8850495 11.7326939,12.7619007 L11.9807112,10.3736399 C12.0119692,10.0726436 11.7933031,9.82863783 11.4923068,9.82863783 Z" id="形状结合备份-2"></path>
        </g>
    </g>
</svg>