<?xml version="1.0" encoding="UTF-8"?>
<svg width="20px" height="20px" viewBox="0 0 20 20" version="1.1" xmlns="http://www.w3.org/2000/svg" xmlns:xlink="http://www.w3.org/1999/xlink">
    <title>infra-monitor-second-menu</title>
    <defs>
        <linearGradient x1="-3.35277807%" y1="50.0024078%" x2="103.379328%" y2="50.0024078%" id="linearGradient-1">
            <stop stop-color="#0471EA" offset="0.4092262%"></stop>
            <stop stop-color="#2AC6CC" offset="76.74%"></stop>
        </linearGradient>
    </defs>
    <g id="infra-monitor-second-menu" stroke="none" stroke-width="1" fill="none" fill-rule="evenodd">
        <g id="Mysql" stroke-linejoin="round">
            <g id="SVGID_1_-link">
                <rect id="矩形" x="0" y="0" width="20" height="20"></rect>
            </g>
        </g>
        <g id="IT资源监控" transform="translate(2.000000, 2.000000)" fill="#57689C">
            <path d="M13,0 C13.5522847,-1.01453063e-16 14,0.44771525 14,1 L14.0009499,9.03558044 C13.8373459,9.0121329 13.6700898,9 13.5,9 C11.5670034,9 10,10.5670034 10,12.5 C10,12.6700898 10.0121329,12.8373459 10.0355804,13.0009499 L7.599,13 L7.599,14.799 L9.4,14.8 C9.73137085,14.8 10,15.0686292 10,15.4 C10,15.7313708 9.73137085,16 9.4,16 L2.6,16 C2.26862915,16 2,15.7313708 2,15.4 C2,15.0686292 2.26862915,14.8 2.6,14.8 L6.399,14.799 L6.399,13 L1,13 C0.44771525,13 -3.76453835e-16,12.5522847 0,12 L0,1 C-6.76353751e-17,0.44771525 0.44771525,1.01453063e-16 1,0 L13,0 Z M8.83336702,6.1734923 C8.67693832,6.01706366 8.42331734,6.01706366 8.26688865,6.1734923 C8.11046,6.329921 8.11046,6.58354198 8.26688865,6.73997067 L9.28383782,7.7569198 L6.4024819,7.7569198 C6.18489627,7.7569198 6.00850826,7.9333078 6.00850826,8.15089343 C6.00850826,8.36847906 6.18489627,8.54486707 6.4024819,8.54486707 L9.28082463,8.54486707 L8.26672424,9.5601453 C8.1103598,9.71669135 8.11043343,9.97033272 8.26688865,10.126788 C8.42331734,10.2832166 8.67693832,10.2832166 8.83336702,10.126788 L10.8100148,8.15014012 Z M5.36067397,2.97499889 C5.20416913,2.81849405 4.95048979,2.818283 4.79372473,2.97452723 L2.81001483,4.95164674 L4.78666265,6.92829456 C4.94309135,7.08472325 5.19671233,7.08472325 5.35314102,6.92829456 C5.50956967,6.77186591 5.50956967,6.51824488 5.35314102,6.36181624 L4.33769847,5.34637369 L7.21302801,5.34637369 C7.43310987,5.34637369 7.61152145,5.16796211 7.61152145,4.94788024 C7.61152145,4.72779843 7.43310987,4.54938685 7.21302801,4.54938685 L4.33468528,4.54938685 L5.35871165,3.53950121 C5.51601884,3.3822076 5.51601884,3.13034378 5.36067397,2.97499889 Z" id="形状结合" fill-rule="nonzero" opacity="0.55"></path>
            <g id="编组备份-4" transform="translate(11.000000, 9.862145)">
                <path d="M4.38954217,4.67351381 L4.82447581,5.63062259 C4.87286118,5.73636161 4.85957698,5.84873284 4.78643141,5.94659903 C4.649036,6.13120511 4.34260202,6.21387995 4.09960618,6.21387995 L0.980664534,6.21387995 C0.696443468,6.21387995 0.433135275,6.11526145 0.309637794,5.96279346 C0.231971774,5.86664969 0.210926916,5.75357895 0.250442943,5.64370881 L0.255794896,5.63062259 L0.690721958,4.67351381 C1.16775194,5.09360586 1.82084865,5.35368046 2.54016835,5.35368046 C3.25938907,5.35368046 3.91225481,5.09383024 4.38954217,4.67351381 Z M2.55756066,0 C3.97005402,0 5.11512133,1.14482311 5.11512133,2.55701292 C5.11512133,3.96920274 3.97005402,5.11401265 2.55756066,5.11401265 C1.14506728,5.11401265 0,3.96920274 0,2.55700633 C0,1.14480991 1.14506728,0 2.55756066,0 Z M2.55756066,1.56346994 C1.75344779,1.56346994 1.10160493,2.21518082 1.10160493,3.01911549 C1.10160493,3.8230502 1.75345439,4.47476768 2.55756066,4.47476768 C3.36167351,4.47476768 4.01351639,3.8230568 4.01351639,3.01912209 C4.01351639,2.21518742 3.36167351,1.56346994 2.55756066,1.56346994 Z M2.55756066,2.25663701 C2.99578072,2.25663701 3.3510158,2.61180611 3.3510158,3.04992719 C3.3510158,3.48804825 2.99578072,3.84321735 2.55756066,3.84321735 C2.11934059,3.84321735 1.7641055,3.48804825 1.7641055,3.04992719 C1.7641055,2.61180611 2.11934719,2.25663701 2.55756066,2.25663701 Z" id="形状结合"></path>
            </g>
        </g>
    </g>
</svg>