<?xml version="1.0" encoding="UTF-8"?>
<svg width="20px" height="20px" viewBox="0 0 20 20" version="1.1" xmlns="http://www.w3.org/2000/svg" xmlns:xlink="http://www.w3.org/1999/xlink">
    <title>inspection-overview-second-menu</title>
    <defs>
        <path d="M3.542525,0.456575 C3.542525,0.646625 3.6589,0.8092 3.8241,0.877975 L3.8241,0.877975 L3.8241,1.6016 L3.308025,1.616825 C2.30265,1.6786 1.66425,1.8767 1.262975,2.161775 L1.262975,2.161775 C0.9555,2.44335 0.737975,2.81995 0.653625,3.2431 L0.653625,3.2431 L0.4151,3.2431 C0.18655,3.2431 0,3.43 0,3.6582 L0,3.6582 L0,4.2511 C0,4.4793 0.18655,4.6662 0.4151,4.6662 L0.4151,4.6662 L0.6167,4.6662 C0.63385,5.221125 0.878675,5.721625 1.262975,6.07355 L1.262975,6.07355 C1.659,6.35495 2.287425,6.550775 3.2697,6.615175 L3.2697,6.615175 C3.266375,6.6367 3.26445,6.66015 3.26445,6.686575 L3.26445,6.686575 L3.26445,6.881 C3.26445,7.095025 3.438225,7.2688 3.652075,7.2688 L3.652075,7.2688 L3.67255,7.2688 L3.67255,7.602 L2.19345,7.602 C1.80845,7.602 1.493625,7.917 1.493625,8.302 L1.493625,8.302 L1.493625,8.7885 C2.19905,9.207625 3.022425,9.44895 3.902325,9.44895 L3.902325,9.44895 C4.8615,9.44895 5.753475,9.1623 6.498625,8.67125 L6.498625,8.67125 L6.498625,8.302 C6.498625,7.917 6.18345,7.602 5.798625,7.602 L5.798625,7.602 L4.31935,7.602 L4.31935,7.2688 L4.339825,7.2688 C4.554025,7.2688 4.727625,7.095025 4.727625,6.881 L4.727625,6.881 L4.727625,6.686575 C4.727625,6.660325 4.727625,6.637225 4.727275,6.6171 L4.727275,6.6171 L4.762275,6.61605 C5.66475,6.5569 6.2615,6.38575 6.653675,6.13935 L6.653675,6.13935 C7.08085,5.7855 7.356825,5.256825 7.375025,4.6662 L7.375025,4.6662 L7.5831,4.6662 C7.811475,4.6662 7.9982,4.4793 7.9982,4.2511 L7.9982,4.2511 L7.9982,3.6582 C7.9982,3.43 7.811475,3.2431 7.5831,3.2431 L7.5831,3.2431 L7.33775,3.2431 C7.246575,2.786 7.00035,2.38315 6.653675,2.095975 L6.653675,2.095975 C6.2615,1.849575 5.66475,1.678425 4.762275,1.619275 L4.762275,1.619275 L4.1741,1.6016 L4.1741,0.877975 C4.3393,0.8092 4.455675,0.646625 4.455675,0.456575 L4.455675,0.456575 C4.455675,0.2044 4.251275,0 3.9991,0 L3.9991,0 C3.74675,0 3.542525,0.2044 3.542525,0.456575" id="path-1"></path>
    </defs>
    <g id="inspection-overview-second-menu" stroke="none" stroke-width="1" fill="none" fill-rule="evenodd">
        <rect id="矩形" fill="#000000" opacity="0" x="0" y="0" width="20" height="20"></rect>
        <g id="编组-3备份" transform="translate(2.000000, 3.000000)">
            <path d="M15,0 C15.5522847,0 16,0.44771525 16,1 L16.0016959,7.9548398 C15.9287356,7.84833378 15.8456972,7.74924075 15.7538629,7.65900292 L15.628675,7.54601 C15.2757175,7.32425 14.7570543,7.1634425 13.9989469,7.09037825 L13.737275,7.06931 L13.1491,7.051635 L13.149,6.429 L14,6.42902289 C14.3313708,6.42902289 14.6,6.16039374 14.6,5.82902289 C14.6,5.49765205 14.3313708,5.22902289 14,5.22902289 L10.4216867,5.22902289 L10.325902,5.23670127 C10.1377133,5.26710468 9.97282551,5.38592766 9.88553786,5.55968227 L8.917,7.485 L7.58008589,3.79550065 C7.39442195,3.28338024 6.67739295,3.26374193 6.463976,3.76493213 L5.19,6.753 L3,6.75396527 C2.66862915,6.75396527 2.4,7.02259442 2.4,7.35396527 C2.4,7.68533612 2.66862915,7.95396527 3,7.95396527 L5.58782498,7.95396527 L5.67673699,7.94736121 C5.88074623,7.91684289 6.05740696,7.78266751 6.1398604,7.58903314 L6.971,5.637 L8.2646351,9.20449935 L8.3069753,9.29741554 C8.44525249,9.54490553 8.72701308,9.6434074 8.97564872,9.5825128 L8.975,9.701135 C8.975,9.90081 9.11782734,10.0688647 9.30664482,10.1077584 L9.3901,10.116235 L9.5917,10.116235 C9.60694444,10.6095017 9.80208025,11.0597659 10.1151617,11.400903 L10.237975,11.523585 C10.5437943,11.7408883 10.9882,11.907161 11.6271196,12.0012891 L1,12 C0.44771525,12 0,11.5522847 0,11 L0,1 C0,0.44771525 0.44771525,0 1,0 L15,0 Z M15,12 L14.3588878,12.0012221 C14.8499983,11.927863 15.2227137,11.8110985 15.5047841,11.6610107 L15.628675,11.589385 C15.7596134,11.4809223 15.8763458,11.3560338 15.9758027,11.2179702 C15.87696,11.6652188 15.4775762,12 15,12 Z M10.791,6.429 L12.799,6.429 L12.7991,7.051635 L12.283025,7.06686 C11.3614313,7.12348708 10.7481984,7.29466503 10.343309,7.54238179 L10.237975,7.61181 L10.154,7.694 L10.791,6.429 Z" id="形状" fill="#57689C" opacity="0.55"></path>
            <g id="编组-15" transform="translate(7.000000, 4.000000)"></g>
        </g>
        <g id="Fill-1-Clipped" transform="translate(10.975000, 8.450035)">
            <mask id="mask-2" fill="white">
                <use xlink:href="#path-1"></use>
            </mask>
            <g id="path-1"></g>
            <path d="M3.9991,-1.59872116e-14 L4.08117404,0.00735552126 C4.29417377,0.046012037 4.455675,0.232419444 4.455675,0.456575 L4.44874694,0.53614949 C4.42142857,0.691160714 4.3157,0.819025 4.1741,0.877975 L4.1741,1.6016 L4.762275,1.619275 L5.0239469,1.64034325 C5.78205425,1.7134075 6.3007175,1.874215 6.653675,2.095975 L6.77886289,2.20896792 C7.05948359,2.48471016 7.25797187,2.8431375 7.33775,3.2431 L7.5831,3.2431 L7.66650493,3.25157656 C7.85523867,3.29047031 7.9982,3.458525 7.9982,3.6582 L7.9982,4.2511 L7.98973062,4.33445469 C7.95086797,4.52310469 7.78292812,4.6662 7.5831,4.6662 L7.375025,4.6662 L7.36193832,4.84141612 C7.300118,5.36081175 7.0381325,5.820885 6.653675,6.13935 L6.5297841,6.21097575 C6.13909275,6.41886 5.5745025,6.562815 4.762275,6.61605 L4.727275,6.6171 L4.727625,6.881 L4.71974727,6.95911187 C4.68359062,7.13575352 4.52725,7.2688 4.339825,7.2688 L4.31935,7.2688 L4.31935,7.602 L5.798625,7.602 L5.89323812,7.60842072 C6.23379045,7.65498611 6.498625,7.94908333 6.498625,8.302 L6.498625,8.67125 L6.27075487,8.81235075 C5.574408,9.2167635 4.7655825,9.44895 3.902325,9.44895 L3.61120278,9.44009918 C2.84090895,9.39312716 2.12066944,9.16105556 1.493625,8.7885 L1.493625,8.302 L1.50004227,8.20735012 C1.54658316,7.8666875 1.84053333,7.602 2.19345,7.602 L3.67255,7.602 L3.67255,7.2688 L3.652075,7.2688 L3.5740209,7.26091509 C3.39749648,7.22472734 3.26445,7.06827187 3.26445,6.881 L3.26582812,6.6490375 L3.2697,6.615175 L3.03143284,6.59636351 C2.18430139,6.51754323 1.62599792,6.3315 1.262975,6.07355 L1.14016173,5.95086804 C0.827080247,5.60973086 0.631944444,5.15946667 0.6167,4.6662 L0.4151,4.6662 L0.331644824,4.65772344 C0.142827344,4.61882969 -1.77635684e-15,4.450775 -1.77635684e-15,4.2511 L-1.77635684e-15,3.6582 L0.00846220703,3.57484531 C0.04729375,3.38619531 0.21511875,3.2431 0.4151,3.2431 L0.653625,3.2431 L0.697802551,3.06474133 C0.801960714,2.71428929 0.999425,2.403125 1.262975,2.161775 L1.368309,2.09234679 C1.77319844,1.84463003 2.38643125,1.67345208 3.308025,1.616825 L3.8241,1.6016 L3.8241,0.877975 L3.75648622,0.84295051 C3.628025,0.762189286 3.542525,0.619475 3.542525,0.456575 C3.542525,0.2044 3.74675,-1.59872116e-14 3.9991,-1.59872116e-14 Z M4.888415,2.768745 L3.109715,2.768745 C2.42494,2.768745 1.86459,3.329095 1.86459,4.01387 L1.86459,4.191845 C1.86459,4.87662 2.42494,5.436795 3.109715,5.436795 L4.05839,5.436795 L4.05839,5.84752 C4.05839,5.94237 4.161115,6.001345 4.243015,5.95357 L5.43008375,5.312895 C5.84794,5.10377 6.13354,4.680095 6.13354,4.191845 L6.13354,4.01387 C6.13354,3.329095 5.57319,2.768745 4.888415,2.768745 Z M4.888415,3.62852 C5.117665,3.62852 5.30334,3.81437 5.30334,4.043445 C5.30334,4.272695 5.117665,4.458545 4.888415,4.458545 C4.659165,4.458545 4.47349,4.272695 4.47349,4.043445 C4.47349,3.81437 4.659165,3.62852 4.888415,3.62852 Z M3.16904,3.62852 C3.398115,3.62852 3.58414,3.81437 3.58414,4.043445 C3.58414,4.272695 3.398115,4.458545 3.16904,4.458545 C2.93979,4.458545 2.75394,4.272695 2.75394,4.043445 C2.75394,3.81437 2.93979,3.62852 3.16904,3.62852 Z" id="形状" fill="#57689C" mask="url(#mask-2)"></path>
        </g>
    </g>
</svg>