<?xml version="1.0" encoding="UTF-8"?>
<svg width="20px" height="20px" viewBox="0 0 20 20" version="1.1" xmlns="http://www.w3.org/2000/svg" xmlns:xlink="http://www.w3.org/1999/xlink">
    <title>Inspection overview 3</title>
    <defs>
        <path d="M3.542525,0.456575 C3.542525,0.646625 3.6589,0.8092 3.8241,0.877975 L3.8241,0.877975 L3.8241,1.6016 L3.308025,1.616825 C2.30265,1.6786 1.66425,1.8767 1.262975,2.161775 L1.262975,2.161775 C0.9555,2.44335 0.737975,2.81995 0.653625,3.2431 L0.653625,3.2431 L0.4151,3.2431 C0.18655,3.2431 0,3.43 0,3.6582 L0,3.6582 L0,4.2511 C0,4.4793 0.18655,4.6662 0.4151,4.6662 L0.4151,4.6662 L0.6167,4.6662 C0.63385,5.221125 0.878675,5.721625 1.262975,6.07355 L1.262975,6.07355 C1.659,6.35495 2.287425,6.550775 3.2697,6.615175 L3.2697,6.615175 C3.266375,6.6367 3.26445,6.66015 3.26445,6.686575 L3.26445,6.686575 L3.26445,6.881 C3.26445,7.095025 3.438225,7.2688 3.652075,7.2688 L3.652075,7.2688 L3.67255,7.2688 L3.67255,7.602 L2.19345,7.602 C1.80845,7.602 1.493625,7.917 1.493625,8.302 L1.493625,8.302 L1.493625,8.7885 C2.19905,9.207625 3.022425,9.44895 3.902325,9.44895 L3.902325,9.44895 C4.8615,9.44895 5.753475,9.1623 6.498625,8.67125 L6.498625,8.67125 L6.498625,8.302 C6.498625,7.917 6.18345,7.602 5.798625,7.602 L5.798625,7.602 L4.31935,7.602 L4.31935,7.2688 L4.339825,7.2688 C4.554025,7.2688 4.727625,7.095025 4.727625,6.881 L4.727625,6.881 L4.727625,6.686575 C4.727625,6.660325 4.727625,6.637225 4.727275,6.6171 L4.727275,6.6171 L4.762275,6.61605 C5.66475,6.5569 6.2615,6.38575 6.653675,6.13935 L6.653675,6.13935 C7.08085,5.7855 7.356825,5.256825 7.375025,4.6662 L7.375025,4.6662 L7.5831,4.6662 C7.811475,4.6662 7.9982,4.4793 7.9982,4.2511 L7.9982,4.2511 L7.9982,3.6582 C7.9982,3.43 7.811475,3.2431 7.5831,3.2431 L7.5831,3.2431 L7.33775,3.2431 C7.246575,2.786 7.00035,2.38315 6.653675,2.095975 L6.653675,2.095975 C6.2615,1.849575 5.66475,1.678425 4.762275,1.619275 L4.762275,1.619275 L4.1741,1.6016 L4.1741,0.877975 C4.3393,0.8092 4.455675,0.646625 4.455675,0.456575 L4.455675,0.456575 C4.455675,0.2044 4.251275,0 3.9991,0 L3.9991,0 C3.74675,0 3.542525,0.2044 3.542525,0.456575" id="path-1"></path>
    </defs>
    <g id="Inspection-overview" stroke="none" stroke-width="1" fill="none" fill-rule="evenodd">
        <rect id="矩形" fill="#000000" opacity="0" x="0" y="0" width="20" height="20"></rect>
        <g id="编组-3备份" transform="translate(2.000000, 3.000000)">
            <path d="M15,0 C15.5522847,-1.01453063e-16 16,0.44771525 16,1 L16,11 C16,11.5522847 15.5522847,12 15,12 L1,12 C0.44771525,12 6.76353751e-17,11.5522847 0,11 L0,1 C-6.76353751e-17,0.44771525 0.44771525,-2.31613845e-16 1,0 L15,0 Z M7.58008589,3.79550065 C7.39442195,3.28338024 6.67739295,3.26374193 6.463976,3.76493213 L5.19,6.753 L3,6.75396527 C2.66862915,6.75396527 2.4,7.02259442 2.4,7.35396527 C2.4,7.68533612 2.66862915,7.95396527 3,7.95396527 L5.58782498,7.95396527 L5.67673699,7.94736121 C5.88074623,7.91684289 6.05740696,7.78266751 6.1398604,7.58903314 L6.971,5.637 L8.2646351,9.20449935 L8.3069753,9.29741554 C8.53334844,9.70258061 9.14426942,9.70844472 9.36485846,9.26934062 L10.791,6.429 L14,6.42902289 C14.3313708,6.42902289 14.6,6.16039374 14.6,5.82902289 C14.6,5.49765205 14.3313708,5.22902289 14,5.22902289 L10.4216867,5.22902289 L10.325902,5.23670127 C10.1377133,5.26710468 9.97282551,5.38592766 9.88553786,5.55968227 L8.917,7.485 Z" id="形状结合" fill="#9FAECF"></path>
            <g id="编组-15" transform="translate(7.000000, 4.000000)"></g>
        </g>
        <g id="巡检管理" transform="translate(10.975000, 8.450035)">
            <g id="Fill-1-Clipped">
                <mask id="mask-2" fill="white">
                    <use xlink:href="#path-1"></use>
                </mask>
                <g id="path-1"></g>
                <path d="M3.542525,0.456575 C3.542525,0.646625 3.6589,0.8092 3.8241,0.877975 L3.8241,0.877975 L3.8241,1.6016 L3.308025,1.616825 C2.30265,1.6786 1.66425,1.8767 1.262975,2.161775 L1.262975,2.161775 C0.9555,2.44335 0.737975,2.81995 0.653625,3.2431 L0.653625,3.2431 L0.4151,3.2431 C0.18655,3.2431 0,3.43 0,3.6582 L0,3.6582 L0,4.2511 C0,4.4793 0.18655,4.6662 0.4151,4.6662 L0.4151,4.6662 L0.6167,4.6662 C0.63385,5.221125 0.878675,5.721625 1.262975,6.07355 L1.262975,6.07355 C1.659,6.35495 2.287425,6.550775 3.2697,6.615175 L3.2697,6.615175 C3.266375,6.6367 3.26445,6.66015 3.26445,6.686575 L3.26445,6.686575 L3.26445,6.881 C3.26445,7.095025 3.438225,7.2688 3.652075,7.2688 L3.652075,7.2688 L3.67255,7.2688 L3.67255,7.602 L2.19345,7.602 C1.80845,7.602 1.493625,7.917 1.493625,8.302 L1.493625,8.302 L1.493625,8.7885 C2.19905,9.207625 3.022425,9.44895 3.902325,9.44895 L3.902325,9.44895 C4.8615,9.44895 5.753475,9.1623 6.498625,8.67125 L6.498625,8.67125 L6.498625,8.302 C6.498625,7.917 6.18345,7.602 5.798625,7.602 L5.798625,7.602 L4.31935,7.602 L4.31935,7.2688 L4.339825,7.2688 C4.554025,7.2688 4.727625,7.095025 4.727625,6.881 L4.727625,6.881 L4.727625,6.686575 C4.727625,6.660325 4.727625,6.637225 4.727275,6.6171 L4.727275,6.6171 L4.762275,6.61605 C5.66475,6.5569 6.2615,6.38575 6.653675,6.13935 L6.653675,6.13935 C7.08085,5.7855 7.356825,5.256825 7.375025,4.6662 L7.375025,4.6662 L7.5831,4.6662 C7.811475,4.6662 7.9982,4.4793 7.9982,4.2511 L7.9982,4.2511 L7.9982,3.6582 C7.9982,3.43 7.811475,3.2431 7.5831,3.2431 L7.5831,3.2431 L7.33775,3.2431 C7.246575,2.786 7.00035,2.38315 6.653675,2.095975 L6.653675,2.095975 C6.2615,1.849575 5.66475,1.678425 4.762275,1.619275 L4.762275,1.619275 L4.1741,1.6016 L4.1741,0.877975 C4.3393,0.8092 4.455675,0.646625 4.455675,0.456575 L4.455675,0.456575 C4.455675,0.2044 4.251275,0 3.9991,0 L3.9991,0 C3.74675,0 3.542525,0.2044 3.542525,0.456575" id="Fill-1" fill="#57689C" mask="url(#mask-2)"></path>
            </g>
            <path d="M4.888415,4.458545 C4.659165,4.458545 4.47349,4.272695 4.47349,4.043445 C4.47349,3.81437 4.659165,3.62852 4.888415,3.62852 C5.117665,3.62852 5.30334,3.81437 5.30334,4.043445 C5.30334,4.272695 5.117665,4.458545 4.888415,4.458545 M3.16904,4.458545 C2.93979,4.458545 2.75394,4.272695 2.75394,4.043445 C2.75394,3.81437 2.93979,3.62852 3.16904,3.62852 C3.398115,3.62852 3.58414,3.81437 3.58414,4.043445 C3.58414,4.272695 3.398115,4.458545 3.16904,4.458545 M4.888415,2.768745 L3.109715,2.768745 C2.42494,2.768745 1.86459,3.329095 1.86459,4.01387 L1.86459,4.191845 C1.86459,4.87662 2.42494,5.436795 3.109715,5.436795 L4.05839,5.436795 L4.05839,5.84752 C4.05839,5.94237 4.161115,6.001345 4.243015,5.95357 L5.42199,5.31832 C5.428115,5.314645 5.432665,5.311145 5.43634,5.30747 C5.84794,5.10377 6.13354,4.680095 6.13354,4.191845 L6.13354,4.01387 C6.13354,3.329095 5.57319,2.768745 4.888415,2.768745" id="Fill-3" fill="#FFFFFF" fill-rule="nonzero"></path>
        </g>
    </g>
</svg>