<?xml version="1.0" encoding="UTF-8"?>
<svg width="20px" height="20px" viewBox="0 0 20 20" version="1.1" xmlns="http://www.w3.org/2000/svg" xmlns:xlink="http://www.w3.org/1999/xlink">
    <title>instance-info-second-menu</title>
    <g id="instance-info-second-menu" stroke="none" stroke-width="1" fill="none" fill-rule="evenodd">
        <rect id="矩形" fill-opacity="0" fill="#D8D8D8" x="0" y="0" width="20" height="20"></rect>
        <g id="elasticsearch" transform="translate(2.000000, 2.000000)">
            <rect id="矩形" fill-opacity="0" fill="#D8D8D8" x="0" y="0" width="16" height="16"></rect>
            <path d="M10.747,0 L14.866,4.073 L14.866,8.504 L13,7.58779147 L8,10.0992335 L8,16 L8.001,16 L2.1,16 C1.49248678,16 1,15.5075132 1,14.9 L1,1.10080967 C1,0.493296447 1.49248678,0.00080967215 2.1,0.00080967215 L10.747,0 Z M10.1581633,6.6 L3.15816326,6.6 L3.15816326,7.9 L10.1581633,7.9 L10.1581633,6.6 Z M6.65816326,3.8 L3.15816326,3.8 L3.15816326,5.1 L6.65816326,5.1 L6.65816326,3.8 Z" id="形状结合" fill="#57689C" opacity="0.550000012"></path>
            <g id="默认" transform="translate(9.000000, 9.000000)" fill="#57689C">
                <path d="M7.83518009,5.67649519 C7.95075803,5.76057519 8.01270118,5.89992962 7.99767617,6.04206503 C7.98265116,6.18420044 7.89294064,6.30752306 7.76233769,6.36557846 L4.1625675,7.96557145 C4.11138591,7.98830164 4.05600174,8.00003086 4,7.99999994 C3.94414421,7.99999994 3.88871698,7.98828564 3.83771821,7.96571431 L0.237805164,6.36572131 C0.0358710681,6.27597543 -0.0550768898,6.03951885 0.0346672143,5.83758077 C0.124411318,5.63564268 0.360863218,5.54469292 0.562797314,5.6344388 L4,7.1621464 L7.43734554,5.6344388 C7.56794848,5.57638339 7.71960216,5.59241519 7.83518009,5.67649519 Z M7.83503722,3.6763611 C7.95061515,3.7604411 8.0125583,3.89979553 7.99753329,4.04193093 C7.98250829,4.18406633 7.89279777,4.30738895 7.76219484,4.36544435 L4.16242465,5.96543735 C4.11129771,5.9881971 4.05596382,5.99997464 4,6.00000863 C3.94400135,6.00015148 3.88857412,5.9882944 3.83757535,5.96558021 L0.237805164,4.36573007 C0.107202228,4.30767466 0.0174917145,4.18435204 0.00246670689,4.04221664 C-0.0125583007,3.90008124 0.0493848531,3.76072681 0.164962782,3.67664682 C0.28054071,3.59256682 0.432194377,3.57653501 0.562797314,3.63459041 L4,5.16229801 L7.43720269,3.6343047 C7.56780562,3.5762493 7.71945929,3.59228111 7.83503722,3.6763611 Z M4.16242465,0.0344633143 L7.76219484,1.63445631 C7.90678586,1.69859417 8,1.84191711 8,2.00009757 C8,2.15827802 7.90678586,2.30160096 7.76219484,2.36573882 L4.16242465,3.96573182 C4.05899857,4.0114459 3.94100143,4.0114459 3.83757535,3.96573182 L0.237805164,2.36573882 C0.0932141419,2.30160096 0,2.15827802 0,2.00009757 C0,1.84191711 0.0932141419,1.69859417 0.237805164,1.63445631 L3.83757535,0.0344633143 C3.94098368,-0.0114877714 4.05901632,-0.0114877714 4.16242465,0.0344633143 Z" id="形状结合"></path>
            </g>
        </g>
    </g>
</svg>