<?xml version="1.0" encoding="UTF-8"?>
<svg width="20px" height="20px" viewBox="0 0 20 20" version="1.1" xmlns="http://www.w3.org/2000/svg" xmlns:xlink="http://www.w3.org/1999/xlink">
    <title>ip-segment-second-menu</title>
    <g id="ip-segment-second-menu" stroke="none" stroke-width="1" fill="none" fill-rule="evenodd">
        <rect id="矩形" fill-opacity="0" fill="#D8D8D8" x="0" y="0" width="20" height="20"></rect>
        <g id="图形" transform="translate(2.000000, 2.000000)" fill="#57689C">
            <path d="M15,0 C15.5522847,-1.01453063e-16 16,0.44771525 16,1 L16,11 C16,11.5522847 15.5522847,12 15,12 L1,12 C0.44771525,12 6.76353751e-17,11.5522847 0,11 L0,1 C-6.76353751e-17,0.44771525 0.44771525,1.01453063e-16 1,0 L15,0 Z M12.9921875,4.6875 C12.5273438,4.6875 12.1494141,4.86132812 11.8583984,5.20898438 C11.5673828,5.55664062 11.421875,6.12402344 11.421875,6.91113281 C11.421875,7.67871094 11.5615234,8.23095703 11.8408203,8.56787109 C12.1201172,8.90478516 12.4765625,9.07324219 12.9101562,9.07324219 C13.3144531,9.07324219 13.6455078,8.94042969 13.9033203,8.67480469 C14.1611328,8.40917969 14.2900391,8.05664062 14.2900391,7.6171875 C14.2900391,7.203125 14.1674805,6.86523438 13.9223633,6.60351562 C13.6772461,6.34179688 13.3828125,6.2109375 13.0390625,6.2109375 C12.734375,6.2109375 12.4794922,6.33203125 12.2744141,6.57421875 C12.3056641,6.08007812 12.3813477,5.75488281 12.5014648,5.59863281 C12.621582,5.44238281 12.7685547,5.36425781 12.9423828,5.36425781 C13.0732422,5.36425781 13.1796875,5.40332031 13.2617188,5.48144531 C13.34375,5.55957031 13.3945312,5.68066406 13.4140625,5.84472656 L14.2109375,5.75683594 C14.1523438,5.40917969 14.0161133,5.14404297 13.8022461,4.96142578 C13.5883789,4.77880859 13.3183594,4.6875 12.9921875,4.6875 Z M2.7734375,4.70507812 L1.90625,4.70507812 L1.90625,9 L2.7734375,9 L2.7734375,4.70507812 Z M4.99121094,4.70507812 L3.59960938,4.70507812 L3.59960938,9 L4.46679688,9 L4.46679688,7.37988281 L5.03222656,7.37988281 C5.42480469,7.37988281 5.72460938,7.359375 5.93164062,7.31835938 C6.08398438,7.28515625 6.23388672,7.21728516 6.38134766,7.11474609 C6.52880859,7.01220703 6.65039062,6.87109375 6.74609375,6.69140625 C6.84179688,6.51171875 6.88964844,6.29003906 6.88964844,6.02636719 C6.88964844,5.68457031 6.80664062,5.40576172 6.640625,5.18994141 C6.47460938,4.97412109 6.26855469,4.83398438 6.02246094,4.76953125 C5.86230469,4.7265625 5.51855469,4.70507812 4.99121094,4.70507812 Z M8.10253906,4.70507812 L7.16210938,4.70507812 L8.69726562,9 L9.62304688,9 L11.1611328,4.70507812 L10.2412109,4.70507812 L9.18945312,7.88378906 L8.10253906,4.70507812 Z M12.9101562,6.81738281 C13.0742188,6.81738281 13.2109375,6.88232422 13.3203125,7.01220703 C13.4296875,7.14208984 13.484375,7.34667969 13.484375,7.62597656 C13.484375,7.89746094 13.4335938,8.09277344 13.3320312,8.21191406 C13.2304688,8.33105469 13.1035156,8.390625 12.9511719,8.390625 C12.7929688,8.390625 12.6523438,8.31787109 12.5292969,8.17236328 C12.40625,8.02685547 12.3447266,7.8203125 12.3447266,7.55273438 C12.3447266,7.31054688 12.3994141,7.12744141 12.5087891,7.00341797 C12.6181641,6.87939453 12.7519531,6.81738281 12.9101562,6.81738281 Z M4.88574219,5.43164062 C5.19824219,5.43164062 5.40625,5.44140625 5.50976562,5.4609375 C5.65039062,5.48632812 5.76660156,5.54980469 5.85839844,5.65136719 C5.95019531,5.75292969 5.99609375,5.88183594 5.99609375,6.03808594 C5.99609375,6.16503906 5.96337891,6.27636719 5.89794922,6.37207031 C5.83251953,6.46777344 5.7421875,6.53808594 5.62695312,6.58300781 C5.51171875,6.62792969 5.28320312,6.65039062 4.94140625,6.65039062 L4.46679688,6.65039062 L4.46679688,5.43164062 Z" id="形状结合" opacity="0.550000012"></path>
            <path d="M6.1571889,13 L9.8428111,13 C10.1820633,13 10.7091766,13.3837559 11.0201517,13.8571429 L11.864757,15.1428571 C12.1757321,15.6162441 11.9322257,16 11.3208704,16 L4.67912961,16 C4.06777426,16 3.82426794,15.6162441 4.13524302,15.1428571 L4.97984833,13.8571429 C5.29082341,13.3837559 5.81793674,13 6.1571889,13 Z" id="矩形"></path>
        </g>
    </g>
</svg>