<?xml version="1.0" encoding="UTF-8"?>
<svg width="20px" height="20px" viewBox="0 0 20 20" version="1.1" xmlns="http://www.w3.org/2000/svg" xmlns:xlink="http://www.w3.org/1999/xlink">
    <title>ip-second-menu</title>
    <g id="ip-second-menu" stroke="none" stroke-width="1" fill="none" fill-rule="evenodd">
        <rect id="矩形" fill-opacity="0" fill="#D8D8D8" x="0" y="0" width="20" height="20"></rect>
        <g id="_定位小" transform="translate(2.000000, 2.000000)">
            <rect id="矩形" fill-opacity="0" fill="#D8D8D8" x="0" y="0" width="16" height="16"></rect>
            <ellipse id="椭圆形" fill="#57689C" opacity="0.550000012" cx="7.5" cy="15.5" rx="2.5" ry="1"></ellipse>
            <path d="M12.3801504,1.94147978 C13.6298063,3.18075236 14.3327351,4.86781079 14.3327351,6.62776429 C14.3327351,8.3877178 13.6298063,10.0747762 12.3801504,11.3140488 L8.01872326,15.6495701 C7.823695,15.84344 7.50871513,15.8434288 7.31370066,15.6495451 L2.9522486,11.3133822 C1.70279812,10.0741355 1,8.38722037 1,6.62743096 C1,4.86764156 1.70279812,3.18072643 2.9522486,1.94147978 C5.55555482,-0.647159926 9.77684418,-0.647159926 12.3801504,1.94147978 Z M6.42382812,4.2734375 L5.26757812,4.2734375 L5.26757812,10 L6.42382812,10 L6.42382812,4.2734375 Z M9.38085938,4.2734375 L7.52539062,4.2734375 L7.52539062,10 L8.68164062,10 L8.68164062,7.83984375 L9.43554688,7.83984375 C9.95898438,7.83984375 10.358724,7.8125 10.6347656,7.7578125 C10.8378906,7.71354167 11.0377604,7.62304688 11.234375,7.48632812 C11.4309896,7.34960938 11.593099,7.16145833 11.7207031,6.921875 C11.8483073,6.68229167 11.9121094,6.38671875 11.9121094,6.03515625 C11.9121094,5.57942708 11.8014323,5.20768229 11.5800781,4.91992188 C11.358724,4.63216146 11.0839844,4.4453125 10.7558594,4.359375 C10.5423177,4.30208333 10.0839844,4.2734375 9.38085938,4.2734375 Z M9.41027583,5.24298469 C9.73329879,5.24617347 9.95396205,5.25892857 10.0722656,5.28125 C10.2597656,5.31510417 10.4147135,5.39973958 10.5371094,5.53515625 C10.6595052,5.67057292 10.7207031,5.84244792 10.7207031,6.05078125 C10.7207031,6.22005208 10.6770833,6.36848958 10.5898438,6.49609375 C10.5026042,6.62369792 10.3821615,6.71744792 10.2285156,6.77734375 C10.0748698,6.83723958 9.77018229,6.8671875 9.31445312,6.8671875 L8.68164062,6.8671875 L8.68164062,5.2421875 Z" id="形状结合" fill="#57689C" fill-rule="nonzero"></path>
        </g>
    </g>
</svg>