<?xml version="1.0" encoding="UTF-8"?>
<svg width="20px" height="20px" viewBox="0 0 20 20" version="1.1" xmlns="http://www.w3.org/2000/svg" xmlns:xlink="http://www.w3.org/1999/xlink">
    <title>it-resource-management-second-menu</title>
    <g id="it-resource-management-second-menu" stroke="none" stroke-width="1" fill="none" fill-rule="evenodd">
        <g id="编组">
            <rect id="矩形" x="0" y="0" width="20" height="20"></rect>
            <path d="M17,3 C17.5522847,3 18,3.44771525 18,4 L18,8.64615385 C18,9.1984386 17.5522847,9.64615385 17,9.64615385 L3,9.64615385 C2.44771525,9.64615385 2,9.1984386 2,8.64615385 L2,4 C2,3.44771525 2.44771525,3 3,3 L17,3 Z M6.8,5.8 L5.2,5.8 C4.7581722,5.8 4.4,6.1581722 4.4,6.6 C4.4,7.0418278 4.7581722,7.4 5.2,7.4 L6.8,7.4 C7.2418278,7.4 7.6,7.0418278 7.6,6.6 C7.6,6.1581722 7.2418278,5.8 6.8,5.8 Z" id="形状结合" fill="#57689C"></path>
            <path d="M17,10.7538462 C17.5522847,10.7538462 18,11.2015614 18,11.7538462 L18,16.4 C18,16.9522847 17.5522847,17.4 17,17.4 L3,17.4 C2.44771525,17.4 2,16.9522847 2,16.4 L2,11.7538462 C2,11.2015614 2.44771525,10.7538462 3,10.7538462 L17,10.7538462 Z M6.8,13.4 L5.2,13.4 C4.7581722,13.4 4.4,13.7581722 4.4,14.2 C4.4,14.6418278 4.7581722,15 5.2,15 L6.8,15 C7.2418278,15 7.6,14.6418278 7.6,14.2 C7.6,13.7581722 7.2418278,13.4 6.8,13.4 Z" id="形状结合" fill="#57689C" opacity="0.55"></path>
        </g>
    </g>
</svg>