<?xml version="1.0" encoding="UTF-8"?>
<svg width="20px" height="20px" viewBox="0 0 20 20" version="1.1" xmlns="http://www.w3.org/2000/svg" xmlns:xlink="http://www.w3.org/1999/xlink">
    <title>jboss-second-menu</title>
    <g id="jboss-second-menu" stroke="none" stroke-width="1" fill="none" fill-rule="evenodd">
        <rect id="矩形" fill-opacity="0" fill="#D8D8D8" x="0" y="0" width="20" height="20"></rect>
        <g id="JBoss" transform="translate(1.500000, 1.500000)">
            <rect id="矩形" fill-opacity="0" fill="#D8D8D8" x="0.5" y="0.5" width="16" height="16"></rect>
            <g id="编组">
                <rect id="矩形备份-9" opacity="0.446149554" x="0" y="0" width="17" height="17"></rect>
                <path d="M5.67375,2.33136111 C5.67375,2.83569444 6.052,3.25597222 6.55633333,3.25597222 C7.06066667,3.25597222 7.48094444,2.87772222 7.48094444,2.37338889 L7.48094444,2.37338889 L7.48094444,2.37338889 C7.48094444,1.86905556 7.06066667,1.49080556 6.55633333,1.49080556 C6.052,1.44877778 5.67375,1.82702778 5.67375,2.33136111 Z M7.98527778,14.3933333 C7.98527778,15.3599722 8.74177778,16.1164722 9.70841667,16.1164722 C10.6750556,16.1164722 11.4315556,15.3599722 11.4315556,14.3933333 C11.4315556,13.4266944 10.6750556,12.6701944 9.70841667,12.6701944 L9.70841667,12.6701944 C8.78380556,12.6701944 7.98527778,13.4687222 7.98527778,14.3933333 Z M6.97661111,13.8049444 C6.97661111,14.6455 6.30416667,15.3179444 5.46361111,15.3179444 C4.62305556,15.3179444 3.95061111,14.6455 3.95061111,13.8049444 C3.95061111,12.9643889 4.62305556,12.2919444 5.46361111,12.2919444 L5.46361111,12.2919444 L5.46361111,12.2919444 C6.26213889,12.2919444 6.93458333,12.9643889 6.97661111,13.8049444 Z M0.798527778,11.0311111 C0.7565,11.7876111 1.34488889,12.4180278 2.05936111,12.4600556 C2.81586111,12.5020833 3.44627778,11.9136944 3.48830556,11.1992222 C3.48830556,11.1571944 3.48830556,11.1151667 3.48830556,11.0311111 L3.48830556,11.0311111 C3.44627778,10.2746111 2.81586111,9.72825 2.05936111,9.77027778 C1.38691667,9.77027778 0.798527778,10.3166389 0.798527778,11.0311111 Z M0.37825,7.20658333 C0.37825,7.87902778 0.924611111,8.42538889 1.59705556,8.42538889 C2.2695,8.42538889 2.81586111,7.87902778 2.81586111,7.20658333 C2.81586111,6.53413889 2.2695,5.98777778 1.59705556,5.98777778 L1.59705556,5.98777778 C0.924611111,5.98777778 0.37825,6.53413889 0.37825,7.20658333 Z M2.52166667,3.88638889 C2.47963889,4.43275 2.89991667,4.93708333 3.48830556,4.97911111 C4.03466667,5.02113889 4.539,4.60086111 4.58102778,4.01247222 C4.58102778,3.97044444 4.58102778,3.92841667 4.58102778,3.88638889 L4.58102778,3.88638889 C4.62305556,3.34002778 4.20277778,2.83569444 3.61438889,2.79366667 C3.06802778,2.75163889 2.56369444,3.17191667 2.52166667,3.76030556 C2.52166667,3.80233333 2.52166667,3.84436111 2.52166667,3.88638889 Z M8.95191667,1.785 C8.99394444,2.20527778 9.33016667,2.5415 9.75044444,2.49947222 C10.1286944,2.45744444 10.4228889,2.16325 10.4649167,1.785 L10.4649167,1.785 C10.4228889,1.36472222 10.0866667,1.0285 9.66638889,1.07052778 C9.28813889,1.07052778 8.99394444,1.40675 8.95191667,1.785 Z" id="形状" fill="#57689C" fill-rule="nonzero" opacity="0.550000012"></path>
                <path d="M8.16265522,4.43275 L10.1799886,4.43275 L10.1799886,7.96308333 C10.2220163,8.55147222 10.1379608,9.09783333 9.96984967,9.64419444 C9.80173856,10.0644722 9.54957189,10.4006944 9.17132189,10.6108333 C8.70901633,10.9050278 8.16265522,11.0311111 7.65832189,11.0311111 C7.15398856,11.0731389 6.60762745,10.9470556 6.14532189,10.7789444 C5.80909967,10.6108333 5.51490522,10.3166389 5.30476633,9.98041667 C5.22071078,9.85433333 5.178683,9.72825 5.13665522,9.56013889 C5.01057189,9.18188889 5.22071078,8.76161111 5.59896078,8.63552778 C5.64098856,8.63552778 5.68301633,8.5935 5.72504411,8.5935 L6.14532189,8.55147222 C6.52357189,8.50944444 6.85979411,8.71958333 6.98587745,9.09783333 L6.98587745,9.09783333 C7.02790522,9.22391667 7.11196078,9.35 7.23804411,9.43405556 C7.53223856,9.60216667 7.86846078,9.51811111 8.07859967,9.26594444 C8.204683,9.01377778 8.24671078,8.71958333 8.24671078,8.42538889 L8.16265522,4.43275 Z M10.7170833,4.43275 L14.4575556,4.43275 C14.9618889,4.39072222 15.4662222,4.60086111 15.8865,4.93708333 C16.2227222,5.23127778 16.3908333,5.65155556 16.3908333,6.07183333 C16.3908333,6.45008333 16.26475,6.78630556 16.0125833,7.0805 C15.8024444,7.29063889 15.5923056,7.41672222 15.2981111,7.50077778 C15.6763611,7.58483333 16.0546111,7.79497222 16.3488056,8.08916667 C16.5589444,8.38336111 16.6850278,8.76161111 16.6850278,9.13986111 C16.6850278,9.47608333 16.6009722,9.77027778 16.4328611,10.0644722 C16.26475,10.3166389 16.0546111,10.5688056 15.8024444,10.6948889 C15.5502778,10.8209722 15.2981111,10.9050278 15.0459444,10.9050278 C14.5836389,10.9470556 14.2894444,10.9890833 14.1633611,10.9890833 L10.6750556,10.9890833 L10.7170833,4.43275 Z M12.7764444,6.99644444 L13.6590278,6.99644444 C13.8691667,7.03847222 14.1213333,6.95441667 14.3314722,6.82833333 C14.4575556,6.70225 14.5416111,6.53413889 14.4995833,6.36602778 C14.4995833,6.19791667 14.4575556,6.02980556 14.3314722,5.90372222 C14.1213333,5.77763889 13.9111944,5.73561111 13.7010556,5.73561111 L12.8184722,5.73561111 L12.7764444,6.99644444 Z M12.7764444,9.56013889 L13.7851111,9.56013889 C14.0372778,9.60216667 14.2894444,9.51811111 14.4995833,9.39202778 C14.6256667,9.26594444 14.7097222,9.09783333 14.7097222,8.88769444 C14.7097222,8.71958333 14.6256667,8.55147222 14.4995833,8.42538889 C14.2894444,8.29930556 14.0372778,8.21525 13.7430833,8.25727778 L12.7344167,8.25727778 L12.7344167,9.56013889 L12.7764444,9.56013889 L12.7764444,9.56013889 Z" id="形状结合" fill="#57689C" fill-rule="nonzero"></path>
            </g>
        </g>
    </g>
</svg>