<?xml version="1.0" encoding="UTF-8"?>
<svg width="20px" height="20px" viewBox="0 0 20 20" version="1.1" xmlns="http://www.w3.org/2000/svg" xmlns:xlink="http://www.w3.org/1999/xlink">
    <title>jdbc-multiple-data-source-info-second-menu</title>
    <g id="jdbc-multiple-data-source-info-second-menu" stroke="none" stroke-width="1" fill="none" fill-rule="evenodd">
        <rect id="矩形" fill="#FFFFFF" opacity="0" x="0" y="0" width="20" height="20"></rect>
        <g id="图形" transform="translate(1.500000, 1.500000)">
            <rect id="矩形" fill="#FFFFFF" opacity="0" x="0.5" y="0.5" width="16" height="16"></rect>
            <path d="M8.5,0 C13.1944204,0 17,3.80557963 17,8.5 C17,13.1944204 13.1944204,17 8.5,17 C3.80557963,17 0,13.1944204 0,8.5 C0,3.80557963 3.80557963,0 8.5,0 Z M12.4726102,3.99466991 L8.87261024,3.99466991 L8.87234487,7.84666991 L6.642,7.846 L6.64213562,5.50660172 L2.5,8.43553391 L6.64213562,11.3644661 L6.642,9.046 L8.87234487,9.04666991 L8.87261024,13.0456093 L12.4726102,13.0456093 L12.4726102,11.8456093 L10.0726102,11.8456093 L10.0723449,9.04766991 L14.9997572,9.04999995 L15.0002428,7.85000005 L10.0723449,7.84766991 L10.0726102,5.19466991 L12.4726102,5.19466991 L12.4726102,3.99466991 Z" id="形状结合" fill="#57689C"></path>
        </g>
    </g>
</svg>