<?xml version="1.0" encoding="UTF-8"?>
<svg width="20px" height="20px" viewBox="0 0 20 20" version="1.1" xmlns="http://www.w3.org/2000/svg" xmlns:xlink="http://www.w3.org/1999/xlink">
    <title>job management 3</title>
    <g id="job-management" stroke="none" stroke-width="1" fill="none" fill-rule="evenodd">
        <rect id="矩形" fill="#000000" opacity="0" x="0" y="0" width="20" height="20"></rect>
        <g id="编组" transform="translate(3.000000, 2.000000)" fill="#9FAECF">
            <path d="M7.725,0 L13.866,6.073 L13.8666667,14.9 C13.8666667,15.5075132 13.3741799,16 12.7666667,16 L1.1,16 C0.492486775,16 2.96443518e-16,15.5075132 0,14.9 L0,1.10080967 C-7.43989126e-17,0.493296447 0.492486775,0.00080967215 1.1,0.00080967215 L7.725,0 Z M3.20715231,7.02424942 L2.24192808,8.01052635 L2.73506655,8.49313847 L4.29371429,10.018 L2.74098869,11.5011346 L2.24212331,11.9778246 L3.19550325,12.9755554 L3.69436863,12.4988654 L5.76240425,10.5227575 L6.27827553,10.0298176 L5.7683264,9.53075362 L3.70029078,7.50686153 L3.20715231,7.02424942 Z M11.69,11.31 L6.88142857,11.31 L6.88142857,12.69 L11.69,12.69 L11.69,11.31 Z" id="形状结合"></path>
        </g>
        <path d="M15.7666667,2.00122524 C16.3741799,2.00122524 16.8666667,2.49371201 16.8666667,3.10122524 L16.8660444,8.07341556 L10.7250444,2.00041556 L15.7666667,2.00122524 Z" id="形状结合" fill="#57689C" transform="translate(13.796356, 5.036626) rotate(-180.000000) translate(-13.796356, -5.036626) "></path>
    </g>
</svg>