<?xml version="1.0" encoding="UTF-8"?>
<svg width="20px" height="20px" viewBox="0 0 20 20" version="1.1" xmlns="http://www.w3.org/2000/svg" xmlns:xlink="http://www.w3.org/1999/xlink">
    <title>job-management-second-menu</title>
    <g id="job-management-second-menu" stroke="none" stroke-width="1" fill="none" fill-rule="evenodd">
        <rect id="矩形" fill="#000000" opacity="0" x="0" y="0" width="20" height="20"></rect>
        <g id="编组-2" transform="translate(3.000000, 2.000000)" fill="#57689C" opacity="0.55">
            <g id="编组">
                <path d="M7.725,0 L13.866,6.073 L13.8666667,14.9 C13.8666667,15.5075132 13.3741799,16 12.7666667,16 L1.1,16 C0.492486775,16 0,15.5075132 0,14.9 L0,1.10080967 C0,0.493296447 0.492486775,0.00080967215 1.1,0.00080967215 L7.725,0 Z M3.20715231,7.02424942 L2.24192808,8.01052635 L4.29371429,10.018 L2.24212331,11.9778246 L3.19550325,12.9755554 L6.27827553,10.0298176 L3.20715231,7.02424942 Z M11.69,11.31 L6.88142857,11.31 L6.88142857,12.69 L11.69,12.69 L11.69,11.31 Z" id="形状"></path>
            </g>
        </g>
        <path d="M11.8260444,8.07202586 C11.2185312,8.07202586 10.7260444,7.57953908 10.7260444,6.97202586 L10.7266667,1.99983553 L16.8676667,8.07283553 L11.8260444,8.07202586 Z" id="路径" fill="#57689C"></path>
    </g>
</svg>