<?xml version="1.0" encoding="UTF-8"?>
<svg width="20px" height="20px" viewBox="0 0 20 20" version="1.1" xmlns="http://www.w3.org/2000/svg" xmlns:xlink="http://www.w3.org/1999/xlink">
    <title>job management 2</title>
    <g id="job-management" stroke="none" stroke-width="1" fill="none" fill-rule="evenodd">
        <rect id="矩形" fill="#000000" opacity="0" x="0" y="0" width="20" height="20"></rect>
        <path d="M10.725,2 L16.866,8.073 L16.8666667,16.9 C16.8666667,17.5075132 16.3741799,18 15.7666667,18 L4.1,18 C3.49248678,18 3,17.5075132 3,16.9 L3,3.10080967 C3,2.49329645 3.49248678,2.00080967 4.1,2.00080967 L10.725,2 Z M6.20715231,9.02424942 L5.24192808,10.0105264 L5.73506655,10.4931385 L7.29371429,12.018 L5.74098869,13.5011346 L5.24212331,13.9778246 L6.19550325,14.9755554 L6.69436863,14.4988654 L8.76240425,12.5227575 L9.27827553,12.0298176 L8.7683264,11.5307536 L6.70029078,9.50686153 L6.20715231,9.02424942 Z M14.69,13.31 L9.88142857,13.31 L9.88142857,14.69 L14.69,14.69 L14.69,13.31 Z" id="形状结合" fill="#FFFFFF" opacity="0.55"></path>
        <path d="M15.7666667,2.00122524 C16.3741799,2.00122524 16.8666667,2.49371201 16.8666667,3.10122524 L16.8660444,8.07341556 L10.7250444,2.00041556 L15.7666667,2.00122524 Z" id="形状结合" fill="#FFFFFF" transform="translate(13.796356, 5.036626) rotate(-180.000000) translate(-13.796356, -5.036626) "></path>
    </g>
</svg>