<?xml version="1.0" encoding="UTF-8"?>
<svg width="20px" height="20px" viewBox="0 0 20 20" version="1.1" xmlns="http://www.w3.org/2000/svg" xmlns:xlink="http://www.w3.org/1999/xlink">
    <title>jvm-info-second-menu</title>
    <g id="jvm-info-second-menu" stroke="none" stroke-width="1" fill="none" fill-rule="evenodd">
        <rect id="矩形" fill="#FFFFFF" opacity="0" x="0" y="0" width="20" height="20"></rect>
        <g id="Weblogic" transform="translate(0.155762, 2.000000)">
            <rect id="矩形" fill-opacity="0" fill="#FFFFFF" x="1.84423828" y="0" width="16" height="16"></rect>
            <g id="JVM" transform="translate(0.000000, 3.825977)" fill="#57689C" fill-rule="nonzero">
                <g id="形状结合">
                    <path d="M2.83056641,0 L4.13574219,0 L4.13574219,4.984375 C4.13574219,5.79003906 4.05517578,6.3898112 3.89404297,6.78369141 C3.73291016,7.17757161 3.49210612,7.48014323 3.17163086,7.69140625 C2.8511556,7.90266927 2.45638021,8.00830078 1.98730469,8.00830078 C1.36783854,8.00830078 0.88264974,7.7952474 0.531738281,7.36914062 C0.180826823,6.94303385 0.00358072917,6.30029297 0,5.44091797 L1.22998047,5.26904297 C1.24430339,5.73095703 1.30338542,6.05859375 1.40722656,6.25195312 C1.546875,6.51692708 1.75634766,6.64941406 2.03564453,6.64941406 C2.30777995,6.64941406 2.50830078,6.55362956 2.63720703,6.36206055 C2.76611328,6.17049154 2.83056641,5.74527995 2.83056641,5.08642578 L2.83056641,0 Z M7.96503906,7.87402344 L5.66083984,0 L7.0734375,0 L8.70625,5.82763672 L10.2853516,0 L11.6710937,0 L9.36152344,7.87402344 L7.96503906,7.87402344 Z M13.115625,7.87402344 L13.115625,0 L15.065332,0 L16.2362305,5.37109375 L17.3963867,0 L19.3514648,0 L19.3514648,7.87402344 L18.1429687,7.87402344 L18.1429687,1.67578125 L16.8592773,7.87402344 L15.6024414,7.87402344 L14.3294922,1.67578125 L14.3294922,7.87402344 L13.115625,7.87402344 Z"></path>
                </g>
            </g>
        </g>
    </g>
</svg>