<?xml version="1.0" encoding="UTF-8"?>
<svg width="20px" height="20px" viewBox="0 0 20 20" version="1.1" xmlns="http://www.w3.org/2000/svg" xmlns:xlink="http://www.w3.org/1999/xlink">
    <title>jvm-second menu-pressed</title>
    <g id="jvm-second-menu-pressed" stroke="none" stroke-width="1" fill="none" fill-rule="evenodd">
        <g id="jvm">
            <rect id="矩形" x="0" y="0" width="20" height="20"></rect>
            <path d="M14.6166538,10.0391149 C15.2204183,10.0680414 15.7127848,10.5031704 15.7127848,11.2897259 C15.7127848,13.1957999 13.1549406,13.481988 13.1549406,13.481988 C13.1549406,13.481988 14.8092922,12.3907806 14.8092922,11.2318729 C14.8092922,10.714888 14.1981422,10.2656035 13.4817489,10.4237763 C13.8448692,10.1572829 14.2535335,10.0224975 14.6166538,10.0391149 Z M8.32728654,10.0588095 C8.32728654,10.0588095 6.9043472,10.3905415 6.9043472,10.7124261 C6.9043472,11.0638528 11.344878,11.001076 13.2897259,10.5973355 C13.0780083,10.8041294 12.2705272,11.3666582 12.2705272,11.3666582 C9.30340323,11.9556517 5.15398411,11.8811813 5.15398411,10.9241438 C5.15398411,10.236677 6.93512011,10.0895825 7.82753449,10.0588095 C8.12541625,10.0489622 8.32728654,10.0588095 8.32728654,10.0588095 Z M13.7703988,4.82741493 C13.7703988,4.82741493 11.4193485,6.26266343 11.308566,7.03875621 C11.1934753,7.85177648 12.3277648,8.54416694 11.9431034,9.55844204 C11.5947541,10.4723975 10.4813902,10.6736523 10.4813902,10.6736523 C10.4813902,10.6736523 11.1023875,10.1763621 11.0777692,9.5781367 C11.0488427,8.84451054 10.0554931,8.31583195 10.1355027,7.30832689 C10.3109083,5.04590259 13.7703988,4.82741493 13.7703988,4.82741493 Z M11.1547015,2 C13.1426314,4.94496744 8.23127506,6.47622742 8.92366553,8.17366111 C9.33232976,9.17870434 9.63021153,9.72215392 10.0394912,10.3665386 C10.0370294,10.3665386 7.35609351,8.53924328 7.69274914,6.9815186 C8.06079314,5.28408491 12.0175739,4.03655115 11.1547015,2 Z M8.01955744,13.5010672 C7.35363168,13.5010672 6.92342641,13.9220406 6.92342641,14.2322315 C6.92342641,15.1861917 10.9023636,15.2803568 12.4816293,14.3091638 L11.4815098,13.6549318 C10.3035228,14.1626848 7.33947614,14.2371552 8.01955744,13.5010672 Z M16.3091638,15.8478093 C14.6166538,17.4849281 10.3330648,18.0714597 6.01931832,17.0596465 C10.3324493,18.862939 16.2876228,17.8597421 16.3091638,15.8478093 Z" id="形状结合" fill="#FFFFFF" fill-rule="nonzero"></path>
            <path d="M7.5579638,11.8282518 C7.06990546,11.8282518 6.34612662,12.2079896 6.34612662,12.5778799 C6.34612662,13.3231998 10.020412,13.8955759 12.7321208,12.8086767 L11.7892389,12.2319924 C9.95024979,12.8332951 6.55292058,12.6332712 7.5579638,11.8282518 Z M5.7885215,14.3670169 C4.7022378,14.3454758 4,14.8378424 4,15.2508148 C4,17.4504624 15.1361005,17.3452191 15.1361005,15.0969503 C15.1361005,14.7245981 14.6960479,14.5467307 14.5397215,14.4624129 C15.4487533,16.6115929 5.442634,16.4435728 5.442634,15.1738826 C5.442634,14.8858481 6.1830302,14.5971982 6.86557334,14.7319836 L6.28888901,14.4045598 C6.12316604,14.3804369 5.95598602,14.3676876 5.7885215,14.3664014 L5.7885215,14.3670169 Z" id="形状结合" fill="#FFFFFF" opacity="0.55"></path>
        </g>
    </g>
</svg>