<?xml version="1.0" encoding="UTF-8"?>
<svg width="20px" height="20px" viewBox="0 0 20 20" version="1.1" xmlns="http://www.w3.org/2000/svg" xmlns:xlink="http://www.w3.org/1999/xlink">
    <title>Kafka-second menu-normal</title>
    <g id="Kafka-second-menu-normal" stroke="none" stroke-width="1" fill="none" fill-rule="evenodd">
        <g id="图形">
            <rect id="矩形" fill-opacity="0" fill="#D8D8D8" x="0" y="0" width="20" height="20"></rect>
            <path d="M5.88888889,4.08888889 L5.88802055,9.48288889 L6.16202055,9.60488889 L14.1130706,5.72845056 L14.5514417,6.6272446 L7.35502055,10.1358889 L14.6167572,13.3691677 L14.2100206,14.2827132 L6.18302055,10.7078889 L5.88802055,10.8518889 L5.88888889,16.0888889 L4.88888889,16.0888889 L4.88802055,11.3398889 L4.66470721,11.4493272 L4.22633606,10.5505332 L4.88802055,10.2268889 L4.88802055,10.1318889 L4.16102055,9.80861008 L4.56775719,8.89506462 L4.88802055,9.03788889 L4.88888889,4.08888889 L5.88888889,4.08888889 Z" id="形状结合" fill="#57689C"></path>
            <path d="M5.38888889,5.08888889 C6.21731601,5.08888889 6.88888889,4.41731601 6.88888889,3.58888889 C6.88888889,2.76046176 6.21731601,2.08888889 5.38888889,2.08888889 C4.56046176,2.08888889 3.88888889,2.76046176 3.88888889,3.58888889 C3.88888889,4.41731601 4.56046176,5.08888889 5.38888889,5.08888889 Z M5.38888889,18.0888889 C6.21731601,18.0888889 6.88888889,17.417316 6.88888889,16.5888889 C6.88888889,15.7604618 6.21731601,15.0888889 5.38888889,15.0888889 C4.56046176,15.0888889 3.88888889,15.7604618 3.88888889,16.5888889 C3.88888889,17.417316 4.56046176,18.0888889 5.38888889,18.0888889 Z M14.8888889,16.0888889 C15.9934584,16.0888889 16.8888889,15.1934584 16.8888889,14.0888889 C16.8888889,12.9843194 15.9934584,12.0888889 14.8888889,12.0888889 C13.7843194,12.0888889 12.8888889,12.9843194 12.8888889,14.0888889 C12.8888889,15.1934584 13.7843194,16.0888889 14.8888889,16.0888889 Z M14.8888889,8.08888889 C15.9934584,8.08888889 16.8888889,7.19345839 16.8888889,6.08888889 C16.8888889,4.98431939 15.9934584,4.08888889 14.8888889,4.08888889 C13.7843194,4.08888889 12.8888889,4.98431939 12.8888889,6.08888889 C12.8888889,7.19345839 13.7843194,8.08888889 14.8888889,8.08888889 Z M5.88888889,13.0888889 C7.54574314,13.0888889 8.88888889,11.7457431 8.88888889,10.0888889 C8.88888889,8.43203464 7.54574314,7.08888889 5.88888889,7.08888889 C4.23203464,7.08888889 2.88888889,8.43203464 2.88888889,10.0888889 C2.88888889,11.7457431 4.23203464,13.0888889 5.88888889,13.0888889 Z" id="形状结合" fill="#9FAECF"></path>
        </g>
    </g>
</svg>