<?xml version="1.0" encoding="UTF-8"?>
<svg width="20px" height="20px" viewBox="0 0 20 20" version="1.1" xmlns="http://www.w3.org/2000/svg" xmlns:xlink="http://www.w3.org/1999/xlink">
    <title>key-second-menu</title>
    <g id="key-second-menu" stroke="none" stroke-width="1" fill="none" fill-rule="evenodd">
        <g id="project-list" fill="#000000" opacity="0">
            <rect id="矩形" x="0" y="0" width="20" height="20"></rect>
        </g>
        <g id="key" transform="translate(1.000000, 1.000000)">
            <rect id="矩形备份-10" fill="#000000" fill-rule="nonzero" opacity="0" x="0" y="0" width="18" height="18"></rect>
            <path d="M9.0343125,0.4095 L9.369,0.7003125 C10.641375,1.80675 12.62025,2.5183125 15.2505,2.815875 L15.75,2.8726875 L15.75,10.6875 C15.75,13.2755625 13.554,15.530625 9.2221875,17.391375 L8.987625,17.4920625 L9.00463477,11.5743378 C9.26357546,11.0913112 9.35936865,10.526042 9.25839844,9.97207031 L13.7847656,7.86621094 L13.2644531,6.75 L12.1166016,7.284375 L11.559375,6.08554687 L10.4431641,6.60410156 L11.0003906,7.80292969 L9.011625,8.7285 L9.0343125,0.4095 Z" id="形状结合" fill="#57689C"></path>
            <path d="M9.0343125,0.4095 L9.011,8.7285 L8.73808594,8.85585937 C8.50304129,8.56958705 8.2047154,8.34013871 7.86192659,8.18522572 L7.68691406,8.1140625 C7.07167969,7.8890625 6.40722656,7.91894531 5.81484375,8.19492187 C5.22246094,8.47089844 4.77246094,8.96132812 4.54746094,9.5765625 C4.32246094,10.1917969 4.35234375,10.85625 4.62832031,11.4486328 C4.90429688,12.0410156 5.39472656,12.4910156 6.00996094,12.7160156 C6.28417969,12.8162109 6.5671875,12.8654297 6.85019531,12.8654297 C7.20175781,12.8654297 7.55332031,12.7880859 7.88203125,12.6351562 C8.3795431,12.4037751 8.76263121,12.0252777 9.00410428,11.5753268 L8.987625,17.4920625 L8.7575625,17.382375 C4.3785,15.2915625 2.25,13.10175 2.25,10.6875 L2.25,2.8125 L2.8125,2.8125 C4.707,2.8125 6.679125,2.0908125 8.6731875,0.667125 L9.0343125,0.4095 Z M6.84667969,9.19511719 C6.98730469,9.19511719 7.12792969,9.21972656 7.26503906,9.26894531 C7.57089844,9.3796875 7.81523438,9.6046875 7.95234375,9.9 C8.23535156,10.5099609 7.96992188,11.2359375 7.36171875,11.5189453 C7.06640625,11.6560547 6.7359375,11.6701172 6.43007813,11.559375 C6.12421875,11.4486328 5.87988281,11.2236328 5.74277344,10.9283203 C5.60566406,10.6330078 5.59160156,10.3025391 5.70234375,9.99667969 C5.81308594,9.69082031 6.03808594,9.44648437 6.33339844,9.309375 C6.496875,9.23378906 6.67089844,9.19511719 6.84667969,9.19511719 Z" id="形状结合" fill="#57689C" opacity="0.55"></path>
        </g>
    </g>
</svg>