<?xml version="1.0" encoding="UTF-8"?>
<svg width="20px" height="20px" viewBox="0 0 20 20" version="1.1" xmlns="http://www.w3.org/2000/svg" xmlns:xlink="http://www.w3.org/1999/xlink">
    <title>kingbasees-second-menu</title>
    <g id="kingbasees-second-menu" stroke="none" stroke-width="1" fill="none" fill-rule="evenodd">
        <rect id="矩形" fill-opacity="0" fill="#D8D8D8" x="0" y="0" width="20" height="20"></rect>
        <g id="DB2" transform="translate(0.000000, 2.000000)">
            <rect id="矩形" fill-opacity="0" fill="#D8D8D8" x="2" y="0" width="16" height="16"></rect>
            <path d="M3.28974845,4.41212131 L3.289,6.45712131 L7.56642143,4.41212131 L7.566,5.90312131 L3.28974845,7.94860089 L7.566,9.99412131 L7.56642143,11.6495679 L3.289,9.60312131 L3.28974845,11.6495679 L1.72711794,11.6495679 L1.727,8.85612131 L0,8.0308446 L1.727,7.20412131 L1.72711794,4.41212131 L3.28974845,4.41212131 Z M13.6524561,4.41212131 L13.6524561,5.64577698 L9.95148906,5.64577698 L9.95148906,7.12616378 L13.4057249,7.12616378 L13.4057249,8.35981945 L9.95148906,8.35981945 L9.95148906,10.0869374 L13.6524561,10.0869374 L13.6524561,11.3205931 L8.38885855,11.3205931 L8.38885855,4.41212131 L13.6524561,4.41212131 Z M14.2557908,9.186433 L15.6436534,9.05150191 C15.7271822,9.51733543 15.8966492,9.85948212 16.1520545,10.077942 C16.4074598,10.2964018 16.7520159,10.4056318 17.185723,10.4056318 C17.6451312,10.4056318 17.9912937,10.3084493 18.2242105,10.1140842 C18.4571273,9.91971921 18.5735856,9.69242458 18.5735856,9.43220034 C18.5735856,9.2651428 18.5245928,9.12298326 18.4266071,9.00572172 C18.3286215,8.88846018 18.1575481,8.7864587 17.9133871,8.69971729 C17.7463296,8.64188968 17.3656311,8.53908504 16.7712918,8.39130337 C16.0066823,8.20175732 15.4701706,7.96884056 15.1617567,7.69255309 C14.7280496,7.30382305 14.5111961,6.82995791 14.5111961,6.27095769 C14.5111961,5.91114145 14.6131975,5.57461689 14.8172005,5.26138401 C15.0212035,4.94815112 15.3151605,4.70961223 15.6990715,4.54576734 C16.0829826,4.38192245 16.5464067,4.3 17.0893437,4.3 C17.9760337,4.3 18.6434607,4.49436502 19.0916246,4.88309506 C19.5397886,5.2718251 19.7751149,5.79066727 19.7976034,6.43962155 L18.371189,6.50226813 C18.3101487,6.13923925 18.1792335,5.87821184 17.9784432,5.71918592 C17.7776528,5.56015999 17.4764674,5.48064703 17.0748868,5.48064703 C16.6604556,5.48064703 16.3359784,5.56578212 16.1014553,5.7360523 C15.950461,5.84528223 15.8749639,5.99145758 15.8749639,6.17457834 C15.8749639,6.34163588 15.945642,6.48459858 16.0869984,6.60346644 C16.2669065,6.75446076 16.7038263,6.91188036 17.3977576,7.07572525 C18.0916889,7.23957015 18.6049089,7.40903717 18.9374177,7.58412632 C19.2699264,7.75921547 19.5301507,7.99855752 19.7180904,8.30215247 C19.9060301,8.60574742 20,8.98082372 20,9.42738137 C20,9.83217464 19.8875574,10.2112667 19.6626723,10.5646577 C19.4377871,10.9180486 19.1197353,11.1806824 18.7085167,11.3525589 C18.2972982,11.5244354 17.7848813,11.6103736 17.1712661,11.6103736 C16.2781508,11.6103736 15.5922511,11.4039612 15.113567,10.9911363 C14.6348829,10.5783114 14.3489575,9.97674366 14.2557908,9.186433 Z" id="形状结合" fill="#57689C"></path>
        </g>
    </g>
</svg>