<?xml version="1.0" encoding="UTF-8"?>
<svg width="20px" height="20px" viewBox="0 0 20 20" version="1.1" xmlns="http://www.w3.org/2000/svg" xmlns:xlink="http://www.w3.org/1999/xlink">
    <title>knowledge-base-second-menu</title>
    <g id="knowledge-base-second-menu" stroke="none" stroke-width="1" fill="none" fill-rule="evenodd">
        <g id="应用性能监控">
            <rect id="矩形" x="0" y="0" width="20" height="20"></rect>
            <path d="M10.2859304,2 L10.2859304,5.87610048 C10.2859304,6.15224286 10.509788,6.37610048 10.7859304,6.37610048 C10.9185387,6.37610048 11.0457156,6.32342206 11.1394838,6.22965387 L12.4644478,4.90468986 L13.3957683,6.02227449 C13.5725504,6.23441294 13.8878327,6.26307497 14.0999712,6.08629293 C14.2139675,5.99129602 14.279879,5.85057222 14.279879,5.70218229 L14.279879,2 L15.0953101,2 C15.6475949,2 16.0953101,2.44771525 16.0953101,3 L16.0953101,16.9757943 C16.0953101,17.528079 15.6475949,17.9757943 15.0953101,17.9757943 L5.1785174,17.9757943 L5.1785174,2 L10.2859304,2 Z M13.3167927,13.9818457 L7.98124054,13.9818457 C7.64986969,13.9818457 7.38124054,14.2504748 7.38124054,14.5818457 C7.38124054,14.9132165 7.64986969,15.1818457 7.98124054,15.1818457 L13.3167927,15.1818457 C13.6481636,15.1818457 13.9167927,14.9132165 13.9167927,14.5818457 C13.9167927,14.2504748 13.6481636,13.9818457 13.3167927,13.9818457 Z M13.3167927,11.4402421 L7.98124054,11.4402421 C7.64986969,11.4402421 7.38124054,11.7088712 7.38124054,12.0402421 C7.38124054,12.3716129 7.64986969,12.6402421 7.98124054,12.6402421 L13.3167927,12.6402421 C13.6481636,12.6402421 13.9167927,12.3716129 13.9167927,12.0402421 C13.9167927,11.7088712 13.6481636,11.4402421 13.3167927,11.4402421 Z" id="形状结合" fill="#57689C"></path>
            <path d="M-3.89863843,8.92284418 L12.0771558,8.92284418 L12.0771558,10.1013616 C12.0771558,10.6536463 11.6294406,11.1013616 11.0771558,11.1013616 L-2.89863843,11.1013616 C-3.45092318,11.1013616 -3.89863843,10.6536463 -3.89863843,10.1013616 L-3.89863843,8.92284418 L-3.89863843,8.92284418 Z" id="矩形备份-11" fill="#57689C" opacity="0.55" transform="translate(4.089259, 10.012103) rotate(90.000000) translate(-4.089259, -10.012103) "></path>
        </g>
    </g>
</svg>