<?xml version="1.0" encoding="UTF-8"?>
<svg width="20px" height="20px" viewBox="0 0 20 20" version="1.1" xmlns="http://www.w3.org/2000/svg" xmlns:xlink="http://www.w3.org/1999/xlink">
    <title>layout-second-menu</title>
    <g id="layout-second-menu" stroke="none" stroke-width="1" fill="none" fill-rule="evenodd">
        <g id="编组-3" fill="#000000" opacity="0">
            <rect id="矩形" x="0" y="0" width="20" height="20"></rect>
        </g>
        <path d="M12.4,12.311971 L2,12.311971 L2,3.16082225 C2,2.52043531 2.48035714,2 3.07142857,2 L12.4,2 L12.4,12.311971 Z" id="路径" fill="#57689C"></path>
        <path d="M17.9464286,6.62200726 L13.2,6.62200726 L13.2,2 L16.9285714,2 C17.5196429,2 18,2.52043531 18,3.16082225 L18,6.56396614 C18,6.59685611 17.9767857,6.62200726 17.9464286,6.62200726 Z" id="路径" fill="#57689C" opacity="0.55"></path>
        <path d="M17.9464286,12.311971 L13.2,12.311971 L13.2,7.68802902 L17.9464286,7.68802902 C17.9767857,7.68802902 18,7.71318017 18,7.74607013 L18,12.2519952 C18,12.2848851 17.9767857,12.311971 17.9464286,12.311971 Z" id="路径" fill="#57689C" opacity="0.55"></path>
        <path d="M16.9285714,18 L13.2,18 L13.2,13.3779927 L18,13.3779927 L18,16.8391778 C18,17.4814994 17.5196429,18 16.9285714,18 Z" id="路径" fill="#57689C"></path>
        <path d="M6.8,18 L3.07142857,18 C2.48035714,18 2,17.4795647 2,16.8391778 L2,13.3779927 L6.8,13.3779927 L6.8,18 Z" id="路径" fill="#57689C"></path>
        <polygon id="路径" fill="#57689C" points="7.6 13.3779927 12.4 13.3779927 12.4 18 7.6 18"></polygon>
    </g>
</svg>