<?xml version="1.0" encoding="UTF-8"?>
<svg width="20px" height="20px" viewBox="0 0 20 20" version="1.1" xmlns="http://www.w3.org/2000/svg" xmlns:xlink="http://www.w3.org/1999/xlink">
    <title>loadbalance-second-menu</title>
    <g id="loadbalance-second-menu" stroke="none" stroke-width="1" fill="none" fill-rule="evenodd">
        <g id="负载均衡" fill-rule="nonzero">
            <rect id="矩形" fill="#000000" opacity="0" x="0" y="0" width="20" height="20"></rect>
            <path d="M7.76538494,13.4022972 C8.27043518,13.6114959 8.65671458,14.0123754 8.85409491,14.4999815 L15.5833333,14.5 C15.9975469,14.5 16.3333333,14.8357864 16.3333333,15.25 C16.3333333,15.6642136 15.9975469,16 15.5833333,16 L8.85422231,16.0010071 C8.55728715,16.7334301 7.83898386,17.25 7.00002923,17.25 C6.19111656,17.25 5.46185464,16.7627228 5.15229716,16.0153849 L5.14633333,16 L4.08333333,16 C3.66911977,16 3.33333333,15.6642136 3.33333333,15.25 C3.33333333,14.8357864 3.66911977,14.5 4.08333333,14.5 L5.14597378,14.4999756 C5.24462958,14.2559524 5.39228099,14.0293917 5.58583635,13.8358363 C6.15782399,13.2638487 7.01804709,13.0927397 7.76538494,13.4022972 Z M7.19134624,14.7880743 C7.00451177,14.7106849 6.789456,14.7534622 6.64645909,14.8964591 C6.50346218,15.039456 6.46068492,15.2545118 6.53807429,15.4413462 C6.61546366,15.6281807 6.79777914,15.75 7,15.75 C7.27614564,15.75 7.5,15.5261457 7.5,15.25 C7.5,15.0477792 7.3781807,14.8654637 7.19134624,14.7880743 Z" id="形状结合" fill="#57689C"></path>
            <path d="M7.76538494,3.40229718 C8.27043518,3.61149585 8.65671458,4.01237539 8.85409491,4.49998148 L15.5833333,4.5 C15.9975469,4.5 16.3333333,4.83578644 16.3333333,5.25 C16.3333333,5.66421356 15.9975469,6 15.5833333,6 L8.85422231,6.00100705 C8.55728715,6.7334301 7.83898386,7.25 7.00002923,7.25 C6.19111656,7.25 5.46185464,6.76272276 5.15229716,6.0153849 L5.14633333,6 L4.08333333,6 C3.66911977,6 3.33333333,5.66421356 3.33333333,5.25 C3.33333333,4.83578644 3.66911977,4.5 4.08333333,4.5 L5.14597378,4.49997562 C5.24462958,4.25595239 5.39228099,4.02939167 5.58583635,3.83583632 C6.15782399,3.26384869 7.01804709,3.09273969 7.76538494,3.40229718 Z M7.19134624,4.7880743 C7.00451177,4.71068492 6.789456,4.75346217 6.64645909,4.89645908 C6.50346218,5.03945599 6.46068492,5.25451176 6.53807429,5.44134622 C6.61546366,5.62818069 6.79777914,5.75 7,5.75 C7.27614564,5.75 7.5,5.52614565 7.5,5.25 C7.5,5.04777915 7.3781807,4.86546367 7.19134624,4.7880743 Z" id="形状结合备份" fill="#57689C"></path>
            <path d="M7.76538494,8.40229718 C8.27043518,8.61149585 8.65671458,9.01237539 8.85409491,9.49998148 L15.5833333,9.5 C15.9975469,9.5 16.3333333,9.83578644 16.3333333,10.25 C16.3333333,10.6642136 15.9975469,11 15.5833333,11 L8.85422231,11.0010071 C8.55728715,11.7334301 7.83898386,12.25 7.00002923,12.25 C6.19111656,12.25 5.46185464,11.7627228 5.15229716,11.0153849 L5.14633333,11 L4.08333333,11 C3.66911977,11 3.33333333,10.6642136 3.33333333,10.25 C3.33333333,9.83578644 3.66911977,9.5 4.08333333,9.5 L5.14597378,9.49997562 C5.24462958,9.25595239 5.39228099,9.02939167 5.58583635,8.83583632 C6.15782399,8.26384869 7.01804709,8.09273969 7.76538494,8.40229718 Z M7.19134624,9.7880743 C7.00451177,9.71068492 6.789456,9.75346217 6.64645909,9.89645908 C6.50346218,10.039456 6.46068492,10.2545118 6.53807429,10.4413462 C6.61546366,10.6281807 6.79777914,10.75 7,10.75 C7.27614564,10.75 7.5,10.5261457 7.5,10.25 C7.5,10.0477792 7.3781807,9.86546367 7.19134624,9.7880743 Z" id="形状结合备份-2" fill="#57689C" opacity="0.550000012" transform="translate(9.833333, 10.250000) scale(-1, 1) translate(-9.833333, -10.250000) "></path>
        </g>
    </g>
</svg>