<?xml version="1.0" encoding="UTF-8"?>
<svg width="20px" height="20px" viewBox="0 0 20 20" version="1.1" xmlns="http://www.w3.org/2000/svg" xmlns:xlink="http://www.w3.org/1999/xlink">
    <title>log-collection-second-menu</title>
    <g id="log-collection-second-menu" stroke="none" stroke-width="1" fill="none" fill-rule="evenodd">
        <rect id="矩形" fill="#FFFFFF" opacity="0" x="0" y="0" width="20" height="20"></rect>
        <g id="编组-44" transform="translate(3.000000, 3.000000)" fill="#57689C">
            <path d="M0,11.237 L0,11.873 C0,12.829 0.395,14 1.355,14 L12.651,14 C13.605,14 14,12.829 14,11.873 L14,11.237 C14,12.191 13.399,12.444 12.444,12.444 L1.556,12.444 C0.595,12.444 0,12.192 0,11.237 Z" id="路径" opacity="0.550000012"></path>
            <path d="M0,1.349 L0,9.328 C0,10.282 0.595,10.889 1.556,10.889 L12.445,10.889 C13.4,10.889 14.001,10.282 14.001,9.328 L14.001,1.349 C14,0.394 13.605,0 12.651,0 L11.455,0 L11.455,1.444 C11.837,1.668 12.092,2.074 12.092,2.545 C12.092,3.246 11.519,3.819 10.819,3.819 C10.119,3.819 9.546,3.247 9.546,2.545 C9.546,2.074 9.8,1.668 10.182,1.444 L10.182,0 L3.818,0 L3.818,1.444 C4.199,1.668 4.454,2.074 4.454,2.545 C4.454,3.246 3.881,3.819 3.181,3.819 C2.481,3.819 1.908,3.247 1.908,2.545 C1.908,2.074 2.162,1.668 2.544,1.444 L2.544,0 L1.354,0 C0.395,0 0,0.394 0,1.349 Z" id="路径"></path>
        </g>
    </g>
</svg>