<?xml version="1.0" encoding="UTF-8"?>
<svg width="20px" height="20px" viewBox="0 0 20 20" version="1.1" xmlns="http://www.w3.org/2000/svg" xmlns:xlink="http://www.w3.org/1999/xlink">
    <title>log-configuration-info-second-menu</title>
    <g id="log-configuration-info-second-menu" stroke="none" stroke-width="1" fill="none" fill-rule="evenodd">
        <rect id="矩形" fill="#FFFFFF" opacity="0" x="0" y="0" width="20" height="20"></rect>
        <g id="数据审批备份" transform="translate(2.000000, 2.000000)">
            <rect id="矩形备份-49" fill-opacity="0.1" fill="#FFFFFF" opacity="0" x="0" y="0" width="16" height="16"></rect>
            <g id="数据审批" transform="translate(0.780000, 0.289701)" fill="#57689C">
                <path d="M6.88166306,0 L13,6.07324055 L13.0005324,7.79657579 C12.3879297,7.528833 11.7113108,7.38029945 11,7.38029945 C10.9161771,7.38029945 10.832836,7.38236213 10.7500246,7.38643949 L10.4859477,7.12520332 L8.171088,4.84229442 L7.468912,5.55429784 L9.41785973,7.47529613 L9.14467769,7.73583114 C7.30186686,8.47263802 6,10.2744351 6,12.3802995 C6,13.3411457 6.27102765,14.2386901 6.74080411,15.0006537 L1,15 C0.44771525,15 6.76353751e-17,14.5522847 0,14 L0,1 C-6.76353751e-17,0.44771525 0.44771525,1.01453063e-16 1,0 L6.88166306,0 Z M4.78377173,4.84229442 L2.468912,7.12520332 L2.10211972,7.48693295 L2.47463738,7.84276368 L4.7894971,10.0539292 L5.48022235,9.33081192 L3.537,7.47529613 L5.48594773,5.55429784 L4.78377173,4.84229442 Z" id="形状结合" opacity="0.550000012"></path>
                <path d="M11.8934535,8.71029945 C11.8934535,9.93620084 12.8087385,10.4343128 13.8378979,9.87696612 L14.6156757,11.1739555 C13.5587994,11.7463125 13.6196189,12.7072236 14.6156757,13.2466434 L13.8378979,14.5436328 C11.8934535,13.6106486 11.8934535,15.7102995 11.8934535,15.7102995 L10.3378979,15.7102995 C10.3378979,14.4843981 9.42261287,13.9862861 8.39345348,14.5436328 L7.6156757,13.2466434 C8.67255203,12.6742864 8.61173251,11.7133753 7.6156757,11.1739555 L8.39345348,9.87696612 C9.46734049,10.4585353 10.3378979,9.88514179 10.3378979,8.71029945 L11.8934535,8.71029945 Z M11.1156757,11.0436328 C10.4713435,11.0436328 9.94900903,11.5659672 9.94900903,12.2102995 C9.94900903,12.8546317 10.4713435,13.3769661 11.1156757,13.3769661 C11.7600079,13.3769661 12.2823424,12.8546317 12.2823424,12.2102995 C12.2823424,11.5659672 11.7600079,11.0436328 11.1156757,11.0436328 Z" id="形状结合"></path>
            </g>
        </g>
    </g>
</svg>