<?xml version="1.0" encoding="UTF-8"?>
<svg width="20px" height="20px" viewBox="0 0 20 20" version="1.1" xmlns="http://www.w3.org/2000/svg" xmlns:xlink="http://www.w3.org/1999/xlink">
    <title>LVS-second menu-normal</title>
    <g id="LVS-second-menu-normal" stroke="none" stroke-width="1" fill="none" fill-rule="evenodd">
        <g id="linux" transform="translate(3.000000, 2.000000)" fill-rule="nonzero">
            <path d="M6.93625854,2.39306988 C6.78259864,2.4931275 6.6646736,2.63964043 6.59856411,2.81116776 C6.53066787,3.0327239 6.54138833,3.26857398 6.62536525,3.48476989 C6.69504823,3.71168626 6.83441419,3.91001474 7.02202221,4.05295419 C7.11850634,4.12085042 7.22928441,4.16373226 7.34720945,4.1780262 C7.46513449,4.19232014 7.58305953,4.17266597 7.68847737,4.11906368 C7.81354939,4.0493807 7.913607,3.94038937 7.97256952,3.80995713 C8.0297453,3.67773814 8.06190667,3.53658544 8.06548016,3.393646 C8.07798736,3.21139821 8.0547597,3.02915041 7.99758392,2.85583634 C7.93504791,2.66644157 7.81354939,2.50384795 7.64916902,2.39306988 C7.5651921,2.33946759 7.47228146,2.30373273 7.37401059,2.28943879 C7.27573972,2.27514484 7.17568211,2.2858653 7.08277147,2.32160016 C7.03095593,2.34304108 6.98092712,2.36984223 6.9344718,2.4020036" id="路径" fill="#FFFFFF"></path>
            <path d="M12.0284763,9.68655505 C11.9373524,9.18090676 11.7944129,8.68597894 11.6032314,8.21070528 C11.4727992,7.85693016 11.2959116,7.52102246 11.0761422,7.21370266 C10.8545861,6.91889005 10.5740674,6.67053277 10.3578715,6.37214668 C10.2435199,6.21670003 10.1470358,6.04338595 10.027324,5.89151279 C9.97908197,5.79145518 9.93262665,5.69139757 9.88617133,5.59133996 C9.74323189,5.27865992 9.61279965,4.95883292 9.44305905,4.66223357 C9.41625791,4.61577825 9.38767002,4.56932293 9.36086887,4.52465435 C9.33942796,4.23877546 9.30905333,3.95289657 9.29297264,3.66701769 C9.30547984,3.09347316 9.25723778,2.5181419 9.14824645,1.95353109 C9.07320324,1.68373289 8.95885169,1.42465515 8.80876527,1.18880506 C8.63366445,0.910073146 8.40853482,0.667076091 8.14409685,0.472321097 C7.71349177,0.166788034 7.19890977,0.00240767287 6.67182057,0.000620929814 C6.28409733,-0.00831278548 5.89994757,0.0792376244 5.55510616,0.25791193 C5.19239732,0.45624041 4.89937146,0.761773473 4.71533692,1.13162929 C4.54380959,1.50505858 4.45268569,1.90886252 4.44732546,2.31981342 C4.43303152,2.72361735 4.47055312,3.1238478 4.48663381,3.52765173 C4.5027145,3.9457496 4.49378078,4.36563422 4.5277289,4.7837321 C4.53844936,4.91773783 4.55453005,5.05174356 4.55453005,5.18753603 C4.55453005,5.25543226 4.55095656,5.3233285 4.54916982,5.38943799 L4.54380959,5.40373194 C4.3615618,5.71283849 4.15965983,6.01122458 3.93989044,6.29531672 C3.78623053,6.49007172 3.63257063,6.68303997 3.47712398,6.87422147 C3.27522202,7.10113784 3.10369468,7.35306861 2.96790221,7.62465356 C2.87677832,7.86050364 2.80352185,8.1035007 2.74634607,8.35007124 L2.74098584,8.36972541 C2.65522218,8.65381756 2.54801759,8.92897599 2.41937209,9.19520071 C2.40686489,9.22021511 2.39435769,9.24701626 2.38363723,9.27024392 C2.30680728,9.42926405 2.22640384,9.58828418 2.14242692,9.74373083 L2.04594279,9.92419188 C1.98519353,10.0331832 1.93159124,10.145748 1.88513592,10.2600996 C1.85833477,10.3297825 1.83689386,10.4012523 1.82438665,10.4745087 C1.80115899,10.6299554 1.81187945,10.7871888 1.85297454,10.9372752 C1.86190826,10.9747968 1.87441546,11.0123184 1.88692266,11.04984 C1.92623101,11.1606181 1.97268633,11.2696094 2.02807536,11.3732405 C2.05308977,11.4214826 2.07989091,11.4679379 2.10490531,11.5161799 L2.12813297,11.5501281 C2.15314738,11.5947966 2.17994852,11.6394652 2.20674967,11.682347 L2.21032315,11.6877073 C2.24069779,11.7377361 2.2746459,11.7859781 2.30680728,11.8342202 L2.31216751,11.8413672 C2.34611563,11.8878225 2.38006375,11.9360646 2.41579861,11.9825199 C2.54801759,12.4988886 2.79101465,12.9795225 3.1251356,13.3940469 C3.07332005,13.4851708 3.02686473,13.5745079 2.97504918,13.6638451 C2.79280139,13.9282831 2.64271497,14.2123752 2.52657668,14.5107613 C2.47833461,14.6644212 2.46582741,14.8270148 2.49262856,14.986035 C2.51764296,15.1468418 2.59983314,15.291568 2.72490516,15.3969859 C2.80888208,15.4613086 2.9053662,15.5059772 3.00721056,15.5274181 C3.10905491,15.548859 3.21447275,15.5595795 3.31989059,15.5542193 C3.71654755,15.5238446 4.10963103,15.4452279 4.48842055,15.3237294 C4.71712367,15.2629801 4.94582678,15.2093778 5.17810337,15.1629225 C5.41931369,15.1075335 5.66409749,15.0735854 5.91066803,15.0628649 C5.97141729,15.0646517 6.03216656,15.0610782 6.09112908,15.0575047 C6.25908292,15.0753721 6.42703677,15.0825191 6.59677736,15.0753721 L6.65931337,15.0717986 C6.7021952,15.0771589 6.74686378,15.0789456 6.79153236,15.0825191 C7.0881317,15.0985998 7.38294431,15.1289744 7.67597017,15.173643 C7.93326117,15.2129513 8.19055217,15.2629801 8.44426969,15.3255161 C8.83556641,15.4434412 9.2375836,15.5220579 9.64674776,15.556006 C9.75395235,15.5613662 9.86115693,15.5524325 9.96836151,15.5309916 C10.0737794,15.5095507 10.173837,15.4630954 10.2596006,15.3987726 C10.3846726,15.2951415 10.4668628,15.1504153 10.493664,14.9896084 C10.5204651,14.8305883 10.5079579,14.6679947 10.4597159,14.5143348 C10.3417908,14.2159487 10.1899177,13.9318566 10.0040964,13.6692053 C9.93977362,13.560214 9.87902436,13.4476492 9.81470161,13.3386579 C10.0916468,13.0295513 10.3364306,12.6900701 10.541906,12.329148 C10.666978,12.336295 10.7902633,12.3220011 10.9099751,12.2826927 C11.2226551,12.1772749 11.4942401,11.9735862 11.6836348,11.7020012 C11.7408106,11.6215978 11.7854792,11.5322606 11.8122803,11.4375632 C11.9355656,11.2463817 12.0195425,11.0319726 12.0588509,10.8068429 C12.1160267,10.4352004 12.107093,10.0546241 12.0320497,9.68655505 L12.0284763,9.68655505 Z" id="路径" fill="#9FAECF"></path>
            <path d="M5.15666246,4.62471196 C5.10127342,4.69618169 5.06196508,4.78015861 5.0423109,4.86770902 C5.02265673,4.95525943 5.01014953,5.04638333 5.00836278,5.13572048 C5.01372301,5.31618153 4.99942907,5.49664258 4.96369421,5.67353014 C4.9011582,5.85756467 4.80646082,6.02730527 4.68496229,6.17917843 C4.47591335,6.44182965 4.31153299,6.73664226 4.19896818,7.05110904 C4.1417924,7.24586403 4.12213823,7.44955274 4.14357914,7.65324145 C3.92738323,7.97306846 3.73977521,8.31254964 3.58432857,8.66632476 C3.344905,9.20056094 3.19124509,9.77053197 3.12870909,10.3530102 C3.05187914,11.0694942 3.15729698,11.7931251 3.43245541,12.4577935 C3.63435737,12.9366407 3.94167718,13.365459 4.33118716,13.7103004 C4.53130239,13.8836145 4.75107178,14.0301274 4.98692187,14.1462657 C5.82133088,14.5536431 6.79867933,14.5447094 7.62415462,14.1212513 C8.03689227,13.880041 8.41389505,13.5816549 8.74265578,13.2368135 C8.9552782,13.0438453 9.14467296,12.8276493 9.31084007,12.5917993 C9.58778524,12.1111654 9.75037886,11.571569 9.78432698,11.0176786 C9.95585431,10.0599843 9.85043647,9.07370218 9.4823674,8.17318368 C9.33764121,7.87301084 9.14645971,7.59785241 8.91418311,7.35842884 C8.85164784,6.93846784 8.7301417,6.52943725 8.55326101,6.14344356 C8.42461551,5.86649839 8.26916887,5.60206042 8.14945708,5.31796827 C8.10121502,5.20182997 8.05833318,5.08390493 8.00473089,4.97134012 C7.95291534,4.85698856 7.88144562,4.75157072 7.79389521,4.66223357 C7.69919783,4.57468316 7.58663302,4.50857367 7.46334775,4.47105206 C7.34006248,4.43174371 7.21320372,4.4103028 7.08455822,4.40672931 C6.82726722,4.39422211 6.56818947,4.42638349 6.31447196,4.41744977 C6.10899651,4.40851605 5.90709454,4.37278119 5.70161909,4.38528839 C5.59977474,4.39064862 5.49793038,4.4103028 5.403233,4.4478244 C5.30674887,4.48534601 5.22277195,4.54609527 5.15666246,4.62649871 M5.23885264,2.39128314 C5.14236851,2.39843011 5.05124462,2.4395252 4.98156164,2.5056347 C4.91187866,2.57174419 4.86006311,2.65572111 4.83147522,2.74684501 C4.78323316,2.93266629 4.77072596,3.12742128 4.7975271,3.31860279 C4.80110059,3.49191687 4.83147522,3.66523094 4.888651,3.8296113 C4.92081237,3.91001474 4.96726769,3.98505795 5.02801696,4.04759396 C5.08876622,4.11012996 5.16559617,4.15658528 5.2495731,4.1780262 C5.32997653,4.19768037 5.41395346,4.19410689 5.49078341,4.16909248 C5.56761336,4.14407808 5.63908308,4.10119625 5.69625886,4.04402047 C5.78023579,3.9582568 5.84098505,3.85283896 5.87135968,3.73848741 C5.90173431,3.62413585 5.91602826,3.50442407 5.91245477,3.38471228 C5.91245477,3.23641261 5.88922711,3.08811293 5.84455854,2.94517349 C5.79988996,2.80223405 5.72306001,2.6718018 5.61942891,2.56281048 C5.5694001,2.51099493 5.51222433,2.46632635 5.44790158,2.43416498 C5.38179208,2.40379034 5.31032236,2.38770966 5.23885264,2.39128314 M6.93625854,2.39128314 C6.78259864,2.49134075 6.6646736,2.63785368 6.59856411,2.80938102 C6.53066787,3.03093716 6.54138833,3.26678724 6.62536525,3.48298315 C6.69504823,3.70989952 6.83441419,3.908228 7.02202221,4.05116744 C7.11850634,4.11906368 7.22928441,4.16194551 7.34720945,4.17623946 C7.46513449,4.1905334 7.58305953,4.17087923 7.68847737,4.11727694 C7.81354939,4.04759396 7.913607,3.93860263 7.97256952,3.80817039 C8.0297453,3.6759514 8.06190667,3.5347987 8.06548016,3.39185925 C8.07798736,3.20961146 8.0547597,3.02736367 7.99758392,2.85404959 C7.93504791,2.66465483 7.81354939,2.50206121 7.64916902,2.39128314 C7.5651921,2.33768085 7.47228146,2.30194599 7.37401059,2.28765204 C7.27573972,2.2733581 7.17568211,2.28407856 7.08277147,2.31981342 C7.03095593,2.34125434 6.98092712,2.36805548 6.9344718,2.40021686" id="形状" fill="#FFFFFF"></path>
            <path d="M7.28109995,2.84511588 C7.22392418,2.84868936 7.17032188,2.8665568 7.12207982,2.89693143 C7.07383776,2.92730606 7.03274267,2.96840115 7.00058129,3.01485647 C6.93983203,3.10955385 6.90588391,3.22033192 6.90409717,3.33468348 C6.89873694,3.4186604 6.91124414,3.50442407 6.93804529,3.5848275 C6.96484643,3.66523094 7.01487524,3.73670066 7.07919799,3.79030296 C7.14709422,3.84569199 7.22928441,3.87785337 7.31683482,3.8832136 C7.40438523,3.88678708 7.49014889,3.86355942 7.56161861,3.81353062 C7.61879439,3.77243553 7.66524971,3.72061998 7.69741109,3.65808397 C7.72957246,3.59733471 7.74922664,3.52943847 7.75816035,3.46154223 C7.77602778,3.34004371 7.75458686,3.21497169 7.70098457,3.10598037 C7.64559554,2.9952023 7.55089816,2.91122537 7.4365466,2.8665568 C7.38651779,2.84690262 7.33470225,2.83975565 7.28109995,2.84154239" id="路径" fill="#57689C"></path>
            <path d="M5.23885264,2.39306988 C5.14236851,2.40021686 5.05124462,2.44131195 4.98156164,2.50742144 C4.91187866,2.57353093 4.86006311,2.65750786 4.83147522,2.74863175 C4.78323316,2.93445303 4.77072596,3.12920802 4.7975271,3.32038953 C4.80110059,3.49370361 4.83147522,3.66701769 4.888651,3.83139805 C4.92081237,3.91358823 4.96726769,3.98684469 5.02801696,4.0493807 C5.08876622,4.11191671 5.16559617,4.15837203 5.2495731,4.17981294 C5.32997653,4.19946712 5.41395346,4.19589363 5.49078341,4.17087923 C5.56761336,4.14586482 5.63908308,4.10298299 5.69625886,4.04580721 C5.78023579,3.96004355 5.84098505,3.85462571 5.87135968,3.74027415 C5.90173431,3.6259226 5.91602826,3.50621081 5.91245477,3.38649903 C5.91245477,3.23819935 5.88922711,3.08989968 5.84455854,2.94696023 C5.79988996,2.80402079 5.72306001,2.67358854 5.61942891,2.56459722 C5.5694001,2.51278167 5.51222433,2.46811309 5.44790158,2.43595172 C5.38179208,2.40557709 5.31032236,2.3894964 5.23885264,2.39306988" id="路径" fill="#FFFFFF"></path>
            <path d="M5.00836278,3.18817055 C4.98513512,3.30788233 4.99049535,3.43295434 5.02801696,3.54909264 C5.05660485,3.6259226 5.09948668,3.69560557 5.15666246,3.7545681 C5.19239732,3.79387644 5.23349241,3.82782456 5.28173447,3.85105222 C5.32997653,3.87606662 5.38357883,3.8832136 5.43718112,3.87070639 C5.48542318,3.85819919 5.52651827,3.8296113 5.5568929,3.79030296 C5.58726753,3.75099461 5.60870845,3.70632603 5.6230024,3.65987071 C5.66409749,3.52050475 5.660524,3.37220508 5.61585542,3.23283912 C5.58726753,3.13099477 5.5318785,3.03808413 5.45326181,2.96840115 C5.4157402,2.93623977 5.36928488,2.91122537 5.32104282,2.89871817 C5.27101401,2.88621097 5.21919846,2.88978446 5.1709564,2.91122537 C5.1209276,2.93623977 5.07983251,2.97733486 5.0548181,3.02736367 C5.0298037,3.07739248 5.01372301,3.13099477 5.00657604,3.1863838" id="路径" fill="#57689C"></path>
            <path d="M4.78144642,4.69082146 C4.7850199,4.70690215 4.79038013,4.72298283 4.79931385,4.73549003 C4.81539453,4.76050444 4.83504871,4.78015861 4.86006311,4.7962393 C4.88329077,4.81231999 4.90651843,4.82661393 4.92974609,4.84090787 C5.05303136,4.9248848 5.16202269,5.0285159 5.2495731,5.15001442 C5.35677768,5.31796827 5.49078341,5.46805469 5.64265657,5.59670019 C5.75879487,5.67710363 5.89458734,5.72534569 6.03574004,5.73785289 C6.2001204,5.75036009 6.36628751,5.73070592 6.52530764,5.68067711 C6.67182057,5.63779528 6.81297327,5.57704601 6.94519226,5.49664258 C7.17210863,5.31439479 7.41510568,5.15358791 7.67239668,5.01958218 C7.73314595,4.99814126 7.79389521,4.98206058 7.85107099,4.95525943 C7.91003351,4.93024503 7.96006232,4.88736319 7.99043695,4.83018742 C8.01009112,4.77301164 8.02259832,4.71226237 8.02438507,4.65151311 C8.03331878,4.58719036 8.0547597,4.52465435 8.06548016,4.4603316 C8.0797741,4.39600885 8.07441387,4.32989936 8.05118621,4.26736335 C8.02617181,4.21912129 7.98686346,4.17981294 7.9386214,4.15479854 C7.89037934,4.13157088 7.83677705,4.11727694 7.78317475,4.11549019 C7.67418343,4.11906368 7.56697884,4.12978414 7.461561,4.14765157 C7.31862156,4.16015877 7.17568211,4.14229134 7.03274267,4.14765157 C6.85585511,4.1530118 6.67896754,4.19232014 6.50029324,4.19946712 C6.29660453,4.21018758 6.09470256,4.1780262 5.89101385,4.16909248 C5.80346344,4.16373226 5.71412629,4.16730574 5.62657588,4.18159969 C5.53902547,4.19410689 5.45504855,4.22626826 5.38179208,4.27629707 C5.31389585,4.32989936 5.25135984,4.38707514 5.19061058,4.4478244 C5.1584492,4.47641229 5.12271434,4.50142669 5.08519274,4.52108087 C5.04588439,4.54073504 5.0047893,4.5514555 4.96012072,4.54966876 C4.9386798,4.54609527 4.91545215,4.54609527 4.89401123,4.54966876 C4.88150403,4.55502899 4.86899683,4.56217596 4.86006311,4.57110967 L4.83326196,4.60327105 C4.81539453,4.63007219 4.79931385,4.65866008 4.78680664,4.68724797" id="路径" fill="#57689C"></path>
            <path d="M5.22991892,4.24056221 C5.1584492,4.28344404 5.08876622,4.32989936 5.01908324,4.37814142 C4.98156164,4.40136908 4.95118701,4.43174371 4.92795935,4.46926532 C4.91545215,4.49785321 4.91009192,4.52822784 4.91187866,4.55860247 C4.9136654,4.5889771 4.9136654,4.61935174 4.91187866,4.64972637 C4.91009192,4.66938054 4.90294494,4.69082146 4.90294494,4.71226237 C4.90294494,4.72298283 4.90294494,4.73370329 4.90651843,4.74263701 C4.91009192,4.75335746 4.9136654,4.76229118 4.92081237,4.76943815 C4.92974609,4.77837187 4.94225329,4.78551884 4.95654724,4.78909233 C4.96905444,4.79266581 4.98334838,4.79445256 4.99764233,4.79802604 C5.06017833,4.81589347 5.11735411,4.84984159 5.16380943,4.89451017 C5.21205149,4.937392 5.25493333,4.98742081 5.30674887,5.0285159 C5.44968832,5.13572048 5.6230024,5.19110951 5.79988996,5.18932277 C5.97677752,5.18574928 6.15187834,5.16073488 6.32161893,5.11606631 C6.45562466,5.08747842 6.58784365,5.05174356 6.71648915,5.00707498 C6.91660437,4.93203177 7.10063891,4.82304044 7.25965904,4.68188774 C7.32934202,4.61399151 7.40259848,4.55324224 7.48121518,4.49785321 C7.5526849,4.45318463 7.63666182,4.42281 7.70813155,4.37992817 C7.71527852,4.37635468 7.72063875,4.37099445 7.72778572,4.36742096 C7.73314595,4.36206074 7.73850618,4.35670051 7.74207966,4.34955353 C7.74743989,4.33704633 7.74743989,4.32275239 7.74207966,4.31024519 C7.73850618,4.29773798 7.73314595,4.28701753 7.72599898,4.27808381 C7.71706526,4.26736335 7.7063448,4.25664289 7.69562434,4.24770918 C7.61343416,4.18695992 7.51516329,4.1530118 7.41331894,4.14943831 C7.30968784,4.14229134 7.21141697,4.14943831 7.11135936,4.12978414 C7.01844872,4.11012996 6.92732483,4.08332882 6.83798768,4.05116744 C6.74329029,4.02079281 6.64680617,3.99756515 6.54674856,3.98148446 C6.31447196,3.94396286 6.07862188,3.94932309 5.84813202,3.99935189 C5.63193611,4.04759396 5.42288717,4.12978414 5.22991892,4.24056221" id="路径" fill="#9FAECF"></path>
            <path d="M5.20669126,3.99756515 C5.10306017,4.06724813 5.01014953,4.1530118 4.92974609,4.24949592 C4.88329077,4.30309821 4.84576917,4.36563422 4.82075476,4.43353046 C4.80467408,4.48713275 4.79395362,4.54252178 4.7850199,4.59791082 C4.77965967,4.61756499 4.77608619,4.63900591 4.77608619,4.66044683 C4.77608619,4.67116728 4.77787293,4.68188774 4.78144642,4.69082146 C4.7850199,4.70154192 4.79038013,4.71047563 4.7975271,4.7176226 C4.8100343,4.73012981 4.82611499,4.73727678 4.84398242,4.74085026 C4.86006311,4.74442375 4.87793054,4.74442375 4.89579797,4.74621049 C4.97441467,4.75871769 5.04767113,4.79087907 5.11199388,4.83733439 C5.17631663,4.88200296 5.2370659,4.93381851 5.30317539,4.97670035 C5.45326181,5.0660375 5.62478914,5.11427956 5.79988996,5.11785305 C5.97499078,5.12142653 6.14830486,5.1035591 6.31804545,5.0660375 C6.45383792,5.0410231 6.58784365,5.00350149 6.71827589,4.95347269 C6.91303088,4.86949576 7.09527868,4.76050444 7.26144578,4.62828545 C7.33827573,4.57110967 7.41331894,4.51036041 7.48300192,4.44425092 C7.50622958,4.42102326 7.52945724,4.3977956 7.55447164,4.37635468 C7.57948604,4.35491376 7.60807393,4.33883308 7.63844857,4.32811262 C7.68669063,4.31560542 7.73671943,4.31381867 7.78674824,4.32632587 C7.8224831,4.33525959 7.86000471,4.33883308 7.89752631,4.33883308 C7.91718048,4.33883308 7.93504791,4.33525959 7.95291534,4.32989936 C7.97078277,4.32275239 7.98686346,4.31203193 7.99758392,4.29773798 C8.01366461,4.27808381 8.02081158,4.25485615 8.02081158,4.22984175 C8.02081158,4.20482735 8.01366461,4.18159969 8.00115741,4.16015877 C7.97435626,4.11906368 7.93326117,4.0869023 7.88859259,4.06903487 C7.82605659,4.04402047 7.76173384,4.0243663 7.69562434,4.0118591 C7.49372238,3.96361703 7.29718064,3.89214731 7.11135936,3.79923667 C7.01844872,3.75278135 6.93089831,3.70275255 6.83798768,3.65451048 C6.74507704,3.60269494 6.64859291,3.55802636 6.5485353,3.52586498 C6.31804545,3.46332898 6.07326165,3.47404944 5.84991876,3.55802636 C5.59977474,3.64557677 5.37643185,3.79744993 5.20490452,3.99935189" id="路径" fill="#57689C"></path>
            <path d="M6.36986099,3.97609142 C6.3823682,4.2261613 6.44669095,4.18267089 6.48421255,4.29139693 C6.52173415,4.40012296 6.54317507,4.60670243 6.57890993,4.62844764 C6.61643154,4.65019284 6.66824709,4.55233941 6.67360731,4.34575994 C6.68075429,4.06307225 6.61285805,3.88911059 6.56997622,3.79125716 C6.51280044,3.62816811 6.44847769,3.6172955 6.39130191,3.76951195 C6.37879471,3.80212976 6.36628751,3.8999832 6.36986099,3.97609142 L6.36986099,3.97609142 Z M5.75522138,3.84562018 C5.70697932,3.74776675 5.62836263,4.25877911 5.65159029,4.5305942 C5.65873726,4.60670243 5.68017817,4.69368326 5.69447212,4.65019284 C5.70876606,4.60670243 5.73556721,4.31314213 5.75879487,4.2152887 C5.7766623,4.12830787 5.77308881,3.87823799 5.75522138,3.84562018 L5.75522138,3.84562018 Z" id="形状" fill="#9FAECF"></path>
            <path d="M13.4132021,13.6763523 C13.3774673,13.7692629 13.3256517,13.8550266 13.261329,13.9318566 C13.1112426,14.0926634 12.9289948,14.2213089 12.7288795,14.3106461 C12.3893984,14.4678795 12.0588509,14.6429803 11.7372371,14.8341618 C11.5281882,14.9735278 11.3334332,15.1307611 11.1529722,15.305862 C11.0046725,15.4613086 10.8456524,15.6042481 10.6776985,15.7382538 C10.5025977,15.8668993 10.3006957,15.9544497 10.0862866,15.9883978 C9.82363533,16.0223459 9.55741061,15.9812508 9.3162003,15.8722595 C9.14288622,15.80615 8.9927998,15.6900117 8.88738196,15.5363518 C8.79804481,15.3719715 8.75694972,15.1879369 8.76588344,15.0021156 C8.77660389,14.6751417 8.81591224,14.3499544 8.88380848,14.0283407 C8.9302638,13.7603292 8.97671912,13.4923178 9.00530701,13.2225196 C9.05533581,12.7293785 9.06069604,12.2344506 9.02317444,11.7413096 C9.01424072,11.6591194 9.01424072,11.5751425 9.02317444,11.4929523 C9.03389489,11.3249984 9.1750476,11.1963529 9.34478819,11.1981397 C9.42161814,11.1963529 9.49844809,11.2034999 9.5734913,11.2177938 C9.7521656,11.2392348 9.93083991,11.2696094 10.1059407,11.3107045 C10.2149321,11.3392924 10.3239234,11.3786007 10.4329147,11.4089754 C10.6151625,11.4625776 10.8081308,11.4786583 10.9975255,11.4607909 C11.195854,11.4143356 11.397756,11.383961 11.6014447,11.3660935 C11.6854216,11.369667 11.7693985,11.383961 11.8480152,11.4089754 C11.9302054,11.432203 12.0070353,11.4732981 12.0695714,11.5322606 C12.1142399,11.5805027 12.1499748,11.6358917 12.1732024,11.696641 C12.2071506,11.7877649 12.2285915,11.8824623 12.2357385,11.9789464 C12.2393119,12.0647101 12.2464589,12.1504737 12.2571794,12.2362374 C12.287554,12.3738166 12.3536635,12.5024621 12.4465741,12.6096667 C12.5412715,12.7132978 12.6431159,12.8097819 12.7538939,12.8955456 C12.8593118,12.9884562 12.9700899,13.0742199 13.0862282,13.1528366 C13.1416172,13.1903582 13.1970062,13.2243063 13.2488218,13.2654014 C13.3024241,13.3047097 13.3470926,13.3547385 13.3810408,13.4119143 C13.4239226,13.490531 13.4382165,13.5816549 13.4167756,13.6692053" id="路径" fill="#57689C"></path>
            <path d="M2.1870955,10.9354884 C2.2746459,10.9015403 2.36934329,10.8926066 2.46225393,10.910474 C2.55516457,10.9283415 2.64271497,10.9658631 2.71954493,11.0194654 C2.8678446,11.1320302 2.9964901,11.2713961 3.09833445,11.4268428 C3.35026523,11.7734709 3.59147554,12.1272461 3.81124493,12.4953151 C3.98991924,12.7937012 4.15251286,13.101021 4.35798831,13.3815397 C4.49199404,13.5637875 4.6438672,13.7335281 4.77965967,13.9157759 C4.92081237,14.0944502 5.02801696,14.2981389 5.09412645,14.5143348 C5.17274315,14.8020004 5.14058177,15.1075335 5.00657604,15.3737582 C4.91009192,15.5595795 4.76536573,15.7150261 4.58847817,15.8222307 C4.40980386,15.9294353 4.20432841,15.9830376 3.99527947,15.9776774 C3.66651875,15.9330088 3.34847848,15.8329512 3.05545262,15.681078 C2.43187929,15.4327207 1.75470367,15.354104 1.11147617,15.1611358 C0.913147694,15.1021733 0.720179444,15.0307035 0.520064222,14.9771012 C0.430727069,14.9556603 0.343176659,14.9288592 0.257412992,14.8931243 C0.173436068,14.8573895 0.100179603,14.7966402 0.0519375404,14.7198102 C0.0162026792,14.6572742 -0.00166475134,14.5858045 0.000121991713,14.5143348 C0.00190873477,14.4428651 0.0162026792,14.3731821 0.0412170821,14.3088593 C0.0894591446,14.1748536 0.168075839,14.0551418 0.219891388,13.9229228 C0.298508082,13.7049402 0.328882714,13.4708768 0.309228541,13.240387 C0.298508082,13.0098971 0.257412992,12.781194 0.244905791,12.5489174 C0.234185332,12.4452863 0.237758818,12.3416552 0.255626249,12.2398109 C0.282427395,12.0361222 0.441447527,11.8735286 0.646922979,11.8431539 C0.741620361,11.8270732 0.836317743,11.8199263 0.931015125,11.8252865 C1.02571251,11.8306467 1.12219663,11.8306467 1.21689401,11.8252865 C1.3115914,11.8199263 1.40628878,11.7931251 1.4902657,11.7484565 C1.56709565,11.7020012 1.63499189,11.6376785 1.68680744,11.5626353 C1.73862299,11.4875921 1.78507831,11.4107621 1.82796014,11.3303587 C1.87084197,11.2499552 1.91908404,11.174912 1.97625981,11.1034423 C2.02986211,11.0301858 2.10311857,10.9730101 2.1870955,10.9354884" id="路径" fill="#57689C"></path>
        </g>
        <rect id="矩形" fill-opacity="0" fill="#D8D8D8" x="0" y="0" width="20" height="20"></rect>
    </g>
</svg>