<?xml version="1.0" encoding="UTF-8"?>
<svg width="20px" height="20px" viewBox="0 0 20 20" version="1.1" xmlns="http://www.w3.org/2000/svg" xmlns:xlink="http://www.w3.org/1999/xlink">
    <title>mariadb-second-menu</title>
    <g id="mariadb-second-menu" stroke="none" stroke-width="1" fill="none" fill-rule="evenodd">
        <rect id="矩形" fill-opacity="0" fill="#D8D8D8" x="0.141871757" y="0" width="20" height="20"></rect>
        <g id="DB2" transform="translate(-0.000012, 2.000000)">
            <rect id="矩形" fill-opacity="0" fill="#D8D8D8" x="2.14188401" y="0" width="16" height="16"></rect>
            <path d="M19.5988471,1 C19.8543479,1.00697379 19.993187,1.17062547 19.9996554,1.45492377 C20.0135162,2.37639429 19.6071636,2.76855392 19.1633869,3.1714067 C18.7196102,3.57425947 18.2083776,3.81950453 17.7458888,4.53362094 C17.43841,5.00853624 17.3446185,6.18548005 17.0905038,7.11531913 C16.8539461,7.98285898 16.6217776,9.03334467 16.386837,9.68981106 C16.1807731,10.2667762 16.2870392,11.4532509 16.7518382,11.9558289 C16.7785428,11.9851818 16.8064423,12.0134111 16.835465,12.0404442 C16.8964526,12.1152963 16.9546679,12.2171137 16.8553322,12.3042861 C16.8114396,12.3270671 16.766623,12.3486859 16.7208824,12.3682125 C15.8952405,12.723876 14.8242625,12.4995523 14.3936535,11.833555 C13.5033279,12.0692692 13.3931346,13.1595056 12.6670595,13.5849069 C12.0738171,13.9305746 11.5119926,14.087485 10.726547,14.2822862 C10.2915488,14.3655068 9.90968371,14.3501645 10.0367411,14.2125483 C10.4463278,13.6018765 10.9573294,13.093487 11.2121372,12.3296242 C9.49501468,12.0808922 7.78620866,11.7542863 6.30310273,11.9530394 C5.15681431,12.1066953 4.57050233,12.7510737 3.8347247,13.1983263 C2.25459314,14.1583852 0.545094084,14.4031653 0.397245517,14.0428527 C0.256558365,13.700207 0.946133322,13.0153805 1.06810839,12.7829207 C0.683240089,12.6453046 0.278966664,12.1996792 0.0664343489,12.0125491 C0.0247986861,11.9759682 0.000641334714,11.9232569 1.16665856e-05,11.8676415 C-0.0005937357,11.8120261 0.022387155,11.7587848 0.0632001615,11.721277 C1.04431401,10.8383948 3.05828871,12.0450934 3.71321166,11.3632889 C4.35473583,10.6926425 4.52406864,10.2777018 5.14018134,9.74304435 C5.93394334,9.05496343 6.80255367,8.73695847 7.67855643,8.46079626 C9.01104164,8.04074146 10.432236,7.66996813 11.9014811,6.83474018 C13.867405,5.71730608 14.3282767,2.56863852 16.4912551,1.65576901 C17.215482,1.34985195 17.8653227,1.51001673 18.5380337,1.34334308 C19.2040453,1.17829664 19.251865,1.00999577 19.5602679,1 Z M17.889854,2.90561882 C17.4711788,2.92055193 17.2240442,3.17981607 17.1428588,3.67451492 C17.2502114,3.80732424 17.3946901,3.86515031 17.5387215,3.85625399 C17.855188,3.83719045 18.1687471,3.49468219 18.0799576,2.91419742 C18.0133095,2.90625428 17.9497925,2.90307702 17.889854,2.90561882 Z" id="形状" fill="#57689C" fill-rule="nonzero"></path>
        </g>
    </g>
</svg>