<?xml version="1.0" encoding="UTF-8"?>
<svg width="20px" height="20px" viewBox="0 0 20 20" version="1.1" xmlns="http://www.w3.org/2000/svg" xmlns:xlink="http://www.w3.org/1999/xlink">
    <title>memcached-second-menu</title>
    <g id="memcached-second-menu" stroke="none" stroke-width="1" fill="none" fill-rule="evenodd">
        <rect id="矩形" x="0" y="0" width="20" height="20"></rect>
        <g id="Memcached" transform="translate(2.800000, 2.800000)" fill="#57689C">
            <path d="M14.3587113,7.6203183 C14.3180094,6.50672525 14.2773075,5.3931322 14.1857282,4.27953915 C14.1144999,3.44940615 14.0127452,2.61927314 13.9313414,1.78914014 C13.8906395,1.40444436 13.8357517,0.923207202 13.7888847,0.635052798 C13.7420177,0.346898393 13.7163319,0.18186956 13.5381832,0.0876372475 C13.3600345,-0.00659506538 13.1071279,0.0175148325 12.9341448,0.0175148325 C12.7509862,0.0175148325 12.5678277,0.0175148325 12.3846691,0.0175148325 C11.9776501,0.0175148325 11.5706311,0.0175148325 11.1636121,0.0175148325 C10.9092252,0.0175148325 10.4965056,-0.0153534412 10.3228394,0.0876372475 C10.1491732,0.190627936 10.2218828,0.137294558 9.87591666,0.511866766 C9.5299505,0.886438974 9.27097369,1.29308506 8.98606038,1.70815156 C8.22289973,2.82174461 7.86663787,3.38063794 7.76488312,3.54261511 C7.61225099,3.81595159 7.32252045,4.15409125 7.19517673,4.15409125 C7.06783301,4.15409125 7.05272008,4.1074384 6.8390351,3.83410193 C6.57447274,3.50002401 6.47271798,3.31779969 6.47271798,3.31779969 C5.75025924,2.25482451 5.07981135,1.10962794 4.14366762,0.208629928 C4.01138645,0.0770234762 3.93902464,0.0377619789 3.74569061,0.0175148325 C3.30814517,-0.0128558871 2.86042426,0.0175148325 2.42287882,0.0175148325 C2.05656171,0.0175148325 1.6902446,0.0175148325 1.31375202,0.0175148325 C1.15094441,0.0175148325 0.896557531,-0.0331030335 0.754100877,0.0377619789 C0.611644223,0.108626991 0.611644223,0.240233443 0.591293272,0.392087041 C0.438661143,1.55629796 0.296204489,2.72050888 0.194449736,3.89484337 C0.0418176069,5.70696297 -0.0294107201,7.49883543 0.011291181,9.31095503 C0.0418176069,10.6978846 0.011291181,12.0949377 0.102870459,13.4818672 C0.113045934,13.7248329 0.207038685,13.7855744 0.430899141,13.7855744 C0.887380828,13.7855744 1.3742127,13.7855744 1.78744894,13.7855744 C2.01116899,13.7855744 2.28517238,13.7842675 2.63113543,13.7855744 C2.92420526,13.7866814 3.30254287,13.7955118 3.39637462,13.7478584 C3.60097285,13.6439509 3.5421811,13.344932 3.51165468,13.1829548 C3.2572678,11.6947896 3.07410924,10.3334359 2.91130164,8.83514709 C2.81972236,8.04550838 2.74849403,7.25586967 2.71796761,6.46623096 C2.6772657,5.71708654 2.58304691,4.90549865 2.79673189,4.17660138 C2.83743379,4.04499492 2.88247532,3.91607068 3.0147565,3.85532924 C3.16738863,3.78446422 3.23691685,3.89484337 3.32849612,4.00620267 C3.53200563,4.27953915 3.67446228,4.61361706 3.81691894,4.91732426 C4.15270962,5.62597438 4.45797388,6.35487165 4.74288719,7.0938925 C5.03797597,7.84303691 5.33306475,8.58205776 5.61797806,9.33120217 C5.76043472,9.70577438 5.88254042,10.0803466 6.03517255,10.4549188 C6.10640087,10.6270195 6.15727825,10.6978846 6.36078776,10.6978846 C6.56429726,10.7080081 7.72430144,10.7181317 8.09061855,10.6978846 C8.34500544,10.687761 8.37553186,10.3840538 8.44676019,10.1815823 C8.72149802,9.43243791 9.01658681,8.69341706 9.29132464,7.95439622 C9.57623795,7.19512823 9.89167768,6.45610739 10.2071174,5.70696297 C10.3393986,5.3931322 10.4716798,5.07930143 10.6243119,4.77559424 C10.7464176,4.53262848 10.9194007,4.02644982 11.1636121,3.87459622 C11.7130878,3.54051831 11.7029123,5.43362649 11.7029123,5.6968394 C11.6927368,6.46623096 11.631684,7.2457461 11.5604556,8.00501409 C11.5299292,8.339092 11.446468,9.22095171 11.3247273,10.2529393 C11.2029867,11.2849269 10.8869857,12.9789473 10.8382497,13.2446726 C10.7895136,13.5103979 10.6942595,13.7721308 11.2689876,13.7855744 C11.8437156,13.7990179 11.8584183,13.7855744 12.1229806,13.7855744 C12.7233337,13.7855744 13.201581,13.7754508 13.801934,13.7855744 C14.0766719,13.7855744 14.2366056,13.6944622 14.2671321,13.4312493 C14.2976585,13.1579128 14.3017545,12.8900648 14.3221055,12.6167284 C14.3424564,12.080179 14.3587113,11.6047603 14.3790623,11.0117153 C14.4169096,9.90881011 14.3994132,8.76428208 14.3587113,7.6203183 Z" id="路径" opacity="0.550000012"></path>
            <circle id="椭圆形" cx="8.72112676" cy="12.9802817" r="1"></circle>
            <circle id="椭圆形备份" cx="5.67887324" cy="12.9802817" r="1"></circle>
        </g>
    </g>
</svg>