<?xml version="1.0" encoding="UTF-8"?>
<svg width="20px" height="20px" viewBox="0 0 20 20" version="1.1" xmlns="http://www.w3.org/2000/svg" xmlns:xlink="http://www.w3.org/1999/xlink">
    <title>metric-aggregation-second-menu</title>
    <g id="metric-aggregation-second-menu" stroke="none" stroke-width="1" fill="none" fill-rule="evenodd">
        <rect id="矩形" fill="#FFFFFF" opacity="0" x="0" y="0" width="20" height="20"></rect>
        <g id="汇聚" transform="translate(2.000000, 2.000000)" fill="#57689C" fill-rule="nonzero">
            <path d="M15.8689259,14.9942023 L13.6365026,12.0086939 L14.7044166,10.9407799 C14.9154951,10.7297014 14.790279,10.3683637 14.4933381,10.3325877 L12.9227711,10.1465524 C13.2125568,9.47932974 13.3663937,8.75307665 13.3663937,8.00178035 C13.3663937,7.25048405 13.2125568,6.52423096 12.9209823,5.8570083 L14.4897605,5.67097302 C14.7867014,5.63519701 14.9119175,5.27385927 14.700839,5.06278078 L13.6347138,3.99486676 L15.8671371,1.00756957 C16.3000268,0.42799814 15.5701962,-0.30183255 14.9906247,0.131057222 L12.0033275,2.36348051 L10.9354135,1.29556648 C10.724335,1.084488 10.3629973,1.20970405 10.3272213,1.50664497 L10.141186,3.07721199 C9.47575214,2.78921508 8.74949905,2.63537822 8,2.63537822 C7.25048405,2.63537822 6.52423096,2.78921508 5.8570083,3.07900079 L5.67097302,1.50843377 C5.63519701,1.21149285 5.27385927,1.0862768 5.06278078,1.29735529 L3.99486676,2.36526931 L1.00756957,0.132846022 C0.42799814,-0.30004375 -0.30183255,0.42978694 0.131057222,1.00935837 L2.36526931,3.99486676 L1.29735529,5.06278078 C1.0862768,5.27385927 1.21149285,5.63519701 1.50843377,5.67097302 L3.07721199,5.8570083 C2.78742628,6.52423096 2.63358942,7.25048405 2.63358942,8.00178035 C2.63358942,8.75307665 2.78742628,9.47932974 3.07900079,10.1465524 L1.51022257,10.3325877 C1.21328165,10.3683637 1.0880656,10.7297014 1.29914409,10.9407799 L2.36526931,12.0086939 L0.132846022,14.9959911 C-0.30004375,15.5755626 0.42978694,16.3053933 1.00935837,15.8725035 L3.99665556,13.6400802 L5.06456958,14.7079942 C5.27564807,14.9190727 5.63698581,14.7938567 5.67276182,14.4969157 L5.8587971,12.9263487 C6.52423096,13.2143456 7.25048405,13.3681825 8,13.3681825 C8.74949905,13.3681825 9.47754094,13.2143456 10.1447636,12.9245599 L10.3307989,14.4951269 C10.3665749,14.7920678 10.7279126,14.9172839 10.9389911,14.7062054 L12.0069051,13.6382914 L14.9942023,15.8707147 C15.571985,16.3036045 16.3018156,15.5737738 15.8689259,14.9942023 Z M7.99999155,12.2949021 C7.27373846,12.2949021 6.59041659,12.1142332 5.99116835,11.7940379 L6.17720363,10.2252596 C6.20403564,9.99629314 6.00905636,9.80131387 5.78008987,9.82814588 L4.20773404,10.0141812 C3.88753871,9.41314411 3.70686984,8.72803344 3.70686984,8.00178035 C3.70686984,7.27552726 3.88932752,6.59041659 4.20773404,5.98937955 L5.77651227,6.17541482 C6.00547876,6.20224683 6.20045803,6.00726756 6.17362602,5.77830107 L5.98937955,4.20952284 C6.58862779,3.88932752 7.27373846,3.70865864 7.99999155,3.70865864 C8.72624464,3.70865864 9.40956651,3.88932752 10.0106035,4.20952284 L9.82456827,5.77830107 C9.79773626,6.00726756 9.99271554,6.20224683 10.221682,6.17541482 L11.7904603,5.98937955 C12.1106556,6.59041659 12.2913245,7.27373846 12.2913245,8.00178035 C12.2913245,8.72803344 12.1088668,9.41314411 11.7904603,10.0141812 L10.221682,9.82814588 C9.99271554,9.80131387 9.79773626,9.99629314 9.82456827,10.2252596 L10.0106035,11.7940379 C9.41135531,12.1142332 8.72624464,12.2949021 7.99999155,12.2949021 L7.99999155,12.2949021 Z" id="形状"></path>
            <path d="M5.67455063,8.00178035 C5.67455063,9.28608591 6.71568599,10.3272213 7.99999155,10.3272213 C9.28429711,10.3272213 10.3254325,9.28608591 10.3254325,8.00178035 C10.3254325,6.71747479 9.28429711,5.67633943 7.99999155,5.67633943 C6.71568599,5.67633943 5.67455063,6.71747479 5.67455063,8.00178035 Z" id="路径" opacity="0.55"></path>
        </g>
    </g>
</svg>