<?xml version="1.0" encoding="UTF-8"?>
<svg width="20px" height="20px" viewBox="0 0 20 20" version="1.1" xmlns="http://www.w3.org/2000/svg" xmlns:xlink="http://www.w3.org/1999/xlink">
    <title>metric-collection-second-menu</title>
    <g id="metric-collection-second-menu" stroke="none" stroke-width="1" fill="none" fill-rule="evenodd">
        <rect id="矩形" fill="#FFFFFF" opacity="0" x="0" y="0" width="20" height="20"></rect>
        <g id="编组" transform="translate(2.000000, 2.000000)" fill="#57689C">
            <path d="M14.076,0 L1.92399999,0 C0.861333329,0 0,0.809333321 0,1.80533332 L0,14.1946667 C0,15.1906667 0.861333329,16 1.92266665,16 L14.0773333,16 C15.1386667,16 16,15.1906667 16,14.1946667 L16,1.80533332 C16,0.809333321 15.1386667,0 14.0773333,0 L14.076,0 Z" id="路径" fill-rule="nonzero" opacity="0.55"></path>
            <path d="M13.56,5.35733333 C13.1773333,5.35733333 12.9866667,5.17733333 12.9866667,4.81733333 L12.9866667,4.31466666 L9.51600001,7.57333334 C9.49670793,7.59274436 9.47669383,7.61142418 9.45600001,7.62933334 C9.19333334,7.86133334 8.92933334,7.85333333 8.66799999,7.60666667 C8.62949433,7.57122405 8.59424224,7.53240212 8.56266666,7.49066666 L6.44266667,5.504 L2.856,8.87333333 C2.58533335,9.12666667 2.31466667,9.12666667 2.04266665,8.87333333 C1.77199999,8.61999999 1.77199999,8.36533332 2.04266665,8.11066667 L5.95333334,4.43733333 C5.97780268,4.40774179 6.00407483,4.37968847 6.032,4.35333333 C6.30399999,4.1 6.57466667,4.1 6.84533333,4.35333333 L9.08400001,6.45600001 L12.1653333,3.56133333 L11.644,3.56133333 C11.2613333,3.56133333 11.0693333,3.38 11.0693333,3.02133333 C11.0693333,2.66133333 11.2613333,2.47999999 11.6426667,2.47999999 L13.3893333,2.47999999 C13.5094847,2.43466717 13.6432253,2.44242025 13.7573333,2.50133332 C13.9384106,2.52945168 14.0824043,2.66811227 14.1173333,2.84799999 C14.1667315,2.94350745 14.1730371,3.05555318 14.1346667,3.156 L14.1346667,4.82 C14.1346667,5.18 13.9426667,5.35866666 13.5613333,5.35866666 L13.56,5.35733333 Z" id="路径"></path>
            <path d="M12.364,13.9973333 L11.2146667,13.9973333 L11.2146667,7.33866666 C11.2146667,7.03866666 11.4706667,6.79866666 11.788,6.79866666 C12.1066667,6.79866666 12.364,7.03866666 12.364,7.33733333 L12.364,13.996 L12.364,13.9973333 Z" id="路径"></path>
            <path d="M8.53200001,13.9973333 L8.53200001,10.216 C8.53200001,9.91733333 8.78800002,9.67599999 9.10533334,9.67599999 C9.42399999,9.67599999 9.68133334,9.91733333 9.68133334,10.216 L9.68133334,13.996 L8.53333334,13.996 L8.53200001,13.9973333 Z" id="路径"></path>
            <path d="M5.84933333,13.9973333 L5.84933333,8.05733333 C5.84933333,7.75866666 6.10666667,7.51733333 6.42266665,7.51733333 C6.74,7.51733333 6.99733334,7.75733333 6.99733334,8.05733333 L6.99733334,13.9973333 L5.84933333,13.9973333 L5.84933333,13.9973333 Z" id="路径"></path>
            <path d="M4.316,13.9973333 L3.16666667,13.9973333 L3.16666667,10.936 C3.16666667,10.6386667 3.42400001,10.3973333 3.74,10.3973333 C4.05866665,10.3973333 4.316,10.6386667 4.316,10.936 L4.316,13.9973333 Z" id="路径"></path>
        </g>
    </g>
</svg>