<?xml version="1.0" encoding="UTF-8"?>
<svg width="20px" height="20px" viewBox="0 0 20 20" version="1.1" xmlns="http://www.w3.org/2000/svg" xmlns:xlink="http://www.w3.org/1999/xlink">
    <title>metric-integration-second-menu</title>
    <g id="metric-integration-second-menu" stroke="none" stroke-width="1" fill="none" fill-rule="evenodd">
        <g id="third-party-events">
            <rect id="矩形" x="0" y="0" width="20" height="20"></rect>
        </g>
        <g id="健康指标" transform="translate(2.000000, 2.000000)" fill="#57689C">
            <path d="M8,0 C3.58214286,0 0,3.58214286 0,8 C0,9.10178571 0.223214286,10.1535714 0.626785714,11.1089286 L4.7625,5.80178571 L7.66428571,8.78035714 L9.70178571,6.20714286 L8.45714286,4.9625 L13.4303571,3.63035714 L12.0982143,8.60357143 L10.8410714,7.34642857 L7.71964286,11.1285714 L4.89821429,8.23571429 L1.47678571,12.6196429 C2.92678571,14.6625 5.30535714,16 8,16 C12.4178571,16 16,12.4178571 16,8 C16,3.58035714 12.4196429,0 8,0 Z" id="路径"></path>
        </g>
    </g>
</svg>