<?xml version="1.0" encoding="UTF-8"?>
<svg width="20px" height="20px" viewBox="0 0 20 20" version="1.1" xmlns="http://www.w3.org/2000/svg" xmlns:xlink="http://www.w3.org/1999/xlink">
    <title>MongoDB-second menu-normal</title>
    <g id="MongoDB-second-menu-normal" stroke="none" stroke-width="1" fill="none" fill-rule="evenodd">
        <g id="MongoDB">
            <rect id="矩形" x="0" y="0" width="20" height="20"></rect>
            <rect id="矩形备份-5" opacity="0.446149554" x="2" y="2" width="16" height="16"></rect>
            <path d="M3.27375375,12.4374775 C3.87243243,13.8058859 6.56648649,14.8321922 9.77369369,14.8321922 L10.1157958,14.8321922 C10.6717117,15.9012613 11.6124925,16.7565165 12.7670871,17.2269069 C11.7835435,17.4407207 10.8,17.5262462 9.81645646,17.5262462 C6.22438438,17.5262462 3.27375375,16.1578378 3.27375375,14.5328529 L3.27375375,12.4374775 Z M3.27375375,9.44408408 C3.87243243,10.7697297 6.48096096,11.796036 9.64540541,11.8387988 C9.60264264,12.0953754 9.55987988,12.351952 9.60264264,12.6512913 C9.60264264,13.1216817 9.68816817,13.5920721 9.81645646,14.0624625 L9.77369369,14.0624625 C6.56648649,14.0624625 3.87243243,13.0361562 3.27375375,11.6677477 L3.27375375,9.44408408 Z M3.27555556,6.36516517 C3.78870871,7.73357357 6.56828829,8.80264264 9.81825826,8.80264264 C10.4169369,8.80264264 10.9728529,8.80264264 11.5715315,8.71711712 C10.8018018,9.3157958 10.2458859,10.1282883 9.90378378,11.0263063 L9.7754955,11.0263063 C6.56828829,11.0263063 3.916997,10 3.27555556,8.63159159 L3.27555556,6.36516517 Z M16.2736336,6.40792793 L16.2736336,8.03291291 C15.846006,7.86186186 15.3756156,7.77633634 14.9052252,7.73357357 C15.5039039,7.43423423 15.9742943,7.00660661 16.2736336,6.40792793 Z M9.77369369,2.21717718 C13.3657658,2.21717718 16.3163964,3.50006006 16.3163964,5.08228228 L16.3163964,5.59543544 C15.674955,6.96384384 13.0664264,7.99015015 9.77369369,7.99015015 C6.4381982,7.99015015 3.87243243,7.09213213 3.27375375,5.55267267 L3.27375375,5.08228228 C3.27375375,3.50006006 6.18162162,2.21717718 9.77369369,2.21717718 Z" id="形状结合" fill="#9FAECF"></path>
            <path d="M14.6486486,8.75987988 C14.8624625,9.35855856 16.3163964,10.8124925 16.3163964,12.6512913 C16.3163964,14.4900901 15.5039039,15.3453453 14.8196997,15.8157357 L14.8196997,16.670991 C14.8196997,16.7992793 14.7341742,16.8848048 14.6486486,16.8848048 C14.5203604,16.9275676 14.4348348,16.842042 14.4348348,16.7565165 L14.4348348,15.9012613 C15.0762763,15.6019219 14.6914114,10.5986787 14.6486486,8.75987988 Z M14.6058859,8.20396396 C14.5970818,8.81144674 14.5937155,9.46968255 14.5898161,10.1361284 L14.5840388,10.9941624 C14.5653426,13.2764562 14.5102985,15.4409327 14.1782583,15.772973 C13.8789189,15.6446847 12.6387988,14.9604805 12.6387988,12.6512913 C12.6387988,10.1282883 14.4348348,9.23027027 14.6058859,8.20396396 Z" id="形状结合" fill="#57689C"></path>
        </g>
    </g>
</svg>