<?xml version="1.0" encoding="UTF-8"?>
<svg width="20px" height="20px" viewBox="0 0 20 20" version="1.1" xmlns="http://www.w3.org/2000/svg" xmlns:xlink="http://www.w3.org/1999/xlink">
    <title>monitoring-platform-second-menu</title>
    <g id="monitoring-platform-second-menu" stroke="none" stroke-width="1" fill="none" fill-rule="evenodd">
        <g>
            <rect id="矩形" x="0" y="0" width="20" height="20"></rect>
            <path d="M17,2 C17.5522847,2 18,2.44771525 18,3 L18,13 C18,13.5522847 17.5522847,14 17,14 L3,14 C2.44771525,14 2,13.5522847 2,13 L2,3 C2,2.44771525 2.44771525,2 3,2 L17,2 Z M9.48275936,4.43570073 C9.31090896,3.87219484 8.51464491,3.86797728 8.3368349,4.42963114 L7.37572727,7.46572261 L7.33266697,7.36056603 C7.23987518,7.1362006 7.02101057,6.98987355 6.77821403,6.98987355 L4.27272727,6.98987355 C3.94135642,6.98987355 3.67272727,7.2585027 3.67272727,7.58987355 L3.68058026,7.68719667 C3.72708052,7.97228394 3.97449351,8.18987355 4.27272727,8.18987355 L6.37672727,8.18972261 L6.89637802,9.44553171 L6.94244025,9.53613214 C7.2010779,9.95706449 7.86440051,9.89781515 8.02285009,9.39731566 L8.89772727,6.63272261 L10.1547952,10.7531105 L10.1939933,10.8521309 C10.4234957,11.3145129 11.1329604,11.2859519 11.3004086,10.7601596 L12.3797273,7.37072261 L12.6785662,7.89258257 C12.7854681,8.07924984 12.9841189,8.19440559 13.1992297,8.19440559 L15.2727273,8.19440559 C15.6040981,8.19440559 15.8727273,7.92577644 15.8727273,7.59440559 L15.8648743,7.49708248 C15.818374,7.21199521 15.570961,6.99440559 15.2727273,6.99440559 L13.5467273,6.99372261 L12.7428835,5.59021724 L12.6857258,5.5065573 C12.3957481,5.14852622 11.7984071,5.24192811 11.6505119,5.70632325 L10.7407273,8.56172261 Z" id="形状结合" fill="#57689C"></path>
            <path d="M8.1571889,15 L11.8428111,15 C12.1820633,15 12.7091766,15.3837559 13.0201517,15.8571429 L13.864757,17.1428571 C14.1757321,17.6162441 13.9322257,18 13.3208704,18 L6.67912961,18 C6.06777426,18 5.82426794,17.6162441 6.13524302,17.1428571 L6.97984833,15.8571429 C7.29082341,15.3837559 7.81793674,15 8.1571889,15 Z" id="矩形" fill="#57689C" opacity="0.55"></path>
        </g>
    </g>
</svg>