<?xml version="1.0" encoding="UTF-8"?>
<svg width="20px" height="20px" viewBox="0 0 20 20" version="1.1" xmlns="http://www.w3.org/2000/svg" xmlns:xlink="http://www.w3.org/1999/xlink">
    <title>monthly-product-objective-requirements-second-menu</title>
    <g id="monthly-product-objective-requirements-second-menu" stroke="none" stroke-width="1" fill="none" fill-rule="evenodd">
        <rect id="矩形" x="2" y="2" width="16" height="16"></rect>
        <path d="M4.5,4 L4.5,5.5 C4.5,6.27969612 5.09488808,6.92044868 5.85553999,6.99313342 L6,7 C6.82842712,7 7.5,6.32842712 7.5,5.5 L7.5,4 L11.5,4 L11.5,5.5 C11.5,6.27969612 12.0948881,6.92044868 12.85554,6.99313342 L13,7 C13.8284271,7 14.5,6.32842712 14.5,5.5 L14.5,4 L16,4 C16.5522847,4 17,4.44771525 17,5 L17,17 C17,17.5522847 16.5522847,18 16,18 L3,18 C2.44771525,18 2,17.5522847 2,17 L2,5 C2,4.44771525 2.44771525,4 3,4 L4.5,4 Z M7.47,8.72 C6.77,8.72 6.2,8.91 5.76,9.31 C5.29,9.71 5.03,10.26 4.97,10.97 L6.04,10.97 C6.08,10.53 6.23,10.2 6.47,9.98 C6.71,9.76 7.05,9.65 7.48,9.65 C7.9,9.65 8.23,9.74 8.45,9.94 C8.65,10.13 8.76,10.4 8.76,10.76 C8.76,11.12 8.64,11.4 8.42,11.59 C8.2,11.78 7.87,11.88 7.43,11.88 L6.92,11.88 L6.92,12.7 L7.44,12.7 C7.91,12.7 8.27,12.8 8.51,13 C8.77,13.2 8.9,13.51 8.9,13.93 C8.9,14.29 8.77,14.58 8.53,14.82 C8.25,15.08 7.88,15.22 7.42,15.22 C7,15.22 6.66,15.1 6.4,14.86 C6.1,14.6 5.95,14.23 5.93,13.75 L4.83,13.75 C4.89,14.55 5.17,15.16 5.67,15.58 C6.11,15.95 6.7,16.14 7.43,16.14 C8.19,16.14 8.82,15.92 9.3,15.5 C9.75,15.08 9.98,14.54 9.98,13.88 C9.98,13.46 9.86,13.11 9.62,12.84 C9.4,12.58 9.08,12.38 8.66,12.25 C9.44,11.99 9.84,11.46 9.84,10.68 C9.84,10.07 9.62,9.59 9.2,9.24 C8.76,8.89 8.19,8.72 7.47,8.72 Z M13.54,8.86 L12.72,8.86 C12.48,9.12 12.18,9.35 11.82,9.57 C11.46,9.77 11.13,9.91 10.81,9.99 L10.81,11.07 C11.47,10.88 12.02,10.58 12.45,10.17 L12.45,16 L13.54,16 L13.54,8.86 Z" id="形状结合" fill="#57689C"></path>
        <path d="M6,2 C6.33137085,2 6.6,2.26862915 6.6,2.6 L6.6,5.4 C6.6,5.73137085 6.33137085,6 6,6 C5.66862915,6 5.4,5.73137085 5.4,5.4 L5.4,2.6 C5.4,2.26862915 5.66862915,2 6,2 Z" id="矩形" fill="#57689C" fill-rule="nonzero" opacity="0.55"></path>
        <path d="M13,2 C13.3313708,2 13.6,2.26862915 13.6,2.6 L13.6,5.4 C13.6,5.73137085 13.3313708,6 13,6 C12.6686292,6 12.4,5.73137085 12.4,5.4 L12.4,2.6 C12.4,2.26862915 12.6686292,2 13,2 Z" id="矩形备份-3" fill="#57689C" fill-rule="nonzero" opacity="0.55"></path>
    </g>
</svg>