<?xml version="1.0" encoding="UTF-8"?>
<svg width="20px" height="20px" viewBox="0 0 20 20" version="1.1" xmlns="http://www.w3.org/2000/svg" xmlns:xlink="http://www.w3.org/1999/xlink">
    <title>monthly-operation-improvement-requirements-second-menu</title>
    <g id="monthly-operation-improvement-requirements-second-menu" stroke="none" stroke-width="1" fill="none" fill-rule="evenodd">
        <rect id="矩形" x="2" y="2" width="16" height="16"></rect>
        <g id="运营商" transform="translate(2.250000, 2.000000)" fill="#57689C">
            <path d="M7.73,0 C11.99,0 15.46,3.47 15.46,7.73 C15.46,9.77 14.62,11.71 13.1,13.2 C11.64,14.64 9.68,15.46 7.73,15.46 C6.08048634,15.46 4.4729618,14.930937 3.15368998,13.9651599 L1.03,16 L0.72,9.55 L7.5,9.81 L5.68798841,11.5448391 C6.19674986,12.0410171 6.94866175,12.5919178 7.96,12.91 C8.49,13.08 9.07,13.16 9.64,13.16 C11.0979298,13.16 12.2647403,12.5971693 12.9970424,12.1119789 C14.0190268,10.8991516 14.65,9.35839338 14.65,7.73 C14.65,7.39290029 14.6257813,7.06132961 14.5789933,6.73693723 L12.6144336,6.73104573 C12.6842545,7.28412865 12.72,7.85285897 12.72,8.43 C12.72,9.44 12.61,10.41 12.4,11.34 L11.62,11.16 C11.82,10.29 11.92,9.37 11.92,8.43 C11.92,7.84940083 11.8819293,7.27933183 11.8076323,6.72786178 L7.81,6.716 L7.81,8.52 L7.01,8.52 L7.01,6.713 L3.39537107,6.70225633 C3.34161239,7.09680632 3.30593338,7.50360779 3.29,7.92 L2.49,7.89 C2.50558981,7.48661361 2.53902804,7.08892351 2.58950064,6.69937184 L0.877122849,6.69383885 C0.826328562,7.03194348 0.8,7.3779567 0.8,7.73 C0.8,8.03 0.82,8.34 0.86,8.64 L0.07,8.74 C0.03,8.41 0,8.07 0,7.73 C0,3.47 3.47,0 7.73,0 Z M11.5984945,1.99026868 L11.5266792,2.09191585 C11.4208368,2.23297325 11.3085308,2.36770238 11.1902848,2.49579712 C11.220834,2.54236609 11.2505689,2.59084703 11.28,2.64 C11.8431052,3.5785086 12.252231,4.70399209 12.487399,5.92987711 L14.4144102,5.93608869 C13.9772739,4.30742606 12.9598139,2.91333121 11.5984945,1.99026868 Z M7.8105731,4.12487871 L7.81,5.916 L11.6717881,5.92790237 C11.4504174,4.85416936 11.0847443,3.87265625 10.59,3.05 C9.80284246,3.66812765 8.84177531,4.0467177 7.8105731,4.12487871 Z M4.48942084,3.23698236 L4.39393663,3.41310212 C4.02014814,4.13055541 3.72449577,4.97396402 3.53205977,5.9032717 L7.01,5.914 L7.00998621,4.12461655 C6.09724396,4.05423517 5.23065922,3.74438261 4.48942084,3.23698236 Z M3.44263104,2.28718251 L3.31898926,2.38484375 C2.2353127,3.28123539 1.42825348,4.50116526 1.04594894,5.89525118 L2.71911731,5.89992054 C2.94918572,4.72369224 3.33951115,3.6431718 3.86538315,2.73249063 C3.71602268,2.59423379 3.57510883,2.44515391 3.44263104,2.28718251 Z M4.93496007,2.5366491 L4.91731799,2.56209514 C5.53304373,2.98968552 6.25218363,3.25465297 7.01042662,3.32259855 L7.01062956,1.00029875 C6.23792118,1.18588301 5.52555545,1.73070231 4.93496007,2.5366491 Z M7.81063176,0.939024702 L7.81110005,3.3210832 C8.67363609,3.24132756 9.47651302,2.91207022 10.1343446,2.38454295 C9.4508384,1.51111386 8.64864897,1.01094308 7.81063176,0.939024702 Z M4.82715896,1.43337926 C4.57305309,1.55202955 4.33211591,1.68175715 4.10022051,1.82479399 C4.16665682,1.90413053 4.23632921,1.97919483 4.30828216,2.05153606 C4.47470676,1.82585602 4.64748893,1.6201191 4.82715896,1.43337926 Z M10.195569,1.25727914 L10.2081481,1.26925926 C10.3828682,1.43648418 10.5518208,1.62131127 10.7142647,1.82320158 C10.781567,1.74553794 10.8466351,1.66421759 10.9090169,1.5803095 C10.678351,1.45869567 10.4402735,1.35123634 10.195569,1.25727914 Z" id="形状结合"></path>
        </g>
    </g>
</svg>