<?xml version="1.0" encoding="UTF-8"?>
<svg width="20px" height="20px" viewBox="0 0 20 20" version="1.1" xmlns="http://www.w3.org/2000/svg" xmlns:xlink="http://www.w3.org/1999/xlink">
    <title>monthly-star-second-menu</title>
    <g id="monthly-star-second-menu" stroke="none" stroke-width="1" fill="none" fill-rule="evenodd">
        <rect id="矩形" x="2" y="2" width="16" height="16"></rect>
        <path d="M8.76732944,15.1223222 L5.19445406,17.0006939 C4.95003177,17.1291943 4.64771819,17.035221 4.51921778,16.7907988 C4.46804825,16.6934685 4.45039091,16.5819845 4.46897933,16.4736057 L5.15133781,12.4951505 C5.17915678,12.3329534 5.12538254,12.1674533 5.00753949,12.0525847 L2.1170226,9.23502713 C1.91928081,9.04227652 1.91523465,8.72571989 2.10798526,8.5279781 C2.18473956,8.44923628 2.28531077,8.39799269 2.39412928,8.38218044 L6.38872539,7.80173165 C6.55158047,7.77806742 6.69236327,7.67578273 6.76519427,7.528211 L8.55163196,3.90849288 C8.67384311,3.66086605 8.97365603,3.55919655 9.22128286,3.68140769 C9.31988916,3.73007281 9.39970292,3.80988657 9.44836804,3.90849288 L11.2348057,7.528211 C11.3076367,7.67578273 11.4484195,7.77806742 11.6112746,7.80173165 L15.6058707,8.38218044 C15.8791431,8.42188925 16.0684839,8.67561067 16.0287751,8.9488831 C16.0129628,9.05770162 15.9617192,9.15827282 15.8829774,9.23502713 L12.9924605,12.0525847 C12.8746175,12.1674533 12.8208432,12.3329534 12.8486622,12.4951505 L13.5310207,16.4736057 C13.5777012,16.7457739 13.3949073,17.0042518 13.122739,17.0509324 C13.0143602,17.0695208 12.9028762,17.0518634 12.8055459,17.0006939 L9.23267056,15.1223222 C9.08700855,15.0457431 8.91299145,15.0457431 8.76732944,15.1223222 Z" id="星形" fill="#57689C"></path>
        <path d="M14.9069318,6.54892886 L13.5953387,7.23847416 C13.4975698,7.28987432 13.3766443,7.25228502 13.3252442,7.1545161 C13.3047764,7.115584 13.2977134,7.07099039 13.3051488,7.02763886 L13.5556408,5.56715849 C13.5667684,5.50227967 13.5452587,5.43607963 13.4981214,5.3901322 L12.4370203,4.35581425 C12.3579236,4.27871401 12.3563052,4.15209136 12.4334054,4.07299464 C12.4641071,4.04149791 12.5043356,4.02100048 12.547863,4.01467557 L14.0142687,3.80159436 C14.0794107,3.79212867 14.1357238,3.75121479 14.1648562,3.6921861 L14.8206528,2.36339716 C14.8695372,2.26434642 14.9894624,2.22367862 15.0885131,2.27256308 C15.1279557,2.29202913 15.1598812,2.32395463 15.1793472,2.36339716 L15.8351438,3.6921861 C15.8642762,3.75121479 15.9205893,3.79212867 15.9857313,3.80159436 L17.452137,4.01467557 C17.561446,4.0305591 17.6371822,4.13204767 17.6212987,4.24135664 C17.6149738,4.28488405 17.5944764,4.32511253 17.5629797,4.35581425 L16.5018786,5.3901322 C16.4547413,5.43607963 16.4332316,5.50227967 16.4443592,5.56715849 L16.6948512,7.02763886 C16.7135234,7.13650615 16.6404059,7.23989734 16.5315386,7.25856954 C16.488187,7.26600491 16.4435934,7.25894197 16.4046613,7.23847416 L15.0930682,6.54892886 C15.0348034,6.51829724 14.9651966,6.51829724 14.9069318,6.54892886 Z" id="星形" fill="#57689C" fill-rule="nonzero" opacity="0.55"></path>
    </g>
</svg>