<?xml version="1.0" encoding="UTF-8"?>
<svg width="20px" height="20px" viewBox="0 0 20 20" version="1.1" xmlns="http://www.w3.org/2000/svg" xmlns:xlink="http://www.w3.org/1999/xlink">
    <title>monthly-delivery-project-total-requirements-second-menu</title>
    <g id="monthly-delivery-project-total-requirements-second-menu" stroke="none" stroke-width="1" fill="none" fill-rule="evenodd">
        <rect id="矩形" x="2" y="2" width="16" height="16"></rect>
        <g id="需求" transform="translate(2.000005, 2.000000)" fill="#57689C">
            <path d="M13.8109526,0 L5.79075757,0 C3.75119457,0.0519779498 2.1393668,1.74648849 2.18939822,3.78610017 L2.18212507,13.036115 L10.5295834,13.036115 C10.6602563,13.0349599 10.7815003,13.1040105 10.8471725,13.216988 C10.9128447,13.3299655 10.9128447,13.4694935 10.8471725,13.582471 C10.7815003,13.6954485 10.6602563,13.7645001 10.5295834,13.763345 L0.000365064541,13.763345 C-0.0103469014,14.3439387 0.215070447,14.9040124 0.624995904,15.315309 C1.03492136,15.7266056 1.59423994,15.9538922 2.17486613,15.945119 L10.2161278,15.945119 C11.1841798,15.9698748 12.1193961,15.5933161 12.8001984,14.904661 C13.4810006,14.2160059 13.8468087,13.2765324 13.8109526,12.308828 L13.8109526,2.18176001 L16,2.18176001 C15.9776619,0.984665214 15.0081747,0.0219536623 13.8109526,0.00801182811 L13.8109526,0 Z M3.63266501,6.71803424 L3.63266501,5.84532455 L4.50535765,5.84532455 L4.50535765,6.71803424 L3.63266501,6.71803424 Z M3.63266501,4.5362586 L3.63266501,3.66356597 L4.50535765,3.66356597 L4.50535765,4.5362586 L3.63266501,4.5362586 Z M11.3325777,6.71803424 L5.4999953,6.71803424 L5.4999953,5.84532455 L11.3325777,5.84532455 L11.3325777,6.71803424 Z M5.4999953,4.5362586 L5.4999953,3.66356597 L11.3325777,3.66356597 L11.3325777,4.5362586 L5.4999953,4.5362586 Z" id="形状"></path>
        </g>
    </g>
</svg>