<?xml version="1.0" encoding="UTF-8"?>
<svg width="20px" height="20px" viewBox="0 0 20 20" version="1.1" xmlns="http://www.w3.org/2000/svg" xmlns:xlink="http://www.w3.org/1999/xlink">
    <title>mssql-second-menu</title>
    <g id="mssql-second-menu" stroke="none" stroke-width="1" fill="none" fill-rule="evenodd">
        <g id="MSSQL">
            <rect id="矩形" x="0" y="0" width="20" height="20"></rect>
            <g id="编组-29" transform="translate(2.750000, 2.200000)" fill="#57689C" fill-rule="nonzero">
                <path d="M5.88581466,0 C6.08243759,0.942089073 6.67255326,1.95682371 6.96705893,2.42213855 L6.99908335,2.47336724 C7.06933178,2.47713754 7.13821082,2.48249065 7.20653853,2.48818166 C7.47981382,2.51092792 7.749799,2.54539412 8.01935734,2.58572917 C8.28884455,2.6257441 8.55671338,2.67584279 8.82363964,2.73138351 C9.35713646,2.84374543 9.88545802,2.98740792 10.4026465,3.16953809 C10.5317969,3.21540409 10.6604494,3.26310189 10.7881059,3.31366298 C10.9157324,3.36471818 11.0424142,3.41810406 11.1680877,3.47379383 C11.2937879,3.52972581 11.4188479,3.58754294 11.5422539,3.64904144 C11.6657309,3.71080696 11.7878384,3.77527317 11.9084884,3.84239358 C12.1509448,3.97673204 12.3859919,4.12402829 12.6126088,4.28364265 C12.8397336,4.44357787 13.0587308,4.61654908 13.2657948,4.80401457 C13.6801538,5.17805635 14.0464594,5.61300974 14.329107,6.10069391 L14.511753,6.41579814 L14.1555667,6.45570637 C13.0241224,6.58242031 11.8994894,6.7779955 10.787359,7.03179686 C10.0517524,7.19898392 9.32123191,7.40056078 8.59749471,7.62329511 C8.66885071,8.01309183 8.86397255,9.40706813 8.51952618,11.6042228 C8.51952618,11.6042228 8.15044625,13.7304917 7.05320132,15.531537 C7.0465541,15.5404156 7.02739614,15.5443773 7.02739614,15.5443773 C7.00615915,15.545426 6.98461894,15.5463107 6.96279035,15.5470362 L7.02739614,15.5898129 C7.02739614,15.5898129 7.00276473,15.6028151 6.96120255,15.6028151 C6.92620258,15.6028151 6.90969351,15.5746154 6.90190664,15.5481659 C5.52979402,15.5759821 3.11498533,15.0179409 3.11498533,15.0179409 C0.870610185,14.4138577 0.23885448,13.3000022 0.23885448,13.3000022 C-0.559053107,12.1233425 0.876107427,10.997134 1.13701174,10.8065824 L1.19823995,10.7545131 C1.1969628,10.7410564 1.20134953,10.7313724 1.20986565,10.7254772 L1.34123995,10.6365131 L1.46743829,10.5335097 C2.06442152,10.0280693 2.62608292,9.48282392 3.12364634,8.88560851 C3.27239517,8.70627048 3.41504394,8.52221959 3.5496186,8.33320685 C3.68376643,8.14406962 3.81035588,7.94947257 3.92109942,7.74900667 C3.94850243,7.69947369 3.9745953,7.64922714 3.99935083,7.59831934 L4.01814896,7.55793093 L4.03515086,7.51727577 L4.06735843,7.43742375 C4.08848743,7.3839356 4.10877601,7.33011927 4.12821669,7.27599463 C4.14805064,7.22228284 4.16701132,7.16825261 4.18509124,7.11392528 C4.22072636,7.00581894 4.25327907,6.8967208 4.28270989,6.78676322 C4.31208974,6.67730015 4.33588528,6.56682338 4.3576534,6.45666673 C4.37895065,6.3468089 4.39561752,6.23610385 4.40760982,6.12484515 C4.42009448,6.01417274 4.42847094,5.90344699 4.43128087,5.79293465 C4.43279255,5.73769626 4.43291704,5.68251123 4.43183219,5.6274329 C4.43124531,5.57239014 4.42934237,5.5174363 4.42617675,5.46262474 C4.41984169,5.35326983 4.40818502,5.24428829 4.39124816,5.13606735 C4.32715314,4.70360378 4.17984484,4.28760857 3.96870829,3.90449675 C3.8637269,3.71246065 3.74030307,3.53017042 3.60652872,3.35563419 C3.4719185,3.18182712 3.32263613,3.01810382 3.16479947,2.8673987 C3.12567458,2.83034928 3.08559275,2.79432366 3.04459462,2.75935839 L3.0146101,2.73435351 L2.9882536,2.71322562 L2.97692493,2.70440455 L2.96255512,2.69154642 L2.94574885,2.67559381 L2.912492,2.64338623 L2.84676081,2.57825971 L2.78389291,2.50934511 C2.74165493,2.4636036 2.70320503,2.41336263 2.66445279,2.36329951 C2.58974047,2.26045225 2.52052354,2.14951308 2.47202544,2.02210555 C2.45509666,1.97603305 2.44019014,1.92778059 2.43202913,1.87683899 C2.41746816,1.84096564 2.41648482,1.80747714 2.42396852,1.77283602 L2.42587489,1.81683785 C2.42407866,1.78045094 2.42731543,1.74207218 2.43926655,1.70584533 C2.4457223,1.68786529 2.45399205,1.670401 2.4660321,1.6559067 C2.47451304,1.64538981 2.48486621,1.63623454 2.4961746,1.63045417 C2.99981688,0.959098541 5.88581466,0 5.88581466,0 Z M7.47091218,13.9799532 L7.43099022,13.9948327 C6.93543467,14.1855641 5.40618554,14.7537678 4.3319251,14.9312024 L4.127,14.96 C5.44316062,15.2302156 6.73923529,15.4224829 6.73923529,15.4224829 C6.81470764,15.4373884 6.87294736,15.4507275 6.91761568,15.4626054 C6.99648366,15.2793972 7.21774276,14.7473873 7.47091218,13.9799532 Z M4.99248053,13.2291322 L4.94398142,13.3087044 C4.39479717,14.1849144 3.95191092,14.6736439 3.75165285,14.874652 L3.94217737,14.9205603 L4.034,14.94 L3.96180795,14.9248334 C4.67004095,14.7168344 7.00734714,14.0281208 7.51951326,13.848157 C7.52209636,13.8229355 7.53130198,13.7942679 7.54053566,13.765312 C6.51042383,13.7562318 5.65825904,13.521545 4.99248053,13.2291322 Z M4.65249565,13.1711097 L4.55609547,13.2046041 C3.85753013,13.4443598 2.87539051,13.7515151 1.73553676,14.0234233 C1.86895017,14.1107379 1.95677543,14.1589893 1.95677543,14.1589893 C2.26748978,14.3552314 2.87403785,14.6255427 3.56594001,14.822855 C3.9077775,14.4112379 4.32128527,13.7423638 4.65249565,13.1711097 Z M3.11527197,11.9199751 L3.06697084,11.9780487 C2.97302542,12.0845648 2.8745515,12.1893198 2.77140825,12.2914125 C2.77140825,12.2914125 1.89006208,13.3907306 1.52946446,13.8805498 C1.56907287,13.9078936 1.60611644,13.9343282 1.64121574,13.9587232 C1.70727963,13.9357641 1.81533532,13.899834 1.95291207,13.8538736 L2.39087273,13.7070148 C2.9808179,13.5084631 3.78816627,13.2337928 4.4959923,12.9826551 C3.68038307,12.5341241 3.25908316,12.0586501 3.25909243,12.0586501 C3.20791057,12.0133335 3.16003704,11.9670423 3.11527197,11.9199751 Z M2.85744744,11.754972 L2.72936642,11.7881901 C2.02317848,11.9738689 1.20002003,12.1750552 0.447460926,12.3208716 C0.472702113,12.9310171 0.995285929,13.4619597 1.41849327,13.7942129 C1.60241174,13.5509551 2.22394412,12.7207536 2.85744744,11.754972 Z M8.11328759,11.6045185 L8.08898014,11.6197325 C7.68659349,11.8642858 6.84719287,12.3352735 5.675265,12.7901586 C5.675265,12.7901586 5.50340083,12.8616802 5.19379443,12.9768948 L5.15369018,12.9918528 C6.12656151,13.4633218 7.15744554,13.6722869 7.54995101,13.739584 C7.74026019,13.1365588 7.94353242,12.4092596 8.11328759,11.6045185 Z M5.86513815,10.8078997 L5.7154344,10.8740261 C5.32193403,11.0412189 4.9089561,11.1884533 4.49311728,11.2939382 C4.49311728,11.2939382 4.06288329,11.4242202 3.42635939,11.6001623 L3.38886295,11.6126563 C3.65989158,11.9758262 3.94624658,12.1916598 3.94624658,12.1916598 C4.21254814,12.4403569 4.52167717,12.6523429 4.8461246,12.832391 C5.08411817,12.4096986 5.24481106,12.1029867 5.24481106,12.1029867 C5.51241821,11.6416174 5.71389713,11.2070765 5.86513815,10.8078997 Z M6.22546041,10.6826534 L6.19490974,10.7775177 C6.11236042,11.0318204 6.04202233,11.2200849 6.01201261,11.2983232 L5.99648707,11.3382569 C5.76262604,11.8480351 5.53238779,12.2957565 5.31284327,12.6865952 C5.56849173,12.5894269 5.77579124,12.5069746 5.90799183,12.4465815 C5.90799183,12.4465815 7.11631681,12.0529623 8.14365387,11.4570784 C8.14600839,11.4463676 8.14836962,11.4347067 8.1507233,11.4230307 C7.33132168,11.2627016 6.70433986,10.9908476 6.22546041,10.6826534 Z M2.51163159,10.062028 L2.74466049,9.94280294 C2.48947195,10.0726825 2.23599071,10.2060656 1.98492815,10.3439126 L1.65,10.531 L1.54202797,10.6165813 C1.05277575,11.0133281 0.732069607,11.5045234 0.732069607,11.5045234 C0.549384254,11.7408832 0.464148341,11.9735631 0.448518446,12.1969888 C0.798186747,12.0989621 1.7803788,11.8206875 2.81035085,11.5120706 C2.49402449,10.9698992 2.48044402,10.4011493 2.51163159,10.062028 Z M8.35917005,9.36385952 L8.34008259,9.37724473 C8.08568269,9.56176429 7.39582217,10.0425219 6.51715693,10.4960532 C7.14717911,10.8728573 7.8179908,11.148965 8.1788686,11.2858454 L8.22025007,11.061158 C8.22025007,11.061158 8.34728477,10.3127679 8.35917005,9.36385952 Z M4.26091262,9.21607551 L4.29405634,9.20188651 C3.8555283,9.397816 3.42089539,9.60288842 2.99115613,9.81801821 C2.82212484,10.3724535 2.95474547,10.8729829 3.16899244,11.2699453 C3.61251086,10.5624037 4.02701638,9.8241871 4.26091262,9.21607551 Z M4.78403751,8.98922658 L4.71110228,9.02206312 C4.61138562,9.34032999 4.27935376,10.2952995 3.61799646,11.2660616 C4.39142825,11.0268485 5.10407865,10.7923864 5.49790105,10.6289078 C5.49790105,10.6289078 5.66024126,10.5663485 5.91104647,10.46155 C5.17443099,9.88537972 4.88029122,9.25046934 4.78403751,8.98922658 Z M4.82692821,7.67350236 L4.55095219,7.846981 C4.28704918,8.01521406 4.02574507,8.18814392 3.76396945,8.36271617 L3.70126629,8.44606674 C3.55545188,8.63367451 3.40142108,8.81395511 3.24164592,8.98849134 C2.922309,9.33779499 2.57960336,9.66349873 2.22202995,9.97020872 C2.03593101,10.1291291 1.84579849,10.2832058 1.65182502,10.4322902 C1.92254528,10.2485862 2.19431774,10.0650084 2.46850752,9.88548438 L2.54615361,9.81898934 C2.55461383,9.77653708 2.5608408,9.7533278 2.5608408,9.7533278 L2.647,9.733 L2.79716008,9.60721107 C2.94254178,9.48413338 3.0871085,9.36009625 3.23085078,9.23510779 C3.51766001,8.98552134 3.79783565,8.73035058 4.06869226,8.46737246 C4.33120889,8.21225215 4.58412933,7.94744503 4.82692821,7.67350236 Z M6.6894982,8.25593633 L6.59702218,8.28840871 L6.58262575,8.16841648 C6.69160041,8.78076398 6.52773375,9.61594076 6.34584406,10.2752971 C6.99805273,9.98594478 7.86527531,9.56368002 8.32187941,9.18006895 C8.15976538,9.10035924 7.94558726,8.98385975 7.72399471,8.85910683 L7.45738229,8.707268 C7.12897263,8.51832626 6.82375893,8.33640434 6.6894982,8.25593633 Z M6.29856328,8.39541217 L6.19842509,8.43253323 C5.8085179,8.57588196 5.42108951,8.72555619 5.0364575,8.88375994 C5.1152633,9.37803519 5.54057454,9.82605512 6.06522231,10.2023097 C6.32005847,9.31013209 6.31652429,8.66425611 6.29856328,8.39541217 Z M5.50074287,7.3938056 L5.47012179,7.43207064 C5.34499066,7.57955678 5.21991289,7.72313035 5.08813039,7.86567242 C4.8262549,8.15041865 4.54643495,8.41857203 4.2535968,8.66990136 C4.02415022,8.86707766 3.78587538,9.05297825 3.54135003,9.22916179 C3.73991232,9.11261888 3.94290687,9.0045777 4.14941571,8.90357076 C4.70371986,8.6628962 5.25397411,8.44436611 5.80888467,8.23506489 C5.8344629,8.2141518 5.85896202,8.19241895 5.88296192,8.17030358 L5.8458353,8.08666153 C5.80012374,7.98288094 5.75284738,7.87979666 5.70402239,7.77744394 C5.63986822,7.6439519 5.57301167,7.51627791 5.50074287,7.3938056 Z M8.23922716,7.73567732 L8.14294194,7.76613775 C7.92493563,7.83601086 7.70758236,7.90756538 7.49092908,7.98043523 L6.89571684,8.18244757 C7.24417194,8.39878246 7.98352169,8.84497889 8.35979173,9.0716106 C8.35298863,8.63861784 8.31987664,8.17788601 8.23922716,7.73567732 Z M4.75589927,6.47690967 L4.73340248,6.55017717 C4.69836719,6.66778549 4.65634262,6.78285064 4.61161482,6.89611957 C4.56695816,7.00947742 4.51687725,7.12023874 4.4633106,7.22872366 C4.4365916,7.28289355 4.40897452,7.33661582 4.38047081,7.38986823 C4.35162077,7.44272979 4.3219528,7.49514083 4.2914776,7.54708244 L4.24513142,7.62480033 L4.2219939,7.66246771 L4.20209314,7.70114881 C4.17306898,7.75578253 4.14256871,7.80776637 4.11126815,7.8593056 C4.05633869,7.94917884 3.99889242,8.03681794 3.93943157,8.12269533 L3.96869051,8.09414877 C4.12096065,7.95532364 4.27725007,7.82092683 4.43601153,7.68933996 C4.61623518,7.54048585 4.80034398,7.39623105 4.98776795,7.25625498 L5.271,7.049 C5.18201628,6.93034864 5.09011038,6.82163845 4.99060066,6.71461185 C4.91454578,6.63325533 4.83628279,6.55399171 4.75589927,6.47690967 Z M8.23876023,5.9069348 C8.13359794,6.06116796 8.02188172,6.21015981 7.90557267,6.35424629 C7.81198804,6.47067813 7.71585186,6.58503589 7.61723398,6.69723648 L7.47067263,6.86165338 L7.32540955,7.0261592 C7.13102591,7.24524538 6.93566413,7.46963132 6.72077507,7.67934512 C6.58565412,7.81195214 6.44394326,7.93756863 6.29620266,8.05572681 C6.65695763,7.92135963 7.02237639,7.79059718 7.39320373,7.6586085 C7.87467491,7.48159726 8.36015589,7.31914179 8.84937219,7.16824648 L9.58423995,6.94951314 L9.4506008,6.83508676 C9.30948609,6.71792568 9.16323893,6.60265897 9.02453237,6.48969238 C8.81681042,6.31981567 8.60257939,6.15682152 8.3813235,6.00282629 L8.23876023,5.9069348 Z M7.71523995,6.05651314 L7.73526913,6.04680714 C7.27634867,6.27196118 6.82312678,6.50868163 6.37556794,6.75667982 L5.82023995,7.07251314 L5.83777484,7.1010855 C5.93683601,7.28092376 6.00450784,7.47647832 6.03765798,7.6748101 L6.05731293,7.83633508 L6.061,7.997 L6.13673034,7.92474236 C6.27322637,7.78747831 6.404503,7.64634911 6.53000167,7.50004267 C6.71844531,7.28090313 6.89810345,7.05118187 7.08475087,6.82183408 L7.1551149,6.73608208 L7.22638594,6.65083695 C7.2738881,6.59422916 7.32274188,6.53683886 7.36967495,6.48229406 C7.46418132,6.37188843 7.55753171,6.26096704 7.64723629,6.14776925 L7.71523995,6.05651314 Z M6.311,5.281 L6.94562341,4.83198946 C6.51537441,5.1343595 6.08752143,5.4401246 5.66210453,5.74925613 L5.02186566,6.21556344 L4.90323995,6.30151314 L4.9811085,6.32979615 C5.0590204,6.3611752 5.13439662,6.39867598 5.20652122,6.4419768 C5.34643402,6.5253359 5.47482423,6.63067937 5.58660542,6.75197761 L5.583,6.756 L5.72939408,6.55265587 C5.78129122,6.47607841 5.83102089,6.39840499 5.8781318,6.31945998 C5.97288715,6.16189008 6.05741647,5.99930497 6.12855412,5.83115335 C6.19937165,5.66294837 6.25912728,5.49010166 6.30424633,5.31264879 L6.311,5.281 Z M11.8720747,4.48099393 L11.7908509,4.70688028 C11.7583146,4.78960253 11.723117,4.87144418 11.685454,4.95228323 C11.5345355,5.27565721 11.3404186,5.5799663 11.1195718,5.85978625 C10.8986182,6.13997968 10.6531044,6.39716008 10.397578,6.63949049 L10.3222442,6.70511127 C10.3343417,6.71684147 10.3463967,6.72861573 10.3584091,6.74043381 L10.6958582,6.65201072 C11.4420328,6.46293869 12.450709,6.2599098 13.7218868,6.04292404 C13.3872648,5.64715027 13.1204001,5.36553613 12.9212929,5.1980816 C12.5982359,4.92572782 12.2435544,4.68990015 11.8720747,4.48099393 Z M11.7361852,4.40614792 L11.6860943,4.42467304 C11.4924932,4.49191591 11.2993722,4.55917656 11.1072828,4.62869583 C10.722926,4.76702299 10.3413437,4.91004524 9.96333597,5.06075036 C9.56637767,5.21828297 9.17313241,5.38361883 8.78368759,5.5568402 L8.698,5.506 L8.94181509,5.65126269 C9.10405241,5.75078559 9.26381572,5.85484812 9.42052011,5.96377172 C9.65296206,6.12625729 9.8772853,6.30129632 10.089857,6.48980565 L10.1697063,6.40475402 C10.4141531,6.16165888 10.6527132,5.9157538 10.8759431,5.65855562 C11.0993687,5.40148193 11.3067527,5.13240376 11.4936669,4.84587908 C11.5851418,4.70661087 11.670886,4.56301944 11.7533958,4.41615491 L11.7361852,4.40614792 Z M6.66336723,5.05608737 L6.65854741,5.09372266 C6.65187826,5.13964202 6.64279042,5.19160807 6.63377372,5.23943036 L6.60325567,5.38504913 C6.55875907,5.57847241 6.50008829,5.76958371 6.42475352,5.95383023 C6.35536312,6.12473498 6.27404258,6.29052244 6.18288712,6.44963534 C6.62874148,6.17303231 7.088786,5.91997267 7.55950578,5.68873577 L7.74586323,5.6005134 C7.72915041,5.59084453 7.71241109,5.58122109 7.69564546,5.57164319 C7.36160094,5.3823921 7.01669493,5.21063758 6.66336723,5.05608737 Z M4.75797416,4.39386149 L4.7421702,4.33699589 C4.81658018,4.57745894 4.86484708,4.82599611 4.8895852,5.07584933 C4.92249851,5.43032849 4.90277224,5.7868134 4.83729203,6.1312046 L4.89262633,6.06937556 C5.0756813,5.87431612 5.26727278,5.68754421 5.46448413,5.5069435 C5.7079798,5.28511477 5.96059726,5.07345359 6.22080723,4.87169401 C5.74817483,4.68514174 5.25742667,4.52523029 4.75797416,4.39386149 Z M8.89377729,3.47484389 C8.67556662,3.62894505 8.45825887,3.77934783 8.24166251,3.93007073 C7.85950895,4.19456749 7.47867994,4.45841576 7.09947932,4.72404613 C7.38586707,4.83791471 7.66799156,4.96398328 7.94500071,5.10170786 L8.09813425,5.1786757 L8.24923995,5.25751314 L8.28462965,5.19724112 C8.37440141,5.02996752 8.45498061,4.85804362 8.52432797,4.68105314 C8.57732874,4.54839239 8.62478308,4.41358243 8.6665677,4.27697349 C8.68752196,4.20851361 8.70726574,4.13968906 8.7257898,4.07053203 L8.73295692,4.04389098 L8.73656715,4.03133518 L8.740622,4.01856597 L8.75657462,3.96740022 L8.78734165,3.86462409 C8.82483843,3.73609699 8.86068573,3.60655842 8.89377729,3.47484389 Z M9.06554059,3.38182821 L9.07313717,3.46392348 C9.08021537,3.61573123 9.07391968,3.76849934 9.05492593,3.91940008 C9.05071103,3.95720975 9.04491331,3.99477043 9.03883104,4.03229554 L9.02938751,4.08852985 L9.02389213,4.11680707 L9.01766759,4.14367932 C9.00028261,4.21721215 8.9813916,4.29038075 8.96100645,4.36313897 C8.92038725,4.50908335 8.87372822,4.65327897 8.82114982,4.79535356 C8.76866071,4.93457179 8.7102041,5.07184502 8.64580936,5.20622808 C9.04218024,5.04136643 9.4476999,4.89501506 9.85815895,4.76517342 C10.251977,4.64103821 10.6503123,4.53193084 11.0523289,4.4404656 L11.3215649,4.38210364 L11.5892399,4.32851314 L11.4602525,4.26351141 L11.2851625,4.1793015 C11.1678387,4.12406311 11.0496791,4.07024748 10.9301322,4.01918843 C10.8105138,3.96798567 10.6899686,3.91897548 10.5685573,3.87218247 C10.4471176,3.82473734 10.3249353,3.77921541 10.2020561,3.73563374 C9.8291091,3.60290657 9.44957505,3.4854911 9.06554059,3.38182821 Z M6.47663029,2.90776217 L6.52562004,3.06606615 C6.57681469,3.25214225 6.61718976,3.44179078 6.64709425,3.63355121 C6.69240947,3.92468337 6.71192888,4.21905917 6.70552367,4.51325441 L6.7160622,4.50575218 C7.15285985,4.19803051 7.6075221,3.91648328 8.07765465,3.66259316 C8.30953475,3.53785741 8.54494335,3.41979813 8.78452863,3.31037692 C8.75602039,3.30143198 8.72659976,3.29411739 8.69715689,3.28687965 C8.1874734,3.16233541 7.66932453,3.06002168 7.15138907,2.98737235 C7.08672494,2.97851571 7.02250542,2.97012147 6.95937076,2.96338118 L6.75886928,2.94139964 L6.47663029,2.90776217 Z M6.32542751,2.88882113 L6.24235382,2.98064917 C6.20064215,3.02521849 6.15829413,3.06919225 6.11532251,3.11255683 C5.94446766,3.28506564 5.7666591,3.44791751 5.58360413,3.60463376 C5.40035354,3.76113659 5.21217667,3.91177057 5.0156589,4.05417037 L4.96223995,4.09051314 L5.15195309,4.12923032 C5.56372672,4.21919305 5.97210908,4.32861054 6.37493938,4.45876576 L6.4427843,4.4823741 C6.46848294,4.20750617 6.47531019,3.92974303 6.46501743,3.65114 C6.45591181,3.40035606 6.43237315,3.14923225 6.3981375,2.89767897 L6.32542751,2.88882113 Z M4.22920516,2.52748766 L4.32661104,2.69096349 C4.36210148,2.75748708 4.39551049,2.82505401 4.42758172,2.89315053 C4.47442586,2.99581995 4.51837114,3.09996547 4.55719452,3.20606728 L4.57167729,3.24589386 L4.58570293,3.28588372 C4.59560885,3.31478339 4.60451884,3.33763637 4.6140335,3.36674945 C4.63224474,3.42241466 4.64858862,3.47715509 4.66251381,3.53346054 C4.69816936,3.67580039 4.72034077,3.8220492 4.72770711,3.96890469 L4.82876251,3.84808459 C4.99168551,3.66454945 5.16768007,3.4944771 5.35292251,3.33532439 C5.53837837,3.17638509 5.73343781,3.02870333 5.93947024,2.89564035 L6.01742751,2.84682113 L5.95759256,2.83978618 C5.82421835,2.82097694 5.69094196,2.80119622 5.5577456,2.78075304 C5.11302705,2.71053745 4.66910254,2.63028484 4.22920516,2.52748766 Z M3.24330256,2.24423143 L3.30269981,2.28296732 L3.34611156,2.31553058 L3.3846326,2.34581743 C3.43413586,2.38560135 3.48257971,2.42668581 3.52991347,2.46902785 C3.71789471,2.63597013 3.88670436,2.81971869 4.04144654,3.015614 C4.1361025,3.13460573 4.22366204,3.25936703 4.30451528,3.38861893 L4.29901819,3.36662496 L4.28169618,3.28671959 L4.21203463,2.96547974 C4.17993123,2.81158381 4.14626279,2.65776931 4.11646194,2.50034565 C4.06783339,2.48880171 4.01857044,2.47652041 3.96936631,2.46392372 C3.83833076,2.429831 3.7077576,2.39365751 3.57789581,2.35446066 C3.46563486,2.32055634 3.3538126,2.28464464 3.24330256,2.24423143 Z M6.26363134,1.85091504 C6.20313828,1.89671197 6.12482019,1.95701536 6.04137041,2.02170967 L5.87138956,2.15395566 C5.75899242,2.24165947 5.65246698,2.32521537 5.58152658,2.38094425 C5.58947215,2.38113391 5.59715534,2.3817502 5.60483872,2.3823644 C5.86986205,2.40423923 6.13540112,2.42166796 6.40097576,2.43897219 L6.59386426,2.45228073 C6.46710504,2.29046308 6.35738073,2.07944484 6.26363134,1.85091504 Z M3.61788757,1.18039102 L3.58269147,1.20373594 L4.65453606,2.29240273 C4.78156911,2.30674967 4.90878096,2.32000249 5.03612125,2.33237076 C5.19741308,2.2915549 5.93197153,1.88519244 6.21628455,1.72598677 C6.20594307,1.7031346 6.19722522,1.67944533 6.18866672,1.65566819 C5.7638971,1.62164984 3.97783443,1.46505921 3.61788757,1.18039102 Z M3.49677744,1.25813156 C2.94889871,1.61485531 2.89263512,1.85278111 2.91616154,1.97191276 L2.86219768,1.95486268 C2.98546145,1.99868348 3.11253108,2.03394997 3.24079226,2.06455694 C3.49763476,2.12511287 3.75831868,2.1726506 4.02076327,2.2105314 L4.234,2.238 L3.49677744,1.25813156 Z M5.81931874,0.155169004 C4.99915497,0.42117047 3.82431664,1.06400586 3.82431664,1.06400586 L3.80447101,1.07293935 C4.20327151,1.15097691 5.65784782,1.43341345 6.13750317,1.49597595 C5.91646919,0.831343584 5.81931874,0.155169004 5.81931874,0.155169004 Z" id="形状结合"></path>
            </g>
        </g>
    </g>
</svg>