<?xml version="1.0" encoding="UTF-8"?>
<svg width="20px" height="20px" viewBox="0 0 20 20" version="1.1" xmlns="http://www.w3.org/2000/svg" xmlns:xlink="http://www.w3.org/1999/xlink">
    <title>MSSQL-second menu-pressed</title>
    <g id="MSSQL-second-menu-pressed" stroke="none" stroke-width="1" fill="none" fill-rule="evenodd">
        <g id="MSSQL">
            <rect id="矩形" x="0" y="0" width="20" height="20"></rect>
            <g id="编组-29" transform="translate(2.500000, 2.000000)" fill="#FFFFFF" fill-rule="nonzero">
                <path d="M6.05630743,0 C6.26671252,1.0081242 6.91502223,2.09709316 7.20370566,2.54696147 C7.27410717,2.5488921 7.3449814,2.55440027 7.41528834,2.56025613 C7.69647953,2.58366128 7.97428529,2.61912585 8.25165186,2.66062927 C8.52894523,2.7018033 8.80457334,2.75335319 9.07923158,2.81050274 C9.62818205,2.92611942 10.1718074,3.07394334 10.7039771,3.26134923 C10.8368686,3.30854382 10.9692477,3.35762326 11.100602,3.40964894 C11.2319255,3.46218304 11.3622768,3.51711534 11.4915906,3.57441826 C11.6209319,3.6319704 11.7496145,3.6914623 11.8765952,3.75474221 C12.003649,3.81829688 12.1292935,3.88463047 12.2534383,3.95369513 C12.5029179,4.09192494 12.7447735,4.24348788 12.9779548,4.40772574 C13.2116586,4.57229377 13.4369995,4.75027538 13.6500614,4.94317114 C14.076423,5.32804768 14.4533393,5.77560024 14.7441743,6.27741103 L14.9321109,6.6016428 L14.5656071,6.64270703 C13.4013885,6.77309146 12.2441787,6.97433183 11.0998334,7.23548498 C10.3428582,7.40752865 9.59111732,7.61496394 8.84635744,7.84417195 C8.92005504,8.24589185 9.12064793,9.68010145 8.76630894,11.9403591 C8.76630894,11.9403591 8.38653798,14.128219 7.25750946,15.9814347 C7.25066969,15.9905705 7.23095678,15.994647 7.23095678,15.994647 C7.20993306,15.9956851 7.18862054,15.9965671 7.16703282,15.9972973 L7.23095678,16.0388787 C7.23095678,16.0388787 7.20561188,16.0518809 7.16284579,16.0518809 C7.12729969,16.0518809 7.11028914,16.0244088 7.10214901,15.998263 C5.69111848,16.0274318 3.20521625,15.4529614 3.20521625,15.4529614 C0.89582891,14.83138 0.245773312,13.6852597 0.245773312,13.6852597 C-0.572324075,12.4788265 0.890999686,11.3239369 1.16703416,11.1217444 L1.23325513,11.0665989 C1.23163489,11.0521897 1.23614869,11.0422251 1.24491149,11.0361591 L1.38125513,10.9445989 L1.50994517,10.838631 C2.12422104,10.3185496 2.70215194,9.75751026 3.21412814,9.14299548 C3.36718574,8.95846262 3.51396658,8.76908038 3.65243942,8.57459256 C3.79047307,8.37997664 3.92072941,8.17974275 4.03468082,7.97347001 C4.06287761,7.92250222 4.0897263,7.87080019 4.11519893,7.81841776 L4.13454157,7.77685944 L4.15203596,7.73502662 L4.18517648,7.65286155 C4.20691752,7.59782403 4.22779379,7.54244882 4.24779761,7.48675636 C4.26820608,7.43148872 4.28771599,7.3758934 4.30631963,7.31999239 C4.34298698,7.20875456 4.37648263,7.09649621 4.40676596,6.98335351 C4.43699685,6.87071967 4.46148168,6.75704274 4.48388035,6.64369521 C4.5057945,6.53065516 4.52294416,6.41674336 4.53528384,6.30226185 C4.54813014,6.18838363 4.55674923,6.07445051 4.55964057,5.96073699 L4.56092611,5.87552733 L4.56020785,5.7904412 C4.55960397,5.73380403 4.55764591,5.67725836 4.55438859,5.62085909 C4.54787002,5.50833652 4.5358757,5.39619815 4.51844824,5.2848424 C4.45249659,4.83985177 4.30092126,4.41180655 4.08366877,4.01759723 C3.97564641,3.81999848 3.8486474,3.63242789 3.71099804,3.45283592 C3.5724886,3.27399423 3.41888202,3.1055284 3.25647334,2.95045785 C3.21621514,2.91233522 3.17497226,2.87526606 3.13278655,2.83928796 L3.10193348,2.81355877 L3.07481352,2.79181888 L3.06315669,2.7827423 L3.04837064,2.76951171 L3.03107755,2.75309699 L2.99685735,2.71995647 L2.92922215,2.65294345 L2.86453317,2.58203262 C2.82107169,2.53496613 2.78150802,2.48326984 2.74163326,2.43175656 C2.66475677,2.32593015 2.59353485,2.21177744 2.54363192,2.08067932 C2.52603169,2.03277946 2.51055579,1.98258961 2.50221743,1.92956934 C2.48692263,1.89251725 2.48640158,1.85612875 2.49549879,1.81843642 L2.49614454,1.86946569 C2.49429628,1.83202477 2.4976268,1.7925343 2.50992412,1.75525808 C2.51656686,1.73675722 2.52507616,1.71878704 2.53746497,1.70387289 C2.54594224,1.69336055 2.55623747,1.68417036 2.56748566,1.67820135 C2.96504553,1.14856472 4.80409393,0.44442804 5.64032891,0.144838291 L5.86123806,0.0667816912 C5.98449096,0.023866642 6.05630743,0 6.05630743,0 Z M7.68709902,14.3855766 L7.65745097,14.3958995 C7.15859595,14.5882048 5.56342634,15.1826042 4.44944489,15.3650198 L4.248,15.394 C5.60083116,15.6713851 6.93444886,15.8692217 6.93444886,15.8692217 C7.0127369,15.8846833 7.07300452,15.8985068 7.11911132,15.9108034 C7.1987938,15.722843 7.42649839,15.1754562 7.68709902,14.3855766 Z M5.13732538,13.6124374 L5.11950031,13.6424227 C4.54014665,14.5755532 4.07134934,15.093602 3.86103285,15.3048123 L4.05650842,15.3526827 L4.248,15.394 L4.07785965,15.3567777 C4.80634589,15.1428279 7.19875921,14.4378605 7.73338498,14.250676 C7.7399281,14.2235227 7.74936693,14.1941299 7.75883447,14.1644425 C6.69938835,14.1547777 5.82245761,13.9133184 5.13732538,13.6124374 Z M4.78741897,13.5523649 L4.68807063,13.5870982 C3.96975208,13.8336335 2.96003616,14.1494276 1.78816847,14.4290732 C1.92403308,14.5199992 2.0134568,14.5691288 2.0134568,14.5691288 C2.33327725,14.7711222 2.95770212,15.0493808 3.66993992,15.2524259 C4.02150341,14.827848 4.4467794,14.1398959 4.78741897,13.5523649 Z M3.206184,12.2659649 L3.15581094,12.3250136 C3.05914423,12.4346151 2.95781784,12.5424045 2.85168687,12.6474545 C2.85168687,12.6474545 2.76984995,12.7495311 2.64528549,12.9060193 L2.47780191,13.1168722 C2.1836457,13.4880009 1.78870618,13.9906567 1.5737201,14.2826889 C1.61481723,14.3109768 1.65324119,14.3383889 1.68962655,14.3636663 C2.0521874,14.2413744 3.46829811,13.7695487 4.62587918,13.3588433 C3.78680719,12.8969884 3.35348812,12.4079497 3.35349766,12.4079497 C3.30108956,12.3615473 3.25205256,12.3141519 3.206184,12.2659649 Z M2.94048141,12.0950739 L2.91387254,12.1018211 C2.16483431,12.3003159 1.27315164,12.52026 0.461243804,12.6776078 C0.486547703,13.3058745 1.02441335,13.8521968 1.45987109,14.1940127 C1.64884479,13.9434604 2.28853197,13.0890094 2.94048141,12.0950739 Z M8.34809015,11.9416721 L8.3232914,11.9563181 C7.90924893,12.2079553 7.04553361,12.692586 5.83965883,13.1606476 C5.83965883,13.1606476 5.66281632,13.2342409 5.34424164,13.352793 L5.30344781,13.368413 C6.30516791,13.8537685 7.36654581,14.0686854 7.76962321,14.1377419 C7.96448713,13.5169868 8.17350122,12.7691308 8.34809015,11.9416721 Z M6.03461471,11.1220702 L5.88099181,11.189011 C5.47609302,11.3610468 5.05115248,11.5125461 4.62326817,11.6210865 C4.62326817,11.6210865 4.21057611,11.7460566 3.59259784,11.917624 L3.48647206,11.9482928 C3.76551548,12.3224318 4.06055641,12.5448122 4.06055641,12.5448122 C4.33450782,12.8006535 4.65250665,13.0187379 4.98626686,13.2039735 C5.23130486,12.7693264 5.39673606,12.4535705 5.39673606,12.4535705 C5.67184887,11.9792611 5.87903948,11.5325078 6.03461471,11.1220702 Z M6.40434911,10.9911661 L6.40193071,11.0037085 C6.27623046,11.400645 6.17018565,11.6666891 6.17018565,11.6666891 C5.92963355,12.1910527 5.69280659,12.6516061 5.46697302,13.0536675 C5.7291944,12.9543394 5.94290626,12.8693479 6.079127,12.8071182 L6.11501992,12.7951568 C6.32601133,12.7240045 7.42822157,12.3407543 8.37958083,11.7889339 C8.38202241,11.7776816 8.38451479,11.7653718 8.38699898,11.7530457 C7.54269677,11.5887115 6.89721922,11.3086289 6.40434911,10.9911661 Z M2.58437743,10.3529511 L2.82416432,10.2308134 C2.5615838,10.3644551 2.30076004,10.5017019 2.04242502,10.6435419 L1.702,10.833 L1.58669547,10.9241089 C1.08327121,11.3323481 0.753275266,11.8377717 0.753275266,11.8377717 C0.565456169,12.0807736 0.477740755,12.3199954 0.461551275,12.5497157 L0.448063244,12.5544638 C0.784298132,12.4598832 1.73653478,12.1903023 2.75860322,11.8853502 L2.89010424,11.8455221 C2.56561523,11.2871444 2.55212346,10.70175 2.58437743,10.3529511 Z M8.60130779,9.63510233 L8.58166747,9.64887279 C8.31987198,9.83875647 7.60991145,10.3335208 6.70566354,10.8002309 C7.35374308,11.1875066 8.0432254,11.4714078 8.41476516,11.612373 L8.45836379,11.3815635 C8.45836379,11.3815635 8.58907804,10.6114963 8.60130779,9.63510233 Z M4.38388186,9.48421865 L4.41844109,9.46843502 C3.96678985,9.6702278 3.51915405,9.88144591 3.076564,10.1030329 C2.90416617,10.6739733 3.04055706,11.1883306 3.26076405,11.5963548 C3.7170556,10.8684754 4.14318588,10.1095681 4.38388186,9.48421865 Z M4.92301486,9.25068183 L4.8479134,9.28229825 C4.74573904,9.6086514 4.40412759,10.5922563 3.72294217,11.5921908 C4.51885593,11.346187 5.25198854,11.104981 5.65715723,10.9367925 C5.65715723,10.9367925 5.82458553,10.8722724 6.08316362,10.7642135 C5.32556243,10.1727293 5.02250661,9.52020754 4.92301486,9.25068183 Z M4.96639006,7.89618299 L4.68277837,8.07428233 C4.41156073,8.24717833 4.14301078,8.42489545 3.87398066,8.60430223 C3.8522112,8.63409939 3.83042421,8.66247686 3.80847985,8.69072162 C3.65844168,8.88376378 3.49994911,9.06926651 3.33554578,9.24885849 C3.00695872,9.60828032 2.65432602,9.94341864 2.28639488,10.259013 C2.09253512,10.4245608 1.89442155,10.5850004 1.69225986,10.7401733 C1.97177324,10.5498151 2.2528023,10.3599341 2.53633321,10.1742435 L2.61987903,10.1035313 C2.62860133,10.0597735 2.63501997,10.0358498 2.63501997,10.0358498 L2.724,10.015 L2.87818465,9.8855005 C3.02777758,9.75885766 3.17653192,9.63122757 3.32443794,9.50261861 C3.61955509,9.24580246 3.90784651,8.98324024 4.18654895,8.71264451 C4.45654065,8.45025974 4.71666762,8.1779171 4.96639006,7.89618299 Z M6.88327341,8.49508011 L6.78834469,8.5284155 L6.77330286,8.40502875 C6.88539529,9.03489555 6.71693766,9.89388735 6.52985698,10.5722332 C7.20232614,10.274467 8.09476344,9.83980472 8.5640284,9.44506797 C8.39715979,9.36347761 8.17665907,9.24385923 7.94850954,9.11564024 L7.67400162,8.95953251 C7.3358166,8.76519963 7.02149778,8.5779089 6.88327341,8.49508011 Z M6.48095795,8.63788413 L6.37797316,8.67679609 C5.97670313,8.82432236 5.57798458,8.97835956 5.18214445,9.14117675 C5.26340099,9.64960566 5.70095923,10.1105758 6.2407426,10.4977157 C6.50326822,9.57883476 6.49946008,8.91403897 6.48095795,8.63788413 Z M5.66069921,7.60902731 L5.6285733,7.64735338 C5.49981753,7.79911171 5.37111666,7.94684413 5.23551686,8.09351518 C4.9660557,8.38650958 4.67813028,8.66243049 4.37680957,8.92104 C4.14107929,9.12361623 3.89629291,9.31462575 3.64509064,9.49566498 C3.84945314,9.37593884 4.05773431,9.26511033 4.26961069,9.16147804 C4.84031377,8.91368319 5.40684464,8.68870164 5.97817784,8.47321971 C6.00382207,8.45196398 6.02864805,8.42982629 6.05307251,8.40727829 L6.01517,8.32090563 C5.96813433,8.21411886 5.91948853,8.10804856 5.86924924,8.00273102 C5.80341959,7.86575264 5.73482467,7.73472773 5.66069921,7.60902731 Z M8.4781088,7.96095262 L8.3788163,7.99109732 C8.15449505,8.06299443 7.93084577,8.13662165 7.70791676,8.2116023 L7.0946679,8.41897252 C7.2426959,8.51088231 7.45960754,8.6432992 7.6905358,8.78351826 L7.97464976,8.95572277 C8.21107764,9.09880044 8.4390549,9.23627306 8.60146,9.33409181 C8.59491564,8.88917689 8.56092933,8.41558033 8.4781088,7.96095262 Z M4.89259395,6.6635005 L4.87051365,6.73991435 C4.8344635,6.8609294 4.79122161,6.97932761 4.7451982,7.09587757 C4.69924798,7.21251902 4.64771639,7.32648874 4.59259809,7.43811611 C4.56510512,7.49385512 4.53668807,7.54913354 4.5073587,7.60392851 L4.41578765,7.7656967 L4.36809897,7.84566582 L4.34429123,7.8844243 L4.32381402,7.92422587 C4.29394912,7.98044214 4.26256536,8.03393178 4.23035812,8.08696394 C4.17316859,8.18053501 4.11332768,8.27175247 4.05137076,8.36111994 L4.08365047,8.32860975 C4.24033138,8.18576331 4.401148,8.04747347 4.56450825,7.91207495 C4.7499618,7.75890125 4.93941344,7.61046058 5.1322766,7.46642299 L5.424,7.253 C5.33212232,7.13109814 5.23755421,7.01923897 5.13516202,6.90911216 C5.05656724,6.82503869 4.97568079,6.74313733 4.89259395,6.6635005 Z M8.47742408,6.07801889 C8.36921151,6.23672696 8.2542545,6.39004142 8.13457121,6.53830799 C8.03827574,6.65811248 7.93935481,6.77578281 7.8378803,6.89123348 L7.53760267,7.22968402 C7.33758837,7.45511641 7.13656761,7.68600207 6.91545391,7.90179059 C6.77684593,8.03781977 6.63149875,8.16670002 6.47998344,8.28795446 C6.85098451,8.15038727 7.22639879,8.01604916 7.60736062,7.8804533 C8.16484515,7.67549602 8.72755419,7.48950399 9.29508533,7.31808516 L9.86225513,7.15059893 L9.72435375,7.03307683 C9.57915141,6.91252198 9.42866795,6.79391637 9.28594351,6.67767751 C9.07220454,6.50288002 8.85176793,6.33516447 8.62410299,6.1767085 L8.47742408,6.07801889 Z M7.94125513,6.23059893 L7.95933454,6.22196334 C7.29079676,6.54995913 6.63401179,6.90180966 5.98887591,7.27667199 L5.92442244,7.17123519 C6.07177057,7.39139731 6.16991116,7.64202821 6.21254916,7.8971242 L6.23279619,8.0636352 L6.237,8.229 L6.31449131,8.15429618 C6.45494118,8.01305604 6.59002047,7.86783879 6.71915443,7.71729434 C6.91305667,7.49180705 7.09791892,7.25543151 7.28997289,7.01944027 L7.43571066,6.84348991 C7.48458881,6.78524238 7.53485773,6.72618967 7.58315029,6.67006489 C7.6803942,6.55646116 7.77644864,6.44232675 7.86875167,6.32584999 L7.94125513,6.23059893 Z M6.494,5.434 L7.14681536,4.97195636 C6.70410347,5.28308508 6.26385699,5.59770719 5.82611715,5.91579324 L5.16733266,6.39560795 L5.04525513,6.48359893 L5.1253949,6.51314961 C5.20556364,6.5454376 5.28312328,6.58402467 5.35733709,6.62857977 C5.45340956,6.6858191 5.54420206,6.75313228 5.62815921,6.82867553 L5.748,6.947 L5.89535586,6.74246485 C5.94875629,6.66366919 5.99992646,6.58374582 6.04840202,6.50251403 C6.14590213,6.34037985 6.23287998,6.17308519 6.30607826,6.00006276 C6.37894714,5.82698544 6.44043369,5.64913192 6.4868597,5.46653882 L6.494,5.434 Z M12.2154283,4.61048914 L12.1323932,4.84322318 C12.0989144,4.92834163 12.0626973,5.01255396 12.0239434,5.09573465 C11.8686532,5.42847572 11.6689134,5.74159965 11.4416694,6.02952507 C11.2143155,6.31783478 10.96169,6.58246485 10.6987618,6.83181478 L10.6210554,6.89915177 C10.6334446,6.911164 10.6457907,6.92322114 10.6580932,6.93532295 L11.0056821,6.84469768 C11.7734711,6.65014886 12.8113653,6.44123888 14.1193649,6.21796776 C13.77505,5.81072972 13.5004552,5.52095813 13.2955804,5.34865299 C12.9630085,5.06827768 12.5978654,4.82552202 12.2154283,4.61048914 Z M12.076144,4.5337796 L12.0246021,4.55284133 L11.4290244,4.76277399 C11.0335341,4.90510804 10.6408985,5.05227317 10.2519412,5.20734372 C9.84334381,5.36949529 9.43856967,5.53968166 9.03770878,5.71798757 L8.94859095,5.66481465 C9.20258897,5.8115406 9.45153631,5.96840451 9.69340172,6.13652265 C9.93263607,6.30375637 10.1635124,6.48391357 10.3822898,6.67793839 L10.4642894,6.59027877 C10.715817,6.34014196 10.9612874,6.08711381 11.1909836,5.82246544 C11.4208811,5.55794517 11.6342723,5.28107269 11.8266008,4.98624833 C11.9206959,4.8429909 12.008898,4.69528782 12.0937733,4.54421859 C12.0875545,4.53994383 12.081851,4.53685882 12.076144,4.5337796 Z M6.85761142,5.203083 L6.85142372,5.24127112 C6.84456138,5.28852061 6.8352103,5.34199195 6.82593242,5.39119949 C6.81631543,5.44131956 6.80584656,5.49127241 6.79453036,5.54103637 C6.74874483,5.74006248 6.68837456,5.93670965 6.61085758,6.12629319 C6.53973154,6.30147274 6.45642393,6.47142716 6.36306593,6.63457247 C6.82148492,6.35144301 7.29449864,6.0912713 7.7784799,5.85351981 L7.96980559,5.76249321 C7.9527515,5.75262794 7.93567061,5.74280865 7.9185631,5.73303545 C7.57522949,5.53852167 7.22074493,5.36197076 6.85761142,5.203083 Z M4.891,4.505 L4.87953534,4.46262445 C4.95610073,4.71005293 5.00576576,4.96578941 5.03122046,5.22288006 C5.06512766,5.58806336 5.04474089,5.95531544 4.97717069,6.31007634 L5.03434969,6.24518549 C5.22270716,6.04447582 5.41984842,5.85229374 5.62277234,5.66646161 C5.87326716,5.43825654 6.13314393,5.22050902 6.40083012,5.01294556 C5.91476763,4.82088955 5.40989604,4.65636969 4.89607025,4.52120911 L4.891,4.505 Z M9.1513767,3.57559502 C8.92686936,3.7340637 8.70326693,3.88882316 8.48039647,4.04391201 C8.08733114,4.31596104 7.69562763,4.58734334 7.3055982,4.86055689 C7.60044783,4.97833764 7.89042059,5.10792895 8.17514136,5.24948763 L8.33268939,5.32867406 L8.48825513,5.40959893 L8.52460823,5.34778817 C8.61698039,5.1756692 8.69989371,4.99876523 8.77124983,4.81664792 C8.82578585,4.68014442 8.87461479,4.54142945 8.91760978,4.40086341 C8.93917102,4.33042047 8.9594867,4.25960229 8.97854735,4.18844201 L8.98592207,4.16102925 C8.98842911,4.15175137 8.98830102,4.15248335 8.98863041,4.15138538 L8.99380919,4.13497066 L9.04188216,3.97656959 C9.08045595,3.8443508 9.1173333,3.71109173 9.1513767,3.57559502 Z M9.33024456,3.48035703 L9.33595623,3.564262 C9.34323946,3.72046712 9.33676141,3.87766042 9.31721747,4.03293227 C9.31288048,4.07183715 9.30691482,4.11048584 9.30065636,4.14909793 L9.29093929,4.20696117 L9.28841395,4.22139953 L9.28528473,4.23605748 L9.27887988,4.26370813 C9.26099132,4.33937097 9.24155309,4.41465902 9.22057745,4.48952482 C9.17878164,4.63969672 9.13077106,4.78806922 9.07666964,4.93425925 C9.02262967,5.07759084 8.96244244,5.21891885 8.89613818,5.35726907 C9.30402459,5.18742645 9.72132935,5.03682009 10.1437175,4.90320488 C10.5489432,4.77547389 10.9588169,4.66320603 11.3724787,4.56909135 L11.6494938,4.50904292 L11.9252551,4.45359893 L11.7922185,4.38701137 C11.7324851,4.35747104 11.6724276,4.32858619 11.6120567,4.30036217 C11.4913344,4.24352371 11.3697521,4.18814921 11.2467424,4.13561115 C11.123659,4.08292521 10.999622,4.03249536 10.8746938,3.98434691 C10.7497364,3.93552745 10.6240148,3.8886869 10.4975763,3.84384282 C10.1145076,3.70751347 9.72468515,3.58688346 9.33024456,3.48035703 Z M6.66368703,2.99192288 L6.71464588,3.15488005 C6.76732347,3.34634615 6.80886807,3.54148818 6.8396388,3.73880329 C6.88625964,4.03832355 6.90634544,4.34118042 6.89976369,4.64385209 L6.91060452,4.63626906 C7.36005476,4.3196337 7.82788709,4.02993097 8.31163785,3.76868649 C8.55032459,3.64028923 8.79264476,3.518767 9.03926609,3.40614053 C9.00992198,3.39713038 8.97951505,3.38957019 8.94908504,3.38208979 C8.42463769,3.2539379 7.89147974,3.14866048 7.35854138,3.07390674 C7.29200415,3.06479356 7.2259244,3.05615616 7.16096093,3.04922062 L6.95465159,3.02660235 C6.85762049,3.01540423 6.76063163,3.00384433 6.66368703,2.99192288 Z M6.50911306,2.97188428 L6.42317436,3.06698881 C6.38025444,3.11284916 6.33667974,3.1580967 6.29246338,3.20271741 C6.11665941,3.38022323 5.93370032,3.54779239 5.74534285,3.70904819 C5.55678409,3.8700844 5.36315635,4.02508175 5.16094611,4.1716064 L5.10725513,4.20959893 L5.30118829,4.24884059 C5.72488965,4.34140925 6.14510152,4.4539962 6.55960049,4.5879216 L6.62938391,4.61249978 C6.65584896,4.32957651 6.66288228,4.04367144 6.65228781,3.75690156 C6.64291843,3.49885324 6.61869793,3.24045519 6.58347058,2.98161524 L6.5421976,2.97679093 L6.50911306,2.97188428 Z M4.35229794,2.60083775 L4.45193879,2.76891189 C4.48845727,2.83736244 4.52283403,2.90688657 4.55583426,2.97695562 C4.60403532,3.08259904 4.64925356,3.18976131 4.68920152,3.29893654 L4.71853573,3.38106501 C4.72872859,3.41080181 4.73789667,3.43431676 4.74768694,3.46427315 C4.7664257,3.5215508 4.783243,3.57787688 4.79757156,3.63581331 C4.83420337,3.78205044 4.85700319,3.93229736 4.86461812,4.08317183 L4.96863594,3.95955099 C5.13627829,3.77069944 5.31737083,3.59570066 5.50797914,3.43193781 C5.69880705,3.26839456 5.89951673,3.11643494 6.11151724,2.97951756 L6.19011306,2.92988428 L6.1301645,2.92204548 C5.99292688,2.9026914 5.8557899,2.8823377 5.71873528,2.86130235 C5.26133236,2.78908405 4.80474577,2.70654691 4.35229794,2.60083775 Z M3.33662769,2.30901168 L3.3983682,2.3490974 L3.42235894,2.36681139 L3.44303745,2.38260391 L3.48267432,2.41376808 C3.53361152,2.45470441 3.58345863,2.49697895 3.6321635,2.5405475 C3.82558994,2.71232555 3.99928946,2.9013967 4.15851401,3.10296646 C4.25567229,3.22510385 4.34556447,3.35314877 4.428589,3.48579489 L4.42354667,3.46414506 L4.40572289,3.38192509 L4.33404348,3.05137997 C4.30099916,2.89297355 4.26634341,2.73465096 4.23567178,2.57261094 C4.18551833,2.56085752 4.13490191,2.54823831 4.08434585,2.53529552 C3.94951463,2.50021525 3.81515919,2.46299392 3.68153574,2.42266167 C3.56581208,2.38771157 3.45054148,2.3506884 3.33662769,2.30901168 Z M6.44487594,1.9040612 C6.25933418,2.0449657 5.90814989,2.32029622 5.74332167,2.44981071 C5.75117777,2.45009127 5.75918505,2.45073358 5.76719254,2.4513737 C6.03989272,2.47388217 6.31312359,2.49181574 6.58639106,2.50962122 L6.78440716,2.52272807 C6.65408392,2.35618924 6.54126986,2.1391146 6.44487594,1.9040612 Z M3.72383426,1.21548716 L3.68648494,1.23859521 L4.79129694,2.3590245 C4.92140202,2.37370713 5.0516891,2.38727548 5.18210712,2.39994219 C5.34795112,2.35793724 6.10367467,1.93987035 6.39627641,1.77602413 C6.38564129,1.7522919 6.37654573,1.72757062 6.3676188,1.70275676 L6.25035124,1.69348526 C5.66446277,1.64380514 4.06887647,1.48591164 3.72383426,1.21548716 Z M3.59749428,1.29494889 C3.03368066,1.66218839 2.97631108,1.90701179 3.00071065,2.029423 L2.94510617,2.01148865 C3.07194049,2.05657879 3.20269091,2.09286683 3.3346674,2.12436039 C3.59894978,2.18667043 3.86718487,2.23558518 4.13723161,2.27456326 L4.357,2.303 L3.59749428,1.29494889 Z M5.98788535,0.159663742 C5.33150216,0.372546697 4.45434778,0.819994209 4.09691537,1.00834703 L3.97770864,1.07176749 C3.95001888,1.0866605 3.93509457,1.09482663 3.93509457,1.09482663 L3.918,1.104 L4.0485118,1.13013521 C4.58324541,1.23420654 5.86497195,1.48053246 6.31493291,1.53926333 C6.08782786,0.855271351 5.98788535,0.159663742 5.98788535,0.159663742 Z" id="形状结合"></path>
            </g>
        </g>
    </g>
</svg>