<?xml version="1.0" encoding="UTF-8"?>
<svg width="20px" height="20px" viewBox="0 0 20 20" version="1.1" xmlns="http://www.w3.org/2000/svg" xmlns:xlink="http://www.w3.org/1999/xlink">
    <title>my-follow-up-second-menu</title>
    <g id="my-follow-up-second-menu" stroke="none" stroke-width="1" fill="none" fill-rule="evenodd">
        <g id="notification-group" transform="translate(10.000000, 10.000000) scale(-1, 1) translate(-10.000000, -10.000000) ">
            <rect id="矩形" x="0" y="0" width="20" height="20"></rect>
            <path d="M12.17057,10.4696994 C15.3987556,10.478393 18.0086696,13.102402 17.999976,16.3305876 L17.999976,16.8316173 C17.9994593,17.2925877 17.6266658,17.6661489 17.1666426,17.6666667 L9.39903718,17.6669837 C10.3837387,16.7538053 11,15.4488704 11,14 C11,12.6578779 10.471202,11.4392632 9.61058742,10.5411374 C9.90847033,10.4941241 10.2151544,10.4696834 10.5275469,10.4696834 Z M15.3333093,6 C15.3333093,8.20916667 13.542476,10 11.3333093,10 C9.12414263,10 7.3333093,8.20916666 7.3333093,6 C7.3333093,3.79083334 9.12414264,2 11.3333093,2 C13.542476,2 15.3333093,3.79083333 15.3333093,6 Z" id="形状结合" fill="#57689C" opacity="0.55"></path>
            <path d="M6,10 C8.209139,10 10,11.790861 10,14 C10,16.209139 8.209139,18 6,18 C3.790861,18 2,16.209139 2,14 C2,11.790861 3.790861,10 6,10 Z M6.08851314,11.7725631 C5.98946241,11.7236786 5.86953724,11.7643464 5.82065278,11.8633972 L5.31180255,12.8944403 C5.28267015,12.953469 5.22635703,12.9943829 5.16121499,13.0038486 L4.02339128,13.1691841 C3.97986387,13.175509 3.93963539,13.1960064 3.90893367,13.2275031 C3.83183343,13.3065999 3.83345189,13.4332225 3.9125486,13.5103228 L4.73588558,14.3128779 C4.7830228,14.3588254 4.80453249,14.4250254 4.7934049,14.4899042 L4.59904141,15.6231304 C4.59160604,15.6664819 4.59866898,15.7110755 4.61913679,15.7500076 C4.67053695,15.8477765 4.79146239,15.8853658 4.88923131,15.8339657 L5.90693177,15.2989289 C5.96519658,15.2682972 6.03480342,15.2682972 6.09306823,15.2989289 L7.11076869,15.8339657 C7.14970079,15.8544335 7.19429441,15.8614964 7.23764593,15.854061 C7.34651322,15.8353888 7.41963079,15.7319977 7.40095859,15.6231304 L7.2065951,14.4899042 C7.19546751,14.4250254 7.2169772,14.3588254 7.26411442,14.3128779 L8.0874514,13.5103228 C8.11894812,13.479621 8.13944556,13.4393925 8.14577046,13.3958651 C8.16165399,13.2865562 8.08591769,13.1850676 7.97660872,13.1691841 L6.83878501,13.0038486 C6.77364297,12.9943829 6.71732985,12.953469 6.68819745,12.8944403 L6.17934722,11.8633972 C6.15988117,11.8239546 6.12795567,11.7920291 6.08851314,11.7725631 Z" id="形状结合" fill="#57689C"></path>
        </g>
    </g>
</svg>