<?xml version="1.0" encoding="UTF-8"?>
<svg width="20px" height="20px" viewBox="0 0 20 20" version="1.1" xmlns="http://www.w3.org/2000/svg" xmlns:xlink="http://www.w3.org/1999/xlink">
    <title>mysql-second-menu</title>
    <defs>
        <linearGradient x1="-3.35277807%" y1="50.0024078%" x2="103.379328%" y2="50.0024078%" id="linearGradient-1">
            <stop stop-color="#0471EA" offset="0.4092262%"></stop>
            <stop stop-color="#2AC6CC" offset="76.74%"></stop>
        </linearGradient>
    </defs>
    <g id="mysql-second-menu" stroke="none" stroke-width="1" fill="none" fill-rule="evenodd">
        <g id="Mysql">
            <g id="编组" stroke-linejoin="round">
                <g id="SVGID_1_-link">
                    <rect id="矩形" x="0" y="0" width="20" height="20"></rect>
                    <path d="M14.2665214,4.07863164 C12.9770668,2.85598816 11.0729499,2.11438474 9.92045814,2.20792031 C9.15547083,2.27139087 8.14662293,2.72904703 7.63551787,3.4973749 C7.03755836,3.66774325 5.91513156,3.8614955 5.62784375,4.5362878 C5.39734539,5.08079842 6.61998887,5.34804289 6.95070391,5.46496235 C7.2847595,5.58188181 8.47065686,5.9994513 8.70449578,6.08630576 C8.93833469,6.17316021 8.66774966,6.35355023 8.91161024,7.23879756 C9.15547083,8.12404488 10.0206748,9.05605999 10.4449254,8.97254609 C10.7021482,8.88569164 10.778981,7.42252813 10.778981,7.23211644 C10.778981,7.04170476 10.7890027,7.06174809 10.959371,7.17532699 C11.1297394,7.2889059 13.554983,9.3967967 14.0660881,11.5347525 C14.390122,12.8910182 14.2364564,14.2673273 13.8589736,15.4298407 C13.4480852,16.6959114 12.7599307,17.6646727 12.7432279,17.7281432 C12.7131629,17.8484032 14.4068248,16.4219858 15.4557593,14.9755251 C16.955669,12.9110615 17.5603096,10.0315023 16.0837839,6.31346356 C16.0704216,6.28339856 16.0704216,6.25667411 16.0737622,6.23663077 C16.1706383,5.82574239 17.5235635,5.80903961 17.9478141,5.55181681 C18.3754052,5.294594 16.0804433,4.01182052 14.5304253,4.06860997 C14.3734192,4.09867497 14.2865648,4.10201553 14.2665214,4.07863164 Z" id="SVGID_1_" fill="#57689C"></path>
                </g>
            </g>
            <path d="M12.1218845,13.2885444 L12.1218845,15.7839397 C12.1218845,16.9163881 9.85698758,17.8383816 7.06094225,17.8383816 C4.26489693,17.8383816 2,16.9197287 2,15.7839397 L2,13.2885444 L2.00658253,13.394367 C2.14207476,14.4808521 4.35227335,15.3429863 7.06094225,15.3429863 C9.85698758,15.3429863 12.1218845,14.4209928 12.1218845,13.2885444 Z M2,10.3319584 L2.00658253,10.4377811 C2.14207476,11.5242661 4.35227335,12.3864003 7.06094225,12.3864003 C9.76961116,12.3864003 11.9798097,11.5211311 12.115302,10.4374872 L12.118,10.3849584 L12.1218845,12.7972887 C12.1218845,13.9297372 9.85698758,14.8517306 7.06094225,14.8517306 C4.26489693,14.8517306 2,13.9330777 2,12.7972887 L2,10.3319584 Z M5.44077262,7.86152501 C5.44411318,7.86152501 6.44627996,10.5306292 12.1218845,9.72555522 L12.1218845,9.84581524 C12.1218845,10.9782637 9.85698758,11.9002571 7.06094225,11.9002571 C4.26489693,11.9002571 2,10.9816043 2,9.84581524 C2,8.94052458 3.59344518,8.08868281 5.44077262,7.86152501 Z" id="形状结合" fill="#57689C" fill-rule="nonzero" opacity="0.55"></path>
        </g>
    </g>
</svg>