<?xml version="1.0" encoding="UTF-8"?>
<svg width="20px" height="20px" viewBox="0 0 20 20" version="1.1" xmlns="http://www.w3.org/2000/svg" xmlns:xlink="http://www.w3.org/1999/xlink">
    <title>namespaces-second-menu</title>
    <g id="namespaces-second-menu" stroke="none" stroke-width="1" fill="none" fill-rule="evenodd">
        <rect id="矩形" fill="#000000" opacity="0" x="0" y="0" width="20" height="20"></rect>
        <path d="M10,2 L16.9282032,6 L16.9282032,14 L10,18 L3.07179677,14 L3.07179677,6 L10,2 Z M8.74672,5.92814667 L5.53138667,5.92814667 L5.53138667,6.75974667 L6.59725333,6.75974667 L6.59725333,13.23988 L5.53138667,13.23988 L5.53138667,14.07148 L8.74672,14.07148 L8.74672,13.23988 L7.67992,13.23988 L7.67992,6.75974667 L8.74672,6.75974667 L8.74672,5.92814667 Z M11.5148,12.5125333 L10.2081333,12.5125333 L10.2081333,14.0712 L11.5148,14.0712 L11.5148,12.5125333 Z M14.4688,12.5125333 L13.1621333,12.5125333 L13.1621333,14.0712 L14.4688,14.0712 L14.4688,12.5125333 Z" id="形状" fill="#57689C" opacity="0.55"></path>
    </g>
</svg>