<?xml version="1.0" encoding="UTF-8"?>
<svg width="20px" height="20px" viewBox="0 0 20 20" version="1.1" xmlns="http://www.w3.org/2000/svg" xmlns:xlink="http://www.w3.org/1999/xlink">
    <title>nat-gateway-second-menu</title>
    <g id="nat-gateway-second-menu" stroke="none" stroke-width="1" fill="none" fill-rule="evenodd">
        <rect id="矩形" fill="#D8D8D8" opacity="0" x="0" y="0" width="20" height="20"></rect>
        <g id="nat-NAT网关" transform="translate(1.000000, 2.541310)">
            <rect id="矩形" fill="#D8D8D8" opacity="0" x="1" y="0.458690168" width="16" height="16"></rect>
            <path d="M9.486,9.95869017 L9.486,11.9586902 L8,11.9586902 L8,9.95869017 L9.486,9.95869017 Z M17,4.95869017 C17.5522847,4.95869017 18,5.40640542 18,5.95869017 L18,10.9586902 C18,11.5109749 17.5522847,11.9586902 17,11.9586902 L13.524,11.9586902 L14.993,9.95869017 L16,9.95869017 L16,6.95869017 L2,6.95869017 L2,9.95869017 L4,9.95869017 L4,11.9586902 L1,11.9586902 C0.44771525,11.9586902 0,11.5109749 0,10.9586902 L0,5.95869017 C0,5.40640542 0.44771525,4.95869017 1,4.95869017 L17,4.95869017 Z" id="形状结合" fill="#57689C" fill-rule="nonzero" opacity="0.550000012"></path>
            <path d="M7,0.0289318255 L7,14.4586902 L5,14.4586902 L5,3.50659332 L3.35058101,3.50659332 L7,0.0289318255 Z M10.6771266,14.7224389 L10.7124118,0 L12.7124118,0 L12.6753128,9.94590724 L14.3141439,9.94590724 L10.6771266,14.7224389 Z" id="形状结合" fill="#57689C" fill-rule="nonzero"></path>
        </g>
    </g>
</svg>