<?xml version="1.0" encoding="UTF-8"?>
<svg width="20px" height="20px" viewBox="0 0 20 20" version="1.1" xmlns="http://www.w3.org/2000/svg" xmlns:xlink="http://www.w3.org/1999/xlink">
    <title>network-second menu-pressed</title>
    <g id="network-second-menu-pressed" stroke="none" stroke-width="1" fill="none" fill-rule="evenodd">
        <g id="图形">
            <rect id="安全区" fill="#D8D8D8" opacity="0" x="0" y="0" width="20" height="20"></rect>
            <g id="形状" transform="translate(4.154834, 3.277039)">
                <path d="M5.87819933,3.9131087 L5.85519965,3.9131087 C4.97977408,3.92460853 4.26965877,4.6462237 4.26822129,5.52164926 C4.26822129,5.95576834 4.43928145,6.34963797 4.71671518,6.63857152 C4.82165125,6.74782003 4.8690881,6.90019295 4.84033849,7.04825345 L4.25384649,10.0655248 L4.0770364,10.9783248 L3.45604487,14.1752812 C3.40142062,14.4599023 3.61848015,14.7229613 3.90741371,14.7229613 L7.85185991,14.7229613 C8.14079348,14.7229613 8.3592905,14.4584649 8.30322876,14.1752812 L7.68223723,10.9783248 L7.50255218,10.0655248 L6.91606018,7.04825345 C6.88731056,6.90019297 6.93330994,6.74782005 7.038246,6.63857152 C7.3171172,6.34963796 7.48817736,5.95576834 7.48817738,5.52308674 C7.48817738,4.63328638 6.7679997,3.9131087 5.87819933,3.9131087 L5.87819933,3.9131087 Z" id="路径" fill="#FFFFFF" fill-rule="nonzero"></path>
                <path d="M3.35294792,7.97460802 C2.72553395,7.34095066 2.33806626,6.46927399 2.33806626,5.5070994 C2.33806626,3.57018188 3.90824815,2 5.84516566,2 C7.78208317,2 9.35226506,3.57018188 9.35226506,5.5070994 C9.35226506,6.48219143 8.95432383,7.36433931 8.31198444,8" id="路径" stroke="#FFFFFF" stroke-width="1.4" opacity="0.550000012" stroke-linecap="round"></path>
                <path d="M1.69146943,9.95768004 C0.645779469,8.90158444 0,7.44878999 0,5.84516566 C0,2.61696981 2.61696981,0 5.84516566,0 C9.07336151,0 11.6903313,2.61696981 11.6903313,5.84516566 C11.6903313,7.47031905 11.027096,8.94056552 9.95653029,10" id="路径备份-2" stroke="#FFFFFF" stroke-width="1.4" opacity="0.550000012" stroke-linecap="round"></path>
            </g>
        </g>
    </g>
</svg>