<?xml version="1.0" encoding="UTF-8"?>
<svg width="20px" height="20px" viewBox="0 0 20 20" version="1.1" xmlns="http://www.w3.org/2000/svg" xmlns:xlink="http://www.w3.org/1999/xlink">
    <title>network-second-menu</title>
    <g id="network-second-menu" stroke="none" stroke-width="1" fill="none" fill-rule="evenodd">
        <g id="图形">
            <rect id="安全区" fill="#D8D8D8" opacity="0" x="0" y="0" width="20" height="20"></rect>
            <g id="形状" transform="translate(3.404834, 2.527039)" fill="#57689C" fill-rule="nonzero">
                <path d="M6.62819933,4.6631087 L6.60519965,4.6631087 C5.72977408,4.67460853 5.01965877,5.3962237 5.01822129,6.27164926 C5.01822129,6.70576834 5.18928145,7.09963797 5.46671518,7.38857152 C5.57165125,7.49782003 5.6190881,7.65019295 5.59033849,7.79825345 L5.00384649,10.8155248 L4.8270364,11.7283248 L4.20604487,14.9252812 C4.15142062,15.2099023 4.36848015,15.4729613 4.65741371,15.4729613 L8.60185991,15.4729613 C8.89079348,15.4729613 9.1092905,15.2084649 9.05322876,14.9252812 L8.43223723,11.7283248 L8.25255218,10.8155248 L7.66606018,7.79825345 C7.63731056,7.65019297 7.68330994,7.49782005 7.788246,7.38857152 C8.0671172,7.09963796 8.23817736,6.70576834 8.23817738,6.27308674 C8.23817738,5.38328638 7.5179997,4.6631087 6.62819933,4.6631087 L6.62819933,4.6631087 Z" id="路径"></path>
                <path d="M6.59516566,0 C10.2375751,0 13.1903313,2.95275624 13.1903313,6.59516566 C13.1903313,8.3795787 12.4773249,10.0527777 11.2340817,11.2830943 C10.9396619,11.5744529 10.4647946,11.5719713 10.173436,11.2775514 C9.88207742,10.9831316 9.88455903,10.5082643 10.1789789,10.2169057 C11.1403531,9.26552733 11.6903313,7.97490375 11.6903313,6.59516566 C11.6903313,3.78118337 9.40914795,1.5 6.59516566,1.5 C3.78118337,1.5 1.5,3.78118337 1.5,6.59516566 C1.5,7.95669315 2.03544785,9.23166761 2.97441857,10.179982 C3.26585815,10.4743217 3.26350715,10.9491896 2.96916746,11.2406292 C2.67482778,11.5320688 2.19995986,11.5297178 1.90852029,11.2353781 C0.694197763,10.0089718 0,8.35599217 0,6.59516566 C0,2.95275624 2.95275624,0 6.59516566,0 Z M6.59516566,2.05 C8.9186825,2.05 10.8022651,3.93358256 10.8022651,6.2570994 C10.8022651,7.39519304 10.3472898,8.46287502 9.55436577,9.24755465 C9.27957392,9.51948935 8.83636449,9.51717317 8.56442979,9.24238133 C8.29249509,8.96758949 8.29481126,8.52438005 8.56960311,8.25244535 C9.09944953,7.728108 9.40226506,7.01749643 9.40226506,6.2570994 C9.40226506,4.70678121 8.14548385,3.45 6.59516566,3.45 C5.04484747,3.45 3.78806626,4.70678121 3.78806626,6.2570994 C3.78806626,7.00746605 4.08287666,7.70944986 4.60036712,8.23208986 C4.87237739,8.5068069 4.87018312,8.95001695 4.59546609,9.22202722 C4.32074905,9.49403749 3.87753899,9.49184322 3.60552872,9.21712619 C2.83104324,8.43493382 2.38806626,7.38014514 2.38806626,6.2570994 C2.38806626,3.93358256 4.27164882,2.05 6.59516566,2.05 Z" id="形状结合" opacity="0.550000012"></path>
            </g>
        </g>
    </g>
</svg>