<?xml version="1.0" encoding="UTF-8"?>
<svg width="20px" height="20px" viewBox="0 0 20 20" version="1.1" xmlns="http://www.w3.org/2000/svg" xmlns:xlink="http://www.w3.org/1999/xlink">
    <title>Network operation and maintenance 2</title>
    <g id="Network-operation-and-maintenance" stroke="none" stroke-width="1" fill="none" fill-rule="evenodd">
        <rect id="矩形" fill="#000000" opacity="0" x="0" y="0" width="20" height="20"></rect>
        <g id="编组" transform="translate(2.000000, 2.084729)" fill="#FFFFFF" opacity="0.55">
            <path d="M12.041411,0.29962425 L15.5127755,3.97626348 C15.8768328,4.28998201 16.1581893,5 15.5127755,5 L0.487224493,5 C-0.158189279,5 0.123167187,4.28998201 0.487224493,3.97626348 L3.95858896,0.29962425 C4.08288755,0.134146346 4.30388997,0 4.4545144,0 L11.5454856,0 C11.69611,0 11.9171125,0.134146346 12.041411,0.29962425 Z" id="路径"></path>
            <path d="M14.9,3.91527067 C15.5075132,3.91527067 16,4.40775745 16,5.01527067 L16,14.4152707 C16,15.2436978 15.4883254,15.9152707 14.8571429,15.9152707 L1.14285714,15.9152707 C0.511674572,15.9152707 0,15.2436978 0,14.4152707 L0,5.01527067 C-7.43989126e-17,4.40775745 0.492486775,3.91527067 1.1,3.91527067 L14.9,3.91527067 Z M11.7333031,10.3160025 L2.45713672,10.3160025 L2.45713672,11.5160025 L11.7333031,11.5160025 L11.7333031,10.3160025 Z M9.14283464,6.31527067 L2.45713672,6.31527067 L2.45713672,7.51527067 L9.14283464,7.51527067 L9.14283464,6.31527067 Z" id="形状结合"></path>
        </g>
        <g id="编组-2" transform="translate(4.457137, 8.400000)"></g>
        <path d="M10.5107507,11.1991944 C10.8019176,11.3609906 11.1227458,11.5000753 11.4655243,11.6147758 C11.2900857,12.2809528 11.1899225,13.0154929 11.1736026,13.7781471 L9,13.7781471 C9.04313885,12.7306171 9.40387249,11.7224356 10.0325785,10.8922875 C10.1852027,11.00514 10.344937,11.1076629 10.5107507,11.1991944 L10.5107507,11.1991944 Z M13.7824051,14.2217179 L11.6089351,14.2217179 C11.6249184,14.9420555 11.7188902,15.6346946 11.8828437,16.2602069 C12.4728682,16.1035328 13.1162179,16.0136321 13.7824051,15.9975595 L13.7824051,14.2217179 Z M10.5107507,16.8009511 C10.8019176,16.6391548 11.1227458,16.5000701 11.4655243,16.3853697 C11.2900857,15.7191927 11.1899225,14.9846526 11.1736026,14.221988 L9,14.221988 C9.04308046,15.2696184 9.40381718,16.2779102 10.0325785,17.1081384 C10.1851948,16.9951898 10.3449293,16.8925732 10.5107507,16.8009511 L10.5107507,16.8009511 Z M14.2176051,9.14469505 L14.2176051,11.5592229 C14.8414321,11.5435036 15.4421359,11.4601068 15.9919115,11.3155572 C15.9000708,11.0345952 15.7869186,10.7613336 15.6534782,10.4982436 C15.2537128,9.71743894 14.7504488,9.24588912 14.2176051,9.14469505 Z M13.7824051,13.7784276 L13.7824051,12.0025756 C13.1160139,11.9865133 12.4728682,11.8966023 11.8828437,11.7399281 C11.7188902,12.3654508 11.6249184,13.05809 11.6089351,13.7784276 L13.7824051,13.7784276 Z M16.1171665,11.7399281 C15.5271318,11.8966023 14.8839963,11.9865133 14.2176051,12.0025756 L14.2176051,13.7784276 L16.3910649,13.7784276 C16.3750918,13.05809 16.2811098,12.3654508 16.1171665,11.7399281 Z M13.7824051,18.8554504 L13.7824051,16.4409225 C13.1585781,16.4566419 12.5578743,16.5400387 12.0080987,16.6845883 C12.0999231,16.9656673 12.2130755,17.2390441 12.346532,17.5022447 C12.7462974,18.2827065 13.2495614,18.7542563 13.7824051,18.8554504 Z M12.346532,10.4979008 C12.2130755,10.7611013 12.0999231,11.0344782 12.0080987,11.3155572 C12.5578743,11.4601068 13.1585781,11.5435036 13.7824051,11.5592229 L13.7824051,9.14469505 C13.2495614,9.24588912 12.7462974,9.71743894 12.346532,10.4979008 L12.346532,10.4979008 Z M17.4892595,11.1991944 C17.1980824,11.3609906 16.8772644,11.5000753 16.5344757,11.6147758 C16.7099143,12.2809528 16.8100775,13.0154929 16.8263974,13.7781471 L19,13.7781471 C18.9569204,12.7305214 18.5961874,11.7222336 17.9674317,10.892007 C17.8148154,11.0049557 17.6550809,11.1075723 17.4892595,11.1991944 L17.4892595,11.1991944 Z M10.7191656,10.8100648 C10.9843635,10.9575338 11.2771012,11.0847641 11.5905753,11.1906023 C11.6955732,10.8699085 11.8193288,10.5689652 11.9606997,10.2928737 C12.2143411,9.79764615 12.5123827,9.40664639 12.8465932,9.1308458 C12.903808,9.08351108 12.9616993,9.03989581 13.0202672,9 C11.9585883,9.21472052 11.0178907,9.77125673 10.3134129,10.552477 C10.4434331,10.6466067 10.5789322,10.7326268 10.7191656,10.8100648 L10.7191656,10.8100648 Z M12.8465932,18.8692997 C12.5123827,18.5933536 12.2141983,18.2023642 11.9606997,17.7071263 C11.8193288,17.4311075 11.6955018,17.1300915 11.5905753,16.8093977 C11.2771012,16.9152359 10.9845675,17.0424766 10.7191656,17.1899352 C10.5789322,17.2673732 10.4434331,17.3533933 10.3134129,17.447523 C11.0178907,18.2287537 11.9585883,18.7853522 13.0202672,19 C12.9616993,18.9601942 12.903808,18.9166274 12.8465932,18.8692997 L12.8465932,18.8692997 Z M17.2808446,17.1899352 C17.0156467,17.0424766 16.7232456,16.9152359 16.4094247,16.8093977 C16.304437,17.1300915 16.1806814,17.4311075 16.0393105,17.7071263 C15.7856691,18.2023642 15.4876275,18.5936965 15.1534068,18.8692997 C15.0961512,18.9165374 15.0382633,18.9601042 14.979743,19 C16.0414117,18.7852795 16.9821195,18.2287537 17.6865973,17.447523 C17.5565737,17.3534395 17.4210746,17.2674645 17.2808446,17.1900703 L17.2808446,17.1899352 Z M15.6534782,17.5021096 C15.7869347,17.2389091 15.9000871,16.9655322 15.9919115,16.6844532 C15.4421359,16.5398932 14.8414321,16.4565068 14.2176051,16.4407771 L14.2176051,18.8554504 C14.7504488,18.7542563 15.2537128,18.2827065 15.6534782,17.5022447 L15.6534782,17.5021096 Z M14.2176051,14.2217179 L14.2176051,15.9975595 C14.8839963,16.0136321 15.5271318,16.1035328 16.1171665,16.2602069 C16.2811098,15.6344141 16.3750918,14.9423983 16.3910649,14.2217179 L14.2176051,14.2217179 Z M15.1534068,9.1308458 C15.4876275,9.40679185 15.7858017,9.79778121 16.0393105,10.2930192 C16.1806814,10.5691003 16.3045084,10.8700539 16.4094247,11.1907373 C16.722909,11.0849095 17.0154427,10.9576689 17.2808446,10.8102102 C17.4210783,10.7327689 17.5565774,10.6467453 17.6865973,10.5526121 C16.9821195,9.77125673 16.0414117,9.21464779 14.979743,9 C15.0383109,9.03989581 15.0961988,9.08351108 15.1534068,9.1308458 Z M17.9674317,17.107993 C18.5962131,16.2777292 18.9569475,15.2693902 19,14.2217179 L16.8263974,14.2217179 C16.8100775,14.9843721 16.7099143,15.7189122 16.5344757,16.3850891 C16.8775398,16.5000701 17.1980824,16.6391548 17.4892595,16.8006705 C17.6550809,16.8922926 17.8148154,16.9949093 17.9674317,17.1078579 L17.9674317,17.107993 Z" id="形状" fill="#FFFFFF"></path>
    </g>
</svg>