<?xml version="1.0" encoding="UTF-8"?>
<svg width="20px" height="20px" viewBox="0 0 20 20" version="1.1" xmlns="http://www.w3.org/2000/svg" xmlns:xlink="http://www.w3.org/1999/xlink">
    <title>next-artifact-second-menu</title>
    <g id="next-artifact-second-menu" stroke="none" stroke-width="1" fill="none" fill-rule="evenodd">
        <g id="持续交付-制品管理">
            <rect id="矩形" x="0" y="0" width="20" height="20"></rect>
            <path d="M10.507942,2.1386341 L17.067899,6.00732669 C17.3727921,6.18713544 17.559914,6.51472792 17.559914,6.86869259 L17.559914,16.9281925 C17.559914,17.4804772 17.1121988,17.9281925 16.559914,17.9281925 L3.44,17.9281925 C2.88771525,17.9281925 2.44,17.4804772 2.44,16.9281925 L2.44,6.86869259 C2.44,6.51472792 2.62712188,6.18713544 2.93201498,6.00732669 L9.49197198,2.1386341 C9.80540559,1.95378863 10.1945084,1.95378863 10.507942,2.1386341 Z M15.0214635,14.4389815 L11.5691823,14.4389815 C11.2378114,14.4389815 10.9691823,14.7076107 10.9691823,15.0389815 C10.9691823,15.3703524 11.2378114,15.6389815 11.5691823,15.6389815 L15.0214635,15.6389815 C15.3528343,15.6389815 15.6214635,15.3703524 15.6214635,15.0389815 C15.6214635,14.7076107 15.3528343,14.4389815 15.0214635,14.4389815 Z M8.43073175,14.4389815 L4.97845051,14.4389815 C4.64707966,14.4389815 4.37845051,14.7076107 4.37845051,15.0389815 C4.37845051,15.3703524 4.64707966,15.6389815 4.97845051,15.6389815 L8.43073175,15.6389815 C8.7621026,15.6389815 9.03073175,15.3703524 9.03073175,15.0389815 C9.03073175,14.7076107 8.7621026,14.4389815 8.43073175,14.4389815 Z M15.0214635,11.7251508 L11.5691823,11.7251508 C11.2378114,11.7251508 10.9691823,11.99378 10.9691823,12.3251508 C10.9691823,12.6565217 11.2378114,12.9251508 11.5691823,12.9251508 L15.0214635,12.9251508 C15.3528343,12.9251508 15.6214635,12.6565217 15.6214635,12.3251508 C15.6214635,11.99378 15.3528343,11.7251508 15.0214635,11.7251508 Z M8.43073175,11.7251508 L4.97845051,11.7251508 C4.64707966,11.7251508 4.37845051,11.99378 4.37845051,12.3251508 C4.37845051,12.6565217 4.64707966,12.9251508 4.97845051,12.9251508 L8.43073175,12.9251508 C8.7621026,12.9251508 9.03073175,12.6565217 9.03073175,12.3251508 C9.03073175,11.99378 8.7621026,11.7251508 8.43073175,11.7251508 Z M15.0214635,9.01132009 L11.5691823,9.01132009 C11.2378114,9.01132009 10.9691823,9.27994924 10.9691823,9.61132009 C10.9691823,9.94269094 11.2378114,10.2113201 11.5691823,10.2113201 L15.0214635,10.2113201 C15.3528343,10.2113201 15.6214635,9.94269094 15.6214635,9.61132009 C15.6214635,9.27994924 15.3528343,9.01132009 15.0214635,9.01132009 Z" id="形状结合" fill="#57689C"></path>
        </g>
    </g>
</svg>