<?xml version="1.0" encoding="UTF-8"?>
<svg width="20px" height="20px" viewBox="0 0 20 20" version="1.1" xmlns="http://www.w3.org/2000/svg" xmlns:xlink="http://www.w3.org/1999/xlink">
    <title>node-auto-discovery-second-menu</title>
    <g id="node-auto-discovery-second-menu" stroke="none" stroke-width="1" fill="none" fill-rule="evenodd">
        <g id="数据大屏">
            <rect id="矩形" fill="#D8D8D8" opacity="0" x="0" y="0" width="20" height="20"></rect>
            <path d="M10,3.45 C14.4458922,3.45 18.05,7.05410776 18.05,11.5 C18.05,12.8247138 17.7288719,14.105496 17.1232533,15.2529274 C17.0095718,15.4683133 16.8861735,15.6783732 16.7534873,15.8824812 C16.4374222,16.3686763 15.7870618,16.506594 15.3008667,16.1905289 C14.8146715,15.8744638 14.6767539,15.2241034 14.992819,14.7379083 C15.0908991,14.5870341 15.1820856,14.4318079 15.2660652,14.2726965 C15.7131643,13.4256031 15.95,12.4810115 15.95,11.5 C15.95,8.21390574 13.2860943,5.55 10,5.55 C6.71390574,5.55 4.05,8.21390574 4.05,11.5 C4.05,12.4625985 4.27800837,13.3901915 4.70917289,14.2252644 C4.79837325,14.3980263 4.89602924,14.5663133 5.00174878,14.7295367 C5.31699912,15.2162605 5.17799242,15.866389 4.69126862,16.1816393 C4.20454482,16.4968897 3.55441632,16.357883 3.23916598,15.8711592 C3.09613801,15.6503343 2.96397521,15.4225829 2.84321448,15.1886953 C2.25914666,14.0574817 1.95,12.7997985 1.95,11.5 C1.95,7.05410776 5.55410776,3.45 10,3.45 Z" id="路径" fill="#57689C" fill-rule="nonzero" opacity="0.550000012"></path>
            <path d="M11.8463771,11.96159 L10.2676571,8.26254 C10.1751657,8.04582 9.82483429,8.04582 9.73234286,8.26254 L8.15362286,11.96159 C8.05465143,12.16898 8,12.3966 8,12.63539 C8,13.6019 8.89542857,14.3854 10,14.3854 C11.1045714,14.3854 12,13.6019 12,12.63539 C12,12.3966 11.9453371,12.16898 11.8463771,11.96159 Z" id="路径" fill="#57689C"></path>
        </g>
    </g>
</svg>