<?xml version="1.0" encoding="UTF-8"?>
<svg width="20px" height="20px" viewBox="0 0 20 20" version="1.1" xmlns="http://www.w3.org/2000/svg" xmlns:xlink="http://www.w3.org/1999/xlink">
    <title>node-second-menu</title>
    <g id="node-second-menu" stroke="none" stroke-width="1" fill="none" fill-rule="evenodd">
        <g id="node">
            <g id="图形">
                <rect id="矩形" x="0" y="0" width="20" height="20"></rect>
                <path d="M13.529463,12.8823529 C13.8056054,12.8823529 14.029463,13.1062106 14.029463,13.3823529 L14.029463,16.5 C14.029463,16.7761424 13.8056054,17 13.529463,17 L3.00005123,17 C2.72390885,17 2.50005123,16.7761424 2.50005123,16.5 L2.50005123,13.3823529 C2.50005123,13.1062106 2.72390885,12.8823529 3.00005123,12.8823529 L13.529463,12.8823529 Z M5.95887476,13.9529412 C5.41308747,13.9529412 4.97063946,14.3953892 4.97063946,14.9411765 C4.97063946,15.4869638 5.41308747,15.9294118 5.95887476,15.9294118 C6.50466204,15.9294118 6.94711005,15.4869638 6.94711005,14.9411765 C6.94711005,14.3953892 6.50466204,13.9529412 5.95887476,13.9529412 Z M13.529463,7.94117647 C13.8056054,7.94117647 14.029463,8.1650341 14.029463,8.44117647 L14.029463,11.5588235 C14.029463,11.8349659 13.8056054,12.0588235 13.529463,12.0588235 L3.00005123,12.0588235 C2.72390885,12.0588235 2.50005123,11.8349659 2.50005123,11.5588235 L2.50005123,8.44117647 C2.50005123,8.1650341 2.72390885,7.94117647 3.00005123,7.94117647 L13.529463,7.94117647 Z M5.95887476,9.01176471 C5.41308747,9.01176471 4.97063946,9.45421272 4.97063946,10 C4.97063946,10.5457873 5.41308747,10.9882353 5.95887476,10.9882353 C6.50466204,10.9882353 6.94711005,10.5457873 6.94711005,10 C6.94711005,9.45421272 6.50466204,9.01176471 5.95887476,9.01176471 Z M13.529463,3 C13.8056054,3 14.029463,3.22385763 14.029463,3.5 L14.029463,6.61764706 C14.029463,6.89378943 13.8056054,7.11764706 13.529463,7.11764706 L3.00005123,7.11764706 C2.72390885,7.11764706 2.50005123,6.89378943 2.50005123,6.61764706 L2.50005123,3.5 C2.50005123,3.22385763 2.72390885,3 3.00005123,3 L13.529463,3 Z M5.95887476,4.07058824 C5.41308747,4.07058824 4.97063946,4.51303625 4.97063946,5.05882353 C4.97063946,5.60461081 5.41308747,6.04705882 5.95887476,6.04705882 C6.50466204,6.04705882 6.94711005,5.60461081 6.94711005,5.05882353 C6.94711005,4.51303625 6.50466204,4.07058824 5.95887476,4.07058824 Z" id="形状" fill="#57689C" fill-rule="nonzero" opacity="0.55"></path>
            </g>
            <g id="云" transform="translate(9.000000, 11.000000)" fill="#57689C">
                <path d="M7.27488384,2.24982578 C7.01229773,0.97496456 5.88729773,0 4.5,0 C3.41208144,0 2.47496395,0.600334016 2.02504806,1.50034844 C0.862425892,1.6497561 0,2.58738976 0,3.75017422 C0,4.98741619 1.01267423,6 2.25,6 L7.12463551,6 C8.17493191,6 9,5.17471945 9,4.12448035 C9,3.14984019 8.21256609,2.32482397 7.27488384,2.24982578" id="路径"></path>
            </g>
        </g>
    </g>
</svg>