<?xml version="1.0" encoding="UTF-8"?>
<svg width="20px" height="20px" viewBox="0 0 20 20" version="1.1" xmlns="http://www.w3.org/2000/svg" xmlns:xlink="http://www.w3.org/1999/xlink">
    <title>node-second menu-pressed</title>
    <g id="node-second-menu-pressed" stroke="none" stroke-width="1" fill="none" fill-rule="evenodd">
        <g id="node">
            <g id="图形">
                <rect id="矩形" x="0" y="0" width="20" height="20"></rect>
                <path d="M14.029463,8.44117647 L14.029463,11.5588235 C14.029463,11.8349659 13.8056054,12.0588235 13.529463,12.0588235 L3.00005123,12.0588235 C2.72390885,12.0588235 2.50005123,11.8349659 2.50005123,11.5588235 L2.50005123,8.44117647 C2.50005123,8.1650341 2.72390885,7.94117647 3.00005123,7.94117647 L13.529463,7.94117647 C13.8056054,7.94117647 14.029463,8.1650341 14.029463,8.44117647 Z M14.029463,13.3823529 L14.029463,16.5 C14.029463,16.7761424 13.8056054,17 13.529463,17 L3.00005123,17 C2.72390885,17 2.50005123,16.7761424 2.50005123,16.5 L2.50005123,13.3823529 C2.50005123,13.1062106 2.72390885,12.8823529 3.00005123,12.8823529 L13.529463,12.8823529 C13.8056054,12.8823529 14.029463,13.1062106 14.029463,13.3823529 Z M3.00005123,3 L13.529463,3 C13.8056054,3 14.029463,3.22385763 14.029463,3.5 L14.029463,6.61764706 C14.029463,6.89378943 13.8056054,7.11764706 13.529463,7.11764706 L3.00005123,7.11764706 C2.72390885,7.11764706 2.50005123,6.89378943 2.50005123,6.61764706 L2.50005123,3.5 C2.50005123,3.22385763 2.72390885,3 3.00005123,3 Z" id="形状" fill="#FFFFFF" fill-rule="nonzero" opacity="0.55"></path>
                <path d="M4.97063946,5.05882353 C4.97063946,5.60461081 5.41308747,6.04705882 5.95887476,6.04705882 C6.50466204,6.04705882 6.94711005,5.60461081 6.94711005,5.05882353 C6.94711005,4.51303625 6.50466204,4.07058824 5.95887476,4.07058824 C5.41308747,4.07058824 4.97063946,4.51303625 4.97063946,5.05882353 Z M4.97063946,10 C4.97063946,10.5457873 5.41308747,10.9882353 5.95887476,10.9882353 C6.50466204,10.9882353 6.94711005,10.5457873 6.94711005,10 C6.94711005,9.45421272 6.50466204,9.01176471 5.95887476,9.01176471 C5.41308747,9.01176471 4.97063946,9.45421272 4.97063946,10 Z M4.97063946,14.9411765 C4.97063946,15.4869638 5.41308747,15.9294118 5.95887476,15.9294118 C6.50466204,15.9294118 6.94711005,15.4869638 6.94711005,14.9411765 C6.94711005,14.3953892 6.50466204,13.9529412 5.95887476,13.9529412 C5.41308747,13.9529412 4.97063946,14.3953892 4.97063946,14.9411765 Z M16.2748838,13.2498258 C16.0122977,11.9749646 14.8872977,11 13.5,11 C12.4120814,11 11.4749639,11.600334 11.0250481,12.5003484 C9.86242589,12.6497561 9,13.5873898 9,14.7501742 C9,15.9874162 10.0126742,17 11.25,17 L16.1246355,17 C17.1749319,17 18,16.1747194 18,15.1244803 C18,14.1498402 17.2125661,13.324824 16.2748838,13.2498258" id="形状结合" fill="#FFFFFF" fill-rule="nonzero"></path>
            </g>
            <g id="云" transform="translate(9.000000, 11.000000)"></g>
        </g>
    </g>
</svg>