<?xml version="1.0" encoding="UTF-8"?>
<svg width="20px" height="20px" viewBox="0 0 20 20" version="1.1" xmlns="http://www.w3.org/2000/svg" xmlns:xlink="http://www.w3.org/1999/xlink">
    <title>notification-block-second-menu</title>
    <g id="notification-block-second-menu" stroke="none" stroke-width="1" fill="none" fill-rule="evenodd">
        <g id="notification-block">
            <g id="通知消息">
                <rect id="矩形" x="0" y="0" width="20" height="20"></rect>
                <path d="M10.1334369,3.65019355 L6.52230943,6.76154093 L3.64135198,6.7492631 C3.47420217,6.74958861 3.31437695,6.8178989 3.19862776,6.93848618 C3.07933885,7.06160908 3.01275313,7.22638931 3.01301581,7.39782158 L3,12.5978451 C2.99917568,12.7694009 3.06494021,12.9345889 3.18346102,13.0586249 C3.29921312,13.1807661 3.46007533,13.2499682 3.62835192,13.2500147 L6.53675394,13.2500147 L10.1305479,16.3498064 C10.3152941,16.5106559 10.5782462,16.5456214 10.7986065,16.4386402 C11.0218651,16.3278876 11.1621431,16.0992344 11.1597803,15.8500264 L11.1597803,4.14997359 C11.1621431,3.90076558 11.0218651,3.67211238 10.7986065,3.56135982 C10.5811351,3.4543786 10.318183,3.48934412 10.1334369,3.65019355 Z" id="路径" fill="#57689C" fill-rule="nonzero" opacity="0.55"></path>
            </g>
            <g id="编组" transform="translate(15.002292, 10.501146) rotate(-45.000000) translate(-15.002292, -10.501146) translate(12.002292, 7.501146)" fill="#57689C" fill-rule="nonzero">
                <polygon id="路径" points="3.6 7.20312698e-13 3.6 2.4 6 2.4 6 3.6 3.6 3.6 3.6 6 2.4 6 2.4 3.6 -1.32649447e-12 3.6 -1.32649447e-12 2.4 2.4 2.4 2.4 7.20312698e-13"></polygon>
            </g>
        </g>
    </g>
</svg>