<?xml version="1.0" encoding="UTF-8"?>
<svg width="20px" height="20px" viewBox="0 0 20 20" version="1.1" xmlns="http://www.w3.org/2000/svg" xmlns:xlink="http://www.w3.org/1999/xlink">
    <title>oceanbase-second-menu</title>
    <g id="oceanbase-second-menu" stroke="none" stroke-width="1" fill="none" fill-rule="evenodd">
        <rect id="矩形" fill-opacity="0" fill="#D8D8D8" x="0" y="0" width="20" height="20"></rect>
        <g id="oceanbase-云数据库-OceanBase-版" transform="translate(2.000000, 2.900000)" fill="#57689C" fill-rule="nonzero">
            <path d="M5.96040792,11.1433713 L5.99880024,11.1433713 L7.73605279,14.1571686 L4.46310738,14.1571686 C4.15596881,14.1571686 3.80083983,13.9460108 3.64727055,13.6868626 L0.115176965,7.56328734 C-0.0383923215,7.30413917 -0.0383923215,6.88182364 0.115176965,6.62267546 L3.64727055,0.49910018 C3.80083983,0.23995201 4.16556689,0.0287942412 4.46310738,0.0287942412 L7.68806239,0.0287942412 L5.96040792,3.01379724 C5.65326935,3.01379724 5.41331734,3.26334733 5.41331734,3.56088782 C5.41331734,3.65686863 5.44211158,3.75284943 5.49010198,3.83923215 L3.9160168,6.54589082 C3.6184763,6.54589082 3.36892621,6.78584283 3.36892621,7.0929814 C3.36892621,7.3905219 3.60887822,7.64007199 3.9160168,7.64007199 L3.9640072,7.64007199 L5.50929814,10.3083383 C5.33653269,10.5578884 5.40371926,10.8938212 5.65326935,11.0665867 C5.73965207,11.1145771 5.84523095,11.1433713 5.96040792,11.1433713 Z M9.95320936,10.0875825 C9.95320936,10.0875825 9.94361128,10.0875825 9.95320936,10.0875825 L8.4175165,7.4385123 C8.4655069,7.38092382 8.50389922,7.30413917 8.52309538,7.22735453 L11.5656869,7.22735453 C11.5656869,7.25614877 11.5752849,7.28494301 11.5944811,7.30413917 L11.3161368,7.78404319 L9.99160168,10.0971806 C9.9820036,10.0875825 9.96280744,10.0971806 9.95320936,10.0875825 L9.95320936,10.0875825 Z M15.884823,6.61307738 C16.0383923,6.87222555 16.0383923,7.29454109 15.884823,7.55368926 L12.3527295,13.6772645 C12.1991602,13.9364127 11.8344331,14.1475705 11.5368926,14.1475705 L8.35992801,14.1475705 L6.53629274,10.980204 L9.62687463,10.980204 C9.72285543,11.0953809 9.87642472,11.1625675 10.029994,11.1625675 C10.3275345,11.1625675 10.5674865,10.9226155 10.5674865,10.6154769 C10.5674865,10.5386923 10.5482903,10.4619076 10.5194961,10.3947211 L12.1127774,7.62087582 C12.4007199,7.60167966 12.6214757,7.36172765 12.6214757,7.07378524 C12.6214757,6.78584283 12.4103179,6.5554889 12.1319736,6.52669466 L10.5290942,3.74325135 C10.6346731,3.46490702 10.5002999,3.14817037 10.2219556,3.04259148 C10.154769,3.01379724 10.0875825,3.00419916 10.0203959,3.00419916 C9.77635667,3.00295127 9.56100145,3.1634888 9.4925015,3.39772046 L6.47870426,3.39772046 C6.46910618,3.34973005 6.44991002,3.30173965 6.42111578,3.26334733 L8.30233953,0 L11.5176965,0 C11.824835,0 12.179964,0.211157768 12.3335333,0.470305939 L15.884823,6.61307738 Z M5.94121176,10.0683863 L4.37672466,7.37132573 L4.4055189,7.31373725 C4.41511698,7.29454109 4.41511698,7.27534493 4.42471506,7.26574685 L4.42471506,7.25614877 C4.43431314,7.23695261 4.43431314,7.22735453 4.43431314,7.20815837 L4.43431314,7.19856029 C4.44391122,7.17936413 4.44391122,7.16016797 4.44391122,7.14097181 L4.44391122,7.13137373 C4.4535093,7.05458908 4.44391122,6.97780444 4.41511698,6.9010198 C4.4055189,6.87222555 4.38632274,6.84343131 4.36712657,6.80503899 L4.36712657,6.79544091 L5.94121176,4.07918416 C6.00839832,4.07918416 6.07558488,4.06958608 6.13317337,4.04079184 L7.64007199,6.64187163 C7.51529694,6.74745051 7.4385123,6.89142172 7.4385123,7.06418716 C7.4385123,7.18896221 7.4865027,7.31373725 7.56328734,7.40971806 L7.56328734,7.41931614 L6.04679064,10.0491902 C6.02759448,10.0779844 5.98920216,10.0683863 5.94121176,10.0683863 L5.94121176,10.0683863 Z M6.40191962,10.3083383 C6.37312537,10.269946 6.34433113,10.2315537 6.30593881,10.1931614 L6.29634073,10.1835633 L7.79364127,7.59208158 C7.82243551,7.60167966 7.85122975,7.61127774 7.88962208,7.62087582 C7.91841632,7.63047391 7.95680864,7.63047391 7.99520096,7.63047391 L8.05278944,7.63047391 C8.10077984,7.62087582 8.14877025,7.61127774 8.19676065,7.59208158 C8.21595681,7.5824835 8.22555489,7.5824835 8.24475105,7.57288542 L9.76124775,10.1643671 C9.65566887,10.2315537 9.57888422,10.3275345 9.53089382,10.4427115 L6.46910618,10.4427115 C6.44991002,10.3947211 6.43071386,10.3467307 6.40191962,10.3083383 L6.40191962,10.3083383 Z M11.3257349,6.20995801 L11.6520696,6.77624475 C11.6136773,6.83383323 11.584883,6.89142172 11.5656869,6.95860828 L8.52309538,6.9490102 C8.49430114,6.83383323 8.42711458,6.72825435 8.33113377,6.65146971 L8.31193761,6.63227355 C8.19676065,6.54589082 8.05278944,6.51709658 7.90881824,6.54589082 L6.37312537,3.89682064 C6.37312537,3.89682064 6.37312537,3.88722256 6.38272346,3.88722256 C6.39232154,3.87762448 6.40191962,3.85842831 6.4115177,3.84883023 C6.44031194,3.80083983 6.46910618,3.74325135 6.47870426,3.68566287 L6.47870426,3.67606479 L9.50209958,3.67606479 C9.55968806,3.92561488 9.78044391,4.09838032 10.0395921,4.09838032 L10.1163767,4.09838032 L11.3257349,6.20995801 L11.3257349,6.20995801 Z" id="形状"></path>
        </g>
    </g>
</svg>