<?xml version="1.0" encoding="UTF-8"?>
<svg width="20px" height="20px" viewBox="0 0 20 20" version="1.1" xmlns="http://www.w3.org/2000/svg" xmlns:xlink="http://www.w3.org/1999/xlink">
    <title>O&amp;M automation tasks 3</title>
    <g id="O&amp;M-automation-tasks" stroke="none" stroke-width="1" fill="none" fill-rule="evenodd">
        <rect id="矩形" fill="#000000" opacity="0" x="0" y="0" width="20" height="20"></rect>
        <g id="运维自动化小产品图标" transform="translate(2.000000, 2.000000)" fill="#57689C">
            <path d="M15.321545,0.684557846 C16.6683697,2.03138249 15.9315607,4.94276805 13.8045946,8.00515321 C15.9317212,11.0671645 16.6682229,13.9780622 15.321545,15.32474 C13.9745736,16.6717115 11.0627002,15.934595 7.99994834,13.8070941 C4.87984584,15.972237 2.01508613,16.6584633 0.681362844,15.32474 C-0.647206481,13.9961707 0.0289423181,11.1480552 2.17308021,8.04414329 L2.20102307,8.004 L2.13778421,7.91385231 C0.0209522227,4.82864953 -0.639676417,2.00559711 0.681362844,0.684557846 C2.01606059,-0.650139903 4.88399745,0.0380264493 8.00641025,2.20708682 L8.02838628,2.19207357 C11.1434607,0.028211406 13.9862547,-0.650732531 15.321545,0.684557846 Z M8.23471494,3.02581963 C8.07765939,3.13854281 7.86666593,3.12118703 7.73006788,2.99484113 L7.72028039,2.98375408 C4.81401111,0.920918416 2.22466432,0.272751386 1.24711035,1.25030535 C0.314830296,2.18258541 0.861166621,4.58084549 2.699041,7.31604565 C3.33359805,6.47827718 4.05738686,5.64893957 4.85156571,4.85476072 C5.00779258,4.69853386 5.26108636,4.69853386 5.41731322,4.85476072 C5.57354008,5.01098758 5.57354008,5.26428136 5.41731322,5.42050822 C4.50861806,6.32920339 3.69620812,7.28429761 3.0114251,8.24264907 C0.926493046,11.1605043 0.263291543,13.7751737 1.24711035,14.7589925 C2.17928488,15.6911671 4.57693547,15.1450185 7.31132195,13.308089 C6.48580823,12.6817053 5.65665052,11.959622 4.85156571,11.1545372 C4.69533885,10.9983103 4.69533885,10.7450165 4.85156571,10.5887897 C5.00779258,10.4325628 5.26108636,10.4325628 5.41731322,10.5887897 C9.16140378,14.3328802 13.3980562,16.1167339 14.7557975,14.7589925 C15.7227068,13.7920833 15.0963528,11.3651313 13.3034011,8.69579544 C12.6779263,9.52096522 11.9561014,10.3497779 11.1513422,11.1545372 C10.9951153,11.310764 10.7418215,11.310764 10.5855947,11.1545372 C10.4293678,10.9983103 10.4293678,10.7450165 10.5855947,10.5887897 C11.4347665,9.73961786 12.1831043,8.86510883 12.8168255,8.00459649 C12.1830385,7.14411216 11.4347291,6.26964269 10.5855947,5.42050822 C10.4293678,5.26428136 10.4293678,5.01098758 10.5855947,4.85476072 C10.7418215,4.69853386 10.9951153,4.69853386 11.1513422,4.85476072 C11.9559761,5.65939466 12.6777015,6.48807454 13.3031316,7.31351354 C15.0963528,4.64416662 15.7227068,2.21721459 14.7557975,1.25030535 C13.7666195,0.261127297 11.1623193,0.924595743 8.23471494,3.02581963 Z M8.00145394,6.40447334 C8.88520652,6.40447334 9.60162954,7.12089636 9.60162954,8.00464894 C9.60162954,8.88840152 8.88520652,9.60482454 8.00145394,9.60482454 C7.11770136,9.60482454 6.40127834,8.88840152 6.40127834,8.00464894 C6.40127834,7.12089636 7.11770136,6.40447334 8.00145394,6.40447334 Z M8.00145394,7.20456114 C7.55957765,7.20456114 7.20136614,7.56277265 7.20136614,8.00464894 C7.20136614,8.44652523 7.55957765,8.80473674 8.00145394,8.80473674 C8.44333023,8.80473674 8.80154174,8.44652523 8.80154174,8.00464894 C8.80154174,7.56277265 8.44333023,7.20456114 8.00145394,7.20456114 Z" id="形状结合"></path>
            <circle id="椭圆形" cx="10.8017612" cy="4.80429774" r="1.2001317"></circle>
            <circle id="椭圆形备份" cx="10.4017173" cy="11.2050001" r="1.2001317"></circle>
            <circle id="椭圆形备份-4" cx="2.40083934" cy="8.00464894" r="1.2001317"></circle>
        </g>
    </g>
</svg>