<?xml version="1.0" encoding="UTF-8"?>
<svg width="20px" height="20px" viewBox="0 0 20 20" version="1.1" xmlns="http://www.w3.org/2000/svg" xmlns:xlink="http://www.w3.org/1999/xlink">
    <title>o&amp;m-automation-tasks-second-menu</title>
    <g id="o&amp;m-automation-tasks-second-menu" stroke="none" stroke-width="1" fill="none" fill-rule="evenodd">
        <rect id="矩形" fill="#000000" opacity="0" x="0" y="0" width="20" height="20"></rect>
        <g id="运维自动化小产品图标" transform="translate(2.000004, 2.000000)" fill="#57689C" opacity="0.55">
            <path d="M15.321541,0.684557846 C16.6683657,2.03138249 15.9315567,4.94276805 13.8045906,8.00515321 C15.9317172,11.0671645 16.6682189,13.9780622 15.321541,15.32474 C13.9745696,16.6717115 11.0626962,15.934595 7.99994435,13.8070941 C4.87984185,15.972237 2.01508214,16.6584633 0.681358854,15.32474 C-0.523007056,14.1203741 -0.0799626435,11.667296 1.61065987,8.90692639 C1.3593543,8.68791743 1.20070365,8.36481061 1.20070365,8.00464894 C1.20070365,7.64497464 1.35892523,7.32225496 1.60956323,7.10229507 C-0.0803279877,4.34147681 -0.522950959,1.88886766 0.681358854,0.684557846 C2.0160566,-0.650139903 4.88399346,0.0380264493 8.00640626,2.20708682 L8.02838229,2.19207357 C11.1434567,0.028211406 13.9862507,-0.650732531 15.321541,0.684557846 Z M8.23471095,3.02581963 C8.0776554,3.13854281 7.86666194,3.12118703 7.73006389,2.99484113 L7.7202764,2.98375408 C4.81400712,0.920918416 2.22466033,0.272751386 1.24710636,1.25030535 C0.37320988,2.12420184 0.79853343,4.28621513 2.36899062,6.80641557 L2.40083535,6.80451724 C2.61173086,6.80451724 2.80992107,6.85891507 2.98214018,6.95444491 L2.69903701,7.31604565 C3.33359406,6.47827718 4.05738287,5.64893957 4.85156172,4.85476072 C5.00778858,4.69853386 5.26108237,4.69853386 5.41730923,4.85476072 C5.57353609,5.01098758 5.57353609,5.26428136 5.41730923,5.42050822 C4.72253672,6.11528074 4.08405125,6.83717753 3.51586146,7.5669157 C3.57180802,7.70264813 3.60096705,7.85024331 3.60096705,8.00464894 C3.60096705,8.62603748 3.12871555,9.13712576 2.52354185,9.1985845 L2.3693532,9.20437574 C0.799331748,11.7219796 0.372716307,13.8846025 1.24710636,14.7589925 C2.17928089,15.6911671 4.57693148,15.1450185 7.31131796,13.308089 C6.48580424,12.6817053 5.65664653,11.959622 4.85156172,11.1545372 C4.69533486,10.9983103 4.69533486,10.7450165 4.85156172,10.5887897 C5.00778858,10.4325628 5.26108237,10.4325628 5.41730923,10.5887897 C9.16139979,14.3328802 13.3980522,16.1167339 14.7557935,14.7589925 C15.7227028,13.7920833 15.0963488,11.3651313 13.3033971,8.69579544 C12.7754592,9.39228776 12.178878,10.0913754 11.5217209,10.7764035 C11.5739032,10.9092292 11.601845,11.0538516 11.601845,11.2050001 C11.601845,11.8678146 11.0645278,12.4051318 10.4017134,12.4051318 C9.73889891,12.4051318 9.20158165,11.8678146 9.20158165,11.2050001 C9.20158165,10.5421857 9.73889891,10.0048684 10.4017134,10.0048684 C10.6197224,10.0048684 10.8241546,10.0629978 11.000356,10.1646027 L11.4006407,9.73262893 C11.9209192,9.15816703 12.3943407,8.57827138 12.8168215,8.00459649 C12.3172279,7.32630484 11.7464741,6.63932331 11.1112691,5.96291098 C11.0117628,5.9905242 10.9083839,6.00442944 10.8017573,6.00442944 C10.1389428,6.00442944 9.60162555,5.46711218 9.60162555,4.80429774 C9.60162555,4.14148331 10.1389428,3.60416605 10.8017573,3.60416605 C11.4645717,3.60416605 12.0018889,4.14148331 12.0018889,4.80429774 C12.0018889,5.06546104 11.9184688,5.30714051 11.7768207,5.50414383 C12.3341584,6.10126206 12.8445299,6.70825905 13.3031276,7.31351354 C15.0963488,4.64416662 15.7227028,2.21721459 14.7557935,1.25030535 C13.7666155,0.261127297 11.1623153,0.924595743 8.23471095,3.02581963 Z M8.00144995,6.40447334 C8.88520253,6.40447334 9.60162555,7.12089636 9.60162555,8.00464894 C9.60162555,8.88840152 8.88520253,9.60482454 8.00144995,9.60482454 C7.11769737,9.60482454 6.40127435,8.88840152 6.40127435,8.00464894 C6.40127435,7.12089636 7.11769737,6.40447334 8.00144995,6.40447334 Z M8.00144995,7.20456114 C7.55957366,7.20456114 7.20136215,7.56277265 7.20136215,8.00464894 C7.20136215,8.44652523 7.55957366,8.80473674 8.00144995,8.80473674 C8.44332624,8.80473674 8.80153775,8.44652523 8.80153775,8.00464894 C8.80153775,7.56277265 8.44332624,7.20456114 8.00144995,7.20456114 Z" id="形状"></path>
        </g>
    </g>
</svg>