<?xml version="1.0" encoding="UTF-8"?>
<svg width="20px" height="20px" viewBox="0 0 20 20" version="1.1" xmlns="http://www.w3.org/2000/svg" xmlns:xlink="http://www.w3.org/1999/xlink">
    <title>ops-statistic</title>
    <g id="ops-statistic" stroke="none" stroke-width="1" fill="none" fill-rule="evenodd">
        <g id="基础设施监控">
            <rect id="矩形" x="0" y="0" width="20" height="20"></rect>
            <path d="M12.4090909,13.3636364 L13.7115385,16.4895105 C13.8177471,16.7444111 13.6972083,17.037148 13.4423077,17.1433566 C13.3813726,17.1687463 13.316013,17.1818182 13.25,17.1818182 L7.11363636,17.1818182 C6.83749399,17.1818182 6.61363636,16.9579606 6.61363636,16.6818182 C6.61363636,16.6158052 6.62670828,16.5504456 6.6520979,16.4895105 L7.95454545,13.3636364 L7.95454545,13.3636364 L12.4090909,13.3636364 Z" id="矩形备份-9" fill="#57689C" opacity="0.55"></path>
            <path d="M17,3 C17.5522847,3 18,3.44771525 18,4 L18,12.9090909 C18,13.4613757 17.5522847,13.9090909 17,13.9090909 L3,13.9090909 C2.44771525,13.9090909 2,13.4613757 2,12.9090909 L2,4 C2,3.44771525 2.44771525,3 3,3 L17,3 Z M6.18181818,9.90909091 C5.88057195,9.90909091 5.63636364,10.1532992 5.63636364,10.4545455 L5.63636364,11.1818182 C5.63636364,11.4830644 5.88057195,11.7272727 6.18181818,11.7272727 C6.48306441,11.7272727 6.72727273,11.4830644 6.72727273,11.1818182 L6.72727273,10.4545455 C6.72727273,10.1532992 6.48306441,9.90909091 6.18181818,9.90909091 Z M8.72727273,8.45454545 C8.4260265,8.45454545 8.18181818,8.69875377 8.18181818,9 L8.18181818,11.1818182 C8.18181818,11.4830644 8.4260265,11.7272727 8.72727273,11.7272727 C9.02851895,11.7272727 9.27272727,11.4830644 9.27272727,11.1818182 L9.27272727,9 C9.27272727,8.69875377 9.02851895,8.45454545 8.72727273,8.45454545 Z M13.8181818,7.72727273 C13.5169356,7.72727273 13.2727273,7.97148105 13.2727273,8.27272727 L13.2727273,11.1818182 C13.2727273,11.4830644 13.5169356,11.7272727 13.8181818,11.7272727 C14.119428,11.7272727 14.3636364,11.4830644 14.3636364,11.1818182 L14.3636364,8.27272727 C14.3636364,7.97148105 14.119428,7.72727273 13.8181818,7.72727273 Z M11.2727273,8.81818182 C10.971481,8.81818182 10.7272727,9.06239014 10.7272727,9.36363636 L10.7272727,11.1818182 C10.7272727,11.4830644 10.971481,11.7272727 11.2727273,11.7272727 C11.5739735,11.7272727 11.8181818,11.4830644 11.8181818,11.1818182 L11.8181818,9.36363636 C11.8181818,9.06239014 11.5739735,8.81818182 11.2727273,8.81818182 Z M13.8181818,4.81818182 C13.5169356,4.81818182 13.2727273,5.06239014 13.2727273,5.36363636 C13.2727273,5.44790904 13.2918386,5.52771803 13.3259636,5.5989657 L11.5794104,7.09431794 C11.4920202,7.03479472 11.3864371,7 11.2727273,7 C11.1755648,7 11.0843358,7.02540474 11.0053206,7.06993408 L9.25612682,6.3204705 C9.19637524,6.08405184 8.98225614,5.90909091 8.72727273,5.90909091 C8.4260265,5.90909091 8.18181818,6.15329923 8.18181818,6.45454545 C8.18181818,6.530429 8.19731393,6.60269332 8.22531373,6.66834673 L6.39363796,8.13356422 C6.32851313,8.10609493 6.25693908,8.09090909 6.18181818,8.09090909 C5.88057195,8.09090909 5.63636364,8.33511741 5.63636364,8.63636364 C5.63636364,8.93760986 5.88057195,9.18181818 6.18181818,9.18181818 C6.48306441,9.18181818 6.72727273,8.93760986 6.72727273,8.63636364 C6.72727273,8.60372863 6.72440667,8.57176302 6.71891253,8.54070479 L8.65061942,6.99465615 C8.67566472,6.99817853 8.70125601,7 8.72727273,7 C8.88354421,7 9.0244667,6.93428316 9.12391188,6.8289778 L10.7280441,7.51619503 C10.727532,7.52588333 10.7272727,7.53563866 10.7272727,7.54545455 C10.7272727,7.84670077 10.971481,8.09090909 11.2727273,8.09090909 C11.5630191,8.09090909 11.8003458,7.86413846 11.8172221,7.5780825 L13.7674198,5.9067601 C13.7841334,5.90830253 13.8010656,5.90909091 13.8181818,5.90909091 C14.119428,5.90909091 14.3636364,5.66488259 14.3636364,5.36363636 C14.3636364,5.06239014 14.119428,4.81818182 13.8181818,4.81818182 Z" id="形状结合" fill="#57689C"></path>
        </g>
    </g>
</svg>