<?xml version="1.0" encoding="UTF-8"?>
<svg width="20px" height="20px" viewBox="0 0 20 20" version="1.1" xmlns="http://www.w3.org/2000/svg" xmlns:xlink="http://www.w3.org/1999/xlink">
    <title>ops-tool-second-menu</title>
    <g id="ops-tool-second-menu" stroke="none" stroke-width="1" fill="none" fill-rule="evenodd">
        <rect id="矩形" x="0" y="0" width="20" height="20"></rect>
        <g id="编组-47">
            <path d="M6.94260963,8.09572594 C7.71068478,7.06266833 8.97869843,6.52755207 10.2546667,6.698 L8.4,8.55266667 C7.87807356,9.08470212 7.87807356,9.93663122 8.4,10.4686667 L9.52733333,11.5953333 C10.0639542,12.1214906 10.9153791,12.1214906 11.4473333,11.6 L13.302,9.74533333 C13.4723052,11.0211215 12.9372636,12.28891 11.9044137,13.0569337 C10.8715639,13.8249573 9.50341704,13.9723733 8.33066667,13.442 C8.07774214,13.3274144 7.78027983,13.3815951 7.584,13.578 L2.92719559,18 L2.66666667,18 C2.29847684,18 2,17.7015232 2,17.3333333 L1.99919559,16.616 L6.422,12.4166667 C6.5938543,12.2449218 6.65681814,11.9957091 6.59311051,11.7666498 L6.558,11.67 C6.02728754,10.4971864 6.17453448,9.12878355 6.94260963,8.09572594 Z" id="路径" fill="#57689C"></path>
            <rect id="矩形" x="0" y="0" width="20" height="20"></rect>
            <path d="M17.3333333,2 C17.7015232,2 18,2.29847684 18,2.66666667 L18,17.3333333 C18,17.7015232 17.7015232,18 17.3333333,18 L4.86719559,18 L8.218,14.83 C9.98440222,15.4321343 11.932149,14.9717785 13.2411984,13.6605699 L13.4014437,13.4922526 C14.7081113,12.0529343 15.0349926,9.97497708 14.2333333,8.204 C14.1429831,8.00474107 13.9606146,7.86249588 13.7453534,7.82338167 C13.5300922,7.78426747 13.30934,7.85326328 13.1546667,8.008 L10.5133333,10.6486667 C10.5000105,10.661114 10.4793228,10.661114 10.466,10.6486667 L9.35133333,9.53333333 C9.3392958,9.52010656 9.3392958,9.49989344 9.35133333,9.48666667 L11.9926667,6.846 C12.1473614,6.69123225 12.2162554,6.47040295 12.1770058,6.25512874 C12.1377561,6.03985453 11.9953609,5.85754829 11.796,5.76733333 C10.0250229,4.96567404 7.94706567,5.29255538 6.50774735,6.59922298 C5.06842902,7.90589058 4.5427768,9.94266436 5.17,11.7826667 L1.99919559,14.783 L2,2.66666667 C2,2.29847684 2.29847684,2 2.66666667,2 L17.3333333,2 Z" id="路径" fill="#57689C" fill-rule="nonzero" opacity="0.55"></path>
        </g>
    </g>
</svg>