<?xml version="1.0" encoding="UTF-8"?>
<svg width="20px" height="20px" viewBox="0 0 20 20" version="1.1" xmlns="http://www.w3.org/2000/svg" xmlns:xlink="http://www.w3.org/1999/xlink">
    <title>Oracle-second menu-normal</title>
    <g id="Oracle-second-menu-normal" stroke="none" stroke-width="1" fill="none" fill-rule="evenodd">
        <g id="Oracle" transform="translate(2.174414, 2.088889)">
            <path d="M6.62822823,5.8584985 C9.96372372,5.8584985 12.615015,4.83219219 13.2564565,3.46378378 L13.2564565,2.95063063 C13.2564565,1.32564565 10.2630631,0 6.62822823,0 C2.99339339,0 0.0427627628,1.28288288 0.0427627628,2.95063063 L0.0427627628,3.42102102 C0.684204204,4.91771772 3.29273273,5.8584985 6.62822823,5.8584985 Z" id="路径" fill="#9FAECF"></path>
            <path d="M8.3815015,6.5427027 C7.78282282,6.62822823 7.18414414,6.62822823 6.62822823,6.62822823 C3.29273273,6.62822823 0.555915916,5.55915916 0,4.14798799 L0,6.45717718 C0.641441441,7.82558559 3.3354955,8.85189189 6.58546547,8.85189189 L6.71375375,8.85189189 C7.05585586,7.95387387 7.61177177,7.14138138 8.3815015,6.5427027 Z" id="路径" fill="#9FAECF"></path>
            <path d="M13.2136937,4.23351351 C12.9143544,4.83219219 12.4012012,5.30258258 11.8025225,5.55915916 C12.2729129,5.60192192 12.7433033,5.73021021 13.2136937,5.90126126 L13.2136937,4.23351351 Z" id="路径" fill="#9FAECF"></path>
            <path d="M6.49993994,9.74990991 C3.29273273,9.70714715 0.641441441,8.68084084 0.0427627628,7.3551952 L0.0427627628,9.57885886 C0.641441441,10.9472673 3.37825826,11.9735736 6.62822823,11.9735736 L6.67099099,11.9735736 C6.41441441,11.2466066 6.37165165,10.4768769 6.49993994,9.74990991 Z" id="路径" fill="#9FAECF"></path>
            <path d="M6.97033033,12.7860661 L6.62822823,12.7860661 C3.37825826,12.7860661 0.641441441,11.7597598 0.0427627628,10.3913514 L0.0427627628,12.5294895 C0.0427627628,14.1972372 2.99339339,15.5656456 6.67099099,15.5656456 C7.6972973,15.5656456 8.68084084,15.4801201 9.66438438,15.2235435 C8.50978979,14.7531532 7.52624625,13.8978979 6.97033033,12.7860661 Z" id="路径" fill="#9FAECF"></path>
            <path d="M11.0755556,10.8617417 C11.0755556,11.4176577 11.4176577,11.888048 11.888048,11.888048 C12.3584384,11.888048 12.7005405,11.4176577 12.7005405,10.8617417 C12.7005405,10.3058258 12.3584384,9.83543544 11.888048,9.83543544 C11.4176577,9.83543544 11.0755556,10.3058258 11.0755556,10.8617417 Z" id="路径" fill="#57689C"></path>
            <path d="M11.888048,7.26966967 C9.8781982,7.26966967 8.29597598,8.89465465 8.29597598,10.8617417 C8.29597598,12.8715916 9.92096096,14.4538138 11.888048,14.4538138 C13.8978979,14.4538138 15.4801201,12.8288288 15.4801201,10.8617417 C15.5228829,8.89465465 13.8551351,7.26966967 11.888048,7.26966967 Z M11.888048,13.4275075 C10.6906907,13.4275075 9.79267267,12.3156757 9.79267267,10.8617417 C9.79267267,9.40780781 10.7334535,8.29597598 11.888048,8.29597598 C13.0426426,8.29597598 13.9834234,9.40780781 13.9834234,10.8617417 C13.9834234,12.2729129 13.0426426,13.4275075 11.888048,13.4275075 Z" id="形状" fill="#57689C"></path>
        </g>
        <g id="Oracle">
            <rect id="矩形" x="0" y="0" width="20" height="20"></rect>
            <path d="M2.21717718,12.4802402 C2.81585586,13.8486486 5.55267267,14.874955 8.80264264,14.874955 L9.14474474,14.874955 C9.70066066,15.9867868 10.6842042,16.842042 11.8387988,17.3124324 C10.8552553,17.569009 9.87171171,17.6545345 8.84540541,17.6545345 C5.16780781,17.6545345 2.21717718,16.2861261 2.21717718,14.6183784 L2.21717718,12.4802402 Z M2.21717718,9.44408408 C2.81585586,10.7697297 5.46714715,11.796036 8.67435435,11.8387988 C8.54606607,12.5657658 8.58882883,13.3354955 8.84540541,14.0624625 L8.80264264,14.0624625 C5.55267267,14.0624625 2.81585586,13.0361562 2.21717718,11.6677477 L2.21717718,9.44408408 Z M2.17441441,6.23687688 C2.73033033,7.64804805 5.46714715,8.71711712 8.80264264,8.71711712 C9.35855856,8.71711712 9.95723724,8.71711712 10.5559159,8.63159159 C9.78618619,9.23027027 9.23027027,10.0427628 8.88816817,10.9407808 L8.75987988,10.9407808 C5.50990991,10.9407808 2.81585586,9.91447447 2.17441441,8.54606607 L2.17441441,6.23687688 Z M15.3881081,6.3224024 L15.3881081,7.99015015 C14.9177177,7.8190991 14.4473273,7.69081081 13.9769369,7.64804805 C14.5756156,7.39147147 15.0887688,6.92108108 15.3881081,6.3224024 Z M8.80264264,2.08888889 C12.4374775,2.08888889 15.4308709,3.41453453 15.4308709,5.03951952 L15.4308709,5.55267267 C14.7894294,6.92108108 12.1381381,7.94738739 8.80264264,7.94738739 C5.46714715,7.94738739 2.85861862,7.00660661 2.21717718,5.50990991 L2.21717718,5.03951952 C2.21717718,3.37177177 5.16780781,2.08888889 8.80264264,2.08888889 Z" id="形状结合" fill="#9FAECF"></path>
            <path d="M14.0624625,9.35855856 C16.0295495,9.35855856 17.6972973,10.9835435 17.6545345,12.9506306 C17.6545345,14.9177177 16.0723123,16.5427027 14.0624625,16.5427027 C12.0953754,16.5427027 10.4703904,14.9604805 10.4703904,12.9506306 C10.4703904,10.9835435 12.0526126,9.35855856 14.0624625,9.35855856 Z M14.0624625,10.3848649 C12.9078679,10.3848649 11.9670871,11.4966967 11.9670871,12.9506306 C11.9670871,14.4045646 12.8651051,15.5163964 14.0624625,15.5163964 C15.2170571,15.5163964 16.1578378,14.3618018 16.1578378,12.9506306 C16.1578378,11.4966967 15.2170571,10.3848649 14.0624625,10.3848649 Z M14.0624625,11.9243243 C14.5328529,11.9243243 14.874955,12.3947147 14.874955,12.9506306 C14.874955,13.5065465 14.5328529,13.9769369 14.0624625,13.9769369 C13.5920721,13.9769369 13.24997,13.5065465 13.24997,12.9506306 C13.24997,12.3947147 13.5920721,11.9243243 14.0624625,11.9243243 Z" id="形状结合" fill="#57689C"></path>
        </g>
    </g>
</svg>