<?xml version="1.0" encoding="UTF-8"?>
<svg width="20px" height="20px" viewBox="0 0 20 20" version="1.1" xmlns="http://www.w3.org/2000/svg" xmlns:xlink="http://www.w3.org/1999/xlink">
    <title>Oracle-second menu-pressed</title>
    <g id="Oracle-second-menu-pressed" stroke="none" stroke-width="1" fill="none" fill-rule="evenodd">
        <g id="Oracle">
            <rect id="矩形" x="0" y="0" width="20" height="20"></rect>
            <path d="M2.21717718,12.4802402 C2.81585586,13.8486486 5.55267267,14.874955 8.80264264,14.874955 L9.14474474,14.874955 C9.70066066,15.9867868 10.6842042,16.842042 11.8387988,17.3124324 C10.8552553,17.569009 9.87171171,17.6545345 8.84540541,17.6545345 C5.16780781,17.6545345 2.21717718,16.2861261 2.21717718,14.6183784 L2.21717718,12.4802402 Z M2.21717718,9.44408408 C2.81585586,10.7697297 5.46714715,11.796036 8.67435435,11.8387988 C8.54606607,12.5657658 8.58882883,13.3354955 8.84540541,14.0624625 L8.80264264,14.0624625 C5.55267267,14.0624625 2.81585586,13.0361562 2.21717718,11.6677477 L2.21717718,9.44408408 Z M2.17441441,6.23687688 C2.73033033,7.64804805 5.46714715,8.71711712 8.80264264,8.71711712 C9.35855856,8.71711712 9.95723724,8.71711712 10.5559159,8.63159159 C9.78618619,9.23027027 9.23027027,10.0427628 8.88816817,10.9407808 L8.75987988,10.9407808 C5.50990991,10.9407808 2.81585586,9.91447447 2.17441441,8.54606607 L2.17441441,6.23687688 Z M15.3881081,6.3224024 L15.3881081,7.99015015 C14.9177177,7.8190991 14.4473273,7.69081081 13.9769369,7.64804805 C14.5756156,7.39147147 15.0887688,6.92108108 15.3881081,6.3224024 Z M8.80264264,2.08888889 C12.4374775,2.08888889 15.4308709,3.41453453 15.4308709,5.03951952 L15.4308709,5.55267267 C14.7894294,6.92108108 12.1381381,7.94738739 8.80264264,7.94738739 C5.46714715,7.94738739 2.85861862,7.00660661 2.21717718,5.50990991 L2.21717718,5.03951952 C2.21717718,3.37177177 5.16780781,2.08888889 8.80264264,2.08888889 Z" id="形状结合" fill="#FFFFFF" fill-rule="nonzero" opacity="0.55"></path>
            <path d="M14.0624625,9.35855856 C16.0295495,9.35855856 17.6972973,10.9835435 17.6545345,12.9506306 C17.6545345,14.9177177 16.0723123,16.5427027 14.0624625,16.5427027 C12.0953754,16.5427027 10.4703904,14.9604805 10.4703904,12.9506306 C10.4703904,10.9835435 12.0526126,9.35855856 14.0624625,9.35855856 Z M14.0624625,10.3848649 C12.9078679,10.3848649 11.9670871,11.4966967 11.9670871,12.9506306 C11.9670871,14.4045646 12.8651051,15.5163964 14.0624625,15.5163964 C15.2170571,15.5163964 16.1578378,14.3618018 16.1578378,12.9506306 C16.1578378,11.4966967 15.2170571,10.3848649 14.0624625,10.3848649 Z M14.0624625,11.9243243 C14.5328529,11.9243243 14.874955,12.3947147 14.874955,12.9506306 C14.874955,13.5065465 14.5328529,13.9769369 14.0624625,13.9769369 C13.5920721,13.9769369 13.24997,13.5065465 13.24997,12.9506306 C13.24997,12.3947147 13.5920721,11.9243243 14.0624625,11.9243243 Z" id="形状结合" fill="#FFFFFF" fill-rule="nonzero"></path>
        </g>
    </g>
</svg>