<?xml version="1.0" encoding="UTF-8"?>
<svg width="20px" height="20px" viewBox="0 0 20 20" version="1.1" xmlns="http://www.w3.org/2000/svg" xmlns:xlink="http://www.w3.org/1999/xlink">
    <title>Orchestration 4</title>
    <g id="Orchestration" stroke="none" stroke-width="1" fill="none" fill-rule="evenodd">
        <rect id="矩形" fill="#000000" opacity="0" x="0" y="0" width="20" height="20"></rect>
        <path d="M16,2 C16.5522847,2 17,2.44771525 17,3 L17,17 C17,17.5522847 16.5522847,18 16,18 L4,18 C3.44771525,18 3,17.5522847 3,17 L3,3 C3,2.44771525 3.44771525,2 4,2 L16,2 Z M15,4 L7,4 L6.99976923,4.52 L4.28076923,4.52042254 L4.28076923,8.862583 L13.7016009,8.86242254 L13.7016009,11.7634225 L4.28076923,11.7637085 L4.28076923,16.0007042 L11.1406284,16.0007042 L11.1406284,14.9007042 L5.38160088,14.9004225 L5.38160088,12.8634225 L14.8016009,12.8637085 L14.8016009,7.762583 L5.38160088,7.76242254 L5.38160088,5.62042254 L6.99976923,5.62 L7,6.5 L15,6.5 L15,4 Z" id="形状结合" fill="#FFFFFF" opacity="0.55"></path>
        <g id="编组-8" transform="translate(4.280769, 4.000000)"></g>
        <path d="M14,10 C16.209139,10 18,11.790861 18,14 C18,16.209139 16.209139,18 14,18 C11.790861,18 10,16.209139 10,14 C10,11.790861 11.790861,10 14,10 Z M14,12 L12.2679492,15 L13.5199492,15 L13.52,16.6965064 L14.48,16.6965064 L14.4799492,15 L15.7320508,15 L14,12 Z" id="形状结合" fill="#FFFFFF"></path>
    </g>
</svg>