<?xml version="1.0" encoding="UTF-8"?>
<svg width="20px" height="20px" viewBox="0 0 20 20" version="1.1" xmlns="http://www.w3.org/2000/svg" xmlns:xlink="http://www.w3.org/1999/xlink">
    <title>Orchestration 5</title>
    <g id="Orchestration" stroke="none" stroke-width="1" fill="none" fill-rule="evenodd">
        <rect id="矩形" fill="#000000" opacity="0" x="0" y="0" width="20" height="20"></rect>
        <path d="M16,2 C16.5522847,2 17,2.44771525 17,3 L17.0009561,11.3552593 C16.4363509,10.7151023 15.6701161,10.2570115 14.8016057,10.0803408 L14.8016009,7.762583 L5.38160088,7.76242254 L5.38160088,5.62042254 L6.99976923,5.62 L7,6.5 L15,6.5 L15,4 L7,4 L6.99976923,4.52 L4.28076923,4.52042254 L4.28076923,8.862583 L13.7016009,8.86242254 L13.700975,10.0110084 C12.4446757,10.103852 11.3497851,10.776954 10.6833069,11.7633107 L4.28076923,11.7637085 L4.28076923,16.0007042 L10.5357707,16.0011092 C11.2275472,17.1961002 12.5198932,18 14,18 L4,18 C3.44771525,18 3,17.5522847 3,17 L3,3 C3,2.44771525 3.44771525,2 4,2 L16,2 Z M10,14 C10,14.3097922 10.0352174,14.611359 10.101867,14.9009152 L5.38160088,14.9004225 L5.38160088,12.8634225 L10.1637444,12.8635486 C10.0571926,13.2237854 10,13.6052137 10,14 Z" id="形状结合" fill="#9FAECF"></path>
        <g id="编组-8" transform="translate(4.280769, 4.000000)"></g>
        <circle id="椭圆形备份" fill="#57689C" cx="14" cy="14" r="4"></circle>
        <path d="M14,12 L15.7320508,15 L14.4799492,15 L14.48,16.6965064 L13.52,16.6965064 L13.5199492,15 L12.2679492,15 L14,12 Z" id="形状结合" fill="#FFFFFF" fill-rule="nonzero"></path>
    </g>
</svg>