<?xml version="1.0" encoding="UTF-8"?>
<svg width="20px" height="20px" viewBox="0 0 20 20" version="1.1" xmlns="http://www.w3.org/2000/svg" xmlns:xlink="http://www.w3.org/1999/xlink">
    <title>overview-second-menu</title>
    <g id="overview-second-menu" stroke="none" stroke-width="1" fill="none" fill-rule="evenodd">
        <g id="overview-second-menu-default">
            <rect id="底框" fill-opacity="0" fill="#FFFFFF" x="0" y="0" width="20" height="20"></rect>
            <path d="M17,2 C17.5522847,2 18,2.44771525 18,3 L18,13 C18,13.5522847 17.5522847,14 17,14 L3,14 C2.44771525,14 2,13.5522847 2,13 L2,3 C2,2.44771525 2.44771525,2 3,2 L17,2 Z M7.0625,5.875 C5.37112795,5.875 4,7.24612795 4,8.9375 C4,10.628872 5.37112795,12 7.0625,12 C8.75387205,12 10.125,10.628872 10.125,8.9375 L7.0625,8.9375 Z M16.1,5.9 L14.9,5.9 L14.9,11.1 L16.1,11.1 L16.1,5.9 Z M14.1,8.9 L12.9,8.9 L12.9,11.1 L14.1,11.1 L14.1,8.9 Z M7.5,5 L7.5,8.5 L11,8.5 C11,6.56700338 9.43299662,5 7.5,5 Z" id="形状结合" fill="#57689C" opacity="0.550000012"></path>
            <path d="M8.1571889,15 L11.8428111,15 C12.1820633,15 12.7091766,15.3837559 13.0201517,15.8571429 L13.864757,17.1428571 C14.1757321,17.6162441 13.9322257,18 13.3208704,18 L6.67912961,18 C6.06777426,18 5.82426794,17.6162441 6.13524302,17.1428571 L6.97984833,15.8571429 C7.29082341,15.3837559 7.81793674,15 8.1571889,15 Z" id="矩形" fill="#57689C"></path>
        </g>
    </g>
</svg>