<?xml version="1.0" encoding="UTF-8"?>
<svg width="20px" height="20px" viewBox="0 0 20 20" version="1.1" xmlns="http://www.w3.org/2000/svg" xmlns:xlink="http://www.w3.org/1999/xlink">
    <title>overview-second menu-pressed</title>
    <g id="overview-second-menu-pressed" stroke="none" stroke-width="1" fill="none" fill-rule="evenodd">
        <g id="overview">
            <path d="M10,5 C12.7614237,5 15,7.23857625 15,10 C15,12.7614237 12.7614237,15 10,15 C7.23857625,15 5,12.7614237 5,10 C5,7.23857625 7.23857625,5 10,5 Z" id="路径-7" fill="#FFFFFF" opacity="0.55"></path>
            <rect id="矩形" x="0" y="0" width="20" height="20"></rect>
            <path d="M2.5,2.9 C2.83137085,2.9 3.1,3.16862915 3.1,3.5 L3.1,15.5 C3.1,15.7209139 3.2790861,15.9 3.5,15.9 L17.3711866,15.9 C17.7025575,15.9 17.9711866,16.1686292 17.9711866,16.5 C17.9711866,16.8313708 17.7025575,17.1 17.3711866,17.1 L3.5,17.1 C2.6163444,17.1 1.9,16.3836556 1.9,15.5 L1.9,3.5 C1.9,3.16862915 2.16862915,2.9 2.5,2.9 Z" id="路径-4" fill="#FFFFFF" fill-rule="nonzero"></path>
            <path d="M15.4383694,5.4 C15.7697402,5.4 16.0383694,5.66862915 16.0383694,6 L16.0383694,9.5 C16.0383694,9.83137085 15.7697402,10.1 15.4383694,10.1 C15.1069985,10.1 14.8383692,9.83137085 14.8383692,9.5 L14.8383692,7.509 L10.4242641,11.9242641 C10.1899495,12.1585786 9.81005051,12.1585786 9.57573593,11.9242641 L7.99536938,10.344 L5.35829811,12.9285556 C5.14791172,13.1347069 4.82438386,13.1545608 4.59220116,12.9901965 L4.50981383,12.9199287 C4.2778936,12.683244 4.28175596,12.3033647 4.51844065,12.0714444 L7.58007127,9.07144445 C7.81505619,8.84118977 8.19163225,8.84310411 8.42426407,9.07573593 L9.99936938,10.651 L14.0503692,6.6 L11.9383694,6.6 C11.6401356,6.6 11.3927226,6.38241039 11.3462224,6.09732312 L11.3383692,6 C11.3383692,5.66862915 11.6069985,5.4 11.9383694,5.4 L15.4383694,5.4 Z" id="路径" fill="#FFFFFF" fill-rule="nonzero"></path>
        </g>
    </g>
</svg>