<?xml version="1.0" encoding="UTF-8"?>
<svg width="20px" height="20px" viewBox="0 0 20 20" version="1.1" xmlns="http://www.w3.org/2000/svg" xmlns:xlink="http://www.w3.org/1999/xlink">
    <title>Package management 2</title>
    <g id="Package-management" stroke="none" stroke-width="1" fill="none" fill-rule="evenodd">
        <rect id="矩形" fill="#000000" opacity="0" x="0" y="0" width="20" height="20"></rect>
        <path d="M17,8 C17.5522847,8 18,8.44771525 18,9 L18,17 C18,17.5522847 17.5522847,18 17,18 L3,18 C2.44771525,18 2,17.5522847 2,17 L2,9 C2,8.44771525 2.44771525,8 3,8 L17,8 Z M13,11 L7,11 L7,13 L13,13 L13,11 Z" id="形状结合" fill="#FFFFFF" opacity="0.55"></path>
        <path d="M7.91112296,3.16890074 C7.72693333,3.05838222 7.51616,3 7.30135704,3 L3.18518519,3 C2.53063111,3 2,3.53063111 2,4.18518519 L2,6.55555556 C2,6.88283259 2.26531556,7.14814815 2.59259259,7.14814815 L17.4074074,7.14814815 C17.734637,7.14814815 18,6.88283259 18,6.55555556 L18,5.96296296 C18,5.30840889 17.4693926,4.77777778 16.8148148,4.77777778 L10.9208652,4.77777778 C10.7060622,4.77777778 10.4952889,4.71939556 10.3110993,4.60887704 L7.91112296,3.16890074 Z" id="路径备份" fill="#FFFFFF"></path>
    </g>
</svg>