<?xml version="1.0" encoding="UTF-8"?>
<svg width="20px" height="20px" viewBox="0 0 20 20" version="1.1" xmlns="http://www.w3.org/2000/svg" xmlns:xlink="http://www.w3.org/1999/xlink">
    <title>project list-second menu-normal备份 4</title>
    <g id="project-list-second-menu-normal备份-4" stroke="none" stroke-width="1" fill="none" fill-rule="evenodd">
        <g id="project-list" fill="#000000" opacity="0">
            <rect id="矩形" x="0" y="0" width="20" height="20"></rect>
        </g>
        <g id="编组-4" transform="translate(2.000000, 3.000000)">
            <g id="编组" fill="#57689C">
                <path d="M5.91112296,0.168900741 C5.72693333,0.0583822222 5.51616,0 5.30135704,0 L1.18518519,0 C0.530631111,0 0,0.530631111 0,1.18518519 L0,3.55555556 C0,3.88283259 0.265315556,4.14814815 0.592592593,4.14814815 L15.4074074,4.14814815 C15.734637,4.14814815 16,3.88283259 16,3.55555556 L16,2.96296296 C16,2.30840889 15.4693926,1.77777778 14.8148148,1.77777778 L8.92086519,1.77777778 C8.70606222,1.77777778 8.49528889,1.71939556 8.31109926,1.60887704 L5.91112296,0.168900741 Z" id="路径备份"></path>
                <path d="M15,5 C15.5522847,5 16,5.44771525 16,6 L16,13 C16,13.5522847 15.5522847,14 15,14 L1,14 C0.44771525,14 6.76353751e-17,13.5522847 0,13 L0,6 C-6.76353751e-17,5.44771525 0.44771525,5 1,5 L15,5 Z M8.54596985,6.21176645 L8.3089262,6.76295635 L6.588694,10.7629563 L6.35165035,11.3141462 L7.45403015,11.7882336 L7.6910738,11.2370437 L9.411306,7.23704365 L9.64834965,6.68585375 L8.54596985,6.21176645 Z M4.87475383,6.56297061 L2.58889744,8.71321822 L2.09356487,9.17916511 L2.61758967,9.612592 L5.03564361,11.612592 L5.80046426,10.6879032 L3.906,9.121 L5.69695894,7.43702939 L4.87475383,6.56297061 Z M11.5433001,6.56297061 L10.721095,7.43702939 L12.5120539,9.121 L10.6175897,10.6879032 L11.3824103,11.612592 L13.8004643,9.612592 L14.3244891,9.17916511 L13.8291565,8.71321822 L11.5433001,6.56297061 Z" id="形状结合" opacity="0.554612"></path>
            </g>
            <g id="编组-33" transform="translate(2.093565, 6.211766)">
                <g id="编组-2" transform="translate(0.000000, 0.351204)"></g>
            </g>
        </g>
    </g>
</svg>