<?xml version="1.0" encoding="UTF-8"?>
<svg width="20px" height="20px" viewBox="0 0 20 20" version="1.1" xmlns="http://www.w3.org/2000/svg" xmlns:xlink="http://www.w3.org/1999/xlink">
    <title>pending-approval-second-menu</title>
    <g id="pending-approval-second-menu" stroke="none" stroke-width="1" fill="none" fill-rule="evenodd">
        <g id="数据审批">
            <rect id="矩形备份-49" fill-opacity="0.1" fill="#FFFFFF" opacity="0" x="0" y="0" width="20" height="20"></rect>
            <g transform="translate(3.384324, 3.289701)" fill="#57689C" id="形状结合">
                <path d="M11,0 C11.5522847,-1.01453063e-16 12,0.44771525 12,1 L12.0007613,7.12621352 C11.6809122,7.04382251 11.3455738,7 11,7 C8.790861,7 7,8.790861 7,11 C7,12.1952121 7.52421057,13.2679883 8.35525927,14.0009561 L1,14 C0.44771525,14 6.76353751e-17,13.5522847 0,13 L0,1 C-6.76353751e-17,0.44771525 0.44771525,1.01453063e-16 1,0 L11,0 Z M6.91314027,6.91029945 L1.77383896,6.91029945 L1.77383896,7.91029945 L6.91314027,7.91029945 L6.91314027,6.91029945 Z M6.91314027,4.71029945 L1.77383896,4.71029945 L1.77383896,5.71029945 L6.91314027,5.71029945 L6.91314027,4.71029945 Z M4.34348962,2.51029945 L1.77383896,2.51029945 L1.77383896,3.51029945 L4.34348962,3.51029945 L4.34348962,2.51029945 Z" opacity="0.550000012"></path>
                <path d="M9.1156757,13.1994831 L13.8095532,13.1994831 L13.8095532,13.9994831 L9.1156757,13.9994831 Z M13.2650634,11.9061785 L12.7933287,11.9061785 C12.4835328,11.9061785 12.1948594,11.6984082 12.1279716,11.3903349 C12.0786859,11.1610711 12.1455736,10.942554 12.28639,10.7920996 L12.2828696,10.7885174 C12.5398594,10.5126843 12.6736349,10.1114727 12.5821043,9.68876748 C12.4835328,9.21949308 12.1068492,8.84693938 11.6421553,8.76096543 C10.8852675,8.62125781 10.2269512,9.20874636 10.2269512,9.95385378 C10.2269512,10.2798383 10.3536859,10.5771648 10.56139,10.7956819 L10.5578696,10.7992641 C10.6599614,10.9174783 10.7268492,11.0715149 10.7268492,11.2434628 C10.7268492,11.5981053 10.4557777,11.884685 10.1142981,11.9061785 L10.1142981,11.9097608 L9.65664507,11.9097608 C9.4876655,11.9097608 9.35036957,12.0494684 9.35036957,12.2214163 L9.35036957,12.7300954 L13.5748594,12.7300954 L13.5748594,12.2249985 C13.5748594,12.0458862 13.4375634,11.9061785 13.2650634,11.9061785 L13.2650634,11.9061785 Z" fill-rule="nonzero"></path>
            </g>
        </g>
    </g>
</svg>