<?xml version="1.0" encoding="UTF-8"?>
<svg width="20px" height="20px" viewBox="0 0 20 20" version="1.1" xmlns="http://www.w3.org/2000/svg" xmlns:xlink="http://www.w3.org/1999/xlink">
    <title>Performance monitor-second menu-pressed</title>
    <g id="Performance-monitor-second-menu-pressed" stroke="none" stroke-width="1" fill="none" fill-rule="evenodd">
        <g id="Performance-monitor">
            <rect id="矩形" x="0" y="0" width="20" height="20"></rect>
            <g id="指标" transform="translate(9.420000, 8.590262)" fill="#FFFFFF" fill-rule="nonzero" opacity="0.55">
                <path d="M2.95517035,0 C3.09862522,0 3.2420801,0.0669456067 3.34728033,0.172145846 C3.47160789,0.306037059 3.88284519,0.679019725 4.20800956,0.679019725 C4.53317394,0.679019725 4.94441124,0.315600717 5.06873879,0.172145846 C5.22175732,0.0095636581 5.46084877,-0.0382546324 5.66168559,0.0478182905 L5.67124925,0.0573819486 L6.71368799,0.669456067 L6.72325164,0.679019725 C6.91452481,0.832038255 6.98147041,1.09025702 6.88583383,1.31022116 C6.88583383,1.31022116 6.79019725,1.53974895 6.79019725,1.75014943 C6.79019725,2.38135087 7.27794381,2.8977884 7.88045427,2.8977884 L7.91870891,2.8977884 C8.10041841,2.8977884 8.24387328,3.06037059 8.25343694,3.32815302 C8.25343694,3.34728033 8.33950986,3.82546324 8.33950986,4.19844591 C8.33950986,4.57142857 8.25343694,5.04961148 8.25343694,5.06873879 C8.20561865,5.3173939 8.06216378,5.47997609 7.89001793,5.47997609 L7.8517633,5.47997609 C7.24925284,5.47997609 6.76150628,5.99641363 6.76150628,6.63717872 C6.76150628,6.8475792 6.85714286,7.07710699 6.85714286,7.07710699 C6.95277944,7.30663479 6.88583383,7.5552899 6.69456067,7.70830843 L6.68499701,7.71787209 L5.62343096,8.33950986 L5.6138673,8.33950986 C5.40346683,8.42558279 5.16437537,8.37776449 5.0209205,8.20561865 C4.88702929,8.05260012 4.47579199,7.66049014 4.14106396,7.66049014 C3.80633592,7.66049014 3.39509863,8.06216378 3.27077107,8.19605499 C3.11775254,8.35863718 2.88822475,8.41601913 2.67782427,8.3299462 L2.66826061,8.32038255 L1.64494919,7.70830843 L1.63538553,7.69874477 C1.44411237,7.54572624 1.37716677,7.28750747 1.47280335,7.06754334 C1.47280335,7.06754334 1.56843993,6.83801554 1.56843993,6.62761506 C1.56843993,5.98684997 1.08069337,5.47041243 0.478182905,5.47041243 L0.439928273,5.47041243 C0.267782427,5.47041243 0.133891213,5.30783025 0.0860729229,5.05917513 C0.0860729229,5.04004782 0,4.56186491 0,4.18888225 C0,3.81589958 0.0860729229,3.33771668 0.0860729229,3.31858936 C0.133891213,3.06993425 0.277346085,2.90735206 0.449491931,2.90735206 L0.487746563,2.90735206 C1.09025702,2.90735206 1.57800359,2.39091452 1.57800359,1.75971309 C1.57800359,1.54931261 1.48236701,1.31978482 1.48236701,1.31978482 C1.39629408,1.09025702 1.46323969,0.841601913 1.65451285,0.688583383 L1.66407651,0.679019725 L2.74476987,0.0478182905 L2.75433353,0.0382546324 C2.82127914,0.0095636581 2.88822475,0 2.95517035,0 Z M4.18888225,2.97429767 C3.52898984,2.98386133 3.00298864,3.51942618 3.00298864,4.17931859 C3.00298864,4.84877466 3.52898984,5.38433951 4.18888225,5.38433951 C4.839211,5.38433951 5.36521219,4.84877466 5.36521219,4.17931859 C5.37477585,3.51942618 4.84877466,2.98386133 4.18888225,2.97429767 Z" id="形状结合"></path>
            </g>
            <path d="M7.5,7.9 C7.83137085,7.9 8.1,8.16862915 8.1,8.5 L8.1,16.5 C8.1,16.8313708 7.83137085,17.1 7.5,17.1 C7.16862915,17.1 6.9,16.8313708 6.9,16.5 L6.9,8.5 C6.9,8.16862915 7.16862915,7.9 7.5,7.9 Z M3,11.9 C3.33137085,11.9 3.6,12.1686292 3.6,12.5 L3.6,16.5 C3.6,16.8313708 3.33137085,17.1 3,17.1 C2.66862915,17.1 2.4,16.8313708 2.4,16.5 L2.4,12.5 C2.4,12.1686292 2.66862915,11.9 3,11.9 Z M17.1281015,2.10068461 L17.141998,2.102 L17.15766,2.10273479 L17.2137732,2.11077264 C17.2240366,2.11276256 17.2344696,2.11505254 17.2448506,2.117625 C17.2656089,2.12276047 17.2856139,2.12888063 17.3051455,2.13598643 C17.3174594,2.14045944 17.3298976,2.1454503 17.3421973,2.15087787 C17.3638716,2.16047986 17.384565,2.17113344 17.4045175,2.18290893 L17.4240957,2.19495439 C17.4476123,2.21012278 17.4696617,2.22657601 17.4904736,2.24443071 C17.4937976,2.24728562 17.4976036,2.25062619 17.5013784,2.25402351 L17.550998,2.305 L17.5794877,2.33913156 C17.6385328,2.41763037 17.6788013,2.51088777 17.693651,2.61239954 C17.6950094,2.62208344 17.6961917,2.63175316 17.6971392,2.64144385 C17.6990263,2.66032765 17.7,2.68005012 17.7,2.7 L17.7,5.7 C17.7,6.03137085 17.4313708,6.3 17.1,6.3 C16.7686292,6.3 16.5,6.03137085 16.5,5.7 L16.499998,4.26199484 L13.0459761,8.10137884 C12.8243007,8.34768485 12.4449268,8.3676519 12.1986208,8.14597649 L7.602002,4.009 L3.0561642,8.15302404 C2.83846305,8.35143525 2.51442894,8.35958087 2.28833968,8.1869307 L2.20854635,8.11373058 C1.98533373,7.86881679 2.00292601,7.48932535 2.2478398,7.26611273 L7.19583741,2.75654435 C7.42379264,2.54878764 7.77212741,2.54769757 8.00137845,2.75402351 L12.555002,6.853 L15.751998,3.29999484 L14.1,3.3 C13.8017662,3.3 13.5543532,3.08241039 13.507853,2.79732312 L13.5,2.7 C13.5,2.36862915 13.7686292,2.1 14.1,2.1 L17.1281015,2.10068461 Z" id="形状结合" fill="#FFFFFF" fill-rule="nonzero"></path>
        </g>
    </g>
</svg>