<?xml version="1.0" encoding="UTF-8"?>
<svg width="20px" height="20px" viewBox="0 0 20 20" version="1.1" xmlns="http://www.w3.org/2000/svg" xmlns:xlink="http://www.w3.org/1999/xlink">
    <title>permission-inheritance-second-menu</title>
    <g id="permission-inheritance-second-menu" stroke="none" stroke-width="1" fill="none" fill-rule="evenodd">
        <g id="IT服务中心（首页）备份">
            <rect id="矩形" fill="#FFFFFF" opacity="0" x="0" y="0" width="20" height="20"></rect>
            <path d="M18,3 C18.5522847,3 19,3.44771525 19,4 L19,16 C19,16.5522847 18.5522847,17 18,17 L2,17 C1.44771525,17 1,16.5522847 1,16 L1,4 C1,3.44771525 1.44771525,3 2,3 L18,3 Z M6.795861,11.87 L4.38,11.87 C4.10385763,11.87 3.88,12.0938576 3.88,12.37 L3.88,14.6195164 C3.88,14.8956588 4.10385763,15.1195164 4.38,15.1195164 L6.795861,15.1195164 C7.07200337,15.1195164 7.295861,14.8956588 7.295861,14.6195164 L7.295861,12.37 C7.295861,12.0938576 7.07200337,11.87 6.795861,11.87 Z M11.211722,11.87 L8.795861,11.87 C8.51971863,11.87 8.295861,12.0938576 8.295861,12.37 L8.295861,14.6195164 C8.295861,14.8956588 8.51971863,15.1195164 8.795861,15.1195164 L11.211722,15.1195164 C11.4878644,15.1195164 11.711722,14.8956588 11.711722,14.6195164 L11.711722,12.37 C11.711722,12.0938576 11.4878644,11.87 11.211722,11.87 Z M15.627583,11.87 L13.211722,11.87 C12.9355796,11.87 12.711722,12.0938576 12.711722,12.37 L12.711722,14.6195164 C12.711722,14.8956588 12.9355796,15.1195164 13.211722,15.1195164 L15.627583,15.1195164 C15.9037254,15.1195164 16.127583,14.8956588 16.127583,14.6195164 L16.127583,12.37 C16.127583,12.0938576 15.9037254,11.87 15.627583,11.87 Z M7.895861,4.87 L4.48,4.87 C4.20385763,4.87 3.98,5.09385763 3.98,5.37 L3.98,8.57081875 C3.98,8.84696112 4.20385763,9.07081875 4.48,9.07081875 L7.895861,9.07081875 C8.17200337,9.07081875 8.395861,8.84696112 8.395861,8.57081875 L8.395,7.47 L13.9196472,7.47040937 L13.919,9.682 L13.06,9.68237911 L14.4139652,11.3071373 L15.7679304,9.68237911 L14.919,9.682 L14.9196472,6.97040937 C14.9196472,6.694267 14.6957896,6.47040937 14.4196472,6.47040937 L8.395,6.47 L8.395861,5.37 C8.395861,5.09385763 8.17200337,4.87 7.895861,4.87 Z" id="形状结合" fill="#57689C" fill-rule="nonzero"></path>
            <g id="编组-2" transform="translate(3.880000, 4.870000)"></g>
        </g>
    </g>
</svg>