<?xml version="1.0" encoding="UTF-8"?>
<svg width="20px" height="20px" viewBox="0 0 20 20" version="1.1" xmlns="http://www.w3.org/2000/svg" xmlns:xlink="http://www.w3.org/1999/xlink">
    <title>permission-inheritance-second-menu</title>
    <g id="permission-inheritance-second-menu" stroke="none" stroke-width="1" fill="none" fill-rule="evenodd">
        <g id="IT服务中心（首页）备份">
            <rect id="矩形" fill="#FFFFFF" opacity="0" x="0" y="0" width="20" height="20"></rect>
            <rect id="矩形" fill="#57689C" fill-rule="nonzero" x="1" y="3" width="18" height="14" rx="1"></rect>
            <g id="编组-2" transform="translate(3.880000, 4.870000)">
                <polygon id="三角形备份" fill="#FFFFFF" transform="translate(10.533965, 5.624758) scale(1, -1) translate(-10.533965, -5.624758) " points="10.5339652 4.81237911 11.8879304 6.43713733 9.18 6.43713733"></polygon>
                <rect id="矩形备份-8" fill="#FFFFFF" x="0.1" y="0" width="4.415861" height="4.20081875" rx="0.5"></rect>
                <path d="M0.5,7 L2.915861,7 C3.19200337,7 3.415861,7.22385763 3.415861,7.5 L3.415861,9.74951644 C3.415861,10.0256588 3.19200337,10.2495164 2.915861,10.2495164 L0.5,10.2495164 C0.223857625,10.2495164 3.38176876e-17,10.0256588 0,9.74951644 L0,7.5 C-3.38176876e-17,7.22385763 0.223857625,7 0.5,7 Z M4.915861,7 L7.331722,7 C7.60786437,7 7.831722,7.22385763 7.831722,7.5 L7.831722,9.74951644 C7.831722,10.0256588 7.60786437,10.2495164 7.331722,10.2495164 L4.915861,10.2495164 C4.63971863,10.2495164 4.415861,10.0256588 4.415861,9.74951644 L4.415861,7.5 C4.415861,7.22385763 4.63971863,7 4.915861,7 Z M9.331722,7 L11.747583,7 C12.0237254,7 12.247583,7.22385763 12.247583,7.5 L12.247583,9.74951644 C12.247583,10.0256588 12.0237254,10.2495164 11.747583,10.2495164 L9.331722,10.2495164 C9.05557963,10.2495164 8.831722,10.0256588 8.831722,9.74951644 L8.831722,7.5 C8.831722,7.22385763 9.05557963,7 9.331722,7 Z" id="形状结合" fill="#FFFFFF"></path>
                <polyline id="路径-3备份" stroke="#FFFFFF" stroke-linejoin="round" points="2.53964718 2.10040937 10.5396472 2.10040937 10.5396472 4.62475822 10.5396472 5.03094778"></polyline>
            </g>
        </g>
    </g>
</svg>