<?xml version="1.0" encoding="UTF-8"?>
<svg width="20px" height="20px" viewBox="0 0 20 20" version="1.1" xmlns="http://www.w3.org/2000/svg" xmlns:xlink="http://www.w3.org/1999/xlink">
    <title>persistent-volume-statement-second-menu</title>
    <g id="persistent-volume-statement-second-menu" stroke="none" stroke-width="1" fill="none" fill-rule="evenodd">
        <rect id="矩形" fill="#000000" opacity="0" x="0" y="0" width="20" height="20"></rect>
        <g id="infrastructure" transform="translate(3.000000, 2.000000)" fill="#57689C">
            <path d="M7.14250286,0 C5.03772571,0 3.17458286,0.428457143 1.86933714,1.08108571 C0.512742857,1.75938286 0,2.53785143 0,3.14285714 C0,3.74786286 0.512742857,4.52633143 1.86933714,5.20462857 C3.17458286,5.85725714 5.03772571,6.28571429 7.14250286,6.28571429 C9.24728,6.28571429 11.1104,5.85725714 12.4156571,5.20462857 C13.7722286,4.52633143 14.2850286,3.74786286 14.2850286,3.14285714 C14.2850286,2.53785143 13.7722286,1.75938286 12.4156571,1.08108571 C11.1104,0.428457143 9.24728,0 7.14250286,0 Z" id="路径"></path>
            <path d="M14.2857143,5.88284571 C14.0076571,6.21485714 13.6466286,6.50595429 13.1826286,6.73793143 C11.5926857,7.53293714 9.45611429,7.99994286 7.14285714,7.99998857 C4.82964571,7.99994286 2.69305143,7.53293714 1.10304,6.73793143 C0.639085714,6.50595429 0.278034286,6.21485714 0,5.88284571 L0,8.28570286 L0.000354285714,8.28570286 C0.000354285714,8.89070857 0.513097143,9.66917714 1.86969143,10.3475429 C3.17493714,11.0001143 5.03808,11.4285714 7.14285714,11.4285714 C9.24763429,11.4285714 11.1107429,11.0001143 12.416,10.3475429 C13.7725714,9.66917714 14.2853714,8.89070857 14.2853714,8.28570286 L14.2857143,8.28570286 L14.2857143,5.88284571 Z M0,12.9403429 L0,11.0257143 C0.278034286,11.3577143 0.639085714,11.6488 1.10304,11.8808 C2.69305143,12.6757714 4.82964571,13.1428571 7.14285714,13.1428571 C9.45611429,13.1428571 11.5926857,12.6757714 13.1826286,11.8808 C13.6466286,11.6488 14.0076571,11.3577143 14.2857143,11.0257143 L14.2857143,12.9403429 L14.2740571,13.0230857 C14.1891429,13.6244571 13.5874286,14.3737143 12.2444571,15.0020571 C10.9483429,15.6084571 9.15483429,16 7.14285714,16 C5.13088,16 3.33736,15.6084571 2.04121143,15.0020571 C0.698308571,14.3737143 0.0965714286,13.6244571 0.01168,13.0230857 L0,12.9403429 Z" id="形状" opacity="0.55"></path>
        </g>
    </g>
</svg>