<?xml version="1.0" encoding="UTF-8"?>
<svg width="20px" height="20px" viewBox="0 0 20 20" version="1.1" xmlns="http://www.w3.org/2000/svg" xmlns:xlink="http://www.w3.org/1999/xlink">
    <title>pipeline-second-menu</title>
    <g id="pipeline-second-menu" stroke="none" stroke-width="1" fill="none" fill-rule="evenodd">
        <rect id="矩形" fill="#000000" opacity="0" x="0" y="0" width="20" height="20"></rect>
        <path d="M16,2 C16.5522847,2 17,2.44771525 17,3 L17,17 C17,17.5522847 16.5522847,18 16,18 L4,18 C3.44771525,18 3,17.5522847 3,17 L3,3 C3,2.44771525 3.44771525,2 4,2 L16,2 Z M6.59230769,5 C5.71290044,5 5,5.72517259 5,6.61971831 C5,7.51426403 5.71290044,8.23943662 6.59230769,8.23943662 C7.25524547,8.23943662 7.82356008,7.82733262 8.0631772,7.24122841 L13.2801777,7.24014085 L13.2801777,9.52014085 L5.28076923,9.52042254 L5.28076923,14.0007042 L11.9365891,14.0012199 C12.1760703,14.5876279 12.7445389,15 13.4076923,15 C14.2870996,15 15,14.2748274 15,13.3802817 C15,12.485736 14.2870996,11.7605634 13.4076923,11.7605634 C12.6927182,11.7605634 12.0878048,12.2399015 11.8865863,12.8998889 L6.38162839,12.9004225 L6.38162839,10.6204225 L14.3807692,10.6204225 L14.3807692,6.14014085 L8.11352535,6.13969199 C7.91241911,5.47951557 7.30741417,5 6.59230769,5 Z" id="形状" fill="#57689C" fill-rule="nonzero"></path>
        <g id="编组-8" transform="translate(5.000000, 5.000000)"></g>
    </g>
</svg>