<?xml version="1.0" encoding="UTF-8"?>
<svg width="20px" height="20px" viewBox="0 0 20 20" version="1.1" xmlns="http://www.w3.org/2000/svg" xmlns:xlink="http://www.w3.org/1999/xlink">
    <title>Pipeline-task-history-second-menu</title>
    <g id="Pipeline-task-history-second-menu" stroke="none" stroke-width="1" fill="none" fill-rule="evenodd">
        <rect id="矩形" fill="#000000" opacity="0" x="0" y="0" width="20" height="20"></rect>
        <path d="M14,18 L4,18 C3.44771525,18 3,17.5522847 3,17 L3,3 C3,2.44771525 3.44771525,2 4,2 L16,2 C16.5522847,2 17,2.44771525 17,3 L17.0009561,11.3552593 C16.3467608,10.6135239 15.4218712,10.1162184 14.3808383,10.017894 L14.3807692,6.14014085 L8.11352535,6.13969199 C7.91241911,5.47951557 7.30741417,5 6.59230769,5 C5.71290044,5 5,5.72517259 5,6.61971831 C5,7.51426403 5.71290044,8.23943662 6.59230769,8.23943662 C7.25524547,8.23943662 7.82356008,7.82733262 8.0631772,7.24122841 L13.2801777,7.24014085 L13.2801777,9.52014085 L5.28076923,9.52042254 L5.28076923,14.0007042 L10,14 C10,16.209139 11.790861,18 14,18 Z M10.1530743,12.9002725 L6.38162839,12.9004225 L6.38162839,10.6204225 L11.8602976,10.6197976 C11.0420285,11.1388552 10.4251164,11.9468511 10.1530743,12.9002725 Z" id="形状" fill="#57689C" opacity="0.55"></path>
        <path d="M14,10 C16.209139,10 18,11.790861 18,14 C18,16.209139 16.209139,18 14,18 C11.790861,18 10,16.209139 10,14 C10,11.790861 11.790861,10 14,10 Z M14.48,11.52 L13.52,11.52 L13.52,13.4251279 C13.52,13.5162545 13.5459399,13.6054983 13.5947873,13.6824268 L14.8520861,15.6625115 L15.6625115,15.1479139 L14.48,13.285 L14.48,11.52 Z" id="形状" fill="#57689C"></path>
    </g>
</svg>