<?xml version="1.0" encoding="UTF-8"?>
<svg width="20px" height="20px" viewBox="0 0 20 20" version="1.1" xmlns="http://www.w3.org/2000/svg" xmlns:xlink="http://www.w3.org/1999/xlink">
    <title>placeholder-second-menu</title>
    <g id="placeholder-second-menu" stroke="none" stroke-width="1" fill="none" fill-rule="evenodd">
        <rect id="矩形" fill="#FFFFFF" opacity="0" x="0" y="0" width="20" height="20"></rect>
        <g id="-Placeholder" transform="translate(2.000000, 2.000000)">
            <rect id="矩形" fill="#FFFFFF" opacity="0" x="0" y="0" width="16" height="16"></rect>
            <g id="图形" transform="translate(1.562429, 0.000000)" fill="#57689C">
                <path d="M11.2909505,0 C11.6460172,0 11.9926644,0.115075819 12.2749658,0.329651674 C12.9900336,0.87317099 13.1017625,1.89252373 12.5096768,2.57108705 C10.5743631,4.78906476 10.5743631,4.78906476 9.34279981,6.20050511 C8.97969372,6.616645 8.34799003,6.65963738 7.93185014,6.29653128 C7.51571026,5.93342518 7.47271788,5.3017215 7.83582397,4.88558161 C8.88493343,3.68324353 9.04035705,3.50511937 10.2596924,2.10769292 L10.352,2 L2.537,2 L12.5096768,13.4289129 C13.0669339,14.0675608 13.0007429,15.0080844 12.3948708,15.5696599 L12.2749658,15.6703483 C11.9926644,15.8849242 11.6460172,16 11.2909505,16 L1.60000002,16 C0.731173491,16 0,15.3175714 0,14.44 C0,14.0674839 0.136405036,13.7095461 0.381273703,13.4289129 C1.63244473,11.995001 2.10702685,11.4511034 2.52439347,10.9727779 L2.73163925,10.7352626 C2.91754031,10.5222096 3.11582262,10.294967 3.38964105,9.9811558 C3.75274715,9.56501591 4.38445083,9.52202353 4.80059072,9.88512963 C5.21673061,10.2482357 5.25972299,10.8799394 4.89661689,11.2960793 C4.62279846,11.6098905 4.42451615,11.8371331 4.23861509,12.0501861 L4.03136931,12.2877014 C3.70675083,12.6597323 3.3475205,13.0714304 2.61520771,13.9107017 L2.537,14 L10.354,14 L0.381273703,2.57108705 C0.171386274,2.33054433 0.0411864108,2.03320642 0.00826986689,1.71857436 L0,1.56000002 C0,0.682428592 0.731173491,0 1.60000002,0 L11.2909505,0 Z" id="路径" fill-rule="nonzero"></path>
                <path d="M4.26757075,2.5 L8.60090375,2.5 L6.43423725,5.2278947 L4.26757075,2.5 Z M4.26757075,13.5499997 L8.60090375,13.5499997 L6.44548469,10.9639456 L4.26757075,13.5499997 Z" id="形状结合" opacity="0.550000012"></path>
            </g>
        </g>
    </g>
</svg>