<?xml version="1.0" encoding="UTF-8"?>
<svg width="20px" height="20px" viewBox="0 0 20 20" version="1.1" xmlns="http://www.w3.org/2000/svg" xmlns:xlink="http://www.w3.org/1999/xlink">
    <title>plugin market 2</title>
    <g id="plugin-market" stroke="none" stroke-width="1" fill="none" fill-rule="evenodd">
        <rect id="矩形" fill="#000000" opacity="0" x="0" y="0" width="20" height="20"></rect>
        <g transform="translate(2.000000, 2.000000)" fill="#FFFFFF">
            <path d="M15.8991451,4.02723866 C16.0336183,3.89476373 16.0336183,3.6828038 15.8991451,3.54370508 L12.3423289,0.039742474 C12.2885397,-0.0132474913 12.1944084,-0.0132474913 12.1406192,0.039742474 L11.1051755,1.05979964 C11.0513862,1.11278961 11.0513862,1.19227461 11.0917282,1.24526457 C11.4413585,1.68243195 11.3606746,2.31168798 10.916913,2.65612288 C10.5471117,2.94094401 10.0293899,2.94094401 9.65958861,2.65612288 C9.60579931,2.60975664 9.51839173,2.61638039 9.4713261,2.66937036 L8.43588246,3.68942753 C8.3820932,3.74241753 8.3820932,3.83515001 8.43588246,3.88813998 L9.4713261,4.90819714 C9.52511537,4.96118711 9.52511537,5.04067211 9.48477345,5.09366207 C9.13514312,5.53082945 9.21582703,6.16008548 9.65958861,6.50452038 C10.0293899,6.78934151 10.5471117,6.78934151 10.916913,6.50452038 C10.9707023,6.45815414 11.0581099,6.4647779 11.1051755,6.51776786 L12.1406192,7.53782503 C12.1944084,7.59081503 12.2885397,7.59081503 12.3423289,7.53782503 L13.3777726,6.51776786 C13.4315618,6.4647779 13.5122458,6.4647779 13.5660351,6.50452038 C14.0097966,6.84895524 14.6485444,6.76947027 14.9981747,6.33230293 C15.2872921,5.96799679 15.2872921,5.45796821 14.9981747,5.09366207 C14.951109,5.04067211 14.9578327,4.95456338 15.011622,4.90819714 L15.8991451,4.02723866 Z" id="路径"></path>
            <path d="M9.44112388,8.8528174 C9.50836048,8.8528174 9.56214974,8.9058074 9.56887341,8.96542113 C9.62266271,9.42908347 9.99246402,9.80001337 10.4698439,9.85300333 C11.0279077,9.91261709 11.5321822,9.5151922 11.5926951,8.96542113 C11.6061424,8.89918365 11.6599317,8.8528174 11.7204447,8.8528174 L11.7204447,8.8528174 L13.2130972,8.8528174 C13.2803338,8.8528174 13.3408467,8.9058074 13.3408467,8.98529237 L13.3408467,8.98529237 L13.3408467,13.959727 C13.3408467,14.1451919 13.1862025,14.2975381 12.9979401,14.2975381 L12.9979401,14.2975381 L11.6061424,14.2975381 C11.6061424,14.853933 11.1489335,15.3043478 10.5841461,15.3043478 C10.0193587,15.3043478 9.56214978,14.853933 9.56214978,14.2975381 L9.56214978,14.2975381 L7.82072184,14.2975381 L7.82072184,12.5819875 C7.25593436,12.5819875 6.7987255,12.1315726 6.7987255,11.5751778 C6.7987255,11.0187829 7.25593439,10.5683681 7.82072184,10.5683681 L7.82072184,10.5683681 L7.82072184,8.8528174 L9.44112388,8.8528174 Z M3.77869694,7.85995877 C4.34348439,7.85995877 4.80069328,8.31037364 4.80069328,8.86676846 L4.80069328,8.86676846 L6.54212122,8.86676846 L6.54212122,10.5823191 C5.97733377,10.5756954 5.52012488,11.0261102 5.52012488,11.5825051 C5.52012492,12.1388999 5.97733381,12.5893148 6.54212122,12.5893148 L6.54212122,12.5893148 L6.54212122,14.3048654 L1.364903,14.3048654 C1.17664052,14.3048654 1.02199634,14.1525192 1.02199634,13.9670543 L1.02199634,13.9670543 L1.02199634,12.5959385 C0.457208889,12.5959385 0,12.1455236 0,11.5891288 C0,11.032734 0.457208889,10.5823191 1.02199634,10.5823191 L1.02199634,10.5823191 L1.02199634,8.86676846 L2.75670064,8.86676846 C2.75670064,8.31037364 3.21390949,7.85995877 3.77869694,7.85995877 Z M6.40764801,2.1690706 C6.48160829,2.1690706 6.53539758,2.22868433 6.53539758,2.29492181 L6.53539758,2.29492181 L6.53539758,3.77201759 C6.53539758,3.83163132 6.58918685,3.88462132 6.64969978,3.89124504 C7.12707965,3.93761128 7.50360462,4.30854118 7.56411756,4.785451 C7.62463049,5.33522211 7.2212109,5.83200317 6.66314712,5.8916169 C6.59591052,5.89824066 6.54884489,5.95123062 6.54884489,6.01084434 L6.54884489,6.01084434 L6.54884489,7.60716761 L4.80741692,7.60716761 C4.80741692,7.05077279 4.35020806,6.60035793 3.78542061,6.60035793 C3.22063317,6.60035793 2.76342428,7.05077279 2.76342428,7.60716761 L2.76342428,7.60716761 L1.02199634,7.60716761 L1.02199634,5.99759686 C1.02199634,5.93798314 1.06233829,5.8916169 1.12285123,5.88499317 C1.60695476,5.83862693 1.99020338,5.46107328 2.037269,4.98416345 C2.0910583,4.43439239 1.68091501,3.93761128 1.12285123,3.88462132 C1.06233829,3.87799756 1.02199634,3.83163132 1.02199634,3.77201759 L1.02199634,3.77201759 L1.02199634,2.50688174 C1.02199634,2.32141681 1.17664052,2.1690706 1.364903,2.1690706 L1.364903,2.1690706 L6.40764801,2.1690706 Z" id="形状结合" opacity="0.55"></path>
        </g>
    </g>
</svg>