<?xml version="1.0" encoding="UTF-8"?>
<svg width="20px" height="20px" viewBox="0 0 20 20" version="1.1" xmlns="http://www.w3.org/2000/svg" xmlns:xlink="http://www.w3.org/1999/xlink">
    <title>Plugin Center 2</title>
    <g id="Plugin-Center" stroke="none" stroke-width="1" fill="none" fill-rule="evenodd">
        <rect id="矩形" fill="#000000" opacity="0" x="0" y="0" width="20" height="20"></rect>
        <g id="编组" transform="translate(2.000000, 2.000000)">
            <path d="M12.8394267,6.96454155 C13.0096542,6.93109524 13.1858441,6.91353747 13.3662715,6.91353747 C14.8208396,6.91353747 16,8.05466047 16,9.46230704 C16,10.8699536 14.8208396,12.0110766 13.3662715,12.0110766 C13.1858441,12.0110766 13.0096542,11.9935189 12.8394267,11.9600726 L12.8394267,6.96454155 Z" id="路径" fill="#FFFFFF"></path>
            <path d="M11.8394267,2.96294463 C12.3917115,2.96294463 12.8394267,3.41065988 12.8394267,3.96294463 L12.8394267,14.8023714 C12.8394267,15.3546561 12.3917115,15.8023714 11.8394267,15.8023714 L1,15.8023714 C0.44771525,15.8023714 5.11724585e-16,15.3546561 0,14.8023714 L0,3.96294463 C-6.76353751e-17,3.41065988 0.44771525,2.96294463 1,2.96294463 L11.8394267,2.96294463 Z M5.08520311,5.92588926 C3.1699557,5.92588926 1.97529642,7.32975154 1.97529642,9.59611745 C1.97529642,12.0276436 3.06566005,13.2663456 5.17053591,13.2663456 C6.68756356,13.2663456 7.59778015,12.5047733 8.00548133,10.8806973 L6.18504815,10.6604836 C6.03334539,11.6697963 5.71097701,12.0735215 5.04727741,12.0735215 C4.26980074,12.0735215 3.77676676,11.0183309 3.77676676,9.53188846 C3.77676676,7.98121704 4.22239363,7.11871342 4.99038888,7.11871342 C5.68253274,7.11871342 6.04282681,7.56831637 6.13764104,8.57762913 L7.90118568,8.19225517 C7.63570584,6.73333947 6.63067503,5.92588926 5.08520311,5.92588926 Z M10.755094,6.01764496 L9.00103073,6.01764496 L9.00103073,13.1745899 L10.755094,13.1745899 L10.755094,6.01764496 Z" id="形状结合" fill="#FFFFFF" opacity="0.55"></path>
            <g id="编组-5" transform="translate(1.975296, 5.925889)"></g>
            <path d="M6.5843214,0 C8.03888952,0 9.21804996,1.1572854 9.21804996,2.54876958 C9.21804996,2.57714472 3.95059284,2.57714472 3.95059284,2.54876958 C3.95059284,1.14112301 5.12975328,0 6.5843214,0 Z" id="路径" fill="#FFFFFF"></path>
        </g>
    </g>
</svg>