<?xml version="1.0" encoding="UTF-8"?>
<svg width="20px" height="20px" viewBox="0 0 20 20" version="1.1" xmlns="http://www.w3.org/2000/svg" xmlns:xlink="http://www.w3.org/1999/xlink">
    <title>plugin-center-second-menu</title>
    <g id="plugin-center-second-menu" stroke="none" stroke-width="1" fill="none" fill-rule="evenodd">
        <rect id="矩形" fill="#000000" opacity="0" x="0" y="0" width="20" height="20"></rect>
        <path d="M15.3662715,8.91353747 C16.8208396,8.91353747 18,10.0546605 18,11.462307 C18,12.8699536 16.8208396,14.0110766 15.3662715,14.0110766 C15.1858441,14.0110766 15.0096542,13.9935189 14.8394267,13.9600726 L14.8394267,8.96454155 C15.0096542,8.93109524 15.1858441,8.91353747 15.3662715,8.91353747 Z M8.5843214,2 C10.0388895,2 11.21805,3.14112301 11.21805,4.54876958 C11.21805,4.68966303 11.2062368,4.82788637 11.1835166,4.96256259 L5.98512618,4.96256259 C5.96240603,4.82788637 5.95059284,4.68966303 5.95059284,4.54876958 C5.95059284,3.14112301 7.12975328,2 8.5843214,2 Z" id="形状" fill="#57689C"></path>
        <path d="M13.8394267,4.96294463 C14.3917115,4.96294463 14.8394267,5.41065988 14.8394267,5.96294463 L14.8394267,16.8023714 C14.8394267,17.3546561 14.3917115,17.8023714 13.8394267,17.8023714 L3,17.8023714 C2.44771525,17.8023714 2,17.3546561 2,16.8023714 L2,5.96294463 C2,5.41065988 2.44771525,4.96294463 3,4.96294463 L13.8394267,4.96294463 Z M7.08520311,7.92588926 C5.1699557,7.92588926 3.97529642,9.32975154 3.97529642,11.5961174 C3.97529642,14.0276436 5.06566005,15.2663456 7.17053591,15.2663456 C8.68756356,15.2663456 9.59778015,14.5047733 10.0054813,12.8806973 L8.18504815,12.6604836 C8.03334539,13.6697963 7.71097701,14.0735215 7.04727741,14.0735215 C6.26980074,14.0735215 5.77676676,13.0183309 5.77676676,11.5318885 C5.77676676,9.98121704 6.22239363,9.11871342 6.99038888,9.11871342 C7.68253274,9.11871342 8.04282681,9.56831637 8.13764104,10.5776291 L9.90118568,10.1922552 C9.63570584,8.73333947 8.63067503,7.92588926 7.08520311,7.92588926 Z M12.755094,8.01764496 L11.0010307,8.01764496 L11.0010307,15.1745899 L12.755094,15.1745899 L12.755094,8.01764496 Z" id="形状" fill="#57689C" opacity="0.55"></path>
    </g>
</svg>