<?xml version="1.0" encoding="UTF-8"?>
<svg width="20px" height="20px" viewBox="0 0 20 20" version="1.1" xmlns="http://www.w3.org/2000/svg" xmlns:xlink="http://www.w3.org/1999/xlink">
    <title>polardb-oracle-second-menu</title>
    <g id="polardb-oracle-second-menu" stroke="none" stroke-width="1" fill="none" fill-rule="evenodd">
        <rect id="矩形" fill-opacity="0" fill="#D8D8D8" x="0" y="0" width="20" height="20"></rect>
        <g id="polardb-云数据库-PolarDB" transform="translate(2.580000, 2.230000)" fill="#57689C" fill-rule="nonzero">
            <path d="M7.22402597,0 C11.5097403,0 14.9918831,3.48214286 15,7.75974026 C15,12.0535714 11.5178571,15.5275974 7.23214286,15.5275974 L5.69805195,15.5275974 C5.76642569,15.307282 5.83878136,15.0824158 5.9150657,14.8551818 L5.23538961,15.5357143 L5.12175325,15.5357143 L5.97301475,14.6843464 C6.02750607,14.5253675 6.08389632,14.3655049 6.14216752,14.2054958 L4.81331169,15.5357143 L4.69967532,15.5357143 L6.20826957,14.0261214 C6.26768396,13.8668027 6.3289563,13.7076118 6.39206883,13.5492766 L4.40746753,15.5357143 L4.29383117,15.5357143 L6.4693766,13.3580474 C6.53976633,13.1863896 6.61233273,13.0160967 6.68705282,12.8481101 L4.00162338,15.5357143 L3.88798701,15.5357143 L6.78207135,12.6383158 C6.89248122,12.3989565 7.00735489,12.16522 7.12662338,11.9399351 L7.068,12.054 L3.58766234,15.5357143 L3.46590909,15.5438312 L7.19525964,11.8132053 C7.33615779,11.5579481 7.49050507,11.3072204 7.65445708,11.0624783 L3.18181818,15.5357143 L3.06818182,15.5357143 L7.91704645,10.6863284 C9.46807783,8.54996176 11.6314935,6.95616883 11.6314935,6.95616883 L11.703,6.527 L2.69480519,15.5357143 L2.58116883,15.5357143 L11.726,6.389 L11.7938312,5.99025974 L11.8912338,5.92532468 C12.1347403,5.76298701 12.2727273,5.48701299 12.2564935,5.19480519 C12.2159091,4.62662338 11.9724026,3.87175325 11.8668831,3.82305195 C11.5422078,3.66071429 10.0162338,4.06655844 10.0162338,4.06655844 L8.85551948,3.29545455 C8.66883117,3.1737013 8.44155844,3.125 8.2224026,3.16558442 L7.36201299,3.50649351 L5.59253247,3.50649351 C5.17045455,3.53084416 4.29383117,3.82305195 3.96915584,4.09902597 L3.24013949,4.55717893 L3.48214286,4.80519481 C3.57954545,4.89448052 3.43344156,5.03246753 3.34415584,4.94318182 C3.19805195,4.79707792 3.05194805,4.63474026 2.88961039,4.50487013 C2.49188312,4.18019481 1.90746753,4.16396104 1.50162338,4.50487013 C1.11201299,4.83766234 0.982142857,5.41396104 1.23376623,5.86850649 C1.35551948,6.07954545 1.55032468,6.24188312 1.72077922,6.41233766 C1.81006494,6.50162338 1.66396104,6.63961039 1.57467532,6.55032468 C1.3789434,6.34900041 1.18321147,6.16308811 1.05384504,5.9288769 L0,6.59090909 L0,0 Z M11.5016234,6.26623377 L2.24025974,15.5357143 L2.12662338,15.5357143 L11.2905844,6.37175325 C11.3636364,6.33116883 11.4366883,6.2987013 11.5016234,6.26623377 Z M10.7548701,6.53409091 L1.76136364,15.5357143 L1.64772727,15.5357143 L10.5925325,6.58279221 C10.6493506,6.56655844 10.7061688,6.55032468 10.7548701,6.53409091 Z M9.96753247,6.85064935 L1.45292208,15.3652597 C1.49350649,15.2840909 1.53409091,15.2029221 1.58279221,15.1217532 L9.74837662,6.95616883 C9.82142857,6.9237013 9.89448052,6.88311688 9.96753247,6.85064935 Z M9.03409091,7.31331169 L2.06168831,14.2857143 C2.11850649,14.1883117 2.18344156,14.0909091 2.24025974,13.9935065 L8.78246753,7.4512987 C8.86363636,7.4025974 8.94480519,7.3538961 9.03409091,7.31331169 Z M11.5665584,4.01785714 C11.6396104,4.00162338 11.7207792,4.04220779 11.7532468,4.11525974 L11.9237013,4.53733766 C11.9805195,4.68344156 11.9399351,4.8538961 11.8100649,4.95941558 L11.2175325,5.43019481 L10.211039,5.30844156 C10.0324675,5.29220779 9.89448052,5.17045455 9.83766234,5.00811688 L9.73214286,4.68344156 C9.69967532,4.59415584 9.74837662,4.49675325 9.84577922,4.4724026 Z M6.53409091,4.36688312 C6.68019481,4.26136364 6.88311688,4.28571429 6.99675325,4.4237013 L7.3538961,4.86201299 L5.60876623,5.02435065 Z M9.33590909,3.81032468 L9.375,3.81493506 L10.0081169,4.06655844 L9.36688312,4.2288961 L9.26136364,3.92045455 C9.23701299,3.85551948 9.31006494,3.79058442 9.375,3.81493506 Z M3.09253247,8.73376623 L3.1461039,8.84090909 L3.19967532,8.78733766 L3.09253247,8.73376623 Z M3.11136364,8.74188312 L3.10064935,8.7525974 L3.16493506,8.84902597 L3.20779221,8.80616883 L3.11136364,8.74188312 Z M3.40909091,8.93668831 L3.28733766,9.06655844 L3.32792208,9.13961039 L3.48214286,8.98538961 L3.40909091,8.93668831 Z M3.70941558,9.13149351 L3.46590909,9.375 L3.50649351,9.44805195 L3.78246753,9.18019481 L3.70941558,9.13149351 Z M4.01785714,9.33441558 L3.66071429,9.67532468 C3.67694805,9.69967532 3.7012987,9.71590909 3.71753247,9.73214286 L4.08279221,9.36688312 C4.06655844,9.35876623 4.04220779,9.34253247 4.01785714,9.33441558 Z M4.35064935,9.48051948 L3.92045455,9.91071429 C3.94480519,9.92694805 3.96915584,9.93506494 3.99350649,9.9512987 L4.43993506,9.50487013 C4.41558442,9.48863636 4.38311688,9.48863636 4.35064935,9.48051948 Z M4.95941558,9.46428571 C4.91883117,9.48051948 4.87824675,9.48863636 4.82954545,9.49675325 L4.2775974,10.0487013 C4.31006494,10.0568182 4.34253247,10.0568182 4.375,10.0649351 L4.98376623,9.45616883 L4.95941558,9.46428571 Z M5.53571429,9.2775974 L4.78896104,10.0243506 C4.84577922,10.0081169 4.91071429,9.98376623 4.96753247,9.95941558 L5.70616883,9.22077922 L5.53571429,9.2775974 Z M6.25811688,9.05844156 L5.81980519,9.48863636 L6.07954545,9.34253247 L6.42857143,9.00162338 L6.25811688,9.05844156 Z M6.89935065,8.85551948 L6.8262987,8.92857143 L7.03733766,8.81493506 L6.89935065,8.85551948 Z" id="形状结合"></path>
        </g>
    </g>
</svg>