<?xml version="1.0" encoding="UTF-8"?>
<svg width="20px" height="20px" viewBox="0 0 20 20" version="1.1" xmlns="http://www.w3.org/2000/svg" xmlns:xlink="http://www.w3.org/1999/xlink">
    <title>Pools-second menu-pressed</title>
    <g id="Pools-second-menu-pressed" stroke="none" stroke-width="1" fill="none" fill-rule="evenodd">
        <g id="储存POOL">
            <polygon id="矩形备份-14" points="0 0 20 0 20 20 13.6025995 20 0 20"></polygon>
            <g id="图形" transform="translate(2.000000, 2.000000)" fill="#FFFFFF">
                <path d="M12.6311111,0 C13.0444444,0 13.4044444,0.294693457 13.4977778,0.714408381 L15.8597564,11.4378147 C15.948455,11.5760129 16,11.740057 16,11.9155556 L16,15.1111111 C16,15.6 15.6044444,16 15.1111111,16 L0.888888889,16 C0.4,16 0,15.6 0,15.1111111 L0,11.9155556 C0,11.7155972 0.0669142417,11.5305088 0.179456268,11.3815766 L2.57777778,0.714408381 C2.66666667,0.299158509 3.02666667,0 3.44444444,0 L12.6311111,0 Z M11.7470204,1.78 L4.31284299,1.78 C3.97476235,1.78 3.68343755,2.03313412 3.6115055,2.3844994 L1.753,11.026 L4.359081,11.0259619 C4.85861105,11.0258452 5.27039232,11.4017847 5.32675707,11.8862082 L5.33333333,11.9999011 C5.33333333,12.9818396 6.12927156,13.7777778 7.11111111,13.7777778 L8.88888889,13.7777778 C9.82163647,13.7777778 10.5866081,13.0594435 10.6607734,12.1458054 L10.6666667,12 C10.6666667,11.5004699 11.0426909,11.088765 11.5271258,11.0324987 L11.640919,11.0259619 L14.268,11.026 L12.4483579,2.3844994 C12.3803821,2.06487034 12.1376114,1.83092907 11.8458982,1.78733711 L11.7470204,1.78 Z" id="形状结合" opacity="0.550000012"></path>
                <path d="M10.2222222,4.58333333 L5.77777778,4.58333333 L5.77777778,6.08333333 L10.2222222,6.08333333 L10.2222222,4.58333333 Z M11.1111111,6.65 L4.88888889,6.65 L4.88888889,8.15 L11.1111111,8.15 L11.1111111,6.65 Z" id="形状结合" fill-rule="nonzero"></path>
            </g>
        </g>
    </g>
</svg>