<?xml version="1.0" encoding="UTF-8"?>
<svg width="20px" height="20px" viewBox="0 0 20 20" version="1.1" xmlns="http://www.w3.org/2000/svg" xmlns:xlink="http://www.w3.org/1999/xlink">
    <title>Pools-second menu-normal</title>
    <g id="Pools-second-menu-normal" stroke="none" stroke-width="1" fill="none" fill-rule="evenodd">
        <g id="储存POOL">
            <polygon id="矩形备份-14" points="0 0 20 0 20 20 13.6025995 20 0 20"></polygon>
            <g id="图形" transform="translate(2.000000, 3.000000)">
                <path d="M12.6311111,0 C13.0444444,0 13.4044444,0.294693457 13.4977778,0.714408381 L15.8552906,10.4309264 C15.9467225,10.5705479 16,10.737132 16,10.9155556 L16,14.1111111 C16,14.6 15.6044444,15 15.1111111,15 L0.888888889,15 C0.4,15 0,14.6 0,14.1111111 L0,10.9155556 C0,10.7123869 0.0690801122,10.5245694 0.184912066,10.3744313 L2.57777778,0.714408381 C2.66666667,0.299158509 3.02666667,0 3.44444444,0 L12.6311111,0 Z M11.7470204,1.78 L4.31284299,1.78 C3.97476235,1.78 3.68343755,2.03313412 3.6115055,2.3844994 L1.767,10.026 L4.359081,10.0259619 C4.85861105,10.0258452 5.27039232,10.4017847 5.32675707,10.8862082 L5.33333333,10.9999011 C5.33333333,11.9818396 6.12927156,12.7777778 7.11111111,12.7777778 L8.88888889,12.7777778 C9.82163647,12.7777778 10.5866081,12.0594435 10.6607734,11.1458054 L10.6666667,11 C10.6666667,10.5004699 11.0426909,10.088765 11.5271258,10.0324987 L11.640919,10.0259619 L14.254,10.026 L12.4483579,2.3844994 C12.3803821,2.06487034 12.1376114,1.83092907 11.8458982,1.78733711 L11.7470204,1.78 Z" id="形状结合" fill="#9FAECF"></path>
                <polygon id="直线-3" fill="#57689C" fill-rule="nonzero" points="10.2222222 3.58333333 5.77777778 3.58333333 5.77777778 5.08333333 10.2222222 5.08333333"></polygon>
                <polygon id="直线-3" fill="#57689C" fill-rule="nonzero" points="11.1111111 5.65 4.88888889 5.65 4.88888889 7.15 11.1111111 7.15"></polygon>
            </g>
        </g>
    </g>
</svg>