<?xml version="1.0" encoding="UTF-8"?>
<svg width="20px" height="20px" viewBox="0 0 20 20" version="1.1" xmlns="http://www.w3.org/2000/svg" xmlns:xlink="http://www.w3.org/1999/xlink">
    <title>postgresql-second-menu-normal</title>
    <g id="postgresql-second-menu-normal" stroke="none" stroke-width="1" fill="none" fill-rule="evenodd">
        <g id="postgresql-(1)" transform="translate(1.330000, 1.080000)">
            <rect id="边框" fill-opacity="0" fill="#D8D8D8" x="0.282972511" y="0.229939974" width="16.8262428" height="16.8262428"></rect>
            <path d="M12.6851907,0.000308570436 C14.0132143,-0.0123543536 15.7100452,0.360410291 16.9280597,1.91715775 C17.2018953,2.26697086 17.2834128,2.77823616 17.2739156,3.40821632 C17.263627,4.03740506 17.1472864,4.79084867 16.9343911,5.61631263 C16.5212634,7.21500601 15.7409111,9.07882923 14.6416115,10.7511258 C14.6804362,10.7787095 14.7224154,10.8015589 14.7666579,10.819189 C14.9961733,10.9141609 15.5193101,10.9956784 16.5632093,10.7812003 C16.8259649,10.7258 17.0182829,10.6886027 17.2177239,10.8405577 C17.3159749,10.9238369 17.3695718,11.0483106 17.362556,11.1769164 C17.3519059,11.2729803 17.3164495,11.3646216 17.2596698,11.4428377 C17.0578546,11.7459563 16.6597641,12.0332462 16.1492902,12.2698845 C15.6973823,12.4804055 15.0491992,12.5904146 14.4746193,12.5967461 C14.1865379,12.5999118 13.9206167,12.5777517 13.6950584,12.5073142 L13.6808127,12.5017742 C13.5937551,13.3406925 13.3935227,14.9971605 13.2629364,15.7529784 C13.1584673,16.3623813 12.9756464,16.8467379 12.6266248,17.2092139 C12.2783945,17.5716899 11.7853321,17.7901253 11.1221118,17.9325831 C10.300605,18.1090725 9.70149073,17.9191288 9.31527174,17.5938501 C8.92984417,17.2693628 8.75335477,16.8388236 8.64730282,16.5752766 C8.57449104,16.3932472 8.53650229,16.1574003 8.5000964,15.8424102 C8.4636905,15.5274201 8.43678181,15.1419926 8.41857886,14.7074962 C8.39433481,14.0421959 8.38641811,13.376401 8.39483589,12.7107124 C8.0516694,13.0250194 7.62523913,13.2338383 7.16653287,13.312201 C6.62123597,13.4047985 6.13450507,13.3137838 5.84404938,13.240972 C5.70086732,13.2050109 5.56264908,13.1515842 5.43250455,13.0818941 C5.29796105,13.0098738 5.16974901,12.9283563 5.08427431,12.7676955 C5.03404982,12.6756816 5.0180662,12.5688437 5.03916267,12.4661598 C5.06591147,12.3620683 5.12662861,12.2698786 5.21169492,12.2041956 C5.36839853,12.076775 5.57575381,12.0055461 5.88836959,11.9406487 C6.45740945,11.8235167 6.65605899,11.743582 6.77714814,11.6478187 C6.88003436,11.5655097 6.99637491,11.3993089 7.20214732,11.1555478 C7.20116428,11.1447464 7.20037272,11.1339284 7.19977303,11.123099 C6.83150687,11.1127369 6.4708762,11.0156648 6.14716797,10.8397662 C6.02845312,10.9648125 5.42221592,11.6058728 4.6830181,12.4954428 C4.37198518,12.867416 4.02850354,13.0811027 3.66602751,13.0961399 C3.30355149,13.1119686 2.97589849,12.9291477 2.69731429,12.6592693 C2.14093733,12.118721 1.69694377,11.1887879 1.30993335,10.1377657 C0.923714359,9.08674356 0.609515704,7.91621509 0.386331777,6.91901031 C0.162356411,5.92180553 0.0301872121,5.11771025 0.0111928354,4.72990839 C-0.071907563,3.0821462 0.313520005,1.9717666 0.974366037,1.27134894 C1.63600349,0.570931294 2.54298498,0.305801457 3.42701494,0.25514978 C5.01383684,0.164135052 6.52072406,0.717346275 6.8254255,0.836061149 C7.41266833,0.437179236 8.16927766,0.18866948 9.11424791,0.204498121 C9.56286351,0.210790291 10.0092653,0.268681772 10.4446457,0.37703037 L10.4604744,0.369907479 C10.6521057,0.302545953 10.8473694,0.246001384 11.0453429,0.200540947 C11.5828853,0.0751422017 12.132464,0.00853464011 12.6843993,0.00189142898 L12.6851907,0.000308570436 Z M12.8054885,0.530568243 L12.6899393,0.530568243 C12.2365116,0.536891741 11.7848045,0.587788317 11.3413386,0.682523257 C12.3274633,1.11939392 13.0722012,1.79211144 13.5969208,2.46324608 C13.9614168,2.92793009 14.2626769,3.43890128 14.4928223,3.98279622 C14.5798798,4.19173437 14.6384458,4.36822379 14.671686,4.50514158 C14.6883061,4.5739962 14.6993861,4.63177077 14.7033433,4.69191963 C14.7064797,4.73017218 14.7032707,4.7686801 14.6938461,4.8058859 C14.6938461,4.80826019 14.6898889,4.81380022 14.6890975,4.8161745 C14.7128405,5.50946926 14.5410996,5.97958008 14.5205224,6.64121755 C14.5046938,7.12082556 14.6273658,7.68432542 14.6574402,8.29926835 C14.6859318,8.87701398 14.6162857,9.51174272 14.2411468,10.1346 C14.2728041,10.1725888 14.3012956,10.2105775 14.3313701,10.2485663 C15.3238263,8.68548733 16.0392811,6.95620763 16.4207515,5.48176913 C16.6249411,4.68796246 16.7333673,3.96855044 16.7428645,3.39871914 C16.7507788,2.82888783 16.6447269,2.41576014 16.5093919,2.24322789 C15.4472897,0.885129949 14.0100485,0.539274011 12.8054885,0.529776823 L12.8054885,0.530568243 Z M9.01452743,0.733174935 C8.07905437,0.735549232 7.40791973,1.01809059 6.89902871,1.44150691 C6.37430906,1.87916901 6.02212165,2.4782833 5.79102341,3.09164339 C5.51639638,3.81976116 5.42221592,4.52413598 5.3850186,5.00216112 L5.39530723,4.99582966 C5.67784859,4.8375432 6.04903037,4.67925671 6.44632941,4.58745056 C6.84362846,4.49643583 7.27179336,4.46794427 7.65959522,4.61831642 C8.04739709,4.76868858 8.3679272,5.12245885 8.48426776,5.65904997 C9.04143613,8.23674518 8.31094407,9.19516979 8.04185706,9.91853897 C7.93977361,10.1807281 7.8523178,10.4483798 7.77989294,10.72026 C7.81392454,10.7123456 7.84795611,10.7028484 7.88198771,10.6996827 C8.07193148,10.6838541 8.22072076,10.7471687 8.30936119,10.7851574 C8.58003106,10.8975408 8.76601767,11.1333876 8.86652959,11.4024747 C8.89264686,11.4729121 8.91164123,11.5488896 8.92272128,11.6272415 C8.93441795,11.6594143 8.93979253,11.6935429 8.93854992,11.7277534 C8.90854344,12.713711 8.91197495,13.7004025 8.94883855,14.6861275 C8.96704149,15.1119182 8.99395019,15.4870571 9.02798179,15.7830528 C9.06201339,16.0782571 9.11029075,16.3030239 9.14115661,16.3790014 C9.24245995,16.6322597 9.39045781,16.9638699 9.65796194,17.1894281 C9.92546607,17.4141949 10.3093108,17.5645671 11.0105199,17.4141949 C11.6183399,17.2836086 11.9934789,17.1023705 12.2443629,16.8419893 C12.4944556,16.5816081 12.6440363,16.219132 12.7397996,15.6643379 C12.8830488,14.833334 13.1711302,12.4234224 13.2059532,11.9699317 C13.1901246,11.6280329 13.2407763,11.3652773 13.3499939,11.1650449 C13.4623773,10.9592725 13.6364924,10.8334348 13.7868646,10.7653716 C13.8620507,10.73134 13.9324882,10.7083885 13.9902627,10.6917684 C13.929097,10.6038703 13.8649537,10.518082 13.7979447,10.4345529 C13.5811443,10.1716153 13.4036005,9.87864142 13.2708507,9.5647687 C13.2072726,9.43514646 13.1394363,9.30765654 13.0674526,9.18250687 C12.9621921,8.9925631 12.8292314,8.75513339 12.6899393,8.48842069 C12.4113551,7.95420385 12.1082365,7.30681218 11.9507415,6.67604057 C11.7940379,6.0460604 11.7710864,5.39392014 12.173134,4.93409794 C12.5292786,4.52571884 13.1545101,4.35635231 14.0931489,4.45132419 C14.0654488,4.36822379 14.0488287,4.29936917 14.0021342,4.18856865 C13.7899284,3.68908514 13.512924,3.21969441 13.1782531,2.79248196 C12.3828636,1.77549136 11.0952031,0.767206533 9.10554216,0.734757793 L9.01452743,0.734757793 L9.01452743,0.733174935 Z M3.75783365,0.774329424 C3.65732174,0.774329424 3.55680984,0.77749516 3.45708936,0.783035174 C2.65774268,0.828938257 1.90192476,1.06082793 1.36137646,1.63382497 C0.820036726,2.20682201 0.463892161,3.14625222 0.541452527,4.70141682 C0.556489748,4.99582966 0.684701791,5.82050219 0.904719982,6.80029546 C1.12394675,7.78008872 1.43497967,8.93320569 1.80853574,9.95177912 C2.18288324,10.9703526 2.63637399,11.8567568 3.0669132,12.276216 C3.28376567,12.4859456 3.47212656,12.5706288 3.64307597,12.5635059 C3.8148168,12.5555916 4.02138065,12.4566626 4.27384756,12.153544 C4.73414742,11.5983007 5.2118835,11.0577463 5.70634015,10.5326905 C4.99336579,9.91364337 4.64518574,8.97382575 4.78273858,8.03967854 C4.86425612,7.45481002 4.87533617,6.90793026 4.86583898,6.47580817 C4.85634179,6.05476615 4.82626737,5.77459909 4.82626735,5.59969255 C4.8261256,5.59468115 4.8261256,5.58966674 4.82626735,5.58465534 L4.82626735,5.58069817 L4.82547593,5.57594957 L4.82547593,5.57515815 C4.82500495,4.66405635 4.98356006,3.75986369 5.29400388,2.90328248 C5.51560495,2.3144568 5.84563224,1.71613393 6.34027748,1.23177733 C5.85433801,1.07190798 4.99167673,0.828146819 4.05778653,0.782243735 C3.95762006,0.777099571 3.85734062,0.774460643 3.75704223,0.774329424 L3.75783365,0.774329424 Z M13.5700121,4.95467517 C13.0326296,4.96179807 12.7310938,5.10029874 12.5728074,5.28153673 C12.348832,5.53875226 12.3274633,5.98986871 12.4667554,6.54545423 C12.6052561,7.10183119 12.8917546,7.72389703 13.1608416,8.24070236 C13.2953851,8.49950074 13.4259714,8.73218186 13.5312319,8.92133418 C13.6372839,9.11127795 13.7148443,9.24582145 13.7623302,9.36057915 C13.805859,9.46663108 13.8541364,9.5600201 13.9032052,9.64707768 C14.1113519,9.20783271 14.1485492,8.77650208 14.1271805,8.32696849 C14.0994804,7.77059153 13.9704769,7.20155167 13.9894713,6.62538889 C14.01084,5.95187995 14.1438006,5.51342641 14.1556721,4.99266393 C13.9614638,4.96750624 13.7658431,4.95481733 13.5700121,4.95467517 L13.5700121,4.95467517 Z M7.05335803,5.0456899 C6.88919116,5.04722142 6.72569446,5.06686225 6.5658357,5.10425589 C6.2472326,5.18166314 5.94036008,5.3011651 5.65331418,5.45960902 C5.55621922,5.51169086 5.46380561,5.57206422 5.37710427,5.6400556 L5.35969278,5.65588426 C5.36444137,5.77143338 5.3873929,6.05160043 5.39689009,6.46393669 C5.40638728,6.91505314 5.39530723,7.49042447 5.30824966,8.11328175 C5.11909733,9.4666311 6.10126489,10.5872993 7.25517328,10.5888822 C7.32244504,10.3110894 7.43324556,10.0293395 7.5440461,9.73255237 C7.86536765,8.86672537 8.4977221,8.23516234 7.96508811,5.77064194 C7.87803056,5.36701143 7.70549829,5.20397637 7.4680686,5.11217022 C7.33499224,5.06510269 7.19447848,5.04257758 7.05335803,5.0456899 L7.05335803,5.0456899 Z" id="形状" stroke="#57689C" opacity="0.550000012" fill-rule="nonzero"></path>
            <path d="M13.2405469,6.01633524 L13.2801185,6.01633524 C13.3280781,6.01720657 13.3758186,6.02304152 13.4225763,6.03374674 C13.4653137,6.04324393 13.5017196,6.05748971 13.531794,6.07727553 C13.5629986,6.09659723 13.5845642,6.12822682 13.5911514,6.16433308 L13.59036,6.17066455 L13.5911514,6.17066455 L13.59036,6.17066455 C13.591906,6.20823576 13.5822655,6.24542049 13.5626599,6.27750792 C13.5393192,6.32094599 13.510016,6.36090492 13.4756023,6.39622278 C13.3953158,6.48463364 13.2877935,6.54368738 13.1701094,6.56400643 C13.0555911,6.57784648 12.9400028,6.54880845 12.8456221,6.48248889 C12.8069891,6.45650086 12.7723325,6.4250433 12.7427359,6.38909989 C12.7171262,6.36086135 12.6998644,6.32606371 12.6928757,6.28858797 C12.6895327,6.25168355 12.7015582,6.21503416 12.7261158,6.18728463 C12.7520849,6.15777679 12.7835316,6.13358697 12.8187134,6.11605572 C12.8946909,6.07331837 12.9975772,6.04166107 13.1139177,6.02424955 C13.1574465,6.0179181 13.2001838,6.01475237 13.2405469,6.01396095 L13.2405469,6.01633524 Z" id="路径" fill="#57689C" fill-rule="nonzero" opacity="0.550000012"></path>
            <path d="M6.77858038,6.01396095 C6.82052629,6.01396095 6.86484652,6.0179181 6.90995816,6.02424955 C7.03104732,6.04086963 7.13868212,6.07331835 7.22099108,6.12080431 C7.26113421,6.14175761 7.29687067,6.17023929 7.32625158,6.20469613 C7.35859422,6.24164561 7.37408066,6.29039925 7.36898892,6.33923965 C7.36138089,6.38474382 7.34076573,6.42707362 7.3096315,6.46112022 C7.27725283,6.50087176 7.23910504,6.53555157 7.19645667,6.56400643 C7.09352837,6.63692645 6.96709504,6.668817 6.84189497,6.65343828 C6.71394627,6.6324066 6.59683247,6.56883054 6.50949337,6.4729917 C6.47233559,6.43439977 6.4408876,6.39069238 6.41610437,6.3431968 C6.39001808,6.30140712 6.37860048,6.25211651 6.38365563,6.20311327 C6.39552711,6.11763858 6.46596459,6.07331837 6.53481922,6.04878396 C6.61325009,6.02372273 6.69555496,6.01299896 6.77778895,6.01712666 L6.77858038,6.01396095 Z" id="路径" fill="#57689C" fill-rule="nonzero" opacity="0.550000012"></path>
        </g>
    </g>
</svg>