<?xml version="1.0" encoding="UTF-8"?>
<svg width="20px" height="20px" viewBox="0 0 20 20" version="1.1" xmlns="http://www.w3.org/2000/svg" xmlns:xlink="http://www.w3.org/1999/xlink">
    <title>process task 3</title>
    <g id="process-task" stroke="none" stroke-width="1" fill="none" fill-rule="evenodd">
        <rect id="矩形" fill="#000000" opacity="0" x="0" y="0" width="20" height="20"></rect>
        <g id="编组" transform="translate(4.400000, 3.500000)">
            <g id="编组-8" transform="translate(1.084615, 0.709859)" fill="#9FAECF" fill-rule="nonzero">
                <path d="M8.84062839,0 L8.84062839,1.2 L4.84062839,1.2 L4.84,5.429 L8.6,5.42957746 C8.93137085,5.42957746 9.2,5.69820661 9.2,6.02957746 C9.2,6.36094831 8.93137085,6.62957746 8.6,6.62957746 L4.84,6.629 L4.84062839,10 L8.84062839,10 L8.84062839,11.2 L3.64062839,11.2 L3.64,6.629 L0.6,6.62957746 C0.26862915,6.62957746 0,6.36094831 0,6.02957746 C0,5.69820661 0.26862915,5.42957746 0.6,5.42957746 L3.64,5.429 L3.64062839,0 L8.84062839,0 Z" id="形状结合"></path>
            </g>
            <path d="M9.59230769,13.2394366 C10.4717149,13.2394366 11.1846154,12.514264 11.1846154,11.6197183 C11.1846154,10.7251726 10.4717149,10 9.59230769,10 C8.71290044,10 8,10.7251726 8,11.6197183 C8,12.514264 8.71290044,13.2394366 9.59230769,13.2394366 Z M9.59230769,3.23943662 C10.4717149,3.23943662 11.1846154,2.51426403 11.1846154,1.61971831 C11.1846154,0.725172588 10.4717149,0 9.59230769,0 C8.71290044,0 8,0.725172588 8,1.61971831 C8,2.51426403 8.71290044,3.23943662 9.59230769,3.23943662 Z M9.59230769,8.23943662 C10.4717149,8.23943662 11.1846154,7.51426403 11.1846154,6.61971831 C11.1846154,5.72517259 10.4717149,5 9.59230769,5 C8.71290044,5 8,5.72517259 8,6.61971831 C8,7.51426403 8.71290044,8.23943662 9.59230769,8.23943662 Z M1.59230769,8.23943662 C2.47171495,8.23943662 3.18461538,7.51426403 3.18461538,6.61971831 C3.18461538,5.72517259 2.47171495,5 1.59230769,5 C0.712900437,5 0,5.72517259 0,6.61971831 C0,7.51426403 0.712900437,8.23943662 1.59230769,8.23943662 Z" id="形状结合" fill="#57689C"></path>
        </g>
    </g>
</svg>