<?xml version="1.0" encoding="UTF-8"?>
<svg width="20px" height="20px" viewBox="0 0 20 20" version="1.1" xmlns="http://www.w3.org/2000/svg" xmlns:xlink="http://www.w3.org/1999/xlink">
    <title>process-management-second-menu</title>
    <g id="process-management-second-menu" stroke="none" stroke-width="1" fill="none" fill-rule="evenodd">
        <rect id="矩形" fill="#000000" opacity="0" x="0" y="0" width="20" height="20"></rect>
        <g id="编组-2" transform="translate(3.000000, 2.000000)" fill="#57689C" opacity="0.55">
            <g id="编组">
                <path d="M7.725,0 L13.866,6.073 L13.8666667,14.9 C13.8666667,15.5075132 13.3741799,16 12.7666667,16 L1.1,16 C0.492486775,16 2.96443518e-16,15.5075132 0,14.9 L0,1.10080967 C-7.43989126e-17,0.493296447 0.492486775,0.00080967215 1.1,0.00080967215 L7.725,0 Z M3.96031747,3.5 C3.41533807,3.5 2.97354497,3.95379834 2.97354497,4.51358697 C2.97354497,5.0733756 3.41533807,5.52717394 3.96031747,5.52717394 C4.30681144,5.52717394 4.61159416,5.34373392 4.78764094,5.06624336 L10.0238095,5.06521739 L10.0238095,7.19521739 L3.26190476,7.19565217 L3.26190476,11.326087 L8.37665747,11.3271744 C8.5016089,11.7481138 8.88265482,12.0543478 9.33333333,12.0543478 C9.88561808,12.0543478 10.3333333,11.5944664 10.3333333,11.0271739 C10.3333333,10.4598814 9.88561808,10 9.33333333,10 C9.04475211,10 8.78472148,10.1255613 8.60219605,10.3263991 L4.2622381,10.3256522 L4.2622381,8.19565217 L11.0238095,8.19565217 L11.0238095,4.06521739 L4.84579776,4.06575818 C4.68482504,3.73057599 4.34878586,3.5 3.96031747,3.5 Z" id="形状结合"></path>
            </g>
        </g>
        <path d="M11.8260444,8.07202586 C11.2185312,8.07202586 10.7260444,7.57953908 10.7260444,6.97202586 L10.7266667,1.99983553 L16.8676667,8.07283553 L11.8260444,8.07202586 Z" id="路径" fill="#57689C"></path>
        <path d="M18,13 L18,18 C18,18.5522847 17.5522847,19 17,19 L3,19 C2.44771525,19 2,18.5522847 2,18 L2,13 L6.5,13 L6.5,15 L13.5,15 L13.5,13 L18,13 Z" id="路径" fill="#57689C"></path>
    </g>
</svg>