<?xml version="1.0" encoding="UTF-8"?>
<svg width="20px" height="20px" viewBox="0 0 20 20" version="1.1" xmlns="http://www.w3.org/2000/svg" xmlns:xlink="http://www.w3.org/1999/xlink">
    <title>product-managemen-second-menu</title>
    <g id="product-managemen-second-menu" stroke="none" stroke-width="1" fill="none" fill-rule="evenodd">
        <rect id="矩形" x="0" y="0" width="20" height="20"></rect>
        <g id="Redis">
            <rect id="矩形备份-4" opacity="0.446149554" x="2" y="2" width="15.9999995" height="16"></rect>
            <g id="编组">
                <rect id="矩形备份-6" x="0" y="0" width="20" height="20"></rect>
                <path d="M10.8497786,2.14410595 L17.6480096,4.92732616 C17.8491467,5.00967242 17.9640821,5.11394584 17.992816,5.22135172 L18,5.27522869 L18,7.27522869 C18,7.40114464 17.8826695,7.52706059 17.6480096,7.62313122 L10.8497786,10.4063514 C10.3804587,10.5984927 9.61954078,10.5984927 9.15022087,10.4063514 L2.35198993,7.62313122 C2.11732998,7.52706059 2,7.40114464 2,7.27522869 L2,5.27522869 L2.00718347,5.22135172 C2.03591734,5.11394584 2.15085283,5.00967242 2.35198993,4.92732616 L9.15022087,2.14410595 C9.61954078,1.95196468 10.3804587,1.95196468 10.8497786,2.14410595 Z M10.6602737,6.2137593 L9.63583371,6.63004385 C9.3070666,6.76485611 8.99101237,6.89571913 8.68767102,7.02263289 C8.5824512,7.06665538 8.58002231,7.10741965 8.68767102,7.15034977 L9.5390441,7.48345763 C9.97902179,7.65250172 10.4404362,7.82528106 10.9232874,8.00179565 C11.6457942,7.74389445 12.3033285,7.47426992 12.8958901,7.19292206 C12.993349,7.14664861 12.9976196,7.10976104 12.8958901,7.06520518 C12.2185043,6.7685215 11.4732989,6.4847062 10.6602737,6.2137593 Z M15.1839996,5.671 L12.8809866,6.45058466 L13.6969866,6.77958466 L15.9999995,6 L15.1839996,5.671 Z M14.5439866,4.74158466 L11.5229867,5.90158466 L12.3379866,6.23058466 L15.3599866,5.07058466 L14.5439866,4.74158466 Z M6.50738453,4.2754348 L6.02783977,4.4698814 L4.68767115,5.02263289 C4.58245133,5.06665538 4.58002244,5.10741965 4.68767115,5.15034977 L5.53904422,5.48345763 C5.97902192,5.65250172 6.44043635,5.82528106 6.92328751,6.00179565 C7.50129301,5.79547469 8.03771601,5.5816508 8.53255652,5.36032398 L8.84184271,5.2174348 L6.50738453,4.2754348 Z M11.1849997,3.671 L8.39398678,4.63758466 L9.20898675,4.96658466 L11.9999997,4 L11.1849997,3.671 Z M10.0569867,2.92858466 L7.03598682,4.08858466 L7.85098679,4.41758466 L10.8729867,3.25858466 L10.0569867,2.92858466 Z" id="形状" fill="#57689C" fill-rule="nonzero"></path>
                <path d="M18,8.8 L18,10.8 C17.9999995,10.9259159 17.8826695,11.0518319 17.6480096,11.1479025 L10.8497786,13.9311227 C10.3804587,14.123264 9.61954078,14.123264 9.15022087,13.9311227 L2.35198993,11.1479025 C2.11732998,11.0518319 2,10.9259159 2,10.8 L2,8.8 L2.00718347,8.85387697 C2.03591734,8.96128285 2.15085283,9.06555627 2.35198993,9.14790253 L9.15022087,11.9311227 C9.61954078,12.123264 10.3804587,12.123264 10.8497786,11.9311227 L17.6480096,9.14790253 C17.8826695,9.0518319 17.9999995,8.92591595 17.9999995,8.8 Z" id="形状结合" fill="#57689C" opacity="0.55"></path>
                <path d="M18,12.2752287 L18,14.2752287 C17.9999995,14.4011446 17.8826695,14.5270606 17.6480096,14.6231312 L10.8497786,17.4063514 C10.3804587,17.5984927 9.61954078,17.5984927 9.15022087,17.4063514 L2.35198993,14.6231312 C2.11732998,14.5270606 2,14.4011446 2,14.2752287 L2,12.2752287 L2.00718347,12.3291057 C2.03591734,12.4365115 2.15085283,12.540785 2.35198993,12.6231312 L9.15022087,15.4063514 C9.61954078,15.5984927 10.3804587,15.5984927 10.8497786,15.4063514 L17.6480096,12.6231312 C17.8826695,12.5270606 17.9999995,12.4011446 17.9999995,12.2752287 Z" id="形状结合备份" fill="#57689C" opacity="0.55"></path>
            </g>
        </g>
    </g>
</svg>