<?xml version="1.0" encoding="UTF-8"?>
<svg width="20px" height="20px" viewBox="0 0 20 20" version="1.1" xmlns="http://www.w3.org/2000/svg" xmlns:xlink="http://www.w3.org/1999/xlink">
    <title>product-agile-management-second-menu</title>
    <g id="product-agile-management-second-menu" stroke="none" stroke-width="1" fill="none" fill-rule="evenodd">
        <g id="流程库">
            <rect id="矩形" x="0" y="0" width="20" height="20"></rect>
            <path d="M5.76470588,3.94545455 C7.20331697,3.94545455 8.45346133,4.75604434 9.08722391,5.9473638 C9.05846019,5.94576886 9.0292668,5.94545455 9,5.94545455 C8.67204755,5.94545455 8.35331318,5.98492186 8.04828747,6.05936591 C7.53557847,5.35132237 6.70366653,4.89090909 5.76470588,4.89090909 C4.20531365,4.89090909 2.94117647,6.16079235 2.94117647,7.72727273 C2.94117647,9.03992527 3.82883075,10.1443127 5.0340467,10.467751 C5.07990061,10.8217834 5.1725533,11.1618573 5.30535912,11.4810283 C3.44279188,11.2535771 2,9.65968181 2,7.72727273 C2,5.63863222 3.68551624,3.94545455 5.76470588,3.94545455 Z" id="形状结合" fill="#57689C" opacity="0.55"></path>
            <path d="M11.0980392,3 C14.9098869,3 18,6.10415907 18,9.93333333 C18,13.7625076 14.9098869,16.8666667 11.0980392,16.8666667 C7.28619153,16.8666667 4.19607843,13.7625076 4.19607843,9.93333333 C4.19607843,6.10415907 7.28619153,3 11.0980392,3 Z M11.0980392,6.15151515 C10.9475025,6.15151515 10.8070015,6.23157593 10.7367511,6.37168227 L9.79338761,8.28313328 L7.67583768,8.59336878 C7.52530096,8.61338399 7.40487156,8.72346755 7.35469264,8.86357389 C7.30451376,9.00368026 7.34465688,9.16380182 7.45505048,9.27388537 L8.99052508,10.7650173 L8.62923693,12.8666126 C8.60916536,13.0167266 8.66938005,13.1668405 8.78980944,13.2569089 C8.86005992,13.3069469 8.95038193,13.3369697 9.0306682,13.3369697 C9.09088289,13.3369697 9.15109757,13.3169545 9.21131225,13.2869317 L11.108075,12.2961796 L13.0048377,13.2869317 C13.1353029,13.3569849 13.3059112,13.3469773 13.4263405,13.2569089 C13.5467699,13.1668405 13.6170204,13.0167266 13.5869131,12.8666126 L13.2256249,10.7650173 L14.741028,9.27388537 C14.8514216,9.16380182 14.8915647,9.00368026 14.8413858,8.86357389 C14.8012426,8.72346755 14.6707775,8.61338399 14.5202408,8.59336878 L12.4026908,8.28313328 L11.4593273,6.37168227 C11.3890769,6.24158353 11.2485759,6.15151515 11.0980392,6.15151515 Z M11.0980392,7.48775758 L11.7295059,8.8358614 C11.7852235,8.9539435 11.8873725,9.03266489 12.0080941,9.05234521 L13.4196078,9.26882906 L12.3981176,10.3217276 C12.3052549,10.4102892 12.2681098,10.5382115 12.2866824,10.6661338 L12.5281255,12.152 L11.2651922,11.4533477 C11.2094745,11.4238271 11.1444706,11.4041468 11.0887529,11.4041468 C11.0330353,11.4041468 10.9680314,11.413987 10.9216,11.4533477 L9.65866667,12.152 L9.90939608,10.6661338 C9.92796863,10.5382115 9.88153725,10.4102892 9.79796078,10.3217276 L8.77647059,9.26882906 L10.1879843,9.05234521 C10.3087059,9.03266489 10.4108549,8.9539435 10.4665725,8.8358614 L11.0980392,7.48775758 Z" id="形状结合" fill="#57689C"></path>
        </g>
    </g>
</svg>