<?xml version="1.0" encoding="UTF-8"?>
<svg width="20px" height="20px" viewBox="0 0 20 20" version="1.1" xmlns="http://www.w3.org/2000/svg" xmlns:xlink="http://www.w3.org/1999/xlink">
    <title>product-objective-second-menu</title>
    <g id="product-objective-second-menu" stroke="none" stroke-width="1" fill="none" fill-rule="evenodd">
        <path d="M17,2 C17.5522847,2 18,2.44771525 18,3 L18,17 C18,17.5522847 17.5522847,18 17,18 L3,18 C2.44771525,18 2,17.5522847 2,17 L2,3 C2,2.44771525 2.44771525,2 3,2 L17,2 Z M5.5,4 L4.5,4 C4.22385763,4 4,4.22385763 4,4.5 L4,15.5 C4,15.7761424 4.22385763,16 4.5,16 L5.5,16 C5.77614237,16 6,15.7761424 6,15.5 L6,4.5 C6,4.22385763 5.77614237,4 5.5,4 Z M15.5,4 L14.5,4 C14.2238576,4 14,4.22385763 14,4.5 L14,11.5 C14,11.7761424 14.2238576,12 14.5,12 L15.5,12 C15.7761424,12 16,11.7761424 16,11.5 L16,4.5 C16,4.22385763 15.7761424,4 15.5,4 Z M10.5,4 L9.5,4 C9.22385763,4 9,4.22385763 9,4.5 L9,7.5 C9,7.77614237 9.22385763,8 9.5,8 L10.5,8 C10.7761424,8 11,7.77614237 11,7.5 L11,4.5 C11,4.22385763 10.7761424,4 10.5,4 Z" id="形状结合" fill="#57689C"></path>
    </g>
</svg>