<?xml version="1.0" encoding="UTF-8"?>
<svg width="20px" height="20px" viewBox="0 0 20 20" version="1.1" xmlns="http://www.w3.org/2000/svg" xmlns:xlink="http://www.w3.org/1999/xlink">
    <title>project-management-second-menu</title>
    <g id="project-management-second-menu" stroke="none" stroke-width="1" fill="none" fill-rule="evenodd">
        <rect id="矩形" x="0" y="0" width="20" height="20"></rect>
        <g>
            <g id="编组">
                <path d="M7.91112296,3.16890074 C7.72693333,3.05838222 7.51616,3 7.30135704,3 L3.18518519,3 C2.53063111,3 2,3.53063111 2,4.18518519 L2,6.55555556 C2,6.88283259 2.26531556,7.14814815 2.59259259,7.14814815 L17.4074074,7.14814815 C17.734637,7.14814815 18,6.88283259 18,6.55555556 L18,5.96296296 C18,5.30840889 17.4693926,4.77777778 16.8148148,4.77777778 L10.9208652,4.77777778 C10.7060622,4.77777778 10.4952889,4.71939556 10.3110993,4.60887704 L7.91112296,3.16890074 Z" id="路径备份" fill="#57689C"></path>
                <rect id="矩形" x="0" y="0" width="20" height="20"></rect>
                <path d="M17,8 C17.5522847,8 18,8.44771525 18,9 L18,16 C18,16.5522847 17.5522847,17 17,17 L3,17 C2.44771525,17 2,16.5522847 2,16 L2,9 C2,8.44771525 2.44771525,8 3,8 L17,8 Z M13.6647949,14.1875054 L6.0148839,14.1875054 C5.77325932,14.1875054 5.5773839,14.4561346 5.5773839,14.7875054 C5.5773839,15.1188763 5.77325932,15.3875054 6.0148839,15.3875054 L13.6647949,15.3875054 C13.9064195,15.3875054 14.1022949,15.1188763 14.1022949,14.7875054 C14.1022949,14.4561346 13.9064195,14.1875054 13.6647949,14.1875054 Z M13.6647949,12.3125054 L6.0148839,12.3125054 C5.77325932,12.3125054 5.5773839,12.5811346 5.5773839,12.9125054 C5.5773839,13.2438763 5.77325932,13.5125054 6.0148839,13.5125054 L13.6647949,13.5125054 C13.9064195,13.5125054 14.1022949,13.2438763 14.1022949,12.9125054 C14.1022949,12.5811346 13.9064195,12.3125054 13.6647949,12.3125054 Z" id="形状结合" fill="#57689C" opacity="0.554612"></path>
            </g>
            <g id="编组-3" transform="translate(5.577384, 12.312505)"></g>
        </g>
    </g>
</svg>