<?xml version="1.0" encoding="UTF-8"?>
<svg width="20px" height="20px" viewBox="0 0 20 20" version="1.1" xmlns="http://www.w3.org/2000/svg" xmlns:xlink="http://www.w3.org/1999/xlink">
    <title>project list 5</title>
    <g id="project-list" stroke="none" stroke-width="1" fill="none" fill-rule="evenodd">
        <g>
            <rect id="矩形" fill="#000000" opacity="0" x="0" y="0" width="20" height="20"></rect>
            <path d="M7.91112296,3.16890074 C7.72693333,3.05838222 7.51616,3 7.30135704,3 L3.18518519,3 C2.53063111,3 2,3.53063111 2,4.18518519 L2,6.55555556 C2,6.88283259 2.26531556,7.14814815 2.59259259,7.14814815 L17.4074074,7.14814815 C17.734637,7.14814815 18,6.88283259 18,6.55555556 L18,5.96296296 C18,5.30840889 17.4693926,4.77777778 16.8148148,4.77777778 L10.9208652,4.77777778 C10.7060622,4.77777778 10.4952889,4.71939556 10.3110993,4.60887704 L7.91112296,3.16890074 Z" id="路径备份" fill="#57689C"></path>
            <path d="M17,8 C17.5522847,8 18,8.44771525 18,9 L18,16 C18,16.5522847 17.5522847,17 17,17 L3,17 C2.44771525,17 2,16.5522847 2,16 L2,9 C2,8.44771525 2.44771525,8 3,8 L17,8 Z M7.81868452,10.1515212 L7.38986846,10.5711839 L5.58033729,12.3420895 L5.13690327,12.7760582 L5.58548698,13.2047016 L7.39501815,14.933796 L7.82881414,15.348309 L8.65784017,14.480717 L8.22404419,14.066204 L6.862,12.765 L8.22919388,11.4288161 L8.65800994,11.0091534 L7.81868452,10.1515212 Z M11.6813155,10.1515212 L10.8419901,11.0091534 L11.2708061,11.4288161 L12.638,12.765 L11.2759558,14.066204 L10.8421598,14.480717 L11.6711859,15.348309 L12.1049818,14.933796 L13.914513,13.2047016 L14.3630967,12.7760582 L13.9196627,12.3420895 L12.1101315,10.5711839 L11.6813155,10.1515212 Z" id="形状结合" fill="#9FAECF"></path>
        </g>
    </g>
</svg>