<?xml version="1.0" encoding="UTF-8"?>
<svg width="20px" height="20px" viewBox="0 0 20 20" version="1.1" xmlns="http://www.w3.org/2000/svg" xmlns:xlink="http://www.w3.org/1999/xlink">
    <title>public-service-dial-detact-host-second-menu</title>
    <g id="public-service-dial-detact-host-second-menu" stroke="none" stroke-width="1" fill="none" fill-rule="evenodd">
        <rect id="矩形" fill="#FFFFFF" opacity="0" x="0" y="0" width="20" height="20"></rect>
        <g id="平台管理" transform="translate(2.000000, 3.000000)" fill="#57689C">
            <polygon id="路径" opacity="0.550000012" points="11.36 13.7293333 11.36 14.6666667 4.64 14.6666667 4.64 13.7293333"></polygon>
            <path d="M14.7693333,0 C15.448,0 16,0.546666667 16,1.21866667 L16,10.8986667 C15.9959617,11.5745726 15.4459155,12.1198488 14.77,12.1180047 L1.23,12.1180047 C0.554343028,12.1198504 0.00440394127,11.5749785 0,10.8993333 L0,1.21866667 C0,0.546666667 0.552,0 1.23066667,0 L14.7706667,0 L14.7693333,0 Z" id="路径" opacity="0.550000012"></path>
            <path d="M7.934,1.75933333 C9.23266667,1.75933333 10.2893333,2.806 10.2893333,4.09066667 C10.2893333,4.73266667 10.026,5.31466667 9.60133333,5.73733333 L9.92266667,6.136 C10.1106667,6.06933333 10.3133333,6.03333333 10.5246667,6.03333333 C11.5113333,6.03333333 12.3146667,6.82866667 12.3146667,7.806 C12.3146667,8.784 11.5113333,9.57933333 10.5246667,9.57933333 C9.538,9.57933333 8.734,8.784 8.734,7.806 C8.734,7.37666667 8.88866667,6.98266667 9.146,6.676 L8.80933333,6.256 C8.32308432,6.45028709 7.78605956,6.4774901 7.28266667,6.33333333 L7.05866667,6.74933333 C7.50341881,7.11920261 7.76085993,7.6675473 7.76133333,8.246 C7.76133333,9.32666667 6.87466667,10.206 5.78333333,10.206 C4.692,10.206 3.80466667,9.32666667 3.80466667,8.246 C3.80466667,7.166 4.692,6.28666667 5.78333333,6.28666667 C5.93,6.28666667 6.07266667,6.30266667 6.21,6.33266667 L6.446,5.89733333 C5.89860465,5.45728567 5.57994743,4.79300792 5.57933333,4.09066667 C5.57933333,2.80533333 6.63533333,1.75933333 7.934,1.75933333 Z" id="路径"></path>
        </g>
    </g>
</svg>