<?xml version="1.0" encoding="UTF-8"?>
<svg width="20px" height="20px" viewBox="0 0 20 20" version="1.1" xmlns="http://www.w3.org/2000/svg" xmlns:xlink="http://www.w3.org/1999/xlink">
    <title>queue-service-drm-second-menu</title>
    <g id="queue-service-drm-second-menu" stroke="none" stroke-width="1" fill="none" fill-rule="evenodd">
        <g id="队列">
            <g id="编组">
                <rect id="矩形" x="0" y="0" width="20" height="20"></rect>
            </g>
            <g id="编组" transform="translate(2.000000, 2.000000)">
                <path d="M15,0 C15.5522847,-1.01453063e-16 16,0.44771525 16,1 L16,15 C16,15.5522847 15.5522847,16 15,16 L1,16 C0.44771525,16 6.76353751e-17,15.5522847 0,15 L0,1 C-6.76353751e-17,0.44771525 0.44771525,1.01453063e-16 1,0 L15,0 Z M2.6,3.3 L1,4.3 L2.6,5.3 L2.599,4.8 L3.3,4.8 L3.3,11.6 C3.3,12.1522847 3.74771525,12.6 4.3,12.6 L9.7,12.6 L9.7,13.7 C9.7,13.9761424 9.92385763,14.2 10.2,14.2 C10.4761424,14.2 10.7,13.9761424 10.7,13.7 L10.7,12.6 C10.7,12.0477153 10.2522847,11.6 9.7,11.6 L4.3,11.6 L4.3,4.8 C4.3,4.24771525 3.85228475,3.8 3.3,3.8 L2.599,3.8 L2.6,3.3 Z M6.2,1.8 C5.92385763,1.8 5.7,2.02385763 5.7,2.3 L5.7,3.4 C5.7,3.95228475 6.14771525,4.4 6.7,4.4 L11.7,4.4 L11.7,11.2 C11.7,11.7522847 12.1477153,12.2 12.7,12.2 L13.4,12.199 L13.4,12.7 L15,11.7 L13.4,10.7 L13.4,11.199 L12.7,11.2 L12.7,4.4 C12.7,3.84771525 12.2522847,3.4 11.7,3.4 L6.7,3.4 L6.7,2.3 C6.7,2.02385763 6.47614237,1.8 6.2,1.8 Z M5.6,7.7 C5.26862915,7.7 5,7.96862915 5,8.3 C5,8.63137085 5.26862915,8.9 5.6,8.9 C5.93137085,8.9 6.2,8.63137085 6.2,8.3 C6.2,7.96862915 5.93137085,7.7 5.6,7.7 Z M8,7.7 C7.66862915,7.7 7.4,7.96862915 7.4,8.3 C7.4,8.63137085 7.66862915,8.9 8,8.9 C8.33137085,8.9 8.6,8.63137085 8.6,8.3 C8.6,7.96862915 8.33137085,7.7 8,7.7 Z M10.4,7.7 C10.0686292,7.7 9.8,7.96862915 9.8,8.3 C9.8,8.63137085 10.0686292,8.9 10.4,8.9 C10.7313708,8.9 11,8.63137085 11,8.3 C11,7.96862915 10.7313708,7.7 10.4,7.7 Z" id="形状结合" fill="#57689C"></path>
                <g id="编组-3" transform="translate(1.000000, 1.800000)">
                    <g id="编组-2"></g>
                    <g id="编组-2" transform="translate(9.350000, 5.450000) rotate(-180.000000) translate(-9.350000, -5.450000) translate(4.700000, 0.000000)"></g>
                </g>
            </g>
        </g>
    </g>
</svg>