<?xml version="1.0" encoding="UTF-8"?>
<svg width="20px" height="20px" viewBox="0 0 20 20" version="1.1" xmlns="http://www.w3.org/2000/svg" xmlns:xlink="http://www.w3.org/1999/xlink">
    <title>queue-second-menu</title>
    <defs>
        <linearGradient x1="-3.35277807%" y1="50.0024078%" x2="103.379328%" y2="50.0024078%" id="linearGradient-1">
            <stop stop-color="#0471EA" offset="0.4092262%"></stop>
            <stop stop-color="#2AC6CC" offset="76.74%"></stop>
        </linearGradient>
    </defs>
    <g id="queue-second-menu" stroke="none" stroke-width="1" fill="none" fill-rule="evenodd">
        <g id="Mysql" stroke-linejoin="round">
            <g id="SVGID_1_-link">
                <rect id="矩形" x="0" y="0" width="20" height="20"></rect>
            </g>
        </g>
        <g id="编组-3" transform="translate(1.000000, 2.000000)" fill="#57689C">
            <g id="编组-2" transform="translate(0.000000, 2.138750)" fill-rule="nonzero" opacity="0.55">
                <path d="M2.05714286,4.4408921e-16 L2.05722826,1.15465827 C2.08859504,1.14959548 2.12077596,1.14696429 2.15357143,1.14696429 L2.6,1.14696429 C3.4836556,1.14696429 4.2,1.86330869 4.2,2.74696429 L4.2,10.2041071 C4.2,10.425021 4.3790861,10.6041071 4.6,10.6041071 L10.8285714,10.6041071 C11.712227,10.6041071 12.4285714,11.3204515 12.4285714,12.2041071 L12.4285714,13.26125 C12.4285714,13.5926208 12.1599423,13.86125 11.8285714,13.86125 C11.4972006,13.86125 11.2285714,13.5926208 11.2285714,13.26125 L11.2285714,12.2041071 C11.2285714,11.9831932 11.0494853,11.8041071 10.8285714,11.8041071 L4.6,11.8041071 C3.7163444,11.8041071 3,11.0877627 3,10.2041071 L3,2.74696429 C3,2.52605039 2.8209139,2.34696429 2.6,2.34696429 L2.15357143,2.34696429 L2.057,2.339 L2.05714286,3.375 L0,1.6875 L2.05714286,4.4408921e-16 Z" id="形状结合"></path>
            </g>
            <circle id="椭圆形" cx="5.91428571" cy="7.94142857" r="1"></circle>
            <circle id="椭圆形备份" cx="9" cy="7.94142857" r="1"></circle>
            <circle id="椭圆形备份" cx="12.0857143" cy="7.94142857" r="1"></circle>
            <g id="编组-2" transform="translate(12.042857, 6.868750) rotate(-180.000000) translate(-12.042857, -6.868750) translate(6.085714, 0.000000)" fill-rule="nonzero" opacity="0.55">
                <path d="M2.05714286,0 L2.05722826,1.03090827 C2.08859504,1.02584548 2.12077596,1.02321429 2.15357143,1.02321429 L2.6,1.02321429 C3.4836556,1.02321429 4.2,1.73955869 4.2,2.62321429 L4.2,10.0803571 C4.2,10.301271 4.3790861,10.4803571 4.6,10.4803571 L10.3142857,10.4803571 C11.1979413,10.4803571 11.9142857,11.1967015 11.9142857,12.0803571 L11.9142857,13.1375 C11.9142857,13.4688708 11.6456566,13.7375 11.3142857,13.7375 C10.9829149,13.7375 10.7142857,13.4688708 10.7142857,13.1375 L10.7142857,12.0803571 C10.7142857,11.8594432 10.5351996,11.6803571 10.3142857,11.6803571 L4.6,11.6803571 C3.7163444,11.6803571 3,10.9640127 3,10.0803571 L3,2.62321429 C3,2.40230039 2.8209139,2.22321429 2.6,2.22321429 L2.15357143,2.22321429 L2.057,2.215 L2.05714286,3.375 L3.03887891e-14,1.6875 L2.05714286,0 Z" id="形状结合"></path>
            </g>
        </g>
    </g>
</svg>