<?xml version="1.0" encoding="UTF-8"?>
<svg width="20px" height="20px" viewBox="0 0 20 20" version="1.1" xmlns="http://www.w3.org/2000/svg" xmlns:xlink="http://www.w3.org/1999/xlink">
    <title>release-ticket-second-menu</title>
    <g id="release-ticket-second-menu" stroke="none" stroke-width="1" fill="none" fill-rule="evenodd">
        <rect id="矩形" fill="#000000" opacity="0" x="0" y="0" width="20" height="20"></rect>
        <g id="release-ticket" transform="translate(2.000000, 2.000000)">
            <g id="数据审批备份">
                <rect id="矩形备份-49" fill-opacity="0.1" fill="#FFFFFF" opacity="0" x="0" y="0" width="16" height="16"></rect>
                <g id="数据审批" transform="translate(1.384324, 1.289701)" fill="#57689C" opacity="0.55">
                    <path d="M2.4956757,0 L2.4956757,2 C2.4956757,2.27614237 2.71953333,2.5 2.9956757,2.5 L8.9956757,2.5 C9.27181807,2.5 9.4956757,2.27614237 9.4956757,2 L9.4956757,0 L11,0 C11.5522847,-1.01453063e-16 12,0.44771525 12,1 L12.0007613,7.12621352 C11.6809122,7.04382251 11.3455738,7 11,7 C8.790861,7 7,8.790861 7,11 C7,12.1952121 7.52421057,13.2679883 8.35525927,14.0009561 L1,14 C0.44771525,14 -2.65431532e-16,13.5522847 0,13 L0,1 C-6.76353751e-17,0.44771525 0.44771525,-4.5365845e-16 1,0 L2.4956757,0 Z M6.4956757,6.91029945 L2.4956757,6.91029945 L2.4956757,7.91029945 L6.4956757,7.91029945 L6.4956757,6.91029945 Z M9.4956757,4.71029945 L2.4956757,4.71029945 L2.4956757,5.71029945 L9.4956757,5.71029945 L9.4956757,4.71029945 Z M8.4956757,0 L8.4956757,1.5 L3.4956757,1.5 L3.4956757,0 L8.4956757,0 Z" id="形状结合"></path>
                </g>
            </g>
            <path d="M12,8 C14.209139,8 16,9.790861 16,12 C16,14.209139 14.209139,16 12,16 C9.790861,16 8,14.209139 8,12 C8,9.790861 9.790861,8 12,8 Z M12,10 L10.2679492,13 L11.5199492,13 L11.52,14.6965064 L12.48,14.6965064 L12.4799492,13 L13.7320508,13 L12,10 Z" id="形状" fill="#57689C"></path>
        </g>
    </g>
</svg>