<?xml version="1.0" encoding="UTF-8"?>
<svg width="20px" height="20px" viewBox="0 0 20 20" version="1.1" xmlns="http://www.w3.org/2000/svg" xmlns:xlink="http://www.w3.org/1999/xlink">
    <title>requirement-global-ranking-second-menu</title>
    <g id="requirement-global-ranking-second-menu" stroke="none" stroke-width="1" fill="none" fill-rule="evenodd">
        <g id="编组" transform="translate(2.000000, 2.000000)">
            <rect id="矩形" x="0" y="0" width="16" height="16"></rect>
            <path d="M1,6 L4,6 C4.55228475,6 5,6.44771525 5,7 L5,16 L5,16 L0,16 L0,7 C-6.76353751e-17,6.44771525 0.44771525,6 1,6 Z" id="矩形" fill="#57689C" fill-rule="nonzero" opacity="0.55"></path>
            <path d="M6,2 L10,2 C10.5522847,2 11,2.44771525 11,3 L11,16 L11,16 L5,16 L5,3 C5,2.44771525 5.44771525,2 6,2 Z" id="矩形备份-2" fill="#57689C"></path>
            <path d="M12,9 L15,9 C15.5522847,9 16,9.44771525 16,10 L16,16 L16,16 L11,16 L11,10 C11,9.44771525 11.4477153,9 12,9 Z" id="矩形备份-3" fill="#57689C" fill-rule="nonzero" opacity="0.55"></path>
        </g>
    </g>
</svg>