<?xml version="1.0" encoding="UTF-8"?>
<svg width="20px" height="20px" viewBox="0 0 20 20" version="1.1" xmlns="http://www.w3.org/2000/svg" xmlns:xlink="http://www.w3.org/1999/xlink">
    <title>resource-instance-second-menu</title>
    <g id="resource-instance-second-menu" stroke="none" stroke-width="1" fill="none" fill-rule="evenodd">
        <rect id="矩形" fill="#FFFFFF" opacity="0" x="0" y="0" width="20" height="20"></rect>
        <g id="资源实例" transform="translate(1.869737, 2.000000)">
            <rect id="矩形" fill="#FFFFFF" opacity="0" x="0.130263286" y="0" width="16" height="16"></rect>
            <path d="M14.2849749,9.43270205 C14.4325995,8.90051277 14.9836976,8.58876149 15.5158868,8.73638607 C16.0480761,8.88401065 16.3598274,9.43510867 16.2122028,9.96729795 L15.222666,13.5345959 C14.9824501,14.4005785 14.1941203,15 13.2954382,15 L3.03429304,15 C2.15107643,15 1.37243057,14.4206635 1.11864033,13.5746953 L0.0424369345,9.98734767 C-0.116260799,9.45835478 0.183922734,8.90087138 0.712915621,8.74217365 C1.24190851,8.58347592 1.7993919,8.88365945 1.95808964,9.41265233 L3.03429304,13 L13.2954382,13 L14.2849749,9.43270205 Z" id="路径-2" fill="#57689C" fill-rule="nonzero"></path>
            <path d="M2.63026329,4.2 C3.83083471,5.20576037 6.03292995,5.68041475 8.13026329,5.68041475 C10.2275966,5.68041475 12.4296919,5.20691244 13.6302633,4.20115207 L13.6302633,7.93156682 C13.628168,7.93617512 13.6302633,7.94308756 13.6302633,7.94769585 C13.6302633,9.19193548 11.1673109,10.2 8.13026329,10.2 C5.09321567,10.2 2.63026329,9.19193548 2.63026329,7.94769585 L2.63235852,7.93156682 L2.63026329,4.2 Z M8.13026329,1 C11.1673109,1 13.6302633,1.89487049 13.6302633,3 C13.6302633,4.10512951 11.1673109,5 8.13026329,5 C5.09321567,5 2.63026329,4.10411376 2.63026329,3 C2.63026329,1.89487049 5.09321567,1 8.13026329,1 Z" id="形状结合" fill="#57689C" fill-rule="nonzero" opacity="0.550000012"></path>
        </g>
    </g>
</svg>