<?xml version="1.0" encoding="UTF-8"?>
<svg width="20px" height="20px" viewBox="0 0 20 20" version="1.1" xmlns="http://www.w3.org/2000/svg" xmlns:xlink="http://www.w3.org/1999/xlink">
    <title>resource-pool-second-menu</title>
    <g id="resource-pool-second-menu" stroke="none" stroke-width="1" fill="none" fill-rule="evenodd">
        <rect id="矩形" fill="#000000" opacity="0" x="0" y="0" width="20" height="20"></rect>
        <g id="resource-pool" transform="translate(2.000000, 3.000000)">
            <g id="编组-2备份-2" transform="translate(3.108656, 4.518709)"></g>
            <path d="M10.8131713,0 C11.324079,0 11.7975473,0.267984145 12.06052,0.706016169 L15.7936452,6.9268804 C15.9292634,7.15292843 16.0009717,7.41157304 16.0009717,7.6751826 L16.0009717,13.0902927 C16.0009717,13.4761729 15.8476326,13.8462381 15.5747071,14.1190297 C15.3017817,14.3918213 14.9316414,14.5449789 14.5457612,14.5447897 L1.45546846,14.5447897 C0.652172067,14.5447897 0.000971668211,13.8935891 0.000971668211,13.0902927 L0.000971668211,7.6751826 C0.000971668211,7.4115886 0.0725557446,7.15294281 0.208119705,6.9268804 L3.94070961,0.706016169 C4.20357281,0.26795987 4.67700778,0 5.18787995,0 L10.8131713,0 Z M11.0717529,6.2671875 L4.87175292,6.2671875 L4.87175292,7.4671875 L11.0717529,7.4671875 L11.0717529,6.2671875 Z M10.0717529,3.2671875 L5.87175292,3.2671875 L5.87175292,4.4671875 L10.0717529,4.4671875 L10.0717529,3.2671875 Z" id="形状结合" fill="#57689C" opacity="0.55"></path>
            <path d="M0,7.6158905 L3.18759001,7.61644445 L4.44100512,10.1234531 C4.56424412,10.3698111 4.81606854,10.525438 5.09153203,10.525438 L10.9095192,10.525438 C11.1849827,10.525438 11.4368071,10.3698111 11.5600461,10.1234531 L12.8139965,7.61644445 L16,7.6158905 L16.0009717,13.0902927 C16.0009717,13.4761729 15.8476326,13.8462381 15.5747071,14.1190297 C15.3017817,14.3918213 14.9316414,14.5449789 14.5457612,14.5448122 L1.45546846,14.5448122 C0.652172067,14.5448122 0.000971668209,13.8935891 0.000971668209,13.0902927 L0,7.6158905 Z" id="形状" fill="#57689C"></path>
        </g>
    </g>
</svg>