<?xml version="1.0" encoding="UTF-8"?>
<svg width="20px" height="20px" viewBox="0 0 20 20" version="1.1" xmlns="http://www.w3.org/2000/svg" xmlns:xlink="http://www.w3.org/1999/xlink">
    <title>rocketmq-second-menu</title>
    <g id="rocketmq-second-menu" stroke="none" stroke-width="1" fill="none" fill-rule="evenodd">
        <g id="apacherocketmq" transform="translate(1.629387, 1.000000)">
            <rect id="矩形" fill-opacity="0" fill="#D8D8D8" x="0.370613203" y="1" width="16" height="16"></rect>
            <g id="图形" fill="#57689C" fill-rule="nonzero">
                <path d="M9.81947298,14.5997688 C9.85356646,14.7637872 9.8706132,14.9307765 9.8706132,15.1007368 C9.8706132,16.0212114 9.3706132,16.8545447 8.3706132,17.6007368 C7.3706132,16.8545447 6.8706132,16.0212114 6.8706132,15.1007368 C6.8706132,14.9307765 6.88765994,14.7637872 6.92175342,14.5997688 L9.81947298,14.5997688 Z M8.3706132,0 C12.7039465,3.13400675 14.8706132,6.63400675 14.8706132,10.5 C14.8706132,12.1107647 14.646083,13.6368157 14.244823,15.0009369 L13.6792599,15.0003308 C13.490067,15.000128 13.3171918,14.8931572 13.2325821,14.7239379 L13.0088098,14.2763932 C12.9241138,14.1070012 12.7509822,14 12.5615962,14 L4.1796302,14 C3.99024417,14 3.81711261,14.1070012 3.7324166,14.2763932 L3.50864427,14.7239379 C3.42403458,14.8931572 3.25115944,15.000128 3.06196654,15.0003308 L2.49640342,15.0009369 C2.0951434,13.6368157 1.8706132,12.1107647 1.8706132,10.5 C1.8706132,6.63400675 4.03727987,3.13400675 8.3706132,0 Z M15.2409872,12.42 L16.2724604,13.2140198 C16.4690121,13.3653237 16.6023173,13.5842761 16.6464874,13.8283549 L16.7178572,14.2227368 C16.7824664,14.5797604 16.5454177,14.9215613 16.1883941,14.9861705 C16.1498755,14.9931411 16.1108109,14.996655 16.0716666,14.9966704 L14.8706132,14.9971418 C15.0496469,14.1750757 15.1753417,13.3124151 15.2409872,12.42 Z M1.48748316,12.42 C1.55312869,13.3124151 1.67882349,14.1750757 1.85785715,14.9971418 L0.656803736,14.9966704 C0.617659464,14.996655 0.578594894,14.9931411 0.540076257,14.9861705 C0.183052675,14.9215613 -0.05399601,14.5797604 0.0106132,14.2227368 L0.0819829969,13.8283549 C0.126153024,13.5842761 0.259458265,13.3653237 0.456010006,13.2140198 Z M8.3706132,1.882 L8.24608022,1.98091829 C4.95488855,4.63429599 3.3706132,7.46160379 3.3706132,10.5 C3.3706132,11.1383136 3.40924098,11.7667222 3.48457964,12.3781548 L3.5166132,12.613 L3.55296351,12.6006556 C3.70228245,12.5513683 3.85837483,12.5193932 4.01839971,12.5064861 L4.1796302,12.5 L12.5615962,12.5 C12.7780374,12.5 12.989171,12.5349392 13.1882629,12.6006556 L13.2236132,12.613 L13.2566468,12.3781548 C13.3131508,11.9195804 13.3490049,11.4514569 13.3634004,10.9767676 L13.3706132,10.5 C13.3706132,7.46160379 11.7863379,4.63429599 8.49514619,1.98091829 L8.3706132,1.882 Z" id="形状结合" opacity="0.550000012"></path>
                <path d="M10.7002149,5.41131962 C10.9826453,5.69375007 11.0328322,6.13371227 10.8212639,6.4724936 C10.6096957,6.81127494 10.1923388,6.95925697 9.8146132,6.82942129 L9.5498632,7.0941713 C9.97981966,7.71526159 9.93731634,8.54808009 9.4463632,9.12217129 L9.6931132,9.4589213 C9.8063632,9.41917131 9.9271132,9.3959213 10.0538632,9.3959213 C10.6523514,9.39716212 11.1368632,9.88268185 11.1368632,10.4811713 C11.1359933,10.9358623 10.8513873,11.3416641 10.4241775,11.4973449 C9.99696774,11.6530256 9.51800267,11.525479 9.2247948,11.1779537 C8.93158693,10.8304284 8.88648849,10.3368275 9.11186321,9.9419213 L8.8411132,9.57217129 C8.25609824,9.82928904 7.57552558,9.72873334 7.0898632,9.31342129 L6.78761321,9.5759213 C6.84514587,9.84478416 6.72694756,10.1207139 6.49262651,10.2645571 C6.25830545,10.4084004 5.95875867,10.388913 5.74504967,10.2159225 C5.53134066,10.042932 5.4498893,9.75401385 5.54177206,9.49487142 C5.63365482,9.23572898 5.8789138,9.06265076 6.1538632,9.0629213 C6.23186319,9.0629213 6.3053632,9.0786713 6.3743632,9.10417129 L6.6961132,8.8244213 C6.38943057,8.24997828 6.44629905,7.54938215 6.84161321,7.03192129 L6.5033632,6.6644213 C6.4786132,6.66742131 6.45461321,6.67192131 6.42986321,6.67192129 C6.19569901,6.67228771 5.98685756,6.52467579 5.90906186,6.30381195 C5.83126616,6.08294811 5.90149584,5.83703791 6.08419812,5.69056989 C6.2669004,5.54410186 6.52219883,5.52904399 6.72085224,5.65301911 C6.91950565,5.77699423 7.01815609,6.01294363 6.9668632,6.2414213 L7.3081132,6.6126713 C7.82334505,6.29853216 8.46833249,6.28819858 8.9933632,6.5856713 L9.2821132,6.2969213 C9.15227752,5.91919571 9.30025956,5.50183882 9.63904089,5.29027055 C9.97782223,5.07870228 10.4177844,5.12888916 10.7002149,5.41131962 Z M7.50086321,7.8321713 C7.42187574,7.82547767 7.34585005,7.86383235 7.30429616,7.93133865 C7.26274228,7.99884494 7.26274228,8.08399767 7.30429616,8.15150396 C7.34585005,8.21901025 7.42187574,8.25736493 7.50086321,8.2506713 C7.60957929,8.24145839 7.69313076,8.15052705 7.69313076,8.0414213 C7.69313076,7.93231556 7.60957929,7.84138422 7.50086321,7.8321713 Z M8.1721132,7.8321713 C8.09312573,7.82547767 8.01710004,7.86383235 7.97554615,7.93133865 C7.93399226,7.99884494 7.93399226,8.08399767 7.97554615,8.15150396 C8.01710004,8.21901025 8.09312573,8.25736493 8.1721132,8.2506713 C8.28082928,8.24145839 8.36438075,8.15052705 8.36438075,8.0414213 C8.36438075,7.93231556 8.28082928,7.84138422 8.1721132,7.8321713 Z M8.8433632,7.8321713 C8.76437573,7.82547767 8.68835004,7.86383235 8.64679616,7.93133865 C8.60524227,7.99884494 8.60524227,8.08399767 8.64679616,8.15150396 C8.68835004,8.21901025 8.76437573,8.25736493 8.8433632,8.2506713 C8.95207928,8.24145839 9.03563075,8.15052705 9.03563075,8.0414213 C9.03563075,7.93231556 8.95207928,7.84138422 8.8433632,7.8321713 Z" id="形状结合"></path>
            </g>
        </g>
    </g>
</svg>