<?xml version="1.0" encoding="UTF-8"?>
<svg width="20px" height="20px" viewBox="0 0 20 20" version="1.1" xmlns="http://www.w3.org/2000/svg" xmlns:xlink="http://www.w3.org/1999/xlink">
    <title>role-permissions-second-menu</title>
    <g id="role-permissions-second-menu" stroke="none" stroke-width="1" fill="none" fill-rule="evenodd">
        <rect id="矩形" fill-opacity="0" fill="#D8D8D8" x="0" y="0" width="20" height="20"></rect>
        <g id="elasticsearch" transform="translate(2.000000, 2.000000)">
            <rect id="矩形" fill-opacity="0" fill="#D8D8D8" x="0" y="0" width="16" height="16"></rect>
            <g id="编组" transform="translate(0.850350, 0.000000)" fill="#57689C">
                <path d="M10.2767225,3.6298717 C10.2767225,5.6345848 8.65161329,7.2597277 6.64688898,7.2597277 C4.64217588,7.2597277 3.01703298,5.6345848 3.01703298,3.6298717 C3.01703298,1.62514738 4.64217588,0 6.64688898,0 C8.65161329,0 10.2767225,1.62514738 10.2767225,3.6298717 Z M7.81471486,8.46968344 C9.85085804,8.46968344 11.5408635,9.17488213 12.6872892,10.3109158 L10.7923888,12.3624907 C10.1149275,11.9612058 9.25212291,12.0719051 8.67691987,12.6945886 C7.97389393,13.4556462 7.97389393,14.680257 8.67691987,15.4343958 C8.79426744,15.5614299 8.9164945,15.6576736 9.04399833,15.7298953 L1.65724734,15.7293842 C0.654890792,15.7293842 -0.0531182431,14.9248336 0.00312850566,13.923969 C0.175458493,10.8576574 2.75021119,8.46968344 6.49707029,8.46968344 L7.81471486,8.46968344 Z" id="形状结合" opacity="0.550000012"></path>
                <path d="M14.4983937,13.0125 C13.9358937,12.45 13.0921437,12.35 12.4296437,12.7125 L10.6296437,10.9125 L11.5108937,10.03125 L11.1546437,9.675 L10.0233937,10.30625 L9.85277541,10.1652916 L9.14652541,10.8715416 L11.7233937,13.41875 C11.3671437,14.08125 11.4671437,14.925 12.0233937,15.4875 C12.7046437,16.16875 13.8171437,16.16875 14.4983937,15.4875 C15.1858937,14.80625 15.1858937,13.7 14.4983937,13.0125 Z M13.7921437,14.78125 C13.4983937,15.075 13.0233937,15.075 12.7296437,14.78125 C12.4358937,14.4875 12.4358937,14.0125 12.7296437,13.71875 C13.0233937,13.425 13.4983937,13.425 13.7921437,13.71875 C14.0858937,14.0125 14.0858937,14.4875 13.7921437,14.78125 Z" id="形状" fill-rule="nonzero" transform="translate(12.080272, 12.836719) scale(-1, 1) translate(-12.080272, -12.836719) "></path>
            </g>
        </g>
    </g>
</svg>