<?xml version="1.0" encoding="UTF-8"?>
<svg width="20px" height="20px" viewBox="0 0 20 20" version="1.1" xmlns="http://www.w3.org/2000/svg" xmlns:xlink="http://www.w3.org/1999/xlink">
    <title>role-info-second-menu</title>
    <g id="role-info-second-menu" stroke="none" stroke-width="1" fill="none" fill-rule="evenodd">
        <rect id="矩形" fill="#FFFFFF" opacity="0" x="0" y="0" width="20" height="20"></rect>
        <g id="用户角色" transform="translate(2.000000, 2.000000)">
            <rect id="矩形" fill-opacity="0" fill="#D8D8D8" x="0.15" y="0" width="16" height="16"></rect>
            <path d="M13.65,10.3 L16.15,10.3 L16.15,8.7 L13.65,8.7 L13.65,10.3 Z M12.65,7.3 L16.15,7.3 L16.15,5.7 L12.65,5.7 L12.65,7.3 Z M11.65,4.3 L16.15,4.3 L16.15,2.7 L11.65,2.7 L11.65,4.3 Z" id="形状结合" fill="#57689C" fill-rule="nonzero" opacity="0.550000012"></path>
            <path d="M10.75934,3.9298717 C10.75934,5.9345848 9.13423073,7.5597277 7.12950641,7.5597277 C5.12479331,7.5597277 3.49965041,5.9345848 3.49965041,3.9298717 C3.49965041,1.92514738 5.12479331,0.3 7.12950641,0.3 C9.13423073,0.3 10.75934,1.92514738 10.75934,3.9298717 Z M10.3178936,8.69747036 C12.6697636,9.49897028 14.1781475,11.4321026 14.3086566,13.7542856 C14.3649034,14.7551502 13.6568944,15.5597008 12.6545378,15.5597008 L1.65724734,15.5597008 C0.654890792,15.5597008 -0.0531182431,14.7551502 0.00312850566,13.7542856 C0.133507793,11.4344135 1.63902076,9.50281825 3.98687255,8.6998666 L7.15163093,11.863961 Z" id="形状结合" fill="#57689C"></path>
        </g>
    </g>
</svg>