<?xml version="1.0" encoding="UTF-8"?>
<svg width="20px" height="20px" viewBox="0 0 20 20" version="1.1" xmlns="http://www.w3.org/2000/svg" xmlns:xlink="http://www.w3.org/1999/xlink">
    <title>routing-table-second-menu</title>
    <g id="routing-table-second-menu" stroke="none" stroke-width="1" fill="none" fill-rule="evenodd">
        <rect id="矩形" fill-opacity="0" fill="#D8D8D8" x="0" y="0" width="20" height="20"></rect>
        <g id="编组-2" transform="translate(2.000000, 2.000000)">
            <rect id="矩形" fill-opacity="0" fill="#D8D8D8" x="0" y="0" width="16" height="16"></rect>
            <g id="图形" transform="translate(1.000000, 0.000000)" fill="#57689C">
                <path d="M8.276,0 L14,5.669 L14,15.000708 C14,15.5529927 13.5522847,16.000708 13,16.000708 L1,16.000708 C0.44771525,16.000708 6.76353751e-17,15.5529927 0,15.000708 L0,1.00075573 C-6.76353751e-17,0.44847098 0.44771525,0.000755729996 1,0.000755729996 L8.276,0 Z M10.8,10.4007085 L3.22857143,10.4007085 L3.22857143,11.6007085 L10.8,11.6007085 L10.8,10.4007085 Z M10.8,7.4007085 L3.22857143,7.4007085 L3.22857143,8.6007085 L10.8,8.6007085 L10.8,7.4007085 Z" id="形状结合"></path>
            </g>
        </g>
    </g>
</svg>