<?xml version="1.0" encoding="UTF-8"?>
<svg width="20px" height="20px" viewBox="0 0 20 20" version="1.1" xmlns="http://www.w3.org/2000/svg" xmlns:xlink="http://www.w3.org/1999/xlink">
    <title>scenario-ops-second-menu</title>
    <g id="scenario-ops-second-menu" stroke="none" stroke-width="1" fill="none" fill-rule="evenodd">
        <g id="应用性能监控">
            <rect id="矩形" x="0" y="0" width="20" height="20"></rect>
            <path d="M17.0487805,3.95121951 L17.0487805,17 C17.0487805,17.5522847 16.6010652,18 16.0487805,18 L4,18 C3.44771525,18 3,17.5522847 3,17 L3,3.95121951 L17.0487805,3.95121951 Z M7.29268293,11.533101 L7.29268293,13.7073171 L8.88953555,15.1828925 C8.49233935,15.6125241 7.92392635,15.8815331 7.29268293,15.8815331 C6.09189657,15.8815331 5.1184669,14.9081034 5.1184669,13.7073171 C5.1184669,12.5065307 6.09189657,11.533101 7.29268293,11.533101 Z M12.8237251,14.097561 L11.695122,14.097561 C11.4189796,14.097561 11.195122,14.3214186 11.195122,14.597561 C11.195122,14.8737034 11.4189796,15.097561 11.695122,15.097561 L12.8237251,15.097561 C13.0998674,15.097561 13.3237251,14.8737034 13.3237251,14.597561 C13.3237251,14.3214186 13.0998674,14.097561 12.8237251,14.097561 Z M14.2073171,12.5365854 L11.695122,12.5365854 C11.4189796,12.5365854 11.195122,12.760443 11.195122,13.0365854 C11.195122,13.3127277 11.4189796,13.5365854 11.695122,13.5365854 L14.2073171,13.5365854 C14.4834594,13.5365854 14.7073171,13.3127277 14.7073171,13.0365854 C14.7073171,12.760443 14.4834594,12.5365854 14.2073171,12.5365854 Z M6.01219512,8.24390244 L5.84146341,8.24390244 C5.56532104,8.24390244 5.34146341,8.46776006 5.34146341,8.74390244 L5.34146341,8.91463415 C5.34146341,9.19077652 5.56532104,9.41463415 5.84146341,9.41463415 L6.01219512,9.41463415 C6.2883375,9.41463415 6.51219512,9.19077652 6.51219512,8.91463415 L6.51219512,8.74390244 C6.51219512,8.46776006 6.2883375,8.24390244 6.01219512,8.24390244 Z M7.96341463,6.68292683 L7.79268293,6.68292683 C7.51654055,6.68292683 7.29268293,6.90678445 7.29268293,7.18292683 L7.29268293,8.91463415 C7.29268293,9.19077652 7.51654055,9.41463415 7.79268293,9.41463415 L7.96341463,9.41463415 C8.23955701,9.41463415 8.46341463,9.19077652 8.46341463,8.91463415 L8.46341463,7.18292683 C8.46341463,6.90678445 8.23955701,6.68292683 7.96341463,6.68292683 Z M13.8170732,5.90243902 L13.6463415,5.90243902 C13.3701991,5.90243902 13.1463415,6.12629665 13.1463415,6.40243902 L13.1463415,8.91463415 C13.1463415,9.19077652 13.3701991,9.41463415 13.6463415,9.41463415 L13.8170732,9.41463415 C14.0932155,9.41463415 14.3170732,9.19077652 14.3170732,8.91463415 L14.3170732,6.40243902 C14.3170732,6.12629665 14.0932155,5.90243902 13.8170732,5.90243902 Z M9.91463415,7.07317073 L9.74390244,7.07317073 C9.46776006,7.07317073 9.24390244,7.29702836 9.24390244,7.57317073 L9.24390244,8.91463415 C9.24390244,9.19077652 9.46776006,9.41463415 9.74390244,9.41463415 L9.91463415,9.41463415 C10.1907765,9.41463415 10.4146341,9.19077652 10.4146341,8.91463415 L10.4146341,7.57317073 C10.4146341,7.29702836 10.1907765,7.07317073 9.91463415,7.07317073 Z M11.8658537,7.07317073 L11.695122,7.07317073 C11.4189796,7.07317073 11.195122,7.29702836 11.195122,7.57317073 L11.195122,8.91463415 C11.195122,9.19077652 11.4189796,9.41463415 11.695122,9.41463415 L11.8658537,9.41463415 C12.141996,9.41463415 12.3658537,9.19077652 12.3658537,8.91463415 L12.3658537,7.57317073 C12.3658537,7.29702836 12.141996,7.07317073 11.8658537,7.07317073 Z M9.45618741,15.37531 C9.4765128,15.3489854 9.49636844,15.3222795 9.51554823,15.2954755 C9.53123231,15.2735624 9.54660041,15.2514077 9.56188707,15.2286591 C9.59378368,15.1811767 9.6242294,15.1326381 9.6534194,15.0826639 C9.66293765,15.0663614 9.67229186,15.0499514 9.68147977,15.0334362 L9.72665937,14.9487492 L9.74867492,14.9046921 C9.75281154,14.8962231 9.75690565,14.8877296 9.76089805,14.8793357 C9.78232833,14.8342848 9.80256151,14.7885544 9.82139384,14.7425826 C9.82684284,14.729287 9.83219002,14.7159389 9.83764321,14.7020057 C9.88264011,14.5869656 9.92006199,14.4681287 9.94939145,14.3457077 C9.95396974,14.3265852 9.95834692,14.3073845 9.96242453,14.2885517 C9.97153084,14.2465278 9.97967013,14.2041435 9.98680335,14.1615107 C9.99101727,14.1363305 9.99488673,14.1110336 9.99848473,14.0850615 C10.0037592,14.0469299 10.0082466,14.008547 10.0118737,13.9705198 C10.014168,13.9465208 10.0161518,13.9224312 10.0178481,13.8978631 C10.0221856,13.8349105 10.0243902,13.7713712 10.0243902,13.7073171 C10.0243902,12.1986368 8.80136322,10.9756098 7.29268293,10.9756098 C5.78400263,10.9756098 4.56097561,12.1986368 4.56097561,13.7073171 C4.56097561,15.2159974 5.78400263,16.4390244 7.29268293,16.4390244 C8.08555897,16.4390244 8.79953894,16.1012302 9.2985608,15.5617038 L9.3,15.5592195 L9.332,15.5232195 L9.378,15.4702195 L9.372,15.4782195 L9.37936472,15.4703534 L9.381,15.4672195 L9.39840125,15.4475988 L9.387,15.4602195 Z" id="形状结合" fill="#57689C"></path>
            <path d="M4,2 L16.0487805,2 C16.6010652,2 17.0487805,2.44771525 17.0487805,3 L17.0487805,3.95121951 L17.0487805,3.95121951 L3,3.95121951 L3,3 C3,2.44771525 3.44771525,2 4,2 Z" id="矩形备份-32" fill="#57689C" opacity="0.55"></path>
        </g>
    </g>
</svg>