<?xml version="1.0" encoding="UTF-8"?>
<svg width="20px" height="20px" viewBox="0 0 20 20" version="1.1" xmlns="http://www.w3.org/2000/svg" xmlns:xlink="http://www.w3.org/1999/xlink">
    <title>security-domain-info-second-menu</title>
    <g id="security-domain-info-second-menu" stroke="none" stroke-width="1" fill="none" fill-rule="evenodd">
        <rect id="矩形" fill="#FFFFFF" opacity="0" x="0" y="0" width="20" height="20"></rect>
        <g id="图形" transform="translate(2.000000, 2.000000)" fill-rule="nonzero">
            <rect id="矩形" fill="#000000" opacity="0" x="0" y="0" width="16" height="16"></rect>
            <path d="M8.17662642,0.0314599807 L14.666343,2.17624867 C14.9216113,2.26058759 15.0938414,2.49917887 15.0938414,2.76801885 L15.0938414,8.96158341 C15.0938414,9.13495296 15.0737456,9.31460111 15.0336997,9.50019671 L9,9.5 L8.99927176,15.684204 C8.36254699,16 8.08990582,16 7.98209866,16 C7.83811608,16 7.39993918,16 6.18970243,15.2336354 C5.46747585,14.776593 4.66533805,14.1696949 3.93083113,13.5250658 C3.08544516,12.7830839 2.36855786,12.0247282 1.85741081,11.3322236 C1.20228118,10.4446574 0.87,9.64696895 0.87,8.96122745 L0.87,2.7676629 C0.87,2.49904868 1.04213927,2.26067028 1.29714238,2.17624867 L7.78507923,0.0314599807 C7.91222464,-0.0104866602 8.04948101,-0.0104866602 8.17662642,0.0314599807 Z M2.115,7.99907169 L2.11512005,8.96193936 C2.11512005,9.75731407 3.09808146,11.1236358 4.68206779,12.5276884 C5.35392717,13.123552 6.09323944,13.6902276 6.76349703,14.1232432 C7.49355456,14.5948795 7.87762675,14.7351246 7.98209866,14.7538121 L7.99794085,14.7506372 L8,8 L2.115,7.99907169 Z M7.999,1.28507169 L8,8 L13.847,7.99907169 L13.8480094,3.21794216 L7.999,1.28507169 Z" id="形状结合" fill="#57689C" opacity="0.550000012"></path>
            <path d="M9.97211947,11.6684505 L16,11.6684505 L16,10.4684505 L9.97211947,10.4684505 L9.97211947,11.6684505 Z M9.97211947,13.6684505 L16,13.6684505 L16,12.4684505 L9.97211947,12.4684505 L9.97211947,13.6684505 Z M9.97211947,15.6684505 L16,15.6684505 L16,14.4684505 L9.97211947,14.4684505 L9.97211947,15.6684505 Z" id="形状结合" fill="#57689C"></path>
        </g>
    </g>
</svg>