<?xml version="1.0" encoding="UTF-8"?>
<svg width="20px" height="20px" viewBox="0 0 20 20" version="1.1" xmlns="http://www.w3.org/2000/svg" xmlns:xlink="http://www.w3.org/1999/xlink">
    <title>service-secong menu-normal</title>
    <g id="service-secong-menu-normal" stroke="none" stroke-width="1" fill="none" fill-rule="evenodd">
        <g id="服务" fill-rule="nonzero">
            <rect id="矩形" fill="#000000" opacity="0" x="0" y="0" width="20" height="20"></rect>
            <path d="M9.4870239,9.4904563 L6.29029201,9.4904563 C5.44860378,9.4904563 4.71128489,9.21606594 4.08506885,8.65550158 C3.57837253,8.20940682 3.22654685,7.61180818 3.08177648,6.9519246 C2.81916975,5.78702809 3.21812997,4.57331367 4.12041975,3.79222699 C4.60186542,3.376433 5.15737965,3.11887641 5.78696245,3.03639096 C6.80708858,2.90340422 7.6992781,3.18789484 8.450064,3.89322958 C8.9937946,4.40497602 9.32036963,5.03792557 9.44325612,5.77187771 C9.47187352,5.93853198 9.48534053,6.10686962 9.4870239,6.27520727 C9.49039066,7.32900093 9.48870728,8.38111122 9.48870728,9.43490488 L9.4870239,9.4904563 Z M9.48703151,10.4398806 L9.48703151,13.643346 C9.48870728,14.4850343 9.21095016,15.2223531 8.64870243,15.8485692 C8.15210637,16.4007167 7.53599059,16.7559091 6.80035507,16.8754288 C5.67417622,17.0589169 4.70623476,16.7306585 3.90663094,15.9209544 C3.47231982,15.4866433 3.17941231,14.9294456 3.06662609,14.3251135 C2.87135442,13.2982539 3.10366037,12.3740802 3.78542784,11.5778431 C4.28707402,10.9920281 4.93012383,10.6418858 5.68764324,10.4987988 C5.89469854,10.4600811 6.10680397,10.441564 6.31722603,10.441564 L9.41632209,10.441564 L9.48703151,10.4398806 L9.48703151,10.4398806 Z M10.4381316,10.4769149 L13.6617975,10.4769149 C14.3149476,10.4769149 14.9209631,10.6418858 15.4697438,10.9987616 C16.1430944,11.4381229 16.5992894,12.0441384 16.8046614,12.8201749 C17.0790517,13.8520847 16.8888302,14.8048758 16.2424136,15.6566643 C15.7980022,16.2407959 15.2105039,16.6246057 14.5018024,16.8165107 C14.1516601,16.9141465 13.7863674,16.9461306 13.4244414,16.9107797 C12.1938932,16.7828431 11.3067539,16.1532603 10.7495562,15.0540155 C10.5812186,14.7240737 10.4919996,14.3688813 10.453282,14.0002218 C10.4414984,13.8840689 10.4381316,13.7679159 10.4381316,13.6500795 C10.4364482,12.6114363 10.4364482,11.572793 10.4381316,10.5324663 L10.4381316,10.4769149 L10.4381316,10.4769149 Z" id="形状" fill="#AEBBD7"></path>
            <path d="M10.4381316,9.4904563 L10.4381316,6.27184051 C10.4381316,5.55640552 10.6401368,4.90493883 11.0626643,4.32585733 C11.5070757,3.7198418 12.0912073,3.30404782 12.8201093,3.11887641 C13.9866892,2.82428553 15.0303826,3.07510862 15.917522,3.89491295 C16.4124347,4.34437447 16.7423764,4.94702324 16.8585294,5.60522344 C17.0723182,6.78527033 16.7457432,7.80202972 15.8687041,8.62688418 C15.3923085,9.07466232 14.8165938,9.33726905 14.1718606,9.43995501 C13.9866892,9.47025579 13.7998344,9.48540617 13.6112962,9.48540617 C12.5760197,9.48877293 11.5424266,9.48708955 10.50715,9.48708955 L10.4381316,9.4904563 L10.4381316,9.4904563 Z" id="路径" fill="#717FAB"></path>
        </g>
    </g>
</svg>