<?xml version="1.0" encoding="UTF-8"?>
<svg width="20px" height="20px" viewBox="0 0 20 20" version="1.1" xmlns="http://www.w3.org/2000/svg" xmlns:xlink="http://www.w3.org/1999/xlink">
    <title>service-catalog-second-menu</title>
    <g id="service-catalog-second-menu" stroke="none" stroke-width="1" fill="none" fill-rule="evenodd">
        <g id="应用性能监控">
            <rect id="矩形" x="0" y="0" width="20" height="20"></rect>
            <path d="M17,4 C17.5522847,4 18,4.44771525 18,5 L18,15 C18,15.5522847 17.5522847,16 17,16 L3,16 C2.44771525,16 2,15.5522847 2,15 L2,5 C2,4.44771525 2.44771525,4 3,4 L17,4 Z M15,12 L5,12 C4.66862915,12 4.4,12.2686292 4.4,12.6 C4.4,12.9313708 4.66862915,13.2 5,13.2 L15,13.2 C15.3313708,13.2 15.6,12.9313708 15.6,12.6 C15.6,12.2686292 15.3313708,12 15,12 Z M9.4,9.46666667 L5,9.46666667 C4.66862915,9.46666667 4.4,9.73529582 4.4,10.0666667 C4.4,10.3980375 4.66862915,10.6666667 5,10.6666667 L9.4,10.6666667 C9.73137085,10.6666667 10,10.3980375 10,10.0666667 C10,9.73529582 9.73137085,9.46666667 9.4,9.46666667 Z M5.2,6.8 C4.7581722,6.8 4.4,7.1581722 4.4,7.6 C4.4,8.0418278 4.7581722,8.4 5.2,8.4 C5.6418278,8.4 6,8.0418278 6,7.6 C6,7.1581722 5.6418278,6.8 5.2,6.8 Z M8,6.8 C7.5581722,6.8 7.2,7.1581722 7.2,7.6 C7.2,8.0418278 7.5581722,8.4 8,8.4 C8.4418278,8.4 8.8,8.0418278 8.8,7.6 C8.8,7.1581722 8.4418278,6.8 8,6.8 Z" id="形状结合" fill="#57689C"></path>
        </g>
    </g>
</svg>