<?xml version="1.0" encoding="UTF-8"?>
<svg width="20px" height="20px" viewBox="0 0 20 20" version="1.1" xmlns="http://www.w3.org/2000/svg" xmlns:xlink="http://www.w3.org/1999/xlink">
    <title>service-name-second-menu</title>
    <g id="service-name-second-menu" stroke="none" stroke-width="1" fill="none" fill-rule="evenodd">
        <g id="服务名">
            <rect id="矩形" fill-opacity="0" fill="#D8D8D8" x="0" y="0" width="20" height="20"></rect>
            <g id="图形" transform="translate(2.000000, 4.000000)" fill="#57689C" fill-rule="nonzero">
                <path d="M15,0 C15.5522847,-1.01453063e-16 16,0.44771525 16,1 L16,11 C16,11.5522847 15.5522847,12 15,12 L1,12 C0.44771525,12 6.76353751e-17,11.5522847 0,11 L0,1 C-6.76353751e-17,0.44771525 0.44771525,-2.31613845e-16 1,0 L15,0 Z M9.72,8.4 L2.72,8.4 L2.72,9.6 L9.72,9.6 L9.72,8.4 Z M6.72,6 L2.72,6 L2.72,7.2 L6.72,7.2 L6.72,6 Z M12,2 C10.8954305,2 10,2.8954305 10,4 C10,5.1045695 10.8954305,6 12,6 C13.1045695,6 14,5.1045695 14,4 C14,2.8954305 13.1045695,2 12,2 Z M12,3.2 C12.4418278,3.2 12.8,3.5581722 12.8,4 C12.8,4.4418278 12.4418278,4.8 12,4.8 C11.5581722,4.8 11.2,4.4418278 11.2,4 C11.2,3.5581722 11.5581722,3.2 12,3.2 Z" id="形状结合"></path>
            </g>
        </g>
    </g>
</svg>