<?xml version="1.0" encoding="UTF-8"?>
<svg width="20px" height="20px" viewBox="0 0 20 20" version="1.1" xmlns="http://www.w3.org/2000/svg" xmlns:xlink="http://www.w3.org/1999/xlink">
    <title>service-center-second-menu</title>
    <g id="service-center-second-menu" stroke="none" stroke-width="1" fill="none" fill-rule="evenodd">
        <g id="编组-53" transform="translate(2.000000, 2.000000)">
            <rect id="矩形" x="0" y="0" width="16" height="16"></rect>
            <path d="M1,12 L15,12 C15.5522847,12 16,12.4477153 16,13 L16,16 L16,16 L0,16 L0,13 C-6.76353751e-17,12.4477153 0.44771525,12 1,12 Z" id="矩形" fill="#57689C"></path>
            <path d="M14,0 C14.5522847,-1.01453063e-16 15,0.44771525 15,1 L15,12 L6,12 L6,1 C6,0.44771525 6.44771525,5.45542273e-16 7,0 L14,0 Z M13,7 L8,7 L8,8.2 L13,8.2 L13,7 Z M13,3 L8,3 L8,4.2 L13,4.2 L13,3 Z" id="形状结合" fill="#57689C"></path>
            <path d="M2,2 L6,2 L6,2 L6,12 L1,12 L1,3 C1,2.44771525 1.44771525,2 2,2 Z" id="矩形备份-20" fill="#57689C" fill-rule="nonzero" opacity="0.55"></path>
        </g>
    </g>
</svg>