<?xml version="1.0" encoding="UTF-8"?>
<svg width="20px" height="20px" viewBox="0 0 20 20" version="1.1" xmlns="http://www.w3.org/2000/svg" xmlns:xlink="http://www.w3.org/1999/xlink">
    <title>service-drm-second-menu</title>
    <g id="service-drm-second-menu" stroke="none" stroke-width="1" fill="none" fill-rule="evenodd">
        <g>
            <rect id="矩形" fill="#000000" fill-rule="nonzero" opacity="0" x="0" y="0" width="20" height="20"></rect>
            <g id="编组" transform="translate(2.000000, 2.000000)" fill="#57689C">
                <path d="M7.37369965,7.37760121 L3.74002399,7.37760121 C2.78329001,7.37760121 1.94519104,7.06570593 1.23338096,6.4285211 C0.657427104,5.92145209 0.2575123,5.24217096 0.092954055,4.49209152 C-0.205546947,3.16797169 0.24794496,1.78836129 1.27356379,0.900512156 C1.82081563,0.427885569 2.45226005,0.135124971 3.16789707,0.0413650409 C4.32745866,-0.109798928 5.34159668,0.213577158 6.19500339,1.01532023 C6.81305354,1.59701449 7.18426632,2.31647845 7.32394949,3.15075048 C7.35647844,3.34018381 7.37178618,3.5315306 7.37369965,3.7228774 C7.37752659,4.92070835 7.37561312,6.11662582 7.37561312,7.31445677 L7.37369965,7.37760121 Z" id="路径" fill-rule="nonzero" opacity="0.550000012"></path>
                <path d="M7.3737083,8.45679714 L7.3737083,12.0981267 C7.37561312,13.0548607 7.05989091,13.8929596 6.42079261,14.6047697 C5.85631956,15.2323872 5.15599028,15.6361289 4.31980478,15.7719852 C3.03969472,15.9805532 1.93945064,15.6074269 1.03055336,14.6870488 C0.536878622,14.1933741 0.203935197,13.5600162 0.0757328433,12.8730812 C-0.14622944,11.7058657 0.117829138,10.6553718 0.892783663,9.75030148 C1.46299712,9.08441463 2.19394188,8.6864133 3.05500246,8.52376852 C3.29035902,8.47975876 3.53145598,8.45871061 3.77063948,8.45871061 L7.293334,8.45871061 L7.3737083,8.45679714 L7.3737083,8.45679714 Z" id="路径" fill-rule="nonzero" opacity="0.550000012"></path>
                <g id="编组备份-4" transform="translate(9.093476, 8.936779)">
                    <path d="M4.98952463,5.3123108 L5.48390698,6.40024153 C5.53890587,6.52043344 5.52380593,6.64816408 5.4406625,6.75940706 C5.28448725,6.96924594 4.9361685,7.06322115 4.65995888,7.06322115 L1.1147062,7.06322115 C0.791636509,7.06322115 0.492338162,6.95112303 0.351960487,6.77781502 C0.263678725,6.66852989 0.239757361,6.54000413 0.284674616,6.41511644 L0.290758099,6.40024153 L0.785132958,5.3123108 C1.32736555,5.78982293 2.06973047,6.0854457 2.88737005,6.0854457 C3.7048971,6.0854457 4.44699948,5.79007799 4.98952463,5.3123108 Z M2.90713961,0 C4.51269895,0 5.81427923,1.30130271 5.81427923,2.90651701 C5.81427923,4.51173131 4.51269895,5.81301901 2.90713961,5.81301901 C1.30158025,5.81301901 0,4.51173131 0,2.90650951 C0,1.30128771 1.30158025,0 2.90713961,0 Z M2.90713961,1.77717208 C1.99311696,1.77717208 1.25217727,2.51796174 1.25217727,3.43178185 C1.25217727,4.34560198 1.99312446,5.08639915 2.90713961,5.08639915 C3.82116225,5.08639915 4.56210195,4.34560948 4.56210195,3.43178934 C4.56210195,2.51796924 3.82116225,1.77717208 2.90713961,1.77717208 Z M2.90713961,2.56508435 C3.40525757,2.56508435 3.80904779,2.96879957 3.80904779,3.46680503 C3.80904779,3.96481045 3.40525757,4.36852566 2.90713961,4.36852566 C2.40902165,4.36852566 2.00523142,3.96481045 2.00523142,3.46680503 C2.00523142,2.96879957 2.40902915,2.56508435 2.90713961,2.56508435 Z" id="形状结合"></path>
                </g>
                <path d="M8.45480905,7.37760121 L8.45480905,3.71905046 C8.45480905,2.90582658 8.68442521,2.16531448 9.16470566,1.5070815 C9.66986121,0.818233034 10.3338346,0.345606447 11.1623662,0.135124971 C12.4883995,-0.199731922 13.6747497,0.085374804 14.6831473,1.0172337 C15.2457068,1.52812965 15.6207466,2.21315118 15.7527759,2.96131715 C15.9957863,4.30265819 15.6245735,5.45839284 14.6276567,6.39599214 C14.0861453,6.90497462 13.4317392,7.20347562 12.698881,7.32019717 C12.4883995,7.35463959 12.2760046,7.37186081 12.0616962,7.37186081 C10.8849134,7.37568774 9.71004403,7.37377427 8.53326124,7.37377427 L8.45480905,7.37760121 L8.45480905,7.37760121 Z" id="路径" fill-rule="nonzero" opacity="0.550000012"></path>
            </g>
        </g>
    </g>
</svg>