<?xml version="1.0" encoding="UTF-8"?>
<svg width="20px" height="20px" viewBox="0 0 20 20" version="1.1" xmlns="http://www.w3.org/2000/svg" xmlns:xlink="http://www.w3.org/1999/xlink">
    <title>server-info-second-menu</title>
    <g id="server-info-second-menu" stroke="none" stroke-width="1" fill="none" fill-rule="evenodd">
        <rect id="矩形" fill="#FFFFFF" opacity="0" x="0" y="0" width="20" height="20"></rect>
        <g id="配置中心备份" transform="translate(2.000000, 2.000000)" fill-rule="nonzero">
            <rect id="矩形" fill="#000000" opacity="0" x="0" y="0" width="16" height="16"></rect>
            <path d="M14.2631688,0 C14.6684208,0 15,0.37894768 15,0.842092798 L15,15.1579072 C15,15.6210523 14.6684208,16 14.2631688,16 L1.7368312,16 C1.33157922,16 1,15.6210523 1,15.1579072 L1,0.842092798 C1,0.37894768 1.33157922,0 1.7368312,0 Z M8,12 C7.44771525,12 7,12.4477153 7,13 C7,13.5522847 7.44771525,14 8,14 C8.55228475,14 9,13.5522847 9,13 C9,12.4477153 8.55228475,12 8,12 Z M12,7 L4,7 L4,8.3 L12,8.3 L12,7 Z M12,4 L4,4 L4,5.3 L12,5.3 L12,4 Z" id="形状结合" fill="#57689C"></path>
        </g>
    </g>
</svg>