<?xml version="1.0" encoding="UTF-8"?>
<svg width="20px" height="20px" viewBox="0 0 20 20" version="1.1" xmlns="http://www.w3.org/2000/svg" xmlns:xlink="http://www.w3.org/1999/xlink">
    <title>service-second-menu</title>
    <g id="service-second-menu" stroke="none" stroke-width="1" fill="none" fill-rule="evenodd">
        <g id="图形" fill="#57689C">
            <rect id="矩形" opacity="0" x="0" y="0" width="20" height="20"></rect>
            <path d="M13,14 C13.2761424,14 13.5,14.2238576 13.5,14.5 L13.5,16 C13.5,16.2761424 13.2761424,16.5 13,16.5 L7,16.5 C6.72385763,16.5 6.5,16.2761424 6.5,16 L6.5,14.5 C6.5,14.2238576 6.72385763,14 7,14 L13,14 Z M8.6,14.65 C8.26862915,14.65 8,14.9186292 8,15.25 C8,15.5813708 8.26862915,15.85 8.6,15.85 C8.93137085,15.85 9.2,15.5813708 9.2,15.25 C9.2,14.9186292 8.93137085,14.65 8.6,14.65 Z M13,11 C13.2761424,11 13.5,11.2238576 13.5,11.5 L13.5,13 C13.5,13.2761424 13.2761424,13.5 13,13.5 L7,13.5 C6.72385763,13.5 6.5,13.2761424 6.5,13 L6.5,11.5 C6.5,11.2238576 6.72385763,11 7,11 L13,11 Z M8.6,11.65 C8.26862915,11.65 8,11.9186292 8,12.25 C8,12.5813708 8.26862915,12.85 8.6,12.85 C8.93137085,12.85 9.2,12.5813708 9.2,12.25 C9.2,11.9186292 8.93137085,11.65 8.6,11.65 Z M13,8 C13.2761424,8 13.5,8.22385763 13.5,8.5 L13.5,10 C13.5,10.2761424 13.2761424,10.5 13,10.5 L7,10.5 C6.72385763,10.5 6.5,10.2761424 6.5,10 L6.5,8.5 C6.5,8.22385763 6.72385763,8 7,8 L13,8 Z M8.6,8.65 C8.26862915,8.65 8,8.91862915 8,9.25 C8,9.58137085 8.26862915,9.85 8.6,9.85 C8.93137085,9.85 9.2,9.58137085 9.2,9.25 C9.2,8.91862915 8.93137085,8.65 8.6,8.65 Z" id="形状结合" fill-rule="nonzero" opacity="0.550000012"></path>
            <path d="M10.0035485,2.7 C7.56251587,2.7 5.47862042,4.23390419 4.66077627,6.39279846 C3.12330071,6.79814916 1.99117584,8.20348397 2,9.8713146 C2.01081839,11.7355707 3.45722397,13.251618 5.2786236,13.4141154 C5.36255083,13.4212582 5.43397827,13.3551878 5.43397827,13.2712606 L5.43397827,12.1927063 C5.43397827,12.1212788 5.38040769,12.0605655 5.30898026,12.0516371 C4.82684506,11.9909238 4.37149516,11.7802128 4.02150072,11.4355755 C3.5929361,11.0159393 3.35722556,10.4516625 3.35722556,9.85345775 C3.35722556,9.35346569 3.51972298,8.88204461 3.82507527,8.48919371 C4.12328481,8.10705693 4.542921,7.83027561 5.00541365,7.70884897 L5.68218861,7.53028038 L5.93039895,6.87493365 C6.08396794,6.46779726 6.29825025,6.08566048 6.56788882,5.7410231 C6.83395602,5.39817141 7.15002243,5.09817617 7.50358824,4.84818015 C8.23750514,4.33211692 9.10177712,4.05890698 10.0035485,4.05890698 C10.9053199,4.05890698 11.7695919,4.33211692 12.5035088,4.84996583 C12.8588603,5.09996186 13.173141,5.39995709 13.4392082,5.74280879 C13.7088468,6.08744617 13.9231291,6.46958295 14.0766981,6.87671934 L14.3231227,7.53028038 L14.998112,7.70884897 C15.9659538,7.96598774 16.6427287,8.84633089 16.6427287,9.85167206 C16.6427287,10.4516625 16.4070182,11.0141536 15.9784536,11.4337898 C15.6302448,11.7766415 15.1766806,11.9891381 14.6945454,12.0498514 C14.6231179,12.0587798 14.5713331,12.1194932 14.5713331,12.1909206 L14.5713331,13.2712606 C14.5713331,13.3551878 14.6445462,13.4212582 14.7284734,13.4141154 C16.544516,13.2498323 17.9873502,11.7355707 18,9.87488598 C18.0105641,8.20705534 16.8802249,6.80172053 15.3463207,6.39458414 C14.5284766,4.23568988 12.4445811,2.7 10.0035485,2.7 Z" id="路径" fill-rule="nonzero"></path>
        </g>
    </g>
</svg>