<?xml version="1.0" encoding="UTF-8"?>
<svg width="20px" height="20px" viewBox="0 0 20 20" version="1.1" xmlns="http://www.w3.org/2000/svg" xmlns:xlink="http://www.w3.org/1999/xlink">
    <title>Service-log-secong-menu</title>
    <g id="Service-log-secong-menu" stroke="none" stroke-width="1" fill="none" fill-rule="evenodd">
        <g id="服务" fill="#000000" fill-rule="nonzero" opacity="0">
            <rect id="矩形" x="0" y="0" width="20" height="20"></rect>
        </g>
        <g id="编组" transform="translate(2.000000, 1.900000)" fill="#57689C">
            <path d="M2.857,1.74285714 L2.85714286,4.02857143 C2.85714286,4.97534529 3.62465471,5.74285714 4.57142857,5.74285714 C5.51820243,5.74285714 6.28571429,4.97534529 6.28571429,4.02857143 L6.285,1.74285714 L9.714,1.74285714 L9.71428571,4.02857143 C9.71428571,4.92551508 10.4031329,5.66156985 11.2806563,5.73656469 L11.4285714,5.74285714 C12.3753453,5.74285714 13.1428571,4.97534529 13.1428571,4.02857143 L13.142,1.74285714 L15,1.74285714 C15.5522847,1.74285714 16,2.19057239 16,2.74285714 L16,15.0285714 C16,15.5808562 15.5522847,16.0285714 15,16.0285714 L1,16.0285714 C0.44771525,16.0285714 6.76353751e-17,15.5808562 0,15.0285714 L0,2.74285714 C-6.76353751e-17,2.19057239 0.44771525,1.74285714 1,1.74285714 L2.857,1.74285714 Z M12,11.3428571 L4,11.3428571 C3.62129046,11.3428571 3.31428571,11.6498619 3.31428571,12.0285714 C3.31428571,12.407281 3.62129046,12.7142857 4,12.7142857 L12,12.7142857 C12.3787095,12.7142857 12.6857143,12.407281 12.6857143,12.0285714 C12.6857143,11.6498619 12.3787095,11.3428571 12,11.3428571 Z M12,7.34285714 L4,7.34285714 C3.62129046,7.34285714 3.31428571,7.64986189 3.31428571,8.02857143 C3.31428571,8.40728097 3.62129046,8.71428571 4,8.71428571 L12,8.71428571 C12.3787095,8.71428571 12.6857143,8.40728097 12.6857143,8.02857143 C12.6857143,7.64986189 12.3787095,7.34285714 12,7.34285714 Z" id="形状结合"></path>
            <path d="M4.57142857,0 C4.90279942,0 5.17142857,0.26862915 5.17142857,0.6 L5.17142857,4.02857143 C5.17142857,4.35994228 4.90279942,4.62857143 4.57142857,4.62857143 C4.24005772,4.62857143 3.97142857,4.35994228 3.97142857,4.02857143 L3.97142857,0.6 C3.97142857,0.26862915 4.24005772,0 4.57142857,0 Z" id="路径-52" fill-rule="nonzero" opacity="0.55"></path>
            <path d="M11.4285714,0 C11.7599423,0 12.0285714,0.26862915 12.0285714,0.6 L12.0285714,4.02857143 C12.0285714,4.35994228 11.7599423,4.62857143 11.4285714,4.62857143 C11.0972006,4.62857143 10.8285714,4.35994228 10.8285714,4.02857143 L10.8285714,0.6 C10.8285714,0.26862915 11.0972006,0 11.4285714,0 Z" id="路径-52备份" fill-rule="nonzero" opacity="0.55"></path>
        </g>
    </g>
</svg>