<?xml version="1.0" encoding="UTF-8"?>
<svg width="20px" height="20px" viewBox="0 0 20 20" version="1.1" xmlns="http://www.w3.org/2000/svg" xmlns:xlink="http://www.w3.org/1999/xlink">
    <title> session-management-info-second-menu</title>
    <g id="-session-management-info-second-menu" stroke="none" stroke-width="1" fill="none" fill-rule="evenodd">
        <rect id="矩形" fill="#FFFFFF" opacity="0" x="0" y="0" width="20" height="20"></rect>
        <g id="编组" transform="translate(2.000000, 2.000000)">
            <rect id="矩形" fill-opacity="0" fill="#D8D8D8" x="0" y="0" width="16" height="16"></rect>
            <path d="M8.685,0.999291501 L14,6.3132915 L13.999632,9.59414368 C13.4023742,9.36515482 13.0055556,8.74034267 13.0055556,7.8 L10.8944444,7.8 C10.8944444,9.39442889 9.71297365,10.1726058 8.25555556,9.38333333 L7.2,11.1435332 C8.55179139,11.875603 8.63433217,13.1796966 7.2,13.9564668 L7.825,14.9992915 L3,15 C2.44771525,15 2,14.5522847 2,14 L2,2 C2,1.44771525 2.44771525,1 3,1 L8.685,0.999291501 Z M10.1,6.9 L3.32857143,6.9 L3.32857143,8.1 L10.1,8.1 L10.1,6.9 Z M8.1,3.9 L3.32857143,3.9 L3.32857143,5.1 L8.1,5.1 L8.1,3.9 Z" id="形状结合" fill="#57689C" opacity="0.550000012"></path>
            <path d="M12.6734535,9 C12.6734535,10.2259014 13.5887385,10.7240134 14.6178979,10.1666667 L15.3956757,11.4636561 C14.3387994,12.036013 14.3996189,12.9969241 15.3956757,13.5363439 L14.6178979,14.8333333 C12.6734535,13.9003491 12.6734535,16 12.6734535,16 L11.1178979,16 C11.1178979,14.7740986 10.2026129,14.2759866 9.17345348,14.8333333 L8.3956757,13.5363439 C9.45255203,12.963987 9.39173251,12.0030759 8.3956757,11.4636561 L9.17345348,10.1666667 C10.2473405,10.7482358 11.1178979,10.1748423 11.1178979,9 L12.6734535,9 Z M11.8956757,11.3333333 C11.2513435,11.3333333 10.729009,11.8556678 10.729009,12.5 C10.729009,13.1443322 11.2513435,13.6666667 11.8956757,13.6666667 C12.5400079,13.6666667 13.0623424,13.1443322 13.0623424,12.5 C13.0623424,11.8556678 12.5400079,11.3333333 11.8956757,11.3333333 Z" id="形状结合" fill="#57689C"></path>
        </g>
    </g>
</svg>