<?xml version="1.0" encoding="UTF-8"?>
<svg width="20px" height="20px" viewBox="0 0 20 20" version="1.1" xmlns="http://www.w3.org/2000/svg" xmlns:xlink="http://www.w3.org/1999/xlink">
    <title>source analysis-second menu-normal</title>
    <g id="source-analysis-second-menu-normal" stroke="none" stroke-width="1" fill="none" fill-rule="evenodd">
        <g id="source-analysis">
            <rect id="矩形" x="0" y="0" width="20" height="20"></rect>
            <g id="编组-2" transform="translate(2.000000, 3.958276)">
                <path d="M10.4884359,10.5417242 C13.2498596,10.5417242 15.4884359,8.30314796 15.4884359,5.54172421 C15.4884359,2.78030046 13.2498596,0.541724212 10.4884359,0.541724212 C7.72701213,0.541724212 5.48843588,2.78030046 5.48843588,5.54172421 C5.48843588,8.30314796 7.72701213,10.5417242 10.4884359,10.5417242 Z M0,5.04172421 L2.857,5.04172421 L2.85714286,4.04172421 L4.48843588,5.64172421 L2.85714286,7.24172421 L2.857,6.24172421 L0,6.24172421 L0,5.04172421 Z M0.600668192,1.32338585e-13 L3.07490277,1.4285 L3.57502649,0.562546025 L4.18776769,2.76383318 L1.97502649,3.33382732 L2.47490277,2.46773048 L0.000668192379,1.03923048 L0.600668192,1.32338585e-13 Z M0.000668192383,10.2442179 L2.47490277,8.81571794 L1.97502649,7.94962111 L4.18776769,8.51961524 L3.57502649,10.7209024 L3.07490277,9.85494842 L0.600668192,11.2834484 L0.000668192383,10.2442179 Z" id="形状结合" fill="#9FAECF"></path>
                <circle id="椭圆形" fill="#57689C" fill-rule="nonzero" cx="10.4884359" cy="5.54172421" r="3.8"></circle>
            </g>
            <g id="编组" transform="translate(1.500668, 3.092250)"></g>
        </g>
    </g>
</svg>