<?xml version="1.0" encoding="UTF-8"?>
<svg width="20px" height="20px" viewBox="0 0 20 20" version="1.1" xmlns="http://www.w3.org/2000/svg" xmlns:xlink="http://www.w3.org/1999/xlink">
    <title>space-analysi-second-menu</title>
    <g id="space-analysi-second-menu" stroke="none" stroke-width="1" fill="none" fill-rule="evenodd">
        <g id="Space-Analysis">
            <rect id="矩形" x="0" y="0" width="20" height="20"></rect>
            <path d="M7.91112296,3.16890074 C7.72693333,3.05838222 7.51616,3 7.30135704,3 L3.18518519,3 C2.53063111,3 2,3.53063111 2,4.18518519 L2,6.55555556 C2,6.88283259 2.26531556,7.14814815 2.59259259,7.14814815 L17.4074074,7.14814815 C17.734637,7.14814815 18,6.88283259 18,6.55555556 L18,5.96296296 C18,5.30840889 17.4693926,4.77777778 16.8148148,4.77777778 L10.9208652,4.77777778 C10.7060622,4.77777778 10.4952889,4.71939556 10.3110993,4.60887704 L7.91112296,3.16890074 Z" id="路径备份" fill="#57689C"></path>
            <path d="M17,8 C17.5522847,8 18,8.44771525 18,9 L18,16 C18,16.5522847 17.5522847,17 17,17 L3,17 C2.44771525,17 2,16.5522847 2,16 L2,9 C2,8.44771525 2.44771525,8 3,8 L17,8 Z M10.4925938,9.3 L9.93275,9.3 C9.767375,9.3 9.619375,9.4136875 9.60121875,9.56167188 L9.52995313,10.1428906 C9.35443274,10.1921543 9.18503663,10.2610806 9.02498438,10.3483594 L8.56146875,9.98610938 C8.44398438,9.89428125 8.25892188,9.91854688 8.142,10.0355 L7.74615625,10.4313594 C7.62923438,10.5482813 7.60495313,10.7333125 7.69676563,10.8508125 L8.05626563,11.3107813 C7.96790938,11.4702426 7.89783055,11.6391656 7.84735938,11.8143438 L7.2616875,11.8861719 C7.11367188,11.9043125 7,12.0523125 7,12.2176563 L7,12.7775313 C7,12.9428906 7.11367188,13.0908594 7.2616875,13.1090313 L7.852,13.1814219 C7.90244512,13.3522869 7.97158735,13.517065 8.05817188,13.6727656 L7.686125,14.1487969 C7.5943125,14.2662969 7.61859375,14.4513281 7.73551563,14.5682188 L8.131375,14.964125 C8.2483125,15.0810781 8.43334375,15.1053125 8.55082813,15.0134688 L9.03339063,14.6363438 C9.18505415,14.7182113 9.34500233,14.7837001 9.51053125,14.8317031 L9.58617188,15.4485625 C9.60432813,15.5965938 9.7523125,15.7102813 9.9176875,15.7102813 L10.4775313,15.7102813 C10.6429063,15.7102813 10.7908906,15.5965938 10.8090781,15.4485625 L10.8852813,14.8270156 C11.0465381,14.7791702 11.2023776,14.7146717 11.3502813,14.6345625 L11.8487813,15.0241563 C11.9662969,15.116 12.1513281,15.0916875 12.2682188,14.97475 L12.664125,14.5789375 C12.7810938,14.4619531 12.8053281,14.2769375 12.7135,14.1594531 L12.326625,13.6644688 C12.4078042,13.5171576 12.4734237,13.3617938 12.5224219,13.2008906 L13.1485469,13.1240938 C13.2965938,13.1059531 13.4102656,12.9579219 13.4102656,12.7925938 L13.4102656,12.2327656 C13.4102656,12.0673438 13.296625,11.9193281 13.1485781,11.9012188 L12.53625,11.8260938 C12.4894181,11.6602849 12.4249838,11.4999614 12.3440469,11.3478594 L12.7241719,10.8614531 C12.8159688,10.7439531 12.7917031,10.5589219 12.6747969,10.442 L12.2789531,10.0461406 C12.1620156,9.92921875 11.9769531,9.9049375 11.8594844,9.99676563 L11.3868906,10.3660781 C11.2318168,10.278469 11.0675528,10.2082318 10.8970781,10.1566406 L10.8240781,9.56167188 C10.8059844,9.4136875 10.6579688,9.3 10.4925938,9.3 Z M10.2051563,11.8051563 C10.6016622,11.8051563 10.9230938,12.1265878 10.9230938,12.5230938 C10.9230938,12.9195997 10.6016622,13.2410313 10.2051563,13.2410313 C9.80865032,13.2410313 9.48721875,12.9195997 9.48721875,12.5230938 C9.48721875,12.1265878 9.80865032,11.8051563 10.2051563,11.8051563 Z" id="形状" fill="#57689C" fill-rule="nonzero" opacity="0.55"></path>
        </g>
    </g>
</svg>