<?xml version="1.0" encoding="UTF-8"?>
<svg width="20px" height="20px" viewBox="0 0 20 20" version="1.1" xmlns="http://www.w3.org/2000/svg" xmlns:xlink="http://www.w3.org/1999/xlink">
    <title>storage-operation-and-maintenance-second-menu</title>
    <g id="storage-operation-and-maintenance-second-menu" stroke="none" stroke-width="1" fill="none" fill-rule="evenodd">
        <rect id="矩形" fill="#000000" opacity="0" x="0" y="0" width="20" height="20"></rect>
        <g id="编组" transform="translate(2.000000, 2.084729)" fill="#57689C">
            <path d="M12.041411,0.29962425 L15.5127755,3.97626348 C15.8768328,4.28998201 16.1581893,5 15.5127755,5 L0.487224493,5 C-0.158189279,5 0.123167187,4.28998201 0.487224493,3.97626348 L3.95858896,0.29962425 C4.08288755,0.134146346 4.30388997,0 4.4545144,0 L11.5454856,0 C11.69611,0 11.9171125,0.134146346 12.041411,0.29962425 Z" id="路径"></path>
            <path d="M14.9,3.91527067 C15.5075132,3.91527067 16,4.40775745 16,5.01527067 L16,14.4152707 C16,15.2436978 15.4883254,15.9152707 14.8571429,15.9152707 L1.14285714,15.9152707 C0.511674572,15.9152707 0,15.2436978 0,14.4152707 L0,5.01527067 C0,4.40775745 0.492486775,3.91527067 1.1,3.91527067 L14.9,3.91527067 Z M11.7333031,10.3160025 L2.45713672,10.3160025 L2.45713672,11.5160025 L11.7333031,11.5160025 L11.7333031,10.3160025 Z M9.14283464,6.31527067 L2.45713672,6.31527067 L2.45713672,7.51527067 L9.14283464,7.51527067 L9.14283464,6.31527067 Z" id="形状" opacity="0.55"></path>
        </g>
        <g id="编组-2" transform="translate(4.457137, 8.400000)"></g>
        <g id="infrastructure" transform="translate(10.000000, 9.000000)" fill="#57689C">
            <path d="M4.4997768,0 C3.1737672,0 1.9999872,0.267785714 1.1776824,0.675678571 C0.323028,1.09961429 0,1.58615714 0,1.96428571 C0,2.34241429 0.323028,2.82895714 1.1776824,3.25289286 C1.9999872,3.66078571 3.1737672,3.92857143 4.4997768,3.92857143 C5.8257864,3.92857143 6.999552,3.66078571 7.821864,3.25289286 C8.676504,2.82895714 8.999568,2.34241429 8.999568,1.96428571 C8.999568,1.58615714 8.676504,1.09961429 7.821864,0.675678571 C6.999552,0.267785714 5.8257864,0 4.4997768,0 Z" id="路径"></path>
            <path d="M9,3.67677857 C8.824824,3.88428571 8.597376,4.06622143 8.305056,4.21120714 C7.303392,4.70808571 5.957352,4.99996429 4.5,4.99999286 C3.0426768,4.99996429 1.6966224,4.70808571 0.6949152,4.21120714 C0.402624,4.06622143 0.1751616,3.88428571 0,3.67677857 L0,5.17856429 L0.0002232,5.17856429 C0.0002232,5.55669286 0.3232512,6.04323571 1.1779056,6.46721429 C2.0002104,6.87507143 3.1739904,7.14285714 4.5,7.14285714 C5.8260096,7.14285714 6.999768,6.87507143 7.82208,6.46721429 C8.67672,6.04323571 8.999784,5.55669286 8.999784,5.17856429 L9,5.17856429 L9,3.67677857 Z M0,8.08771429 L0,6.89107143 C0.1751616,7.09857143 0.402624,7.2805 0.6949152,7.4255 C1.6966224,7.92235714 3.0426768,8.21428571 4.5,8.21428571 C5.957352,8.21428571 7.303392,7.92235714 8.305056,7.4255 C8.597376,7.2805 8.824824,7.09857143 9,6.89107143 L9,8.08771429 L8.992656,8.13942857 C8.93916,8.51528571 8.56008,8.98357143 7.714008,9.37628571 C6.897456,9.75528571 5.7675456,10 4.5,10 C3.2324544,10 2.1025368,9.75528571 1.2859632,9.37628571 C0.4399344,8.98357143 0.06084,8.51528571 0.0073584,8.13942857 L0,8.08771429 Z" id="形状"></path>
        </g>
    </g>
</svg>