<?xml version="1.0" encoding="UTF-8"?>
<svg width="20px" height="20px" viewBox="0 0 20 20" version="1.1" xmlns="http://www.w3.org/2000/svg" xmlns:xlink="http://www.w3.org/1999/xlink">
    <title>supplier-second-menu</title>
    <g id="supplier-second-menu" stroke="none" stroke-width="1" fill="none" fill-rule="evenodd">
        <rect id="矩形" fill-opacity="0" fill="#D8D8D8" x="0" y="0" width="20" height="20"></rect>
        <g id="用户角色" transform="translate(2.000000, 2.000000)">
            <rect id="矩形" fill-opacity="0" fill="#D8D8D8" x="0" y="0" width="16" height="16"></rect>
            <path d="M11.6096896,3.9298717 C11.6096896,5.9345848 9.98458031,7.5597277 7.979856,7.5597277 C5.9751429,7.5597277 4.35,5.9345848 4.35,3.9298717 C4.35,1.92514738 5.9751429,0.3 7.979856,0.3 C9.98458031,0.3 11.6096896,1.92514738 11.6096896,3.9298717 Z M4.83722214,8.6998666 L8.00198052,11.863961 L9.58512036,10.2794706 C9.2126959,10.9346577 9,11.69249 9,12.5 C9,13.6818461 9.4556015,14.7572808 10.2007513,15.5602509 L2.50759693,15.5597008 C1.50524038,15.5597008 0.797231345,14.7551502 0.853478094,13.7542856 C0.983857381,11.4344135 2.48937034,9.50281825 4.83722214,8.6998666 Z" id="形状结合" fill="#57689C" opacity="0.550000012"></path>
            <path d="M13.5,9 C15.4329966,9 17,10.5670034 17,12.5 C17,14.4329966 15.4329966,16 13.5,16 C11.5670034,16 10,14.4329966 10,12.5 C10,10.5670034 11.5670034,9 13.5,9 Z M14.517,13.3135 L14.157,13.696 C14.445,13.9345 14.877,14.398 15.0795,14.6635 L15.4575,14.2225 C15.2415,13.9705 14.8185,13.579 14.517,13.3135 Z M13.5225,13.327 C13.2795,13.642 12.879,14.029 12.555,14.245 L12.9105,14.6545 C13.2705,14.389 13.6395,14.0335 13.914,13.687 L13.5225,13.327 Z M12.294,10.564 C12.087,11.2885 11.7,12.085 11.376,12.517 L11.6955,13.0165 C11.7855,12.895 11.871,12.7825 11.9475,12.661 L11.9475,14.6365 L12.4965,14.6365 L12.4965,11.653 C12.618,11.3695 12.717,11.077 12.8205,10.735 L12.294,10.564 Z M14.319,10.627 L14.319,11.3695 L13.734,11.3695 L13.734,10.6495 L13.185,10.627 L13.185,11.3695 L12.816,11.3695 L12.816,11.905 L13.185,11.905 L13.185,12.7645 L12.6945,12.7645 L12.6945,13.309 L15.426,13.309 L15.426,12.7645 L14.8635,12.7645 L14.8635,11.905 L15.2775,11.905 L15.2775,11.3695 L14.8635,11.3695 L14.8635,10.6495 L14.319,10.627 Z M14.319,11.905 L14.319,12.7645 L13.734,12.7645 L13.734,11.905 L14.319,11.905 Z" id="形状结合" fill="#57689C"></path>
        </g>
    </g>
</svg>