<?xml version="1.0" encoding="UTF-8"?>
<svg width="20px" height="20px" viewBox="0 0 20 20" version="1.1" xmlns="http://www.w3.org/2000/svg" xmlns:xlink="http://www.w3.org/1999/xlink">
    <title>switch-second-menu</title>
    <g id="switch-second-menu" stroke="none" stroke-width="1" fill="none" fill-rule="evenodd">
        <rect id="矩形备份-12" opacity="0.446149554" x="0" y="0" width="20" height="20"></rect>
        <rect id="矩形备份-12" opacity="0.446149554" x="0" y="0" width="20" height="20"></rect>
        <g id="交换机" transform="translate(2.000000, 2.000000)">
            <rect id="矩形备份-12" opacity="0.446149554" x="0" y="0" width="16" height="16"></rect>
            <path d="M15.7987297,9.99923315 L15.827027,10.1741742 L15.827027,13.7201201 C15.827027,14.5417417 15.1783784,15.1903904 14.3567568,15.1903904 L1.21081081,15.1903904 L1.07427081,15.1444309 C0.541180233,14.9368161 0.16964657,14.4486024 0.12972973,13.8498498 L0.12972973,10.1741742 L0.15772973,9.99923315 L15.7987297,9.99923315 Z M3.07027027,11.9039039 C2.8972973,11.9039039 2.72432432,12.0336336 2.72432432,12.2498498 L2.72432432,14.1957958 L2.73032095,14.2603228 C2.75810811,14.4093093 2.88108108,14.5417417 3.07027027,14.5417417 C3.24324324,14.5417417 3.41621622,14.412012 3.41621622,14.1957958 L3.41621622,12.2498498 L3.41021959,12.1853228 C3.38243243,12.0363363 3.25945946,11.9039039 3.07027027,11.9039039 Z M4.41081081,11.9039039 C4.23783784,11.9039039 4.06486486,12.0336336 4.06486486,12.2498498 L4.06486486,14.1957958 L4.07086149,14.2603228 C4.09864865,14.4093093 4.22162162,14.5417417 4.41081081,14.5417417 C4.58378378,14.5417417 4.75675676,14.412012 4.75675676,14.1957958 L4.75675676,12.2498498 L4.75076014,12.1853228 C4.72297297,12.0363363 4.6,11.9039039 4.41081081,11.9039039 Z M5.75135135,11.9039039 C5.57837838,11.9039039 5.40540541,12.0336336 5.40540541,12.2498498 L5.40540541,14.1957958 L5.41140203,14.2603228 C5.43918919,14.4093093 5.56216216,14.5417417 5.75135135,14.5417417 C5.92432432,14.5417417 6.0972973,14.412012 6.0972973,14.1957958 L6.0972973,12.2498498 C6.0972973,12.0768769 5.96756757,11.9039039 5.75135135,11.9039039 Z M12.4108108,12.0336336 C11.7621622,12.0336336 11.2,12.5957958 11.2,13.2444444 C11.2,13.8930931 11.7621622,14.4552553 12.4108108,14.4552553 C13.0594595,14.4552553 13.6216216,13.8930931 13.6216216,13.2444444 C13.6216216,12.5957958 13.0594595,12.0336336 12.4108108,12.0336336 Z" id="形状结合" fill="#57689C" fill-rule="nonzero"></path>
            <path d="M14.0972973,1.04984985 C14.3135135,1.26606607 14.4432432,1.56876877 14.4864865,1.87147147 L15.799,9.99923315 L0.158,9.99923315 L1.47027027,1.95795796 C1.50630631,1.70570571 1.6024024,1.42342342 1.75855856,1.21121121 L1.85945946,1.09309309 L1.94636824,1.00187688 C2.16216216,0.803228228 2.46486486,0.703903904 2.76756757,0.703903904 L13.1891892,0.703903904 C13.5351351,0.660660661 13.8810811,0.833633634 14.0972973,1.04984985 Z M9.9027027,5.67687688 C9.81621622,5.63363363 9.72972973,5.63363363 9.64324324,5.67687688 C9.47027027,5.67687688 9.47027027,5.76336336 9.47027027,5.76336336 L9.47027027,6.8012012 L6.96216216,6.8012012 C6.96216216,6.8012012 5.01621622,6.58498498 5.01621622,6.02282282 C5.01621622,6.02282282 5.05945946,7.75255255 7.04864865,7.75255255 L9.47027027,7.75255255 L9.47077456,8.88166767 C9.47380033,8.89982227 9.49498069,8.96336336 9.64324324,8.96336336 C9.68648649,8.96336336 9.77297297,8.92012012 9.85945946,8.92012012 L12.4108108,7.53633634 C12.4108108,7.53633634 12.627027,7.44984985 12.627027,7.27687688 C12.627027,7.14714715 12.5405405,7.06066066 12.4540541,7.01741742 Z M6.74594595,2.17417417 C6.65945946,2.17417417 6.57297297,2.17417417 6.48648649,2.21741742 L3.93513514,3.6012012 C3.93513514,3.6012012 3.71891892,3.68768769 3.71891892,3.86066066 C3.76216216,3.94714715 3.80540541,4.03363363 3.89189189,4.12012012 L6.44324324,5.46066066 C6.52972973,5.5039039 6.65945946,5.5039039 6.74594595,5.5039039 C6.87567568,5.46066066 6.87567568,5.37417417 6.87567568,5.37417417 L6.87567568,4.33633634 L9.38378378,4.33633634 C9.38378378,4.33633634 11.3297297,4.50930931 11.3297297,5.07147147 C11.3297297,5.07147147 11.2864865,3.34174174 9.2972973,3.34174174 L6.87567568,3.34174174 L6.87507508,2.25725726 C6.87207207,2.24624625 6.85405405,2.21021021 6.74594595,2.17417417 Z" id="形状结合" fill="#57689C" fill-rule="nonzero" opacity="0.550000012"></path>
        </g>
    </g>
</svg>