<?xml version="1.0" encoding="UTF-8"?>
<svg width="20px" height="20px" viewBox="0 0 20 20" version="1.1" xmlns="http://www.w3.org/2000/svg" xmlns:xlink="http://www.w3.org/1999/xlink">
    <title>sybase-second-menu</title>
    <g id="sybase-second-menu" stroke="none" stroke-width="1" fill="none" fill-rule="evenodd">
        <rect id="矩形" fill-opacity="0" fill="#D8D8D8" x="0" y="0" width="20" height="20"></rect>
        <g id="Sybase" transform="translate(2.400000, 1.500000)">
            <rect id="矩形" fill-opacity="0" fill="#D8D8D8" x="0" y="0.944444444" width="15.1111111" height="15.1111111"></rect>
            <path d="M1.88888889,7.88181819 C2.58434345,12.325 6.33207072,16.3045455 11.0843435,17 L2.88888889,17 C2.33660414,17 1.88888889,16.5522847 1.88888889,16 Z M12.7070707,6.72272728 L12.7070707,16.3045455 L12.3122597,16.3042593 C7.0301439,16.2179008 2.73689047,11.5449451 2.62297981,6.72272728 L12.7070707,6.72272728 Z M12.7070707,4.59772726 L12.7070707,6.375 L11.1229798,6.375 C11.2775253,6.29772727 11.4320707,6.22045454 11.5866162,6.10454545 C11.9729798,5.91136362 12.5138889,5.33181817 12.7070707,4.59772726 Z M8.1479798,0.695454546 L8.34116163,0.734090904 L8.34116163,6.375 L2.62297981,6.375 C2.70025253,4.86818182 3.51161616,3.20681819 4.40025253,2.31818182 C5.44343435,1.275 6.4479798,0.811363637 8.1479798,0.695454546 Z M8.65025254,5.79545455 C8.76616163,6.02727273 8.99797982,6.22045456 9.229798,6.375 L8.65025254,6.375 Z M11.9729798,4.1340909 C11.9729798,4.24999999 11.9343434,4.32727272 11.9343434,4.44318182 C11.8184344,4.86818182 11.5479798,5.25454545 11.2002525,5.48636363 C10.8911616,5.67954546 10.6207071,5.75681819 10.2729798,5.79545455 L10.2729798,4.1340909 Z M9.92525254,4.55909091 L9.92525254,5.75681817 L9.88661617,5.75681817 C9.61616163,5.75681817 9.34570709,5.52500001 9.34570709,5.21590909 C9.34570709,4.86818182 9.53888891,4.75227273 9.92525254,4.55909091 Z M7.22070707,0 C5.79116162,0.193181806 4.78661616,0.772727261 3.78207072,1.77727272 C3.00934344,2.62727272 2.15934343,4.01818181 1.88888889,5.52499999 L1.88888889,1 C1.88888889,0.44771525 2.33660414,-9.5692398e-18 2.88888889,0 Z M8.65025254,0.734090904 C10.5434344,0.772727261 11.7411616,1.85454544 11.9343434,3.32272726 C11.9729798,3.47727271 11.9729798,3.63181818 11.9729798,3.78636363 L8.65025254,3.78636363 Z M11.7070707,0 C12.2593555,-1.01453063e-16 12.7070707,0.44771525 12.7070707,1 L12.7070707,2.97499999 C12.3593434,1.39090909 11.1616162,0.309090915 9.53888889,0 Z" id="形状结合" fill="#57689C" fill-rule="nonzero"></path>
        </g>
    </g>
</svg>