<?xml version="1.0" encoding="UTF-8"?>
<svg width="20px" height="20px" viewBox="0 0 20 20" version="1.1" xmlns="http://www.w3.org/2000/svg" xmlns:xlink="http://www.w3.org/1999/xlink">
    <title>system-map-second-menu</title>
    <g id="system-map-second-menu" stroke="none" stroke-width="1" fill="none" fill-rule="evenodd">
        <g id="third-party-events">
            <rect id="矩形" x="0" y="0" width="20" height="20"></rect>
        </g>
        <g id="数据地图备份" transform="translate(2.000000, 1.000000)" fill="#57689C">
            <path d="M2.14386504,8 L4.56212685,8 C5.14889391,8.91938913 5.77878276,9.81103274 6.44972294,10.672 C6.72817111,11.032 7.09842646,11.263 7.49592131,11.369 L7.49592131,12.5 L0.812156415,12.5 L1.89971846,8.19 C1.92749074,8.07865004 2.02814579,8.00031817 2.14386504,8 L2.14386504,8 Z M8.50479148,16 L15.7484793,16 C15.8259075,15.9997873 15.8989466,15.9643348 15.9465921,15.9038379 C15.9942375,15.8433411 16.011209,15.7645045 15.9926259,15.69 L15.4407739,13.5 L8.50479148,13.5 L8.50479148,16 Z" id="形状" fill-rule="nonzero" opacity="0.55"></path>
            <path d="M7.49592131,13.5 L7.49592131,16 L0.252233469,16 C0.18499015,16 0.120529944,15.9733886 0.0731715471,15.926071 C0.0258131508,15.8787535 -0.000522020675,15.81465 7.84357219e-06,15.748 L0.0080868873,15.689 L0.559938872,13.5 L7.49592131,13.5 Z M13.8568478,8 C13.9475529,8.0002335 14.0311458,8.04872641 14.0757726,8.127 L14.1009943,8.189 L15.1885564,12.5 L8.50479148,12.5 L8.50479148,11.369 C8.92184851,11.2580807 9.28987623,11.0128927 9.55098985,10.672 L9.73258648,10.436 L10.1290725,9.907 C10.4761238,9.437 10.855459,8.901 11.22067,8.339 L11.4385859,8 L13.8568478,8 Z M8.0003564,0 C10.2290908,0 12.0358371,1.790861 12.0358371,4 C12.0358371,4.896 11.3720005,6.217 10.583064,7.471 L10.2380304,8.003 L10.062487,8.263 L9.71240908,8.766 L9.37141096,9.24 L9.04756364,9.675 L8.75095581,10.063 C8.57376332,10.2971794 8.29567721,10.435 8.0003564,10.435 C7.70503559,10.435 7.42694947,10.2971794 7.24975699,10.063 L6.95314916,9.675 L6.6303107,9.24 L6.28729484,8.766 L5.93822576,8.263 C5.87924014,8.17664678 5.82072482,8.08997886 5.76268235,8.003 L5.41865763,7.471 C4.62871228,6.217 3.96487571,4.896 3.96487571,4 C3.96487571,1.790861 5.77162195,0 8.0003564,0 Z M8.0003564,3 C7.44317279,3 6.99148622,3.44771525 6.99148622,4 C6.99148622,4.55228475 7.44317279,5 8.0003564,5 C8.55754001,5 9.00922657,4.55228475 9.00922657,4 C9.00922657,3.44771525 8.55754001,3 8.0003564,3 Z" id="形状"></path>
        </g>
    </g>
</svg>