<?xml version="1.0" encoding="UTF-8"?>
<svg width="20px" height="20px" viewBox="0 0 20 20" version="1.1" xmlns="http://www.w3.org/2000/svg" xmlns:xlink="http://www.w3.org/1999/xlink">
    <title>table-space-second-menu</title>
    <g id="table-space-second-menu" stroke="none" stroke-width="1" fill="none" fill-rule="evenodd">
        <rect id="矩形" fill-opacity="0" fill="#D8D8D8" x="0" y="0" width="20" height="20"></rect>
        <g id="elasticsearch" transform="translate(2.000000, 2.000000)">
            <rect id="矩形" fill-opacity="0" fill="#D8D8D8" x="0" y="0" width="16" height="16"></rect>
            <g id="编组" transform="translate(1.000000, 0.000000)" fill="#57689C">
                <path d="M9.747,0 L13.866,4.073 L13.8666667,14.9 C13.8666667,15.5075132 13.3741799,16 12.7666667,16 L1.1,16 C0.492486775,16 2.96443518e-16,15.5075132 0,14.9 L0,1.10080967 C-7.43989126e-17,0.493296447 0.492486775,0.00080967215 1.1,0.00080967215 L9.747,0 Z M11,10.1744 C10.844288,10.36032 10.642112,10.523328 10.382272,10.653248 C9.491904,11.098432 8.295424,11.36 7,11.36 C5.7046016,11.36 4.5081088,11.098432 3.6177024,10.653248 C3.357888,10.523328 3.1556992,10.36032 3,10.1744 L3,11.246592 L3.0065408,11.292928 C3.05408,11.629696 3.3910528,12.04928 4.1430784,12.401152 C4.8689216,12.740736 5.8732928,12.96 7,12.96 C8.1267072,12.96 9.131072,12.740736 9.856896,12.401152 C10.60896,12.04928 10.94592,11.629696 10.993472,11.292928 L11,11.246592 Z M11,7.2943936 C10.844288,7.48032 10.642112,7.6433344 10.382272,7.7732416 C9.491904,8.2184448 8.295424,8.479968 7,8.4799936 C5.7046016,8.479968 4.5081088,8.2184448 3.6177024,7.7732416 C3.357888,7.6433344 3.1556992,7.48032 3,7.2943936 L3.0001984,8.6399936 C3.0001984,8.9787968 3.2873344,9.4147392 4.0470272,9.794624 C4.7779648,10.160064 5.8213248,10.4 7,10.4 C8.1786752,10.4 9.222016,10.160064 9.95296,9.794624 C10.71264,9.4147392 10.999808,8.9787968 11,8.6399936 Z M6.9998016,4 C5.8211264,4 4.7777664,4.239936 4.0468288,4.605408 C3.287136,4.9852544 3,5.4211968 3,5.76 C3,6.0988032 3.287136,6.5347456 4.0468288,6.914592 C4.7777664,7.280064 5.8211264,7.52 6.9998016,7.52 C8.1784768,7.52 9.221824,7.280064 9.952768,6.914592 C10.712448,6.5347456 10.999616,6.0988032 10.999616,5.76 C10.999616,5.4211968 10.712448,4.9852544 9.952768,4.605408 C9.221824,4.239936 8.1784768,4 6.9998016,4 Z" id="形状结合"></path>
            </g>
        </g>
    </g>
</svg>