<?xml version="1.0" encoding="UTF-8"?>
<svg width="20px" height="20px" viewBox="0 0 20 20" version="1.1" xmlns="http://www.w3.org/2000/svg" xmlns:xlink="http://www.w3.org/1999/xlink">
    <title>target-second-menu</title>
    <g id="target-second-menu" stroke="none" stroke-width="1" fill="none" fill-rule="evenodd">
        <g id="target-third-menu">
            <rect id="矩形" x="0" y="0" width="20" height="20"></rect>
            <path d="M9.51910419,2.23599531 C10.057896,2.23599531 10.5949577,2.29143393 11.1175816,2.40146187 C11.4988686,2.48358523 11.7410045,2.85401699 11.6640488,3.23870248 C11.5819254,3.61998949 11.2114937,3.86212537 10.8266342,3.78513208 C10.4103129,3.69500067 9.96933343,3.64968699 9.52359597,3.64968699 C6.0722731,3.64968699 3.26818347,6.45377663 3.26818347,9.9050995 C3.26818347,13.3564224 6.0722731,16.160512 9.52359597,16.160512 C12.9749188,16.160512 15.7790085,13.3564224 15.7790085,9.9050995 C15.7790085,9.49713836 15.7394287,9.09034628 15.6609896,8.69379118 C15.5845139,8.31141249 15.8360113,7.9396337 16.2193672,7.86296253 C16.6017458,7.7864868 16.9735246,8.03798421 17.0502553,8.42163881 C17.145561,8.90270571 17.1927001,9.39824202 17.1927001,9.90528193 C17.1881069,14.1310103 13.7434907,17.5742037 9.51910419,17.5742037 C5.28948398,17.5742037 1.85,14.1347197 1.85,9.9050995 C1.85,5.67547929 5.28948398,2.23599531 9.51910419,2.23599531 Z M9.51910419,5.60482999 C9.89526074,5.60482999 10.2737838,5.65553558 10.6402176,5.75419182 C11.017129,5.8543089 11.2413358,6.24256943 11.14114,6.61977718 C11.0410229,6.99668853 10.6527624,7.22089532 10.2766186,7.12097841 C10.0251941,7.05595483 9.77441464,7.02301346 9.52359597,7.02301346 C7.93186984,7.02301346 6.63701815,8.31786515 6.63701815,9.90959128 C6.63701815,11.5013174 7.93186984,12.7961691 9.52359597,12.7961691 C11.1153221,12.7961691 12.4101738,11.5013174 12.4101738,9.90959128 C12.4101738,9.7513856 12.39545,9.58416497 12.368045,9.40553904 C12.297162,9.02158938 12.5563335,8.65029402 12.9383214,8.58566886 C13.322271,8.51478585 13.6935664,8.77395736 13.7586119,9.15831717 C13.8016454,9.41173709 13.8238651,9.66317431 13.8238651,9.90992296 C13.8191877,12.2767005 11.8876233,14.205369 9.51910419,14.205369 C7.14908073,14.205369 5.21883468,12.275123 5.21883468,9.9050995 C5.21883468,7.53507604 7.14908073,5.60482999 9.51910419,5.60482999 Z" id="形状结合" fill="#57689C" opacity="0.55"></path>
            <path d="M14.6384066,1.85094512 L14.7574262,1.86727107 C14.9994818,1.92773654 15.1909305,2.10148831 15.2659679,2.33239939 L15.7954052,3.90986277 L17.365415,4.43210456 C17.5618836,4.49759411 17.7195812,4.6484731 17.797747,4.83872059 L17.8300136,4.93691199 C17.8888882,5.17241054 17.8151684,5.42633429 17.6421308,5.59937197 L15.5669286,7.67457413 C15.4359101,7.80559259 15.2576517,7.8793547 15.066452,7.88543514 C15.0128978,7.88543514 14.9558979,7.87943514 14.9009389,7.86718625 L13.267478,7.46899081 L10.6471426,9.80020458 C10.5445347,9.89348445 10.4182116,9.95169243 10.2826106,9.97124442 L10.1793958,9.97860442 C9.98176893,9.97860442 9.78964479,9.89425724 9.64914166,9.74197564 C9.38994638,9.44743555 9.41535732,9.00455906 9.70852636,8.74657332 L12.282478,6.45699081 L11.7974895,4.88694104 C11.7206828,4.63288799 11.787767,4.36127874 11.9742185,4.18068323 L14.0988303,2.05607149 C14.240953,1.91394878 14.4394062,1.84065063 14.6384066,1.85094512 Z M14.2782013,3.85391867 L13.2622564,4.86650684 L13.6482707,6.1028714 L14.8477122,6.39489959 L15.8334472,5.40916459 L15.0043952,5.13234521 C14.8278788,5.07350643 14.6838098,4.94905028 14.5998678,4.78673266 L14.5569394,4.68502076 L14.2782013,3.85391867 Z" id="形状结合" fill="#57689C" fill-rule="nonzero"></path>
        </g>
    </g>
</svg>