<?xml version="1.0" encoding="UTF-8"?>
<svg width="20px" height="20px" viewBox="0 0 20 20" version="1.1" xmlns="http://www.w3.org/2000/svg" xmlns:xlink="http://www.w3.org/1999/xlink">
    <title>task list 2</title>
    <g id="task-list" stroke="none" stroke-width="1" fill="none" fill-rule="evenodd">
        <rect id="矩形" fill="#000000" opacity="0" x="0" y="0" width="20" height="20"></rect>
        <g id="编组" transform="translate(3.000000, 2.000000)" fill="#FFFFFF">
            <path d="M7.13,0 L12.799,5.668 L12.7999618,13.9340445 C12.7999618,14.4863293 12.3522466,14.9340445 11.7999618,14.9340445 L1,14.9340445 C0.44771525,14.9340445 -4.33869274e-17,14.4863293 0,13.9340445 L0,1.00075573 C-1.78657678e-16,0.44847098 0.44771525,0.000755729996 1,0.000755729996 L7.13,0 Z M10.7333031,7.40073186 L1.45713672,7.40073186 L1.45713672,8.60073186 L10.7333031,8.60073186 L10.7333031,7.40073186 Z M8.14283464,3.13407793 L1.45713672,3.13407793 L1.45713672,4.33407793 L8.14283464,4.33407793 L8.14283464,3.13407793 Z" id="形状结合" opacity="0.55"></path>
            <path d="M11.7999618,0.000755729996 C12.3522466,0.000755729996 12.7999618,0.44847098 12.7999618,1.00075573 L12.7997121,5.669 L7.13071206,0 L11.7999618,0.000755729996 Z" id="形状结合" transform="translate(9.965837, 2.834125) rotate(-180.000000) translate(-9.965837, -2.834125) "></path>
            <path d="M10.6666348,7.46740012 C13.0230427,7.46740012 14.9332888,9.37764616 14.9332888,11.7340541 C14.9332888,14.090462 13.0230427,16.000708 10.6666348,16.000708 C8.31022694,16.000708 6.39998091,14.090462 6.39998091,11.7340541 C6.39998091,9.37764616 8.31022694,7.46740012 10.6666348,7.46740012 Z M11.1466348,9.12072709 L10.1866348,9.12072709 L10.1866348,11.120859 C10.1866348,11.2119856 10.2125748,11.3012294 10.2614222,11.3781578 L11.3280856,13.0580163 L11.5853844,13.463229 L12.3958098,12.9486314 L12.138511,12.5434187 L11.1466348,10.9807271 L11.1466348,9.12072709 Z" id="形状结合"></path>
        </g>
    </g>
</svg>