<?xml version="1.0" encoding="UTF-8"?>
<svg width="20px" height="20px" viewBox="0 0 20 20" version="1.1" xmlns="http://www.w3.org/2000/svg" xmlns:xlink="http://www.w3.org/1999/xlink">
    <title>task-list-second-menu</title>
    <g id="task-list-second-menu" stroke="none" stroke-width="1" fill="none" fill-rule="evenodd">
        <rect id="矩形" fill-opacity="0" fill="#D8D8D8" x="0" y="0" width="20" height="20"></rect>
        <g id="elasticsearch" transform="translate(1.921179, 2.000000)">
            <rect id="矩形" fill-opacity="0" fill="#D8D8D8" x="0.0788212294" y="0" width="16" height="16"></rect>
            <path d="M1.07882123,15 L4.07882123,15 L4.07882123,12 L1.07882123,12 L1.07882123,15 Z M1.07882123,10 L4.07882123,10 L4.07882123,7 L1.07882123,7 L1.07882123,10 Z M6.07882123,9.3 L15.0788212,9.3 L15.0788212,7.7 L6.07882123,7.7 L6.07882123,9.3 Z M6.07882123,14.3 L15.0788212,14.3 L15.0788212,12.7 L6.07882123,12.7 L6.07882123,14.3 Z" id="形状结合" fill="#57689C" fill-rule="nonzero" opacity="0.550000012"></path>
            <path d="M6.07882123,4.3 L15.0788212,4.3 L15.0788212,2.7 L6.07882123,2.7 L6.07882123,4.3 Z M3.78386012,0.791431844 L4.99752254,1.67292124 L2.87375135,4.59699643 L2.45747495,5.17013891 L1.86151571,4.78724083 L0,3.59123489 L0.810808863,2.32925668 L2.07540443,3.14217654 L3.78386012,0.791431844 Z" id="形状结合" fill="#57689C" fill-rule="nonzero"></path>
        </g>
    </g>
</svg>