<?xml version="1.0" encoding="UTF-8"?>
<svg width="20px" height="20px" viewBox="0 0 20 20" version="1.1" xmlns="http://www.w3.org/2000/svg" xmlns:xlink="http://www.w3.org/1999/xlink">
    <title>task-list-second-menu</title>
    <g id="task-list-second-menu" stroke="none" stroke-width="1" fill="none" fill-rule="evenodd">
        <rect id="矩形" fill="#000000" opacity="0" x="0" y="0" width="20" height="20"></rect>
        <g id="编组" transform="translate(3.000000, 1.999250)" fill="#57689C">
            <path d="M7.13196182,9.76996262e-15 L12.8009618,5.669 L12.799,5.669 L12.7995655,8.03872346 C12.1902032,7.68631376 11.4855945,7.48027208 10.7338095,7.46866845 L10.7333031,7.40148211 L1.45713672,7.40148211 L1.45713672,8.60148211 L7.77055793,8.60155534 C6.92770273,9.38098999 6.39998091,10.4962691 6.39998091,11.7348043 C6.39998091,13.0093722 6.95885547,14.153408 7.84491656,14.9352236 L1,14.9347948 C0.44771525,14.9347948 -4.33869274e-17,14.4870795 0,13.9347948 L0,1.00150597 C-1.78657678e-16,0.449221223 0.44771525,0.00150597248 1,0.00150597248 L7.13,0.00075024248 L7.131,0.001 Z M7.131,3.134 L1.45713672,3.13482817 L1.45713672,4.33482817 L7.131,4.334 L7.131,3.134 Z" id="形状结合" opacity="0.55"></path>
            <path d="M10.6666348,7.46815037 C13.0230427,7.46815037 14.9332888,9.3783964 14.9332888,11.7348043 C14.9332888,14.0912122 13.0230427,16.0014582 10.6666348,16.0014582 C8.31022694,16.0014582 6.39998091,14.0912122 6.39998091,11.7348043 C6.39998091,9.3783964 8.31022694,7.46815037 10.6666348,7.46815037 Z M11.1466348,9.12147733 L10.1866348,9.12147733 L10.1866348,11.1216093 C10.1866348,11.2127358 10.2125748,11.3019797 10.2614222,11.3789081 L11.5853844,13.4639793 L12.3958098,12.9493817 L11.1466348,10.9814773 L11.1466348,9.12147733 Z" id="形状结合"></path>
        </g>
    </g>
</svg>