<?xml version="1.0" encoding="UTF-8"?>
<svg width="20px" height="20px" viewBox="0 0 20 20" version="1.1" xmlns="http://www.w3.org/2000/svg" xmlns:xlink="http://www.w3.org/1999/xlink">
    <title>task-history-second-menu</title>
    <g id="task-history-second-menu" stroke="none" stroke-width="1" fill="none" fill-rule="evenodd">
        <rect id="矩形" fill="#000000" opacity="0" x="0" y="0" width="20" height="20"></rect>
        <path d="M10.725,2 L16.866,8.073 L16.8670454,11.2107224 C16.1403486,10.4638927 15.1243483,10 14,10 C13.8619932,10 13.7256187,10.006989 13.5912113,10.0206325 L11.6813155,8.15152123 L10.8419901,9.00915335 L12.2610419,10.3967567 C10.9229572,11.0437164 10,12.4140741 10,14 C10,16.209139 11.790861,18 14,18 L4.10000002,18 C3.49248679,18 3,17.5075132 3,16.9 L3,3.1008097 C3,2.49329646 3.49248679,2.00080967 4.10000002,2.00080967 L10.725,2 Z M16.4382974,17.1711662 C16.0549148,17.6747969 15.4487684,18 14.7666668,18 L14,18 C14.9177607,18 15.7633312,17.6909173 16.4382974,17.1711662 Z M7.81868452,8.15152123 L5.13690327,10.7760582 L7.82881414,13.348309 L8.65784017,12.480717 L6.862,10.765 L8.65800994,9.00915335 L7.81868452,8.15152123 Z" id="形状" fill="#57689C" opacity="0.55"></path>
        <g id="编组-2备份-2" transform="translate(5.136903, 8.151521)"></g>
        <path d="M11.8260444,8.07202586 C11.2185312,8.07202586 10.7260444,7.57953908 10.7260444,6.97202586 L10.7266667,1.99983553 L16.8676667,8.07283553 L11.8260444,8.07202586 Z" id="路径" fill="#57689C"></path>
        <path d="M14,10 C16.209139,10 18,11.790861 18,14 C18,16.209139 16.209139,18 14,18 C11.790861,18 10,16.209139 10,14 C10,11.790861 11.790861,10 14,10 Z M14.48,11.52 L13.52,11.52 L13.52,13.4251279 C13.52,13.5162545 13.5459399,13.6054983 13.5947873,13.6824268 L14.8520861,15.6625115 L15.6625115,15.1479139 L14.48,13.285 L14.48,11.52 Z" id="形状" fill="#57689C"></path>
    </g>
</svg>