<?xml version="1.0" encoding="UTF-8"?>
<svg width="20px" height="20px" viewBox="0 0 20 20" version="1.1" xmlns="http://www.w3.org/2000/svg" xmlns:xlink="http://www.w3.org/1999/xlink">
    <title>task list 3</title>
    <g id="task-list" stroke="none" stroke-width="1" fill="none" fill-rule="evenodd">
        <rect id="矩形" fill="#000000" opacity="0" x="0" y="0" width="20" height="20"></rect>
        <g id="编组" transform="translate(3.000000, 2.000000)">
            <path d="M7.13,0 L12.799,5.668 L12.7995655,8.03797322 C12.1902032,7.68556352 11.4855945,7.47952184 10.7338095,7.46791821 L10.7333031,7.40073186 L1.45713672,7.40073186 L1.45713672,8.60073186 L7.77055793,8.6008051 C6.92770273,9.38023975 6.39998091,10.4955189 6.39998091,11.7340541 C6.39998091,13.008622 6.95885547,14.1526578 7.84491656,14.9344734 L1,14.9340445 C0.44771525,14.9340445 -4.33869274e-17,14.4863293 0,13.9340445 L0,1.00075573 C-1.78657678e-16,0.44847098 0.44771525,0.000755729996 1,0.000755729996 L7.13,0 Z M8.14283464,3.13407793 L1.45713672,3.13407793 L1.45713672,4.33407793 L8.14283464,4.33407793 L8.14283464,3.13407793 Z" id="形状结合" fill="#9FAECF"></path>
            <path d="M11.7999618,0.000755729996 C12.3522466,0.000755729996 12.7999618,0.44847098 12.7999618,1.00075573 L12.7997121,5.669 L7.13071206,0 L11.7999618,0.000755729996 Z" id="形状结合" fill="#9FAECF" transform="translate(9.965837, 2.834125) rotate(-180.000000) translate(-9.965837, -2.834125) "></path>
            <circle id="椭圆形" fill="#57689C" cx="10.6666348" cy="11.7340541" r="4.26665394"></circle>
            <polyline id="路径-3备份-8" stroke="#FFFFFF" stroke-width="0.96" stroke-linecap="square" stroke-linejoin="round" points="10.6666348 9.60072709 10.6666348 11.120859 11.7332983 12.8007175"></polyline>
        </g>
    </g>
</svg>