<?xml version="1.0" encoding="UTF-8"?>
<svg width="20px" height="20px" viewBox="0 0 20 20" version="1.1" xmlns="http://www.w3.org/2000/svg" xmlns:xlink="http://www.w3.org/1999/xlink">
    <title>task management 3</title>
    <g id="task-management" stroke="none" stroke-width="1" fill="none" fill-rule="evenodd">
        <rect id="矩形" fill="#000000" opacity="0" x="0" y="0" width="20" height="20"></rect>
        <g id="编组" transform="translate(2.000000, 2.000000)">
            <path d="M16,4.57142857 L16,14.8571429 C16,15.4883254 15.4883254,16 14.8571429,16 L1.14285714,16 C0.511674572,16 0,15.4883254 0,14.8571429 L0,4.57142857 L16,4.57142857 Z M4.20715231,7.02424942 L3.24192808,8.01052635 L3.73506655,8.49313847 L5.29371429,10.018 L3.74098869,11.5011346 L3.24212331,11.9778246 L4.19550325,12.9755554 L4.69436863,12.4988654 L6.76240425,10.5227575 L7.27827553,10.0298176 L6.7683264,9.53075362 L4.70029078,7.50686153 L4.20715231,7.02424942 Z M12.69,11.31 L7.88142857,11.31 L7.88142857,12.69 L12.69,12.69 L12.69,11.31 Z" id="形状结合" fill="#9FAECF"></path>
            <path d="M14.8571429,0 C15.4883254,0 16,0.511674572 16,1.14285714 L16,3.42857143 L0,3.42857143 L0,1.14285714 C0,0.511674572 0.511674572,0 1.14285714,0 L14.8571429,0 Z" id="路径" fill="#57689C"></path>
            <g id="编组-2备份-2" transform="translate(3.241928, 7.024249)"></g>
            <circle id="椭圆形" fill="#FFFFFF" cx="2.85714286" cy="1.71428571" r="1"></circle>
            <circle id="椭圆形备份" fill="#FFFFFF" cx="5.14285714" cy="1.71428571" r="1"></circle>
            <circle id="椭圆形备份-2" fill="#FFFFFF" cx="7.42857143" cy="1.71428571" r="1"></circle>
        </g>
    </g>
</svg>