<?xml version="1.0" encoding="UTF-8"?>
<svg width="20px" height="20px" viewBox="0 0 20 20" version="1.1" xmlns="http://www.w3.org/2000/svg" xmlns:xlink="http://www.w3.org/1999/xlink">
    <title>tdsql-for-mysql-second-menu</title>
    <g id="tdsql-for-mysql-second-menu" stroke="none" stroke-width="1" fill="none" fill-rule="evenodd">
        <rect id="矩形" fill-opacity="0" fill="#D8D8D8" x="0" y="0" width="20" height="20"></rect>
        <g id="图标" transform="translate(2.205771, 1.154701)" fill="#57689C" fill-rule="nonzero">
            <path d="M8.29422863,0.133974596 L15.0884573,4.05662433 C15.3978583,4.23525712 15.5884573,4.56538414 15.5884573,4.92264973 L15.5884573,12.7679492 C15.5884573,13.1252148 15.3978583,13.4553418 15.0884573,13.6339746 L8.29422863,17.5566243 C7.98482756,17.7352571 7.60362971,17.7352571 7.29422863,17.5566243 L0.5,13.6339746 C0.190598923,13.4553418 0,13.1252148 0,12.7679492 L0,4.92264973 C0,4.56538414 0.190598923,4.23525712 0.5,4.05662433 L7.29422863,0.133974596 C7.60362971,-0.0446581987 7.98482756,-0.0446581987 8.29422863,0.133974596 Z M7.79422863,1.69229946 L2.27,4.88 L4.46099482,6.11322969 L3.67640423,7.50765344 L1.599,6.339 L1.599,11.474 L3.65473299,10.3178577 L4.43932358,11.7122815 L2.379,12.871 L7.79422863,15.9972995 L13.209,12.871 L11.1253475,11.6988979 L11.9099381,10.3044741 L13.988,11.474 L13.988,6.339 L11.9273633,7.49903894 L11.1427727,6.10461518 L13.316,4.88 L7.79422863,1.69229946 Z" id="形状结合"></path>
            <g id="mysql" transform="translate(4.794229, 5.845299)" opacity="0.550000012" stroke="#57689C" stroke-width="0.4">
                <path d="M5.97422407,4.70687517 C5.92536721,4.61797102 5.81209907,4.4660332 5.39392424,4.17303959 C5.14446931,3.99685878 4.88392416,3.83793242 4.61400925,3.69730996 C4.42336779,3.16614356 4.05424924,2.47749566 3.5156273,1.64820262 C2.9357263,0.755259952 2.26229932,0.379111189 1.50970428,0.528174509 C1.42759575,0.444359066 1.34252065,0.363681663 1.25465154,0.286305927 C1.06480775,0.118558362 0.59977022,-0.0239346735 0.332553116,0.00337306963 C0.211507757,0.0158976736 0.120574175,0.0614790193 0.0623447763,0.138679857 C-0.0726596858,0.317720098 -0.0275917265,0.575398426 0.595183658,1.41495754 C0.713636613,1.77180609 0.738962413,1.9582379 0.738962413,2.05206977 C0.738962413,2.25041022 0.838470872,2.4779063 1.05044981,2.76268705 L0.851034064,3.46529681 C0.673155216,4.09275893 0.996408145,4.90439434 1.29732651,5.1873272 C1.45785619,5.33844373 1.59306007,5.31585838 1.65986434,5.28896128 C1.79387173,5.23475643 1.90195506,5.09986029 1.97175057,4.71467739 C2.01010251,4.8119865 2.04792562,4.90951568 2.08521813,5.00726035 C2.30058714,5.57025156 2.51117017,5.88172409 2.74787667,5.98725928 C2.84725997,6.02499774 2.95796703,5.9762375 3.00009621,5.87617073 C3.04222538,5.77610397 3.00110453,5.65958049 2.90641219,5.61069987 C2.84778396,5.58441874 2.6862572,5.45855673 2.45593201,4.85675978 C2.26170107,4.34900001 2.12031531,4.00939846 2.02359867,3.81824425 C1.98158892,3.73610875 1.89156231,3.69286894 1.80344368,3.71250374 C1.71525197,3.73277724 1.65128719,3.81152179 1.64750057,3.90447923 C1.62337126,4.48861855 1.56613894,4.74116384 1.52785112,4.84772564 C1.36273488,4.65225969 1.10329499,4.03937538 1.23351347,3.58027678 C1.36293429,3.12323139 1.43911111,2.85569764 1.4618445,2.77664891 C1.48055901,2.71163248 1.46682126,2.64129393 1.42515201,2.58877985 C1.1655127,2.26047097 1.13739508,2.10381076 1.13739508,2.05165913 C1.13739508,1.86255814 1.07976393,1.5999521 0.961111557,1.24864722 C0.954291527,1.22808207 0.944255102,1.20880184 0.931398611,1.19156788 C0.595981321,0.741708741 0.472742388,0.516471191 0.427674429,0.409498753 C0.587406444,0.417300966 0.890917214,0.5059998 0.994812819,0.597983777 C1.10149245,0.691599091 1.20346016,0.790761521 1.30031775,0.89508381 C1.35018899,0.949302303 1.42477919,0.971256163 1.49494752,0.952368474 C2.11931823,0.786058159 2.6722981,1.0880859 3.18419833,1.87631467 C3.73139514,2.7189536 4.09493005,3.40370039 4.26483227,3.91166548 C4.28215305,3.96354882 4.31892035,4.00613699 4.36693314,4.02993059 C4.6457375,4.17019748 4.91402655,4.33161441 5.16958153,4.51284647 C5.21163477,4.54226633 5.25331616,4.57224576 5.2946152,4.60277724 L4.67861995,4.60277724 C4.6009759,4.60300067 4.53050255,4.64956035 4.49795149,4.72213959 C4.46540043,4.79471883 4.47667855,4.880147 4.52686457,4.94114686 C4.7246422,5.18235414 4.92797096,5.4186776 5.13667793,5.64991626 C5.18493145,5.70579041 5.25886987,5.73024049 5.329698,5.71374447 C5.40052614,5.69724845 5.45704606,5.64241434 5.4772462,5.57059719 C5.49744634,5.49878004 5.47813304,5.42133414 5.42682784,5.36842065 C5.32088986,5.25188157 5.21684684,5.13353156 5.11474219,5.01341999 L5.80073237,5.01341999 C5.87163738,5.01329288 5.9371553,4.97444817 5.97285427,4.91137119 C6.00855323,4.84829421 6.00907465,4.77045313 5.97422407,4.70687517 L5.97422407,4.70687517 Z M1.7264692,1.47101027 C1.80543784,1.61062881 1.86645906,1.71062032 1.90933344,1.77119013 C1.96098212,1.87549338 2.04134667,1.95885386 2.09279593,2.06336244 L2.10535913,2.05063252 C2.19589388,1.98677757 2.26688588,1.73300035 2.12250888,1.56627939 C2.04752856,1.44965685 1.80444076,1.45294199 1.7264692,1.47101027 Z" id="形状"></path>
            </g>
        </g>
    </g>
</svg>