<?xml version="1.0" encoding="UTF-8"?>
<svg width="20px" height="20px" viewBox="0 0 20 20" version="1.1" xmlns="http://www.w3.org/2000/svg" xmlns:xlink="http://www.w3.org/1999/xlink">
    <title>team-calendar-second-menu</title>
    <g id="team-calendar-second-menu" stroke="none" stroke-width="1" fill="none" fill-rule="evenodd">
        <rect id="矩形" x="2" y="2" width="16" height="16"></rect>
        <g id="编组" transform="translate(2.000000, 2.000000)" fill="#57689C">
            <path d="M3,2 L3,3.5 C3,4.27969612 3.59488808,4.92044868 4.35553999,4.99313342 L4.5,5 C5.32842712,5 6,4.32842712 6,3.5 L6,2 L10,2 L10,3.5 C10,4.27969612 10.5948881,4.92044868 11.35554,4.99313342 L11.5,5 C12.3284271,5 13,4.32842712 13,3.5 L13,2 L15,2 C15.5522847,2 16,2.44771525 16,3 L16,6 L9.09494702e-13,6 L9.09494702e-13,3 C9.09427066e-13,2.44771525 0.44771525,2 1,2 L3,2 Z" id="形状结合"></path>
            <path d="M16,6 L16,15 C16,15.5522847 15.5522847,16 15,16 L1,16 C0.44771525,16 -4.12114787e-13,15.5522847 -4.12114787e-13,15 L-4.12114787e-13,6 L16,6 Z M3.4,12.4 L2.6,12.4 C2.26862915,12.4 2,12.6686292 2,13 C2,13.3313708 2.26862915,13.6 2.6,13.6 L3.4,13.6 C3.73137085,13.6 4,13.3313708 4,13 C4,12.6686292 3.73137085,12.4 3.4,12.4 Z M6.4,12.4 L5.6,12.4 C5.26862915,12.4 5,12.6686292 5,13 C5,13.3313708 5.26862915,13.6 5.6,13.6 L6.4,13.6 C6.73137085,13.6 7,13.3313708 7,13 C7,12.6686292 6.73137085,12.4 6.4,12.4 Z M3.4,10.4 L2.6,10.4 C2.26862915,10.4 2,10.6686292 2,11 C2,11.3313708 2.26862915,11.6 2.6,11.6 L3.4,11.6 C3.73137085,11.6 4,11.3313708 4,11 C4,10.6686292 3.73137085,10.4 3.4,10.4 Z M6.4,10.4 L5.6,10.4 C5.26862915,10.4 5,10.6686292 5,11 C5,11.3313708 5.26862915,11.6 5.6,11.6 L6.4,11.6 C6.73137085,11.6 7,11.3313708 7,11 C7,10.6686292 6.73137085,10.4 6.4,10.4 Z M9.4,10.4 L8.6,10.4 C8.26862915,10.4 8,10.6686292 8,11 C8,11.3313708 8.26862915,11.6 8.6,11.6 L9.4,11.6 C9.73137085,11.6 10,11.3313708 10,11 C10,10.6686292 9.73137085,10.4 9.4,10.4 Z M12.4,10.4 L11.6,10.4 C11.2686292,10.4 11,10.6686292 11,11 C11,11.3313708 11.2686292,11.6 11.6,11.6 L12.4,11.6 C12.7313708,11.6 13,11.3313708 13,11 C13,10.6686292 12.7313708,10.4 12.4,10.4 Z M3.4,8 L2.6,8 C2.26862915,8 2,8.26862915 2,8.6 C2,8.93137085 2.26862915,9.2 2.6,9.2 L3.4,9.2 C3.73137085,9.2 4,8.93137085 4,8.6 C4,8.26862915 3.73137085,8 3.4,8 Z M6.4,8 L5.6,8 C5.26862915,8 5,8.26862915 5,8.6 C5,8.93137085 5.26862915,9.2 5.6,9.2 L6.4,9.2 C6.73137085,9.2 7,8.93137085 7,8.6 C7,8.26862915 6.73137085,8 6.4,8 Z M9.4,8 L8.6,8 C8.26862915,8 8,8.26862915 8,8.6 C8,8.93137085 8.26862915,9.2 8.6,9.2 L9.4,9.2 C9.73137085,9.2 10,8.93137085 10,8.6 C10,8.26862915 9.73137085,8 9.4,8 Z M12.4,8 L11.6,8 C11.2686292,8 11,8.26862915 11,8.6 C11,8.93137085 11.2686292,9.2 11.6,9.2 L12.4,9.2 C12.7313708,9.2 13,8.93137085 13,8.6 C13,8.26862915 12.7313708,8 12.4,8 Z" id="形状结合" fill-rule="nonzero" opacity="0.55"></path>
            <path d="M4.5,0 C4.83137085,-6.08718376e-17 5.1,0.26862915 5.1,0.6 L5.1,3.4 C5.1,3.73137085 4.83137085,4 4.5,4 C4.16862915,4 3.9,3.73137085 3.9,3.4 L3.9,0.6 C3.9,0.26862915 4.16862915,6.08718376e-17 4.5,0 Z" id="矩形"></path>
            <path d="M11.5,0 C11.8313708,-6.08718376e-17 12.1,0.26862915 12.1,0.6 L12.1,3.4 C12.1,3.73137085 11.8313708,4 11.5,4 C11.1686292,4 10.9,3.73137085 10.9,3.4 L10.9,0.6 C10.9,0.26862915 11.1686292,6.08718376e-17 11.5,0 Z" id="矩形备份-3"></path>
        </g>
    </g>
</svg>