<?xml version="1.0" encoding="UTF-8"?>
<svg width="20px" height="20px" viewBox="0 0 20 20" version="1.1" xmlns="http://www.w3.org/2000/svg" xmlns:xlink="http://www.w3.org/1999/xlink">
    <title>template management 2</title>
    <g id="template-management" stroke="none" stroke-width="1" fill="none" fill-rule="evenodd">
        <rect id="矩形" fill="#000000" opacity="0" x="0" y="0" width="20" height="20"></rect>
        <path d="M16,2 C16.5522847,2 17,2.44771525 17,3 L17,16 C17,16.5522847 16.5522847,17 16,17 L16,4 C16,3 16,3 14,3 L5,3 C5,2.44771525 5.44771525,2 6,2 L16,2 Z" id="路径" fill="#FFFFFF"></path>
        <path d="M14,4 C14.5522847,4 15,4.44771525 15,5 L15,17 C15,17.5522847 14.5522847,18 14,18 L4,18 C3.44771525,18 3,17.5522847 3,17 L3,5 C3,4.44771525 3.44771525,4 4,4 L14,4 Z M6.46031746,6 C5.6538064,6 5,6.67157288 5,7.5 C5,8.32842712 5.6538064,9 6.46031746,9 C7.07212726,9 7.59606224,8.61353929 7.81337431,8.06531016 L12.0238095,8.06521739 L12.0238095,10.1952174 L5.26190476,10.1956522 L5.26190476,14.326087 L10.4409537,14.3270865 C10.6584839,14.8748349 11.1821784,15.2608696 11.7936508,15.2608696 C12.6001619,15.2608696 13.2539683,14.5892967 13.2539683,13.7608696 C13.2539683,12.9324424 12.6001619,12.2608696 11.7936508,12.2608696 C11.1341732,12.2608696 10.576797,12.7098967 10.3954872,13.3265413 L6.2622381,13.3256522 L6.2622381,11.1956522 L13.0238095,11.1956522 L13.0238095,7.06521739 L7.85848105,7.06567176 C7.67717127,6.44902715 7.11979507,6 6.46031746,6 Z" id="形状结合" fill="#FFFFFF" opacity="0.55"></path>
    </g>
</svg>