<?xml version="1.0" encoding="UTF-8"?>
<svg width="20px" height="20px" viewBox="0 0 20 20" version="1.1" xmlns="http://www.w3.org/2000/svg" xmlns:xlink="http://www.w3.org/1999/xlink">
    <title>tencent-cloud-hard-disk-second-menu</title>
    <g id="tencent-cloud-hard-disk-second-menu" stroke="none" stroke-width="1" fill="none" fill-rule="evenodd">
        <rect id="矩形" fill-opacity="0" fill="#D8D8D8" x="0" y="0" width="20" height="20"></rect>
        <g id="服务名" transform="translate(2.000000, 2.000000)">
            <rect id="矩形" fill-opacity="0" fill="#D8D8D8" x="0" y="0" width="16" height="16"></rect>
            <g id="编组-28" transform="translate(1.000000, 0.500000)">
                <path d="M13,0 C13.5522847,0 14,0.44771525 14,1 L14,14 C14,14.5522847 13.5522847,15 13,15 L1,15 C0.44771525,15 0,14.5522847 0,14 L0,1 C0,0.44771525 0.44771525,0 1,0 L13,0 Z M12,2 L2,2 L2,13 L12,13 L12,2 Z" id="矩形备份-47" fill="#57689C" fill-rule="nonzero"></path>
                <path d="M12,9 L12,10 L8.5,10 L8.5,13 L7.5,13 L7.5,10 L2,10 L2,9 L12,9 Z" id="形状结合" stroke="#57689C" fill="#D8D8D8" opacity="0.550000012"></path>
            </g>
        </g>
    </g>
</svg>