<?xml version="1.0" encoding="UTF-8"?>
<svg width="20px" height="20px" viewBox="0 0 20 20" version="1.1" xmlns="http://www.w3.org/2000/svg" xmlns:xlink="http://www.w3.org/1999/xlink">
    <title>tencent-cvm-second-menu</title>
    <g id="tencent-cvm-second-menu" stroke="none" stroke-width="1" fill="none" fill-rule="evenodd">
        <rect id="矩形" fill="#FFFFFF" opacity="0" x="0" y="0" width="20" height="20"></rect>
        <g id="资源实例" transform="translate(2.000000, 1.154701)">
            <rect id="矩形" fill="#FFFFFF" opacity="0" x="0" y="0.845299462" width="16" height="16"></rect>
            <path d="M9,0.267949192 L14.9282032,3.69059892 C15.5470054,4.04786451 15.9282032,4.70811855 15.9282032,5.42264973 L15.9282032,12.2679492 C15.9282032,12.9824804 15.5470054,13.6427344 14.9282032,14 L9.55314375,17.1054596 C9.18644286,17.5568633 8.62690537,17.8452995 8,17.8452995 C6.8954305,17.8452995 6,16.949869 6,15.8452995 C6,14.74073 6.8954305,13.8452995 8,13.8452995 C8.69242973,13.8452995 9.30267299,14.1971816 9.66166365,14.7318797 L13.9282032,12.2679492 L13.9277968,6.712 L8.52752202,10.0658305 L7.99618631,10.3957629 L7.46699529,10.0624014 L2.07179677,6.664 L2.07179677,12.2679492 L5.41198682,14.1963631 C5.14907609,14.6876957 5,15.2490883 5,15.8452995 C5,15.9941505 5.00929205,16.1408313 5.02732775,16.2847935 L1.07179677,14 C0.452994616,13.6427344 0.0717967697,12.9824804 0.0717967697,12.2679492 L0.0717967697,5.42264973 C0.0717967697,4.70811855 0.452994616,4.04786451 1.07179677,3.69059892 L7,0.267949192 C7.61880215,-0.0893163975 8.38119785,-0.0893163975 9,0.267949192 Z M8,2 L3.00179677,4.885 L8.00315757,8.03691102 L13.0397968,4.909 L8,2 Z" id="形状结合" fill="#57689C" fill-rule="nonzero"></path>
        </g>
    </g>
</svg>