<?xml version="1.0" encoding="UTF-8"?>
<svg width="20px" height="20px" viewBox="0 0 20 20" version="1.1" xmlns="http://www.w3.org/2000/svg" xmlns:xlink="http://www.w3.org/1999/xlink">
    <title>tencent-cvm-second-menu</title>
    <g id="tencent-cvm-second-menu" stroke="none" stroke-width="1" fill="none" fill-rule="evenodd">
        <rect id="矩形" fill="#FFFFFF" opacity="0" x="0" y="0" width="20" height="20"></rect>
        <g id="资源实例" transform="translate(2.000000, 1.550000)">
            <rect id="矩形" fill="#FFFFFF" opacity="0" x="0" y="0.45" width="16" height="16"></rect>
            <path d="M8.93948068,0.252381526 L14.5232593,3.47617763 C15.1061095,3.81268633 15.46516,4.43458006 15.46516,5.10759746 L15.46516,11.5551897 C15.46516,12.2282071 15.1061095,12.8501008 14.5232593,13.1866095 L10.2995552,15.6272751 C9.99511461,16.3432496 9.28528893,16.8452995 8.45820323,16.8452995 C7.35363373,16.8452995 6.45820323,15.949869 6.45820323,14.8452995 C6.45820323,13.74073 7.35363373,12.8452995 8.45820323,12.8452995 C9.09463237,12.8452995 9.66163122,13.1425659 10.0279255,13.6058245 L13.5813587,11.5551897 L13.581,6.979 L8.78362014,10.0579495 L8.23970927,10.4069214 L7.69809833,10.0543905 L2.413,6.615 L2.41380136,11.5551897 L6.06818168,13.6649849 C5.63638208,14.123486 5.3344859,14.7056986 5.22130432,15.3528117 L1.47190068,13.1866095 C0.88905051,12.8501008 0.53,12.2282071 0.53,11.5551897 L0.53,5.10759746 C0.53,4.43458006 0.88905051,3.81268633 1.47190068,3.47617763 L7.05567933,0.252381526 C7.63852949,-0.0841271754 8.35663052,-0.0841271754 8.93948068,0.252381526 Z M7.99758001,1.88380136 L3.129,4.694 L8.2463608,8.02491102 L13.167,4.868 L7.99758001,1.88380136 Z" id="形状结合" fill="#57689C" fill-rule="nonzero"></path>
        </g>
    </g>
</svg>