<?xml version="1.0" encoding="UTF-8"?>
<svg width="20px" height="20px" viewBox="0 0 20 20" version="1.1" xmlns="http://www.w3.org/2000/svg" xmlns:xlink="http://www.w3.org/1999/xlink">
    <title>tencent-cloud-nat-gateway-second-menu</title>
    <g id="tencent-cloud-nat-gateway-second-menu" stroke="none" stroke-width="1" fill="none" fill-rule="evenodd">
        <rect id="矩形" fill-opacity="0" fill="#D8D8D8" x="0" y="0" width="20" height="20"></rect>
        <g id="服务名" transform="translate(2.000000, 2.000000)">
            <rect id="矩形" fill-opacity="0" fill="#D8D8D8" x="0" y="0" width="16" height="16"></rect>
            <g id="图形" fill="#57689C" fill-rule="nonzero">
                <path d="M0,4 C-6.76353751e-17,3.44771525 0.44771525,3 1,3 L15,3 C15.5522847,3 16,3.44771525 16,4 L16,15 C16,15.5128358 15.6139598,15.9355072 15.1166211,15.9932723 L15,16 L1,16 C0.44771525,16 6.76353751e-17,15.5522847 0,15 L0,4 Z M14,5 L2,5 L2,10 L14,10 L14,5 Z M2,14 L14,14 L14,12 L2,12 L2,14 Z" id="形状结合" opacity="0.550000012"></path>
                <path d="M4,0 C4.55228475,-1.01453063e-16 5,0.44771525 5,1 L5,3 L5,3 L3,3 L3,1 C3,0.44771525 3.44771525,1.01453063e-16 4,0 Z M12,0 C12.5522847,-1.01453063e-16 13,0.44771525 13,1 L13,3 L13,3 L11,3 L11,1 C11,0.44771525 11.4477153,1.01453063e-16 12,0 Z" id="形状结合"></path>
            </g>
        </g>
    </g>
</svg>