<?xml version="1.0" encoding="UTF-8"?>
<svg width="20px" height="20px" viewBox="0 0 20 20" version="1.1" xmlns="http://www.w3.org/2000/svg" xmlns:xlink="http://www.w3.org/1999/xlink">
    <title>tencent-cloud-private-network-second-menu</title>
    <g id="tencent-cloud-private-network-second-menu" stroke="none" stroke-width="1" fill="none" fill-rule="evenodd">
        <rect id="矩形" fill-opacity="0" fill="#D8D8D8" x="0" y="0" width="20" height="20"></rect>
        <g id="服务名" transform="translate(2.000000, 2.000000)">
            <rect id="矩形" fill-opacity="0" fill="#D8D8D8" x="0" y="0" width="16" height="16"></rect>
            <path d="M8,0 C11.3137085,-6.08718376e-16 14,2.6862915 14,6 L15,6 C15.5522847,6 16,6.44771525 16,7 L16,15 C16,15.5522847 15.5522847,16 15,16 L1,16 C0.44771525,16 6.76353751e-17,15.5522847 0,15 L0,7 C-6.76353751e-17,6.44771525 0.44771525,6 1,6 L2,6 C2,2.6862915 4.6862915,6.08718376e-16 8,0 Z M9.5,9 L6.5,9 L6.5,13 L9.5,13 L9.5,9 Z M8,2 C5.790861,2 4,3.790861 4,6 L12,6 C12,3.790861 10.209139,2 8,2 Z" id="形状结合" fill="#57689C"></path>
        </g>
    </g>
</svg>