<?xml version="1.0" encoding="UTF-8"?>
<svg width="20px" height="20px" viewBox="0 0 20 20" version="1.1" xmlns="http://www.w3.org/2000/svg" xmlns:xlink="http://www.w3.org/1999/xlink">
    <title>thread-pool-info-second-menu</title>
    <g id="thread-pool-info-second-menu" stroke="none" stroke-width="1" fill="none" fill-rule="evenodd">
        <rect id="矩形" fill="#FFFFFF" opacity="0" x="0" y="0" width="20" height="20"></rect>
        <g id="编组" transform="translate(2.000000, 1.999836)">
            <rect id="矩形" fill-opacity="0" fill="#D8D8D8" x="0" y="0.000164471272" width="16" height="16"></rect>
            <g id="图形" fill="#57689C">
                <path d="M8.725,0.000164471272 L14.866,6.07316447 L14.8666667,14.9001645 C14.8666667,15.5076777 14.3741799,16.0001645 13.7666667,16.0001645 L2.1,16.0001645 C1.49248678,16.0001645 1,15.5076777 1,14.9001645 L1,1.10097414 C1,0.493460919 1.49248678,0.000974143422 2.1,0.000974143422 L8.725,0.000164471272 Z M9,8.20016447 L4,8.20016447 L4,9.40016447 L9,9.40016447 L9,8.20016447 Z M12,5.00016447 L4,5.00016447 L4,6.20016447 L12,6.20016447 L12,5.00016447 Z" id="形状结合" opacity="0.550000012"></path>
                <path d="M16,11.0001645 L16,16.0001645 C16,16.5524492 15.5522847,17.0001645 15,17.0001645 L1,17.0001645 C0.44771525,17.0001645 6.76353751e-17,16.5524492 0,16.0001645 L0,11.0001645 L4.5,11.0001645 L4.5,13.0001645 L11.5,13.0001645 L11.5,11.0001645 L16,11.0001645 Z M9.82604444,6.07219033 C9.21853122,6.07219033 8.72604444,5.57970355 8.72604444,4.97219033 L8.72666667,5.95079541e-14 L14.8676667,6.073 L9.82604444,6.07219033 Z" id="形状结合"></path>
            </g>
        </g>
    </g>
</svg>