<?xml version="1.0" encoding="UTF-8"?>
<svg width="20px" height="20px" viewBox="0 0 20 20" version="1.1" xmlns="http://www.w3.org/2000/svg" xmlns:xlink="http://www.w3.org/1999/xlink">
    <title>ticket-center-second-menu</title>
    <g id="ticket-center-second-menu" stroke="none" stroke-width="1" fill="none" fill-rule="evenodd">
        <g id="应用性能监控">
            <rect id="矩形" x="0" y="0" width="20" height="20"></rect>
            <path d="M17.0733578,4.6075388 L17.0506123,17.0018352 C17.0496001,17.5534024 16.6021822,18 16.050614,18 L4.00183684,18 C3.44955209,18 3.00183684,17.5522847 3.00183684,17 L3.02457728,4.6075388 L17.0733578,4.6075388 Z M9.03414634,10.195122 L5.55121951,10.195122 C5.21984866,10.195122 4.95121951,10.4637511 4.95121951,10.795122 C4.95121951,11.1264928 5.21984866,11.395122 5.55121951,11.395122 L9.03414634,11.395122 C9.36551719,11.395122 9.63414634,11.1264928 9.63414634,10.795122 C9.63414634,10.4637511 9.36551719,10.195122 9.03414634,10.195122 Z M13.7170732,7.46341463 L5.55121951,7.46341463 C5.21984866,7.46341463 4.95121951,7.73204378 4.95121951,8.06341463 C4.95121951,8.39478548 5.21984866,8.66341463 5.55121951,8.66341463 L13.7170732,8.66341463 C14.048444,8.66341463 14.3170732,8.39478548 14.3170732,8.06341463 C14.3170732,7.73204378 14.048444,7.46341463 13.7170732,7.46341463 Z" id="形状结合" fill="#57689C"></path>
            <path d="M4,2 L16.0487805,2 C16.6010652,2 17.0487805,2.44771525 17.0487805,3 L17.0487805,4.6075388 L17.0487805,4.6075388 L3,4.6075388 L3,3 C3,2.44771525 3.44771525,2 4,2 Z" id="矩形备份-32" fill="#57689C" opacity="0.55"></path>
        </g>
    </g>
</svg>