<?xml version="1.0" encoding="UTF-8"?>
<svg width="20px" height="20px" viewBox="0 0 20 20" version="1.1" xmlns="http://www.w3.org/2000/svg" xmlns:xlink="http://www.w3.org/1999/xlink">
    <title>tidb-second-menui</title>
    <g id="tidb-second-menui" stroke="none" stroke-width="1" fill="none" fill-rule="evenodd">
        <rect id="矩形" fill-opacity="0" fill="#D8D8D8" x="0" y="0" width="20" height="20"></rect>
        <g id="TIDB" transform="translate(2.000000, 2.000000)">
            <rect id="矩形" fill-opacity="0" fill="#D8D8D8" x="0" y="0" width="16" height="16"></rect>
            <path d="M8.5,0.288675135 L14.4282032,3.71132487 C14.7376043,3.88995766 14.9282032,4.22008468 14.9282032,4.57735027 L14.9282032,11.4226497 C14.9282032,11.7799153 14.7376043,12.1100423 14.4282032,12.2886751 L8.5,15.7113249 C8.19059892,15.8899577 7.80940108,15.8899577 7.5,15.7113249 L1.57179677,12.2886751 C1.26239569,12.1100423 1.07179677,11.7799153 1.07179677,11.4226497 L1.07179677,4.57735027 C1.07179677,4.22008468 1.26239569,3.88995766 1.57179677,3.71132487 L7.5,0.288675135 C7.80940108,0.11004234 8.19059892,0.11004234 8.5,0.288675135 Z M8.67224691,2.82352941 L4.34,5.38361333 L4.34,7.43935992 L6.64588235,6.00035721 L6.52351195,12.1671991 L8.27035871,13.1764706 L8.30532168,5.15939709 L10.4890196,3.88870576 L8.67224691,2.82352941 Z M10.4890196,4.70588235 L8.73215686,5.69286942 L8.73215686,13.1764706 L10.4890196,12.2970471 L10.4890196,4.70588235 Z" id="形状结合" fill="#57689C"></path>
        </g>
    </g>
</svg>