<?xml version="1.0" encoding="UTF-8"?>
<svg width="20px" height="20px" viewBox="0 0 20 20" version="1.1" xmlns="http://www.w3.org/2000/svg" xmlns:xlink="http://www.w3.org/1999/xlink">
    <title>tidb-second-menui</title>
    <g id="tidb-second-menui" stroke="none" stroke-width="1" fill="none" fill-rule="evenodd">
        <rect id="矩形" fill-opacity="0" fill="#D8D8D8" x="0" y="0" width="20" height="20"></rect>
        <g id="TIDB" transform="translate(2.000000, 1.000000)">
            <rect id="矩形" fill-opacity="0" fill="#D8D8D8" x="0" y="1" width="16" height="16"></rect>
            <path d="M8.52792211,0.111205192 L15.4758442,4.12258989 C15.7852453,4.30122269 15.9758442,4.63134971 15.9758442,4.9886153 L15.9758442,13.0113847 C15.9758442,13.3686503 15.7852453,13.6987773 15.4758442,13.8774101 L8.52792211,17.8887948 C8.21852104,18.0674276 7.83732319,18.0674276 7.52792211,17.8887948 L0.58,13.8774101 C0.270598923,13.6987773 0.08,13.3686503 0.08,13.0113847 L0.08,4.9886153 C0.08,4.63134971 0.270598923,4.30122269 0.58,4.12258989 L7.52792211,0.111205192 C7.83732319,-0.067427603 8.21852104,-0.067427603 8.52792211,0.111205192 Z M8.79911284,3.0616371 L3.82922961,5.99852375 L3.82922961,8.35684282 L6.47450036,6.70604229 L6.33411903,13.780543 L8.33807323,14.9383629 L8.37818218,5.74130652 L10.8832849,4.28359009 L8.79911284,3.0616371 Z M10.8832849,5.22104179 L8.86784056,6.35329731 L8.86784056,14.9383629 L10.8832849,13.9295026 L10.8832849,5.22104179 Z" id="形状结合" fill="#57689C"></path>
        </g>
    </g>
</svg>