<?xml version="1.0" encoding="UTF-8"?>
<svg width="20px" height="20px" viewBox="0 0 20 20" version="1.1" xmlns="http://www.w3.org/2000/svg" xmlns:xlink="http://www.w3.org/1999/xlink">
    <title>timed task 2</title>
    <g id="timed-task" stroke="none" stroke-width="1" fill="none" fill-rule="evenodd">
        <rect id="矩形" fill="#000000" opacity="0" x="0" y="0" width="20" height="20"></rect>
        <g id="编组" transform="translate(3.400000, 1.951724)" fill="#FFFFFF">
            <path d="M11.6487174,14.1812889 C13.124639,12.9676602 13.5891249,11.5111435 13.5891249,9.42758621 C13.5891249,5.77108028 10.6814103,2.80689655 7.09456247,2.80689655 L7.09456247,9.53449235 L11.6487174,14.1812889 Z" id="路径" opacity="0.55"></path>
            <path d="M9.25941663,0 C9.59078748,0 9.85941663,0.26862915 9.85941663,0.6 C9.85941663,0.93137085 9.59078748,1.2 9.25941663,1.2 L7.694,1.2 L7.69503193,2.23238334 C9.00763945,2.34429997 10.218183,2.81978238 11.2295369,3.55935225 L12.6648609,2.12401179 C12.8991755,1.88969722 13.2790744,1.88969722 13.513389,2.12401179 C13.7477036,2.35832637 13.7477036,2.73822536 13.513389,2.97253993 L12.1376297,4.34881838 C13.4061819,5.65370763 14.1891249,7.44814225 14.1891249,9.42758621 C14.1891249,13.4129074 11.0153917,16.6482759 7.09456247,16.6482759 C5.15765582,16.6482759 3.34396392,15.8537739 2.01817052,14.4718499 C1.78876254,14.2327294 1.7966361,13.852912 2.03575661,13.6235041 C2.27487711,13.3940961 2.6546945,13.4019696 2.88410248,13.6410902 C3.9864671,14.790126 5.48889407,15.4482759 7.09456247,15.4482759 C10.3474289,15.4482759 12.9891249,12.7552769 12.9891249,9.42758621 C12.9891249,6.0998955 10.3474289,3.40689655 7.09456247,3.40689655 C3.84169608,3.40689655 1.2,6.0998955 1.2,9.42758621 C1.2,9.75895706 0.93137085,10.0275862 0.6,10.0275862 C0.26862915,10.0275862 0,9.75895706 0,9.42758621 C0,5.6478474 2.85474519,2.54268443 6.49409301,2.23238334 L6.494,1.2 L4.92970832,1.2 C4.59833747,1.2 4.32970832,0.93137085 4.32970832,0.6 C4.32970832,0.26862915 4.59833747,0 4.92970832,0 L9.25941663,0 Z M7.75747391,6.85570884 L7.75747391,9.18770884 L9.434936,11.1207537 L9.86745819,11.6192761 L8.87041343,12.4843204 L8.43789125,11.985798 L6.59895153,9.86624756 C6.49481031,9.74621503 6.43747391,9.59263794 6.43747391,9.43372538 L6.43747391,6.85570884 L7.75747391,6.85570884 Z" id="形状结合" fill-rule="nonzero"></path>
        </g>
    </g>
</svg>