<?xml version="1.0" encoding="UTF-8"?>
<svg width="20px" height="20px" viewBox="0 0 20 20" version="1.1" xmlns="http://www.w3.org/2000/svg" xmlns:xlink="http://www.w3.org/1999/xlink">
    <title>tomcat-second-menu</title>
    <defs>
        <linearGradient x1="-3.35277807%" y1="50.0024078%" x2="103.379328%" y2="50.0024078%" id="linearGradient-1">
            <stop stop-color="#0471EA" offset="0.4092262%"></stop>
            <stop stop-color="#2AC6CC" offset="76.74%"></stop>
        </linearGradient>
    </defs>
    <g id="tomcat-second-menu" stroke="none" stroke-width="1" fill="none" fill-rule="evenodd">
        <g id="Mysql" stroke-linejoin="round">
            <g id="SVGID_1_-link">
                <rect id="矩形" x="0" y="0" width="20" height="20"></rect>
            </g>
        </g>
        <g id="编组" transform="translate(2.000000, 2.000000)">
            <rect id="矩形备份-7" opacity="0.446149554" x="0" y="0" width="16" height="16"></rect>
            <path d="M8.00239316,4.76615385 C8.03282051,5.3442735 8.09367521,5.89196581 8.24581197,6.43965812 C8.24581197,6.43965812 9.46290598,9.33025641 11.7753846,10.0909402 C12.4752137,9.60410256 13.0533333,8.99555556 13.4793162,8.26529915 L13.6010256,8.08273504 C13.6618803,7.99145299 13.6923077,7.90017094 13.7531624,7.80888889 L13.8444444,7.62632479 C14.2704274,6.68307692 14.4834188,5.67897436 14.4529915,4.67487179 L14.4529915,4.67487179 C14.4529915,4.37059829 14.3617094,3.09264957 14.1791453,2.75794872 C13.722735,2.94051282 12.8707692,3.51863248 12.6882051,4.09675214 C11.7449573,3.97504274 10.7712821,3.97504274 9.82803419,4.12717949 C9.67589744,3.48820513 8.91521368,3.00136752 8.33709402,2.75794872 C8.09367521,3.15350427 7.97196581,4.09675214 8.00239316,4.76615385 L8.00239316,4.76615385 Z" id="路径" fill="#57689C"></path>
            <path d="M15.365812,12.9815385 C15.0006838,12.6468376 14.5138462,12.4947009 14.0270085,12.5251282 C13.8140171,12.2512821 12.8099145,11.1863248 12.2013675,10.5473504 L11.897094,10.7603419 L11.6232479,10.6690598 C9.06735043,9.84752137 7.78940171,6.80478632 7.72854701,6.68307692 L7.72854701,6.65264957 L7.72854701,6.62222222 C5.93333333,7.20034188 4.29025641,8.20444444 2.95145299,9.51282051 L2.76888889,9.69538462 C2.67760684,9.78666667 2.58632479,9.87794872 2.52547009,9.96923077 C1.21709402,11.3993162 0.273846154,12.9511111 0.273846154,13.2249573 L0.273846154,13.3466667 L1.97777778,13.3466667 L1.94735043,13.1945299 C1.88649573,12.6164103 2.03863248,12.0382906 2.43418803,11.5818803 C2.76888889,11.1863248 3.22529915,10.9124786 3.7425641,10.7907692 C4.25982906,10.6082051 5.65948718,10.7603419 5.65948718,10.7603419 C8.39794872,11.0037607 11.0451282,12.0991453 13.9965812,13.6509402 L15.6396581,13.6509402 L15.6700855,13.5292308 C15.6092308,13.3162393 15.5179487,13.1336752 15.365812,12.9815385 Z" id="路径" fill="#57689C"></path>
            <path d="M6.84615385,11.9774359 C6.60273504,11.8557265 6.29846154,11.8252991 6.05504274,11.9165812 C5.87247863,11.7035897 5.75076923,11.4601709 5.68991453,11.2167521 L5.59863248,11.2167521 C5.11179487,11.1558974 4.62495726,11.1558974 4.10769231,11.1863248 C4.62495726,11.642735 5.20307692,12.0991453 5.78119658,12.4947009 L7.0591453,12.4947009 L7.0591453,12.3425641 C7.0591453,12.1904274 6.96786325,12.0687179 6.84615385,11.9774359 Z" id="路径" fill="#57689C"></path>
            <path d="M2.40376068,9.23897436 L2.52547009,9.11726496 C2.55589744,9.08683761 2.55589744,9.05641026 2.58632479,9.05641026 C2.31247863,8.63042735 2.12991453,8.14358974 2.03863248,7.65675214 C1.94735043,7.07863248 2.09948718,6.53094017 2.46461538,6.07452991 C3.01230769,5.37470085 3.8034188,5.3442735 4.62495726,5.46598291 C4.59452991,5.58769231 4.62495726,5.67897436 4.68581197,5.80068376 C4.89880342,6.10495726 6.05504274,6.22666667 6.75487179,5.92239316 C6.23760684,5.2225641 5.23350427,4.8574359 4.92923077,5.00957265 C4.83794872,5.07042735 4.74666667,5.13128205 4.71623932,5.2225641 C4.47282051,5.1617094 4.19897436,5.13128205 3.95555556,5.13128205 C3.3165812,5.1008547 2.67760684,5.40512821 2.28205128,5.89196581 C1.88649573,6.40923077 1.70393162,7.04820513 1.82564103,7.68717949 C1.85606838,8.23487179 2.06905983,8.75213675 2.40376068,9.23897436 Z" id="路径" fill="#57689C"></path>
        </g>
    </g>
</svg>