<?xml version="1.0" encoding="UTF-8"?>
<svg width="20px" height="20px" viewBox="0 0 20 20" version="1.1" xmlns="http://www.w3.org/2000/svg" xmlns:xlink="http://www.w3.org/1999/xlink">
    <title>tongweb-second-menu</title>
    <g id="tongweb-second-menu" stroke="none" stroke-width="1" fill="none" fill-rule="evenodd">
        <rect id="矩形" fill="#FFFFFF" opacity="0" x="0" y="0" width="20" height="20"></rect>
        <g id="Weblogic" transform="translate(2.000000, 2.000000)">
            <rect id="矩形" fill-opacity="0" fill="#FFFFFF" x="0" y="0" width="16" height="16"></rect>
            <g fill="#57689C" fill-rule="nonzero" id="形状结合">
                <path d="M8.00008835,0 C12.4183904,0 16,3.58514363 16,8.00768662 C16,12.4302296 12.4183904,16.0153732 8.00008835,16.0153732 C3.58178625,16.0153732 0,12.4302296 0,8.00768662 C0,3.58514363 3.58178625,0 8.00008835,0 Z M6.58893172,1.42759009 C2.95855191,1.42759009 0.0153732316,4.37359603 0.0153732316,8.00750991 C0.0153732316,11.6414238 2.95855191,14.5874297 6.58893172,14.5874297 C9.13859101,14.5874297 11.3473886,13.1335108 12.4376512,11.0097077 L10.7990767,11.0097077 L10.7997835,10.6252002 C10.7997835,10.6252002 10.8188675,10.41828 11.0165991,10.41828 C11.0952323,10.4041437 11.1761627,10.3847063 11.2235193,10.3590842 C11.3380233,10.2975913 11.4230179,10.2182513 11.4786796,10.1215943 C11.5198516,10.0452583 11.5460037,9.97157277 11.5576662,9.89947762 C11.5693286,9.82755917 11.5753366,9.68902338 11.5753366,9.48369355 L11.5753366,6.51347919 L11.5779871,6.43325566 L11.5781638,5.05107845 L11.5732161,5.00531216 L12.4376512,5.00531216 C11.3473886,2.88150905 9.4813964,1.42759009 6.58893172,1.42759009 Z M7.76471888,5.05107845 L7.79016422,5.10037881 L6.66136592,5.10037881 L6.66136592,5.26736391 L7.87604228,5.26736391 L7.97587993,5.46085458 L6.66136592,5.46085458 L6.66136592,5.68350139 L8.090384,5.68350139 L8.19022165,5.87734547 L6.56772726,5.87752217 L6.56772726,6.09981557 L8.30490243,6.09999227 L8.40332645,6.29100909 L6.56772726,6.2913625 L6.56772726,6.51365589 L8.51783052,6.51347919 L8.61802158,6.70785338 L6.6532519,6.70785338 L6.56772726,6.54051487 L6.56755055,9.48316344 C6.56755055,9.70545683 6.58186356,9.8659039 6.61101969,9.96379781 C6.63982241,10.0622218 6.69760456,10.1502203 6.78418943,10.2283234 C6.90275768,10.3343457 7.05825704,10.375341 7.24326593,10.4073244 C7.31553779,10.4198703 7.35971374,10.4444322 7.35971374,10.5744862 L7.35971374,10.9642948 L4.68300441,10.9642948 L4.68371122,10.5856185 C4.68371122,10.5856185 4.70261853,10.3817023 4.89734613,10.3817023 C4.9747424,10.3677427 5.05461252,10.3486587 5.10126233,10.3233901 C5.21382266,10.2627807 5.29758026,10.1845009 5.35235844,10.0894342 C5.39300032,10.0143351 5.41879908,9.94170983 5.43028482,9.8706749 C5.43947342,9.81412968 5.44515622,9.71540173 5.44706179,9.57467198 L5.4477785,6.21661678 C5.4477785,5.64126918 4.93463063,5.6053983 4.93463063,5.6053983 L4.93488999,5.26404217 C4.93734882,5.22532149 4.96254984,5.05107845 5.21700332,5.05107845 L7.76471888,5.05107845 Z M9.37961501,10.6716733 L9.22782643,10.9642948 L8.82494174,10.9642948 L8.67562702,10.6716733 L9.37961501,10.6716733 Z M9.59466354,10.2569494 L9.49482589,10.4492032 L8.56218318,10.4492032 L8.46411256,10.2569494 L9.59466354,10.2569494 Z M9.81112571,9.83957503 L9.70987443,10.034656 L8.35066871,10.034656 L8.25100776,9.83957503 L9.81112571,9.83957503 Z M10.026351,9.42485118 L9.9263366,9.61745834 L8.13774062,9.61745834 L8.0394933,9.42485118 L10.026351,9.42485118 Z M10.2417529,9.00906711 L10.1417385,9.20238108 L7.92587275,9.20238108 L7.82744873,9.00906711 L10.2417529,9.00906711 Z M9.58918573,8.59345975 L9.6344219,8.68145825 L9.68107171,8.59345975 L10.4575083,8.59345975 L10.3571405,8.78695042 L7.71400488,8.78695042 L7.61522745,8.59345975 L9.58918573,8.59345975 Z M9.3746673,8.17732227 L9.47450495,8.37098965 L7.5017836,8.37098965 L7.40300617,8.17732227 L9.3746673,8.17732227 Z M10.6732636,8.17732227 L10.5727191,8.37098965 L9.79928656,8.37098965 L9.90230488,8.17732227 L10.6732636,8.17732227 Z M9.16103239,7.76242173 L9.26016323,7.95502888 L7.28956233,7.95502888 L7.19131501,7.76242173 L9.16103239,7.76242173 Z M10.8884889,7.76242173 L10.7886512,7.95502888 L10.0205197,7.95502888 L10.1230079,7.76242173 L10.8884889,7.76242173 Z M8.94686737,7.34646095 L9.04652832,7.53995163 L7.07769446,7.53995163 L6.97909373,7.34646095 L8.94686737,7.34646095 Z M11.1040675,7.34681436 L11.0038764,7.53995163 L10.2412228,7.53995163 L10.3440644,7.34663766 L11.1040675,7.34681436 Z M8.73234895,6.92997007 L8.8323633,7.12416756 L6.86564988,7.12416756 L6.76651905,6.92997007 L8.73234895,6.92997007 Z M11.3201763,6.92997007 L11.2194551,7.12416756 L10.4622793,7.12416756 L10.565651,6.92997007 L11.3201763,6.92997007 Z M11.536285,6.51347919 L11.4355639,6.70785338 L10.6836891,6.70785338 L10.7870609,6.51347919 L11.536285,6.51347919 Z M11.5749832,6.09999227 L11.5751599,6.18887429 L11.5751599,6.2913625 L10.9052757,6.29118579 L11.0068804,6.09999227 L11.5749832,6.09999227 Z"></path>
            </g>
        </g>
    </g>
</svg>