<?xml version="1.0" encoding="UTF-8"?>
<svg width="20px" height="20px" viewBox="0 0 20 20" version="1.1" xmlns="http://www.w3.org/2000/svg" xmlns:xlink="http://www.w3.org/1999/xlink">
    <title>tongweb-second-menu</title>
    <g id="tongweb-second-menu" stroke="none" stroke-width="1" fill="none" fill-rule="evenodd">
        <rect id="矩形" fill="#FFFFFF" opacity="0" x="0" y="0" width="20" height="20"></rect>
        <g id="Weblogic" transform="translate(1.000000, 1.000000)">
            <rect id="矩形" fill-opacity="0" fill="#FFFFFF" x="1" y="1" width="16" height="16"></rect>
            <g fill="#57689C" fill-rule="nonzero" id="形状">
                <path d="M9.0000994,0 C13.9706893,0 18,4.02941501 18,9 C18,13.970585 13.9706893,18 9.0000994,18 C4.02950954,18 0,13.970585 0,9 C0,4.02941501 4.02950954,0 9.0000994,0 Z M7.41254818,1.60449721 C3.3283709,1.60449721 0.0172948855,4.91557252 0.0172948855,8.9998014 C0.0172948855,13.0840303 3.3283709,16.3951056 7.41254818,16.3951056 C10.2809149,16.3951056 12.7658122,14.7610168 13.9923576,12.3740318 L12.1489613,12.3740318 L12.1497565,11.9418761 L12.1592011,11.8957706 C12.1784312,11.8279683 12.2347826,11.7093144 12.393674,11.7093144 C12.4821363,11.6934263 12.573183,11.6715802 12.6264592,11.6427831 C12.7552763,11.5736699 12.8508951,11.4844981 12.9135145,11.3758634 C12.959833,11.2900677 12.9892542,11.2072511 13.0023745,11.1262219 L13.0150399,10.9932737 L13.0214457,10.7883715 L13.0222536,7.32063023 L13.0252355,7.23046539 L13.0254343,5.67700863 L13.0198681,5.62557098 L13.9923576,5.62557098 C12.7658122,3.23858596 10.666571,1.60449721 7.41254818,1.60449721 Z M8.73530873,5.67700863 L8.76393475,5.7324183 L7.49403666,5.7324183 L7.49403666,5.92009621 L8.86054756,5.92009621 L8.97286492,6.13756427 L7.49403666,6.13756427 L7.49403666,6.38780149 L9.101682,6.38780149 L9.21399936,6.60566675 L7.38869316,6.60586535 L7.38869316,6.85570536 L9.34301523,6.85590397 L9.45374226,7.07059161 L7.38869316,7.07098881 L7.38869316,7.32082883 L9.58255933,7.32063023 L9.69527428,7.53909129 L7.48490839,7.53909129 L7.38869316,7.35101617 L7.38849437,10.6583181 C7.38849437,10.9081581 7.40459651,11.0884878 7.43739715,11.1985127 C7.46980021,11.3091334 7.53480513,11.4080367 7.6322131,11.4958183 C7.76560239,11.6149789 7.94053917,11.6610544 8.14867417,11.6970011 C8.22998001,11.7111018 8.27967796,11.7387073 8.27967796,11.8848776 L8.27967796,12.3229914 L5.26837996,12.3229914 L5.26917512,11.8973895 L5.27850153,11.8519533 C5.29747658,11.7851354 5.35303686,11.668204 5.5095144,11.668204 C5.5965852,11.6525145 5.68643909,11.6310656 5.73892012,11.6026657 C5.86555049,11.5345455 5.95977779,11.4465653 6.02140325,11.339718 C6.06712536,11.2553126 6.09614896,11.1736876 6.10907043,11.09385 L6.12158,10.9629894 L6.12794452,10.7611664 L6.12875081,6.9869806 C6.12875081,6.34033586 5.55145946,6.30001986 5.55145946,6.30001986 L5.55175124,5.91636284 L5.56225312,5.86060419 C5.58481231,5.78716596 5.65443361,5.67700863 5.86912874,5.67700863 L8.73530873,5.67700863 Z M10.5520669,11.9941082 L10.3813047,12.3229914 L9.92805946,12.3229914 L9.7600804,11.9941082 L10.5520669,11.9941082 Z M10.7939965,11.5279917 L10.6816791,11.7440696 L9.63245607,11.7440696 L9.52212663,11.5279917 L10.7939965,11.5279917 Z M11.0375164,11.0588962 L10.9236087,11.2781517 L9.3945023,11.2781517 L9.28238373,11.0588962 L11.0375164,11.0588962 Z M11.2796448,10.5927798 L11.1671287,10.8092548 L9.1549582,10.8092548 L9.04442996,10.5927798 L11.2796448,10.5927798 Z M11.521972,10.1254717 L11.4094559,10.3427411 L8.91660685,10.3427411 L8.80587982,10.1254717 L11.521972,10.1254717 Z M10.7878339,9.6583622 L10.8387246,9.75726549 L10.8912057,9.6583622 L11.7646968,9.6583622 L11.6517831,9.87583026 L8.67825549,9.87583026 L8.56713088,9.6583622 L10.7878339,9.6583622 Z M10.5465007,9.19065693 L10.6588181,9.40832359 L8.43950655,9.40832359 L8.32838195,9.19065693 L10.5465007,9.19065693 Z M12.0074216,9.19065693 L11.894309,9.40832359 L11.0241974,9.40832359 L11.140093,9.19065693 L12.0074216,9.19065693 Z M10.3061614,8.72434186 L10.4176836,8.94081691 L8.20075762,8.94081691 L8.09022938,8.72434186 L10.3061614,8.72434186 Z M12.24955,8.72434186 L12.1372326,8.94081691 L11.2730847,8.94081691 L11.3883839,8.72434186 L12.24955,8.72434186 Z M10.0652258,8.25683518 L10.1773444,8.47430324 L7.96240626,8.47430324 L7.85148045,8.25683518 L10.0652258,8.25683518 Z M12.4920759,8.25723239 L12.379361,8.47430324 L11.5213756,8.47430324 L11.6370725,8.25703378 L12.4920759,8.25723239 Z M9.82389256,7.78873271 L9.93640872,8.00699517 L7.72385612,8.00699517 L7.61233393,7.78873271 L9.82389256,7.78873271 Z M12.7351983,7.78873271 L12.621887,8.00699517 L11.7700642,8.00699517 L11.8863574,7.78873271 L12.7351983,7.78873271 Z M12.9783207,7.32063023 L12.8650093,7.53909129 L12.0191503,7.53909129 L12.1354435,7.32063023 L12.9783207,7.32063023 Z M13.0218561,6.85590397 L13.0220548,7.07098881 L12.2684352,7.07079021 L12.3827405,6.85590397 L13.0218561,6.85590397 Z"></path>
            </g>
        </g>
    </g>
</svg>