<?xml version="1.0" encoding="UTF-8"?>
<svg width="20px" height="20px" viewBox="0 0 20 20" version="1.1" xmlns="http://www.w3.org/2000/svg" xmlns:xlink="http://www.w3.org/1999/xlink">
    <title>tool task 2</title>
    <g id="tool-task" stroke="none" stroke-width="1" fill="none" fill-rule="evenodd">
        <rect id="矩形" fill="#000000" opacity="0" x="0" y="0" width="20" height="20"></rect>
        <g id="编组" transform="translate(2.000000, 2.000000)">
            <rect id="矩形" fill="#000000" fill-rule="nonzero" opacity="0" x="0" y="0" width="16" height="16"></rect>
            <path d="M10.884,1.017 C11.596,0.906 11.86,1.373 11.465,1.77 L10.749,2.489 C9.986,3.255 9.986,4.502 10.749,5.268 C11.512,6.034 12.754,6.034 13.517,5.268 L14.233,4.549 C14.629,4.152 15.094,4.418 14.983,5.133 C14.8343688,6.10699241 14.2908939,6.97667455 13.4805966,7.53718383 C12.6702992,8.09769312 11.6648164,8.29947584 10.701,8.095 L4.695,14.125 C4.32853847,14.4928029 3.83070421,14.6995455 3.3115,14.6995455 C2.79229579,14.6995455 2.29446153,14.4928029 1.928,14.125 C1.1650776,13.3561411 1.1650776,12.1158589 1.928,11.347 L7.933,5.317 C7.68131844,4.12646024 8.04635758,2.88923694 8.904,2.026 C9.43967819,1.48735238 10.1333743,1.13384767 10.884,1.017 Z M3.76117102,12.2867858 C3.51143315,12.0362362 3.1077357,12.0296853 2.85,12.272 C2.595,12.528 2.595,12.942 2.85,13.198 C3.105,13.454 3.518,13.454 3.773,13.198 C4.01614977,12.941052 4.0109089,12.5373354 3.76117102,12.2867858 Z" id="形状结合" fill="#FFFFFF" opacity="0.55"></path>
            <polygon id="路径" fill="#FFFFFF" points="3.121 4.669 5.382 6.94 6.305 6.014 4.044 3.743 3.537 2.771 1.923 1.613 1 2.539 2.153 4.16"></polygon>
            <path d="M10.688,9.486 C10.6269954,9.42462728 10.5440342,9.39011733 10.4575,9.39011733 C10.3709658,9.39011733 10.2880046,9.42462728 10.227,9.486 L8.843,10.876 C8.71602763,11.0042178 8.71602763,11.2107822 8.843,11.339 L12.108,14.617 C12.618,15.128 13.445,15.128 13.954,14.617 C14.464,14.106 14.464,13.276 13.954,12.764 L10.688,9.486 L10.688,9.486 Z" id="路径" fill="#FFFFFF"></path>
        </g>
    </g>
</svg>