<?xml version="1.0" encoding="UTF-8"?>
<svg width="20px" height="20px" viewBox="0 0 20 20" version="1.1" xmlns="http://www.w3.org/2000/svg" xmlns:xlink="http://www.w3.org/1999/xlink">
    <title>tool management 2</title>
    <g id="tool-management" stroke="none" stroke-width="1" fill="none" fill-rule="evenodd">
        <rect id="矩形" fill="#000000" opacity="0" x="0" y="0" width="20" height="20"></rect>
        <path d="M10.725,2 L16.866,8.073 L16.8666667,16.9 C16.8666667,17.5075132 16.3741799,18 15.7666667,18 L4.1,18 C3.49248678,18 3,17.5075132 3,16.9 L3,3.10080967 C3,2.49329645 3.49248678,2.00080967 4.1,2.00080967 L10.725,2 Z M7.81868452,8.15152123 L7.38986846,8.57118394 L5.58033729,10.3420895 L5.13690327,10.7760582 L5.58548698,11.2047016 L7.39501815,12.933796 L7.82881414,13.348309 L8.65784017,12.480717 L8.22404419,12.066204 L6.862,10.765 L8.22919388,9.42881606 L8.65800994,9.00915335 L7.81868452,8.15152123 Z M11.6813155,8.15152123 L10.8419901,9.00915335 L11.2708061,9.42881606 L12.638,10.765 L11.2759558,12.066204 L10.8421598,12.480717 L11.6711859,13.348309 L12.1049818,12.933796 L13.914513,11.2047016 L14.3630967,10.7760582 L13.9196627,10.3420895 L12.1101315,8.57118394 L11.6813155,8.15152123 Z" id="形状结合" fill="#FFFFFF" opacity="0.55"></path>
        <path d="M18,13 L18,18 C18,18.5522847 17.5522847,19 17,19 L3,19 C2.44771525,19 2,18.5522847 2,18 L2,13 L6.5,13 L6.5,15 L13.5,15 L13.5,13 L18,13 Z" id="形状结合" fill="#FFFFFF"></path>
        <g id="编组-2备份-2" transform="translate(5.136903, 8.151521)"></g>
        <path d="M15.7666667,2.00122524 C16.3741799,2.00122524 16.8666667,2.49371201 16.8666667,3.10122524 L16.8660444,8.07341556 L10.7250444,2.00041556 L15.7666667,2.00122524 Z" id="形状结合" fill="#FFFFFF" transform="translate(13.796356, 5.036626) rotate(-180.000000) translate(-13.796356, -5.036626) "></path>
    </g>
</svg>