<?xml version="1.0" encoding="UTF-8"?>
<svg width="20px" height="20px" viewBox="0 0 20 20" version="1.1" xmlns="http://www.w3.org/2000/svg" xmlns:xlink="http://www.w3.org/1999/xlink">
    <title>Topic-second menu-pressed</title>
    <g id="Topic-second-menu-pressed" stroke="none" stroke-width="1" fill="none" fill-rule="evenodd">
        <g id="Topic">
            <rect id="矩形" fill="#D8D8D8" opacity="0" x="0" y="0" width="20" height="20"></rect>
            <g id="图形" transform="translate(2.000000, 2.000000)" fill="#FFFFFF">
                <path d="M15,2.8 C15.5522847,2.8 16,3.24771525 16,3.8 L16,12.8 C16,13.3522847 15.5522847,13.8 15,13.8 L8.311,13.8 L5.07029442,15.9184563 C5.01609229,15.9538582 4.95579941,15.9782269 4.89285362,15.9905392 L4.796875,15.9998373 C4.52073263,15.9998373 4.296875,15.7759797 4.296875,15.4998373 L4.296,13.8 L1,13.8 C0.44771525,13.8 6.76353751e-17,13.3522847 0,12.8 L0,3.8 C-6.76353751e-17,3.24771525 0.44771525,2.8 1,2.8 L15,2.8 Z M10,9.00046258 L6,9.00046258 L6,9.5 C6,10.6045695 6.8954305,11.5 8,11.5 C9.1045695,11.5 10,10.6045695 10,9.5 L10,9.00046258 Z M6,5.5 C5.44771525,5.5 5,5.94771525 5,6.5 C5,7.05228475 5.44771525,7.5 6,7.5 C6.55228475,7.5 7,7.05228475 7,6.5 C7,5.94771525 6.55228475,5.5 6,5.5 Z M10,5.5 C9.44771525,5.5 9,5.94771525 9,6.5 C9,7.05228475 9.44771525,7.5 10,7.5 C10.5522847,7.5 11,7.05228475 11,6.5 C11,5.94771525 10.5522847,5.5 10,5.5 Z" id="形状结合" opacity="0.550000012"></path>
                <rect id="矩形" x="1" y="0" width="14" height="1.7" rx="0.85"></rect>
            </g>
        </g>
    </g>
</svg>