<?xml version="1.0" encoding="UTF-8"?>
<svg width="20px" height="20px" viewBox="0 0 20 20" version="1.1" xmlns="http://www.w3.org/2000/svg" xmlns:xlink="http://www.w3.org/1999/xlink">
    <title>trace-query-second-menu</title>
    <g id="trace-query-second-menu" stroke="none" stroke-width="1" fill="none" fill-rule="evenodd">
        <g id="编组-52" transform="translate(2.500000, 2.000000)" fill="#57689C">
            <g id="分析-(4)备份-2">
                <path d="M12.8377695,0 C13.3926172,0 13.8424101,0.449792936 13.8424101,1.00464064 L13.8421971,7.81962043 C13.8421867,8.15280953 13.5720807,8.42290714 13.2388916,8.42290714 L12.6356049,8.42290714 C10.9222337,8.28996492 9.52660744,8.81299587 8.44872612,9.992 C7.3708448,11.1710041 7.02890514,12.7188724 7.42290714,14.6356049 L7.42290714,14.6356049 L7.42290714,15.2388916 C7.42290714,15.5720811 7.15281001,15.842188 6.81962043,15.8422001 L1.00464064,15.8424101 L1.00464064,15.8424101 C0.449792936,15.8424101 0,15.3926172 0,14.8377695 L0,1.00464064 C0,0.449792936 0.449792936,0 1.00464064,0 L12.8377695,0 Z" id="路径" fill-rule="nonzero" opacity="0.55"></path>
                <path d="M14.020626,14.2597147 C14.3021631,13.8412135 14.4619545,13.331403 14.4619545,12.791156 C14.4619545,11.3225972 13.2673238,10.1279666 11.7987651,10.1279666 C10.3302064,10.1279666 9.13557571,11.3225973 9.13557571,12.791156 C9.13557571,14.2597147 10.3302064,15.4543454 11.7987651,15.4543454 C12.3390121,15.4543454 12.8488226,15.294554 13.2673238,15.0130168 L14.0839144,15.8400098 C14.2913829,16.0501213 14.6298984,16.0522638 14.8400098,15.8447953 C14.8408124,15.8440027 14.8416125,15.8432077 14.8424101,15.8424101 C15.05253,15.6322903 15.05253,15.2916187 14.8424101,15.0814988 L14.020626,14.2597147 L14.020626,14.2597147 Z M10.2008515,12.7987651 C10.2008515,11.916108 10.916108,11.2008515 11.7987651,11.2008515 C12.6814222,11.2008515 13.3966787,11.916108 13.3966787,12.7987651 C13.3966787,13.6814222 12.6814222,14.3966787 11.7987651,14.3966787 C10.916108,14.3966787 10.2008515,13.6814222 10.2008515,12.7987651 Z" id="形状"></path>
            </g>
            <path d="M7.404,3.376 C7.28458359,3.19670181 7.08342544,3.08898739 6.868,3.08898739 C6.65257456,3.08898739 6.45141641,3.19670181 6.332,3.376 L4.636,5.932 C4.50457478,6.12834395 4.49201589,6.38112542 4.60333209,6.58952944 C4.7146483,6.79793346 4.93172996,6.92805553 5.168,6.928 L6.264,6.928 L6.264,8.676 C6.264,9.00737085 6.53262915,9.276 6.864,9.276 C7.19537085,9.276 7.464,9.00737085 7.464,8.676 L7.464,6.928 L8.56,6.928 C8.79698751,6.92954025 9.01542548,6.79999439 9.12773361,6.59130242 C9.24004174,6.38261046 9.22783209,6.12894099 9.096,5.932 L7.404,3.376 Z" id="路径备份-14" fill-rule="nonzero"></path>
            <path d="M6.5641173,9.992 L5.4438827,9.992 C5.20094219,9.992 5.004,10.2606292 5.004,10.592 C5.004,10.9233708 5.20094219,11.192 5.4438827,11.192 L6.5641173,11.192 C6.80705781,11.192 7.004,10.9233708 7.004,10.592 C7.004,10.2606292 6.80705781,9.992 6.5641173,9.992 Z" id="路径备份-15" fill-rule="nonzero"></path>
        </g>
    </g>
</svg>