<?xml version="1.0" encoding="UTF-8"?>
<svg width="20px" height="20px" viewBox="0 0 20 20" version="1.1" xmlns="http://www.w3.org/2000/svg" xmlns:xlink="http://www.w3.org/1999/xlink">
    <title>tuna-second-menu</title>
    <g id="tuna-second-menu" stroke="none" stroke-width="1" fill="none" fill-rule="evenodd">
        <g id="持续交付-Tuna">
            <g id="测试管理-TUNA">
                <rect id="矩形" x="0" y="0" width="20" height="20"></rect>
                <path d="M13.2768485,15.0269847 L14.6770504,15.1004078 L14.601321,16.5451175 C13.2998879,17.4617289 11.7128039,18 10,18 C9.79007273,18 9.58203398,17.9919142 9.37617826,17.976037 L10.4689141,16.9567685 L9.5619169,15.9842509 C9.70658376,15.99469 9.85267176,16 10,16 C11.2091689,16 12.3347964,15.6423169 13.2768485,15.0269847 Z M8.48545197,15.8072098 L9.52667103,16.9241029 L8.5198497,17.8633435 C6.73050515,17.5286162 5.1509481,16.5982142 3.9948551,15.285814 L5.49695412,15.3381183 L5.54301997,14.0169551 C6.31634282,14.874441 7.33360494,15.507644 8.48545197,15.8072098 Z M16.888875,10.585763 L17.8265759,11.6646138 C17.4650795,13.3726819 16.5585746,14.8795706 15.2975903,15.9947507 L15.3774137,14.469234 L14.0778745,14.4012799 C14.9007766,13.6384841 15.5093821,12.6477489 15.8033129,11.5294526 L16.888875,10.585763 Z M2.02415096,9.37374563 L3.0432783,10.4667603 L4.0159247,9.55949054 C4.00536957,9.70495023 4,9.85184803 4,10 C4,11.1641182 4.33152682,12.2508041 4.9053161,13.1707934 L4.8536625,14.6486181 L3.45366393,14.5995903 C2.53779409,13.298481 2,11.7120448 2,10 C2,9.78924577 2.00814963,9.58039499 2.02415096,9.37374563 Z M15.3085341,5.53860835 L16.7231279,5.66238675 C17.5310209,6.91201179 18,8.40123791 18,10 C18,10.2709321 17.9865319,10.5387186 17.9602286,10.8027265 L16.9544067,9.64523656 L15.9800876,10.4923717 C15.9932766,10.32999 16,10.1657801 16,10 C16,8.89712017 15.7024357,7.86374024 15.1832121,6.97576539 L15.3085341,5.53860835 Z M4.78562442,3.93266797 L4.73333332,5.43028748 L6.0579431,5.47659123 C5.1632184,6.25697753 4.50217134,7.29849311 4.19360066,8.48233917 L3.0759464,9.52451499 L2.13704765,8.51776021 C2.47815837,6.69698083 3.43608351,5.0935505 4.78562442,3.93266797 Z M16.2029311,4.94751106 L14.7024454,4.81666668 L14.5875314,6.1326833 C13.8323216,5.23774609 12.819999,4.56684063 11.6644763,4.23387951 L10.4761424,3.04530059 L11.3994151,2.12198355 C13.3266233,2.46199614 15.0158587,3.49190212 16.2029311,4.94751106 Z M10,2 C10.1880721,2 10.3746285,2.00648984 10.5594574,2.01925781 L9.53333332,3.04553391 L10.509415,4.02132104 C10.3414827,4.0072023 10.1715825,4 10,4 C8.8807544,4 7.83308661,4.30646108 6.93633137,4.84004852 L5.42282449,4.78725492 L5.47095715,3.40456769 C6.75868042,2.51860477 8.3187769,2 10,2 Z" id="形状结合" fill="#57689C"></path>
            </g>
            <circle id="椭圆形" fill="#57689C" opacity="0.55" cx="10" cy="10" r="2.28571429"></circle>
        </g>
    </g>
</svg>