<?xml version="1.0" encoding="UTF-8"?>
<svg width="20px" height="20px" viewBox="0 0 20 20" version="1.1" xmlns="http://www.w3.org/2000/svg" xmlns:xlink="http://www.w3.org/1999/xlink">
    <title>tunnel-info-second-menu</title>
    <g id="tunnel-info-second-menu" stroke="none" stroke-width="1" fill="none" fill-rule="evenodd">
        <rect id="矩形" fill="#FFFFFF" opacity="0" x="0" y="0" width="20" height="20"></rect>
        <g id="tunnel" transform="translate(2.000000, 2.000000)">
            <rect id="矩形" fill="#FFFFFF" opacity="0" x="0" y="0" width="16" height="16"></rect>
            <path d="M8,28 C4.2724501,28 1.14033727,25.4506308 0.252127147,22.0003581 L2.34165389,22.0006859 C3.16552033,24.3307123 5.38781865,26 8,26 C10.6121813,26 12.8344797,24.3307123 13.6583461,22.0006859 L15.7478729,22.0003581 C14.8596627,25.4506308 11.7275499,28 8,28 Z M8,0 C12.418278,0 16,3.581722 16,8 L16,16 L14,16 L14,8 C14,4.6862915 11.3137085,2 8,2 C4.6862915,2 2,4.6862915 2,8 L2,16 L0,16 L0,8 C0,3.581722 3.581722,0 8,0 Z" id="形状结合" fill="#57689C" fill-rule="nonzero"></path>
            <path d="M12,21 L12,25 C12,27.209139 10.209139,29 8,29 C5.790861,29 4,27.209139 4,25 L4,21 L12,21 Z M10,14 L6,14 L6,16 L4,16 L4,8 C4,5.790861 5.790861,4 8,4 C10.209139,4 12,5.790861 12,8 L12,16 L10,16 L10,14 Z M9.5,11 L6.5,11 L6.5,13 L9.5,13 L9.5,11 Z M9,8 L7,8 L7,10 L9,10 L9,8 Z" id="形状结合" fill="#57689C" opacity="0.550000012"></path>
        </g>
    </g>
</svg>