<?xml version="1.0" encoding="UTF-8"?>
<svg width="20px" height="20px" viewBox="0 0 20 20" version="1.1" xmlns="http://www.w3.org/2000/svg" xmlns:xlink="http://www.w3.org/1999/xlink">
    <title>ucloud-host-second-menu</title>
    <g id="ucloud-host-second-menu" stroke="none" stroke-width="1" fill="none" fill-rule="evenodd">
        <g id="node" transform="translate(2.000000, 2.000000)">
            <rect id="矩形" fill="#D8D8D8" opacity="0" x="0" y="0" width="16" height="16"></rect>
            <g id="图形" transform="translate(0.500051, 0.800000)" fill="#57689C">
                <path d="M5.69196468,9.88172524 C5.25703645,10.4011996 4.99994877,11.0671574 4.99994877,11.8002323 C4.99994877,12.6676384 5.37325627,13.4522276 5.96712704,14.0012745 L0.5,14 C0.223857625,14 0,13.7761424 0,13.5 L0,10.3823529 C0,10.1062106 0.223857625,9.88235294 0.5,9.88235294 L5.69196468,9.88172524 Z M2.45882353,10.9529412 C1.91303625,10.9529412 1.47058824,11.3953892 1.47058824,11.9411765 C1.47058824,12.4869638 1.91303625,12.9294118 2.45882353,12.9294118 C3.00461081,12.9294118 3.44705882,12.4869638 3.44705882,11.9411765 C3.44705882,11.3953892 3.00461081,10.9529412 2.45882353,10.9529412 Z M11.0294118,4.94117647 C11.3055541,4.94117647 11.5294118,5.1650341 11.5294118,5.44117647 L11.5300454,6.83620648 C11.3571619,6.81234654 11.1802162,6.8 10.9999488,6.8 C9.54939069,6.8 8.2999007,7.60044535 7.70001285,8.80046459 C7.37525373,8.84219913 7.06806219,8.93006091 6.78533117,9.05714664 L0.5,9.05882353 C0.223857625,9.05882353 0,8.8349659 0,8.55882353 L0,5.44117647 C0,5.1650341 0.223857625,4.94117647 0.5,4.94117647 L11.0294118,4.94117647 Z M2.45882353,6.01176471 C1.91303625,6.01176471 1.47058824,6.45421272 1.47058824,7 C1.47058824,7.54578728 1.91303625,7.98823529 2.45882353,7.98823529 C3.00461081,7.98823529 3.44705882,7.54578728 3.44705882,7 C3.44705882,6.45421272 3.00461081,6.01176471 2.45882353,6.01176471 Z M11.0294118,0 C11.3055541,0 11.5294118,0.223857625 11.5294118,0.5 L11.5294118,3.61764706 C11.5294118,3.89378943 11.3055541,4.11764706 11.0294118,4.11764706 L0.5,4.11764706 C0.223857625,4.11764706 0,3.89378943 0,3.61764706 L0,0.5 C0,0.223857625 0.223857625,0 0.5,0 L11.0294118,0 Z M2.45882353,1.07058824 C1.91303625,1.07058824 1.47058824,1.51303625 1.47058824,2.05882353 C1.47058824,2.60461081 1.91303625,3.04705882 2.45882353,3.04705882 C3.00461081,3.04705882 3.44705882,2.60461081 3.44705882,2.05882353 C3.44705882,1.51303625 3.00461081,1.07058824 2.45882353,1.07058824 Z" id="形状"></path>
                <path d="M13.7748326,10.2498258 C13.5122465,8.97496456 12.3872465,8 10.9999488,8 C9.91203021,8 8.97491272,8.60033402 8.52499683,9.50034844 C7.36237466,9.6497561 6.49994877,10.5873898 6.49994877,11.7501742 C6.49994877,12.9874162 7.512623,14 8.74994878,14 L13.6245843,14 C14.6748807,14 15.4999488,13.1747194 15.4999488,12.1244803 C15.4999488,11.1498402 14.7125149,10.324824 13.7748326,10.2498258" id="路径" opacity="0.550000012"></path>
            </g>
        </g>
    </g>
</svg>