<?xml version="1.0" encoding="UTF-8"?>
<svg width="20px" height="20px" viewBox="0 0 20 20" version="1.1" xmlns="http://www.w3.org/2000/svg" xmlns:xlink="http://www.w3.org/1999/xlink">
    <title>ucloud-vpc-second-menu</title>
    <g id="ucloud-vpc-second-menu" stroke="none" stroke-width="1" fill="none" fill-rule="evenodd">
        <g id="服务名">
            <rect id="矩形" fill-opacity="0" fill="#D8D8D8" x="0" y="0" width="20" height="20"></rect>
            <path d="M10,3.18 C12.4175968,3.18 14.5000801,4.54475933 15.4998932,6.59079212 C18.083498,6.93044553 20,9.0619994 20,11.7053961 C20,14.5180595 17.7496128,16.82 15,16.82 L4.16747663,16.82 C1.83348465,16.82 0,14.9438622 0,12.5563187 C0,10.3406367 1.74985314,8.46509984 3.83359147,8.29460394 C4.41711616,5.39641943 6.91711617,3.18 10,3.18 Z M10,5.6 C9.17157288,5.6 8.5,6.27157288 8.5,7.1 C8.5,7.44068195 8.61357501,7.75483704 8.80492739,8.00666763 L6.05815908,11.6072852 C5.8856326,11.5380782 5.69726312,11.5 5.5,11.5 C4.67157288,11.5 4,12.1715729 4,13 C4,13.8284271 4.67157288,14.5 5.5,14.5 C6.19011706,14.5 6.77138293,14.0339526 6.94623712,13.3994184 L13.0537629,13.3994184 C13.2286171,14.0339526 13.8098829,14.5 14.5,14.5 C15.3284271,14.5 16,13.8284271 16,13 C16,12.1715729 15.3284271,11.5 14.5,11.5 C14.3027369,11.5 14.1143674,11.5380782 13.9418409,11.6072852 L11.1950726,8.00666763 C11.386425,7.75483704 11.5,7.44068195 11.5,7.1 C11.5,6.27157288 10.8284271,5.6 10,5.6 Z M10.5581591,8.49271478 L13.3049274,12.0933324 C13.1914615,12.2426599 13.105343,12.4139014 13.0540356,12.5995934 L6.94596444,12.5995934 C6.89465697,12.4139014 6.80853849,12.2426599 6.69507261,12.0933324 L9.44184092,8.49271478 C9.6143674,8.56192181 9.80273688,8.6 10,8.6 C10.1972631,8.6 10.3856326,8.56192181 10.5581591,8.49271478 Z" id="形状结合" fill="#57689C"></path>
        </g>
    </g>
</svg>