<?xml version="1.0" encoding="UTF-8"?>
<svg width="20px" height="20px" viewBox="0 0 20 20" version="1.1" xmlns="http://www.w3.org/2000/svg" xmlns:xlink="http://www.w3.org/1999/xlink">
    <title>ucloud-mysql-second-menu</title>
    <g id="ucloud-mysql-second-menu" stroke="none" stroke-width="1" fill="none" fill-rule="evenodd">
        <rect id="矩形" fill-opacity="0" fill="#D8D8D8" x="0" y="0" width="20" height="20"></rect>
        <g id="图形备份" transform="translate(2.000000, 2.000000)">
            <rect id="矩形备份-5" opacity="0.446149554" x="0" y="0" width="16" height="16"></rect>
            <path d="M15.2857143,11.0257143 L15.2857143,12.9403429 L15.2740571,13.0230857 C15.1891429,13.6244571 14.5874286,14.3737143 13.2444571,15.0020571 C11.9483429,15.6084571 10.1548343,16 8.14285714,16 C6.13088,16 4.33736,15.6084571 3.04121143,15.0020571 C1.69830857,14.3737143 1.09657143,13.6244571 1.01168,13.0230857 L1,12.9403429 L1,11.0257143 C1.27803429,11.3577143 1.63908571,11.6488 2.10304,11.8808 C3.69305143,12.6757714 5.82964571,13.1428571 8.14285714,13.1428571 C10.4561143,13.1428571 12.5926857,12.6757714 14.1826286,11.8808 C14.6466286,11.6488 15.0076571,11.3577143 15.2857143,11.0257143 Z M15.2857143,5.88284571 L15.2857143,8.28570286 L15.2805665,8.38809637 C15.2257894,8.97689612 14.6972063,9.70686413 13.416,10.3475429 C12.1107429,11.0001143 10.2476343,11.4285714 8.14285714,11.4285714 C6.03808,11.4285714 4.17493714,11.0001143 2.86969143,10.3475429 C1.51309714,9.66917714 1.00035429,8.89070857 1.00035429,8.28570286 L1,5.88284571 C1.27803429,6.21485714 1.63908571,6.50595429 2.10304,6.73793143 C3.69305143,7.53293714 5.82964571,7.99994286 8.14285714,7.99998857 C10.4561143,7.99994286 12.5926857,7.53293714 14.1826286,6.73793143 C14.6466286,6.50595429 15.0076571,6.21485714 15.2857143,5.88284571 Z M8.14250286,0 C10.24728,0 12.1104,0.428457143 13.4156571,1.08108571 C14.7722286,1.75938286 15.2850286,2.53785143 15.2850286,3.14285714 C15.2850286,3.74786286 14.7722286,4.52633143 13.4156571,5.20462857 C12.1104,5.85725714 10.24728,6.28571429 8.14250286,6.28571429 C6.03772571,6.28571429 4.17458286,5.85725714 2.86933714,5.20462857 C1.51274286,4.52633143 1,3.74786286 1,3.14285714 C1,2.53785143 1.51274286,1.75938286 2.86933714,1.08108571 C4.17458286,0.428457143 6.03772571,0 8.14250286,0 Z" id="形状结合" fill="#57689C"></path>
        </g>
    </g>
</svg>