<?xml version="1.0" encoding="UTF-8"?>
<svg width="20px" height="20px" viewBox="0 0 20 20" version="1.1" xmlns="http://www.w3.org/2000/svg" xmlns:xlink="http://www.w3.org/1999/xlink">
    <title>ucloud-eip-second-menu</title>
    <g id="ucloud-eip-second-menu" stroke="none" stroke-width="1" fill="none" fill-rule="evenodd">
        <g id="编组">
            <rect id="矩形" fill-opacity="0" fill="#D8D8D8" x="0" y="0" width="20" height="20"></rect>
            <path d="M17,4 C17.5522847,4 18,4.44771525 18,5 L18,15 C18,15.5522847 17.5522847,16 17,16 L3,16 C2.44771525,16 2,15.5522847 2,15 L2,5 C2,4.44771525 2.44771525,4 3,4 L17,4 Z M8.572,7.248 L7.356,7.248 L7.356,12.8 L8.572,12.8 L8.572,7.248 Z M11.7,7.248 L9.804,7.248 L9.804,12.8 L11.02,12.8 L11.02,11.088 L11.7,11.088 C13.268,11.088 13.884,10.584 13.884,9.136 C13.884,7.8 13.364,7.248 11.7,7.248 Z M11.54,8.208 C12.356,8.208 12.644,8.448 12.644,9.16 C12.644,9.896 12.364,10.112 11.54,10.112 L11.02,10.112 L11.02,8.208 L11.54,8.208 Z" id="形状结合" fill="#57689C"></path>
        </g>
    </g>
</svg>