<?xml version="1.0" encoding="UTF-8"?>
<svg width="20px" height="20px" viewBox="0 0 20 20" version="1.1" xmlns="http://www.w3.org/2000/svg" xmlns:xlink="http://www.w3.org/1999/xlink">
    <title>ucloud-k8s-second-menu</title>
    <g id="ucloud-k8s-second-menu" stroke="none" stroke-width="1" fill="none" fill-rule="evenodd">
        <rect id="矩形" fill-opacity="0" fill="#D8D8D8" x="0" y="0" width="20" height="20"></rect>
        <path d="M10.5302257,2.10420175 L16.78558,5.49925585 C17.1078657,5.67417436 17.3085652,6.01145703 17.3085652,6.37815109 L17.3085652,13.6196581 C17.3085652,13.9875079 17.1066104,14.3256589 16.7827453,14.500086 L10.4749555,17.8973301 C10.1789937,18.056729 9.82274668,18.0567615 9.52675582,17.8974166 L3.21598044,14.5000487 C2.89202589,14.3256498 2.69,13.9874496 2.69,13.6195344 L2.69,6.38261963 C2.69,6.01356271 2.89326991,5.67450653 3.21878487,5.50060132 L9.58199577,2.10107867 C9.8785048,1.94266978 10.2347666,1.94384316 10.5302257,2.10420175 Z M9.99928258,7.66755474 L8.00651977,8.82466608 L9.99928258,9.99999654 L12.0800334,8.77186726 L9.99928258,7.66755474 Z M10.5891507,3.54181419 C10.2569055,3.36149015 9.85628727,3.36017068 9.52286139,3.53830227 L4.33979796,6.30694364 C4.30742291,6.32423745 4.28043125,6.350107 4.26177916,6.38171901 C4.20564834,6.47685086 4.23726492,6.59947348 4.33239677,6.6556043 L5.28423242,7.21721766 C5.43446561,7.30586003 5.62003546,7.30979987 5.77389552,7.22761372 L9.52286139,5.22505979 C9.85628727,5.0469282 10.2569055,5.04824767 10.5891507,5.22857171 L14.3876825,7.29013187 C14.4494906,7.32367672 14.5243748,7.32229494 14.5849034,7.28649272 L15.6708039,6.64418973 C15.7019448,6.62577013 15.7275058,6.59924806 15.744764,6.56744887 C15.7974522,6.470368 15.7614648,6.34895621 15.6643839,6.29626803 Z" id="形状结合" fill="#57689C"></path>
    </g>
</svg>