<?xml version="1.0" encoding="UTF-8"?>
<svg width="20px" height="20px" viewBox="0 0 20 20" version="1.1" xmlns="http://www.w3.org/2000/svg" xmlns:xlink="http://www.w3.org/1999/xlink">
    <title>ucloud-domain-name-certificate-second-menu</title>
    <g id="ucloud-domain-name-certificate-second-menu" stroke="none" stroke-width="1" fill="none" fill-rule="evenodd">
        <g id="配置中心" transform="translate(3.000000, 2.000000)" fill-rule="nonzero">
            <rect id="矩形" fill="#000000" opacity="0" x="0" y="0" width="14" height="16"></rect>
            <path d="M13.2631688,0 C13.6684208,0 14,0.37894768 14,0.842092798 L14,15.1579072 C14,15.6210523 13.6684208,16 13.2631688,16 L0.736831198,16 C0.33157922,16 0,15.6210523 0,15.1579072 L0,0.842092798 C0,0.37894768 0.33157922,0 0.736831198,0 Z M6,12.6 L3,12.6 L3,13.7 L6,13.7 L6,12.6 Z M11,10 L3,10 L3,11.1 L11,11.1 L11,10 Z M6.83183594,2.50449219 L6.16679688,3.85273437 L4.67910156,4.06894531 C4.63808594,4.07480469 4.60058594,4.09414062 4.571875,4.1234375 C4.49980469,4.19785156 4.50097656,4.31621094 4.57539063,4.38886719 L5.65175781,5.43828125 L5.39746094,6.92011719 C5.39042969,6.96054687 5.396875,7.00273437 5.41621094,7.0390625 C5.46425781,7.13046875 5.57792969,7.16621094 5.66933594,7.11757812 L7,6.41796875 L8.33066406,7.11757812 C8.36699219,7.13691406 8.40917969,7.14335937 8.44960938,7.13632812 C8.5515625,7.11875 8.62011719,7.02207031 8.60253906,6.92011719 L8.34824219,5.43828125 L9.42460938,4.38886719 C9.45390625,4.36015625 9.47324219,4.32265625 9.47910156,4.28164062 C9.49492188,4.17910156 9.4234375,4.08417969 9.32089844,4.06894531 L7.83320313,3.85273437 L7.16816406,2.50449219 C7.15,2.46757812 7.12011719,2.43769531 7.08320313,2.41953125 C6.990625,2.37382812 6.878125,2.41191406 6.83183594,2.50449219 Z" id="形状结合" fill="#57689C"></path>
        </g>
    </g>
</svg>