<?xml version="1.0" encoding="UTF-8"?>
<svg width="20px" height="20px" viewBox="0 0 20 20" version="1.1" xmlns="http://www.w3.org/2000/svg" xmlns:xlink="http://www.w3.org/1999/xlink">
    <title>ucloud-subnet-second-menu</title>
    <g id="ucloud-subnet-second-menu" stroke="none" stroke-width="1" fill="none" fill-rule="evenodd">
        <g id="图形" fill="#000000" fill-rule="nonzero" opacity="0">
            <rect id="矩形" x="0" y="0" width="20" height="20"></rect>
        </g>
        <path d="M13.1019832,14.6310242 L13.1798398,14.6422928 C13.2193971,14.647995 13.2587373,14.653795 13.2978475,14.6596914 L13.5296461,14.6962136 C13.5677851,14.7024891 13.6056685,14.7088578 13.6432837,14.7153182 L13.865652,14.7551671 C13.9021426,14.7619876 13.9383393,14.7688966 13.9742294,14.7758925 L14.1857874,14.8188978 L14.3893719,14.8639128 C14.5887651,14.9099073 14.775278,14.9588027 14.9461505,15.0102581 L15.1117074,15.0625542 C15.3786056,15.1510947 15.5995027,15.2464309 15.7616209,15.3469852 C15.8026457,15.3724309 15.84631,15.3900619 15.890874,15.4002858 C14.6716749,16.7209867 13.0115897,17.6323251 11.1436912,17.899325 C11.9519532,17.3382463 12.6209961,16.2040604 13.0776632,14.7168118 L13.1019832,14.6310242 Z M6.86298324,14.6690242 L6.87783047,14.7168118 C7.332408,16.1972552 7.99742219,17.3278595 8.80037423,17.8907748 C6.96097518,17.6149298 5.32624893,16.7133501 4.11959851,15.4097779 C4.19891026,15.4147882 4.28035564,15.3971138 4.35442766,15.3547434 C4.66082918,15.1794767 5.14888225,15.0180478 5.74409618,14.8805288 L5.95849998,14.8330019 C6.03137024,14.8175014 6.10560241,14.8023483 6.18107517,14.7875589 L6.41109399,14.7442984 C6.45001033,14.7372756 6.4892065,14.7303479 6.52866733,14.7235173 L6.76848701,14.6837148 L6.86298324,14.6690242 Z M10.0053846,14.4229083 L10.261105,14.4234608 C10.3038955,14.4238235 10.3467626,14.4243203 10.3896935,14.4249498 L10.6479438,14.4303059 L10.907114,14.4387696 C10.9503516,14.440435 10.993602,14.4422267 11.0368524,14.4441432 L11.2962524,14.4571264 L11.555039,14.473028 L11.8125988,14.4917721 C11.8553891,14.4951289 11.8981027,14.4986009 11.9407269,14.5021866 L12.1952965,14.5250527 L12.2408538,14.529982 C12.2094589,14.6308674 12.1771316,14.7296802 12.1439187,14.8263294 L12.0806181,15.0049887 C12.0591796,15.0636818 12.0374066,15.1215075 12.0153106,15.1784435 L11.9480647,15.3465605 C11.925334,15.401695 11.9022916,15.4559176 11.8789491,15.5092062 L11.8080325,15.6662472 C11.293507,16.7713062 10.6455136,17.4342989 9.97774684,17.4342989 C9.37209794,17.4342989 8.78271473,16.8889166 8.29442299,15.9629819 L8.22011019,15.8175503 C8.08537421,15.5455027 7.95902641,15.2438536 7.84297011,14.9163012 L7.78069876,14.7350897 L7.72298324,14.5550242 L7.77672987,14.5497732 L8.03739276,14.5230968 C8.08102223,14.5188913 8.12473443,14.5148076 8.16851418,14.5108476 L8.43188213,14.4885887 L8.69614374,14.4693979 L8.96057123,14.4533735 C9.31292836,14.4341623 9.66378711,14.4236574 10.0053846,14.4229083 Z M2.02058321,10.687008 L6.2312798,10.6861476 L6.24378603,10.9444087 L6.26040342,11.212158 C6.26653902,11.3009621 6.27326848,11.3893127 6.28058389,11.477186 L6.30428012,11.7393503 C6.30851985,11.7827978 6.31290409,11.8261201 6.31743187,11.8693142 L6.34631303,12.1269167 L6.36203063,12.2545197 L6.39599027,12.5072403 C6.41974413,12.6745924 6.44571566,12.8396564 6.47384178,13.0022426 L6.517639,13.24424 L6.5646208,13.4823785 L6.61473985,13.7165162 L6.64298324,13.8400242 L6.56953476,13.8524196 L6.31376189,13.8961965 C5.30262838,14.0769021 4.44064832,14.324161 3.93150931,14.6153969 C3.80741533,14.6863807 3.73257828,14.8103402 3.71918896,14.9424976 C2.7753848,13.752403 2.16268987,12.2873571 2.02058321,10.687008 Z M17.9794168,10.687008 C17.8422524,12.2316994 17.2666632,13.6503351 16.3779232,14.8176414 C16.3443795,14.7396389 16.2878052,14.671055 16.2105788,14.6231551 C15.9181878,14.4417987 15.4976667,14.279221 14.990416,14.1392059 L14.7829882,14.0844121 C14.3945837,13.9861958 13.9625064,13.9003844 13.5030835,13.82847 L13.3209832,13.8010242 L13.3662026,13.5999564 C13.3829096,13.5219085 13.3990976,13.443182 13.4147589,13.3638005 L13.4601543,13.1237148 C13.4674542,13.0833809 13.4746204,13.0428892 13.4816519,13.0022426 L13.5222173,12.7565287 C13.5416841,12.6327662 13.5599212,12.5076634 13.576902,12.3813001 L13.6091806,12.1269167 C13.6142786,12.0842472 13.619235,12.0414437 13.6240489,11.9985089 L13.6512136,11.7393503 L13.6854425,11.3450211 C13.6955337,11.2125041 13.7042976,11.07894 13.7117077,10.9444087 L13.7229832,10.6860242 Z M12.8709832,10.6860242 L12.861888,10.8725417 C12.8595891,10.9143567 12.8571522,10.9560605 12.8545787,10.9976502 L12.8375112,11.2457979 L12.8172355,11.4910751 L12.7938202,11.7333486 C12.7854995,11.813591 12.776667,11.8933105 12.7673341,11.9724849 L12.7378457,12.2083507 L12.7054237,12.4408126 C12.6997794,12.4792652 12.6940157,12.5175704 12.6881341,12.5557254 L12.6514404,12.7828314 C12.6450927,12.8203746 12.6386299,12.8577621 12.6320535,12.8949912 L12.5912425,13.1164411 L12.5806216,13.1711935 L12.5250618,13.4411916 L12.477732,13.6525479 L12.4669832,13.6940242 L12.3294346,13.680679 C12.2845945,13.6762995 12.2396389,13.6720449 12.1945799,13.6679164 L11.9230843,13.6446669 L11.6496977,13.6244967 L11.3750088,13.6074596 C11.3291515,13.6048841 11.2832644,13.6024415 11.2373599,13.6001328 L10.9618216,13.5878963 C10.9158964,13.5861276 10.8699782,13.5844952 10.8240793,13.583 L10.5490165,13.5756851 L10.2750065,13.5717186 L9.8661194,13.57193 L9.72885554,13.5736538 L9.4524468,13.5799062 C9.31370383,13.5839576 9.17424138,13.5893869 9.03445727,13.5961501 L8.75457804,13.6114419 L8.47454831,13.6302122 L8.33469801,13.6408774 L8.0557686,13.6647186 C7.96302244,13.6732171 7.87054589,13.6822627 7.77845681,13.6918424 L7.494,13.723 L7.48998553,13.7047249 L7.47776171,13.6525479 L7.43043184,13.4411916 C7.42275462,13.4056171 7.41518392,13.3698701 7.40772114,13.3339536 L7.36425114,13.1164411 C7.35722581,13.0798572 7.35031129,13.0431092 7.34350898,13.0062 L7.30405329,12.7828314 C7.2977056,12.7452881 7.291473,12.7075891 7.2853569,12.6697372 L7.25006996,12.4408126 L7.21764798,12.2083507 L7.1881596,11.9724849 C7.18349315,11.9328977 7.1789518,11.8931742 7.17453697,11.8533172 L7.1495777,11.6125957 C7.14177166,11.531836 7.13448316,11.4505646 7.12772364,11.3688036 L7.10904342,11.1220745 L7.09360568,10.8725417 L7.08398324,10.6860242 L12.8709832,10.6860242 Z M16.3506293,5.08513262 C17.3109252,6.33192511 17.9122745,7.86945292 17.9999956,9.54303461 L13.738,9.543 L13.7373522,9.4340196 L13.7247147,9.02400176 L13.7117077,8.75367322 C13.6968876,8.4846106 13.6766519,8.21941681 13.6512136,7.95873162 L13.6240489,7.69957299 C13.619235,7.65663827 13.6142786,7.6138347 13.6091806,7.57116526 L13.576902,7.31678182 C13.5655815,7.23253963 13.5537026,7.14885764 13.5412732,7.06575954 L13.5023415,6.8182406 C13.4888191,6.73633398 13.4747541,6.65503494 13.4601543,6.57436718 L13.4147589,6.33428145 C13.4051212,6.28543129 13.395284,6.23682918 13.3852491,6.18848062 L13.501555,6.1705588 C13.5446671,6.16349809 13.5875495,6.15631857 13.6301875,6.14902188 L13.882965,6.10384867 C14.0493713,6.0728132 14.2113961,6.03995516 14.3680969,6.00537909 L14.5990373,5.9522395 C15.2413874,5.79810052 15.7790607,5.61387327 16.1397008,5.40758117 C16.2417832,5.34918833 16.3105332,5.25494645 16.3391643,5.14978217 Z M3.60309925,5.14646481 C3.63719694,5.2136543 3.68955799,5.27264411 3.75826679,5.31526096 C4.15477783,5.56119819 4.7994232,5.78155433 5.5738754,5.9612876 L5.80998694,6.01397385 L5.93074149,6.03937476 L6.17720446,6.08823574 C6.21880247,6.09615982 6.26065104,6.10397295 6.30273538,6.11167324 L6.55795235,6.15650587 L6.57598324,6.15902421 L6.5646208,6.21570339 L6.517639,6.45384197 L6.47384178,6.69583932 C6.44571566,6.85842555 6.41974413,7.02348951 6.39599027,7.19084165 L6.36203063,7.44356228 L6.34631303,7.57116526 L6.31743187,7.8287677 C6.31290409,7.8719618 6.30851985,7.91528409 6.30428012,7.95873162 L6.28058389,8.22089598 C6.27326848,8.30876926 6.26653902,8.3971198 6.26040342,8.48592391 L6.24378603,8.75367322 L6.23077903,9.02400176 C6.22705035,9.11452535 6.22393129,9.20545511 6.22142974,9.29676735 L6.21598324,9.54302421 L2.00000439,9.54303461 C2.08331134,7.95366818 2.62985509,6.48700757 3.50714976,5.27553866 Z M7.42490572,6.28261299 L7.48552244,6.29079061 L7.75741691,6.32231983 L8.03106508,6.35064454 L8.305757,6.3756745 C8.35158652,6.37956659 8.39742995,6.38331763 8.44327249,6.38692575 L8.71819884,6.40684436 L8.99239401,6.42324259 C9.08359165,6.4281119 9.17454911,6.43237945 9.26514805,6.43603018 L9.53575098,6.4451169 C9.58063277,6.44631793 9.62539534,6.447361 9.67002392,6.44824422 L9.93606901,6.45161039 L10.204235,6.45105078 C10.29554,6.45021641 10.3873403,6.44875004 10.4795179,6.44666471 L10.7570651,6.43856493 C10.8034724,6.43690985 10.8499446,6.43510329 10.8964669,6.4331469 L11.1760852,6.41962354 L11.4562005,6.40258245 L11.736106,6.382102 L12.0150948,6.35826061 L12.2924598,6.33113664 C12.3385127,6.32634678 12.3844686,6.32142342 12.4303125,6.31636819 L12.5349832,6.30402421 L12.5698356,6.4723841 L12.6119847,6.69188198 L12.6320535,6.80309078 L12.6701368,7.02834473 C12.682369,7.10404856 12.6941351,7.18036418 12.7054237,7.25726934 L12.7378457,7.48973123 L12.7673341,7.72559702 C12.776667,7.80477145 12.7854995,7.88449097 12.7938202,7.96473334 L12.8172355,8.20700681 L12.8375112,8.45228406 L12.8545787,8.70043169 C12.8571522,8.74202142 12.8595891,8.78372519 12.861888,8.82554022 L12.8740146,9.07774337 C12.8803493,9.23143545 12.8848204,9.38652639 12.8873591,9.54288241 L7.06812627,9.54339583 C7.06857338,9.515812 7.06908064,9.48826754 7.06964766,9.46076317 L7.07667889,9.20480463 C7.08105374,9.0774318 7.08670888,8.95098533 7.09360568,8.82554022 L7.10904342,8.57600741 L7.12772364,8.3292783 L7.1495777,8.08548627 L7.17453697,7.8447647 C7.1789518,7.80490772 7.18349315,7.76518424 7.1881596,7.72559702 L7.21764798,7.48973123 L7.25006996,7.25726934 L7.2853569,7.02834473 C7.291473,6.99049281 7.2977056,6.95279383 7.30405329,6.91525058 L7.34350898,6.69188198 C7.35031129,6.65497274 7.35722581,6.61822477 7.36425114,6.58164087 L7.40772114,6.36412837 C7.41338732,6.33685839 7.41911572,6.3096862 7.42490572,6.28261299 Z M9.97774684,2.26378306 C10.5678663,2.26378306 11.1425435,2.78155561 11.6233118,3.66462767 L11.6984308,3.8070736 C11.7355886,3.8797922 11.7721354,3.95473758 11.8080325,4.03183472 L11.8789491,4.18887577 C11.9489767,4.34874138 12.0163026,4.51701393 12.0806181,4.69309325 L12.1439187,4.87175258 C12.1750558,4.96236115 12.2054146,5.05487139 12.2349563,5.14920827 L12.2929392,5.34029534 L12.3289832,5.46802421 L12.1644424,5.48690199 L11.9026959,5.51213047 L11.639328,5.53438932 L11.3750664,5.55358014 L11.1106389,5.56960454 C10.7582818,5.58881572 10.407423,5.59932069 10.0658255,5.6000698 L9.94241138,5.59985931 C9.90109964,5.59963278 9.85961923,5.59925064 9.81798532,5.59871516 L9.56646093,5.59368054 L9.31197926,5.5850752 L9.05526724,5.57300841 L8.79705178,5.55758945 L8.53805981,5.53892758 L8.40849979,5.52841469 L8.14970601,5.50509334 C8.0635745,5.49681852 7.97761645,5.48804875 7.89195302,5.47880224 L7.63195449,5.4491693 L7.621,5.483 L7.63440147,5.43762384 L7.66255448,5.34029534 L7.72053734,5.14920827 C7.74023186,5.08631702 7.76028948,5.0242376 7.78069876,4.96299226 L7.84297011,4.78178069 L7.90728275,4.60570693 L7.97356804,4.43490437 L8.04175734,4.26950638 C8.57166528,3.02251347 9.26339172,2.26378306 9.97774684,2.26378306 Z M11.5097098,2.10011153 C13.2615689,2.43419344 14.8110841,3.33878513 15.9575622,4.6131933 C15.8757252,4.60745815 15.7924106,4.62497415 15.7167824,4.6682347 C15.3202628,4.89505044 14.619524,5.09869136 13.7760105,5.25732836 L13.5425428,5.2994608 C13.5030819,5.30629144 13.4633564,5.31302499 13.4233814,5.31965942 L13.1859832,5.35702421 L13.1413144,5.19564409 C12.7543115,3.8471762 12.1974802,2.76821389 11.5221112,2.11287919 Z M8.4346081,2.11169048 C7.92153386,2.60904981 7.47682509,3.3508499 7.12295568,4.26955939 L7.04944191,4.46657126 L6.97868688,4.66872145 L6.89419465,4.92841837 C6.86677159,5.01625423 6.84009467,5.1053449 6.8141793,5.19564409 L6.77698324,5.32802421 L6.5846462,5.29638405 L6.52539958,5.28600009 L6.29213027,5.24306912 L6.06535361,5.19798792 C6.02813894,5.19030128 5.99122509,5.18252959 5.9546272,5.17467514 L5.73895251,5.12657349 L5.53158778,5.07659479 C4.95651335,4.93243251 4.49025795,4.76698318 4.20722468,4.5914309 C4.17391132,4.57076818 4.13885748,4.55525848 4.10299472,4.54468346 C5.2002628,3.35392952 6.65490073,2.49492439 8.29709722,2.13943613 Z" id="形状结合" fill="#57689C" fill-rule="nonzero"></path>
    </g>
</svg>