<?xml version="1.0" encoding="UTF-8"?>
<svg width="20px" height="20px" viewBox="0 0 20 20" version="1.1" xmlns="http://www.w3.org/2000/svg" xmlns:xlink="http://www.w3.org/1999/xlink">
    <title>ucloud-snapshot-second-menu</title>
    <g id="ucloud-snapshot-second-menu" stroke="none" stroke-width="1" fill="none" fill-rule="evenodd">
        <g id="node" transform="translate(2.000000, 2.000000)">
            <rect id="矩形" fill="#D8D8D8" opacity="0" x="0" y="0" width="16" height="16"></rect>
            <g id="图形" transform="translate(0.500051, 1.000000)" fill="#57689C">
                <path d="M10.4699488,4.5 C11.2983759,4.5 11.9699488,5.17157288 11.9699488,6 C11.9699488,6.37391677 11.8331336,6.71587863 11.6068326,6.9785561 L14.2055797,11.5232224 C14.2914001,11.5079623 14.3797446,11.5 14.4699488,11.5 C15.2983759,11.5 15.9699488,12.1715729 15.9699488,13 C15.9699488,13.8284271 15.2983759,14.5 14.4699488,14.5 C13.8171021,14.5 13.2616668,14.0829319 13.0555503,13.500703 L7.88434726,13.500703 C7.67823071,14.0829319 7.12279547,14.5 6.46994877,14.5 C5.64152165,14.5 4.96994877,13.8284271 4.96994877,13 C4.96994877,12.1715729 5.64152165,11.5 6.46994877,11.5 C6.56188103,11.5 6.65188165,11.5082703 6.73924724,11.5241074 L9.33391612,6.97954324 C9.1071071,6.71673563 8.96994877,6.37438534 8.96994877,6 C8.96994877,5.17157288 9.64152165,4.5 10.4699488,4.5 Z M7.551,8 L5.76325049,11.1295745 C5.00901572,11.4159117 4.47294877,12.1453533 4.47294877,13 C4.47294877,13.1372812 4.48678023,13.2713319 4.51312561,13.4008346 C4.40564635,13.6085546 4.3032593,13.8084557 4.20667063,14.0010232 L0.5,14 C0.223857625,14 0,13.7761424 0,13.5 L0,8.5 C0,8.22385763 0.223857625,8 0.5,8 L7.551,8 Z M10.7372761,7.47624851 C10.6505282,7.49185361 10.5611898,7.5 10.4699488,7.5 C10.3790533,7.5 10.2900462,7.49191521 10.2036073,7.47642552 L7.60768294,12.0224318 C7.72754216,12.161801 7.82223196,12.323439 7.88469925,12.5002925 L13.0551983,12.5002925 C13.1181085,12.3221849 13.2136999,12.1595095 13.3347681,12.0194704 L10.7372761,7.47624851 Z M2.47294877,10 C1.92066402,10 1.47294877,10.4477153 1.47294877,11 C1.47294877,11.5522847 1.92066402,12 2.47294877,12 C3.02523352,12 3.47294877,11.5522847 3.47294877,11 C3.47294877,10.4477153 3.02523352,10 2.47294877,10 Z M12.029412,0 C12.3055544,0 12.529412,0.223857625 12.529412,0.5 L12.529412,5.5 C12.529412,5.59419178 12.5033666,5.68230032 12.4580847,5.75751654 C12.3385356,4.76713293 11.4953289,4 10.4729488,4 C9.36837927,4 8.47294877,4.8954305 8.47294877,6 L0.5,6 C0.223857625,6 0,5.77614237 0,5.5 L0,0.5 C0,0.223857625 0.223857625,0 0.5,0 L12.029412,0 Z M2.47294877,2 C1.92066402,2 1.47294877,2.44771525 1.47294877,3 C1.47294877,3.55228475 1.92066402,4 2.47294877,4 C3.02523352,4 3.47294877,3.55228475 3.47294877,3 C3.47294877,2.44771525 3.02523352,2 2.47294877,2 Z" id="形状"></path>
            </g>
        </g>
    </g>
</svg>