<?xml version="1.0" encoding="UTF-8"?>
<svg width="20px" height="20px" viewBox="0 0 20 20" version="1.1" xmlns="http://www.w3.org/2000/svg" xmlns:xlink="http://www.w3.org/1999/xlink">
    <title>ucloud-elasticsearch-second-menu</title>
    <g id="ucloud-elasticsearch-second-menu" stroke="none" stroke-width="1" fill="none" fill-rule="evenodd">
        <g id="编组">
            <rect id="矩形" fill-opacity="0" fill="#D8D8D8" x="0" y="0" width="20" height="20"></rect>
            <g id="编组-2" transform="translate(1.314173, 1.452645)" fill="#57689C" fill-rule="nonzero">
                <path d="M15.5967812,6.52708231 L17.663692,10.185509 L15.528857,13.8831517 L11.3271112,13.9223677 L9.26020031,10.263941 L11.3950353,6.56629834 L15.5967812,6.52708231 Z M14.7164667,8.05183169 L12.2472105,8.07497758 L10.9929949,10.2473427 L12.2075781,12.3973542 L14.6765758,12.3740591 L15.9307914,10.201694 L14.7164667,8.05183169 Z M8.14703255,1.20094295 L10.8044894,5.90463439 L8.05970149,10.6587464 L2.65745681,10.709167 L0,6.00547561 L2.74478787,1.25136356 L8.14703255,1.20094295 Z M7.26671809,2.72569233 L3.59698932,2.76005796 L1.73282089,5.98889239 L3.53792376,9.18415355 L7.20739402,9.14963866 L9.07156245,5.92080423 L7.26671809,2.72569233 Z" id="形状"></path>
                <path d="M15.1393165,0 L16.7633179,2.8744781 L15.0859476,5.7797688 L11.7845758,5.81058139 L10.1605744,2.93610329 L11.8379448,0.0308125955 L15.1393165,0 Z M14.2590021,1.52474938 L12.6901003,1.53948046 L11.8933493,2.91949354 L12.6650428,4.28556789 L14.2336861,4.27068757 L15.030437,2.89067449 L14.2590021,1.52474938 Z M8.87065982,11.2841279 L10.4946612,14.158606 L8.81729084,17.0638967 L5.51591909,17.0947093 L3.89191771,14.2202312 L5.56928807,11.3149405 L8.87065982,11.2841279 Z M7.99034536,12.8088773 L6.42144355,12.8236084 L5.62469263,14.2036214 L6.39638605,15.5696958 L7.96502934,15.5548155 L8.76178026,14.1748024 L7.99034536,12.8088773 Z" id="形状" opacity="0.550000012"></path>
            </g>
        </g>
    </g>
</svg>