<?xml version="1.0" encoding="UTF-8"?>
<svg width="20px" height="20px" viewBox="0 0 20 20" version="1.1" xmlns="http://www.w3.org/2000/svg" xmlns:xlink="http://www.w3.org/1999/xlink">
    <title>unsolved-bug-distribution-second-menu</title>
    <g id="unsolved-bug-distribution-second-menu" stroke="none" stroke-width="1" fill="none" fill-rule="evenodd">
        <g id="bug-fill" transform="translate(2.000000, 2.000000)" fill="#57689C" fill-rule="nonzero">
            <path d="M15.4925473,8.0331727 L12.8387314,8.0331727 L12.8387314,6.24005379 C14.2158467,6.24005379 15.3311666,5.12473383 15.3311666,3.74761851 C15.3311666,3.66872128 15.2666144,3.604169 15.1877171,3.604169 L14.1118458,3.604169 C14.0329486,3.604169 13.9683963,3.66872128 13.9683963,3.74761851 C13.9683963,4.37162389 13.4627367,4.87728342 12.8387314,4.87728342 L2.79726549,4.87728342 C2.17326011,4.87728342 1.66760058,4.37162389 1.66760058,3.74761851 C1.66760058,3.66872128 1.6030483,3.604169 1.52415107,3.604169 L0.448279727,3.604169 C0.369382495,3.604169 0.304830214,3.66872128 0.304830214,3.74761851 C0.304830214,5.12473383 1.42015017,6.24005379 2.79726549,6.24005379 L2.79726549,8.0331727 L0.143449512,8.0331727 C0.0645522806,8.0331727 0,8.09772498 0,8.17662221 L0,9.1807688 C0,9.25966603 0.0645522806,9.32421831 0.143449512,9.32421831 L2.79726549,9.32421831 L2.79726549,11.0456125 C2.79726549,11.1621652 2.80085173,11.2787179 2.80981733,11.3916844 C1.57973776,11.9170683 0.717247562,13.1381822 0.717247562,14.5601255 C0.717247562,14.6390228 0.781799843,14.703575 0.860697075,14.703575 L1.86484366,14.703575 C1.94374089,14.703575 2.00829317,14.6390228 2.00829317,14.5601255 C2.00829317,13.767567 2.43684859,13.0736299 3.07699204,12.7006612 C3.18457918,13.0090777 3.32085621,13.3031492 3.48403003,13.5792895 C3.91975793,14.3234338 4.54197019,14.9456461 5.28611454,15.381374 C5.8043259,15.6844111 6.37991707,15.8977922 6.99495685,16 C7.07385408,16 7.13840637,15.9354477 7.13840637,15.8565505 L7.13840637,7.53109941 C7.13840637,7.45220217 7.20295865,7.38764989 7.28185588,7.38764989 L8.35772722,7.38764989 C8.43662445,7.38764989 8.50117673,7.45220217 8.50117673,7.53109941 L8.50117673,15.8547574 C8.50117673,15.9336546 8.56572901,15.9982069 8.64462625,15.9982069 C9.25966603,15.8959991 9.8352572,15.682618 10.3534686,15.3795809 C11.0976129,14.943853 11.7198252,14.3216407 12.1555531,13.5774964 C12.3187269,13.2995629 12.4550039,13.0054914 12.5625911,12.6988681 C13.1991483,13.0736299 13.6277037,13.767567 13.6277037,14.5601255 C13.6277037,14.6390228 13.692256,14.703575 13.7711532,14.703575 L14.7752998,14.703575 C14.854197,14.703575 14.9187493,14.6390228 14.9187493,14.5601255 C14.9187493,13.1381822 14.0562591,11.9170683 12.8261795,11.3916844 C12.833352,11.2769248 12.8387314,11.1621652 12.8387314,11.0456125 L12.8387314,9.32421831 L15.4925473,9.32421831 C15.5714446,9.32421831 15.6359969,9.25966603 15.6359969,9.1807688 L15.6359969,8.17662221 C15.6359969,8.09772498 15.5714446,8.0331727 15.4925473,8.0331727 Z" id="路径"></path>
            <path d="M4.08831111,3.87313684 L11.5476858,3.87313684 C11.626583,3.87313684 11.6911353,3.80858456 11.6911353,3.72968732 C11.6911353,3.01243976 11.5333408,2.35436512 11.2267175,1.79132579 C10.918301,1.22649333 10.4646419,0.772834249 9.89980948,0.464417797 C9.33677014,0.157794464 8.67869551,0 7.96144794,0 L7.67454892,0 C6.95730136,0 6.29922672,0.157794464 5.73618738,0.464417797 C5.17135493,0.772834249 4.71769584,1.22649333 4.40927939,1.79132579 C4.10265606,2.35436512 3.94486159,3.01243976 3.94486159,3.72968732 C3.94486159,3.80858456 4.00941387,3.87313684 4.08831111,3.87313684 Z" id="路径" opacity="0.55"></path>
        </g>
    </g>
</svg>