<?xml version="1.0" encoding="UTF-8"?>
<svg width="20px" height="20px" viewBox="0 0 20 20" version="1.1" xmlns="http://www.w3.org/2000/svg" xmlns:xlink="http://www.w3.org/1999/xlink">
    <title>use-case-second-menu</title>
    <g id="use-case-second-menu" stroke="none" stroke-width="1" fill="none" fill-rule="evenodd">
        <path d="M17,2 C17.5522847,2 18,2.44771525 18,3 L18,17 C18,17.5522847 17.5522847,18 17,18 L3,18 C2.44771525,18 2,17.5522847 2,17 L2,3 C2,2.44771525 2.44771525,2 3,2 L17,2 Z M7,10.4 C5.56405965,10.4 4.4,11.5640597 4.4,13 C4.4,14.4359403 5.56405965,15.6 7,15.6 C8.43594035,15.6 9.6,14.4359403 9.6,13 C9.6,11.5640597 8.43594035,10.4 7,10.4 Z M7,11.6 C7.77319865,11.6 8.4,12.2268014 8.4,13 C8.4,13.7731986 7.77319865,14.4 7,14.4 C6.22680135,14.4 5.6,13.7731986 5.6,13 C5.6,12.2268014 6.22680135,11.6 7,11.6 Z M15.5,12.4 L11.5,12.4 L11.5,13.6 L15.5,13.6 L15.5,12.4 Z M8.57573593,5.07573593 L6.5,7.151 L5.42426407,6.07573593 L4.57573593,6.92426407 L6.5,8.84852814 L9.42426407,5.92426407 L8.57573593,5.07573593 Z M15.5,6.9 L11.5,6.9 L11.5,8.1 L15.5,8.1 L15.5,6.9 Z" id="形状结合" fill="#57689C" fill-rule="nonzero"></path>
    </g>
</svg>