<?xml version="1.0" encoding="UTF-8"?>
<svg width="20px" height="20px" viewBox="0 0 20 20" version="1.1" xmlns="http://www.w3.org/2000/svg" xmlns:xlink="http://www.w3.org/1999/xlink">
    <title>User Info-second menu-normal</title>
    <g id="User-Info-second-menu-normal" stroke="none" stroke-width="1" fill="none" fill-rule="evenodd">
        <rect id="矩形" fill-opacity="0" fill="#D8D8D8" x="0" y="0" width="20" height="20"></rect>
        <g id="图形" transform="translate(2.000000, 2.000000)">
            <path d="M10.1270721,3.6298717 C10.1270721,5.6345848 8.50196288,7.2597277 6.49723856,7.2597277 C4.49252546,7.2597277 2.86738257,5.6345848 2.86738257,3.6298717 C2.86738257,1.62514738 4.49252546,0 6.49723856,0 C8.50196288,0 10.1270721,1.62514738 10.1270721,3.6298717 Z M8.18953205,8.64496374 C7.66669754,8.53021544 7.10253614,8.46968344 6.49707029,8.46968344 C2.75021119,8.46968344 0.175458493,10.8576574 0.00312850566,13.923969 C-0.0531182431,14.9248336 0.654890792,15.7293842 1.65724734,15.7293842 L8.31178515,15.7293842 C7.93204668,15.2239039 7.70702603,14.5954749 7.70702603,13.9144338 L7.70702603,10.2846451 C7.70702603,9.68028982 7.88423582,9.11737361 8.18953205,8.64496374 Z" id="形状" fill="#9FAECF"></path>
            <path d="M8.9515779,10.4431546 C8.9515779,9.46996467 9.74049071,8.68105185 10.7136582,8.68105185 L14.2378861,8.68105185 C15.2110423,8.68105185 16,9.46996467 16,10.4431546 L16,13.9673825 C16,14.9405387 15.2110423,15.7293842 14.2378861,15.7293842 L10.7136582,15.7293842 C9.74049071,15.7293842 8.9515779,14.9405387 8.9515779,13.9673825 L8.9515779,10.4431546 Z M10.4199725,11.0305259 L10.4199725,10.4431546 L14.5315717,10.4431546 L14.5315717,11.0305259 L14.5315717,11.6178972 L10.4199725,11.6178972 L10.4199725,11.0305259 Z M10.4199725,12.7926398 L10.4199725,13.3800111 L10.4199725,13.9673825 L14.5315717,13.9673825 L14.5315717,13.3800111 L14.5315717,12.7926398 L10.4199725,12.7926398 Z" id="形状" fill="#57689C"></path>
        </g>
    </g>
</svg>