<?xml version="1.0" encoding="UTF-8"?>
<svg width="20px" height="20px" viewBox="0 0 20 20" version="1.1" xmlns="http://www.w3.org/2000/svg" xmlns:xlink="http://www.w3.org/1999/xlink">
    <title>user-role-second-menu</title>
    <g id="user-role-second-menu" stroke="none" stroke-width="1" fill="none" fill-rule="evenodd">
        <rect id="矩形" fill-opacity="0" fill="#D8D8D8" x="0" y="0" width="20" height="20"></rect>
        <g id="用户角色" transform="translate(2.000000, 2.000000)">
            <rect id="矩形" fill-opacity="0" fill="#D8D8D8" x="0" y="0" width="16" height="16"></rect>
            <path d="M11.6096896,3.9298717 C11.6096896,5.9345848 9.98458031,7.5597277 7.979856,7.5597277 C5.9751429,7.5597277 4.35,5.9345848 4.35,3.9298717 C4.35,1.92514738 5.9751429,0.3 7.979856,0.3 C9.98458031,0.3 11.6096896,1.92514738 11.6096896,3.9298717 Z M11.1682432,8.69747036 C13.5201132,9.49897028 15.0284971,11.4321026 15.1590062,13.7542856 C15.215253,14.7551502 14.5072439,15.5597008 13.5048874,15.5597008 L2.50759693,15.5597008 C1.50524038,15.5597008 0.797231345,14.7551502 0.853478094,13.7542856 C0.983857381,11.4344135 2.48937034,9.50281825 4.83722214,8.6998666 L8.00198052,11.863961 Z" id="形状结合" fill="#57689C"></path>
        </g>
    </g>
</svg>