<?xml version="1.0" encoding="UTF-8"?>
<svg width="20px" height="20px" viewBox="0 0 20 20" version="1.1" xmlns="http://www.w3.org/2000/svg" xmlns:xlink="http://www.w3.org/1999/xlink">
    <title>user-table-second-menu</title>
    <g id="user-table-second-menu" stroke="none" stroke-width="1" fill="none" fill-rule="evenodd">
        <rect id="矩形" fill-opacity="0" fill="#D8D8D8" x="-4.54747351e-13" y="0" width="20" height="20"></rect>
        <g id="用户角色" transform="translate(1.850350, 2.000000)">
            <rect id="矩形" fill-opacity="0" fill="#D8D8D8" x="0.149650412" y="0" width="16" height="16"></rect>
            <path d="M13.6496504,10.3 L16.1496504,10.3 L16.1496504,8.7 L13.6496504,8.7 L13.6496504,10.3 Z M12.6496504,7.3 L16.1496504,7.3 L16.1496504,5.7 L12.6496504,5.7 L12.6496504,7.3 Z M11.6496504,4.3 L16.1496504,4.3 L16.1496504,2.7 L11.6496504,2.7 L11.6496504,4.3 Z" id="形状结合" fill="#57689C" fill-rule="nonzero"></path>
            <path d="M10.75934,3.9298717 C10.75934,5.9345848 9.13423073,7.5597277 7.12950641,7.5597277 C5.12479331,7.5597277 3.49965041,5.9345848 3.49965041,3.9298717 C3.49965041,1.92514738 5.12479331,0.3 7.12950641,0.3 C9.13423073,0.3 10.75934,1.92514738 10.75934,3.9298717 Z M12.6545378,15.5597008 C13.6568944,15.5597008 14.3649034,14.7551502 14.3086566,13.7542856 C14.1363267,10.687974 11.561574,8.3 7.81471486,8.3 C7.58923102,8.3 6.72260199,8.3 6.49707029,8.3 C2.75021119,8.3 0.175458493,10.687974 0.00312850566,13.7542856 C-0.0531182431,14.7551502 0.654890792,15.5597008 1.65724734,15.5597008 L12.6545378,15.5597008 Z" id="形状结合" fill="#57689C"></path>
        </g>
    </g>
</svg>