<?xml version="1.0" encoding="UTF-8"?>
<svg width="20px" height="20px" viewBox="0 0 20 20" version="1.1" xmlns="http://www.w3.org/2000/svg" xmlns:xlink="http://www.w3.org/1999/xlink">
    <title>view-settings-second-menu</title>
    <g id="view-settings-second-menu" stroke="none" stroke-width="1" fill="none" fill-rule="evenodd">
        <g id="编组" transform="translate(2.000000, 2.000000)" fill="#57689C">
            <path d="M0.75,12 C1.16421356,12 1.5,12.3357864 1.5,12.75 L1.5,14.5 L1.5,14.5 L3.25,14.5 C3.66421356,14.5 4,14.8357864 4,15.25 C4,15.6642136 3.66421356,16 3.25,16 L1,16 C0.44771525,16 6.76353751e-17,15.5522847 0,15 L0,12.75 C-5.07265313e-17,12.3357864 0.335786438,12 0.75,12 Z M16,12.75 L16,15 C16,15.5522847 15.5522847,16 15,16 L12.75,16 C12.3357864,16 12,15.6642136 12,15.25 C12,14.8357864 12.3357864,14.5 12.75,14.5 L14.5,14.5 L14.5,14.5 L14.5,12.75 C14.5,12.3357864 14.8357864,12 15.25,12 C15.6642136,12 16,12.3357864 16,12.75 Z M15.25,4 C14.8357864,4 14.5,3.66421356 14.5,3.25 L14.5,1.5 L14.5,1.5 L12.75,1.5 C12.3357864,1.5 12,1.16421356 12,0.75 C12,0.335786438 12.3357864,7.6089797e-17 12.75,0 L15,0 C15.5522847,-1.01453063e-16 16,0.44771525 16,1 L16,3.25 C16,3.66421356 15.6642136,4 15.25,4 Z M4,0.75 C4,1.16421356 3.66421356,1.5 3.25,1.5 L1.5,1.5 L1.5,1.5 L1.5,3.25 C1.5,3.66421356 1.16421356,4 0.75,4 C0.335786438,4 5.07265313e-17,3.66421356 0,3.25 L0,1 C-6.76353751e-17,0.44771525 0.44771525,1.01453063e-16 1,0 L3.25,0 C3.66421356,-7.6089797e-17 4,0.335786438 4,0.75 Z" id="形状" fill-rule="nonzero" opacity="0.550000012"></path>
            <path d="M8.00078833,2.5 C10.9326118,2.5 13.5495193,4.19634938 15.8448577,7.5102354 C16.0517141,7.81261812 16.0517141,8.18550537 15.8448577,8.48788809 C13.5495193,11.8036506 10.9326118,13.5 8.00078833,13.5 C5.06674716,13.5 2.44983963,11.8036506 0.154501307,8.48788809 C-0.0515004356,8.18598189 -0.0515004356,7.81401811 0.154501307,7.51211191 C2.44983963,4.19634938 5.06674716,2.5 8.00078833,2.5 Z M7.99901326,4.5 C6.066958,4.5 4.5,6.0682954 4.5,8.00194337 C4.5,9.93364799 6.066958,11.5 7.99901326,11.5 C9.933042,11.5 11.5,9.93364799 11.5,8.00194337 C11.5,6.0682954 9.933042,4.5 7.99901326,4.5 Z M8.00092455,6 C8.53583254,6.00432239 9.0470561,6.21762403 9.42199654,6.59292453 C9.79693699,6.96822503 10.0048401,7.4747406 9.99991443,8.00090951 C9.99991443,9.10322874 9.10489953,10 8.00092455,10 C7.46569483,9.99615804 6.9539964,9.78306784 6.57865669,9.40771492 C6.20331698,9.032362 5.99516069,8.52557216 6.00008544,7.99909049 C6.00008544,6.89495223 6.89510034,6 8.00092455,6 Z" id="形状结合"></path>
        </g>
    </g>
</svg>