<?xml version="1.0" encoding="UTF-8"?>
<svg width="20px" height="20px" viewBox="0 0 20 20" version="1.1" xmlns="http://www.w3.org/2000/svg" xmlns:xlink="http://www.w3.org/1999/xlink">
    <title>view-arrangement-second-menu</title>
    <g id="view-arrangement-second-menu" stroke="none" stroke-width="1" fill="none" fill-rule="evenodd">
        <g id="编组-3" fill="#000000" opacity="0">
            <rect id="矩形" x="0" y="0" width="20" height="20"></rect>
        </g>
        <g id="composer-逻辑编排" transform="translate(2.000000, 2.100000)" fill="#57689C">
            <path d="M13,1.5 C13,2.32842712 13.6715729,3 14.5,3 C14.6755804,3 14.8441149,2.96983268 15.000703,2.91439849 L15.000703,13.0856015 C14.8441149,13.0301673 14.6755804,13 14.5,13 C13.6715729,13 13,13.6715729 13,14.5 C13,14.6386684 13.0188165,14.7729419 13.0540356,14.9004066 L2.94596444,14.9004066 C2.98118348,14.7729419 3,14.6386684 3,14.5 C3,13.6715729 2.32842712,13 1.5,13 C1.32419352,13 1.15545115,13.030245 0.998692282,13.0858158 L0.998692282,2.91418425 C1.15545115,2.96975495 1.32419352,3 1.5,3 C2.32842712,3 3,2.32842712 3,1.5 C3,1.28621235 2.95527506,1.08287078 2.87467135,0.89882143 L13.1253287,0.89882143 C13.0447249,1.08287078 13,1.28621235 13,1.5 Z M9.56166078,3.6 L6.21448763,3.6 L6.21448763,6.54964664 L7.37526502,6.54964664 L7.37526502,7.31289753 L4.59257951,7.31289753 L4.59257951,9.10176678 L3.4,9.10176678 L3.4,12.1468198 L6.74717314,12.1468198 L6.74717314,9.10176678 L5.57844523,9.10176678 L5.57844523,8.30671378 L10.2136042,8.30671378 L10.2136042,9.10176678 L9.05282686,9.10176678 L9.05282686,12.1468198 L12.4,12.1468198 L12.4,9.10176678 L11.2074205,9.10176678 L11.215371,8.00459364 L11.215371,7.304947 L8.36908127,7.304947 L8.36908127,6.54169611 L9.56166078,6.54169611 L9.56166078,3.6 Z" id="形状结合"></path>
            <circle id="椭圆形备份" opacity="0.55" cx="1.5" cy="1.5" r="1.5"></circle>
            <circle id="椭圆形备份-3" opacity="0.55" cx="1.5" cy="14.5" r="1.5"></circle>
            <circle id="椭圆形备份-2" opacity="0.55" cx="14.5" cy="1.5" r="1.5"></circle>
            <circle id="椭圆形备份-4" opacity="0.55" cx="14.5" cy="14.5" r="1.5"></circle>
        </g>
    </g>
</svg>