<?xml version="1.0" encoding="UTF-8"?>
<svg width="20px" height="20px" viewBox="0 0 20 20" version="1.1" xmlns="http://www.w3.org/2000/svg" xmlns:xlink="http://www.w3.org/1999/xlink">
    <title>view-settings-second-menu</title>
    <g id="view-settings-second-menu" stroke="none" stroke-width="1" fill="none" fill-rule="evenodd">
        <rect id="矩形" fill-opacity="0" fill="#D8D8D8" x="0" y="0" width="20" height="20"></rect>
        <g id="编组" transform="translate(2.000000, 2.000000)">
            <path d="" id="形状" stroke="#57689C" stroke-width="1.5" opacity="0.550000012"></path>
            <path d="M8.00078833,2.5 C10.9326118,2.5 13.5495193,4.19634938 15.8448577,7.5102354 C16.0517141,7.81261812 16.0517141,8.18550537 15.8448577,8.48788809 C13.5495193,11.8036506 10.9326118,13.5 8.00078833,13.5 C5.06674716,13.5 2.44983963,11.8036506 0.154501307,8.48788809 C-0.0515004356,8.18598189 -0.0515004356,7.81401811 0.154501307,7.51211191 C2.44983963,4.19634938 5.06674716,2.5 8.00078833,2.5 Z M7.99901326,4.5 C6.066958,4.5 4.5,6.0682954 4.5,8.00194337 C4.5,9.93364799 6.066958,11.5 7.99901326,11.5 C9.933042,11.5 11.5,9.93364799 11.5,8.00194337 C11.5,6.0682954 9.933042,4.5 7.99901326,4.5 Z M8.00092455,6 C8.53583254,6.00432239 9.0470561,6.21762403 9.42199654,6.59292453 C9.79693699,6.96822503 10.0048401,7.4747406 9.99991443,8.00090951 C9.99991443,9.10322874 9.10489953,10 8.00092455,10 C7.46569483,9.99615804 6.9539964,9.78306784 6.57865669,9.40771492 C6.20331698,9.032362 5.99516069,8.52557216 6.00008544,7.99909049 C6.00008544,6.89495223 6.89510034,6 8.00092455,6 Z" id="形状结合" fill="#57689C"></path>
        </g>
    </g>
</svg>