<?xml version="1.0" encoding="UTF-8"?>
<svg width="20px" height="20px" viewBox="0 0 20 20" version="1.1" xmlns="http://www.w3.org/2000/svg" xmlns:xlink="http://www.w3.org/1999/xlink">
    <title>new-visual-builder-second-menu</title>
    <g id="new-visual-builder-second-menu" stroke="none" stroke-width="1" fill="none" fill-rule="evenodd">
        <g>
            <rect id="矩形" x="0" y="0" width="20" height="20"></rect>
            <g transform="translate(9.554966, 10.000000) rotate(-3.000000) translate(-9.554966, -10.000000) translate(2.000000, 2.000000)" fill="#57689C">
                <polygon id="路径-2" points="7.44089264 11.21072 0.855678233 1.57482683e-12 5.7509746 15.4336061"></polygon>
                <polygon id="路径-3" points="6.24751081 16 14.4805466 1.1954435 12.2576399 0.34339466"></polygon>
                <polygon id="路径-4" opacity="0.55" points="7.78007039 10.39352 11.8698391 0.34339466 6.85797299 8.88729505"></polygon>
                <path d="M0.269904867,11.3243205 C0.85605843,11.5184415 1.3115869,11.6329595 1.63649029,11.6678747 C2.73725451,11.7861663 3.93904694,11.6301512 5.06674921,11.3218203 C7.50722517,10.6545572 13.3065611,8.03339031 13.3073219,6.58251625 C13.307829,5.61526688 12.2577284,5.28927595 10.15702,5.60454348 C12.9151754,4.99929923 14.4652314,5.18006494 14.807188,6.14684061 C15.320123,7.59700411 9.72146242,11.0209309 5.20537597,11.8562242 C2.70466527,12.2865189 1.05950823,12.1092177 0.269904867,11.3243205 Z" id="路径-7备份" transform="translate(7.554966, 8.669889) rotate(5.000000) translate(-7.554966, -8.669889) "></path>
            </g>
        </g>
    </g>
</svg>