<?xml version="1.0" encoding="UTF-8"?>
<svg width="20px" height="20px" viewBox="0 0 20 20" version="1.1" xmlns="http://www.w3.org/2000/svg" xmlns:xlink="http://www.w3.org/1999/xlink">
    <title>vm-host-machine-second-menu</title>
    <g id="vm-host-machine-second-menu" stroke="none" stroke-width="1" fill="none" fill-rule="evenodd">
        <rect id="矩形" fill-opacity="0" fill="#D8D8D8" x="0" y="0" width="20" height="20"></rect>
        <g id="编组" transform="translate(1.605771, 2.183046)" fill="#57689C">
            <path d="M8.39422863,2.30115341 L2.96264522,4.99590563 L8.39422863,7.31169042 L13.825812,4.99590563 L8.39422863,2.30115341 Z M14.0784438,5.71168253 L8.85739349,8.1116845 L8.85739349,10.2590547 L14.0784438,7.77485528 L14.0784438,5.71168253 Z M14.0784438,8.70116525 L8.85739349,11.1011672 L8.85739349,13.1222215 L14.0784438,10.5959037 L14.0784438,8.70116525 Z M7.93106378,8.1116845 L2.71001343,5.71168253 L2.71001343,7.77485528 L7.93106378,10.216956 L7.93106378,8.1116845 Z M6.45739151,9.03801421 C6.16264127,8.99589576 5.91000949,8.70116525 5.91000949,8.40643475 C5.91000949,8.11170424 6.16264127,7.90117117 6.45739151,7.98536861 C6.75214176,8.06956605 7.00475381,8.32221757 7.00475381,8.61694808 C7.00475381,8.91167858 6.75212202,9.12221165 6.45739151,9.03801421 Z M2.71001343,8.70116525 L2.71001343,10.5959037 L7.93106378,13.1222215 L7.93106378,11.1011672 L2.71001343,8.70116525 Z M6.45739151,11.9853785 C6.16264127,11.9432798 5.91000949,11.6485295 5.91000949,11.353799 C5.91000949,11.0590685 6.16264127,10.8485354 6.45739151,10.9327526 C6.75214176,11.0169698 7.00475381,11.2695818 7.00475381,11.5643321 C7.00475381,11.8590823 6.75212202,12.0695957 6.45739151,11.9853785 Z" id="形状"></path>
            <path d="M6.73890487,0.103246061 C7.03597264,-0.0435782527 7.39581828,0.0782181355 7.54264259,0.375285908 C7.6894669,0.67235368 7.56767052,1.03219931 7.27060274,1.17902363 L1.41736635,4.07188099 C1.28391757,4.14036693 1.2,4.27775674 1.2,4.42775309 L1.2,11.2061549 C1.2,11.3561513 1.28391757,11.4935411 1.41930441,11.5630261 L7.28064233,14.5980266 C7.57490466,14.7503956 7.68993192,15.1124619 7.53756289,15.4067242 C7.38519387,15.7009865 7.02312762,15.8160138 6.72886529,15.6636448 L0.869465414,12.6296433 C0.335670283,12.3556995 0,11.8061403 0,11.2061549 L0,4.42775309 C0,3.82776772 0.335670283,3.27820848 0.877566947,3.00018405 L6.73890487,0.103246061 Z M9.55938379,0.319616525 C9.71430172,0.0266880729 10.0773529,-0.0851915672 10.3702814,0.0697263542 L15.9189919,3.00426469 C16.452787,3.27820848 16.7884573,3.82776772 16.7884573,4.42775309 L16.7884573,11.2061549 C16.7884573,11.8061403 16.452787,12.3556995 15.9146552,12.6318467 L10.0039768,15.6049179 C9.7079458,15.7538215 9.34725504,15.6345512 9.19835144,15.3385201 C9.04944784,15.0424891 9.16871818,14.6817984 9.46474919,14.5328948 L15.3710909,11.562027 C15.5045397,11.4935411 15.5884573,11.3561513 15.5884573,11.2061549 L15.5884573,4.42775309 C15.5884573,4.27775674 15.5045397,4.14036693 15.3645377,4.06846672 L9.80927397,1.13051412 C9.51634551,0.975596194 9.40446587,0.612544976 9.55938379,0.319616525 Z" id="形状" opacity="0.55"></path>
        </g>
    </g>
</svg>