<?xml version="1.0" encoding="UTF-8"?>
<svg width="20px" height="20px" viewBox="0 0 20 20" version="1.1" xmlns="http://www.w3.org/2000/svg" xmlns:xlink="http://www.w3.org/1999/xlink">
    <title>wait-confirm-event-second-menu</title>
    <g id="wait-confirm-event-second-menu" stroke="none" stroke-width="1" fill="none" fill-rule="evenodd">
        <g id="页面超时备份" transform="translate(2.000000, 2.000000)" fill="#57689C" fill-rule="nonzero">
            <path d="M8.00011169,0 C12.4182273,0 15.999977,3.58199612 15.999977,8.00011169 C16.0023965,9.00648053 15.8143081,10.0042228 15.4455563,10.9406024 C15.2574755,10.7191706 15.0414996,10.5230386 14.8030212,10.3571036 C14.165873,9.94253239 12.1528349,9.09036791 10.5963369,10.5973666 C9.03983884,12.1043653 9.65536793,14.0959958 10.3584765,14.8030212 C10.5235449,15.0413455 10.7187489,15.2573159 10.9392294,15.4455563 C10.0034968,15.8148915 9.00609095,16.0030044 8.00011169,15.9999184 C3.58199612,15.9999184 0,12.4165111 0,8.00011169 C0,3.58371229 3.58199612,0 8.00011169,0 Z M8.29838254,2.7987348 L7.69120056,2.7987348 C7.63816771,2.79948054 7.59546315,2.84249013 7.59509488,2.89552695 L7.29476462,7.79760329 L5.26178618,10.1209582 C5.23346316,10.1647182 5.23708632,10.2218527 5.27071028,10.2616844 L5.8607248,10.8513187 C5.87408347,10.8611117 5.89007562,10.8670501 5.90693776,10.8681889 C5.93223098,10.869897 5.95703647,10.8606406 5.97502764,10.8427805 L8.70408582,8.50157742 L8.4040988,2.89552695 C8.40331041,2.86853429 8.39162598,2.84301106 8.371709,2.82477539 C8.35179203,2.80653972 8.32533992,2.79714573 8.29838254,2.7987348 Z" id="形状结合" opacity="0.55"></path>
            <path d="M12.9989802,10.5973666 C14.3259228,10.5973666 15.4016223,11.6730673 15.4016223,13.0000099 C15.4016223,14.3269525 14.3259228,15.402652 12.9989802,15.402652 C11.6720376,15.402652 10.5963369,14.3269525 10.5963369,13.0000099 C10.5956997,12.3625941 10.8486295,11.7511017 11.2993507,11.3003804 C11.750072,10.8496592 12.3615644,10.5967294 12.9989802,10.5973666 Z M13.2014886,13.8007762 L12.8053959,13.8007762 C12.7520947,13.8011502 12.7089778,13.8442672 12.7086037,13.8975683 L12.7086037,14.293661 C12.7089778,14.3469621 12.7520947,14.3900791 12.8053959,14.3904532 L13.2014886,14.3904532 C13.2264688,14.3938109 13.2516574,14.3859709 13.2703195,14.3690294 C13.2889816,14.3520879 13.299214,14.3277727 13.2982807,14.3025851 L13.2982807,13.8975683 C13.2977234,13.8443441 13.2547128,13.8013335 13.2014886,13.8007762 Z M13.2982807,11.6006425 L12.6996796,11.6006425 C12.644805,11.605291 12.6026909,11.6512879 12.6028875,11.7063587 L12.6907555,13.4050267 C12.6913129,13.4582509 12.7343234,13.5012615 12.7875477,13.5018188 L13.2011453,13.5018188 C13.2543696,13.5012615 13.2973801,13.4582509 13.2979375,13.4050267 L13.3947297,11.7063587 C13.396662,11.6794014 13.387268,11.6529492 13.3690323,11.6330323 C13.3507966,11.6131153 13.3252734,11.6014309 13.2982807,11.6006425 Z" id="形状结合"></path>
        </g>
    </g>
</svg>