<?xml version="1.0" encoding="UTF-8"?>
<svg width="20px" height="20px" viewBox="0 0 20 20" version="1.1" xmlns="http://www.w3.org/2000/svg" xmlns:xlink="http://www.w3.org/1999/xlink">
    <title>webhook-push-strategy-second-menu</title>
    <g id="webhook-push-strategy-second-menu" stroke="none" stroke-width="1" fill="none" fill-rule="evenodd">
        <g id="webhook-push-strategy">
            <rect id="矩形" x="0" y="0" width="20" height="20"></rect>
            <path d="M10,7.5 C10.8284271,7.5 11.5,6.82842712 11.5,6 C11.5,5.17157288 10.8284271,4.5 10,4.5 C9.17157288,4.5 8.5,5.17157288 8.5,6 C8.5,6.82842712 9.17157288,7.5 10,7.5 Z M6,15.5 C6.82842712,15.5 7.5,14.8284271 7.5,14 C7.5,13.1715729 6.82842712,12.5 6,12.5 C5.17157288,12.5 4.5,13.1715729 4.5,14 C4.5,14.8284271 5.17157288,15.5 6,15.5 Z M14,15.5 C14.8284271,15.5 15.5,14.8284271 15.5,14 C15.5,13.1715729 14.8284271,12.5 14,12.5 C13.1715729,12.5 12.5,13.1715729 12.5,14 C12.5,14.8284271 13.1715729,15.5 14,15.5 Z" id="形状结合" fill="#57689C"></path>
            <path d="M6,10.4 L6,11.6 C4.6745166,11.6 3.6,12.6745166 3.6,14 C3.6,15.3254834 4.6745166,16.4 6,16.4 C7.3254834,16.4 8.4,15.3254834 8.4,14 L8.4,13.4 L12.6247177,13.4002184 C12.544499,13.5838995 12.5,13.7867531 12.5,14 C12.5,14.2136367 12.5446618,14.4168421 12.625158,14.6007888 L9.55014545,14.6004736 C9.26430348,16.3028686 7.78363238,17.6 6,17.6 C4.0117749,17.6 2.4,15.9882251 2.4,14 C2.4,12.0117749 4.0117749,10.4 6,10.4 Z M11.1863138,6.918081 L13.1450668,10.5024283 C14.8298713,10.0884252 16.6140566,10.9448345 17.3138175,12.5933678 C18.0906789,14.4235386 17.2368029,16.5369559 15.4066321,17.3138173 C13.5764612,18.0906788 11.463044,17.2368028 10.6861825,15.4066319 L11.7907884,14.9377546 C12.308696,16.1578685 13.7176408,16.7271191 14.9377547,16.2092115 C16.1578686,15.6913039 16.7271193,14.282359 16.2092116,13.0622451 C15.691304,11.8421312 14.2823592,11.2728806 13.0622453,11.7907882 L12.6115949,12.0299447 L10.133,7.493081 L10.14446,7.49313328 C10.5677111,7.45268916 10.939639,7.2363618 11.1863138,6.918081 Z M11.8541371,2.91419762 C13.5583786,3.93820925 14.1098139,6.14989543 13.0858023,7.85413697 L12.0572015,7.23609128 C12.7398759,6.09993025 12.3722524,4.6254728 11.2360914,3.94279838 C10.0999304,3.26012396 8.6254729,3.62774749 7.94279848,4.76390852 C7.26465873,5.89252259 7.62291005,7.35495373 8.74136954,8.04349293 L9.6469574,8.53674307 L7.18398996,13.0789281 C6.93419633,12.7582912 6.55701185,12.5417764 6.12847811,12.5054251 L8.02526266,9.008458 L7.97911615,8.97938238 C6.45905098,7.9502746 5.95775669,5.93365306 6.82000378,4.31231665 L6.91419772,4.14586283 C7.93820935,2.44162129 10.1498955,1.89018599 11.8541371,2.91419762 Z" id="形状结合" fill="#57689C" fill-rule="nonzero" opacity="0.55"></path>
        </g>
    </g>
</svg>