<?xml version="1.0" encoding="UTF-8"?>
<svg width="20px" height="20px" viewBox="0 0 20 20" version="1.1" xmlns="http://www.w3.org/2000/svg" xmlns:xlink="http://www.w3.org/1999/xlink">
    <title>weblogic-second-menu</title>
    <g id="weblogic-second-menu" stroke="none" stroke-width="1" fill="none" fill-rule="evenodd">
        <rect id="矩形" fill="#FFFFFF" opacity="0" x="0" y="0" width="20" height="20"></rect>
        <g id="Weblogic" transform="translate(1.000000, 1.000000)">
            <rect id="矩形" fill-opacity="0" fill="#FFFFFF" x="1" y="1" width="16" height="16"></rect>
            <g fill="#57689C" fill-rule="nonzero" id="形状结合">
                <path d="M9,0 C12.399347,0 15.358517,1.88462209 16.8896599,4.66601639 L15.7926784,5.72898323 C14.5747277,3.20437988 11.9907828,1.4625 9,1.4625 C4.8371537,1.4625 1.4625,4.8371537 1.4625,9 C1.4625,13.1628463 4.8371537,16.5375 9,16.5375 C13.1628463,16.5375 16.5375,13.1628463 16.5375,9 C16.5375,8.35022652 16.455281,7.71965632 16.3006789,7.11812547 L17.4788597,5.97459315 C17.8162628,6.92010055 18,7.93859322 18,9 C18,13.9705627 13.9705627,18 9,18 C4.02943725,18 0,13.9705627 0,9 C0,4.02943725 4.02943725,0 9,0 Z" opacity="0.550000012"></path>
                <path d="M9,2.025 C11.8344739,2.025 14.2740546,3.71573873 15.3652471,6.14372115 L12.8915526,8.54411351 L12.8924324,4.33157647 L11.7408604,5.47965763 L8.27342763,8.93561351 L8.27449237,7.42500001 L4.12105263,7.42500001 L4.12105263,8.77500001 L6.92342763,8.77473851 L6.92449237,12.1877222 L8.07606437,11.0396411 L11.5415526,7.58336351 L11.5424324,11.7358805 L12.6875311,10.6245629 L15.8293612,7.57521728 C15.9248291,8.0351775 15.975,8.51172973 15.975,9 C15.975,12.8521861 12.8521861,15.975 9,15.975 C5.14781387,15.975 2.025,12.8521861 2.025,9 C2.025,5.14781387 5.14781387,2.025 9,2.025 Z"></path>
            </g>
        </g>
    </g>
</svg>