<?xml version="1.0" encoding="UTF-8"?>
<svg width="20px" height="20px" viewBox="0 0 20 20" version="1.1" xmlns="http://www.w3.org/2000/svg" xmlns:xlink="http://www.w3.org/1999/xlink">
    <title>weblogic-second-menu</title>
    <g id="weblogic-second-menu" stroke="none" stroke-width="1" fill="none" fill-rule="evenodd">
        <rect id="矩形" fill="#FFFFFF" opacity="0" x="0" y="0" width="20" height="20"></rect>
        <g id="Weblogic" transform="translate(2.000000, 2.000000)">
            <rect id="矩形" fill-opacity="0" fill="#FFFFFF" x="0" y="0" width="16" height="16"></rect>
            <g fill="#57689C" fill-rule="nonzero" id="形状结合">
                <path d="M8,0 C11.0214271,0 13.6516413,1.6749816 15.0127409,4.14704316 L14.0384881,5.0935734 C12.956094,2.84886384 10.6589253,1.3 8,1.3 C4.29969218,1.3 1.3,4.29969218 1.3,8 C1.3,11.7003078 4.29969218,14.7 8,14.7 C11.7003078,14.7 14.7,11.7003078 14.7,8 C14.7,7.42252662 14.6269425,6.86211675 14.4895659,6.32750884 L15.5369413,5.31124584 C15.8367424,6.15155695 16,7.05671304 16,8 C16,12.418278 12.418278,16 8,16 C3.581722,16 0,12.418278 0,8 C0,3.581722 3.581722,0 8,0 Z" opacity="0.550000012"></path>
                <path d="M8,1.8 C10.5195523,1.8 12.6880829,3.30290266 13.6580205,5.46113672 L11.4591579,7.59476756 L11.4599399,3.85029019 L10.4363203,4.87080678 L7.3541579,7.94276756 L7.35510433,6.60000001 L3.6631579,6.60000001 L3.6631579,7.80000001 L6.1541579,7.79976756 L6.15510433,10.8335309 L7.17872388,9.81301429 L10.2591579,6.74076756 L10.2599399,10.4318938 L11.2778054,9.44405587 L14.0707548,6.7345463 C14.1554777,7.14308439 14.2,7.56634283 14.2,8 C14.2,11.4241654 11.4241654,14.2 8,14.2 C4.57583455,14.2 1.8,11.4241654 1.8,8 C1.8,4.57583455 4.57583455,1.8 8,1.8 Z"></path>
            </g>
        </g>
    </g>
</svg>