<?xml version="1.0" encoding="UTF-8"?>
<svg width="20px" height="20px" viewBox="0 0 20 20" version="1.1" xmlns="http://www.w3.org/2000/svg" xmlns:xlink="http://www.w3.org/1999/xlink">
    <title>weekly-completed-project-requirements-second-menu</title>
    <g id="weekly-completed-project-requirements-second-menu" stroke="none" stroke-width="1" fill="none" fill-rule="evenodd">
        <rect id="矩形" x="2" y="2" width="16" height="16"></rect>
        <g id="旗子_icon" transform="translate(4.000000, 2.000000)" fill="#57689C" fill-rule="nonzero">
            <path d="M11.6250211,0.0205084333 C11.5665581,-0.0102675693 11.4958639,-0.0061606177 11.441358,0.031178274 C11.4228406,0.0438691743 9.57577638,1.3004147 8.35530071,1.30052395 C8.28378007,1.30052395 8.21522731,1.29604481 8.15151787,1.28719577 C7.65892128,1.21877047 7.27025541,1.05072974 6.8587386,0.872838547 C6.27031384,0.618437743 5.66184216,0.355388175 4.70663742,0.355388175 C4.63511677,0.355388175 4.56157507,0.356899424 4.48801513,0.359921939 C2.98924989,0.421100493 1.55587452,0.86404411 1.17312622,0.989514781 C2.81429189,6.85440615 3.7024827,10.0600177 3.83769866,10.6063495 C3.81198911,10.1597461 4.33634332,9.37032077 4.67049473,9.01634094 C5.0314846,8.6339568 5.75612269,8.17815837 7.15831322,8.17810377 C7.94993818,8.17808556 8.67967447,8.07511987 9.3272203,7.87206534 C9.84925906,7.7083763 10.3194963,7.47964864 10.7248771,7.19220049 C11.4239695,6.69650856 11.6890219,6.19719326 11.6999649,6.17618135 C11.7131966,6.15079225 11.7201028,6.12258459 11.7201028,6.09395446 L11.7201028,0.178006793 C11.7201028,0.111935411 11.6834744,0.0513084191 11.6250211,0.0205084333 Z" id="路径"></path>
            <path d="M1.09382549,0.707237675 C1.04317664,0.652614017 0.963873203,0.635301803 0.895068037,0.663848239 L0.109852257,0.989514781 C0.0279698762,1.02347103 -0.0164538069,1.11249692 0.00564842218,1.19834121 L3.78158494,15.8663722 C3.80182069,15.9450367 3.87275182,16 3.95397738,16 C4.00056273,16 4.04529266,15.981742 4.07857404,15.9491453 L4.98647467,15.0597439 C5.03002589,15.0170962 5.04872006,14.9551258 5.03601836,14.8955087 C5.03067738,14.8703817 3.71661308,10.1409581 1.09382549,0.707237675 Z" id="路径" opacity="0.55"></path>
        </g>
    </g>
</svg>