<?xml version="1.0" encoding="UTF-8"?>
<svg width="20px" height="20px" viewBox="0 0 20 20" version="1.1" xmlns="http://www.w3.org/2000/svg" xmlns:xlink="http://www.w3.org/1999/xlink">
    <title>workload-second menu-pressed</title>
    <g id="workload-second-menu-pressed" stroke="none" stroke-width="1" fill="none" fill-rule="evenodd">
        <g id="工作负载">
            <rect id="矩形" fill="#D8D8D8" opacity="0" x="0" y="0" width="20" height="20"></rect>
            <g id="架构拓扑" transform="translate(2.000280, 3.000479)" fill="#FFFFFF">
                <path d="M11.0503024,10.9985571 C11.0173178,11.1605593 11,11.3282573 11,11.5 C11,11.6710648 11.0171813,11.8381167 11.0499125,11.9995242 L4.95008748,11.9995242 C4.98281865,11.8381167 5,11.6710648 5,11.5 C5,11.3282573 4.98268221,11.1605593 4.94969761,10.9985571 Z M9.77751208,4.25768501 L12.7464453,9.11556997 C12.354304,9.23938213 12.0039333,9.45725692 11.7218044,9.74272316 L8.75327471,4.88443003 C9.14522912,4.76067688 9.4954527,4.54295076 9.77751208,4.25768501 Z M6.22192792,4.25768501 C6.50374897,4.54270972 6.85361907,4.76030889 7.24517182,4.88411612 L4.27720502,9.74172146 C3.995428,9.45693036 3.64568706,9.23951685 3.25430976,9.1158085 Z" id="形状结合" fill-rule="nonzero"></path>
                <path d="M7.99972,0 C9.38043187,-2.53632657e-16 10.49972,1.11928813 10.49972,2.5 C10.49972,3.88071187 9.38043187,5 7.99972,5 C6.61900813,5 5.49972,3.88071187 5.49972,2.5 C5.49972,1.11928813 6.61900813,2.53632657e-16 7.99972,0 Z M2.5,9 C3.88071187,9 5,10.1192881 5,11.5 C5,12.8807119 3.88071187,14 2.5,14 C1.11928813,14 1.69088438e-16,12.8807119 0,11.5 C-1.69088438e-16,10.1192881 1.11928813,9 2.5,9 Z M13.5,9 C14.8807119,9 16,10.1192881 16,11.5 C16,12.8807119 14.8807119,14 13.5,14 C12.1192881,14 11,12.8807119 11,11.5 C11,10.1192881 12.1192881,9 13.5,9 Z" id="形状结合" opacity="0.550000012"></path>
            </g>
        </g>
    </g>
</svg>