<?xml version="1.0" encoding="UTF-8"?>
<svg width="20px" height="20px" viewBox="0 0 20 20" version="1.1" xmlns="http://www.w3.org/2000/svg" xmlns:xlink="http://www.w3.org/1999/xlink">
    <title>workload-second-menu</title>
    <g id="workload-second-menu" stroke="none" stroke-width="1" fill="none" fill-rule="evenodd">
        <g id="工作负载">
            <rect id="矩形" fill="#D8D8D8" opacity="0" x="0" y="0" width="20" height="20"></rect>
            <g id="架构拓扑" opacity="0.85" transform="translate(2.000280, 3.000479)" fill="#57689C">
                <path d="M11.0503024,10.9985571 C11.0173178,11.1605593 11,11.3282573 11,11.5 C11,11.6713864 11.017246,11.8387448 11.0500973,12.0004345 L4.94990271,12.0004345 C4.98275399,11.8387448 5,11.6713864 5,11.5 C5,11.3282573 4.98268221,11.1605593 4.94969761,10.9985571 Z M9.77751208,4.25768501 L12.7454518,9.11588388 C12.3537122,9.2397502 12.003695,9.45749802 11.7218044,9.74272316 L8.75228105,4.88474352 C9.14463722,4.76104478 9.49521437,4.5431918 9.77751208,4.25768501 Z M6.22192792,4.25768501 C6.50374897,4.54270972 6.85361907,4.76030889 7.24517182,4.88411612 L4.27679213,9.74130425 C3.99508637,9.45671802 3.64549592,9.23945644 3.25430976,9.1158085 Z" id="形状结合" fill-rule="nonzero"></path>
                <path d="M7.99972,0 C9.38043187,-2.53632657e-16 10.49972,1.11928813 10.49972,2.5 C10.49972,3.88071187 9.38043187,5 7.99972,5 C6.61900813,5 5.49972,3.88071187 5.49972,2.5 C5.49972,1.11928813 6.61900813,2.53632657e-16 7.99972,0 Z M2.5,9 C3.88071187,9 5,10.1192881 5,11.5 C5,12.8807119 3.88071187,14 2.5,14 C1.11928813,14 1.69088438e-16,12.8807119 0,11.5 C-1.69088438e-16,10.1192881 1.11928813,9 2.5,9 Z M13.5,9 C14.8807119,9 16,10.1192881 16,11.5 C16,12.8807119 14.8807119,14 13.5,14 C12.1192881,14 11,12.8807119 11,11.5 C11,10.1192881 12.1192881,9 13.5,9 Z" id="形状结合" opacity="0.550000012"></path>
            </g>
        </g>
    </g>
</svg>