<?xml version="1.0" encoding="UTF-8"?>
<svg width="28px" height="28px" viewBox="0 0 28 28" version="1.1" xmlns="http://www.w3.org/2000/svg" xmlns:xlink="http://www.w3.org/1999/xlink">
    <title>4EB6B303-C60B-4975-800C-C9F37AC07377</title>
    <defs>
        <linearGradient x1="50%" y1="113.523292%" x2="50%" y2="3.061617e-15%" id="linearGradient-1">
            <stop stop-color="#FFFFFF" offset="0%"></stop>
            <stop stop-color="#FFFFFF" stop-opacity="0.2" offset="100%"></stop>
        </linearGradient>
        <linearGradient x1="50%" y1="0%" x2="50%" y2="100%" id="linearGradient-2">
            <stop stop-color="#FFFFFF" offset="0%"></stop>
            <stop stop-color="#FFFFFF" stop-opacity="0.2" offset="100%"></stop>
        </linearGradient>
    </defs>
    <g id="数值统计" stroke="none" stroke-width="1" fill="none" fill-rule="evenodd">
        <g id="Statistic-统计数值" transform="translate(-380.000000, -707.000000)" fill-rule="nonzero">
            <g id="图标-黄色" transform="translate(380.000000, 707.000000)">
                <rect id="矩形" fill="#FFFFFF" opacity="0" x="0" y="0" width="28" height="28"></rect>
                <path d="M12.775,2.91667578 L12.775,5.01667578 L4.66667578,9.275 L4.66667578,18.725 L12.775,22.9833242 L12.775,25.0833242 L2.91667578,19.8916758 L2.91667578,8.10832422 L12.775,2.91667578 Z M15.225,2.91667578 L25.0833242,8.10832422 L25.0833242,19.8916758 L15.225,25.0833242 L15.225,22.9833242 L23.3333242,18.725 L23.3333242,9.275 L15.225,5.01667578 L15.225,2.91667578 Z M21.875,15.225 L21.875,17.85 L14.6416758,21.35 L14.6416758,18.55 L21.875,15.225 Z M6.125,15.225 L13.3583242,18.55 L13.3583242,21.35 L6.125,17.85 L6.125,15.225 Z M11.3166758,18.3166758 C10.9083242,18.2 10.5583242,18.4916758 10.5583242,18.9 C10.5583242,19.3083242 10.9083242,19.7166758 11.3166758,19.775 C11.725,19.8916758 12.075,19.6000273 12.075,19.1916758 C12.075,18.7833242 11.7250273,18.4333516 11.3166758,18.3166758 Z M21.875,11.0833242 L21.875,13.9416758 L14.6416758,17.3833242 L14.6416758,14.4083242 L21.875,11.0833242 Z M6.125,11.0833242 L13.3583242,14.4083242 L13.3583242,17.325 L6.125,13.9416758 L6.125,11.0833242 Z M11.3166758,14.2333242 C10.9083242,14.1166758 10.5583242,14.4083516 10.5583242,14.8166758 C10.5583242,15.225 10.9083242,15.6333242 11.3166758,15.6916758 C11.725,15.8083242 12.075,15.5166484 12.075,15.1083242 C12.075,14.7 11.7250273,14.3499727 11.3166758,14.2333242 Z M14,6.35832422 L21.525,10.0916758 L14,13.3 L6.475,10.0916758 L14,6.35832422 Z" id="形状结合" fill="url(#linearGradient-2)"></path>
            </g>
        </g>
    </g>
</svg>