<?xml version="1.0" encoding="UTF-8"?>
<svg width="20px" height="18px" viewBox="0 0 20 18" version="1.1" xmlns="http://www.w3.org/2000/svg" xmlns:xlink="http://www.w3.org/1999/xlink">
    <!-- Generator: Sketch 63.1 (92452) - https://sketch.com -->
    <title>制品管理（小产品图标）</title>
    <desc>Created with Sketch.</desc>
    <defs>
        <linearGradient x1="0%" y1="50%" x2="100%" y2="50%" id="linearGradient-1">
            <stop stop-color="#1452CC" offset="0%"></stop>
            <stop stop-color="#28C6CC" offset="100%"></stop>
        </linearGradient>
    </defs>
    <g id="第三版" stroke="none" stroke-width="1" fill="none" fill-rule="evenodd">
        <g id="画板" transform="translate(-645.000000, -140.000000)">
            <g id="制品管理（小产品图标）" transform="translate(644.000000, 138.000000)">
                <rect id="矩形" opacity="0" x="0" y="0" width="22" height="22"></rect>
                <g id="编组" transform="translate(1.000000, 2.500000)" fill="#FFFFFF">
                    <g id="编组-3">
                        <path d="M8.50678187,1.54465812e-15 C9.41567311,2.2191297e-15 10.1615324,0.698022881 10.2375262,1.58723516 L10.2439024,1.73712057 L19,1.73712057 C19.5522847,1.73712057 20,2.18483582 20,2.73712057 L20,15.9565217 C20,16.5088065 19.5522847,16.9565217 19,16.9565217 L1,16.9565217 C0.44771525,16.9565217 1.49478917e-12,16.5088065 1.49472153e-12,15.9565217 L1.49472153e-12,1.73712057 C1.49460404e-12,0.777735371 0.777735371,1.94293893e-15 1.73712057,1.54465812e-15 L8.50678187,1.54465812e-15 Z M17.5714286,4.1 L2.42857143,4.1 C1.87628668,4.1 1.42857143,4.54771525 1.42857143,5.1 L1.42857143,5.1 L1.42857143,14.5285714 C1.42857143,15.0808562 1.87628668,15.5285714 2.42857143,15.5285714 L2.42857143,15.5285714 L17.5714286,15.5285714 C18.1237133,15.5285714 18.5714286,15.0808562 18.5714286,14.5285714 L18.5714286,14.5285714 L18.5714286,5.1 C18.5714286,4.54771525 18.1237133,4.1 17.5714286,4.1 L17.5714286,4.1 Z" id="形状结合"></path>
                        <path d="M14.71,9.68944099 L11.9852174,9.68944099 C11.5765217,9.68944099 11.3043478,9.40372671 11.3043478,8.97515528 C11.3043478,8.54658385 11.5765217,8.26086957 11.9852174,8.26086957 L14.71,8.26086957 C15.1186957,8.26086957 15.3913043,8.54658385 15.3913043,8.97515528 C15.3913043,9.40372671 15.1186957,9.68944099 14.71,9.68944099" id="Fill-1备份"></path>
                        <path d="M7.75347826,13.1677019 L5.02869565,13.1677019 C4.62,13.1677019 4.34782609,12.8819876 4.34782609,12.4534161 C4.34782609,12.0248447 4.62,11.7391304 5.02869565,11.7391304 L7.75347826,11.7391304 C8.16217391,11.7391304 8.43478261,12.0248447 8.43478261,12.4534161 C8.43478261,12.8819876 8.16217391,13.1677019 7.75347826,13.1677019" id="Fill-1备份-3"></path>
                        <path d="M11.9852174,13.1677019 C11.5765217,13.1677019 11.3043478,12.8819876 11.3043478,12.4534161 C11.3043478,12.0248447 11.5765217,11.7391304 11.9852174,11.7391304 L14.71,11.7391304 C15.1186957,11.7391304 15.3913043,12.0248447 15.3913043,12.4534161 C15.3913043,12.8819876 15.1186957,13.1677019 14.71,13.1677019 L11.9852174,13.1677019 Z" id="Fill-1备份-4"></path>
                    </g>
                </g>
            </g>
        </g>
    </g>
</svg>