<?xml version="1.0" encoding="UTF-8"?>
<svg width="14px" height="14px" viewBox="0 0 14 14" version="1.1" xmlns="http://www.w3.org/2000/svg" xmlns:xlink="http://www.w3.org/1999/xlink">
    <!-- Generator: Sketch 61 (89581) - https://sketch.com -->
    <title>置于顶层</title>
    <desc>Created with Sketch.</desc>
    <g id="页面-1" stroke="none" stroke-width="1" fill="none" fill-rule="evenodd">
        <path d="M13.1944204,0.00151572742 L0.77756895,0.00151572742 C0.349011016,0.00157854351 0.0016294778,0.349011003 0.0016294778,0.777568942 C0.0016294778,1.20612688 0.349011016,1.55355934 0.77756895,1.55362216 L13.1944204,1.55362216 C13.6229783,1.55355934 13.9703599,1.20612688 13.9703599,0.777568942 C13.9703599,0.349011003 13.6229783,0.00157854351 13.1944204,0.00151572742 L13.1944204,0.00151572742 Z M7.51371085,2.53920973 C7.21605319,2.26315428 6.75593614,2.26315428 6.45827848,2.53920973 L3.97490818,4.86736939 C3.74272658,5.08474077 3.66668243,5.42177886 3.78303272,5.71778768 C3.89938301,6.0137965 4.18457183,6.20884706 4.50262437,6.20994144 L6.20994144,6.20994144 L6.20994144,13.1944204 C6.20994146,13.6230227 6.55739232,13.9704736 6.98599466,13.9704736 C7.41459701,13.9704736 7.76204787,13.6230227 7.76204789,13.1944204 L7.76204789,6.20994144 L9.46936496,6.20994144 C9.7874175,6.20884706 10.0726063,6.0137965 10.1889566,5.71778768 C10.3053069,5.42177886 10.2292627,5.08474077 9.99708115,4.86736939 L7.51371085,2.53920973 Z" id="形状" fill="#595959" fill-rule="nonzero"></path>
    </g>
</svg>