<?xml version="1.0" encoding="UTF-8"?>
<svg width="20px" height="20px" viewBox="0 0 20 20" version="1.1" xmlns="http://www.w3.org/2000/svg" xmlns:xlink="http://www.w3.org/1999/xlink">
    <title>图标-对比</title>
    <g id="卡片样式规范" stroke="none" stroke-width="1" fill="none" fill-rule="evenodd">
        <g id="信息类卡片" transform="translate(-172.000000, -3791.000000)">
            <g id="内部卡片" transform="translate(0.000000, 784.995045)">
                <g id="基础用法" transform="translate(0.000000, 284.978849)">
                    <g id="基础卡片" transform="translate(0.000000, 1171.919789)">
                        <g id="样式明细" transform="translate(0.000000, 115.991661)">
                            <g id="通用卡片" transform="translate(0.000000, 0.000000)">
                                <g id="基本2" transform="translate(0.000000, 756.958343)">
                                    <g id="默认态" transform="translate(156.000000, 126.989928)">
                                        <g id="基准卡片-完整备份-2" transform="translate(0.000000, 473.166385)">
                                            <g id="扩展2-" transform="translate(0.000000, 66.000000)">
                                                <g id="图标-对比" transform="translate(16.000000, 10.000000)">
                                                    <rect id="矩形" fill-opacity="0" fill="#D8D8D8" x="0" y="0" width="20" height="19.9983885"></rect>
                                                    <rect id="矩形备份-59" fill-opacity="0" fill="#D8D8D8" x="2" y="1.99983885" width="16" height="15.9987108"></rect>
                                                    <g id="333" transform="translate(3.000000, 2.999678)" fill-rule="nonzero">
                                                        <path d="M8.5,0 C9.32842712,0 10,0.671572875 10,1.5 L10,3.999 L12.5,3.99967771 C13.3284271,3.99967771 14,4.67125058 14,5.49967771 L14,12.4990331 C14,13.3274602 13.3284271,13.9990331 12.5,13.9990331 L5.5,13.9990331 C4.67157288,13.9990331 4,13.3274602 4,12.4990331 L4,9.999 L1.5,9.99935541 C0.671572875,9.99935541 0,9.32778254 0,8.49935541 L0,1.5 C0,0.671572875 0.671572875,0 1.5,0 L8.5,0 Z M12,5.99967771 L10,5.999 L10,8.49935541 C10,9.32778254 9.32842712,9.99935541 8.5,9.99935541 L6,9.999 L6,11.9986777 L12,11.9986777 L12,5.99967771 Z M8,2 L2,2 L2,7.999 L4,7.999 L4,5.49967771 C4,4.67125058 4.67157288,3.99967771 5.5,3.99967771 L8,3.999 L8,2 Z M8,5.999 L6,5.99967771 L6,7.999 L8,7.999 L8,5.999 Z" id="形状结合" fill="#93959D"></path>
                                                        <path d="M10,3.99967771 L10,8.4993957 C10,9.32781861 9.32840909,9.99935541 8.5,9.99935541 L4,9.99935541 L4,5.49963742 C4,4.6712145 4.67159091,3.99967771 5.5,3.99967771 L10,3.99967771 Z M8,5.99967771 L6,5.99967771 L6,7.99867771 L8,7.99867771 L8,5.99967771 Z" id="路径" fill="#C3C4C8"></path>
                                                    </g>
                                                </g>
                                            </g>
                                        </g>
                                    </g>
                                </g>
                            </g>
                        </g>
                    </g>
                </g>
            </g>
        </g>
    </g>
</svg>