<?xml version="1.0" encoding="UTF-8"?>
<svg width="20px" height="20px" viewBox="0 0 20 20" version="1.1" xmlns="http://www.w3.org/2000/svg" xmlns:xlink="http://www.w3.org/1999/xlink">
    <title>图标-任务交付</title>
    <g id="卡片样式规范" stroke="none" stroke-width="1" fill="none" fill-rule="evenodd">
        <g id="信息类卡片" transform="translate(-200.000000, -3791.000000)">
            <g id="内部卡片" transform="translate(0.000000, 784.995045)">
                <g id="基础用法" transform="translate(0.000000, 284.978849)">
                    <g id="基础卡片" transform="translate(0.000000, 1171.919789)">
                        <g id="样式明细" transform="translate(0.000000, 115.991661)">
                            <g id="通用卡片" transform="translate(0.000000, 0.000000)">
                                <g id="基本2" transform="translate(0.000000, 756.958343)">
                                    <g id="默认态" transform="translate(156.000000, 126.989928)">
                                        <g id="基准卡片-完整备份-2" transform="translate(0.000000, 473.166385)">
                                            <g id="扩展2-" transform="translate(0.000000, 66.000000)">
                                                <g id="图标-任务交付" transform="translate(44.000000, 10.000000)">
                                                    <rect id="矩形" fill="#000000" fill-rule="nonzero" opacity="0" x="0" y="0" width="20" height="19.9983885"></rect>
                                                    <g id="图标" transform="translate(2.000000, 1.999839)">
                                                        <rect id="矩形备份-58" fill="#000000" fill-rule="nonzero" opacity="0" x="0" y="0" width="16" height="15.9987108"></rect>
                                                        <path d="M11.5,8.99927484 C13.4329966,8.99927484 15,10.566152 15,12.4989928 C15,14.4318337 13.4329966,15.9987108 11.5,15.9987108 C9.56700338,15.9987108 8,14.4318337 8,12.4989928 C8,10.566152 9.56700338,8.99927484 11.5,8.99927484 Z M12,0.749879139 C13.2426272,0.749879139 14.25,1.75717081 14.25,2.99975828 L14.25,7.97980647 L12.75,7.97980647 L12.75,2.99975828 C12.75,2.58562499 12.4142271,2.24987914 12,2.24987914 L4,2.24987914 C3.58577291,2.24987914 3.25,2.58562499 3.25,2.99975828 L3.25,12.9989525 C3.25,13.1978201 3.32900774,13.3885463 3.46964855,13.5291758 C3.61030098,13.6698169 3.80107491,13.7488317 4,13.7488317 L7.31717694,13.7488317 L7.31717694,15.2488317 L4,15.2488317 C3.40327562,15.2488317 2.83098781,15.0118014 2.40903111,14.5898787 C1.98706278,14.1679444 1.75,13.5956703 1.75,12.9989525 L1.75,2.99975828 C1.75,1.75717081 2.75737284,0.749879139 4,0.749879139 L12,0.749879139 Z M12.76154,11.3189497 L11.1813828,13.0139186 L10.6548695,12.5232918 L10.6147365,12.4910621 C10.4733736,12.3939908 10.2822519,12.4149802 10.1653293,12.5404171 C10.1026737,12.6075952 10.0692776,12.6969124 10.0724895,12.7887147 C10.0757015,12.8805171 10.1152584,12.9672822 10.1824559,13.0299178 L10.9617835,13.7566125 L11.0019164,13.7888422 C11.1432793,13.8859136 11.334401,13.8649241 11.4513237,13.7394873 L13.2682068,11.7913252 L13.3004391,11.7511956 C13.3975183,11.609844 13.3765272,11.4187377 13.2510802,11.3018245 L13.2109473,11.2695948 C13.0695844,11.1725234 12.8784626,11.1935129 12.76154,11.3189497 Z" id="形状结合" fill="#93959D" fill-rule="nonzero"></path>
                                                        <path d="M5.2,4.99959713 L10.8,4.99959713 C10.9104569,4.99959713 11,5.08914018 11,5.19959713 L11,6.29947627 C11,6.40993322 10.9104569,6.49947627 10.8,6.49947627 L5.2,6.49947627 C5.08954305,6.49947627 5,6.40993322 5,6.29947627 L5,5.19959713 C5,5.08914018 5.08954305,4.99959713 5.2,4.99959713 Z M5.2,7.4993957 L8.55,7.4993957 C8.66045695,7.4993957 8.75,7.58893875 8.75,7.6993957 L8.75,8.79927483 C8.75,8.90973179 8.66045695,8.99927484 8.55,8.99927484 L5.2,8.99927484 C5.08954305,8.99927484 5,8.90973179 5,8.79927483 L5,7.6993957 C5,7.58893875 5.08954305,7.4993957 5.2,7.4993957 Z" id="形状结合" fill="#C3C4C8"></path>
                                                    </g>
                                                </g>
                                            </g>
                                        </g>
                                    </g>
                                </g>
                            </g>
                        </g>
                    </g>
                </g>
            </g>
        </g>
    </g>
</svg>