<?xml version="1.0" encoding="UTF-8"?>
<svg width="60px" height="60px" viewBox="0 0 60 60" version="1.1" xmlns="http://www.w3.org/2000/svg" xmlns:xlink="http://www.w3.org/1999/xlink">
    <title>默认</title>
    <defs>
        <linearGradient x1="50%" y1="100%" x2="50%" y2="3.061617e-15%" id="linearGradient-1">
            <stop stop-color="#167BE0" offset="0%"></stop>
            <stop stop-color="#31B2F2" offset="100%"></stop>
        </linearGradient>
    </defs>
    <g id="V6.2" stroke="none" stroke-width="1" fill="none" fill-rule="evenodd">
        <g id="描述列表" transform="translate(-38.000000, -9608.000000)" fill="url(#linearGradient-1)" fill-rule="nonzero">
            <g id="默认" transform="translate(38.000000, 9608.000000)">
                <path d="M57.3503406,12.1252582 L30.7667802,0.309873606 C30.003131,-0.0294589746 29.1314844,-0.0294589746 28.3678351,0.309873606 L1.78427474,12.1252582 C0.716499858,12.5988937 0.028132645,13.6572832 0.028132645,14.8253901 C0.028132645,15.993497 0.716499858,17.0518864 1.78427474,17.5255219 L28.3678351,29.3409066 C29.1316154,29.678489 30.003,29.678489 30.7667802,29.3409066 L57.3503406,17.5255219 C58.4181155,17.0518864 59.1064827,15.993497 59.1064827,14.8253901 C59.1064827,13.6572832 58.4181155,12.5988937 57.3503406,12.1252582 L57.3503406,12.1252582 Z M29.5662527,44.3643791 C29.1537692,44.3643791 28.7444505,44.2768187 28.3678351,44.1090824 L1.78427474,32.2947527 C0.819798986,31.866034 0.157305349,30.9553399 0.0463487667,29.90572 C-0.064607816,28.8561002 0.3928296,27.8270168 1.24634877,27.2061157 C2.09986793,26.5852145 3.21979899,26.4668253 4.18427474,26.895544 L29.5673077,38.1771264 L54.9503406,26.8934341 C55.9148164,26.4647154 57.0347475,26.5831046 57.8882666,27.2040058 C58.7417858,27.8249069 59.1992232,28.8539903 59.0882666,29.9036102 C58.97731,30.95323 58.3148164,31.8639241 57.3503406,32.2926428 L30.7667802,44.1080275 C30.3892183,44.2761002 29.980589,44.3630732 29.5673077,44.3633242 L29.5662527,44.3643791 Z M29.5673077,59.1325554 C29.1548242,59.1325554 28.7455055,59.0460495 28.3688901,58.8793681 L1.78427474,47.0639835 C0.293033085,46.4012418 -0.378598827,44.6550933 0.284142873,43.1638516 C0.946884572,41.67261 2.69303309,41.0009781 4.18427474,41.6637198 L29.5673077,52.9453022 L54.9513956,41.6637198 C55.9158714,41.235001 57.0358025,41.3533902 57.8893217,41.9742914 C58.7428409,42.5951926 59.2002784,43.624276 59.0893218,44.6738959 C58.9783651,45.7235158 58.3158714,46.6342099 57.3513956,47.0629286 L30.7678351,58.8783132 C30.3898697,59.0461676 29.980869,59.1327837 29.5673077,59.1325554 L29.5673077,59.1325554 Z" id="形状"></path>
            </g>
        </g>
    </g>
</svg>