<?xml version="1.0" encoding="UTF-8"?>
<svg width="15px" height="16px" viewBox="0 0 15 16" version="1.1" xmlns="http://www.w3.org/2000/svg" xmlns:xlink="http://www.w3.org/1999/xlink">
    <!-- Generator: Sketch 61 (89581) - https://sketch.com -->
    <title>配置条件</title>
    <desc>Created with Sketch.</desc>
    <g id="页面-1" stroke="none" stroke-width="1" fill="none" fill-rule="evenodd">
        <g id="编组备份-4" fill="#545454" fill-rule="nonzero">
            <path d="M8.06100218,6.38307916 C8.06099446,6.23849822 8.11847203,6.09984664 8.22076979,5.99767611 L13.1355846,1.08932462 L1.87895788,1.08932462 L6.75744372,5.96141975 C6.85973702,6.06358584 6.91721423,6.20223 6.91721133,6.34680465 L6.91721133,12.6490378 L8.06100218,13.7928286 L8.06100218,6.383061 L8.06100218,6.38307916 Z M9.1503268,6.608878 L9.1503268,15.0689906 C9.1503268,15.3698076 8.90648148,15.6136529 8.60566449,15.6136529 L8.56690269,15.6136529 C8.42245001,15.6136529 8.28391446,15.5562657 8.18177197,15.4541213 L5.9874183,13.2597676 C5.88527385,13.1576251 5.82788867,13.0190896 5.82788671,12.8746369 L5.82788671,6.57262164 L0.177923021,0.930047204 C-0.16550472,0.587037037 0.0774146696,0 0.56281772,0 L14.4517066,0 C14.9371278,0 15.1800472,0.587037037 14.8366013,0.930047204 L9.1503268,6.608878 Z" id="形状"></path>
        </g>
    </g>
</svg>