<?xml version="1.0" encoding="UTF-8"?>
<svg width="12px" height="12px" viewBox="0 0 12 12" version="1.1" xmlns="http://www.w3.org/2000/svg" xmlns:xlink="http://www.w3.org/1999/xlink">
    <title>暗色主题</title>
    <g id="事件中心" stroke="none" stroke-width="1" fill="none" fill-rule="evenodd">
        <g id="Apple-TV" transform="translate(-1231.000000, -408.000000)" fill-rule="nonzero">
            <g id="暗色主题" transform="translate(1231.000000, 408.000000)">
                <rect id="矩形" fill="#000000" opacity="0" x="0" y="0" width="12" height="12"></rect>
                <path d="M6.015,11.5 C5.89,11.5 5.76,11.495 5.63,11.485 C2.9,11.3 0.699999996,9.1 0.515000004,6.37 C0.315,3.445 2.43,0.87 5.33,0.504999996 C5.58863285,0.471371598 5.84012964,0.605482221 5.95631595,0.838982882 C6.07250227,1.07248354 6.02780342,1.35397653 5.845,1.54 C5.14974391,2.25409701 4.8183535,3.24642717 4.945,4.235 C5.125,5.685 6.31,6.87 7.76,7.05 C8.76,7.175 9.74,6.845 10.455,6.15 C10.645,5.97 10.925,5.925 11.155,6.04 C11.39,6.15499999 11.525,6.40999999 11.49,6.665 C11.15,9.445 8.78,11.5 6.015,11.5 Z M4.465,1.735 C2.57464408,2.43048081 1.37055929,4.29059827 1.51,6.3 C1.665,8.535 3.465,10.335 5.7,10.49 C7.745,10.63 9.59,9.38500001 10.265,7.535 C9.46647812,7.97960529 8.54648599,8.15659425 7.64,8.04 C5.745,7.8 4.19500001,6.255 3.955,4.355 C3.84,3.435 4.02499999,2.525 4.465,1.735 L4.465,1.735 Z" id="形状" fill="#595959"></path>
            </g>
        </g>
    </g>
</svg>