<?xml version="1.0" encoding="UTF-8"?>
<svg width="18px" height="18px" viewBox="0 0 18 18" version="1.1" xmlns="http://www.w3.org/2000/svg" xmlns:xlink="http://www.w3.org/1999/xlink">
    <title>7793B93A-B773-4AEF-88DF-B79D992C83A2</title>
    <g id="事件概览" stroke="none" stroke-width="1" fill="none" fill-rule="evenodd">
        <g id="事件跟进" transform="translate(-505.000000, -413.000000)" fill="#666666" fill-rule="nonzero">
            <path d="M507.75,423.666667 C507.860507,423.666667 507.966488,423.710565 508.044628,423.788706 C508.122768,423.866846 508.166667,423.972826 508.166667,424.083333 L508.166667,429.916667 C508.166667,430.027174 508.122768,430.133154 508.044628,430.211294 C507.966488,430.289435 507.860507,430.333333 507.75,430.333333 L506.916667,430.333333 C506.80616,430.333333 506.700179,430.289435 506.622039,430.211294 C506.543899,430.133154 506.5,430.027174 506.5,429.916667 L506.5,424.083333 C506.5,423.972826 506.543899,423.866846 506.622039,423.788706 C506.700179,423.710565 506.80616,423.666667 506.916667,423.666667 L507.75,423.666667 L507.75,423.666667 Z M511.916667,420.333333 C512.027174,420.333333 512.133154,420.377232 512.211294,420.455372 C512.289435,420.533512 512.333333,420.639493 512.333333,420.75 L512.333333,429.916667 C512.333333,430.027174 512.289435,430.133154 512.211295,430.211295 C512.133154,430.289435 512.027174,430.333333 511.916667,430.333333 L511.083333,430.333333 C510.972826,430.333333 510.866846,430.289435 510.788705,430.211295 C510.710565,430.133154 510.666667,430.027174 510.666667,429.916667 L510.666667,420.75 C510.666667,420.639493 510.710565,420.533512 510.788706,420.455372 C510.866846,420.377232 510.972826,420.333333 511.083333,420.333333 L511.916667,420.333333 L511.916667,420.333333 Z M516.083333,423.666667 C516.19384,423.666667 516.299821,423.710565 516.377961,423.788706 C516.456101,423.866846 516.5,423.972826 516.5,424.083333 L516.5,429.916667 C516.5,430.027174 516.456101,430.133154 516.377961,430.211294 C516.299821,430.289435 516.19384,430.333333 516.083333,430.333333 L515.25,430.333333 C515.139493,430.333333 515.033512,430.289435 514.955372,430.211294 C514.877232,430.133154 514.833333,430.027174 514.833333,429.916667 L514.833333,424.083333 C514.833333,423.972826 514.877232,423.866846 514.955372,423.788706 C515.033512,423.710565 515.139493,423.666667 515.25,423.666667 L516.083333,423.666667 L516.083333,423.666667 Z M520.25,422 C520.360507,422 520.466488,422.043899 520.544628,422.122039 C520.622768,422.200179 520.666667,422.30616 520.666667,422.416667 L520.666667,429.916667 C520.666667,430.027174 520.622768,430.133154 520.544628,430.211294 C520.466488,430.289435 520.360507,430.333333 520.25,430.333333 L519.416667,430.333333 C519.30616,430.333333 519.200179,430.289435 519.122039,430.211294 C519.043899,430.133154 519,430.027174 519,429.916667 L519,422.416667 C519,422.186548 519.186548,422 519.416667,422 L520.25,422 L520.25,422 Z M522.005,413.9575 L522.021667,414.030833 L522.513333,417.531667 C522.534898,417.685487 522.469114,417.838533 522.342662,417.92873 C522.216211,418.018928 522.050086,418.031302 521.911667,417.960833 L521.850833,417.9225 L520.521667,416.920833 L517.188333,421.188333 C517.120396,421.275559 517.020578,421.332207 516.910857,421.345805 C516.801135,421.359403 516.690508,421.328835 516.603333,421.260833 L515.995,420.7875 C515.989624,420.78346 515.984344,420.779292 515.979167,420.775 L511.053333,416.926667 L507.2025,421.850833 C507.06114,422.031412 506.80043,422.063814 506.619167,421.923333 L505.955833,421.409167 C505.868227,421.341597 505.81109,421.241959 505.797021,421.13222 C505.782952,421.02248 505.813105,420.911651 505.880833,420.824167 L505.8825,420.8225 L510.5075,414.92 L510.510833,414.916667 C510.652504,414.735824 510.913817,414.703765 511.095,414.845 L516.6425,419.178333 L519.19,415.9175 L517.856667,414.913333 C517.732075,414.819736 517.670124,414.664439 517.696084,414.510784 C517.722044,414.35713 517.831575,414.230804 517.98,414.183333 L518.05,414.168333 L521.551667,413.676667 C521.750739,413.648658 521.941424,413.766785 522.005,413.9575 L522.005,413.9575 Z" id="等级"></path>
        </g>
    </g>
</svg>