<?xml version="1.0" encoding="UTF-8"?>
<svg width="17px" height="17px" viewBox="0 0 17 17" version="1.1" xmlns="http://www.w3.org/2000/svg" xmlns:xlink="http://www.w3.org/1999/xlink">
    <title>6DA07FF1-DE11-4E43-B4E9-876D48273BDA</title>
    <g id="事件概览" stroke="none" stroke-width="1" fill="none" fill-rule="evenodd">
        <g id="事件跟进" transform="translate(-313.000000, -166.000000)" fill="#FFFFFF" fill-rule="nonzero">
            <g id="待处理" transform="translate(313.000000, 166.000000)">
                <path d="M13.1454381,0 C14.3275774,0 15.2881338,0.971060023 15.30724,2.17638505 L15.3075221,2.21296489 L15.3075221,6.81798188 L15.2617124,8.25643601 C14.5124712,7.79177576 13.6326084,7.52414609 12.6914027,7.52414609 C9.95696018,7.52414609 7.74024668,9.78312458 7.74024668,12.5697384 C7.74024668,14.4250102 8.72282412,16.0464213 10.1866294,16.9229706 L7.86041261,16.9071835 L2.16208407,16.9071835 C0.97994469,16.9071835 0.0193882743,15.9361042 0.000282079646,14.7307984 L-2.84217094e-14,14.6941993 L-2.84217094e-14,2.21296489 C-2.84217094e-14,1.003 0.948727876,0.0198301246 2.12631637,0.000288788222 L2.16208407,0 L13.1454381,0 Z M5.44857522,11.2862095 L2.98353761,11.2862095 C2.67315597,11.2862095 2.42152212,11.5438086 2.42152212,11.8615912 C2.42152212,12.1793545 2.67313717,12.4369536 2.98353761,12.4369536 L5.44857522,12.4369536 C5.75895686,12.4369536 6.0105719,12.1793545 6.0105719,11.8615912 C6.0105719,11.5438086 5.75895686,11.2862095 5.44857522,11.2862095 Z M7.09174558,7.12581087 L2.98353761,7.12581087 C2.67315597,7.12581087 2.42152212,7.38340997 2.42152212,7.70117327 C2.42152212,8.01895583 2.67313717,8.27655493 2.98353761,8.27655493 L7.09174558,8.27655493 C7.40214602,8.27655493 7.65376106,8.01895583 7.65376106,7.70117327 C7.65376106,7.38340997 7.40214602,7.12581087 7.09174558,7.12581087 Z M11.0844889,2.96539298 L2.98366925,2.96539298 L2.9703927,2.965547 C2.66606637,2.9727667 2.42152212,3.22753567 2.42152212,3.54077463 C2.42152212,3.85853794 2.67321239,4.11613703 2.98366925,4.11613703 L11.0844889,4.11613703 L11.0977655,4.11598301 C11.4020918,4.10878256 11.6466361,3.85399434 11.6466361,3.54077463 C11.6466361,3.22299207 11.3949646,2.96539298 11.0844889,2.96539298 Z" id="形状" opacity="0.5"></path>
                <path d="M12.6935841,8.18233296 C15.071948,8.18233296 17,10.156239 17,12.5911665 C17,15.026094 15.071948,17 12.6935841,17 C10.3152201,17 8.38716814,15.026094 8.38716814,12.5911665 C8.38716814,10.156239 10.3152201,8.18233296 12.6935841,8.18233296 Z M13.1480332,10.1762809 C12.9089989,10.1762809 12.715229,10.3746591 12.715229,10.6193783 L12.7152102,12.7308822 L11.4757522,14.232658 L11.4676471,14.2427656 C11.3223385,14.4295153 11.3476692,14.7019773 11.5269967,14.8571144 C11.7095774,15.015043 11.9826493,14.9915549 12.1369281,14.8046319 L13.4308086,13.2369547 C13.5226914,13.1557089 13.5808374,13.035573 13.5808374,12.9014983 L13.5808374,12.8960306 L13.5808374,10.6193783 L13.5806681,10.6069796 C13.5742555,10.3679977 13.3830243,10.1762809 13.1480332,10.1762809 L13.1480332,10.1762809 Z" id="形状"></path>
            </g>
        </g>
    </g>
</svg>