<?xml version="1.0" encoding="UTF-8"?>
<svg width="21px" height="21px" viewBox="0 0 21 21" version="1.1" xmlns="http://www.w3.org/2000/svg" xmlns:xlink="http://www.w3.org/1999/xlink">
    <!-- Generator: Sketch 63.1 (92452) - https://sketch.com -->
    <title>度量</title>
    <desc>Created with Sketch.</desc>
    <g id="页面-1" stroke="none" stroke-width="1" fill="none" fill-rule="evenodd">
        <g id="Apple-TV" transform="translate(-300.000000, -308.000000)">
            <g id="度量" transform="translate(300.000000, 307.370801)">
                <polygon id="路径-2备份" fill="#FFFFFF" transform="translate(19.500000, 1.924238) rotate(-309.000000) translate(-19.500000, -1.924238) " points="18 2.92423783 21 2.92423783 19.5 0.924237834"></polygon>
                <path d="M2.5,1.1291985 C2.75641792,1.1291985 2.96775358,1.32716783 2.99663613,1.58221331 L3,1.64201901 L3,20.616378 C3,20.8996009 2.77614237,21.1291985 2.5,21.1291985 C2.24358208,21.1291985 2.03224642,20.9312292 2.00336387,20.6761837 L2,20.616378 L2,1.64201901 C2,1.35879606 2.22385763,1.1291985 2.5,1.1291985 Z" id="直线-14备份" fill="#FFFFFF" fill-rule="nonzero"></path>
                <path d="M19.4871795,18.1291985 C19.7704024,18.1291985 20,18.3530561 20,18.6291985 C20,18.8856164 19.8020307,19.0969521 19.5469852,19.1258346 L19.4871795,19.1291985 L0.512820513,19.1291985 C0.229597564,19.1291985 0,18.9053409 0,18.6291985 C0,18.3727806 0.197969328,18.1614449 0.453014807,18.1325624 L0.512820513,18.1291985 L19.4871795,18.1291985 Z" id="直线-14备份-2" fill="#FFFFFF" fill-rule="nonzero"></path>
                <polyline id="路径备份" stroke="#FFFFFF" stroke-linecap="round" stroke-linejoin="round" points="4.51613229 6.49496179 7.22873979 7.77098013 10.3161993 5.1291985 13.4822421 6.49496179 19 2.29825152"></polyline>
                <path d="M19,4.6291985 L19,6.6291985 L14.2989223,10.3778757 L10.6610146,8.97507882 L7.27812686,11.5244954 L4,10.1640967 L4,8.16430347 L7.27812686,9.52478167 L10.6610146,6.97521601 L14.2989223,8.37809496 L19,4.6291985 Z" id="形状结合备份-2" fill="#FFFFFF"></path>
                <path d="M19,7.6291985 L19,9.6291985 L14.2989223,13.3778757 L10.6610146,11.9750788 L7.27812686,14.5244954 L4,13.1640967 L4,11.1643035 L7.27812686,12.5247817 L10.6610146,9.97521601 L14.2989223,11.378095 L19,7.6291985 Z" id="形状结合备份-2" fill="#FFFFFF"></path>
                <path d="M19,10.6291985 L19,16.6291985 L4,16.6291985 L4,14.1643035 L7.27812686,15.5247817 L10.6610146,12.975216 L14.2989223,14.378095 L19,10.6291985 Z" id="形状结合备份-2" fill="#FFFFFF"></path>
            </g>
        </g>
    </g>
</svg>