<?xml version="1.0" encoding="UTF-8"?>
<svg width="16px" height="16px" viewBox="0 0 16 16" version="1.1" xmlns="http://www.w3.org/2000/svg" xmlns:xlink="http://www.w3.org/1999/xlink">
    <title>编组</title>
    <g id="页面-1" stroke="none" stroke-width="1" fill="none" fill-rule="evenodd">
        <g id="选择器构件新增" transform="translate(-1483.000000, -423.000000)">
            <g id="编组" transform="translate(1483.000000, 423.000000)">
                <rect id="矩形" x="0" y="0" width="16" height="16"></rect>
                <path d="M2.044,11 L2.647,9.344 L5.41,9.344 L6.013,11 L7.066,11 L4.591,4.574 L3.475,4.574 L1,11 L2.044,11 Z M5.113,8.534 L2.944,8.534 L4.015,5.627 L4.051,5.627 L5.113,8.534 Z M9.937,11.126 C10.621,11.126 11.152,10.883 11.548,10.397 C11.908,9.947 12.088,9.362 12.088,8.651 C12.088,7.967 11.908,7.4 11.557,6.95 C11.17,6.464 10.648,6.221 9.982,6.221 C9.406,6.221 8.938,6.491 8.56,7.04 L8.56,4.448 L7.606,4.448 L7.606,11 L8.497,11 L8.497,10.442 C8.821,10.892 9.298,11.126 9.937,11.126 Z M9.793,10.352 C9.379,10.352 9.055,10.181 8.83,9.857 C8.632,9.56 8.533,9.182 8.533,8.714 L8.533,8.633 C8.533,8.129 8.65,7.724 8.902,7.418 C9.118,7.13 9.406,6.995 9.766,6.995 C10.234,6.995 10.585,7.148 10.81,7.472 C11.008,7.742 11.107,8.138 11.107,8.651 C11.107,9.164 11.008,9.56 10.828,9.848 C10.603,10.181 10.261,10.352 9.793,10.352 Z M14.05,11 L14.05,4.448 L13.096,4.448 L13.096,11 L14.05,11 Z" id="Abl" fill="#595959" fill-rule="nonzero"></path>
                <rect id="矩形" fill="#595959" x="1" y="2" width="14" height="1"></rect>
                <rect id="矩形备份" fill="#595959" x="1" y="13" width="14" height="1"></rect>
            </g>
        </g>
    </g>
</svg>