<?xml version="1.0" encoding="UTF-8"?>
<svg width="66px" height="66px" viewBox="0 0 66 66" version="1.1" xmlns="http://www.w3.org/2000/svg" xmlns:xlink="http://www.w3.org/1999/xlink">
    <title>上传</title>
    <g id="数据录入" stroke="none" stroke-width="1" fill="none" fill-rule="evenodd">
        <g id="Icon/upload-1" transform="translate(8.000000, 8.000000)">
            <path d="M42.6482474,21.508133 L37.9395231,17.2095477 C36.3417974,15.9146151 33.9196047,14.8648649 32.5294042,14.8648649 L10.713839,14.8648649 C9.32363859,14.8648649 6.90144587,15.9146151 5.30372018,17.2095477 L0.759016353,21.508133" id="形状" stroke="#262626" stroke-linecap="round"></path>
            <path d="M50,32.4324324 L50,33.7837838 L48.6486486,33.7837838 L48.6486486,32.4324324 L50,32.4324324 Z M41.8918919,32.4324324 L41.8918919,33.7837838 L40.5405405,33.7837838 L40.5405405,32.4324324 L41.8918919,32.4324324 Z M33.7837838,32.4324324 L33.7837838,33.7837838 L32.4324324,33.7837838 L32.4324324,32.4324324 L33.7837838,32.4324324 Z M25.6756757,32.4324324 L25.6756757,33.7837838 L24.3243243,33.7837838 L24.3243243,32.4324324 L25.6756757,32.4324324 Z M17.5675676,32.4324324 L17.5675676,33.7837838 L16.2162162,33.7837838 L16.2162162,32.4324324 L17.5675676,32.4324324 Z M50,24.3243243 L50,25.6756757 L48.6486486,25.6756757 L48.6486486,24.3243243 L50,24.3243243 Z M41.8918919,24.3243243 L41.8918919,25.6756757 L40.5405405,25.6756757 L40.5405405,24.3243243 L41.8918919,24.3243243 Z M33.7837838,24.3243243 L33.7837838,25.6756757 L32.4324324,25.6756757 L32.4324324,24.3243243 L33.7837838,24.3243243 Z M25.6756757,24.3243243 L25.6756757,25.6756757 L24.3243243,25.6756757 L24.3243243,24.3243243 L25.6756757,24.3243243 Z M17.5675676,24.3243243 L17.5675676,25.6756757 L16.2162162,25.6756757 L16.2162162,24.3243243 L17.5675676,24.3243243 Z M50,16.2162162 L50,17.5675676 L48.6486486,17.5675676 L48.6486486,16.2162162 L50,16.2162162 Z M41.8918919,16.2162162 L41.8918919,17.5675676 L40.5405405,17.5675676 L40.5405405,16.2162162 L41.8918919,16.2162162 Z M33.7837838,16.2162162 L33.7837838,17.5675676 L32.4324324,17.5675676 L32.4324324,16.2162162 L33.7837838,16.2162162 Z M25.6756757,16.2162162 L25.6756757,17.5675676 L24.3243243,17.5675676 L24.3243243,16.2162162 L25.6756757,16.2162162 Z M17.5675676,16.2162162 L17.5675676,17.5675676 L16.2162162,17.5675676 L16.2162162,16.2162162 L17.5675676,16.2162162 Z M50,8.10810811 L50,9.45945946 L48.6486486,9.45945946 L48.6486486,8.10810811 L50,8.10810811 Z M41.8918919,8.10810811 L41.8918919,9.45945946 L40.5405405,9.45945946 L40.5405405,8.10810811 L41.8918919,8.10810811 Z M33.7837838,8.10810811 L33.7837838,9.45945946 L32.4324324,9.45945946 L32.4324324,8.10810811 L33.7837838,8.10810811 Z M25.6756757,8.10810811 L25.6756757,9.45945946 L24.3243243,9.45945946 L24.3243243,8.10810811 L25.6756757,8.10810811 Z M17.5675676,8.10810811 L17.5675676,9.45945946 L16.2162162,9.45945946 L16.2162162,8.10810811 L17.5675676,8.10810811 Z M50,0 L50,1.35135135 L48.6486486,1.35135135 L48.6486486,0 L50,0 Z M41.8918919,0 L41.8918919,1.35135135 L40.5405405,1.35135135 L40.5405405,0 L41.8918919,0 Z M33.7837838,0 L33.7837838,1.35135135 L32.4324324,1.35135135 L32.4324324,0 L33.7837838,0 Z M25.6756757,0 L25.6756757,1.35135135 L24.3243243,1.35135135 L24.3243243,0 L25.6756757,0 Z M17.5675676,0 L17.5675676,1.35135135 L16.2162162,1.35135135 L16.2162162,0 L17.5675676,0 Z" id="形状结合" fill="#595959"></path>
            <path d="M23.6695005,23.6756757 L21.9094439,13.0429722 C21.765134,12.1711798 22.3548751,11.3474662 23.2266675,11.2031564 C23.2774734,11.1947464 23.3286557,11.1887941 23.3800357,11.1853203 L36.8055856,10.2776333 C37.6872285,10.2180264 38.4502623,10.8844182 38.5098692,11.7660612 C38.5122981,11.8019859 38.5135135,11.8379823 38.5135135,11.873989 L38.5135135,23.6756757 L38.5135135,23.6756757 L23.6695005,23.6756757 Z" id="路径-4" fill="#EAF4FD" transform="translate(30.067568, 16.918919) scale(-1, 1) translate(-30.067568, -16.918919) "></path>
            <path d="M6.6471867,23.0410954 L4.4277129,10.0482066 C4.24172203,8.95940854 4.97359184,7.92598794 6.06238988,7.73999707 C6.13059567,7.72834601 6.19936014,7.72024235 6.26840588,7.7157188 L23.3127118,6.59905618 C24.4149183,6.5268448 25.3669722,7.36182086 25.4391836,8.46402742 C25.4420351,8.50755253 25.443462,8.55115928 25.443462,8.59477769 L25.443462,23.0410954 L25.443462,23.0410954 L6.6471867,23.0410954 Z" id="路径-4" fill="#D7EAFF"></path>
            <path d="M19.5945946,24.8461707 L19.5945946,16.5675676 C19.5945946,16.0152828 20.0423098,15.5675676 20.5945946,15.5675676 L31.7331972,15.5675676 C32.285482,15.5675676 32.7331972,16.0152828 32.7331972,16.5675676 C32.7331972,16.5796993 32.7329764,16.5918301 32.732535,16.6039539 L32.4324324,24.8461707 L32.4324324,24.8461707 L19.5945946,24.8461707 Z" id="路径-4" fill="#9DCAF8" transform="translate(26.182432, 20.206869) scale(-1, 1) translate(-26.182432, -20.206869) "></path>
            <path d="M42.7432432,22.008133 L0.5,22.008133 L0.5,43.8865114 C0.5,45.4052944 1.11560847,46.7802944 2.1109127,47.7755987 C3.10621694,48.7709029 4.48121694,49.3865114 6,49.3865114 L37.2432432,49.3865114 C38.7620263,49.3865114 40.1370263,48.7709029 41.1323305,47.7755987 C42.1276348,46.7802944 42.7432432,45.4052944 42.7432432,43.8865114 L42.7432432,22.008133 Z" id="矩形" stroke="#262626" fill="#FFFFFF"></path>
            <g id="Arrow" transform="translate(15.243243, 30.081081)" stroke="#0071EB" stroke-linecap="round" stroke-linejoin="round" stroke-width="3">
                <line x1="6.06081081" y1="0.838452088" x2="6.06081081" y2="10.8599509" id="Path"></line>
                <g id="Group">
                    <line x1="10.9398034" y1="5.22235872" x2="6.06081081" y2="0.662776413" id="Path"></line>
                    <line x1="1.48525799" y1="5.22235872" x2="6.06081081" y2="0.662776413" id="Path"></line>
                </g>
            </g>
            <line x1="9" y1="13.2768406" x2="19" y2="12" id="路径-3" stroke="#9DCAF8" stroke-linecap="round"></line>
            <line x1="10" y1="16.6652609" x2="16.5625" y2="15.8884203" id="路径-3备份" stroke="#9DCAF8" stroke-linecap="round"></line>
        </g>
    </g>
</svg>