<?xml version="1.0" encoding="UTF-8"?>
<svg width="16px" height="16px" viewBox="0 0 16 16" version="1.1" xmlns="http://www.w3.org/2000/svg" xmlns:xlink="http://www.w3.org/1999/xlink">
    <title>Aa</title>
    <g id="页面-1" stroke="none" stroke-width="1" fill="none" fill-rule="evenodd">
        <g id="选择器构件新增" transform="translate(-1462.000000, -423.000000)" fill-rule="nonzero">
            <g id="Aa" transform="translate(1462.000000, 423.000000)">
                <rect id="矩形" fill="#000000" opacity="0" x="0" y="0" width="16" height="16"></rect>
                <path d="M11,14 L9.414,14 L8.281,10.715 L3.654,10.715 L2.584,14 L1,14 L5.232,2 L6.767,2 L11,14 Z M7.835,9.359 L6.157,4.37 C6.104,4.211 6.047,3.931 5.985,3.534 L5.949,3.534 C5.896,3.896 5.836,4.174 5.77,4.37 L4.105,9.359 L7.835,9.359 L7.835,9.359 Z M11.485,9.445 C11.98,9.148 12.552,9 13.199,9 C14.399,9 14.999,9.604 14.999,10.813 L14.999,13.887 L14.126,13.887 L14.126,13.149 L14.104,13.149 C13.759,13.717 13.251,14 12.579,14 C12.095,14 11.712,13.875 11.427,13.624 C11.142,13.374 10.999,13.035 10.999,12.61 C10.999,11.716 11.55,11.198 12.65,11.05 L14.126,10.852 C14.126,10.072 13.79,9.682 13.118,9.682 C12.521,9.682 11.977,9.874 11.485,10.26 L11.485,9.445 L11.485,9.445 Z M12.961,11.643 C12.553,11.695 12.272,11.792 12.117,11.937 C11.962,12.081 11.886,12.282 11.886,12.541 C11.886,12.768 11.97,12.953 12.138,13.098 C12.306,13.242 12.528,13.314 12.803,13.314 C13.188,13.314 13.504,13.184 13.753,12.925 C14.001,12.666 14.126,12.341 14.126,11.949 L14.126,11.491 L12.961,11.643 Z" id="形状" fill="#595959"></path>
            </g>
        </g>
    </g>
</svg>