<?xml version="1.0" encoding="UTF-8"?>
<svg width="17px" height="16px" viewBox="0 0 17 16" version="1.1" xmlns="http://www.w3.org/2000/svg" xmlns:xlink="http://www.w3.org/1999/xlink">
    <!-- Generator: Sketch 61 (89581) - https://sketch.com -->
    <title>配置实例</title>
    <desc>Created with Sketch.</desc>
    <g id="页面-1" stroke="none" stroke-width="1" fill="none" fill-rule="evenodd">
        <g id="编组" transform="translate(1.000000, 1.000000)" fill-rule="nonzero" stroke="#595959">
            <g id="编组-3" transform="translate(-0.000000, -0.000000)">
                <path d="M7.62102673,10.0653384 C6.4849102,10.0654277 5.43505702,9.45936807 4.86697296,8.47547719 C4.29888891,7.49158631 4.29888891,6.27935697 4.86697296,5.29546608 C5.43505702,4.3115752 6.4849102,3.70551557 7.62102673,3.70560492 C9.37712096,3.70574303 10.8006434,5.1293774 10.8006434,6.88547164 C10.8006434,8.64156588 9.37712096,10.0652002 7.62102673,10.0653384 L7.62102673,10.0653384 Z" id="路径"></path>
                <path d="M14.9601591,7.94542722 L12.2085144,12.7099275 C11.8298384,13.3658137 11.1300234,13.7698833 10.3726714,13.7698833 L4.87150196,13.7698833 C4.11377123,13.7702427 3.41346427,13.3661417 3.03459895,12.7099275 L0.284014241,7.94542722 C-0.0946714135,7.28952443 -0.0946714135,6.48141887 0.284014241,5.82551607 L3.03459895,1.05995582 C3.41327499,0.404069682 4.11308995,1.62536651e-13 4.87044202,1.62536651e-13 L10.3716114,1.62536651e-13 C11.1293422,-0.000359325614 11.8296491,0.403741633 12.2085144,1.05995582 L14.9590992,5.82551607 C15.3377848,6.48141887 15.3377848,7.28952443 14.9590992,7.94542722 L14.9601591,7.94542722 Z" id="路径"></path>
            </g>
        </g>
    </g>
</svg>