<?xml version="1.0" encoding="UTF-8"?>
<svg width="16px" height="16px" viewBox="0 0 16 16" version="1.1" xmlns="http://www.w3.org/2000/svg" xmlns:xlink="http://www.w3.org/1999/xlink">
    <!-- Generator: Sketch 59.1 (86144) - https://sketch.com -->
    <title>A5B7E615-D697-4A93-AB16-F395E8CD451F</title>
    <desc>Created with Sketch.</desc>
    <g id="组件" stroke="none" stroke-width="1" fill="none" fill-rule="evenodd">
        <g id="List/Icon/IT资源管理" transform="translate(-2.000000, -2.000000)">
            <g id="IT资源管理">
                <rect id="矩形" fill="#D8D8D8" opacity="0" x="0" y="0" width="20" height="20"></rect>
                <path d="M2.12777363,11.4330062 C3.39058607,12.7972515 5.12290293,13.7206001 7.0679578,13.9462857 C7.25700013,14.5563813 7.82669372,15 8.5,15 C8.83459058,15 9.14359441,14.8904501 9.39309991,14.7052619 C10.6096459,15.9021676 12.2081576,16.7121565 13.9890091,16.936728 C12.8149172,17.6128113 11.452675,18 10,18 C6.08190442,18 2.82167718,15.1833308 2.13372664,11.4644006 Z M14.5,12 C14.5528783,12 14.6051176,11.9972638 14.6565839,11.9919254 C15.2606016,13.0320116 15.6818457,14.1919061 15.8769902,15.4269863 C15.6939501,15.625936 15.50114,15.8146383 15.2992354,15.9932954 L15.2406498,15.995941 L15.2406498,15.995941 L15,16 C13.0189786,16 11.2301598,15.1770829 9.9567358,13.854441 C9.9661142,13.8203711 9.97305136,13.7866395 9.97883611,13.7525158 C11.3695988,13.3996033 12.6153011,12.6810578 13.6076763,11.705611 C13.8564056,11.8904501 14.1654094,12 14.5,12 Z M15.8722264,4.56699377 C17.1928519,5.99369582 18,7.90258814 18,10 C18,11.6217255 17.5174521,13.1307458 16.6881067,14.3913105 C16.4439826,13.3850313 16.0612693,12.4338295 15.5616708,11.557928 C15.832518,11.2882944 16,10.9137059 16,10.5 C16,9.97222579 15.7274282,9.50811412 15.3153766,9.24075685 C15.755671,8.25087437 16,7.15397023 16,6 C16,5.58318132 15.9681228,5.17380796 15.9066733,4.77418481 Z M6,7 C6.02908521,7 6.05814143,7.00012417 6.08716814,7.00037201 C6.24516456,7.45041659 6.61190673,7.80088664 7.07075499,7.9376825 C7.02383645,8.28469583 7,8.63956426 7,9 C7,10.1539702 7.244329,11.2508744 7.68407748,12.2418029 C7.4259732,12.4085805 7.22228136,12.6539301 7.10646604,12.9438874 C4.94392677,12.6681397 3.08915476,11.4055596 2.00854685,9.62173309 C2.03989979,8.9538294 2.15282816,8.30761301 2.33778303,7.69258187 C3.47190047,7.24528297 4.70730578,7 6,7 Z M8.7174429,7.37364794 C10.401039,7.84795878 11.9045342,8.75205206 13.1020055,9.96000498 C13.0353586,10.1280822 13,10.3099119 13,10.5 C13,10.6218275 13.0145236,10.7402629 13.0419339,10.853669 C12.1713124,11.7600938 11.0577151,12.4314479 9.80622953,12.7647459 C9.57714433,12.3570202 9.16432825,12.0688563 8.68074582,12.0107784 C8.24378137,11.0995217 8,10.0782299 8,9 C8,8.61812207 8.03057925,8.24338632 8.08942267,7.87810781 C8.33060531,7.7763296 8.53827223,7.6126823 8.69433907,7.40763219 Z M12.5865033,2.42736265 C13.2677095,2.65997273 13.9075252,2.98191568 14.49198,3.3792208 C14.8197366,4.18773911 15,5.07281817 15,6 C15,7.07822994 14.7562186,8.09952169 14.3207667,9.01176447 C14.1159909,9.03508584 13.9245557,9.10043398 13.7541566,9.19827771 C12.4490603,7.90041534 10.8186718,6.92773028 8.99614799,6.41297625 L9,6.5 C9,6.22702376 8.92708209,5.97107842 8.79966169,5.75057938 C9.58358304,4.25461439 10.8948301,3.07741259 12.4863645,2.46486043 Z M10,2 C10.3424485,2 10.6798716,2.02151674 11.0109909,2.06327203 C9.76087812,2.78445077 8.7239456,3.83308279 8.01773501,5.09220305 C7.85695897,5.03251209 7.68227629,5 7.5,5 C6.84640931,5 6.29045224,5.41801921 6.0848982,6.00128821 L6,6 C4.89416387,6 3.82644027,6.16317914 2.81959466,6.46677197 C4.1247464,3.82088208 6.8497283,2 10,2 Z" id="形状结合" fill="#8C8C8C" fill-rule="nonzero"></path>
            </g>
        </g>
    </g>
</svg>