<?xml version="1.0" encoding="UTF-8"?>
<svg width="16px" height="14px" viewBox="0 0 16 14" version="1.1" xmlns="http://www.w3.org/2000/svg" xmlns:xlink="http://www.w3.org/1999/xlink">
    <!-- Generator: Sketch 59.1 (86144) - https://sketch.com -->
    <title>8A0A6A43-EA56-4C1F-A2C2-52E552FB8516</title>
    <desc>Created with Sketch.</desc>
    <g id="组件" stroke="none" stroke-width="1" fill="none" fill-rule="evenodd">
        <g id="List/Icon/IT资源监控" transform="translate(-2.000000, -3.000000)">
            <g id="IT资源监控">
                <rect id="矩形" fill="#D8D8D8" opacity="0" x="0" y="0" width="20" height="20"></rect>
                <g id="编组-5备份" transform="translate(2.000000, 3.000000)" fill="#8C8C8C" fill-rule="nonzero">
                    <path d="M7.99036067,-3.41060513e-13 C11.2398045,-3.41060513e-13 14.1655934,1.96788244 15.3907678,4.97750578 C16.6159422,7.98712912 15.8964396,11.4389573 13.5708784,13.7084617 L2.40984296,13.7084617 C0.0842817785,11.4389573 -0.635220823,7.98712912 0.589953577,4.97750578 C1.81512798,1.96788244 4.74091688,-3.41060513e-13 7.99036067,-3.41060513e-13 Z M5.70747348,5.70922503 L6.86147296,9.31732823 C6.8700805,9.4730239 6.91841494,9.62392167 7.00187052,9.75564257 C7.35454691,10.2532474 8.02091709,10.4132543 8.56108246,10.1300361 C8.81558076,10.0150317 9.00773726,9.79536237 9.08786627,9.52782783 C9.16799527,9.26029328 9.12822938,8.97116113 8.97885081,8.73519199 C8.88761708,8.59529924 8.76606494,8.48312733 8.62386186,8.40303191 L5.70747348,5.70922503 Z M14.554791,7.54165964 L13.4201762,7.62871885 C13.1049257,7.65290808 12.8689005,7.92796187 12.8928609,8.24322981 C12.9144058,8.52671564 13.139109,8.74617477 13.4134577,8.76978035 L13.5069276,8.77018427 L13.5069276,8.77018427 L14.6426805,8.68308141 C14.9262811,8.66133159 15.1456859,8.43637472 15.1691136,8.16188435 L15.1694701,8.06858894 L15.1694701,8.06858894 C15.1451978,7.75336324 14.8700232,7.51747182 14.554791,7.54165964 Z M3.09232773,7.25097029 L2.9988578,7.25056637 L2.9988578,7.25056637 L1.86310491,7.33766923 C1.57950431,7.35941905 1.36009945,7.58437592 1.33667184,7.85886628 L1.33630853,7.95207427 L1.33630853,7.95207427 C1.36058764,8.2673874 1.6357622,8.50327882 1.9509944,8.479091 L3.08560919,8.39203179 C3.40085966,8.36784256 3.63688486,8.09278877 3.6129245,7.77752083 C3.59137957,7.494035 3.36667643,7.27457587 3.09232773,7.25097029 Z M12.3826759,3.22026049 L11.6409389,4.08638088 C11.4358792,4.32582743 11.4636152,4.68613925 11.702906,4.89138071 C11.9154,5.07363849 12.2234635,5.07210147 12.4333048,4.90161324 L12.5072945,4.82946066 L12.5072945,4.82946066 L13.2487497,3.96366915 C13.4538093,3.7242226 13.4260733,3.36391078 13.1867826,3.15866933 C12.9477267,2.95362932 12.5877159,2.98120462 12.3826759,3.22026049 Z M3.40518177,3.07762684 C3.20030115,3.31686435 3.22815293,3.67689323 3.46739044,3.88177385 L4.33346404,4.62347061 C4.57291059,4.82853024 4.93322241,4.80079423 5.13846386,4.56150351 C5.32066236,4.34907853 5.31912583,4.04111528 5.14869306,3.83134222 L5.07642307,3.75725596 L5.07642307,3.75725596 L4.20944944,3.01527721 C3.97012248,2.81045493 3.6100819,2.83836653 3.40518177,3.07762684 Z M8.3124008,1.09036179 C7.99702206,1.11464593 7.76113064,1.38982049 7.78531847,1.70505269 L7.87237434,2.83962408 C7.89413584,3.1232347 8.1191097,3.34263935 8.39361145,3.36605736 L8.48688863,3.36641207 L8.48688863,3.36641207 C8.80211433,3.34213969 9.03800575,3.06696514 9.01381793,2.75173294 L8.92676205,1.61716154 C8.90258261,1.30203863 8.62752371,1.06618235 8.3124008,1.09036179 Z" id="形状结合"></path>
                </g>
            </g>
        </g>
    </g>
</svg>