<?xml version="1.0" encoding="UTF-8"?>
<svg width="18px" height="12px" viewBox="0 0 18 12" version="1.1" xmlns="http://www.w3.org/2000/svg" xmlns:xlink="http://www.w3.org/1999/xlink">
    <!-- Generator: Sketch 61 (89581) - https://sketch.com -->
    <title>显示选项</title>
    <desc>Created with Sketch.</desc>
    <g id="页面-1" stroke="none" stroke-width="1" fill="none" fill-rule="evenodd">
        <g id="编组" fill="#595959" fill-rule="nonzero">
            <path d="M8.81735001,8.68700815e-16 C12.4924136,0.045824579 15.8460138,2.10437454 17.5504055,5.36063638 C17.6627982,5.55530618 17.6627982,5.79514926 17.5504055,5.98981906 C15.839263,9.23633605 12.4869836,11.2844145 8.81735001,11.3252881 C5.14228641,11.2794636 1.78868623,9.22091359 0.0842944947,5.96465175 C-0.0280981649,5.76998195 -0.0280981649,5.53013887 0.0842944947,5.33546908 C1.79543701,2.08895209 5.14771643,0.0408735947 8.81735001,8.68700815e-16 Z M8.81735001,1.25836535 C5.72581055,1.29652721 2.88705272,2.97343057 1.36153532,5.66264407 C2.88705272,8.35185757 5.72581055,10.0287609 8.81735001,10.0669228 C11.9088895,10.0287609 14.7476473,8.35185757 16.2731647,5.66264407 C14.7476473,2.97343057 11.9088895,1.29652721 8.81735001,1.25836535 Z" id="形状"></path>
            <path d="M11.3340807,5.66264407 C11.3340807,7.05259605 10.207302,8.17937476 8.81735001,8.17937476 C7.42739803,8.17937476 6.30061932,7.05259605 6.30061932,5.66264407 C6.30061932,4.27269208 7.42739803,3.14591337 8.81735001,3.14591337 C10.207302,3.14591337 11.3340807,4.27269208 11.3340807,5.66264407" id="路径"></path>
        </g>
    </g>
</svg>