<?xml version="1.0" encoding="UTF-8"?>
<svg width="16px" height="16px" viewBox="0 0 16 16" version="1.1" xmlns="http://www.w3.org/2000/svg" xmlns:xlink="http://www.w3.org/1999/xlink">
    <title>key</title>
    <g id="页面-1" stroke="none" stroke-width="1" fill="none" fill-rule="evenodd">
        <g id="选择器构件新增" transform="translate(-1504.000000, -423.000000)">
            <g id="key" transform="translate(1504.000000, 423.000000)">
                <rect id="矩形" x="0" y="0" width="16" height="16"></rect>
                <path d="M1.90164048,10.8289474 L1.90164048,8.12061404 L2.67093007,7.14473684 L5.06979007,10.8289474 L6.27749201,10.8289474 L3.28305297,6.36622807 L5.89698318,3 L4.75545669,3 L1.90164048,6.78289474 L1.90164048,3 L1,3 L1,10.8289474 L1.90164048,10.8289474 Z M8.52113166,10.9824561 C9.0918949,10.9824561 9.56339497,10.7631579 9.93563186,10.3355263 C10.2334214,9.98464912 10.4236758,9.53508772 10.522939,9.00877193 L9.64611428,9.00877193 C9.53030724,9.3377193 9.40622828,9.58991228 9.25733352,9.74342105 C9.0670791,9.92982456 8.81892117,10.0285088 8.51285972,10.0285088 C8.16543862,10.0285088 7.8924649,9.875 7.69393855,9.58991228 C7.49541221,9.29385965 7.3878771,8.86622807 7.35478938,8.31798246 L10.5973863,8.31798246 C10.5891144,7.30921053 10.4154039,6.51973684 10.0845266,5.9495614 C9.72056166,5.31359649 9.18288614,5.00657895 8.48804393,5.00657895 C7.85937717,5.00657895 7.35478938,5.29166667 6.99082441,5.87280702 C6.61031558,6.44298246 6.4283331,7.14473684 6.4283331,7.98903509 C6.4283331,8.92105263 6.62685945,9.65570175 7.02391214,10.2039474 C7.3878771,10.7192982 7.8924649,10.9824561 8.52113166,10.9824561 Z M9.679202,7.44078947 L7.37133324,7.44078947 C7.42096483,6.95833333 7.54504379,6.59649123 7.72702628,6.34429825 C7.92555262,6.08114035 8.18198248,5.96052632 8.51285972,5.96052632 C9.20770193,5.96052632 9.59648269,6.45394737 9.679202,7.44078947 Z M12.6755874,13 L15,5.16008772 L14.040456,5.16008772 L12.9154734,9.29385965 L11.7408592,5.16008772 L10.7895871,5.16008772 L12.485333,10.6973684 L11.7408592,13 L12.6755874,13 Z" id="Key" stroke="#595959" stroke-width="0.25" fill="#595959" fill-rule="nonzero"></path>
            </g>
        </g>
    </g>
</svg>