<?xml version="1.0" encoding="UTF-8"?>
<svg width="16px" height="16px" viewBox="0 0 16 16" version="1.1" xmlns="http://www.w3.org/2000/svg" xmlns:xlink="http://www.w3.org/1999/xlink">
    <title>语言</title>
    <g id="布局" stroke="none" stroke-width="1" fill="none" fill-rule="evenodd">
        <g id="顶栏中英文切换" transform="translate(-1804.000000, -131.000000)" fill="#595959" fill-rule="nonzero">
            <path d="M1811.98403,131 C1807.58164,131 1804,134.581701 1804,138.984032 C1804,143.386363 1807.58164,146.968064 1811.98403,146.968064 C1816.38643,146.968064 1819.96806,143.386363 1819.96806,138.984032 C1819.96806,134.581701 1816.38643,131 1811.98403,131 Z M1818.92727,139.74178 C1818.92631,139.748711 1818.92471,139.755385 1818.92407,139.762315 C1818.89597,140.005541 1818.85615,140.245062 1818.80463,140.480878 L1818.80463,140.48107 L1816.39633,140.48107 C1816.50108,139.485815 1816.50108,138.482313 1816.39633,137.487058 L1818.80463,137.487058 L1818.80463,137.487249 C1818.85605,137.722789 1818.89586,137.96231 1818.92407,138.205812 C1818.92471,138.212743 1818.92631,138.219417 1818.92727,138.226347 C1818.98432,138.729881 1818.98432,139.238247 1818.92727,139.74178 L1818.92727,139.74178 Z M1814.6507,145.438323 C1815.3996,144.468072 1815.96711,143.095808 1816.25709,141.478946 L1818.50156,141.478946 C1818.50156,141.479115 1818.5014,141.479251 1818.50124,141.479297 C1817.81285,143.269833 1816.42142,144.700469 1814.6507,145.438323 L1814.6507,145.438323 Z M1818.50124,136.488575 C1818.50138,136.488608 1818.50149,136.488702 1818.50156,136.48883 L1816.25709,136.48883 C1815.96711,134.871968 1815.3996,133.499609 1814.6507,132.529453 C1816.42146,133.267348 1817.8129,134.698061 1818.50124,136.488671 L1818.50124,136.488575 Z M1815.39002,137.48693 C1815.50627,138.481549 1815.50627,139.486323 1815.39002,140.480942 L1812.48287,140.480942 L1812.48287,137.48693 L1815.39002,137.48693 L1815.39002,137.48693 Z M1812.48287,136.488926 L1812.48287,132.081325 C1813.72679,132.456319 1814.77908,134.194762 1815.23385,136.489022 L1812.48287,136.489022 L1812.48287,136.488926 Z M1812.48287,141.478946 L1815.23385,141.478946 C1814.77908,143.773206 1813.72679,145.511617 1812.48287,145.886643 L1812.48287,141.479042 L1812.48287,141.478946 Z M1805.46683,141.479297 C1805.46677,141.479166 1805.46665,141.479042 1805.46651,141.479042 L1807.71098,141.479042 C1808.00096,143.095904 1808.56846,144.468263 1809.31737,145.438419 C1807.54664,144.700565 1806.15521,143.269929 1805.46683,141.479393 L1805.46683,141.479297 Z M1809.31737,132.529741 C1808.56846,133.499992 1808.00096,134.872255 1807.71098,136.489118 L1805.46651,136.489118 C1805.46665,136.489041 1805.46676,136.488917 1805.46683,136.488766 C1806.15521,134.698229 1807.54664,133.267592 1809.31737,132.529741 Z M1808.57804,140.481134 C1808.4618,139.486515 1808.4618,138.481741 1808.57804,137.487122 L1811.48487,137.487122 L1811.48487,140.481134 L1808.57804,140.481134 L1808.57804,140.481134 Z M1811.48487,141.479138 L1811.48487,145.886739 C1810.24128,145.511713 1809.18898,143.773301 1808.73421,141.479042 L1811.48487,141.479042 L1811.48487,141.479138 Z M1811.48487,136.489118 L1808.73421,136.489118 C1809.18898,134.194858 1810.24128,132.456447 1811.48487,132.081421 L1811.48487,136.489022 L1811.48487,136.489118 Z M1805.04112,138.225996 C1805.04176,138.21996 1805.04303,138.214084 1805.04367,138.207984 C1805.07145,137.965868 1805.11142,137.725307 1805.16343,137.487218 L1805.16343,137.487026 L1807.57174,137.487026 C1807.46656,138.482259 1807.46656,139.485805 1807.57174,140.481038 L1805.16343,140.481038 L1805.16343,140.480846 C1805.11142,140.242757 1805.07145,140.002196 1805.04367,139.76008 C1805.04303,139.75398 1805.04176,139.748168 1805.04112,139.742068 C1804.98363,139.238345 1804.98363,138.729719 1805.04112,138.225996 L1805.04112,138.225996 Z" id="语言"></path>
        </g>
    </g>
</svg>