<?xml version="1.0" encoding="UTF-8"?>
<svg width="12px" height="12px" viewBox="0 0 12 12" version="1.1" xmlns="http://www.w3.org/2000/svg" xmlns:xlink="http://www.w3.org/1999/xlink">
    <title>默认主题</title>
    <g id="事件中心" stroke="none" stroke-width="1" fill="none" fill-rule="evenodd">
        <g id="Apple-TV" transform="translate(-1208.000000, -408.000000)" fill-rule="nonzero">
            <g id="默认主题" transform="translate(1208.000000, 408.000000)">
                <rect id="矩形" fill="#000000" opacity="0" x="0" y="0" width="12" height="12"></rect>
                <path d="M6,10 C6.27614238,10 6.5,10.2238576 6.5,10.5 L6.5,11.5 C6.5,11.7761424 6.27614238,12 6,12 C5.72385762,12 5.5,11.7761424 5.5,11.5 L5.5,10.5 C5.5,10.2238576 5.72385762,10 6,10 L6,10 Z M9.5355,8.8285 L10.2425,9.5355 C10.4319861,9.73168945 10.4292761,10.0435424 10.2364092,10.2364092 C10.0435424,10.4292761 9.73168945,10.4319861 9.5355,10.2425 L8.8285,9.5355 C8.63901393,9.33931055 8.64172387,9.02745764 8.83459075,8.83459075 C9.02745764,8.64172387 9.33931055,8.63901393 9.5355,8.8285 Z M3.1715,8.8285 C3.36669097,9.02374992 3.36669097,9.34025007 3.1715,9.5355 L2.465,10.2425 C2.33946277,10.3724783 2.15356105,10.4246064 1.97874631,10.3788486 C1.80393158,10.3330909 1.66740908,10.1965684 1.62165137,10.0217537 C1.57589365,9.84693896 1.62802168,9.66103723 1.758,9.5355 L2.465,8.8285 C2.66024993,8.63330903 2.97675007,8.63330903 3.172,8.8285 L3.1715,8.8285 Z M6,3 C7.65685425,3 9,4.34314575 9,6 C9,7.65685425 7.65685425,9 6,9 C4.34314575,9 3,7.65685425 3,6 C3,4.34314575 4.34314575,3 6,3 Z M5.99999871,3.99999871 C5.46946793,3.99939664 4.96057923,4.21029394 4.586,4.586 C4.21029394,4.96057923 3.99939664,5.46946793 3.99999871,5.99999871 C3.99999871,6.5525 4.224,7.0525 4.586,7.414 C4.96057923,7.78970606 5.46946793,8.00060336 5.99999871,7.99999871 C6.53053207,8.00060336 7.03942077,7.78970606 7.414,7.414 C7.78970606,7.03942077 8.00060336,6.53053207 7.99999871,5.99999871 C8.00060336,5.46946793 7.78970606,4.96057923 7.414,4.586 C7.03942077,4.21029394 6.53053207,3.99939664 5.99999871,3.99999871 Z M11.5,5.5 C11.7761424,5.5 12,5.72385762 12,6 C12,6.27614238 11.7761424,6.5 11.5,6.5 L10.5,6.5 C10.2238576,6.5 10,6.27614238 10,6 C10,5.72385762 10.2238576,5.5 10.5,5.5 L11.5,5.5 L11.5,5.5 Z M1.5,5.5 C1.77614238,5.5 2,5.72385762 2,6 C2,6.27614238 1.77614238,6.5 1.5,6.5 L0.5,6.5 C0.223857627,6.5 0,6.27614238 0,6 C0,5.72385762 0.223857627,5.5 0.5,5.5 L1.5,5.5 L1.5,5.5 Z M10.2425,1.7575 C10.437691,1.95274992 10.437691,2.26925007 10.2425,2.4645 L9.5355,3.1715 C9.33931055,3.36098607 9.02745764,3.35827613 8.83459075,3.16540925 C8.64172387,2.97254236 8.63901393,2.66068945 8.8285,2.4645 L9.5355,1.7575 C9.73074993,1.56230903 10.0472501,1.56230903 10.2425,1.7575 Z M2.4645,1.7575 L3.1715,2.4645 C3.35630088,2.66129163 3.35151815,2.96924514 3.16069526,3.16020308 C2.96987238,3.35116101 2.66192232,3.35616161 2.465,3.1715 L1.7575,2.465 C1.62752168,2.33946277 1.57539365,2.15356105 1.62115136,1.97874631 C1.66690908,1.80393158 1.80343158,1.66740908 1.97824631,1.62165137 C2.15306104,1.57589365 2.33896277,1.62802168 2.4645,1.758 L2.4645,1.7575 Z M6,0 C6.27614238,0 6.5,0.223857627 6.5,0.5 L6.5,1.5 C6.5,1.77614238 6.27614238,2 6,2 C5.72385762,2 5.5,1.77614238 5.5,1.5 L5.5,0.5 C5.5,0.223857627 5.72385762,0 6,0 Z" id="形状" fill="#595959"></path>
            </g>
        </g>
    </g>
</svg>