<?xml version="1.0" encoding="UTF-8"?>
<svg width="16px" height="16px" viewBox="0 0 16 16" version="1.1" xmlns="http://www.w3.org/2000/svg" xmlns:xlink="http://www.w3.org/1999/xlink">
    <title>登出</title>
    <g id="布局" stroke="none" stroke-width="1" fill="none" fill-rule="evenodd" stroke-linecap="round">
        <g id="顶栏中英文切换" transform="translate(-1805.000000, -90.000000)" stroke="#595959">
            <g id="登出" transform="translate(1806.000000, 91.000000)">
                <line x1="11.4242207" y1="4.63981112" x2="14.23312" y2="7.29965176" id="路径备份-67" stroke-linejoin="round"></line>
                <line x1="11.4242207" y1="10.0090753" x2="14.23312" y2="7.29965176" id="路径备份-68" stroke-linejoin="round"></line>
                <path d="M13.5771577,7.30710588 L9.46993885,7.35183059 C7.74553348,7.37365603 6.6634489,7.37365603 6.22368512,7.35183059" id="路径备份-69" stroke-linejoin="round"></path>
                <path d="M9.9,11.5595351 L9.9,13.2 C9.9,13.8075132 9.40751322,14.3 8.8,14.3 L1.1,14.3 C0.492486775,14.3 4.52970994e-14,13.8075132 4.52970994e-14,13.2 L4.52970994e-14,1.1 C4.52970994e-14,0.492486775 0.492486775,-3.64153152e-13 1.1,-3.64153152e-13 L8.8,-3.64153152e-13 C9.40751322,-3.64153152e-13 9.9,0.492486775 9.9,1.1 L9.9,2.96074183" id="路径备份-5"></path>
            </g>
        </g>
    </g>
</svg>