<?xml version="1.0" encoding="UTF-8"?>
<svg width="14px" height="14px" viewBox="0 0 14 14" version="1.1" xmlns="http://www.w3.org/2000/svg" xmlns:xlink="http://www.w3.org/1999/xlink">
    <!-- Generator: Sketch 59.1 (86144) - https://sketch.com -->
    <title>C375BD28-6AC4-4BA2-AAF1-CF753E553A9F</title>
    <desc>Created with Sketch.</desc>
    <g id="组件" stroke="none" stroke-width="1" fill="none" fill-rule="evenodd">
        <g id="List/Icon/微应用中心" transform="translate(-3.000000, -3.000000)">
            <g id="微应用中心">
                <rect id="矩形" fill="#D8D8D8" opacity="0" x="0" y="0" width="20" height="20"></rect>
                <path d="M13.7333333,10.4666667 C15.5374635,10.4666667 17,11.9292032 17,13.7333333 C17,15.5374635 15.5374635,17 13.7333333,17 C11.9914145,17 10.5679374,15.6365891 10.4718378,13.918703 L10.4666667,13.7333333 L10.4666667,11.4666667 C10.4666667,10.9143819 10.9143819,10.4666667 11.4666667,10.4666667 L13.7333333,10.4666667 Z M8.53333333,10.4666667 C9.08561808,10.4666667 9.53333333,10.9143819 9.53333333,11.4666667 L9.53333333,11.4666667 L9.53333333,13.7333333 L9.52816216,13.918703 C9.43206257,15.6365891 8.00858546,17 6.26666667,17 C4.46253648,17 3,15.5374635 3,13.7333333 C3,11.9292032 4.46253648,10.4666667 6.26666667,10.4666667 L6.26666667,10.4666667 Z M6.26666667,3 C8.00858546,3 9.43206257,4.36341094 9.52816216,6.081297 L9.53333333,6.26666667 L9.53333333,8.53333333 C9.53333333,9.08561808 9.08561808,9.53333333 8.53333333,9.53333333 L6.26666667,9.53333333 C4.46253648,9.53333333 3,8.07079685 3,6.26666667 C3,4.46253648 4.46253648,3 6.26666667,3 Z" id="形状结合" fill="#8C8C8C" fill-rule="nonzero"></path>
                <path d="M10.9666667,4 L10.9666667,6.26666667 C10.9666667,7.79465447 12.2053455,9.03333333 13.7333333,9.03333333 C15.2613211,9.03333333 16.5,7.79465447 16.5,6.26666667 C16.5,4.73867886 15.2613211,3.5 13.7333333,3.5 L11.4666667,3.5 C11.1905243,3.5 10.9666667,3.72385763 10.9666667,4 Z" id="形状结合备份" stroke="#979797" fill="#FFFFFF" fill-rule="nonzero" transform="translate(13.733333, 6.266667) scale(1, -1) translate(-13.733333, -6.266667) "></path>
            </g>
        </g>
    </g>
</svg>