<?xml version="1.0" encoding="UTF-8"?>
<svg width="16px" height="16px" viewBox="0 0 16 16" version="1.1" xmlns="http://www.w3.org/2000/svg" xmlns:xlink="http://www.w3.org/1999/xlink">
    <title>943FDEEE-5EE3-43A8-A8E7-8EC6C586EE29</title>
    <g id="页面-1" stroke="none" stroke-width="1" fill="none" fill-rule="evenodd">
        <g id="监控管理" fill-rule="nonzero">
            <rect id="矩形" fill="#000000" opacity="0" x="0" y="0" width="16" height="16"></rect>
            <path d="M14.4166667,1 L1.58333333,1 C1.26116723,1 1,1.26116723 1,1.58333333 L1,11.3333333 C1,11.4880429 1.06145815,11.6364161 1.17085437,11.7458123 C1.28025059,11.8552085 1.42862371,11.9166667 1.58333333,11.9166667 L14.4166667,11.9166667 C14.5713763,11.9166667 14.7197494,11.8552085 14.8291456,11.7458123 C14.9385418,11.6364161 15,11.4880429 15,11.3333333 L15,1.58333333 C15,1.42862371 14.9385418,1.2802506 14.8291456,1.17085438 C14.7197494,1.06145816 14.5713763,1 14.4166667,1 Z M13.8333333,2.16666667 L13.8333333,6.56666667 L9.9,6.56666667 L8.50666667,4.38333333 C8.39728922,4.21019498 8.20471228,4.10757174 8,4.11333333 C7.79902047,4.11496157 7.61286297,4.21936071 7.50666667,4.39 L5.61,7.46 L5.14666667,6.84333333 C5.03650161,6.69644659 4.86360843,6.61 4.68,6.61 L2.16666667,6.61 L2.16666667,2.16666667 L13.8333333,2.16666667 Z M2.16666667,10.7533333 L2.16666667,7.77666667 L4.4,7.77666667 L5.2,8.84333333 C5.31016505,8.99022008 5.48305824,9.07666667 5.66666667,9.07666667 L5.69333333,9.07666667 C5.8847888,9.06925539 6.05988818,8.96669718 6.16,8.80333333 L8.02,5.80333333 L9.08666667,7.47 C9.19356048,7.63903796 9.38000261,7.74107723 9.58,7.74 L13.8333333,7.74 L13.8333333,10.76 L2.16666667,10.7533333 Z M11.83,13.8333333 L4.16333333,13.8333333 C3.95492839,13.8333333 3.76235428,13.944516 3.65815181,14.125 C3.55394934,14.305484 3.55394934,14.5278494 3.65815181,14.7083333 C3.76235428,14.8888173 3.95492839,15 4.16333333,15 L11.83,15 C12.0384049,15 12.230979,14.8888173 12.3351815,14.7083333 C12.439384,14.5278494 12.439384,14.305484 12.3351815,14.125 C12.230979,13.944516 12.0384049,13.8333333 11.83,13.8333333 L11.83,13.8333333 Z" id="形状" fill="#FFFFFF"></path>
        </g>
    </g>
</svg>