<?xml version="1.0" encoding="UTF-8"?>
<svg width="24px" height="24px" viewBox="0 0 24 24" version="1.1" xmlns="http://www.w3.org/2000/svg" xmlns:xlink="http://www.w3.org/1999/xlink">
    <title>网络流量-fill</title>
    <defs>
        <linearGradient x1="50%" y1="0%" x2="50%" y2="100%" id="linearGradient-1">
            <stop stop-color="#FFFFFF" stop-opacity="0.3" offset="0%"></stop>
            <stop stop-color="#FFFFFF" stop-opacity="0.7" offset="100%"></stop>
        </linearGradient>
    </defs>
    <g id="服务总览" stroke="none" stroke-width="1" fill="none" fill-rule="evenodd">
        <g id="UI：服务总览-#1" transform="translate(-1546.000000, -221.000000)" fill-rule="nonzero">
            <g id="统计数据" transform="translate(284.000000, 176.000000)">
                <g id="数据4" transform="translate(1252.000000, 31.000000)">
                    <g id="网络流量-fill" transform="translate(10.000000, 14.000000)">
                        <rect id="矩形" fill="#000000" opacity="0" x="0" y="0" width="24" height="24"></rect>
                        <path d="M9.36463302,4.87342829 C10.8201168,2.375536 13.1799007,2.3755118 14.6353845,4.87342829 L21.3966904,16.4771755 C22.8521485,18.9750678 21.5838365,21 18.5640165,21 L5.43600096,21 C2.41607848,21 1.14786897,18.9750678 2.60332711,16.4771755 L9.36463302,4.87342829 Z M13.0938391,8.61001866 C13.0938391,8.03999831 12.6042342,7.57787916 12.0000087,7.57787916 C11.3959115,7.57787916 10.9061784,8.04031289 10.9061784,8.61001866 L10.9061784,13.7730392 C10.9061784,14.3430838 11.3957833,14.8051787 12.0000087,14.8051787 C12.604106,14.8051787 13.0938391,14.3427692 13.0938391,13.7730392 L13.0938391,8.61004286 L13.0938391,8.61001866 Z M13.0938391,16.8701111 L10.9061784,16.8701111 L10.9061784,18.9350676 L13.0938391,18.9350676 L13.0938391,16.8701111 L13.0938391,16.8701111 Z" id="形状" fill="url(#linearGradient-1)"></path>
                    </g>
                </g>
            </g>
        </g>
    </g>
</svg>