<?xml version="1.0" encoding="UTF-8"?>
<svg width="17px" height="19px" viewBox="0 0 17 19" version="1.1" xmlns="http://www.w3.org/2000/svg" xmlns:xlink="http://www.w3.org/1999/xlink">
    <!-- Generator: Sketch 60 (88103) - https://sketch.com -->
    <title>屏蔽节点</title>
    <desc>Created with Sketch.</desc>
    <g id="页面2" stroke="none" stroke-width="1" fill="none" fill-rule="evenodd">
        <g id="编组-10" fill="#595959">
            <path d="M15.4575463,8.10276468 C15.4724537,9.33322765 15.1583796,10.4794314 14.5678241,11.5532276 C14.4415278,11.7827647 14.3088426,12.0748943 13.979213,11.8833202 C13.676713,11.7074869 13.8506019,11.4603573 13.9696759,11.2427647 C16.1215278,7.31230172 13.8535648,2.54646839 9.45180556,1.77396839 C7.85569444,1.4938758 6.35689815,1.79535728 4.97337963,2.64683876 C4.88162037,2.70341283 4.7924537,2.76443135 4.70199074,2.82304246 C4.51430556,2.94452394 4.34689815,2.91952394 4.22217593,2.73470913 C4.08958333,2.53813506 4.17643519,2.37989431 4.34625,2.26146839 C4.94430556,1.84443135 5.59263889,1.52961654 6.29087963,1.31665357 C10.8694907,-0.0795501301 15.4544907,3.31415357 15.4575463,8.10276468" id="Fill-3"></path>
            <path d="M2.77791667,3.95734802 C3.09087963,3.95938506 3.20578704,4.26327394 3.00337963,4.57716283 C2.55606481,5.27086654 2.24523148,6.01660728 2.08291667,6.82623691 C1.57439815,9.36271839 2.62662037,11.9483665 4.76393519,13.4051258 C4.81486111,13.439848 4.8674537,13.4720702 4.91902778,13.5058665 C5.11680556,13.6352184 5.34199074,13.7651258 5.16384259,14.0491073 C4.99125,14.3241073 4.77643519,14.2092925 4.56819444,14.0782739 C4.00328704,13.7227184 3.50615741,13.2879036 3.06152778,12.792348 C0.987361111,10.4813295 0.696342593,6.96355172 2.35976852,4.33919987 C2.46726852,4.16966283 2.55893519,3.98623691 2.77791667,3.95734802" id="Fill-5"></path>
            <path d="M8.35553704,15.3264079 C9.17275926,15.3264079 9.99007407,15.3320914 10.8072963,15.3231602 C11.0777593,15.3203184 11.3426667,15.3751235 11.3282222,15.8548368 C11.3153519,16.285158 11.0557222,16.3238598 10.8069259,16.3230479 C9.20322222,16.3177704 7.59951852,16.3202061 5.99581481,16.3195295 C5.93424074,16.3195295 5.8722963,16.3188529 5.811,16.3114103 C5.61164815,16.2871878 5.436,16.1973346 5.42674074,15.8537543 C5.41683333,15.4810799 5.5772963,15.3391281 5.81146296,15.3388574 C6.65951852,15.3376395 7.50748148,15.3383161 8.35553704,15.3383161 L8.35553704,15.3264079 Z" id="Fill-7"></path>
            <path d="M8.59721296,18.2866995 C8.13536111,18.2862826 7.67350926,18.2855878 7.21175,18.2865605 C6.98063889,18.2869774 6.81119444,18.1517641 6.80923597,17.7768355 C6.80739815,17.3868987 6.98915741,17.2864268 7.21628704,17.2872554 C8.17073148,17.2907347 9.12517593,17.2930971 10.0796204,17.2892061 C10.297213,17.2883723 10.4526759,17.4195556 10.4594352,17.7512659 C10.4666574,18.1106304 10.3145278,18.2873943 10.0750833,18.2872554 C9.58249074,18.2869774 9.08980556,18.2871164 8.59721296,18.2866995" id="Fill-9"></path>
            <rect id="矩形" transform="translate(8.500000, 7.787255) rotate(-317.000000) translate(-8.500000, -7.787255) " x="-2" y="7.28725543" width="21" height="1" rx="0.5"></rect>
            <path d="M12.8518426,13.4280147 C12.8652685,13.5690332 12.7811019,13.6576443 12.6810093,13.7324591 C12.5464722,13.8330147 12.4114722,13.9346814 12.2681389,14.021811 C12.0413796,14.1597739 11.78175,14.4149591 11.55425,14.0896814 C11.3138796,13.7457925 11.6631389,13.6227369 11.8815648,13.4721814 C12.0448056,13.3595888 12.2001759,13.2307925 12.3755463,13.1416258 C12.6231389,13.0156073 12.8527685,13.1639406 12.8518426,13.4280147" id="Fill-11"></path>
        </g>
    </g>
</svg>