<?xml version="1.0" encoding="UTF-8"?>
<svg width="22px" height="22px" viewBox="0 0 22 22" version="1.1" xmlns="http://www.w3.org/2000/svg" xmlns:xlink="http://www.w3.org/1999/xlink">
    <title>overview-devops</title>
    <g id="页面-1" stroke="none" stroke-width="1" fill="none" fill-rule="evenodd">
        <g id="Apple-TV" transform="translate(-266.000000, -752.000000)">
            <g id="overview-devops" transform="translate(266.000000, 752.000000)">
                <rect id="矩形" opacity="0.83984375" x="0" y="0" width="22" height="22"></rect>
                <g transform="translate(0.999300, 7.000260)" fill="#FFFFFF" fill-rule="nonzero" id="Fill-1-Clipped">
                    <g>
                        <path d="M10.518,5.799 L8.836,4.118 L7.78,5.175 L7.75,5.204 L6.582,6.372 L6.386,6.568 C6.039,6.878 5.602,7.086 5.119,7.153 L5.119,9.558 C6.405,9.471 7.553,8.884 8.364,7.982 C8.364,7.982 9.402,6.941 10.533,5.809 C10.529,5.805 10.522,5.803 10.518,5.799 L10.518,5.799 Z M17.342,4.86 C17.303,6.009 16.458,6.952 15.353,7.14 L15.353,9.555 C17.786,9.351 19.699,7.335 19.741,4.86 L17.342,4.86 Z M4.392,7.141 C3.285,6.954 2.438,6.011 2.399,4.86 L0,4.86 C0.042,7.337 1.957,9.353 4.392,9.555 L4.392,7.141 Z M14.626,7.153 C14.141,7.088 13.703,6.879 13.355,6.568 L13.159,6.372 L12.373,5.587 L10.681,7.28 L11.377,7.982 C12.189,8.885 13.338,9.472 14.626,9.558 L14.626,7.153 Z M5.119,2.405 C5.592,2.47 6.022,2.672 6.365,2.97 C6.45,3.044 6.529,3.123 6.602,3.207 L7.361,3.966 L9.057,2.271 L8.367,1.58 C7.557,0.676 6.407,0.087 5.119,0 L5.119,2.405 Z M2.486,4.133 C2.733,3.249 3.473,2.572 4.392,2.417 L4.392,0.003 C2.146,0.189 0.343,1.921 0.045,4.133 L2.486,4.133 Z M15.353,2.418 C16.271,2.574 17.009,3.25 17.255,4.133 L19.696,4.133 C19.398,1.922 17.597,0.191 15.353,0.003 L15.353,2.418 Z M9.351,3.604 L11.374,1.58 C12.185,0.675 13.336,0.086 14.626,0 L14.626,2.404 C14.152,2.469 13.72,2.671 13.376,2.97 C13.336,3.005 12.214,4.127 11.041,5.299 C11.038,5.295 11.037,5.289 11.032,5.285 L9.351,3.604 Z" id="Fill-1"></path>
                    </g>
                </g>
            </g>
        </g>
    </g>
</svg>