<?xml version="1.0" encoding="UTF-8"?>
<svg width="34px" height="34px" viewBox="0 0 34 34" version="1.1" xmlns="http://www.w3.org/2000/svg" xmlns:xlink="http://www.w3.org/1999/xlink">
    <title>电话</title>
    <g id="页面-1" stroke="none" stroke-width="1" fill="none" fill-rule="evenodd">
        <g id="申请试用easyops-air" transform="translate(-1655.000000, -905.000000)">
            <g id="电话" transform="translate(1656.000000, 906.000000)">
                <rect id="矩形" fill="#000000" fill-rule="nonzero" opacity="0" x="7" y="7" width="17.28" height="17.28"></rect>
                <g id="编组-8">
                    <path d="M17.823869,19.050361 C17.876181,19.050361 18.1899349,18.7888853 18.2945082,18.7365902 C18.5037056,18.632 18.660591,18.5274097 18.8174595,18.4751146 C19.9156739,18.0044754 20.8569524,18.3182292 22.1120353,19.8347878 C22.8964622,20.7760832 23.1056258,21.56051 22.8441671,22.2926417 C22.6349866,22.8155929 22.1643305,23.233937 21.4322156,23.652298 C21.3799036,23.70461 20.9615595,23.9660688 20.8046741,24.0183639 C19.0266568,25.1165615 14.895359,22.6064124 11.9145707,18.2136559 C8.93374871,13.8731775 8.14933874,9.21894534 9.97965117,8.0684695 L10.2411268,7.91158413 L10.5026024,7.75469877 C11.4439146,7.17945241 12.0191441,6.9179768 12.6989807,7.02256704 C13.3788173,7.12715729 14.0063588,7.65010851 14.4770149,8.59142074 C15.5229173,10.5786017 15.31372,11.5199139 13.9540636,12.408931 C13.8494734,12.4612261 13.4834075,12.6704066 13.4834075,12.7227017 C13.1696368,12.9318822 13.692588,14.3438336 15.0522612,16.2264412 C16.3596224,18.2136559 17.4578031,19.3118366 17.823869,19.050361 L17.823869,19.050361 Z" id="路径" fill="#0D375E" fill-rule="nonzero"></path>
                    <circle id="椭圆形" stroke="#0D375E" cx="16" cy="16" r="16"></circle>
                </g>
            </g>
        </g>
    </g>
</svg>