<?xml version="1.0" encoding="UTF-8"?>
<svg width="24px" height="24px" viewBox="0 0 24 24" version="1.1" xmlns="http://www.w3.org/2000/svg" xmlns:xlink="http://www.w3.org/1999/xlink">
    <title>内存-fill</title>
    <defs>
        <linearGradient x1="50%" y1="0%" x2="50%" y2="100%" id="linearGradient-1">
            <stop stop-color="#FFFFFF" stop-opacity="0.3" offset="0%"></stop>
            <stop stop-color="#FFFFFF" stop-opacity="0.7" offset="100%"></stop>
        </linearGradient>
    </defs>
    <g id="服务总览" stroke="none" stroke-width="1" fill="none" fill-rule="evenodd">
        <g id="UI：服务总览-#1" transform="translate(-744.000000, -221.000000)" fill-rule="nonzero">
            <g id="统计数据" transform="translate(284.000000, 176.000000)">
                <g id="数据2" transform="translate(450.000000, 30.000000)">
                    <g id="编组-9" transform="translate(0.000000, 1.403993)">
                        <g id="内存-fill" transform="translate(10.000000, 13.596007)">
                            <rect id="矩形" fill="#000000" opacity="0" x="0" y="0" width="24" height="24"></rect>
                            <path d="M21.753197,14.6647655 C20.9799662,15.1117448 20.0202586,15.1117448 19.2470277,14.6647655 C18.4731601,14.2074789 18,13.3861084 18,12.5000189 C18,11.6139294 18.4731601,10.7925589 19.2470277,10.3352723 C20.0202445,9.88824258 20.9799802,9.88824258 21.753197,10.3352723 C22.5269432,10.7926468 23,11.613986 23,12.5000189 C23,13.3860518 22.5269432,14.207391 21.753197,14.6647655 Z M4.00255761,10.7318124 C3.38397295,11.0893959 2.61620684,11.0893959 1.99762218,10.7318124 C1.3785281,10.3659832 1,9.70888675 1,9.00001512 C1,8.29114349 1.3785281,7.63404709 1.99762218,7.26821781 C2.61619562,6.91059406 3.38398417,6.91059406 4.00255761,7.26821781 C4.62155455,7.63411744 5,8.29118879 5,9.00001512 C5,9.70884146 4.62155455,10.3659128 4.00255761,10.7318124 Z M7.25191821,16.7988593 C6.78797971,17.0670469 6.21215513,17.0670469 5.74821663,16.7988593 C5.28389607,16.5244874 5,16.0316651 5,15.5000113 C5,14.9683576 5.28389607,14.4755353 5.74821663,14.2011634 C6.21214672,13.9329455 6.78798813,13.9329455 7.25191821,14.2011634 C7.71616591,14.4755881 8,14.9683916 8,15.5000113 C8,16.0316311 7.71616591,16.5244346 7.25191821,16.7988593 Z M9.57144098,1 L19.714205,4.88238889 L19.714205,7.47056667 L16.2855974,7.47056667 L16.2855974,17.5300444 L19.714342,17.5300444 L19.714342,20.1182222 L9.57144098,24 L9.57144098,1 Z" id="形状" fill="url(#linearGradient-1)"></path>
                        </g>
                    </g>
                </g>
            </g>
        </g>
    </g>
</svg>