<?xml version="1.0" encoding="UTF-8"?>
<svg width="24px" height="24px" viewBox="0 0 24 24" version="1.1" xmlns="http://www.w3.org/2000/svg" xmlns:xlink="http://www.w3.org/1999/xlink">
    <title>内存-fill</title>
    <defs>
        <linearGradient x1="50%" y1="0%" x2="50%" y2="100%" id="linearGradient-1">
            <stop stop-color="#FFFFFF" stop-opacity="0.3" offset="0%"></stop>
            <stop stop-color="#FFFFFF" stop-opacity="0.7" offset="100%"></stop>
        </linearGradient>
    </defs>
    <g id="事件概览" stroke="none" stroke-width="1" fill="none" fill-rule="evenodd">
        <g id="事件概览-1440*900" transform="translate(-813.000000, -169.000000)" fill-rule="nonzero">
            <g id="统计数据" transform="translate(84.000000, 124.000000)">
                <g id="数据3" transform="translate(718.000000, 31.000000)">
                    <g id="图标" transform="translate(0.000000, 3.000000)">
                        <g id="内存-fill" transform="translate(11.000000, 11.000000)">
                            <rect id="矩形" fill="#000000" opacity="0" x="0" y="0" width="24" height="24"></rect>
                            <path d="M10.9648882,19.0666003 C11.5982093,19.1591789 12.2410424,19.1668356 12.8763868,19.0893679 L13.2222771,21.9262103 C12.3332828,22.0343131 11.4338645,22.0235942 10.5476961,21.8943357 L10.9648882,19.0666003 Z M15.895341,17.9889341 L17.451847,20.3871208 C16.7010161,20.8762807 15.8876,21.2617536 15.0336495,21.5330898 L14.1674069,18.8085676 C14.7776585,18.6144825 15.3588962,18.3387765 15.895341,17.9889341 Z M12.005593,2.00000533 L12.005593,2.00152849 C14.8050113,1.99790155 17.4769054,3.17230854 19.3678968,5.23756276 L19.420994,5.29675848 L21.391658,3.32508473 C21.4936099,3.22328889 21.6467689,3.19287255 21.7798512,3.2479922 C21.9129335,3.30311185 21.9997917,3.43293788 22,3.57704611 L22,9.5011745 C22,9.69849367 21.8407084,9.85786684 21.6434904,9.8578668 L15.7223959,9.8578668 C15.5783614,9.85765843 15.4486019,9.77075568 15.3935104,9.63760517 C15.338419,9.50445467 15.3688198,9.35121716 15.4705635,9.24921307 L17.3972327,7.31852097 C15.4290619,5.05155272 12.2539431,4.25820244 9.45159162,5.33318528 C6.64924009,6.40816812 4.81807329,9.12193098 4.86915073,12.1242968 C4.92022817,15.1266626 6.84264271,17.7765026 9.6799364,18.7554432 L8.74997715,21.4571978 C4.1279764,19.869552 1.33123769,15.1707207 2.1380997,10.3485102 C2.94496171,5.52629973 7.11878386,1.99499231 12.005593,2.00000533 Z M18.1496957,15.6393183 L20.6073367,17.0964444 C20.1370474,17.8887567 19.5620808,18.6097305 18.9006416,19.2411519 L16.9314946,17.1708185 C17.403301,16.7200201 17.8144249,16.2054724 18.1496957,15.6393183 Z M13.0766391,6.99977463 C13.2738572,6.99977463 13.4331488,7.1591478 13.4331487,7.35646697 L13.4331487,11.8948077 L16.1213833,13.4490755 C16.2036698,13.4963842 16.2637069,13.5745664 16.2881957,13.6663041 C16.3126845,13.7580418 16.2996037,13.8557624 16.2518507,13.9378199 L15.1808046,15.7926201 C15.0823495,15.9632 14.8643318,16.0216397 14.6938276,15.9231543 L11.2925737,13.9590697 C10.8906538,13.7281524 10.6263146,13.3158665 10.5841056,12.8540824 L10.5810715,12.8085472 L10.5784813,12.7615288 L10.5784813,12.7615288 L10.5780373,7.35646697 C10.5780373,7.1591478 10.7373289,6.99977463 10.934547,6.99977463 L13.0766391,6.99977463 Z" id="形状结合" fill="url(#linearGradient-1)"></path>
                        </g>
                    </g>
                </g>
            </g>
        </g>
    </g>
</svg>