<?xml version="1.0" encoding="UTF-8"?>
<svg width="18px" height="16px" viewBox="0 0 18 16" version="1.1" xmlns="http://www.w3.org/2000/svg" xmlns:xlink="http://www.w3.org/1999/xlink">
    <g stroke="none" stroke-width="1" fill="none" fill-rule="evenodd" transform="translate(0, -2)">
        <g transform="translate(1.639721, 0.308119)">
            <path d="M14.8614982,5.98546829 C13.5882151,3.80322127 11.2219296,2.33684211 8.51315279,2.33684211 C4.45676946,2.33684211 1.16842105,5.62519051 1.16842105,9.68157384" stroke="#8C8C8C" stroke-linecap="round" transform="translate(8.014960, 6.009208) rotate(20) translate(-8.014960, -6.009208) "></path>
            <path d="M15.3620664,7.9409041 L13.5646229,6.71497063 C13.5244203,6.68720048 13.4720597,6.68425779 13.4289987,6.70734847 C13.3859377,6.73043916 13.3594153,6.77568141 13.3603007,6.82453473 L13.3603007,9.27640167 C13.3594153,9.32525499 13.3859377,9.37049724 13.4289987,9.39358793 C13.4720597,9.41667862 13.5244203,9.41373592 13.5646229,9.38596577 L15.3620664,8.1600323 C15.3980214,8.13514322 15.4194766,8.09419719 15.4194766,8.0504682 C15.4194766,8.00673921 15.3980214,7.96579318 15.3620664,7.9409041 L15.3620664,7.9409041 Z" fill="#8C8C8C" fill-rule="nonzero" transform="translate(14.389878, 8.050468) rotate(-284) translate(-14.389878, -8.050468) "></path>
        </g>
        <g transform="translate(8.329045, 13.473684) scale(-1, -1) translate(-8.329045, -13.473684) translate(0.329045, 7.473684)">
            <path d="M14.624268,5.73142918 C13.3509849,3.54918216 11.2293053,2.29501202 8.52052856,2.29501202 C4.46414523,2.29501202 1.17579683,5.58336042 1.17579683,9.63974375" stroke="#8C8C8C" stroke-linecap="round" transform="translate(7.900032, 5.967378) rotate(20) translate(-7.900032, -5.967378) "></path>
            <path d="M15.2716347,9.00553308 L13.4741912,7.77959961 C13.4339886,7.75182946 13.381628,7.74888677 13.338567,7.77197745 C13.2955059,7.79506814 13.2689836,7.84031039 13.269869,7.88916371 L13.269869,10.3410306 C13.2689836,10.389884 13.2955059,10.4351262 13.338567,10.4582169 C13.381628,10.4813076 13.4339886,10.4783649 13.4741912,10.4505948 L15.2716347,9.22466128 C15.3075897,9.1997722 15.3290448,9.15882617 15.3290448,9.11509718 C15.3290448,9.07136819 15.3075897,9.03042216 15.2716347,9.00553308 L15.2716347,9.00553308 Z" fill="#8C8C8C" fill-rule="nonzero" transform="translate(14.299446, 9.115097) rotate(-284) translate(-14.299446, -9.115097) "></path>
        </g>
        <g transform="translate(8.823782, 10.231579) scale(-1, 1) translate(-8.823782, -10.231579) translate(4.823782, 6.231579)" fill="#8C8C8C">
            <path d="M7.47579158,6.18488105 L4.45503368,3.22604947 C4.77440211,2.37037579 4.61316,1.35346 3.90626526,0.661365263 C3.29712842,0.0650810526 2.43210737,-0.138613684 1.66951789,0.0935126316 C1.28822316,0.197891579 3.73217053,1.68490211 2.72187579,2.74621789 C1.73494947,3.80753368 0.159917895,1.38306 0.0715073684,1.77292316 C-0.130629474,2.55342842 0.100328421,3.42351263 0.709465263,4.01979684 C1.41636,4.71189158 2.42470737,4.86417579 3.25584421,4.48560737 L6.27660211,7.44443895 C6.61817053,7.77782842 7.16810737,7.76809158 7.49760211,7.42262842 C7.82709684,7.07755474 7.81736,6.51827053 7.47579158,6.18488105"></path>
        </g>
    </g>
</svg>