<?xml version="1.0" encoding="UTF-8"?>
<svg width="16px" height="16px" viewBox="0 0 16 16" version="1.1" xmlns="http://www.w3.org/2000/svg" xmlns:xlink="http://www.w3.org/1999/xlink">
    <!-- Generator: Sketch 61 (89581) - https://sketch.com -->
    <title>配置资源</title>
    <desc>Created with Sketch.</desc>
    <g id="页面-1" stroke="none" stroke-width="1" fill="none" fill-rule="evenodd">
        <g id="编组备份-3" fill="#545454" fill-rule="nonzero">
            <path d="M12.5912473,15.9047334 C11.276924,15.9023173 10.0882701,15.1232912 9.56155886,13.9191206 C9.03484759,12.7149501 9.26965764,11.3132926 10.1600521,10.34652 C11.0504465,9.37974738 12.4280896,9.0306354 13.6714437,9.45668939 C13.9863855,9.593535 14.1446265,9.94828674 14.0360378,10.2740528 C13.9274491,10.5998189 13.5880053,10.7886757 13.2539445,10.7091871 C12.3861864,10.4163413 11.4306476,10.7541816 10.9397989,11.5273765 C10.4489503,12.3005715 10.5498066,13.3090449 11.1840549,13.9697202 C11.8183032,14.6303955 12.821822,14.7723128 13.6143994,14.3134187 C14.4069769,13.8545246 14.7835213,12.913565 14.5263232,12.0345816 C14.4275038,11.6813939 14.6337101,11.3149699 14.9868977,11.2161505 C15.3400854,11.1173312 15.7065094,11.3235374 15.8053288,11.6767251 C16.0939836,12.681798 15.8912531,13.7641534 15.2584169,14.5966266 C14.6255808,15.4290998 13.6369085,15.9139916 12.5912473,15.9047334 Z" id="路径"></path>
            <path d="M2.65078889,10.6031556 C1.18679861,10.6031556 1.55320949e-08,9.41635697 1.55320949e-08,7.95236669 C1.55320949e-08,6.48837642 1.18679862,5.30157781 2.6507889,5.30157781 C4.11477917,5.30157781 5.30157779,6.48837641 5.30157779,7.95236668 C5.30157779,8.65539961 5.02229906,9.32963814 4.5251797,9.8267575 C4.02806035,10.3238768 3.35382182,10.6031556 2.65078889,10.6031556 L2.65078889,10.6031556 Z M2.65078889,6.62697224 C1.91879375,6.62697224 1.32539446,7.22037155 1.32539446,7.95236669 C1.32539446,8.68436183 1.91879377,9.27776113 2.65078891,9.27776113 C3.38278405,9.27776113 3.97618335,8.68436182 3.97618335,7.95236668 C3.97618335,7.60085022 3.83654398,7.26373095 3.5879843,7.01517128 C3.33942462,6.7666116 3.00230535,6.62697224 2.65078889,6.62697224 Z" id="形状"></path>
            <path d="M12.5912473,3.97618335 C11.4932545,3.97618335 10.6031556,3.08608438 10.6031556,1.98809168 C10.6031556,0.890098972 11.4932546,1.5532096e-08 12.5912473,1.5532096e-08 C13.68924,1.5532096e-08 14.5793389,0.890098962 14.5793389,1.98809167 C14.5793389,2.51536637 14.3698799,3.02104527 13.9970404,3.39388478 C13.6242009,3.7667243 13.118522,3.97618335 12.5912473,3.97618335 L12.5912473,3.97618335 Z M12.5912473,1.32539444 C12.2252497,1.32539444 11.92855,1.6220941 11.92855,1.98809167 C11.92855,2.35408924 12.2252497,2.65078889 12.5912473,2.65078889 C12.9572448,2.65078889 13.2539445,2.35408924 13.2539445,1.98809167 C13.2539445,1.6220941 12.9572448,1.32539444 12.5912473,1.32539444 L12.5912473,1.32539444 Z" id="形状"></path>
            <path d="M4.40693654,7.68729128 C4.11043955,7.68824423 3.8493876,7.49213795 3.76772972,7.20710572 C3.68607183,6.92207349 3.80368171,6.61748573 4.05570701,6.46129793 L11.0670436,2.04773442 C11.2672559,1.90129847 11.5324839,1.8789327 11.7543914,1.98977274 C11.9762988,2.10061279 12.1177279,2.32609884 12.1209647,2.57412767 C12.1240918,2.82215651 11.9884937,3.05119648 11.7695027,3.16769273 L4.75816607,7.58788321 C4.65270361,7.65324441 4.53101014,7.68768595 4.40693654,7.68729128 Z" id="路径"></path>
            <path d="M10.2850609,11.9285596 C10.1890584,11.9290646 10.0940903,11.9087143 10.0067281,11.8689073 L4.29427801,9.27776114 C3.96122023,9.12587215 3.8143539,8.73274511 3.96624289,8.39968732 C4.11813188,8.06662953 4.51125891,7.9197632 4.8443167,8.07165218 L10.5633937,10.7224411 C10.7911988,10.8757554 10.9008566,11.1536788 10.8391121,11.4212382 C10.7773677,11.6887976 10.5570122,11.8905641 10.2850609,11.9285596 L10.2850609,11.9285596 Z" id="路径"></path>
        </g>
    </g>
</svg>