<?xml version="1.0" encoding="UTF-8"?>
<svg width="15px" height="15px" viewBox="0 0 15 15" version="1.1" xmlns="http://www.w3.org/2000/svg" xmlns:xlink="http://www.w3.org/1999/xlink">
    <!-- Generator: Sketch 61 (89581) - https://sketch.com -->
    <title>关联资源</title>
    <desc>Created with Sketch.</desc>
    <g id="页面-1" stroke="none" stroke-width="1" fill="none" fill-rule="evenodd">
        <g id="编组" transform="translate(-0.000000, 0.000000)" fill="#595959" fill-rule="nonzero">
            <path d="M9.36367296,4.85084054 L8.66724103,5.54727247 C8.45731895,5.75722129 8.45728141,6.09758232 8.66717054,6.30756407 C8.66717054,6.30756407 8.66717054,6.30756407 8.66717054,6.30756407 C8.96614541,6.61504146 9.11135144,6.99946357 9.11985396,7.39232789 C9.11985396,7.78525251 8.97464793,8.17817714 8.66717054,8.47709171 L8.09490923,9.04935302 L5.4897032,11.6546193 L4.72097959,12.423343 C4.42200471,12.7223178 4.02908009,12.8675239 3.63621577,12.8675239 C3.23478863,12.8675239 2.85036652,12.7223178 2.54288913,12.423343 C2.24391426,12.1243681 2.09870823,11.7314435 2.09870823,11.3385791 C2.09870823,10.937152 2.24391426,10.5527299 2.54288913,10.2538153 L3.14077858,9.65592588 C3.06724324,9.51409871 3.00446382,9.36791157 2.95244032,9.21736445 C2.74737365,8.6237889 2.09992202,8.30888993 1.50636221,8.51400217 C1.34349534,8.57028292 1.1955497,8.6628432 1.0737032,8.7846897 L1.0737032,8.7846897 L1.0737032,8.7846897 C0.373240892,9.48503141 0.0145072236,10.4245892 0.0145072236,11.3385791 C0.0145072236,12.2610716 0.364738379,13.1921269 1.0736429,13.8925289 C1.78260773,14.6014937 2.713663,14.9516646 3.63615546,14.9516646 C4.55864793,14.9516646 5.48114039,14.5929309 6.19010521,13.8925289 L10.1363565,9.94627764 C10.8143079,9.26922825 11.1953263,8.35045832 11.1954921,7.39232789 C11.1954921,6.46983543 10.845261,5.53878015 10.1363565,4.83837814 C10.1363565,4.83837814 10.1363565,4.83837814 10.1363565,4.83837814 C9.9176328,4.63335485 9.5756821,4.6388813 9.36367296,4.85084054 Z" id="路径"></path>
            <path d="M13.9117736,1.06296106 C13.2369394,0.379684673 12.3144469,0.00382537688 11.349261,0.00382537688 L11.3406982,0.00382537688 C10.4182057,0.00382537688 9.49571325,0.362559045 8.78674843,1.05445854 L4.84905999,5.00921231 C4.14009516,5.71817714 3.78992431,6.6406696 3.78992431,7.56316206 C3.78992431,8.48565452 4.14015546,9.4167098 4.84905999,10.1256746 C4.84905999,10.1256746 4.84905999,10.1256746 4.84905999,10.1256746 C5.06134726,10.3379619 5.40553294,10.3379619 5.61783206,10.1256865 L6.31817543,9.4253431 C6.5280975,9.21539429 6.52813505,8.87503326 6.31824592,8.66505151 C6.31824592,8.66505151 6.31824592,8.66505151 6.31824592,8.66505151 C6.01927104,8.36607663 5.87406501,7.97315201 5.8655625,7.57172487 C5.8655625,7.17880025 6.01076853,6.78587563 6.31824592,6.48696106 L9.42739165,3.37781533 L9.53840672,3.25823744 L10.2644369,2.53220729 C10.5634117,2.23323241 10.9563364,2.08802638 11.3492007,2.08802638 C11.7506881,2.08802638 12.1350499,2.23323241 12.4425273,2.5407098 C12.7415022,2.83968467 12.8867082,3.2326093 12.8867082,3.62547362 C12.8867082,4.02690075 12.7415022,4.41132286 12.4425273,4.71023744 L11.8446379,5.30812688 C11.9181732,5.44995405 11.9809526,5.5961412 12.0329761,5.74668831 C12.2380428,6.34026387 12.8854944,6.65516284 13.4790542,6.45005059 C13.6419211,6.39376985 13.7898668,6.30120956 13.9117133,6.17936307 L13.9117133,6.17936307 L13.9117133,6.17936307 C14.6206781,5.47902136 14.9709092,4.54796608 14.9709092,3.62547362 C14.9623464,2.70298116 14.6121756,1.77192588 13.9117736,1.06296106 Z" id="路径"></path>
        </g>
    </g>
</svg>