<?xml version="1.0" encoding="UTF-8"?>
<svg width="15px" height="16px" viewBox="0 0 15 16" version="1.1" xmlns="http://www.w3.org/2000/svg" xmlns:xlink="http://www.w3.org/1999/xlink">
    <!-- Generator: Sketch 58 (84663) - https://sketch.com -->
    <title>4A60301D-EE88-4269-97DB-46FF2823AA3E</title>
    <desc>Created with Sketch.</desc>
    <g id="迭代一、二" stroke="none" stroke-width="1" fill="none" fill-rule="evenodd">
        <g id="Easyops-5.0-IDC首页" transform="translate(-44.000000, -139.000000)" stroke="#FFFFFF">
            <g id="部署资源组" transform="translate(44.000000, 140.000000)">
                <polyline id="Stroke-1" stroke-linecap="round" points="0.5 4.5518 0.5 0.4998 4.552 0.4998"></polyline>
                <polyline id="Stroke-3" stroke-linecap="round" points="14.5 4.5518 14.5 0.4998 10.448 0.4998"></polyline>
                <polyline id="Stroke-5" stroke-linecap="round" points="0.5 10.4482 0.5 14.5002 4.552 14.5002"></polyline>
                <polyline id="Stroke-7" stroke-linecap="round" points="14.5 10.4482 14.5 14.5002 10.448 14.5002"></polyline>
                <path d="M11.0352,8.207 L8.2072,11.036 C7.8162,11.426 7.1832,11.426 6.7932,11.036 L3.9652,8.207 C3.5742,7.816 3.5742,7.184 3.9652,6.793 L6.7932,3.964 C7.1832,3.574 7.8162,3.574 8.2072,3.964 L11.0352,6.793 C11.4262,7.184 11.4262,7.816 11.0352,8.207 Z" id="Stroke-9"></path>
            </g>
        </g>
    </g>
</svg>