<?xml version="1.0" encoding="UTF-8"?>
<svg width="24px" height="24px" viewBox="0 0 24 24" version="1.1" xmlns="http://www.w3.org/2000/svg" xmlns:xlink="http://www.w3.org/1999/xlink">
    <title>图标-响应时长</title>
    <defs>
        <linearGradient x1="50%" y1="0%" x2="50%" y2="100%" id="linearGradient-1">
            <stop stop-color="#FFFFFF" stop-opacity="0.3" offset="0%"></stop>
            <stop stop-color="#FFFFFF" stop-opacity="0.7" offset="100%"></stop>
        </linearGradient>
    </defs>
    <g id="服务总览" stroke="none" stroke-width="1" fill="none" fill-rule="evenodd">
        <g id="UI：服务总览-#1" transform="translate(-1148.000000, -221.000000)" fill-rule="nonzero">
            <g id="统计数据" transform="translate(284.000000, 176.000000)">
                <g id="数据3" transform="translate(854.000000, 31.000000)">
                    <g id="图标-响应时长" transform="translate(10.000000, 14.000000)">
                        <rect id="矩形" fill="#000000" opacity="0" x="0" y="0" width="24" height="24"></rect>
                        <path d="M12,2 C17.5228475,2 22,6.4771525 22,12 C22,17.5228475 17.5228475,22 12,22 C6.4771525,22 2,17.5228475 2,12 C2,6.4771525 6.4771525,2 12,2 Z M12.4986941,7 L10.356602,7 C10.1593839,7 10.0000924,7.15937317 10.0000924,7.35669234 L10.0000924,7.35669234 L10.0005363,12.7617542 L10.0005363,12.7617542 L10.0031265,12.8087725 L10.0061606,12.8543077 C10.0483696,13.3160919 10.3127088,13.7283778 10.7146287,13.959295 L10.7146287,13.959295 L14.1158826,15.9233796 C14.2863868,16.0218651 14.5044046,15.9634254 14.6028596,15.7928454 L14.6028596,15.7928454 L15.6739057,13.9380453 C15.7216587,13.8559878 15.7347395,13.7582672 15.7102507,13.6665295 C15.6857619,13.5747918 15.6257248,13.4966096 15.5434383,13.4493009 L15.5434383,13.4493009 L12.8552037,11.895033 L12.8552037,7.35669234 C12.8552038,7.15937317 12.6959122,7 12.4986941,7 L12.4986941,7 Z" id="形状结合" fill="url(#linearGradient-1)"></path>
                    </g>
                </g>
            </g>
        </g>
    </g>
</svg>