<?xml version="1.0" encoding="UTF-8"?>
<svg width="13px" height="15px" viewBox="0 0 13 15" version="1.1" xmlns="http://www.w3.org/2000/svg" xmlns:xlink="http://www.w3.org/1999/xlink">
    <!-- Generator: Sketch 58 (84663) - https://sketch.com -->
    <title>B9790F37-7D15-4232-9669-1542F0B389FF</title>
    <desc>Created with Sketch.</desc>
    <g id="09.18" stroke="none" stroke-width="1" fill="none" fill-rule="evenodd">
        <g id="Easyops5.0/发布统计" transform="translate(-23.000000, -220.000000)">
            <g id="左侧菜单">
                <g id="左侧菜单/Row/F5" transform="translate(6.000000, 66.000000)">
                    <g id="任务统计" transform="translate(15.000000, 154.000000)">
                        <path d="M3.08333333,14.5 L14,14.5 C14.2761424,14.5 14.5,14.2761424 14.5,14 L14.5,6.89048286 C14.5,4.52167195 14.5,4.52167195 14.5,3.01424683 C14.5,2.29075768 14.5,2.29075768 14.5,1.15384615 C14.5,0.785935012 14.2315388,0.5 13.9166667,0.5 C12.6968862,0.5 12.6968862,0.5 11.975845,0.5 C9.93809474,0.5 9.93809474,0.5 8.50629326,0.5 C7.57002385,0.5 7.57002385,0.5 6.35655009,0.5 C5.1924154,0.5 5.1924154,0.5 3.08333333,0.5 C2.76846121,0.5 2.5,0.785935012 2.5,1.15384615 L2.5,13.8461538 C2.5,14.214065 2.76846121,14.5 3.08333333,14.5 Z" id="路径" stroke="#FFFFFF"></path>
                        <path d="M11.5,10 C11.7761424,10 12,10.2238576 12,10.5 C12,10.7761424 11.7761424,11 11.5,11 L6.5,11 C6.22385763,11 6,10.7761424 6,10.5 C6,10.2238576 6.22385763,10 6.5,10 L11.5,10 Z M4.5,10 C4.77614237,10 5,10.2238576 5,10.5 C5,10.7761424 4.77614237,11 4.5,11 C4.22385763,11 4,10.7761424 4,10.5 C4,10.2238576 4.22385763,10 4.5,10 Z M12.5,7 C12.7761424,7 13,7.22385763 13,7.5 C13,7.77614237 12.7761424,8 12.5,8 L6.5,8 C6.22385763,8 6,7.77614237 6,7.5 C6,7.22385763 6.22385763,7 6.5,7 L12.5,7 Z M4.5,7 C4.77614237,7 5,7.22385763 5,7.5 C5,7.77614237 4.77614237,8 4.5,8 C4.22385763,8 4,7.77614237 4,7.5 C4,7.22385763 4.22385763,7 4.5,7 Z M11.5,4 C11.7761424,4 12,4.22385763 12,4.5 C12,4.77614237 11.7761424,5 11.5,5 L6.5,5 C6.22385763,5 6,4.77614237 6,4.5 C6,4.22385763 6.22385763,4 6.5,4 L11.5,4 Z M4.5,4 C4.77614237,4 5,4.22385763 5,4.5 C5,4.77614237 4.77614237,5 4.5,5 C4.22385763,5 4,4.77614237 4,4.5 C4,4.22385763 4.22385763,4 4.5,4 Z" id="形状结合" fill="#FFFFFF"></path>
                    </g>
                </g>
            </g>
        </g>
    </g>
</svg>