<?xml version="1.0" encoding="UTF-8"?>
<svg width="20px" height="20px" viewBox="0 0 20 20" version="1.1" xmlns="http://www.w3.org/2000/svg" xmlns:xlink="http://www.w3.org/1999/xlink">
    <!-- Generator: Sketch 63.1 (92452) - https://sketch.com -->
    <title>测试管理—TUNA（小产品图标）</title>
    <desc>Created with Sketch.</desc>
    <g id="第三版" stroke="none" stroke-width="1" fill="none" fill-rule="evenodd">
        <g id="画板" transform="translate(-392.000000, -138.000000)">
            <g id="测试管理—TUNA（小产品图标）" transform="translate(391.000000, 137.000000)">
                <rect id="矩形" opacity="0" x="0" y="0" width="22" height="22"></rect>
                <path d="M15.0951901,17.2842993 L16.8463131,17.3755098 L16.7520142,19.1811412 C15.125155,20.327061 13.1411641,21 11,21 C10.7374918,21 10.477346,20.9898851 10.2199312,20.9700238 L11.5861426,19.6959606 L10.4523218,18.4803082 C10.6331796,18.4933606 10.8158145,18.5 11,18.5 C12.5110887,18.5 13.9178021,18.0531164 15.0951901,17.2842993 Z M9.10651218,18.2589335 L10.4083388,19.6551286 L9.14989768,20.8291954 C6.91283542,20.4107351 4.93809207,19.2474285 3.4928976,17.6065054 L5.37119267,17.6726479 L5.42849073,16.0208787 C6.39511147,17.0928209 7.66668678,17.8844073 9.10651218,18.2589335 Z M19.6110937,11.7322038 L20.7834139,13.0798501 C20.3316443,15.2154534 19.198295,17.0995114 17.621677,18.4937133 L17.7217672,16.5865425 L16.096984,16.5019327 C17.125604,15.5485692 17.8864043,14.3103056 18.2539378,12.912589 L19.6110937,11.7322038 Z M1.0302076,10.2169381 L2.30409789,11.5834504 L3.5199091,10.4493188 C3.50671305,10.6311579 3.5,10.814795 3.5,11 C3.5,12.4552318 3.91445642,13.8136621 4.63176945,14.9636911 L4.56707814,16.8107726 L2.81745443,16.7500199 C1.67238923,15.1235337 1,13.1402893 1,11 C1,10.7364743 1.01019346,10.4753294 1.0302076,10.2169381 Z M17.6356676,5.42326045 L19.404226,5.57847232 C20.4138985,7.14040314 21,9.0017559 21,11 C21,11.3382172 20.9832094,11.6725127 20.9504162,12.0020985 L19.6930084,10.5565457 L18.4750119,11.6166644 C18.4915626,11.4132964 18.5,11.2076335 18.5,11 C18.5,9.6209289 18.1277902,8.32879206 17.4783494,7.21856834 L17.6356676,5.42326045 Z M4.48103455,3.41669184 L4.41666667,5.28785934 L6.07312615,5.34513095 C4.95447598,6.32058534 4.12795616,7.62255392 3.74211416,9.10248923 L2.344933,10.4056437 L1.1713649,9.14690496 C1.5977176,6.87150061 2.79470604,4.86766435 4.48103455,3.41669184 Z M18.7533959,4.68406034 L16.8780567,4.52083333 L16.7346904,6.16618143 C15.7908694,5.04760765 14.5257311,4.20898342 13.0816082,3.79264131 L11.595178,2.30662574 L12.7491657,1.15246124 C15.1580739,1.57743288 17.2695481,2.86469674 18.7533959,4.68406034 Z M11,1 C11.2350364,1 11.468179,1.00810861 11.6991632,1.02406134 L10.4166667,2.30691738 L11.6376254,3.52672336 C11.4274312,3.50902737 11.2147699,3.5 11,3.5 C9.60086747,3.5 8.29121688,3.88311771 7.17023265,4.5501687 L5.27853061,4.48406866 L5.33808159,2.75613269 C6.94785391,1.64842104 8.89820353,1 11,1 Z" id="形状结合" fill="#FFFFFF" fill-rule="nonzero"></path>
                <text id="T" font-family="PingFangSC-Medium, PingFang SC" font-size="12" font-weight="400" fill="#FFFFFF">
                    <tspan x="7.2" y="16">T</tspan>
                </text>
            </g>
        </g>
    </g>
</svg>