<?xml version="1.0" encoding="UTF-8"?>
<svg width="16px" height="16px" viewBox="0 0 16 16" version="1.1" xmlns="http://www.w3.org/2000/svg" xmlns:xlink="http://www.w3.org/1999/xlink">
    <title>UCPRO installer-outlined</title>
    <g id="UCPRO-installer-outlined" stroke="none" stroke-width="1" fill="none" fill-rule="evenodd">
        <rect id="矩形" fill-opacity="0" fill="#F0F0F0" x="0" y="0" width="16" height="16"></rect>
        <rect id="矩形" fill-opacity="0" fill="#D8D8D8" x="1" y="1" width="14" height="14"></rect>
        <g id="UC浏览器-(1)" transform="translate(1.000000, 1.000000)" fill="#262626" fill-rule="nonzero">
            <path d="M6.93497461,1.32108972 C7.65075596,2.2251678 7.67884379,3.24992356 7.28557345,4.30243903 C6.93348775,5.24476791 6.24277973,5.89271793 5.41813004,6.42449514 C4.90150954,6.75767267 4.37470489,7.07786317 3.87924701,7.44022087 C3.06718491,8.03411248 2.51418669,8.81158758 2.32117707,9.81560471 C1.9978106,11.4974217 2.95742036,13.4640599 4.77182477,13.9616448 C4.77896724,13.9636131 4.78596034,13.9661339 4.79400128,13.9694039 L4.86439851,13.9995912 C3.91992235,14.0087835 3.04372061,13.8643031 2.2455293,13.4298878 C0.97874582,12.74042 0.232778723,11.6650352 0.0416633539,10.240645 C-0.148433588,8.82366145 0.322847162,7.59866232 1.23341017,6.5218571 C1.65637743,6.02167482 2.09022134,5.52962971 2.49279997,5.0134775 C2.8087524,4.60842503 2.97243174,4.13933039 2.96047556,3.61291032 C2.94238855,2.81297177 2.27695755,2.13151933 1.4732668,2.10022877 C0.992453676,2.0814585 0.559892984,2.21234315 0.167376268,2.48498905 C0.1312226,2.51013109 0.094356056,2.53431939 0.025959448,2.58046383 C0.224387023,2.15371899 0.482900975,1.81670625 0.786184339,1.51583391 C1.51589757,0.791991072 2.3588787,0.261350222 3.38820901,0.0776247117 C4.80347709,-0.174891353 6.02815937,0.175636006 6.93497461,1.32108972 Z M9.58756995,10.7283628 C9.67147836,11.3869513 9.63529183,12.0269518 9.4333,12.6588035 C9.41942473,12.7022432 9.40936722,12.7468586 9.39543037,12.79867 C9.67063682,12.84363 9.93792039,12.8733262 10.1982048,12.9329823 C10.587759,13.0222131 10.9258146,13.2077084 11.1685291,13.5324215 C11.2256722,13.6089629 11.2607093,13.7015991 11.3076923,13.7901407 C10.8896076,13.9216354 7.45006078,14.0280555 6.21054396,13.9933727 C7.1740128,13.6272672 7.86705765,13.0422808 8.16853677,12.0930133 C8.46907172,11.1466648 8.3095267,10.2621615 7.72151104,9.45829431 C6.83051788,8.24013862 4.67262683,7.80914726 3.23076923,9.21934566 C3.6240591,8.33431537 4.30279764,7.80572156 5.2612172,7.60356386 C7.06196385,7.22371496 9.30838155,8.53730417 9.58756995,10.7283628 Z M5.3950749,9.15387707 C6.64074326,9.16015033 7.52931957,10.1327545 7.53839782,11.3163662 C7.5475189,12.5025949 6.57618921,13.460291 5.38269936,13.4612778 C4.16707059,13.4803901 3.23064076,12.4457513 3.23076923,11.3128913 C3.2308977,10.2530054 4.05091612,9.14710849 5.3950749,9.15387707 Z M5.38732415,10.3129164 C4.85999358,10.3039501 4.39785938,10.765048 4.39547214,11.3026165 C4.39299908,11.8528622 4.82652823,12.2941399 5.37165133,12.2960774 C5.92912853,12.2981082 6.38503214,11.8524332 6.38128523,11.3090516 C6.37762394,10.777575 5.92306924,10.3219685 5.38732415,10.3129164 Z M10.3354847,7.48560339 C10.9711119,7.88461745 11.634491,8.19500723 12.3882604,8.29133439 C12.6644771,8.32665298 12.9444575,8.35240442 13.213519,8.41898529 C13.5996268,8.51455444 13.8860179,8.73886029 13.9895604,9.14311885 C13.9952679,9.16561294 13.9990316,9.18898794 14,9.2120147 C14.0004379,9.22238083 13.9917938,9.23311573 13.9766977,9.2684548 C13.297478,9.01104289 12.66791,9.14860921 12.0477511,9.45682744 C11.8330767,9.56345926 11.5927183,9.64507717 11.3559169,9.67543805 C11.0847253,9.71020349 10.8039798,9.68283364 10.5282181,9.66789904 C10.3360017,9.65745095 10.2236911,9.54334158 10.1242845,9.3726692 C9.42812828,8.17773715 8.45141267,7.30788367 7.08875469,6.93236754 C6.70436331,6.82641177 6.29507373,6.80545417 5.89564832,6.75878609 C5.84109568,6.75240798 5.7860743,6.74992913 5.73081243,6.7494587 L5.39818117,6.7556107 L5.38461538,6.70193628 C5.6413933,6.63457692 5.89440753,6.53536117 6.15556951,6.50518467 C7.66606554,6.33061987 9.0587709,6.68415406 10.3354847,7.48560339 Z M10.8972418,2.15384615 C10.9972762,2.28292062 11.101363,2.37643591 11.1548349,2.49435374 C11.284756,2.781042 11.4082742,3.07353841 11.4999201,3.37480969 C11.5476375,3.53158777 11.5990426,3.62313914 11.7592962,3.68188913 C13.0389946,4.15103245 13.7592138,5.0989715 13.9598904,6.47391351 C13.9900202,6.68049954 13.9794029,6.89306085 13.9980036,7.10190328 C14.0120858,7.26049902 13.9521097,7.34373512 13.8040945,7.38873779 C13.0465524,7.6190996 12.3065979,7.60286604 11.6035814,7.20459041 C10.9344027,6.82553598 10.2755982,6.42817961 9.54490351,6.18012178 C8.88378914,5.95571436 8.21400258,5.78709018 7.53846154,5.79068371 C8.13423037,5.49277613 8.75376674,5.19990365 9.35658682,4.87420891 C9.63827161,4.72200634 9.88830691,4.5072722 10.1515531,4.31917611 C10.2703503,4.23431037 10.3093752,4.12019497 10.314765,3.96623741 C10.3323728,3.46508661 10.4110914,2.97436123 10.6556559,2.52926528 C10.7209001,2.41046996 10.8018475,2.30097184 10.8972418,2.15384615 Z" id="图形"></path>
        </g>
    </g>
</svg>