<?xml version="1.0" encoding="UTF-8"?>
<svg width="20px" height="20px" viewBox="0 0 20 20" version="1.1" xmlns="http://www.w3.org/2000/svg" xmlns:xlink="http://www.w3.org/1999/xlink">
    <title>UCPRO installer-filled</title>
    <g id="UCPRO-installer-filled" stroke="none" stroke-width="1" fill="none" fill-rule="evenodd">
        <rect id="矩形" fill-opacity="0" fill="#D8D8D8" x="0" y="0" width="20" height="20"></rect>
        <g id="UC浏览器-(1)" transform="translate(2.000000, 2.000000)" fill="#262626" fill-rule="nonzero">
            <path d="M3.87223835,0.0887139443 C5.48968737,-0.199875806 6.88932408,0.200726837 7.92568421,1.50981662 C8.74371993,2.54304858 8.7758203,3.71419785 8.32636855,4.91707252 C7.92398494,5.99401967 7.13460445,6.73453388 6.19214779,7.34227918 C5.60172444,7.72305345 4.99966207,8.08898541 4.43342456,8.50310843 C3.50535371,9.18184161 2.87335584,10.0703845 2.65277343,11.2178325 C2.28321181,13.1399087 3.37990854,15.387495 5.4535133,15.9561633 C5.47800176,15.9629119 5.50095387,15.9753424 5.55931184,15.9995306 C4.47991066,16.0100362 3.47853737,15.8449157 2.56631885,15.3484412 C1.1185665,14.560478 0.26603279,13.331467 0.0476152552,11.7035927 C-0.169638364,10.0841832 0.368968136,8.68418435 1.40961143,7.45354997 C1.89300253,6.88191316 2.38882407,6.31957597 2.84891387,5.7296878 C3.21000232,5.26677076 3.39706439,4.73066267 3.38340019,4.12903982 C3.36272932,3.21482445 2.60223685,2.43602177 1.68373327,2.40026113 C1.13423262,2.3788094 0.63987761,2.52839183 0.191287138,2.83998711 C0.149968665,2.86872086 0.107835478,2.89636462 0.0296679367,2.94910112 C0.256442278,2.4613928 0.551886755,2.07623544 0.898496268,1.73238138 C1.73245414,0.905132533 2.69586101,0.298685928 3.87223835,0.0887139443 Z M6.01281886,8.68978611 C8.07081475,8.25567314 10.6381489,9.75691775 10.9572213,12.2609844 C11.0531166,13.0136569 11.0117606,13.7450859 10.7809128,14.4672021 C10.7650554,14.5168474 10.7535611,14.5678364 10.7376333,14.6270495 C11.0521549,14.6784323 11.3576218,14.7123709 11.6550896,14.7805493 C12.1002944,14.8825272 12.4866436,15.0945219 12.7640316,15.4656225 C12.7858004,15.4947812 12.8047621,15.5259836 12.822358,15.5583752 L12.9230752,15.7601586 C12.5276454,15.884528 9.76719168,15.9892705 8.02412409,15.9992245 L7.61151015,15.9996947 C7.41775837,15.9988989 7.24430742,15.9965242 7.09776358,15.9924238 C8.19887068,15.5740176 8.99092183,14.9054618 9.33546935,13.8205848 C9.67893782,12.7390438 9.49660068,11.728183 8.82458286,10.8094778 C7.8063051,9.41730002 5.34014424,8.92473853 3.6923072,10.5363936 C4.14178127,9.52493058 4.91748236,8.92082345 6.01281886,8.68978611 Z M6.16579906,10.4615724 C7.58941985,10.4687418 8.6049355,11.5802893 8.61531065,12.9329882 C8.62573474,14.288678 7.51564381,15.3831877 6.15165559,15.3843154 C4.76236575,15.406158 3.69216038,14.2237139 3.6923072,12.9290169 C3.69245402,11.7177189 4.62961781,10.4538369 6.16579906,10.4615724 Z M6.15694106,11.7861886 C5.55427763,11.7759414 5.02612433,12.3029103 5.02339606,12.9172743 C5.0205697,13.5461264 5.51603153,14.0504437 6.13902927,14.052658 C6.77614598,14.0549789 7.29717861,13.5456361 7.29289644,12.9246287 C7.28871211,12.3172269 6.76922108,11.7965338 6.15694106,11.7861886 Z M7.03493565,7.43449578 C8.76121659,7.23499317 10.3528796,7.63903219 11.8119809,8.55497417 C12.5384119,9.01099016 13.2965594,9.36572129 14.15801,9.47580946 C14.4736862,9.51617357 14.7936637,9.54560377 15.1011626,9.62169619 C15.5424286,9.73091806 15.8697326,9.98726757 15.9880668,10.4492773 C15.9945898,10.4749848 15.9988911,10.5016991 15.9999979,10.5280154 C16.0004983,10.5398624 15.9906194,10.5521308 15.9733667,10.5925184 C15.1971157,10.2983334 14.4776095,10.455552 13.7688565,10.8078013 C13.5235144,10.9296663 13.2488192,11.0229439 12.978189,11.057642 C12.6682558,11.0973739 12.3474038,11.0660941 12.0322476,11.049026 C11.8125718,11.0370853 11.6842168,10.9066746 11.5706093,10.7116205 C10.7750023,9.34598407 9.65875604,8.35186593 8.10143285,7.9227047 C7.66212848,7.80161241 7.19436902,7.77766087 6.73788289,7.72432593 C6.5508453,7.70245814 6.3589864,7.72069691 6.16934908,7.72069691 C6.16419692,7.70023392 6.15904475,7.67984115 6.15384533,7.65935473 C6.44730577,7.58237261 6.73646485,7.4689832 7.03493565,7.43449578 Z M12.453989,2.46153813 C12.568314,2.60905179 12.6872703,2.71592639 12.748381,2.85068961 C12.8968623,3.17833329 13.0380259,3.51261485 13.142764,3.85692485 C13.1972982,4.03609977 13.256047,4.1407299 13.4391939,4.20787274 C14.9017062,4.74403646 15.7248136,5.82739522 15.9541583,7.39875731 C15.9885924,7.6348556 15.9764583,7.87778277 15.9977162,8.11645981 C16.0138102,8.29771206 15.9452661,8.39283902 15.7761059,8.44427063 C14.9103436,8.70754123 14.0646815,8.6889886 13.2612341,8.23381651 C12.4964585,7.8006115 11.7435392,7.34649 10.9084597,7.06299538 C10.1529005,6.80652979 9.38743027,6.61381646 8.61538347,6.61792336 C9.29626204,6.27745759 10.0043035,5.94274623 10.6932407,5.57052373 C11.0151661,5.39657795 11.3009207,5.15116754 11.6017735,4.93620061 C11.7375416,4.8392112 11.7821416,4.70879363 11.7883013,4.53284215 C11.8084245,3.96009846 11.8983885,3.39926952 12.1778908,2.89058851 C12.2524556,2.75482244 12.3449669,2.62968175 12.453989,2.46153813 Z" id="图形"></path>
        </g>
    </g>
</svg>