<?xml version="1.0" encoding="UTF-8"?>
<svg width="16px" height="16px" viewBox="0 0 16 16" version="1.1" xmlns="http://www.w3.org/2000/svg" xmlns:xlink="http://www.w3.org/1999/xlink">
    <title>work-calendar</title>
    <g id="工作日历" stroke="none" stroke-width="1" fill="none" fill-rule="evenodd">
        <g id="菜单icon" transform="translate(2.000000, 2.000000)">
            <path d="M9.42902138,0.907810954 L11.2662767,0.907810954 C11.5534648,0.907810954 11.7862767,1.14062288 11.7862767,1.42781094 L11.7862767,10.387811 C11.7862767,10.674999 11.5534648,10.907811 11.2662767,10.907811 L0.519999981,10.907811 C0.232811922,10.907811 0,10.674999 0,10.387811 L0,1.42781094 C0,1.14062288 0.232811922,0.907810954 0.519999981,0.907810954 L2.03725307,0.907810954 M4.27590516,0.907810954 L7.27499304,0.907810954" id="形状" stroke="#595959" stroke-linecap="round"></path>
            <g id="编组-3" transform="translate(1.833421, 4.810697)" fill="#595959">
                <path d="M2.09533808,0.26 L2.09533808,1.51832504 C2.09533808,1.66191908 1.97893212,1.77832504 1.83533808,1.77832504 L0.26,1.77832504 C0.116405965,1.77832504 1.75851975e-17,1.66191908 0,1.51832504 L0,0.26 C-1.75851975e-17,0.116405965 0.116405965,2.63777963e-17 0.26,0 L1.83533808,0 C1.97893212,-2.63777963e-17 2.09533808,0.116405965 2.09533808,0.26 Z" id="直线-5备份-61"></path>
                <path d="M2.09533808,3.05451078 L2.09533808,4.31283583 C2.09533808,4.45642986 1.97893212,4.57283583 1.83533808,4.57283583 L0.26,4.57283583 C0.116405965,4.57283583 1.75851975e-17,4.45642986 0,4.31283583 L0,3.05451078 C-1.75851975e-17,2.91091675 0.116405965,2.79451078 0.26,2.79451078 L1.83533808,2.79451078 C1.97893212,2.79451078 2.09533808,2.91091675 2.09533808,3.05451078 Z" id="直线-5备份-71"></path>
                <path d="M5.23834521,0.26 L5.23834521,1.51832504 C5.23834521,1.66191908 5.12193925,1.77832504 4.97834521,1.77832504 L3.40300713,1.77832504 C3.25941309,1.77832504 3.14300713,1.66191908 3.14300713,1.51832504 L3.14300713,0.26 C3.14300713,0.116405965 3.25941309,2.63777963e-17 3.40300713,0 L4.97834521,0 C5.12193925,-2.63777963e-17 5.23834521,0.116405965 5.23834521,0.26 Z" id="直线-5备份-62"></path>
                <path d="M5.23834521,3.05451078 L5.23834521,4.31283583 C5.23834521,4.45642986 5.12193925,4.57283583 4.97834521,4.57283583 L3.40300713,4.57283583 C3.25941309,4.57283583 3.14300713,4.45642986 3.14300713,4.31283583 L3.14300713,3.05451078 C3.14300713,2.91091675 3.25941309,2.79451078 3.40300713,2.79451078 L4.97834521,2.79451078 C5.12193925,2.79451078 5.23834521,2.91091675 5.23834521,3.05451078 Z" id="直线-5备份-72"></path>
                <path d="M8.38135234,0.26 L8.38135234,1.51832504 C8.38135234,1.66191908 8.26494637,1.77832504 8.12135234,1.77832504 L6.54601425,1.77832504 C6.40242022,1.77832504 6.28601425,1.66191908 6.28601425,1.51832504 L6.28601425,0.26 C6.28601425,0.116405965 6.40242022,2.63777963e-17 6.54601425,0 L8.12135234,0 C8.26494637,-2.63777963e-17 8.38135234,0.116405965 8.38135234,0.26 Z" id="直线-5备份-70"></path>
            </g>
            <polyline id="路径" stroke="#595959" transform="translate(5.893138, 3.794511) rotate(-180.000000) translate(-5.893138, -3.794511) " points="0 3.79451078 0 3.79451078 11.7862767 3.79451078"></polyline>
            <path d="M8.38135234,2.03237148 C8.95996397,2.03237148 9.42902138,1.57740963 9.42902138,1.01618574 C9.42902138,0.454961852 8.95996397,0 8.38135234,0 C7.86573411,0 7.4371143,0.361291028 7.34989813,0.837112942" id="路径" stroke="#595959" stroke-linecap="round"></path>
            <rect id="矩形备份" fill="#000000" fill-rule="nonzero" opacity="0" x="8.38135234" y="8.11330078" width="4.19067555" height="4.06474235"></rect>
            <path d="M3.14300713,2.03237148 C3.72161876,2.03237148 4.19067617,1.57740963 4.19067617,1.01618574 C4.19067617,0.454961852 3.72161876,0 3.14300713,0 C2.61781969,0 2.18288978,0.374825668 2.10705145,0.863721652" id="路径" stroke="#595959" stroke-linecap="round"></path>
            <g id="编组" transform="translate(8.000000, 8.000000)" fill-rule="nonzero">
                <rect id="矩形" fill="#000000" opacity="0" x="0" y="0" width="5" height="5"></rect>
                <path d="M0,2.5 C0,3.88071187 1.11928813,5 2.5,5 C3.88071187,5 5,3.88071187 5,2.5 C5,1.11928813 3.88071187,0 2.5,0 C1.11928813,0 0,1.11928813 0,2.5 Z" id="路径" fill="#595959"></path>
                <path d="M2.09928571,3.02142857 L3.61892857,1.44214286 C3.75571767,1.30002815 3.98181387,1.2957109 4.12392857,1.4325 C4.26604327,1.5692891 4.27036053,1.7953853 4.13357143,1.9375 L2.36892857,3.77142857 C2.23320851,3.91271412 2.00900555,3.91829131 1.86642857,3.78392857 L0.826428569,2.80357143 C0.731778097,2.71646919 0.691278432,2.58519802 0.720402159,2.45990907 C0.749525885,2.33462011 0.843773226,2.23467122 0.967137709,2.19824709 C1.09050219,2.16182296 1.22392332,2.19455133 1.31642857,2.28392857 L2.09928571,3.02142857 Z" id="路径" fill="#F9F9F9"></path>
            </g>
        </g>
    </g>
</svg>