<?xml version="1.0" encoding="UTF-8"?>
<svg width="16px" height="16px" viewBox="0 0 16 16" version="1.1" xmlns="http://www.w3.org/2000/svg" xmlns:xlink="http://www.w3.org/1999/xlink">
    <title>announcement-management-third-menu</title>
    <g id="announcement-management-third-menu" stroke="none" stroke-width="1" fill="none" fill-rule="evenodd">
        <rect id="矩形" fill-opacity="0" fill="#F0F0F0" x="0" y="0" width="16" height="16"></rect>
        <g id="Topic" transform="translate(0.400000, 0.994212)">
            <rect id="矩形" fill="#D8D8D8" opacity="0" x="0.6" y="0.00578847088" width="14" height="14"></rect>
            <g id="图形" fill="#000000" fill-rule="nonzero">
                <path d="M8.89831554,0.606861381 L10.579,2.73 L13.6,2.73078847 C14.4836556,2.73078847 15.2,3.44713287 15.2,4.33078847 L15.2,12.8307885 C15.2,13.7144441 14.4836556,14.4307885 13.6,14.4307885 L1.6,14.4307885 C0.7163444,14.4307885 0,13.7144441 0,12.8307885 L0,4.33078847 C0,3.44713287 0.7163444,2.73078847 1.6,2.73078847 L4.649,2.73 L6.40609556,0.586240871 C6.44241079,0.541902446 6.48107543,0.499555394 6.54548943,0.43741086 L6.62596289,0.366340861 L6.65067761,0.345668322 C7.34346027,-0.202874664 8.34975353,-0.0859453064 8.89831554,0.606861381 Z M13.6,3.93078847 L1.6,3.93078847 C1.3790861,3.93078847 1.2,4.10987457 1.2,4.33078847 L1.2,12.8307885 C1.2,13.0517024 1.3790861,13.2307885 1.6,13.2307885 L13.6,13.2307885 C13.8209139,13.2307885 14,13.0517024 14,12.8307885 L14,4.33078847 C14,4.10987457 13.8209139,3.93078847 13.6,3.93078847 Z M8.0375,8.99841542 L8.0375,10.1984154 L3.6625,10.1984154 L3.6625,8.99841542 L8.0375,8.99841542 Z M11.5375,6.37341542 L11.5375,7.57341542 L3.6625,7.57341542 L3.6625,6.37341542 L11.5375,6.37341542 Z M7.39559631,1.2864638 L7.36340693,1.3148918 L7.35585084,1.32252643 L7.33441457,1.34665117 L6.201,2.73002221 L9.049,2.73002221 L7.95750104,1.35175605 C7.82036529,1.17856039 7.56879198,1.14932805 7.39559631,1.2864638 Z" id="形状结合"></path>
            </g>
        </g>
    </g>
</svg>