<?xml version="1.0" encoding="UTF-8"?>
<svg width="20px" height="20px" viewBox="0 0 20 20" version="1.1" xmlns="http://www.w3.org/2000/svg" xmlns:xlink="http://www.w3.org/1999/xlink">
    <title>announcement-management-second-menu</title>
    <g id="announcement-management-second-menu" stroke="none" stroke-width="1" fill="none" fill-rule="evenodd">
        <rect id="矩形" fill-opacity="0" fill="#D8D8D8" x="0" y="0" width="20" height="20"></rect>
        <g id="Topic" transform="translate(2.000000, 1.744200)">
            <rect id="矩形" fill="#D8D8D8" opacity="0" x="0" y="0.255800325" width="16" height="16"></rect>
            <g id="图形" fill="#57689C">
                <path d="M9.5024496,0.70165781 L12.157,4.055 L15,4.05580033 C15.5522847,4.05580033 16,4.50351558 16,5.05580033 L16,15.0558003 C16,15.6080851 15.5522847,16.0558003 15,16.0558003 L1,16.0558003 C0.44771525,16.0558003 6.76353751e-17,15.6080851 0,15.0558003 L0,5.05580033 C-6.76353751e-17,4.50351558 0.44771525,4.05580033 1,4.05580033 L3.854,4.055 L6.62084225,0.677843128 C6.70486663,0.575255085 6.79967749,0.481998479 6.90364025,0.399681119 C7.7046702,-0.234571709 8.86819678,-0.0993721387 9.5024496,0.70165781 Z M8.5,11.7616597 L3.5,11.7616597 L3.5,12.9616597 L8.5,12.9616597 L8.5,11.7616597 Z M12.5,8.7616597 L3.5,8.7616597 L3.5,9.9616597 L12.5,9.9616597 L12.5,8.7616597 Z M7.95894174,1.73247471 C7.95051233,1.73914909 7.94282496,1.74671044 7.93601218,1.75502839 L6.05,4.055 L9.989,4.055 L8.16965601,1.75695931 C8.11823011,1.69201093 8.02389012,1.6810488 7.95894174,1.73247471 Z" id="形状结合"></path>
            </g>
        </g>
    </g>
</svg>