<?xml version="1.0" encoding="UTF-8"?>
<svg width="20px" height="20px" viewBox="0 0 20 20" version="1.1" xmlns="http://www.w3.org/2000/svg" xmlns:xlink="http://www.w3.org/1999/xlink">
    <title>business-hours-second-menu</title>
    <g id="business-hours-second-menu" stroke="none" stroke-width="1" fill="none" fill-rule="evenodd">
        <rect id="milestone-second-menu" fill-opacity="0" fill="#D8D8D8" x="0" y="0" width="20" height="20"></rect>
        <g id="编组" transform="translate(2.000000, 2.000000)" fill="#57689C">
            <path d="M3,2 L3,3.5 C3,4.27969612 3.59488808,4.92044868 4.35553999,4.99313342 L4.5,5 C5.32842712,5 6,4.32842712 6,3.5 L6,2 L10,2 L10,3.5 C10,4.27969612 10.5948881,4.92044868 11.35554,4.99313342 L11.5,5 C12.3284271,5 13,4.32842712 13,3.5 L13,2 L15,2 C15.5522847,2 16,2.44771525 16,3 L16,6 L9.09494702e-13,6 L9.09494702e-13,3 C9.09427066e-13,2.44771525 0.44771525,2 1,2 L3,2 Z M4.5,0 C4.83137085,-6.08718376e-17 5.1,0.26862915 5.1,0.6 L5.1,3.4 C5.1,3.73137085 4.83137085,4 4.5,4 C4.16862915,4 3.9,3.73137085 3.9,3.4 L3.9,0.6 C3.9,0.26862915 4.16862915,6.08718376e-17 4.5,0 Z M11.5,0 C11.8313708,-6.08718376e-17 12.1,0.26862915 12.1,0.6 L12.1,3.4 C12.1,3.73137085 11.8313708,4 11.5,4 C11.1686292,4 10.9,3.73137085 10.9,3.4 L10.9,0.6 C10.9,0.26862915 11.1686292,6.08718376e-17 11.5,0 Z M12,8 C9.79285714,8 8,9.79285714 8,12 C8,14.2071429 9.79285714,16 12,16 C14.2071429,16 16,14.2071429 16,12 C16,9.79285714 14.2071429,8 12,8 Z M13.7071429,13.3928571 L11.7928571,12.2857143 L11.7142857,12.2857143 L11.7142857,9.71428571 L12.2857143,9.71428571 L12.2857143,11.9142857 L13.9928571,12.9 L13.7071429,13.3928571 Z" id="形状结合"></path>
            <path d="M16,6 L16.0002388,9.00188187 C15.0876015,7.78677903 13.6347035,7 12,7 C9.24107143,7 7,9.24107143 7,12 C7,13.6351545 7.78721317,15.0884031 9.00288757,16.0009939 L1,16 C0.44771525,16 -4.12114787e-13,15.5522847 -4.12114787e-13,15 L-4.12114787e-13,6 L16,6 Z" id="形状结合" fill-rule="nonzero" opacity="0.55"></path>
        </g>
    </g>
</svg>