<?xml version="1.0" encoding="UTF-8"?>
<svg width="16px" height="16px" viewBox="0 0 16 16" version="1.1" xmlns="http://www.w3.org/2000/svg" xmlns:xlink="http://www.w3.org/1999/xlink">
    <title>copywriting-settings-third-menu</title>
    <g id="copywriting-settings-third-menu" stroke="none" stroke-width="1" fill="none" fill-rule="evenodd">
        <rect id="矩形" fill-opacity="0" fill="#F0F0F0" x="0" y="0" width="16" height="16"></rect>
        <g id="icon_描述" transform="translate(1.000000, 2.000000)" fill="#000000" fill-rule="nonzero">
            <path d="M6.95345914,2.08520087 L13.3588607,2.08520087 C13.7129521,2.08520087 14,1.798153 14,1.44406152 C14,1.08997003 13.7129521,0.802922169 13.3588607,0.802922169 L6.95345914,0.802922169 C6.59936766,0.802922169 6.31231979,1.08997003 6.31231979,1.44406152 C6.31231979,1.798153 6.59936766,2.08520087 6.95345914,2.08520087 Z M13.3588607,4.23631324 L7.71443762,4.23631324 C7.36034613,4.23631324 7.07329827,4.5233611 7.07329827,4.87745259 C7.07329827,5.23154407 7.36034613,5.51859194 7.71443762,5.51859194 L13.3588607,5.51859194 C13.7129521,5.51859194 14,5.23154407 14,4.87745259 C14,4.5233611 13.7129521,4.23631324 13.3588607,4.23631324 Z M13.3229089,7.67569627 L0.769760043,7.67569627 C0.540677688,7.67565828 0.328980602,7.79785044 0.214428453,7.99623524 C0.0998763039,8.19462005 0.0998763039,8.43905119 0.214428453,8.637436 C0.328980602,8.8358208 0.540677688,8.95801296 0.769760043,8.95797497 L13.316917,8.95797497 C13.6708715,8.95764462 13.9577259,8.67079018 13.9581727,8.31683563 C13.9612651,8.14996453 13.8980374,7.9886564 13.7822889,7.86841276 C13.6665404,7.74816912 13.507757,7.67884452 13.3408848,7.67569627 L13.3229089,7.67569627 Z M13.3229089,11.1150793 L0.769760043,11.1150793 C0.415668559,11.1150793 0.128620695,11.4021272 0.128620695,11.7562187 C0.128620695,12.1103101 0.415668559,12.397358 0.769760043,12.397358 L13.316917,12.397358 C13.6708715,12.3970277 13.957726,12.1101732 13.9581727,11.7562187 C13.9612651,11.5893476 13.8980374,11.4280394 13.7822889,11.3077958 C13.6665404,11.1875521 13.507757,11.1182275 13.3408848,11.1150793 C13.3348928,11.1150793 13.3289009,11.1090874 13.3229089,11.1150793 Z M2.86694482,0 C2.52390429,0 2.21540551,0.208792237 2.08799046,0.527292174 L0.0447333079,5.47065629 C-0.0161010754,5.61913601 -0.0148412477,5.78581173 0.0482306414,5.9333549 C0.11130253,6.08089808 0.230916117,6.19697982 0.380282857,6.25560258 C0.450583875,6.28444246 0.526007533,6.29871181 0.601985251,6.29754629 C0.850593189,6.29726415 1.07384375,6.14526376 1.16522917,5.91406106 L1.63859374,4.67372607 L4.06533611,4.67372607 L4.56866047,5.92005303 C4.66351773,6.14761498 4.88536676,6.29630104 5.13190436,6.29754629 C5.46765806,6.29556608 5.73841971,6.02212362 5.73709683,5.68636671 C5.73532554,5.60871923 5.72116588,5.53185252 5.69514828,5.45867236 L3.65189111,0.521300221 C3.51747284,0.206663753 3.20908649,0.00185754597 2.86694482,0 L2.86694482,0 Z M2.84896894,1.5698926 L3.66387503,3.64310956 L2.04604677,3.64310956 L2.84896894,1.5698926 Z" id="形状"></path>
        </g>
    </g>
</svg>