<?xml version="1.0" encoding="UTF-8"?>
<svg width="20px" height="20px" viewBox="0 0 20 20" version="1.1" xmlns="http://www.w3.org/2000/svg" xmlns:xlink="http://www.w3.org/1999/xlink">
    <title>copywriting-settings-second-menu</title>
    <g id="copywriting-settings-second-menu" stroke="none" stroke-width="1" fill="none" fill-rule="evenodd">
        <rect id="矩形" fill-opacity="0" fill="#D8D8D8" x="0" y="0" width="20" height="20"></rect>
        <g id="icon_描述" transform="translate(2.000000, 3.000000)" fill="#57689C" fill-rule="nonzero">
            <path d="M7.94681045,2.3830867 L15.2672693,2.3830867 C15.6719453,2.3830867 16,2.055032 16,1.65035602 C16,1.24568004 15.6719453,0.917625336 15.2672693,0.917625336 L7.94681045,0.917625336 C7.54213447,0.917625336 7.21407976,1.24568004 7.21407976,1.65035602 C7.21407976,2.055032 7.54213447,2.3830867 7.94681045,2.3830867 Z M15.2672693,4.84150085 L8.81650013,4.84150085 C8.41182415,4.84150085 8.08376945,5.16955555 8.08376945,5.57423153 C8.08376945,5.97890751 8.41182415,6.30696221 8.81650013,6.30696221 L15.2672693,6.30696221 C15.6719453,6.30696221 16,5.97890751 16,5.57423153 C16,5.16955555 15.6719453,4.84150085 15.2672693,4.84150085 Z M15.2261816,8.77222431 L0.879725764,8.77222431 C0.617917358,8.77218089 0.375977831,8.91182907 0.245061089,9.13855457 C0.114144347,9.36528006 0.114144347,9.64462993 0.245061089,9.87135542 C0.375977831,10.0980809 0.617917358,10.2377291 0.879725764,10.2376857 L15.2193337,10.2376857 C15.6238532,10.2373081 15.9516868,9.90947449 15.9521974,9.504955 C15.9557315,9.31424518 15.8834714,9.12989303 15.7511873,8.99247172 C15.6189033,8.85505042 15.4374366,8.77582231 15.2467255,8.77222431 L15.2261816,8.77222431 Z M15.2261816,12.7029478 L0.879725764,12.7029478 C0.475049782,12.7029478 0.14699508,13.0310025 0.14699508,13.4356785 C0.14699508,13.8403544 0.475049782,14.1684091 0.879725764,14.1684091 L15.2193337,14.1684091 C15.6238532,14.1680316 15.9516868,13.840198 15.9521974,13.4356785 C15.9557315,13.2449686 15.8834714,13.0606165 15.7511873,12.9231952 C15.6189033,12.7857739 15.4374366,12.7065458 15.2467255,12.7029478 C15.2398775,12.7029478 15.2330296,12.6960998 15.2261816,12.7029478 Z M3.27650836,0 C2.88446204,0 2.53189201,0.238619699 2.38627481,0.602619628 L0.0511237805,6.25217862 C-0.018401229,6.42186973 -0.0169614259,6.61235626 0.055120733,6.78097703 C0.127202892,6.9495978 0.263904133,7.08226265 0.43460898,7.14926009 C0.514953001,7.18221996 0.601151466,7.19852778 0.687983144,7.19719576 C0.972106502,7.19687331 1.22725,7.02315859 1.33169047,6.75892692 L1.87267856,5.34140123 L4.64609841,5.34140123 L5.22132625,6.76577489 C5.32973454,7.02584569 5.5832763,7.19577261 5.86503356,7.19719576 C6.24875207,7.19493267 6.55819395,6.88242699 6.5566821,6.49870481 C6.55465776,6.40996484 6.53847529,6.32211716 6.50874089,6.2384827 L4.17358984,0.595771681 C4.01996896,0.236187146 3.66752742,0.00212290968 3.27650836,0 L3.27650836,0 Z M3.2559645,1.79416297 L4.18728575,4.16355378 L2.33833916,4.16355378 L3.2559645,1.79416297 Z" id="形状"></path>
        </g>
    </g>
</svg>