<?xml version="1.0" encoding="UTF-8"?>
<svg width="20px" height="20px" viewBox="0 0 20 20" version="1.1" xmlns="http://www.w3.org/2000/svg" xmlns:xlink="http://www.w3.org/1999/xlink">
    <title>directory-second-menu</title>
    <g id="directory-second-menu" stroke="none" stroke-width="1" fill="none" fill-rule="evenodd">
        <rect id="矩形" fill-opacity="0" fill="#D8D8D8" x="0" y="0" width="20" height="20"></rect>
        <g id="图形" transform="translate(2.000000, 2.000000)">
            <rect id="矩形" fill="#FFFFFF" opacity="0" x="0" y="0" width="16" height="16"></rect>
            <path d="M14,0 C14.5522847,-1.01453063e-16 15,0.44771525 15,1 L15,15 C15,15.5522847 14.5522847,16 14,16 L2,16 C1.44771525,16 1,15.5522847 1,15 L1,1 C1,0.44771525 1.44771525,1.01453063e-16 2,0 Z M4.42721154,9.8125 C4.00901515,9.8125 3.67,10.1272998 3.67,10.515625 C3.67,10.9039502 4.00901515,11.21875 4.42721154,11.21875 C4.84540792,11.21875 5.18442308,10.9039502 5.18442308,10.515625 C5.18442308,10.1272998 4.84540792,9.8125 4.42721154,9.8125 Z M12.3358654,9.953125 L6.39596154,9.953125 L6.39596154,11.078125 L12.3358654,11.078125 L12.3358654,9.953125 Z M4.42721154,7.28125 C4.00901515,7.28125 3.67,7.59604979 3.67,7.984375 C3.67,8.37270021 4.00901515,8.6875 4.42721154,8.6875 C4.84540792,8.6875 5.18442308,8.37270021 5.18442308,7.984375 C5.18442308,7.59604979 4.84540792,7.28125 4.42721154,7.28125 Z M12.3358654,7.421875 L6.39596154,7.421875 L6.3713497,8.546875 L12.3358654,8.546875 L12.3358654,7.421875 Z M4.42721154,4.75 C4.00901515,4.75 3.67,5.06479979 3.67,5.453125 C3.67,5.84145021 4.00901515,6.15625 4.42721154,6.15625 C4.84540792,6.15625 5.18442308,5.84145021 5.18442308,5.453125 C5.18442308,5.06479979 4.84540792,4.75 4.42721154,4.75 Z M12.3358654,4.890625 L6.39596154,4.890625 L6.39596154,6.015625 L12.3358654,6.015625 L12.3358654,4.890625 Z" id="形状结合" fill="#57689C" fill-rule="nonzero"></path>
        </g>
    </g>
</svg>