<?xml version="1.0" encoding="UTF-8"?>
<svg width="16px" height="16px" viewBox="0 0 16 16" version="1.1" xmlns="http://www.w3.org/2000/svg" xmlns:xlink="http://www.w3.org/1999/xlink">
    <title>directory-third-menu</title>
    <g id="directory-third-menu" stroke="none" stroke-width="1" fill="none" fill-rule="evenodd">
        <rect id="矩形" fill-opacity="0" fill="#F0F0F0" x="0" y="0" width="16" height="16"></rect>
        <g id="基本信息" transform="translate(1.000000, 1.000000)">
            <rect id="矩形" fill="#FFFFFF" opacity="0" x="0" y="0" width="14" height="14"></rect>
            <g id="图形" transform="translate(0.875000, 0.470000)" fill="#000000" fill-rule="nonzero">
                <path d="M11.25,0 C11.8022847,0 12.25,0.44771525 12.25,1 L12.25,12.125 C12.25,12.6772847 11.8022847,13.125 11.25,13.125 L1,13.125 C0.44771525,13.125 0,12.6772847 0,12.125 L0,1 C0,0.44771525 0.44771525,0 1,0 L11.25,0 Z M11.05,1.2 L1.2,1.2 L1.2,11.925 L11.05,11.925 L11.05,1.2 Z M3.21972656,8.1596875 C3.55951113,8.1596875 3.83496094,8.43513731 3.83496094,8.77492188 C3.83496094,9.11470644 3.55951113,9.39015625 3.21972656,9.39015625 C2.879942,9.39015625 2.60449219,9.11470644 2.60449219,8.77492188 C2.60449219,8.43513731 2.879942,8.1596875 3.21972656,8.1596875 Z M9.64550781,8.28273438 L9.64550781,9.26710938 L4.81933594,9.26710938 L4.81933594,8.28273438 L9.64550781,8.28273438 Z M3.21972656,5.94484375 C3.55951113,5.94484375 3.83496094,6.22029356 3.83496094,6.56007813 C3.83496094,6.89986269 3.55951113,7.1753125 3.21972656,7.1753125 C2.879942,7.1753125 2.60449219,6.89986269 2.60449219,6.56007813 C2.60449219,6.22029356 2.879942,5.94484375 3.21972656,5.94484375 Z M9.64550781,6.06789063 L9.64550781,7.05226563 L4.79933882,7.05226563 L4.81933594,6.06789063 L9.64550781,6.06789063 Z M3.21972656,3.73 C3.55951113,3.73 3.83496094,4.00544981 3.83496094,4.34523438 C3.83496094,4.68501894 3.55951113,4.96046875 3.21972656,4.96046875 C2.879942,4.96046875 2.60449219,4.68501894 2.60449219,4.34523438 C2.60449219,4.00544981 2.879942,3.73 3.21972656,3.73 Z M9.64550781,3.85304688 L9.64550781,4.83742188 L4.81933594,4.83742188 L4.81933594,3.85304688 L9.64550781,3.85304688 Z" id="形状结合"></path>
            </g>
        </g>
    </g>
</svg>