<?xml version="1.0" encoding="UTF-8"?>
<svg width="20px" height="20px" viewBox="0 0 20 20" version="1.1" xmlns="http://www.w3.org/2000/svg" xmlns:xlink="http://www.w3.org/1999/xlink">
    <title>domain-name-settings-second-menu</title>
    <g id="domain-name-settings-second-menu" stroke="none" stroke-width="1" fill="none" fill-rule="evenodd">
        <rect id="矩形" fill-opacity="0" fill="#D8D8D8" x="0" y="0" width="20" height="20"></rect>
        <g id="域名" transform="translate(2.000000, 2.000000)" fill="#57689C" fill-rule="nonzero">
            <path d="M13.6421053,13.0526316 L2.35789473,13.0526316 C2.1473684,13.0526316 2.02105261,13.3052632 2.18947368,13.4736842 C3.6631579,15.0315789 5.72631579,16 8,16 C10.2736842,16 12.3789474,15.0315789 13.8105263,13.4736842 C13.9789474,13.3052632 13.8526316,13.0526316 13.6421053,13.0526316 Z M1.68421052,3.78947369 L14.3157895,3.78947369 C14.5263158,3.78947369 14.6526316,3.53684211 14.5263158,3.36842104 C13.0947369,1.34736841 10.6947369,0 8,0 C5.30526314,0 2.90526316,1.34736841 1.4736842,3.36842104 C1.34736841,3.53684209 1.4736842,3.78947369 1.68421052,3.78947369 L1.68421052,3.78947369 Z" id="形状结合" opacity="0.550000012"></path>
            <path d="M14.3157895,5.05263158 C15.2421053,5.05263158 16,5.81052632 16,6.7368421 L16,10.1052632 C16,11.0315789 15.2421053,11.7894737 14.3157895,11.7894737 L1.68421052,11.7894737 C0.757894737,11.7894737 0,11.0315789 0,10.1052632 L0,6.7368421 C0,5.81052632 0.757894737,5.05263158 1.68421052,5.05263158 Z M2.0168,6.9688 L1.2536,6.9688 L1.9784,10.3 L2.8904,10.3 L3.4136,8.188 L3.4424,8.188 L3.956,10.3 L4.868,10.3 L5.6312,6.9688 L4.8776,6.9688 L4.388,9.4312 L4.3592,9.4312 L3.8792,7.2904 L3.0344,7.2904 L2.5256,9.4312 L2.4968,9.4312 L2.0168,6.9688 Z M6.572,6.9688 L5.8088,6.9688 L6.5336,10.3 L7.4456,10.3 L7.9688,8.188 L7.9976,8.188 L8.5112,10.3 L9.4232,10.3 L10.1864,6.9688 L9.4328,6.9688 L8.9432,9.4312 L8.9144,9.4312 L8.4344,7.2904 L7.5896,7.2904 L7.0808,9.4312 L7.052,9.4312 L6.572,6.9688 Z M11.1272,6.9688 L10.364,6.9688 L11.0888,10.3 L12.0008,10.3 L12.524,8.188 L12.5528,8.188 L13.0664,10.3 L13.9784,10.3 L14.7416,6.9688 L13.988,6.9688 L13.4984,9.4312 L13.4696,9.4312 L12.9896,7.2904 L12.1448,7.2904 L11.636,9.4312 L11.6072,9.4312 L11.1272,6.9688 Z" id="形状结合"></path>
        </g>
    </g>
</svg>