<?xml version="1.0" encoding="UTF-8"?>
<svg width="16px" height="16px" viewBox="0 0 16 16" version="1.1" xmlns="http://www.w3.org/2000/svg" xmlns:xlink="http://www.w3.org/1999/xlink">
    <title>domain-model-third-menu</title>
    <g id="domain-model-third-menu" stroke="none" stroke-width="1" fill="none" fill-rule="evenodd">
        <rect id="矩形" fill-opacity="0" fill="#F0F0F0" x="0" y="0" width="16" height="16"></rect>
        <g id="编组备份-2" transform="translate(1.337822, -0.200000)">
            <g id="编组备份" fill="#000000" fill-rule="nonzero">
                <path d="M14.2397525,12.7597911 L14.2223435,12.848238 C13.9046842,14.2519151 12.6497388,15.3 11.15,15.3 C10.2448351,15.3 9.42884121,14.9182134 8.85426633,14.3068882 C9.18364371,13.8488988 9.80101608,13.6747408 10.3311679,13.9205838 C10.5720947,14.0323069 10.8340353,14.0936277 11.1064378,14.0995288 L11.132,14.101 L11.15,14.1 C11.7614549,14.1 12.3233043,13.8174497 12.6891033,13.3477139 L12.7838959,13.2150348 C13.1034375,12.7264292 13.7186052,12.5475101 14.2397525,12.7597911 Z M6.96217783,0.0803847577 L13.0243557,3.58038476 C13.2099963,3.68756443 13.3243557,3.88564065 13.3243557,4.1 L13.3243557,7.76321832 C13.3243557,8.09458917 13.0557265,8.36321832 12.7243557,8.36321832 C12.3929848,8.36321832 12.1243557,8.09458917 12.1243557,7.76321832 L12.124,4.446 L6.662,1.292 L1.2,4.446 L1.2,10.753 L6.662,13.907 L7.22985875,13.5794289 C7.48813676,13.4303121 7.8111975,13.4950437 7.99401154,13.7186864 L8.04947399,13.7990442 C8.21515941,14.0860198 8.11683432,14.452974 7.82985875,14.6186594 L6.96217783,15.1196152 C6.77653718,15.2267949 6.54781847,15.2267949 6.36217783,15.1196152 L0.3,11.6196152 C0.114359354,11.5124356 0,11.3143594 0,11.1 L0,4.1 C0,3.88564065 0.114359354,3.68756443 0.3,3.58038476 L6.36217783,0.0803847577 C6.54781847,-0.0267949192 6.77653718,-0.0267949192 6.96217783,0.0803847577 Z M9.97085187,9.22812241 C10.2789067,9.70053731 10.2183863,10.3397444 9.79726093,10.7455035 C9.41731251,11.1115881 9.2,11.6120064 9.2,12.15 C9.2,12.2622842 9.20936595,12.3728495 9.22780455,12.4811312 C9.32582157,13.0567412 8.99637775,13.6063367 8.46980582,13.805042 C8.17176164,13.3241395 8,12.7571283 8,12.15 C8,10.8272304 8.8153304,9.69489144 9.97085187,9.22812241 Z M11,11 C11.5522847,11 12,11.4477153 12,12 C12,12.5522847 11.5522847,13 11,13 C10.4477153,13 10,12.5522847 10,12 C10,11.4477153 10.4477153,11 11,11 Z M11.15,9 C12.889697,9 14.3,10.410303 14.3,12.15 L14.2992411,12.1724369 C13.7459398,12.2756398 13.1792117,11.9765552 12.9645154,11.433538 C12.7235695,10.8241295 12.186269,10.3705339 11.5429221,10.2393611 C10.9699387,10.1225348 10.576245,9.61537761 10.5824965,9.05156912 C10.7673137,9.01742528 10.9566219,9 11.15,9 Z M8.87489778,4.975 L9.28717783,5.6817658 L6.63717783,7.196 L6.63695788,10.225 L5.81239778,10.225 L5.81317783,7.196 L3.16217783,5.6817658 L3.57445788,4.975 L6.22517783,6.49 L8.87489778,4.975 Z" id="形状结合"></path>
            </g>
            <g id="编组-21" transform="translate(7.221547, 8.850000)"></g>
        </g>
    </g>
</svg>