<?xml version="1.0" encoding="UTF-8"?>
<svg width="20px" height="20px" viewBox="0 0 20 20" version="1.1" xmlns="http://www.w3.org/2000/svg" xmlns:xlink="http://www.w3.org/1999/xlink">
    <title>domain-model-second-menu</title>
    <g id="domain-model-second-menu" stroke="none" stroke-width="1" fill="none" fill-rule="evenodd">
        <rect id="矩形" fill-opacity="0" fill="#D8D8D8" x="0" y="0" width="20" height="20"></rect>
        <g id="编组备份" transform="translate(3.071797, 1.954701)" fill="#57689C">
            <path d="M7.42820323,0.133974596 L13.3564065,3.55662433 C13.6658075,3.73525712 13.8564065,4.06538414 13.8564065,4.42264973 L13.8563388,9.91198263 C13.2344397,9.34542825 12.4075594,9 11.5,9 C9.56700338,9 8,10.5670034 8,12.5 C8,13.3578554 8.30862845,14.1436268 8.82090797,14.7523368 L7.42820323,15.5566243 C7.11880215,15.7352571 6.73760431,15.7352571 6.42820323,15.5566243 L0.5,12.1339746 C0.190598923,11.9553418 6.66133815e-15,11.6252148 6.21724894e-15,11.2679492 L5.32907052e-15,4.42264973 C5.99520433e-15,4.06538414 0.190598923,3.73525712 0.5,3.55662433 L6.42820323,0.133974596 C6.73760431,-0.0446581987 7.11880215,-0.0446581987 7.42820323,0.133974596 Z M11.5,11.5 C12.0522847,11.5 12.5,11.9477153 12.5,12.5 C12.5,13.0522847 12.0522847,13.5 11.5,13.5 C10.9477153,13.5 10.5,13.0522847 10.5,12.5 C10.5,11.9477153 10.9477153,11.5 11.5,11.5 Z M9.45702603,4.84529946 L6.42820323,6.57629946 L3.39938043,4.84529946 L2.92820323,5.6530318 L5.95720323,7.38429946 L5.95702603,10.8452995 L6.89938043,10.8452995 L6.90020323,7.38429946 L9.92820323,5.6530318 L9.45702603,4.84529946 Z" id="形状结合"></path>
            <path d="M14.4470994,13.0631129 L14.4207679,13.1878725 C14.1098419,14.513199 12.9201608,15.5 11.5,15.5 C11.0141343,15.5 10.5552454,15.3844987 10.1492928,15.1794555 C10.2895184,14.7210399 10.7440661,14.4180226 11.2349248,14.4827036 C11.3160011,14.4933871 11.3981926,14.4991605 11.4812692,14.499915 L11.497,14.5 C12.1670876,14.5 12.7760134,14.1713824 13.145559,13.6373309 L13.2328535,13.4996095 C13.4808657,13.0710623 13.9982377,12.8955107 14.4470994,13.0631129 Z M9.84176696,11.3813084 C9.619963,11.7091238 9.5,12.0943236 9.5,12.5 C9.5,12.7794314 9.55675262,13.0490757 9.66532658,13.2981333 C9.86312926,13.7518726 9.6977033,14.2723278 9.29677996,14.5343316 C8.80153013,13.9996405 8.5,13.2850333 8.5,12.5 C8.5,11.5170897 8.97269637,10.6445836 9.70316331,10.0974075 C10.0515341,10.4288397 10.1193002,10.9711279 9.84176696,11.3813084 Z M11.5,9.5 C13.0156687,9.5 14.268815,10.6239916 14.4713782,12.083914 C14.0140694,12.2295956 13.5067904,12.0282837 13.2807683,11.5881908 C12.9562455,10.9563049 12.3189587,10.5379071 11.6010158,10.5024843 C11.1055397,10.4780379 10.7121305,10.0969636 10.6569115,9.61989438 C10.9252436,9.54179164 11.2077413,9.5 11.5,9.5 Z" id="椭圆形备份" fill-rule="nonzero" opacity="0.550000012"></path>
        </g>
    </g>
</svg>