<?xml version="1.0" encoding="UTF-8"?>
<svg width="16px" height="16px" viewBox="0 0 16 16" version="1.1" xmlns="http://www.w3.org/2000/svg" xmlns:xlink="http://www.w3.org/1999/xlink">
    <title>domain-name-settings-third-menu</title>
    <g id="domain-name-settings-third-menu" stroke="none" stroke-width="1" fill="none" fill-rule="evenodd">
        <rect id="矩形" fill-opacity="0" fill="#F0F0F0" x="0" y="0" width="16" height="16"></rect>
        <path d="M15.1036077,10.9004062 L14.582633,11.8008767 C13.2334808,14.1327973 10.7442335,15.6 8,15.6 C5.25576646,15.6 2.76651916,14.1327973 1.41736702,11.8008767 L0.896392342,10.9004062 L15.1036077,10.9004062 Z M12.9131374,12.1 L3.08613744,12.1 L3.18152941,12.2132426 C4.32209307,13.5177906 5.95948095,14.3243172 7.74409182,14.3949425 L8,14.4 C9.88345076,14.4 11.6235944,13.579912 12.8184706,12.2132426 L12.9131374,12.1 Z M1.14425,5.983 L1.69425,8.8045 L1.72725,8.8045 L2.31025,6.3515 L3.27825,6.3515 L3.82825,8.8045 L3.86125,8.8045 L4.42225,5.983 L5.28575,5.983 L4.41125,9.8 L3.36625,9.8 L2.77775,7.38 L2.74475,7.38 L2.14525,9.8 L1.10025,9.8 L0.26975,5.983 L1.14425,5.983 Z M6.36375,5.983 L6.91375,8.8045 L6.94675,8.8045 L7.52975,6.3515 L8.49775,6.3515 L9.04775,8.8045 L9.08075,8.8045 L9.64175,5.983 L10.50525,5.983 L9.63075,9.8 L8.58575,9.8 L7.99725,7.38 L7.96425,7.38 L7.36475,9.8 L6.31975,9.8 L5.48925,5.983 L6.36375,5.983 Z M11.58325,5.983 L12.13325,8.8045 L12.16625,8.8045 L12.74925,6.3515 L13.71725,6.3515 L14.26725,8.8045 L14.30025,8.8045 L14.86125,5.983 L15.72475,5.983 L14.85025,9.8 L13.80525,9.8 L13.21675,7.38 L13.18375,7.38 L12.58425,9.8 L11.53925,9.8 L10.70875,5.983 L11.58325,5.983 Z M8,0.4 C10.7446764,0.4 13.2342653,1.86767829 14.5832551,4.20019879 L15.103984,5.10058424 L0.89601605,5.10058424 L1.41674493,4.20019879 C2.76573473,1.86767829 5.25532362,0.4 8,0.4 Z M8,1.6 C6.11624567,1.6 4.37585429,2.42035423 3.180971,3.78739514 L3.08513744,3.9 L12.9131374,3.9 L12.819029,3.78739514 C11.6784586,2.48249245 10.0408446,1.67570717 8.25594921,1.60505914 L8,1.6 Z" id="形状结合" fill="#000000" fill-rule="nonzero"></path>
    </g>
</svg>