<?xml version="1.0" encoding="UTF-8"?>
<svg width="16px" height="16px" viewBox="0 0 16 16" version="1.1" xmlns="http://www.w3.org/2000/svg" xmlns:xlink="http://www.w3.org/1999/xlink">
    <title>duty-management-third-menu</title>
    <g id="duty-management-third-menu" stroke="none" stroke-width="1" fill="none" fill-rule="evenodd">
        <rect id="矩形" fill-opacity="0" fill="#F0F0F0" x="0" y="0" width="16" height="16"></rect>
        <g id="编组" transform="translate(1.000000, 1.000000)" fill="#000000" fill-rule="nonzero">
            <path d="M2.9,1.4 L2.9,2.6 L1.6,2.6 C1.3790861,2.6 1.2,2.7790861 1.2,3 L1.2,12.4 C1.2,12.6209139 1.37908603,12.8 1.600171,12.8 L4.33055361,12.800919 L4.34,12.801 L12.4003826,12.8 C12.5938319,12.8 12.7551259,12.6628872 12.7924267,12.480614 L12.8005536,12.4 L12.8005536,3 C12.8005536,2.7790861 12.6214675,2.6 12.4005536,2.6 L11.1005536,2.6 L11.1005536,1.4 L12.4005536,1.4 C13.2842092,1.4 14.0005536,2.1163444 14.0005536,3 L14.0005536,12.4 C14.0005536,13.2836556 13.2842092,14 12.4005536,14 L3.67034217,14.0010489 C3.66521763,14.0010495 3.66010808,14.0009859 3.65501429,14.0008588 L1.6,14 C0.7163444,14 0,13.2836556 0,12.4 L0,3 C0,2.1163444 0.7163444,1.4 1.6,1.4 L2.9,1.4 Z M10.5,9.50585937 L10.5,10.7058594 L3.5,10.7058594 L3.5,9.50585937 L10.5,9.50585937 Z M10.5,6.50585937 L10.5,7.70585937 L3.5,7.70585937 L3.5,6.50585937 L10.5,6.50585937 Z M4.5,0 C4.83137085,-6.08718376e-17 5.1,0.26862915 5.1,0.6 L5.1,3.4 C5.1,3.73137085 4.83137085,4 4.5,4 C4.16862915,4 3.9,3.73137085 3.9,3.4 L3.9,0.6 C3.9,0.26862915 4.16862915,6.08718376e-17 4.5,0 Z M9.5,0 C9.83137085,-6.08718376e-17 10.1,0.26862915 10.1,0.6 L10.1,3.4 C10.1,3.73137085 9.83137085,4 9.5,4 C9.16862915,4 8.9,3.73137085 8.9,3.4 L8.9,0.6 C8.9,0.26862915 9.16862915,6.08718376e-17 9.5,0 Z M8,1.4 L8,2.6 L6,2.6 L6,1.4 L8,1.4 Z" id="形状结合"></path>
        </g>
    </g>
</svg>