<?xml version="1.0" encoding="UTF-8"?>
<svg width="20px" height="20px" viewBox="0 0 20 20" version="1.1" xmlns="http://www.w3.org/2000/svg" xmlns:xlink="http://www.w3.org/1999/xlink">
    <title>duty-management-second-menu</title>
    <g id="duty-management-second-menu" stroke="none" stroke-width="1" fill="none" fill-rule="evenodd">
        <rect id="矩形" fill-opacity="0" fill="#D8D8D8" x="0" y="0" width="20" height="20"></rect>
        <g id="编组" transform="translate(2.000000, 2.000000)" fill="#57689C">
            <path d="M3,2 L3,3.5 C3,4.27969612 3.59488808,4.92044868 4.35553999,4.99313342 L4.5,5 C5.32842712,5 6,4.32842712 6,3.5 L6,2 L10,2 L10,3.5 C10,4.27969612 10.5948881,4.92044868 11.35554,4.99313342 L11.5,5 C12.3284271,5 13,4.32842712 13,3.5 L13,2 L15,2 C15.5522847,2 16,2.44771525 16,3 L16,6 L1.30739863e-12,6 L1.30739863e-12,3 C1.307331e-12,2.44771525 0.44771525,2 1,2 L3,2 Z M4.5,0 C4.83137085,-6.08718376e-17 5.1,0.26862915 5.1,0.6 L5.1,3.4 C5.1,3.73137085 4.83137085,4 4.5,4 C4.16862915,4 3.9,3.73137085 3.9,3.4 L3.9,0.6 C3.9,0.26862915 4.16862915,6.08718376e-17 4.5,0 Z M11.5,0 C11.8313708,-6.08718376e-17 12.1,0.26862915 12.1,0.6 L12.1,3.4 C12.1,3.73137085 11.8313708,4 11.5,4 C11.1686292,4 10.9,3.73137085 10.9,3.4 L10.9,0.6 C10.9,0.26862915 11.1686292,6.08718376e-17 11.5,0 Z" id="形状结合"></path>
            <path d="M16,6 L16,15 C16,15.5522847 15.5522847,16 15,16 L1,16 C0.44771525,16 -6.76353751e-17,15.5522847 0,15 L0,6 L16,6 Z M11.5,11.5058594 L4.5,11.5058594 L4.5,12.7058594 L11.5,12.7058594 L11.5,11.5058594 Z M11.5,8.50585938 L4.5,8.50585938 L4.5,9.70585938 L11.5,9.70585938 L11.5,8.50585938 Z" id="形状结合" fill-rule="nonzero" opacity="0.55"></path>
        </g>
    </g>
</svg>