<?xml version="1.0" encoding="UTF-8"?>
<svg width="20px" height="20px" viewBox="0 0 20 20" version="1.1" xmlns="http://www.w3.org/2000/svg" xmlns:xlink="http://www.w3.org/1999/xlink">
    <title>form-library-second-menu</title>
    <g id="form-library-second-menu" stroke="none" stroke-width="1" fill="none" fill-rule="evenodd">
        <rect id="矩形" fill-opacity="0" fill="#D8D8D8" x="0" y="0" width="20" height="20"></rect>
        <g id="交换数据" transform="translate(3.000000, 2.000000)" fill="#57689C">
            <path d="M11,0 C11.5522847,-1.01453063e-16 12,0.44771525 12,1 L12,13 C12,13.5522847 11.5522847,14 11,14 L1,14 C0.44771525,14 6.76353751e-17,13.5522847 0,13 L0,1 C-6.76353751e-17,0.44771525 0.44771525,1.01453063e-16 1,0 L11,0 Z M11.5,11.6058594 L4.5,11.6058594 L4.5,12.6058594 L11.5,12.6058594 L11.5,11.6058594 Z M11.5,8.60585938 L4.5,8.60585938 L4.5,9.60585938 L11.5,9.60585938 L11.5,8.60585938 Z M11.5,5.60585938 L4.5,5.60585938 L4.5,6.60585938 L11.5,6.60585938 L11.5,5.60585938 Z" id="形状结合" opacity="0.550000012"></path>
            <path d="M13,2 C13.5522847,2 14,2.44771525 14,3 L14,15 C14,15.5522847 13.5522847,16 13,16 L3,16 C2.44771525,16 2,15.5522847 2,15 L2,3 C2,2.44771525 2.44771525,2 3,2 L13,2 Z M11.5,11.6058594 L4.5,11.6058594 L4.5,12.6058594 L11.5,12.6058594 L11.5,11.6058594 Z M11.5,8.60585938 L4.5,8.60585938 L4.5,9.60585938 L11.5,9.60585938 L11.5,8.60585938 Z M11.5,5.60585938 L4.5,5.60585938 L4.5,6.60585938 L11.5,6.60585938 L11.5,5.60585938 Z" id="形状结合"></path>
        </g>
    </g>
</svg>