<?xml version="1.0" encoding="UTF-8"?>
<svg width="16px" height="16px" viewBox="0 0 16 16" version="1.1" xmlns="http://www.w3.org/2000/svg" xmlns:xlink="http://www.w3.org/1999/xlink">
    <title>form-library-third-menu</title>
    <g id="form-library-third-menu" stroke="none" stroke-width="1" fill="none" fill-rule="evenodd">
        <rect id="矩形" fill-opacity="0" fill="#F0F0F0" x="0" y="0" width="16" height="16"></rect>
        <g id="交换数据" transform="translate(1.000000, 0.400000)">
            <rect id="矩形备份" fill-opacity="0" fill="#F0F0F0" x="0" y="0.6" width="14" height="14"></rect>
            <path d="M11.375,0 C12.2586556,0 12.975,0.7163444 12.975,1.6 L12.9760425,1.7886302 C13.6908376,1.94864013 14.225,2.58693991 14.225,3.35 L14.225,13.35 C14.225,14.2336556 13.5086556,14.95 12.625,14.95 L4.625,14.95 C3.77520094,14.95 3.0801379,14.2874963 3.02812385,13.4508019 L2.875,13.45 C1.9913444,13.45 1.275,12.7336556 1.275,11.85 L1.275,1.6 C1.275,0.7163444 1.9913444,0 2.875,0 L11.375,0 Z M12.625,2.95 L4.625,2.95 C4.5705079,2.95 4.5185608,2.96089639 4.4712187,2.98062917 C4.32663335,3.04089413 4.225,3.1835782 4.225,3.35 L4.225,13.35 C4.225,13.5709139 4.4040861,13.75 4.625,13.75 L12.625,13.75 C12.8459139,13.75 13.025,13.5709139 13.025,13.35 L13.025,3.35 C13.025,3.1290861 12.8459139,2.95 12.625,2.95 Z M11.375,1.2 L2.875,1.2 C2.6540861,1.2 2.475,1.3790861 2.475,1.6 L2.475,11.85 C2.475,12.0709139 2.6540861,12.25 2.875,12.25 L3.025,12.25 L3.02599591,3.31544418 L3.029,3.258 L3.03153868,3.20436739 C3.03214822,3.19761174 3.03279975,3.19086822 3.03349301,3.18413706 L3.03573438,3.16415518 L3.0414216,3.11990673 C3.04547973,3.09172926 3.05027211,3.06378913 3.05577871,3.03610635 L3.03573438,3.16415518 C3.04317154,3.10012366 3.05434994,3.03731217 3.06903852,2.97593326 C3.07446844,2.95294755 3.0804951,2.93006264 3.0870098,2.90738421 C3.09453492,2.8813629 3.10255723,2.85587518 3.11118705,2.83068053 C3.11695675,2.81377113 3.12320375,2.79652229 3.1297359,2.77941433 C3.14157331,2.74840376 3.15412952,2.71833773 3.16755494,2.68876484 C3.17243633,2.67811612 3.17739737,2.66751147 3.18247054,2.65697096 C3.19428938,2.63226801 3.20686733,2.60776131 3.22004568,2.58363926 C3.23095986,2.56383004 3.2421911,2.54428263 3.25381757,2.52500042 C3.2613781,2.51228917 3.2691441,2.49980093 3.277075,2.48743107 C3.29363671,2.46177328 3.31086477,2.4365286 3.32878223,2.41181634 C3.34059727,2.39536351 3.35282939,2.37915234 3.36535704,2.36318848 C3.37960035,2.34517041 3.39420511,2.32735498 3.40918063,2.30986645 C3.42535961,2.2908739 3.44193127,2.27241799 3.45891535,2.25436059 C3.470241,2.24238332 3.48184357,2.23041473 3.49362915,2.21862915 L3.51082678,2.20165262 C3.55961003,2.15434822 3.61137682,2.11014903 3.66580231,2.06935385 C3.68041932,2.0583086 3.69562863,2.04730317 3.71103581,2.03656191 C3.73262019,2.0216274 3.75442071,2.00722001 3.77658083,1.99334218 C3.79136787,1.98394903 3.80627519,1.97494303 3.8213387,1.96617594 C3.88592038,1.9287363 3.95358096,1.89545635 4.02366126,1.86700794 C4.08060735,1.84374495 4.13894114,1.82389603 4.1986753,1.80742381 C4.2330768,1.79804763 4.26803288,1.7896484 4.30339846,1.78241839 C4.31575801,1.77980673 4.32852349,1.77736075 4.34134189,1.77506742 C4.35760503,1.77222882 4.37347439,1.7696346 4.38941711,1.76727614 C4.46596519,1.75590169 4.54479339,1.75 4.625,1.75 L11.775,1.75 L11.775,1.6 C11.775,1.40670034 11.6378872,1.24542508 11.455614,1.20812658 L11.375,1.2 Z M11.44,10.692627 L11.44,11.692627 L5.8125,11.692627 L5.8125,10.692627 L11.44,10.692627 Z M11.44,8.06762695 L11.44,9.06762695 L5.8125,9.06762695 L5.8125,8.06762695 L11.44,8.06762695 Z M11.44,5.44262695 L11.44,6.44262695 L5.8125,6.44262695 L5.8125,5.44262695 L11.44,5.44262695 Z" id="形状结合" fill="#000000" fill-rule="nonzero"></path>
        </g>
    </g>
</svg>