<?xml version="1.0" encoding="UTF-8"?>
<svg width="16px" height="16px" viewBox="0 0 16 16" version="1.1" xmlns="http://www.w3.org/2000/svg" xmlns:xlink="http://www.w3.org/1999/xlink">
    <title>job-board-third-menu</title>
    <g id="job-board-third-menu" stroke="none" stroke-width="1" fill="none" fill-rule="evenodd">
        <rect id="矩形" fill-opacity="0" fill="#F0F0F0" x="0" y="0" width="16" height="16"></rect>
        <g id="图标" transform="translate(0.400000, 1.400000)" fill="#000000" fill-rule="nonzero">
            <path d="M5.725,0 C6.6086556,0 7.325,0.7163444 7.325,1.6 L7.325,11.6 C7.325,12.4836556 6.6086556,13.2 5.725,13.2 L1.6,13.2 C0.7163444,13.2 0,12.4836556 0,11.6 L0,1.6 C0,0.7163444 0.7163444,0 1.6,0 L5.725,0 Z M5.725,1.2 L1.6,1.2 C1.3790861,1.2 1.2,1.3790861 1.2,1.6 L1.2,11.6 C1.2,11.8209139 1.3790861,12 1.6,12 L5.725,12 C5.9459139,12 6.125,11.8209139 6.125,11.6 L6.125,1.6 C6.125,1.3790861 5.9459139,1.2 5.725,1.2 Z M13.6,0 C14.4836556,0 15.2,0.7163444 15.2,1.6 L15.2,6.6 C15.2,7.4836556 14.4836556,8.2 13.6,8.2 L9.475,8.2 C8.5913444,8.2 7.875,7.4836556 7.875,6.6 L7.875,1.6 C7.875,0.7163444 8.5913444,0 9.475,0 L13.6,0 Z M13.6,1.2 L9.475,1.2 C9.2540861,1.2 9.075,1.3790861 9.075,1.6 L9.075,6.6 C9.075,6.8209139 9.2540861,7 9.475,7 L13.6,7 C13.8209139,7 14,6.8209139 14,6.6 L14,1.6 C14,1.3790861 13.8209139,1.2 13.6,1.2 Z" id="形状结合"></path>
        </g>
    </g>
</svg>