<?xml version="1.0" encoding="UTF-8"?>
<svg width="16px" height="16px" viewBox="0 0 16 16" version="1.1" xmlns="http://www.w3.org/2000/svg" xmlns:xlink="http://www.w3.org/1999/xlink">
    <title>milestone-third-menu</title>
    <g id="milestone-third-menu" stroke="none" stroke-width="1" fill="none" fill-rule="evenodd">
        <rect id="矩形" fill-opacity="0" fill="#F0F0F0" x="0" y="0" width="16" height="16"></rect>
        <g id="新建里程碑" transform="translate(0.400000, 0.837500)">
            <rect id="milestone-second-menu" fill-opacity="0" fill="#D8D8D8" x="0.6" y="0.1625" width="14" height="14"></rect>
            <path d="M10.975,0 C11.8586556,0 12.575,0.7163444 12.575,1.6 L12.575,1.75 L13.6,1.75 C14.4836556,1.75 15.2,2.4663444 15.2,3.35 L15.2,8.35 C15.2,9.2336556 14.4836556,9.95 13.6,9.95 L6.975,9.95 C6.0913444,9.95 5.375,9.2336556 5.375,8.35 L5.375,8.2 L3.95,8.2 L3.95,12.725 C3.95,13.5595636 3.31103848,14.2448898 2.49563261,14.3184613 L2.35,14.325 L0,14.325 L0,1.6 C0,0.7163444 0.7163444,0 1.6,0 L10.975,0 Z M10.975,1.2 L1.6,1.2 C1.3790861,1.2 1.2,1.3790861 1.2,1.6 L1.2,13.125 L2.35,13.125 C2.54329966,13.125 2.70457492,12.9878872 2.74187342,12.805614 L2.75,12.725 L2.75,7.6 L2.75,7 L10.975,7 C11.1959139,7 11.375,6.8209139 11.375,6.6 L11.375,1.6 C11.375,1.3790861 11.1959139,1.2 10.975,1.2 Z M12.575,6.6 C12.575,7.4836556 11.8586556,8.2 10.975,8.2 L6.575,8.2 L6.575,8.35 C6.575,8.5709139 6.7540861,8.75 6.975,8.75 L13.6,8.75 C13.8209139,8.75 14,8.5709139 14,8.35 L14,3.35 C14,3.1290861 13.8209139,2.95 13.6,2.95 L12.575,2.95 L12.575,6.6 Z" id="形状结合" fill="#000000" fill-rule="nonzero"></path>
        </g>
    </g>
</svg>