<?xml version="1.0" encoding="UTF-8"?>
<svg width="16px" height="16px" viewBox="0 0 16 16" version="1.1" xmlns="http://www.w3.org/2000/svg" xmlns:xlink="http://www.w3.org/1999/xlink">
    <title>my-job-third-menu</title>
    <g id="my-job-third-menu" stroke="none" stroke-width="1" fill="none" fill-rule="evenodd">
        <rect id="矩形" fill-opacity="0" fill="#F0F0F0" x="0" y="0" width="16" height="16"></rect>
        <g id="elasticsearch" transform="translate(1.000000, 1.000000)">
            <rect id="矩形" fill-opacity="0" fill="#D8D8D8" x="0" y="0" width="13.3333333" height="13.3333333"></rect>
            <path d="M10.7380162,7.8 C11.6485041,7.8 12.3865819,8.53809507 12.3865819,9.44858303 C12.3865819,9.91860833 12.1898834,10.3426916 11.8743097,10.6430045 C13.1197604,10.9308558 13.9337276,11.873259 13.9985791,13.0271792 C14.0241248,13.481743 13.7025675,13.8471467 13.2473261,13.8471467 L8.25267394,13.8471467 C7.79743251,13.8471467 7.47587523,13.481743 7.50142088,13.0271792 C7.56594182,11.8791416 8.37195997,10.9404699 9.60643726,10.646159 C9.28828206,10.3472898 9.08944027,9.92115728 9.08944027,9.44858303 C9.08944027,8.53809507 9.8275333,7.8 10.7380162,7.8 Z M8.95533333,0 L12.3883333,3.394 L12.3883333,6.82 L11.1883333,6.82 L11.1883333,3.895 L8.46133333,1.199 L2.03333333,1.2 L2.03333333,12.133 L6.66633333,12.133 L6.66633333,13.333 L1.93333333,13.3333333 C1.32582011,13.3333333 0.833333333,12.8408466 0.833333333,12.2333333 L0.833333333,1.10067473 C0.833333333,0.493161502 1.32582011,0.000674726792 1.93333333,0.000674726792 L8.95533333,0 Z M11.0492181,11.7 L10.4507819,11.7 L10.2759785,11.7054251 C9.53430994,11.7521545 9.0006862,12.0970103 8.77167442,12.5939964 L8.731,12.697 L12.77,12.697 L12.7283255,12.5939949 C12.4816975,12.0587805 11.8817917,11.7 11.0492181,11.7 Z M10.7380111,8.95 C10.4626614,8.95 10.2394403,9.17322194 10.2394403,9.44857946 C10.2394403,9.72393843 10.4626608,9.94715892 10.7380111,9.94715892 C11.0133702,9.94715892 11.2365819,9.72394488 11.2365819,9.44857946 C11.2365819,9.17321549 11.0133696,8.95 10.7380111,8.95 Z M9.29846939,6.33333333 L9.29846939,7.41666667 L3.46513605,7.41666667 L3.46513605,6.33333333 L9.29846939,6.33333333 Z M6.38180273,4 L6.38180273,5.08333333 L3.46513605,5.08333333 L3.46513605,4 L6.38180273,4 Z" id="形状结合" fill="#000000" fill-rule="nonzero"></path>
        </g>
    </g>
</svg>