<?xml version="1.0" encoding="UTF-8"?>
<svg width="20px" height="20px" viewBox="0 0 20 20" version="1.1" xmlns="http://www.w3.org/2000/svg" xmlns:xlink="http://www.w3.org/1999/xlink">
    <title>my-job-second-menu</title>
    <g id="my-job-second-menu" stroke="none" stroke-width="1" fill="none" fill-rule="evenodd">
        <rect id="矩形" fill-opacity="0" fill="#D8D8D8" x="0" y="0" width="20" height="20"></rect>
        <g id="elasticsearch备份" transform="translate(1.000000, 2.000000)">
            <rect id="矩形" fill-opacity="0" fill="#D8D8D8" x="0" y="0" width="16" height="16"></rect>
            <path d="M10.747,0 L14.866,4.073 L14.8668558,8.17118455 C14.4298317,8.05941965 13.9718549,8 13.5,8 C10.4624339,8 8,10.4624339 8,13.5 C8,14.4003795 8.21635366,15.2502268 8.59990903,16.0003901 L2.1,16 C1.49248678,16 1,15.5075132 1,14.9 L1,1.10080967 C1,0.493296447 1.49248678,0.00080967215 2.1,0.00080967215 L10.747,0 Z M10.1581633,6.6 L3.15816326,6.6 L3.15816326,7.9 L10.1581633,7.9 L10.1581633,6.6 Z M6.65816326,3.8 L3.15816326,3.8 L3.15816326,5.1 L6.65816326,5.1 L6.65816326,3.8 Z" id="形状结合" fill="#57689C"></path>
            <path d="M15.2624728,10.7753971 C15.2624728,11.7559171 14.4676198,12.5507865 13.4870943,12.5507865 C12.5065743,12.5507865 11.7117049,11.7559171 11.7117049,10.7753971 C11.7117049,9.79487161 12.5065743,9 13.4870943,9 C14.4676198,9 15.2624728,9.79487161 15.2624728,10.7753971 Z M16.1894281,16.4636325 C16.6796881,16.4636325 17.0259805,16.0701209 16.9984698,15.5805906 C16.914182,14.0808349 15.6548514,12.9128592 13.8222349,12.9128592 C13.711949,12.9128592 13.2880744,12.9128592 13.1777651,12.9128592 C11.3451486,12.9128592 10.085818,14.0808349 10.0015302,15.5805906 C9.97401947,16.0701209 10.3203119,16.4636325 10.8105719,16.4636325 L16.1894281,16.4636325 Z" id="形状结合" fill="#57689C" opacity="0.550000012"></path>
        </g>
    </g>
</svg>