<?xml version="1.0" encoding="UTF-8"?>
<svg width="16px" height="16px" viewBox="0 0 16 16" version="1.1" xmlns="http://www.w3.org/2000/svg" xmlns:xlink="http://www.w3.org/1999/xlink">
    <title>notifications-settings-third-menu</title>
    <g id="notifications-settings-third-menu" stroke="none" stroke-width="1" fill="none" fill-rule="evenodd">
        <rect id="矩形" fill-opacity="0" fill="#F0F0F0" x="0" y="0" width="16" height="16"></rect>
        <g id="数据审批" transform="translate(1.000000, 1.000000)">
            <rect id="矩形备份-49" fill-opacity="0.1" fill="#FFFFFF" opacity="0" x="0" y="0" width="14" height="14"></rect>
            <g transform="translate(0.611284, 0.528488)" fill="#000000" fill-rule="nonzero" id="形状结合">
                <path d="M11.1562439,6.97151202 C11.5117262,6.97151202 11.8126471,7.22056271 11.8872177,7.57201318 L11.89,7.595 L11.9105812,7.60073279 C12.8995908,7.90319306 13.6161785,8.85941469 13.6821823,9.98779556 L13.6871562,10.1582837 L13.6871562,10.8930638 C13.6871562,11.0982022 13.75395,11.2929275 13.8690431,11.434901 L13.9699073,11.5593743 C14.4497341,12.151224 14.0578269,13.0799655 13.270654,13.0799655 L12.4987162,13.079512 L12.4801887,13.1127756 C12.2269799,13.5091037 11.8019731,13.7738857 11.3237605,13.8187524 L11.1788192,13.8255266 C10.6423846,13.8255266 10.1559793,13.5487366 9.87744962,13.1127756 L9.85771624,13.079512 L9.08673696,13.0799655 C8.33696335,13.0799655 7.94578752,12.2372596 8.32471319,11.6462783 L8.38737924,11.5596559 L8.48861809,11.4345965 C8.60350047,11.2929586 8.6702347,11.0983067 8.6702347,10.8930638 L8.6702347,10.1582837 C8.6702347,8.9840969 9.37566713,7.9635194 10.3804098,7.6223021 L10.4157162,7.61051202 L10.435541,7.52022402 C10.5138536,7.23552241 10.7563477,7.01882698 11.054826,6.97833491 L11.1562439,6.97151202 Z M10.1,0 C10.9836556,0 11.7,0.7163444 11.7,1.6 L11.7,6.08229484 C11.7,6.41366569 11.4313708,6.68229484 11.1,6.68229484 C10.7686292,6.68229484 10.5,6.41366569 10.5,6.08229484 L10.5,1.6 C10.5,1.3790861 10.3209139,1.2 10.1,1.2 L1.6,1.2 C1.3790861,1.2 1.2,1.3790861 1.2,1.6 L1.2,11.85 C1.2,12.0709139 1.3790861,12.25 1.6,12.25 L6.86254194,12.25 C7.19391279,12.25 7.46254194,12.5186292 7.46254194,12.85 C7.46254194,13.1813708 7.19391279,13.45 6.86254194,13.45 L1.6,13.45 C0.7163444,13.45 0,12.7336556 0,11.85 L0,1.6 C0,0.7163444 0.7163444,0 1.6,0 L10.1,0 Z M11.1577162,8.48751202 L10.9663095,8.50975881 C10.2428044,8.59346788 9.6702347,9.2975183 9.6702347,10.1582837 L9.6702347,10.8930638 C9.6702347,11.3241088 9.52703443,11.7417985 9.2655636,12.0641641 L9.25171624,12.079512 L10.5508444,12.0799655 L10.6573886,12.4369821 C10.7261903,12.6675282 10.9382258,12.8255266 11.1788192,12.8255266 C11.4194126,12.8255266 11.631448,12.6675282 11.7002497,12.4369821 L11.8067939,12.0799655 L13.1037162,12.079512 L13.0921682,12.0645559 C12.8631412,11.782039 12.7248242,11.4269466 12.6938235,11.0538872 L12.6871562,10.8930638 L12.6871562,10.1582837 C12.6871562,9.28332738 12.0965629,8.57268244 11.3588744,8.50636316 L11.1577162,8.48751202 Z M7.88560488,7.37151202 L7.88560488,8.57151202 L2.38871624,8.57151202 L2.38871624,7.37151202 L7.88560488,7.37151202 Z M7.88560488,5.17151202 L7.88560488,6.37151202 L2.38871624,6.37151202 L2.38871624,5.17151202 L7.88560488,5.17151202 Z M4.63716057,2.97151202 L4.63716057,4.17151202 L2.38871624,4.17151202 L2.38871624,2.97151202 L4.63716057,2.97151202 Z"></path>
            </g>
        </g>
    </g>
</svg>