<?xml version="1.0" encoding="UTF-8"?>
<svg width="20px" height="20px" viewBox="0 0 20 20" version="1.1" xmlns="http://www.w3.org/2000/svg" xmlns:xlink="http://www.w3.org/1999/xlink">
    <title>notifications-settings-second-menu</title>
    <g id="notifications-settings-second-menu" stroke="none" stroke-width="1" fill="none" fill-rule="evenodd">
        <rect id="矩形" fill-opacity="0" fill="#D8D8D8" x="0" y="0" width="20" height="20"></rect>
        <g id="数据审批" transform="translate(2.000000, 1.000000)">
            <rect id="矩形备份-49" fill-opacity="0.1" fill="#FFFFFF" opacity="0" x="0" y="0" width="16" height="16"></rect>
            <g transform="translate(1.384324, 1.289701)" fill="#57689C">
                <path d="M11,0 C11.5522847,-1.01453063e-16 12,0.44771525 12,1 L12.0007613,7.12621352 C11.6809122,7.04382251 11.3455738,7 11,7 C8.790861,7 7,8.790861 7,11 C7,12.1952121 7.52421057,13.2679883 8.35525927,14.0009561 L1,14 C0.44771525,14 6.76353751e-17,13.5522847 0,13 L0,1 C-6.76353751e-17,0.44771525 0.44771525,1.01453063e-16 1,0 L11,0 Z M6.91314027,6.91029945 L1.77383896,6.91029945 L1.77383896,7.91029945 L6.91314027,7.91029945 L6.91314027,6.91029945 Z M6.91314027,4.71029945 L1.77383896,4.71029945 L1.77383896,5.71029945 L6.91314027,5.71029945 L6.91314027,4.71029945 Z M4.34348962,2.51029945 L1.77383896,2.51029945 L1.77383896,3.51029945 L4.34348962,3.51029945 L4.34348962,2.51029945 Z" id="形状结合"></path>
                <path d="M11.3409561,7.71029945 C11.4833707,7.71029945 11.6017354,7.82001614 11.6124165,7.96202968 L11.6132329,7.98244024 L11.6130969,8.30084495 C12.7179884,8.40017633 13.5749597,9.42709954 13.5749597,10.6657483 L13.5749597,11.4740064 C13.5749597,11.8245237 13.6908917,12.1611618 13.8977187,12.4162938 L14.0087521,12.5533167 C14.2494606,12.8502223 14.0615474,13.3295983 13.6668072,13.3295983 L12.4663942,13.3295983 C12.3211716,13.8162216 11.8736195,14.1497155 11.3657889,14.1497155 C10.8579583,14.1497155 10.4104063,13.8162216 10.2651836,13.3295983 L9.06449849,13.3295983 C8.6697583,13.3295983 8.4818451,12.8500862 8.72268968,12.5533167 L8.83372312,12.4161577 C9.04055011,12.1611618 9.156346,11.8245237 9.156346,11.4740064 L9.156346,10.6657483 C9.156346,9.44560511 9.98800821,8.43106431 11.0688153,8.30601562 L11.0688153,7.98244024 C11.0688153,7.83214104 11.1906569,7.71029945 11.3409561,7.71029945 Z M11.8729913,13.3295983 L10.8583144,13.3295983 C10.9694814,13.5020021 11.1605839,13.6061639 11.3657209,13.6061639 C11.5708579,13.6061639 11.7619603,13.5020021 11.8731274,13.3295983 L11.8729913,13.3295983 Z" id="形状" fill-rule="nonzero" opacity="0.550000012"></path>
            </g>
        </g>
    </g>
</svg>