<?xml version="1.0" encoding="UTF-8"?>
<svg width="16px" height="16px" viewBox="0 0 16 16" version="1.1" xmlns="http://www.w3.org/2000/svg" xmlns:xlink="http://www.w3.org/1999/xlink">
    <title>priority-settings-third-menu</title>
    <g id="priority-settings-third-menu" stroke="none" stroke-width="1" fill="none" fill-rule="evenodd">
        <rect id="矩形" fill-opacity="0" fill="#F0F0F0" x="0" y="0" width="16" height="16"></rect>
        <g id="排序" transform="translate(0.530000, 2.394215)" fill="#000000" fill-rule="nonzero">
            <path d="M4.93635905,0.234314575 L8.58728548,3.885241 C8.82160005,4.11955558 8.82160005,4.49945456 8.58728548,4.73376914 C8.3529709,4.96808371 7.97307192,4.96808371 7.73875734,4.73376914 L4.978,1.973 L4.97778257,11.7835997 C4.97777058,12.1149706 4.70913171,12.383578 4.37776086,12.383578 C4.04639001,12.383578 3.77778258,12.1149271 3.77778258,11.7835563 L3.778,1.957 L1.02426407,4.71209498 C0.813380951,4.9229781 0.48457446,4.94406641 0.250106667,4.77535992 L0.175735931,4.71209498 C-0.0585786438,4.47778041 -0.0585786438,4.09788142 0.175735931,3.86356685 L3.8049882,0.234314575 C4.11740763,-0.0781048584 4.62393962,-0.0781048584 4.93635905,0.234314575 Z M14,10.5857853 C14.3313708,10.5857853 14.6,10.8544144 14.6,11.1857853 C14.6,11.5171561 14.3313708,11.7857853 14,11.7857853 L7.49589622,11.7857853 C7.16452537,11.7857853 6.89589622,11.5171561 6.89589622,11.1857853 C6.89589622,10.8544144 7.16452537,10.5857853 7.49589622,10.5857853 Z M14,5.29578528 C14.3313708,5.29578528 14.6,5.56441443 14.6,5.89578528 C14.6,6.22715613 14.3313708,6.49578528 14,6.49578528 L9.86665989,6.49578528 C9.53528904,6.49578528 9.26665989,6.22715613 9.26665989,5.89578528 C9.26665989,5.56441443 9.53528904,5.29578528 9.86665989,5.29578528 Z M14,0.00578527547 C14.3313708,0.00578527547 14.6,0.274414426 14.6,0.605785275 C14.6,0.937156125 14.3313708,1.20578528 14,1.20578528 L7.49589622,1.20578528 C7.16452537,1.20578528 6.89589622,0.937156125 6.89589622,0.605785275 C6.89589622,0.274414426 7.16452537,0.00578527547 7.49589622,0.00578527547 L14,0.00578527547 Z" id="形状结合"></path>
        </g>
    </g>
</svg>