<?xml version="1.0" encoding="UTF-8"?>
<svg width="20px" height="20px" viewBox="0 0 20 20" version="1.1" xmlns="http://www.w3.org/2000/svg" xmlns:xlink="http://www.w3.org/1999/xlink">
    <title>priority-settings-second-menu</title>
    <g id="priority-settings-second-menu" stroke="none" stroke-width="1" fill="none" fill-rule="evenodd">
        <rect id="矩形" fill-opacity="0" fill="#D8D8D8" x="0" y="0" width="20" height="20"></rect>
        <g id="排序" transform="translate(1.330000, 3.258135)" fill="#57689C" fill-rule="nonzero">
            <path d="M8.70179294,1.77970188 L15.7310613,1.77970188 C16.1833376,1.77970188 16.54998,1.4130595 16.54998,0.960783193 C16.54998,0.50850689 16.1833376,0.141864504 15.7310613,0.141864504 L8.70179294,0.141864504 C8.24951664,0.141864504 7.88287425,0.50850689 7.88287425,0.960783193 C7.88287425,1.4130595 8.24951664,1.77970188 8.70179294,1.77970188 Z M11.3688987,7.58470188 L15.7310613,7.58470188 C16.1833376,7.58470188 16.54998,7.2180595 16.54998,6.76578319 C16.54998,6.31350689 16.1833376,5.9468645 15.7310613,5.9468645 L11.3688987,5.9468645 C10.9166224,5.9468645 10.54998,6.31350689 10.54998,6.76578319 C10.54998,7.2180595 10.9166224,7.58470188 11.3688987,7.58470188 Z M8.70179294,13.3897019 L15.7310613,13.3897019 C16.1833376,13.3897019 16.54998,13.0230595 16.54998,12.5707832 C16.54998,12.1185069 16.1833376,11.7518645 15.7310613,11.7518645 L8.70179294,11.7518645 C8.24951664,11.7518645 7.88287425,12.1185069 7.88287425,12.5707832 C7.88287425,13.0230595 8.24951664,13.3897019 8.70179294,13.3897019 Z" id="形状结合" opacity="0.550000012"></path>
            <path d="M5.74910922,0.292893219 L9.87407371,4.4178577 C10.1864931,4.73027713 10.1864931,5.23680912 9.87407371,5.54922855 C9.56165427,5.86164798 9.05512229,5.86164798 8.74270286,5.54922855 L5.85,2.656 L5.85,13.3918935 C5.84998401,13.8337213 5.49179884,14.1918645 5.04997104,14.1918645 C4.60814324,14.1918645 4.25,13.8336633 4.25,13.3918355 L4.25,2.64 L1.36568542,5.52484516 C1.07729826,5.81323232 0.623513411,5.83541595 0.309680445,5.59139604 L0.234314575,5.52484516 C-0.0781048584,5.21242572 -0.0781048584,4.70589374 0.234314575,4.39347431 L4.33489566,0.292893219 C4.72541995,-0.0976310729 5.35858493,-0.0976310729 5.74910922,0.292893219 Z" id="形状结合"></path>
        </g>
    </g>
</svg>