<?xml version="1.0" encoding="UTF-8"?>
<svg width="16px" height="16px" viewBox="0 0 16 16" version="1.1" xmlns="http://www.w3.org/2000/svg" xmlns:xlink="http://www.w3.org/1999/xlink">
    <title>project-third-menu</title>
    <g id="project-third-menu" stroke="none" stroke-width="1" fill="none" fill-rule="evenodd">
        <rect id="矩形" fill-opacity="0" fill="#F0F0F0" x="0" y="0" width="16" height="16"></rect>
        <g id="图标" transform="translate(1.000000, 1.000000)">
            <rect id="矩形备份" fill-opacity="0" fill="#D8D8D8" x="0" y="0" width="14" height="14"></rect>
            <path d="M13.35,1.75 L13.35,2.95 L3.6,2.95 L3.6,1.75 L13.35,1.75 Z M13.35,6.125 L13.35,7.325 L3.6,7.325 L3.6,6.125 L13.35,6.125 Z M13.35,10.5 L13.35,11.7 L3.6,11.7 L3.6,10.5 L13.35,10.5 Z M2.075,1.75 L2.075,2.95 L0.875,2.95 L0.875,1.75 L2.075,1.75 Z M2.075,6.125 L2.075,7.325 L0.875,7.325 L0.875,6.125 L2.075,6.125 Z M2.075,10.5 L2.075,11.7 L0.875,11.7 L0.875,10.5 L2.075,10.5 Z" id="形状结合" fill="#000000"></path>
        </g>
    </g>
</svg>