<?xml version="1.0" encoding="UTF-8"?>
<svg width="20px" height="20px" viewBox="0 0 20 20" version="1.1" xmlns="http://www.w3.org/2000/svg" xmlns:xlink="http://www.w3.org/1999/xlink">
    <title>project-documents-second-menu</title>
    <g id="project-documents-second-menu" stroke="none" stroke-width="1" fill="none" fill-rule="evenodd">
        <rect id="矩形" fill-opacity="0" fill="#D8D8D8" x="0" y="0" width="20" height="20"></rect>
        <path d="M8.725,4 L14.387,9.6 L7,9.6 L7,10.7 L14.866,10.7 L14.8666667,16.9 C14.8666667,17.5075132 14.3741799,18 13.7666666,18 L4.10000002,18 C3.49248679,18 3,17.5075132 3,16.9 L3,5.1008097 C3,4.49329646 3.49248679,4.00080967 4.10000002,4.00080967 L8.725,4 Z M11,7 L7,7 L7,8.1 L11,8.1 L11,7 Z" id="形状结合" fill="#57689C" opacity="0.550000012"></path>
        <path d="M12.736,2 L16.866,6.084 L16.8666667,16.9 C16.8666667,17.5075132 16.3741799,18 15.7666666,18 L6.10000002,18 C5.49248679,18 5,17.5075132 5,16.9 L5,3.1008097 C5,2.49329646 5.49248679,2.00080967 6.10000002,2.00080967 L12.736,2 Z M15,9.6 L7,9.6 L7,10.7 L15,10.7 L15,9.6 Z M11,7 L7,7 L7,8.1 L11,8.1 L11,7 Z" id="形状结合" fill="#57689C" opacity="0.550000012"></path>
        <path d="M18,13 L18,18 C18,18.5522847 17.5522847,19 17,19 L3,19 C2.44771525,19 2,18.5522847 2,18 L2,13 L6.5,13 L6.5,15 L13.5,15 L13.5,13 L18,13 Z M13.4987748,6.03580224 C13.0986344,6.03580224 12.7742564,5.71142432 12.7742564,5.31128388 L12.7746663,2.03633553 L16.8194547,6.03633553 L13.4987748,6.03580224 Z" id="形状结合" fill="#57689C"></path>
    </g>
</svg>