<?xml version="1.0" encoding="UTF-8"?>
<svg width="20px" height="20px" viewBox="0 0 20 20" version="1.1" xmlns="http://www.w3.org/2000/svg" xmlns:xlink="http://www.w3.org/1999/xlink">
    <title>project-second-menu</title>
    <g id="project-second-menu" stroke="none" stroke-width="1" fill="none" fill-rule="evenodd">
        <rect id="矩形" fill-opacity="0" fill="#D8D8D8" x="0" y="0" width="20" height="20"></rect>
        <g id="编组-2" transform="translate(2.000000, 2.000000)">
            <rect id="矩形备份" fill-opacity="0" fill="#D8D8D8" x="0" y="0" width="16" height="16"></rect>
            <g id="编组" transform="translate(1.000000, 2.000000)" fill="#57689C">
                <path d="M14,0 L14,2 L4,2 L4,0 L14,0 Z M14,5 L14,7 L4,7 L4,5 L14,5 Z M14,10 L14,12 L4,12 L4,10 L14,10 Z" id="形状结合"></path>
                <path d="M2,0 L2,2 L0,2 L0,0 L2,0 Z M2,5 L2,7 L0,7 L0,5 L2,5 Z M2,10 L2,12 L0,12 L0,10 L2,10 Z" id="形状结合" opacity="0.550000012"></path>
            </g>
        </g>
    </g>
</svg>