<?xml version="1.0" encoding="UTF-8"?>
<svg width="16px" height="16px" viewBox="0 0 16 16" version="1.1" xmlns="http://www.w3.org/2000/svg" xmlns:xlink="http://www.w3.org/1999/xlink">
    <title>project-documents-third-menu</title>
    <g id="project-documents-third-menu" stroke="none" stroke-width="1" fill="none" fill-rule="evenodd">
        <rect id="矩形" fill-opacity="0" fill="#F0F0F0" x="0" y="0" width="16" height="16"></rect>
        <path d="M10.3124965,0.460099803 L10.4783478,0.624740589 L14.6184663,4.77776616 L14.619,10.459 L15.54,10.46 L15.54,14.28 C15.54,14.9758788 14.9758788,15.54 14.28,15.54 L2.72,15.54 C2.02412122,15.54 1.46,14.9758788 1.46,14.28 L1.46,10.46 L2.272,10.459 L2.2725,3.79279382 C2.2725,3.05715054 2.86885671,2.46079383 3.60443434,2.46079383 L4.272,2.46 L4.2725,1.79279382 C4.2725,1.05715054 4.86885671,0.460793825 5.60443434,0.460793829 L10.3124965,0.460099803 Z M5.46,11.54 L2.54,11.54 L2.54,14.28 C2.54,14.359529 2.5915768,14.4270116 2.66310608,14.4508235 L2.72,14.46 L14.28,14.46 C14.3794113,14.46 14.46,14.3794113 14.46,14.28 L14.46,11.54 L12.54,11.54 L12.54,12.54 L5.46,12.54 L5.46,11.54 Z M9.55,1.539 L5.6045,1.54079383 C5.48520649,1.54079383 5.38527328,1.6236851 5.3591555,1.73501253 L5.3525,1.79279382 L5.352,10.459 L6.54,10.46 L6.54,11.459 L11.46,11.459 L11.46,10.46 L13.539,10.459 L13.538,5.541 L10.907054,5.54057355 C10.1575258,5.54057355 9.54991111,4.93296441 9.54991111,4.18342154 L9.55,1.539 Z M4.272,3.54 L3.6045,3.54079383 C3.48520649,3.54079383 3.38527328,3.6236851 3.3591555,3.73501253 L3.3525,3.79279382 L3.352,10.459 L4.272,10.459 L4.272,3.54 Z M12,8.2 L12,9.3 L7,9.3 L7,8.2 L12,8.2 Z M9.5,6 L9.5,7.1 L7,7.1 L7,6 L9.5,6 Z M10.63,2.308 L10.6299111,4.18343811 C10.6299111,4.33649469 10.7539911,4.46057355 10.9071403,4.46057355 L12.776,4.461 L10.63,2.308 Z" id="形状结合" fill="#000000" fill-rule="nonzero"></path>
    </g>
</svg>