<?xml version="1.0" encoding="UTF-8"?>
<svg width="16px" height="16px" viewBox="0 0 16 16" version="1.1" xmlns="http://www.w3.org/2000/svg" xmlns:xlink="http://www.w3.org/1999/xlink">
    <title>sla-agreement-third-menu</title>
    <g id="sla-agreement-third-menu" stroke="none" stroke-width="1" fill="none" fill-rule="evenodd">
        <rect id="矩形" fill-opacity="0" fill="#F0F0F0" x="0" y="0" width="16" height="16"></rect>
        <g id="图形" transform="translate(1.000000, 0.837500)">
            <rect id="矩形" fill="#FFFFFF" opacity="0" x="0" y="0.1625" width="14" height="14"></rect>
            <path d="M12.125,0 C13.0086556,0 13.725,0.7163444 13.725,1.6 L13.725,12.725 C13.725,13.6086556 13.0086556,14.325 12.125,14.325 L1.875,14.325 C0.9913444,14.325 0.275,13.6086556 0.275,12.725 L0.275,12 L0.279,12 L0.28,6.1625 L11.28,6.1625 L11.28,12.1625 L1.475,12.162 L1.475,12.725 C1.475,12.9459139 1.6540861,13.125 1.875,13.125 L12.125,13.125 C12.3459139,13.125 12.525,12.9459139 12.525,12.725 L12.525,1.6 C12.525,1.3790861 12.3459139,1.2 12.125,1.2 L1.875,1.2 C1.6540861,1.2 1.475,1.3790861 1.475,1.6 L1.475,5 L0.275,5 L0.275,1.6 C0.275,0.7163444 0.9913444,0 1.875,0 L12.125,0 Z M10.28,7.1625 L1.28,7.1625 L1.28,11.1625 L10.28,11.1625 L10.28,7.1625 Z M3.0184375,7.6825 C3.3778125,7.6825 3.64832031,7.76127604 3.82996094,7.91882812 C4.01160156,8.07638021 4.10697917,8.28666667 4.11609375,8.5496875 L3.53796875,8.57507812 C3.51322917,8.42794271 3.46016927,8.32214844 3.37878906,8.25769531 C3.29740885,8.19324219 3.17533854,8.16101562 3.01257813,8.16101562 C2.84460938,8.16101562 2.71309896,8.19552083 2.61804688,8.26453125 C2.55684896,8.30880208 2.52625,8.36804687 2.52625,8.44226562 C2.52625,8.50997396 2.55489583,8.56791667 2.6121875,8.61609375 C2.67295139,8.66709201 2.80605324,8.71989873 3.01149306,8.77451389 L3.1434375,8.8075 C3.4246875,8.87390625 3.63269531,8.94259115 3.76746094,9.01355469 C3.90222656,9.08451823 4.00769531,9.18152344 4.08386719,9.30457031 C4.16003906,9.42761719 4.198125,9.57963542 4.198125,9.760625 C4.198125,9.9246875 4.15255208,10.0783333 4.06140625,10.2215625 C3.97026042,10.3647917 3.84135417,10.471237 3.6746875,10.5408984 C3.50802083,10.6105599 3.30033854,10.6453906 3.05164063,10.6453906 C2.68966146,10.6453906 2.41166667,10.5617318 2.21765625,10.3944141 C2.02364583,10.2270964 1.90776042,9.98328125 1.87,9.66296875 L2.4325,9.60828125 C2.46635417,9.79708333 2.53503906,9.93575521 2.63855469,10.0242969 C2.74207031,10.1128385 2.88171875,10.1571094 3.0575,10.1571094 C3.24369792,10.1571094 3.3839974,10.1177214 3.47839844,10.0389453 C3.57279948,9.96016927 3.62,9.86804687 3.62,9.76257812 C3.62,9.69486979 3.60014323,9.6372526 3.56042969,9.58972656 C3.52071615,9.54220052 3.45138021,9.50085937 3.35242188,9.46570312 C3.28471354,9.44226562 3.13041667,9.40059896 2.88953125,9.34070312 C2.57963542,9.26388021 2.3621875,9.16947917 2.2371875,9.0575 C2.06140625,8.89994792 1.97351563,8.70789062 1.97351563,8.48132812 C1.97351563,8.33549479 2.01485677,8.19910156 2.09753906,8.07214844 C2.18022135,7.94519531 2.29936198,7.84851562 2.45496094,7.78210937 C2.6105599,7.71570312 2.79838542,7.6825 3.0184375,7.6825 Z M5.27820313,7.75476562 L5.27820313,10.1121875 L6.71570313,10.1121875 L6.71570313,10.5946094 L4.70007813,10.5946094 L4.70007813,7.75476562 L5.27820313,7.75476562 Z M8.56335938,7.73132812 L9.70984375,10.5946094 L9.0809375,10.5946094 L8.8309375,9.94421875 L7.68640625,9.94421875 L7.45007813,10.5946094 L6.83679688,10.5946094 L7.95203125,7.73132812 L8.56335938,7.73132812 Z M8.25085938,8.39929687 L7.86414063,9.46179687 L8.64539063,9.46179687 L8.25085938,8.39929687 Z" id="形状结合" fill="#000000" fill-rule="nonzero"></path>
        </g>
    </g>
</svg>