<?xml version="1.0" encoding="UTF-8"?>
<svg width="20px" height="20px" viewBox="0 0 20 20" version="1.1" xmlns="http://www.w3.org/2000/svg" xmlns:xlink="http://www.w3.org/1999/xlink">
    <title>sla-agreement-second-menu</title>
    <g id="sla-agreement-second-menu" stroke="none" stroke-width="1" fill="none" fill-rule="evenodd">
        <rect id="矩形" fill-opacity="0" fill="#D8D8D8" x="0" y="0" width="20" height="20"></rect>
        <g id="图形" transform="translate(2.000000, 2.000000)">
            <rect id="矩形" fill="#FFFFFF" opacity="0" x="0" y="0" width="16" height="16"></rect>
            <path d="M14,0 C14.5522847,-1.01453063e-16 15,0.44771525 15,1 L15,15 C15,15.5522847 14.5522847,16 14,16 L2,16 C1.44771525,16 1,15.5522847 1,15 L0.999,13.6 L12.6,13.6 L12.6,7.4 L0.999,7.4 L1,1 C1,0.487164161 1.38604019,0.0644928393 1.88337887,0.00672773133 L2,0 Z M12,8 L12,13 L1,13 L1,8 L12,8 Z M3.79296875,9.08789062 C3.57291667,9.08789062 3.38509115,9.12109375 3.22949219,9.1875 C3.07389323,9.25390625 2.9547526,9.35058594 2.87207031,9.47753906 C2.78938802,9.60449219 2.74804688,9.74088542 2.74804688,9.88671875 C2.74804688,10.1132812 2.8359375,10.3053385 3.01171875,10.4628906 C3.13671875,10.5748698 3.35416667,10.6692708 3.6640625,10.7460938 C3.90494792,10.8059896 4.05924479,10.8476562 4.12695312,10.8710938 C4.22591146,10.90625 4.2952474,10.9475911 4.33496094,10.9951172 C4.37467448,11.0426432 4.39453125,11.1002604 4.39453125,11.1679688 C4.39453125,11.2734375 4.34733073,11.3655599 4.25292969,11.4443359 C4.15852865,11.523112 4.01822917,11.5625 3.83203125,11.5625 C3.65625,11.5625 3.51660156,11.5182292 3.41308594,11.4296875 C3.30957031,11.3411458 3.24088542,11.202474 3.20703125,11.0136719 L2.64453125,11.0683594 C2.68229167,11.3886719 2.79817708,11.632487 2.9921875,11.7998047 C3.18619792,11.9671224 3.46419271,12.0507812 3.82617188,12.0507812 C4.07486979,12.0507812 4.28255208,12.0159505 4.44921875,11.9462891 C4.61588542,11.8766276 4.74479167,11.7701823 4.8359375,11.6269531 C4.92708333,11.483724 4.97265625,11.3300781 4.97265625,11.1660156 C4.97265625,10.985026 4.93457031,10.8330078 4.85839844,10.7099609 C4.78222656,10.5869141 4.67675781,10.4899089 4.54199219,10.4189453 C4.40722656,10.3479818 4.19921875,10.2792969 3.91796875,10.2128906 C3.63671875,10.1464844 3.45963542,10.0826823 3.38671875,10.0214844 C3.32942708,9.97330729 3.30078125,9.91536458 3.30078125,9.84765625 C3.30078125,9.7734375 3.33138021,9.71419271 3.39257812,9.66992188 C3.48763021,9.60091146 3.61914062,9.56640625 3.78710938,9.56640625 C3.94986979,9.56640625 4.0719401,9.59863281 4.15332031,9.66308594 C4.23470052,9.72753906 4.28776042,9.83333333 4.3125,9.98046875 L4.890625,9.95507812 C4.88151042,9.69205729 4.78613281,9.48177083 4.60449219,9.32421875 C4.42285156,9.16666667 4.15234375,9.08789062 3.79296875,9.08789062 Z M6.05273438,9.16015625 L5.47460938,9.16015625 L5.47460938,12 L7.49023438,12 L7.49023438,11.5175781 L6.05273438,11.5175781 L6.05273438,9.16015625 Z M9.33789062,9.13671875 L8.7265625,9.13671875 L7.61132812,12 L8.22460938,12 L8.4609375,11.3496094 L9.60546875,11.3496094 L9.85546875,12 L10.484375,12 L9.33789062,9.13671875 Z M9.02539062,9.8046875 L9.41992188,10.8671875 L8.63867188,10.8671875 L9.02539062,9.8046875 Z" id="形状结合" fill="#57689C" fill-rule="nonzero"></path>
        </g>
    </g>
</svg>