<?xml version="1.0" encoding="UTF-8"?>
<svg width="20px" height="20px" viewBox="0 0 20 20" version="1.1" xmlns="http://www.w3.org/2000/svg" xmlns:xlink="http://www.w3.org/1999/xlink">
    <title>standard-fields-second-menu</title>
    <g id="standard-fields-second-menu" stroke="none" stroke-width="1" fill="none" fill-rule="evenodd">
        <rect id="矩形" fill-opacity="0" fill="#D8D8D8" x="0" y="0" width="20" height="20"></rect>
        <g id="图形备份" transform="translate(2.000000, 2.000000)">
            <rect id="矩形" fill="#FFFFFF" opacity="0" x="0" y="2.27373675e-13" width="16" height="16"></rect>
            <path d="M10.342,0 L15,4.656 L15,15 C15,15.5128358 14.6139598,15.9355072 14.1166211,15.9932723 L14,16 L2,16 C1.44771525,16 1,15.5522847 1,15 L1,1 C1,0.44771525 1.44771525,2.27475129e-13 2,2.27373675e-13 L10.342,0 Z M11.581543,7.7578125 C11.0424805,7.7578125 10.6362305,7.85416667 10.362793,8.046875 C10.0893555,8.23958333 9.89664714,8.53645833 9.78466797,8.9375 L10.7807617,9.1171875 C10.8484701,8.92447917 10.9370117,8.78971354 11.0463867,8.71289063 C11.1557617,8.63606771 11.3081055,8.59765625 11.503418,8.59765625 C11.7924805,8.59765625 11.9890951,8.64257813 12.0932617,8.73242188 C12.1974284,8.82226563 12.2495117,8.97265625 12.2495117,9.18359375 L12.2495117,9.29296875 C12.0515951,9.37630208 11.6961263,9.46614583 11.1831055,9.5625 C10.8028971,9.63541667 10.5118815,9.72070313 10.3100586,9.81835938 C10.1082357,9.91601563 9.95133464,10.0566406 9.83935547,10.2402344 C9.7273763,10.4238281 9.67138672,10.6328125 9.67138672,10.8671875 C9.67138672,11.2213542 9.79443359,11.5143229 10.0405273,11.7460938 C10.2866211,11.9778646 10.6232096,12.09375 11.050293,12.09375 C11.2924805,12.09375 11.5203451,12.0481771 11.7338867,11.9570313 C11.9474284,11.8658854 12.1479492,11.7291667 12.3354492,11.546875 C12.3432617,11.5677083 12.3562826,11.6106771 12.3745117,11.6757813 C12.4161784,11.8190104 12.4513346,11.9270833 12.4799805,12 L13.565918,12 C13.4695638,11.8020833 13.4038086,11.6165365 13.3686523,11.4433594 C13.3334961,11.2701823 13.315918,11.0013021 13.315918,10.6367188 L13.3276367,9.35546875 C13.3276367,8.87890625 13.2788086,8.55143229 13.1811523,8.37304688 C13.0834961,8.19466146 12.9148763,8.04752604 12.675293,7.93164063 C12.4357096,7.81575521 12.0711263,7.7578125 11.581543,7.7578125 Z M6.48095703,4.84179688 L4.95263672,4.84179688 L2.16455078,12 L3.69775391,12 L4.28857422,10.3740234 L7.14990234,10.3740234 L7.77490234,12 L9.34716797,12 L6.48095703,4.84179688 Z M12.2495117,10.0078125 L12.2495117,10.2265625 C12.2495117,10.4895833 12.2351888,10.6679688 12.206543,10.7617188 C12.1648763,10.9049479 12.0776367,11.0260417 11.9448242,11.125 C11.7651367,11.2552083 11.5763346,11.3203125 11.378418,11.3203125 C11.2013346,11.3203125 11.0555013,11.2643229 10.940918,11.1523438 C10.8263346,11.0403646 10.769043,10.9075521 10.769043,10.7539063 C10.769043,10.5976563 10.8406576,10.46875 10.9838867,10.3671875 C11.0776367,10.3046875 11.2768555,10.2408854 11.581543,10.1757813 C11.8862305,10.1106771 12.1088867,10.0546875 12.2495117,10.0078125 Z M5.69970703,6.51171875 L6.68603516,9.16796875 L4.73291016,9.16796875 L5.69970703,6.51171875 Z" id="形状结合" fill="#57689C" fill-rule="nonzero"></path>
        </g>
    </g>
</svg>