<?xml version="1.0" encoding="UTF-8"?>
<svg width="16px" height="16px" viewBox="0 0 16 16" version="1.1" xmlns="http://www.w3.org/2000/svg" xmlns:xlink="http://www.w3.org/1999/xlink">
    <title>standard-fields-third-menu</title>
    <g id="standard-fields-third-menu" stroke="none" stroke-width="1" fill="none" fill-rule="evenodd">
        <rect id="矩形" fill-opacity="0" fill="#F0F0F0" x="0" y="0" width="16" height="16"></rect>
        <g id="图形备份" transform="translate(1.000000, 0.398967)">
            <rect id="矩形" fill="#FFFFFF" opacity="0" x="0" y="0.601033278" width="14" height="14"></rect>
            <path d="M9.59044839,0 L9.76620798,0.175713131 L13.549208,3.95771313 L13.725,4.13345868 L13.725,13.6010333 C13.725,14.4153513 13.1138631,15.0970296 12.2761769,15.1933096 L12.125,15.2010333 L1.875,15.2010333 C0.9913444,15.2010333 0.275,14.4846889 0.275,13.6010333 L0.275,1.60103328 C0.275,0.717377679 0.9913444,0.00103327823 1.87491965,0.00103328361 L9.34191965,0 L9.59044839,0 Z M9.092,1.19903328 L1.875,1.20103328 C1.6540861,1.20103328 1.475,1.38011938 1.475,1.60103328 L1.475,13.6010333 C1.475,13.8219472 1.6540861,14.0010333 1.875,14.0010333 L12.0904442,14.0020292 L12.1723974,13.9983122 C12.3719904,13.9751298 12.525,13.8044588 12.525,13.6010333 L12.525,4.63103328 L9.092,1.19903328 Z M10.1338501,7.38911922 C10.5622355,7.38911922 10.8812459,7.43981909 11.0908813,7.54121883 C11.3005168,7.64261856 11.4480591,7.77136205 11.5335083,7.92744929 C11.6189575,8.08353653 11.6616821,8.37007625 11.6616821,8.78706843 L11.6514282,9.90816218 C11.6514282,10.2271726 11.6668091,10.4624428 11.6975708,10.6139727 C11.7283325,10.7655027 11.7858683,10.9278562 11.8701782,11.1010333 L10.9199829,11.1010333 C10.8949178,11.0372312 10.8641561,10.9426674 10.8276978,10.8173419 C10.8117472,10.7603757 10.800354,10.7227781 10.7935181,10.7045489 C10.6294556,10.8640541 10.4539998,10.983683 10.2671509,11.0634356 C10.0803019,11.1431882 9.88092041,11.1830645 9.66900635,11.1830645 C9.29530843,11.1830645 9.00079346,11.0816648 8.78546143,10.8788653 C8.57012939,10.6760658 8.46246338,10.4197182 8.46246338,10.1098223 C8.46246338,9.90474422 8.51145426,9.72188289 8.60943604,9.56123836 C8.70741781,9.40059383 8.84470622,9.27754695 9.02130127,9.19209773 C9.19789632,9.10664851 9.45253499,9.03202286 9.78521729,8.96822078 C10.2341105,8.88391088 10.5451457,8.8052976 10.7183228,8.73238093 L10.7183228,8.63667781 C10.7183228,8.4521075 10.6727498,8.3205157 10.581604,8.24190242 C10.4904582,8.16328914 10.3184204,8.1239825 10.0654907,8.1239825 C9.89459229,8.1239825 9.7612915,8.15759252 9.66558838,8.22481258 C9.56988525,8.29203263 9.4924113,8.40995255 9.4331665,8.57857234 L8.56158447,8.42134578 C8.65956624,8.07043432 8.82818604,7.81066869 9.06744385,7.6420489 C9.30670166,7.47342911 9.66217041,7.38911922 10.1338501,7.38911922 Z M5.6708374,4.83760554 L8.17877197,11.1010333 L6.80303955,11.1010333 L6.25616455,9.67830379 L3.75250244,9.67830379 L3.23553467,11.1010333 L1.89398193,11.1010333 L4.33355713,4.83760554 L5.6708374,4.83760554 Z M10.7183228,9.35786922 C10.5952759,9.39888484 10.4004517,9.44787573 10.1338501,9.50484187 C9.86724854,9.56180802 9.69293213,9.61763484 9.61090088,9.67232234 C9.48557536,9.76118953 9.4229126,9.8739825 9.4229126,10.0107012 C9.4229126,10.1451414 9.47304281,10.2613523 9.57330322,10.3593341 C9.67356364,10.4573158 9.80116781,10.5063067 9.95611572,10.5063067 C10.1292928,10.5063067 10.2944946,10.4493406 10.4517212,10.3354083 C10.5679321,10.2488197 10.6442668,10.1428627 10.6807251,10.0175372 C10.7057902,9.93550593 10.7183228,9.77941869 10.7183228,9.54927547 L10.7183228,9.35786922 Z M4.98724365,6.29878718 L4.14129639,8.62300593 L5.85028076,8.62300593 L4.98724365,6.29878718 Z" id="形状结合" fill="#000000" fill-rule="nonzero"></path>
        </g>
    </g>
</svg>