<?xml version="1.0" encoding="UTF-8"?>
<svg width="20px" height="20px" viewBox="0 0 20 20" version="1.1" xmlns="http://www.w3.org/2000/svg" xmlns:xlink="http://www.w3.org/1999/xlink">
    <title>trigger-settings-second-menu</title>
    <g id="trigger-settings-second-menu" stroke="none" stroke-width="1" fill="none" fill-rule="evenodd">
        <rect id="milestone-second-menu" fill-opacity="0" fill="#D8D8D8" x="0" y="0" width="20" height="20"></rect>
        <g id="图形" transform="translate(2.000000, 1.000000)" fill="#57689C">
            <path d="M15,0 C15.5522847,-1.01453063e-16 16,0.44771525 16,1 L16,11 C16,11.5522847 15.5522847,12 15,12 L1,12 C0.44771525,12 6.76353751e-17,11.5522847 0,11 L0,1 C-6.76353751e-17,0.44771525 0.44771525,1.01453063e-16 1,0 L15,0 Z M13.1,4.9 L11.9,4.9 L11.9,9.1 L13.1,9.1 L13.1,4.9 Z M7.1,5.9 L5.9,5.9 L5.9,9.1 L7.1,9.1 L7.1,5.9 Z M4.1,6.9 L2.9,6.9 L2.9,9.1 L4.1,9.1 L4.1,6.9 Z M10.1,2.9 L8.9,2.9 L8.9,9.1 L10.1,9.1 L10.1,2.9 Z" id="形状结合"></path>
            <path d="M6.1571889,13 L9.8428111,13 C10.1820633,13 10.7091766,13.3837559 11.0201517,13.8571429 L11.864757,15.1428571 C12.1757321,15.6162441 11.9322257,16 11.3208704,16 L4.67912961,16 C4.06777426,16 3.82426794,15.6162441 4.13524302,15.1428571 L4.97984833,13.8571429 C5.29082341,13.3837559 5.81793674,13 6.1571889,13 Z" id="矩形" opacity="0.550000012"></path>
        </g>
    </g>
</svg>