<?xml version="1.0" encoding="UTF-8"?>
<svg width="20px" height="20px" viewBox="0 0 20 20" version="1.1" xmlns="http://www.w3.org/2000/svg" xmlns:xlink="http://www.w3.org/1999/xlink">
    <title>user-second-menu</title>
    <g id="user-second-menu" stroke="none" stroke-width="1" fill="none" fill-rule="evenodd">
        <rect id="矩形" fill-opacity="0" fill="#D8D8D8" x="0" y="0" width="20" height="20"></rect>
        <g id="user备份" transform="translate(2.000000, 2.000000)">
            <rect id="矩形" x="0" y="0" width="16" height="16"></rect>
            <path d="M11.5555556,9.33333333 C13.5555556,9.33333333 15.2,10.9777778 15.2,12.9777778 L15.2,15.0666667 C15.2,15.5555556 14.8,15.9111111 14.3111111,15.9555556 L1.91111111,15.9555556 C1.42222222,15.9555556 1.02222222,15.5555556 1.02222222,15.0666667 L1.02222222,12.9777778 C1.02222222,10.9777778 2.66666667,9.33333333 4.66666667,9.33333333 Z M13,12.13 L9.99874823,12.13 L9.99874823,13.1382185 L13,13.1382185 L13,12.13 Z M8.08888889,7.68888889 C10.150752,7.68888889 11.8222222,6.01741862 11.8222222,3.95555556 C11.8222222,1.89369249 10.150752,0.222222222 8.08888889,0.222222222 C6.02702582,0.222222222 4.35555556,1.89369249 4.35555556,3.95555556 C4.35555556,6.01741862 6.02702582,7.68888889 8.08888889,7.68888889 Z" id="形状结合" fill="#57689C" fill-rule="nonzero"></path>
        </g>
    </g>
</svg>