<?xml version="1.0" encoding="UTF-8"?>
<svg width="20px" height="20px" viewBox="0 0 20 20" version="1.1" xmlns="http://www.w3.org/2000/svg" xmlns:xlink="http://www.w3.org/1999/xlink">
    <title>user-group-second-menu</title>
    <g id="user-group-second-menu" stroke="none" stroke-width="1" fill="none" fill-rule="evenodd">
        <rect id="milestone-second-menu" fill-opacity="0" fill="#D8D8D8" x="0" y="0" width="20" height="20"></rect>
        <g id="用户组" transform="translate(2.000000, 2.000000)">
            <rect id="矩形" x="0" y="0" width="16" height="16"></rect>
            <g id="编组-28" transform="translate(0.000000, 0.449764)" fill="#57689C" fill-rule="nonzero">
                <g id="编组-2">
                    <path d="M12.8,8.56296296 C14.4,8.56296296 15.7052632,9.86419753 15.7473684,11.5012346 L15.7473684,13.1802469 C15.7473684,13.5265432 15.4997076,13.8375686 15.1341131,13.8870013 L15.0315789,13.8938272 L5.01052632,13.8938272 C4.63157895,13.8938272 4.29473684,13.5580247 4.29473684,13.1802469 L4.29473684,11.5012346 C4.29473684,9.90617284 5.6,8.60493827 7.24210526,8.56296296 L12.8,8.56296296 Z M11.2312518,11.250236 L8.23,11.250236 L8.23,12.2584545 L11.2312518,12.2584545 L11.2312518,11.250236 Z M10.0210526,1.09135802 C11.6720934,1.09135802 13.0105263,2.42566002 13.0105263,4.07160494 C13.0105263,5.71754986 11.6720934,7.05185185 10.0210526,7.05185185 C8.37001191,7.05185185 7.03157895,5.71754986 7.03157895,4.07160494 C7.03157895,2.42566002 8.37001191,1.09135802 10.0210526,1.09135802 Z" id="形状结合" opacity="0.550000012"></path>
                    <path d="M9.97894737,8.60493827 C11.8736842,8.60493827 13.4315789,10.1580247 13.4315789,12.0469136 L13.4315789,14.0197531 C13.4315789,14.4814815 13.0526316,14.817284 12.5894737,14.8592593 L0.842105263,14.8592593 C0.378947368,14.8592593 0,14.4814815 0,14.0197531 L0,12.0469136 C0,10.1580247 1.55789474,8.60493827 3.45263158,8.60493827 Z M11.2312518,11.250236 L8.23,11.250236 L8.23,12.2584545 L11.2312518,12.2584545 L11.2312518,11.250236 Z M6.69473684,7.05185185 C8.6480808,7.05185185 10.2315789,5.47324104 10.2315789,3.52592593 C10.2315789,1.57861081 8.6480808,0 6.69473684,0 C4.74139288,0 3.15789474,1.57861081 3.15789474,3.52592593 C3.15789474,5.47324104 4.74139288,7.05185185 6.69473684,7.05185185 Z" id="形状结合"></path>
                </g>
            </g>
        </g>
    </g>
</svg>