<?xml version="1.0" encoding="UTF-8"?>
<svg width="16px" height="16px" viewBox="0 0 16 16" version="1.1" xmlns="http://www.w3.org/2000/svg" xmlns:xlink="http://www.w3.org/1999/xlink">
    <title>user-group-third-menu</title>
    <g id="user-group-third-menu" stroke="none" stroke-width="1" fill="none" fill-rule="evenodd">
        <rect id="矩形" fill-opacity="0" fill="#F0F0F0" x="0" y="0" width="16" height="16"></rect>
        <g id="用户组" transform="translate(0.400000, 0.793544)">
            <rect id="矩形" x="0.6" y="0.206456456" width="14" height="14"></rect>
            <g id="编组-28" fill="#000000" fill-rule="nonzero">
                <g id="编组-2">
                    <path d="M11.8,7.49259259 C13.5284103,7.49259259 14.9336177,8.89346291 14.9789474,10.6635802 L14.9789474,12.132716 C14.9789474,12.734352 14.5446491,13.2539014 13.8937294,13.3484302 L13.7524147,13.3570987 L12.8570462,13.3572558 C12.6641802,13.8248915 12.1968868,14.1510491 11.6157895,14.2018519 L1.33684211,14.2018519 C0.600622579,14.2018519 0,13.603083 0,12.867284 L0,11.1410494 C0,9.15648485 1.63220153,7.52932099 3.62105263,7.52932099 L6.51,7.529 L6.6144413,7.51473969 C6.7173134,7.50274785 6.82334809,7.49536305 6.93684211,7.49259259 L11.8,7.49259259 Z M9.33133801,8.72932094 L3.62105263,8.72932099 C2.29411426,8.72932099 1.2,9.82005836 1.2,11.1410494 L1.2,12.867284 C1.2,12.9395095 1.26253532,13.0018519 1.33684211,13.0018519 L11.5616343,13.0043008 C11.687619,12.992883 11.7526316,12.930306 11.7526316,12.867284 L11.7526316,11.1410494 C11.7526316,10.3863909 11.395553,9.70687877 10.8419794,9.2629462 C10.4267067,8.92988692 9.90045049,8.72932096 9.33133801,8.72932094 Z M11.9934627,8.70259259 L12.0714374,8.78792045 C12.1539435,8.88324898 12.2315721,8.98287629 12.303923,9.08640387 C12.3209116,9.11072514 12.337723,9.1354184 12.3542342,9.16032442 C12.3751093,9.19178452 12.3958442,9.22414888 12.4160716,9.25685369 C12.4328565,9.28401818 12.4490484,9.31098227 12.4648952,9.33816771 C12.4833214,9.36975864 12.501287,9.40167889 12.5187759,9.433889 C12.5294483,9.45356569 12.5399431,9.47332977 12.5502582,9.49319962 C12.5690744,9.5294103 12.5875067,9.56644281 12.6053129,9.60382195 C12.617751,9.62995173 12.6299858,9.65645508 12.6419051,9.68312567 C12.7216739,9.86166018 12.7871586,10.0471747 12.8371454,10.2387113 C12.8467346,10.2754636 12.855909,10.3130806 12.8644822,10.3509166 C12.8696765,10.3738108 12.874573,10.3964528 12.8792535,10.4191705 C12.8880799,10.4620376 12.896184,10.5054026 12.9034951,10.5490242 C12.9076662,10.5738628 12.9115861,10.5988773 12.9152441,10.6239728 C12.920392,10.6593409 12.9250161,10.6947787 12.9291147,10.7303686 C12.9328669,10.7629095 12.9361683,10.7955114 12.9390259,10.8282339 C12.9419562,10.8618305 12.9444271,10.8956173 12.946422,10.929525 C12.9505347,10.9992458 12.9526316,11.069918 12.9526316,11.1410494 L12.952,12.157 L13.7091612,12.1586756 L13.762539,12.1564539 C13.7724984,12.154982 13.7789474,12.1472672 13.7789474,12.132716 L13.7791457,10.6790074 C13.7533122,9.67460892 13.0313051,8.86162595 12.1003598,8.71588225 L11.9934627,8.70259259 Z M10.45,10.2564565 L10.45,11.4564565 L7.45,11.4564565 L7.45,10.2564565 L10.45,10.2564565 Z M6.45789474,0 C7.42701853,0 8.30914667,0.372214726 8.96824417,0.981227557 C9.09914791,0.963285869 9.23329411,0.954938272 9.36842105,0.954938272 C11.1440381,0.954938272 12.5842105,2.39066576 12.5842105,4.16265432 C12.5842105,5.93464288 11.1440381,7.37037037 9.36842105,7.37037037 C8.87602881,7.37037037 8.39906935,7.25941792 7.9669625,7.05041567 C7.50679156,7.2557265 6.99574068,7.37037037 6.45789474,7.37037037 C4.41776241,7.37037037 2.76315789,5.72087266 2.76315789,3.68518519 C2.76315789,1.64949771 4.41776241,0 6.45789474,0 Z M9.84418469,2.21193827 L9.91414548,2.37979001 C9.93970986,2.44709194 9.96335504,2.51533585 9.98501431,2.58445535 L9.90690195,2.3612442 C9.9424849,2.45346158 9.9743621,2.54720848 10.0024291,2.64228562 C10.0210624,2.70477152 10.0379187,2.76803512 10.0531065,2.83194326 C10.0573412,2.85051599 10.0615691,2.86893645 10.0656563,2.88739881 C10.0835373,2.9673869 10.0987007,3.04875767 10.111138,3.13102065 C10.1127911,3.14276406 10.1144968,3.15440588 10.1161473,3.16606113 C10.1253636,3.23042827 10.1328118,3.29549745 10.138539,3.36105908 C10.14075,3.38698133 10.1427327,3.41271299 10.1444478,3.43849642 C10.1498797,3.5197878 10.1526316,3.60216534 10.1526316,3.68518519 C10.1526316,3.82723401 10.1445751,3.96740241 10.1288932,4.10526117 C10.1263107,4.12652528 10.1238061,4.14688137 10.1211346,4.16719386 C10.1150033,4.21547132 10.1076341,4.26415048 10.0993203,4.31250743 C10.0948186,4.33706745 10.090426,4.36108141 10.0857995,4.38502414 C10.0782973,4.42553808 10.0697275,4.46626168 10.0604899,4.50673169 C10.0530836,4.53754448 10.0457378,4.56786289 10.0380154,4.59804954 C10.0285607,4.63659134 10.0180714,4.67500872 10.0069803,4.71317073 C9.99941392,4.73773959 9.99198113,4.76233034 9.98429662,4.78682219 C9.90319352,5.04676307 9.79361289,5.29423591 9.65950608,5.52579705 C9.64599992,5.5488051 9.63231547,5.57187686 9.61838161,5.59479428 C9.59732772,5.62962867 9.57584392,5.66364635 9.55382401,5.69728301 C9.54088488,5.71693398 9.52753675,5.73691933 9.51399366,5.75677299 C9.49247867,5.78836393 9.47063197,5.81932278 9.44832459,5.8499259 C9.43001066,5.87504636 9.41165206,5.89959203 9.39298591,5.9239102 C9.32985493,6.00611069 9.2631846,6.08576406 9.19331622,6.16246616 L9.36842105,6.17037037 C10.4315024,6.17037037 11.3017656,5.35096595 11.3786839,4.31244085 L11.3842105,4.16265432 C11.3842105,3.25576928 10.7803353,2.48886968 9.95075903,2.23997677 L9.84418469,2.21193827 Z M6.45789474,1.2 C5.07967514,1.2 3.96315789,2.31307121 3.96315789,3.68518519 C3.96315789,5.05729916 5.07967514,6.17037037 6.45789474,6.17037037 C6.91688363,6.17037037 7.34684732,6.04692055 7.71621228,5.83156541 L7.68400983,5.84904738 C7.78091091,5.7945361 7.87335211,5.73409634 7.96094137,5.66829987 C7.97714099,5.65666738 7.99317896,5.64428041 8.00905948,5.63170467 L7.96094137,5.66829987 C8.01089004,5.63077875 8.05926088,5.59151566 8.10598118,5.5506166 L8.00905948,5.63170467 C8.05007264,5.59922647 8.09003553,5.5654892 8.12888933,5.53055163 L8.10598118,5.5506166 C8.14654639,5.51510573 8.18586731,5.47836157 8.22389635,5.44045351 L8.12888933,5.53055163 C8.17159859,5.49214722 8.21296772,5.45229249 8.2529186,5.41106551 L8.22389635,5.44045351 C8.2701967,5.39430046 8.31458209,5.34642216 8.35696664,5.29694387 L8.2529186,5.41106551 C8.29159196,5.37115684 8.32893631,5.32996228 8.36488078,5.28755264 L8.35696664,5.29694387 C8.39240484,5.25557452 8.42644429,5.21308663 8.4590348,5.16955344 L8.36488078,5.28755264 C8.40190182,5.2438728 8.43743785,5.198904 8.47141145,5.15272361 L8.56483652,5.01659981 C8.59462013,4.96989219 8.6228388,4.92218527 8.64943936,4.87355658 C8.65986971,4.85452976 8.67031397,4.83484175 8.68049833,4.81499949 L8.64943936,4.87355658 C8.67344408,4.82967338 8.69613109,4.78503955 8.71746132,4.73971204 L8.68049833,4.81499949 C8.70553984,4.76621093 8.72901006,4.71648983 8.7508426,4.66590252 L8.71746132,4.73971204 C8.74270875,4.68606037 8.76605532,4.63143686 8.78743624,4.57593601 L8.7508426,4.66590252 C8.77080263,4.61965391 8.78939384,4.57268131 8.8065655,4.52503541 L8.78743624,4.57593601 C8.8083685,4.5215998 8.82741673,4.46642267 8.84452016,4.4104933 L8.8065655,4.52503541 C8.82516909,4.47341633 8.84210651,4.42100697 8.85731323,4.36787179 L8.84452016,4.4104933 C8.85973023,4.36075533 8.87340224,4.31042244 8.88549343,4.25955699 L8.85731323,4.36787179 C8.87415998,4.30900599 8.88888259,4.24924938 8.90139333,4.18868959 L8.88549343,4.25955699 C8.91486673,4.13598883 8.93491072,4.00927772 8.94501241,3.88031767 C8.94635016,3.86371589 8.94750479,3.84669994 8.9484866,3.82963799 C8.95123629,3.78160025 8.95263158,3.73351536 8.95263158,3.68518519 L8.94500875,3.48948572 C8.9434042,3.46897023 8.94154954,3.44852452 8.93944779,3.42815161 C8.93581751,3.39279259 8.93140698,3.35745749 8.92625217,3.32231126 L8.93944779,3.42815161 C8.93270814,3.36282217 8.92342776,3.29824138 8.9117066,3.23450912 L8.92625217,3.32231126 C8.91602655,3.25259152 8.90287214,3.18361503 8.8868661,3.11552737 L8.9117066,3.23450912 C8.90104736,3.17655088 8.88836957,3.11929437 8.87374841,3.06281473 L8.8868661,3.11552737 C8.85553789,2.98226111 8.8132853,2.85239988 8.76068695,2.72703523 C8.74853775,2.69865029 8.73595262,2.67018797 8.72285323,2.64201108 L8.76068695,2.72703523 C8.73802778,2.67302862 8.71344859,2.61985651 8.68699564,2.56760617 L8.72285323,2.64201108 C8.69951391,2.59180808 8.67454206,2.54251121 8.64800546,2.49418819 L8.68699564,2.56760617 C8.62196993,2.43916626 8.54562187,2.3162962 8.45863856,2.20029226 C8.44317356,2.17979677 8.42756177,2.15961096 8.41164891,2.13967418 L8.45863856,2.20029226 C8.42224839,2.15176107 8.3839968,2.10443162 8.3439341,2.05839881 L8.41164891,2.13967418 C7.95468483,1.56715631 7.24945219,1.2 6.45789474,1.2 Z" id="形状结合"></path>
                </g>
            </g>
        </g>
    </g>
</svg>