<?xml version="1.0" encoding="UTF-8"?>
<svg width="16px" height="16px" viewBox="0 0 16 16" version="1.1" xmlns="http://www.w3.org/2000/svg" xmlns:xlink="http://www.w3.org/1999/xlink">
    <title>user-third-menu</title>
    <g id="user-third-menu" stroke="none" stroke-width="1" fill="none" fill-rule="evenodd">
        <rect id="矩形" fill-opacity="0" fill="#F0F0F0" x="0" y="0" width="16" height="16"></rect>
        <g id="user备份" transform="translate(1.000000, 0.594444)">
            <rect id="矩形" x="0" y="0.405555556" width="14" height="14"></rect>
            <path d="M10.1111111,7.97222222 C12.192482,7.97222222 13.9,9.67974026 13.9,11.7611111 L13.9,13.5888889 C13.9,14.3310995 13.313693,14.897189 12.5222222,14.9666667 L1.67222222,14.9666667 C0.913073595,14.9666667 0.294444444,14.3480375 0.294444444,13.5888889 L0.294444444,11.7611111 C0.294444444,9.67974026 2.00196248,7.97222222 4.08333333,7.97222222 L10.1111111,7.97222222 Z M10.1111111,9.17222222 L4.08333333,9.17222222 C2.66470418,9.17222222 1.49444444,10.342482 1.49444444,11.7611111 L1.49444444,13.5888889 C1.49444444,13.6852958 1.57581529,13.7666667 1.67222222,13.7666667 L12.4679008,13.7691307 C12.6169721,13.7555788 12.7,13.6754139 12.7,13.5888889 L12.7,11.7611111 C12.7,10.342482 11.5297403,9.17222222 10.1111111,9.17222222 Z M11.4,10.9081215 L11.4,12.1081215 L8.4,12.1081215 L8.4,10.9081215 L11.4,10.9081215 Z M7.07777778,0 C9.21327881,0 10.9444444,1.73116563 10.9444444,3.86666667 C10.9444444,6.0021677 9.21327881,7.73333333 7.07777778,7.73333333 C4.94227675,7.73333333 3.21111111,6.0021677 3.21111111,3.86666667 C3.21111111,1.73116563 4.94227675,0 7.07777778,0 Z M7.07777778,1.2 C5.60501844,1.2 4.41111111,2.39390733 4.41111111,3.86666667 C4.41111111,5.339426 5.60501844,6.53333333 7.07777778,6.53333333 C8.55053711,6.53333333 9.74444444,5.339426 9.74444444,3.86666667 C9.74444444,2.39390733 8.55053711,1.2 7.07777778,1.2 Z" id="形状结合" fill="#000000" fill-rule="nonzero"></path>
        </g>
    </g>
</svg>