<?xml version="1.0" encoding="UTF-8"?>
<svg width="28px" height="28px" viewBox="0 0 28 28" version="1.1" xmlns="http://www.w3.org/2000/svg" xmlns:xlink="http://www.w3.org/1999/xlink">
    <!-- Generator: Sketch 61 (89581) - https://sketch.com -->
    <title>查看所有灰色</title>
    <desc>Created with Sketch.</desc>
    <g id="最终版" stroke="none" stroke-width="1" fill="none" fill-rule="evenodd">
        <g id="编组-19备份-2" fill="#595959" fill-rule="nonzero">
            <path d="M22,0 C25.3137085,0 28,2.6862915 28,6 L28,22 C28,25.3137085 25.3137085,28 22,28 L6,28 C2.6862915,28 0,25.3137085 0,22 L0,6 C0,2.6862915 2.6862915,0 6,0 L22,0 Z M22,1 L6,1 C3.3112453,1 1.11818189,3.12230671 1.00461951,5.78311038 L1,6 L1,22 C1,24.6887547 3.12230671,26.8818181 5.78311038,26.9953805 L6,27 L22,27 C24.6887547,27 26.8818181,24.8776933 26.9953805,22.2168896 L27,22 L27,6 C27,3.3112453 24.8776933,1.11818189 22.2168896,1.00461951 L22,1 Z" id="矩形"></path>
            <g id="编组-5" transform="translate(6.000000, 6.000000)">
                <g id="编组-7" transform="translate(0.000000, -0.000000)">
                    <g id="编组">
                        <path d="M8.36525827,14.3243796 L2.5952478,14.3243796 C1.76963541,14.3235282 1.10091518,13.6537722 1.10134141,12.8281595 L1.10134141,2.5967903 C1.10134141,1.77155548 1.76924174,1.10288391 2.59447655,1.10134141 L12.8281595,1.10134141 C13.2253464,1.10034794 13.6064049,1.2583817 13.8863111,1.54018124 C14.1685876,1.82245782 14.3228371,2.1972841 14.3228371,2.59756155 L14.2996997,8.36525827 C14.2994242,8.56381201 14.4042738,8.74600489 14.5747528,8.84474914 C14.7452317,8.94349338 14.9554402,8.94378738 15.1261947,8.84552038 C15.2969492,8.74725339 15.4023081,8.5653545 15.4025836,8.36834327 L15.4249504,2.59910404 C15.4251544,1.90814962 15.1517363,1.24764386 14.6648662,0.760629033 C14.177996,0.273614202 13.5175715,0 12.8289307,0 L2.59447655,0 C1.90611125,0 1.24596212,0.273557461 0.759359019,0.760449863 C0.272755917,1.24734226 -0.000409254441,1.90765387 -5.13751461e-06,2.59601905 L-5.13751461e-06,12.8289307 C-0.000614633092,13.517626 0.272696352,14.1782908 0.759677663,14.6652721 C1.24665897,15.1522534 1.90732375,15.4255644 2.59601905,15.4249549 L8.36525827,15.4249549 C8.66917233,15.4249549 8.91554336,15.1785788 8.91554336,14.8746647 C8.91554336,14.5707507 8.66917233,14.3243796 8.36525827,14.3243796 Z" id="路径"></path>
                        <path d="M12.1309518,4.94986639 C12.4363566,4.94986639 12.6839362,4.70228682 12.6839362,4.39688194 C12.6839362,4.09147706 12.4363566,3.84389749 12.1309518,3.84389749 L3.34258662,3.84312624 C3.19620117,3.84333041 3.05590379,3.90173061 2.95261077,4.00545763 C2.84931775,4.10918466 2.79150631,4.24972567 2.79191376,4.39611069 C2.79191376,4.70152469 3.03871512,4.94909513 3.34258662,4.94909515 L12.1309518,4.95140889 L12.1309518,4.94986639 Z" id="路径"></path>
                        <path d="M6.63812714,8.25543313 C6.94122741,8.25543313 7.18648628,8.00863394 7.18648628,7.70476243 C7.18689373,7.55899105 7.12932606,7.41903854 7.02646695,7.31574543 C6.92360784,7.21245231 6.78389896,7.15429588 6.63812714,7.15409172 L3.34258662,7.15409172 C3.14169218,7.14707548 2.95310356,7.2506956 2.85130198,7.42402834 C2.74905632,7.59721989 2.74905632,7.81230497 2.85130198,7.98549652 C2.95310357,8.15882926 3.14169218,8.26244937 3.34258662,8.25543313 L6.63812714,8.25620438 L6.63812714,8.25543313 Z" id="路径"></path>
                        <path d="M3.34490037,10.4619722 C3.19905791,10.4621766 3.05927001,10.5203084 2.95628846,10.6235792 C2.85330691,10.72685 2.79556746,10.8668005 2.79577161,11.0126429 C2.79577161,11.3165144 3.04102885,11.5633136 3.34412912,11.5633136 L5.54064197,11.5633136 C5.74137591,11.5704875 5.9299263,11.4671844 6.03192662,11.2941482 C6.13430999,11.1207181 6.13430999,10.905339 6.03192662,10.7319088 C5.9299263,10.5588727 5.74137591,10.4555695 5.54064197,10.4627434 L3.34412912,10.4627434 L3.34490037,10.4619722 Z" id="路径"></path>
                    </g>
                    <g id="编组" transform="translate(9.301435, 10.076555)">
                        <path d="M3.04511278,2.53471036 C3.04511278,2.99337472 3.41693372,3.36519566 3.87559809,3.36519566 C4.33426245,3.36519566 4.70608339,2.99337472 4.70608339,2.53471036 C4.70608339,2.07604599 4.33426245,1.70422505 3.87559809,1.70422505 C3.41693372,1.70422505 3.04511278,2.07604599 3.04511278,2.53471036 Z" id="路径"></path>
                        <path d="M3.87559809,4.22336381 C2.65709201,4.22320425 1.528628,3.58167298 0.905228982,2.53471036 C1.52870827,1.48782963 2.65712133,0.846327328 3.87559809,0.846056904 C5.09407484,0.846327328 6.2224879,1.48782963 6.84596719,2.53471036 C6.22256817,3.58167298 5.09410416,4.22320425 3.87559809,4.22336381 M7.2296514,1.60844241 C6.41337434,0.591582016 5.17955844,0.000336135573 3.87559809,0.001174769 C2.26026001,-0.000278358794 0.780651973,0.904556396 0.0459535202,2.34314508 C-0.0152890724,2.46351314 -0.0152890724,2.60590757 0.0459535202,2.72627563 C0.780651973,4.16486431 2.26026001,5.06969907 3.87559809,5.06824594 C5.4908286,5.06931645 6.97025261,4.16459424 7.70524265,2.72627563 C7.76649304,2.60571429 7.76649304,2.46315276 7.70524265,2.34259142 C7.572179,2.08228756 7.41281793,1.83628898 7.2296514,1.60844241" id="形状"></path>
                    </g>
                </g>
            </g>
        </g>
    </g>
</svg>