<?xml version="1.0" encoding="UTF-8"?>
<svg width="20px" height="18px" viewBox="0 0 20 18" version="1.1" xmlns="http://www.w3.org/2000/svg" xmlns:xlink="http://www.w3.org/1999/xlink">
    <!-- Generator: Sketch 59.1 (86144) - https://sketch.com -->
    <title>Apache小产品图标</title>
    <desc>Created with Sketch.</desc>
    <g id="页面-1" stroke="none" stroke-width="1" fill="none" fill-rule="evenodd">
        <g id="Apple-TV" transform="translate(-1215.000000, -583.000000)">
            <g id="Apache小产品图标" transform="translate(1215.000000, 582.000000)">
                <rect id="矩形" x="0" y="0" width="20" height="20"></rect>
                <g id="Apache" transform="translate(0.000000, 1.000000)" fill="#FFFFFF">
                    <path d="M0.315352601,0.0427736218 C0.533415785,-0.0662579701 0.751478969,0.0427736218 0.860510561,0.260836806 L0.860510561,0.260836806 L2.27792126,3.42275297 C4.51306889,3.15017399 8.0719,4.4040373 10.047525,5.92894606 C11.0689867,6.71737294 11.5984202,7.1667313 11.9669419,7.51476052 L11.9889832,7.51020813 C10.4311364,7.84022401 9.0521557,7.70353504 8.69295791,7.66585695 C8.33376012,7.62817886 7.90829013,7.62789515 7.84470457,7.96137355 C7.78111902,8.29485194 8.03985577,8.5075771 8.45896157,8.58294579 C8.87621945,8.65798218 11.1859733,8.81661575 12.6711958,8.25025092 C13.0979494,8.73112542 13.7297948,9.47283668 14.179026,9.99340969 L14.2004061,9.98623827 C12.6425594,10.3162541 11.9371439,10.2652373 11.5672214,10.2652373 C11.1972989,10.2652373 10.7975357,10.2271589 10.7339501,10.5606373 C10.6703645,10.8941157 10.9103601,11.1183097 11.3420763,11.1769043 C11.771576,11.2351981 13.3894098,11.3431041 14.8676758,10.7776873 C15.5646627,11.5554443 16.8341542,12.9342726 18.0875021,14.0533332 C19.6139444,15.4162281 20.0500707,15.6342913 19.9955549,16.2884808 C16.9426704,15.1981649 13.9443016,13.8897858 11.1094802,12.4178593 C6.14854277,9.80110109 2.60501603,4.2950057 2.38695285,4.4040373 C2.05985807,4.56758468 2.0965195,4.7425583 2.27792126,5.05429745 C2.45932301,5.3660366 5.54886901,10.5098064 10.7823854,13.2355962 C13.562691,14.6530069 16.4520282,15.961386 19.3958812,17.1062178 C17.7604073,17.9239547 12.3322754,18.5713862 5.24677643,13.7433845 C-1.83872254,8.91538281 1.46018432,3.80436354 1.46018432,3.80436354 L1.46018432,3.80436354 L0.0427736218,0.642447377 L0.0427736218,0.642447377 L0.0427736218,0.587931581 C-0.0662579701,0.369868397 0.0427736218,0.151805214 0.260836806,0.0427736218 L0.260836806,0.0427736218 Z" id="形状结合"></path>
                </g>
            </g>
        </g>
    </g>
</svg>