<?xml version="1.0" encoding="UTF-8"?>
<svg width="22px" height="22px" viewBox="0 0 22 22" version="1.1" xmlns="http://www.w3.org/2000/svg" xmlns:xlink="http://www.w3.org/1999/xlink">
    <title>API Gateway小产品</title>
    <g id="页面-1" stroke="none" stroke-width="1" fill="none" fill-rule="evenodd">
        <g id="Apple-TV" transform="translate(-675.000000, -220.000000)">
            <g id="API-Gateway小产品" transform="translate(675.000000, 220.000000)">
                <g id="编组备份-6">
                    <rect id="矩形" x="0" y="0" width="22" height="22"></rect>
                    <g id="组件-(1)" transform="translate(7.519796, 6.323755)"></g>
                </g>
                <path d="M18.9282032,6.5 L18.9282032,15.5 L11.1339746,20 L7.23686028,17.75 M3.33974596,15.5 L3.33974596,6.5 L11.1339746,2 L15.0310889,4.25" id="形状备份-5" stroke="#FFFFFF" stroke-width="1.5"></path>
                <g id="编组-4备份-2" transform="translate(6.694417, 8.780000)" fill="#FFFFFF" fill-rule="nonzero" stroke="#FFFFFF" stroke-width="0.5">
                    <g id="编组-17">
                        <path d="M8.10737799,4.42662837 L8.4316731,4.42662837 L8.4316731,0 L8.10737799,0 L8.10737799,4.42662837 Z M4.63742022,0 L4.21583654,0 L4.21583654,4.42662837 L4.54013165,4.42662837 L4.54013165,2.38356912 L6.68047944,2.38356912 C7.10206312,2.38356912 7.45878771,1.83875332 7.45878771,1.3620395 L7.45878771,0.885325661 C7.45878771,0.408611833 7.10206312,0 6.68047944,0 L4.63742022,0 Z M7.1344926,0.885325661 L7.1344926,1.3620395 C7.1344926,1.6344474 6.90748605,2.04305925 6.68047944,2.04305925 L4.54013165,2.04305925 L4.54013165,0.340509869 L6.68047944,0.340509869 C6.90748599,0.340509869 7.1344926,0.612917774 7.1344926,0.885325661 Z M2.04305925,0 L1.68633462,0 C1.03774437,0 0.8431673,0.612917774 0.77830829,0.817223697 L0,4.42662837 L0.356724621,4.42662837 L0.810737795,2.38356912 L2.91865607,2.38356912 L3.37266923,4.42662837 L3.72939386,4.42662837 L2.98351508,0.817223697 C2.88622655,0.612917774 2.69164948,0 2.04305925,0 Z M2.85379704,2.04305925 L0.875596823,2.04305925 L1.1026034,0.919376665 C1.23232144,0.510764813 1.42689852,0.340509869 1.75119365,0.340509869 L1.94577071,0.340509869 C2.27006583,0.340509869 2.4646429,0.510764813 2.59436094,0.953427643 L2.85379704,2.04305925 L2.85379704,2.04305925 Z" id="形状备份"></path>
                    </g>
                </g>
            </g>
        </g>
    </g>
</svg>