<?xml version="1.0" encoding="UTF-8"?>
<svg width="20px" height="19px" viewBox="0 0 20 19" version="1.1" xmlns="http://www.w3.org/2000/svg" xmlns:xlink="http://www.w3.org/1999/xlink">
    <!-- Generator: Sketch 58 (84663) - https://sketch.com -->
    <title>24A20C27-08CD-4268-883A-D99432FD4D67</title>
    <desc>Created with Sketch.</desc>
    <g id="09.18" stroke="none" stroke-width="1" fill="none" fill-rule="evenodd">
        <g id="Easyops5.0/发布统计" transform="translate(-20.000000, -82.000000)" fill="#FFFFFF">
            <g id="左侧菜单">
                <g id="左侧菜单/Row/F5" transform="translate(6.000000, 66.000000)">
                    <g id="发布应用统计" transform="translate(13.000000, 14.000000)">
                        <rect id="矩形" opacity="0" x="0" y="0" width="22" height="22"></rect>
                        <path d="M19,2 C20.1045695,2 21,2.8954305 21,4 L21,16 C21,17.1045695 20.1045695,18 19,18 L3,18 C1.8954305,18 1,17.1045695 1,16 L1,4 C1,2.8954305 1.8954305,2 3,2 L19,2 Z M19,3 L3,3 C2.48716416,3 2.06449284,3.38604019 2.00672773,3.88337887 L2,4 L2,16 C2,16.5128358 2.38604019,16.9355072 2.88337887,16.9932723 L3,17 L19,17 C19.5128358,17 19.9355072,16.6139598 19.9932723,16.1166211 L20,16 L20,4 C20,3.44771525 19.5522847,3 19,3 Z M17,5 C17.5522847,5 18,5.44771525 18,6 L18,14 C18,14.5522847 17.5522847,15 17,15 L10,15 C9.44771525,15 9,14.5522847 9,14 L9,6 C9,5.44771525 9.44771525,5 10,5 L17,5 Z M7,5 C7.55228475,5 8,5.44771525 8,6 L8,7 C8,7.55228475 7.55228475,8 7,8 L5,8 C4.44771525,8 4,7.55228475 4,7 L4,6 C4,5.44771525 4.44771525,5 5,5 L7,5 Z M20.5833333,20 C20.813452,20 21,20.186548 21,20.4166667 L21,20.5833333 C21,20.813452 20.813452,21 20.5833333,21 L1.41666667,21 C1.18654802,21 1,20.813452 1,20.5833333 L1,20.4166667 C1,20.186548 1.18654802,20 1.41666667,20 L20.5833333,20 Z M7,9 C7.55228475,9 8,9.44771525 8,10 L8,14 C8,14.5522847 7.55228475,15 7,15 L5,15 C4.44771525,15 4,14.5522847 4,14 L4,10 C4,9.44771525 4.44771525,9 5,9 L7,9 Z" id="launchpad-icon/发布应用统计"></path>
                    </g>
                </g>
            </g>
        </g>
    </g>
</svg>