<?xml version="1.0" encoding="UTF-8"?>
<svg width="20px" height="20px" viewBox="0 0 20 20" version="1.1" xmlns="http://www.w3.org/2000/svg" xmlns:xlink="http://www.w3.org/1999/xlink">
    <!-- Generator: Sketch 58 (84663) - https://sketch.com -->
    <title>画板备份 6</title>
    <desc>Created with Sketch.</desc>
    <g id="页面-1" stroke="none" stroke-width="1" fill="none" fill-rule="evenodd">
        <g id="画板备份-6">
            <g id="编组">
                <path d="M17.9,1.2 C19.0045695,1.2 19.9,2.0954305 19.9,3.2 L19.9,14.9473684 C19.9,16.0519379 19.0045695,16.9473684 17.9,16.9473684 L2.1,16.9473684 C0.9954305,16.9473684 0.1,16.0519379 0.1,14.9473684 L0.1,3.2 C0.1,2.0954305 0.9954305,1.2 2.1,1.2 L17.9,1.2 Z M17.91,2.18421053 L2.09,2.18421053 C1.57716416,2.18421053 1.15449284,2.57025072 1.09672773,3.0675894 L1.09,3.18421053 L1.09,14.9631579 C1.09,15.4759937 1.47604019,15.8986651 1.97337887,15.9564302 L2.09,15.9631579 L17.91,15.9631579 C18.4228358,15.9631579 18.8455072,15.5771177 18.9032723,15.079779 L18.91,14.9631579 L18.91,3.18421053 C18.91,2.63192578 18.4622847,2.18421053 17.91,2.18421053 Z M15.93,4.15263158 C16.4822847,4.15263158 16.93,4.60034683 16.93,5.15263158 L16.93,12.9947368 C16.93,13.5470216 16.4822847,13.9947368 15.93,13.9947368 L9.02,13.9947368 C8.46771525,13.9947368 8.02,13.5470216 8.02,12.9947368 L8.02,5.15263158 C8.02,4.60034683 8.46771525,4.15263158 9.02,4.15263158 L15.93,4.15263158 Z M6.03,4.15263158 C6.58228475,4.15263158 7.03,4.60034683 7.03,5.15263158 L7.03,6.10526316 C7.03,6.65754791 6.58228475,7.10526316 6.03,7.10526316 L4.07,7.10526316 C3.51771525,7.10526316 3.07,6.65754791 3.07,6.10526316 L3.07,5.15263158 C3.07,4.60034683 3.51771525,4.15263158 4.07,4.15263158 L6.03,4.15263158 Z M19.4833333,18.9157895 C19.713452,18.9157895 19.9,19.1023375 19.9,19.3324561 L19.9,19.4833333 C19.9,19.713452 19.713452,19.9 19.4833333,19.9 L0.516666667,19.9 C0.286548021,19.9 0.1,19.713452 0.1,19.4833333 L0.1,19.3324561 C0.1,19.1023375 0.286548021,18.9157895 0.516666667,18.9157895 L19.4833333,18.9157895 Z M6.03,8.08947368 C6.58228475,8.08947368 7.03,8.53718893 7.03,9.08947368 L7.03,12.9947368 C7.03,13.5470216 6.58228475,13.9947368 6.03,13.9947368 L4.07,13.9947368 C3.51771525,13.9947368 3.07,13.5470216 3.07,12.9947368 L3.07,9.08947368 C3.07,8.53718893 3.51771525,8.08947368 4.07,8.08947368 L6.03,8.08947368 Z" id="launchpad-icon/发布应用统计" fill="#FFFFFF"></path>
                <rect id="矩形" x="0" y="0" width="20" height="20"></rect>
            </g>
        </g>
    </g>
</svg>