<?xml version="1.0" encoding="UTF-8"?>
<svg width="32px" height="32px" viewBox="0 0 32 32" version="1.1" xmlns="http://www.w3.org/2000/svg" xmlns:xlink="http://www.w3.org/1999/xlink">
    <!-- Generator: Sketch 61 (89581) - https://sketch.com -->
    <title>自动采集</title>
    <desc>Created with Sketch.</desc>
    <g id="最终版" stroke="none" stroke-width="1" fill="none" fill-rule="evenodd">
        <g id="路径-5备份-4" transform="translate(1.000000, 1.000000)" fill="#595959" fill-rule="nonzero">
            <g id="路径-2">
                <g id="路径-4">
                    <g id="模型设置备份">
                        <g>
                            <path d="M12.5844188,-0.472203306 L1.06086742,5.54382246 L0.860284021,5.65647821 C-0.300962066,6.36210262 -1,7.552355 -1,8.83806022 L-1,20.8769193 L-0.992517173,21.0991788 C-0.896796465,22.4096483 -0.120006667,23.5385873 1.06015232,24.1559206 L12.590881,30.1757239 L12.8347595,30.2907285 C13.4083627,30.5369932 13.9942816,30.6608276 14.5773361,30.6608276 C15.273353,30.6608276 15.9607842,30.491462 16.564862,30.175164 L21.5382054,27.5791691 L21.0449414,26.6834569 C20.5151964,25.7214995 20.2334495,24.6391891 20.2334495,23.5135135 C20.2334495,19.8907359 23.156244,16.9555985 26.7595819,16.9555985 C27.4745918,16.9555985 28.1727318,17.0707922 28.8354419,17.2940365 L30.1546825,17.7384434 L30.1546825,8.83805907 L30.1529802,8.64340874 C30.0911629,7.32057789 29.3133267,6.16641859 28.1238211,5.54419616 L16.5779801,-0.475847985 L16.3260038,-0.596669406 C15.1391052,-1.11658602 13.7147238,-1.07284329 12.5844188,-0.472203306 Z M15.6831822,1.31250918 L27.19798,7.31699522 L27.3370411,7.39676315 C27.8296858,7.70568632 28.1300804,8.19083182 28.154136,8.69953934 L28.154136,15.069 L28.1411483,15.0675226 C27.6876385,14.9932904 27.2259962,14.9555985 26.7595819,14.9555985 C22.0497834,14.9555985 18.2334495,18.7880487 18.2334495,23.5135135 L18.2399629,23.8506593 C18.2746468,24.7470305 18.4474166,25.6208887 18.7478734,26.4473041 L18.854,26.724 L15.6382622,28.4027614 C15.3190882,28.5698815 14.9499505,28.6608276 14.5773361,28.6608276 C14.2691565,28.6608276 13.9505892,28.5934982 13.6517521,28.465495 L13.4769297,28.3832472 L1.9864551,22.3833624 C1.40622588,22.079848 1.04581698,21.5560516 1.00411565,20.9891468 L0.999327408,20.8402487 L1,8.83806022 C1,8.26536626 1.32309764,7.71522767 1.87165123,7.38161373 L2.01540915,7.30102603 L13.5164687,1.29732478 C14.1087772,0.982604368 14.8918118,0.958557391 15.5235261,1.23527753 L15.6831822,1.31250918 Z" id="形状结合"></path>
                            <path d="M26.2312405,18.0540626 C26.7440763,18.0540626 27.1667476,18.4401028 27.2245127,18.9374415 L27.2312405,19.0540626 L27.2312405,26.8725869 C27.2312405,27.4248716 26.7835252,27.8725869 26.2312405,27.8725869 C25.7184046,27.8725869 25.2957333,27.4865467 25.2379682,26.989208 L25.2312405,26.8725869 L25.2312405,19.0540626 C25.2312405,18.5017779 25.6789557,18.0540626 26.2312405,18.0540626 Z" id="直线-3"></path>
                            <path d="M28.2800973,23.8884596 C28.6693234,23.4966413 29.3024849,23.4945399 29.6943031,23.883766 C30.0559815,24.2430515 30.0855935,24.8101874 29.7818722,25.2034888 L29.6989967,25.2979717 L26.9406902,28.0746484 C26.5514641,28.4664667 25.9183026,28.4685681 25.5264844,28.0793421 C25.164806,27.7200565 25.135194,27.1529206 25.4389153,26.7596192 L25.5217908,26.6651363 L28.2800973,23.8884596 Z" id="直线-3备份"></path>
                            <path d="M25.4931037,24.0210935 C25.8657033,23.6134319 26.49823,23.5850084 26.9058916,23.957608 C27.2821947,24.301546 27.3353599,24.8669604 27.0482529,25.2725491 L26.9693772,25.3703958 L24.4315165,28.1470726 C24.058917,28.5547342 23.4263903,28.5831577 23.0187286,28.2105581 C22.6424256,27.8666201 22.5892604,27.3012057 22.8763674,26.895617 L22.9552431,26.7977702 L25.4931037,24.0210935 Z" id="直线-3备份-2" transform="translate(24.962310, 26.084083) scale(1, -1) translate(-24.962310, -26.084083) "></path>
                            <path d="M24.5543873,8.91237416 L15.2659138,13.4901132 C15.1780103,13.5347015 15.0901068,13.5792899 15.0022032,13.6387411 C14.7384926,13.7279178 14.4308302,13.7279178 14.1671196,13.6238783 C14.0938667,13.5792899 14.0206137,13.5347015 13.9327102,13.4901132 L4.93724852,8.91237416 C4.48308026,8.67456954 3.88240611,8.82319743 3.6186955,9.23935552 C3.39893667,9.58119967 3.47218961,9.99735776 3.76520139,10.264888 C3.82380375,10.3243391 3.91170728,10.3837903 3.99961082,10.4283786 L4.93724852,10.9039879 L13.0976266,15.0952944 C13.1122772,15.1101572 13.1415784,15.1101572 13.156229,15.12502 C13.4199396,15.3182362 13.5810961,15.615492 13.5810961,15.9276106 L13.6250478,25.3060305 L13.6250478,25.3952072 C13.6250478,25.41007 13.6250478,25.4249328 13.6396984,25.4397956 L13.6396984,25.4843839 C13.6396984,25.4992467 13.654349,25.5141095 13.654349,25.5289723 C13.654349,25.5438351 13.654349,25.5586979 13.6689996,25.5735607 C13.6689996,25.5884234 13.6836502,25.6032862 13.6836502,25.6032862 C13.6836502,25.618149 13.6983008,25.6330118 13.6983008,25.6478746 C13.6983008,25.6627374 13.7129514,25.6627374 13.7129514,25.6776002 C13.727602,25.692463 13.727602,25.7073258 13.7422526,25.7370513 L13.7422526,25.7519141 C13.8887584,25.9897188 14.1671196,26.1680722 14.4894326,26.1977978 L14.5919867,26.1977978 C14.8849985,26.1977978 15.1633597,26.0788955 15.3391668,25.8708164 C15.4710221,25.7221886 15.5589256,25.5289723 15.5589256,25.3060305 L15.5589256,24.7115189 L15.5882268,15.9424734 C15.5882268,15.6452176 15.7347327,15.3776874 15.9691421,15.1844711 C15.9984433,15.1696083 16.042395,15.1547456 16.0716962,15.1398828 L25.4773744,10.472967 C25.9461933,10.2351624 26.1220003,9.71496477 25.8582897,9.28394389 C25.6092297,8.83806022 25.0232061,8.67456954 24.5543873,8.91237416 Z" id="路径"></path>
                        </g>
                    </g>
                </g>
            </g>
        </g>
    </g>
</svg>