<?xml version="1.0" encoding="UTF-8"?>
<svg width="16px" height="16px" viewBox="0 0 16 16" version="1.1" xmlns="http://www.w3.org/2000/svg" xmlns:xlink="http://www.w3.org/1999/xlink">
    <title>capacity-management-app</title>
    <g id="capacity-management-app" stroke="none" stroke-width="1" fill="none" fill-rule="evenodd">
        <g id="编组">
            <rect id="矩形" x="0" y="0" width="16" height="16"></rect>
            <g transform="translate(2.000000, 1.000000)" fill="#BFBFBF" id="形状结合">
                <path d="M12.5,9.6475 L12.5,11.3228 L12.4898,11.3952 C12.4155,11.9214 11.889,12.577 10.7139,13.1268 C9.5798,13.6574 8.01048,14 6.25,14 C4.48952,14 2.92019,13.6574 1.78606,13.1268 C0.61102,12.577 0.0845,11.9214 0.01022,11.3952 L0,11.3228 L0,9.6475 C0.24328,9.938 0.5592,10.1927 0.96516,10.3957 C2.35642,11.0913 4.22594,11.5 6.25,11.5 C8.2741,11.5 10.1436,11.0913 11.5348,10.3957 C11.9408,10.1927 12.2567,9.938 12.5,9.6475 Z M6.24969,0 C8.09137,0 9.7216,0.3749 10.8637,0.94595 C12.0507,1.53946 12.4994,2.22062 12.4994,2.75 C12.4994,3.27938 12.0507,3.96054 10.8637,4.55405 C9.7216,5.1251 8.09137,5.5 6.24969,5.5 C4.40801,5.5 2.77776,5.1251 1.63567,4.55405 C0.44865,3.96054 0,3.27938 0,2.75 C0,2.22062 0.44865,1.53946 1.63567,0.94595 C2.77776,0.3749 4.40801,0 6.24969,0 Z M7.50852308,0.875 L4.74147692,0.875 C4.57235463,0.875 4.4118038,0.928664415 4.31974737,1.01577838 L2.7160432,2.44106876 C2.61206234,2.52818272 2.59574266,2.63551155 2.67434159,2.72262552 L4.05786467,4.1479159 C4.14838803,4.23502986 4.32525854,4.28869427 4.52129583,4.28869427 L7.72870417,4.28869427 C7.92474146,4.28869427 8.10161197,4.23502986 8.19213533,4.1479159 L9.57565841,2.72262552 C9.65425734,2.63551155 9.63793766,2.52818272 9.5339568,2.44106876 L7.93025263,1.01577838 C7.8381962,0.928664415 7.67764537,0.875 7.50852308,0.875 Z M6.16083137,2.03894849 C6.71208517,2.03894849 7.17049187,2.291063 7.18471138,2.602062 C7.1989309,2.91306101 6.74132314,3.16517552 6.16261584,3.16517552 C5.58390855,3.16517552 5.12550185,2.91306101 5.13873583,2.602062 C5.15196981,2.291063 5.60957757,2.03894849 6.16083137,2.03894849 Z M0,4.27249 C0.24328,4.563 0.5592,4.81771 0.96516,5.02069 C2.35642,5.71632 4.22594,6.12495 6.25,6.12499 C8.2741,6.12495 10.1436,5.71632 11.5348,5.02069 C11.9408,4.81771 12.2567,4.563 12.5,4.27249 L12.4997,6.81249013 L12.4997,8.12499 C12.4997,8.65437 12.051,9.33553 10.864,9.9291 C9.7219,10.5001 8.09168,10.875 6.25,10.875 C4.40832,10.875 2.77807,10.5001 1.63598,9.9291 C0.44896,9.33553 0.00031,8.65437 0,8.12499 L0,4.27249 Z"></path>
            </g>
        </g>
    </g>
</svg>