<?xml version="1.0" encoding="UTF-8"?>
<svg width="20px" height="20px" viewBox="0 0 20 20" version="1.1" xmlns="http://www.w3.org/2000/svg" xmlns:xlink="http://www.w3.org/1999/xlink">
    <!-- Generator: Sketch 58 (84663) - https://sketch.com -->
    <title>应用部署</title>
    <desc>Created with Sketch.</desc>
    <g id="页面-1" stroke="none" stroke-width="1" fill="none" fill-rule="evenodd">
        <g id="画板备份-23">
            <g id="编组-3">
                <path d="M14.703,10.391 L14.703,14.642 L17.114,16.034 L18.2894667,15.3564188 L20,16.3439957 L20,18.3191494 L18.2894667,19.3067262 L16.5789335,18.3191494 L16.578,16.879 L14.5,15.679 L10.229,18.144 L10.229,12.664 L14.703,10.391 Z M5.295,10.377 L9.769,12.665 L9.769,18.144 L5.571,15.721 L3.421,16.963 L3.42106654,18.3191494 L1.71053327,19.3067262 L1.14241949e-13,18.3191494 L5.45119505e-14,16.3439957 L1.71053327,15.3564188 L2.958,16.076 L5.295,14.726 L5.295,10.377 Z M9.99921554,1 L11.7097488,1.98757684 L11.7097488,3.96273053 L10.571,4.62 L10.571,7.744 L14.502,10.014 L9.998,12.302 L5.509,10.007 L9.571,7.661 L9.571,4.703 L8.28868227,3.96273053 L8.28868227,1.98757684 L9.99921554,1 Z" id="形状结合" fill="#FFFFFF"></path>
                <rect id="矩形" x="0" y="0" width="20" height="20"></rect>
            </g>
        </g>
    </g>
</svg>