<?xml version="1.0" encoding="UTF-8"?>
<svg width="20px" height="20px" viewBox="0 0 20 20" version="1.1" xmlns="http://www.w3.org/2000/svg" xmlns:xlink="http://www.w3.org/1999/xlink">
    <!-- Generator: Sketch 58 (84663) - https://sketch.com -->
    <title>持续集成</title>
    <desc>Created with Sketch.</desc>
    <defs>
        <polygon id="path-1" points="0 0.00026 19.74 0.00026 19.74 9.55826 0 9.55826"></polygon>
    </defs>
    <g id="页面-1" stroke="none" stroke-width="1" fill="none" fill-rule="evenodd">
        <g id="画板备份-7">
            <g id="持续集成" transform="translate(0.000000, 5.000000)">
                <mask id="mask-2" fill="white">
                    <use xlink:href="#path-1"></use>
                </mask>
                <g id="Clip-2"></g>
                <path d="M10.5173,5.79926 L8.8353,4.11826 L7.7793,5.17526 L7.7493,5.20426 L6.5813,6.37226 L6.3853,6.56826 C6.0383,6.87826 5.6013,7.08626 5.1183,7.15326 L5.1183,9.55826 C6.4043,9.47126 7.5523,8.88426 8.3633,7.98226 C8.3633,7.98226 9.4013,6.94126 10.5323,5.80926 C10.5283,5.80526 10.5213,5.80326 10.5173,5.79926 L10.5173,5.79926 Z M17.3413,4.86026 C17.3023,6.00926 16.4573,6.95226 15.3523,7.14026 L15.3523,9.55526 C17.7853,9.35126 19.6983,7.33526 19.7403,4.86026 L17.3413,4.86026 Z M4.3913,7.14126 C3.2843,6.95426 2.4373,6.01126 2.3983,4.86026 L-0.0007,4.86026 C0.0413,7.33726 1.9563,9.35326 4.3913,9.55526 L4.3913,7.14126 Z M14.6253,7.15326 C14.1403,7.08826 13.7023,6.87926 13.3543,6.56826 L13.1583,6.37226 L12.3723,5.58726 L10.6803,7.28026 L11.3763,7.98226 C12.1883,8.88526 13.3373,9.47226 14.6253,9.55826 L14.6253,7.15326 Z M5.1183,2.40526 C5.5913,2.47026 6.0213,2.67226 6.3643,2.97026 C6.4493,3.04426 6.5283,3.12326 6.6013,3.20726 L7.3603,3.96626 L9.0563,2.27126 L8.3663,1.58026 C7.5563,0.67626 6.4063,0.08726 5.1183,0.00026 L5.1183,2.40526 Z M2.4853,4.13326 C2.7323,3.24926 3.4723,2.57226 4.3913,2.41726 L4.3913,0.00326 C2.1453,0.18926 0.3423,1.92126 0.0443,4.13326 L2.4853,4.13326 Z M15.3523,2.41826 C16.2703,2.57426 17.0083,3.25026 17.2543,4.13326 L19.6953,4.13326 C19.3973,1.92226 17.5963,0.19126 15.3523,0.00326 L15.3523,2.41826 Z M9.3503,3.60426 L11.3733,1.58026 C12.1843,0.67526 13.3353,0.08626 14.6253,0.00026 L14.6253,2.40426 C14.1513,2.46926 13.7193,2.67126 13.3753,2.97026 C13.3353,3.00526 12.2133,4.12726 11.0403,5.29926 C11.0373,5.29526 11.0363,5.28926 11.0313,5.28526 L9.3503,3.60426 Z" id="Fill-1" fill="#FFFFFF" mask="url(#mask-2)"></path>
            </g>
        </g>
    </g>
</svg>