<?xml version="1.0" encoding="UTF-8"?>
<svg width="17px" height="17px" viewBox="0 0 17 17" version="1.1" xmlns="http://www.w3.org/2000/svg" xmlns:xlink="http://www.w3.org/1999/xlink">
    <!-- Generator: Sketch 55.2 (78181) - https://sketchapp.com -->
    <title>编组 9备份</title>
    <desc>Created with Sketch.</desc>
    <g id="f" stroke="none" stroke-width="1" fill="none" fill-rule="evenodd">
        <g id="编组-9备份" transform="translate(1.000000, 1.000000)">
            <path d="M4.30568182,4.23068182 L1.95681818,4.23068182 C1.60568182,4.23068182 1.37045455,4.06022727 1.37045455,3.80454545 C1.37045455,3.54886364 1.60568182,3.37840909 1.95681818,3.37840909 L4.30568182,3.37840909 C4.65681818,3.37840909 4.89204545,3.54886364 4.89204545,3.80454545 C4.89204545,4.06022727 4.66022727,4.23068182 4.30568182,4.23068182 Z" id="路径" fill="#FFFFFF" fill-rule="nonzero"></path>
            <path d="M7.9875,7.06022727 L1.79659091,7.06022727 C1.56136364,7.06022727 1.37045455,6.86931818 1.37045455,6.63409091 L1.37045455,6.63409091 C1.37045455,6.39886364 1.56136364,6.20795455 1.79659091,6.20795455 L7.9875,6.20795455 C8.22272727,6.20795455 8.41363636,6.39886364 8.41363636,6.63409091 L8.41363636,6.63409091 C8.41363636,6.86931818 8.22272727,7.06022727 7.9875,7.06022727 Z" id="路径" fill="#FFFFFF" fill-rule="nonzero"></path>
            <path d="M7.9875,9.88977273 L1.79659091,9.88977273 C1.56136364,9.88977273 1.37045455,9.69886364 1.37045455,9.46363636 L1.37045455,9.46363636 C1.37045455,9.22840909 1.56136364,9.0375 1.79659091,9.0375 L7.9875,9.0375 C8.22272727,9.0375 8.41363636,9.22840909 8.41363636,9.46363636 L8.41363636,9.46363636 C8.41363636,9.69545455 8.22272727,9.88977273 7.9875,9.88977273 Z" id="路径" fill="#FFFFFF" fill-rule="nonzero"></path>
            <path d="M13.2034091,7.79431818 L13.2034091,1.70454545 C13.2034091,0.763636364 12.4159091,0 11.4443182,0 L1.75909091,0 C0.7875,0 0,0.763636364 0,1.70454545 L0,13.6363636 C0,14.5772727 0.7875,15.3409091 1.75909091,15.3409091 L7.17386364,15.3409091" id="路径" stroke="#FFFFFF" stroke-linecap="round"></path>
            <g id="编组-10" transform="translate(9.000000, 9.000000)" fill="#FFFFFF">
                <rect id="矩形" fill-rule="nonzero" x="-2.5313085e-14" y="6" width="6.68181818" height="1"></rect>
                <path d="M5.78454545,4.21798841 L5.145,4.21798841 C4.725,4.21798841 4.33363636,3.94117023 4.24295455,3.53071568 C4.17613636,3.22526114 4.26681818,2.93412477 4.45772727,2.73367023 L4.45295455,2.7288975 C4.80136364,2.3613975 4.98272727,1.82685205 4.85863636,1.26367023 C4.725,0.638442956 4.21431818,0.14207932 3.58431818,0.0275338655 C2.55818182,-0.158602498 1.66568182,0.624124775 1.66568182,1.61685205 C1.66568182,2.05117023 1.8375,2.44730659 2.11909091,2.73844296 L2.11431818,2.74321568 C2.25272727,2.90071568 2.34340909,3.10594296 2.34340909,3.33503387 C2.34340909,3.80753387 1.97590909,4.18935205 1.51295455,4.21798841 L1.51295455,4.22276114 L0.8925,4.22276114 C0.663409091,4.22276114 0.477272727,4.4088975 0.477272727,4.63798841 L0.477272727,5.31571568 L6.20454545,5.31571568 L6.20454545,4.64276114 C6.20454545,4.40412477 6.01840909,4.21798841 5.78454545,4.21798841 L5.78454545,4.21798841 Z" id="路径"></path>
            </g>
        </g>
    </g>
</svg>