<?xml version="1.0" encoding="UTF-8"?>
<svg width="55px" height="58px" viewBox="0 0 55 58" version="1.1" xmlns="http://www.w3.org/2000/svg" xmlns:xlink="http://www.w3.org/1999/xlink">
    <!-- Generator: Sketch 55.2 (78181) - https://sketchapp.com -->
    <title>编组 9</title>
    <desc>Created with Sketch.</desc>
    <defs>
        <linearGradient x1="-2.59566228%" y1="49.9902222%" x2="102.572166%" y2="49.9902222%" id="linearGradient-1">
            <stop stop-color="#1452CC" offset="0%"></stop>
            <stop stop-color="#29C7CC" offset="100%"></stop>
        </linearGradient>
    </defs>
    <g id="f" stroke="none" stroke-width="1" fill="none" fill-rule="evenodd">
        <g id="编组-9" transform="translate(1.000000, 1.000000)">
            <path d="M15.5004545,15.2304545 L7.04454545,15.2304545 C5.78045455,15.2304545 4.93363636,14.6168182 4.93363636,13.6963636 C4.93363636,12.7759091 5.78045455,12.1622727 7.04454545,12.1622727 L15.5004545,12.1622727 C16.7645455,12.1622727 17.6113636,12.7759091 17.6113636,13.6963636 C17.6113636,14.6168182 16.7768182,15.2304545 15.5004545,15.2304545 Z" id="路径" fill="#FFFFFF" fill-rule="nonzero"></path>
            <path d="M28.755,25.4168182 L6.46772727,25.4168182 C5.62090909,25.4168182 4.93363636,24.7295455 4.93363636,23.8827273 L4.93363636,23.8827273 C4.93363636,23.0359091 5.62090909,22.3486364 6.46772727,22.3486364 L28.755,22.3486364 C29.6018182,22.3486364 30.2890909,23.0359091 30.2890909,23.8827273 L30.2890909,23.8827273 C30.2890909,24.7295455 29.6018182,25.4168182 28.755,25.4168182 Z" id="路径" fill="#FFFFFF" fill-rule="nonzero"></path>
            <path d="M28.755,35.6031818 L6.46772727,35.6031818 C5.62090909,35.6031818 4.93363636,34.9159091 4.93363636,34.0690909 L4.93363636,34.0690909 C4.93363636,33.2222727 5.62090909,32.535 6.46772727,32.535 L28.755,32.535 C29.6018182,32.535 30.2890909,33.2222727 30.2890909,34.0690909 L30.2890909,34.0690909 C30.2890909,34.9036364 29.6018182,35.6031818 28.755,35.6031818 Z" id="路径" fill="#FFFFFF" fill-rule="nonzero"></path>
            <path d="M47.5322727,35.2595455 L47.5322727,6.13636364 C47.5322727,2.74909091 44.6972727,0 41.1995455,0 L6.33272727,0 C2.835,0 0,2.74909091 0,6.13636364 L0,49.0909091 C0,52.4781818 2.835,55.2272727 6.33272727,55.2272727 L33.0259091,55.2272727" id="路径" stroke="url(#linearGradient-1)" stroke-width="2" stroke-linecap="round"></path>
            <rect id="矩形" fill="#FFFFFF" fill-rule="nonzero" x="36.6218182" y="54.81" width="17.1818182" height="1"></rect>
            <path d="M51.4963636,50.2445455 L49.8518182,50.2445455 C48.7718182,50.2445455 47.7654545,49.5327273 47.5322727,48.4772727 C47.3604545,47.6918182 47.5936364,46.9431818 48.0845455,46.4277273 L48.0722727,46.4154545 C48.9681818,45.4704545 49.4345455,44.0959091 49.1154545,42.6477273 C48.7718182,41.04 47.4586364,39.7636364 45.8386364,39.4690909 C43.2,38.9904545 40.905,41.0031818 40.905,43.5559091 C40.905,44.6727273 41.3468182,45.6913636 42.0709091,46.44 L42.0586364,46.4522727 C42.4145455,46.8572727 42.6477273,47.385 42.6477273,47.9740909 C42.6477273,49.1890909 41.7027273,50.1709091 40.5122727,50.2445455 L40.5122727,50.2568182 L38.9168182,50.2568182 C38.3277273,50.2568182 37.8490909,50.7354545 37.8490909,51.3245455 L37.8490909,53.0672727 L52.5763636,53.0672727 L52.5763636,51.3368182 C52.5763636,50.7231818 52.0977273,50.2445455 51.4963636,50.2445455 L51.4963636,50.2445455 Z" id="路径" stroke="#FFFFFF"></path>
        </g>
    </g>
</svg>