<?xml version="1.0" encoding="UTF-8"?>
<svg width="20px" height="20px" viewBox="0 0 20 20" version="1.1" xmlns="http://www.w3.org/2000/svg" xmlns:xlink="http://www.w3.org/1999/xlink">
    <!-- Generator: Sketch 59.1 (86144) - https://sketch.com -->
    <title>个人信息小产品图标</title>
    <desc>Created with Sketch.</desc>
    <g id="页面-1" stroke="none" stroke-width="1" fill="none" fill-rule="evenodd">
        <g id="Apple-TV备份-3" transform="translate(-1443.000000, -90.000000)">
            <g id="个人信息小产品图标" transform="translate(1442.000000, 89.000000)">
                <rect id="矩形备份-15" x="0" y="0" width="22" height="22"></rect>
                <path d="M11,1 C16.5228475,1 21,5.4771525 21,11 C21,16.5228475 16.5228475,21 11,21 C5.4771525,21 1,16.5228475 1,11 C1,5.4771525 5.4771525,1 11,1 Z M15.4744589,16.7676768 L13.3249639,16.7676768 C13.1432599,16.7676768 12.9959596,16.9915344 12.9959596,17.2676768 C12.9959596,17.5438191 13.1432599,17.7676768 13.3249639,17.7676768 L15.4744589,17.7676768 C15.6561629,17.7676768 15.8034632,17.5438191 15.8034632,17.2676768 C15.8034632,16.9915344 15.6561629,16.7676768 15.4744589,16.7676768 Z M11,1.90909091 C5.97922955,1.90909091 1.90909091,5.97922955 1.90909091,11 C1.90909091,13.2614428 2.734824,15.3300253 4.10123321,16.9206906 C4.49793728,15.446163 5.81571641,14.3337207 7.38845845,14.2503344 L7.57835498,14.2453102 L14.3777778,14.2453102 C16.0479644,14.2453102 17.4669309,15.4072039 17.8641732,16.9604873 C19.2513593,15.3644811 20.0909091,13.2802842 20.0909091,11 C20.0909091,5.97922955 16.0207705,1.90909091 11,1.90909091 Z M10.9561328,5.25252525 C12.9912184,5.25252525 14.6409812,6.90228811 14.6409812,8.93737374 C14.6409812,10.9724594 12.9912184,12.6222222 10.9561328,12.6222222 C8.92104713,12.6222222 7.27128427,10.9724594 7.27128427,8.93737374 C7.27128427,6.90228811 8.92104713,5.25252525 10.9561328,5.25252525 Z" id="形状结合" fill="#FFFFFF"></path>
            </g>
        </g>
    </g>
</svg>