<?xml version="1.0" encoding="UTF-8"?>
<svg width="20px" height="22px" viewBox="0 0 20 22" version="1.1" xmlns="http://www.w3.org/2000/svg" xmlns:xlink="http://www.w3.org/1999/xlink">
    <!-- Generator: Sketch 59.1 (86144) - https://sketch.com -->
    <title>API密钥管理小产品图标备份</title>
    <desc>Created with Sketch.</desc>
    <g id="页面-1" stroke="none" stroke-width="1" fill="none" fill-rule="evenodd">
        <g id="Apple-TV备份-3" transform="translate(-1032.000000, -78.000000)">
            <g id="API密钥管理小产品图标备份" transform="translate(1042.000000, 89.000000) rotate(-180.000000) translate(-1042.000000, -89.000000) translate(1031.000000, 78.000000)">
                <rect id="矩形" x="0" y="0" width="22" height="22"></rect>
                <g id="编组-17" transform="translate(1.000000, 0.000000)" fill="#FFFFFF">
                    <path d="M7.59099368,5.89428769 C11.7833837,5.89428769 15.1819874,9.29289133 15.1819874,13.4852814 C15.1819874,17.6776714 11.7833837,21.0762751 7.59099368,21.0762751 C3.39860364,21.0762751 -4.97379915e-14,17.6776714 -4.97379915e-14,13.4852814 C-4.97379915e-14,9.29289133 3.39860364,5.89428769 7.59099368,5.89428769 Z M7.59,7.89627506 C4.50272825,7.89627506 2,10.3990033 2,13.4862751 C2,16.5735468 4.50272825,19.0762751 7.59,19.0762751 C10.6772718,19.0762751 13.18,16.5735468 13.18,13.4862751 C13.18,10.3990033 10.6772718,7.89627506 7.59,7.89627506 Z" id="形状结合" transform="translate(7.590994, 13.485281) rotate(-90.000000) translate(-7.590994, -13.485281) "></path>
                    <path d="M13.4978528,0 L17.4978528,0 L17.4978528,8 C17.4978528,9.1045695 16.6024223,10 15.4978528,10 C14.3932833,10 13.4978528,9.1045695 13.4978528,8 L13.4978528,0 L13.4978528,0 Z" id="矩形" fill-rule="nonzero" transform="translate(15.497853, 5.000000) rotate(-135.000000) translate(-15.497853, -5.000000) "></path>
                    <path d="M16.1191731,3.20710678 L19.1191731,3.20710678 L19.1191731,6.70710678 C19.1191731,7.53553391 18.4476002,8.20710678 17.6191731,8.20710678 C16.790746,8.20710678 16.1191731,7.53553391 16.1191731,6.70710678 L16.1191731,3.20710678 L16.1191731,3.20710678 Z" id="矩形" fill-rule="nonzero" transform="translate(17.619173, 5.707107) rotate(-405.000000) translate(-17.619173, -5.707107) "></path>
                </g>
            </g>
        </g>
    </g>
</svg>