<?xml version="1.0" encoding="UTF-8"?>
<svg width="48px" height="54px" viewBox="0 0 48 54" version="1.1" xmlns="http://www.w3.org/2000/svg" xmlns:xlink="http://www.w3.org/1999/xlink">
    <!-- Generator: Sketch 55.2 (78181) - https://sketchapp.com -->
    <title>编组 7</title>
    <desc>Created with Sketch.</desc>
    <defs>
        <linearGradient x1="0.0159228195%" y1="50.0303384%" x2="99.9899238%" y2="50.0303384%" id="linearGradient-1">
            <stop stop-color="#1452CC" offset="0%"></stop>
            <stop stop-color="#29C7CC" offset="100%"></stop>
        </linearGradient>
        <linearGradient x1="0.00222321032%" y1="50.0246734%" x2="100.0249%" y2="50.0246734%" id="linearGradient-2">
            <stop stop-color="#1452CC" offset="0%"></stop>
            <stop stop-color="#29C7CC" offset="100%"></stop>
        </linearGradient>
        <linearGradient x1="-0.00177776835%" y1="49.9982222%" x2="100.024359%" y2="49.9982222%" id="linearGradient-3">
            <stop stop-color="#1452CC" offset="0%"></stop>
            <stop stop-color="#29C7CC" offset="100%"></stop>
        </linearGradient>
    </defs>
    <g id="f" stroke="none" stroke-width="1" fill="none" fill-rule="evenodd">
        <g id="编组-7" fill-rule="nonzero">
            <g id="编组">
                <path d="M27.1253571,4.73464286 L22.0435714,4.73464286 L22.0435714,3.14357143 L27.135,3.14357143 L27.1253571,4.73464286 L27.1253571,4.73464286 Z M22.0917857,0.6075 L27.1253571,0.6075 L27.0771429,2.2275 L22.0917857,2.2275 L22.0917857,0.6075 Z M22.0917857,5.44821429 L27.1253571,5.44821429 L27.1253571,8.73642857 L31.0210714,8.73642857 L24.5314286,16.4217857 L18.0417857,8.73642857 L22.0917857,8.73642857 L22.0917857,5.44821429 Z" id="形状" fill="#FFFFFF"></path>
                <g transform="translate(0.000000, 11.607143)" id="路径">
                    <path d="M45.7168754,5.32285714 C45.7264286,4.66714286 44.955,4.34892857 44.955,4.34892857 L44.955,4.34892857 L36.7778571,0.675 C34.2803571,4.83107143 29.7385714,7.6275 24.5314286,7.6275 C19.2471429,7.6275 14.6378571,4.74428571 12.1692857,0.482142857 L3.55821429,4.34892857 C3.55821429,4.34892857 2.71928571,4.69607143 2.71928571,5.34214286 C2.71928571,6.02678571 3.58714286,6.53785714 3.58714286,6.53785714 L22.9403571,16.74 C23.3357143,16.9135714 23.7889286,17.01 24.2517857,17.01 C24.7339286,17.01 25.1775,16.9039286 25.5728571,16.7303571 L44.9164286,6.51857143 C44.9357143,6.51857143 45.7168754,6.10392857 45.7168754,5.32285714 Z" fill="url(#linearGradient-1)"></path>
                    <path d="M21.2817857,19.2375 L21.2817857,19.2375 L2.73857143,9.61392857 C2.565,9.54642857 2.39142857,9.50785714 2.20821429,9.50785714 C1.47535714,9.50785714 0.887142857,10.0382143 0.887142857,10.7035714 L0.887142857,29.8928571 C0.887142857,30.8667857 1.43678571,31.7635714 2.31428571,32.1975 L2.33357143,32.2071429 L20.5682143,41.8789286 C20.7803571,41.9946429 21.0117857,42.0621429 21.2528571,42.0525 C21.9857143,42.0525 22.5739286,41.5125 22.5739286,40.8567857 L22.5739286,21.4746429 C22.5739286,20.5585714 22.0821429,19.71 21.2817857,19.2375 Z" fill="url(#linearGradient-2)"></path>
                    <path d="M46.305,9.52714286 C46.1217857,9.52714286 45.9385714,9.55607143 45.7746429,9.63321429 L27.2410714,19.2375 L27.2314286,19.2375 C26.4310714,19.7003571 25.9392857,20.5489286 25.9296429,21.4746429 L25.9296429,40.8760714 C25.9296429,41.5414286 26.5178571,42.0717857 27.2507143,42.0717857 C27.4725,42.0717857 27.6846429,42.0235714 27.8871429,41.9271429 C27.9064286,41.9175 27.9257143,41.9078571 27.9353571,41.8982143 L46.17,32.2264286 L46.1989286,32.2167857 C47.0475,31.9275 47.6261865,31.1367857 47.6261865,30.2303571 L47.6261865,10.7228571 C47.6357143,10.0575 47.0378571,9.52714286 46.305,9.52714286 Z" fill="url(#linearGradient-3)"></path>
                </g>
            </g>
        </g>
    </g>
</svg>