<?xml version="1.0" encoding="UTF-8"?>
<svg width="16px" height="16px" viewBox="0 0 16 16" version="1.1" xmlns="http://www.w3.org/2000/svg" xmlns:xlink="http://www.w3.org/1999/xlink">
    <!-- Generator: Sketch 59 (86127) - https://sketch.com -->
    <title>编组 3备份</title>
    <desc>Created with Sketch.</desc>
    <g id="f" stroke="none" stroke-width="1" fill="none" fill-rule="evenodd">
        <g id="编组-3备份" fill="#FFFFFF" fill-rule="nonzero">
            <g id="编组" transform="translate(10.285714, 9.142857)">
                <path d="M2.84304311,2.04976588 C3.16989929,2.04976588 3.43486979,2.31473466 3.43486979,2.64159084 C3.43486979,2.96844701 3.16990273,3.23341923 2.84304655,3.23341923 C2.51619038,3.23341923 2.25121644,2.96845389 2.25121644,2.64159772 C2.25175331,2.31496351 2.5164089,2.05030791 2.84304311,2.04976588 L2.84304311,2.04976588 Z M2.84304311,1.57578854 C2.41222812,1.57578854 2.02383404,1.83531071 1.85896877,2.23333207 C1.69410349,2.63135342 1.78523448,3.08949549 2.08986742,3.39412696 C2.39450036,3.69875842 2.85264287,3.78988719 3.25066342,3.62501999 C3.64868398,3.46015278 3.90819703,3.07175745 3.90819703,2.64094245 C3.90828323,2.35841965 3.79608969,2.08744348 3.59631589,1.88766968 C3.39654209,1.68789588 3.12556592,1.57570233 2.84304311,1.57578854 L2.84304311,1.57578854 Z M2.00182422,0.473743912 C2.02388841,0.474391843 2.04464548,0.484356065 2.05895081,0.501166943 C2.22769557,0.763887829 2.53272317,0.905853162 2.84238785,0.865792644 C3.15205428,0.90585526 3.45708444,0.763889665 3.62583005,0.501166943 C3.64093785,0.484525332 3.66244213,0.475140212 3.68491726,0.475379491 L4.29632445,0.824660678 C4.30735056,0.847053227 4.30888142,0.872945865 4.30057076,0.896481673 C4.15962282,1.17309602 4.19022962,1.50609729 4.37923848,1.75238465 C4.49774436,2.03405069 4.76367823,2.22591039 5.06834339,2.24954382 L5.08792906,2.24954382 C5.13324661,2.25738021 5.17233828,2.28585559 5.19369476,2.32658629 C5.20668087,2.43117012 5.21213481,2.53655195 5.21001443,2.64191761 C5.21205596,2.74728372 5.20660232,2.85266164 5.19369476,2.95725409 C5.17137184,2.99851879 5.13079161,3.0267421 5.08433801,3.03331108 L5.06801834,3.03331108 C4.76399815,3.05684609 4.49864478,3.24836462 4.38054385,3.52949509 C4.19116767,3.77626171 4.16055803,4.10993025 4.30187613,4.38703365 C4.31018533,4.41056792 4.30865449,4.43645839 4.29762981,4.45884949 L3.6836119,4.80813583 C3.66097346,4.8079536 3.63953055,4.79794666 3.62484973,4.7807128 C3.45621485,4.51786609 3.15110289,4.37586149 2.84141269,4.4160871 C2.53170809,4.37577735 2.2265516,4.51780174 2.05797049,4.7807128 C2.04281655,4.79767151 2.02096809,4.80710307 1.99823317,4.80650025 L1.38682599,4.45721907 C1.37579988,4.43482652 1.37426902,4.40893388 1.38257968,4.38539807 C1.52549527,4.10837025 1.49614331,3.77381415 1.30717279,3.52590404 C1.18891374,3.24447846 0.92310469,3.05290278 0.618723147,3.02972003 L0.598482215,3.02972003 C0.553310114,3.02233378 0.513865112,2.9949999 0.491086093,2.95529862 C0.478099983,2.85071478 0.472646047,2.74533295 0.474766423,2.6399673 C0.4726458,2.53459992 0.478099736,2.42921636 0.491086093,2.32463082 C0.513337007,2.28313169 0.55387515,2.25457425 0.600442846,2.24759351 L0.616762516,2.24759351 C0.921682893,2.22460967 1.18816923,2.03309328 1.30717279,1.75141466 C1.49693105,1.5047237 1.52719787,1.17064897 1.38486536,0.893870939 C1.3765662,0.870666095 1.37809806,0.845079176 1.38910651,0.823030258 L2.00182422,0.473743912 L2.00182422,0.473743912 Z M2.00018864,0.000388532261 C1.93742871,-0.000242120289 1.87509748,0.0108294591 1.81640532,0.0330663817 L1.09825212,0.444695622 C0.895834899,0.620137408 0.847630982,0.915130534 0.983673899,1.14587905 C0.983673899,1.14587905 1.0489629,1.25098949 0.897499024,1.51572622 C0.748970935,1.77035022 0.626880402,1.77459138 0.618067883,1.77459138 L0.599132319,1.77459138 C0.332843053,1.78214853 0.102244703,1.96160422 0.0295123672,2.21787964 C0.00562782538,2.35755787 -0.00378142451,2.4993277 0.00143407283,2.64093729 C-0.00387190686,2.78298322 0.00553765245,2.9251969 0.0295123672,3.06530547 C0.102470332,3.32050314 0.332200839,3.49913767 0.597507059,3.50696848 L0.617092727,3.50696848 C0.625580194,3.50696848 0.747665567,3.51121479 0.895538393,3.76811416 C1.04765753,4.03220078 0.982698743,4.13698617 0.982698743,4.13698617 C0.846254479,4.36810946 0.894771533,4.66375653 1.09792707,4.83914991 L1.81608543,5.25077915 C1.87477759,5.27301608 1.93710882,5.28408766 1.99986875,5.28345184 C2.19810554,5.28434425 2.38112003,5.17726021 2.4774371,5.00399251 C2.4774371,5.00399251 2.53651915,4.89203019 2.8420628,4.89203019 C3.14760644,4.89203019 3.2066885,5.00399251 3.2066885,5.00399251 C3.30332889,5.17726341 3.4865202,5.28430288 3.68491726,5.28345184 C3.7476772,5.28408766 3.81000843,5.27301608 3.86870059,5.25077915 L4.58685379,4.83980002 C4.78939866,4.66406504 4.83783857,4.36888807 4.70208211,4.13763628 C4.70208211,4.13763628 4.63679827,4.03252584 4.78924246,3.76876942 C4.93711529,3.51349531 5.05920066,3.50762374 5.06670781,3.50762374 L5.08564338,3.50762374 C5.35091419,3.49968984 5.58059181,3.32109435 5.65363807,3.06595558 C5.6776107,2.92584852 5.68701853,2.78363659 5.68171121,2.64159256 C5.68701853,2.49954852 5.6776107,2.35733659 5.65363807,2.21722954 C5.58095482,1.96184562 5.35106234,1.78308305 5.08564338,1.77556137 L5.06670781,1.77556137 C5.05822035,1.77556137 4.93613497,1.77132022 4.78924246,1.51441569 C4.63712333,1.25032906 4.70306243,1.14554884 4.70306243,1.14554884 C4.83895158,0.914649866 4.79047028,0.619633136 4.5878341,0.44436541 L3.86902564,0.0330612221 C3.81033348,0.0108242996 3.74800225,-0.000247279843 3.68524232,0.000388532261 C3.48690632,-0.000231662565 3.30392563,0.107081684 3.20767397,0.280497967 C3.20767397,0.280497967 3.14890665,0.392135242 2.84304311,0.392135242 C2.53717958,0.392135242 2.47841741,0.280172915 2.47841741,0.280172915 C2.38160456,0.107028068 2.19856115,-5.13797836e-05 2.00018864,0.000388532261 L2.00018864,0.000388532261 Z" id="形状"></path>
            </g>
            <path d="M8.33371971,0.122194286 L8.48571429,0.190928571 L14.5645714,3.31521429 C15.0134026,3.54664286 15.3092231,3.96295927 15.3477076,4.42506295 L15.3514286,4.56492857 L15.3519891,8.79547444 C15.0366284,8.68209954 14.7029068,8.6072184 14.3564915,8.57649802 L14.3562857,4.55721429 C14.3562857,4.39190816 14.2712711,4.23793732 14.1303898,4.13902353 L14.0554286,4.09435714 L7.97657143,0.970071429 C7.89171429,0.923785714 7.79142857,0.900642857 7.68342857,0.900642857 C7.61142857,0.900642857 7.54285714,0.910928571 7.47771429,0.9315 L7.38257143,0.970071429 L1.31142857,4.09435714 C1.15714286,4.17792857 1.05107143,4.30971429 1.02,4.46292857 L1.01057143,4.55721429 L1.01057143,10.8057857 C1.01057143,10.9710918 1.09558601,11.1250627 1.23646731,11.2239765 L1.31142857,11.2686429 L7.38257143,14.3929286 C7.53042857,14.4700714 7.72114286,14.4829286 7.88328571,14.4315 L7.97657143,14.3929286 L10.069463,13.3144421 C10.1294364,13.6289586 10.2262383,13.9304135 10.3552105,14.2141484 L8.478,15.1797857 C8.23885714,15.3032143 7.96114286,15.3726429 7.67571429,15.3726429 C7.45354286,15.3726429 7.23137143,15.3282086 7.02499886,15.2472394 L6.87342857,15.1797857 L0.802285714,12.0555 C0.353454545,11.8240714 0.0576340024,11.4141305 0.00755779757,10.953186 L-1.687539e-14,10.8135 L-1.687539e-14,4.56492857 C-1.687539e-14,4.09505844 0.25501771,3.65706553 0.672319416,3.39005039 L0.802285714,3.31521429 L6.87342857,0.190928571 C7.31082857,-0.0381857143 7.86695143,-0.0610971429 8.33371971,0.122194286 Z M2.51749206,4.56970106 L2.59971429,4.6035 L7.33628571,6.9795 C7.38257143,7.00264286 7.42114286,7.02578571 7.45971429,7.04892857 C7.59857143,7.10292857 7.76057143,7.10292857 7.89942857,7.05664286 L7.96885714,7.01517857 L7.96885714,7.01517857 L8.03828571,6.9795 L12.9291429,4.6035 C13.176,4.48007143 13.4845714,4.56492857 13.6157143,4.79635714 C13.7391429,4.99521429 13.6797143,5.23064286 13.4916085,5.36719312 L13.4151429,5.4135 L8.46257143,7.83578571 C8.44714286,7.8435 8.424,7.85121429 8.40857143,7.85892857 C8.30982857,7.93915714 8.24070857,8.04407143 8.21701029,8.16182229 L8.208,8.25235714 L8.19257143,12.8037857 L8.19257143,13.1123571 C8.19257143,13.2280714 8.14628571,13.3283571 8.07685714,13.4055 C8.0028,13.4919 7.89418286,13.5486771 7.774704,13.567932 L7.68342857,13.5752143 L7.62942857,13.5752143 C7.49365714,13.5628714 7.37269714,13.5011571 7.29024686,13.4137697 L7.236,13.3437857 C7.22828571,13.3206429 7.22828571,13.3129286 7.22057143,13.3052143 L7.21285714,13.2897857 L7.21285714,13.2897857 C7.21285714,13.2820714 7.20514286,13.2743571 7.20514286,13.2666429 C7.20514286,13.2666429 7.19742857,13.2589286 7.19742857,13.2512143 C7.18971429,13.2435 7.18971429,13.2357857 7.18971429,13.2280714 L7.182,13.2049286 L7.182,13.1817857 L7.17525,13.1702143 L7.17525,13.1702143 L7.17428571,13.1586429 L7.17428571,13.1123571 L7.15114286,8.24464286 C7.15114286,8.08264286 7.06628571,7.92835714 6.92742857,7.82807143 L6.912,7.82035714 L6.912,7.82035714 L6.89657143,7.81264286 L2.59971429,5.63721429 L2.106,5.39035714 C2.05971429,5.36721429 2.01342857,5.33635714 1.98257143,5.3055 C1.82828571,5.16664286 1.78971429,4.95064286 1.90542857,4.77321429 C2.02885714,4.58121429 2.29247619,4.49892857 2.51749206,4.56970106 Z" id="形状结合"></path>
        </g>
    </g>
</svg>