<?xml version="1.0" encoding="UTF-8"?>
<svg width="20px" height="20px" viewBox="0 0 20 20" version="1.1" xmlns="http://www.w3.org/2000/svg" xmlns:xlink="http://www.w3.org/1999/xlink">
    <!-- Generator: Sketch 59.1 (86144) - https://sketch.com -->
    <title>编组 22备份</title>
    <desc>Created with Sketch.</desc>
    <defs>
        <linearGradient x1="0%" y1="50%" x2="100%" y2="50%" id="linearGradient-1">
            <stop stop-color="#1452CC" offset="0%"></stop>
            <stop stop-color="#28C6CC" offset="100%"></stop>
        </linearGradient>
    </defs>
    <g id="页面-1" stroke="none" stroke-width="1" fill="none" fill-rule="evenodd">
        <g id="Apple-TV备份-3" transform="translate(-1349.000000, -648.000000)">
            <g id="编组-22备份" transform="translate(1348.000000, 647.000000)">
                <path d="M18.4767442,8.44186047 C18.7222041,8.44186047 18.9263526,8.6063955 18.9686885,8.8233715 L18.9767442,8.90697674 L18.976,9.837 L19.5697674,9.8372093 C19.8459098,9.8372093 20.0697674,10.0610669 20.0697674,10.3372093 L20.0697674,11.6627907 C20.0697674,11.9389331 19.8459098,12.1627907 19.5697674,12.1627907 L18.976,12.162 L18.9768654,15.2420782 C20.1328565,15.4880513 21,16.5148525 21,17.744186 C21,19.1570075 19.8546819,20.3023256 18.4418605,20.3023256 C17.029039,20.3023256 15.8837209,19.1570075 15.8837209,17.744186 C15.8837209,16.4904378 16.7856497,15.4473463 17.9760672,15.2283515 L17.9767442,8.90697674 C17.9767442,8.65010012 18.2006018,8.44186047 18.4767442,8.44186047 Z M13.8604651,12.124031 C14.9897354,12.124031 16.0261619,12.5534331 16.814099,13.2565914 L16.8129812,14.6234889 C15.4686023,15.0240553 14.4883721,16.2696482 14.4883721,17.744186 C14.4883721,18.7299639 14.9264732,19.6134178 15.618595,20.2104674 L2.08527132,20.2093023 C1.52816537,20.2093023 1.06559862,19.783876 1.00639908,19.2418513 L1,19.124031 L1,16.5736434 C1,14.2015504 2.89466224,12.2391141 5.2414099,12.1289112 L5.4496124,12.124031 L13.8604651,12.124031 Z M18.4418605,16.1162791 C17.5427923,16.1162791 16.8139535,16.8451178 16.8139535,17.744186 C16.8139535,18.6432542 17.5427923,19.372093 18.4418605,19.372093 C19.3409287,19.372093 20.0697674,18.6432542 20.0697674,17.744186 C20.0697674,16.8451178 19.3409287,16.1162791 18.4418605,16.1162791 Z M10.0930233,1 C12.6104142,1 14.6511628,3.04074858 14.6511628,5.55813953 C14.6511628,8.07553049 12.6104142,10.1162791 10.0930233,10.1162791 C7.5756323,10.1162791 5.53488372,8.07553049 5.53488372,5.55813953 C5.53488372,3.04074858 7.5756323,1 10.0930233,1 Z" id="形状结合" fill="#FFFFFF"></path>
                <rect id="矩形" x="0" y="0" width="22" height="22"></rect>
            </g>
        </g>
    </g>
</svg>