<?xml version="1.0" encoding="UTF-8"?>
<svg width="20px" height="15px" viewBox="0 0 20 15" version="1.1" xmlns="http://www.w3.org/2000/svg" xmlns:xlink="http://www.w3.org/1999/xlink">
    <!-- Generator: Sketch 59 (86127) - https://sketch.com -->
    <title>编组 4</title>
    <desc>Created with Sketch.</desc>
    <g id="f" stroke="none" stroke-width="1" fill="none" fill-rule="evenodd">
        <g id="编组-4" transform="translate(1.000000, 1.000000)">
            <path d="M9.37032225,4.24475727 L9.37032225,7.95891989 L18.3076923,7.95891989 L18.3076923,4.24475727 L9.37032225,4.24475727 Z M17.7491067,7.45244317 L9.92890787,7.45244317 L9.92890787,4.80750918 L17.7491067,4.80750918 L17.7491067,7.45244317 L17.7491067,7.45244317 Z" id="形状" fill="#FFFFFF" fill-rule="nonzero"></path>
            <path d="M10.6550692,6.65655118 L11.2136548,6.65655118 L11.2136548,5.30594659 L10.6550692,5.30594659 L10.6550692,6.65655118 Z M11.9398161,6.65655118 L12.4984018,6.65655118 L12.4984018,5.30594659 L11.9398161,5.30594659 L11.9398161,6.65655118 Z M15.7381984,6.65655118 L16.6319354,6.65655118 L16.6319354,5.30594659 L15.7381984,5.30594659 L15.7381984,6.65655118 Z M9.37032225,8.96383401 L9.37032225,12.7342718 L18.3076923,12.7342718 L18.3076923,8.96383401 L9.37032225,8.96383401 Z M17.7491067,12.1152447 L9.92890787,12.1152447 L9.92890787,9.47031073 L17.7491067,9.47031073 L17.7491067,12.1152447 L17.7491067,12.1152447 Z" id="形状" fill="#FFFFFF" fill-rule="nonzero"></path>
            <path d="M10.4217775,11.6730825 L10.9622452,11.6730825 L10.9622452,10.0812985 L10.4217775,10.0812985 L10.4217775,11.6730825 Z M11.6648532,11.6730825 L12.2053209,11.6730825 L12.2053209,10.0812985 L11.6648532,10.0812985 L11.6648532,11.6730825 Z M15.3400334,11.6730825 L16.2047817,11.6730825 L16.2047817,10.0812985 L15.3400334,10.0812985 L15.3400334,11.6730825 Z" id="形状" fill="#FFFFFF" fill-rule="nonzero"></path>
            <path d="M5.37612683,6.46314971 L4.71135377,5.79222241 C4.60882254,5.68874197 4.60882254,5.52197149 4.71135377,5.41849105 C4.81267221,5.31623464 4.97770223,5.31547426 5.07995864,5.4167927 C5.08052736,5.4173562 5.08109349,5.41792233 5.08165699,5.41849105 L6.37377885,6.72257493 L6.37377885,6.72257493 L5.08165699,8.02665883 C4.98033855,8.12891524 4.81530853,8.12967561 4.71305212,8.02835717 C4.7124834,8.02779367 4.71191728,8.02722755 4.71135377,8.02665883 C4.6088053,7.923161 4.60875691,7.75637737 4.7112453,7.65282005 L5.37415714,6.98299413 L5.37415714,6.98299413 L3.49498737,6.98299413 C3.35143629,6.98299413 3.23506516,6.86662299 3.23506516,6.72307192 C3.23506516,6.57952085 3.35143629,6.46314971 3.49498737,6.46314971 L5.37612683,6.46314971 L5.37612683,6.46314971 Z M2.14089794,4.34699529 L4.02004036,4.34699529 C4.16523829,4.34699529 4.28294447,4.46470147 4.28294447,4.6098994 C4.28294447,4.75509733 4.16523829,4.87280351 4.02004036,4.87280351 L2.14286763,4.87280351 L2.14286763,4.87280351 L2.80665584,5.54273685 C2.90918708,5.64621728 2.90918708,5.81298777 2.80665584,5.9164682 C2.70533741,6.01872461 2.54030739,6.01948499 2.43805098,5.91816655 C2.43748226,5.91760305 2.43691613,5.91703693 2.43635263,5.9164682 L1.14423077,4.61238432 L1.14423077,4.61238432 L2.44096621,3.3079921 C2.54262366,3.20573441 2.70792954,3.20524781 2.81018724,3.30690525 C2.81065327,3.30736856 2.81111756,3.30783362 2.81158009,3.30830043 C2.91390419,3.41157181 2.913325,3.57818253 2.81028539,3.68074001 L2.14089794,4.34699529 L2.14089794,4.34699529 Z" id="形状" fill="#FFFFFF" fill-rule="nonzero"></path>
            <polygon id="直线-7" fill="#FFFFFF" fill-rule="nonzero" points="4.99848178 10.5991903 4.99848178 13.6032392 6.14271255 13.6032392 6.14271255 10.5991903"></polygon>
            <path d="M2.16628297,13.7165992 L8.85446602,13.7165992 C8.98654904,13.7165992 9.09362348,13.4755217 9.09362348,13.1781377 C9.09362348,12.8807536 8.98654904,12.6396761 8.85446602,12.6396761 L2.16628297,12.6396761 C2.03419995,12.6396761 1.92712551,12.8807536 1.92712551,13.1781377 C1.92712551,13.4755217 2.03419995,13.7165992 2.16628297,13.7165992 Z" id="直线-8" fill="#FFFFFF" fill-rule="nonzero"></path>
            <path d="M14.0827872,2.88190683 L14.0827872,2 C14.0827872,0.8954305 13.1873567,-2.02906125e-16 12.0827872,0 L2,0 C0.8954305,2.02906125e-16 -1.3527075e-16,0.8954305 0,2 L0,8.76923077 C1.3527075e-16,9.87380027 0.8954305,10.7692308 2,10.7692308 L7.45868946,10.7692308 L7.45868946,10.7692308" id="路径-2" stroke="#FFFFFF" stroke-linecap="round"></path>
        </g>
    </g>
</svg>