<?xml version="1.0" encoding="UTF-8"?>
<svg width="15px" height="15px" viewBox="0 0 15 15" version="1.1" xmlns="http://www.w3.org/2000/svg" xmlns:xlink="http://www.w3.org/1999/xlink">
    <!-- Generator: Sketch 59 (86127) - https://sketch.com -->
    <title>编组备份 3</title>
    <desc>Created with Sketch.</desc>
    <g id="f" stroke="none" stroke-width="1" fill="none" fill-rule="evenodd">
        <g id="编组备份-3" fill="#FFFFFF" fill-rule="nonzero">
            <path d="M14.982825,6.39105773 C14.982825,6.5035575 15.0213964,6.61605725 14.982825,6.69105709 C15.0123502,6.93372323 14.8943253,7.17061603 14.6828257,7.29319866 L11.9335459,8.87248099 C11.7486449,8.98515508 11.5163053,8.98515508 11.3314043,8.87248099 L11.0678334,8.72248131 C10.8758247,8.61682366 10.7565415,8.41503481 10.7565415,8.1958753 C10.7565415,7.97671578 10.8758247,7.77492693 11.0678334,7.66926929 L14.0421128,5.93998727 C14.4556833,5.71498775 14.9078252,5.93998727 14.982825,6.3899863 L14.982825,6.39105773 Z M13.7399706,9.17248034 C14.2306838,8.9099809 14.8328254,9.39747986 14.6442543,9.92462159 C14.5692545,10.1131926 14.4556833,10.3381921 14.3806835,10.5267632 C14.3806835,10.5642631 14.3431835,10.5642631 14.3431835,10.601763 L14.3056836,10.5642631 L13.741042,10.2256924 C13.5490332,10.1200347 13.4297501,9.91824588 13.4297501,9.69908636 C13.4297501,9.47992684 13.5490332,9.27813799 13.741042,9.17248034 L13.7399706,9.17248034 Z M8.58426732,7.29319866 C8.40291572,7.17858588 8.29015112,6.9815488 8.2831776,6.76712836 L8.2831776,6.57855734 C8.28148005,6.36205483 8.39653816,6.16141968 8.58426732,6.05355845 L13.1399718,3.42106409 C13.4320215,3.26451582 13.795493,3.36325971 13.9681844,3.64606361 C14.0056843,3.72106345 14.0806841,3.83463463 14.118184,3.90963448 C14.306755,4.20963384 14.1931839,4.58677589 13.8931845,4.73677557 L9.29783722,7.3681985 C9.11293624,7.48087259 8.88059664,7.48087259 8.69569566,7.3681985 L8.58212446,7.29319866 L8.58426732,7.29319866 Z M9.22390881,4.32320502 C9.03387968,4.44355841 8.79319031,4.45014012 8.59686789,4.34035161 C8.40054548,4.23056311 8.28014287,4.02204955 8.28319654,3.79713472 L8.28319654,3.49713536 C8.28070224,3.27986927 8.39586526,3.07823153 8.58426732,2.96999364 L11.2949758,1.3907113 C11.5199753,1.27821154 11.7846176,1.27821154 11.9721172,1.42821123 C12.047117,1.46571116 12.1606882,1.54178241 12.2356881,1.61678225 C12.3948186,1.74365738 12.4810217,1.94093512 12.466019,2.14390001 C12.4510163,2.3468649 12.336744,2.52932398 12.1606882,2.63142293 L9.22498024,4.32427645 L9.22390881,4.32320502 Z M9.22390881,1.27821155 C8.81033827,1.50321107 8.28319654,1.20321171 8.28319654,0.75214125 L8.28319654,0 L8.39569629,0 L9.07390913,0.112499766 C9.63855078,0.226070947 9.75105054,0.977140767 9.22390881,1.27821155 L9.22390881,1.27821155 Z M1.46892542,11.9174745 L7.52891244,8.42141052 L13.5899709,11.9174745 C12.1832709,13.8603385 9.92755126,15.0075376 7.52891244,15.0000051 C5.13027362,15.0075376 2.87455402,13.8603385 1.467854,11.9174745 L1.46892542,11.9174745 Z M6.77677119,0 L6.77677119,7.10569906 L0.677141411,10.601763 C0.236491338,9.61993233 0.00584936539,8.55686261 0,7.48069825 C-0.000560287327,3.61559123 2.93040667,0.380174423 6.77677119,0 Z" id="形状"></path>
        </g>
    </g>
</svg>