<?xml version="1.0" encoding="UTF-8"?>
<svg width="18px" height="20px" viewBox="0 0 18 20" version="1.1" xmlns="http://www.w3.org/2000/svg" xmlns:xlink="http://www.w3.org/1999/xlink">
    <!-- Generator: Sketch 59.1 (86144) - https://sketch.com -->
    <title>帮助小产品图标</title>
    <desc>Created with Sketch.</desc>
    <g id="页面-1" stroke="none" stroke-width="1" fill="none" fill-rule="evenodd">
        <g id="Apple-TV备份-3" transform="translate(-931.000000, -90.000000)">
            <g id="帮助小产品图标" transform="translate(929.000000, 89.000000)">
                <rect id="矩形" x="0" y="0" width="22" height="22"></rect>
                <path d="M17.7173913,1 C18.4377627,1 19.0217391,1.58397641 19.0217391,2.30434783 L19.0217391,2.30434783 L19.0217391,10.5652174 C19.0217391,10.8053412 18.8270803,11 18.5869565,11 C18.3468327,11 18.1521739,10.8053412 18.1521739,10.5652174 L18.1521739,10.5652174 L18.1521739,2.30434783 C18.1521739,2.06422402 17.9575151,1.86956522 17.7173913,1.86956522 L17.7173913,1.86956522 L3.80434783,1.86956522 C3.56422402,1.86956522 3.36956522,2.06422402 3.36956522,2.30434783 L3.36956522,2.30434783 L3.36956522,19.6956522 C3.36956522,19.935776 3.56422402,20.1304348 3.80434783,20.1304348 L3.80434783,20.1304348 L11.6304348,20.1304348 C11.8705586,20.1304348 12.0652174,20.3250936 12.0652174,20.5652174 C12.0652174,20.8053412 11.8705586,21 11.6304348,21 L11.6304348,21 L3.80434783,21 C3.08397641,21 2.5,20.4160236 2.5,19.6956522 L2.5,19.6956522 L2.5,2.30434783 C2.5,1.58397641 3.08397641,1 3.80434783,1 L3.80434783,1 Z M10.9421494,8.05257836 C11.1934417,8.05257836 11.3971544,8.27643599 11.3971544,8.55257836 C11.3971544,8.82872074 11.1934417,9.05257836 10.9421494,9.05257836 L10.9421494,9.05257836 L6.71710241,9.05257836 C6.46581006,9.05257836 6.26209736,8.82872074 6.26209736,8.55257836 C6.26209736,8.27643599 6.46581006,8.05257836 6.71710241,8.05257836 L6.71710241,8.05257836 Z M15.0453199,4.86754297 C15.2966123,4.86754297 15.500325,5.0914006 15.500325,5.36754297 C15.500325,5.64368535 15.2966123,5.86754297 15.0453199,5.86754297 L15.0453199,5.86754297 L6.70897732,5.86754297 C6.45768497,5.86754297 6.25397227,5.64368535 6.25397227,5.36754297 C6.25397227,5.0914006 6.45768497,4.86754297 6.70897732,4.86754297 L6.70897732,4.86754297 Z" id="形状结合" fill="#FFFFFF" fill-rule="nonzero"></path>
                <circle id="椭圆形" fill="#FFFFFF" cx="16.1097068" cy="18.7451972" r="1"></circle>
                <path d="M14.7463353,14.430354 C14.7183953,13.674143 15.0412521,12.8301314 16.1302007,12.8301314 C17.2191494,12.8301314 17.5871771,13.7437848 17.4458561,14.5335616 C17.3045352,15.3233383 16.6140164,15.6548641 16.3443682,15.9697004 C16.0747199,16.2845367 16.0198237,16.63484 16.039341,16.9251769" id="路径" stroke="#FFFFFF" stroke-linecap="round"></path>
            </g>
        </g>
    </g>
</svg>