<?xml version="1.0" encoding="UTF-8"?>
<svg width="17px" height="17px" viewBox="0 0 17 17" version="1.1" xmlns="http://www.w3.org/2000/svg" xmlns:xlink="http://www.w3.org/1999/xlink">
    <!-- Generator: Sketch 55.2 (78181) - https://sketchapp.com -->
    <title>编组 6备份</title>
    <desc>Created with Sketch.</desc>
    <g id="f" stroke="none" stroke-width="1" fill="none" fill-rule="evenodd">
        <g id="编组-6备份" transform="translate(1.000000, 0.000000)">
            <path d="M8.29705882,1.25882353 L6.74705882,1.25882353 L6.74705882,0.773529412 L8.3,0.773529412 L8.29705882,1.25882353 L8.29705882,1.25882353 Z M6.76176471,-7.10542736e-15 L8.29705882,-7.10542736e-15 L8.28235294,0.494117647 L6.76176471,0.494117647 L6.76176471,-7.10542736e-15 Z M6.76176471,1.47647059 L8.29705882,1.47647059 L8.29705882,2.47941176 L9.48529412,2.47941176 L7.50588235,4.82352941 L5.52647059,2.47941176 L6.76176471,2.47941176 L6.76176471,1.47647059 Z" id="形状" fill="#FFFFFF" fill-rule="nonzero"></path>
            <path d="M3.73529412,3.2 L1.10882353,4.37941176 C1.10882353,4.37941176 0.852941176,4.48529412 0.852941176,4.68235294 C0.852941176,4.89117647 1.11764706,5.04705882 1.11764706,5.04705882 L7.02058824,8.15882353 C7.14117647,8.21176471 7.27941176,8.24117647 7.42058824,8.24117647 C7.56764706,8.24117647 7.70294118,8.20882353 7.82352941,8.15588235 L13.7235294,5.04117647 C13.7235294,5.04117647 13.9617921,4.91470588 13.9617921,4.67647059 C13.9647059,4.47647059 13.7294118,4.37941176 13.7294118,4.37941176 L13.7294118,4.37941176 L11.2352941,3.25882353" id="路径" stroke="#FFFFFF" stroke-linecap="round"></path>
            <path d="M6.22058824,9.21470588 L6.22058824,9.21470588 L0.564705882,6.27941176 C0.511764706,6.25882353 0.458823529,6.24705882 0.402941176,6.24705882 C0.179411765,6.24705882 1.13686838e-13,6.40882353 1.13686838e-13,6.61176471 L1.13686838e-13,12.4617647 C1.13686838e-13,12.7588235 0.167647059,13.0323529 0.435294118,13.1647059 L0.441176471,13.1676471 L6.00294118,16.1176471 C6.06764706,16.1529412 6.13823529,16.1735294 6.21176471,16.1705882 C6.43529412,16.1705882 6.61470588,16.0058824 6.61470588,15.8058824 L6.61470588,9.89411765 C6.61176471,9.61470588 6.46176471,9.35588235 6.22058824,9.21470588 Z" id="路径" stroke="#FFFFFF"></path>
            <path d="M14.4411765,6.25 C14.3852941,6.25 14.3294118,6.25882353 14.2794118,6.28235294 L8.62647059,9.21176471 L8.62352941,9.21176471 C8.37941176,9.35294118 8.22941176,9.61176471 8.22647059,9.89411765 L8.22647059,15.8117647 C8.22647059,16.0147059 8.40588235,16.1764706 8.62941176,16.1764706 C8.69705882,16.1764706 8.76176471,16.1617647 8.82352941,16.1323529 C8.82941176,16.1294118 8.83529412,16.1264706 8.83823529,16.1235294 L14.4,13.1735294 L14.4088235,13.1705882 C14.6676471,13.0823529 14.8441176,12.8411765 14.8441176,12.5647059 L14.8441176,6.61764706 C14.8441176,6.41470588 14.6617647,6.25 14.4411765,6.25 Z" id="路径" stroke="#FFFFFF"></path>
        </g>
    </g>
</svg>