<?xml version="1.0" encoding="UTF-8"?>
<svg width="21px" height="18px" viewBox="0 0 21 18" version="1.1" xmlns="http://www.w3.org/2000/svg" xmlns:xlink="http://www.w3.org/1999/xlink">
    <!-- Generator: Sketch 59.1 (86144) - https://sketch.com -->
    <title>任务历史小产品图标</title>
    <desc>Created with Sketch.</desc>
    <g id="页面-1" stroke="none" stroke-width="1" fill="none" fill-rule="evenodd">
        <g id="Apple-TV备份-3" transform="translate(-1262.000000, -91.000000)">
            <g id="任务历史小产品图标" transform="translate(1261.000000, 89.000000)">
                <rect id="矩形备份-13" x="0" y="0" width="22" height="22"></rect>
                <path d="M7.68768099,16.8425868 C7.86678417,17.1910239 8.0677173,17.5252725 8.28855715,17.8433136 L1.73696145,17.8424036 C1.47396871,17.8424036 1.26077098,17.618546 1.26077098,17.3424036 C1.26077098,17.0969437 1.42922351,16.8927953 1.65136561,16.8504593 L1.73696145,16.8424036 L7.68768099,16.8425868 Z M6.72373676,12.1481586 C6.70246846,12.4031106 6.69160998,12.6611949 6.69160998,12.9219408 L6.69377098,13.148473 L1.73696145,13.1485287 C1.50319013,13.1485287 1.308763,12.9716535 1.26844304,12.7384043 L1.26077098,12.6485287 C1.26077098,12.4030688 1.42922351,12.1989203 1.65136561,12.1565844 L1.73696145,12.1485287 L6.72373676,12.1481586 Z M8.70134699,7.45362929 C8.44385213,7.76853348 8.20730373,8.10285651 7.99396937,8.45421833 L1.73696145,8.4546567 C1.47396871,8.4546567 1.26077098,8.23079908 1.26077098,7.9546567 C1.26077098,7.70919681 1.42922351,7.50504833 1.65136561,7.46271237 L1.73696145,7.4546567 L8.70134699,7.45362929 Z M19.4693878,2.76077098 C19.7323805,2.76077098 19.9455782,2.9846286 19.9455782,3.26077098 C19.9455782,3.53691335 19.7323805,3.76077098 19.4693878,3.76077098 L19.4693878,3.76077098 L1.73696145,3.76077098 C1.47396871,3.76077098 1.26077098,3.53691335 1.26077098,3.26077098 C1.26077098,2.9846286 1.47396871,2.76077098 1.73696145,2.76077098 L1.73696145,2.76077098 Z" id="形状结合" fill="#FFFFFF"></path>
                <circle id="椭圆形" stroke="#FFFFFF" cx="15.0362812" cy="12.8854875" r="5.73696145"></circle>
                <line x1="17.6439909" y1="13.1462585" x2="15.0362812" y2="13.1455808" id="直线-23" stroke="#FFFFFF" stroke-linecap="round"></line>
                <line x1="15.0362812" y1="9.75623583" x2="15.0362812" y2="13.1462585" id="直线-23" stroke="#FFFFFF" stroke-linecap="round"></line>
            </g>
        </g>
    </g>
</svg>