<?xml version="1.0" encoding="UTF-8"?>
<svg width="17px" height="16px" viewBox="0 0 17 16" version="1.1" xmlns="http://www.w3.org/2000/svg" xmlns:xlink="http://www.w3.org/1999/xlink">
    <!-- Generator: Sketch 59 (86127) - https://sketch.com -->
    <title>编组备份 4</title>
    <desc>Created with Sketch.</desc>
    <g id="f" stroke="none" stroke-width="1" fill="none" fill-rule="evenodd">
        <g id="编组备份-4" fill="#FFFFFF" fill-rule="nonzero">
            <path d="M14.6941489,7.91223404 C14.6941489,4.18218085 11.6422872,1.13031915 7.91223404,1.13031915 C4.18218085,1.13031915 1.13031915,4.18218085 1.13031915,7.91223404 C1.13031915,11.6422872 4.18218085,14.6941489 7.91223404,14.6941489 C9.60771277,14.6941489 11.3031915,14.0159574 12.5465426,12.8856383 L13.337766,13.6768617 C11.8683511,15.0332447 10.0598404,15.8244681 7.91223404,15.8244681 C3.50398936,15.8244681 0,12.3204787 0,7.91223404 C0,3.50398936 3.50398936,0 7.91223404,0 C12.3204787,0 15.8244681,3.50398936 15.8244681,7.91223404 L16.9547872,7.91223404 L15.2593085,10.1728723 L13.5638298,7.91223404 L14.6941489,7.91223404 Z" id="形状"></path>
            <path d="M9.20079787,8.34929078 L10.331117,8.34929078 C10.643246,8.34929078 10.8962766,8.60232134 10.8962766,8.91445035 C10.8962766,9.22657937 10.643246,9.47960993 10.331117,9.47960993 L8.375,9.47960993 C7.2704305,9.47960993 6.375,8.58417943 6.375,7.47960993 L6.375,5.52349291 C6.375,5.21136389 6.62803056,4.95833333 6.94015957,4.95833333 C7.25228859,4.95833333 7.50531915,5.21136389 7.50531915,5.52349291 L7.50531915,6.65381206 C7.50531915,7.5901991 8.26441083,8.34929078 9.20079787,8.34929078 Z" id="路径"></path>
        </g>
    </g>
</svg>