<?xml version="1.0" encoding="UTF-8"?>
<svg width="15px" height="15px" viewBox="0 0 15 15" version="1.1" xmlns="http://www.w3.org/2000/svg" xmlns:xlink="http://www.w3.org/1999/xlink">
    <!-- Generator: Sketch 59 (86127) - https://sketch.com -->
    <title>形状结合</title>
    <desc>Created with Sketch.</desc>
    <g id="f" stroke="none" stroke-width="1" fill="none" fill-rule="evenodd">
        <path d="M7.5,0 C11.6421356,0 15,3.35786438 15,7.5 C15,11.6421356 11.6421356,15 7.5,15 C3.35786438,15 0,11.6421356 0,7.5 C0,3.35786438 3.35786438,0 7.5,0 Z M4.26004411,3.91823354 C4.16315772,3.86699584 4.04429485,3.88399325 3.96565187,3.96033168 C3.88700888,4.03667011 3.86648481,4.15497503 3.91481911,4.25334205 L3.91481911,4.25334205 L5.86832588,8.19115412 C6.05822316,8.57394255 6.36572675,8.88584898 6.74577702,9.08116861 L6.74577702,9.08116861 L10.7447098,11.1363443 C10.8430932,11.1870119 10.9629921,11.1678331 11.0406616,11.0890044 C11.118331,11.0101757 11.1357315,10.8900059 11.083612,10.7923838 L11.083612,10.7923838 L8.97733087,6.80001361 C8.78920104,6.44342116 8.49769011,6.15201268 8.14103156,5.9640082 L8.14103156,5.9640082 Z M7.47455662,6.86086559 C7.82375533,6.86086559 8.10683681,7.14394708 8.10683681,7.49314578 C8.10683681,7.84234449 7.82375533,8.12542598 7.47455662,8.12542598 C7.12535791,8.12542598 6.84227642,7.84234449 6.84227642,7.49314578 C6.84227642,7.14394708 7.12535791,6.86086559 7.47455662,6.86086559 Z" id="形状结合" fill="#FFFFFF"></path>
    </g>
</svg>