<?xml version="1.0" encoding="UTF-8"?>
<svg width="20px" height="20px" viewBox="0 0 20 20" version="1.1" xmlns="http://www.w3.org/2000/svg" xmlns:xlink="http://www.w3.org/1999/xlink">
    <!-- Generator: Sketch 59.1 (86144) - https://sketch.com -->
    <title>平台故障管理备份 2</title>
    <desc>Created with Sketch.</desc>
    <defs>
        <linearGradient x1="0%" y1="50%" x2="100%" y2="50%" id="linearGradient-1">
            <stop stop-color="#1452CC" offset="0%"></stop>
            <stop stop-color="#28C6CC" offset="100%"></stop>
        </linearGradient>
    </defs>
    <g id="页面-1" stroke="none" stroke-width="1" fill="none" fill-rule="evenodd">
        <g id="Apple-TV备份-3" transform="translate(-1106.000000, -90.000000)">
            <g id="平台故障管理备份-2" transform="translate(1105.000000, 89.000000)">
                <g id="定位备份-2">
                    <rect id="矩形备份-9" x="0" y="0" width="22" height="22"></rect>
                    <path d="M14.5419687,11.0690625 C18.0554141,11.5845703 20.5380078,12.8433984 20.5380078,14.3155781 C20.5380078,14.8882031 20.1625625,15.4286953 19.497125,15.9058125 C20.1625391,16.3826016 20.5380078,16.9227891 20.5380078,17.4952734 C20.5380078,19.4266406 16.2671797,20.992875 10.9989922,20.992875 C5.73080469,20.992875 1.46,19.4266406 1.46,17.4952734 C1.46,16.9227891 1.83544531,16.3826016 2.50085938,15.9058359 C1.83542188,15.4286953 1.46,14.8882031 1.46,14.3156016 C1.46,12.8433984 3.94257031,11.5845703 7.45603906,11.0690625 L7.48641406,11.0890547 C4.67721875,11.5461328 2.73188281,12.5340703 2.73188281,13.6796953 C2.73188281,14.2193438 3.16364844,14.7240703 3.91378906,15.1548516 C5.24396406,14.6144953 7.02773615,14.2270599 9.04507081,14.0729979 L9.48085156,14.0435859 C7.25492187,14.1892734 5.34000781,14.6415703 4.12470312,15.2696484 C5.60782812,16.0364531 8.1329375,16.5413672 10.9989922,16.5413672 C13.8650703,16.5413672 16.3902031,16.0364531 17.8733047,15.2696719 C16.7295106,14.6784954 14.9659517,14.2430906 12.9043738,14.0747181 L12.5144141,14.0463047 C14.7130859,14.1724922 16.6590312,14.5758984 18.0841953,15.1548516 C18.8343125,14.7240703 19.2661016,14.2193438 19.2661016,13.6796953 C19.2661016,12.5340938 17.3207656,11.5461328 14.5115469,11.0890547 L14.5419687,11.0690625 Z M19.0425547,16.1963672 C17.3481406,17.1685313 14.3787969,17.8132266 10.9989687,17.8132266 C7.61914062,17.8132266 4.64984375,17.1685547 2.95542969,16.1963672 C2.80955469,16.4091563 2.73188281,16.6310859 2.73188281,16.8593203 C2.73188281,18.4398516 6.43322656,19.7210391 10.9989922,19.7210391 C15.5647812,19.7210391 19.2661016,18.4398516 19.2661016,16.8593438 C19.2661016,16.6310859 19.1884297,16.4091797 19.0425547,16.1963672 Z M10.74325,1 C11.9983375,1 13.2836881,1.45928489 14.2557724,2.29175599 C15.3569985,3.23480717 15.986547,4.58140495 15.986547,6.18545397 C15.986547,8.40374482 14.4040379,11.0121865 11.2963908,14.0855334 L10.74325,14.632572 L10.1901093,14.0855334 C7.08246222,11.0121865 5.49995312,8.40374482 5.49995312,6.18545397 C5.49995312,4.58140495 6.12950159,3.23482441 7.23072766,2.29175599 C8.202812,1.45926765 9.48816264,1 10.74325,1 Z M10.7241066,3.5625931 C9.58164131,3.5625931 8.65548937,4.48874503 8.65548937,5.63121028 C8.65548937,6.77367552 9.58164131,7.69982746 10.7241066,7.69982746 C11.8665718,7.69982746 12.7927237,6.77367552 12.7927237,5.63121028 C12.7927237,4.48874503 11.8665718,3.5625931 10.7241066,3.5625931 Z" id="形状结合" fill="#FFFFFF"></path>
                </g>
                <g id="编组-9" transform="translate(8.040000, 3.000000)"></g>
            </g>
        </g>
    </g>
</svg>