<?xml version="1.0" encoding="UTF-8"?>
<svg width="44px" height="53px" viewBox="0 0 44 53" version="1.1" xmlns="http://www.w3.org/2000/svg" xmlns:xlink="http://www.w3.org/1999/xlink">
    <!-- Generator: Sketch 55.2 (78181) - https://sketchapp.com -->
    <title>编组 5</title>
    <desc>Created with Sketch.</desc>
    <defs>
        <linearGradient x1="-1.85191348%" y1="50.0064892%" x2="101.852283%" y2="50.0064892%" id="linearGradient-1">
            <stop stop-color="#1452CC" offset="0%"></stop>
            <stop stop-color="#29C7CC" offset="100%"></stop>
        </linearGradient>
        <linearGradient x1="-1.85191348%" y1="50.0064892%" x2="101.852283%" y2="50.0064892%" id="linearGradient-2">
            <stop stop-color="#1452CC" offset="0%"></stop>
            <stop stop-color="#29C7CC" offset="100%"></stop>
        </linearGradient>
        <linearGradient x1="-1.85191348%" y1="50.0064892%" x2="101.852283%" y2="50.0064892%" id="linearGradient-3">
            <stop stop-color="#1452CC" offset="0%"></stop>
            <stop stop-color="#29C7CC" offset="100%"></stop>
        </linearGradient>
        <linearGradient x1="48.9313649%" y1="50%" x2="74.1058908%" y2="51.4299708%" id="linearGradient-4">
            <stop stop-color="#1452CC" offset="0%"></stop>
            <stop stop-color="#29C7CC" offset="100%"></stop>
        </linearGradient>
        <linearGradient x1="24.2555573%" y1="57.8423327%" x2="52.9984816%" y2="50%" id="linearGradient-5">
            <stop stop-color="#1452CC" offset="0%"></stop>
            <stop stop-color="#29C7CC" offset="100%"></stop>
        </linearGradient>
        <linearGradient x1="-1.85191348%" y1="50.0064892%" x2="101.852283%" y2="50.0064892%" id="linearGradient-6">
            <stop stop-color="#1452CC" offset="0%"></stop>
            <stop stop-color="#29C7CC" offset="100%"></stop>
        </linearGradient>
        <linearGradient x1="-1.85191348%" y1="50.0064892%" x2="101.852283%" y2="50.0064892%" id="linearGradient-7">
            <stop stop-color="#1452CC" offset="0%"></stop>
            <stop stop-color="#29C7CC" offset="100%"></stop>
        </linearGradient>
        <linearGradient x1="-1.85191348%" y1="50.0064892%" x2="101.852283%" y2="50.0064892%" id="linearGradient-8">
            <stop stop-color="#1452CC" offset="0%"></stop>
            <stop stop-color="#29C7CC" offset="100%"></stop>
        </linearGradient>
    </defs>
    <g id="f" stroke="none" stroke-width="1" fill="none" fill-rule="evenodd">
        <g id="编组-5" transform="translate(1.000000, 0.000000)">
            <path d="M20.6081126,36.7802906 L20.6081126,43.7802906" id="直线备份-10" stroke="url(#linearGradient-1)" stroke-linecap="round"></path>
            <path d="M30.4542108,34.7802906 C29.6442675,38.8069178 32.2519051,42.7277329 36.2785323,43.5376762 C36.4477676,43.5717173 36.6181368,43.5998557 36.7893304,43.6220402 L38.0105187,43.7802906" id="直线备份-11" stroke="url(#linearGradient-2)" stroke-linecap="round"></path>
            <path d="M3.82319996,37.0607076 L4.09592637,37.0083702 C8.13588328,36.2330853 12.039408,38.8796249 12.8146929,42.9195818 C12.8175749,42.9345994 12.8204106,42.9496259 12.8232,42.964661 L12.8232,42.964661" id="直线备份-12" stroke="url(#linearGradient-3)" stroke-linecap="round" transform="translate(8.323200, 39.280291) rotate(90.000000) translate(-8.323200, -39.280291) "></path>
            <g id="编组-2" transform="translate(4.274275, 9.111093)" fill-rule="nonzero">
                <path d="M-1.06803455e-13,5.41262908 L-1.06803455e-13,24.7250554 C-1.06803455e-13,24.9985415 0.478414547,25.2202458 1.0685688,25.2202458 C1.65872305,25.2202458 2.1371376,24.9985415 2.1371376,24.7250554 L2.1371376,5.41262908 C2.1371376,5.13914296 1.65872305,4.91743866 1.0685688,4.91743866 C0.478414547,4.91743866 -1.06803455e-13,5.13914296 -1.06803455e-13,5.41262908 Z" id="直线-2备份" fill="url(#linearGradient-4)"></path>
                <path d="M31.7364933,6.42907257 L31.7364933,23.7086119 C31.7364933,23.95331 32.2149079,24.151677 32.8050621,24.151677 C33.3952164,24.151677 33.8736309,23.95331 33.8736309,23.7086119 L33.8736309,6.42907257 C33.8736309,6.18437447 33.3952164,5.98600746 32.8050621,5.98600746 C32.2149079,5.98600746 31.7364933,6.18437447 31.7364933,6.42907257 Z" id="直线-2备份-2" fill="url(#linearGradient-5)"></path>
                <path d="M16.9444481,17.0615866 C20.4304274,17.0615866 23.6884123,16.8099288 26.7184028,16.3066133 C29.7483932,15.8032363 32.1385319,15.0599087 33.8888962,14.0765998 L33.8888962,17.0616173 C33.8888962,17.8692882 33.1313986,18.6184232 31.6164034,19.309084 C30.1014082,19.999714 28.0421992,20.546939 25.438738,20.9508513 C22.8352768,21.3546406 20.0038597,21.5565814 16.9444481,21.5565814 C13.8850365,21.5565814 11.0536194,21.3546406 8.4501582,20.9508206 C5.84673557,20.547062 3.78752664,19.9997447 2.27257004,19.309084 C0.757497607,18.6184232 -4.26325641e-14,17.8692574 -4.26325641e-14,17.0615866 L-4.26325641e-14,14.0765998 C1.75036426,15.0599087 4.140503,15.803267 7.17045482,16.306644 C10.2004452,16.8099595 13.4584301,17.061648 16.9444095,17.0616173 L16.9444481,17.0615866 Z" id="路径备份-3" fill="url(#linearGradient-6)"></path>
                <path d="M16.9444481,25.2116747 C20.4304274,25.2116747 23.6884123,24.9034432 26.7184028,24.2871309 C29.7483932,23.6708186 32.1385319,22.7606103 33.8888962,21.5565814 L33.8888962,25.2116747 C33.8888962,26.2006716 33.1313986,27.1180287 31.6164034,27.9637838 C30.1014082,28.809426 28.0421992,29.4795434 25.438738,29.974023 C22.8352381,30.4685403 20.0038597,30.7157425 16.9444481,30.7157425 C13.8850365,30.7157425 11.0536194,30.4685403 8.4501582,29.974023 C5.84669696,29.4795058 3.78748803,28.8093884 2.27249282,27.9637838 C0.757497607,27.118104 -4.26325641e-14,26.2007092 -4.26325641e-14,25.2116747 L-4.26325641e-14,21.5565814 C1.75036426,22.7606103 4.140503,23.670781 7.17049343,24.2870933 C10.2004839,24.9034432 13.4584687,25.211637 16.9444481,25.2116747 L16.9444481,25.2116747 Z" id="路径备份-4" fill="url(#linearGradient-7)"></path>
                <path d="M23.5076775,1.31736844e-11 C24.1647269,0.0905945284 24.8084135,0.195657735 25.438738,0.315188555 C28.0421992,0.80889277 30.1014082,1.47795928 31.6164034,2.32238809 C33.1313986,3.16674176 33.8888962,4.08262281 33.8888962,5.07010637 L33.8888962,7.81789979 C33.8888962,8.80530822 33.1313986,9.72122684 31.6164034,10.5655429 C30.1014082,11.4099342 28.0421992,12.0790007 25.438738,12.5727425 C22.8352768,13.0664843 20.0038597,13.3133364 16.9444481,13.3133364 C13.8850365,13.3133364 11.0536194,13.0664467 8.4501582,12.5727425 C5.84669696,12.0790383 3.78748803,11.4099717 2.27249282,10.5655429 C0.757497607,9.72118927 -7.81597009e-14,8.80530822 -7.81597009e-14,7.81789979 L-7.81597009e-14,5.07010637 C-7.81597009e-14,4.08262281 0.757497607,3.16674176 2.27249282,2.32235052 C3.78748803,1.47803441 5.84669696,0.808967904 8.4501582,0.315150988 C8.83418728,0.242332721 9.22317447,0.174883755 9.61712028,0.112804451 C9.61924085,3.94700291 12.7281223,7.05457626 16.5628164,7.05457626 C20.398819,7.05457626 23.5085136,3.9448817 23.5085136,0.108879064 C23.5085136,0.0725201156 23.5082342,0.0362264176 23.5076775,7.63278329e-17 Z" id="形状结合备份" fill="url(#linearGradient-8)"></path>
            </g>
            <path d="M22.0294876,5.78096509 L24.3900828,5.78096509 L20.7435918,5.32907052e-15 L17.0971008,5.78096509 L19.4576961,5.78096509 L19.4576961,12.0062185 C19.4576961,12.7163955 20.0334083,13.2921077 20.7435853,13.2921077 C21.4537627,13.2921077 22.0294755,12.7163958 22.0294767,12.0062185 L22.0294876,5.78096509 Z" id="路径备份-2" stroke="#FFFFFF" fill="#FFFFFF" fill-rule="nonzero"></path>
            <circle id="椭圆形备份-9" stroke="#FFFFFF" cx="4.12162251" cy="47.9019131" r="4.12162251"></circle>
            <circle id="椭圆形备份-10" stroke="#FFFFFF" cx="20.6081126" cy="47.9019131" r="4.12162251"></circle>
            <circle id="椭圆形备份-11" stroke="#FFFFFF" cx="38.0105187" cy="47.9019131" r="4.12162251"></circle>
        </g>
    </g>
</svg>