<?xml version="1.0" encoding="UTF-8"?>
<svg width="17px" height="17px" viewBox="0 0 17 17" version="1.1" xmlns="http://www.w3.org/2000/svg" xmlns:xlink="http://www.w3.org/1999/xlink">
    <!-- Generator: Sketch 55.2 (78181) - https://sketchapp.com -->
    <title>形状结合备份 2</title>
    <desc>Created with Sketch.</desc>
    <g id="f" stroke="none" stroke-width="1" fill="none" fill-rule="evenodd">
        <path d="M5.36842105,13.7368421 L5.36842105,12 L1.92592593,12 C0.862266408,12 0,11.1045695 0,10 L0,4 C0,2.8954305 0.862266408,2 1.92592593,2 L11.0740741,2 C12.1377336,2 13,2.8954305 13,4 L13,5 L12.5185185,5 L12.5185185,4 C12.5185185,3.17157288 11.8718187,2.5 11.0740741,2.5 L1.92592593,2.5 C1.12818129,2.5 0.481481481,3.17157288 0.481481481,4 L0.481481481,10 C0.481481481,10.8284271 1.12818129,11.5 1.92592593,11.5 L8,11.5 L8,12 L6.36842105,12 L6.36842105,13.7368421 L8.73835685,13.7368421 C8.85379076,13.7368421 8.94736842,13.9606997 8.94736842,14.2368421 C8.94736842,14.5129845 8.85379076,14.7368421 8.73835685,14.7368421 L2.89322209,14.7368421 C2.77778819,14.7368421 2.68421053,14.5129845 2.68421053,14.2368421 C2.68421053,13.9606997 2.77778819,13.7368421 2.89322209,13.7368421 L5.36842105,13.7368421 Z M9.18918919,5.94156033 L17,5.94156033 L17,9.39042561 L9.18918919,9.39042561 L9.18918919,5.94156033 Z M16.5118243,8.9201258 L16.5118243,6.46411567 L9.67736486,6.46411567 L9.67736486,8.9201258 L16.5118243,8.9201258 Z M10.3119932,8.18108324 L10.3119932,6.92695041 L10.8001689,6.92695041 L10.8001689,8.18108324 L10.3119932,8.18108324 Z M11.4347973,8.18108324 L11.4347973,6.92695041 L11.922973,6.92695041 L11.922973,8.18108324 L11.4347973,8.18108324 Z M14.7543919,8.18108324 L14.7543919,6.92695041 L15.535473,6.92695041 L15.535473,8.18108324 L14.7543919,8.18108324 Z M9.18918919,10.3235602 L17,10.3235602 L17,13.824681 L9.18918919,13.824681 L9.18918919,10.3235602 Z M16.5118243,13.2498701 L16.5118243,10.79386 L9.67736486,10.79386 L9.67736486,13.2498701 L16.5118243,13.2498701 Z M10.1081081,12.8392909 L10.1081081,11.3612058 L10.5804496,11.3612058 L10.5804496,12.8392909 L10.1081081,12.8392909 Z M11.1944936,12.8392909 L11.1944936,11.3612058 L11.6668351,11.3612058 L11.6668351,12.8392909 L11.1944936,12.8392909 Z M14.4064158,12.8392909 L14.4064158,11.3612058 L15.1621622,11.3612058 L15.1621622,12.8392909 L14.4064158,12.8392909 Z M7.37421511,7.56750033 L6.79323698,6.9444964 C6.70210081,6.84676779 6.70210081,6.69518875 6.79323698,6.59746014 C6.87657552,6.5080932 7.01658099,6.50320621 7.10594793,6.58654476 C7.10971225,6.59005515 7.11335293,6.59369583 7.11686332,6.59746014 L8.24611267,7.80839518 L7.11686332,9.01933022 C7.03352477,9.10869717 6.89351931,9.11358415 6.80415236,9.0302456 C6.80038804,9.02673522 6.79674737,9.02309454 6.79323698,9.01933022 C6.70208661,8.92158638 6.70204273,8.76999691 6.79313649,8.67220031 L7.3724937,8.050213 L5.7443915,8.050213 C5.61109407,8.050213 5.50303516,7.94215409 5.50303516,7.80885667 C5.50303516,7.67555924 5.61109407,7.56750033 5.7443915,7.56750033 L7.37421511,7.56750033 Z M4.54678818,5.6024998 L6.1747036,5.6024998 C6.30953025,5.6024998 6.41882885,5.71179839 6.41882885,5.84662504 C6.41882885,5.98145169 6.30953025,6.09075028 6.1747036,6.09075028 L4.54850959,6.09075028 L5.12862702,6.71283124 C5.21976318,6.81055985 5.21976318,6.96213889 5.12862702,7.0598675 C5.04528847,7.14923445 4.90528301,7.15412143 4.81591606,7.07078288 C4.81215175,7.06727249 4.80851107,7.06363182 4.80500068,7.0598675 L3.67575132,5.84893246 L4.8090164,4.63772857 C4.89264222,4.54835149 5.03288878,4.54368918 5.12226586,4.627315 C5.12594103,4.63075368 5.12949799,4.63431655 5.13293056,4.63799742 C5.22389587,4.73554282 5.22337042,4.88699486 5.13173046,4.98390672 L4.54678818,5.6024998 Z" id="形状结合备份-2" fill="#FFFFFF" fill-rule="nonzero"></path>
    </g>
</svg>