<?xml version="1.0" encoding="UTF-8"?>
<svg width="22px" height="22px" viewBox="0 0 22 22" version="1.1" xmlns="http://www.w3.org/2000/svg" xmlns:xlink="http://www.w3.org/1999/xlink">
    <title>采集插件</title>
    <g id="页面-1" stroke="none" stroke-width="1" fill="none" fill-rule="evenodd">
        <g id="Apple-TV备份-2" transform="translate(-741.000000, -823.000000)">
            <g id="采集插件" transform="translate(741.000000, 823.000000)">
                <rect id="矩形" fill="#D8D8D8" opacity="0" x="0" y="0" width="22" height="22"></rect>
                <path d="M1.83996682,15.0625 C2.38368229,15.5375 3.0086426,15.7125 3.72234728,15.53875 C4.52854607,15.3425 5.27974837,15.00875 6.00845208,14.62 C7.47085921,13.84 8.81327396,12.88125 10.0956925,11.8325 C10.1919364,11.755 10.2881803,11.67125 10.3831743,11.58875 L10.3619256,11.56875 C10.3272194,11.5581317 10.2922063,11.5485442 10.2569323,11.54 C8.55704022,11.12625 6.84214912,10.83125 5.09226026,10.76875 C4.33449873,10.7347781 3.57530846,10.7850866 2.82865402,10.91875 C1.87996427,11.095 1.32124976,11.675 1.07126564,12.58375 C1.04501731,12.675 1.03126817,12.77125 1.01626913,12.8675 C1.00517685,12.9289568 0.999737802,12.9913007 1.00000971,13.05375 L1.00000971,13.25625 C1.00000971,13.32125 1.0087696,13.38625 1.01626913,13.45125 C1.09001444,14.0925 1.35499761,14.64 1.84121674,15.06375 L1.83996682,15.0625 Z M16.3790435,20.0675 C16.937758,19.3425 17.0540006,18.55 16.6365271,17.71375 C16.2703004,16.98125 15.7853312,16.32625 15.252865,15.70875 C14.1279364,14.39625 12.8417681,13.25 11.4768548,12.195 C11.4543562,12.1775 11.4293578,12.16375 11.3981098,12.14375 C11.39561,12.18125 11.3918602,12.20875 11.3918602,12.2325 C11.379361,13.93625 11.4793546,15.62875 11.7943346,17.305 C11.9543245,18.16375 12.1743105,19.00375 12.544287,19.7975 C12.7855217,20.31375 13.1754969,20.6725 13.7117129,20.86125 C13.8567037,20.9125 14.0079441,20.9425 14.1604344,20.975 C14.2352018,20.9911323 14.3114336,20.99951 14.3879199,21 L14.5554093,21 C14.6166554,21 14.6741517,20.99125 14.7341479,20.98375 C15.386133,20.9208157 15.9823088,20.5887302 16.3790435,20.0675 L16.3790435,20.0675 Z M10.0294467,1.23875 C9.24199674,1.64874999 8.79452515,2.28124999 8.79948338,3.18875 C8.80327459,3.99749999 8.95076523,4.78874999 9.15450228,5.56874999 C9.59447434,7.26875 10.2569323,8.88124998 11.031883,10.45125 C11.0406325,10.47125 11.0543816,10.48875 11.0693807,10.51625 C11.0890299,10.482165 11.1069677,10.4471215 11.1231273,10.41125 C11.4631057,9.64374999 11.8268326,8.88374998 12.1380628,8.10375 C12.6880279,6.73124999 13.1417491,5.33000001 13.2954893,3.84999999 C13.3292371,3.51875 13.3579853,3.17249998 13.3117383,2.84625001 C13.1867462,1.99250001 12.6655293,1.44250001 11.8693299,1.1425 C11.7218392,1.0875 11.5630993,1.05750001 11.4068592,1.02499999 C11.3287257,1.00879031 11.2491703,1.00041552 11.1693743,1 L10.9868859,1 C10.9243899,1 10.8618938,1.00875 10.7993978,1.01625 C10.5304797,1.04047365 10.2686932,1.11600194 10.0281968,1.23875 L10.0294467,1.23875 Z M20.9512531,12.77375 C20.795013,12.02 20.4000381,11.44625 19.6625849,11.175 C19.3401054,11.0575 18.985128,11.0075 18.6413998,10.9675 C17.6202146,10.845 16.5965297,10.9 15.5778444,11.01 C14.6879009,11.10625 13.8079568,11.25375 12.9330123,11.44375 C12.6367811,11.50875 12.3417999,11.5775 12.0268199,11.65 C12.0668173,11.6875 12.0893159,11.71 12.1143143,11.73 C13.2293198,12.6825084 14.4235778,13.5381132 15.6840876,14.2875 C16.4627882,14.74375 17.2689869,15.14125 18.1364319,15.4025 C18.5514055,15.5275 18.9676291,15.5925 19.3901022,15.46125 C20.2013007,15.20625 20.6837701,14.63625 20.9150054,13.83625 C20.9702459,13.6401719 20.9984217,13.4374616 20.9987501,13.23375 L21,13.195 C20.9965863,13.0530463 20.9806927,12.9116681 20.952503,12.7725 L20.9512531,12.77375 Z M10.591911,12.16375 C9.31949182,13.1675 8.12456769,14.25125 7.05838542,15.4725 C6.45092399,16.1675 5.89845908,16.9025 5.48973502,17.735 C5.24889816,18.2088297 5.20400476,18.7583598 5.36474297,19.265 C5.70101562,20.3476364 6.74503083,21.0506236 7.87458357,20.955 C8.53704149,20.89 9.08575664,20.6 9.44698371,20.0275 C9.60322379,19.78 9.71821647,19.5025 9.82070998,19.2275 C10.2206846,18.15 10.419422,17.02375 10.5356646,15.88375 C10.6094099,15.16625 10.654407,14.44625 10.685655,13.72625 C10.7106535,13.18875 10.6894048,12.65125 10.6894048,12.09375 C10.6561047,12.1159452 10.6235871,12.1392927 10.591911,12.16375 L10.591911,12.16375 Z M7.72709294,6.2175 C7.26587223,5.58000001 6.75840446,4.98125 6.15594272,4.47124999 C5.70952527,4.07636521 5.10470756,3.91186653 4.51979663,4.02625001 C3.76609449,4.16125001 3.21987918,4.59 2.85490237,5.25374999 C2.35618405,6.16125 2.47992618,7.38374999 3.43611545,8.08125001 C4.04607671,8.52625001 4.69603543,8.895 5.38224185,9.20625 C6.62216311,9.76875 7.91458102,10.1825 9.23074744,10.51875 C9.5744756,10.60625 9.92070362,10.68375 10.2881803,10.77125 L10.2581822,10.6925 C9.55072711,9.12625 8.73952864,7.61500001 7.72709294,6.2175 Z M16.6477764,9.44125 C17.4352264,9.11875 18.1914284,8.745 18.875135,8.23375001 C19.3701035,7.8625 19.6500857,7.36375001 19.6913331,6.75125001 C19.756329,5.82000001 19.3851026,5.07625002 18.622651,4.54499999 C17.8564496,4.01374999 16.8440139,4.01124999 16.0978113,4.63875001 C15.4973068,5.15071327 14.9552929,5.72755666 14.481664,6.35875001 C13.5142254,7.62125 12.7217757,8.99125001 12.0130707,10.41375 C11.9505747,10.53625 11.8918284,10.66375 11.8255827,10.80125 C11.8693299,10.795 11.899328,10.795 11.9255763,10.79125 C12.1743105,10.74125 12.4217948,10.695 12.6680291,10.64125 C14.024193,10.34125 15.3578583,9.96624998 16.6477764,9.44125 L16.6477764,9.44125 Z M13.9904452,9.09625001 C14.591657,8.09125 15.2353661,7.11375001 16.0303156,6.24875 C16.2653007,5.99625 16.5265341,5.7675 16.780268,5.53125 C17.1477447,5.18500001 17.6239644,5.24374999 17.9676926,5.4525 C18.432663,5.73625001 18.6863969,6.31125 18.5651546,6.80499999 C18.5164481,7.01420363 18.3945298,7.19908782 18.2214265,7.32625 C17.579211,7.79493682 16.873387,8.16954819 16.1253096,8.43875 C15.4403531,8.69374999 14.7441473,8.90875 14.0504414,9.13875 C14.0254429,9.14749999 14.0016944,9.15124999 13.9629469,9.15874999 C13.9754461,9.13 13.9816957,9.11249998 13.9904452,9.09625001 L13.9904452,9.09625001 Z" id="形状" fill="#FFFFFF"></path>
            </g>
        </g>
    </g>
</svg>