<?xml version="1.0" encoding="UTF-8"?>
<svg width="22px" height="22px" viewBox="0 0 22 22" version="1.1" xmlns="http://www.w3.org/2000/svg" xmlns:xlink="http://www.w3.org/1999/xlink">
    <title>container-config</title>
    <g id="页面-1" stroke="none" stroke-width="1" fill="none" fill-rule="evenodd">
        <g id="Apple-TV" transform="translate(-728.000000, -752.000000)">
            <g id="container-config" transform="translate(728.000000, 752.000000)">
                <rect id="矩形" x="0" y="0" width="22" height="22"></rect>
                <g transform="translate(0.000000, 0.000000)" fill="#FFFFFF" fill-rule="nonzero">
                    <path d="M11.005664,8.18790538 L12.8809805,10.0899173 C11.2790759,11.7153544 8.19403945,14.9073172 3.62587127,19.6658057 C3.46378584,19.8603082 3.17203207,19.9251424 2.91269538,19.8278911 C2.78302704,19.763057 2.65335869,19.6658057 2.55610744,19.5685545 C2.16710242,19.1471324 1.97413596,18.9614349 1.55271383,18.5400128 C1.4230455,18.4103445 1.32579423,18.2482591 1.32579423,18.0537565 C1.32579423,17.859254 1.3906284,17.6971686 1.52029676,17.5675003 C3.30323645,15.8169776 7.6050821,11.7082963 9.38802181,9.89293954 C9.91666711,9.34005524 10.3786197,8.85387324 10.7738796,8.43439351 L11.005664,8.18790538 L11.005664,8.18790538 Z M7.05399166,1.39966313 C7.89683589,1.39966313 8.73968011,1.43208022 9.58252432,1.49691439 C9.90669518,1.49691439 10.230866,1.56174856 10.5550369,1.59416563 C10.6522881,1.59416563 10.7495394,1.62658272 10.8467907,1.62658272 C11.4302982,1.69141689 11.9813887,1.78866816 12.5648962,1.91833649 C12.7269816,1.95075359 12.85665,1.98317066 13.0187354,2.04800483 C13.2780721,2.112839 13.5049917,2.21009026 13.7319113,2.33975862 C13.991248,2.43700988 14.1857505,2.66392948 14.380253,2.85843198 L15.4500168,3.92819581 C15.9362731,4.4144521 16.4549465,4.90070837 16.9412027,5.38696466 C17.0708711,5.516633 17.2329565,5.64630135 17.2977907,5.84080386 C17.3626249,6.00288929 17.3626249,6.19739179 17.2653736,6.35947722 C17.2005394,6.48914556 17.1032882,6.55397973 17.0060369,6.68364809 C17.2329565,6.91056768 17.4598761,7.13748728 17.6543786,7.36440688 C17.7516299,7.46165814 17.8164641,7.59132648 17.9461324,7.62374355 C18.173052,7.88308025 18.5944741,7.91549732 18.9510621,7.81824608 C19.1131475,7.78582898 19.30765,7.78582898 19.4049013,7.91549732 L19.9884088,8.59625612 L20.4746651,9.17976367 C20.5719163,9.30943201 20.6691676,9.47151744 20.6691676,9.66601994 C20.7015847,9.86052244 20.5719163,10.055025 20.442248,10.1846933 C19.8911575,10.6385325 18.9834791,11.3841255 18.3999716,11.8703818 L18.3675545,11.9027989 C18.2378862,12.0000501 18.0758008,12.0648843 17.9461324,12.0324672 C17.7516299,12.0324672 17.6219615,11.9352159 17.4922932,11.8055476 L16.292861,10.6061154 C16.1631927,10.5088642 16.1956098,10.3143617 16.2280269,10.1522762 C16.3576952,9.82810537 16.3252781,9.40668327 16.0659414,9.14734658 L15.3527655,8.43417068 C15.3402948,8.44664141 14.6652325,8.44169464 14.026541,8.9612901 L12.0651113,7.03875951 C12.2958192,6.78062389 12.4408028,6.60822494 12.500062,6.52156265 C12.7800739,6.11206592 12.6297304,5.77596969 12.5324791,5.516633 C12.3703937,5.09521089 12.0786399,4.70620587 11.8193032,4.34961791 C11.5599665,4.05786414 11.3006299,3.76611038 11.0088761,3.50677368 L10.9440419,3.44193951 C9.93911225,2.56667821 8.73968009,1.98317066 7.50783086,1.52933146 C7.37816252,1.46449729 7.21607709,1.46449729 7.05399166,1.39966313 Z" transform="translate(11.000000, 10.636117) rotate(-9.000000) translate(-11.000000, -10.636117) "></path>
                </g>
            </g>
        </g>
    </g>
</svg>