<?xml version="1.0" encoding="UTF-8"?>
<svg width="22px" height="22px" viewBox="0 0 22 22" version="1.1" xmlns="http://www.w3.org/2000/svg" xmlns:xlink="http://www.w3.org/1999/xlink">
    <title>databases</title>
    <g id="é¡µé¢-1" stroke="none" stroke-width="1" fill="none" fill-rule="evenodd">
        <g id="Apple-TV" transform="translate(-854.000000, -752.000000)">
            <g id="databases" transform="translate(854.000000, 752.000000)">
                <rect id="çŸ©å½¢" x="0" y="0" width="22" height="22"></rect>
                <g transform="translate(1.500000, 1.000000)" fill="#FFFFFF" fill-rule="nonzero">
                    <path d="M19.2885,13.5206 C19.0835,13.3186 18.7565,13.3186 18.5545,13.5206 L15.2995,16.7926 L13.5925,15.0796 C13.3905,14.8776 13.0595,14.8776 12.8575,15.0796 C12.6555,15.2846 12.6555,15.6146 12.8575,15.8166 L14.9295,17.8976 C15.0295,17.9986 15.1645,18.0486 15.2955,18.0486 C15.4305,18.0486 15.5615,17.9986 15.6625,17.8976 L19.2885,14.2546 C19.4905,14.0526 19.4905,13.7226 19.2885,13.5206" id="Fill-1"></path>
                    <g id="Fill-3-Clipped">
                        <path d="M9.311,0.9 C13.769,0.9 17.537,2.686 17.537,4.8 C17.537,6.914 13.769,8.7 9.311,8.7 C4.853,8.7 1.086,6.914 1.086,4.8 C1.086,2.686 4.853,0.9 9.311,0.9 M0.886,8.144 C0.886,7.769 1.013,7.406 1.23,7.059 C2.743,8.582 5.758,9.6 9.311,9.6 C12.841,9.6 15.842,8.596 17.365,7.089 C17.568,7.427 17.685,7.78 17.685,8.144 C17.685,8.517 17.564,8.879 17.351,9.224 C17.677,9.233 17.997,9.265 18.31,9.317 C18.48,8.942 18.572,8.55 18.572,8.144 C18.572,7.513 18.347,6.915 17.948,6.367 C18.259,5.877 18.436,5.352 18.436,4.8 C18.436,2.108 14.428,0 9.311,0 C4.195,0 0.187,2.108 0.187,4.8 C0.187,5.339 0.354,5.854 0.653,6.334 C0.238,6.892 0,7.5 0,8.144 C0,8.773 0.224,9.367 0.619,9.914 C0.313,10.402 0.142,10.926 0.142,11.475 C0.142,12.056 0.335,12.608 0.676,13.121 C0.336,13.633 0.142,14.183 0.142,14.763 C0.142,17.498 4.22,19.641 9.427,19.641 C9.89,19.641 10.343,19.623 10.786,19.59 C10.644,19.311 10.521,19.021 10.415,18.722 C10.09,18.741 9.761,18.754 9.427,18.754 C4.874,18.754 1.029,16.927 1.029,14.763 C1.029,14.447 1.117,14.139 1.274,13.842 C2.836,15.35 5.867,16.352 9.427,16.352 C9.622,16.352 9.813,16.348 10.003,16.342 C10.004,16.039 10.03,15.743 10.067,15.45 C9.855,15.458 9.643,15.465 9.427,15.465 C4.874,15.465 1.029,13.638 1.029,11.475 C1.029,11.179 1.109,10.891 1.248,10.611 C2.839,12.062 5.806,13.021 9.286,13.021 C9.826,13.021 10.351,12.997 10.863,12.953 C11.049,12.61 11.267,12.289 11.505,11.983 C10.794,12.079 10.051,12.135 9.286,12.135 C4.733,12.135 0.886,10.307 0.886,8.144" id="Fill-3"></path>
                    </g>
                </g>
            </g>
        </g>
    </g>
</svg>