<?xml version="1.0" encoding="UTF-8"?>
<svg width="20px" height="20px" viewBox="0 0 20 20" version="1.1" xmlns="http://www.w3.org/2000/svg" xmlns:xlink="http://www.w3.org/1999/xlink">
    <!-- Generator: Sketch 58 (84663) - https://sketch.com -->
    <title>数据库变更</title>
    <desc>Created with Sketch.</desc>
    <defs>
        <polygon id="path-1" points="0 0.341335 17.5943368 0.341335 17.5943368 19 0 19"></polygon>
    </defs>
    <g id="页面-1" stroke="none" stroke-width="1" fill="none" fill-rule="evenodd">
        <g id="画板备份-13">
            <g id="数据库变更" transform="translate(1.000000, 0.500000)">
                <path d="M17.8650134,13.129501 C17.6823582,12.956833 17.3910009,12.956833 17.2110187,13.129501 L14.3108108,15.926381 L12.7898723,14.462122 C12.6098901,14.289454 12.3149688,14.289454 12.1349866,14.462122 C11.9550045,14.6373544 11.9550045,14.9194358 12.1349866,15.0921039 L13.9811405,16.8709264 C14.0702406,16.9572604 14.1905257,17 14.3072468,17 C14.4275319,17 14.544253,16.9572604 14.6342441,16.8709264 L17.8650134,13.7569185 C18.0449955,13.5842505 18.0449955,13.302169 17.8650134,13.129501" id="Fill-1" fill="#FFFFFF"></path>
                <g id="编组">
                    <mask id="mask-2" fill="white">
                        <use xlink:href="#path-1"></use>
                    </mask>
                    <g id="Clip-4"></g>
                    <path d="M8.82075789,1.196335 C13.0441263,1.196335 16.6138105,2.893035 16.6138105,4.901335 C16.6138105,6.909635 13.0441263,8.606335 8.82075789,8.606335 C4.59738947,8.606335 1.02865263,6.909635 1.02865263,4.901335 C1.02865263,2.893035 4.59738947,1.196335 8.82075789,1.196335 M0.839178947,8.078135 C0.839178947,7.721885 0.959494737,7.377035 1.16507368,7.047385 C2.59844211,8.494235 5.45475789,9.461335 8.82075789,9.461335 C12.1649684,9.461335 15.0080211,8.507535 16.4508632,7.075885 C16.6431789,7.396985 16.7540211,7.732335 16.7540211,8.078135 C16.7540211,8.432485 16.6393895,8.776385 16.4376,9.104135 C16.7464421,9.112685 17.0496,9.143085 17.3461263,9.192485 C17.5071789,8.836235 17.5943368,8.463835 17.5943368,8.078135 C17.5943368,7.478685 17.3811789,6.910585 17.0031789,6.389985 C17.2978105,5.924485 17.4654947,5.425735 17.4654947,4.901335 C17.4654947,2.343935 13.6684421,0.341335 8.82075789,0.341335 C3.97402105,0.341335 0.176968421,2.343935 0.176968421,4.901335 C0.176968421,5.413385 0.335178947,5.902635 0.618442105,6.358635 C0.225284211,6.888735 -0.000189473684,7.466335 -0.000189473684,8.078135 C-0.000189473684,8.675685 0.212021053,9.239985 0.586231579,9.759635 C0.296336842,10.223235 0.134336842,10.721035 0.134336842,11.242585 C0.134336842,11.794535 0.317178947,12.318935 0.640231579,12.806285 C0.318126316,13.292685 0.134336842,13.815185 0.134336842,14.366185 C0.134336842,16.964435 3.99770526,19.000285 8.93065263,19.000285 C9.36928421,19.000285 9.79844211,18.983185 10.2181263,18.951835 C10.0836,18.686785 9.96707368,18.411285 9.86665263,18.127235 C9.55875789,18.145285 9.24707368,18.157635 8.93065263,18.157635 C4.61728421,18.157635 0.974652632,16.421985 0.974652632,14.366185 C0.974652632,14.065985 1.05802105,13.773385 1.20675789,13.491235 C2.68654737,14.923835 5.55802105,15.875735 8.93065263,15.875735 C9.11538947,15.875735 9.29633684,15.871935 9.47633684,15.866235 C9.47728421,15.578385 9.50191579,15.297185 9.53696842,15.018835 C9.33612632,15.026435 9.13528421,15.033085 8.93065263,15.033085 C4.61728421,15.033085 0.974652632,13.297435 0.974652632,11.242585 C0.974652632,10.961385 1.05044211,10.687785 1.18212632,10.421785 C2.68938947,11.800235 5.50023158,12.711285 8.79707368,12.711285 C9.30865263,12.711285 9.80602105,12.688485 10.2910737,12.646685 C10.4672842,12.320835 10.6738105,12.015885 10.8992842,11.725185 C10.2257053,11.816385 9.52181053,11.869585 8.79707368,11.869585 C4.48370526,11.869585 0.839178947,10.132985 0.839178947,8.078135" id="Fill-3" fill="#FFFFFF" mask="url(#mask-2)"></path>
                </g>
            </g>
        </g>
    </g>
</svg>