<?xml version="1.0" encoding="UTF-8"?>
<svg width="22px" height="22px" viewBox="0 0 22 22" version="1.1" xmlns="http://www.w3.org/2000/svg" xmlns:xlink="http://www.w3.org/1999/xlink">
    <title>Data Builder小产品</title>
    <g id="页面-1" stroke="none" stroke-width="1" fill="none" fill-rule="evenodd">
        <g id="Apple-TV" transform="translate(-836.000000, -220.000000)">
            <g id="Data-Builder小产品" transform="translate(836.000000, 220.000000)">
                <g id="编组备份-7">
                    <rect id="矩形" x="0" y="0" width="22" height="22"></rect>
                    <g id="组件-(1)" transform="translate(7.519796, 6.323755)"></g>
                </g>
                <g id="编组-3备份-3" transform="translate(7.396734, 7.295685)" fill="#FFFFFF" fill-rule="nonzero">
                    <g id="编组-18" transform="translate(0.000000, 0.000000)">
                        <path d="M3.71412933,4.34642614 L6.862,6.17 L3.62609848,7.999 L0.394,6.173 L3.71412933,4.34642614 Z M3.347,0 L3.34712933,3.69942614 L0,5.541 L0.000341657769,1.88959976 L3.347,0 Z M4.246,0.192 L7.2518553,1.88959976 L7.251,5.535 L4.24612933,3.79442614 L4.246,0.192 Z" id="形状结合" transform="translate(3.625928, 3.999500) rotate(-180.000000) translate(-3.625928, -3.999500) "></path>
                    </g>
                </g>
                <path d="M18.9282032,6.5 L18.9282032,15.5 L11.1339746,20 L7.23686028,17.75 M3.33974596,15.5 L3.33974596,6.5 L11.1339746,2 L15.0310889,4.25" id="形状备份-8" stroke="#FFFFFF" stroke-width="1.5"></path>
            </g>
        </g>
    </g>
</svg>