<?xml version="1.0" encoding="UTF-8"?>
<svg width="24px" height="24px" viewBox="0 0 24 24" version="1.1" xmlns="http://www.w3.org/2000/svg" xmlns:xlink="http://www.w3.org/1999/xlink">
    <title>database-fill</title>
    <defs>
        <linearGradient x1="50%" y1="0%" x2="50%" y2="100%" id="linearGradient-1">
            <stop stop-color="#FFFFFF" stop-opacity="0.3" offset="0%"></stop>
            <stop stop-color="#FFFFFF" stop-opacity="0.7" offset="100%"></stop>
        </linearGradient>
    </defs>
    <g id="服务总览" stroke="none" stroke-width="1" fill="none" fill-rule="evenodd">
        <g id="UI：服务总览-#1" transform="translate(-332.000000, -223.000000)" fill-rule="nonzero">
            <g id="统计数据" transform="translate(284.000000, 176.000000)">
                <g id="图标" transform="translate(32.000000, 31.000000)">
                    <g id="database-fill" transform="translate(16.000000, 16.000000)">
                        <rect id="矩形" fill="#000000" opacity="0" x="0" y="0" width="24" height="24"></rect>
                        <path d="M23.4078252,7.86253983 L17.9813603,2.30159982 C17.7931694,2.10874531 17.5351128,2 17.2656528,2 L6.7035094,2 C6.43368548,2 6.17531211,2.1090384 5.98706971,2.30235097 L0.572712495,7.86253983 L0.572712495,7.86253983 C-0.182861087,8.62721893 -0.194854319,9.85313306 0.560719264,10.6299499 L0.572712495,10.6420877 L11.270675,21.6995904 C11.6664516,22.1001365 12.3140861,22.1001365 12.721856,21.6995904 L23.4318117,10.6299499 C24.1873852,9.87740859 24.1873852,8.6393567 23.4438049,7.87467759 C23.4198184,7.87467759 23.4198184,7.87467759 23.4078252,7.86253983 Z M17.3992162,9.65892884 L13.4054702,13.4823244 C12.5899304,14.1984524 11.3906073,14.1984524 10.5750675,13.4823244 L6.58132146,9.65892884 C6.20953128,9.3069337 6.18554482,8.71218328 6.53334853,8.33591261 L6.59331469,8.27522379 C7.00108456,7.88681535 7.63672583,7.88681535 8.0444957,8.27522379 L11.6904381,11.7708997 C11.8583433,11.9286906 12.1102012,11.9286906 12.2781064,11.7708997 L15.9240488,8.27522379 C16.3318186,7.89895312 16.9674599,7.89895312 17.3752298,8.27522379 C17.7590132,8.61508117 17.7829996,9.20983159 17.4471892,9.59824002 C17.4351959,9.62251555 17.4112095,9.64679108 17.3992162,9.65892884 Z" id="形状" fill="url(#linearGradient-1)"></path>
                    </g>
                </g>
            </g>
        </g>
    </g>
</svg>