<?xml version="1.0" encoding="UTF-8"?>
<svg width="22px" height="22px" viewBox="0 0 22 22" version="1.1" xmlns="http://www.w3.org/2000/svg" xmlns:xlink="http://www.w3.org/1999/xlink">
    <title>替补图标</title>
    <g id="图标" stroke="none" stroke-width="1" fill="none" fill-rule="evenodd">
        <g id="替补图标">
            <rect id="矩形" x="0" y="0" width="22" height="22"></rect>
            <g id="编组-8" transform="translate(1.000000, 1.000000)" fill="#FFFFFF">
                <path d="M7,12 C7.55228475,12 8,12.4477153 8,13 L8,19 C8,19.5522847 7.55228475,20 7,20 L1,20 C0.44771525,20 6.76353751e-17,19.5522847 0,19 L0,13 C-6.76353751e-17,12.4477153 0.44771525,12 1,12 L7,12 Z M17.6666667,12 C18.2189514,12 18.6666667,12.4477153 18.6666667,13 L18.6666667,19 C18.6666667,19.5522847 18.2189514,20 17.6666667,20 L11.6666667,20 C11.1143819,20 10.6666667,19.5522847 10.6666667,19 L10.6666667,13 C10.6666667,12.4477153 11.1143819,12 11.6666667,12 L17.6666667,12 Z M7,1.33333333 C7.55228475,1.33333333 8,1.78104858 8,2.33333333 L8,8.33333333 C8,8.88561808 7.55228475,9.33333333 7,9.33333333 L1,9.33333333 C0.44771525,9.33333333 6.76353751e-17,8.88561808 0,8.33333333 L0,2.33333333 C-6.76353751e-17,1.78104858 0.44771525,1.33333333 1,1.33333333 L7,1.33333333 Z" id="形状结合"></path>
                <path d="M15.3737734,0.383585865 L19.6164141,4.62622655 C20.0069384,5.01675084 20.0069384,5.64991582 19.6164141,6.04044011 L15.3737734,10.2830808 C14.9832492,10.6736051 14.3500842,10.6736051 13.9595599,10.2830808 L9.7169192,6.04044011 C9.32639491,5.64991582 9.32639491,5.01675084 9.7169192,4.62622655 L13.9595599,0.383585865 C14.3500842,-0.00693842672 14.9832492,-0.00693842672 15.3737734,0.383585865 Z M15.0202201,1.2871112 C14.8249579,1.09184905 14.5083754,1.09184905 14.3131133,1.2871112 L14.3131133,1.2871112 L10.6204445,4.97977994 C10.4251824,5.17504209 10.4251824,5.49162458 10.6204445,5.68688672 L10.6204445,5.68688672 L14.3131133,9.37955547 C14.5083754,9.57481762 14.8249579,9.57481762 15.0202201,9.37955547 L15.0202201,9.37955547 L18.7128888,5.68688672 C18.9081509,5.49162458 18.9081509,5.17504209 18.7128888,4.97977994 L18.7128888,4.97977994 Z" id="形状结合"></path>
            </g>
        </g>
    </g>
</svg>