<?xml version="1.0" encoding="UTF-8"?>
<svg width="22px" height="20px" viewBox="0 0 22 20" version="1.1" xmlns="http://www.w3.org/2000/svg" xmlns:xlink="http://www.w3.org/1999/xlink">
    <!-- Generator: Sketch 63.1 (92452) - https://sketch.com -->
    <title>1822C404-8822-4AFE-B5BA-76425D23DA95</title>
    <desc>Created with Sketch.</desc>
    <g id="迭代一" stroke="none" stroke-width="1" fill="none" fill-rule="evenodd">
        <g id="Easyops5.0/部署管理（RG列表）备份-7" transform="translate(-131.000000, -726.000000)">
            <g id="编组-19" transform="translate(131.000000, 726.000000)">
                <g id="编组-3">
                    <g id="部署历史" transform="translate(0.000000, -0.000000)">
                        <path d="M10.799429,0.171287594 L10.962406,0.246654135 L18.8154751,4.28281271 C19.4042252,4.58638703 19.7891773,5.13621745 19.8292402,5.74418259 L19.8319891,5.89727614 L19.8323967,11.3624609 C19.4251622,11.2160867 18.9942311,11.1193989 18.5469145,11.0797087 L18.5463978,5.88731032 C18.5463978,5.66930793 18.4319466,5.4665657 18.243102,5.33917056 L18.1577307,5.2893609 L10.3046617,1.25320232 C10.1950376,1.19340738 10.0654819,1.16350991 9.92596036,1.16350991 C9.82131921,1.16350991 9.72228383,1.18032724 9.62885424,1.21396189 L9.53729323,1.25320232 L1.69419002,5.2893609 C1.48917879,5.40040865 1.35006403,5.57735287 1.31450086,5.78253843 L1.3055229,5.88731032 L1.3055229,13.9596275 C1.3055229,14.1776299 1.41997415,14.3803721 1.60881873,14.5077672 L1.69419002,14.5575769 L9.53729323,18.5937355 C9.73376233,18.6962411 9.98880606,18.7108847 10.2020108,18.6376665 L10.3046617,18.5937355 L13.0086454,17.2017762 C13.0860993,17.6073978 13.210971,17.9961936 13.3772715,18.3621746 L10.9524402,19.6102495 C10.6434997,19.7697027 10.28473,19.8593951 9.91599453,19.8593951 C9.62897881,19.8593951 9.34196309,19.8019919 9.07535738,19.6973906 L8.87954887,19.6102495 L1.03644566,15.5740909 C0.447695462,15.2705166 0.0627434104,14.7291778 0.0070037468,14.122519 L1.36779477e-13,13.9695933 L1.36779477e-13,5.89727614 C1.36779477e-13,5.28092828 0.339663575,4.70703837 0.893576483,4.36372776 L1.03644566,4.28281271 L8.87954887,0.246654135 C9.45507519,-0.0548120301 10.1897086,-0.0799342105 10.799429,0.171287594 Z M3.26313954,5.90696293 L3.35848257,5.94710526 L9.47749829,9.01657895 C9.53729323,9.04647642 9.58712235,9.07637389 9.63695147,9.10627136 C9.8163363,9.17603213 10.0256186,9.17603213 10.2050034,9.11623718 L10.2946958,9.06267088 L10.2946958,9.06267088 L10.3843882,9.01657895 L16.7027204,5.94710526 C17.0216268,5.78765208 17.4202597,5.89727614 17.5896787,6.19625085 C17.7511251,6.45635885 17.6704019,6.76490075 17.4201601,6.94024942 L17.3305673,6.99351675 L10.9325085,10.1227854 L10.8627478,10.1526828 C10.7298701,10.2606459 10.6385167,10.4032126 10.6117567,10.563081 L10.6036364,10.6609398 L10.5837047,16.5407758 L10.5837047,16.9394087 C10.5837047,17.0888961 10.5239098,17.2184518 10.4342174,17.31811 C10.3385455,17.4297273 10.1982267,17.5030757 10.043876,17.5279504 L9.92596036,17.5373582 L9.85619959,17.5373582 C9.67349282,17.5207485 9.51154819,17.4349316 9.40496924,17.3145113 L9.34794258,17.2383835 L9.34794258,17.2284176 L9.33797676,17.2047488 L9.33797676,17.2047488 L9.32801094,17.1885543 L9.31804511,17.1686227 L9.30807929,17.1387252 C9.30807929,17.1387252 9.29811347,17.1287594 9.29811347,17.1187936 L9.28939337,17.1038448 L9.28939337,17.1038448 L9.28814764,17.0888961 L9.27818182,17.0589986 L9.27818182,17.0291012 L9.26946172,17.0141524 L9.26946172,17.0141524 L9.26821599,16.9992037 L9.26821599,16.9394087 L9.23831852,10.650974 C9.23831852,10.4765721 9.1621907,10.3090909 9.0330041,10.183134 L8.94930964,10.1128195 L8.90944634,10.0928879 L3.35848257,7.28252563 L2.72066986,6.96361928 C2.66087491,6.9337218 2.60107997,6.89385851 2.56121668,6.85399522 C2.36190021,6.67461039 2.31207109,6.39556733 2.46155844,6.16635338 C2.62300478,5.91521463 2.97011442,5.80937758 3.26313954,5.90696293 Z" id="形状结合" fill="#FFFFFF" fill-rule="nonzero"></path>
                        <circle id="椭圆形备份" stroke="#FFFFFF" stroke-width="0.6" cx="17.8684807" cy="15.8684807" r="2.86848073"></circle>
                        <line x1="19.1723356" y1="15.9988662" x2="17.8684807" y2="15.9985274" id="直线-23备份" stroke="#FFFFFF" stroke-width="0.6" stroke-linecap="round"></line>
                        <line x1="17.8684807" y1="14.3038549" x2="17.8684807" y2="15.9988662" id="直线-23备份-2" stroke="#FFFFFF" stroke-width="0.6" stroke-linecap="round"></line>
                    </g>
                </g>
            </g>
        </g>
    </g>
</svg>