<?xml version="1.0" encoding="UTF-8"?>
<svg width="22px" height="22px" viewBox="0 0 22 22" version="1.1" xmlns="http://www.w3.org/2000/svg" xmlns:xlink="http://www.w3.org/1999/xlink">
    <title>developers</title>
    <g id="页面-1" stroke="none" stroke-width="1" fill="none" fill-rule="evenodd">
        <g id="Apple-TV" transform="translate(-224.000000, -752.000000)">
            <g id="developers" transform="translate(224.000000, 752.000000)">
                <rect id="矩形" x="0" y="0" width="22" height="22"></rect>
                <g transform="translate(0.999500, 2.000000)" id="编组">
                    <g fill="#F2F2F2" fill-rule="nonzero">
                        <g id="Fill-1-Clipped">
                            <path d="M13.353,5.218 L8.833,1.416 L8.833,4.697 C8.833,4.98 9.156,5.218 9.538,5.218 L13.353,5.218 Z M15.059,5.682 L15.059,8.488 C15.059,8.748 14.848,8.96 14.586,8.96 C14.326,8.96 14.115,8.748 14.115,8.488 L14.115,6.118 L9.538,6.118 C8.653,6.118 7.933,5.481 7.933,4.697 L7.933,0.9 L1.605,0.9 C1.223,0.9 0.901,1.138 0.901,1.421 L0.901,15.176 C0.901,15.458 1.223,15.697 1.605,15.697 L11.304,15.697 C11.553,15.697 11.754,15.898 11.754,16.147 C11.754,16.395 11.553,16.597 11.304,16.597 L1.605,16.597 C0.72,16.597 0,15.959 0,15.176 L0,1.421 C0,0.637 0.72,0 1.605,0 L8.367,0 C8.374,0 8.38,0.004 8.388,0.004 C8.491,0.005 8.592,0.037 8.673,0.106 L14.842,5.295 C14.97,5.38 15.059,5.517 15.059,5.682 L15.059,5.682 Z M7.924,7.159 L6.224,11.207 C6.127,11.436 6.235,11.7 6.464,11.796 C6.521,11.82 6.58,11.832 6.638,11.832 C6.814,11.832 6.981,11.728 7.053,11.556 L8.754,7.508 C8.85,7.279 8.743,7.015 8.513,6.919 C8.285,6.823 8.021,6.93 7.924,7.159 L7.924,7.159 Z M11.947,9.191 C11.936,9.163 11.92,9.139 11.903,9.114 C11.892,9.097 11.888,9.078 11.874,9.063 C11.867,9.054 11.857,9.051 11.849,9.043 C11.84,9.035 11.837,9.025 11.829,9.018 L9.82,7.277 C9.633,7.114 9.348,7.135 9.185,7.322 C9.023,7.51 9.042,7.795 9.231,7.957 L10.847,9.358 L9.231,10.758 C9.042,10.921 9.023,11.205 9.185,11.393 C9.274,11.495 9.4,11.548 9.525,11.548 C9.629,11.548 9.735,11.512 9.82,11.438 L11.829,9.698 C11.837,9.69 11.841,9.679 11.85,9.671 C11.857,9.663 11.868,9.66 11.874,9.653 C11.888,9.637 11.892,9.618 11.903,9.602 C11.92,9.576 11.936,9.552 11.947,9.525 C11.957,9.497 11.963,9.47 11.969,9.442 C11.974,9.414 11.979,9.386 11.979,9.358 C11.979,9.329 11.974,9.302 11.969,9.274 C11.963,9.245 11.957,9.218 11.947,9.191 L11.947,9.191 Z M5.747,7.957 L4.13,9.358 L5.747,10.758 C5.935,10.921 5.956,11.205 5.792,11.393 C5.704,11.495 5.578,11.548 5.453,11.548 C5.348,11.548 5.243,11.512 5.158,11.438 L3.149,9.698 C3.14,9.69 3.136,9.679 3.127,9.671 C3.121,9.663 3.11,9.66 3.103,9.653 C3.09,9.637 3.085,9.618 3.075,9.602 C3.058,9.576 3.041,9.552 3.031,9.525 C3.02,9.497 3.014,9.47 3.008,9.442 C3.003,9.414 2.999,9.386 2.999,9.358 C2.999,9.329 3.003,9.302 3.008,9.273 C3.014,9.245 3.02,9.218 3.031,9.191 C3.041,9.163 3.058,9.139 3.075,9.114 C3.085,9.097 3.09,9.078 3.103,9.063 C3.111,9.054 3.122,9.051 3.129,9.043 C3.137,9.035 3.14,9.025 3.149,9.018 L5.158,7.277 C5.345,7.114 5.629,7.135 5.792,7.322 C5.956,7.51 5.935,7.795 5.747,7.957 L5.747,7.957 Z" id="Fill-1"></path>
                        </g>
                    </g>
                    <g transform="translate(12.175200, 10.170750)" id="Fill-3-Clipped">
                        <polygon id="path-4" points="-8.32667268e-17 -2.22044605e-16 7.4343 -2.22044605e-16 7.4343 7.32595 -8.32667268e-17 7.32595"></polygon>
                        <path d="M7.294,6.54925 L4.561,3.95525 C4.539,3.93525 4.513,3.92525 4.488,3.91025 C5.179,2.94325 5.097,1.59325 4.229,0.72525 C3.262,-0.24175 1.692,-0.24175 0.726,0.72525 C-0.242,1.69325 -0.242,3.26125 0.726,4.22825 C1.583,5.08625 2.911,5.17925 3.876,4.51625 C3.897,4.54825 3.912,4.58125 3.94,4.60825 L6.675,7.20225 C6.762,7.28525 6.873,7.32625 6.984,7.32625 C7.104,7.32625 7.223,7.27825 7.312,7.18625 C7.482,7.00525 7.475,6.72025 7.294,6.54925" id="Fill-3" fill="#FFFFFF" fill-rule="nonzero"></path>
                    </g>
                </g>
            </g>
        </g>
    </g>
</svg>