<?xml version="1.0" encoding="UTF-8"?>
<svg width="18px" height="17px" viewBox="0 0 18 17" version="1.1" xmlns="http://www.w3.org/2000/svg" xmlns:xlink="http://www.w3.org/1999/xlink">
    <!-- Generator: Sketch 59.1 (86144) - https://sketch.com -->
    <title>开发者中心</title>
    <desc>Created with Sketch.</desc>
    <defs>
        <polygon id="path-1" points="0 0.45297 13.55265 0.45297 13.55265 15.39027 0 15.39027"></polygon>
        <polygon id="path-3" points="0.15723 0.606645 6.8481 0.606645 6.8481 7.2 0.15723 7.2"></polygon>
    </defs>
    <g id="f" stroke="none" stroke-width="1" fill="none" fill-rule="evenodd">
        <g id="开发者中心">
            <g id="编组" transform="translate(0.000000, 0.447120)">
                <mask id="mask-2" fill="white">
                    <use xlink:href="#path-1"></use>
                </mask>
                <g id="Clip-2"></g>
                <path d="M12.01725,5.14917 L7.94925,1.72737 L7.94925,4.68027 C7.94925,4.93497 8.23995,5.14917 8.58375,5.14917 L12.01725,5.14917 Z M13.55265,5.56677 L13.55265,8.09217 C13.55265,8.32617 13.36275,8.51697 13.12695,8.51697 C12.89295,8.51697 12.70305,8.32617 12.70305,8.09217 L12.70305,5.95917 L8.58375,5.95917 C7.78725,5.95917 7.13925,5.38587 7.13925,4.68027 L7.13925,1.26297 L1.44405,1.26297 C1.10025,1.26297 0.81045,1.47717 0.81045,1.73187 L0.81045,14.11137 C0.81045,14.36517 1.10025,14.58027 1.44405,14.58027 L10.17315,14.58027 C10.39725,14.58027 10.57815,14.76117 10.57815,14.98527 C10.57815,15.20847 10.39725,15.39027 10.17315,15.39027 L1.44405,15.39027 C0.64755,15.39027 -0.00045,14.81607 -0.00045,14.11137 L-0.00045,1.73187 C-0.00045,1.02627 0.64755,0.45297 1.44405,0.45297 L7.52985,0.45297 C7.53615,0.45297 7.54155,0.45657 7.54875,0.45657 C7.64145,0.45747 7.73235,0.48627 7.80525,0.54837 L13.35735,5.21847 C13.47255,5.29497 13.55265,5.41827 13.55265,5.56677 L13.55265,5.56677 Z M7.13115,6.89607 L5.60115,10.53927 C5.51385,10.74537 5.61105,10.98297 5.81715,11.06937 C5.86845,11.09097 5.92155,11.10177 5.97375,11.10177 C6.13215,11.10177 6.28245,11.00817 6.34725,10.85337 L7.87815,7.21017 C7.96455,7.00407 7.86825,6.76647 7.66125,6.68007 C7.45605,6.59367 7.21845,6.68997 7.13115,6.89607 L7.13115,6.89607 Z M10.75185,8.72487 C10.74195,8.69967 10.72755,8.67807 10.71225,8.65557 C10.70235,8.64027 10.69875,8.62317 10.68615,8.60967 C10.67985,8.60157 10.67085,8.59887 10.66365,8.59167 C10.65555,8.58447 10.65285,8.57547 10.64565,8.56917 L8.83755,7.00227 C8.66925,6.85557 8.41275,6.87447 8.26605,7.04277 C8.12025,7.21197 8.13735,7.46847 8.30745,7.61427 L9.76185,8.87517 L8.30745,10.13517 C8.13735,10.28187 8.12025,10.53747 8.26605,10.70667 C8.34615,10.79847 8.45955,10.84617 8.57205,10.84617 C8.66565,10.84617 8.76105,10.81377 8.83755,10.74717 L10.64565,9.18117 C10.65285,9.17397 10.65645,9.16407 10.66455,9.15687 C10.67085,9.14967 10.68075,9.14697 10.68615,9.14067 C10.69875,9.12627 10.70235,9.10917 10.71225,9.09477 C10.72755,9.07137 10.74195,9.04977 10.75185,9.02547 C10.76085,9.00027 10.76625,8.97597 10.77165,8.95077 C10.77615,8.92557 10.78065,8.90037 10.78065,8.87517 C10.78065,8.84907 10.77615,8.82477 10.77165,8.79957 C10.76625,8.77347 10.76085,8.74917 10.75185,8.72487 L10.75185,8.72487 Z M5.17185,7.61427 L3.71655,8.87517 L5.17185,10.13517 C5.34105,10.28187 5.35995,10.53747 5.21235,10.70667 C5.13315,10.79847 5.01975,10.84617 4.90725,10.84617 C4.81275,10.84617 4.71825,10.81377 4.64175,10.74717 L2.83365,9.18117 C2.82555,9.17397 2.82195,9.16407 2.81385,9.15687 C2.80845,9.14967 2.79855,9.14697 2.79225,9.14067 C2.78055,9.12627 2.77605,9.10917 2.76705,9.09477 C2.75175,9.07137 2.73645,9.04977 2.72745,9.02547 C2.71755,9.00027 2.71215,8.97597 2.70675,8.95077 C2.70225,8.92557 2.69865,8.90037 2.69865,8.87517 C2.69865,8.84907 2.70225,8.82477 2.70675,8.79867 C2.71215,8.77347 2.71755,8.74917 2.72745,8.72487 C2.73645,8.69967 2.75175,8.67807 2.76705,8.65557 C2.77605,8.64027 2.78055,8.62317 2.79225,8.60967 C2.79945,8.60157 2.80935,8.59887 2.81565,8.59167 C2.82285,8.58447 2.82555,8.57547 2.83365,8.56917 L4.64175,7.00227 C4.81005,6.85557 5.06565,6.87447 5.21235,7.04277 C5.35995,7.21197 5.34105,7.46847 5.17185,7.61427 L5.17185,7.61427 Z" id="Fill-1" fill="#F2F2F2" mask="url(#mask-2)"></path>
            </g>
            <g id="编组" transform="translate(10.800000, 9.447120)">
                <mask id="mask-4" fill="white">
                    <use xlink:href="#path-3"></use>
                </mask>
                <g id="Clip-4"></g>
                <path d="M6.72183,6.50097 L4.26213,4.16637 C4.24233,4.14837 4.21893,4.13937 4.19643,4.12587 C4.81833,3.25557 4.74453,2.04057 3.96333,1.25937 C3.09303,0.38907 1.68003,0.38907 0.81063,1.25937 C-0.06057,2.13057 -0.06057,3.54177 0.81063,4.41207 C1.58193,5.18427 2.77713,5.26797 3.64563,4.67127 C3.66453,4.70007 3.67803,4.72977 3.70323,4.75407 L6.16473,7.08867 C6.24303,7.16337 6.34293,7.20027 6.44283,7.20027 C6.55083,7.20027 6.65793,7.15707 6.73803,7.07427 C6.89103,6.91137 6.88473,6.65487 6.72183,6.50097" id="Fill-3" fill="#FFFFFF" mask="url(#mask-4)"></path>
            </g>
        </g>
    </g>
</svg>