<?xml version="1.0" encoding="UTF-8"?>
<svg width="22px" height="22px" viewBox="0 0 22 22" version="1.1" xmlns="http://www.w3.org/2000/svg" xmlns:xlink="http://www.w3.org/1999/xlink">
    <title>开发者中心小产品</title>
    <g id="页面-1" stroke="none" stroke-width="1" fill="none" fill-rule="evenodd">
        <g id="Apple-TV" transform="translate(-352.000000, -220.000000)">
            <g id="开发者中心小产品" transform="translate(352.000000, 220.000000)">
                <g id="编组备份-3">
                    <rect id="矩形" x="0" y="0" width="22" height="22"></rect>
                    <g id="组件-(1)" transform="translate(7.519796, 6.323755)"></g>
                </g>
                <path d="M18.9282032,6.5 L18.9282032,15.5 L11.1339746,20 L7.23686028,17.75 M3.33974596,15.5 L3.33974596,6.5 L11.1339746,2 L15.0310889,4.25" id="形状" stroke="#FFFFFF" stroke-width="1.5"></path>
                <path d="M10.9363636,7 C11.3221331,7 11.6921024,7.15324631 11.9648826,7.4260265 C12.2376628,7.69880669 12.3909091,8.06877602 12.3909091,8.45454546 L13.8454545,8.45454546 L13.8454545,9.90909091 C14.6488782,9.9089905 15.3002632,10.5602127 15.3003636,11.3636364 C15.300464,12.1670601 14.6492419,12.818445 13.8458182,12.8185455 L13.8454545,15 L11.2549091,15 L11.2549091,14.0683636 C11.2549091,13.7795689 11.0207947,13.5454545 10.732,13.5454545 C10.4432053,13.5454545 10.2090909,13.7795689 10.2090909,14.0683636 L10.2090909,15 L7.3,15 L7.3,12.0909091 L8.2090909,12.0909091 C8.51033713,12.0909091 8.75454545,11.8467008 8.75454545,11.5454545 C8.75454545,11.2442083 8.51033713,11 8.2090909,11 L7.3,11 L7.3,8.45454546 L9.48181818,8.45454546 C9.48181818,8.06877602 9.63506449,7.69880669 9.90784467,7.4260265 C10.1806249,7.15324631 10.5505942,7 10.9363636,7 Z" id="形状" fill="#FFFFFF" fill-rule="nonzero"></path>
            </g>
        </g>
    </g>
</svg>