<?xml version="1.0" encoding="UTF-8"?>
<svg width="20px" height="20px" viewBox="0 0 20 20" version="1.1" xmlns="http://www.w3.org/2000/svg" xmlns:xlink="http://www.w3.org/1999/xlink">
    <!-- Generator: Sketch 58 (84663) - https://sketch.com -->
    <title>开发者中心</title>
    <desc>Created with Sketch.</desc>
    <defs>
        <polygon id="path-1" points="0 0.5033 15.0585 0.5033 15.0585 17.1003 0 17.1003"></polygon>
        <polygon id="path-3" points="0.1747 0.67405 7.609 0.67405 7.609 8 0.1747 8"></polygon>
    </defs>
    <g id="页面-1" stroke="none" stroke-width="1" fill="none" fill-rule="evenodd">
        <g id="画板备份-8">
            <g id="开发者中心">
                <g id="编组" transform="translate(0.000000, 0.496800)">
                    <mask id="mask-2" fill="white">
                        <use xlink:href="#path-1"></use>
                    </mask>
                    <g id="Clip-2"></g>
                    <path d="M13.3525,5.7213 L8.8325,1.9193 L8.8325,5.2003 C8.8325,5.4833 9.1555,5.7213 9.5375,5.7213 L13.3525,5.7213 Z M15.0585,6.1853 L15.0585,8.9913 C15.0585,9.2513 14.8475,9.4633 14.5855,9.4633 C14.3255,9.4633 14.1145,9.2513 14.1145,8.9913 L14.1145,6.6213 L9.5375,6.6213 C8.6525,6.6213 7.9325,5.9843 7.9325,5.2003 L7.9325,1.4033 L1.6045,1.4033 C1.2225,1.4033 0.9005,1.6413 0.9005,1.9243 L0.9005,15.6793 C0.9005,15.9613 1.2225,16.2003 1.6045,16.2003 L11.3035,16.2003 C11.5525,16.2003 11.7535,16.4013 11.7535,16.6503 C11.7535,16.8983 11.5525,17.1003 11.3035,17.1003 L1.6045,17.1003 C0.7195,17.1003 -0.0005,16.4623 -0.0005,15.6793 L-0.0005,1.9243 C-0.0005,1.1403 0.7195,0.5033 1.6045,0.5033 L8.3665,0.5033 C8.3735,0.5033 8.3795,0.5073 8.3875,0.5073 C8.4905,0.5083 8.5915,0.5403 8.6725,0.6093 L14.8415,5.7983 C14.9695,5.8833 15.0585,6.0203 15.0585,6.1853 L15.0585,6.1853 Z M7.9235,7.6623 L6.2235,11.7103 C6.1265,11.9393 6.2345,12.2033 6.4635,12.2993 C6.5205,12.3233 6.5795,12.3353 6.6375,12.3353 C6.8135,12.3353 6.9805,12.2313 7.0525,12.0593 L8.7535,8.0113 C8.8495,7.7823 8.7425,7.5183 8.5125,7.4223 C8.2845,7.3263 8.0205,7.4333 7.9235,7.6623 L7.9235,7.6623 Z M11.9465,9.6943 C11.9355,9.6663 11.9195,9.6423 11.9025,9.6173 C11.8915,9.6003 11.8875,9.5813 11.8735,9.5663 C11.8665,9.5573 11.8565,9.5543 11.8485,9.5463 C11.8395,9.5383 11.8365,9.5283 11.8285,9.5213 L9.8195,7.7803 C9.6325,7.6173 9.3475,7.6383 9.1845,7.8253 C9.0225,8.0133 9.0415,8.2983 9.2305,8.4603 L10.8465,9.8613 L9.2305,11.2613 C9.0415,11.4243 9.0225,11.7083 9.1845,11.8963 C9.2735,11.9983 9.3995,12.0513 9.5245,12.0513 C9.6285,12.0513 9.7345,12.0153 9.8195,11.9413 L11.8285,10.2013 C11.8365,10.1933 11.8405,10.1823 11.8495,10.1743 C11.8565,10.1663 11.8675,10.1633 11.8735,10.1563 C11.8875,10.1403 11.8915,10.1213 11.9025,10.1053 C11.9195,10.0793 11.9355,10.0553 11.9465,10.0283 C11.9565,10.0003 11.9625,9.9733 11.9685,9.9453 C11.9735,9.9173 11.9785,9.8893 11.9785,9.8613 C11.9785,9.8323 11.9735,9.8053 11.9685,9.7773 C11.9625,9.7483 11.9565,9.7213 11.9465,9.6943 L11.9465,9.6943 Z M5.7465,8.4603 L4.1295,9.8613 L5.7465,11.2613 C5.9345,11.4243 5.9555,11.7083 5.7915,11.8963 C5.7035,11.9983 5.5775,12.0513 5.4525,12.0513 C5.3475,12.0513 5.2425,12.0153 5.1575,11.9413 L3.1485,10.2013 C3.1395,10.1933 3.1355,10.1823 3.1265,10.1743 C3.1205,10.1663 3.1095,10.1633 3.1025,10.1563 C3.0895,10.1403 3.0845,10.1213 3.0745,10.1053 C3.0575,10.0793 3.0405,10.0553 3.0305,10.0283 C3.0195,10.0003 3.0135,9.9733 3.0075,9.9453 C3.0025,9.9173 2.9985,9.8893 2.9985,9.8613 C2.9985,9.8323 3.0025,9.8053 3.0075,9.7763 C3.0135,9.7483 3.0195,9.7213 3.0305,9.6943 C3.0405,9.6663 3.0575,9.6423 3.0745,9.6173 C3.0845,9.6003 3.0895,9.5813 3.1025,9.5663 C3.1105,9.5573 3.1215,9.5543 3.1285,9.5463 C3.1365,9.5383 3.1395,9.5283 3.1485,9.5213 L5.1575,7.7803 C5.3445,7.6173 5.6285,7.6383 5.7915,7.8253 C5.9555,8.0133 5.9345,8.2983 5.7465,8.4603 L5.7465,8.4603 Z" id="Fill-1" fill="#FFFFFF" mask="url(#mask-2)"></path>
                </g>
                <g id="编组" transform="translate(12.000000, 10.496800)">
                    <mask id="mask-4" fill="white">
                        <use xlink:href="#path-3"></use>
                    </mask>
                    <g id="Clip-4"></g>
                    <path d="M7.4687,7.2233 L4.7357,4.6293 C4.7137,4.6093 4.6877,4.5993 4.6627,4.5843 C5.3537,3.6173 5.2717,2.2673 4.4037,1.3993 C3.4367,0.4323 1.8667,0.4323 0.9007,1.3993 C-0.0673,2.3673 -0.0673,3.9353 0.9007,4.9023 C1.7577,5.7603 3.0857,5.8533 4.0507,5.1903 C4.0717,5.2223 4.0867,5.2553 4.1147,5.2823 L6.8497,7.8763 C6.9367,7.9593 7.0477,8.0003 7.1587,8.0003 C7.2787,8.0003 7.3977,7.9523 7.4867,7.8603 C7.6567,7.6793 7.6497,7.3943 7.4687,7.2233" id="Fill-3" fill="#FFFFFF" mask="url(#mask-4)"></path>
                </g>
            </g>
        </g>
    </g>
</svg>