<?xml version="1.0" encoding="UTF-8"?>
<svg width="20px" height="20px" viewBox="0 0 20 20" version="1.1" xmlns="http://www.w3.org/2000/svg" xmlns:xlink="http://www.w3.org/1999/xlink">
    <title>019AF653-DE04-4487-BDE0-637E3388B293</title>
    <defs>
        <polygon id="path-1" points="0.4477 0.645574181 7.8 0.645574181 7.8 8 0.4477 8"></polygon>
    </defs>
    <g id="03.01版" stroke="none" stroke-width="1" fill="none" fill-rule="evenodd">
        <g id="制作工坊">
            <path d="M14.8847,0 C15.7093345,0 16.3901069,0.634959425 16.4632031,1.44106405 L16.4697,1.585 L16.4697,4.606 L15.4697,4.606 L15.4697,1.585 C15.4697,1.29622814 15.2557447,1.05339563 14.9790484,1.00771684 L14.8847,1 L3.2147,1 C2.92592814,1 2.68309563,1.21395532 2.63741684,1.4906516 L2.6297,1.585 L2.6297,3.606 L1.6297,3.606 L1.6297,1.585 C1.6297,0.760365535 2.26465942,0.0795930841 3.07076405,0.00649686881 L3.2147,0 L14.8847,0 Z" id="Stroke-1" fill="#FFFFFF" fill-rule="nonzero"></path>
            <path d="M1.6657551,2.72571888 L6.56382141,2.68315408 L8.944,4.618 L15.9917065,4.5577193 C16.7890173,4.55071306 17.4520813,5.15144883 17.5295505,5.92455539 L17.5370508,6.06268666 L17.586101,9.55568666 C17.5899242,9.83180187 17.3692285,10.0587775 17.0931133,10.0626508 C16.8476776,10.0660938 16.6410682,9.89209956 16.5954647,9.65946713 L16.5861492,9.56971334 L16.5371196,6.07413245 C16.5348638,5.81967079 16.3452977,5.60748013 16.0963483,5.56528582 L16.0004585,5.557681 L8.59338455,5.62225076 L6.212,3.686 L1.67470103,3.72567883 C1.33199265,3.72883259 1.05200938,3.97970236 1.00648105,4.30083997 L1.00002793,4.39911184 L1.1250783,18.0260418 C1.1281851,18.3595053 1.38140211,18.6355692 1.70928006,18.6804318 L1.80970782,18.6867807 L10.0667078,18.5977291 C10.3428341,18.5947511 10.5690929,18.8161815 10.5720709,19.0923078 C10.5747181,19.3377534 10.4000548,19.5437975 10.1672757,19.5886465 L10.0774922,19.5976709 L1.81966847,19.6868027 C0.942528103,19.6947454 0.214174509,19.0323591 0.132636322,18.1791707 L0.125121052,18.0352882 L-1.71028024e-06,4.40831858 C-0.0079947084,3.53524922 0.662220948,2.81392771 1.52096877,2.7331645 L1.6657551,2.72571888 Z" id="Stroke-3" fill="#FFFFFF" fill-rule="nonzero"></path>
            <path d="M10.4504,10.4199 C10.8196024,10.4199 11.1189,10.7191976 11.1189,11.0884 C11.1189,11.4240385 10.8715466,11.7019045 10.549186,11.7496517 L10.4504,11.7569 L3.6424,11.7569 C3.27319764,11.7569 2.9739,11.4576024 2.9739,11.0884 C2.9739,10.7527615 3.22125343,10.4748955 3.54361397,10.4271483 L3.6424,10.4199 L10.4504,10.4199 Z" id="Stroke-5" fill="#FFFFFF" fill-rule="nonzero"></path>
            <path d="M7.8024,13.8618 C8.17160236,13.8618 8.4709,14.1610976 8.4709,14.5303 C8.4709,14.8659385 8.22354657,15.1438045 7.90118603,15.1915517 L7.8024,15.1988 L3.6424,15.1988 C3.27319764,15.1988 2.9739,14.8995024 2.9739,14.5303 C2.9739,14.1946615 3.22125343,13.9167955 3.54361397,13.8690483 L3.6424,13.8618 L7.8024,13.8618 Z" id="Stroke-7" fill="#FFFFFF" fill-rule="nonzero"></path>
            <g id="编组" transform="translate(12.000000, 11.881900)">
                <mask id="mask-2" fill="white">
                    <use xlink:href="#path-1"></use>
                </mask>
                <g id="Clip-10"></g>
                <path d="M1.4002,7.5 C1.1502,7.5 0.9472,7.297 0.9472,7.046 C0.9472,6.795 1.1502,6.592 1.4002,6.592 C1.6512,6.592 1.8542,6.795 1.8542,7.046 C1.8542,7.297 1.6512,7.5 1.4002,7.5 M7.5982,1.968 C7.4802,2.104 7.2592,2.288 6.9722,2.561 C6.6532,2.88 6.2152,2.88 5.9112,2.561 C5.5902,2.241 5.5902,1.799 5.9112,1.498 C6.1782,1.211 6.4992,0.858 6.4842,0.858 C5.6262,0.455 4.6062,0.636 3.9392,1.311 C3.3142,1.936 3.1302,2.847 3.3992,3.642 L0.7372,6.289 C0.3512,6.683 0.3512,7.313 0.7372,7.708 C1.1232,8.098 1.7662,8.098 2.1712,7.708 L4.8332,5.042 C5.6242,5.311 6.5352,5.126 7.1602,4.501 C7.8332,3.826 7.9692,2.811 7.5982,1.968" id="Fill-9" fill="#FFFFFF" mask="url(#mask-2)"></path>
            </g>
        </g>
    </g>
</svg>