<?xml version="1.0" encoding="UTF-8"?>
<svg width="20px" height="20px" viewBox="0 0 20 20" version="1.1" xmlns="http://www.w3.org/2000/svg" xmlns:xlink="http://www.w3.org/1999/xlink">
    <title>制作工坊</title>
    <g id="页面-2" stroke="none" stroke-width="1" fill="none" fill-rule="evenodd">
        <g id="画板" transform="translate(-135.000000, -272.000000)" fill="#FFFFFF" fill-rule="nonzero">
            <g id="制作工坊" transform="translate(135.000000, 272.000000)">
                <path d="M14.8847725,0 C15.709407,0 16.3901794,0.634959425 16.4632756,1.44106405 L16.4697725,1.585 L16.4697725,4.606 L15.4697725,4.606 L15.4697725,1.585 C15.4697725,1.29622814 15.2558172,1.05339563 14.9791209,1.00771684 L14.8847725,1 L3.21477246,1 C2.9260006,1 2.68316809,1.21395532 2.6374893,1.4906516 L2.62977246,1.585 L2.62977246,3.606 L1.62977246,3.606 L1.62977246,1.585 C1.62977246,0.760365535 2.26473188,0.0795930841 3.07083651,0.00649686881 L3.21477246,0 L14.8847725,0 Z" id="Stroke-1"></path>
                <path d="M1.66582756,2.72571888 L6.56389387,2.68315408 L8.94407246,4.618 L15.991779,4.5577193 C16.7890898,4.55071306 17.4521538,5.15144883 17.529623,5.92455539 L17.5371233,6.06268666 L17.5862224,9.55568666 C17.5899967,9.83180187 17.369301,10.0587775 17.0931858,10.0626508 C16.8477501,10.0660938 16.6411407,9.89209956 16.5955372,9.65946713 L16.5862217,9.56971334 L16.5371921,6.07413245 C16.5349363,5.81967079 16.3453702,5.60748013 16.0964208,5.56528582 L16.000531,5.557681 L8.59345701,5.62225076 L6.21207246,3.686 L1.67477349,3.72567883 C1.33206511,3.72883259 1.05208184,3.97970236 1.00655351,4.30083997 L1.00010039,4.39911184 L1.12515076,18.0260418 C1.12825756,18.3595053 1.38147457,18.6355692 1.70935252,18.6804318 L1.80978028,18.6867807 L10.0667803,18.5977291 C10.3429066,18.5947511 10.5691654,18.8161815 10.5721434,19.0923078 C10.5747906,19.3377534 10.4001273,19.5437975 10.1673482,19.5886465 L10.0775647,19.5976709 L1.81974093,19.6868734 C0.942600565,19.6947454 0.214246971,19.0323591 0.132708784,18.1791707 L0.125193514,18.0352882 L0,4.40831858 C-0.00792224676,3.53524922 0.66229341,2.81392771 1.52104123,2.7331645 L1.66582756,2.72571888 Z" id="Stroke-3"></path>
                <path d="M10.4504725,10.4199 C10.8196749,10.4199 11.1189725,10.7191976 11.1189725,11.0884 C11.1189725,11.4240385 10.8716191,11.7019045 10.5492585,11.7496517 L10.4504725,11.7569 L3.64247246,11.7569 C3.2732701,11.7569 2.97397246,11.4576024 2.97397246,11.0884 C2.97397246,10.7527615 3.22132589,10.4748955 3.54368643,10.4271483 L3.64247246,10.4199 L10.4504725,10.4199 Z" id="Stroke-5"></path>
                <path d="M7.80247246,13.8618 C8.17167482,13.8618 8.47097246,14.1610976 8.47097246,14.5303 C8.47097246,14.8659385 8.22361903,15.1438045 7.90125849,15.1915517 L7.80247246,15.1988 L3.64247246,15.1988 C3.2732701,15.1988 2.97397246,14.8995024 2.97397246,14.5303 C2.97397246,14.1946615 3.22132589,13.9167955 3.54368643,13.8690483 L3.64247246,13.8618 L7.80247246,13.8618 Z" id="Stroke-7"></path>
                <g id="Fill-9-Clipped" transform="translate(12.447772, 12.527474)">
                    <path d="M0.9525,6.85442582 C0.7025,6.85442582 0.4995,6.65142582 0.4995,6.40042582 C0.4995,6.14942582 0.7025,5.94642582 0.9525,5.94642582 C1.2035,5.94642582 1.4065,6.14942582 1.4065,6.40042582 C1.4065,6.65142582 1.2035,6.85442582 0.9525,6.85442582 M7.1505,1.32242582 C7.0325,1.45842582 6.8115,1.64242582 6.5245,1.91542582 C6.2055,2.23442582 5.7675,2.23442582 5.4635,1.91542582 C5.1425,1.59542582 5.1425,1.15342582 5.4635,0.852425819 C5.7305,0.565425819 6.0515,0.212425819 6.0365,0.212425819 C5.1785,-0.190574181 4.1585,-0.00957418081 3.4915,0.665425819 C2.8665,1.29042582 2.6825,2.20142582 2.9515,2.99642582 L0.2895,5.64342582 C-0.0965,6.03742582 -0.0965,6.66742582 0.2895,7.06242582 C0.6755,7.45242582 1.3185,7.45242582 1.7235,7.06242582 L4.3855,4.39642582 C5.1765,4.66542582 6.0875,4.48042582 6.7125,3.85542582 C7.3855,3.18042582 7.5215,2.16542582 7.1505,1.32242582" id="Fill-9"></path>
                </g>
            </g>
        </g>
    </g>
</svg>