<?xml version="1.0" encoding="UTF-8"?>
<svg width="22px" height="22px" viewBox="0 0 22 22" version="1.1" xmlns="http://www.w3.org/2000/svg" xmlns:xlink="http://www.w3.org/1999/xlink">
    <title>优维故障反馈中心小产品图标</title>
    <g id="页面-1" stroke="none" stroke-width="1" fill="none" fill-rule="evenodd">
        <g id="Apple-TV" transform="translate(-1170.000000, -207.000000)">
            <g id="优维故障反馈中心小产品图标" transform="translate(1170.000000, 207.000000)">
                <rect id="矩形" x="0" y="0" width="22" height="22"></rect>
                <g id="故障上报备份-2" transform="translate(1.000000, 1.000000)" fill="#FFFFFF" fill-rule="nonzero">
                    <path d="M9.92283104,0 C10.6503071,0 11.3027857,0.39998686 11.630275,1.04746559 L11.630275,1.04746559 L15.1551592,8.03973589 C15.282655,8.29722743 15.1776584,8.61221708 14.917667,8.74221281 C14.6551756,8.86970862 14.3401859,8.76471207 14.2076903,8.50722053 L14.2076903,8.50722053 L10.6828061,1.51495023 C10.5378108,1.22495976 10.2503203,1.04996551 9.92283104,1.04996551 C9.5953418,1.04996551 9.31035117,1.22495976 9.16285601,1.51495023 L9.16285601,1.51495023 L1.15061922,17.4169278 C1.01562366,17.684419 1.03062316,17.9869091 1.18811799,18.2394008 C1.34561281,18.4918925 1.61060411,18.6393877 1.91059425,18.6393877 L1.91059425,18.6393877 L12.9402319,18.6393877 C13.2327223,18.6393877 13.4677146,18.87438 13.4677146,19.1643704 C13.4677146,19.4543609 13.2302224,19.6893532 12.9402319,19.6893532 L12.9402319,19.6893532 L1.91059425,19.6893532 C1.2456161,19.6893532 0.638136056,19.3518643 0.288147554,18.7918827 C-0.0643408669,18.2269012 -0.0943398814,17.5419237 0.203150346,16.9494432 L0.203150346,16.9494432 L8.21788705,1.04496567 C8.54287638,0.39998686 9.19535494,0 9.92283104,0 Z M9.63037712,14.7206153 C10.5354063,14.7206153 11.270051,15.4508344 11.270051,16.3470124 C11.270051,17.2431904 10.5354063,17.9734096 9.63037712,17.9734096 C8.72534796,17.9734096 7.99070327,17.2431904 7.99070327,16.3470124 C7.99070327,15.4508344 8.72756075,14.7206153 9.63037712,14.7206153 Z M9.64144105,5.68581322 C10.8385579,5.68581322 11.8099706,6.65058757 11.8099706,7.83885324 L11.8099706,7.83885324 L11.8095103,8.00723734 C11.8076693,8.16280499 11.7984641,8.3203553 11.7524381,8.55579565 L11.7524381,8.55579565 L10.9226437,12.9636638 C10.8518346,13.3885186 10.4889378,13.6960957 10.0552319,13.6960957 L10.0552319,13.6960957 L9.22543742,13.6960957 C8.78951873,13.6960957 8.42662196,13.3863058 8.35802562,12.9592382 L8.35802562,12.9592382 L7.52823116,8.3234532 C7.49061381,8.16191988 7.47291153,8.00259934 7.47291153,7.83885324 C7.47291153,6.65058757 8.44432424,5.68581322 9.64144105,5.68581322 Z" id="形状结合"></path>
                    <polygon id="路径" points="17.1668371 8.76221215 17.1668371 18.2619001 18.5600473 18.2619001 18.5600473 13.1070694 20 13.1070694"></polygon>
                    <polygon id="路径" points="13.2977202 15.6569857 16.1342537 19.999343 16.1342537 10.502155 14.7376729 10.502155 14.7376729 15.6569857"></polygon>
                </g>
            </g>
        </g>
    </g>
</svg>