<?xml version="1.0" encoding="UTF-8"?>
<svg width="20px" height="20px" viewBox="0 0 20 20" version="1.1" xmlns="http://www.w3.org/2000/svg" xmlns:xlink="http://www.w3.org/1999/xlink">
    <title>上线审批</title>
    <g id="页面-2" stroke="none" stroke-width="1" fill="none" fill-rule="evenodd">
        <g id="画板" transform="translate(-97.000000, -290.000000)">
            <g id="上线审批" transform="translate(97.000000, 290.000000)">
                <path d="M13.812,0 C15.7032402,0 17.2596138,1.49468989 17.358057,3.36206206 L17.363,3.55 L17.363,7.285 C17.363,7.56114237 17.1391424,7.785 16.863,7.785 C16.6175401,7.785 16.4133916,7.60812484 16.3710557,7.37487563 L16.363,7.285 L16.363,3.55 C16.363,2.20444734 15.3041719,1.09227579 13.9789791,1.00545495 L13.812,1 L3.551,1 C2.20559062,1 1.09236565,2.05869035 1.00546031,3.38311964 L1,3.55 L1,15.02 C1,16.3645928 2.05974988,17.4776474 3.38413152,17.5645404 L3.551,17.57 L8.938,17.57 C9.21414237,17.57 9.438,17.7938576 9.438,18.07 C9.438,18.3154599 9.26112484,18.5196084 9.02787563,18.5619443 L8.938,18.57 L3.551,18.57 C1.66072771,18.57 0.103448614,17.0743737 0.00494597957,15.2078473 L0,15.02 L0,3.55 C0,1.65933799 1.49600314,0.103359995 3.36309547,0.00494170834 L3.551,0 L13.812,0 Z" id="Stroke-1" fill="#FFFFFF" fill-rule="nonzero"></path>
                <path d="M5.9204,5.3991 C5.9204,6.0921 5.3584,6.6541 4.6654,6.6541 C3.9724,6.6541 3.4104,6.0921 3.4104,5.3991 C3.4104,4.7061 3.9724,4.1441 4.6654,4.1441 C5.3584,4.1441 5.9204,4.7061 5.9204,5.3991" id="Fill-3" fill="#FFFFFF" fill-rule="nonzero"></path>
                <path d="M4.4146,5.5197 L11.4246,5.5197 C12.2526,5.5197 12.9306,6.1977 12.9306,7.0257 C12.9306,7.8537 12.2526,8.5317 11.4246,8.5317 L5.9206,8.5317" id="Stroke-5" stroke="#FFFFFF"></path>
                <path d="M9.936,8.5319 L5.92,8.5319 C5.092,8.5319 4.415,9.2099 4.415,10.0379 C4.415,10.8659 5.092,11.5439 5.92,11.5439 L9.186,11.5439" id="Stroke-7" stroke="#FFFFFF" stroke-linecap="round" stroke-linejoin="round"></path>
                <path d="M18.0122,13.9133 L16.0552,13.9133 L16.0552,13.0693 C16.7992,12.7673 17.3252,12.0413 17.3252,11.1903 C17.3252,10.0693 16.4152,9.1603 15.2942,9.1603 C14.1732,9.1603 13.2642,10.0693 13.2642,11.1903 C13.2642,12.0413 13.7892,12.7673 14.5332,13.0693 L14.5332,13.9133 L12.5762,13.9133 C12.0472,13.9133 11.6152,14.3463 11.6152,14.8753 L11.6152,16.2503 C11.6152,16.7793 12.0472,17.2123 12.5762,17.2123 L18.0122,17.2123 C18.5402,17.2123 18.9732,16.7793 18.9732,16.2503 L18.9732,14.8753 C18.9732,14.3463 18.5402,13.9133 18.0122,13.9133" id="Fill-9" fill="#FFFFFF" fill-rule="nonzero"></path>
                <line x1="11.814" y1="18.697" x2="18.775" y2="18.697" id="Stroke-11" stroke="#FFFFFF" stroke-linecap="round" stroke-linejoin="round"></line>
            </g>
        </g>
    </g>
</svg>