<?xml version="1.0" encoding="UTF-8"?>
<svg width="20px" height="20px" viewBox="0 0 20 20" version="1.1" xmlns="http://www.w3.org/2000/svg" xmlns:xlink="http://www.w3.org/1999/xlink">
    <title>3E113669-2D6A-43F7-BE73-90A4BD7D0A9A</title>
    <g id="03.01版" stroke="none" stroke-width="1" fill="none" fill-rule="evenodd">
        <g id="上线审批">
            <path d="M13.8115,0.0004 C15.7027402,0.0004 17.2591138,1.49508989 17.357557,3.36246206 L17.3625,3.5504 L17.3625,7.2854 C17.3625,7.56154237 17.1386424,7.7854 16.8625,7.7854 C16.6170401,7.7854 16.4128916,7.60852484 16.3705557,7.37527563 L16.3625,7.2854 L16.3625,3.5504 C16.3625,2.20484734 15.3036719,1.09267579 13.9784791,1.00585495 L13.8115,1.0004 L3.5505,1.0004 C2.20509062,1.0004 1.09186565,2.05909035 1.00496031,3.38351964 L0.9995,3.5504 L0.9995,15.0204 C0.9995,16.3649928 2.05924988,17.4780474 3.38363152,17.5649404 L3.5505,17.5704 L8.9375,17.5704 C9.21364237,17.5704 9.4375,17.7942576 9.4375,18.0704 C9.4375,18.3158599 9.26062484,18.5200084 9.02737563,18.5623443 L8.9375,18.5704 L3.5505,18.5704 C1.66022771,18.5704 0.102948614,17.0747737 0.00444597957,15.2082473 L-0.0005,15.0204 L-0.0005,3.5504 C-0.0005,1.65973799 1.49550314,0.103759995 3.36259547,0.00534170834 L3.5505,0.0004 L13.8115,0.0004 Z" id="Stroke-1" fill="#FFFFFF" fill-rule="nonzero"></path>
            <path d="M5.9199,5.3995 C5.9199,6.0925 5.3579,6.6545 4.6649,6.6545 C3.9719,6.6545 3.4099,6.0925 3.4099,5.3995 C3.4099,4.7065 3.9719,4.1445 4.6649,4.1445 C5.3579,4.1445 5.9199,4.7065 5.9199,5.3995" id="Fill-3" fill="#FFFFFF"></path>
            <path d="M4.4141,5.5201 L11.4241,5.5201 C12.2521,5.5201 12.9301,6.1981 12.9301,7.0261 C12.9301,7.8541 12.2521,8.5321 11.4241,8.5321 L5.9201,8.5321" id="Stroke-5" stroke="#FFFFFF"></path>
            <path d="M9.9355,8.5323 L5.9195,8.5323 C5.0915,8.5323 4.4145,9.2103 4.4145,10.0383 C4.4145,10.8663 5.0915,11.5443 5.9195,11.5443 L9.1855,11.5443" id="Stroke-7" stroke="#FFFFFF" stroke-linecap="round" stroke-linejoin="round"></path>
            <path d="M18.0117,13.9137 L16.0547,13.9137 L16.0547,13.0697 C16.7987,12.7677 17.3247,12.0417 17.3247,11.1907 C17.3247,10.0697 16.4147,9.1607 15.2937,9.1607 C14.1727,9.1607 13.2637,10.0697 13.2637,11.1907 C13.2637,12.0417 13.7887,12.7677 14.5327,13.0697 L14.5327,13.9137 L12.5757,13.9137 C12.0467,13.9137 11.6147,14.3467 11.6147,14.8757 L11.6147,16.2507 C11.6147,16.7797 12.0467,17.2127 12.5757,17.2127 L18.0117,17.2127 C18.5397,17.2127 18.9727,16.7797 18.9727,16.2507 L18.9727,14.8757 C18.9727,14.3467 18.5397,13.9137 18.0117,13.9137" id="Fill-9" fill="#FFFFFF"></path>
            <line x1="11.8135" y1="18.6974" x2="18.7745" y2="18.6974" id="Stroke-11" stroke="#FFFFFF" stroke-linecap="round" stroke-linejoin="round"></line>
        </g>
    </g>
</svg>