<?xml version="1.0" encoding="UTF-8"?>
<svg width="20px" height="20px" viewBox="0 0 20 20" version="1.1" xmlns="http://www.w3.org/2000/svg" xmlns:xlink="http://www.w3.org/1999/xlink">
    <title>65189DEE-217D-4227-805A-09191BF94D37</title>
    <defs>
        <polygon id="path-1" points="0.000117022583 0 19.723 0 19.723 20 0.000117022583 20"></polygon>
    </defs>
    <g id="03.01版" stroke="none" stroke-width="1" fill="none" fill-rule="evenodd">
        <g id="EasyHub">
            <g id="编组">
                <mask id="mask-2" fill="white">
                    <use xlink:href="#path-1"></use>
                </mask>
                <g id="Clip-2"></g>
                <path d="M14.5921,0 L5.1311,0 C2.5191,0 0.3431,2.131 0.2721,4.795 L0.0021,14.79 C-0.0749,17.649 2.1001,20 4.8621,20 L14.8621,20 C17.6231,20 19.7981,17.649 19.7211,14.79 L19.4511,4.795 C19.3801,2.131 17.2041,0 14.5921,0 M14.5921,1 C16.6641,1 18.3961,2.714 18.4521,4.822 L18.7211,14.816 C18.7521,15.973 18.3411,17.051 17.5621,17.851 C16.8401,18.592 15.8811,19 14.8621,19 L4.8621,19 C3.8421,19 2.8831,18.592 2.1611,17.851 C1.3821,17.051 0.9711,15.973 1.0021,14.816 L1.2711,4.822 C1.3271,2.714 3.0591,1 5.1311,1 L14.5921,1" id="Fill-1" fill="#FFFFFF" mask="url(#mask-2)"></path>
            </g>
            <path d="M9.8274,6.3335 C7.5634,6.3335 5.4714,5.2225 4.3654,3.4345 C4.2204,3.1995 4.2924,2.8915 4.5274,2.7465 C4.7624,2.6015 5.0714,2.6735 5.2154,2.9085 C6.1404,4.4045 7.9074,5.3335 9.8274,5.3335 C11.8034,5.3335 13.5934,4.3645 14.5004,2.8045 C14.6394,2.5645 14.9454,2.4855 15.1834,2.6245 C15.4234,2.7625 15.5044,3.0685 15.3654,3.3075 C14.2794,5.1735 12.1574,6.3335 9.8274,6.3335" id="Fill-3" fill="#FFFFFF"></path>
            <path d="M10.1419,17.0552 C8.8909,17.0552 7.8739,16.0252 7.8739,14.7582 L7.8739,14.2522 C7.8739,13.8692 8.1799,13.5592 8.5589,13.5592 C8.9369,13.5592 9.2439,13.8692 9.2439,14.2522 L9.2439,14.7582 C9.2439,15.2602 9.6459,15.6682 10.1419,15.6682 C10.6369,15.6682 11.0399,15.2602 11.0399,14.7582 L11.0399,14.2522 C11.0399,13.8692 11.3469,13.5592 11.7249,13.5592 C12.1039,13.5592 12.4099,13.8692 12.4099,14.2522 L12.4099,14.7582 C12.4099,16.0252 11.3929,17.0552 10.1419,17.0552" id="Fill-5" fill="#FFFFFF"></path>
            <path d="M14.343,11.3789 C14.161,11.3789 13.996,11.4509 13.874,11.5679 C13.666,11.7039 13.413,11.7859 13.121,11.7859 C12.829,11.7859 12.632,11.7039 12.426,11.5699 C12.367,11.4839 12.293,11.4099 12.209,11.3509 C12.078,11.1439 12,10.9419 12,10.6509 C12,10.3579 12.079,10.0999 12.21,9.8909 C12.327,9.7669 12.4,9.5989 12.4,9.4139 C12.4,9.0319 12.094,8.7219 11.717,8.7219 C11.339,8.7219 11.033,9.0319 11.033,9.4139 C11.033,9.5979 11.105,9.7649 11.221,9.8889 C11.354,10.0989 11.436,10.3549 11.436,10.6509 C11.436,10.9459 11.355,11.1459 11.222,11.3549 C11.139,11.4139 11.066,11.4869 11.008,11.5719 C10.797,11.7049 10.432,11.7859 10.142,11.7859 C9.85,11.7859 9.483,11.7039 9.274,11.5689 C9.215,11.4849 9.144,11.4129 9.062,11.3549 C8.929,11.1459 8.848,10.9459 8.848,10.6509 C8.848,10.3549 8.929,10.0989 9.063,9.8889 C9.179,9.7649 9.25,9.5979 9.25,9.4139 C9.25,9.0319 8.945,8.7219 8.567,8.7219 C8.19,8.7219 7.884,9.0319 7.884,9.4139 C7.884,9.5989 7.956,9.7669 8.072,9.8909 C8.204,10.0999 8.283,10.3579 8.283,10.6509 C8.283,10.9419 8.205,11.1439 8.074,11.3509 C7.989,11.4099 7.916,11.4839 7.858,11.5699 C7.652,11.7039 7.454,11.7859 7.162,11.7859 C6.87,11.7859 6.617,11.7039 6.409,11.5679 C6.287,11.4509 6.122,11.3789 5.941,11.3789 C5.564,11.3789 5.258,11.6889 5.258,12.0709 C5.258,12.4529 5.564,12.7629 5.941,12.7629 C6.123,12.7629 6.289,12.6899 6.411,12.5709 C6.618,12.4379 6.872,12.3579 7.162,12.3579 C7.45,12.3579 7.65,12.4369 7.854,12.5689 C8.01,12.7979 8.27,12.9479 8.566,12.9479 C8.86,12.9479 9.118,12.7999 9.275,12.5729 C9.484,12.4389 9.851,12.3579 10.142,12.3579 C10.431,12.3579 10.798,12.4379 11.007,12.5709 C11.163,12.7989 11.423,12.9479 11.718,12.9479 C12.013,12.9479 12.274,12.7979 12.43,12.5689 C12.634,12.4369 12.833,12.3579 13.121,12.3579 C13.41,12.3579 13.665,12.4379 13.872,12.5709 C13.994,12.6899 14.16,12.7629 14.343,12.7629 C14.72,12.7629 15.026,12.4529 15.026,12.0709 C15.026,11.6889 14.72,11.3789 14.343,11.3789" id="Fill-7" fill="#FFFFFF"></path>
        </g>
    </g>
</svg>