<?xml version="1.0" encoding="UTF-8"?>
<svg width="22px" height="22px" viewBox="0 0 22 22" version="1.1" xmlns="http://www.w3.org/2000/svg" xmlns:xlink="http://www.w3.org/1999/xlink">
    <title>event-bridge</title>
    <g id="event-bridge" stroke="none" stroke-width="1" fill="none" fill-rule="evenodd">
        <g id="编组-3" fill="#000000" opacity="0">
            <rect id="矩形" x="0" y="0" width="22" height="22"></rect>
        </g>
        <g id="编组" transform="translate(1.000000, 2.650000)" fill="#57689C">
            <path d="M9.02448137,7.35415454 L9.02448137,8.6077036 L6.86488634,8.60769242 L6.86559131,15.2932986 L2.33888634,15.2932986 L2.33888634,14.0397496 L5.61188634,14.0396924 L5.61188634,8.60769242 L2.33888634,8.6077036 L2.33888634,7.35415454 L5.61188634,7.35369242 L5.61188634,2.47869242 L2.33888634,2.47924149 L2.33888634,1.22569242 L6.86559131,1.22569242 L6.86488634,7.35369242 L9.02448137,7.35415454 Z M17.3814752,1.22569242 L17.3814752,2.47924149 L14.1078863,2.47869242 L14.1078863,7.35369242 L17.3814752,7.35415454 L17.3814752,8.6077036 L14.1078863,8.60769242 L14.1078863,14.0396924 L17.3814752,14.0397496 L17.3814752,15.2932986 L12.8547702,15.2932986 L12.8538863,8.60769242 L10.6958801,8.6077036 L10.6958801,7.35415454 L12.8538863,7.35369242 L12.8547702,1.22569242 L17.3814752,1.22569242 Z" id="形状结合"></path>
            <polygon id="多边形" points="1.89425193 12.4797774 3.78850385 13.856032 3.064964 16.0828587 0.723539852 16.0828587 2.25112176e-18 13.856032"></polygon>
            <polygon id="多边形备份" points="18.1057481 5.90560895 19.9072887 7.21450483 19.2191614 9.33234287 16.9923347 9.33234287 16.3042074 7.21450483"></polygon>
            <rect id="矩形" x="0" y="6.46274186" width="3.34279752" height="3.34279752"></rect>
            <polygon id="矩形备份" points="16.4900626 0.111426584 19.8328601 0.111426584 19.8328601 3.4542241 16.4900626 3.4542241"></polygon>
            <circle id="椭圆形备份-16" cx="9.86018075" cy="7.91128746" r="1.94996522"></circle>
            <polygon id="多边形备份-2" points="1.67139876 -3.23546436e-14 3.34279752 0.964982523 3.34279752 2.89494757 1.67139876 3.85993009 -5.72697223e-18 2.89494757 -5.72697223e-18 0.964982523"></polygon>
            <polygon id="多边形" points="18.1614614 12.8140571 19.8328601 13.7790397 19.8328601 15.7090047 18.1614614 16.6739872 16.4900626 15.7090047 16.4900626 13.7790397"></polygon>
        </g>
    </g>
</svg>