<?xml version="1.0" encoding="UTF-8"?>
<svg width="22px" height="22px" viewBox="0 0 22 22" version="1.1" xmlns="http://www.w3.org/2000/svg" xmlns:xlink="http://www.w3.org/1999/xlink">
    <title>f-five</title>
    <g id="页面-1" stroke="none" stroke-width="1" fill="none" fill-rule="evenodd">
        <g id="Apple-TV" transform="translate(-350.000000, -752.000000)">
            <g id="f-five" transform="translate(350.000000, 752.000000)">
                <rect id="矩形" x="0" y="0" width="22" height="22"></rect>
                <g id="F5管理" transform="translate(2.000000, 2.999820)" fill="#FFFFFF" fill-rule="nonzero">
                    <path d="M3.8502,5.4117 L3.8502,3.2508 L8.0766,3.2508 L9.0207,0 L3.8511,0 C1.7244,0 0,1.7244 0,3.8511 L0,15.2793 L3.8502,15.2793 L3.8502,8.4663 L6.4233,8.4663 L7.3098,5.4117 L3.8502,5.4117 Z M17.7804,9.7938 C17.7804,10.7712 17.5815,11.7108 17.1828,12.6117 C16.785,13.5126 16.2216,14.2002 15.4908,14.6754 C14.76,15.1497 13.8249,15.3873 12.6855,15.3873 C11.8674,15.3873 11.1663,15.2928 10.5822,15.1038 C9.999,14.9148 9.5022,14.6322 9.0936,14.2578 C8.6841,13.8825 8.3529,13.4577 8.0991,12.9834 C7.8813,12.5748 7.6959,12.0753 7.5411,11.4939 L11.1177,11.4939 C11.2212,11.8161 11.3607,12.0879 11.5434,12.2967 C11.8539,12.6504 12.2229,12.8286 12.6513,12.8286 C13.1319,12.8286 13.5279,12.6063 13.8411,12.1626 C14.1534,11.7189 14.31,11.0565 14.31,10.1754 C14.31,9.2745 14.1525,8.6139 13.8366,8.1945 C13.5207,7.7751 13.0995,7.5645 12.5748,7.5645 C12.2427,7.5645 11.9214,7.6644 11.6109,7.8642 C11.3796,8.0082 11.1258,8.2701 10.8486,8.6481 L8.2836,8.1972 L10.6623,0 L17.1873,0 L17.1873,1.4283 C17.1873,2.4921 16.3251,3.3534 15.2622,3.3534 L11.9853,3.3534 L11.3481,5.6241 C11.7324,5.4045 12.1122,5.2389 12.4866,5.1291 C12.8619,5.0193 13.2327,4.9635 13.599,4.9635 C14.841,4.9635 15.8472,5.4216 16.6203,6.3369 C17.3934,7.2513 17.7804,8.4042 17.7804,9.7938 L17.7804,9.7938 Z" id="f-five"></path>
                </g>
            </g>
        </g>
    </g>
</svg>