<?xml version="1.0" encoding="UTF-8"?>
<svg width="20px" height="20px" viewBox="0 0 20 20" version="1.1" xmlns="http://www.w3.org/2000/svg" xmlns:xlink="http://www.w3.org/1999/xlink">
    <!-- Generator: Sketch 58 (84663) - https://sketch.com -->
    <title>F5管理</title>
    <desc>Created with Sketch.</desc>
    <defs>
        <polygon id="path-1" points="9e-05 9e-05 17.7795 9e-05 17.7795 15.38721 9e-05 15.38721"></polygon>
    </defs>
    <g id="页面-1" stroke="none" stroke-width="1" fill="none" fill-rule="evenodd">
        <g id="画板备份-19">
            <g id="F5管理" transform="translate(1.000000, 2.000000)">
                <mask id="mask-2" fill="white">
                    <use xlink:href="#path-1"></use>
                </mask>
                <g id="Clip-2"></g>
                <path d="M3.85029,5.41161 L3.85029,3.25071 L8.07669,3.25071 L9.02079,-9e-05 L3.85119,-9e-05 C1.72449,-9e-05 9e-05,1.72431 9e-05,3.85101 L9e-05,15.27921 L3.85029,15.27921 L3.85029,8.46621 L6.42339,8.46621 L7.30989,5.41161 L3.85029,5.41161 Z M17.78049,9.79371 C17.78049,10.77111 17.58159,11.71071 17.18289,12.61161 C16.78509,13.51251 16.22169,14.20011 15.49089,14.67531 C14.76009,15.14961 13.82499,15.38721 12.68559,15.38721 C11.86749,15.38721 11.16639,15.29271 10.58229,15.10371 C9.99909,14.91471 9.50229,14.63211 9.09369,14.25771 C8.68419,13.88241 8.35299,13.45761 8.09919,12.98331 C7.88139,12.57471 7.69599,12.07521 7.54119,11.49381 L11.11779,11.49381 C11.22129,11.81601 11.36079,12.08781 11.54349,12.29661 C11.85399,12.65031 12.22299,12.82851 12.65139,12.82851 C13.13199,12.82851 13.52799,12.60621 13.84119,12.16251 C14.15349,11.71881 14.31009,11.05641 14.31009,10.17531 C14.31009,9.27441 14.15259,8.61381 13.83669,8.19441 C13.52079,7.77501 13.09959,7.56441 12.57489,7.56441 C12.24279,7.56441 11.92149,7.66431 11.61099,7.86411 C11.37969,8.00811 11.12589,8.27001 10.84869,8.64801 L8.28369,8.19711 L10.66239,-9e-05 L17.18739,-9e-05 L17.18739,1.42821 C17.18739,2.49201 16.32519,3.35331 15.26229,3.35331 L11.98539,3.35331 L11.34819,5.62401 C11.73249,5.40441 12.11229,5.23881 12.48669,5.12901 C12.86199,5.01921 13.23279,4.96341 13.59909,4.96341 C14.84109,4.96341 15.84729,5.42151 16.62039,6.33681 C17.39349,7.25121 17.78049,8.40411 17.78049,9.79371 L17.78049,9.79371 Z" id="Fill-1" fill="#FFFFFF" mask="url(#mask-2)"></path>
            </g>
        </g>
    </g>
</svg>