<?xml version="1.0" encoding="UTF-8"?>
<svg width="20px" height="20px" viewBox="0 0 20 20" version="1.1" xmlns="http://www.w3.org/2000/svg" xmlns:xlink="http://www.w3.org/1999/xlink">
    <!-- Generator: Sketch 58 (84663) - https://sketch.com -->
    <title>文件分发</title>
    <desc>Created with Sketch.</desc>
    <defs>
        <polygon id="path-1" points="0.0005 0.1311 19.6035 0.1311 19.6035 18 0.0005 18"></polygon>
    </defs>
    <g id="页面-1" stroke="none" stroke-width="1" fill="none" fill-rule="evenodd">
        <g id="画板备份-17">
            <g id="编组">
                <path d="M15.8422,2.4659 L11.5252,2.4659 C11.2782,2.4659 11.0782,2.2659 11.0782,2.0199 C11.0782,1.7739 11.2782,1.5739 11.5252,1.5739 L15.8422,1.5739 C16.0882,1.5739 16.2872,1.7739 16.2872,2.0199 C16.2872,2.2659 16.0882,2.4659 15.8422,2.4659" id="Fill-1" fill="#FFFFFF"></path>
                <g transform="translate(0.000000, 0.868800)">
                    <mask id="mask-2" fill="white">
                        <use xlink:href="#path-1"></use>
                    </mask>
                    <g id="Clip-4" opacity="0.8"></g>
                    <path d="M18.9565,15.5791 L18.9565,13.4171 L10.3835,13.4171 L10.3835,12.2971 L14.2045,12.2971 C15.4745,12.2971 16.5075,11.2641 16.5075,9.9941 L16.5075,8.0861 C16.5075,7.7241 16.2145,7.4311 15.8525,7.4311 C15.4905,7.4311 15.1975,7.7241 15.1975,8.0861 L15.1975,9.9941 C15.1975,10.5421 14.7525,10.9881 14.2045,10.9881 L5.7275,10.9881 C5.1795,10.9881 4.7335,10.5421 4.7335,9.9941 L4.7335,2.4341 C4.7335,1.8871 5.1795,1.4411 5.7275,1.4411 L9.0425,1.4411 L9.3905,2.2661 C9.7405,3.0961 10.5485,3.6331 11.4485,3.6331 L15.1975,3.6371 L15.1975,5.3541 C15.1975,5.7161 15.4905,6.0091 15.8525,6.0091 C16.2145,6.0091 16.5075,5.7161 16.5075,5.3541 L16.5075,2.3281 L11.4495,2.3241 C11.0765,2.3241 10.7415,2.1011 10.5975,1.7571 L9.9105,0.1311 L5.7275,0.1311 C4.4575,0.1311 3.4245,1.1641 3.4245,2.4341 L3.4245,9.9941 C3.4245,11.2641 4.4575,12.2971 5.7275,12.2971 L9.0725,12.2971 L9.0725,13.4171 L0.6475,13.4171 L0.6475,15.5791 C0.2625,15.8051 0.0005,16.2191 0.0005,16.6981 C0.0005,17.4171 0.5825,18.0001 1.3025,18.0001 C2.0205,18.0001 2.6035,17.4171 2.6035,16.6981 C2.6035,16.2201 2.3425,15.8061 1.9575,15.5791 L1.9575,14.7261 L9.0725,14.7261 L9.0725,15.5791 C8.6875,15.8051 8.4265,16.2191 8.4265,16.6981 C8.4265,17.4171 9.0095,18.0001 9.7275,18.0001 C10.4465,18.0001 11.0295,17.4171 11.0295,16.6981 C11.0295,16.2191 10.7685,15.8051 10.3835,15.5791 L10.3835,14.7261 L17.6465,14.7261 L17.6465,15.5791 C17.2625,15.8061 17.0005,16.2201 17.0005,16.6981 C17.0005,17.4171 17.5835,18.0001 18.3025,18.0001 C19.0215,18.0001 19.6035,17.4171 19.6035,16.6981 C19.6035,16.2191 19.3425,15.8051 18.9565,15.5791" id="Fill-3" fill="#FFFFFF"></path>
                </g>
                <path d="M7.183,10.003 C7.183,10.364 6.89,10.658 6.528,10.658 C6.166,10.658 5.873,10.364 5.873,10.003 C5.873,9.641 6.166,9.348 6.528,9.348 C6.89,9.348 7.183,9.641 7.183,10.003" id="Fill-5" fill="#FFFFFF"></path>
            </g>
        </g>
    </g>
</svg>
