<?xml version="1.0" encoding="UTF-8"?>
<svg width="45px" height="41px" viewBox="0 0 45 41" version="1.1" xmlns="http://www.w3.org/2000/svg" xmlns:xlink="http://www.w3.org/1999/xlink">
    <!-- Generator: Sketch 58 (84663) - https://sketch.com -->
    <title>34DABA07-8381-407A-B239-F75DA0CB4FBC</title>
    <desc>Created with Sketch.</desc>
    <defs>
        <path d="M13.119,0.069 C10.21,0.069 7.843,2.436 7.843,5.345 L7.843,5.345 L7.843,22.662 C7.843,25.57 10.21,27.937 13.119,27.937 L13.119,27.937 L20.784,27.937 L20.784,30.502 L1.483,30.502 L1.483,35.454 C0.599,35.972 0,36.92 0,38.018 L0,38.018 C0,39.665 1.335,41 2.982,41 L2.982,41 C4.629,41 5.964,39.665 5.964,38.018 L5.964,38.018 C5.964,36.921 5.365,35.973 4.484,35.456 L4.484,35.456 L4.484,33.502 L20.784,33.502 L20.784,35.455 C19.901,35.973 19.301,36.921 19.301,38.018 L19.301,38.018 C19.301,39.665 20.637,41 22.283,41 L22.283,41 C23.931,41 25.266,39.665 25.266,38.018 L25.266,38.018 C25.266,36.921 24.666,35.973 23.783,35.455 L23.783,35.455 L23.783,33.502 L40.423,33.502 L40.423,35.456 C39.542,35.973 38.942,36.921 38.942,38.018 L38.942,38.018 C38.942,39.665 40.278,41 41.925,41 L41.925,41 C43.572,41 44.906,39.665 44.906,38.018 L44.906,38.018 C44.906,36.92 44.307,35.972 43.423,35.454 L43.423,35.454 L43.423,30.502 L23.783,30.502 L23.783,27.937 L32.537,27.937 C35.447,27.937 37.813,25.57 37.813,22.662 L37.813,22.662 L37.813,18.29 C37.813,17.461 37.14,16.79 36.312,16.79 L36.312,16.79 C35.484,16.79 34.813,17.461 34.813,18.29 L34.813,18.29 L34.813,22.662 C34.813,23.916 33.792,24.937 32.537,24.937 L32.537,24.937 L13.119,24.937 C11.865,24.937 10.843,23.916 10.843,22.662 L10.843,22.662 L10.843,5.345 C10.843,4.09 11.865,3.069 13.119,3.069 L13.119,3.069 L20.712,3.069 L21.51,4.96 C22.312,6.861 24.162,8.09 26.226,8.091 L26.226,8.091 L34.813,8.099 L34.813,12.033 C34.813,12.861 35.484,13.532 36.312,13.532 L36.312,13.532 C37.14,13.532 37.813,12.861 37.813,12.033 L37.813,12.033 L37.813,5.102 L26.228,5.092 C25.373,5.091 24.605,4.581 24.274,3.794 L24.274,3.794 L22.702,0.069 L13.119,0.069 Z" id="path-1"></path>
        <linearGradient x1="133.60133%" y1="47.1509176%" x2="-54.1523616%" y2="50%" id="linearGradient-3">
            <stop stop-color="#29C7CC" offset="0%"></stop>
            <stop stop-color="#1452CC" offset="100%"></stop>
        </linearGradient>
    </defs>
    <g id="Page-1" stroke="none" stroke-width="1" fill="none" fill-rule="evenodd">
        <g id="Easyops5.0首页/小产品入口备份-7" transform="translate(-541.000000, -249.000000)">
            <g id="文件分发" transform="translate(524.000000, 229.000000)">
                <g id="icon/文件分发" transform="translate(17.000000, 19.000000)">
                    <path d="M36.2881,4.3579 L26.3981,4.3579 C25.8341,4.3579 25.3761,3.8999 25.3761,3.3359 C25.3761,2.7719 25.8341,2.3139 26.3981,2.3139 L36.2881,2.3139 C36.8521,2.3139 37.3091,2.7719 37.3091,3.3359 C37.3091,3.8999 36.8521,4.3579 36.2881,4.3579" id="Fill-1" fill="#FFFFFF"></path>
                    <g id="编组" transform="translate(0.000000, 0.931000)">
                        <mask id="mask-2" fill="white">
                            <use xlink:href="#path-1"></use>
                        </mask>
                        <g id="Clip-4"></g>
                        <path d="M13.119,0.069 C10.21,0.069 7.843,2.436 7.843,5.345 L7.843,5.345 L7.843,22.662 C7.843,25.57 10.21,27.937 13.119,27.937 L13.119,27.937 L20.784,27.937 L20.784,30.502 L1.483,30.502 L1.483,35.454 C0.599,35.972 0,36.92 0,38.018 L0,38.018 C0,39.665 1.335,41 2.982,41 L2.982,41 C4.629,41 5.964,39.665 5.964,38.018 L5.964,38.018 C5.964,36.921 5.365,35.973 4.484,35.456 L4.484,35.456 L4.484,33.502 L20.784,33.502 L20.784,35.455 C19.901,35.973 19.301,36.921 19.301,38.018 L19.301,38.018 C19.301,39.665 20.637,41 22.283,41 L22.283,41 C23.931,41 25.266,39.665 25.266,38.018 L25.266,38.018 C25.266,36.921 24.666,35.973 23.783,35.455 L23.783,35.455 L23.783,33.502 L40.423,33.502 L40.423,35.456 C39.542,35.973 38.942,36.921 38.942,38.018 L38.942,38.018 C38.942,39.665 40.278,41 41.925,41 L41.925,41 C43.572,41 44.906,39.665 44.906,38.018 L44.906,38.018 C44.906,36.92 44.307,35.972 43.423,35.454 L43.423,35.454 L43.423,30.502 L23.783,30.502 L23.783,27.937 L32.537,27.937 C35.447,27.937 37.813,25.57 37.813,22.662 L37.813,22.662 L37.813,18.29 C37.813,17.461 37.14,16.79 36.312,16.79 L36.312,16.79 C35.484,16.79 34.813,17.461 34.813,18.29 L34.813,18.29 L34.813,22.662 C34.813,23.916 33.792,24.937 32.537,24.937 L32.537,24.937 L13.119,24.937 C11.865,24.937 10.843,23.916 10.843,22.662 L10.843,22.662 L10.843,5.345 C10.843,4.09 11.865,3.069 13.119,3.069 L13.119,3.069 L20.712,3.069 L21.51,4.96 C22.312,6.861 24.162,8.09 26.226,8.091 L26.226,8.091 L34.813,8.099 L34.813,12.033 C34.813,12.861 35.484,13.532 36.312,13.532 L36.312,13.532 C37.14,13.532 37.813,12.861 37.813,12.033 L37.813,12.033 L37.813,5.102 L26.228,5.092 C25.373,5.091 24.605,4.581 24.274,3.794 L24.274,3.794 L22.702,0.069 L13.119,0.069 Z" id="Fill-3" fill="url(#linearGradient-3)" mask="url(#mask-2)"></path>
                    </g>
                    <path d="M16.4532,21.6225 C16.4532,22.4515 15.7812,23.1225 14.9532,23.1225 C14.1252,23.1225 13.4532,22.4515 13.4532,21.6225 C13.4532,20.7935 14.1252,20.1225 14.9532,20.1225 C15.7812,20.1225 16.4532,20.7935 16.4532,21.6225" id="Fill-5" fill="#FFFFFF"></path>
                </g>
            </g>
        </g>
    </g>
</svg>