<?xml version="1.0" encoding="UTF-8"?>
<svg width="22px" height="22px" viewBox="0 0 22 22" version="1.1" xmlns="http://www.w3.org/2000/svg" xmlns:xlink="http://www.w3.org/1999/xlink">
    <title>数据上报</title>
    <g id="页面-1" stroke="none" stroke-width="1" fill="none" fill-rule="evenodd">
        <g id="Apple-TV备份-2" transform="translate(-1095.000000, -603.000000)">
            <g id="数据上报" transform="translate(1095.000000, 603.000000)">
                <rect id="矩形" x="0" y="0" width="22" height="22"></rect>
                <g transform="translate(1.000000, 1.000000)" fill="#FFFFFF">
                    <g id="银行" fill-rule="nonzero">
                        <path d="M9.53707394,16.7361895 C9.76063943,17.4711891 10.1260358,18.1444199 10.6013906,18.7240096 L4.3853337e-13,18.7234043 L4.3853337e-13,17.6307918 C4.3853337e-13,17.13708 0.400243813,16.7368362 0.893955647,16.7368362 Z M5.28749929,6.75433152 L5.28749929,14.6831221 L6.65639371,14.6831221 L6.65639371,6.75433152 L9.31213725,6.75433152 L9.31155191,14.5019699 C9.2950456,14.6803653 9.28660826,14.8610997 9.28660826,15.0438048 C9.28660826,15.3722697 9.3138781,15.6943654 9.3662773,16.0079515 L1.34093346,16.0071697 L1.34093346,15.2867905 C1.34093346,14.9679463 1.5899001,14.7667566 2.08778373,14.6831221 L2.63349398,14.6831221 L2.63349398,6.75433152 L5.28749929,6.75433152 Z M13.2521474,6.75433152 L13.2519179,9.53474046 C12.1842307,9.89156096 11.2546787,10.5500776 10.5644612,11.409091 L10.5654631,6.75433152 L13.2521474,6.75433152 Z M17.210881,6.75433152 L17.2109224,9.63451456 C16.5549676,9.37759515 15.8408894,9.23654568 15.0938673,9.23654568 C14.9183473,9.23654568 14.744646,9.24433246 14.57309,9.25957941 L14.5731159,6.75433152 L17.210881,6.75433152 Z M9.91332242,0 L19.8384153,4.01609572 L19.8384153,5.40545178 L18.6012303,5.40545178 C18.5151622,5.8664349 18.0614798,6.0734353 17.2401332,6.0262543 L2.54827022,6.0262543 C1.73611151,6.0262543 1.33000733,5.81930356 1.33000733,5.40545178 L4.3853337e-13,5.40545178 L4.3853337e-13,4.01609572 L9.91332242,0 Z" id="形状结合"></path>
                    </g>
                    <g id="编组-9" transform="translate(11.489362, 11.063830)">
                        <polygon id="路径-22备份-6" points="2.9787234 7.65957447 2.9787234 2.12765957 4.68085106 2.12765957 4.68085106 7.65957447"></polygon>
                        <polygon id="路径-23备份-6" points="-4.17832708e-15 3.40425532 4.12438625 0 7.65957447 3.40425532"></polygon>
                    </g>
                </g>
            </g>
        </g>
    </g>
</svg>