<?xml version="1.0" encoding="UTF-8"?>
<svg width="22px" height="22px" viewBox="0 0 22 22" version="1.1" xmlns="http://www.w3.org/2000/svg" xmlns:xlink="http://www.w3.org/1999/xlink">
    <title>Flow Builder小产品</title>
    <g id="页面-1" stroke="none" stroke-width="1" fill="none" fill-rule="evenodd">
        <g id="Apple-TV" transform="translate(-1016.000000, -220.000000)">
            <g id="Flow-Builder小产品" transform="translate(1016.000000, 220.000000)">
                <g id="编组备份-8">
                    <rect id="矩形" x="0" y="0" width="22" height="22"></rect>
                    <g id="组件-(1)" transform="translate(7.519796, 6.323755)"></g>
                </g>
                <path d="M18.9282032,6.5 L18.9282032,15.5 L11.1339746,20 L7.23686028,17.75 M3.33974596,15.5 L3.33974596,6.5 L11.1339746,2 L15.0310889,4.25" id="形状备份-10" stroke="#FFFFFF" stroke-width="1.5"></path>
                <g id="编组-9" transform="translate(7.572717, 6.612432)" fill="#FFFFFF">
                    <g id="编组-15" transform="translate(0.000000, 1.526822)">
                        <circle id="椭圆形备份-2" cx="1.20452473" cy="5.87205805" r="1.20452473"></circle>
                        <path d="M6.37394336,0 L6.37394336,3.17894151 C6.37394336,4.22281495 5.52771674,5.06904157 4.4838433,5.06904157 C3.4716024,5.06904157 2.64521121,4.27332434 2.59605641,3.27327657 L2.59374325,3.17894151 L2.59374325,2.45120782 C2.59374325,2.23389588 2.41757711,2.05772975 2.20026517,2.05772975 C1.99966953,2.05772975 1.83413304,2.2078358 1.80985285,2.40185077 L1.80678709,2.45120782 L1.80678709,5.87205805 L0.401508243,5.87205805 L0.401508243,2.45120782 C0.401508243,1.4577818 1.20683915,0.652450895 2.20026517,0.652450895 C3.16264663,0.652450895 3.94850523,1.40823508 3.99668157,2.35864403 L3.9990221,2.45120782 L3.9990221,3.17894151 C3.9990221,3.44670087 4.21608395,3.66376272 4.4838433,3.66376272 C4.73375204,3.66376272 4.93949761,3.47467773 4.96581964,3.23176813 L4.96866451,3.17894151 L4.96866451,0 L6.37394336,0 Z" id="路径-8" fill-rule="nonzero"></path>
                    </g>
                    <polygon id="路径-16" points="3.74298912 1.87814161 7.66766429 1.87814161 5.67130393 0"></polygon>
                </g>
            </g>
        </g>
    </g>
</svg>