<?xml version="1.0" encoding="UTF-8"?>
<svg width="22px" height="22px" viewBox="0 0 22 22" version="1.1" xmlns="http://www.w3.org/2000/svg" xmlns:xlink="http://www.w3.org/1999/xlink">
    <title>flow</title>
    <g id="页面-1" stroke="none" stroke-width="1" fill="none" fill-rule="evenodd">
        <g id="Apple-TV" transform="translate(-518.000000, -752.000000)">
            <g id="flow" transform="translate(518.000000, 752.000000)">
                <rect id="矩形" x="0" y="0" width="22" height="22"></rect>
                <g transform="translate(2.800050, 1.258964)" fill="#FFFFFF" fill-rule="nonzero">
                    <path d="M16.4,4.755 L16.4,0 L11.644,0 L11.644,1.52 L7.981,1.52 L7.981,9.099 L6.53,9.099 C6.148,7.683 4.86,6.64 3.324,6.64 C1.488,6.64 0,8.128 0,9.964 C0,11.799 1.488,13.288 3.324,13.288 C5.046,13.288 6.462,11.977 6.63,10.298 L7.981,10.298 L7.981,17.576 L11.644,17.576 L11.644,19.423 L16.4,19.423 L16.4,14.668 L11.644,14.668 L11.644,16.377 L9.181,16.377 L9.181,10.298 L11.644,10.298 L11.644,12.089 L16.4,12.089 L16.4,7.334 L11.644,7.334 L11.644,9.099 L9.181,9.099 L9.181,2.72 L11.644,2.72 L11.644,4.755 L16.4,4.755 Z"></path>
                </g>
            </g>
        </g>
    </g>
</svg>