<?xml version="1.0" encoding="UTF-8"?>
<svg width="34px" height="32px" viewBox="0 0 34 32" version="1.1" xmlns="http://www.w3.org/2000/svg" xmlns:xlink="http://www.w3.org/1999/xlink">
    <!-- Generator: Sketch 61 (89581) - https://sketch.com -->
    <title>统计大屏</title>
    <desc>Created with Sketch.</desc>
    <g id="最终版" stroke="none" stroke-width="1" fill="none" fill-rule="evenodd">
        <g id="编组备份-4" fill="#595959" fill-rule="nonzero">
            <path d="M29.1818901,0 L4.67472823,0 C2.18853854,0 0,1.92827024 0,4.23657029 L0,21.5161109 L0.00532028064,21.7128308 C0.125411916,23.9308161 2.26149037,25.743765 4.67472823,25.743765 L28.181,25.743 L28.1818901,25.7526811 L29.1818901,25.7526811 C31.6680797,25.7526811 33.8566183,23.8244109 33.8566183,21.5161109 L33.8566183,4.23657029 C33.8566183,1.92940783 31.6649653,0 29.1818901,0 Z M29.1818901,2 C30.6131028,2 31.8566183,3.09472094 31.8566183,4.23657029 L31.8566183,21.5161109 L31.8507299,21.6530116 C31.7648583,22.654203 30.7506219,23.5841825 29.5218057,23.7322264 L29.397,23.743 L4.67472823,23.743765 C3.24096148,23.743765 2,22.6553956 2,21.5161109 L2,4.23657029 C2,3.09316491 3.24071486,2 4.67472823,2 L29.1818901,2 Z" id="路径"></path>
            <path d="M13.5856076,20.6646165 C14.2440978,20.6232647 14.7688985,20.1018281 14.8105171,19.447559 L14.8105171,12.1407564 C14.8104112,11.4686686 14.2620316,10.9238895 13.5856077,10.9238895 C12.9091837,10.9238895 12.3608041,11.4686686 12.3606982,12.1407564 L12.3606982,19.447559 C12.3408501,19.7759924 12.4635154,20.0971469 12.6976722,20.3298026 C12.9318289,20.5624584 13.2550554,20.6843374 13.5856076,20.6646165 L13.5856076,20.6646165 Z" id="路径"></path>
            <path d="M18.9698248,20.6646165 C19.3007406,20.684206 19.6243244,20.5624431 19.8591603,20.3299642 C20.0939962,20.0974852 20.217727,19.776423 20.1992211,19.447559 L20.1992211,15.7963868 C20.1599624,15.1515869 19.6222145,14.6486318 18.9720683,14.6486318 C18.321922,14.6486318 17.7841742,15.1515869 17.7449154,15.7963868 L17.7449154,19.447559 C17.7250673,19.7759924 17.8477326,20.0971469 18.0818893,20.3298026 C18.3160461,20.5624584 18.6392725,20.6843374 18.9698248,20.6646165 L18.9698248,20.6646165 Z" id="路径"></path>
            <path d="M24.354042,20.6646165 C24.6845943,20.6843374 25.0078207,20.5624584 25.2419775,20.3298026 C25.4761342,20.0971469 25.5987995,19.7759924 25.5789514,19.447559 L25.5789514,18.2305016 C25.5788455,17.5584138 25.0304659,17.0136347 24.354042,17.0136347 C23.6776181,17.0136347 23.1292385,17.5584138 23.1291326,18.2305016 L23.1291326,19.447559 C23.1092845,19.7759924 23.2319498,20.0971469 23.4661065,20.3298026 C23.7002633,20.5624584 24.0234897,20.6843374 24.354042,20.6646165 L24.354042,20.6646165 Z" id="路径"></path>
            <path d="M8.20139046,20.6646165 C8.85988062,20.6232647 9.38468133,20.1018281 9.42629988,19.447559 L9.42629988,8.48958414 C9.44614801,8.16115078 9.32348269,7.8399963 9.08932594,7.60734056 C8.8551692,7.37468483 8.53194274,7.25280583 8.20139046,7.27252674 C7.87083818,7.25280584 7.54761174,7.37468484 7.313455,7.60734058 C7.07929826,7.83999631 6.95663294,8.16115079 6.97648107,8.48958414 L6.97648107,19.447559 C6.95663294,19.7759924 7.07929825,20.0971469 7.31345499,20.3298026 C7.54761173,20.5624584 7.87083818,20.6843374 8.20139046,20.6646165 L8.20139046,20.6646165 Z" id="路径"></path>
            <path d="M8.97312826,27.0129307 L24.9014374,27.0129307 C26.1577923,27.0129307 27.1762692,28.0248788 27.1762692,29.2731802 C27.1762692,30.5214815 26.1577923,31.5334297 24.9014374,31.5334297 L8.96415459,31.5334297 C7.7077997,31.5334297 6.68932283,30.5214815 6.68932283,29.2731802 C6.68932283,28.0248788 7.7077997,27.0129307 8.96415459,27.0129307 L8.97312826,27.0129307 Z" id="路径"></path>
        </g>
    </g>
</svg>