<?xml version="1.0" encoding="UTF-8"?>
<svg width="22px" height="22px" viewBox="0 0 22 22" version="1.1" xmlns="http://www.w3.org/2000/svg" xmlns:xlink="http://www.w3.org/1999/xlink">
    <title>机房资源拓扑小产品图标</title>
    <g id="页面-1" stroke="none" stroke-width="1" fill="none" fill-rule="evenodd">
        <g id="Apple-TV" transform="translate(-1348.000000, -206.000000)">
            <g id="机房资源拓扑小产品图标" transform="translate(1348.000000, 206.000000)">
                <rect id="矩形备份-26" x="0" y="0" width="22" height="22"></rect>
                <g id="编组-12" transform="translate(3.000000, 1.000000)" fill="#FFFFFF">
                    <g id="编组-11">
                        <path d="M3.901,11.851 L5.74074074,11.8518519 C6.25211551,11.8518519 6.66666667,12.266403 6.66666667,12.7777778 L6.66666667,12.7777778 L6.66666667,19.0740741 C6.66666667,19.5854488 6.25211551,20 5.74074074,20 L5.74074074,20 L0.925925926,20 C0.414551158,20 0,19.5854488 0,19.0740741 L0,19.0740741 L0,12.7777778 C0,12.266403 0.414551158,11.8518519 0.925925926,11.8518519 L0.925925926,11.8518519 L2.79,11.851 L2.79,8.148 L0.925925926,8.14814815 C0.451077927,8.14814815 0.059715592,7.79070353 0.00622938086,7.33020475 L0,7.22222222 L0,0.925925926 C0,0.414551158 0.414551158,0 0.925925926,0 L0.925925926,0 L5.74074074,0 C6.25211551,0 6.66666667,0.414551158 6.66666667,0.925925926 L6.66666667,0.925925926 L6.66666667,7.22222222 C6.66666667,7.73359699 6.25211551,8.14814815 5.74074074,8.14814815 L5.74074074,8.14814815 L3.901,8.148 L3.901,9.259 L12.9581003,9.25925926 C13.2468766,9.25925926 13.4841924,9.47958818 13.5111127,9.76131111 L13.5136559,9.81481481 L13.5136559,11.6666667 C13.5136559,11.7315271 13.5025409,11.7937915 13.4821118,11.851659 L15.3703704,11.8518519 C15.8817451,11.8518519 16.2962963,12.266403 16.2962963,12.7777778 L16.2962963,12.7777778 L16.2962963,19.0740741 C16.2962963,19.5854488 15.8817451,20 15.3703704,20 L15.3703704,20 L10.5555556,20 C10.0441808,20 9.62962963,19.5854488 9.62962963,19.0740741 L9.62962963,19.0740741 L9.62962963,12.7777778 C9.62962963,12.266403 10.0441808,11.8518519 10.5555556,11.8518519 L10.5555556,11.8518519 L12.4342763,11.8521894 C12.4194283,11.8102671 12.4094703,11.7660322 12.4050879,11.7201704 L12.4025447,11.6666667 L12.4025447,10.3703704 L3.901,10.37 L3.901,11.851 Z M5.55555556,12.962963 L1.11111111,12.962963 L1.11111111,18.8888889 L5.55555556,18.8888889 L5.55555556,12.962963 Z M15.1851852,12.962963 L10.7407407,12.962963 L10.7407407,18.8888889 L15.1851852,18.8888889 L15.1851852,12.962963 Z M5.55555556,1.11111111 L1.11111111,1.11111111 L1.11111111,7.03703704 L5.55555556,7.03703704 L5.55555556,1.11111111 Z" id="形状结合" fill-rule="nonzero"></path>
                        <rect id="矩形" x="2.03703704" y="2.03703704" width="2.59259259" height="1.11111111"></rect>
                    </g>
                    <g id="编组-11备份" transform="translate(2.037037, 13.888889)">
                        <rect id="矩形" x="0" y="0" width="2.59259259" height="1.11111111"></rect>
                    </g>
                    <g id="编组-11备份-2" transform="translate(11.666667, 13.888889)">
                        <rect id="矩形" x="0" y="0" width="2.59259259" height="1.11111111"></rect>
                    </g>
                </g>
            </g>
        </g>
    </g>
</svg>