<?xml version="1.0" encoding="UTF-8"?>
<svg width="22px" height="22px" viewBox="0 0 22 22" version="1.1" xmlns="http://www.w3.org/2000/svg" xmlns:xlink="http://www.w3.org/1999/xlink">
    <title>idc</title>
    <g id="页面-1" stroke="none" stroke-width="1" fill="none" fill-rule="evenodd">
        <g id="Apple-TV" transform="translate(-812.000000, -752.000000)">
            <g id="idc" transform="translate(812.000000, 752.000000)">
                <rect id="矩形" x="0" y="0" width="22" height="22"></rect>
                <g transform="translate(0.999900, 1.999300)" id="编组">
                    <g transform="translate(14.050219, 0.000719)" id="Fill-1-Clipped">
                        <polygon id="path-2" points="-1.14086084e-16 3.42258253e-16 5.94978138 3.42258253e-16 5.94978138 17.7016786 -1.14086084e-16 17.7016786"></polygon>
                        <path d="M3.85143016,11.9841339 L2.09732363,11.9841339 C1.84864537,11.9841339 1.64620894,11.7827251 1.64620894,11.5340468 C1.64620894,11.2853686 1.84864537,11.0839597 2.09732363,11.0839597 L3.85143016,11.0839597 C4.10010841,11.0839597 4.30151725,11.2853686 4.30151725,11.5340468 C4.30151725,11.7827251 4.10010841,11.9841339 3.85143016,11.9841339 M3.85143016,13.953008 L2.09732363,13.953008 C1.84864537,13.953008 1.64620894,13.7515992 1.64620894,13.5029209 C1.64620894,13.2532151 1.84864537,13.0518063 2.09732363,13.0518063 L3.85143016,13.0518063 C4.10010841,13.0518063 4.30151725,13.2532151 4.30151725,13.5029209 C4.30151725,13.7515992 4.10010841,13.953008 3.85143016,13.953008 M3.85143016,15.9208545 L2.09732363,15.9208545 C1.84864537,15.9208545 1.64620894,15.7194457 1.64620894,15.4707675 C1.64620894,15.2210616 1.84864537,15.0206804 2.09732363,15.0206804 L3.85143016,15.0206804 C4.10010841,15.0206804 4.30151725,15.2210616 4.30151725,15.4707675 C4.30151725,15.7194457 4.10010841,15.9208545 3.85143016,15.9208545 M2.97489069,6.39709396 C3.4722472,6.39709396 3.87506487,6.80093922 3.87506487,7.29829573 C3.87506487,7.79565224 3.4722472,8.19846991 2.97489069,8.19846991 C2.47753418,8.19846991 2.07471651,7.79565224 2.07471651,7.29829573 C2.07471651,6.80093922 2.47753418,6.39709396 2.97489069,6.39709396 M2.97489069,3.43761721 C3.4722472,3.43761721 3.87506487,3.84043488 3.87506487,4.33881898 C3.87506487,4.83617549 3.4722472,5.24002076 2.97489069,5.24002076 C2.47753418,5.24002076 2.07471651,4.83617549 2.07471651,4.33881898 C2.07471651,3.84043488 2.47753418,3.43761721 2.97489069,3.43761721 M4.71050049,-0.000719317265 L1.23928089,-0.000719317265 C0.55490189,-0.000719317265 -1.14086084e-16,0.554182573 -1.14086084e-16,1.23958917 L-1.14086084e-16,17.7016786 L5.94978138,17.7016786 L5.94978138,1.23958917 C5.94978138,0.554182573 5.39590708,-0.000719317265 4.71050049,-0.000719317265" id="Fill-1" fill="#FFFFFF" fill-rule="nonzero"></path>
                    </g>
                    <g transform="translate(7.024647, 0.000000)" fill="#FFFFFF" fill-rule="nonzero">
                        <g id="Fill-3-Clipped">
                            <path d="M3.85245775,11.9848532 L2.09835122,11.9848532 C1.84967297,11.9848532 1.64723654,11.7834444 1.64723654,11.5347661 C1.64723654,11.2860879 1.84967297,11.0846791 2.09835122,11.0846791 L3.85245775,11.0846791 C4.10113601,11.0846791 4.30254484,11.2860879 4.30254484,11.5347661 C4.30254484,11.7834444 4.10113601,11.9848532 3.85245775,11.9848532 M3.85245775,13.9537273 L2.09835122,13.9537273 C1.84967297,13.9537273 1.64723654,13.7523185 1.64723654,13.5036403 C1.64723654,13.2539344 1.84967297,13.0525256 2.09835122,13.0525256 L3.85245775,13.0525256 C4.10113601,13.0525256 4.30254484,13.2539344 4.30254484,13.5036403 C4.30254484,13.7523185 4.10113601,13.9537273 3.85245775,13.9537273 M3.85245775,15.9215739 L2.09835122,15.9215739 C1.84967297,15.9215739 1.64723654,15.720165 1.64723654,15.4714868 C1.64723654,15.2217809 1.84967297,15.0213997 2.09835122,15.0213997 L3.85245775,15.0213997 C4.10113601,15.0213997 4.30254484,15.2217809 4.30254484,15.4714868 C4.30254484,15.720165 4.10113601,15.9215739 3.85245775,15.9215739 M2.97489069,6.39781328 C3.47327479,6.39781328 3.87609246,6.80165854 3.87609246,7.29901505 C3.87609246,7.79637156 3.47327479,8.19918923 2.97489069,8.19918923 C2.47753418,8.19918923 2.07471651,7.79637156 2.07471651,7.29901505 C2.07471651,6.80165854 2.47753418,6.39781328 2.97489069,6.39781328 M2.97489069,3.43833653 C3.47327479,3.43833653 3.87609246,3.8411542 3.87609246,4.3395383 C3.87609246,4.83689481 3.47327479,5.24074007 2.97489069,5.24074007 C2.47753418,5.24074007 2.07471651,4.83689481 2.07471651,4.3395383 C2.07471651,3.8411542 2.47753418,3.43833653 2.97489069,3.43833653 M4.71152809,0 L1.24030848,0 C0.555929486,0 0,0.55490189 0,1.24030848 L0,17.7023979 L5.95080898,17.7023979 L5.95080898,1.24030848 C5.95080898,0.55490189 5.39590708,0 4.71152809,0" id="Fill-3"></path>
                        </g>
                    </g>
                    <g fill="#FFFFFF" fill-rule="nonzero">
                        <g id="Fill-5-Clipped">
                            <path d="M3.85245775,11.9848532 L2.09835122,11.9848532 C1.84967297,11.9848532 1.64723654,11.7834444 1.64723654,11.5347661 C1.64723654,11.2860879 1.84967297,11.0846791 2.09835122,11.0846791 L3.85245775,11.0846791 C4.10113601,11.0846791 4.30254484,11.2860879 4.30254484,11.5347661 C4.30254484,11.7834444 4.10113601,11.9848532 3.85245775,11.9848532 M3.85245775,13.9537273 L2.09835122,13.9537273 C1.84967297,13.9537273 1.64723654,13.7523185 1.64723654,13.5036403 C1.64723654,13.2539344 1.84967297,13.0525256 2.09835122,13.0525256 L3.85245775,13.0525256 C4.10113601,13.0525256 4.30254484,13.2539344 4.30254484,13.5036403 C4.30254484,13.7523185 4.10113601,13.9537273 3.85245775,13.9537273 M3.85245775,15.9215739 L2.09835122,15.9215739 C1.84967297,15.9215739 1.64723654,15.720165 1.64723654,15.4714868 C1.64723654,15.2217809 1.84967297,15.0213997 2.09835122,15.0213997 L3.85245775,15.0213997 C4.10113601,15.0213997 4.30254484,15.2217809 4.30254484,15.4714868 C4.30254484,15.720165 4.10113601,15.9215739 3.85245775,15.9215739 M2.97489069,6.39781328 C3.4722472,6.39781328 3.87609246,6.80165854 3.87609246,7.29901505 C3.87609246,7.79637156 3.4722472,8.19918923 2.97489069,8.19918923 C2.47753418,8.19918923 2.07471651,7.79637156 2.07471651,7.29901505 C2.07471651,6.80165854 2.47753418,6.39781328 2.97489069,6.39781328 M2.97489069,3.43833653 C3.4722472,3.43833653 3.87609246,3.8411542 3.87609246,4.3395383 C3.87609246,4.83689481 3.4722472,5.24074007 2.97489069,5.24074007 C2.47753418,5.24074007 2.07471651,4.83689481 2.07471651,4.3395383 C2.07471651,3.8411542 2.47753418,3.43833653 2.97489069,3.43833653 M4.71050049,0 L1.23928089,0 C0.55490189,0 0,0.55490189 0,1.24030848 L0,17.7023979 L5.95080898,17.7023979 L5.95080898,1.24030848 C5.95080898,0.55490189 5.39590708,0 4.71050049,0" id="Fill-5"></path>
                        </g>
                    </g>
                </g>
            </g>
        </g>
    </g>
</svg>