<?xml version="1.0" encoding="UTF-8"?>
<svg width="20px" height="20px" viewBox="0 0 20 20" version="1.1" xmlns="http://www.w3.org/2000/svg" xmlns:xlink="http://www.w3.org/1999/xlink">
    <!-- Generator: Sketch 58 (84663) - https://sketch.com -->
    <title>IDC管理</title>
    <desc>Created with Sketch.</desc>
    <defs>
        <polygon id="path-1" points="0.6728 0.773 6.4628 0.773 6.4628 17.9993 0.6728 17.9993"></polygon>
        <polygon id="path-3" points="0.8359 0.773 6.6269 0.773 6.6269 17.9993 0.8359 17.9993"></polygon>
        <polygon id="path-5" points="0 0.773 5.7909 0.773 5.7909 17.9993 0 17.9993"></polygon>
    </defs>
    <g id="页面-1" stroke="none" stroke-width="1" fill="none" fill-rule="evenodd">
        <g id="画板备份-9">
            <g id="IDC管理">
                <g id="icon/idc管理">
                    <g id="编组" transform="translate(13.000000, 0.227400)">
                        <mask id="mask-2" fill="white">
                            <use xlink:href="#path-1"></use>
                        </mask>
                        <g id="Clip-2"></g>
                        <path d="M4.4208,12.4353 L2.7138,12.4353 C2.4718,12.4353 2.2748,12.2393 2.2748,11.9973 C2.2748,11.7553 2.4718,11.5593 2.7138,11.5593 L4.4208,11.5593 C4.6628,11.5593 4.8588,11.7553 4.8588,11.9973 C4.8588,12.2393 4.6628,12.4353 4.4208,12.4353 M4.4208,14.3513 L2.7138,14.3513 C2.4718,14.3513 2.2748,14.1553 2.2748,13.9133 C2.2748,13.6703 2.4718,13.4743 2.7138,13.4743 L4.4208,13.4743 C4.6628,13.4743 4.8588,13.6703 4.8588,13.9133 C4.8588,14.1553 4.6628,14.3513 4.4208,14.3513 M4.4208,16.2663 L2.7138,16.2663 C2.4718,16.2663 2.2748,16.0703 2.2748,15.8283 C2.2748,15.5853 2.4718,15.3903 2.7138,15.3903 L4.4208,15.3903 C4.6628,15.3903 4.8588,15.5853 4.8588,15.8283 C4.8588,16.0703 4.6628,16.2663 4.4208,16.2663 M3.5678,6.9983 C4.0518,6.9983 4.4438,7.3913 4.4438,7.8753 C4.4438,8.3593 4.0518,8.7513 3.5678,8.7513 C3.0838,8.7513 2.6918,8.3593 2.6918,7.8753 C2.6918,7.3913 3.0838,6.9983 3.5678,6.9983 M3.5678,4.1183 C4.0518,4.1183 4.4438,4.5103 4.4438,4.9953 C4.4438,5.4793 4.0518,5.8723 3.5678,5.8723 C3.0838,5.8723 2.6918,5.4793 2.6918,4.9953 C2.6918,4.5103 3.0838,4.1183 3.5678,4.1183 M5.2568,0.7723 L1.8788,0.7723 C1.2128,0.7723 0.6728,1.3123 0.6728,1.9793 L0.6728,17.9993 L6.4628,17.9993 L6.4628,1.9793 C6.4628,1.3123 5.9238,0.7723 5.2568,0.7723" id="Fill-1" fill="#FFFFFF" mask="url(#mask-2)"></path>
                    </g>
                    <g id="编组" transform="translate(6.000000, 0.227400)">
                        <mask id="mask-4" fill="white">
                            <use xlink:href="#path-3"></use>
                        </mask>
                        <g id="Clip-4"></g>
                        <path d="M4.5849,12.4353 L2.8779,12.4353 C2.6359,12.4353 2.4389,12.2393 2.4389,11.9973 C2.4389,11.7553 2.6359,11.5593 2.8779,11.5593 L4.5849,11.5593 C4.8269,11.5593 5.0229,11.7553 5.0229,11.9973 C5.0229,12.2393 4.8269,12.4353 4.5849,12.4353 M4.5849,14.3513 L2.8779,14.3513 C2.6359,14.3513 2.4389,14.1553 2.4389,13.9133 C2.4389,13.6703 2.6359,13.4743 2.8779,13.4743 L4.5849,13.4743 C4.8269,13.4743 5.0229,13.6703 5.0229,13.9133 C5.0229,14.1553 4.8269,14.3513 4.5849,14.3513 M4.5849,16.2663 L2.8779,16.2663 C2.6359,16.2663 2.4389,16.0703 2.4389,15.8283 C2.4389,15.5853 2.6359,15.3903 2.8779,15.3903 L4.5849,15.3903 C4.8269,15.3903 5.0229,15.5853 5.0229,15.8283 C5.0229,16.0703 4.8269,16.2663 4.5849,16.2663 M3.7309,6.9983 C4.2159,6.9983 4.6079,7.3913 4.6079,7.8753 C4.6079,8.3593 4.2159,8.7513 3.7309,8.7513 C3.2469,8.7513 2.8549,8.3593 2.8549,7.8753 C2.8549,7.3913 3.2469,6.9983 3.7309,6.9983 M3.7309,4.1183 C4.2159,4.1183 4.6079,4.5103 4.6079,4.9953 C4.6079,5.4793 4.2159,5.8723 3.7309,5.8723 C3.2469,5.8723 2.8549,5.4793 2.8549,4.9953 C2.8549,4.5103 3.2469,4.1183 3.7309,4.1183 M5.4209,0.7723 L2.0429,0.7723 C1.3769,0.7723 0.8359,1.3123 0.8359,1.9793 L0.8359,17.9993 L6.6269,17.9993 L6.6269,1.9793 C6.6269,1.3123 6.0869,0.7723 5.4209,0.7723" id="Fill-3" fill="#FFFFFF" mask="url(#mask-4)"></path>
                    </g>
                    <g id="编组" transform="translate(0.000000, 0.227400)">
                        <mask id="mask-6" fill="white">
                            <use xlink:href="#path-5"></use>
                        </mask>
                        <g id="Clip-6"></g>
                        <path d="M3.7489,12.4353 L2.0419,12.4353 C1.7999,12.4353 1.6029,12.2393 1.6029,11.9973 C1.6029,11.7553 1.7999,11.5593 2.0419,11.5593 L3.7489,11.5593 C3.9909,11.5593 4.1869,11.7553 4.1869,11.9973 C4.1869,12.2393 3.9909,12.4353 3.7489,12.4353 M3.7489,14.3513 L2.0419,14.3513 C1.7999,14.3513 1.6029,14.1553 1.6029,13.9133 C1.6029,13.6703 1.7999,13.4743 2.0419,13.4743 L3.7489,13.4743 C3.9909,13.4743 4.1869,13.6703 4.1869,13.9133 C4.1869,14.1553 3.9909,14.3513 3.7489,14.3513 M3.7489,16.2663 L2.0419,16.2663 C1.7999,16.2663 1.6029,16.0703 1.6029,15.8283 C1.6029,15.5853 1.7999,15.3903 2.0419,15.3903 L3.7489,15.3903 C3.9909,15.3903 4.1869,15.5853 4.1869,15.8283 C4.1869,16.0703 3.9909,16.2663 3.7489,16.2663 M2.8949,6.9983 C3.3789,6.9983 3.7719,7.3913 3.7719,7.8753 C3.7719,8.3593 3.3789,8.7513 2.8949,8.7513 C2.4109,8.7513 2.0189,8.3593 2.0189,7.8753 C2.0189,7.3913 2.4109,6.9983 2.8949,6.9983 M2.8949,4.1183 C3.3789,4.1183 3.7719,4.5103 3.7719,4.9953 C3.7719,5.4793 3.3789,5.8723 2.8949,5.8723 C2.4109,5.8723 2.0189,5.4793 2.0189,4.9953 C2.0189,4.5103 2.4109,4.1183 2.8949,4.1183 M4.5839,0.7723 L1.2059,0.7723 C0.5399,0.7723 -0.0001,1.3123 -0.0001,1.9793 L-0.0001,17.9993 L5.7909,17.9993 L5.7909,1.9793 C5.7909,1.3123 5.2509,0.7723 4.5839,0.7723" id="Fill-5" fill="#FFFFFF" mask="url(#mask-6)"></path>
                    </g>
                </g>
            </g>
        </g>
    </g>
</svg>