<?xml version="1.0" encoding="UTF-8"?>
<svg width="22px" height="22px" viewBox="0 0 22 22" version="1.1" xmlns="http://www.w3.org/2000/svg" xmlns:xlink="http://www.w3.org/1999/xlink">
    <title>incident-management</title>
    <g id="incident-management" stroke="none" stroke-width="1" fill="none" fill-rule="evenodd">
        <rect id="矩形" fill="#000000" opacity="0" x="0" y="0" width="22" height="22"></rect>
        <g id="编组-2" transform="translate(2.500000, 2.500000)">
            <g id="编组">
                <path d="M5.95827938,17.1657732 L1.32044409,17.1657732 C0.591182956,17.1657732 0,16.5745902 0,15.8453291 L0,1.32044409 C0,0.591182956 0.591182956,0 1.32044409,0 L13.2044409,0 C13.933702,0 14.524885,0.591182956 14.524885,1.32044409 L14.524885,6.60103054" id="路径" stroke="#57689C" stroke-width="1.6" stroke-linecap="round" stroke-linejoin="round"></path>
                <rect id="矩形" fill="#57689C" x="2.82513403" y="3.2959897" width="9.24310863" height="1.88342268" rx="0.941711342"></rect>
                <rect id="矩形备份" fill="#57689C" x="2.82513403" y="7.25122446" width="6.60222045" height="1.88342268" rx="0.941711342"></rect>
            </g>
            <path d="M13.832143,9.61814459 C13.9526456,9.69561058 14.0550979,9.79806282 14.1325639,9.91856547 L17.7998408,15.6232184 C18.098493,16.0877885 17.9639899,16.7065023 17.4994199,17.0051545 C17.3381226,17.1088456 17.1504139,17.163976 16.9586623,17.163976 L9.62410851,17.163976 C9.07182376,17.163976 8.62410851,16.7162608 8.62410851,16.163976 C8.62410851,15.9722244 8.67923889,15.7845158 8.78293003,15.6232184 L12.4502069,9.91856547 C12.7488591,9.45399543 13.367573,9.31949242 13.832143,9.61814459 Z M13.2833935,14.7878898 C12.9684473,14.7878898 12.7131328,15.0432042 12.7131328,15.3581505 C12.7131328,15.6730968 12.9684473,15.9284112 13.2833935,15.9284112 C13.5983398,15.9284112 13.8536542,15.6730968 13.8536542,15.3581505 C13.8536542,15.0432042 13.5983398,14.7878898 13.2833935,14.7878898 Z M13.2833935,11.016705 C12.9684473,11.016705 12.7396469,11.2720194 12.7723536,11.5869657 L13.0318655,14.0859127 C13.045247,14.2147689 13.1538443,14.3126726 13.2833935,14.3126726 C13.4129428,14.3126726 13.52154,14.2147689 13.5349216,14.0859127 L13.7944335,11.5869657 C13.8271402,11.2720194 13.5983398,11.016705 13.2833935,11.016705 Z" id="形状结合备份-2" fill="#57689C"></path>
        </g>
    </g>
</svg>