<?xml version="1.0" encoding="UTF-8"?>
<svg width="20px" height="20px" viewBox="0 0 20 20" version="1.1" xmlns="http://www.w3.org/2000/svg" xmlns:xlink="http://www.w3.org/1999/xlink">
    <!-- Generator: Sketch 58 (84663) - https://sketch.com -->
    <title>画板</title>
    <desc>Created with Sketch.</desc>
    <g id="页面-1" stroke="none" stroke-width="1" fill="none" fill-rule="evenodd">
        <g id="画板">
            <g id="编组-2" transform="translate(0.000000, -0.000000)">
                <rect id="矩形" x="0" y="0" width="20" height="20"></rect>
                <g id="编组" transform="translate(1.500000, 0.000000)" fill="#FFFFFF">
                    <path d="M12.897,8.815 C12.897,9.842 12.297,10.732 11.431,11.161 C11.423,11.169 11.415,11.176 11.401,11.184 L8.922,12.52 C8.75,12.62 8.534,12.496 8.534,12.296 L8.534,11.433 L6.539,11.433 C5.098,11.433 3.92,10.255 3.92,8.815 L3.92,8.441 C3.92,7.001 5.098,5.823 6.539,5.823 L10.279,5.823 C11.719,5.823 12.897,7.001 12.897,8.441 L12.897,8.815 Z M15.946,6.82 L15.429,6.82 C15.238,5.859 14.72,5.012 13.991,4.408 C13.167,3.89 11.912,3.53 10.014,3.405 L8.777,3.368 L8.777,1.847 C9.125,1.702 9.369,1.36 9.369,0.96 C9.369,0.43 8.939,-5.5067062e-14 8.409,-5.5067062e-14 C7.878,-5.5067062e-14 7.449,0.43 7.449,0.96 C7.449,1.36 7.693,1.702 8.041,1.847 L8.041,3.368 L6.956,3.4 C4.842,3.53 3.499,3.947 2.655,4.546 C2.008,5.138 1.551,5.93 1.374,6.82 L0.872,6.82 C0.392,6.82 -3.49942297e-13,7.213 -3.49942297e-13,7.693 L-3.49942297e-13,8.94 C-3.49942297e-13,9.419 0.392,9.813 0.872,9.813 L1.296,9.813 C1.333,10.98 1.846,12.032 2.655,12.772 C3.488,13.364 4.809,13.776 6.875,13.911 C6.868,13.957 6.864,14.005 6.864,14.061 L6.864,14.47 C6.864,14.92 7.229,15.286 7.679,15.286 L7.722,15.286 L7.722,15.986 L4.612,15.986 C3.802,15.986 3.14,16.648 3.14,17.458 L3.14,18.482 C4.624,19.362 6.355,19.87 8.206,19.87 C10.222,19.87 12.098,19.267 13.665,18.235 L13.665,17.458 C13.665,16.648 13.002,15.986 12.193,15.986 L9.083,15.986 L9.083,15.286 L9.126,15.286 C9.576,15.286 9.941,14.92 9.941,14.47 L9.941,14.061 C9.941,14.006 9.941,13.958 9.94,13.915 L10.014,13.913 C11.912,13.789 13.167,13.428 13.991,12.911 C14.889,12.167 15.469,11.055 15.508,9.813 L15.946,9.813 C16.425,9.813 16.818,9.419 16.818,8.94 L16.818,7.693 C16.818,7.213 16.425,6.82 15.946,6.82 L15.946,6.82 Z" id="Fill-1"></path>
                    <path d="M6.6643,10.3759 C6.1823,10.3759 5.7913,9.9849 5.7913,9.5029 C5.7913,9.0209 6.1823,8.6299 6.6643,8.6299 C7.1453,8.6299 7.5363,9.0209 7.5363,9.5029 C7.5363,9.9849 7.1453,10.3759 6.6643,10.3759" id="Fill-3"></path>
                    <path d="M10.2795,10.3759 C9.7975,10.3759 9.4065,9.9849 9.4065,9.5029 C9.4065,9.0209 9.7975,8.6299 10.2795,8.6299 C10.7615,8.6299 11.1525,9.0209 11.1525,9.5029 C11.1525,9.9849 10.7615,10.3759 10.2795,10.3759" id="Fill-5"></path>
                </g>
            </g>
        </g>
    </g>
</svg>