<?xml version="1.0" encoding="UTF-8"?>
<svg width="22px" height="22px" viewBox="0 0 22 22" version="1.1" xmlns="http://www.w3.org/2000/svg" xmlns:xlink="http://www.w3.org/1999/xlink">
    <title>Iptables</title>
    <g id="页面-1" stroke="none" stroke-width="1" fill="none" fill-rule="evenodd">
        <g id="Apple-TV备份-2" transform="translate(-695.000000, -820.000000)">
            <g id="Iptables" transform="translate(695.000000, 820.000000)">
                <rect id="矩形" fill="#D8D8D8" opacity="0" x="0" y="0" width="22" height="22"></rect>
                <path d="M18.8342964,3.70656089 L11.3425379,1.05945308 C11.1192569,0.980182306 10.8746395,0.980182306 10.6513585,1.05945308 L3.18651112,3.70736753 C2.78311719,3.85067971 2.5,4.22576507 2.5,4.64629089 L2.5,10.9176106 C2.5,12.3179293 2.96106087,13.718248 3.84061892,15.0795793 C4.51477284,16.1233652 5.45309624,17.1464475 6.61412385,18.1214006 C8.55667572,19.7513414 10.4843989,20.691878 10.5654073,20.729521 C10.8493938,20.8667954 11.1822047,20.8679861 11.4672083,20.7327476 C11.5495896,20.6942979 13.475116,19.7682808 15.4195901,18.144793 C16.5828145,17.1736042 17.5065839,16.1502531 18.1818362,15.1029717 C19.0605705,13.7384138 19.4999691,12.3297599 19.4999691,10.9159973 L19.4999691,4.64602201 C19.5033031,4.22646121 19.2366244,3.85023603 18.8340218,3.70656089 L18.8342964,3.70656089 Z M3.85049575,11.0789376 L3.85049575,5.33327519 C3.84921355,5.11498975 3.98813726,4.91945113 4.1976047,4.84472314 L10.8023909,2.49203718 C10.8655484,2.4687894 10.9323631,2.45650581 10.9998315,2.45573859 L10.9998315,11.0837774 L18.1988617,11.0837774 C18.1991737,11.088878 18.1991737,11.0940029 18.1988617,11.0991035 C18.1988617,12.9791013 17.2303318,14.8424285 15.324577,16.65682 C13.8364955,18.0738091 12.1457559,19.0850607 11.275809,19.5607066 C11.1899274,19.6021946 11.0958435,19.6248581 11.0001061,19.6271196 L11.0001061,11.0808198 L3.85049575,11.0789376 Z" id="形状" fill="#FFFFFF"></path>
            </g>
        </g>
    </g>
</svg>