<?xml version="1.0" encoding="UTF-8"?>
<svg width="19px" height="21px" viewBox="0 0 19 21" version="1.1" xmlns="http://www.w3.org/2000/svg" xmlns:xlink="http://www.w3.org/1999/xlink">
    <!-- Generator: Sketch 59.1 (86144) - https://sketch.com -->
    <title>Kafka</title>
    <desc>Created with Sketch.</desc>
    <g id="f" stroke="none" stroke-width="1" fill="none" fill-rule="evenodd">
        <g id="编组备份-16" fill="#FFFFFF" fill-rule="nonzero">
            <path d="M15.3116302,12.5384553 C14.1233105,12.5384553 13.0899891,13.2617803 12.6249945,14.2951017 L7.61338566,11.8151303 C7.76838387,11.3501357 7.87171601,10.8851411 7.87171601,10.4201464 C7.87171601,10.3168143 7.87171601,10.2134821 7.87171601,10.1618161 L12.986657,7.63017863 C13.9683123,8.92183039 15.7766248,9.18016074 17.0682765,8.1985054 C18.3599283,7.21685006 18.6182587,5.4085376 17.6366033,4.11688584 C16.654948,2.82523408 14.8466355,2.56690373 13.5549838,3.54855906 C12.8316588,4.11688584 12.4183302,4.94354297 12.4183302,5.87353223 C12.4183302,6.23519473 12.4699963,6.59685722 12.6249945,6.95851971 L7.7167178,9.38682502 C7.30338924,7.83684291 5.90840533,6.70018936 4.30675715,6.54519115 L4.30675715,4.0135537 C5.39174463,3.80688942 6.11506962,2.72190194 5.90840533,1.63691446 C5.70174105,0.551926981 4.61675357,-0.171398005 3.5317661,0.0352662764 C2.44677862,0.241930558 1.72345363,1.32691804 1.93011791,2.41190552 C2.08511612,3.23856264 2.70510897,3.85855549 3.5317661,4.0135537 L3.5317661,6.54519115 C1.36179114,6.75185543 -0.188190974,8.71516611 0.0184733076,10.8851411 C0.225137589,12.7451196 1.67178756,14.1917696 3.5317661,14.3984339 L3.5317661,16.9300713 C2.44677862,17.1367356 1.72345363,18.2217231 1.93011791,19.3067105 C2.13678219,20.391698 3.22176967,21.115023 4.30675715,20.9083587 C5.39174463,20.7016944 6.11506962,19.616707 5.90840533,18.5317195 C5.75340712,17.7050624 5.13341428,17.0850695 4.30675715,16.9300713 L4.30675715,14.3984339 C5.54674284,14.2951017 6.63173032,13.5717767 7.25172317,12.5384553 L12.4183302,15.0700928 C12.4183302,15.1734249 12.4183302,15.3284231 12.4183302,15.4317553 C12.4183302,17.0334034 13.709982,18.3250552 15.3116302,18.3767213 C16.9132783,18.3767213 18.2049301,17.0850695 18.2565962,15.4834213 C18.2565962,13.8817731 16.9649444,12.5384553 15.3116302,12.5384553 C15.3632962,12.5384553 15.3632962,12.5384553 15.3116302,12.5384553 L15.3116302,12.5384553 Z" id="路径"></path>
        </g>
    </g>
</svg>