<?xml version="1.0" encoding="UTF-8"?>
<svg width="22px" height="22px" viewBox="0 0 22 22" version="1.1" xmlns="http://www.w3.org/2000/svg" xmlns:xlink="http://www.w3.org/1999/xlink">
    <title>launchpad配置小产品图标</title>
    <g id="页面-1" stroke="none" stroke-width="1" fill="none" fill-rule="evenodd">
        <g id="Apple-TV" transform="translate(-1141.000000, -83.000000)">
            <g id="launchpad配置小产品图标" transform="translate(1141.000000, 83.000000)">
                <rect id="矩形备份-30" fill="#465775" opacity="0" x="0" y="0" width="22" height="22" rx="2"></rect>
                <path d="M18.2620227,1.99999999 C19.7673203,1.99999999 20.9876052,3.22028485 20.9876052,4.72558252 L20.9879288,13.2926633 C20.1685221,12.4892251 19.0459966,11.9938026 17.8077589,11.9938026 C15.2989295,11.9938026 13.2651214,14.0276107 13.2651214,16.5364401 C13.2651214,16.6897696 13.272718,16.8413247 13.2875553,16.9907497 L11.4476121,16.9902496 L11.4480664,19.2620227 L14.173578,19.2623712 C14.4320421,19.6064034 14.7382196,19.9125429 15.0822854,20.1709647 L6.45116506,20.1705502 C6.20028212,20.1705502 5.99690131,19.9671693 5.99690131,19.7162864 C5.99690131,19.4654035 6.20028212,19.2620227 6.45116506,19.2620227 L10.5395388,19.2620227 L10.5390846,16.9902496 L3.72558254,16.9907039 C2.22028488,16.9907039 1.00000001,15.770419 1.00000001,14.2651214 L1.00000001,4.72558252 C1.00000001,3.22028485 2.22028488,1.99999999 3.72558254,1.99999999 L18.2620227,1.99999999 Z M18.2221981,13.3565938 C18.3333539,13.3565938 18.4281791,13.4370413 18.4462936,13.5467111 L18.559313,14.231216 C18.7651042,14.2984586 18.9587441,14.3925677 19.1360888,14.5093991 L19.7348485,14.1694703 C19.8314778,14.1145305 19.9536727,14.1375963 20.0236253,14.2239806 L20.5452553,14.86814 C20.6152079,14.9545243 20.612364,15.0788445 20.5385343,15.1619396 L20.0737147,15.684909 C20.1471097,15.8816628 20.1956122,16.0905466 20.2153918,16.3077301 L20.859316,16.5731984 C20.9621002,16.615519 21.0191547,16.7260106 20.9941501,16.8343175 L20.8076931,17.6419517 C20.7826884,17.7502586 20.6829718,17.8245567 20.5720379,17.8175366 L19.8811991,17.7739551 C19.7704528,17.9581259 19.6358629,18.1263304 19.4817004,18.2742977 L19.6792086,18.936038 C19.7110034,19.0425495 19.6610409,19.1564238 19.5611348,19.2051513 L18.8161439,19.5685076 C18.7162377,19.6172351 18.5957436,19.5864981 18.5313862,19.4958684 L18.1268641,18.9266472 C18.0224491,18.9404148 17.9159337,18.9475192 17.8077589,18.9475192 C17.6995842,18.9475192 17.5930687,18.9404148 17.4886537,18.9266472 L17.0841316,19.4958684 C17.0197743,19.5864981 16.8992801,19.6172351 16.7993739,19.5685076 L16.0543831,19.2051513 C15.9544769,19.1564238 15.9045144,19.0425495 15.9363093,18.936038 L16.1338174,18.2742977 C15.979655,18.1263304 15.8450651,17.9581259 15.7343187,17.7739551 L15.0434799,17.8175366 C14.932546,17.8245567 14.8328294,17.7502586 14.8078248,17.6419517 L14.6213677,16.8343175 C14.5963631,16.7260106 14.6534177,16.615519 14.7562018,16.5731984 L15.400126,16.3077301 C15.4199056,16.0905466 15.4684081,15.8816628 15.5418032,15.684909 L15.0769835,15.1619396 C15.0031539,15.0788445 15.0003099,14.9545243 15.0702625,14.86814 L15.5918925,14.2239806 C15.6618451,14.1375963 15.78404,14.1145305 15.8806693,14.1694703 L16.4794291,14.5093991 C16.6567737,14.3925677 16.8504136,14.2984586 17.0562048,14.231216 L17.1692242,13.5467111 C17.1873388,13.4370413 17.282164,13.3565938 17.3933198,13.3565938 L18.2221981,13.3565938 Z M17.8077589,15.6279126 C17.305993,15.6279126 16.8992314,16.0346742 16.8992314,16.5364401 C16.8992314,17.038206 17.305993,17.4449676 17.8077589,17.4449676 C18.3095248,17.4449676 18.7162864,17.038206 18.7162864,16.5364401 C18.7162864,16.0346742 18.3095248,15.6279126 17.8077589,15.6279126 Z M8.26822007,9.26822006 L4.63411004,9.26822006 C4.40114731,9.26822006 4.20914305,9.44358413 4.18290245,9.66950707 L4.17984629,9.72248382 L4.17984629,11.0852751 C4.17984629,11.3182378 4.35521035,11.5102421 4.58113329,11.5364827 L4.63411004,11.5395388 L8.26822007,11.5395388 C8.50118281,11.5395388 8.69318707,11.3641748 8.71942766,11.1382518 L8.72248383,11.0852751 L8.72248383,9.72248382 C8.72248383,9.48952108 8.54711976,9.29751682 8.32119682,9.27127623 L8.26822007,9.26822006 Z M13.7193851,5.63411003 L4.63411004,5.63411003 C4.40114731,5.63411003 4.20914305,5.80947409 4.18290245,6.03539703 L4.17984629,6.08837378 L4.17984629,7.45116505 C4.17984629,7.68412778 4.35521035,7.87613204 4.58113329,7.90237263 L4.63411004,7.9054288 L13.7193851,7.9054288 C13.9523479,7.9054288 14.1443521,7.73006473 14.1705927,7.5041418 L14.1736489,7.45116505 L14.1736489,6.08837378 C14.1736489,5.85541105 13.9982848,5.66340679 13.7723619,5.63716619 L13.7193851,5.63411003 Z" id="形状" fill="#FFFFFF"></path>
            </g>
        </g>
    </g>
</svg>