<?xml version="1.0" encoding="UTF-8"?>
<svg width="14px" height="17px" viewBox="0 0 14 17" version="1.1" xmlns="http://www.w3.org/2000/svg" xmlns:xlink="http://www.w3.org/1999/xlink">
    <title>系统地图</title>
    <g id="03.01版" stroke="none" stroke-width="1" fill="none" fill-rule="evenodd">
        <g id="1280以下适配最近访问-+-我的收藏" transform="translate(-225.000000, -411.000000)" fill="#FFFFFF" fill-rule="nonzero">
            <g id="系统地图" transform="translate(225.000000, 411.000000)">
                <path d="M1.94317169,13.1063106 C2.29703356,13.3135095 2.43579375,13.7645942 2.26180213,14.1421216 L2.2332972,14.1977114 L1.5616742,15.400292 L12.4376716,15.400292 L11.6949815,14.2389039 C11.464894,13.8799991 11.5525195,13.3990612 11.8935041,13.1493003 C12.2344887,12.8995394 12.7071812,12.9700614 12.9644271,13.3090736 L13.0015225,13.3622639 L13.7446031,14.5236519 C14.0513996,15.0032994 14.0840763,15.6144389 13.830253,16.12553 C13.5764298,16.6366211 13.0749346,16.9694811 12.5157673,16.9980004 L12.4376716,17 L1.56206468,17 C1.01992501,17.000053 0.516534539,16.7121721 0.232147445,16.2394416 C-0.0522396497,15.7667111 -0.0769422986,15.1767544 0.166885028,14.6808233 L0.205932881,14.6060369 L0.877555886,13.4034564 C1.09171073,13.0200319 1.56879218,12.8869983 1.94317169,13.1063106 L1.94317169,13.1063106 Z" id="路径备份-2"></path>
                <path d="M7,0.55 C8.50247191,0.55 9.86129193,1.18763401 10.8453382,2.21477026 C11.8379702,3.25086819 12.45,4.68267976 12.45,6.26273152 C12.45,8.3822674 10.7517356,10.6562121 7.60973627,13.2293552 C7.43063747,13.3759239 7.21514368,13.4501809 6.99922552,13.4499997 C6.7832932,13.4498184 6.5679028,13.375191 6.39116551,13.2300828 C3.19551037,10.5789981 1.55,8.34703739 1.55,6.26273152 C1.55,4.68267976 2.16202984,3.25086819 3.15466182,2.21477026 C4.13870807,1.18763401 5.4975281,0.55 7,0.55 Z M6.99975082,3.45 C6.29563642,3.45006881 5.65819872,3.7355116 5.19678961,4.1969658 C4.73538051,4.65842 4.45,5.2958856 4.45,6 C4.45,6.7041144 4.73538051,7.34158 5.19678961,7.8030342 C5.65819872,8.2644884 6.29563642,8.54993119 6.99975082,8.55 C7.45529412,8.55004451 7.89354498,8.42856482 8.27485614,8.20844784 C8.65616729,7.98833086 8.98053875,7.66957659 9.20832325,7.27507193 C9.43610775,6.88056728 9.55,6.44028364 9.55,6 C9.55,5.55971636 9.43610775,5.11943272 9.20832325,4.72492807 C8.98053875,4.33042341 8.65616729,4.01166914 8.27485614,3.79155216 C7.89354498,3.57143518 7.45529412,3.44995549 6.99975082,3.45 Z" id="形状结合" stroke="#FFFFFF" stroke-width="1.1"></path>
            </g>
        </g>
    </g>
</svg>