<?xml version="1.0" encoding="UTF-8"?>
<svg width="22px" height="22px" viewBox="0 0 22 22" version="1.1" xmlns="http://www.w3.org/2000/svg" xmlns:xlink="http://www.w3.org/1999/xlink">
    <title>系统地图</title>
    <g id="03.01版" stroke="none" stroke-width="1" fill="none" fill-rule="evenodd">
        <g id="最近访问-+-系统地图" transform="translate(-419.000000, -408.000000)" fill="#FFFFFF" fill-rule="nonzero">
            <g id="编组-20" transform="translate(419.000000, 408.000000)">
                <g id="系统地图" transform="translate(4.000000, 2.000000)">
                    <path d="M2.08196967,14.1063106 C2.46110738,14.3135095 2.60977902,14.7645942 2.42335943,15.1421216 L2.39281843,15.1977114 L1.67322236,16.400292 L13.3260767,16.400292 L12.5303373,15.2389039 C12.283815,14.8799991 12.3776994,14.3990612 12.7430401,14.1493003 C13.1083808,13.8995394 13.614837,13.9700614 13.8904576,14.3090736 L13.9302027,14.3622639 L14.7263605,15.5236519 C15.055071,16.0032994 15.0900817,16.6144389 14.8181283,17.12553 C14.5461748,17.6366211 14.0088585,17.9694811 13.4097507,17.9980004 L13.3260767,18 L1.67364073,18 C1.09277679,18.000053 0.553429863,17.7121721 0.248729405,17.2394416 C-0.0559710533,16.7667111 -0.0824381771,16.1767544 0.178805387,15.6808233 L0.220642373,15.6060369 L0.94023845,14.4034564 C1.16969006,14.0200319 1.68084877,13.8869983 2.08196967,14.1063106 L2.08196967,14.1063106 Z" id="路径备份-2"></path>
                    <path d="M7.5,0.5775 C9.13351245,0.5775 10.6112295,1.26252625 11.6812334,2.36711101 C12.758037,3.4787151 13.4225,5.0147335 13.4225,6.71006949 C13.4225,8.98325953 11.5816772,11.421876 8.17458163,14.1814579 C7.97643475,14.341833 7.73793192,14.4226979 7.49914026,14.4224996 C7.26033807,14.4223014 7.02195341,14.3410341 6.82630749,14.182166 C3.36106564,11.3390251 1.5775,8.94545166 1.5775,6.71006949 C1.5775,5.0147335 2.24196302,3.4787151 3.31876656,2.36711102 C4.38877052,1.26252626 5.86648756,0.5775 7.5,0.5775 Z M7.49973247,3.70821429 C6.7427401,3.70828745 6.05771231,4.01227091 5.56174853,4.50283248 C5.06346275,4.99569075 4.75583333,5.67669393 4.75583333,6.42857143 C4.75583333,7.18044893 5.06346275,7.8614521 5.56174853,8.35431038 C6.05771231,8.84487195 6.7427401,9.14885541 7.49973247,9.14892857 C8.4801798,9.14902332 9.38511147,8.63048801 9.87508208,7.79122302 C10.121217,7.3696214 10.2441667,6.89907592 10.2441667,6.42857143 C10.2441667,5.95806694 10.121217,5.48752146 9.87508208,5.06591984 C9.38511147,4.22665484 8.4801798,3.70811953 7.49973247,3.70821429 Z" id="形状结合" stroke="#FFFFFF" stroke-width="1.155"></path>
                </g>
            </g>
        </g>
    </g>
</svg>
