<?xml version="1.0" encoding="UTF-8"?>
<svg width="22px" height="22px" viewBox="0 0 22 22" version="1.1" xmlns="http://www.w3.org/2000/svg" xmlns:xlink="http://www.w3.org/1999/xlink">
    <title>我的收藏</title>
    <g id="页面-1" stroke="none" stroke-width="1" fill="none" fill-rule="evenodd">
        <g id="Apple-TV备份-2" transform="translate(-366.000000, -292.000000)">
            <g id="我的收藏" transform="translate(366.000000, 292.000000)">
                <rect id="矩形" x="0" y="0" width="22" height="22"></rect>
                <g transform="translate(1.000000, 1.450000)" fill="#FFFFFF" id="形状结合">
                    <path d="M10.3341391,0.745447591 C10.5313517,0.84277783 10.6909792,1.00240535 10.7883094,1.19961796 L12.8650042,5.40746109 C13.0106662,5.70260456 13.2922318,5.90717394 13.6179419,5.95450239 L18.2615725,6.62926142 C18.8081174,6.70867903 19.1867988,7.21612189 19.1073812,7.76266675 C19.0757567,7.98030378 18.9732695,8.18144619 18.8157859,8.3349548 L15.4556232,11.6103039 C15.2199371,11.840041 15.1123887,12.1710412 15.1680266,12.4954353 L15.9612534,17.1203025 C16.0546144,17.6646389 15.6890266,18.1815948 15.1446901,18.2749558 C14.9279325,18.3121327 14.7049644,18.276818 14.510304,18.1744789 L10.3569145,15.9909129 C10.0655905,15.8377548 9.71755625,15.8377548 9.42623223,15.9909129 L5.27284276,18.1744789 C4.78399817,18.4314798 4.17937101,18.2435332 3.92237021,17.7546886 C3.82003114,17.5600282 3.78471646,17.3370601 3.8218933,17.1203025 L4.61512011,12.4954353 C4.67075805,12.1710412 4.56320956,11.840041 4.32752348,11.6103039 L0.96736081,8.3349548 C0.571877232,7.94945358 0.563784925,7.31634032 0.949286137,6.92085674 C1.10279474,6.76337311 1.30393715,6.66088593 1.52157418,6.62926142 L6.16520478,5.95450239 C6.49091494,5.90717394 6.77248053,5.70260456 6.91814254,5.40746109 L8.99483728,1.19961796 C9.23925957,0.704364297 9.83888541,0.501025298 10.3341391,0.745447591 Z M13.4614512,8.49424881 C13.2691445,8.33288435 12.9824375,8.35796797 12.821073,8.55027464 L12.821073,8.55027464 L9.70452701,12.2644295 L9.65761797,12.3317266 C9.55080118,12.5189014 9.58961359,12.7613727 9.76055285,12.9048077 C9.95285951,13.0661722 10.2395666,13.0410886 10.4009311,12.8487819 L10.4009311,12.8487819 L13.517477,9.13462701 L13.5643861,9.06732991 C13.6712029,8.8801551 13.6323905,8.63768387 13.4614512,8.49424881 Z M10.5466757,7.63077358 C10.354369,7.46940913 10.0676619,7.49449275 9.90629745,7.68679942 L9.90629745,7.68679942 L6.78975146,11.4009543 L6.74284242,11.4682514 C6.63602563,11.6554262 6.67483804,11.8978974 6.8457773,12.0413325 C7.03808396,12.202697 7.32479105,12.1776133 7.4861555,11.9853067 L7.4861555,11.9853067 L10.6027015,8.27115179 L10.6496105,8.20385469 C10.7564273,8.01667988 10.7176149,7.77420865 10.5466757,7.63077358 Z"></path>
                </g>
            </g>
        </g>
    </g>
</svg>