<?xml version="1.0" encoding="UTF-8"?>
<svg width="16px" height="16px" viewBox="0 0 16 16" version="1.1" xmlns="http://www.w3.org/2000/svg" xmlns:xlink="http://www.w3.org/1999/xlink">
    <title>设置</title>
    <g id="03.01版" stroke="none" stroke-width="1" fill="none" fill-rule="evenodd">
        <g id="最近访问-+-我的收藏（空）" transform="translate(-1562.000000, -411.000000)" fill-rule="nonzero">
            <g id="设置" transform="translate(1562.000000, 411.000000)">
                <rect id="矩形" fill="#000000" opacity="0" x="0" y="0" width="16" height="16"></rect>
                <path d="M14.7,8 C14.7,7.1 15.2,6.3 16,6 C15.6,4.6 14.8,3.3 13.8,2.3 C13.1,2.8 12.1,2.9 11.3,2.5 C10.5,2 10.1,1.2 10.2,0.3 C9.5,0.1 8.7,0 8,0 C7.2,0 6.5,0.1 5.8,0.3 C5.9,1.1 5.5,2 4.7,2.5 C3.9,3 2.9,2.9 2.2,2.3 C1.2,3.3 0.4,4.6 0,6 C0.8,6.3 1.3,7.1 1.3,8 C1.3,8.9 0.8,9.7 0,10 C0.4,11.4 1.2,12.7 2.2,13.7 C2.9,13.2 3.9,13.1 4.7,13.5 C5.5,14 5.9,14.8 5.8,15.7 C6.5,15.9 7.3,16 8,16 C8.8,16 9.5,15.9 10.2,15.7 C10.1,14.9 10.5,14 11.3,13.5 C12.1,13 13.1,13.1 13.8,13.7 C14.8,12.7 15.6,11.4 16,10 C15.2,9.7 14.7,8.9 14.7,8 L14.7,8 Z M8,11.3 C6.1,11.3 4.6,9.8 4.6,8 C4.6,6.2 6.1,4.7 8,4.7 C9.9,4.7 11.4,6.2 11.4,8 C11.4,9.8 9.9,11.3 8,11.3 Z M8,10 C9.1045695,10 10,9.1045695 10,8 C10,6.8954305 9.1045695,6 8,6 C6.8954305,6 6,6.8954305 6,8 C6,9.1045695 6.8954305,10 8,10 Z" id="形状" fill="#CDCDCD"></path>
            </g>
        </g>
    </g>
</svg>