<?xml version="1.0" encoding="UTF-8"?>
<svg width="18px" height="18px" viewBox="0 0 18 18" version="1.1" xmlns="http://www.w3.org/2000/svg" xmlns:xlink="http://www.w3.org/1999/xlink">
    <!-- Generator: Sketch 59.1 (86144) - https://sketch.com -->
    <title>Memcached小产品图标</title>
    <desc>Created with Sketch.</desc>
    <g id="页面-1" stroke="none" stroke-width="1" fill="none" fill-rule="evenodd">
        <g id="Apple-TV" transform="translate(-1345.000000, -583.000000)">
            <g id="Memcached小产品图标" transform="translate(1344.000000, 582.000000)">
                <rect id="矩形" x="0" y="0" width="20" height="20"></rect>
                <g id="Memcached" transform="translate(1.000000, 1.000000)" fill="#FFFFFF">
                    <path d="M17.9483892,9.52539788 C17.8975118,8.13340657 17.8466344,6.74141525 17.7321603,5.34942394 C17.6431249,4.31175768 17.5159315,3.27409143 17.4141767,2.23642518 C17.3632993,1.75555545 17.2946896,1.154009 17.2361059,0.793815997 C17.1775222,0.433622991 17.1454149,0.22733695 16.922729,0.109546559 C16.7000432,-0.00824383173 16.3839098,0.0218935407 16.167681,0.0218935407 C15.9387328,0.0218935407 15.7097846,0.0218935407 15.4808364,0.0218935407 C14.9720626,0.0218935407 14.4632889,0.0218935407 13.9545151,0.0218935407 C13.6365315,0.0218935407 13.1206319,-0.0191918015 12.9035492,0.109546559 C12.6864665,0.23828492 12.7773535,0.171618197 12.3448958,0.639833457 C11.9124381,1.10804872 11.5887171,1.61635632 11.2325755,2.13518945 C10.2786247,3.52718076 9.83329734,4.22579743 9.7061039,4.42826889 C9.51531374,4.76993949 9.15315056,5.19261406 8.99397091,5.19261406 C8.83479126,5.19261406 8.8159001,5.13429801 8.54879387,4.79262741 C8.21809092,4.37503002 8.09089748,4.14724962 8.09089748,4.14724962 C7.18782405,2.81853064 6.34976419,1.38703493 5.17958453,0.26078741 C5.01423306,0.0962793452 4.9237808,0.0472024736 4.68211326,0.0218935407 C4.13518147,-0.0160698588 3.57553032,0.0218935407 3.02859853,0.0218935407 C2.57070214,0.0218935407 2.11280575,0.0218935407 1.64219002,0.0218935407 C1.43868052,0.0218935407 1.12069691,-0.0413787918 0.942626096,0.0472024736 C0.764555278,0.135783739 0.764555278,0.300291804 0.73911659,0.490108801 C0.548326429,1.94537245 0.370255611,3.4006361 0.24306217,4.86855421 C0.0522720086,7.13370371 -0.0367634001,9.37354428 0.0141139763,11.6386938 C0.0522720086,13.3723557 0.0141139763,15.1186721 0.128588073,16.852334 C0.141307417,17.1560412 0.258798356,17.231968 0.538623927,17.231968 C1.10922604,17.231968 1.71776587,17.231968 2.23431117,17.231968 C2.51396124,17.231968 2.85646548,17.2303344 3.28891928,17.231968 C3.65525658,17.2333518 4.12817859,17.2443898 4.24546827,17.1848229 C4.50121606,17.0549387 4.42772638,16.681165 4.38956835,16.4786935 C4.07158474,14.6184869 3.84263655,12.9167949 3.63912705,11.0439339 C3.52465295,10.0568855 3.43561754,9.06983709 3.39745951,8.0827887 C3.34658213,7.14635818 3.22880863,6.13187331 3.49591486,5.22075172 C3.54679224,5.05624366 3.60309415,4.89508835 3.76844562,4.81916155 C3.95923578,4.73058028 4.04614606,4.86855421 4.16062015,5.00775334 C4.41500704,5.34942394 4.59307785,5.76702133 4.77114867,6.14665533 C5.19088703,7.03246798 5.57246735,7.94358957 5.92860898,8.86736562 C6.29746996,9.80379614 6.66633094,10.7275722 7.02247258,11.6640027 C7.20054339,12.132218 7.35317552,12.6004332 7.54396568,13.0686485 C7.63300109,13.2837744 7.69659781,13.3723557 7.9509847,13.3723557 C8.20537158,13.3850102 9.65537681,13.3976646 10.1132732,13.3723557 C10.4312568,13.3597012 10.4694148,12.9800672 10.5584502,12.7269779 C10.9018725,11.7905474 11.2707335,10.8667713 11.6141558,9.94299527 C11.9702974,8.99391029 12.3645971,8.07013423 12.7588968,7.13370371 C12.9242482,6.74141525 13.0895997,6.34912679 13.2803899,5.96949279 C13.433022,5.6657856 13.6492509,5.03306227 13.9545151,4.84324528 C14.6413597,4.42564788 14.6286403,6.79203312 14.6286403,7.12104925 C14.615921,8.0827887 14.5396049,9.05718262 14.4505695,10.0062676 C14.4124115,10.423865 14.308085,11.5261896 14.1559092,12.8161741 C14.0037334,14.1061586 13.6087322,16.2236841 13.5478121,16.5558407 C13.486892,16.8879974 13.3678244,17.2151635 14.0862344,17.231968 C14.8046445,17.2487724 14.8230228,17.231968 15.1537258,17.231968 C15.9041671,17.231968 16.5019762,17.2193135 17.2524175,17.231968 C17.5958398,17.231968 17.795757,17.1180778 17.8339151,16.7890616 C17.8720731,16.4473911 17.8771932,16.112581 17.9026319,15.7709104 C17.9280705,15.1002237 17.9483892,14.5059504 17.9738278,13.7646442 C18.021137,12.3860126 17.9992665,10.9553526 17.9483892,9.52539788 Z" id="路径"></path>
                    <circle id="椭圆形" cx="10.9014085" cy="16.2253521" r="1.01408451"></circle>
                    <circle id="椭圆形备份" cx="7.09859155" cy="16.2253521" r="1.01408451"></circle>
                </g>
            </g>
        </g>
    </g>
</svg>