<?xml version="1.0" encoding="UTF-8"?>
<svg width="20px" height="20px" viewBox="0 0 20 20" version="1.1" xmlns="http://www.w3.org/2000/svg" xmlns:xlink="http://www.w3.org/1999/xlink">
    <!-- Generator: Sketch 58 (84663) - https://sketch.com -->
    <title>画板备份</title>
    <desc>Created with Sketch.</desc>
    <g id="页面-1" stroke="none" stroke-width="1" fill="none" fill-rule="evenodd">
        <g id="画板备份">
            <g id="消息订阅" transform="translate(0.000000, -0.000000)">
                <g id="编组" transform="translate(0.000000, -0.000000)">
                    <rect id="矩形" x="0" y="0" width="20" height="20"></rect>
                    <path d="M17.826,6.15 L20,7.18097101 L20,8.14897101 L17.826,7.119 L17.826,6.15 Z M2.173,6.117 L2.173,7.085 L0,8.10597101 L0,7.13797101 L2.173,6.117 Z" id="形状结合" fill="#FFFFFF"></path>
                    <path d="M5.04347826,0.5 C4.21505114,0.5 3.54347826,1.17157288 3.54347826,2 L3.54347826,12.7122153 C3.54347826,13.5406424 4.21505114,14.2122153 5.04347826,14.2122153 L14.9565217,14.2122153 C15.7849489,14.2122153 16.4565217,13.5406424 16.4565217,12.7122153 L16.4565217,2 C16.4565217,1.17157288 15.7849489,0.5 14.9565217,0.5 L5.04347826,0.5 Z" id="形状结合" stroke="#FFFFFF"></path>
                    <path d="M7.78284876,6.29493247 C7.51541836,6.29493247 7.29862319,6.07813729 7.29862319,5.81070689 L7.29862319,5.80839002 L7.29862319,3.39189589 C7.29862319,3.12318592 7.51645566,2.90535345 7.78516563,2.90535345 C8.0538756,2.90535345 8.27170807,3.12318592 8.27170807,3.39189589 L8.27162319,5.32635345 L12.6529069,5.32648132 C12.9203373,5.32648132 13.1371325,5.54327649 13.1371325,5.81070689 C13.1371325,6.07813729 12.9203373,6.29493247 12.6529069,6.29493247 L7.78516563,6.29493247 L7.78516563,6.29493247 L7.78284876,6.29493247 Z" id="形状结合" fill="#FFFFFF" transform="translate(10.217878, 4.600143) rotate(-45.000000) translate(-10.217878, -4.600143) "></path>
                    <path d="M19.999,6.77109317 L20,16.8870352 C20,17.9916047 19.1045695,18.8870352 18,18.8870352 L2.00048779,18.8870352 C0.895918293,18.8870352 0.000487792981,17.9916047 0.000487792981,16.8870352 L0,6.84809317 L9.92020758,11.6463719 L19.999,6.77109317 Z" id="形状结合" fill="#FFFFFF"></path>
                </g>
                <rect id="矩形" x="0" y="0" width="20" height="20"></rect>
            </g>
        </g>
    </g>
</svg>