<?xml version="1.0" encoding="UTF-8"?>
<svg width="14px" height="14px" viewBox="0 0 14 14" version="1.1" xmlns="http://www.w3.org/2000/svg" xmlns:xlink="http://www.w3.org/1999/xlink">
    <!-- Generator: Sketch 63.1 (92452) - https://sketch.com -->
    <title>指标管理</title>
    <desc>Created with Sketch.</desc>
    <g id="指标定义" stroke="none" stroke-width="1" fill="none" fill-rule="evenodd">
        <g id="资源实例列表（首页）" transform="translate(-37.000000, -204.000000)">
            <g id="指标管理" transform="translate(36.000000, 203.000000)">
                <g transform="translate(7.802870, 6.900000)" fill="#FFFFFF" fill-rule="nonzero" id="形状">
                    <path d="M6.64578505,2.65955266 L6.6157237,2.65955266 C6.11269711,2.65955266 5.70386276,2.22666922 5.70386276,1.69458333 C5.70386276,1.51822342 5.78302431,1.32683282 5.78302431,1.32482873 C5.86059628,1.13750717 5.8036086,0.921445962 5.64374006,0.796751022 L5.63472165,0.790738753 L4.75793229,0.273683538 L4.74891388,0.269675358 C4.57750734,0.197716221 4.37944237,0.239645298 4.25189957,0.374890082 C4.14468075,0.492129346 3.80699159,0.795748978 3.53343331,0.795748978 C3.25987503,0.795748978 2.91917973,0.486117076 2.81196092,0.366873722 C2.72700053,0.274906495 2.6074929,0.22256954 2.48228812,0.22256954 C2.42496546,0.222179395 2.36823025,0.234141639 2.31594865,0.257650818 L2.3059282,0.261658998 L1.39907748,0.790738753 L1.39005908,0.796751022 C1.23013188,0.921377768 1.17278088,1.13726333 1.24977278,1.32482873 C1.24977278,1.32683282 1.32893433,1.51822342 1.32893433,1.69458333 C1.32893433,2.22666922 0.920099977,2.65955266 0.417073392,2.65955266 L0.387012043,2.65955266 C0.240713474,2.65754857 0.120468075,2.79282464 0.0823903658,3.00626022 C0.0793842309,3.02229294 0.00924108157,3.42110685 0.00924108157,3.73474693 C0.00924108157,4.04838701 0.0793842309,4.44519683 0.0823903658,4.46323364 C0.120468075,4.67266104 0.236705294,4.80793712 0.380999773,4.80793712 L0.417073392,4.80793712 C0.920099977,4.80793712 1.32893433,5.24082055 1.32893433,5.77491053 C1.32893433,5.94926636 1.24977278,6.14266104 1.24977278,6.14266104 C1.17256065,6.33000673 1.22948962,6.54584535 1.38905703,6.67073875 L1.39707339,6.67675102 L2.25783004,7.18779397 L2.26684844,7.19180215 C2.43970603,7.26337937 2.63888555,7.21889461 2.7648648,7.08057515 C2.86607135,6.96533998 3.21678709,6.63466513 3.49836174,6.63466513 C3.77993638,6.63466513 4.12664394,6.96333589 4.23586685,7.0905956 C4.35990226,7.23137358 4.56010633,7.27698459 4.73288116,7.20382669 L4.74290161,7.19981851 L5.63371961,6.67775307 L5.64374006,6.6717408 C5.8027106,6.54645511 5.85952374,6.33105566 5.78302431,6.14366309 C5.78302431,6.14366309 5.70386276,5.9502684 5.70386276,5.77591258 C5.70386276,5.2418226 6.11269711,4.80893916 6.6157237,4.80893916 L6.64578505,4.80893916 C6.79208362,4.81294734 6.91232902,4.67566718 6.95040673,4.46423569 C6.95341286,4.44619888 7.02355601,4.04938906 7.02355601,3.73574898 C7.02355601,3.4221089 6.95341286,3.02329499 6.95040673,3.00726227 C6.91232902,2.7918226 6.79208362,2.65754857 6.64578505,2.65955266 L6.64578505,2.65955266 Z M6.14932482,4.29470511 C5.54287571,4.32811257 5.05771642,4.8669425 5.05771642,5.52431501 C5.05771642,5.74307996 5.13714515,5.95322364 5.15431893,5.99633003 L4.43087345,6.42308333 L4.42872672,6.42308333 C4.41799311,6.42308333 4.40833286,6.42092801 4.40618614,6.41661737 C4.32427233,6.32379157 4.23409399,6.23866281 4.13677246,6.16228965 C3.9113666,5.98339811 3.69776771,5.89287468 3.49919588,5.89287468 C3.30277077,5.89287468 3.09024524,5.98339811 2.86591274,6.15797901 C2.71564216,6.27544393 2.61152612,6.39398652 2.59864578,6.4079961 C2.59166085,6.41169919 2.58398435,6.41390126 2.5761052,6.41446205 L2.57395848,6.41446205 L1.8752003,5.99740769 C1.89344744,5.95322364 1.97287617,5.74307996 1.97287617,5.52431501 C1.97287617,4.86802016 1.48879025,4.32919023 0.881267776,4.29470511 C0.848490849,4.10958548 0.829475663,3.92227424 0.82437963,3.73432199 C0.82437963,3.51771235 0.871607525,3.22889951 0.880194415,3.17609418 C1.48771689,3.14268672 1.97287617,2.60385679 1.97287617,1.94648428 C1.97287617,1.72771933 1.89344744,1.51973098 1.87627366,1.47446926 L2.6147462,1.04125 L2.61689293,1.04125 C2.62977326,1.04125 2.64050687,1.04556064 2.64372696,1.04987128 C2.65660729,1.0628032 2.75964997,1.17595748 2.90992055,1.29018943 C3.12995961,1.45830437 3.33926505,1.54451715 3.53139672,1.54451715 C3.72138166,1.54451715 3.92854038,1.46045968 4.14857944,1.29450007 C4.29777665,1.18242344 4.39974597,1.07142448 4.41262631,1.05849256 C4.42100057,1.05441589 4.4301554,1.05220993 4.43946034,1.0520266 L4.44160706,1.0520266 L5.15431893,1.47554692 C5.13714515,1.51757566 5.05771642,1.72771933 5.05771642,1.94756194 C5.05771642,2.60385679 5.54180235,3.14268672 6.14932482,3.17717184 C6.15898507,3.22997717 6.20621296,3.51771235 6.20621296,3.73539965 C6.20621296,3.9541646 6.15898507,4.24513276 6.14932482,4.29470511 L6.14932482,4.29470511 Z"></path>
                </g>
                <rect id="矩形" x="0" y="0" width="16" height="16"></rect>
                <polyline id="路径-3" stroke="#FFFFFF" stroke-linecap="round" stroke-linejoin="round" points="2.30086401 6.08333333 6.18042537 2.20377197 10.0599867 6.08333333 13.9395481 2.20377197"></polyline>
                <polyline id="路径" stroke="#FFFFFF" stroke-linecap="round" stroke-linejoin="round" points="12.0041667 2 14.4541667 2 14.4541667 4.45"></polyline>
                <line x1="2.20416667" y1="10.575" x2="2.20416667" y2="13.6375" id="直线" stroke="#FFFFFF" stroke-linecap="round"></line>
                <line x1="6.08333333" y1="7.10416667" x2="6.08333333" y2="13.6375" id="直线" stroke="#FFFFFF" stroke-linecap="round"></line>
                <path d="M11.3192689,9.62167945 C11.0543039,9.62406051 10.8011383,9.73160655 10.6154712,9.92065631 C10.429804,10.1097061 10.3268458,10.3647719 10.3292485,10.6297367 C10.3292485,11.1878758 10.7721524,11.637794 11.3192689,11.637794 C11.8663855,11.637794 12.3092894,11.1878758 12.3092894,10.6297367 C12.311692,10.3647719 12.2087338,10.1097061 12.0230667,9.92065631 C11.8373995,9.73160655 11.5842339,9.62406051 11.3192689,9.62167945 Z" id="路径" fill="#FFFFFF"></path>
            </g>
        </g>
    </g>
</svg>