<?xml version="1.0" encoding="UTF-8"?>
<svg width="18px" height="18px" viewBox="0 0 18 18" version="1.1" xmlns="http://www.w3.org/2000/svg" xmlns:xlink="http://www.w3.org/1999/xlink">
    <!-- Generator: Sketch 59.1 (86144) - https://sketch.com -->
    <title>编组 23</title>
    <desc>Created with Sketch.</desc>
    <g id="f" stroke="none" stroke-width="1" fill="none" fill-rule="evenodd">
        <g id="编组-23" transform="translate(1.000000, 1.000000)">
            <path d="M2.59080903,0.0100071601 L13.3672283,0.00152611471 C14.438479,0.000683040067 15.3201714,0.84405521 15.3668987,1.91428666 L15.9092561,14.336304 C15.9574368,15.4398222 15.1019167,16.3734586 13.9983985,16.4216393 C13.9721686,16.4227845 13.9459186,16.4234131 13.9196639,16.4235248 L2.09216384,16.4738172 C0.987604322,16.478514 0.0883744361,15.586899 0.0836776711,14.4823395 C0.0835499731,14.4523082 0.0840987073,14.4222778 0.0853234564,14.3922712 L0.594046898,1.92844248 C0.637774666,0.857103199 1.51857806,0.0108510062 2.59080903,0.0100071601 Z" id="矩形" stroke="#FFFFFF" fill-rule="nonzero"></path>
            <path d="M7.99236191,2.99670911 C6.03537033,2.99670911 4.37045755,1.74617109 3.75313798,0.000609435665 L4.39531073,0.000512483598 C4.98258838,1.40805631 6.37194554,2.39733838 7.99236191,2.39733838 C9.61277828,2.39733838 11.0021354,1.40805631 11.5894131,0.000512483598 L12.2315858,0.000609435665 C11.6142663,1.74617109 9.9493535,2.99670911 7.99236191,2.99670911 Z" id="形状结合" fill="#FFFFFF" fill-rule="nonzero"></path>
            <g id="编组-15备份" transform="translate(3.555556, 5.333351)" fill="#FFFFFF">
                <path d="M4.46264156,7.61409806 C3.31994372,7.61409806 2.39034113,6.67268235 2.39034113,5.51546342 L2.39034113,5.05341292 C2.39034113,4.7035067 2.6704108,4.41987798 3.01592631,4.41987798 C3.36138519,4.41987798 3.64151148,4.7035067 3.64151148,5.05341292 L3.64151148,5.51546342 C3.64151148,5.97395925 4.00984244,6.34697086 4.46264156,6.34697086 C4.91544067,6.34697086 5.28377163,5.97395925 5.28377163,5.51546342 L5.28377163,5.05341292 C5.28377163,4.7035067 5.56389792,4.41987798 5.90935681,4.41987798 C6.25487231,4.41987798 6.53494198,4.7035067 6.53494198,5.05341292 L6.53494198,5.51546342 C6.53494198,6.67268235 5.6053394,7.61409806 4.46264156,7.61409806" id="Fill-20"></path>
                <path d="M8.30114726,2.42767147 C8.13509827,2.42767147 7.98461815,2.49377698 7.87280541,2.60087591 C7.68297852,2.72437223 7.45204984,2.79942175 7.18483156,2.79942175 C6.91834926,2.79942175 6.73837322,2.72477356 6.54996169,2.60190792 C6.49595189,2.52393438 6.42880763,2.45616621 6.35147285,2.40204341 C6.23213045,2.21307227 6.16040046,2.02891713 6.16040046,1.76260313 C6.16040046,1.49451178 6.23269659,1.25898585 6.35294482,1.0677787 C6.4597189,0.954373081 6.52567426,0.801178027 6.52567426,0.632101599 C6.52567426,0.282998049 6.24628396,3.28626015e-14 5.90156105,3.28626015e-14 C5.55689476,3.28626015e-14 5.27744784,0.282998049 5.27744784,0.632101599 C5.27744784,0.800203358 5.34272384,0.952653077 5.44842225,1.0658867 C5.57042552,1.25812585 5.6445333,1.49193177 5.6445333,1.76260313 C5.6445333,2.03241447 5.5707652,2.21473494 5.44949792,2.40548342 C5.37329542,2.45960622 5.30700038,2.52685839 5.25383979,2.60420125 C5.06129543,2.72563356 4.72732919,2.79942175 4.46265854,2.79942175 C4.19555349,2.79942175 3.86079465,2.72442956 3.66915612,2.60110525 C3.61633521,2.52508105 3.55094599,2.45886089 3.47581916,2.40548342 C3.35449527,2.21473494 3.28078378,2.03241447 3.28078378,1.76260313 C3.28078378,1.49193177 3.35489156,1.25812585 3.47683821,1.0658867 C3.58253663,0.952653077 3.64781262,0.800203358 3.64781262,0.632101599 C3.64781262,0.282998049 3.36842232,3.28626015e-14 3.02369941,3.28626015e-14 C2.67897651,3.28626015e-14 2.39958621,0.282998049 2.39958621,0.632101599 C2.39958621,0.801178027 2.46554157,0.954373081 2.57231565,1.0677787 C2.69256388,1.25898585 2.76486001,1.49451178 2.76486001,1.76260313 C2.76486001,2.02891713 2.69313002,2.21307227 2.57384423,2.40204341 C2.49645283,2.45616621 2.42930858,2.52393438 2.37529878,2.60190792 C2.18694386,2.72477356 2.0069112,2.79942175 1.74048552,2.79942175 C1.47321062,2.79942175 1.24233856,2.72437223 1.05251167,2.60087591 C0.940698936,2.49377698 0.790162196,2.42767147 0.624113208,2.42767147 C0.279446915,2.42767147 1.27897692e-13,2.71066952 1.27897692e-13,3.05971574 C1.27897692e-13,3.40881929 0.279446915,3.69181734 0.624113208,3.69181734 C0.791124635,3.69181734 0.942397357,3.62502384 1.05437993,3.51683556 C1.24318777,3.39505926 1.47570164,3.3218444 1.74048552,3.3218444 C2.00345775,3.3218444 2.18530205,3.39448592 2.37184532,3.51528756 C2.51451271,3.72438276 2.75257476,3.8616391 3.02251052,3.8616391 C3.29097431,3.8616391 3.52779085,3.72581609 3.6706847,3.51872757 C3.86164386,3.39574726 4.19651593,3.3218444 4.46265854,3.3218444 C4.72693289,3.3218444 5.06191818,3.39511659 5.25338688,3.51700756 C5.39616749,3.72512809 5.63360679,3.8616391 5.90274995,3.8616391 C6.1726857,3.8616391 6.41074775,3.72438276 6.55341514,3.51528756 C6.73995841,3.39448592 6.92185933,3.3218444 7.18483156,3.3218444 C7.44955883,3.3218444 7.68212931,3.39505926 7.87088053,3.51683556 C7.98286311,3.62502384 8.13419245,3.69181734 8.30114726,3.69181734 C8.64581355,3.69181734 8.92526047,3.40881929 8.92526047,3.05971574 C8.92526047,2.71066952 8.64581355,2.42767147 8.30114726,2.42767147" id="Fill-22"></path>
            </g>
        </g>
    </g>
</svg>