<?xml version="1.0" encoding="UTF-8"?>
<svg width="20px" height="20px" viewBox="0 0 20 20" version="1.1" xmlns="http://www.w3.org/2000/svg" xmlns:xlink="http://www.w3.org/1999/xlink">
    <!-- Generator: Sketch 58 (84663) - https://sketch.com -->
    <title>画板备份 2</title>
    <desc>Created with Sketch.</desc>
    <g id="页面-1" stroke="none" stroke-width="1" fill="none" fill-rule="evenodd">
        <g id="画板备份-2">
            <g id="在线商店">
                <path d="M15.9569149,-2.10498285e-13 C16.973553,-2.10498285e-13 17.7819764,0.535118957 18.0739847,1.39643275 L18.0739847,1.39643275 L19.7642146,5.56440904 C19.780739,5.60287368 19.7922826,5.64288619 19.800994,5.68440787 C19.8034637,5.69402263 19.8053681,5.70377127 19.8066974,5.71360462 C19.9322512,6.09151775 20.0006925,6.5058059 20,6.92011338 C20.0006535,8.35942221 19.2096528,9.68302754 17.9347778,10.3722953 C17.396838,10.6651721 16.7580333,10.8144838 16.0382866,10.8187405 C14.8492171,10.8187405 13.7517933,10.3051563 13.0047209,9.42372016 C12.2642308,10.2973202 11.1804406,10.8115235 10.0086377,10.8201723 C8.82747886,10.8129359 7.74007516,10.3007836 6.99671387,9.42724157 C6.2496219,10.3087744 5.15362397,10.8237711 3.97025795,10.8265766 L3.97025795,10.8265766 C3.26289473,10.8265766 2.6348523,10.6837273 2.10197135,10.4008729 C0.807603118,9.71870601 0.00142585986,8.39014748 1.0658141e-14,6.93512775 C1.0658141e-14,6.52149746 0.066331782,6.10939568 0.198233585,5.70795489 C0.20616371,5.67005135 0.215617356,5.6330185 0.22421158,5.60792361 L0.22421158,5.60792361 L2.04134301,1.3550078 C2.32190535,0.525038436 3.09630352,-2.10498285e-13 4.09284283,-2.10498285e-13 L4.09284283,-2.10498285e-13 Z M14.549763,3 L5.45023697,3 C5.20157796,3 5,3.22385763 5,3.5 C5,3.77614237 5.20157796,4 5.45023697,4 L14.549763,4 C14.798422,4 15,3.77614237 15,3.5 C15,3.22385763 14.798422,3 14.549763,3 Z" id="形状结合" fill="#FFFFFF"></path>
                <path d="M10.8606557,15.279388 L10.8606557,18.7004505 L3.48360656,18.7004505 C2.94037566,18.7004505 2.5,18.2749888 2.5,17.7501553 L2.5,12.0483846 M17.2540984,17.7501553 C17.2540984,18.2749888 16.8137227,18.7004505 16.2704918,18.7004505 L13.8114754,18.7004505 L13.8114754,16.4197422 M10.8606557,15.279388 L10.8606557,13.9489748 L13.8114754,13.9489748 L13.8114754,16.4197422 M17.2540984,12.0483846 L17.2540984,17.5125815" id="形状结合" stroke="#FFFFFF" stroke-linecap="round"></path>
            </g>
        </g>
    </g>
</svg>