<?xml version="1.0" encoding="UTF-8"?>
<svg width="22px" height="22px" viewBox="0 0 22 22" version="1.1" xmlns="http://www.w3.org/2000/svg" xmlns:xlink="http://www.w3.org/1999/xlink">
    <title>模型中心</title>
    <g id="页面-1" stroke="none" stroke-width="1" fill="none" fill-rule="evenodd">
        <g id="画板" transform="translate(-112.000000, -397.000000)">
            <g id="编组-3" transform="translate(112.000000, 397.000000)">
                <rect id="矩形" x="0" y="0" width="22" height="22"></rect>
                <path d="M11.747134,1.1954031 L11.8482143,1.24408485 L19.6194805,5.2382001 C20.2232072,5.54949668 20.6103798,6.12246285 20.6256442,6.74995989 L20.625321,12.2439264 C20.2223181,12.0991198 19.7958694,12.0034828 19.3532094,11.96425 L19.3532062,6.82598418 C19.3532062,6.59997972 19.2289037,6.39054893 19.0258764,6.26605814 L18.9685877,6.23426339 L11.1973214,2.24014814 C11.0888393,2.18097606 10.9606331,2.15139001 10.8225649,2.15139001 C10.7121104,2.15139001 10.6079675,2.1703251 10.5101364,2.20819522 L10.4379464,2.24014814 L2.67654221,6.23426339 C2.45957792,6.35178572 2.31719512,6.54388951 2.29497133,6.76499722 L2.29192371,6.82598418 L2.29192371,14.8142147 C2.29192371,15.0402192 2.41622617,15.24965 2.6192535,15.3741408 L2.67654221,15.4059355 L10.4379464,19.4000508 C10.6441522,19.5076363 10.9155613,19.5174168 11.1336222,19.4293923 L11.1973214,19.4000508 L13.8732431,18.0231378 C13.9499215,18.4244597 14.0735071,18.8091333 14.2380762,19.1712347 L11.8383523,20.4059761 C11.5326299,20.5637683 11.1775974,20.6525264 10.8127029,20.6525264 C10.4971185,20.6525264 10.1815341,20.5823965 9.89365529,20.4559896 L9.78705358,20.4059761 L2.02564933,16.4118608 C1.42317,16.1012074 1.03635088,15.5389504 1.00243029,14.9137925 L1,14.8240767 L1,6.83584618 C1,6.20512564 1.35943371,5.61933431 1.94106275,5.28432964 L2.02564933,5.2382001 L9.78705358,1.24408485 C10.37566,0.935767181 11.1324397,0.919539931 11.747134,1.1954031 Z M4.26509917,6.85855581 L4.32349837,6.88515626 L10.3787743,9.92265626 C10.4379464,9.95224231 10.4872565,9.98182835 10.5365665,10.0114144 C10.7140828,10.0804485 10.9211851,10.0804485 11.0987013,10.0212764 C11.1381493,9.99497768 11.1775974,9.9730621 11.2170455,9.95260756 L11.2762175,9.92265626 L17.5287338,6.88515626 C17.8443182,6.72736406 18.2387987,6.83584618 18.4064529,7.1317066 C18.573527,7.40088151 18.4785241,7.72247189 18.2036644,7.89092701 L18.1500406,7.92066764 L11.8186282,11.0173397 C11.7989042,11.0272017 11.7693182,11.0370637 11.7495942,11.0469258 C11.6093344,11.1608868 11.5158279,11.3138088 11.4967803,11.4849128 L11.4931818,11.5498884 L11.4734578,17.3684761 L11.4734578,17.7629566 C11.4734578,17.9108868 11.4142857,18.039093 11.3255276,18.1377131 C11.2203328,18.2604403 11.0605925,18.3364144 10.8878652,18.3517823 L10.8225649,18.3546773 L10.7535308,18.3546773 C10.558263,18.3369258 10.3869598,18.2392918 10.2827578,18.104912 L10.2505682,18.058817 L10.2505682,18.048955 C10.2407062,18.0292309 10.2407062,18.0193689 10.2308442,18.0095069 C10.2308442,18.0029322 10.226461,18.0007407 10.223539,17.9970881 L10.2209821,17.9897829 C10.2209821,17.9799209 10.2111201,17.9700588 10.2111201,17.9601968 C10.2111201,17.9601968 10.2012581,17.9503348 10.2012581,17.9404728 C10.1913961,17.9306108 10.1913961,17.9207488 10.1913961,17.9108868 L10.1864651,17.8960938 L10.1864651,17.8960938 L10.1815341,17.8813008 L10.1815341,17.8517147 C10.1749594,17.84514 10.1727679,17.8385653 10.1720373,17.8319907 L10.1716721,17.7629566 L10.142086,11.5400264 C10.142086,11.3329241 10.0336039,11.1356838 9.85608767,11.0074777 C9.849513,11.000903 9.83855521,10.9987115 9.82905846,10.9950588 L9.81663962,10.9877537 L4.32349837,8.20666601 L3.69232954,7.8910816 C3.63315746,7.86149556 3.57398537,7.82204751 3.53453733,7.78259943 C3.33729708,7.60508322 3.287987,7.32894685 3.43591721,7.10212056 C3.60233867,6.84324272 3.96811921,6.74038501 4.26509917,6.85855581 Z" id="形状结合" fill="#FFFFFF" fill-rule="nonzero"></path>
                <path d="M17.069936,13.1880147 C15.9668013,13.4812958 15.1034295,14.3628752 14.8361921,15.4763817 C14.7798443,15.7111679 14.75,15.9562654 14.75,16.2083333 C14.75,16.4835701 14.7855827,16.750496 14.8523988,17.004762 C14.8850537,17.1290289 14.925169,17.250272 14.9722368,17.3679834 M16.0058759,18.712965 C16.2937626,18.9281529 16.6199887,19.0948712 16.9724577,19.2010236 C17.2582056,19.2870817 17.5612015,19.3333333 17.875,19.3333333 C18.1151567,19.3333333 18.348986,19.306243 18.5735989,19.2549514 C19.0102437,19.1552412 19.4120586,18.9640724 19.7578184,18.7026705 M20.7582638,17.4156009 C20.9139713,17.0441714 21,16.6362989 21,16.2083333 C21,15.6700663 20.8639115,15.1635844 20.6242645,14.7214176 C20.4016041,14.3105924 20.0895456,13.9552879 19.7141805,13.6815953 C19.3994718,13.4521296 19.0402632,13.2800311 18.6519313,13.1806763" id="形状" stroke="#FFFFFF" stroke-linecap="round"></path>
                <circle id="椭圆形" fill="#FFFFFF" cx="17.875" cy="16.2083333" r="1.45833333"></circle>
            </g>
        </g>
    </g>
</svg>