<?xml version="1.0" encoding="UTF-8"?>
<svg width="22px" height="22px" viewBox="0 0 22 22" version="1.1" xmlns="http://www.w3.org/2000/svg" xmlns:xlink="http://www.w3.org/1999/xlink">
    <title>模型管理</title>
    <g id="页面-1" stroke="none" stroke-width="1" fill="none" fill-rule="evenodd">
        <g id="Apple-TV备份-2" transform="translate(-1112.000000, -469.000000)">
            <g id="模型管理" transform="translate(1112.000000, 469.000000)">
                <g id="编组-11">
                    <rect id="矩形" x="0" y="0" width="22" height="22"></rect>
                    <path d="M2.80165172,6.84069834 L2.85840991,6.86124716 L8.3857738,10.2111802 C8.8400191,10.4770038 9.20763836,10.9959925 9.24161967,11.5270367 L9.2441837,11.6067536 L9.2441837,18.1199863 C9.2441837,18.6575405 8.89046383,18.8494815 8.43886919,18.6142231 L8.38634229,18.5851774 L2.85784141,15.2352443 C2.40359613,14.9694208 2.03649251,14.4504321 2.00256029,13.9193879 L2,13.839671 L2,7.32643827 C2,6.87985479 2.35154648,6.69050338 2.80165172,6.84069834 Z M17.8272332,8.00881833 L17.8333585,8.10727234 L17.8334107,9.97037745 C17.6505246,10.0897509 17.4385717,10.191856 17.2546285,10.191856 C16.8843243,10.191856 16.5023958,9.6431618 16.3645782,9.49954818 C16.1599526,9.29566049 15.7559764,9.36919526 15.4874724,9.47571991 L15.4713723,9.48280399 L14.1679015,10.193144 L14.1524453,10.2040922 C13.9028711,10.3791482 13.7275022,10.829217 13.8484488,11.1090453 C13.8497368,11.1116213 13.9077196,11.3054982 13.9077196,11.5270367 C13.9045255,12.2103499 13.4596836,12.5787588 12.8814092,12.5787588 L12.7774144,12.5787588 C12.5404198,12.5787588 12.3176686,12.8896026 12.2584199,13.2006581 C12.2539118,13.2231983 12.1528027,13.7641645 12.1528027,14.1866333 C12.1528027,14.609746 12.2539118,15.1507122 12.2584199,15.1732524 C12.3183126,15.4843079 12.6755977,15.8722648 12.9119483,15.8722648 L12.9634689,15.8722648 C13.6486927,15.8722648 13.9077196,16.3516282 13.9077196,17.0310559 C13.9077196,17.2266396 13.823405,17.4429232 13.8031889,17.4912614 L11.4470162,18.5851774 L11.3944893,18.6142231 C10.973001,18.8337976 10.6367724,18.681234 10.5938153,18.2228648 L10.5891748,18.1199863 L10.5891748,11.6067536 L10.5917388,11.5270367 C10.6226309,11.0442692 10.9292569,10.571465 11.326033,10.2897732 L11.4475847,10.2111802 L16.9749486,7.64208123 L17.0317068,7.62153241 C17.4471885,7.48289091 17.7786912,7.63356702 17.8272332,8.00881833 Z M10.4229948,2.16956216 L10.482909,2.209336 L16.2018519,5.55871202 C16.6599182,5.82709152 16.6775362,6.18200514 16.2547057,6.45654586 L16.2018519,6.48909426 L10.7688562,9.18775981 C10.32049,9.36236625 9.70292426,9.37263723 9.23465221,9.14100616 L9.14867852,9.09472159 L3.71568283,5.74478846 C3.25761641,5.47694465 3.23999847,5.12205162 3.66282901,4.84701645 L3.71568283,4.81440623 L8.86273138,2.209336 C9.31530101,1.94417707 10.026451,1.93091912 10.4229948,2.16956216 Z" id="形状结合" fill="#FFFFFF" fill-rule="nonzero"></path>
                </g>
                <g id="配置-(3)" transform="translate(13.322094, 10.589175)" fill="#FFFFFF" fill-rule="nonzero">
                    <path d="M2.53884371,0.0455639647 C2.74311082,-0.0354757479 2.9759941,0.0124481673 3.13166519,0.167557806 C3.2365113,0.276813329 3.60151296,0.590371799 3.88322564,0.590371799 C4.16150877,0.590371799 4.52406075,0.283182488 4.6293968,0.176376638 C4.78592268,0.0225612532 5.01883415,-0.0236360618 5.22221828,0.0587922125 L5.22221828,0.0587922125 L5.23446666,0.063691566 L6.19228979,0.592331541 L6.20404823,0.600170505 C6.39329471,0.734054638 6.4628057,0.982249753 6.37062617,1.19495172 C6.37013623,1.19642153 6.28831707,1.38455661 6.28831707,1.55260435 C6.29101642,2.07244195 6.71404976,2.49196828 7.23389182,2.49034014 L7.23389182,2.49034014 L7.27259669,2.49034014 C7.45289281,2.49034014 7.59840353,2.64319989 7.6439675,2.87983855 C7.64690712,2.89649634 7.72431686,3.30608209 7.72431686,3.62943926 C7.72431686,3.95916558 7.64445744,4.37610036 7.6439675,4.38050977 C7.59840353,4.61665849 7.45289281,4.76951824 7.27259669,4.76951824 L7.27259669,4.76951824 L7.23340188,4.76951824 C6.71211093,4.76951824 6.28782713,5.1903725 6.28782713,5.70725403 C6.28782713,5.8743219 6.37013623,6.06392679 6.3711161,6.06588653 C6.46285876,6.2786361 6.39269368,6.52656637 6.20306836,6.65968788 L6.20306836,6.65968788 L6.19179985,6.66801677 L5.21780886,7.20204604 L5.20556048,7.20743532 C4.99987202,7.29042666 4.76436795,7.23955934 4.61126921,7.07907233 C4.50446335,6.96246777 4.1326026,6.6293119 3.84305096,6.6293119 C3.57554639,6.6293119 3.21348435,6.92670251 3.080222,7.0702535 C2.92592966,7.2296201 2.69003079,7.27874142 2.48495085,7.19420707 L2.48495085,7.19420707 L2.47319241,7.18930773 L1.53349688,6.66752684 L1.52173844,6.66017781 C1.33360336,6.52936514 1.26207283,6.27312908 1.3551605,6.06490666 C1.35614037,6.06343686 1.43795953,5.87530178 1.43795953,5.70725403 C1.43795953,5.1903725 1.01367573,4.76951824 0.49238478,4.76951824 L0.49238478,4.76951824 L0.453189974,4.76951824 C0.273383788,4.76951824 0.127873062,4.61665849 0.0823090976,4.38001983 C0.0788795566,4.36287211 0.00195974281,3.95132662 0.00195974281,3.62943926 C0.00195974281,3.30804182 0.0788795494,2.89649634 0.0823090976,2.87934861 C0.127383132,2.64270995 0.272893858,2.4898502 0.453189974,2.4898502 L0.453189974,2.4898502 L0.49238478,2.4898502 C1.01222613,2.49120682 1.43503967,2.07146191 1.4374696,1.55162447 C1.4374696,1.3830868 1.35614037,1.19593159 1.3551605,1.19397185 C1.2631491,0.981089686 1.33334208,0.732856218 1.52320824,0.599680568 L1.52320824,0.599680568 L1.53496668,0.591351673 L2.52659533,0.0509532485 Z M3.86051464,2.32386868 C3.14112304,2.32386868 2.55616681,2.90812812 2.55616681,3.62839937 C2.55616681,4.34837789 3.14119577,4.93256433 3.8601511,4.93256433 C4.57950793,4.93256433 5.16486247,4.34834078 5.16486247,3.62803364 C5.16486247,2.90809165 4.57950736,2.32386868 3.86051464,2.32386868 Z" id="形状结合"></path>
                </g>
            </g>
        </g>
    </g>
</svg>