<?xml version="1.0" encoding="UTF-8"?>
<svg width="22px" height="22px" viewBox="0 0 22 22" version="1.1" xmlns="http://www.w3.org/2000/svg" xmlns:xlink="http://www.w3.org/1999/xlink">
    <title>resource</title>
    <defs>
        <path d="M0.479111111,0.512 C0.492888889,0.512888889 0.506666667,0.512888889 0.520888889,0.514222222 L0.520888889,0.514222222 C0.511555556,0.504444445 0.503555556,0.494666667 0.494666667,0.485777778 L0.494666667,0.485777778 C0.490222222,0.494666667 0.484,0.502666667 0.479111111,0.512" id="path-1"></path>
        <linearGradient x1="45.2988%" y1="49.94418%" x2="54.63933%" y2="49.94418%" id="linearGradient-3">
            <stop stop-color="#1452CC" offset="0%"></stop>
            <stop stop-color="#28C6CC" offset="100%"></stop>
        </linearGradient>
    </defs>
    <g id="页面-1" stroke="none" stroke-width="1" fill="none" fill-rule="evenodd">
        <g id="Apple-TV" transform="translate(-770.000000, -752.000000)">
            <g id="resource" transform="translate(770.000000, 752.000000)">
                <rect id="矩形" x="0" y="0" width="22" height="22"></rect>
                <g id="mongodb-resource" transform="translate(1.000000, 1.000000)">
                    <rect id="矩形" x="0" y="0" width="20" height="20"></rect>
                    <g transform="translate(0.000000, 0.444311)" id="MONGODB">
                        <g id="icon/数据库变更">
                            <g id="编组" transform="translate(0.184000, 0.000000)" fill="#FFFFFF" fill-rule="nonzero">
                                <g id="Fill-3-Clipped">
                                    <path d="M9.012,-4.16333634e-16 C3.95866667,-4.16333634e-16 7.21644966e-16,2.08222223 7.21644966e-16,4.74044445 L7.21644966e-16,4.74044445 C7.21644966e-16,7.39911111 3.95866667,9.48133334 9.012,9.48133334 L9.012,9.48133334 C14.0657778,9.48133334 18.0244444,7.39911111 18.0244444,4.74044445 L18.0244444,4.74044445 C18.0244444,2.08222223 14.0657778,-4.16333634e-16 9.012,-4.16333634e-16 Z M0.88888889,4.74044445 C0.88888889,2.65288889 4.60888889,0.888888887 9.012,0.888888887 L9.012,0.888888887 C13.4151111,0.888888887 17.1351111,2.65288889 17.1351111,4.74044445 L17.1351111,4.74044445 C17.1351111,6.82844445 13.4151111,8.592 9.012,8.592 L9.012,8.592 C4.60888889,8.592 0.88888889,6.82844445 0.88888889,4.74044445 L0.88888889,4.74044445 Z" id="Fill-3"></path>
                                </g>
                            </g>
                            <g id="编组" transform="translate(0.140000, 12.652444)" fill="#FFFFFF" fill-rule="nonzero">
                                <g id="Fill-5-Clipped">
                                    <path d="M3.33066907e-16,1.92888889 C3.33066907e-16,4.62977778 4.02844444,6.74577778 9.17111111,6.74577778 L9.17111111,6.74577778 C9.62755556,6.74577778 10.0751111,6.728 10.5128889,6.696 L10.5128889,6.696 C10.372,6.42044445 10.2502222,6.13377778 10.1462222,5.83911111 L10.1462222,5.83911111 C9.82533333,5.85777778 9.50088889,5.87022223 9.17111111,5.87022223 L9.17111111,5.87022223 C4.67377778,5.87022223 0.87555556,4.06533334 0.87555556,1.92888889 L0.87555556,1.92888889 C0.87555556,1.49377778 1.03955556,1.07466667 1.32844444,0.679555557 L1.32844444,0.679555557 C1.09422222,0.463555556 0.89822222,0.236 0.742666667,-1.66533454e-16 L0.742666667,-1.66533454e-16 C0.265777778,0.588 3.33066907e-16,1.23911111 3.33066907e-16,1.92888889" id="Fill-5"></path>
                                </g>
                            </g>
                            <path d="M17.1370667,9.10995534 C17.4588444,9.11928867 17.7744,9.15084423 18.0837333,9.20195534 C18.2517333,8.83217756 18.3424,8.44417756 18.3424,8.04373311 C18.3424,7.23128867 17.9726222,6.47439978 17.3237333,5.80951089 C17.1979556,6.06328867 17.0286222,6.30773311 16.8148444,6.54151089 C17.2330667,7.00728867 17.4668444,7.51484423 17.4668444,8.04373311 C17.4668444,8.41173311 17.3472889,8.76906645 17.1370667,9.10995534" id="Fill-7" fill="#FFFFFF" fill-rule="nonzero"></path>
                            <g id="编组" transform="translate(0.000000, 6.115111)" fill="#FFFFFF" fill-rule="nonzero">
                                <g id="Fill-9-Clipped">
                                    <path d="M0,1.92844445 C0,4.62933334 4.028,6.74533334 9.17066667,6.74533334 L9.17066667,6.74533334 C9.70355556,6.74533334 10.2235556,6.72133334 10.7293333,6.67777778 L10.7293333,6.67777778 C10.9128889,6.33955556 11.1284444,6.02177778 11.3626667,5.72 L11.3626667,5.72 C10.6608889,5.81511111 9.92755556,5.86977778 9.17066667,5.86977778 L9.17066667,5.86977778 C4.67422222,5.86977778 0.875111111,4.06533334 0.875111111,1.92844445 L0.875111111,1.92844445 C0.875111111,1.49377778 1.04,1.07377778 1.328,0.679111111 L1.328,0.679111111 C1.09422222,0.463555556 0.898666667,0.236444445 0.742222222,5.55111512e-17 L0.742222222,5.55111512e-17 C0.265777778,0.588 0,1.23866667 0,1.92844445" id="Fill-9"></path>
                                </g>
                            </g>
                            <g id="Fill-11-Clipped" transform="translate(16.968889, 8.613778)">
                                <mask id="mask-2" fill="white">
                                    <use xlink:href="#path-1"></use>
                                </mask>
                                <g id="path-10"></g>
                                <path d="M0.479111111,0.512 C0.492888889,0.512888889 0.506666667,0.512888889 0.520888889,0.514222222 L0.520888889,0.514222222 C0.511555556,0.504444445 0.503555556,0.494666667 0.494666667,0.485777778 L0.494666667,0.485777778 C0.490222222,0.494666667 0.484,0.502666667 0.479111111,0.512" id="Fill-11" fill="url(#linearGradient-3)" fill-rule="nonzero" mask="url(#mask-2)"></path>
                            </g>
                            <g id="编组" transform="translate(0.140000, 9.404444)" fill="#FFFFFF" fill-rule="nonzero">
                                <g id="Fill-13-Clipped">
                                    <path d="M3.33066907e-16,1.92888889 C3.33066907e-16,4.62933334 4.02844444,6.74577778 9.17111111,6.74577778 L9.17111111,6.74577778 C9.36222222,6.74577778 9.55155556,6.74177778 9.74,6.736 L9.74,6.736 C9.74044444,6.43688889 9.76577778,6.14355556 9.80222222,5.85466667 L9.80222222,5.85466667 C9.59333333,5.86266667 9.384,5.87022223 9.17111111,5.87022223 L9.17111111,5.87022223 C4.67377778,5.87022223 0.87555556,4.06533334 0.87555556,1.92888889 L0.87555556,1.92888889 C0.87555556,1.49377778 1.03955556,1.07466667 1.32844444,0.679555556 L1.32844444,0.679555556 C1.09422222,0.463555556 0.89822222,0.236 0.742666667,2.77555756e-17 L0.742666667,2.77555756e-17 C0.265777778,0.588 3.33066907e-16,1.23911112 3.33066907e-16,1.92888889" id="Fill-13"></path>
                                </g>
                            </g>
                        </g>
                        <path d="M16.2338175,10.6667998 C16.0588961,11.7163278 14.2222222,12.6346647 14.2222222,15.2147542 C14.2222222,17.5761921 15.4904018,18.2758774 15.7965141,18.4070684 C16.2775478,17.9260348 16.1900871,13.6841927 16.2338175,10.6667998 Z M16.0588961,19.412866 L16.0588961,18.5382594 C16.7148511,18.2321471 16.3212781,13.1156984 16.2775478,11.2352941 C16.4961994,11.8475188 17.9830307,13.33435 17.9830307,15.2147542 C17.9830307,17.0951585 17.1521544,17.9697651 16.4524691,18.4507988 L16.4524691,19.3254054 C16.4524691,19.4565964 16.3650084,19.544057 16.2775478,19.544057 C16.1463568,19.5877874 16.0588961,19.5003267 16.0588961,19.412866 L16.0588961,19.412866 Z" id="形状" fill="#FFFFFF" fill-rule="nonzero"></path>
                    </g>
                </g>
            </g>
        </g>
    </g>
</svg>