<?xml version="1.0" encoding="UTF-8"?>
<svg width="19px" height="20px" viewBox="0 0 19 20" version="1.1" xmlns="http://www.w3.org/2000/svg" xmlns:xlink="http://www.w3.org/1999/xlink">
    <!-- Generator: Sketch 59.1 (86144) - https://sketch.com -->
    <title>MONGODB小产品图标</title>
    <desc>Created with Sketch.</desc>
    <defs>
        <polygon id="path-1" points="0.104888889 0.0280222222 6.75555556 0.0280222222 6.75555556 4.65013333 0.104888889 4.65013333"></polygon>
        <path d="M9.196,0.157333333 C4.14266667,0.157333333 0.184,2.23955556 0.184,4.89777778 L0.184,4.89777778 C0.184,7.55644444 4.14266667,9.63866667 9.196,9.63866667 L9.196,9.63866667 C14.2497778,9.63866667 18.2084444,7.55644444 18.2084444,4.89777778 L18.2084444,4.89777778 C18.2084444,2.23955556 14.2497778,0.157333333 9.196,0.157333333 Z M1.07288889,4.89777778 C1.07288889,2.81022222 4.79288889,1.04622222 9.196,1.04622222 L9.196,1.04622222 C13.5991111,1.04622222 17.3191111,2.81022222 17.3191111,4.89777778 L17.3191111,4.89777778 C17.3191111,6.98577778 13.5991111,8.74933333 9.196,8.74933333 L9.196,8.74933333 C4.79288889,8.74933333 1.07288889,6.98577778 1.07288889,4.89777778 L1.07288889,4.89777778 Z" id="path-3"></path>
        <path d="M0.14,2.29422222 C0.14,4.99511111 4.16844444,7.11111111 9.31111111,7.11111111 L9.31111111,7.11111111 C9.76755556,7.11111111 10.2151111,7.09333333 10.6528889,7.06133333 L10.6528889,7.06133333 C10.512,6.78577778 10.3902222,6.49911111 10.2862222,6.20444444 L10.2862222,6.20444444 C9.96533333,6.22311111 9.64088889,6.23555556 9.31111111,6.23555556 L9.31111111,6.23555556 C4.81377778,6.23555556 1.01555556,4.43066667 1.01555556,2.29422222 L1.01555556,2.29422222 C1.01555556,1.85911111 1.17955556,1.44 1.46844444,1.04488889 L1.46844444,1.04488889 C1.23422222,0.828888889 1.03822222,0.601333333 0.882666667,0.365333333 L0.882666667,0.365333333 C0.405777778,0.953333333 0.14,1.60444444 0.14,2.29422222" id="path-5"></path>
        <path d="M0,1.97866667 C0,4.67955556 4.028,6.79555556 9.17066667,6.79555556 L9.17066667,6.79555556 C9.70355556,6.79555556 10.2235556,6.77155556 10.7293333,6.728 L10.7293333,6.728 C10.9128889,6.38977778 11.1284444,6.072 11.3626667,5.77022222 L11.3626667,5.77022222 C10.6608889,5.86533333 9.92755556,5.92 9.17066667,5.92 L9.17066667,5.92 C4.67422222,5.92 0.875111111,4.11555556 0.875111111,1.97866667 L0.875111111,1.97866667 C0.875111111,1.544 1.04,1.124 1.328,0.729333333 L1.328,0.729333333 C1.09422222,0.513777778 0.898666667,0.286666667 0.742222222,0.0502222222 L0.742222222,0.0502222222 C0.265777778,0.638222222 0,1.28888889 0,1.97866667" id="path-7"></path>
        <path d="M0.559111111,0.394222222 C0.572888889,0.395111111 0.586666667,0.395111111 0.600888889,0.396444444 L0.600888889,0.396444444 C0.591555556,0.386666667 0.583555556,0.376888889 0.574666667,0.368 L0.574666667,0.368 C0.570222222,0.376888889 0.564,0.384888889 0.559111111,0.394222222" id="path-9"></path>
        <linearGradient x1="45.2988%" y1="49.94418%" x2="54.63933%" y2="49.94418%" id="linearGradient-11">
            <stop stop-color="#1452CC" offset="0%"></stop>
            <stop stop-color="#28C6CC" offset="100%"></stop>
        </linearGradient>
        <path d="M0.14,2.15733333 C0.14,4.85777778 4.16844444,6.97422222 9.31111111,6.97422222 L9.31111111,6.97422222 C9.50222222,6.97422222 9.69155556,6.97022222 9.88,6.96444444 L9.88,6.96444444 C9.88044444,6.66533333 9.90577778,6.372 9.94222222,6.08311111 L9.94222222,6.08311111 C9.73333333,6.09111111 9.524,6.09866667 9.31111111,6.09866667 L9.31111111,6.09866667 C4.81377778,6.09866667 1.01555556,4.29377778 1.01555556,2.15733333 L1.01555556,2.15733333 C1.01555556,1.72222222 1.17955556,1.30311111 1.46844444,0.908 L1.46844444,0.908 C1.23422222,0.692 1.03822222,0.464444444 0.882666667,0.228444444 L0.882666667,0.228444444 C0.405777778,0.816444444 0.14,1.46755556 0.14,2.15733333" id="path-12"></path>
    </defs>
    <g id="页面-1" stroke="none" stroke-width="1" fill="none" fill-rule="evenodd">
        <g id="Apple-TV" transform="translate(-1115.000000, -582.000000)">
            <g id="MONGODB小产品图标" transform="translate(1115.000000, 582.000000)">
                <rect id="矩形" x="0" y="0" width="20" height="20"></rect>
                <g id="MONGODB备份">
                    <g id="数据库变更">
                        <g id="MONGODB">
                            <g id="icon/数据库变更">
                                <g id="编组" transform="translate(12.444444, 13.620311)">
                                    <mask id="mask-2" fill="white">
                                        <use xlink:href="#path-1"></use>
                                    </mask>
                                    <g id="Clip-2"></g>
                                </g>
                                <g id="编组" transform="translate(0.000000, 0.286978)">
                                    <mask id="mask-4" fill="white">
                                        <use xlink:href="#path-3"></use>
                                    </mask>
                                    <g id="Clip-4"></g>
                                    <path d="M9.196,0.157333333 C4.14266667,0.157333333 0.184,2.23955556 0.184,4.89777778 L0.184,4.89777778 C0.184,7.55644444 4.14266667,9.63866667 9.196,9.63866667 L9.196,9.63866667 C14.2497778,9.63866667 18.2084444,7.55644444 18.2084444,4.89777778 L18.2084444,4.89777778 C18.2084444,2.23955556 14.2497778,0.157333333 9.196,0.157333333 Z M1.07288889,4.89777778 C1.07288889,2.81022222 4.79288889,1.04622222 9.196,1.04622222 L9.196,1.04622222 C13.5991111,1.04622222 17.3191111,2.81022222 17.3191111,4.89777778 L17.3191111,4.89777778 C17.3191111,6.98577778 13.5991111,8.74933333 9.196,8.74933333 L9.196,8.74933333 C4.79288889,8.74933333 1.07288889,6.98577778 1.07288889,4.89777778 L1.07288889,4.89777778 Z" id="Fill-3" fill="#FFFFFF" mask="url(#mask-4)"></path>
                                </g>
                                <g id="编组" transform="translate(0.000000, 12.731422)">
                                    <mask id="mask-6" fill="white">
                                        <use xlink:href="#path-5"></use>
                                    </mask>
                                    <g id="Clip-6"></g>
                                    <path d="M0.14,2.29422222 C0.14,4.99511111 4.16844444,7.11111111 9.31111111,7.11111111 L9.31111111,7.11111111 C9.76755556,7.11111111 10.2151111,7.09333333 10.6528889,7.06133333 L10.6528889,7.06133333 C10.512,6.78577778 10.3902222,6.49911111 10.2862222,6.20444444 L10.2862222,6.20444444 C9.96533333,6.22311111 9.64088889,6.23555556 9.31111111,6.23555556 L9.31111111,6.23555556 C4.81377778,6.23555556 1.01555556,4.43066667 1.01555556,2.29422222 L1.01555556,2.29422222 C1.01555556,1.85911111 1.17955556,1.44 1.46844444,1.04488889 L1.46844444,1.04488889 C1.23422222,0.828888889 1.03822222,0.601333333 0.882666667,0.365333333 L0.882666667,0.365333333 C0.405777778,0.953333333 0.14,1.60444444 0.14,2.29422222" id="Fill-5" fill="#FFFFFF" mask="url(#mask-6)"></path>
                                </g>
                                <path d="M17.1370667,9.55426667 C17.4588444,9.5636 17.7744,9.59515556 18.0837333,9.64626667 C18.2517333,9.27648889 18.3424,8.88848889 18.3424,8.48804444 C18.3424,7.6756 17.9726222,6.91871111 17.3237333,6.25382222 C17.1979556,6.5076 17.0286222,6.75204444 16.8148444,6.98582222 C17.2330667,7.4516 17.4668444,7.95915556 17.4668444,8.48804444 C17.4668444,8.85604444 17.3472889,9.21337778 17.1370667,9.55426667" id="Fill-7" fill="#FFFFFF"></path>
                                <g id="编组" transform="translate(0.000000, 6.509200)">
                                    <mask id="mask-8" fill="white">
                                        <use xlink:href="#path-7"></use>
                                    </mask>
                                    <g id="Clip-10"></g>
                                    <path d="M0,1.97866667 C0,4.67955556 4.028,6.79555556 9.17066667,6.79555556 L9.17066667,6.79555556 C9.70355556,6.79555556 10.2235556,6.77155556 10.7293333,6.728 L10.7293333,6.728 C10.9128889,6.38977778 11.1284444,6.072 11.3626667,5.77022222 L11.3626667,5.77022222 C10.6608889,5.86533333 9.92755556,5.92 9.17066667,5.92 L9.17066667,5.92 C4.67422222,5.92 0.875111111,4.11555556 0.875111111,1.97866667 L0.875111111,1.97866667 C0.875111111,1.544 1.04,1.124 1.328,0.729333333 L1.328,0.729333333 C1.09422222,0.513777778 0.898666667,0.286666667 0.742222222,0.0502222222 L0.742222222,0.0502222222 C0.265777778,0.638222222 0,1.28888889 0,1.97866667" id="Fill-9" fill="#FFFFFF" mask="url(#mask-8)"></path>
                                </g>
                                <g id="编组" transform="translate(16.888889, 9.175867)">
                                    <mask id="mask-10" fill="white">
                                        <use xlink:href="#path-9"></use>
                                    </mask>
                                    <g id="Clip-12"></g>
                                    <path d="M0.559111111,0.394222222 C0.572888889,0.395111111 0.586666667,0.395111111 0.600888889,0.396444444 L0.600888889,0.396444444 C0.591555556,0.386666667 0.583555556,0.376888889 0.574666667,0.368 L0.574666667,0.368 C0.570222222,0.376888889 0.564,0.384888889 0.559111111,0.394222222" id="Fill-11" fill="url(#linearGradient-11)" mask="url(#mask-10)"></path>
                                </g>
                                <g id="编组" transform="translate(0.000000, 9.620311)">
                                    <mask id="mask-13" fill="white">
                                        <use xlink:href="#path-12"></use>
                                    </mask>
                                    <g id="Clip-14"></g>
                                    <path d="M0.14,2.15733333 C0.14,4.85777778 4.16844444,6.97422222 9.31111111,6.97422222 L9.31111111,6.97422222 C9.50222222,6.97422222 9.69155556,6.97022222 9.88,6.96444444 L9.88,6.96444444 C9.88044444,6.66533333 9.90577778,6.372 9.94222222,6.08311111 L9.94222222,6.08311111 C9.73333333,6.09111111 9.524,6.09866667 9.31111111,6.09866667 L9.31111111,6.09866667 C4.81377778,6.09866667 1.01555556,4.29377778 1.01555556,2.15733333 L1.01555556,2.15733333 C1.01555556,1.72222222 1.17955556,1.30311111 1.46844444,0.908 L1.46844444,0.908 C1.23422222,0.692 1.03822222,0.464444444 0.882666667,0.228444444 L0.882666667,0.228444444 C0.405777778,0.816444444 0.14,1.46755556 0.14,2.15733333" id="Fill-13" fill="#FFFFFF" mask="url(#mask-13)"></path>
                                </g>
                            </g>
                            <path d="M16.2338175,11.1111111 C16.0588961,12.1606391 14.2222222,13.078976 14.2222222,15.6590655 C14.2222222,18.0205034 15.4904018,18.7201887 15.7965141,18.8513797 C16.2775478,18.3703461 16.1900871,14.128504 16.2338175,11.1111111 Z M16.0588961,19.8571773 L16.0588961,18.9825707 C16.7148511,18.6764584 16.3212781,13.5600097 16.2775478,11.6796054 C16.4961994,12.2918301 17.9830307,13.7786613 17.9830307,15.6590655 C17.9830307,17.5394698 17.1521544,18.4140764 16.4524691,18.8951101 L16.4524691,19.7697167 C16.4524691,19.9009077 16.3650084,19.9883683 16.2775478,19.9883683 C16.1463568,20.0320987 16.0588961,19.944638 16.0588961,19.8571773 L16.0588961,19.8571773 Z" id="形状" fill="#FFFFFF" fill-rule="nonzero"></path>
                        </g>
                    </g>
                </g>
            </g>
        </g>
    </g>
</svg>