<?xml version="1.0" encoding="UTF-8"?>
<svg width="20px" height="20px" viewBox="0 0 20 20" version="1.1" xmlns="http://www.w3.org/2000/svg" xmlns:xlink="http://www.w3.org/1999/xlink">
    <!-- Generator: Sketch 59.1 (86144) - https://sketch.com -->
    <title>翻译规则1</title>
    <desc>Created with Sketch.</desc>
    <g id="页面-1" stroke="none" stroke-width="1" fill="none" fill-rule="evenodd">
        <g id="Apple-TV备份" transform="translate(-1269.000000, -752.000000)">
            <g id="翻译规则1" transform="translate(1269.000000, 752.000000)">
                <rect id="矩形备份-14" opacity="0.366001674" x="0" y="0" width="20" height="20"></rect>
                <g id="翻译规则">
                    <path d="M13,2.34949069 C14.2079072,4.8242452 16.3537731,6.17221668 18.4366787,6.82425929 C18.2016049,6.19638249 17.9088527,5.40707613 17.5584221,4.45634021 C17.3671538,5.00520148 17.2740622,5.28093969 17.2791474,5.28355482 C15.9364424,4.56971755 14.9852455,3.64955782 13.9369398,2 L13,2.34949069 Z" id="路径" fill="#FFFFFF" fill-rule="nonzero" transform="translate(15.718339, 4.412130) scale(-1, -1) rotate(6.000000) translate(-15.718339, -4.412130) "></path>
                    <path d="M1.5,13.8494907 C2.70790718,16.3242452 4.85377308,17.6722167 6.93667874,18.3242593 C6.70160494,17.6963825 6.40885272,16.9070761 6.05842208,15.9563402 C5.86715381,16.5052015 5.77406224,16.7809397 5.77914735,16.7835548 C4.4364424,16.0697175 3.48524548,15.1495578 2.43693984,13.5 L1.5,13.8494907 Z" id="路径" fill="#FFFFFF" fill-rule="nonzero"></path>
                    <rect id="矩形" fill="#FFFFFF" x="0" y="0" width="12" height="12" rx="1"></rect>
                    <path d="M14.2307891,8.5 L19.0769231,8.5 C19.310582,8.5 19.5,8.68941799 19.5,8.92307692 L19.5,19.0769231 C19.5,19.310582 19.310582,19.5 19.0769231,19.5 L8.92307692,19.5 C8.68941799,19.5 8.5,19.310582 8.5,19.0769231 L8.5,14" id="路径" stroke="#FFFFFF"></path>
                </g>
            </g>
        </g>
    </g>
</svg>