<?xml version="1.0" encoding="UTF-8"?>
<svg width="16px" height="14px" viewBox="0 0 16 14" version="1.1" xmlns="http://www.w3.org/2000/svg" xmlns:xlink="http://www.w3.org/1999/xlink">
    <!-- Generator: Sketch 59.1 (86144) - https://sketch.com -->
    <title>编组 4备份</title>
    <desc>Created with Sketch.</desc>
    <g id="f" stroke="none" stroke-width="1" fill="none" fill-rule="evenodd">
        <g id="编组-4备份" transform="translate(0.000000, -0.000000)" fill="#FFFFFF" fill-rule="nonzero">
            <g id="编组备份-4" transform="translate(9.633333, 6.101111)">
                <path d="M3.07277059,0.00528231439 C4.7678629,0.00528231439 6.14202492,1.37915131 6.14202492,3.07387932 C6.14202492,4.76860734 4.7678629,6.14246049 3.07277059,6.14246049 C1.37767828,6.14246049 0.00351626325,4.76860734 0.00351626325,3.0738714 C0.00351626325,1.37913547 1.37767828,0.00528231439 3.07277059,0.00528231439 Z M3.07277059,1.88155722 C2.10777807,1.88155722 1.32552037,2.66365653 1.32552037,3.62843522 C1.32552037,4.59321391 2.10778599,5.37532114 3.07277059,5.37532114 C4.03776311,5.37532114 4.82002081,4.59322183 4.82002081,3.62844314 C4.82002081,2.66366445 4.03776311,1.88155722 3.07277059,1.88155722 Z" id="形状结合"></path>
                <path d="M3.07277059,2.7134069 C2.54688333,2.7134069 2.12056809,3.13963503 2.12056809,3.66541142 C2.12056809,4.19118781 2.54687541,4.61741594 3.07277059,4.61741594 C3.59866577,4.61741594 4.0249731,4.19118781 4.0249731,3.66541142 C4.0249731,3.13963503 3.59866577,2.7134069 3.07277059,2.7134069 Z" id="路径"></path>
                <path d="M5.28994088,5.59051012 C4.71716219,6.09491966 3.93367696,6.40675836 3.07056105,6.40675836 C2.20732634,6.40675836 1.42356393,6.0946504 0.851094098,5.59051012 L0.329150751,6.73910859 L0.322728027,6.75481299 C0.27530599,6.88666494 0.300561313,7.02235785 0.393766048,7.13773722 C0.541971792,7.32070962 0.857960314,7.43905881 1.19904577,7.43905881 L4.94199713,7.43905881 C5.2336094,7.43905881 5.60135193,7.33984316 5.76623616,7.11830274 C5.85401603,7.00085638 5.86995801,6.86600293 5.81189215,6.73910859 L5.28994088,5.59051012 Z" id="路径"></path>
            </g>
            <path d="M8.5211914,7.8003207 C8.40908296,8.17767215 8.34888889,8.5773621 8.34888889,8.99111111 C8.34888889,9.98513687 8.69632508,10.8980147 9.27638297,11.6149336 L8.64276672,13.197978 L8.63458675,13.2252581 C8.57555833,13.4491093 8.60494545,13.6793338 8.7171266,13.8767602 L1,13.876863 C0.487164161,13.876863 0.0644928393,13.4908228 0.00672773133,12.9934841 L1.42108547e-14,12.876863 L1.42108547e-14,8.80006677 C1.41480504e-14,8.28723093 0.38604019,7.86455961 0.883378875,7.8067945 L1,7.80006677 L8.5211914,7.8003207 Z M2.53955662,9.70473424 C2.28909977,9.70473424 2.08606437,9.90776964 2.08606437,10.1582265 L2.08606437,11.4280048 C2.08606437,11.6784617 2.28909977,11.8814971 2.53955662,11.8814971 C2.79001348,11.8814971 2.99304888,11.6784617 2.99304888,11.4280048 L2.99304888,10.1582265 C2.99304888,9.90776964 2.79001348,9.70473424 2.53955662,9.70473424 Z M4.62562099,9.70473424 C4.37516414,9.70473424 4.17212874,9.90776964 4.17212874,10.1582265 L4.17212874,11.4280048 C4.17212874,11.6784617 4.37516414,11.8814971 4.62562099,11.8814971 C4.87607785,11.8814971 5.07911325,11.6784617 5.07911325,11.4280048 L5.07911325,10.1582265 C5.07911325,9.90776964 4.87607785,9.70473424 4.62562099,9.70473424 Z M13.5117521,-5.24025268e-13 C14.024588,-5.24222566e-13 14.4472593,0.38604019 14.5050244,0.883378875 L14.5117521,1 L14.5117521,4.98609776 C14.5117521,5.09328184 14.4948891,5.19652735 14.4636713,5.29332597 C13.8820453,4.98869211 13.2227772,4.81666667 12.5233333,4.81666667 C11.398443,4.81666667 10.3774677,5.26160756 9.6268035,5.98509859 L1,5.98609776 C0.487164161,5.98609776 0.0644928393,5.60005757 0.00672773133,5.10271888 L1.70530257e-13,4.98609776 L1.70530257e-13,1 C1.70467452e-13,0.487164161 0.38604019,0.0644928393 0.883378875,0.00672773132 L1,-5.24025268e-13 L13.5117521,-5.24025268e-13 Z M2.53955662,1.90466747 C2.28909977,1.90466747 2.08606437,2.10770287 2.08606437,2.35815972 L2.08606437,3.62793803 C2.08606437,3.87839489 2.28909977,4.08143029 2.53955662,4.08143029 C2.79001348,4.08143029 2.99304888,3.87839489 2.99304888,3.62793803 L2.99304888,2.35815972 C2.99304888,2.10770287 2.79001348,1.90466747 2.53955662,1.90466747 Z M4.62562099,1.90466747 C4.37516414,1.90466747 4.17212874,2.10770287 4.17212874,2.35815972 L4.17212874,3.62793803 C4.17212874,3.87839489 4.37516414,4.08143029 4.62562099,4.08143029 C4.87607785,4.08143029 5.07911325,3.87839489 5.07911325,3.62793803 L5.07911325,2.35815972 C5.07911325,2.10770287 4.87607785,1.90466747 4.62562099,1.90466747 Z M11.065211,1.90466747 C10.66448,1.90466747 10.3396234,2.2295241 10.3396234,2.63025507 L10.3396234,3.35584268 C10.3396234,3.75657365 10.66448,4.08143029 11.065211,4.08143029 C11.465942,4.08143029 11.7907986,3.75657365 11.7907986,3.35584268 L11.7907986,2.63025507 C11.7907986,2.2295241 11.465942,1.90466747 11.065211,1.90466747 Z" id="形状结合"></path>
        </g>
    </g>
</svg>