<?xml version="1.0" encoding="UTF-8"?>
<svg width="20px" height="16px" viewBox="0 0 20 16" version="1.1" xmlns="http://www.w3.org/2000/svg" xmlns:xlink="http://www.w3.org/1999/xlink">
    <!-- Generator: Sketch 59.1 (86144) - https://sketch.com -->
    <title>采集中心1</title>
    <desc>Created with Sketch.</desc>
    <g id="页面-1" stroke="none" stroke-width="1" fill="none" fill-rule="evenodd">
        <g id="Apple-TV备份" transform="translate(-1186.000000, -773.000000)">
            <g id="采集中心1" transform="translate(1186.000000, 771.000000)">
                <rect id="矩形备份-13" opacity="0.366001674" x="0" y="0" width="20" height="20"></rect>
                <g id="采集中心" transform="translate(0.000000, 2.000000)" fill="#FFFFFF">
                    <path d="M17.9013695,9.56521739 L20,12.173913 L0,12.173913 L2.09863049,9.56521739 L8.221,9.56426087 L9.8473789,11.1078756 C10.0162178,11.2681925 10.2690401,11.2882321 10.4588748,11.1679945 L10.5359477,11.1078756 L12.161,9.56426087 L17.9013695,9.56521739 Z" id="形状结合"></path>
                    <path d="M8.45,3.97826087 C8.45,3.70211849 8.67385763,3.47826087 8.95,3.47826087 L11.4282609,3.47826087 C11.7044032,3.47826087 11.9282609,3.70211849 11.9282609,3.97826087 L11.9282609,6.52173913 L13.0599901,6.52173913 C13.3361325,6.52173913 13.5599901,6.74559676 13.5599901,7.02173913 C13.5599901,7.15883801 13.5036947,7.28992264 13.4042745,7.38432465 L10.5359477,10.1078756 C10.342989,10.2910949 10.0403376,10.2910949 9.8473789,10.1078756 L6.97905205,7.38432465 C6.7788016,7.19418164 6.7706079,6.8777052 6.96075092,6.67745474 C7.05515292,6.5780346 7.18623756,6.52173913 7.32333644,6.52173913 L8.45,6.52173913 L8.45,3.97826087 Z" id="形状结合"></path>
                    <polygon id="矩形" points="2.09863049 13.0434783 17.9013695 13.0434783 20 15.6521739 -1.34357172e-12 15.6521739"></polygon>
                    <path d="M8.95,2.6 L11.4282609,2.6 C11.7044032,2.6 11.9282609,2.37614237 11.9282609,2.1 C11.9282609,1.82385763 11.7044032,1.6 11.4282609,1.6 L8.95,1.6 C8.67385763,1.6 8.45,1.82385763 8.45,2.1 C8.45,2.37614237 8.67385763,2.6 8.95,2.6 Z" id="直线-5" fill-rule="nonzero"></path>
                    <path d="M8.95,1 L11.4282609,1 C11.7044032,1 11.9282609,0.776142375 11.9282609,0.5 C11.9282609,0.223857625 11.7044032,-5.07265313e-17 11.4282609,0 L8.95,0 C8.67385763,5.07265313e-17 8.45,0.223857625 8.45,0.5 C8.45,0.776142375 8.67385763,1 8.95,1 Z" id="直线-5备份" fill-rule="nonzero"></path>
                </g>
            </g>
        </g>
    </g>
</svg>