<?xml version="1.0" encoding="UTF-8"?>
<svg width="20px" height="20px" viewBox="0 0 20 20" version="1.1" xmlns="http://www.w3.org/2000/svg" xmlns:xlink="http://www.w3.org/1999/xlink">
    <!-- Generator: Sketch 59.1 (86144) - https://sketch.com -->
    <title>告警自愈1</title>
    <desc>Created with Sketch.</desc>
    <g id="页面-1" stroke="none" stroke-width="1" fill="none" fill-rule="evenodd">
        <g id="Apple-TV备份" transform="translate(-880.000000, -775.000000)">
            <g id="告警自愈1" transform="translate(880.000000, 775.000000)">
                <rect id="矩形" opacity="0.486537388" x="0" y="0" width="20" height="20"></rect>
                <g id="故障自愈" fill="#FFFFFF">
                    <path d="M17.9229954,3.79018017 L14.1328153,3.79018017 L14.1328153,1.03496999 C14.1328153,0.462734023 13.6700812,0 13.0978453,0 L6.8986224,0 C6.32638644,0 5.86365241,0.462734023 5.86365241,1.03496999 L5.86365241,3.79018017 L2.06993994,3.79018017 C0.929000348,3.79018017 0,4.71564821 0,5.86012011 L0,6.20275523 L19.9894131,6.20275523 L19.9894131,5.86012011 C19.9929354,4.71564818 19.063935,3.79018017 17.9229954,3.79018017 Z M12.0664076,3.79018017 L7.93006006,3.79018017 L7.93006006,2.06640764 L12.0664076,2.06640764 L12.0664076,3.79018017 L12.0664076,3.79018017 Z M0.00353230227,17.9194631 C0.00353230227,19.0604027 0.929000348,19.9894031 2.07347228,19.9894031 L17.9300601,19.9894031 C19.0709997,19.9894031 20,19.063935 20,17.9194631 L20,8.26916284 L0.00706463303,8.26916284 L0.00706463303,17.9194631 L0.00353230227,17.9194631 Z M7.24125752,13.094313 L8.96503001,13.094313 L8.96503001,11.3740728 C8.96503001,10.8018368 9.42776404,10.3391028 10,10.3391028 C10.572236,10.3391028 11.03497,10.8018368 11.03497,11.3740728 L11.03497,13.0978453 L12.7587425,13.0978453 C13.3309784,13.0978453 13.7937125,13.5605793 13.7937125,14.1328153 C13.7937125,14.7050512 13.3309784,15.1677853 12.7587425,15.1677852 L11.0314377,15.1677852 L11.0314377,16.8844931 C11.0314377,17.4567291 10.5687036,17.9194631 9.99646767,17.9194631 C9.42423171,17.9194631 8.96149768,17.4567291 8.96149771,16.8844931 L8.96149771,15.1607206 L7.23772519,15.1607206 C6.66548922,15.1607206 6.2027552,14.6979866 6.2027552,14.1257506 C6.20628753,13.557047 6.66902152,13.094313 7.24125752,13.094313 Z" id="形状"></path>
                </g>
            </g>
        </g>
    </g>
</svg>