<?xml version="1.0" encoding="UTF-8"?>
<svg width="17px" height="17px" viewBox="0 0 17 17" version="1.1" xmlns="http://www.w3.org/2000/svg" xmlns:xlink="http://www.w3.org/1999/xlink">
    <!-- Generator: Sketch 59.1 (86144) - https://sketch.com -->
    <title>编组 9</title>
    <desc>Created with Sketch.</desc>
    <g id="f" stroke="none" stroke-width="1" fill="none" fill-rule="evenodd">
        <g id="编组-9" transform="translate(1.000000, 1.000000)">
            <g id="编组-3备份" fill-rule="nonzero">
                <g id="编组-11" stroke="#FFFFFF" stroke-width="0.5">
                    <path d="M5.66557315,14.7133573 C6.08819647,14.9604765 6.42659771,14.7958951 6.42659771,14.3006681 L6.42659771,8.52252554 C6.42659771,8.02729853 6.08819647,7.53207153 5.66506883,7.28445803 L0.761528882,4.3126018 C0.338401242,4.14752614 0,4.3126018 0,4.72529097 L0,10.5034336 C0,10.9986606 0.33789692,11.4938876 0.761024546,11.7415011 L5.66557315,14.7133573 L5.66557315,14.7133573 Z" id="路径"></path>
                    <path d="M1.52204911,2.49676946 C1.09942579,2.74438295 1.09942579,3.07502852 1.52204911,3.3221478 L6.34187133,6.29400404 C6.76449464,6.5411233 7.35657075,6.5411233 7.77919405,6.37654187 L12.5990163,3.98245047 C13.0216396,3.73533121 13.0216396,3.40468564 12.5990163,3.15707213 L7.52551921,0.185710121 C7.18762229,-0.0619033737 6.51081979,-0.0619033737 6.08819647,0.185710121 L1.52204911,2.49676946 Z" id="路径"></path>
                </g>
                <g id="编组备份-4" transform="translate(10.285714, 7.428571)" fill="#FFFFFF">
                    <path d="M2.73405193,0.00470003258 C4.24229028,0.00470003258 5.46497521,1.22712425 5.46497521,2.73503845 C5.46497521,4.24295265 4.24229028,5.46536277 2.73405193,5.46536277 C1.22581359,5.46536277 0.00312865737,4.24295265 0.00312865737,2.7350314 C0.00312865737,1.22711016 1.22581359,0.00470003258 2.73405193,0.00470003258 Z M2.73405193,1.67414879 C1.87543279,1.67414879 1.17940518,2.37003547 1.17940518,3.22846436 C1.17940518,4.08689325 1.87543984,4.78278698 2.73405193,4.78278698 C3.59267108,4.78278698 4.28869869,4.08690029 4.28869869,3.2284714 C4.28869869,2.37004252 3.59267108,1.67414879 2.73405193,1.67414879 Z" id="形状结合"></path>
                    <path d="M2.73405193,2.41430174 C2.26613445,2.41430174 1.88681293,2.79354575 1.88681293,3.26136459 C1.88681293,3.72918342 2.2661274,4.10842743 2.73405193,4.10842743 C3.20197647,4.10842743 3.58129094,3.72918342 3.58129094,3.26136459 C3.58129094,2.79354575 3.20197647,2.41430174 2.73405193,2.41430174 Z" id="路径"></path>
                    <path d="M4.70681838,4.97425517 C4.19717842,5.42306248 3.50005859,5.70052647 2.73208595,5.70052647 C1.96400762,5.70052647 1.26664116,5.4228229 0.757276014,4.97425517 L0.292867697,5.99624096 L0.287152965,6.01021422 C0.24495837,6.12753183 0.26742974,6.248267 0.3503603,6.35092783 C0.48222898,6.51373076 0.763385351,6.61903404 1.06687216,6.61903404 L4.39722928,6.61903404 C4.65669645,6.61903404 4.98390186,6.53075516 5.13061053,6.33363566 C5.20871422,6.22913568 5.22289887,6.10914744 5.17123375,5.99624096 L4.70681838,4.97425517 Z" id="路径"></path>
                </g>
            </g>
            <path d="M9.85516889,14.0476055 L8.70534943,14.6160045 C8.13316741,14.974384 7.8470764,14.8796508 7.8470764,14.331805 C7.8470764,13.7839592 7.82444895,11.9242121 7.77919405,8.75256379 C7.77919405,8.05649747 8.12518986,7.5262585 8.81718147,7.16184688 C9.50917308,6.79743526 11.0052728,6.06129736 13.3054805,4.95343319 C13.9154258,4.5533663 14.1872874,4.8633706 14.1210654,5.88344609 C14.0548434,6.90352158 14.0402181,7.13530826 14.0771895,6.57880614" id="路径-8" stroke="#FFFFFF" stroke-width="0.5"></path>
        </g>
    </g>
</svg>