<?xml version="1.0" encoding="UTF-8"?>
<svg width="20px" height="19px" viewBox="0 0 20 19" version="1.1" xmlns="http://www.w3.org/2000/svg" xmlns:xlink="http://www.w3.org/1999/xlink">
    <!-- Generator: Sketch 59.1 (86144) - https://sketch.com -->
    <title>日志分析1</title>
    <desc>Created with Sketch.</desc>
    <g id="页面-1" stroke="none" stroke-width="1" fill="none" fill-rule="evenodd">
        <g id="Apple-TV备份" transform="translate(-990.000000, -775.000000)">
            <g id="日志分析1" transform="translate(988.000000, 773.000000)">
                <path d="M17.6190476,2 C18.7236171,2 19.6190476,2.8954305 19.6190476,4 L19.6198737,13.4498794 C18.6575114,12.8335344 17.5133439,12.4761905 16.2857143,12.4761905 C12.8668087,12.4761905 10.0952381,15.2477611 10.0952381,18.6666667 C10.0952381,19.3313621 10.1999985,19.9715894 10.393909,20.5717384 L4,20.5714286 C2.8954305,20.5714286 2,19.6759981 2,18.5714286 L2,4 C2,2.8954305 2.8954305,2 4,2 L17.6190476,2 Z M15.3809524,9.38095238 L9.23809524,9.38095238 C8.76190476,9.42857143 8.33333333,9.80952381 8.33333333,10.2857143 C8.38095238,10.7619048 8.76190476,11.1428571 9.19047619,11.1904762 L9.19047619,11.1904762 L15.3809524,11.1904762 L15.3809524,11.1904762 L15.4991872,11.1830418 C15.9611158,11.1242604 16.2857143,10.7252747 16.2857143,10.2857143 C16.2857143,9.76190476 15.8571429,9.38095238 15.3809524,9.38095238 L15.3809524,9.38095238 Z M6.19047619,9.33333333 C5.71428571,9.33333333 5.28571429,9.71428571 5.28571429,10.2380952 C5.33333333,10.7619048 5.71428571,11.1428571 6.19047619,11.1428571 C6.42857143,11.1428571 6.66666667,11.047619 6.85714286,10.8571429 C7.04761905,10.7142857 7.14285714,10.4761905 7.0952381,10.2380952 C7.0952381,9.76190476 6.71428571,9.33333333 6.19047619,9.33333333 Z M15.4285714,5.23809524 L9.28571429,5.23809524 C8.76190476,5.23809524 8.38095238,5.61904762 8.33333333,6.14285714 C8.38095238,6.66666667 8.76190476,7.04761905 9.23809524,7.04761905 L9.23809524,7.04761905 L15.4285714,7.04761905 L15.4285714,7.04761905 L15.5468063,7.04018467 C16.0087349,6.98140321 16.3333333,6.58241758 16.3333333,6.14285714 C16.3333333,5.61904762 15.9047619,5.23809524 15.4285714,5.23809524 L15.4285714,5.23809524 Z M6.19047619,5.19047619 C5.71428571,5.19047619 5.28571429,5.57142857 5.28571429,6.0952381 C5.33333333,6.61904762 5.71428571,7 6.19047619,7 C6.42857143,7 6.66666667,6.9047619 6.85714286,6.71428571 C7.04761905,6.57142857 7.14285714,6.33333333 7.0952381,6.0952381 C7.0952381,5.61904762 6.71428571,5.19047619 6.19047619,5.19047619 Z" id="形状结合备份-5" fill="#FFFFFF"></path>
                <rect id="矩形" x="0" y="0" width="22" height="22"></rect>
                <path d="M16.8571429,15.1428571 C14.8571429,15.1428571 13.0952381,16.2857143 12.0952381,17.952381 C13.0952381,19.6190476 14.8571429,20.7619048 16.8571429,20.7619048 C18.8571429,20.7619048 20.6190476,19.6190476 21.6190476,17.952381 C20.6190476,16.2380952 18.8571429,15.1428571 16.8571429,15.1428571 L16.8571429,15.1428571 Z M16.8571429,19.8571429 C15.8095238,19.8571429 15,19 15,17.9047619 C15,16.8571429 15.8571429,15.952381 16.8571429,15.952381 C17.8571429,15.952381 18.7142857,16.8095238 18.7142857,17.9047619 C18.7142857,19 17.9047619,19.8571429 16.8571429,19.8571429 L16.8571429,19.8571429 Z M16.8571429,19.2380952 C17.5238095,19.2380952 18.0952381,18.6666667 18.0952381,17.952381 C18.0952381,17.2380952 17.5238095,16.6666667 16.8571429,16.6666667 C16.1904762,16.6666667 15.6190476,17.2380952 15.6190476,17.952381 C15.6190476,18.6190476 16.1904762,19.2380952 16.8571429,19.2380952 L16.8571429,19.2380952 Z" id="形状" fill="#FFFFFF" fill-rule="nonzero"></path>
            </g>
        </g>
    </g>
</svg>