<?xml version="1.0" encoding="UTF-8"?>
<svg width="18px" height="20px" viewBox="0 0 18 20" version="1.1" xmlns="http://www.w3.org/2000/svg" xmlns:xlink="http://www.w3.org/1999/xlink">
    <!-- Generator: Sketch 59.1 (86144) - https://sketch.com -->
    <title>日志搜索1</title>
    <desc>Created with Sketch.</desc>
    <g id="页面-1" stroke="none" stroke-width="1" fill="none" fill-rule="evenodd">
        <g id="Apple-TV备份" transform="translate(-1094.000000, -785.000000)">
            <g id="日志搜索1" transform="translate(1093.000000, 785.000000)">
                <rect id="矩形备份-12" opacity="0.366001674" x="0" y="0" width="20" height="20"></rect>
                <g id="日志搜索" transform="translate(1.000000, 0.000000)">
                    <path d="M3.47291064,1.10337554 L3.47171879,3.14575024 C3.48305947,3.2923293 3.60331843,3.4066439 3.73966749,3.41040493 L12.9829963,3.41040493 C13.1963668,3.41040493 13.3460906,3.28871837 13.3460906,3.09953516 L13.3460906,1.10337554 L14.4128475,1.10337554 C15.8952115,1.10337554 16.8156532,2.18119413 16.8156532,3.81040493 L16.815979,10.9197706 C16.5635043,10.7495012 16.2958587,10.6000105 16.0154946,10.4737507 L16.0156532,3.81040493 C16.0156532,2.59747228 15.4229045,1.90337554 14.4128475,1.90337554 L14.1460906,1.90337554 L14.1460906,3.09953516 C14.1460906,3.77135763 13.6058844,4.21040493 12.9829963,4.21040493 L3.72905123,4.21026402 C3.17248129,4.19548708 2.71705058,3.76256817 2.67291064,3.17660564 L2.67291064,1.90337554 L2.4061538,1.90337554 C1.39609683,1.90337554 0.803348059,2.59747229 0.803348059,3.81040493 L0.802876471,17.0483406 C0.748841332,18.1601378 1.60286545,19.1068467 2.69271976,19.1666552 L9.93386746,19.1695695 C10.2297502,19.4730181 10.5610542,19.7417661 10.921099,19.9691331 L2.67092692,19.9660659 C1.12006473,19.8817914 -0.0715769641,18.5608243 0.00334805882,17.0289228 L0.00334805882,3.81040493 C0.00334805882,2.18119414 0.923789838,1.10337554 2.4061538,1.10337554 L3.47291064,1.10337554 Z" id="形状结合" fill="#FFFFFF" fill-rule="nonzero"></path>
                    <path d="M4.85515424,-3.72590847e-13 L11.9689174,-3.72590847e-13 C12.204688,-0.000670001155 12.4310329,0.092517661 12.5979862,0.258995322 C12.7649395,0.425472984 12.8587716,0.651551095 12.8587716,0.887322634 L12.8587716,1.77971202 C12.8587716,2.26976477 12.4615054,2.66703465 11.9714526,2.66703465 L4.85008385,2.66703465 C4.61431327,2.66770466 4.38796836,2.574517 4.22101505,2.40803934 C4.05406174,2.24156167 3.96022964,2.01548356 3.96022964,1.77971202 L3.96022964,0.887322634 C3.96022964,0.651551091 4.05406174,0.425472977 4.22101505,0.258995315 C4.38796836,0.0925176537 4.61431327,-0.000670006242 4.85008385,-3.72590847e-13 L4.85515424,-3.72590847e-13 Z" id="路径备份-30" fill="#FFFFFF" fill-rule="nonzero"></path>
                    <g id="编组-3" transform="translate(10.000439, 11.600000)" stroke="#FFFFFF">
                        <circle id="椭圆形" cx="3.4" cy="3.4" r="3.4"></circle>
                        <line x1="5.6" y1="6" x2="7.25" y2="7.75" id="直线-5" stroke-linecap="round" stroke-linejoin="round"></line>
                    </g>
                    <line x1="4.60043895" y1="11.4" x2="8.60043895" y2="11.4" id="直线-18" stroke="#FFFFFF" stroke-linecap="round"></line>
                    <line x1="4.40043895" y1="8" x2="12.000439" y2="8" id="直线-18" stroke="#FFFFFF" stroke-linecap="round"></line>
                </g>
            </g>
        </g>
    </g>
</svg>