<?xml version="1.0" encoding="UTF-8"?>
<svg width="15px" height="15px" viewBox="0 0 15 15" version="1.1" xmlns="http://www.w3.org/2000/svg" xmlns:xlink="http://www.w3.org/1999/xlink">
    <!-- Generator: Sketch 59.1 (86144) - https://sketch.com -->
    <title>编组 8备份</title>
    <desc>Created with Sketch.</desc>
    <g id="f" stroke="none" stroke-width="1" fill="none" fill-rule="evenodd">
        <g id="编组-8备份">
            <path d="M10.0901826,13.0800575 C10.168847,13.0800575 10.1454151,13.1771328 10.0249078,13.3729571 C9.90440059,13.5671076 9.72029229,13.7813428 9.47258295,14.0156624 C9.22654732,14.2483083 8.93197405,14.4625434 8.59723169,14.6583677 C8.25914191,14.8525183 7.89929388,14.9512673 7.5176876,14.9512673 C7.50095048,14.9512673 7.48588707,14.9462461 7.47082367,14.9445724 C7.45408655,14.9445724 7.43902314,14.9512673 7.42395974,14.9512673 C7.04235345,14.9512673 6.68083171,14.8525183 6.34441564,14.6583677 C6.00799958,14.4642172 5.71510001,14.2499821 5.46906438,14.0156624 C5.21968133,13.7813428 5.03557303,13.5671076 4.91506579,13.3729571 C4.79455854,13.1771328 4.77280029,13.0800575 4.84979103,13.0800575 L4.84979103,13.0800575 Z M7.49258192,0.000836855887 L7.51099275,0.00167371177 C8.03653825,0.0066948471 8.55204147,0.0769907416 9.00561736,0.20754026 C9.437435,0.348132049 9.84749439,0.555672309 10.2357955,0.828487329 C10.6224229,1.10130235 10.958839,1.43771841 11.2450437,1.84108295 C11.5312484,2.24444749 11.7605469,2.70471823 11.9312655,3.22524259 C12.1003104,3.74241953 12.1890172,4.3215238 12.1890172,4.95753428 C12.1890172,5.60693445 12.2844187,6.24461863 12.4752219,6.87560797 C12.666025,7.5049236 12.8953235,8.1024387 13.15977,8.66815328 C13.4292376,9.23386786 13.7104212,9.74937109 14.0100156,10.2163367 C14.30961,10.6833023 14.5807513,11.0866668 14.8217658,11.4247566 C14.9104725,11.5419164 14.9523153,11.6557288 14.9523153,11.7661938 C14.9456205,11.8783325 14.9171674,11.9703866 14.866956,12.0490511 C14.8150709,12.1260418 14.7514699,12.1896429 14.6744791,12.2348331 C14.6728054,12.2365068 14.6711317,12.2348331 14.669458,12.2365068 C14.6276152,12.2616125 14.5757302,12.269981 14.5238451,12.2800233 C14.4970657,12.2833707 14.4736337,12.3017815 14.4468543,12.3017815 L14.4468543,12.3017815 L0.508182683,12.3017815 C0.483077006,12.3017815 0.456297618,12.2850444 0.431191941,12.2800233 C0.379306876,12.269981 0.327421811,12.2616125 0.285579017,12.2365068 C0.283905305,12.2348331 0.282231593,12.2365068 0.280557882,12.2348331 C0.201893428,12.1879691 0.138292381,12.1260418 0.0880810274,12.0490511 C0.0361959624,11.9687129 0.00774286224,11.8766588 0.00104801514,11.7661938 C-0.00732054373,11.6574025 0.0345222506,11.5419164 0.123228975,11.4247566 L0.123228975,11.4247566 C0.365917182,11.0849931 0.635384778,10.6816285 0.934979186,10.2163367 C1.23289988,9.74937109 1.51575717,9.23219415 1.78355106,8.66815328 C2.04967123,8.1024387 2.27729603,7.50659731 2.46977288,6.87728168 C2.66057603,6.24796606 2.7559776,5.60860816 2.7559776,4.95920799 C2.7559776,4.32319751 2.84301061,3.74409324 3.01372921,3.2269163 C3.18444781,2.70639194 3.41374632,2.2461212 3.70162475,1.84275666 C3.98615575,1.43939213 4.32257182,1.10297606 4.70919924,0.83016104 C5.09750037,0.555672309 5.50755975,0.349805761 5.9410511,0.20754026 C6.394627,0.0769907416 6.91013022,0.0066948471 7.43567572,0.00167371177 C7.4473917,0.00167371177 7.45910768,-3.64153152e-14 7.47249738,-3.64153152e-14 L7.49258192,0.000836855887 L7.49258192,0.000836855887 Z M8.44782609,3 L5.1,6.97565217 L7.29695652,6.97565217 L6.53304348,9.95652174 L9.8826087,5.98130435 L7.68565217,5.98130435 L8.44782609,3 Z" id="形状结合" fill="#FFFFFF" fill-rule="nonzero"></path>
            <g id="编组" transform="translate(5.100000, 3.000000)"></g>
        </g>
    </g>
</svg>
