<?xml version="1.0" encoding="UTF-8"?>
<svg width="18px" height="20px" viewBox="0 0 18 20" version="1.1" xmlns="http://www.w3.org/2000/svg" xmlns:xlink="http://www.w3.org/1999/xlink">
    <!-- Generator: Sketch 59.1 (86144) - https://sketch.com -->
    <title>告警规则1</title>
    <desc>Created with Sketch.</desc>
    <g id="页面-1" stroke="none" stroke-width="1" fill="none" fill-rule="evenodd">
        <g id="Apple-TV备份" transform="translate(-801.000000, -919.000000)">
            <g id="告警规则1" transform="translate(800.000000, 919.000000)">
                <rect id="矩形" opacity="0.450590588" x="0" y="0" width="20" height="20"></rect>
                <g id="告警规则" transform="translate(1.000000, 0.000000)">
                    <path d="M14.0909091,-2.66453526e-13 C14.8440247,-2.66453526e-13 15.4545455,0.610520796 15.4545455,1.36362313 L15.4545455,1.36362313 L15.4549965,8.75011217 C15.1594182,8.69008786 14.8555063,8.65300906 14.5452011,8.64081606 L14.5454545,1.36363636 C14.5454545,1.11259784 14.3419476,0.909090909 14.0909091,0.909090909 L14.0909091,0.909090909 L3.18181818,0.909090909 C1.92662557,0.909090909 0.909090909,1.92662557 0.909090909,3.18181818 L0.909090909,3.18181818 L0.909090909,18.1818182 C0.909090909,18.4328567 1.11259784,18.6363636 1.36365574,18.6363636 L1.36365574,18.6363636 L10.6261076,18.6370763 C11.0614201,19.009562 11.553714,19.3173806 12.0881075,19.5456504 L1.36363636,19.5454545 C0.610520796,19.5454545 2.13162821e-14,18.9349337 2.13162821e-14,18.1818182 L2.13162821e-14,18.1818182 L2.13162821e-14,3.18181818 C2.13162821e-14,1.42454852 1.42454852,-2.66453526e-13 3.18181818,-2.66453526e-13 L3.18181818,-2.66453526e-13 Z" id="形状结合" fill="#FFFFFF" fill-rule="nonzero"></path>
                    <g id="编组-4" transform="translate(11.363636, 10.000000)" fill="#FFFFFF">
                        <path d="M4.45107123,6.23420979 C4.30193212,6.81232695 3.83821319,7.23384666 3.28926303,7.23384666 C2.74031288,7.23384666 2.27659395,6.81232695 2.12745483,6.23420979 Z" id="形状结合"></path>
                        <path d="M0.873216097,5.39760228 L5.66153743,5.39760228 C5.13004993,4.62159489 4.88831177,3.51668038 4.91770779,2.09901464 L4.91791591,2.09161858 L4.91933321,2.05616289 L4.9197346,2.02047486 C4.9197346,1.18621218 4.19541939,0.5 3.29004489,0.5 C2.40815533,0.5 1.69310294,1.15300949 1.66173666,1.95443411 L1.66038626,2.01729328 C1.66035996,3.45215535 1.40324311,4.58242826 0.873216097,5.39760228 Z" id="路径" stroke="#FFFFFF" fill-rule="nonzero"></path>
                    </g>
                    <line x1="4.54545455" y1="4.77272727" x2="11.3636364" y2="4.77272727" id="直线备份-3" stroke="#FFFFFF" stroke-linecap="round"></line>
                    <line x1="4.54545455" y1="7.5" x2="8.18181818" y2="7.5" id="直线备份-4" stroke="#FFFFFF" stroke-linecap="round"></line>
                </g>
            </g>
        </g>
    </g>
</svg>