<?xml version="1.0" encoding="UTF-8"?>
<svg width="18px" height="17px" viewBox="0 0 18 17" version="1.1" xmlns="http://www.w3.org/2000/svg" xmlns:xlink="http://www.w3.org/1999/xlink">
    <!-- Generator: Sketch 59.1 (86144) - https://sketch.com -->
    <title>编组 22</title>
    <desc>Created with Sketch.</desc>
    <g id="f" stroke="none" stroke-width="1" fill="none" fill-rule="evenodd">
        <g id="编组-22" transform="translate(1.000000, 1.000000)">
            <g id="编组-9" stroke="#FFFFFF">
                <g id="编组-3备份" fill-rule="nonzero">
                    <g id="编组-11">
                        <path d="M5.66557315,14.7133573 C6.08819647,14.9604765 6.42659771,14.7958951 6.42659771,14.3006681 L6.42659771,8.52252554 C6.42659771,8.02729853 6.08819647,7.53207153 5.66506883,7.28445803 L0.761528882,4.3126018 C0.338401242,4.14752614 0,4.3126018 0,4.72529097 L0,10.5034336 C0,10.9986606 0.33789692,11.4938876 0.761024546,11.7415011 L5.66557315,14.7133573 L5.66557315,14.7133573 Z" id="路径"></path>
                        <path d="M1.52204911,2.49676946 C1.09942579,2.74438295 1.09942579,3.07502852 1.52204911,3.3221478 L6.34187133,6.29400404 C6.76449464,6.5411233 7.35657075,6.5411233 7.77919405,6.37654187 L12.5990163,3.98245047 C13.0216396,3.73533121 13.0216396,3.40468564 12.5990163,3.15707213 L7.52551921,0.185710121 C7.18762229,-0.0619033737 6.51081979,-0.0619033737 6.08819647,0.185710121 L1.52204911,2.49676946 Z" id="路径"></path>
                    </g>
                </g>
                <path d="M10.0759748,14.2632259 L8.92615538,14.831625 C8.35397336,15.1900044 8.06788235,15.0952713 8.06788235,14.5474255 C8.06788235,13.9995797 8.0452549,12.1398326 8,8.96818426 C8,8.27211794 8.34599581,7.74187897 9.03798742,7.37746735 C9.72997903,7.01305573 11.2260787,6.27691783 13.5262865,5.16905366 C14.1362317,4.76898678 14.4080933,5.07899108 14.3418713,6.09906657 L14.2979955,6.79442661" id="路径-8"></path>
            </g>
            <g id="编组备份-4" transform="translate(10.000000, 7.000000)" fill="#FFFFFF" fill-rule="nonzero">
                <path d="M3.07277059,0.00528231439 C4.7678629,0.00528231439 6.14202492,1.37915131 6.14202492,3.07387932 C6.14202492,4.76860734 4.7678629,6.14246049 3.07277059,6.14246049 C1.37767828,6.14246049 0.00351626325,4.76860734 0.00351626325,3.0738714 C0.00351626325,1.37913547 1.37767828,0.00528231439 3.07277059,0.00528231439 Z M3.07277059,1.88155722 C2.10777807,1.88155722 1.32552037,2.66365653 1.32552037,3.62843522 C1.32552037,4.59321391 2.10778599,5.37532114 3.07277059,5.37532114 C4.03776311,5.37532114 4.82002081,4.59322183 4.82002081,3.62844314 C4.82002081,2.66366445 4.03776311,1.88155722 3.07277059,1.88155722 Z" id="形状结合"></path>
                <path d="M3.07277059,2.7134069 C2.54688333,2.7134069 2.12056809,3.13963503 2.12056809,3.66541142 C2.12056809,4.19118781 2.54687541,4.61741594 3.07277059,4.61741594 C3.59866577,4.61741594 4.0249731,4.19118781 4.0249731,3.66541142 C4.0249731,3.13963503 3.59866577,2.7134069 3.07277059,2.7134069 Z" id="路径"></path>
                <path d="M5.28994088,5.59051012 C4.71716219,6.09491966 3.93367696,6.40675836 3.07056105,6.40675836 C2.20732634,6.40675836 1.42356393,6.0946504 0.851094098,5.59051012 L0.329150751,6.73910859 L0.322728027,6.75481299 C0.27530599,6.88666494 0.300561313,7.02235785 0.393766048,7.13773722 C0.541971792,7.32070962 0.857960314,7.43905881 1.19904577,7.43905881 L4.94199713,7.43905881 C5.2336094,7.43905881 5.60135193,7.33984316 5.76623616,7.11830274 C5.85401603,7.00085638 5.86995801,6.86600293 5.81189215,6.73910859 L5.28994088,5.59051012 Z" id="路径"></path>
            </g>
        </g>
    </g>
</svg>