<?xml version="1.0" encoding="UTF-8"?>
<svg width="16px" height="16px" viewBox="0 0 16 16" version="1.1" xmlns="http://www.w3.org/2000/svg" xmlns:xlink="http://www.w3.org/1999/xlink">
    <!-- Generator: Sketch 59.1 (86144) - https://sketch.com -->
    <title>形状结合</title>
    <desc>Created with Sketch.</desc>
    <g id="f" stroke="none" stroke-width="1" fill="none" fill-rule="evenodd">
        <path d="M6.12130936,0 L5.54980781,1.29915534 C5.49184691,1.43088997 5.46267142,1.56996596 5.46267142,1.7148738 C5.46267142,2.28073225 5.91912677,2.7405031 6.47754601,2.7405031 C7.03595685,2.7405031 7.49240379,2.28074072 7.49240379,1.7148738 C7.49240379,1.56993149 7.46323184,1.43088694 7.40530171,1.29926283 L6.83350588,0 L11.622856,0 C12.4782984,0 13.1721136,0.698815788 13.1721136,1.55703323 L13.1721136,3.86441796 C14.7354718,3.8813082 16,5.1653876 16,6.74064491 C16,7.23168643 15.8771185,7.69443472 15.6606099,8.09932428 C15.4177687,7.83208781 15.1838904,7.58439655 14.9581162,7.35482711 C15.0239014,7.16235471 15.0588235,6.9555459 15.0588235,6.74064491 C15.0588235,5.67320081 14.1972819,4.80542588 13.1411069,4.80542583 C13.0229784,4.80547846 12.905106,4.81655747 12.7889966,4.83852226 L12.2309371,4.94409217 L12.2309371,1.55703323 C12.2309371,1.21710614 11.9569819,0.941176471 11.622856,0.941176471 L8.27585656,0.941176471 C8.38040863,1.18632854 8.43358026,1.44722136 8.43358026,1.7148738 C8.43358026,2.79901943 7.55728516,3.68167957 6.47754601,3.68167957 C5.39779845,3.68167957 4.52149495,2.79901097 4.52149495,1.7148738 C4.52149495,1.44727357 4.57466224,1.18638144 4.67920819,0.941176471 L1.54922394,0.941176471 C1.21510056,0.941176471 0.941176471,1.21708674 0.941176471,1.5570163 L0.941176471,4.95344113 C1.19795621,4.83442291 1.47387404,4.77383914 1.75879849,4.77383914 C2.83856713,4.77383914 3.71489999,5.65646146 3.71489999,6.74059411 C3.71489999,7.82476884 2.83857588,8.70741682 1.75879849,8.70741682 C1.53086842,8.70741682 1.30869144,8.66863325 1.09746339,8.59216619 L0.941176471,8.52776731 L0.941176471,11.7035981 C0.941176471,12.043567 1.21510605,12.3194887 1.54922394,12.3194887 L4.65188942,12.3194887 L4.57795033,12.8545004 C4.56573248,12.9429068 4.55960294,13.0326592 4.55960294,13.1235876 C4.55960294,14.1910211 5.42116768,15.0588235 6.47754601,15.0588235 C7.08381658,15.0588235 7.62591814,14.7729698 7.97780211,14.3275281 L8.42232892,15.2305214 C7.91191664,15.7077469 7.22827559,16 6.47754601,16 C4.94556042,16 3.69293693,14.7830203 3.62163026,13.2606652 L1.54922394,13.2606652 C0.693775858,13.2606652 -1.77635684e-15,12.5618439 -1.77635684e-15,11.7035981 L0,7.02809847 L1.32213306,7.66683384 C1.45905004,7.73298965 1.6048591,7.76624035 1.75879849,7.76624035 C2.31725752,7.76624035 2.77372352,7.30648033 2.77372352,6.74059411 C2.77372352,6.17475813 2.31725706,5.71501561 1.75879849,5.71501561 C1.60481929,5.71501561 1.458991,5.74826205 1.32210828,5.81438329 L0,6.45310669 L0,1.5570163 C0,0.698805373 0.693774944,-3.55271368e-15 1.54922394,0 L6.12130936,0 Z" id="形状结合" fill="#FFFFFF" fill-rule="nonzero"></path>
        <g id="编组备份-4" transform="translate(8.633333, 7.101111)" fill="#FFFFFF" fill-rule="nonzero">
            <path d="M3.07277059,0.00528231439 C4.7678629,0.00528231439 6.14202492,1.37915131 6.14202492,3.07387932 C6.14202492,4.76860734 4.7678629,6.14246049 3.07277059,6.14246049 C1.37767828,6.14246049 0.00351626325,4.76860734 0.00351626325,3.0738714 C0.00351626325,1.37913547 1.37767828,0.00528231439 3.07277059,0.00528231439 Z M3.07277059,1.88155722 C2.10777807,1.88155722 1.32552037,2.66365653 1.32552037,3.62843522 C1.32552037,4.59321391 2.10778599,5.37532114 3.07277059,5.37532114 C4.03776311,5.37532114 4.82002081,4.59322183 4.82002081,3.62844314 C4.82002081,2.66366445 4.03776311,1.88155722 3.07277059,1.88155722 Z" id="形状结合"></path>
            <path d="M3.07277059,2.7134069 C2.54688333,2.7134069 2.12056809,3.13963503 2.12056809,3.66541142 C2.12056809,4.19118781 2.54687541,4.61741594 3.07277059,4.61741594 C3.59866577,4.61741594 4.0249731,4.19118781 4.0249731,3.66541142 C4.0249731,3.13963503 3.59866577,2.7134069 3.07277059,2.7134069 Z" id="路径"></path>
            <path d="M5.28994088,5.59051012 C4.71716219,6.09491966 3.93367696,6.40675836 3.07056105,6.40675836 C2.20732634,6.40675836 1.42356393,6.0946504 0.851094098,5.59051012 L0.329150751,6.73910859 L0.322728027,6.75481299 C0.27530599,6.88666494 0.300561313,7.02235785 0.393766048,7.13773722 C0.541971792,7.32070962 0.857960314,7.43905881 1.19904577,7.43905881 L4.94199713,7.43905881 C5.2336094,7.43905881 5.60135193,7.33984316 5.76623616,7.11830274 C5.85401603,7.00085638 5.86995801,6.86600293 5.81189215,6.73910859 L5.28994088,5.59051012 Z" id="路径"></path>
        </g>
    </g>
</svg>