<?xml version="1.0" encoding="UTF-8"?>
<svg width="20px" height="19px" viewBox="0 0 20 19" version="1.1" xmlns="http://www.w3.org/2000/svg" xmlns:xlink="http://www.w3.org/1999/xlink">
    <!-- Generator: Sketch 59.1 (86144) - https://sketch.com -->
    <title>日志分析1</title>
    <desc>Created with Sketch.</desc>
    <g id="页面-1" stroke="none" stroke-width="1" fill="none" fill-rule="evenodd">
        <g id="Apple-TV备份" transform="translate(-1007.000000, -789.000000)">
            <g id="日志分析1" transform="translate(1007.000000, 788.000000)">
                <rect id="矩形" opacity="0.366001674" x="0" y="0" width="20" height="20"></rect>
                <g id="日志分析" transform="translate(0.000000, 1.000000)" fill="#FFFFFF">
                    <path d="M15.5813953,10.9767442 C16.0465116,10.9767442 16.5116279,11.0232558 16.9767442,11.1162791 L16.9767442,1.20930233 C16.9767442,0.558139535 16.4186047,0 15.7674419,0 C15.7674419,0 15.7674419,0 15.7674419,0 L1.39534884,0 C0.744186047,0 0.186046512,0.558139535 0.186046512,1.20930233 L0.186046512,16.744186 C0.186046512,17.3953488 0.744186047,17.9534884 1.39534884,17.9534884 L7.53488372,17.9534884 C8.13953488,14 11.4883721,10.9767442 15.5813953,10.9767442 Z M7.11627907,3.1627907 L13.1162791,3.1627907 C13.5813953,3.1627907 14,3.53488372 14,4.04651163 C14,4.51162791 13.627907,4.93023256 13.1162791,4.93023256 C13.1162791,4.93023256 13.1162791,4.93023256 13.1162791,4.93023256 L7.06976744,4.93023256 C6.60465116,4.93023256 6.23255814,4.55813953 6.18604651,4.04651163 C6.23255814,3.53488372 6.60465116,3.1627907 7.11627907,3.1627907 Z M4.74418605,8.65116279 C4.55813953,8.8372093 4.3255814,8.93023256 4.09302326,8.93023256 C3.62790698,8.93023256 3.25581395,8.55813953 3.20930233,8.04651163 C3.20930233,7.53488372 3.62790698,7.1627907 4.09302326,7.1627907 C4.60465116,7.1627907 4.97674419,7.58139535 4.97674419,8.04651163 C5.02325581,8.27906977 4.93023256,8.51162791 4.74418605,8.65116279 Z M4.74418605,4.60465116 C4.55813953,4.79069767 4.3255814,4.88372093 4.09302326,4.88372093 C3.62790698,4.88372093 3.25581395,4.51162791 3.20930233,4 C3.20930233,3.48837209 3.62790698,3.11627907 4.09302326,3.11627907 C4.60465116,3.11627907 4.97674419,3.53488372 4.97674419,4 C5.02325581,4.23255814 4.93023256,4.46511628 4.74418605,4.60465116 Z M6.18604651,8.09302326 C6.18604651,7.62790698 6.60465116,7.25581395 7.06976744,7.20930233 L13.0697674,7.20930233 C13.5348837,7.20930233 13.9534884,7.58139535 13.9534884,8.09302326 C13.9534884,8.55813953 13.5813953,8.97674419 13.0697674,8.97674419 C13.0697674,8.97674419 13.0697674,8.97674419 13.0697674,8.97674419 L7.02325581,8.97674419 C6.60465116,8.93023256 6.23255814,8.55813953 6.18604651,8.09302326 Z" id="形状"></path>
                    <path d="M14.9767442,12.8372093 C13.0232558,12.8372093 11.3023256,13.9534884 10.3255814,15.5813953 C11.3023256,17.2093023 13.0232558,18.3255814 14.9767442,18.3255814 C16.9302326,18.3255814 18.6511628,17.2093023 19.627907,15.5813953 C18.6511628,13.9069767 16.9302326,12.8372093 14.9767442,12.8372093 L14.9767442,12.8372093 Z M14.9767442,17.4418605 C13.9534884,17.4418605 13.1627907,16.6046512 13.1627907,15.5348837 C13.1627907,14.5116279 14,13.627907 14.9767442,13.627907 C15.9534884,13.627907 16.7906977,14.4651163 16.7906977,15.5348837 C16.7906977,16.6046512 16,17.4418605 14.9767442,17.4418605 L14.9767442,17.4418605 Z M14.9767442,16.8372093 C15.627907,16.8372093 16.1860465,16.2790698 16.1860465,15.5813953 C16.1860465,14.8837209 15.627907,14.3255814 14.9767442,14.3255814 C14.3255814,14.3255814 13.7674419,14.8837209 13.7674419,15.5813953 C13.7674419,16.2325581 14.3255814,16.8372093 14.9767442,16.8372093 L14.9767442,16.8372093 Z" id="形状" fill-rule="nonzero"></path>
                </g>
            </g>
        </g>
    </g>
</svg>