<?xml version="1.0" encoding="UTF-8"?>
<svg width="16px" height="16px" viewBox="0 0 16 16" version="1.1" xmlns="http://www.w3.org/2000/svg" xmlns:xlink="http://www.w3.org/1999/xlink">
    <!-- Generator: Sketch 59.1 (86144) - https://sketch.com -->
    <title>编组 5备份</title>
    <desc>Created with Sketch.</desc>
    <g id="f" stroke="none" stroke-width="1" fill="none" fill-rule="evenodd">
        <g id="编组-5备份" transform="translate(0.000000, 1.000000)" fill="#FFFFFF" fill-rule="nonzero">
            <path d="M7.99887027,-3.41060513e-13 C11.2517747,-3.41060513e-13 14.1806795,1.9699782 15.4071587,4.98280674 C16.6336379,7.99563528 15.913369,11.4511396 13.5853311,13.723061 L2.4124094,13.723061 C0.0843715372,11.4511396 -0.635897323,7.99563528 0.590581867,4.98280674 C1.81706106,1.9699782 4.74596588,-3.41060513e-13 7.99887027,-3.41060513e-13 Z M5.71355184,5.71530526 L6.86878031,9.32725103 C6.87739701,9.48311251 6.92578293,9.63417098 7.00932739,9.76603216 C7.36237938,10.2641669 8.02945923,10.4243442 8.57019987,10.1408244 C8.8249692,10.0256975 9.01733035,9.80579426 9.09754469,9.5379748 C9.17775903,9.27015533 9.13795079,8.98071527 8.98841314,8.74449482 L8.98841314,8.7399242 C8.89708224,8.60445309 8.77540065,8.49216171 8.63304613,8.411981 L5.71355184,5.71530526 Z M14.5702916,7.54969138 L13.4344684,7.63684331 C13.1188822,7.66105829 12.8826057,7.93640501 12.9065916,8.25200871 C12.9281594,8.53579644 13.1531019,8.7554893 13.4277428,8.77912002 L13.5213122,8.77952436 L13.5213122,8.77952436 L14.6582747,8.69232874 C14.9421773,8.67055576 15.1618158,8.44535931 15.1852684,8.17057662 L15.1856254,8.07718185 L15.1856254,8.07718185 C15.1613271,7.76162044 14.8858595,7.5254778 14.5702916,7.54969138 Z M3.09562101,7.25869245 L3.00205154,7.2582881 L3.00205154,7.2582881 L1.86508909,7.34548372 C1.54964172,7.36967593 1.31353275,7.64500821 1.33772496,7.96045558 C1.36203664,8.27619203 1.63750426,8.51233467 1.95307217,8.48812108 L3.08889532,8.40096916 C3.40448152,8.37675417 3.64075808,8.10140745 3.6167722,7.78580375 C3.59520433,7.50201602 3.37026188,7.28232317 3.09562101,7.25869245 Z M12.4696496,3.15178983 L12.3958632,3.22369001 C12.3957691,3.22379972 12.3956751,3.22390947 12.3955811,3.22401925 L11.6533363,4.0907328 C11.4480582,4.33043436 11.4758238,4.69112991 11.7153693,4.89658994 C11.9280897,5.07904183 12.2364813,5.07750317 12.4465461,4.90683338 L12.5206146,4.83460396 L12.5206146,4.83460396 L13.2628594,3.96789039 C13.4681374,3.72818884 13.4403719,3.36749329 13.2008263,3.16203326 C12.9881059,2.97958137 12.6797144,2.98112004 12.4696496,3.15178983 Z M3.40880823,3.08090446 C3.20370942,3.32039676 3.23159085,3.68080906 3.47108315,3.88590787 L4.3380791,4.62839452 C4.57778066,4.83367254 4.93847621,4.805907 5.14393623,4.56636144 C5.32632877,4.35371023 5.32479061,4.04541899 5.15417633,3.83542253 L5.08229954,3.7616602 C5.08214289,3.76152584 5.08198617,3.76139157 5.08182937,3.76125738 L4.21393243,3.01848843 C3.97435059,2.81344802 3.61392657,2.84138934 3.40880823,3.08090446 Z M8.32125337,1.09152301 C8.00553876,1.11583301 7.76939611,1.39130062 7.7936097,1.70686854 L7.88075829,2.84264824 C7.90496348,3.15810674 8.18031531,3.39421421 8.49577382,3.37000902 L8.49592702,3.36999724 C8.81148843,3.34569901 9.04763108,3.0702314 9.02341749,2.75466349 L8.9362689,1.61888379 C8.91206371,1.30342528 8.63671188,1.06731782 8.32125337,1.09152301 Z" id="形状结合"></path>
        </g>
    </g>
</svg>