<?xml version="1.0" encoding="UTF-8"?>
<svg width="13px" height="16px" viewBox="0 0 13 16" version="1.1" xmlns="http://www.w3.org/2000/svg" xmlns:xlink="http://www.w3.org/1999/xlink">
    <!-- Generator: Sketch 59.1 (86144) - https://sketch.com -->
    <title>编组 7备份</title>
    <desc>Created with Sketch.</desc>
    <g id="f" stroke="none" stroke-width="1" fill="none" fill-rule="evenodd">
        <g id="编组-7备份" fill="#FFFFFF" fill-rule="nonzero">
            <path d="M2.07252906,1.16588307 L2.07252906,2.46349009 C2.09357981,2.73557249 2.31680642,2.94776508 2.58960581,2.9550079 L9.7579016,2.9550079 C10.0036605,2.9550079 10.349689,2.73480793 10.349689,2.46349009 L10.349689,1.16588307 L10.8667658,1.16588307 C11.8458693,1.16588307 12.4199621,1.8677705 12.4199621,2.9550079 L12.4199621,13.2061034 C12.4712683,14.2394899 11.6777377,15.1200189 10.6445997,15.1761068 L10.6445997,15.1741408 L1.77761837,15.1741408 C0.745285574,15.1180434 -0.0479317807,14.2387404 0.0022560405,13.2061034 L0.0022560405,2.9550079 C0.0022560405,1.8677705 0.576348854,1.16588307 1.55545233,1.16588307 L2.07252906,1.16588307 Z M8.96950703,9.65734482 L3.45271109,9.65734482 C3.07158435,9.65734482 2.76262008,9.96630909 2.76262008,10.3474358 C2.76262008,10.7285626 3.07158435,11.0375268 3.45271109,11.0375268 L8.96950703,11.0375268 C9.35063377,11.0375268 9.65959804,10.7285626 9.65959804,10.3474358 C9.65959804,9.96630909 9.35063377,9.65734482 8.96950703,9.65734482 Z M8.96950703,6.20885584 L3.45271109,6.20885584 C3.07212727,6.20885584 2.76360312,6.51737999 2.76360312,6.89796381 C2.76360312,7.27854764 3.07212727,7.58707179 3.45271109,7.58707179 L8.96950703,7.58707179 C9.35009086,7.58707179 9.658615,7.27854764 9.658615,6.89796381 C9.658615,6.51737999 9.35009086,6.20885584 8.96950703,6.20885584 Z" id="形状结合"></path>
            <path d="M3.45467716,-8.61533067e-14 L8.9714731,-8.61533067e-14 C9.15431559,-0.000519592732 9.32984837,0.0717483902 9.45932237,0.200853515 C9.58879636,0.32995864 9.6615641,0.505284522 9.6615641,0.688127757 L9.6615641,1.38018483 C9.6615641,1.76022574 9.35348008,2.06831259 8.97343917,2.06831259 L3.45074502,2.06831259 C3.26790253,2.06883218 3.09236974,1.9965642 2.96289575,1.86745908 C2.83342175,1.73835395 2.760654,1.56302807 2.760654,1.38018483 L2.760654,0.688127757 C2.760654,0.50528452 2.83342175,0.329958635 2.96289575,0.20085351 C3.09236974,0.0717483845 3.26790253,-0.000519596677 3.45074502,-8.61533067e-14 L3.45467716,-8.61533067e-14 Z" id="路径备份-30"></path>
        </g>
    </g>
</svg>