<?xml version="1.0" encoding="UTF-8"?>
<svg width="19px" height="20px" viewBox="0 0 19 20" version="1.1" xmlns="http://www.w3.org/2000/svg" xmlns:xlink="http://www.w3.org/1999/xlink">
    <!-- Generator: Sketch 59.1 (86144) - https://sketch.com -->
    <title>日志搜索2</title>
    <desc>Created with Sketch.</desc>
    <g id="页面-1" stroke="none" stroke-width="1" fill="none" fill-rule="evenodd">
        <g id="Apple-TV备份" transform="translate(-1182.000000, -815.000000)">
            <g id="日志搜索2" transform="translate(1180.000000, 814.000000)">
                <rect id="矩形" x="0" y="0" width="22" height="22"></rect>
                <path d="M18.0487805,1 C19.15335,1 20.0487805,1.8954305 20.0487805,3 L20.0490364,12.7287667 C19.0633243,12.0976209 17.8914672,11.7317073 16.6341463,11.7317073 C13.1318528,11.7317073 10.2926829,14.5708772 10.2926829,18.0731707 C10.2926829,18.7540096 10.3999768,19.4097886 10.5985784,20.0245216 L4,20.0243902 C2.8954305,20.0243902 2,19.1289597 2,18.0243902 L2,3 C2,1.8954305 2.8954305,1 4,1 L18.0487805,1 Z M15.7073171,8.56097561 L9.41463415,8.56097561 C8.92682927,8.6097561 8.48780488,9 8.48780488,9.48780488 C8.53658537,9.97560976 8.92682927,10.3658537 9.36585366,10.4146341 L9.36585366,10.4146341 L15.7073171,10.4146341 L15.7073171,10.4146341 L15.8199708,10.4080566 C16.2976605,10.3516675 16.6341463,9.94076655 16.6341463,9.48780488 C16.6341463,8.95121951 16.195122,8.56097561 15.7073171,8.56097561 L15.7073171,8.56097561 Z M6.29268293,8.51219512 C5.80487805,8.51219512 5.36585366,8.90243902 5.36585366,9.43902439 C5.41463415,9.97560976 5.80487805,10.3658537 6.29268293,10.3658537 C6.53658537,10.3658537 6.7804878,10.2682927 6.97560976,10.0731707 C7.17073171,9.92682927 7.26829268,9.68292683 7.2195122,9.43902439 C7.2195122,8.95121951 6.82926829,8.51219512 6.29268293,8.51219512 Z M15.7560976,4.31707317 L9.46341463,4.31707317 C8.92682927,4.31707317 8.53658537,4.70731707 8.48780488,5.24390244 C8.53658537,5.7804878 8.92682927,6.17073171 9.41463415,6.17073171 L9.41463415,6.17073171 L15.7560976,6.17073171 L15.7560976,6.17073171 L15.8687513,6.16415416 C16.346441,6.10776506 16.6829268,5.69686411 16.6829268,5.24390244 C16.6829268,4.70731707 16.2439024,4.31707317 15.7560976,4.31707317 L15.7560976,4.31707317 Z M6.29268293,4.26829268 C5.80487805,4.26829268 5.36585366,4.65853659 5.36585366,5.19512195 C5.41463415,5.73170732 5.80487805,6.12195122 6.29268293,6.12195122 C6.53658537,6.12195122 6.7804878,6.02439024 6.97560976,5.82926829 C7.17073171,5.68292683 7.26829268,5.43902439 7.2195122,5.19512195 C7.2195122,4.70731707 6.82926829,4.26829268 6.29268293,4.26829268 Z" id="形状结合备份-6" fill="#FFFFFF"></path>
                <g id="编组-6" transform="translate(13.951220, 15.000000)" stroke="#FFFFFF">
                    <circle id="椭圆形备份-3" cx="2.43902439" cy="2.43902439" r="2.43902439"></circle>
                    <line x1="3.90243902" y1="4.3902439" x2="5.24100072" y2="5.80993055" id="直线-5备份-2" stroke-linecap="round" stroke-linejoin="round"></line>
                </g>
            </g>
        </g>
    </g>
</svg>