<?xml version="1.0" encoding="UTF-8"?>
<svg width="19px" height="20px" viewBox="0 0 19 20" version="1.1" xmlns="http://www.w3.org/2000/svg" xmlns:xlink="http://www.w3.org/1999/xlink">
    <!-- Generator: Sketch 59.1 (86144) - https://sketch.com -->
    <title>告警事件1</title>
    <desc>Created with Sketch.</desc>
    <g id="页面-1" stroke="none" stroke-width="1" fill="none" fill-rule="evenodd">
        <g id="Apple-TV备份" transform="translate(-709.000000, -777.000000)">
            <g id="告警事件1" transform="translate(708.000000, 777.000000)">
                <rect id="矩形" x="0" y="0" width="20" height="20"></rect>
                <g id="编组-2" transform="translate(1.000000, 0.000000)">
                    <path d="M12.2405382,17.143633 C11.8305047,18.5201338 10.5551995,19.5238095 9.04547334,19.5238095 C7.53574716,19.5238095 6.260442,18.5201338 5.85040849,17.143633 Z" id="形状结合" fill="#FFFFFF"></path>
                    <path d="M0.490435972,15.7990326 C0.488858293,15.8005508 0.487280027,15.8020681 0.485701172,15.8035848 C0.490409699,15.7990618 0.493959501,15.7940361 0.496448915,15.7887521 Z M0.572971921,15.7184063 L17.5088234,15.7184063 C15.3272306,13.8329769 14.3006047,10.5119791 14.3985084,5.79042994 L14.3987165,5.78303387 L14.4031183,5.66361594 L14.4042702,5.55630585 C14.4042702,2.76794415 12.0103948,0.5 9.04762345,0.5 C6.16212796,0.5 3.80042522,2.65678506 3.69494918,5.35727638 L3.6910622,5.54754049 C3.69097597,10.2521301 2.65991772,13.6488536 0.572971921,15.7184063 Z" id="路径" stroke="#FFFFFF" fill-rule="nonzero"></path>
                    <polygon id="路径" fill="#FFFFFF" fill-rule="nonzero" points="8.8127299 9.3542651 7.87999114 12.9939105 11.9698144 8.14016519 9.28732777 8.14016519 10.217943 4.49998894 6.13024331 9.3542651"></polygon>
                </g>
            </g>
        </g>
    </g>
</svg>