<?xml version="1.0" encoding="UTF-8"?>
<svg width="17px" height="17px" viewBox="0 0 17 17" version="1.1" xmlns="http://www.w3.org/2000/svg" xmlns:xlink="http://www.w3.org/1999/xlink">
    <!-- Generator: Sketch 59.1 (86144) - https://sketch.com -->
    <title>切片</title>
    <desc>Created with Sketch.</desc>
    <g id="f" stroke="none" stroke-width="1" fill="none" fill-rule="evenodd">
        <path d="M9.87344929,0.702882104 L10.0884448,0.757730582 C10.7984629,0.938522218 11.4743313,1.21870948 12.1022866,1.59045904 L12.2939454,1.70392106 L12.2032787,1.90735726 C11.9148648,2.5544949 12.0474727,3.31708992 12.5547394,3.82435687 C13.061674,4.33266158 13.8225236,4.46543262 14.4714498,4.17686146 L14.6745523,4.08654373 L14.7880107,4.27768537 C15.1595561,4.90362215 15.439945,5.57955955 15.6208885,6.29017428 L15.675737,6.50557921 L15.4682282,6.5852518 C15.2657584,6.66298965 15.0817747,6.77729997 14.9244849,6.9199106 L14.5001931,6.63421012 C14.6687195,6.46370786 14.8648367,6.3201251 15.0814747,6.21052815 C14.9320774,5.68832179 14.7245691,5.18760552 14.4627776,4.71540304 C13.6768882,4.97361675 12.8010112,4.77935725 12.2009476,4.17767153 C11.6007129,3.57743681 11.4067566,2.70050251 11.6646551,1.91599898 C11.1909308,1.65390756 10.6899057,1.446405 10.1678457,1.29707372 L10.0880646,1.44114873 C9.69274959,2.09701927 8.98101736,2.51775771 8.18930955,2.51775771 C7.33969008,2.51775771 6.58305666,2.03483357 6.21044552,1.29707372 C5.68826864,1.44656367 5.18757999,1.6540641 4.71540216,1.91584197 C4.97348983,2.70135455 4.77975493,3.57719288 4.17927629,4.17767153 C3.57915586,4.77779195 2.70210401,4.97201877 1.91718859,4.71505802 C1.65466195,5.18666835 1.44676246,5.68753046 1.2970756,6.21077436 C2.03476797,6.58460281 2.51775771,7.3410519 2.51775771,8.18930955 C2.51775771,9.03892902 2.03483357,9.79556244 1.2970756,10.1681736 C1.44656358,10.6903501 1.65406385,11.1910385 1.91584148,11.6632161 C2.70173087,11.4050024 3.5776079,11.5992619 4.17767153,12.2009476 C4.77790625,12.8011823 4.97186249,13.6781166 4.71396404,14.4626201 C5.18768831,14.7247115 5.68871342,14.9322141 6.2107734,15.0815454 C6.58460152,14.3438519 7.34105118,13.8608614 8.18930955,13.8608614 C8.99040728,13.8608614 9.70883655,14.290201 10.1006308,14.957602 L10.3248821,14.2018821 L10.7658821,14.4738821 L10.5694028,15.13637 C10.5566852,15.1902647 10.5506296,15.2447559 10.5512391,15.2986885 L10.5534053,15.4903615 L9.87502769,15.6809143 L9.7933673,15.4682282 C9.53912713,14.8060546 8.90694479,14.3608614 8.18930955,14.3608614 C7.47320304,14.3608614 6.84089452,14.8061435 6.5850821,15.4686689 L6.50516981,15.6756328 L6.29017428,15.6208885 C5.58015622,15.4400969 4.90428785,15.1599096 4.27633251,14.7881601 L4.08467368,14.674698 L4.17534037,14.4712618 C4.46375426,13.8241242 4.33114635,13.0615292 3.82387974,12.5542622 C3.31694511,12.0459575 2.55609551,11.9131865 1.90716932,12.2017576 L1.70406676,12.2920754 L1.59060836,12.1009337 C1.21906299,11.4749969 0.938674147,10.7990596 0.757730582,10.0884448 L0.702882104,9.87303989 L0.910390945,9.7933673 C1.57256448,9.53912713 2.01775771,8.90694479 2.01775771,8.18930955 C2.01775771,7.47320304 1.57247563,6.84089452 0.909950204,6.5850821 L0.702882104,6.50516981 L0.757730582,6.29017428 C0.939030268,5.57816096 1.21985678,4.90217441 1.59246554,4.27726107 L1.70595741,4.08692044 L1.90853908,4.1767571 C2.55620802,4.46397171 3.31889075,4.33095028 3.8257229,3.82411814 C4.33290032,3.31694072 4.46531794,2.55583763 4.17686146,1.90716932 L4.08654373,1.70406676 L4.27768537,1.59060836 C4.90362215,1.21906299 5.57955955,0.938674147 6.29017428,0.757730582 L6.50557921,0.702882104 L6.5852518,0.910390945 C6.83949197,1.57256448 7.47167431,2.01775771 8.18930955,2.01775771 C8.90541607,2.01775771 9.53772458,1.57247563 9.793537,0.909950204 L9.87344929,0.702882104 Z M10.1671856,15.0794976 L10.0659507,15.107934 L10.0560174,15.1865545 L10.2601444,15.28901 L10.2161801,15.1827057 L10.1671856,15.0794976 Z M8.18930955,5.96545894 C9.41701047,5.96545894 10.4131602,6.96160863 10.4131602,8.18930955 C10.4131602,9.41701047 9.41701047,10.4131602 8.18930955,10.4131602 C6.96160863,10.4131602 5.96545894,9.41701047 5.96545894,8.18930955 C5.96545894,6.96160863 6.96160863,5.96545894 8.18930955,5.96545894 Z M8.18930955,6.46545894 C7.23775101,6.46545894 6.46545894,7.23775101 6.46545894,8.18930955 C6.46545894,9.14086809 7.23775101,9.91316016 8.18930955,9.91316016 C9.14086809,9.91316016 9.91316016,9.14086809 9.91316016,8.18930955 C9.91316016,7.23775101 9.14086809,6.46545894 8.18930955,6.46545894 Z" id="形状结合" fill="#FFFFFF" fill-rule="nonzero"></path>
        <g id="编组备份-4" transform="translate(10.263158, 13.631579)"></g>
        <g id="编组备份-4" transform="translate(11.000000, 8.000000)" fill="#FFFFFF" fill-rule="nonzero">
            <path d="M2.79352956,0.0048022789 C4.3345787,0.0048022789 5.58386239,1.25381958 5.58386239,2.79453753 C5.58386239,4.33525548 4.3345787,5.58425838 2.79352956,5.58425838 C1.25248042,5.58425838 0.00319671939,4.33525548 0.00319671939,2.79453033 C0.00319671939,1.25380518 1.25248042,0.0048022789 2.79352956,0.0048022789 Z M2.79352956,1.71056886 C1.91623168,1.71056886 1.20506241,2.42159414 1.20506241,3.29869762 C1.20506241,4.1758011 1.91623888,4.88683357 2.79352956,4.88683357 C3.67082743,4.88683357 4.3819967,4.1758083 4.3819967,3.29870482 C4.3819967,2.42160133 3.67082743,1.71056886 2.79352956,1.71056886 Z" id="形状结合"></path>
            <path d="M2.79352956,2.46682339 C2.31543281,2.46682339 1.92785939,2.85431762 1.92785939,3.33231357 C1.92785939,3.81030952 2.31542561,4.19780374 2.79352956,4.19780374 C3.2716335,4.19780374 3.65919973,3.81030952 3.65919973,3.33231357 C3.65919973,2.85431762 3.2716335,2.46682339 2.79352956,2.46682339 Z" id="路径"></path>
            <path d="M4.79224584,5.10366826 C4.27151897,5.5622391 3.55923373,5.84573915 2.77455432,5.84573915 C1.98976691,5.84573915 1.27722968,5.5619943 0.756783602,5.10366826 L0.282272368,6.14788673 L0.276433315,6.16216397 C0.233320802,6.28203375 0.256281023,6.40539544 0.341015686,6.51028959 C0.475753089,6.6766342 0.763025845,6.78422828 1.07311483,6.78422828 L4.47592182,6.78422828 C4.74103353,6.78422828 5.0753571,6.69402896 5.22525732,6.49262124 C5.30506011,6.38584793 5.31955334,6.26324942 5.26676427,6.14788673 L4.79224584,5.10366826 Z" id="路径"></path>
        </g>
    </g>
</svg>