<?xml version="1.0" encoding="UTF-8"?>
<svg width="17px" height="17px" viewBox="0 0 17 17" version="1.1" xmlns="http://www.w3.org/2000/svg" xmlns:xlink="http://www.w3.org/1999/xlink">
    <!-- Generator: Sketch 59.1 (86144) - https://sketch.com -->
    <title>编组 21</title>
    <desc>Created with Sketch.</desc>
    <g id="f" stroke="none" stroke-width="1" fill="none" fill-rule="evenodd">
        <g id="编组-21">
            <g id="编组备份-4" transform="translate(3.263158, 13.631579)"></g>
            <path d="M9.73114976,0.000196360412 L10.1361246,0.103314952 C10.8995918,0.297716317 11.6263866,0.599015608 12.3015527,0.998713932 L12.6625695,1.21243588 L12.4917859,1.59563705 C12.2243777,2.19564234 12.347231,2.90214085 12.8172301,3.3721406 C13.2867074,3.8428867 13.9913385,3.9658474 14.593189,3.69821036 L14.9757617,3.52808401 L15.1894768,3.88812663 C15.589036,4.56125781 15.8905827,5.28820081 16.085157,6.05234741 L16.188472,6.4580934 L15.7975994,6.60816812 C15.2505589,6.81820322 14.8635652,7.30584211 14.7855604,7.87965078 L13.8452327,7.80932873 C13.9347109,7.01577456 14.3939522,6.32014333 15.0689891,5.91854485 C14.9379375,5.49706706 14.7693564,5.09004953 14.5652219,4.70110582 C13.7132983,4.91731489 12.7934649,4.68204893 12.1508127,4.03765929 C11.5079351,3.3947817 11.2730408,2.4742175 11.488835,1.62354184 C11.0986112,1.4190677 10.6910622,1.25037851 10.2694047,1.11931728 L10.1745977,1.26661559 C9.71012906,1.93663183 8.94245912,2.35921583 8.094236,2.35921583 C7.18416976,2.35921583 6.36756828,1.87423527 5.91854485,1.11948287 C5.49706683,1.25053459 5.09004908,1.4191158 4.70110519,1.62325039 C4.91721498,2.47474331 4.68254622,3.39445418 4.03934111,4.03765929 C3.39646455,4.68053585 2.47561633,4.91562824 1.62447748,4.700509 C1.41968017,5.0892677 1.25067861,5.49663362 1.11932823,5.91907386 C1.87411134,6.36909468 2.35921583,7.18542991 2.35921583,8.094236 C2.35921583,9.00430224 1.87423527,9.82090372 1.11948287,10.2699271 C1.25053451,10.6914049 1.41911561,11.0984225 1.62325006,11.4873662 C2.47517367,11.2711571 3.39500706,11.5064231 4.03765929,12.1508127 C4.68053688,12.7936903 4.91543115,13.7142545 4.69963697,14.5649302 C5.08986077,14.7694043 5.49740985,14.9380935 5.91906734,15.0691547 C6.36908679,14.3143653 7.18542552,13.8292562 8.094236,13.8292562 C8.52297832,13.8292562 8.93097653,13.9368955 9.28956907,14.1296717 L9.534,15.691 L9.5245222,15.6691685 C9.26045284,15.1266781 8.71141004,14.7710777 8.094236,14.7710777 C7.43112565,14.7710777 6.84521042,15.1836888 6.60784847,15.7984296 L6.45732224,16.1882756 L6.05234741,16.085157 C5.28888023,15.8907557 4.56208536,15.5894564 3.88691928,15.1897581 L3.52590247,14.9760361 L3.69668614,14.5928349 C3.96409426,13.9928297 3.841241,13.2863312 3.37124185,12.8163314 C2.90176461,12.3455853 2.19713349,12.2226246 1.59528303,12.4902616 L1.21271033,12.660388 L0.998995196,12.3003454 C0.599436042,11.6272142 0.297889318,10.9002712 0.103314952,10.1361246 L-1.24344979e-14,9.7303786 L0.390872575,9.58030388 C1.00498202,9.34451782 1.41739433,8.75888496 1.41739433,8.094236 C1.41739433,7.43112565 1.00478317,6.84521042 0.390042375,6.60784847 L0.000196360412,6.45732224 L0.103314952,6.05234741 C0.298288599,5.28663272 0.60035778,4.55951226 1.0011525,3.88732739 L1.21493067,3.5287936 L1.59652222,3.6980138 C2.19717937,3.96438061 2.90395329,3.84111038 3.37337275,3.37169092 C3.84310416,2.90195951 3.96576347,2.19694474 3.69821036,1.59528303 L3.52808401,1.21271033 L3.88812663,0.998995196 C4.56125781,0.599436042 5.28820081,0.297889318 6.05234741,0.103314952 L6.4580934,-1.15463195e-13 L6.60816812,0.390872575 C6.84395418,1.00498202 7.42958704,1.41739433 8.094236,1.41739433 C8.75734635,1.41739433 9.34326158,1.00478317 9.58062353,0.390042375 L9.73114976,0.000196360412 Z M8.094236,5.55468161 C9.49627139,5.55468161 10.6337904,6.69220061 10.6337904,8.094236 C10.6337904,9.49627139 9.49627139,10.6337904 8.094236,10.6337904 C6.69220061,10.6337904 5.55468161,9.49627139 5.55468161,8.094236 C5.55468161,6.69220061 6.69220061,5.55468161 8.094236,5.55468161 Z M8.094236,6.49650311 C7.21235426,6.49650311 6.49650311,7.21235426 6.49650311,8.094236 C6.49650311,8.97611774 7.21235426,9.69196889 8.094236,9.69196889 C8.97611774,9.69196889 9.69196889,8.97611774 9.69196889,8.094236 C9.69196889,7.21235426 8.97611774,6.49650311 8.094236,6.49650311 Z" id="形状结合" fill="#FFFFFF" fill-rule="nonzero"></path>
        </g>
        <g id="编组备份-4" transform="translate(10.000000, 9.000000)" fill="#FFFFFF" fill-rule="nonzero">
            <path d="M3.07277059,0.00528231439 C4.7678629,0.00528231439 6.14202492,1.37915131 6.14202492,3.07387932 C6.14202492,4.76860734 4.7678629,6.14246049 3.07277059,6.14246049 C1.37767828,6.14246049 0.00351626325,4.76860734 0.00351626325,3.0738714 C0.00351626325,1.37913547 1.37767828,0.00528231439 3.07277059,0.00528231439 Z M3.07277059,1.88155722 C2.10777807,1.88155722 1.32552037,2.66365653 1.32552037,3.62843522 C1.32552037,4.59321391 2.10778599,5.37532114 3.07277059,5.37532114 C4.03776311,5.37532114 4.82002081,4.59322183 4.82002081,3.62844314 C4.82002081,2.66366445 4.03776311,1.88155722 3.07277059,1.88155722 Z" id="形状结合"></path>
            <path d="M3.07277059,2.7134069 C2.54688333,2.7134069 2.12056809,3.13963503 2.12056809,3.66541142 C2.12056809,4.19118781 2.54687541,4.61741594 3.07277059,4.61741594 C3.59866577,4.61741594 4.0249731,4.19118781 4.0249731,3.66541142 C4.0249731,3.13963503 3.59866577,2.7134069 3.07277059,2.7134069 Z" id="路径"></path>
            <path d="M5.28994088,5.59051012 C4.71716219,6.09491966 3.93367696,6.40675836 3.07056105,6.40675836 C2.20732634,6.40675836 1.42356393,6.0946504 0.851094098,5.59051012 L0.329150751,6.73910859 L0.322728027,6.75481299 C0.27530599,6.88666494 0.300561313,7.02235785 0.393766048,7.13773722 C0.541971792,7.32070962 0.857960314,7.43905881 1.19904577,7.43905881 L4.94199713,7.43905881 C5.2336094,7.43905881 5.60135193,7.33984316 5.76623616,7.11830274 C5.85401603,7.00085638 5.86995801,6.86600293 5.81189215,6.73910859 L5.28994088,5.59051012 Z" id="路径"></path>
        </g>
    </g>
</svg>