<?xml version="1.0" encoding="UTF-8"?>
<svg width="17px" height="17px" viewBox="0 0 17 17" version="1.1" xmlns="http://www.w3.org/2000/svg" xmlns:xlink="http://www.w3.org/1999/xlink">
    <!-- Generator: Sketch 59.1 (86144) - https://sketch.com -->
    <title>形状结合</title>
    <desc>Created with Sketch.</desc>
    <g id="f" stroke="none" stroke-width="1" fill="none" fill-rule="evenodd">
        <path d="M5.21492137,0.75 C5.60362896,0.75 5.91873872,1.06510976 5.91339077,1.50525057 L5.85915241,1.73723441 C5.78918851,1.89624967 5.75383286,2.06478572 5.75383286,2.23942507 C5.75383286,2.92353245 6.30608707,3.47979801 6.9834931,3.47979801 C7.66089074,3.47979801 8.21313659,2.92354089 8.21313659,2.23942507 C8.21313659,2.10841552 8.19324967,1.98087454 8.1538007,1.85825215 L8.07293354,1.63905489 C7.98223454,1.30816615 8.14509708,0.951966008 8.46853184,0.809624796 C8.55787618,0.770305022 8.65442275,0.75 8.75203656,0.75 L12.1087042,0.75 C12.8396397,0.75 13.43316,1.34779806 13.43316,2.08220107 L13.43316,4.60598803 C13.4955669,4.60146412 13.5581564,4.59918259 13.6208156,4.59915468 C15.071193,4.59915468 16.25,5.78649047 16.25,7.24556427 C16.25,7.9524202 15.9709514,8.61220812 15.497058,9.09817877 L15.145,8.742 C15.5267376,8.34734593 15.75,7.81542222 15.75,7.24556427 C15.75,6.06182918 14.7942405,5.09915468 13.620927,5.09915466 C13.4896489,5.09921315 13.3586571,5.11152527 13.2296291,5.13593391 L12.93316,5.19201793 L12.93316,2.08220107 C12.93316,1.62313981 12.5626903,1.25 12.1087042,1.25 L8.75203656,1.25 C8.72376864,1.25 8.69580978,1.25588012 8.66993661,1.26726671 C8.56690703,1.31260925 8.52014244,1.43288864 8.56548284,1.53591334 C8.66339001,1.75836997 8.71313659,1.99548102 8.71313659,2.23942507 C8.71313659,3.19887645 7.93784641,3.97979801 6.9834931,3.97979801 C6.02913141,3.97979801 5.25383286,3.19886802 5.25383286,2.23942507 C5.25383286,1.99553416 5.30357508,1.75841908 5.38567011,1.58511993 L5.41873872,1.45381735 C5.41873872,1.34125213 5.32748658,1.25 5.21492137,1.25 L2.07442228,1.25 C1.6204366,1.25 1.25,1.62312256 1.25,2.0821842 L1.25,5.4965736 C1.25,5.52654974 1.25677283,5.55613849 1.26981261,5.58312984 C1.31761631,5.68207981 1.43658365,5.72354206 1.53554447,5.67573312 C1.76959105,5.56267685 2.02173877,5.50519133 2.28317818,5.50519133 C3.23756511,5.50519133 4.01288866,6.28607939 4.01288866,7.24551367 C4.01288866,8.20499175 3.23757191,8.98590347 2.28317818,8.98590347 C2.07403709,8.98590347 1.8708307,8.94910235 1.68687426,8.88032853 L1.50775876,8.80437388 C1.48873308,8.79849088 1.46891973,8.79549323 1.44897738,8.79549323 C1.33908521,8.79549323 1.25,8.88457843 1.25,8.9944706 L1.25,12.1891309 C1.25,12.6482307 1.620441,13.0213657 2.07442228,13.0213657 L4.27204339,13.0213657 C4.5936072,13.0213355 4.854292,13.2820109 4.85415127,13.5951864 L4.85922632,13.7506057 C4.93469759,14.8712199 5.8643486,15.75 6.9834931,15.75 C7.7539341,15.75 8.45011666,15.3311206 8.82478898,14.67992 C8.78114437,14.6611471 8.73936947,14.6404064 8.69976915,14.6177813 L9.30451985,14.8452391 C8.85501013,15.6965092 7.96899104,16.25 6.9834931,16.25 C5.6000373,16.25 4.45342674,15.1661325 4.35993209,13.7757918 L4.354292,13.6035735 C4.354292,13.5581652 4.31748698,13.5213615 4.27206692,13.5213657 L2.07442228,13.5213657 C1.34348434,13.5213657 0.75,12.9235653 0.75,12.1891309 L0.75,8.9944706 C0.75,8.60843606 1.06294283,8.29549323 1.44897738,8.29549323 C1.51903074,8.29549323 1.58863354,8.30602377 1.67317277,8.33290166 L1.87977294,8.41783551 C2.00858293,8.4630991 2.14350231,8.48590347 2.28317818,8.48590347 C2.96062153,8.48590347 3.51288866,7.92965098 3.51288866,7.24551367 C3.51288866,6.5614245 2.96061914,6.00519133 2.28317818,6.00519133 C2.14347864,6.00519133 2.00854682,6.02799126 1.87974474,6.0732373 L1.6567346,6.1640598 C1.3315217,6.26572851 0.972259733,6.11662916 0.819598703,5.80063257 C0.773791915,5.70581604 0.75,5.60187524 0.75,5.4965736 L0.75,2.0821842 C0.75,1.34778559 1.34348236,0.75 2.07442228,0.75 L5.21492137,0.75 Z" id="形状结合" fill="#FFFFFF" fill-rule="nonzero"></path>
        <g id="编组备份-5" transform="translate(10.000000, 9.000000)" fill="#FFFFFF" fill-rule="nonzero">
            <path d="M2.79612306,0.00480673732 C4.3386029,0.00480673732 5.58904643,1.25498362 5.58904643,2.79713197 C5.58904643,4.33928031 4.3386029,5.58944278 2.79612306,5.58944278 C1.25364321,5.58944278 0.00319968721,4.33928031 0.00319968721,2.79712476 C0.00319968721,1.25496921 1.25364321,0.00480673732 2.79612306,0.00480673732 Z M2.79612306,1.71215695 C1.9180107,1.71215695 1.20618119,2.42384233 1.20618119,3.30176011 C1.20618119,4.1796779 1.91801791,4.89137048 2.79612306,4.89137048 C3.67423541,4.89137048 4.38606493,4.1796851 4.38606493,3.30176732 C4.38606493,2.42384954 3.67423541,1.71215695 2.79612306,1.71215695 Z" id="形状结合"></path>
            <path d="M2.79612306,2.46911358 C2.31758245,2.46911358 1.9296492,2.85696756 1.9296492,3.33540728 C1.9296492,3.81384699 2.31757524,4.20170097 2.79612306,4.20170097 C3.27467087,4.20170097 3.66259691,3.81384699 3.66259691,3.33540728 C3.66259691,2.85696756 3.27467087,2.46911358 2.79612306,2.46911358 Z" id="路径"></path>
            <path d="M4.81367718,5.08718558 C4.29246687,5.54618215 3.57952035,5.8299454 2.79411244,5.8299454 C2.00859644,5.8299454 1.29539769,5.54593713 0.774468435,5.08718558 L0.299516666,6.13237349 L0.293672193,6.14666399 C0.250519654,6.26664505 0.273501191,6.39012127 0.358314522,6.49511281 C0.493177014,6.66161185 0.780716473,6.76930582 1.09109334,6.76930582 L4.49705948,6.76930582 C4.76241733,6.76930582 5.09705128,6.67902276 5.24709067,6.47742805 C5.32696754,6.37055561 5.34147423,6.24784329 5.28863615,6.13237349 L4.81367718,5.08718558 Z" id="路径"></path>
        </g>
    </g>
</svg>