<?xml version="1.0" encoding="UTF-8"?>
<svg width="22px" height="22px" viewBox="0 0 22 22" version="1.1" xmlns="http://www.w3.org/2000/svg" xmlns:xlink="http://www.w3.org/1999/xlink">
    <title>多因子认证管理小产品图标</title>
    <g id="页面-1" stroke="none" stroke-width="1" fill="none" fill-rule="evenodd">
        <g id="Apple-TV" transform="translate(-1540.000000, -209.000000)">
            <g id="多因子认证管理小产品图标" transform="translate(1540.000000, 209.000000)">
                <rect id="矩形备份-27" x="0" y="0" width="22" height="22"></rect>
                <g id="编组-22备份" transform="translate(2.300000, 1.000000)" fill="#FFFFFF" fill-rule="nonzero">
                    <g id="认证">
                        <path d="M17.4144397,2.9085254 L16.5526017,2.89512311 C16.531935,2.89512311 14.5998223,2.85489327 12.6043074,2.07960681 C10.557689,1.28358476 9.23870202,0.369355904 9.22649513,0.360804188 L8.70727733,0 L8.18916298,0.360804188 C8.1769791,0.369332923 6.85681969,1.28358473 4.81135078,2.07960681 C2.81705423,2.85608867 0.883746106,2.89510013 0.866711641,2.89510013 L0,2.9085254 L0,11.315918 C0,15.5372465 5.66339578,20 8.70842677,20 C11.7546761,20 17.4181179,15.5372465 17.4181179,11.315918 L17.4144397,2.9085254 L17.4144397,2.9085254 Z M8.70844975,18.7517486 C6.17905035,18.7517486 1.24825143,14.7375693 1.24825143,11.3158491 L1.24825143,4.12627113 C1.96137706,4.07753556 3.57774301,3.89955874 5.26358016,3.24372043 C6.99088851,2.57082464 8.2464503,1.81020483 8.70966816,1.5127569 C9.20700091,1.835814 10.425988,2.57082464 12.152101,3.24372043 C13.8440301,3.90077715 15.4640512,4.07753556 16.1674067,4.12627113 L16.1698205,11.3158491 C16.1698205,14.7375693 11.2378261,18.7517486 8.70844975,18.7517486 L8.70844975,18.7517486 Z" id="形状"></path>
                    </g>
                    <path d="M8.26890527,4.94634119 C6.72250798,4.94634119 5.46890527,6.19994389 5.46890527,7.74634119 C5.46890527,9.29273849 6.72250798,10.5463412 8.26890527,10.5463412 C9.81530257,10.5463412 11.0689053,9.29273849 11.0689053,7.74634119 C11.0689053,6.19994389 9.81530257,4.94634119 8.26890527,4.94634119 Z M8.26890527,6.14634119 C9.15256087,6.14634119 9.86890527,6.86268559 9.86890527,7.74634119 C9.86890527,8.62999679 9.15256087,9.34634119 8.26890527,9.34634119 C7.38524968,9.34634119 6.66890527,8.62999679 6.66890527,7.74634119 C6.66890527,6.86268559 7.38524968,6.14634119 8.26890527,6.14634119 Z" id="椭圆形"></path>
                    <path d="M8.16112854,9.53225273 C9.31056388,9.53225273 10.349356,9.9568775 11.0729185,10.7576655 C11.2950775,11.0035354 11.275856,11.3829478 11.0299861,11.6051068 C10.7841162,11.8272658 10.4047038,11.8080444 10.1825448,11.5621744 C9.69581851,11.0235001 8.98331773,10.7322527 8.16112854,10.7322527 C6.20763214,10.7322527 5.17242733,11.9640624 4.90036659,13.7611059 C4.85076442,14.0887433 4.54495132,14.3141354 4.21731392,14.2645332 C3.88967652,14.214931 3.66428444,13.909118 3.71388662,13.5814806 C4.0653932,11.2596731 5.51710607,9.53225273 8.16112854,9.53225273 Z" id="路径-23"></path>
                    <path d="M14.0090879,10.7814833 C14.2481722,10.5520376 14.6279908,10.5598512 14.8574365,10.7989355 C15.0725419,11.023077 15.0791185,11.3709109 14.8821009,11.602572 L14.8399843,11.6472842 L10.8843535,15.4434454 C10.6502807,15.6680817 10.2837801,15.6640521 10.0545249,15.4445397 L10.0132137,15.4008592 L8.25334442,13.3462134 C8.03777981,13.0945419 8.06705021,12.7157722 8.3187217,12.5002076 C8.55466372,12.2981158 8.90231315,12.311211 9.12246745,12.5210082 L9.1647275,12.5655849 L10.5116,14.138 L14.0090879,10.7814833 Z" id="路径-24"></path>
                </g>
            </g>
        </g>
    </g>
</svg>