<svg width="20" height="20" viewBox="0 0 20 20" xmlns="http://www.w3.org/2000/svg"><g fill="none" fill-rule="evenodd"><path d="M14.73 2.493C13.122.936 10.747-.009 9.31.11c-.955.08-2.213.664-2.85 1.643-.746.217-2.146.463-2.505 1.323-.287.694 1.238 1.034 1.65 1.183.417.149 1.896.68 2.188.792.292.11-.046.34.258 1.468.304 1.127 1.384 2.314 1.913 2.208.32-.11.416-1.974.416-2.217 0-.242.005-.196.225-.072 1.45.814 3.238 2.83 3.875 5.553.405 1.728.213 3.48-.258 4.962-.512 1.612-1.37 2.846-1.392 2.927-.037.153 2.449-2.458 3.648-4.348 2.429-3.83 1.764-8.385.52-10.192a.172.172 0 0 1-.013-.098c.12-.523 1.808-.545 2.337-.872.533-.328-2.33-1.962-4.262-1.89-.196.039-.302.04-.33.013z" fill="#FFF"/><path d="M12.055 10.334v.1c0 .934-2.53 1.695-5.652 1.695-3.122 0-5.652-.758-5.652-1.696 0-.747 1.78-1.45 3.843-1.637.004 0 1.123 2.203 7.461 1.538z" stroke="#FFF" stroke-linecap="round" stroke-linejoin="round"/><path d="M12.055 10.535v3.544c0 .922-2.53 1.673-5.652 1.673-3.122 0-5.652-.748-5.652-1.673V10.56" stroke="#FFF" stroke-linecap="round"/><path d="M12.055 14.206V17.758c0 .918-2.53 1.665-5.652 1.665-3.122 0-5.652-.744-5.652-1.665v-3.552" stroke="#FFF" stroke-linecap="round"/></g></svg>
