<?xml version="1.0" encoding="UTF-8"?>
<svg width="22px" height="22px" viewBox="0 0 22 22" version="1.1" xmlns="http://www.w3.org/2000/svg" xmlns:xlink="http://www.w3.org/1999/xlink">
    <title>next document</title>
    <g id="页面-1" stroke="none" stroke-width="1" fill="none" fill-rule="evenodd">
        <g id="Apple-TV备份-2" transform="translate(-185.000000, -331.000000)">
            <g id="next-document" transform="translate(185.000000, 331.000000)">
                <rect id="矩形" x="0" y="0" width="22" height="22"></rect>
                <g id="编组-6备份" transform="translate(2.000000, 1.000000)">
                    <g id="编组-3" transform="translate(9.731322, 10.237798) rotate(14.000000) translate(-9.731322, -10.237798) translate(2.731322, 1.737798)" stroke="#FFFFFF">
                        <path d="M1,16.6666667 C0.44771525,16.6666667 0,16.2189514 0,15.6666667 L0,12.0802328 L0,12.0802328 L0,1 C0,0.44771525 0.44771525,0 1,0 L12.3333333,0 C12.8856181,0 13.3333333,0.44771525 13.3333333,1 L13.3333333,10.7548787 L13.3333333,10.7548787 L13.3333333,15.6666667 C13.3333333,16.2189514 12.8856181,16.6666667 12.3333333,16.6666667" id="路径"></path>
                        <line x1="2.88872079" y1="3.70561643" x2="10.0099331" y2="3.70561643" id="路径-11" stroke-linecap="round"></line>
                        <line x1="2.88872079" y1="6.4833942" x2="5.56548851" y2="6.4833942" id="路径-11备份" stroke-linecap="round"></line>
                    </g>
                    <path d="M4.11441468,8.88888889 C4.32874903,8.88888889 4.53741232,8.95775398 4.70964223,9.0853317 L6.67924666,10.5442979 C6.85147656,10.6718756 7.06013986,10.7407407 7.27447421,10.7407407 L17.1990741,10.7407407 C17.5186833,10.7407407 17.7777778,10.9998352 17.7777778,11.3194444 L17.7777778,19 C17.7777778,19.5522847 17.3300625,20 16.7777778,20 L1,20 C0.44771525,20 -4.04941724e-13,19.5522847 -4.05009359e-13,19 L-4.05009359e-13,9.88888889 C-4.05076995e-13,9.33660414 0.44771525,8.88888889 1,8.88888889 L4.11441468,8.88888889 Z M9.66666667,18 L8.55555556,18 C8.24873069,18 8,18.2487307 8,18.5555556 C8,18.8623804 8.24873069,19.1111111 8.55555556,19.1111111 L8.55555556,19.1111111 L9.66666667,19.1111111 C9.97349153,19.1111111 10.2222222,18.8623804 10.2222222,18.5555556 C10.2222222,18.2487307 9.97349153,18 9.66666667,18 L9.66666667,18 Z" id="形状结合" fill="#FFFFFF"></path>
                </g>
            </g>
        </g>
    </g>
</svg>