<?xml version="1.0" encoding="UTF-8"?>
<svg width="21px" height="21px" viewBox="0 0 21 21" version="1.1" xmlns="http://www.w3.org/2000/svg" xmlns:xlink="http://www.w3.org/1999/xlink">
    <!-- Generator: Sketch 59.1 (86144) - https://sketch.com -->
    <title>Nginx</title>
    <desc>Created with Sketch.</desc>
    <g id="f" stroke="none" stroke-width="1" fill="none" fill-rule="evenodd" stroke-linecap="round">
        <g id="编组备份-15" transform="translate(1.000000, 1.000000)" stroke="#FFFFFF" stroke-width="2">
            <g id="编组-2">
                <g id="编组">
                    <path d="M18.7258402,4.97289818 L15.8219168,0.458964431 C15.6378855,0.172901392 15.3210635,-1.17363948e-13 14.9809171,-1.17239551e-13 L5.65742021,-1.17239551e-13 C5.2976361,-1.16951416e-13 4.96558546,0.193272488 4.78789329,0.506114455 L0.275976478,8.44972241 C0.104471814,8.75167075 0.101890778,9.12097578 0.26915832,9.42529177 L4.79047003,17.6510804 C4.96618216,17.9707599 5.30202782,18.1693966 5.66681511,18.1693966 L14.8636754,18.1693966 C15.2655155,18.1693966 15.6283234,17.9288628 15.7847728,17.5587289 L18.4127526,11.341354 C18.6277749,10.832646 18.3896956,10.2459466 17.8809876,10.0309243 C17.7577925,9.9788518 17.6254034,9.95202162 17.4916552,9.95202162 L9.3629201,9.95202162 L9.3629201,9.95202162" id="路径-2"></path>
                </g>
            </g>
        </g>
    </g>
</svg>