<?xml version="1.0" encoding="UTF-8"?>
<svg width="20px" height="20px" viewBox="0 0 20 20" version="1.1" xmlns="http://www.w3.org/2000/svg" xmlns:xlink="http://www.w3.org/1999/xlink">
    <!-- Generator: Sketch 58 (84663) - https://sketch.com -->
    <title>画板</title>
    <desc>Created with Sketch.</desc>
    <defs>
        <linearGradient x1="0%" y1="50%" x2="100%" y2="50%" id="linearGradient-1">
            <stop stop-color="#1452CC" offset="0%"></stop>
            <stop stop-color="#28C6CC" offset="100%"></stop>
        </linearGradient>
    </defs>
    <g id="页面-1" stroke="none" stroke-width="1" fill="none" fill-rule="evenodd">
        <g id="画板">
            <g id="编组">
                <path d="M9,3 L16,3 C16.5522847,3 17,3.44771525 17,4 L17,6 C17,6.55228475 16.5522847,7 16,7 L9,7 C8.44771525,7 8,6.55228475 8,6 L8,4 C8,3.44771525 8.44771525,3 9,3 Z" id="矩形" fill="#FFFFFF"></path>
                <path d="M9,8 L16,8 C16.5522847,8 17,8.44771525 17,9 L17,16 C17,16.5522847 16.5522847,17 16,17 L9,17 C8.44771525,17 8,16.5522847 8,16 L8,9 C8,8.44771525 8.44771525,8 9,8 Z" id="矩形" fill="#FFFFFF"></path>
                <rect id="矩形" fill="#FFFFFF" x="3" y="3" width="4" height="14" rx="1"></rect>
                <rect id="矩形" stroke="#FFFFFF" x="0.5" y="0.5" width="19" height="19" rx="1"></rect>
            </g>
        </g>
    </g>
</svg>