<?xml version="1.0" encoding="UTF-8"?>
<svg width="24px" height="24px" viewBox="0 0 24 24" version="1.1" xmlns="http://www.w3.org/2000/svg" xmlns:xlink="http://www.w3.org/1999/xlink">
    <title>okr</title>
    <g id="页面-1" stroke="none" stroke-width="1" fill="none" fill-rule="evenodd">
        <g id="Apple-TV备份-2" transform="translate(-1807.000000, -891.000000)">
            <g id="okr" transform="translate(1807.328125, 891.328125)">
                <rect id="矩形" x="0.671875" y="0.671875" width="22" height="22"></rect>
                <g id="编组-30" transform="translate(1.671875, 1.671875)" fill="#FFFFFF" fill-rule="nonzero">
                    <path d="M9.03359173,1.97138716 C9.73905211,1.97138716 10.4820008,2.04636378 11.2106422,2.19631705 L9.60476503,3.80309717 C9.41437393,3.78752299 9.22398283,3.77810551 9.03359173,3.77810551 C5.02739018,3.77810551 1.80671836,6.99877734 1.80671836,11.0049789 C1.80671836,15.0111804 5.02739018,18.2318523 9.03359173,18.2318523 C13.0397933,18.2318523 16.2604651,15.0111804 16.2604651,11.0049789 C16.2604651,10.7207123 16.2604651,10.4364458 16.2387587,10.1521793 L17.7571069,8.63216246 C17.9754981,9.39890275 18.0671835,10.2248621 18.0671835,11.0049789 C18.0671835,16.0323691 14.0609819,20.0385706 9.03359173,20.0385706 C4.00620155,20.0385706 -1.59872116e-14,16.0323691 -1.59872116e-14,11.0049789 C-1.59872116e-14,5.9775887 4.00620155,1.97138716 9.03359173,1.97138716 Z M8.2312751,5.64427094 L8.23144846,7.48475192 C6.64047576,7.85927302 5.42015504,9.31590493 5.42015504,11.0049789 C5.42015504,12.9688032 7.06976744,14.6184156 9.03359173,14.6184156 C10.8438631,14.6184156 12.3871386,13.2166866 12.6174106,11.4592361 L14.4348599,11.4587693 C14.2030199,14.2328982 11.8658163,16.4251339 9.03359173,16.4251339 C6.04857882,16.4251339 3.6134367,13.9899918 3.6134367,11.0049789 C3.6134367,8.29246541 5.62426826,6.03401067 8.2312751,5.64427094 Z" id="形状结合"></path>
                    <path d="M16.6939545,0 L12.2908483,4.40310625 L12.2908483,6.03034116 L9.51497697,8.80621251 C9.32353757,8.7104928 9.22781786,8.7104928 9.03637847,8.7104928 C7.79202235,8.7104928 6.83482535,9.66768982 6.83482535,10.9120459 C6.83482535,12.156402 7.79202237,13.1135991 9.03637847,13.1135991 C10.2807346,13.1135991 11.2379316,12.156402 11.2379316,10.9120459 C11.2379316,10.7206065 11.2379316,10.6248868 11.1422119,10.4334474 L13.9180832,7.6575761 L15.5453181,7.6575761 L19.9484244,3.25446984 L16.6939545,3.25446984 L16.6939545,0" id="路径"></path>
                </g>
            </g>
        </g>
    </g>
</svg>