<?xml version="1.0" encoding="UTF-8"?>
<svg width="24px" height="24px" viewBox="0 0 24 24" version="1.1" xmlns="http://www.w3.org/2000/svg" xmlns:xlink="http://www.w3.org/1999/xlink">
    <title>okr</title>
    <g id="页面-1" stroke="none" stroke-width="1" fill="none" fill-rule="evenodd">
        <g id="Apple-TV备份-2" transform="translate(-1598.000000, -835.000000)">
            <g id="okr" transform="translate(1598.328125, 835.328125)">
                <g id="编组-29" transform="translate(0.671875, 0.671875)">
                    <rect id="矩形" x="0" y="0" width="22" height="22"></rect>
                    <path d="M11.1409884,1.33478682 C12.1109496,1.33478682 13.1461967,1.46535852 14.1324794,1.72650193 L14.5518411,1.84641472 L12.931686,3.46656977 C12.3347868,3.38129846 11.7378876,3.29602714 11.1409884,3.29602714 C6.79215116,3.29602714 3.29602714,6.79215116 3.29602714,11.1409884 C3.29602714,15.4898256 6.79215116,18.9859496 11.1409884,18.9859496 C15.4898256,18.9859496 18.9859496,15.4898256 18.9859496,11.1409884 C18.9859496,10.6435723 18.9859496,10.1461563 18.887256,9.64874031 L18.815407,9.3502907 L20.3502907,7.81540698 C20.7766473,8.83866279 20.9471899,10.0324612 20.9471899,11.1409884 C20.9471899,16.5983527 16.5983527,20.9471899 11.1409884,20.9471899 C5.68362402,20.9471899 1.33478682,16.5983527 1.33478682,11.1409884 C1.33478682,5.68362402 5.68362402,1.33478682 11.1409884,1.33478682 Z M11.1409884,5.25726744 L11.1409884,7.21850775 C9.00920542,7.21850775 7.21850775,9.00920542 7.21850775,11.1409884 C7.21850775,13.2727713 9.00920542,15.063469 11.1409884,15.063469 C13.2061531,15.063469 14.9512173,13.3829412 15.0582671,11.3397995 L15.063469,11.1409884 L17.0247093,11.1409884 C17.0247093,14.3812984 14.3812984,17.0247093 11.1409884,17.0247093 C7.9006783,17.0247093 5.25726744,14.3812984 5.25726744,11.1409884 C5.25726744,7.9006783 7.9006783,5.25726744 11.1409884,5.25726744 Z M17.9626938,1.33478682 L17.9626938,4.23401163 L20.8619186,4.23401163 L16.939438,8.15649225 L15.4898256,8.15649225 L13.0169574,10.6293605 C13.1022287,10.7999031 13.1022287,10.8851744 13.1022287,11.055717 C13.1022287,12.1642442 12.2495155,13.0169574 11.1409884,13.0169574 C10.0324613,13.0169574 9.17974807,12.1642442 9.17974807,11.055717 C9.17974807,9.94718993 10.0324612,9.09447674 11.1409884,9.09447674 C11.311531,9.09447674 11.3968023,9.09447674 11.567345,9.17974807 L11.567345,9.17974807 L14.0402132,6.70687984 L14.0402132,5.25726744 L17.9626938,1.33478682 Z" id="形状结合" fill="#FFFFFF" fill-rule="nonzero"></path>
                </g>
            </g>
        </g>
    </g>
</svg>