<?xml version="1.0" encoding="UTF-8"?>
<svg width="20px" height="20px" viewBox="0 0 20 20" version="1.1" xmlns="http://www.w3.org/2000/svg" xmlns:xlink="http://www.w3.org/1999/xlink">
    <!-- Generator: Sketch 59.1 (86144) - https://sketch.com -->
    <title>运维自动化小产品图标</title>
    <desc>Created with Sketch.</desc>
    <g id="页面-1" stroke="none" stroke-width="1" fill="none" fill-rule="evenodd">
        <g id="Apple-TV备份-3" transform="translate(-1359.000000, -90.000000)">
            <g id="运维自动化小产品图标" transform="translate(1358.000000, 89.000000)">
                <rect id="矩形备份-14" x="0" y="0" width="22" height="22"></rect>
                <path d="M19.7044847,1.83570565 C21.3486876,3.47990855 20.4491847,7.03413186 17.8525763,10.7726912 C20.4493452,14.5105935 21.3485409,18.064329 19.7044847,19.7083852 C18.0601351,21.3527348 14.505424,20.4529245 10.766498,17.8557814 C6.9579872,20.4986818 3.46017013,21.3367501 1.83180521,19.7083852 C0.202921619,18.0795016 1.04247353,14.5795811 3.68673895,10.7713832 L3.83564223,10.9847843 C1.07363857,7.09322964 0.173007721,3.49450314 1.83180521,1.83570565 C3.46114982,0.206361038 6.9621535,1.04637161 10.773849,3.6941625 L11.0290789,3.51955849 C14.7421552,1.00222959 18.1070117,0.238232637 19.7044847,1.83570565 Z M11.0529091,4.69390925 C10.8581329,4.83370561 10.5954025,4.80962078 10.4289663,4.64864547 L10.4204694,4.63951625 C10.4191775,4.63861747 10.4178883,4.63771159 10.4166021,4.6367986 C6.87692671,2.12425375 3.71586186,1.33297387 2.52246764,2.52636809 C1.38427057,3.66456516 2.05139464,6.59265498 4.29541133,9.93204429 C5.06938434,8.90895401 5.95310021,7.8963467 6.92277323,6.92667368 C7.1134944,6.73595251 7.42271451,6.73595251 7.61343567,6.92667368 C7.80415684,7.11739485 7.80415684,7.42661495 7.61343567,7.61733612 C6.50410402,8.72666777 5.51231702,9.89264322 4.67633648,11.0625951 C2.13105924,14.6247018 1.32142533,17.8166804 2.52246764,19.0177227 C3.66057092,20.155826 6.58806183,19.4888551 9.92658583,17.2458259 C8.91804765,16.48195 7.90571353,15.6003574 6.92277323,14.6174172 C6.73205207,14.426696 6.73205207,14.1174759 6.92277323,13.9267547 C7.1134944,13.7360336 7.42271451,13.7360336 7.61343567,13.9267547 C12.1842074,18.4975264 17.3562968,20.6752483 19.0138223,19.0177227 C20.1942216,17.8373235 19.4295707,14.8745091 17.2407416,11.6157936 C16.4771097,12.6232219 15.5959331,13.6350008 14.6135167,14.6174172 C14.4227955,14.8081383 14.1135754,14.8081383 13.9228543,14.6174172 C13.7321331,14.426696 13.7321331,14.1174759 13.9228543,13.9267547 C14.9593576,12.8902514 15.8728016,11.8228262 16.6463688,10.7724753 C15.8733829,9.72194383 14.9596873,8.65416918 13.9228543,7.61733612 C13.7321331,7.42661495 13.7321331,7.11739485 13.9228543,6.92667368 C14.1135754,6.73595251 14.4227955,6.73595251 14.6135167,6.92667368 C15.5959331,7.90909003 16.4771097,8.92086889 17.2406983,9.92868616 C19.4295707,6.66958173 20.1942216,3.70676736 19.0138223,2.52636809 C17.8062374,1.31878323 14.6269175,2.12874302 11.0529091,4.69390925 Z M10.768145,8.81855705 C11.8470268,8.81855705 12.7216333,9.69316358 12.7216333,10.7720454 C12.7216333,11.8509273 11.8470268,12.7255338 10.768145,12.7255338 C9.68926313,12.7255338 8.8146566,11.8509273 8.8146566,10.7720454 C8.8146566,9.69316358 9.68926313,8.81855705 10.768145,8.81855705 Z M10.768145,9.79530123 C10.2287041,9.79530123 9.79140079,10.2326045 9.79140079,10.7720454 C9.79140079,11.3114863 10.2287041,11.7487896 10.768145,11.7487896 C11.3075859,11.7487896 11.7448892,11.3114863 11.7448892,10.7720454 C11.7448892,10.2326045 11.3075859,9.79530123 10.768145,9.79530123 Z" id="形状结合" fill="#FFFFFF"></path>
                <circle id="椭圆形" fill="#FFFFFF" cx="14.1867496" cy="6.86506867" r="1.46511628"></circle>
                <circle id="椭圆形备份" fill="#FFFFFF" cx="13.6983775" cy="14.6790222" r="1.46511628"></circle>
                <circle id="椭圆形备份-4" fill="#FFFFFF" cx="3.93093567" cy="10.7720454" r="1.46511628"></circle>
            </g>
        </g>
    </g>
</svg>