<?xml version="1.0" encoding="UTF-8"?>
<svg width="21px" height="21px" viewBox="0 0 21 21" version="1.1" xmlns="http://www.w3.org/2000/svg" xmlns:xlink="http://www.w3.org/1999/xlink">
    <!-- Generator: Sketch 59.1 (86144) - https://sketch.com -->
    <title>Oracle</title>
    <desc>Created with Sketch.</desc>
    <defs>
        <linearGradient x1="43.84%" y1="50.43%" x2="55.52%" y2="50.43%" id="linearGradient-1">
            <stop stop-color="#1452CC" offset="0%"></stop>
            <stop stop-color="#29C7CC" offset="100%"></stop>
        </linearGradient>
    </defs>
    <g id="f" stroke="none" stroke-width="1" fill="none" fill-rule="evenodd">
        <g id="编组-6备份-2" transform="translate(1.000000, 1.000000)">
            <g id="数据库变更">
                <ellipse id="椭圆形" stroke="#FFFFFF" stroke-linecap="round" cx="8.51851852" cy="4.44444444" rx="8.14814815" ry="4.44444444"></ellipse>
                <path d="M9.65493911,18.6836916 C9.35047361,18.7022394 9.03924222,18.7170776 8.72801083,18.7170776 C4.44857916,18.7170776 0.835588633,16.8326207 0.835588633,14.6031746 C0.835588633,14.1506082 0.99120433,13.71288 1.26522327,13.3011187 C1.04194858,13.0748355 0.855886333,12.8374236 0.707036536,12.5925926 C0.253721245,13.2046701 0,13.8835198 0,14.6031746 C0,17.4224409 3.83288227,19.6296296 8.72462788,19.6296296 C9.15764547,19.6296296 9.58389716,19.6110818 10,19.5776958 C9.8714479,19.28835 9.75304465,18.9915852 9.65493911,18.6836916 Z" id="路径" fill="#FFFFFF" fill-rule="nonzero"></path>
                <path d="M16.2394488,8.78794937 C16.5495263,8.79959624 16.8561585,8.83453684 17.1559001,8.88888889 C17.3178295,8.48513083 17.4074074,8.06196133 17.4074074,7.62326268 C17.4074074,6.73810078 17.0490956,5.91117323 16.4186047,5.18518519 C16.2980189,5.4608277 16.1326443,5.72870564 15.9259259,5.98493672 C16.332472,6.49351658 16.5564169,7.0486839 16.5564169,7.62326268 C16.5598622,8.02702073 16.4427218,8.41913192 16.2394488,8.78794937 Z" id="路径" fill="#FFFFFF" fill-rule="nonzero"></path>
                <path d="M10.7407407,11.5242391 C10.0786863,11.6243972 9.38302508,11.6800406 8.67056042,11.6800406 C4.41929727,11.6800406 0.830088537,9.79558367 0.830088537,7.56613757 C0.830088537,7.11357114 0.984679924,6.67584295 1.25689519,6.26408169 C1.03509016,6.03779847 0.850252631,5.80038658 0.702382608,5.55555556 C0.252051175,6.1676331 0,6.84648275 0,7.56613757 C0,10.3854039 3.80765308,12.5925926 8.66719974,12.5925926 C9.17130209,12.5925926 9.66196171,12.5666257 10.1391786,12.5221109 C10.3139341,12.1697026 10.5189357,11.8395517 10.7407407,11.5242391 Z" id="路径" fill="#FFFFFF" fill-rule="nonzero"></path>
                <g id="编组" transform="translate(0.000000, 8.518519)" fill-rule="nonzero">
                    <path d="M16.37,0.362962963 C16.36,0.351851852 16.3533333,0.344444444 16.3466667,0.333333333 C16.3433333,0.344444444 16.3366667,0.351851852 16.3333333,0.359259259 C16.3433333,0.362962963 16.3566667,0.362962963 16.37,0.362962963 Z" id="路径" fill="url(#linearGradient-1)"></path>
                    <path d="M9.29333333,6.75185185 C9.09666667,6.75925926 8.9,6.76666667 8.70333333,6.76666667 C4.48666667,6.76666667 0.926666667,4.88518519 0.926666667,2.65925926 C0.926666667,2.20740741 1.08,1.77037037 1.35,1.35925926 C1.13,1.13333333 0.946666667,0.896296296 0.8,0.651851852 C0.353333333,1.26296296 0.103333333,1.94074074 0.103333333,2.65925926 C0.103333333,5.47407407 3.88,7.67777778 8.7,7.67777778 C8.88,7.67777778 9.05666667,7.67407407 9.23333333,7.66666667 C9.23666667,7.35925926 9.26,7.05185185 9.29333333,6.75185185 Z" id="路径" fill="#FFFFFF"></path>
                </g>
            </g>
            <g id="编组-5" transform="translate(10.740741, 10.370370)" fill="#FFFFFF" fill-rule="nonzero">
                <path d="M3.51351351,4.54054054 C3.51351351,5.24324324 3.94594595,5.83783784 4.54054054,5.83783784 C5.13513514,5.83783784 5.56756757,5.24324324 5.56756757,4.54054054 C5.56756757,3.83783784 5.13513514,3.24324324 4.54054054,3.24324324 C3.94594595,3.24324324 3.51351351,3.83783784 3.51351351,4.54054054 Z" id="路径"></path>
                <path d="M4.54054054,-1.03028697e-13 C2,-1.03028697e-13 -2.48689958e-14,2.05405405 -2.48689958e-14,4.54054054 C-2.48689958e-14,7.08108108 2.05405405,9.08108108 4.54054054,9.08108108 C7.08108108,9.08108108 9.08108108,7.02702703 9.08108108,4.54054054 C9.13513514,2.05405405 7.02702703,-1.03028697e-13 4.54054054,-1.03028697e-13 Z M4.54054054,7.78378378 C3.02702703,7.78378378 1.89189189,6.37837838 1.89189189,4.54054054 C1.89189189,2.7027027 3.08108108,1.2972973 4.54054054,1.2972973 C6,1.2972973 7.18918919,2.7027027 7.18918919,4.54054054 C7.18918919,6.32432432 6,7.78378378 4.54054054,7.78378378 Z" id="形状"></path>
            </g>
        </g>
    </g>
</svg>