<?xml version="1.0" encoding="UTF-8"?>
<svg width="20px" height="20px" viewBox="0 0 20 20" version="1.1" xmlns="http://www.w3.org/2000/svg" xmlns:xlink="http://www.w3.org/1999/xlink">
    <!-- Generator: Sketch 58 (84663) - https://sketch.com -->
    <title>画板</title>
    <desc>Created with Sketch.</desc>
    <defs>
        <linearGradient x1="0%" y1="50%" x2="100%" y2="50%" id="linearGradient-1">
            <stop stop-color="#1452CC" offset="0%"></stop>
            <stop stop-color="#28C6CC" offset="100%"></stop>
        </linearGradient>
    </defs>
    <g id="页面-1" stroke="none" stroke-width="1" fill="none" fill-rule="evenodd">
        <g id="画板" fill="#FFFFFF">
            <g id="部署编排">
                <g id="形状结合备份-2">
                    <path d="M19,9 C19.5522847,9 20,9.44771525 20,10 L20,19 C20,19.5522847 19.5522847,20 19,20 L14,20 C13.4477153,20 13,19.5522847 13,19 L13,10 C13,9.44771525 13.4477153,9 14,9 L19,9 Z M6,-2.88506453e-14 C6.55228475,-2.88168276e-14 7,0.44771525 7,1 L7,10 C7,10.5522847 6.55228475,11 6,11 L1,11 C0.44771525,11 -1.77635684e-15,10.5522847 -1.77635684e-15,10 L0,1 C0,0.44771525 0.44771525,-2.98029481e-14 1,-2.97691304e-14 L6,-2.88506453e-14 Z" transform="translate(10.000000, 10.000000) scale(-1, -1) translate(-10.000000, -10.000000) "></path>
                </g>
                <path d="M19,0 C19.5522847,-1.01453063e-16 20,0.44771525 20,1 L20,6 C20,6.55228475 19.5522847,7 19,7 L10,7 C9.44771525,7 9,6.55228475 9,6 L9,1 C9,0.44771525 9.44771525,1.01453063e-16 10,0 L19,0 Z M18.5,1 L10.5,1 C10.2238576,1 10,1.22385763 10,1.5 L10,1.5 L10,5.5 C10,5.77614237 10.2238576,6 10.5,6 L10.5,6 L18.5,6 C18.7761424,6 19,5.77614237 19,5.5 L19,5.5 L19,1.5 C19,1.22385763 18.7761424,1 18.5,1 L18.5,1 Z" id="形状结合"></path>
                <path d="M10,13 C10.5522847,13 11,13.4477153 11,14 L11,19 C11,19.5522847 10.5522847,20 10,20 L1,20 C0.44771525,20 6.76353751e-17,19.5522847 0,19 L0,14 C-6.76353751e-17,13.4477153 0.44771525,13 1,13 L10,13 Z M9.5,14 L1.5,14 C1.22385763,14 1,14.2238576 1,14.5 L1,14.5 L1,18.5 C1,18.7761424 1.22385763,19 1.5,19 L1.5,19 L9.5,19 C9.77614237,19 10,18.7761424 10,18.5 L10,18.5 L10,14.5 C10,14.2238576 9.77614237,14 9.5,14 L9.5,14 Z" id="形状结合"></path>
            </g>
        </g>
    </g>
</svg>