<?xml version="1.0" encoding="UTF-8"?>
<svg width="20px" height="20px" viewBox="0 0 20 20" version="1.1" xmlns="http://www.w3.org/2000/svg" xmlns:xlink="http://www.w3.org/1999/xlink">
    <!-- Generator: Sketch 58 (84663) - https://sketch.com -->
    <title>小产品编排部署</title>
    <desc>Created with Sketch.</desc>
    <defs>
        <polygon id="path-1" points="0 0.0003 19.872 0.0003 19.872 18.1373 0 18.1373"></polygon>
    </defs>
    <g id="页面-1" stroke="none" stroke-width="1" fill="none" fill-rule="evenodd">
        <g id="画板备份-20">
            <g id="小产品编排部署" transform="translate(0.000000, 1.000000)">
                <mask id="mask-2" fill="white">
                    <use xlink:href="#path-1"></use>
                </mask>
                <g id="Clip-2"></g>
                <path d="M18.5172,8.5198 C16.9202,6.6168 14.3562,5.9618 12.0802,6.7998 L11.7562,5.5878 L9.7042,8.0618 L12.7182,9.1788 L12.3712,7.8828 C14.2312,7.1538 16.3492,7.6758 17.6612,9.2388 C19.3222,11.2188 19.0632,14.1808 17.0822,15.8418 C15.8082,16.9118 14.0422,17.2248 12.4752,16.6598 C12.1852,16.5558 11.8652,16.7058 11.7602,16.9968 C11.6562,17.2868 11.8062,17.6068 12.0962,17.7118 C12.7352,17.9418 13.4002,18.0538 14.0612,18.0538 C15.4102,18.0538 16.7422,17.5868 17.8012,16.6978 C20.2532,14.6408 20.5742,10.9718 18.5172,8.5198 L18.5172,8.5198 Z M4.8132,10.7178 L7.9222,11.5328 L7.6612,8.3288 L6.6322,9.1908 C5.1852,7.8138 4.7642,5.6728 5.6252,3.8238 C6.7172,1.4818 9.5122,0.4648 11.8552,1.5568 C13.3632,2.2598 14.3932,3.7278 14.5422,5.3868 C14.5722,5.6948 14.8442,5.9208 15.1502,5.8928 C15.4572,5.8648 15.6842,5.5938 15.6572,5.2858 C15.4702,3.2318 14.1952,1.4148 12.3272,0.5438 C9.4242,-0.8102 5.9642,0.4508 4.6132,3.3518 C3.5632,5.6028 4.0522,8.2028 5.7742,9.9118 L4.8132,10.7178 Z M11.2592,14.3128 C10.4382,16.5948 8.2882,18.1378 5.8052,18.1378 C2.6042,18.1378 -0.0008,15.5328 -0.0008,12.3328 C-0.0008,10.2718 1.1082,8.3478 2.8902,7.3108 C3.1572,7.1558 3.4992,7.2458 3.6552,7.5128 C3.8102,7.7798 3.7192,8.1218 3.4532,8.2768 C2.0122,9.1148 1.1182,10.6678 1.1182,12.3328 C1.1182,14.9168 3.2202,17.0198 5.8052,17.0198 C7.8452,17.0198 9.6072,15.7328 10.2442,13.8388 L9.0272,13.2718 L11.8212,11.6798 L12.3962,14.8428 L11.2592,14.3128 Z" id="Fill-1" fill="#FFFFFF" mask="url(#mask-2)"></path>
            </g>
        </g>
    </g>
</svg>