<?xml version="1.0" encoding="UTF-8"?>
<svg width="20px" height="20px" viewBox="0 0 20 20" version="1.1" xmlns="http://www.w3.org/2000/svg" xmlns:xlink="http://www.w3.org/1999/xlink">
    <!-- Generator: Sketch 58 (84663) - https://sketch.com -->
    <title>画板</title>
    <desc>Created with Sketch.</desc>
    <defs>
        <linearGradient x1="0%" y1="50%" x2="100%" y2="50%" id="linearGradient-1">
            <stop stop-color="#1452CC" offset="0%"></stop>
            <stop stop-color="#28C6CC" offset="100%"></stop>
        </linearGradient>
    </defs>
    <g id="页面-1" stroke="none" stroke-width="1" fill="none" fill-rule="evenodd">
        <g id="画板">
            <g id="程序包">
                <g id="编组-3" transform="translate(0.000000, 1.000000)" fill="#FFFFFF">
                    <path d="M9.24390244,3.55271368e-15 C9.79618719,4.43231541e-15 10.2439024,0.44771525 10.2439024,1 L10.2439024,1.74157473 L19,1.74157473 C19.5522847,1.74157473 20,2.18928998 20,2.74157473 L20,16 C20,16.5522847 19.5522847,17 19,17 L1,17 C0.44771525,17 2.49366311e-14,16.5522847 2.48689958e-14,16 L2.48689958e-14,1 C2.48013604e-14,0.44771525 0.44771525,3.65416674e-15 1,3.55271368e-15 L9.24390244,3.55271368e-15 Z M19,4 L1,4 L1,16 L19,16 L19,4 Z M11.092738,7.29076819 C11.2843403,7.3772103 11.3830404,7.58558865 11.3387087,7.78340423 L11.3108062,7.86714935 L8.78061642,13.5042103 C8.68207809,13.7237458 8.42468345,13.8216286 8.20570938,13.7228376 C8.01410708,13.6363955 7.91540695,13.4280172 7.95973868,13.2302016 L7.9876412,13.1464565 L10.517831,7.50939552 C10.6163693,7.28985999 10.8737639,7.1919772 11.092738,7.29076819 Z M6.90785966,8.56201011 C7.0228642,8.7383003 6.99408797,8.96716915 6.85046999,9.10990795 L6.78197266,9.16540405 L4.578,10.61 L6.78197266,12.0555853 C6.98293189,12.1873561 7.03929342,12.4575047 6.90785966,12.6589792 C6.77642591,12.8604537 6.50696816,12.9169598 6.30600893,12.785189 L3.54580192,10.9752965 C3.49522266,10.9421313 3.45380329,10.9002001 3.42223255,10.8528042 C3.42136876,10.8513045 3.42063974,10.8501978 3.41991492,10.8490867 L3.39582885,10.807442 L3.38851005,10.7921883 L3.38394636,10.7818985 L3.38179804,10.776688 L3.36070949,10.7114855 C3.3550499,10.6876492 3.35145838,10.6635337 3.34988107,10.6393972 C3.34930174,10.6301214 3.34896352,10.6203756 3.34895174,10.6106162 C3.34896352,10.6006138 3.34930174,10.5908679 3.34996282,10.5811528 C3.35292041,10.5350833 3.36343844,10.4886524 3.38182059,10.444147 C3.38606954,10.43389 3.39074831,10.4236299 3.39582885,10.4135473 L3.41991492,10.3719026 C3.45299538,10.3211936 3.4948193,10.2796681 3.54209392,10.2480164 L3.54580192,10.2456928 L6.30600893,8.43580033 C6.50696816,8.30402956 6.77642591,8.36053561 6.90785966,8.56201011 Z M13.1970829,8.42037616 L16.4173245,10.2302686 L16.4443276,10.2466581 C16.4558423,10.2542667 16.46703,10.2624494 16.4778436,10.2711931 L16.4173245,10.2302686 C16.4555585,10.2517575 16.4892993,10.278176 16.5181992,10.3082857 C16.5428213,10.3338771 16.5652668,10.3638939 16.5839689,10.3973404 L16.5398219,10.3325813 C16.553106,10.3486889 16.5651368,10.3656526 16.5758695,10.3833135 L16.5839689,10.3973404 C16.5846938,10.3986367 16.5854113,10.399935 16.5861215,10.4012355 C16.5954433,10.418184 16.6037421,10.4362053 16.6107847,10.4546834 C16.6148823,10.4652679 16.6184203,10.4757004 16.6215445,10.4861955 C16.6333811,10.5264198 16.6395532,10.5683677 16.6395756,10.6106619 C16.6395532,10.6526216 16.6333811,10.6945695 16.6214404,10.7348143 C16.6184203,10.7452889 16.6148823,10.7557215 16.6109243,10.7660699 C16.6037421,10.784784 16.5954433,10.8028053 16.5859281,10.8202281 C16.5854113,10.8210543 16.5846938,10.8223527 16.5839689,10.8236489 L16.5758695,10.8376758 C16.5651368,10.8553368 16.553106,10.8723004 16.5398219,10.888408 L16.5839689,10.8236489 C16.5652668,10.8570954 16.5428213,10.8871123 16.5174528,10.9134679 C16.4892993,10.9428133 16.4555585,10.9692318 16.4173245,10.9907207 L16.4778436,10.9497962 C16.4679603,10.9577877 16.4577645,10.9653106 16.4472922,10.9723547 L16.4173245,10.9907207 L13.1970829,12.8006132 C12.987627,12.918335 12.722641,12.8435345 12.6052203,12.6335414 C12.4877995,12.4235484 12.5624088,12.157883 12.7718647,12.0401611 L12.7718647,12.0401611 L15.316,10.61 L12.7718647,9.18082822 C12.5624088,9.06310637 12.4877995,8.79744096 12.6052203,8.58744792 C12.722641,8.37745489 12.987627,8.30265431 13.1970829,8.42037616 Z" id="形状结合"></path>
                </g>
                <rect id="矩形" x="0" y="0" width="20" height="20"></rect>
            </g>
        </g>
    </g>
</svg>