<?xml version="1.0" encoding="UTF-8"?>
<svg width="20px" height="20px" viewBox="0 0 20 20" version="1.1" xmlns="http://www.w3.org/2000/svg" xmlns:xlink="http://www.w3.org/1999/xlink">
    <!-- Generator: Sketch 58 (84663) - https://sketch.com -->
    <title>画板</title>
    <desc>Created with Sketch.</desc>
    <defs>
        <linearGradient x1="0%" y1="50%" x2="100%" y2="50%" id="linearGradient-1">
            <stop stop-color="#1452CC" offset="0%"></stop>
            <stop stop-color="#28C6CC" offset="100%"></stop>
        </linearGradient>
    </defs>
    <g id="页面-1" stroke="none" stroke-width="1" fill="none" fill-rule="evenodd">
        <g id="画板">
            <g id="补丁管理">
                <g id="编组" fill="#FFFFFF" fill-rule="nonzero">
                    <path d="M7.79994657,17.0559196 C7.96733781,17.1566457 8.03844513,17.3644354 7.97961389,17.548382 L7.94634695,17.6253748 L6.7464271,19.7914953 C6.63597752,19.9908812 6.3913577,20.0591959 6.20005343,19.9440804 C6.03266219,19.8433543 5.96155487,19.6355646 6.02038611,19.451618 L6.05365305,19.3746252 L7.2535729,17.2085047 C7.36402248,17.0091188 7.6086423,16.9408041 7.79994657,17.0559196 Z M12.7999466,17.0559196 C12.9673378,17.1566457 13.0384451,17.3644354 12.9796139,17.548382 L12.946347,17.6253748 L11.7464271,19.7914953 C11.6359775,19.9908812 11.3913577,20.0591959 11.2000534,19.9440804 C11.0326622,19.8433543 10.9615549,19.6355646 11.0203861,19.451618 L11.053653,19.3746252 L12.2535729,17.2085047 C12.3640225,17.0091188 12.6086423,16.9408041 12.7999466,17.0559196 Z M15.6451613,3 C16.393418,3 17,3.60658195 17,4.35483871 L17,15.6451613 C17,16.393418 16.393418,17 15.6451613,17 L4.35483871,17 C3.60658195,17 3,16.393418 3,15.6451613 L3,4.35483871 C3,3.60658195 3.60658195,3 4.35483871,3 L15.6451613,3 Z M15.6451613,3.90322581 L4.35483871,3.90322581 C4.10541979,3.90322581 3.90322581,4.10541979 3.90322581,4.35483871 L3.90322581,15.6451613 C3.90322581,15.8945802 4.10541979,16.0967742 4.35483871,16.0967742 L15.6451613,16.0967742 C15.8945802,16.0967742 16.0967742,15.8945802 16.0967742,15.6451613 L16.0967742,4.35483871 C16.0967742,4.10541979 15.8945802,3.90322581 15.6451613,3.90322581 Z M13,6 C13.5522847,6 14,6.44771525 14,7 L14,13 C14,13.5522847 13.5522847,14 13,14 L7,14 C6.44771525,14 6,13.5522847 6,13 L6,7 C6,6.44771525 6.44771525,6 7,6 L13,6 Z M17.548382,12.0203861 L17.6253748,12.053653 L19.7914953,13.2535729 C19.9908812,13.3640225 20.0591959,13.6086423 19.9440804,13.7999466 C19.8433543,13.9673378 19.6355646,14.0384451 19.451618,13.9796139 L19.3746252,13.946347 L17.2085047,12.7464271 C17.0091188,12.6359775 16.9408041,12.3913577 17.0559196,12.2000534 C17.1566457,12.0326622 17.3644354,11.9615549 17.548382,12.0203861 Z M0.548381957,11.0203861 L0.625374758,11.053653 L2.79149534,12.2535729 C2.99088124,12.3640225 3.05919589,12.6086423 2.94408039,12.7999466 C2.84335433,12.9673378 2.6355646,13.0384451 2.45161804,12.9796139 L2.37462524,12.946347 L0.208504657,11.7464271 C0.00911876323,11.6359775 -0.0591958892,11.3913577 0.0559196104,11.2000534 C0.156645673,11.0326622 0.364435398,10.9615549 0.548381957,11.0203861 Z M17.548382,7.02038611 L17.6253748,7.05365305 L19.7914953,8.2535729 C19.9908812,8.36402248 20.0591959,8.6086423 19.9440804,8.79994657 C19.8433543,8.96733781 19.6355646,9.03844513 19.451618,8.97961389 L19.3746252,8.94634695 L17.2085047,7.7464271 C17.0091188,7.63597752 16.9408041,7.3913577 17.0559196,7.20005343 C17.1566457,7.03266219 17.3644354,6.96155487 17.548382,7.02038611 Z M0.548381957,6.02038611 L0.625374758,6.05365305 L2.79149534,7.2535729 C2.99088124,7.36402248 3.05919589,7.6086423 2.94408039,7.79994657 C2.84335433,7.96733781 2.6355646,8.03844513 2.45161804,7.97961389 L2.37462524,7.94634695 L0.208504657,6.7464271 C0.00911876323,6.63597752 -0.0591958892,6.3913577 0.0559196104,6.20005343 C0.156645673,6.03266219 0.364435398,5.96155487 0.548381957,6.02038611 Z M8.79994657,0.0559196104 C8.96733781,0.156645673 9.03844513,0.364435398 8.97961389,0.548381957 L8.94634695,0.625374758 L7.7464271,2.79149534 C7.63597752,2.99088124 7.3913577,3.05919589 7.20005343,2.94408039 C7.03266219,2.84335433 6.96155487,2.6355646 7.02038611,2.45161804 L7.05365305,2.37462524 L8.2535729,0.208504657 C8.36402248,0.00911876323 8.6086423,-0.0591958892 8.79994657,0.0559196104 Z M13.7999466,0.0559196104 C13.9673378,0.156645673 14.0384451,0.364435398 13.9796139,0.548381957 L13.946347,0.625374758 L12.7464271,2.79149534 C12.6359775,2.99088124 12.3913577,3.05919589 12.2000534,2.94408039 C12.0326622,2.84335433 11.9615549,2.6355646 12.0203861,2.45161804 L12.053653,2.37462524 L13.2535729,0.208504657 C13.3640225,0.00911876323 13.6086423,-0.0591958892 13.7999466,0.0559196104 Z" id="形状结合"></path>
                </g>
                <rect id="矩形" x="0" y="0" width="20" height="20"></rect>
            </g>
        </g>
    </g>
</svg>