<?xml version="1.0" encoding="UTF-8"?>
<svg width="22px" height="22px" viewBox="0 0 22 22" version="1.1" xmlns="http://www.w3.org/2000/svg" xmlns:xlink="http://www.w3.org/1999/xlink">
    <title>权限中心 </title>
    <g id="页面-1" stroke="none" stroke-width="1" fill="none" fill-rule="evenodd">
        <g id="Apple-TV备份-2" transform="translate(-1059.000000, -151.000000)">
            <g id="权限中心-" transform="translate(1059.000000, 151.000000)">
                <rect id="矩形" x="0" y="0" width="22" height="22"></rect>
                <g id="编组-2" transform="translate(4.590000, 2.000000)">
                    <path d="M6.391,0.654 L6.57218697,0.89449989 C7.79739566,2.63149996 9.874,3.69333333 12.802,4.08 L12.8078825,4.86702548 L12.8134826,6.53725249 L12.8145968,8.5731677 L12.8102925,11.0613178 C12.8061515,12.5945661 12.0310022,14.0228833 10.7476974,14.8619282 L6.40737598,17.6996987 L2.09107991,14.8776363 C0.76158729,13.960259 0.00989809,12.5662222 0.00531842,11.0644308 L-3.11999884e-07,8.50787561 L0.00141262,6.71709271 L0.00663149,5.05930377 L0.012,4.079 L0.03250495,4.07948707 C2.34308556,3.99893122 4.46006436,2.90865065 6.37889836,0.66981624 L6.391,0.654 Z" id="形状结合备份-16" stroke="#FFFFFF" stroke-width="2"></path>
                    <path d="M6.40740741,4.92592593 C7.73698181,4.92592593 8.81481481,6.00375894 8.81481481,7.33333333 C8.81481481,7.5246439 8.79249944,7.71074244 8.75032967,7.88916797 L8.92592593,7.88888889 C9.4782107,7.88888889 9.9259259,8.33660414 9.9259259,8.88888889 L9.9259259,12.0740741 C9.9259259,12.6263588 9.4782107,13.0740741 8.92592593,13.0740741 L3.88888889,13.0740741 C3.33660414,13.0740741 2.88888889,12.6263588 2.88888889,12.0740741 L2.88888889,8.88888889 C2.88888889,8.33660414 3.33660414,7.88888889 3.88888889,7.88888889 L4.0644618,7.88906918 C4.02230714,7.71067375 4,7.5246086 4,7.33333333 C4,6.00375894 5.07783301,4.92592593 6.40740741,4.92592593 Z M6.40740741,9.3703704 C5.99830759,9.3703704 5.66666667,9.7020113 5.66666667,10.1111111 C5.66666667,10.3284454 5.76026455,10.5239187 5.90935006,10.6594208 L5.90935006,10.6594208 L5.91,11.2222222 L5.91336387,11.2654152 C5.94224642,11.4496147 6.15358208,11.5925926 6.41,11.5925926 C6.68614237,11.5925926 6.91,11.4267721 6.91,11.2222222 L6.91,11.2222222 L6.91099725,10.6543413 C7.05686219,10.5190568 7.14814815,10.3257445 7.14814815,10.1111111 C7.14814815,9.7020113 6.81650722,9.3703704 6.40740741,9.3703704 Z M6.40740741,5.66666667 C5.48693282,5.66666667 4.74074074,6.41285875 4.74074074,7.33333333 C4.74074074,7.52816109 4.77417015,7.71518098 4.8356059,7.88896996 L7.97904393,7.88943644 C8.04058482,7.71551566 8.07407407,7.52833541 8.07407407,7.33333333 C8.07407407,6.41285875 7.32788199,5.66666667 6.40740741,5.66666667 Z" id="形状结合" fill="#FFFFFF" fill-rule="nonzero"></path>
                </g>
            </g>
        </g>
    </g>
</svg>