<?xml version="1.0" encoding="UTF-8"?>
<svg width="22px" height="22px" viewBox="0 0 22 22" version="1.1" xmlns="http://www.w3.org/2000/svg" xmlns:xlink="http://www.w3.org/1999/xlink">
    <title>编组 12</title>
    <g id="页面-1" stroke="none" stroke-width="1" fill="none" fill-rule="evenodd">
        <g id="Apple-TV" transform="translate(-1518.000000, -818.000000)">
            <g id="编组-12" transform="translate(1518.000000, 818.000000)">
                <rect id="矩形备份-38" fill="#465775" opacity="0" x="0" y="0" width="22" height="22"></rect>
                <g id="编组-9" transform="translate(1.000000, 1.000000)">
                    <rect id="矩形" stroke="#FFFFFF" x="0" y="0" width="10.4545455" height="10.4545455" rx="1"></rect>
                    <rect id="矩形备份-12" fill="#FFFFFF" x="0" y="14.5454545" width="5.45454545" height="5.45454545" rx="1"></rect>
                    <rect id="矩形备份-33" fill="#FFFFFF" x="7.27272727" y="14.5454545" width="5.45454545" height="5.45454545" rx="1"></rect>
                    <rect id="矩形备份-34" fill="#FFFFFF" x="14.5454545" y="14.5454545" width="5.45454545" height="5.45454545" rx="1"></rect>
                    <path d="M17.2727273,5.22727273 C17.5058345,5.22727273 17.6979578,5.40274554 17.7242147,5.62880858 L17.7272727,5.68181818 L17.7272727,12.5 L16.8181818,12.5 L16.8181818,6.13636364 L10.4545455,6.13636364 L10.4545455,5.22727273 L17.2727273,5.22727273 Z" id="路径-5备份-2" fill="#FFFFFF" fill-rule="nonzero"></path>
                    <polygon id="路径-7备份" fill="#FFFFFF" points="14.3181818 11.1363636 20.2272727 11.1363636 17.2727273 13.8636364"></polygon>
                    <path d="M5.2892562,1.31818182 C6.47826593,1.31818182 7.44214876,2.28206465 7.44214876,3.47107438 C7.44214876,4.48800487 6.73707271,5.34025602 5.7891085,5.56563995 L5.78836364,7.26818182 L6.7768595,7.26859504 C7.05300188,7.26859504 7.2768595,7.49245267 7.2768595,7.76859504 C7.2768595,8.01405493 7.09998434,8.21820341 6.86673514,8.26053937 L6.7768595,8.26859504 L5.78836364,8.26818182 L5.7892562,9.09090909 C5.7892562,9.36705147 5.56539857,9.59090909 5.2892562,9.59090909 C5.04379631,9.59090909 4.83964783,9.41403393 4.79731187,9.18078472 L4.7892562,9.09090909 L4.78872995,5.5654796 C3.84110553,5.33985205 3.13636364,4.48776386 3.13636364,3.47107438 C3.13636364,2.28206465 4.10024647,1.31818182 5.2892562,1.31818182 Z M5.2892562,2.31818182 C4.65253122,2.31818182 4.13636364,2.8343494 4.13636364,3.47107438 C4.13636364,4.10779936 4.65253122,4.62396694 5.2892562,4.62396694 C5.92598118,4.62396694 6.44214876,4.10779936 6.44214876,3.47107438 C6.44214876,2.8343494 5.92598118,2.31818182 5.2892562,2.31818182 Z" id="形状结合" fill="#FFFFFF" fill-rule="nonzero" transform="translate(5.289256, 5.454545) scale(-1, 1) rotate(-41.000000) translate(-5.289256, -5.454545) "></path>
                    <g id="编组-9备份-2" transform="translate(5.494108, 5.451937) scale(-1, 1) rotate(-41.000000) translate(-5.494108, -5.451937) translate(2.994108, 0.951937)"></g>
                </g>
            </g>
        </g>
    </g>
</svg>