<?xml version="1.0" encoding="UTF-8"?>
<svg width="20px" height="20px" viewBox="0 0 20 20" version="1.1" xmlns="http://www.w3.org/2000/svg" xmlns:xlink="http://www.w3.org/1999/xlink">
    <!-- Generator: Sketch 59.1 (86144) - https://sketch.com -->
    <title>流水线模版小产品图标</title>
    <desc>Created with Sketch.</desc>
    <g id="页面-1" stroke="none" stroke-width="1" fill="none" fill-rule="evenodd">
        <g id="Apple-TV备份-3" transform="translate(-1194.000000, -90.000000)">
            <g id="流水线模版小产品图标" transform="translate(1193.000000, 89.000000)">
                <rect id="矩形备份-10" x="0" y="0" width="22" height="22"></rect>
                <path d="M13.53,1.18 C14.0822847,1.18 14.53,1.62771525 14.53,2.18 L14.529,3.252 L18.925122,3.25317073 C19.604701,3.25317073 20.1890899,3.7137987 20.2594839,4.33936132 L20.2665854,4.46658537 L20.2665854,10.2714634 C20.2665854,10.9177031 19.7246701,11.4187211 19.0596445,11.478824 L18.925122,11.484878 L3.07146341,11.484878 C2.88457122,11.484878 2.7492752,11.5771856 2.71443332,11.6741931 L2.70560976,11.7226829 L2.70560976,17.527561 C2.70560976,17.6237016 2.81420689,17.7297435 2.98254319,17.7580791 L3.07146341,17.7653659 L7.529,17.764 L7.53,16.58 C7.53,16.0277153 7.97771525,15.58 8.53,15.58 L13.53,15.58 C14.0822847,15.58 14.53,16.0277153 14.53,16.58 L14.53,19.78 C14.53,20.3322847 14.0822847,20.78 13.53,20.78 L12.7728742,20.7818429 C12.6561103,20.8030635 12.5358128,20.8141463 12.4129268,20.8141463 L9.58365854,20.8141463 C9.46077255,20.8141463 9.34047509,20.8030635 9.22371118,20.7818429 L8.53,20.78 C7.97771525,20.78 7.53,20.3322847 7.53,19.78 L7.529,18.739 L3.07146341,18.7409756 C2.3918844,18.7409756 1.80749546,18.2803476 1.73710145,17.654785 L1.73,17.527561 L1.73,11.7226829 C1.73,11.0764432 2.27191525,10.5754253 2.9369409,10.5153224 L3.07146341,10.5092683 L18.925122,10.5092683 C19.1120141,10.5092683 19.2473102,10.4169607 19.282152,10.3199532 L19.2909756,10.2714634 L19.2909756,4.46658537 C19.2909756,4.37044477 19.1823785,4.26440284 19.0140422,4.23606719 L18.925122,4.22878049 L14.529,4.227 L14.53,5.38 C14.53,5.93228475 14.0822847,6.38 13.53,6.38 L8.53,6.38 C7.97771525,6.38 7.53,5.93228475 7.53,5.38 L7.53,2.18 C7.53,1.62771525 7.97771525,1.18 8.53,1.18 L13.53,1.18 Z" id="形状结合" fill="#FFFFFF"></path>
                <rect id="矩形" fill="#FFFFFF" x="7.53" y="8.2" width="7" height="5.2" rx="1"></rect>
            </g>
        </g>
    </g>
</svg>