<?xml version="1.0" encoding="UTF-8"?>
<svg width="17px" height="18px" viewBox="0 0 17 18" version="1.1" xmlns="http://www.w3.org/2000/svg" xmlns:xlink="http://www.w3.org/1999/xlink">
    <!-- Generator: Sketch 59.1 (86144) - https://sketch.com -->
    <title>Rabbitmq小产品图标</title>
    <desc>Created with Sketch.</desc>
    <g id="页面-1" stroke="none" stroke-width="1" fill="none" fill-rule="evenodd">
        <g id="Apple-TV" transform="translate(-1304.000000, -583.000000)">
            <g id="Rabbitmq小产品图标" transform="translate(1302.000000, 582.000000)">
                <rect id="矩形" x="0" y="0" width="20" height="20"></rect>
                <g id="Rabbitmq" transform="translate(1.000000, 1.000000)" fill="#FFFFFF">
                    <path d="M9.15625,5.68434189e-14 C10.234375,0.046875 11.125,0.890625 11.125,1.96875 L11.125,1.96875 L11.125,7.03125 L17.171875,7.03125 C17.359375,7.03125 17.5,7.171875 17.5,7.359375 L17.5,7.359375 L17.5,17.671875 C17.5,17.859375 17.359375,18 17.171875,18 L17.171875,18 L1.328125,18 C1.140625,18 1,17.859375 1,17.671875 L1,17.671875 L1,1.96875 C1.046875,0.9375 1.890625,0.046875 2.96875,0.046875 C4.046875,0.046875 4.9375,0.890625 4.9375,1.96875 L4.9375,1.96875 L4.9375,7.078125 L7.1875,7.078125 L7.1875,1.96875 C7.234375,0.890625 8.078125,5.68434189e-14 9.15625,5.68434189e-14 Z M13.6947194,9.45846479 L13.5625,9.46875 C12.765625,9.5625 12.25,10.3125 12.34375,11.0625 C12.4375,11.859375 13.1875,12.375 13.9375,12.28125 C14.546875,12.1875 15.0625,11.671875 15.15625,11.0625 L15.15625,11.0625 L15.15625,10.6875 C15.0625,9.890625 14.3125,9.375 13.5625,9.46875 Z" id="形状结合"></path>
                </g>
            </g>
        </g>
    </g>
</svg>