<?xml version="1.0" encoding="UTF-8"?>
<svg width="20px" height="20px" viewBox="0 0 20 20" version="1.1" xmlns="http://www.w3.org/2000/svg" xmlns:xlink="http://www.w3.org/1999/xlink">
    <!-- Generator: Sketch 59.1 (86144) - https://sketch.com -->
    <title>Redis</title>
    <desc>Created with Sketch.</desc>
    <g id="f" stroke="none" stroke-width="1" fill="none" fill-rule="evenodd">
        <g id="编组备份-10" fill="#FFFFFF" fill-rule="nonzero">
            <g id="编组">
                <path d="M19.4736842,8.63157895 C19.4210526,8.63157895 19.3684211,8.68421053 19.3684211,8.68421053 L10,12.4210526 L9.84210526,12.4210526 L0.421052632,8.68421053 C0.368421053,8.68421053 0.368421053,8.63157895 0.315789474,8.57894737 L0.315789474,11.3684211 C0.315789474,11.4210526 0.368421053,11.4736842 0.421052632,11.4736842 L9.84210526,15.2105263 L10,15.2105263 L19.4210526,11.4736842 L19.5263158,11.3684211 L19.4736842,8.63157895 L19.4736842,8.63157895 Z" id="路径"></path>
                <path d="M0.315789474,16 L9.73684211,19.7368421 L9.89473684,19.7368421 L19.3157895,16 L19.4210526,15.8947368 L19.4210526,13.1052632 C19.4210526,13.1578947 19.3684211,13.1578947 19.3157895,13.2105263 L9.94736842,16.9473684 L9.78947368,16.9473684 L0.368421053,13.2105263 C0.315789474,13.2105263 0.315789474,13.1578947 0.263157895,13.1052632 L0.263157895,15.8947368 C0.210526316,15.8421053 0.263157895,15.8947368 0.315789474,16 Z" id="路径"></path>
                <path d="M9.84210526,0.473684211 L19.2631579,4.21052632 C19.3157895,4.21052632 19.3157895,4.21052632 19.3684211,4.31578947 L19.3684211,4.31578947 L19.3684211,7.05263158 L19.2631579,7.15789474 L9.84210526,10.8947368 L9.68421053,10.8947368 L0.263157895,7.15789474 C0.210526316,7.15789474 0.157894737,7.10526316 0.157894737,7.05263158 L0.157894737,7.05263158 L0.157894737,4.31578947 C0.157894737,4.26315789 0.210526316,4.21052632 0.263157895,4.21052632 L0.263157895,4.21052632 L9.68421053,0.473684211 L9.84210526,0.473684211 Z M11.3684211,5.57894737 L6.94736842,6.05263158 C6.94736842,6.05263158 6.89473684,6.05263158 6.89473684,6.10526316 C6.84210526,6.15789474 6.89473684,6.15789474 6.89473684,6.15789474 L6.89473684,6.15789474 L10.3157895,7.52631579 L11.3684211,5.57894737 Z M14.1578947,3.21052632 L11.7894737,4.21052632 L11.7894737,4.36842105 L14.4736842,5.42105263 L16.8421053,4.42105263 L16.8421053,4.26315789 L14.1578947,3.21052632 Z M4.94736842,3.57894737 C4.42105263,3.52631579 3.94736842,3.63157895 3.47368421,3.84210526 C3,3.94736842 2.84210526,4.15789474 2.89473684,4.36842105 C2.94736842,4.73684211 3.21052632,5 3.57894737,5.05263158 C4.05263158,5.21052632 4.63157895,5.31578947 5.15789474,5.31578947 C5.63157895,5.26315789 6.15789474,5.21052632 6.68421053,5.10526316 C7,5.05263158 7.21052632,4.84210526 7.26315789,4.52631579 C7.15789474,4.15789474 6.89473684,3.89473684 6.52631579,3.84210526 C6,3.68421053 5.47368421,3.57894737 4.94736842,3.57894737 Z M8.05263158,1.47368421 L8,1.47368421 L8,1.57894737 L8.42105263,2.31578947 L6.63157895,2.63157895 C6.57894737,2.68421053 6.57894737,2.68421053 6.57894737,2.73684211 L6.57894737,2.73684211 L8.63157895,2.84210526 L9.05263158,3.78947368 L9.10526316,3.78947368 L10,3.05263158 L12.0526316,3.15789474 C12.0526316,3.15789474 12.1052632,3.15789474 12.1052632,3.10526316 C12.1578947,3.10526316 12.1052632,3.05263158 12.1052632,3.05263158 L12.1052632,3.05263158 L10.6315789,2.47368421 L11.4210526,1.78947368 L11.4210526,1.73684211 L11.3684211,1.73684211 L9.57894737,2.05263158 L8.05263158,1.47368421 Z" id="形状结合"></path>
            </g>
        </g>
    </g>
</svg>