<?xml version="1.0" encoding="UTF-8"?>
<svg width="16px" height="14px" viewBox="0 0 16 14" version="1.1" xmlns="http://www.w3.org/2000/svg" xmlns:xlink="http://www.w3.org/1999/xlink">
    <!-- Generator: Sketch 63.1 (92452) - https://sketch.com -->
    <title>关联资源</title>
    <desc>Created with Sketch.</desc>
    <g id="指标定义" stroke="none" stroke-width="1" fill="none" fill-rule="evenodd">
        <g id="资源实例列表（首页）" transform="translate(-125.000000, -148.000000)">
            <g id="关联资源" transform="translate(125.000000, 147.000000)">
                <g id="编组-7">
                    <g id="编组-6">
                        <rect id="矩形" x="0" y="0" width="16" height="16"></rect>
                        <path d="M3.87737544,10.1290323 L1.90322581,10.1290323 C1.40438797,10.1290323 1,9.72464429 1,9.22580645 L1,2.90322581 C1,2.40438797 1.40438797,2 1.90322581,2 L9.58064516,2 C10.079483,2 10.483871,2.40438797 10.483871,2.90322581 L10.483871,9.22580645 C10.483871,9.72464429 10.079483,10.1290323 9.58064516,10.1290323 L9.17010965,10.1290323" id="路径" stroke="#FFFFFF" stroke-linecap="round"></path>
                        <path d="M12.5472788,6.06451613 L14.0967742,6.06451613 C14.595612,6.06451613 15,6.4689041 15,6.96774194 L15,13.2903226 C15,13.7891604 14.595612,14.1935484 14.0967742,14.1935484 L6.41935484,14.1935484 C5.920517,14.1935484 5.51612903,13.7891604 5.51612903,13.2903226 L5.51612903,6.96774194 C5.51612903,6.4689041 5.920517,6.06451613 6.41935484,6.06451613 L7.23258533,6.06451613" id="路径" stroke="#FFFFFF" stroke-linecap="round"></path>
                    </g>
                </g>
            </g>
        </g>
    </g>
</svg>