<?xml version="1.0" encoding="UTF-8"?>
<svg width="22px" height="22px" viewBox="0 0 22 22" version="1.1" xmlns="http://www.w3.org/2000/svg" xmlns:xlink="http://www.w3.org/1999/xlink">
    <title>requirements</title>
    <g id="页面-1" stroke="none" stroke-width="1" fill="none" fill-rule="evenodd">
        <g id="Apple-TV" transform="translate(-896.000000, -752.000000)">
            <g id="requirements" transform="translate(896.000000, 752.000000)">
                <rect id="矩形" x="0" y="0" width="22" height="22"></rect>
                <g transform="translate(0.999596, 1.999394)" fill="#FFFFFF" fill-rule="nonzero" id="Fill-1">
                    <path d="M20.0010103,10.6769044 L20.0010103,1.28914932 C20.0010103,0.579915134 19.4210952,0 18.711861,0 L12.4014953,0 C11.6912508,0 11.1113356,0.579915134 11.1113356,1.28914932 L11.1113356,10.6769044 C11.1113356,11.3861386 11.6912508,11.9660537 12.4014953,11.9660537 L18.711861,11.9660537 C19.4210952,11.9660537 20.0010103,11.3861386 20.0010103,10.6769044 M7.77833906,17.864215 L1.11133562,17.864215 C0.500101031,17.864215 0,17.364114 0,16.7528794 L0,1.19721156 C0,0.585976965 0.500101031,0.0858759345 1.11133562,0.0858759345 L7.77833906,0.0858759345 C8.38957365,0.0858759345 8.88967468,0.585976965 8.88967468,1.19721156 L8.88967468,16.7528794 C8.88967468,17.364114 8.38957365,17.864215 7.77833906,17.864215"></path>
                </g>
            </g>
        </g>
    </g>
</svg>