<?xml version="1.0" encoding="UTF-8"?>
<svg width="22px" height="22px" viewBox="0 0 22 22" version="1.1" xmlns="http://www.w3.org/2000/svg" xmlns:xlink="http://www.w3.org/1999/xlink">
    <title>蓝图管理</title>
    <g id="页面-1" stroke="none" stroke-width="1" fill="none" fill-rule="evenodd">
        <g id="Apple-TV备份-2" transform="translate(-659.000000, -798.000000)">
            <g id="蓝图管理" transform="translate(659.000000, 798.000000)">
                <rect id="矩形" fill="#D8D8D8" opacity="0" x="0" y="0" width="22" height="22"></rect>
                <path d="M1.39059464,3.01035206 L1.47619048,3.03453566 L6.6462585,4.74577 C6.87637715,4.82846526 7.0683715,5.03737121 7.11277448,5.23932095 L7.12244898,5.3250567 L7.12244898,18.3862812 C7.12244898,18.5866566 6.95399645,18.6927735 6.73185434,18.6475046 L6.6462585,18.623321 L1.47619048,16.9120867 C1.24607183,16.8293914 1.05407748,16.6204855 1.0096745,16.4185357 L1,16.3328 L1,3.27157549 C1,3.07120007 1.16845253,2.96508322 1.39059464,3.01035206 Z M15.2681457,3.01035206 L15.3537415,3.03453566 L20.5238095,4.74577 C20.7539282,4.82846526 20.9459225,5.03737121 20.9903255,5.23932095 L21,5.3250567 L21,18.3862812 C21,18.5866566 20.8315475,18.6927735 20.6094054,18.6475046 L20.5238095,18.623321 L15.3537415,16.9120867 C15.1236229,16.8293914 14.9316285,16.6204855 14.8872255,16.4185357 L14.877551,16.3328 L14.877551,3.27157549 C14.877551,3.07120007 15.0460036,2.96508322 15.2681457,3.01035206 Z M14.0612245,3.27157549 L14.0612245,16.3328 C14.0612245,16.5582223 13.8480268,16.8175778 13.585034,16.9120867 L8.41496599,18.623321 C8.15197325,18.7178299 7.93877551,18.6117035 7.93877551,18.3862812 L7.93877551,5.3250567 C7.93877551,5.09963435 8.15197325,4.84027886 8.41496599,4.74577 L13.585034,3.03453566 C13.8480268,2.94002679 14.0612245,3.04615314 14.0612245,3.27157549 Z M12.2244898,11.2301541 L10.1836735,11.8661929 C9.84553995,11.9715753 9.57142857,12.331116 9.57142857,12.6692495 C9.57142857,13.007383 9.84553995,13.1960651 10.1836735,13.0906827 L12.2244898,12.4546439 C12.5626233,12.3492615 12.8367347,11.9897208 12.8367347,11.6515873 C12.8367347,11.3134538 12.5626233,11.1247717 12.2244898,11.2301541 Z M3.24489796,10.0056643 C2.90676444,9.90028191 2.63265306,10.088964 2.63265306,10.4270975 C2.63265306,10.765231 2.90676444,11.1247717 3.24489796,11.2301541 L3.24489796,11.2301541 L5.28571429,11.8661929 C5.62384781,11.9715753 5.89795918,11.7828932 5.89795918,11.4447597 C5.89795918,11.1066262 5.62384781,10.7470855 5.28571429,10.6417031 L5.28571429,10.6417031 Z M16.7142857,9.59750101 C16.3761522,9.49211864 16.1020408,9.68080073 16.1020408,10.0189343 C16.1020408,10.3570678 16.3761522,10.7166084 16.7142857,10.8219908 L16.7142857,10.8219908 L18.755102,11.4580297 C19.0932356,11.563412 19.3673469,11.3747299 19.3673469,11.0365964 C19.3673469,10.6984629 19.0932356,10.3389222 18.755102,10.2335399 L18.755102,10.2335399 Z M12.2244898,8.78117448 L10.1836735,9.41721334 C9.84553995,9.52259571 9.57142857,9.88213638 9.57142857,10.2202699 C9.57142857,10.5584034 9.84553995,10.7470855 10.1836735,10.6417031 L12.2244898,10.0056643 C12.5626233,9.90028191 12.8367347,9.54074124 12.8367347,9.20260772 C12.8367347,8.8644742 12.5626233,8.67579211 12.2244898,8.78117448 Z" id="形状结合" fill="#FFFFFF"></path>
            </g>
        </g>
    </g>
</svg>