<?xml version="1.0" encoding="UTF-8"?>
<svg width="35px" height="35px" viewBox="0 0 35 35" version="1.1" xmlns="http://www.w3.org/2000/svg" xmlns:xlink="http://www.w3.org/1999/xlink">
    <!-- Generator: Sketch 61 (89581) - https://sketch.com -->
    <title>资源总览</title>
    <desc>Created with Sketch.</desc>
    <g id="最终版" stroke="none" stroke-width="1" fill="none" fill-rule="evenodd">
        <g id="编组备份-3" fill="#595959" fill-rule="nonzero">
            <path d="M34.2926619,14.6342565 C34.2926619,14.874256 34.3749474,15.1142555 34.2926619,15.2742551 C34.3556488,15.7919429 34.1038624,16.2973142 33.6526632,16.5588238 L27.7875329,19.9279594 C27.3930775,20.1683308 26.8974197,20.1683308 26.5029643,19.9279594 L25.9406797,19.6079601 C25.5310611,19.3825571 25.2765903,18.9520743 25.2765903,18.484534 C25.2765903,18.0169937 25.5310611,17.5865108 25.9406797,17.3611078 L32.285809,13.6719728 C33.1680928,13.1919739 34.1326622,13.6719728 34.2926619,14.6319708 L34.2926619,14.6342565 Z" id="路径"></path>
            <path d="M31.6412389,20.5679581 C32.6880939,20.0079592 33.9726625,21.047957 33.5703777,22.1725261 C33.410378,22.5748109 33.1680928,23.0548099 33.0080932,23.4570947 C33.0080932,23.5370946 32.9280933,23.5370946 32.9280933,23.6170944 L32.8480935,23.5370946 L31.6435247,22.8148104 C31.233906,22.5894074 30.9794352,22.1589245 30.9794352,21.6913842 C30.9794352,21.2238439 31.233906,20.793361 31.6435247,20.5679581 L31.6412389,20.5679581 Z" id="路径"></path>
            <path d="M20.6424054,16.5588238 C20.255522,16.3143166 20.0149575,15.8939708 20.0000806,15.4365405 L20.0000806,15.0342557 C19.9964592,14.5723836 20.2419165,14.144362 20.6424054,13.914258 L30.3612417,8.29827006 C30.9842809,7.96430041 31.7596869,8.17495404 32.128095,8.77826903 C32.2080949,8.93826869 32.3680945,9.18055388 32.4480944,9.34055356 C32.8503792,9.98055219 32.608094,10.7851219 31.9680954,11.1051212 L22.1646878,16.7188235 C21.7702324,16.9591949 21.2745746,16.9591949 20.8801192,16.7188235 L20.6378339,16.5588238 L20.6424054,16.5588238 Z" id="路径"></path>
            <path d="M22.0069739,10.2228374 C21.6015784,10.4795913 21.0881078,10.4936323 20.6692866,10.2594168 C20.2504654,10.0252013 19.9936065,9.58037237 20.000121,9.10055406 L20.000121,8.46055544 C19.9947999,7.99705443 20.240481,7.56689393 20.6424054,7.33598644 L26.4252501,3.96685078 C26.9052491,3.72685128 27.4698193,3.72685128 27.8698184,4.04685062 C28.0298181,4.12685047 28.2721033,4.28913581 28.432103,4.44913547 C28.7715815,4.7198024 28.9554813,5.14066159 28.9234756,5.57365336 C28.8914699,6.00664513 28.647689,6.39589117 28.2721033,6.61370225 L22.0092596,10.2251231 L22.0069739,10.2228374 Z" id="路径"></path>
            <path d="M22.0069739,3.72685131 C21.1246901,4.20685028 20.000121,3.56685166 20.000121,2.604568 L20.000121,1 L20.2401205,1 L21.6869746,1.2399995 C22.8915434,1.48228469 23.1315429,3.08456697 22.0069739,3.72685131 L22.0069739,3.72685131 Z" id="路径"></path>
            <path d="M31.4524346,27.1119417 L17.0616357,18.8112211 L2.59977105,27.1544078 L3.36863799,28.0678932 C7.2410553,32.6686845 11.8242401,35.0000944 17.0616799,35.0000944 C22.4974457,35.0170858 27.6122548,32.4158068 30.8019199,28.0104002 L31.4524346,27.1119417 Z M17.062,21.119 L28.495,27.715 L28.264612,27.9816301 C25.4416782,31.1677746 21.3683199,33.0135301 17.0648202,33.0000895 L16.6809266,32.9952624 C12.6005421,32.8938471 8.98309776,31.1691778 5.78669749,27.7778039 L5.694,27.678 L17.062,21.119 Z" id="路径"></path>
            <path d="M16.4571119,17.7382758 L16.4571119,0.89628727 L15.3587512,1.00484917 C6.6414205,1.86646958 -0.00126981452,9.1991595 1.05064828e-08,17.9589679 C0.0132506186,20.3993851 0.535143456,22.8048817 1.53223915,25.0265519 L1.98419489,26.0335732 L16.4571119,17.7382758 Z M14.457,3.145 L14.457,16.579 L2.941,23.179 L2.84751065,22.9217502 C2.29649359,21.3259862 2.00919494,19.6477865 1.99998507,17.9533876 C1.99894245,10.6688502 7.21076461,4.49933269 14.2552205,3.18063069 L14.457,3.145 Z" id="路径"></path>
        </g>
    </g>
</svg>