<?xml version="1.0" encoding="UTF-8"?>
<svg width="22px" height="22px" viewBox="0 0 22 22" version="1.1" xmlns="http://www.w3.org/2000/svg" xmlns:xlink="http://www.w3.org/1999/xlink">
    <!-- Generator: Sketch 61 (89581) - https://sketch.com -->
    <title>编组 2备份 2</title>
    <desc>Created with Sketch.</desc>
    <g id="f" stroke="none" stroke-width="1" fill="none" fill-rule="evenodd">
        <g id="编组-2备份-2" transform="translate(1.000000, 1.000000)" fill="#FFFFFF">
            <path d="M9.62106061,10.9643094 L9.62121212,7.10371971 C9.62121212,6.92400056 9.84506975,6.77830941 10.1212121,6.77830941 C10.37763,6.77830941 10.5889657,6.90393086 10.6178483,7.06576999 L10.6212121,7.10371971 L10.6210606,10.9643094 L18.3863636,10.9649123 L18.3863636,15.7496013 L17.3863636,15.7496013 L17.3860606,11.9643094 L10.6210606,11.9643094 L10.6212121,15.623553 C10.6212121,15.8032722 10.3973545,15.9489633 10.1212121,15.9489633 C9.8647942,15.9489633 9.65345854,15.8233419 9.62457599,15.6615027 L9.62121212,15.623553 L9.62106061,11.9643094 L2.85606061,11.9643094 L2.85606061,15.7496013 L1.85606061,15.7496013 L1.85606061,10.9649123 L9.62106061,10.9643094 Z" id="形状结合" fill-rule="nonzero"></path>
            <circle id="椭圆形备份-11" cx="10" cy="16.8181818" r="2.27272727"></circle>
            <path d="M15.9889807,3.33066907e-14 C17.0935502,3.31037846e-14 17.9889807,0.8954305 17.9889807,2 L17.9889807,5.53950993 C17.9889807,6.64407943 17.0935502,7.53950993 15.9889807,7.53950993 L4.01101928,7.53950993 C2.90644978,7.53950993 2.01101928,6.64407943 2.01101928,5.53950993 L2.01101928,2 C2.01101928,0.8954305 2.90644978,3.35095969e-14 4.01101928,3.33066907e-14 L15.9889807,3.33066907e-14 Z M15.6818182,1.99362041 L14.1666667,1.99362041 L14.1666667,5.98086124 L15.6818182,5.98086124 L15.6818182,1.99362041 Z M8.86363636,4.38596491 L7.34848485,4.38596491 L7.34848485,5.98086124 L8.86363636,5.98086124 L8.86363636,4.38596491 Z M5.83333333,4.38596491 L4.31818182,4.38596491 L4.31818182,5.98086124 L5.83333333,5.98086124 L5.83333333,4.38596491 Z M11.8939394,4.38596491 L10.3787879,4.38596491 L10.3787879,5.98086124 L11.8939394,5.98086124 L11.8939394,4.38596491 Z M8.86363636,1.99362041 L7.34848485,1.99362041 L7.34848485,3.58851675 L8.86363636,3.58851675 L8.86363636,1.99362041 Z M5.83333333,1.99362041 L4.31818182,1.99362041 L4.31818182,3.58851675 L5.83333333,3.58851675 L5.83333333,1.99362041 Z M11.8939394,1.99362041 L10.3787879,1.99362041 L10.3787879,3.58851675 L11.8939394,3.58851675 L11.8939394,1.99362041 Z" id="形状结合"></path>
            <circle id="椭圆形备份-10" cx="17.7272727" cy="16.8181818" r="2.27272727"></circle>
            <circle id="椭圆形备份-12" cx="2.27272727" cy="16.8181818" r="2.27272727"></circle>
        </g>
    </g>
</svg>