<?xml version="1.0" encoding="UTF-8"?>
<svg width="20px" height="20px" viewBox="0 0 20 20" version="1.1" xmlns="http://www.w3.org/2000/svg" xmlns:xlink="http://www.w3.org/1999/xlink">
    <!-- Generator: Sketch 58 (84663) - https://sketch.com -->
    <title>定时任务</title>
    <desc>Created with Sketch.</desc>
    <defs>
        <polygon id="path-1" points="0 0 16 0 16 20 0 20"></polygon>
    </defs>
    <g id="页面-1" stroke="none" stroke-width="1" fill="none" fill-rule="evenodd">
        <g id="画板备份-16">
            <g id="定时任务" transform="translate(2.000000, -1.000000)">
                <mask id="mask-2" fill="white">
                    <use xlink:href="#path-1"></use>
                </mask>
                <g id="Clip-2"></g>
                <path d="M12.9727849,13.8224737 L8.24555735,13.8224737 C8.11234,13.8224737 7.98807009,13.7745488 7.89163663,13.6950138 C7.8290046,13.6664627 7.77432584,13.6307739 7.72362371,13.5787703 L3.66645955,9.4133782 C3.43581459,9.18191088 3.43581459,8.80157031 3.66645955,8.56602427 C3.89611035,8.33455695 4.26593762,8.33455695 4.49260594,8.56602427 L8.44836585,12.6233303 L12.9727849,12.6233303 C13.2968808,12.6233303 13.5573506,12.8904864 13.5573506,13.222902 C13.5573506,13.5502192 13.2968808,13.8224737 12.9727849,13.8224737 M14.2482913,7.66972571 L13.054306,6.43387376 C11.924941,5.48251249 10.5321238,4.85438972 9.01006586,4.65759152 L9.01006586,2.88844703 L10.4486144,2.88844703 C10.9198459,2.88844703 11.3006089,2.49688998 11.3006089,2.01356174 L11.3006089,1.87488529 C11.3006089,1.39155705 10.9198459,1 10.4486144,1 L5.75220579,1 C5.28196844,1 4.8992171,1.39155705 4.8992171,1.87488529 L4.8992171,2.01356174 C4.8992171,2.49688998 5.28196844,2.88844703 5.75220579,2.88844703 L7.16888281,2.88844703 L7.16888281,4.62904048 C3.14054927,5.05628633 0,8.54868971 0,12.7925971 C0,17.3260936 3.58295017,21 8.00198832,21 C12.4170498,21 16,17.3260936 16,12.7925971 C16,10.8562251 15.3478315,9.07280514 14.2482913,7.66972571" id="Fill-1" fill="#FFFFFF"></path>
            </g>
        </g>
    </g>
</svg>