<?xml version="1.0" encoding="UTF-8"?>
<svg width="22px" height="22px" viewBox="0 0 22 22" version="1.1" xmlns="http://www.w3.org/2000/svg" xmlns:xlink="http://www.w3.org/1999/xlink">
    <title>节点自动发现</title>
    <g id="V6.5" stroke="none" stroke-width="1" fill="none" fill-rule="evenodd">
        <g id="开关" transform="translate(-1283.000000, -1000.000000)">
            <g id="节点自动发现" transform="translate(1283.000000, 1000.000000)">
                <rect id="矩形" x="0" y="0" width="22" height="22"></rect>
                <g transform="translate(1.000000, 1.000000)" fill="#FFFFFF" id="形状结合">
                    <path d="M10,0 C15.5228475,0 20,4.4771525 20,10 C20,15.5228475 15.5228475,20 10,20 C4.4771525,20 0,15.5228475 0,10 C0,4.4771525 4.4771525,0 10,0 Z M15.0791218,4.3809163 L10.8827658,6.84771145 C10.601939,6.76923306 10.3058697,6.72727273 10,6.72727273 C8.19252264,6.72727273 6.72727273,8.19252264 6.72727273,10 C6.72727273,11.8074774 8.19252264,13.2727273 10,13.2727273 C11.8074774,13.2727273 13.2727273,11.8074774 13.2727273,10 C13.2727273,9.57873087 13.1931324,9.17605212 13.0481609,8.80618209 L13.0481609,8.80618209 L15.0791218,4.3809163 Z M10,8.72727273 C10.7029079,8.72727273 11.2727273,9.29709214 11.2727273,10 C11.2727273,10.7029079 10.7029079,11.2727273 10,11.2727273 C9.29709214,11.2727273 8.72727273,10.7029079 8.72727273,10 C8.72727273,9.29709214 9.29709214,8.72727273 10,8.72727273 Z"></path>
                </g>
            </g>
        </g>
    </g>
</svg>