<?xml version="1.0" encoding="UTF-8"?>
<svg width="22px" height="22px" viewBox="0 0 22 22" version="1.1" xmlns="http://www.w3.org/2000/svg" xmlns:xlink="http://www.w3.org/1999/xlink">
    <title>服务观测小产品</title>
    <g id="页面-1" stroke="none" stroke-width="1" fill="none" fill-rule="evenodd">
        <g id="Apple-TV备份-2" transform="translate(-78.000000, -559.000000)">
            <g id="服务观测小产品" transform="translate(78.000000, 559.000000)">
                <rect id="矩形备份-33" x="0" y="0" width="22" height="22"></rect>
                <g id="编组-18备份" transform="translate(1.000000, 1.000000)">
                    <rect id="矩形" stroke="#FFFFFF" stroke-linecap="round" stroke-linejoin="round" x="0" y="0" width="20" height="20" rx="2"></rect>
                    <g id="编组-17" transform="translate(4.545455, 2.272727)">
                        <rect id="矩形" fill="#FFFFFF" x="3.18181818" y="5.90909091" width="4.54545455" height="4.54545455" rx="2"></rect>
                        <rect id="矩形备份-29" fill="#FFFFFF" x="9.09090909" y="0" width="3.63636364" height="3.63636364" rx="0.5"></rect>
                        <rect id="矩形备份-30" fill="#FFFFFF" x="10.4545455" y="12.2727273" width="3.63636364" height="3.63636364" rx="0.5"></rect>
                        <line x1="6.81818182" y1="9.54545455" x2="11.3636364" y2="13.1818182" id="路径-17" stroke="#FFFFFF"></line>
                        <line x1="6.45454545" y1="7.22727273" x2="9.77272727" y2="2.72727273" id="路径-18" stroke="#FFFFFF"></line>
                        <line x1="0.454545455" y1="3.18181818" x2="3.86363636" y2="6.59090909" id="路径-3" stroke="#FFFFFF"></line>
                        <line x1="0.227272727" y1="11.5909091" x2="3.86363636" y2="9.77272727" id="路径-4" stroke="#FFFFFF"></line>
                    </g>
                    <rect id="矩形备份-25" fill="#FFFFFF" x="2.72727273" y="12.2727273" width="3.63636364" height="3.63636364" rx="0.5"></rect>
                    <rect id="矩形备份-31" fill="#FFFFFF" x="1.81818182" y="2.27272727" width="3.63636364" height="3.63636364" rx="0.5"></rect>
                </g>
            </g>
        </g>
    </g>
</svg>