<?xml version="1.0" encoding="UTF-8"?>
<svg width="20px" height="20px" viewBox="0 0 20 20" version="1.1" xmlns="http://www.w3.org/2000/svg" xmlns:xlink="http://www.w3.org/1999/xlink">
    <!-- Generator: Sketch 59.1 (86144) - https://sketch.com -->
    <title>SQLServer小产品图标</title>
    <desc>Created with Sketch.</desc>
    <defs>
        <polygon id="path-1" points="0.102608696 0.0274130435 6.60869565 0.0274130435 6.60869565 4.54904348 0.102608696 4.54904348"></polygon>
        <path d="M8.99608696,0.153913043 C4.0526087,0.153913043 0.18,2.19086957 0.18,4.79130435 L0.18,4.79130435 C0.18,7.39217391 4.0526087,9.42913043 8.99608696,9.42913043 L8.99608696,9.42913043 C13.94,9.42913043 17.8126087,7.39217391 17.8126087,4.79130435 L17.8126087,4.79130435 C17.8126087,2.19086957 13.94,0.153913043 8.99608696,0.153913043 Z M1.04956522,4.79130435 C1.04956522,2.74913043 4.68869565,1.02347826 8.99608696,1.02347826 L8.99608696,1.02347826 C13.3034783,1.02347826 16.9426087,2.74913043 16.9426087,4.79130435 L16.9426087,4.79130435 C16.9426087,6.83391304 13.3034783,8.55913043 8.99608696,8.55913043 L8.99608696,8.55913043 C4.68869565,8.55913043 1.04956522,6.83391304 1.04956522,4.79130435 L1.04956522,4.79130435 Z" id="path-3"></path>
        <path d="M0.136956522,2.24434783 C0.136956522,4.88652174 4.07782609,6.95652174 9.10869565,6.95652174 L9.10869565,6.95652174 C9.55521739,6.95652174 9.99304348,6.93913043 10.4213043,6.90782609 L10.4213043,6.90782609 C10.2834783,6.63826087 10.1643478,6.35782609 10.0626087,6.06956522 L10.0626087,6.06956522 C9.74869565,6.08782609 9.43130435,6.1 9.10869565,6.1 L9.10869565,6.1 C4.70913043,6.1 0.993478261,4.33434783 0.993478261,2.24434783 L0.993478261,2.24434783 C0.993478261,1.81869565 1.15391304,1.40869565 1.43652174,1.02217391 L1.43652174,1.02217391 C1.2073913,0.810869565 1.01565217,0.58826087 0.863478261,0.357391304 L0.863478261,0.357391304 C0.396956522,0.932608696 0.136956522,1.56956522 0.136956522,2.24434783" id="path-5"></path>
        <path d="M0,1.93565217 C0,4.57782609 3.94043478,6.64782609 8.97130435,6.64782609 L8.97130435,6.64782609 C9.4926087,6.64782609 10.0013043,6.62434783 10.496087,6.58173913 L10.496087,6.58173913 C10.6756522,6.25086957 10.8865217,5.94 11.1156522,5.64478261 L11.1156522,5.64478261 C10.4291304,5.73782609 9.71173913,5.79130435 8.97130435,5.79130435 L8.97130435,5.79130435 C4.5726087,5.79130435 0.856086957,4.02608696 0.856086957,1.93565217 L0.856086957,1.93565217 C0.856086957,1.51043478 1.0173913,1.09956522 1.29913043,0.713478261 L1.29913043,0.713478261 C1.07043478,0.502608696 0.879130435,0.280434783 0.726086957,0.0491304348 L0.726086957,0.0491304348 C0.26,0.624347826 0,1.26086957 0,1.93565217" id="path-7"></path>
        <path d="M0.546956522,0.385652174 C0.560434783,0.386521739 0.573913043,0.386521739 0.587826087,0.387826087 L0.587826087,0.387826087 C0.578695652,0.37826087 0.570869565,0.368695652 0.562173913,0.36 L0.562173913,0.36 C0.557826087,0.368695652 0.55173913,0.376521739 0.546956522,0.385652174" id="path-9"></path>
        <linearGradient x1="45.2988%" y1="49.94418%" x2="54.63933%" y2="49.94418%" id="linearGradient-11">
            <stop stop-color="#1452CC" offset="0%"></stop>
            <stop stop-color="#28C6CC" offset="100%"></stop>
        </linearGradient>
        <path d="M0.136956522,2.11043478 C0.136956522,4.75217391 4.07782609,6.8226087 9.10869565,6.8226087 L9.10869565,6.8226087 C9.29565217,6.8226087 9.48086957,6.81869565 9.66521739,6.81304348 L9.66521739,6.81304348 C9.66565217,6.52043478 9.69043478,6.23347826 9.72608696,5.95086957 L9.72608696,5.95086957 C9.52173913,5.95869565 9.31695652,5.96608696 9.10869565,5.96608696 L9.10869565,5.96608696 C4.70913043,5.96608696 0.993478261,4.20043478 0.993478261,2.11043478 L0.993478261,2.11043478 C0.993478261,1.68478261 1.15391304,1.27478261 1.43652174,0.88826087 L1.43652174,0.88826087 C1.2073913,0.676956522 1.01565217,0.454347826 0.863478261,0.223478261 L0.863478261,0.223478261 C0.396956522,0.798695652 0.136956522,1.43565217 0.136956522,2.11043478" id="path-12"></path>
    </defs>
    <g id="页面-1" stroke="none" stroke-width="1" fill="none" fill-rule="evenodd">
        <g id="Apple-TV" transform="translate(-1173.000000, -582.000000)">
            <g id="SQLServer小产品图标" transform="translate(1173.000000, 582.000000)">
                <rect id="矩形" x="0" y="0" width="20" height="20"></rect>
                <g id="SQLServer备份" transform="translate(0.000000, -0.000000)">
                    <g id="数据库变更">
                        <g id="SQLServer小产品图标">
                            <g id="icon/数据库变更">
                                <g id="编组" transform="translate(12.173913, 13.324217)">
                                    <mask id="mask-2" fill="white">
                                        <use xlink:href="#path-1"></use>
                                    </mask>
                                    <g id="Clip-2"></g>
                                </g>
                                <g id="编组" transform="translate(0.000000, 0.280739)">
                                    <mask id="mask-4" fill="white">
                                        <use xlink:href="#path-3"></use>
                                    </mask>
                                    <g id="Clip-4"></g>
                                    <path d="M8.99608696,0.153913043 C4.0526087,0.153913043 0.18,2.19086957 0.18,4.79130435 L0.18,4.79130435 C0.18,7.39217391 4.0526087,9.42913043 8.99608696,9.42913043 L8.99608696,9.42913043 C13.94,9.42913043 17.8126087,7.39217391 17.8126087,4.79130435 L17.8126087,4.79130435 C17.8126087,2.19086957 13.94,0.153913043 8.99608696,0.153913043 Z M1.04956522,4.79130435 C1.04956522,2.74913043 4.68869565,1.02347826 8.99608696,1.02347826 L8.99608696,1.02347826 C13.3034783,1.02347826 16.9426087,2.74913043 16.9426087,4.79130435 L16.9426087,4.79130435 C16.9426087,6.83391304 13.3034783,8.55913043 8.99608696,8.55913043 L8.99608696,8.55913043 C4.68869565,8.55913043 1.04956522,6.83391304 1.04956522,4.79130435 L1.04956522,4.79130435 Z" id="Fill-3" fill="#FFFFFF" mask="url(#mask-4)"></path>
                                </g>
                                <g id="编组" transform="translate(0.000000, 12.454652)">
                                    <mask id="mask-6" fill="white">
                                        <use xlink:href="#path-5"></use>
                                    </mask>
                                    <g id="Clip-6"></g>
                                    <path d="M0.136956522,2.24434783 C0.136956522,4.88652174 4.07782609,6.95652174 9.10869565,6.95652174 L9.10869565,6.95652174 C9.55521739,6.95652174 9.99304348,6.93913043 10.4213043,6.90782609 L10.4213043,6.90782609 C10.2834783,6.63826087 10.1643478,6.35782609 10.0626087,6.06956522 L10.0626087,6.06956522 C9.74869565,6.08782609 9.43130435,6.1 9.10869565,6.1 L9.10869565,6.1 C4.70913043,6.1 0.993478261,4.33434783 0.993478261,2.24434783 L0.993478261,2.24434783 C0.993478261,1.81869565 1.15391304,1.40869565 1.43652174,1.02217391 L1.43652174,1.02217391 C1.2073913,0.810869565 1.01565217,0.58826087 0.863478261,0.357391304 L0.863478261,0.357391304 C0.396956522,0.932608696 0.136956522,1.56956522 0.136956522,2.24434783" id="Fill-5" fill="#FFFFFF" mask="url(#mask-6)"></path>
                                </g>
                                <path d="M16.7645217,9.34656522 C17.0793043,9.35569565 17.388,9.38656522 17.6906087,9.43656522 C17.8549565,9.07482609 17.9436522,8.69526087 17.9436522,8.30352174 C17.9436522,7.50873913 17.581913,6.76830435 16.9471304,6.11786957 C16.824087,6.36613043 16.6584348,6.60526087 16.4493043,6.83395652 C16.8584348,7.2896087 17.0871304,7.78613043 17.0871304,8.30352174 C17.0871304,8.66352174 16.9701739,9.01308696 16.7645217,9.34656522" id="Fill-7" fill="#FFFFFF"></path>
                                <g id="编组" transform="translate(0.000000, 6.367696)">
                                    <mask id="mask-8" fill="white">
                                        <use xlink:href="#path-7"></use>
                                    </mask>
                                    <g id="Clip-10"></g>
                                    <path d="M0,1.93565217 C0,4.57782609 3.94043478,6.64782609 8.97130435,6.64782609 L8.97130435,6.64782609 C9.4926087,6.64782609 10.0013043,6.62434783 10.496087,6.58173913 L10.496087,6.58173913 C10.6756522,6.25086957 10.8865217,5.94 11.1156522,5.64478261 L11.1156522,5.64478261 C10.4291304,5.73782609 9.71173913,5.79130435 8.97130435,5.79130435 L8.97130435,5.79130435 C4.5726087,5.79130435 0.856086957,4.02608696 0.856086957,1.93565217 L0.856086957,1.93565217 C0.856086957,1.51043478 1.0173913,1.09956522 1.29913043,0.713478261 L1.29913043,0.713478261 C1.07043478,0.502608696 0.879130435,0.280434783 0.726086957,0.0491304348 L0.726086957,0.0491304348 C0.26,0.624347826 0,1.26086957 0,1.93565217" id="Fill-9" fill="#FFFFFF" mask="url(#mask-8)"></path>
                                </g>
                                <g id="编组" transform="translate(16.521739, 8.976391)">
                                    <mask id="mask-10" fill="white">
                                        <use xlink:href="#path-9"></use>
                                    </mask>
                                    <g id="Clip-12"></g>
                                    <path d="M0.546956522,0.385652174 C0.560434783,0.386521739 0.573913043,0.386521739 0.587826087,0.387826087 L0.587826087,0.387826087 C0.578695652,0.37826087 0.570869565,0.368695652 0.562173913,0.36 L0.562173913,0.36 C0.557826087,0.368695652 0.55173913,0.376521739 0.546956522,0.385652174" id="Fill-11" fill="url(#linearGradient-11)" mask="url(#mask-10)"></path>
                                </g>
                                <g id="编组" transform="translate(0.000000, 9.411174)">
                                    <mask id="mask-13" fill="white">
                                        <use xlink:href="#path-12"></use>
                                    </mask>
                                    <g id="Clip-14"></g>
                                    <path d="M0.136956522,2.11043478 C0.136956522,4.75217391 4.07782609,6.8226087 9.10869565,6.8226087 L9.10869565,6.8226087 C9.29565217,6.8226087 9.48086957,6.81869565 9.66521739,6.81304348 L9.66521739,6.81304348 C9.66565217,6.52043478 9.69043478,6.23347826 9.72608696,5.95086957 L9.72608696,5.95086957 C9.52173913,5.95869565 9.31695652,5.96608696 9.10869565,5.96608696 L9.10869565,5.96608696 C4.70913043,5.96608696 0.993478261,4.20043478 0.993478261,2.11043478 L0.993478261,2.11043478 C0.993478261,1.68478261 1.15391304,1.27478261 1.43652174,0.88826087 L1.43652174,0.88826087 C1.2073913,0.676956522 1.01565217,0.454347826 0.863478261,0.223478261 L0.863478261,0.223478261 C0.396956522,0.798695652 0.136956522,1.43565217 0.136956522,2.11043478" id="Fill-13" fill="#FFFFFF" mask="url(#mask-13)"></path>
                                </g>
                            </g>
                            <path d="M13.8328222,12.6529766 C13.8328222,12.4337319 14.4140628,12.1291165 15.5765442,11.7391304 C15.6275003,11.9707005 15.7111213,12.200546 15.827407,12.4286671 C16.0018357,12.7708487 16.0763106,12.8918765 16.136504,12.9832025 C16.451619,13.0015315 17.3433491,13.0990623 18.187708,13.4661472 C19.25571,13.9304608 19.7377786,14.5986771 19.9152806,14.9661947 C19.6102166,14.9903504 18.9375212,15.0835221 18.3105772,15.2165316 C17.5979682,15.3677153 16.9439053,15.5599547 16.9459236,15.574318 C17.2750972,17.9169264 16.2014636,19.4598541 16.1648235,19.5528779 C16.1443126,19.6049522 14.7119886,19.4931158 13.8735892,19.2000713 C13.107172,18.9321866 12.6086957,18.4489259 12.6086957,18.1166735 C12.6086957,17.2485204 13.7762836,16.9476016 14.4825958,15.8214012 C15.0594672,14.9015915 14.8552518,14.0136153 14.5061905,13.5495091 C14.2194974,13.1683267 13.8328222,12.9073433 13.8328222,12.6529766 Z" id="路径-2" fill="#FFFFFF"></path>
                        </g>
                    </g>
                </g>
            </g>
        </g>
    </g>
</svg>