<?xml version="1.0" encoding="UTF-8"?>
<svg width="22px" height="22px" viewBox="0 0 22 22" version="1.1" xmlns="http://www.w3.org/2000/svg" xmlns:xlink="http://www.w3.org/1999/xlink">
    <title>sqlserver-resource</title>
    <defs>
        <path d="M0.479565217,0.511739131 C0.493043478,0.512608695 0.506521739,0.512608695 0.520434782,0.513913043 L0.520434782,0.513913043 C0.511304347,0.504347827 0.50347826,0.494782608 0.494782608,0.486086957 L0.494782608,0.486086957 C0.490434782,0.494782608 0.484347825,0.502608695 0.479565217,0.511739131" id="path-1"></path>
        <linearGradient x1="45.2988%" y1="49.94418%" x2="54.63933%" y2="49.94418%" id="linearGradient-3">
            <stop stop-color="#1452CC" offset="0%"></stop>
            <stop stop-color="#28C6CC" offset="100%"></stop>
        </linearGradient>
    </defs>
    <g id="页面-1" stroke="none" stroke-width="1" fill="none" fill-rule="evenodd">
        <g id="Apple-TV" transform="translate(-182.000000, -752.000000)">
            <g id="sqlserver-resource" transform="translate(182.000000, 752.000000)">
                <rect id="矩形" x="0" y="0" width="22" height="22"></rect>
                <g transform="translate(1.000000, 1.000000)">
                    <rect id="矩形" x="0" y="0" width="20" height="20"></rect>
                    <g id="SQLServer小产品图标" transform="translate(0.000000, 0.434652)">
                        <g id="icon/数据库变更">
                            <g id="编组" transform="translate(0.180000, 0.000000)" fill="#FFFFFF" fill-rule="nonzero">
                                <g id="Fill-3-Clipped">
                                    <path d="M8.81608696,-1.94289029e-16 C3.8726087,-1.94289029e-16 2.77555756e-16,2.03695653 2.77555756e-16,4.63739131 L2.77555756e-16,4.63739131 C2.77555756e-16,7.23826087 3.8726087,9.27521739 8.81608696,9.27521739 L8.81608696,9.27521739 C13.76,9.27521739 17.6326087,7.23826087 17.6326087,4.63739131 L17.6326087,4.63739131 C17.6326087,2.03695653 13.76,-1.94289029e-16 8.81608696,-1.94289029e-16 Z M0.86956522,4.63739131 C0.86956522,2.59521739 4.50869565,0.869565217 8.81608696,0.869565217 L8.81608696,0.869565217 C13.1234783,0.869565217 16.7626087,2.59521739 16.7626087,4.63739131 L16.7626087,4.63739131 C16.7626087,6.68 13.1234783,8.40521739 8.81608696,8.40521739 L8.81608696,8.40521739 C4.50869565,8.40521739 0.86956522,6.68 0.86956522,4.63739131 L0.86956522,4.63739131 Z" id="Fill-3"></path>
                                </g>
                            </g>
                            <g id="编组" transform="translate(0.136957, 12.377391)" fill="#FFFFFF" fill-rule="nonzero">
                                <g id="Fill-5-Clipped">
                                    <path d="M-1.94289029e-16,1.88695653 C-1.94289029e-16,4.52913044 3.94086957,6.59913044 8.97173913,6.59913044 L8.97173913,6.59913044 C9.41826087,6.59913044 9.85608696,6.58173913 10.2843478,6.55043479 L10.2843478,6.55043479 C10.1465218,6.28086957 10.0273913,6.00043479 9.92565218,5.71217392 L9.92565218,5.71217392 C9.61173913,5.73043479 9.29434783,5.7426087 8.97173913,5.7426087 L8.97173913,5.7426087 C4.57217391,5.7426087 0.856521739,3.97695653 0.856521739,1.88695653 L0.856521739,1.88695653 C0.856521739,1.46130435 1.01695652,1.05130435 1.29956522,0.664782606 L1.29956522,0.664782606 C1.07043478,0.453478261 0.878695648,0.230869566 0.726521739,-5.55111512e-17 L0.726521739,-5.55111512e-17 C0.26,0.575217392 -1.94289029e-16,1.21217392 -1.94289029e-16,1.88695653" id="Fill-5"></path>
                                </g>
                            </g>
                            <path d="M16.7645217,8.91191318 C17.0793043,8.92104361 17.388,8.95191318 17.6906087,9.00191318 C17.8549565,8.64017405 17.9436522,8.26060883 17.9436522,7.8688697 C17.9436522,7.07408709 17.581913,6.33365231 16.9471304,5.68321753 C16.824087,5.93147839 16.6584348,6.17060883 16.4493043,6.39930448 C16.8584348,6.85495666 17.0871304,7.35147839 17.0871304,7.8688697 C17.0871304,8.2288697 16.9701739,8.57843492 16.7645217,8.91191318" id="Fill-7" fill="#FFFFFF" fill-rule="nonzero"></path>
                            <g id="编组" transform="translate(0.000000, 5.982174)" fill="#FFFFFF" fill-rule="nonzero">
                                <g id="Fill-9-Clipped">
                                    <path d="M0,1.88652174 C0,4.52869566 3.94043478,6.59869566 8.97130435,6.59869566 L8.97130435,6.59869566 C9.4926087,6.59869566 10.0013043,6.5752174 10.496087,6.5326087 L10.496087,6.5326087 C10.6756522,6.20173914 10.8865217,5.89086957 11.1156522,5.59565218 L11.1156522,5.59565218 C10.4291304,5.68869566 9.71173913,5.74217392 8.97130435,5.74217392 L8.97130435,5.74217392 C4.5726087,5.74217392 0.856086957,3.97695653 0.856086957,1.88652174 L0.856086957,1.88652174 C0.856086957,1.46130435 1.0173913,1.05043479 1.29913043,0.664347826 L1.29913043,0.664347826 C1.07043478,0.453478261 0.879130435,0.231304348 0.726086957,9.71445147e-17 L0.726086957,9.71445147e-17 C0.26,0.575217391 0,1.21173914 0,1.88652174" id="Fill-9"></path>
                                </g>
                            </g>
                            <g id="Fill-11-Clipped" transform="translate(16.589130, 8.415652)">
                                <mask id="mask-2" fill="white">
                                    <use xlink:href="#path-1"></use>
                                </mask>
                                <g id="path-10"></g>
                                <path d="M0.479565217,0.511739131 C0.493043478,0.512608695 0.506521739,0.512608695 0.520434782,0.513913043 L0.520434782,0.513913043 C0.511304347,0.504347827 0.50347826,0.494782608 0.494782608,0.486086957 L0.494782608,0.486086957 C0.490434782,0.494782608 0.484347825,0.502608695 0.479565217,0.511739131" id="Fill-11" fill="url(#linearGradient-3)" fill-rule="nonzero" mask="url(#mask-2)"></path>
                            </g>
                            <g id="编组" transform="translate(0.136957, 9.200000)" fill="#FFFFFF" fill-rule="nonzero">
                                <g id="Fill-13-Clipped">
                                    <path d="M-1.94289029e-16,1.88695652 C-1.94289029e-16,4.52869565 3.94086957,6.59913044 8.97173913,6.59913044 L8.97173913,6.59913044 C9.15869565,6.59913044 9.34391305,6.59521739 9.52826087,6.58956522 L9.52826087,6.58956522 C9.52869565,6.29695652 9.55347826,6.01 9.58913044,5.72739131 L9.58913044,5.72739131 C9.38478261,5.73521739 9.18,5.7426087 8.97173913,5.7426087 L8.97173913,5.7426087 C4.57217391,5.7426087 0.856521739,3.97695652 0.856521739,1.88695652 L0.856521739,1.88695652 C0.856521739,1.46130435 1.01695652,1.05130435 1.29956522,0.664782609 L1.29956522,0.664782609 C1.07043478,0.453478261 0.878695648,0.230869565 0.726521739,1.11022302e-16 L0.726521739,1.11022302e-16 C0.26,0.575217391 -1.94289029e-16,1.21217391 -1.94289029e-16,1.88695652" id="Fill-13"></path>
                                </g>
                            </g>
                        </g>
                        <path d="M13.8328222,12.2183246 C13.8328222,11.9990799 14.4140628,11.6944645 15.5765442,11.3044784 C15.6275003,11.5360485 15.7111213,11.765894 15.827407,11.9940151 C16.0018357,12.3361967 16.0763106,12.4572245 16.136504,12.5485505 C16.451619,12.5668795 17.3433491,12.6644103 18.187708,13.0314952 C19.25571,13.4958088 19.7377786,14.1640251 19.9152806,14.5315427 C19.6102166,14.5556984 18.9375212,14.6488701 18.3105772,14.7818796 C17.5979682,14.9330633 16.9439053,15.1253027 16.9459236,15.139666 C17.2750972,17.4822744 16.2014636,19.0252021 16.1648235,19.1182259 C16.1443126,19.1703002 14.7119886,19.0584638 13.8735892,18.7654193 C13.107172,18.4975346 12.6086957,18.0142739 12.6086957,17.6820215 C12.6086957,16.8138684 13.7762836,16.5129496 14.4825958,15.3867492 C15.0594672,14.4669395 14.8552518,13.5789633 14.5061905,13.1148571 C14.2194974,12.7336747 13.8328222,12.4726913 13.8328222,12.2183246 Z" id="路径-2" fill="#FFFFFF" fill-rule="nonzero"></path>
                    </g>
                </g>
            </g>
        </g>
    </g>
</svg>