<?xml version="1.0" encoding="UTF-8"?>
<svg width="22px" height="22px" viewBox="0 0 22 22" version="1.1" xmlns="http://www.w3.org/2000/svg" xmlns:xlink="http://www.w3.org/1999/xlink">
    <title>tool</title>
    <g id="页面-1" stroke="none" stroke-width="1" fill="none" fill-rule="evenodd">
        <g id="Apple-TV" transform="translate(-308.000000, -752.000000)">
            <g id="tool" transform="translate(308.000000, 752.000000)">
                <rect id="矩形" x="0" y="0" width="22" height="22"></rect>
                <g id="工具库" transform="translate(1.000000, 0.999780)" fill="#FFFFFF" fill-rule="nonzero">
                    <path d="M17.7920547,17.6297045 C17.5474524,17.8873925 17.1961512,17.8934321 16.9404764,17.6448034 C16.7371444,17.4434847 16.7300983,17.0378274 16.926384,16.7811459 C17.1699797,16.5234579 17.521281,16.5174184 17.7769558,16.766047 C18.0326306,17.0146757 18.0386702,17.3720165 17.7920547,17.6297045 M16.507641,16.3613963 C16.2449201,16.6241173 15.8191309,16.6241173 15.5564099,16.3613963 L11.3418017,12.1467882 C11.0790808,11.8840672 11.0790808,11.458278 11.3418017,11.195557 C11.6045227,10.9338427 12.0293053,10.9338427 12.2920263,11.195557 L16.507641,15.4111718 C16.7693554,15.6738928 16.7693554,16.0986754 16.507641,16.3613963 M19.3210707,15.9849303 L11.5139293,8.33783729 C12.3393362,6.12635075 11.9226063,3.49813438 10.0956386,1.70941722 C8.52132595,0.168322142 6.28568116,-0.358126407 4.31477053,0.241803488 C3.32931522,0.511570622 9.64569121,4.35474569 7.03458693,7.09771375 C4.48387828,9.84068181 0.413213024,3.57463551 0.184716236,4.58223588 C-0.337705938,6.59944982 0.259204175,8.84818034 1.83351685,10.3892754 C3.66048457,12.1779926 6.26655588,12.5715707 8.41462701,11.5931616 L16.2217684,19.2402546 C17.1045511,20.1018988 18.5258616,20.076734 19.3774399,19.1838853 C20.2290182,18.2920432 20.2038534,16.8465745 19.3210707,15.9849303" id="tool"></path>
                </g>
            </g>
        </g>
    </g>
</svg>