<?xml version="1.0" encoding="UTF-8"?>
<svg width="20px" height="20px" viewBox="0 0 20 20" version="1.1" xmlns="http://www.w3.org/2000/svg" xmlns:xlink="http://www.w3.org/1999/xlink">
    <!-- Generator: Sketch 58 (84663) - https://sketch.com -->
    <title>工具库</title>
    <desc>Created with Sketch.</desc>
    <defs>
        <polygon id="path-1" points="9.3764861e-05 9.99999993e-05 19.869 9.99999993e-05 19.869 19.7400779 9.3764861e-05 19.7400779"></polygon>
    </defs>
    <g id="页面-1" stroke="none" stroke-width="1" fill="none" fill-rule="evenodd">
        <g id="画板备份-16">
            <g id="工具库">
                <mask id="mask-2" fill="white">
                    <use xlink:href="#path-1"></use>
                </mask>
                <g id="Clip-2"></g>
                <path d="M17.6756,17.5141 C17.4326,17.7701 17.0836,17.7761 16.8296,17.5291 C16.6276,17.3291 16.6206,16.9261 16.8156,16.6711 C17.0576,16.4151 17.4066,16.4091 17.6606,16.6561 C17.9146,16.9031 17.9206,17.2581 17.6756,17.5141 M16.3996,16.2541 C16.1386,16.5151 15.7156,16.5151 15.4546,16.2541 L11.2676,12.0671 C11.0066,11.8061 11.0066,11.3831 11.2676,11.1221 C11.5286,10.8621 11.9506,10.8621 12.2116,11.1221 L16.3996,15.3101 C16.6596,15.5711 16.6596,15.9931 16.3996,16.2541 M19.1946,15.8801 L11.4386,8.2831 C12.2586,6.0861 11.8446,3.4751 10.0296,1.6981 C8.4656,0.1671 6.2446,-0.3559 4.2866,0.2401 C3.3076,0.5081 9.5826,4.3261 6.9886,7.0511 C4.4546,9.7761 0.4106,3.5511 0.1836,4.5521 C-0.3354,6.5561 0.2576,8.7901 1.8216,10.3211 C3.6366,12.0981 6.2256,12.4891 8.3596,11.5171 L16.1156,19.1141 C16.9926,19.9701 18.4046,19.9451 19.2506,19.0581 C20.0966,18.1721 20.0716,16.7361 19.1946,15.8801" id="Fill-1" fill="#FFFFFF" mask="url(#mask-2)"></path>
            </g>
        </g>
    </g>
</svg>