<?xml version="1.0" encoding="UTF-8"?>
<svg width="22px" height="22px" viewBox="0 0 22 22" version="1.1" xmlns="http://www.w3.org/2000/svg" xmlns:xlink="http://www.w3.org/1999/xlink">
    <title>topology</title>
    <g id="页面-1" stroke="none" stroke-width="1" fill="none" fill-rule="evenodd">
        <g id="Apple-TV" transform="translate(-434.000000, -752.000000)">
            <g id="topology" transform="translate(434.000000, 752.000000)">
                <rect id="矩形" x="0" y="0" width="22" height="22"></rect>
                <g transform="translate(1.000000, 1.500000)" fill="#FFFFFF" fill-rule="nonzero">
                    <path d="M18.6067303,12.496233 L16.7252637,12.496233 L16.7252637,11.2787544 C16.7252637,10.2571572 15.924661,9.42039176 14.940231,9.42039176 L10.492215,9.42039176 L10.492215,6.49924661 L11.9849322,6.49924661 C12.7543948,6.49924661 13.3782019,5.87543948 13.3782019,5.1059769 L13.3782019,1.39226519 C13.3782019,0.622802612 12.7543948,0 11.9849322,0 L8.27122049,0 C7.50175791,0 6.87795078,0.622802612 6.87795078,1.39226519 L6.87795078,5.1059769 C6.87795078,5.87543948 7.50175791,6.49924661 8.27122049,6.49924661 L9.76896032,6.49924661 L9.76896032,9.42039176 L4.74836765,9.42039176 C3.76494224,9.42039176 2.96433953,10.2571572 2.96433953,11.2787544 L2.96433953,12.496233 L1.39226519,12.496233 C0.623807132,12.496233 0,13.1200402 0,13.8895028 L0,17.6032145 C0,18.372677 0.623807132,18.9964842 1.39226519,18.9964842 L5.10698142,18.9964842 C5.87543948,18.9964842 6.49924661,18.372677 6.49924661,17.6032145 L6.49924661,13.8895028 C6.49924661,13.1200402 5.87543948,12.496233 5.10698142,12.496233 L3.84731291,12.496233 L3.84731291,11.2787544 C3.84731291,10.7443496 4.25113009,10.3033651 4.74836765,10.3033651 L14.940231,10.3033651 C15.4374686,10.3033651 15.8412858,10.7443496 15.8412858,11.2787544 L15.8412858,12.496233 L14.8930186,12.496233 C14.123556,12.496233 13.4997489,13.1200402 13.4997489,13.8895028 L13.4997489,17.6032145 C13.4997489,18.372677 14.123556,18.9964842 14.8930186,18.9964842 L18.6067303,18.9964842 C19.3761929,18.9964842 20,18.372677 20,17.6032145 L20,13.8895028 C20,13.1200402 19.3761929,12.496233 18.6067303,12.496233"></path>
                </g>
            </g>
        </g>
    </g>
</svg>