<?xml version="1.0" encoding="UTF-8"?>
<svg width="20px" height="20px" viewBox="0 0 20 20" version="1.1" xmlns="http://www.w3.org/2000/svg" xmlns:xlink="http://www.w3.org/1999/xlink">
    <!-- Generator: Sketch 58 (84663) - https://sketch.com -->
    <title>架构拓扑</title>
    <desc>Created with Sketch.</desc>
    <defs>
        <polygon id="path-1" points="0.0004 0.0007 19.91 0.0007 19.91 18.9116 0.0004 18.9116"></polygon>
    </defs>
    <g id="页面-1" stroke="none" stroke-width="1" fill="none" fill-rule="evenodd">
        <g id="画板备份-14">
            <g id="架构拓扑" transform="translate(0.000000, 0.500000)">
                <mask id="mask-2" fill="white">
                    <use xlink:href="#path-1"></use>
                </mask>
                <g id="Clip-2"></g>
                <path d="M18.5234,12.4407 L16.6504,12.4407 L16.6504,11.2287 C16.6504,10.2117 15.8534,9.3787 14.8734,9.3787 L10.4454,9.3787 L10.4454,6.4707 L11.9314,6.4707 C12.6974,6.4707 13.3184,5.8497 13.3184,5.0837 L13.3184,1.3867 C13.3184,0.6207 12.6974,0.0007 11.9314,0.0007 L8.2344,0.0007 C7.4684,0.0007 6.8474,0.6207 6.8474,1.3867 L6.8474,5.0837 C6.8474,5.8497 7.4684,6.4707 8.2344,6.4707 L9.7254,6.4707 L9.7254,9.3787 L4.7274,9.3787 C3.7484,9.3787 2.9514,10.2117 2.9514,11.2287 L2.9514,12.4407 L1.3864,12.4407 C0.6214,12.4407 0.0004,13.0617 0.0004,13.8277 L0.0004,17.5247 C0.0004,18.2907 0.6214,18.9117 1.3864,18.9117 L5.0844,18.9117 C5.8494,18.9117 6.4704,18.2907 6.4704,17.5247 L6.4704,13.8277 C6.4704,13.0617 5.8494,12.4407 5.0844,12.4407 L3.8304,12.4407 L3.8304,11.2287 C3.8304,10.6967 4.2324,10.2577 4.7274,10.2577 L14.8734,10.2577 C15.3684,10.2577 15.7704,10.6967 15.7704,11.2287 L15.7704,12.4407 L14.8264,12.4407 C14.0604,12.4407 13.4394,13.0617 13.4394,13.8277 L13.4394,17.5247 C13.4394,18.2907 14.0604,18.9117 14.8264,18.9117 L18.5234,18.9117 C19.2894,18.9117 19.9104,18.2907 19.9104,17.5247 L19.9104,13.8277 C19.9104,13.0617 19.2894,12.4407 18.5234,12.4407" id="Fill-1" fill="#FFFFFF" mask="url(#mask-2)"></path>
            </g>
        </g>
    </g>
</svg>