<?xml version="1.0" encoding="UTF-8"?>
<svg width="22px" height="22px" viewBox="0 0 22 22" version="1.1" xmlns="http://www.w3.org/2000/svg" xmlns:xlink="http://www.w3.org/1999/xlink">
    <title>Visual Builder小产品</title>
    <g id="页面-1" stroke="none" stroke-width="1" fill="none" fill-rule="evenodd">
        <g id="Apple-TV" transform="translate(-508.000000, -220.000000)">
            <g id="Visual-Builder小产品" transform="translate(508.000000, 220.000000)">
                <g id="编组备份-5">
                    <rect id="矩形" x="0" y="0" width="22" height="22"></rect>
                    <g id="组件-(1)" transform="translate(7.519796, 6.323755)"></g>
                </g>
                <path d="M18.9282032,6.5 L18.9282032,15.5 L11.1339746,20 L7.23686028,17.75 M3.33974596,15.5 L3.33974596,6.5 L11.1339746,2 L15.0310889,4.25" id="形状备份-3" stroke="#FFFFFF" stroke-width="1.5"></path>
                <g id="next-builder备份-4" transform="translate(6.817156, 6.500000)">
                    <rect id="矩形" opacity="0" x="0" y="0" width="9" height="9"></rect>
                    <g id="编组-5" transform="translate(0.409091, 0.613636)" fill="#FFFFFF" fill-rule="nonzero">
                        <path d="M8.08913029,2.07987571 C8.15754727,2.01145875 8.15754727,1.9019916 8.08913029,1.83015379 L6.2795016,0.0205250862 C6.25213481,-0.00684169539 6.20424295,-0.00684169539 6.17687615,0.0205250862 L5.65006553,0.547335712 C5.62269874,0.574702495 5.62269874,0.615752673 5.64322381,0.643119455 C5.82110795,0.868895444 5.78005777,1.19387602 5.55428176,1.37176013 C5.36613513,1.5188566 5.1027298,1.5188566 4.91458316,1.37176013 C4.88721637,1.34781419 4.84274536,1.35123504 4.81879939,1.37860183 L4.29198877,1.90541246 C4.26462202,1.93277924 4.26462202,1.98067112 4.29198877,2.0080379 L4.81879939,2.53484852 C4.84616618,2.56221531 4.84616618,2.60326549 4.82564111,2.63063228 C4.64775701,2.85640826 4.6888072,3.18138884 4.91458316,3.35927294 C5.10272984,3.50636942 5.36613513,3.50636942 5.55428176,3.35927294 C5.58164855,3.335327 5.6261196,3.33874785 5.65006553,3.36611464 L6.17687615,3.89292527 C6.20424295,3.92029205 6.25213481,3.92029205 6.2795016,3.89292527 L6.80631222,3.36611464 C6.83367901,3.33874786 6.8747292,3.33874786 6.90209599,3.35927294 C7.12787195,3.53715705 7.45285255,3.49610686 7.63073665,3.27033089 C7.77783314,3.08218423 7.77783314,2.81877892 7.63073665,2.63063228 C7.60679071,2.6032655 7.61021157,2.55879446 7.63757832,2.53484852 L8.08913029,2.07987571 Z" id="路径"></path>
                        <path d="M6.72252905,4.57205605 L5.96310075,4.57205605 C5.9323131,4.57205605 5.90494631,4.59600198 5.89810463,4.63021045 C5.86731698,4.91414085 5.61075337,5.11939174 5.32682296,5.08860409 C5.08394275,5.06123734 4.89579611,4.8696698 4.86842932,4.63021045 C4.86500846,4.59942284 4.83764167,4.57205605 4.8034332,4.57205605 L3.97900878,4.57205605 L3.97900878,5.45805573 C3.69165753,5.45805573 3.45903984,5.69067341 3.45903984,5.97802463 C3.45903984,6.2653759 3.69165752,6.49799358 3.97900878,6.49799358 L3.97900878,7.38399326 L4.86500846,7.38399326 C4.86500846,7.67134452 5.09762614,7.9039622 5.3849774,7.9039622 C5.67232863,7.9039622 5.90494631,7.67134452 5.90494631,7.38399326 L6.61306189,7.38399326 C6.70884566,7.38399326 6.78752517,7.30531375 6.78752517,7.20953002 L6.78752517,4.64047298 C6.78752517,4.5994228 6.75673752,4.57205605 6.72252905,4.57205605 L6.72252905,4.57205605 Z" id="路径"></path>
                        <path d="M3.32848532,5.46526076 L3.32848532,4.57926108 L2.44248563,4.57926108 C2.44248563,4.29190981 2.20986796,4.05929215 1.9225167,4.05929215 C1.63516544,4.05929215 1.40254777,4.29190981 1.40254777,4.57926108 L0.519968933,4.57926108 L0.519968933,5.46526076 C0.232617686,5.46526076 0,5.69787844 0,5.9852297 C0,6.27258093 0.232617677,6.50519861 0.519968933,6.50519861 L0.519968933,7.21331419 C0.519968933,7.30909796 0.598648447,7.38777747 0.69443219,7.38777747 L3.32848532,7.38777747 L3.32848532,6.50177779 C3.04113407,6.50177779 2.8085164,6.26916011 2.80851639,5.98180885 C2.80851639,5.69445758 3.04113406,5.4618399 3.32848532,5.46526076 Z" id="路径"></path>
                        <path d="M3.38321889,2.00964177 C3.35243126,2.00622092 3.32506447,1.97885414 3.32506447,1.9480665 L3.32506447,1.18521735 C3.32506447,1.15100887 3.29769769,1.12022123 3.26006835,1.12022123 L0.69443219,1.12022123 C0.598648439,1.12022123 0.519968933,1.19890075 0.519968933,1.29468449 L0.519968933,1.9480665 C0.519968933,1.97885413 0.540494026,2.00280007 0.571281656,2.00622092 C0.855212056,2.0335877 1.0638838,2.29015132 1.03651701,2.57408173 C1.01257107,2.8203828 0.817582725,3.01537115 0.571281656,3.03931708 C0.540494026,3.04273793 0.519968933,3.06668387 0.519968933,3.0974715 L0.519968933,3.92873762 L1.40596862,3.92873762 C1.40596862,3.64138637 1.6385863,3.4087687 1.92593755,3.4087687 C2.2132888,3.4087687 2.44590648,3.64138637 2.44590648,3.92873762 L3.33190616,3.92873762 L3.33190616,3.10431319 C3.33190616,3.07352556 3.3558521,3.04615877 3.39006058,3.04273793 C3.67399098,3.0119503 3.87924188,2.75538668 3.84845425,2.47145627 C3.81766662,2.22515521 3.62609911,2.0335877 3.38321889,2.00964177 L3.38321889,2.00964177 Z" id="路径"></path>
                    </g>
                </g>
            </g>
        </g>
    </g>
</svg>