<?xml version="1.0" encoding="UTF-8"?>
<svg width="22px" height="20px" viewBox="0 0 22 20" version="1.1" xmlns="http://www.w3.org/2000/svg" xmlns:xlink="http://www.w3.org/1999/xlink">
    <!-- Generator: Sketch 63.1 (92452) - https://sketch.com -->
    <title>91920A4E-7A1B-4722-A8A9-9C468B9CEBA7</title>
    <desc>Created with Sketch.</desc>
    <g id="迭代一" stroke="none" stroke-width="1" fill="none" fill-rule="evenodd" stroke-linecap="round" stroke-linejoin="round">
        <g id="Easyops5.0/工作空间列表" transform="translate(-19.000000, -81.000000)" stroke="#FFFFFF">
            <g id="工作空间" transform="translate(20.000000, 81.000000)">
                <path d="M19.8027,14.9183 L1.1977,14.9183 C0.8137,14.9183 0.4997,14.6053 0.4997,14.2213 L0.4997,1.1973 C0.4997,0.8143 0.8137,0.5003 1.1977,0.5003 L19.8027,0.5003 C20.1867,0.5003 20.4997,0.8143 20.4997,1.1973 L20.4997,14.2213 C20.4997,14.6053 20.1867,14.9183 19.8027,14.9183 Z" id="Stroke-1"></path>
                <line x1="0.5586" y1="12.1859" x2="20.4416" y2="12.1859" id="Stroke-3"></line>
                <line x1="5.791" y1="19.3949" x2="15.209" y2="19.3949" id="Stroke-5"></line>
                <line x1="9.5117" y1="14.9769" x2="9.5117" y2="19.3949" id="Stroke-7"></line>
                <line x1="11.7207" y1="14.9183" x2="11.7207" y2="19.3373" id="Stroke-9"></line>
                <line x1="7.3311" y1="4.7445" x2="16.8041" y2="4.7445" id="Stroke-11"></line>
                <line x1="5.1807" y1="4.7445" x2="4.1337" y2="4.7445" id="Stroke-13"></line>
                <line x1="7.3936" y1="8.6976" x2="16.8666" y2="8.6976" id="Stroke-15"></line>
                <line x1="5.2383" y1="8.6976" x2="4.1913" y2="8.6976" id="Stroke-17"></line>
            </g>
        </g>
    </g>
</svg>