<?xml version="1.0" encoding="UTF-8"?>
<svg width="20px" height="11px" viewBox="0 0 20 11" version="1.1" xmlns="http://www.w3.org/2000/svg" xmlns:xlink="http://www.w3.org/1999/xlink">
    <!-- Generator: Sketch 59.1 (86144) - https://sketch.com -->
    <title>Zookeeper小产品图标</title>
    <desc>Created with Sketch.</desc>
    <g id="页面-1" stroke="none" stroke-width="1" fill="none" fill-rule="evenodd">
        <g id="Apple-TV" transform="translate(-1248.000000, -587.000000)">
            <g id="Zookeeper小产品图标" transform="translate(1248.000000, 582.000000)">
                <rect id="矩形" x="0" y="0" width="20" height="20"></rect>
                <path d="M10.8590426,12.0276975 C13.1994681,12.6234422 15.0718085,13.4319528 16.3909574,14.4532294 C17.5398936,15.3468465 17.7526596,15.8149316 17.0292553,15.8149316 C16.3058511,15.8149316 15.5824468,15.474506 13.7526596,14.7085486 C11.9228723,13.9425911 10.2918109,13.474506 7.99393856,13.1340805 C5.69606622,12.793655 4.39095745,12.5383358 4.17819149,12.5383358 C6.26329787,11.6447188 8.6462766,11.474506 10.8590426,12.0276975 Z M9.458,9.734 L9.28457447,9.72982518 C9.71010638,9.72982518 10.1356383,9.77237837 10.5611702,9.81493156 C10.518617,10.0276975 10.518617,10.2404635 10.5611702,10.4532294 C10.6037234,10.6234422 10.676474,10.8651283 10.837031,11.037376 C10.9975881,11.2096238 11.2018326,11.3846063 11.5634595,11.506454 C11.9250864,11.6283017 12.2706228,11.6519183 12.5611702,11.6021656 C12.8517176,11.5524129 13.1673686,11.3893996 13.2950282,11.1766337 C13.3971559,11.0404635 13.4653591,10.8498252 13.4885553,10.6700805 L13.4973404,10.5383358 L13.8803191,10.7085486 C13.7952128,11.0064209 13.8303556,11.3745297 13.9580152,11.672402 C14.0856747,11.9702744 14.2340314,12.1615581 14.4760638,12.3719451 C14.7180962,12.5823321 15.0292553,12.7085486 15.3696809,12.7085486 C15.5824468,12.7085486 15.7526596,12.6659954 15.9228723,12.5383358 C16.0505319,12.4106762 16.1781915,12.2830167 16.2207447,12.1128039 C16.6009702,12.398647 16.9149182,12.6495108 17.231545,12.9473832 C17.4426296,13.1459647 17.5596004,13.2933036 17.5824574,13.3893996 C17.5398936,13.5596124 17.4405873,13.6838751 17.355481,13.8115346 C17.2703746,13.9250098 17.1915793,14.0210822 17.1106802,14.1103472 L16.9867021,14.2404635 L16.7739362,14.0702507 C15.625,13.2191869 14.3484043,12.580889 12.9867021,12.1128039 C11.8300712,11.7064201 10.6275117,11.414858 9.39589343,11.2887275 L10.3690479,10.3314965 L8.96614406,10.1505787 L9.458,9.734 Z M9.83776596,5.00642092 L9.83776596,5.00642092 C11.5398936,5.00642092 13.2420213,5.30429326 14.8164894,5.94259113 C16.3058511,6.53833581 17.625,7.43195284 18.7739362,8.53833581 C19.7101064,9.55961241 20.0505319,10.580889 19.8803191,11.5596124 C19.7526596,12.0276975 19.4973404,12.4957826 19.1143617,12.8787613 C18.7739362,13.2191869 18.4335106,13.5170592 18.0079787,13.7298252 C18.0505319,13.687272 18.0724836,13.6345599 18.0930851,13.5596124 C18.1136866,13.4846649 18.1457037,13.3646293 18.1136866,13.2191869 C18.0816696,13.0737444 18.0430488,13.0164629 17.7116092,12.6486592 C17.4464575,12.3544162 17.114374,12.0518444 16.7742743,11.7900748 L16.518617,11.6021656 L16.3484043,11.474506 C16.3058511,11.2191869 16.2386087,10.9873598 16.156963,10.793655 C16.0753174,10.5999502 15.9688721,10.4532294 15.7927106,10.2744969 C15.6165492,10.0957644 15.3187744,9.93381248 15.0919466,9.90003794 C14.8651187,9.8662634 14.6748901,9.87467405 14.5022949,9.93381248 C14.3296997,9.99295091 14.2632979,10.0702507 14.1781915,10.1553571 C14.0929625,10.1212655 14.0077335,10.0871739 13.9197693,10.0530823 C13.7881394,10.0020675 13.6503848,9.95105272 13.4973404,9.90003794 C13.4547872,9.81493156 13.3652394,9.64400431 13.2950282,9.53985496 C13.224817,9.43570561 12.9457657,9.0915273 12.5611702,8.96386773 C12.1765747,8.83620815 11.8187787,8.83620815 11.5634595,8.92131454 C11.3081404,9.00642092 11.1143617,9.13408049 10.9015957,9.30429326 C10.6462766,9.24046347 10.3909574,9.20056986 10.1356383,9.18461241 L10.111,9.183 L11.1955163,8.26802736 L7.5785154,7.89522752 L6.37090271,9.03332205 L8.13440082,9.17761248 L8.1258712,9.18486506 C6.3443926,9.25947246 4.57935676,9.71534252 2.94414894,10.4957826 C2.625,10.6553571 2.32978723,10.8149316 2.04055851,10.9924582 L1.75265957,11.1766337 L1.41223404,11.3893996 L1.58244681,11.9425911 C1.1143617,11.687272 0.688829787,11.3468465 0.390957447,10.9213145 C0.0930851064,10.4957826 -0.0345744681,9.98514432 0.0079787234,9.47450603 C0.220744681,8.45322943 0.986702128,7.6021656 2.30585106,6.87876135 C3.45478723,6.24046347 4.6462766,5.77237837 5.88031915,5.43195284 C6.83776596,5.20854858 7.84308511,5.05695284 8.84242021,5.01306986 L9.34133976,5.00027065 Z M7.39834617,9.79811118 L5.82123139,11.1309247 L7.00231927,11.2774872 C6.10708217,11.3769538 5.21688362,11.6036958 4.39114927,11.9577133 L4.05053191,12.1128039 L3.15691489,12.5383358 L3.28457447,13.0064209 C3.07180851,13.0489741 2.85904255,13.1340805 2.6462766,13.2191869 C2.51861702,13.2617401 2.47606383,13.2617401 2.47606383,13.2617401 C2.44202128,13.0234422 2.40797872,12.7579103 2.3303617,12.5087188 L2.26329787,12.3255699 L2.05053191,11.6021656 C2.85904255,11.0915273 3.75265957,10.6659954 4.68882979,10.368123 C5.56879168,10.0852782 6.47196381,9.8952742 7.39834617,9.79811118 Z M15.0183971,10.4798252 C15.4884267,10.4798252 15.8354888,10.9592956 15.8354888,11.4293251 C15.8354888,11.8993547 15.6142682,12.1996345 15.2167357,12.1996345 C14.8192032,12.1996345 14.3484043,11.7743228 14.3484043,11.3042933 C14.3484043,10.8342637 14.5483676,10.4798252 15.0183971,10.4798252 Z M12.0194661,9.45218406 C12.4894957,9.45218406 12.9032939,9.82975566 12.9032939,10.3593454 C12.9032939,10.8889351 12.5573054,11.2606167 11.9989438,11.1766337 C11.4405822,11.0926507 11.1356383,10.7738147 11.1356383,10.2518199 C11.1356383,9.72982518 11.5494365,9.45218406 12.0194661,9.45218406 Z" id="形状结合" fill="#FFFFFF"></path>
                <polygon id="路径备份-5" fill="#FFFFFF" fill-rule="nonzero" points="7.2851159 8.72883703 9.08404072 8.89924327 6.81737029 10.8132903 8.96614406 11.037376 9.42244848 10.6248344 7.97000516 10.4682131 10.2458764 8.54639657 7.78776544 8.26802736"></polygon>
            </g>
        </g>
    </g>
</svg>