<?xml version="1.0" encoding="UTF-8"?>
<svg width="16px" height="16px" viewBox="0 0 16 16" version="1.1" xmlns="http://www.w3.org/2000/svg" xmlns:xlink="http://www.w3.org/1999/xlink">
    <title>编组 7</title>
    <g id="HyperInsight-lydia" stroke="none" stroke-width="1" fill="none" fill-rule="evenodd">
        <g id="编组-7">
            <rect id="矩形" x="0" y="0" width="16" height="16"></rect>
            <g id="架构拓扑备份" transform="translate(1.000000, 1.400000)">
                <polygon id="Fill-1" fill="#8C8C8C" fill-rule="nonzero" points="6.5 8.92647059 7.5 8.92647059 7.5 3.67647059 6.5 3.67647059"></polygon>
                <g id="Fill-3-Clipped" transform="translate(2.000000, 6.600000)" stroke="#8C8C8C">
                    <path d="M0,3 L0,1 C-6.76353751e-17,0.44771525 0.44771525,-1.20591542e-16 1,0 L9,0 C9.55228475,-1.01453063e-16 10,0.44771525 10,1 L10,3 L10,3" id="路径-2"></path>
                </g>
                <path d="M8.28578135,0 L8.39825336,0.00576825604 C8.87788367,0.0552950527 9.25,0.41768329 9.25,0.857301808 L9.25,3.14242003 L9.24351482,3.24239631 C9.18783185,3.66877324 8.78038658,4 8.28578135,4 L5.71484456,4 L5.60230561,3.99422769 C5.12238618,3.94466663 4.75,3.58203855 4.75,3.14242003 L4.75,0.857301808 L4.75648985,0.757329584 C4.81221286,0.330986915 5.21994873,0 5.71484456,0 L8.28578135,0 Z M7,1.30374777 C6.58578644,1.30374777 6.25,1.63953421 6.25,2.05374777 C6.25,2.46796133 6.58578644,2.80374777 7,2.80374777 C7.41421356,2.80374777 7.75,2.46796133 7.75,2.05374777 C7.75,1.63953421 7.41421356,1.30374777 7,1.30374777 Z" id="形状结合" fill="#8C8C8C"></path>
                <path d="M0.857639613,8.92647059 C0.383893178,8.92647059 0,9.26768524 0,9.68851664 L0,9.68851664 L0,11.7197328 C0,12.1405642 0.383893178,12.4820261 0.857639613,12.4820261 L0.857639613,12.4820261 L3.14291675,12.4820261 C3.61638501,12.4820261 4,12.1405642 4,11.7197328 L4,11.7197328 L4,9.68851664 C4,9.26768524 3.61638501,8.92647059 3.14291675,8.92647059 L3.14291675,8.92647059 L0.857639613,8.92647059 Z M1.33333333,10.0375817 L2.66666667,10.0375817 L2.66666667,11.370915 L1.33333333,11.370915 Z" id="形状结合备份" fill="#8C8C8C"></path>
                <path d="M5.79881608,8.92647059 C5.32506965,8.92647059 4.94117647,9.26768524 4.94117647,9.68851664 L4.94117647,9.68851664 L4.94117647,11.7197328 C4.94117647,12.1405642 5.32506965,12.4820261 5.79881608,12.4820261 L5.79881608,12.4820261 L8.08409322,12.4820261 C8.55756148,12.4820261 8.94117647,12.1405642 8.94117647,11.7197328 L8.94117647,11.7197328 L8.94117647,9.68851664 C8.94117647,9.26768524 8.55756148,8.92647059 8.08409322,8.92647059 L8.08409322,8.92647059 L5.79881608,8.92647059 Z M6.2745098,10.0375817 L7.60784314,10.0375817 L7.60784314,11.370915 L6.2745098,11.370915 Z" id="形状结合备份-3" fill="#8C8C8C"></path>
                <path d="M10.8576396,8.92647059 C10.3838932,8.92647059 10,9.26768524 10,9.68851664 L10,9.68851664 L10,11.7197328 C10,12.1405642 10.3838932,12.4820261 10.8576396,12.4820261 L10.8576396,12.4820261 L13.1429168,12.4820261 C13.616385,12.4820261 14,12.1405642 14,11.7197328 L14,11.7197328 L14,9.68851664 C14,9.26768524 13.616385,8.92647059 13.1429168,8.92647059 L13.1429168,8.92647059 L10.8576396,8.92647059 Z M11.3333333,10.0375817 L12.6666667,10.0375817 L12.6666667,11.370915 L11.3333333,11.370915 Z" id="形状结合备份-2" fill="#8C8C8C"></path>
            </g>
        </g>
    </g>
</svg>