<?xml version="1.0" encoding="UTF-8"?>
<svg width="16px" height="16px" viewBox="0 0 16 16" version="1.1" xmlns="http://www.w3.org/2000/svg" xmlns:xlink="http://www.w3.org/1999/xlink">
    <title>2BE02028-11B4-4B74-A2F2-70891DD32754</title>
    <g id="页面-1" stroke="none" stroke-width="1" fill="none" fill-rule="evenodd">
        <g id="画板" transform="translate(-147.000000, -146.000000)" fill-rule="nonzero">
            <g id="后台管理" transform="translate(147.000000, 146.000000)">
                <rect id="矩形" fill="#000000" opacity="0" x="0" y="0" width="16" height="16"></rect>
                <path d="M13,2 C13.5522847,2 14,2.44771525 14,3 L14,11 C14,11.5522847 13.5522847,12 13,12 L3,12 C2.44771525,12 2,11.5522847 2,11 L2,3 C2,2.44771525 2.44771525,2 3,2 L13,2 M13,1 L3,1 C1.8954305,1 1,1.8954305 1,3 L1,11 C1,12.1045695 1.8954305,13 3,13 L13,13 C14.1045695,13 15,12.1045695 15,11 L15,3 C15,1.8954305 14.1045695,1 13,1 Z M13,15 L3,15 C2.72385763,15 2.5,14.7761424 2.5,14.5 C2.5,14.2238576 2.72385763,14 3,14 L13,14 C13.2761424,14 13.5,14.2238576 13.5,14.5 C13.5,14.7761424 13.2761424,15 13,15 Z" id="形状" fill="#FFFFFF"></path>
                <path d="M11.9,6.125 L11.9,6 L11.75,6 C11.3326939,5.99544388 10.946416,5.7787514 10.725,5.425 C10.5227863,5.05700145 10.5323169,4.60906458 10.75,4.25 L10.8,4.15 L10.7,4.05 C10.2710975,3.65067508 9.75871668,3.35178624 9.2,3.175 L9.075,3.175 L9,3.25 C8.80705487,3.62436854 8.42116461,3.8596118 8,3.8596118 C7.57883539,3.8596118 7.19294513,3.62436854 7,3.25 L6.925,3.15 L6.8,3.15 C6.24128332,3.32678624 5.72890245,3.62567508 5.3,4.025 L5.2,4.125 L5.25,4.225 C5.4676831,4.58406458 5.47721368,5.03200145 5.275,5.4 C5.0596197,5.76333296 4.6722572,5.99008174 4.25,6 L4.125,6 L4.125,6.125 C4.04625855,6.41015701 4.00425216,6.70420167 4,7 C3.99608921,7.29472735 4.02969234,7.58875476 4.1,7.875 L4.1,8 L4.25,8 C4.66730607,8.00455612 5.05358396,8.2212486 5.275,8.575 C5.47721368,8.94299855 5.4676831,9.39093542 5.25,9.75 L5.2,9.85 L5.3,9.95 C5.72890245,10.3493249 6.24128332,10.6482138 6.8,10.825 L6.925,10.825 L7,10.75 C7.19294513,10.3756315 7.57883539,10.1403882 8,10.1403882 C8.42116461,10.1403882 8.80705487,10.3756315 9,10.75 L9.075,10.85 L9.2,10.85 C9.75871668,10.6732138 10.2710975,10.3743249 10.7,9.975 L10.8,9.875 L10.75,9.75 C10.5323169,9.39093542 10.5227863,8.94299855 10.725,8.575 C10.946416,8.2212486 11.3326939,8.00455612 11.75,8 L11.875,8 L11.875,7.875 C11.9537415,7.58984299 11.9957478,7.29579833 12,7 C12.0039108,6.70527265 11.9703077,6.41124524 11.9,6.125 Z M9.125,7 C9.125,7.62132034 8.62132034,8.125 8,8.125 C7.37867966,8.125 6.875,7.62132034 6.875,7 C6.875,6.37867966 7.37867966,5.875 8,5.875 C8.62132034,5.875 9.125,6.37867966 9.125,7 L9.125,7 Z" id="形状" fill="#FFFFFF"></path>
            </g>
        </g>
    </g>
</svg>