<?xml version="1.0" encoding="UTF-8"?>
<svg width="16px" height="16px" viewBox="0 0 16 16" version="1.1" xmlns="http://www.w3.org/2000/svg" xmlns:xlink="http://www.w3.org/1999/xlink">
    <title>变更管理</title>
    <g id="图标" stroke="none" stroke-width="1" fill="none" fill-rule="evenodd">
        <g id="Apple-TV" transform="translate(-42.000000, -286.000000)">
            <g id="变更管理" transform="translate(42.000000, 286.000000)">
                <rect id="矩形备份-10" x="0" y="0" width="16" height="16"></rect>
                <g id="项目变更管理" transform="translate(1.000000, 1.000000)" fill="#FFFFFF" fill-rule="nonzero">
                    <path d="M7,14 C10.8659932,14 14,10.8659932 14,7 C14,3.13400675 10.8659932,0 7,0 C3.13400675,0 0,3.13400675 0,7 C0,10.8659932 3.13400675,14 7,14 Z M10.5,8.80526316 L5.26555555,8.80526316 L6.60333333,10.325 C6.70986118,10.4449699 6.77016686,10.6114374 6.77016686,10.7855263 C6.77016686,10.9596152 6.70986118,11.1260827 6.60333333,11.2460526 C6.38804618,11.4989328 6.0408427,11.4989328 5.82555555,11.2460526 L2.55888889,7.51578948 L10.5,7.51578948 C10.8006884,7.51578948 11.0444444,7.80444799 11.0444444,8.16052632 C11.0444444,8.51660464 10.8006884,8.80526316 10.5,8.80526316 L10.5,8.80526316 Z M3.5,6.44736842 C3.19931164,6.44736842 2.95555556,6.1587099 2.95555556,5.80263158 C2.95555556,5.44655326 3.19931164,5.15789474 3.5,5.15789474 L8.73444444,5.15789474 L7.39666666,3.68421052 C7.29013881,3.5642406 7.22983313,3.39777314 7.22983313,3.22368421 C7.22983313,3.04959527 7.29013881,2.88312782 7.39666666,2.7631579 C7.61195381,2.51027777 7.95915729,2.51027777 8.17444444,2.7631579 L11.4722222,6.44736842 L3.5,6.44736842 Z" id="形状"></path>
                </g>
            </g>
        </g>
    </g>
</svg>