<?xml version="1.0" encoding="UTF-8"?>
<svg width="16px" height="16px" viewBox="0 0 16 16" version="1.1" xmlns="http://www.w3.org/2000/svg" xmlns:xlink="http://www.w3.org/1999/xlink">
    <title>13B22876-2A24-43C7-8292-EB395CB005FF</title>
    <g id="页面-1" stroke="none" stroke-width="1" fill="none" fill-rule="evenodd">
        <g id="画板" transform="translate(-295.000000, -58.000000)" fill-rule="nonzero">
            <g id="配置管理" transform="translate(295.000000, 58.000000)">
                <rect id="矩形" fill="#000000" opacity="0" x="0" y="0" width="16" height="16"></rect>
                <path d="M11.2,9.592 C10.416,9.592 9.776,10.232 9.776,11.016 C9.776,11.8 10.416,12.44 11.2,12.44 C11.984,12.44 12.624,11.8 12.624,11.016 C12.624,10.232 11.984,9.592 11.2,9.592 Z M11.256,11.776 C10.864,11.776 10.544,11.456 10.544,11.064 C10.544,10.672 10.864,10.352 11.256,10.352 C11.648,10.352 11.968,10.672 11.968,11.064 C11.96,11.456 11.648,11.776 11.256,11.776 Z M15.104,10.312 C15.048,10.024 14.864,9.848 14.632,9.848 L14.6,9.848 C14.152,9.848 13.784,9.488 13.784,9.04 C13.784,8.928 13.832,8.776 13.856,8.728 C13.968,8.464 13.872,8.152 13.632,8 L12.672,7.48 C12.432,7.384 12.16,7.44 11.976,7.616 C11.856,7.736 11.544,7.992 11.32,7.992 C11.096,7.992 10.784,7.736 10.664,7.616 C10.488,7.44 10.208,7.376 9.968,7.472 L9.952,7.48 L8.976,8.008 L8.952,8.024 C8.72,8.176 8.64,8.48 8.744,8.736 C8.752,8.752 8.816,8.904 8.816,9.048 C8.816,9.496 8.448,9.856 8,9.856 L7.96,9.856 C7.728,9.856 7.544,10.032 7.496,10.32 C7.448,10.568 7.424,10.816 7.416,11.072 C7.416,11.392 7.488,11.784 7.496,11.824 C7.552,12.112 7.736,12.288 7.968,12.288 L8,12.288 C8.448,12.288 8.816,12.656 8.816,13.096 C8.816,13.208 8.768,13.36 8.744,13.408 C8.632,13.672 8.728,13.984 8.968,14.136 L9.904,14.648 C10.152,14.744 10.424,14.688 10.608,14.504 C10.72,14.384 11.048,14.104 11.28,14.104 C11.512,14.104 11.824,14.376 11.952,14.512 C12.136,14.712 12.432,14.768 12.68,14.648 L13.632,14.128 L13.656,14.112 C13.888,13.96 13.968,13.656 13.864,13.4 C13.824,13.304 13.8,13.192 13.792,13.088 C13.792,12.64 14.16,12.28 14.608,12.28 L14.648,12.28 C14.88,12.28 15.064,12.104 15.112,11.816 C15.112,11.808 15.192,11.4 15.192,11.064 C15.184,10.752 15.112,10.36 15.104,10.312 Z M14.384,11.56 C13.608,11.656 13.032,12.32 13.032,13.096 C13.032,13.272 13.08,13.448 13.112,13.56 L12.432,13.936 C12.344,13.848 12.256,13.776 12.152,13.688 C11.848,13.464 11.56,13.352 11.288,13.352 C11.016,13.352 10.728,13.464 10.432,13.68 C10.336,13.752 10.248,13.824 10.152,13.92 L9.496,13.552 C9.536,13.44 9.576,13.256 9.576,13.08 C9.576,12.296 8.992,11.64 8.224,11.536 C8.2,11.376 8.184,11.208 8.176,11.04 C8.176,10.88 8.2,10.672 8.224,10.544 C9,10.448 9.576,9.784 9.576,9 C9.576,8.824 9.536,8.648 9.496,8.536 L10.2,8.152 C10.256,8.208 10.352,8.296 10.48,8.384 C10.776,8.6 11.064,8.704 11.328,8.704 C11.592,8.704 11.872,8.6 12.168,8.392 C12.288,8.312 12.392,8.224 12.448,8.168 L13.12,8.544 C13.072,8.696 13.04,8.856 13.04,9.016 C13.04,9.8 13.632,10.456 14.392,10.552 C14.408,10.68 14.44,10.888 14.44,11.048 C14.424,11.232 14.4,11.432 14.384,11.56 L14.384,11.56 Z" id="形状" fill="#FFFFFF"></path>
                <path d="M7.304,14.368 L2.528,14.368 C1.6,14.392 0.824,13.736 0.8,12.904 L0.8,2.752 C0.824,1.92 1.6,1.264 2.528,1.288 L10.896,1.288 C11.816,1.28 12.576,1.928 12.6,2.752 L12.6,6.56 C12.528,6.848 12.208,7.024 11.896,6.96 C11.672,6.912 11.504,6.76 11.448,6.56 L11.448,2.752 C11.424,2.48 11.168,2.264 10.856,2.264 L2.528,2.264 C2.216,2.264 1.96,2.472 1.936,2.752 L1.936,12.896 C1.96,13.176 2.216,13.392 2.528,13.392 L7.296,13.392 C7.592,13.392 7.84,13.608 7.84,13.88 C7.84,14.144 7.6,14.368 7.304,14.368 Z" id="路径" fill="#FFFFFF"></path>
                <path d="M9.688,5.968 L9.072,5.968 C8.896,5.632 8.552,5.408 8.152,5.408 C7.752,5.408 7.4,5.632 7.232,5.968 L3.712,5.968 C3.384,5.968 3.12,6.184 3.12,6.448 C3.12,6.712 3.384,6.928 3.712,6.928 L7.216,6.928 C7.392,7.264 7.736,7.488 8.136,7.488 C8.536,7.488 8.888,7.264 9.056,6.928 L9.672,6.928 C10,6.928 10.264,6.712 10.264,6.448 C10.264,6.184 10.016,5.968 9.688,5.968 Z M8.608,6.768 C8.504,6.912 8.336,7.008 8.144,7.008 C7.952,7.008 7.784,6.912 7.68,6.768 C7.616,6.68 7.576,6.568 7.576,6.448 C7.576,6.328 7.616,6.216 7.68,6.128 C7.784,5.984 7.952,5.888 8.144,5.888 C8.336,5.888 8.504,5.984 8.608,6.128 C8.672,6.216 8.712,6.328 8.712,6.448 C8.704,6.568 8.672,6.672 8.608,6.768 Z M9.68,3.544 L6.176,3.544 C6,3.208 5.656,2.984 5.256,2.984 C4.856,2.984 4.504,3.208 4.336,3.544 L3.72,3.544 C3.392,3.544 3.128,3.76 3.128,4.024 C3.128,4.288 3.392,4.504 3.72,4.504 L4.336,4.504 C4.512,4.84 4.856,5.064 5.256,5.064 C5.656,5.064 6.008,4.84 6.176,4.504 L9.68,4.504 C10.008,4.504 10.272,4.288 10.272,4.024 C10.272,3.76 10.008,3.544 9.68,3.544 L9.68,3.544 Z M5.72,4.344 C5.616,4.488 5.448,4.584 5.256,4.584 C5.064,4.584 4.896,4.488 4.792,4.344 C4.728,4.256 4.688,4.144 4.688,4.024 C4.688,3.904 4.728,3.792 4.792,3.704 C4.896,3.56 5.064,3.464 5.256,3.464 C5.448,3.464 5.616,3.56 5.72,3.704 C5.784,3.792 5.824,3.904 5.824,4.024 C5.816,4.144 5.784,4.256 5.72,4.344 L5.72,4.344 Z M7.28,8.384 L6.176,8.384 C6,8.048 5.656,7.824 5.256,7.824 C4.856,7.824 4.504,8.048 4.336,8.384 L3.72,8.384 C3.392,8.384 3.128,8.6 3.128,8.864 C3.128,9.128 3.392,9.344 3.72,9.344 L4.336,9.344 C4.512,9.68 4.856,9.904 5.256,9.904 C5.656,9.904 6.008,9.68 6.176,9.344 L7.28,9.344 C7.608,9.344 7.872,9.128 7.872,8.864 C7.872,8.6 7.608,8.384 7.28,8.384 Z M5.72,9.192 C5.616,9.336 5.448,9.432 5.256,9.432 C5.064,9.432 4.896,9.336 4.792,9.192 C4.728,9.104 4.688,8.992 4.688,8.872 C4.688,8.752 4.728,8.64 4.792,8.552 C4.896,8.408 5.064,8.312 5.256,8.312 C5.448,8.312 5.616,8.408 5.72,8.552 C5.784,8.64 5.824,8.752 5.824,8.872 C5.816,8.984 5.784,9.096 5.72,9.192 Z" id="形状" fill="#FFFFFF"></path>
            </g>
        </g>
    </g>
</svg>