<?xml version="1.0" encoding="UTF-8"?>
<svg width="16px" height="16px" viewBox="0 0 16 16" version="1.1" xmlns="http://www.w3.org/2000/svg" xmlns:xlink="http://www.w3.org/1999/xlink">
    <title>目录管理</title>
    <g id="图标" stroke="none" stroke-width="1" fill="none" fill-rule="evenodd">
        <g id="Apple-TV" transform="translate(-42.000000, -502.000000)">
            <g id="目录管理" transform="translate(42.000000, 502.000000)">
                <rect id="矩形" x="0" y="0" width="16" height="16"></rect>
                <path d="M13,1 C13.5522847,1 14,1.44771525 14,2 L14,14 C14,14.5522847 13.5522847,15 13,15 L3,15 C2.44771525,15 2,14.5522847 2,14 L2,2 C2,1.44771525 2.44771525,1 3,1 L13,1 Z M4.5,10 C4.22385763,10 4,10.2238576 4,10.5 C4,10.7761424 4.22385763,11 4.5,11 C4.77614237,11 5,10.7761424 5,10.5 C5,10.2238576 4.77614237,10 4.5,10 Z M11.5,10 L6.5,10 C6.22385763,10 6,10.2238576 6,10.5 C6,10.7761424 6.22385763,11 6.5,11 L6.5,11 L11.5,11 C11.7761424,11 12,10.7761424 12,10.5 C12,10.2238576 11.7761424,10 11.5,10 L11.5,10 Z M4.5,7 C4.22385763,7 4,7.22385763 4,7.5 C4,7.77614237 4.22385763,8 4.5,8 C4.77614237,8 5,7.77614237 5,7.5 C5,7.22385763 4.77614237,7 4.5,7 Z M11.5,7 L6.5,7 C6.22385763,7 6,7.22385763 6,7.5 C6,7.77614237 6.22385763,8 6.5,8 L6.5,8 L11.5,8 C11.7761424,8 12,7.77614237 12,7.5 C12,7.22385763 11.7761424,7 11.5,7 L11.5,7 Z M4.5,4 C4.22385763,4 4,4.22385763 4,4.5 C4,4.77614237 4.22385763,5 4.5,5 C4.77614237,5 5,4.77614237 5,4.5 C5,4.22385763 4.77614237,4 4.5,4 Z M11.5,4 L6.5,4 C6.22385763,4 6,4.22385763 6,4.5 C6,4.77614237 6.22385763,5 6.5,5 L6.5,5 L11.5,5 C11.7761424,5 12,4.77614237 12,4.5 C12,4.22385763 11.7761424,4 11.5,4 L11.5,4 Z" id="形状结合" fill="#FFFFFF"></path>
            </g>
        </g>
    </g>
</svg>