<?xml version="1.0" encoding="UTF-8"?>
<svg width="16px" height="16px" viewBox="0 0 16 16" version="1.1" xmlns="http://www.w3.org/2000/svg" xmlns:xlink="http://www.w3.org/1999/xlink">
    <title>EAD6F103-EA83-4C21-B571-17033AAF297B</title>
    <g id="页面-1" stroke="none" stroke-width="1" fill="none" fill-rule="evenodd">
        <g id="画板" transform="translate(-39.000000, -234.000000)" fill-rule="nonzero">
            <g id="目录管理" transform="translate(39.000000, 234.000000)">
                <rect id="矩形" fill="#000000" opacity="0" x="0" y="0" width="16" height="16"></rect>
                <path d="M13.5338438,1.81510937 L13.5338438,14.1849063 L2.46614063,14.1849063 L2.46614063,1.81510937 L13.5338438,1.81510937 M13.5338438,0.513015625 L2.46614063,0.513015625 C1.7470625,0.513015625 1.1640625,1.09603125 1.1640625,1.81509375 L1.1640625,14.1848906 C1.1640625,14.9039531 1.74707813,15.4869687 2.46614063,15.4869687 L13.5338438,15.4869687 C14.2529219,15.4869687 14.8359375,14.9039531 14.8359375,14.1848906 L14.8359375,1.81510937 C14.8359375,1.09603125 14.2529219,0.513015625 13.5338438,0.513015625 Z M11.6214219,5.05282812 L7.71517188,5.05282812 C7.355625,5.05282812 7.064125,4.76132812 7.064125,4.40178125 C7.064125,4.04223437 7.355625,3.75073437 7.71517188,3.75073437 L11.6214219,3.75073437 C11.9809531,3.75073437 12.2724688,4.04223437 12.2724688,4.40178125 C12.2724688,4.76132812 11.9809375,5.05282812 11.6214219,5.05282812 Z M5.35514062,5.05282812 L4.37857812,5.05282812 C4.01904687,5.05282812 3.72754687,4.76132812 3.72754687,4.40178125 C3.72754687,4.04223437 4.01904687,3.75073437 4.37857812,3.75073437 L5.35514062,3.75073437 C5.7146875,3.75073437 6.0061875,4.04223437 6.0061875,4.40178125 C6.0061875,4.76132812 5.71467187,5.05282812 5.35514062,5.05282812 L5.35514062,5.05282812 Z M11.6214219,8.3608125 L7.71517188,8.3608125 C7.355625,8.3608125 7.064125,8.0693125 7.064125,7.70976562 C7.064125,7.35023437 7.355625,7.05873437 7.71517188,7.05873437 L11.6214219,7.05873437 C11.9809531,7.05873437 12.2724688,7.35023437 12.2724688,7.70976562 C12.2724688,8.0693125 11.9809375,8.3608125 11.6214219,8.3608125 Z M5.35514062,8.3608125 L4.37857812,8.3608125 C4.01904687,8.3608125 3.72754687,8.0693125 3.72754687,7.70976562 C3.72754687,7.35023437 4.01904687,7.05873437 4.37857812,7.05873437 L5.35514062,7.05873437 C5.7146875,7.05873437 6.0061875,7.35023437 6.0061875,7.70976562 C6.0061875,8.0693125 5.71467187,8.3608125 5.35514062,8.3608125 L5.35514062,8.3608125 Z M11.6214219,11.6687969 L7.71517188,11.6687969 C7.355625,11.6687969 7.064125,11.3772812 7.064125,11.01775 C7.064125,10.6582031 7.355625,10.3667031 7.71517188,10.3667031 L11.6214219,10.3667031 C11.9809531,10.3667031 12.2724688,10.6582031 12.2724688,11.01775 C12.2724688,11.3772812 11.9809375,11.6687969 11.6214219,11.6687969 Z M5.35514062,11.6687969 L4.37857812,11.6687969 C4.01904687,11.6687969 3.72754687,11.3772812 3.72754687,11.01775 C3.72754687,10.6582031 4.01904687,10.3667031 4.37857812,10.3667031 L5.35514062,10.3667031 C5.7146875,10.3667031 6.0061875,10.6582031 6.0061875,11.01775 C6.0061875,11.3772812 5.71467187,11.6687969 5.35514062,11.6687969 L5.35514062,11.6687969 Z" id="形状" fill="#FFFFFF"></path>
            </g>
        </g>
    </g>
</svg>