<?xml version="1.0" encoding="UTF-8"?>
<svg width="16px" height="16px" viewBox="0 0 16 16" version="1.1" xmlns="http://www.w3.org/2000/svg" xmlns:xlink="http://www.w3.org/1999/xlink">
    <title>事件管理</title>
    <g id="图标" stroke="none" stroke-width="1" fill="none" fill-rule="evenodd">
        <g id="Apple-TV" transform="translate(-42.000000, -178.000000)">
            <g id="事件管理" transform="translate(42.000000, 178.000000)">
                <rect id="矩形备份-26" x="0" y="0" width="16" height="16"></rect>
                <path d="M3,2 L3,2.5 C3,3.32842712 3.67157288,4 4.5,4 C5.32842712,4 6,3.32842712 6,2.5 L6,2.5 L6,2 L10,2 L10,2.5 C10,3.27969612 10.5948881,3.92044868 11.35554,3.99313342 L11.5,4 C12.3284271,4 13,3.32842712 13,2.5 L13,2.5 L13,2 L14,2 C14.5522847,2 15,2.44771525 15,3 L15,14 C15,14.5522847 14.5522847,15 14,15 L2,15 C1.44771525,15 1,14.5522847 1,14 L1,3 C1,2.44771525 1.44771525,2 2,2 L3,2 Z M8.5,11 L4.5,11 C4.22385763,11 4,11.2238576 4,11.5 C4,11.7761424 4.22385763,12 4.5,12 L4.5,12 L8.5,12 C8.77614237,12 9,11.7761424 9,11.5 C9,11.2238576 8.77614237,11 8.5,11 L8.5,11 Z M11.5,8.5 L4.5,8.5 C4.22385763,8.5 4,8.72385763 4,9 C4,9.27614237 4.22385763,9.5 4.5,9.5 L4.5,9.5 L11.5,9.5 C11.7761424,9.5 12,9.27614237 12,9 C12,8.72385763 11.7761424,8.5 11.5,8.5 L11.5,8.5 Z M9.5,6 L4.5,6 C4.22385763,6 4,6.22385763 4,6.5 C4,6.77614237 4.22385763,7 4.5,7 L4.5,7 L9.5,7 C9.77614237,7 10,6.77614237 10,6.5 C10,6.22385763 9.77614237,6 9.5,6 L9.5,6 Z" id="形状结合" fill="#FFFFFF"></path>
                <rect id="矩形备份-13" fill="#FFFFFF" x="4" y="1" width="1" height="2" rx="0.5"></rect>
                <rect id="矩形备份-13" fill="#FFFFFF" x="11" y="1" width="1" height="2" rx="0.5"></rect>
            </g>
        </g>
    </g>
</svg>