<?xml version="1.0" encoding="UTF-8"?>
<svg width="14px" height="14px" viewBox="0 0 14 14" version="1.1" xmlns="http://www.w3.org/2000/svg" xmlns:xlink="http://www.w3.org/1999/xlink">
    <!-- Generator: Sketch 63.1 (92452) - https://sketch.com -->
    <title>ACB1F8DC-BB2E-41F0-A8FF-4F138DBF2D97</title>
    <desc>Created with Sketch.</desc>
    <g id="页面-1" stroke="none" stroke-width="1" fill="none" fill-rule="evenodd">
        <g id="Apple-TV" transform="translate(-1071.000000, -460.000000)" fill-rule="nonzero">
            <g id="表单设计" transform="translate(1070.000000, 459.000000)">
                <rect id="矩形" fill="#000000" opacity="0" x="0" y="0" width="16" height="16"></rect>
                <path d="M8,15 L1.46666667,15 C1.20893378,15 1,14.8041246 1,14.5625 L1,1.4375 C1,1.19587542 1.20893378,1 1.46666667,1 L13.6,1 C13.8577329,1 14.0666667,1.19587542 14.0666667,1.4375 L14.0666667,7.5625 C14.0666667,7.80412458 13.8577329,8 13.6,8 C13.3422671,8 13.1333333,7.80412458 13.1333333,7.5625 L13.1333333,1.875 L1.93333333,1.875 L1.93333333,14.125 L8,14.125 C8.25773288,14.125 8.46666667,14.3208754 8.46666667,14.5625 C8.46666667,14.8041246 8.25773288,15 8,15 Z M10.8,5.375 L4.26666667,5.375 C4.00893378,5.375 3.8,5.17912458 3.8,4.9375 C3.8,4.69587542 4.00893378,4.5 4.26666667,4.5 L10.8,4.5 C11.0577329,4.5 11.2666667,4.69587542 11.2666667,4.9375 C11.2666667,5.17912458 11.0577329,5.375 10.8,5.375 Z M7.06666667,10.625 L4.26666667,10.625 C4.00893378,10.625 3.8,10.4291246 3.8,10.1875 C3.8,9.94587542 4.00893378,9.75 4.26666667,9.75 L7.06666667,9.75 C7.32439955,9.75 7.53333333,9.94587542 7.53333333,10.1875 C7.53333333,10.4291246 7.32439955,10.625 7.06666667,10.625 Z M10.8,8 L4.26666667,8 C4.00893378,8 3.8,7.80412458 3.8,7.5625 C3.8,7.32087542 4.00893378,7.125 4.26666667,7.125 L10.8,7.125 C11.0577329,7.125 11.2666667,7.32087542 11.2666667,7.5625 C11.2666667,7.80412458 11.0577329,8 10.8,8 Z M12.2,15 C11.9422671,15 11.7333333,14.8041246 11.7333333,14.5625 L11.7333333,10.1875 C11.7333333,9.94587542 11.9422671,9.75 12.2,9.75 C12.4577329,9.75 12.6666667,9.94587542 12.6666667,10.1875 L12.6666667,14.5625 C12.6666667,14.8041246 12.4577329,15 12.2,15 Z M14.5333333,12.8125 L9.86666667,12.8125 C9.60893378,12.8125 9.4,12.6166246 9.4,12.375 C9.4,12.1333754 9.60893378,11.9375 9.86666667,11.9375 L14.5333333,11.9375 C14.7910662,11.9375 15,12.1333754 15,12.375 C15,12.6166246 14.7910662,12.8125 14.5333333,12.8125 Z" id="形状" fill="#FFFFFF"></path>
            </g>
        </g>
    </g>
</svg>