<?xml version="1.0" encoding="UTF-8"?>
<svg width="16px" height="16px" viewBox="0 0 16 16" version="1.1" xmlns="http://www.w3.org/2000/svg" xmlns:xlink="http://www.w3.org/1999/xlink">
    <title>7F39A2E7-B260-48AB-AC92-43B816FEC055</title>
    <g id="页面-1" stroke="none" stroke-width="1" fill="none" fill-rule="evenodd">
        <g id="画板" transform="translate(-31.000000, -58.000000)" fill="#FFFFFF" fill-rule="nonzero">
            <g id="首页" transform="translate(31.000000, 58.000000)">
                <path d="M9.184375,13.921875 L6.815625,13.921875 L6.815625,10.8453125 C6.815625,10.58125 7.0296875,10.36875 7.2921875,10.36875 L8.70625,10.36875 C8.9703125,10.36875 9.1828125,10.5828125 9.1828125,10.8453125 L9.1828125,13.921875 L9.184375,13.921875 Z M5.63125,10.05625 L5.63125,15.1046875 L10.3671875,15.1046875 L10.3671875,10.05625 C10.3671875,9.575 9.9765625,9.184375 9.4953125,9.184375 L6.503125,9.184375 C6.021875,9.184375 5.63125,9.575 5.63125,10.05625 Z" id="形状"></path>
                <path d="M13.13125,15.1046875 L2.86875,15.1046875 C2.4328125,15.1046875 2.0796875,14.7515625 2.0796875,14.315625 L2.0796875,7.60625 L1.2890625,7.60625 C0.95625,7.60625 0.6578125,7.396875 0.5453125,7.0828125 C0.4328125,6.76875 0.5296875,6.41875 0.7859375,6.20625 L7.4984375,0.68125 C7.790625,0.4421875 8.2109375,0.4421875 8.5015625,0.68125 L15.2125,6.2078125 C15.4703125,6.4203125 15.565625,6.7703125 15.453125,7.084375 C15.340625,7.3984375 15.04375,7.6078125 14.709375,7.6078125 L13.9203125,7.6078125 L13.9203125,14.31875 C13.9203125,14.7515625 13.5671875,15.1046875 13.13125,15.1046875 Z M3.6578125,13.5265625 L12.3421875,13.5265625 L12.3421875,6.815625 C12.3421875,6.546875 12.4765625,6.309375 12.68125,6.1671875 L8,2.3125 L3.31875,6.1671875 C3.5234375,6.309375 3.6578125,6.546875 3.6578125,6.815625 L3.6578125,13.5265625 Z" id="形状"></path>
            </g>
        </g>
    </g>
</svg>