<?xml version="1.0" encoding="UTF-8"?>
<svg width="15px" height="15px" viewBox="0 0 15 15" version="1.1" xmlns="http://www.w3.org/2000/svg" xmlns:xlink="http://www.w3.org/1999/xlink">
    <!-- Generator: Sketch 63.1 (92452) - https://sketch.com -->
    <title>4D6069C0-D545-4A42-A456-D74F823E917E</title>
    <desc>Created with Sketch.</desc>
    <g id="页面-1" stroke="none" stroke-width="1" fill="none" fill-rule="evenodd">
        <g id="安装历史">
            <path d="M2.248,2.092 C2.24,2.098 2.237,2.107 2.23,2.114 L1.047,0.93 C0.923,0.806 0.71,0.872 0.678,1.045 L0.004,4.613 C-0.024,4.764 0.107,4.897 0.259,4.868 L3.827,4.194 C4,4.162 4.065,3.949 3.941,3.825 L2.784,2.668" id="Fill-1" fill="#FFFFFF"></path>
            <path d="M1.7881,2.9343 C3.0591,1.4443 4.9521,0.5003 7.0641,0.5003 C10.8941,0.5003 14.0001,3.6053 14.0001,7.4353 C14.0001,11.2663 10.8941,14.3713 7.0641,14.3713 C5.1261,14.3713 3.3741,13.5763 2.1151,12.2933" id="Stroke-3" stroke="#FFFFFF" stroke-linecap="round"></path>
            <line x1="6.9326" y1="4.2853" x2="6.9326" y2="7.6503" id="Stroke-5" stroke="#FFFFFF" stroke-linecap="round"></line>
            <line x1="9.832" y1="10.5505" x2="6.933" y2="7.6505" id="Stroke-7" stroke="#FFFFFF" stroke-linecap="round"></line>
        </g>
    </g>
</svg>