<?xml version="1.0" encoding="UTF-8"?>
<svg width="80px" height="80px" viewBox="0 0 80 80" version="1.1" xmlns="http://www.w3.org/2000/svg" xmlns:xlink="http://www.w3.org/1999/xlink">
    <title>7941F549-F3DA-474F-B3F9-44B655113963</title>
    <defs>
        <linearGradient x1="0%" y1="50%" x2="100%" y2="50%" id="linearGradient-1">
            <stop stop-color="#1452CC" offset="0%"></stop>
            <stop stop-color="#28C6CC" offset="100%"></stop>
        </linearGradient>
    </defs>
    <g id="组件" stroke="none" stroke-width="1" fill="none" fill-rule="evenodd">
        <g id="Lanchapd图标汇总" transform="translate(-1397.000000, -293.000000)" fill-rule="nonzero">
            <g id="IT服务中心" transform="translate(1397.000000, 293.000000)">
                <rect id="矩形备份-2" fill="#4F93F0" opacity="0" x="0" y="0" width="80" height="80"></rect>
                <g id="编组-2" transform="translate(19.090909, 19.090909)" fill="url(#linearGradient-1)">
                    <path d="M35.4394421,29.1479688 L40.2524185,33.9609452 C40.6606938,34.3692205 40.6606939,35.0311658 40.2524185,35.4394412 L35.4394421,40.2524176 C35.0311668,40.6606929 34.3692214,40.6606929 33.9609461,40.2524176 L29.1479697,35.4394412 C28.7396943,35.0311658 28.7396944,34.3692205 29.1479697,33.9609452 L33.9609461,29.1479688 C34.3692215,28.7396934 35.0311667,28.7396934 35.4394421,29.1479688 Z M28.8617021,14.2359768 C29.1378445,14.2359768 29.3617021,14.4598344 29.3617021,14.7359768 L29.3617021,24.4129594 C29.3617021,24.6891018 29.1378445,24.9129594 28.8617021,24.9129594 L12.0667311,24.9129594 C11.7905888,24.9129594 11.5667311,24.6891018 11.5667311,24.4129594 L11.566,20.574 L3.535,20.574 L3.535,33.7 L21.3539653,33.7001935 L21.3539665,30.2514507 L26.6924578,34.7001935 L21.3539665,39.1489363 L21.3539653,35.7001935 L2.53578337,35.7001935 C2.02294753,35.7001935 1.60027621,35.3141533 1.5425111,34.8168146 L1.53578337,34.7001935 L1.53578337,19.5744681 C1.53578337,19.0616323 1.92182356,18.6389609 2.41916225,18.5811958 L2.53578337,18.5744681 L11.566,18.574 L11.5667311,14.7359768 C11.5667311,14.4598344 11.7905888,14.2359768 12.0667311,14.2359768 L28.8617021,14.2359768 Z M5.3384913,10.6769826 C2.39012397,10.6769826 0,8.28685863 0,5.3384913 C0,2.39012397 2.39012397,0 5.3384913,0 C7.94498842,0 10.1151959,1.86797795 10.5834331,4.33825319 L40.0386848,4.3384913 C40.5515206,4.3384913 40.9741919,4.72453149 41.0319571,5.22187017 L41.0386848,5.3384913 L41.0386848,19.5744681 C41.0386848,20.0873039 40.6526446,20.5099753 40.1553059,20.5677404 L40.0386848,20.5744681 L36.479,20.574 L36.4796913,24.023211 L31.1412,19.5744682 L36.4796913,15.1257256 L36.479,18.574 L39.038,18.574 L39.038,6.338 L10.5834331,6.33872941 C10.1151959,8.80900465 7.94498842,10.6769826 5.3384913,10.6769826 Z" id="形状结合"></path>
                </g>
            </g>
        </g>
    </g>
</svg>