<?xml version="1.0" encoding="UTF-8"?>
<svg width="20px" height="20px" viewBox="0 0 20 20" version="1.1" xmlns="http://www.w3.org/2000/svg" xmlns:xlink="http://www.w3.org/1999/xlink">
    <!-- Generator: Sketch 63.1 (92452) - https://sketch.com -->
    <title>8C888684-5E36-4ADB-AE2D-6F6D9C8301D6</title>
    <desc>Created with Sketch.</desc>
    <g id="页面-1" stroke="none" stroke-width="1" fill="none" fill-rule="evenodd">
        <g id="IT服务中心（首页）" transform="translate(-1.000000, -1.000000)">
            <rect id="矩形备份-2" fill="#4F93F0" opacity="0" x="0" y="0" width="22" height="22"></rect>
            <g id="编组-2" transform="translate(1.000000, 1.000000)">
                <circle id="椭圆形备份-14" fill="#FFFFFF" cx="2.55319149" cy="2.55319149" r="2.55319149"></circle>
                <path d="M14.9680851,14.4680851 L18.2234043,14.4680851 C18.4995466,14.4680851 18.7234043,14.6919427 18.7234043,14.9680851 L18.7234043,18.2234043 C18.7234043,18.4995466 18.4995466,18.7234043 18.2234043,18.7234043 L14.9680851,18.7234043 C14.6919427,18.7234043 14.4680851,18.4995466 14.4680851,18.2234043 L14.4680851,14.9680851 C14.4680851,14.6919427 14.6919427,14.4680851 14.9680851,14.4680851 Z" id="矩形备份-5" fill="#FFFFFF" transform="translate(16.595745, 16.595745) rotate(-315.000000) translate(-16.595745, -16.595745) "></path>
                <polygon id="三角形备份" fill="#FFFFFF" transform="translate(16.170213, 9.361702) rotate(-90.000000) translate(-16.170213, -9.361702) " points="16.1702128 8.08510638 18.2978723 10.6382979 14.0425532 10.6382979"></polygon>
                <polygon id="三角形备份-2" fill="#FFFFFF" transform="translate(11.489362, 16.595745) rotate(-270.000000) translate(-11.489362, -16.595745) " points="11.4893617 15.3191489 13.6170213 17.8723404 9.36170213 17.8723404"></polygon>
                <rect id="矩形备份-8" fill="#FFFFFF" x="5.53191489" y="6.80851064" width="8.5106383" height="5.10638298" rx="0.5"></rect>
                <polyline id="路径-3备份" stroke="#FFFFFF" stroke-linejoin="round" points="4.37373129 2.55319149 19.1489362 2.55319149 19.1489362 9.36170213 16.18017 9.36170213"></polyline>
                <polyline id="路径-4备份" stroke="#FFFFFF" stroke-linejoin="round" points="7.15169419 9.36170213 1.21276596 9.36170213 1.21276596 16.5957447 3.99197545 16.5957447 10.212766 16.5957447"></polyline>
            </g>
        </g>
    </g>
</svg>