<?xml version="1.0" encoding="UTF-8"?>
<svg width="14px" height="16px" viewBox="0 0 14 16" version="1.1" xmlns="http://www.w3.org/2000/svg" xmlns:xlink="http://www.w3.org/1999/xlink">
    <title>267E4408-E125-4737-8D2B-F55F1E4383AB</title>
    <g id="页面-1" stroke="none" stroke-width="1" fill="none" fill-rule="evenodd">
        <g id="画板" transform="translate(-34.000000, -142.000000)" fill="#FFFFFF" fill-rule="nonzero">
            <g id="知识库" transform="translate(34.000000, 142.000000)">
                <path d="M7.46154313,0.288616031 L10.3920873,0.962861906 L10.3814158,6.21615886 L8.9220858,5.38426558 L7.46154313,6.23798697 L7.46154313,0.288616031 L7.46154313,0.288616031 Z M13.0713658,15.9975747 L2.55143247,15.9975747 C1.25023991,15.9959703 0.195927581,14.9413324 0.194724875,13.6401395 L0.194724875,2.40594209 C0.196462417,1.07770801 1.27291762,0.0014697836 2.60115203,0 L13.0713658,0 C13.477157,0.000267382108 13.8060865,0.329088397 13.8064878,0.734879484 L13.8064878,15.2626952 C13.8060865,15.6684863 13.477157,15.9973073 13.0713658,15.9975747 L13.0713658,15.9975747 Z M2.55143247,12.7548886 C2.06185217,12.7548886 1.66496892,13.1517718 1.66496892,13.6413521 C1.66496892,14.1309324 2.06185217,14.5278157 2.55143247,14.5278157 L12.3362438,14.5278157 L12.3362438,12.7548886 L2.55143247,12.7548886 L2.55143247,12.7548886 Z M2.59993936,1.46975898 C2.08312136,1.47029372 1.66429098,1.8891241 1.66375625,2.40594209 L1.66375625,11.4573291 C1.94528693,11.3430054 2.24636284,11.2845201 2.5502198,11.2851296 L12.3350311,11.2851296 L12.3350311,1.46975898 L2.60236472,1.46975898 L2.59993936,1.46975898 Z" id="形状"></path>
            </g>
        </g>
    </g>
</svg>