<?xml version="1.0" encoding="UTF-8"?>
<svg width="16px" height="16px" viewBox="0 0 16 16" version="1.1" xmlns="http://www.w3.org/2000/svg" xmlns:xlink="http://www.w3.org/1999/xlink">
    <title>个人中心</title>
    <g id="图标" stroke="none" stroke-width="1" fill="none" fill-rule="evenodd">
        <g id="Apple-TV" transform="translate(-42.000000, -430.000000)">
            <g id="个人中心" transform="translate(42.000000, 430.000000)">
                <rect id="矩形备份-37" x="0" y="0" width="16" height="16"></rect>
                <g id="个人中心-" transform="translate(1.000000, 1.000000)" fill="#FFFFFF" fill-rule="nonzero">
                    <path d="M13.9308624,13.3184967 C13.8657374,13.6289967 13.534875,14.0145 12.606875,14.0145 L1.406875,14.0145 C0.886875,14.0145 0.395935059,13.6793671 0.223602295,13.4352417 C0.0512695312,13.1911163 -0.006875,13.008 -1.66521527e-14,12.6145 L0.030875,12.2625 C0.214875,10.1425 2.078875,8.3745 4.630875,7.6785 C3.534875,6.9185 2.806875,5.6545 2.806875,4.2145 C2.806875,1.8945 4.686875,0.0145 7.006875,0.0145 C9.326875,0.0145 11.206875,1.8945 11.206875,4.2145 C11.206875,5.6545 10.478875,6.9185 9.374875,7.6785 C11.926875,8.3665 13.790875,10.1425 13.974875,12.2625 L13.998953,12.6145 C13.998953,12.8465 13.9959874,13.0079967 13.9308624,13.3184967 Z" id="路径"></path>
                </g>
            </g>
        </g>
    </g>
</svg>