<?xml version="1.0" encoding="UTF-8"?>
<svg width="16px" height="16px" viewBox="0 0 16 16" version="1.1" xmlns="http://www.w3.org/2000/svg" xmlns:xlink="http://www.w3.org/1999/xlink">
    <title>29AC690B-0161-4A1B-B23B-FF3533D5E139</title>
    <g id="页面-1" stroke="none" stroke-width="1" fill="none" fill-rule="evenodd">
        <g id="画板" transform="translate(-106.000000, -234.000000)" fill-rule="nonzero">
            <g id="个人中心" transform="translate(106.000000, 234.000000)">
                <rect id="矩形" fill="#000000" opacity="0" x="0" y="0" width="16" height="16"></rect>
                <path d="M10.9335,8.5335 C12.5532368,8.53377605 13.8662239,9.84676319 13.8665,11.4665 L13.8665,13.9 C13.8665,14.1761424 13.6426424,14.4 13.3665,14.4 L2.6335,14.4 C2.35735763,14.4 2.1335,14.1761424 2.1335,13.9 L2.1335,11.4665 C2.13377605,9.84676319 3.44676319,8.53377605 5.0665,8.5335 L10.9335,8.5335 L10.9335,8.5335 Z M10.9335,9.5335 L5.0665,9.5335 C4.03768055,9.53371938 3.18921019,10.3395575 3.136,11.367 L3.1335,11.467 L3.1335,13.4 L12.8665,13.4 L12.8665,11.4665 C12.8662806,10.4376806 12.0604425,9.58921019 11.033,9.536 L10.933,9.5335 L10.9335,9.5335 Z M8.041,1.6 C9.8083112,1.6 11.241,3.0326888 11.241,4.8 C11.241,6.5673112 9.8083112,8 8.041,8 C6.2736888,8 4.841,6.5673112 4.841,4.8 C4.841,3.0326888 6.2736888,1.6 8.041,1.6 Z M8.041,2.6 C7.25501569,2.6 6.52873624,3.01931762 6.13574408,3.69999999 C5.74275193,4.38068236 5.74275193,5.21931764 6.13574408,5.90000001 C6.52873624,6.58068238 7.25501569,7 8.041,7 C9.25602645,7 10.241,6.01502645 10.241,4.8 C10.241,3.58497355 9.25602645,2.6 8.041,2.6 Z" id="形状" fill="#FFFFFF"></path>
            </g>
        </g>
    </g>
</svg>