<?xml version="1.0" encoding="UTF-8"?>
<svg width="16px" height="16px" viewBox="0 0 16 16" version="1.1" xmlns="http://www.w3.org/2000/svg" xmlns:xlink="http://www.w3.org/1999/xlink">
    <title>问题管理</title>
    <g id="图标" stroke="none" stroke-width="1" fill="none" fill-rule="evenodd">
        <g id="Apple-TV" transform="translate(-42.000000, -250.000000)">
            <g id="问题管理" transform="translate(42.000000, 250.000000)">
                <rect id="矩形备份-6" x="0" y="0" width="16" height="16"></rect>
                <path d="M14,2 C14.5522847,2 15,2.44771525 15,3 L15,14 C15,14.5522847 14.5522847,15 14,15 L2,15 C1.44771525,15 1,14.5522847 1,14 L1,3 C1,2.44771525 1.44771525,2 2,2 L4,2 C4,3.1045695 4.8954305,4 6,4 L6,4 L10,4 C11.1045695,4 12,3.1045695 12,2 L12,2 L14,2 Z M7.81417188,12.1036287 C7.48013171,12.1637477 7.23535609,12.4518776 7.23002157,12.7912427 C7.22158248,12.9779542 7.29240247,13.1595439 7.42502157,13.2912427 C7.65870608,13.5373904 8.03392222,13.5837234 8.32046462,13.4018152 C8.60700701,13.219907 8.72473054,12.8606368 8.6014086,12.5444267 C8.47808666,12.2282166 8.14821206,12.0435097 7.81417188,12.1036287 Z M8.19473815,5.00059101 L8.01002167,5.00374267 C7.39434067,4.98901529 6.79836956,5.22128198 6.35502167,5.64874267 C5.98745138,6.02927587 5.75323082,6.51877054 5.68752167,7.04374267 C5.66104153,7.20114725 5.70522361,7.3622257 5.808305,7.48409295 C5.91138638,7.60596019 6.06290527,7.67624783 6.22252167,7.67624267 L6.23002167,7.67624267 C6.50460951,7.67583766 6.73601335,7.47121667 6.77002167,7.19874267 C6.79526912,6.88626255 6.91175867,6.58808407 7.10502167,6.34124267 C7.32796699,6.07400342 7.6595284,5.92154028 8.00752167,5.92624267 C8.32181732,5.90025999 8.6316693,6.01359818 8.85502167,6.23624267 C9.06934637,6.5044218 9.17388725,6.84395628 9.14752167,7.18624267 C9.14448826,7.7378316 8.89281691,8.25862595 8.46252167,8.60374267 C8.16351301,8.86022436 7.90994999,9.16534519 7.71252167,9.50624267 C7.56934936,9.7685609 7.49374195,10.0623988 7.49252167,10.3612427 L7.49252167,10.6662427 C7.49252167,10.7670346 7.57422971,10.8487427 7.67502167,10.8487427 L8.17502167,10.8487427 C8.27483598,10.8473752 8.35503104,10.7660663 8.35502167,10.6662427 L8.35502167,10.5087427 C8.38543439,10.3188536 8.45160491,10.1364605 8.55002167,9.97124267 C8.71998219,9.66457424 8.95353368,9.39778002 9.23502167,9.18874267 C9.55449198,8.93491124 9.8197356,8.61950937 10.0150217,8.26124267 C10.209338,7.90214393 10.3091326,7.49952425 10.3050217,7.09124267 C10.322243,6.52760615 10.100725,5.98288983 9.69502167,5.59124267 C9.27946243,5.22116593 8.74707065,5.01302113 8.19473815,5.00059101 Z" id="形状结合" fill="#FFFFFF"></path>
                <rect id="矩形" fill="#FFFFFF" x="5" y="1" width="6" height="2" rx="1"></rect>
            </g>
        </g>
    </g>
</svg>