<?xml version="1.0" encoding="UTF-8"?>
<svg width="16px" height="16px" viewBox="0 0 16 16" version="1.1" xmlns="http://www.w3.org/2000/svg" xmlns:xlink="http://www.w3.org/1999/xlink">
    <title>流程管理</title>
    <g id="图标" stroke="none" stroke-width="1" fill="none" fill-rule="evenodd">
        <g id="Apple-TV" transform="translate(-42.000000, -538.000000)">
            <g id="流程管理" transform="translate(42.000000, 538.000000)">
                <rect id="矩形" x="0" y="0" width="16" height="16"></rect>
                <path d="M14,1 C14.5522847,1 15,1.44771525 15,2 L15,14 C15,14.5522847 14.5522847,15 14,15 L2,15 C1.44771525,15 1,14.5522847 1,14 L1,2 C1,1.44771525 1.44771525,1 2,1 L14,1 Z M9.5,2 L6.5,2 C6.25454011,2 6.05039163,2.17687516 6.00805567,2.41012437 L6,2.5 L6,3.5 C6,3.74545989 6.17687516,3.94960837 6.41012437,3.99194433 L6.5,4 L9.5,4 C9.74545989,4 9.94960837,3.82312484 9.99194433,3.58987563 L10,3.5 L11.8,3.5 C11.8920475,3.5 11.9695714,3.56218267 11.9928558,3.64683208 L12,3.7 L12,7.3 C12,7.39204746 11.9378173,7.46957137 11.8531679,7.49285581 L11.8,7.5 L10,7.5 L10,7 C10,6.75454011 9.82312484,6.55039163 9.58987563,6.50805567 L9.5,6.5 L6.5,6.5 C6.22385763,6.5 6,6.72385763 6,7 L6,7 L6,7.5 L4,7.5 L3.88337887,7.50672773 C3.42429701,7.56004937 3.06004937,7.92429701 3.00672773,8.38337887 L3,8.5 L3,12.5 L3.00672773,12.6166211 C3.06004937,13.075703 3.42429701,13.4399506 3.88337887,13.4932723 L4,13.5 L6,13.5 C6,13.7454599 6.17687516,13.9496084 6.41012437,13.9919443 L6.5,14 L9.5,14 C9.74545989,14 9.94960837,13.8231248 9.99194433,13.5898756 L10,13.5 L10,12.5 C10,12.2545401 9.82312484,12.0503916 9.58987563,12.0080557 L9.5,12 L6.5,12 C6.25454011,12 6.05039163,12.1768752 6.00805567,12.4101244 L6,12.5 L4.2,12.5 C4.10795254,12.5 4.03042863,12.4378173 4.00714419,12.3531679 L4,12.3 L4,8.7 C4,8.60795254 4.06218267,8.53042863 4.14683208,8.50714419 L4.2,8.5 L6,8.5 L6,9 C6,9.24545989 6.17687516,9.44960837 6.41012437,9.49194433 L6.5,9.5 L9.5,9.5 C9.77614237,9.5 10,9.27614237 10,9 L10,9 L10,8.5 L12,8.5 L12.1166211,8.49327227 C12.575703,8.43995063 12.9399506,8.07570299 12.9932723,7.61662113 L13,7.5 L13,3.5 L12.9932723,3.38337887 C12.9399506,2.92429701 12.575703,2.56004937 12.1166211,2.50672773 L12,2.5 L10,2.5 L9.99194433,2.41012437 C9.94960837,2.17687516 9.74545989,2 9.5,2 Z" id="形状结合" fill="#FFFFFF"></path>
            </g>
        </g>
    </g>
</svg>