<?xml version="1.0" encoding="UTF-8"?>
<svg width="14px" height="14px" viewBox="0 0 14 14" version="1.1" xmlns="http://www.w3.org/2000/svg" xmlns:xlink="http://www.w3.org/1999/xlink">
    <!-- Generator: Sketch 63.1 (92452) - https://sketch.com -->
    <title>B80FEBC1-179F-40F5-9862-9E69A16FCE82</title>
    <desc>Created with Sketch.</desc>
    <g id="页面-1" stroke="none" stroke-width="1" fill="none" fill-rule="evenodd">
        <g id="Apple-TV" transform="translate(-953.000000, -455.000000)" fill-rule="nonzero">
            <g id="流程设计" transform="translate(952.000000, 454.000000)">
                <rect id="矩形" fill="#000000" opacity="0" x="0" y="0" width="16" height="16"></rect>
                <path d="M8,10.3171875 C7.83125,10.3171875 7.7671875,10.2984375 7.6234375,10.225 L7.61875,10.221875 L4.6625,8.696875 C4.3921875,8.5671875 4.2171875,8.2921875 4.2171875,7.990625 C4.2171875,7.690625 4.3921875,7.4140625 4.6625,7.284375 L7.6234375,5.75625 C7.7921875,5.671875 7.90625,5.6640625 8,5.6640625 C8.09375,5.6640625 8.2078125,5.671875 8.3765625,5.75625 L8.38125,5.759375 L11.3421875,7.2875 C11.6140625,7.425 11.7828125,7.69375 11.7828125,7.990625 C11.7828125,8.2875 11.6140625,8.55625 11.3421875,8.69375 L8.421875,10.2015625 C8.2703125,10.3171875 8.109375,10.3171875 8,10.3171875 Z M7.9953125,9.4875 L8,9.4890625 L8.0015625,9.4875 L10.9015625,7.990625 L8.0046875,6.4953125 L8,6.49375 L7.9953125,6.4953125 L5.0984375,7.990625 L7.9953125,9.4875 Z M10.3890625,14.6984375 L5.6109375,14.6984375 C4.85625,14.6984375 4.2421875,14.084375 4.2421875,13.3296875 L4.2421875,12.3734375 C4.2421875,11.61875 4.85625,11.0046875 5.6109375,11.0046875 L10.390625,11.0046875 C11.1453125,11.0046875 11.759375,11.61875 11.759375,12.3734375 L11.759375,13.3296875 C11.759375,14.084375 11.14375,14.6984375 10.3890625,14.6984375 Z M5.6109375,11.83125 C5.3125,11.83125 5.06875,12.075 5.06875,12.3734375 L5.06875,13.3296875 C5.06875,13.628125 5.3125,13.871875 5.6109375,13.871875 L10.390625,13.871875 C10.6890625,13.871875 10.9328125,13.628125 10.9328125,13.3296875 L10.9328125,12.3734375 C10.9328125,12.075 10.6890625,11.83125 10.390625,11.83125 L5.6109375,11.83125 Z M9.4328125,13.3296875 C9.1453125,13.3296875 8.9546875,13.1390625 8.9546875,12.8515625 C8.9546875,12.5640625 9.1453125,12.3734375 9.4328125,12.3734375 C9.7203125,12.3734375 9.9109375,12.5640625 9.9109375,12.8515625 C9.9109375,13.1375 9.7203125,13.3296875 9.4328125,13.3296875 M10.3890625,4.9796875 L5.6109375,4.9796875 C4.85625,4.9796875 4.2421875,4.365625 4.2421875,3.6109375 L4.2421875,2.6546875 C4.2421875,1.9 4.85625,1.2859375 5.6109375,1.2859375 L10.390625,1.2859375 C11.1453125,1.2859375 11.759375,1.9 11.759375,2.6546875 L11.759375,3.6109375 C11.759375,4.365625 11.14375,4.9796875 10.3890625,4.9796875 L10.3890625,4.9796875 Z M5.6109375,2.1125 C5.3125,2.1125 5.06875,2.35625 5.06875,2.6546875 L5.06875,3.6109375 C5.06875,3.909375 5.3125,4.153125 5.6109375,4.153125 L10.390625,4.153125 C10.6890625,4.153125 10.9328125,3.909375 10.9328125,3.6109375 L10.9328125,2.6546875 C10.9328125,2.35625 10.6890625,2.1125 10.390625,2.1125 L5.6109375,2.1125 Z M6.0875,3.1328125 C6.0875,2.8453125 6.278125,2.6546875 6.565625,2.6546875 C6.853125,2.6546875 7.04375,2.8453125 7.04375,3.1328125 C7.04375,3.4203125 6.853125,3.6109375 6.565625,3.6109375 C6.2796875,3.6109375 6.0875,3.41875 6.0875,3.1328125 M3.1109375,8.4046875 L1.4171875,8.4046875 C1.1890625,8.4046875 1.003125,8.2203125 1.003125,7.990625 C1.003125,7.7625 1.1875,7.5765625 1.4171875,7.5765625 L3.1125,7.5765625 C3.340625,7.5765625 3.5265625,7.7609375 3.5265625,7.990625 C3.525,8.2203125 3.340625,8.4046875 3.1109375,8.4046875 Z M2.678125,3.559375 L1.4171875,3.559375 C1.1890625,3.559375 1.003125,3.375 1.003125,3.1453125 C1.003125,2.9171875 1.1875,2.73125 1.4171875,2.73125 L2.678125,2.73125 C2.90625,2.73125 3.0921875,2.915625 3.0921875,3.1453125 C3.090625,3.3734375 2.90625,3.559375 2.678125,3.559375 Z M1.4171875,8.4046875 C1.1890625,8.4046875 1.003125,8.2203125 1.003125,7.990625 L1.003125,3.2390625 C1.003125,3.0109375 1.1875,2.825 1.4171875,2.825 C1.6453125,2.825 1.83125,3.009375 1.83125,3.2390625 L1.83125,7.9921875 C1.8296875,8.2203125 1.6453125,8.4046875 1.4171875,8.4046875 Z M2.65625,4.4625 L2.65625,1.85 L3.9625,3.15625 L2.65625,4.4625 Z M14.5734375,8.4046875 L12.878125,8.4046875 C12.65,8.4046875 12.4640625,8.2203125 12.4640625,7.990625 C12.4640625,7.7625 12.6484375,7.5765625 12.878125,7.5765625 L14.5734375,7.5765625 C14.8015625,7.5765625 14.9875,7.7609375 14.9875,7.990625 C14.9875,8.2203125 14.8015625,8.4046875 14.5734375,8.4046875 Z M14.5734375,13.2515625 L13.3125,13.2515625 C13.084375,13.2515625 12.8984375,13.0671875 12.8984375,12.8375 C12.8984375,12.609375 13.0828125,12.4234375 13.3125,12.4234375 L14.5734375,12.4234375 C14.8015625,12.4234375 14.9875,12.6078125 14.9875,12.8375 C14.9875,13.065625 14.8015625,13.2515625 14.5734375,13.2515625 Z M14.5734375,13.1578125 C14.3453125,13.1578125 14.159375,12.9734375 14.159375,12.74375 L14.159375,7.9921875 C14.159375,7.7640625 14.34375,7.578125 14.5734375,7.578125 C14.8015625,7.578125 14.9875,7.7625 14.9875,7.9921875 L14.9875,12.7453125 C14.9875,12.9734375 14.8015625,13.1578125 14.5734375,13.1578125 Z M13.3328125,11.521875 L13.3328125,14.134375 L12.0265625,12.828125 L13.3328125,11.521875 L13.3328125,11.521875 Z" id="形状" fill="#FFFFFF"></path>
            </g>
        </g>
    </g>
</svg>