<?xml version="1.0" encoding="UTF-8"?>
<svg width="18px" height="18px" viewBox="0 0 18 18" version="1.1" xmlns="http://www.w3.org/2000/svg" xmlns:xlink="http://www.w3.org/1999/xlink">
    <title>BCB72681-E720-4982-9F5F-B63ED6ACFB80</title>
    <g id="页面-1" stroke="none" stroke-width="1" fill="none" fill-rule="evenodd">
        <g id="画板" transform="translate(-211.000000, -56.000000)" fill-rule="nonzero">
            <g id="发布管理" transform="translate(211.000000, 56.000000)">
                <g id="发布" transform="translate(2.000000, 2.000000)">
                    <rect id="矩形" fill="#000000" opacity="0" x="0" y="0" width="16" height="16"></rect>
                    <path d="M6.83878125,14.499125 C6.56264063,14.499125 6.33878125,14.2752656 6.33878125,13.999125 L6.33878125,10.324125 C6.33878125,10.0479844 6.56264063,9.824125 6.83878125,9.824125 C7.11492188,9.824125 7.33878125,10.0479844 7.33878125,10.324125 L7.33878125,13.999125 C7.33878125,14.2752656 7.11492188,14.499125 6.83878125,14.499125 Z" id="路径" fill="#FFFFFF"></path>
                    <path d="M6.95201563,10.718219 C6.83312298,10.7183303 6.71811179,10.6759105 6.62776562,10.598625 C6.41767187,10.4194062 6.39264062,10.1038125 6.57184375,9.89373437 L13.6347344,1.61351562 C13.8139219,1.40345312 14.1295,1.37839062 14.3396094,1.55759375 C14.5497031,1.73679687 14.57475,2.05239062 14.3955312,2.26248437 L7.33265625,10.5426719 C7.23376563,10.6586094 7.0933125,10.718219 6.95201563,10.718219 Z M12.4203906,13.9992813 C12.3441564,13.9992813 12.2689436,13.9817462 12.2005469,13.9480781 L8.47417187,12.1200469 C8.22626562,11.9984219 8.123875,11.6988594 8.24548438,11.4509375 C8.36709375,11.2030313 8.6666875,11.1006406 8.91459375,11.22225 L12.6409687,13.0502813 C12.888875,13.1719063 12.9912656,13.4714688 12.8696562,13.7193906 C12.7828125,13.8964375 12.6051406,13.9992813 12.4203906,13.9992813 L12.4203906,13.9992813 Z M5.06915625,10.1635313 C4.98678696,10.1635313 4.90570703,10.1430748 4.8331875,10.1040156 L1.79492187,8.4738125 C1.55159375,8.34326562 1.46017187,8.04015625 1.59073437,7.79682812 C1.72129687,7.55348437 2.02440625,7.46207812 2.26771875,7.59264062 L5.30598437,9.22284375 C5.5493125,9.35339062 5.64073437,9.6565 5.51017187,9.89982812 C5.41998438,10.0679375 5.24742188,10.1635313 5.06915625,10.1635313 L5.06915625,10.1635313 Z" id="形状" fill="#FFFFFF"></path>
                    <path d="M2.0364375,8.50210937 C1.85389062,8.50210937 1.67803125,8.4018125 1.5899375,8.2278125 C1.46521875,7.9814375 1.56384375,7.68060938 1.81021875,7.55589063 L13.7893125,1.49189063 C14.0357344,1.36717188 14.3365156,1.4658125 14.46125,1.71217188 C14.5859531,1.95854688 14.4873437,2.259375 14.2409531,2.38409375 L2.26185937,8.44809375 C2.19201129,8.48357343 2.11478009,8.50210937 2.0364375,8.50210937 L2.0364375,8.50210937 Z" id="路径" fill="#FFFFFF"></path>
                    <path d="M12.4551563,14.0011563 C12.4329688,14.0011563 12.4105469,13.9996719 12.3879375,13.9966406 C12.1142344,13.9598594 11.9222031,13.7081875 11.9589844,13.4344844 L13.5071719,1.91435938 C13.5439531,1.64067188 13.7955781,1.44864063 14.0693125,1.48540625 C14.3430156,1.5221875 14.5350469,1.77385938 14.4982656,2.04754688 L12.9500781,13.5676719 C12.9163438,13.8187656 12.7016875,14.0011563 12.4551563,14.0011563 L12.4551563,14.0011563 Z" id="路径" fill="#FFFFFF"></path>
                </g>
            </g>
        </g>
    </g>
</svg>