<?xml version="1.0" encoding="UTF-8"?>
<svg width="16px" height="16px" viewBox="0 0 16 16" version="1.1" xmlns="http://www.w3.org/2000/svg" xmlns:xlink="http://www.w3.org/1999/xlink">
    <title>C473E73B-8C81-4D90-A027-0ED97C2C48A6</title>
    <g id="页面-1" stroke="none" stroke-width="1" fill="none" fill-rule="evenodd">
        <g id="画板" transform="translate(-85.000000, -142.000000)" fill-rule="nonzero">
            <g id="报表中心" transform="translate(85.000000, 142.000000)">
                <rect id="矩形" fill="#000000" opacity="0" x="0" y="0" width="16" height="16"></rect>
                <path d="M4.98835389,4.99448573 L0.988649703,4.99448573 L0.988649703,12.9938782 L4.98835389,12.9938782 L4.98835389,4.99448573 Z M3.98840786,11.9939481 L1.98856375,11.9939481 L1.98856375,5.99441578 L3.98840786,5.99441578 L3.98840786,11.9939481 Z M9.98824397,0.994813516 L5.98828394,0.994813516 L5.98828394,12.9938782 L9.98824397,12.9938782 L9.98824397,0.994813516 L9.98824397,0.994813516 Z M8.98831392,11.9939481 L6.988198,11.9939481 L6.988198,1.99472758 L8.98831392,1.99472758 L8.98831392,11.9939481 L8.98831392,11.9939481 Z M10.988126,2.99465762 L10.988126,12.9938782 L14.9878143,12.9938782 L14.9878143,2.99465762 L10.988126,2.99465762 Z M13.9878842,11.9939481 L11.9880561,11.9939481 L11.9880561,3.99457169 L13.9878842,3.99457169 L13.9878842,11.9939481 Z M0.988649703,13.9937602 L14.9878143,13.9937602 L14.9878143,14.9936903 L0.988649703,14.9936903 L0.988649703,13.9937602 Z" id="形状" fill="#FFFFFF"></path>
            </g>
        </g>
    </g>
</svg>