<?xml version="1.0" encoding="UTF-8"?>
<svg width="16px" height="13px" viewBox="0 0 16 13" version="1.1" xmlns="http://www.w3.org/2000/svg" xmlns:xlink="http://www.w3.org/1999/xlink">
    <!-- Generator: Sketch 63.1 (92452) - https://sketch.com -->
    <title>77F89B6C-8440-4BEE-8A72-E1AA0475D009</title>
    <desc>Created with Sketch.</desc>
    <g id="页面-1" stroke="none" stroke-width="1" fill="none" fill-rule="evenodd">
        <g id="Apple-TV" transform="translate(-594.000000, -461.000000)">
            <g id="请求管理" transform="translate(594.000000, 459.000000)">
                <g id="编组">
                    <g id="托管-(1)">
                        <rect id="矩形" x="0" y="0" width="16" height="16"></rect>
                        <path d="M14.1624268,13.6742711 C13.529248,13.5334453 12.7530933,13.3152189 12.2962155,13.2550186 C11.4706105,13.1453679 7.71776279,14.1343739 6.67178145,14.2139244 C5.62580011,14.2934749 4.44759297,13.1905182 3.68003832,12.7755657 C2.91248367,12.3595381 0.448568736,10.7373533 0.448568736,10.7373533 C0.448568736,10.7373533 0.326017993,9.5956964 1.64505099,9.89884823 C2.96408398,10.2020001 4.99584629,11.337207 4.99584629,11.337207 C4.99584629,11.337207 6.45893016,11.7876347 7.49093642,11.4780328 C8.20474074,11.2630315 9.1539715,10.9448296 9.52699876,10.5653523 C9.87530087,10.2106001 9.83660063,9.85262295 9.54312385,9.89884823 C8.93467017,9.99559882 6.59008096,10.2202752 5.9536771,10.019249 C5.31619824,9.81822275 4.95929607,9.0517431 5.23557275,8.58089025 C5.23557275,8.58089025 6.06547778,8.53358996 7.98758943,8.10143734 C9.91077608,7.66928472 10.388079,7.3693579 11.219059,7.74131016 C11.9221133,8.05736207 13.5614982,9.05496812 15.4717848,9.44197047 C15.9383376,12.1090616 14.3376529,13.6635211 14.1624268,13.6742711 L14.1624268,13.6742711 Z" id="路径" fill="#FFFFFF" fill-rule="nonzero"></path>
                    </g>
                </g>
                <line x1="2" y1="3.33333333" x2="8.66666667" y2="3.33333333" id="直线-3" stroke="#FFFFFF" stroke-linecap="round"></line>
                <line x1="2" y1="5.11111111" x2="8.66666667" y2="5.11111111" id="直线-3" stroke="#FFFFFF" stroke-linecap="round"></line>
                <line x1="2" y1="6.88888889" x2="6" y2="6.88888889" id="直线-3" stroke="#FFFFFF" stroke-linecap="round"></line>
            </g>
        </g>
    </g>
</svg>