<?xml version="1.0" encoding="UTF-8"?>
<svg width="16px" height="16px" viewBox="0 0 16 16" version="1.1" xmlns="http://www.w3.org/2000/svg" xmlns:xlink="http://www.w3.org/1999/xlink">
    <title>权限管理</title>
    <g id="图标" stroke="none" stroke-width="1" fill="none" fill-rule="evenodd">
        <g id="Apple-TV" transform="translate(-42.000000, -610.000000)">
            <g id="权限管理" transform="translate(42.000000, 610.000000)">
                <rect id="矩形备份-36" x="0" y="0" width="16" height="16"></rect>
                <path d="M8.00355522,1 C9.20665606,1.80362484 10.7043624,2.26858077 12.2926045,2.26858077 C12.8445179,2.26858077 13.4157185,2.17635294 14.0035552,1.99294613 L14.0035552,1.99294613 L14.0035552,8.06390099 C14.0035552,8.60370555 13.7757604,9.27673135 13.3447934,10.0101838 C12.8936336,10.7780159 12.2172011,11.6132234 11.3886036,12.4255597 C10.6656098,13.1343782 9.81517048,13.8345582 8.99396137,14.3971611 C8.64012768,14.6395524 8.34520698,14.8205992 8.11379076,14.9516644 C8.00220526,15.0148589 7.86092076,15.0162137 7.74799339,14.9549859 C7.51960041,14.8311462 7.22770297,14.6570481 6.87770088,14.419537 C6.08171248,13.8793828 5.25203179,13.1892546 4.54150282,12.4762697 C3.74144032,11.6734607 3.08670408,10.8393749 2.64808999,10.0641861 C2.2264352,9.31899211 2.00355522,8.62729058 2.00355522,8.06390098 L2.00355522,8.06390098 L2.00355522,1.99294611 C2.59137571,2.1763675 3.1625764,2.26858077 3.71448971,2.26858077 C5.30273191,2.26858077 6.8004382,1.80362484 8.00355522,1 Z M8,4 C6.96446609,4 6.125,4.83946609 6.125,5.875 C6.125,6.0039134 6.1380098,6.12978821 6.16278809,6.2513831 L6.16278809,6.2513831 L6,6.25 C5.44771525,6.25 5,6.69771525 5,7.25 L5,7.25 L5,9 C5,9.55228475 5.44771525,10 6,10 L6,10 L10,10 C10.5522847,10 11,9.55228475 11,9 L11,9 L11,7.25 C11,6.69771525 10.5522847,6.25 10,6.25 L10,6.25 L9.83721191,6.2513831 C9.8619902,6.12978821 9.875,6.0039134 9.875,5.875 C9.875,4.83946609 9.03553391,4 8,4 Z M8,7.375 C8.20710678,7.375 8.375,7.54289322 8.375,7.75 L8.375,7.75 L8.375,8.5 L8.36738133,8.57557558 C8.33241398,8.74645675 8.18121843,8.875 8,8.875 C7.79289322,8.875 7.625,8.70710678 7.625,8.5 L7.625,8.5 L7.625,7.75 L7.63261867,7.67442442 C7.66758602,7.50354325 7.81878157,7.375 8,7.375 Z M8,4.75 C8.62132034,4.75 9.125,5.25367966 9.125,5.875 C9.125,6.00686432 9.10231296,6.13342979 9.06062922,6.25100609 L9.06062922,6.25100609 L6.93937078,6.25100609 C6.89768704,6.13342979 6.875,6.00686432 6.875,5.875 C6.875,5.25367966 7.37867966,4.75 8,4.75 Z" id="形状结合" fill="#FFFFFF" fill-rule="nonzero"></path>
            </g>
        </g>
    </g>
</svg>