<?xml version="1.0" encoding="UTF-8"?>
<svg width="16px" height="16px" viewBox="0 0 16 16" version="1.1" xmlns="http://www.w3.org/2000/svg" xmlns:xlink="http://www.w3.org/1999/xlink">
    <title>5EAEB0FB-B3C9-43DE-8F4D-5930A8386C0E</title>
    <g id="页面-1" stroke="none" stroke-width="1" fill="none" fill-rule="evenodd">
        <g id="画板" transform="translate(-221.000000, -146.000000)" fill-rule="nonzero">
            <g id="权限管理" transform="translate(221.000000, 146.000000)">
                <rect id="矩形" fill="#000000" opacity="0" x="0" y="0" width="16" height="16"></rect>
                <path d="M14.6089277,1.38737666 C14.5373283,1.31577722 14.4253394,1.2753878 14.3133506,1.27538781 C10.0045336,1.3710373 8.27513192,0.0969346094 8.26778839,0.0895910781 C8.12275364,-0.0297413125 7.89143241,-0.0297413125 7.74823355,0.0895910781 C7.72436706,0.0895910781 6.12347723,1.27373552 2.15980619,1.27373552 C2.00742791,1.27373552 1.84770611,1.27373552 1.67880489,1.26639198 C1.5594725,1.26639198 1.46217072,1.30678141 1.39057128,1.37838083 C1.30979186,1.45565978 1.2634807,1.56217545 1.26201452,1.67395797 L1.26201452,7.49554245 C1.26201452,7.55979836 1.18128064,13.8366818 7.86756594,15.9828288 C7.90897209,15.9964172 7.95258091,16.0020241 7.99607773,15.9993517 C8.03937657,15.9983749 8.08245182,15.9928366 8.12458953,15.9828288 C14.5850612,13.9651936 14.7282601,7.57632128 14.7374395,7.50472186 L14.7374395,1.67579386 C14.7282601,1.57096495 14.6878707,1.45915969 14.6089277,1.38737666 Z M13.8966052,2.09051978 L13.8966052,7.50270239 C13.8966052,7.55961477 13.7368834,13.291241 7.99607773,15.1656774 C2.02211498,13.1816388 2.0863564,7.74338662 2.0863564,7.51206539 L2.0863564,2.09070337 L2.15062678,2.09070337 C5.55435356,2.09070337 7.33148814,1.28291492 7.98689831,0.890036 C8.65148791,1.28291492 10.421279,2.09070337 13.8231699,2.09070337 L13.8966052,2.09051978 Z" id="形状" fill="#FFFFFF"></path>
                <path d="M10.2560495,7.09697228 L9.80442233,7.09697228 L9.80442233,6.19371792 C9.80442233,5.20050531 8.99112623,4.38904509 7.9997495,4.38904509 C7.00837277,4.38904509 6.19507667,5.20050531 6.19507667,6.19371792 L6.19507667,7.09697228 L5.74161361,7.09697228 C5.49264631,7.09807816 5.2910923,7.29963217 5.28998644,7.54859947 L5.28998644,11.159781 C5.2910923,11.4087483 5.49264631,11.6103023 5.74161361,11.6114082 L10.2542136,11.6114082 C10.5031809,11.6103023 10.7047349,11.4087483 10.7058453,11.159781 L10.7058453,7.54878305 C10.706378,7.42914146 10.6592266,7.3142158 10.5748161,7.22942629 C10.4904056,7.14463678 10.3756923,7.09697108 10.2560495,7.09697228 Z M6.87068155,6.19371792 C6.87068155,5.56217422 7.36636991,5.06464998 7.9997495,5.06464998 C8.63312909,5.06464998 9.12881744,5.56033834 9.12881744,6.19371792 L9.12881744,7.09697228 L6.87068155,7.09697228 L6.87068155,6.19371792 Z M10.0302359,10.9321315 L5.9674272,10.9321315 L5.9674272,7.77276075 L10.0302359,7.77276075 L10.0302359,10.9321315 Z" id="形状" fill="#FFFFFF"></path>
                <path d="M7.9997495,8.22475511 C7.61604998,8.22475511 7.32230812,8.51849636 7.32230812,8.90219588 C7.32198421,9.14427886 7.45072637,9.36817827 7.66011117,9.48967839 L7.66011117,10.1432527 C7.66011117,10.3298158 7.81135048,10.4810551 7.99791362,10.4810551 C8.18447676,10.4810551 8.33571606,10.3298158 8.33571606,10.1432527 L8.33571606,9.48967839 C8.53949906,9.37768953 8.67352706,9.15187595 8.67352706,8.90219588 C8.67535439,8.51849636 8.38161313,8.22475511 7.9997495,8.22475511 Z" id="路径" fill="#FFFFFF"></path>
            </g>
        </g>
    </g>
</svg>