<?xml version="1.0" encoding="UTF-8"?>
<svg width="16px" height="16px" viewBox="0 0 16 16" version="1.1" xmlns="http://www.w3.org/2000/svg" xmlns:xlink="http://www.w3.org/1999/xlink">
    <!-- Generator: Sketch 63.1 (92452) - https://sketch.com -->
    <title>7AE28364-1800-4B73-B832-B904B829C048</title>
    <desc>Created with Sketch.</desc>
    <g id="页面-1" stroke="none" stroke-width="1" fill="none" fill-rule="evenodd">
        <g id="Apple-TV" transform="translate(-1324.000000, -460.000000)" fill-rule="nonzero">
            <g id="脚本管理" transform="translate(1324.000000, 460.000000)">
                <rect id="矩形" fill="#000000" opacity="0" x="0" y="0" width="16" height="16"></rect>
                <path d="M14.3611429,5.08571428 L1.63771428,5.08571428 L1.63771428,4.02628572 L14.3611429,4.02628572 L14.3611429,1.94628572 C14.3611429,1.63069443 14.1053056,1.37485714 13.7897143,1.37485714 L2.20914286,1.37485714 C1.89355157,1.37485714 1.63771428,1.63069443 1.63771428,1.94628572 L1.62285714,13.5257143 C1.62224651,13.6774529 1.68225432,13.8231531 1.78955062,13.9304494 C1.89684692,14.0377457 2.04254707,14.0977535 2.19428572,14.0971429 L12.7234286,14.0971429 C12.9129031,14.0971103 13.0879987,14.1981751 13.1827453,14.3622594 C13.277492,14.5263438 13.277492,14.7285134 13.1827453,14.8925977 C13.0879987,15.056682 12.9129031,15.1577143 12.7234286,15.1577143 L1.70628572,15.1577143 L1.704,15.1577143 C1.07326379,15.1570835 0.562285719,14.6455937 0.562285719,14.0148571 L0.577142859,1.456 C0.577142859,0.82481743 1.08881743,0.313142859 1.72,0.313142859 L14.2777143,0.313142859 C14.9088969,0.313142859 15.4205714,0.82481743 15.4205714,1.456 L15.4205714,12.4445714 C15.407423,12.7275656 15.1741566,12.9502457 14.8908571,12.9502457 C14.6075577,12.9502457 14.3742913,12.7275656 14.3611429,12.4445714 L14.3611429,5.08571428 L14.3611429,5.08571428 Z M3.22857142,3.37257142 C3.03345278,3.38163698 2.84914798,3.28270356 2.74887728,3.11507523 C2.64860657,2.94744691 2.64860657,2.73826737 2.74887728,2.57063905 C2.84914798,2.40301072 3.03345278,2.3040773 3.22857142,2.31314286 C3.51156561,2.32629127 3.73424568,2.55955767 3.73424568,2.84285714 C3.73424568,3.12615661 3.51156561,3.35942302 3.22857142,3.37257142 L3.22857142,3.37257142 Z M6.40914286,3.37257142 C6.21402421,3.38163698 6.02971942,3.28270356 5.92944871,3.11507523 C5.82917801,2.94744691 5.82917801,2.73826737 5.92944871,2.57063905 C6.02971942,2.40301072 6.21402421,2.3040773 6.40914286,2.31314286 C6.69213704,2.32629127 6.91481712,2.55955767 6.91481712,2.84285714 C6.91481712,3.12615661 6.69213704,3.35942302 6.40914286,3.37257142 L6.40914286,3.37257142 Z M4.81828572,3.37257142 C4.62316707,3.38163698 4.43886228,3.28270356 4.33859157,3.11507523 C4.23832087,2.94744691 4.23832087,2.73826737 4.33859157,2.57063905 C4.43886228,2.40301072 4.62316707,2.3040773 4.81828572,2.31314286 C5.1012799,2.32629127 5.32395998,2.55955767 5.32395998,2.84285714 C5.32395998,3.12615661 5.1012799,3.35942302 4.81828572,3.37257142 L4.81828572,3.37257142 Z M5.36342858,7.28114286 C5.47542858,7.17028572 5.77142858,7.17028572 5.88342858,7.28114286 C5.99542858,7.392 5.99542858,7.74171428 5.88342858,7.86171428 L4.15428572,9.54285714 L5.84,11.1394286 C5.952,11.2502857 5.96685714,11.5668572 5.84,11.6914286 C5.68685714,11.8434286 5.37371428,11.8194286 5.26857142,11.7165714 L3.29942858,9.75085714 C3.18800633,9.63856916 3.18800633,9.45743084 3.29942858,9.34514286 L5.36342858,7.28114286 Z M10.7302857,7.28114286 L12.7942857,9.34514286 C12.9064661,9.45756376 12.9064661,9.6395791 12.7942857,9.752 L10.824,11.7165714 C10.72,11.8194286 10.424,11.8845714 10.2525714,11.7165714 C10.0914286,11.5565714 10.1417143,11.2274286 10.2525714,11.1165714 L11.9462857,9.54285714 L10.1977143,7.84457142 C10.0857143,7.72457142 10.0491429,7.42857142 10.1977143,7.28114286 C10.3428571,7.13828572 10.6182857,7.17028572 10.7302857,7.28114286 Z M8.61028572,6.86971428 C8.66742858,6.72114286 8.94514286,6.62742856 9.12228572,6.69371428 C9.29142858,6.75657142 9.39085714,6.99085714 9.344,7.13942858 L7.472,12.2948571 C7.41485714,12.4434286 7.14857142,12.5017143 6.99885714,12.4468571 C6.84,12.3908571 6.66742856,12.1725714 6.72457142,12.024 L8.61028572,6.86971428 Z" id="形状" fill="#FFFFFF"></path>
            </g>
        </g>
    </g>
</svg>