<?xml version="1.0" encoding="UTF-8"?>
<svg width="16px" height="16px" viewBox="0 0 16 16" version="1.1" xmlns="http://www.w3.org/2000/svg" xmlns:xlink="http://www.w3.org/1999/xlink">
    <title>服务请求</title>
    <g id="图标" stroke="none" stroke-width="1" fill="none" fill-rule="evenodd">
        <g id="Apple-TV" transform="translate(-42.000000, -214.000000)">
            <g id="服务请求" transform="translate(42.000000, 214.000000)">
                <rect id="矩形备份-4" x="0" y="0" width="16" height="16"></rect>
                <path d="M14.5233093,5.12512513 L13.9776547,5.12512513 C13.9248494,4.51651652 13.7664336,3.93993994 13.5024072,3.37937938 C13.1855755,2.72272272 12.7455315,2.13013013 12.1822752,1.61761762 C11.6190189,1.10510511 10.950152,0.704704705 10.2284798,0.432432432 C9.47160412,0.144144144 8.66192315,0 7.83464042,0 C7.00735769,0 6.19767672,0.144144144 5.44080104,0.432432432 C4.70152711,0.704704705 4.05026198,1.10510511 3.48700566,1.61761762 C2.92374933,2.13013013 2.48370533,2.72272272 2.16687364,3.37937938 C1.90284724,3.93993994 1.7444314,4.53253253 1.69162612,5.12512513 L1.46280324,5.12512513 C0.653122269,5.12512513 0.00185714286,5.7017017 0.00185714286,6.39039039 L0.00185714286,11.1151151 C0.00185714286,11.8198198 0.653122269,12.3803804 1.46280324,12.3803804 L3.09976693,12.3803804 C3.9094479,12.3803804 4.56071303,11.8038038 4.56071303,11.1151151 L4.56071303,6.39039039 C4.56071303,5.68568569 3.9094479,5.12512513 3.09976693,5.12512513 L2.60691765,5.12512513 C2.83574053,2.72272272 5.08876583,0.832832833 7.83464042,0.832832833 C10.580515,0.832832833 12.8335403,2.72272272 13.0623632,5.12512513 L12.8863456,5.12512513 C12.0766646,5.12512513 11.4253995,5.7017017 11.4253995,6.39039039 L11.4253995,11.1151151 C11.4253995,11.8198198 12.0766646,12.3803804 12.8863456,12.3803804 L13.2383808,12.3803804 C13.150372,13.1971972 12.7279298,13.8058058 12.0062576,14.1901902 C11.7598329,14.3183183 11.5310101,14.3983984 11.3197889,14.4464464 C11.3021872,14.3823824 11.2669837,14.3343343 11.2317801,14.2702703 C11.0029573,13.8858859 10.5277097,13.6296296 10.0172587,13.6296296 L9.04916187,13.6296296 C8.29228619,13.6296296 7.69382634,14.1581582 7.69382634,14.8148148 C7.69382634,15.4714715 8.30988795,16 9.04916187,16 L10.0172587,16 C10.5629132,16 11.0557625,15.7117117 11.2669837,15.2952953 C11.5838153,15.2312312 12.0062576,15.1191191 12.4110981,14.9109109 C13.150372,14.5425425 14.0128582,13.8058058 14.1536723,12.3643644 L14.540911,12.3643644 C15.350592,12.3643644 16.0018571,11.7877878 16.0018571,11.0990991 L16.0018571,6.39039039 C15.9842554,5.7017017 15.3153885,5.12512513 14.5233093,5.12512513 L14.5233093,5.12512513 Z" id="路径" fill="#FFFFFF" fill-rule="nonzero"></path>
            </g>
        </g>
    </g>
</svg>