<?xml version="1.0" encoding="UTF-8"?>
<svg width="14px" height="16px" viewBox="0 0 14 16" version="1.1" xmlns="http://www.w3.org/2000/svg" xmlns:xlink="http://www.w3.org/1999/xlink">
    <!-- Generator: Sketch 63.1 (92452) - https://sketch.com -->
    <title>A9169E47-93C5-4AD4-9F55-7581E4BF86D6</title>
    <desc>Created with Sketch.</desc>
    <g id="页面-1" stroke="none" stroke-width="1" fill="none" fill-rule="evenodd">
        <g id="Apple-TV" transform="translate(-720.000000, -457.000000)">
            <g id="服务设置" transform="translate(719.000000, 457.000000)">
                <rect id="矩形" fill="#D8D8D8" opacity="0" x="0" y="0" width="16" height="16"></rect>
                <g id="setting" transform="translate(1.000000, 3.000000)" fill="#FFFFFF" fill-rule="nonzero">
                    <path d="M9.86805773,6.27099727 L9.09581801,5.64596239 C9.13236676,5.43389698 9.15123063,5.21736704 9.15123063,5.0008371 C9.15123063,4.78430716 9.13236676,4.56777722 9.09581801,4.35571181 L9.86805773,3.73067694 C9.98713592,3.63468944 10.0307586,3.47843072 9.97770398,3.33779787 L9.96709305,3.30877839 C9.75369551,2.74513087 9.43772567,2.22724482 9.02743647,1.76963 L9.00621462,1.74619119 C8.90482131,1.63346169 8.74094143,1.59104861 8.59238845,1.64015849 L7.633868,1.96272113 C7.28017042,1.68815224 6.88520812,1.4716223 6.45841303,1.31982812 L6.2733113,0.37111446 C6.24501549,0.224900943 6.12357932,0.111055304 5.96913138,0.0842680953 L5.93729859,0.0786874268 C5.32304379,-0.0262291423 4.67695621,-0.0262291423 4.06270141,0.0786874268 L4.03086862,0.0842680953 C3.87642068,0.111055304 3.75498451,0.224900943 3.7266887,0.37111446 L3.54040798,1.32429265 C3.11714987,1.47608684 2.72454555,1.69150064 2.37320595,1.9649534 L1.40761155,1.64015849 C1.26023756,1.59104861 1.09517869,1.63234555 0.993785381,1.74619119 L0.972563526,1.76963 C0.56227433,2.22836096 0.246304489,2.746247 0.0329069477,3.30877839 L0.0222960203,3.33779787 C-0.0307586171,3.47731458 0.0128640847,3.6335733 0.131942271,3.73067694 L0.913613929,4.36240862 C0.877065178,4.57224175 0.859380299,4.78653943 0.859380299,4.99972097 C0.859380299,5.21401864 0.877065178,5.42831631 0.913613929,5.63703332 L0.131942271,6.268765 C0.0128640847,6.3647525 -0.0307586171,6.52101122 0.0222960203,6.66164406 L0.0329069477,6.69066354 C0.246304489,7.25319493 0.56227433,7.77219711 0.972563526,8.22981193 L0.993785381,8.25325074 C1.09517869,8.36598024 1.25905857,8.40839333 1.40761155,8.35928344 L2.37320595,8.03448853 C2.72454555,8.30794129 3.11714987,8.52447123 3.54040798,8.67514928 L3.7266887,9.62832747 C3.75498451,9.77454099 3.87642068,9.88838663 4.03086862,9.91517384 L4.06270141,9.92075451 C4.3704183,9.97321279 4.68520915,10 5,10 C5.31479085,10 5.63076069,9.97321279 5.93729859,9.92075451 L5.96913138,9.91517384 C6.12357932,9.88838663 6.24501549,9.77454099 6.2733113,9.62832747 L6.45841303,8.67961382 C6.88520812,8.52781963 7.28017042,8.31240583 7.633868,8.0367208 L8.59238845,8.35928344 C8.73976244,8.40839333 8.90482131,8.36709638 9.00621462,8.25325074 L9.02743647,8.22981193 C9.43772567,7.77108098 9.75369551,7.25319493 9.96709305,6.69066354 L9.97770398,6.66164406 C10.0307586,6.52435962 9.98713592,6.3681009 9.86805773,6.27099727 L9.86805773,6.27099727 Z M8.25873373,4.48741559 C8.28820853,4.65595178 8.30353542,4.82895251 8.30353542,5.00195323 C8.30353542,5.17495396 8.28820853,5.34795468 8.25873373,5.51649088 L8.18092026,5.96406049 L9.06162724,6.67726994 C8.92840115,6.96858084 8.7598053,7.24314973 8.55937667,7.49874435 L7.46527215,7.13153636 L7.09506868,7.41949886 C6.81328961,7.63826106 6.49967775,7.81014566 6.16012807,7.9306881 L5.71093214,8.09029522 L5.49989258,9.17294492 C5.16859585,9.2086612 4.83022516,9.2086612 4.49774943,9.17294492 L4.28670988,8.08806295 L3.84105092,7.92622356 C3.50503822,7.80568112 3.19260535,7.63379653 2.91318426,7.41615045 L2.54298079,7.12707182 L1.44180232,7.49762822 C1.24137369,7.2420336 1.07395683,6.96634857 0.939551751,6.6761538 L1.82969067,5.95624756 L1.75305619,5.50979407 C1.72476038,5.34349015 1.70943349,5.17160556 1.70943349,5.00195323 C1.70943349,4.83118478 1.72358139,4.66041632 1.75305619,4.49411239 L1.82969067,4.04765891 L0.939551751,3.32775266 C1.07277784,3.03644177 1.24137369,2.76187287 1.44180232,2.50627825 L2.54298079,2.87683464 L2.91318426,2.58775601 C3.19260535,2.37010994 3.50503822,2.19822535 3.84105092,2.07768291 L4.28788887,1.91807579 L4.49892842,0.833193817 C4.83022516,0.797477538 5.16859585,0.797477538 5.50107158,0.833193817 L5.71211113,1.91584352 L6.16130706,2.07545064 C6.49967775,2.19599308 6.8144686,2.36787767 7.09624767,2.58663988 L7.46645114,2.87460238 L8.56055567,2.50739439 C8.7609843,2.76298901 8.92840115,3.03867403 9.06280623,3.3288688 L8.18209925,4.04207824 L8.25873373,4.48741559 Z M5.00117899,2.92594453 C3.85519882,2.92594453 2.92615317,3.80545789 2.92615317,4.89033986 C2.92615317,5.97522183 3.85519882,6.8547352 5.00117899,6.8547352 C6.14715916,6.8547352 7.07620481,5.97522183 7.07620481,4.89033986 C7.07620481,3.80545789 6.14715916,2.92594453 5.00117899,2.92594453 Z M5.93494061,5.77431776 C5.68499432,6.00982198 5.35369758,6.14040962 5.00117899,6.14040962 C4.6486604,6.14040962 4.31736367,6.00982198 4.06741737,5.77431776 C3.81865007,5.53769742 3.68070802,5.22406384 3.68070802,4.89033986 C3.68070802,4.55661588 3.81865007,4.24298231 4.06741737,4.00636196 C4.31736367,3.76974162 4.6486604,3.6402701 5.00117899,3.6402701 C5.35369758,3.6402701 5.68499432,3.76974162 5.93494061,4.00636196 C6.18370791,4.24298231 6.32164997,4.55661588 6.32164997,4.89033986 C6.32164997,5.22406384 6.18370791,5.53769742 5.93494061,5.77431776 Z" id="形状"></path>
                </g>
                <polygon id="多边形" stroke="#FFFFFF" stroke-width="0.5" points="13 1 14.7320508 2 14.7320508 4 13 5 11.2679492 4 11.2679492 2"></polygon>
                <polygon id="多边形备份" stroke="#FFFFFF" stroke-width="0.5" points="13 11 14.7320508 12 14.7320508 14 13 15 11.2679492 14 11.2679492 12"></polygon>
            </g>
        </g>
    </g>
</svg>