<?xml version="1.0" encoding="UTF-8"?>
<svg width="16px" height="16px" viewBox="0 0 16 16" version="1.1" xmlns="http://www.w3.org/2000/svg" xmlns:xlink="http://www.w3.org/1999/xlink">
    <title>A97BD935-DC3B-4600-B3D6-EEF2C8117555</title>
    <g id="页面-1" stroke="none" stroke-width="1" fill="none" fill-rule="evenodd">
        <g id="画板" transform="translate(-86.000000, -58.000000)" fill-rule="nonzero">
            <g id="服务请求" transform="translate(86.000000, 58.000000)">
                <rect id="矩形" fill="#000000" opacity="0" x="0" y="0" width="16" height="16"></rect>
                <path d="M8,2 C4.6859375,2 2,4.6859375 2,8 L2,13.625 C2,13.8328125 2.1671875,14 2.375,14 L5.25,14 C5.8015625,14 6.25,13.5515625 6.25,13 L6.25,9.75 C6.25,9.1984375 5.8015625,8.75 5.25,8.75 L3.125,8.75 L3.125,8 C3.125,5.3078125 5.3078125,3.125 8,3.125 C10.6921875,3.125 12.875,5.3078125 12.875,8 L12.875,8.75 L10.75,8.75 C10.1984375,8.75 9.75,9.1984375 9.75,9.75 L9.75,13 C9.75,13.5515625 10.1984375,14 10.75,14 L13.625,14 C13.8328125,14 14,13.8328125 14,13.625 L14,8 C14,4.6859375 11.3140625,2 8,2 Z M5.125,9.875 L5.125,12.875 L3.125,12.875 L3.125,9.875 L5.125,9.875 Z M12.875,12.875 L10.875,12.875 L10.875,9.875 L12.875,9.875 L12.875,12.875 Z" id="形状" fill="#FFFFFF"></path>
            </g>
        </g>
    </g>
</svg>