<?xml version="1.0" encoding="UTF-8"?>
<svg width="13px" height="15px" viewBox="0 0 13 15" version="1.1" xmlns="http://www.w3.org/2000/svg" xmlns:xlink="http://www.w3.org/1999/xlink">
    <!-- Generator: Sketch 63.1 (92452) - https://sketch.com -->
    <title>BF74023C-8DE5-453E-B6B9-1941FFB08EFB</title>
    <desc>Created with Sketch.</desc>
    <g id="页面-1" stroke="none" stroke-width="1" fill="none" fill-rule="evenodd">
        <g id="任务统计" transform="translate(-2.000000, 0.000000)">
            <path d="M13.9166667,0.5 L2.68181688,0.680193636 C2.56800641,0.801411886 2.5,0.969514413 2.5,1.15384615 L2.5,13.8461538 C2.5,14.0304856 2.56800641,14.1985881 3.08333333,14.5 L14.5,14 L14.5,1.15384615 C14.5,0.969514413 14.4319936,0.801411886 13.9166667,0.5 Z" id="路径" stroke="#FFFFFF"></path>
            <path d="M11.5,10 C11.7761424,10 12,10.2238576 12,10.5 C12,10.7761424 11.7761424,11 11.5,11 L6.5,11 C6.22385763,11 6,10.7761424 6,10.5 C6,10.2238576 6.22385763,10 6.5,10 L11.5,10 Z M4.5,10 C4.77614237,10 5,10.2238576 5,10.5 C5,10.7761424 4.77614237,11 4.5,11 C4.22385763,11 4,10.7761424 4,10.5 C4,10.2238576 4.22385763,10 4.5,10 Z M12.5,7 C12.7761424,7 13,7.22385763 13,7.5 C13,7.77614237 12.7761424,8 12.5,8 L6.5,8 C6.22385763,8 6,7.77614237 6,7.5 C6,7.22385763 6.22385763,7 6.5,7 L12.5,7 Z M4.5,7 C4.77614237,7 5,7.22385763 5,7.5 C5,7.77614237 4.77614237,8 4.5,8 C4.22385763,8 4,7.77614237 4,7.5 C4,7.22385763 4.22385763,7 4.5,7 Z M11.5,4 C11.7761424,4 12,4.22385763 12,4.5 C12,4.77614237 11.7761424,5 11.5,5 L6.5,5 C6.22385763,5 6,4.77614237 6,4.5 C6,4.22385763 6.22385763,4 6.5,4 L11.5,4 Z M4.5,4 C4.77614237,4 5,4.22385763 5,4.5 C5,4.77614237 4.77614237,5 4.5,5 C4.22385763,5 4,4.77614237 4,4.5 C4,4.22385763 4.22385763,4 4.5,4 Z" id="形状结合" fill="#FFFFFF"></path>
        </g>
    </g>
</svg>