<?xml version="1.0" encoding="UTF-8"?>
<svg width="16px" height="16px" viewBox="0 0 16 16" version="1.1" xmlns="http://www.w3.org/2000/svg" xmlns:xlink="http://www.w3.org/1999/xlink">
    <title>工单中心</title>
    <g id="图标" stroke="none" stroke-width="1" fill="none" fill-rule="evenodd">
        <g id="Apple-TV" transform="translate(-42.000000, -358.000000)">
            <g id="工单中心" transform="translate(42.000000, 358.000000)">
                <rect id="矩形" x="0" y="0" width="16" height="16"></rect>
                <path d="M14,2 C14.5522847,2 15,2.44771525 15,3 L15,14 C15,14.5522847 14.5522847,15 14,15 L2,15 C1.44771525,15 1,14.5522847 1,14 L1,3 C1,2.44771525 1.44771525,2 2,2 L3,2 C3,3.1045695 3.8954305,4 5,4 L5,4 L11,4 C12.1045695,4 13,3.1045695 13,2 L13,2 L14,2 Z M11.5,11 L4.5,11 C4.22385763,11 4,11.2238576 4,11.5 C4,11.7454599 4.17687516,11.9496084 4.41012437,11.9919443 L4.5,12 L11.5,12 C11.7761424,12 12,11.7761424 12,11.5 C12,11.2238576 11.7761424,11 11.5,11 Z M11.5,8.5 L4.5,8.5 C4.22385763,8.5 4,8.72385763 4,9 C4,9.24545989 4.17687516,9.44960837 4.41012437,9.49194433 L4.5,9.5 L11.5,9.5 C11.7761424,9.5 12,9.27614237 12,9 C12,8.72385763 11.7761424,8.5 11.5,8.5 Z M11.5,6 L4.5,6 C4.22385763,6 4,6.22385763 4,6.5 C4,6.74545989 4.17687516,6.94960837 4.41012437,6.99194433 L4.5,7 L11.5,7 C11.7761424,7 12,6.77614237 12,6.5 C12,6.22385763 11.7761424,6 11.5,6 Z" id="形状结合" fill="#FFFFFF"></path>
                <rect id="矩形" fill="#FFFFFF" x="4" y="1" width="8" height="2" rx="1"></rect>
            </g>
        </g>
    </g>
</svg>