<?xml version="1.0" encoding="UTF-8"?>
<svg width="14px" height="14px" viewBox="0 0 14 14" version="1.1" xmlns="http://www.w3.org/2000/svg" xmlns:xlink="http://www.w3.org/1999/xlink">
    <!-- Generator: Sketch 63.1 (92452) - https://sketch.com -->
    <title>A638A335-D328-402B-AECD-99BC8FD5A512</title>
    <desc>Created with Sketch.</desc>
    <g id="页面-1" stroke="none" stroke-width="1" fill="none" fill-rule="evenodd">
        <g id="Apple-TV" transform="translate(-1197.000000, -459.000000)" fill-rule="nonzero">
            <g id="工单中心" transform="translate(1196.000000, 458.000000)">
                <rect id="矩形" fill="#000000" opacity="0" x="0" y="0" width="16" height="16"></rect>
                <path d="M11,6 L5,6 C4.72385763,6 4.5,6.22385763 4.5,6.5 C4.5,6.77614237 4.72385763,7 5,7 L11,7 C11.2761424,7 11.5,6.77614237 11.5,6.5 C11.5,6.22385763 11.2761424,6 11,6 Z M11,9 L5,9 C4.72385763,9 4.5,9.22385763 4.5,9.5 C4.5,9.77614237 4.72385763,10 5,10 L11,10 C11.2761424,10 11.5,9.77614237 11.5,9.5 C11.5,9.22385763 11.2761424,9 11,9 Z M13,1 L3,1 C2.173,1 1.5,1.673 1.5,2.5 L1.5,13.5 C1.5,14.327 2.173,15 3,15 L13,15 C13.827,15 14.5,14.327 14.5,13.5 L14.5,2.5 C14.5,1.673 13.827,1 13,1 Z M5,2 L11,2 L11,3.5 L5,3.5 L5,2 Z M13.5,13.5 C13.5,13.7761424 13.2761424,14 13,14 L3,14 C2.7245,14 2.5,13.776 2.5,13.5 L2.5,2.5 C2.5,2.2245 2.7245,2 3,2 L4,2 L4,3.5 C4,4.0515 4.4485,4.5 5,4.5 L11,4.5 C11.5515,4.5 12,4.0515 12,3.5 L12,2 L13,2 C13.276,2 13.5,2.2245 13.5,2.5 L13.5,13.5 Z" id="形状" fill="#FFFFFF"></path>
            </g>
        </g>
    </g>
</svg>