<?xml version="1.0" encoding="UTF-8"?>
<svg width="16px" height="16px" viewBox="0 0 16 16" version="1.1" xmlns="http://www.w3.org/2000/svg" xmlns:xlink="http://www.w3.org/1999/xlink">
    <title>用户管理</title>
    <g id="图标" stroke="none" stroke-width="1" fill="none" fill-rule="evenodd">
        <g id="Apple-TV" transform="translate(-42.000000, -574.000000)">
            <g id="用户管理" transform="translate(42.000000, 574.000000)">
                <rect id="矩形" x="0" y="0" width="16" height="16"></rect>
                <path d="M14,1 C14.5522847,1 15,1.44771525 15,2 L15,14 C15,14.5522847 14.5522847,15 14,15 L2,15 C1.44771525,15 1,14.5522847 1,14 L1,2 C1,1.44771525 1.44771525,1 2,1 L14,1 Z M10.0040453,6 C8.67828282,6 7.60395805,7.07428571 7.60395805,8.4 C7.60395805,9.22285714 8.01997318,9.94514286 8.64628166,10.3794286 C7.18794293,10.7771429 6.12276136,11.7874286 6.01761468,12.9988571 L6.01761468,12.9988571 L5.99997118,13.2 C5.99604247,13.4248571 6.02926912,13.529495 6.12774857,13.6689953 C6.22622801,13.8084955 6.50677532,14 6.80392898,14 L6.80392898,14 L13.2041616,14 C13.7344666,14 13.9235377,13.7797124 13.9607534,13.6022838 C13.997969,13.4248553 13.9996637,13.3325714 13.9996637,13.2 L13.9996637,13.2 L13.9859043,12.9988571 C13.8807576,11.7874286 12.8155761,10.7725714 11.3572373,10.3794286 C11.9881174,9.94514286 12.4041325,9.22285714 12.4041325,8.4 C12.4041325,7.07428571 11.3298078,6 10.0040453,6 Z M4.5,6.5 L2.5,6.5 L2.41012437,6.50805567 C2.17687516,6.55039163 2,6.75454011 2,7 C2,7.27614237 2.22385763,7.5 2.5,7.5 L2.5,7.5 L4.5,7.5 L4.58987563,7.49194433 C4.82312484,7.44960837 5,7.24545989 5,7 C5,6.72385763 4.77614237,6.5 4.5,6.5 L4.5,6.5 Z M7.5,4.5 L2.5,4.5 L2.41012437,4.50805567 C2.17687516,4.55039163 2,4.75454011 2,5 C2,5.27614237 2.22385763,5.5 2.5,5.5 L2.5,5.5 L7.5,5.5 L7.58987563,5.49194433 C7.82312484,5.44960837 8,5.24545989 8,5 C8,4.72385763 7.77614237,4.5 7.5,4.5 L7.5,4.5 Z M7.5,2.5 L2.5,2.5 L2.41012437,2.50805567 C2.17687516,2.55039163 2,2.75454011 2,3 C2,3.27614237 2.22385763,3.5 2.5,3.5 L2.5,3.5 L7.5,3.5 L7.58987563,3.49194433 C7.82312484,3.44960837 8,3.24545989 8,3 C8,2.72385763 7.77614237,2.5 7.5,2.5 L7.5,2.5 Z" id="形状结合" fill="#FFFFFF"></path>
            </g>
        </g>
    </g>
</svg>