<?xml version="1.0" encoding="UTF-8"?>
<svg width="16px" height="16px" viewBox="0 0 16 16" version="1.1" xmlns="http://www.w3.org/2000/svg" xmlns:xlink="http://www.w3.org/1999/xlink">
    <title>C9F7F9D2-D724-41B8-9733-6D024268304F</title>
    <g id="页面-1" stroke="none" stroke-width="1" fill="none" fill-rule="evenodd">
        <g id="画板" transform="translate(-287.000000, -146.000000)" fill-rule="nonzero">
            <g id="用户管理" transform="translate(287.000000, 146.000000)">
                <rect id="矩形" fill="#000000" opacity="0" x="0" y="0" width="16" height="16"></rect>
                <path d="M12.984375,1.546875 L4.109375,1.546875 C3.334375,1.546875 2.703125,2.178125 2.703125,2.953125 L2.703125,5.015625 C2.703125,5.2234375 2.8703125,5.390625 3.078125,5.390625 C3.2859375,5.390625 3.453125,5.2234375 3.453125,5.015625 L3.453125,2.953125 C3.453125,2.590625 3.746875,2.296875 4.109375,2.296875 L12.984375,2.296875 C13.346875,2.296875 13.640625,2.590625 13.640625,2.953125 L13.640625,13.0671875 C13.640625,13.4296875 13.346875,13.7234375 12.984375,13.7234375 L4.109375,13.7234375 C3.746875,13.7234375 3.453125,13.4296875 3.453125,13.0671875 L3.453125,10.953125 C3.453125,10.7453125 3.2859375,10.578125 3.078125,10.578125 C2.8703125,10.578125 2.703125,10.7453125 2.703125,10.953125 L2.703125,13.0671875 C2.703125,13.8421875 3.334375,14.4734375 4.109375,14.4734375 L12.984375,14.4734375 C13.759375,14.4734375 14.390625,13.8421875 14.390625,13.0671875 L14.390625,2.953125 C14.390625,2.178125 13.759375,1.546875 12.984375,1.546875 Z" id="路径" fill="#FFFFFF"></path>
                <path d="M1.9015625,6.6890625 L4.2546875,6.6890625 C4.4625,6.6890625 4.6296875,6.521875 4.6296875,6.3140625 C4.6296875,6.10625 4.4625,5.9390625 4.2546875,5.9390625 L1.9015625,5.9390625 C1.69375,5.9390625 1.5265625,6.10625 1.5265625,6.3140625 C1.5265625,6.521875 1.69375,6.6890625 1.9015625,6.6890625 Z M1.9015625,8.3671875 L4.2546875,8.3671875 C4.4625,8.3671875 4.6296875,8.2 4.6296875,7.9921875 C4.6296875,7.784375 4.4625,7.6171875 4.2546875,7.6171875 L1.9015625,7.6171875 C1.69375,7.6171875 1.5265625,7.784375 1.5265625,7.9921875 C1.5265625,8.1984375 1.69375,8.3671875 1.9015625,8.3671875 Z M4.6296875,9.6703125 C4.6296875,9.4625 4.4625,9.2953125 4.2546875,9.2953125 L1.9015625,9.2953125 C1.69375,9.2953125 1.5265625,9.4625 1.5265625,9.6703125 C1.5265625,9.878125 1.69375,10.0453125 1.9015625,10.0453125 L4.2546875,10.0453125 C4.4625,10.0453125 4.6296875,9.8765625 4.6296875,9.6703125 Z M5.2609375,11.4 C5.190625,11.5953125 5.2921875,11.809375 5.4875,11.8796875 C5.5296875,11.8953125 5.571875,11.9015625 5.6140625,11.9015625 C5.7671875,11.9015625 5.9125,11.80625 5.9671875,11.653125 C6.5,10.175 7.7359375,9.21875 9.115625,9.21875 C10.578125,9.21875 11.596875,10.0171875 12.23125,11.6609375 C12.30625,11.8546875 12.5234375,11.95 12.715625,11.8765625 C12.909375,11.8015625 13.0046875,11.584375 12.93125,11.3921875 C12.590625,10.5078125 12.1296875,9.8140625 11.5625,9.3296875 C11.2640625,9.075 10.9359375,8.8765625 10.578125,8.734375 C11.271875,8.2640625 11.7296875,7.46875 11.7296875,6.56875 C11.7296875,5.128125 10.5578125,3.95625 9.1171875,3.95625 C7.6765625,3.95625 6.5046875,5.128125 6.5046875,6.56875 C6.5046875,7.48125 6.975,8.2859375 7.6859375,8.7546875 C7.359375,8.890625 7.046875,9.071875 6.75625,9.3 C6.0828125,9.8234375 5.5671875,10.55 5.2609375,11.4 L5.2609375,11.4 Z M7.2515625,6.5703125 C7.2515625,5.5421875 8.0875,4.7078125 9.1140625,4.7078125 C10.140625,4.7078125 10.9765625,5.54375 10.9765625,6.5703125 C10.9765625,7.596875 10.140625,8.4328125 9.1140625,8.4328125 C8.0875,8.4328125 7.2515625,7.596875 7.2515625,6.5703125 L7.2515625,6.5703125 Z" id="形状" fill="#FFFFFF"></path>
            </g>
        </g>
    </g>
</svg>