<?xml version="1.0" encoding="UTF-8"?>
<svg width="16px" height="11px" viewBox="0 0 16 11" version="1.1" xmlns="http://www.w3.org/2000/svg" xmlns:xlink="http://www.w3.org/1999/xlink">
    <title>BE2D1AB8-0149-4964-B44C-13AC9FB36F91</title>
    <g id="页面-1" stroke="none" stroke-width="1" fill="none" fill-rule="evenodd">
        <g id="阿里云" fill="#999999" fill-rule="nonzero">
            <path d="M14.8148148,0 C15.4693745,0 16,0.547207532 16,1.22222223 L16,9.7777778 C16,10.4527925 15.4693745,11 14.8148148,11 L8.88888889,11 L9.48148147,8.55555557 L13.6296296,7.94444446 L13.6296296,3.05555557 L9.48148147,2.44444446 L8.88888889,0 L14.8148148,0 L14.8148148,0 Z M2.37037036,7.94444446 L6.51851853,8.55555557 L7.11111111,11 L1.18518519,11 C0.530625497,11 0,10.4527925 0,9.7777778 L0,1.22222223 C0,0.898068742 0.124867367,0.587191735 0.347132706,0.357980604 C0.569398046,0.128769473 0.870854537,3.55271368e-15 1.18518519,3.55271368e-15 L7.11111111,3.55271368e-15 L6.51851853,2.44444446 L2.37037036,3.05555557 L2.37037036,7.94444446 L2.37037036,7.94444446 Z M4.74074075,6.11111113 L4.74074075,4.8888889 L11.2592592,4.8888889 L11.2592592,6.11111113 L4.74074075,6.11111113 Z" id="形状"></path>
        </g>
    </g>
</svg>