<?xml version="1.0" encoding="UTF-8"?>
<svg width="16px" height="16px" viewBox="0 0 16 16" version="1.1" xmlns="http://www.w3.org/2000/svg" xmlns:xlink="http://www.w3.org/1999/xlink">
    <title>4DA4114E-FC96-439D-A7B9-DFA0AAC43CB2</title>
    <g id="图标" stroke="none" stroke-width="1" fill="none" fill-rule="evenodd" opacity="0.85">
        <g id="应用蓝图列表" transform="translate(-24.000000, -132.000000)">
            <g id="左侧菜单（蓝图管理）" transform="translate(0.000000, 52.000000)">
                <g id="编组-5" transform="translate(11.000000, 70.000000)">
                    <g id="菜单项/默认" transform="translate(1.000000, 0.000000)">
                        <g id="应用蓝图" transform="translate(12.000000, 10.000000)">
                            <rect id="矩形" fill="#D8D8D8" opacity="0" x="0" y="0" width="16" height="16"></rect>
                            <path d="M7,8 C7.55228475,8 8,8.44771525 8,9 L8,10 C9.1045695,10 10,10.8954305 10,12 C10,13.1045695 9.1045695,14 8,14 L8,15 C8,15.4733869 7.67106635,15.8699473 7.22929083,15.9735893 L7.11662113,15.9932723 L7,16 L6,16 C5.44771525,16 5,15.5522847 5,15 C5,14.8195102 5.04781689,14.6501885 5.13147368,14.5040122 L5.195,14.406 L5.26706173,14.3034322 C5.41449516,14.0712274 5.5,13.7955991 5.5,13.5 C5.5,12.6715729 4.82842712,12 4,12 C3.17157288,12 2.5,12.6715729 2.5,13.5 C2.5,13.8012219 2.58878867,14.0817061 2.74162222,14.3167087 L2.79552185,14.3939878 C2.92381104,14.5621378 3,14.7721715 3,15 C3,15.5522847 2.55228475,16 2,16 L1,16 C0.44771525,16 0,15.5522847 0,15 L0,9 C0,8.44771525 0.44771525,8 1,8 L7,8 Z M10.7217436,13.8237135 C10.9720546,13.7070987 11.2695067,13.815481 11.3861214,14.0657921 C11.5027361,14.3161031 11.3943538,14.6135552 11.1440428,14.7301699 C10.830482,14.8762514 10.4990899,15.0041326 10.1499877,15.1139103 C9.88656247,15.1967462 9.60586241,15.0503496 9.52302652,14.7869244 C9.44019062,14.5234993 9.58658717,14.2427992 9.85001235,14.1599633 C10.1579731,14.0631229 10.4485097,13.9510074 10.7217436,13.8237135 Z M12.8514074,12.095273 C13.0130508,11.8713846 13.325586,11.8209249 13.5494745,11.9825683 C13.7733629,12.1442116 13.8238226,12.4567469 13.6621792,12.6806353 C13.4482336,12.9769665 13.2106999,13.2513735 12.94978,13.5035744 C12.7512285,13.6954909 12.4346917,13.6901122 12.2427752,13.4915608 C12.0508587,13.2930094 12.0562374,12.9764726 12.2547889,12.7845561 C12.4731567,12.5734854 12.6719622,12.3438184 12.8514074,12.095273 Z M8.25,0.75 C9.14746272,0.75 9.875,1.47753728 9.875,2.375 C9.875,2.66119124 9.8004841,2.93770403 9.64666875,3.20493383 L9.56474518,3.33068813 L9.49666043,3.4266453 C9.37692234,3.61523042 9.3125,3.83352875 9.3125,4.0625 C9.3125,4.71833814 9.84416186,5.25 10.5,5.25 C11.1558381,5.25 11.6875,4.71833814 11.6875,4.0625 C11.6875,3.82921373 11.620617,3.60711586 11.5055718,3.42973648 L11.4575214,3.36004688 C11.243239,3.07918456 11.125,2.73540201 11.125,2.375 C11.125,1.47753728 11.8525373,0.75 12.75,0.75 L13.875,0.75 C14.7724627,0.75 15.5,1.47753728 15.5,2.375 L15.5,9.125 C15.5,10.0224627 14.7724627,10.75 13.875,10.75 L10.7461657,10.75 C10.4700233,10.75 10.2461657,10.5261424 10.2461657,10.25 C10.2461657,9.97385763 10.4700233,9.75 10.7461657,9.75 L13.875,9.75 C14.220178,9.75 14.5,9.47017797 14.5,9.125 L14.5,2.375 C14.5,2.02982203 14.220178,1.75 13.875,1.75 L12.75,1.75 C12.404822,1.75 12.125,2.02982203 12.125,2.375 C12.125,2.47946662 12.1503648,2.5793319 12.2031456,2.67561001 L12.3348301,2.87110593 C12.5636661,3.22297277 12.6875,3.63418718 12.6875,4.0625 C12.6875,5.27062289 11.7081229,6.25 10.5,6.25 C9.29187711,6.25 8.3125,5.27062289 8.3125,4.0625 C8.3125,3.64224605 8.43171134,3.2382924 8.66543537,2.87120069 L8.73604836,2.7713025 L8.79313359,2.68463174 C8.84657856,2.59124549 8.875,2.48577955 8.875,2.375 C8.875,2.02982203 8.59517797,1.75 8.25,1.75 L7.07984626,1.75010931 L6.98124883,1.7664955 C6.70164688,1.83209105 6.5,2.08334209 6.5,2.375 L6.5,4 L6,4 C5.03350169,4 4.25,4.78350169 4.25,5.75 C4.25,6.06521442 4.33300453,6.36710788 4.48842344,6.63255932 C4.6279467,6.87086138 4.54787065,7.17714932 4.30956859,7.31667257 C4.07126652,7.45619582 3.76497859,7.37611978 3.62545533,7.13781771 C3.38090093,6.7201252 3.25,6.24402906 3.25,5.75 C3.25,4.45622184 4.14343451,3.37111648 5.34698802,3.07799947 L5.5,3.045 L5.5,2.375 C5.5,1.66705535 5.95617622,1.05146569 6.63273796,0.828768973 L6.78100279,0.787171442 L6.96500472,0.758398626 L7.125,0.75 L8.25,0.75 Z" id="形状结合" fill="#595959" fill-rule="nonzero"></path>
                        </g>
                    </g>
                </g>
            </g>
        </g>
    </g>
</svg>