<?xml version="1.0" encoding="UTF-8"?>
<svg width="16px" height="16px" viewBox="0 0 16 16" version="1.1" xmlns="http://www.w3.org/2000/svg" xmlns:xlink="http://www.w3.org/1999/xlink">
    <title>2BE50B8C-E935-4E03-B25F-233F396098DC</title>
    <g id="图标" stroke="none" stroke-width="1" fill="none" fill-rule="evenodd">
        <g id="应用蓝图列表" transform="translate(-240.000000, -69.000000)">
            <g id="页面标题" transform="translate(220.000000, 52.000000)">
                <g id="面包屑图标-蓝图管理" transform="translate(20.000000, 16.000000)">
                    <g transform="translate(0.000000, 1.000000)" id="应用蓝图">
                        <rect id="矩形" fill="#FFFFFF" opacity="0" x="0" y="0" width="16" height="16"></rect>
                        <path d="M14,3 C14.5522847,3 15,3.44771525 15,4 L15,12 C15,12.5522847 14.5522847,13 14,13 L2,13 C1.44771525,13 1,12.5522847 1,12 L1,4 C1,3.44771525 1.44771525,3 2,3 L14,3 Z M6.5,4.5 L3.5,4.5 C3.22385763,4.5 3,4.72385763 3,5 L3,11 C3,11.2761424 3.22385763,11.5 3.5,11.5 L6.5,11.5 C6.77614237,11.5 7,11.2761424 7,11 L7,5 C7,4.72385763 6.77614237,4.5 6.5,4.5 Z M12.5,4.5 L8.5,4.5 C8.22385763,4.5 8,4.72385763 8,5 L8,6 C8,6.27614237 8.22385763,6.5 8.5,6.5 L12.5,6.5 C12.7761424,6.5 13,6.27614237 13,6 L13,5 C13,4.72385763 12.7761424,4.5 12.5,4.5 Z" id="形状结合" fill-opacity="0.25" fill="#000000"></path>
                        <path d="M10.6,7.5 C10.9313708,7.5 11.2,7.76862915 11.2,8.1 L12.7083333,8.1 C12.8694164,8.1 13,8.23431458 13,8.4 L13,11.2 C13,11.3656854 12.8694164,11.5 12.7083333,11.5 L8.49166667,11.5 C8.33058361,11.5 8.2,11.3656854 8.2,11.2 L8.2,10.9 C8.2,10.7343146 8.33058361,10.6 8.49166667,10.6 C8.55811666,10.6 8.61937647,10.6228567 8.66842024,10.6613434 L8.69095995,10.6775133 C8.7595024,10.7233634 8.84131028,10.75 8.92916667,10.75 C9.17079124,10.75 9.36666667,10.5485281 9.36666667,10.3 C9.36666667,10.0514719 9.17079124,9.85 8.92916667,9.85 C8.84295027,9.85 8.76255867,9.87565145 8.69483229,9.91988148 L8.66491667,9.9415 L8.63632979,9.9605579 C8.59369501,9.98565493 8.54430954,10 8.49166667,10 C8.33058361,10 8.2,9.86568542 8.2,9.7 L8.2,8.4 L8.20196225,8.36501366 L8.20770312,8.33121275 C8.23793204,8.1986801 8.35359548,8.1 8.49166667,8.1 L10,8.1 C10,7.80176624 10.2175896,7.55435325 10.5026769,7.50785299 Z" id="形状结合" fill="#FFFFFF"></path>
                    </g>
                </g>
            </g>
        </g>
    </g>
</svg>