<?xml version="1.0" encoding="UTF-8"?>
<svg width="17px" height="16px" viewBox="0 0 17 16" version="1.1" xmlns="http://www.w3.org/2000/svg" xmlns:xlink="http://www.w3.org/1999/xlink">
    <title>64504A82-294B-4421-BDA8-0D718FBF7D3F</title>
    <g id="图标" stroke="none" stroke-width="1" fill="none" fill-rule="evenodd" opacity="0.85">
        <g id="应用蓝图列表" transform="translate(-23.000000, -170.000000)">
            <g id="左侧菜单（蓝图管理）" transform="translate(0.000000, 52.000000)">
                <g id="编组-5" transform="translate(11.000000, 70.000000)">
                    <g id="菜单导航/亮色/一级菜单展开" transform="translate(1.000000, 38.000000)">
                        <g id="蓝图实例" transform="translate(11.630561, 10.000000)">
                            <rect id="矩形" fill="#D8D8D8" opacity="0" x="0.369439455" y="0" width="16" height="16"></rect>
                            <path d="M14.0128775,14.5 C14.6825216,14.5 15.2466399,13.9996205 15.384436,13.3170954 L15.9901112,10.3170954 C16.0447595,10.0464144 15.8696304,9.78268298 15.5989494,9.72803474 C15.3282684,9.67338649 15.064537,9.8485156 15.0098888,10.1191966 L14.4042136,13.1191966 C14.3574987,13.3505823 14.1890481,13.5 14.0128775,13.5 L2.00887502,13.5 C1.83270445,13.5 1.66425381,13.3505823 1.61753894,13.1191966 L1.01186375,10.1191966 C1.00398944,10.0801939 1,10.0401857 1,10 C1,9.72385763 0.776142375,9.5 0.5,9.5 C0.223857625,9.5 0,9.72385763 0,10 C0,10.1065717 0.0106000919,10.2128751 0.0316412984,10.3170954 L0.637316483,13.3170954 C0.775112668,13.9996205 1.33923092,14.5 2.00887502,14.5 L14.0128775,14.5 Z M14.8694395,5 C14.8694395,3.8954305 13.974009,3 12.8694395,3 L12.8694395,2 C12.8694395,1.52661307 12.5405058,1.13005271 12.0987303,1.02641071 L11.9860606,1.00672773 L11.8694395,1 L8.86943945,1 C8.3171547,1 7.86943945,1.44771525 7.86943945,2 C7.86943945,2.18048985 7.91725635,2.34981146 8.00091314,2.49598785 L8.06443945,2.594 L8.13650119,2.69656784 C8.28393462,2.92877257 8.36943945,3.20440092 8.36943945,3.5 C8.36943945,4.32842712 7.69786658,5 6.86943945,5 C6.04101233,5 5.36943945,4.32842712 5.36943945,3.5 C5.36943945,3.19877811 5.45822813,2.91829393 5.61106167,2.68329127 L5.6649613,2.60601224 C5.7932505,2.4378622 5.86943945,2.22782854 5.86943945,2 C5.86943945,1.44771525 5.4217242,1 4.86943945,1 L3.86943945,1 C3.3171547,1 2.86943945,1.44771525 2.86943945,2 L2.86943945,8 C2.86943945,8.55228475 3.3171547,9 3.86943945,9 L11.8694395,9 C12.4217242,9 12.8694395,8.55228475 12.8694395,8 L12.8694395,7 C13.974009,7 14.8694395,6.1045695 14.8694395,5 Z" id="形状结合" fill="#595959" fill-rule="nonzero"></path>
                        </g>
                    </g>
                </g>
            </g>
        </g>
    </g>
</svg>