<?xml version="1.0" encoding="UTF-8"?>
<svg width="16px" height="16px" viewBox="0 0 16 16" version="1.1" xmlns="http://www.w3.org/2000/svg" xmlns:xlink="http://www.w3.org/1999/xlink">
    <title>B025D5C1-DADC-4A97-BB35-C8E41D0D368A</title>
    <g id="图标" stroke="none" stroke-width="1" fill="none" fill-rule="evenodd" opacity="0.85">
        <g id="应用蓝图列表" transform="translate(-24.000000, -208.000000)">
            <g id="左侧菜单（蓝图管理）" transform="translate(0.000000, 52.000000)">
                <g id="编组-5" transform="translate(11.000000, 70.000000)">
                    <g id="菜单导航/亮色/二级菜单未选中备份-5" transform="translate(0.000000, 76.000000)">
                        <g id="蓝图资源" transform="translate(13.000000, 10.000000)">
                            <rect id="矩形备份-6" fill="#D8D8D8" opacity="0" x="0" y="0" width="16" height="16"></rect>
                            <g id="菜单栏-库存-组装拆卸" transform="translate(1.000000, 1.000000)" stroke="#595959">
                                <path d="M6,0.5 C6.69035594,0.5 7.31535594,0.779822031 7.76776695,1.23223305 C8.32730904,1.79177513 8.62284607,2.61532227 8.45150357,3.5 L13,3.5 L13.5,7 C12.2202721,7.08821757 11.8697241,7 11.5,7 C10.9477153,7 10.4477153,7.22385763 10.0857864,7.58578644 C9.72385763,7.94771525 9.5,8.44771525 9.5,9 C9.5,9.55228475 9.72385763,10.0522847 10.0857864,10.4142136 C10.4477153,10.7761424 10.9477153,11 11.5,11 C11.9018019,11 12.2758649,10.8813784 12.5893055,10.6775329 L13.5,14 L1,14.5 L0.5,4 L3.54849643,3.5 C3.37715393,2.61532227 3.67269096,1.79177513 4.23223305,1.23223305 C4.68464406,0.779822031 5.30964406,0.5 6,0.5 Z" id="形状结合" transform="translate(7.000000, 7.500000) scale(-1, 1) translate(-7.000000, -7.500000) "></path>
                            </g>
                        </g>
                    </g>
                </g>
            </g>
        </g>
    </g>
</svg>