<?xml version="1.0" encoding="UTF-8"?>
<svg width="16px" height="16px" viewBox="0 0 16 16" version="1.1" xmlns="http://www.w3.org/2000/svg" xmlns:xlink="http://www.w3.org/1999/xlink">
    <title>BB815809-73FD-4A75-B830-6CBC4B091096</title>
    <g id="图标" stroke="none" stroke-width="1" fill="none" fill-rule="evenodd" opacity="0.85">
        <g id="环境详情-蓝图实例" transform="translate(-24.000000, -209.000000)" fill-rule="nonzero">
            <g id="左侧菜单" transform="translate(0.000000, 52.000000)">
                <g id="编组-5" transform="translate(12.000000, 70.000000)">
                    <g id="菜单导航/亮色/二级菜单未选中" transform="translate(0.000000, 76.000000)">
                        <g id="变更历史" transform="translate(12.000000, 11.000000)">
                            <rect id="矩形" fill="#727272" opacity="0" x="0" y="0" width="16" height="16"></rect>
                            <path d="M3.5625,4.0625 C3.52248192,4.10251808 3.5,4.15679424 3.5,4.21338835 L3.5,4.78661165 C3.5,4.84320576 3.52248192,4.89748192 3.5625,4.9375 C3.60251808,4.97751808 3.65679424,5 3.71338835,5 L10.5366117,5 C10.5932058,5 10.6474819,4.97751808 10.6875,4.9375 C10.7275181,4.89748192 10.75,4.84320576 10.75,4.78661165 L10.75,4.21338835 C10.75,4.15679424 10.7275181,4.10251808 10.6875,4.0625 C10.6474819,4.02248192 10.5932058,4 10.5366117,4 L3.71338835,4 C3.65679424,4 3.60251808,4.02248192 3.5625,4.0625 Z M7.625,7.03661165 L7.625,6.46338835 C7.625,6.40679424 7.60251808,6.35251808 7.5625,6.3125 C7.52248192,6.27248192 7.46820576,6.25 7.41161165,6.25 L3.71338835,6.25 C3.65679424,6.25 3.60251808,6.27248192 3.5625,6.3125 C3.52248192,6.35251808 3.5,6.40679424 3.5,6.46338835 L3.5,7.03661165 C3.5,7.09320576 3.52248192,7.14748192 3.5625,7.1875 C3.60251808,7.22751808 3.65679424,7.25 3.71338835,7.25 L7.41161165,7.25 C7.46820576,7.25 7.52248192,7.22751808 7.5625,7.1875 C7.60251808,7.14748192 7.625,7.09320576 7.625,7.03661165 Z M7.5,14.3125 L1.25,14.3125 L1.25,14.3125 L1.25,1.3125 L13,1.3125 L13,7.1875 C13,7.46364237 13.2238576,7.6875 13.5,7.6875 L13.625,7.6875 C13.9011424,7.6875 14.125,7.46364237 14.125,7.1875 L14.125,1.1875 C14.125,0.63521525 13.6772847,0.1875 13.125,0.1875 L1.125,0.1875 C0.57271525,0.1875 0.125,0.63521525 0.125,1.1875 L0.125,14.9375 L0.125,14.9375 C0.125,15.2140625 0.3484375,15.4375 0.625,15.4375 L7.5,15.4375 C7.77614237,15.4375 8,15.2136424 8,14.9375 L8,14.8125 C8,14.5363576 7.77614237,14.3125 7.5,14.3125 Z" id="形状" fill="#595959"></path>
                            <g id="time-circle-fill" transform="translate(8.000000, 8.000000)">
                                <rect id="矩形" fill="#000000" opacity="0" x="0" y="0" width="8" height="8"></rect>
                                <path d="M4,0.5 C2.0671875,0.5 0.5,2.0671875 0.5,4 C0.5,5.9328125 2.0671875,7.5 4,7.5 C5.9328125,7.5 7.5,5.9328125 7.5,4 C7.5,2.0671875 5.9328125,0.5 4,0.5 Z M4.86519557,5.24589966 L3.77578125,4.4515625 L3.77578125,4.4515625 C3.759375,4.43984375 3.75,4.42109375 3.75,4.40078125 L3.75,2.43789063 C3.75,2.2996037 3.8621037,2.1875 4.00039063,2.1875 C4.13867755,2.1875 4.25078125,2.2996037 4.25078125,2.43789063 L4.25078125,4.18359375 L4.25078125,4.18359375 L5.16147777,4.84202861 C5.27301923,4.92267325 5.29806606,5.07847086 5.21742143,5.19001232 C5.21708464,5.19047813 5.21674625,5.19094278 5.21640625,5.19140625 C5.13435697,5.30325237 4.97727906,5.32762439 4.86519557,5.24589966 Z" id="形状" fill="#595959"></path>
                            </g>
                        </g>
                    </g>
                </g>
            </g>
        </g>
    </g>
</svg>