<?xml version="1.0" encoding="UTF-8"?>
<svg width="14px" height="16px" viewBox="0 0 14 16" version="1.1" xmlns="http://www.w3.org/2000/svg" xmlns:xlink="http://www.w3.org/1999/xlink">
    <title>920B772D-BBD5-4CF3-9BFB-791D95332D1B</title>
    <g id="页面-1" stroke="none" stroke-width="1" fill="none" fill-rule="evenodd">
        <path d="M7,0 C3.62836363,0 0,1.01672727 0,3.25018181 L0,12.7498182 C0,14.9825455 3.62836363,16 7,16 C10.3716364,16 14,14.9825454 14,12.7498182 L14,3.25018181 C14,1.01672727 10.3709091,0 7,0 Z M13,12.7498182 C13,13.992 10.3141818,15 7,15 C3.68654546,15 1,13.992 1,12.7498182 L1,10.8814545 C2.03345454,11.9469091 4.52436364,12.5003636 7,12.5003636 C9.47490909,12.5003636 11.9665455,11.9469091 13,10.8814545 L13,12.7498182 Z M13,9.74981818 L12.9978182,9.74981818 C12.9978182,9.75418182 13,9.76145455 13,9.76509091 C13,10.9992727 10.3141818,11.9992727 7,11.9992727 C3.68654546,11.9992727 1,10.9992727 1,9.76509091 C1,9.76072727 1.00218182,9.75345454 1.00218182,9.74981818 L1,9.74981818 L1,7.88145454 C2.03345454,8.94545453 4.52436364,9.49963635 7,9.49963635 C9.47490909,9.49963635 11.9665455,8.94545453 13,7.88145454 L13,9.74981818 Z M13,6.74981818 L12.9978182,6.74981818 L13,6.76509091 C13,7.99927272 10.3141818,8.99927273 7,8.99927273 C3.68654546,8.99927273 1,7.99927272 1,6.76509091 L1.00218182,6.74981818 L1,6.74981818 L1,5.03199999 C2.31054545,6.03054546 4.71200001,6.50036363 7,6.50036363 C9.28799999,6.50036363 11.6894545,6.03054544 13,5.03272727 L13,6.74981818 Z M7,5.49963636 C3.68654546,5.49963636 1,4.49163636 1,3.24945454 C1,2.00654545 3.68654546,0.999272711 7,0.999272711 C10.3141818,0.999272711 13,2.00581817 13,3.24945454 C13,4.49236364 10.3141818,5.49963636 7,5.49963636 Z M11.5003636,12.5003636 C11.7774545,12.5003636 12.0007273,12.7236364 12.0007273,13.0007273 C12.0007273,13.2778182 11.7774545,13.5010909 11.5003636,13.5010909 C11.2232727,13.5010909 11,13.2770909 11,13 C11,12.7229091 11.2232727,12.5003636 11.5003636,12.5003636 Z M11.5003636,9.49963637 C11.7774545,9.49963637 12.0007273,9.7229091 12.0007273,10 C12.0007273,10.2770909 11.7774545,10.5003637 11.5003636,10.5003637 C11.2232727,10.5003637 11,10.2770909 11,10 C11,9.72290909 11.2232727,9.49963637 11.5003636,9.49963637 Z M11.5003636,6.50036363 C11.7774545,6.50036363 12.0007273,6.72363636 12.0007273,7.00072727 C12.0007273,7.27781818 11.7774545,7.50109091 11.5003636,7.50109091 C11.2232727,7.50109091 11,7.27636364 11,6.99999999 C11,6.72363635 11.2232727,6.50036363 11.5003636,6.50036363 Z" id="Datasource" fill="#999999" fill-rule="nonzero"></path>
    </g>
</svg>