<?xml version="1.0" encoding="UTF-8"?>
<svg width="16px" height="16px" viewBox="0 0 16 16" version="1.1" xmlns="http://www.w3.org/2000/svg" xmlns:xlink="http://www.w3.org/1999/xlink">
    <title>1C6F8CBA-2D8C-40E9-B8C7-4CFD4225D949</title>
    <g id="页面-1" stroke="none" stroke-width="1" fill="none" fill-rule="evenodd">
        <g id="dns-" fill-rule="nonzero">
            <rect id="矩形" fill="#000000" opacity="0" x="0" y="0" width="16" height="16"></rect>
            <path d="M8.936,10.664 L9.832,10.664 L9.832,6.064 L8.896,6.064 L8.896,8.928 L7.064,6.096 L7.064,6.064 L6.136,6.064 L6.136,10.664 L7.072,10.664 L7.072,7.768 L8.904,10.632 L8.904,10.664 L8.936,10.664 Z M3.136,5 C3.672,4.136 4.432,3.432 5.336,2.968 C5.136,3.536 4.904,4.304 4.736,5.2 L6.24,5.2 C6.376,4.296 6.608,3.336 6.944,2.4 L6.88,2.4 C7.248,2.336 7.616,2.304 8.016,2.304 C8.416,2.304 8.784,2.336 9.152,2.44 C9.488,3.376 9.688,4.376 9.856,5.24 L11.352,5.24 C11.184,4.344 10.952,3.608 10.752,3.04 C11.616,3.504 12.352,4.208 12.888,5.04 C12.888,5.104 12.92,5.144 12.92,5.208 L14.8,5.208 C13.704,2.544 11.064,0.671974458 8,0.671974458 C4.896,0.664 2.264,2.536 1.168,5.2 L3.072,5.2 C3.064,5.136 3.104,5.032 3.136,5 Z M15.336,7.904 L12.568,7.904 L12.568,7 L15.232,7 C15.2,6.664 15.136,6.336 15.064,6.104 L11.664,6.104 L11.664,8.872 L14.432,8.872 L14.432,9.808 L11.664,9.808 L11.664,10.672 L14.864,10.672 C15.168,9.904 15.264,9.136 15.296,8.44 L15.296,8.84 L15.336,7.904 L15.336,7.904 Z M4.304,9.736 L4.304,7 C4.304,7 4.24,6.064 3.368,6.064 L0.936,6.064 C0.672,7.096 0.44,8.896 1.104,10.664 L3.368,10.664 C3.4,10.664 4.304,10.664 4.304,9.736 L4.304,9.736 Z M3.4,9.768 L1.568,9.768 L1.568,6.968 L3.4,6.968 L3.4,9.768 Z M10.768,12.936 C10.936,12.504 11.032,12.04 11.136,11.64 L9.672,11.64 C9.44,12.704 9.176,13.408 9.104,13.608 C8.736,13.672 8.368,13.712 7.968,13.712 C7.6,13.712 7.264,13.68 6.936,13.608 C6.904,13.544 6.6,12.84 6.368,11.64 L4.896,11.64 C4.992,12.104 5.128,12.536 5.296,13.008 C4.632,12.672 4.064,12.176 3.6,11.64 L1.6,11.64 C2.864,13.84 5.232,15.336 8,15.336 C10.736,15.336 13.136,13.832 14.4,11.64 L12.336,11.64 C11.904,12.168 11.4,12.6 10.768,12.936 Z" id="形状" fill="#999999"></path>
        </g>
    </g>
</svg>