<?xml version="1.0" encoding="UTF-8"?>
<svg width="19px" height="16px" viewBox="0 0 19 16" version="1.1" xmlns="http://www.w3.org/2000/svg" xmlns:xlink="http://www.w3.org/1999/xlink">
    <title>ED82757E-8C76-4625-A9C7-52214215E3FA</title>
    <g id="页面-1" stroke="none" stroke-width="1" fill="none" fill-rule="evenodd">
        <g id="easyops-logo" fill="#999999">
            <path d="M9.23090602,15.7496457 C6.86725296,15.7496457 4.94438419,13.8023417 4.94438419,11.408652 L4.94438419,10.4529076 C4.94438419,9.72913189 5.52370403,9.14245021 6.23839758,9.14245021 C6.95297402,9.14245021 7.53241097,9.72913189 7.53241097,10.4529076 L7.53241097,11.408652 C7.53241097,12.3570436 8.29429795,13.1286124 9.23090602,13.1286124 C10.1675141,13.1286124 10.9294011,12.3570436 10.9294011,11.408652 L10.9294011,10.4529076 C10.9294011,9.72913189 11.508838,9.14245021 12.2234145,9.14245021 C12.938108,9.14245021 13.5174278,9.72913189 13.5174278,10.4529076 L13.5174278,11.408652 C13.5174278,13.8023417 11.5945591,15.7496457 9.23090602,15.7496457" id="Fill-20"></path>
            <path d="M17.1707965,5.02160143 C16.8273267,5.02160143 16.5160609,5.15833965 16.284778,5.37987217 C15.8921239,5.63532241 15.4144515,5.7905612 14.8617145,5.7905612 C14.3105,5.7905612 13.9382223,5.63615256 13.5484959,5.38200685 C13.4367774,5.22071979 13.2978906,5.08054236 13.1379248,4.96859017 C12.8910668,4.57770624 12.7426944,4.19678415 12.7426944,3.64591769 C12.7426944,3.09137483 12.8922379,2.60419304 13.1409695,2.20868396 C13.3618301,1.97410617 13.4982577,1.65722453 13.4982577,1.30749252 C13.4982577,0.58537715 12.9203431,-5.47913714e-13 12.2072891,-5.47913714e-13 C11.4943521,-5.47913714e-13 10.9163204,0.58537715 10.9163204,1.30749252 C10.9163204,1.65520844 11.0513428,1.97054836 11.2699784,2.20477038 C11.5223402,2.60241414 11.6756311,3.08603813 11.6756311,3.64591769 C11.6756311,4.20401835 11.5230429,4.58114545 11.2722034,4.97570577 C11.1145796,5.08765797 10.9774494,5.22676806 10.8674875,5.38675059 C10.4692124,5.63793146 9.77840835,5.7905612 9.23094115,5.7905612 C8.67843842,5.7905612 7.98599487,5.635441 7.58959348,5.38034654 C7.48033425,5.22309166 7.34507765,5.08611625 7.18967894,4.97570577 C6.93872231,4.58114545 6.78625123,4.20401835 6.78625123,3.64591769 C6.78625123,3.08603813 6.93954205,2.60241414 7.19178683,2.20477038 C7.4104224,1.97054836 7.54544479,1.65520844 7.54544479,1.30749252 C7.54544479,0.58537715 6.96753021,-5.47913714e-13 6.25447613,-5.47913714e-13 C5.54142206,-5.47913714e-13 4.96350748,0.58537715 4.96350748,1.30749252 C4.96350748,1.65722453 5.09993514,1.97410617 5.3207957,2.20868396 C5.56952733,2.60419304 5.71907077,3.09137483 5.71907077,3.64591769 C5.71907077,4.19678415 5.57069838,4.57770624 5.32395754,4.96859017 C5.16387462,5.08054236 5.02498775,5.22071979 4.91326931,5.38200685 C4.52366003,5.63615256 4.15126523,5.7905612 3.60016776,5.7905612 C3.04731371,5.7905612 2.56975836,5.63532241 2.17710434,5.37987217 C1.94582141,5.15833965 1.63443845,5.02160143 1.29096866,5.02160143 C0.578031684,5.02160143 -9.18561227e-13,5.60697858 -9.18561227e-13,6.32897536 C-9.18561227e-13,7.05109073 0.578031684,7.63646788 1.29096866,7.63646788 C1.63642924,7.63646788 1.94933456,7.49830654 2.18096882,7.27452074 C2.57151494,7.0226283 3.05246634,6.8711845 3.60016776,6.8711845 C4.1441218,6.8711845 4.52026398,7.02144237 4.90612589,7.27131872 C5.20123121,7.70382894 5.69365893,7.9877416 6.25201692,7.9877416 C6.80733018,7.9877416 7.29718159,7.70679378 7.59275532,7.27843432 C7.98775145,7.02405143 8.68042921,6.8711845 9.23094115,6.8711845 C9.77758861,6.8711845 10.4705006,7.0227469 10.8665507,7.27487652 C11.1618902,7.70537066 11.6530297,7.9877416 12.2097483,7.9877416 C12.7681063,7.9877416 13.260534,7.70382894 13.5556393,7.27131872 C13.9415012,7.02144237 14.3177605,6.8711845 14.8617145,6.8711845 C15.4092988,6.8711845 15.8903674,7.0226283 16.2807964,7.27452074 C16.5124306,7.49830654 16.8254531,7.63646788 17.1707965,7.63646788 C17.8837335,7.63646788 18.4617652,7.05109073 18.4617652,6.32897536 C18.4617652,5.60697858 17.8837335,5.02160143 17.1707965,5.02160143" id="Fill-22"></path>
        </g>
    </g>
</svg>