<?xml version="1.0" encoding="UTF-8"?>
<svg width="16px" height="16px" viewBox="0 0 16 16" version="1.1" xmlns="http://www.w3.org/2000/svg" xmlns:xlink="http://www.w3.org/1999/xlink">
    <title>35566C90-B81D-41A9-88F5-9BFC7C5FFA9C</title>
    <g id="页面-1" stroke="none" stroke-width="1" fill="none" fill-rule="evenodd">
        <g id="主机" fill-rule="nonzero">
            <rect id="矩形" fill="#000000" opacity="0" x="0" y="0" width="16" height="16"></rect>
            <path d="M1.125,1.4375 L1.125,7.0625 L14.875,7.0625 L14.875,1.4375 L1.125,1.4375 Z M14.09375,6.28125 L1.90625,6.28125 L1.90625,2.21875 L14.09375,2.21875 L14.09375,6.28125 Z M10.96875,11.125 L12.53125,11.125 L12.53125,12.375 L10.96875,12.375 L10.96875,11.125 Z M3.9375,4.71875 L3.15625,4.71875 L3.15625,3.46875 L3.9375,3.46875 L3.9375,4.71875 Z M3.15625,11.125 L3.9375,11.125 L3.9375,12.375 L3.15625,12.375 L3.15625,11.125 Z M4.9375,11.125 L5.71875,11.125 L5.71875,12.375 L4.9375,12.375 L4.9375,11.125 Z M5.71875,4.71875 L4.9375,4.71875 L4.9375,3.46875 L5.71875,3.46875 L5.71875,4.71875 Z M12.53125,4.71875 L10.96875,4.71875 L10.96875,3.46875 L12.53125,3.46875 L12.53125,4.71875 Z M1.125,14.5625 L14.875,14.5625 L14.875,8.9375 L1.125,8.9375 L1.125,14.5625 Z M1.90625,9.71875 L14.09375,9.71875 L14.09375,13.78125 L1.90625,13.78125 L1.90625,9.71875 Z" id="形状" fill="#999999"></path>
        </g>
    </g>
</svg>