<?xml version="1.0" encoding="UTF-8"?>
<svg width="16px" height="16px" viewBox="0 0 16 16" version="1.1" xmlns="http://www.w3.org/2000/svg" xmlns:xlink="http://www.w3.org/1999/xlink">
    <title>3CD10101-5E85-4CA7-B21D-F008D6EFCD51</title>
    <g id="页面-1" stroke="none" stroke-width="1" fill="none" fill-rule="evenodd">
        <g id="负载均衡" fill-rule="nonzero">
            <rect id="矩形" fill="#000000" opacity="0" x="0" y="0" width="16" height="16"></rect>
            <path d="M2,4 L3.33333333,4 C3.37104263,4.00321693 3.40895737,4.00321693 3.44666667,4 C3.72831266,4.8006289 4.48461011,5.33630662 5.33333334,5.33630662 C6.18205656,5.33630662 6.93835401,4.8006289 7.22,4 C7.25770929,4.00321693 7.29562404,4.00321693 7.33333333,4 L14,4 C14.36815,3.99994364 14.6665646,3.70148331 14.6665646,3.33333334 C14.6665646,2.96518336 14.36815,2.66672303 14,2.66666667 L7.33333333,2.66666667 C7.29562404,2.66344974 7.25770929,2.66344974 7.22,2.66666667 C6.93835401,1.86603777 6.18205656,1.33036005 5.33333334,1.33036005 C4.48461011,1.33036005 3.72831266,1.86603777 3.44666667,2.66666667 C3.40895737,2.66344974 3.37104263,2.66344974 3.33333333,2.66666667 L2,2.66666667 C1.63185003,2.66672303 1.33343539,2.96518336 1.33343539,3.33333334 C1.33343539,3.70148331 1.63185003,3.99994364 2,4 Z M5.33333333,2.66666667 C5.60297483,2.66666667 5.8460657,2.82909478 5.94925303,3.07821105 C6.05244037,3.32732731 5.9954032,3.61407253 5.80473787,3.80473787 C5.61407253,3.9954032 5.32732731,4.05244037 5.07821105,3.94925303 C4.82909478,3.8460657 4.66666667,3.60297483 4.66666667,3.33333333 C4.66666667,2.9651435 4.9651435,2.66666667 5.33333333,2.66666667 L5.33333333,2.66666667 Z M14,7.33333333 L12.5466667,7.33333333 C12.2595833,6.54236437 11.508123,6.01568221 10.6666667,6.01568221 C9.82521033,6.01568221 9.07375007,6.54236437 8.78666667,7.33333333 L2,7.33333333 C1.63181016,7.33333333 1.33333333,7.63181016 1.33333333,8 C1.33333333,8.36818984 1.63181016,8.66666667 2,8.66666667 L8.78666667,8.66666667 C9.07375007,9.45763563 9.82521033,9.98431779 10.6666667,9.98431779 C11.508123,9.98431779 12.2595833,9.45763563 12.5466667,8.66666667 L14,8.66666667 C14.3681898,8.66666667 14.6666667,8.36818984 14.6666667,8 C14.6666667,7.63181016 14.3681898,7.33333333 14,7.33333333 L14,7.33333333 Z M10.6666667,8.66666667 C10.3970252,8.66666667 10.1539343,8.50423856 10.050747,8.2551223 C9.94755963,8.00600604 10.0045968,7.71926082 10.1952621,7.52859548 C10.3859275,7.33793015 10.6726727,7.28089297 10.9217889,7.38408031 C11.1709052,7.48726764 11.3333333,7.7303585 11.3333333,8 C11.3333333,8.36818983 11.0348565,8.66666667 10.6666667,8.66666667 L10.6666667,8.66666667 Z M14,12 L7.21333333,12 C6.92892984,11.2042322 6.17506317,10.673094 5.33,10.673094 C4.48493683,10.673094 3.73107016,11.2042322 3.44666667,12 C3.40895737,11.9967831 3.37104263,11.9967831 3.33333333,12 L2,12 C1.63185003,12.0000564 1.33343539,12.2985167 1.33343539,12.6666667 C1.33343539,13.0348166 1.63185003,13.333277 2,13.3333333 L3.33333333,13.3333333 C3.37104263,13.3365503 3.40895737,13.3365503 3.44666667,13.3333333 C3.73107016,14.1291011 4.48493683,14.6602393 5.33,14.6602393 C6.17506317,14.6602393 6.92892984,14.1291011 7.21333333,13.3333333 L14,13.3333333 C14.36815,13.333277 14.6665646,13.0348166 14.6665646,12.6666667 C14.6665646,12.2985167 14.36815,12.0000564 14,12 L14,12 Z M5.33333333,13.3333333 C5.06369183,13.3333333 4.82060097,13.1709052 4.71741363,12.9217889 C4.6142263,12.6726727 4.67126347,12.3859275 4.86192881,12.1952621 C5.05259414,12.0045968 5.33933937,11.9475596 5.58845563,12.050747 C5.83757189,12.1539343 6,12.3970252 6,12.6666667 C6,13.0348565 5.70152316,13.3333333 5.33333333,13.3333333 L5.33333333,13.3333333 Z" id="形状" fill="#999999"></path>
        </g>
    </g>
</svg>