<?xml version="1.0" encoding="UTF-8"?>
<svg width="16px" height="16px" viewBox="0 0 16 16" version="1.1" xmlns="http://www.w3.org/2000/svg" xmlns:xlink="http://www.w3.org/1999/xlink">
    <title>7D156958-D51B-4E91-81E5-0DEED3D8DEFC</title>
    <g id="页面-1" stroke="none" stroke-width="1" fill="none" fill-rule="evenodd">
        <g id="参数" fill-rule="nonzero">
            <rect id="矩形" fill="#000000" opacity="0" x="0" y="0" width="16" height="16"></rect>
            <polygon id="路径" fill="#999999" points="14.1665 10.9695 10.9245 10.9695 10.2505 9.7545 7.426 10.938 8.0965 11.6085 7.1775 14.82 3.966 15.739 1.6735 13.4465 2.5925 10.235 5.8045 9.316 6.689 10.2005 9.7795 8.9055 9.304 8.0485 10.1135 6.59 9.952 6.7515 6.0635 4.5295 6.0635 5.13 3.1425 6.751 0.2215 5.13 0.2215 1.888 3.1425 0.267 6.0635 1.888 6.0635 3.3825 10.4375 6.0055 10.925 5.128 14.167 5.128 15.788 8.049 14.167 10.9695"></polygon>
        </g>
    </g>
</svg>