<?xml version="1.0" encoding="UTF-8"?>
<svg width="12.8333242px" height="12.8333242px" viewBox="0 0 12.8333242 12.8333242" version="1.1" xmlns="http://www.w3.org/2000/svg" xmlns:xlink="http://www.w3.org/1999/xlink">
    <title>扩缩容icon</title>
    <g id="8.2-UI-Design" stroke="none" stroke-width="1" fill="none" fill-rule="evenodd">
        <g id="应用概览-应用详情" transform="translate(-959.583338, -424.583338)" fill="#8C8C8C" fill-rule="nonzero">
            <g id="编组-27备份-12" transform="translate(748.000000, 261.000000)">
                <g id="编组-29" transform="translate(211.000000, 161.000000)">
                    <path d="M2.04166211,15.4166621 L11.9583379,15.4166621 C12.775,15.4166621 13.4166621,14.775 13.4166621,13.9583379 L13.4166621,4.04166211 C13.4166621,3.225 12.775,2.58333789 11.9583379,2.58333789 L2.04166211,2.58333789 C1.225,2.58333789 0.583337891,3.225 0.583337891,4.04166211 L0.583337891,13.9583379 C0.583337891,14.775 1.225,15.4166621 2.04166211,15.4166621 Z M2.04166211,14.25 C1.86666211,14.25 1.75,14.1333379 1.75,13.9583379 L1.75,11.0416621 C1.75,10.8666621 1.86666211,10.75 2.04166211,10.75 L4.95833789,10.75 C5.13333789,10.75 5.25,10.8666621 5.25,11.0416621 L5.25,13.9583379 C5.25,14.1333379 5.13333789,14.25 4.95833789,14.25 L2.04166211,14.25 L2.04166211,14.25 Z M2.04166211,3.75 L11.9583379,3.75 C12.1333379,3.75 12.25,3.86666211 12.25,4.04166211 L12.25,13.9583379 C12.25,14.1333379 12.1333379,14.25 11.9583379,14.25 L6.41666211,14.25 C6.41666211,14.1333379 6.475,14.075 6.475,13.9583379 L6.475,11.0416621 C6.475,10.225 5.83333789,9.58333789 5.01666211,9.58333789 L2.1,9.58333789 C1.98333789,9.58333789 1.925,9.58333789 1.80833789,9.64166211 L1.80833789,4.04166211 C1.75,3.86666211 1.86666211,3.75 2.04166211,3.75 Z M7.99166211,8.825 L9.91666211,6.9 L9.91666211,7.54166211 C9.91666211,7.89166211 10.15,8.125 10.4999966,8.125 C10.85,8.125 11.0833379,7.89166211 11.0833379,7.54166211 L11.0833379,5.5 C11.0833379,5.44166211 11.0833379,5.38333789 11.025,5.26666211 C11.025,5.20833789 10.9666621,5.15 10.9083379,5.09166211 C10.85,5.03333789 10.7916621,4.975 10.7333379,4.975 C10.675,4.91666211 10.5583379,4.91666211 10.4999966,4.91666211 L8.45833789,4.91666211 C8.10833789,4.91666211 7.875,5.15 7.875,5.5 C7.875,5.85 8.10833789,6.08333789 8.45833789,6.08333789 L9.1,6.08333789 L7.175,8.00833789 C6.94166211,8.24166211 6.94166211,8.59166211 7.175,8.825 C7.40833789,9.05833789 7.75833789,9.05833789 7.99166211,8.825 L7.99166211,8.825 Z" id="扩缩容icon"></path>
                </g>
            </g>
        </g>
    </g>
</svg>