<?xml version="1.0" encoding="UTF-8"?>
<svg width="16px" height="16px" viewBox="0 0 16 16" version="1.1" xmlns="http://www.w3.org/2000/svg" xmlns:xlink="http://www.w3.org/1999/xlink">
    <title>D8480BF9-9D59-4009-AD08-D8FE43555AA7</title>
    <g id="图标" stroke="none" stroke-width="1" fill="none" fill-rule="evenodd" opacity="0.85">
        <g id="环境详情-蓝图实例" transform="translate(-24.000000, -170.000000)" fill="#595959" fill-rule="nonzero">
            <g id="左侧菜单" transform="translate(0.000000, 52.000000)">
                <g id="编组-5" transform="translate(12.000000, 70.000000)">
                    <g id="菜单导航/亮色/一级菜单展开" transform="translate(0.000000, 38.000000)">
                        <g id="资源实例" transform="translate(12.000000, 10.000000)">
                            <path d="M0.5,9.7 C0.776142375,9.7 1,9.92385763 1,10.2 C1,10.2401857 1.00398944,10.2801939 1.01186375,10.3191966 L1.61753894,13.3191966 C1.66425381,13.5505823 1.83270445,13.7 2.00887502,13.7 L14.0128775,13.7 C14.1890481,13.7 14.3574987,13.5505823 14.4042136,13.3191966 L15.0098888,10.3191966 C15.064537,10.0485156 15.3282684,9.87338649 15.5989494,9.92803474 C15.8696304,9.98268298 16.0447595,10.2464144 15.9901112,10.5170954 L15.384436,13.5170954 C15.2466399,14.1996205 14.6825216,14.7 14.0128775,14.7 L2.00887502,14.7 C1.33923092,14.7 0.775112668,14.1996205 0.637316483,13.5170954 L0.0316412984,10.5170954 C0.0106000919,10.4128751 0,10.3065717 0,10.2 C0,9.92385763 0.223857625,9.7 0.5,9.7 Z M2.76943945,4.2 C3.97001088,5.20576037 6.17210612,5.68041475 8.26943945,5.68041475 C10.3667728,5.68041475 12.568868,5.20691244 13.7694395,4.20115207 L13.7694395,7.93156682 C13.7673442,7.93617512 13.7694395,7.94308756 13.7694395,7.94769585 C13.7694395,9.19193548 11.3064871,10.2 8.26943945,10.2 C5.23239184,10.2 2.76943945,9.19193548 2.76943945,7.94769585 L2.77153469,7.93156682 L2.76943945,4.2 Z M8.26943945,1 C11.3064871,1 13.7694395,1.89487049 13.7694395,3 C13.7694395,4.10512951 11.3064871,5 8.26943945,5 C5.23239184,5 2.76943945,4.10411376 2.76943945,3 C2.76943945,1.89487049 5.23239184,1 8.26943945,1 Z" id="形状结合"></path>
                        </g>
                    </g>
                </g>
            </g>
        </g>
    </g>
</svg>