<svg xmlns="http://www.w3.org/2000/svg" xmlns:xlink="http://www.w3.org/1999/xlink" width="16px" height="16px" viewBox="0 0 16 16" version="1.1">
    <title>69F3D634-097C-450E-8257-FEDB70E6BCE1</title>
    <g id="图标" stroke="none" stroke-width="1" fill="none" fill-rule="evenodd" opacity="0.85">
        <g id="环境详情-蓝图实例" transform="translate(-24.000000, -246.000000)">
            <g id="左侧菜单" transform="translate(0.000000, 52.000000)">
                <g id="编组-5" transform="translate(12.000000, 70.000000)">
                    <g id="菜单导航/亮色/二级菜单未选中备份" transform="translate(0.000000, 114.000000)">
                        <g id="资源池" transform="translate(12.000000, 10.000000)">
                            <rect id="矩形" fill-opacity="0" fill="#D8D8D8" x="0" y="0" width="16" height="16"/>
                            <g id="data-full" transform="translate(1.000000, 0.000000)" fill-rule="nonzero">
                                <path d="M7,0 C3.62857143,0 0,1.01714286 0,3.25028571 L0,12.7497143 C0,14.9817143 3.62857143,16 7,16 C10.3714286,16 14,14.9817143 14,12.7497143 L14,3.25028571 C14,1.01714286 10.3702857,0 7,0 Z" id="路径" fill="#595959"/>
                                <path d="M13,12.7497143 C13,13.992 10.3131429,15 7,15 C3.68685714,15 1,13.992 1,12.7497143 L1,10.8811429 C2.03314286,11.9462857 4.52457143,12.4994286 7,12.4994286 C9.47542857,12.4994286 11.9668571,11.9462857 13,10.8811429 L13,12.7497143 Z" id="路径" fill="#FFFFFF"/>
                                <path d="M13,6.74971429 L12.9977143,6.74971429 C12.9977143,6.75428571 13,6.76114286 13,6.76571429 C13,8 10.3131429,9 7,9 C3.68685714,9 1,8 1,6.76571429 C1,6.76114286 1.00228571,6.75428571 1.00228571,6.74971429 L1,6.74971429 L1,5.032 C2.30971429,6.02971429 4.712,6.50057143 7,6.50057143 C9.288,6.50057143 11.6902857,6.03085714 13,5.03314286 L13,6.74971429 Z" id="路径" fill="#FFFFFF"/>
                                <path d="M7,5.49942857 C3.68685714,5.49942857 1,4.49142857 1,3.24914286 C1,2.00571429 3.68685714,0.998857143 7,0.998857143 C10.3131429,0.998857143 13,2.00571429 13,3.24914286 C13,4.49257143 10.3131429,5.49942857 7,5.49942857 Z" id="路径" fill="#595959"/>
                                <path d="M13,9.74971429 L12.9977143,9.74971429 C12.9977143,9.75428571 13,9.76114286 13,9.76571429 C13,11 10.3131429,12 7,12 C3.68685714,12 1,11 1,9.76571429 C1,9.76114286 1.00228571,9.75428571 1.00228571,9.74971429 L1,9.74971429 L1,7.88114286 C2.03314286,8.94628571 4.52457143,9.49942857 7,9.49942857 C9.47542857,9.49942857 11.9668571,8.94628571 13,7.88114286 L13,9.74971429 Z" id="路径" fill="#595959"/>
                            </g>
                        </g>
                    </g>
                </g>
            </g>
        </g>
    </g>
</svg>