<?xml version="1.0" encoding="UTF-8"?>
<svg width="16px" height="17px" viewBox="0 0 16 17" version="1.1" xmlns="http://www.w3.org/2000/svg" xmlns:xlink="http://www.w3.org/1999/xlink">
    <title>73770C95-58F2-44E9-B15C-21A263747418</title>
    <g id="图标" stroke="none" stroke-width="1" fill="none" fill-rule="evenodd" opacity="0.85">
        <g id="应用蓝图列表" transform="translate(-24.000000, -245.000000)">
            <g id="左侧菜单（蓝图管理）" transform="translate(0.000000, 52.000000)">
                <g id="编组-5" transform="translate(11.000000, 70.000000)">
                    <g id="菜单导航/亮色/二级菜单未选中备份-4" transform="translate(0.000000, 114.000000)">
                        <g id="资源模块" transform="translate(13.000000, 9.500000)">
                            <rect id="矩形备份-6" x="0" y="0.5" width="16" height="16"></rect>
                            <path d="M16,15 C16,15.8284271 15.3284271,16.5 14.5,16.5 L1,16.5 C0.44771525,16.5 0,16.0522847 0,15.5 L0,9.5 C0,8.94771525 0.44771525,8.5 1,8.5 L2,8.5 C2,7.3954305 2.8954305,6.5 4,6.5 C5.1045695,6.5 6,7.3954305 6,8.5 L7,8.5 C7.47338693,8.5 7.86994729,8.82893365 7.97358929,9.27070917 L7.99327227,9.38337887 L8,9.5 L8,10.5 C8,11.0522847 7.55228475,11.5 7,11.5 C6.81951015,11.5 6.65018854,11.4521831 6.50401215,11.3685263 L6.406,11.305 L6.30343216,11.2329383 C6.07122743,11.0855048 5.79559908,11 5.5,11 C4.67157288,11 4,11.6715729 4,12.5 C4,13.3284271 4.67157288,14 5.5,14 C5.80122189,14 6.08170607,13.9112113 6.31670873,13.7583778 L6.39398776,13.7044782 C6.5621378,13.576189 6.77217146,13.5 7,13.5 C7.55228475,13.5 8,13.9477153 8,14.5 L8,15.5 L14.5,15.5 C14.7761424,15.5 15,15.2761424 15,15 L15.000703,8.91439849 C14.8441149,8.96983268 14.6755804,9 14.5,9 L13.9501074,9.00057405 C13.7186941,10.1408321 12.7096818,11 11.5,11 C10.2903182,11 9.2813059,10.1408321 9.0498926,8.99942595 L8.5,9 C7.79983066,9 7.19754625,8.5166238 7.0338701,7.81533586 L7.00755766,7.64541764 L7,7.5 L7,6.5 C7,5.67157288 7.67157288,5 8.5,5 C8.76413731,5 9.01942905,5.06879716 9.26793535,5.21189704 L9.38143813,5.28587982 L9.46457432,5.34495685 C9.62336804,5.44577954 9.80709682,5.5 10,5.5 C10.5522847,5.5 11,5.05228475 11,4.5 C11,3.94771525 10.5522847,3.5 10,3.5 C9.80346923,3.5 9.61655538,3.55628762 9.46932507,3.65172545 L9.2750214,3.78445563 C9.04381783,3.92419097 8.77720117,4 8.5,4 C7.67157288,4 7,3.32842712 7,2.5 L7,1.5 C7,0.671572875 7.67157288,0 8.5,0 L14.5,0 C15.3284271,0 16,0.671572875 16,1.5 L16,15 Z M14.5,1 L8.5,1 C8.22385763,1 8,1.22385763 8,1.5 L8,2.5 C8,2.77614237 8.22385763,3 8.5,3 C8.61152823,3 8.71625404,2.96398108 8.81997844,2.88541861 L8.91069452,2.8224671 C9.23241229,2.61323855 9.60844268,2.5 10,2.5 C11.1045695,2.5 12,3.3954305 12,4.5 C12,5.6045695 11.1045695,6.5 10,6.5 C9.61581412,6.5 9.24643002,6.39099053 8.90912971,6.17618191 L8.8220525,6.11457664 L8.74763326,6.0654322 C8.67297052,6.02270269 8.58872561,6 8.5,6 C8.22385763,6 8,6.22385763 8,6.5 L7.99926834,7.5305761 L8.01319416,7.61508981 C8.06564179,7.83864859 8.26668487,8 8.5,8 L9.04991252,8.00047581 L10.0854606,7.99969517 C10.0301162,8.15617076 10,8.32456837 10,8.5 C10,9.32842712 10.6715729,10 11.5,10 C12.3284271,10 13,9.32842712 13,8.5 C13,8.32456837 12.9698838,8.15617076 12.9145394,7.99969517 L13.9500875,8.00047581 L14.5,8 C14.7761424,8 15,7.77614237 15,7.5 L15,1.5 C15,1.22385763 14.7761424,1 14.5,1 Z" id="形状结合" fill="#595959"></path>
                        </g>
                    </g>
                </g>
            </g>
        </g>
    </g>
</svg>