<?xml version="1.0" encoding="UTF-8"?>
<svg width="16px" height="16px" viewBox="0 0 16 16" version="1.1" xmlns="http://www.w3.org/2000/svg" xmlns:xlink="http://www.w3.org/1999/xlink">
    <title>资源池</title>
    <g id="页面-1" stroke="none" stroke-width="1" fill="none" fill-rule="evenodd" opacity="0.85">
        <g id="资源池" fill-rule="nonzero">
            <g id="资源池">
                <rect id="矩形" fill-opacity="0" fill="#D8D8D8" x="0" y="0" width="16" height="16"></rect>
                <g id="data-full" transform="translate(1.000000, 0.000000)">
                    <path d="M7,0.5 C8.75325723,0.5 10.582313,0.779505962 11.8865029,1.38507591 C12.4063098,1.62643605 12.8401565,1.91746078 13.1320114,2.27308475 C13.3640588,2.55583343 13.5,2.87997366 13.5,3.25028571 L13.5,12.7497143 C13.5,13.1199016 13.3640249,13.4439716 13.1319457,13.7266938 C12.8400307,14.082309 12.4060999,14.37338 11.886167,14.6147987 C10.5821975,15.2202663 8.75353645,15.5 7,15.5 C5.24646356,15.5 3.41780253,15.2202663 2.113833,14.6147987 C1.59390009,14.37338 1.1599693,14.082309 0.868054259,13.7266938 C0.635975143,13.4439716 0.5,13.1199016 0.5,12.7497143 L0.5,3.25028571 C0.5,2.87991544 0.635927385,2.55572497 0.867979273,2.27293954 C1.15980343,1.91731382 1.59360917,1.62629313 2.11339698,1.38494185 C3.41739877,0.77945923 5.24627179,0.5 7,0.5 Z" id="路径" stroke="#595959"></path>
                    <path d="M7,5.49942857 C3.68685714,5.49942857 1,4.49142857 1,3.24914286 C1,2.00571429 3.68685714,0.998857143 7,0.998857143 C10.3131429,0.998857143 13,2.00571429 13,3.24914286 C13,4.49257143 10.3131429,5.49942857 7,5.49942857 Z" id="路径" stroke="#595959" fill="#595959"></path>
                    <path d="M13,9.74971429 L12.9977143,9.74971429 C12.9977143,9.75428571 13,9.76114286 13,9.76571429 C13,11 10.3131429,12 7,12 C3.68685714,12 1,11 1,9.76571429 C1,9.76114286 1.00228571,9.75428571 1.00228571,9.74971429 L1,9.74971429 L1,7.88114286 C2.03314286,8.94628571 4.52457143,9.49942857 7,9.49942857 C9.47542857,9.49942857 11.9668571,8.94628571 13,7.88114286 L13,9.74971429 Z" id="路径" fill="#595959"></path>
                </g>
            </g>
        </g>
    </g>
</svg>