<?xml version="1.0" encoding="UTF-8"?>
<svg width="16px" height="16px" viewBox="0 0 16 16" version="1.1" xmlns="http://www.w3.org/2000/svg" xmlns:xlink="http://www.w3.org/1999/xlink">
    <title>6A597F75-F4E9-4EEB-AFF1-58FF5ADC8013</title>
    <g id="页面-1" stroke="none" stroke-width="1" fill="none" fill-rule="evenodd">
        <g id="服务" fill-rule="nonzero">
            <rect id="矩形" fill="#000000" opacity="0" x="0" y="0" width="16" height="16"></rect>
            <path d="M8.44375,7.5703125 L8.44375,4.5828125 C8.44375,3.91875 8.63125,3.3140625 9.0234375,2.7765625 C9.4359375,2.2140625 9.978125,1.828125 10.6546875,1.65625 C11.7375,1.3828125 12.70625,1.615625 13.5296875,2.3765625 C13.9890625,2.79375 14.2953125,3.353125 14.403125,3.9640625 C14.6015625,5.059375 14.2984375,6.003125 13.484375,6.76875 C13.0421875,7.184375 12.5078125,7.428125 11.909375,7.5234375 C11.7375,7.5515625 11.5640625,7.565625 11.3890625,7.565625 C10.428125,7.56875 9.46875,7.5671875 8.5078125,7.5671875 L8.44375,7.5703125 L8.44375,7.5703125 Z M7.5609375,7.5703125 L4.59375,7.5703125 C3.8125,7.5703125 3.128125,7.315625 2.546875,6.7953125 C2.0765625,6.38125 1.75,5.8265625 1.615625,5.2140625 C1.371875,4.1328125 1.7421875,3.00625 2.5796875,2.28125 C3.0265625,1.8953125 3.5421875,1.65625 4.1265625,1.5796875 C5.0734375,1.45625 5.9015625,1.7203125 6.5984375,2.375 C7.103125,2.85 7.40625,3.4375 7.5203125,4.11875 C7.546875,4.2734375 7.559375,4.4296875 7.5609375,4.5859375 C7.5640625,5.5640625 7.5625,6.540625 7.5625,7.51875 L7.5609375,7.5703125 Z M7.56094456,8.4515625 L7.56094456,11.425 C7.5625,12.20625 7.3046875,12.890625 6.7828125,13.471875 C6.321875,13.984375 5.75,14.3140625 5.0671875,14.425 C4.021875,14.5953125 3.1234375,14.290625 2.38125,13.5390625 C1.978125,13.1359375 1.70625,12.61875 1.6015625,12.0578125 C1.4203125,11.1046875 1.6359375,10.246875 2.26875,9.5078125 C2.734375,8.9640625 3.33125,8.6390625 4.034375,8.50625 C4.2265625,8.4703125 4.4234375,8.453125 4.61875,8.453125 L7.4953125,8.453125 L7.56094456,8.4515625 L7.56094456,8.4515625 Z M8.44375,8.4859375 L11.4359375,8.4859375 C12.0421875,8.4859375 12.6046875,8.6390625 13.1140625,8.9703125 C13.7390625,9.378125 14.1625,9.940625 14.353125,10.6609375 C14.6078125,11.61875 14.43125,12.503125 13.83125,13.29375 C13.41875,13.8359375 12.8734375,14.1921875 12.215625,14.3703125 C11.890625,14.4609375 11.5515625,14.490625 11.215625,14.4578125 C10.0734375,14.3390625 9.25,13.7546875 8.7328125,12.734375 C8.5765625,12.428125 8.49375,12.0984375 8.4578125,11.75625 C8.446875,11.6484375 8.44375,11.540625 8.44375,11.43125 C8.4421875,10.4671875 8.4421875,9.503125 8.44375,8.5375 L8.44375,8.4859375 L8.44375,8.4859375 Z" id="形状" fill="#999999"></path>
        </g>
    </g>
</svg>