<?xml version="1.0" encoding="UTF-8"?>
<svg width="13px" height="13px" viewBox="0 0 13 13" version="1.1" xmlns="http://www.w3.org/2000/svg" xmlns:xlink="http://www.w3.org/1999/xlink">
    <title>切换副本 </title>
    <g id="8.2-UI-Design" stroke="none" stroke-width="1" fill="none" fill-rule="evenodd">
        <g id="应用概览-应用详情" transform="translate(-1007.500000, -272.500000)" fill="#8C8C8C" fill-rule="nonzero">
            <path d="M1014.72223,284.055561 L1014.72223,285.5 L1013.27777,285.5 L1013.27777,284.055561 L1014.72223,284.055561 Z M1008.22223,273.346439 C1008.45815,273.346439 1008.67925,273.461479 1008.81444,273.654833 L1012.26594,278.586167 C1012.4397,278.834696 1012.4397,279.165304 1012.26594,279.413833 L1008.81373,284.345167 C1008.63294,284.603206 1008.30574,284.714272 1008.00523,284.619609 C1007.70472,284.524946 1007.50025,284.246401 1007.5,283.931333 L1007.5,274.068667 C1007.5,273.669791 1007.82335,273.346439 1008.22223,273.346439 Z M1019.77777,273.346439 C1020.14417,273.346439 1020.45244,273.620971 1020.49494,273.984895 L1020.5,274.068667 L1020.5,283.931333 C1020.49952,284.22951 1020.31585,284.496739 1020.03764,284.604027 C1019.75943,284.711315 1019.44389,284.636603 1019.24333,284.415956 L1019.18556,284.345167 L1015.73406,279.413833 C1015.58096,279.194889 1015.56123,278.909312 1015.68277,278.671395 L1015.73406,278.586167 L1019.18627,273.654833 C1019.32131,273.461685 1019.5421,273.346572 1019.77777,273.346439 L1019.77777,273.346439 Z M1014.72223,281.166667 L1014.72223,282.611105 L1013.27777,282.611105 L1013.27777,281.166667 L1014.72223,281.166667 Z M1008.65556,275.734833 L1008.65556,282.466667 L1011.02011,279 L1008.65629,275.734833 L1008.65556,275.734833 Z M1014.72223,278.277789 L1014.72223,279.722228 L1013.27777,279.722228 L1013.27777,278.277772 L1014.72223,278.277772 L1014.72223,278.277789 Z M1014.72223,275.388895 L1014.72223,276.833333 L1013.27777,276.833333 L1013.27777,275.388895 L1014.72223,275.388895 L1014.72223,275.388895 Z M1014.72223,272.5 L1014.72223,273.944439 L1013.27777,273.944439 L1013.27777,272.5 L1014.72223,272.5 L1014.72223,272.5 Z" id="切换副本-"></path>
        </g>
    </g>
</svg>