<?xml version="1.0" encoding="UTF-8"?>
<svg width="15.75px" height="10.5px" viewBox="0 0 15.75 10.5" version="1.1" xmlns="http://www.w3.org/2000/svg" xmlns:xlink="http://www.w3.org/1999/xlink">
    <title>升级icon</title>
    <g id="8.2-UI-Design" stroke="none" stroke-width="1" fill="none" fill-rule="evenodd">
        <g id="应用概览-应用详情" transform="translate(-800.625000, -426.250000)" fill="#8C8C8C" fill-rule="nonzero">
            <g id="编组-27备份-12" transform="translate(748.000000, 261.000000)">
                <g id="编组-30" transform="translate(52.625000, 161.000000)">
                    <path d="M3.0515625,8.21375 C1.3453125,8.331875 0,9.73625 0,11.46875 C0,13.280123 1.46987695,14.75 3.28125,14.75 L11.8125,14.75 C13.9846875,14.75 15.75,12.9848105 15.75,10.8125 C15.75,8.7846875 14.214375,7.11125 12.2390625,6.90125 C11.41875,5.32625 9.7715625,4.25 7.875,4.25 C5.48612695,4.25 3.4975459,5.9496875 3.0515625,8.21375 Z M3.28125,13.4375 C2.19175195,13.4375 1.3125,12.558248 1.3125,11.46875 C1.3125,10.379252 2.19175195,9.5 3.28125,9.5 L4.265625,9.5 L4.265625,9.171875 C4.265625,7.176875 5.87987695,5.5625 7.875,5.5625 C9.52862695,5.5625 10.9134375,6.67168555 11.3465625,8.1875 L11.8125,8.1875 C13.2628125,8.1875 14.4375,9.3621875 14.4375,10.8125 C14.4375,12.2629355 13.2628125,13.4375 11.8125,13.4375 L3.28125,13.4375 Z M6.825,11.3375 L8.925,11.3375 L8.925,13.4375 L6.825,13.4375 L6.825,11.3375 Z M5.90625,11.4047041 L7.875,9.3047041 L9.84375,11.4047041 L5.90625,11.4047041 Z" id="升级icon"></path>
                </g>
            </g>
        </g>
    </g>
</svg>