<?xml version="1.0" encoding="UTF-8"?>
<svg width="14px" height="16px" viewBox="0 0 14 16" version="1.1" xmlns="http://www.w3.org/2000/svg" xmlns:xlink="http://www.w3.org/1999/xlink">
    <!-- Generator: Sketch 58 (84663) - https://sketch.com -->
    <title>0F2993E4-5D52-4E14-96CD-B2E6D958A644</title>
    <desc>Created with Sketch.</desc>
    <defs>
        <polygon id="path-1" points="0.797422159 0.892122159 2.90457784 0.892122159 2.90457784 3 0.797422159 3"></polygon>
    </defs>
    <g id="页面-1" stroke="none" stroke-width="1" fill="none" fill-rule="evenodd">
        <g id="Easyops-5.0补丁管理/安装补丁" transform="translate(-45.000000, -179.000000)">
            <g id="主机列表" transform="translate(45.000000, 180.000000)">
                <path d="M12.6028,11.3248 L1.0978,11.4648301 C0.8228,11.4678 0.5948,11.2458 0.5908,10.9708 L0.548769949,7.4688 C0.5458,7.1938 0.7678,6.9658 1.0428,6.9628 L12.5478,6.82276995 C12.8228,6.8198 13.0508,7.0418 13.0538,7.3168 L13.0968299,10.8188 C13.0998,11.0938 12.8768,11.3218 12.6028,11.3248 Z" id="Stroke-1" stroke="#FFFFFF" stroke-linecap="round"></path>
                <path d="M6.1936,9.1514 C6.1976,9.4274 5.9756,9.6544 5.6996,9.6574 C5.4236,9.6614 5.1966,9.4404 5.1936,9.1634 C5.1906,8.8874 5.4116,8.6604 5.6876,8.6574 C5.9646,8.6534 6.1906,8.8754 6.1936,9.1514" id="Fill-3" fill="#FFFFFF"></path>
                <g id="编组" transform="translate(5.000000, 11.500000)">
                    <mask id="mask-2" fill="white">
                        <use xlink:href="#path-1"></use>
                    </mask>
                    <g id="Clip-6"></g>
                    <path d="M2.9045,1.9332 C2.9115,2.5152 2.4455,2.9932 1.8635,3.0002 C1.2815,3.0072 0.8035,2.5412 0.7975,1.9592 C0.7905,1.3772 1.2565,0.8992 1.8385,0.8922 C2.4205,0.8852 2.8975,1.3512 2.9045,1.9332" id="Fill-5" fill="#FFFFFF" mask="url(#mask-2)"></path>
                </g>
                <path d="M8.4446,9.1241 C8.4486,9.4001 8.2266,9.6271 7.9506,9.6301 C7.6746,9.6341 7.4476,9.4131 7.4446,9.1361 C7.4416,8.8601 7.6626,8.6331 7.9386,8.6301 C8.2156,8.6261 8.4416,8.8481 8.4446,9.1241" id="Fill-7" fill="#FFFFFF"></path>
                <path d="M10.9426,8.8438 L10.9496,9.3438" id="Stroke-9" stroke="#FFFFFF" stroke-width="0.703" stroke-linecap="round"></path>
                <path d="M12.6028,5.002 L1.0978,5.14202992 C0.8228,5.145 0.5948,4.922 0.5908,4.648 L0.548769949,1.146 C0.5458,0.871 0.7678,0.643 1.0428,0.64 L12.5478,0.499969949 C12.8228,0.497 13.0508,0.719 13.0538,0.994 L13.0968299,4.496 C13.0998,4.771 12.8768,4.999 12.6028,5.002 Z" id="Stroke-11" stroke="#FFFFFF" stroke-linecap="round"></path>
                <path d="M6.1174,2.8287 C6.1204,3.1047 5.8994,3.3317 5.6234,3.3347 C5.3464,3.3387 5.1204,3.1177 5.1164,2.8407 C5.1134,2.5647 5.3344,2.3377 5.6104,2.3347 C5.8874,2.3307 6.1134,2.5527 6.1174,2.8287" id="Fill-13" fill="#FFFFFF"></path>
                <path d="M8.3684,2.8013 C8.3714,3.0773 8.1504,3.3043 7.8744,3.3073 C7.5974,3.3113 7.3714,3.0903 7.3674,2.8133 C7.3644,2.5373 7.5854,2.3103 7.8614,2.3073 C8.1384,2.3033 8.3644,2.5253 8.3684,2.8013" id="Fill-15" fill="#FFFFFF"></path>
                <path d="M10.8664,2.5211 L10.8724,3.0211" id="Stroke-17" stroke="#FFFFFF" stroke-width="0.703" stroke-linecap="round"></path>
                <path d="M0.5002,13.523 L13.1462,13.369" id="Stroke-19" stroke="#FFFFFF" stroke-linecap="round"></path>
                <path d="M6.8313,13.4464 L6.8143,12.0414" id="Stroke-21" stroke="#FFFFFF" stroke-linecap="square"></path>
            </g>
        </g>
    </g>
</svg>