<?xml version="1.0" encoding="UTF-8"?>
<svg width="14px" height="15px" viewBox="0 0 14 15" version="1.1" xmlns="http://www.w3.org/2000/svg" xmlns:xlink="http://www.w3.org/1999/xlink">
    <!-- Generator: Sketch 58 (84663) - https://sketch.com -->
    <title>A6FDF315-DB43-43A2-948A-30C5584BE455</title>
    <desc>Created with Sketch.</desc>
    <g id="页面-1" stroke="none" stroke-width="1" fill="none" fill-rule="evenodd">
        <g id="Easyops-5.0补丁管理/安装补丁" transform="translate(-45.000000, -139.000000)">
            <g id="补丁列表" transform="translate(45.000000, 139.000000)">
                <path d="M11.1671,14.5 L1.8331,14.5 C1.1001,14.5 0.5001,13.9 0.5001,13.167 L0.5001,1.833 C0.5001,1.1 1.1001,0.5 1.8331,0.5 L11.1671,0.5 C11.9001,0.5 12.5001,1.1 12.5001,1.833 L12.5001,13.167 C12.5001,13.9 11.9001,14.5 11.1671,14.5 Z" id="Stroke-1" stroke="#FFFFFF" stroke-linecap="round"></path>
                <path d="M5.379,4.4165 L10.121,4.4165" id="Stroke-3" stroke="#FFFFFF" stroke-linecap="round"></path>
                <path d="M3.879,4.5 C3.879,4.776 3.655,5 3.379,5 C3.103,5 2.879,4.776 2.879,4.5 C2.879,4.224 3.103,4 3.379,4 C3.655,4 3.879,4.224 3.879,4.5" id="Fill-5" fill="#FFFFFF"></path>
                <path d="M5.379,7.4165 L10.121,7.4165" id="Stroke-7" stroke="#FFFFFF" stroke-linecap="round"></path>
                <path d="M3.879,7.5 C3.879,7.776 3.655,8 3.379,8 C3.103,8 2.879,7.776 2.879,7.5 C2.879,7.224 3.103,7 3.379,7 C3.655,7 3.879,7.224 3.879,7.5" id="Fill-9" fill="#FFFFFF"></path>
                <path d="M5.379,10.4165 L10.121,10.4165" id="Stroke-11" stroke="#FFFFFF" stroke-linecap="round"></path>
                <path d="M3.879,10.5 C3.879,10.776 3.655,11 3.379,11 C3.103,11 2.879,10.776 2.879,10.5 C2.879,10.224 3.103,10 3.379,10 C3.655,10 3.879,10.224 3.879,10.5" id="Fill-13" fill="#FFFFFF"></path>
            </g>
        </g>
    </g>
</svg>