<?xml version="1.0" encoding="UTF-8"?>
<svg width="422px" height="381px" viewBox="0 0 422 381" version="1.1" xmlns="http://www.w3.org/2000/svg" xmlns:xlink="http://www.w3.org/1999/xlink">
    <title>缺省状态-浏览器版本低</title>
    <defs>
        <polygon id="path-1" points="0 0 36 0 36 58 0 58"></polygon>
    </defs>
    <g id="空状态插画-暗色" stroke="none" stroke-width="1" fill="none" fill-rule="evenodd">
        <g id="缺省状态-浏览器版本低" transform="translate(-214.000000, -187.000000)">
            <g transform="translate(216.000000, 187.000000)" id="编组">
                <path d="M139.912593,13.3312864 C180.008046,-5.45153107 262.676497,-9.51747731 315.618812,35.5522785 C373.01029,84.4080881 386.099079,163.938173 384.930059,211.110213 C384.220171,239.766967 382.458694,271.888383 310.027116,297.785944 C235.368749,324.479036 233.799754,345.758812 178.468188,352.528326 C125.324562,359.029425 18.0660689,297.785944 13.2098669,202.280797 C8.36779199,107.053775 88.4094798,37.4594324 139.912593,13.3312864" id="Fill-1" fill="#2B2E32"></path>
                <path d="M41.8272887,295 C41.8272887,295 -3.84087145,272.941151 0.260606533,199.70577 C4.36208452,126.47039 72,45 72,45" id="Stroke-3" stroke="#2B2E32" stroke-width="2"></path>
                <g transform="translate(384.000000, 78.000000)">
                    <mask id="mask-2" fill="white">
                        <use xlink:href="#path-1"></use>
                    </mask>
                    <g id="Clip-6"></g>
                    <path d="M10.907023,34.6401266 C10.907023,34.6401266 23.8988649,37.2583431 24.2190678,34.6401266 C24.5401457,32.0228013 0,6.20868416 0,6.20868416 L7.2176899,0 C7.2176899,0 34.9659894,20.09646 35.928348,28.7549321 C36.8907067,37.4142954 28.2294788,54.4059677 6.25533125,58 C2.40589663,41.9885993 10.907023,34.6401266 10.907023,34.6401266" id="Fill-5" fill="#F2B5BC" mask="url(#mask-2)"></path>
                </g>
                <path d="M282.550833,115.922987 C282.550833,115.922987 268.505044,115.277778 266.048733,109.629336 C275.583181,103.980895 296,86.875368 296,86.875368 L288.384462,78 C288.384462,78 257.109138,96.2348629 254.030573,102.528514 C250.952007,108.822165 253.058301,131.092006 284.657127,139 C287.898326,127.057908 282.550833,115.922987 282.550833,115.922987" id="Fill-7" fill="#F2B5BC"></path>
                <path d="M342.744549,93.7186026 C342.744549,93.7186026 338.887122,103.837746 337.124099,104.611017 C335.359337,105.384288 353,104.765851 353,104.765851 L352.454655,91 L342.744549,93.7186026 Z" id="Fill-9" fill="#F2B5BC"></path>
                <path d="M293.941499,249.911937 C295.977849,262.692875 244.600131,281.600507 179.186586,292.142675 C113.773923,302.684843 59.0948504,300.869888 57.0585008,288.088063 C55.0221511,275.307125 106.399869,256.399493 171.813414,245.857325 C237.226958,235.315157 291.90515,237.130112 293.941499,249.911937" id="Fill-11" fill="#141414"></path>
                <path d="M358,8.519796 C358,8.519796 359.618818,12.4166246 363.986048,9.55525634 C368.353278,6.69475386 364.587067,5.17532836 363.413648,6.46186186 C362.240229,7.74752959 361.571237,10.3058785 363.973527,11.7118882 C366.37671,13.1178979 371.06681,10.8175483 372.024685,9.36738435 C372.981665,7.91808618 371.111528,6.30256027 368.880064,8.94229152 C366.647706,11.5828885 369.467668,13.8183054 371.790359,13.9767412 C374.113943,14.1351771 377.037653,13.4633399 378,12.5958389" id="Stroke-13" stroke="#4DD9FE" stroke-width="0.593"></path>
                <polygon id="Fill-15" fill="#F9C152" points="354.5 19 355.946451 22.4691173 359.71246 21.3765762 357.750451 24.6097457 361 26.7170336 357.106681 27.2804018 357.392902 31 354.5 28.4686899 351.607098 31 351.894221 27.2804018 348 26.7170336 351.250451 24.6097457 349.28754 21.3765762 353.053549 22.4691173"></polygon>
                <path d="M313,25.127636 C313,25.127636 316.043739,24.745155 317.705983,20 C317.705983,20 319.598476,24.3370614 323,24.745155 C323,24.745155 318.805872,27.1937164 318.000428,30 C318.000428,30 315.839168,25.254845 313,25.127636" id="Fill-17" fill="#FF8227"></path>
                <path d="M297,39 C297,39 290.356166,38.3343436 289.820226,32.9225844 C289.283369,27.5108252 284,29.2746781 284,29.2746781" id="Stroke-19" stroke="#F9C152" stroke-width="2.2" stroke-linecap="round"></path>
                <line x1="201" y1="379.5" x2="318" y2="379.5" id="Stroke-22" stroke="#FFFFFF" stroke-width="1.1" opacity="0.449999988"></line>
                <line x1="326" y1="379.5" x2="368" y2="379.5" id="Stroke-23" stroke="#FFFFFF" stroke-width="1.1" opacity="0.449999988"></line>
                <line x1="374" y1="379.5" x2="403" y2="379.5" id="Stroke-24" stroke="#FFFFFF" stroke-width="1.1" opacity="0.449999988"></line>
                <polygon id="Fill-25" fill="#F2B5BC" points="275.794972 351.538741 275 358.692587 285.569571 360 287 351"></polygon>
                <polygon id="Fill-26" fill="#F2B5BC" points="349.357182 348.062727 349 358.062727 360 360 360 347"></polygon>
                <path d="M288.171933,178 L271,353.560971 L289.596263,354 C289.596263,354 302.150451,293.565417 308.004155,272.862034 C313.0173,255.12829 332.275526,203.245913 332.275526,203.245913 C332.275526,203.245913 331.422527,264.154044 332.927715,284.383878 C334.222318,301.789237 342.701659,350.592218 342.701659,350.592218 L362.673383,350.592218 C362.673383,350.592218 361.23839,299.529479 362.111825,281.562058 C363.373553,255.596528 373,178.143392 373,178.143392 L288.171933,178 Z" id="Fill-27" fill="#1B1F22"></path>
                <path d="M384.040465,104.665974 C371.318608,99.8873785 358.23223,101.151286 358.23223,101.151286 C351.959106,101.785894 350.538274,102.607257 341.513063,102.486 C332.977428,102.486 330.557047,101.151286 325.075934,101.151286 C325.075934,101.151286 310.684023,102.563002 297.861945,105.802428 C285.016807,109.047164 279,110.99436 279,110.99436 L280.301099,144.421515 L292.658436,145.427861 L280.952092,183.36543 C280.952092,183.36543 294.122726,188.070562 328.105624,189.855787 C340.771606,190.521374 378.824539,188.667112 378.824539,188.667112 L379.97575,140.040325 L391.845286,144.096687 L399,110.670417 C399,110.670417 392.247057,107.748739 384.040465,104.665974" id="Fill-28" fill="#E8B143"></path>
                <path d="M335.318812,66 C335.318812,66 331.188192,70.9954174 330.216282,76.7168975 C330.216282,78.408993 325.842685,79.4558947 326.004375,80.9062622 C326.166949,82.3566297 326.247353,83.4044104 327.867793,83.4852794 C327.867793,83.4852794 328.596726,92.5092024 338.801786,93.87958 C338.801786,93.87958 352.48982,94.8464917 353.137466,91.3005628 C353.785112,87.755513 355,81.631446 355,81.631446 L349.08725,66 L335.318812,66 Z" id="Fill-29" fill="#F2B5BC"></path>
                <path d="M331.418982,59 C331.418982,59 336.493747,60.9950096 341.246011,60.1968317 C345.998276,59.3986537 357.356962,60.1167527 360.578449,67.2977427 C363.800815,74.4787327 361.948416,88.5221378 350.831385,89 C350.348953,85.4895839 347.851554,84.6922764 349.381453,82.0592468 C350.91223,79.4253467 349.272488,76.7923171 346.709183,78.0692276 C344.145877,79.3461382 341.004356,79.744792 341.649356,77.9099402 C342.293478,76.0750885 343.497362,70.1701387 340.599254,69.7714849 C337.702024,69.3728312 329.002427,66.6597226 331.418982,59" id="Fill-30" fill="#7E5038"></path>
                <path d="M274.364172,358.020327 C274.364172,358.020327 285.262313,359.350912 287.067413,359.537756 C288.474304,359.682878 287.871727,363.445158 287.871727,363.445158 L286.726216,376 L254.001972,376 C254.001972,376 253.866019,371.842263 255.851805,370.762013 C255.851805,370.762013 262.462613,366.562554 263.910728,365.598401 C266.925369,363.593001 272.332776,357.607637 274.364172,358.020327" id="Fill-31" fill="#263166"></path>
                <polygon id="Fill-32" fill="#0E183A" points="253 375 253 379 287 378.825825 287 375.173313"></polygon>
                <path d="M287.679153,82.9014415 C287.679153,82.9014415 289.271876,77.1308918 287.038454,73.0928417 C284.80413,69.0547917 283.045366,65.192928 284.576727,64.7319959 C286.272323,64.2221231 290.160733,72.1958928 290.160733,72.1958928 C290.160733,72.1958928 289.532667,64.873479 289.313386,63.7327165 C289.141931,62.8455556 288.051841,59.8379291 289.85031,59.7774206 C291.649681,59.7160223 291.584708,68.0065716 293.696307,69.6260628 C293.993194,69.8538593 294.385735,69.5504272 294.544556,68.6472494 C294.710597,67.7093682 294.400173,57.7993278 296.860998,58.003099 C299.834382,58.2486921 296.48831,69.8689864 297.480942,70.4509355 C298.473574,71.0337743 301.761893,62.0402592 303.436734,62.5296659 C305.112477,63.0190725 303.767912,67.1380971 302.713015,68.7905121 C301.65902,70.4420372 300.066297,75.0504685 300.873036,75.6626717 C301.679775,76.2739852 305.236105,73.5413162 306.66369,74.8876295 C308.090373,76.233053 304.616161,78.1906797 303.002683,79.1080948 C301.390107,80.0263997 293.820837,87 293.820837,87 L287.679153,82.9014415 Z" id="Fill-33" fill="#F2B5BC"></path>
                <path d="M382.983306,83.1117736 C381.789048,82.3411458 379.592592,80.6920916 377.941758,80.5085663 C376.290923,80.3250411 372.150307,78.3953536 371.699841,77.0171327 C371.250248,75.6389117 373.800268,75.2103893 379.112444,76.5271382 C376.081405,72.8521793 368.56055,66.337034 371.78976,64.7369792 C373.301787,63.987733 377.96882,68.9972588 379.892029,70.6774945 C380.670741,71.3581414 380.822642,70.6169134 380.012503,69.2386924 C379.202363,67.8604715 373.620431,59.2552769 376.23156,58.2138158 C378.841816,57.1723547 381.813492,67.9834156 383.164016,67.8301809 C384.663822,67.5237116 382.41324,58.0917626 384.333829,58 C387.184159,58.0302906 386.944958,69.6672149 387.995172,69.330455 C389.045385,68.9936952 387.575261,61.5217242 390.276309,62.1337719 C392.976483,62.7467105 390.725901,68.2587034 390.905738,70.5554413 C391.085575,72.8521793 392.466654,76.9761513 391.836351,78.6510417 C391.206049,80.3250411 384.513666,84 384.513666,84 C384.513666,84 383.355202,83.3514254 382.983306,83.1117736" id="Fill-34" fill="#F2B5BC"></path>
                <path d="M274.364172,358.020327 C274.364172,358.020327 285.262313,359.350912 287.067413,359.537756 C288.474304,359.682878 287.871727,363.445158 287.871727,363.445158 L286.726216,376 L254.001972,376 C254.001972,376 253.866019,371.842263 255.851805,370.762013 C255.851805,370.762013 262.462613,366.562554 263.910728,365.598401 C266.925369,363.593001 272.332776,357.607637 274.364172,358.020327" id="Fill-31备份" fill="#FFFFFF" opacity="0.099999994"></path>
                <path d="M258,369 C258,369 261.381089,369.749703 262,371" id="Stroke-35" stroke="#F2F2F2" stroke-width="0.941" stroke-linecap="round"></path>
                <path d="M263,366 C263,366 266.380397,366.749703 267,368" id="Stroke-36" stroke="#F2F2F2" stroke-width="0.941" stroke-linecap="round"></path>
                <path d="M268,363 C268,363 271.381089,363.749703 272,365" id="Stroke-37" stroke="#F2F2F2" stroke-width="0.941" stroke-linecap="round"></path>
                <path d="M347.364172,358.020327 C347.364172,358.020327 358.262313,359.350912 360.067413,359.537756 C361.474304,359.682878 360.871727,363.445158 360.871727,363.445158 L359.726216,376 L327.001972,376 C327.001972,376 326.866019,371.842263 328.851805,370.762013 C328.851805,370.762013 335.462613,366.562554 336.910728,365.598401 C339.925369,363.593001 345.332776,357.607637 347.364172,358.020327" id="Fill-38" fill="#263166"></path>
                <path d="M347.364172,358.020327 C347.364172,358.020327 358.262313,359.350912 360.067413,359.537756 C361.474304,359.682878 360.871727,363.445158 360.871727,363.445158 L359.726216,376 L327.001972,376 C327.001972,376 326.866019,371.842263 328.851805,370.762013 C328.851805,370.762013 335.462613,366.562554 336.910728,365.598401 C339.925369,363.593001 345.332776,357.607637 347.364172,358.020327" id="Fill-38备份" fill="#FFFFFF" opacity="0.099999994"></path>
                <polygon id="Fill-39" fill="#0E183A" points="327 375 327 379 361 378.825825 361 375.173313"></polygon>
                <polygon id="Fill-32备份" fill="#FFFFFF" opacity="0.099999994" points="253 375 253 379 287 378.825825 287 375.173313"></polygon>
                <polygon id="Fill-39备份" fill="#FFFFFF" opacity="0.099999994" points="327 375 327 379 361 378.825825 361 375.173313"></polygon>
                <path d="M332,369 C332,369 335.381089,369.749703 336,371" id="Stroke-40" stroke="#F2F2F2" stroke-width="0.941" stroke-linecap="round"></path>
                <path d="M337,366 C337,366 340.380397,366.749703 341,368" id="Stroke-41" stroke="#F2F2F2" stroke-width="0.941" stroke-linecap="round"></path>
                <path d="M342,363 C342,363 345.381089,363.749703 346,365" id="Stroke-42" stroke="#F2F2F2" stroke-width="0.941" stroke-linecap="round"></path>
                <path d="M174.673111,165.460442 C153.293707,147.952695 129.399132,138.961301 111.585924,140.095581 C111.215445,140.775973 110.87073,141.469585 110.575768,142.191399 C101.664722,164.022101 131.450538,196.586597 177.103881,214.925444 C189.035621,219.718151 200.866967,223.060179 212,225 C210.948976,206.953757 197.242135,183.942946 174.673111,165.460442" id="Fill-44" fill="#424445"></path>
                <path d="M189.336571,135.35293 C176.993753,126.883235 152.867952,123.033775 141.159026,124.20581 C127.11907,125.612428 116.637373,131.267122 112,139.848817 C129.67756,138.713821 153.388995,147.710887 174.604536,165.229679 C197.00058,183.723844 210.602365,206.749172 211.644452,224.8068 C214.399545,225.290077 217.11232,225.691338 219.771316,226 C219.786303,225.977071 219.803936,225.956787 219.818924,225.933858 C233.604088,204.596472 229.642044,163.009956 189.336571,135.35293" id="Fill-43" fill="#FFFFFF" opacity="0.0889127822"></path>
                <line x1="182" y1="159" x2="208" y2="133" id="Stroke-45" stroke="#2E64FF" stroke-width="3" stroke-linecap="round"></line>
                <path d="M213,132 C213,133.656857 211.656857,135 210,135 C208.343143,135 207,133.656857 207,132 C207,130.343143 208.343143,129 210,129 C211.656857,129 213,130.343143 213,132" id="Fill-46" fill="#2E64FF"></path>
                <path d="M204,97 C224.986636,97 242,114.013364 242,135" id="Stroke-47" stroke="#2E64FF" stroke-width="3" stroke-linecap="round"></path>
                <path d="M205,109 C219.911535,109 232,121.088062 232,136" id="Stroke-48" stroke="#2E64FF" stroke-width="3" stroke-linecap="round"></path>
                <path d="M205,120 C213.836564,120 221,127.163927 221,136" id="Stroke-49" stroke="#2E64FF" stroke-width="3" stroke-linecap="round"></path>
                <path d="M84.2825374,185 C82.1641712,190.651394 81,196.767916 81,203.156794 C81,231.789581 104.255958,255 132.943829,255 C147.979711,255 161.514751,248.617312 171,238.426056 C155.238504,235.295726 137.662532,228.14372 120.660672,217.176072 C105.789581,207.584353 93.4071941,196.392984 84.2825374,185" id="Fill-50" fill="#292C2F"></path>
                <path d="M198.63116,222.268445 C193.359615,220.867886 187.992672,219.169297 182.584215,217.16647 C180.781396,216.498565 178.97416,215.796068 177.163391,215.060751 C146.470417,202.579893 122.995785,183.553036 113.748498,165.745792 C112.039309,162.454166 110.822119,159.206003 110.128727,156.046539 C109.026366,151.022618 109.259557,146.226655 111.020861,141.859108 C115.007203,131.973587 126.105008,125.961558 141.238619,124.017272 C110.082795,111.906289 81.6475401,113.299752 71.1070985,129.677165 C62.4030416,143.2029 67.983743,163.707485 83.5925709,183.703824 C83.8231127,183.999192 84.0660207,184.293674 84.300979,184.589042 C93.3981053,196.017042 105.743133,207.242807 120.569355,216.864005 C137.519918,227.865362 155.042862,235.03935 170.756802,238.179301 C184.252772,240.876642 196.415839,240.599901 205.731141,237.195627 C211.857723,234.955973 216.768882,231.383171 220,226.400052 C213.171193,225.60176 205.995248,224.226036 198.63116,222.268445" id="Fill-51" fill="#292C2F"></path>
                <path d="M104.001431,261.656041 C104.001431,261.656041 103.684553,235.657988 112.481267,235.020488 C126.093634,234.033986 124.977866,269 124.977866,269 L104.001431,261.656041 Z" id="Fill-52" fill="#373B3F"></path>
                <path d="M116,241 C116,242.104889 115.104889,243 114,243 C112.895111,243 112,242.104889 112,241 C112,239.896 112.895111,239 114,239 C115.104889,239 116,239.896 116,241" id="Fill-53" fill="#4F5256"></path>
                <path d="M124.637584,269 L149,261.217523 L148.025503,251.184046 L145.053289,252.006577 L145.234899,254.640781 L127.516779,259.40848 C127.516779,259.40848 125.744966,236.624017 116.996644,235 L116,235 C116,235 124.748322,239.514275 124.637584,269" id="Fill-54" fill="#292C2F"></path>
            </g>
        </g>
    </g>
</svg>