<svg id="图层_1" data-name="图层 1" xmlns="http://www.w3.org/2000/svg" viewBox="0 0 800 800"><defs><style>.cls-1{fill:#e3eaf0;}.cls-13,.cls-16,.cls-2,.cls-4,.cls-7,.cls-8{fill:none;stroke-miterlimit:10;}.cls-2{stroke:#e3eaf0;stroke-width:2px;}.cls-3{fill:#f2b5bc;}.cls-4{stroke:#4dd9fe;stroke-width:0.59px;}.cls-5{fill:#f9c152;}.cls-6{fill:#ff8227;}.cls-7{stroke:#f9c152;stroke-width:2.2px;}.cls-13,.cls-16,.cls-7{stroke-linecap:round;}.cls-8{stroke:#666;stroke-width:1.1px;}.cls-9{fill:#2f2f3d;}.cls-10{fill:#7e5038;}.cls-11{fill:#263166;}.cls-12{fill:#0e183a;}.cls-13{stroke:#f2f2f2;stroke-width:0.94px;}.cls-14{fill:#fff;}.cls-15{fill:#f7f5f5;}.cls-16{stroke:#2e64ff;stroke-width:3px;}.cls-17{fill:#2e64ff;}.cls-18{fill:#c5d1df;}</style></defs><path class="cls-1" d="M320.3,139.32c45.41-21.28,139-25.88,199,25.16,65,55.34,79.82,145.41,78.5,198.84C597,395.77,595,432.15,513,461.48c-84.55,30.24-86.33,54.34-149,62-60.19,7.37-181.66-62-187.16-170.16C171.31,245.47,262,166.64,320.3,139.32Z"/><path class="cls-2" d="M209,458.15s-52-25-47.29-108S243.3,174.82,243.3,174.82"/><path class="cls-3" d="M609.13,251.53s14.85,2.94,15.22,0-27.68-31.9-27.68-31.9l8.25-7s31.71,22.55,32.81,32.27-8.8,28.78-33.91,32.82C599.42,259.78,609.13,251.53,609.13,251.53Z"/><path class="cls-3" d="M481.53,255.75s-15.89-.74-18.67-7.15c10.79-6.42,33.89-25.85,33.89-25.85l-8.62-10.09s-35.38,20.72-38.86,27.87S448.17,273,483.92,282C487.58,268.4,481.53,255.75,481.53,255.75Z"/><path class="cls-3" d="M549.89,229.84s-4.43,11.24-6.46,12.1,18.26.17,18.26.17l-.63-15.29Z"/><ellipse cx="360.01" cy="429.26" rx="136.07" ry="26.43" transform="translate(-63.38 62.36) rotate(-9.1)"/><path class="cls-4" d="M567.34,133.57s1.81,4.5,6.69,1.19.67-5.06-.64-3.57-2.06,4.44.63,6.06,7.93-1,9-2.7-1-3.54-3.52-.5.66,5.64,3.26,5.82,5.86-.59,6.94-1.6"/><polygon class="cls-5" points="563.06 144.99 564.66 149.05 568.83 147.77 566.66 151.55 570.26 154.02 565.95 154.68 566.26 159.03 563.06 156.07 559.86 159.03 560.17 154.68 555.86 154.02 559.46 151.55 557.29 147.77 561.46 149.05 563.06 144.99"/><path class="cls-6" d="M516.58,152.16s3.55-.45,5.49-6c0,0,2.22,5.08,6.19,5.56,0,0-4.9,2.87-5.84,6.15C522.42,157.86,519.89,152.31,516.58,152.16Z"/><path class="cls-7" d="M497.77,167.82s-7.26-.73-7.84-6.67-6.35-4-6.35-4"/><line class="cls-8" x1="389.68" y1="554.76" x2="522.42" y2="554.76"/><line class="cls-8" x1="530.48" y1="554.76" x2="578.52" y2="554.76"/><line class="cls-8" x1="585.85" y1="554.76" x2="618.12" y2="554.76"/><polygon class="cls-3" points="474.11 522.13 473.19 530.65 485.38 532.21 487.04 521.49 474.11 522.13"/><polygon class="cls-3" points="557.11 519.45 556.7 530.45 569.42 532.58 569.42 518.28 557.11 519.45"/><path class="cls-9" d="M488.36,326.41,469,524.75l20.93.5S504.1,457,510.68,433.58c5.65-20,27.32-78.65,27.32-78.65s-1,68.81.73,91.67c1.46,19.66,11,74.8,11,74.8h22.48s-1.61-57.69-.63-78c1.42-29.34,12.25-116.84,12.25-116.84Z"/><path class="cls-5" d="M597,242.91c-14.34-5.4-29.09-4-29.09-4-7.08.72-8.68,1.65-18.85,1.51-9.63,0-12.36-1.51-18.54-1.51a241.85,241.85,0,0,0-30.68,5.26c-14.49,3.66-21.27,5.86-21.27,5.86l1.47,37.77L494,289l-13.2,42.86s14.85,5.32,53.17,7.33c14.28.75,57.18-1.34,57.18-1.34l1.3-54.94,13.38,4.58,8.07-37.76S606.29,246.4,597,242.91Z"/><path class="cls-3" d="M541.48,199s-4.67,5.69-5.77,12.2c0,1.92-5,3.11-4.77,4.76s.28,2.84,2.11,2.94c0,0,.83,10.26,12.38,11.82,0,0,15.49,1.1,16.22-2.93s2.11-11,2.11-11L557.07,199Z"/><path class="cls-10" d="M536.9,190.2s5.78,2.3,11.18,1.38,18.34-.09,22,8.16,1.56,24.38-11.09,24.93c-.55-4-3.39-4.95-1.65-8s-.12-6-3-4.59-6.49,1.93-5.76-.18,2.11-8.89-1.19-9.35S534.15,199,536.9,190.2Z"/><path class="cls-11" d="M472.21,530.17s12.42,1.47,14.48,1.68c1.6.16.92,4.3.92,4.3L486.3,550H449s-.15-4.59,2.11-5.78c0,0,7.54-4.63,9.19-5.69C463.73,536.32,469.89,529.72,472.21,530.17Z"/><polygon class="cls-12" points="448.69 549.89 448.69 554.53 486.78 554.33 486.78 550.1 448.69 549.89"/><path class="cls-3" d="M488.08,217.47s1.77-6.49-.71-11-4.42-8.87-2.72-9.39c1.88-.57,6.18,8.39,6.18,8.39s-.69-8.23-.94-9.51c-.18-1-1.39-4.38.6-4.45s1.92,9.25,4.26,11.07c.33.25.77-.09.94-1.1s-.16-12.19,2.57-12c3.29.27-.41,13.33.69,14s4.74-9.45,6.6-8.9.36,5.18-.81,7-2.93,7-2,7.72,4.83-2.38,6.41-.87-2.27,3.71-4.05,4.74-10.18,8.87-10.18,8.87Z"/><path class="cls-3" d="M595.41,218.39c-1.37-.86-3.89-2.71-5.78-2.92s-6.63-2.37-7.15-3.92,2.41-2,8.49-.55c-3.47-4.12-12.08-11.44-8.38-13.23,1.73-.84,7.07,4.78,9.28,6.67.89.76,1.06-.07.13-1.62s-7.32-11.21-4.33-12.38,6.4,11,7.94,10.8c1.72-.35-.86-10.93,1.34-11,3.27,0,3,13.1,4.2,12.72s-.48-8.76,2.61-8.08.52,6.88.72,9.46,1.79,7.2,1.07,9.08-8.39,6-8.39,6S595.83,218.66,595.41,218.39Z"/><path class="cls-13" d="M454.46,542.15s4.13,1,4.89,2.53"/><path class="cls-13" d="M460.13,538.81s4.13,1,4.88,2.53"/><path class="cls-13" d="M465.73,536s4.13.95,4.89,2.53"/><path class="cls-11" d="M555.39,530.17s12.43,1.47,14.49,1.68c1.6.16.91,4.3.91,4.3L569.49,550H532.18s-.16-4.59,2.11-5.78c0,0,7.54-4.63,9.19-5.69C546.91,536.32,553.08,529.72,555.39,530.17Z"/><polygon class="cls-12" points="531.88 549.89 531.88 554.53 569.97 554.33 569.97 550.1 531.88 549.89"/><path class="cls-13" d="M537.65,542.15s4.13,1,4.89,2.53"/><path class="cls-13" d="M543.31,538.81s4.13,1,4.89,2.53"/><path class="cls-13" d="M548.92,536s4.13.95,4.89,2.53"/><path class="cls-14" d="M375.24,277.68c-14-9.61-41.37-14-54.65-12.64-15.92,1.59-27.81,8-33.07,17.74,20.05-1.29,46.94,8.91,71,28.78,25.4,21,40.83,47.08,42,67.55,3.12.55,6.2,1,9.22,1.36,0,0,0-.05.05-.08C425.45,356.19,421,309,375.24,277.68Z"/><path class="cls-15" d="M358.53,311.56c-24.07-19.87-51-30.07-71-28.78a22.45,22.45,0,0,0-1.14,2.37c-10,24.77,23.5,61.72,74.88,82.53a195.42,195.42,0,0,0,39.28,11.43C399.36,358.64,383.93,332.53,358.53,311.56Z"/><line class="cls-16" x1="368.63" y1="304.41" x2="398.13" y2="274.91"/><circle class="cls-17" cx="399.59" cy="273.45" r="3.5"/><path class="cls-16" d="M392.9,233.76a42.88,42.88,0,0,1,42.88,42.88"/><path class="cls-16" d="M394.13,247.67a30,30,0,0,1,30,30"/><path class="cls-16" d="M393.65,260.15a18,18,0,0,1,18,18"/><path class="cls-18" d="M256.13,333.33A58.63,58.63,0,0,0,354,393.75c-17.79-3.54-37.63-11.63-56.82-24C280.41,358.87,266.43,346.21,256.13,333.33Z"/><path class="cls-18" d="M385.57,375.81c-6-1.58-12.05-3.5-18.17-5.76q-3.06-1.12-6.14-2.37c-34.75-14.07-61.32-35.52-71.79-55.6a44.5,44.5,0,0,1-4.1-10.93,26.72,26.72,0,0,1,1-16c4.51-11.14,17.08-17.92,34.21-20.11-35.27-13.66-67.46-12.08-79.4,6.38-9.85,15.25-3.53,38.37,14.14,60.91l.8,1c10.3,12.88,24.28,25.54,41.06,36.38,19.19,12.41,39,20.5,56.82,24,15.28,3,29.05,2.72,39.59-1.11,6.94-2.53,12.5-6.56,16.16-12.17A174,174,0,0,1,385.57,375.81Z"/><path class="cls-1" d="M278.63,421.78s-.35-29.65,9.5-30.38c15.25-1.12,14,38.75,14,38.75Z"/><circle class="cls-14" cx="290.13" cy="398.28" r="2.25"/><path class="cls-18" d="M302.13,430.15l27.5-8.87-1.1-11.44-3.35.93.2,3-20,5.44s-2-26-11.87-27.84h-1.13S302.26,396.53,302.13,430.15Z"/></svg>