<?xml version="1.0" encoding="UTF-8"?>
<svg width="479px" height="432px" viewBox="0 0 479 432" version="1.1" xmlns="http://www.w3.org/2000/svg" xmlns:xlink="http://www.w3.org/1999/xlink">
    <title>15B742E8-4B51-48A5-A078-819D52CE456D</title>
    <defs>
        <polygon id="path-1" points="0.2991 0.3498 41.448 0.3498 41.448 65.4338 0.2991 65.4338"></polygon>
    </defs>
    <g id="布局" stroke="none" stroke-width="1" fill="none" fill-rule="evenodd">
        <g id="画板" transform="translate(-596.000000, -393.000000)">
            <g id="浏览器版本低" transform="translate(598.000000, 393.000000)">
                <path d="M158.9282,15.099 C204.3382,-6.174 297.9662,-10.779 357.9282,40.265 C422.9282,95.599 437.7512,185.673 436.4282,239.099 C435.6232,271.554 433.6282,307.935 351.5942,337.265 C267.0382,367.497 265.2612,391.599 202.5942,399.265 C142.4052,406.629 20.9282,337.265 15.4282,229.099 C9.9442,121.247 100.5972,42.425 158.9282,15.099" id="Fill-1" fill="#E3EAF0"></path>
                <path d="M47.5942,333.932 C47.5942,333.932 -4.3708,308.932 0.2962,225.932 C4.9632,142.932 81.9282,50.599 81.9282,50.599" id="Stroke-3" stroke="#E3EAF0" stroke-width="2"></path>
                <g id="编组" transform="translate(435.000000, 88.093000)">
                    <mask id="mask-2" fill="white">
                        <use xlink:href="#path-1"></use>
                    </mask>
                    <g id="Clip-6"></g>
                    <path d="M12.7661,39.2208 C12.7661,39.2208 27.6161,42.1588 27.9831,39.2208 C28.3491,36.2828 0.2991,7.3168 0.2991,7.3168 L8.5491,0.3498 C8.5491,0.3498 40.2661,22.8998 41.3661,32.6168 C42.4661,42.3328 32.5661,61.3998 7.4501,65.4338 C3.0491,47.4668 12.7661,39.2208 12.7661,39.2208" id="Fill-5" fill="#F2B5BC" mask="url(#mask-2)"></path>
                </g>
                <path d="M320.1655,131.5267 C320.1655,131.5267 304.2745,130.7937 301.4955,124.3767 C312.2825,117.9597 335.3825,98.5267 335.3825,98.5267 L326.7665,88.4427 C326.7665,88.4427 291.3825,109.1597 287.8985,116.3097 C284.4155,123.4597 286.7995,148.7597 322.5495,157.7427 C326.2165,144.1757 320.1655,131.5267 320.1655,131.5267" id="Fill-7" fill="#F2B5BC"></path>
                <path d="M388.5259,105.6195 C388.5259,105.6195 384.0919,116.8595 382.0639,117.7195 C380.0359,118.5785 400.3169,117.8905 400.3169,117.8905 L399.6899,102.5995 L388.5259,105.6195 Z" id="Fill-9" fill="#F2B5BC"></path>
                <path d="M332.9946,283.516 C335.3046,297.931 277.0226,319.255 202.8186,331.146 C128.6146,343.036 66.5886,340.988 64.2786,326.573 C61.9696,312.158 120.2506,290.832 194.4546,278.943 C268.6576,267.053 330.6846,269.1 332.9946,283.516" id="Fill-11" fill="#000000"></path>
                <path d="M405.9683,9.3461 C405.9683,9.3461 407.7793,13.8481 412.6613,10.5431 C417.5443,7.2391 413.3333,5.4841 412.0213,6.9691 C410.7093,8.4551 409.9613,11.4101 412.6483,13.0341 C415.3343,14.6581 420.5773,12.0001 421.6493,10.3261 C422.7203,8.6521 420.6283,6.7861 418.1333,9.8351 C415.6373,12.8841 418.7893,15.4661 421.3873,15.6501 C423.9853,15.8331 427.2543,15.0571 428.3303,14.0551" id="Stroke-13" stroke="#4DD9FE" stroke-width="0.593"></path>
                <polygon id="Fill-15" fill="#F9C152" points="401.6919 20.7709 403.2939 24.8289 407.4649 23.5499 405.2919 27.3329 408.8909 29.7969 404.5789 30.4569 404.8959 34.8069 401.6919 31.8459 398.4879 34.8069 398.8049 30.4569 394.4929 29.7969 398.0919 27.3329 395.9199 23.5499 400.0899 24.8289"></polygon>
                <path d="M355.2075,27.9378 C355.2075,27.9378 358.7635,27.4898 360.7055,21.9318 C360.7055,21.9318 362.9165,27.0118 366.8915,27.4898 C366.8915,27.4898 361.9905,30.3588 361.0495,33.6448 C361.0495,33.6448 358.5235,28.0868 355.2075,27.9378" id="Fill-17" fill="#FF8227"></path>
                <path d="M336.397,43.599 C336.397,43.599 329.145,42.869 328.56,36.926 C327.974,30.983 322.207,32.919 322.207,32.919" id="Stroke-19" stroke="#F9C152" stroke-width="2.2" stroke-linecap="round"></path>
                <line x1="228.3159" y1="430.5433" x2="361.0489" y2="430.5433" id="Stroke-21" stroke="#666666" stroke-width="1.1"></line>
                <line x1="369.1157" y1="430.5433" x2="417.1487" y2="430.5433" id="Stroke-23" stroke="#666666" stroke-width="1.1"></line>
                <line x1="424.4829" y1="430.5433" x2="456.7499" y2="430.5433" id="Stroke-25" stroke="#666666" stroke-width="1.1"></line>
                <polygon id="Fill-27" fill="#F2B5BC" points="312.7407 397.9095 311.8247 406.4345 324.0157 407.9925 325.6657 397.2675"></polygon>
                <polygon id="Fill-29" fill="#F2B5BC" points="395.7446 395.2289 395.3326 406.2289 408.0516 408.3599 408.0516 394.0599"></polygon>
                <path d="M326.9956,202.1878 L307.6706,400.5308 L328.5996,401.0268 C328.5996,401.0268 342.7276,332.7498 349.3156,309.3598 C354.9586,289.3248 376.6326,230.7088 376.6326,230.7088 C376.6326,230.7088 375.6726,299.5218 377.3656,322.3758 C378.8226,342.0408 388.3656,397.1758 388.3656,397.1758 L410.8436,397.1758 C410.8436,397.1758 409.2276,339.4878 410.2106,319.1888 C411.6306,289.8538 422.4656,202.3488 422.4656,202.3488 L326.9956,202.1878 Z" id="Fill-31" fill="#2F2F3D"></path>
                <path d="M435.6655,118.6927 C421.3215,113.2937 406.5665,114.7217 406.5665,114.7217 C399.4935,115.4387 397.8925,116.3667 387.7165,116.2297 C378.0915,116.2297 375.3625,114.7217 369.1825,114.7217 C369.1825,114.7217 352.9565,116.3167 338.4995,119.9757 C324.0165,123.6427 317.2325,125.8427 317.2325,125.8427 L318.6995,163.6097 L332.6325,164.7477 L319.4325,207.6097 C319.4325,207.6097 334.2825,212.9257 372.5995,214.9427 C386.8795,215.6947 429.7845,213.5997 429.7845,213.5997 L431.0825,158.6597 L444.4665,163.2427 L452.5325,125.4757 C452.5325,125.4757 444.9195,122.1757 435.6655,118.6927" id="Fill-33" fill="#F9C152"></path>
                <path d="M380.1157,74.7845 C380.1157,74.7845 375.4407,80.4685 374.3417,86.9755 C374.3417,88.9015 369.3907,90.0935 369.5747,91.7425 C369.7577,93.3925 369.8487,94.5845 371.6817,94.6765 C371.6817,94.6765 372.5077,104.9425 384.0567,106.5015 C384.0567,106.5015 399.5497,107.6005 400.2827,103.5675 C401.0157,99.5345 402.3907,92.5675 402.3907,92.5675 L395.6997,74.7845 L380.1157,74.7845 Z" id="Fill-35" fill="#F2B5BC"></path>
                <path d="M375.5327,65.9847 C375.5327,65.9847 381.3067,68.2767 386.7167,67.3597 C392.1247,66.4427 405.0497,67.2677 408.7167,75.5177 C412.3827,83.7677 410.2737,99.9017 397.6247,100.4517 C397.0747,96.4187 394.2327,95.5017 395.9737,92.4757 C397.7167,89.4517 395.8497,86.4257 392.9327,87.8927 C390.0157,89.3597 386.4407,89.8177 387.1747,87.7097 C387.9077,85.6007 389.2777,78.8177 385.9797,78.3597 C382.6817,77.9017 372.7827,74.7847 375.5327,65.9847" id="Fill-37" fill="#7E5038"></path>
                <path d="M310.8384,405.9535 C310.8384,405.9535 323.2644,407.4205 325.3214,407.6265 C326.9264,407.7865 326.2384,411.9345 326.2384,411.9345 L324.9324,425.7765 L287.6244,425.7765 C287.6244,425.7765 287.4684,421.1925 289.7334,420.0015 C289.7334,420.0015 297.2694,415.3715 298.9204,414.3085 C302.3584,412.0985 308.5234,405.4985 310.8384,405.9535" id="Fill-39" fill="#263166"></path>
                <polygon id="Fill-41" fill="#0E183A" points="287.3188 425.6752 287.3188 430.3152 325.4138 430.1122 325.4138 425.8772"></polygon>
                <path d="M326.7153,93.2474 C326.7153,93.2474 328.4803,86.7624 326.0053,82.2254 C323.5303,77.6864 321.5813,73.3464 323.2773,72.8284 C325.1573,72.2564 329.4653,81.2164 329.4653,81.2164 C329.4653,81.2164 328.7703,72.9874 328.5263,71.7054 C328.3363,70.7084 327.1283,67.3284 329.1213,67.2604 C331.1153,67.1914 331.0443,76.5084 333.3843,78.3284 C333.7123,78.5844 334.1483,78.2424 334.3233,77.2284 C334.5073,76.1744 334.1633,65.0374 336.8913,65.2664 C340.1863,65.5434 336.4783,78.6014 337.5783,79.2554 C338.6783,79.9104 342.3213,69.8044 344.1783,70.3534 C346.0343,70.9034 344.5443,75.5324 343.3763,77.3894 C342.2073,79.2454 340.4433,84.4244 341.3363,85.1114 C342.2303,85.7994 346.1723,82.7284 347.7533,84.2414 C349.3343,85.7544 345.4853,87.9534 343.6963,88.9844 C341.9093,90.0164 333.5223,97.8534 333.5223,97.8534 L326.7153,93.2474 Z" id="Fill-43" fill="#F2B5BC"></path>
                <path d="M434.0386,94.1722 C432.6716,93.3082 430.1546,91.4562 428.2646,91.2502 C426.3736,91.0442 421.6296,88.8782 421.1136,87.3312 C420.5986,85.7842 423.5196,85.3032 429.6036,86.7812 C426.1326,82.6562 417.5176,75.3432 421.2176,73.5472 C422.9486,72.7062 428.2956,78.3292 430.4986,80.2162 C431.3896,80.9792 431.5636,80.1472 430.6356,78.6002 C429.7076,77.0532 423.3136,67.3942 426.3046,66.2252 C429.2956,65.0572 432.6976,77.1912 434.2446,77.0192 C435.9636,76.6752 433.3856,66.0882 435.5856,65.9852 C438.8506,66.0192 438.5766,79.0812 439.7796,78.7032 C440.9826,78.3252 439.2986,69.9382 442.3926,70.6252 C445.4856,71.3132 442.9076,77.5002 443.1136,80.0782 C443.3196,82.6562 444.9006,87.2852 444.1796,89.1642 C443.4576,91.0442 435.7916,95.1692 435.7916,95.1692 C435.7916,95.1692 434.4656,94.4422 434.0386,94.1722" id="Fill-45" fill="#F2B5BC"></path>
                <path d="M293.0962,417.931 C293.0962,417.931 297.2262,418.878 297.9832,420.459" id="Stroke-47" stroke="#F2F2F2" stroke-width="0.941" stroke-linecap="round"></path>
                <path d="M298.7583,414.5892 C298.7583,414.5892 302.8893,415.5362 303.6453,417.1182" id="Stroke-49" stroke="#F2F2F2" stroke-width="0.941" stroke-linecap="round"></path>
                <path d="M304.3628,411.7425 C304.3628,411.7425 308.4938,412.6895 309.2498,414.2705" id="Stroke-51" stroke="#F2F2F2" stroke-width="0.941" stroke-linecap="round"></path>
                <path d="M394.0259,405.9535 C394.0259,405.9535 406.4519,407.4205 408.5089,407.6265 C410.1139,407.7865 409.4259,411.9345 409.4259,411.9345 L408.1199,425.7765 L370.8119,425.7765 C370.8119,425.7765 370.6559,421.1925 372.9209,420.0015 C372.9209,420.0015 380.4569,415.3715 382.1079,414.3085 C385.5459,412.0985 391.7109,405.4985 394.0259,405.9535" id="Fill-53" fill="#263166"></path>
                <polygon id="Fill-55" fill="#0E183A" points="370.5063 425.6752 370.5063 430.3152 408.6013 430.1122 408.6013 425.8772"></polygon>
                <path d="M376.2837,417.931 C376.2837,417.931 380.4137,418.878 381.1707,420.459" id="Stroke-57" stroke="#F2F2F2" stroke-width="0.941" stroke-linecap="round"></path>
                <path d="M381.9458,414.5892 C381.9458,414.5892 386.0768,415.5362 386.8328,417.1182" id="Stroke-59" stroke="#F2F2F2" stroke-width="0.941" stroke-linecap="round"></path>
                <path d="M387.5503,411.7425 C387.5503,411.7425 391.6813,412.6895 392.4373,414.2705" id="Stroke-61" stroke="#F2F2F2" stroke-width="0.941" stroke-linecap="round"></path>
                <path d="M213.8677,153.4584 C199.8677,143.8544 172.5037,139.4894 159.2227,140.8184 C143.2977,142.4134 131.4077,148.8254 126.1487,158.5574 C146.1987,157.2704 173.0947,167.4714 197.1577,187.3364 C222.5607,208.3084 237.9887,234.4164 239.1717,254.8924 C242.2967,255.4404 245.3737,255.8954 248.3887,256.2454 C248.4057,256.2204 248.4267,256.1964 248.4427,256.1704 C264.0797,231.9754 259.5857,184.8194 213.8677,153.4584" id="Fill-63" fill="#FFFFFF"></path>
                <path d="M197.1577,187.3363 C173.0947,167.4713 146.1987,157.2703 126.1487,158.5573 C125.7317,159.3283 125.3437,160.1153 125.0117,160.9343 C114.9817,185.7043 148.5077,222.6533 199.8937,243.4613 C213.3237,248.8993 226.6407,252.6913 239.1717,254.8923 C237.9887,234.4163 222.5607,208.3083 197.1577,187.3363" id="Fill-65" fill="#F7F5F5"></path>
                <line x1="207.2612" y1="180.1878" x2="236.7612" y2="150.6878" id="Stroke-67" stroke="#2E64FF" stroke-width="3" stroke-linecap="round"></line>
                <path d="M241.7183,149.2308 C241.7183,151.1648 240.1523,152.7308 238.2183,152.7308 C236.2853,152.7308 234.7183,151.1648 234.7183,149.2308 C234.7183,147.2978 236.2853,145.7308 238.2183,145.7308 C240.1523,145.7308 241.7183,147.2978 241.7183,149.2308" id="Fill-69" fill="#2E64FF"></path>
                <path d="M231.5327,109.5453 C255.2117,109.5453 274.4077,128.7413 274.4077,152.4203" id="Stroke-71" stroke="#2E64FF" stroke-width="3" stroke-linecap="round"></path>
                <path d="M232.7622,123.4457 C249.3372,123.4457 262.7752,136.8837 262.7752,153.4587" id="Stroke-73" stroke="#2E64FF" stroke-width="3" stroke-linecap="round"></path>
                <path d="M232.2798,135.933 C242.2248,135.933 250.2868,143.996 250.2868,153.941" id="Stroke-75" stroke="#2E64FF" stroke-width="3" stroke-linecap="round"></path>
                <path d="M94.7622,209.1078 C92.3712,215.4998 91.0572,222.4158 91.0572,229.6408 C91.0572,262.0208 117.3062,288.2688 149.6862,288.2688 C166.6572,288.2688 181.9352,281.0508 192.6412,269.5258 C174.8502,265.9858 155.0132,257.8978 135.8222,245.4958 C119.0372,234.6478 105.0612,221.9928 94.7622,209.1078" id="Fill-77" fill="#C5D1DF"></path>
                <path d="M224.1978,251.5882 C218.2298,250.0092 212.1528,248.0942 206.0308,245.8352 C203.9898,245.0822 201.9428,244.2912 199.8938,243.4612 C165.1448,229.3912 138.5698,207.9402 128.1008,187.8642 C126.1658,184.1532 124.7878,180.4902 124.0028,176.9292 C122.7548,171.2652 123.0178,165.8582 125.0118,160.9342 C129.5248,149.7892 142.0898,143.0112 159.2228,140.8182 C123.9508,127.1642 91.7588,128.7362 79.8258,147.2002 C69.9708,162.4482 76.2898,185.5662 93.9608,208.1092 C94.2218,208.4422 94.4968,208.7752 94.7618,209.1082 C105.0608,221.9922 119.0378,234.6482 135.8218,245.4952 C155.0128,257.8982 174.8498,265.9852 192.6408,269.5252 C207.9198,272.5672 221.6898,272.2542 232.2348,268.4162 C239.1718,265.8922 244.7308,261.8642 248.3888,256.2452 C240.6588,255.3462 232.5348,253.7942 224.1978,251.5882" id="Fill-79" fill="#C5D1DF"></path>
                <path d="M117.2651,297.5589 C117.2651,297.5589 116.9101,267.9119 126.7651,267.1839 C142.0151,266.0589 140.7651,305.9339 140.7651,305.9339 L117.2651,297.5589 Z" id="Fill-81" fill="#E3EAF0"></path>
                <path d="M131.0151,274.0589 C131.0151,275.3019 130.0071,276.3089 128.7651,276.3089 C127.5221,276.3089 126.5151,275.3019 126.5151,274.0589 C126.5151,272.8169 127.5221,271.8089 128.7651,271.8089 C130.0071,271.8089 131.0151,272.8169 131.0151,274.0589" id="Fill-83" fill="#FFFFFF"></path>
                <path d="M140.7651,305.9339 L168.2651,297.0589 L167.1641,285.6169 L163.8101,286.5549 L164.0151,289.5589 L144.0151,294.9959 C144.0151,294.9959 142.0151,269.0129 132.1401,267.1609 L131.0151,267.1609 C131.0151,267.1609 140.8901,272.3089 140.7651,305.9339" id="Fill-85" fill="#C5D1DF"></path>
            </g>
        </g>
    </g>
</svg>