<?xml version="1.0" encoding="UTF-8"?>
<svg width="443px" height="407px" viewBox="0 0 443 407" version="1.1" xmlns="http://www.w3.org/2000/svg" xmlns:xlink="http://www.w3.org/1999/xlink">
    <title>A98AF0CF-0DB5-412C-8F80-3EA811DB0F41</title>
    <defs>
        <polygon id="path-1" points="0.636939868 0.194324745 435.779 0.194324745 435.779 402.816548 0.636939868 402.816548"></polygon>
    </defs>
    <g id="布局" stroke="none" stroke-width="1" fill="none" fill-rule="evenodd">
        <g id="画板" transform="translate(-615.000000, -406.000000)">
            <g id="新建内容" transform="translate(615.000000, 406.000000)">
                <g id="编组" transform="translate(7.000000, 0.806000)">
                    <mask id="mask-2" fill="white">
                        <use xlink:href="#path-1"></use>
                    </mask>
                    <g id="Clip-2"></g>
                    <path d="M145.9947,106.1671 C162.1187,93.7141 178.9947,78.5001 193.3277,39.8341 C207.6617,1.1671 266.4907,-15.3159 320.9947,18.5001 C389.4947,61.0001 508.9947,283.7551 374.9947,358.8341 C240.9947,433.9121 100.3277,406.1671 46.9947,326.1671 C-6.3383,246.1671 -8.3383,189.5001 14.3277,164.1671 C36.9947,138.8341 111.3707,132.9081 145.9947,106.1671" id="Fill-1" fill="#E3EAF0" mask="url(#mask-2)"></path>
                </g>
                <path d="M0.9947,210.3062 C0.9947,210.3062 20.4947,401.3062 183.4947,405.8062" id="Stroke-3" stroke="#E3EAF0" stroke-width="2"></path>
                <path d="M382.7813,348.8901 C382.7813,362.2131 316.3323,373.0151 234.3643,373.0151 C152.3953,373.0151 85.9463,362.2131 85.9463,348.8901 C85.9463,335.5661 152.3953,324.7651 234.3643,324.7651 C316.3323,324.7651 382.7813,335.5661 382.7813,348.8901" id="Fill-5" fill="#000000"></path>
                <path d="M317.4815,318.8364 L367.4325,318.8364 C374.4485,318.8364 380.1885,313.0964 380.1885,306.0804 L380.1885,256.1304 C380.1885,249.1144 374.4485,243.3744 367.4325,243.3744 L317.4815,243.3744 C310.4655,243.3744 304.7255,249.1144 304.7255,256.1304 L304.7255,306.0804 C304.7255,313.0964 310.4655,318.8364 317.4815,318.8364" id="Fill-7" fill="#ACE4B3"></path>
                <path d="M316.4298,299.1499 L153.1138,299.1499 C143.1818,299.1499 135.0568,291.0249 135.0568,281.0929 L135.0568,184.7439 C135.0568,174.8119 143.1818,166.6869 153.1138,166.6869 L316.4298,166.6869 C326.3608,166.6869 334.4868,174.8119 334.4868,184.7439 L334.4868,281.0929 C334.4868,291.0249 326.3608,299.1499 316.4298,299.1499" id="Fill-9" fill="#4DD9FE"></path>
                <polygon id="Fill-11" fill="#F2B5BC" points="280.7823 269.314 288.1883 285.095 294.2203 262.533 287.6573 258.658"></polygon>
                <path d="M183.4386,272.3765 C183.4386,272.3765 174.6886,288.7515 166.3136,288.8765 C157.9386,289.0015 152.8136,285.1265 148.4386,280.6265 C144.0636,276.1265 107.9386,233.7515 107.9386,233.7515 C107.9386,233.7515 99.2006,231.3765 96.4446,227.7515 C93.6886,224.1265 86.0636,215.1265 86.0636,215.1265 C86.0636,215.1265 85.1886,200.7515 91.6886,196.6265 C91.6886,196.6265 81.6096,182.1265 86.0236,178.0015 C90.0636,177.1265 102.0636,197.0015 102.0636,197.0015 C102.0636,197.0015 110.6506,199.1265 112.6066,202.5015 C114.5636,205.8765 124.1886,225.8765 125.3136,227.0015 C126.4386,228.1265 158.0086,251.0715 158.0086,251.0715 L158.5476,249.0015 L184.5656,269.6475 L183.4386,272.3765 Z" id="Fill-13" fill="#F2B5BC"></path>
                <polygon id="Fill-15" fill="#F2B5BC" points="247.4586 174.7622 230.5726 171.0712 210.4586 174.3452 210.4586 188.9482 234.6256 194.9382 248.2386 186.8612 249.4486 178.5422"></polygon>
                <path d="M239.3868,143.2202 C239.3868,143.2202 237.9718,143.0322 237.4978,143.0262 C237.0238,143.0202 235.6048,143.1712 235.6048,143.1712 C235.2348,143.1662 234.9358,142.8382 234.9408,142.4432 C234.9458,142.0472 235.2518,141.5122 237.5168,141.5412 C239.6528,141.5692 240.0738,142.1142 240.069828,142.5102 C240.0638,142.9062 239.7568,143.2252 239.3868,143.2202" id="Fill-17" fill="#263166"></path>
                <path d="M217.441,143.2202 C217.441,143.2202 218.856,143.0322 219.33,143.0262 C219.804,143.0202 221.223,143.1712 221.223,143.1712 C221.593,143.1662 221.892,142.8382 221.887,142.4432 C221.882,142.0472 221.575,141.5122 219.311,141.5412 C217.175,141.5692 216.754,142.1142 216.757972,142.5102 C216.764,142.9062 217.071,143.2252 217.441,143.2202" id="Fill-19" fill="#263166"></path>
                <path d="M256.1554,144.6548 C256.1554,147.8628 253.6414,150.4638 250.5404,150.4638 C247.4404,150.4638 244.9264,147.8628 244.9264,144.6548 C244.9264,141.4478 247.4404,138.8468 250.5404,138.8468 C253.6414,138.8468 256.1554,141.4478 256.1554,144.6548" id="Fill-21" fill="#F2B5BC"></path>
                <path d="M212.172,144.6548 C212.172,147.8628 209.658,150.4638 206.558,150.4638 C203.457,150.4638 200.943,147.8628 200.943,144.6548 C200.943,141.4478 203.457,138.8468 206.558,138.8468 C209.658,138.8468 212.172,141.4478 212.172,144.6548" id="Fill-23" fill="#F2B5BC"></path>
                <path d="M228.6344,171.2486 L228.6344,171.2486 C218.1824,171.2486 209.6304,162.6956 209.6304,152.2436 L209.6304,139.2256 C209.6304,128.7726 218.1824,120.2216 228.6344,120.2216 C239.0864,120.2216 247.6384,128.7726 247.6384,139.2256 L247.6384,152.2436 C247.6384,162.6956 239.0864,171.2486 228.6344,171.2486" id="Fill-25" fill="#F2B5BC"></path>
                <path d="M209.9395,142.0903 C209.9395,142.0903 203.0765,133.6363 204.5765,126.6663 C206.0775,119.6963 208.9815,119.1153 208.9815,119.1153 L215.5635,125.4813 C215.5635,125.4813 209.8425,134.9753 209.9395,142.0903" id="Fill-27" fill="#603624"></path>
                <path d="M242.5709,113.4048 C242.5709,113.4048 254.0419,118.4378 253.7999,129.1828 C253.5579,139.9278 247.4539,141.2838 247.4539,141.2838 C247.4539,141.2838 247.4539,131.2788 237.6549,122.5478 C235.7529,120.8528 242.5709,113.4048 242.5709,113.4048" id="Fill-29" fill="#603624"></path>
                <path d="M220.1681,146.6392 L220.1681,146.6392 C219.6581,146.6392 219.2421,146.2232 219.2421,145.7142 L219.2421,143.0152 C219.2421,142.5062 219.6581,142.0902 220.1681,142.0902 L220.1681,142.0902 C220.6771,142.0902 221.0931,142.5062 221.0931,143.0152 L221.0931,145.7142 C221.0931,146.2232 220.6771,146.6392 220.1681,146.6392" id="Fill-31" fill="#263166"></path>
                <path d="M237.3985,146.6392 L237.3975,146.6392 C236.8885,146.6392 236.4725,146.2232 236.4725,145.7142 L236.4725,143.0152 C236.4725,142.5062 236.8885,142.0902 237.3975,142.0902 L237.3985,142.0902 C237.9075,142.0902 238.3235,142.5062 238.3235,143.0152 L238.3235,145.7142 C238.3235,146.2232 237.9075,146.6392 237.3985,146.6392" id="Fill-33" fill="#263166"></path>
                <path d="M236.0855,153.4761 C236.0855,155.1531 234.6175,156.5131 232.8065,156.5131 C231.7515,156.5131 230.8125,156.0511 230.2125,155.3341" id="Stroke-35" stroke="#263166" stroke-width="0.774" stroke-linecap="round"></path>
                <path d="M225.7921,142.5825 C225.7921,147.5865 221.7361,151.6425 216.7321,151.6425 C211.7291,151.6425 207.6731,147.5865 207.6731,142.5825 C207.6731,137.5795 211.7291,133.5225 216.7321,133.5225 C221.7361,133.5225 225.7921,137.5795 225.7921,142.5825 Z" id="Stroke-37" stroke="#2E64FF" stroke-width="0.774"></path>
                <path d="M232.1163,142.5825 C232.1163,147.5865 236.1723,151.6425 241.1763,151.6425 C246.1793,151.6425 250.2353,147.5865 250.2353,142.5825 C250.2353,137.5795 246.1793,133.5225 241.1763,133.5225 C236.1723,133.5225 232.1163,137.5795 232.1163,142.5825 Z" id="Stroke-39" stroke="#2E64FF" stroke-width="0.774"></path>
                <path d="M225.8346,142.0122 C226.7656,141.4652 227.9666,141.1352 229.2786,141.1352 C230.3386,141.1352 231.3266,141.3512 232.1576,141.7222" id="Stroke-41" stroke="#2E64FF" stroke-width="0.774"></path>
                <path d="M239.8751,187.8921 L217.2691,187.8921 C216.8431,187.8921 216.4941,187.5431 216.4941,187.1181 L216.4941,165.2761 C216.4941,164.8501 216.8431,164.5011 217.2691,164.5011 L239.8751,164.5011 C240.3011,164.5011 240.6491,164.8501 240.6491,165.2761 L240.6491,187.1181 C240.6491,187.5431 240.3011,187.8921 239.8751,187.8921" id="Fill-43" fill="#F2B5BC"></path>
                <path d="M211.2462,174.1626 C211.2462,174.1626 190.7642,181.3416 180.4382,192.8766 C170.1132,204.4116 158.1882,250.2516 158.1882,250.2516 L184.0382,271.0026 L193.1882,249.8766 L182.8132,304.5016 L281.8132,304.5016 L269.5632,252.2516 L280.7822,269.6226 L308.5632,233.8766 C308.5632,233.8766 293.4992,205.7596 287.2562,197.1836 C283.4152,191.9056 277.9532,186.8356 266.2612,181.6646 C253.6772,176.0986 247.3042,174.7266 247.3042,174.7266 C247.3042,174.7266 246.2552,190.4566 230.1222,190.0536 C213.9892,189.6496 211.8112,180.2126 211.2462,174.1626" id="Fill-45" fill="#F9C152"></path>
                <line x1="184.398" y1="262.2017" x2="163.939" y2="244.5017" id="Stroke-47" stroke="#FFFFFF" stroke-width="0.968" stroke-linecap="round" stroke-linejoin="round"></line>
                <line x1="280.5103" y1="261.896" x2="297.8133" y2="236.969" id="Stroke-49" stroke="#FFFFFF" stroke-width="0.968" stroke-linecap="round" stroke-linejoin="round"></line>
                <path d="M182.8175,307.6401 C182.8175,307.6401 182.3755,310.8631 189.5285,311.1921 C196.6835,311.5211 237.0285,313.1651 270.9575,311.1921 C277.0335,310.7971 281.8005,310.1581 281.8005,308.9731 C281.8005,307.7891 282.0635,304.1391 282.0635,304.1391 L182.7995,303.8901 L182.8175,307.6401 Z" id="Fill-51" fill="#7E5038"></path>
                <path d="M239.8482,314.9878 L225.0152,314.9878 C221.6962,314.9878 218.9802,312.2718 218.9802,308.9528 C218.9802,305.6338 221.6962,302.9188 225.0152,302.9188 L239.8482,302.9188 C243.1672,302.9188 245.8832,305.6338 245.8832,308.9528 C245.8832,312.2718 243.1672,314.9878 239.8482,314.9878" id="Fill-53" fill="#E3EAF0"></path>
                <path d="M202.9796,118.1479 C202.9796,118.1479 203.3186,104.1609 222.5816,106.2899 C241.8446,108.4189 247.0716,116.9869 247.2656,118.1479 C247.4586,119.3099 249.2716,128.9139 234.8266,126.8119 C220.1676,124.6789 203.3666,130.0059 202.9796,118.1479" id="Fill-55" fill="#7E5038"></path>
                <path d="M206.2452,176.063 C206.2452,176.063 209.8752,195.574 229.9532,194.742 C250.0322,193.911 251.4692,176.667 251.4692,176.667" id="Stroke-57" stroke="#FFFFFF" stroke-width="0.968" stroke-linecap="round" stroke-linejoin="round"></path>
                <path d="M230.5719,149.6323 C230.5719,150.3613 229.9809,150.9533 229.2509,150.9533 C228.5219,150.9533 227.9299,150.3613 227.9299,149.6323 C227.9299,148.9033 228.5219,148.3113 229.2509,148.3113 C229.9809,148.3113 230.5719,148.9033 230.5719,149.6323" id="Fill-59" fill="#F58B8D"></path>
                <path d="M302.3136,297.8765 C302.3136,297.8765 285.9386,298.5015 286.3136,273.2515 C286.6886,248.0015 290.6886,231.8765 289.4386,227.5015 C288.1886,223.1265 283.3226,218.8765 283.4426,211.3765 C283.5636,203.8765 286.4386,203.0015 289.1886,202.7515 C289.6886,196.0015 287.5636,175.8735 291.5636,176.0635 C295.5636,176.2515 296.0636,177.7515 296.3136,180.7515 C296.5636,183.7515 297.4386,197.5015 297.4386,197.5015 C297.4386,197.5015 302.0636,187.8765 308.5636,192.3765 C315.0636,196.8765 320.6886,201.2515 319.8136,205.1265 C318.9386,209.0015 310.5636,231.4775 310.8136,233.4265 C311.0636,235.3765 319.3136,271.5015 318.8136,277.0015 C318.3136,282.5015 318.5636,296.6265 302.3136,297.8765" id="Fill-61" fill="#F2B5BC"></path>
                <path d="M313.0216,200.1685 L306.7716,214.5015 C306.7716,214.5015 308.2296,217.6495 311.9386,217.7225" id="Stroke-63"></path>
                <path d="M306.7716,195.439 L299.3756,210.877 C299.3756,210.877 302.1256,213.689 305.5636,214.126" id="Stroke-65"></path>
                <path d="M287.7511,210.314 C287.7511,210.314 299.4391,211.189 299.3761,207.439 C299.3141,203.689 295.8141,203.252 290.6891,203.439" id="Stroke-67"></path>
                <line x1="297.8136" y1="198.439" x2="295.7506" y2="202.751" id="Stroke-69"></line>
                <path d="M294.5011,211.5015 C294.5011,211.5015 300.4291,212.4315 300.7461,216.3135 C301.0631,220.1965 298.7511,222.1895 298.7511,222.1895" id="Stroke-71"></path>
                <path d="M316.6793,300.5015 L152.8643,300.5015 C141.9503,300.5015 133.0213,291.5725 133.0213,280.6595 L133.0213,185.1775 C133.0213,174.2645 141.9503,165.3355 152.8643,165.3355 L316.6793,165.3355 C327.5923,165.3355 336.5213,174.2645 336.5213,185.1775 L336.5213,280.6595 C336.5213,291.5725 327.5923,300.5015 316.6793,300.5015 Z" id="Stroke-73" stroke="#4DD9FE" stroke-width="1.5"></path>
                <path d="M171.0758,185.4155 L149.5318,185.4155 C146.9598,185.4155 144.8548,183.3115 144.8548,180.7385 C144.8548,178.1655 146.9598,176.0615 149.5318,176.0615 L171.0758,176.0615 C173.6488,176.0615 175.7528,178.1655 175.7528,180.7385 C175.7528,183.3115 173.6488,185.4155 171.0758,185.4155 Z" id="Stroke-75" stroke="#4DD9FE" stroke-width="1.5"></path>
                <path d="M283.3228,185.4155 L258.6148,185.4155 C258.1058,185.4155 257.6888,184.9985 257.6888,184.4875 L257.6888,176.9885 C257.6888,176.4785 258.1058,176.0615 258.6148,176.0615 L283.3228,176.0615 C283.8328,176.0615 284.2498,176.4785 284.2498,176.9885 L284.2498,184.4875 C284.2498,184.9985 283.8328,185.4155 283.3228,185.4155" id="Fill-77" fill="#4DD9FE"></path>
                <path d="M315.4273,185.4155 L290.7193,185.4155 C290.2103,185.4155 289.7933,184.9985 289.7933,184.4875 L289.7933,176.9885 C289.7933,176.4785 290.2103,176.0615 290.7193,176.0615 L315.4273,176.0615 C315.9373,176.0615 316.3543,176.4785 316.3543,176.9885 L316.3543,184.4875 C316.3543,184.9985 315.9373,185.4155 315.4273,185.4155" id="Fill-79" fill="#F9C152"></path>
                <path d="M218.7477,253.1597 L151.9417,253.1597 C148.0437,253.1597 144.8547,249.9707 144.8547,246.0727 L144.8547,205.5257 C144.8547,201.6287 148.0437,198.4387 151.9417,198.4387 L218.7477,198.4387 C222.6457,198.4387 225.8347,201.6287 225.8347,205.5257 L225.8347,246.0727 C225.8347,249.9707 222.6457,253.1597 218.7477,253.1597" id="Fill-81" fill="#4DD9FE"></path>
                <line x1="144.8551" y1="263.8355" x2="225.2091" y2="263.8355" id="Stroke-83" stroke="#4DD9FE" stroke-width="1.5" stroke-linecap="round" stroke-linejoin="round"></line>
                <line x1="144.8551" y1="277.6685" x2="225.2091" y2="277.6685" id="Stroke-85" stroke="#4DD9FE" stroke-width="1.5" stroke-linecap="round" stroke-linejoin="round"></line>
                <polyline id="Stroke-87" stroke="#FFFFFF" stroke-width="0.968" stroke-linecap="round" stroke-linejoin="round" points="153.6886 233.4263 159.1886 238.3353 169.0216 225.7993 182.1686 236.9693 188.0216 228.5013 194.0216 232.9183"></polyline>
                <line x1="316.3546" y1="146.6392" x2="315.1886" y2="135.7512" id="Stroke-89" stroke="#2E64FF" stroke-width="3" stroke-linecap="round"></line>
                <line x1="329.8468" y1="149.605" x2="331.8888" y2="138.847" id="Stroke-91" stroke="#2E64FF" stroke-width="3" stroke-linecap="round"></line>
                <line x1="340.6324" y1="157.2876" x2="347.8374" y2="149.0426" id="Stroke-93" stroke="#2E64FF" stroke-width="3" stroke-linecap="round"></line>
                <line x1="345.9474" y1="171.5552" x2="356.8304" y2="170.3472" id="Stroke-95" stroke="#2E64FF" stroke-width="3" stroke-linecap="round"></line>
                <path d="M362.0216,123.3765 C362.0216,125.1945 360.5476,126.6685 358.7296,126.6685 C356.9126,126.6685 355.4386,125.1945 355.4386,123.3765 C355.4386,121.5595 356.9126,120.0855 358.7296,120.0855 C360.5476,120.0855 362.0216,121.5595 362.0216,123.3765" id="Fill-97" fill="#2E64FF"></path>
                <path d="M119.0421,286.8716 C119.0421,288.6886 117.5681,290.1636 115.7501,290.1636 C113.9331,290.1636 112.4591,288.6886 112.4591,286.8716 C112.4591,285.0536 113.9331,283.5796 115.7501,283.5796 C117.5681,283.5796 119.0421,285.0536 119.0421,286.8716" id="Fill-99" fill="#2E64FF"></path>
                <path d="M74.8551,230.3872 L74.8551,230.3872 C72.8381,230.3872 71.1881,228.7372 71.1881,226.7202 L71.1881,96.3352 C71.1881,94.3192 72.8381,92.6682 74.8551,92.6682 C76.8721,92.6682 78.5221,94.3192 78.5221,96.3352 L78.5221,226.7202 C78.5221,228.7372 76.8721,230.3872 74.8551,230.3872 Z" id="Stroke-101" stroke="#2E64FF" stroke-width="3" stroke-linecap="round"></path>
                <path d="M399.5216,331.0532 L399.5216,331.0532 C397.5046,331.0532 395.8546,329.4042 395.8546,327.3872 L395.8546,208.4492 C395.8546,206.4332 397.5046,204.7832 399.5216,204.7832 C401.5386,204.7832 403.1886,206.4332 403.1886,208.4492 L403.1886,327.3872 C403.1886,329.4042 401.5386,331.0532 399.5216,331.0532 Z" id="Stroke-103" stroke="#2E64FF" stroke-width="3" stroke-linecap="round"></path>
                <line x1="89.0216" y1="140.6685" x2="102.7716" y2="140.6685" id="Stroke-105" stroke="#2E64FF" stroke-width="3" stroke-linecap="round"></line>
                <path d="M85.9464,348.8901 C85.9464,359.3031 126.5354,368.1751 183.3994,371.5551 L182.9654,326.2511 C126.3294,329.6501 85.9464,338.5031 85.9464,348.8901" id="Fill-107" fill="#000000"></path>
                <line x1="88.3619" y1="131.8433" x2="99.9019" y2="124.3663" id="Stroke-109" stroke="#2E64FF" stroke-width="3" stroke-linecap="round"></line>
                <path d="M382.7813,348.8901 C382.7813,338.2291 340.2343,329.1841 281.2373,325.9941 L279.7203,371.8661 C339.5033,368.7501 382.7813,359.6421 382.7813,348.8901" id="Fill-111" fill="#000000"></path>
                <line x1="89.0216" y1="148.772" x2="100.9276" y2="155.651" id="Stroke-113" stroke="#2E64FF" stroke-width="3" stroke-linecap="round"></line>
                <path d="M283.0084,248.8511 C287.0434,248.7291 295.1774,248.4181 301.1554,248.1851 C300.4964,237.4591 294.2554,228.2471 285.2964,223.4181 L277.5824,239.9341 C280.5664,241.8851 282.6364,245.1181 283.0084,248.8511" id="Fill-115" fill="#FF8227"></path>
                <path d="M258.8692,250.065 C258.8692,245.833 261.0442,242.11 264.3352,239.948 L259.2322,222.177 C248.3552,226.76 240.7192,237.521 240.7192,250.065 C240.7192,260.804 246.3212,270.23 254.7562,275.598 L263.6082,259.666 C260.7272,257.454 258.8692,253.977 258.8692,250.065" id="Fill-117" fill="#ACE4B3"></path>
                <path d="M270.9693,237.9653 C273.4103,237.9653 275.6813,238.6913 277.5823,239.9343 L285.2963,223.4183 C281.0313,221.1203 276.1533,219.8153 270.9693,219.8153 C266.8073,219.8153 262.8413,220.6563 259.2323,222.1773 L264.3353,239.9473 C266.2403,238.6953 268.5193,237.9653 270.9693,237.9653" id="Fill-119" fill="#2E64FF"></path>
                <path d="M301.2193,250.065 C301.2193,249.433 301.1933,248.807 301.1553,248.185 C295.1773,248.419 287.0433,248.729 283.0083,248.851 C283.0483,249.251 283.0693,249.655 283.0693,250.065 C283.0693,256.748 277.6523,262.165 270.9693,262.165 C268.1983,262.165 265.6473,261.232 263.6083,259.666 L254.7563,275.598 C259.4433,278.581 265.0023,280.315 270.9693,280.315 C287.6763,280.315 301.2193,266.772 301.2193,250.065" id="Fill-121" fill="#263166"></path>
                <path d="M281.2374,325.9937 L281.7994,308.9727 L182.7994,308.9527 L182.9654,326.2517 C198.9814,325.2907 216.2944,324.7647 234.3634,324.7647 C250.7444,324.7647 266.5024,325.1977 281.2374,325.9937" id="Fill-123" fill="#2F2F3D"></path>
                <path d="M228.2452,372.9927 C230.2752,373.0067 232.3132,373.0147 234.3642,373.0147 C234.7162,373.0147 235.0662,373.0137 235.4172,373.0137 L232.4122,345.9677 L228.2452,372.9927 Z" id="Fill-125" fill="#000000"></path>
                <path d="M234.3639,324.7651 C216.2939,324.7651 198.9809,325.2901 182.9659,326.2511 L183.3989,371.5551 C197.4729,372.3911 212.5459,372.8891 228.2449,372.9931 L232.4129,345.9671 L235.4179,373.0131 C250.8609,372.9951 265.7409,372.5941 279.7199,371.8661 L281.2379,325.9941 C266.5029,325.1981 250.7449,324.7651 234.3639,324.7651" id="Fill-127" fill="#2F2F3D"></path>
            </g>
        </g>
    </g>
</svg>