<?xml version="1.0" encoding="UTF-8"?>
<svg width="391px" height="358px" viewBox="0 0 391 358" version="1.1" xmlns="http://www.w3.org/2000/svg" xmlns:xlink="http://www.w3.org/1999/xlink">
    <title>缺省状态-新建内容</title>
    <defs>
        <polygon id="path-1" points="0 0 383 0 383 355 0 355"></polygon>
    </defs>
    <g id="空状态插画-暗色" stroke="none" stroke-width="1" fill="none" fill-rule="evenodd">
        <g id="缺省状态-新建内容" transform="translate(-205.000000, -182.000000)">
            <g transform="translate(206.000000, 182.000000)" id="编组">
                <g transform="translate(7.000000, 0.000000)">
                    <mask id="mask-2" fill="white">
                        <use xlink:href="#path-1"></use>
                    </mask>
                    <g id="Clip-2"></g>
                    <path d="M127.939908,93.4382979 C142.131809,82.4582408 156.985601,69.0437552 169.601114,34.9511761 C182.217507,0.857715237 233.998057,-13.6756728 281.9701,16.1405651 C342.261919,53.6136581 447.442536,250.02116 329.499417,316.219803 C211.556298,382.417565 87.7450686,357.954248 40.802827,287.416661 C-6.13941452,216.879075 -7.89975958,166.914657 12.050231,144.578048 C32.0011017,122.24144 97.4648138,117.01725 127.939908,93.4382979" id="Fill-1" fill="#2B2E32" mask="url(#mask-2)"></path>
                </g>
                <path d="M0,184 C0,184 17.2027397,353.017903 161,357" id="Stroke-3" stroke="#2B2E32" stroke-width="2"></path>
                <path d="M337,306.5 C337,318.374238 278.126134,328 205.500443,328 C132.874752,328 74,318.374238 74,306.5 C74,294.625762 132.874752,285 205.500443,285 C278.126134,285 337,294.625762 337,306.5" id="Fill-6" fill="#000000"></path>
                <path d="M278.325444,280 L322.674556,280 C328.903728,280 334,274.90366 334,268.674406 L334,224.324706 C334,218.09634 328.903728,213 322.674556,213 L278.325444,213 C272.096272,213 267,218.09634 267,224.324706 L267,268.674406 C267,274.90366 272.096272,280 278.325444,280" id="Fill-7" fill="#ACE4B3"></path>
                <path d="M278.064424,262 L133.935576,262 C125.170436,262 118,254.884806 118,246.187192 L118,161.811932 C118,153.115194 125.170436,146 133.935576,146 L278.064424,146 C286.829564,146 294,153.115194 294,161.811932 L294,246.187192 C294,254.884806 286.829564,262 278.064424,262" id="Fill-8" fill="#4DD9FE"></path>
                <polygon id="Fill-9" fill="#F2B5BC" points="248 236.673715 254.613484 251 260 230.517797 254.139306 227"></polygon>
                <path d="M161.992661,238.566288 C161.992661,238.566288 154.17864,252.888099 146.699506,252.997426 C139.220371,253.106753 134.643587,249.717622 130.736577,245.781857 C126.829566,241.846092 94.568822,204.784304 94.568822,204.784304 C94.568822,204.784304 86.7664103,202.707094 84.3043239,199.536617 C81.8431305,196.366139 75.0337693,188.494609 75.0337693,188.494609 C75.0337693,188.494609 74.2523672,175.922026 80.0570686,172.314242 C80.0570686,172.314242 71.0562093,159.632332 74.9989411,156.024547 C78.6058932,155.25926 89.322265,172.642222 89.322265,172.642222 C89.322265,172.642222 96.990722,174.500778 98.7383837,177.452602 C100.485152,180.404425 109.080575,197.896715 110.085235,198.880656 C111.089895,199.864597 139.282883,219.932626 139.282883,219.932626 L139.764227,218.122174 L163,236.17859 L161.992661,238.566288 Z" id="Fill-10" fill="#F2B5BC"></path>
                <polygon id="Fill-11" fill="#F2B5BC" points="217.213645 153.248502 202.055655 150 184 152.881594 184 165.730423 205.693896 171 217.913824 163.894122 219 156.574433"></polygon>
                <path d="M211.334162,125.999931 C211.334162,125.999931 209.954775,125.776147 209.492705,125.767814 C209.030635,125.760672 207.647349,125.941604 207.647349,125.941604 C207.286661,125.935653 206.995186,125.54522 207.00006,125.075035 C207.004934,124.603659 207.303233,123.966826 209.511227,124.001346 C211.593468,124.034675 212.003872,124.683412 212,125.154788 C211.994124,125.624973 211.69485,126.005883 211.334162,125.999931" id="Fill-12" fill="#263166"></path>
                <path d="M191.665838,125.999931 C191.665838,125.999931 193.045225,125.776147 193.507295,125.767814 C193.969365,125.760672 195.352651,125.941604 195.352651,125.941604 C195.713339,125.935653 196.004814,125.54522 195.99994,125.075035 C195.995066,124.603659 195.695792,123.966826 193.488773,124.001346 C191.406532,124.034675 190.996128,124.683412 191,125.154788 C191.005876,125.624973 191.30515,126.005883 191.665838,125.999931" id="Fill-13" fill="#263166"></path>
                <path d="M226,126 C226,128.761708 223.761154,131 220.999555,131 C218.238846,131 216,128.761708 216,126 C216,123.238292 218.238846,121 220.999555,121 C223.761154,121 226,123.238292 226,126" id="Fill-14" fill="#F2B5BC"></path>
                <path d="M187,126 C187,128.761708 184.761154,131 182.000445,131 C179.238846,131 177,128.761708 177,126 C177,123.238292 179.238846,121 182.000445,121 C184.761154,121 187,123.238292 187,126" id="Fill-15" fill="#F2B5BC"></path>
                <path d="M201,150 L201,150 C191.650179,150 184,142.45811 184,133.240637 L184,121.759363 C184,112.541008 191.650179,105 201,105 C210.349821,105 218,112.541008 218,121.759363 L218,133.240637 C218,142.45811 210.349821,150 201,150" id="Fill-16" fill="#F2B5BC"></path>
                <path d="M184.979191,124 C184.979191,124 178.852268,116.272395 180.191388,109.90128 C181.531402,103.531079 184.123939,103 184.123939,103 L190,108.818099 C190,108.818099 184.892594,117.496344 184.979191,124" id="Fill-17" fill="#603624"></path>
                <path d="M213.460161,98 C213.460161,98 223.20232,102.513416 222.996793,112.14915 C222.791266,121.784884 217.607225,123 217.607225,123 C217.607225,123 217.607225,114.028768 209.284223,106.199118 C207.66973,104.679102 213.460161,98 213.460161,98" id="Fill-18" fill="#603624"></path>
                <path d="M194.00054,128 L193.99946,128 C193.449487,128 193,127.633326 193,127.186634 L193,124.813366 C193,124.365795 193.449487,124 193.99946,124 L194.00054,124 C194.550513,124 195,124.365795 195,124.813366 L195,127.186634 C195,127.633326 194.550513,128 194.00054,128" id="Fill-19" fill="#263166"></path>
                <path d="M209.00054,128 L208.99946,128 C208.449487,128 208,127.633326 208,127.186634 L208,124.813366 C208,124.365795 208.449487,124 208.99946,124 L209.00054,124 C209.550513,124 210,124.365795 210,124.813366 L210,127.186634 C210,127.633326 209.550513,128 209.00054,128" id="Fill-20" fill="#263166"></path>
                <path d="M208,134 C208,135.657557 206.500255,137 204.650094,137 C203.57228,137 202.613996,136.544616 202,135.836352" id="Stroke-21" stroke="#263166" stroke-width="0.774" stroke-linecap="round"></path>
                <path d="M198,124 C198,128.41766 194.418345,132 189.999558,132 C185.581655,132 182,128.41766 182,124 C182,119.58234 185.581655,116 189.999558,116 C194.418345,116 198,119.58234 198,124 Z" id="Stroke-22" stroke="#2E64FF" stroke-width="0.774"></path>
                <path d="M204,124 C204,128.41766 207.581655,132 212.000442,132 C216.418345,132 220,128.41766 220,124 C220,119.58234 216.418345,116 212.000442,116 C207.581655,116 204,119.58234 204,124 Z" id="Stroke-23" stroke="#2E64FF" stroke-width="0.774"></path>
                <path d="M198,123.9385 C198.883441,123.3915 200.02309,123.0615 201.268069,123.0615 C202.273921,123.0615 203.21145,123.2765 204,123.6475" id="Stroke-24" stroke="#2E64FF" stroke-width="0.774"></path>
                <path d="M211.295024,164 L190.704976,164 C190.316966,164 190,163.687572 190,163.305117 L190,143.69578 C190,143.313326 190.316966,143 190.704976,143 L211.295024,143 C211.683034,143 212,143.313326 212,143.69578 L212,163.305117 C212,163.687572 211.683034,164 211.295024,164" id="Fill-25" fill="#F2B5BC"></path>
                <path d="M185.574603,153 C185.574603,153 167.595392,159.279057 158.531172,169.368056 C149.46783,179.457929 139,219.550656 139,219.550656 L161.691272,237.700358 L169.723192,219.222666 L160.61596,267 L247.518703,267 L236.765586,221.299941 L246.613686,236.493352 L271,205.228389 C271,205.228389 257.776738,180.636072 252.297476,173.13514 C248.924948,168.519653 244.129496,164.084342 233.867072,159.561566 C222.820768,154.693307 217.226514,153.493298 217.226514,153.493298 C217.226514,153.493298 216.305696,167.251421 202.14406,166.89894 C187.982424,166.54646 186.070564,158.291586 185.574603,153" id="Fill-26" fill="#E8B143"></path>
                <line x1="162" y1="230" x2="144" y2="214" id="Stroke-27" stroke="#FFFFFF" stroke-width="0.968" stroke-linecap="round" stroke-linejoin="round"></line>
                <line x1="248" y1="231" x2="263" y2="209" id="Stroke-28" stroke="#FFFFFF" stroke-width="0.968" stroke-linecap="round" stroke-linejoin="round"></line>
                <path d="M160.015957,269.63342 C160.015957,269.63342 159.624113,272.756224 165.965426,273.074996 C172.308511,273.393768 208.075355,274.986659 238.154255,273.074996 C243.54078,272.692275 247.765957,272.073141 247.765957,270.925949 C247.765957,269.778757 248,266.241259 248,266.241259 L160,266 L160.015957,269.63342 Z" id="Fill-29" fill="#7E5038"></path>
                <path d="M210.616214,276 L197.383786,276 C194.422927,276 192,273.749606 192,270.999586 C192,268.249565 194.422927,266 197.383786,266 L210.616214,266 C213.577073,266 216,268.249565 216,270.999586 C216,273.749606 213.577073,276 210.616214,276" id="Fill-30" fill="#E3EAF0"></path>
                <path d="M178,102.906469 C178,102.906469 178.305002,90.2760126 195.63612,92.1992948 C212.967237,94.121674 217.670023,101.857241 217.844566,102.906469 C218.018211,103.955696 219.649385,112.626719 206.653071,110.729622 C193.464219,108.803631 178.348188,113.613642 178,102.906469" id="Fill-31" fill="#7E5038"></path>
                <path d="M181,154 C181,154 184.210685,171.732653 201.969397,170.976486 C219.728993,170.221228 221,154.549857 221,154.549857" id="Stroke-32" stroke="#FFFFFF" stroke-width="0.968" stroke-linecap="round" stroke-linejoin="round"></path>
                <path d="M202,130 C202,130.551855 201.552612,131 201,131 C200.447388,131 200,130.551855 200,130 C200,129.447388 200.447388,129 201,129 C201.552612,129 202,129.447388 202,130" id="Fill-33" fill="#F58B8D"></path>
                <path d="M265.562997,260.998779 C265.562997,260.998779 251.19239,261.547759 251.521488,239.368947 C251.850585,217.190135 255.360963,203.026438 254.26397,199.183574 C253.166977,195.340711 248.896603,191.607643 249.001914,185.019877 C249.108103,178.432111 251.631187,177.663538 254.044571,177.443946 C254.483368,171.514957 252.61848,153.83515 256.128858,154.001161 C259.639235,154.167173 260.078032,155.484726 260.297431,158.119833 C260.516829,160.754939 261.284724,172.83251 261.284724,172.83251 C261.284724,172.83251 265.343598,164.37821 271.047961,168.33087 C276.752324,172.283529 281.688792,176.126393 280.920897,179.530072 C280.153002,182.933751 272.80315,202.67509 273.022548,204.387909 C273.241947,206.100728 280.4821,237.831801 280.043303,242.66283 C279.604506,247.493858 279.823904,259.900818 265.562997,260.998779" id="Fill-34" fill="#F2B5BC"></path>
                <path d="M275,176 L269,188.247636 C269,188.247636 270.39968,190.937621 273.96032,191" id="Stroke-35"></path>
                <path d="M270,171 L263,185.044309 C263,185.044309 265.602758,187.602451 268.856679,188" id="Stroke-36"></path>
                <path d="M253,184.911406 C253,184.911406 263.053974,185.786494 262.999782,182.03612 C262.94645,178.285747 259.935763,177.848703 255.527257,178.035722" id="Stroke-37"></path>
                <line x1="263" y1="174" x2="261" y2="178" id="Stroke-38"></line>
                <path d="M260,185 C260,185 265.668339,185.783121 265.971453,189.052021 C266.274568,192.321763 264.063839,194 264.063839,194" id="Stroke-39"></path>
                <path d="M277.545961,263 L133.454039,263 C123.85401,263 116,255.138976 116,245.531254 L116,161.469626 C116,151.861904 123.85401,144 133.454039,144 L277.545961,144 C287.14599,144 295,151.861904 295,161.469626 L295,245.531254 C295,255.138976 287.14599,263 277.545961,263 Z" id="Stroke-40" stroke="#4DD9FE" stroke-width="1.5"></path>
                <path d="M149.913036,163 L131.086964,163 C128.839439,163 127,160.975625 127,158.5 C127,156.024375 128.839439,154 131.086964,154 L149.913036,154 C152.160561,154 154,156.024375 154,158.5 C154,160.975625 152.160561,163 149.913036,163 Z" id="Stroke-41" stroke="#4DD9FE" stroke-width="1.5"></path>
                <path d="M249.162412,163 L226.837588,163 C226.376779,163 226,162.598781 226,162.108082 L226,154.891918 C226,154.401219 226.376779,154 226.837588,154 L249.162412,154 C249.623221,154 250,154.401219 250,154.891918 L250,162.108082 C250,162.598781 249.623221,163 249.162412,163" id="Fill-42" fill="#4DD9FE"></path>
                <path d="M278.162412,163 L255.837588,163 C255.376779,163 255,162.598781 255,162.108082 L255,154.891918 C255,154.401219 255.376779,154 255.837588,154 L278.162412,154 C278.623221,154 279,154.401219 279,154.891918 L279,162.108082 C279,162.598781 278.623221,163 278.162412,163" id="Fill-43" fill="#F9C152"></path>
                <path d="M191.698889,222 L132.301111,222 C128.835367,222 126,219.202632 126,215.783333 L126,180.215789 C126,176.797368 128.835367,174 132.301111,174 L191.698889,174 C195.164633,174 198,176.797368 198,180.215789 L198,215.783333 C198,219.202632 195.164633,222 191.698889,222" id="Fill-44" fill="#4DD9FE"></path>
                <line x1="126" y1="231.5" x2="197" y2="231.5" id="Stroke-45" stroke="#4DD9FE" stroke-width="1.5" stroke-linecap="round" stroke-linejoin="round"></line>
                <line x1="126" y1="244.5" x2="197" y2="244.5" id="Stroke-46" stroke="#4DD9FE" stroke-width="1.5" stroke-linecap="round" stroke-linejoin="round"></line>
                <polyline id="Stroke-47" stroke="#FFFFFF" stroke-width="0.968" stroke-linecap="round" stroke-linejoin="round" points="134 205.692486 138.909131 210 147.685766 199 159.421268 208.801372 164.644584 201.370932 170 205.246729"></polyline>
                <line x1="278" y1="127" x2="277" y2="118" id="Stroke-48" stroke="#2E64FF" stroke-width="3" stroke-linecap="round"></line>
                <line x1="290" y1="130" x2="292" y2="121" id="Stroke-49" stroke="#2E64FF" stroke-width="3" stroke-linecap="round"></line>
                <line x1="299" y1="138" x2="306" y2="130" id="Stroke-50" stroke="#2E64FF" stroke-width="3" stroke-linecap="round"></line>
                <line x1="304" y1="150" x2="313" y2="149" id="Stroke-51" stroke="#2E64FF" stroke-width="3" stroke-linecap="round"></line>
                <path d="M318,108 C318,109.656744 316.65654,111 314.999544,111 C313.34346,111 312,109.656744 312,108 C312,106.343256 313.34346,105 314.999544,105 C316.65654,105 318,106.343256 318,108" id="Fill-52" fill="#2E64FF"></path>
                <path d="M104,252 C104,253.656744 102.65654,255 100.999544,255 C99.3434604,255 98,253.656744 98,252 C98,250.343256 99.3434604,249 100.999544,249 C102.65654,249 104,250.343256 104,252" id="Fill-53" fill="#2E64FF"></path>
                <path d="M65.5,202 L65.5,202 C63.5748568,202 62,200.550309 62,198.778171 L62,84.2218285 C62,82.4505696 63.5748568,81 65.5,81 C67.4251432,81 69,82.4505696 69,84.2218285 L69,198.778171 C69,200.550309 67.4251432,202 65.5,202 Z" id="Stroke-54" stroke="#2E64FF" stroke-width="3" stroke-linecap="round"></path>
                <path d="M351.5,291 L351.5,291 C349.574857,291 348,289.549548 348,287.776481 L348,183.223519 C348,181.450452 349.574857,180 351.5,180 C353.425143,180 355,181.450452 355,183.223519 L355,287.776481 C355,289.549548 353.425143,291 351.5,291 Z" id="Stroke-55" stroke="#2E64FF" stroke-width="3" stroke-linecap="round"></path>
                <line x1="79" y1="122.5" x2="91" y2="122.5" id="Stroke-56" stroke="#2E64FF" stroke-width="3" stroke-linecap="round"></line>
                <path d="M75,306.488235 C75,315.911972 110.818846,323.942014 161,327 L160.617005,286 C110.637056,289.076086 75,297.088028 75,306.488235" id="Fill-57" fill="#141414"></path>
                <line x1="78" y1="115" x2="88" y2="108" id="Stroke-58" stroke="#2E64FF" stroke-width="3" stroke-linecap="round"></line>
                <path d="M337,306.464248 C337,296.935538 299.432181,288.851195 247.339469,286 L246,327 C298.786728,324.214946 337,316.074294 337,306.464248" id="Fill-59" fill="#141414"></path>
                <line x1="79" y1="130" x2="89" y2="136" id="Stroke-60" stroke="#2E64FF" stroke-width="3" stroke-linecap="round"></line>
                <path d="M249.834641,219 C253.428329,218.889667 260.675391,218.609311 266,218.397688 C265.413821,208.698293 259.853137,200.36631 251.872015,196 L245,210.935711 C247.659186,212.701046 249.503245,215.623978 249.834641,219" id="Fill-61" fill="#FF8227"></path>
                <path d="M227.139482,220.535969 C227.139482,216.812639 229.073552,213.53713 232,211.634994 L227.462271,196 C217.790142,200.033021 211,209.49971 211,220.535969 C211,229.985062 215.981453,238.277213 223.482088,243 L231.352642,228.982966 C228.791667,227.036839 227.139482,223.977762 227.139482,220.535969" id="Fill-62" fill="#ACE4B3"></path>
                <path d="M238.356751,209.22709 C240.510877,209.22709 242.514983,209.876173 244.192572,210.987483 L251,196.222173 C247.237118,194.167635 242.932395,193 238.356751,193 C234.683881,193 231.18486,193.7519 228,195.111757 L232.502398,211 C234.183517,209.87975 236.194682,209.22709 238.356751,209.22709" id="Fill-63" fill="#2E64FF"></path>
                <path d="M266,219.638344 C266,219.087582 265.977401,218.542048 265.94305,218 C260.53915,218.203922 253.185399,218.474074 249.538806,218.580392 C249.574061,218.928105 249.593948,219.281046 249.593948,219.638344 C249.593948,225.462309 244.696268,230.183007 238.655073,230.183007 C236.150187,230.183007 233.845078,229.369935 232.00099,228.005229 L224,241.889325 C228.236882,244.488017 233.261117,246 238.655073,246 C253.757608,246 266,234.197821 266,219.638344" id="Fill-64" fill="#263166"></path>
                <path d="M247.500439,285.777142 L248,271.017343 L160,271 L160.146668,286 C174.383256,285.166667 189.772745,284.711412 205.834241,284.711412 C220.395277,284.711412 234.403418,285.086889 247.500439,285.777142" id="Fill-65" fill="#1B1F22"></path>
                <path d="M200,327.980478 C201.981316,327.992014 203.970441,328 205.972253,328 C206.315811,328 206.657418,327.998225 207,327.998225 L204.067066,304 L200,327.980478 Z" id="Fill-66" fill="#141414"></path>
                <path d="M206.502544,285 C190.50521,285 175.178047,285.467895 161,286.324366 L161.383334,326.700589 C173.843017,327.445656 187.187113,327.890379 201.085406,327.982175 L204.775328,303.896721 L207.435648,328 C221.107304,327.983958 234.280538,327.627466 246.657003,326.977761 L248,286.09532 C234.955135,285.385902 221.00461,285 206.502544,285" id="Fill-67" fill="#1B1F22"></path>
            </g>
        </g>
    </g>
</svg>