<svg id="图层_1" data-name="图层 1" xmlns="http://www.w3.org/2000/svg" viewBox="0 0 800 800"><defs><style>.cls-1{fill:#e3eaf0;}.cls-11,.cls-14,.cls-15,.cls-16,.cls-18,.cls-19,.cls-2,.cls-8,.cls-9{fill:none;}.cls-2{stroke:#e3eaf0;stroke-width:2px;}.cls-14,.cls-15,.cls-16,.cls-19,.cls-2,.cls-8,.cls-9{stroke-miterlimit:10;}.cls-22,.cls-3{fill:#ace4b3;}.cls-4{fill:#4dd9fe;}.cls-16,.cls-17,.cls-18,.cls-21,.cls-22,.cls-23,.cls-24,.cls-4{opacity:0.5;}.cls-5{fill:#f2b5bc;}.cls-24,.cls-6{fill:#263166;}.cls-7{fill:#603624;}.cls-8{stroke:#263166;}.cls-11,.cls-18,.cls-19,.cls-8{stroke-linecap:round;}.cls-8,.cls-9{stroke-width:0.77px;}.cls-19,.cls-9{stroke:#2e64ff;}.cls-10,.cls-17{fill:#f9c152;}.cls-11{stroke:#fff;stroke-width:0.97px;}.cls-11,.cls-18{stroke-linejoin:round;}.cls-12{fill:#7e5038;}.cls-13{fill:#f58b8d;}.cls-14{stroke:#f9c152;stroke-width:0;}.cls-15,.cls-16,.cls-18{stroke:#4dd9fe;stroke-width:1.5px;}.cls-19{stroke-width:3px;}.cls-20,.cls-23{fill:#2e64ff;}.cls-21{fill:#ff8227;}.cls-25{fill:#2f2f3d;}</style></defs><path class="cls-1" d="M296.84,230.74c16.12-12.45,33-27.66,47.33-66.33s73.16-55.15,127.67-21.33c68.5,42.5,188,265.25,54,340.33s-274.67,47.33-328-32.67-55.34-136.66-32.67-162S262.21,257.49,296.84,230.74Z"/><path class="cls-2" d="M144.84,334.08s19.5,191,182.5,195.5"/><ellipse cx="378.21" cy="472.66" rx="148.42" ry="24.13"/><rect class="cls-3" x="448.57" y="367.15" width="75.46" height="75.46" rx="12.76"/><rect class="cls-4" x="278.9" y="290.46" width="199.43" height="132.46" rx="18.06"/><polygon class="cls-5" points="424.63 393.09 432.03 408.87 438.06 386.31 431.5 382.43 424.63 393.09"/><path class="cls-5" d="M327.28,396.15s-8.75,16.37-17.12,16.5-13.5-3.75-17.88-8.25-40.5-46.88-40.5-46.88-8.74-2.37-11.49-6-10.38-12.62-10.38-12.62-.88-14.38,5.62-18.5c0,0-10.08-14.5-5.66-18.63,4-.87,16,19,16,19s8.58,2.13,10.54,5.5,11.58,23.38,12.71,24.5,32.69,24.07,32.69,24.07l.54-2.07,26,20.65Z"/><polygon class="cls-5" points="391.3 298.53 374.42 294.84 354.3 298.12 354.3 312.72 378.47 318.71 392.08 310.63 393.29 302.31 391.3 298.53"/><path class="cls-6" d="M383.23,267s-1.42-.19-1.89-.19-1.89.14-1.89.14a.7.7,0,0,1-.67-.73h0c0-.39.31-.93,2.58-.9s2.56.58,2.55,1h0A.69.69,0,0,1,383.23,267Z"/><path class="cls-6" d="M361.28,267s1.42-.19,1.89-.19,1.9.14,1.9.14a.7.7,0,0,0,.66-.73h0c0-.39-.31-.93-2.58-.9s-2.55.58-2.55,1h0A.69.69,0,0,0,361.28,267Z"/><ellipse class="cls-5" cx="394.38" cy="268.43" rx="5.61" ry="5.81"/><ellipse class="cls-5" cx="350.4" cy="268.43" rx="5.61" ry="5.81"/><rect class="cls-5" x="353.47" y="243.99" width="38.01" height="51.03" rx="19"/><path class="cls-7" d="M353.78,265.86s-6.86-8.45-5.36-15.42,4.4-7.55,4.4-7.55l6.59,6.36S353.69,258.75,353.78,265.86Z"/><path class="cls-7" d="M386.41,237.18s11.47,5,11.23,15.77-6.34,12.1-6.34,12.1,0-10-9.8-18.73C379.6,244.62,386.41,237.18,386.41,237.18Z"/><rect class="cls-6" x="363.08" y="265.86" width="1.85" height="4.55" rx="0.93"/><rect class="cls-6" x="380.32" y="265.86" width="1.85" height="4.55" rx="0.93"/><path class="cls-8" d="M379.93,277.25a3.16,3.16,0,0,1-3.28,3,3.37,3.37,0,0,1-2.59-1.17"/><circle class="cls-9" cx="360.58" cy="266.35" r="9.06"/><circle class="cls-9" cx="385.02" cy="266.35" r="9.06"/><path class="cls-9" d="M369.68,265.78a6.9,6.9,0,0,1,3.44-.87,7.12,7.12,0,0,1,2.88.58"/><rect class="cls-5" x="360.34" y="288.27" width="24.15" height="23.39" rx="0.77"/><path class="cls-10" d="M355.09,297.93s-20.48,7.18-30.81,18.72S302,374,302,374l25.85,20.75L337,373.65l-10.37,54.62h99L413.41,376l11.21,17.37,27.79-35.74S437.34,329.53,431.1,321c-3.84-5.27-9.3-10.34-21-15.51-12.58-5.57-19-6.94-19-6.94s-1,15.73-17.19,15.33S355.65,304,355.09,297.93Z"/><line class="cls-11" x1="328.24" y1="385.97" x2="307.78" y2="368.27"/><line class="cls-11" x1="424.35" y1="385.67" x2="441.66" y2="360.74"/><path class="cls-12" d="M326.66,431.41s-.44,3.22,6.71,3.55,47.5,2,81.43,0c6.08-.39,10.84-1,10.84-2.21s.27-4.84.27-4.84l-99.27-.25Z"/><rect class="cls-1" x="362.82" y="426.69" width="26.9" height="12.07" rx="6.03"/><path class="cls-12" d="M346.82,241.92s.34-14,19.6-11.86,24.49,10.7,24.69,11.86,2,10.76-12.44,8.66C364,248.45,347.21,253.78,346.82,241.92Z"/><path class="cls-11" d="M350.09,299.83s3.63,19.52,23.71,18.68,21.51-18.07,21.51-18.07"/><circle class="cls-13" cx="373.09" cy="273.4" r="1.32"/><path class="cls-5" d="M446.16,421.65s-16.38.62-16-24.63,4.37-41.37,3.12-45.75-6.11-8.62-6-16.12,3-8.38,5.74-8.63c.5-6.75-1.62-26.87,2.38-26.69s4.5,1.69,4.75,4.69,1.12,16.75,1.12,16.75,4.63-9.62,11.13-5.12,12.12,8.87,11.25,12.75-9.25,26.35-9,28.3,8.5,38.07,8,43.57S462.41,420.4,446.16,421.65Z"/><path class="cls-14" d="M456.86,323.94l-6.25,14.33a6,6,0,0,0,5.17,3.22"/><path class="cls-14" d="M450.61,319.21l-7.39,15.44a12.12,12.12,0,0,0,6.19,3.25"/><path class="cls-14" d="M431.59,334.09s11.69.87,11.63-2.88-3.56-4.19-8.69-4"/><line class="cls-14" x1="441.66" y1="322.21" x2="439.59" y2="326.52"/><path class="cls-14" d="M438.34,335.27s5.93.93,6.25,4.82a7.13,7.13,0,0,1-2,5.87"/><rect class="cls-15" x="276.86" y="289.11" width="203.5" height="135.17" rx="19.84"/><rect class="cls-16" x="288.7" y="299.83" width="30.9" height="9.35" rx="4.68"/><rect class="cls-4" x="401.53" y="299.83" width="26.56" height="9.35" rx="0.93"/><rect class="cls-17" x="433.64" y="299.83" width="26.56" height="9.35" rx="0.93"/><rect class="cls-4" x="288.7" y="322.21" width="80.98" height="54.72" rx="7.09"/><line class="cls-18" x1="288.7" y1="387.61" x2="369.05" y2="387.61"/><line class="cls-18" x1="288.7" y1="401.44" x2="369.05" y2="401.44"/><polyline class="cls-11" points="297.53 357.2 303.03 362.11 312.86 349.57 326.01 360.74 331.86 352.27 337.86 356.69"/><line class="cls-19" x1="460.2" y1="270.41" x2="459.03" y2="259.52"/><line class="cls-19" x1="473.69" y1="273.38" x2="475.73" y2="262.62"/><line class="cls-19" x1="484.48" y1="281.06" x2="491.68" y2="272.81"/><line class="cls-19" x1="489.79" y1="295.33" x2="500.67" y2="294.12"/><circle class="cls-20" cx="502.57" cy="247.15" r="3.29"/><circle class="cls-20" cx="259.59" cy="410.64" r="3.29"/><rect class="cls-19" x="215.03" y="216.44" width="7.33" height="137.72" rx="3.67"/><rect class="cls-19" x="539.7" y="328.55" width="7.33" height="126.27" rx="3.67"/><line class="cls-19" x1="232.86" y1="264.44" x2="246.61" y2="264.44"/><path d="M229.79,472.66c0,10.41,40.59,19.29,97.45,22.67L326.81,450C270.17,453.42,229.79,462.28,229.79,472.66Z"/><line class="cls-19" x1="232.2" y1="255.62" x2="243.74" y2="248.14"/><path d="M526.62,472.66c0-10.66-42.54-19.7-101.54-22.89l-1.52,45.87C483.35,492.52,526.62,483.41,526.62,472.66Z"/><line class="cls-19" x1="232.86" y1="272.54" x2="244.77" y2="279.42"/><path class="cls-21" d="M426.85,372.62c4-.12,12.17-.43,18.15-.66a30.25,30.25,0,0,0-15.86-24.77l-7.72,16.52A12.06,12.06,0,0,1,426.85,372.62Z"/><path class="cls-22" d="M402.71,373.84a12.08,12.08,0,0,1,5.47-10.12L403.08,346a30.25,30.25,0,0,0-4.48,53.42l8.85-15.93A12.08,12.08,0,0,1,402.71,373.84Z"/><path class="cls-23" d="M414.81,361.74a12,12,0,0,1,6.61,2l7.72-16.52A30.33,30.33,0,0,0,403.08,346l5.1,17.77A12,12,0,0,1,414.81,361.74Z"/><path class="cls-24" d="M445.06,373.84c0-.64,0-1.26-.06-1.88-6,.23-14.11.54-18.15.66,0,.4.06.81.06,1.22a12.1,12.1,0,0,1-19.46,9.6l-8.85,15.93a30.24,30.24,0,0,0,46.46-25.53Z"/><path class="cls-25" d="M425.08,449.77l.56-17-99,0,.17,17.3c16-1,33.33-1.48,51.4-1.48C394.59,448.54,410.35,449,425.08,449.77Z"/><path d="M372.09,496.76q3,0,6.12,0h1.05l-3-27Z"/><path class="cls-25" d="M378.21,448.54c-18.07,0-35.39.52-51.4,1.48l.43,45.31c14.08.83,29.15,1.33,44.85,1.43l4.17-27,3,27c15.44,0,30.32-.41,44.3-1.14l1.52-45.87C410.35,449,394.59,448.54,378.21,448.54Z"/></svg>