<?xml version="1.0" encoding="UTF-8"?>
<svg width="396px" height="365px" viewBox="0 0 396 365" version="1.1" xmlns="http://www.w3.org/2000/svg" xmlns:xlink="http://www.w3.org/1999/xlink">
    <title>缺省状态-暂无数据</title>
    <defs>
        <polygon id="path-1" points="0 0 359 0 359 364 0 364"></polygon>
    </defs>
    <g id="空状态插画-暗色" stroke="none" stroke-width="1" fill="none" fill-rule="evenodd">
        <g id="缺省状态-暂无数据" transform="translate(-201.000000, -118.000000)">
            <g transform="translate(201.000000, 118.000000)" id="编组">
                <g transform="translate(28.000000, 0.000000)">
                    <mask id="mask-2" fill="white">
                        <use xlink:href="#path-1"></use>
                    </mask>
                    <g id="Clip-2"></g>
                    <path d="M124.309399,7.05916384 C172.403411,-2.79546393 200.775055,-19.0127132 301.656731,91.3922234 C402.538408,201.79716 357.407131,286.77374 265.817188,336.785998 C174.227245,386.798256 102.093307,357.144971 59.6230057,332.802721 C17.1527048,308.460472 -7.62525085,250.702952 2.10894602,199.252288 C11.8431429,147.801625 43.9686473,23.5224911 124.309399,7.05916384" id="Fill-1" fill="#2B2E32" mask="url(#mask-2)"></path>
                </g>
                <polygon id="Fill-4" fill="#424445" points="0 156 174 156 174 27 0 27"></polygon>
                <polygon id="Fill-5" fill="#424445" points="184 224 269 224 269 163 184 163"></polygon>
                <g transform="translate(71.000000, 75.000000)" id="感叹号">
                    <path d="M16.4996425,24.3667866 C16.9294906,24.3658967 17.3039321,24.5249716 17.6238606,24.8440151 C17.9428954,25.1621649 18.1028634,25.5366165 18.1028634,25.9682636 C18.1037534,26.3981233 17.9437891,26.7725749 17.6256479,27.0925121 C17.306613,27.4115555 16.9321716,27.5706305 16.5014298,27.5715241 C16.0715818,27.5715241 15.6971403,27.4133429 15.3772118,27.0934057 C15.0581769,26.7752559 14.8982127,26.4008043 14.897319,25.9700509 C14.897319,25.5392975 15.0563896,25.1648459 15.3754245,24.8458024 C15.6944593,24.5267589 16.0689008,24.3667866 16.4996425,24.3667866" id="Fill-28" fill="#373B3F"></path>
                    <path d="M16.3469169,21.4544684 C15.9680071,21.4544684 15.6945487,21.3651005 15.5247542,21.1854709 C15.3549598,21.0067351 15.2700626,20.6885853 15.2700626,20.2292341 L15.258445,6.65424633 C15.258445,6.19668255 15.3424486,5.87763906 15.5113494,5.69800953 C15.6811439,5.51838 15.955496,5.4281184 16.3335121,5.4281184 C16.7124218,5.4281184 16.9867739,5.51301793 17.1565684,5.68192331 C17.3263628,5.85082868 17.4103664,6.18506472 17.4112601,6.68373775 L17.4219909,20.1979554 C17.4228776,20.6564128 17.3379803,20.9799247 17.1690795,21.1693847 C16.9992851,21.3606321 16.7258266,21.4544684 16.3469169,21.4544684" id="Fill-29" fill="#373B3F"></path>
                    <path d="M33,16.5 C33,25.6128473 25.6130474,33 16.5004468,33 C7.38784629,33 0,25.6128473 0,16.5 C0,7.38715268 7.38784629,0 16.5004468,0 C25.6130474,0 33,7.38715268 33,16.5 Z" id="Stroke-30" stroke="#373B3F"></path>
                </g>
                <g transform="translate(210.000000, 40.000000)" id="感叹号">
                    <path d="M16.4996425,24.3667866 C16.9294906,24.3658967 17.3039321,24.5249716 17.6238606,24.8440151 C17.9428954,25.1621649 18.1028634,25.5366165 18.1028634,25.9682636 C18.1037534,26.3981233 17.9437891,26.7725749 17.6256479,27.0925121 C17.306613,27.4115555 16.9321716,27.5706305 16.5014298,27.5715241 C16.0715818,27.5715241 15.6971403,27.4133429 15.3772118,27.0934057 C15.0581769,26.7752559 14.8982127,26.4008043 14.897319,25.9700509 C14.897319,25.5392975 15.0563896,25.1648459 15.3754245,24.8458024 C15.6944593,24.5267589 16.0689008,24.3667866 16.4996425,24.3667866" id="Fill-28" fill="#373B3F"></path>
                    <path d="M16.3469169,21.4544684 C15.9680071,21.4544684 15.6945487,21.3651005 15.5247542,21.1854709 C15.3549598,21.0067351 15.2700626,20.6885853 15.2700626,20.2292341 L15.258445,6.65424633 C15.258445,6.19668255 15.3424486,5.87763906 15.5113494,5.69800953 C15.6811439,5.51838 15.955496,5.4281184 16.3335121,5.4281184 C16.7124218,5.4281184 16.9867739,5.51301793 17.1565684,5.68192331 C17.3263628,5.85082868 17.4103664,6.18506472 17.4112601,6.68373775 L17.4219909,20.1979554 C17.4228776,20.6564128 17.3379803,20.9799247 17.1690795,21.1693847 C16.9992851,21.3606321 16.7258266,21.4544684 16.3469169,21.4544684" id="Fill-29" fill="#373B3F"></path>
                    <path d="M33,16.5 C33,25.6128473 25.6130474,33 16.5004468,33 C7.38784629,33 0,25.6128473 0,16.5 C0,7.38715268 7.38784629,0 16.5004468,0 C25.6130474,0 33,7.38715268 33,16.5 Z" id="Stroke-30" stroke="#373B3F"></path>
                </g>
                <g transform="translate(210.000000, 109.000000)" id="感叹号">
                    <path d="M16.4996425,24.3667866 C16.9294906,24.3658967 17.3039321,24.5249716 17.6238606,24.8440151 C17.9428954,25.1621649 18.1028634,25.5366165 18.1028634,25.9682636 C18.1037534,26.3981233 17.9437891,26.7725749 17.6256479,27.0925121 C17.306613,27.4115555 16.9321716,27.5706305 16.5014298,27.5715241 C16.0715818,27.5715241 15.6971403,27.4133429 15.3772118,27.0934057 C15.0581769,26.7752559 14.8982127,26.4008043 14.897319,25.9700509 C14.897319,25.5392975 15.0563896,25.1648459 15.3754245,24.8458024 C15.6944593,24.5267589 16.0689008,24.3667866 16.4996425,24.3667866" id="Fill-28" fill="#373B3F"></path>
                    <path d="M16.3469169,21.4544684 C15.9680071,21.4544684 15.6945487,21.3651005 15.5247542,21.1854709 C15.3549598,21.0067351 15.2700626,20.6885853 15.2700626,20.2292341 L15.258445,6.65424633 C15.258445,6.19668255 15.3424486,5.87763906 15.5113494,5.69800953 C15.6811439,5.51838 15.955496,5.4281184 16.3335121,5.4281184 C16.7124218,5.4281184 16.9867739,5.51301793 17.1565684,5.68192331 C17.3263628,5.85082868 17.4103664,6.18506472 17.4112601,6.68373775 L17.4219909,20.1979554 C17.4228776,20.6564128 17.3379803,20.9799247 17.1690795,21.1693847 C16.9992851,21.3606321 16.7258266,21.4544684 16.3469169,21.4544684" id="Fill-29" fill="#373B3F"></path>
                    <path d="M33,16.5 C33,25.6128473 25.6130474,33 16.5004468,33 C7.38784629,33 0,25.6128473 0,16.5 C0,7.38715268 7.38784629,0 16.5004468,0 C25.6130474,0 33,7.38715268 33,16.5 Z" id="Stroke-30" stroke="#373B3F"></path>
                </g>
                <g transform="translate(210.000000, 178.000000)" id="感叹号">
                    <path d="M16.4996425,24.3667866 C16.9294906,24.3658967 17.3039321,24.5249716 17.6238606,24.8440151 C17.9428954,25.1621649 18.1028634,25.5366165 18.1028634,25.9682636 C18.1037534,26.3981233 17.9437891,26.7725749 17.6256479,27.0925121 C17.306613,27.4115555 16.9321716,27.5706305 16.5014298,27.5715241 C16.0715818,27.5715241 15.6971403,27.4133429 15.3772118,27.0934057 C15.0581769,26.7752559 14.8982127,26.4008043 14.897319,25.9700509 C14.897319,25.5392975 15.0563896,25.1648459 15.3754245,24.8458024 C15.6944593,24.5267589 16.0689008,24.3667866 16.4996425,24.3667866" id="Fill-28" fill="#373B3F"></path>
                    <path d="M16.3469169,21.4544684 C15.9680071,21.4544684 15.6945487,21.3651005 15.5247542,21.1854709 C15.3549598,21.0067351 15.2700626,20.6885853 15.2700626,20.2292341 L15.258445,6.65424633 C15.258445,6.19668255 15.3424486,5.87763906 15.5113494,5.69800953 C15.6811439,5.51838 15.955496,5.4281184 16.3335121,5.4281184 C16.7124218,5.4281184 16.9867739,5.51301793 17.1565684,5.68192331 C17.3263628,5.85082868 17.4103664,6.18506472 17.4112601,6.68373775 L17.4219909,20.1979554 C17.4228776,20.6564128 17.3379803,20.9799247 17.1690795,21.1693847 C16.9992851,21.3606321 16.7258266,21.4544684 16.3469169,21.4544684" id="Fill-29" fill="#373B3F"></path>
                    <path d="M33,16.5 C33,25.6128473 25.6130474,33 16.5004468,33 C7.38784629,33 0,25.6128473 0,16.5 C0,7.38715268 7.38784629,0 16.5004468,0 C25.6130474,0 33,7.38715268 33,16.5 Z" id="Stroke-30" stroke="#373B3F"></path>
                </g>
                <g transform="translate(306.000000, 40.000000)" id="感叹号">
                    <path d="M16.4996425,24.3667866 C16.9294906,24.3658967 17.3039321,24.5249716 17.6238606,24.8440151 C17.9428954,25.1621649 18.1028634,25.5366165 18.1028634,25.9682636 C18.1037534,26.3981233 17.9437891,26.7725749 17.6256479,27.0925121 C17.306613,27.4115555 16.9321716,27.5706305 16.5014298,27.5715241 C16.0715818,27.5715241 15.6971403,27.4133429 15.3772118,27.0934057 C15.0581769,26.7752559 14.8982127,26.4008043 14.897319,25.9700509 C14.897319,25.5392975 15.0563896,25.1648459 15.3754245,24.8458024 C15.6944593,24.5267589 16.0689008,24.3667866 16.4996425,24.3667866" id="Fill-28" fill="#373B3F"></path>
                    <path d="M16.3469169,21.4544684 C15.9680071,21.4544684 15.6945487,21.3651005 15.5247542,21.1854709 C15.3549598,21.0067351 15.2700626,20.6885853 15.2700626,20.2292341 L15.258445,6.65424633 C15.258445,6.19668255 15.3424486,5.87763906 15.5113494,5.69800953 C15.6811439,5.51838 15.955496,5.4281184 16.3335121,5.4281184 C16.7124218,5.4281184 16.9867739,5.51301793 17.1565684,5.68192331 C17.3263628,5.85082868 17.4103664,6.18506472 17.4112601,6.68373775 L17.4219909,20.1979554 C17.4228776,20.6564128 17.3379803,20.9799247 17.1690795,21.1693847 C16.9992851,21.3606321 16.7258266,21.4544684 16.3469169,21.4544684" id="Fill-29" fill="#373B3F"></path>
                    <path d="M33,16.5 C33,25.6128473 25.6130474,33 16.5004468,33 C7.38784629,33 0,25.6128473 0,16.5 C0,7.38715268 7.38784629,0 16.5004468,0 C25.6130474,0 33,7.38715268 33,16.5 Z" id="Stroke-30" stroke="#373B3F"></path>
                </g>
                <g transform="translate(306.000000, 109.000000)" id="感叹号">
                    <path d="M16.4996425,24.3667866 C16.9294906,24.3658967 17.3039321,24.5249716 17.6238606,24.8440151 C17.9428954,25.1621649 18.1028634,25.5366165 18.1028634,25.9682636 C18.1037534,26.3981233 17.9437891,26.7725749 17.6256479,27.0925121 C17.306613,27.4115555 16.9321716,27.5706305 16.5014298,27.5715241 C16.0715818,27.5715241 15.6971403,27.4133429 15.3772118,27.0934057 C15.0581769,26.7752559 14.8982127,26.4008043 14.897319,25.9700509 C14.897319,25.5392975 15.0563896,25.1648459 15.3754245,24.8458024 C15.6944593,24.5267589 16.0689008,24.3667866 16.4996425,24.3667866" id="Fill-28" fill="#373B3F"></path>
                    <path d="M16.3469169,21.4544684 C15.9680071,21.4544684 15.6945487,21.3651005 15.5247542,21.1854709 C15.3549598,21.0067351 15.2700626,20.6885853 15.2700626,20.2292341 L15.258445,6.65424633 C15.258445,6.19668255 15.3424486,5.87763906 15.5113494,5.69800953 C15.6811439,5.51838 15.955496,5.4281184 16.3335121,5.4281184 C16.7124218,5.4281184 16.9867739,5.51301793 17.1565684,5.68192331 C17.3263628,5.85082868 17.4103664,6.18506472 17.4112601,6.68373775 L17.4219909,20.1979554 C17.4228776,20.6564128 17.3379803,20.9799247 17.1690795,21.1693847 C16.9992851,21.3606321 16.7258266,21.4544684 16.3469169,21.4544684" id="Fill-29" fill="#373B3F"></path>
                    <path d="M33,16.5 C33,25.6128473 25.6130474,33 16.5004468,33 C7.38784629,33 0,25.6128473 0,16.5 C0,7.38715268 7.38784629,0 16.5004468,0 C25.6130474,0 33,7.38715268 33,16.5 Z" id="Stroke-30" stroke="#373B3F"></path>
                </g>
                <g transform="translate(306.000000, 178.000000)" id="感叹号">
                    <path d="M16.4996425,24.3667866 C16.9294906,24.3658967 17.3039321,24.5249716 17.6238606,24.8440151 C17.9428954,25.1621649 18.1028634,25.5366165 18.1028634,25.9682636 C18.1037534,26.3981233 17.9437891,26.7725749 17.6256479,27.0925121 C17.306613,27.4115555 16.9321716,27.5706305 16.5014298,27.5715241 C16.0715818,27.5715241 15.6971403,27.4133429 15.3772118,27.0934057 C15.0581769,26.7752559 14.8982127,26.4008043 14.897319,25.9700509 C14.897319,25.5392975 15.0563896,25.1648459 15.3754245,24.8458024 C15.6944593,24.5267589 16.0689008,24.3667866 16.4996425,24.3667866" id="Fill-28" fill="#373B3F"></path>
                    <path d="M16.3469169,21.4544684 C15.9680071,21.4544684 15.6945487,21.3651005 15.5247542,21.1854709 C15.3549598,21.0067351 15.2700626,20.6885853 15.2700626,20.2292341 L15.258445,6.65424633 C15.258445,6.19668255 15.3424486,5.87763906 15.5113494,5.69800953 C15.6811439,5.51838 15.955496,5.4281184 16.3335121,5.4281184 C16.7124218,5.4281184 16.9867739,5.51301793 17.1565684,5.68192331 C17.3263628,5.85082868 17.4103664,6.18506472 17.4112601,6.68373775 L17.4219909,20.1979554 C17.4228776,20.6564128 17.3379803,20.9799247 17.1690795,21.1693847 C16.9992851,21.3606321 16.7258266,21.4544684 16.3469169,21.4544684" id="Fill-29" fill="#373B3F"></path>
                    <path d="M33,16.5 C33,25.6128473 25.6130474,33 16.5004468,33 C7.38784629,33 0,25.6128473 0,16.5 C0,7.38715268 7.38784629,0 16.5004468,0 C25.6130474,0 33,7.38715268 33,16.5 Z" id="Stroke-30" stroke="#373B3F"></path>
                </g>
                <g transform="translate(26.000000, 177.000000)" id="感叹号">
                    <path d="M16.4996425,24.3667866 C16.9294906,24.3658967 17.3039321,24.5249716 17.6238606,24.8440151 C17.9428954,25.1621649 18.1028634,25.5366165 18.1028634,25.9682636 C18.1037534,26.3981233 17.9437891,26.7725749 17.6256479,27.0925121 C17.306613,27.4115555 16.9321716,27.5706305 16.5014298,27.5715241 C16.0715818,27.5715241 15.6971403,27.4133429 15.3772118,27.0934057 C15.0581769,26.7752559 14.8982127,26.4008043 14.897319,25.9700509 C14.897319,25.5392975 15.0563896,25.1648459 15.3754245,24.8458024 C15.6944593,24.5267589 16.0689008,24.3667866 16.4996425,24.3667866" id="Fill-28" fill="#373B3F"></path>
                    <path d="M16.3469169,21.4544684 C15.9680071,21.4544684 15.6945487,21.3651005 15.5247542,21.1854709 C15.3549598,21.0067351 15.2700626,20.6885853 15.2700626,20.2292341 L15.258445,6.65424633 C15.258445,6.19668255 15.3424486,5.87763906 15.5113494,5.69800953 C15.6811439,5.51838 15.955496,5.4281184 16.3335121,5.4281184 C16.7124218,5.4281184 16.9867739,5.51301793 17.1565684,5.68192331 C17.3263628,5.85082868 17.4103664,6.18506472 17.4112601,6.68373775 L17.4219909,20.1979554 C17.4228776,20.6564128 17.3379803,20.9799247 17.1690795,21.1693847 C16.9992851,21.3606321 16.7258266,21.4544684 16.3469169,21.4544684" id="Fill-29" fill="#373B3F"></path>
                    <path d="M33,16.5 C33,25.6128473 25.6130474,33 16.5004468,33 C7.38784629,33 0,25.6128473 0,16.5 C0,7.38715268 7.38784629,0 16.5004468,0 C25.6130474,0 33,7.38715268 33,16.5 Z" id="Stroke-30" stroke="#373B3F"></path>
                </g>
                <polygon id="Fill-6" fill="#F2B5BC" points="161 194.5 175.65199 185.675532 189.867269 184 204 189.696809 176.983424 205"></polygon>
                <polygon id="Fill-7" fill="#424445" points="0 224 85 224 85 163 0 163"></polygon>
                <path d="M191.590849,189.427065 L178.883694,195.920443 C178.518911,196.106425 178.071224,195.955148 177.887961,195.583182 L167.078021,173.588277 C166.89563,173.216311 167.043986,172.759808 167.408768,172.572935 L180.115924,166.079557 C180.481578,165.893575 180.928393,166.044852 181.111656,166.416818 L191.921596,188.411723 C192.10486,188.783689 191.955631,189.241082 191.590849,189.427065" id="Fill-8" fill="#F2B5BC"></path>
                <path d="M137.670218,155 C137.670218,155 140.884637,166.232132 146,168.445233 C132.77406,180.33323 111.00001,197.394585 102.231819,197.837737 C110.488825,201.161377 131.535991,212.639902 131.535991,212.639902 L122.033026,244 C122.033026,244 76.0587675,231.725574 76,201.161377 C75.9588101,179.373363 137.670218,155 137.670218,155" id="Fill-9" fill="#F2B5BC"></path>
                <path d="M308,310.5 C308,322.374238 249.126134,332 176.500443,332 C103.874752,332 45,322.374238 45,310.5 C45,298.625762 103.874752,289 176.500443,289 C249.126134,289 308,298.625762 308,310.5" id="Fill-10" fill="#141414"></path>
                <path d="M162.899469,191.266165 C162.899469,191.266165 148.970953,192.930242 132.670421,198.459471 C120.121746,202.715651 109.949513,200.334101 109.949513,200.334101 L104,236.735009 L121.346698,244.32642 C121.346698,244.32642 117.082379,264.020208 115.913187,269.865267 C112.188767,288.486827 109.841533,325.294686 109.841533,325.294686 C109.841533,325.294686 139.207627,328.632571 182.296014,328.969633 C218.074518,329.250076 236.72848,327.495762 236.72848,327.495762 C236.72848,327.495762 239.439482,291.272674 236.94444,220.608237 C236.716089,214.160714 221.302408,196.829897 211.069989,192.003101 C198.641685,186.142118 191.634501,185 191.634501,185 C191.634501,185 186.139919,197.385474 175.149872,199.375996 C168.364843,200.604812 163.076485,196.638807 162.899469,191.266165" id="Fill-14" fill="#E8B143"></path>
                <polygon id="Fill-15" fill="#424445" points="184 156 269 156 269 95 184 95"></polygon>
                <path d="M162.620237,181.911178 L162.544957,181.901369 C156.594439,181.122017 152.336859,175.408849 153.085378,169.206133 L154.200887,159.949321 C154.948551,153.746605 160.428571,149.30947 166.379945,150.088822 L166.454369,150.098631 C172.404888,150.877983 176.662468,156.590259 175.914804,162.793867 L174.79844,172.050679 C174.051631,178.253395 168.570755,182.69053 162.620237,181.911178" id="Fill-16" fill="#F2B5BC"></path>
                <path d="M184.388405,146.49641 C185.746636,148.00048 187.047891,150.389139 189.564938,156.627244 C191.402869,161.181836 192.161934,171.349641 187.554241,173.228827 C181.624157,175.647243 178.143116,172.158485 175.255727,165.822994 C174.440604,164.032176 173.197244,158.199845 169.571925,150.418895 C168.630905,148.398139 168.412191,142.297095 172.430827,141.255608 C178.300259,139.733503 183.455655,145.463037 184.388405,146.49641" id="Fill-17" fill="#603624"></path>
                <path d="M161.391301,167.996828 L161.391301,167.996828 C161.152855,167.962658 160.977942,167.660646 161.002258,167.325567 L161.130893,165.549868 C161.155208,165.215892 161.370907,164.968991 161.608569,165.00316 C161.847015,165.03733 162.022712,165.339342 161.997612,165.674421 L161.868977,167.45012 C161.844662,167.785199 161.629747,168.030997 161.391301,167.996828" id="Fill-18" fill="#263166"></path>
                <path d="M153.391357,164.996828 L153.390573,164.996828 C153.152098,164.962658 152.977948,164.660646 153.002267,164.325567 L153.130918,162.549868 C153.155236,162.215892 153.370177,161.968991 153.607867,162.00316 L153.608652,162.00316 C153.847126,162.03733 154.02206,162.339342 153.997742,162.674421 L153.868307,164.45012 C153.843989,164.785199 153.629832,165.030997 153.391357,164.996828" id="Fill-19" fill="#263166"></path>
                <path d="M162,174.992818 C161.771877,174.214004 160.612792,173.953867 159.897945,174.006532 C159.086123,174.06638 158.224429,174.597027 158,175" id="Stroke-20" stroke="#263166" stroke-width="0.465" stroke-linecap="round"></path>
                <path d="M149.662624,162.451713 C148.531285,164.019058 148.883727,166.205763 150.452094,167.336999 C152.018698,168.469117 154.205601,168.115826 155.336939,166.548481 C156.469159,164.982018 156.115836,162.794432 154.548351,161.662315 C152.981746,160.531078 150.793963,160.884369 149.662624,162.451713 Z" id="Stroke-21" stroke="#2E64FF" stroke-width="0.34"></path>
                <path d="M158.662619,163.451713 C157.531289,165.018177 157.883728,167.205763 159.452083,168.336999 C161.018675,169.469117 163.20556,169.115826 164.33689,167.548481 C165.469101,165.982018 165.115781,163.794432 163.549188,162.662315 C161.981715,161.531078 159.793949,161.884369 158.662619,163.451713 Z" id="Stroke-22" stroke="#2E64FF" stroke-width="0.34"></path>
                <path d="M156,164.388431 C156.499531,164.237431 157.075914,164.195431 157.674789,164.293431 C158.165886,164.372431 158.614808,164.535431 159,164.759431" id="Stroke-26" stroke="#2E64FF" stroke-width="0.465"></path>
                <path d="M149.005294,153.001099 C148.815514,148.008033 153.736675,142.492809 162.376475,139.875602 C171.476294,137.118908 176.498904,141.593488 176.690433,143.371941 C176.979913,146.046962 178.848853,151.886125 168.313877,154.675855 C166.324248,155.2026 158.381475,155.983541 152.755417,156.975547 C151.121735,157.262779 149.079632,154.964005 149.005294,153.001099" id="Fill-27" fill="#7E5038"></path>
                <path d="M154.715882,171.377731 C154.231428,172.049976 153.293081,172.200962 152.621677,171.715651 C151.950274,171.231239 151.799275,170.292971 152.283729,169.621625 C152.769081,168.950278 153.706529,168.799292 154.377933,169.283704 C155.049337,169.769015 155.201234,170.706384 154.715882,171.377731" id="Fill-31" fill="#F58B8D"></path>
                <path d="M181.967759,164.408274 C181.68982,167.160246 179.686194,169.208266 177.495223,168.983073 C175.304253,168.756993 173.753598,166.343698 174.032417,163.591726 C174.311235,160.839754 176.313102,158.791734 178.504073,159.016927 C180.695923,159.242121 182.245698,161.656302 181.967759,164.408274" id="Fill-32" fill="#F2B5BC"></path>
                <line x1="165" y1="165" x2="173" y2="164" id="Stroke-33" stroke="#2E64FF" stroke-width="0.34"></line>
                <polygon id="Fill-34" fill="#FF8227" points="124 228 126.674989 224 142 224 138.87918 228"></polygon>
                <polygon id="Fill-35" fill="#C15E1B" points="139 227.511829 144.548179 241 148 238.345171 142.414264 224"></polygon>
                <polygon id="Fill-36" fill="#7E5038" points="124 228 128.382583 236.583158 146 243 139.010417 228"></polygon>
                <path d="M204.11971,238 C204.11971,238 199.408697,258.868543 190.095756,259.420621 C180.784589,259.972699 151.406389,248.710311 151.406389,248.710311 C151.406389,248.710311 143.092055,248.820726 140.209752,256.108154 C137.32745,263.395582 164.716418,291.139041 187.546914,291 C210.623071,290.858143 221.690226,279.957918 232,262.843504 C217.145943,240.870805 204.11971,238 204.11971,238" id="Fill-37" fill="#F2B5BC"></path>
                <path d="M138,156.106042 C138,156.106042 144.117113,153.707194 146.254918,149.927482 C148.392723,146.146898 161.159409,132.681076 177.956703,142.539904 C178.83323,152.544407 166.160299,152.616809 161.772359,151.526423 C157.384419,150.436038 153.642154,153.416715 153.744754,154.21575 C153.84647,155.015656 151.193009,166.428065 145.222721,168.754511 C139.252434,171.080957 138,156.106042 138,156.106042" id="Fill-38" fill="#F2B5BC"></path>
                <path d="M126,232.736445 C126,232.736445 126.573988,238.809697 126.426744,240.439778 C126.2795,242.06897 127.381628,247.475613 132.525481,251.179293 C137.668453,254.882972 141.268444,256.660596 141.85654,258.734194 C142.444636,260.807792 152.657397,250.068278 152.657397,250.068278 C152.657397,250.068278 154.788472,244.513203 153.245493,241.180159 C151.702513,237.847114 152.824039,234.218095 153.806256,233.180851 C154.788472,232.143608 151.775695,230.143781 150.600385,231.403228 C149.424194,232.662674 147.514426,238.439951 145.603776,238.365291 C143.693127,238.29152 132.378237,237.328937 129.439522,234.218095 C126.499925,231.107253 126,232.736445 126,232.736445" id="Fill-39" fill="#F2B5BC"></path>
                <polygon id="Fill-40" fill="#424445" points="184 87 269 87 269 26 184 26"></polygon>
                <polygon id="Fill-41" fill="#424445" points="281 88 366 88 366 27 281 27"></polygon>
                <polygon id="Fill-42" fill="#424445" points="281 156 366 156 366 95 281 95"></polygon>
                <polygon id="Fill-43" fill="#424445" points="281 224 366 224 366 163 281 163"></polygon>
                <path d="M241,364 C241,364 403.530264,332.073511 394.648828,218" id="Stroke-44" stroke="#323940" stroke-width="2"></path>
            </g>
        </g>
    </g>
</svg>