<svg id="图层_1" data-name="图层 1" xmlns="http://www.w3.org/2000/svg" viewBox="0 0 800 800"><defs><style>.cls-1{fill:#e3eaf0;}.cls-2{fill:#f7f5f5;}.cls-3{fill:#f2b5bc;}.cls-10,.cls-15,.cls-4,.cls-8,.cls-9{fill:none;stroke-miterlimit:10;}.cls-15,.cls-4{stroke:#e3eaf0;}.cls-5{fill:#f9c152;}.cls-6{fill:#603624;}.cls-7{fill:#263166;}.cls-8{stroke:#263166;stroke-linecap:round;}.cls-10,.cls-8{stroke-width:0.46px;}.cls-10,.cls-9{stroke:#2e64ff;}.cls-9{stroke-width:0.34px;}.cls-11{fill:#7e5038;}.cls-12{fill:#f58b8d;}.cls-13{fill:#ff8227;}.cls-14{fill:#c15e1b;}.cls-15{stroke-width:2px;}</style></defs><path class="cls-1" d="M345.58,115C399.93,103.9,432,85.58,546,210.31S609,431,505.49,487.54s-185,23-233-4.5-76-92.75-65-150.88S254.79,133.63,345.58,115Z"/><rect class="cls-2" x="173.66" y="137.37" width="197.65" height="145.88"/><rect class="cls-2" x="381.46" y="291.57" width="96.5" height="68.78"/><polygon class="cls-3" points="355.23 326.91 371.74 317.04 387.75 315.16 403.68 321.54 373.24 338.66 355.23 326.91"/><rect class="cls-2" x="173.66" y="291.57" width="96.5" height="68.78"/><rect class="cls-3" x="367.17" y="297.04" width="17.99" height="29.35" rx="0.85" transform="translate(-99.79 201.57) rotate(-26.62)"/><path class="cls-3" d="M330.07,282s3.67,12.68,9.5,15.17c-15.08,13.42-39.91,32.67-49.91,33.17,9.41,3.75,33.42,16.7,33.42,16.7l-10.84,35.38s-52.43-13.85-52.5-48.33C259.69,309.45,330.07,282,330.07,282Z"/><ellipse cx="373.07" cy="457.91" rx="148.42" ry="24.13"/><path class="cls-1" d="M429.71,334.76a1.83,1.83,0,0,1,1.8,1.79,1.83,1.83,0,0,1-1.8,1.79,1.68,1.68,0,0,1-1.25-.53,1.71,1.71,0,0,1-.54-1.26,1.81,1.81,0,0,1,1.79-1.79Z"/><path class="cls-1" d="M429.54,331.5a1.23,1.23,0,0,1-.92-.3,1.61,1.61,0,0,1-.29-1.07V314.94a1.56,1.56,0,0,1,.29-1.07,1.21,1.21,0,0,1,.92-.3,1.27,1.27,0,0,1,.92.28,1.61,1.61,0,0,1,.28,1.12v15.12a1.62,1.62,0,0,1-.28,1.09A1.19,1.19,0,0,1,429.54,331.5Z"/><circle class="cls-4" cx="429.71" cy="325.96" r="18.46"/><path class="cls-5" d="M357.4,323.37a188.14,188.14,0,0,0-34.16,8.13,51,51,0,0,1-25.67,2.12l-6.72,41.14,19.6,8.59s-4.82,22.26-6.14,28.86c-4.21,21.05-6.86,62.66-6.86,62.66s33.18,3.77,81.86,4.15c40.43.32,61.5-1.66,61.5-1.66s3.07-40.95.25-120.82c-.26-7.29-17.67-26.88-29.24-32.34-14-6.62-22-7.91-22-7.91s-6.2,14-18.62,16.25C363.57,333.92,357.6,329.44,357.4,323.37Z"/><rect class="cls-2" x="381.46" y="214.47" width="96.5" height="68.78"/><rect class="cls-3" x="346.46" y="276.21" width="25.58" height="35.96" rx="12.75" transform="translate(39.48 -42.49) rotate(7.16)"/><path class="cls-6" d="M381.36,272.72c1.48,1.67,2.9,4.32,5.64,11.24,2,5.05,2.82,16.33-2.19,18.41-6.45,2.68-10.24-1.19-13.38-8.21-.89-2-2.24-8.46-6.19-17.09-1-2.24-1.26-9,3.11-10.16C374.74,265.22,380.35,271.58,381.36,272.72Z"/><rect class="cls-7" x="355.64" y="293.46" width="1.11" height="2.73" rx="0.56" transform="translate(31.78 -34.65) rotate(5.83)"/><rect class="cls-7" x="346.57" y="290.98" width="1.11" height="2.73" rx="0.56" transform="translate(31.48 -33.74) rotate(5.83)"/><path class="cls-8" d="M357.4,305.55c-.25-1-1.5-1.3-2.28-1.23a2.84,2.84,0,0,0-2.05,1.24"/><circle class="cls-9" cx="345.58" cy="293.15" r="3.97"/><circle class="cls-9" cx="356.68" cy="294.16" r="3.97"/><path class="cls-1" d="M429.71,257.66a1.83,1.83,0,0,1,1.8,1.79,1.85,1.85,0,0,1-1.8,1.8,1.85,1.85,0,0,1-1.79-1.8,1.83,1.83,0,0,1,1.79-1.79Z"/><path class="cls-1" d="M429.54,254.4a1.23,1.23,0,0,1-.92-.3,1.61,1.61,0,0,1-.29-1.07V237.84a1.56,1.56,0,0,1,.29-1.07,1.21,1.21,0,0,1,.92-.3,1.27,1.27,0,0,1,.92.28,1.63,1.63,0,0,1,.28,1.12V253a1.61,1.61,0,0,1-.28,1.08A1.16,1.16,0,0,1,429.54,254.4Z"/><circle class="cls-4" cx="429.71" cy="248.86" r="18.46"/><path class="cls-10" d="M349.54,293.46a4.24,4.24,0,0,1,1.79-.09,4.41,4.41,0,0,1,1.41.46"/><path class="cls-11" d="M342.49,279.31c-.22-5.44,5.41-11.45,15.29-14.3,10.4-3,16.14,1.87,16.36,3.81.34,2.91,2.47,9.27-9.57,12.32-2.28.57-11.36,1.42-17.79,2.5C344.91,284,342.57,281.45,342.49,279.31Z"/><path class="cls-1" d="M272.48,219.11a1.73,1.73,0,0,1,1.26.54,1.69,1.69,0,0,1,.54,1.25,1.85,1.85,0,0,1-1.8,1.8,1.85,1.85,0,0,1-1.79-1.79,1.83,1.83,0,0,1,1.79-1.8Z"/><path class="cls-1" d="M272.31,215.85a1.23,1.23,0,0,1-.92-.3,1.54,1.54,0,0,1-.28-1.07l0-15.19a1.56,1.56,0,0,1,.29-1.07,1.21,1.21,0,0,1,.92-.3,1.27,1.27,0,0,1,.92.28,1.63,1.63,0,0,1,.28,1.12v15.13a1.61,1.61,0,0,1-.28,1.08A1.16,1.16,0,0,1,272.31,215.85Z"/><circle class="cls-4" cx="272.48" cy="210.31" r="18.46"/><circle class="cls-12" cx="346.63" cy="299.84" r="1.67"/><ellipse class="cls-3" cx="374.15" cy="292.22" rx="5.65" ry="4.53" transform="translate(45.44 634.75) rotate(-84.17)"/><line class="cls-9" x1="360.59" y1="293.46" x2="368.82" y2="292.42"/><polygon class="cls-13" points="314.05 364.28 317.05 360.35 334.24 360.35 330.74 364.28 314.05 364.28"/><polygon class="cls-14" points="330.74 364.28 337.24 379.41 341.28 376.43 334.74 360.35 330.74 364.28"/><polygon class="cls-11" points="314.05 364.78 318.83 374.3 338.05 381.41 330.43 364.78 314.05 364.78"/><path class="cls-3" d="M403.68,375.41s-5.32,23.63-15.82,24.25-43.62-12.12-43.62-12.12-9.38.12-12.63,8.37,27.64,39.66,53.38,39.5c26-.16,38.5-12.5,50.12-31.87C418.36,378.66,403.68,375.41,403.68,375.41Z"/><path class="cls-3" d="M329.32,283s6.92-2.75,9.34-7.09,16.85-19.77,35.84-8.47c1,11.47-13.34,11.56-18.3,10.31s-9.19,2.16-9.08,3.08-2.88,14-9.63,16.67S329.32,283,329.32,283Z"/><path class="cls-3" d="M315.17,370s.65,6.83.49,8.66,1.08,7.92,6.91,12.09,9.92,6.16,10.59,8.5,12.25-9.75,12.25-9.75,2.41-6.25.66-10-.48-7.84.64-9-2.3-3.42-3.64-2-3.5,7.91-5.66,7.83-15-1.17-18.34-4.67S315.17,370,315.17,370Z"/><rect class="cls-2" x="381.46" y="137.37" width="96.5" height="68.78"/><rect class="cls-2" x="490.49" y="137.37" width="96.5" height="68.78"/><rect class="cls-2" x="490.49" y="214.47" width="96.5" height="68.78"/><rect class="cls-2" x="490.49" y="291.57" width="96.5" height="68.78"/><path class="cls-15" d="M446.49,518.28s183-36.24,173-165.74"/><path class="cls-1" d="M538.74,180.56a1.83,1.83,0,0,1,1.79,1.79,1.7,1.7,0,0,1-.53,1.26,1.79,1.79,0,0,1-3-1.25,1.7,1.7,0,0,1,.53-1.26A1.73,1.73,0,0,1,538.74,180.56Z"/><path class="cls-1" d="M538.57,177.3a1.21,1.21,0,0,1-.92-.3,1.54,1.54,0,0,1-.29-1.07V160.74a1.56,1.56,0,0,1,.28-1.07,1.23,1.23,0,0,1,.92-.3,1.3,1.3,0,0,1,.92.28,1.63,1.63,0,0,1,.29,1.13V175.9a1.61,1.61,0,0,1-.28,1.08A1.16,1.16,0,0,1,538.57,177.3Z"/><circle class="cls-4" cx="538.74" cy="171.76" r="18.46"/><path class="cls-1" d="M429.71,180.56a1.8,1.8,0,0,1,0,3.59,1.85,1.85,0,0,1-1.79-1.79,1.83,1.83,0,0,1,1.79-1.8Z"/><path class="cls-1" d="M429.54,177.3a1.23,1.23,0,0,1-.92-.3,1.59,1.59,0,0,1-.29-1.07V160.74a1.56,1.56,0,0,1,.29-1.07,1.21,1.21,0,0,1,.92-.3,1.31,1.31,0,0,1,.92.28,1.64,1.64,0,0,1,.28,1.13V175.9a1.61,1.61,0,0,1-.28,1.08A1.16,1.16,0,0,1,429.54,177.3Z"/><circle class="cls-4" cx="429.71" cy="171.76" r="18.46"/><path class="cls-1" d="M538.74,257.66a1.81,1.81,0,0,1,1.79,1.79,1.79,1.79,0,0,1-3.58,0,1.68,1.68,0,0,1,.53-1.25A1.73,1.73,0,0,1,538.74,257.66Z"/><path class="cls-1" d="M538.57,254.4a1.21,1.21,0,0,1-.92-.3,1.56,1.56,0,0,1-.29-1.07V237.84a1.56,1.56,0,0,1,.28-1.07,1.23,1.23,0,0,1,.92-.3,1.25,1.25,0,0,1,.92.28,1.62,1.62,0,0,1,.29,1.12V253a1.61,1.61,0,0,1-.28,1.08A1.16,1.16,0,0,1,538.57,254.4Z"/><circle class="cls-4" cx="538.74" cy="248.86" r="18.46"/><path class="cls-1" d="M538.74,334.76a1.81,1.81,0,0,1,1.79,1.79,1.78,1.78,0,0,1-3,1.26,1.74,1.74,0,0,1-.53-1.26,1.72,1.72,0,0,1,.53-1.26A1.76,1.76,0,0,1,538.74,334.76Z"/><path class="cls-1" d="M538.57,331.5a1.21,1.21,0,0,1-.92-.3,1.56,1.56,0,0,1-.29-1.07V314.94a1.56,1.56,0,0,1,.28-1.07,1.23,1.23,0,0,1,.92-.3,1.25,1.25,0,0,1,.92.28,1.6,1.6,0,0,1,.29,1.12v15.12a1.62,1.62,0,0,1-.28,1.09A1.19,1.19,0,0,1,538.57,331.5Z"/><circle class="cls-4" cx="538.74" cy="325.96" r="18.46"/><path class="cls-1" d="M221.9,334.76a1.78,1.78,0,0,1,1.26,3.05,1.68,1.68,0,0,1-1.25.53,1.79,1.79,0,0,1,0-3.58Z"/><path class="cls-1" d="M221.73,331.5a1.23,1.23,0,0,1-.92-.3,1.56,1.56,0,0,1-.28-1.07V314.94a1.56,1.56,0,0,1,.28-1.07,1.23,1.23,0,0,1,.92-.3,1.27,1.27,0,0,1,.92.28,1.66,1.66,0,0,1,.29,1.12v15.12a1.62,1.62,0,0,1-.29,1.09A1.18,1.18,0,0,1,221.73,331.5Z"/><circle class="cls-4" cx="221.91" cy="325.96" r="18.46"/></svg>