<?xml version="1.0" encoding="UTF-8"?>
<svg width="448px" height="414px" viewBox="0 0 448 414" version="1.1" xmlns="http://www.w3.org/2000/svg" xmlns:xlink="http://www.w3.org/1999/xlink">
    <title>D711A8BD-6097-4033-A298-48BFD6DBDBEE</title>
    <defs>
        <polygon id="path-1" points="0.449813539 0.8 406.133 0.8 406.133 412.019285 0.449813539 412.019285"></polygon>
        <polygon id="path-3" points="0 413.2 447.229 413.2 447.229 1 0 1"></polygon>
    </defs>
    <g id="布局" stroke="none" stroke-width="1" fill="none" fill-rule="evenodd">
        <g id="画板" transform="translate(-613.000000, -402.000000)">
            <g id="暂无数据" transform="translate(613.000000, 402.000000)">
                <g id="编组" transform="translate(31.000000, 0.200000)">
                    <mask id="mask-2" fill="white">
                        <use xlink:href="#path-1"></use>
                    </mask>
                    <g id="Clip-2"></g>
                    <path d="M140.924,8.775 C195.271,-2.359 227.333,-20.679 341.333,104.047 C455.333,228.775 404.333,324.775 300.833,381.275 C197.333,437.775 115.819,404.275 67.826,376.775 C19.833,349.275 -8.167,284.025 2.833,225.9 C13.833,167.775 50.136,27.374 140.924,8.775" id="Fill-1" fill="#E3EAF0" mask="url(#mask-2)"></path>
                </g>
                <mask id="mask-4" fill="white">
                    <use xlink:href="#path-3"></use>
                </mask>
                <g id="Clip-4"></g>
                <polygon id="Fill-3" fill="#F7F5F5" mask="url(#mask-4)" points="0.001 177.188 197.652 177.188 197.652 31.308 0.001 31.308"></polygon>
                <polygon id="Fill-5" fill="#F7F5F5" mask="url(#mask-4)" points="207.806 254.286 304.305 254.286 304.305 185.505 207.806 185.505"></polygon>
                <polygon id="Fill-6" fill="#F2B5BC" mask="url(#mask-4)" points="181.5764 220.85 198.0834 210.975 214.0984 209.1 230.0204 215.475 199.5834 232.6"></polygon>
                <polygon id="Fill-7" fill="#F7F5F5" mask="url(#mask-4)" points="0 254.286 96.499 254.286 96.499 185.505 0 185.505"></polygon>
                <path d="M216.364,215.1205 L201.803,222.4185 C201.385,222.6275 200.872,222.4565 200.662,222.0385 L188.276,197.3225 C188.066,196.9035 188.237,196.3915 188.655,196.1815 L203.215,188.8845 C203.633,188.6745 204.147,188.8455 204.356,189.2635 L216.743,213.9795 C216.953,214.3975 216.782,214.9115 216.364,215.1205" id="Fill-8" fill="#F2B5BC" mask="url(#mask-4)"></path>
                <path d="M156.4167,175.891 C156.4167,175.891 160.0837,188.565 165.9167,191.062 C150.8337,204.475 125.9997,223.725 115.9997,224.225 C125.4167,227.975 149.4207,240.925 149.4207,240.925 L138.5837,276.308 C138.5837,276.308 86.1497,262.459 86.0836755,227.975 C86.0357,203.391 156.4167,175.891 156.4167,175.891" id="Fill-9" fill="#F2B5BC" mask="url(#mask-4)"></path>
                <path d="M347.8332,351.85 C347.8332,365.173 281.3842,375.975 199.4162,375.975 C117.4472,375.975 50.9982,365.173 50.9982,351.85 C50.9982,338.526 117.4472,327.725 199.4162,327.725 C281.3842,327.725 347.8332,338.526 347.8332,351.85" id="Fill-10" fill="#000000" mask="url(#mask-4)"></path>
                <path d="M256.0544,228.697596 C256.5354,228.6966 256.9544,228.8756 257.3124,229.2316 C257.6694,229.5876 257.848404,230.0076 257.848404,230.4886 C257.8494,230.9706 257.6714,231.3896 257.3144,231.7476 C256.9574,232.1046 256.5384,232.2826 256.0564,232.2836 C255.5754,232.2836 255.1564,232.1056 254.7984,231.7496 C254.4414,231.3926 254.2634,230.9736 254.2624,230.4926 C254.2624,230.0096 254.4394,229.5906 254.7964,229.2336 C255.1534,228.8766 255.5724,228.697596 256.0544,228.697596" id="Fill-11" fill="#D0D5D8" mask="url(#mask-4)"></path>
                <path d="M255.884,225.4388 C255.46,225.4388 255.154,225.3388 254.964,225.1378 C254.774,224.9378 254.679,224.5818 254.678,224.0678 L254.666,208.8778 C254.666,208.3658 254.76,208.0088 254.949,207.8078 C255.139,207.6068 255.446,207.5058 255.869,207.5058 C256.293,207.5058 256.6,207.6008 256.79,207.7898 C256.979,207.9788 257.074,208.3528 257.075,208.9108 L257.087008,224.0328 C257.088,224.5458 256.993,224.9078 256.804,225.1198 C256.614,225.3338 256.307,225.4388 255.884,225.4388" id="Fill-12" fill="#D0D5D8" mask="url(#mask-4)"></path>
                <path d="M274.5187,219.8949 C274.5187,230.0919 266.2527,238.3589 256.0557,238.3589 C245.8577,238.3589 237.5917,230.0919 237.5917,219.8949 C237.5917,209.6979 245.8577,201.4309 256.0557,201.4309 C266.2527,201.4309 274.5187,209.6979 274.5187,219.8949 Z" id="Stroke-13" stroke="#D2D8DB" mask="url(#mask-4)"></path>
                <path d="M183.7419,217.308 C183.7419,217.308 168.0049,219.189 149.5879,225.439 C135.4099,230.25 123.9169,227.558 123.9169,227.558 L117.1959,268.704 L136.7939,277.285 C136.7939,277.285 131.9769,299.545 130.6559,306.153 C126.4469,327.202 123.7949,368.808 123.7949,368.808 C123.7949,368.808 156.9739,372.581 205.6579,372.962 C246.0809,373.279 267.1579,371.295 267.1579,371.295 C267.1579,371.295 270.2199,330.351 267.4009,250.475 C267.1439,243.187 249.7289,223.596 238.1669,218.141 C224.1249,211.516 216.2079,210.225 216.2079,210.225 C216.2079,210.225 209.9999,224.225 197.5829,226.475 C189.9169,227.864 183.9429,223.381 183.7419,217.308" id="Fill-14" fill="#F9C152" mask="url(#mask-4)"></path>
                <polygon id="Fill-15" fill="#F7F5F5" mask="url(#mask-4)" points="207.806 177.188 304.305 177.188 304.305 108.407 207.806 108.407"></polygon>
                <path d="M183.3938,205.974 L183.3058,205.963 C176.3498,205.089 171.3728,198.683 172.2468,191.727 L173.5518,181.345 C174.4258,174.389 180.8318,169.412 187.7878,170.286 L187.8758,170.298 C194.8318,171.172 199.8088,177.578 198.9348,184.535 L197.6298,194.915 C196.7568,201.871 190.3498,206.848 183.3938,205.974" id="Fill-16" fill="#F2B5BC" mask="url(#mask-4)"></path>
                <path d="M207.7082,166.6625 C209.1862,168.3315 210.6022,170.9795 213.3402,177.8965 C215.3402,182.9475 216.1662,194.2245 211.1532,196.3085 C204.6992,198.9905 200.9122,195.1225 197.7702,188.0955 C196.8832,186.1095 195.5302,179.6415 191.5852,171.0125 C190.5612,168.7705 190.3232,162.0055 194.6952,160.8505 C201.0832,159.1625 206.6932,165.5165 207.7082,166.6625" id="Fill-17" fill="#603624" mask="url(#mask-4)"></path>
                <path d="M182.4055,190.1205 L182.4055,190.1205 C182.1015,190.0895 181.8785,189.8155 181.9085,189.5125 L182.0735,187.9005 C182.1045,187.5975 182.3785,187.3735 182.6825,187.4045 L182.6825,187.4045 C182.9865,187.4355 183.2095,187.7095 183.1785,188.0135 L183.0135,189.6245 C182.9835,189.9285 182.7095,190.1515 182.4055,190.1205" id="Fill-18" fill="#263166" mask="url(#mask-4)"></path>
                <path d="M173.3288,187.6371 L173.3288,187.6371 C173.0248,187.6071 172.8018,187.3321 172.8318,187.0291 L172.9968,185.4171 C173.0278,185.1141 173.3018,184.8911 173.6058,184.9211 L173.6058,184.9221 C173.9098,184.9521 174.1328,185.2271 174.1018,185.5311 L173.9378,187.1421 C173.9068,187.4461 173.6328,187.6681 173.3288,187.6371" id="Fill-19" fill="#263166" mask="url(#mask-4)"></path>
                <path d="M183.7419,199.4926 C183.4949,198.5166 182.2409,198.1906 181.4659,198.2566 C180.5869,198.3316 179.6549,198.9966 179.4109,199.5016" id="Stroke-20" stroke="#263166" stroke-width="0.465" stroke-linecap="round" mask="url(#mask-4)"></path>
                <path d="M168.7038,184.764 C167.4198,186.542 167.8208,189.026 169.5988,190.31 C171.3778,191.594 173.8608,191.193 175.1448,189.414 C176.4288,187.635 176.0278,185.153 174.2488,183.868 C172.4708,182.584 169.9878,182.986 168.7038,184.764 Z" id="Stroke-21" stroke="#2E64FF" stroke-width="0.34" mask="url(#mask-4)"></path>
                <path d="M179.8054,185.7699 C178.5214,187.5479 178.9224,190.0319 180.7014,191.3159 C182.4794,192.5999 184.9624,192.1989 186.2464,190.4199 C187.5304,188.6409 187.1294,186.1589 185.3514,184.8739 C183.5724,183.5899 181.0894,183.9909 179.8054,185.7699 Z" id="Stroke-22" stroke="#2E64FF" stroke-width="0.34" mask="url(#mask-4)"></path>
                <path d="M256.0544,151.599996 C256.5354,151.599 256.9544,151.777 257.3124,152.134 C257.6694,152.49 257.848404,152.909 257.848404,153.391 C257.8494,153.873 257.6714,154.291 257.3144,154.65 C256.9574,155.006 256.5384,155.185 256.0564,155.186 C255.5754,155.186 255.1564,155.008 254.7984,154.651 C254.4414,154.295 254.2634,153.876 254.2624,153.394 C254.2624,152.912 254.4394,152.493 254.7964,152.135 C255.1534,151.779 255.5724,151.599996 256.0544,151.599996" id="Fill-23" fill="#D0D5D8" mask="url(#mask-4)"></path>
                <path d="M255.884,148.3412 C255.46,148.3412 255.154,148.2412 254.964,148.0402 C254.774,147.8402 254.679,147.4842 254.678,146.9702 L254.666,131.7802 C254.666,131.2682 254.76,130.9112 254.949,130.7102 C255.139,130.5092 255.446,130.4082 255.869,130.4082 C256.293,130.4082 256.6,130.5032 256.79,130.6922 C256.979,130.8812 257.074,131.2552 257.075,131.8132 L257.087008,146.9352 C257.088,147.4482 256.993,147.8102 256.804,148.0222 C256.614,148.2362 256.307,148.3412 255.884,148.3412" id="Fill-24" fill="#D0D5D8" mask="url(#mask-4)"></path>
                <path d="M274.5187,142.7972 C274.5187,152.9932 266.2527,161.2602 256.0557,161.2602 C245.8577,161.2602 237.5917,152.9932 237.5917,142.7972 C237.5917,132.6002 245.8577,124.3332 256.0557,124.3332 C266.2527,124.3332 274.5187,132.6002 274.5187,142.7972 Z" id="Stroke-25" stroke="#D2D8DB" mask="url(#mask-4)"></path>
                <path d="M175.8845,187.4027 C176.4175,187.2517 177.0325,187.2097 177.6725,187.3067 C178.1955,187.3867 178.6745,187.5497 179.0855,187.7727" id="Stroke-26" stroke="#2E64FF" stroke-width="0.465" mask="url(#mask-4)"></path>
                <path d="M168.8317,173.2494 C168.6147,167.8084 174.2417,161.7984 184.1207,158.9464 C194.5257,155.9424 200.2687,160.8174 200.4887,162.7564 C200.8187,165.6714 202.9557,172.0334 190.9107,175.0744 C188.6347,175.6484 179.5527,176.4994 173.1197,177.5794 C171.2517,177.8944 168.9167,175.3894 168.8317,173.2494" id="Fill-27" fill="#7E5038" mask="url(#mask-4)"></path>
                <path d="M98.8249,113.0502 C99.3059,113.0502 99.7249,113.2282 100.0829,113.5852 C100.4399,113.9412 100.618904,114.3602 100.618904,114.8422 C100.6199,115.3232 100.4419,115.7422 100.0849,116.1012 C99.7279,116.4572 99.3089,116.6362 98.8269,116.6362 C98.3459,116.6362 97.9269,116.4592 97.5689,116.1022 C97.2119,115.7452 97.0329,115.3272 97.0329,114.8452 C97.0329,114.3622 97.2099,113.9442 97.5669,113.5862 C97.9239,113.2302 98.3429,113.0502 98.8249,113.0502" id="Fill-28" fill="#D0D5D8" mask="url(#mask-4)"></path>
                <path d="M98.6545,109.7914 C98.2305,109.7914 97.9245,109.6914 97.7345,109.4904 C97.5445,109.2904 97.4495,108.9344 97.4485,108.4204 L97.4365,93.2304 C97.4365,92.7184 97.5305,92.3614 97.7195,92.1604 C97.9095,91.9594 98.2165,91.8584 98.6395,91.8584 C99.0635,91.8584 99.3705,91.9534 99.5605,92.1424 C99.7495,92.3314 99.8445,92.7054 99.8455,93.2634 L99.8575078,108.3854 C99.8585,108.8984 99.7635,109.2604 99.5745,109.4724 C99.3845,109.6864 99.0775,109.7914 98.6545,109.7914" id="Fill-29" fill="#D0D5D8" mask="url(#mask-4)"></path>
                <path d="M117.2893,104.2474 C117.2893,114.4444 109.0233,122.7114 98.8263,122.7114 C88.6283,122.7114 80.3623,114.4444 80.3623,104.2474 C80.3623,94.0504 88.6283,85.7844 98.8263,85.7844 C109.0233,85.7844 117.2893,94.0504 117.2893,104.2474 Z" id="Stroke-30" stroke="#D2D8DB" mask="url(#mask-4)"></path>
                <path d="M174.3244,194.7513 C173.7844,195.4983 172.7414,195.6673 171.9944,195.1273 C171.2474,194.5883 171.0784,193.5453 171.6184,192.7973 C172.1574,192.0503 173.2004,191.8823 173.9484,192.4213 C174.6954,192.9613 174.8644,194.0043 174.3244,194.7513" id="Fill-31" fill="#F58B8D" mask="url(#mask-4)"></path>
                <path d="M204.9997,186.6146 C204.6827,189.7186 202.4067,192.0286 199.9157,191.7746 C197.4237,191.5196 195.6607,188.7986 195.9777,185.6936 C196.2947,182.5906 198.5707,180.2796 201.0627,180.5336 C203.5537,180.7886 205.3167,183.5106 204.9997,186.6146" id="Fill-32" fill="#F2B5BC" mask="url(#mask-4)"></path>
                <line x1="186.9353" y1="187.3969" x2="195.1643" y2="186.3619" id="Stroke-33" stroke="#2E64FF" stroke-width="0.34" mask="url(#mask-4)"></line>
                <polygon id="Fill-34" fill="#FF8227" mask="url(#mask-4)" points="140.3957 258.223 143.3957 254.285 160.5827 254.285 157.0827 258.223"></polygon>
                <polygon id="Fill-35" fill="#C15E1B" mask="url(#mask-4)" points="157.0832 258.223 163.5832 273.348 167.6262 270.371 161.0832 254.285"></polygon>
                <polygon id="Fill-36" fill="#7E5038" mask="url(#mask-4)" points="140.3957 258.723 145.1767 268.236 164.3957 275.348 156.7707 258.723"></polygon>
                <path d="M230.0207,269.35 C230.0207,269.35 224.7087,292.975 214.2077,293.6 C203.7087,294.225 170.5827,281.475 170.5827,281.475 C170.5827,281.475 161.2077,281.6 157.9577,289.85 C154.7077,298.1 185.5907,329.507 211.3337,329.350587 C237.3537,329.19 249.8327,316.85 261.4577,297.475 C244.7087,272.6 230.0207,269.35 230.0207,269.35" id="Fill-37" fill="#F2B5BC" mask="url(#mask-4)"></path>
                <path d="M155.6667,176.975 C155.6667,176.975 162.5837,174.225 164.9997,169.891 C167.4167,165.558 181.8507,150.12 200.8417,161.423 C201.8337,172.891 187.5037,172.975 182.5437,171.725 C177.5837,170.475 173.3517,173.891 173.4667,174.808 C173.5837,175.725 170.5837,188.808 163.8337,191.475 C157.0837,194.141 155.6667,176.975 155.6667,176.975" id="Fill-38" fill="#F2B5BC" mask="url(#mask-4)"></path>
                <path d="M141.5148,263.975 C141.5148,263.975 142.1668,270.808 141.9998,272.641 C141.8328,274.475 143.0828,280.558 148.9168,284.725 C154.7498,288.891 158.8328,290.891 159.4998,293.225 C160.1668,295.558 171.7498,283.475 171.7498,283.475 C171.7498,283.475 174.1668,277.225 172.4168,273.475 C170.6668,269.725 171.9388,265.641 173.0528,264.475 C174.1668,263.308 170.7498,261.058 169.4168,262.475 C168.0828,263.891 165.9168,270.391 163.7498,270.308 C161.5828,270.225 148.7498,269.141 145.4168,265.641 C142.0828,262.141 141.5148,263.975 141.5148,263.975" id="Fill-39" fill="#F2B5BC" mask="url(#mask-4)"></path>
                <polygon id="Fill-40" fill="#F7F5F5" mask="url(#mask-4)" points="207.806 100.089 304.305 100.089 304.305 31.308 207.806 31.308"></polygon>
                <polygon id="Fill-41" fill="#F7F5F5" mask="url(#mask-4)" points="316.834 100.089 413.333 100.089 413.333 31.308 316.834 31.308"></polygon>
                <polygon id="Fill-42" fill="#F7F5F5" mask="url(#mask-4)" points="316.834 177.188 413.333 177.188 413.333 108.407 316.834 108.407"></polygon>
                <polygon id="Fill-43" fill="#F7F5F5" mask="url(#mask-4)" points="316.834 254.286 413.333 254.286 413.333 185.505 316.834 185.505"></polygon>
                <path d="M272.8332,412.2191 C272.8332,412.2191 455.8332,375.9751 445.8332,246.4751" id="Stroke-44" stroke="#E3EAF0" stroke-width="2" mask="url(#mask-4)"></path>
                <path d="M365.0827,74.5012958 C365.5637,74.5003 365.9837,74.6793 366.3407,75.0353 C366.6977,75.3913 366.876704,75.8113 366.876704,76.2933 C366.8777,76.7743 366.6997,77.1933 366.3427,77.5513 C365.9857,77.9083 365.5667,78.0863 365.0847,78.0873 C364.6037,78.0873 364.1847,77.9103 363.8277,77.5533 C363.4697,77.1963 363.2907,76.7773 363.2907,76.2963 C363.2907,75.8133 363.4677,75.3953 363.8247,75.0373 C364.1817,74.6803 364.6007,74.5012958 365.0827,74.5012958" id="Fill-45" fill="#D0D5D8" mask="url(#mask-4)"></path>
                <path d="M364.9123,71.2425 C364.4883,71.2425 364.1823,71.1425 363.9923,70.9415 C363.8023,70.7415 363.7073,70.3855 363.7063,69.8715 L363.6943,54.6815 C363.6943,54.1695 363.7883,53.8125 363.9773,53.6115 C364.1673,53.4105 364.4743,53.3095 364.8973,53.3095 C365.3213,53.3095 365.6283,53.4045 365.8183,53.5935 C366.0073,53.7825 366.1023,54.1565 366.1033,54.7145 L366.115308,69.8365 C366.1163,70.3495 366.0213,70.7115 365.8323,70.9235 C365.6423,71.1375 365.3353,71.2425 364.9123,71.2425" id="Fill-46" fill="#D0D5D8" mask="url(#mask-4)"></path>
                <path d="M383.5475,65.6986 C383.5475,75.8956 375.2805,84.1626 365.0835,84.1626 C354.8865,84.1626 346.6205,75.8956 346.6205,65.6986 C346.6205,55.5016 354.8865,47.2346 365.0835,47.2346 C375.2805,47.2346 383.5475,55.5016 383.5475,65.6986 Z" id="Stroke-47" stroke="#D2D8DB" mask="url(#mask-4)"></path>
                <path d="M256.0544,74.5012958 C256.5354,74.5003 256.9544,74.6793 257.3124,75.0353 C257.6694,75.3913 257.848404,75.8113 257.848404,76.2933 C257.8494,76.7743 257.6714,77.1933 257.3144,77.5513 C256.9574,77.9083 256.5384,78.0863 256.0564,78.0873 C255.5754,78.0873 255.1564,77.9103 254.7984,77.5533 C254.4414,77.1963 254.2634,76.7773 254.2624,76.2963 C254.2624,75.8133 254.4394,75.3953 254.7964,75.0373 C255.1534,74.6803 255.5724,74.5012958 256.0544,74.5012958" id="Fill-48" fill="#D0D5D8" mask="url(#mask-4)"></path>
                <path d="M255.884,71.2425 C255.46,71.2425 255.154,71.1425 254.964,70.9415 C254.774,70.7415 254.679,70.3855 254.678,69.8715 L254.666,54.6815 C254.666,54.1695 254.76,53.8125 254.949,53.6115 C255.139,53.4105 255.446,53.3095 255.869,53.3095 C256.293,53.3095 256.6,53.4045 256.79,53.5935 C256.979,53.7825 257.074,54.1565 257.075,54.7145 L257.087008,69.8365 C257.088,70.3495 256.993,70.7115 256.804,70.9235 C256.614,71.1375 256.307,71.2425 255.884,71.2425" id="Fill-49" fill="#D0D5D8" mask="url(#mask-4)"></path>
                <path d="M274.5187,65.6986 C274.5187,75.8956 266.2527,84.1626 256.0557,84.1626 C245.8577,84.1626 237.5917,75.8956 237.5917,65.6986 C237.5917,55.5016 245.8577,47.2346 256.0557,47.2346 C266.2527,47.2346 274.5187,55.5016 274.5187,65.6986 Z" id="Stroke-50" stroke="#D2D8DB" mask="url(#mask-4)"></path>
                <path d="M365.0827,151.599996 C365.5637,151.599 365.9837,151.777 366.3407,152.134 C366.6977,152.49 366.876704,152.909 366.876704,153.391 C366.8777,153.873 366.6997,154.291 366.3427,154.65 C365.9857,155.006 365.5667,155.185 365.0847,155.186 C364.6037,155.186 364.1847,155.008 363.8277,154.651 C363.4697,154.295 363.2907,153.876 363.2907,153.394 C363.2907,152.912 363.4677,152.493 363.8247,152.135 C364.1817,151.779 364.6007,151.599996 365.0827,151.599996" id="Fill-51" fill="#D0D5D8" mask="url(#mask-4)"></path>
                <path d="M364.9123,148.3412 C364.4883,148.3412 364.1823,148.2412 363.9923,148.0402 C363.8023,147.8402 363.7073,147.4842 363.7063,146.9702 L363.6943,131.7802 C363.6943,131.2682 363.7883,130.9112 363.9773,130.7102 C364.1673,130.5092 364.4743,130.4082 364.8973,130.4082 C365.3213,130.4082 365.6283,130.5032 365.8183,130.6922 C366.0073,130.8812 366.1023,131.2552 366.1033,131.8132 L366.115308,146.9352 C366.1163,147.4482 366.0213,147.8102 365.8323,148.0222 C365.6423,148.2362 365.3353,148.3412 364.9123,148.3412" id="Fill-52" fill="#D0D5D8" mask="url(#mask-4)"></path>
                <path d="M383.5475,142.7972 C383.5475,152.9932 375.2805,161.2602 365.0835,161.2602 C354.8865,161.2602 346.6205,152.9932 346.6205,142.7972 C346.6205,132.6002 354.8865,124.3332 365.0835,124.3332 C375.2805,124.3332 383.5475,132.6002 383.5475,142.7972 Z" id="Stroke-53" stroke="#D2D8DB" mask="url(#mask-4)"></path>
                <path d="M365.0827,228.697596 C365.5637,228.6966 365.9837,228.8756 366.3407,229.2316 C366.6977,229.5876 366.876704,230.0076 366.876704,230.4886 C366.8777,230.9706 366.6997,231.3896 366.3427,231.7476 C365.9857,232.1046 365.5667,232.2826 365.0847,232.2836 C364.6037,232.2836 364.1847,232.1056 363.8277,231.7496 C363.4697,231.3926 363.2907,230.9736 363.2907,230.4926 C363.2907,230.0096 363.4677,229.5906 363.8247,229.2336 C364.1817,228.8766 364.6007,228.697596 365.0827,228.697596" id="Fill-54" fill="#D0D5D8" mask="url(#mask-4)"></path>
                <path d="M364.9123,225.4388 C364.4883,225.4388 364.1823,225.3388 363.9923,225.1378 C363.8023,224.9378 363.7073,224.5818 363.7063,224.0678 L363.6943,208.8778 C363.6943,208.3658 363.7883,208.0088 363.9773,207.8078 C364.1673,207.6068 364.4743,207.5058 364.8973,207.5058 C365.3213,207.5058 365.6283,207.6008 365.8183,207.7898 C366.0073,207.9788 366.1023,208.3528 366.1033,208.9108 L366.115308,224.0328 C366.1163,224.5458 366.0213,224.9078 365.8323,225.1198 C365.6423,225.3338 365.3353,225.4388 364.9123,225.4388" id="Fill-55" fill="#D0D5D8" mask="url(#mask-4)"></path>
                <path d="M383.5475,219.8949 C383.5475,230.0919 375.2805,238.3589 365.0835,238.3589 C354.8865,238.3589 346.6205,230.0919 346.6205,219.8949 C346.6205,209.6979 354.8865,201.4309 365.0835,201.4309 C375.2805,201.4309 383.5475,209.6979 383.5475,219.8949 Z" id="Stroke-56" stroke="#D2D8DB" mask="url(#mask-4)"></path>
                <path d="M48.2482,228.697596 C48.7302,228.6966 49.1492,228.8756 49.5062,229.2316 C49.8632,229.5876 50.0422042,230.0076 50.0422042,230.4886 C50.0432,230.9706 49.8652,231.3896 49.5082,231.7476 C49.1522,232.1046 48.7322,232.2826 48.2512,232.2836 C47.7692,232.2836 47.3502,232.1056 46.9932,231.7496 C46.6352,231.3926 46.4562,230.9736 46.4562,230.4926 C46.4562,230.0096 46.6342,229.5906 46.9902,229.2336 C47.3472,228.8766 47.7662,228.697596 48.2482,228.697596" id="Fill-57" fill="#D0D5D8" mask="url(#mask-4)"></path>
                <path d="M48.0783,225.4388 C47.6543,225.4388 47.3483,225.3388 47.1583,225.1378 C46.9683,224.9378 46.8733,224.5818 46.8723,224.0678 L46.8603,208.8778 C46.8603,208.3658 46.9543,208.0088 47.1433,207.8078 C47.3333,207.6068 47.6403,207.5058 48.0633,207.5058 C48.4873,207.5058 48.7943,207.6008 48.9843,207.7898 C49.1733,207.9788 49.2683,208.3528 49.2693,208.9108 L49.2813078,224.0328 C49.2823,224.5458 49.1873,224.9078 48.9983,225.1198 C48.8083,225.3338 48.5013,225.4388 48.0783,225.4388" id="Fill-58" fill="#D0D5D8" mask="url(#mask-4)"></path>
                <path d="M66.7131,219.8949 C66.7131,230.0919 58.4461,238.3589 48.2501,238.3589 C38.0521,238.3589 29.7861,230.0919 29.7861,219.8949 C29.7861,209.6979 38.0521,201.4309 48.2501,201.4309 C58.4461,201.4309 66.7131,209.6979 66.7131,219.8949 Z" id="Stroke-59" stroke="#D2D8DB" mask="url(#mask-4)"></path>
            </g>
        </g>
    </g>
</svg>