<?xml version="1.0" encoding="UTF-8"?>
<svg width="439px" height="444px" viewBox="0 0 439 444" version="1.1" xmlns="http://www.w3.org/2000/svg" xmlns:xlink="http://www.w3.org/1999/xlink">
    <title>1ED40929-3E90-4827-9947-6A83A5A9D9DC</title>
    <defs>
        <polygon id="path-1" points="0.5019 0.3616 38.5969 0.3616 38.5969 5 0.5019 5"></polygon>
        <polygon id="path-3" points="0.6894 0.3616 38.7844 0.3616 38.7844 5 0.6894 5"></polygon>
    </defs>
    <g id="布局" stroke="none" stroke-width="1" fill="none" fill-rule="evenodd">
        <g id="画板" transform="translate(-616.000000, -387.000000)">
            <g id="暂无历史版本" transform="translate(618.000000, 387.000000)">
                <path d="M158.9277,15.0994 C204.3377,-6.1736 297.9657,-10.7796 357.9277,40.2654 C422.9277,95.5994 437.7517,185.6734 436.4277,239.0994 C435.6237,271.5544 433.6277,307.9354 351.5947,337.2654 C267.0387,367.4974 265.2617,391.5994 202.5947,399.2654 C142.4057,406.6294 20.9277,337.2654 15.4277,229.0994 C9.9447,121.2474 100.5967,42.4254 158.9277,15.0994" id="Fill-1" fill="#E3EAF0"></path>
                <path d="M47.5947,333.9324 C47.5947,333.9324 -4.3703,308.9324 0.2967,225.9324 C4.9627,142.9324 81.9277,50.5994 81.9277,50.5994" id="Stroke-3" stroke="#E3EAF0" stroke-width="2"></path>
                <path d="M274.1289,123.1092 C266.0129,114.4072 254.8789,116.3592 254.8789,116.3592 C249.2409,118.0772 250.3849,118.9892 242.7539,118.8592 C235.5359,118.8592 232.1819,109.5152 227.5469,109.5152 C227.5469,109.5152 215.2539,111.7342 205.1289,117.3592 C195.1649,122.8942 189.2599,127.9922 189.2599,127.9922 L200.1289,147.4842 L204.7129,145.2862 L187.6289,218.8592 C187.6289,218.8592 195.7699,220.0842 224.5039,221.9842 C235.2129,222.6922 277.2539,216.9842 277.2539,216.9842 L262.8789,152.9842 L266.8139,164.1132 L287.7539,154.8592 C287.7539,154.8592 284.5039,134.2342 274.1289,123.1092" id="Fill-5" fill="#F9C152"></path>
                <path d="M237.0449,105.6922 C237.0449,105.6922 235.9489,118.5852 233.9209,119.4442 C231.8929,120.3032 252.1739,119.6162 252.1739,119.6162 L251.5189,103.6102 L237.0449,105.6922 Z" id="Fill-7" fill="#F2B5BC"></path>
                <path d="M231.9726,76.5095 C231.9726,76.5095 227.2976,82.1935 226.1986,88.7005 C226.1986,90.6265 222.0446,91.3595 221.4256,92.9425 C220.8216,94.4885 221.7056,96.3095 223.5386,96.4015 C223.5386,96.4015 224.3646,106.6675 235.9136,108.2265 C235.9136,108.2265 251.4066,109.3255 252.1396,105.2925 C252.8726,101.2595 254.2476,94.2925 254.2476,94.2925 L247.5566,76.5095 L231.9726,76.5095 Z" id="Fill-9" fill="#F2B5BC"></path>
                <path d="M227.3896,67.7097 C227.3896,67.7097 233.1636,70.0017 238.5736,69.0847 C243.9816,68.1677 256.9066,68.9927 260.5736,77.2427 C264.2396,85.4927 262.1306,101.6267 249.4816,102.1767 C248.9316,98.1437 246.0896,97.2267 247.8306,94.2007 C249.5736,91.1767 247.7066,88.1507 244.7896,89.6177 C241.8726,91.0847 238.2976,91.5427 239.0316,89.4347 C239.7646,87.3257 241.1346,80.5427 237.8366,80.0847 C234.5386,79.6267 224.6396,76.5097 227.3896,67.7097" id="Fill-11" fill="#7E5038"></path>
                <polygon id="Fill-13" fill="#F2B5BC" points="169.9238 410.617 169.0068 419.142 181.1978 420.701 182.8488 409.975"></polygon>
                <polygon id="Fill-15" fill="#F2B5BC" points="252.9277 407.9363 252.5157 418.9363 265.2347 421.0673 265.2347 406.7673"></polygon>
                <path d="M184.1787,214.8953 L164.8527,413.2383 L185.7827,413.7343 C185.7827,413.7343 199.9107,345.4573 206.4977,322.0673 C212.1417,302.0323 233.8157,243.4173 233.8157,243.4173 C233.8157,243.4173 232.8557,312.2293 234.5487,335.0833 C236.0057,354.7483 245.5487,409.8833 245.5487,409.8833 L268.0257,409.8833 C268.0257,409.8833 266.4107,352.1953 267.3937,331.8973 C268.8137,302.5613 279.6477,215.0573 279.6477,215.0573 L184.1787,214.8953 Z" id="Fill-17" fill="#2F2F3D"></path>
                <path d="M168.0215,418.6609 C168.0215,418.6609 180.4475,420.1279 182.5045,420.3339 C184.1095,420.4939 183.4215,424.6419 183.4215,424.6419 L182.1155,438.4839 L144.8065,438.4839 C144.8065,438.4839 144.6515,433.8999 146.9155,432.7089 C146.9155,432.7089 154.4525,428.0789 156.1025,427.0169 C159.5405,424.8059 165.7055,418.2059 168.0215,418.6609" id="Fill-19" fill="#263166"></path>
                <g id="编组" transform="translate(144.000000, 438.022000)">
                    <mask id="mask-2" fill="white">
                        <use xlink:href="#path-1"></use>
                    </mask>
                    <g id="Clip-22"></g>
                    <polygon id="Fill-21" fill="#0E183A" mask="url(#mask-2)" points="0.5019 0.3616 0.5019 5.0006 38.5969 4.7986 38.5969 0.5626"></polygon>
                </g>
                <path d="M150.2783,430.6385 C150.2783,430.6385 154.4093,431.5855 155.1653,433.1675" id="Stroke-23" stroke="#F2F2F2" stroke-width="0.941" stroke-linecap="round"></path>
                <path d="M155.9414,427.2967 C155.9414,427.2967 160.0714,428.2447 160.8274,429.8257" id="Stroke-25" stroke="#F2F2F2" stroke-width="0.941" stroke-linecap="round"></path>
                <path d="M161.5459,424.45 C161.5459,424.45 165.6759,425.397 166.4329,426.978" id="Stroke-27" stroke="#F2F2F2" stroke-width="0.941" stroke-linecap="round"></path>
                <path d="M251.209,418.6609 C251.209,418.6609 263.635,420.1279 265.692,420.3339 C267.297,420.4939 266.609,424.6419 266.609,424.6419 L265.303,438.4839 L227.994,438.4839 C227.994,438.4839 227.839,433.8999 230.103,432.7089 C230.103,432.7089 237.64,428.0789 239.29,427.0169 C242.728,424.8059 248.893,418.2059 251.209,418.6609" id="Fill-29" fill="#263166"></path>
                <g id="编组" transform="translate(227.000000, 438.022000)">
                    <mask id="mask-4" fill="white">
                        <use xlink:href="#path-3"></use>
                    </mask>
                    <g id="Clip-32"></g>
                    <polygon id="Fill-31" fill="#0E183A" mask="url(#mask-4)" points="0.6894 0.3616 0.6894 5.0006 38.7844 4.7986 38.7844 0.5626"></polygon>
                </g>
                <path d="M233.4658,430.6385 C233.4658,430.6385 237.5968,431.5855 238.3528,433.1675" id="Stroke-33" stroke="#F2F2F2" stroke-width="0.941" stroke-linecap="round"></path>
                <path d="M239.1289,427.2967 C239.1289,427.2967 243.2589,428.2447 244.0149,429.8257" id="Stroke-35" stroke="#F2F2F2" stroke-width="0.941" stroke-linecap="round"></path>
                <path d="M244.7334,424.45 C244.7334,424.45 248.8634,425.397 249.6204,426.978" id="Stroke-37" stroke="#F2F2F2" stroke-width="0.941" stroke-linecap="round"></path>
                <path d="M285.8789,153.8592 C285.8789,153.8592 298.2539,181.7342 294.0039,186.4842 C289.7539,191.2342 280.0039,196.6092 257.7539,201.9842 C235.5039,207.3592 220.5039,209.9842 220.5039,209.9842 L218.2539,191.9842 L271.3789,175.2342 C271.3789,175.2342 271.2539,170.2342 269.2539,163.1092 C267.2539,155.9842 285.8789,153.8592 285.8789,153.8592" id="Fill-39" fill="#F2B5BC"></path>
                <line x1="193.3789" y1="128.8592" x2="200.6289" y2="143.3592" id="Stroke-41" stroke="#FFFFFF" stroke-width="0.841"></line>
                <line x1="267.4414" y1="159.7967" x2="284.0664" y2="153.1717" id="Stroke-43" stroke="#FFFFFF" stroke-width="0.841"></line>
                <path d="M197.7949,185.4422 L205.1289,256.4422 C205.1289,256.4422 152.9619,257.2762 113.4619,303.2762 L105.4619,266.4422 C105.4619,266.4422 89.9619,264.9422 84.6289,255.2762 C79.2949,245.6092 79.4613201,142.6092 79.4613201,142.6092 C79.4613201,142.6092 84.4619,96.1092 125.1289,77.9422 L139.9619,176.6092 C139.9619,176.6092 121.7949,183.2762 113.1289,197.2762 L113.4619,208.6092 C113.4619,208.6092 147.9619,172.9422 197.7949,185.4422" id="Fill-45" fill="#F7F5F5"></path>
                <path d="M79.4609,143.7762 C79.4609,143.7762 89.6289,165.6092 110.6289,167.9422 L113.1289,197.2762" id="Stroke-47" stroke="#E3EAF0" stroke-width="2"></path>
                <path d="M109.1289,170.5262 C109.1289,170.5262 95.6289,192.7762 99.1289,222.7762 C99.1289,222.7762 109.8639,212.2652 112.1289,209.9842" id="Stroke-49" stroke="#E3EAF0" stroke-width="2"></path>
                <line x1="98.5488" y1="223.9422" x2="105.3388" y2="264.1092" id="Stroke-51" stroke="#E3EAF0" stroke-width="2"></line>
                <path d="M119.7949,247.7762 C119.7949,247.7762 136.9479,228.7762 162.2879,225.9422" id="Stroke-53" stroke="#E3EAF0" stroke-width="2"></path>
                <path d="M83.1289,183.4422 C83.1289,183.4422 85.7949,199.1092 94.9619,207.4422" id="Stroke-55" stroke="#E3EAF0" stroke-width="2"></path>
                <path d="M94.9619,157.6092 C94.9619,157.6092 104.4619,135.7762 112.1289,128.9422" id="Stroke-57" stroke="#E3EAF0" stroke-width="2"></path>
                <path d="M116.3974,168.6775 C116.3974,168.6775 115.6284,170.1365 133.7944,169.4695" id="Stroke-59" stroke="#E3EAF0" stroke-width="2"></path>
                <line x1="168.6289" y1="216.7908" x2="181.6289" y2="226.9418" id="Stroke-61" stroke="#E3EAF0" stroke-width="2"></line>
                <line x1="180.2041" y1="215.367" x2="170.0531" y2="228.367" id="Stroke-63" stroke="#E3EAF0" stroke-width="2"></line>
                <path d="M219.1289,192.6092 C219.1289,192.6092 203.0449,191.6092 197.8789,193.2762 C192.7119,194.9422 179.1289,201.3592 179.8789,203.1092 C180.6289,204.8592 181.7949,205.4422 183.2119,204.9422 C183.2119,204.9422 179.1289,206.3592 180.4619,208.1092 C181.7949,209.8592 187.6289,208.1092 187.6289,208.1092 C187.6289,208.1092 182.3789,209.4882 183.7949,212.1922 C185.2109,214.8962 195.7949,209.9842 195.7949,209.9842 C195.7949,209.9842 187.8789,213.3592 189.2119,215.9422 C190.5449,218.5262 197.2949,214.4422 199.9619,213.8592 C202.6289,213.2762 219.7119,209.9842 219.7119,209.9842 L219.1289,192.6092 Z" id="Fill-65" fill="#F2B5BC"></path>
                <path d="M190.9619,128.4422 C190.9619,128.4422 183.0449,133.4422 181.2119,133.3592 C179.3789,133.2762 147.5449,112.3592 144.8789,111.0262 C142.2119,109.6922 139.5449,106.1922 135.7949,104.5262 C133.5039,103.5072 125.2119,102.1762 124.0449,104.9422 C123.3999,106.4722 126.0449,109.5882 129.5449,109.5152 C123.9819,114.9422 128.2119,119.5262 133.3789,123.4422 C138.5449,127.3592 173.7119,155.6092 177.7949,155.9422 C181.8789,156.2762 200.6289,146.0262 200.6289,146.0262 L190.9619,128.4422 Z" id="Fill-67" fill="#F2B5BC"></path>
            </g>
        </g>
    </g>
</svg>