<?xml version="1.0" encoding="UTF-8"?>
<svg width="351px" height="354px" viewBox="0 0 351 354" version="1.1" xmlns="http://www.w3.org/2000/svg" xmlns:xlink="http://www.w3.org/1999/xlink">
    <title>缺省状态-暂无历史版本</title>
    <defs>
        <polygon id="path-1" points="0 0 336.854873 0 336.854873 319.462478 0 319.462478"></polygon>
    </defs>
    <g id="空状态插画-暗色" stroke="none" stroke-width="1" fill="none" fill-rule="evenodd">
        <g id="缺省状态-暂无历史版本" transform="translate(-225.000000, -136.000000)">
            <g transform="translate(226.000000, 136.000000)" id="编组">
                <g transform="translate(12.145127, 0.000000)">
                    <mask id="mask-2" fill="white">
                        <use xlink:href="#path-1"></use>
                    </mask>
                    <g id="Clip-2"></g>
                    <path d="M114.922465,12.0650392 C151.229082,-4.93329704 226.087392,-8.61375285 274.028756,32.1741037 C325.998147,76.3891149 337.850367,148.363361 336.79179,191.053772 C336.148969,216.987162 334.553109,246.057649 268.964539,269.493986 C201.360356,293.651072 199.938793,312.90994 149.835502,319.03551 C101.711846,324.919765 4.58744966,269.493986 0.190039621,183.063203 C-4.19457796,96.8825258 68.2851334,33.9000664 114.922465,12.0650392" id="Fill-1" fill="#2B2E32" mask="url(#mask-2)"></path>
                </g>
                <path d="M38.0532194,266.830729 C38.0532194,266.830729 -3.49431025,246.854308 0.237092049,180.53259 C3.96849435,114.210872 65.5034519,40.4315571 65.5034519,40.4315571" id="Stroke-3" stroke="#2B2E32" stroke-width="1.6"></path>
                <path d="M152.679388,102.632379 C152.679388,102.632379 146.349516,106.627663 144.883979,106.561341 C143.418442,106.49502 117.966233,89.7811478 115.834688,88.716005 C113.702344,87.6500632 111.57,84.8533643 108.571766,83.5221356 C106.740045,82.7078966 100.110349,81.644352 99.1772989,83.8545432 C98.6616026,85.0771002 100.776357,87.5669613 103.574709,87.5086302 C99.1269286,91.8451116 102.508937,95.5079882 106.640104,98.6370948 C110.770471,101.767 138.887511,124.340356 142.151988,124.606442 C145.417265,124.873327 160.408435,116.682995 160.408435,116.682995 L152.679388,102.632379 Z" id="Fill-6" fill="#F2B5BC"></path>
                <path d="M219.173824,98.370929 C212.684846,91.4167373 203.782889,92.9772953 203.782889,92.9772953 C199.275943,94.3500749 200.189006,95.0788148 194.088599,94.9749374 C188.317598,94.9749374 185.635977,87.5085502 181.93016,87.5085502 C181.93016,87.5085502 172.101548,89.2816574 164.006316,93.7763521 C156.039808,98.1991317 151.318589,102.272724 151.318589,102.272724 L160.008671,117.847939 L163.673712,116.091613 L151.462504,174.664077 C151.462504,174.664077 156.523524,175.859466 179.497193,177.377674 C188.05935,177.943406 221.672353,173.38239 221.672353,173.38239 L210.179122,122.242752 L213.325269,131.135456 L230.067408,123.740984 C230.067408,123.740984 227.468939,107.260436 219.173824,98.370929" id="Fill-7" fill="#E8B143"></path>
                <path d="M189.524487,84.4538358 C189.524487,84.4538358 188.648203,94.7560757 187.025958,95.4424655 C185.404513,96.1288554 201.619763,95.5799033 201.619763,95.5799033 L201.096071,82.7901995 L189.524487,84.4538358 Z" id="Fill-8" fill="#F2B5BC"></path>
                <path d="M185.469115,61.1351997 C185.469115,61.1351997 181.731317,65.6770388 180.851835,70.8765017 C180.851835,72.4146861 177.53139,73.0011938 177.036482,74.2661008 C176.553566,75.5014427 177.26035,76.9565252 178.725887,77.0300384 C178.725887,77.0300384 179.386298,85.233156 188.62006,86.4788856 C188.62006,86.4788856 201.006364,87.3570491 201.593219,84.1344528 C202.179273,80.9118566 203.278626,75.3448276 203.278626,75.3448276 L197.928177,61.1351997 L185.469115,61.1351997 Z" id="Fill-9" fill="#F2B5BC"></path>
                <path d="M181.804474,54.1036593 C181.804474,54.1036593 186.421754,55.9342986 190.746407,55.2023625 C195.070261,54.4696274 205.404174,55.1288493 208.336047,61.7210682 C211.267121,68.3132872 209.581714,81.2044712 199.467671,81.6447515 C199.02793,78.4213562 196.755668,77.6894201 198.148448,75.2714741 C199.541227,72.8551263 198.048506,70.4371803 195.71628,71.6093966 C193.384054,72.781613 190.525737,73.1475811 191.112591,71.4631692 C191.698646,69.7779584 192.794001,64.3579558 190.157954,63.9919878 C187.521107,63.6252207 179.605769,61.1353596 181.804474,54.1036593" id="Fill-10" fill="#7E5038"></path>
                <polygon id="Fill-11" fill="#F2B5BC" points="135.858894 328.106084 135.125726 334.918043 144.873585 336.163773 146.192808 327.593089"></polygon>
                <polygon id="Fill-12" fill="#F2B5BC" points="202.222928 325.964052 201.892722 334.753677 212.061933 336.456467 212.061933 325.029954"></polygon>
                <path d="M151.740501,172.460838 L131.804243,330.200252 L148.537587,330.596584 C148.537587,330.596584 159.834933,276.03938 165.101431,257.34944 C169.613174,241.340337 185.687707,197.909999 185.687707,197.909999 C185.687707,197.909999 186.17382,249.488319 187.528223,267.750763 C188.693136,283.463417 196.323043,327.520215 196.323043,327.520215 L214.294058,327.520215 C214.294058,327.520215 213.003618,281.423425 213.788756,265.20337 C214.924087,241.763038 221.799238,171.839971 221.799238,171.839971 L151.740501,172.460838 Z" id="Fill-13" fill="#1B1F22"></path>
                <path d="M134.33787,334.533617 C134.33787,334.533617 144.272019,335.705833 145.91745,335.870439 C147.199895,335.998288 146.650618,339.312776 146.650618,339.312776 L145.991007,350.454025 L115.777602,350.373321 C115.777602,350.373321 115.652875,346.710444 117.463009,345.758767 C117.463009,345.758767 123.48906,342.059134 124.809082,341.209737 C127.557064,339.443821 132.486161,334.170046 134.33787,334.533617" id="Fill-14" fill="#3B4575"></path>
                <polygon id="Fill-15" fill="#252E4D" points="115.533346 350.293175 115.533346 354 145.991407 353.838591 145.991407 350.453786"></polygon>
                <path d="M120.152065,344.10432 C120.152065,344.10432 123.454121,344.861027 124.059364,346.124336" id="Stroke-16" stroke="#F2F2F2" stroke-width="0.7528" stroke-linecap="round"></path>
                <path d="M124.679479,341.434032 C124.679479,341.434032 127.981534,342.191538 128.585978,343.454847" id="Stroke-17" stroke="#F2F2F2" stroke-width="0.7528" stroke-linecap="round"></path>
                <path d="M129.16044,339.159437 C129.16044,339.159437 132.462495,339.916144 133.066939,341.179453" id="Stroke-18" stroke="#F2F2F2" stroke-width="0.7528" stroke-linecap="round"></path>
                <path d="M200.848697,334.533617 C200.848697,334.533617 210.782846,335.705833 212.428277,335.870439 C213.710722,335.998288 213.161445,339.312776 213.161445,339.312776 L212.501834,350.544319 L182.288429,350.373321 C182.288429,350.373321 182.163702,346.710444 183.973836,345.758767 C183.973836,345.758767 189.999887,342.059134 191.319909,341.209737 C194.067891,339.443821 198.996988,334.170046 200.848697,334.533617" id="Fill-19" fill="#3B4575"></path>
                <polygon id="Fill-20" fill="#252E4D" points="182.044173 350.293175 182.044173 354 212.502234 353.838591 212.502234 350.453786"></polygon>
                <path d="M186.662892,344.10432 C186.662892,344.10432 189.964947,344.861027 190.570191,346.124336" id="Stroke-21" stroke="#F2F2F2" stroke-width="0.7528" stroke-linecap="round"></path>
                <path d="M191.190306,341.434032 C191.190306,341.434032 194.492361,342.191538 195.096805,343.454847" id="Stroke-22" stroke="#F2F2F2" stroke-width="0.7528" stroke-linecap="round"></path>
                <path d="M195.671267,339.159437 C195.671267,339.159437 198.973322,339.916144 199.577766,341.179453" id="Stroke-23" stroke="#F2F2F2" stroke-width="0.7528" stroke-linecap="round"></path>
                <path d="M228.568291,122.941927 C228.568291,122.941927 238.462464,145.215636 235.064465,149.011156 C231.666466,152.806676 223.871058,157.101607 206.081535,161.396537 C188.292013,165.691468 176.299076,167.788992 176.299076,167.788992 L174.500136,153.405969 L216.975119,140.021767 C216.975119,140.021767 216.875178,136.026483 215.27612,130.333203 C213.677062,124.639923 228.568291,122.941927 228.568291,122.941927" id="Fill-24" fill="#F2B5BC"></path>
                <path d="M175.199724,153.905379 C175.199724,153.905379 162.340897,153.106323 158.20973,154.43835 C154.078564,155.769579 143.21856,160.897127 143.818207,162.295476 C144.417853,163.693826 145.350904,164.159676 146.483037,163.760148 C146.483037,163.760148 143.21856,164.892411 144.284332,166.290761 C145.350904,167.68911 150.014557,166.290761 150.014557,166.290761 C150.014557,166.290761 145.817029,167.39266 146.949962,169.55331 C148.082095,171.713959 156.544311,167.788992 156.544311,167.788992 C156.544311,167.788992 150.214439,170.485809 151.280212,172.549773 C152.346783,174.614536 157.743605,171.351188 159.875149,170.885337 C162.007494,170.419487 175.665849,167.788992 175.665849,167.788992 L175.199724,153.905379 Z" id="Fill-25" fill="#F2B5BC"></path>
                <line x1="154.611849" y1="102.965506" x2="160.408435" y2="114.55183" id="Stroke-26" stroke="#FFFFFF" stroke-width="0.6728"></line>
                <line x1="213.826973" y1="127.686327" x2="227.119145" y2="122.392575" id="Stroke-27" stroke="#FFFFFF" stroke-width="0.6728"></line>
                <path d="M158.14297,148.178619 L164.005917,204.911655 C164.005917,204.911655 122.297682,205.578068 90.7162822,242.334683 L84.3200494,212.902223 C84.3200494,212.902223 71.9273484,211.703638 67.6626602,203.979955 C63.3987715,196.255472 63.5318291,113.952617 63.5318291,113.952617 C63.5318291,113.952617 67.5299384,76.7964741 100.043589,62.2800085 L111.903803,141.12055 C111.903803,141.12055 97.3787582,146.447862 90.4492395,157.634658 L90.7162822,166.690369 C90.7162822,166.690369 118.300036,138.190408 158.14297,148.178619 Z" id="Stroke-28" stroke="#FFFFFF" stroke-width="0.8"></path>
                <path d="M63.5315733,114.885037 C63.5315733,114.885037 71.6603856,132.330845 88.4504967,134.195044 L90.4493195,157.634578" id="Stroke-29" stroke="#FFFFFF" stroke-width="0.8"></path>
                <path d="M87.2515229,136.259807 C87.2515229,136.259807 76.45788,154.038822 79.2562319,178.010527 C79.2562319,178.010527 87.8391768,169.611641 89.6501102,167.788992" id="Stroke-30" stroke="#FFFFFF" stroke-width="0.8"></path>
                <line x1="78.7928248" y1="178.942307" x2="84.2216274" y2="211.038024" id="Stroke-31" stroke="#FFFFFF" stroke-width="0.8"></line>
                <path d="M95.7797,197.986948 C95.7797,197.986948 96.9989819,196.637341 99.2480572,194.68125" id="Stroke-32" stroke="#FFFFFF" stroke-width="0.8"></path>
                <path d="M107.082483,188.85245 C110.75552,186.525597 115.215293,184.223514 120.297899,182.588644" id="Stroke-33" stroke="#FFFFFF" stroke-width="0.8" stroke-dasharray="9.781600189208985,9.781600189208985"></path>
                <path d="M125.021118,181.317584 C126.554614,180.985176 128.133684,180.721487 129.75433,180.540101" id="Stroke-34" stroke="#FFFFFF" stroke-width="0.8"></path>
                <path d="M66.4637663,146.580505 C66.4637663,146.580505 68.5961104,159.099329 75.9245941,165.75787" id="Stroke-35" stroke="#FFFFFF" stroke-width="0.8" stroke-dasharray="9.600000000000001"></path>
                <path d="M75.9245941,125.93839 C75.9245941,125.93839 83.5201206,108.492582 89.6501102,103.031828" id="Stroke-36" stroke="#FFFFFF" stroke-width="0.8" stroke-dasharray="9.600000000000001"></path>
                <path d="M93.0629801,134.782671 C93.0629801,134.782671 92.4481422,135.948495 106.973187,135.415524" id="Stroke-37" stroke="#FFFFFF" stroke-width="0.8" stroke-dasharray="9.600000000000001"></path>
                <line x1="134.823504" y1="173.227932" x2="145.217383" y2="181.339158" id="Stroke-38" stroke="#FFFFFF" stroke-width="0.8"></line>
                <line x1="144.078613" y1="172.090235" x2="135.962593" y2="182.477974" id="Stroke-39" stroke="#FFFFFF" stroke-width="0.8"></line>
            </g>
        </g>
    </g>
</svg>