<svg id="图层_1" data-name="图层 1" xmlns="http://www.w3.org/2000/svg" viewBox="0 0 800 800"><defs><style>.cls-1{fill:#e3eaf0;}.cls-10,.cls-12,.cls-13,.cls-14,.cls-2,.cls-9{fill:none;stroke-miterlimit:10;}.cls-12,.cls-13,.cls-14,.cls-2{stroke:#e3eaf0;}.cls-2{stroke-width:2px;}.cls-3{fill:#f2b5bc;}.cls-4{fill:#f9c152;}.cls-5{fill:#7e5038;}.cls-6{fill:#2f2f3d;}.cls-7{fill:#263166;}.cls-8{fill:#0e183a;}.cls-9{stroke:#f2f2f2;stroke-linecap:round;stroke-width:0.94px;}.cls-10{stroke:#fff;stroke-width:0.84px;}.cls-11{fill:#fff;}.cls-13{stroke-dasharray:12.23 12.23;}.cls-14{stroke-dasharray:12;}</style></defs><path class="cls-1" d="M356.68,190.32c45.41-21.28,139-25.88,199,25.16,65,55.34,79.82,145.41,78.5,198.84-.81,32.45-2.8,68.83-84.84,98.16-84.55,30.24-86.33,54.34-149,62-60.19,7.37-181.66-62-187.16-170.16C207.69,296.47,298.34,217.64,356.68,190.32Z"/><path class="cls-2" d="M245.34,509.15s-52-25-47.3-108,81.64-175.33,81.64-175.33"/><path class="cls-3" d="M388.71,303.66s-7.92,5-9.75,4.92-33.67-21-36.33-22.34-5.34-4.83-9.09-6.5c-2.29-1-10.58-2.34-11.75.42-.64,1.53,2,4.65,5.5,4.57-5.56,5.43-1.33,10,3.84,13.93s40.33,32.17,44.41,32.5,22.84-9.92,22.84-9.92Z"/><path class="cls-4" d="M471.88,298.33c-8.12-8.7-19.25-6.75-19.25-6.75-5.64,1.72-4.5,2.63-12.13,2.5-7.22,0-10.57-9.35-15.2-9.35,0,0-12.3,2.22-22.42,7.85A102.4,102.4,0,0,0,387,303.21l10.87,19.49,4.58-2.2-15.27,73.31s6.33,1.49,35.06,3.39c10.71.71,52.75-5,52.75-5l-14.37-64,3.93,11.13,20.94-9.25S482.25,309.45,471.88,298.33Z"/><path class="cls-3" d="M434.79,280.91s-1.09,12.89-3.12,13.75,18.25.17,18.25.17l-.65-16Z"/><path class="cls-3" d="M429.72,251.73s-4.67,5.68-5.77,12.19c0,1.93-4.16,2.66-4.78,4.24a2.46,2.46,0,0,0,2.12,3.46s.82,10.27,12.37,11.83c0,0,15.49,1.1,16.23-2.94s2.11-11,2.11-11l-6.7-17.78Z"/><path class="cls-5" d="M425.14,242.93s5.77,2.29,11.18,1.37,18.33-.09,22,8.16,1.56,24.39-11.09,24.94c-.55-4-3.39-4.95-1.65-8s-.12-6.05-3-4.58-6.49,1.92-5.76-.19,2.1-8.89-1.19-9.35S422.39,251.73,425.14,242.93Z"/><polygon class="cls-3" points="367.67 585.84 366.75 594.36 378.95 595.92 380.6 585.19 367.67 585.84"/><polygon class="cls-3" points="450.68 583.15 450.26 594.15 462.98 596.29 462.98 581.99 450.68 583.15"/><path class="cls-6" d="M387.54,391.05,362.6,588.46l20.93.49s14.13-68.27,20.72-91.66c5.64-20,25.74-74.39,25.74-74.39s.61,64.55,2.31,87.4c1.45,19.67,11,74.8,11,74.8h22.47s-1.61-57.69-.63-78c1.42-29.34,10-116.85,10-116.85Z"/><path class="cls-7" d="M365.77,593.88s12.42,1.47,14.48,1.67c1.61.16.92,4.31.92,4.31l-.83,13.94-37.78-.1s-.16-4.58,2.1-5.77c0,0,7.54-4.63,9.19-5.69C357.29,600,363.45,593.43,365.77,593.88Z"/><polygon class="cls-8" points="342.25 613.6 342.25 618.24 380.35 618.04 380.35 613.8 342.25 613.6"/><path class="cls-9" d="M348,605.86s4.13.94,4.88,2.53"/><path class="cls-9" d="M353.69,602.52s4.13.94,4.89,2.52"/><path class="cls-9" d="M359.29,599.67s4.13,1,4.89,2.53"/><path class="cls-7" d="M449,593.88s12.42,1.47,14.48,1.67c1.6.16.92,4.31.92,4.31l-.83,14.06-37.79-.22s-.15-4.58,2.11-5.77c0,0,7.54-4.63,9.19-5.69C440.48,600,446.64,593.43,449,593.88Z"/><polygon class="cls-8" points="425.44 613.6 425.44 618.24 463.53 618.04 463.53 613.8 425.44 613.6"/><path class="cls-9" d="M431.21,605.86s4.13.94,4.89,2.53"/><path class="cls-9" d="M436.88,602.52s4.13.94,4.88,2.52"/><path class="cls-9" d="M442.48,599.67s4.13,1,4.89,2.53"/><path class="cls-3" d="M483.63,329.08S496,357,491.75,361.7s-14,10.13-36.25,15.5-37.25,8-37.25,8l-2.25-18,53.13-16.75A54.89,54.89,0,0,0,467,338.33C465,331.2,483.63,329.08,483.63,329.08Z"/><path class="cls-3" d="M416.88,367.83s-16.09-1-21.25.66-18.75,8.09-18,9.84,1.91,2.33,3.33,1.83c0,0-4.08,1.42-2.75,3.17s7.17,0,7.17,0-5.25,1.38-3.84,4.08,12-2.21,12-2.21-7.91,3.38-6.58,6,8.08-1.5,10.75-2.08,19.75-3.88,19.75-3.88Z"/><line class="cls-10" x1="391.13" y1="304.08" x2="398.38" y2="318.58"/><line class="cls-10" x1="465.19" y1="335.02" x2="481.81" y2="328.39"/><path class="cls-11" d="M395.54,360.66l7.34,71s-52.17.83-91.67,46.83l-8-36.83s-15.5-1.5-20.83-11.17-5.17-112.66-5.17-112.66,5-46.5,45.67-64.67l14.83,98.67s-18.17,6.66-26.83,20.66l.33,11.34S345.71,348.16,395.54,360.66Z"/><path class="cls-12" d="M277.21,319s10.17,21.84,31.17,24.17l2.5,29.33"/><path class="cls-12" d="M306.88,345.74s-13.5,22.25-10,52.25c0,0,10.73-10.51,13-12.79"/><line class="cls-12" x1="296.3" y1="399.16" x2="303.09" y2="439.33"/><path class="cls-12" d="M317.54,423a57.74,57.74,0,0,1,4.34-4.13"/><path class="cls-13" d="M331.68,411.56a72.76,72.76,0,0,1,16.53-7.84"/><path class="cls-12" d="M354.12,402.13c1.91-.41,3.89-.74,5.92-1"/><path class="cls-14" d="M280.88,358.66s2.66,15.67,11.83,24"/><path class="cls-14" d="M292.71,332.83s9.5-21.84,17.17-28.67"/><path class="cls-14" d="M314.15,343.9s-.77,1.46,17.39.79"/><line class="cls-12" x1="366.38" y1="392.01" x2="379.38" y2="402.16"/><line class="cls-12" x1="377.95" y1="390.59" x2="367.8" y2="403.59"/></svg>