<?xml version="1.0" encoding="UTF-8"?>
<svg width="474px" height="349px" viewBox="0 0 474 349" version="1.1" xmlns="http://www.w3.org/2000/svg" xmlns:xlink="http://www.w3.org/1999/xlink">
    <title>缺省状态-搜索为空</title>
    <defs>
        <polygon id="path-1" points="0 0 70.4966322 0 70.4966322 27.2933592 0 27.2933592"></polygon>
    </defs>
    <g id="空状态插画-暗色" stroke="none" stroke-width="1" fill="none" fill-rule="evenodd">
        <g id="缺省状态-搜索为空" transform="translate(-194.000000, -187.000000)">
            <g transform="translate(195.000000, 188.000000)">
                <g id="编组" transform="translate(19.428995, 17.803889)">
                    <path d="M24.4727471,75.059993 C37.467039,47.4369103 58.0064036,-5.68800437 171.844343,0.496399731 C232.293171,4.47208808 271.562848,41.5661439 293.624464,53.0576502 C315.68608,64.5491565 405.256242,92.084774 399.961454,166.445165 C394.666666,240.804673 299.801717,325.177615 154.636282,329.153303 C9.47084813,333.128992 -32.4294557,196.023403 24.4727471,75.059993" id="Fill-1" fill="#2B2E32"></path>
                    <path d="M383.057138,267.478008 C380.263254,258.407254 377.524967,250.497402 374.957877,244.486161 C370.614386,234.312816 353.337493,199.280817 353.337493,199.280817 L254.18906,266.745598 C271.931895,265.83119 291.631153,265.321418 312.377014,265.321418 C338.12998,265.321418 362.2698,266.106837 383.057138,267.478008" id="Fill-3" fill="#1B1F22"></path>
                    <path d="M179.834707,119.039764 L186.735581,109.754323 L198.856233,102.97975 C198.856233,102.97975 209.569354,119.288907 209.459045,119.288907 C209.348737,119.288907 183.390157,126.246362 183.390157,126.246362 L179.834707,119.039764 Z" id="Fill-5" fill="#F2B5BC"></path>
                    <path d="M207.168255,114.887202 L193.671841,128.399241 C193.237669,128.833917 192.529049,128.833917 192.095759,128.399241 L163.150919,99.4208908 C162.716746,98.9870991 162.716746,98.2767761 163.150919,97.8429843 L176.647333,84.3309448 C177.080623,83.8971531 177.790125,83.8971531 178.223415,84.3309448 L207.168255,113.309295 C207.601546,113.743971 207.601546,114.45341 207.168255,114.887202" id="Fill-7" fill="#F2B5BC"></path>
                    <path d="M192.582262,174.642946 C192.582262,174.642946 154.644225,217.05824 145.713682,229.618765 C136.398385,242.7191 122.822549,261.280263 113.877005,270.732683 C111.89146,272.830963 111.851749,274.712789 106.817288,278.73972 C97.697016,286.036433 92.3457504,291.50698 89.8024873,289.120684 C88.037558,287.464147 92.8478728,285.846484 93.7735782,283.12888 C94.0039015,282.452129 92.8364007,281.058871 91.1261842,282.052793 C89.4909773,283.002541 77.5582903,287.546311 73.7151568,288.343216 C70.1958878,289.072976 68.2659376,288.083471 69.4934459,286.34742 C70.7624301,284.55306 81.5302637,281.437887 82.4392023,281.127783 C83.046338,280.920164 83.2528347,280.092337 81.7773538,280.671904 C76.0536881,282.92126 67.5043706,286.886347 66.720742,284.924124 C65.286737,281.334519 80.2886359,278.518848 80.2886359,278.518848 C80.2886359,278.518848 82.1250449,278.581576 81.8920742,278.095658 C81.2275783,276.711235 67.7126323,283.32148 67.2387488,280.390956 C66.7763373,277.524926 80.2886359,275.978825 80.2886359,275.978825 C80.2886359,275.978825 81.5020248,276.199697 81.097856,275.481422 C80.5948512,274.589985 69.9196763,279.125803 70.1402925,275.868389 C70.2258916,274.599703 74.7838215,274.298434 78.7999181,272.941399 C83.2113588,271.450958 89.4327346,269.037273 93.6359137,266.425688 C98.433874,263.443921 99.7460989,261.101799 99.7460989,261.101799 C99.7460989,261.101799 160.498495,162.084189 161.916616,157.207344 C163.334736,152.3305 192.582262,174.642946 192.582262,174.642946" id="Fill-9" fill="#F2B5BC"></path>
                    <path d="M171.334102,116.467406 L171.223794,116.528366 C162.544754,121.278872 151.559834,118.056797 146.814822,109.366826 L139.73216,96.3981308 C134.986266,87.7090431 138.204614,76.7114056 146.884536,71.9608998 L146.994844,71.9008227 C155.674767,67.1494334 166.658804,70.3715079 171.404699,79.0614791 L178.486478,92.0301745 C183.232373,100.719262 180.014024,111.7169 171.334102,116.467406" id="Fill-11" fill="#F2B5BC"></path>
                    <path d="M165.446474,53.1191408 C168.645409,53.8374152 175.382144,57.8917338 176.863802,68.745363 C178.344577,79.5998757 173.223635,87.9064139 171.182494,87.9064139 C167.98356,87.9064139 164.840221,76.0897846 152.70545,69.1871062 C146.980019,65.9305757 160.560267,52.0218508 165.446474,53.1191408" id="Fill-13" fill="#603624"></path>
                    <path d="M158.210882,99.9123743 L158.209999,99.9123743 C157.821715,100.137663 157.319593,100.003373 157.094564,99.6137559 L155.904119,97.5481649 C155.679091,97.1585475 155.814108,96.6558438 156.202392,96.4314382 L156.203275,96.4314382 C156.592442,96.2061492 157.093682,96.3413226 157.31871,96.7300566 L158.509155,98.7956476 C158.734183,99.185265 158.599166,99.6879687 158.210882,99.9123743" id="Fill-15" fill="#263166"></path>
                    <path d="M145.249682,104.771549 L145.2488,104.771549 C144.860515,104.996838 144.358393,104.862548 144.133365,104.472931 L142.94292,102.40734 C142.717891,102.017722 142.852908,101.515018 143.241193,101.290613 L143.242075,101.290613 C143.631242,101.065324 144.132482,101.200497 144.357511,101.589231 L145.547955,103.654822 C145.772984,104.04444 145.637967,104.547143 145.249682,104.771549" id="Fill-17" fill="#263166"></path>
                    <path d="M167.873252,109.949132 C166.739285,108.996734 164.962001,109.689387 164.095421,110.435049 C163.111473,111.282313 162.572287,112.879656 162.716129,113.693347" id="Stroke-19" stroke="#263166" stroke-width="0.774" stroke-linecap="round"></path>
                    <path d="M137.260112,105.327615 C137.260112,108.557641 139.875737,111.176295 143.102911,111.176295 C146.329201,111.176295 148.944827,108.557641 148.944827,105.327615 C148.944827,102.097589 146.329201,99.4780524 143.102911,99.4780524 C139.875737,99.4780524 137.260112,102.097589 137.260112,105.327615 Z" id="Stroke-21" stroke="#2E64FF" stroke-width="0.566"></path>
                    <path d="M151.364456,96.959498 C151.364456,100.189524 153.980082,102.808177 157.207255,102.808177 C160.433546,102.808177 163.049171,100.189524 163.049171,96.959498 C163.049171,93.7294721 160.433546,91.1099352 157.207255,91.1099352 C153.980082,91.1099352 151.364456,93.7294721 151.364456,96.959498 Z" id="Stroke-23" stroke="#2E64FF" stroke-width="0.566"></path>
                    <path d="M148.094925,102.288069 C148.599695,101.648425 149.297724,101.068858 150.144008,100.633299 C150.83586,100.278138 151.549774,100.059916 152.231037,99.9715679" id="Stroke-25" stroke="#2E64FF" stroke-width="0.774"></path>
                    <path d="M179.834707,118.469474 C179.834707,118.469474 166.167095,133.927834 161.033798,146.603212 C156.069934,158.861584 146.625798,177.269021 146.625798,177.269021 L184.088187,201.931541 L190.596364,194.201036 C190.596364,194.201036 197.363103,200.077103 199.641626,205.575922 C206.901663,223.091038 236.374217,273.825239 236.374217,273.825239 C236.374217,273.825239 274.632589,272.651086 310.501247,248.977187 C340.284429,229.319616 359.073866,203.698514 359.073866,203.698514 C359.073866,203.698514 334.415157,144.307914 249.997706,107.563719 C244.095783,104.995424 226.088209,101.379315 214.809429,101.130172 C202.344615,100.853641 198.648854,102.539332 198.648854,102.539332 C198.648854,102.539332 201.446266,116.527571 193.464374,121.865595 C187.746885,125.68844 182.966574,122.826828 179.834707,118.469474" id="Fill-27" fill="#E8B143"></path>
                    <path d="M125.128871,90.7777444 C121.013056,83.89892 123.26334,71.3145412 134.781269,61.5034258 C145.811195,52.1066655 156.460778,58.8317632 158.110987,61.1809533 C160.59336,64.7148985 161.694676,73.1407074 153.16036,81.9755704 C150.760939,84.4590503 140.170481,93.0050133 132.188588,93.4282033 C129.406177,93.5757455 126.746428,93.4820959 125.128871,90.7777444" id="Fill-29" fill="#7E5038"></path>
                    <path d="M176.554763,123.590072 C180.079326,126.470237 189.996464,132.766844 200.009791,122.638557 C206.931843,115.636928 206.239991,107.04149 204.916294,101.8996" id="Stroke-31" stroke="#FFFFFF" stroke-width="0.968" stroke-linecap="round" stroke-linejoin="round"></path>
                    <path d="M152.561078,112.406284 C152.561078,113.763319 151.46241,114.864143 150.106944,114.864143 C148.751479,114.864143 147.65281,113.763319 147.65281,112.406284 C147.65281,111.049249 148.751479,109.949309 150.106944,109.949309 C151.46241,109.949309 152.561078,111.049249 152.561078,112.406284" id="Fill-33" fill="#F58B8D"></path>
                    <path d="M185.455301,76.1851128 C187.113452,80.9700746 185.34764,85.9281997 181.512449,87.2604971 C177.676375,88.5927944 173.222576,85.7939098 171.564425,81.0098315 C169.907157,76.2248697 171.672086,71.2667446 175.50816,69.9344472 C179.344233,68.6021499 183.798033,71.400151 185.455301,76.1851128" id="Fill-36" fill="#F2B5BC"></path>
                    <line x1="161.268092" y1="92.7569304" x2="170.18981" y2="84.4274215" id="Stroke-37" stroke="#2E64FF" stroke-width="0.566"></line>
                </g>
                <text id="？" font-family="STYuanti-SC-Regular, Yuanti SC" font-size="24.9254" font-weight="normal" fill="#4DD9FE">
                    <tspan x="223" y="55">？</tspan>
                </text>
                <text id="？" font-family="STYuanti-SC-Regular, Yuanti SC" font-size="28.8652" font-weight="normal" fill="#4DD9FE">
                    <tspan x="172" y="47">？</tspan>
                </text>
                <text id="？" font-family="STYuanti-SC-Regular, Yuanti SC" font-size="47.1227" font-weight="normal" fill="#4DD9FE">
                    <tspan x="125" y="69">？</tspan>
                </text>
                <g id="编组">
                    <path d="M277.536184,172.268554 C277.536184,172.268554 288.904801,231.755282 263.099116,241.254848 C237.293431,250.754415 195.686727,232.757375 183.10855,209.589921 L193.814601,199.724511 C193.814601,199.724511 212.426455,209.992879 220.291675,211.228265 C228.72859,212.553786 243.208888,215.225152 249.276974,216.3651 C253.982872,217.248781 250.416835,206.585407 249.203747,201.710141 C248.449427,198.681768 247.035187,177.704074 250.453889,165.553465 C251.582282,161.541555 277.536184,172.268554 277.536184,172.268554" id="Fill-38" fill="#F2B5BC"></path>
                    <path d="M172.007518,175.052943 C172.007518,175.052943 177.815341,172.475247 182.741801,180.575947 C187.667378,188.676647 186.123448,192.65321 191.490149,198.618054 C196.857731,204.582898 196.3425,204.287749 196.3425,204.287749 L185.976113,210.547742 C185.976113,210.547742 173.982866,202.815537 168.252681,196.629773 C162.523377,190.444009 155.612747,183.006069 163.919972,179.250426 C166.934606,182.195734 168.237682,184.601996 170.610923,182.981326 C172.983282,181.360656 173.478222,181.386282 172.22808,179.765612 C170.977937,178.145826 169.434008,176.305119 169.434008,176.305119 L172.007518,175.052943 Z" id="Fill-40" fill="#F2B5BC"></path>
                    <polygon id="Fill-42" fill="#E8B143" points="238.690202 173.653635 284.419641 184.405377 283.096272 161.282107 245.748168 151.855886"></polygon>
                    <path d="M4.93224939,222.54512 C-5.7120443,178.067708 0.904798029,125.187377 24.4669324,75.076501 C37.4571173,47.4473432 57.9922669,-5.68925533 171.801955,0.496508905" id="Stroke-44" stroke="#2B2E32" stroke-width="2"></path>
                    <path d="M273.667713,284.728134 C224.727783,287.252809 190.681923,292.865065 190.681923,299.382209 C190.681923,305.671364 222.392479,311.116604 268.592154,313.758809 L268.406,288.310575 L273.667713,284.728134 Z" id="Fill-46" fill="#141414"></path>
                    <path d="M320.264399,315.406255 C324.082758,315.441602 327.942583,315.461043 331.841226,315.461043 C334.428853,315.461043 336.999717,315.452206 339.552936,315.4363 L320.813156,293.245313 L320.264399,315.406255 Z" id="Fill-48" fill="#141414"></path>
                    <g transform="translate(402.503368, 285.460705)">
                        <mask id="mask-2" fill="white">
                            <use xlink:href="#path-1"></use>
                        </mask>
                        <g id="Clip-51"></g>
                        <path d="M70.4967204,13.9215043 C70.4967204,7.97433378 42.1457566,2.78182655 0,0 C2.55939461,8.31189978 5.164666,17.5993829 7.72847184,27.2933592 C45.573281,24.4099094 70.4967204,19.4975289 70.4967204,13.9215043" id="Fill-50" fill="#141414" mask="url(#mask-2)"></path>
                    </g>
                    <path d="M155.307314,154.043525 C159.407992,159.623085 160.55844,166.517561 157.147678,168.264597 C154.031587,169.861408 148.23788,167.860755 144.137202,162.281196 C140.035642,156.70252 139.211624,150.335602 142.295955,148.060124 C145.381168,145.78553 151.206636,148.46485 155.307314,154.043525 Z" id="Stroke-52" stroke="#F9C152"></path>
                    <path d="M142.296308,148.060566 C142.296308,148.060566 147.340989,142.245947 155.005939,149.371064 C160.497918,154.476087 164.655059,161.265405 158.406113,167.320385" id="Stroke-54" stroke="#F9C152" stroke-width="1.059"></path>
                    <path d="M142.528074,147.824535 C142.528074,147.824535 141.771989,156.329961 147.175744,161.245876 C152.579499,166.160907 158.715517,166.67786 158.715517,166.67786" id="Stroke-56" stroke="#F9C152" stroke-width="1.059"></path>
                    <path d="M157.661939,167.932157 L160.262799,171.216798 C160.262799,171.216798 158.767393,172.221542 159.649639,173.215683 C160.531884,174.209824 165.656849,181.539071 168.294764,183.668741 C168.896455,184.154765 169.728413,184.405731 171.308515,182.981237 C172.724519,181.706086 173.393261,181.279269 172.444847,180.056255 C171.497315,178.834124 166.339707,171.853048 163.662974,169.640311 C163.316252,169.353999 162.894538,169.542223 162.265497,169.861231 C160.648341,167.836719 159.372614,166.280558 159.372614,166.280558 L157.661939,167.932157 Z" id="Fill-58" fill="#F9C152"></path>
                    <line x1="13.791319" y1="302.08203" x2="21.8418105" y2="302.08203" id="Stroke-60" stroke="#F9C152" stroke-width="1.059"></line>
                    <line x1="58.6755661" y1="302.08203" x2="66.7260576" y2="302.08203" id="Stroke-62" stroke="#F9C152" stroke-width="1.059"></line>
                    <line x1="130.063796" y1="304.659285" x2="138.114287" y2="304.659285" id="Stroke-64" stroke="#F9C152" stroke-width="1.059"></line>
                    <line x1="130.063796" y1="315.55816" x2="161.826403" y2="315.55816" id="Stroke-66" stroke="#F9C152" stroke-width="1.059"></line>
                    <line x1="39.3764427" y1="315.55816" x2="67.6974101" y2="315.55816" id="Stroke-68" stroke="#F9C152" stroke-width="1.059"></line>
                    <line x1="244.498467" y1="170.855461" x2="280.030028" y2="178.366746" id="Stroke-70" stroke="#FFFFFF" stroke-width="0.968" stroke-linecap="round" stroke-linejoin="round"></line>
                    <path d="M188.145114,216.475472 C189.426135,216.475472 193.212733,213.973772 195.347768,211.407564 C197.48192,208.841355 200.68006,203.826468 199.932798,202.810235 C199.185536,201.794886 193.585041,199.086405 193.585041,199.086405 C193.585041,199.086405 192.593397,201.961902 188.696518,205.650384 C184.799639,209.338867 184.683182,209.770987 182.814586,209.664062 C184.027674,212.148972 186.8588,216.475472 188.145114,216.475472" id="Fill-72" fill="#7E5038"></path>
                    <path d="M331.840785,283.303818 C311.100955,283.303818 291.405703,283.813701 273.667272,284.728311 L257.915658,288.863936 L258.572931,313.127154 C274.337779,314.028509 301.807379,315.235616 320.263958,315.406167 L320.812715,293.245224 L339.553377,315.436212 C365.621971,315.276266 389.807853,314.310403 410.23184,312.754241 C407.668034,303.060265 405.062762,293.772782 402.503368,285.460882 C381.721189,284.08941 357.58736,283.303818 331.840785,283.303818" id="Fill-74" fill="#1B1F22"></path>
                    <path d="M256.332998,294.052908 C256.332998,294.052908 256.943512,296.850641 261.628236,295.601117 C266.313843,294.352476 297.156268,284.814028 317.835224,274.687932 C326.106277,270.63714 351.62435,254.433089 361.454331,245.696138 C384.447417,225.261024 377.475029,219.396036 377.475029,219.396036 C377.475029,219.396036 349.265225,244.458986 317.010324,262.758244 C301.936275,271.310504 255.281361,290.911424 255.281361,290.911424 L256.332998,294.052908 Z" id="Fill-76" fill="#7E5038"></path>
                    <path d="M278.936661,290.874663 L261.264398,295.92313 C255.82006,297.477524 254.622853,291.615187 254.622853,291.615187 C252.606922,286.56672 255.521861,286.852149 259.664887,285.461235 C266.135276,283.288265 274.617186,279.490206 274.617186,279.490206 C277.90708,278.222124 280.471768,279.363839 281.736908,282.659084 C283.002931,285.953446 282.226555,289.607465 278.936661,290.874663" id="Fill-78" fill="#E3EAF0"></path>
                </g>
            </g>
        </g>
    </g>
</svg>