<svg id="图层_1" data-name="图层 1" xmlns="http://www.w3.org/2000/svg" viewBox="0 0 800 800"><defs><style>.cls-1{fill:#e3eaf0;}.cls-2{fill:#2f2f3d;}.cls-3{fill:#f2b5bc;}.cls-4{fill:#603624;}.cls-5{fill:#263166;}.cls-11,.cls-14,.cls-15,.cls-16,.cls-6,.cls-7,.cls-8{fill:none;}.cls-6{stroke:#263166;}.cls-11,.cls-6{stroke-linecap:round;}.cls-14,.cls-15,.cls-16,.cls-6,.cls-7,.cls-8{stroke-miterlimit:10;}.cls-6,.cls-8{stroke-width:0.77px;}.cls-7,.cls-8{stroke:#2e64ff;}.cls-7{stroke-width:0.57px;}.cls-9{fill:#f9c152;}.cls-10{fill:#7e5038;}.cls-11{stroke:#fff;stroke-linejoin:round;stroke-width:0.97px;}.cls-12{fill:#f58b8d;}.cls-13{font-size:33.46px;fill:#4dd9fe;font-family:STYuanti-SC-Regular, Yuanti SC;}.cls-14{stroke:#e3eaf0;stroke-width:2px;}.cls-15,.cls-16{stroke:#f9c152;}.cls-16{stroke-width:1.06px;}</style></defs><path class="cls-1" d="M188.66,273.4c14.72-31.27,38-91.4,167-84.4,68.5,4.5,113,46.49,138,59.49s126.5,44.18,120.5,128.34S500.66,556.5,336.16,561,124.18,410.31,188.66,273.4Z"/><path class="cls-2" d="M595,491.19c-3.16-10.26-6.27-19.22-9.17-26-4.93-11.52-24.5-51.17-24.5-51.17L449,490.36c20.11-1,42.43-1.61,65.94-1.61C544.09,488.75,571.45,489.64,595,491.19Z"/><path class="cls-3" d="M364.71,323.18l7.82-10.51L386.27,305s12.14,18.46,12,18.46-29.54,7.87-29.54,7.87Z"/><rect class="cls-3" x="358.67" y="284.38" width="24.15" height="48.91" rx="1.26" transform="translate(-109.79 352.61) rotate(-45)"/><path class="cls-3" d="M379.16,386.11s-43,48-53.11,62.23c-10.56,14.83-25.94,35.84-36.08,46.54-2.25,2.37-2.29,4.5-8,9.06-10.33,8.26-16.4,14.45-19.28,11.75-2-1.88,3.45-3.71,4.5-6.78.26-.77-1.06-2.35-3-1.22s-15.38,6.22-19.73,7.12c-4,.83-6.18-.29-4.78-2.26s13.64-5.56,14.67-5.91c.68-.23.92-1.17-.75-.51-6.49,2.54-16.18,7-17.07,4.81-1.62-4.06,15.38-7.25,15.38-7.25s2.08.07,1.82-.48c-.76-1.57-16.07,5.92-16.61,2.6s14.79-5,14.79-5,1.37.25.92-.56c-.57-1-12.67,4.13-12.42.44.1-1.44,5.26-1.78,9.81-3.31,5-1.69,12-4.42,16.81-7.38,5.44-3.37,6.93-6,6.93-6S342.8,371.9,344.41,366.38,379.16,386.11,379.16,386.11Z"/><rect class="cls-3" x="320.78" y="266.33" width="40.91" height="57.49" rx="20.38" transform="translate(-99.73 199.87) rotate(-28.67)"/><path class="cls-4" d="M348.41,248.56c3.62.82,11.26,5.41,12.94,17.69s-4.13,21.69-6.44,21.69c-3.63,0-7.19-13.38-20.94-21.19C327.48,263.06,342.87,247.32,348.41,248.56Z"/><rect class="cls-5" x="338.15" y="297.28" width="1.85" height="4.55" rx="0.93" transform="translate(-104.35 209.67) rotate(-30)"/><rect class="cls-5" x="323.46" y="302.78" width="1.85" height="4.55" rx="0.93" transform="translate(-109.07 203.06) rotate(-30)"/><path class="cls-6" d="M351.16,312.89c-1.29-1.08-3.3-.3-4.28.55a4.79,4.79,0,0,0-1.57,3.69"/><circle class="cls-7" cx="323.09" cy="307.66" r="6.62"/><circle class="cls-7" cx="339.07" cy="298.19" r="6.62"/><path class="cls-8" d="M328.75,304.22a7.07,7.07,0,0,1,2.32-1.88,7.25,7.25,0,0,1,2.36-.74"/><path class="cls-9" d="M364.71,322.53s-15.48,17.5-21.3,31.85c-5.63,13.87-16.33,34.71-16.33,34.71L369.53,417l7.38-8.75s7.67,6.65,10.25,12.88c8.23,19.82,41.62,77.25,41.62,77.25s43.36-1.33,84-28.13A238.28,238.28,0,0,0,567.83,419s-28-67.22-123.61-108.81c-6.69-2.91-27.09-7-39.87-7.28-14.13-.32-18.32,1.59-18.32,1.59s3.17,15.83-5.87,21.88C373.68,330.7,368.26,327.46,364.71,322.53Z"/><path class="cls-10" d="M302.72,291.19c-4.66-7.79-2.11-22,10.94-33.14,12.5-10.63,24.57-3,26.44-.36,2.81,4,4.06,13.54-5.61,23.54-2.72,2.81-14.72,12.48-23.77,13C307.57,294.36,304.55,294.25,302.72,291.19Z"/><path class="cls-11" d="M361,328.33c4,3.26,15.23,10.39,26.58-1.08,7.84-7.92,7.06-17.65,5.56-23.47"/><circle class="cls-12" cx="331.03" cy="315.67" r="2.78"/><ellipse class="cls-3" cx="363.21" cy="277.4" rx="8.33" ry="10.38" transform="translate(-70.86 134.37) rotate(-19.13)"/><line class="cls-7" x1="343.67" y1="293.43" x2="353.78" y2="284"/><text class="cls-13" transform="matrix(0.97, 0.23, -0.23, 0.97, 391.03, 238.34)">？</text><text class="cls-13" transform="translate(333.81 229.63) rotate(7.41)">？</text><text class="cls-13" transform="translate(280.86 260.29) rotate(-39.84)">？</text><path class="cls-3" d="M453.36,363.1s12.88,67.32-16.37,78.07-76.41-9.62-90.66-35.84l12.13-11.16s21.1,11.62,30,13c9.56,1.5,26,4.52,32.86,5.81,5.33,1,1.29-11.07-.09-16.58-.85-3.43-2.46-27.17,1.42-40.92C423.94,351,453.36,363.1,453.36,363.1Z"/><path class="cls-3" d="M333.74,366.25s6.59-2.92,12.17,6.25,3.83,13.67,9.92,20.42,5.5,6.41,5.5,6.41l-11.75,7.09s-13.6-8.75-20.09-15.75-14.33-15.42-4.91-19.67c3.41,3.33,4.89,6.06,7.58,4.22s3.25-1.8,1.83-3.64-3.16-3.91-3.16-3.91Z"/><polygon class="cls-9" points="409.32 364.67 461.16 376.83 459.66 350.67 417.32 340 409.32 364.67"/><path class="cls-14" d="M144.37,420c-12.07-50.34-4.57-110.18,22.14-166.88,14.72-31.27,38-91.4,167-84.4"/><path d="M449,490.36c-55.47,2.86-94.06,9.21-94.06,16.59,0,7.11,35.94,13.28,88.31,16.27l-.21-28.8Z"/><path d="M501.79,525.08q6.49.06,13.12.06c2.93,0,5.85,0,8.74,0L502.41,500Z"/><path d="M674.91,507c0-6.73-32.14-12.61-79.91-15.76,2.9,9.41,5.86,19.92,8.76,30.89C646.66,518.82,674.91,513.26,674.91,507Z"/><path class="cls-15" d="M314.81,342.48c4.65,6.31,5.95,14.11,2.09,16.09-3.53,1.81-10.1-.46-14.75-6.77s-5.58-13.52-2.08-16.09S310.16,336.16,314.81,342.48Z"/><path class="cls-16" d="M300.07,335.71s5.71-6.58,14.4,1.48c6.23,5.78,10.94,13.46,3.86,20.31"/><path class="cls-16" d="M300.33,335.44s-.86,9.62,5.27,15.19a24.43,24.43,0,0,0,13.08,6.14"/><path class="cls-9" d="M317.48,358.19l2.95,3.72s-1.69,1.14-.69,2.26,6.8,9.42,9.79,11.83c.69.55,1.63.83,3.42-.78,1.6-1.44,2.36-1.92,1.29-3.31s-6.92-9.28-10-11.78c-.39-.33-.87-.11-1.58.25-1.83-2.3-3.28-4.06-3.28-4.06Z"/><line class="cls-16" x1="154.41" y1="510" x2="163.53" y2="510"/><line class="cls-16" x1="205.28" y1="510" x2="214.41" y2="510"/><line class="cls-16" x1="286.2" y1="512.92" x2="295.33" y2="512.92"/><line class="cls-16" x1="286.2" y1="525.25" x2="322.2" y2="525.25"/><line class="cls-16" x1="183.41" y1="525.25" x2="215.51" y2="525.25"/><line class="cls-11" x1="415.91" y1="361.5" x2="456.18" y2="370"/><path class="cls-10" d="M352,413.13c1.46,0,5.75-2.83,8.17-5.74s6-8.58,5.19-9.73-7.19-4.21-7.19-4.21-1.12,3.25-5.54,7.43-4.55,4.66-6.67,4.54C347.37,408.23,350.58,413.13,352,413.13Z"/><path class="cls-2" d="M514.91,488.75c-23.51,0-45.83.58-65.94,1.61L431.12,495l.74,27.46c17.87,1,49,2.39,69.93,2.58l.62-25.08,21.24,25.11c29.55-.18,57-1.27,80.11-3-2.9-11-5.86-21.48-8.76-30.89C571.45,489.64,544.09,488.75,514.91,488.75Z"/><path class="cls-10" d="M429.32,500.92s.7,3.16,6,1.75S475.6,490.46,499,479c9.38-4.58,38.3-22.92,49.44-32.81,26.07-23.12,18.16-29.76,18.16-29.76s-32,28.36-68.53,49.07c-17.09,9.68-70,31.86-70,31.86Z"/><path class="cls-1" d="M454.94,497.32l-20,5.71c-6.17,1.76-7.53-4.87-7.53-4.87-2.28-5.72,1-5.39,5.72-7,7.33-2.46,16.95-6.75,16.95-6.75,3.73-1.44,6.63-.15,8.07,3.58h0C459.55,491.75,458.67,495.88,454.94,497.32Z"/></svg>