<?xml version="1.0" encoding="UTF-8"?>
<svg width="538px" height="395px" viewBox="0 0 538 395" version="1.1" xmlns="http://www.w3.org/2000/svg" xmlns:xlink="http://www.w3.org/1999/xlink">
    <title>46DFF436-F662-4F86-92A2-0A07AA71ADA0</title>
    <defs>
        <polygon id="path-1" points="0.14983081 0.342635338 453.637412 0.342635338 453.637412 373 0.14983081 373"></polygon>
        <polygon id="path-3" points="0.2261 0.0953 80.132 0.0953 80.132 30.9823 0.2261 30.9823"></polygon>
    </defs>
    <g id="布局" stroke="none" stroke-width="1" fill="none" fill-rule="evenodd">
        <g id="画板" transform="translate(-567.000000, -411.000000)">
            <g id="搜索为空" transform="translate(568.000000, 412.000000)">
                <g id="编组" transform="translate(22.000000, 20.941000)">
                    <g>
                        <mask id="mask-2" fill="white">
                            <use xlink:href="#path-1"></use>
                        </mask>
                        <g id="Clip-2"></g>
                        <path d="M27.8821,85.3015 C42.6071,54.0355 65.8821,-6.0955 194.8821,0.9045 C263.3821,5.4045 307.8821,47.3905 332.8821,60.3975 C357.8821,73.4045 459.3821,104.5715 453.3821,188.7385 C447.3821,272.9045 339.8821,368.4045 175.3821,372.9045 C10.8821,377.4045 -36.5989,222.2165 27.8821,85.3015" id="Fill-1" fill="#E3EAF0" mask="url(#mask-2)"></path>
                    </g>
                    <path d="M434.2263,303.0954 C431.0603,292.8284 427.9573,283.8744 425.0483,277.0714 C420.1263,265.5574 400.5483,225.9044 400.5483,225.9044 L288.1943,302.2664 C308.3003,301.2314 330.6233,300.6544 354.1323,300.6544 C383.3153,300.6544 410.6703,301.5434 434.2263,303.0954" id="Fill-3" fill="#2F2F3D"></path>
                    <path d="M203.9373,135.0808 L211.7573,124.5708 L225.4913,116.9028 C225.4913,116.9028 237.6323,135.3628 237.5073,135.3628 C237.3823,135.3628 207.9653,143.2378 207.9653,143.2378 L203.9373,135.0808 Z" id="Fill-5" fill="#F2B5BC"></path>
                    <path d="M234.9109,130.3806 L219.6169,145.6756 C219.1249,146.1666 218.3219,146.1666 217.8309,145.6756 L185.0309,112.8746 C184.5389,112.3836 184.5389,111.5806 185.0309,111.0896 L200.3249,95.7946 C200.8159,95.3036 201.6189,95.3036 202.1109,95.7946 L234.9109,128.5956 C235.4019,129.0866 235.4019,129.8906 234.9109,130.3806" id="Fill-7" fill="#F2B5BC"></path>
                    <path d="M218.3821,198.0173 C218.3821,198.0173 175.3911,246.0263 165.2711,260.2433 C154.7151,275.0713 139.3311,296.0803 129.1941,306.7793 C126.9441,309.1543 126.8991,311.2843 121.1941,315.8413 C110.8591,324.1013 104.7951,330.2923 101.9131,327.5913 C99.9131,325.7163 105.3651,323.8863 106.4131,320.8103 C106.6741,320.0443 105.3511,318.4663 103.4131,319.5913 C101.5601,320.6673 88.0381,325.8103 83.6831,326.7123 C79.6951,327.5383 77.5081,326.4183 78.8991,324.4543 C80.3371,322.4223 92.5391,318.8963 93.5691,318.5443 C94.2571,318.3103 94.4911,317.3723 92.8191,318.0293 C86.3341,320.5753 76.6461,325.0633 75.7571,322.8413 C74.1321,318.7793 91.1321,315.5913 91.1321,315.5913 C91.1321,315.5913 93.2131,315.6633 92.9491,315.1133 C92.1961,313.5453 76.8811,321.0283 76.3441,317.7113 C75.8201,314.4663 91.1321,312.7163 91.1321,312.7163 C91.1321,312.7163 92.5071,312.9663 92.0491,312.1543 C91.4791,311.1453 79.3821,316.2793 79.6321,312.5913 C79.7291,311.1563 84.8941,310.8153 89.4451,309.2793 C94.4441,307.5913 101.4941,304.8613 106.2571,301.9043 C111.6941,298.5293 113.1811,295.8773 113.1811,295.8773 C113.1811,295.8773 182.0251,183.8023 183.6321,178.2823 C185.2391,172.7613 218.3821,198.0173 218.3821,198.0173" id="Fill-9" fill="#F2B5BC"></path>
                    <path d="M194.3044,132.1697 L194.1794,132.2377 C184.3434,137.6157 171.8964,133.9687 166.5184,124.1327 L158.4924,109.4537 C153.1154,99.6177 156.7624,87.1717 166.5984,81.7937 L166.7234,81.7257 C176.5594,76.3477 189.0064,79.9947 194.3844,89.8307 L202.4094,104.5097 C207.7874,114.3457 204.1394,126.7917 194.3044,132.1697" id="Fill-11" fill="#F2B5BC"></path>
                    <path d="M187.6321,60.4665 C191.2571,61.2795 198.8911,65.8685 200.5701,78.1535 C202.2481,90.4395 196.4451,99.8415 194.1321,99.8415 C190.5071,99.8415 186.9451,86.4665 173.1941,78.6535 C166.7061,74.9675 182.0951,59.2245 187.6321,60.4665" id="Fill-13" fill="#603624"></path>
                    <path d="M179.4329,113.4314 L179.4319,113.4314 C178.9919,113.6864 178.4229,113.5344 178.1679,113.0924 L176.8189,110.7554 C176.5639,110.3154 176.7169,109.7454 177.1579,109.4924 L177.1579,109.4914 C177.5989,109.2374 178.1669,109.3894 178.4219,109.8294 L179.7709,112.1674 C180.0259,112.6084 179.8729,113.1764 179.4329,113.4314" id="Fill-15" fill="#263166"></path>
                    <path d="M164.7454,118.9314 L164.7444,118.9314 C164.3044,119.1864 163.7354,119.0344 163.4804,118.5924 L162.1314,116.2554 C161.8764,115.8154 162.0294,115.2454 162.4704,114.9924 L162.4704,114.9914 C162.9114,114.7374 163.4794,114.8894 163.7344,115.3294 L165.0834,117.6674 C165.3384,118.1084 165.1854,118.6764 164.7454,118.9314" id="Fill-17" fill="#263166"></path>
                    <path d="M190.3821,124.7917 C189.0971,123.7137 187.0831,124.4967 186.1011,125.3417 C184.9861,126.3007 184.3751,128.1087 184.5381,129.0287" id="Stroke-19" stroke="#263166" stroke-width="0.774" stroke-linecap="round"></path>
                    <path d="M155.6921,119.5603 C155.6921,123.2163 158.6561,126.1803 162.3121,126.1803 C165.9681,126.1803 168.9321,123.2163 168.9321,119.5603 C168.9321,115.9043 165.9681,112.9403 162.3121,112.9403 C158.6561,112.9403 155.6921,115.9043 155.6921,119.5603 Z" id="Stroke-21" stroke="#2E64FF" stroke-width="0.566"></path>
                    <path d="M171.6746,110.0886 C171.6746,113.7446 174.6386,116.7086 178.2956,116.7086 C181.9516,116.7086 184.9156,113.7446 184.9156,110.0886 C184.9156,106.4326 181.9516,103.4686 178.2956,103.4686 C174.6386,103.4686 171.6746,106.4326 171.6746,110.0886 Z" id="Stroke-23" stroke="#2E64FF" stroke-width="0.566"></path>
                    <path d="M167.9695,116.1208 C168.5415,115.3958 169.3325,114.7398 170.2915,114.2478 C171.0755,113.8458 171.8845,113.5988 172.6565,113.4978" id="Stroke-25" stroke="#2E64FF" stroke-width="0.774"></path>
                    <path d="M203.9373,134.4353 C203.9373,134.4353 188.4483,151.9323 182.6323,166.2793 C177.0073,180.1543 166.3053,200.9903 166.3053,200.9903 L208.7573,228.9043 L216.1323,220.1543 C216.1323,220.1543 223.7993,226.8053 226.3823,233.0293 C234.6093,252.8553 268.0073,310.2793 268.0073,310.2793 C268.0073,310.2793 311.3603,308.9513 352.0073,282.1543 C385.7573,259.9043 407.0483,230.9043 407.0483,230.9043 C407.0483,230.9043 379.1063,163.6813 283.4443,122.0913 C276.7563,119.1843 256.3513,115.0913 243.5693,114.8093 C229.4443,114.4973 225.2573,116.4043 225.2573,116.4043 C225.2573,116.4043 228.4273,132.2383 219.3823,138.2793 C212.9033,142.6073 207.4863,139.3683 203.9373,134.4353" id="Fill-27" fill="#F9C152"></path>
                    <path d="M141.9446,103.0915 C137.2806,95.3065 139.8306,81.0625 152.8826,69.9565 C165.3816,59.3205 177.4496,66.9325 179.3196,69.5915 C182.1326,73.5915 183.3806,83.1285 173.7096,93.1285 C170.9906,95.9405 158.9896,105.6125 149.9446,106.0915 C146.7926,106.2585 143.7776,106.1535 141.9446,103.0915" id="Fill-29" fill="#7E5038"></path>
                    <path d="M200.2205,140.2322 C204.2145,143.4912 215.4525,150.6192 226.7985,139.1542 C234.6425,131.2292 233.8585,121.5012 232.3595,115.6802" id="Stroke-31" stroke="#FFFFFF" stroke-width="0.968" stroke-linecap="round" stroke-linejoin="round"></path>
                    <path d="M173.0305,127.573 C173.0305,129.109 171.7855,130.354 170.2495,130.354 C168.7135,130.354 167.4685,129.109 167.4685,127.573 C167.4685,126.037 168.7135,124.792 170.2495,124.792 C171.7855,124.792 173.0305,126.037 173.0305,127.573" id="Fill-33" fill="#F58B8D"></path>
                    <path d="M210.3059,86.5749 C212.1849,91.9899 210.1839,97.6029 205.8379,99.1109 C201.4909,100.6189 196.4439,97.4509 194.5649,92.0359 C192.6869,86.6209 194.6869,81.0079 199.0339,79.4999 C203.3809,77.9919 208.4279,81.1599 210.3059,86.5749" id="Fill-35" fill="#F2B5BC"></path>
                    <line x1="182.8972" y1="105.3318" x2="193.0072" y2="95.9038" id="Stroke-37" stroke="#2E64FF" stroke-width="0.566"></line>
                </g>
                <text id="？" font-family="STYuanti-SC-Regular, Yuanti SC" font-size="24.9254" font-weight="normal" fill="#4DD9FE">
                    <tspan x="252.2572" y="62.2859921">？</tspan>
                </text>
                <text id="？" font-family="STYuanti-SC-Regular, Yuanti SC" font-size="28.8652" font-weight="normal" fill="#4DD9FE">
                    <tspan x="195.0283" y="53.0610962">？</tspan>
                </text>
                <text id="？" font-family="STYuanti-SC-Regular, Yuanti SC" font-size="47.1227" font-weight="normal" fill="#4DD9FE">
                    <tspan x="142.079" y="77.1632076">？</tspan>
                </text>
                <g id="编组" transform="translate(0.000000, 0.941000)">
                    <path d="M314.5793,195.0036 C314.5793,195.0036 327.4653,262.3206 298.2153,273.0706 C268.9653,283.8206 221.8053,263.4546 207.5483,237.2376 L219.6833,226.0736 C219.6833,226.0736 240.7793,237.6926 249.6943,239.0916 C259.2573,240.5916 275.6703,243.6146 282.5483,244.9036 C287.8823,245.9036 283.8413,233.8376 282.4653,228.3206 C281.6103,224.8936 280.0073,201.1536 283.8823,187.4036 C285.1613,182.8636 314.5793,195.0036 314.5793,195.0036" id="Fill-39" fill="#F2B5BC"></path>
                    <path d="M194.9656,198.154 C194.9656,198.154 201.5486,195.238 207.1326,204.404 C212.7156,213.571 210.9656,218.071 217.0486,224.821 C223.1326,231.571 222.5486,231.238 222.5486,231.238 L210.7986,238.321 C210.7986,238.321 197.2046,229.571 190.7106,222.571 C184.2156,215.571 176.3826,207.154 185.7986,202.904 C189.2156,206.238 190.6926,208.961 193.3826,207.127 C196.0716,205.292 196.6326,205.321 195.2156,203.488 C193.7986,201.654 192.0486,199.571 192.0486,199.571 L194.9656,198.154 Z" id="Fill-41" fill="#F2B5BC"></path>
                    <polygon id="Fill-43" fill="#F9C152" points="270.5486 196.571 322.3816 208.738 320.8816 182.571 278.5486 171.904"></polygon>
                    <path d="M5.5906,251.8982 C-6.4744,201.5662 1.0266,141.7252 27.7326,85.0182 C42.4566,53.7522 65.7326,-6.3788 194.7326,0.6212" id="Stroke-45" stroke="#E3EAF0" stroke-width="2"></path>
                    <path d="M310.1946,322.2663 C254.7226,325.1233 216.1316,331.4733 216.1316,338.8493 C216.1316,345.9663 252.0756,352.1283 304.4416,355.1193 L304.2306,326.3203 L310.1946,322.2663 Z" id="Fill-47" fill="#000000"></path>
                    <path d="M363.0105,356.9831 C367.3385,357.0231 371.7135,357.0441 376.1325,357.0441 C379.0655,357.0441 381.9795,357.0341 384.8735,357.0161 L363.6325,331.9041 L363.0105,356.9831 Z" id="Fill-49" fill="#000000"></path>
                    <g transform="translate(456.000000, 323.000000)">
                        <mask id="mask-4" fill="white">
                            <use xlink:href="#path-3"></use>
                        </mask>
                        <g id="Clip-52"></g>
                        <path d="M80.1321,15.8493 C80.1321,9.1193 47.9971,3.2433 0.2261,0.0953 C3.1271,9.5013 6.0801,20.0113 8.9861,30.9823 C51.8821,27.7183 80.1321,22.1593 80.1321,15.8493" id="Fill-51" fill="#000000" mask="url(#mask-4)"></path>
                    </g>
                    <path d="M176.0364,174.3796 C180.6854,180.6926 181.9884,188.4956 178.1224,190.4726 C174.5904,192.2786 168.0234,190.0156 163.3754,183.7016 C158.7264,177.3886 157.7924,170.1836 161.2884,167.6086 C164.7854,165.0346 171.3884,168.0666 176.0364,174.3796 Z" id="Stroke-53" stroke="#F9C152"></path>
                    <path d="M161.2888,167.6091 C161.2888,167.6091 167.0068,161.0291 175.6948,169.0911 C181.9198,174.8691 186.6318,182.5521 179.5488,189.4041" id="Stroke-55" stroke="#F9C152" stroke-width="1.059"></path>
                    <path d="M161.5515,167.3415 C161.5515,167.3415 160.6945,176.9665 166.8195,182.5295 C172.9445,188.0915 179.8995,188.6775 179.8995,188.6775" id="Stroke-57" stroke="#F9C152" stroke-width="1.059"></path>
                    <path d="M178.7053,190.0964 L181.6533,193.8134 C181.6533,193.8134 179.9583,194.9504 180.9583,196.0754 C181.9583,197.2004 187.7673,205.4944 190.7573,207.9044 C191.4393,208.4534 192.3823,208.7384 194.1733,207.1264 C195.7783,205.6834 196.5363,205.2004 195.4613,203.8164 C194.3873,202.4334 188.5413,194.5334 185.5073,192.0294 C185.1143,191.7054 184.6363,191.9184 183.9233,192.2794 C182.0903,189.9884 180.6443,188.2274 180.6443,188.2274 L178.7053,190.0964 Z" id="Fill-59" fill="#F9C152"></path>
                    <line x1="15.6321" y1="341.904" x2="24.7571" y2="341.904" id="Stroke-61" stroke="#F9C152" stroke-width="1.059"></line>
                    <line x1="66.5071" y1="341.904" x2="75.6321" y2="341.904" id="Stroke-63" stroke="#F9C152" stroke-width="1.059"></line>
                    <line x1="147.4236" y1="344.821" x2="156.5486" y2="344.821" id="Stroke-65" stroke="#F9C152" stroke-width="1.059"></line>
                    <line x1="147.4236" y1="357.154" x2="183.4256" y2="357.154" id="Stroke-67" stroke="#F9C152" stroke-width="1.059"></line>
                    <line x1="44.6321" y1="357.154" x2="76.7331" y2="357.154" id="Stroke-69" stroke="#F9C152" stroke-width="1.059"></line>
                    <line x1="277.1321" y1="193.404" x2="317.4061" y2="201.904" id="Stroke-71" stroke="#FFFFFF" stroke-width="0.968" stroke-linecap="round" stroke-linejoin="round"></line>
                    <path d="M213.2571,245.029 C214.7091,245.029 219.0011,242.199 221.4211,239.295 C223.8401,236.39 227.4651,230.716 226.6181,229.566 C225.7711,228.416 219.4231,225.351 219.4231,225.351 C219.4231,225.351 218.2991,228.605 213.8821,232.779 C209.4651,236.954 209.3331,237.442 207.2151,237.321 C208.5901,240.133 211.7991,245.029 213.2571,245.029" id="Fill-73" fill="#7E5038"></path>
                    <path d="M376.1321,320.654 C352.6241,320.654 330.3001,321.231 310.1941,322.266 L292.3401,326.946 L293.0851,354.403 C310.9541,355.424 342.0901,356.79 363.0101,356.983 L363.6321,331.904 L384.8741,357.016 C414.4221,356.836 441.8361,355.743 464.9861,353.982 C462.0801,343.011 459.1271,332.502 456.2261,323.095 C432.6701,321.544 405.3151,320.654 376.1321,320.654" id="Fill-75" fill="#2F2F3D"></path>
                    <path d="M290.5461,332.8181 C290.5461,332.8181 291.2381,335.9851 296.5481,334.5711 C301.8591,333.1581 336.8181,322.3631 360.2571,310.9041 C369.6321,306.3211 398.5561,287.9831 409.6981,278.0971 C435.7601,254.9721 427.8571,248.3351 427.8571,248.3351 C427.8571,248.3351 395.8821,276.6971 359.3231,297.4041 C342.2361,307.0831 289.3541,329.2631 289.3541,329.2631 L290.5461,332.8181 Z" id="Fill-77" fill="#7E5038"></path>
                    <path d="M316.1667,329.2224 L296.1357,334.9344 C289.9647,336.6944 288.6077,330.0594 288.6077,330.0594 C286.3227,324.3474 289.6267,324.6694 294.3227,323.0954 C301.6567,320.6374 311.2707,316.3384 311.2707,316.3384 C314.9997,314.9044 317.9067,316.1964 319.3407,319.9244 C320.7757,323.6534 319.8957,327.7874 316.1667,329.2224" id="Fill-79" fill="#E3EAF0"></path>
                </g>
            </g>
        </g>
    </g>
</svg>