<?xml version="1.0" encoding="UTF-8"?>
<svg width="20px" height="20px" viewBox="0 0 20 20" version="1.1" xmlns="http://www.w3.org/2000/svg" xmlns:xlink="http://www.w3.org/1999/xlink">
    <title>all items-filled</title>
    <g id="all-items-filled" stroke="none" stroke-width="1" fill="none" fill-rule="evenodd">
        <rect id="矩形" fill-opacity="0" fill="#F0F0F0" x="0" y="0" width="20" height="20"></rect>
        <g id="全部项目" transform="translate(2.000000, 2.857143)" fill="#262626" fill-rule="nonzero">
            <g id="图形">
                <path d="M13.448,10.027 L15.6480101,10.9273262 C16.11733,11.1194674 16.11733,11.43099 15.6480101,11.6231312 L8.8497789,14.4063514 C8.38045897,14.5984927 7.61954103,14.5984927 7.1502211,14.4063514 L0.351989943,11.6231312 C-0.117329981,11.43099 -0.117329981,11.1194674 0.351989943,10.9273262 L2.551,10.027 L7.1502211,11.9092086 C7.56739437,12.0800008 8.21496607,12.0989777 8.68333899,11.9661393 L8.8497789,11.9092086 L13.448,10.027 Z M13.448,6.027 L15.6480101,6.92732616 C16.11733,7.11946742 16.11733,7.43098996 15.6480101,7.62313122 L8.8497789,10.4063514 C8.38045897,10.5984927 7.61954103,10.5984927 7.1502211,10.4063514 L0.351989943,7.62313122 C-0.117329981,7.43098996 -0.117329981,7.11946742 0.351989943,6.92732616 L2.551,6.027 L7.1502211,7.90920857 C7.56739437,8.08000081 8.21496607,8.09897772 8.68333899,7.96613932 L8.8497789,7.90920857 L13.448,6.027 Z M8.8497789,0.144105945 L15.6480101,2.92732616 C16.11733,3.11946742 16.11733,3.43098996 15.6480101,3.62313122 L8.8497789,6.40635143 C8.38045897,6.59849269 7.61954103,6.59849269 7.1502211,6.40635143 L0.351989943,3.62313122 C-0.117329981,3.43098996 -0.117329981,3.11946742 0.351989943,2.92732616 L7.1502211,0.144105945 C7.61954103,-0.048035315 8.38045897,-0.048035315 8.8497789,0.144105945 Z" id="形状结合"></path>
            </g>
        </g>
    </g>
</svg>