<?xml version="1.0" encoding="UTF-8"?>
<svg width="14px" height="14px" viewBox="0 0 14 14" version="1.1" xmlns="http://www.w3.org/2000/svg" xmlns:xlink="http://www.w3.org/1999/xlink">
    <title>all-items-outlined</title>
    <g id="all-items-outlined" stroke="none" stroke-width="1" fill="none" fill-rule="evenodd">
        <rect id="矩形" fill-opacity="0" fill="#F0F0F0" x="-1" y="-1" width="16" height="16"></rect>
        <g id="全部项目" transform="translate(0.000000, 0.500000)">
            <rect id="矩形" fill-opacity="0" fill="#F0F0F0" x="0.5527632" y="0" width="12.8944712" height="12.8944712"></rect>
            <g id="图形" transform="translate(0.000000, 0.138155)" fill="#595959" fill-rule="nonzero">
                <path d="M13.9585388,9.59934945 C14.0743303,9.88173507 13.9392791,10.2045214 13.6568934,10.3203129 L7.89421654,12.6832832 C7.38180958,12.8930645 6.61818805,12.8930645 6.10578109,12.6832832 L0.621367814,10.4379077 L0.337697551,10.3180623 C0.0565548597,10.1992849 -0.0750681525,9.87508551 0.0437093253,9.59394282 C0.162486803,9.31280013 0.486686157,9.18117712 0.767828848,9.29995459 L1.0458106,9.41743392 L6.52453535,11.6604435 C6.76858242,11.7603572 7.2314152,11.7603572 7.47518039,11.660559 L13.2375754,9.29770408 C13.519961,9.1819126 13.8427473,9.31696384 13.9585388,9.59934945 Z M13.9585388,6.36663123 C14.0743303,6.64901685 13.9392791,6.97180316 13.6568934,7.08759464 L7.89421654,9.45056502 C7.38180958,9.66034627 6.61818805,9.66034627 6.10578109,9.45056502 L0.621367814,7.20518945 L0.337697551,7.08534412 C0.0565548597,6.96656665 -0.0750681525,6.64236729 0.0437093253,6.3612246 C0.162486803,6.08008191 0.486686157,5.9484589 0.767828848,6.06723637 L1.0458106,6.1847157 L6.52453535,8.42772526 C6.76858242,8.527639 7.2314152,8.527639 7.47518039,8.42784075 L13.2375754,6.06498586 C13.519961,5.94919438 13.8427473,6.08424562 13.9585388,6.36663123 Z M7.89421654,0.157335936 L13.3729413,2.4003455 C14.2088257,2.74255958 14.2088257,3.64172357 13.3729413,3.98393765 L7.89421654,6.22694722 C7.38180958,6.43672846 6.61818805,6.43672846 6.10578109,6.22694722 L0.627056328,3.98393765 C-0.208828103,3.64172357 -0.208828103,2.74255958 0.627056328,2.4003455 L6.10578109,0.157335936 C6.61818805,-0.0524453119 7.38180958,-0.0524453119 7.89421654,0.157335936 Z M6.52453535,1.1801757 L1.61010984,3.19138163 L6.52453535,5.20410745 C6.73371856,5.2897478 7.10364228,5.30198214 7.35875135,5.24081046 L7.47546227,5.20410745 L12.3889668,3.19138163 L7.47546227,1.1801757 C7.2314152,1.08026195 6.76858242,1.08026195 6.52453535,1.1801757 Z" id="形状结合"></path>
            </g>
        </g>
    </g>
</svg>