<?xml version="1.0" encoding="UTF-8"?>
<svg width="14px" height="14px" viewBox="0 0 14 14" version="1.1" xmlns="http://www.w3.org/2000/svg" xmlns:xlink="http://www.w3.org/1999/xlink">
    <title>all-items-outlined</title>
    <g id="all-items-outlined" stroke="none" stroke-width="1" fill="none" fill-rule="evenodd">
        <rect id="矩形" fill-opacity="0" fill="#F0F0F0" x="-1" y="-1" width="16" height="16"></rect>
        <g id="全部项目" transform="translate(-0.600155, 0.000000)">
            <rect id="矩形" fill-opacity="0" fill="#F0F0F0" x="0.600155265" y="0" width="14" height="14"></rect>
            <g id="图形" transform="translate(0.000000, 0.150000)" fill="#262626" fill-rule="nonzero">
                <path d="M0.833659922,10.0973016 L1.13547489,10.2248532 L7.08392716,12.6601708 C7.34889801,12.7686509 7.85141252,12.7686509 8.11607732,12.6602962 L14.3725208,10.0948581 C14.6791172,9.96913904 15.0295781,10.1157691 15.1552972,10.4223655 C15.2810162,10.7289619 15.1343862,11.0794229 14.8277897,11.2051419 L8.57104023,13.7707055 C8.01470121,13.9984727 7.18560932,13.9984727 6.6292703,13.7707055 L0.674641809,11.3328189 L0.366650608,11.2026984 C0.0614036839,11.0737374 -0.0815042445,10.7217423 0.0474568165,10.4164953 C0.176417877,10.1112484 0.528412998,9.96834049 0.833659922,10.0973016 Z M0.833659922,6.5874209 L1.13547489,6.7149725 L7.08392716,9.15029019 C7.34889801,9.25877021 7.85141252,9.25877021 8.11607732,9.15041559 L14.3725208,6.58497743 C14.6791172,6.45925838 15.0295781,6.60588846 15.1552972,6.91248487 C15.2810162,7.21908128 15.1343862,7.56954221 14.8277897,7.69526126 L8.57104023,10.2608248 C8.01470121,10.488592 7.18560932,10.488592 6.6292703,10.2608248 L0.674641809,7.82293826 L0.366650608,7.6928178 C0.0614036839,7.56385674 -0.0815042445,7.21186162 0.0474568165,6.90661469 C0.176417877,6.60136777 0.528412998,6.45845984 0.833659922,6.5874209 Z M8.57104023,0.170825392 L14.5194925,2.60614308 C15.4270429,2.97769745 15.4270429,3.95395275 14.5194925,4.32550712 L8.57104023,6.76082481 C8.01470121,6.988592 7.18560932,6.988592 6.6292703,6.76082481 L0.680818038,4.32550712 C-0.226732326,3.95395275 -0.226732326,2.97769745 0.680818038,2.60614308 L6.6292703,0.170825392 C7.18560932,-0.0569417972 8.01470121,-0.0569417972 8.57104023,0.170825392 Z M7.08392716,1.28136001 L1.74815527,3.465 L7.08392716,5.65029019 C7.31104503,5.74327306 7.71268478,5.75655633 7.98966604,5.69013999 L8.11638337,5.65029019 L13.4511553,3.465 L8.11638337,1.28136001 C7.85141252,1.17288 7.34889801,1.17288 7.08392716,1.28136001 Z" id="形状结合"></path>
            </g>
        </g>
    </g>
</svg>