<?xml version="1.0" encoding="UTF-8"?>
<svg width="14px" height="14px" viewBox="0 0 14 14" version="1.1" xmlns="http://www.w3.org/2000/svg" xmlns:xlink="http://www.w3.org/1999/xlink">
    <title>analysis</title>
    <g id="页面-1" stroke="none" stroke-width="1" fill="none" fill-rule="evenodd">
        <g id="analysis">
            <rect id="矩形" x="0" y="0" width="14" height="14"></rect>
            <g id="编组-16" transform="translate(0.800000, 0.700000)" fill="#595959">
                <path d="M12.6833941,11.3467122 L11.3840202,10.0931973 L11.3840202,10.0931973 C11.8118934,9.55439404 12.0423974,8.89025416 12.0423974,8.19297933 C12.0423974,8.14255656 12.0409568,8.09357444 12.0380755,8.04315167 L12.04816,8.04315167 L12.04816,0.950829322 C12.04816,0.426432544 11.6217275,0 11.0973307,0 L0.950829322,0 C0.426432544,0 0,0.426432544 0,0.950829322 L0,8.85279725 C0,9.37719403 0.426432544,9.80362657 0.950829322,9.80362657 L6.36191256,9.80362657 C6.90359714,10.6795421 7.87171427,11.2644462 8.97525254,11.2644462 C9.57456314,11.2644462 10.147942,11.0930088 10.6392039,10.7760657 L11.9760321,12.0667465 C12.0546821,12.1426815 12.1797312,12.1413929 12.2567998,12.0638534 L12.6863871,11.6316406 C12.7642537,11.5532982 12.7638679,11.4266658 12.6855255,11.3487992 C12.6848202,11.3480983 12.6841097,11.3474026 12.6833941,11.3467122 Z M1.00845534,8.79373058 L1.00845534,1.00845534 L11.042586,1.00845534 L11.042586,5.92683611 C10.4965795,5.42837104 9.77049161,5.12295314 8.97381189,5.12295314 C7.28104757,5.12295314 5.9037857,6.500215 5.9037857,8.19297933 C5.9037857,8.39899235 5.92395481,8.59924276 5.96285237,8.79373058 L1.00845534,8.79373058 Z M8.97381189,10.2545502 C7.83713866,10.2545502 6.91224104,9.32965256 6.91224104,8.19297933 C6.91224104,7.05630609 7.83713866,6.13140848 8.97381189,6.13140848 C10.1104851,6.13140848 11.0353827,7.05630609 11.0353827,8.19297933 C11.0353827,9.32965256 10.1104851,10.2545502 8.97381189,10.2545502 Z" id="形状"></path>
                <path d="M10.4351707,11.6663877 L0.135170728,11.6663877 L0.135170728,11.6663877 L0.135170728,12.674843 L10.4351707,12.674843 C10.5456277,12.674843 10.6351707,12.5852999 10.6351707,12.474843 L10.6351707,11.8663877 C10.6351707,11.7559307 10.5456277,11.6663877 10.4351707,11.6663877 Z M9.37143142,2.74587983 C9.5817664,2.56435787 9.6048168,2.24597411 9.42329484,2.03419849 C9.24177288,1.82386352 8.92338912,1.80081311 8.7116135,1.98233507 L6.35614995,4.01941486 C6.27979548,4.08568478 6.16598409,4.08568478 6.08962961,4.01941486 L4.90541491,2.99655302 C4.7166897,2.83231886 4.43576285,2.83231886 4.24559699,2.99655302 L2.04860499,4.89533036 C1.83827002,5.07685232 1.81521961,5.39523608 1.99674158,5.6070117 C2.17826354,5.81734667 2.4966473,5.84039708 2.70842292,5.65887512 L4.44296611,4.15915796 C4.51932058,4.09288804 4.63313197,4.09288804 4.70948645,4.15915796 L5.89370115,5.18201981 C6.08242636,5.34625396 6.36335321,5.34625396 6.55207842,5.18201981 L9.37143142,2.74587983 Z" id="形状"></path>
            </g>
        </g>
    </g>
</svg>