<?xml version="1.0" encoding="UTF-8"?>
<svg width="16px" height="16px" viewBox="0 0 16 16" version="1.1" xmlns="http://www.w3.org/2000/svg" xmlns:xlink="http://www.w3.org/1999/xlink">
    <title>Associated resources-outlinde</title>
    <g id="Associated-resources-outlinde" stroke="none" stroke-width="1" fill="none" fill-rule="evenodd" opacity="0.65">
        <g id="Associated-resources">
            <rect id="矩形" x="0" y="0" width="16" height="16"></rect>
            <path d="M3.5862069,5.85517241 L3.5862069,7.05517241 L2.6,7.05517241 C2.3790861,7.05517241 2.2,7.23425851 2.2,7.45517241 L2.2,13.4 C2.2,13.6209139 2.3790861,13.8 2.6,13.8 L9.42758621,13.8 C9.64850011,13.8 9.82758621,13.6209139 9.82758621,13.4 L9.82758621,7.45517241 C9.82758621,7.23425851 9.64850011,7.05517241 9.42758621,7.05517241 L7.9,7.05517241 L7.9,5.85517241 L9.42758621,5.85517241 C10.3112418,5.85517241 11.0275862,6.57151681 11.0275862,7.45517241 L11.0275862,13.4 C11.0275862,14.2836556 10.3112418,15 9.42758621,15 L2.6,15 C1.7163444,15 1,14.2836556 1,13.4 L1,7.45517241 C1,6.57151681 1.7163444,5.85517241 2.6,5.85517241 L3.5862069,5.85517241 Z M13.4,1 C14.2836556,1 15,1.7163444 15,2.6 L15,8.54482759 C15,9.42848319 14.2836556,10.1448276 13.4,10.1448276 L12.4137931,10.1448276 L12.4137931,8.94482759 L13.4,8.94482759 C13.6209139,8.94482759 13.8,8.76574149 13.8,8.54482759 L13.8,2.6 C13.8,2.3790861 13.6209139,2.2 13.4,2.2 L6.57241379,2.2 C6.35149989,2.2 6.17241379,2.3790861 6.17241379,2.6 L6.17241379,8.54482759 C6.17241379,8.76574149 6.35149989,8.94482759 6.57241379,8.94482759 L8,8.94482759 L8,10.1448276 L6.57241379,10.1448276 C5.68875819,10.1448276 4.97241379,9.42848319 4.97241379,8.54482759 L4.97241379,2.6 C4.97241379,1.7163444 5.68875819,1 6.57241379,1 L13.4,1 Z" id="形状" fill="#000000" fill-rule="nonzero"></path>
        </g>
    </g>
</svg>