<?xml version="1.0" encoding="UTF-8"?>
<svg width="14px" height="14px" viewBox="0 0 14 14" version="1.1" xmlns="http://www.w3.org/2000/svg" xmlns:xlink="http://www.w3.org/1999/xlink">
    <title>associated-resources-outlined</title>
    <g id="associated-resources-outlined" stroke="none" stroke-width="1" fill="none" fill-rule="evenodd">
        <g id="Associated-resources">
            <rect id="矩形" x="0" y="0" width="14" height="14"></rect>
            <path d="M2.5862069,4.85517241 L2.5862069,6.05517241 L1.6,6.05517241 C1.3790861,6.05517241 1.2,6.23425851 1.2,6.45517241 L1.2,12.4 C1.2,12.6209139 1.3790861,12.8 1.6,12.8 L8.42758621,12.8 C8.64850011,12.8 8.82758621,12.6209139 8.82758621,12.4 L8.82758621,6.45517241 C8.82758621,6.23425851 8.64850011,6.05517241 8.42758621,6.05517241 L6.9,6.05517241 L6.9,4.85517241 L8.42758621,4.85517241 C9.31124181,4.85517241 10.0275862,5.57151681 10.0275862,6.45517241 L10.0275862,12.4 C10.0275862,13.2836556 9.31124181,14 8.42758621,14 L1.6,14 C0.7163444,14 5.32907052e-15,13.2836556 5.32907052e-15,12.4 L5.32907052e-15,6.45517241 C5.32907052e-15,5.57151681 0.7163444,4.85517241 1.6,4.85517241 L2.5862069,4.85517241 Z M12.4,1.86517468e-14 C13.2836556,1.86517468e-14 14,0.7163444 14,1.6 L14,7.54482759 C14,8.42848319 13.2836556,9.14482759 12.4,9.14482759 L11.4137931,9.14482759 L11.4137931,7.94482759 L12.4,7.94482759 C12.6209139,7.94482759 12.8,7.76574149 12.8,7.54482759 L12.8,1.6 C12.8,1.3790861 12.6209139,1.2 12.4,1.2 L5.57241379,1.2 C5.35149989,1.2 5.17241379,1.3790861 5.17241379,1.6 L5.17241379,7.54482759 C5.17241379,7.76574149 5.35149989,7.94482759 5.57241379,7.94482759 L7,7.94482759 L7,9.14482759 L5.57241379,9.14482759 C4.68875819,9.14482759 3.97241379,8.42848319 3.97241379,7.54482759 L3.97241379,1.6 C3.97241379,0.7163444 4.68875819,1.86517468e-14 5.57241379,1.86517468e-14 L12.4,1.86517468e-14 Z" id="形状" fill="#595959"></path>
        </g>
    </g>
</svg>