<?xml version="1.0" encoding="UTF-8"?>
<svg width="16px" height="16px" viewBox="0 0 16 16" version="1.1" xmlns="http://www.w3.org/2000/svg" xmlns:xlink="http://www.w3.org/1999/xlink">
    <title>associated-resources-filled</title>
    <g id="associated-resources-filled" stroke="none" stroke-width="1" fill="none" fill-rule="evenodd">
        <g id="Associated-resources">
            <rect id="矩形" x="0" y="0" width="16" height="16"></rect>
            <path d="M3,5.65 L3,6.85 L1.75,6.85 C1.5290861,6.85 1.35,7.0290861 1.35,7.25 L1.35,14.25 C1.35,14.4709139 1.5290861,14.65 1.75,14.65 L9.75,14.65 C9.9709139,14.65 10.15,14.4709139 10.15,14.25 L10.15,7.25 C10.15,7.0290861 9.9709139,6.85 9.75,6.85 L7,6.85 L7,5.65 L9.75,5.65 C10.6336556,5.65 11.35,6.3663444 11.35,7.25 L11.35,14.25 C11.35,15.1336556 10.6336556,15.85 9.75,15.85 L1.75,15.85 C0.8663444,15.85 0.15,15.1336556 0.15,14.25 L0.15,7.25 C0.15,6.3663444 0.8663444,5.65 1.75,5.65 L3,5.65 Z M14.25,0.15 C15.1336556,0.15 15.85,0.8663444 15.85,1.75 L15.85,8.75 C15.85,9.6336556 15.1336556,10.35 14.25,10.35 L13,10.35 L13,9.15 L14.25,9.15 C14.4709139,9.15 14.65,8.9709139 14.65,8.75 L14.65,1.75 C14.65,1.5290861 14.4709139,1.35 14.25,1.35 L6.25,1.35 C6.0290861,1.35 5.85,1.5290861 5.85,1.75 L5.85,8.75 C5.85,8.9709139 6.0290861,9.15 6.25,9.15 L8,9.15 L8,10.35 L6.25,10.35 C5.3663444,10.35 4.65,9.6336556 4.65,8.75 L4.65,1.75 C4.65,0.8663444 5.3663444,0.15 6.25,0.15 L14.25,0.15 Z" id="形状结合" fill="#595959"></path>
        </g>
    </g>
</svg>