<?xml version="1.0" encoding="UTF-8"?>
<svg width="20px" height="20px" viewBox="0 0 20 20" version="1.1" xmlns="http://www.w3.org/2000/svg" xmlns:xlink="http://www.w3.org/1999/xlink">
    <title>Associated resources-fillde</title>
    <g id="Associated-resources-fillde" stroke="none" stroke-width="1" fill="none" fill-rule="evenodd" opacity="0.65">
        <g id="Associated-resources">
            <rect id="矩形" x="0" y="0" width="20" height="20"></rect>
            <path d="M5,7.65 L5,8.85 L3.75,8.85 C3.5290861,8.85 3.35,9.0290861 3.35,9.25 L3.35,16.25 C3.35,16.4709139 3.5290861,16.65 3.75,16.65 L11.75,16.65 C11.9709139,16.65 12.15,16.4709139 12.15,16.25 L12.15,9.25 C12.15,9.0290861 11.9709139,8.85 11.75,8.85 L9,8.85 L9,7.65 L11.75,7.65 C12.6336556,7.65 13.35,8.3663444 13.35,9.25 L13.35,16.25 C13.35,17.1336556 12.6336556,17.85 11.75,17.85 L3.75,17.85 C2.8663444,17.85 2.15,17.1336556 2.15,16.25 L2.15,9.25 C2.15,8.3663444 2.8663444,7.65 3.75,7.65 L5,7.65 Z M16.25,2.15 C17.1336556,2.15 17.85,2.8663444 17.85,3.75 L17.85,10.75 C17.85,11.6336556 17.1336556,12.35 16.25,12.35 L15,12.35 L15,11.15 L16.25,11.15 C16.4709139,11.15 16.65,10.9709139 16.65,10.75 L16.65,3.75 C16.65,3.5290861 16.4709139,3.35 16.25,3.35 L8.25,3.35 C8.0290861,3.35 7.85,3.5290861 7.85,3.75 L7.85,10.75 C7.85,10.9709139 8.0290861,11.15 8.25,11.15 L10,11.15 L10,12.35 L8.25,12.35 C7.3663444,12.35 6.65,11.6336556 6.65,10.75 L6.65,3.75 C6.65,2.8663444 7.3663444,2.15 8.25,2.15 L16.25,2.15 Z" id="形状结合" fill="#000000" fill-rule="nonzero"></path>
        </g>
    </g>
</svg>