<?xml version="1.0" encoding="UTF-8"?>
<svg width="14px" height="14px" viewBox="0 0 14 14" version="1.1" xmlns="http://www.w3.org/2000/svg" xmlns:xlink="http://www.w3.org/1999/xlink">
    <title>association</title>
    <g id="页面-1" stroke="none" stroke-width="1" fill="none" fill-rule="evenodd">
        <g id="编组-6">
            <rect id="矩形" x="0" y="0" width="14" height="14"></rect>
            <path d="M12.0899048,7.47619047 C12.3930093,7.47619047 12.6836995,7.59659829 12.8980268,7.81092558 C13.1123541,8.02525286 13.2327619,8.31594305 13.2327619,8.61904761 L13.2327619,12.0902857 C13.2327619,12.3933903 13.1123541,12.6840804 12.8980268,12.8984077 C12.6836995,13.112735 12.3930093,13.2331428 12.0899048,13.2331428 L8.61904762,13.2331428 C8.31594307,13.2331428 8.02525288,13.112735 7.81092559,12.8984077 C7.5965983,12.6840804 7.47619048,12.3933903 7.47619048,12.0902857 L7.47619048,8.61904761 C7.47619048,8.31594305 7.5965983,8.02525286 7.81092559,7.81092558 C8.02525288,7.59659829 8.31594307,7.47619047 8.61904763,7.47619047 L12.0899048,7.47619047 L12.0899048,7.47619047 Z M12.0899048,8.61904761 L8.61904763,8.61904761 L8.61904763,12.0902857 L12.0899048,12.0902857 L12.0899048,8.61904761 Z M4.30133334,7.47580952 L4.30133334,9.93142856 L6.75657144,9.93104761 L6.75657144,11.0739048 L4.30171428,11.0739048 C3.67053171,11.0739048 3.15885714,10.5622302 3.15885714,9.93104761 L3.15847619,7.47619047 L4.30133334,7.47580952 L4.30133334,7.47580952 Z M5.61371428,1 C5.91681884,1 6.20750903,1.12040781 6.42183633,1.3347351 C6.63616362,1.54906239 6.75657144,1.83975258 6.75657144,2.14285714 L6.75657144,5.61409523 C6.75657144,5.9171998 6.63616362,6.20788998 6.42183633,6.42221727 C6.20750903,6.63654456 5.91681884,6.75695237 5.61371428,6.75695237 L2.14285714,6.75695237 C1.51167457,6.75695237 1,6.2452778 1,5.61409523 L1,2.14285714 C1,1.51167457 1.51167457,1 2.14285714,1 L5.61371428,1 L5.61371428,1 Z M9.93104762,3.15885714 C10.5622302,3.15885714 11.0739048,3.67053171 11.0739048,4.30171428 L11.0739048,6.75657142 L9.93104762,6.75619047 L9.93104762,4.30171428 L7.47580953,4.30171428 L7.47580953,3.15885714 L9.93104762,3.15885714 Z M5.61371428,2.14285714 L2.14285714,2.14285714 L2.14285714,5.61409523 L5.61371428,5.61409523 L5.61371428,2.14285714 Z" id="形状" fill="#000000" fill-rule="nonzero"></path>
        </g>
    </g>
</svg>