<?xml version="1.0" encoding="UTF-8"?>
<svg width="14px" height="14px" viewBox="0 0 14 14" version="1.1" xmlns="http://www.w3.org/2000/svg" xmlns:xlink="http://www.w3.org/1999/xlink">
    <title>automatic-collection-outlined</title>
    <g id="automatic-collection-outlined" stroke="none" stroke-width="1" fill="none" fill-rule="evenodd">
        <rect id="矩形" fill-opacity="0" fill="#F0F0F0" x="-1" y="-1" width="16" height="16"></rect>
        <g id="自动采集" transform="translate(0.000000, 0.000000)">
            <rect id="矩形" fill="#D8D8D8" opacity="0" x="0" y="0" width="14" height="14"></rect>
            <path d="M1,5.04154802 C1.14595953,5.04154802 1.29014971,5.07349981 1.42244571,5.13515978 L6.27372285,7.39622312 C6.44987944,7.47832546 6.5625,7.6550672 6.5625,7.84941724 L6.5625,12.4306441 C6.5625,12.9829289 6.11478475,13.4306441 5.5625,13.4306441 C5.41654047,13.4306441 5.27235029,13.3986923 5.14005429,13.3370323 L0.288777147,11.075969 C0.112620558,10.9938667 0,10.8171249 0,10.6227749 L0,6.04154802 C0,5.48926327 0.44771525,5.04154802 1,5.04154802 Z M13,5.04154802 C13.5522847,5.04154802 14,5.48926327 14,6.04154802 L14,10.6227749 C14,10.8171249 13.8873794,10.9938667 13.7112229,11.075969 L8.85994571,13.3370323 C8.72764971,13.3986923 8.58345953,13.4306441 8.4375,13.4306441 C7.88521525,13.4306441 7.4375,12.9829289 7.4375,12.4306441 L7.4375,7.84941724 C7.4375,7.6550672 7.55012056,7.47832546 7.72627715,7.39622312 L12.5775543,5.13515978 C12.7098503,5.07349981 12.8540405,5.04154802 13,5.04154802 Z M1.2,6.35519213 L1.2,10.1771921 L5.362,12.1171921 L5.362,8.29519213 L1.2,6.35519213 Z M12.8,6.35519213 L8.638,8.29519213 L8.638,12.1171921 L12.8,10.1771921 L12.8,6.35519213 Z M4.49847226,1.94171453 C4.63421583,2.24400631 4.49920183,2.59910413 4.19691004,2.7348477 L2.62042215,3.4415 L7.03942215,5.5885 L11.3524221,3.4435 L9.88169842,2.78324063 C9.60966065,2.66101611 9.473154,2.3611422 9.54757491,2.08203908 L9.58029743,1.99004617 C9.71610245,1.68778199 10.0712277,1.55284017 10.3734919,1.68864519 L12.4103729,2.60411712 C12.4861797,2.63538742 12.572519,2.68323157 12.6625131,2.75859488 C12.8492524,2.91497494 12.9769186,3.13305334 12.9730784,3.40341696 C12.9730784,3.66327095 12.8669246,3.87860308 12.7054517,4.04500342 C12.6191535,4.13393503 12.5333595,4.19375882 12.4440048,4.24094473 L7.53098549,6.68541664 C7.22566238,6.8373301 6.86714678,6.83903906 6.56038931,6.69004326 L1.49095214,4.22562006 C1.42500861,4.18678665 1.34678175,4.13043434 1.26573471,4.05073808 C1.09396101,3.88182727 0.977422145,3.67529451 0.977422145,3.40826125 C0.977422145,3.12315381 1.11370547,2.90932997 1.30829709,2.75388034 C1.39882014,2.68156595 1.4847007,2.63500618 1.54236332,2.61143258 L3.7053391,1.6401523 C4.00763088,1.50440873 4.3627287,1.63942274 4.49847226,1.94171453 Z M7.70787197,1.21591696 L7.70787197,2.04186851 L8.68641869,2.04186851 L7.05631488,3.97231834 L5.42621107,2.04186851 L6.44351211,2.04186851 L6.44351211,1.21591696 L7.70787197,1.21591696 Z M7.71029412,0.637024221 L7.70787197,1.0366782 L6.43140138,1.0366782 L6.43140138,0.637024221 L7.71029412,0.637024221 Z M7.70787197,0 L7.69576125,0.406920415 L6.44351211,0.406920415 L6.44351211,0 L7.70787197,0 Z" id="形状结合" fill="#595959" fill-rule="nonzero"></path>
        </g>
    </g>
</svg>