<?xml version="1.0" encoding="UTF-8"?>
<svg width="20px" height="20px" viewBox="0 0 20 20" version="1.1" xmlns="http://www.w3.org/2000/svg" xmlns:xlink="http://www.w3.org/1999/xlink">
    <title>automatic collection-filled</title>
    <g id="automatic-collection-filled" stroke="none" stroke-width="1" fill="none" fill-rule="evenodd">
        <rect id="矩形备份" fill-opacity="0" fill="#CDCDCD" x="0" y="0" width="20" height="20"></rect>
        <g id="容器" transform="translate(2.000000, 2.000000)">
            <rect id="矩形" fill="#D8D8D8" opacity="0" x="0" y="0" width="16" height="16"></rect>
            <path d="M1,5.6804326 C1.14595953,5.6804326 1.29014971,5.7123844 1.42244571,5.77404437 L6.92244571,8.3374618 C7.27475888,8.50166648 7.5,8.85514995 7.5,9.24385003 L7.5,14.4306441 C7.5,14.9829289 7.05228475,15.4306441 6.5,15.4306441 C6.35404047,15.4306441 6.20985029,15.3986923 6.07755429,15.3370323 L0.577554294,12.7736149 C0.225241115,12.6094102 -2.85464876e-16,12.2559268 0,11.8672267 L0,6.6804326 C-6.76353751e-17,6.12814785 0.44771525,5.6804326 1,5.6804326 Z M15,5.6804326 C15.5522847,5.6804326 16,6.12814785 16,6.6804326 L16,11.8672267 C16,12.2559268 15.7747589,12.6094102 15.4224457,12.7736149 L9.92244571,15.3370323 C9.79014971,15.3986923 9.64595953,15.4306441 9.5,15.4306441 C8.94771525,15.4306441 8.5,14.9829289 8.5,14.4306441 L8.5,9.24385003 C8.5,8.85514995 8.72524112,8.50166648 9.07755429,8.3374618 L14.5775543,5.77404437 C14.7098503,5.7123844 14.8540405,5.6804326 15,5.6804326 Z M11.5510265,1.79049951 L14.0402348,2.91443609 C14.2551483,3.0113921 14.4288928,3.18116605 14.5307904,3.3937812 C14.7694808,3.89182268 14.5592353,4.48906191 14.0611938,4.72775236 L8.48399261,7.40067156 C8.21242627,7.53082196 7.89666765,7.53166052 7.62441385,7.40295435 L1.9572906,4.72385969 C1.74248618,4.62231234 1.5708567,4.44759958 1.47314969,4.23102132 C1.24603458,3.72759588 1.47002836,3.13537575 1.9734538,2.90826064 L4.44897346,1.79049951 C4.41676116,1.9518433 4.4,2.1175411 4.4,2.28650122 C4.4,3.94335547 6.0117749,5.28650122 8,5.28650122 C9.9882251,5.28650122 11.6,3.94335547 11.6,2.28650122 C11.6,2.1175411 11.5832388,1.9518433 11.5510265,1.79049951 Z M8.80899654,1.38961938 L8.80899654,2.33356401 L9.92733564,2.33356401 L8.06435986,4.53979239 L6.20138408,2.33356401 L7.36401384,2.33356401 L7.36401384,1.38961938 L8.80899654,1.38961938 Z M8.81176471,0.728027682 L8.80899654,1.18477509 L7.35017301,1.18477509 L7.35017301,0.728027682 L8.81176471,0.728027682 Z M8.80899654,0 L8.79515571,0.465051903 L7.36401384,0.465051903 L7.36401384,0 L8.80899654,0 Z" id="形状结合" fill="#262626"></path>
        </g>
    </g>
</svg>