<?xml version="1.0" encoding="UTF-8"?>
<svg width="14px" height="14px" viewBox="0 0 14 14" version="1.1" xmlns="http://www.w3.org/2000/svg" xmlns:xlink="http://www.w3.org/1999/xlink">
    <title>basic-information-outlined</title>
    <g id="basic-information-outlined" stroke="none" stroke-width="1" fill="none" fill-rule="evenodd">
        <g id="basic-information">
            <rect id="矩形" x="0" y="0" width="14" height="14"></rect>
            <path d="M12,0 C12.5522847,0 13,0.44771525 13,1 L13,13 C13,13.5522847 12.5522847,14 12,14 L2,14 C1.44771525,14 1,13.5522847 1,13 L1,1 C1,0.44771525 1.44771525,0 2,0 L12,0 Z M11.8,1.2 L2.2,1.2 L2.2,12.8 L11.8,12.8 L11.8,1.2 Z M7,9 L7,10.2 L3,10.2 L3,9 L7,9 Z M11,6 L11,7.2 L3,7.2 L3,6 L11,6 Z M4,2.5 C4.55228475,2.5 5,2.94771525 5,3.5 C5,4.05228475 4.55228475,4.5 4,4.5 C3.44771525,4.5 3,4.05228475 3,3.5 C3,2.94771525 3.44771525,2.5 4,2.5 Z M7,2.5 C7.55228475,2.5 8,2.94771525 8,3.5 C8,4.05228475 7.55228475,4.5 7,4.5 C6.44771525,4.5 6,4.05228475 6,3.5 C6,2.94771525 6.44771525,2.5 7,2.5 Z M10,2.5 C10.5522847,2.5 11,2.94771525 11,3.5 C11,4.05228475 10.5522847,4.5 10,4.5 C9.44771525,4.5 9,4.05228475 9,3.5 C9,2.94771525 9.44771525,2.5 10,2.5 Z" id="形状" fill="#595959"></path>
        </g>
    </g>
</svg>