<?xml version="1.0" encoding="UTF-8"?>
<svg width="20px" height="20px" viewBox="0 0 20 20" version="1.1" xmlns="http://www.w3.org/2000/svg" xmlns:xlink="http://www.w3.org/1999/xlink">
    <title>basic information-fillde</title>
    <g id="basic-information-fillde" stroke="none" stroke-width="1" fill="none" fill-rule="evenodd">
        <g id="basic-information">
            <rect id="矩形" x="0" y="0" width="20" height="20"></rect>
            <path d="M16,2 C16.5522847,2 17,2.44771525 17,3 L17,17 C17,17.5522847 16.5522847,18 16,18 L4,18 C3.44771525,18 3,17.5522847 3,17 L3,3 C3,2.44771525 3.44771525,2 4,2 L16,2 Z M9,14 L5,14 L5,15.2 L9,15.2 L9,14 Z M15,11 L5,11 L5,12.2 L15,12.2 L15,11 Z M15,8 L5,8 L5,9.2 L15,9.2 L15,8 Z M6,4 C5.44771525,4 5,4.44771525 5,5 C5,5.55228475 5.44771525,6 6,6 C6.55228475,6 7,5.55228475 7,5 C7,4.44771525 6.55228475,4 6,4 Z M10,4 C9.44771525,4 9,4.44771525 9,5 C9,5.55228475 9.44771525,6 10,6 C10.5522847,6 11,5.55228475 11,5 C11,4.44771525 10.5522847,4 10,4 Z M14,4 C13.4477153,4 13,4.44771525 13,5 C13,5.55228475 13.4477153,6 14,6 C14.5522847,6 15,5.55228475 15,5 C15,4.44771525 14.5522847,4 14,4 Z" id="形状" fill="#000000" opacity="0.649999976"></path>
        </g>
    </g>
</svg>