<?xml version="1.0" encoding="UTF-8"?>
<svg width="16px" height="16px" viewBox="0 0 16 16" version="1.1" xmlns="http://www.w3.org/2000/svg" xmlns:xlink="http://www.w3.org/1999/xlink">
    <title>basic-information-filled</title>
    <g id="basic-information-filled" stroke="none" stroke-width="1" fill="none" fill-rule="evenodd">
        <g id="basic-information">
            <rect id="矩形" x="0" y="0" width="16" height="16"></rect>
            <path d="M14,0 C14.5522847,0 15,0.44771525 15,1 L15,15 C15,15.5522847 14.5522847,16 14,16 L2,16 C1.44771525,16 1,15.5522847 1,15 L1,1 C1,0.44771525 1.44771525,0 2,0 L14,0 Z M7,12 L3,12 L3,13.2 L7,13.2 L7,12 Z M13,9 L3,9 L3,10.2 L13,10.2 L13,9 Z M13,6 L3,6 L3,7.2 L13,7.2 L13,6 Z M4,2 C3.44771525,2 3,2.44771525 3,3 C3,3.55228475 3.44771525,4 4,4 C4.55228475,4 5,3.55228475 5,3 C5,2.44771525 4.55228475,2 4,2 Z M8,2 C7.44771525,2 7,2.44771525 7,3 C7,3.55228475 7.44771525,4 8,4 C8.55228475,4 9,3.55228475 9,3 C9,2.44771525 8.55228475,2 8,2 Z M12,2 C11.4477153,2 11,2.44771525 11,3 C11,3.55228475 11.4477153,4 12,4 C12.5522847,4 13,3.55228475 13,3 C13,2.44771525 12.5522847,2 12,2 Z" id="形状" fill="#595959"></path>
        </g>
    </g>
</svg>