<?xml version="1.0" encoding="UTF-8"?>
<svg width="16px" height="16px" viewBox="0 0 16 16" version="1.1" xmlns="http://www.w3.org/2000/svg" xmlns:xlink="http://www.w3.org/1999/xlink">
    <title>basic information-outlinde</title>
    <g id="basic-information-outlinde" stroke="none" stroke-width="1" fill="none" fill-rule="evenodd" opacity="0.649999976">
        <g id="basic-information">
            <rect id="矩形" x="0" y="0" width="16" height="16"></rect>
            <path d="M13,1 C13.5522847,1 14,1.44771525 14,2 L14,14 C14,14.5522847 13.5522847,15 13,15 L3,15 C2.44771525,15 2,14.5522847 2,14 L2,2 C2,1.44771525 2.44771525,1 3,1 L13,1 Z M12.8,2.2 L3.2,2.2 L3.2,13.8 L12.8,13.8 L12.8,2.2 Z M8,10 L8,11.2 L4,11.2 L4,10 L8,10 Z M12,7 L12,8.2 L4,8.2 L4,7 L12,7 Z M5,3.5 C5.55228475,3.5 6,3.94771525 6,4.5 C6,5.05228475 5.55228475,5.5 5,5.5 C4.44771525,5.5 4,5.05228475 4,4.5 C4,3.94771525 4.44771525,3.5 5,3.5 Z M8,3.5 C8.55228475,3.5 9,3.94771525 9,4.5 C9,5.05228475 8.55228475,5.5 8,5.5 C7.44771525,5.5 7,5.05228475 7,4.5 C7,3.94771525 7.44771525,3.5 8,3.5 Z M11,3.5 C11.5522847,3.5 12,3.94771525 12,4.5 C12,5.05228475 11.5522847,5.5 11,5.5 C10.4477153,5.5 10,5.05228475 10,4.5 C10,3.94771525 10.4477153,3.5 11,3.5 Z" id="形状" fill="#000000" fill-rule="nonzero"></path>
        </g>
    </g>
</svg>