<?xml version="1.0" encoding="UTF-8"?>
<svg width="16px" height="16px" viewBox="0 0 16 16" version="1.1" xmlns="http://www.w3.org/2000/svg" xmlns:xlink="http://www.w3.org/1999/xlink">
    <title>编组 5</title>
    <g id="页面-1" stroke="none" stroke-width="1" fill="none" fill-rule="evenodd" opacity="0.649999976">
        <g id="批量设置分类备份-2" transform="translate(-2.000000, -2.000000)" fill="#000000">
            <g id="编组-4" transform="translate(2.000000, 2.000000)">
                <path d="M14.0218254,2.206188 C14.719852,2.206188 15.2857143,2.72551102 15.2857143,3.36612842 L15.2861036,8.51315221 C14.0792464,8.84406944 13.1111111,8.10694136 13.1111111,6.6 L10.8888889,6.6 C10.8888889,8.27834619 9.64523542,9.09747978 8.11111111,8.26666667 L7,10.1195087 C8.4229383,10.8901084 8.50982334,12.2628386 7,13.0804913 L8.11111111,14.9333333 C9.08823152,14.4041686 9.99349729,14.5409977 10.4908246,15.2064074 L3.54960317,15.206188 C2.85157662,15.206188 2.28571429,14.686865 2.28571429,14.0462476 L2.28571429,3.36612842 C2.28571429,2.72551102 2.85157662,2.206188 3.54960317,2.206188 L14.0218254,2.206188 Z M13.5416667,0 C14.2483791,0 14.8376808,0.454556077 14.9715039,1.05797412 C14.8348723,1.02026546 14.6908867,1 14.5416667,1 L2.45833333,1 C1.65291807,1 1,1.59039374 1,2.31868132 L1,14.6813187 C1,14.7705696 1.00980569,14.8577496 1.02849607,14.9420259 C0.433396185,14.7765011 0,14.2746757 0,13.6813187 L0,1.31868132 C0,0.590393736 0.652918073,0 1.45833333,0 L13.5416667,0 Z" id="形状结合"></path>
                <path d="M12.8888889,7.66666667 C12.8888889,9.06769682 13.9349289,9.63696766 15.1111111,9 L16,10.4822736 C14.7921413,11.1363958 14.8616494,12.2345799 16,12.8510597 L15.1111111,14.3333333 C12.8888889,13.2670657 12.8888889,15.6666667 12.8888889,15.6666667 L11.1111111,15.6666667 C11.1111111,14.2656365 10.0650711,13.6963657 8.88888889,14.3333333 L8,12.8510597 C9.20785867,12.1969375 9.13835064,11.0987534 8,10.4822736 L8.88888889,9 C10.1161883,9.66465049 11.1111111,9.00934362 11.1111111,7.66666667 L12.8888889,7.66666667 Z M12,10.3333333 C11.2636203,10.3333333 10.6666667,10.930287 10.6666667,11.6666667 C10.6666667,12.4030463 11.2636203,13 12,13 C12.7363797,13 13.3333333,12.4030463 13.3333333,11.6666667 C13.3333333,10.930287 12.7363797,10.3333333 12,10.3333333 Z" id="形状"></path>
            </g>
        </g>
    </g>
</svg>