<?xml version="1.0" encoding="UTF-8"?>
<svg width="16px" height="16px" viewBox="0 0 16 16" version="1.1" xmlns="http://www.w3.org/2000/svg" xmlns:xlink="http://www.w3.org/1999/xlink">
    <title>Batch setting categories 2</title>
    <g id="Batch-setting-categories" stroke="none" stroke-width="1" fill="none" fill-rule="evenodd">
        <rect id="矩形" fill="#000000" opacity="0" x="0" y="0" width="16" height="16"></rect>
        <g id="编组-2" transform="translate(8.000000, 8.000000) scale(-1, 1) translate(-8.000000, -8.000000) translate(1.400000, 1.400000)" fill="#595959" fill-rule="nonzero">
            <g id="编组">
                <path d="M11.6204082,0 C12.4762956,0 13.2,0.633241347 13.2,1.45714286 L13.2,10.9928571 C13.2,11.324228 12.9313708,11.5928571 12.6,11.5928571 C12.2686292,11.5928571 12,11.324228 12,10.9928571 L12,1.45714286 C12,1.33427051 11.846548,1.2 11.6204082,1.2 L3.29387755,1.2 C3.06773773,1.2 2.91428571,1.33427051 2.91428571,1.45714286 L2.91,1.5 L9.88571429,1.5 C10.7591194,1.5 11.4857143,2.17070294 11.4857143,3.02307692 L11.4857143,11.6769231 C11.4857143,12.5292971 10.7591194,13.2 9.88571429,13.2 L8.18195465,13.2 C7.8505838,13.2 7.58195465,12.9313708 7.58195465,12.6 C7.58195465,12.2686292 7.8505838,12 8.18195465,12 L9.88571429,12 C10.1168786,12 10.2857143,11.8441517 10.2857143,11.6769231 L10.2857143,3.02307692 C10.2857143,2.85584829 10.1168786,2.7 9.88571429,2.7 L1.6,2.7 C1.36883565,2.7 1.2,2.85584829 1.2,3.02307692 L1.2,4.65254255 C1.2,4.9839134 0.93137085,5.25254255 0.6,5.25254255 C0.26862915,5.25254255 0,4.9839134 0,4.65254255 L0,3.02307692 C0,2.17070294 0.726594849,1.5 1.6,1.5 L1.71585146,1.50082394 C1.71481361,1.48639883 1.71428571,1.47183249 1.71428571,1.45714286 C1.71428571,0.633241347 2.43799011,0 3.29387755,0 L11.6204082,0 Z M4.26666667,5.12 C4.53176335,5.12 4.74666667,5.33490332 4.74666667,5.6 C4.74666667,6.26267776 5.12098932,6.49406089 5.70475377,6.17792017 C5.93066699,6.05557567 6.21285879,6.13280574 6.34498816,6.3531391 L7.01165482,7.46484429 C7.15223887,7.69927631 7.06894849,8.00361196 6.82857956,8.13378502 C6.28729392,8.42692112 6.28042847,8.76936086 6.82857956,9.06621498 C7.06894849,9.19638804 7.15223887,9.50072369 7.01165482,9.73515571 L6.34498816,10.8468609 C6.21285879,11.0671943 5.93066699,11.1444243 5.70475377,11.0220798 C5.12689303,10.7091363 4.74666667,10.9304834 4.74666667,11.6 C4.74666667,11.8650967 4.53176335,12.08 4.26666667,12.08 L2.93333333,12.08 C2.66823665,12.08 2.45333333,11.8650967 2.45333333,11.6 L2.93333333,11.6 C2.45333333,11.5023928 2.43141118,11.3288048 2.37034942,11.1676346 C2.24395402,10.8340188 2.05563457,10.7538321 1.47431443,11.0327614 C1.25084556,11.1399863 0.98248562,11.0594308 0.855011843,10.8468609 L0.188345176,9.73515571 C0.0477611262,9.50072369 0.131051506,9.19638804 0.37142044,9.06621498 C0.912706077,8.77307888 0.919571527,8.43063914 0.37142044,8.13378502 C0.131051506,8.00361196 0.0477611262,7.69927631 0.188345176,7.46484429 L0.855011843,6.3531391 C0.987141209,6.13280574 1.26933301,6.05557567 1.49524623,6.17792017 C2.07310697,6.4908637 2.45333333,6.26951663 2.45333333,5.6 C2.45333333,5.33490332 2.66823665,5.12 2.93333333,5.12 Z M3.839,6.08 L3.363,6.08 L3.34541035,6.15477575 C3.12440279,6.99945222 2.39139419,7.42961078 1.55156306,7.22371564 L1.467,7.2 L1.241,7.577 L1.30673899,7.63734097 C1.89121414,8.21287242 1.88017968,8.99944657 1.29966836,9.56819 L1.24,9.622 L1.471,10.006 L1.53150767,9.98735207 C2.38269246,9.7531179 2.99412878,10.1044336 3.2680795,10.827516 L3.32547065,10.9999172 L3.356,11.12 L3.838,11.12 L3.85458965,11.0452243 C4.07559721,10.2005478 4.80860581,9.77038922 5.64843694,9.97628436 L5.734,9.999 L5.96,9.622 L5.89326101,9.56265903 C5.30878586,8.98712758 5.31982032,8.20055343 5.90033164,7.63181 L5.961,7.577 L5.734,7.199 L5.64269909,7.22573655 C4.79649256,7.43176457 4.07171884,6.98779074 3.85363334,6.14877488 L3.839,6.08 Z M3.6,7.12 C4.41738143,7.12 5.08,7.78261857 5.08,8.6 C5.08,9.41738143 4.41738143,10.08 3.6,10.08 C2.78261857,10.08 2.12,9.41738143 2.12,8.6 C2.12,7.78261857 2.78261857,7.12 3.6,7.12 Z M3.6,8.08 C3.31281193,8.08 3.08,8.31281193 3.08,8.6 C3.08,8.88718807 3.31281193,9.12 3.6,9.12 C3.88718807,9.12 4.12,8.88718807 4.12,8.6 C4.12,8.31281193 3.88718807,8.08 3.6,8.08 Z" id="形状结合"></path>
            </g>
        </g>
    </g>
</svg>