<?xml version="1.0" encoding="UTF-8"?>
<svg width="14px" height="14px" viewBox="0 0 14 14" version="1.1" xmlns="http://www.w3.org/2000/svg" xmlns:xlink="http://www.w3.org/1999/xlink">
    <title>batch-setting-categories-outlined</title>
    <g id="batch-setting-categories-outlined" stroke="none" stroke-width="1" fill="none" fill-rule="evenodd">
        <g id="编组-3" transform="translate(0.400000, 0.400000)" fill="#595959" fill-rule="nonzero">
            <g id="编组" transform="translate(6.600000, 6.600000) scale(-1, 1) translate(-6.600000, -6.600000) ">
                <path d="M11.6204082,0 C12.4762956,0 13.2,0.633241347 13.2,1.45714286 L13.2,10.9928571 C13.2,11.324228 12.9313708,11.5928571 12.6,11.5928571 C12.2686292,11.5928571 12,11.324228 12,10.9928571 L12,1.45714286 C12,1.33427051 11.846548,1.2 11.6204082,1.2 L3.29387755,1.2 C3.06773773,1.2 2.91428571,1.33427051 2.91428571,1.45714286 L2.91,1.5 L9.88571429,1.5 C10.7591194,1.5 11.4857143,2.17070294 11.4857143,3.02307692 L11.4857143,11.6769231 C11.4857143,12.5292971 10.7591194,13.2 9.88571429,13.2 L8.18195465,13.2 C7.8505838,13.2 7.58195465,12.9313708 7.58195465,12.6 C7.58195465,12.2686292 7.8505838,12 8.18195465,12 L9.88571429,12 C10.1168786,12 10.2857143,11.8441517 10.2857143,11.6769231 L10.2857143,3.02307692 C10.2857143,2.85584829 10.1168786,2.7 9.88571429,2.7 L1.6,2.7 C1.36883565,2.7 1.2,2.85584829 1.2,3.02307692 L1.2,4.65254255 C1.2,4.9839134 0.93137085,5.25254255 0.6,5.25254255 C0.26862915,5.25254255 0,4.9839134 0,4.65254255 L0,3.02307692 C0,2.17070294 0.726594849,1.5 1.6,1.5 L1.71585146,1.50082394 C1.71481361,1.48639883 1.71428571,1.47183249 1.71428571,1.45714286 C1.71428571,0.633241347 2.43799011,0 3.29387755,0 L11.6204082,0 Z" id="形状结合"></path>
            </g>
            <path d="M10.2666667,5.12 C10.5317633,5.12 10.7466667,5.33490332 10.7466667,5.6 C10.7466667,6.26951663 11.126893,6.4908637 11.7047538,6.17792017 C11.930667,6.05557567 12.2128588,6.13280574 12.3449882,6.3531391 L13.0116548,7.46484429 C13.1522389,7.69927631 13.0689485,8.00361196 12.8285796,8.13378502 C12.2804285,8.43063914 12.2872939,8.77307888 12.8285796,9.06621498 C13.0689485,9.19638804 13.1522389,9.50072369 13.0116548,9.73515571 L12.3449882,10.8468609 C12.2175144,11.0594308 11.9491544,11.1399863 11.7256856,11.0327614 C11.1443654,10.7538321 10.956046,10.8340188 10.8296506,11.1676346 C10.7889427,11.2750814 10.7612814,11.4192032 10.7466667,11.6 C10.7466667,11.8650967 10.5317633,12.08 10.2666667,12.08 L8.93333333,12.08 C8.66823665,12.08 8.45333333,11.8650967 8.45333333,11.6 C8.45333333,10.9304834 8.07310697,10.7091363 7.49524623,11.0220798 C7.26933301,11.1444243 6.98714121,11.0671943 6.85501184,10.8468609 L6.18834518,9.73515571 C6.04776113,9.50072369 6.13105151,9.19638804 6.37142044,9.06621498 C6.91957153,8.76936086 6.91270608,8.42692112 6.37142044,8.13378502 C6.13105151,8.00361196 6.04776113,7.69927631 6.18834518,7.46484429 L6.85501184,6.3531391 C6.98714121,6.13280574 7.26933301,6.05557567 7.49524623,6.17792017 C8.07901068,6.49406089 8.45333333,6.26267776 8.45333333,5.6 C8.45333333,5.33490332 8.66823665,5.12 8.93333333,5.12 L10.2666667,5.12 Z M9.837,6.08 L9.361,6.08 L9.34636666,6.14877488 C9.12828116,6.98779074 8.40350744,7.43176457 7.55730091,7.22573655 L7.466,7.199 L7.239,7.577 L7.29966836,7.63181 C7.88017968,8.20055343 7.89121414,8.98712758 7.30673899,9.56265903 L7.24,9.622 L7.466,9.999 L7.55156306,9.97628436 C8.39139419,9.77038922 9.12440279,10.2005478 9.34541035,11.0452243 L9.362,11.12 L9.844,11.12 L9.87452935,10.9999172 L9.9319205,10.827516 C10.2058712,10.1044336 10.8173075,9.7531179 11.6684923,9.98735207 L11.729,10.006 L11.96,9.622 L11.9003316,9.56819 C11.3198203,8.99944657 11.3087859,8.21287242 11.893261,7.63734097 L11.959,7.577 L11.733,7.2 L11.6484369,7.22371564 C10.8086058,7.42961078 10.0755972,6.99945222 9.85458965,6.15477575 L9.837,6.08 Z" id="Combined-Shape备份"></path>
            <path d="M9.6,7.12 C10.4173814,7.12 11.08,7.78261857 11.08,8.6 C11.08,9.41738143 10.4173814,10.08 9.6,10.08 C8.78261857,10.08 8.12,9.41738143 8.12,8.6 C8.12,7.78261857 8.78261857,7.12 9.6,7.12 Z M9.6,8.08 C9.31281193,8.08 9.08,8.31281193 9.08,8.6 C9.08,8.88718807 9.31281193,9.12 9.6,9.12 C9.88718807,9.12 10.12,8.88718807 10.12,8.6 C10.12,8.31281193 9.88718807,8.08 9.6,8.08 Z" id="Oval-2"></path>
        </g>
    </g>
</svg>