<?xml version="1.0" encoding="UTF-8"?>
<svg width="20px" height="20px" viewBox="0 0 20 20" version="1.1" xmlns="http://www.w3.org/2000/svg" xmlns:xlink="http://www.w3.org/1999/xlink">
    <title>Batch setting categories</title>
    <g id="Batch-setting-categories" stroke="none" stroke-width="1" fill="none" fill-rule="evenodd">
        <rect id="矩形" fill="#000000" opacity="0" x="0" y="0" width="20" height="20"></rect>
        <path d="M15.5416667,2 C16.2483791,2 16.8376808,2.45455608 16.9715039,3.05797412 C16.8348723,3.02026546 16.6908867,3 16.5416667,3 L4.45833333,3 C3.65291807,3 3,3.59039374 3,4.31868132 L3,16.6813187 C3,16.7705696 3.00980569,16.8577496 3.02849607,16.9420259 C2.43339619,16.7765011 2,16.2746757 2,15.6813187 L2,3.31868132 C2,2.59039374 2.65291807,2 3.45833333,2 Z" id="形状结合" fill="#000000" opacity="0.649999976"></path>
        <path d="M16.0218254,4.206188 C16.719852,4.206188 17.2857143,4.72551102 17.2857143,5.36612842 L17.2861036,10.5131522 C16.0792464,10.8440694 15.1111111,10.1069414 15.1111111,8.6 L12.8888889,8.6 C12.8888889,10.2783462 11.6452354,11.0974798 10.1111111,10.2666667 L9,12.1195087 C10.4229383,12.8901084 10.5098233,14.2628386 9,15.0804913 L10.1111111,16.9333333 C11.0882315,16.4041686 11.9934973,16.5409977 12.4908246,17.2064074 L5.54960317,17.206188 C4.85157662,17.206188 4.28571429,16.686865 4.28571429,16.0462476 L4.28571429,5.36612842 C4.28571429,4.72551102 4.85157662,4.206188 5.54960317,4.206188 L16.0218254,4.206188 Z" id="形状" fill="#000000" opacity="0.649999976"></path>
        <path d="M14.8888889,9.66666667 C14.8888889,11.0676968 15.9349289,11.6369677 17.1111111,11 L18,12.4822736 C16.7921413,13.1363958 16.8616494,14.2345799 18,14.8510597 L17.1111111,16.3333333 C14.8888889,15.2670657 14.8888889,17.6666667 14.8888889,17.6666667 L13.1111111,17.6666667 C13.1111111,16.2656365 12.0650711,15.6963657 10.8888889,16.3333333 L10,14.8510597 C11.2078587,14.1969375 11.1383506,13.0987534 10,12.4822736 L10.8888889,11 C12.1161883,11.6646505 13.1111111,11.0093436 13.1111111,9.66666667 L14.8888889,9.66666667 Z M14,12.3333333 C13.2636203,12.3333333 12.6666667,12.930287 12.6666667,13.6666667 C12.6666667,14.4030463 13.2636203,15 14,15 C14.7363797,15 15.3333333,14.4030463 15.3333333,13.6666667 C15.3333333,12.930287 14.7363797,12.3333333 14,12.3333333 Z" id="形状" fill="#000000" opacity="0.649999976"></path>
    </g>
</svg>