<?xml version="1.0" encoding="UTF-8"?>
<svg width="14px" height="14px" viewBox="0 0 14 14" version="1.1" xmlns="http://www.w3.org/2000/svg" xmlns:xlink="http://www.w3.org/1999/xlink">
    <title>close-at-once-outlined</title>
    <g id="close-at-once-outlined" stroke="none" stroke-width="1" fill="none" fill-rule="evenodd">
        <g id="close-at-once">
            <rect id="矩形" x="0" y="0" width="14" height="14"></rect>
            <path d="M10.3842247,0.273500988 L11.6,0.275 C12.4836556,0.275 13.2,0.9913444 13.2,1.875 L13.2,12.4 C13.2,13.2836556 12.4836556,14 11.6,14 L2.4,14 C1.5163444,14 0.8,13.2836556 0.8,12.4 L0.8,1.875 C0.8,0.9913444 1.5163444,0.275 2.3992667,0.275000448 L3.62614805,0.273500988 L3.6,0.925 C3.6,1.65919326 4.16748545,2.26747507 4.87277417,2.31991907 L5,2.325 L9,2.325 C9.77319865,2.325 10.4,1.69819865 10.4,0.925 L10.3842247,0.273500988 Z M2.463,1.47426425 L2.4,1.475 C2.20670034,1.475 2.04542508,1.6121128 2.00812658,1.79438605 L2,1.875 L2,12.4 C2,12.6209139 2.1790861,12.8 2.4,12.8 L11.6,12.8 C11.8209139,12.8 12,12.6209139 12,12.4 L12,1.875 C12,1.6540861 11.8209139,1.475 11.599265,1.47499955 L11.54,1.47426425 L11.5205936,1.56518784 C11.2353928,2.69156084 10.2150264,3.525 9,3.525 L4.97796349,3.52459519 L4.80659127,3.51788797 C3.67903369,3.43469985 2.75949481,2.63662713 2.48457235,1.56999917 L2.463,1.47426425 Z M10.5535082,5.57198526 C10.7603378,5.77519013 10.7632763,6.10758875 10.5600714,6.31441837 L6.61016559,10.3347822 C6.40633373,10.5422499 6.07267937,10.5444718 5.86610258,10.339737 L3.75543517,8.24788981 C3.54949381,8.04378478 3.54800518,7.7113765 3.75211022,7.50543514 C3.95621526,7.29949378 4.28862354,7.29800515 4.49456489,7.50211019 L6.23025003,9.2224834 L9.81107511,5.57854844 C10.01428,5.37171882 10.3466786,5.36878039 10.5535082,5.57198526 Z M8.75,2.66453526e-14 C9.23324916,2.66453526e-14 9.625,0.391750844 9.625,0.875 C9.625,1.35824916 9.23324916,1.75 8.75,1.75 L5.25,1.75 C4.76675084,1.75 4.375,1.35824916 4.375,0.875 C4.375,0.391750844 4.76675084,2.66453526e-14 5.25,2.66453526e-14 L8.75,2.66453526e-14 Z" id="形状" fill="#595959"></path>
        </g>
    </g>
</svg>