<?xml version="1.0" encoding="UTF-8"?>
<svg width="16px" height="16px" viewBox="0 0 16 16" version="1.1" xmlns="http://www.w3.org/2000/svg" xmlns:xlink="http://www.w3.org/1999/xlink">
    <title>close-at-once-filled</title>
    <g id="close-at-once-filled" stroke="none" stroke-width="1" fill="none" fill-rule="evenodd">
        <g id="编组">
            <rect id="矩形" x="0" y="0" width="16" height="16"></rect>
            <path d="M4,1 C4,2.1045695 4.8954305,3 6,3 L10,3 C11.1045695,3 12,2.1045695 12,1 L14,1 C14.5522847,1 15,1.44771525 15,2 L15,15 C15,15.5522847 14.5522847,16 14,16 L2,16 C1.44771525,16 1,15.5522847 1,15 L1,2 C1,1.44771525 1.44771525,1 2,1 L4,1 Z M11.8918627,6.37548393 L7.79949118,10.539981 L5.81585102,8.57384021 C5.58048947,8.34057731 5.20059429,8.34227861 4.96733139,8.57764016 C4.73406849,8.81300171 4.73576979,9.19289689 4.97113134,9.42615979 L7.38332266,11.8168423 C7.61941042,12.0508249 8.00072969,12.0482856 8.23368039,11.8111796 L12.7478585,7.21647813 C12.9800926,6.98010143 12.9767344,6.60021729 12.7403577,6.36798315 C12.503981,6.13574901 12.1240968,6.13910723 11.8918627,6.37548393 Z M10,0 C10.5522847,-1.01453063e-16 11,0.44771525 11,1 C11,1.55228475 10.5522847,2 10,2 L6,2 C5.44771525,2 5,1.55228475 5,1 C5,0.44771525 5.44771525,1.01453063e-16 6,0 L10,0 Z" id="形状结合" fill="#595959"></path>
        </g>
    </g>
</svg>