<?xml version="1.0" encoding="UTF-8"?>
<svg width="16px" height="16px" viewBox="0 0 16 16" version="1.1" xmlns="http://www.w3.org/2000/svg" xmlns:xlink="http://www.w3.org/1999/xlink">
    <title>close at once-outlinde</title>
    <g id="close-at-once-outlinde" stroke="none" stroke-width="1" fill="none" fill-rule="evenodd" opacity="0.65">
        <g id="close-at-once">
            <rect id="矩形" x="0" y="0" width="16" height="16"></rect>
            <path d="M11.3842247,1.27350099 L12.6,1.275 C13.4836556,1.275 14.2,1.9913444 14.2,2.875 L14.2,13.4 C14.2,14.2836556 13.4836556,15 12.6,15 L3.4,15 C2.5163444,15 1.8,14.2836556 1.8,13.4 L1.8,2.875 C1.8,1.9913444 2.5163444,1.275 3.3992667,1.27500045 L4.62614805,1.27350099 L4.6,1.925 C4.6,2.65919326 5.16748545,3.26747507 5.87277417,3.31991907 L6,3.325 L10,3.325 C10.7731986,3.325 11.4,2.69819865 11.4,1.925 L11.3842247,1.27350099 Z M3.463,2.47426425 L3.4,2.475 C3.20670034,2.475 3.04542508,2.6121128 3.00812658,2.79438605 L3,2.875 L3,13.4 C3,13.6209139 3.1790861,13.8 3.4,13.8 L12.6,13.8 C12.8209139,13.8 13,13.6209139 13,13.4 L13,2.875 C13,2.6540861 12.8209139,2.475 12.599265,2.47499955 L12.54,2.47426425 L12.5205936,2.56518784 C12.2353928,3.69156084 11.2150264,4.525 10,4.525 L5.97796349,4.52459519 L5.80659127,4.51788797 C4.67903369,4.43469985 3.75949481,3.63662713 3.48457235,2.56999917 L3.463,2.47426425 Z M11.5535082,6.57198526 C11.7603378,6.77519013 11.7632763,7.10758875 11.5600714,7.31441837 L7.61016559,11.3347822 C7.40633373,11.5422499 7.07267937,11.5444718 6.86610258,11.339737 L4.75543517,9.24788981 C4.54949381,9.04378478 4.54800518,8.7113765 4.75211022,8.50543514 C4.95621526,8.29949378 5.28862354,8.29800515 5.49456489,8.50211019 L7.23025003,10.2224834 L10.8110751,6.57854844 C11.01428,6.37171882 11.3466786,6.36878039 11.5535082,6.57198526 Z M9.75,1 C10.2332492,1 10.625,1.39175084 10.625,1.875 C10.625,2.35824916 10.2332492,2.75 9.75,2.75 L6.25,2.75 C5.76675084,2.75 5.375,2.35824916 5.375,1.875 C5.375,1.39175084 5.76675084,1 6.25,1 L9.75,1 Z" id="形状" fill="#000000" fill-rule="nonzero"></path>
        </g>
    </g>
</svg>