<?xml version="1.0" encoding="UTF-8"?>
<svg width="20px" height="20px" viewBox="0 0 20 20" version="1.1" xmlns="http://www.w3.org/2000/svg" xmlns:xlink="http://www.w3.org/1999/xlink">
    <title>close at once-fillde</title>
    <g id="close-at-once-fillde" stroke="none" stroke-width="1" fill="none" fill-rule="evenodd">
        <g id="编组">
            <rect id="矩形" x="0" y="0" width="20" height="20"></rect>
            <path d="M6,3 C6,4.1045695 6.8954305,5 8,5 L12,5 C13.1045695,5 14,4.1045695 14,3 L16,3 C16.5522847,3 17,3.44771525 17,4 L17,17 C17,17.5522847 16.5522847,18 16,18 L4,18 C3.44771525,18 3,17.5522847 3,17 L3,4 C3,3.44771525 3.44771525,3 4,3 L6,3 Z M13.8918627,8.37548393 L9.79949118,12.539981 L7.81585102,10.5738402 C7.58048947,10.3405773 7.20059429,10.3422786 6.96733139,10.5776402 C6.73406849,10.8130017 6.73576979,11.1928969 6.97113134,11.4261598 L9.38332266,13.8168423 C9.61941042,14.0508249 10.0007297,14.0482856 10.2336804,13.8111796 L14.7478585,9.21647813 C14.9800926,8.98010143 14.9767344,8.60021729 14.7403577,8.36798315 C14.503981,8.13574901 14.1240968,8.13910723 13.8918627,8.37548393 Z M12,2 C12.5522847,2 13,2.44771525 13,3 C13,3.55228475 12.5522847,4 12,4 L8,4 C7.44771525,4 7,3.55228475 7,3 C7,2.44771525 7.44771525,2 8,2 L12,2 Z" id="形状结合" fill="#000000" opacity="0.649999976"></path>
        </g>
    </g>
</svg>