<?xml version="1.0" encoding="UTF-8"?>
<svg width="14px" height="14px" viewBox="0 0 14 14" version="1.1" xmlns="http://www.w3.org/2000/svg" xmlns:xlink="http://www.w3.org/1999/xlink">
    <title>编组 17</title>
    <g id="页面-1" stroke="none" stroke-width="1" fill="none" fill-rule="evenodd">
        <g id="组件巡检备份-2" transform="translate(-1.000000, -1.000000)" fill="#595959" fill-rule="nonzero">
            <g id="编组-16" transform="translate(1.000000, 1.000000)">
                <path d="M5.6,0 L5.6,5.6 L0,5.6 L0,0 L5.6,0 Z M4.399,1.2 L1.2,1.2 L1.2,4.399 L4.399,4.399 L4.399,1.2 Z" id="Rectangle-Copy-23"></path>
                <path d="M5.6,8.4 L5.6,14 L0,14 L0,8.4 L5.6,8.4 Z M4.399,9.6 L1.2,9.6 L1.2,12.799 L4.399,12.799 L4.399,9.6 Z" id="Rectangle-Copy-25"></path>
                <path d="M14,0 L14,5.6 L8.4,5.6 L8.4,0 L14,0 Z M12.799,1.2 L9.6,1.2 L9.6,4.399 L12.799,4.399 L12.799,1.2 Z" id="Rectangle-Copy-24"></path>
                <path d="M6.0375,1.5 C9.02674121,1.5 11.45,3.92325879 11.45,6.9125 C11.45,8.19091762 11.0067759,9.36581471 10.2656097,10.2919092 L12.5867641,12.6132359 C12.8210786,12.8475505 12.8210786,13.2274495 12.5867641,13.4617641 C12.3524495,13.6960786 11.9725505,13.6960786 11.7382359,13.4617641 L9.41690923,11.1406097 C8.49081471,11.8817759 7.31591762,12.325 6.0375,12.325 C3.04825879,12.325 0.625,9.90174121 0.625,6.9125 C0.625,3.92325879 3.04825879,1.5 6.0375,1.5 Z M6.0375,2.7 C3.71100049,2.7 1.825,4.58600049 1.825,6.9125 C1.825,9.23899951 3.71100049,11.125 6.0375,11.125 C8.36399951,11.125 10.25,9.23899951 10.25,6.9125 C10.25,4.58600049 8.36399951,2.7 6.0375,2.7 Z" id="形状结合"></path>
            </g>
        </g>
    </g>
</svg>