<?xml version="1.0" encoding="UTF-8"?>
<svg width="14px" height="14px" viewBox="0 0 14 14" version="1.1" xmlns="http://www.w3.org/2000/svg" xmlns:xlink="http://www.w3.org/1999/xlink">
    <title>component-cleanup-outlined</title>
    <g id="component-cleanup-outlined" stroke="none" stroke-width="1" fill="none" fill-rule="evenodd">
        <g id="形状结合-2" transform="translate(0.100000, 0.000000)" fill="#595959" fill-rule="nonzero">
            <path d="M8.18987049,0 C8.76631392,0 9.23242368,0.466109758 9.23242368,1.04255319 L9.23145236,3.36725254 L12.5932007,3.36725254 C13.1312146,3.36725254 13.5731156,3.77328593 13.6296445,4.29609358 L13.6357539,4.40980574 L13.6357539,7.61517114 C13.6357539,7.95849709 13.3574333,8.23681776 13.0141073,8.23681776 L13.0196942,8.27108564 C13.0264306,8.31148635 13.0334554,8.35363866 13.0407811,8.39761818 L13.0884491,8.68402657 C13.1570935,9.09675255 13.2466288,9.63609667 13.3635641,10.3407666 L13.3694462,10.3761332 C13.5613541,11.529927 13.6911885,12.3029106 13.7735244,12.7776881 C13.8743518,13.3463546 13.4917276,13.8885093 12.9484769,13.9797255 C12.8797087,13.9944615 12.8143545,14 12.7469935,14 L1.04255319,14 C0.466109758,14 0,13.5338902 0,12.9574468 C0,12.8937116 0.00539306777,12.8300734 0.0156186012,12.7799904 L0.763589269,8.46682701 L0.669857326,8.41839902 C0.391843142,8.25567352 0.19624221,7.96784164 0.159902166,7.63175101 L0.153792784,7.51803885 L0.153792784,4.40980574 C0.153792784,3.8333623 0.619902542,3.36725254 1.19634598,3.36725254 L4.55666975,3.36725254 L4.55712303,1.04255319 C4.55712303,0.50453932 4.96315642,0.0626383396 5.48596407,0.00610938163 L5.59967623,0 L8.18987049,0 Z M11.7530757,8.2344665 L2.065,8.236 L1.28059204,12.7561887 L3.682,12.756 L3.68293247,10.1017576 L4.92622572,10.1017576 L4.926,12.756 L8.863,12.756 L8.863321,10.1017576 L10.1066142,10.1017576 L10.106,12.756 L12.5075301,12.7561887 L12.5032536,12.7270946 C12.4286973,12.2911293 12.3264074,11.6816569 12.189813,10.8614013 L12.1430019,10.5801248 L12.1371157,10.5447331 C12.0786009,10.1921205 12.0269751,9.88107275 11.9814175,9.60670697 L11.9175296,9.22205935 C11.8976823,9.10260704 11.8792494,8.99171484 11.8621283,8.88877236 L11.814598,8.60318372 C11.7911011,8.46211652 11.7707363,8.34005888 11.7530757,8.2344665 Z M7.98815911,1.24329325 L5.799963,1.24329325 L5.80041628,3.98889917 C5.80041628,4.29789252 5.57497654,4.5542316 5.27960397,4.60240949 L5.17876966,4.61054579 L1.39663275,4.61054579 L1.396,6.993 L12.391,6.993 L12.3914894,4.61054579 L8.61077706,4.61054579 C8.3017837,4.61054579 8.04544462,4.38510605 7.99726674,4.08973348 L7.98913043,3.98889917 L7.98815911,1.24329325 Z" id="形状结合"></path>
        </g>
    </g>
</svg>