<?xml version="1.0" encoding="UTF-8"?>
<svg width="14px" height="14px" viewBox="0 0 14 14" version="1.1" xmlns="http://www.w3.org/2000/svg" xmlns:xlink="http://www.w3.org/1999/xlink">
    <title>形状结合 2</title>
    <g id="页面-1" stroke="none" stroke-width="1" fill="none" fill-rule="evenodd">
        <g id="组件清理备份-3" transform="translate(-1.000000, -1.000000)" fill="#595959" fill-rule="nonzero">
            <g id="形状结合-2" transform="translate(1.345313, 1.150000)">
                <path d="M7.9046875,0 C8.46105835,0 8.9109375,0.44987915 8.9109375,1.00625 L8.91,3.25 L12.1546875,3.25 C12.673967,3.25 13.1004803,3.64189473 13.1550409,4.14649746 L13.1609375,4.25625 L13.1609375,7.35 C13.1609375,7.68137085 12.8923083,7.95 12.5609375,7.95 L12.5663298,7.98307462 C12.5728317,8.02206852 12.5796118,8.06275303 12.5866825,8.10520112 L12.6326906,8.38163636 C12.6989447,8.77999063 12.7853622,9.30055401 12.8982257,9.98068634 C12.9010643,9.9977543 12.9010643,9.9977543 12.903903,10.0148214 C13.0891284,11.1284385 13.2144417,11.8745056 13.2939106,12.3327508 C13.391227,12.8816154 13.0219264,13.4048915 12.4975925,13.4929314 C12.4312188,13.5071544 12.3681404,13.5125 12.303125,13.5125 L1.00625,13.5125 C0.44987915,13.5125 0,13.0626208 0,12.50625 C0,12.4447342 0.00520527344,12.3833119 0.0150747392,12.3349729 L0.737,8.172 L0.646531937,8.12525834 C0.378198604,7.96819917 0.189408776,7.69039001 0.154334144,7.36600254 L0.1484375,7.25625 L0.1484375,4.25625 C0.1484375,3.69987915 0.59831665,3.25 1.1546875,3.25 L4.398,3.25 L4.3984375,1.00625 C4.3984375,0.48697054 4.79033223,0.0604571831 5.29493496,0.00589664424 L5.4046875,0 L7.9046875,0 Z M11.3439254,7.94838017 L1.993,7.95 L1.236,12.312 L3.554,12.312 L3.5546875,9.75 L4.7546875,9.75 L4.754,12.312 L8.554,12.312 L8.5546875,9.75 L9.7546875,9.75 L9.754,12.312 L12.072,12.312 L12.0678724,12.283919 C11.9959123,11.8631346 11.8971842,11.274885 11.7653463,10.4831918 L11.7201653,10.2117098 L11.714484,10.1775504 C11.6580067,9.83721626 11.6081786,9.53699968 11.5642074,9.27218771 L11.5025442,8.90093407 C11.483388,8.78564126 11.4655969,8.67861048 11.4490721,8.5792526 L11.4031968,8.30360857 C11.3805663,8.1677427 11.3609459,8.0501466 11.3439254,7.94838017 Z M7.71,1.2 L5.598,1.2 L5.5984375,3.85 C5.5984375,4.14823376 5.38084789,4.39564675 5.09576062,4.44214701 L4.9984375,4.45 L1.348,4.45 L1.347,6.75 L11.835,6.75 L11.8460061,6.74993179 C11.8504445,6.74988725 11.8548753,6.74989217 11.859298,6.74994611 L11.96,6.75 L11.96,4.45 L8.3109375,4.45 C8.01270374,4.45 7.76529075,4.23241039 7.71879049,3.94732312 L7.7109375,3.85 L7.71,1.2 Z" id="形状结合"></path>
            </g>
        </g>
    </g>
</svg>