<?xml version="1.0" encoding="UTF-8"?>
<svg width="14px" height="14px" viewBox="0 0 14 14" version="1.1" xmlns="http://www.w3.org/2000/svg" xmlns:xlink="http://www.w3.org/1999/xlink">
    <title>copy-outlined</title>
    <g id="copy-outlined" stroke="none" stroke-width="1" fill="none" fill-rule="evenodd">
        <rect id="矩形" fill-opacity="0.03" fill="#F0F0F0" x="-1" y="-1" width="16" height="16"></rect>
        <g id="copy" transform="translate(0.000000, -0.600000)">
            <rect id="矩形" fill-opacity="0" fill="#D8D8D8" x="0" y="0.6" width="14" height="14"></rect>
            <g id="图形" transform="translate(0.500000, 0.000000)" fill="#262626" fill-rule="nonzero">
                <path d="M9.31921569,2 C10.2028713,2 10.9192157,2.7163444 10.9192157,3.6 L10.9192157,12.9756863 C10.9192157,13.8593419 10.2028713,14.5756863 9.31921569,14.5756863 L1.6,14.5756863 C0.7163444,14.5756863 0,13.8593419 0,12.9756863 L0,3.6 C0,2.7163444 0.7163444,2 1.6,2 L9.31921569,2 Z M9.31921569,3.2 L1.6,3.2 C1.3790861,3.2 1.2,3.3790861 1.2,3.6 L1.2,12.9756863 C1.2,13.1966002 1.3790861,13.3756863 1.6,13.3756863 L9.31921569,13.3756863 C9.54012959,13.3756863 9.71921569,13.1966002 9.71921569,12.9756863 L9.71921569,3.6 C9.71921569,3.3790861 9.54012959,3.2 9.31921569,3.2 Z M11.3176471,0 C12.2013027,0 12.9176471,0.7163444 12.9176471,1.6 L12.9176471,10.9756863 C12.9176471,11.3070571 12.6490179,11.5756863 12.3176471,11.5756863 C11.9862762,11.5756863 11.7176471,11.3070571 11.7176471,10.9756863 L11.7176471,1.6 C11.7176471,1.3790861 11.538561,1.2 11.3176471,1.2 L3.59843137,1.2 C3.26706052,1.2 2.99843137,0.93137085 2.99843137,0.6 C2.99843137,0.26862915 3.26706052,0 3.59843137,0 L11.3176471,0 Z M5.59843137,10.3 L5.59843137,11.5 L2.39843137,11.5 L2.39843137,10.3 L5.59843137,10.3 Z M8.59843137,7.9 L8.59843137,9.1 L2.39843137,9.1 L2.39843137,7.9 L8.59843137,7.9 Z M8.59843137,5.6 L8.59843137,6.8 L2.39843137,6.8 L2.39843137,5.6 L8.59843137,5.6 Z" id="形状结合"></path>
            </g>
        </g>
    </g>
</svg>