<?xml version="1.0" encoding="UTF-8"?>
<svg width="16px" height="16px" viewBox="0 0 16 16" version="1.1" xmlns="http://www.w3.org/2000/svg" xmlns:xlink="http://www.w3.org/1999/xlink">
    <title>copy-filled</title>
    <g id="copy-filled" stroke="none" stroke-width="1" fill="none" fill-rule="evenodd">
        <rect id="矩形备份" fill-opacity="0" fill="#CDCDCD" x="-2" y="-2" width="20" height="20"></rect>
        <g id="copy">
            <rect id="矩形" fill-opacity="0" fill="#D8D8D8" x="0" y="0" width="16" height="16"></rect>
            <g id="图形" transform="translate(1.000000, 0.250000)" fill="#262626">
                <path d="M10.5,2.25 C11.0522847,2.25 11.5,2.69771525 11.5,3.25 L11.5,14.75 C11.5,15.3022847 11.0522847,15.75 10.5,15.75 L1,15.75 C0.44771525,15.75 6.76353751e-17,15.3022847 0,14.75 L0,3.25 C-6.76353751e-17,2.69771525 0.44771525,2.25 1,2.25 L10.5,2.25 Z M11.8219608,0 C12.8673569,0 13.7148179,0.847461009 13.7148179,1.89285714 L13.7148179,12.6079272 C13.7148179,13.0221407 13.3790315,13.3579272 12.9648179,13.3579272 C12.5506044,13.3579272 12.2148179,13.0221407 12.2148179,12.6079272 L12.2148179,1.89285714 C12.2148179,1.67588813 12.0389298,1.5 11.8219608,1.5 L3,1.5 C2.58578644,1.5 2.25,1.16421356 2.25,0.75 C2.25,0.335786438 2.58578644,0 3,0 L11.8219608,0 Z M5.96963585,10.8357143 L2.312493,10.8357143 L2.312493,12.0357143 L5.96963585,12.0357143 L5.96963585,10.8357143 Z M9.39820728,8.09285714 L2.312493,8.09285714 L2.312493,9.29285714 L9.39820728,9.29285714 L9.39820728,8.09285714 Z M9.39820728,5.46428571 L2.312493,5.46428571 L2.312493,6.66428571 L9.39820728,6.66428571 L9.39820728,5.46428571 Z" id="形状结合"></path>
            </g>
        </g>
    </g>
</svg>