<?xml version="1.0" encoding="UTF-8"?>
<svg width="14px" height="14px" viewBox="0 0 14 14" version="1.1" xmlns="http://www.w3.org/2000/svg" xmlns:xlink="http://www.w3.org/1999/xlink">
    <title>deployment-record-outlined</title>
    <g id="deployment-record-outlined" stroke="none" stroke-width="1" fill="none" fill-rule="evenodd">
        <rect id="矩形" fill-opacity="0" fill="#F0F0F0" x="-1" y="-1" width="16" height="16"></rect>
        <g id="部署记录" transform="translate(0.900000, -0.100000)" fill="#262626" fill-rule="nonzero">
            <g id="图标">
                <path d="M10.6,0 C11.4836556,0 12.2,0.7163444 12.2,1.6 L12.2,6.14641495 C12.2,6.4777858 11.9313708,6.74641495 11.6,6.74641495 C11.2686292,6.74641495 11,6.4777858 11,6.14641495 L11,1.6 C11,1.3790861 10.8209139,1.2 10.6,1.2 L1.6,1.2 C1.3790861,1.2 1.2,1.3790861 1.2,1.6 L1.2,12.6 C1.2,12.8209139 1.3790861,13 1.6,13 L4.12,13 C4.45137085,13 4.72,13.2686292 4.72,13.6 C4.72,13.9313708 4.45137085,14.2 4.12,14.2 L1.6,14.2 C0.7163444,14.2 0,13.4836556 0,12.6 L0,1.6 C0,0.7163444 0.7163444,0 1.6,0 L10.6,0 Z M7.61016969,7.18518338 C8.2999884,6.97383798 9.08246408,7.15929711 9.63347352,7.70219949 C10.2729122,8.33233503 10.4187677,9.2582123 10.1298752,10.0372825 L12.8623747,12.7312272 C13.1713487,13.0347703 13.1801564,13.543985 12.882104,13.8581663 C12.5840515,14.1727022 12.0865929,14.1815673 11.7776189,13.8780243 L9.04511945,11.1840796 C8.29329456,11.528757 7.3811696,11.3901059 6.7417309,10.7599703 C6.19072146,10.217068 5.98180292,9.4248773 6.16465068,8.7142461 C6.24462456,8.35928511 7.6693574,10.5667098 8.56210543,9.60040745 C9.47599192,8.63410506 7.26526033,7.28021789 7.61016969,7.18518338 Z M6.1,5.4 L6.1,6.6 L2.9,6.6 L2.9,5.4 L6.1,5.4 Z M9.1,3.1 L9.1,4.3 L2.9,4.3 L2.9,3.1 L9.1,3.1 Z" id="形状结合"></path>
            </g>
        </g>
    </g>
</svg>