<?xml version="1.0" encoding="UTF-8"?>
<svg width="14px" height="14px" viewBox="0 0 14 14" version="1.1" xmlns="http://www.w3.org/2000/svg" xmlns:xlink="http://www.w3.org/1999/xlink">
    <title>deployment-record-outlined</title>
    <g id="deployment-record-outlined" stroke="none" stroke-width="1" fill="none" fill-rule="evenodd">
        <rect id="矩形" fill-opacity="0" fill="#F0F0F0" x="-1" y="-1" width="16" height="16"></rect>
        <g id="部署记录" transform="translate(0.900000, 0.000000)" fill="#595959" fill-rule="nonzero">
            <g id="图标">
                <path d="M10.6,0 C11.4836556,0 12.2,0.7163444 12.2,1.6 L12.2,6.04641495 C12.2,6.3777858 11.9313708,6.64641495 11.6,6.64641495 C11.2686292,6.64641495 11,6.3777858 11,6.04641495 L11,1.6 C11,1.3790861 10.8209139,1.2 10.6,1.2 L1.6,1.2 C1.3790861,1.2 1.2,1.3790861 1.2,1.6 L1.2,12.4 C1.2,12.6209139 1.3790861,12.8 1.6,12.8 L4.12,12.8 C4.45137085,12.8 4.72,13.0686292 4.72,13.4 C4.72,13.7313708 4.45137085,14 4.12,14 L1.6,14 C0.7163444,14 0,13.2836556 0,12.4 L0,1.6 C0,0.7163444 0.7163444,0 1.6,0 L10.6,0 Z M7.61016969,7.08518338 C8.2999884,6.87383798 9.08246408,7.05929711 9.63347352,7.60219949 C10.2729122,8.23233503 10.4187677,9.1582123 10.1298752,9.93728252 L12.8623747,12.6312272 C13.1713487,12.9347703 13.1801564,13.443985 12.882104,13.7581663 C12.5840515,14.0727022 12.0865929,14.0815673 11.7776189,13.7780243 L9.04511945,11.0840796 C8.29329456,11.428757 7.3811696,11.2901059 6.7417309,10.6599703 C6.19072146,10.117068 5.98180292,9.3248773 6.16465068,8.6142461 C6.24462456,8.25928511 7.6693574,10.4667098 8.56210543,9.50040745 C9.47599192,8.53410506 7.26526033,7.18021789 7.61016969,7.08518338 Z M6.1,5.3 L6.1,6.5 L2.9,6.5 L2.9,5.3 L6.1,5.3 Z M9.1,3 L9.1,4.2 L2.9,4.2 L2.9,3 L9.1,3 Z" id="形状结合"></path>
            </g>
        </g>
    </g>
</svg>