<?xml version="1.0" encoding="UTF-8"?>
<svg width="20px" height="20px" viewBox="0 0 20 20" version="1.1" xmlns="http://www.w3.org/2000/svg" xmlns:xlink="http://www.w3.org/1999/xlink">
    <title>deployment record-filled</title>
    <g id="deployment-record-filled" stroke="none" stroke-width="1" fill="none" fill-rule="evenodd">
        <rect id="矩形" fill-opacity="0" fill="#FFFFFF" x="0" y="0" width="20" height="20"></rect>
        <g id="图标" transform="translate(3.714286, 2.571429)" fill="#262626">
            <path d="M8.0116225,7.52592386 C8.79998675,7.28438626 9.69424467,7.49633956 10.3239697,8.11679941 C11.0547568,8.83695432 11.2214488,9.89509977 10.891286,10.7854657 L14.0141425,13.8642597 C14.3672556,14.211166 14.3773216,14.7931258 14.0366902,15.1521901 C13.6960589,15.5116596 13.1275347,15.5217912 12.7744216,15.1748849 L9.65156509,12.0960909 C8.79233664,12.490008 7.74990811,12.3315496 7.01912103,11.6113947 C6.38939596,10.9909348 6.15063191,10.0855741 6.35960078,9.27342412 C6.4509995,8.86775442 8.0792656,11.3905255 9.09954906,10.2861799 C10.1439908,9.18183436 7.61744037,7.63453473 8.0116225,7.52592386 Z M11.5714286,0 C12.1237133,8.7960173e-16 12.5714286,0.44771525 12.5714286,1 L12.5720905,6.98076574 C11.8868769,6.62782323 11.1095645,6.42857143 10.2857143,6.42857143 C7.52429054,6.42857143 5.28571429,8.66714768 5.28571429,11.4285714 C5.28571429,12.7560259 5.80301731,13.9626577 6.64702976,14.8578733 L1,14.8571429 C0.44771525,14.8571429 2.02974496e-15,14.4094276 0,13.8571429 L0,1 C-6.76353751e-17,0.44771525 0.44771525,1.01453063e-16 1,0 L11.5714286,0 Z M6.28571429,5.48571429 L2.62857143,5.48571429 L2.62857143,6.68571429 L6.28571429,6.68571429 L6.28571429,5.48571429 Z M9.71428571,2.85714286 L2.62857143,2.85714286 L2.62857143,4.05714286 L9.71428571,4.05714286 L9.71428571,2.85714286 Z" id="形状结合"></path>
        </g>
    </g>
</svg>