<?xml version="1.0" encoding="UTF-8"?>
<svg width="16px" height="16px" viewBox="0 0 16 16" version="1.1" xmlns="http://www.w3.org/2000/svg" xmlns:xlink="http://www.w3.org/1999/xlink">
    <title>details-filled</title>
    <g id="details-filled" stroke="none" stroke-width="1" fill="none" fill-rule="evenodd">
        <rect id="矩形备份" fill-opacity="0" fill="#CDCDCD" x="-2" y="-2" width="20" height="20"></rect>
        <g id="详情">
            <rect id="矩形" fill-opacity="0" fill="#F0F0F0" x="0" y="0" width="16" height="16"></rect>
            <g id="图标" transform="translate(1.714286, 0.000000)" fill="#595959" fill-rule="nonzero">
                <path d="M11.5714286,0 C12.1237133,-1.01453063e-16 12.5714286,0.44771525 12.5714286,1 L12.5714286,12.5714286 L10.8571429,14.2222222 L9.14285714,16 L1,16 C0.44771525,16 5.11724585e-16,15.5522847 0,15 L0,1 C-6.76353751e-17,0.44771525 0.44771525,1.01453063e-16 1,0 L11.5714286,0 Z M11.2108732,11.9756478 L8.55946977,11.9756478 L8.55946977,14.6315847 L11.2108732,11.9756478 Z M6.28571429,8.68571429 L2.62857143,8.68571429 L2.62857143,9.88571429 L6.28571429,9.88571429 L6.28571429,8.68571429 Z M9.71428571,6.05714286 L2.62857143,6.05714286 L2.62857143,7.25714286 L9.71428571,7.25714286 L9.71428571,6.05714286 Z M9.71428571,3.42857143 L2.62857143,3.42857143 L2.62857143,4.62857143 L9.71428571,4.62857143 L9.71428571,3.42857143 Z" id="形状结合"></path>
            </g>
        </g>
    </g>
</svg>