<?xml version="1.0" encoding="UTF-8"?>
<svg width="14px" height="14px" viewBox="0 0 14 14" version="1.1" xmlns="http://www.w3.org/2000/svg" xmlns:xlink="http://www.w3.org/1999/xlink">
    <title>details-outlined</title>
    <g id="details-outlined" stroke="none" stroke-width="1" fill="none" fill-rule="evenodd">
        <g id="详情" transform="translate(-1.000000, -1.000000)">
            <rect id="矩形" fill-opacity="0" fill="#F0F0F0" x="0" y="0" width="16" height="16"></rect>
            <g id="图标" transform="translate(2.500000, 1.000000)" fill="#595959" fill-rule="nonzero">
                <path d="M10,0 C10.5522847,0 11,0.44771525 11,1 L11,11 L9.5,12.4444444 L8,14 L1,14 C0.44771525,14 0,13.5522847 0,13 L0,1 C0,0.44771525 0.44771525,0 1,0 L10,0 Z M9.8,1.2 L1.2,1.2 L1.2,12.8 L6.989,12.8 L6.98953605,9.97869182 L9.8,9.978 L9.8,1.2 Z M9.292,10.978 L7.99051405,10.9796366 L7.989,12.282 L8.66762998,11.5800602 L9.292,10.978 Z M5.5,7.6 L5.5,8.8 L2.3,8.8 L2.3,7.6 L5.5,7.6 Z M8.5,5.3 L8.5,6.5 L2.3,6.5 L2.3,5.3 L8.5,5.3 Z M8.5,3 L8.5,4.2 L2.3,4.2 L2.3,3 L8.5,3 Z" id="形状结合"></path>
            </g>
        </g>
    </g>
</svg>