<?xml version="1.0" encoding="UTF-8"?>
<svg width="22px" height="22px" viewBox="0 0 22 22" version="1.1" xmlns="http://www.w3.org/2000/svg" xmlns:xlink="http://www.w3.org/1999/xlink">
    <title>documents</title>
    <g id="页面-1" stroke="none" stroke-width="1" fill="none" fill-rule="evenodd">
        <g id="Apple-TV" transform="translate(-644.000000, -752.000000)">
            <g id="documents" transform="translate(644.000000, 752.000000)">
                <rect id="矩形" x="0" y="0" width="22" height="22"></rect>
                <path d="M3.8,2 L3.8,20 L2.9,20 C2.40294373,20 2,19.5970562 2,19.1 L2,2.9 C2,2.40294373 2.40294373,2 2.9,2 L3.8,2 Z M12.6363636,6.90909091 L15.0909091,4.45454546 L17.1363636,6.90909091 L17.1363636,2 L19.1,2 C19.5970562,2 20,2.40294373 20,2.9 L20,19.1 C20,19.5970562 19.5970562,20 19.1,20 L5.6,20 L5.6,2 L12.6363636,2 L12.6363636,6.90909091 Z M16.9318182,13.8636364 L9.1590909,13.8636364 C8.8201889,13.8636364 8.54545454,14.1383707 8.54545454,14.4772728 C8.54545454,14.8161747 8.8201889,15.0909091 9.1590909,15.0909091 L9.1590909,15.0909091 L16.9318182,15.0909091 C17.2707202,15.0909091 17.5454545,14.8161747 17.5454545,14.4772728 C17.5454545,14.1383707 17.2707202,13.8636364 16.9318182,13.8636364 L16.9318182,13.8636364 Z M16.9318182,10.5909091 L9.1590909,10.5909091 C8.8201889,10.5909091 8.54545454,10.8656434 8.54545454,11.2045454 C8.54545454,11.5434475 8.8201889,11.8181818 9.1590909,11.8181818 L9.1590909,11.8181818 L16.9318182,11.8181818 C17.2707202,11.8181818 17.5454545,11.5434475 17.5454545,11.2045454 C17.5454545,10.8656434 17.2707202,10.5909091 16.9318182,10.5909091 L16.9318182,10.5909091 Z" id="形状结合" fill="#FFFFFF" fill-rule="nonzero"></path>
            </g>
        </g>
    </g>
</svg>