<?xml version="1.0" encoding="UTF-8"?>
<svg width="14px" height="14px" viewBox="0 0 14 14" version="1.1" xmlns="http://www.w3.org/2000/svg" xmlns:xlink="http://www.w3.org/1999/xlink">
    <title>edit-square</title>
    <g id="页面-1" stroke="none" stroke-width="1" fill="none" fill-rule="evenodd">
        <g id="edit-square" transform="translate(7.000000, 7.000000) scale(1, -1) translate(-7.000000, -7.000000) ">
            <rect id="矩形" fill="#000000" fill-rule="nonzero" opacity="0" x="0" y="0" width="14" height="14"></rect>
            <path d="M12.359375,7 L11.59375,7 C11.5335937,7 11.484375,7.04921875 11.484375,7.109375 L11.484375,10.484375 L3.515625,10.484375 L3.515625,2.515625 L6.890625,2.515625 C6.95078125,2.515625 7,2.46640625 7,2.40625 L7,1.640625 C7,1.58046875 6.95078125,1.53125 6.890625,1.53125 L2.96875,1.53125 C2.72675781,1.53125 2.53125,1.72675781 2.53125,1.96875 L2.53125,11.03125 C2.53125,11.2732422 2.72675781,11.46875 2.96875,11.46875 L12.03125,11.46875 C12.2732422,11.46875 12.46875,11.2732422 12.46875,11.03125 L12.46875,7.109375 C12.46875,7.04921875 12.4195313,7 12.359375,7 Z M10.828125,10.46875 L10.0625,10.46875 C10.0023438,10.46875 9.953125,10.5179688 9.953125,10.578125 L9.953125,11.953125 L1.984375,11.953125 L1.984375,3.984375 L3.359375,3.984375 C3.41953125,3.984375 3.46875,3.93515625 3.46875,3.875 L3.46875,3.109375 C3.46875,3.04921875 3.41953125,3 3.359375,3 L1.4375,3 C1.19550781,3 1,3.19550781 1,3.4375 L1,12.5 C1,12.7419922 1.19550781,12.9375 1.4375,12.9375 L10.5,12.9375 C10.7419922,12.9375 10.9375,12.7419922 10.9375,12.5 L10.9375,10.578125 C10.9375,10.5179688 10.8882813,10.46875 10.828125,10.46875 Z" id="形状" fill="#000000" fill-rule="nonzero"></path>
            <g id="编组" transform="translate(10.700000, 3.162500) scale(1, -1) translate(-10.700000, -3.162500) translate(8.600000, 0.800000)">
                <rect id="矩形" stroke="#000000" stroke-width="0.7" x="0.35" y="2.45" width="3.5" height="1.925" rx="0.200000003"></rect>
                <rect id="矩形备份" stroke="#000000" stroke-width="0.7" x="0.9625" y="0.35" width="2.275" height="2.0125" rx="0.5"></rect>
                <path d="M1.97462891,3.45163574 L1.97462891,3.76865234 C1.97462891,3.7949707 1.99616211,3.81650391 2.02248047,3.81650391 L2.26173828,3.81650391 C2.28805664,3.81650391 2.30958984,3.7949707 2.30958984,3.76865234 L2.30958984,3.45163574 C2.38196533,3.39959717 2.42921875,3.31466064 2.42921875,3.21835937 C2.42921875,3.05985107 2.30061768,2.93125 2.14210938,2.93125 C1.98360107,2.93125 1.855,3.05985107 1.855,3.21835937 C1.855,3.31466064 1.90225342,3.39959717 1.97462891,3.45163574 Z" id="路径" fill="#000000"></path>
            </g>
            <path d="M10.0375,7.421875 L10.0375,6.765625 C10.0375,6.70546875 9.9916,6.65625 9.9355,6.65625 L5.0395,6.65625 C4.9834,6.65625 4.9375,6.70546875 4.9375,6.765625 L4.9375,7.421875 C4.9375,7.48203125 4.9834,7.53125 5.0395,7.53125 L9.9355,7.53125 C9.9916,7.53125 10.0375,7.48203125 10.0375,7.421875 Z" id="路径" fill="#000000"></path>
            <path d="M5.046875,8.625 C4.98671875,8.625 4.9375,8.67421875 4.9375,8.734375 L4.9375,9.390625 C4.9375,9.45078125 4.98671875,9.5 5.046875,9.5 L7.5625,9.5 C7.62265625,9.5 7.671875,9.45078125 7.671875,9.390625 L7.671875,8.734375 C7.671875,8.67421875 7.62265625,8.625 7.5625,8.625 L5.046875,8.625 Z" id="路径" fill="#000000"></path>
        </g>
    </g>
</svg>