<?xml version="1.0" encoding="UTF-8"?>
<svg width="14px" height="14px" viewBox="0 0 14 14" version="1.1" xmlns="http://www.w3.org/2000/svg" xmlns:xlink="http://www.w3.org/1999/xlink">
    <title>emergency-plan</title>
    <g id="页面-1" stroke="none" stroke-width="1" fill="none" fill-rule="evenodd">
        <g id="file-sync">
            <rect id="矩形" fill="#000000" fill-rule="nonzero" opacity="0" x="0" y="0" width="14" height="14"></rect>
            <path d="M4.046875,3.5 C3.98671875,3.5 3.9375,3.54921875 3.9375,3.609375 L3.9375,4.265625 C3.9375,4.32578125 3.98671875,4.375 4.046875,4.375 L9.296875,4.375 C9.35703125,4.375 9.40625,4.32578125 9.40625,4.265625 L9.40625,3.609375 C9.40625,3.54921875 9.35703125,3.5 9.296875,3.5 L4.046875,3.5 Z M6.671875,6.234375 L6.671875,5.578125 C6.671875,5.51796875 6.62265625,5.46875 6.5625,5.46875 L4.046875,5.46875 C3.98671875,5.46875 3.9375,5.51796875 3.9375,5.578125 L3.9375,6.234375 C3.9375,6.29453125 3.98671875,6.34375 4.046875,6.34375 L6.5625,6.34375 C6.62265625,6.34375 6.671875,6.29453125 6.671875,6.234375 Z M6.015625,11.6484375 L2.84375,11.6484375 L2.84375,2.0234375 L10.5,2.0234375 L10.5,6.7265625 C10.5,6.78671875 10.5492187,6.8359375 10.609375,6.8359375 L11.375,6.8359375 C11.4351562,6.8359375 11.484375,6.78671875 11.484375,6.7265625 L11.484375,1.4765625 C11.484375,1.23457031 11.2888672,1.0390625 11.046875,1.0390625 L2.296875,1.0390625 C2.05488281,1.0390625 1.859375,1.23457031 1.859375,1.4765625 L1.859375,12.1953125 C1.859375,12.4373047 2.05488281,12.6328125 2.296875,12.6328125 L6.015625,12.6328125 C6.07578125,12.6328125 6.125,12.5835938 6.125,12.5234375 L6.125,11.7578125 C6.125,11.6976562 6.07578125,11.6484375 6.015625,11.6484375 Z" id="形状" fill="#595959"></path>
            <g id="7.Icon/suggested/15.error/fill备份-2" transform="translate(6.737327, 7.520313)" fill="#595959">
                <path d="M6.09577869,5.03125 L3.25202869,0.109375 C3.20964588,0.0362304687 3.13650135,0 3.06267322,0 C2.9888451,0 2.91501697,0.0362304687 2.87331776,0.109375 L0.0295677557,5.03125 C-0.0545142756,5.17753906 0.0507591619,5.359375 0.218923224,5.359375 L5.90642322,5.359375 C6.07458729,5.359375 6.17986072,5.17753906 6.09577869,5.03125 Z M2.84392322,2.0234375 C2.84392322,1.99335938 2.8685326,1.96875 2.89861072,1.96875 L3.22673572,1.96875 C3.25681385,1.96875 3.28142322,1.99335938 3.28142322,2.0234375 L3.28142322,3.28125 C3.28142322,3.31132812 3.25681385,3.3359375 3.22673572,3.3359375 L2.89861072,3.3359375 C2.8685326,3.3359375 2.84392322,3.31132812 2.84392322,3.28125 L2.84392322,2.0234375 Z M3.06267322,4.4296875 C2.88152088,4.4296875 2.73454822,4.28271484 2.73454822,4.1015625 C2.73454822,3.92041016 2.88152088,3.7734375 3.06267322,3.7734375 C3.24382557,3.7734375 3.39079822,3.92041016 3.39079822,4.1015625 C3.39079822,4.28271484 3.24382557,4.4296875 3.06267322,4.4296875 Z" id="fill"></path>
            </g>
        </g>
    </g>
</svg>