<?xml version="1.0" encoding="UTF-8"?>
<svg width="24px" height="24px" viewBox="0 0 24 24" version="1.1" xmlns="http://www.w3.org/2000/svg" xmlns:xlink="http://www.w3.org/1999/xlink">
    <title>F4CF14A0-7E7B-4144-A701-922F20400A15</title>
    <g id="控件" stroke="none" stroke-width="1" fill="none" fill-rule="evenodd">
        <g id="头像或者图标--空" transform="translate(-12.000000, -12.000000)">
            <g id="为空图标/卡片" transform="translate(12.000000, 12.000000)">
                <path d="M9,23 L9,24 L7,24 L7,23 L9,23 Z M13,23 L13,24 L11,24 L11,23 L13,23 Z M17,23 L17,24 L15,24 L15,23 L17,23 Z M1,15 L1,17 L0,17 L0,15 L1,15 Z M24,15 L24,17 L23,17 L23,15 L24,15 Z M1,11 L1,13 L0,13 L0,11 L1,11 Z M24,11 L24,13 L23,13 L23,11 L24,11 Z M1,7 L1,9 L0,9 L0,7 L1,7 Z M24,7 L24,9 L23,9 L23,7 L24,7 Z M9,0 L9,1 L7,1 L7,0 L9,0 Z M13,0 L13,1 L11,1 L11,0 L13,0 Z M17,0 L17,1 L15,1 L15,0 L17,0 Z" id="形状" fill="#FFFFFF" opacity="0.449999988"></path>
                <path d="M3,21 L3,24 L0,24 L0,21 L3,21 Z M24,21 L24,24 L21,24 L21,21 L24,21 Z M3,0 L3,3 L0,3 L0,0 L3,0 Z M24,0 L24,3 L21,3 L21,0 L24,0 Z" id="形状结合" fill="#FFFFFF" opacity="0.899999976"></path>
                <path d="M1,20 L1,23 L4,23 L4,24 L0,24 L0,20 L1,20 Z M24,20 L24,24 L20,24 L20,23 L23,23 L23,20 L24,20 Z M24,0 L24,4 L23,4 L23,1 L20,1 L20,0 L24,0 Z M4,0 L4,1 L1,1 L1,4 L0,4 L0,0 L4,0 Z" id="形状" fill="#FCF7ED"></path>
            </g>
        </g>
    </g>
</svg>