<?xml version="1.0" encoding="UTF-8"?>
<svg width="14px" height="14px" viewBox="0 0 14 14" version="1.1" xmlns="http://www.w3.org/2000/svg" xmlns:xlink="http://www.w3.org/1999/xlink">
    <title>enable-outlined</title>
    <g id="enable-outlined" stroke="none" stroke-width="1" fill="none" fill-rule="evenodd">
        <g id="enable">
            <rect id="矩形" x="0" y="0" width="14" height="14"></rect>
            <path d="M7,0 C10.8659932,0 14,3.13400675 14,7 C14,10.8659932 10.8659932,14 7,14 C3.13400675,14 0,10.8659932 0,7 C0,3.13400675 3.13400675,0 7,0 Z M7,1 C3.6862915,1 1,3.6862915 1,7 C1,10.3137085 3.6862915,13 7,13 C10.3137085,13 13,10.3137085 13,7 C13,3.6862915 10.3137085,1 7,1 Z M11.0202446,4.42549408 L11.7297554,5.19950592 L6.10921023,10.3516724 L2.69126894,6.93373106 L3.43373106,6.19126894 L6.14075,8.897875 L11.0202446,4.42549408 Z" id="形状" fill="#595959"></path>
        </g>
    </g>
</svg>