<?xml version="1.0" encoding="UTF-8"?>
<svg width="14px" height="14px" viewBox="0 0 14 14" version="1.1" xmlns="http://www.w3.org/2000/svg" xmlns:xlink="http://www.w3.org/1999/xlink">
    <title>end</title>
    <g id="页面-1" stroke="none" stroke-width="1" fill="none" fill-rule="evenodd">
        <g id="end" fill="#262626" fill-rule="nonzero">
            <g transform="translate(7.000000, 7.000000) scale(1, -1) translate(-7.000000, -7.000000) ">
                <rect id="矩形" opacity="0" x="0" y="0" width="14" height="14"></rect>
                <path d="M12.359375,7 L11.59375,7 C11.5335937,7 11.484375,7.04921875 11.484375,7.109375 L11.484375,11.484375 L2.515625,11.484375 L2.515625,2.515625 L6.890625,2.515625 C6.95078125,2.515625 7,2.46640625 7,2.40625 L7,1.640625 C7,1.58046875 6.95078125,1.53125 6.890625,1.53125 L1.96875,1.53125 C1.72675781,1.53125 1.53125,1.72675781 1.53125,1.96875 L1.53125,12.03125 C1.53125,12.2732422 1.72675781,12.46875 1.96875,12.46875 L12.03125,12.46875 C12.2732422,12.46875 12.46875,12.2732422 12.46875,12.03125 L12.46875,7.109375 C12.46875,7.04921875 12.4195312,7 12.359375,7 Z M9.540625,8.625 C9.60078125,8.625 9.65,8.67421875 9.65,8.734375 L9.65,9.390625 C9.65,9.45078125 9.60078125,9.5 9.540625,9.5 L4.509375,9.5 C4.44921875,9.5 4.4,9.45078125 4.4,9.390625 L4.4,8.734375 C4.4,8.67421875 4.44921875,8.625 4.509375,8.625 L9.540625,8.625 Z M7.3375,6.625 C7.371875,6.625 7.4,6.67421875 7.4,6.734375 L7.4,7.390625 C7.4,7.45078125 7.371875,7.5 7.3375,7.5 L4.4625,7.5 C4.428125,7.5 4.4,7.45078125 4.4,7.390625 L4.4,6.734375 C4.4,6.67421875 4.428125,6.625 4.4625,6.625 L7.3375,6.625 Z M10.4310325,1.83417969 L13.3103294,5.82636719 C13.3636497,5.89882812 13.3116966,6 13.2228294,6 L12.5816185,6 C12.4421653,6 12.3095482,5.93300781 12.2275169,5.81816406 L10.0782982,2.83769531 L9.10486066,4.18847656 C9.02282941,4.30195312 8.89157941,4.3703125 8.7507591,4.3703125 L8.10954816,4.3703125 C8.02068097,4.3703125 7.96872785,4.26914062 8.02068097,4.19667969 L9.7241966,1.83417969 C9.89782941,1.5921875 10.2573997,1.5921875 10.4310325,1.83417969 Z" id="形状"></path>
            </g>
        </g>
    </g>
</svg>