<?xml version="1.0" encoding="UTF-8"?>
<svg width="16px" height="16px" viewBox="0 0 16 16" version="1.1" xmlns="http://www.w3.org/2000/svg" xmlns:xlink="http://www.w3.org/1999/xlink">
    <title>Go to enable-outlinde</title>
    <g id="Go-to-enable-outlinde" stroke="none" stroke-width="1" fill="none" fill-rule="evenodd" opacity="0.65">
        <g id="Go-to-enable">
            <rect id="矩形" x="0" y="0" width="16" height="16"></rect>
            <path d="M8.00374565,1 C11.8697389,1 15.0037457,4.13400675 15.0037457,8 C15.0037457,11.8659932 11.8697389,15 8.00374565,15 C4.43444811,15 1.48909569,12.3285734 1.05796522,8.87606762 L7.56574565,8.874 L7.56624565,10.975 L11.0662457,8 L7.56624565,5.025 L7.56574565,7.124 L1.05796522,7.124 L1.08367723,6.93886891 C1.59511093,3.57631567 4.49856291,1 8.00374565,1 Z M8.00374565,2 C5.43094974,2 3.20279716,3.63002793 2.36245482,5.9448248 L2.29996522,6.124 L6.56496522,6.124 L6.56676063,2.86299726 L12.6102933,8 L6.56676014,13.1370032 L6.56496522,9.873 L2.30196522,9.875 L2.30644663,9.88883779 C3.07737341,12.219117 5.23291722,13.8958429 7.7652649,13.9953228 L8.00374565,14 C11.3174542,14 14.0037457,11.3137085 14.0037457,8 C14.0037457,4.6862915 11.3174542,2 8.00374565,2 Z" id="形状" fill="#000000" fill-rule="nonzero"></path>
        </g>
    </g>
</svg>