<?xml version="1.0" encoding="UTF-8"?>
<svg width="14px" height="14px" viewBox="0 0 14 14" version="1.1" xmlns="http://www.w3.org/2000/svg" xmlns:xlink="http://www.w3.org/1999/xlink">
    <title>go-to-enable-outlinde</title>
    <g id="go-to-enable-outlinde" stroke="none" stroke-width="1" fill="none" fill-rule="evenodd" opacity="0.65">
        <g id="Go-to-enable">
            <rect id="矩形" x="0" y="0" width="16" height="16"></rect>
            <path d="M7.00374565,0 C10.8697389,0 14.0037457,3.13400675 14.0037457,7 C14.0037457,10.8659932 10.8697389,14 7.00374565,14 C3.43444811,14 0.48909569,11.3285734 0.0579652195,7.87606762 L6.56574565,7.874 L6.56624565,9.975 L10.0662457,7 L6.56624565,4.025 L6.56574565,6.124 L0.0579652195,6.124 L0.0836772315,5.93886891 C0.595110932,2.57631567 3.49856291,0 7.00374565,0 Z M7.00374565,1 C4.43094974,1 2.20279716,2.63002793 1.36245482,4.9448248 L1.29996522,5.124 L5.56496522,5.124 L5.56676063,1.86299726 L11.6102933,7 L5.56676014,12.1370032 L5.56496522,8.873 L1.30196522,8.875 L1.30644663,8.88883779 C2.07737341,11.219117 4.23291722,12.8958429 6.7652649,12.9953228 L7.00374565,13 C10.3174542,13 13.0037457,10.3137085 13.0037457,7 C13.0037457,3.6862915 10.3174542,1 7.00374565,1 Z" id="形状" fill="#000000" fill-rule="nonzero"></path>
        </g>
    </g>
</svg>