<?xml version="1.0" encoding="UTF-8"?>
<svg width="14px" height="14px" viewBox="0 0 14 14" version="1.1" xmlns="http://www.w3.org/2000/svg" xmlns:xlink="http://www.w3.org/1999/xlink">
    <title>implement-outlined</title>
    <g id="implement-outlined" stroke="none" stroke-width="1" fill="none" fill-rule="evenodd">
        <g id="执行" transform="translate(-1.000000, -1.000000)">
            <rect id="矩形" fill-opacity="0" fill="#F0F0F0" x="0" y="0" width="16" height="16"></rect>
            <g id="图形" transform="translate(1.410408, 1.300000)" fill="#595959" fill-rule="nonzero">
                <path d="M7.6,12.1786797 C7.93137085,12.1786797 8.2,12.4473088 8.2,12.7786797 C8.2,13.1100505 7.93137085,13.3786797 7.6,13.3786797 L0.6,13.3786797 C0.26862915,13.3786797 0,13.1100505 0,12.7786797 C0,12.4473088 0.26862915,12.1786797 0.6,12.1786797 L7.6,12.1786797 Z M8.42842712,0.439339828 L10.5497475,2.56066017 C11.1355339,3.14644661 11.1355339,4.09619408 10.5497475,4.68198052 L8.723,6.507 L12.7890339,10.0966707 C13.203093,10.4621478 13.2424765,11.0940867 12.8769994,11.5081459 L12.8343858,11.5534978 L12.0418866,12.3459971 C11.6513623,12.7365214 11.0181973,12.7365214 10.627673,12.3459971 C10.6130014,12.3313255 10.59879,12.3162009 10.5850595,12.3006451 L6.996,8.234 L4.89289322,10.3388348 C4.30710678,10.9246212 3.35735931,10.9246212 2.77157288,10.3388348 L0.650252532,8.21751442 C0.0644660941,7.63172798 0.0644660941,6.68198052 0.650252532,6.09619408 L6.30710678,0.439339828 C6.89289322,-0.146446609 7.84264069,-0.146446609 8.42842712,0.439339828 Z M8.37959542,7.8058496 L8.2933284,7.89211663 L11.3430799,11.3477475 L11.8352263,10.8556011 L8.37959542,7.8058496 Z M7.15563492,1.28786797 L1.49878067,6.94472222 C1.38162338,7.0618795 1.38162338,7.251829 1.49878067,7.36898628 L3.62010101,9.49030663 C3.7372583,9.60746391 3.92720779,9.60746391 4.04436508,9.49030663 L9.70121933,3.83345238 C9.81837662,3.71629509 9.81837662,3.5263456 9.70121933,3.40918831 L7.57989899,1.28786797 C7.4627417,1.17071068 7.27279221,1.17071068 7.15563492,1.28786797 Z" id="形状结合"></path>
            </g>
        </g>
    </g>
</svg>