<?xml version="1.0" encoding="UTF-8"?>
<svg width="16px" height="16px" viewBox="0 0 16 16" version="1.1" xmlns="http://www.w3.org/2000/svg" xmlns:xlink="http://www.w3.org/1999/xlink">
    <title>implement-filled</title>
    <g id="implement-filled" stroke="none" stroke-width="1" fill="none" fill-rule="evenodd">
        <rect id="矩形备份" fill-opacity="0" fill="#CDCDCD" x="-2" y="-2" width="20" height="20"></rect>
        <g id="执行">
            <rect id="矩形" fill-opacity="0" fill="#F0F0F0" x="0" y="0" width="16" height="16"></rect>
            <g id="图形" transform="translate(0.469037, 0.621320)" fill="#262626">
                <path d="M8.68571429,14.0072511 C9.06442383,14.0072511 9.37142857,14.3142558 9.37142857,14.6929654 C9.37142857,15.0716749 9.06442383,15.3786797 8.68571429,15.3786797 L0.685714286,15.3786797 C0.307004743,15.3786797 0,15.0716749 0,14.6929654 C0,14.3142558 0.307004743,14.0072511 0.685714286,14.0072511 L8.68571429,14.0072511 Z M9.48096526,0.439339828 L12.2083771,3.1667517 C12.7941636,3.75253814 12.7941636,4.7022856 12.2083771,5.28807204 L9.97,7.526 L14.7300242,11.7284238 C15.1440833,12.0939009 15.1834669,12.7258398 14.8179898,13.1398989 C14.8042592,13.1554547 14.7900478,13.1705793 14.7753762,13.1852509 L13.6546494,14.3059777 C13.2641251,14.696502 12.6309601,14.696502 12.2404359,14.3059777 C12.2257643,14.2913061 12.2115529,14.2761815 12.1978223,14.2606257 L7.996,9.5 L5.44035508,12.0560941 C4.85456865,12.6418805 3.90482118,12.6418805 3.31903474,12.0560941 L0.591622869,9.32868222 C0.0058364312,8.74289578 0.0058364312,7.79314831 0.591622869,7.20736188 L7.35964492,0.439339828 C7.94543135,-0.146446609 8.89517882,-0.146446609 9.48096526,0.439339828 Z" id="形状结合"></path>
            </g>
        </g>
    </g>
</svg>