<?xml version="1.0" encoding="UTF-8"?>
<svg width="16px" height="16px" viewBox="0 0 16 16" version="1.1" xmlns="http://www.w3.org/2000/svg" xmlns:xlink="http://www.w3.org/1999/xlink">
    <title>import 2</title>
    <g id="import" stroke="none" stroke-width="1" fill="none" fill-rule="evenodd">
        <rect id="矩形" fill="#000000" opacity="0" x="0" y="0" width="16" height="16"></rect>
        <path d="M4.7166207,8.4 C5.04799155,8.4 5.3166207,8.66862915 5.3166207,9 C5.3166207,9.33137085 5.04799155,9.6 4.7166207,9.6 L2.6,9.6 L2.6,13.28 C2.6,13.3373935 2.62257376,13.3761967 2.64418993,13.3920113 L2.66461538,13.4 L13.3353846,13.4 C13.3598689,13.4 13.4,13.3565246 13.4,13.28 L13.4,9.6 L11.3356579,9.6 C11.0374241,9.6 10.7900111,9.38241039 10.7435109,9.09732312 L10.7356579,9 C10.7356579,8.66862915 11.004287,8.4 11.3356579,8.4 L14,8.4 C14.3313708,8.4 14.6,8.66862915 14.6,9 L14.6,13.28 C14.6,13.9987654 14.0450142,14.6 13.3353846,14.6 L2.66461538,14.6 C1.95498577,14.6 1.4,13.9987654 1.4,13.28 L1.4,9 C1.4,8.66862915 1.66862915,8.4 2,8.4 L4.7166207,8.4 Z M8.66,2.34 L8.66,8.335 L10.0360887,6.97499124 L10.5055419,6.51107995 L11.4333645,7.44998635 L10.9639113,7.91389765 L8.43404619,10.4138976 C8.17476126,10.6701217 7.75685415,10.6676255 7.50064859,10.4083222 L5.0305137,7.90832224 L4.5666359,7.43883594 L5.5056085,6.51107995 L5.9694863,6.98056665 L7.34,8.367 L7.34,2.34 L8.66,2.34 Z" id="形状结合" fill="#595959" fill-rule="nonzero"></path>
        <g id="编组" transform="translate(5.500000, 3.000000)"></g>
    </g>
</svg>