<?xml version="1.0" encoding="UTF-8"?>
<svg width="20px" height="20px" viewBox="0 0 20 20" version="1.1" xmlns="http://www.w3.org/2000/svg" xmlns:xlink="http://www.w3.org/1999/xlink">
    <title>import</title>
    <g id="import" stroke="none" stroke-width="1" fill="none" fill-rule="evenodd">
        <rect id="矩形" fill="#000000" opacity="0" x="0" y="0" width="20" height="20"></rect>
        <g id="编组-3" transform="translate(2.000000, 2.340000)">
            <path d="M16,8.66 L16,14.3666667 C16,14.89686 15.6032554,15.3266667 15.1138462,15.3266667 L0.886153846,15.3266667 C0.396744591,15.3266667 0,14.89686 0,14.3666667 L0,8.66 L4.326,8.659 L7.37415407,11.8955645 C7.66274859,12.2019655 8.118308,12.2302027 8.43764463,11.9783765 L8.52113122,11.9027515 L11.65,8.659 L16,8.66 Z M7.149,8.659 L7.149,9.235 L6.607,8.659 L7.149,8.659 Z M9.341,8.659 L8.85,9.169 L8.85,8.659 L9.341,8.659 Z" id="形状结合" fill="#000000" opacity="0.649999976"></path>
            <g id="编组-2" transform="translate(3.733303, 0.000000)" fill="#595959" fill-rule="nonzero">
                <g id="编组">
                    <path d="M4.92669743,0 L4.926,8.301 L7.13611947,6.11647272 L7.60557267,5.65256143 L8.53339527,6.59146783 L8.06394206,7.05537913 L4.69078858,10.3887125 C4.43150366,10.6449365 4.01359654,10.6424403 3.75739098,10.3831371 L0.463877798,7.04980372 L5.32907052e-15,6.58031742 L0.938972605,5.65256143 L1.4028504,6.12204813 L3.606,8.352 L3.60669743,0 L4.92669743,0 Z" id="形状结合"></path>
                </g>
            </g>
        </g>
    </g>
</svg>