<?xml version="1.0" encoding="UTF-8"?>
<svg width="14px" height="13px" viewBox="0 0 14 13" version="1.1" xmlns="http://www.w3.org/2000/svg" xmlns:xlink="http://www.w3.org/1999/xlink">
    <title>编组 3 2</title>
    <g id="页面-1" stroke="none" stroke-width="1" fill="none" fill-rule="evenodd">
        <g id="导入备份-3" transform="translate(-1.000000, -2.000000)" fill="#595959" fill-rule="nonzero">
            <g id="编组-3" transform="translate(1.400000, 2.340000)">
                <path d="M3.3166207,6.06 C3.64799155,6.06 3.9166207,6.32862915 3.9166207,6.66 C3.9166207,6.99137085 3.64799155,7.26 3.3166207,7.26 L1.2,7.26 L1.2,10.94 C1.2,10.9973935 1.22257376,11.0361967 1.24418993,11.0520113 L1.26461538,11.06 L11.9353846,11.06 C11.9598689,11.06 12,11.0165246 12,10.94 L12,7.26 L9.93565788,7.26 C9.63742411,7.26 9.39001113,7.04241039 9.34351087,6.75732312 L9.33565788,6.66 C9.33565788,6.32862915 9.60428703,6.06 9.93565788,6.06 L12.6,6.06 C12.9313708,6.06 13.2,6.32862915 13.2,6.66 L13.2,10.94 C13.2,11.6587654 12.6450142,12.26 11.9353846,12.26 L1.26461538,12.26 C0.554985765,12.26 0,11.6587654 0,10.94 L0,6.66 C0,6.32862915 0.26862915,6.06 0.6,6.06 L3.3166207,6.06 Z" id="路径"></path>
                <g id="编组" transform="translate(3.166636, 0.000000)">
                    <path d="M4.0933641,0 L4.093,5.995 L5.4694528,4.63499124 L5.93890601,4.17107995 L6.8667286,5.10998635 L6.3972754,5.57389765 L3.86741029,8.07389765 C3.60812536,8.33012171 3.19021825,8.32762545 2.93401269,8.06832224 L0.463877798,5.56832224 L1.50990331e-14,5.09883594 L0.938972605,4.17107995 L1.4028504,4.64056665 L2.773,6.027 L2.7733641,0 L4.0933641,0 Z" id="形状结合"></path>
                </g>
            </g>
        </g>
    </g>
</svg>