<?xml version="1.0" encoding="UTF-8"?>
<svg width="14px" height="14px" viewBox="0 0 14 14" version="1.1" xmlns="http://www.w3.org/2000/svg" xmlns:xlink="http://www.w3.org/1999/xlink">
    <title>import-outlined</title>
    <g id="import-outlined" stroke="none" stroke-width="1" fill="none" fill-rule="evenodd">
        <g id="编组-3" transform="translate(0.000000, 0.500000)" fill="#595959" fill-rule="nonzero">
            <path d="M3.51762801,6.42727273 C3.86908194,6.42727273 4.15399165,6.71218243 4.15399165,7.06363636 C4.15399165,7.4150903 3.86908194,7.7 3.51762801,7.7 L1.27272727,7.7 L1.27272727,11.6030303 C1.27272727,11.6639022 1.29666913,11.7050571 1.31959538,11.7218301 L1.34125874,11.730303 L12.6587413,11.730303 C12.6847094,11.730303 12.7272727,11.6841928 12.7272727,11.6030303 L12.7272727,7.7 L10.537819,7.7 C10.2215104,7.7 9.95910271,7.46922314 9.90978425,7.16685785 L9.90145533,7.06363636 C9.90145533,6.71218243 10.186365,6.42727273 10.537819,6.42727273 L13.3636364,6.42727273 C13.7150903,6.42727273 14,6.71218243 14,7.06363636 L14,11.6030303 C14,12.3653573 13.4113787,13.0030303 12.6587413,13.0030303 L1.34125874,13.0030303 C0.588621266,13.0030303 0,12.3653573 0,11.6030303 L0,7.06363636 C0,6.71218243 0.284909705,6.42727273 0.636363636,6.42727273 L3.51762801,6.42727273 Z" id="路径"></path>
            <g id="编组" transform="translate(3.358553, 0.000000)">
                <path d="M4.34144677,0 L4.341,6.357 L5.80093479,4.9158998 L6.2988397,4.42387267 L7.28289397,5.41968249 L6.78498906,5.91170962 L4.10179879,8.56322478 C3.82679963,8.83497757 3.38356481,8.83233002 3.11183164,8.55731147 L0.491991604,5.90579632 L1.687539e-14,5.4078563 L0.995880036,4.42387267 L1.48787164,4.92181311 L2.941,6.393 L2.94144677,0 L4.34144677,0 Z" id="形状结合"></path>
            </g>
        </g>
    </g>
</svg>