<?xml version="1.0" encoding="UTF-8"?>
<svg width="16px" height="16px" viewBox="0 0 16 16" version="1.1" xmlns="http://www.w3.org/2000/svg" xmlns:xlink="http://www.w3.org/1999/xlink">
    <title>编组 4</title>
    <g id="页面-1" stroke="none" stroke-width="1" fill="none" fill-rule="evenodd">
        <g id="导入备份-2" transform="translate(-2.000000, -2.000000)">
            <g id="编组-3" transform="translate(2.000000, 2.340000)">
                <path d="M4.326,8.659 L7.37415407,11.8955645 C7.66274859,12.2019655 8.118308,12.2302027 8.43764463,11.9783765 L8.52113122,11.9027515 L11.65,8.659 L16,8.66 L16,14.3666667 C16,14.89686 15.6032554,15.3266667 15.1138462,15.3266667 L0.886153846,15.3266667 C0.396744591,15.3266667 0,14.89686 0,14.3666667 L0,8.66 L4.326,8.659 Z M8.66,0 L8.65930257,8.301 L10.869422,6.11647272 L11.3388752,5.65256143 L12.2666978,6.59146783 L11.7972446,7.05537913 L8.42409115,10.3887125 C8.16480622,10.6449365 7.74689911,10.6424403 7.49069355,10.3831371 L4.19718036,7.04980372 L3.73330257,6.58031742 L4.67227517,5.65256143 L5.13615297,6.12204813 L7.33930257,8.352 L7.34,0 L8.66,0 Z" id="形状结合" fill="#000000" opacity="0.649999976"></path>
                <g id="编组" transform="translate(3.733303, 0.000000)"></g>
            </g>
        </g>
    </g>
</svg>