<?xml version="1.0" encoding="UTF-8"?>
<svg width="22px" height="22px" viewBox="0 0 22 22" version="1.1" xmlns="http://www.w3.org/2000/svg" xmlns:xlink="http://www.w3.org/1999/xlink">
    <title>iptables</title>
    <g id="页面-1" stroke="none" stroke-width="1" fill="none" fill-rule="evenodd">
        <g id="Apple-TV" transform="translate(-560.000000, -752.000000)">
            <g id="iptables" transform="translate(560.000000, 752.000000)">
                <rect id="矩形" x="0" y="0" width="22" height="22"></rect>
                <g id="编组-2" transform="translate(2.580000, 1.000000)">
                    <path d="M16.3816379,2.48184769 C16.0807705,2.1060474 15.6666734,1.83733 15.1867952,1.70398151 L9.53178185,0.149259384 C8.80495512,-0.0497531279 8.03607171,-0.0497531279 7.30600993,0.149259384 L1.65207486,1.70398151 C1.17003997,1.83733 0.755942876,2.1060474 0.457232213,2.48184769 C0.15852155,2.85865818 1.11727391e-13,3.30517356 1.11727391e-13,3.77492391 L1.11727391e-13,12.3253905 C1.11727391e-13,12.7880693 0.153129657,13.2305439 0.447526816,13.6043237 C1.07190759,14.3983533 2.3325313,15.9338814 3.76138194,17.3007033 C5.66471885,19.1170713 7.18738837,20 8.42105265,20 C9.65471694,20 11.1773864,19.1170713 13.0785665,17.3007033 C14.5117307,15.9338814 15.7701977,14.4003737 16.3935001,13.6043237 C16.6878972,13.2305439 16.8421053,12.7880693 16.8421053,12.3253905 L16.8421053,3.77492391 C16.8421053,3.30517356 16.6825054,2.85865818 16.3816379,2.48184769 Z" id="Stroke-1" stroke="#FFFFFF"></path>
                    <path d="M2.92691797,3.06167397 C2.53330176,3.16779961 2.19575936,3.38308305 1.95277282,3.68326699 C1.7086868,3.98446166 1.57894737,4.3432674 1.57894737,4.71925538 L1.57894737,9.47368402 L8.42105265,9.47368402 L8.42105265,1.57894718 L2.92691797,3.06167397 Z" id="Fill-3" fill="#FFFFFF" fill-rule="nonzero"></path>
                    <path d="M8.42105265,9.47368413 L8.42105265,18.411166 C8.43850698,18.4166585 8.44832509,18.4210525 8.44832509,18.4210525 C8.44832509,18.4210525 10.6792091,17.6520951 12.2184647,16.072437 C13.3769971,14.88275 14.3958949,13.5480597 14.9009801,12.8559981 C15.1387957,12.530839 15.2631579,12.1463603 15.2631579,11.743207 L15.2631579,9.47368413 L8.42105265,9.47368413 Z" id="Fill-5" fill="#FFFFFF" fill-rule="nonzero"></path>
                </g>
            </g>
        </g>
    </g>
</svg>