<?xml version="1.0" encoding="UTF-8"?>
<svg width="14px" height="14px" viewBox="0 0 14 14" version="1.1" xmlns="http://www.w3.org/2000/svg" xmlns:xlink="http://www.w3.org/1999/xlink">
    <title>job-management-outlined</title>
    <g id="job-management-outlined" stroke="none" stroke-width="1" fill="none" fill-rule="evenodd">
        <g id="编组-2" transform="translate(0.000000, 1.200000)" fill="#595959" fill-rule="nonzero">
            <g id="编组">
                <path d="M11.2214534,5.11033642 C11.4675625,5.11033642 11.6670734,5.30984729 11.6670734,5.55595642 C11.6670734,6.25149563 12.0751464,6.48905351 12.6755598,6.16389646 C12.885292,6.05031489 13.1472718,6.12201335 13.2699374,6.32656533 L13.936463,7.43803528 C14.0669777,7.65567612 13.989653,7.93821372 13.7665005,8.05906314 C13.1941759,8.36900854 13.2017286,8.74572488 13.7665005,9.0515801 C13.989653,9.17242952 14.0669777,9.45496713 13.936463,9.67260796 L13.2699374,10.7840779 C13.151594,10.9814225 12.9024553,11.0562082 12.6949924,10.9566633 C12.0953691,10.6689517 11.8856268,10.7582604 11.7522632,11.1102684 L11.7192294,11.2013003 C11.6846298,11.2924243 11.6672445,11.4102198 11.6670734,11.5546868 C11.6670734,11.800796 11.4675625,12.0003068 11.2214534,12.0003068 L9.88840218,12.0003068 C9.64229305,12.0003068 9.44278218,11.800796 9.44278218,11.5546868 C9.44278218,10.8591476 9.03470914,10.6215897 8.43429573,10.9467468 C8.22456354,11.0603284 7.96258373,10.9886299 7.83991813,10.7840779 L7.17339253,9.67260796 C7.04287781,9.45496713 7.12020252,9.17242952 7.34335503,9.0515801 C7.91567961,8.7416347 7.90812697,8.36491836 7.34335503,8.05906314 C7.12020252,7.93821372 7.04287781,7.65567612 7.17339253,7.43803528 L7.83991813,6.32656533 C7.96258373,6.12201335 8.22456354,6.05031489 8.43429573,6.16389646 C9.04105148,6.49248824 9.44278218,6.24416316 9.44278218,5.55595642 C9.44278218,5.30984729 9.64229305,5.11033642 9.88840218,5.11033642 L11.2214534,5.11033642 Z M10.8197291,6.00157642 L10.2886986,6.00157642 L10.2729937,6.07713188 C10.0641011,6.91648347 9.34393572,7.35777018 8.50173265,7.14330196 L8.40595408,7.11469805 L8.15157933,7.53896543 L8.21533905,7.59652149 C8.80300707,8.15800047 8.81413919,8.94059596 8.22212154,9.5089021 L8.15157933,9.5711783 L8.40595408,9.9945173 L8.49626525,9.96930811 C9.33196211,9.75516246 10.0604095,10.1825526 10.2721189,11.0277722 L10.2886986,11.1085673 L10.8262277,11.1085673 L10.8623579,10.9642005 L10.918833,10.7945108 C11.1890317,10.0813317 11.7917099,9.73926338 12.63769,9.98202658 L12.6987601,10.0010159 L12.9577767,9.57024993 L12.8945165,9.51412175 C12.3068485,8.95264278 12.2957164,8.17004728 12.887734,7.60174115 L12.9568483,7.53896543 L12.703402,7.11469805 L12.6135903,7.14133513 C11.7778934,7.35548079 11.049446,6.92809062 10.8377367,6.08287108 L10.8197291,6.00157642 Z" id="Combined-Shape备份"></path>
                <path d="M10.5549278,7.10991322 C11.3532048,7.10991322 12.0003362,7.75704461 12.0003362,8.55532162 C12.0003362,9.35359864 11.3532048,10.00073 10.5549278,10.00073 C9.75665076,10.00073 9.10951938,9.35359864 9.10951938,8.55532162 C9.10951938,7.75704461 9.75665076,7.10991322 10.5549278,7.10991322 Z M10.5549278,8.00115322 C10.248869,8.00115322 10.0007594,8.24926287 10.0007594,8.55532162 C10.0007594,8.86138038 10.248869,9.10949002 10.5549278,9.10949002 C10.8609865,9.10949002 11.1090962,8.86138038 11.1090962,8.55532162 C11.1090962,8.24926287 10.8609865,8.00115322 10.5549278,8.00115322 Z" id="Oval-2"></path>
                <path d="M4.5716565,1.76189278e-05 C5.15194487,-0.00203948824 5.71170674,0.176102172 6.17828589,0.500403075 L6.30924704,0.598833859 L6.44367542,0.499324526 C6.8568876,0.212557916 7.34032052,0.0415874423 7.8510443,0.00713433216 L8.04376113,0.000654138425 L11.0846944,0.000660358486 C11.9270499,0.0046411918 12.6072023,0.689770646 12.6051385,1.53076599 L12.6051385,4.53074693 C12.6051385,4.83838335 12.3557452,5.08777193 12.0481088,5.08777193 C11.7404724,5.08777193 11.4910838,4.83838335 11.4910838,4.53074693 L11.4910855,1.52939708 C11.4916461,1.3012904 11.307479,1.11577564 11.082062,1.11470414 L8.04376113,1.11470414 C7.6477565,1.11470414 7.27585414,1.24805699 6.97543957,1.49232301 L6.88762467,1.56991411 L6.88831071,2.49874903 C6.88925712,3.60610806 6.89160833,4.66299134 6.89527554,5.76477896 L6.89937814,6.8850673 C6.90071729,7.22240957 6.90437403,8.08272674 6.90625581,8.52966963 L6.90708161,8.72683291 L6.90731637,8.78411531 C6.90855372,9.09246678 6.90945692,9.34738708 6.91005079,9.56578665 L6.91038474,10.4651789 C6.90964886,10.6658006 6.90814723,10.8199796 6.90576041,10.9363586 C6.90377678,11.0330786 6.90114995,11.1060651 6.89746552,11.1602024 C6.8941784,11.2052856 6.8941784,11.2052856 6.88623836,11.2630036 C6.94006644,11.3317287 6.94006644,11.3317287 6.33081086,11.7448945 C5.45970852,11.7448945 5.04530389,11.6533826 4.53048972,11.2223286 L4.45249704,11.1544576 L1.52265057,11.1553041 C0.725760695,11.1553041 0.07218745,10.5389189 0.00559771744,9.75697234 L6.39870565e-06,9.62519225 L6.39870565e-06,1.53236524 C-0.00240544996,0.690069167 0.677306467,0.00463391931 1.5226307,1.76189278e-05 L4.5716565,1.76189278e-05 Z M4.57364833,1.1140737 L1.52566856,1.1140737 C1.2975375,1.11531788 1.11340317,1.30100267 1.11405878,1.53076599 L1.11405878,9.62519225 C1.11405878,9.8551788 1.29870083,10.0412541 1.52265057,10.0412541 L4.67128884,10.0412541 C4.8159544,10.0412541 4.9549453,10.0975357 5.05885278,10.1981903 C5.32086472,10.4519999 5.46540695,10.5582838 5.73210867,10.6018272 L5.79492729,10.6095015 L5.79568074,10.5965778 L5.79615893,10.5062526 L5.79600317,9.56820426 C5.79541085,9.35051263 5.79450989,9.09623948 5.79327534,8.78858572 L5.79304074,8.73134349 L5.79221518,8.53423928 C5.79033372,8.08737906 5.78667675,7.227005 5.78533691,6.88948972 C5.77928632,5.36529986 5.775524,3.97742779 5.7742611,2.49970507 L5.77357467,1.60890586 L5.66915616,1.51251855 C5.40394689,1.28805906 5.07425751,1.1502438 4.72459619,1.12026569 L4.57364833,1.1140737 Z M4.32120074,6.89710186 C4.54004071,6.89710186 4.71744557,7.07450672 4.71744557,7.29334669 C4.71744557,7.51218667 4.54004071,7.68959152 4.32120074,7.68959152 L2.73618168,7.68959152 C2.5173417,7.68959152 2.33993685,7.51218667 2.33993685,7.29334669 C2.33993685,7.07450672 2.5173417,6.89710186 2.73618168,6.89710186 L4.32120074,6.89710186 Z M4.32120074,4.91583798 C4.54004071,4.91583798 4.71744557,5.09324283 4.71744557,5.31208281 C4.71744557,5.53092279 4.54004071,5.70832764 4.32120074,5.70832764 L2.73618168,5.70884425 C2.51719905,5.70884425 2.33967854,5.53132375 2.33967854,5.31234112 C2.33967854,5.09335848 2.51719905,4.91583798 2.73618168,4.91583798 L4.32120074,4.91583798 Z M4.32120074,2.93507084 C4.46595755,2.93004676 4.60192124,3.00440707 4.67578897,3.12899975 C4.7496567,3.25359242 4.7496567,3.40856204 4.67578897,3.53315472 C4.60192124,3.65774739 4.46595755,3.7321077 4.32120074,3.72708362 L2.73618168,3.72706375 C2.52293482,3.71950983 2.35396438,3.54444791 2.35396438,3.3310673 C2.35396438,3.11768668 2.52293482,2.94262477 2.73618168,2.93507084 L4.32120074,2.93507084 Z M9.86823094,2.93507084 C10.0129878,2.93004676 10.1489515,3.00440707 10.2228192,3.12899975 C10.2966869,3.25359242 10.2966869,3.40856204 10.2228192,3.53315472 C10.1489515,3.65774739 10.0129878,3.7321077 9.86823094,3.72708362 L7.88748368,3.72706375 C7.67423681,3.71950983 7.50526638,3.54444791 7.50526638,3.3310673 C7.50526638,3.11768668 7.67423681,2.94262477 7.88748368,2.93507084 L9.86823094,2.93507084 Z" id="形状结合"></path>
            </g>
        </g>
    </g>
</svg>