<?xml version="1.0" encoding="UTF-8"?>
<svg width="16px" height="16px" viewBox="0 0 16 16" version="1.1" xmlns="http://www.w3.org/2000/svg" xmlns:xlink="http://www.w3.org/1999/xlink">
    <title>job-management-filled</title>
    <g id="job-management-filled" stroke="none" stroke-width="1" fill="none" fill-rule="evenodd">
        <path d="M13.1609237,7.62818841 C13.1609237,8.90669069 14.1154817,9.42617563 15.1888002,8.84491433 L15.9999509,10.1975549 C14.8977261,10.7944705 14.9611553,11.7966123 15.9999509,12.3591775 L15.1888002,13.711818 C13.2838253,12.7977721 13.1683723,14.6747377 13.1613751,14.9056061 L13.1609237,14.928544 L11.5386225,14.928544 C11.5386225,13.6500417 10.5840644,13.1305567 9.51074593,13.711818 L8.69959531,12.3591775 C9.80182003,11.7622619 9.73839087,10.7601201 8.69959531,10.1975549 L9.51074593,8.84491433 C10.6307112,9.45143745 11.5386225,8.85344081 11.5386225,7.62818841 L13.1609237,7.62818841 Z M4.88815069,1.40001684 C5.64221958,1.39736952 6.36075395,1.70690927 6.87587026,2.25005516 L6.99238298,2.38069856 L7.10867779,2.25005516 C7.6237941,1.70690927 8.34232847,1.39736952 9.09639736,1.40001684 L12.8094353,1.40001684 C13.4607856,1.40362096 13.9864187,1.93370037 13.9845924,2.58505637 L13.9845924,8.11268362 C13.5084141,7.62818841 13.4563788,7.5277909 13.2937438,6.83731606 L11.1765636,6.83731606 C11.1765636,8.24763351 10.1315192,8.935953 8.84239171,8.23781918 L7.90872296,9.79476577 C9.10442068,10.4423022 9.17743034,11.5958099 7.90872296,12.2828851 L8.80518645,13.7794029 C8.21531368,14.2963837 7.81604592,14.3353155 7.04761509,14.3374797 L7.03197613,14.3387527 L6.95795966,14.3375914 L6.94280321,14.3436634 L6.6262415,14.3368391 C5.98452321,14.3116771 5.60519866,14.1995633 5.00697757,13.6200697 L1.17513695,13.6200697 C0.527005685,13.6200697 -4.43988474e-05,13.0889275 -4.43988474e-05,12.4358391 L-4.43988474e-05,2.58505637 C-0.00187064206,1.93370037 0.523762492,1.40362096 1.17511277,1.40001684 L4.88815069,1.40001684 Z M12.3497731,10.0616403 C11.6777939,10.0616403 11.1330472,10.606387 11.1330472,11.2783662 C11.1330472,11.9503454 11.6777939,12.4950921 12.3497731,12.4950921 C13.0217523,12.4950921 13.566499,11.9503454 13.566499,11.2783662 C13.566499,10.606387 13.0217523,10.0616403 12.3497731,10.0616403 Z M4.58092615,9.11579825 L2.65198421,9.11579825 C2.38565958,9.11579825 2.16976081,9.33169702 2.16976081,9.59802165 C2.16976081,9.86434627 2.38565958,10.080245 2.65198421,10.080245 L4.58092615,10.080245 C4.84725077,10.080245 5.06314954,9.86434627 5.06314954,9.59802165 C5.06314954,9.33169702 4.84725077,9.11579825 4.58092615,9.11579825 Z M4.58092615,6.70463292 L2.65198421,6.70463292 C2.38548597,6.70463292 2.16944646,6.92067243 2.16944646,7.18717067 C2.16944646,7.45366891 2.38548597,7.66970842 2.65198421,7.66970842 L4.58092615,7.66907971 C4.84725077,7.66907971 5.06314954,7.45318094 5.06314954,7.18685631 C5.06314954,6.92053169 4.84725077,6.70463292 4.58092615,6.70463292 Z M4.58092615,4.29407212 L2.65198421,4.29407212 C2.3924663,4.30326512 2.18683208,4.51631257 2.18683208,4.77599325 C2.18683208,5.03567392 2.3924663,5.24872138 2.65198421,5.25791437 L4.58092615,5.25793856 C4.75709279,5.26405278 4.92255835,5.17355751 5.01245416,5.02193029 C5.10234996,4.87030307 5.10234996,4.68170761 5.01245416,4.53008039 C4.92255835,4.37845316 4.75709279,4.2879579 4.58092615,4.29407212 Z M11.33157,4.29407212 L8.92103342,4.29407212 C8.66151552,4.30326512 8.4558813,4.51631257 8.4558813,4.77599325 C8.4558813,5.03567392 8.66151552,5.24872138 8.92103342,5.25791437 L11.33157,5.25793856 C11.5077367,5.26405278 11.6732022,5.17355751 11.763098,5.02193029 C11.8529938,4.87030307 11.8529938,4.68170761 11.763098,4.53008039 C11.6732022,4.37845316 11.5077367,4.2879579 11.33157,4.29407212 Z" id="形状结合" fill="#595959"></path>
    </g>
</svg>