<?xml version="1.0" encoding="UTF-8"?>
<svg width="16px" height="16px" viewBox="0 0 16 16" version="1.1" xmlns="http://www.w3.org/2000/svg" xmlns:xlink="http://www.w3.org/1999/xlink">
    <title>lib-library-management-filled</title>
    <g id="lib-library-management-filled" stroke="none" stroke-width="1" fill="none" fill-rule="evenodd">
        <g id="编组" transform="translate(1.100000, 0.000000)" fill="#595959">
            <path d="M12.0071556,0 C12.9477193,0 13.7101968,0.762477492 13.7101968,1.70304114 L13.7101968,10.862254 C13.7101968,11.1396808 13.5077878,11.3698324 13.2425904,11.4130885 L13.1520572,11.4203936 L2.84794275,11.4203936 C2.68628181,11.4203936 2.52979486,11.442546 2.38135187,11.483981 L2.09083335,11.5942358 C1.51387165,11.8751646 1.11627907,12.4671796 1.11627907,13.1520572 C1.11627907,14.1084287 1.89157131,14.8837209 2.84794275,14.8837209 L13.1520572,14.8837209 C13.4603092,14.8837209 13.7101968,15.1336085 13.7101968,15.4418605 C13.7101968,15.7501124 13.4603092,16 13.1520572,16 L2.84794275,16 C1.2750674,16 3.55271368e-15,14.7249326 3.55271368e-15,13.1520572 L0.001,13.102 L0,13.0847815 L0,1.70304114 C0,0.762477492 0.762477492,0 1.70304114,0 L12.0071556,0 Z M13.1520572,12.5947556 C13.4603092,12.5947556 13.7101968,12.8446432 13.7101968,13.1528952 C13.7101968,13.4611471 13.4603092,13.7110347 13.1520572,13.7110347 L3.99284436,13.7110347 C3.68459241,13.7110347 3.43470483,13.4611471 3.43470483,13.1528952 C3.43470483,12.8446432 3.68459241,12.5947556 3.99284436,12.5947556 L13.1520572,12.5947556 Z M10.210076,5.72450805 L4.57960644,5.72450805 L4.57960644,6.84078712 L10.210076,6.84078712 L10.210076,5.72450805 Z M10.2754919,3.43470483 L4.57960644,3.43470483 L4.57960644,4.5509839 L10.2754919,4.5509839 L10.2754919,3.43470483 Z" id="形状结合"></path>
        </g>
    </g>
</svg>