<?xml version="1.0" encoding="UTF-8"?>
<svg width="14px" height="16px" viewBox="0 0 14 16" version="1.1" xmlns="http://www.w3.org/2000/svg" xmlns:xlink="http://www.w3.org/1999/xlink">
    <title>编组 5</title>
    <g id="页面-1" stroke="none" stroke-width="1" fill="none" fill-rule="evenodd">
        <g id="lib库管理备份-2" transform="translate(-1.000000, 0.000000)" fill="#595959" fill-rule="nonzero">
            <g id="编组" transform="translate(1.400000, 0.400000)">
                <path d="M11.3692308,0 C12.2953698,0 13.0461538,0.750784035 13.0461538,1.67692308 L13.0461538,10.2923077 C13.0461538,10.5905415 12.8285642,10.8379544 12.543477,10.8844547 L12.4461538,10.8923077 L2.75384615,10.8923077 C1.89568062,10.8923077 1.2,11.5879883 1.2,12.4461538 C1.2,13.3043194 1.89568062,14 2.75384615,14 L12.4461538,14 C12.7775247,14 13.0461538,14.2686292 13.0461538,14.6 C13.0461538,14.9313708 12.7775247,15.2 12.4461538,15.2 L2.75384615,15.2 C1.48696859,15.2 0.419897029,14.3445288 0.0987841492,13.179739 C0.0364489426,13.0856107 0,12.9720619 0,12.85 L0,1.67692308 C0,0.750784035 0.750784035,0 1.67692308,0 L11.3692308,0 Z M12.4461538,11.946942 C12.7222962,11.946942 12.9461538,12.1707996 12.9461538,12.446942 C12.9461538,12.7230844 12.7222962,12.946942 12.4461538,12.946942 L3.83076923,12.946942 C3.55462686,12.946942 3.33076923,12.7230844 3.33076923,12.446942 C3.33076923,12.1707996 3.55462686,11.946942 3.83076923,11.946942 L12.4461538,11.946942 Z M11.3692308,1.2 L1.67692308,1.2 C1.41352573,1.2 1.2,1.41352573 1.2,1.67692308 L1.19993267,10.1722873 C1.64221874,9.86945587 2.17734486,9.69230769 2.75384615,9.69230769 L11.846,9.692 L11.8461538,1.67692308 C11.8461538,1.41352573 11.6326281,1.2 11.3692308,1.2 Z M9.65385276,5.48461538 L9.65385276,6.48461538 L4.40769231,6.48461538 L4.40769231,5.48461538 L9.65385276,5.48461538 Z M9.71538462,3.33076923 L9.71538462,4.33076923 L4.40769231,4.33076923 L4.40769231,3.33076923 L9.71538462,3.33076923 Z" id="形状结合"></path>
            </g>
        </g>
    </g>
</svg>