<?xml version="1.0" encoding="UTF-8"?>
<svg width="14px" height="14px" viewBox="0 0 14 14" version="1.1" xmlns="http://www.w3.org/2000/svg" xmlns:xlink="http://www.w3.org/1999/xlink">
    <title>lib-library-management-outlined</title>
    <g id="lib-library-management-outlined" stroke="none" stroke-width="1" fill="none" fill-rule="evenodd">
        <g id="编组" transform="translate(1.000000, 0.000000)" fill="#595959" fill-rule="nonzero">
            <path d="M10.4716599,0 C11.3246827,0 12.0161943,0.691511611 12.0161943,1.54453441 L12.0161943,9.47975709 C12.0161943,9.75444608 11.8157828,9.98232646 11.5532025,10.0251556 L11.4635628,10.0323887 L2.53643725,10.0323887 C1.74602162,10.0323887 1.10526316,10.6731471 1.10526316,11.4635628 C1.10526316,12.2539784 1.74602162,12.8947368 2.53643725,12.8947368 L11.4635628,12.8947368 C11.7687727,12.8947368 12.0161943,13.1421584 12.0161943,13.4473684 C12.0161943,13.7525784 11.7687727,14 11.4635628,14 L2.53643725,14 C1.36852489,14 0.384976191,13.2106454 0.0901875563,12.1363325 C0.0330129314,12.0507886 0,11.9470127 0,11.8355263 L0,1.54453441 C0,0.691511611 0.691511611,0 1.54453441,0 L10.4716599,0 Z M11.4635628,11.0037624 C11.7179044,11.0037624 11.9240891,11.22762 11.9240891,11.5037624 C11.9240891,11.7799048 11.7179044,12.0037624 11.4635628,12.0037624 L3.52834008,12.0037624 C3.27399842,12.0037624 3.06781377,11.7799048 3.06781377,11.5037624 C3.06781377,11.22762 3.27399842,11.0037624 3.52834008,11.0037624 L11.4635628,11.0037624 Z M10.4716599,1.10526316 L1.54453441,1.10526316 C1.3019316,1.10526316 1.10526316,1.3019316 1.10526316,1.54453441 L1.10464059,9.36959594 C1.5121177,9.09043803 2.00520563,8.92712551 2.53643725,8.92712551 L10.91,8.927 L10.9109312,1.54453441 C10.9109312,1.3019316 10.7142627,1.10526316 10.4716599,1.10526316 Z M8.89170649,5.05161943 L8.89170649,6.05161943 L4.0597166,6.05161943 L4.0597166,5.05161943 L8.89170649,5.05161943 Z M8.94838057,3.06781377 L8.94838057,4.06781377 L4.0597166,4.06781377 L4.0597166,3.06781377 L8.94838057,3.06781377 Z" id="形状结合"></path>
        </g>
    </g>
</svg>