<?xml version="1.0" encoding="UTF-8"?>
<svg width="16px" height="16px" viewBox="0 0 16 16" version="1.1" xmlns="http://www.w3.org/2000/svg" xmlns:xlink="http://www.w3.org/1999/xlink">
    <title>marked-as-base-station-filled</title>
    <g id="marked-as-base-station-filled" stroke="none" stroke-width="1" fill="none" fill-rule="evenodd">
        <rect id="矩形备份" fill-opacity="0" fill="#CDCDCD" x="-2" y="-2" width="20" height="20"></rect>
        <g id="标为基线" fill-rule="nonzero">
            <rect id="矩形" fill-opacity="0" fill="#FFFFFF" x="0" y="0" width="16" height="16"></rect>
            <path d="M10.3266093,5.72023933 L11.8926811,5.72023933 L11.8926811,0.5 L13.4505983,0.5 C14.0028831,0.5 14.4505983,0.94771525 14.4505983,1.5 L14.4505983,14.5278754 C14.4505983,15.0801601 14.0028831,15.5278754 13.4505983,15.5278754 C13.2926051,15.5278754 13.1368602,15.4904398 12.996126,15.4186362 L8.33126136,13.0385903 C8.04374135,12.8918956 7.70309355,12.8930032 7.4165336,13.0415646 L2.86025545,15.4036773 C2.36994448,15.6578694 1.76640553,15.4664572 1.51221347,14.9761462 C1.43848432,14.8339301 1.4,14.6760826 1.4,14.5158908 L1.4,1.5 C1.4,0.94771525 1.84771525,0.5 2.4,0.5 L10.3266093,0.5 L10.3266093,5.72023933 Z" id="形状结合" fill="#595959"></path>
        </g>
    </g>
</svg>