<?xml version="1.0" encoding="UTF-8"?>
<svg width="16px" height="16px" viewBox="0 0 16 16" version="1.1" xmlns="http://www.w3.org/2000/svg" xmlns:xlink="http://www.w3.org/1999/xlink">
    <title>marked as base station-outlined</title>
    <g id="marked-as-base-station-outlined" stroke="none" stroke-width="1" fill="none" fill-rule="evenodd">
        <rect id="矩形" fill-opacity="0" fill="#F0F0F0" x="0" y="0" width="16" height="16"></rect>
        <g id="标记备份" fill-rule="nonzero">
            <rect id="矩形" fill="#000000" opacity="0" x="0" y="0" width="16" height="16"></rect>
            <path d="M12.75,0.4 C13.6336556,0.4 14.35,1.1163444 14.35,2 L14.35,13.3563833 C14.35,14.2400389 13.6336556,14.9563833 12.75,14.9563833 C12.4940468,14.9563833 12.2418288,14.8949781 12.01452,14.7773229 L8.14159973,12.7726948 C8.02546261,12.7125821 7.88727475,12.7130352 7.7715343,12.7739081 L3.99478175,14.7602677 C3.21269893,15.1715993 2.24524539,14.8710461 1.83391379,14.0889632 C1.7131188,13.8592904 1.65,13.603683 1.65,13.3441815 L1.65,2 C1.65,1.1163444 2.3663444,0.4 3.25,0.4 L12.75,0.4 Z M12.75,1.6 L11.199,1.6 L11.2,6 L10,6 L9.999,1.6 L3.25,1.6 C3.0290861,1.6 2.85,1.7790861 2.85,2 L2.85,13.3441815 C2.85,13.4090569 2.8657797,13.4729587 2.89597845,13.5303769 C2.99881135,13.7258976 3.24067473,13.8010359 3.43619544,13.698203 L7.21294799,11.7118435 C7.67590978,11.4683516 8.22866121,11.4665393 8.69320971,11.7069901 L12.56613,13.7116182 C12.6229572,13.741032 12.6860117,13.7563833 12.75,13.7563833 C12.9709139,13.7563833 13.15,13.5772972 13.15,13.3563833 L13.15,2 C13.15,1.7790861 12.9709139,1.6 12.75,1.6 Z" id="形状结合" fill="#262626"></path>
        </g>
    </g>
</svg>