<?xml version="1.0" encoding="UTF-8"?>
<svg width="14px" height="16px" viewBox="0 0 14 16" version="1.1" xmlns="http://www.w3.org/2000/svg" xmlns:xlink="http://www.w3.org/1999/xlink">
    <title>编组</title>
    <g id="页面-1" stroke="none" stroke-width="1" fill="none" fill-rule="evenodd">
        <g id="中间件部署备份-3" transform="translate(-1.000000, 0.000000)" fill="#595959" fill-rule="nonzero">
            <g id="编组" transform="translate(1.400000, 0.399261)">
                <path d="M13.2,5.66546976 L13.2,7.3925353 C13.2,7.72390615 12.9313708,7.9925353 12.6,7.9925353 C12.2686292,7.9925353 12,7.72390615 12,7.3925353 L12,6.16303097 L11.977,6.14 L8.49814202,6.14007285 C7.74793737,6.14007285 7.13925372,5.53284274 7.13925372,4.78314006 L7.139,1.304 L7.035,1.19903097 L1.6,1.20073947 C1.40670034,1.20073947 1.24542508,1.33785226 1.20812658,1.52012552 L1.2,1.60073947 L1.2,13.6007395 C1.2,13.8216534 1.3790861,14.0007395 1.6,14.0007395 L5.90612245,14.0007395 C6.2374933,14.0007395 6.50612245,14.2693686 6.50612245,14.6007395 C6.50612245,14.9321103 6.2374933,15.2007395 5.90612245,15.2007395 L1.6,15.2007395 C0.7163444,15.2007395 0,14.4843951 0,13.6007395 L0,1.60073947 C0,0.717083869 0.7163444,0.000739468738 1.59992522,0.000739473398 L7.5334641,0 L7.70922415,0.175726987 L12.595,5.06 L12.6,5.065 L13.2,5.66546976 Z M10.897,5.06 L8.219,2.384 L8.21925372,4.78314006 C8.21925372,4.93579642 8.34382763,5.06007285 8.49814202,5.06007285 L10.897,5.06 Z" id="形状结合"></path>
                <path d="M2.39081633,4.37058634 L7.16632653,4.37058634 L7.16632653,3.17058634 L2.39081633,3.17058634 L2.39081633,4.37058634 Z M2.39081633,7.9925353 L9.42142857,7.9925353 L9.42142857,6.7925353 L2.39081633,6.7925353 L2.39081633,7.9925353 Z" id="形状结合"></path>
                <path d="M11.7900997,8.60801576 C12.1032074,8.55939963 12.2193036,8.76393774 12.0455991,8.93781703 L11.7307323,9.25272688 C11.3951969,9.58822194 11.3951969,10.1343869 11.7307323,10.4698819 C12.0662678,10.805377 12.6124473,10.805377 12.9479828,10.4698819 L13.2628496,10.1549721 C13.4369938,9.98109278 13.6414813,10.0975963 13.5926682,10.4107542 C13.5273064,10.8373464 13.2883089,11.2182525 12.9319741,11.4637461 C12.5756392,11.7092397 12.13347,11.7976171 11.7096239,11.7080601 L9.06843669,14.3490982 C8.90728226,14.5101897 8.6883556,14.6007395 8.46003134,14.6007395 C8.23170707,14.6007395 8.01278042,14.5101897 7.85162599,14.3490982 C7.51612467,14.012351 7.51612467,13.4691284 7.85162599,13.1323812 L10.4923735,10.4913431 C10.3816945,9.96990679 10.5422234,9.4280239 10.9193786,9.0499407 C11.1549474,8.81402215 11.4600059,8.65919306 11.7900997,8.60801576 Z M9.1878225,13.013686 C9.02229737,12.8479169 8.75472854,12.8435827 8.58390249,13.0039034 C8.41488965,13.1732786 8.41488965,13.44719 8.58390249,13.6165652 C8.75291533,13.7859404 9.02664985,13.7859404 9.19566269,13.6165652 C9.35682126,13.4465628 9.35334763,13.1794551 9.1878225,13.013686 Z" id="形状结合"></path>
            </g>
        </g>
    </g>
</svg>