<?xml version="1.0" encoding="UTF-8"?>
<svg width="14px" height="14px" viewBox="0 0 14 14" version="1.1" xmlns="http://www.w3.org/2000/svg" xmlns:xlink="http://www.w3.org/1999/xlink">
    <title>modify-managers-outlined</title>
    <g id="modify-managers-outlined" stroke="none" stroke-width="1" fill="none" fill-rule="evenodd">
        <g id="修改管理人-2" transform="translate(0.200000, 0.000000)" fill="#595959" fill-rule="nonzero">
            <g id="修改管理人">
                <g id="编组-20">
                    <path d="M5.8805188,0 C7.83177128,0 9.41354794,1.58179962 9.41354794,3.53306036 C9.41354794,5.15179627 8.32494267,6.51626515 6.83988035,6.93430037 L6.95910309,6.93391417 C7.80523447,6.93391417 8.60444865,7.07200026 9.3306863,7.33936374 C9.62163576,7.44647642 9.77066491,7.76916954 9.66355223,8.060119 C9.55643955,8.35106846 9.23374643,8.50009762 8.94279697,8.39298494 C8.34271025,8.17206376 7.67482202,8.05666782 6.95910309,8.05666782 L5.88038104,8.05666782 C3.1767952,8.05666782 1.25208059,9.72108729 1.12444869,11.9920744 C1.09570416,12.5035596 1.43390625,12.8772463 1.91814122,12.8772463 L7.11079132,12.8772463 C7.42083118,12.8772463 7.67216815,13.1285833 7.67216815,13.4386232 C7.67216815,13.748663 7.42083118,14 7.11079132,14 L1.91814122,14 C0.77765904,14 -0.060851325,13.0735119 0.00346389867,11.9290755 C0.152448141,9.27816068 2.21645491,7.28580798 5.08916276,6.97594649 C3.51897453,6.61788788 2.34747129,5.21228306 2.34747129,3.53306036 C2.34747129,1.58180495 3.92927017,0 5.8805188,0 Z M5.8805188,1.12275365 C4.54935085,1.12275365 3.47022494,2.20188371 3.47022494,3.53306036 C3.47022494,4.86422807 4.54935109,5.94335422 5.8805188,5.94335422 C7.21168767,5.94335422 8.29079428,4.86423609 8.29079428,3.53306036 C8.29079428,2.20187569 7.21168791,1.12275365 5.8805188,1.12275365 Z" id="形状结合"></path>
                </g>
                <path d="M11.3629372,9.08219827 L12.6321076,10.3081171 C12.6882542,10.3623727 12.6898217,10.4498365 12.6356531,10.5059368 L9.66619521,13.5836927 C9.619311,13.6325393 9.55325324,13.6601694 9.48425647,13.6601694 L8.29514687,13.6601694 C8.15781409,13.6600866 8.04650529,13.5525704 8.04641944,13.4199169 L8.04641944,12.2643465 C8.04636976,12.2017291 8.07166048,12.1415729 8.11689356,12.096718 L11.1528291,9.08347501 C11.1803378,9.05614934 11.2180382,9.04061481 11.2574964,9.0403431 C11.2969547,9.04007845 11.3348776,9.055099 11.3627817,9.08204807 L11.3629372,9.08219827 Z" id="路径"></path>
                <path d="M12.4156627,8.04640117 C12.5523918,8.04642128 12.6835059,8.09893498 12.7801311,8.19237768 L13.5093711,8.89662778 C13.7104598,9.09103176 13.7104598,9.40604583 13.5093711,9.60044981 L13.1763066,9.94552274 C13.1490494,9.9737743 13.111083,9.99012262 13.0711094,9.99082068 C13.0311358,9.99151874 12.9925825,9.9765067 12.9642858,9.94922529 L11.6936459,8.72187955 C11.6443758,8.67432206 11.6439803,8.597299 11.6927595,8.54927173 L12.0508911,8.19238519 C12.1475662,8.09892182 12.2787356,8.04640117 12.415515,8.04640117 L12.4156627,8.04640117 Z" id="路径"></path>
            </g>
        </g>
    </g>
</svg>