<?xml version="1.0" encoding="UTF-8"?>
<svg width="20px" height="20px" viewBox="0 0 20 20" version="1.1" xmlns="http://www.w3.org/2000/svg" xmlns:xlink="http://www.w3.org/1999/xlink">
    <title>Modify managers</title>
    <g id="Modify-managers" stroke="none" stroke-width="1" fill="none" fill-rule="evenodd">
        <rect id="矩形" fill="#000000" opacity="0" x="0" y="0" width="20" height="20"></rect>
        <path d="M12.1270721,5.6298717 C12.1270721,7.6345848 10.5019629,9.2597277 8.49723856,9.2597277 C6.49252546,9.2597277 4.86738257,7.6345848 4.86738257,5.6298717 C4.86738257,3.62514738 6.49252546,2 8.49723856,2 C10.5019629,2 12.1270721,3.62514738 12.1270721,5.6298717 Z M9.66506445,10.4696834 C11.297251,10.4696834 12.7070186,10.9228256 13.7926664,11.6877875 L10.2402139,15.0429161 L10.0377143,17.7286834 L3.50759693,17.7293842 C2.55535821,17.7293842 1.86876812,17.0032773 1.85071426,16.0725503 L1.85347809,15.923969 C2.02580808,12.8576574 4.60056078,10.4696834 8.34741988,10.4696834 L9.66506445,10.4696834 Z M15.004002,11.9393802 C15.0532038,11.9390503 15.1004913,11.9577799 15.1352858,11.9913836 L16.7180518,13.5202111 C16.7880628,13.5878642 16.7900175,13.6969258 16.7224728,13.7668792 L13.0197539,17.6046385 C12.9612924,17.665547 12.8789227,17.7 12.7928883,17.7 L11.3101468,17.7 C11.1389018,17.6998967 11.0001071,17.565831 11,17.4004209 L11,15.9595006 C10.9999381,15.8814207 11.0314739,15.80641 11.0878766,15.7504788 L14.8734887,11.9931629 C14.9077902,11.9590896 14.9548002,11.9397191 15.004002,11.9393802 Z M16.4479751,10.7 C16.6186514,10.7000251 16.7821421,10.7655062 16.9026274,10.8820231 L17.8119418,11.7601767 C18.0626861,12.0025857 18.0626861,12.3953875 17.8119418,12.6377965 L17.3966322,13.0680798 C17.3626442,13.1033076 17.3153026,13.1236929 17.2654582,13.1245633 C17.2156137,13.1254338 17.1675402,13.1067147 17.1322561,13.0726966 L15.5478517,11.5422771 C15.4864152,11.4829761 15.485922,11.3869334 15.5467464,11.3270465 L15.993313,10.8820325 C16.1138605,10.7654898 16.2774201,10.7 16.4479751,10.7 Z" id="形状结合" fill="#000000" opacity="0.649999976"></path>
        <g id="编组" opacity="0.649999976" transform="translate(11.000000, 10.700000)"></g>
    </g>
</svg>