<?xml version="1.0" encoding="UTF-8"?>
<svg width="15px" height="16px" viewBox="0 0 15 16" version="1.1" xmlns="http://www.w3.org/2000/svg" xmlns:xlink="http://www.w3.org/1999/xlink">
    <title>修改管理人 2</title>
    <g id="页面-1" stroke="none" stroke-width="1" fill="none" fill-rule="evenodd">
        <g id="修改管理人备份-3" fill="#595959" fill-rule="nonzero">
            <g id="修改管理人" transform="translate(0.399981, 0.400000)">
                <g id="编组-20">
                    <path d="M6.28510319,0 C8.3706034,0 10.0612076,1.6906287 10.0612076,3.77613774 C10.0612076,5.50645145 8.8974263,6.96493917 7.30989854,7.41154647 L7.43789495,7.41097301 C8.34224084,7.41097301 9.19644159,7.55855952 9.97264497,7.84431783 C10.283612,7.95879995 10.4428945,8.30369461 10.3284123,8.61466163 C10.2139302,8.92562864 9.86903556,9.08491113 9.55806855,8.97042901 C8.91669538,8.73430828 8.20285591,8.61097301 7.43789495,8.61097301 L6.28495595,8.61097301 C3.39536125,8.61097301 1.33822473,10.3899059 1.20181166,12.8171387 C1.17108948,13.3638145 1.53256014,13.7632112 2.05011087,13.7632112 L7.60001945,13.7632112 C7.9313903,13.7632112 8.20001945,14.0318403 8.20001945,14.3632112 C8.20001945,14.694582 7.9313903,14.9632112 7.60001945,14.9632112 L2.05011087,14.9632112 C0.831162604,14.9632112 -0.0650379448,13.97298 0.00370221766,12.7498054 C0.162967388,9.91595943 2.36979926,7.78625653 5.44107674,7.45570588 C3.76177306,7.07403193 2.50897919,5.57138694 2.50897919,3.77613774 C2.50897919,1.6906344 4.19960709,0 6.28510319,0 Z M6.28510319,1.2 C4.86234982,1.2 3.70897919,2.35337506 3.70897919,3.77613774 C3.70897919,5.19889085 4.86235008,6.35226174 6.28510319,6.35226174 C7.70785755,6.35226174 8.86120756,5.19889942 8.86120756,3.77613774 C8.86120756,2.3533665 7.7078578,1.2 6.28510319,1.2 Z" id="形状结合"></path>
                </g>
                <path d="M12.1447164,9.70706077 L13.5012067,11.0173238 C13.5612162,11.0753122 13.5628916,11.1687936 13.5049961,11.2287536 L10.3312372,14.5182616 C10.2811273,14.5704689 10.2105247,14.6 10.1367809,14.6 L8.8658596,14.6 C8.71907822,14.5999114 8.60011128,14.484998 8.60001952,14.3432179 L8.60001952,13.1081433 C8.59996643,13.0412178 8.62699717,12.9769228 8.67534232,12.9289818 L11.9201526,9.70842535 C11.949554,9.67921965 11.9898482,9.66261633 12.0320212,9.66232593 C12.0741942,9.66204307 12.1147263,9.67809705 12.1445502,9.70690023 L12.1447164,9.70706077 Z" id="路径"></path>
                <path d="M13.2698703,8.6 C13.4160064,8.60002149 13.5561413,8.65614818 13.6594144,8.75601981 L14.4388267,9.50872289 C14.6537504,9.71650201 14.6537504,10.0531893 14.4388267,10.2609684 L14.082847,10.6297827 C14.0537145,10.6599779 14.013136,10.677451 13.9704122,10.6781971 C13.9276883,10.6789432 13.8864825,10.6628983 13.856239,10.6337399 L12.498178,9.32195183 C12.4455182,9.27112235 12.4450955,9.18880004 12.4972307,9.13746846 L12.8800021,8.75602784 C12.9833285,8.65613411 13.1235224,8.6 13.2697124,8.6 L13.2698703,8.6 Z" id="路径"></path>
            </g>
        </g>
    </g>
</svg>