<?xml version="1.0" encoding="UTF-8"?>
<svg width="17px" height="16px" viewBox="0 0 17 16" version="1.1" xmlns="http://www.w3.org/2000/svg" xmlns:xlink="http://www.w3.org/1999/xlink">
    <title>编组 2</title>
    <g id="页面-1" stroke="none" stroke-width="1" fill="none" fill-rule="evenodd" opacity="0.649999976">
        <g id="修改管理人备份-2" transform="translate(-1.000000, -2.000000)">
            <g id="编组-2" transform="translate(1.850714, 2.000000)">
                <path d="M10.2763579,3.6298717 C10.2763579,5.6345848 8.65124862,7.2597277 6.6465243,7.2597277 C4.6418112,7.2597277 3.0166683,5.6345848 3.0166683,3.6298717 C3.0166683,1.62514738 4.6418112,0 6.6465243,0 C8.65124862,0 10.2763579,1.62514738 10.2763579,3.6298717 Z M7.81435018,8.46968344 C9.44653678,8.46968344 10.8563044,8.92282561 11.9419522,9.68778753 L8.38949967,13.0429161 L8.187,15.7286834 L1.65688267,15.7293842 C0.704643946,15.7293842 0.018053856,15.0032773 -3.20114354e-15,14.0725503 L0.00276383247,13.923969 C0.175093819,10.8576574 2.74984652,8.46968344 6.49670562,8.46968344 L7.81435018,8.46968344 Z M13.1532877,9.93938025 C13.2024895,9.93905025 13.249777,9.95777989 13.2845716,9.99138361 L14.8673376,11.5202111 C14.9373486,11.5878642 14.9393033,11.6969258 14.8717585,11.7668792 L11.1690397,15.6046385 C11.1105781,15.665547 11.0282085,15.7 10.942174,15.7 L9.4594325,15.7 C9.28818755,15.6998967 9.14939279,15.565831 9.14928574,15.4004209 L9.14928574,13.9595006 C9.14922379,13.8814207 9.18075966,13.80641 9.23716234,13.7504788 L13.0227744,9.99316291 C13.057076,9.95908959 13.1040859,9.93971905 13.1532877,9.93938025 Z M14.5972608,8.7 C14.7679371,8.70002507 14.9314279,8.76550621 15.0519131,8.88202311 L15.9612275,9.7601767 C16.2119718,10.0025857 16.2119718,10.3953875 15.9612275,10.6377965 L15.5459179,11.0680798 C15.5119299,11.1033076 15.4645883,11.1236929 15.4147439,11.1245633 C15.3648994,11.1254338 15.316826,11.1067147 15.2815419,11.0726966 L13.6971374,9.54227714 C13.6357009,9.48297607 13.6352077,9.38693338 13.6960322,9.32704654 L14.1425988,8.88203248 C14.2631462,8.7654898 14.4267058,8.7 14.5972608,8.7 Z" id="形状结合" fill="#000000"></path>
                <g id="编组" transform="translate(9.149286, 8.700000)"></g>
            </g>
        </g>
    </g>
</svg>