<?xml version="1.0" encoding="UTF-8"?>
<svg width="16px" height="16px" viewBox="0 0 16 16" version="1.1" xmlns="http://www.w3.org/2000/svg" xmlns:xlink="http://www.w3.org/1999/xlink">
    <title>modify-managers-filled</title>
    <g id="modify-managers-filled" stroke="none" stroke-width="1" fill="none" fill-rule="evenodd">
        <path d="M10.1813621,3.80631678 C10.1813621,5.79249809 8.57127554,7.40261799 6.58508311,7.40261799 C4.5989018,7.40261799 2.9887819,5.79249809 2.9887819,3.80631678 C2.9887819,1.82012435 4.5989018,0.21 6.58508311,0.21 C8.57127554,0.21 10.1813621,1.82012435 10.1813621,3.80631678 Z M7.74211349,8.60138877 C9.35944295,8.60138877 10.7563465,9.05047031 11.8320204,9.80855735 L8.31194623,13.132346 L8.111,15.7933888 L1.64156627,15.7939801 C0.698130141,15.7939801 0.0178869642,15.0745854 -4.4845358e-15,14.1524622 L0.0027382833,14.0052544 C0.173475233,10.9672881 2.72442664,8.60138877 6.43664937,8.60138877 L7.74211349,8.60138877 Z M13.0316973,10.0574995 C13.0804443,10.0571726 13.1272946,10.0757291 13.1617675,10.1090222 L14.7299023,11.623717 C14.7992661,11.6907447 14.8012027,11.7987982 14.7342824,11.8681049 L11.0657919,15.6703875 C11.0078708,15.730733 10.9262625,15.7648675 10.8410234,15.7648675 L9.37198849,15.7648675 C9.20232654,15.7647651 9.06481482,15.6319388 9.06470875,15.4680577 L9.06470875,14.0404574 C9.06464738,13.9630994 9.09589173,13.888782 9.15177301,13.8333679 L12.9023905,10.110785 C12.9363749,10.0770267 12.9829503,10.0578352 13.0316973,10.0574995 Z M14.4623221,8.82957626 C14.6314207,8.8296011 14.7934001,8.89447693 14.9127716,9.00991673 L15.8136802,9.87995257 C16.0621066,10.1201207 16.0621066,10.5092914 15.8136802,10.7494596 L15.4022098,11.1757652 C15.368536,11.2106674 15.321632,11.2308643 15.2722483,11.2317267 C15.2228647,11.232589 15.1752356,11.2140431 15.1402777,11.1803394 L13.5705196,9.6640673 C13.509651,9.60531442 13.5091624,9.51015956 13.5694246,9.45082631 L14.0118631,9.00992601 C14.1312962,8.89446066 14.2933438,8.82957626 14.4623221,8.82957626 Z" id="形状结合" fill="#595959"></path>
        <g id="编组" opacity="0.649999976" transform="translate(11.000000, 10.700000)"></g>
    </g>
</svg>