<?xml version="1.0" encoding="UTF-8"?>
<svg width="16px" height="16px" viewBox="0 0 16 16" version="1.1" xmlns="http://www.w3.org/2000/svg" xmlns:xlink="http://www.w3.org/1999/xlink">
    <title>pass-outlined</title>
    <g id="pass-outlined" stroke="none" stroke-width="1" fill="none" fill-rule="evenodd">
        <rect id="矩形" fill-opacity="0" fill="#F0F0F0" x="0" y="0" width="16" height="16"></rect>
        <g id="通过" transform="translate(1.900000, 0.900000)" fill="#262626" fill-rule="nonzero">
            <path d="M10.6,0 C11.4836556,0 12.2,0.7163444 12.2,1.6 L12.2,6.14641495 C12.2,6.4777858 11.9313708,6.74641495 11.6,6.74641495 C11.2686292,6.74641495 11,6.4777858 11,6.14641495 L11,1.6 C11,1.3790861 10.8209139,1.2 10.6,1.2 L1.6,1.2 C1.3790861,1.2 1.2,1.3790861 1.2,1.6 L1.2,12.6 C1.2,12.8209139 1.3790861,13 1.6,13 L5.12,13 C5.45137085,13 5.72,13.2686292 5.72,13.6 C5.72,13.9313708 5.45137085,14.2 5.12,14.2 L1.6,14.2 C0.7163444,14.2 0,13.4836556 0,12.6 L0,1.6 C0,0.7163444 0.7163444,0 1.6,0 L10.6,0 Z M9.6,7.1 C11.5329966,7.1 13.1,8.66700338 13.1,10.6 C13.1,12.5329966 11.5329966,14.1 9.6,14.1 C7.66700338,14.1 6.1,12.5329966 6.1,10.6 C6.1,8.66700338 7.66700338,7.1 9.6,7.1 Z M9.6,8.1 C8.21928813,8.1 7.1,9.21928813 7.1,10.6 C7.1,11.9807119 8.21928813,13.1 9.6,13.1 C10.9807119,13.1 12.1,11.9807119 12.1,10.6 C12.1,9.21928813 10.9807119,8.1 9.6,8.1 Z M11.1,9.38 L9.43027646,11.7357355 L9.34057359,11.8518505 L9.25225076,11.7357355 L8.23377812,10.3267103 L8.1,10.1514447 L8.98892149,10.1514447 L9.02178337,10.1969862 L9.34057359,10.6372203 L10.2169017,9.42554146 L10.2538077,9.38 L11.1,9.38 Z M6.1,5.4 L6.1,6.6 L2.9,6.6 L2.9,5.4 L6.1,5.4 Z M9.1,3.1 L9.1,4.3 L2.9,4.3 L2.9,3.1 L9.1,3.1 Z" id="形状结合"></path>
        </g>
    </g>
</svg>