<?xml version="1.0" encoding="UTF-8"?>
<svg width="14px" height="14px" viewBox="0 0 14 14" version="1.1" xmlns="http://www.w3.org/2000/svg" xmlns:xlink="http://www.w3.org/1999/xlink">
    <title>pass-outlined</title>
    <g id="pass-outlined" stroke="none" stroke-width="1" fill="none" fill-rule="evenodd">
        <rect id="矩形" fill-opacity="0" fill="#F0F0F0" x="-1" y="-1" width="16" height="16"></rect>
        <g id="通过" transform="translate(0.900000, 0.000000)" fill="#595959" fill-rule="nonzero">
            <path d="M10.6,0 C11.4836556,0 12.2,0.7163444 12.2,1.6 L12.2,6.04641495 C12.2,6.3777858 11.9313708,6.64641495 11.6,6.64641495 C11.2686292,6.64641495 11,6.3777858 11,6.04641495 L11,1.6 C11,1.3790861 10.8209139,1.2 10.6,1.2 L1.6,1.2 C1.3790861,1.2 1.2,1.3790861 1.2,1.6 L1.2,12.5 C1.2,12.7209139 1.3790861,12.9 1.6,12.9 L5.12,12.9 C5.45137085,12.9 5.72,13.1686292 5.72,13.5 C5.72,13.8313708 5.45137085,14.1 5.12,14.1 L1.6,14.1 C0.7163444,14.1 0,13.3836556 0,12.5 L0,1.6 C0,0.7163444 0.7163444,0 1.6,0 L10.6,0 Z M9.6,7 C11.5329966,7 13.1,8.56700338 13.1,10.5 C13.1,12.4329966 11.5329966,14 9.6,14 C7.66700338,14 6.1,12.4329966 6.1,10.5 C6.1,8.56700338 7.66700338,7 9.6,7 Z M9.6,8 C8.21928813,8 7.1,9.11928813 7.1,10.5 C7.1,11.8807119 8.21928813,13 9.6,13 C10.9807119,13 12.1,11.8807119 12.1,10.5 C12.1,9.11928813 10.9807119,8 9.6,8 Z M11.1,9.28 L9.43027646,11.6357355 L9.34057359,11.7518505 L9.25225076,11.6357355 L8.23377812,10.2267103 L8.1,10.0514447 L8.98892149,10.0514447 L9.02178337,10.0969862 L9.34057359,10.5372203 L10.2169017,9.32554146 L10.2538077,9.28 L11.1,9.28 Z M6.1,5.3 L6.1,6.5 L2.9,6.5 L2.9,5.3 L6.1,5.3 Z M9.1,3 L9.1,4.2 L2.9,4.2 L2.9,3 L9.1,3 Z" id="形状结合"></path>
        </g>
    </g>
</svg>