<?xml version="1.0" encoding="UTF-8"?>
<svg width="20px" height="20px" viewBox="0 0 20 20" version="1.1" xmlns="http://www.w3.org/2000/svg" xmlns:xlink="http://www.w3.org/1999/xlink">
    <title>pass-filled</title>
    <g id="pass-filled" stroke="none" stroke-width="1" fill="none" fill-rule="evenodd">
        <rect id="矩形备份" fill-opacity="0" fill="#CDCDCD" x="0" y="0" width="20" height="20"></rect>
        <g id="通过" transform="translate(2.000000, 2.000000)">
            <rect id="矩形" fill-opacity="0" fill="#FFFFFF" x="0" y="0" width="16" height="16"></rect>
            <g id="图标" transform="translate(1.714286, 0.571429)" fill="#262626">
                <path d="M11.5714286,0 C12.1237133,8.7960173e-16 12.5714286,0.44771525 12.5714286,1 L12.5720905,6.98076574 C11.8868769,6.62782323 11.1095645,6.42857143 10.2857143,6.42857143 C7.52429054,6.42857143 5.28571429,8.66714768 5.28571429,11.4285714 C5.28571429,12.7560259 5.80301731,13.9626577 6.64702976,14.8578733 L1,14.8571429 C0.44771525,14.8571429 2.02974496e-15,14.4094276 0,13.8571429 L0,1 C-6.76353751e-17,0.44771525 0.44771525,1.01453063e-16 1,0 L11.5714286,0 Z M6.28571429,5.48571429 L2.62857143,5.48571429 L2.62857143,6.68571429 L6.28571429,6.68571429 L6.28571429,5.48571429 Z M9.71428571,2.85714286 L2.62857143,2.85714286 L2.62857143,4.05714286 L9.71428571,4.05714286 L9.71428571,2.85714286 Z" id="形状结合"></path>
                <path d="M10.2857143,7.42857143 C12.4948533,7.42857143 14.2857143,9.21943243 14.2857143,11.4285714 C14.2857143,13.6377104 12.4948533,15.4285714 10.2857143,15.4285714 C8.07657529,15.4285714 6.28571429,13.6377104 6.28571429,11.4285714 C6.28571429,9.21943243 8.07657529,7.42857143 10.2857143,7.42857143 Z M12,10.0342857 L11.0329231,10.0342857 L10.9907448,10.0863331 L9.98922696,11.4711089 L9.62489528,10.9679842 L9.58733885,10.9159368 L8.57142857,10.9159368 L8.72431785,11.1162404 L9.88828658,12.7265548 L9.98922696,12.8592577 L10.0917445,12.7265548 L12,10.0342857 Z" id="形状结合"></path>
            </g>
        </g>
    </g>
</svg>