<?xml version="1.0" encoding="UTF-8"?>
<svg width="14px" height="14px" viewBox="0 0 14 14" version="1.1" xmlns="http://www.w3.org/2000/svg" xmlns:xlink="http://www.w3.org/1999/xlink">
    <title>play-circle</title>
    <defs>
        <path d="M7,0.875 C3.61757813,0.875 0.875,3.61757813 0.875,7 C0.875,10.3824219 3.61757813,13.125 7,13.125 C10.3824219,13.125 13.125,10.3824219 13.125,7 C13.125,3.61757813 10.3824219,0.875 7,0.875 Z" id="path-1"></path>
        <mask id="mask-2" maskContentUnits="userSpaceOnUse" maskUnits="objectBoundingBox" x="0" y="0" width="12.25" height="12.25" fill="white">
            <use xlink:href="#path-1"></use>
        </mask>
    </defs>
    <g id="页面-1" stroke="none" stroke-width="1" fill="none" fill-rule="evenodd">
        <g id="执行" fill-rule="nonzero">
            <g id="play-circle">
                <rect id="矩形" fill="#000000" opacity="0" x="0" y="0" width="14" height="14"></rect>
                <use id="路径" stroke="#000000" mask="url(#mask-2)" stroke-width="2.08" stroke-dasharray="3,1" xlink:href="#path-1"></use>
                <path d="M5.44140625,4.06054688 C5.44140625,3.88144531 5.64238281,3.77890625 5.78730469,3.88417969 L9.83554688,6.82363281 C9.95585937,6.91113281 9.95585937,7.08886719 9.83554688,7.17636719 L5.78730469,10.1158203 C5.64375,10.2197266 5.44140625,10.1185547 5.44140625,9.93945313 Z M6.31367188,5.34433594 L6.31367188,8.65566406 L8.59277344,7 L6.31367188,5.34433594 Z" id="形状结合" fill="#000000"></path>
            </g>
        </g>
    </g>
</svg>