<?xml version="1.0" encoding="UTF-8"?>
<svg width="16px" height="16px" viewBox="0 0 16 16" version="1.1" xmlns="http://www.w3.org/2000/svg" xmlns:xlink="http://www.w3.org/1999/xlink">
    <title>quick-search-filled</title>
    <g id="quick-search-filled" stroke="none" stroke-width="1" fill="none" fill-rule="evenodd">
        <g id="信息" transform="translate(-2.000000, -2.000000)">
            <rect id="矩形" fill="#FFFFFF" opacity="0" x="0" y="0" width="20" height="20"></rect>
            <path d="M8.49184065,2 C12.0771852,2 14.9836813,4.90649606 14.9836813,8.49184065 C14.9836813,9.91217157 14.527553,11.225968 13.7537877,12.2947387 L17.860195,16.4006299 C18.0554571,16.5958921 18.0554571,16.9124745 17.860195,17.1077367 L17.1077367,17.860195 C16.9124745,18.0554571 16.5958921,18.0554571 16.4006299,17.860195 L12.2947387,13.7537877 C11.225968,14.527553 9.91217157,14.9836813 8.49184065,14.9836813 C4.90649606,14.9836813 2,12.0771852 2,8.49184065 C2,4.90649606 4.90649606,2 8.49184065,2 Z M8.49184065,4.06413669 C6.04648728,4.06413669 4.06413669,6.04648728 4.06413669,8.49184065 C4.06413669,10.937194 6.04648728,12.9195446 8.49184065,12.9195446 C10.937194,12.9195446 12.9195446,10.937194 12.9195446,8.49184065 C12.9195446,6.04648728 10.937194,4.06413669 8.49184065,4.06413669 Z M9.78418814,6.29366797 L9.17433395,7.86981541 L10.5658517,7.86981541 L10.3298056,8.16046412 L7.81953027,11.0208258 L7.38784688,11.4540097 L7.98581543,9.09570139 L6.78271018,9.09570139 L6.88207432,8.8582429 L7.81953027,6.29366797 L9.78418814,6.29366797 Z" id="形状结合" fill="#595959" fill-rule="nonzero"></path>
        </g>
    </g>
</svg>