<?xml version="1.0" encoding="UTF-8"?>
<svg width="14px" height="14px" viewBox="0 0 14 14" version="1.1" xmlns="http://www.w3.org/2000/svg" xmlns:xlink="http://www.w3.org/1999/xlink">
    <title>quick-search-outlined</title>
    <g id="quick-search-outlined" stroke="none" stroke-width="1" fill="none" fill-rule="evenodd">
        <g id="快速查询">
            <rect id="矩形" fill="#FFFFFF" opacity="0" x="0" y="0" width="14" height="14"></rect>
            <g id="编组-16" fill="#595959" fill-rule="nonzero">
                <path d="M5.85953638,0 C9.09566896,0 11.7190728,2.6234038 11.7190728,5.85953638 C11.7190728,7.2474232 11.2365468,8.52261007 10.430103,9.52648895 L13.8669372,12.9635747 C14.0621994,13.1588369 14.0621994,13.4754194 13.8669372,13.6706815 L13.6706815,13.8669372 C13.4754194,14.0621994 13.1588369,14.0621994 12.9635747,13.8669372 L9.52648895,10.430103 C8.52261007,11.2365468 7.2474232,11.7190728 5.85953638,11.7190728 C2.6234038,11.7190728 0,9.09566896 0,5.85953638 C0,2.6234038 2.6234038,0 5.85953638,0 Z M5.85953638,1.27754749 C3.32897379,1.27754749 1.27754749,3.32897379 1.27754749,5.85953638 C1.27754749,8.39009896 3.32897379,10.4415253 5.85953638,10.4415253 C8.39009896,10.4415253 10.4415253,8.39009896 10.4415253,5.85953638 C10.4415253,3.32897379 8.39009896,1.27754749 5.85953638,1.27754749 Z M7.05611062,3.44190392 L6.42777552,5.06581462 L7.86146157,5.06581462 L7.61826239,5.3652711 L5.03191614,8.31231261 L4.58715111,8.75862361 L5.20324037,6.3288496 L3.96367646,6.3288496 L4.06605171,6.08419523 L5.03191614,3.44190392 L7.05611062,3.44190392 Z" id="形状结合"></path>
            </g>
        </g>
    </g>
</svg>