<?xml version="1.0" encoding="UTF-8"?>
<svg width="14px" height="14px" viewBox="0 0 14 14" version="1.1" xmlns="http://www.w3.org/2000/svg" xmlns:xlink="http://www.w3.org/1999/xlink">
    <title>quick-search-outlined</title>
    <g id="quick-search-outlined" stroke="none" stroke-width="1" fill="none" fill-rule="evenodd">
        <g id="快速查询">
            <rect id="矩形" fill="#FFFFFF" opacity="0" x="0" y="0" width="14" height="14"></rect>
            <g id="编组-16" transform="translate(0.592021, 0.467021)" fill="#262626" fill-rule="nonzero">
                <path d="M5.50386087,0 C8.54355929,0 11.0077217,2.46416245 11.0077217,5.50386087 C11.0077217,6.80750975 10.5544803,8.00529842 9.79698035,8.94824395 L13.0037495,12.1552213 C13.1990116,12.3504835 13.1990116,12.667066 13.0037495,12.8623281 L12.8623281,13.0037495 C12.667066,13.1990116 12.3504835,13.1990116 12.1552213,13.0037495 L8.94824395,9.79698035 C8.00529842,10.5544803 6.80750975,11.0077217 5.50386087,11.0077217 C2.46416245,11.0077217 0,8.54355929 0,5.50386087 C0,2.46416245 2.46416245,0 5.50386087,0 Z M5.50386087,1.2 C3.12690415,1.2 1.2,3.12690415 1.2,5.50386087 C1.2,7.88081759 3.12690415,9.80772174 5.50386087,9.80772174 C7.88081759,9.80772174 9.80772174,7.88081759 9.80772174,5.50386087 C9.80772174,3.12690415 7.88081759,1.2 5.50386087,1.2 Z M6.62780272,3.23297938 L6.03760774,4.75831825 L7.38426864,4.75831825 L7.15583172,5.03959763 L4.72647741,7.8077529 L4.30870974,8.2269727 L4.88740222,5.94468665 L3.72308018,5.94468665 L3.81924122,5.71488286 L4.72647741,3.23297938 L6.62780272,3.23297938 Z" id="形状结合"></path>
            </g>
        </g>
    </g>
</svg>