<?xml version="1.0" encoding="UTF-8"?>
<svg width="16px" height="16px" viewBox="0 0 16 16" version="1.1" xmlns="http://www.w3.org/2000/svg" xmlns:xlink="http://www.w3.org/1999/xlink">
    <title>quick-search-filled</title>
    <g id="quick-search-filled" stroke="none" stroke-width="1" fill="none" fill-rule="evenodd">
        <rect id="矩形备份" fill-opacity="0" fill="#CDCDCD" x="-2" y="-2" width="20" height="20"></rect>
        <g id="信息" transform="translate(-2.000000, -2.000000)">
            <rect id="矩形" fill="#FFFFFF" opacity="0" x="0" y="0" width="20" height="20"></rect>
            <path d="M8.9667217,2.53373785 C12.4406628,2.53373785 15.2568484,5.3499235 15.2568484,8.82386456 C15.2568484,10.2002069 14.8148005,11.4733035 14.0649348,12.508924 L18.0329977,16.475927 C18.2282598,16.6711891 18.2282598,16.9877716 18.0329977,17.1830338 L17.3258909,17.8901405 C17.1306288,18.0854027 16.8140463,18.0854027 16.6187841,17.8901405 L12.6517812,13.9220777 C11.6161606,14.6719434 10.3430641,15.1139913 8.9667217,15.1139913 C5.49278065,15.1139913 2.67659499,12.2978056 2.67659499,8.82386456 C2.67659499,5.3499235 5.49278065,2.53373785 8.9667217,2.53373785 Z M8.9667217,4.53373785 C6.59735015,4.53373785 4.67659499,6.454493 4.67659499,8.82386456 C4.67659499,11.1932361 6.59735015,13.1139913 8.9667217,13.1139913 C11.3360933,13.1139913 13.2568484,11.1932361 13.2568484,8.82386456 C13.2568484,6.454493 11.3360933,4.53373785 8.9667217,4.53373785 Z M10.2189135,6.69399332 L9.62800862,8.22116683 L10.9762893,8.22116683 L10.7475776,8.50278453 L8.31530129,11.2742693 L7.89703114,11.6939933 L8.47641965,9.40896218 L7.31069719,9.40896218 L7.40697389,9.17888199 L8.31530129,6.69399332 L10.2189135,6.69399332 Z" id="形状结合" fill="#262626" fill-rule="nonzero"></path>
        </g>
    </g>
</svg>