<?xml version="1.0" encoding="UTF-8"?>
<svg width="16px" height="16px" viewBox="0 0 16 16" version="1.1" xmlns="http://www.w3.org/2000/svg" xmlns:xlink="http://www.w3.org/1999/xlink">
    <title>recover-alert-fillde</title>
    <g id="recover-alert-fillde" stroke="none" stroke-width="1" fill="none" fill-rule="evenodd">
        <g id="recover-alert">
            <rect id="矩形" x="0" y="0" width="16" height="16"></rect>
            <path d="M8,0 C12.4307692,0 16,3.56923077 16,8 C16,12.4307692 12.4307692,16 8,16 C3.56923077,16 0,12.4307692 0,8 C0,3.56923077 3.56923077,0 8,0 Z M12.2857143,7.4 L3.71428572,7.4 C3.35714286,7.4 3,7.64 3,8 C3,8.36 3.35714286,8.6 3.71428572,8.6 L12.2857143,8.6 C12.7142857,8.6 13,8.36 13,8 C13,7.64 12.6428571,7.4 12.2857143,7.4 Z" id="形状" fill="#000000" opacity="0.649999976"></path>
        </g>
    </g>
</svg>