<?xml version="1.0" encoding="UTF-8"?>
<svg width="14px" height="14px" viewBox="0 0 14 14" version="1.1" xmlns="http://www.w3.org/2000/svg" xmlns:xlink="http://www.w3.org/1999/xlink">
    <title>recover-alert-outlined</title>
    <g id="recover-alert-outlined" stroke="none" stroke-width="1" fill="none" fill-rule="evenodd">
        <g id="recover-alert">
            <rect id="矩形" x="0" y="0" width="14" height="14"></rect>
            <path d="M7,0 C10.8769231,0 14,3.12307692 14,7 C14,10.8769231 10.8769231,14 7,14 C3.12307692,14 0,10.8769231 0,7 C0,3.12307692 3.12307692,0 7,0 Z M7,1.2 C3.78581862,1.2 1.2,3.78581862 1.2,7 C1.2,10.2141814 3.78581862,12.8 7,12.8 C10.2141814,12.8 12.8,10.2141814 12.8,7 C12.8,3.78581862 10.2141814,1.2 7,1.2 Z M10.75,6.475 C11.0625,6.475 11.375,6.685 11.375,7 C11.375,7.315 11.125,7.525 10.75,7.525 L3.25000001,7.525 C2.9375,7.525 2.625,7.315 2.625,7 C2.625,6.685 2.9375,6.475 3.25000001,6.475 L10.75,6.475 Z" id="形状" fill="#595959"></path>
        </g>
    </g>
</svg>