<?xml version="1.0" encoding="UTF-8"?>
<svg width="20px" height="20px" viewBox="0 0 20 20" version="1.1" xmlns="http://www.w3.org/2000/svg" xmlns:xlink="http://www.w3.org/1999/xlink">
    <title>recover alert-fillde</title>
    <g id="recover-alert-fillde" stroke="none" stroke-width="1" fill="none" fill-rule="evenodd">
        <g id="recover-alert">
            <rect id="矩形" x="0" y="0" width="20" height="20"></rect>
            <path d="M10,2 C14.4307692,2 18,5.56923077 18,10 C18,14.4307692 14.4307692,18 10,18 C5.56923077,18 2,14.4307692 2,10 C2,5.56923077 5.56923077,2 10,2 Z M14.2857143,9.4 L5.71428572,9.4 C5.35714286,9.4 5,9.64 5,10 C5,10.36 5.35714286,10.6 5.71428572,10.6 L14.2857143,10.6 C14.7142857,10.6 15,10.36 15,10 C15,9.64 14.6428571,9.4 14.2857143,9.4 Z" id="形状" fill="#000000" opacity="0.649999976"></path>
        </g>
    </g>
</svg>