<?xml version="1.0" encoding="UTF-8"?>
<svg width="14px" height="14px" viewBox="0 0 14 14" version="1.1" xmlns="http://www.w3.org/2000/svg" xmlns:xlink="http://www.w3.org/1999/xlink">
    <title>registered-product-outlined</title>
    <g id="registered-product-outlined" stroke="none" stroke-width="1" fill="none" fill-rule="evenodd">
        <rect id="矩形" fill-opacity="0" fill="#F0F0F0" x="-1" y="-1" width="16" height="16"></rect>
        <g id="图标" transform="translate(0.900000, 0.000000)" fill="#595959" fill-rule="nonzero">
            <path d="M10.6,0 C11.4836556,0 12.2,0.7163444 12.2,1.6 L12.2,5.146415 C12.2,5.47778585 11.9313708,5.746415 11.6,5.746415 C11.2686292,5.746415 11,5.47778585 11,5.146415 L11,1.6 C11,1.3790861 10.8209139,1.2 10.6,1.2 L1.6,1.2 C1.3790861,1.2 1.2,1.3790861 1.2,1.6 L1.2,12 C1.2,12.2209139 1.3790861,12.4 1.6,12.4 L4.12,12.4 C4.45137085,12.4 4.72,12.6686292 4.72,13 C4.72,13.3313708 4.45137085,13.6 4.12,13.6 L1.6,13.6 C0.7163444,13.6 0,12.8836556 0,12 L0,1.6 C0,0.7163444 0.7163444,0 1.6,0 L10.6,0 Z M5.56446609,8.52442079 L5.56446609,11.242443 L8.09946609,12.5954208 L8.09946609,9.84042079 L5.56446609,8.52442079 Z M11.6354661,8.52442079 L9.09946609,9.84042079 L9.09946609,12.5884208 L11.6355339,11.241443 L11.6354661,8.52442079 Z M8.59946609,6.529421 L6.14846609,7.702421 L8.59946609,8.974421 L11.0504661,7.702421 L8.59946609,6.529421 Z M6.1,5.4 L6.1,6.6 L2.9,6.6 L2.9,5.4 L6.1,5.4 Z M9.1,3.1 L9.1,4.3 L2.9,4.3 L2.9,3.1 L9.1,3.1 Z M12.375,7.264 L12.408,7.284 L12.396,7.276 L12.4105221,7.28466886 C12.4247334,7.29391766 12.4382715,7.30372692 12.4511364,7.31404357 C12.4607927,7.32243986 12.4710669,7.33148826 12.4809541,7.34093822 C12.4932242,7.35159356 12.5039256,7.36275659 12.5140007,7.37430293 C12.5191321,7.38159616 12.5247725,7.38845428 12.5302303,7.39546155 C12.5619286,7.43456777 12.5859455,7.47801155 12.6031286,7.52361452 L12.6077264,7.53760833 C12.6148366,7.55704764 12.6203004,7.57689266 12.6245389,7.5969632 L12.6317004,7.63990027 L12.632,7.652 L12.634,7.68 L12.6338066,7.66041019 C12.6343706,7.66725855 12.6347965,7.67411699 12.6350842,7.68098057 L12.6355339,11.542704 C12.6355339,11.727659 12.533433,11.8975064 12.3700925,11.984272 L8.90414031,13.8275345 C8.75329137,13.9429504 8.54296982,13.9668808 8.36449248,13.871582 L4.82895858,11.983767 C4.66614547,11.8968321 4.56446609,11.7272732 4.56446609,11.542704 L4.56446609,7.702443 L4.5702264,7.62586327 L4.568,7.639 L4.57428751,7.60333591 C4.57845597,7.58147341 4.5843922,7.55929461 4.59185268,7.53755856 L4.59732131,7.52380732 C4.61405455,7.47801155 4.6380714,7.43456777 4.66892192,7.39500058 C4.67522752,7.38845428 4.68086787,7.38159616 4.68668359,7.37489433 C4.69607436,7.36275659 4.70677579,7.35159356 4.71810363,7.34086148 C4.72893311,7.33148826 4.73920734,7.32243986 4.74984242,7.3138192 C4.75954672,7.30547653 4.77069409,7.29725937 4.78230566,7.28942249 C4.79619621,7.2801353 4.80969519,7.27183601 4.82359764,7.26417899 C4.8268896,7.26246823 4.83049197,7.26054583 4.83413117,7.258657 L8.36966508,5.423635 C8.51407548,5.34868272 8.68592452,5.34868272 8.83033492,5.423635 L12.3658688,7.258657 L12.37,7.261 L12.392,7.274 L12.375,7.264 Z" id="形状结合"></path>
        </g>
    </g>
</svg>