<?xml version="1.0" encoding="UTF-8"?>
<svg width="14px" height="14px" viewBox="0 0 14 14" version="1.1" xmlns="http://www.w3.org/2000/svg" xmlns:xlink="http://www.w3.org/1999/xlink">
    <title>registered-product-outlined</title>
    <g id="registered-product-outlined" stroke="none" stroke-width="1" fill="none" fill-rule="evenodd">
        <rect id="矩形" fill-opacity="0" fill="#F0F0F0" x="-1" y="-1" width="16" height="16"></rect>
        <g id="图标" transform="translate(0.900000, -0.100000)" fill="#262626" fill-rule="nonzero">
            <path d="M10.6,0 C11.4836556,0 12.2,0.7163444 12.2,1.6 L12.2,6.14641495 C12.2,6.4777858 11.9313708,6.74641495 11.6,6.74641495 C11.2686292,6.74641495 11,6.4777858 11,6.14641495 L11,1.6 C11,1.3790861 10.8209139,1.2 10.6,1.2 L1.6,1.2 C1.3790861,1.2 1.2,1.3790861 1.2,1.6 L1.2,12.6 C1.2,12.8209139 1.3790861,13 1.6,13 L4.12,13 C4.45137085,13 4.72,13.2686292 4.72,13.6 C4.72,13.9313708 4.45137085,14.2 4.12,14.2 L1.6,14.2 C0.7163444,14.2 0,13.4836556 0,12.6 L0,1.6 C0,0.7163444 0.7163444,0 1.6,0 L10.6,0 Z M5.56446609,9.62442058 L5.56446609,12.3424431 L8.09946609,13.6954206 L8.09946609,10.9404206 L5.56446609,9.62442058 Z M11.6354661,9.62442058 L9.09946609,10.9404206 L9.09946609,13.6884206 L11.6355339,12.3414431 L11.6354661,9.62442058 Z M8.59946609,7.52942058 L6.14846609,8.80242058 L8.59946609,10.0744206 L11.0504661,8.80242058 L8.59946609,7.52942058 Z M6.1,5.4 L6.1,6.6 L2.9,6.6 L2.9,5.4 L6.1,5.4 Z M9.1,3.1 L9.1,4.3 L2.9,4.3 L2.9,3.1 L9.1,3.1 Z M12.375,8.364 L12.408,8.384 L12.396,8.376 L12.4105221,8.38466919 C12.4247334,8.39391799 12.4382715,8.40372725 12.4511364,8.41404389 C12.4607927,8.42243999 12.4710669,8.43148838 12.4809541,8.44093834 C12.4932242,8.45159387 12.5039256,8.4627569 12.5140007,8.47430323 C12.5191321,8.48159628 12.5247725,8.4884544 12.5302303,8.49546167 C12.5619286,8.53456804 12.5859455,8.5780118 12.6031286,8.62361475 L12.6077264,8.63760845 C12.6148366,8.65704785 12.6203004,8.67689285 12.6245389,8.69696339 L12.6317004,8.73990042 L12.632,8.752 L12.634,8.78 L12.6338066,8.76041034 C12.6343706,8.7672587 12.6347965,8.77411713 12.6350842,8.7809807 L12.6355339,12.6427039 C12.6355339,12.827659 12.533433,12.9975063 12.3700925,13.0842719 L8.90414031,14.9275345 C8.75329137,15.0429505 8.54296982,15.0668809 8.36449248,14.9715821 L4.82895858,13.0837665 C4.66614547,12.9968317 4.56446609,12.8272731 4.56446609,12.6427039 L4.56446609,8.80244312 L4.5702264,8.72586344 L4.568,8.739 L4.57428751,8.70333603 C4.57845597,8.68147361 4.5843922,8.65929482 4.59185268,8.63755878 L4.59732131,8.62380744 C4.61405455,8.5780118 4.6380714,8.53456804 4.66892192,8.49500088 C4.67522752,8.4884544 4.68086787,8.48159628 4.68668359,8.47489445 C4.69607436,8.4627569 4.70677579,8.45159387 4.71810363,8.4408618 C4.72893311,8.43148838 4.73920734,8.42243999 4.74984242,8.41381933 C4.75954672,8.40547686 4.77069409,8.3972597 4.78230566,8.38942282 C4.79619621,8.38013543 4.80969519,8.37183613 4.82359764,8.36417911 C4.8268896,8.36246857 4.83049197,8.36054616 4.83413117,8.35865733 L8.36966508,6.5236348 C8.51407548,6.44868251 8.68592452,6.44868251 8.83033492,6.5236348 L12.3658688,8.35865733 L12.37,8.361 L12.392,8.374 L12.375,8.364 Z" id="形状结合"></path>
        </g>
    </g>
</svg>