<?xml version="1.0" encoding="UTF-8"?>
<svg width="20px" height="20px" viewBox="0 0 20 20" version="1.1" xmlns="http://www.w3.org/2000/svg" xmlns:xlink="http://www.w3.org/1999/xlink">
    <title>registered product-filled</title>
    <g id="registered-product-filled" stroke="none" stroke-width="1" fill="none" fill-rule="evenodd">
        <rect id="矩形备份" fill-opacity="0" fill="#CDCDCD" x="0" y="0" width="20" height="20"></rect>
        <g id="通过" transform="translate(2.000000, 2.000000)">
            <rect id="矩形" fill-opacity="0" fill="#FFFFFF" x="0" y="0" width="16" height="16"></rect>
            <g id="图标" transform="translate(0.714286, 0.571429)" fill="#262626">
                <path d="M7.78571429,10.777794 C7.85869405,10.777794 7.93078914,10.7937699 7.99693714,10.8245999 L10.7469371,12.1063086 C10.9230937,12.1884109 11.0357143,12.3651527 11.0357143,12.5595027 L11.0357143,15.1528998 C11.0357143,15.4290421 10.8118567,15.6528998 10.5357143,15.6528998 C10.4627345,15.6528998 10.3906394,15.6369239 10.3244914,15.6060939 L7.57449143,14.3243852 C7.39833484,14.2422828 7.28571429,14.0655411 7.28571429,13.871191 L7.28571429,11.277794 C7.28571429,11.0016516 7.50957191,10.777794 7.78571429,10.777794 Z M14.7857143,10.777794 C15.0618567,10.777794 15.2857143,11.0016516 15.2857143,11.277794 L15.2857143,13.871191 C15.2857143,14.0655411 15.1730937,14.2422828 14.9969371,14.3243852 L12.2469371,15.6060939 C12.1807891,15.6369239 12.108694,15.6528998 12.0357143,15.6528998 C11.7595719,15.6528998 11.5357143,15.4290421 11.5357143,15.1528998 L11.5357143,12.5595027 C11.5357143,12.3651527 11.6483348,12.1884109 11.8244914,12.1063086 L14.5744914,10.8245999 C14.6406394,10.7937699 14.7127345,10.777794 14.7857143,10.777794 Z M11.5714286,0 C12.1237133,8.7960173e-16 12.5714286,0.44771525 12.5714286,1 L12.5720905,6.98076574 C11.8868769,6.62782323 11.1095645,6.42857143 10.2857143,6.42857143 C7.52429054,6.42857143 5.28571429,8.66714768 5.28571429,11.4285714 C5.28571429,12.7560259 5.80301731,13.9626577 6.64702976,14.8578733 L1,14.8571429 C0.44771525,14.8571429 2.02974496e-15,14.4094276 0,13.8571429 L0,1 C-6.76353751e-17,0.44771525 0.44771525,1.01453063e-16 1,0 L11.5714286,0 Z M11.4913284,8.12506212 L14.3058317,9.39479575 C14.4132885,9.44327376 14.5001607,9.52816073 14.5511095,9.63446831 C14.6704547,9.88348905 14.5653319,10.1821087 14.3163112,10.3014539 L11.5277106,11.6379135 C11.3919274,11.7029887 11.2340481,11.703408 11.0979212,11.6390549 L8.26435959,10.2995076 C8.15695737,10.2487339 8.07114264,10.1613775 8.02228913,10.0530884 C7.90873158,9.80137564 8.02072846,9.50526558 8.27244118,9.39170803 L11.0801001,8.12506212 C11.2108322,8.06608371 11.3605963,8.06608371 11.4913284,8.12506212 Z M6.28571429,5.48571429 L2.62857143,5.48571429 L2.62857143,6.68571429 L6.28571429,6.68571429 L6.28571429,5.48571429 Z M9.71428571,2.85714286 L2.62857143,2.85714286 L2.62857143,4.05714286 L9.71428571,4.05714286 L9.71428571,2.85714286 Z" id="形状结合"></path>
            </g>
        </g>
    </g>
</svg>