<?xml version="1.0" encoding="UTF-8"?>
<svg width="16px" height="16px" viewBox="0 0 16 16" version="1.1" xmlns="http://www.w3.org/2000/svg" xmlns:xlink="http://www.w3.org/1999/xlink">
    <title>registered-product-filled</title>
    <g id="registered-product-filled" stroke="none" stroke-width="1" fill="none" fill-rule="evenodd">
        <rect id="矩形备份" fill-opacity="0" fill="#CDCDCD" x="-2" y="-2" width="20" height="20"></rect>
        <g id="通过">
            <rect id="矩形" fill-opacity="0" fill="#FFFFFF" x="0" y="0" width="16" height="16"></rect>
            <g id="图标" transform="translate(0.714286, 0.571429)" fill="#595959" fill-rule="nonzero">
                <path d="M7.78571429,10.277794 C7.85869404,10.277794 7.93078912,10.2937699 7.99693711,10.3245998 L10.7469371,11.6063084 C10.9230937,11.6884107 11.0357143,11.8651524 11.0357143,12.0595025 L11.0357143,14.6528996 C11.0357143,14.929042 10.8118567,15.1528996 10.5357143,15.1528996 C10.4627345,15.1528996 10.3906395,15.1369237 10.3244915,15.1060937 L7.57449149,13.8243855 C7.39833487,13.7422832 7.28571429,13.5655414 7.28571429,13.3711913 L7.28571429,10.777794 C7.28571429,10.5016516 7.50957191,10.277794 7.78571429,10.277794 Z M14.7857143,10.277794 C15.0618567,10.277794 15.2857143,10.5016516 15.2857143,10.777794 L15.2857143,13.3711913 C15.2857143,13.5655414 15.1730937,13.7422832 14.9969371,13.8243855 L12.2469371,15.1060937 C12.1807891,15.1369237 12.108694,15.1528996 12.0357143,15.1528996 C11.7595719,15.1528996 11.5357143,14.929042 11.5357143,14.6528996 L11.5357143,12.0595025 C11.5357143,11.8651524 11.6483349,11.6884107 11.8244915,11.6063084 L14.5744915,10.3245998 C14.6406394,10.2937699 14.7127345,10.277794 14.7857143,10.277794 Z M11.5714286,0 C12.1237133,8.7960173e-16 12.5714286,0.44771525 12.5714286,1 L12.5720905,6.98076574 C11.8868769,6.62782323 11.1095645,6.42857143 10.2857143,6.42857143 C7.52429054,6.42857143 5.28571429,8.66714768 5.28571429,11.4285714 C5.28571429,12.7560259 5.80301731,13.9626577 6.64702976,14.8578733 L1,14.8571429 C0.44771525,14.8571429 1.27073477e-15,14.4094276 0,13.8571429 L0,1 C-6.76353751e-17,0.44771525 0.44771525,-9.5692398e-18 1,0 L11.5714286,0 Z M11.4913284,7.62506211 L14.3058317,8.89479569 C14.4132885,8.94327369 14.5001607,9.02816066 14.5511095,9.13446823 C14.6704547,9.38348896 14.5653319,9.68210858 14.3163112,9.80145382 L11.5277106,11.1379136 C11.3919274,11.2029888 11.2340481,11.2034081 11.0979212,11.139055 L8.26435955,9.79950748 C8.15695734,9.7487338 8.07114261,9.66137743 8.0222891,9.55308829 C7.90873155,9.30137557 8.02072845,9.00526551 8.27244117,8.89170796 L11.0801002,7.62506211 C11.2108322,7.56608371 11.3605963,7.56608371 11.4913284,7.62506211 Z M6.28571429,5.48571429 L2.62857143,5.48571429 L2.62857143,6.68571429 L6.28571429,6.68571429 L6.28571429,5.48571429 Z M9.71428571,2.85714286 L2.62857143,2.85714286 L2.62857143,4.05714286 L9.71428571,4.05714286 L9.71428571,2.85714286 Z" id="形状结合"></path>
            </g>
        </g>
    </g>
</svg>