<?xml version="1.0" encoding="UTF-8"?>
<svg width="14px" height="14px" viewBox="0 0 14 14" version="1.1" xmlns="http://www.w3.org/2000/svg" xmlns:xlink="http://www.w3.org/1999/xlink">
    <title>reject-outlined</title>
    <g id="reject-outlined" stroke="none" stroke-width="1" fill="none" fill-rule="evenodd">
        <rect id="矩形" fill-opacity="0" fill="#F0F0F0" x="-1" y="-1" width="16" height="16"></rect>
        <g id="图标" transform="translate(0.900000, -0.100000)" fill="#262626" fill-rule="nonzero">
            <path d="M10.6,0 C11.4836556,0 12.2,0.7163444 12.2,1.6 L12.2,6.14641495 C12.2,6.4777858 11.9313708,6.74641495 11.6,6.74641495 C11.2686292,6.74641495 11,6.4777858 11,6.14641495 L11,1.6 C11,1.3790861 10.8209139,1.2 10.6,1.2 L1.6,1.2 C1.3790861,1.2 1.2,1.3790861 1.2,1.6 L1.2,12.6 C1.2,12.8209139 1.3790861,13 1.6,13 L4.12,13 C4.45137085,13 4.72,13.2686292 4.72,13.6 C4.72,13.9313708 4.45137085,14.2 4.12,14.2 L1.6,14.2 C0.7163444,14.2 0,13.4836556 0,12.6 L0,1.6 C0,0.7163444 0.7163444,0 1.6,0 L10.6,0 Z M9.6,7.1 C11.5329966,7.1 13.1,8.66700338 13.1,10.6 C13.1,12.5329966 11.5329966,14.1 9.6,14.1 C7.66700338,14.1 6.1,12.5329966 6.1,10.6 C6.1,8.66700338 7.66700338,7.1 9.6,7.1 Z M9.6,8.1 C8.21928813,8.1 7.1,9.21928813 7.1,10.6 C7.1,11.9807119 8.21928813,13.1 9.6,13.1 C10.9807119,13.1 12.1,11.9807119 12.1,10.6 C12.1,9.21928813 10.9807119,8.1 9.6,8.1 Z M10.85,9.4 L10.01,10.585 L10.85,11.7703442 L10.0494865,11.7703442 L10.0145727,11.7272612 L9.6,11.1543442 L9.16349407,11.7703442 L8.35,11.7591239 L9.17902249,10.6128534 L9.194,10.5943442 L9.188,10.585 L9.17902249,10.5574909 L8.35,9.41122039 L9.16349407,9.4 L9.6,10.016 L10.0145727,9.44308306 L10.0494865,9.4 L10.85,9.4 Z M6.1,5.4 L6.1,6.6 L2.9,6.6 L2.9,5.4 L6.1,5.4 Z M9.1,3.1 L9.1,4.3 L2.9,4.3 L2.9,3.1 L9.1,3.1 Z" id="形状结合"></path>
        </g>
    </g>
</svg>