<?xml version="1.0" encoding="UTF-8"?>
<svg width="16px" height="16px" viewBox="0 0 16 16" version="1.1" xmlns="http://www.w3.org/2000/svg" xmlns:xlink="http://www.w3.org/1999/xlink">
    <title>reject-outlined</title>
    <g id="reject-outlined" stroke="none" stroke-width="1" fill="none" fill-rule="evenodd">
        <rect id="矩形" fill-opacity="0" fill="#F0F0F0" x="0" y="0" width="16" height="16"></rect>
        <g id="图标" transform="translate(1.900000, 0.900000)" fill="#262626">
            <path d="M10.6,0 C11.4836556,0 12.2,0.7163444 12.2,1.6 L12.2,6.14641495 C12.2,6.4777858 11.9313708,6.74641495 11.6,6.74641495 C11.2686292,6.74641495 11,6.4777858 11,6.14641495 L11,1.6 C11,1.3790861 10.8209139,1.2 10.6,1.2 L1.6,1.2 C1.3790861,1.2 1.2,1.3790861 1.2,1.6 L1.2,12.6 C1.2,12.8209139 1.3790861,13 1.6,13 L4.12,13 C4.45137085,13 4.72,13.2686292 4.72,13.6 C4.72,13.9313708 4.45137085,14.2 4.12,14.2 L1.6,14.2 C0.7163444,14.2 0,13.4836556 0,12.6 L0,1.6 C0,0.7163444 0.7163444,0 1.6,0 L10.6,0 Z" id="路径" fill-rule="nonzero"></path>
            <path d="M9.1,7.1 C11.309139,7.1 13.1,8.890861 13.1,11.1 C13.1,13.309139 11.309139,15.1 9.1,15.1 C6.890861,15.1 5.1,13.309139 5.1,11.1 C5.1,8.890861 6.890861,7.1 9.1,7.1 Z M9.1,8.1 C7.44314575,8.1 6.1,9.44314575 6.1,11.1 C6.1,12.7568542 7.44314575,14.1 9.1,14.1 C10.7568542,14.1 12.1,12.7568542 12.1,11.1 C12.1,9.44314575 10.7568542,8.1 9.1,8.1 Z M10.5920403,9.68 L9.586,11.098 L10.5920403,12.5168662 L9.63397293,12.5168662 L9.5921875,12.4653037 L9.096,11.7798662 L8.57360283,12.5168662 L7.6,12.5034375 L8.5921875,11.1315625 L8.611,11.1088662 L8.604,11.098 L8.5921875,11.0653037 L7.6,9.69342875 L8.57360283,9.68 L9.096,10.417 L9.5921875,9.7315625 L9.63397293,9.68 L10.5920403,9.68 Z" id="形状结合" fill-rule="nonzero"></path>
            <polygon id="Rectangle-Copy-25" points="2.9 3.1 9.1 3.1 9.1 4.3 2.9 4.3"></polygon>
            <polygon id="Rectangle-Copy-25备份-2" points="2.9 5.4 6.1 5.4 6.1 6.6 2.9 6.6"></polygon>
        </g>
    </g>
</svg>