<?xml version="1.0" encoding="UTF-8"?>
<svg width="14px" height="14px" viewBox="0 0 14 14" version="1.1" xmlns="http://www.w3.org/2000/svg" xmlns:xlink="http://www.w3.org/1999/xlink">
    <title>reject-outlined</title>
    <g id="reject-outlined" stroke="none" stroke-width="1" fill="none" fill-rule="evenodd">
        <rect id="矩形" fill-opacity="0" fill="#F0F0F0" x="-1" y="-1" width="16" height="16"></rect>
        <g id="图标" transform="translate(0.900000, 0.000000)" fill="#595959" fill-rule="nonzero">
            <path d="M10.6,0 C11.4836556,0 12.2,0.7163444 12.2,1.6 L12.2,6.146415 C12.2,6.47778585 11.9313708,6.746415 11.6,6.746415 C11.2686292,6.746415 11,6.47778585 11,6.146415 L11,1.6 C11,1.3790861 10.8209139,1.2 10.6,1.2 L1.6,1.2 C1.3790861,1.2 1.2,1.3790861 1.2,1.6 L1.2,12.5 C1.2,12.7209139 1.3790861,12.9 1.6,12.9 L4.12,12.9 C4.45137085,12.9 4.72,13.1686292 4.72,13.5 C4.72,13.8313708 4.45137085,14.1 4.12,14.1 L1.6,14.1 C0.7163444,14.1 0,13.3836556 0,12.5 L0,1.6 C0,0.7163444 0.7163444,0 1.6,0 L10.6,0 Z M9.6,7 C11.5329966,7 13.1,8.56700338 13.1,10.5 C13.1,12.4329966 11.5329966,14 9.6,14 C7.66700338,14 6.1,12.4329966 6.1,10.5 C6.1,8.56700338 7.66700338,7 9.6,7 Z M9.6,8 C8.21928813,8 7.1,9.11928813 7.1,10.5 C7.1,11.8807119 8.21928813,13 9.6,13 C10.9807119,13 12.1,11.8807119 12.1,10.5 C12.1,9.11928813 10.9807119,8 9.6,8 Z M10.85,9.3 L10.01,10.485 L10.85,11.6703442 L10.0494865,11.6703442 L10.0145727,11.6272612 L9.6,11.0543442 L9.16349407,11.6703442 L8.35,11.6591239 L9.17902249,10.5128534 L9.194,10.4943442 L9.188,10.485 L9.17902249,10.4574909 L8.35,9.31122039 L9.16349407,9.3 L9.6,9.916 L10.0145727,9.34308306 L10.0494865,9.3 L10.85,9.3 Z M6.1,5.4 L6.1,6.6 L2.9,6.6 L2.9,5.4 L6.1,5.4 Z M9.1,3.1 L9.1,4.3 L2.9,4.3 L2.9,3.1 L9.1,3.1 Z" id="形状结合"></path>
        </g>
    </g>
</svg>