<?xml version="1.0" encoding="UTF-8"?>
<svg width="14px" height="14px" viewBox="0 0 14 14" version="1.1" xmlns="http://www.w3.org/2000/svg" xmlns:xlink="http://www.w3.org/1999/xlink">
    <title>resource-management-outlined</title>
    <g id="resource-management-outlined" stroke="none" stroke-width="1" fill="none" fill-rule="evenodd" opacity="0.65">
        <g id="resource-management">
            <rect id="矩形" x="0" y="0" width="14" height="14"></rect>
            <path d="M13,0 C13.5522847,0 14,0.44771525 14,1 L14,4 L12.8,4 L12.8,1.2 L1.2,1.2 L1.2,8.8 L5,8.8 L5,14 L0,14 C0,13.3372583 0.5372583,12.8 1.2,12.8 L3.8,12.8 L3.8,10 L1,10 C0.44771525,10 0,9.55228475 0,9 L0,1 C0,0.44771525 0.44771525,0 1,0 L13,0 Z M13,10 C13.5522847,10 14,10.4477153 14,11 L14,13 C14,13.5522847 13.5522847,14 13,14 L7,14 C6.44771525,14 6,13.5522847 6,13 L6,11 C6,10.4477153 6.44771525,10 7,10 L13,10 Z M13,11 L7,11 L7,13 L13,13 L13,11 Z M8.6,11.4 C8.93137085,11.4 9.2,11.6686292 9.2,12 C9.2,12.3313708 8.93137085,12.6 8.6,12.6 C8.26862915,12.6 8,12.3313708 8,12 C8,11.6686292 8.26862915,11.4 8.6,11.4 Z M13,5 C13.5522847,5 14,5.44771525 14,6 L14,8 C14,8.55228475 13.5522847,9 13,9 L7,9 C6.44771525,9 6,8.55228475 6,8 L6,6 C6,5.44771525 6.44771525,5 7,5 L13,5 Z M13,6 L7,6 L7,8 L13,8 L13,6 Z M8.6,6.4 C8.93137085,6.4 9.2,6.66862915 9.2,7 C9.2,7.33137085 8.93137085,7.6 8.6,7.6 C8.26862915,7.6 8,7.33137085 8,7 C8,6.66862915 8.26862915,6.4 8.6,6.4 Z" id="形状" fill="#595959"></path>
        </g>
    </g>
</svg>