<?xml version="1.0" encoding="UTF-8"?>
<svg width="16px" height="16px" viewBox="0 0 16 16" version="1.1" xmlns="http://www.w3.org/2000/svg" xmlns:xlink="http://www.w3.org/1999/xlink">
    <title>resource view manegment-outlinde</title>
    <g id="resource-view-manegment-outlinde" stroke="none" stroke-width="1" fill="none" fill-rule="evenodd" opacity="0.65">
        <g id="编组">
            <rect id="矩形" x="0" y="0" width="16" height="16"></rect>
            <path d="M15,11 L15,15.025 L10.975,15.025 L10.975,13.975 L13.95,13.975 L13.95,11 L15,11 Z M2.05,10.975 L2.05,13.95 L5.025,13.95 L5.025,15 L1,15 L1,10.975 L2.05,10.975 Z M12.4680355,5.88727454 L12.8803356,6.24328235 L13.0556326,6.40696417 C13.7871276,7.12245252 14.070869,7.90922849 13.504701,8.82632243 C13.1492331,9.29913204 12.7198251,9.71150683 12.2676505,10.0217653 C10.4284932,11.497435 8.80813496,12.1817102 6.88725077,11.7147993 C5.90745997,11.4642217 4.98759416,11.0236922 4.1881883,10.4263719 L3.63368881,9.9962212 C3.50104713,9.89310127 3.38771077,9.80189544 3.27798306,9.70876189 C2.69008674,9.20977333 2.31645571,8.75297893 2.19546428,8.227773 C2.02432039,7.48520653 2.31176041,6.9131433 2.88696102,6.39437878 L3.23272939,6.10373866 L3.53709246,5.83388938 C4.25955624,5.21877605 5.06794057,4.70570167 5.96093659,4.30084118 C6.3353653,4.15650155 6.72222274,4.04674587 7.16185111,3.96626332 L7.77324972,3.90169441 C9.61560416,3.85925759 10.7229018,4.4123013 12.4680355,5.88727454 Z M8.0730385,5.09711411 L7.85222168,5.09798714 L7.33734763,5.15248189 C7.01490053,5.21280953 6.69865385,5.30253216 6.42500553,5.40691648 C5.6621879,5.75360422 4.95210874,6.20495857 4.30400613,6.75734989 L3.970895,7.04929118 L3.69064606,7.28549625 C3.40490546,7.54320128 3.31183626,7.72842764 3.36482239,7.95832617 C3.40561586,8.13540458 3.60018766,8.38741836 3.9261545,8.68163424 L4.15185637,8.87504017 L4.67408381,9.28313881 C5.40848019,9.88398691 6.26529264,10.3171139 7.17761705,10.5504815 C8.62982366,10.9034371 9.94186807,10.3493626 11.5512969,9.06001001 C11.931896,8.79727388 12.2676224,8.47486471 12.5137999,8.15183491 C12.682508,7.87704706 12.5953361,7.6353313 12.2165423,7.2648263 L12.0126327,7.07795599 L11.7013329,6.81042815 C10.2439376,5.57725463 9.37305387,5.11610138 8.0730385,5.09711411 Z M7.881875,5.685 C9.08067808,5.685 10.0525,6.65682191 10.0525,7.85562499 C10.0525,9.05442808 9.08067809,10.02625 7.88187501,10.02625 C6.68307193,10.02625 5.71125,9.0544281 5.71125,7.85562502 C5.71125,7.27993947 5.93994019,6.72783251 6.34701133,6.32076135 C6.75408249,5.9136902 7.30618945,5.685 7.881875,5.685 Z M7.881875,6.885 C7.62444924,6.885 7.37756697,6.98726198 7.19553948,7.16928948 C7.01351198,7.35131698 6.91125,7.59819925 6.91125,7.85562502 C6.91125,8.39168639 7.34581362,8.82625 7.88187501,8.82625 C8.41793639,8.82625 8.8525,8.39168638 8.8525,7.85562499 C8.8525,7.31956361 8.41793638,6.885 7.881875,6.885 Z M15,1 L15,5.025 L13.95,5.025 L13.95,2.05 L10.975,2.05 L10.975,1 L15,1 Z M5.025,0.975 L5.025,2.025 L2.05,2.025 L2.05,5 L1,5 L1,0.975 L5.025,0.975 Z" id="形状" fill="#000000" fill-rule="nonzero"></path>
        </g>
    </g>
</svg>