<?xml version="1.0" encoding="UTF-8"?>
<svg width="20px" height="20px" viewBox="0 0 20 20" version="1.1" xmlns="http://www.w3.org/2000/svg" xmlns:xlink="http://www.w3.org/1999/xlink">
    <title>Resource comparison-fillde</title>
    <g id="Resource-comparison-fillde" stroke="none" stroke-width="1" fill="none" fill-rule="evenodd">
        <g id="Resource-comparison">
            <rect id="矩形" x="0" y="0" width="20" height="20"></rect>
            <path d="M8.4,3.4 L8.4,4.6 L3.6,4.6 L3.6,15.4 L8.4,15.4 L8.4,16.6 L2.4,16.6 L2.4,3.4 L8.4,3.4 Z M11,2 L11,18 L9.8,18 L9.8,2 L11,2 Z M12.4,3.4 L13.6,3.4 L13.6,4.6 L12.4,4.6 Z M14.4,3.4 L15.6,3.4 L15.6,4.6 L14.4,4.6 Z M16.4,3.4 L17.6,3.4 L17.6,4.6 L16.4,4.6 Z M16.4,5.4 L17.6,5.4 L17.6,6.6 L16.4,6.6 Z M16.4,7.4 L17.6,7.4 L17.6,8.6 L16.4,8.6 Z M16.4,9.4 L17.6,9.4 L17.6,10.6 L16.4,10.6 Z M16.4,11.4 L17.6,11.4 L17.6,12.6 L16.4,12.6 Z M16.4,13.4 L17.6,13.4 L17.6,14.6 L16.4,14.6 Z M16.4,15.4 L17.6,15.4 L17.6,16.6 L16.4,16.6 Z M14.4,15.4 L15.6,15.4 L15.6,16.6 L14.4,16.6 Z M12.4,15.4 L13.6,15.4 L13.6,16.6 L12.4,16.6 Z" id="形状结合" fill-opacity="0.65" fill="#000000" fill-rule="nonzero"></path>
        </g>
    </g>
</svg>