<?xml version="1.0" encoding="UTF-8"?>
<svg width="16px" height="16px" viewBox="0 0 16 16" version="1.1" xmlns="http://www.w3.org/2000/svg" xmlns:xlink="http://www.w3.org/1999/xlink">
    <title>resource-view-manegment-fillde</title>
    <g id="resource-view-manegment-fillde" stroke="none" stroke-width="1" fill="none" fill-rule="evenodd">
        <g id="编组" transform="translate(-0.000000, 0.000000)">
            <rect id="矩形" x="5.68434189e-14" y="0" width="16" height="16"></rect>
            <path d="M16,11.4 L16,16 L11.4,16 L11.4,14.8 L14.8,14.8 L14.8,11.4 L16,11.4 Z M1.2,11.4 L1.2,14.8 L4.6,14.8 L4.6,16 L0,16 L0,11.4 L1.2,11.4 Z M12.9479801,6.35226992 C13.4451879,6.78387391 14.3429242,7.55515024 13.7429947,8.53230166 C13.3810602,9.01371243 12.9438407,9.43358898 12.4481827,9.77575275 C11.2055948,10.772758 9.22625896,12.146985 6.89818706,11.5811522 C5.75079255,11.2877106 4.68137116,10.7471078 3.7647421,9.9971656 C3.23257438,9.58412058 2.20665171,8.85384664 2.03444173,8.10630853 C1.8255454,7.19994016 2.61883352,6.67769935 3.0167724,6.33673219 C3.87464076,5.54493153 4.85347638,4.89523995 5.91628798,4.41221002 C6.3051538,4.26230498 6.70692758,4.14831737 7.11657866,4.07167447 L7.75664738,4.00175463 C10.1550707,3.94650932 11.6216611,5.20592975 12.9479801,6.35226992 Z M7.865,6.04 C7.3889364,6.04 6.93237112,6.22911553 6.59574332,6.56574334 C6.25911552,6.90237114 6.07,7.35893642 6.07,7.83500002 C6.07,8.82635114 6.87364889,9.63 7.86500001,9.63 C8.85635114,9.63 9.66,8.82635112 9.66,7.83499999 C9.66,6.84364887 8.85635112,6.04 7.865,6.04 Z M4.6,1.98951966e-12 L4.6,1.2 L1.2,1.2 L1.2,4.6 L0,4.6 L0,1.98951966e-12 L4.6,1.98951966e-12 Z M16,1.98951966e-12 L16,4.6 L14.8,4.6 L14.8,1.2 L11.4,1.2 L11.4,1.98951966e-12 L16,1.98951966e-12 Z" id="形状结合" fill="#000000" fill-rule="nonzero" opacity="0.65"></path>
        </g>
    </g>
</svg>