<?xml version="1.0" encoding="UTF-8"?>
<svg width="14px" height="14px" viewBox="0 0 14 14" version="1.1" xmlns="http://www.w3.org/2000/svg" xmlns:xlink="http://www.w3.org/1999/xlink">
    <title>resource-comparison-outlinde</title>
    <g id="resource-comparison-outlinde" stroke="none" stroke-width="1" fill="none" fill-rule="evenodd">
        <g id="Resource-comparison">
            <rect id="矩形" x="0" y="0" width="14" height="14"></rect>
            <path d="M5,1 L5,2.2 L1.2,2.2 L1.2,12 L5,12 L5,13.2 L2.30926389e-14,13.2 L2.30926389e-14,1 L5,1 Z M7.6,0 L7.6,14 L6.4,14 L6.4,0 L7.6,0 Z M9,1 L10.2,1 L10.2,2.2 L9,2.2 L9,1 Z M11,1 L12.2,1 L12.2,2.2 L11,2.2 L11,1 Z M13,1 L14.2,1 L14.2,2.2 L13,2.2 L13,1 Z M13,3.2 L14.2,3.2 L14.2,4.4 L13,4.4 L13,3.2 Z M13,5.4 L14.2,5.4 L14.2,6.6 L13,6.6 L13,5.4 Z M13,7.6 L14.2,7.6 L14.2,8.8 L13,8.8 L13,7.6 Z M13,9.8 L14.2,9.8 L14.2,11 L13,11 L13,9.8 Z M13,11.95 L14.2,11.95 L14.2,13.15 L13,13.15 L13,11.95 Z M11,11.95 L12.2,11.95 L12.2,13.15 L11,13.15 L11,11.95 Z M9,11.95 L10.2,11.95 L10.2,13.15 L9,13.15 L9,11.95 Z" id="形状" fill-opacity="0.65" fill="#000000" fill-rule="nonzero"></path>
        </g>
    </g>
</svg>