<?xml version="1.0" encoding="UTF-8"?>
<svg width="20px" height="20px" viewBox="0 0 20 20" version="1.1" xmlns="http://www.w3.org/2000/svg" xmlns:xlink="http://www.w3.org/1999/xlink">
    <title>resource view manegment-fillde</title>
    <g id="resource-view-manegment-fillde" stroke="none" stroke-width="1" fill="none" fill-rule="evenodd">
        <g id="编组">
            <rect id="矩形" x="0" y="0" width="20" height="20"></rect>
            <path d="M18,13.4 L18,18 L13.4,18 L13.4,16.8 L16.8,16.8 L16.8,13.4 L18,13.4 Z M3.2,13.4 L3.2,16.8 L6.6,16.8 L6.6,18 L2,18 L2,13.4 L3.2,13.4 Z M14.9479801,8.35226992 C15.4451879,8.78387391 16.3429242,9.55515024 15.7429947,10.5323017 C15.3810602,11.0137124 14.9438407,11.433589 14.4481827,11.7757528 C13.2055948,12.772758 11.226259,14.146985 8.89818706,13.5811522 C7.75079255,13.2877106 6.68137116,12.7471078 5.7647421,11.9971656 C5.23257438,11.5841206 4.20665171,10.8538466 4.03444173,10.1063085 C3.8255454,9.19994016 4.61883352,8.67769935 5.0167724,8.33673219 C5.87464076,7.54493153 6.85347638,6.89523995 7.91628798,6.41221002 C8.3051538,6.26230498 8.70692758,6.14831737 9.11657866,6.07167447 L9.75664738,6.00175463 C12.1550707,5.94650932 13.6216611,7.20592975 14.9479801,8.35226992 Z M9.865,8.04 C9.3889364,8.04 8.93237112,8.22911553 8.59574332,8.56574334 C8.25911552,8.90237114 8.07,9.35893642 8.07,9.83500002 C8.07,10.8263511 8.87364889,11.63 9.86500001,11.63 C10.8563511,11.63 11.66,10.8263511 11.66,9.83499999 C11.66,8.84364887 10.8563511,8.04 9.865,8.04 Z M6.6,2 L6.6,3.2 L3.2,3.2 L3.2,6.6 L2,6.6 L2,2 L6.6,2 Z M18,2 L18,6.6 L16.8,6.6 L16.8,3.2 L13.4,3.2 L13.4,2 L18,2 Z" id="形状结合" fill="#000000" fill-rule="nonzero" opacity="0.65"></path>
        </g>
    </g>
</svg>