<?xml version="1.0" encoding="UTF-8"?>
<svg width="16px" height="16px" viewBox="0 0 16 16" version="1.1" xmlns="http://www.w3.org/2000/svg" xmlns:xlink="http://www.w3.org/1999/xlink">
    <title>resource-comparison-filled</title>
    <g id="resource-comparison-filled" stroke="none" stroke-width="1" fill="none" fill-rule="evenodd">
        <g id="Resource-comparison">
            <rect id="矩形" x="0" y="0" width="16" height="16"></rect>
            <path d="M6.4,1.4 L6.4,2.6 L1.6,2.6 L1.6,13.4 L6.4,13.4 L6.4,14.6 L0.4,14.6 L0.4,1.4 L6.4,1.4 Z M9,0 L9,16 L7.8,16 L7.8,0 L9,0 Z M10.4,1.4 L11.6,1.4 L11.6,2.6 L10.4,2.6 Z M12.4,1.4 L13.6,1.4 L13.6,2.6 L12.4,2.6 Z M14.4,1.4 L15.6,1.4 L15.6,2.6 L14.4,2.6 Z M14.4,3.4 L15.6,3.4 L15.6,4.6 L14.4,4.6 Z M14.4,5.4 L15.6,5.4 L15.6,6.6 L14.4,6.6 Z M14.4,7.4 L15.6,7.4 L15.6,8.6 L14.4,8.6 Z M14.4,9.4 L15.6,9.4 L15.6,10.6 L14.4,10.6 Z M14.4,11.4 L15.6,11.4 L15.6,12.6 L14.4,12.6 Z M14.4,13.4 L15.6,13.4 L15.6,14.6 L14.4,14.6 Z M12.4,13.4 L13.6,13.4 L13.6,14.6 L12.4,14.6 Z M10.4,13.4 L11.6,13.4 L11.6,14.6 L10.4,14.6 Z" id="形状结合" fill="#595959"></path>
        </g>
    </g>
</svg>