<?xml version="1.0" encoding="UTF-8"?>
<svg width="14px" height="14px" viewBox="0 0 14 14" version="1.1" xmlns="http://www.w3.org/2000/svg" xmlns:xlink="http://www.w3.org/1999/xlink">
    <title>resource-view-manegment-outlinde</title>
    <g id="resource-view-manegment-outlinde" stroke="none" stroke-width="1" fill="none" fill-rule="evenodd" opacity="0.65">
        <g id="编组" transform="translate(0.000000, -0.025000)">
            <rect id="矩形" x="0" y="0.025" width="14" height="14"></rect>
            <path d="M14,10.025 L14,14.05 L9.975,14.05 L9.975,13 L12.95,13 L12.95,10.025 L14,10.025 Z M1.05,10 L1.05,12.975 L4.025,12.975 L4.025,14.025 L0,14.025 L0,10 L1.05,10 Z M11.4680355,4.91227454 L11.8803356,5.26828235 L12.0556326,5.43196417 C12.7871276,6.14745252 13.070869,6.93422849 12.504701,7.85132243 C12.1492331,8.32413204 11.7198251,8.73650683 11.2676505,9.04676527 C9.42849324,10.522435 7.80813496,11.2067102 5.88725077,10.7397993 C4.90745997,10.4892217 3.98759416,10.0486922 3.1881883,9.45137193 L2.63368881,9.0212212 C2.50104713,8.91810127 2.38771077,8.82689544 2.27798306,8.73376189 C1.69008674,8.23477333 1.31645571,7.77797893 1.19546428,7.252773 C1.02432039,6.51020653 1.31176041,5.9381433 1.88696102,5.41937878 L2.23272939,5.12873866 L2.53709246,4.85888938 C3.25955624,4.24377605 4.06794057,3.73070167 4.96093659,3.32584118 C5.3353653,3.18150155 5.72222274,3.07174587 6.16185111,2.99126332 L6.77324972,2.92669441 C8.61560416,2.88425759 9.72290185,3.4373013 11.4680355,4.91227454 Z M7.0730385,4.12211411 L6.85222168,4.12298714 L6.33734763,4.17748189 C6.01490053,4.23780953 5.69865385,4.32753216 5.42500553,4.43191648 C4.6621879,4.77860422 3.95210874,5.22995857 3.30400613,5.78234989 L2.970895,6.07429118 L2.69064606,6.31049625 C2.40490546,6.56820128 2.31183626,6.75342764 2.36482239,6.98332617 C2.40561586,7.16040458 2.60018766,7.41241836 2.9261545,7.70663424 L3.15185637,7.90004017 L3.67408381,8.30813881 C4.40848019,8.90898691 5.26529264,9.34211386 6.17761705,9.57548148 C7.62982366,9.92843714 8.94186807,9.37436255 10.5512969,8.08501001 C10.931896,7.82227388 11.2676224,7.49986471 11.5137999,7.17683491 C11.682508,6.90204706 11.5953361,6.6603313 11.2165423,6.2898263 L11.0126327,6.10295599 L10.7013329,5.83542815 C9.24393762,4.60225463 8.37305387,4.14110138 7.0730385,4.12211411 Z M6.881875,4.71 C8.08067808,4.71 9.0525,5.68182191 9.0525,6.88062499 C9.0525,8.07942808 8.08067809,9.05125 6.88187501,9.05125 C5.68307193,9.05125 4.71125,8.0794281 4.71125,6.88062502 C4.71125,6.30493947 4.93994019,5.75283251 5.34701133,5.34576135 C5.75408249,4.9386902 6.30618945,4.71 6.881875,4.71 Z M6.881875,5.91 C6.62444924,5.91 6.37756697,6.01226198 6.19553948,6.19428948 C6.01351198,6.37631698 5.91125,6.62319925 5.91125,6.88062502 C5.91125,7.41668639 6.34581362,7.85125 6.88187501,7.85125 C7.41793639,7.85125 7.8525,7.41668638 7.8525,6.88062499 C7.8525,6.34456361 7.41793638,5.91 6.881875,5.91 Z M14,0.025 L14,4.05 L12.95,4.05 L12.95,1.075 L9.975,1.075 L9.975,0.025 L14,0.025 Z M4.025,0 L4.025,1.05 L1.05,1.05 L1.05,4.025 L0,4.025 L0,0 L4.025,0 Z" id="形状" fill="#000000" fill-rule="nonzero"></path>
        </g>
    </g>
</svg>