<?xml version="1.0" encoding="UTF-8"?>
<svg width="20px" height="20px" viewBox="0 0 20 20" version="1.1" xmlns="http://www.w3.org/2000/svg" xmlns:xlink="http://www.w3.org/1999/xlink">
    <title>resource management-fillde</title>
    <g id="resource-management-fillde" stroke="none" stroke-width="1" fill="none" fill-rule="evenodd">
        <g id="resource-management">
            <rect id="矩形" x="0" y="0" width="20" height="20"></rect>
            <path d="M17,14 C17.5522847,14 18,14.4477153 18,15 L18,17 C18,17.5522847 17.5522847,18 17,18 L10,18 C9.44771525,18 9,17.5522847 9,17 L9,15 C9,14.4477153 9.44771525,14 10,14 L17,14 Z M6,16.8 L7,14 L3,14 C2.44771525,14 2,13.5522847 2,13 L2,3 C2,2.44771525 2.44771525,2 3,2 L15,2 C15.5522847,2 16,2.44771525 16,3 L16,8 L9.5,8 C8.72030388,8 8.07955132,8.59488808 8.00686658,9.35553999 L8,9.5 L8,18 L3,18 C3,17.3372583 3.5372583,16.8 4.2,16.8 L6,16.8 Z M10.6,15.4 C10.2686292,15.4 10,15.6686292 10,16 C10,16.3313708 10.2686292,16.6 10.6,16.6 C10.9313708,16.6 11.2,16.3313708 11.2,16 C11.2,15.6686292 10.9313708,15.4 10.6,15.4 Z M16.4,15.4 L14.6,15.4 C14.2686292,15.4 14,15.6686292 14,16 C14,16.3313708 14.2686292,16.6 14.6,16.6 L16.4,16.6 C16.7313708,16.6 17,16.3313708 17,16 C17,15.6686292 16.7313708,15.4 16.4,15.4 Z M17,9 C17.5522847,9 18,9.44771525 18,10 L18,12 C18,12.5522847 17.5522847,13 17,13 L10,13 C9.44771525,13 9,12.5522847 9,12 L9,10 C9,9.44771525 9.44771525,9 10,9 L17,9 Z M10.6,10.4 C10.2686292,10.4 10,10.6686292 10,11 C10,11.3313708 10.2686292,11.6 10.6,11.6 C10.9313708,11.6 11.2,11.3313708 11.2,11 C11.2,10.6686292 10.9313708,10.4 10.6,10.4 Z M16.4,10.4 L14.6,10.4 C14.2686292,10.4 14,10.6686292 14,11 C14,11.3313708 14.2686292,11.6 14.6,11.6 L16.4,11.6 C16.7313708,11.6 17,11.3313708 17,11 C17,10.6686292 16.7313708,10.4 16.4,10.4 Z" id="形状" fill="#000000" opacity="0.649999976"></path>
        </g>
    </g>
</svg>