<?xml version="1.0" encoding="UTF-8"?>
<svg width="16px" height="16px" viewBox="0 0 16 16" version="1.1" xmlns="http://www.w3.org/2000/svg" xmlns:xlink="http://www.w3.org/1999/xlink">
    <title>resource management-outlinde</title>
    <g id="resource-management-outlinde" stroke="none" stroke-width="1" fill="none" fill-rule="evenodd" opacity="0.65">
        <g id="resource-management">
            <rect id="矩形" x="0" y="0" width="16" height="16"></rect>
            <path d="M14,1 C14.5522847,1 15,1.44771525 15,2 L15,5 L13.8,5 L13.8,2.2 L2.2,2.2 L2.2,9.8 L6,9.8 L6,15 L1,15 C1,14.3372583 1.5372583,13.8 2.2,13.8 L4.8,13.8 L4.8,11 L2,11 C1.44771525,11 1,10.5522847 1,10 L1,2 C1,1.44771525 1.44771525,1 2,1 L14,1 Z M14,11 C14.5522847,11 15,11.4477153 15,12 L15,14 C15,14.5522847 14.5522847,15 14,15 L8,15 C7.44771525,15 7,14.5522847 7,14 L7,12 C7,11.4477153 7.44771525,11 8,11 L14,11 Z M14,12 L8,12 L8,14 L14,14 L14,12 Z M9.6,12.4 C9.93137085,12.4 10.2,12.6686292 10.2,13 C10.2,13.3313708 9.93137085,13.6 9.6,13.6 C9.26862915,13.6 9,13.3313708 9,13 C9,12.6686292 9.26862915,12.4 9.6,12.4 Z M14,6 C14.5522847,6 15,6.44771525 15,7 L15,9 C15,9.55228475 14.5522847,10 14,10 L8,10 C7.44771525,10 7,9.55228475 7,9 L7,7 C7,6.44771525 7.44771525,6 8,6 L14,6 Z M14,7 L8,7 L8,9 L14,9 L14,7 Z M9.6,7.4 C9.93137085,7.4 10.2,7.66862915 10.2,8 C10.2,8.33137085 9.93137085,8.6 9.6,8.6 C9.26862915,8.6 9,8.33137085 9,8 C9,7.66862915 9.26862915,7.4 9.6,7.4 Z" id="形状" fill="#000000" fill-rule="nonzero"></path>
        </g>
    </g>
</svg>