<?xml version="1.0" encoding="UTF-8"?>
<svg width="16px" height="16px" viewBox="0 0 16 16" version="1.1" xmlns="http://www.w3.org/2000/svg" xmlns:xlink="http://www.w3.org/1999/xlink">
    <title>resource-management-filled</title>
    <g id="resource-management-filled" stroke="none" stroke-width="1" fill="none" fill-rule="evenodd">
        <g id="resource-management">
            <rect id="矩形" x="0" y="0" width="16" height="16"></rect>
            <path d="M15,12 C15.5522847,12 16,12.4477153 16,13 L16,15 C16,15.5522847 15.5522847,16 15,16 L8,16 C7.44771525,16 7,15.5522847 7,15 L7,13 C7,12.4477153 7.44771525,12 8,12 L15,12 Z M4,14.8 L5,12 L1,12 C0.44771525,12 9.09494702e-13,11.5522847 9.09494702e-13,11 L9.09494702e-13,1 C9.09494702e-13,0.44771525 0.44771525,0 1,0 L13,0 C13.5522847,0 14,0.44771525 14,1 L14,6 L7.5,6 C6.72030388,6 6.07955132,6.59488808 6.00686658,7.35553999 L6,7.5 L6,16 L1,16 C1,15.3372583 1.5372583,14.8 2.2,14.8 L4,14.8 Z M8.6,13.4 C8.26862915,13.4 8,13.6686292 8,14 C8,14.3313708 8.26862915,14.6 8.6,14.6 C8.93137085,14.6 9.2,14.3313708 9.2,14 C9.2,13.6686292 8.93137085,13.4 8.6,13.4 Z M14.4,13.4 L12.6,13.4 C12.2686292,13.4 12,13.6686292 12,14 C12,14.3313708 12.2686292,14.6 12.6,14.6 L14.4,14.6 C14.7313708,14.6 15,14.3313708 15,14 C15,13.6686292 14.7313708,13.4 14.4,13.4 Z M15,7 C15.5522847,7 16,7.44771525 16,8 L16,10 C16,10.5522847 15.5522847,11 15,11 L8,11 C7.44771525,11 7,10.5522847 7,10 L7,8 C7,7.44771525 7.44771525,7 8,7 L15,7 Z M8.6,8.4 C8.26862915,8.4 8,8.66862915 8,9 C8,9.33137085 8.26862915,9.6 8.6,9.6 C8.93137085,9.6 9.2,9.33137085 9.2,9 C9.2,8.66862915 8.93137085,8.4 8.6,8.4 Z M14.4,8.4 L12.6,8.4 C12.2686292,8.4 12,8.66862915 12,9 C12,9.33137085 12.2686292,9.6 12.6,9.6 L14.4,9.6 C14.7313708,9.6 15,9.33137085 15,9 C15,8.66862915 14.7313708,8.4 14.4,8.4 Z" id="形状" fill="#595959"></path>
        </g>
    </g>
</svg>