<?xml version="1.0" encoding="UTF-8"?>
<svg width="20px" height="20px" viewBox="0 0 20 20" version="1.1" xmlns="http://www.w3.org/2000/svg" xmlns:xlink="http://www.w3.org/1999/xlink">
    <title> set permissions in batches-filled</title>
    <g id="-set-permissions-in-batches-filled" stroke="none" stroke-width="1" fill="none" fill-rule="evenodd">
        <rect id="矩形备份" fill-opacity="0" fill="#CDCDCD" x="0" y="0" width="20" height="20"></rect>
        <g id="批量设置" transform="translate(2.000000, 1.250000)">
            <rect id="矩形" fill-opacity="0" fill="#FFFFFF" x="0" y="0.75" width="16" height="16"></rect>
            <path d="M12.5,9.19225166 C13.5074442,9.19225166 14.324139,10.0089465 14.324139,11.0163907 L14.324,11.7492517 L15,11.75 C15.5522847,11.75 16,12.1977153 16,12.75 L16,15.75 C16,16.3022847 15.5522847,16.75 15,16.75 L10,16.75 C9.44771525,16.75 9,16.3022847 9,15.75 L9,12.75 C9,12.1977153 9.44771525,11.75 10,11.75 L10.675,11.7492517 L10.675861,11.0163907 C10.675861,10.0089465 11.4925558,9.19225166 12.5,9.19225166 Z M11.5714286,0 C12.5379269,0 13.3214286,0.783501688 13.3214286,1.75 L13.3208571,2.464 L13.8571429,2.46428571 C14.4094276,2.46428571 14.8571429,2.91200096 14.8571429,3.46428571 L14.8580008,8.3279769 C14.1433678,7.98833979 13.3438784,7.79828761 12.5,7.79828761 C9.46243388,7.79828761 7,10.2607215 7,13.2982876 C7,14.0677118 7.1579955,14.8002341 7.44331312,15.4651812 L3.85714286,15.4642857 C3.30485811,15.4642857 2.85714286,15.0165705 2.85714286,14.4642857 L2.85714286,12.9285714 L2.14285714,12.9285714 C1.17635883,12.9285714 0.392857143,12.1450697 0.392857143,11.1785714 L0.392857143,1.75 C0.392857143,0.783501688 1.17635883,0 2.14285714,0 L11.5714286,0 Z M12.5,10.3922517 C12.1552975,10.3922517 11.875861,10.6716882 11.875861,11.0163907 L11.875,11.7492517 L13.124,11.7492517 L13.124139,11.0163907 C13.124139,10.6716882 12.8447025,10.3922517 12.5,10.3922517 Z M11.5714286,1.5 L2.14285714,1.5 C2.00478596,1.5 1.89285714,1.61192881 1.89285714,1.75 L1.89285714,11.1785714 C1.89285714,11.3166426 2.00478596,11.4285714 2.14285714,11.4285714 L2.85714286,11.4285714 L2.85714286,3.46428571 C2.85714286,2.91200096 3.30485811,2.46428571 3.85714286,2.46428571 L11.8208571,2.464 L11.8214286,1.75 C11.8214286,1.61192881 11.7094998,1.5 11.5714286,1.5 Z M8.40816327,6.95 L5.14285714,6.95 L5.14285714,8.15 L8.40816327,8.15 L8.40816327,6.95 Z M12,4.32142857 L5.14285714,4.32142857 L5.14285714,5.52142857 L12,5.52142857 L12,4.32142857 Z" id="形状结合" fill="#262626" fill-rule="nonzero"></path>
        </g>
    </g>
</svg>