<?xml version="1.0" encoding="UTF-8"?>
<svg width="16px" height="16px" viewBox="0 0 16 16" version="1.1" xmlns="http://www.w3.org/2000/svg" xmlns:xlink="http://www.w3.org/1999/xlink">
    <title> set-permissions-in-batches-filled</title>
    <g id="-set-permissions-in-batches-filled" stroke="none" stroke-width="1" fill="none" fill-rule="evenodd">
        <rect id="矩形备份" fill-opacity="0" fill="#CDCDCD" x="0" y="0" width="16" height="16"></rect>
        <g id="批量设置">
            <rect id="矩形" fill-opacity="0" fill="#FFFFFF" x="0" y="0" width="16" height="16"></rect>
            <path d="M12.5,8.44225166 C13.5074442,8.44225166 14.324139,9.25894653 14.324139,10.2663907 L14.324,10.9992517 L15,11 C15.5522847,11 16,11.4477153 16,12 L16,15 C16,15.5522847 15.5522847,16 15,16 L10,16 C9.44771525,16 9,15.5522847 9,15 L9,12 C9,11.4477153 9.44771525,11 10,11 L10.675,10.9992517 L10.675861,10.2663907 C10.675861,9.25894653 11.4925558,8.44225166 12.5,8.44225166 Z M11.5714286,0.05 C12.5379269,0.05 13.3214286,0.833501688 13.3214286,1.8 L13.3208571,2.514 L13.8571429,2.514286 C14.4094276,2.514286 14.8571429,2.96200125 14.8571429,3.514286 L14.8580008,7.5779769 C14.1433678,7.23833979 13.3438784,7.04828761 12.5,7.04828761 C9.46243388,7.04828761 7,9.51072149 7,12.5482876 C7,13.1830529 7.10753243,13.7927027 7.30537451,14.3600141 L5.49714286,14.514286 L3.85714286,14.514286 C3.30485811,14.514286 2.85714286,14.0665707 2.85714286,13.514286 L2.85714286,11.978571 L2.14285714,11.978571 C1.17635883,11.978571 0.392857143,11.1950693 0.392857143,10.228571 L0.392857143,1.8 C0.392857143,0.833501688 1.17635883,0.05 2.14285714,0.05 L11.5714286,0.05 Z M12.5,9.64225166 C12.1552975,9.64225166 11.875861,9.92168823 11.875861,10.2663907 L11.875,10.9992517 L13.124,10.9992517 L13.124139,10.2663907 C13.124139,9.92168823 12.8447025,9.64225166 12.5,9.64225166 Z M11.5714286,1.55 L2.14285714,1.55 C2.00478596,1.55 1.89285714,1.66192881 1.89285714,1.8 L1.89285714,10.228571 C1.89285714,10.3666422 2.00478596,10.478571 2.14285714,10.478571 L2.85714286,10.478571 L2.85714286,3.514286 C2.85714286,2.96200125 3.30485811,2.514286 3.85714286,2.514286 L11.8208571,2.514 L11.8214286,1.8 C11.8214286,1.66192881 11.7094998,1.55 11.5714286,1.55 Z M8.40816327,7 L5.14285714,7 L5.14285714,8.2 L8.40816327,8.2 L8.40816327,7 Z M12,4.371429 L5.14285714,4.371429 L5.14285714,5.571429 L12,5.571429 L12,4.371429 Z" id="形状结合" fill="#595959" fill-rule="nonzero"></path>
        </g>
    </g>
</svg>