<?xml version="1.0" encoding="UTF-8"?>
<svg width="16px" height="16px" viewBox="0 0 16 16" version="1.1" xmlns="http://www.w3.org/2000/svg" xmlns:xlink="http://www.w3.org/1999/xlink">
    <title>Set permissions in batches 2</title>
    <g id="Set-permissions-in-batches" stroke="none" stroke-width="1" fill="none" fill-rule="evenodd">
        <rect id="矩形" fill="#000000" opacity="0" x="0" y="0" width="16" height="16"></rect>
        <g id="编组-20" transform="translate(1.000000, 1.000000)" stroke="#595959" stroke-linecap="round" stroke-linejoin="round" stroke-width="1.2">
            <path d="M7,13.7632112 C5.48186933,13.7632112 4.48635276,13.7632112 1.45009142,13.7632112 C0.573029443,13.7632112 -0.0464784627,13.0592294 0.00273744245,12.1834729 C0.153526181,9.50045026 2.40643479,7.41097301 5.68493651,7.41097301 C5.88223486,7.41097301 6.64053527,7.41097301 6.8378755,7.41097301 C7.68911734,7.41097301 8.47121905,7.55183465 9.16533731,7.80737342 M8.86118811,3.17613774 C8.86118811,4.9302617 7.43921752,6.35226174 5.68508374,6.35226174 C3.93095978,6.35226174 2.50895975,4.9302617 2.50895975,3.17613774 C2.50895975,1.42200396 3.93095978,0 5.68508374,0 C7.43921752,0 8.86118811,1.42200396 8.86118811,3.17613774 Z" id="形状结合"></path>
        </g>
        <path d="M14.3487433,12.0125 C13.7862433,11.45 12.9424933,11.35 12.2799933,11.7125 L10.4799933,9.9125 L11.3612433,9.03125 L11.0049933,8.675 L9.87374331,9.30625 L9.703125,9.16529164 L8.996875,9.87154164 L11.5737433,12.41875 C11.2174933,13.08125 11.3174933,13.925 11.8737433,14.4875 C12.5549933,15.16875 13.6674933,15.16875 14.3487433,14.4875 C15.0362433,13.80625 15.0362433,12.7 14.3487433,12.0125 Z M13.6424933,13.78125 C13.3487433,14.075 12.8737433,14.075 12.5799933,13.78125 C12.2862433,13.4875 12.2862433,13.0125 12.5799933,12.71875 C12.8737433,12.425 13.3487433,12.425 13.6424933,12.71875 C13.9362433,13.0125 13.9362433,13.4875 13.6424933,13.78125 Z" id="形状" fill="#595959" fill-rule="nonzero" transform="translate(11.930622, 11.836719) scale(-1, 1) translate(-11.930622, -11.836719) "></path>
    </g>
</svg>