<?xml version="1.0" encoding="UTF-8"?>
<svg width="16px" height="16px" viewBox="0 0 16 16" version="1.1" xmlns="http://www.w3.org/2000/svg" xmlns:xlink="http://www.w3.org/1999/xlink">
    <title> set permissions in batches-outlined</title>
    <g id="-set-permissions-in-batches-outlined" stroke="none" stroke-width="1" fill="none" fill-rule="evenodd">
        <rect id="矩形" fill-opacity="0" fill="#FFFFFF" x="0" y="0" width="16" height="16"></rect>
        <g id="批量设置" transform="translate(1.400000, 0.400000)" fill="#262626" fill-rule="nonzero">
            <path d="M10.1,7.04225166 C11.1074442,7.04225166 11.924139,7.85894653 11.924139,8.86639071 L11.924,9.59925166 L12.6,9.6 C13.1522847,9.6 13.6,10.0477153 13.6,10.6 L13.6,13.6 C13.6,14.1522847 13.1522847,14.6 12.6,14.6 L7.6,14.6 C7.04771525,14.6 6.6,14.1522847 6.6,13.6 L6.6,10.6 C6.6,10.0477153 7.04771525,9.6 7.6,9.6 L8.275,9.59925166 L8.27586095,8.86639071 C8.27586095,7.85894653 9.09255582,7.04225166 10.1,7.04225166 Z M12.4,10.8 L7.8,10.8 L7.8,13.4 L12.4,13.4 L12.4,10.8 Z M9.6,0 C10.4836556,0 11.2,0.7163444 11.2,1.6 L11.2,2 L11.6,2 C12.4836556,2 13.2,2.7163444 13.2,3.6 L13.2,6.03313971 C13.2,6.36451056 12.9313708,6.63313971 12.6,6.63313971 C12.2686292,6.63313971 12,6.36451056 12,6.03313971 L12,3.6 C12,3.3790861 11.8209139,3.2 11.6,3.2 L3.6,3.2 C3.3790861,3.2 3.2,3.3790861 3.2,3.6 L3.2,11.6 C3.2,11.8209139 3.3790861,12 3.6,12 L4.8,12 C5.13137085,12 5.4,12.2686292 5.4,12.6 C5.4,12.9313708 5.13137085,13.2 4.8,13.2 L3.6,13.2 C2.7163444,13.2 2,12.4836556 2,11.6 L2,11.2 L1.6,11.2 C0.7163444,11.2 0,10.4836556 0,9.6 L0,1.6 C0,0.7163444 0.7163444,0 1.6,0 L9.6,0 Z M9.6,1.2 L1.6,1.2 C1.3790861,1.2 1.2,1.3790861 1.2,1.6 L1.2,9.6 C1.2,9.8209139 1.3790861,10 1.6,10 L2,10 L2,3.6 C2,2.7163444 2.7163444,2 3.6,2 L10,2 L10,1.6 C10,1.3790861 9.8209139,1.2 9.6,1.2 Z M10.1,8.24225166 C9.75529752,8.24225166 9.47586095,8.52168823 9.47586095,8.86639071 L9.475,9.59925166 L10.724,9.59925166 L10.724139,8.86639071 C10.724139,8.52168823 10.4447025,8.24225166 10.1,8.24225166 Z M6.95714286,6.9 L6.95714286,8.1 L4.1,8.1 L4.1,6.9 L6.95714286,6.9 Z M10.1,4.6 L10.1,5.8 L4.1,5.8 L4.1,4.6 L10.1,4.6 Z" id="形状结合"></path>
        </g>
    </g>
</svg>