<?xml version="1.0" encoding="UTF-8"?>
<svg width="14px" height="14px" viewBox="0 0 14 14" version="1.1" xmlns="http://www.w3.org/2000/svg" xmlns:xlink="http://www.w3.org/1999/xlink">
    <title>set-permissions-in-batches-outlined</title>
    <g id="set-permissions-in-batches-outlined" stroke="none" stroke-width="1" fill="none" fill-rule="evenodd">
        <g id="编组" transform="translate(0.200000, 0.000000)" fill="#595959" fill-rule="nonzero">
            <g id="编组-20">
                <path d="M5.8805188,0 C7.83177128,0 9.41354794,1.58179962 9.41354794,3.53306036 C9.41354794,5.15179627 8.32494267,6.51626515 6.83988035,6.93430037 L6.95910309,6.93391417 C7.80523447,6.93391417 8.60444865,7.07200026 9.3306863,7.33936374 C9.62163576,7.44647642 9.77066491,7.76916954 9.66355223,8.060119 C9.55643955,8.35106846 9.23374643,8.50009762 8.94279697,8.39298494 C8.34271025,8.17206376 7.67482202,8.05666782 6.95910309,8.05666782 L5.88038104,8.05666782 C3.1767952,8.05666782 1.25208059,9.72108729 1.12444869,11.9920744 C1.09570416,12.5035596 1.43390625,12.8772463 1.91814122,12.8772463 L7.11079132,12.8772463 C7.42083118,12.8772463 7.67216815,13.1285833 7.67216815,13.4386232 C7.67216815,13.748663 7.42083118,14 7.11079132,14 L1.91814122,14 C0.77765904,14 -0.060851325,13.0735119 0.00346389867,11.9290755 C0.152448141,9.27816068 2.21645491,7.28580798 5.08916276,6.97594649 C3.51897453,6.61788788 2.34747129,5.21228306 2.34747129,3.53306036 C2.34747129,1.58180495 3.92927017,0 5.8805188,0 Z M5.8805188,1.12275365 C4.54935085,1.12275365 3.47022494,2.20188371 3.47022494,3.53306036 C3.47022494,4.86422807 4.54935109,5.94335422 5.8805188,5.94335422 C7.21168767,5.94335422 8.29079428,4.86423609 8.29079428,3.53306036 C8.29079428,2.20187569 7.21168791,1.12275365 5.8805188,1.12275365 Z" id="形状结合"></path>
            </g>
            <path d="M13.0508536,10.8649806 C12.5245628,10.3386899 11.7351267,10.2451271 11.1152731,10.5842922 L9.43114261,8.90016176 L10.2556648,8.07563955 L9.92234733,7.74232206 L8.86391811,8.33293726 L8.70428283,8.20105267 L8.04349553,8.86183997 L10.4544858,11.2450795 C10.1211683,11.8649331 10.2147311,12.6543693 10.7351742,13.1806601 C11.3725708,13.8180567 12.413457,13.8180567 13.0508536,13.1806601 C13.6940979,12.5432635 13.6940979,11.5082249 13.0508536,10.8649806 Z M12.3900663,12.5198728 C12.1152256,12.7947135 11.6708022,12.7947135 11.3959615,12.5198728 C11.1211208,12.245032 11.1211208,11.8006087 11.3959615,11.525768 C11.6708022,11.2509272 12.1152256,11.2509272 12.3900663,11.525768 C12.664907,11.8006087 12.664907,12.245032 12.3900663,12.5198728 Z" id="形状" transform="translate(10.788391, 10.700515) scale(-1, 1) translate(-10.788391, -10.700515) "></path>
        </g>
    </g>
</svg>