<?xml version="1.0" encoding="UTF-8"?>
<svg width="14px" height="14px" viewBox="0 0 14 14" version="1.1" xmlns="http://www.w3.org/2000/svg" xmlns:xlink="http://www.w3.org/1999/xlink">
    <title> set-permissions-in-batches-outlined</title>
    <g id="-set-permissions-in-batches-outlined" stroke="none" stroke-width="1" fill="none" fill-rule="evenodd">
        <rect id="矩形" fill-opacity="0" fill="#FFFFFF" x="0" y="0" width="14" height="14"></rect>
        <g id="批量设置" transform="translate(0.400000, 0.000000)" fill="#595959" fill-rule="nonzero">
            <path d="M10.1,6.44225166 C11.1074442,6.44225166 11.924139,7.25894653 11.924139,8.26639071 L11.924,8.99925166 L12.6,9 C13.1522847,9 13.6,9.44771525 13.6,10 L13.6,13 C13.6,13.5522847 13.1522847,14 12.6,14 L7.6,14 C7.04771525,14 6.6,13.5522847 6.6,13 L6.6,10 C6.6,9.44771525 7.04771525,9 7.6,9 L8.275,8.99925166 L8.27586095,8.26639071 C8.27586095,7.25894653 9.09255582,6.44225166 10.1,6.44225166 Z M12.4,10.2 L7.8,10.2 L7.8,12.8 L12.4,12.8 L12.4,10.2 Z M9.6,0 C10.4836556,0 11.2,0.7163444 11.2,1.6 L11.2,2 L11.6,2 C12.4836556,2 13.2,2.7163444 13.2,3.6 L13.2,6.03314 C13.2,6.36451085 12.9313708,6.63314 12.6,6.63314 C12.2686292,6.63314 12,6.36451085 12,6.03314 L12,3.6 C12,3.3790861 11.8209139,3.2 11.6,3.2 L3.6,3.2 C3.3790861,3.2 3.2,3.3790861 3.2,3.6 L3.2,10.6 C3.2,10.8209139 3.3790861,11 3.6,11 L4.8,11 C5.13137085,11 5.4,11.2686292 5.4,11.6 C5.4,11.9313708 5.13137085,12.2 4.8,12.2 L3.6,12.2 C2.7163444,12.2 2,11.4836556 2,10.6 L2,10.2 L1.6,10.2 C0.7163444,10.2 0,9.4836556 0,8.6 L0,1.6 C0,0.7163444 0.7163444,0 1.6,0 L9.6,0 Z M9.6,1.2 L1.6,1.2 C1.3790861,1.2 1.2,1.3790861 1.2,1.6 L1.2,8.6 C1.2,8.8209139 1.3790861,9 1.6,9 L2,9 L2,3.6 C2,2.7163444 2.7163444,2 3.6,2 L10,2 L10,1.6 C10,1.3790861 9.8209139,1.2 9.6,1.2 Z M10.1,7.64225166 C9.75529752,7.64225166 9.47586095,7.92168823 9.47586095,8.26639071 L9.475,8.99925166 L10.724,8.99925166 L10.724139,8.26639071 C10.724139,7.92168823 10.4447025,7.64225166 10.1,7.64225166 Z M6.95714286,6.9 L6.95714286,8.1 L4.1,8.1 L4.1,6.9 L6.95714286,6.9 Z M10.1,4.6 L10.1,5.8 L4.1,5.8 L4.1,4.6 L10.1,4.6 Z" id="形状结合"></path>
        </g>
    </g>
</svg>