<?xml version="1.0" encoding="UTF-8"?>
<svg width="16px" height="16px" viewBox="0 0 16 16" version="1.1" xmlns="http://www.w3.org/2000/svg" xmlns:xlink="http://www.w3.org/1999/xlink">
    <title>set-permissions-in-batches-filled-2</title>
    <g id="set-permissions-in-batches-filled-2" stroke="none" stroke-width="1" fill="none" fill-rule="evenodd">
        <g id="编组" transform="translate(0.500000, 0.000000)" fill="#595959">
            <path d="M13.0059004,9.675 L14.1371504,10.30625 L14.3077687,10.1652916 L15.0140187,10.8715416 L12.4371504,13.41875 C12.7934004,14.08125 12.6934004,14.925 12.1371504,15.4875 C11.4559004,16.16875 10.3434004,16.16875 9.66215041,15.4875 C8.97465041,14.80625 8.97465041,13.7 9.66215041,13.0125 C10.2246504,12.45 11.0684004,12.35 11.7309004,12.7125 L13.5309004,10.9125 L12.6496504,10.03125 L13.0059004,9.675 Z M7.81471486,8.46968344 C9.85085804,8.46968344 11.5408635,9.17488213 12.6872892,10.3109158 L10.7923888,12.3624907 C10.1149275,11.9612058 9.25212291,12.0719051 8.67691987,12.6945886 C7.97389393,13.4556462 7.97389393,14.680257 8.67691987,15.4343958 C8.79426744,15.5614299 8.9164945,15.6576736 9.04399833,15.7298953 L1.65724734,15.7293842 C0.654890792,15.7293842 -0.0531182431,14.9248336 0.00312850566,13.923969 C0.175458493,10.8576574 2.75021119,8.46968344 6.49707029,8.46968344 L7.81471486,8.46968344 Z M10.3684004,13.71875 C10.0746504,14.0125 10.0746504,14.4875 10.3684004,14.78125 C10.6621504,15.075 11.1371504,15.075 11.4309004,14.78125 C11.7246504,14.4875 11.7246504,14.0125 11.4309004,13.71875 C11.1371504,13.425 10.6621504,13.425 10.3684004,13.71875 Z M6.64688898,0 C8.65161329,0 10.2767225,1.62514738 10.2767225,3.6298717 C10.2767225,5.6345848 8.65161329,7.2597277 6.64688898,7.2597277 C4.64217588,7.2597277 3.01703298,5.6345848 3.01703298,3.6298717 C3.01703298,1.62514738 4.64217588,0 6.64688898,0 Z" id="形状结合"></path>
        </g>
    </g>
</svg>