<?xml version="1.0" encoding="UTF-8"?>
<svg width="14px" height="14px" viewBox="0 0 14 14" version="1.1" xmlns="http://www.w3.org/2000/svg" xmlns:xlink="http://www.w3.org/1999/xlink">
    <title>snippets</title>
    <g id="页面-1" stroke="none" stroke-width="1" fill="none" fill-rule="evenodd">
        <g id="版本比较" fill="#000000" fill-rule="nonzero">
            <g id="snippets">
                <rect id="矩形" opacity="0" x="0" y="0" width="14" height="14"></rect>
                <path d="M11.375,1.53125 L9.8984375,1.53125 L8.9140625,1.53125 L6.8359375,1.53125 L5.8515625,1.53125 L4.375,1.53125 C4.13300781,1.53125 3.9375,1.72675781 3.9375,1.96875 L3.9375,3.609375 L2.625,3.609375 C2.38300781,3.609375 2.1875,3.80488281 2.1875,4.046875 L2.1875,12.6875 C2.1875,12.9294922 2.38300781,13.125 2.625,13.125 L9.625,13.125 C9.86699219,13.125 10.0625,12.9294922 10.0625,12.6875 L10.0625,11.375 L11.375,11.375 C11.6169922,11.375 11.8125,11.1794922 11.8125,10.9375 L11.8125,1.96875 C11.8125,1.72675781 11.6169922,1.53125 11.375,1.53125 Z M9.078125,12.140625 L3.171875,12.140625 L3.171875,4.59375 L6.15234375,4.59375 L6.15234375,6.97265625 C6.15234375,7.27480469 6.39707031,7.51953125 6.69921875,7.51953125 L9.078125,7.51953125 L9.078125,12.140625 Z M9.078125,6.64453125 L7.02734375,6.64453125 L7.02734375,4.59375 L7.03007813,4.59375 L9.078125,6.64179688 L9.078125,6.64453125 Z M10.828125,10.390625 L10.0625,10.390625 L10.0625,6.234375 L7.4375,3.609375 L4.921875,3.609375 L4.921875,2.515625 L5.8515625,2.515625 L6.8359375,2.515625 L8.9140625,2.515625 L9.8984375,2.515625 L10.828125,2.515625 L10.828125,10.390625 Z" id="形状"></path>
            </g>
        </g>
    </g>
</svg>