<?xml version="1.0" encoding="UTF-8"?>
<svg width="14px" height="14px" viewBox="0 0 14 14" version="1.1" xmlns="http://www.w3.org/2000/svg" xmlns:xlink="http://www.w3.org/1999/xlink">
    <title>thumbnail-outlined</title>
    <g id="thumbnail-outlined" stroke="none" stroke-width="1" fill="none" fill-rule="evenodd">
        <g id="thumbnail">
            <rect id="矩形" x="0" y="0" width="14" height="14"></rect>
            <path d="M13,0 C13.5522847,0 14,0.44771525 14,1 L14,13 C14,13.5522847 13.5522847,14 13,14 L1,14 C0.44771525,14 0,13.5522847 0,13 L0,1 C0,0.44771525 0.44771525,0 1,0 L13,0 Z M12.8,1.2 L1.2,1.2 L1.2,12.8 L12.8,12.8 L12.8,1.2 Z M8,6 C8.55228475,6 9,6.44771525 9,7 L9,11 C9,11.5522847 8.55228475,12 8,12 L3,12 C2.44771525,12 2,11.5522847 2,11 L2,7 C2,6.44771525 2.44771525,6 3,6 L8,6 Z M11.4547727,1.80312229 L12.3033009,2.65165043 L10.1296051,4.82534617 L11.5961941,5.48007755 L8.34350288,5.76292027 L8.76776695,2.65165043 L9.26913395,3.98876107 L11.4547727,1.80312229 Z" id="形状" fill="#595959"></path>
        </g>
    </g>
</svg>