<?xml version="1.0" encoding="UTF-8"?>
<svg width="16px" height="16px" viewBox="0 0 16 16" version="1.1" xmlns="http://www.w3.org/2000/svg" xmlns:xlink="http://www.w3.org/1999/xlink">
    <title>thumbnail-outlinde</title>
    <g id="thumbnail-outlinde" stroke="none" stroke-width="1" fill="none" fill-rule="evenodd" opacity="0.65">
        <g id="thumbnail">
            <rect id="矩形" x="0" y="0" width="16" height="16"></rect>
            <path d="M14,1 C14.5522847,1 15,1.44771525 15,2 L15,14 C15,14.5522847 14.5522847,15 14,15 L2,15 C1.44771525,15 1,14.5522847 1,14 L1,2 C1,1.44771525 1.44771525,1 2,1 L14,1 Z M13.8,2.2 L2.2,2.2 L2.2,13.8 L13.8,13.8 L13.8,2.2 Z M9,7 C9.55228475,7 10,7.44771525 10,8 L10,12 C10,12.5522847 9.55228475,13 9,13 L4,13 C3.44771525,13 3,12.5522847 3,12 L3,8 C3,7.44771525 3.44771525,7 4,7 L9,7 Z M12.4547727,2.80312229 L13.3033009,3.65165043 L11.1296051,5.82534617 L12.5961941,6.48007755 L9.34350288,6.76292027 L9.76776695,3.65165043 L10.2691339,4.98876107 L12.4547727,2.80312229 Z" id="形状" fill="#000000" fill-rule="nonzero"></path>
        </g>
    </g>
</svg>