<?xml version="1.0" encoding="UTF-8"?>
<svg width="16px" height="16px" viewBox="0 0 16 16" version="1.1" xmlns="http://www.w3.org/2000/svg" xmlns:xlink="http://www.w3.org/1999/xlink">
    <title>thumbnail-fillde</title>
    <g id="thumbnail-fillde" stroke="none" stroke-width="1" fill="none" fill-rule="evenodd">
        <g id="编组">
            <rect id="矩形" x="0" y="0" width="16" height="16"></rect>
            <path d="M15,0 C15.5522847,0 16,0.44771525 16,1 L16,15 C16,15.5522847 15.5522847,16 15,16 L1,16 C0.44771525,16 0,15.5522847 0,15 L0,1 C0,0.44771525 0.44771525,0 1,0 L15,0 Z M9.2,7.8 L2.2,7.8 C1.64771525,7.8 1.2,8.24771525 1.2,8.8 L1.2,13.8 C1.2,14.3522847 1.64771525,14.8 2.2,14.8 L9.2,14.8 C9.75228475,14.8 10.2,14.3522847 10.2,13.8 L10.2,8.8 C10.2,8.24771525 9.75228475,7.8 9.2,7.8 Z M13.4445436,1.74904852 L10.7124952,4.48109699 L10.0857864,2.80970869 L9.55545635,6.69879599 L13.6213203,6.3452426 L11.7880841,5.52682837 L14.5052038,2.80970869 L13.4445436,1.74904852 Z" id="形状" fill="#000000" opacity="0.649999976"></path>
        </g>
    </g>
</svg>