<?xml version="1.0" encoding="UTF-8"?>
<svg width="20px" height="20px" viewBox="0 0 20 20" version="1.1" xmlns="http://www.w3.org/2000/svg" xmlns:xlink="http://www.w3.org/1999/xlink">
    <title>thumbnail-fillde</title>
    <g id="thumbnail-fillde" stroke="none" stroke-width="1" fill="none" fill-rule="evenodd">
        <g id="编组">
            <rect id="矩形" x="0" y="0" width="20" height="20"></rect>
            <path d="M17,2 C17.5522847,2 18,2.44771525 18,3 L18,17 C18,17.5522847 17.5522847,18 17,18 L3,18 C2.44771525,18 2,17.5522847 2,17 L2,3 C2,2.44771525 2.44771525,2 3,2 L17,2 Z M11.2,9.8 L4.2,9.8 C3.64771525,9.8 3.2,10.2477153 3.2,10.8 L3.2,15.8 C3.2,16.3522847 3.64771525,16.8 4.2,16.8 L11.2,16.8 C11.7522847,16.8 12.2,16.3522847 12.2,15.8 L12.2,10.8 C12.2,10.2477153 11.7522847,9.8 11.2,9.8 Z M15.4445436,3.74904852 L12.7124952,6.48109699 L12.0857864,4.80970869 L11.5554564,8.69879599 L15.6213203,8.3452426 L13.7880841,7.52682837 L16.5052038,4.80970869 L15.4445436,3.74904852 Z" id="形状" fill="#000000" opacity="0.649999976"></path>
        </g>
    </g>
</svg>