<?xml version="1.0" encoding="UTF-8"?>
<svg width="14px" height="14px" viewBox="0 0 14 14" version="1.1" xmlns="http://www.w3.org/2000/svg" xmlns:xlink="http://www.w3.org/1999/xlink">
    <title>Unfocus-outlinde</title>
    <g id="Unfocus-outlinde" stroke="none" stroke-width="1" fill="none" fill-rule="evenodd" opacity="0.65">
        <g id="编组-2" transform="translate(-0.000660, -0.000660)">
            <g id="编组" transform="translate(0.000660, 0.000660)">
                <rect id="矩形" x="0" y="0" width="14" height="14"></rect>
            </g>
            <g id="编组-3" fill="#000000" fill-rule="nonzero">
                <path d="M10.854,12.975 L11.904,14.025 L9.97566017,14.0256602 L9.97566017,12.9756602 L10.854,12.975 Z M1.05066017,9.97566017 L1.05066017,12.9506602 L4.02566017,12.9506602 L4.02566017,14.0006602 L0.00066017178,14.0006602 L0.00066017178,9.97566017 L1.05066017,9.97566017 Z M14.0006602,10.0006602 L14,11.879 L12.95,10.829 L12.9506602,10.0006602 L14.0006602,10.0006602 Z M0,2.12 L1.05,3.17 L1.05066017,4.02566017 L0.00066017178,4.02566017 L0,2.12 Z M14.0006602,0.000660171781 L14.0006602,4.02566017 L12.9506602,4.02566017 L12.9506602,1.05066017 L9.97566017,1.05066017 L9.97566017,0.000660171781 L14.0006602,0.000660171781 Z M4.02566017,0.00066017178 L4.02566017,1.05066017 L3.17,1.05 L2.12,0 L4.02566017,0.00066017178 Z" id="形状"></path>
                <polygon id="路径-12" points="1.00066017 0.00066017178 14.0006602 13.0006602 14.0006602 14.0006602 13.0006602 14.0006602 0.00066017178 1.00066017 0.00066017178 0.000660171779"></polygon>
            </g>
        </g>
    </g>
</svg>