<?xml version="1.0" encoding="UTF-8"?>
<svg width="16px" height="16px" viewBox="0 0 16 16" version="1.1" xmlns="http://www.w3.org/2000/svg" xmlns:xlink="http://www.w3.org/1999/xlink">
    <title>Unfocus-fillde</title>
    <g id="Unfocus-fillde" stroke="none" stroke-width="1" fill="none" fill-rule="evenodd">
        <g id="编组" transform="translate(-0.000660, -0.000660)">
            <rect id="矩形" x="0.00066017178" y="0.00066017178" width="16" height="16"></rect>
            <path d="M12.679,14.8 L13.879,16 L11.4006602,16.0006602 L11.4006602,14.8006602 L12.679,14.8 Z M1.20066017,11.4006602 L1.20066017,14.8006602 L4.60066017,14.8006602 L4.60066017,16.0006602 L0.00066017178,16.0006602 L0.00066017178,11.4006602 L1.20066017,11.4006602 Z M1.00066017,0.00066017178 L16.0006602,15.0006602 L16.0006602,16.0006602 L15.0006602,16.0006602 L0.00066017178,1.00066017 L0.00066017178,0.00066017178 L1.00066017,0.00066017178 Z M16.0006602,11.4006602 L16,13.879 L14.8,12.679 L14.8006602,11.4006602 L16.0006602,11.4006602 Z M0,2.12 L1.2,3.32 L1.20066017,4.60066017 L0.00066017178,4.60066017 L0,2.12 Z M16.0006602,0.000660171781 L16.0006602,4.60066017 L14.8006602,4.60066017 L14.8006602,1.20066017 L11.4006602,1.20066017 L11.4006602,0.000660171781 L16.0006602,0.000660171781 Z M4.60066017,0.000660171781 L4.60066017,1.20066017 L3.32,1.2 L2.12,0 L4.60066017,0.000660171781 Z" id="Unfocus" fill="#000000" opacity="0.649999976"></path>
        </g>
    </g>
</svg>