<?xml version="1.0" encoding="UTF-8"?>
<svg width="14px" height="14px" viewBox="0 0 14 14" version="1.1" xmlns="http://www.w3.org/2000/svg" xmlns:xlink="http://www.w3.org/1999/xlink">
    <title>upgradation</title>
    <g id="页面-1" stroke="none" stroke-width="1" fill="none" fill-rule="evenodd">
        <g id="编组-18">
            <rect id="矩形" x="0" y="0" width="14" height="14"></rect>
            <g id="编组-19" transform="translate(2.016727, 0.500000)" fill="#000000" fill-rule="nonzero">
                <path d="M0.479688417,6.04370132 L3.00519212,6.04370132 L3.00519212,8.80709414 C3.00519212,8.91755109 3.09473517,9.00709414 3.20519212,9.00709414 L3.76454168,9.00709414 C3.87499863,9.00709414 3.96454168,8.91755109 3.96454168,8.80709414 L3.96454168,5.56402654 L3.96454168,5.56402654 C3.96454168,5.29910216 3.74979128,5.08435175 3.4848669,5.08435175 L1.53609218,5.08435175 L4.93041484,1.20128847 L8.4424017,5.07973089 L6.47466382,5.07973089 C6.20975543,5.07973089 5.99498904,5.29449729 5.99498904,5.55940568 L5.99498904,8.80709414 C5.99498904,8.91755109 6.08453209,9.00709414 6.19498904,9.00709414 L6.7543386,9.00709414 C6.86479555,9.00709414 6.9543386,8.91755109 6.9543386,8.80709414 L6.9543386,6.03908044 L6.9543386,6.03908044 L9.52384448,6.03908044 C9.71353987,6.03908044 9.88540734,5.92728424 9.96233118,5.7538978 C10.039239,5.58049536 10.0067331,5.37805663 9.87939542,5.23744796 L5.27965006,0.15770802 C5.18774437,0.0562088321 5.05663326,-0.000648621004 4.91989398,0 C4.78296282,0.00122211337 4.65306689,0.0608936602 4.56295198,0.163991754 L0.118541276,5.24833657 C-0.00531075517,5.3900165 -0.0348747083,5.59101622 0.0429285417,5.76234007 C0.120731792,5.93366391 0.291527995,6.04370132 0.479688417,6.04370132 Z" id="路径"></path>
                <path d="M0.662947779,10.9786854 L9.35251305,10.9786854 C9.46297001,10.9786854 9.55251306,10.8891423 9.55251306,10.7786854 L9.55251306,10.2193358 C9.55251306,10.1088789 9.46297001,10.0193358 9.35251305,10.0193358 L0.662947779,10.0193358 C0.552490827,10.0193358 0.462947776,10.1088789 0.462947776,10.2193358 L0.462947776,10.7786854 C0.462947776,10.8891423 0.552490827,10.9786854 0.662947779,10.9786854 Z" id="路径"></path>
                <path d="M9.35251305,12.0351851 L0.662947779,12.0351851 C0.552490827,12.0351851 0.462947776,12.1247281 0.462947776,12.2351851 L0.462947776,12.7945346 C0.462947776,12.9049916 0.552490827,12.9945346 0.662947779,12.9945346 L9.35251305,12.9945346 C9.46297001,12.9945346 9.55251306,12.9049916 9.55251306,12.7945346 L9.55251306,12.2351851 C9.55251306,12.1247281 9.46297001,12.0351851 9.35251305,12.0351851 Z" id="路径"></path>
            </g>
        </g>
    </g>
</svg>