<?xml version="1.0" encoding="UTF-8"?>
<svg width="14px" height="13px" viewBox="0 0 14 13" version="1.1" xmlns="http://www.w3.org/2000/svg" xmlns:xlink="http://www.w3.org/1999/xlink">
    <title>编组 4</title>
    <g id="页面-1" stroke="none" stroke-width="1" fill="none" fill-rule="evenodd">
        <g id="查看归档备份-3" transform="translate(-1.000000, -2.000000)" fill="#595959" fill-rule="nonzero">
            <g id="编组" transform="translate(1.399409, 2.400000)">
                <path d="M10.2020989,0 C10.447489,0 10.6681469,0.149427506 10.7592331,0.377286283 L13.1577255,6.37728628 L13.1619455,6.38768832 L13.1713577,6.41447365 L13.176,6.43 L13.17,6.414 L13.1795216,6.44182179 L13.1896413,6.48435648 L13.1950696,6.51825758 C13.1987763,6.54227949 13.2006178,6.56576324 13.2010711,6.58907626 L13.2005912,10.88 C13.2005912,11.6090159 12.6096071,12.2 11.8805912,12.2 L1.32059122,12.2 C0.59157535,12.2 0.00059121964,11.6090159 0.00059121964,10.88 L0.000111318984,6.58907626 C0.00056463969,6.56576324 0.00240610458,6.54227949 0.0057018561,6.51872266 L0.004,6.535 L0.003,6.553 L0.004,6.535 L0.011363856,6.48622678 C0.0146952376,6.46829049 0.0191225961,6.45018461 0.0244516599,6.43210601 L0.036577654,6.39485448 C0.0387934386,6.38921657 0.0410739646,6.38324748 0.0434569447,6.37728628 L2.4419493,0.377286283 C2.53303556,0.149427506 2.75369342,0 2.99908358,0 L10.2020989,0 Z M3.50059122,7.2 L1.20059122,7.2 L1.20059122,10.88 C1.20059122,10.9330193 1.23497575,10.9780077 1.28266194,10.9938823 L1.32059122,11 L11.8805912,11 C11.9468654,11 12.0005912,10.9462742 12.0005912,10.88 L12.0005912,7.2 L9.70059122,7.2 L9.70059122,8.6 C9.70059122,8.89823376 9.48300161,9.14564675 9.19791434,9.19214701 L9.10059122,9.2 L4.10059122,9.2 C3.76922037,9.2 3.50059122,8.93137085 3.50059122,8.6 L3.50059122,7.2 Z M9.79559122,1.2 L3.40459122,1.2 L1.48659122,6 L4.10059122,6 C4.43196207,6 4.70059122,6.26862915 4.70059122,6.6 L4.70059122,8 L8.50059122,8 L8.50059122,6.6 C8.50059122,6.30176624 8.71818083,6.05435325 9.0032681,6.00785299 L9.10059122,6 L11.7135912,6 L9.79559122,1.2 Z M9.10059122,4.5 C9.43196207,4.5 9.70059122,4.76862915 9.70059122,5.1 C9.70059122,5.43137085 9.43196207,5.7 9.10059122,5.7 L4.10059122,5.7 C3.76922037,5.7 3.50059122,5.43137085 3.50059122,5.1 C3.50059122,4.76862915 3.76922037,4.5 4.10059122,4.5 L9.10059122,4.5 Z M9.10059122,2.5 C9.43196207,2.5 9.70059122,2.76862915 9.70059122,3.1 C9.70059122,3.43137085 9.43196207,3.7 9.10059122,3.7 L4.10059122,3.7 C3.76922037,3.7 3.50059122,3.43137085 3.50059122,3.1 C3.50059122,2.76862915 3.76922037,2.5 4.10059122,2.5 L9.10059122,2.5 Z" id="形状结合"></path>
            </g>
        </g>
    </g>
</svg>