<?xml version="1.0" encoding="UTF-8"?>
<svg width="16px" height="16px" viewBox="0 0 16 16" version="1.1" xmlns="http://www.w3.org/2000/svg" xmlns:xlink="http://www.w3.org/1999/xlink">
    <title>view archive 2</title>
    <g id="view-archive" stroke="none" stroke-width="1" fill="none" fill-rule="evenodd">
        <rect id="矩形" fill="#000000" opacity="0" x="0" y="0" width="16" height="16"></rect>
        <path d="M11.6015076,2.4 C11.8468978,2.4 12.0675557,2.54942751 12.1586419,2.77728628 L14.5571343,8.77728628 L14.5613542,8.78768832 L14.5707665,8.81447365 L14.5754088,8.83 L14.5694088,8.814 L14.5789304,8.84182179 L14.5890501,8.88435648 L14.5944784,8.91825758 C14.5981851,8.94227949 14.6000266,8.96576324 14.6004799,8.98907626 L14.6,13.28 C14.6,14.0090159 14.0090159,14.6 13.28,14.6 L2.72,14.6 C1.99098413,14.6 1.4,14.0090159 1.4,13.28 L1.3995201,8.98907626 C1.39997342,8.96576324 1.40181488,8.94227949 1.40511064,8.91872266 L1.40340878,8.935 L1.40240878,8.953 L1.40340878,8.935 L1.41077264,8.88622678 C1.41410402,8.86829049 1.41853138,8.85018461 1.42386044,8.83210601 L1.43598643,8.79485448 C1.43820222,8.78921657 1.44048274,8.78324748 1.44286573,8.77728628 L3.84135808,2.77728628 C3.93244434,2.54942751 4.1531022,2.4 4.39849236,2.4 L11.6015076,2.4 Z M4.9,9.6 L2.6,9.6 L2.6,13.28 C2.6,13.3330193 2.63438453,13.3780077 2.68207072,13.3938823 L2.72,13.4 L13.28,13.4 C13.3462742,13.4 13.4,13.3462742 13.4,13.28 L13.4,9.6 L11.1,9.6 L11.1,11 C11.1,11.2982338 10.8824104,11.5456468 10.5973231,11.592147 L10.5,11.6 L5.5,11.6 C5.16862915,11.6 4.9,11.3313708 4.9,11 L4.9,9.6 Z M11.195,3.6 L4.804,3.6 L2.886,8.4 L5.5,8.4 C5.83137085,8.4 6.1,8.66862915 6.1,9 L6.1,10.4 L9.9,10.4 L9.9,9 C9.9,8.70176624 10.1175896,8.45435325 10.4026769,8.40785299 L10.5,8.4 L13.113,8.4 L11.195,3.6 Z M10.5,6.9 C10.8313708,6.9 11.1,7.16862915 11.1,7.5 C11.1,7.83137085 10.8313708,8.1 10.5,8.1 L5.5,8.1 C5.16862915,8.1 4.9,7.83137085 4.9,7.5 C4.9,7.16862915 5.16862915,6.9 5.5,6.9 L10.5,6.9 Z M10.5,4.9 C10.8313708,4.9 11.1,5.16862915 11.1,5.5 C11.1,5.83137085 10.8313708,6.1 10.5,6.1 L5.5,6.1 C5.16862915,6.1 4.9,5.83137085 4.9,5.5 C4.9,5.16862915 5.16862915,4.9 5.5,4.9 L10.5,4.9 Z" id="形状结合" fill="#595959" fill-rule="nonzero"></path>
    </g>
</svg>