<?xml version="1.0" encoding="UTF-8"?>
<svg width="16px" height="16px" viewBox="0 0 16 16" version="1.1" xmlns="http://www.w3.org/2000/svg" xmlns:xlink="http://www.w3.org/1999/xlink">
    <title>view-archiveview-archive-filled</title>
    <g id="view-archiveview-archive-filled" stroke="none" stroke-width="1" fill="none" fill-rule="evenodd">
        <g id="编组" transform="translate(0.000000, 0.700000)" fill="#595959">
            <path d="M16,8.88255717 L16,13.9466666 C16,14.3443117 15.677645,14.6666667 15.28,14.6666667 L0.720000029,14.6666667 C0.322354993,14.6666667 -6.23248304e-17,14.3443117 0,13.9466666 L0,8.88255717 L4.666,8.88255717 L4.66666667,10.9333333 L11.3333333,10.9333333 L11.333,8.88255717 L16,8.88255717 Z" id="形状结合"></path>
            <path d="M12.8020102,0 L16,8 L0,8 L3.19798981,0 L12.8020102,0 Z M11.3333333,5.4 L4.66666667,5.4 L4.66666667,6.6 L11.3333333,6.6 L11.3333333,5.4 Z M11.3333333,2.73333333 L4.66666667,2.73333333 L4.66666667,3.93333333 L11.3333333,3.93333333 L11.3333333,2.73333333 Z" id="形状结合"></path>
        </g>
    </g>
</svg>