<?xml version="1.0" encoding="UTF-8"?>
<svg width="20px" height="20px" viewBox="0 0 20 20" version="1.1" xmlns="http://www.w3.org/2000/svg" xmlns:xlink="http://www.w3.org/1999/xlink">
    <title>view more results-filled</title>
    <g id="view-more-results-filled" stroke="none" stroke-width="1" fill="none" fill-rule="evenodd">
        <rect id="矩形备份" fill-opacity="0" fill="#CDCDCD" x="0" y="0" width="20" height="20"></rect>
        <g id="通过" transform="translate(2.000000, 2.000000)">
            <rect id="矩形" fill-opacity="0" fill="#FFFFFF" x="0" y="0" width="16" height="16"></rect>
            <g id="图标" transform="translate(1.714286, 0.571429)" fill="#262626">
                <path d="M9.97933168,8.42857143 C11.6160924,8.42857143 12.9429491,9.75542813 12.9429491,11.3921888 C12.9429491,12.0317379 12.7403668,12.6239714 12.3958713,13.1082202 C12.4552976,13.1362977 12.5112576,13.1754488 12.5606966,13.2250556 L14.1706966,14.8405209 C14.4046138,15.0752322 14.4039701,15.4551306 14.1692589,15.6890478 C13.9345476,15.9229651 13.5546492,15.9223213 13.3207319,15.6876101 L11.7107319,14.0721448 C11.6549991,14.0162227 11.6125816,13.9520588 11.5834729,13.8835911 C11.1218315,14.1825289 10.5708172,14.3558062 9.97933168,14.3558062 C8.34257099,14.3558062 7.01571429,13.0289495 7.01571429,11.3921888 C7.01571429,9.75542813 8.34257099,8.42857143 9.97933168,8.42857143 Z M11.5714286,0 C12.1237133,8.7960173e-16 12.5714286,0.44771525 12.5714286,1 L12.5720905,6.98076574 C11.8868769,6.62782323 11.1095645,6.42857143 10.2857143,6.42857143 C7.52429054,6.42857143 5.28571429,8.66714768 5.28571429,11.4285714 C5.28571429,12.7560259 5.80301731,13.9626577 6.64702976,14.8578733 L1,14.8571429 C0.44771525,14.8571429 2.02974496e-15,14.4094276 0,13.8571429 L0,1 C-6.76353751e-17,0.44771525 0.44771525,1.01453063e-16 1,0 L11.5714286,0 Z M9.97933168,9.62857143 C9.00531269,9.62857143 8.21571429,10.4181698 8.21571429,11.3921888 C8.21571429,12.3662078 9.00531269,13.1558062 9.97933168,13.1558062 C10.9533507,13.1558062 11.7429491,12.3662078 11.7429491,11.3921888 C11.7429491,10.4181698 10.9533507,9.62857143 9.97933168,9.62857143 Z M6.28571429,5.48571429 L2.62857143,5.48571429 L2.62857143,6.68571429 L6.28571429,6.68571429 L6.28571429,5.48571429 Z M9.71428571,2.85714286 L2.62857143,2.85714286 L2.62857143,4.05714286 L9.71428571,4.05714286 L9.71428571,2.85714286 Z" id="形状结合"></path>
            </g>
        </g>
    </g>
</svg>