<?xml version="1.0" encoding="UTF-8"?>
<svg width="14px" height="14px" viewBox="0 0 14 14" version="1.1" xmlns="http://www.w3.org/2000/svg" xmlns:xlink="http://www.w3.org/1999/xlink">
    <title>view-more-results-outlined</title>
    <g id="view-more-results-outlined" stroke="none" stroke-width="1" fill="none" fill-rule="evenodd">
        <rect id="矩形" fill-opacity="0" fill="#F0F0F0" x="-1" y="-1" width="16" height="16"></rect>
        <g id="图标" transform="translate(0.900000, -0.100000)" fill="#262626" fill-rule="nonzero">
            <path d="M8.79361739,7.1 C10.4303781,7.1 11.7572348,8.4268567 11.7572348,10.0636174 C11.7572348,10.6958054 11.5592891,11.2817607 11.2219958,11.7628851 L12.982527,13.5095 C13.217797,13.7428552 13.2193493,14.122751 12.9859941,14.358021 C12.7526389,14.5932911 12.3727431,14.5948434 12.137473,14.3614881 L10.3608438,12.5993186 L10.3487723,12.5869028 C9.89670746,12.8661134 9.36397839,13.0272348 8.79361739,13.0272348 C7.1568567,13.0272348 5.83,11.7003781 5.83,10.0636174 C5.83,8.4268567 7.1568567,7.1 8.79361739,7.1 Z M10.6,0 C11.4836556,0 12.2,0.7163444 12.2,1.6 L12.2,6.14641495 C12.2,6.4777858 11.9313708,6.74641495 11.6,6.74641495 C11.2686292,6.74641495 11,6.4777858 11,6.14641495 L11,1.6 C11,1.3790861 10.8209139,1.2 10.6,1.2 L1.6,1.2 C1.3790861,1.2 1.2,1.3790861 1.2,1.6 L1.2,12.6 C1.2,12.8209139 1.3790861,13 1.6,13 L4.12,13 C4.45137085,13 4.72,13.2686292 4.72,13.6 C4.72,13.9313708 4.45137085,14.2 4.12,14.2 L1.6,14.2 C0.7163444,14.2 0,13.4836556 0,12.6 L0,1.6 C0,0.7163444 0.7163444,0 1.6,0 L10.6,0 Z M8.79361739,8.3 C7.8195984,8.3 7.03,9.0895984 7.03,10.0636174 C7.03,11.0376364 7.8195984,11.8272348 8.79361739,11.8272348 C9.76763638,11.8272348 10.5572348,11.0376364 10.5572348,10.0636174 C10.5572348,9.0895984 9.76763638,8.3 8.79361739,8.3 Z M6.1,5.4 L6.1,6.6 L2.9,6.6 L2.9,5.4 L6.1,5.4 Z M9.1,3.1 L9.1,4.3 L2.9,4.3 L2.9,3.1 L9.1,3.1 Z" id="形状结合"></path>
        </g>
    </g>
</svg>