<?xml version="1.0" encoding="UTF-8"?>
<svg width="14px" height="14px" viewBox="0 0 14 14" version="1.1" xmlns="http://www.w3.org/2000/svg" xmlns:xlink="http://www.w3.org/1999/xlink">
    <title>view-more-results-outlined</title>
    <g id="view-more-results-outlined" stroke="none" stroke-width="1" fill="none" fill-rule="evenodd">
        <rect id="矩形" fill-opacity="0" fill="#F0F0F0" x="-1" y="-1" width="16" height="16"></rect>
        <g id="图标" transform="translate(0.900000, 0.000000)" fill="#595959" fill-rule="nonzero">
            <path d="M8.693617,6.5 C10.3303777,6.5 11.657235,7.82685631 11.657235,9.463617 C11.657235,10.095805 11.4592892,10.6817604 11.1219958,11.1628849 L12.882527,12.9095 C13.117797,13.1428552 13.1193492,13.522751 12.885994,13.758021 C12.6526388,13.993291 12.272743,13.9948432 12.037473,13.761488 L10.260844,11.999319 L10.2487721,11.9869029 C9.79670714,12.2661135 9.263978,12.427235 8.693617,12.427235 C7.05685631,12.427235 5.73,11.1003777 5.73,9.463617 C5.73,7.82685631 7.05685631,6.5 8.693617,6.5 Z M10.6,0 C11.4836556,0 12.2,0.7163444 12.2,1.6 L12.2,6.146415 C12.2,6.47778585 11.9313708,6.746415 11.6,6.746415 C11.2686292,6.746415 11,6.47778585 11,6.146415 L11,1.6 C11,1.3790861 10.8209139,1.2 10.6,1.2 L1.6,1.2 C1.3790861,1.2 1.2,1.3790861 1.2,1.6 L1.2,12.3 C1.2,12.5209139 1.3790861,12.7 1.6,12.7 L4.12,12.7 C4.45137085,12.7 4.72,12.9686292 4.72,13.3 C4.72,13.6313708 4.45137085,13.9 4.12,13.9 L1.6,13.9 C0.7163444,13.9 0,13.1836556 0,12.3 L0,1.6 C0,0.7163444 0.7163444,0 1.6,0 L10.6,0 Z M8.693617,7.7 C7.71959801,7.7 6.93,8.48959801 6.93,9.463617 C6.93,10.437636 7.71959801,11.227235 8.693617,11.227235 C9.66763599,11.227235 10.457235,10.437636 10.457235,9.463617 C10.457235,8.48959801 9.66763599,7.7 8.693617,7.7 Z M6.1,5.4 L6.1,6.6 L2.9,6.6 L2.9,5.4 L6.1,5.4 Z M9.1,3.1 L9.1,4.3 L2.9,4.3 L2.9,3.1 L9.1,3.1 Z" id="形状结合"></path>
        </g>
    </g>
</svg>