<?xml version="1.0" encoding="UTF-8"?>
<svg width="16px" height="16px" viewBox="0 0 16 16" version="1.1" xmlns="http://www.w3.org/2000/svg" xmlns:xlink="http://www.w3.org/1999/xlink">
    <!-- Generator: Sketch 63.1 (92452) - https://sketch.com -->
    <title>BB57EA2A-6B1B-48C7-AB0F-5478AE0FB5F2</title>
    <desc>Created with Sketch.</desc>
    <g id="迭代一" stroke="none" stroke-width="1" fill="none" fill-rule="evenodd">
        <g id="Easyops-5.0/容器部署/实例信息" transform="translate(-109.000000, -509.000000)" fill="#FFFFFF" fill-rule="nonzero">
            <path d="M116.948758,524.892617 C112.653456,524.892617 109.00245,521.348993 109.00245,517.053691 C108.895067,512.758389 112.331309,509 116.733993,509 L116.948758,509 C121.24406,509 124.895067,512.543624 124.895067,516.838926 C125.00245,521.241611 121.458825,524.892617 117.056141,525 L116.948758,525 L116.948758,524.892617 Z M116.948758,509.966443 L116.948758,509.966443 C112.975604,510.073826 109.968893,513.295302 109.968893,517.053691 C110.076275,520.812081 113.190369,523.926174 116.948758,523.926174 L117.056141,523.926174 C120.921913,523.818792 123.928624,520.597315 123.928624,516.838926 C123.821241,513.080537 120.707148,509.966443 116.948758,509.966443 L116.948758,509.966443 Z M117.378288,518.66443 L118.666879,519.95302 L117.915201,520.704698 L121.24406,521.241611 L120.599765,517.912752 L119.848087,518.66443 L118.666879,517.375839 L117.378288,518.66443 Z M116.519228,515.228188 L115.123255,513.832215 L115.874933,513.187919 L112.546074,512.543624 L113.190369,515.872483 L113.942047,515.120805 L115.230637,516.409396 L116.519228,515.228188 Z M115.230637,517.375839 L113.834664,518.771812 L113.297752,518.020134 L112.653456,521.348993 L115.982315,520.704698 L115.230637,519.95302 L116.519228,518.66443 L115.230637,517.375839 Z M118.666879,516.516779 L119.95547,515.228188 L120.707148,515.979866 L121.24406,512.651007 L118.022584,513.295302 L118.774262,514.04698 L117.378288,515.228188 L118.666879,516.516779 Z" id="应用路由"></path>
        </g>
    </g>
</svg>