<?xml version="1.0" encoding="UTF-8"?>
<svg width="17px" height="17px" viewBox="0 0 17 17" version="1.1" xmlns="http://www.w3.org/2000/svg" xmlns:xlink="http://www.w3.org/1999/xlink">
    <!-- Generator: Sketch 63.1 (92452) - https://sketch.com -->
    <title>ECC80A2F-8D6D-4EBC-BCF5-0750CEC838CF</title>
    <desc>Created with Sketch.</desc>
    <g id="迭代一" stroke="none" stroke-width="1" fill="none" fill-rule="evenodd">
        <g id="Easyops-5.0/容器部署/实例信息" transform="translate(-42.000000, -389.000000)" fill-rule="nonzero">
            <g id="快捷部署" transform="translate(43.000000, 390.000000)">
                <path d="M0.432110926,15.7475575 L0.259322619,15.7475575 L0.259322619,15.7112644 C0.210590508,15.6901836 0.165846002,15.6599492 0.126969823,15.6214183 C0.00774636694,15.5018496 -0.0314750076,15.3237048 0.0262321923,15.1671526 C0.862879462,12.8671612 1.7311538,11.7488462 2.6804539,11.7488462 C3.00996106,11.7488462 3.31511407,11.8869006 3.58777107,12.1590458 C4.02061078,12.5918855 4.03460906,13.0295579 3.97033124,13.3205341 C3.78129492,14.1751554 2.6721573,14.9604875 0.57985469,15.7216202 C0.530777383,15.7389038 0.481533429,15.7475575 0.43212283,15.7475575 L0.432110926,15.7475575 Z" id="路径" fill="#FFFFFF"></path>
                <path d="M4.35259182,7.81361538 L4.42684182,8.00344231 C4.67724567,8.64411538 5.43822644,9.44778846 5.75366874,9.76351923 C6.06884182,10.0789615 6.87199567,10.8393846 7.51347644,11.0900769 L7.7030149,11.1643269 L7.69045721,11.3678269 C7.62038028,12.48 7.21980336,13.3953462 6.89597644,13.9673269 C6.4870149,14.6903462 6.07189951,15.1093462 6.06772644,15.1132692 C6.01999567,15.1610192 6.01384182,15.2385962 6.05320721,15.2935962 C6.09228413,15.3474808 6.16822644,15.3673077 6.22630336,15.3377115 C6.36057259,15.2698846 7.55509182,14.6565769 8.7655149,13.6795192 C9.50639951,13.0818462 10.0959764,12.4741154 10.5183418,11.8728269 C11.0073995,11.1785577 11.2779187,10.4868077 11.3225918,9.81740385 L11.3312457,9.68926923 L11.4342457,9.61248077 C11.6343803,9.46369231 11.8295341,9.30484615 12.0154572,9.14126923 C13.0444187,8.23317308 13.8615149,7.10315385 14.4449572,5.78273077 C15.1559764,4.172 15.5163611,2.27344231 15.5163611,0.139307692 L15.5163611,-5.13777055e-13 L15.3773418,0.000288461538 C13.2437457,0.000288461538 11.3455149,0.360961538 9.73418798,1.07196154 C8.41378413,1.65511538 7.28347644,2.47276923 6.37564951,3.50173077 C6.21318798,3.68598077 6.05461105,3.88138462 5.90414951,4.08294231 L5.82711105,4.18594231 L5.69897644,4.19459615 C5.02955336,4.23898077 4.33809182,4.50923077 3.64411105,4.99828846 C3.04280336,5.42119231 2.43509182,6.01078846 1.83741874,6.75165385 C0.891361052,7.92382692 0.291745668,9.06892308 0.181187975,9.28638462 C0.149630283,9.34975 0.167514898,9.42373077 0.222784129,9.46394231 C0.308495668,9.52592308 0.362361052,9.49075 0.403668745,9.44942308 C0.403668745,9.44971154 0.822687975,9.03207692 1.54961105,8.62117308 C2.12216874,8.29734615 3.03809182,7.89676923 4.14886105,7.82669231 L4.35264951,7.81355769 L4.35259182,7.81361538 Z" id="路径" stroke="#FFFFFF"></path>
                <path d="M10.3533226,3.34988462 C9.35338028,3.34988462 8.53936105,4.16390385 8.53936105,5.16411538 C8.53936105,6.16461538 9.35338028,6.97863462 10.3533226,6.97863462 C11.3538226,6.97863462 12.1678418,6.16461538 12.1678418,5.16411538 C12.1678418,4.16361538 11.3538226,3.34988462 10.3533226,3.34988462 Z" id="路径" fill="#FFFFFF"></path>
            </g>
        </g>
    </g>
</svg>