<?xml version="1.0" encoding="UTF-8"?>
<svg width="20px" height="20px" viewBox="0 0 20 20" version="1.1" xmlns="http://www.w3.org/2000/svg" xmlns:xlink="http://www.w3.org/1999/xlink">
    <title>Application operation and maintenance 2</title>
    <g id="Application-operation-and-maintenance" stroke="none" stroke-width="1" fill="none" fill-rule="evenodd">
        <rect id="矩形" fill="#000000" opacity="0" x="0" y="0" width="20" height="20"></rect>
        <g id="编组" transform="translate(2.000000, 2.084729)" fill="#FFFFFF" opacity="0.55">
            <path d="M12.041411,0.29962425 L15.5127755,3.97626348 C15.8768328,4.28998201 16.1581893,5 15.5127755,5 L0.487224493,5 C-0.158189279,5 0.123167187,4.28998201 0.487224493,3.97626348 L3.95858896,0.29962425 C4.08288755,0.134146346 4.30388997,0 4.4545144,0 L11.5454856,0 C11.69611,0 11.9171125,0.134146346 12.041411,0.29962425 Z" id="路径"></path>
            <path d="M14.9,3.91527067 C15.5075132,3.91527067 16,4.40775745 16,5.01527067 L16,14.4152707 C16,15.2436978 15.4883254,15.9152707 14.8571429,15.9152707 L1.14285714,15.9152707 C0.511674572,15.9152707 0,15.2436978 0,14.4152707 L0,5.01527067 C-7.43989126e-17,4.40775745 0.492486775,3.91527067 1.1,3.91527067 L14.9,3.91527067 Z M11.7333031,10.3160025 L2.45713672,10.3160025 L2.45713672,11.5160025 L11.7333031,11.5160025 L11.7333031,10.3160025 Z M9.14283464,6.31527067 L2.45713672,6.31527067 L2.45713672,7.51527067 L9.14283464,7.51527067 L9.14283464,6.31527067 Z" id="形状结合"></path>
        </g>
        <g id="编组-2" transform="translate(4.457137, 8.400000)"></g>
        <path d="M13.8632124,14.3529447 L9.51088083,11.9867962 C9.4417962,11.9522539 9.37271157,11.9522539 9.30362694,11.9867962 C9.23454231,12.0213385 9.2,12.0904231 9.2,12.1595078 L9.2,16.6327375 C9.2,16.7018221 9.23454231,16.7709067 9.30362694,16.8054491 L13.6386874,19.1715976 C13.6732297,19.1888687 13.707772,19.1888687 13.7423143,19.1888687 C13.7768566,19.1888687 13.811399,19.1715976 13.8459413,19.1543264 C13.9150259,19.1197841 13.9495682,19.0506995 13.9495682,18.9816149 L13.9495682,14.5256563 C13.9668394,14.4565717 13.9150259,14.387487 13.8632124,14.3529447 Z M19.0963731,12.1940501 C19.0445596,12.1595078 18.9582038,12.1595078 18.9063903,12.1767789 L14.5713299,14.3529447 C14.5022453,14.387487 14.4677029,14.4565717 14.4677029,14.5256563 L14.4677029,18.998886 C14.4677029,19.0679706 14.5022453,19.1370553 14.5713299,19.1715976 C14.6058722,19.1888687 14.6404145,19.2061399 14.6749568,19.2061399 C14.7094991,19.2061399 14.7440415,19.2061399 14.7613126,19.1888687 L19.0963731,17.0299741 C19.1654577,16.9954318 19.2,16.9263472 19.2,16.8572625 L19.2,12.3667617 C19.2,12.297677 19.1654577,12.2285924 19.0963731,12.1940501 L19.0963731,12.1940501 Z M18.9236615,11.4859326 C18.9236615,11.3995769 18.871848,11.3304922 18.8027634,11.3132211 L14.2949914,9.25795337 C14.2431779,9.24068221 14.1740933,9.24068221 14.1222798,9.25795337 L9.61450777,11.2959499 C9.54542314,11.3304922 9.49360967,11.3995769 9.49360967,11.4686615 C9.49360967,11.5550173 9.52815199,11.6241019 9.59723661,11.6586442 L14.1050086,13.8866235 C14.1395509,13.9038946 14.1568221,13.9038946 14.1913644,13.9038946 C14.2259067,13.9038946 14.2604491,13.9038946 14.2777202,13.8866235 L18.7854922,11.6586442 C18.871848,11.6241019 18.9236615,11.5550173 18.9236615,11.4859326 Z" id="形状" fill="#FFFFFF"></path>
    </g>
</svg>