<?xml version="1.0" encoding="UTF-8"?>
<svg width="20px" height="20px" viewBox="0 0 20 20" version="1.1" xmlns="http://www.w3.org/2000/svg" xmlns:xlink="http://www.w3.org/1999/xlink">
    <title>application configuration 3</title>
    <g id="application-configuration" stroke="none" stroke-width="1" fill="none" fill-rule="evenodd">
        <rect id="矩形" fill="#000000" opacity="0" x="0" y="0" width="20" height="20"></rect>
        <g id="编组" transform="translate(3.000000, 4.000000)">
            <path d="M11.5732718,13 C11.3618843,13 11.1843188,12.9655354 10.9729313,12.9310707 L10.9391093,12.9310707 C10.7615438,12.8621414 10.5501564,12.7501313 10.3049469,12.6467373 C9.24800951,12.1814646 7.94586265,11.5697171 6.99039125,11.5697171 C6.42387281,11.5697171 5.72206639,11.7851211 5.02025996,12.0694545 C5.02025996,12.0349898 5.05408196,12.0349898 5.05408196,12.0005252 C5.15554795,11.7851211 5.26546944,11.5697171 5.33311343,11.3198484 C5.33311343,11.2853837 5.36693543,11.2853837 5.36693543,11.2509191 C5.40075742,11.035515 5.43457942,10.7856463 5.43457942,10.4926968 C5.46840142,10.0618887 5.53604541,9.59661593 5.6121449,9.13134317 C6.10256385,9.31228257 6.60143829,9.41567652 6.98193575,9.41567652 C7.92895165,9.41567652 9.23955401,8.83839365 10.2626694,8.37312089 C10.4740569,8.26972694 10.7192664,8.15771684 10.8968318,8.08878754 C11.1082193,8.01985824 11.3196068,8.01985824 11.5309943,8.01985824 C12.9007851,8.01985824 14,9.13134317 14,10.5357776 C14,11.940212 12.9430626,13 11.5732718,13" id="路径" fill="#57689C"></path>
            <path d="M11.5732718,9.51907047 C11.0490308,9.51907047 10.5839784,9.94987858 10.5839784,10.5271614 C10.5839784,11.0613635 11.0067533,11.5352524 11.5732718,11.5352524 C12.0975127,11.5352524 12.5625652,11.1044443 12.5625652,10.5271614 C12.5541097,9.94987858 12.1313347,9.51907047 11.5732718,9.51907047" id="路径" fill="#FFFFFF"></path>
            <path d="M0.319002468,9.15719165 C0.428923956,8.97625225 0.530389945,8.79531284 0.67413343,8.65745424 L0.67413343,8.6229896 C0.851698911,8.51097949 1.02926439,8.37312089 1.19837437,8.22664613 C2.11156828,7.54596932 3.27842715,6.6843531 3.7350241,5.82273688 C4.01405557,5.32299947 4.19162105,4.56477719 4.30154254,3.81517108 C4.30154254,3.84963573 4.33536454,3.84963573 4.33536454,3.88410038 C4.43683053,4.09950443 4.61439601,4.31490849 4.75813949,4.49584789 C4.75813949,4.53031254 4.79196149,4.53031254 4.82578348,4.56477719 C5.00334897,4.71125195 5.21473644,4.84911055 5.42612392,5.03004995 C5.74743289,5.27991866 6.12793034,5.56425201 6.5168833,5.85720152 C6.12793034,6.21908034 5.81507688,6.57234299 5.6036894,6.9342218 C5.14709245,7.76137337 4.96952697,9.1916563 4.85960548,10.346222 C4.82578348,10.5960907 4.82578348,10.8459594 4.79196149,11.0268989 C4.7243175,11.2423029 4.648218,11.4232423 4.54675201,11.6041817 C3.87876759,12.7932121 2.36523325,13.2240202 1.19837437,12.5347272 C0.0737929945,11.9229797 -0.34898196,10.3806867 0.319002468,9.15719165" id="路径" fill="#57689C"></path>
            <path d="M3.31224915,10.9235049 C3.59128062,10.4582321 3.41371514,9.84648463 2.95711819,9.56215128 C2.50052123,9.27781792 1.9001808,9.45875733 1.62114933,9.92403009 C1.34211786,10.3893028 1.51968334,11.0010504 1.97628029,11.2853837 C2.43287724,11.5697171 3.03321768,11.4232423 3.31224915,10.9235049" id="路径" fill="#FFFFFF"></path>
            <path d="M9.13808802,1.24755474 C9.23955401,1.42849415 9.3156535,1.60943355 9.3832975,1.82483761 L9.3832975,1.85930226 C9.41711949,2.07470631 9.41711949,2.29011037 9.45094149,2.53997907 C9.59468497,3.68592865 9.72997296,5.15929239 10.1950254,5.98644396 C10.4740569,6.48618137 11.0067533,7.02899959 11.6070938,7.49427235 L11.5394498,7.49427235 C11.2942403,7.49427235 11.0490308,7.52873699 10.7953658,7.60628245 C10.7615438,7.60628245 10.7615438,7.60628245 10.7277219,7.6407471 C10.5163344,7.7096764 10.3049469,7.82168651 10.0597374,7.92508046 C9.67078446,8.10601986 9.24800951,8.28695927 8.79141256,8.45928251 C8.68149107,7.9595451 8.54620309,7.45119153 8.33481561,7.09792888 C7.87821866,6.27077731 6.71135978,5.40916109 5.79816588,4.72848427 C5.5867784,4.58200952 5.40921292,4.44415092 5.23164744,4.29767616 C5.08790396,4.15120141 4.94416047,3.970262 4.84269448,3.79793876 C4.17471005,2.61752453 4.56366301,1.06661533 5.75588838,0.385938518 C6.95656926,-0.372283757 8.47010359,0.0240597053 9.13808802,1.24755474" id="路径" fill="#9FAECF"></path>
            <path d="M6.14484134,3.00525183 C6.42387281,3.47052459 7.02421325,3.651464 7.4808102,3.36713064 C7.93740715,3.08279729 8.11497263,2.47104977 7.83594116,2.00577701 C7.55690969,1.54050426 6.95656926,1.35956485 6.4999723,1.6438982 C6.03491985,1.89376691 5.86580987,2.50551442 6.14484134,3.00525183" id="路径" fill="#FFFFFF"></path>
        </g>
    </g>
</svg>