<?xml version="1.0" encoding="UTF-8"?>
<svg width="20px" height="20px" viewBox="0 0 20 20" version="1.1" xmlns="http://www.w3.org/2000/svg" xmlns:xlink="http://www.w3.org/1999/xlink">
    <title>automatic discovery-second menu-pressed</title>
    <g id="automatic-discovery-second-menu-pressed" stroke="none" stroke-width="1" fill="none" fill-rule="evenodd">
        <rect id="矩形" fill-opacity="0" fill="#D8D8D8" x="0" y="0" width="20" height="20"></rect>
        <g id="图形" transform="translate(3.071797, 2.154701)" fill="#FFFFFF" opacity="0.550000012">
            <path d="M7.42820323,0.133974596 L13.3564065,3.55662433 C13.6658075,3.73525712 13.8564065,4.06538414 13.8564065,4.42264973 L13.8564065,11.2679492 C13.8564065,11.6252148 13.6658075,11.9553418 13.3564065,12.1339746 L7.42820323,15.5566243 C7.11880215,15.7352571 6.73760431,15.7352571 6.42820323,15.5566243 L0.5,12.1339746 C0.190598923,11.9553418 -3.5971226e-14,11.6252148 -3.64153152e-14,11.2679492 L-3.73034936e-14,4.42264973 C-3.66373598e-14,4.06538414 0.190598923,3.73525712 0.5,3.55662433 L6.42820323,0.133974596 C6.73760431,-0.0446581987 7.11880215,-0.0446581987 7.42820323,0.133974596 Z M4.10820323,6.64529946 L4.108,9.117 L2.388,10.11 L1.92820323,9.84529946 L1.06217783,10.3452995 L1.06217783,11.3452995 L1.92820323,11.8452995 L2.79422863,11.3452995 L2.794,10.569 L4.34,9.676 L6.7290529,11.0306595 L6.7290529,8.01143038 L4.10820323,6.64529946 Z M9.7690529,6.64529946 L7.14820323,8.01143038 L7.14820323,11.0157167 L9.496,9.698 L11.062,10.602 L11.0621778,11.3452995 L11.9282032,11.8452995 L12.7942286,11.3452995 L12.7942286,10.3452995 L11.9282032,9.84529946 L11.44,10.127 L9.769,9.163 L9.7690529,6.64529946 Z M6.92820323,0.845299462 L6.06217783,1.34529946 L6.06217783,2.34529946 L6.623,2.669 L6.599,5.016 L4.30688289,6.21143038 L6.92820339,7.57756131 L9.54952389,6.21143038 L7.2,4.987 L7.223,2.675 L7.79422863,2.34529946 L7.79422863,1.34529946 L6.92820323,0.845299462 Z" id="形状结合"></path>
        </g>
    </g>
</svg>