<?xml version="1.0" encoding="UTF-8"?>
<svg width="20px" height="20px" viewBox="0 0 20 20" version="1.1" xmlns="http://www.w3.org/2000/svg" xmlns:xlink="http://www.w3.org/1999/xlink">
    <title>automatic discovery-second menu-normal</title>
    <g id="automatic-discovery-second-menu-normal" stroke="none" stroke-width="1" fill="none" fill-rule="evenodd">
        <g id="图形" transform="translate(2.000000, 2.000000)">
            <path d="M8.5,0.288675135 L14.4282032,3.71132487 C14.7376043,3.88995766 14.9282032,4.22008468 14.9282032,4.57735027 L14.9282032,11.4226497 C14.9282032,11.7799153 14.7376043,12.1100423 14.4282032,12.2886751 L8.5,15.7113249 C8.19059892,15.8899577 7.80940108,15.8899577 7.5,15.7113249 L1.57179677,12.2886751 C1.26239569,12.1100423 1.07179677,11.7799153 1.07179677,11.4226497 L1.07179677,4.57735027 C1.07179677,4.22008468 1.26239569,3.88995766 1.57179677,3.71132487 L7.5,0.288675135 C7.80940108,0.11004234 8.19059892,0.11004234 8.5,0.288675135 Z" id="多边形" fill="#9FAECF"></path>
            <path d="M5.18,6.8 L7.80084967,8.16613092 L7.80084967,11.18536 L5.4109746,9.831 L3.8659746,10.723 L3.8660254,11.5 L3,12 L2.1339746,11.5 L2.1339746,10.5 L3,10 L3.4589746,10.265 L5.1799746,9.272 L5.18,6.8 Z M10.8408497,6.8 L10.8399746,9.316 L12.5119746,10.282 L13,10 L13.8660254,10.5 L13.8660254,11.5 L13,12 L12.1339746,11.5 L12.1339746,10.756 L10.5679746,9.852 L8.22,11.1704172 L8.22,8.16613092 L10.8408497,6.8 Z M8,1 L8.8660254,1.5 L8.8660254,2.5 L8.2949746,2.83 L8.2719746,5.142 L10.6213207,6.36613092 L8.00000016,7.73226185 L5.37867966,6.36613092 L7.6709746,5.171 L7.6949746,2.824 L7.1339746,2.5 L7.1339746,1.5 L8,1 Z" id="形状结合" fill="#FFFFFF" fill-rule="nonzero"></path>
        </g>
        <rect id="矩形" fill-opacity="0" fill="#D8D8D8" x="0" y="0" width="20" height="20"></rect>
    </g>
</svg>