<?xml version="1.0" encoding="UTF-8"?>
<svg width="20px" height="20px" viewBox="0 0 20 20" version="1.1" xmlns="http://www.w3.org/2000/svg" xmlns:xlink="http://www.w3.org/1999/xlink">
    <title>build machine management 2</title>
    <g id="build-machine-management" stroke="none" stroke-width="1" fill="none" fill-rule="evenodd">
        <rect id="矩形" fill="#000000" opacity="0" x="0" y="0" width="20" height="20"></rect>
        <g id="编组-3备份" transform="translate(2.000000, 2.000000)">
            <rect id="矩形" fill="#FFFFFF" opacity="0.55" x="0" y="0" width="16" height="12" rx="1"></rect>
            <g id="编组-9" transform="translate(2.000000, 3.000000)">
                <polyline id="路径-3" stroke="#FFFFFF" stroke-width="1.2" stroke-linecap="square" points="0.5 0.974230632 1.65735635 2.10332133 3.67981261 2.40215154e-17"></polyline>
                <circle id="椭圆形备份-2" fill="#FFFFFF" cx="1.5" cy="5.5" r="1.5"></circle>
                <line x1="5.92857143" y1="1.5" x2="11.0714286" y2="1.5" id="直线-2" stroke="#FFFFFF" stroke-width="1.2" stroke-linecap="square"></line>
                <line x1="5.92857143" y1="5.5" x2="11.0714286" y2="5.5" id="直线-2备份" stroke="#FFFFFF" stroke-width="1.2" stroke-linecap="square"></line>
            </g>
            <g id="编组-15" transform="translate(7.000000, 4.000000)"></g>
            <path d="M6.1571889,13 L9.8428111,13 C10.1820633,13 10.7091766,13.3837559 11.0201517,13.8571429 L11.864757,15.1428571 C12.1757321,15.6162441 11.9322257,16 11.3208704,16 L4.67912961,16 C4.06777426,16 3.82426794,15.6162441 4.13524302,15.1428571 L4.97984833,13.8571429 C5.29082341,13.3837559 5.81793674,13 6.1571889,13 Z" id="矩形" fill="#FFFFFF"></path>
        </g>
    </g>
</svg>