<?xml version="1.0" encoding="UTF-8"?>
<svg width="20px" height="20px" viewBox="0 0 20 20" version="1.1" xmlns="http://www.w3.org/2000/svg" xmlns:xlink="http://www.w3.org/1999/xlink">
    <title>Configuration Info-second menu-normal</title>
    <g id="Configuration-Info-second-menu-normal" stroke="none" stroke-width="1" fill="none" fill-rule="evenodd">
        <g id="Configuration-Info-second-menu-default">
            <rect id="矩形" fill-opacity="0" fill="#D8D8D8" x="0" y="0" width="20" height="20"></rect>
            <g id="图形" transform="translate(2.000000, 2.000000)">
                <path d="M15,0 C15.5522847,-1.01453063e-16 16,0.44771525 16,1 L16,11 C16,11.5522847 15.5522847,12 15,12 L1,12 C0.44771525,12 6.76353751e-17,11.5522847 0,11 L0,1 C-6.76353751e-17,0.44771525 0.44771525,1.01453063e-16 1,0 L15,0 Z M4.15477993,2.99970269 C4.06929733,2.99970269 4,3.06900003 4,3.15448262 L4,4.38101585 L4.05664062,4.50015647 L6.20117187,6.30093772 L4.05664062,8.10171897 L4,8.2208596 L4,9.44827148 C4,9.48558391 4.01351358,9.52163376 4.03804078,9.54975196 C4.0940869,9.61400373 4.19160761,9.62065572 4.25585937,9.5646096 L8.00585937,6.42007835 L8.01583535,6.41018285 C8.07670711,6.34433684 8.07267468,6.2416118 8.00682867,6.18074004 L4.25585937,3.03726585 L4.22541005,3.01675724 C4.20370648,3.00562742 4.17951761,2.99970269 4.15477993,2.99970269 Z M11.96875,8.35171897 L8.06298828,8.35171897 L8.0625,9.60171897 L11.96875,9.60171897 L11.96875,8.35171897 Z" id="形状结合" fill="#9FAECF"></path>
                <path d="M6.1571889,13 L9.8428111,13 C10.1820633,13 10.7091766,13.3837559 11.0201517,13.8571429 L11.864757,15.1428571 C12.1757321,15.6162441 11.9322257,16 11.3208704,16 L4.67912961,16 C4.06777426,16 3.82426794,15.6162441 4.13524302,15.1428571 L4.97984833,13.8571429 C5.29082341,13.3837559 5.81793674,13 6.1571889,13 Z" id="矩形" fill="#57689C"></path>
            </g>
        </g>
    </g>
</svg>