<?xml version="1.0" encoding="UTF-8"?>
<svg width="20px" height="20px" viewBox="0 0 20 20" version="1.1" xmlns="http://www.w3.org/2000/svg" xmlns:xlink="http://www.w3.org/1999/xlink">
    <title>continuous deployment 3</title>
    <g id="continuous-deployment" stroke="none" stroke-width="1" fill="none" fill-rule="evenodd">
        <rect id="矩形" fill="#000000" opacity="0" x="0" y="0" width="20" height="20"></rect>
        <g id="编组-10备份" transform="translate(3.001148, 3.000000)">
            <path d="M6.78396554,3.39038958 C7.11533639,3.39038958 7.38396554,3.65901873 7.38396554,3.99038958 L7.38396554,7.82606488 C7.38396554,7.90274256 7.36958211,7.9760608 7.34336616,8.04346871 C7.53008033,7.9521876 7.76021061,7.96378064 7.94351454,8.09213144 L11.0855158,10.2921844 C11.3569589,10.4822509 11.4229277,10.8563784 11.2328612,11.1278215 C11.0427947,11.3992646 10.6686672,11.4652334 10.3972241,11.2751669 L7.25522282,9.07511389 C7.17585148,9.01953748 7.11404835,8.94822373 7.07107748,8.8683415 C7.02993712,8.94698163 6.96871143,9.01716751 6.89037089,9.07202214 L3.74836962,11.2720751 C3.47692651,11.4621416 3.10279904,11.3961729 2.91273253,11.1247298 C2.72266602,10.8532866 2.78863479,10.4791592 3.0600779,10.2890927 L6.20207916,8.08903969 L6.23544078,8.06958154 C6.20235298,7.99516199 6.18396554,7.91276074 6.18396554,7.82606488 L6.18396554,3.99038958 C6.18396554,3.65901873 6.45259469,3.39038958 6.78396554,3.39038958 Z" id="形状结合" fill="#57689C" fill-rule="nonzero"></path>
            <path d="M6.78396554,0 L8.50013707,1.03627596 L8.50013707,3.10882788 L6.78396554,4.14510385 L5.06779401,3.10882788 L5.06779401,1.03627596 L6.78396554,0 Z M0.135487978,13.0693773 L0,11.0691884 L1.69773514,9.88042149 L3.53095827,10.6918434 L3.66644625,12.6920323 L1.9687111,13.8807993 L0.135487978,13.0693773 Z M13.8622162,13.0693773 L13.9977042,11.0691884 L12.299969,9.88042149 L10.4667459,10.6918434 L10.3312579,12.6920323 L12.0289931,13.8807993 L13.8622162,13.0693773 Z M6.78396554,5.42876782 L9.56307187,7.10687576 L9.56307187,10.4630917 L6.78396554,12.1411996 L4.00485921,10.4630917 L4.00485921,7.10687576 L6.78396554,5.42876782 Z" id="形状" fill="#9FAECF"></path>
        </g>
    </g>
</svg>