<?xml version="1.0" encoding="UTF-8"?>
<svg width="20px" height="20px" viewBox="0 0 20 20" version="1.1" xmlns="http://www.w3.org/2000/svg" xmlns:xlink="http://www.w3.org/1999/xlink">
    <title>deployment tasks 5</title>
    <g id="deployment-tasks" stroke="none" stroke-width="1" fill="none" fill-rule="evenodd">
        <rect id="矩形" fill="#000000" opacity="0" x="0" y="0" width="20" height="20"></rect>
        <g id="编组" transform="translate(2.000000, 3.000000)">
            <path d="M12.8247149,12.5674534 C13.5632465,11.5702952 14,10.3361522 14,9 C14,7.158891 13.1707537,5.51146285 11.8653837,4.41083811 M8,3 C5.34018717,3 3.08460554,4.7307195 2.29798685,7.12742677 M2.46896118,11.3294361 C3.37837706,13.4861376 5.51239778,15 8,15 C8.54939675,15 9.08154704,14.9261591 9.58706781,14.7878605" id="形状" stroke="#9FAECF" stroke-width="1.2" stroke-linecap="round" stroke-linejoin="round"></path>
            <path d="M8,5 C9.38071187,5 10.5,3.88071187 10.5,2.5 C10.5,1.11928813 9.38071187,0 8,0 C6.61928813,0 5.5,1.11928813 5.5,2.5 C5.5,3.88071187 6.61928813,5 8,5 Z M2.5,14 C3.88071187,14 5,12.8807119 5,11.5 C5,10.1192881 3.88071187,9 2.5,9 C1.11928813,9 0,10.1192881 0,11.5 C0,12.8807119 1.11928813,14 2.5,14 Z M13.5,14 C14.8807119,14 16,12.8807119 16,11.5 C16,10.1192881 14.8807119,9 13.5,9 C12.1192881,9 11,10.1192881 11,11.5 C11,12.8807119 12.1192881,14 13.5,14 Z" id="形状结合" fill="#57689C"></path>
        </g>
    </g>
</svg>