<?xml version="1.0" encoding="UTF-8"?>
<svg width="20px" height="20px" viewBox="0 0 20 20" version="1.1" xmlns="http://www.w3.org/2000/svg" xmlns:xlink="http://www.w3.org/1999/xlink">
    <title>deployment tasks 3</title>
    <g id="deployment-tasks" stroke="none" stroke-width="1" fill="none" fill-rule="evenodd">
        <rect id="矩形" fill="#000000" opacity="0" x="0" y="0" width="20" height="20"></rect>
        <g id="编组" transform="translate(2.000000, 3.000000)" fill="#FFFFFF">
            <path d="M2.23583719,10.7765769 C2.54117285,10.6478261 2.89306948,10.7909764 3.0218203,11.0963121 C3.85906957,13.0818687 5.80789743,14.4 8,14.4 C8.48826558,14.4 8.96737339,14.3353462 9.42873993,14.2091272 C9.74836553,14.1216851 10.0783591,14.309907 10.1658012,14.6295326 C10.2532432,14.9491582 10.0650213,15.2791518 9.74539568,15.3665939 C9.18108309,15.5209766 8.59549069,15.6 8,15.6 C5.32108946,15.6 2.93925723,13.988997 1.91610206,11.5625601 C1.78735124,11.2572244 1.93050153,10.9053278 2.23583719,10.7765769 Z M11.4066735,4.02407593 C11.6202764,3.7707373 11.9988072,3.73852509 12.2521459,3.95212794 C13.7299776,5.19816402 14.6,7.02887411 14.6,9 C14.6,10.4324596 14.1418003,11.797247 13.3068733,12.9245574 C13.1096502,13.1908462 12.7338997,13.2468349 12.4676109,13.0496118 C12.2013222,12.8523887 12.1453334,12.4766382 12.3425565,12.2103494 C13.0256932,11.2879848 13.4,10.1730797 13.4,9 C13.4,7.38638828 12.6888303,5.88993765 11.4786215,4.86954827 C11.2252829,4.65594542 11.1930707,4.27741456 11.4066735,4.02407593 Z M8,2.4 C8.33137085,2.4 8.6,2.66862915 8.6,3 C8.6,3.33137085 8.33137085,3.6 8,3.6 C5.64906194,3.6 3.58960716,5.11610979 2.8680673,7.31453178 C2.76473205,7.62937851 2.42572858,7.80084246 2.11088184,7.69750721 C1.7960351,7.59417197 1.62457116,7.25516849 1.7279064,6.94032176 C2.60999628,4.25272834 5.12670732,2.4 8,2.4 Z" id="形状" fill-opacity="0.55" fill-rule="nonzero"></path>
            <path d="M8,5 C9.38071187,5 10.5,3.88071187 10.5,2.5 C10.5,1.11928813 9.38071187,0 8,0 C6.61928813,0 5.5,1.11928813 5.5,2.5 C5.5,3.88071187 6.61928813,5 8,5 Z M2.5,14 C3.88071187,14 5,12.8807119 5,11.5 C5,10.1192881 3.88071187,9 2.5,9 C1.11928813,9 0,10.1192881 0,11.5 C0,12.8807119 1.11928813,14 2.5,14 Z M13.5,14 C14.8807119,14 16,12.8807119 16,11.5 C16,10.1192881 14.8807119,9 13.5,9 C12.1192881,9 11,10.1192881 11,11.5 C11,12.8807119 12.1192881,14 13.5,14 Z" id="形状结合"></path>
        </g>
    </g>
</svg>