<?xml version="1.0" encoding="UTF-8"?>
<svg width="20px" height="20px" viewBox="0 0 20 20" version="1.1" xmlns="http://www.w3.org/2000/svg" xmlns:xlink="http://www.w3.org/1999/xlink">
    <title>grouping rules-second menu-pressed</title>
    <g id="grouping-rules-second-menu-pressed" stroke="none" stroke-width="1" fill="none" fill-rule="evenodd">
        <g id="grouping-rules">
            <rect id="矩形" x="0" y="0" width="20" height="20"></rect>
            <path d="M16.9,3 C17.5075132,3 18,3.49248678 18,4.1 L18,12.625 C18,13.3843915 17.5522847,14 17,14 L15,14 L15,7.1 C15,6.53298766 14.5709893,6.06617613 14.0198571,6.00645465 L13.9,6 L4,6 L4,4.1 C4,3.49248678 4.49248678,3 5.1,3 L16.9,3 Z" id="形状结合" fill="#FFFFFF" opacity="0.55"></path>
            <path d="M15.4,4.5 C16.0075132,4.5 16.5,4.99248678 16.5,5.6 L16.5,14.125 C16.5,14.8843915 16.0522847,15.5 15.5,15.5 L15,15.5 L15,7.1 C15,6.53298766 14.5709893,6.06617613 14.0198571,6.00645465 L13.9,6 L2.5,6 L2.5,5.6 C2.5,4.99248678 2.99248678,4.5 3.6,4.5 L15.4,4.5 Z" id="形状结合" fill="#FFFFFF" opacity="0.55"></path>
            <path d="M15.4,4.5 C16.0075132,4.5 16.5,4.99248678 16.5,5.6 L16.5,14.125 C16.5,14.8843915 16.0522847,15.5 15.5,15.5 L15,15.5 L15,7.1 C15,6.53298766 14.5709893,6.06617613 14.0198571,6.00645465 L13.9,6 L2.5,6 L2.5,5.6 C2.5,4.99248678 2.99248678,4.5 3.6,4.5 L15.4,4.5 Z" id="形状结合" fill="#EEF4FD" opacity="0.55"></path>
            <path d="M13.9,6 C14.5075132,6 15,6.49248678 15,7.1 L15,15.625 C15,16.3843915 14.5522847,17 14,17 L2,17 C1.44771525,17 1,16.3843915 1,15.625 L1,7.1 C1,6.49248678 1.49248678,6 2.1,6 L13.9,6 Z M8,13 L3,13 L3,14 L8,14 L8,13 Z M13,9 L3,9 L3,10 L13,10 L13,9 Z" id="形状结合" fill="#FFFFFF"></path>
        </g>
    </g>
</svg>