<?xml version="1.0" encoding="UTF-8"?>
<svg width="20px" height="20px" viewBox="0 0 20 20" version="1.1" xmlns="http://www.w3.org/2000/svg" xmlns:xlink="http://www.w3.org/1999/xlink">
    <title>Inspection Kit 2</title>
    <defs>
        <path d="M3.542525,0.456575 C3.542525,0.646625 3.6589,0.8092 3.8241,0.877975 L3.8241,0.877975 L3.8241,1.6016 L3.308025,1.616825 C2.30265,1.6786 1.66425,1.8767 1.262975,2.161775 L1.262975,2.161775 C0.9555,2.44335 0.737975,2.81995 0.653625,3.2431 L0.653625,3.2431 L0.4151,3.2431 C0.18655,3.2431 0,3.43 0,3.6582 L0,3.6582 L0,4.2511 C0,4.4793 0.18655,4.6662 0.4151,4.6662 L0.4151,4.6662 L0.6167,4.6662 C0.63385,5.221125 0.878675,5.721625 1.262975,6.07355 L1.262975,6.07355 C1.659,6.35495 2.287425,6.550775 3.2697,6.615175 L3.2697,6.615175 C3.266375,6.6367 3.26445,6.66015 3.26445,6.686575 L3.26445,6.686575 L3.26445,6.881 C3.26445,7.095025 3.438225,7.2688 3.652075,7.2688 L3.652075,7.2688 L3.67255,7.2688 L3.67255,7.602 L2.19345,7.602 C1.80845,7.602 1.493625,7.917 1.493625,8.302 L1.493625,8.302 L1.493625,8.7885 C2.19905,9.207625 3.022425,9.44895 3.902325,9.44895 L3.902325,9.44895 C4.8615,9.44895 5.753475,9.1623 6.498625,8.67125 L6.498625,8.67125 L6.498625,8.302 C6.498625,7.917 6.18345,7.602 5.798625,7.602 L5.798625,7.602 L4.31935,7.602 L4.31935,7.2688 L4.339825,7.2688 C4.554025,7.2688 4.727625,7.095025 4.727625,6.881 L4.727625,6.881 L4.727625,6.686575 C4.727625,6.660325 4.727625,6.637225 4.727275,6.6171 L4.727275,6.6171 L4.762275,6.61605 C5.66475,6.5569 6.2615,6.38575 6.653675,6.13935 L6.653675,6.13935 C7.08085,5.7855 7.356825,5.256825 7.375025,4.6662 L7.375025,4.6662 L7.5831,4.6662 C7.811475,4.6662 7.9982,4.4793 7.9982,4.2511 L7.9982,4.2511 L7.9982,3.6582 C7.9982,3.43 7.811475,3.2431 7.5831,3.2431 L7.5831,3.2431 L7.33775,3.2431 C7.246575,2.786 7.00035,2.38315 6.653675,2.095975 L6.653675,2.095975 C6.2615,1.849575 5.66475,1.678425 4.762275,1.619275 L4.762275,1.619275 L4.1741,1.6016 L4.1741,0.877975 C4.3393,0.8092 4.455675,0.646625 4.455675,0.456575 L4.455675,0.456575 C4.455675,0.2044 4.251275,0 3.9991,0 L3.9991,0 C3.74675,0 3.542525,0.2044 3.542525,0.456575" id="path-1"></path>
    </defs>
    <g id="Inspection-Kit" stroke="none" stroke-width="1" fill="none" fill-rule="evenodd">
        <rect id="矩形" fill="#000000" opacity="0" x="0" y="0" width="20" height="20"></rect>
        <path d="M7.91112296,2.66890074 C7.72693333,2.55838222 7.51616,2.5 7.30135704,2.5 L3.18518519,2.5 C2.53063111,2.5 2,3.03063111 2,3.68518519 C2,5.61111111 2,6.57407407 2,6.57407407 L18,6.64814815 C18,6.50527092 18,6.11020919 18,5.46296296 C18,4.80840889 17.4693926,4.27777778 16.8148148,4.27777778 L10.9208652,4.27777778 C10.7060622,4.27777778 10.4952889,4.21939556 10.3110993,4.10887704 L7.91112296,2.66890074 Z" id="路径备份" fill="#FFFFFF" opacity="0.55"></path>
        <path d="M7.91112296,4.16890074 C7.72693333,4.05838222 7.51616,4 7.30135704,4 L1.99985296,4 C1.99985296,4.07163379 1.99985296,4.32244722 1.99985296,4.75244031 C1.99985296,5.20093639 1.99985296,6.13530814 1.99985296,7.55555556 C1.99985296,7.88283259 2.26531556,8.14814815 2.59259259,8.14814815 L17.4074074,8.14814815 C17.734637,8.14814815 18,7.88283259 18,7.55555556 L18,6.96296296 C18,6.30840889 18,5.98317241 18,5.77777778 L10.9208652,5.77777778 C10.7060622,5.77777778 10.4952889,5.71939556 10.3110993,5.60887704 L7.91112296,4.16890074 Z" id="路径备份" fill="#FFFFFF"></path>
        <path d="M3,9 L17,9 C17.5522847,9 18,9.44771525 18,10 L18,17 C18,17.5522847 17.5522847,18 17,18 L3,18 C2.44771525,18 2,17.5522847 2,17 L2,10 C2,9.44771525 2.44771525,9 3,9 Z" id="矩形" fill="#FFFFFF" opacity="0.55"></path>
        <g id="Fill-1-Clipped" transform="translate(10.975000, 8.450035)">
            <mask id="mask-2" fill="white">
                <use xlink:href="#path-1"></use>
            </mask>
            <g id="path-1"></g>
            <path d="M3.9991,-1.59872116e-14 L4.08117404,0.00735552126 C4.29417377,0.046012037 4.455675,0.232419444 4.455675,0.456575 L4.44874694,0.53614949 C4.42142857,0.691160714 4.3157,0.819025 4.1741,0.877975 L4.1741,1.6016 L4.762275,1.619275 L5.0239469,1.64034325 C5.78205425,1.7134075 6.3007175,1.874215 6.653675,2.095975 L6.77886289,2.20896792 C7.05948359,2.48471016 7.25797187,2.8431375 7.33775,3.2431 L7.5831,3.2431 L7.66650493,3.25157656 C7.85523867,3.29047031 7.9982,3.458525 7.9982,3.6582 L7.9982,4.2511 L7.98973062,4.33445469 C7.95086797,4.52310469 7.78292812,4.6662 7.5831,4.6662 L7.375025,4.6662 L7.36193832,4.84141612 C7.300118,5.36081175 7.0381325,5.820885 6.653675,6.13935 L6.5297841,6.21097575 C6.13909275,6.41886 5.5745025,6.562815 4.762275,6.61605 L4.727275,6.6171 L4.727625,6.881 L4.71974727,6.95911187 C4.68359062,7.13575352 4.52725,7.2688 4.339825,7.2688 L4.31935,7.2688 L4.31935,7.602 L5.798625,7.602 L5.89323812,7.60842072 C6.23379045,7.65498611 6.498625,7.94908333 6.498625,8.302 L6.498625,8.67125 L6.27075487,8.81235075 C5.574408,9.2167635 4.7655825,9.44895 3.902325,9.44895 L3.61120278,9.44009918 C2.84090895,9.39312716 2.12066944,9.16105556 1.493625,8.7885 L1.493625,8.302 L1.50004227,8.20735012 C1.54658316,7.8666875 1.84053333,7.602 2.19345,7.602 L3.67255,7.602 L3.67255,7.2688 L3.652075,7.2688 L3.5740209,7.26091509 C3.39749648,7.22472734 3.26445,7.06827187 3.26445,6.881 L3.26445,6.686575 L3.26582812,6.6490375 L3.2697,6.615175 L3.03143284,6.59636351 C2.18430139,6.51754323 1.62599792,6.3315 1.262975,6.07355 L1.14016173,5.95086804 C0.827080247,5.60973086 0.631944444,5.15946667 0.6167,4.6662 L0.4151,4.6662 L0.331644824,4.65772344 C0.142827344,4.61882969 -1.77635684e-15,4.450775 -1.77635684e-15,4.2511 L-1.77635684e-15,3.6582 L0.00846220703,3.57484531 C0.04729375,3.38619531 0.21511875,3.2431 0.4151,3.2431 L0.653625,3.2431 L0.697802551,3.06474133 C0.801960714,2.71428929 0.999425,2.403125 1.262975,2.161775 L1.368309,2.09234679 C1.77319844,1.84463003 2.38643125,1.67345208 3.308025,1.616825 L3.8241,1.6016 L3.8241,0.877975 L3.75648622,0.84295051 C3.628025,0.762189286 3.542525,0.619475 3.542525,0.456575 C3.542525,0.2044 3.74675,-1.59872116e-14 3.9991,-1.59872116e-14 Z M4.888415,2.768745 L3.109715,2.768745 C2.42494,2.768745 1.86459,3.329095 1.86459,4.01387 L1.86459,4.191845 C1.86459,4.87662 2.42494,5.436795 3.109715,5.436795 L4.05839,5.436795 L4.05839,5.84752 C4.05839,5.94237 4.161115,6.001345 4.243015,5.95357 L5.42199,5.31832 C5.428115,5.314645 5.432665,5.311145 5.43634,5.30747 C5.84794,5.10377 6.13354,4.680095 6.13354,4.191845 L6.13354,4.01387 C6.13354,3.329095 5.57319,2.768745 4.888415,2.768745 Z M4.888415,3.62852 C5.117665,3.62852 5.30334,3.81437 5.30334,4.043445 C5.30334,4.272695 5.117665,4.458545 4.888415,4.458545 C4.659165,4.458545 4.47349,4.272695 4.47349,4.043445 C4.47349,3.81437 4.659165,3.62852 4.888415,3.62852 Z M3.16904,3.62852 C3.398115,3.62852 3.58414,3.81437 3.58414,4.043445 C3.58414,4.272695 3.398115,4.458545 3.16904,4.458545 C2.93979,4.458545 2.75394,4.272695 2.75394,4.043445 C2.75394,3.81437 2.93979,3.62852 3.16904,3.62852 Z" id="形状结合" fill="#FFFFFF" mask="url(#mask-2)"></path>
        </g>
    </g>
</svg>