<?xml version="1.0" encoding="UTF-8"?>
<svg width="20px" height="20px" viewBox="0 0 20 20" version="1.1" xmlns="http://www.w3.org/2000/svg" xmlns:xlink="http://www.w3.org/1999/xlink">
    <title>Kafka-second menu-pressed</title>
    <g id="Kafka-second-menu-pressed" stroke="none" stroke-width="1" fill="none" fill-rule="evenodd">
        <g id="图形" fill="#FFFFFF">
            <rect id="矩形" opacity="0" x="0" y="0" width="20" height="20"></rect>
            <path d="M5.88788029,13.0888887 L5.88959185,15.1744904 C5.73300378,15.1190562 5.56446931,15.0888889 5.38888889,15.0888889 C5.21308241,15.0888889 5.04434004,15.1191339 4.88758117,15.1747046 L4.88606534,12.9171836 C5.19934206,13.0282657 5.53655275,13.0887731 5.88788029,13.0888887 Z M8.80822871,10.7828199 L13.3536785,12.8069668 C13.1405859,13.061889 12.9898014,13.37069 12.9247378,13.7099571 L8.41790345,11.7033003 C8.59623179,11.4245248 8.72972938,11.1143088 8.80822871,10.7828199 Z M13.2640503,7.25529453 L8.81489175,9.42372978 C8.73945643,9.09048606 8.60855138,8.77828911 8.4323932,8.49735555 L12.9019488,6.31870001 C12.9416387,6.6656334 13.0700991,6.98559147 13.2640503,7.25529453 Z M5.38888889,5.08888889 C5.56446931,5.08888889 5.73300378,5.05872157 5.88959185,5.00328737 L5.8870609,7.08807314 L5.7126161,7.09398158 C5.42428661,7.11068778 5.14688135,7.16811365 4.88606534,7.26059417 L4.88758117,5.00307314 C5.04434004,5.05864384 5.21308241,5.08888889 5.38888889,5.08888889 Z" id="形状结合"></path>
            <path d="M5.38888889,5.08888889 C6.21731601,5.08888889 6.88888889,4.41731601 6.88888889,3.58888889 C6.88888889,2.76046176 6.21731601,2.08888889 5.38888889,2.08888889 C4.56046176,2.08888889 3.88888889,2.76046176 3.88888889,3.58888889 C3.88888889,4.41731601 4.56046176,5.08888889 5.38888889,5.08888889 Z M5.38888889,18.0888889 C6.21731601,18.0888889 6.88888889,17.417316 6.88888889,16.5888889 C6.88888889,15.7604618 6.21731601,15.0888889 5.38888889,15.0888889 C4.56046176,15.0888889 3.88888889,15.7604618 3.88888889,16.5888889 C3.88888889,17.417316 4.56046176,18.0888889 5.38888889,18.0888889 Z M14.8888889,16.0888889 C15.9934584,16.0888889 16.8888889,15.1934584 16.8888889,14.0888889 C16.8888889,12.9843194 15.9934584,12.0888889 14.8888889,12.0888889 C13.7843194,12.0888889 12.8888889,12.9843194 12.8888889,14.0888889 C12.8888889,15.1934584 13.7843194,16.0888889 14.8888889,16.0888889 Z M14.8888889,8.08888889 C15.9934584,8.08888889 16.8888889,7.19345839 16.8888889,6.08888889 C16.8888889,4.98431939 15.9934584,4.08888889 14.8888889,4.08888889 C13.7843194,4.08888889 12.8888889,4.98431939 12.8888889,6.08888889 C12.8888889,7.19345839 13.7843194,8.08888889 14.8888889,8.08888889 Z M5.88888889,13.0888889 C7.54574314,13.0888889 8.88888889,11.7457431 8.88888889,10.0888889 C8.88888889,8.43203464 7.54574314,7.08888889 5.88888889,7.08888889 C4.23203464,7.08888889 2.88888889,8.43203464 2.88888889,10.0888889 C2.88888889,11.7457431 4.23203464,13.0888889 5.88888889,13.0888889 Z" id="形状结合" opacity="0.550000012"></path>
        </g>
    </g>
</svg>