<?xml version="1.0" encoding="UTF-8"?>
<svg width="20px" height="20px" viewBox="0 0 20 20" version="1.1" xmlns="http://www.w3.org/2000/svg" xmlns:xlink="http://www.w3.org/1999/xlink">
    <title>my submission-second menu-normal</title>
    <g id="my-submission-second-menu-normal" stroke="none" stroke-width="1" fill="none" fill-rule="evenodd">
        <g id="数据审批备份">
            <rect id="矩形备份-49" fill-opacity="0.1" fill="#FFFFFF" opacity="0" x="0" y="0" width="20" height="20"></rect>
            <g id="数据审批" transform="translate(3.384324, 3.289701)">
                <path d="M2.4956757,0 L2.4956757,2 C2.4956757,2.27614237 2.71953333,2.5 2.9956757,2.5 L8.9956757,2.5 C9.27181807,2.5 9.4956757,2.27614237 9.4956757,2 L9.4956757,0 L11,0 C11.5522847,-1.01453063e-16 12,0.44771525 12,1 L12.0007613,7.12621352 C11.6809122,7.04382251 11.3455738,7 11,7 C8.790861,7 7,8.790861 7,11 C7,12.1952121 7.52421057,13.2679883 8.35525927,14.0009561 L1,14 C0.44771525,14 6.76353751e-17,13.5522847 0,13 L0,1 C-6.76353751e-17,0.44771525 0.44771525,1.01453063e-16 1,0 L2.4956757,0 Z M6.4956757,6.91029945 L2.4956757,6.91029945 L2.4956757,7.91029945 L6.4956757,7.91029945 L6.4956757,6.91029945 Z M9.4956757,4.71029945 L2.4956757,4.71029945 L2.4956757,5.71029945 L9.4956757,5.71029945 L9.4956757,4.71029945 Z M8.4956757,0 L8.4956757,1.5 L3.4956757,1.5 L3.4956757,0 L8.4956757,0 Z" id="形状结合" fill="#9FAECF"></path>
                <g id="yonghu" transform="translate(8.615676, 8.350299)" fill-rule="nonzero">
                    <rect id="矩形" fill="#000000" opacity="0" x="0" y="0" width="5.64705882" height="5.64705882"></rect>
                    <path d="M2.76703549,0 C3.51384735,0 4.11921439,0.632075294 4.11921439,1.41153882 C4.11921439,2.19134117 3.51384735,2.82341647 2.76703549,2.82341647 C2.02017112,2.82341647 1.41480408,2.19134118 1.41480408,1.41153882 C1.41480408,0.63184941 2.02038114,0 2.76703549,0 Z M2.26011278,3.29421177 L3.38710355,3.29421177 C4.35175304,3.29421177 5.13368984,4.11038118 5.13368984,5.11764706 L5.13368984,5.23493647 C5.13368984,5.63198118 4.35159553,5.64705882 3.38710355,5.64705882 L2.26011278,5.64705882 C1.29535829,5.64705882 0.513368984,5.64638118 0.513368984,5.23493647 L0.513368984,5.11764706 C0.513368984,4.11038118 1.29535829,3.29421177 2.26011278,3.29421177 L2.26011278,3.29421177 Z" id="形状" fill="#57689C"></path>
                </g>
            </g>
        </g>
    </g>
</svg>