<?xml version="1.0" encoding="UTF-8"?>
<svg width="20px" height="20px" viewBox="0 0 20 20" version="1.1" xmlns="http://www.w3.org/2000/svg" xmlns:xlink="http://www.w3.org/1999/xlink">
    <title>my task 3</title>
    <g id="my-task" stroke="none" stroke-width="1" fill="none" fill-rule="evenodd">
        <rect id="矩形" fill="#000000" opacity="0" x="0" y="0" width="20" height="20"></rect>
        <path d="M12.1270721,5.6298717 C12.1270721,7.6345848 10.5019629,9.2597277 8.49723856,9.2597277 C6.49252546,9.2597277 4.86738257,7.6345848 4.86738257,5.6298717 C4.86738257,3.62514738 6.49252546,2 8.49723856,2 C10.5019629,2 12.1270721,3.62514738 12.1270721,5.6298717 Z M9.81471486,10.4696834 C10.2752393,10.4696834 10.8126725,10.5497798 11.4270144,10.7099725 C9.97332201,11.5856214 9,13.1791449 9,15 C9,16.0071675 9.29778936,16.9447825 9.81012376,17.7296008 L3.65724734,17.7293842 C2.65489079,17.7293842 1.94688176,16.9248336 2.00312851,15.923969 C2.11507203,13.9321293 3.24075337,12.2265241 5.04293872,11.2757706 C6.40242347,10.7383791 7.50391719,10.4696834 8.34741988,10.4696834 L9.81471486,10.4696834 Z" id="形状结合" fill="#9FAECF"></path>
        <circle id="椭圆形" fill="#57689C" cx="14" cy="15" r="4"></circle>
        <polyline id="路径-3备份-8" stroke="#FFFFFF" stroke-width="0.96" stroke-linecap="square" stroke-linejoin="round" points="14 13 14 14.4251279 15 16"></polyline>
    </g>
</svg>