<?xml version="1.0" encoding="UTF-8"?>
<svg width="20px" height="20px" viewBox="0 0 20 20" version="1.1" xmlns="http://www.w3.org/2000/svg" xmlns:xlink="http://www.w3.org/1999/xlink">
    <title>NFS-second menu-normal</title>
    <g id="NFS-second-menu-normal" stroke="none" stroke-width="1" fill="none" fill-rule="evenodd">
        <g id="NFS">
            <rect id="矩形" fill="#FFFFFF" opacity="0" x="0" y="0" width="20" height="20"></rect>
            <g id="图形" transform="translate(2.000000, 4.000000)" fill="#9FAECF" opacity="0.55">
                <path d="M15,0 C15.5522847,-1.01453063e-16 16,0.44771525 16,1 L16,11 C16,11.5522847 15.5522847,12 15,12 L1,12 C0.44771525,12 6.76353751e-17,11.5522847 0,11 L0,1 C-6.76353751e-17,0.44771525 0.44771525,1.01453063e-16 1,0 L15,0 Z M12.6829167,3.17578125 C12.2428125,3.17578125 11.8671615,3.2421875 11.5559635,3.375 C11.2447656,3.5078125 11.0064844,3.70117188 10.8411198,3.95507812 C10.6757552,4.20898438 10.5930729,4.48177083 10.5930729,4.7734375 C10.5930729,5.2265625 10.7688542,5.61067708 11.1204167,5.92578125 C11.3704167,6.14973958 11.8053125,6.33854167 12.4251042,6.4921875 C12.906875,6.61197917 13.2154687,6.6953125 13.3508854,6.7421875 C13.5488021,6.8125 13.687474,6.89518229 13.766901,6.99023438 C13.8463281,7.08528646 13.8860417,7.20052083 13.8860417,7.3359375 C13.8860417,7.546875 13.7916406,7.73111979 13.6028385,7.88867188 C13.4140365,8.04622396 13.1334375,8.125 12.7610417,8.125 C12.4094792,8.125 12.1301823,8.03645833 11.923151,7.859375 C11.7161198,7.68229167 11.57875,7.40494792 11.5110417,7.02734375 L10.3860417,7.13671875 C10.4615625,7.77734375 10.6933333,8.26497396 11.0813542,8.59960938 C11.469375,8.93424479 12.0253646,9.1015625 12.7493229,9.1015625 C13.2467187,9.1015625 13.6620833,9.03190104 13.9954167,8.89257812 C14.32875,8.75325521 14.5865625,8.54036458 14.7688542,8.25390625 C14.9511458,7.96744792 15.0422917,7.66015625 15.0422917,7.33203125 C15.0422917,6.97005208 14.9661198,6.66601562 14.813776,6.41992188 C14.6614323,6.17382812 14.4504948,5.97981771 14.1809635,5.83789062 C13.9114323,5.69596354 13.4954167,5.55859375 12.9329167,5.42578125 C12.3704167,5.29296875 12.01625,5.16536458 11.8704167,5.04296875 C11.7558333,4.94661458 11.6985417,4.83072917 11.6985417,4.6953125 C11.6985417,4.546875 11.7597396,4.42838542 11.8821354,4.33984375 C12.0722396,4.20182292 12.3352604,4.1328125 12.6711979,4.1328125 C12.9967187,4.1328125 13.2408594,4.19726562 13.4036198,4.32617188 C13.5663802,4.45507812 13.6725,4.66666667 13.7219792,4.9609375 L14.8782292,4.91015625 C14.86,4.38411458 14.6692448,3.96354167 14.3059635,3.6484375 C13.9426823,3.33333333 13.4016667,3.17578125 12.6829167,3.17578125 Z M2.085,3.2734375 L0.96,3.2734375 L0.96,9 L2.03421875,9 L2.03421875,5.265625 L4.3428125,9 L5.50296875,9 L5.50296875,3.2734375 L4.42875,3.2734375 L4.42875,7.09765625 L2.085,3.2734375 Z M10.1925521,3.2734375 L6.26677083,3.2734375 L6.26677083,9 L7.42302083,9 L7.42302083,6.56640625 L9.81364583,6.56640625 L9.81364583,5.59765625 L7.42302083,5.59765625 L7.42302083,4.2421875 L10.1925521,4.2421875 L10.1925521,3.2734375 Z" id="形状结合"></path>
            </g>
        </g>
    </g>
</svg>