<?xml version="1.0" encoding="UTF-8"?>
<svg width="20px" height="20px" viewBox="0 0 20 20" version="1.1" xmlns="http://www.w3.org/2000/svg" xmlns:xlink="http://www.w3.org/1999/xlink">
    <title>Nginx-second menu-normal</title>
    <g id="Nginx-second-menu-normal" stroke="none" stroke-width="1" fill="none" fill-rule="evenodd">
        <g id="编组">
            <rect id="矩形备份-6" opacity="0.446149554" x="0" y="0" width="20" height="20"></rect>
            <path d="M13.4226497,2 C14.1371809,2 14.7974349,2.38119785 15.1547005,3 L16.5119651,5.35085124 C16.7881075,5.82914387 16.6242324,6.44073427 16.1459397,6.71687665 C15.6676471,6.99301902 15.0560567,6.82914387 14.7799143,6.35085124 L13.4226497,4 L6.57735027,4 L3.15470054,9.92820323 L6.57735027,15.8564065 L13.4226497,15.8564065 L16.8452995,9.92820323 C17.1214418,9.44991061 17.7330322,9.28603545 18.2113249,9.56217783 C18.6896175,9.8383202 18.8534926,10.4499106 18.5773503,10.9282032 L15.1547005,16.8564065 C14.7974349,17.4752086 14.1371809,17.8564065 13.4226497,17.8564065 L6.57735027,17.8564065 C5.86281909,17.8564065 5.20256505,17.4752086 4.84529946,16.8564065 L1.42264973,10.9282032 C1.06538414,10.3094011 1.06538414,9.54700538 1.42264973,8.92820323 L4.84529946,3 C5.20256505,2.38119785 5.86281909,2 6.57735027,2 L13.4226497,2 Z" id="路径" fill="#9FAECF" fill-rule="nonzero"></path>
            <path d="M17.7113249,9.42820323 C18.2636096,9.42820323 18.7113249,9.87591848 18.7113249,10.4282032 C18.7113249,10.980488 18.2636096,11.4282032 17.7113249,11.4282032 L9.12086102,11.4282032 C8.56857627,11.4282032 8.12086102,10.980488 8.12086102,10.4282032 C8.12086102,9.87591848 8.56857627,9.42820323 9.12086102,9.42820323 L17.7113249,9.42820323 Z" id="路径-2" fill="#57689C" fill-rule="nonzero"></path>
        </g>
    </g>
</svg>