<?xml version="1.0" encoding="UTF-8"?>
<svg width="20px" height="20px" viewBox="0 0 20 20" version="1.1" xmlns="http://www.w3.org/2000/svg" xmlns:xlink="http://www.w3.org/1999/xlink">
    <title>notification group-second menu-pressed</title>
    <g id="notification-group-second-menu-pressed" stroke="none" stroke-width="1" fill="none" fill-rule="evenodd">
        <g id="notification-group" transform="translate(10.000000, 10.000000) scale(-1, 1) translate(-10.000000, -10.000000) ">
            <rect id="矩形" x="0" y="0" width="20" height="20"></rect>
            <path d="M3.99997597,8.66666666 C3.99997597,7.05708333 5.26758014,5.74374998 6.8589343,5.67010416 C6.25780706,7.70048005 7.09679327,9.88133132 8.90372597,10.9853125 C8.36762364,11.4267969 7.6944636,11.6677216 6.99997597,11.6666701 C5.34310097,11.6666701 3.99997597,10.3235417 3.99997597,8.66666666 L3.99997597,8.66666666 Z M6.32056552,12.3383515 L5.36577385,12.3383515 C3.16955044,12.3383515 1.99997597,14.2685265 1.99997597,15.8333333 L1.99997597,16.1666667 C2.00049262,16.6266898 2.37328618,16.9994833 2.8333093,17 L4.0092468,17 C4.00310394,16.9446564 4.00000899,16.8890168 3.99997597,16.8333333 L3.99997597,16.3333333 C3.99905995,15.7983435 4.04122334,15.2606872 4.21599038,14.7529445 C4.64292772,13.5125829 5.36577385,12.9177134 6.32056552,12.3383515 Z" id="形状结合" fill="#FFFFFF" opacity="0.55"></path>
            <path d="M13.6783183,11.9999988 L8.99997721,11.9999988 C6.60674261,11.9999988 4.66664264,13.9400987 4.66664264,16.3333333 C4.66664264,16.3333333 4.66664264,16.3333333 4.66664264,16.3333333 L4.66664264,16.8333333 C4.6671593,17.2933564 5.03995286,17.66615 5.49997597,17.6666667 L17.1666426,17.6666667 C17.6266658,17.66615 17.9994593,17.2933564 17.999976,16.8333333 L17.999976,16.3333333 C17.999976,16.3333333 17.999976,16.3333333 17.999976,16.3333333 C18.0064169,13.9465477 16.0767662,12.0064542 13.6899806,12.0000133 C13.6860931,12.0000028 13.6822057,11.9999976 13.6783183,11.9999988 Z M15.3333093,7 C15.3333093,9.20916667 13.542476,11 11.3333093,11 C9.12414263,11 7.3333093,9.20916666 7.3333093,7 C7.3333093,4.79083334 9.12414264,3 11.3333093,3 C13.542476,3 15.3333093,4.79083333 15.3333093,7 Z" id="形状结合" fill="#FFFFFF"></path>
        </g>
    </g>
</svg>