<?xml version="1.0" encoding="UTF-8"?>
<svg width="20px" height="20px" viewBox="0 0 20 20" version="1.1" xmlns="http://www.w3.org/2000/svg" xmlns:xlink="http://www.w3.org/1999/xlink">
    <title>Pipeline task history 2</title>
    <g id="Pipeline-task-history" stroke="none" stroke-width="1" fill="none" fill-rule="evenodd">
        <rect id="矩形" fill="#000000" opacity="0" x="0" y="0" width="20" height="20"></rect>
        <path d="M16,2 C16.5522847,2 17,2.44771525 17,3 L17,15 C17,16.6568542 15.6568542,18 14,18 L4,18 C3.44771525,18 3,17.5522847 3,17 L3,3 C3,2.44771525 3.44771525,2 4,2 L16,2 Z M6.59230769,5 C5.71290044,5 5,5.72517259 5,6.61971831 C5,7.51426403 5.71290044,8.23943662 6.59230769,8.23943662 C7.25524547,8.23943662 7.82356008,7.82733262 8.0631772,7.24122841 L13.2801777,7.24014085 L13.2801777,9.52014085 L5.28076923,9.52042254 L5.28076923,14.0007042 L12.1406284,14.0007042 L12.1406284,12.9007042 L6.38162839,12.9004225 L6.38162839,10.6204225 L14.3807692,10.6204225 L14.3807692,6.14014085 L8.11352535,6.13969199 C7.91241911,5.47951557 7.30741417,5 6.59230769,5 Z" id="形状结合" fill="#FFFFFF" opacity="0.55"></path>
        <g id="编组-8" transform="translate(5.000000, 5.000000)"></g>
        <path d="M14,10 C16.209139,10 18,11.790861 18,14 C18,16.209139 16.209139,18 14,18 C11.790861,18 10,16.209139 10,14 C10,11.790861 11.790861,10 14,10 Z M14.48,11.52 L13.52,11.52 L13.52,13.4251279 C13.52,13.5162545 13.5459399,13.6054983 13.5947873,13.6824268 L14.5947873,15.2572988 L14.8520861,15.6625115 L15.6625115,15.1479139 L15.4052127,14.7427012 L14.48,13.285 L14.48,11.52 Z" id="形状结合" fill="#FFFFFF"></path>
    </g>
</svg>