<?xml version="1.0" encoding="UTF-8"?>
<svg width="20px" height="20px" viewBox="0 0 20 20" version="1.1" xmlns="http://www.w3.org/2000/svg" xmlns:xlink="http://www.w3.org/1999/xlink">
    <title>Pipeline template 2</title>
    <g id="Pipeline-template" stroke="none" stroke-width="1" fill="none" fill-rule="evenodd">
        <rect id="矩形" fill="#000000" opacity="0" x="0" y="0" width="20" height="20"></rect>
        <path d="M10.685,2.9992915 L16,8.3132915 L16,16 C16,16.5522847 15.5522847,17 15,17 L5,17 C4.44771525,17 4,16.5522847 4,16 L4,4 C4,3.44771525 4.44771525,3 5,3 L10.685,2.9992915 Z M7.46031746,6 C6.6538064,6 6,6.67157288 6,7.5 C6,8.32842712 6.6538064,9 7.46031746,9 C8.07212726,9 8.59606224,8.61353929 8.81337431,8.06531016 L13.0238095,8.06521739 L13.0238095,10.1952174 L6.26190476,10.1956522 L6.26190476,14.326087 L11.4409537,14.3270865 C11.6584839,14.8748349 12.1821784,15.2608696 12.7936508,15.2608696 C13.6001619,15.2608696 14.2539683,14.5892967 14.2539683,13.7608696 C14.2539683,12.9324424 13.6001619,12.2608696 12.7936508,12.2608696 C12.1341732,12.2608696 11.576797,12.7098967 11.3954872,13.3265413 L7.2622381,13.3256522 L7.2622381,11.1956522 L14.0238095,11.1956522 L14.0238095,7.06521739 L8.85848105,7.06567176 C8.67717127,6.44902715 8.11979507,6 7.46031746,6 Z" id="形状结合" fill="#FFFFFF" opacity="0.55"></path>
        <path d="M15,3 C15.5522847,3 16,3.44771525 16,4 L16,8.3132915 L10.686,2.9992915 L15,3 Z" id="形状结合" fill="#FFFFFF" transform="translate(13.343000, 5.656292) rotate(-180.000000) translate(-13.343000, -5.656292) "></path>
        <g id="编组-8" transform="translate(6.000000, 6.000000)"></g>
    </g>
</svg>