<?xml version="1.0" encoding="UTF-8"?>
<svg width="20px" height="20px" viewBox="0 0 20 20" version="1.1" xmlns="http://www.w3.org/2000/svg" xmlns:xlink="http://www.w3.org/1999/xlink">
    <title>PostgreSQL-second menu-pressed</title>
    <g id="PostgreSQL-second-menu-pressed" stroke="none" stroke-width="1" fill="none" fill-rule="evenodd">
        <g id="PostgreSQL-second-menu-selected">
            <rect id="边框" fill-opacity="0" fill="#D8D8D8" x="0" y="0" width="20" height="20"></rect>
            <path d="M13.391748,2 C12.7700749,2.00462434 12.152015,2.09503382 11.5550647,2.26866909 L11.5130644,2.28200254 C11.1365385,2.21546033 10.7553563,2.17867959 10.3730541,2.17200155 C9.58771368,2.1586681 8.91304093,2.34933648 8.36903602,2.66667268 C7.83303119,2.480671 6.72102117,2.16000144 5.54901061,2.22400202 C4.73300326,2.26866909 3.84232856,2.51667133 3.18232261,3.21334426 C2.52431668,3.91001721 2.17631354,4.98802693 2.24964755,6.45470682 C2.26964773,6.85937714 2.38498209,7.51938308 2.57631715,8.37405744 C2.7676522,9.2287318 3.03632129,10.2294075 3.37165766,11.1420824 C3.70699401,12.0554239 4.07433066,12.8754313 4.64833582,13.4327697 C4.93500508,13.7121056 5.32967529,13.9467743 5.79501283,13.9274408 C6.12168244,13.9141074 6.41701843,13.7707727 6.6716874,13.5594375 C6.79568852,13.7227723 6.92835638,13.7941063 7.04902413,13.8601069 C7.2010255,13.943441 7.34902683,14.0001081 7.50236154,14.0374418 C7.77769735,14.1061091 8.24903494,14.1981099 8.80103992,14.1041091 C8.98904161,14.0727755 9.1870434,14.0114416 9.3843785,13.9241075 C9.3917119,14.1441094 9.40037865,14.3594447 9.4090454,14.5774467 C9.43637897,15.2681196 9.45371247,15.9061253 9.66104767,16.4654637 C9.6943813,16.5567978 9.78571546,17.0274688 10.1457187,17.4428058 C10.505722,17.8588096 11.2110616,18.1181453 12.0144022,17.9461437 C12.581074,17.8248093 13.3017471,17.6061406 13.7804181,16.9248012 C14.2537557,16.2514618 14.467091,15.2854531 14.5090914,13.7187723 C14.5186215,13.6436891 14.5308518,13.5689734 14.5457584,13.4947703 L14.658426,13.5047704 L14.6717595,13.5047704 C15.2764316,13.5321039 15.9324375,13.4461032 16.4804425,13.1914342 C16.9657802,12.9667655 17.3331168,12.7394301 17.6004525,12.3360931 C17.6671198,12.2360922 17.7404538,12.1154245 17.760454,11.9074226 C17.7804542,11.6994207 17.6611198,11.3740845 17.463118,11.2240831 C17.0664477,10.9227471 16.8171122,11.0374148 16.5497764,11.0927486 C16.2864285,11.1509697 16.018064,11.1835664 15.7484359,11.1900828 C16.5191095,9.89207112 17.0717811,8.51339203 17.3871173,7.29338103 C17.5737856,6.57337454 17.6784532,5.90936856 17.68712,5.32869667 C17.6957867,4.74802477 17.648453,4.23402013 17.3004498,3.78934945 C16.2131067,2.4000036 14.6844263,2.01600014 13.501749,2.0026667 C13.4650819,2.00200002 13.428415,2.00133336 13.391748,2.00200002 L13.391748,2 Z M13.3604143,2.42667052 C14.4790911,2.41600375 15.9084373,2.73000658 16.9344465,4.04135172 C17.1651153,4.33602105 17.2337826,4.76669159 17.2257825,5.29736304 C17.2171158,5.82736782 17.1191149,6.46204021 16.9397799,7.15737981 C16.5917768,8.50405862 15.9344375,10.0740728 15.0084292,11.4827521 C15.0411336,11.5059875 15.0764953,11.525235 15.1137635,11.540086 C15.3070986,11.6200867 15.7477692,11.688754 16.6271104,11.5080857 C16.8484458,11.4614186 17.0104472,11.430085 17.1784487,11.5580861 C17.2612117,11.6282374 17.3063597,11.7330893 17.3004498,11.841422 C17.2914786,11.9223426 17.2616115,11.9995377 17.2137824,12.065424 C17.0437809,12.3207597 16.7084445,12.5627618 16.2784406,12.762097 C15.8977705,12.9394319 15.3517656,13.0320994 14.8677613,13.0374328 C14.6250924,13.0400995 14.4010904,13.0214327 14.2110887,12.9620988 L14.1990886,12.9574321 C14.1257546,13.6641051 13.9570864,15.059451 13.8470854,15.6961234 C13.7590846,16.2094614 13.6050832,16.6174651 13.3110806,16.9228012 C13.0177446,17.2281372 12.6024075,17.4121389 12.0437358,17.53214 C11.3517296,17.680808 10.8470584,17.5208065 10.5217221,17.2468041 C10.1970525,16.9734683 10.0483845,16.6107983 9.95905035,16.3887963 C9.89771647,16.2354616 9.86571618,16.0367932 9.83504924,15.7714574 C9.80438229,15.5061217 9.78171543,15.1814521 9.76638194,14.8154488 C9.74595968,14.2550251 9.73929095,13.6941846 9.74638176,13.1334337 C9.4573113,13.398194 9.09810258,13.5740952 8.71170578,13.6401049 C8.25236832,13.7181056 7.84236462,13.6414382 7.59769574,13.5801044 C7.47708459,13.549812 7.36065478,13.5048074 7.25102595,13.4461032 C7.1376916,13.3854359 7.02969063,13.3167687 6.95768998,13.1814341 C6.91538277,13.1039251 6.90191877,13.0139289 6.91968963,12.9274318 C6.94222182,12.8397491 6.99336763,12.762092 7.06502427,12.7067632 C7.19702546,12.5994289 7.37169371,12.5394283 7.63502941,12.4847612 C8.11436706,12.3860936 8.28170191,12.3187597 8.38370283,12.2380923 C8.47037028,12.1687583 8.56837116,12.0287571 8.74170605,11.8234219 C8.74087797,11.8143232 8.7402112,11.8052106 8.73970604,11.7960883 C8.42949256,11.7873596 8.12571093,11.7055898 7.85303137,11.5574195 C7.75303047,11.6627537 7.2423592,12.2027586 6.61968693,12.9520987 C6.35768457,13.2654349 6.06834863,13.4454365 5.76301254,13.4581033 C5.45767646,13.4714367 5.18167397,13.3174353 4.94700518,13.0900999 C4.47833429,12.6347625 4.10433092,11.8514221 3.77832798,10.9660808 C3.45299172,10.0807395 3.18832266,9.09473061 3.00032097,8.25472304 C2.8116526,7.41471547 2.70031826,6.73737604 2.68431812,6.41070642 C2.61431749,5.02269391 2.93898709,4.08735216 3.49565878,3.49734682 C4.05299713,2.90734151 4.81700401,2.68400616 5.5616774,2.64133911 C6.89835611,2.56467175 8.16770088,3.03067594 8.42436985,3.13067686 C8.91904098,2.79467383 9.55638005,2.58533862 10.3523872,2.59867207 C10.730284,2.60397235 11.106316,2.65273795 11.473064,2.74400671 L11.4863974,2.73800665 C11.6478204,2.68126385 11.8123032,2.63363285 11.9790686,2.59533869 C12.4318739,2.48970754 12.8948183,2.43359985 13.3597477,2.42800386 L13.3604143,2.42667052 Z M13.4617486,2.8733412 L13.3644144,2.8733412 C12.982464,2.87866787 12.601963,2.92154122 12.2284041,3.00134235 C13.0590783,3.36934567 13.6864173,3.93601745 14.1284213,4.50135587 C14.4354589,4.8927881 14.689229,5.32321089 14.8830947,5.78136741 C14.9564287,5.95736899 15.0057625,6.106037 15.0337628,6.22137137 C15.0477629,6.27937189 15.0570963,6.328039 15.0604297,6.37870613 C15.0630717,6.41092863 15.0603685,6.44336624 15.0524296,6.474707 C15.0524296,6.47670702 15.0490962,6.48137373 15.0484295,6.48337373 C15.0684297,7.067379 14.9237618,7.46338256 14.9064283,8.02072093 C14.8930948,8.42472457 14.9964291,8.89939552 15.0217627,9.41740017 C15.0457629,9.90407123 14.9870957,10.4387427 14.6710928,10.9634141 C14.6977597,10.9954144 14.7217599,11.0274147 14.7470935,11.059415 C15.583101,9.74273643 16.1857731,8.28605665 16.5071094,7.04404546 C16.6791109,6.37537276 16.7704451,5.7693673 16.7784451,5.28936297 C16.7851119,4.80935865 16.6957777,4.46135551 16.5817767,4.31602087 C15.687102,3.17201056 14.4764244,2.88067461 13.4617486,2.87267454 L13.4617486,2.8733412 Z M10.2683865,3.04400941 C9.48037937,3.04600943 8.91504094,3.28401157 8.48637041,3.64068146 C8.04436643,4.00935145 7.74769708,4.51402266 7.55302867,5.03069398 C7.32169326,5.64403284 7.2423592,6.23737153 7.21102559,6.64004182 L7.21969234,6.63470844 C7.45769448,6.50137391 7.77036397,6.36803937 8.10503364,6.29070534 C8.43970333,6.21403798 8.80037324,6.19003776 9.12704285,6.31670557 C9.45371247,6.44337339 9.7237149,6.74137607 9.82171579,7.19338013 C10.2910533,9.36473303 9.67571447,10.1720736 9.44904576,10.7814125 C9.36305453,11.0022706 9.28938506,11.2277304 9.2283771,11.4567519 C9.25704403,11.4500852 9.28571094,11.4420851 9.31437787,11.4394184 C9.47437931,11.4260849 9.59971377,11.4794188 9.67438112,11.511419 C9.90238317,11.6060866 10.0590513,11.804755 10.1437187,12.0314237 C10.1657189,12.0907576 10.181719,12.1547582 10.1910524,12.2207588 C10.2009053,12.2478599 10.2054326,12.2766086 10.2043859,12.3054262 C10.1791096,13.1359596 10.1820001,13.9671112 10.2130526,14.7974487 C10.2283861,15.1561186 10.251053,15.4721214 10.2797199,15.721457 C10.3083868,15.9701259 10.3490539,16.1594609 10.3750541,16.2234615 C10.4603882,16.4367968 10.585056,16.7161326 10.8103914,16.9061343 C11.0357267,17.0954694 11.359063,17.2221372 11.949735,17.0954694 C12.4617396,16.9854684 12.7777424,16.8328003 12.9890777,16.613465 C13.1997462,16.3941297 13.3257474,16.0887936 13.4064147,15.6214561 C13.5270825,14.9214498 13.7697514,12.8914315 13.799085,12.509428 C13.7857515,12.2214254 13.8284186,12.0000901 13.9204194,11.8314219 C14.0150869,11.658087 14.1617549,11.5520861 14.2884227,11.4947522 C14.3517566,11.4660853 14.4110905,11.4467518 14.4597576,11.4327517 C14.4082339,11.3587096 14.354202,11.2864448 14.2977561,11.2160831 C14.1151317,10.9945944 13.9655755,10.7478043 13.8537521,10.4834098 C13.8001963,10.3742209 13.7430536,10.2668282 13.6824172,10.1614069 C13.5937498,10.0014054 13.4817488,9.80140364 13.3644144,9.57673495 C13.1297456,9.1267309 12.87441,8.58139266 12.7417421,8.05005452 C12.6097409,7.51938307 12.5904074,6.97004479 12.9290771,6.58270797 C13.2290798,6.23870487 13.7557512,6.09603691 14.546425,6.17603763 C14.5230915,6.106037 14.5090914,6.04803648 14.4697577,5.95470231 C14.2910035,5.53395631 14.0576655,5.13855932 13.7757514,4.77869171 C13.1057454,3.92201732 12.0210689,3.07267634 10.3450538,3.04534275 L10.2683865,3.04534275 L10.2683865,3.04400941 Z M5.84034656,3.07867639 C5.75567913,3.07867639 5.67101171,3.08134309 5.58701095,3.08600979 C4.91367156,3.12467681 4.27699915,3.3200119 3.82166171,3.80268292 C3.3656576,4.28535394 3.0656549,5.0766944 3.13098882,6.38670621 C3.1436556,6.63470844 3.25165658,7.32938137 3.43699158,8.15472214 C3.62165991,8.9800629 3.88366227,9.951405 4.19833177,10.8094127 C4.51366793,11.6674205 4.89567138,12.4140939 5.25834132,12.7674304 C5.44100964,12.9440986 5.59967772,13.0154326 5.74367904,13.0094325 C5.88834701,13.0027658 6.06234858,12.9194317 6.27501715,12.6640961 C6.66275633,12.1963802 7.06518313,11.7410376 7.4816947,11.2987505 C6.88111208,10.7772886 6.58781838,9.9856218 6.70368769,9.19873155 C6.77235498,8.70606044 6.78168839,8.24538963 6.77368832,7.88138633 C6.76568825,7.52671646 6.74035469,7.29071434 6.74035467,7.14337968 C6.74023527,7.13915827 6.74023527,7.13493432 6.74035467,7.13071291 L6.74035467,7.12737954 L6.73968801,7.1233795 L6.73968801,7.12271284 C6.73929128,6.35523515 6.8728521,5.59357747 7.13435822,4.87202588 C7.32102658,4.37602141 7.59902908,3.87201687 8.01569951,3.46401319 C7.60636249,3.32934531 6.87968927,3.12401013 6.09301551,3.08534311 C6.00863907,3.08100986 5.92416747,3.07878693 5.8396799,3.07867639 L5.84034656,3.07867639 Z M14.1057544,6.60004146 C13.6530836,6.60604151 13.3990814,6.72270923 13.2657468,6.87537727 C13.0770785,7.09204589 13.0590783,7.47204931 13.1764127,7.94005353 C13.2930804,8.40872443 13.5344159,8.93272915 13.7610846,9.3680664 C13.874419,9.58606837 13.98442,9.78207013 14.0730874,9.9414049 C14.1624216,10.1014063 14.2277555,10.2147407 14.2677559,10.3114082 C14.3044229,10.4007424 14.3450899,10.4794097 14.3864236,10.5527438 C14.5617585,10.1827404 14.5930921,9.81940381 14.575092,9.44073373 C14.5517584,8.97206283 14.4430908,8.49272518 14.4590909,8.00738747 C14.4770911,7.44004903 14.5890921,7.07071235 14.5990922,6.63204174 C14.4354984,6.61084986 14.270715,6.60016121 14.1057544,6.60004146 L14.1057544,6.60004146 Z M8.61637158,6.67670882 C8.47808362,6.67799891 8.34036019,6.69454361 8.20570122,6.72604259 C7.93732202,6.79124753 7.67882423,6.89191146 7.43702762,7.02537862 C7.35523851,7.06925039 7.27739278,7.12010663 7.20435886,7.17737999 L7.18969207,7.19071345 C7.1936921,7.28804766 7.21302561,7.52404978 7.22102568,7.87138624 C7.22902575,8.25138967 7.21969234,8.73606071 7.14635833,9.26073211 C6.98702357,10.4007424 7.81436435,11.3447509 8.78637311,11.3460842 C8.8430403,11.1120821 8.93637446,10.8747467 9.02970865,10.6247444 C9.30037776,9.8954045 9.83304922,9.3633997 9.3843785,7.28738098 C9.31104451,6.94737791 9.16570986,6.81004335 8.96570807,6.73270932 C8.85360959,6.69306142 8.73524611,6.67408712 8.61637158,6.67670882 L8.61637158,6.67670882 Z M13.8944191,6.81271004 L13.9277528,6.81271004 C13.9681522,6.81344402 14.008367,6.81835916 14.0477539,6.82737683 C14.0837542,6.8353769 14.1144211,6.84737701 14.1397547,6.86404384 C14.1660403,6.88031971 14.1842063,6.90696328 14.1897552,6.93737782 L14.1890885,6.94271122 L14.1897552,6.94271122 L14.1890885,6.94271122 C14.1903908,6.97435978 14.18227,7.00568278 14.1657549,7.03271203 C14.1460936,7.06930261 14.1214097,7.1029625 14.0924209,7.13271293 C14.0247906,7.2071869 13.9342179,7.25693153 13.8350853,7.27404753 C13.7386194,7.28570586 13.6412522,7.26124532 13.5617495,7.20538024 C13.5292065,7.18348891 13.5000131,7.15699025 13.475082,7.12671287 C13.4535094,7.1029258 13.4389687,7.07361359 13.4330817,7.04204544 C13.4302656,7.01095855 13.4403955,6.98008649 13.4610819,6.95671134 C13.4829572,6.93185505 13.5094468,6.91147846 13.5390826,6.8967108 C13.6030832,6.86071048 13.6897506,6.83404356 13.7877515,6.81937676 C13.8244185,6.81404338 13.8604189,6.81137669 13.8944191,6.81071003 L13.8944191,6.81271004 Z M8.68103884,6.92471105 C8.71637248,6.92471105 8.75370616,6.92804441 8.7917065,6.93337779 C8.89370742,6.94737791 8.98437491,6.97471149 9.05370887,7.01471186 C9.08752392,7.03236213 9.11762696,7.05635402 9.14237632,7.08537916 C9.16962054,7.116504 9.18266573,7.15757222 9.17837665,7.19871352 C9.17196793,7.23704451 9.15460249,7.27270153 9.1283762,7.3013811 C9.10110163,7.3348663 9.06896738,7.36407926 9.03304201,7.38804856 C8.9463391,7.44947362 8.83983645,7.47633701 8.73437264,7.46338256 C8.62659351,7.44566627 8.52794127,7.3921122 8.45437012,7.31138119 C8.42306981,7.27887281 8.39657921,7.24205536 8.37570276,7.20204688 C8.35372866,7.16684484 8.3441109,7.12532429 8.34836917,7.08404582 C8.35836926,7.01204517 8.41770312,6.9747115 8.47570366,6.95404465 C8.54177085,6.93293401 8.61110136,6.92390072 8.68037216,6.92737773 L8.68103884,6.92471105 Z M14.7210933,11.8200885 L14.7190933,11.8207552 C14.6210924,11.8560888 14.540425,11.8707556 14.4724244,11.9007559 C14.4036552,11.9272302 14.3469705,11.9779856 14.3130896,12.0434238 C14.2710892,12.1200912 14.2350889,12.2560924 14.2457557,12.4874278 C14.2759171,12.5081955 14.3092355,12.5239542 14.3444232,12.5340949 C14.4584242,12.5687619 14.6497593,12.5914288 14.8630945,12.5880954 C15.2884317,12.5834287 15.8117698,12.4840945 16.0897723,12.35476 C16.3178311,12.2488101 16.5295384,12.1107402 16.7184446,11.9447563 L16.7177779,11.9447563 C15.7891029,12.136758 15.2644315,12.0854242 14.9424286,11.9527564 C14.8624693,11.919488 14.7878808,11.8745552 14.7210933,11.8194218 L14.7210933,11.8200885 Z M9.36704502,11.8827557 L9.35304489,11.8827557 C9.31771125,11.8860891 9.26637744,11.8980892 9.16704322,12.0080902 C8.93504112,12.2680925 8.85370706,12.4314273 8.662372,12.5840954 C8.47103694,12.7360968 8.22236803,12.8174308 7.7256969,12.9194317 C7.61961571,12.9383544 7.51635187,12.9706104 7.41836078,13.0154326 C7.43769429,13.0314327 7.43569427,13.0354328 7.46502788,13.0507663 C7.5376952,13.0907666 7.63102937,13.1261003 7.70636338,13.1454338 C7.91969863,13.1987676 8.27036846,13.2607681 8.63637176,13.1987676 C9.00237506,13.1361004 9.38304516,12.9607655 9.70771476,12.505428 C9.76371526,12.4267606 9.76971532,12.3107596 9.7237149,12.1860918 C9.67704781,12.061424 9.57504689,11.9540897 9.50304624,11.9240894 C9.46020251,11.9034148 9.41425977,11.8899022 9.36704502,11.8840891 L9.36704502,11.8827557 Z" id="形状" fill="#FFFFFF" fill-rule="nonzero" opacity="0.550000012"></path>
        </g>
    </g>
</svg>