<?xml version="1.0" encoding="UTF-8"?>
<svg width="20px" height="20px" viewBox="0 0 20 20" version="1.1" xmlns="http://www.w3.org/2000/svg" xmlns:xlink="http://www.w3.org/1999/xlink">
    <title>process management 2</title>
    <g id="process-management" stroke="none" stroke-width="1" fill="none" fill-rule="evenodd">
        <rect id="矩形" fill="#000000" opacity="0" x="0" y="0" width="20" height="20"></rect>
        <path d="M10.725,2 L16.866,8.073 L16.8666667,16.9 C16.8666667,17.5075132 16.3741799,18 15.7666667,18 L4.1,18 C3.49248678,18 3,17.5075132 3,16.9 L3,3.10080967 C3,2.49329645 3.49248678,2.00080967 4.1,2.00080967 L10.725,2 Z M13.0238095,7.06521739 L13.0238095,9.19521739 L6.26190476,9.19565217 L6.26190476,13.326087 L11.3766575,13.3271744 C11.5016089,13.7481138 11.8826548,14.0543478 12.3333333,14.0543478 C12.8856181,14.0543478 13.3333333,13.5944664 13.3333333,13.0271739 C13.3333333,12.4598814 12.8856181,12 12.3333333,12 C12.0447521,12 11.7847215,12.1255613 11.6021961,12.3263991 L7.2622381,12.3256522 L7.2622381,10.1956522 L14.0238095,10.1956522 L14.0238095,6.06521739 L7.84579776,6.06575818 C7.68482504,5.73057599 7.34878586,5.5 6.96031747,5.5 C6.41533807,5.5 5.97354497,5.95379834 5.97354497,6.51358697 C5.97354497,7.0733756 6.41533807,7.52717394 6.96031747,7.52717394 C7.30681144,7.52717394 7.61159416,7.34373392 7.78764094,7.06624336 L13.0238095,7.06521739 Z" id="形状结合" fill="#FFFFFF" opacity="0.55"></path>
        <path d="M15.7666667,2.00122524 C16.3741799,2.00122524 16.8666667,2.49371201 16.8666667,3.10122524 L16.8660444,8.07341556 L10.7250444,2.00041556 L15.7666667,2.00122524 Z" id="形状结合" fill="#FFFFFF" transform="translate(13.796356, 5.036626) rotate(-180.000000) translate(-13.796356, -5.036626) "></path>
        <path d="M18,13 L18,18 C18,18.5522847 17.5522847,19 17,19 L3,19 C2.44771525,19 2,18.5522847 2,18 L2,13 L6.5,13 L6.5,15 L13.5,15 L13.5,13 L18,13 Z" id="形状结合" fill="#FFFFFF"></path>
    </g>
</svg>