<?xml version="1.0" encoding="UTF-8"?>
<svg width="20px" height="20px" viewBox="0 0 20 20" version="1.1" xmlns="http://www.w3.org/2000/svg" xmlns:xlink="http://www.w3.org/1999/xlink">
    <title>Redis-second menu-normal</title>
    <g id="Redis-second-menu-normal" stroke="none" stroke-width="1" fill="none" fill-rule="evenodd">
        <g id="Redis">
            <rect id="矩形备份-4" opacity="0.446149554" x="0" y="0" width="20" height="20"></rect>
            <g id="编组-3" transform="translate(2.000000, 2.000000)">
                <path d="M8.8497789,0.144105945 L15.6480101,2.92732616 C15.8491472,3.00967242 15.9640827,3.11394584 15.9928165,3.22135172 L16,3.27522869 L16,5.27522869 C16,5.40114464 15.88267,5.52706059 15.6480101,5.62313122 L8.8497789,8.40635143 C8.38045897,8.59849269 7.61954103,8.59849269 7.1502211,8.40635143 L0.351989943,5.62313122 C0.117329981,5.52706059 7.63278329e-17,5.40114464 2.08166817e-17,5.27522869 L0,3.27522869 L0.00718346823,3.22135172 C0.0359173412,3.11394584 0.150852833,3.00967242 0.351989943,2.92732616 L7.1502211,0.144105945 C7.61954103,-0.048035315 8.38045897,-0.048035315 8.8497789,0.144105945 Z M9.3369863,4.12951253 C6.84409508,4.38361845 5.59383138,4.52022804 5.5861952,4.53934131 C5.57855903,4.55845458 6.53658528,4.94690328 8.46027397,5.70468742 Z M11.660274,2.2137593 C10.9518882,2.49918084 10.2943539,2.76880537 9.68767123,3.02263289 C9.58245141,3.06665538 9.58002252,3.10741965 9.68767123,3.15034977 C10.3733302,3.42378937 11.1185357,3.70760467 11.9232877,4.00179565 C12.6457946,3.74389445 13.3033288,3.47426992 13.8958904,3.19292206 C13.9933494,3.14664861 13.99762,3.10976104 13.8958904,3.06520518 C13.2185047,2.7685215 12.4732992,2.4847062 11.660274,2.2137593 Z M4.03904065,2.51767851 C3.54878279,2.50138364 3.08021069,2.57034796 2.73814988,2.68205453 C2.39608907,2.79376111 2.25266526,3.02191118 2.28284441,3.19292206 C2.31302357,3.36393294 2.45044011,3.57637941 2.84931507,3.70378959 C3.24819002,3.83119977 3.73538596,3.90073447 4.17761196,3.90073447 C4.61983797,3.90073447 5.00853767,3.87407877 5.43561644,3.74636189 C5.8626952,3.618645 5.94358926,3.4870781 5.91017762,3.26050967 C5.87676597,3.03394124 5.67083202,2.80977141 5.23247586,2.68205453 C4.79411969,2.55433765 4.52929851,2.53397338 4.03904065,2.51767851 Z M6.57534247,0.808873589 C6.54611872,0.798890306 6.52800552,0.798890306 6.52100288,0.808873589 C6.5104989,0.823848513 6.51009563,0.852429862 6.53150685,0.894018177 C6.545781,0.921743721 6.66267597,1.12041443 6.88219178,1.4900303 C6.37167068,1.57013215 5.86685688,1.65158885 5.36775038,1.73440042 C5.20844541,1.76083225 5.25356464,1.81088927 5.34794521,1.83060865 C5.3979099,1.84104801 5.96777292,1.86942954 7.05753425,1.91575324 C7.16271416,2.17681365 7.27960914,2.43224742 7.40821918,2.68205453 C7.41256439,2.69049451 7.44195036,2.68968705 7.45205479,2.68205453 C7.7083322,2.48847217 7.95673403,2.28980146 8.19726027,2.08604241 L9.90684932,2.171187 C9.90684932,2.171187 9.99213325,2.17623053 9.99213325,2.13365823 C9.99213325,2.09108594 9.95068493,2.08604241 9.95068493,2.08604241 L8.72328767,1.61774718 C8.95671094,1.43454566 9.17588902,1.25006572 9.38082192,1.06430735 C9.4021897,1.04493885 9.39179823,1.03139186 9.38082192,1.02173506 C9.37350438,1.01529719 9.3588925,1.01529719 9.3369863,1.02173506 L7.84657534,1.27716882 Z" id="形状" fill="#57689C" fill-rule="nonzero"></path>
                <path d="M16,8.8 C16,8.92591595 15.88267,9.0518319 15.6480101,9.14790253 L8.8497789,11.9311227 C8.38045897,12.123264 7.61954103,12.123264 7.1502211,11.9311227 L0.351989943,9.14790253 C0.117329981,9.0518319 7.63278329e-17,8.92591595 2.08166817e-17,8.8 L0,6.8 L0.00718346823,6.85387697 C0.0359173412,6.96128285 0.150852833,7.06555627 0.351989943,7.14790253 L7.1502211,9.93112274 C7.61954103,10.123264 8.38045897,10.123264 8.8497789,9.93112274 L15.6480101,7.14790253 C15.88267,7.0518319 16,6.92591595 16,6.8 L16,8.8 Z" id="形状结合" fill="#9FAECF"></path>
                <path d="M16,12.2752287 C16,12.4011446 15.88267,12.5270606 15.6480101,12.6231312 L8.8497789,15.4063514 C8.38045897,15.5984927 7.61954103,15.5984927 7.1502211,15.4063514 L0.351989943,12.6231312 C0.117329981,12.5270606 7.63278329e-17,12.4011446 2.08166817e-17,12.2752287 L0,10.2752287 L0.00718346823,10.3291057 C0.0359173412,10.4365115 0.150852833,10.540785 0.351989943,10.6231312 L7.1502211,13.4063514 C7.61954103,13.5984927 8.38045897,13.5984927 8.8497789,13.4063514 L15.6480101,10.6231312 C15.88267,10.5270606 16,10.4011446 16,10.2752287 L16,12.2752287 Z" id="形状结合备份" fill="#9FAECF"></path>
            </g>
        </g>
    </g>
</svg>