<?xml version="1.0" encoding="UTF-8"?>
<svg width="20px" height="20px" viewBox="0 0 20 20" version="1.1" xmlns="http://www.w3.org/2000/svg" xmlns:xlink="http://www.w3.org/1999/xlink">
    <title>service-secong menu-pressed</title>
    <g id="service-secong-menu-pressed" stroke="none" stroke-width="1" fill="none" fill-rule="evenodd">
        <g id="服务" transform="translate(2.000000, 2.000000)" fill-rule="nonzero">
            <rect id="矩形" fill="#000000" opacity="0" x="0" y="0" width="16" height="16"></rect>
            <path d="M7.4870239,7.4904563 L4.29029201,7.4904563 C3.44860378,7.4904563 2.71128489,7.21606594 2.08506885,6.65550158 C1.57837253,6.20940682 1.22654685,5.61180818 1.08177648,4.9519246 C0.819169749,3.78702809 1.21812997,2.57331367 2.12041975,1.79222699 C2.60186542,1.376433 3.15737965,1.11887641 3.78696245,1.03639096 C4.80708858,0.90340422 5.6992781,1.18789484 6.450064,1.89322958 C6.9937946,2.40497602 7.32036963,3.03792557 7.44325612,3.77187771 C7.47187352,3.93853198 7.48534053,4.10686962 7.4870239,4.27520727 C7.49039066,5.32900093 7.48870728,6.38111122 7.48870728,7.43490488 L7.4870239,7.4904563 Z M7.48703151,8.43988063 L7.48703151,11.643346 C7.48870728,12.4850343 7.21095016,13.2223531 6.64870243,13.8485692 C6.15210637,14.4007167 5.53599059,14.7559091 4.80035507,14.8754288 C3.67417622,15.0589169 2.70623476,14.7306585 1.90663094,13.9209544 C1.47231982,13.4866433 1.17941231,12.9294456 1.06662609,12.3251135 C0.871354419,11.2982539 1.10366037,10.3740802 1.78542784,9.57784311 C2.28707402,8.99202811 2.93012383,8.6418858 3.68764324,8.4987988 C3.89469854,8.46008114 4.10680397,8.441564 4.31722603,8.441564 L7.41632209,8.441564 L7.48703151,8.43988063 L7.48703151,8.43988063 Z M8.4381316,8.47691491 L11.6617975,8.47691491 C12.3149476,8.47691491 12.9209631,8.6418858 13.4697438,8.99876161 C14.1430944,9.43812287 14.5992894,10.0441384 14.8046614,10.8201749 C15.0790517,11.8520847 14.8888302,12.8048758 14.2424136,13.6566643 C13.7980022,14.2407959 13.2105039,14.6246057 12.5018024,14.8165107 C12.1516601,14.9141465 11.7863674,14.9461306 11.4244414,14.9107797 C10.1938932,14.7828431 9.30675386,14.1532603 8.74955625,13.0540155 C8.5812186,12.7240737 8.49199965,12.3688813 8.45328199,12.0002218 C8.44149836,11.8840689 8.4381316,11.7679159 8.4381316,11.6500795 C8.43644823,10.6114363 8.43644823,9.57279298 8.4381316,8.53246633 L8.4381316,8.47691491 L8.4381316,8.47691491 Z" id="形状" fill="#FFFFFF" opacity="0.550000012"></path>
            <path d="M8.4381316,7.4904563 L8.4381316,4.27184051 C8.4381316,3.55640552 8.64013678,2.90493883 9.06266427,2.32585733 C9.50707565,1.7198418 10.0912073,1.30404782 10.8201093,1.11887641 C11.9866892,0.824285526 13.0303826,1.07510862 13.917522,1.89491295 C14.4124347,2.34437447 14.7423764,2.94702324 14.8585294,3.60522344 C15.0723182,4.78527033 14.7457432,5.80202972 13.8687041,6.62688418 C13.3923085,7.07466232 12.8165938,7.33726905 12.1718606,7.43995501 C11.9866892,7.47025579 11.7998344,7.48540617 11.6112962,7.48540617 C10.5760197,7.48877293 9.54242656,7.48708955 8.50715004,7.48708955 L8.4381316,7.4904563 L8.4381316,7.4904563 Z" id="路径" fill="#FFFFFF"></path>
        </g>
    </g>
</svg>