<?xml version="1.0" encoding="UTF-8"?>
<svg width="20px" height="20px" viewBox="0 0 20 20" version="1.1" xmlns="http://www.w3.org/2000/svg" xmlns:xlink="http://www.w3.org/1999/xlink">
    <title>source analysis-second menu-pressed</title>
    <g id="source-analysis-second-menu-pressed" stroke="none" stroke-width="1" fill="none" fill-rule="evenodd">
        <g id="source-analysis">
            <g id="编组-2" transform="translate(7.488436, 4.500000)" fill="#FFFFFF">
                <circle id="椭圆形" opacity="0.55" cx="5" cy="5" r="5"></circle>
                <circle id="椭圆形" cx="5" cy="5" r="3.8"></circle>
            </g>
            <g id="编组">
                <rect id="矩形" x="0" y="0" width="20" height="20"></rect>
                <path d="M2,9 L4.857,9 L4.85714286,8 L6.48843588,9.6 L4.85714286,11.2 L4.857,10.2 L2,10.2 L2,9 Z" id="形状结合" fill="#FFFFFF" opacity="0.55"></path>
                <path d="M2,5 L4.857,5 L4.85714286,4 L6.48843588,5.6 L4.85714286,7.2 L4.857,6.2 L2,6.2 L2,5 Z" id="形状结合" fill="#FFFFFF" opacity="0.55" transform="translate(4.244218, 5.600000) rotate(-330.000000) translate(-4.244218, -5.600000) "></path>
                <path d="M2,13 L4.857,13 L4.85714286,12 L6.48843588,13.6 L4.85714286,15.2 L4.857,14.2 L2,14.2 L2,13 Z" id="形状结合备份" fill="#FFFFFF" opacity="0.55" transform="translate(4.244218, 13.600000) rotate(-30.000000) translate(-4.244218, -13.600000) "></path>
            </g>
        </g>
    </g>
</svg>