<?xml version="1.0" encoding="UTF-8"?>
<svg width="20px" height="20px" viewBox="0 0 20 20" version="1.1" xmlns="http://www.w3.org/2000/svg" xmlns:xlink="http://www.w3.org/1999/xlink">
    <title>Space Analysis-second menu-pressed</title>
    <g id="Space-Analysis-second-menu-pressed" stroke="none" stroke-width="1" fill="none" fill-rule="evenodd">
        <g id="Space-Analysis">
            <rect id="矩形" x="0" y="0" width="20" height="20"></rect>
            <rect id="矩形" fill="#FFFFFF" opacity="0.55" x="2" y="8" width="16" height="9" rx="1"></rect>
            <path d="M7.91112296,3.16890074 C7.72693333,3.05838222 7.51616,3 7.30135704,3 L3.18518519,3 C2.53063111,3 2,3.53063111 2,4.18518519 L2,6.55555556 C2,6.88283259 2.26531556,7.14814815 2.59259259,7.14814815 L17.4074074,7.14814815 C17.734637,7.14814815 18,6.88283259 18,6.55555556 L18,5.96296296 C18,5.30840889 17.4693926,4.77777778 16.8148148,4.77777778 L10.9208652,4.77777778 C10.7060622,4.77777778 10.4952889,4.71939556 10.3110993,4.60887704 L7.91112296,3.16890074 Z M10.4925937,9 C10.6579687,9 10.8059844,9.1136875 10.8240781,9.26167188 L10.8970781,9.85664063 C11.0675528,9.90823179 11.2318168,9.97846898 11.3868906,10.0660781 L11.8594844,9.69676563 C11.9769531,9.6049375 12.1620156,9.62921875 12.2789531,9.74614063 L12.6747969,10.142 C12.7917031,10.2589219 12.8159687,10.4439531 12.7241719,10.5614531 L12.3440469,11.0478594 C12.4249838,11.1999614 12.4894181,11.3602849 12.53625,11.5260938 L13.1485781,11.6012188 C13.296625,11.6193281 13.4102656,11.7673438 13.4102656,11.9327656 L13.4102656,12.4925938 C13.4102656,12.6579219 13.2965937,12.8059531 13.1485469,12.8240938 L12.5224219,12.9008906 C12.4734237,13.0617938 12.4078042,13.2171576 12.326625,13.3644688 L12.7135,13.8594531 C12.8053281,13.9769375 12.7810938,14.1619531 12.664125,14.2789375 L12.2682187,14.67475 C12.1513281,14.7916875 11.9662969,14.816 11.8487812,14.7241563 L11.3502813,14.3345625 C11.2023776,14.4146717 11.0465381,14.4791702 10.8852812,14.5270156 L10.8090781,15.1485625 C10.7908906,15.2965938 10.6429062,15.4102813 10.4775312,15.4102813 L9.9176875,15.4102813 C9.7523125,15.4102813 9.60432812,15.2965938 9.58617188,15.1485625 L9.51053125,14.5317031 C9.34500233,14.4837001 9.18505415,14.4182113 9.03339063,14.3363438 L8.55082812,14.7134688 C8.43334375,14.8053125 8.2483125,14.7810781 8.131375,14.664125 L7.73551563,14.2682188 C7.61859375,14.1513281 7.5943125,13.9662969 7.686125,13.8487969 L8.05817188,13.3727656 C7.97158735,13.217065 7.90244512,13.0522869 7.852,12.8814219 L7.2616875,12.8090313 C7.11367187,12.7908594 7,12.6428906 7,12.4775313 L7,11.9176563 C7,11.7523125 7.11367187,11.6043125 7.2616875,11.5861719 L7.84735937,11.5143438 C7.89783055,11.3391656 7.96790938,11.1702426 8.05626562,11.0107813 L7.69676563,10.5508125 C7.60495313,10.4333125 7.62923438,10.2482813 7.74615625,10.1313594 L8.142,9.7355 C8.25892187,9.61854688 8.44398437,9.59428125 8.56146875,9.68610938 L9.02498438,10.0483594 C9.18503663,9.96108056 9.35443274,9.8921543 9.52995312,9.84289063 L9.60121875,9.26167188 C9.619375,9.1136875 9.767375,9 9.93275,9 Z M10.2051563,11.5051563 C9.80865032,11.5051563 9.48721875,11.8265878 9.48721875,12.2230938 C9.48721875,12.6195997 9.80865032,12.9410313 10.2051563,12.9410313 C10.6016622,12.9410313 10.9230938,12.6195997 10.9230938,12.2230938 C10.9230938,11.8265878 10.6016622,11.5051563 10.2051563,11.5051563 Z" id="形状结合" fill="#FFFFFF"></path>
        </g>
    </g>
</svg>