<?xml version="1.0" encoding="UTF-8"?>
<svg width="20px" height="20px" viewBox="0 0 20 20" version="1.1" xmlns="http://www.w3.org/2000/svg" xmlns:xlink="http://www.w3.org/1999/xlink">
    <title>storage-second menu-pressed</title>
    <g id="storage-second-menu-pressed" stroke="none" stroke-width="1" fill="none" fill-rule="evenodd">
        <g id="存储设备">
            <rect id="矩形备份-14" opacity="0.446149554" x="0" y="0" width="20" height="20"></rect>
            <path d="M16.8117172,18 L3.13333333,18 C2.58104858,18 2.13333333,17.5522847 2.13333333,17 L2.13333333,12.6026263 C2.13333333,12.3264839 2.35719096,12.1026263 2.63333333,12.1026263 L5.19223028,12.1026263 C5.46837265,12.1026263 5.69223028,12.3264839 5.69223028,12.6026263 C5.69223028,13.1391695 5.69223028,13.6757127 5.69223028,14.2122559 C5.69223028,14.5478788 6.01149782,14.9314478 6.41362831,14.9314478 C6.41362831,14.9314478 8.78622627,14.9314478 13.5314222,14.9314478 C13.9161678,14.8835017 14.204727,14.5958249 14.2528202,14.2122559 L14.2528202,12.6026263 C14.2528202,12.3264839 14.4766779,12.1026263 14.7528202,12.1026263 L17.3117172,12.1026263 C17.5878595,12.1026263 17.8117172,12.3264839 17.8117172,12.6026263 L17.8117172,17 C17.8117172,17.5522847 17.3640019,18 16.8117172,18 Z" id="路径" fill="#FFFFFF" fill-rule="nonzero"></path>
            <path d="M16.8117172,2.17777778 L3.13333333,2.17777778 C2.58104858,2.17777778 2.13333333,2.62549303 2.13333333,3.17777778 L2.13333333,10.2121886 C2.13333333,10.4883309 2.35719096,10.7121886 2.63333333,10.7121886 L6.40053872,10.7121886 L6.40053872,10.7121886 C6.92237477,10.7121886 7.11973064,11.1602011 7.11973064,11.7190572 L7.11973064,13.0410101 C7.11973064,13.3171525 7.34358826,13.5410101 7.61973064,13.5410101 L12.3253199,13.5410101 C12.6014622,13.5410101 12.8253199,13.3171525 12.8253199,13.0410101 L12.8253199,11.7190572 L12.8253199,11.7190572 C12.8253199,11.0719994 13.064308,10.7121886 13.5445118,10.7121886 L17.3117172,10.7121886 C17.5878595,10.7121886 17.8117172,10.4883309 17.8117172,10.2121886 L17.8117172,3.17777778 C17.8117172,2.62549303 17.3640019,2.17777778 16.8117172,2.17777778 Z M5.19501684,4.28740741 L14.6061953,4.28740741 L14.6061953,5.00659933 L14.6061953,5.72579125 L5.19501684,5.72579125 L5.19501684,5.00659933 L5.19501684,4.28740741 Z M5.24296296,8.55461279 L5.24296296,7.883367 L5.24296296,7.16417508 L14.6061953,7.16417508 L14.6061953,7.883367 L14.6061953,8.55461279 L5.24296296,8.55461279 Z" id="形状" fill="#FFFFFF" fill-rule="nonzero" opacity="0.550000012"></path>
        </g>
    </g>
</svg>