<?xml version="1.0" encoding="UTF-8"?>
<svg width="20px" height="20px" viewBox="0 0 20 20" version="1.1" xmlns="http://www.w3.org/2000/svg" xmlns:xlink="http://www.w3.org/1999/xlink">
    <title>System operation and maintenance 3</title>
    <g id="System-operation-and-maintenance" stroke="none" stroke-width="1" fill="none" fill-rule="evenodd">
        <rect id="矩形" fill="#000000" opacity="0" x="0" y="0" width="20" height="20"></rect>
        <g id="编组" transform="translate(2.000000, 2.084729)">
            <path d="M12.041411,0.29962425 L15.5127755,3.97626348 C15.8768328,4.28998201 16.1581893,5 15.5127755,5 L0.487224493,5 C-0.158189279,5 0.123167187,4.28998201 0.487224493,3.97626348 L3.95858896,0.29962425 C4.08288755,0.134146346 4.30388997,0 4.4545144,0 L11.5454856,0 C11.69611,0 11.9171125,0.134146346 12.041411,0.29962425 Z" id="路径" fill="#57689C"></path>
            <path d="M14.9,3.91527067 C15.5075132,3.91527067 16,4.40775745 16,5.01527067 L16,14.4152707 C16,15.2436978 15.4883254,15.9152707 14.8571429,15.9152707 L1.14285714,15.9152707 C0.511674572,15.9152707 0,15.2436978 0,14.4152707 L0,5.01527067 C-7.43989126e-17,4.40775745 0.492486775,3.91527067 1.1,3.91527067 L14.9,3.91527067 Z M11.7333031,10.3160025 L2.45713672,10.3160025 L2.45713672,11.5160025 L11.7333031,11.5160025 L11.7333031,10.3160025 Z M9.14283464,6.31527067 L2.45713672,6.31527067 L2.45713672,7.51527067 L9.14283464,7.51527067 L9.14283464,6.31527067 Z" id="形状结合" fill="#9FAECF"></path>
        </g>
        <g id="编组-2" transform="translate(4.457137, 8.400000)"></g>
        <g id="编组-14备份" transform="translate(9.000000, 9.000000)" fill="#57689C">
            <path d="M6.11111111,0 C6.11111111,1.7512877 7.41866118,2.46287624 8.88888889,1.66666667 L10,3.51950865 C8.49017666,4.33716145 8.5770617,5.7098916 10,6.48049135 L8.88888889,8.33333333 C6.24338624,7.06396705 6.11740993,9.7241571 6.11141105,9.98038692 L6.11111111,10 L3.88888889,10 C3.88888889,8.2487123 2.58133882,7.53712376 1.11111111,8.33333333 L0,6.48049135 C1.50982334,5.66283855 1.4229383,4.2901084 0,3.51950865 L1.11111111,1.66666667 C2.64523542,2.49747978 3.88888889,1.67834619 3.88888889,0 L6.11111111,0 Z M5,3.33333333 C4.07952542,3.33333333 3.33333333,4.07952542 3.33333333,5 C3.33333333,5.92047458 4.07952542,6.66666667 5,6.66666667 C5.92047458,6.66666667 6.66666667,5.92047458 6.66666667,5 C6.66666667,4.07952542 5.92047458,3.33333333 5,3.33333333 Z" id="形状结合"></path>
        </g>
    </g>
</svg>