<?xml version="1.0" encoding="UTF-8"?>
<svg width="20px" height="20px" viewBox="0 0 20 20" version="1.1" xmlns="http://www.w3.org/2000/svg" xmlns:xlink="http://www.w3.org/1999/xlink">
    <title>task history 5</title>
    <g id="task-history" stroke="none" stroke-width="1" fill="none" fill-rule="evenodd">
        <rect id="矩形" fill="#000000" opacity="0" x="0" y="0" width="20" height="20"></rect>
        <path d="M10.725,2 L16.866,8.073 L16.8670454,11.2107224 C16.1403486,10.4638927 15.1243483,10 14,10 C11.790861,10 10,11.790861 10,14 C10,16.209139 11.790861,18 14,18 L4.10000002,18 C3.49248679,18 3,17.5075132 3,16.9 L3,3.1008097 C3,2.49329646 3.49248679,2.00080967 4.10000002,2.00080967 L10.725,2 Z M14.7666668,18 L14,18 C14.9177607,18 15.7633312,17.6909173 16.4382974,17.1711662 C16.0549148,17.6747969 15.4487684,18 14.7666668,18 Z" id="形状结合" fill="#9FAECF"></path>
        <g id="编组-2备份-2" transform="translate(6.000000, 9.000000)" stroke="#FFFFFF" stroke-linecap="square" stroke-width="1.2">
            <polyline id="路径-2" points="1.80953117 0 -4.35067678e-17 1.77090558 1.80953117 3.5"></polyline>
            <polyline id="路径-2" transform="translate(6.595234, 1.750000) scale(-1, 1) translate(-6.595234, -1.750000) " points="7.5 0 5.69046883 1.77090558 7.5 3.5"></polyline>
        </g>
        <path d="M15.7666667,2.00122524 C16.3741799,2.00122524 16.8666667,2.49371201 16.8666667,3.10122524 L16.8660444,8.07341556 L10.7250444,2.00041556 L15.7666667,2.00122524 Z" id="形状结合" fill="#57689C" transform="translate(13.796356, 5.036626) rotate(-180.000000) translate(-13.796356, -5.036626) "></path>
        <circle id="椭圆形" fill="#57689C" cx="14" cy="14" r="4"></circle>
        <polyline id="路径-3备份-8" stroke="#FFFFFF" stroke-width="0.96" stroke-linecap="square" stroke-linejoin="round" points="14 12 14 13.4251279 15 15"></polyline>
    </g>
</svg>