<?xml version="1.0" encoding="UTF-8"?>
<svg width="20px" height="20px" viewBox="0 0 20 20" version="1.1" xmlns="http://www.w3.org/2000/svg" xmlns:xlink="http://www.w3.org/1999/xlink">
    <title>task management 2</title>
    <g id="task-management" stroke="none" stroke-width="1" fill="none" fill-rule="evenodd">
        <rect id="矩形" fill="#000000" opacity="0" x="0" y="0" width="20" height="20"></rect>
        <g id="编组" transform="translate(2.000000, 2.000000)">
            <path d="M16,4.57142857 L16,14.8571429 C16,15.4883254 15.4883254,16 14.8571429,16 L1.14285714,16 C0.511674572,16 0,15.4883254 0,14.8571429 L0,4.57142857 L16,4.57142857 Z M4.20715231,7.02424942 L3.24192808,8.01052635 L3.73506655,8.49313847 L5.29371429,10.018 L3.74098869,11.5011346 L3.24212331,11.9778246 L4.19550325,12.9755554 L4.69436863,12.4988654 L6.76240425,10.5227575 L7.27827553,10.0298176 L6.7683264,9.53075362 L4.70029078,7.50686153 L4.20715231,7.02424942 Z M12.69,11.31 L7.88142857,11.31 L7.88142857,12.69 L12.69,12.69 L12.69,11.31 Z" id="形状结合" fill="#FFFFFF" opacity="0.55"></path>
            <path d="M14.8571429,0 C15.4883254,0 16,0.511674572 16,1.14285714 L16,3.42857143 L0,3.42857143 L0,1.14285714 C0,0.511674572 0.511674572,0 1.14285714,0 L14.8571429,0 Z M2.85714286,1.14285714 C2.54155157,1.14285714 2.28571429,1.39869443 2.28571429,1.71428571 C2.28571429,2.029877 2.54155157,2.28571429 2.85714286,2.28571429 C3.17273414,2.28571429 3.42857143,2.029877 3.42857143,1.71428571 C3.42857143,1.39869443 3.17273414,1.14285714 2.85714286,1.14285714 Z M5.14285714,1.14285714 C4.82726586,1.14285714 4.57142857,1.39869443 4.57142857,1.71428571 C4.57142857,2.029877 4.82726586,2.28571429 5.14285714,2.28571429 C5.45844843,2.28571429 5.71428571,2.029877 5.71428571,1.71428571 C5.71428571,1.39869443 5.45844843,1.14285714 5.14285714,1.14285714 Z M7.42857143,1.14285714 C7.11298014,1.14285714 6.85714286,1.39869443 6.85714286,1.71428571 C6.85714286,2.029877 7.11298014,2.28571429 7.42857143,2.28571429 C7.74416271,2.28571429 8,2.029877 8,1.71428571 C8,1.39869443 7.74416271,1.14285714 7.42857143,1.14285714 Z" id="形状结合" fill="#FFFFFF"></path>
            <g id="编组-2备份-2" transform="translate(3.241928, 7.024249)"></g>
        </g>
    </g>
</svg>