<?xml version="1.0" encoding="UTF-8"?>
<svg width="20px" height="20px" viewBox="0 0 20 20" version="1.1" xmlns="http://www.w3.org/2000/svg" xmlns:xlink="http://www.w3.org/1999/xlink">
    <title>template management 3</title>
    <g id="template-management" stroke="none" stroke-width="1" fill="none" fill-rule="evenodd">
        <rect id="矩形" fill="#000000" opacity="0" x="0" y="0" width="20" height="20"></rect>
        <rect id="矩形备份-2" fill="#57689C" x="5" y="2" width="12" height="15" rx="1"></rect>
        <rect id="矩形备份-3" fill="#9FAECF" x="3" y="4" width="12" height="14" rx="1"></rect>
        <g id="编组-8" transform="translate(5.000000, 6.000000)" fill="#FFFFFF">
            <path d="M1.2622381,5.19565217 L1.2622381,7.32565217 L5.3954872,7.32654132 C5.57679698,6.70989672 6.13417318,6.26086957 6.79365079,6.26086957 C7.60016186,6.26086957 8.25396825,6.93244244 8.25396825,7.76086957 C8.25396825,8.58929669 7.60016186,9.26086957 6.79365079,9.26086957 C6.18217835,9.26086957 5.65848386,8.87483494 5.44095371,8.32708649 L0.261904762,8.32608696 L0.261904762,4.19565217 L7.02380952,4.19521739 L7.02380952,2.06521739 L2.81337431,2.06531016 C2.59606224,2.61353929 2.07212726,3 1.46031746,3 C0.653806397,3 0,2.32842712 0,1.5 C0,0.671572875 0.653806397,0 1.46031746,0 C2.11979507,0 2.67717127,0.449027153 2.85848105,1.06567176 L8.02380952,1.06521739 L8.02380952,5.19565217 L1.2622381,5.19565217 Z" id="形状结合"></path>
        </g>
    </g>
</svg>