<?xml version="1.0" encoding="UTF-8"?>
<svg width="20px" height="20px" viewBox="0 0 20 20" version="1.1" xmlns="http://www.w3.org/2000/svg" xmlns:xlink="http://www.w3.org/1999/xlink">
    <title>third-party events-second menu-normal</title>
    <g id="third-party-events-second-menu-normal" stroke="none" stroke-width="1" fill="none" fill-rule="evenodd">
        <g id="third-party-events">
            <rect id="矩形" x="0" y="0" width="20" height="20"></rect>
            <path d="M15,2.496358 C15.5522847,2.496358 16,2.94407325 16,3.496358 L16,17.0335387 C16,17.5858234 15.5522847,18.0335387 15,18.0335387 L3,18.0335387 C2.44771525,18.0335387 2,17.5858234 2,17.0335387 L2,3.496358 C2,2.94407325 2.44771525,2.496358 3,2.496358 L5.5,2.496358 C5.5,3.27969612 6.09488808,3.92044868 6.85553999,3.99313342 L7,4 L11,4 C11.8284271,4 12.5,3.32842712 12.5,2.5 L15,2.496358 Z M5.6796875,11.7625 C5.29136229,11.7625 4.9765625,12.0772998 4.9765625,12.465625 C4.9765625,12.8539502 5.29136229,13.16875 5.6796875,13.16875 C6.06801271,13.16875 6.3828125,12.8539502 6.3828125,12.465625 C6.3828125,12.0772998 6.06801271,11.7625 5.6796875,11.7625 Z M11.0234375,11.903125 L7.5078125,11.903125 L7.5078125,13.028125 L11.0234375,13.028125 L11.0234375,11.903125 Z M5.6796875,9.23125 C5.29136229,9.23125 4.9765625,9.54604979 4.9765625,9.934375 C4.9765625,10.3227002 5.29136229,10.6375 5.6796875,10.6375 C6.06801271,10.6375 6.3828125,10.3227002 6.3828125,9.934375 C6.3828125,9.54604979 6.06801271,9.23125 5.6796875,9.23125 Z M13.0234375,9.371875 L7.5078125,9.371875 L7.48495865,10.496875 L13.0234375,10.496875 L13.0234375,9.371875 Z M5.6796875,6.7 C5.29136229,6.7 4.9765625,7.01479979 4.9765625,7.403125 C4.9765625,7.79145021 5.29136229,8.10625 5.6796875,8.10625 C6.06801271,8.10625 6.3828125,7.79145021 6.3828125,7.403125 C6.3828125,7.01479979 6.06801271,6.7 5.6796875,6.7 Z M13.0234375,6.840625 L7.5078125,6.840625 L7.5078125,7.965625 L13.0234375,7.965625 L13.0234375,6.840625 Z" id="形状" fill="#9FAECF"></path>
            <path d="M11,3.5 L7,3.5 C6.44771525,3.5 6,3.05228475 6,2.5 C6,1.94771525 6.44771525,1.5 7,1.5 L11,1.5 C11.5522847,1.5 12,1.94771525 12,2.5 C12,3.05228475 11.5522847,3.5 11,3.5 Z" id="路径" fill="#57689C"></path>
        </g>
        <g id="编组-2" transform="translate(10.000000, 10.400000)" fill="#57689C">
            <path d="M4,0 C5.72588984,0 7.125,1.39911016 7.125,3.125 L7.125975,6.47359848 C7.59218251,6.60328545 7.94363194,7.008523 7.99383035,7.50281819 L8,7.625 L0,7.625 C0,7.07585337 0.370411557,6.61322099 0.8750136,6.47332394 L0.875,3.125 C0.875,1.39911016 2.27411016,0 4,0 Z M4.32498744,1.61210084 L2.56686023,3.66181146 C2.54552142,3.68742817 2.54085392,3.72304775 2.55487213,3.75329755 C2.56889033,3.78354736 2.59908445,3.80301155 2.63242337,3.8032898 L3.72801785,3.8032898 L3.52270172,5.23705203 C3.51838568,5.27442258 3.53878356,5.31028097 3.57311121,5.32566922 C3.60743886,5.34105748 3.64778005,5.33242695 3.67280679,5.30434051 L5.430934,3.25462989 C5.45227281,3.22901318 5.45694031,3.1933936 5.44292211,3.16314379 C5.42890391,3.13289399 5.39870978,3.1134298 5.36537087,3.11315155 L4.26977638,3.11315155 L4.47509252,1.67938932 C4.47940856,1.64201877 4.45901068,1.60616038 4.42468303,1.59077212 C4.39035538,1.57538387 4.35001419,1.58401439 4.32498744,1.61210084 Z" id="形状"></path>
        </g>
    </g>
</svg>