<?xml version="1.0" encoding="UTF-8"?>
<svg width="20px" height="20px" viewBox="0 0 20 20" version="1.1" xmlns="http://www.w3.org/2000/svg" xmlns:xlink="http://www.w3.org/1999/xlink">
    <title>tool management 3</title>
    <g id="tool-management" stroke="none" stroke-width="1" fill="none" fill-rule="evenodd">
        <rect id="矩形" fill="#000000" opacity="0" x="0" y="0" width="20" height="20"></rect>
        <g id="编组" transform="translate(3.000000, 2.000000)" fill="#9FAECF">
            <path d="M7.725,0 L13.866,6.073 L13.8666667,14.9 C13.8666667,15.5075132 13.3741799,16 12.7666667,16 L1.1,16 C0.492486775,16 2.96443518e-16,15.5075132 0,14.9 L0,1.10080967 C-7.43989126e-17,0.493296447 0.492486775,0.00080967215 1.1,0.00080967215 L7.725,0 Z M4.81868452,6.15152123 L4.38986846,6.57118394 L2.58033729,8.34208952 L2.13690327,8.77605816 L2.58548698,9.20470157 L4.39501815,10.933796 L4.82881414,11.348309 L5.65784017,10.480717 L5.22404419,10.066204 L3.862,8.765 L5.22919388,7.42881606 L5.65800994,7.00915335 L4.81868452,6.15152123 Z M8.68131548,6.15152123 L7.84199006,7.00915335 L8.27080612,7.42881606 L9.638,8.765 L8.27595581,10.066204 L7.84215983,10.480717 L8.67118586,11.348309 L9.10498185,10.933796 L10.914513,9.20470157 L11.3630967,8.77605816 L10.9196627,8.34208952 L9.11013154,6.57118394 L8.68131548,6.15152123 Z" id="形状结合"></path>
        </g>
        <path d="M18,13 L18,18 C18,18.5522847 17.5522847,19 17,19 L3,19 C2.44771525,19 2,18.5522847 2,18 L2,13 L6.5,13 L6.5,15 L13.5,15 L13.5,13 L18,13 Z" id="形状结合" fill="#57689C"></path>
        <g id="编组-2备份-2" transform="translate(5.136903, 8.151521)"></g>
        <path d="M15.7666667,2.00122524 C16.3741799,2.00122524 16.8666667,2.49371201 16.8666667,3.10122524 L16.8660444,8.07341556 L10.7250444,2.00041556 L15.7666667,2.00122524 Z" id="形状结合" fill="#57689C" transform="translate(13.796356, 5.036626) rotate(-180.000000) translate(-13.796356, -5.036626) "></path>
    </g>
</svg>