<?xml version="1.0" encoding="UTF-8"?>
<svg width="20px" height="20px" viewBox="0 0 20 20" version="1.1" xmlns="http://www.w3.org/2000/svg" xmlns:xlink="http://www.w3.org/1999/xlink">
    <title>tool task 3</title>
    <g id="tool-task" stroke="none" stroke-width="1" fill="none" fill-rule="evenodd">
        <rect id="矩形" fill="#000000" opacity="0" x="0" y="0" width="20" height="20"></rect>
        <g id="编组" transform="translate(2.000000, 2.000000)">
            <rect id="矩形" fill="#000000" fill-rule="nonzero" opacity="0" x="0" y="0" width="16" height="16"></rect>
            <path d="M14.233,4.549 L13.517,5.268 C12.754,6.034 11.512,6.034 10.749,5.268 C9.986,4.502 9.986,3.255 10.749,2.489 L11.465,1.77 C11.86,1.373 11.596,0.906 10.884,1.017 C10.1333743,1.13384767 9.43967819,1.48735238 8.904,2.026 C8.04635758,2.88923694 7.68131844,4.12646024 7.933,5.317 L1.928,11.347 C1.1650776,12.1158589 1.1650776,13.3561411 1.928,14.125 C2.29446153,14.4928029 2.79229579,14.6995455 3.3115,14.6995455 C3.83070421,14.6995455 4.32853847,14.4928029 4.695,14.125 L10.701,8.095 C11.6648164,8.29947584 12.6702992,8.09769312 13.4805966,7.53718383 C14.2908939,6.97667455 14.8343688,6.10699241 14.983,5.133 C15.094,4.418 14.629,4.152 14.233,4.549 L14.233,4.549 Z" id="路径" fill="#9FAECF"></path>
            <path d="M3.773,13.198 C3.518,13.454 3.105,13.454 2.85,13.198 C2.595,12.942 2.595,12.528 2.85,12.272 C3.1077357,12.0296853 3.51143315,12.0362362 3.76117102,12.2867858 C4.0109089,12.5373354 4.01614977,12.941052 3.773,13.198 L3.773,13.198 Z" id="路径" fill="#FFFFFF"></path>
            <polygon id="路径" fill="#57689C" points="3.121 4.669 5.382 6.94 6.305 6.014 4.044 3.743 3.537 2.771 1.923 1.613 1 2.539 2.153 4.16"></polygon>
            <path d="M10.688,9.486 C10.6269954,9.42462728 10.5440342,9.39011733 10.4575,9.39011733 C10.3709658,9.39011733 10.2880046,9.42462728 10.227,9.486 L8.843,10.876 C8.71602763,11.0042178 8.71602763,11.2107822 8.843,11.339 L12.108,14.617 C12.618,15.128 13.445,15.128 13.954,14.617 C14.464,14.106 14.464,13.276 13.954,12.764 L10.688,9.486 L10.688,9.486 Z" id="路径" fill="#57689C"></path>
        </g>
    </g>
</svg>