<?xml version="1.0" encoding="UTF-8"?>
<svg width="36px" height="36px" viewBox="0 0 36 36" version="1.1" xmlns="http://www.w3.org/2000/svg" xmlns:xlink="http://www.w3.org/1999/xlink">
    <title>4201AEEC-360B-423C-B32B-1EFA394DEDA5</title>
    <g id="迭代一" stroke="none" stroke-width="1" fill="none" fill-rule="evenodd">
        <g id="EPS-Provider_2" transform="translate(-324.000000, -240.000000)">
            <g id="List/Row" transform="translate(296.000000, 118.000000)">
                <g id="Icon-Azure-Big" transform="translate(28.000000, 122.000000)">
                    <rect id="bg" fill="#D8D8D8" opacity="0" x="0" y="0" width="36" height="36"></rect>
                    <path d="M19.6865639,4 C16.071196,12.8847406 13.1903625,20.1285001 9.55415672,29.0028218 C6.86607336,29.1695246 2.68287389,29.2763186 0,28.9845887 C2.84957674,23.715216 5.3501194,18.3598871 8.11373997,13.0332103 C8.71803778,11.9105709 16.8265683,6.5891035 19.6865639,4 Z M22.9346646,27.5780334 C19.5857301,22.9472746 17.2735964,19.7504002 15.9982635,17.9874105 C16.9203386,14.9841546 18.451921,10.5040156 20.5904059,4.54178423 C27.5242023,16.9689603 32.6607337,26.2756675 36,32.4593011 C34.9659214,32.5843282 33.4108965,32.615585 32.3794226,32.537443 C26.4877391,32.4654121 20.5953952,32.4654121 14.7037117,32.537443 L18.7254179,30.3312351 L22.9346646,27.5780334 Z" id="形状" fill="#595959" fill-rule="nonzero"></path>
                </g>
            </g>
        </g>
    </g>
</svg>