<?xml version="1.0" encoding="UTF-8"?>
<svg width="16px" height="16px" viewBox="0 0 16 16" version="1.1" xmlns="http://www.w3.org/2000/svg" xmlns:xlink="http://www.w3.org/1999/xlink">
    <title>6CBE5F4F-F2D6-4CEF-911E-421DFF081283</title>
    <g id="迭代一" stroke="none" stroke-width="1" fill="none" fill-rule="evenodd">
        <g id="EPS-Provider_2" transform="translate(-719.000000, -236.000000)">
            <g id="List/Row" transform="translate(296.000000, 210.000000)">
                <g id="Icon-Azure-Small" transform="translate(423.000000, 26.000000)">
                    <rect id="bg" fill="#D8D8D8" opacity="0" x="0" y="0" width="16" height="16"></rect>
                    <path d="M8.74958397,1.77777778 C7.14275378,5.72655139 5.86238332,8.94600005 4.24629188,12.890143 C3.05158816,12.9642332 1.1923884,13.0116972 0,12.8820394 C1.26647855,10.540096 2.37783085,8.15994983 3.60610665,5.79253792 C3.87468346,5.29358705 7.47847479,2.92849045 8.74958397,1.77777778 Z M10.1931843,12.2569038 C8.70476894,10.1987887 7.67715396,8.77795566 7.11033933,7.99440466 C7.52015048,6.65962425 8.20085376,4.66845139 9.15129152,2.01857077 C12.2329788,7.54176012 14.5158816,11.6780744 16,14.426356 C15.5404095,14.4819236 14.8492873,14.4958155 14.3908545,14.4610858 C11.7723285,14.429072 9.15350898,14.429072 6.53498299,14.4610858 L8.32240793,13.4805489 L10.1931843,12.2569038 Z" id="形状" fill="#595959" fill-rule="nonzero"></path>
                </g>
            </g>
        </g>
    </g>
</svg>