<svg xmlns="http://www.w3.org/2000/svg" xmlns:xlink="http://www.w3.org/1999/xlink" width="24px" height="24px" viewBox="0 0 24 24" version="1.1">
    <title>CI插件</title>
    <g id="页面-1" stroke="none" stroke-width="1" fill="none" fill-rule="evenodd">
        <g id="新增资源24*24" transform="translate(-13.000000, -11.000000)" fill="#FFFFFF">
            <path d="M22.6,11 C24.809139,11 26.6,12.7330913 26.6,14.8709677 C26.6,15.4216599 26.4811732,15.9454939 26.2669789,16.419767 L30.6,16.4193548 C31.4836556,16.4193548 32.2,17.1125914 32.2,17.9677419 L32.1998496,21.9161726 C32.4583842,21.8653757 32.7259742,21.8387097 33,21.8387097 C35.209139,21.8387097 37,23.571801 37,25.7096774 C37,27.8475539 35.209139,29.5806452 33,29.5806452 C32.7259742,29.5806452 32.4583842,29.5539791 32.1998496,29.5031822 L32.2,33.4516129 C32.2,34.3067635 31.4836556,35 30.6,35 L14.6,35 C13.7163444,35 13,34.3067635 13,33.4516129 L13,17.9677419 C13,17.1125914 13.7163444,16.4193548 14.6,16.4193548 L18.9330211,16.419767 C18.7188268,15.9454939 18.6,15.4216599 18.6,14.8709677 C18.6,12.7330913 20.390861,11 22.6,11 Z M20.9232,20.2903226 C18.0144,20.2903226 16.2,22.4224516 16.2,25.8645161 C16.2,29.5574194 17.856,31.4387097 21.0528,31.4387097 C23.3568,31.4387097 24.7392,30.2820645 25.3584,27.8154839 L22.5936,27.4810323 C22.3632,29.0139355 21.8736,29.6270968 20.8656,29.6270968 C19.6848,29.6270968 18.936,28.0245161 18.936,25.7669677 C18.936,23.411871 19.6128,22.1019355 20.7792,22.1019355 C21.8304,22.1019355 22.3776,22.7847742 22.5216,24.3176774 L25.2,23.7323871 C24.7968,21.5166452 23.2704,20.2903226 20.9232,20.2903226 Z M29.5344,20.4296774 L26.8704,20.4296774 L26.8704,31.2993548 L29.5344,31.2993548 L29.5344,20.4296774 Z" id="CI插件"/>
        </g>
    </g>
</svg>