<svg xmlns="http://www.w3.org/2000/svg" xmlns:xlink="http://www.w3.org/1999/xlink" width="31px" height="32px" viewBox="0 0 31 32" version="1.1">
    <title>CI插件</title>
    <g id="页面-1" stroke="none" stroke-width="1" fill="none" fill-rule="evenodd">
        <g id="资源详情32*32" transform="translate(-1.000000, 0.000000)">
            <g id="CI插件" transform="translate(1.000000, 0.000000)">
                <path d="M12.4,1 C13.5507124,1 14.5925339,1.46585384 15.3466464,2.21918171 C16.100382,2.97213297 16.5666667,4.01230072 16.5666667,5.16129032 C16.5666667,5.75297704 16.4433279,6.3159048 16.2203615,6.82552716 L15.6074149,8.22650618 L22.7333333,8.22580645 C23.0280044,8.22580645 23.2948258,8.34504204 23.4879488,8.537964 C23.6806947,8.73050935 23.8,8.99648356 23.8,9.29028568 L23.7997606,15.7780845 L24.9985769,15.5349427 C25.2682929,15.4802394 25.5474622,15.4516129 25.8333333,15.4516129 C26.9840457,15.4516129 28.0258672,15.9174667 28.7799798,16.6707946 C29.5337154,17.4237459 30,18.4639136 30,19.6129032 C30,20.7618928 29.5337154,21.8020606 28.7799798,22.5550118 C28.0258672,23.3083397 26.9840457,23.7741935 25.8333333,23.7741935 C25.5474622,23.7741935 25.2682929,23.745567 24.9985769,23.6908637 L23.7997606,23.447722 L23.8,29.9354839 C23.8,30.2293229 23.6806947,30.4952971 23.4879488,30.6878424 C23.2948258,30.8807644 23.0280044,31 22.7333333,31 L2.06666667,31 C1.77199562,31 1.50517417,30.8807644 1.31205124,30.6878424 C1.11930533,30.4952971 1,30.2293229 1,29.9354839 L1,9.29032258 C1,8.99648356 1.11930533,8.73050935 1.31205124,8.537964 C1.50517417,8.34504204 1.77199562,8.22580645 2.06656847,8.22580645 L9.1925851,8.22650618 L8.57963849,6.82552716 C8.35667206,6.3159048 8.23333333,5.75297704 8.23333333,5.16129032 C8.23333333,4.01230072 8.69961798,2.97213297 9.45335356,2.21918171 C10.2074661,1.46585384 11.2492876,1 12.4,1 Z" id="路径" stroke="#262626" stroke-width="2"/>
                <path d="M12.3917333,21.9747097 C12.0941333,24.0185806 11.4617333,24.836129 10.1597333,24.836129 C8.63453333,24.836129 7.66733333,22.6993548 7.66733333,19.6892903 C7.66733333,16.5491613 8.54153333,14.8025806 10.0481333,14.8025806 C11.4059333,14.8025806 12.1127333,15.7130323 12.2987333,17.7569032 L15.7583333,16.9765161 C15.2375333,14.0221935 13.2659333,12.3870968 10.2341333,12.3870968 C6.47693333,12.3870968 4.13333333,15.2299355 4.13333333,19.8193548 C4.13333333,24.7432258 6.27233333,27.2516129 10.4015333,27.2516129 C13.3775333,27.2516129 15.1631333,25.7094194 15.9629333,22.4206452 L12.3917333,21.9747097 Z" id="路径" fill="#262626" fill-rule="nonzero"/>
                <polygon id="路径" fill="#262626" fill-rule="nonzero" points="20.3569333 12.5729032 16.9159333 12.5729032 16.9159333 27.0658065 20.3569333 27.0658065"/>
            </g>
        </g>
    </g>
</svg>