<svg xmlns="http://www.w3.org/2000/svg" xmlns:xlink="http://www.w3.org/1999/xlink" width="30px" height="27px" viewBox="0 0 30 27" version="1.1">
    <title>流水线模版</title>
    <g id="页面-1" stroke="none" stroke-width="1" fill="none" fill-rule="evenodd">
        <g id="Hub商城30*30" transform="translate(-12.000000, -14.000000)">
            <g id="流水线模版" transform="translate(12.000000, 14.000000)">
                <path d="M29,9.375 C29.5522847,9.375 30,9.82271525 30,10.375 L30,25.25 C30,25.8022847 29.5522847,26.25 29,26.25 L1,26.25 C0.44771525,26.25 -1.5440923e-16,25.8022847 0,25.25 L0,10.375 C-6.76353751e-17,9.82271525 0.44771525,9.375 1,9.375 L29,9.375 Z M10.5753968,12.5 C9.567258,12.5 8.75,13.3394661 8.75,14.375 C8.75,15.4105339 9.567258,16.25 10.5753968,16.25 C11.2927415,16.25 11.9134416,15.8249713 12.2118351,15.2067081 L19.9047619,15.2065217 L19.9047619,17.6190217 L8.95238095,17.6195652 L8.95238095,23.0326087 L18.1056252,23.0327951 C18.4040187,23.6510583 19.0247188,24.076087 19.7420635,24.076087 C20.7502023,24.076087 21.5674603,23.2366209 21.5674603,22.201087 C21.5674603,21.1655531 20.7502023,20.326087 19.7420635,20.326087 C18.9634108,20.326087 18.2986281,20.8268705 18.0363219,21.5319884 L10.452381,21.5320652 L10.452381,19.1195652 L21.4047619,19.1195652 L21.4047619,13.7065217 L12.2811384,13.7059015 C12.0188322,13.0007835 11.3540495,12.5 10.5753968,12.5 Z M9.94004444,0 C10.3428,0 10.738,0.109466667 11.0833556,0.316688889 L15.5833111,3.01664444 C15.9286667,3.22386667 16.3238667,3.33333333 16.7266222,3.33333333 L27.7777778,3.33333333 C29.0051111,3.33333333 30,4.32826667 30,5.55555556 L30,6.66666667 C30,7.28031111 29.5024444,7.77777778 28.8888889,7.77777778 L1.11111111,7.77777778 C0.497466667,7.77777778 0,7.28031111 0,6.66666667 L0,2.22222222 C0,0.994933333 0.994933333,0 2.22222222,0 Z" id="形状结合备份" fill="#7EB9FB"/>
                <g id="编组-2" transform="translate(8.750000, 7.500000)"/>
            </g>
        </g>
    </g>
</svg>