<svg xmlns="http://www.w3.org/2000/svg" xmlns:xlink="http://www.w3.org/1999/xlink" width="24px" height="21px" viewBox="0 0 24 21" version="1.1">
    <title>流水线模版</title>
    <g id="页面-1" stroke="none" stroke-width="1" fill="none" fill-rule="evenodd">
        <g id="新增资源24*24" transform="translate(-12.000000, -13.000000)" fill="#FFFFFF">
            <path d="M35,20.5 C35.5522847,20.5 36,20.9477153 36,21.5 L36,33 C36,33.5522847 35.5522847,34 35,34 L13,34 C12.4477153,34 12,33.5522847 12,33 L12,21.5 C12,20.9477153 12.4477153,20.5 13,20.5 L35,20.5 Z M20.4603175,23 C19.6538064,23 19,23.6715729 19,24.5 C19,25.3284271 19.6538064,26 20.4603175,26 C21.0341738,26 21.5307197,25.66 21.7694439,25.1654167 L27.9238095,25.1652174 L27.9238095,27.0952174 L19.1619048,27.0956522 L19.1619048,31.426087 L26.4845695,31.4263797 C26.7233111,31.9209124 27.2198306,32.2608696 27.7936508,32.2608696 C28.6001619,32.2608696 29.2539683,31.5892967 29.2539683,30.7608696 C29.2539683,29.9324424 28.6001619,29.2608696 27.7936508,29.2608696 C27.1703883,29.2608696 26.6383214,29.6619343 26.4287139,30.2265155 L20.3619048,30.2256522 L20.3619048,28.2956522 L29.1238095,28.2956522 L29.1238095,23.9652174 L21.8252544,23.9656459 C21.6156469,23.4010647 21.0835799,23 20.4603175,23 Z M19.9520356,13 C20.27424,13 20.5904,13.0875733 20.8666844,13.2533511 L24.4666489,15.4133156 C24.7429333,15.5790933 25.0590933,15.6666667 25.3812978,15.6666667 L34.2222222,15.6666667 C35.2040889,15.6666667 36,16.4626133 36,17.4444444 L36,18.3333333 C36,18.8242489 35.6019556,19.2222222 35.1111111,19.2222222 L12.8888889,19.2222222 C12.3979733,19.2222222 12,18.8242489 12,18.3333333 L12,14.7777778 C12,13.7959467 12.7959467,13 13.7777778,13 Z" id="流水线模版"/>
        </g>
    </g>
</svg>