<svg xmlns="http://www.w3.org/2000/svg" xmlns:xlink="http://www.w3.org/1999/xlink" width="32px" height="30px" viewBox="0 0 32 30" version="1.1">
    <title>流水线模版</title>
    <g id="页面-1" stroke="none" stroke-width="1" fill="none" fill-rule="evenodd">
        <g id="资源详情32*32" transform="translate(0.000000, -1.000000)" fill="#262626">
            <g id="流水线模版" transform="translate(0.000000, 1.000000)">
                <g id="编组备份-5" fill-rule="nonzero">
                    <g id="编组">
                        <path d="M32,26.4464286 C32,28.1821797 30.5928959,29.5892647 28.8571429,29.5892647 L3.14285714,29.5892647 C1.4071041,29.5892647 0,28.1821797 0,26.4464286 L0,3.22222222 C0,1.44264858 1.44264858,0 3.22222222,0 L10.9400444,0 C11.5240509,0 12.0970933,0.158728264 12.5978488,0.459194469 L17.0978231,3.15916126 C17.287758,3.27312707 17.5051152,3.33333333 17.7266222,3.33333333 L28.7777778,3.33333333 C30.5573836,3.33333333 32,4.77596966 32,6.55555556 L32,26.4464286 Z M2,26.4464286 C2,27.0776041 2.51166754,27.5892647 3.14285714,27.5892647 L28.8571429,27.5892647 C29.4883325,27.5892647 30,27.0776041 30,26.4464286 L30,9.642 L2,9.642 L2,26.4464286 Z M10.9400444,2 L3.22222222,2 C2.54721808,2 2,2.54721808 2,3.22222222 L2,7.642 L30,7.642 L30,6.55555556 C30,5.92272189 29.5190695,5.4022326 28.9027454,5.33964344 L28.7777778,5.33333333 L17.7266222,5.33333333 C17.1426158,5.33333333 16.5695734,5.17460507 16.0688178,4.87413886 L11.5688436,2.17417208 C11.3789087,2.06020627 11.1615514,2 10.9400444,2 Z" id="形状结合"/>
                    </g>
                </g>
                <g id="编组-8" transform="translate(7.312606, 10.858415)">
                    <path d="M5.01511167,3.5775063 C4.61263812,4.41885264 3.75348194,5 2.75859153,5 C1.37787965,5 0.258591529,3.88071187 0.258591529,2.5 C0.258591529,1.11928813 1.37787965,0 2.75859153,0 C3.81356811,0 4.71592009,0.653463623 5.08296556,1.57770898 L15.1694016,1.57745871 L15.1694016,9.07745871 L2.0008593,9.07745871 L2.0008593,12.5774587 L12.4342175,12.577709 C12.801263,11.6534636 13.7036149,11 14.7585915,11 C16.1393034,11 17.2585915,12.1192881 17.2585915,13.5 C17.2585915,14.8807119 16.1393034,16 14.7585915,16 C13.7637011,16 12.9045449,15.4188526 12.5020714,14.5775063 L0,14.5774587 L0,7.07745871 L13.1684085,7.07745871 L13.1684085,3.57745871 Z" id="形状结合"/>
                </g>
            </g>
        </g>
    </g>
</svg>