<?xml version="1.0" encoding="UTF-8"?>
<svg width="201px" height="200px" viewBox="0 0 201 200" version="1.1" xmlns="http://www.w3.org/2000/svg" xmlns:xlink="http://www.w3.org/1999/xlink">
    <title>4FD9B6ED-6EC4-4BC7-A7FC-C6788B7091AD</title>
    <g id="页面-1" stroke="none" stroke-width="1" fill="none" fill-rule="evenodd">
        <g id="编组-3" transform="translate(-854.000000, -420.000000)">
            <g id="coding-card" transform="translate(854.000000, 420.000000)">
                <rect id="bg" fill="#D8D8D8" opacity="0" x="0" y="0" width="200" height="200"></rect>
                <g id="coding" transform="translate(0.000000, 25.000000)" fill-rule="nonzero">
                    <path d="M185.17104,62.3955307 C179.825049,62.3955307 175.139581,65.829014 172.520634,70.9815074 C163.608809,51.407144 145.068796,33.2717162 122.156257,25.8039202 C109.792964,20.8074943 101.111217,11.2173628 100.038017,0.00939289122 C98.964967,11.217514 90.2832196,20.807343 77.9197771,25.8039202 C55.0072381,33.2723211 36.467076,51.4066903 27.5553999,70.9815074 C24.9364529,65.8291653 20.2509848,62.3955307 14.9049945,62.3955307 C6.69475011,62.3955307 0.0392115935,70.4898648 0.0392115935,80.4766676 C0.0392115935,90.4622606 6.69460081,98.5578045 14.9049945,98.5578045 C17.4019599,98.5578045 19.7536522,97.8058983 21.8197253,96.4820473 C22.5266812,128.905659 57.2569555,149.952834 100.039212,150.009393 C142.820124,149.953287 177.551593,128.906718 178.258698,96.4820473 C180.32492,97.8057471 182.677061,98.5578045 185.173429,98.5578045 C193.383673,98.5578045 200.039212,90.4634705 200.039212,80.4766676 C200.039212,70.4910746 193.381284,62.3955307 185.171786,62.3955307 L185.17104,62.3955307 Z" id="路径" fill="#E24329"></path>
                    <path d="M21.6619106,86.1274577 C20.9664511,88.7306986 17.8707754,89.8390495 14.7471798,88.6051793 C11.6235842,87.371309 9.6551561,84.2602441 10.3510635,81.6570031 C11.046523,79.0537622 14.1421987,77.9454113 17.2657943,79.1792816 C20.3893899,80.4131518 22.357818,83.5251241 21.6619106,86.1274577 Z" id="路径" fill="#AB2914"></path>
                    <path d="M125.762554,65.3600556 C138.819664,65.3600556 150.264586,71.6239245 156.680939,81.0239622 C159.351844,85.0770271 161.120354,92.1100423 161.810737,96.7188706 L161.828504,96.8486243 L161.828504,96.8486243 C161.892556,97.285976 161.943618,97.7263523 161.987066,98.1671823 C162.019166,98.4967084 162.04843,98.8253271 162.070377,99.1575753 C162.080978,99.3172722 162.08904,99.4772715 162.097252,99.6371197 C162.120693,100.122713 162.138162,100.609516 162.138162,101.100705 C162.138162,124.548777 134.35009,140.927993 100.037271,140.983342 L100,140.983056 L100.00047,75.0411783 C100.012746,75.0523269 100.025013,75.0634834 100.037271,75.0746478 C106.620695,69.0783015 115.710342,65.3600556 125.762554,65.3600556 Z" id="形状结合" fill="#FC6D26"></path>
                    <path d="M74.3119876,65.3600556 C84.3450359,65.3600556 93.419844,69.0646189 100.00047,75.0411783 L99.9993797,140.983056 L99.009856,140.976839 C65.1711759,140.601196 37.9363797,124.314895 37.9363797,101.100705 C37.9363797,100.609668 37.954147,100.123016 37.9772891,99.6371197 C37.9852023,99.4774228 37.993414,99.3174234 38.0041639,99.1575753 C38.0253651,98.8262345 38.0547781,98.4967084 38.0874757,98.1671823 C38.1310726,97.7258986 38.1827319,97.2861273 38.2460369,96.8486243 L38.2638041,96.7188706 L38.2638041,96.7188706 C38.9544859,92.1103447 40.7229955,85.0779345 43.3936018,81.0239622 C49.8102534,71.6230171 61.2554744,65.3600556 74.3119876,65.3600556 Z" id="形状结合" fill="#FCA326"></path>
                    <path d="M185.327212,88.6047256 C182.203617,89.8387471 179.107493,88.7303962 178.412481,86.127004 C177.71747,83.5236119 179.685599,80.4134543 182.808598,79.1788279 C185.932193,77.9448064 189.028317,79.0531573 189.723328,81.6565494 C190.418788,84.2597904 188.450211,87.3700992 185.327212,88.6047256 Z" id="路径" fill="#AB2914"></path>
                    <path d="M57.5052183,86.6166209 C57.5052183,86.6166209 57.5052183,86.6166209 57.5052183,86.6166209 C57.5052183,88.7747495 58.9623092,90.524511 60.7594823,90.524511 C62.5571028,90.524511 64.0137464,88.7746004 64.0137464,86.6166209 C64.0137464,86.6166209 64.0137464,86.6166209 64.0137464,86.6166209 C64.0137464,86.6166209 64.0137464,86.6166209 64.0137464,86.6166209 C64.0137464,84.4584924 62.5566555,82.7087309 60.7594823,82.7087309 C58.9618619,82.7087309 57.5052183,84.4586415 57.5052183,86.6166209 C57.5052183,88.7746004 57.5052183,86.6166209 57.5052183,86.6166209 Z" id="路径" fill="#E24329"></path>
                    <path d="M134.801557,86.6166209 C134.801557,86.6166209 134.801557,86.6166209 134.801557,86.6166209 C134.801557,88.7747495 136.258647,90.524511 138.055821,90.524511 C139.853441,90.524511 141.310085,88.7746004 141.310085,86.6166209 C141.310085,86.6166209 141.310085,86.6166209 141.310085,86.6166209 C141.310085,86.6166209 141.310085,86.6166209 141.310085,86.6166209 C141.310085,84.4584924 139.852994,82.7087309 138.055821,82.7087309 C136.2582,82.7087309 134.801557,84.4586415 134.801557,86.6166209 C134.801557,88.7746004 134.801557,86.6166209 134.801557,86.6166209 Z" id="路径" fill="#E24329"></path>
                </g>
            </g>
        </g>
    </g>
</svg>