<?xml version="1.0" encoding="UTF-8"?>
<svg width="24px" height="24px" viewBox="0 0 24 24" version="1.1" xmlns="http://www.w3.org/2000/svg" xmlns:xlink="http://www.w3.org/1999/xlink">
    <title>B656E05E-AA33-452A-BC31-33678B89DC70</title>
    <g id="页面-1" stroke="none" stroke-width="1" fill="none" fill-rule="evenodd">
        <g id="Icon/coding">
            <rect id="bg" fill="#D8D8D8" opacity="0" x="0" y="0" width="24" height="24"></rect>
            <g id="coding" transform="translate(0.000000, 3.000000)" fill="#000000" fill-rule="nonzero">
                <path d="M6.90062619,10.3939945 C6.90062619,10.3939945 6.90062619,10.3939945 6.90062619,10.3939945 C6.90062619,10.6529699 7.0754771,10.8629413 7.29113788,10.8629413 C7.50685234,10.8629413 7.68164957,10.6529521 7.68164957,10.3939945 C7.68164957,10.3939945 7.68164957,10.3939945 7.68164957,10.3939945 C7.68164957,10.3939945 7.68164957,10.3939945 7.68164957,10.3939945 C7.68164957,10.1350191 7.50679866,9.92504771 7.29113788,9.92504771 C7.07542343,9.92504771 6.90062619,10.135037 6.90062619,10.3939945 C6.90062619,10.6529521 6.90062619,10.3939945 6.90062619,10.3939945 Z" id="路径"></path>
                <path d="M16.1761868,10.3939945 C16.1761868,10.3939945 16.1761868,10.3939945 16.1761868,10.3939945 C16.1761868,10.6529699 16.3510377,10.8629413 16.5666985,10.8629413 C16.7824129,10.8629413 16.9572102,10.6529521 16.9572102,10.3939945 C16.9572102,10.3939945 16.9572102,10.3939945 16.9572102,10.3939945 C16.9572102,10.3939945 16.9572102,10.3939945 16.9572102,10.3939945 C16.9572102,10.1350191 16.7823593,9.92504771 16.5666985,9.92504771 C16.350984,9.92504771 16.1761868,10.135037 16.1761868,10.3939945 C16.1761868,10.6529521 16.1761868,10.3939945 16.1761868,10.3939945 Z" id="路径"></path>
                <path d="M22.2205248,7.48746369 C21.5790059,7.48746369 21.0167498,7.89948168 20.7024761,8.51778089 C19.6330571,6.16885728 17.4082555,3.99260595 14.6587509,3.09647043 C13.1751557,2.49689931 12.133346,1.34608354 12.0045621,0.00112714695 C11.875796,1.34610169 10.8339864,2.49688117 9.35037325,3.09647043 C6.60086857,3.99267854 4.37604912,6.16880284 3.30664799,8.51778089 C2.99237435,7.89949983 2.43011818,7.48746369 1.78859934,7.48746369 C0.803370013,7.48746369 0.00470539122,8.45878378 0.00470539122,9.65720012 C0.00470539122,10.8554713 0.803352097,11.8269365 1.78859934,11.8269365 C2.08823518,11.8269365 2.37043826,11.7367078 2.61836703,11.5778457 C2.70320175,15.4686791 6.87083466,17.99434 12.0047054,18.0011271 C17.1384149,17.9943945 21.3061911,15.4688062 21.3910437,11.5778457 C21.6389904,11.7366897 21.9212473,11.8269365 22.2208114,11.8269365 C23.2060408,11.8269365 24.0047054,10.8556165 24.0047054,9.65720012 C24.0047054,8.45892896 23.2057541,7.48746369 22.2206144,7.48746369 L22.2205248,7.48746369 Z M2.59942928,10.3352949 C2.51597413,10.6476838 2.14449305,10.7806859 1.76966158,10.6326215 C1.39483011,10.4845571 1.15861873,10.1112293 1.24212762,9.79884038 C1.32558276,9.48645147 1.69706385,9.35344936 2.07189532,9.50151379 C2.44672679,9.64957822 2.68293817,10.0230149 2.59942928,10.3352949 Z M12.0044725,16.9180011 C7.88689831,16.9115406 4.55236557,14.9459259 4.55236557,12.1320847 C4.55236557,12.0731601 4.55449763,12.0147619 4.55727469,11.9564544 C4.55822427,11.9372907 4.55920968,11.9180908 4.56049967,11.898909 C4.56304381,11.8591481 4.56657337,11.819605 4.57049708,11.7800619 C4.57572871,11.7271078 4.58192782,11.6743353 4.58952443,11.6218349 C4.59027692,11.6166266 4.59088608,11.6114002 4.59165649,11.6062645 C4.6745383,11.0532414 4.88675946,10.2093521 5.20723222,9.72287547 C5.97723041,8.59476206 7.35065693,7.84320667 8.91743851,7.84320667 C10.1236502,7.84320667 11.2144436,8.28941433 12.0044725,9.00895774 C12.7944834,8.28939618 13.885241,7.84320667 15.0915064,7.84320667 C16.6583597,7.84320667 18.0317504,8.59487094 18.8017127,9.72287547 C19.1222213,10.2092433 19.3344425,11.0532051 19.4172885,11.6062645 C19.418041,11.6114728 19.4186501,11.6166992 19.4194205,11.6218349 C19.4271067,11.6743171 19.4332342,11.7271623 19.4384479,11.7800619 C19.4422999,11.819605 19.4458116,11.8590393 19.4484453,11.898909 C19.4497174,11.9180727 19.4506848,11.9372726 19.4516703,11.9564544 C19.4544832,12.0147256 19.4565794,12.073142 19.4565794,12.1320847 C19.4565794,14.9458533 16.1220108,16.9113591 12.0044725,16.9180011 L12.0044725,16.9180011 Z M22.2392655,10.6325671 C21.864434,10.7806496 21.4928992,10.6476475 21.4094978,10.3352405 C21.3260964,10.0228334 21.5622719,9.64961451 21.9370317,9.50145934 C22.3118632,9.35337677 22.683398,9.48637888 22.7667994,9.79878593 C22.8502546,10.1111748 22.6140253,10.4844119 22.2392655,10.6325671 Z" id="形状"></path>
            </g>
        </g>
    </g>
</svg>