<?xml version="1.0" encoding="UTF-8"?>
<svg width="41px" height="47px" viewBox="0 0 41 47" version="1.1" xmlns="http://www.w3.org/2000/svg" xmlns:xlink="http://www.w3.org/1999/xlink">
    <!-- Generator: Sketch 62 (91390) - https://sketch.com -->
    <title>backlog</title>
    <desc>Created with Sketch.</desc>
    <defs>
        <linearGradient x1="50%" y1="0%" x2="50%" y2="100%" id="linearGradient-1">
            <stop stop-color="#FFFFFF" offset="0%"></stop>
            <stop stop-color="#FFFFFF" stop-opacity="0.8" offset="100%"></stop>
        </linearGradient>
        <filter x="-50.0%" y="-37.8%" width="200.0%" height="186.5%" filterUnits="objectBoundingBox" id="filter-2">
            <feOffset dx="0" dy="2" in="SourceAlpha" result="shadowOffsetOuter1"></feOffset>
            <feGaussianBlur stdDeviation="2" in="shadowOffsetOuter1" result="shadowBlurOuter1"></feGaussianBlur>
            <feColorMatrix values="0 0 0 0 0   0 0 0 0 0   0 0 0 0 0  0 0 0 0.06 0" type="matrix" in="shadowBlurOuter1" result="shadowMatrixOuter1"></feColorMatrix>
            <feMerge>
                <feMergeNode in="shadowMatrixOuter1"></feMergeNode>
                <feMergeNode in="SourceGraphic"></feMergeNode>
            </feMerge>
        </filter>
        <linearGradient x1="50%" y1="0%" x2="50%" y2="100%" id="linearGradient-3">
            <stop stop-color="#FFFFFF" offset="0%"></stop>
            <stop stop-color="#FFFFFF" stop-opacity="0.8" offset="100%"></stop>
        </linearGradient>
        <path d="M29.1428571,17.9714286 C27.6857143,17.2428571 25.9857143,17 24.2857143,17 C17.4857143,17 12.1428571,22.3428571 12.1428571,29.1428571 C12.1428571,30.8428571 12.3857143,32.5428571 13.1142857,34 L2.42857143,34 C0.971428571,34 0,33.0285714 0,31.5714286 L0,2.42857143 C0,0.971428571 0.971428571,0 2.42857143,0 L26.7142857,0 C28.1714286,0 29.1428571,0.971428571 29.1428571,2.42857143 L29.1428571,17.9714286 Z M6.07142857,7.28571429 C5.34285714,7.28571429 4.85714286,7.77142857 4.85714286,8.5 C4.85714286,9.22857143 5.34285714,9.71428571 6.07142857,9.71428571 L20.6428571,9.71428571 C21.3714286,9.71428571 21.8571429,9.22857143 21.8571429,8.5 C21.8571429,7.77142857 21.3714286,7.28571429 20.6428571,7.28571429 L6.07142857,7.28571429 Z M4.85714286,23.0714286 C4.85714286,23.8 5.34285714,24.2857143 6.07142857,24.2857143 L8.5,24.2857143 C9.22857143,24.2857143 9.71428571,23.8 9.71428571,23.0714286 C9.71428571,22.3428571 9.22857143,21.8571429 8.5,21.8571429 L6.07142857,21.8571429 C5.34285714,21.8571429 4.85714286,22.3428571 4.85714286,23.0714286 Z M13.3571429,17 C14.0857143,17 14.5714286,16.5142857 14.5714286,15.7857143 C14.5714286,15.0571429 14.0857143,14.5714286 13.3571429,14.5714286 L6.07142857,14.5714286 C5.34285714,14.5714286 4.85714286,15.0571429 4.85714286,15.7857143 C4.85714286,16.5142857 5.34285714,17 6.07142857,17 L13.3571429,17 Z" id="path-4"></path>
        <filter x="-24.0%" y="-14.7%" width="148.0%" height="141.2%" filterUnits="objectBoundingBox" id="filter-5">
            <feOffset dx="0" dy="2" in="SourceAlpha" result="shadowOffsetOuter1"></feOffset>
            <feGaussianBlur stdDeviation="2" in="shadowOffsetOuter1" result="shadowBlurOuter1"></feGaussianBlur>
            <feColorMatrix values="0 0 0 0 0   0 0 0 0 0   0 0 0 0 0  0 0 0 0.06 0" type="matrix" in="shadowBlurOuter1"></feColorMatrix>
        </filter>
        <linearGradient x1="50%" y1="0%" x2="50%" y2="100%" id="linearGradient-6">
            <stop stop-color="#FFFFFF" offset="0%"></stop>
            <stop stop-color="#FFFFFF" stop-opacity="0.8" offset="100%"></stop>
        </linearGradient>
        <path d="M23.2142855,36.428571 C18.6964285,36.428571 15,32.7321425 15,28.2142855 C15,23.6964285 18.6964285,20 23.2142855,20 C27.7321425,20 31.428571,23.6964285 31.428571,28.2142855 C31.428571,32.7321425 27.7321425,36.428571 23.2142855,36.428571 Z M21.1607141,28.2142855 C21.1607141,29.4464283 21.9821427,30.2678569 23.2142855,30.2678569 L26.2946426,30.2678569 C26.910714,30.2678569 27.3214283,29.8571426 27.3214283,29.2410712 C27.3214283,28.6249998 26.910714,28.2142855 26.2946426,28.2142855 L23.2142855,28.2142855 L23.2142855,25.1339284 C23.2142855,24.517857 22.8035712,24.1071428 22.1874998,24.1071428 C21.5714284,24.1071428 21.1607141,24.517857 21.1607141,25.1339284 L21.1607141,28.2142855 Z" id="path-7"></path>
        <filter x="-42.6%" y="-30.4%" width="185.2%" height="185.2%" filterUnits="objectBoundingBox" id="filter-8">
            <feOffset dx="0" dy="2" in="SourceAlpha" result="shadowOffsetOuter1"></feOffset>
            <feGaussianBlur stdDeviation="2" in="shadowOffsetOuter1" result="shadowBlurOuter1"></feGaussianBlur>
            <feColorMatrix values="0 0 0 0 0   0 0 0 0 0   0 0 0 0 0  0 0 0 0.06 0" type="matrix" in="shadowBlurOuter1"></feColorMatrix>
        </filter>
    </defs>
    <g id="迭代1" stroke="none" stroke-width="1" fill="none" fill-rule="evenodd">
        <g id="icon/代码项目备份" transform="translate(5.000000, 2.000000)" fill-rule="nonzero">
            <g id="编组" filter="url(#filter-2)" transform="translate(0.000000, -0.000000)">
                <g id="形状">
                    <use fill="black" fill-opacity="1" filter="url(#filter-5)" xlink:href="#path-4"></use>
                    <use fill="url(#linearGradient-3)" xlink:href="#path-4"></use>
                </g>
                <g id="形状">
                    <use fill="black" fill-opacity="1" filter="url(#filter-8)" xlink:href="#path-7"></use>
                    <use fill="url(#linearGradient-6)" xlink:href="#path-7"></use>
                </g>
            </g>
        </g>
    </g>
</svg>
