<?xml version="1.0" encoding="UTF-8"?>
<svg width="14px" height="15px" viewBox="0 0 14 15" version="1.1" xmlns="http://www.w3.org/2000/svg" xmlns:xlink="http://www.w3.org/1999/xlink">
    <!-- Generator: Sketch 62 (91390) - https://sketch.com -->
    <title>calendar</title>
    <desc>Created with Sketch.</desc>
    <g id="迭代1" stroke="none" stroke-width="1" fill="none" fill-rule="evenodd">
        <g id="日历备份" transform="translate(0.000000, -0.000000)" fill="#FFFFFF" fill-rule="nonzero">
            <path d="M12.9981785,14.9003524 L0.951086957,14.9003524 C0.412132728,14.9003524 0,14.4882197 0,13.9492655 L0,6.02354577 L13.9492655,6.02354577 L13.9492655,13.9492655 C13.9492655,14.4882197 13.5371327,14.9003524 12.9981785,14.9003524 Z M3.48730893,7.60869565 L2.85326087,7.60869565 C2.31430664,7.60869565 1.90217391,8.02082838 1.90217391,8.55978261 C1.90217391,9.09873684 2.31430664,9.51086957 2.85326087,9.51086957 L3.48730893,9.51086957 C4.02626316,9.51086957 4.43839589,9.09872198 4.43839589,8.55978261 C4.43839589,8.02084324 4.02626316,7.60869565 3.48730893,7.60869565 Z M3.48730893,10.7789806 L2.85326087,10.7789806 C2.31430664,10.7789806 1.90217391,11.1911133 1.90217391,11.7300675 C1.90217391,12.2690217 2.31430664,12.6811545 2.85326087,12.6811545 L3.48730893,12.6811545 C4.02626316,12.6811545 4.43839589,12.2690217 4.43839589,11.7300675 C4.43839589,11.1911133 4.02626316,10.7789806 3.48730893,10.7789806 Z M7.29165676,7.60869565 L6.6576087,7.60869565 C6.11865447,7.60869565 5.70652174,8.02082838 5.70652174,8.55978261 C5.70652174,9.09873684 6.11865447,9.51086957 6.6576087,9.51086957 L7.29165676,9.51086957 C7.83061099,9.51086957 8.24274372,9.09872198 8.24274372,8.55978261 C8.24274372,8.02084324 7.83061099,7.60869565 7.29165676,7.60869565 Z M7.29165676,10.7789806 L6.6576087,10.7789806 C6.11865447,10.7789806 5.70652174,11.1911133 5.70652174,11.7300675 C5.70652174,12.2690217 6.11865447,12.6811545 6.6576087,12.6811545 L7.29165676,12.6811545 C7.83061099,12.6811545 8.24274372,12.2690217 8.24274372,11.7300675 C8.24274372,11.1911133 7.83061099,10.7789806 7.29165676,10.7789806 Z M11.0960046,7.60869565 L10.4619565,7.60869565 C9.92300229,7.60869565 9.51086957,8.02082838 9.51086957,8.55978261 C9.51086957,9.09873684 9.92300229,9.51086957 10.4619565,9.51086957 L11.0960046,9.51086957 C11.6349588,9.51086957 12.0470915,9.09872198 12.0470915,8.55978261 C12.0470915,8.02084324 11.6349588,7.60869565 11.0960046,7.60869565 L11.0960046,7.60869565 Z M11.0960046,10.7789806 L10.4619565,10.7789806 C9.92300229,10.7789806 9.51086957,11.1911133 9.51086957,11.7300675 C9.51086957,12.2690217 9.92300229,12.6811545 10.4619565,12.6811545 L11.0960046,12.6811545 C11.6349588,12.6811545 12.0470915,12.2690217 12.0470915,11.7300675 C12.0470915,11.1911133 11.6349588,10.7789806 11.0960046,10.7789806 L11.0960046,10.7789806 Z M0,2.53622198 C0,1.99728261 0.412132728,1.58513502 0.951086957,1.58513502 L2.85326087,1.58513502 L2.85326087,3.48730893 C2.85326087,4.02626316 3.2653936,4.43839589 3.80434783,4.43839589 C4.34330206,4.43839589 4.75543478,4.02626316 4.75543478,3.48730893 L4.75543478,1.58513502 L9.19383067,1.58513502 L9.19383067,3.48730893 C9.19383067,4.02626316 9.60597826,4.43839589 10.1449176,4.43839589 C10.683857,4.43839589 11.0960046,4.02626316 11.0960046,3.48730893 L11.0960046,1.58513502 L12.9981785,1.58513502 C13.5371327,1.58513502 13.9492655,1.99728261 13.9492655,2.53622198 L13.9492655,5.38948285 L0,5.38948285 L0,2.53622198 Z M10.1449176,3.80434783 C9.95470024,3.80434783 9.8278936,3.67752632 9.8278936,3.48730893 L9.8278936,0.317024032 C9.8278936,0.126806641 9.95470024,0 10.1449176,0 C10.335135,0 10.4619565,0.126806641 10.4619565,0.317024032 L10.4619565,3.48730893 C10.4619565,3.67752632 10.335135,3.80434783 10.1449176,3.80434783 Z M3.80434783,3.80434783 C3.61413043,3.80434783 3.48730893,3.67752632 3.48730893,3.48730893 L3.48730893,0.317024032 C3.48730893,0.126806641 3.61413043,0 3.80434783,0 C3.99456522,0 4.12137186,0.126806641 4.12137186,0.317024032 L4.12137186,3.48730893 C4.12137186,3.67752632 3.99456522,3.80434783 3.80434783,3.80434783 L3.80434783,3.80434783 Z" id="形状"></path>
        </g>
    </g>
</svg>
