<?xml version="1.0" encoding="UTF-8"?>
<svg width="22px" height="22px" viewBox="0 0 22 22" version="1.1" xmlns="http://www.w3.org/2000/svg" xmlns:xlink="http://www.w3.org/1999/xlink">
    <!-- Generator: Sketch 62 (91390) - https://sketch.com -->
    <title>门户网站</title>
    <desc>Created with Sketch.</desc>
    <g id="迭代1" stroke="none" stroke-width="1" fill="none" fill-rule="evenodd">
        <path d="M11.0136474,16.0110745 C12.4402198,16.0072164 13.8625058,16.1673877 15.252489,16.4884333 C15.7384412,14.7034111 15.9788977,12.8604964 15.9672229,11.0105457 L11.0110389,11.0105457 L11.0136474,16.0110745 Z M19.0061463,4.02754329 C17.8415947,4.71830168 16.574528,5.21931695 15.252489,5.51178996 C15.7386646,7.29676739 15.9791251,9.13971285 15.9672229,10.9896776 L21.6198812,10.9896776 C21.6200403,8.42910192 20.6913574,5.95539469 19.0061463,4.02754329 Z M3.02114858,17.9700715 C4.18491777,17.2801997 5.45112305,16.7800574 6.77219732,16.4884333 C6.28624514,14.7034111 6.04578865,12.8604964 6.05746343,11.0105457 L0.404805129,11.0105457 C0.404805129,13.5707762 1.3345493,16.0438931 3.02114858,17.9700715 L3.02114858,17.9700715 Z M6.77219732,5.51178996 C6.28602176,7.29676739 6.04556126,9.13971285 6.05746343,10.9896776 L11.0136474,10.9896776 L11.0136474,5.99958282 C9.58581474,5.99996628 8.16266579,5.83629539 6.77219732,5.51178996 Z" id="形状备份" fill="#FFFFFF" fill-rule="nonzero"></path>
        <path d="M19.3165599,18.189187 C22.8949689,14.0634205 22.8949689,7.93419421 19.3165599,3.80842778 C19.2994777,3.78577171 19.2802605,3.76480745 19.2591725,3.74582335 C17.175364,1.36535122 14.1655945,-5.68434189e-14 11.0019091,-5.68434189e-14 C7.83822366,-5.68434189e-14 4.82845421,1.36535122 2.74464568,3.74582335 C2.72370401,3.76418333 2.70528445,3.78523426 2.68986682,3.80842778 C-0.902563123,7.93812106 -0.895881119,14.0855727 2.70551791,18.2074466 C2.71731615,18.2256376 2.73133638,18.2422866 2.74725421,18.2570084 C4.83149331,20.6358032 7.84050607,22 11.0032134,22 C14.1659206,22 17.1749334,20.6358032 19.2591725,18.2570084 C19.2805238,18.2363793 19.2997493,18.2136582 19.3165599,18.189187 Z M0.796082821,11.3913893 L5.67140277,11.3913893 C5.68502592,13.0152812 5.88723696,14.6320941 6.27397041,16.2093219 C5.16789865,16.4928421 4.10339256,16.9189953 3.10722968,17.4770616 C1.69109558,15.7563907 0.879125946,13.6183262 0.796082821,11.3913893 L0.796082821,11.3913893 Z M3.0967956,4.53359576 C4.09689583,5.08797868 5.1649352,5.50975778 6.27397041,5.78829288 C5.88356652,7.36596398 5.67785246,8.98366435 5.66096871,10.6088339 L0.796082821,10.6088339 C0.881386589,8.38550875 1.69322482,6.25145544 3.10722968,4.53359576 L3.0967956,4.53359576 Z M21.2181695,10.6088339 L16.3532836,10.6088339 C16.3365752,8.98451195 16.1308571,7.36765505 15.7402819,5.79090139 C16.8490635,5.51036331 17.916959,5.08776425 18.9174567,4.53359576 C20.3277026,6.25281317 21.135826,8.3867355 21.2181695,10.6088339 L21.2181695,10.6088339 Z M15.5707282,10.6088339 L11.3970996,10.6088339 L11.3970996,6.37260087 C12.5928949,6.35198764 13.7841198,6.21924117 14.955118,5.97610615 C15.3410899,7.49090184 15.5477103,9.04580789 15.5707282,10.6088339 L15.5707282,10.6088339 Z M11.3970996,5.59004551 L11.3970996,0.824283308 C12.7639629,1.0851351 13.9795323,2.7911058 14.7412195,5.22224448 C13.6426177,5.44603062 12.5258931,5.569141 11.4049251,5.59004551 L11.3970996,5.59004551 Z M10.6145442,0.824283308 L10.6145442,5.59004551 C9.49339734,5.56771376 8.3766447,5.442854 7.27824979,5.21702745 C8.03732851,2.7911058 9.25550636,1.09817768 10.6223698,0.824283308 L10.6145442,0.824283308 Z M10.6145442,6.37260087 L10.6145442,10.6088339 L6.44091555,10.6088339 C6.46515311,9.04589783 6.67175467,7.49113353 7.05652578,5.97610615 C8.23009068,6.21971269 9.423957,6.35246154 10.6223698,6.37260087 L10.6145442,6.37260087 Z M6.44091555,11.3913893 L10.6145442,11.3913893 L10.6145442,15.6250139 C9.41866671,15.6464856 8.22744095,15.7801055 7.05652578,16.0241171 C6.67657284,14.5084901 6.47435585,12.9537828 6.45395815,11.3913893 L6.44091555,11.3913893 Z M10.6145442,16.4075692 L10.6145442,21.1733315 C9.24768083,20.9124797 8.02950295,19.206509 7.27042423,16.7779788 C8.37402953,16.5520636 9.4960652,16.4280721 10.6223698,16.4075692 L10.6145442,16.4075692 Z M11.3970996,21.1733315 L11.3970996,16.4075692 C12.5207668,16.4288424 13.6401346,16.5528285 14.7412195,16.7779788 C13.9873578,19.2065089 12.7717885,20.8994371 11.4049251,21.1733315 L11.3970996,21.1733315 Z M11.3970996,15.6250139 L11.3970996,11.3913893 L15.5707282,11.3913893 C15.5499091,12.95408 15.3459214,14.5089394 14.9629435,16.0241171 C13.7920308,15.7800903 12.6008036,15.6464703 11.4049251,15.6250139 L11.3970996,15.6250139 Z M16.3532836,11.3913893 L21.2181695,11.3913893 C21.1380861,13.617098 20.3298319,15.7550313 18.9174567,17.4770616 C17.9173564,16.9226787 16.8493171,16.5008996 15.7402819,16.2223645 C16.1315351,14.6413101 16.3372558,13.020056 16.3532836,11.3913893 L16.3532836,11.3913893 Z M18.385319,3.93624516 C17.4774968,4.41917891 16.5138371,4.78887381 15.5159493,5.03703972 C14.9968543,3.31280938 14.2377756,1.92768637 13.3300113,1.04339882 C15.2600891,1.49679255 17.0165691,2.50191968 18.385319,3.93624516 L18.385319,3.93624516 Z M8.69467502,1.04339882 C7.78691078,1.91986084 7.02783208,3.30498384 6.49830295,5.02921416 C5.50033596,4.78130005 4.53664602,4.41159355 3.62893325,3.92841961 C5.00152054,2.49521672 6.76175877,1.49273295 8.69467502,1.04339882 L8.69467502,1.04339882 Z M3.63936733,18.0613696 C4.5470801,17.5781957 5.51077002,17.2084892 6.50873701,16.9605751 C7.03044059,18.6848054 7.79734486,20.0699284 8.7051091,20.9463904 C6.77219285,20.4970563 5.01195461,19.4945725 3.63936733,18.0613696 Z M13.3300113,20.9463904 C14.2377756,20.0699284 14.9968543,18.6848054 15.5289919,16.9605751 C16.5268797,17.208741 17.4905394,17.5784359 18.3983616,18.0613696 C17.025066,19.4950089 15.2638632,20.4975258 13.3300113,20.9463904 Z" id="形状备份-2" fill="#FFFFFF" fill-rule="nonzero"></path>
    </g>
</svg>