<?xml version="1.0" encoding="UTF-8"?>
<svg width="14px" height="14px" viewBox="0 0 14 14" version="1.1" xmlns="http://www.w3.org/2000/svg" xmlns:xlink="http://www.w3.org/1999/xlink">
    <!-- Generator: Sketch 62 (91390) - https://sketch.com -->
    <title>favorite</title>
    <desc>Created with Sketch.</desc>
    <g id="迭代1" stroke="none" stroke-width="1" fill="none" fill-rule="evenodd">
        <path d="M10.7594127,13.4455734 C10.5913742,13.4383231 10.4281348,13.3975028 10.2793067,13.3206892 L7.00014934,11.6811105 L3.69698248,13.3182896 C3.35849197,13.4959263 2.9480009,13.4671177 2.63833293,13.2438756 C2.32625146,13.0110212 2.17022467,12.6197266 2.23504052,12.2356445 L2.9143932,8.70442243 L0.316988065,6.28226842 C0.043327351,6.00379464 -0.0622948588,5.60048828 0.0361286903,5.22360491 C0.151363065,4.84432199 0.475442306,4.56826172 0.869122552,4.51784319 L4.47715827,3.86010045 L6.09272746,0.58094308 C6.26316552,0.230440848 6.6136538,0.00718470982 7.00256284,0 C7.39384353,0 7.74673137,0.225655692 7.91237032,0.580929129 L9.52553996,3.8600865 L13.1311761,4.4914481 C13.5176717,4.54425223 13.8345383,4.82271205 13.9377609,5.19720982 C14.0625935,5.56928013 13.96417,5.97978516 13.6857102,6.25584542 L11.0882911,8.70442243 L11.7436482,12.2356445 C11.8132632,12.6221261 11.6572224,13.0134068 11.3403558,13.2438756 C11.1759818,13.376481 10.9705951,13.4477711 10.7594127,13.4455734 Z" id="我的收藏备份" fill="#0071EB" fill-rule="nonzero"></path>
    </g>
</svg>
