<?xml version="1.0" encoding="UTF-8"?>
<svg width="14px" height="14px" viewBox="0 0 14 14" version="1.1" xmlns="http://www.w3.org/2000/svg" xmlns:xlink="http://www.w3.org/1999/xlink">
    <!-- Generator: Sketch 62 (91390) - https://sketch.com -->
    <title>home</title>
    <desc>Created with Sketch.</desc>
    <g id="迭代1" stroke="none" stroke-width="1" fill="none" fill-rule="evenodd">
        <path d="M13.6617676,6.07060216 L7.47608343,0.208579404 L7.47330523,0.205801191 C7.46648788,0.199635414 7.4595408,0.193614609 7.45246866,0.187742819 L7.44552313,0.1807973 C7.43751752,0.17419386 7.4294135,0.167710645 7.4212138,0.161349835 L7.41774104,0.158571621 C7.40859841,0.151470046 7.39933638,0.14452353 7.38995893,0.13773505 C7.10119432,-0.0703313474 6.70446947,-0.039814055 6.450924,0.209968497 L0.265934355,6.07060216 C-0.0577270864,6.37689979 -0.0903710573,6.90962153 0.192311788,7.25967597 C0.474300086,7.60973041 0.966043222,7.64584714 1.28970468,7.3395495 L1.82242641,6.83460986 L1.82242641,11.7798234 C1.82242641,12.9438933 2.69686796,13.8912629 3.77064606,13.8912629 L4.93193777,13.8912629 C5.36186574,13.8912629 5.70983653,13.5141209 5.70983653,13.0487707 L5.70983653,9.07106878 C5.70983653,8.83631005 5.88625285,8.64461357 6.10295323,8.64461357 L7.82405422,8.64461357 C8.04144913,8.64461357 8.21856001,8.83631005 8.21856001,9.07106878 L8.21856001,12.9501443 C8.21856001,13.0077921 8.22342188,13.0647454 8.23453472,13.1216987 L8.25328764,13.2203252 C8.32899386,13.6113582 8.64640433,13.8912629 9.01451714,13.8912629 L10.1570559,13.8912629 C11.2315286,13.8912629 12.1059701,12.9431988 12.1059701,11.7798234 L12.1059701,6.83460986 L12.6386919,7.3395495 C12.785937,7.47915454 12.9686043,7.54791524 13.150577,7.54791524 C13.3658883,7.54791524 13.5818941,7.4506779 13.7360848,7.25967597 C14.0180731,6.90962153 13.9861236,6.37759435 13.6624622,6.07060216 L13.6617676,6.07060216 Z" id="sh备份" fill="#FFFFFF" fill-rule="nonzero"></path>
    </g>
</svg>
