<?xml version="1.0" encoding="UTF-8"?>
<svg width="15px" height="15px" viewBox="0 0 15 15" version="1.1" xmlns="http://www.w3.org/2000/svg" xmlns:xlink="http://www.w3.org/1999/xlink">
    <!-- Generator: Sketch 63.1 (92452) - https://sketch.com -->
    <title>信息中心</title>
    <desc>Created with Sketch.</desc>
    <g id="迭代二" stroke="none" stroke-width="1" fill="none" fill-rule="evenodd">
        <path d="M7.47519999,0 C3.34677019,0 0,2.90015059 0,6.47749048 C0,8.59439993 1.17175139,10.4740672 2.9838654,11.6560156 C2.97538547,12.6157537 2.98389553,14.4974543 2.98389553,14.4974543 C2.98389553,14.4974543 4.79584385,13.3147529 5.68058807,12.7672176 C6.25549106,12.8899431 6.85658695,12.9551768 7.47518494,12.9551768 C11.6036298,12.9551768 14.9504,10.0550111 14.9504,6.47749048 C14.9504,2.90019576 11.6036449,0 7.47519999,0 L7.47519999,0 Z M3.89133823,7.46783467 C3.34157378,7.46783467 2.8958579,7.02492032 2.8958579,6.47810803 C2.8958579,5.93156685 3.34155872,5.48832114 3.89133823,5.48832114 C4.44111774,5.48832114 4.88680351,5.93156685 4.88680351,6.47810803 C4.88680351,7.02492031 4.44110268,7.46783467 3.89133823,7.46783467 L3.89133823,7.46783467 Z M7.62687473,7.46783467 C7.07708015,7.46783467 6.63140945,7.02492032 6.63140945,6.47810803 C6.63140945,5.93156685 7.07706509,5.48832114 7.62687473,5.48832114 C8.17662412,5.48832114 8.62237013,5.93156685 8.62237013,6.47810803 C8.62237013,7.02492031 8.17662412,7.46783467 7.62687473,7.46783467 L7.62687473,7.46783467 Z M11.3624112,7.46783467 C10.812692,7.46783467 10.366946,7.02492032 10.366946,6.47810803 C10.366946,5.93156685 10.812692,5.48832114 11.3624112,5.48832114 C11.9121757,5.48832114 12.3579066,5.93156685 12.3579066,6.47810803 C12.3579066,7.02492031 11.9121757,7.46783467 11.3624112,7.46783467 L11.3624112,7.46783467 Z" id="信息中心" fill="#FFFFFF" fill-rule="nonzero"></path>
    </g>
</svg>