<?xml version="1.0" encoding="UTF-8"?>
<svg width="42px" height="41px" viewBox="0 0 42 41" version="1.1" xmlns="http://www.w3.org/2000/svg" xmlns:xlink="http://www.w3.org/1999/xlink">
    <!-- Generator: Sketch 62 (91390) - https://sketch.com -->
    <title>ing</title>
    <desc>Created with Sketch.</desc>
    <defs>
        <linearGradient x1="50%" y1="0%" x2="50%" y2="100%" id="linearGradient-1">
            <stop stop-color="#FFFFFF" offset="0%"></stop>
            <stop stop-color="#FFFFFF" stop-opacity="0.8" offset="100%"></stop>
        </linearGradient>
        <path d="M16.9547872,0.0244902365 C7.60277777,0.0244902365 0.0231087392,7.43536497 0.0231087392,16.578391 C0.0231087392,25.7214169 7.60277777,33.1363106 16.9547872,33.1363106 C26.3067967,33.1363106 33.8864657,25.7214169 33.8864657,16.578391 C33.8864657,7.43536497 26.3067967,0.0244902365 16.9547872,0.0244902365 Z M22.8525414,23.237729 L22.3521868,23.7240174 C21.9354081,24.1272457 21.27393,24.1272457 20.8571513,23.7240174 L15.6647163,18.6481309 C15.205536,18.5344766 14.8814877,18.1244563 14.8770095,17.6514406 L14.8770095,7.3047503 C14.8796557,7.02691245 14.9928493,6.76156916 15.1915687,6.5673747 C15.3902881,6.37318025 15.6581678,6.26612742 15.9359929,6.26978487 L16.641312,6.26978487 C17.2240544,6.26978487 17.7002955,6.73205524 17.7002955,7.3047503 L17.7002955,16.7351285 L22.8525414,21.7728354 C23.0510839,21.9647894 23.1631948,22.2291202 23.1631948,22.5052822 C23.1631948,22.7814442 23.0510839,23.0457751 22.8525414,23.237729 L22.8525414,23.237729 Z" id="path-2"></path>
        <filter x="-20.7%" y="-15.1%" width="141.3%" height="142.3%" filterUnits="objectBoundingBox" id="filter-3">
            <feOffset dx="0" dy="2" in="SourceAlpha" result="shadowOffsetOuter1"></feOffset>
            <feGaussianBlur stdDeviation="2" in="shadowOffsetOuter1" result="shadowBlurOuter1"></feGaussianBlur>
            <feColorMatrix values="0 0 0 0 0   0 0 0 0 0   0 0 0 0 0  0 0 0 0.06 0" type="matrix" in="shadowBlurOuter1"></feColorMatrix>
        </filter>
    </defs>
    <g id="迭代1" stroke="none" stroke-width="1" fill="none" fill-rule="evenodd">
        <g id="icon/代码项目备份" transform="translate(4.000000, 2.000000)" fill-rule="nonzero">
            <g id="编组" transform="translate(0.000000, -0.000000)">
                <g id="形状">
                    <use fill="black" fill-opacity="1" filter="url(#filter-3)" xlink:href="#path-2"></use>
                    <use fill="url(#linearGradient-1)" xlink:href="#path-2"></use>
                </g>
            </g>
        </g>
    </g>
</svg>
