<?xml version="1.0" encoding="UTF-8"?>
<svg width="14px" height="14px" viewBox="0 0 14 14" version="1.1" xmlns="http://www.w3.org/2000/svg" xmlns:xlink="http://www.w3.org/1999/xlink">
    <!-- Generator: Sketch 63.1 (92452) - https://sketch.com -->
    <title>领导驾驶舱</title>
    <desc>Created with Sketch.</desc>
    <g id="迭代二" stroke="none" stroke-width="1" fill="none" fill-rule="evenodd">
        <path d="M7,14 C3.13409091,14 0,10.8659091 0,7 C0,3.13409091 3.13409091,0 7,0 C10.8659091,0 14,3.13409091 14,7 C14,10.8659091 10.8659091,14 7,14 Z M7,12.6 C10.0927946,12.6 12.6,10.0927946 12.6,7 C12.6,3.9072054 10.0927946,1.4 7,1.4 C3.9072054,1.4 1.4,3.9072054 1.4,7 C1.4,10.0927946 3.9072054,12.6 7,12.6 Z M8.19509091,9.30490909 L7.20490909,10.2950909 L4.2,7.28954546 C3.93990113,7.01414231 3.94607791,6.58179858 4.21393825,6.31393825 C4.48179858,6.04607791 4.91414231,6.03990113 5.18954546,6.3 L8.19509091,9.30490909 Z M0.320727271,9.1 L13.6792727,9.1 C12.7877273,11.9400909 10.1347273,14 7,14 C3.86527273,14 1.21227273,11.9400909 0.320727271,9.1 Z" id="领导驾驶舱" fill="#FFFFFF" fill-rule="nonzero"></path>
    </g>
</svg>