<?xml version="1.0" encoding="UTF-8"?>
<svg width="14px" height="14px" viewBox="0 0 14 14" version="1.1" xmlns="http://www.w3.org/2000/svg" xmlns:xlink="http://www.w3.org/1999/xlink">
    <!-- Generator: Sketch 62 (91390) - https://sketch.com -->
    <title>map</title>
    <desc>Created with Sketch.</desc>
    <g id="迭代1" stroke="none" stroke-width="1" fill="none" fill-rule="evenodd">
        <g id="编组备份" fill="#FFFFFF" fill-rule="nonzero">
            <path d="M5.23902128,9.59139055 C5.2620141,9.62612113 5.28765711,9.65902247 5.31572118,9.68980057 C5.96029169,10.5051939 6.60975385,11.0478506 6.63790829,11.0710584 L7.09035804,11.447138 L7.54069174,11.0682553 C7.56883244,11.0450475 8.21621977,10.4960565 8.85936126,9.68279287 C8.8811813,9.6581835 8.909322,9.62445038 8.93676193,9.58298131 C9.85646003,8.33034901 10.9999097,6.5153973 11.2581639,4.94365382 C11.3081246,4.58587665 11.3095399,4.36866559 11.3095399,4.34477073 C11.3179766,3.17087194 10.8704597,2.06728368 10.0492816,1.24135129 C9.2541418,0.441416065 8.20214942,0.000687028894 7.08754122,0.000687028894 C5.97713764,0.000687028894 4.92798956,0.441416065 4.13283606,1.24135129 C3.30743954,2.07150204 2.85707836,3.18072393 2.86554256,4.36377395 C2.86554256,4.38274969 2.8669441,4.599947 2.91480253,4.94087822 C3.19204617,6.62298602 4.48256124,8.56657703 5.23900754,9.59143177 L5.23902128,9.59139055 Z M7.08755496,2.84396985 C8.05722754,2.84396985 8.84673367,3.63195077 8.84673367,4.60129358 C8.84673367,5.57063639 8.05722754,6.35861731 7.08755496,6.35861731 C6.11788238,6.35861731 5.32837626,5.57063639 5.32837626,4.60129358 C5.32837626,3.63195077 6.11789612,2.84396985 7.08755496,2.84396985 Z" id="形状"></path>
            <path d="M13.7280327,3.48720752 L13.2477171,3.6273889 L13.2477171,3.62901029 L11.8636149,4.03765507 C11.8498606,4.28466944 11.8443644,4.47890625 11.7983335,4.85468357 L13.2477308,4.36297699 L13.2477308,12.0733374 L9.13388427,13.2847617 L9.13388427,13.2911648 L4.22199867,11.8709662 L0.713493247,13.0470909 L0.713493247,5.43641842 L2.16600974,5.0696824 C2.1309163,4.8604821 2.11690091,4.63732137 2.11690091,4.41418813 L2.11690091,4.38628101 L0.0118031564,4.9162551 L0.0118031564,13.9815052 L0.713493247,13.7444253 L4.22576358,12.5670364 L9.13388427,13.9885129 L13.9349658,12.5746899 L13.9349658,3.42610317 L13.7280465,3.48720752 L13.7280327,3.48720752 Z" id="路径"></path>
        </g>
    </g>
</svg>
