<?xml version="1.0" encoding="UTF-8"?>
<svg width="14px" height="15px" viewBox="0 0 14 15" version="1.1" xmlns="http://www.w3.org/2000/svg" xmlns:xlink="http://www.w3.org/1999/xlink">
    <!-- Generator: Sketch 63.1 (92452) - https://sketch.com -->
    <title>服务目录</title>
    <desc>Created with Sketch.</desc>
    <g id="迭代二" stroke="none" stroke-width="1" fill="none" fill-rule="evenodd">
        <g id="服务目录" fill="#FFFFFF" fill-rule="nonzero">
            <path d="M12.625739,0.00779023438 L1.34995549,0.00779023438 C0.634001068,0.00779023438 0.00779023438,0.544257479 0.00779023438,1.17146545 L0.00779023438,13.0734598 C0.00779023438,13.6996706 0.634001068,14.2361378 1.34995549,14.2361378 L12.625739,14.2361378 C13.3416934,14.2361378 13.9679042,13.6996706 13.9679042,13.0734598 L13.9679042,1.17146545 C13.9679042,0.544257479 13.3416934,0.00779023438 12.625739,0.00779023438 Z M11.2835737,10.3881321 C11.2835737,10.6573629 11.0143429,10.9255965 10.6563657,10.9255965 L3.3193287,10.9255965 C2.96035434,10.9255965 2.69212073,10.6563657 2.69212073,10.3881321 C2.69212073,10.1198985 2.9613515,9.85166489 3.3193287,9.85166489 L10.7461093,9.85166489 C11.0153401,9.85166489 11.2835737,10.1198985 11.2835737,10.3881321 Z M11.2835737,7.1673344 C11.2835737,7.43556801 11.0143429,7.70380165 10.6563657,7.70380165 L3.3193287,7.70380165 C2.96035434,7.70380165 2.69212073,7.43457088 2.69212073,7.16633724 C2.69212073,6.89810361 2.9613515,6.62987002 3.3193287,6.62987002 L10.7461093,6.62987002 C11.0153401,6.62987002 11.2835737,6.89910079 11.2835737,7.16633724 L11.2835737,7.1673344 Z M10.6563657,4.48200677 L3.3193287,4.48200677 C2.96035434,4.48200677 2.69212073,4.212776 2.69212073,3.94553953 C2.69212073,3.67630876 2.9613515,3.40807515 3.3193287,3.40807515 L10.7461093,3.40807515 C11.1050837,3.40807515 11.3723201,3.67730592 11.3723201,3.94553953 C11.2825766,4.21377314 11.0143429,4.48200677 10.6563657,4.48200677 L10.6563657,4.48200677 Z" id="形状"></path>
        </g>
    </g>
</svg>