<?xml version="1.0" encoding="UTF-8"?>
<svg width="13px" height="14px" viewBox="0 0 13 14" version="1.1" xmlns="http://www.w3.org/2000/svg" xmlns:xlink="http://www.w3.org/1999/xlink">
    <!-- Generator: Sketch 62 (91390) - https://sketch.com -->
    <title>other</title>
    <desc>Created with Sketch.</desc>
    <g id="迭代1" stroke="none" stroke-width="1" fill="none" fill-rule="evenodd">
        <path d="M9.21666667,7.97222222 C10.9063218,7.97222222 12.3059519,9.31358832 12.400469,10.9812327 L12.4055556,11.1611111 L12.4055556,12.9888889 C12.4055556,13.3810185 12.1114583,13.6751157 11.7329443,13.7513632 L11.6277778,13.7666667 L0.777777778,13.7666667 C0.385648148,13.7666667 0.0588734568,13.4725694 0.00713413066,13.0940554 L-1.64313008e-13,12.9888889 L-1.64313008e-13,11.1611111 C-1.64313008e-13,9.47145594 1.3413661,8.07182587 3.00901044,7.97730876 L3.18888889,7.97222222 L9.21666667,7.97222222 Z M10.1888889,10.2083333 L8.28333333,10.2083333 C8.12225028,10.2083333 7.99166667,10.432191 7.99166667,10.7083333 C7.99166667,10.9844757 8.12225028,11.2083333 8.28333333,11.2083333 L10.1888889,11.2083333 C10.3499719,11.2083333 10.4805556,10.9844757 10.4805556,10.7083333 C10.4805556,10.432191 10.3499719,10.2083333 10.1888889,10.2083333 Z M6.18333333,2.41140441e-13 C7.98746352,2.41140441e-13 9.45,1.46253648 9.45,3.26666667 C9.45,5.07079685 7.98746352,6.53333333 6.18333333,6.53333333 C4.37920315,6.53333333 2.91666667,5.07079685 2.91666667,3.26666667 C2.91666667,1.46253648 4.37920315,2.41140441e-13 6.18333333,2.41140441e-13 Z" id="形状结合备份-2" fill="#8C8C8C" fill-rule="nonzero"></path>
    </g>
</svg>
