<?xml version="1.0" encoding="UTF-8"?>
<svg width="14px" height="10px" viewBox="0 0 14 10" version="1.1" xmlns="http://www.w3.org/2000/svg" xmlns:xlink="http://www.w3.org/1999/xlink">
    <!-- Generator: Sketch 62 (91390) - https://sketch.com -->
    <title>transaction</title>
    <desc>Created with Sketch.</desc>
    <g id="迭代1" stroke="none" stroke-width="1" fill="none" fill-rule="evenodd">
        <path d="M2.1,4.2 C2.8721875,4.2 3.5,3.5721875 3.5,2.8 C3.5,2.0278125 2.8721875,1.4 2.1,1.4 C1.3278125,1.4 0.7,2.0278125 0.7,2.8 C0.7,3.5721875 1.3278125,4.2 2.1,4.2 Z M11.9,4.2 C12.6721875,4.2 13.3,3.5721875 13.3,2.8 C13.3,2.0278125 12.6721875,1.4 11.9,1.4 C11.1278125,1.4 10.5,2.0278125 10.5,2.8 C10.5,3.5721875 11.1278125,4.2 11.9,4.2 Z M12.6,4.9 L11.2,4.9 C10.815,4.9 10.4671875,5.0553125 10.2134375,5.306875 C11.095,5.7903125 11.720625,6.663125 11.85625,7.7 L13.3,7.7 C13.6871875,7.7 14,7.3871875 14,7 L14,6.3 C14,5.5278125 13.3721875,4.9 12.6,4.9 Z M7,4.9 C8.3540625,4.9 9.45,3.8040625 9.45,2.45 C9.45,1.0959375 8.3540625,0 7,0 C5.6459375,0 4.55,1.0959375 4.55,2.45 C4.55,3.8040625 5.6459375,4.9 7,4.9 Z M8.68,5.6 L8.4984375,5.6 C8.0434375,5.81875 7.538125,5.95 7,5.95 C6.461875,5.95 5.95875,5.81875 5.5015625,5.6 L5.32,5.6 C3.92875,5.6 2.8,6.72875 2.8,8.12 L2.8,8.75 C2.8,9.3296875 3.2703125,9.8 3.85,9.8 L10.15,9.8 C10.7296875,9.8 11.2,9.3296875 11.2,8.75 L11.2,8.12 C11.2,6.72875 10.07125,5.6 8.68,5.6 Z M3.7865625,5.306875 C3.5328125,5.0553125 3.185,4.9 2.8,4.9 L1.4,4.9 C0.6278125,4.9 0,5.5278125 0,6.3 L0,7 C0,7.3871875 0.3128125,7.7 0.7,7.7 L2.1415625,7.7 C2.279375,6.663125 2.905,5.7903125 3.7865625,5.306875 Z" id="形状备份" fill="#FFFFFF" fill-rule="nonzero"></path>
    </g>
</svg>
