<?xml version="1.0" encoding="UTF-8"?>
<svg width="215px" height="222px" viewBox="0 0 215 222" version="1.1" xmlns="http://www.w3.org/2000/svg" xmlns:xlink="http://www.w3.org/1999/xlink">
    <title>暂无应用，请创建</title>
    <g id="新主题" stroke="none" stroke-width="1" fill="none" fill-rule="evenodd">
        <g id="v2.0插画库" transform="translate(-215.000000, -8372.000000)">
            <g id="编组" transform="translate(215.062874, 8372.502961)">
                <path d="M52.3271263,126.337039 C50.1671263,126.687039 47.9571263,126.517039 45.8771263,125.837039 C43.7971263,125.167039 41.9071263,124.007039 40.3671263,122.457039 C38.8171263,120.907039 37.6671263,119.017039 36.9971263,116.937039 C36.3271263,114.847039 36.1671263,112.637039 36.5171263,110.477039 C36.8771263,108.317039 37.7371263,106.277039 39.0371263,104.517039 L10.6871263,104.657039 C10.1471263,104.657039 9.63712629,104.877039 9.25712629,105.247039 C8.87712629,105.627039 8.66712629,106.147039 8.66712629,106.677039 L9.06712629,185.387039 C9.06712629,185.927039 9.28712629,186.437039 9.65712629,186.817039 C10.0371263,187.197039 10.5571263,187.407039 11.0871263,187.407039 L89.8771263,187.007039 C90.4171263,187.007039 90.9271263,186.787039 91.3071263,186.417039 C91.6871263,186.037039 91.8971263,185.517039 91.8971263,184.987039 L91.4971263,106.197039 C91.4971263,105.657039 91.2771263,105.147039 90.9071263,104.767039 C90.5271263,104.387039 90.0071263,104.177039 89.4771263,104.177039 L61.1171263,104.317039 C62.9371263,106.687039 63.9271263,109.597039 63.9271263,112.587039 C63.9471263,114.777039 63.4471263,116.937039 62.4671263,118.887039 C61.4871263,120.847039 60.0571263,122.547039 58.2971263,123.837039 C56.5371263,125.137039 54.4871263,125.987039 52.3271263,126.337039 Z" id="路径" fill="#424445"></path>
                <path d="M164.497126,106.037039 L142.737126,105.877039 C144.227126,103.877039 145.137126,101.497039 145.357126,99.0170388 C145.577126,96.5270388 145.097126,94.0270388 143.977126,91.7970388 C142.867126,89.5670388 141.147126,87.6970388 139.027126,86.3870388 C136.897126,85.0670388 134.447126,84.3770388 131.957126,84.3770388 C129.457126,84.3770388 127.017126,85.0670388 124.887126,86.3870388 C122.767126,87.6970388 121.047126,89.5670388 119.927126,91.7970388 C118.817126,94.0270388 118.337126,96.5270388 118.557126,99.0170388 C118.777126,101.497039 119.687126,103.877039 121.177126,105.877039 L93.5071263,105.717039" id="路径" stroke="#323940" stroke-width="2.01666665" stroke-linecap="round" stroke-dasharray="0,0"></path>
                <path d="M152.837126,0.697038812 C145.797126,-0.702961188 138.497126,0.017038812 131.867126,2.75703881 C125.237126,5.50703881 119.567126,10.1570388 115.577126,16.1270388 C111.587126,22.0970388 109.457126,29.1170388 109.457126,36.2970388 C109.457126,45.9270388 113.277126,55.1570388 120.087126,61.9670388 C126.897126,68.7770388 136.127126,72.5970388 145.757126,72.5970388 C152.937126,72.5970388 159.957126,70.4670388 165.927126,66.4770388 C171.897126,62.4870388 176.547126,56.8170388 179.297126,50.1870388 C182.037126,43.5570388 182.757126,36.2570388 181.357126,29.2170388 C179.957126,22.1770388 176.497126,15.7070388 171.427126,10.6270388 C166.347126,5.55703881 159.877126,2.09703881 152.837126,0.697038812 Z" id="路径" fill="#4D9AFF"></path>
                <path d="M162.257126,37.9570388 L162.257126,34.6470388 C162.257126,34.2070388 162.087126,33.7870388 161.777126,33.4770388 C161.467126,33.1670388 161.037126,32.9970388 160.607126,32.9970388 L149.047126,32.9970388 L149.047126,21.4570388 C149.047126,21.2470388 149.007126,21.0270388 148.927126,20.8270388 C148.847126,20.6270388 148.727126,20.4370388 148.567126,20.2870388 C148.417126,20.1270388 148.237126,20.0070388 148.027126,19.9270388 C147.827126,19.8470388 147.617126,19.8070388 147.397126,19.8070388 L144.107126,19.8070388 C143.667126,19.8070388 143.247126,19.9770388 142.937126,20.2870388 C142.627126,20.5970388 142.457126,21.0270388 142.457126,21.4570388 L142.457126,32.9970388 L130.897126,32.9970388 C130.467126,32.9970388 130.037126,33.1670388 129.727126,33.4770388 C129.417126,33.7870388 129.247126,34.2070388 129.247126,34.6470388 L129.247126,37.9570388 C129.247126,38.3970388 129.417126,38.8170388 129.727126,39.1270388 C130.037126,39.4370388 130.467126,39.6070388 130.897126,39.6070388 L142.457126,39.6070388 L142.457126,51.1470388 C142.457126,51.5770388 142.627126,52.0070388 142.937126,52.3170388 C143.247126,52.6270388 143.667126,52.7970388 144.107126,52.7970388 L147.397126,52.7970388 C147.837126,52.7970388 148.257126,52.6270388 148.567126,52.3170388 C148.877126,52.0070388 149.047126,51.5770388 149.047126,51.1470388 L149.047126,39.6070388 L160.607126,39.6070388 C161.037126,39.6070388 161.467126,39.4370388 161.777126,39.1270388 C162.087126,38.8170388 162.257126,38.3970388 162.257126,37.9570388 Z" id="路径" fill="#FFFFFF"></path>
                <path d="M213.117126,219.617039 L205.047126,191.387039 C203.22046,149.707039 202.253793,128.777039 202.147126,128.597039 C201.627126,127.757039 177.707126,118.177039 166.657126,113.797039 C165.907126,113.457039 165.057126,113.407039 164.277126,113.657039 C163.347126,114.197039 163.387126,115.537039 163.647126,116.657039 C165.967126,126.347039 175.207126,132.337039 183.817126,137.257039 C180.867126,145.287039 180.547126,154.047039 182.887126,162.277039" id="路径" stroke="#9B9EA0" stroke-width="2.01666665" stroke-linecap="round" stroke-linejoin="round" stroke-dasharray="0,0"></path>
                <path d="M193.407126,123.187039 C191.387126,117.847039 189.497126,112.237039 187.197126,106.147039 C175.767126,75.3370388 168.807126,49.4870388 165.017126,50.9370388 C160.317126,52.7670388 159.247126,63.3370388 165.897126,87.2370388 C168.59046,97.0370388 170.607126,104.847039 171.947126,110.667039 C153.577126,115.807039 144.227126,118.957039 138.677126,130.347039 C132.827126,142.447039 135.757126,148.497039 143.897126,162.977039 C148.857126,171.837039 157.743793,181.920372 170.557126,193.227039 C171.73046,201.807039 173.077126,210.547039 174.597126,219.447039" id="路径" stroke="#9B9EA0" stroke-width="2.01666665" stroke-linecap="round" stroke-linejoin="round" stroke-dasharray="0,0"></path>
                <path d="M138.497126,153.257039 C148.457126,158.857039 161.807126,158.737039 166.727126,148.717039 C169.677126,142.877039 171.247126,136.447039 171.327126,129.917039" id="路径" stroke="#9B9EA0" stroke-width="2.01666665" stroke-linecap="round" stroke-linejoin="round" stroke-dasharray="0,0"></path>
                <path d="M162.977126,151.407039 C157.187126,133.257039 156.487126,128.677039 152.897126,117.127039" id="路径" stroke="#9B9EA0" stroke-width="2.01666665" stroke-linecap="round" stroke-linejoin="round" stroke-dasharray="0,0"></path>
                <path d="M151.287126,155.667039 C146.997126,145.057039 144.777126,139.717039 140.177126,129.227039" id="路径" stroke="#9B9EA0" stroke-width="2.01666665" stroke-linecap="round" stroke-linejoin="round" stroke-dasharray="0,0"></path>
                <line x1="93.4271263" y1="186.377039" x2="154.877126" y2="186.477039" id="Vector" stroke="#323940" stroke-width="2.01666665" stroke-linecap="round" stroke-dasharray="0,0"></line>
                <path d="M91.3871263,101.817039 L91.3871263,74.6770388 C89.3871263,76.1370388 87.0171263,77.0170388 84.5471263,77.2170388 C82.0671263,77.4170388 79.5871263,76.9370388 77.3771263,75.8070388 C75.1671263,74.6870388 73.3071263,72.9770388 72.0071263,70.8570388 C70.7171263,68.7470388 70.0271263,66.3170388 70.0271263,63.8370388 C70.0271263,61.3570388 70.7171263,58.9170388 72.0071263,56.8070388 C73.3071263,54.6870388 75.1671263,52.9770388 77.3771263,51.8570388 C79.5871263,50.7370388 82.0671263,50.2470388 84.5471263,50.4470388 C87.0171263,50.6470388 89.3871263,51.5270388 91.3871263,52.9970388 L91.3871263,25.7670388 C91.3871263,25.0670388 91.1071263,24.4070388 90.6171263,23.9070388 C90.1271263,23.4170388 89.4671263,23.1370388 88.7671263,23.1270388 L11.2871263,23.1270388 C10.5871263,23.1370388 9.92712629,23.4170388 9.43712629,23.9070388 C8.94712629,24.4070388 8.66712629,25.0670388 8.66712629,25.7670388 L8.66712629,101.817039" id="路径" stroke="#323940" stroke-width="2.01666665" stroke-linecap="round" stroke-dasharray="0,0"></path>
                <path d="M47.9508249,169.097039 L22.9234277,169.097039 C22.430277,169.097039 21.9371263,168.797039 21.9371263,168.297039 C21.9371263,167.797039 22.3069893,167.497039 22.9234277,167.497039 L47.9508249,167.497039 C48.4439756,167.497039 48.9371263,167.797039 48.9371263,168.297039 C48.9371263,168.797039 48.4439756,169.097039 47.9508249,169.097039 Z" id="路径" fill="#9B9EA0" fill-rule="nonzero"></path>
                <path d="M47.9508249,176.197039 L22.9234277,176.197039 C22.430277,176.197039 21.9371263,175.897039 21.9371263,175.397039 C21.9371263,174.897039 22.3069893,174.597039 22.9234277,174.597039 L47.9508249,174.597039 C48.4439756,174.597039 48.9371263,174.897039 48.9371263,175.397039 C48.9371263,175.897039 48.4439756,176.197039 47.9508249,176.197039 Z" id="路径" fill="#9B9EA0" fill-rule="nonzero"></path>
                <path d="M94.8502473,95.3081984 C94.7183787,95.3081984 94.4546416,95.3081984 94.322773,95.1764104 L5.17961917,34.0267821 C4.78401346,33.7632061 4.65214489,33.1042662 4.91588203,32.7089022 C5.17961917,32.3135382 5.83896202,32.1817502 6.23456773,32.4453262 L95.3777215,93.5949545 C95.7733273,93.8585305 95.9051958,94.5174704 95.6414587,94.9128344 C95.5095901,95.1764104 95.245853,95.3081984 94.8502473,95.3081984 Z" id="路径备份-54" fill="#323940" fill-rule="nonzero" transform="translate(50.278670, 63.808198) rotate(10.000000) translate(-50.278670, -63.808198) "></path>
                <path d="M18.8155943,108.22897 C18.6817258,108.22897 18.4139888,108.22897 18.2801203,108.098543 C17.8785147,107.837689 17.7446462,107.185553 18.0123832,106.794272 L80.1273757,18.6255365 C80.3951127,18.2342551 81.0644553,18.103828 81.4660609,18.3646822 C81.8676664,18.6255365 82.001535,19.2776721 81.7337979,19.6689535 L19.6188054,107.707262 C19.4849369,108.098543 19.2171999,108.22897 18.8155943,108.22897 Z" id="路径备份-55" fill="#323940" fill-rule="nonzero" transform="translate(49.873091, 63.228970) rotate(10.000000) translate(-49.873091, -63.228970) "></path>
                <path d="M30.5371263,22.7970388 C30.5371263,34.2970388 22.7371263,43.8970388 12.2371263,46.7970388 L8.43712629,26.4970388 L30.5371263,22.3970388 C30.5371263,22.4970388 30.5371263,22.5970388 30.5371263,22.7970388 Z" id="路径" fill="#424445" transform="translate(19.487126, 34.597039) rotate(10.000000) translate(-19.487126, -34.597039) "></path>
                <polygon id="路径备份-58" fill="#424445" transform="translate(108.305046, 174.030072) rotate(15.000000) translate(-108.305046, -174.030072) " points="114.355046 177.580072 108.455046 179.080072 104.755046 180.080072 102.255046 170.480072 111.955046 167.980072 112.555046 170.480072"></polygon>
                <polygon id="路径备份-59" fill="#424445" transform="translate(122.769206, 174.264005) rotate(15.000000) translate(-122.769206, -174.264005) " points="128.819206 177.814005 122.919206 179.314005 119.219206 180.314005 116.719206 170.714005 126.419206 168.214005 127.019206 170.714005"></polygon>
                <line x1="205.210126" y1="20.2910388" x2="199.611126" y2="24.2340388" id="路径-8备份" stroke="#2C42CE" stroke-width="1.70697" stroke-linecap="round" stroke-linejoin="round" stroke-dasharray="0,0"></line>
                <line x1="205.022126" y1="13.1390388" x2="199.423126" y2="17.0990388" id="路径-9备份" stroke="#2C42CE" stroke-width="1.70697" stroke-linecap="round" stroke-linejoin="round" stroke-dasharray="0,0"></line>
                <path d="M209.468514,70.8216701 C209.048514,70.6516701 208.588514,70.5716701 208.138514,70.5816701 C207.468514,70.6016701 206.818514,70.8116701 206.268514,71.2016701 C205.718514,71.5816701 205.288514,72.1216701 205.048514,72.7516701 C204.798514,73.3716701 204.748514,74.0616701 204.888514,74.7116701 C205.028514,75.3716701 205.358514,75.9716701 205.838514,76.4416701 C206.318514,76.9116701 206.928514,77.2216701 207.588514,77.3516701 C208.248514,77.4716701 208.928514,77.4016701 209.548514,77.1416701 C210.168514,76.8816701 210.698514,76.4416701 211.068514,75.8816701 C211.438514,75.3216701 211.638514,74.6716701 211.638514,74.0016701 C211.638514,73.5416701 211.548514,73.0916701 211.368514,72.6716701 C211.188514,72.2516701 210.928514,71.8716701 210.608514,71.5516701 C210.278514,71.2316701 209.898514,70.9816701 209.468514,70.8216701 Z" id="路径备份-16" stroke="#2C42CE" stroke-width="1.70697" stroke-linecap="round" stroke-linejoin="round" stroke-dasharray="0,0"></path>
            </g>
        </g>
    </g>
</svg>