<?xml version="1.0" encoding="UTF-8"?>
<svg width="292.491999px" height="186.01px" viewBox="0 0 292.491999 186.01" version="1.1" xmlns="http://www.w3.org/2000/svg" xmlns:xlink="http://www.w3.org/1999/xlink">
    <title>未启用自动发现</title>
    <g id="新主题" stroke="none" stroke-width="1" fill="none" fill-rule="evenodd">
        <g id="v2.0插画库" transform="translate(-721.000000, -10471.990000)">
            <g id="未启用自动发现暗色" transform="translate(721.000000, 10473.000000)">
                <line x1="19.98272" y1="90.2910388" x2="13.2101263" y2="94.2340388" id="路径-8备份-3" stroke="#2C42CE" stroke-width="1.70697" stroke-linecap="round" stroke-linejoin="round" stroke-dasharray="0,0" transform="translate(16.596423, 92.262539) scale(-1, 1) translate(-16.596423, -92.262539) "></line>
                <line x1="20.2101263" y1="83.1390388" x2="13.4375325" y2="87.0990388" id="路径-9备份-3" stroke="#2C42CE" stroke-width="1.70697" stroke-linecap="round" stroke-linejoin="round" stroke-dasharray="0,0" transform="translate(16.823829, 85.119039) scale(-1, 1) translate(-16.823829, -85.119039) "></line>
                <path d="M289.468514,15.8216701 C289.048514,15.6516701 288.588514,15.5716701 288.138514,15.5816701 C287.468514,15.6016701 286.818514,15.8116701 286.268514,16.2016701 C285.718514,16.5816701 285.288514,17.1216701 285.048514,17.7516701 C284.798514,18.3716701 284.748514,19.0616701 284.888514,19.7116701 C285.028514,20.3716701 285.358514,20.9716701 285.838514,21.4416701 C286.318514,21.9116701 286.928514,22.2216701 287.588514,22.3516701 C288.248514,22.4716701 288.928514,22.4016701 289.548514,22.1416701 C290.168514,21.8816701 290.698514,21.4416701 291.068514,20.8816701 C291.438514,20.3216701 291.638514,19.6716701 291.638514,19.0016701 C291.638514,18.5416701 291.548514,18.0916701 291.368514,17.6716701 C291.188514,17.2516701 290.928514,16.8716701 290.608514,16.5516701 C290.278514,16.2316701 289.898514,15.9816701 289.468514,15.8216701 Z" id="路径备份-18" stroke="#2C42CE" stroke-width="1.70697" stroke-linecap="round" stroke-linejoin="round" stroke-dasharray="0,0"></path>
                <path d="M252,16 L270,16 C274.418278,16 278,19.581722 278,24 L278,172 C278,176.418278 274.418278,180 270,180 L252,180 L252,180 L252,16 Z" id="矩形备份-29" fill="#292C2F"></path>
                <rect id="矩形备份-30" stroke="#323940" stroke-width="2.02" fill="#373B3F" x="96" y="0" width="167" height="180" rx="6.4512"></rect>
                <path d="M92.4230769,13 L246.576923,13 C250.124291,13 253,15.7275809 253,19.0922225 L253,85.2352135 C253,91.7065611 247.753936,96.9526248 241.282589,96.9526248 C241.266829,96.9526248 241.251069,96.952593 241.235309,96.9525294 L93.9677202,96.3583039 C89.5620789,96.3405271 86,92.7640462 86,88.358369 L86,19.0922225 L86,19.0922225 C86,15.7275809 88.8757095,13 92.4230769,13 Z" id="矩形备份-3备份-2" fill="#4D9AFF"></path>
                <path d="M92.4230769,108 C141.678499,108 178.620066,108 203.247778,108 C212.876477,108 227.319525,108 246.576923,108 C250.124291,108 253,109.818387 253,112.061482 L253,156.156809 C253,160.476847 249.497917,163.97893 245.177879,163.97893 C245.170865,163.97893 245.163851,163.978921 245.156837,163.978902 L212.55806,163.891211 L212.55806,163.891211 L93.97848,163.572232 C89.5686197,163.560369 86,159.982137 86,155.57226 L86,112.061482 L86,112.061482 C86,109.818387 88.8757095,108 92.4230769,108 Z" id="矩形备份-3备份-3" stroke="#5E6166" stroke-width="2.01666665" fill="#424445" stroke-linecap="round" stroke-dasharray="0,0"></path>
                <path d="M283,180 L116,180 L283,180 Z" id="矩形备份-31" stroke="#323940" stroke-width="2.01666665" stroke-linecap="round" stroke-linejoin="round" stroke-dasharray="0,0"></path>
                <path d="M183.015062,49.6924976 L169.425705,41.9695192 C169.230616,41.8585805 169.010074,41.8000035 168.785648,41.8000035 C168.443856,41.7992103 168.115794,41.9344478 167.873857,42.1758764 C167.463506,42.5831536 167.37344,43.2203917 167.654832,43.7247067 L175.280575,57.411638 C175.39601,57.6186453 175.565992,57.7900417 175.772036,57.9071895 L189.358578,65.6290805 C189.554236,65.7410636 189.775757,65.8000035 190.001195,65.8000035 L190.006888,65.8000035 C190.720891,65.8000035 191.301587,65.2194365 191.301587,64.505566 C191.301587,64.24682 191.223035,63.9920398 191.078789,63.7789661 L183.506971,50.1890086 C183.39155,49.9816562 183.221477,49.8099253 183.015254,49.6924976 L183.015062,49.6924976 Z M179.440245,56.5241614 C177.935541,56.5241614 176.711461,55.3002189 176.711461,53.7953979 C176.711461,52.2905768 177.935413,51.0665704 179.440245,51.0665704 C180.94495,51.0665704 182.169093,52.2905128 182.169093,53.7953979 C182.169029,55.300091 180.945078,56.5241614 179.440245,56.5241614 Z" id="形状备份" fill="#FFFFFF" fill-rule="nonzero"></path>
                <path d="M202.634562,45.0993902 L202.568281,44.9038894 L198.819534,46.215101 L198.885815,46.4106018 C200.712657,51.793591 200.361372,57.5847066 197.896299,62.7177654 C195.431226,67.8508242 191.153922,71.6988358 185.851799,73.5534519 C183.639686,74.327243 181.3411,74.7194543 179.019563,74.7194543 C176.319589,74.7194543 173.673293,74.1964848 171.153791,73.1653786 L173.122037,69.0750758 C173.027412,68.8448801 172.901622,68.6598195 172.761472,68.5457402 C172.602509,68.4163825 172.439973,68.3870351 172.245581,68.4551516 L164.101641,71.1716647 C163.626323,71.3378181 163.3696,71.8726285 163.528061,72.3652957 L166.442805,80.4930632 C166.714766,81.1062394 166.903263,81.0404146 167.243448,80.9211788 C167.300762,80.9011895 167.359644,80.8790994 167.419968,80.8563726 L167.460226,80.8412851 L169.409973,76.7894332 L169.42126,76.7942077 C172.489261,78.0891859 175.719233,78.7457784 179.021758,78.7457784 C181.781428,78.7457784 184.514009,78.2794666 187.143562,77.3596387 C200.175384,72.8014325 207.124631,58.3294686 202.634688,45.0991993 L202.634562,45.0993902 Z M172.149452,33.1786773 C174.361565,32.4048861 176.660151,32.0126749 178.98175,32.0126749 C181.117236,32.0126749 183.237797,32.3444725 185.285179,32.9985822 L183.395693,36.9248961 C183.490318,37.1550918 183.616108,37.3401523 183.756258,37.4542316 C183.91522,37.5835894 184.077756,37.6129368 184.272148,37.5448202 L192.416151,34.8283071 C192.891469,34.6621537 193.148192,34.1273434 192.989731,33.6346761 L190.074987,25.5069086 C189.803027,24.8937324 189.61453,24.9596209 189.274344,25.078793 C189.21703,25.0987823 189.158148,25.1208725 189.097824,25.1435992 L189.057566,25.1586867 L187.041663,29.3479813 L187.016769,29.3393871 C184.416186,28.441904 181.712011,27.9867327 178.979807,27.9867327 C176.219885,27.9867327 173.487242,28.4530445 170.857375,29.3728725 C167.672238,30.486928 164.795494,32.2040378 162.307345,34.4760109 C159.904665,36.6701911 157.964449,39.2858026 156.540751,42.2504637 C155.117115,45.2151247 154.282297,48.3779603 154.059562,51.6509919 C153.828988,55.0405856 154.268564,58.398922 155.365936,61.6325479 L155.432217,61.8280488 L159.181466,60.5165825 L159.115185,60.3210817 C157.288029,54.9373286 157.639251,49.1460857 160.10376,44.0139182 C162.568456,38.8816233 166.846137,35.0336116 172.149075,33.1788683 L172.149452,33.1786773 Z" id="形状备份-2" fill="#FFFFFF" fill-rule="nonzero"></path>
                <rect id="矩形备份-47" fill="#000000" fill-rule="nonzero" opacity="0" x="0" y="60" width="125" height="125"></rect>
                <path d="M114.660645,154.628906 L71.9848633,80.7275391 C66.7724609,71.6943359 58.2397461,71.6943359 53.0151367,80.7275391 L10.3515625,154.628906 C5.12695312,163.674316 9.39941406,171.047363 19.8242187,171.047363 L105.175781,171.047363 C115.600586,171.047363 119.873047,163.674316 114.660645,154.628906 Z M66.3518561,150.273624 C65.4430704,151.17239 64.3974782,151.7156 63.2346234,151.923007 C62.8632916,151.94276 62.5017317,151.952637 62.1206281,151.952637 C61.7395244,151.952637 61.3779645,151.94276 61.0066327,151.923007 C59.834006,151.7156 58.7981858,151.162513 57.8894001,150.273624 C56.7070015,149.098316 56.1206881,147.695847 56.1206881,146.026711 C56.1206881,144.377328 56.7070015,142.945229 57.8894001,141.750168 C59.0717987,140.555106 60.4887226,139.952637 62.1206281,139.952637 C63.7525336,139.952637 65.1694575,140.555106 66.3518561,141.750168 C67.5342547,142.945229 68.120568,144.377328 68.120568,146.026711 C68.1303399,147.68597 67.5440265,149.108192 66.3518561,150.273624 Z M64.9838803,135.952637 L59.3454438,135.952637 C58.6614048,127.524015 56.1206881,115.937127 56.1206881,114.357994 C56.1206881,112.551861 56.6776914,111.031946 57.8014699,109.808118 C58.9350204,108.57442 60.3617305,107.952637 62.1206881,107.952637 C63.8698738,107.952637 65.3063559,108.564551 66.4399064,109.778509 C67.5636849,111.002337 68.1206881,112.522253 68.1206881,114.357994 C68.1206881,115.937127 65.7754113,127.524015 64.9838803,135.952637 L64.9838803,135.952637 Z" id="形状备份-3" fill="#FFC433"></path>
                <line x1="136.452632" y1="128.5" x2="221.547368" y2="128.5" id="直线-2备份-3" stroke="#5E6166" stroke-width="2.01666665" stroke-linecap="round" stroke-dasharray="0,0"></line>
                <path d="M136.452632,143.5 L165.653159,143.5 L170.962029,143.5 L174.322348,143.5 L189.863158,143.5" id="直线-2备份-4" stroke="#5E6166" stroke-width="2.01666665" stroke-linecap="round" stroke-dasharray="0,0"></path>
            </g>
        </g>
    </g>
</svg>