<?xml version="1.0" encoding="UTF-8"?>
<svg width="312px" height="235px" viewBox="0 0 312 235" version="1.1" xmlns="http://www.w3.org/2000/svg" xmlns:xlink="http://www.w3.org/1999/xlink">
    <title>浏览器版本低</title>
    <g id="新主题" stroke="none" stroke-width="1" fill="none" fill-rule="evenodd">
        <g id="v2.0插画库" transform="translate(-164.000000, -10098.000000)">
            <g id="浏览器版本低" transform="translate(164.000000, 10098.000000)">
                <polygon id="路径" fill="#292C2F" points="294.23 234.946379 273.84 51.8063787 0 179.056379"></polygon>
                <path d="M308.656875,67.9372121 C308.236875,67.7672121 307.776875,67.6872121 307.326875,67.6972121 C306.656875,67.7172121 306.006875,67.9272121 305.456875,68.3172121 C304.906875,68.6972121 304.476875,69.2372121 304.236875,69.8672121 C303.986875,70.4872121 303.936875,71.1772121 304.076875,71.8272121 C304.216875,72.4872121 304.546875,73.0872121 305.026875,73.5572121 C305.506875,74.0272121 306.116875,74.3372121 306.776875,74.4672121 C307.436875,74.5872121 308.116875,74.5172121 308.736875,74.2572121 C309.356875,73.9972121 309.886875,73.5572121 310.256875,72.9972121 C310.626875,72.4372121 310.826875,71.7872121 310.826875,71.1172121 C310.826875,70.6572121 310.736875,70.2072121 310.556875,69.7872121 C310.376875,69.3672121 310.116875,68.9872121 309.796875,68.6672121 C309.466875,68.3472121 309.086875,68.0972121 308.656875,67.9372121 Z" id="路径备份-17" stroke="#2C42CE" stroke-width="1.70697" stroke-linecap="round" stroke-linejoin="round" stroke-dasharray="0,0"></path>
                <g id="编组-10" transform="translate(50.611488, 87.696379)" stroke="#2C42CE" stroke-dasharray="0,0" stroke-linecap="round" stroke-linejoin="round" stroke-width="1.70697">
                    <line x1="5.787" y1="7.152" x2="0.188" y2="11.095" id="路径-8备份-2"></line>
                    <line x1="5.599" y1="0" x2="0" y2="3.96" id="路径-9备份-2"></line>
                </g>
                <polygon id="路径" fill="#76A3E5" transform="translate(216.240623, 12.624517) rotate(5.000000) translate(-216.240623, -12.624517) " points="209.865623 2.29951663 217.005623 24.7395166 222.615623 22.9495166 215.475623 0.509516627"></polygon>
                <polygon id="路径" fill="#76A3E5" transform="translate(259.244381, 39.850316) rotate(5.000000) translate(-259.244381, -39.850316) " points="247.129381 40.6103157 248.919381 46.2303157 271.359381 39.0803157 269.569381 33.4703157"></polygon>
                <polygon id="路径" fill="#76A3E5" transform="translate(243.399132, 17.326873) rotate(5.000000) translate(-243.399132, -17.326873) " points="235.369132 26.4318728 240.599132 29.1418728 251.429132 8.2218728 246.189132 5.5118728"></polygon>
                <polygon id="路径" fill="#323940" transform="translate(142.620000, 206.311379) rotate(-79.220000) translate(-142.620000, -206.311379) " points="141.62 318.836379 143.62 318.836379 143.62 93.7863787 141.62 93.7863787"></polygon>
                <path d="M202.481136,140.367443 L208.012028,205.907318 L117.644705,212.521474 L157.111466,141.162622 C161.684189,141.287949 166.337796,141.352416 171.056651,141.352416 C181.942713,141.352416 192.481531,141.009325 202.481136,140.367443 Z M198.014642,87.4587969 L198.067547,88.0754962 C197.853098,88.0638012 197.638421,88.0522424 197.423518,88.0408202 L198.014642,87.4587969 Z" id="形状结合备份-3" fill="#373B3F" transform="translate(162.828367, 149.990136) rotate(15.000000) translate(-162.828367, -149.990136) "></path>
                <polygon id="路径备份" fill="#76A3E5" points="150.826406 171.520187 172.25235 170.917355 158.554272 208.234814 195.501316 159.093139 174.060845 158.294206 179.864008 129.234814"></polygon>
                <path d="M92.9057642,85.7542192 C72.3948372,94.3768629 67.9250799,99.9824456 67.9250799,108.608083 C67.9250799,129.042619 120.307764,145.608083 184.92508,145.608083 C249.542396,145.608083 301.92508,129.042619 301.92508,108.608083 C301.92508,88.173547 249.542396,71.6080828 184.92508,71.6080828 C137.252821,75.2904114 106.579716,80.0057902 92.9057642,85.7542192 Z" id="路径" fill="#373B3F" transform="translate(184.925080, 108.608083) rotate(15.000000) translate(-184.925080, -108.608083) "></path>
                <ellipse id="椭圆形备份-29" fill="#4D9AFF" transform="translate(187.772089, 97.982899) rotate(15.000000) translate(-187.772089, -97.982899) " cx="187.772089" cy="97.9828987" rx="88" ry="26"></ellipse>
                <path d="M197.024457,30.2451198 C231.868553,30.2451198 260.680276,56.0727825 265.359611,89.628094 C249.224324,95.4960002 224.606266,99.2451198 197.024457,99.2451198 C169.442221,99.2451198 144.823828,95.4958843 128.688941,89.6282226 C133.368638,56.0727825 162.180361,30.2451198 197.024457,30.2451198 Z" id="形状结合备份-4" fill="#424445" transform="translate(197.024774, 64.745120) rotate(15.000000) translate(-197.024774, -64.745120) "></path>
            </g>
        </g>
    </g>
</svg>