<?xml version="1.0" encoding="UTF-8"?>
<svg width="266px" height="225px" viewBox="0 0 266 225" version="1.1" xmlns="http://www.w3.org/2000/svg" xmlns:xlink="http://www.w3.org/1999/xlink">
    <title>新建内容</title>
    <g id="新主题" stroke="none" stroke-width="1" fill="none" fill-rule="evenodd">
        <g id="v2.0插画库" transform="translate(-746.000000, -3629.000000)">
            <g id="新建内容" transform="translate(747.000000, 3629.000000)">
                <g>
                    <path d="M245.780793,0 L16.6367465,0 C16.1393559,0 15.7361411,0.403889934 15.7361411,0.902113417 L15.7361411,190.766917 C15.7361411,191.265141 16.1393559,191.669031 16.6367465,191.669031 L245.780793,191.669031 C246.278184,191.669031 246.681398,191.265141 246.681398,190.766917 L246.681398,0.902113417 C246.681398,0.403889934 246.278184,0 245.780793,0 Z M244.880187,1.80392613 L244.880187,189.864804 L17.537352,189.864804 L17.537352,1.80392613 L244.880187,1.80392613 Z" id="shape_15_" fill="#D6D6D6"></path>
                    <path d="M159.772973,141.87237 L146.924335,141.87237 C146.426944,141.87237 146.023729,142.27626 146.023729,142.774483 L146.023729,162.861542 C146.023729,163.359766 146.426944,163.763656 146.924335,163.763656 L159.772973,163.763656 C160.270363,163.763656 160.673578,163.359766 160.673578,162.861542 L160.673578,142.774483 C160.673578,142.27626 160.270363,141.87237 159.772973,141.87237 Z M158.872067,143.676597 L158.872067,161.959429 L147.82464,161.959429 L147.82464,143.676597 L158.872067,143.676597 Z" id="Rectangle" fill="#02012D"></path>
                    <path d="M179.946535,133.422574 L167.097897,133.422574 C166.600506,133.422574 166.197291,133.826464 166.197291,134.324688 L166.197291,162.861542 C166.197291,163.359766 166.600506,163.763656 167.097897,163.763656 L179.946535,163.763656 C180.443925,163.763656 180.84714,163.359766 180.84714,162.861542 L180.84714,134.324688 C180.84714,133.826464 180.443925,133.422574 179.946535,133.422574 Z M179.045629,135.226801 L179.045629,161.959429 L167.998202,161.959429 L167.998202,135.226801 L179.045629,135.226801 Z" id="Rectangle" fill="#02012D"></path>
                    <path d="M200.090076,120.071296 L187.241439,120.071296 C186.744048,120.071296 186.340833,120.475186 186.340833,120.973409 L186.340833,162.861542 C186.340833,163.359766 186.744048,163.763656 187.241439,163.763656 L200.090076,163.763656 C200.587467,163.763656 200.990682,163.359766 200.990682,162.861542 L200.990682,120.973409 C200.990682,120.475186 200.587467,120.071296 200.090076,120.071296 Z M199.189471,121.875523 L199.189471,161.959429 L188.142044,161.959429 L188.142044,121.875523 L199.189471,121.875523 Z" id="Rectangle" fill="#02012D"></path>
                    <rect id="Rectangle" fill="#4D9AFF" x="207.384981" y="109.426357" width="12.8486377" height="53.4351847"></rect>
                    <path d="M224.586545,82.0021096 C224.376403,81.8216869 224.106222,81.761546 223.86606,81.7916164 L215.460409,83.1447866 C214.980087,83.2349979 214.619844,83.6860546 214.709905,84.1671818 C214.799965,84.6483089 215.250268,84.9790839 215.730591,84.918943 L221.224284,84.0469 L204.833265,103.111564 L198.138765,96.6764878 C197.958644,96.4960651 197.718482,96.4058538 197.478321,96.4359242 C197.238159,96.4359242 196.997998,96.556206 196.847897,96.7366287 L174.873124,122.296509 L168.508845,117.515308 C168.148603,117.244674 167.66828,117.274744 167.338058,117.575449 L147.614799,136.51983 C147.254557,136.850605 147.254557,137.421944 147.584779,137.782789 C147.7649,137.963212 148.005061,138.053423 148.245223,138.053423 C148.455364,138.053423 148.695526,137.963212 148.875647,137.81286 L168.058543,119.379675 L174.512882,124.221017 C174.903144,124.491652 175.413487,124.461581 175.743709,124.100736 L197.628422,98.6310669 L204.322922,105.066143 C204.503043,105.246565 204.743205,105.336777 204.983366,105.306706 C205.223528,105.306706 205.463689,105.186424 205.61379,105.006002 L223.115556,84.6483089 L222.995475,91.7750049 C222.995475,92.2862025 223.385737,92.6771183 223.896081,92.6771183 C223.896081,92.6771183 223.896081,92.6771183 223.896081,92.6771183 C224.376403,92.6771183 224.796686,92.2862025 224.796686,91.7750049 L224.946787,82.6636594 C224.916767,82.4531663 224.796686,82.1825323 224.586545,82.0021096 Z" id="arrow_1_" fill="#FFC60A"></path>
                    <polygon id="Path" fill="#4D9AFF" points="65.9599049 123.679749 72.3241834 129.693839 72.3241834 117.575449"></polygon>
                    <polygon id="Path" fill="#4D9AFF" points="56.8037495 129.994543 63.3481491 123.70982 56.8037495 117.545378"></polygon>
                    <polygon id="Path" fill="#4D9AFF" points="89.2555659 115.440447 74.5456769 115.440447 81.9606617 122.446861"></polygon>
                    <path d="M64.6390169,124.942708 L57.1940119,132.129545 L72.2641431,132.129545 C72.2641431,132.129545 72.2641431,132.129545 72.2641431,132.129545 L64.6390169,124.942708 Z" id="Path" fill="#4D9AFF"></path>
                    <polygon id="Path" fill="#4D9AFF" points="74.1253943 129.994543 80.6697939 123.70982 74.1253943 117.545378"></polygon>
                    <polygon id="Path" fill="#4D9AFF" points="38.5514791 116.703406 38.5514791 130.866586 45.9964842 123.70982"></polygon>
                    <path d="M47.3173721,124.942708 L39.8723671,132.129545 L54.9424983,132.129545 C54.9424983,132.129545 54.9424983,132.129545 54.9424983,132.129545 L47.3173721,124.942708 Z" id="Path" fill="#4D9AFF"></path>
                    <polygon id="Path" fill="#4D9AFF" points="54.5822561 115.440447 39.8723671 115.440447 47.3173721 122.446861"></polygon>
                    <polygon id="Path" fill="#4D9AFF" points="89.6458282 129.693839 89.6458282 117.575449 83.2815497 123.679749"></polygon>
                    <polygon id="Path" fill="#4D9AFF" points="48.6382601 123.679749 55.0025386 129.693839 55.0025386 117.575449"></polygon>
                    <path d="M81.9906819,124.942708 L74.5456769,132.129545 L89.6158081,132.129545 C89.6158081,132.129545 89.6158081,132.129545 89.6158081,132.129545 L81.9906819,124.942708 Z" id="Path" fill="#4D9AFF"></path>
                    <polygon id="Path" fill="#4D9AFF" points="71.9039009 115.440447 57.1940119 115.440447 64.6390169 122.446861"></polygon>
                    <polygon id="Path" fill="#4D9AFF" points="106.967473 115.440447 91.4470391 115.440447 91.4470391 132.129545 91.4470391 132.129545 106.967473 132.129545 106.967473 132.129545"></polygon>
                    <polygon id="Path" fill="#4D9AFF" points="125.189723 115.440447 108.768684 115.440447 108.768684 132.129545 108.768684 132.129545 125.189723 132.129545"></polygon>
                    <path d="M89.5857879,132.129545 C89.6158081,132.159616 89.6158081,132.159616 89.6458282,132.159616 C89.6458282,132.159616 89.6458282,132.129545 89.6458282,132.129545 L89.5857879,132.129545 Z" id="Path" fill="#FE7624"></path>
                    <path d="M211.918028,53.3750438 L202.611772,53.3750438 C202.114381,53.3750438 201.711166,53.7789338 201.711166,54.2771572 L201.711166,63.5989959 C201.711166,64.0972194 202.114381,64.5011093 202.611772,64.5011093 L211.918028,64.5011093 C212.415419,64.5011093 212.818633,64.0972194 212.818633,63.5989959 L212.818633,54.2771572 C212.818633,53.7789338 212.415419,53.3750438 211.918028,53.3750438 Z M211.017122,55.17897 L211.017122,62.6965818 L203.512077,62.6965818 L203.512077,55.17897 L211.017122,55.17897 Z" id="Rectangle" fill="#02012D"></path>
                    <path d="M213.749259,36.4754525 L178.175344,36.4754525 C177.677953,36.4754525 177.274738,36.8793424 177.274738,37.3775659 L177.274738,48.1127156 C177.274738,48.610939 177.677953,49.014829 178.175344,49.014829 L213.749259,49.014829 C214.24665,49.014829 214.649865,48.610939 214.649865,48.1127156 L214.649865,37.3775659 C214.649865,36.8793424 214.24665,36.4754525 213.749259,36.4754525 Z M212.848654,38.2796793 L212.848654,47.2106021 L179.075949,47.2106021 L179.075949,38.2796793 L212.848654,38.2796793 Z" id="Rectangle" fill="#02012D"></path>
                    <path d="M196.277513,62.6968825 C196.774904,62.6968825 197.178119,63.1007724 197.178119,63.5989959 C197.178119,64.0794257 196.803191,64.4721397 196.330431,64.4995779 L196.277513,64.5011093 L178.175344,64.5011093 C177.677953,64.5011093 177.274738,64.0972194 177.274738,63.5989959 C177.274738,63.1185661 177.649666,62.7258521 178.122426,62.6984139 L178.175344,62.6968825 L196.277513,62.6968825 Z" id="Path" fill="#02012D"></path>
                    <path d="M196.277513,58.2765267 C196.774904,58.2765267 197.178119,58.6804167 197.178119,59.1786401 C197.178119,59.6590699 196.803191,60.0517839 196.330431,60.0792222 L196.277513,60.0807536 L178.175344,60.0807536 C177.677953,60.0807536 177.274738,59.6768636 177.274738,59.1786401 C177.274738,58.6982104 177.649666,58.3054963 178.122426,58.2780581 L178.175344,58.2765267 L196.277513,58.2765267 Z" id="Path" fill="#02012D"></path>
                    <path d="M196.277513,53.8862414 C196.774904,53.8862414 197.178119,54.2901314 197.178119,54.7883548 C197.178119,55.2687846 196.803191,55.6614987 196.330431,55.6889369 L196.277513,55.6904683 L178.175344,55.6904683 C177.677953,55.6904683 177.274738,55.2865783 177.274738,54.7883548 C177.274738,54.3079251 177.649666,53.915211 178.122426,53.8877728 L178.175344,53.8862414 L196.277513,53.8862414 Z" id="Path" fill="#02012D"></path>
                    <path d="M198.438966,87.8959172 C198.936357,87.8959172 199.339572,88.2998072 199.339572,88.7980307 C199.339572,89.2784604 198.964644,89.6711745 198.491884,89.6986127 L198.438966,89.7001441 L148.995727,89.7001441 C148.498337,89.7001441 148.095122,89.2962541 148.095122,88.7980307 C148.095122,88.3176009 148.47005,87.9248868 148.94281,87.8974486 L148.995727,87.8959172 L198.438966,87.8959172 Z" id="Path" fill="#02012D"></path>
                    <path d="M178.175344,92.1358503 C178.672735,92.1358503 179.075949,92.5397402 179.075949,93.0379637 C179.075949,93.5183935 178.701021,93.9111075 178.228261,93.9385457 L178.175344,93.9400771 L148.995727,93.9400771 C148.498337,93.9400771 148.095122,93.5361872 148.095122,93.0379637 C148.095122,92.5575339 148.47005,92.1648199 148.94281,92.1373817 L148.995727,92.1358503 L178.175344,92.1358503 Z" id="Path" fill="#02012D"></path>
                    <path d="M98.2616204,63.1178687 L132.184426,45.8875025 C134.886242,51.2400421 136.297191,57.1338497 136.297191,63.1178687 C136.297191,84.0168295 119.125647,101.217125 98.2616204,101.217125 C86.6738303,101.217125 75.716464,95.9247266 68.5116204,86.8434516 L98.2616204,63.1178687 Z" id="Path" fill="#4D9AFF"></path>
                    <path d="M158.842347,33.1376328 C159.339738,33.1376328 159.742952,33.5415228 159.742952,34.0397463 C159.742952,34.520176 159.368024,34.9128901 158.895264,34.9403283 L158.842347,34.9418597 L127.411217,34.9418597 C126.913826,34.9418597 126.510611,34.5379697 126.510611,34.0397463 C126.510611,33.5593165 126.885539,33.1666024 127.358299,33.1391642 L127.411217,33.1376328 L158.842347,33.1376328 Z" id="Path" fill="#02012D"></path>
                    <path d="M158.842347,37.3775659 C159.339738,37.3775659 159.742952,37.7814558 159.742952,38.2796793 C159.742952,38.7601091 159.368024,39.1528231 158.895264,39.1802613 L158.842347,39.1817927 L142.091086,39.1817927 C141.593695,39.1817927 141.19048,38.7779028 141.19048,38.2796793 C141.19048,37.7992495 141.565408,37.4065355 142.038168,37.3790973 L142.091086,37.3775659 L158.842347,37.3775659 Z" id="Path" fill="#02012D"></path>
                    <path d="M158.842347,41.6475694 C159.339738,41.6475694 159.742952,42.0514593 159.742952,42.5496828 C159.742952,43.0301126 159.368024,43.4228266 158.895264,43.4502648 L158.842347,43.4517962 L147.70486,43.4517962 C147.207469,43.4517962 146.804254,43.0479063 146.804254,42.5496828 C146.804254,42.069253 147.179182,41.676539 147.651942,41.6491008 L147.70486,41.6475694 L158.842347,41.6475694 Z" id="Path" fill="#02012D"></path>
                    <path d="M159.772973,66.9067451 C160.270363,66.9067451 160.673578,67.310635 160.673578,67.8088585 C160.673578,68.2892883 160.29865,68.6820023 159.82589,68.7094405 L159.772973,68.7109719 L119.215707,68.7109719 C118.718317,68.7109719 118.315102,68.307082 118.315102,67.8088585 C118.315102,67.3284287 118.69003,66.9357147 119.16279,66.9082765 L119.215707,66.9067451 L159.772973,66.9067451 Z" id="Path" fill="#02012D"></path>
                    <path d="M159.772973,70.2445647 C160.270363,70.2445647 160.673578,70.6484546 160.673578,71.1466781 C160.673578,71.6271079 160.29865,72.0198219 159.82589,72.0472602 L159.772973,72.0487915 L152.177867,72.0487915 C151.680476,72.0487915 151.277261,71.6449016 151.277261,71.1466781 C151.277261,70.6662483 151.652189,70.2735343 152.124949,70.2460961 L152.177867,70.2445647 L159.772973,70.2445647 Z" id="Path" fill="#02012D"></path>
                    <path d="M75.2061209,29.6193905 C75.7035115,29.6193905 76.1067263,30.0232804 76.1067263,30.5215039 C76.1067263,31.0019337 75.7317983,31.3946477 75.2590383,31.422086 L75.2061209,31.4236173 L51.0398747,31.4236173 C50.542484,31.4236173 50.1392692,31.0197274 50.1392692,30.5215039 C50.1392692,30.0410741 50.5141973,29.6483601 50.9869573,29.6209219 L51.0398747,29.6193905 L75.2061209,29.6193905 Z" id="Path" fill="#02012D"></path>
                    <path d="M55.8731239,33.0474215 C56.3705146,33.0474215 56.7737294,33.4513114 56.7737294,33.9495349 C56.7737294,34.4299647 56.3988013,34.8226787 55.9260413,34.8501169 L55.8731239,34.8516483 L51.0398747,34.8516483 C50.542484,34.8516483 50.1392692,34.4477584 50.1392692,33.9495349 C50.1392692,33.4691051 50.5141973,33.0763911 50.9869573,33.0489529 L51.0398747,33.0474215 L55.8731239,33.0474215 Z" id="Path" fill="#02012D"></path>
                    <path d="M91.1672536,63.8996939 L54.5726522,64.2906675 C54.0752857,64.2959805 53.676392,64.7041609 53.6816496,65.2023601 C53.7717299,73.6490954 56.6539939,81.6404331 61.8026551,88.1265853 C62.111884,88.5161441 62.6776556,88.5812557 63.0670278,88.2720952 L91.7363012,65.5087666 C92.4088207,64.9747879 92.0253792,63.8905849 91.1672536,63.8996939 Z M88.5557955,65.731592 L62.6618878,86.2913582 L62.5920851,86.1991035 C58.28282,80.4448215 55.794956,73.5323479 55.5085751,66.2182648 L55.5038757,66.0849198 L88.5557955,65.731592 Z" id="Path" fill="#4D9AFF"></path>
                    <path d="M57.765018,47.9676529 C56.1015914,52.2746531 55.2427001,56.8398248 55.2427001,61.5542055 L55.2427001,62.0353326 C55.2427001,62.53819 55.6531616,62.9439733 56.1551351,62.9374477 L92.7197164,62.4562411 C93.7097726,62.4432136 93.9568385,61.0721613 93.0338085,60.7132372 L58.9308822,47.45217 C58.4668217,47.2717181 57.9446262,47.5026051 57.765018,47.9676529 Z M59.1300134,49.4649836 L88.05686,60.7131351 L57.0466128,61.121191 L57.0489726,60.9427526 C57.1130561,57.0760718 57.7850657,53.3217206 59.0320456,49.742877 L59.1300134,49.4649836 Z" id="Path" fill="#4D9AFF"></path>
                    <path d="M116.901778,25.8356762 L98.8596488,57.6201389 C98.4202989,58.3941331 99.2471841,59.2700742 100.043237,58.8739443 L132.735214,42.6058324 C133.17973,42.3846335 133.361781,41.8448797 133.142274,41.3989647 C129.859323,34.7298703 124.608099,29.1745263 118.128688,25.4967122 C117.696392,25.2513344 117.147374,25.403014 116.901778,25.8356762 Z M118.017001,27.5204733 L118.123905,27.584804 C123.592264,30.90144 128.078708,35.6484161 131.062307,41.2871527 L131.119009,41.3952784 L101.882655,55.9439621 L118.017001,27.5204733 Z" id="Path" fill="#4D9AFF"></path>
                    <path d="M113.481852,27.1235434 C108.1983,24.0864282 102.074183,22.3423423 95.559804,22.2822014 L94.9594004,22.2822014 C79.6190876,22.4325536 66.5603086,32.0250263 61.2767566,45.5266571 L95.3196426,58.9080061 L113.481852,27.1235434 Z" id="Path" fill="#2C42CE"></path>
                    <path d="M61.3968373,70.3648465 C61.894228,70.3648465 62.2974428,70.7687364 62.2974428,71.2669599 C62.2974428,71.7473897 61.9225147,72.1401037 61.4497547,72.1675419 L61.3968373,72.1690733 L37.2305911,72.1690733 C36.7332005,72.1690733 36.3299857,71.7651834 36.3299857,71.2669599 C36.3299857,70.7865301 36.7049137,70.3938161 37.1776737,70.3663779 L37.2305911,70.3648465 L61.3968373,70.3648465 Z" id="Path" fill="#02012D"></path>
                    <path d="M45.966464,73.7928775 C46.4638546,73.7928775 46.8670694,74.1967674 46.8670694,74.6949909 C46.8670694,75.1754207 46.4921414,75.5681347 46.0193814,75.5955729 L45.966464,75.5971043 L37.2305911,75.5971043 C36.7332005,75.5971043 36.3299857,75.1932144 36.3299857,74.6949909 C36.3299857,74.2145611 36.7049137,73.8218471 37.1776737,73.7944089 L37.2305911,73.7928775 L45.966464,73.7928775 Z" id="Path" fill="#02012D"></path>
                    <path d="M49.1010748,223.544174 L55.924843,217.38983 C83.3493802,213.262121 100.902647,206.528766 108.584643,197.189766 L116.467108,171.729969 C116.680756,171.138782 116.583416,170.476769 116.202958,169.966582 C115.828811,169.463445 115.221284,169.181889 114.589689,169.213912 C109.253838,169.742521 101.686343,173.06213 100.531111,183.758705 L98.5749377,185.084212 C97.9274564,185.524068 97.0657709,185.476345 96.471192,184.960999 C95.8832928,184.446024 95.7157847,183.599219 96.0630066,182.894825 C108.378798,159.056892 115.444815,144.870784 117.261055,140.336503 C119.985417,133.535082 111.191964,128.898016 106.608091,135.974281 C103.552176,140.691791 99.0579305,148.244175 93.125356,158.631433 C90.618912,155.980034 84.0202164,152.090259 77.6684557,157.775376 C74.7967452,156.638099 69.8600946,156.612598 67.2280343,157.19715 C64.2571781,157.85004 63.3223906,162.146712 62.2853686,163.208215 C59.7730701,163.20308 55.9509904,164.22424 54.6090032,165.711068 C52.8569653,167.647462 45.8943252,176.572785 37.3464444,205.24195 L29.63277,212.765535" id="路径" stroke="#02012D" stroke-width="2.01666665" fill="#FFFFFF" stroke-linecap="round" stroke-linejoin="round" stroke-dasharray="0,0"></path>
                    <line x1="62.4074228" y1="163.158628" x2="57.7244446" y2="173.193581" id="直线" stroke="#02012D" stroke-width="2.01666665" stroke-linecap="round" stroke-linejoin="round" stroke-dasharray="0,0"></line>
                    <line x1="77.794351" y1="157.806653" x2="73.1113728" y2="167.841606" id="直线备份" stroke="#02012D" stroke-width="2.01666665" stroke-linecap="round" stroke-linejoin="round" stroke-dasharray="0,0"></line>
                    <line x1="93.1812792" y1="158.47565" x2="88.4983011" y2="168.510603" id="直线备份" stroke="#02012D" stroke-width="2.01666665" stroke-linecap="round" stroke-linejoin="round" stroke-dasharray="0,0"></line>
                    <path d="M112.337545,182.295316 C107.586709,177.342044 112.885067,172.409312 115.911045,170.761142" id="路径" stroke="#02012D" stroke-width="2.01666665" stroke-linecap="round" stroke-linejoin="round" stroke-dasharray="0,0"></path>
                    <line x1="5.787" y1="41.152" x2="0.188" y2="45.095" id="路径-8备份" stroke="#2C42CE" stroke-width="1.70697" stroke-linecap="round" stroke-linejoin="round" stroke-dasharray="0,0"></line>
                    <line x1="5.599" y1="34" x2="0" y2="37.96" id="路径-9备份" stroke="#2C42CE" stroke-width="1.70697" stroke-linecap="round" stroke-linejoin="round" stroke-dasharray="0,0"></line>
                    <path d="M261.045388,5.68263127 C260.625388,5.51263127 260.165388,5.43263127 259.715388,5.44263127 C259.045388,5.46263127 258.395388,5.67263127 257.845388,6.06263127 C257.295388,6.44263127 256.865388,6.98263127 256.625388,7.61263127 C256.375388,8.23263127 256.325388,8.92263127 256.465388,9.57263127 C256.605388,10.2326313 256.935388,10.8326313 257.415388,11.3026313 C257.895388,11.7726313 258.505388,12.0826313 259.165388,12.2126313 C259.825388,12.3326313 260.505388,12.2626313 261.125388,12.0026313 C261.745388,11.7426313 262.275388,11.3026313 262.645388,10.7426313 C263.015388,10.1826313 263.215388,9.53263127 263.215388,8.86263127 C263.215388,8.40263127 263.125388,7.95263127 262.945388,7.53263127 C262.765388,7.11263127 262.505388,6.73263127 262.185388,6.41263127 C261.855388,6.09263127 261.475388,5.84263127 261.045388,5.68263127 Z" id="路径备份-16" stroke="#2C42CE" stroke-width="1.70697" stroke-linecap="round" stroke-linejoin="round" stroke-dasharray="0,0"></path>
                </g>
                <g id="graph_5_" transform="translate(146.023729, 81.784233)"></g>
                <g id="oragne_bar" transform="translate(38.551479, 115.440447)"></g>
                <g id="layout_3_" transform="translate(177.274738, 36.475452)"></g>
                <g id="lines_7_" transform="translate(148.095122, 87.895917)"></g>
                <g id="circle_graph_4_" transform="translate(36.329986, 22.282201)">
                    <g id="Group" transform="translate(13.809284, 7.337189)"></g>
                </g>
            </g>
        </g>
    </g>
</svg>