<?xml version="1.0" encoding="UTF-8"?>
<svg width="266px" height="223px" viewBox="0 0 266 223" version="1.1" xmlns="http://www.w3.org/2000/svg" xmlns:xlink="http://www.w3.org/1999/xlink">
    <title>新建内容</title>
    <g id="新主题" stroke="none" stroke-width="1" fill="none" fill-rule="evenodd">
        <g id="v2.0插画库" transform="translate(-195.000000, -8794.000000)">
            <g id="新建内容" transform="translate(196.000000, 8794.000000)">
                <path d="M244.880187,8 L244.880187,180.060878 C244.880187,184.479156 241.298465,188.060878 236.880187,188.060878 L25.537352,188.060878 C21.119074,188.060878 17.537352,184.479156 17.537352,180.060878 L17.537352,8 C17.537352,3.581722 21.119074,2.58798134e-15 25.537352,0 L236.880187,0 C241.298465,-1.65085012e-14 244.880187,3.581722 244.880187,8 Z" id="Path" fill="#373B3F"></path>
                <path d="M159.772973,140.068444 L146.924335,140.068444 C146.426944,140.068444 146.023729,140.472334 146.023729,140.970557 L146.023729,161.057616 C146.023729,161.55584 146.426944,161.959729 146.924335,161.959729 L159.772973,161.959729 C160.270363,161.959729 160.673578,161.55584 160.673578,161.057616 L160.673578,140.970557 C160.673578,140.472334 160.270363,140.068444 159.772973,140.068444 Z M158.872067,141.872671 L158.872067,160.155503 L147.82464,160.155503 L147.82464,141.872671 L158.872067,141.872671 Z" id="Rectangle" fill="#5E6166"></path>
                <path d="M179.946535,131.618648 L167.097897,131.618648 C166.600506,131.618648 166.197291,132.022538 166.197291,132.520762 L166.197291,161.057616 C166.197291,161.55584 166.600506,161.959729 167.097897,161.959729 L179.946535,161.959729 C180.443925,161.959729 180.84714,161.55584 180.84714,161.057616 L180.84714,132.520762 C180.84714,132.022538 180.443925,131.618648 179.946535,131.618648 Z M179.045629,133.422875 L179.045629,160.155503 L167.998202,160.155503 L167.998202,133.422875 L179.045629,133.422875 Z" id="Rectangle" fill="#5E6166"></path>
                <path d="M200.090076,118.26737 L187.241439,118.26737 C186.744048,118.26737 186.340833,118.67126 186.340833,119.169483 L186.340833,161.057616 C186.340833,161.55584 186.744048,161.959729 187.241439,161.959729 L200.090076,161.959729 C200.587467,161.959729 200.990682,161.55584 200.990682,161.057616 L200.990682,119.169483 C200.990682,118.67126 200.587467,118.26737 200.090076,118.26737 Z M199.189471,120.071596 L199.189471,160.155503 L188.142044,160.155503 L188.142044,120.071596 L199.189471,120.071596 Z" id="Rectangle" fill="#5E6166"></path>
                <rect id="Rectangle" fill="#76A3E5" x="207.384981" y="107.622431" width="12.8486377" height="53.4351847"></rect>
                <path d="M224.586545,80.1981835 C224.376403,80.0177608 224.106222,79.9576199 223.86606,79.9876903 L215.460409,81.3408604 C214.980087,81.4310718 214.619844,81.8821285 214.709905,82.3632557 C214.799965,82.8443828 215.250268,83.1751577 215.730591,83.1150168 L221.224284,82.2429739 L204.833265,101.307637 L198.138765,94.8725617 C197.958644,94.692139 197.718482,94.6019277 197.478321,94.6319981 C197.238159,94.6319981 196.997998,94.7522799 196.847897,94.9327026 L174.873124,120.492583 L168.508845,115.711382 C168.148603,115.440748 167.66828,115.470818 167.338058,115.771523 L147.614799,134.715904 C147.254557,135.046679 147.254557,135.618018 147.584779,135.978863 C147.7649,136.159286 148.005061,136.249497 148.245223,136.249497 C148.455364,136.249497 148.695526,136.159286 148.875647,136.008933 L168.058543,117.575749 L174.512882,122.417091 C174.903144,122.687725 175.413487,122.657655 175.743709,122.29681 L197.628422,96.8271408 L204.322922,103.262216 C204.503043,103.442639 204.743205,103.53285 204.983366,103.50278 C205.223528,103.50278 205.463689,103.382498 205.61379,103.202076 L223.115556,82.8443828 L222.995475,89.9710788 C222.995475,90.4822764 223.385737,90.8731922 223.896081,90.8731922 C223.896081,90.8731922 223.896081,90.8731922 223.896081,90.8731922 C224.376403,90.8731922 224.796686,90.4822764 224.796686,89.9710788 L224.946787,80.8597333 C224.916767,80.6492402 224.796686,80.3786061 224.586545,80.1981835 Z" id="arrow_1_" fill="#9B9EA0"></path>
                <polygon id="Path" fill="#76A3E5" points="65.9599049 121.875823 72.3241834 127.889913 72.3241834 115.771523"></polygon>
                <polygon id="Path" fill="#76A3E5" points="56.8037495 128.190617 63.3481491 121.905894 56.8037495 115.741452"></polygon>
                <polygon id="Path" fill="#76A3E5" points="89.2555659 113.636521 74.5456769 113.636521 81.9606617 120.642935"></polygon>
                <path d="M64.6390169,123.138782 L57.1940119,130.325619 L72.2641431,130.325619 C72.2641431,130.325619 72.2641431,130.325619 72.2641431,130.325619 L64.6390169,123.138782 Z" id="Path" fill="#76A3E5"></path>
                <polygon id="Path" fill="#76A3E5" points="74.1253943 128.190617 80.6697939 121.905894 74.1253943 115.741452"></polygon>
                <polygon id="Path" fill="#76A3E5" points="38.5514791 114.89948 38.5514791 129.06266 45.9964842 121.905894"></polygon>
                <path d="M47.3173721,123.138782 L39.8723671,130.325619 L54.9424983,130.325619 C54.9424983,130.325619 54.9424983,130.325619 54.9424983,130.325619 L47.3173721,123.138782 Z" id="Path" fill="#76A3E5"></path>
                <polygon id="Path" fill="#76A3E5" points="54.5822561 113.636521 39.8723671 113.636521 47.3173721 120.642935"></polygon>
                <polygon id="Path" fill="#76A3E5" points="89.6458282 127.889913 89.6458282 115.771523 83.2815497 121.875823"></polygon>
                <polygon id="Path" fill="#76A3E5" points="48.6382601 121.875823 55.0025386 127.889913 55.0025386 115.771523"></polygon>
                <path d="M81.9906819,123.138782 L74.5456769,130.325619 L89.6158081,130.325619 C89.6158081,130.325619 89.6158081,130.325619 89.6158081,130.325619 L81.9906819,123.138782 Z" id="Path" fill="#76A3E5"></path>
                <polygon id="Path" fill="#76A3E5" points="71.9039009 113.636521 57.1940119 113.636521 64.6390169 120.642935"></polygon>
                <polygon id="Path" fill="#76A3E5" points="106.967473 113.636521 91.4470391 113.636521 91.4470391 130.325619 91.4470391 130.325619 106.967473 130.325619 106.967473 130.325619"></polygon>
                <polygon id="Path" fill="#76A3E5" points="125.189723 113.636521 108.768684 113.636521 108.768684 130.325619 108.768684 130.325619 125.189723 130.325619"></polygon>
                <path d="M89.5857879,130.325619 C89.6158081,130.355689 89.6158081,130.355689 89.6458282,130.355689 C89.6458282,130.355689 89.6458282,130.325619 89.6458282,130.325619 L89.5857879,130.325619 Z" id="Path" fill="#FE7624"></path>
                <path d="M211.918028,51.5711177 L202.611772,51.5711177 C202.114381,51.5711177 201.711166,51.9750076 201.711166,52.4732311 L201.711166,61.7950697 C201.711166,62.2932932 202.114381,62.6971832 202.611772,62.6971832 L211.918028,62.6971832 C212.415419,62.6971832 212.818633,62.2932932 212.818633,61.7950697 L212.818633,52.4732311 C212.818633,51.9750076 212.415419,51.5711177 211.918028,51.5711177 Z M211.017122,53.3750438 L211.017122,60.8926556 L203.512077,60.8926556 L203.512077,53.3750438 L211.017122,53.3750438 Z" id="Rectangle" fill="#5E6166"></path>
                <path d="M213.749259,34.6715264 L178.175344,34.6715264 C177.677953,34.6715264 177.274738,35.0754163 177.274738,35.5736398 L177.274738,46.3087894 C177.274738,46.8070129 177.677953,47.2109028 178.175344,47.2109028 L213.749259,47.2109028 C214.24665,47.2109028 214.649865,46.8070129 214.649865,46.3087894 L214.649865,35.5736398 C214.649865,35.0754163 214.24665,34.6715264 213.749259,34.6715264 Z M212.848654,36.4757532 L212.848654,45.406676 L179.075949,45.406676 L179.075949,36.4757532 L212.848654,36.4757532 Z" id="Rectangle" fill="#5E6166"></path>
                <path d="M196.277513,60.8929563 C196.774904,60.8929563 197.178119,61.2968463 197.178119,61.7950697 C197.178119,62.2754995 196.803191,62.6682136 196.330431,62.6956518 L196.277513,62.6971832 L178.175344,62.6971832 C177.677953,62.6971832 177.274738,62.2932932 177.274738,61.7950697 C177.274738,61.31464 177.649666,60.9219259 178.122426,60.8944877 L178.175344,60.8929563 L196.277513,60.8929563 Z" id="Path" fill="#5E6166"></path>
                <path d="M196.277513,56.4726006 C196.774904,56.4726006 197.178119,56.8764905 197.178119,57.374714 C197.178119,57.8551438 196.803191,58.2478578 196.330431,58.275296 L196.277513,58.2768274 L178.175344,58.2768274 C177.677953,58.2768274 177.274738,57.8729375 177.274738,57.374714 C177.274738,56.8942842 177.649666,56.5015702 178.122426,56.474132 L178.175344,56.4726006 L196.277513,56.4726006 Z" id="Path" fill="#5E6166"></path>
                <path d="M196.277513,52.0823153 C196.774904,52.0823153 197.178119,52.4862052 197.178119,52.9844287 C197.178119,53.4648585 196.803191,53.8575725 196.330431,53.8850107 L196.277513,53.8865421 L178.175344,53.8865421 C177.677953,53.8865421 177.274738,53.4826522 177.274738,52.9844287 C177.274738,52.5039989 177.649666,52.1112849 178.122426,52.0838467 L178.175344,52.0823153 L196.277513,52.0823153 Z" id="Path" fill="#5E6166"></path>
                <path d="M198.438966,86.0919911 C198.936357,86.0919911 199.339572,86.495881 199.339572,86.9941045 C199.339572,87.4745343 198.964644,87.8672483 198.491884,87.8946865 L198.438966,87.8962179 L148.995727,87.8962179 C148.498337,87.8962179 148.095122,87.492328 148.095122,86.9941045 C148.095122,86.5136747 148.47005,86.1209607 148.94281,86.0935225 L148.995727,86.0919911 L198.438966,86.0919911 Z" id="Path" fill="#5E6166"></path>
                <path d="M178.175344,90.3319242 C178.672735,90.3319242 179.075949,90.7358141 179.075949,91.2340376 C179.075949,91.7144674 178.701021,92.1071814 178.228261,92.1346196 L178.175344,92.136151 L148.995727,92.136151 C148.498337,92.136151 148.095122,91.7322611 148.095122,91.2340376 C148.095122,90.7536078 148.47005,90.3608938 148.94281,90.3334556 L148.995727,90.3319242 L178.175344,90.3319242 Z" id="Path" fill="#5E6166"></path>
                <path d="M98.2616204,61.3139426 L132.184426,44.0835763 C134.886242,49.4361159 136.297191,55.3299236 136.297191,61.3139426 C136.297191,82.2129034 119.125647,99.4131992 98.2616204,99.4131992 C86.6738303,99.4131992 75.716464,94.1208005 68.5116204,85.0395255 L98.2616204,61.3139426 Z" id="Path" fill="#76A3E5"></path>
                <path d="M158.842347,31.3337067 C159.339738,31.3337067 159.742952,31.7375966 159.742952,32.2358201 C159.742952,32.7162499 159.368024,33.1089639 158.895264,33.1364021 L158.842347,33.1379335 L127.411217,33.1379335 C126.913826,33.1379335 126.510611,32.7340436 126.510611,32.2358201 C126.510611,31.7553903 126.885539,31.3626763 127.358299,31.3352381 L127.411217,31.3337067 L158.842347,31.3337067 Z" id="Path" fill="#5E6166"></path>
                <path d="M158.842347,35.5736398 C159.339738,35.5736398 159.742952,35.9775297 159.742952,36.4757532 C159.742952,36.956183 159.368024,37.348897 158.895264,37.3763352 L158.842347,37.3778666 L142.091086,37.3778666 C141.593695,37.3778666 141.19048,36.9739767 141.19048,36.4757532 C141.19048,35.9953234 141.565408,35.6026094 142.038168,35.5751712 L142.091086,35.5736398 L158.842347,35.5736398 Z" id="Path" fill="#5E6166"></path>
                <path d="M158.842347,39.8436433 C159.339738,39.8436433 159.742952,40.2475332 159.742952,40.7457567 C159.742952,41.2261865 159.368024,41.6189005 158.895264,41.6463387 L158.842347,41.6478701 L147.70486,41.6478701 C147.207469,41.6478701 146.804254,41.2439802 146.804254,40.7457567 C146.804254,40.2653269 147.179182,39.8726129 147.651942,39.8451747 L147.70486,39.8436433 L158.842347,39.8436433 Z" id="Path" fill="#5E6166"></path>
                <path d="M159.772973,65.1028189 C160.270363,65.1028189 160.673578,65.5067089 160.673578,66.0049324 C160.673578,66.4853621 160.29865,66.8780762 159.82589,66.9055144 L159.772973,66.9070458 L119.215707,66.9070458 C118.718317,66.9070458 118.315102,66.5031558 118.315102,66.0049324 C118.315102,65.5245026 118.69003,65.1317885 119.16279,65.1043503 L119.215707,65.1028189 L159.772973,65.1028189 Z" id="Path" fill="#5E6166"></path>
                <path d="M159.772973,68.4406386 C160.270363,68.4406386 160.673578,68.8445285 160.673578,69.342752 C160.673578,69.8231818 160.29865,70.2158958 159.82589,70.243334 L159.772973,70.2448654 L152.177867,70.2448654 C151.680476,70.2448654 151.277261,69.8409755 151.277261,69.342752 C151.277261,68.8623222 151.652189,68.4696082 152.124949,68.44217 L152.177867,68.4406386 L159.772973,68.4406386 Z" id="Path" fill="#5E6166"></path>
                <path d="M75.2061209,27.8154644 C75.7035115,27.8154644 76.1067263,28.2193543 76.1067263,28.7175778 C76.1067263,29.1980076 75.7317983,29.5907216 75.2590383,29.6181598 L75.2061209,29.6196912 L51.0398747,29.6196912 C50.542484,29.6196912 50.1392692,29.2158013 50.1392692,28.7175778 C50.1392692,28.237148 50.5141973,27.844434 50.9869573,27.8169958 L51.0398747,27.8154644 L75.2061209,27.8154644 Z" id="Path" fill="#5E6166"></path>
                <path d="M55.8731239,31.2434954 C56.3705146,31.2434954 56.7737294,31.6473853 56.7737294,32.1456088 C56.7737294,32.6260386 56.3988013,33.0187526 55.9260413,33.0461908 L55.8731239,33.0477222 L51.0398747,33.0477222 C50.542484,33.0477222 50.1392692,32.6438323 50.1392692,32.1456088 C50.1392692,31.665179 50.5141973,31.272465 50.9869573,31.2450268 L51.0398747,31.2434954 L55.8731239,31.2434954 Z" id="Path" fill="#323940"></path>
                <path d="M91.1672536,62.0957678 L54.5726522,62.4867413 C54.0752857,62.4920544 53.676392,62.9002348 53.6816496,63.398434 C53.7717299,71.8451693 56.6539939,79.8365069 61.8026551,86.3226592 C62.111884,86.712218 62.6776556,86.7773296 63.0670278,86.4681691 L91.7363012,63.7048405 C92.4088207,63.1708618 92.0253792,62.0866587 91.1672536,62.0957678 Z M88.5557955,63.9276659 L62.6618878,84.487432 L62.5920851,84.3951774 C58.28282,78.6408954 55.794956,71.7284218 55.5085751,64.4143386 L55.5038757,64.2809936 L88.5557955,63.9276659 Z" id="Path" fill="#76A3E5"></path>
                <path d="M57.765018,46.1637268 C56.1015914,50.470727 55.2427001,55.0358987 55.2427001,59.7502793 L55.2427001,60.2314065 C55.2427001,60.7342639 55.6531616,61.1400472 56.1551351,61.1335216 L92.7197164,60.6523149 C93.7097726,60.6392875 93.9568385,59.2682352 93.0338085,58.9093111 L58.9308822,45.6482438 C58.4668217,45.467792 57.9446262,45.698679 57.765018,46.1637268 Z M59.1300134,47.6610574 L88.05686,58.9092089 L57.0466128,59.3172649 L57.0489726,59.1388265 C57.1130561,55.2721456 57.7850657,51.5177945 59.0320456,47.9389508 L59.1300134,47.6610574 Z" id="Path" fill="#76A3E5"></path>
                <path d="M116.901778,24.0317501 L98.8596488,55.8162128 C98.4202989,56.590207 99.2471841,57.4661481 100.043237,57.0700182 L132.735214,40.8019062 C133.17973,40.5807074 133.361781,40.0409535 133.142274,39.5950386 C129.859323,32.9259442 124.608099,27.3706002 118.128688,23.6927861 C117.696392,23.4474083 117.147374,23.5990879 116.901778,24.0317501 Z M118.017001,25.7165472 L118.123905,25.7808779 C123.592264,29.0975139 128.078708,33.8444899 131.062307,39.4832266 L131.119009,39.5913522 L101.882655,54.140036 L118.017001,25.7165472 Z" id="Path" fill="#76A3E5"></path>
                <path d="M113.481852,25.3196173 C108.1983,22.2825021 102.074183,20.5384162 95.559804,20.4782753 L94.9594004,20.4782753 C79.6190876,20.6286275 66.5603086,30.2211002 61.2767566,43.722731 L95.3196426,57.10408 L113.481852,25.3196173 Z" id="Path" fill="#2E64FF"></path>
                <path d="M61.3968373,68.5609204 C61.894228,68.5609204 62.2974428,68.9648103 62.2974428,69.4630338 C62.2974428,69.9434636 61.9225147,70.3361776 61.4497547,70.3636158 L61.3968373,70.3651472 L37.2305911,70.3651472 C36.7332005,70.3651472 36.3299857,69.9612573 36.3299857,69.4630338 C36.3299857,68.982604 36.7049137,68.58989 37.1776737,68.5624518 L37.2305911,68.5609204 L61.3968373,68.5609204 Z" id="Path" fill="#5E6166"></path>
                <path d="M45.966464,71.9889514 C46.4638546,71.9889514 46.8670694,72.3928413 46.8670694,72.8910648 C46.8670694,73.3714946 46.4921414,73.7642086 46.0193814,73.7916468 L45.966464,73.7931782 L37.2305911,73.7931782 C36.7332005,73.7931782 36.3299857,73.3892883 36.3299857,72.8910648 C36.3299857,72.410635 36.7049137,72.017921 37.1776737,71.9904828 L37.2305911,71.9889514 L45.966464,71.9889514 Z" id="Path" fill="#5E6166"></path>
                <path d="M49.1010748,221.740248 L55.924843,215.585904 C83.3493802,211.458194 100.902647,204.72484 108.584643,195.38584 L116.467108,169.926043 C116.680756,169.334856 116.583416,168.672843 116.202958,168.162656 C115.828811,167.659518 115.221284,167.377963 114.589689,167.409986 C109.253838,167.938595 101.686343,171.258204 100.531111,181.954779 L98.5749377,183.280286 C97.9274564,183.720142 97.0657709,183.672419 96.471192,183.157073 C95.8832928,182.642098 95.7157847,181.795293 96.0630066,181.090899 C108.378798,157.252965 115.444815,143.066858 117.261055,138.532577 C119.985417,131.731156 111.191964,127.09409 106.608091,134.170355 C103.552176,138.887865 99.0579305,146.440248 93.125356,156.827507 C90.618912,154.176108 84.0202164,150.286333 77.6684557,155.97145 C74.7967452,154.834172 69.8600946,154.808672 67.2280343,155.393223 C64.2571781,156.046114 63.3223906,160.342786 62.2853686,161.404289 C59.7730701,161.399153 55.9509904,162.420314 54.6090032,163.907142 C52.8569653,165.843536 45.8943252,174.768859 37.3464444,203.438024 L29.63277,210.961609" id="路径" stroke="#9B9EA0" stroke-width="2" fill="#373B3F"></path>
                <line x1="62.4074228" y1="161.354702" x2="57.7244446" y2="171.389655" id="直线" stroke="#9B9EA0" stroke-width="2.01666665" stroke-linecap="round" stroke-linejoin="round" stroke-dasharray="0,0"></line>
                <line x1="77.794351" y1="156.002727" x2="73.1113728" y2="166.03768" id="直线备份" stroke="#9B9EA0" stroke-width="2.01666665" stroke-linecap="round" stroke-linejoin="round" stroke-dasharray="0,0"></line>
                <line x1="93.1812792" y1="156.671724" x2="88.4983011" y2="166.706677" id="直线备份" stroke="#9B9EA0" stroke-width="2.01666665" stroke-linecap="round" stroke-linejoin="round" stroke-dasharray="0,0"></line>
                <path d="M112.337545,180.49139 C107.586709,175.538117 112.885067,170.605386 115.911045,168.957216" id="路径" stroke="#9B9EA0" stroke-width="2.01666665" stroke-linecap="round" stroke-linejoin="round" stroke-dasharray="0,0"></path>
                <line x1="5.787" y1="39.3480739" x2="0.188" y2="43.2910739" id="路径-8备份" stroke="#2E64FF" stroke-width="1.70697" stroke-linecap="round" stroke-linejoin="round" stroke-dasharray="0,0"></line>
                <line x1="5.599" y1="32.1960739" x2="0" y2="36.1560739" id="路径-9备份" stroke="#2E64FF" stroke-width="1.70697" stroke-linecap="round" stroke-linejoin="round" stroke-dasharray="0,0"></line>
                <path d="M261.045388,3.87870515 C260.625388,3.70870515 260.165388,3.62870515 259.715388,3.63870515 C259.045388,3.65870515 258.395388,3.86870515 257.845388,4.25870515 C257.295388,4.63870515 256.865388,5.17870515 256.625388,5.80870515 C256.375388,6.42870515 256.325388,7.11870515 256.465388,7.76870515 C256.605388,8.42870515 256.935388,9.02870515 257.415388,9.49870515 C257.895388,9.96870515 258.505388,10.2787051 259.165388,10.4087051 C259.825388,10.5287051 260.505388,10.4587051 261.125388,10.1987051 C261.745388,9.93870515 262.275388,9.49870515 262.645388,8.93870515 C263.015388,8.37870515 263.215388,7.72870515 263.215388,7.05870515 C263.215388,6.59870515 263.125388,6.14870515 262.945388,5.72870515 C262.765388,5.30870515 262.505388,4.92870515 262.185388,4.60870515 C261.855388,4.28870515 261.475388,4.03870515 261.045388,3.87870515 Z" id="路径备份-16" stroke="#2E64FF" stroke-width="1.70697" stroke-linecap="round" stroke-linejoin="round" stroke-dasharray="0,0"></path>
            </g>
        </g>
    </g>
</svg>