<?xml version="1.0" encoding="UTF-8"?>
<svg width="312px" height="224px" viewBox="0 0 312 224" version="1.1" xmlns="http://www.w3.org/2000/svg" xmlns:xlink="http://www.w3.org/1999/xlink">
    <title>编组</title>
    <g id="新主题" stroke="none" stroke-width="1" fill="none" fill-rule="evenodd">
        <g id="v2.0插画库" transform="translate(-163.000000, -5245.000000)">
            <g id="编组" transform="translate(163.000000, 5245.000000)">
                <path d="M294.23,223.25 L273.84,40.11 L0,167.36 L294.23,223.25 Z" id="路径" fill="#D8D8D8"></path>
                <path d="M248.95,50.42 L247.45,39.6 C246.94,35.9 243.51,33.35 239.83,33.92 L60.68,61.37 C57.05,61.92 54.55,65.32 55.08,68.96 L56.81,80.51 L248.95,50.42 Z" id="路径" fill="#2C42CE"></path>
                <path d="M267.39,183.33 L249.64,55.37 L57.55,85.46 L71.85,180.94 L87.75,183.96 L140.87,194.07 L180.15,201.56 L261.65,190.86 C265.31,190.39 267.89,187 267.39,183.33 Z" id="路径" fill="#FFFFFF"></path>
                <polygon id="路径" fill="#E6F2FF" points="150.55 81.19 74.18 93.21 87.75 183.97 140.88 194.08 165.84 191.47"></polygon>
                <polygon id="路径" fill="#E6F2FF" points="238.63 67.44 162.25 79.44 168.62 126.65 245.87 114.95"></polygon>
                <polygon id="路径" fill="#E6F2FF" points="246.89 124.88 169.86 137.09 171.68 150.49 248.93 138.79"></polygon>
                <polygon id="路径" fill="#E6F2FF" points="250.12 144.78 173.09 156.99 174.91 170.39 252.16 158.69"></polygon>
                <polygon id="路径" fill="#E6F2FF" points="222.9 169.08 176.01 176.6 177.83 190 224.95 182.97"></polygon>
                <path d="M262.33,156.78 L266.01,183.04 C266.23,184.44 265.89,185.84 265.04,186.97 C264.19,188.12 262.96,188.86 261.56,189.06 L214.69,196.03 L214.99,198.01 L261.83,191.04 C263.76,190.76 265.46,189.74 266.63,188.16 C267.79,186.59 268.26,184.67 267.98,182.75 L264.32,156.5 L262.33,156.78 Z" id="路径" fill="#02012D"></path>
                <g id="Group" transform="translate(64.590000, 66.100000)" fill="#FFFFFF">
                    <path d="M3.81,0 C1.7,0 0,1.7 0,3.81 C0,5.91 1.7,7.61 3.81,7.61 C5.91,7.61 7.61,5.91 7.61,3.81 C7.61,1.7 5.91,0 3.81,0 Z" id="路径"></path>
                </g>
                <g id="Group" transform="translate(78.320000, 63.960000)" fill="#FFFFFF">
                    <path d="M3.81,0 C1.7,0 0,1.7 0,3.81 C0,5.91 1.7,7.61 3.81,7.61 C5.91,7.61 7.61,5.91 7.61,3.81 C7.61,1.7 5.91,0 3.81,0 Z" id="路径"></path>
                </g>
                <g id="Group" transform="translate(92.050000, 61.820000)" fill="#FFFFFF">
                    <path d="M3.8,0 C1.7,0 0,1.7 0,3.81 C0,5.91 1.7,7.61 3.8,7.61 C5.91,7.61 7.61,5.91 7.61,3.81 C7.61,1.7 5.91,0 3.8,0 Z" id="路径"></path>
                </g>
                <polygon id="路径" fill="#02012D" transform="translate(63.380000, 121.325000) rotate(-7.890000) translate(-63.380000, -121.325000) " points="62.38 157.84 64.38 157.84 64.38 84.81 62.38 84.81"></polygon>
                <path d="M92.69,142.19 C92.3,142.47 91.89,142.74 91.5,143.04 C79.67,151.42 66.86,163.06 57.85,178.27 L64.3,179.5 C71.43,168.13 81.7,157.67 95.08,148.2 C95.48,147.9 95.87,147.63 96.28,147.35 L92.69,142.19 Z" id="路径" fill="#4D9AFF"></path>
                <path d="M103.41,156.12 L108.54,152.56 C109.59,151.82 109.86,150.36 109.12,149.31 L95.89,130.24 C95.15,129.19 93.69,128.92 92.64,129.66 L87.51,133.21 C86.46,133.95 86.19,135.42 86.93,136.47 L100.16,155.53 C100.9,156.6 102.34,156.86 103.41,156.12 Z" id="路径" fill="#4D9AFF"></path>
                <path d="M128.1,113.26 L147.33,99.89 C149.46,98.41 149.99,95.49 148.51,93.37 C147.03,91.24 144.11,90.71 141.99,92.19 L122.75,105.55 L128.1,113.26 Z" id="路径" fill="#4D9AFF"></path>
                <path d="M142.05,133.08 L161.28,119.71 C163.41,118.23 163.94,115.31 162.46,113.19 C160.98,111.06 158.06,110.53 155.94,112.01 L136.7,125.37 L142.05,133.08 Z" id="路径" fill="#4D9AFF"></path>
                <path d="M125.74,160.49 L150.36,143.45 L116.19,94.25 L91.6,111.32 C86.37,114.95 85.52,122.83 89.73,128.89 L108.64,156.1 C112.84,162.15 120.5,164.12 125.74,160.49 Z" id="路径" fill="#4D9AFF"></path>
                <polygon id="路径" fill="#02012D" points="144.92 134.74 116.46 92.85 95.59 107.34 96.74 108.99 115.95 95.65 143.27 135.87"></polygon>
                <path d="M289.15,177.16 L288.16,166.81 C273.3,147.1 251.1,136.41 232.56,130.65 C232.29,130.56 232.04,130.48 231.77,130.4 L229.93,136.42 C230.2,136.5 230.45,136.58 230.7,136.68 C269.5,147.12 289.15,177.14 289.15,177.16 Z" id="路径" fill="#4D9AFF"></path>
                <path d="M233.68,119.52 L226.56,117.33 L218.36,143.98 L225.49,146.17 C226.65,146.51 227.88,145.87 228.24,144.7 L235.15,122.25 C235.49,121.09 234.85,119.86 233.68,119.52 Z" id="路径" fill="#4D9AFF"></path>
                <path d="M222.56,97.9 L196.13,89.83 L178.64,147.12 L205.06,155.19 C211.51,157.15 218.34,153.52 220.31,147.07 L230.66,113.14 C232.62,106.69 228.99,99.87 222.56,97.9 Z" id="路径" fill="#4D9AFF"></path>
                <polygon id="路径" fill="#02012D" transform="translate(224.980000, 131.300000) rotate(-72.610000) translate(-224.980000, -131.300000) " points="207.81 132.3 242.15 132.3 242.15 130.3 207.81 130.3"></polygon>
                <polygon id="路径" fill="#99C5FF" transform="translate(186.080000, 27.600000) rotate(-54.740000) translate(-186.080000, -27.600000) " points="173.4 30.94 198.76 30.94 198.76 24.26 173.4 24.26"></polygon>
                <polygon id="路径" fill="#99C5FF" transform="translate(132.135000, 22.640000) rotate(-26.130000) translate(-132.135000, -22.640000) " points="128.79 34.6 135.48 34.6 135.48 10.68 128.79 10.68"></polygon>
                <polygon id="路径" fill="#99C5FF" points="170.12 21.77 159.17 17.46 166.86 3.16 160.98 0 149.73 20.92 160.54 25.18 153.18 38.29 159 41.56"></polygon>
                <polygon id="路径" fill="#02012D" transform="translate(142.620000, 194.615000) rotate(-79.220000) translate(-142.620000, -194.615000) " points="141.62 307.14 143.62 307.14 143.62 82.09 141.62 82.09"></polygon>
                <line x1="310.503" y1="24.954" x2="304.904" y2="28.897" id="路径-8备份" stroke="#2C42CE" stroke-width="1.70697" stroke-linecap="round" stroke-linejoin="round" stroke-dasharray="0,0" transform="translate(307.703500, 26.925500) scale(-1, 1) translate(-307.703500, -26.925500) "></line>
                <line x1="310.315" y1="17.802" x2="304.716" y2="21.762" id="路径-9备份" stroke="#2C42CE" stroke-width="1.70697" stroke-linecap="round" stroke-linejoin="round" stroke-dasharray="0,0" transform="translate(307.515500, 19.782000) scale(-1, 1) translate(-307.515500, -19.782000) "></line>
                <path d="M85.7613879,108.484631 C85.3413879,108.314631 84.8813879,108.234631 84.4313879,108.244631 C83.7613879,108.264631 83.1113879,108.474631 82.5613879,108.864631 C82.0113879,109.244631 81.5813879,109.784631 81.3413879,110.414631 C81.0913879,111.034631 81.0413879,111.724631 81.1813879,112.374631 C81.3213879,113.034631 81.6513879,113.634631 82.1313879,114.104631 C82.6113879,114.574631 83.2213879,114.884631 83.8813879,115.014631 C84.5413879,115.134631 85.2213879,115.064631 85.8413879,114.804631 C86.4613879,114.544631 86.9913879,114.104631 87.3613879,113.544631 C87.7313879,112.984631 87.9313879,112.334631 87.9313879,111.664631 C87.9313879,111.204631 87.8413879,110.754631 87.6613879,110.334631 C87.4813879,109.914631 87.2213879,109.534631 86.9013879,109.214631 C86.5713879,108.894631 86.1913879,108.644631 85.7613879,108.484631 Z" id="路径备份-16" stroke="#2C42CE" stroke-width="1.70697" stroke-linecap="round" stroke-linejoin="round" stroke-dasharray="0,0"></path>
            </g>
        </g>
    </g>
</svg>