<?xml version="1.0" encoding="UTF-8"?>
<svg width="278.925844px" height="192.047363px" viewBox="0 0 278.925844 192.047363" version="1.1" xmlns="http://www.w3.org/2000/svg" xmlns:xlink="http://www.w3.org/1999/xlink">
    <title>license过期</title>
    <g id="新主题" stroke="none" stroke-width="1" fill="none" fill-rule="evenodd">
        <g id="v2.0插画库" transform="translate(-172.957843, -5701.000000)">
            <g id="license过期" transform="translate(173.811639, 5701.000000)">
                <polygon id="矩形备份-58" fill="#2C42CE" points="27.701177 -1.41014936e-12 44.6749421 -1.41014936e-12 102.97179 42.0967931 85.9980254 42.0967931"></polygon>
                <g id="编组-11备份-3" transform="translate(15.188361, 41.321555)">
                    <path d="M5.4000001,17.0709567 L191.700369,17.0709567 C194.682707,17.0709567 197.100369,19.4886191 197.100369,22.4709568 L197.100369,127.940903 C197.100369,130.92324 194.682707,133.340903 191.700369,133.340903 L5.4000001,133.340903 C2.41766239,133.340903 3.65231032e-16,130.92324 0,127.940903 L0,22.4709568 C-3.65231032e-16,19.4886191 2.41766239,17.0709567 5.4000001,17.0709567 Z" id="矩形" fill="#D8D8D8"></path>
                    <path d="M191.700369,0 C194.682707,1.62334195e-14 197.100369,2.41766235 197.100369,5.4 L197.100369,120.963763 C197.100369,123.9461 194.682707,126.363763 191.700369,126.363763 L5.4,126.363763 C2.41766235,126.363763 -1.41112581e-15,123.9461 0,120.963763 L0,5.4 C-3.65231026e-16,2.41766235 2.41766235,-2.11668872e-15 5.4,0 L191.700369,0 Z M113.686019,6.20190246 L84.1903356,6.20190246 C81.8354995,6.20190246 79.9265277,8.1108743 79.9265277,10.4657104 C79.9265277,12.8205465 81.8354995,14.7295183 84.1903356,14.7295183 L113.686019,14.7295183 C116.040855,14.7295183 117.949827,12.8205465 117.949827,10.4657104 C117.949827,8.1108743 116.040855,6.20190246 113.686019,6.20190246 Z" id="形状结合" fill="#FFFFFF"></path>
                    <path d="M191.700369,0 C194.682707,0 197.100369,2.41766235 197.100369,5.4 L197.100369,120.963763 C197.100369,123.9461 194.682707,126.363763 191.700369,126.363763 L5.4,126.363763 C2.41766235,126.363763 0,123.9461 0,120.963763 L0,5.4 C0,2.41766235 2.41766235,0 5.4,0 L191.700369,0 Z M191.700369,2 L5.4,2 C3.52223185,2 2,3.52223185 2,5.4 L2,120.963763 C2,122.841531 3.52223185,124.363763 5.4,124.363763 L191.700369,124.363763 C193.578137,124.363763 195.100369,122.841531 195.100369,120.963763 L195.100369,5.4 C195.100369,3.52223185 193.578137,2 191.700369,2 Z M113.686019,4.20190246 C117.145425,4.20190246 119.949827,7.0063048 119.949827,10.4657104 C119.949827,13.925116 117.145425,16.7295183 113.686019,16.7295183 L84.1903356,16.7295183 C80.73093,16.7295183 77.9265277,13.925116 77.9265277,10.4657104 C77.9265277,7.0063048 80.73093,4.20190246 84.1903356,4.20190246 L113.686019,4.20190246 Z M113.686019,6.20190246 L84.1903356,6.20190246 C81.8354995,6.20190246 79.9265277,8.1108743 79.9265277,10.4657104 C79.9265277,12.8205465 81.8354995,14.7295183 84.1903356,14.7295183 L113.686019,14.7295183 C116.040855,14.7295183 117.949827,12.8205465 117.949827,10.4657104 C117.949827,8.1108743 116.040855,6.20190246 113.686019,6.20190246 Z" id="形状结合" fill="#02012D" fill-rule="nonzero"></path>
                    <g id="编组-15" transform="translate(20.874868, 29.288043)" fill="#E6F2FF">
                        <rect id="矩形" x="13.4321803" y="0" width="49.9680851" height="8.6125886" rx="3.1500001"></rect>
                        <rect id="矩形备份-52" x="13.4321803" y="23.2571342" width="77" height="8.6125886" rx="3.1500001"></rect>
                        <rect id="矩形备份-53" x="0" y="46.5142684" width="90.4321803" height="8.6125886" rx="3.1500001"></rect>
                        <rect id="矩形备份-57" x="0" y="68.9069988" width="90.4321803" height="8.6125886" rx="3.1500001"></rect>
                    </g>
                    <g id="编组-8" transform="translate(195.548398, 84.500921)"></g>
                </g>
                <path d="M165.900714,62.8718968 L172.324665,67.5798257 L180.265635,67.5798257 L182.722959,75.195378 L189.14691,79.9034625 L189.162651,79.9034625 L186.705327,87.5190147 L189.162651,95.134567 L182.7387,99.8424959 L181.695769,103.076854 C181.705127,103.201425 181.710377,103.326275 181.71151,103.451198 L181.71151,143.281655 C181.711309,144.893487 180.747571,146.346312 179.270082,146.962082 C177.795525,147.593371 176.088083,147.252223 174.963784,146.101682 L165.908585,136.972573 L156.853539,146.101682 C155.723517,147.243862 154.021716,147.586044 152.543542,146.968296 C151.065369,146.350548 150.102771,144.894878 150.105659,143.281655 L150.105659,103.451198 C150.105659,103.323771 150.105659,103.20428 150.121555,103.076854 L149.078469,99.8426515 L142.654673,95.134567 L145.111997,87.5190147 L142.654673,79.9034625 L149.078469,75.1955336 L151.535948,67.5799813 L159.476918,67.5799813 L165.900714,62.8718968 Z M158.745663,107.657358 L157.296073,107.657358 L157.296073,133.495123 L162.303402,128.421689 C163.816859,126.88871 166.270226,126.88871 167.783683,128.421689 L172.798733,133.495123 L172.798733,107.657358 L171.349295,107.657358 L165.047403,112.298854 L158.745663,107.657358 Z M165.908662,73.2070031 L162.102863,76.0043063 L157.392604,76.0043063 L155.934167,80.5275495 L152.12852,83.3251606 L153.586805,87.8484037 L152.12852,92.3716469 L155.934167,95.1689501 L157.392604,99.6923472 L162.102863,99.6923472 L165.908662,102.489804 L169.714461,99.6923472 L174.424719,99.6923472 L175.883157,95.169104 L179.688804,92.3716469 L178.230518,87.8484037 L179.688804,83.3251606 L175.883157,80.5278573 L174.424719,76.0044602 L169.714461,76.0044602 L165.908662,73.2070031 Z" id="形状结合备份-2" fill="#E6F2FF"></path>
                <path d="M109.219996,1.8189894e-12 L126.193761,1.8189894e-12 L189.106204,47.5234578 L172.132439,47.5234578 L109.219996,1.8189894e-12 Z" id="矩形备份-59" fill="#4D9AFF" transform="translate(149.163100, 23.761729) scale(-1, 1) translate(-149.163100, -23.761729) "></path>
                <g id="编组-14备份" transform="translate(231.108801, 39.611517)" stroke="#2C42CE" stroke-dasharray="0,0" stroke-linecap="round" stroke-linejoin="round" stroke-width="1.70697">
                    <g id="编组-7" transform="translate(6.491472, 5.453781) rotate(114.000000) translate(-6.491472, -5.453781) translate(2.991472, -0.093719)">
                        <line x1="6.77259374" y1="7.152" x2="-4.92540896e-16" y2="11.095" id="路径-8备份" transform="translate(3.386297, 9.123500) scale(-1, 1) translate(-3.386297, -9.123500) "></line>
                        <line x1="7" y1="6.51885567e-17" x2="0.227406255" y2="3.96" id="路径-9备份" transform="translate(3.613703, 1.980000) scale(-1, 1) translate(-3.613703, -1.980000) "></line>
                    </g>
                </g>
                <path d="M4.65687548,57.8216701 C4.23687548,57.6516701 3.77687548,57.5716701 3.32687548,57.5816701 C2.65687548,57.6016701 2.00687548,57.8116701 1.45687548,58.2016701 C0.906875483,58.5816701 0.476875483,59.1216701 0.236875483,59.7516701 C-0.0131245172,60.3716701 -0.0631245172,61.0616701 0.0768754828,61.7116701 C0.216875483,62.3716701 0.546875483,62.9716701 1.02687548,63.4416701 C1.50687548,63.9116701 2.11687548,64.2216701 2.77687548,64.3516701 C3.43687548,64.4716701 4.11687548,64.4016701 4.73687548,64.1416701 C5.35687548,63.8816701 5.88687548,63.4416701 6.25687548,62.8816701 C6.62687548,62.3216701 6.82687548,61.6716701 6.82687548,61.0016701 C6.82687548,60.5416701 6.73687548,60.0916701 6.55687548,59.6716701 C6.37687548,59.2516701 6.11687548,58.8716701 5.79687548,58.5516701 C5.46687548,58.2316701 5.08687548,57.9816701 4.65687548,57.8216701 Z" id="路径备份-49" stroke="#2C42CE" stroke-width="1.70697" stroke-linecap="round" stroke-linejoin="round" stroke-dasharray="0,0"></path>
                <path d="M275.849006,175.628906 L233.173225,101.727539 C227.960822,92.6943359 219.428107,92.6943359 214.203498,101.727539 L171.539924,175.628906 C166.315314,184.674316 170.587775,192.047363 181.01258,192.047363 L266.364143,192.047363 C276.788947,192.047363 281.061408,184.674316 275.849006,175.628906 Z M227.540217,171.273624 C226.631432,172.17239 225.58584,172.7156 224.422985,172.923007 C224.051653,172.94276 223.690093,172.952637 223.308989,172.952637 C222.927886,172.952637 222.566326,172.94276 222.194994,172.923007 C221.022367,172.7156 219.986547,172.162513 219.077761,171.273624 C217.895363,170.098316 217.309049,168.695847 217.309049,167.026711 C217.309049,165.377328 217.895363,163.945229 219.077761,162.750168 C220.26016,161.555106 221.677084,160.952637 223.308989,160.952637 C224.940895,160.952637 226.357819,161.555106 227.540217,162.750168 C228.722616,163.945229 229.308929,165.377328 229.308929,167.026711 C229.318701,168.68597 228.732388,170.108192 227.540217,171.273624 Z M226.172242,156.952637 L220.533805,156.952637 C219.849766,148.524015 217.309049,136.937127 217.309049,135.357994 C217.309049,133.551861 217.866053,132.031946 218.989831,130.808118 C220.123382,129.57442 221.550092,128.952637 223.309049,128.952637 C225.058235,128.952637 226.494717,129.564551 227.628268,130.778509 C228.752046,132.002337 229.309049,133.522253 229.309049,135.357994 C229.309049,136.937127 226.963773,148.524015 226.172242,156.952637 L226.172242,156.952637 Z" id="形状备份-4" fill="#FFB500"></path>
                <g id="编组-24" transform="translate(23.911134, 64.682107)">
                    <path d="M36.9149546,0 C24.6924342,0 14.7659259,9.66940101 14.7659259,21.6028981 C14.7659259,33.5363952 24.6880514,43.2057962 36.9150479,43.2057962 C49.1462406,43.2057962 59.0683661,33.5363952 59.0683661,21.6028981 C59.0683661,9.66940101 49.1548196,0 36.9149546,0 Z" id="路径" fill="#4D9AFF"></path>
                    <path d="M28.6161326,49.4082784 C12.8127956,49.4082784 0,61.9033671 0,77.3105636 L0,79.1035725 C0,85.4073224 12.8127956,85.4116852 28.6161326,85.4116852 L47.0758013,85.4116852 C62.8747554,85.4116852 75.6831683,85.178323 75.6831683,79.1035725 L75.6831683,77.3106564 C75.6831683,61.9034599 62.8747554,49.4082784 47.0758013,49.4082784 L28.6161326,49.4082784 L28.6161326,49.4082784 Z" id="路径" fill="#4D9AFF"></path>
                    <path d="M45.0364503,27.0036516 C45.0451132,27.1527088 45.049505,27.302911 45.049505,27.454138 C45.049505,31.6796878 41.6207154,35.1051727 37.3910891,35.1051727 C33.1614628,35.1051727 29.7326733,31.6796878 29.7326733,27.454138 C29.7326733,27.302911 29.737065,27.1527088 29.7457279,27.0036516 L45.0364503,27.0036516 Z" id="路径" fill="#FFFFFF"></path>
                </g>
            </g>
        </g>
    </g>
</svg>