<?xml version="1.0" encoding="UTF-8"?>
<svg width="260px" height="242px" viewBox="0 0 260 242" version="1.1" xmlns="http://www.w3.org/2000/svg" xmlns:xlink="http://www.w3.org/1999/xlink">
    <title>暂无数据</title>
    <g id="新主题" stroke="none" stroke-width="1" fill="none" fill-rule="evenodd">
        <g id="v2.0插画库" transform="translate(-749.000000, -8810.000000)">
            <g id="编组" transform="translate(749.914776, 8810.000000)">
                <path d="M233.434928,153.683259 L211.542168,42.6120748 C210.901347,39.3609193 207.746277,37.2448252 204.495121,37.8856464 C204.344514,37.9153319 204.195101,37.9507863 204.047213,37.9919311 L110.506089,64.0166109 C108.364166,64.6125292 106.068311,63.975194 104.540078,62.3604309 L93.268096,50.4502159 C91.7398441,48.8354325 89.4439525,48.1981031 87.3020098,48.7940567 L24.4045686,66.2940359 C21.2121241,67.182271 19.3441932,70.4903155 20.2324283,73.6827601 C20.2433086,73.7218654 20.2545854,73.7608594 20.2662571,73.7997359 L58.7896089,202.115146 C59.7223892,205.222095 62.9557115,207.025029 66.0891266,206.185433 L96.6917507,197.985485 C96.71708,197.978698 96.7423646,197.971745 96.7676028,197.964626 L229.176956,160.618265 C232.186614,159.769384 234.039658,156.75131 233.434928,153.683259 Z" id="路径备份-8" fill="#292C2F" transform="translate(126.505615, 121.973978) rotate(-345.000000) translate(-126.505615, -121.973978) "></path>
                <path d="M79.3875305,32.3209558 L138.577311,32.2454469 C141.291899,32.2419839 143.495314,34.4397847 143.498777,37.1543725 C143.498783,37.1585436 143.498783,37.1627146 143.498778,37.1668857 L143.387749,124.584336 C143.384307,127.294039 141.188526,129.489833 138.478823,129.493289 L79.2890427,129.568798 C76.5744549,129.572261 74.3710394,127.37446 74.3675764,124.659873 C74.3675711,124.655702 74.367571,124.651531 74.3675763,124.64736 L74.4786049,37.229909 C74.4820464,34.5202066 76.6778281,32.3244126 79.3875305,32.3209558 Z" id="矩形备份-32" fill="#424445" transform="translate(108.933177, 80.907123) rotate(-15.000000) translate(-108.933177, -80.907123) "></path>
                <text id="A备份" stroke="#F7F5F5" stroke-width="2" opacity="0.099999994" fill-rule="nonzero" transform="translate(85.442855, 60.074748) rotate(-15.000000) translate(-85.442855, -60.074748) " font-family="Helvetica-Bold, Helvetica" font-size="22.1184" font-weight="bold" fill="#BFBFBF">
                    <tspan x="77.4288679" y="68.0747478">A</tspan>
                </text>
                <line x1="84.6042366" y1="82.9714321" x2="132.450101" y2="82.9103947" id="直线备份-12" stroke="#F7F5F5" stroke-width="2" opacity="0.099999994" stroke-linecap="round" stroke-linejoin="round" transform="translate(108.527169, 82.940913) rotate(-15.000000) translate(-108.527169, -82.940913) "></line>
                <line x1="82.0513401" y1="73.3952587" x2="129.897205" y2="73.3342214" id="直线备份-19" stroke="#F7F5F5" stroke-width="2" opacity="0.099999994" stroke-linecap="round" stroke-linejoin="round" transform="translate(105.974272, 73.364740) rotate(-15.000000) translate(-105.974272, -73.364740) "></line>
                <line x1="99.6920204" y1="61.105854" x2="127.203392" y2="61.0707575" id="直线备份-20" stroke="#F7F5F5" stroke-width="2" opacity="0.099999994" stroke-linecap="round" stroke-linejoin="round" transform="translate(113.447706, 61.088306) rotate(-15.000000) translate(-113.447706, -61.088306) "></line>
                <line x1="97.139124" y1="51.5296807" x2="124.650496" y2="51.4945842" id="直线备份-22" stroke="#F7F5F5" stroke-width="2" opacity="0.099999994" stroke-linecap="round" stroke-linejoin="round" transform="translate(110.894810, 51.512132) rotate(-15.000000) translate(-110.894810, -51.512132) "></line>
                <line x1="87.2103184" y1="92.7471091" x2="135.056183" y2="92.6860717" id="直线备份-23" stroke="#FFFFFF" stroke-width="0.6144" stroke-linecap="square" transform="translate(111.133251, 92.716590) rotate(-15.000000) translate(-111.133251, -92.716590) "></line>
                <path d="M121.709048,9.12383817 L195.696274,9.2182243 C199.083402,9.22254529 201.828129,11.9672878 201.832431,15.3544158 L201.970911,124.385516 C201.975221,127.778751 199.227954,130.533005 195.834719,130.537315 C195.829506,130.537322 195.824292,130.537322 195.819078,130.537315 L121.831852,130.442929 C118.444724,130.438608 115.699997,127.693865 115.695695,124.306737 L115.557215,15.2756366 C115.552905,11.8824019 118.300172,9.12814786 121.693407,9.12383812 C121.698621,9.1238315 121.703834,9.12383152 121.709048,9.12383817 Z" id="矩形备份-33" fill="#424445" transform="translate(158.764063, 69.830577) rotate(-345.000000) translate(-158.764063, -69.830577) "></path>
                <line x1="127.157402" y1="71.7345765" x2="186.964733" y2="71.8108732" id="直线备份-24" stroke="#F7F5F5" stroke-width="2" opacity="0.099999994" stroke-linecap="round" stroke-linejoin="round" transform="translate(157.061068, 71.772725) rotate(-345.000000) translate(-157.061068, -71.772725) "></line>
                <line x1="123.906251" y1="83.9299755" x2="183.713581" y2="84.0062723" id="直线备份-25" stroke="#F7F5F5" stroke-width="2" opacity="0.099999994" stroke-linecap="round" stroke-linejoin="round" transform="translate(153.809916, 83.968124) rotate(-345.000000) translate(-153.809916, -83.968124) "></line>
                <line x1="120.655099" y1="96.1253746" x2="180.46243" y2="96.2016713" id="直线备份-26" stroke="#F7F5F5" stroke-width="2" opacity="0.099999994" stroke-linecap="round" stroke-linejoin="round" transform="translate(150.558764, 96.163523) rotate(-345.000000) translate(-150.558764, -96.163523) "></line>
                <ellipse id="椭圆形备份-20" fill="#4F5256" transform="translate(188.212613, 34.947412) rotate(-345.000000) translate(-188.212613, -34.947412) " cx="188.212613" cy="34.9474117" rx="3.05399393" ry="3.09093577"></ellipse>
                <path d="M175.03551,42.5652516 L187.952151,59.4277183 C188.725933,60.4378792 188.534311,61.8840513 187.52415,62.657834 C187.121237,62.9664656 186.627689,63.1334215 186.120153,63.132774 L160.329664,63.0998729 C159.057201,63.0982496 158.026981,62.0653985 158.028605,60.7929355 C158.029249,60.2879324 158.195794,59.7971282 158.502622,59.3960228 L171.376471,42.5664573 C172.149587,41.5557867 173.595633,41.3632113 174.606304,42.1363282 C174.767656,42.2597555 174.911976,42.4039805 175.03551,42.5652516 Z" id="三角形备份-3" stroke="#F7F5F5" stroke-width="2" opacity="0.099999994" stroke-linecap="round" stroke-linejoin="round" transform="translate(173.234339, 51.657276) rotate(-345.000000) translate(-173.234339, -51.657276) "></path>
                <path d="M159.648943,32.9328072 L177.196988,56.1881541 C177.963442,57.2038875 177.76136,58.6486351 176.745627,59.4150883 C176.345046,59.7173589 175.85673,59.8805787 175.354901,59.8799385 L140.317827,59.8352414 C139.045364,59.8336181 138.015145,58.8007671 138.016768,57.528304 C138.017405,57.0290346 138.180202,56.5434814 138.480655,56.1447348 L155.969684,32.934085 C156.735431,31.9178195 158.180038,31.7147345 159.196304,32.480482 C159.367489,32.6094686 159.519838,32.7617116 159.648943,32.9328072 Z" id="三角形备份-4" fill="#4F5256" transform="translate(157.845761, 45.189792) rotate(-345.000000) translate(-157.845761, -45.189792) "></path>
                <path d="M143.020234,21.4138832 L187.213028,21.4702603 C191.446938,21.4756616 194.877847,24.9065897 194.883224,29.1404998 L194.91475,53.9625948 C194.920138,58.2041382 191.486054,61.6469557 187.244511,61.6523429 C187.237994,61.6523512 187.231476,61.6523512 187.224959,61.6523428 L143.032165,61.5959657 C138.798255,61.5905645 135.367346,58.1596363 135.361969,53.9257263 L135.330442,29.1036313 C135.325055,24.8620878 138.759138,21.4192703 143.000682,21.4138832 C143.007199,21.4138749 143.013716,21.4138749 143.020234,21.4138832 Z" id="矩形备份-34" stroke="#F7F5F5" stroke-width="2" opacity="0.099999994" stroke-linecap="round" stroke-linejoin="round" transform="translate(165.122596, 41.533113) rotate(-345.000000) translate(-165.122596, -41.533113) "></path>
                <path d="M169.299699,41.894819 L228.553888,42.0256244 C231.260012,42.0315983 233.452267,44.2238663 233.458226,46.9299896 L233.650513,134.256974 C233.65649,136.971557 231.460731,139.177007 228.746148,139.182985 C228.738923,139.183001 228.731699,139.183001 228.724474,139.182985 L169.470285,139.052179 C166.764161,139.046205 164.571906,136.853937 164.565947,134.147814 L164.37366,46.8208299 C164.367683,44.1062465 166.563442,41.9007962 169.278025,41.894819 C169.28525,41.8948031 169.292474,41.8948031 169.299699,41.894819 Z" id="矩形备份-35" fill="#424445" transform="translate(199.012087, 90.538902) rotate(-330.000000) translate(-199.012087, -90.538902) "></path>
                <line x1="174.40649" y1="92.2492989" x2="222.297037" y2="92.3550187" id="直线备份-27" stroke="#F7F5F5" stroke-width="2" opacity="0.099999994" stroke-linecap="round" stroke-linejoin="round" transform="translate(198.351764, 92.302159) rotate(-330.000000) translate(-198.351764, -92.302159) "></line>
                <line x1="169.371927" y1="101.013931" x2="217.262474" y2="101.119651" id="直线备份-28" stroke="#F7F5F5" stroke-width="2" opacity="0.099999994" stroke-linecap="round" stroke-linejoin="round" transform="translate(193.317200, 101.066791) rotate(-330.000000) translate(-193.317200, -101.066791) "></line>
                <path d="M193.331681,54.4921331 L229.341718,54.5716263 C232.724372,54.5790936 235.464692,57.3194286 235.47214,60.7020828 L235.509126,77.4993461 C235.516598,80.8925754 232.771899,83.6493882 229.37867,83.6568598 C229.369639,83.6568797 229.360608,83.6568796 229.351578,83.6568597 L193.341541,83.5773665 C189.958887,83.5698992 187.218568,80.8295642 187.211119,77.44691 L187.174133,60.6496466 C187.166662,57.2564174 189.91136,54.4996046 193.30459,54.492133 C193.31362,54.4921131 193.322651,54.4921131 193.331681,54.4921331 Z" id="矩形备份-36" stroke="#F7F5F5" stroke-width="2" opacity="0.099999994" stroke-linecap="round" stroke-linejoin="round" transform="translate(211.341630, 69.074496) rotate(-330.000000) translate(-211.341630, -69.074496) "></path>
                <path d="M213.539967,66.1905919 L217.0238,73.0966172 C217.482292,74.0054901 217.117187,75.1139589 216.208314,75.5724514 C215.952076,75.7017139 215.669193,75.769355 215.382198,75.7699869 L208.384009,75.7853963 C207.36604,75.7876378 206.538996,74.9642282 206.536754,73.9462594 C206.536113,73.654891 206.604556,73.3675212 206.736468,73.1077231 L210.250825,66.1862884 C210.711694,65.2786183 211.821115,64.9164147 212.728785,65.377284 C213.078909,65.5550594 213.363109,65.840004 213.539967,66.1905919 Z" id="三角形备份-5" fill="#4F5256" transform="translate(211.871306, 69.365500) rotate(-600.000000) translate(-211.871306, -69.365500) "></path>
                <polygon id="路径备份-13" fill="#373B3F" transform="translate(146.066288, 142.131713) rotate(-345.000000) translate(-146.066288, -142.131713) " points="61.2434641 219.593198 106.641978 207.428703 111.471607 206.134608 113.403459 205.61697 117.267162 204.581694 198.836288 182.250229 241.776288 169.930229 230.716288 64.6702285 222.776288 66.9502285 50.3562881 116.380229 54.997601 197.422725"></polygon>
                <path d="M25.7420996,86.2408333 C25.3220996,86.0708333 24.8620996,85.9908333 24.4120996,86.0008333 C23.7420996,86.0208333 23.0920996,86.2308333 22.5420996,86.6208333 C21.9920996,87.0008333 21.5620996,87.5408333 21.3220996,88.1708333 C21.0720996,88.7908333 21.0220996,89.4808333 21.1620996,90.1308333 C21.3020996,90.7908333 21.6320996,91.3908333 22.1120996,91.8608333 C22.5920996,92.3308333 23.2020996,92.6408333 23.8620996,92.7708333 C24.5220996,92.8908333 25.2020996,92.8208333 25.8220996,92.5608333 C26.4420996,92.3008333 26.9720996,91.8608333 27.3420996,91.3008333 C27.7120996,90.7408333 27.9120996,90.0908333 27.9120996,89.4208333 C27.9120996,88.9608333 27.8220996,88.5108333 27.6420996,88.0908333 C27.4620996,87.6708333 27.2020996,87.2908333 26.8820996,86.9708333 C26.5520996,86.6508333 26.1720996,86.4008333 25.7420996,86.2408333 Z" id="路径备份-16" stroke="#2C42CE" stroke-width="1.70697" stroke-linecap="round" stroke-linejoin="round" stroke-dasharray="0,0"></path>
                <polyline id="路径-5" stroke="#323940" stroke-width="2" points="146.244799 90.5389018 248.085224 89 232.085224 194 44.0852241 195"></polyline>
                <path d="M139.355224,87.54 C116.005224,67.94 80.2752241,116.99 117.505224,119.05 C127.455224,119.6 137.825224,114.8 147.665224,107.46 C147.585224,99.37 145.035224,92.31 139.355224,87.54 Z" id="路径" stroke="#9B9EA0" stroke-width="2" stroke-linecap="round"></path>
                <path d="M197.765224,48.23 C182.365224,74.3166667 165.665224,94.06 147.665224,107.46" id="路径" stroke="#9B9EA0" stroke-width="2" stroke-linecap="round"></path>
                <path d="M147.665224,107.46 C147.935224,132.62 124.385224,167.81 97.2052241,175.48" id="路径" stroke="#9B9EA0" stroke-width="2" stroke-linecap="round"></path>
                <path d="M79.0852241,183.06 C71.1452241,182.2 65.2652241,185.74 63.1752241,192.66 C76.0618908,202.36 84.2285575,198.096667 87.6752241,179.87 C87.6052241,180.21 86.6752241,183.88 79.0852241,183.06 Z" id="路径" fill="#76A3E5"></path>
                <line x1="252.483712" y1="44.152" x2="246.884712" y2="48.095" id="路径-8备份" stroke="#2C42CE" stroke-width="1.70697" stroke-linecap="round" stroke-linejoin="round" stroke-dasharray="0,0"></line>
                <line x1="252.295712" y1="37" x2="246.696712" y2="40.96" id="路径-9备份" stroke="#2C42CE" stroke-width="1.70697" stroke-linecap="round" stroke-linejoin="round" stroke-dasharray="0,0"></line>
            </g>
        </g>
    </g>
</svg>