<?xml version="1.0" encoding="UTF-8"?>
<svg width="311px" height="210px" viewBox="0 0 311 210" version="1.1" xmlns="http://www.w3.org/2000/svg" xmlns:xlink="http://www.w3.org/1999/xlink">
    <title>暂无历史版本</title>
    <g id="新主题" stroke="none" stroke-width="1" fill="none" fill-rule="evenodd">
        <g id="v2.0插画库" transform="translate(-722.000000, -2305.000000)">
            <g id="暂无历史版本" transform="translate(722.000000, 2306.000000)">
                <polygon id="Path备份-2" fill="#EDEEEF" fill-rule="nonzero" points="222.025031 181.036603 177.691804 208.001877 177.691804 35.8389004 222.025031 8.87362637"></polygon>
                <path d="M266.358576,208.001877 L222.025031,181.036603 L222.025031,8.87362637 L266.358576,35.8389004 L266.358576,208.001877 L266.358576,208.001877 Z" id="Path备份-3" fill="#D8D8D8"></path>
                <path d="M69.9203615,136.273405 L59.4299295,139.124791 C60.1072016,121.927365 60.1072016,112.862855 59.4299295,111.931259 C62.8439947,109.371392 71.20213,102.796392 84.5043355,92.2062599 L71.9671325,64.9246947 C78.8043121,68.6013181 82.9833797,70.6264199 84.5043355,71 C86.0252913,71.3735801 89.1598598,71.3735801 93.9080411,71 L100.546311,71.2767303 L103.546311,69.8125937 L106.332481,71 C110.894306,70.5287205 113.175219,69.9867002 113.175219,69.3739392 C113.175219,68.7611781 110.629563,66.6568483 105.538251,63.0609497 L89.2682287,58.1680514 L83.5820663,58.5463674 L75.3598349,58.5463674 C72.2729632,58.9844995 70.7295273,59.2035655 70.7295273,59.2035655 C70.7295273,59.2035655 60.1240178,59.9463034 53.0285264,66.2437363 C48.5074916,71.5518994 43.7847877,78.0103251 38.8604148,85.6190136 L23.792514,110.276129 L13.4776815,130.631342 L8.17355833,145.197449 L3.1225803,162.04323 L1.65961657,171.696562 C-0.672185479,192.683276 3.10681167,204.657132 12.996608,207.618127 C31.8300831,207.884643 46.5257964,208.040553 57.083748,208.085857 L85.9848923,198.898617 L69.9203615,136.273405 Z" id="路径-6" fill="#FFFFFF"></path>
                <path d="M310.691804,181.036603 L266.358576,208.001877 L266.358576,35.8389004 L310.691804,8.87362637 L310.691804,181.036603 L310.691804,181.036603 Z" id="Path备份-6" fill="#BFBFBF"></path>
                <path d="M95.0779767,128.627044 L95.1339613,128.659331 L173.750714,177.841134 C174.441227,178.273111 174.247571,179.326776 173.448543,179.485223 L170.597978,180.059778 C169.574517,180.267881 168.447814,180.498556 167.224097,180.750913 L163.893383,181.441737 C159.834983,182.288203 155.449803,183.219683 150.805396,184.226526 C134.225227,187.820877 117.645363,191.65454 102.120845,195.576613 L100.986803,195.86375 C85.5603837,199.778376 72.0314539,203.573044 60.9336831,207.170647 L59.8176608,207.534471 C58.8950231,207.836965 57.9908718,208.137725 57.105463,208.436713 C56.6348118,208.595644 56.1243792,208.343108 55.9653799,207.872659 C55.8063806,207.40221 56.0590245,206.891997 56.5296757,206.733066 L57.607154,206.371415 C58.5124997,206.069352 59.4364303,205.765575 60.3786978,205.460117 L61.188212,205.198725 C72.1734653,201.665412 85.4555509,197.949697 100.54413,194.120802 C116.038696,190.188883 132.611444,186.342845 149.209566,182.732866 L151.534892,182.228704 C156.326476,181.193114 160.831661,180.239932 164.974515,179.379997 L169.451439,178.458144 L170.880823,178.167218 L94.495143,130.381148 L93.3989221,130.637081 C92.9265889,130.748165 92.4095673,130.870745 91.8503359,131.004461 L90.8058813,131.255367 C88.6835187,131.767551 86.3627775,132.341633 83.8858139,132.971479 C75.6299605,135.070792 67.3258196,137.357026 59.5098539,139.751846 C59.0348846,139.897377 58.5318189,139.63048 58.3862253,139.155715 C58.2406317,138.680949 58.5076435,138.1781 58.9826128,138.032569 C66.5154144,135.724511 74.4946526,133.518358 82.4482556,131.482357 L83.4422884,131.228748 C86.0646786,130.561922 88.5127172,129.957358 90.7369208,129.422234 L92.6229035,128.972434 L94.4570153,128.544817 C94.6678521,128.496821 94.8881757,128.526487 95.0779767,128.627044 Z" id="Path" fill="#02012D"></path>
                <path d="M129.546311,114.539714 L134.738711,148.662992 L167.081912,164.633452 C188.607377,145.353242 199.370109,135.713137 199.370109,135.713137 C199.370109,135.713137 196.428843,126.229606 190.546311,107.262545 L186.046311,94.2584679 L129.546311,114.539714 Z" id="路径-3" fill="#FFFFFF"></path>
                <path d="M132.705823,119.390781 L94.7167211,128.728602 L94.7167211,128.69848 L69.9203615,134.12044 L86.4412734,200.358725 L120.862338,192.01493 C125.599732,201.232263 129.077819,207.618127 129.077819,207.618127 L298.027214,207.618127 C273.226283,154.437847 256.002843,122.56308 246.356895,111.993826 C236.710947,101.424572 224.507244,97.6251861 209.745786,100.595669 L201.757838,102.432093 L189.674485,105.384049" id="路径" fill="#FFFFFF"></path>
                <path d="M132.705823,119.390781 L94.7167211,128.728602 L94.7167211,128.69848 L69.9203615,134.12044 L86.4412734,200.358725 L120.862338,192.01493 C125.599732,201.232263 129.077819,207.618127 129.077819,207.618127 M298.027214,207.618127 C273.226283,154.437847 256.002843,122.56308 246.356895,111.993826 C236.710947,101.424572 224.507244,97.6251861 209.745786,100.595669 L201.757838,102.432093 L189.674485,105.384049" id="形状" stroke="#02012D" stroke-width="1.8" stroke-linecap="round" stroke-linejoin="round" stroke-dasharray="0,0"></path>
                <path d="M298.027214,207.618127 C273.226283,154.437847 256.002843,122.56308 246.356895,111.993826 C236.710947,101.424572 224.507244,97.6251861 209.745786,100.595669 L201.757838,102.432093 L189.674485,105.384049 L187.080762,105.922697" id="路径" stroke="#02012D" stroke-width="1.8" stroke-linecap="round" stroke-linejoin="round" stroke-dasharray="0,0"></path>
                <path d="M200.24863,73.439848 C200.24863,81.1719647 194.8754,87.4410531 188.247561,87.4410531 C181.62186,87.4410531 176.24863,81.1719647 176.24863,73.439848 C176.24863,65.7101415 181.62186,59.4410531 188.247561,59.4410531 C194.8754,59.4410531 200.24863,65.7101415 200.24863,73.439848" id="Fill-21备份-5" stroke="#050B1E" stroke-width="1.536273" fill="#FFFFFF" stroke-linecap="round" stroke-linejoin="round" stroke-dasharray="0,0" transform="translate(188.248630, 73.441053) rotate(15.000000) translate(-188.248630, -73.441053) "></path>
                <path d="M123.546311,78.4990101 C123.546311,84.8503917 118.396965,90 112.047335,90 C105.695656,90 100.546311,84.8503917 100.546311,78.4990101 C100.546311,72.1496083 105.695656,67 112.047335,67 C118.396965,67 123.546311,72.1496083 123.546311,78.4990101" id="Fill-23备份-5" stroke="#050B1E" stroke-width="1.536273" fill="#FFFFFF" stroke-linecap="round" stroke-linejoin="round" stroke-dasharray="0,0"></path>
                <path d="M154.046311,129 L154.046311,129 C134.521684,129 118.546311,112.405903 118.546311,92.1274619 L118.546311,66.8705979 C118.546311,46.5902169 134.521684,30 154.046311,30 C173.570937,30 189.546311,46.5902169 189.546311,66.8705979 L189.546311,92.1274619 C189.546311,112.405903 173.570937,129 154.046311,129" id="Fill-25备份-5" stroke="#050B1E" stroke-width="1.8" fill="#FFFFFF" stroke-linecap="round" stroke-linejoin="round" stroke-dasharray="0,0" transform="translate(154.046311, 79.500000) rotate(2.000000) translate(-154.046311, -79.500000) "></path>
                <path d="M116.492206,74 C116.492206,74 100.562207,57.8095321 104.04392,44.4611099 C107.527955,31.1126877 114.268552,30 114.268552,30 L129.546311,42.1916866 C129.546311,42.1916866 116.267055,60.3738847 116.492206,74" id="Fill-27备份-5" stroke="#050B1E" stroke-width="1.536273" fill="#050B1E" stroke-linecap="round" stroke-linejoin="round" stroke-dasharray="0,0"></path>
                <path d="M180.784406,18 C180.784406,18 200.96542,27.3875677 200.539668,47.4291761 C200.113915,67.4707845 189.375104,70 189.375104,70 C189.375104,70 189.375104,51.338642 172.135651,35.0535529 C168.789449,31.8920334 180.784406,18 180.784406,18" id="Fill-29备份-5" stroke="#050B1E" stroke-width="1.536273" fill="#050B1E" stroke-linecap="round" stroke-linejoin="round" stroke-dasharray="0,0"></path>
                <path d="M127.047121,80 L127.047121,80 C126.220541,80 125.546311,79.176962 125.546311,78.1699275 L125.546311,72.8300725 C125.546311,71.823038 126.220541,71 127.047121,71 L127.047121,71 C127.87208,71 128.546311,71.823038 128.546311,72.8300725 L128.546311,78.1699275 C128.546311,79.176962 127.87208,80 127.047121,80" id="Fill-31备份-6" fill="#263166"></path>
                <path d="M161.047121,80 L161.0455,80 C160.220541,80 159.546311,79.176962 159.546311,78.1699275 L159.546311,72.8300725 C159.546311,71.823038 160.220541,71 161.0455,71 L161.047121,71 C161.87208,71 162.546311,71.823038 162.546311,72.8300725 L162.546311,78.1699275 C162.546311,79.176962 161.87208,80 161.047121,80" id="Fill-33备份-5" fill="#263166"></path>
                <path d="M134.677785,67.9913169 C134.677785,77.6568798 126.842916,85.4913169 117.176819,85.4913169 C107.512655,85.4913169 99.6777851,77.6568798 99.6777851,67.9913169 C99.6777851,58.3276855 107.512655,50.4913169 117.176819,50.4913169 C126.842916,50.4913169 134.677785,58.3276855 134.677785,67.9913169 Z" id="Stroke-37备份-5" stroke="#2E64FF" stroke-width="1.50616066" transform="translate(117.177785, 67.991317) rotate(6.000000) translate(-117.177785, -67.991317) "></path>
                <path d="M147.414836,73.0086831 C147.414836,82.674246 155.249706,90.5086831 164.915802,90.5086831 C174.579967,90.5086831 182.414836,82.674246 182.414836,73.0086831 C182.414836,63.3450518 174.579967,55.5086831 164.915802,55.5086831 C155.249706,55.5086831 147.414836,63.3450518 147.414836,73.0086831 Z" id="Stroke-39备份-5" stroke="#005DFF" stroke-width="1.8" transform="translate(164.914836, 73.008683) rotate(6.000000) translate(-164.914836, -73.008683) "></path>
                <path d="M134.81311,68.7861668 C136.432752,67.6921668 138.522109,67.0321668 140.80457,67.0321668 C142.648631,67.0321668 144.367435,67.4641668 145.81311,68.2061668" id="Stroke-41备份-5" stroke="#2E64FF" stroke-width="1.50616066" transform="translate(140.313110, 67.909167) rotate(6.000000) translate(-140.313110, -67.909167) "></path>
                <path d="M97.5463106,25.2566347 C97.5463106,25.2566347 98.2478146,-3.99067332 138.109386,0.461140418 C177.970957,4.91295416 188.787363,22.8289429 189.188813,25.2566347 C189.588195,27.6864175 193.339896,47.7687187 163.448374,43.3733629 C133.114015,38.913185 98.3471426,50.052129 97.5463106,25.2566347" id="Fill-55备份-5" stroke="#050B1E" stroke-width="1.536273" fill="#050B1E" stroke-linecap="round" stroke-linejoin="round" stroke-dasharray="0,0"></path>
                <path d="M158.691804,101.287686 C158.355918,103.624455 157.244914,105.740955 155.582713,107.215801 C153.920512,108.700224 151.819076,109.42807 149.691804,109.265263" id="路径备份-60" stroke="#02012D" stroke-width="2" stroke-linecap="round" stroke-linejoin="round" stroke-dasharray="0,0"></path>
                <path d="M64.0622905,59.2753193 C69.1253977,57.6101092 74.2415008,57.7937453 79.4022736,60.0257916 L83.2213021,61.7119695 C95.1519616,66.992532 101.262286,69.9790644 105.420002,72.8679656 L105.5454,72.9554805 C108.285197,74.876057 109.770975,76.5653477 109.866271,78.22806 C109.976824,80.1569745 108.294459,81.5388372 105.001796,82.5014317 L104.857623,82.5430198 C100.537177,83.7727529 93.889915,87.4981338 85.5980713,93.1147647 C83.7765888,94.348579 81.8943647,95.6613872 79.9621433,97.0428676 C75.3545945,100.337127 70.6730781,103.868005 66.1627247,107.399006 L65.3396604,108.04489 C64.3494402,108.823815 63.417712,109.563555 62.5527552,110.256113 L61.569582,111.04613 L60.5984895,111.832625 L60.605862,113.027418 L60.6114126,114.320447 C60.6356464,121.057163 60.5899633,128.638086 60.4264993,135.911203 L60.3880655,137.526632 C60.170209,146.181402 59.8003597,152.9531 59.2472725,157.181842 L59.2083873,157.472736 C58.1637437,165.318309 56.0828503,173.776433 53.6762024,180.466018 C53.5080954,180.933292 52.992854,181.175874 52.5253784,181.00784 C52.0579029,180.839805 51.8152167,180.324785 51.9833237,179.85751 C54.3049911,173.404139 56.3241846,165.250079 57.3694687,157.646613 L57.4632448,156.95017 C58.0250185,152.654753 58.3987273,145.60209 58.6118007,136.571654 L58.6433626,135.167527 C58.7938703,128.128226 58.8358131,120.832227 58.8124126,114.326654 L58.7965164,111.417147 C58.7940959,111.145442 58.9147286,110.887216 59.1246966,110.714645 L60.1633066,109.869992 L60.7319924,109.411326 C61.9419423,108.43768 63.298115,107.35951 64.775112,106.201374 L65.0534586,105.983292 C69.5829537,102.437306 74.284666,98.8911963 78.9155293,95.5802676 C80.8596633,94.19027 82.7542686,92.8688262 84.5888549,91.6261359 L85.3443801,91.1165099 C93.2713,85.7923615 99.6712485,82.2225255 104.088584,80.8944275 L104.626514,80.7372084 C107.104446,79.9958434 108.1173,79.1526066 108.070205,78.3309107 C108.017077,77.4039344 106.825596,76.0492518 104.512457,74.4277589 L104.268492,74.258284 C100.407028,71.5998233 94.6736059,68.7710364 83.8963816,63.9788038 L78.8807755,61.7606109 C74.0619702,59.6259212 69.3370224,59.4335851 64.6239903,60.9836586 C58.785671,62.8994554 54.9031275,65.5045028 50.6337871,70.4767951 L50.4754821,70.6620397 C46.6699243,75.1361332 43.1597017,80.446186 34.1766234,95.0346215 L33.3272664,96.4150626 L33.3051296,96.4493027 C17.1684418,120.209137 6.35905961,147.002618 2.91955331,169.683168 C-0.302363354,190.928904 3.54503936,205.220137 12.8934754,206.818525 C13.3831464,206.902248 13.7122026,207.366906 13.6284431,207.856367 C13.5446836,208.345827 13.0798263,208.674742 12.5901553,208.591019 C1.89044852,206.761592 -2.21201147,191.522944 1.14086225,169.413661 C4.58675846,146.690976 15.3149616,119.956902 31.3297825,96.1595158 L31.8086267,95.4506795 L33.1791434,93.2243486 C41.7344629,79.3460741 45.2201499,74.0887736 48.9847427,69.6388789 L49.1048881,69.4972461 C53.6500122,64.153664 57.8353783,61.3186295 64.0622905,59.2753193 Z" id="Path" fill="#02012D"></path>
                <path d="M136.783227,78.9224603 C137.424738,78.9543725 137.92337,79.4844976 137.92298,80.119559 L137.921471,80.1793915 L137.048335,97.7140615 L142.050477,96.092683 C142.660856,95.8948073 143.314741,96.2123677 143.540794,96.8049886 L143.561319,96.8631897 C143.75928,97.4733063 143.441583,98.1269107 142.848707,98.3528668 L142.790481,98.3733827 L136.134143,100.531268 C135.353133,100.78446 134.560576,100.196797 134.564721,99.3868885 L134.566283,99.3313303 L135.525755,80.0602158 C135.557681,79.4189799 136.088034,78.9205624 136.723368,78.9209511 L136.783227,78.9224603 Z" id="Path" fill="#02012D"></path>
                <path d="M159.07377,61.2134746 C162.106565,60.5580168 164.771758,61.201098 166.981181,62.6677923 C167.541303,63.039621 168.029196,63.4386269 168.444515,63.8404101 L168.567052,63.9610568 C168.760792,64.1553202 168.902062,64.3146057 168.990332,64.4253122 C169.403165,64.9430786 169.31792,65.6973349 168.799931,66.1099908 C168.281942,66.5226468 167.527362,66.4374379 167.114529,65.9196715 C167.07035,65.8642637 166.956542,65.7376178 166.776347,65.5632955 C166.461925,65.2591202 166.086592,64.9521675 165.654156,64.6651015 C163.952927,63.5357649 161.933446,63.0484866 159.58069,63.556972 C158.933273,63.696894 158.29496,63.2857133 158.154978,62.6385744 C158.014996,61.9914355 158.426353,61.3533966 159.07377,61.2134746 Z" id="Path" fill="#02012D"></path>
                <path d="M128.197924,58.6955578 C129.360635,58.4577615 130.563572,58.5212588 131.716609,58.7658315 L131.902968,58.8070619 C132.200638,58.8757248 132.432705,58.9431747 132.584916,58.9953144 C133.21152,59.2099572 133.545406,59.8917044 133.330671,60.5180393 C133.122646,61.1248012 132.476067,61.4569719 131.866182,61.2819976 L131.736652,61.241488 C131.718384,61.2360525 131.696956,61.2298041 131.6725,61.222852 C131.540509,61.1853297 131.388011,61.1471711 131.218689,61.1112559 C130.361034,60.9293372 129.471608,60.8823887 128.678749,61.0445434 C127.553296,61.2747196 126.75756,61.8913883 126.298765,63.07883 C126.060129,63.6964616 125.365771,64.0037812 124.747875,63.7652476 C124.129978,63.5267141 123.822526,62.8326552 124.061162,62.2150236 C124.829175,60.2272737 126.306512,59.0823872 128.197924,58.6955578 Z" id="Path" fill="#02012D"></path>
                <path d="M115.645208,101.758598 L154.473849,88.6314623 C154.473849,88.6314623 159.660995,86.6534008 159.481094,79.9100092 C159.301193,73.1666177 150.815861,70.6490848 150.815861,70.6490848 L109.408639,64.8048121 L115.645208,101.758598 Z" id="Path" fill="#2C42CE"></path>
                <path d="M74.0880689,101.758598 L112.916709,88.6314623 C112.916709,88.6314623 118.103856,86.6534008 117.923955,79.9100092 C117.744054,73.1666177 109.258722,70.6490848 109.258722,70.6490848 L89.2297395,71.9677925 L67.8514996,64.8048121 L74.0880689,101.758598 Z" id="Path" fill="#2C42CE"></path>
                <path d="M109.018854,102.957423 C119.600331,102.957423 128.178314,94.3831244 128.178314,83.806191 C128.178314,73.2292576 119.600331,64.654959 109.018854,64.654959 C98.4373757,64.654959 89.8593931,73.2292576 89.8593931,83.806191 C89.8593931,94.3831244 98.4373757,102.957423 109.018854,102.957423 Z" id="Oval" fill="#4D9AFF"></path>
                <path d="M67.161879,103.227159 C77.7433568,103.227159 86.3213394,94.6528601 86.3213394,84.0759267 C86.3213394,73.4989933 77.7433568,64.9246947 67.161879,64.9246947 C56.5804012,64.9246947 48.0024185,73.4989933 48.0024185,84.0759267 C48.0024185,94.6528601 56.5804012,103.227159 67.161879,103.227159 Z" id="Oval" fill="#4D9AFF"></path>
                <path d="M93.5473554,51.764841 L93.9270333,51.685186 C98.5469814,50.7303 103.161475,50.2972511 105.040742,50.5781487 C107.38016,50.9186944 107.842736,53.1398836 106.292679,55.2870342 C104.775736,57.3883137 101.614868,59.3562075 97.2588178,60.6894091 C96.7838028,60.834791 96.2808211,60.5677359 96.1353767,60.0929249 C95.9899324,59.6181138 96.2571022,59.1153482 96.7321173,58.9699663 C100.742669,57.7425071 103.574164,55.9796744 104.83383,54.2347759 C105.669271,53.0775176 105.56953,52.4952092 104.824504,52.3645506 L104.778087,52.3571144 C103.129052,52.1106357 98.5945301,52.5429561 94.1018452,53.4856387 L93.9221671,53.5236178 C88.1410288,54.754574 83.0607769,56.6296117 79.7051153,59.0049741 C79.2996972,59.2919562 78.7382959,59.196086 78.4511905,58.7908421 C78.1640851,58.3855981 78.2599965,57.824438 78.6654146,57.5374559 C82.2569031,54.9951594 87.5482619,53.0422056 93.5473554,51.764841 Z" id="Path" fill="#02012D"></path>
                <path d="M83.7984282,57.8475158 C88.1395386,56.7837007 94.1346669,57.8595823 100.786595,60.4342902 L101.018904,60.5247126 C106.122489,62.522246 111.254591,65.3373937 112.938927,66.9154125 L112.995636,66.9693335 C114.032353,67.9510641 114.155743,69.2613104 113.281603,70.2959136 C112.529172,71.1864658 111.124622,71.7674244 109.308169,71.9590787 C105.141764,72.3986771 99.3689113,70.8486597 92.8657718,67.1177701 L92.6462895,66.9911835 L92.4471049,66.8634166 L92.2825326,66.760756 C92.1953587,66.7071953 92.1009564,66.650409 91.9997903,66.5909369 C91.5155276,66.3062559 90.9811437,66.0211065 90.4143513,65.7554454 C89.2296682,65.2001728 88.0690771,64.807495 87.0072795,64.6471378 C86.4792578,64.5673937 85.9874635,64.5475308 85.5382108,64.5908611 C85.0437244,64.6385542 84.6041845,64.2765289 84.5564709,63.7822549 C84.5087573,63.2879809 84.8709382,62.8486297 85.3654246,62.8009366 C85.9707097,62.742557 86.6089619,62.7683353 87.2760401,62.8690803 C88.5319832,63.0587581 89.8491586,63.5044151 91.1781275,64.1273158 C91.7986847,64.418177 92.3817474,64.7293016 92.9117891,65.0408945 L93.1361025,65.1746276 C93.2976222,65.2723587 93.4284762,65.3548684 93.5254622,65.4182348 L93.5701518,65.4476821 L93.7605407,65.5577281 C99.8883043,69.073484 105.24452,70.5333382 108.990781,70.1835543 L109.119323,70.1707759 C110.516418,70.0233682 111.501336,69.6159805 111.90717,69.1356478 C112.135674,68.865199 112.125066,68.6401885 111.79672,68.3121378 L111.752084,68.2687521 C110.330723,66.8964361 105.322917,64.1404752 100.362965,62.1991596 C93.9346754,59.6831392 88.1691836,58.6279259 84.2267906,59.594033 C83.744296,59.7122712 83.2572646,59.417151 83.1389756,58.9348636 C83.0206866,58.4525762 83.3159336,57.965754 83.7984282,57.8475158 Z" id="Path" fill="#02012D"></path>
                <path d="M74.7354699,57.7824655 C79.0825424,56.8323884 85.029088,57.9477894 91.588914,60.5047425 L91.8234526,60.5966741 C96.8745363,62.5875062 101.923541,65.3606857 103.584231,66.91559 L103.640782,66.9693335 C104.677499,67.9510641 104.800889,69.2613104 103.926749,70.2959136 C103.174318,71.1864658 101.769768,71.7674244 99.9533156,71.9590787 C95.7869099,72.3986771 90.0140574,70.8486597 83.5109179,67.1177701 L83.2914356,66.9911835 L83.092251,66.8634166 L82.9276786,66.760756 C82.8405047,66.7071953 82.7461025,66.650409 82.6449364,66.5909369 C82.1606737,66.3062559 81.6262898,66.0211065 81.0594974,65.7554454 C79.8748143,65.2001728 78.7142232,64.807495 77.6524256,64.6471378 C77.1244039,64.5673937 76.6326096,64.5475308 76.1833569,64.5908611 C75.6888705,64.6385542 75.2493306,64.2765289 75.201617,63.7822549 C75.1539034,63.2879809 75.5160843,62.8486297 76.0105707,62.8009366 C76.6158558,62.742557 77.254108,62.7683353 77.9211862,62.8690803 C79.1771293,63.0587581 80.4943047,63.5044151 81.8232736,64.1273158 C82.4438308,64.418177 83.0268935,64.7293016 83.5569352,65.0408945 L83.7812486,65.1746276 C83.9427682,65.2723587 84.0736223,65.3548684 84.1706083,65.4182348 L84.2152979,65.4476821 L84.4056868,65.5577281 C90.5334504,69.073484 95.8896658,70.5333382 99.6359272,70.1835543 L99.7644692,70.1707759 C101.161564,70.0233682 102.146482,69.6159805 102.552316,69.1356478 C102.78082,68.865199 102.770212,68.6401885 102.441981,68.3122493 L102.397361,68.2688787 C100.998654,66.9189829 96.0724056,64.2043386 91.1635358,62.2695587 L90.7056896,62.0911312 C84.5397639,59.7156663 78.9899843,58.6933381 75.1197442,59.5392008 C74.6344267,59.6452697 74.1549764,59.3379969 74.048862,58.8528878 C73.9427476,58.3677788 74.2501524,57.8885344 74.7354699,57.7824655 Z" id="Path" fill="#02012D"></path>
                <path d="M64.7041345,59.0788793 C68.8989958,57.0685082 75.2919827,57.8408026 82.7417032,60.5818534 L83.1006238,60.7152852 C88.5492291,62.7614768 94.1942114,65.8128003 95.9350211,67.4788342 C96.9717375,68.4605648 97.095128,69.7708111 96.2209878,70.8054143 C95.4685569,71.6959665 94.064007,72.2769251 92.2475545,72.4685794 C88.0811489,72.9081777 82.3082963,71.3581604 75.8051568,67.6272708 L75.5856745,67.5006842 L75.3864899,67.3729173 L75.2219176,67.2702567 C75.1347437,67.216696 75.0403414,67.1599097 74.9391753,67.1004376 C74.4549127,66.8157566 73.9205287,66.5306072 73.3537363,66.2649461 C72.1690532,65.7096735 71.0084621,65.3169957 69.9466645,65.1566385 C69.4186428,65.0768944 68.9268486,65.0570315 68.4775958,65.1003618 C67.9831095,65.1480549 67.5435696,64.7860295 67.495856,64.2917556 C67.4481424,63.7974816 67.8103232,63.3581304 68.3048096,63.3104373 C68.9100947,63.2520577 69.5483469,63.2778359 70.2154251,63.3785809 C71.4713682,63.5682588 72.7885436,64.0139158 74.1175125,64.6368165 C74.7380697,64.9276777 75.3211324,65.2388023 75.8511741,65.5503952 L76.0754875,65.6841283 C76.2370072,65.7818594 76.3678612,65.8643691 76.4648473,65.9277355 L76.5095368,65.9571828 L76.6999257,66.0672288 C82.8276893,69.5829847 88.1839047,71.0428389 91.9301661,70.693055 L92.0587081,70.6802766 C93.4558029,70.5328688 94.4407205,70.1254812 94.8465554,69.6451485 C95.0849935,69.362941 95.0630764,69.130209 94.6943191,68.7809927 L94.5874938,68.6820336 C92.901284,67.1663277 87.4722925,64.2588455 82.2928073,62.3332148 L82.1202557,62.2693941 C75.0918561,59.6833642 69.1114827,58.9609149 65.4818996,60.7003786 C65.0339426,60.9150603 64.496693,60.7261092 64.2819191,60.2783445 C64.0671451,59.8305799 64.2561774,59.293561 64.7041345,59.0788793 Z" id="Path" fill="#02012D"></path>
                <path d="M158.027881,132.364709 L165.840722,146.476879 C167.087176,146.570705 191.116669,124.99202 186.486149,102.222546" id="路径备份-33" stroke="#050B1E" stroke-width="1.8" stroke-linecap="round" stroke-linejoin="round" stroke-dasharray="0,0" transform="translate(172.552861, 124.350016) rotate(11.000000) translate(-172.552861, -124.350016) "></path>
                <path d="M146.078799,127.294993 L139.641014,141.500209 C139.066414,141.500209 135.575858,139.32831 133.411702,132.50645 C131.968931,127.958543 131.226465,124.863458 131.184304,123.221194" id="路径备份-34" stroke="#050B1E" stroke-width="1.8" stroke-linecap="round" stroke-linejoin="round" stroke-dasharray="0,0" transform="translate(138.631552, 132.360702) rotate(9.000000) translate(-138.631552, -132.360702) "></path>
            </g>
        </g>
    </g>
</svg>