<?xml version="1.0" encoding="UTF-8"?>
<svg width="241px" height="208px" viewBox="0 0 241 208" version="1.1" xmlns="http://www.w3.org/2000/svg" xmlns:xlink="http://www.w3.org/1999/xlink">
    <title>暂无消息 2</title>
    <g id="新主题" stroke="none" stroke-width="1" fill="none" fill-rule="evenodd">
        <g id="v2.0插画库" transform="translate(-202.000000, -9260.000000)">
            <g id="暂无消息" transform="translate(202.000000, 9260.000000)">
                <polygon id="路径" fill="#373B3F" points="0 105.14 32.66 105.14 32.66 133.22 63.33 107.09 138.43 107.09 138.43 0 0 0"></polygon>
                <polygon id="路径" fill="#424445" points="101.77 74.27 101.77 181.36 176.87 181.36 207.54 207.49 207.54 179.41 240.2 179.41 240.2 74.27"></polygon>
                <path d="M142.77,117.71 C138.07,117.71 134.26,121.52 134.26,126.22 C134.26,130.91 138.07,134.72 142.77,134.72 C147.46,134.72 151.27,130.91 151.27,126.22 C151.27,121.52 147.46,117.71 142.77,117.71 Z" id="路径" fill="#2E64FF"></path>
                <path d="M173.29,117.71 C168.59,117.71 164.78,121.52 164.78,126.22 C164.78,130.91 168.59,134.72 173.29,134.72 C177.98,134.72 181.79,130.91 181.79,126.22 C181.79,121.52 177.98,117.71 173.29,117.71 Z" id="路径" fill="#2E64FF"></path>
                <path d="M202.14,117.71 C197.44,117.71 193.63,121.52 193.63,126.22 C193.63,130.91 197.44,134.72 202.14,134.72 C206.83,134.72 210.64,130.91 210.64,126.22 C210.64,121.52 206.83,117.71 202.14,117.71 Z" id="路径" fill="#2E64FF"></path>
                <line x1="23.83" y1="32.25" x2="100.43" y2="32.35" id="Vector" stroke="#F7F5F5" stroke-width="2" opacity="0.099999994" stroke-linecap="round" stroke-linejoin="round"></line>
                <line x1="23.83" y1="46.64" x2="100.43" y2="46.74" id="Vector" stroke="#F7F5F5" stroke-width="2" opacity="0.099999994" stroke-linecap="round" stroke-linejoin="round"></line>
                <line x1="23.83" y1="61.06" x2="58.97" y2="61.16" id="Vector" stroke="#F7F5F5" stroke-width="2" opacity="0.099999994" stroke-linecap="round" stroke-linejoin="round"></line>
                <path d="M113.27,50.54 C89.92,30.94 54.19,79.99 91.42,82.05 C101.37,82.6 111.74,77.8 121.58,70.46 C121.5,62.37 118.95,55.31 113.27,50.54 Z" id="路径" stroke="#9B9EA0" stroke-width="2" stroke-linecap="round" stroke-linejoin="round"></path>
                <path d="M171.68,11.23 C156.28,37.3166667 139.58,57.06 121.58,70.46" id="路径" stroke="#9B9EA0" stroke-width="2" stroke-linecap="round" stroke-linejoin="round"></path>
                <path d="M121.58,70.46 C121.85,95.62 98.3,130.81 71.12,138.48" id="路径" stroke="#9B9EA0" stroke-width="2" stroke-linecap="round" stroke-linejoin="round"></path>
                <path d="M61.59,142.95 C61.59,142.916667 61.59,142.883333 61.59,142.85 C61.59,142.883333 61.59,142.916667 61.59,142.95 Z" id="路径" fill="#005DFF"></path>
                <path d="M53,146.06 C45.06,145.2 39.18,148.74 37.09,155.66 C49.9766667,165.36 58.1433333,161.096667 61.59,142.87 C61.52,143.21 60.59,146.88 53,146.06 Z" id="路径" fill="#76A3E5"></path>
            </g>
        </g>
    </g>
</svg>