<?xml version="1.0" encoding="UTF-8"?>
<svg width="258px" height="230px" viewBox="0 0 258 230" version="1.1" xmlns="http://www.w3.org/2000/svg" xmlns:xlink="http://www.w3.org/1999/xlink">
    <title>暂无权限</title>
    <g id="新主题" stroke="none" stroke-width="1" fill="none" fill-rule="evenodd">
        <g id="v2.0插画库" transform="translate(-190.000000, -4808.000000)">
            <g id="暂无权限" transform="translate(191.000000, 4808.000000)">
                <path d="M81.3785124,201.549093 L181.338512,201.549093 C182.428512,201.549093 183.318512,200.659093 183.318512,199.569093 L183.318512,197.809093 C183.318512,196.719093 182.428512,195.829093 181.338512,195.829093 L169.168512,195.829093 C168.638512,195.829093 168.128512,195.619093 167.758512,195.249093 C167.388512,194.879093 167.178512,194.369093 167.178512,193.839093 L167.178512,169.889093 C167.178512,168.799093 166.288512,167.909093 165.198512,167.909093 L97.5185124,167.909093 C96.4285124,167.909093 95.5385124,168.799093 95.5385124,169.889093 L95.5385124,193.839093 C95.5385124,194.369093 95.3285124,194.879093 94.9585124,195.249093 C94.5885124,195.619093 94.0785124,195.829093 93.5485124,195.829093 L81.3785124,195.829093 C80.2885124,195.829093 79.3985124,196.719093 79.3985124,197.809093 L79.3985124,199.569093 C79.3985124,200.659093 80.2885124,201.549093 81.3785124,201.549093 Z" id="路径" fill="#D6D6D6"></path>
                <path d="M34.2685124,28.9890935 C30.8985124,28.9890935 28.1885124,31.6990935 28.1885124,35.0590935 L28.1885124,172.099093 C28.1885124,175.459093 30.8985124,178.169093 34.2685124,178.169093 L228.508512,178.169093 C231.878512,178.169093 234.588512,175.459093 234.588512,172.099093 L234.588512,35.0590935 C234.548512,31.6990935 231.828512,28.9890935 228.468512,28.9890935 L34.2685124,28.9890935 Z" id="路径" fill="#D8D8D8"></path>
                <path d="M134.808512,162.879093 C131.058512,160.209093 126.948512,164.359093 129.568512,168.119093 C129.658512,168.209093 129.738512,168.339093 129.878512,168.419093 C133.628512,171.089093 137.738512,166.939093 135.118512,163.179093 C135.028512,163.049093 134.948512,162.919093 134.808512,162.879093 Z" id="路径" fill="#E5E5E5"></path>
                <path d="M224.658512,148.069093 L224.658512,41.4590935 C224.658512,40.4690935 223.868512,39.6890935 222.878512,39.6890935 L39.8885124,39.6890935 C38.8985124,39.6890935 38.1085124,40.4690935 38.1085124,41.4590935 L38.1085124,148.069093 C38.1085124,149.059093 38.8985124,149.839093 39.8885124,149.839093 L222.878512,149.839093 C223.828512,149.839093 224.658512,149.059093 224.658512,148.069093 Z" id="路径" fill="#FFFFFF"></path>
                <path d="M67.7285124,46.5090935 C65.8185124,46.5090935 64.2985124,48.0190935 64.2985124,49.9090935 C64.2985124,51.7990935 65.8185124,53.3090935 67.7285124,53.3090935 C69.6385124,53.3090935 71.1585124,51.7990935 71.1585124,49.9090935 C71.1585124,48.0190935 69.6385124,46.5090935 67.7285124,46.5090935 Z" id="路径" fill="#BFBFBF"></path>
                <path d="M47.4285124,46.5090935 C45.5185124,46.5090935 43.9985124,48.0190935 43.9985124,49.9090935 C43.9985124,51.7990935 45.5185124,53.3090935 47.4285124,53.3090935 C49.3385124,53.3090935 50.8585124,51.7990935 50.8585124,49.9090935 C50.8585124,48.0190935 49.3385124,46.5090935 47.4285124,46.5090935 Z" id="路径" fill="#BFBFBF"></path>
                <path d="M57.6285124,46.5090935 C55.7185124,46.5090935 54.1985124,48.0190935 54.1985124,49.9090935 C54.1985124,51.7990935 55.7185124,53.3090935 57.6285124,53.3090935 C59.5385124,53.3090935 61.0585124,51.7990935 61.0585124,49.9090935 C61.0585124,48.0190935 59.4385124,46.5090935 57.6285124,46.5090935 Z" id="路径" fill="#BFBFBF"></path>
                <path d="M173.808643,7.47815647 C180.958643,7.41910456 187.848643,10.2091046 192.948643,15.2291046 C198.048643,20.2491046 200.958643,27.0891046 201.018643,34.2391046 L201.018643,34.2391046 L201.018643,50.1591046 L204.628643,50.1591046 C207.038643,50.1491046 209.418643,50.6191046 211.638643,51.5291046 C213.868643,52.4491046 215.888643,53.7891046 217.598643,55.4891046 C219.298643,57.1891046 220.648643,59.1991046 221.578643,61.4191046 C222.508643,63.6391046 222.978643,66.0191046 222.988643,68.4291046 L222.988643,68.4291046 L222.988643,100.599105 C222.978643,102.999105 222.508643,105.389105 221.578643,107.599105 C220.648643,109.819105 219.298643,111.839105 217.598643,113.539105 C215.888643,115.229105 213.868643,116.579105 211.638643,117.489105 C209.418643,118.409105 207.038643,118.879105 204.628643,118.869261 L204.628643,118.869261 L142.978643,118.869261 C140.568643,118.879105 138.188643,118.409105 135.968643,117.489105 C133.738643,116.579105 131.718643,115.229105 130.008643,113.539105 C128.308643,111.839105 126.958643,109.819105 126.028643,107.599105 C125.098643,105.389105 124.628643,102.999105 124.618643,100.599105 L124.618643,100.599105 L124.618643,67.9891046 C124.748643,63.2091046 126.738643,58.6691046 130.168643,55.3391046 C133.598643,52.0091046 138.198643,50.1491046 142.978643,50.1591046 L142.978643,50.1591046 L146.588643,50.1591046 L146.588643,33.7691046 C146.778643,26.6891046 149.738643,19.9791046 154.828643,15.0591046 C159.918643,10.1491046 166.728643,7.42910456 173.808643,7.47815647 Z M173.808643,20.6491046 C170.148643,20.5991046 166.618643,21.9991046 163.998643,24.5491046 C161.368643,27.0991046 159.868643,30.5891046 159.818643,34.2391046 L159.818643,50.1591046 L187.788643,50.1591046 L187.788643,33.8691046 C187.638643,30.2691046 186.098643,26.8791046 183.478643,24.4091046 C180.868643,21.9491046 177.398643,20.5891046 173.808643,20.6491046 Z" id="形状结合" fill="#4D9AFF" transform="translate(173.803643, 63.173325) rotate(-350.320000) translate(-173.803643, -63.173325) "></path>
                <path d="M220.668958,64.3226521 C221.598958,66.5426521 222.068958,68.9226521 222.078958,71.3326521 L222.078958,71.3326521 L222.078958,103.502652 C222.068958,105.902652 221.598958,108.292652 220.668958,110.502652 C219.738958,112.722652 218.388958,114.742652 216.688958,116.442652 M158.908958,53.0626521 L186.878958,53.0626521 L186.878958,36.7726521 C186.728958,33.1726521 185.188958,29.7826521 182.568958,27.3126521 C179.958958,24.8526521 176.488958,23.4926521 172.898958,23.5526521" id="形状" stroke="#02012D" stroke-width="2.01666665" stroke-linecap="round" stroke-linejoin="round" stroke-dasharray="0,0" transform="translate(190.493958, 69.996700) rotate(-350.320000) translate(-190.493958, -69.996700) "></path>
                <path d="M175.423369,93.1466057 C176.683369,91.9966057 177.453369,90.4066057 177.563369,88.6966057 L177.563369,79.6266057 C177.563369,78.7566057 177.393369,77.8966057 177.053369,77.0966057 C176.723369,76.2966057 176.233369,75.5666057 175.623369,74.9566057 C175.003369,74.3466057 174.283369,73.8566057 173.473369,73.5266057 C172.673369,73.1966057 171.813369,73.0266057 170.943369,73.0266057 C169.253369,73.0266057 167.623369,73.6766057 166.393369,74.8466057 C165.163369,76.0166057 164.433369,77.6166057 164.353369,79.3066057 L164.353369,88.3766057 C164.383369,90.0866057 165.063369,91.7166057 166.273369,92.9266057 C167.473369,94.1466057 169.093369,94.8466057 170.803369,94.8866057 C172.513369,94.9266057 174.163369,94.3066057 175.423369,93.1466057 Z" id="路径" fill="#FDD73D" transform="translate(170.958369, 83.957517) rotate(-350.320000) translate(-170.958369, -83.957517) "></path>
                <rect id="Rectangle-5091" fill="#FFFFFF" transform="translate(171.013811, 83.900111) rotate(-350.320000) translate(-171.013811, -83.900111) " x="163.123811" y="66.8051107" width="15.78" height="34.19" rx="7.89"></rect>
                <path d="M89.7385124,89.1790935 C88.9385124,89.4090935 88.9385124,90.5390935 89.7385124,90.7690935 L97.5385124,93.1590935 C97.8185124,93.2190935 97.9885124,93.4490935 98.1085124,93.7290935 L100.498512,101.529093 C100.728512,102.329093 101.858512,102.329093 102.088512,101.529093 L104.478512,93.7290935 C104.538512,93.4490935 104.768512,93.2790935 105.048512,93.1590935 L112.848512,90.7690935 C113.648512,90.5390935 113.648512,89.4090935 112.848512,89.1790935 L105.048512,86.7890935 C104.768512,86.7290935 104.598512,86.4990935 104.478512,86.2190935 L102.088512,78.4190935 C101.858512,77.6190935 100.728512,77.6190935 100.498512,78.4190935 L98.1085124,86.2190935 C98.0485124,86.4990935 97.8185124,86.6690935 97.5385124,86.7890935 L89.7385124,89.1790935 Z" id="路径" fill="#2C42CE" transform="translate(101.293512, 89.974093) rotate(-2.030000) translate(-101.293512, -89.974093) "></path>
                <path d="M47.8521428,224.81672 L57.5278225,215.067388 C98.1174239,206.639942 123.758891,195.139552 134.452225,180.566219 L144.112225,141.916219 C144.382225,141.016219 144.182225,140.036219 143.572225,139.306219 C142.972225,138.586219 142.042225,138.216219 141.102225,138.316219 C133.182225,139.546219 122.162225,145.126219 121.322225,161.186219 L118.512225,163.326219 C117.582225,164.036219 116.292225,164.036219 115.362225,163.316219 C114.442225,162.596219 114.122225,161.346219 114.582225,160.266219 C130.992974,123.670375 140.366307,101.913708 142.702225,94.996219 C146.206101,84.6199856 132.698683,78.4260796 126.442225,89.366219 C122.271253,96.6596453 116.187919,108.302979 108.192225,124.296219 C104.232225,120.546219 94.0622247,115.286219 85.0522247,124.296219 C80.6722247,122.836219 73.3022247,123.206219 69.4222247,124.296219 C65.0422247,125.516219 64.0022247,132.006219 62.5422247,133.676219 C58.7922247,133.876219 53.1722247,135.716219 51.2922247,138.046219 C48.8373897,141.081086 39.1834921,154.97755 28.7956509,198.472497 L17.9049771,210.338964" id="路径" stroke="#02012D" stroke-width="2.01666665" fill="#FFFFFF" stroke-linecap="round" stroke-linejoin="round" stroke-dasharray="0,0" transform="translate(81.067497, 154.210112) rotate(-356.830000) translate(-81.067497, -154.210112) "></path>
                <line x1="63.4655599" y1="132.407867" x2="57.3057517" y2="147.772006" id="直线" stroke="#02012D" stroke-width="2.01666665" stroke-linecap="round" stroke-linejoin="round" stroke-dasharray="0,0" transform="translate(60.040921, 140.151133) rotate(-356.830000) translate(-60.040921, -140.151133) "></line>
                <line x1="86.4655599" y1="124.407867" x2="80.3057517" y2="139.772006" id="直线备份" stroke="#02012D" stroke-width="2.01666665" stroke-linecap="round" stroke-linejoin="round" stroke-dasharray="0,0" transform="translate(83.040921, 132.151133) rotate(-356.830000) translate(-83.040921, -132.151133) "></line>
                <line x1="109.46556" y1="125.407867" x2="103.305752" y2="140.772006" id="直线备份" stroke="#02012D" stroke-width="2.01666665" stroke-linecap="round" stroke-linejoin="round" stroke-dasharray="0,0" transform="translate(106.040921, 133.151133) rotate(-356.830000) translate(-106.040921, -133.151133) "></line>
                <path d="M139.006056,161.260425 C131.506056,154.260425 139.006056,146.460425 143.386056,143.750425" id="路径" stroke="#02012D" stroke-width="2.01666665" stroke-linecap="round" stroke-linejoin="round" stroke-dasharray="0,0" transform="translate(139.600762, 152.505425) rotate(-356.830000) translate(-139.600762, -152.505425) "></path>
                <line x1="5.787" y1="60.2610935" x2="0.188" y2="64.2040935" id="路径-8备份" stroke="#2C42CE" stroke-width="1.70697" stroke-linecap="round" stroke-linejoin="round" stroke-dasharray="0,0"></line>
                <line x1="5.599" y1="53.1090935" x2="0" y2="57.0690935" id="路径-9备份" stroke="#2C42CE" stroke-width="1.70697" stroke-linecap="round" stroke-linejoin="round" stroke-dasharray="0,0"></line>
                <path d="M253.045388,43.7917247 C252.625388,43.6217247 252.165388,43.5417247 251.715388,43.5517247 C251.045388,43.5717247 250.395388,43.7817247 249.845388,44.1717247 C249.295388,44.5517247 248.865388,45.0917247 248.625388,45.7217247 C248.375388,46.3417247 248.325388,47.0317247 248.465388,47.6817247 C248.605388,48.3417247 248.935388,48.9417247 249.415388,49.4117247 C249.895388,49.8817247 250.505388,50.1917247 251.165388,50.3217247 C251.825388,50.4417247 252.505388,50.3717247 253.125388,50.1117247 C253.745388,49.8517247 254.275388,49.4117247 254.645388,48.8517247 C255.015388,48.2917247 255.215388,47.6417247 255.215388,46.9717247 C255.215388,46.5117247 255.125388,46.0617247 254.945388,45.6417247 C254.765388,45.2217247 254.505388,44.8417247 254.185388,44.5217247 C253.855388,44.2017247 253.475388,43.9517247 253.045388,43.7917247 Z" id="路径备份-16" stroke="#2C42CE" stroke-width="1.70697" stroke-linecap="round" stroke-linejoin="round" stroke-dasharray="0,0"></path>
            </g>
        </g>
    </g>
</svg>