<?xml version="1.0" encoding="UTF-8"?>
<svg width="281px" height="197px" viewBox="0 0 281 197" version="1.1" xmlns="http://www.w3.org/2000/svg" xmlns:xlink="http://www.w3.org/1999/xlink">
    <title>搜索中</title>
    <defs>
        <rect id="path-1" x="0" y="5" width="281" height="190"></rect>
    </defs>
    <g id="新主题" stroke="none" stroke-width="1" fill="none" fill-rule="evenodd">
        <g id="搜索中" transform="translate(-60.000000, -56.000000)">
            <g transform="translate(60.000000, 57.126374)" id="编组-9">
                <mask id="mask-2" fill="white">
                    <use xlink:href="#path-1"></use>
                </mask>
                <g id="路径备份-8"></g>
                <path d="M117.854507,37.5210931 L117.854507,182.451844 C117.854507,184.093659 118.16963,185.726453 118.799877,187.250995 C119.421121,188.775537 120.339481,190.155744 121.500936,191.319448 C122.662391,192.492173 124.039931,193.412311 125.561527,194.043778 C127.083124,194.675245 128.703759,195 130.351404,195 L261.073633,195 L261.046623,194.972937 C262.325124,194.972937 263.5406,194.458742 264.449957,193.556646 C265.350309,192.65455 265.854507,191.4277 265.854507,190.146723 L265.854507,49.3926771 C265.854507,48.1748474 265.602408,46.9660387 265.125221,45.8474396 C264.648034,44.7288405 263.945759,43.718493 263.072417,42.8795436 L246.920087,27.4807641 C245.272441,25.8930751 243.066577,25 240.770677,25 L130.351404,25 C127.038106,25 123.85986,26.3170602 121.50994,28.6625099 C119.169022,31.0169806 117.854507,34.2013797 117.854507,37.5210931 Z" id="路径备份-12" fill="#D8D8D8"></path>
                <path d="M247.645618,27.4660819 C245.968145,25.8902823 243.74367,25.0089028 241.418912,25 L234.854887,25 L234.854887,49.8477783 C234.84577,50.6579352 235.000754,51.4591892 235.310722,52.2159292 C235.629807,52.9637663 236.094758,53.6492836 236.678227,54.2190643 C237.261696,54.7977478 237.963682,55.2517917 238.729485,55.5544877 C239.504404,55.8571837 240.324908,56.0085317 241.154527,55.9996289 L266.854507,55.9996289 L266.799807,49.0910384 C266.799807,47.8891573 266.553656,46.6961791 266.070471,45.592229 C265.578169,44.488279 264.876183,43.4911629 263.982746,42.6542975 L247.645618,27.4660819 Z" id="路径备份-13" fill="#BFBFBF"></path>
                <path d="M249.854507,70.7616596 L249.854507,70.1536923 C249.854507,69.4802515 249.727596,68.8068108 249.474678,68.1801368 C249.22176,67.5534628 248.860448,66.9829088 248.399776,66.5058883 C247.930071,66.0288678 247.379071,65.6453807 246.773874,65.3928404 C246.168677,65.1309468 245.527349,65 244.867956,65 L138.832057,65 C137.51327,65 136.248679,65.5424939 135.318302,66.5058883 C134.378892,67.478636 133.854507,68.7881041 133.854507,70.1536923 L133.854507,70.7616596 C133.845958,71.453807 133.963384,72.1366011 134.216302,72.7726285 C134.46922,73.4086558 134.830532,73.9885631 135.300237,74.474937 C135.769942,74.9706642 136.329974,75.3541513 136.944204,75.6160449 C137.558434,75.8779385 138.217827,76.0088853 138.886253,75.999532 L244.867956,75.999532 C245.527349,75.999532 246.186743,75.8685852 246.79194,75.5973382 C247.406169,75.3354446 247.957169,74.9519575 248.417841,74.4655836 C248.878514,73.9792098 249.248858,73.3993025 249.492743,72.7632751 C249.736628,72.1272478 249.863087,71.4444537 249.854507,70.7616596 Z" id="路径备份-14" fill="#BFBFBF"></path>
                <path d="M219.894962,97 C221.209106,97 222.469245,96.4443493 223.405348,95.4743151 C224.33245,94.5042808 224.854507,93.1763699 224.854507,91.8013699 L224.854507,91.1892123 C224.854507,89.8142123 224.33245,88.4957192 223.405348,87.5162671 C222.469245,86.5462329 221.209106,86 219.894962,86 L138.814052,86 C137.499908,86 136.239769,86.5462329 135.312667,87.5162671 C134.376564,88.4957192 133.854507,89.8142123 133.854507,91.1892123 L133.854507,91.8013699 C133.854507,92.4888699 133.980521,93.1669521 134.24155,93.7979452 C134.493577,94.4383562 134.862618,95.0128425 135.321668,95.4931507 C135.78972,95.9734589 136.33878,96.359589 136.950847,96.6138699 C137.553914,96.8681507 138.210986,97 138.859057,97 L219.894962,97 Z" id="路径备份-15" fill="#BFBFBF"></path>
                <path d="M146.429507,33 L176.066507,36.915 L172.313507,67.353 C173.393507,65.697 174.950507,64.401 176.777507,63.654 C178.604507,62.907 178.366545,62.1667301 180.292545,62.5897301 C183.595545,62.9947301 187.413172,66.7262773 187.953172,73.2242773 C186.936172,80.4422773 174.277927,87.4021487 168.364927,90.6151487 L168.364927,90.6151487 L188.279507,93.039 L204.965507,99.6 L217.133507,107.277 C233.243507,121.074 247.490507,142.809 258.488507,179.025 L258.488507,179.025 L258.452507,178.98 C259.595507,188.421 256.931507,194.505 242.459507,194.343 L242.459507,194.343 L79.415507,194.343 L70.739507,160.971 C66.320507,172.014 60.974507,182.661 54.764507,192.804 L54.764507,192.804 L0.854507,192.804 C13.085507,149.37 30.716507,112.398 65.519507,96.036 C88.817507,89.304 100.553507,85.683 100.727507,85.173 C100.901507,84.663 104.183507,72.828 110.573507,49.668 L110.573507,49.668 L146.429507,33 Z M205.593626,156.88518 L201.138626,173.89518 L214.440626,174.33618 L205.593626,156.88518 Z" id="分组-2备份" fill="#FFFFFF"></path>
                <path d="M147.854507,122.600484 L156.640276,135.999513 C157.769874,136.108154 177.493028,118.037572 176.838578,92" id="路径备份-33" stroke="#050B1E" stroke-width="1.536273" stroke-linecap="round" stroke-linejoin="round" stroke-dasharray="0,0"></path>
                <path d="M125.854507,123 L117.262354,136 C116.797202,136 112.988219,132.881757 108.854507,127.242568" id="路径备份-34" stroke="#02012D" stroke-width="1.536273" stroke-linecap="round" stroke-linejoin="round" stroke-dasharray="0,0"></path>
                <path d="M37.5313879,79.1982576 C37.1113879,79.0282576 36.6513879,78.9482576 36.2013879,78.9582576 C35.5313879,78.9782576 34.8813879,79.1882576 34.3313879,79.5782576 C33.7813879,79.9582576 33.3513879,80.4982576 33.1113879,81.1282576 C32.8613879,81.7482576 32.8113879,82.4382576 32.9513879,83.0882576 C33.0913879,83.7482576 33.4213879,84.3482576 33.9013879,84.8182576 C34.3813879,85.2882576 34.9913879,85.5982576 35.6513879,85.7282576 C36.3113879,85.8482576 36.9913879,85.7782576 37.6113879,85.5182576 C38.2313879,85.2582576 38.7613879,84.8182576 39.1313879,84.2582576 C39.5013879,83.6982576 39.7013879,83.0482576 39.7013879,82.3782576 C39.7013879,81.9182576 39.6113879,81.4682576 39.4313879,81.0482576 C39.2513879,80.6282576 38.9913879,80.2482576 38.6713879,79.9282576 C38.3413879,79.6082576 37.9613879,79.3582576 37.5313879,79.1982576 Z" id="路径备份-16" stroke="#2C42CE" stroke-width="1.70697" stroke-linecap="round" stroke-linejoin="round" stroke-dasharray="0,0"></path>
                <line x1="205.273" y1="109.667626" x2="199.674" y2="113.610626" id="路径-8备份" stroke="#2C42CE" stroke-width="1.70697" stroke-linecap="round" stroke-linejoin="round" stroke-dasharray="0,0"></line>
                <line x1="205.085" y1="102.515626" x2="199.486" y2="106.475626" id="路径-9备份" stroke="#2C42CE" stroke-width="1.70697" stroke-linecap="round" stroke-linejoin="round" stroke-dasharray="0,0"></line>
                <path d="M158.522832,71.9998965 C158.522832,71.9998965 155.764058,71.6642199 154.839917,71.6535068 C153.915777,71.6427937 151.149204,71.9124063 151.149204,71.9124063 C150.427829,71.9034787 149.844879,71.3178302 149.854628,70.6125522 C149.864376,69.9054887 150.460973,68.9502388 154.876961,69.0020187 C159.041442,69.0520131 159.862251,70.0251181 159.854507,70.7321816 C159.842754,71.4392451 159.244207,72.008824 158.522832,71.9998965" id="Fill-17备份-3" fill="#263166"></path>
                <path d="M116.186182,71.9998965 C116.186182,71.9998965 118.944956,71.6642199 119.869097,71.6535068 C120.793237,71.6427937 123.55981,71.9124063 123.55981,71.9124063 C124.281185,71.9034787 124.864135,71.3178302 124.854386,70.6125522 C124.844638,69.9054887 124.246091,68.9502388 119.832053,69.0020187 C115.667572,69.0520131 114.846763,70.0251181 114.854507,70.7321816 C114.86626,71.4392451 115.464807,72.008824 116.186182,71.9998965" id="Fill-19备份-3" fill="#263166"></path>
                <path d="M187.854507,74.9987949 C187.854507,82.7309116 182.481277,89 175.853438,89 C169.227737,89 163.854507,82.7309116 163.854507,74.9987949 C163.854507,67.2690884 169.227737,61 175.853438,61 C182.481277,61 187.854507,67.2690884 187.854507,74.9987949" id="Fill-21备份-3" stroke="#050B1E" stroke-width="1.536273" fill="#FFFFFF" stroke-linecap="round" stroke-linejoin="round" stroke-dasharray="0,0"></path>
                <path d="M106.854507,74.4990101 C106.854507,80.8503917 101.705162,86 95.3555311,86 C89.0038524,86 83.854507,80.8503917 83.854507,74.4990101 C83.854507,68.1496083 89.0038524,63 95.3555311,63 C101.705162,63 106.854507,68.1496083 106.854507,74.4990101" id="Fill-23备份-3" fill="#F2B5BC"></path>
                <path d="M136.354507,125 L136.354507,125 C116.279891,125 99.854507,108.405903 99.854507,88.1274619 L99.854507,62.8705979 C99.854507,42.5902169 116.279891,26 136.354507,26 C156.429123,26 172.854507,42.5902169 172.854507,62.8705979 L172.854507,88.1274619 C172.854507,108.405903 156.429123,125 136.354507,125" id="Fill-25备份-3" stroke="#050B1E" stroke-width="1.536273" fill="#FFFFFF" stroke-linecap="round" stroke-linejoin="round" stroke-dasharray="0,0"></path>
                <path d="M101.306645,70 C101.306645,70 87.2147228,53.8095321 90.2947,40.4611099 C93.3767306,27.1126877 99.3395667,26 99.3395667,26 L112.854507,38.1916866 C112.854507,38.1916866 101.107474,56.3738847 101.306645,70" id="Fill-27备份-3" fill="#603624"></path>
                <path d="M164.092603,14 C164.092603,14 184.273616,23.3875677 183.847864,43.4291761 C183.422112,63.4707845 172.6833,66 172.6833,66 C172.6833,66 172.6833,47.338642 155.443848,31.0535529 C152.097645,27.8920334 164.092603,14 164.092603,14" id="Fill-29备份-3" stroke="#050B1E" stroke-width="1.536273" fill="#050B1E" stroke-linecap="round" stroke-linejoin="round" stroke-dasharray="0,0"></path>
                <path d="M120.355317,80 L120.355317,80 C119.528737,80 118.854507,79.176962 118.854507,78.1699275 L118.854507,72.8300725 C118.854507,71.823038 119.528737,71 120.355317,71 L120.355317,71 C121.180277,71 121.854507,71.823038 121.854507,72.8300725 L121.854507,78.1699275 C121.854507,79.176962 121.180277,80 120.355317,80" id="Fill-31备份-4" fill="#263166"></path>
                <path d="M154.355317,80 L154.353697,80 C153.528737,80 152.854507,79.176962 152.854507,78.1699275 L152.854507,72.8300725 C152.854507,71.823038 153.528737,71 154.353697,71 L154.355317,71 C155.180277,71 155.854507,71.823038 155.854507,72.8300725 L155.854507,78.1699275 C155.854507,79.176962 155.180277,80 154.355317,80" id="Fill-33备份-3" fill="#263166"></path>
                <path d="M131.854507,70.5 C131.854507,80.1655629 124.019638,88 114.353541,88 C104.689376,88 96.854507,80.1655629 96.854507,70.5 C96.854507,60.8363687 104.689376,53 114.353541,53 C124.019638,53 131.854507,60.8363687 131.854507,70.5 Z" id="Stroke-37备份-3" stroke="#2E64FF" stroke-width="1.50616066"></path>
                <path d="M144.854507,70.5 C144.854507,80.1655629 152.689376,88 162.355473,88 C172.019638,88 179.854507,80.1655629 179.854507,70.5 C179.854507,60.8363687 172.019638,53 162.355473,53 C152.689376,53 144.854507,60.8363687 144.854507,70.5 Z" id="Stroke-39备份-3" stroke="#005DFF" stroke-width="1.8"></path>
                <path d="M131.854507,68.877 C133.47415,67.783 135.563506,67.123 137.845967,67.123 C139.690028,67.123 141.408832,67.555 142.854507,68.297" id="Stroke-41备份-3" stroke="#2E64FF" stroke-width="1.50616066"></path>
                <path d="M86.854507,23.5345914 C86.854507,23.5345914 87.5178858,-3.71858196 125.213067,0.429699026 C162.908248,4.57798001 173.136806,21.2724241 173.516439,23.5345914 C173.894115,25.7987072 177.44192,44.5117606 149.174937,40.4160881 C120.489184,36.2600133 87.6118156,46.6394838 86.854507,23.5345914" id="Fill-55备份-3" stroke="#050B1E" stroke-width="1.536273" fill="#050B1E" stroke-linecap="round" stroke-linejoin="round" stroke-dasharray="0,0"></path>
                <path d="M139.854507,85.2876864 C139.854507,86.3913957 138.95973,87.2876864 137.854507,87.2876864 C136.750798,87.2876864 135.854507,86.3913957 135.854507,85.2876864 C135.854507,84.1839771 136.750798,83.2876864 137.854507,83.2876864 C138.95973,83.2876864 139.854507,84.1839771 139.854507,85.2876864" id="Fill-59备份-4" fill="#F58B8D"></path>
                <path d="M248.35113,193.286362 C250.040812,193.313406 251.703386,192.925784 253.212353,192.159554 C254.712284,191.393325 256.004393,190.266516 256.971216,188.896318 C257.947075,187.517104 258.561504,185.921544 258.769326,184.244854 C258.986184,182.577177 258.787398,180.882458 258.191039,179.304927 C252.426244,161.194866 244.565159,143.823991 234.743322,127.543866 C228.517704,117.528795 220.069297,109.073227 210.048673,102.826202 C200.037085,96.588192 188.715316,92.7119719 176.968868,91.5220625 L174.854507,91.2876864" id="路径备份-19" stroke="#02012D" stroke-width="1.536273" stroke-linecap="round" stroke-linejoin="round" stroke-dasharray="0,0"></path>
                <path d="M99.854507,91.2876864 C95.3696834,91.5482802 90.8848597,91.8358319 86.4361313,92.1323697 C76.7896998,92.6445712 67.368863,95.232537 58.8143101,99.7075613 C50.2597572,104.182586 42.7700115,110.436836 36.8684529,118.056958 C18.2794455,141.726062 9.03006073,160.740422 0.854507,193.287686" id="路径备份-20" stroke="#02012D" stroke-width="1.536273" stroke-linecap="round" stroke-linejoin="round" stroke-dasharray="0,0"></path>
                <path d="M65,174.287686 C61.9464286,180.681051 58.2589286,188.569203 55,193.287686" id="路径备份-21" stroke="#02012D" stroke-width="1.536273" stroke-linecap="round" stroke-linejoin="round" stroke-dasharray="0,0"></path>
                <path d="M75,149.287686 C73.5533981,152.704665 73.7281553,152.37258 72,156.287686" id="路径备份-22" stroke="#02012D" stroke-width="1.536273" stroke-linecap="round" stroke-linejoin="round" stroke-dasharray="0,0"></path>
                <path d="M136,179.287686 C126.358118,181.961329 120.112291,185.697104 118.345979,191.529675 L118,193.287686" id="路径备份-23" stroke="#02012D" stroke-width="1.536273" stroke-linecap="round" stroke-linejoin="round" stroke-dasharray="0,0"></path>
                <path d="M187.364346,128.287686 C198.861068,144.253776 205.361975,155.216916 215,175.626057 C190.69489,173.819938 169.028223,174.373815 150,177.287686" id="路径备份-24" stroke="#02012D" stroke-width="1.8" stroke-linecap="round" stroke-linejoin="round" stroke-dasharray="0,0"></path>
                <path d="M224,175.287686 C221.00293,175.42102 217.99707,175.42102 215,175.287686" id="路径备份-25" stroke="#02012D" stroke-width="1.536273" stroke-linecap="round" stroke-linejoin="round" stroke-dasharray="0,0"></path>
                <path d="M39,140.135348 C41.1177991,136.600737 42.0861944,134.792752 44.3759516,131.502219 C54.3223672,116.8033 67.9975572,104.346282 88.6687247,109.45384 C106.341185,113.250609 112.670448,120.672388 107.656513,131.719177 C108.995976,136.654976 107.873724,143.742278 103.022697,144.248514 C104.117798,149.853268 99.4477792,152.194609 96.9679631,151.118857 C97.1942237,154.201472 91.6644149,159.498868 85.193362,153.677156 C82.7406972,151.534694 80.4509401,149.202393 78.3512418,146.707374 C74.296652,151.97765 63.0831772,155.087385 56.1324519,151.182137" id="路径备份-26" stroke="#02012D" stroke-width="1.536273" stroke-linecap="round" stroke-linejoin="round" stroke-dasharray="0,0"></path>
                <path d="M70,165.287686 C72.5900621,177.916034 75.2639752,183.329489 79,193.287686" id="路径备份-27" stroke="#02012D" stroke-width="1.536273" stroke-linecap="round" stroke-linejoin="round" stroke-dasharray="0,0"></path>
                <path d="M86,118.287686 C90.3663366,118.385565 94.6241929,119.649083 98.3215669,121.935873 C102.018941,124.222662 105.020232,127.46154 107,131.287686" id="路径备份-28" stroke="#02012D" stroke-width="1.536273" stroke-linecap="round" stroke-linejoin="round" stroke-dasharray="0,0"></path>
                <path d="M81,137.287686 C84.6309456,138.117113 87.9868195,139.830655 90.7833811,142.273363 C93.5707736,144.725186 95.7071633,147.824145 97,151.287686" id="路径备份-29" stroke="#02012D" stroke-width="1.536273" stroke-linecap="round" stroke-linejoin="round" stroke-dasharray="0,0"></path>
                <path d="M84,128.287686 C88.3078451,128.766622 92.3565045,130.567066 95.5829196,133.431811 C98.8093347,136.296556 101.052632,140.092564 102,144.287686" id="路径备份-30" stroke="#02012D" stroke-width="1.536273" stroke-linecap="round" stroke-linejoin="round" stroke-dasharray="0,0"></path>
                <line x1="205" y1="156.287686" x2="201" y2="175.287686" id="路径-25备份" stroke="#02012D" stroke-width="1.536273" stroke-linecap="round" stroke-linejoin="round" stroke-dasharray="0,0"></line>
                <path d="M102.990892,105.101769 C102.94496,104.284076 102.733673,103.484354 102.366217,102.747532 C101.998761,102.010709 101.493508,101.345772 100.859647,100.806634 C100.225785,100.267495 99.5000589,99.8631417 98.7008419,99.6025581 C97.9108112,99.3419746 97.0656621,99.2431326 96.2388858,99.3060321 C95.4029231,99.3689315 94.5853332,99.6025581 93.8412345,99.9709693 C93.0971359,100.348366 92.4449012,100.869533 91.9029034,101.498528 C91.370092,102.127523 90.9658903,102.855359 90.7270438,103.63711 L89,108.687039 C93.1063223,109.702416 97.0656621,111.247946 100.758596,113.287686 L100.758596,113.260729 L102.623436,107.500935 C102.908215,106.737156 103.036824,105.919462 102.990892,105.101769 Z" id="路径备份-31" fill="#2C42CE"></path>
                <path d="M78.3654721,160.9667 C79.9430237,161.484284 81.6605947,161.373373 83.1541346,160.652452 C84.6476746,159.931531 85.805168,158.665298 86.3652455,157.112545 L87,155.439639 C83.8262276,153.055054 80.9044901,150.346979 78.3001298,147.352384 L78.3001298,147.287686 C77.4693482,148.211944 76.5078818,149.006806 75.4530692,149.653786 L74.2769065,153.138237 C73.791506,154.718718 73.9501946,156.419352 74.7062992,157.879679 C75.4717385,159.340006 76.7879205,160.449115 78.3654721,160.9667 Z" id="路径备份-32" fill="#2C42CE"></path>
                <path d="M72.9651247,157.089323 C72.929221,156.963144 72.8484379,156.854989 72.740727,156.764861 C72.641992,156.683745 72.5163293,156.629668 72.3816906,156.611643 C72.247052,156.60263 72.1124134,156.629668 71.9957266,156.683745 C58.8370455,163.623633 36.3254682,153.871739 38.7579392,136.287686 C34.8354674,141.722429 31.6041406,147.634853 29.1267899,153.871739 C29.0370309,154.088047 28.9921513,154.313368 29.0011272,154.547702 C29.1985972,171.888408 55.6416222,181.829572 65.9728923,173.015013 C66.1254828,172.897846 66.2511455,172.753641 66.3588564,172.59141 C69.222171,167.877694 71.4481962,162.794452 72.9741006,157.485888 C73.0100042,157.359709 73.0100042,157.215503 72.9651247,157.089323 Z" id="路径备份-35" fill="#D8D8D8"></path>
                <path d="M29.0011272,154.547702 C29.1985972,171.888408 55.6416222,181.829572 65.9728923,173.015013 C66.1254828,172.897846 66.2511455,172.753641 66.3588564,172.59141 C69.222171,167.877694 71.4481962,162.794452 72.9741006,157.485888 C73.0100042,157.359709 73.0100042,157.215503 72.9651247,157.089323 C72.929221,156.963144 72.8484379,156.854989 72.740727,156.764861 C72.641992,156.683745 72.5163293,156.629668 72.3816906,156.611643 C72.247052,156.60263 72.1124134,156.629668 71.9957266,156.683745 C58.8370455,163.623633 36.3254682,153.871739 38.7579392,136.287686 C34.8354674,141.722429 31.6041406,147.634853 29.1267899,153.871739 C29.0370309,154.088047 28.9921513,154.313368 29.0011272,154.547702 Z" id="路径备份-36" stroke="#02012D" stroke-width="1.536273" stroke-linecap="round" stroke-linejoin="round" stroke-dasharray="0,0"></path>
                <path d="M135.090361,179.520785 C136.969865,183.842952 138.009014,188.476386 138.171663,193.180966 L154.906478,193.287686 C155.403462,188.111759 153.876365,179.636399 151.3553,175.78558 C151.246867,175.607713 151.084217,175.474313 150.89446,175.385379 C150.713738,175.305339 150.496872,175.269766 150.298079,175.296446 C145.391489,175.741113 140.539115,176.639341 135.813247,178.000023 C135.659634,178.04449 135.515056,178.12453 135.397587,178.23125 C135.271082,178.329077 135.180722,178.462477 135.108433,178.604771 C135.04518,178.747064 135,178.898251 135,179.058331 C135,179.218412 135.027108,179.369599 135.090361,179.520785 Z" id="路径备份-37" fill="#D8D8D8"></path>
                <path d="M138.171663,193.180966 C138.009014,188.476386 136.969865,183.842952 135.090361,179.520785 C135.027108,179.369599 135,179.218412 135,179.058331 C135,178.898251 135.04518,178.747064 135.108433,178.604771 C135.180722,178.462477 135.271082,178.329077 135.397587,178.23125 C135.515056,178.12453 135.659634,178.04449 135.813247,178.000023 C140.539115,176.639341 145.391489,175.741113 150.298079,175.296446 C150.496872,175.269766 150.713738,175.305339 150.89446,175.385379 C151.084217,175.474313 151.246867,175.607713 151.3553,175.78558 C153.876365,179.636399 155.403462,188.111759 154.906478,193.287686" id="路径备份-38" stroke="#02012D" stroke-width="1.536273" stroke-linecap="round" stroke-linejoin="round" stroke-dasharray="0,0"></path>
                <path d="M60.8790464,168.411973 C61.3006686,168.83387 61.8364802,169.115135 62.4162108,169.229398 C62.9959414,169.343662 63.6020234,169.290925 64.1466188,169.062398 C64.6912142,168.83387 65.1655393,168.447132 65.4905398,167.954919 C65.8243241,167.462706 66,166.882598 66,166.284911 C66,165.493855 65.6837833,164.729167 65.1216203,164.166638 C64.5594573,163.604109 63.795267,163.287686 62.9959414,163.287686 C62.407427,163.287686 61.8276964,163.463477 61.3358038,163.797478 C60.8439112,164.12269 60.4574241,164.588535 60.2290454,165.142274 C60.0006667,165.687224 59.9391801,166.2937 60.0621532,166.873808 C60.1763426,167.453916 60.4574241,167.990077 60.8790464,168.411973 Z" id="路径备份-39" fill="#FFFFFF"></path>
                <path d="M103,64.3876864 C103,64.354353 103,64.3210197 103,64.2876864 C103,64.3210197 103,64.354353 103,64.3876864 Z" id="路径备份-41" fill="#31333A"></path>
                <path d="M103,64.2876864 C103,64.3210197 103,64.354353 103,64.3876864 C103,64.354353 103,64.3210197 103,64.2876864 Z" id="路径备份-43" stroke="#050B1E" stroke-width="1.536273" stroke-linecap="round" stroke-linejoin="round" stroke-dasharray="0,0"></path>
                <path d="M150,98.2876864 C149.664115,100.624455 148.55311,102.740955 146.890909,104.215801 C145.228708,105.700224 143.127273,106.42807 141,106.265263" id="路径备份-44" stroke="#050B1E" stroke-width="1.536273" stroke-linecap="round" stroke-linejoin="round" stroke-dasharray="0,0"></path>
                <path d="M79.3350475,16.3733954 C71.4472087,21.6470746 65.293257,29.1398316 61.6547892,37.9083339 C58.0253053,46.6768362 57.073015,56.3167982 58.9147085,65.6333319 C60.765386,74.9408814 65.3291925,83.4937648 72.0311603,90.2049033 C78.742112,96.9250259 87.2857734,101.497944 96.5930638,103.357657 C105.900354,105.21737 115.549032,104.274037 124.326274,100.653436 C133.094532,97.0328354 140.596064,90.8876965 145.878581,82.9996381 C151.161097,75.1115797 153.982032,65.8399666 154,56.3527347 L154,56.2898458 C154,43.5593461 148.942081,31.3499254 139.940242,22.347836 C130.938403,13.3457466 118.729322,8.28768637 105.999177,8.28768637 C96.5032251,8.28768637 87.2318702,11.0997163 79.3350475,16.3733954 Z" id="路径备份-45" fill="#4D9AFF"></path>
                <path d="M116.794441,11.269939 C91.5301794,5.30100928 66.2298521,20.9446543 60.269939,46.199899 C54.3010093,71.4641603 69.9446543,96.7644876 95.199899,102.733417 C120.46416,108.69333 145.764488,93.0496854 151.733417,67.7944407 C157.69333,42.5301794 142.049685,17.2298521 116.794441,11.269939 Z" id="路径备份-46" stroke="#2C42CE" stroke-width="7.681365" stroke-linecap="round" stroke-linejoin="round" stroke-dasharray="0,0"></path>
                <path d="M21,173 C23.5733634,167.129102 26.2370203,161.450242 29,156" id="路径备份-53" stroke="#02012D" stroke-width="1.536273" stroke-linecap="round" stroke-linejoin="round" stroke-dasharray="0,0"></path>
                <path d="M95.5,55 C88.0471513,55 82,61.0471513 82,68.5 C82,75.9528487 88.0471513,82 95.5,82 C102.952849,82 109,75.9528487 109,68.5 C109,61.0471513 102.952849,55 95.5,55 Z" id="路径" fill="#005DFF"></path>
                <path d="M138,56.1761499 C115.344541,30.4962146 94.6778744,30.424198 76,55.9600999 C95.5464734,79.9356412 116.21314,80.0076579 138,56.1761499 Z" id="路径" stroke="#FFFFFF" stroke-width="2.7"></path>
            </g>
        </g>
    </g>
</svg>