<?xml version="1.0" encoding="UTF-8"?>
<svg width="289px" height="236px" viewBox="0 0 289 236" version="1.1" xmlns="http://www.w3.org/2000/svg" xmlns:xlink="http://www.w3.org/1999/xlink">
    <title>检索结果为空 2</title>
    <defs>
        <rect id="path-1" x="0" y="0" width="289" height="236"></rect>
    </defs>
    <g id="新主题" stroke="none" stroke-width="1" fill="none" fill-rule="evenodd">
        <g id="v2.0插画库" transform="translate(-733.000000, -1855.000000)">
            <g id="检索结果为空" transform="translate(733.000000, 1855.000000)">
                <g id="分组-1">
                    <mask id="mask-2" fill="white">
                        <use xlink:href="#path-1"></use>
                    </mask>
                    <g id="路径"></g>
                    <path d="M279.57075,228.5945 L259.54075,45.6345 L4.14075,174.7945 L279.57075,228.5945 Z" id="路径" fill="#D8D8D8" mask="url(#mask-2)"></path>
                    <path d="M91.9924471,94.0878686 L89.0224471,68.5578686 C77.5757805,53.0978686 66.8057805,46.2078686 56.7124471,47.8878686 C41.5824471,50.3878686 44.7024471,74.9578686 46.1324471,83.6078686 C47.0857805,89.3678686 48.0624471,95.2345353 49.0624471,101.207869 L91.9924471,94.0878686 Z" id="路径" fill="#BFBFBF" mask="url(#mask-2)"></path>
                    <path d="M57.2551,47.7802 C57.0851,47.8135333 56.9451,47.8635333 56.8651,47.8802 L57.2551,47.7802 Z" id="路径" fill="#FFFFFF" mask="url(#mask-2)"></path>
                    <path d="M59.7615,47.7215 L59.7915,47.7215 C59.8015,47.7215 59.8015,47.7215 59.8215,47.7215 C64.4215,48.1515 73.0215,51.6515 76.9215,70.6415 C77.1415,71.6015 77.3315,72.5915 77.5015,73.6415 C78.3815,78.9515 79.6715,86.6715 81.2015,95.8715 C85.5215,121.9115 91.8015,159.8515 96.6215,188.8515 C96.8915,190.4815 97.1815,192.0515 97.4915,193.5515 L98.4415,193.7215 L152.4415,204.1515 L196.3015,212.6215 L249.5415,203.7915 C248.388167,196.858167 246.9615,188.2715 245.2615,178.0315 C241.2115,153.5215 235.0515,116.3815 230.4315,88.5815 C228.5315,77.0915 226.8915,67.2015 225.7715,60.4515 C222.078167,38.2181667 214.8415,25.8781667 204.0615,23.4315 L93.2615,41.8115 L57.6115,47.7315 C57.9815,47.6915 58.4815,47.6515 59.0615,47.6915 C59.0915,47.6715 59.1015,47.6715 59.1315,47.6915 C59.3215,47.6915 59.5415,47.7015 59.7615,47.7215 Z" id="路径" fill="#FFFFFF" mask="url(#mask-2)"></path>
                    <line x1="246.273" y1="24.794" x2="240.674" y2="28.737" id="路径-8备份" stroke="#2C42CE" stroke-width="1.70697" stroke-linecap="round" stroke-linejoin="round" stroke-dasharray="0,0" transform="translate(243.473500, 26.765500) scale(-1, 1) translate(-243.473500, -26.765500) "></line>
                    <line x1="246.085" y1="17.642" x2="240.486" y2="21.602" id="路径-9备份" stroke="#2C42CE" stroke-width="1.70697" stroke-linecap="round" stroke-linejoin="round" stroke-dasharray="0,0" transform="translate(243.285500, 19.622000) scale(-1, 1) translate(-243.285500, -19.622000) "></line>
                    <path d="M132.278,235.575 C131.888,235.635 131.578,235.685 131.388,235.715 C131.698,235.685 131.998,235.635 132.278,235.575 Z" id="路径" fill="#99C5FF"></path>
                    <path d="M273.661,173.163 L245.261,178.033 C171.649212,192.035177 134.487422,199.529998 133.775629,200.517464 C132.707939,201.998662 147.894855,203.295453 152.441,204.153 C206.822767,214.411121 221.442767,217.234454 196.301,212.623 L233.461,219.793 C240.831,218.623 246.231,217.773 248.391,217.413 C257.531,215.903 271.791,210.073 276.671,200.913 L273.661,173.163 Z" id="路径" fill="#D8D8D8"></path>
                    <path d="M228.4103,88.9019 L230.4903,88.5619 L228.5003,76.5719 C227.4203,70.0319 226.4803,64.3819 225.7503,60.0319 C219.5603,23.4819 205.7703,22.6119 205.1803,22.5919 L205.0703,22.5919 L93.0303,40.3919 L93.3603,42.4919 L205.1803,24.7219 C206.2703,24.8819 218.0703,27.2919 223.6703,60.3919 C224.4003,64.7319 225.3303,70.3719 226.4203,76.9219 L228.4103,88.9019 Z" id="路径" fill="#02012D"></path>
                    <path d="M102.495,76.2571 L104.355,87.4871 L205.315,70.7371 L203.455,59.5071 L102.495,76.2571 Z" id="路径" fill="#E6F2FF"></path>
                    <path d="M107.442,106.0852 L109.302,117.3152 L183.302,105.0352 L181.432,93.8052 L107.442,106.0852 Z" id="路径" fill="#E6F2FF"></path>
                    <path d="M112.571,134.405 L114.431,145.635 L183.701,134.145 L181.841,122.915 L112.571,134.405 Z" id="路径" fill="#E6F2FF"></path>
                    <path d="M82.2442,95.7001 L78.0742,70.4501 L76.9242,70.6401 L75.9742,70.7901 L80.1542,96.0401 L96.2342,193.3001 L97.4942,193.5501 L98.4442,193.7201 L82.2442,95.7001 Z" id="路径" fill="#02012D"></path>
                    <path d="M18.5541,179.559 L264.5141,227.499 L264.8941,225.559 L18.9341,177.619 L18.5541,179.559 Z" id="路径" fill="#02012D"></path>
                    <path d="M287.68325,207.24525 C289.44325,205.48525 289.44325,202.62525 287.68325,200.86525 L263.11325,176.30525 C261.36325,174.54525 258.49325,174.54525 256.74325,176.30525 C254.98325,178.05525 254.98325,180.92525 256.74325,182.67525 L281.30325,207.24525 C282.19325,208.13525 283.34325,208.56525 284.49325,208.56525 C285.64325,208.56525 286.79325,208.11525 287.68325,207.24525 Z" id="路径" fill="#2C42CE"></path>
                    <path d="M280.516,151.054 C280.516,127.114 261.106,107.704 237.166,107.704 C213.226,107.704 193.816,127.114 193.816,151.054 C193.816,174.994 213.226,194.404 237.166,194.404 C261.106,194.404 280.516,174.994 280.516,151.054 Z" id="路径" fill="#4D9AFF"></path>
                    <path d="M237.179299,107.704 C247.009299,107.704 256.899299,111.034 265.009299,117.844 C283.359299,133.224 285.749299,160.574 270.359299,178.904 C261.789299,189.114 249.499299,194.384 237.129299,194.384 C227.309299,194.384 217.419299,191.064 209.299299,184.254 C190.959299,168.874 188.559299,141.524 203.949299,123.194 C212.519299,112.974 224.819299,107.704 237.179299,107.704 Z M237.18202,116.724 C226.99202,116.724 217.40202,121.204 210.87202,128.994 C204.98202,136.004 202.18202,144.914 202.97202,154.034 C203.76202,163.184 208.07202,171.454 215.10202,177.344 C221.27202,182.524 229.09202,185.364 237.13202,185.364 C247.32202,185.364 256.91202,180.894 263.44202,173.104 C275.60202,158.594 273.70202,136.904 259.21202,124.744 C253.04202,119.564 245.22202,116.724 237.18202,116.724 Z" fill="#2C42CE"></path>
                    <path d="M277.218,131.759674 C272.058,121.059674 263.038,113.009674 251.828,109.089674 C237.818,104.189674 222.368,106.579674 210.468,115.479674 L211.818,117.279674 C223.108,108.819674 237.788,106.549674 251.078,111.199674 C261.728,114.919674 270.288,122.569674 275.178,132.719674 C280.078,142.889674 280.718,154.329674 276.998,164.979674 L279.128,165.729674 C283.068,154.519674 282.378,142.439674 277.218,131.759674 Z" id="路径" fill="#001A3A"></path>
                    <g id="分组-2" transform="translate(225.162000, 132.595455)" fill="#FFFFFF">
                        <path d="M14.1,25.5190141 C13.93,23.5590141 15,21.8290141 17.29,20.3390141 C21.89,17.1990141 24.12,13.6890141 23.96,9.79901408 C23.37,3.66901408 19.81,0.409014085 13.29,0.0190140845 C6,-0.280985915 1.57,2.96901408 0,9.76901408 L5.47,11.4190141 C6.25,7.02901408 8.72,4.94901408 12.91,5.14901408 C15.98,5.36901408 17.69,6.87901408 18.02,9.68901408 C18.05,11.1690141 17.79,12.3290141 17.23,13.1590141 C16.7,14.0390141 15.53,15.1590141 13.76,16.5290141 C10.37,18.9590141 8.74,21.8890141 8.86,25.3290141 L8.86,26.8490141 L14.1,26.8490141 L14.1,25.5190141 Z" id="路径"></path>
                        <path d="M8.241,36.8985455 L14.741,36.8985455 L14.741,30.3985455 L8.241,30.3985455 L8.241,36.8985455 Z" id="路径"></path>
                    </g>
                </g>
                <path d="M71.5313879,128.324631 C71.1113879,128.154631 70.6513879,128.074631 70.2013879,128.084631 C69.5313879,128.104631 68.8813879,128.314631 68.3313879,128.704631 C67.7813879,129.084631 67.3513879,129.624631 67.1113879,130.254631 C66.8613879,130.874631 66.8113879,131.564631 66.9513879,132.214631 C67.0913879,132.874631 67.4213879,133.474631 67.9013879,133.944631 C68.3813879,134.414631 68.9913879,134.724631 69.6513879,134.854631 C70.3113879,134.974631 70.9913879,134.904631 71.6113879,134.644631 C72.2313879,134.384631 72.7613879,133.944631 73.1313879,133.384631 C73.5013879,132.824631 73.7013879,132.174631 73.7013879,131.504631 C73.7013879,131.044631 73.6113879,130.594631 73.4313879,130.174631 C73.2513879,129.754631 72.9913879,129.374631 72.6713879,129.054631 C72.3413879,128.734631 71.9613879,128.484631 71.5313879,128.324631 Z" id="路径备份-16" stroke="#2C42CE" stroke-width="1.70697" stroke-linecap="round" stroke-linejoin="round" stroke-dasharray="0,0"></path>
            </g>
        </g>
    </g>
</svg>