<?xml version="1.0" encoding="UTF-8"?>
<svg width="278.853795px" height="221.747838px" viewBox="0 0 278.853795 221.747838" version="1.1" xmlns="http://www.w3.org/2000/svg" xmlns:xlink="http://www.w3.org/1999/xlink">
    <title>未知的报错</title>
    <g id="新主题" stroke="none" stroke-width="1" fill="none" fill-rule="evenodd">
        <g id="v2.0插画库" transform="translate(-742.146205, -5692.252162)">
            <g id="未知的报错" transform="translate(743.000000, 5692.252162)">
                <g id="编组-4" transform="translate(17.290069, 0.000000)">
                    <g id="编组-20">
                        <g id="编组-19" transform="translate(62.799991, 116.378507) rotate(-6.000000) translate(-62.799991, -116.378507) translate(7.719164, 39.644363)">
                            <path d="M11.9668233,0.605348733 L91.0237884,0.605348733 L79.8633123,53.2539362 L110.161655,95.5329179 L95.3486771,152.605349 L11.9668233,152.605349 C8.65320014,152.605349 5.96697778,150.037332 5.96697778,146.869522 L5.96697778,6.34176999 C5.96697778,3.17396042 8.65320014,0.605348733 11.9668233,0.605348733 Z" id="路径" fill="#D8D8D8"></path>
                            <path d="M5.99984557,3.61960849e-12 L85.0568107,3.61960849e-12 L73.8963345,53.1571613 L104.194677,95.8445488 L89.3816993,153.468287 L5.99984557,153.468287 C2.68622236,153.468287 2.45825103e-15,150.875463 2.45825103e-15,147.677053 L2.45825103e-15,5.79183384 C2.45825103e-15,2.59342392 2.68622236,3.61960849e-12 5.99984557,3.61960849e-12 Z" id="路径" fill="#FFFFFF"></path>
                            <polygon id="路径" fill="#E6F2FF" points="17.1492873 29.6818299 78.8126388 29.738777 73.8963345 53.1571613 93.4382624 80.6900489 92.3076155 137.195152 16.3542465 137.195152 16.3542465 118.254315"></polygon>
                            <g id="Group备份-4" transform="translate(12.655278, 14.662912) rotate(9.000000) translate(-12.655278, -14.662912) translate(8.850376, 10.990305)" fill="#E6F2FF">
                                <path d="M3.80990193,0 C1.69995624,0 0,1.64084948 0,3.67743324 C0,5.70436495 1.69995624,7.34521443 3.80990193,7.34521443 C5.90984788,7.34521443 7.60980413,5.70436495 7.60980413,3.67743324 C7.60980413,1.64084948 5.90984788,0 3.80990193,0 Z" id="路径"></path>
                            </g>
                            <g id="Group备份-5" transform="translate(26.550651, 14.695914) rotate(9.000000) translate(-26.550651, -14.695914) translate(22.745749, 11.023307)" fill="#E6F2FF">
                                <path d="M3.80990193,0 C1.69995624,0 0,1.64084948 0,3.67743324 C0,5.70436495 1.69995624,7.34521443 3.80990193,7.34521443 C5.90984788,7.34521443 7.60980413,5.70436495 7.60980413,3.67743324 C7.60980413,1.64084948 5.90984788,0 3.80990193,0 Z" id="路径"></path>
                            </g>
                            <g id="Group备份-6" transform="translate(40.446024, 14.728917) rotate(9.000000) translate(-40.446024, -14.728917) translate(36.641122, 11.056310)" fill="#E6F2FF">
                                <path d="M3.79990219,0 C1.69995624,0 0,1.64084948 0,3.67743324 C0,5.70436495 1.69995624,7.34521443 3.79990219,7.34521443 C5.90984788,7.34521443 7.60980413,5.70436495 7.60980413,3.67743324 C7.60980413,1.64084948 5.90984788,0 3.79990219,0 Z" id="路径"></path>
                            </g>
                            <path d="M83.8250559,1 L72.8278532,53.3794926 L103.110644,96.0449691 L88.6062508,152.468287 L5.99984557,152.468287 C4.61501833,152.468287 3.35982537,151.929021 2.45180178,151.052569 C1.55681357,150.188699 1,148.996185 1,147.677053 L1,5.79183384 C1,4.47262564 1.55686705,3.27992555 2.45192347,2.4159003 C3.3599284,1.53937546 4.6150687,1 5.99984557,1 L83.8250559,1 Z" id="路径" stroke="#02012D" stroke-width="2"></path>
                        </g>
                        <g id="编组-18" transform="translate(164.219044, 116.912384) rotate(6.000000) translate(-164.219044, -116.912384) translate(100.753031, 40.059264)">
                            <path d="M120.932181,-1.49073499e-15 C124.245805,-1.49073499e-15 126.932027,2.58551045 126.932027,5.77416087 L126.932027,147.226438 C126.932027,150.415088 124.245805,153 120.932181,153 L22.3797182,153 L37.2891594,95.1776135 L6.96147408,52.5794683 L18.03383,-1.49073499e-15 L120.932181,-1.49073499e-15 Z" id="路径" fill="#D8D8D8"></path>
                            <path d="M113.970707,0.237953299 C117.284331,0.237953299 119.970553,2.83137722 119.970553,6.02978714 L119.970553,147.915007 C119.970553,151.113417 117.284331,153.70624 113.970707,153.70624 L15.4182441,153.70624 L30.3276853,95.7068768 L1.60277418e-11,52.9783515 L11.072356,0.237953299 L113.970707,0.237953299 Z" id="路径" fill="#FFFFFF"></path>
                            <polygon id="路径" fill="#E6F2FF" points="76.141737 124.703789 75.9936272 138.254968 28.3552445 137.842108 28.6538658 124.792785"></polygon>
                            <polygon id="路径" fill="#E6F2FF" points="106.827181 105.648044 106.666066 119.216779 28.5388696 118.706563 28.837491 105.65724"></polygon>
                            <polygon id="路径" fill="#E6F2FF" points="106.749996 86.189228 106.588881 99.7579635 29.4155513 99.2533953 30.3276853 95.7068768 28.5975723 93.2700859 28.7603055 86.1984242"></polygon>
                            <polygon id="路径" fill="#E6F2FF" points="4.82818415 29.9786607 18.4329961 29.9920638 17.4798585 77.6057646 8.45248986e-16 52.9783515"></polygon>
                            <polygon id="路径" fill="#E6F2FF" points="30.2624055 30.0903493 107.577264 30.1832063 107.295934 76.5687263 29.1687373 76.0585101"></polygon>
                            <path d="M113.970707,1.2379533 C115.355484,1.2379533 116.610625,1.77732876 117.518629,2.6538536 C118.413686,3.51787885 118.970553,4.71057894 118.970553,6.02978714 L118.970553,147.915007 C118.970553,149.234138 118.413739,150.426653 117.518751,151.290523 C116.610728,152.166975 115.355535,152.70624 113.970707,152.70624 L16.7078182,152.70624 L31.4117182,95.5064545 L1.06847773,52.7560135 L11.8842152,1.2379533 Z" id="路径" stroke="#02012D" stroke-width="2"></path>
                        </g>
                        <polygon id="路径备份-11" fill="#99C5FF" transform="translate(125.000000, 26.049838) rotate(-34.740000) translate(-125.000000, -26.049838) " points="116.077741 28.2521874 134 28.5498377 133.922259 23.847488 116 23.5498377"></polygon>
                        <polygon id="路径备份-51" fill="#99C5FF" transform="translate(86.500000, 23.549838) rotate(-35.130000) translate(-86.500000, -23.549838) " points="84.2794015 31.47522 89 31.5498377 88.7205985 15.6244554 84 15.5498377"></polygon>
                        <polygon id="路径备份-56" fill="#99C5FF" transform="translate(109.000000, 15.549838) rotate(20.000000) translate(-109.000000, -15.549838) " points="116 16.1378207 108.51131 13.320665 113.904039 3.63199323 109.889233 1.54983769 102 15.7237549 109.392905 18.5083296 104.236035 27.3931473 108.208778 29.5498377"></polygon>
                    </g>
                    <polygon id="路径" fill="#99C5FF" transform="translate(95.500000, 200.049838) rotate(-180.000000) translate(-95.500000, -200.049838) " points="91.6989629 204.549838 101 198.027347 99.3010371 195.549838 90 202.072328"></polygon>
                    <polygon id="路径" fill="#99C5FF" transform="translate(115.000000, 197.049838) rotate(-215.130000) translate(-115.000000, -197.049838) " points="113.114349 200.485643 117 200.549838 116.885651 193.614033 113 193.549838"></polygon>
                </g>
                <g id="编组-6" transform="translate(44.268945, 109.451361) rotate(-6.000000) translate(-44.268945, -109.451361) translate(9.215475, 91.914852)">
                    <path d="M3.65346712,7.07307966e-16 C18.884811,0.0586565618 32.6942786,0.0879848427 45.0818699,0.0879848427 C49.9250478,0.0879848427 57.1898147,0.0879848427 66.8761706,0.0879848427 C68.6604752,0.0879848427 70.1069398,0.997178476 70.1069398,2.11872566 L69.6842419,31.1514224 C69.6842419,33.3114761 67.9331724,35.0625456 65.7731187,35.0625456 C65.7696326,35.0625456 65.7661466,35.0625409 65.7626605,35.0625316 L49.3421883,35.0186234 L49.3421883,35.0186234 L4.03078818,34.7815107 C1.82167943,34.7699505 0.0402143232,32.9697426 0.0517744995,30.7606339 C0.0518280926,30.7503924 0.0519210189,30.7401512 0.0520532763,30.7299105 L0.422697891,2.03074082 L0.422697891,2.03074082 C0.422697891,0.909193633 1.86916254,7.07307966e-16 3.65346712,7.07307966e-16 Z" id="矩形备份-3备份-4" fill="#4D9AFF"></path>
                    <path d="M53.9728691,11.8215505 C54.8012962,11.8215505 55.4728691,12.4931234 55.4728691,13.3215505 C55.4728691,14.1499777 54.8012962,14.8215505 53.9728691,14.8215505 L11.170726,14.8215505 C10.3422989,14.8215505 9.67072602,14.1499777 9.67072602,13.3215505 C9.67072602,12.4931234 10.3422989,11.8215505 11.170726,11.8215505 L53.9728691,11.8215505 Z" id="直线-2备份-5" fill="#FFFFFF" fill-rule="nonzero"></path>
                    <path d="M28.5287461,19.3215505 L30.2189664,19.3215505 L38.0359009,19.3215505 C38.8643281,19.3215505 39.5359009,19.9931234 39.5359009,20.8215505 C39.5359009,21.6499777 38.8643281,22.3215505 38.0359009,22.3215505 L11.170726,22.3215505 C10.3422989,22.3215505 9.67072602,21.6499777 9.67072602,20.8215505 C9.67072602,19.9931234 10.3422989,19.3215505 11.170726,19.3215505 L25.8584164,19.3215505 L28.5287461,19.3215505 Z" id="直线-2备份-6" fill="#FFFFFF" fill-rule="nonzero"></path>
                </g>
                <g id="编组-22" transform="translate(182.000000, 125.747838)">
                    <path d="M48,0 C21.333375,0 0,21.333375 0,48 C0,74.666625 21.333375,96 48,96 C74.666625,96 96,74.666625 96,48 C96,21.333375 74.666625,0 48,0 Z" id="路径" fill="#FFB500"></path>
                    <path d="M52.2666562,79.9999687 C50.666625,81.0666562 49.6000312,81.6 47.4666562,81.6 C45.866625,81.6 44.2666875,81.0666562 42.6666562,79.9999687 C41.066625,78.933375 40.533375,77.3333437 40.533375,75.1999687 C40.533375,73.0665937 41.066625,72 42.6666562,70.3999687 C43.7333437,69.333375 45.333375,68.2666875 47.4666562,68.2666875 C49.5999375,68.2666875 50.666625,68.8000312 52.2666562,70.3999687 C53.3333437,71.4666562 54.4000312,73.0666875 54.4000312,75.1999687 C54.4000312,77.33325 53.3333437,78.933375 52.2666562,79.9999687 Z" id="路径" fill="#FFFFFF"></path>
                    <path d="M68.8000313,38.4 C67.7333438,40.533375 66.6666563,42.1333125 65.066625,43.2 C63.4666875,44.8000313 61.3333125,46.9333125 57.6,50.133375 L54.933375,52.8 C54.3999375,53.3333438 53.8666875,54.4000313 53.3333438,54.933375 L53.3333438,56.5333125 C53.3333438,57.06675 52.8,58.1333438 52.8,59.733375 C52.2666563,62.9333438 50.666625,64.533375 47.4666563,64.533375 C45.866625,64.533375 44.8000313,63.9999375 43.7333438,62.9333438 C42.6666563,61.8666563 42.1333125,60.266625 42.1333125,58.6666875 C42.1333125,55.9999688 42.66675,53.8666875 43.2,52.2666563 C43.7333438,50.666625 44.8000313,49.0666875 46.3999688,47.4666563 C47.4666563,45.866625 49.6000313,44.2666875 51.7334063,42.6666563 C53.8666875,41.066625 54.933375,40.0000313 55.9999688,38.9333438 C57.0665625,37.8666563 57.6,37.3333125 58.1333438,36.266625 C58.6666875,35.2000313 59.2000313,34.1333438 59.2000313,33.0666563 C59.2000313,30.933375 58.1333438,28.8 56.5333125,27.1999688 C54.933375,25.6000313 52.26675,24.5333438 49.6000313,24.5333438 C45.333375,23.4666563 42.6666563,24.5333438 41.5999688,26.133375 C40.0000313,27.7333125 38.4,30.3999375 37.3334063,33.6 C36.266625,36.7999688 34.6666875,38.4 31.466625,38.4 C29.8666875,38.4 28.2666563,37.8666563 27.2000625,36.7999688 C26.133375,35.733375 25.6000313,34.1333438 25.6000313,33.0666563 C25.6000313,30.4000313 26.666625,27.1999688 28.2666563,24.5333438 C29.8666875,21.8667188 32.5333125,19.2 36.266625,17.066625 C40.0000313,14.9334375 43.7334375,14.4 48.5334375,14.4 C52.8000938,14.4 56.5334063,14.9333438 59.7334688,16.533375 C62.9334375,18.1333125 65.6000625,20.2666875 67.2000938,22.9333125 C69.3334688,25.6000313 70.4000625,28.8 70.4000625,31.9999688 C70.4000625,34.6666875 69.8667188,36.7999688 68.800125,38.4 L68.8000313,38.4 Z" id="路径" fill="#FFFFFF"></path>
                </g>
                <g id="编组-23" transform="translate(263.553286, 40.030082)" stroke="#2C42CE" stroke-dasharray="0,0" stroke-linecap="round" stroke-linejoin="round" stroke-width="1.70697">
                    <g id="编组-9" transform="translate(6.056214, 4.067256) rotate(-77.000000) translate(-6.056214, -4.067256) translate(3.162714, -1.480244)">
                        <line x1="5.787" y1="7.152" x2="0.188" y2="11.095" id="路径-8备份" transform="translate(2.987500, 9.123500) scale(-1, 1) translate(-2.987500, -9.123500) "></line>
                        <line x1="5.599" y1="9.57982009e-17" x2="7.41630544e-17" y2="3.96" id="路径-9备份" transform="translate(2.799500, 1.980000) scale(-1, 1) translate(-2.799500, -1.980000) "></line>
                    </g>
                </g>
                <path d="M4.65687548,58.9886712 C4.23687548,58.8186712 3.77687548,58.7386712 3.32687548,58.7486712 C2.65687548,58.7686712 2.00687548,58.9786712 1.45687548,59.3686712 C0.906875483,59.7486712 0.476875483,60.2886712 0.236875483,60.9186712 C-0.0131245172,61.5386712 -0.0631245172,62.2286712 0.0768754828,62.8786712 C0.216875483,63.5386712 0.546875483,64.1386712 1.02687548,64.6086712 C1.50687548,65.0786712 2.11687548,65.3886712 2.77687548,65.5186712 C3.43687548,65.6386712 4.11687548,65.5686712 4.73687548,65.3086712 C5.35687548,65.0486712 5.88687548,64.6086712 6.25687548,64.0486712 C6.62687548,63.4886712 6.82687548,62.8386712 6.82687548,62.1686712 C6.82687548,61.7086712 6.73687548,61.2586712 6.55687548,60.8386712 C6.37687548,60.4186712 6.11687548,60.0386712 5.79687548,59.7186712 C5.46687548,59.3986712 5.08687548,59.1486712 4.65687548,58.9886712 Z" id="路径备份-17" stroke="#2C42CE" stroke-width="1.70697" stroke-linecap="round" stroke-linejoin="round" stroke-dasharray="0,0"></path>
            </g>
        </g>
    </g>
</svg>