<?xml version="1.0" encoding="UTF-8"?>
<svg width="273px" height="208px" viewBox="0 0 273 208" version="1.1" xmlns="http://www.w3.org/2000/svg" xmlns:xlink="http://www.w3.org/1999/xlink">
    <title>上传成功备份</title>
    <g id="新主题" stroke="none" stroke-width="1" fill="none" fill-rule="evenodd">
        <g id="v2.0插画库" transform="translate(-686.000000, -4353.000000)">
            <g id="上传成功备份" transform="translate(686.140000, 4354.642000)">
                <g id="分组-111" transform="translate(0.000000, 10.420288)">
                    <g id="分组-112" transform="translate(0.000000, 14.982727)" fill="#D8D8D8">
                        <path d="M271.1,180.08 L251.39,0 L0,127.13 L271.1,180.08 Z" id="路径"></path>
                    </g>
                    <g id="分组-113" transform="translate(24.685534, 0.000000)">
                        <g id="分组-115" fill="#4D9AFF">
                            <path d="M209.61,122.86 L186.11,0 L85.9,28.73 L70.14,11.57 L0,31.68 L35,153.73 L36.44,154.02 L38.43,154.4 L75.91,161.72 L209.61,122.86 Z" id="路径"></path>
                        </g>
                        <g id="分组-116" transform="translate(19.160749, 9.243684)">
                            <g id="分组-118" fill="#99C5FF">
                                <path d="M0,51.73 L17.28,144.78 L19.27,145.16 L56.75,152.47 L66.74,154.43 L201.85,115.7 L200.99,111.12 L200.16,106.59 L183.27,15.7 L180.36,0 L170.43,2.85 L0,51.73 Z" id="路径"></path>
                            </g>
                            <g id="分组-120" transform="translate(10.850616, 13.421707)" fill="#FFFFFF">
                                <path d="M45.9,139.05 L55.89,141.01 L61.03,142.02 L62.36,142.28 L148.48,117.58 L191.42,105.26 L180.36,0 L172.42,2.28 L0,51.71 L8.42,131.74 L45.9,139.05 Z" id="路径"></path>
                            </g>
                            <g id="分组-121" transform="translate(84.846002, 61.522534)" fill="#99C5FF">
                                <path d="M24.21,0 L0,40.08 L17.2,35.86 L18.56,63.53 L35.9,59.27 L34.54,31.6 L51.76,27.38 L24.21,0 Z" id="路径"></path>
                            </g>
                        </g>
                        <g id="分组-122" transform="translate(91.044168, 139.665335)" fill="#02012D">
                            <path d="M87.45,0.58 L87.28,0 L0,25.02 L1.33,25.28 L4.21,25.85 L4.22,25.85 L87.82,1.87 L87.45,0.58 Z" id="路径"></path>
                        </g>
                    </g>
                    <g id="分组-123" transform="translate(163.631576, 21.838969)" fill="#02012D">
                        <path d="M77.44,48.58 L72.63,0 L0,20.34 L0.55,22.22 L70.93,2.51 L75.5,48.77 L77.44,48.58 Z" id="路径"></path>
                    </g>
                    <g id="分组-125" transform="translate(209.574523, 85.044956)">
                        <g id="分组-127" fill="#00CCD7">
                            <path d="M30.73,0 C13.76,0 0,13.76 0,30.73 C0,47.7 13.76,61.46 30.73,61.46 C47.7,61.46 61.46,47.7 61.46,30.73 C61.46,13.76 47.7,0 30.73,0 Z" id="路径"></path>
                        </g>
                        <g id="分组-129" transform="translate(26.384291, 0.091825)" fill="#02012D">
                            <path d="M0.26,60.13 L0,62.06 C1.48,62.26 2.95,62.36 4.42,62.36 C12.78,62.36 20.74,59.09 26.77,53.07 C39.13,40.71 39.13,20.6 26.77,8.23 C22.79,4.27 17.84,1.42 12.46,0 L11.97,1.88 C17.03,3.21 21.67,5.89 25.39,9.61 C36.99,21.21 36.99,40.1 25.39,51.7 C18.73,58.34 9.58,61.42 0.26,60.13 Z" id="路径"></path>
                        </g>
                        <g id="分组-130" transform="translate(13.736767, 20.317536)" fill="#FFFFFF">
                            <path d="M0.6825,13.2725 L11.8225,24.4125 C12.2525,24.8425 12.8325,25.0925 13.4425,25.0925 C14.0525,25.0925 14.6325,24.8625 15.0625,24.4125 L35.5625,3.9225 C36.4625,3.0325 36.4425,1.5825 35.5625,0.6825 C34.6725,-0.2275 33.2125,-0.2275 32.3125,0.6825 L13.4425,19.5525 L3.9225,10.0325 C3.0325,9.1325 1.5825,9.1425 0.6825,10.0325 C-0.2275,10.9225 -0.2275,12.3725 0.6825,13.2725 Z" id="路径"></path>
                        </g>
                    </g>
                    <g id="分组-131" transform="translate(14.234131, 144.816875)" fill="#02012D">
                        <path d="M120.267718,147.875846 L122.207718,147.875846 L122.207718,-98.7841543 L120.267718,-98.7841543 L120.267718,147.875846 Z" id="路径" transform="translate(121.237718, 24.545846) rotate(-78.970993) translate(-121.237718, -24.545846) "></path>
                    </g>
                </g>
                <line x1="239.133" y1="7.152" x2="233.534" y2="11.095" id="路径-8备份" stroke="#2C42CE" stroke-width="1.70697" stroke-linecap="round" stroke-linejoin="round" stroke-dasharray="0,0" transform="translate(236.333500, 9.123500) scale(-1, 1) translate(-236.333500, -9.123500) "></line>
                <line x1="238.945" y1="0" x2="233.346" y2="3.96" id="路径-9备份" stroke="#2C42CE" stroke-width="1.70697" stroke-linecap="round" stroke-linejoin="round" stroke-dasharray="0,0" transform="translate(236.145500, 1.980000) scale(-1, 1) translate(-236.145500, -1.980000) "></line>
                <path d="M28.3913879,117.682631 C27.9713879,117.512631 27.5113879,117.432631 27.0613879,117.442631 C26.3913879,117.462631 25.7413879,117.672631 25.1913879,118.062631 C24.6413879,118.442631 24.2113879,118.982631 23.9713879,119.612631 C23.7213879,120.232631 23.6713879,120.922631 23.8113879,121.572631 C23.9513879,122.232631 24.2813879,122.832631 24.7613879,123.302631 C25.2413879,123.772631 25.8513879,124.082631 26.5113879,124.212631 C27.1713879,124.332631 27.8513879,124.262631 28.4713879,124.002631 C29.0913879,123.742631 29.6213879,123.302631 29.9913879,122.742631 C30.3613879,122.182631 30.5613879,121.532631 30.5613879,120.862631 C30.5613879,120.402631 30.4713879,119.952631 30.2913879,119.532631 C30.1113879,119.112631 29.8513879,118.732631 29.5313879,118.412631 C29.2013879,118.092631 28.8213879,117.842631 28.3913879,117.682631 Z" id="路径备份-16" stroke="#2C42CE" stroke-width="1.70697" stroke-linecap="round" stroke-linejoin="round" stroke-dasharray="0,0"></path>
            </g>
        </g>
    </g>
</svg>