<?xml version="1.0" encoding="UTF-8"?>
<svg width="20px" height="20px" viewBox="0 0 20 20" version="1.1" xmlns="http://www.w3.org/2000/svg" xmlns:xlink="http://www.w3.org/1999/xlink">
    <title>主动拨测</title>
    <g id="HyperInsight-lydia" stroke="none" stroke-width="1" fill="none" fill-rule="evenodd">
        <g id="主动拨测小产品图标" transform="translate(-1, -1)" fill="#57689C">
            <g id="主动拨测" transform="translate(2, 2)">
                <g id="编组-9备份-2">
                    <path d="M9,-0.5 C11.9471914,-0.5 14.6727068,0.85135072 16.46306,3.12123832 C17.7746784,4.78416512 18.5,6.83741099 18.5,9 C18.5,11.7680375 17.3088289,14.344549 15.2703544,16.1368654 C13.5488757,17.6504651 11.3396782,18.5 9,18.5 C6.68876159,18.5 4.50445661,17.6710834 2.79127508,16.1905868 C0.716136284,14.3972942 -0.5,11.7967265 -0.5,9 C-0.5,6.78894619 0.25832804,4.69279776 1.62421853,3.01223273 C3.41703146,0.806390662 6.10196029,-0.5 9,-0.5 Z M9,0.5 C6.40628042,0.5 4.00512954,1.66831442 2.40023503,3.64294534 C1.17794508,5.14682706 0.5,7.02078324 0.5,9 C0.5,11.5031051 1.58753297,13.8286694 3.44513035,15.4339672 C4.97832538,16.7589231 6.93116115,17.5 9,17.5 C11.0942799,17.5 13.0693924,16.7404812 14.6100465,15.3858704 C16.4348103,13.7814579 17.5,11.477445 17.5,9 C17.5,7.06413908 16.8515716,5.2285632 15.6778975,3.74052811 C14.0752,1.70855868 11.6376795,0.5 9,0.5 Z" id="椭圆形备份-21" fill-rule="nonzero"></path>
                    <path d="M8.58604398,9.27372727 L15.0111683,15.698307 C14.9876241,15.71945 14.9639678,15.7404706 14.9402005,15.7613679 C13.3552627,17.1549149 11.2763215,18 9,18 C6.75153254,18 4.69564439,17.1754699 3.11820272,15.812277 C2.92694671,15.6469975 2.74272396,15.4737994 2.56604398,15.2931925 L8.58604398,9.27372727 Z" id="形状结合"></path>
                    <path d="M9,2.75 C10.9390016,2.75 12.7320123,3.63900114 13.9099431,5.13243303 C14.77286,6.22647659 15.25,7.577168 15.25,9 C15.25,10.8211423 14.4663844,12.5161084 13.1252106,13.6953274 C11.9926269,14.6911448 10.5393356,15.25 9,15.25 C7.47937436,15.25 6.04246014,14.7047089 4.91533799,13.7306729 C3.55004058,12.5508107 2.75,10.8400159 2.75,9 C2.75,7.54528388 3.24885345,6.16636762 4.1474804,5.06071454 C5.32702915,3.60942075 7.09333354,2.75 9,2.75 Z M9,3.25 C7.2454936,3.25 5.62107819,4.04038264 4.53548865,5.37607084 C3.70866197,6.39338227 3.25,7.66120241 3.25,9 C3.25,10.6932052 3.98573892,12.2664983 5.24226563,13.3523631 C6.27939452,14.2486287 7.60057414,14.75 9,14.75 C10.4166364,14.75 11.7528852,14.2361528 12.7950567,13.3198298 C14.0293751,12.2345628 14.75,10.6758461 14.75,9 C14.75,7.69053205 14.3113066,6.44867562 13.5173619,5.44207792 C12.4332589,4.06760512 10.7842456,3.25 9,3.25 Z" id="椭圆形备份-21" fill-rule="nonzero"></path>
                    <path d="M8.72727273,5.20454545 C9.82008179,5.20454545 10.8308143,5.70568154 11.4946465,6.5473169 C11.981004,7.16394199 12.25,7.92541799 12.25,8.72727273 C12.25,9.75364494 11.8082572,10.7091377 11.0524226,11.3737007 C10.4141014,11.9349408 9.59479652,12.25 8.72727273,12.25 C7.87029515,12.25 7.06022044,11.9425867 6.42497353,11.3936193 C5.65554524,10.728695 5.20454545,9.76428383 5.20454545,8.72727273 C5.20454545,7.90744609 5.48578176,7.13006082 5.99226016,6.50689968 C6.65700475,5.68901089 7.65269101,5.20454545 8.72727273,5.20454545 Z M8.72727273,5.70454545 C7.80485107,5.70454545 6.95105379,6.11997277 6.38026841,6.82225598 C5.94559028,7.35707547 5.70454545,8.02336461 5.70454545,8.72727273 C5.70454545,9.61747314 6.09124358,10.4443826 6.75190117,11.0153095 C7.29715483,11.4865066 7.99149493,11.75 8.72727273,11.75 C9.47209733,11.75 10.1743597,11.4799488 10.7222687,10.9982032 C11.3712479,10.4275921 11.75,9.6083487 11.75,8.72727273 C11.75,8.03878204 11.5194506,7.38614103 11.1020653,6.8569618 C10.5320609,6.13428552 9.66532581,5.70454545 8.72727273,5.70454545 Z" id="椭圆形备份-22" fill-rule="nonzero"></path>
                    <path d="M17.5863636,8.61818182 C17.7244348,8.61818182 17.8363636,8.73011063 17.8363636,8.86818182 C17.8363636,9.00625301 17.7244348,9.11818182 17.5863636,9.11818182 L0.131818182,9.11818182 C-0.00625300564,9.11818182 -0.118181818,9.00625301 -0.118181818,8.86818182 C-0.118181818,8.73011063 -0.00625300564,8.61818182 0.131818182,8.61818182 L17.5863636,8.61818182 Z" id="直线备份" fill-rule="nonzero"></path>
                    <path d="M8.58636364,0.0227272727 C8.72443482,0.0227272727 8.83636364,0.134656085 8.83636364,0.272727273 L8.83636364,17.7272727 C8.83636364,17.8653439 8.72443482,17.9772727 8.58636364,17.9772727 C8.44829245,17.9772727 8.33636364,17.8653439 8.33636364,17.7272727 L8.33636364,0.272727273 C8.33636364,0.134656085 8.44829245,0.0227272727 8.58636364,0.0227272727 Z" id="直线备份-2" fill-rule="nonzero"></path>
                </g>
                <path d="M5.85,6.3 C6.19144822,6.3 6.5032894,6.17323723 6.74103007,5.96420518 C7.02241859,5.71679603 7.2,5.35413619 7.2,4.95 C7.2,4.63459024 7.09183363,4.34444409 6.91057181,4.11463248 C6.66335613,3.8012017 6.28017465,3.6 5.85,3.6 C5.42695627,3.6 5.04936064,3.79458642 4.80183402,4.09913835 C4.61311261,4.33133749 4.5,4.62745931 4.5,4.95 C4.5,5.35831429 4.68127219,5.7242902 4.96773041,5.97184155 C5.20434666,6.17632049 5.51272988,6.3 5.85,6.3 Z" id="椭圆形备份-30"></path>
                <path d="M14.85,12.6 C15.1914482,12.6 15.5032894,12.4732372 15.7410301,12.2642052 C16.0224186,12.016796 16.2,11.6541362 16.2,11.25 C16.2,10.9345902 16.0918336,10.6444441 15.9105718,10.4146325 C15.6633561,10.1012017 15.2801747,9.9 14.85,9.9 C14.4269563,9.9 14.0493606,10.0945864 13.801834,10.3991384 C13.6131126,10.6313375 13.5,10.9274593 13.5,11.25 C13.5,11.6583143 13.6812722,12.0242902 13.9677304,12.2718416 C14.2043467,12.4763205 14.5127299,12.6 14.85,12.6 Z" id="椭圆形备份-31"></path>
            </g>
        </g>
    </g>
</svg>