<?xml version="1.0" encoding="UTF-8"?>
<svg width="20px" height="20px" viewBox="0 0 20 20" version="1.1" xmlns="http://www.w3.org/2000/svg" xmlns:xlink="http://www.w3.org/1999/xlink">
    <!-- Generator: Sketch 63.1 (92452) - https://sketch.com -->
    <title>agile solution</title>
    <desc>Created with Sketch.</desc>
    <g id="第三版" stroke="none" stroke-width="1" fill="none" fill-rule="evenodd">
        <g id="画板" transform="translate(-529.000000, -150.000000)">
            <g id="agile-solution" transform="translate(528.000000, 149.000000)">
                <rect id="矩形" opacity="0" x="0" y="0" width="22" height="22"></rect>
                <g id="编组-8" transform="translate(1.000000, 1.000000)" fill="#FFFFFF" fill-rule="nonzero">
                    <path d="M10,0 C10.7631859,0 11.3965783,0.555712093 11.5176105,1.28456951 C15.1868765,1.91756483 18.0824255,4.81310921 18.7166058,8.48313778 C19.4447896,8.6039936 20,9.23715863 20,10 C20,10.7631859 19.4442879,11.3965783 18.7154305,11.5176105 C18.0826397,15.1867574 15.1868865,18.08256 11.5165582,18.7166584 C11.3960064,19.4447896 10.7628414,20 10,20 C9.23715863,20 8.6039936,19.4447896 8.48255377,18.7164176 C4.8167712,18.0860919 1.91793153,15.1891779 1.28337912,11.5167747 C0.555712093,11.3965783 0,10.7631859 0,10 C0,9.23681407 0.555712093,8.60342166 1.28456951,8.48238953 C1.9167972,4.81387166 4.81259553,1.91767645 8.48310402,1.28340003 C8.6039936,0.555210435 9.23715863,0 10,0 Z M10,17.6923077 C9.57516558,17.6923077 9.23076923,18.036704 9.23076923,18.4615385 C9.23076923,18.8863729 9.57516558,19.2307692 10,19.2307692 C10.4248344,19.2307692 10.7692308,18.8863729 10.7692308,18.4615385 C10.7692308,18.036704 10.4248344,17.6923077 10,17.6923077 Z M11.4496106,2.05280314 L11.4422115,2.07528061 C11.224387,2.66024602 10.6608535,3.07692308 10,3.07692308 C9.33140208,3.07692308 8.7624186,2.65042293 8.55027343,2.05464649 C5.25211353,2.65024326 2.65081004,5.25129719 2.05287227,8.55000777 C2.6499523,8.76179096 3.07692308,9.3310333 3.07692308,10 C3.07692308,10.6689667 2.6499523,11.238209 2.05366049,11.4500773 C2.65091189,14.7487451 5.25211457,17.3496747 8.55079313,17.94727 C8.76179096,17.3500477 9.3310333,16.9230769 10,16.9230769 C10.6689667,16.9230769 11.238209,17.3500477 11.4500773,17.9463395 C14.7472206,17.3503794 17.3490629,14.749166 17.9471094,11.4500933 C17.3500477,11.238209 16.9230769,10.6689667 16.9230769,10 C16.9230769,9.33177086 17.3491067,8.7630463 17.9443678,8.5506248 C17.3502386,5.2525386 14.7488421,2.65067179 11.4496106,2.05280314 Z M1.53846154,9.23076923 C1.11362712,9.23076923 0.769230769,9.57516558 0.769230769,10 C0.769230769,10.4248344 1.11362712,10.7692308 1.53846154,10.7692308 C1.96329596,10.7692308 2.30769231,10.4248344 2.30769231,10 C2.30769231,9.57516558 1.96329596,9.23076923 1.53846154,9.23076923 Z M18.4615385,9.23076923 C18.036704,9.23076923 17.6923077,9.57516558 17.6923077,10 C17.6923077,10.4248344 18.036704,10.7692308 18.4615385,10.7692308 C18.8863729,10.7692308 19.2307692,10.4248344 19.2307692,10 C19.2307692,9.57516558 18.8863729,9.23076923 18.4615385,9.23076923 Z M10,0.769230769 C9.57516558,0.769230769 9.23076923,1.11362712 9.23076923,1.53846154 C9.23076923,1.96329596 9.57516558,2.30769231 10,2.30769231 C10.4248344,2.30769231 10.7692308,1.96329596 10.7692308,1.53846154 C10.7692308,1.11362712 10.4248344,0.769230769 10,0.769230769 Z" id="形状结合"></path>
                    <path d="M11.5384615,15.3846154 C11.7508787,15.3846154 11.9230769,15.608473 11.9230769,15.8846154 C11.9230769,16.1410333 11.7745999,16.352369 11.5833158,16.3812515 L11.5384615,16.3846154 L8.46153846,16.3846154 C8.24912125,16.3846154 8.07692308,16.1607578 8.07692308,15.8846154 C8.07692308,15.6281975 8.22540007,15.4168618 8.41668418,15.3879793 L8.46153846,15.3846154 L11.5384615,15.3846154 Z M10,7.30769231 C11.9117549,7.30769231 13.4615385,8.85747587 13.4615385,10.7692308 C13.4615385,11.9408453 12.8742885,13.0105103 11.9234615,13.6473077 L11.9234615,13.6473077 L11.9228914,14.7435897 L8.07694867,14.7435897 L8.07653846,13.6476923 C7.15749776,13.0319886 6.57802399,12.0118494 6.54041122,10.8860567 L6.54041122,10.8860567 L6.53846154,10.7692308 C6.53846154,8.85747587 8.0882451,7.30769231 10,7.30769231 Z M10,8.07692308 C8.51307952,8.07692308 7.30769231,9.28231029 7.30769231,10.7692308 C7.30769231,11.7417307 7.82732071,12.6232848 8.65407154,13.1015598 L8.65407154,13.1015598 L8.84607755,13.2126353 L8.84576923,13.9742308 L9.61523077,13.9733846 L9.61523077,12.5283846 L8.7148726,11.9668575 C8.53473259,11.8542935 8.47995139,11.61701 8.59251536,11.43687 C8.69642056,11.2705869 8.90659563,11.2111184 9.08000043,11.291488 L9.1225028,11.3145128 L9.98623077,11.8543846 L10.8513639,11.3145128 L10.8938663,11.291488 C11.0672711,11.2111184 11.2774461,11.2705869 11.3813513,11.43687 C11.4939153,11.61701 11.4391341,11.8542935 11.2589941,11.9668575 L11.2589941,11.9668575 L10.6152308,12.3683846 L10.6152308,13.9733846 L11.1538462,13.9742308 L11.1543992,13.2123965 L11.3462649,13.1013652 C12.1728283,12.6230391 12.6923077,11.7415923 12.6923077,10.7692308 C12.6923077,9.28231029 11.4869205,8.07692308 10,8.07692308 Z M6.38957671,6.23450177 L6.4258103,6.26649739 L7.24170274,7.08238983 C7.39190439,7.23259148 7.39190439,7.47611647 7.24170274,7.62631812 C7.10305506,7.7649658 6.88488927,7.77563101 6.73400804,7.65831374 L6.69777445,7.62631812 L5.88188201,6.81042569 C5.73168036,6.66022403 5.73168036,6.41669904 5.88188201,6.26649739 C6.02052968,6.12784971 6.23869548,6.11718451 6.38957671,6.23450177 Z M13.657085,6.23450177 C13.8079662,6.11718451 14.026132,6.12784971 14.1647797,6.26649739 C14.3149813,6.41669904 14.3149813,6.66022403 14.1647797,6.81042569 L14.1647797,6.81042569 L13.3488872,7.62631812 L13.3126536,7.65831374 C13.1617724,7.77563101 12.9436066,7.7649658 12.8049589,7.62631812 C12.6547573,7.47611647 12.6547573,7.23259148 12.8049589,7.08238983 L12.8049589,7.08238983 L13.6208514,6.26649739 Z M10.1153846,4.61538462 C10.3718025,4.61538462 10.5831382,4.76386161 10.6120207,4.95514572 L10.6153846,5 L10.6153846,6.15384615 C10.6153846,6.36626337 10.391527,6.53846154 10.1153846,6.53846154 C9.8589667,6.53846154 9.64763104,6.38998454 9.61874848,6.19870043 L9.61538462,6.15384615 L9.61538462,5 C9.61538462,4.78758279 9.83924224,4.61538462 10.1153846,4.61538462 Z" id="形状结合"></path>
                </g>
            </g>
        </g>
    </g>
</svg>