<?xml version="1.0" encoding="UTF-8"?>
<svg width="22px" height="22px" viewBox="0 0 22 22" version="1.1" xmlns="http://www.w3.org/2000/svg" xmlns:xlink="http://www.w3.org/1999/xlink">
    <title>alert-ledger</title>
    <g id="HyperInsight-lydia" stroke="none" stroke-width="1" fill="none" fill-rule="evenodd">
        <g id="alert-ledger">
            <polygon id="路径" fill="#D8D8D8" fill-rule="nonzero" opacity="0.001" points="0 0 22 0 22 22 0 22"></polygon>
            <g id="编组-8" transform="translate(3.000000, 2.000000)">
                <path d="M12.8446297,9.79989176 C14.8126557,9.79989176 16.3823907,11.3696268 16.3823907,13.3376527 C16.3823907,14.8839589 15.3983777,16.1959762 13.9926449,16.6879827 C14.7189402,16.9574148 15.1758033,17.4377069 15.1758033,18 L10.4197406,18 C10.4197406,17.4377069 10.9117471,16.9457004 11.6614712,16.6879827 C10.2908817,16.1959762 9.30686873,14.8839589 9.30686873,13.3376527 C9.30686873,11.3696268 10.8766037,9.79989176 12.8446297,9.79989176 Z M12.9149164,12.2599242 C11.8957601,12.2599242 11.0406059,13.1150784 11.0406059,14.1342347 C11.0406059,15.153391 11.8957601,16.0085451 12.9149164,16.0085451 C13.969216,16.0085451 14.7892268,15.153391 14.7892268,14.1342347 C14.7892268,13.1150784 13.9575016,12.2599242 12.9149164,12.2599242 Z M12.9149164,13.3142239 C13.4069229,13.3142239 13.8286427,13.7125148 13.8286427,14.2279502 C13.8286427,14.7199567 13.4303517,15.1416766 12.9149164,15.1416766 C12.4229099,15.1416766 12.00119,14.7433856 12.00119,14.2279502 C12.00119,13.7359437 12.4229099,13.3142239 12.9149164,13.3142239 Z" id="形状结合" fill="#57689C"></path>
                <path d="M8.18111278,17.4065934 L8.18111278,17.4065934 L1.08791209,17.4065934 C0.487074833,17.4065934 0,16.9195186 0,16.3186813 L0,3.26373626 C0,2.66289901 0.487074833,2.17582418 1.08791209,2.17582418 L13.0549451,2.17582418 C13.6557823,2.17582418 14.1428571,2.66289901 14.1428571,3.26373626 L14.1428571,7.08533139 L14.1428571,7.08533139" id="路径" stroke="#57689C" stroke-width="1.6" stroke-linecap="round"></path>
                <rect id="矩形" fill="#57689C" x="3.26373626" y="0" width="2.17582418" height="4.35164835" rx="0.5"></rect>
                <rect id="矩形备份-8" fill="#57689C" x="2.17582418" y="5.43956044" width="8.70329671" height="1.6" rx="0.8"></rect>
                <rect id="矩形备份-20" fill="#57689C" x="2.17582418" y="8.70329671" width="5.43956044" height="1.6" rx="0.8"></rect>
                <rect id="矩形备份-3" fill="#57689C" x="8.70329671" y="0" width="2.17582418" height="4.35164835" rx="0.5"></rect>
            </g>
        </g>
    </g>
</svg>