<?xml version="1.0" encoding="UTF-8"?>
<svg width="22px" height="24px" viewBox="0 0 22 24" version="1.1" xmlns="http://www.w3.org/2000/svg" xmlns:xlink="http://www.w3.org/1999/xlink">
    <title>api备份 6</title>
    <defs>
        <linearGradient x1="12.5%" y1="1.17573702e-07%" x2="87.5%" y2="99.9999999%" id="linearGradient-1">
            <stop stop-color="#E6E9EF" offset="0%"></stop>
            <stop stop-color="#C1C9D5" offset="47.0960993%"></stop>
            <stop stop-color="#98A4B7" offset="100%"></stop>
        </linearGradient>
    </defs>
    <g id="页面-1" stroke="none" stroke-width="1" fill="none" fill-rule="evenodd">
        <g id="providers说明文档首页（1440*900）收起" transform="translate(-269.000000, -268.000000)" fill="url(#linearGradient-1)" fill-rule="nonzero">
            <g id="编组-4" transform="translate(84.000000, 126.000000)">
                <g id="编组-6" transform="translate(184.000000, 32.000000)">
                    <g id="编组-2" transform="translate(0.000000, 108.000000)">
                        <g id="形状结合" transform="translate(0.000000, 2.000000)">
                            <path d="M12,0 L22.3923048,6 L22.3923048,18 L12,24 L1.60769515,18 L1.60769515,6 L12,0 Z M10.9593968,10.4761885 C10.9117103,10.4381407 10.8356149,10.4381407 10.7879284,10.4761885 L10.7879284,10.4761885 L9.80705794,11.4570589 L9.17850946,10.8285104 C9.15948559,10.8094866 9.12143787,10.7904627 9.09277524,10.7904627 C9.06411262,10.7904627 9.03570365,10.8094866 9.00704103,10.8285104 L9.00704103,10.8285104 L7.51176529,12.3237862 C6.50223222,13.3427043 6.37845027,14.9140755 7.15944332,16.0570293 L7.15944332,16.0570293 L6.03576706,17.1713205 C6.01287834,17.1939784 6,17.2248479 6,17.2570547 C6,17.2892614 6.01287834,17.320131 6.03576706,17.3427889 L6.03576706,17.3427889 L6.66431554,17.9619523 C6.68333941,17.9903612 6.71174838,18 6.740411,18 C6.77845873,18 6.80712135,17.9906149 6.82614522,17.9619523 L6.82614522,17.9619523 L7.95007512,16.8476611 C8.28337323,17.0762011 8.65497271,17.2286457 9.04534241,17.2953561 C9.2264496,17.3334038 9.40730313,17.3524277 9.59779543,17.3524277 C10.3501259,17.3524277 11.1024563,17.0665624 11.6739332,16.4857004 L11.6739332,16.4857004 L13.178594,14.9904247 C13.2166417,14.9427382 13.2166417,14.8666427 13.178594,14.8189562 L13.178594,14.8189562 L12.5404068,14.1904077 L13.5212772,13.2095373 C13.5689637,13.1621045 13.5689637,13.0857554 13.5217845,13.0477076 L13.5217845,13.0477076 L12.9883554,12.5142785 C12.9656975,12.4913897 12.9348279,12.4785114 12.9026212,12.4785114 C12.8704144,12.4785114 12.8395448,12.4913897 12.8168869,12.5142785 L12.8168869,12.5142785 L11.8454016,13.4951489 L10.5119555,12.1617028 L11.492826,11.1808324 C11.5405125,11.1333996 11.5405125,11.0570505 11.492826,11.0190027 L11.492826,11.0190027 Z M17.2641591,6 C17.2261114,6 17.1974488,6.00938511 17.1784249,6.03804773 L17.1784249,6.03804773 L16.0547487,7.15233888 C15.569006,6.82842588 14.9975291,6.64757234 14.4070283,6.64757234 C13.9687185,6.64757234 13.5212772,6.74294532 13.1212688,6.95246148 C12.8356571,7.08588218 12.5690694,7.27612082 12.3308906,7.5142996 L12.3308906,7.5142996 L10.8262298,9.00957535 C10.788182,9.05726183 10.788182,9.13335729 10.8262298,9.18104378 L10.8262298,9.18104378 L12.3024816,10.6476569 L14.8263143,13.1714896 C14.8453382,13.1998985 14.8833859,13.2095373 14.9120485,13.2095373 C14.9407112,13.2095373 14.9691201,13.1905134 14.9977827,13.1714896 L14.9977827,13.1714896 L16.4930585,11.6762138 C17.5025916,10.6572957 17.6263735,9.09530956 16.8453805,7.94297068 L16.8453805,7.94297068 L17.9690567,6.82867953 C17.9918553,6.80595762 18.0046012,6.77508038 18.0046012,6.74289255 C18.0046012,6.71070472 17.9916687,6.67986546 17.9688031,6.6572111 L17.9688031,6.6572111 L17.3402546,6.03804773 C17.3212307,6.00963876 17.2928217,6 17.2641591,6 Z"></path>
                        </g>
                    </g>
                </g>
            </g>
        </g>
    </g>
</svg>