<?xml version="1.0" encoding="UTF-8"?>
<svg width="24px" height="24px" viewBox="0 0 24 24" version="1.1" xmlns="http://www.w3.org/2000/svg" xmlns:xlink="http://www.w3.org/1999/xlink">
    <title>切片</title>
    <defs>
        <linearGradient x1="-2.22044605e-14%" y1="1.17573702e-07%" x2="100%" y2="99.9999999%" id="linearGradient-1">
            <stop stop-color="#E6E9EF" offset="0%"></stop>
            <stop stop-color="#C1C9D5" offset="47.0960993%"></stop>
            <stop stop-color="#98A4B7" offset="100%"></stop>
        </linearGradient>
    </defs>
    <g id="页面-1" stroke="none" stroke-width="1" fill="none" fill-rule="evenodd">
        <g id="providers说明文档首页（1440*900）收起" transform="translate(-268.000000, -636.000000)" fill-rule="nonzero">
            <g id="编组-4" transform="translate(84.000000, 126.000000)">
                <g id="编组-6" transform="translate(184.000000, 32.000000)">
                    <g id="编组-2备份-3" transform="translate(0.000000, 476.000000)">
                        <g id="api备份-9" transform="translate(0.000000, 2.000000)">
                            <polygon id="多边形" fill="url(#linearGradient-1)" points="12 0 22.3923048 6 22.3923048 18 12 24 1.60769515 18 1.60769515 6"></polygon>
                            <g id="编组" transform="translate(6.000000, 6.000000)" fill="#FFFFFF">
                                <path d="M4.95939682,4.47618846 L5.49282597,5.01900273 C5.54051246,5.05705046 5.54051246,5.13339956 5.49282597,5.1808324 L4.51195553,6.16170285 L5.84540159,7.49514891 L6.81688693,6.51427847 C6.83954483,6.49138974 6.87041441,6.4785114 6.90262115,6.4785114 C6.93482789,6.4785114 6.96569747,6.49138974 6.98835537,6.51427847 L7.52178452,7.04770762 C7.56896371,7.08575535 7.56896371,7.16210446 7.52127722,7.2095373 L6.54040677,8.19040774 L7.17859401,8.81895622 C7.21664174,8.86664271 7.21664174,8.94273817 7.17859401,8.99042465 L5.67393316,10.4857004 C5.10245628,11.0665624 4.35012585,11.3524277 3.59779543,11.3524277 C3.40730313,11.3524277 3.2264496,11.3334038 3.04534241,11.2953561 C2.65497271,11.2286457 2.28337323,11.0762011 1.95007512,10.8476611 L0.826145216,11.9619523 C0.807121351,11.9906149 0.778458729,12 0.740411,12 C0.711748378,12 0.683339407,11.9903612 0.664315543,11.9619523 L0.0357670635,11.3427889 C0.012878336,11.320131 0,11.2892614 0,11.2570547 C0,11.2248479 0.012878336,11.1939784 0.0357670635,11.1713205 L1.15944332,10.0570293 C0.378450274,8.91407555 0.502232218,7.34270435 1.51176529,6.32378617 L3.00704103,4.82851043 C3.03570365,4.80948657 3.06411262,4.7904627 3.09277524,4.7904627 C3.12143787,4.7904627 3.15948559,4.80948657 3.17850946,4.82851043 L3.80705794,5.45705891 L4.78792839,4.47618846 C4.83561487,4.43814073 4.91171033,4.43814073 4.95939682,4.47618846 Z M11.2641591,0 C11.2928217,0 11.3212307,0.00963875795 11.3402546,0.0380477288 L11.9688031,0.657211101 C11.9916687,0.679865459 12.0046012,0.710704718 12.0046012,0.742892549 C12.0046012,0.77508038 11.9918553,0.805957624 11.9690567,0.828679532 L10.8453805,1.94297068 C11.6263735,3.09530956 11.5025916,4.65729565 10.4930585,5.67621383 L8.99778275,7.17148957 C8.96912013,7.19051343 8.94071115,7.2095373 8.91204853,7.2095373 C8.88338591,7.2095373 8.84533818,7.19989854 8.82631432,7.17148957 L6.30248164,4.64765689 L4.82622977,3.18104378 C4.78818204,3.13335729 4.78818204,3.05726183 4.82622977,3.00957535 L6.33089061,1.5142996 C6.56906939,1.27612082 6.83565715,1.08588218 7.12126877,0.952461477 C7.52127722,0.742945317 7.96871851,0.647572344 8.40702835,0.647572344 C8.9975291,0.647572344 9.56900598,0.828425881 10.0547487,1.15233888 L11.1784249,0.0380477288 C11.1974488,0.00938510643 11.2261114,0 11.2641591,0 Z" id="形状结合"></path>
                            </g>
                        </g>
                    </g>
                </g>
            </g>
        </g>
    </g>
</svg>