<?xml version="1.0" encoding="UTF-8"?>
<svg width="16px" height="16px" viewBox="0 0 16 16" version="1.1" xmlns="http://www.w3.org/2000/svg" xmlns:xlink="http://www.w3.org/1999/xlink">
    <title>资源自动发现小产品图标</title>
    <g id="迭代一：设计稿" stroke="none" stroke-width="1" fill="none" fill-rule="evenodd">
        <g id="资源自动发现" transform="translate(2.000000, 0.895138)">
            <path d="M6.37414436,0.0727847731 L11.9982887,3.31988604 C12.1529893,3.40920243 12.2482887,3.57426594 12.2482887,3.75289874 L12.2482887,10.2471013 C12.2482887,10.4257341 12.1529893,10.5907976 11.9982887,10.680114 L6.37414436,13.9272152 C6.21944383,14.0165316 6.0288449,14.0165316 5.87414436,13.9272152 L0.25,10.680114 C0.0952994616,10.5907976 1.04360964e-14,10.4257341 1.07691633e-14,10.2471013 L9.99200722e-15,3.75289874 C9.76996262e-15,3.57426594 0.0952994616,3.40920243 0.25,3.31988604 L5.87414436,0.0727847731 C6.0288449,-0.0165316244 6.21944383,-0.0165316244 6.37414436,0.0727847731 Z M6.12898099,1.98480048 L4.96288924,2.63213968 L4.96288924,3.9942153 L5.6602772,4.41073187 L5.67581001,5.4756355 L4.30719784,6.23653992 L4.30624839,7.79748518 L3.32177366,8.35432493 L2.63749539,7.98397522 L1.47140364,8.63131442 L1.47140364,9.99339005 L2.64362764,10.6938725 L3.81013133,10.0203913 L3.8093884,9.14089843 L4.72631315,8.62305868 L6.14569975,9.47143103 L7.4410376,8.72309937 L8.6058483,9.11061069 L8.60646074,9.9842502 L9.77868474,10.6847327 L10.9451884,10.0112515 L10.9451884,8.60880385 L9.77255248,7.97483537 L9.15279041,8.31794219 L7.97468547,7.92540459 L7.97522998,6.21556945 L6.60172841,5.47337321 L6.58593727,4.43402214 L7.30161693,4.02121656 L7.30161693,2.61876896 L6.12898099,1.98480048 Z" id="形状结合" fill="#FFFFFF"></path>
            <g id="编组-10" transform="translate(0.823442, 3.207519)">
                <g id="编组-6" transform="translate(4.872746, 4.942504) rotate(-30.000000) translate(-4.872746, -4.942504) translate(1.375406, 1.254582)">
                    <g id="编组-8备份" transform="translate(5.928154, 6.443277) rotate(-360.000000) translate(-5.928154, -6.443277) translate(4.861628, 5.510712)"></g>
                    <g id="编组-8备份-2" transform="translate(5.802042, 0.932566) rotate(-360.000000) translate(-5.802042, -0.932566) translate(4.735515, 0.000000)"></g>
                </g>
                <g id="编组-8" transform="translate(2.745995, 6.120491) rotate(-30.000000) translate(-2.745995, -6.120491) translate(1.679469, 5.187925)"></g>
                <g id="编组-8备份-3" transform="translate(5.501949, 4.545832) rotate(-30.000000) translate(-5.501949, -4.545832) translate(3.829222, 3.083207)"></g>
            </g>
        </g>
    </g>
</svg>