<?xml version="1.0" encoding="UTF-8"?>
<svg width="30px" height="22px" viewBox="0 0 30 22" version="1.1" xmlns="http://www.w3.org/2000/svg" xmlns:xlink="http://www.w3.org/1999/xlink">
    <!-- Generator: Sketch 61.2 (89653) - https://sketch.com -->
    <title>87828467-3336-4BDF-9ABF-5470586ED813</title>
    <desc>Created with Sketch.</desc>
    <g id="迭代五" stroke="none" stroke-width="1" fill="none" fill-rule="evenodd">
        <g id="Easyops5.0-C流水线/模板管理-#2" transform="translate(-152.000000, -296.000000)" stroke="#0071EB">
            <g id="代码项目" transform="translate(92.000000, 132.000000)">
                <g id="Card-1" transform="translate(24.000000, 124.000000)">
                    <g id="头像或者图标" transform="translate(24.000000, 24.000000)">
                        <g id="模版" transform="translate(12.000000, 16.000000)">
                            <rect id="矩形" fill="#D8EAFF" x="0.5" y="0.5" width="7" height="3" rx="1"></rect>
                            <path d="M1,0.5 C0.723857625,0.5 0.5,0.723857625 0.5,1 L0.5,13 C0.5,13.2761424 0.723857625,13.5 1,13.5 L7,13.5 C7.27614237,13.5 7.5,13.2761424 7.5,13 L7.5,1 C7.5,0.723857625 7.27614237,0.5 7,0.5 L1,0.5 Z" id="矩形备份-6" fill="#0071EB"></path>
                            <path d="M12,1 L12,21 L18,21 L18,1 L12,1 Z" id="矩形备份-7" stroke-width="2" fill="#FFFFFF"></path>
                            <path d="M23,0.5 C22.7238576,0.5 22.5,0.723857625 22.5,1 L22.5,18 C22.5,18.2761424 22.7238576,18.5 23,18.5 L29,18.5 C29.2761424,18.5 29.5,18.2761424 29.5,18 L29.5,1 C29.5,0.723857625 29.2761424,0.5 29,0.5 L23,0.5 Z" id="矩形备份-8" fill="#0071EB"></path>
                        </g>
                    </g>
                </g>
            </g>
        </g>
    </g>
</svg>