<?xml version="1.0" encoding="UTF-8"?>
<svg width="14px" height="14px" viewBox="0 0 14 14" version="1.1" xmlns="http://www.w3.org/2000/svg" xmlns:xlink="http://www.w3.org/1999/xlink">
    <title>小图标-动效层-高亮表格</title>
    <g id="0523" stroke="none" stroke-width="1" fill="none" fill-rule="evenodd">
        <g id="监控-告警事件大屏" transform="translate(-48.000000, -442.000000)" fill="#FD604F">
            <g id="Rank-Table" transform="translate(28.000000, 395.000000)">
                <g id="row-高亮2" transform="translate(0.000000, 30.000000)">
                    <g id="小图标-动效层-高亮表格" transform="translate(20.000000, 17.000000)">
                        <path d="M8.73787105,13.7825795 L8.49041559,12.8136803 C8.00784622,12.9369634 7.50850928,13 7,13 L6.8733958,12.9986951 L6.853,13.997 L7,14 C7.59990796,14 8.18219006,13.9245348 8.73787105,13.7825795 Z M2.27981309,12.1691838 C2.77173198,12.6186264 3.32802566,12.998787 3.93325328,13.294225 L4.3719444,12.3955871 C3.8559247,12.143698 3.37839509,11.8184059 2.95413451,11.4307457 L2.27981309,12.1691838 Z M12.8151948,10.8979043 L11.9851899,10.3401481 C11.6649612,10.8169904 11.2775396,11.2462546 10.8358884,11.6139034 L11.475858,12.3823036 C11.989722,11.9545115 12.4413591,11.4545202 12.8151948,10.8979043 Z M0.0367555341,7.72174241 C0.106442871,8.40209876 0.273568416,9.05359552 0.523948826,9.66204935 L1.44858509,9.28119779 C1.23135591,8.75322119 1.09048642,8.19517292 1.03155756,7.6199144 L0.0367555341,7.72174241 Z M14,7 C14,6.7094998 13.9823042,6.42313267 13.9479317,6.14191776 L12.9552926,6.26302833 C12.9850038,6.50603436 13,6.75196691 13,7 C13,7.31011916 12.9765567,7.61692197 12.9302383,7.91876798 L13.9185794,8.07102451 C13.9721905,7.72185011 14,7.36417268 14,7 Z M1.24307098,3.01670809 C0.865089523,3.56196245 0.562578837,4.16350114 0.350651422,4.80621167 L1.30019808,5.11983793 C1.48007223,4.57418188 1.7378698,4.05824672 2.06474374,3.58666772 L1.24307098,3.01670809 Z M12.9392128,3.29339953 C12.5833279,2.72435641 12.1479338,2.21013514 11.6485884,1.76629356 L10.9835896,2.5131386 C11.4131822,2.89486948 11.7865341,3.33632232 12.0910964,3.82320987 L12.9392128,3.29339953 Z M5.32950196,0.200567411 C4.66999636,0.362042892 4.04716906,0.61696748 3.47585338,0.950507861 L3.97966049,1.81432416 C4.47447066,1.52540091 5.00841877,1.30872093 5.56731456,1.17187847 L5.32950196,0.200567411 Z M7,0 L7,1 C7.58169629,1 8.15127794,1.08249386 8.6971797,1.24313211 L8.98009509,0.283987057 C8.35223924,0.0991691763 7.68770072,0 7,0 Z" id="椭圆形" fill-rule="nonzero"></path>
                        <path d="M7,10 C8.65685425,10 10,8.65685425 10,7 C10,5.34314575 8.65685425,4 7,4 C5.34314575,4 4,5.34314575 4,7 C4,8.65685425 5.34314575,10 7,10 Z" id="椭圆形备份"></path>
                    </g>
                </g>
            </g>
        </g>
    </g>
</svg>