<?xml version="1.0" encoding="UTF-8"?>
<svg width="16px" height="15px" viewBox="0 0 16 15" version="1.1" xmlns="http://www.w3.org/2000/svg" xmlns:xlink="http://www.w3.org/1999/xlink">
    <!-- Generator: Sketch 60 (88103) - https://sketch.com -->
    <title>设置</title>
    <desc>Created with Sketch.</desc>
    <g id="页面2" stroke="none" stroke-width="1" fill="none" fill-rule="evenodd">
        <path d="M10.2249321,14.9181306 L10.2248325,14.9181306 C9.95467531,14.9181306 9.69197219,14.8063523 9.52238723,14.6191697 C9.29127687,14.3657634 8.55898195,13.7068308 7.95959914,13.7068308 C7.36431691,13.7068308 6.62068312,14.3695818 6.40710402,14.6016882 C6.2379009,14.7856999 5.97705715,14.8955359 5.70950637,14.8955359 C5.58198976,14.8955359 5.46176125,14.8711316 5.35190871,14.8228542 L5.3326509,14.8145037 L3.51071242,13.7955994 L3.49258351,13.7829656 C3.1609507,13.5507595 3.03471242,13.0966072 3.19906789,12.7265417 C3.20034621,12.7237693 3.36712551,12.3388787 3.36712551,11.9879382 C3.36712551,10.9230144 2.50068996,10.0565622 1.43578273,10.0565622 L1.37120265,10.0565622 C1.36721828,10.0567117 1.36325051,10.0567947 1.35951515,10.0567947 C1.05441164,10.0567947 0.806068866,9.78580736 0.726613788,9.36638549 C0.720321795,9.33275072 0.571223163,8.53733666 0.571223163,7.91062768 C0.571223163,7.28386889 0.720271991,6.48837182 0.726613788,6.45475365 C0.80696535,6.03005248 1.06072023,5.757239 1.37121926,5.76454369 L1.43579933,5.76454369 C2.50072316,5.76454369 3.36714211,4.89810815 3.36714211,3.83325072 C3.36714211,3.4824265 3.20044582,3.09761889 3.19866945,3.09375072 C3.0344966,2.72410033 3.16156496,2.26999779 3.49470851,2.03855541 L3.51358449,2.02547338 L5.43637746,0.969265372 L5.45639894,0.960765372 C5.56470754,0.914613028 5.6832593,0.891204825 5.80888332,0.891204825 C6.07593605,0.891204825 6.33721144,0.998666739 6.50804152,1.17867748 C6.73563234,1.4169099 7.45492824,2.03666283 8.03717824,2.03666283 C8.61398293,2.03666283 9.32894582,1.42921166 9.55573976,1.19509643 C9.72562355,1.01878783 9.98505617,0.913152091 10.2493862,0.913152091 C10.3775503,0.913152091 10.4983433,0.937390372 10.6084448,0.985202872 L10.6278687,0.993702872 L12.4850191,2.02545678 L12.5033472,2.03830639 C12.8356607,2.27014721 12.9621978,2.72434936 12.7977095,3.0945808 C12.7965142,3.09740307 12.6296353,3.48231029 12.6296353,3.83323412 C12.6296353,4.89810815 13.4960708,5.76452709 14.5609614,5.76452709 L14.6256411,5.76452709 C14.9356421,5.75762084 15.1897622,6.02998608 15.270147,6.45473705 C15.2764556,6.48833861 15.4255376,7.28375268 15.4255376,7.91049486 C15.4255376,8.53728686 15.2764556,9.33275072 15.2700308,9.36635229 C15.189729,9.79108666 14.9356089,10.0628708 14.6254917,10.056529 L14.5609614,10.056529 C13.4960708,10.056529 12.6296353,10.9229812 12.6296353,11.987905 C12.6296353,12.3386628 12.7963482,12.7234206 12.7980581,12.727239 C12.9621148,13.09674 12.8352954,13.5509089 12.5027827,13.7825505 L12.4842056,13.7955994 L10.5956616,14.8393894 L10.576022,14.8479226 C10.4679292,14.8944568 10.3498921,14.9181306 10.2249321,14.9181306 Z M10.1675737,14.0283865 C10.1759741,14.0338982 10.1998804,14.0432615 10.2249321,14.0432615 C10.2259614,14.0432615 10.2268911,14.0432615 10.2277544,14.0432615 L11.9921685,13.0680193 C11.9495689,12.9691238 11.7548491,12.4888738 11.7548491,11.9880876 C11.7548491,10.4900955 12.9346392,9.26247631 14.4138716,9.18571068 C14.4351216,9.06813842 14.5507017,8.40679858 14.5507017,7.91069408 C14.5507017,7.41458959 14.4351216,6.75356518 14.4138716,6.63564428 C12.9346724,6.55882885 11.7548491,5.33120971 11.7548491,3.83330053 C11.7548491,3.33171752 11.9501665,2.85090307 11.9923843,2.75270483 L10.2566079,1.78833666 C10.2546157,1.78825365 10.2521587,1.78807104 10.2493198,1.78807104 C10.2197691,1.78807104 10.1921607,1.79886205 10.18298,1.80505443 C10.1537945,1.83500365 9.90224758,2.09015307 9.54079836,2.34437279 C9.0057964,2.72073022 8.49993019,2.91159838 8.03711183,2.91159838 C7.56991066,2.91159838 7.05994387,2.71696166 6.52152199,2.33319994 C6.15784816,2.07406615 5.90507277,1.81400268 5.87588723,1.78350561 C5.86664015,1.77724682 5.83861672,1.76614037 5.80881691,1.76614037 C5.80649269,1.76614037 5.8044507,1.76614037 5.80264113,1.76632299 L4.00470851,2.75381713 C4.04787258,2.85397436 4.24182863,3.33336108 4.24182863,3.83333373 C4.24182863,5.33122631 3.0620718,6.55884545 1.58282277,6.63567748 C1.56157277,6.75331615 1.4460093,7.41455639 1.4460093,7.91071068 C1.4460093,8.40676537 1.56155617,9.06775658 1.58293898,9.18562768 C3.06203859,9.26249291 4.24184523,10.4900456 4.24184523,11.987988 C4.24184523,12.4906501 4.04574758,12.9722283 4.00397805,13.0691482 L5.7056714,14.0206833 C5.7067339,14.0208328 5.70804543,14.0208328 5.70948976,14.0208328 C5.7343091,14.0208328 5.75786672,14.0117019 5.76631691,14.0062732 C5.79812551,13.972157 6.05224562,13.7030955 6.41837648,13.4347644 C6.96400344,13.0348328 7.48253664,12.8321277 7.95959914,12.8321277 C8.44111086,12.8321277 8.96361183,13.0387009 9.51242629,13.4462859 C9.88064894,13.7196472 10.1358814,13.9936892 10.1675737,14.0283865 L10.1675737,14.0283865 Z M7.96579152,10.4729294 C6.54761965,10.4729294 5.39382765,9.31910424 5.39382765,7.90088256 C5.39382765,6.48271068 6.54763625,5.32890209 7.96579152,5.32890209 C9.3840298,5.32890209 10.5379048,6.48271068 10.5379048,7.90088256 C10.5379048,9.31910424 9.3840298,10.4729294 7.96579152,10.4729294 Z M7.96579152,6.20373803 C7.02999465,6.20373803 6.2687134,6.96505248 6.2687134,7.90084936 C6.2687134,8.83671264 7.03001125,9.59804369 7.96579152,9.59804369 C8.9016714,9.59804369 9.66310207,8.83671264 9.66310207,7.90086596 C9.66310207,6.96505248 8.90170461,6.20373803 7.96579152,6.20373803 L7.96579152,6.20373803 Z" id="形状" fill="#595959" fill-rule="nonzero"></path>
    </g>
</svg>