<?xml version="1.0" encoding="UTF-8"?>
<svg width="20px" height="20px" viewBox="0 0 20 20" version="1.1" xmlns="http://www.w3.org/2000/svg" xmlns:xlink="http://www.w3.org/1999/xlink">
    <title>联系客服</title>
    <g id="页面-1" stroke="none" stroke-width="1" fill="none" fill-rule="evenodd">
        <g id="申请试用easyops-air" transform="translate(-1891.000000, -894.000000)" fill-rule="nonzero">
            <g id="联系客服" transform="translate(1891.000000, 894.000000)">
                <rect id="矩形" fill="#000000" opacity="0" x="8.52651283e-15" y="0.0187317073" width="19.1812683" height="19.1812683"></rect>
                <path d="M12.8876785,17.538023 C12.8489163,18.0691044 12.4868699,18.5254587 11.9693753,18.6952929 L10.3597472,19.1628363 C9.69319809,19.3234794 9.01905644,18.9262673 8.85441723,18.2757026 C8.84851857,18.2518564 8.84318892,18.227873 8.83843282,18.2037729 C8.64542131,17.5140464 9.02505059,16.7951485 9.71277898,16.5481897 L11.3224071,16.0814455 C11.747132,15.959568 12.2043501,16.0854418 12.5068504,16.407527 C13.7476872,15.8543981 14.7707843,14.9064668 15.4168086,13.71136 L15.0072086,13.71136 C13.7136719,13.6422275 12.7206416,12.5660785 12.7853784,11.3037112 L12.7853784,8.89366478 C12.7214408,7.63169716 13.7140715,6.55594771 15.0072086,6.48681521 L15.5622666,6.48681521 C15.6417889,6.48681521 15.7213113,6.49121093 15.8000344,6.50040196 C14.9033101,3.15486907 11.3967345,1.15242459 7.9684824,2.02756996 C5.72427401,2.60021073 3.97158562,4.31054049 3.38455888,6.50040196 C3.46335213,6.49128471 3.54260812,6.48674816 3.62192707,6.48681521 L4.17738463,6.48681521 C5.46932298,6.55714654 6.46075478,7.63249639 6.39681723,8.89366478 L6.39681723,11.3005143 C6.4611544,12.5628816 5.46852377,13.6390306 4.17498697,13.7081631 L3.61952942,13.7081631 C2.32799069,13.6378318 1.33655889,12.5636808 1.39969721,11.302912 L1.39969721,8.89366478 C1.39969721,8.83132566 1.39969721,8.76898654 1.40609098,8.70744664 C1.40196921,8.66948798 1.39983504,8.63133977 1.39969721,8.59315824 C1.39969721,3.84979043 5.07450853,0.0183321038 9.5912976,0.0183321038 C14.1084863,0.0183321038 17.7834434,3.84979045 17.7834434,8.59315824 C17.7834434,8.63112117 17.7809,8.66948371 17.7765042,8.70744664 C17.7765042,8.76898654 17.7834434,8.83132566 17.7834434,8.89366478 L17.7834434,11.3005143 C17.7915233,12.0588546 17.4512531,12.7790194 16.8601991,13.2542064 C16.1896539,15.1499551 14.7546553,16.6964449 12.8876785,17.5356254 L12.8876785,17.538023 Z" id="路径" fill="#FFFFFF"></path>
            </g>
        </g>
    </g>
</svg>