<?xml version="1.0" encoding="UTF-8"?>
<svg width="18px" height="18px" viewBox="0 0 18 18" version="1.1" xmlns="http://www.w3.org/2000/svg" xmlns:xlink="http://www.w3.org/1999/xlink">
    <title>E9C5B4FB-FFCF-4D64-AB0B-FDE7B028B49A</title>
    <g id="页面-1" stroke="none" stroke-width="1" fill="none" fill-rule="evenodd">
        <g id="数据库" fill-rule="nonzero">
            <rect id="矩形" fill="#000000" opacity="0" x="0" y="0" width="18" height="18"></rect>
            <path d="M9.18750001,1.6875 L9.3375,1.68825001 C9.87523469,1.69242872 10.4124167,1.72371845 10.947,1.782 L11.20275,1.81200001 L11.4735,1.8495 L11.739375,1.89187501 L11.8725,1.91512499 L12.13425,1.96500001 C14.335125,2.41012501 15.877125,3.36225001 15.935625,4.613625 L15.9375,4.6875 L15.9375,12.5625 C15.9375,13.85025 14.37825,14.83125 12.13425,15.285 L11.8725,15.334875 L11.739375,15.358125 L11.4735,15.400125 L11.20275,15.437625 C10.56525,15.519375 9.88837501,15.5625 9.18750001,15.5625 C8.48662501,15.5625 7.80975,15.519375 7.17224999,15.437625 L6.90150001,15.400125 L6.63562499,15.358125 C4.22587499,14.9505 2.50012499,13.960875 2.43937499,12.63525 L2.43750001,12.5625 L2.43750001,4.6875 L2.43937499,4.613625 C2.49787499,3.36225001 4.039875,2.41012499 6.24074999,1.96500001 L6.5025,1.91512499 L6.63562499,1.89187501 L6.90150001,1.84987499 L7.17224999,1.812375 C7.74170673,1.74024606 8.31469392,1.69943465 8.888625,1.69012499 L9.18750001,1.6875 Z M11.739375,11.233125 L11.4735,11.275125 L11.20275,11.312625 C10.56525,11.394375 9.88837501,11.4375 9.18750001,11.4375 C8.48662501,11.4375 7.80975,11.394375 7.17224999,11.312625 L6.90150001,11.275125 L6.63562499,11.233125 C5.37899999,11.0205 4.30799999,10.649625 3.56250001,10.155375 L3.56250001,12.5625 C3.56250001,12.93075 3.98737501,13.314375 4.70624999,13.638 L4.87762501,13.7115 C5.14200001,13.82025 5.44012501,13.921125 5.76712499,14.01075 L5.9895,14.068875 C6.215625,14.125125 6.45449999,14.176875 6.70312499,14.221875 L6.955875,14.265 L7.21499999,14.303625 C7.390125,14.328 7.56937499,14.349375 7.752375,14.367375 L8.02949999,14.392125 L8.31187499,14.411625 L8.5995,14.425875 C8.99134666,14.4413808 9.38365333,14.4413808 9.77549999,14.425875 L10.063125,14.411625 L10.3455,14.392125 L10.623,14.367375 C10.805625,14.349375 10.984875,14.328 11.16,14.303625 L11.419125,14.265 L11.671875,14.221875 C11.920875,14.176875 12.159375,14.1255 12.3855,14.068875 L12.607875,14.01075 C12.934875,13.92075 13.233,13.82025 13.497375,13.7115 L13.66875,13.638 C14.359875,13.32675 14.7795,12.960375 14.810625,12.604875 L14.8125,12.5625 L14.8125,10.155 C14.067375,10.649625 12.996375,11.0205 11.739375,11.233125 L11.739375,11.233125 Z M14.8125,6.40499999 C14.104125,6.874875 13.1025,7.23299999 11.926125,7.45012499 L11.738625,7.48312501 L11.473125,7.525125 L11.202375,7.56262499 C10.564875,7.644375 9.88800001,7.68749999 9.18712499,7.68749999 C8.58637499,7.68749999 8.00325,7.65599999 7.44712501,7.59524999 L7.171875,7.56262499 L6.90112499,7.525125 L6.63525,7.48312501 C5.378625,7.27050001 4.307625,6.899625 3.56212499,6.40537501 L3.56212499,8.4375 C3.56212499,8.80574999 3.987,9.18937499 4.705875,9.513 L4.87724999,9.58649999 C5.14162499,9.69525 5.43974999,9.79612499 5.76675,9.88574999 L5.98912501,9.943875 C6.21525001,10.000125 6.454125,10.051875 6.70275,10.096875 L6.95550001,10.14 L7.214625,10.178625 C7.38975001,10.203 7.569,10.224375 7.75200001,10.242375 L8.029125,10.267125 L8.3115,10.286625 L8.59912501,10.300875 C8.99097167,10.3163808 9.38327834,10.3163808 9.775125,10.300875 L10.06275,10.286625 L10.345125,10.267125 L10.622625,10.242375 C10.80525,10.224375 10.9845,10.203 11.159625,10.178625 L11.41875,10.14 L11.6715,10.096875 C11.9205,10.051875 12.159,10.0005 12.385125,9.943875 L12.6075,9.88574999 C12.9345,9.79574999 13.232625,9.69525 13.497,9.58649999 L13.668375,9.513 C14.3595,9.20174999 14.779125,8.83537501 14.81025,8.47987501 L14.812125,8.4375 L14.812125,6.40499999 L14.8125,6.40499999 Z M9.18750001,2.8125 L9.03900001,2.81325001 L8.81775,2.817 L8.5995,2.82412499 L8.31187499,2.838375 L8.02949999,2.85787499 L7.75200001,2.88262499 C7.63012501,2.894625 7.51012501,2.908125 7.39162499,2.92312499 L7.21537501,2.946375 L6.955875,2.98499999 L6.70312499,3.02812501 C6.51637499,3.06187501 6.33562499,3.099375 6.16125001,3.13950001 L5.9895,3.18074999 L5.76712499,3.23924999 C5.49487499,3.31425 5.24212499,3.39674999 5.01262501,3.48487501 L4.87762501,3.53849999 L4.70624999,3.61200001 C3.98737499,3.93562501 3.56250001,4.31925001 3.56250001,4.68750001 C3.56250001,5.04 3.95137501,5.40600001 4.61437501,5.720625 L4.70624999,5.76300001 L4.87762501,5.8365 C5.09775001,5.92725001 5.3415,6.01237499 5.60624999,6.08999999 L5.76750001,6.13575 L5.9895,6.19387501 C6.15900001,6.23625001 6.33562501,6.27562501 6.51825,6.31200001 L6.70312499,6.34687501 L6.955875,6.39 L7.21499999,6.42862499 C7.331625,6.445125 7.45012499,6.45975 7.57049999,6.47362499 L7.752375,6.492375 L8.02949999,6.517125 L8.31187499,6.53662499 L8.5995,6.550875 C8.92671551,6.56381301 9.25426911,6.56593917 9.581625,6.55725001 L9.77549999,6.550875 L10.063125,6.53662499 L10.3455,6.517125 L10.623,6.492375 C10.744875,6.48037499 10.864875,6.46687499 10.983375,6.451875 L11.159625,6.42862499 L11.419125,6.39 L11.671875,6.34687501 C11.858625,6.31312501 12.039375,6.27562501 12.21375,6.23550001 L12.3855,6.19425 L12.607875,6.13575 C12.880125,6.06074999 13.132875,5.97825 13.362375,5.89012501 L13.497375,5.8365 L13.66875,5.76300001 C14.387625,5.439375 14.8125,5.05575 14.8125,4.68750001 C14.8125,4.33500001 14.423625,3.969 13.760625,3.65437499 L13.66875,3.61200001 L13.497375,3.53849999 C13.2590338,3.44149218 13.0158338,3.35687911 12.76875,3.285 L12.6075,3.23924999 L12.3855,3.18112501 C12.21025,3.13740018 12.0339462,3.09801315 11.85675,3.06300001 L11.671875,3.02812501 L11.419125,2.98499999 L11.16,2.946375 C11.0417049,2.92979878 10.9231944,2.91479745 10.8045,2.901375 L10.622625,2.88262499 L10.3455,2.85787499 L10.063125,2.838375 L9.77549999,2.82412499 C9.646875,2.81887499 9.51674999,2.81549999 9.38550001,2.813625 L9.18750001,2.8125 Z" id="形状" fill="#FFFFFF"></path>
        </g>
    </g>
</svg>