<?xml version="1.0" encoding="UTF-8"?>
<svg width="16px" height="16px" viewBox="0 0 16 16" version="1.1" xmlns="http://www.w3.org/2000/svg" xmlns:xlink="http://www.w3.org/1999/xlink">
    <!-- Generator: Sketch 59.1 (86144) - https://sketch.com -->
    <title>42C71D98-92F2-4BC3-8D15-1E0FB7EF480D</title>
    <desc>Created with Sketch.</desc>
    <g id="迭代二" stroke="none" stroke-width="1" fill="none" fill-rule="evenodd">
        <g id="Easyops-5.0-IDC视图/机柜视图备份-3" transform="translate(-1289.000000, -410.000000)" fill="#8C8C8C">
            <g id="icon/more/delete备份" transform="translate(1289.000000, 410.000000)">
                <g id="delete">
                    <g id="Shape">
                        <path d="M2.03854439,15.3699788 C2.0054083,15.3422011 1.97168049,15.30609 1.93854439,15.2699788 C1.97523077,15.30609 2.0054083,15.3422011 2.03854439,15.3699788 Z M1.87069771,15.2750353 C1.83647549,15.2428674 1.80269771,15.2106996 1.77069771,15.1750353 C1.80225325,15.2106996 1.83647549,15.2428674 1.87069771,15.2750353 Z M15.4039171,2.40342882 C15.2859158,2.28542752 15.1143392,2.21964517 14.9478489,2.21964517 L11.746894,2.21964517 L11.746894,1.22239854 C11.746894,0.547960069 11.1989339,0 10.5244955,0 L5.06049262,0 C4.38605415,0 3.83809408,0.547960069 3.83809408,1.22239854 L3.83809408,2.21964517 L0.620863177,2.21964519 C0.279405382,2.21964519 0,2.49701608 0,2.84050837 C0,3.18400066 0.277370885,3.46137155 0.620863177,3.46137155 L1.16882325,3.46137155 L1.16882325,14.2662896 C1.16882325,14.9407281 1.71678332,15.4886882 2.39122179,15.4886882 L13.3680556,15.4886882 C14.042494,15.4886882 14.5904541,14.9407281 14.5904541,14.2662896 L14.5904541,3.46137153 L14.9475098,3.46137153 C15.2889676,3.46137153 15.5856676,3.18400064 15.5856676,2.84050835 C15.5860053,2.67571344 15.5219184,2.52143012 15.4039171,2.40342882 Z M5.05845813,1.22612847 L10.5190701,1.22612847 L10.5190701,2.23015679 L5.05845813,2.23015679 L5.05845813,1.22612847 Z M13.3663601,14.2645942 L2.39122179,14.2645942 L2.39122179,3.46137153 L3.9727105,3.46137153 L13.3660211,3.46137153 L13.3660211,14.2645942 L13.3663601,14.2645942 Z M7.78435601,5.54199219 C7.43916828,5.54199219 7.160102,5.82105849 7.160102,6.1662462 L7.160102,11.9581434 C7.160102,12.3033312 7.4391683,12.5823974 7.78435601,12.5823974 C8.12954372,12.5823974 8.40861003,12.3033311 8.40861003,11.9581434 L8.40861003,6.1662462 C8.40861003,5.82139757 8.12954373,5.54199219 7.78435601,5.54199219 Z M4.40300835,5.54199219 C4.05782062,5.54199219 3.77875434,5.82105849 3.77875434,6.1662462 L3.77875434,11.9581434 C3.77875434,12.3033312 4.05782064,12.5823974 4.40300835,12.5823974 C4.74819606,12.5823974 5.02726238,12.3033311 5.02726238,11.9581434 L5.02726238,6.1662462 C5.02726238,5.82139757 4.747857,5.54199219 4.40300835,5.54199219 Z M11.1311171,5.54199219 C10.7859294,5.54199219 10.5068631,5.82105849 10.5068631,6.1662462 L10.5068631,11.9581434 C10.5068631,12.3033312 10.7859294,12.5823974 11.1311171,12.5823974 C11.4763048,12.5823974 11.7553711,12.3033311 11.7553711,11.9581434 L11.7553711,6.1662462 C11.7553711,5.82139757 11.4763048,5.54199219 11.1311171,5.54199219 Z"></path>
                    </g>
                </g>
            </g>
        </g>
    </g>
</svg>