<?xml version="1.0" encoding="UTF-8"?>
<svg width="16px" height="16px" viewBox="0 0 16 16" version="1.1" xmlns="http://www.w3.org/2000/svg" xmlns:xlink="http://www.w3.org/1999/xlink">
    <title>DE89BBB9-5BFB-4E4C-AE9D-5D1D34B763B3</title>
    <g id="页面-1" stroke="none" stroke-width="1" fill="none" fill-rule="evenodd">
        <g id="运维" fill-rule="nonzero">
            <rect id="矩形" fill="#000000" opacity="0" x="0" y="0" width="16" height="16"></rect>
            <path d="M2.47507813,8.48960938 C2.50605274,8.49551626 2.53751407,8.49851562 2.56904688,8.49851562 C2.80440625,8.49851562 3.01409375,8.33154688 3.05967188,8.09182812 C3.21870313,7.25567187 3.58904688,6.4633125 4.13073438,5.80039063 C4.56173438,5.27289063 5.09542188,4.83378125 5.69260938,4.51204688 C5.71040395,4.55635599 5.72932678,4.6002036 5.74935938,4.64354688 C6.05696875,5.3083125 6.6050625,5.8135 7.29264063,6.06604688 C7.60096875,6.1793125 7.92070313,6.23567187 8.23967188,6.23565625 C8.63198438,6.23565625 9.02310938,6.15034375 9.38976563,5.98065625 C10.0545469,5.67304687 10.5597344,5.12496875 10.8122969,4.437375 C11.0648438,3.74979688 11.0345156,3.00503125 10.7269063,2.34023438 C10.091875,0.9679375 8.45878125,0.368125 7.08648438,1.003125 C6.42170313,1.31075 5.91651563,1.85882812 5.66396875,2.54640625 C5.5509375,2.854125 5.49475,3.17328125 5.49453125,3.49160937 C4.67059375,3.88342187 3.935625,4.45873437 3.35635938,5.16767187 C2.709625,5.9591875 2.2673125,6.90575 2.07729688,7.90501562 C2.02570313,8.17629687 2.20379688,8.43803125 2.47507813,8.489625 L2.47507813,8.48960938 Z M6.60264063,2.89117187 C6.76310937,2.45432812 7.08407813,2.10610937 7.5064375,1.91067188 C7.74260938,1.801375 7.99089063,1.74967187 8.2355,1.74967187 C8.89385938,1.74967187 9.5251875,2.12448437 9.81934375,2.7601875 C10.0147969,3.1825625 10.0340625,3.65575 9.87360938,4.09260937 C9.71314063,4.52945312 9.3921875,4.87767187 8.9698125,5.073125 C8.54746875,5.26854687 8.07425,5.28784375 7.63742188,5.127375 C7.2005625,4.96690625 6.85234375,4.64595312 6.65690625,4.22359375 C6.46146875,3.80123437 6.4421875,3.32803125 6.60264063,2.89117187 Z M9.543625,14.0472969 C9.07635937,14.1824531 8.5901875,14.2509688 8.09851562,14.2509688 L8.09703125,14.2509688 C7.16946875,14.2507031 6.27025,14.0064063 5.47839062,13.5420625 C5.99773437,12.7721719 6.11457812,11.7568594 5.6971875,10.8541719 C5.38976562,10.1893281 4.84182812,9.68396875 4.1543125,9.43123437 C3.4668125,9.17848438 2.722,9.20857812 2.05714062,9.51603125 C1.39229687,9.82345313 0.8869375,10.3714062 0.6341875,11.0589062 C0.381453125,11.7464062 0.4115625,12.4912031 0.719,13.1560625 C1.181875,14.157125 2.175625,14.747375 3.21225,14.7473125 C3.59689062,14.7472656 3.98760937,14.6659688 4.35904687,14.4942188 C4.49663149,14.4305828 4.62871715,14.3556764 4.75395312,14.2702656 C5.75067187,14.91175 6.90426562,15.250625 8.09676562,15.2509688 L8.09851562,15.2509688 C8.6841875,15.2509688 9.26389062,15.1691875 9.82145312,15.0079375 C10.0867344,14.9312188 10.2395781,14.6539688 10.1628594,14.3887031 C10.0861406,14.1234375 9.80889063,13.970625 9.543625,14.0472969 L9.543625,14.0472969 Z M3.93934375,13.5865625 C3.06732813,13.9897969 2.029875,13.6083906 1.62665625,12.7363594 C1.43134375,12.3139531 1.41220313,11.8407656 1.57278125,11.4039531 C1.73335938,10.9671406 2.05442188,10.6190156 2.47684375,10.4236875 C2.70971875,10.3160312 2.958,10.2618906 3.207125,10.2618906 C3.40990625,10.2618906 3.61326563,10.2977656 3.80926563,10.3698125 C4.24607813,10.5303906 4.59420313,10.8514531 4.78953125,11.273875 C5.19273438,12.145875 4.81134375,13.1833437 3.93934375,13.5865625 L3.93934375,13.5865625 Z M15.2425156,10.5902344 C15.0260781,10.1224844 14.6936094,9.74457813 14.2950938,9.474625 C14.3145625,9.28160937 14.3257188,9.04634375 14.3257188,8.82629687 C14.3257188,7.99879687 14.164,7.19546875 13.8450938,6.43860937 C13.5371875,5.70789062 13.09625,5.05079687 12.5345156,4.48557812 C12.3398594,4.28973437 12.0232813,4.28875 11.8274219,4.48339062 C11.6315469,4.6780625 11.6305781,4.99464062 11.8252344,5.1905 C12.7928281,6.16409375 13.3257031,7.45532812 13.3257031,8.82628125 C13.3257031,8.9035 13.324125,8.98253125 13.3211563,9.06 C12.7614688,8.940875 12.1602188,8.99485937 11.6021094,9.253125 C10.9373281,9.56073437 10.4321406,10.1088125 10.1795938,10.7964062 C9.92704688,11.4839844 9.95735938,12.22875 10.2649844,12.8935469 C10.5725938,13.5583125 11.1206875,14.0635 11.8082656,14.3160469 C12.1165937,14.4293125 12.4363281,14.4856563 12.7552969,14.4856563 C13.1476094,14.4856563 13.5387344,14.4003437 13.9053906,14.2306562 C14.5701719,13.9230469 15.0753594,13.3749687 15.3279219,12.687375 C15.5804688,11.9997969 15.5501406,11.2550312 15.2425156,10.5902344 L15.2425156,10.5902344 Z M14.3892344,12.3426094 C14.2287656,12.7794531 13.9078125,13.1276719 13.4854375,13.323125 C13.0630938,13.5185469 12.589875,13.5378438 12.1530469,13.377375 C11.7161719,13.2169063 11.3679687,12.8959531 11.1725312,12.4735938 C10.9770937,12.0512344 10.9578125,11.5780313 11.1182656,11.1411719 C11.2787344,10.7043281 11.5997031,10.3561094 12.0220625,10.1606719 C12.2582344,10.051375 12.5065156,9.99967188 12.751125,9.99967188 C13.4094844,9.99967188 14.0408125,10.3744844 14.3349688,11.0101875 C14.5304219,11.4325625 14.5496875,11.90575 14.3892344,12.3426094 L14.3892344,12.3426094 Z" id="形状" fill="#FFFFFF"></path>
        </g>
    </g>
</svg>