<?xml version="1.0" encoding="UTF-8"?>
<svg width="14px" height="14px" viewBox="0 0 14 14" version="1.1" xmlns="http://www.w3.org/2000/svg" xmlns:xlink="http://www.w3.org/1999/xlink">
    <!-- Generator: Sketch 63.1 (92452) - https://sketch.com -->
    <title>B1DDE677-DEB9-4300-A6D9-19D40B73E432</title>
    <desc>Created with Sketch.</desc>
    <g id="页面-1" stroke="none" stroke-width="1" fill="none" fill-rule="evenodd">
        <g id="编辑" fill="#8C8C8C">
            <path d="M13.4375,12.8746135 L0.5625,12.8746135 C0.2515625,12.8746135 2.7533531e-14,13.126176 2.7533531e-14,13.4371135 C2.7533531e-14,13.748051 0.2515625,13.9996135 0.5625,13.9996135 L13.4375,13.9996135 C13.7484375,13.9996135 14,13.748051 14,13.4371135 C14,13.126176 13.7484375,12.8746135 13.4375,12.8746135 Z M3.625,11.0308635 L7.3046875,9.47305105 C7.3640625,9.44805105 7.4171875,9.41211355 7.4640625,9.36680105 L13.6703125,3.16055105 C14.109375,2.72148855 14.1125,2.00586355 13.6734375,1.56680105 L12.434375,0.327738545 C11.9953125,-0.111323955 11.2796875,-0.108198955 10.840625,0.330863545 L4.634375,6.53711355 C4.5890625,6.58242605 4.553125,6.63711355 4.528125,6.69648855 L2.96875,10.3746135 C2.88125,10.5808635 2.9421875,10.788676 3.075,10.923051 C3.2078125,11.057426 3.4171875,11.1183635 3.625,11.0308635 Z M11.6359375,1.12617605 L11.6390625,1.12305105 L12.8765625,2.36055105 L12.8734375,2.36367605 L11.9046875,3.33242605 L10.6671875,2.09492605 L11.6359375,1.12617605 Z M5.515625,7.24648855 L9.871875,2.89023855 L11.109375,4.12773855 L6.753125,8.48398855 L4.60625,9.39336355 L5.515625,7.24648855 Z" id="Shape备份"></path>
        </g>
    </g>
</svg>