<?xml version="1.0" encoding="UTF-8"?>
<svg width="22px" height="22px" viewBox="0 0 22 22" version="1.1" xmlns="http://www.w3.org/2000/svg" xmlns:xlink="http://www.w3.org/1999/xlink">
    <title>应急预案A</title>
    <g id="应急预案A" stroke="none" stroke-width="1" fill="none" fill-rule="evenodd">
        <g id="编组" transform="translate(2.000000, 2.000000)">
            <path d="M3.11959462,0 L3.11959462,2.52 C3.11959462,2.85413227 3.39046235,3.125 3.72459462,3.125 L11.2645946,3.125 C11.5987269,3.125 11.8695946,2.85413227 11.8695946,2.52 L11.8695946,0 L13.79,0 C14.4582645,-1.22758206e-16 15,0.541735453 15,1.21 L15.0003198,8.90760418 C14.6006986,8.80472044 14.1817396,8.75 13.75,8.75 C10.9885763,8.75 8.75,10.9885763 8.75,13.75 C8.75,15.2442873 9.40550199,16.585474 10.4446419,17.5016959 L1.21,17.5 C0.541735453,17.5 8.18388039e-17,16.9582645 0,16.29 L0,1.21 C-8.18388039e-17,0.541735453 0.541735453,1.01093663e-15 1.21,0 L3.11959462,0 Z M7.11959462,11.3878743 L3.11959462,11.3878743 L3.11959462,12.6378743 L7.11959462,12.6378743 L7.11959462,11.3878743 Z M8.11959462,8.63787431 L3.11959462,8.63787431 L3.11959462,9.88787431 L8.11959462,9.88787431 L8.11959462,8.63787431 Z M11.8695946,5.88787431 L3.11959462,5.88787431 L3.11959462,7.13787431 L11.8695946,7.13787431 L11.8695946,5.88787431 Z M10.6195946,0 L10.6195946,1.875 L4.36959462,1.875 L4.36959462,0 L10.6195946,0 Z" id="形状结合" fill="#9FAECF"></path>
            <path d="M13.2695946,8.38787431 C16.0310184,8.38787431 18.2695946,10.6264506 18.2695946,13.3878743 C18.2695946,16.1492981 16.0310184,18.3878743 13.2695946,18.3878743 C10.5081709,18.3878743 8.26959462,16.1492981 8.26959462,13.3878743 C8.26959462,10.6264506 10.5081709,8.38787431 13.2695946,8.38787431 Z M13.8921937,10.6130807 C13.912222,10.4081688 13.6735919,10.3047065 13.5609937,10.4694948 L11.3069526,13.7663349 C11.2152376,13.9005274 11.3029225,14.09202 11.4555774,14.0910807 L12.8441263,14.082224 C12.9556254,14.081553 13.0422113,14.1886386 13.0284113,14.3102169 L12.8183582,16.1592547 C12.794544,16.3689975 13.0420892,16.473936 13.1526113,16.3009619 L15.2356789,13.0430376 C15.3211656,12.9093819 15.2353125,12.7254041 15.0868098,12.7235254 L13.8907282,12.7091668 C13.7816716,12.7078249 13.6975282,12.6036915 13.70913,12.4846628 Z" id="形状结合" fill="#57689C"></path>
        </g>
    </g>
</svg>