<?xml version="1.0" encoding="UTF-8"?>
<svg width="20px" height="18px" viewBox="0 0 20 18" version="1.1" xmlns="http://www.w3.org/2000/svg" xmlns:xlink="http://www.w3.org/1999/xlink">
    <title>45BE9B55-C68E-4B99-923A-14D1906B8784</title>
    <g id="事件概览" stroke="none" stroke-width="1" fill="none" fill-rule="evenodd">
        <g id="事件跟进" transform="translate(-289.000000, -413.000000)" fill="#666666" fill-rule="nonzero">
            <path d="M308.375,422 C308.375,421.765625 308.257812,421.53125 308.023438,421.414062 L305.914062,420.242188 L308.023438,419.070312 C308.257812,419.070312 308.375,418.835938 308.375,418.484375 C308.375,418.25 308.257812,418.015625 308.023438,417.898438 L299.351562,413.328125 C299.117188,413.210938 298.882812,413.210938 298.765625,413.328125 L289.976562,417.898438 C289.742188,418.015625 289.625,418.25 289.625,418.484375 C289.625,418.71875 289.742188,418.953125 289.976562,419.070312 L292.085938,420.242188 L289.976562,421.414062 C289.742188,421.53125 289.625,421.765625 289.625,422 C289.625,422.234375 289.742188,422.46875 289.976562,422.585938 L292.085938,423.757812 L289.976562,424.929688 C289.742188,424.929688 289.625,425.164062 289.625,425.515625 C289.625,425.75 289.742188,425.984375 289.976562,426.101562 L298.648438,430.671875 C298.765625,430.671875 298.882812,430.789062 299,430.789062 C299.117188,430.789062 299.234375,430.789062 299.351562,430.671875 L308.023438,426.101562 C308.257812,425.984375 308.375,425.75 308.375,425.515625 C308.375,425.28125 308.257812,425.046875 308.023438,424.929688 L305.914062,423.757812 L308.023438,422.585938 C308.257812,422.46875 308.375,422.234375 308.375,422 Z M291.734375,418.484375 L299,414.734375 L306.265625,418.484375 L299,422.351562 L291.734375,418.484375 Z M306.265625,425.515625 L299,429.265625 L291.734375,425.515625 L293.492188,424.578125 L298.648438,427.273438 C298.765625,427.273438 298.882812,427.390625 299,427.390625 C299.117188,427.390625 299.234375,427.390625 299.351562,427.273438 L304.507812,424.578125 L306.265625,425.515625 Z M299,425.867188 L291.734375,422 L293.492188,421.0625 L298.648438,423.757812 C298.765625,423.757812 298.882812,423.875 299,423.875 C299.117188,423.875 299.234375,423.875 299.351562,423.757812 L304.507812,421.0625 L306.265625,422 L299,425.867188 Z" id="类型"></path>
        </g>
    </g>
</svg>