<?xml version="1.0" encoding="UTF-8"?>
<svg width="18px" height="21px" viewBox="0 0 18 21" version="1.1" xmlns="http://www.w3.org/2000/svg" xmlns:xlink="http://www.w3.org/1999/xlink">
    <title>A418C65A-8168-4A34-8660-C48CB5CB9BED</title>
    <g id="事件概览" stroke="none" stroke-width="1" fill="none" fill-rule="evenodd">
        <g id="事件跟进" transform="translate(-721.000000, -411.000000)" fill="#666666" fill-rule="nonzero">
            <g id="告警" transform="translate(712.000000, 411.328125)">
                <path d="M10.9419033,16.3963964 C10.9419033,16.795045 11.2639754,17.1171171 11.662624,17.1171171 L24.590552,17.1171171 C24.9892006,17.1171171 25.3112727,16.795045 25.3112727,16.3963964 L25.3112727,11.1486486 C25.3112727,7.18018018 22.0950565,3.96396396 18.126588,3.96396396 C14.1581195,3.96396396 10.9419033,7.18018018 10.9419033,11.1486486 L10.9419033,16.3963964 Z M12.563525,11.1486486 C12.563525,8.07657658 15.0545159,5.58558559 18.126588,5.58558559 C21.1986601,5.58558559 23.6896511,8.07657658 23.6896511,11.1486486 L23.6896511,15.4954955 L15.6941556,15.4954955 L15.6941556,11.6441441 C15.6941556,11.5202703 15.5928042,11.4189189 15.4689304,11.4189189 L14.4779394,11.4189189 C14.3540655,11.4189189 14.2527141,11.5202703 14.2527141,11.6441441 L14.2527141,15.4954955 L12.563525,15.4954955 L12.563525,11.1486486 Z M11.4801916,5.46171171 L12.3720835,4.56981982 C12.4419033,4.5 12.4419033,4.38513514 12.3720835,4.31531532 L10.8428042,2.78603604 C10.7729844,2.71621622 10.6581195,2.71621622 10.5882997,2.78603604 L9.69640783,3.67792793 C9.62658801,3.74774775 9.62658801,3.86261261 9.69640783,3.93243243 L11.2256871,5.46171171 C11.2955069,5.53153153 11.4081195,5.53153153 11.4801916,5.46171171 Z M26.5612727,3.67792793 L25.6693808,2.78603604 C25.599561,2.71621622 25.4846961,2.71621622 25.4148763,2.78603604 L23.885597,4.31531532 C23.8157772,4.38513514 23.8157772,4.5 23.885597,4.56981982 L24.7774889,5.46171171 C24.8473087,5.53153153 24.9621736,5.53153153 25.0319934,5.46171171 L26.5612727,3.93243243 C26.6310925,3.86036036 26.6310925,3.74774775 26.5612727,3.67792793 L26.5612727,3.67792793 Z M25.3337952,18.5585586 L10.9193808,18.5585586 C10.5207322,18.5585586 10.1986601,18.8806306 10.1986601,19.2792793 L10.1986601,19.8198198 C10.1986601,19.9189189 10.2797412,20 10.3788403,20 L25.8743358,20 C25.9734349,20 26.0545159,19.9189189 26.0545159,19.8198198 L26.0545159,19.2792793 C26.0545159,18.8806306 25.7324439,18.5585586 25.3337952,18.5585586 Z M17.4959574,2.52252252 L18.7572186,2.52252252 C18.8563177,2.52252252 18.9373988,2.44144144 18.9373988,2.34234234 L18.9373988,0.18018018 C18.9373988,0.0810810811 18.8563177,0 18.7572186,0 L17.4959574,0 C17.3968583,0 17.3157772,0.0810810811 17.3157772,0.18018018 L17.3157772,2.34234234 C17.3157772,2.44144144 17.3968583,2.52252252 17.4959574,2.52252252 Z"></path>
            </g>
        </g>
    </g>
</svg>