<?xml version="1.0" encoding="UTF-8"?>
<svg width="22px" height="22px" viewBox="0 0 22 22" version="1.1" xmlns="http://www.w3.org/2000/svg" xmlns:xlink="http://www.w3.org/1999/xlink">
    <title>git</title>
    <g id="页面-1" stroke="none" stroke-width="1" fill="none" fill-rule="evenodd">
        <g id="Apple-TV" transform="translate(-938.000000, -752.000000)">
            <g id="git" transform="translate(938.000000, 752.000000)">
                <rect id="矩形" x="0" y="0" width="22" height="22"></rect>
                <g transform="translate(2.000000, 1.000000)" fill="#FFFFFF" fill-rule="nonzero" id="形状">
                    <path d="M5.88193278,16.8965394 C5.88193278,15.9144316 4.79911431,15.7801507 4.04056999,15.7801507 C3.24845543,15.7801507 2.27706153,15.9472876 2.27706153,16.9408236 C2.27706153,17.9450734 3.42630621,18.0679262 4.19699296,18.0679262 C5.01196385,18.0679262 5.88193278,17.867219 5.88193278,16.8958252 L5.88193278,16.8965394 Z M5.22338488,8.47041177 C5.22338488,7.63329881 4.82197064,6.87475448 3.89557517,6.87475448 C2.86918325,6.87475448 2.51205314,7.55544444 2.51205314,8.4932681 C2.51205314,9.41966359 2.91346737,9.99964287 3.89557517,9.99964287 C4.86625478,9.99964287 5.22338488,9.37466519 5.22338488,8.47041177 Z M8.22542054,4.85482662 L8.22542054,7.10903183 C7.93543089,7.20974251 7.64544125,7.28759688 7.34402344,7.35473733 C7.45544803,7.65615514 7.52258849,7.96828685 7.52258849,8.29256099 C7.52258849,10.1789222 6.36191566,11.6181565 4.50912468,11.9645727 C3.95128746,12.0759973 3.62772759,12.3102746 3.62772759,12.9131102 C3.62772759,14.6209064 8.136138,13.4602336 8.136138,16.607264 C8.136138,19.162887 6.40619978,20 4.08485411,20 C2.17635085,20 -5.55091688e-16,19.3635942 -5.55091688e-16,17.0651048 C-5.55091688e-16,15.7258669 0.814970894,14.9558944 2.03135603,14.553766 L2.03135603,14.5087676 C1.51780294,14.1959216 1.28352559,13.7052248 1.28352559,13.1023892 C1.28352559,12.5331238 1.40637835,11.8302918 1.98635763,11.5731581 L1.98635763,11.5281597 C0.859255035,11.1488875 0.122852761,9.59751438 0.122852761,8.47041177 C0.122852761,6.38334345 1.74136638,4.85411236 3.80557838,4.85411236 C4.49769652,4.85411236 5.1891004,5.03267741 5.791936,5.37837934 C6.62904895,5.37837934 7.45473376,5.1548159 8.22470626,4.85411236 L8.22542054,4.85482662 Z M11.7745795,14.6873326 L9.29681083,14.6873326 C9.34180922,14.1852077 9.34180922,13.6937967 9.34180922,13.1916717 L9.34180922,6.39477162 C9.34180922,5.91478876 9.35323739,5.4348059 9.29681083,4.96625121 L11.7745795,4.96625121 C11.7188672,5.42409201 11.7295811,5.8926467 11.7295811,6.34977323 L11.7295811,13.1909575 C11.7295811,13.6930824 11.7295811,14.1844934 11.7745795,14.6866183 L11.7745795,14.6873326 Z M18.4821971,12.2095639 L18.4821971,14.397343 C17.8907896,14.7209028 17.2100997,14.8323274 16.5401236,14.8323274 C14.1516375,14.8323274 13.873076,12.9459662 13.873076,11.004607 L13.873076,7.08760402 L13.895218,7.08760402 L13.895218,7.04260563 C13.7502232,7.04260563 13.6159423,7.02046357 13.4823756,7.02046355 C13.2588122,7.02046355 13.035963,7.05403378 12.8238277,7.08760402 L12.8238277,4.96696546 L13.895218,4.96696546 L13.895218,4.11842434 C13.895218,3.7834363 13.8837899,3.44844827 13.8280776,3.1248884 L16.3615585,3.1248884 C16.272276,3.73843791 16.2944181,4.3527017 16.2944181,4.96625121 L18.2029213,4.96625121 L18.2029213,7.08688975 C17.8793615,7.08688975 17.5558016,7.04189136 17.2429556,7.04189136 L16.2944181,7.04189136 L16.2944181,11.1153173 C16.2944181,11.7738652 16.4394129,12.5774079 17.2650977,12.577408 C17.7000822,12.577408 18.1243527,12.4545552 18.4814828,12.2088497 L18.4821971,12.2095639 Z M12.0538552,1.64065568 C12.0538552,2.47776864 11.4067355,3.25916933 10.5474805,3.25916933 C9.66608336,3.25916933 9.00753545,2.48919682 9.00753545,1.64065568 C9.00753545,0.781400648 9.65465519,1.11018338e-15 10.5474805,1.11018338e-15 C11.4288776,1.11018338e-15 12.0538552,0.803542728 12.0538552,1.64065568 Z"></path>
                </g>
            </g>
        </g>
    </g>
</svg>