<?xml version="1.0" encoding="UTF-8"?>
<svg width="28px" height="28px" viewBox="0 0 28 28" version="1.1" xmlns="http://www.w3.org/2000/svg" xmlns:xlink="http://www.w3.org/1999/xlink">
    <title>9C243F16-200D-48C5-B78A-98F5428936FC</title>
    <defs>
        <linearGradient x1="50%" y1="0%" x2="50%" y2="100%" id="linearGradient-1">
            <stop stop-color="#FFFFFF" offset="0%"></stop>
            <stop stop-color="#FFFFFF" stop-opacity="0.2" offset="100%"></stop>
        </linearGradient>
    </defs>
    <g id="数值统计" stroke="none" stroke-width="1" fill="none" fill-rule="evenodd">
        <g id="Statistic-统计数值" transform="translate(-229.000000, -707.000000)" fill-rule="nonzero">
            <g id="编组-21" transform="translate(219.000000, 697.000000)">
                <g id="图标-蓝色" transform="translate(10.000000, 10.000000)">
                    <rect id="矩形" fill="#000000" opacity="0" x="0" y="0" width="28" height="28"></rect>
                    <path d="M24.1079845,15.5000013 L24.4300246,15.7104436 C24.7861423,15.9424571 25,16.3327545 25,16.7506679 C25,17.1685812 24.7861423,17.5588786 24.4300246,17.7908921 L15.2109445,23.7898297 C14.7804585,24.0700568 14.2195415,24.0700568 13.7890555,23.7898297 L4.56997544,17.7908921 C4.21385767,17.5588786 4.00000002,17.1685812 4.00000002,16.7506679 C4.00000002,16.3327545 4.21385767,15.9424571 4.56997544,15.7104436 L4.89065097,15.5000013 L13.74266,21.2591944 C14.1463468,21.5222974 14.6628398,21.556278 15.0990492,21.3484326 L15.2573401,21.2591944 L24.1079845,15.5000013 L24.1079845,15.5000013 Z M24.1079845,11.7493334 L24.4300246,11.9597757 C24.7861423,12.1917893 25,12.5820867 25,13 C25,13.4179133 24.7861423,13.8082107 24.4300246,14.0402243 L15.2109445,20.0391618 C14.7804585,20.3193889 14.2195415,20.3193889 13.7890555,20.0391618 L4.56997544,14.0402243 C4.21385767,13.8082107 4.00000002,13.4179133 4.00000002,13 C4.00000002,12.5820867 4.21385767,12.1917893 4.56997544,11.9597757 L4.89065097,11.7493334 L13.74266,17.5085265 C14.1465958,17.7711993 14.6630788,17.8046721 15.0990492,17.5964328 L15.2573401,17.5085265 L24.1079845,11.7493334 L24.1079845,11.7493334 Z M15.2109445,2.21017033 L24.4300246,8.20910783 C24.7861423,8.4411214 25,8.8314188 25,9.24933213 C25,9.66724546 24.7861423,10.0575429 24.4300246,10.2895564 L15.2109445,16.2884939 C14.7804585,16.568721 14.2195415,16.568721 13.7890555,16.2884939 L4.56997544,10.2895564 C4.21385766,10.0575429 4,9.66724546 4,9.24933213 C4,8.8314188 4.21385766,8.4411214 4.56997544,8.20910783 L13.7890555,2.21017033 C14.2195415,1.92994322 14.7804585,1.92994322 15.2109445,2.21017033 Z" id="形状" fill="url(#linearGradient-1)"></path>
                </g>
            </g>
        </g>
    </g>
</svg>