<?xml version="1.0" encoding="UTF-8"?>
<svg width="14px" height="15px" viewBox="0 0 14 15" version="1.1" xmlns="http://www.w3.org/2000/svg" xmlns:xlink="http://www.w3.org/1999/xlink">
    <!-- Generator: Sketch 58 (84663) - https://sketch.com -->
    <title>24F1C1AF-C96E-4041-8571-F6143E3D7B0E</title>
    <desc>Created with Sketch.</desc>
    <defs>
        <polygon id="path-1" points="0.0001 0.788 5.3541 0.788 5.3541 9.6914 0.0001 9.6914"></polygon>
    </defs>
    <g id="页面-1" stroke="none" stroke-width="1" fill="none" fill-rule="evenodd">
        <g id="Easyops-5.0-IDC首页" transform="translate(-44.000000, -140.000000)">
            <g id="机房视图" transform="translate(43.000000, 139.000000)">
                <g id="机房/机柜视图">
                    <g id="icon/机房机柜视图" transform="translate(1.000000, 0.000000)">
                        <path d="M12.4319,15.2123 L8.8479,15.2123 C8.3609,15.2123 7.9629,14.8143 7.9629,14.3273 L7.9629,7.1933 C7.9629,6.7063 8.3609,6.3083 8.8479,6.3083 L12.4319,6.3083 C12.9179,6.3083 13.3169,6.7063 13.3169,7.1933 L13.3169,14.3273 C13.3169,14.8143 12.9179,15.2123 12.4319,15.2123" id="Fill-1" fill="#FFFFFF"></path>
                        <g id="编组" transform="translate(0.000000, 0.212300)">
                            <mask id="mask-2" fill="white">
                                <use xlink:href="#path-1"></use>
                            </mask>
                            <g id="Clip-4"></g>
                            <path d="M4.4691,9.6914 L0.8851,9.6914 C0.3981,9.6914 0.0001,9.2934 0.0001,8.8064 L0.0001,1.6724 C0.0001,1.1864 0.3981,0.7874 0.8851,0.7874 L4.4691,0.7874 C4.9561,0.7874 5.3541,1.1864 5.3541,1.6724 L5.3541,8.8064 C5.3541,9.2934 4.9561,9.6914 4.4691,9.6914" id="Fill-3" fill="#FFFFFF" mask="url(#mask-2)"></path>
                        </g>
                        <path d="M10.6395,3.4613 C10.2735,3.4613 9.9755,3.1643 9.9755,2.7973 C9.9755,2.4313 10.2735,2.1343 10.6395,2.1343 C11.0065,2.1343 11.3035,2.4313 11.3035,2.7973 C11.3035,3.1643 11.0065,3.4613 10.6395,3.4613 M12.4315,1.0003 L8.8475,1.0003 C8.3605,1.0003 7.9625,1.3983 7.9625,1.8843 L7.9625,3.7113 C7.9625,4.1973 8.3605,4.5953 8.8475,4.5953 L12.4315,4.5953 C12.9185,4.5953 13.3165,4.1973 13.3165,3.7113 L13.3165,1.8843 C13.3165,1.3983 12.9185,1.0003 12.4315,1.0003" id="Fill-5" fill="#FFFFFF"></path>
                        <path d="M2.6771,14.078 C2.3101,14.078 2.0131,13.781 2.0131,13.414 C2.0131,13.048 2.3101,12.751 2.6771,12.751 C3.0431,12.751 3.3411,13.048 3.3411,13.414 C3.3411,13.781 3.0431,14.078 2.6771,14.078 M4.4691,11.617 L0.8851,11.617 C0.3981,11.617 0.0001,12.015 0.0001,12.501 L0.0001,14.328 C0.0001,14.814 0.3981,15.212 0.8851,15.212 L4.4691,15.212 C4.9561,15.212 5.3541,14.814 5.3541,14.328 L5.3541,12.501 C5.3541,12.015 4.9561,11.617 4.4691,11.617" id="Fill-7" fill="#FFFFFF"></path>
                    </g>
                </g>
            </g>
        </g>
    </g>
</svg>