<?xml version="1.0" encoding="UTF-8"?>
<svg width="17px" height="17px" viewBox="0 0 17 17" version="1.1" xmlns="http://www.w3.org/2000/svg" xmlns:xlink="http://www.w3.org/1999/xlink">
    <!-- Generator: Sketch 60 (88103) - https://sketch.com -->
    <title>查看实例</title>
    <desc>Created with Sketch.</desc>
    <g id="页面2" stroke="none" stroke-width="1" fill="none" fill-rule="evenodd">
        <g id="编组" transform="translate(1.000000, 1.000000)" fill="#545454" fill-rule="nonzero">
            <path d="M9.84428572,14.9988352 C7.35428572,14.9988352 4.6875,13.1111592 4.6875,11.7848579 C4.6875,10.4574853 7.35535714,8.57088059 9.84428572,8.57088059 C12.3321429,8.57088059 15,10.4574853 15,11.7848579 C15,13.1111592 12.3321429,14.9988352 9.84428572,14.9988352 Z M9.84428572,9.48900677 C7.67785714,9.48900677 5.625,11.160275 5.625,11.7848579 C5.625,12.4083695 7.67785715,14.0796377 9.84428572,14.0796377 C12.0085714,14.0796377 14.0625,12.4083695 14.0625,11.7848579 C14.0625,11.160275 12.0096429,9.48900677 9.84428572,9.48900677 L9.84428572,9.48900677 Z M9.84428572,13.1615115 C9.0675,13.1615115 8.43750001,12.5454992 8.43750001,11.7848579 C8.43750001,11.0242166 9.06750001,10.407133 9.84321428,10.407133 C10.62,10.407133 11.25,11.0242166 11.25,11.7848579 C11.25,12.5454992 10.62,13.1615115 9.84321428,13.1615115 L9.84428572,13.1615115 Z M9.84428572,11.3252591 C9.72105805,11.323831 9.60232565,11.3714858 9.51428484,11.4577093 C9.42624403,11.5439328 9.37613016,11.661639 9.375,11.7848579 C9.375,12.0376908 9.58499999,12.2433853 9.84428572,12.2433853 C10.0996801,12.2451716 10.3084856,12.0402171 10.3114286,11.7848579 C10.3102984,11.661639 10.2601845,11.5439328 10.1721437,11.4577093 C10.0841029,11.3714859 9.96537053,11.323831 9.84214286,11.3252591 L9.84428572,11.3252591 Z M4.61785714,14.9988352 L2.30357143,14.9988352 C1.07764773,15.0380635 0.0493756992,14.0816231 0,12.8561837 L0,2.14399727 C0.0493648216,0.916399081 1.08094694,-0.040893856 2.30892857,0.00134572236 L12.6910714,0.00134572236 C13.9190531,-0.040893856 14.9506352,0.916399081 15,2.14399727 L15,7.7898841 C15,8.08572254 14.7601525,8.32554699 14.4642857,8.32554699 C14.1684189,8.32554699 13.9285714,8.08572254 13.9285714,7.7898841 L13.9285714,2.14292594 C13.8772432,1.50814928 13.32672,1.03155156 12.6910714,1.07160017 L2.30892857,1.07160017 C1.67327999,1.03155156 1.1227568,1.50814928 1.07142857,2.14292594 L1.07142857,12.854041 C1.11998771,13.4880022 1.66894883,13.9653139 2.30357143,13.9253668 L4.61785714,13.9253668 C4.91372397,13.9253668 5.15357143,14.1651912 5.15357143,14.4610297 C5.15357143,14.7568681 4.91372397,14.9966926 4.61785714,14.9966926 L4.61785714,14.9988352 Z M2.55428571,3.84847657 C2.28192976,3.82094634 2.03819042,4.0178306 2.00785715,4.2898628 C1.99440163,4.43756768 2.04804515,4.58349931 2.15396401,4.68733137 C2.25988287,4.79116342 2.40686204,4.84190183 2.55428571,4.82552569 L8.54035715,4.82552569 C8.67134569,4.81463228 8.7925895,4.75198326 8.87724904,4.65144714 C8.96190857,4.55091103 9.00300057,4.42078066 8.99142858,4.2898628 C8.96621196,4.05410194 8.77765335,3.86915267 8.54142857,3.84847657 L2.55321429,3.84847657 L2.55428571,3.84847657 Z" id="形状"></path>
        </g>
    </g>
</svg>