<?xml version="1.0" encoding="UTF-8"?>
<svg width="16px" height="13px" viewBox="0 0 16 13" version="1.1" xmlns="http://www.w3.org/2000/svg" xmlns:xlink="http://www.w3.org/1999/xlink">
    <!-- Generator: Sketch 59.1 (86144) - https://sketch.com -->
    <title>E2C7DB61-1E7B-4537-B739-91407352CAFF</title>
    <desc>Created with Sketch.</desc>
    <g id="组件" stroke="none" stroke-width="1" fill="none" fill-rule="evenodd">
        <g id="List/Icon/IT资源交付" transform="translate(-2.000000, -3.000000)">
            <g id="IT资源交付" transform="translate(2.000000, 3.000000)">
                <path d="M14.5,12 C14.7761424,12 15,12.2238576 15,12.5 C15,12.7761424 14.7761424,13 14.5,13 L1.5,13 C1.22385763,13 1,12.7761424 1,12.5 C1,12.2238576 1.22385763,12 1.5,12 L14.5,12 Z M14.5,10 C14.7761424,10 15,10.2238576 15,10.5 C15,10.7761424 14.7761424,11 14.5,11 L1.5,11 C1.22385763,11 1,10.7761424 1,10.5 C1,10.2238576 1.22385763,10 1.5,10 L14.5,10 Z M13.1978284,0 C13.666527,1.19056671e-15 14.0723404,0.325531987 14.1740155,0.783069542 L15.729571,7.78306954 C15.8493784,8.32220277 15.5094476,8.85637968 14.9703144,8.97618706 C14.8990895,8.99201482 14.8263463,9 14.7533839,9 L1.24661605,9 C0.694331301,9 0.246616051,8.55228475 0.246616051,8 C0.246616051,7.92703765 0.254601236,7.85429444 0.270428991,7.78306954 L1.82598455,0.783069542 C1.92765956,0.325531987 2.33347296,5.30187755e-16 2.80217161,0 L13.1978284,0 Z M5.52512627,4.64644661 C5.32986412,4.84170876 5.32986412,5.15829124 5.52512627,5.35355339 L7.64644661,7.47487373 C7.84170876,7.67013588 8.15829124,7.67013588 8.35355339,7.47487373 L10.4748737,5.35355339 C10.6701359,5.15829124 10.6701359,4.84170876 10.4748737,4.64644661 C10.2796116,4.45118446 9.9630291,4.45118446 9.76776695,4.64644661 L8,6.41421356 L6.23223305,4.64644661 C6.0369709,4.45118446 5.72038841,4.45118446 5.52512627,4.64644661 Z" id="形状结合" fill="#8C8C8C"></path>
                <line x1="8" y1="2.41035764" x2="8" y2="6.98932512" id="路径-13" stroke="#FFFFFF" stroke-linecap="round"></line>
            </g>
        </g>
    </g>
</svg>