<?xml version="1.0" encoding="UTF-8"?>
<svg width="18px" height="18px" viewBox="0 0 18 18" version="1.1" xmlns="http://www.w3.org/2000/svg" xmlns:xlink="http://www.w3.org/1999/xlink">
    <title>rocket-o</title>
    <g id="迭代一：设计稿" stroke="none" stroke-width="1" fill="none" fill-rule="evenodd">
        <g id="发现策略管理01" transform="translate(-1062.000000, -327.000000)">
            <g id="编组-11" transform="translate(24.000000, 266.000000)">
                <g id="编组-8" transform="translate(1033.000000, 56.000000)">
                    <g id="rocket" transform="translate(5.000000, 5.000000)">
                        <rect id="Rectangle-45-Copy-2" x="0" y="0" width="18" height="18"></rect>
                        <g transform="translate(1.125000, 1.109180)" fill="#167BE0" fill-rule="nonzero" id="Shape">
                            <path d="M15.6375,0.58359375 L15.5478516,0.205664062 L15.1699219,0.114257812 C14.9537109,0.0615234375 14.5617188,0 13.9113281,0 C12.6808594,0 11.1357422,0.225 9.78222656,0.601171875 C9.04042969,0.806835937 8.37773437,1.04941406 7.81347656,1.321875 C7.22988281,1.603125 6.75351563,1.92128906 6.43359375,2.24121094 C6.14179687,2.53300781 5.76035156,3.11132812 5.29804687,3.96035156 C5.19082031,4.15722656 5.08007812,4.36816406 4.96582031,4.59316406 C4.02890625,4.86035156 2.91445313,5.51953125 2.44335938,5.81660156 C1.37460937,6.48632812 0.508007812,7.18769531 0.128320312,7.69042969 C0.0087890625,7.84863281 -0.0298828125,8.05429688 0.024609375,8.24589844 C0.0791015625,8.4375 0.219726562,8.5921875 0.406054687,8.6625 C0.523828125,8.70820312 0.652148437,8.75566406 0.7875,8.80839844 C1.40273437,9.0421875 2.15507813,9.32519531 2.73867188,9.61171875 L2.73691406,9.61523438 L6.12246094,13.0042969 C6.40898438,13.5896484 6.69550781,14.3472656 6.93105469,14.9677734 C6.98203125,15.103125 7.03125,15.2314453 7.07695313,15.3492188 C7.14902344,15.5355469 7.30195313,15.6761719 7.49355469,15.7306641 C7.5515625,15.7464844 7.60957031,15.7552734 7.66757812,15.7552734 C7.80292969,15.7552734 7.93828125,15.7113281 8.04902344,15.6269531 C8.55175781,15.2472656 9.253125,14.3806641 9.92285156,13.3119141 C10.2181641,12.8390625 10.8773438,11.728125 11.1480469,10.7894531 C11.3765625,10.6734375 11.5927734,10.5609375 11.7931641,10.4519531 C12.6474609,9.98789063 13.2257813,9.6046875 13.5140625,9.31289063 C14.3402344,8.48671875 15.0714844,6.71308594 15.4722656,4.56855469 C15.6462891,3.63339844 15.7447266,2.68242188 15.7482422,1.89140625 C15.7535156,1.21816406 15.6919922,0.80859375 15.6375,0.58359375 L15.6375,0.58359375 Z M4.021875,6.58300781 C3.72128906,7.25273437 3.44707031,7.89609375 3.2203125,8.4375 C2.77382812,8.22304687 2.2640625,8.01914063 1.78417969,7.8328125 C2.1234375,7.55507813 2.5734375,7.228125 3.11660156,6.88886719 C3.47167969,6.665625 3.82324219,6.46523437 4.15195312,6.29824219 C4.10800781,6.39140625 4.0640625,6.48632812 4.021875,6.58300781 Z M8.85058594,12.6386719 C8.51132813,13.1800781 8.184375,13.6300781 7.90664062,13.9710937 C7.72207031,13.4929687 7.51640625,12.9832031 7.30371094,12.5367187 C7.846875,12.3099609 8.49199219,12.0339844 9.16875,11.7298828 C9.26015625,11.6876953 9.3515625,11.6472656 9.44121094,11.6068359 C9.27246094,11.9337891 9.07207031,12.2835937 8.85058594,12.6386719 L8.85058594,12.6386719 Z M14.484375,1.88261719 C14.4808594,2.6015625 14.3912109,3.47167969 14.2294922,4.33476562 C14.0537109,5.2734375 13.8041016,6.15761719 13.5052734,6.89589844 C13.2275391,7.58320312 12.9128906,8.12460937 12.6193359,8.41640625 L12.6158203,8.41992188 C12.5455078,8.49199219 12.2326172,8.76972656 11.1884766,9.3375 C10.5064453,9.70664062 9.65214844,10.1232422 8.64667969,10.5767578 C7.81699219,10.9494141 7.03300781,11.2798828 6.43535156,11.5277344 L4.22753906,9.31289062 C4.47363281,8.71347656 4.80585937,7.92773438 5.17675781,7.1015625 C5.63203125,6.09082031 6.04863281,5.23652344 6.41425781,4.56152344 C6.97851562,3.52441406 7.25976562,3.20625 7.33183594,3.13417969 C7.54804687,2.91796875 7.91542969,2.67890625 8.3671875,2.4609375 C8.86289062,2.221875 9.45351562,2.00566406 10.1232422,1.82109375 C11.3730469,1.47128906 12.7898437,1.26386719 13.9130859,1.26386719 C14.1398437,1.26386719 14.3208984,1.27265625 14.4650391,1.28496094 C14.4773437,1.43964844 14.4861328,1.63652344 14.484375,1.88261719 Z M2.13046875,12.0884766 C1.44316406,12.0884766 0.863085937,12.54375 0.675,13.1712891 L0.0140625,15.3544922 C0.0052734375,15.3826172 0,15.4125 0,15.4423828 C0,15.6111328 0.135351563,15.7482422 0.304101562,15.7482422 C0.335742187,15.7482422 0.363867187,15.7429688 0.391992187,15.7341797 L2.57167969,15.0714844 C3.19570312,14.8816406 3.65097656,14.2998047 3.65097656,13.6125 C3.65097656,12.7705078 2.97070312,12.0884766 2.13046875,12.0884766 Z"></path>
                            <path d="M9.32938931,6.41879026 C9.61359731,6.70298835 10.0278342,6.81397506 10.416061,6.70994275 C10.8042877,6.60591044 11.1075235,6.30266411 11.2115422,5.91443372 C11.315561,5.52620332 11.2045598,5.1119703 10.9203518,4.82777223 C10.6361438,4.54357414 10.2219069,4.43258744 9.83368014,4.53661974 C9.44545338,4.64065205 9.14221764,4.94389838 9.03819888,5.33212877 C8.93418013,5.72035917 9.0451813,6.13459219 9.32938931,6.41879026 Z"></path>
                        </g>
                    </g>
                </g>
            </g>
        </g>
    </g>
</svg>