<svg width="20" height="20" viewBox="0 0 20 20" xmlns="http://www.w3.org/2000/svg"><g fill="none" fill-rule="evenodd" stroke-linecap="round" stroke-linejoin="round"><path d="M3.7.964h12.5c1.383 0 2.5 1.016 2.5 2.273v10.455c0 1.256-1.117 2.272-2.5 2.272H3.7c-1.383 0-2.5-1.016-2.5-2.272V3.237C1.2 1.98 2.322.964 3.7.964z" stroke="#FFF"/><path d="M18.7 9.462v3.954a7.36 7.36 0 0 0-2.027-1.854c-1.988-1.21-5.377-.994-5.589-.953-.212.04-.235.033-.091.174.143.14 1.186 1.28 1.06 1.534-.253.372-1.597.316-2.444-.161s-.782-.81-1.021-.702a236.2 236.2 0 0 0-1.772.824c-.334.156-1.444.854-1.682.281-.294-.71.395-1.675.712-2.24-.198-.943.209-2.02.73-2.628.787-.914 2.76-1.76 4.639-1.798.032.002.095-.064.189-.2 1.11-1.178 3.781-1.91 3.657-1.406-.122.502-1.116 1.505-.88 1.88a.142.142 0 0 0 .066.05c2.038.875 3.48 1.997 4.453 3.245z" fill="#FFF"/><path d="M1.2 19.25h17.5" stroke="#FFF"/></g></svg>
