<svg width="23" height="23" viewBox="0 0 23 23" xmlns="http://www.w3.org/2000/svg"><g fill="none" fill-rule="evenodd" stroke-linecap="round" stroke-linejoin="round"><path d="M4.714 1.487h13.572c1.5 0 2.714 1.067 2.714 2.387V14.85c0 1.32-1.213 2.386-2.714 2.386H4.714c-1.5 0-2.714-1.066-2.714-2.386V3.874c0-1.32 1.218-2.387 2.714-2.387z" stroke="#FFF" stroke-width="2"/><path d="M21 10.41v4.152a7.899 7.899 0 0 0-2.2-1.947c-2.16-1.27-5.839-1.044-6.069-1-.23.042-.255.034-.1.182.156.148 1.289 1.345 1.152 1.61-.274.392-1.734.332-2.654-.169-.92-.5-.848-.849-1.108-.737-.26.113-1.558.7-1.923.866-.363.164-1.568.896-1.827.295-.319-.745.43-1.76.773-2.352-.214-.99.227-2.122.793-2.76.854-.959 2.997-1.847 5.036-1.888.036.003.103-.066.205-.21 1.206-1.237 4.106-2.004 3.97-1.475-.132.526-1.21 1.58-.953 1.974a.153.153 0 0 0 .07.052C18.378 7.92 19.943 9.1 21 10.41z" fill="#FFF"/><path d="M2 20.687h19" stroke="#FFF" stroke-width="2"/></g></svg>
