<svg width="23" height="23" viewBox="0 0 23 23" xmlns="http://www.w3.org/2000/svg"><g fill="none" fill-rule="evenodd"><path d="M17.84 3.513C16.076 1.877 13.469.885 11.89 1.01c-1.047.084-2.429.697-3.128 1.724-.82.228-2.356.487-2.75 1.39-.315.728 1.36 1.086 1.812 1.242.457.156 2.081.715 2.401.831.32.116-.05.357.284 1.542.334 1.184 1.518 2.43 2.1 2.318.351-.116.457-2.073.457-2.327 0-.255.005-.206.247-.076 1.591.855 3.553 2.97 4.253 5.83.444 1.815.234 3.655-.283 5.21-.563 1.694-1.505 2.99-1.528 3.074-.041.161 2.688-2.58 4.004-4.565 2.666-4.02 1.937-8.805.57-10.702a.173.173 0 0 1-.014-.103c.133-.55 1.985-.572 2.566-.916.586-.344-2.557-2.06-4.679-1.984-.215.04-.331.041-.361.014z" fill="#FFF"/><path d="M14.904 11.746v.104c0 .981-2.776 1.78-6.204 1.78s-6.205-.796-6.205-1.78c0-.784 1.954-1.523 4.218-1.72.005 0 1.233 2.314 8.191 1.616z" stroke="#FFF" stroke-width="2" stroke-linecap="round" stroke-linejoin="round"/><path d="M14.904 11.957V15.677c0 .97-2.776 1.758-6.204 1.758s-6.205-.786-6.205-1.757v-3.695" stroke="#FFF" stroke-width="2" stroke-linecap="round"/><path d="M14.904 15.811v3.73c0 .964-2.776 1.748-6.204 1.748s-6.205-.781-6.205-1.748v-3.73" stroke="#FFF" stroke-width="2" stroke-linecap="round"/></g></svg>
