<?xml version="1.0" encoding="UTF-8"?>
<svg width="21px" height="20px" viewBox="0 0 21 20" version="1.1" xmlns="http://www.w3.org/2000/svg" xmlns:xlink="http://www.w3.org/1999/xlink">
    <!-- Generator: Sketch 63.1 (92452) - https://sketch.com -->
    <title>next builder（小产品图标）</title>
    <desc>Created with Sketch.</desc>
    <g id="第三版" stroke="none" stroke-width="1" fill="none" fill-rule="evenodd">
        <g id="画板" transform="translate(-291.000000, -151.000000)">
            <g id="next-builder（小产品图标）" transform="translate(290.000000, 150.000000)">
                <rect id="矩形" opacity="0" x="0" y="0" width="22" height="22"></rect>
                <g id="编组-5" transform="translate(1.000000, 1.500000)" fill-rule="nonzero">
                    <path d="M19.7734296,5.08414062 C19.9406711,4.91689916 19.9406711,4.64931281 19.7734296,4.47370927 L15.3498928,0.0501724328 C15.2829962,-0.0167241443 15.1659272,-0.0167241443 15.0990306,0.0501724328 L13.8112713,1.33793174 C13.7443747,1.40482832 13.7443747,1.5051732 13.7945471,1.57206978 C14.229375,2.12396664 14.1290301,2.91836361 13.5771332,3.35319142 C13.1172192,3.71276058 12.4733395,3.71276058 12.0134255,3.35319142 C11.9465289,3.2946569 11.837822,3.30301898 11.7792874,3.36991558 L10.4915281,4.65767489 C10.4246316,4.72457147 10.4246316,4.84164051 10.4915281,4.90853708 L11.7792874,6.19629639 C11.846184,6.26319297 11.846184,6.36353786 11.7960116,6.43043445 C11.3611838,6.98233131 11.4615287,7.77672828 12.0134255,8.21155608 C12.4733396,8.57112524 13.1172192,8.57112524 13.5771332,8.21155608 C13.6440298,8.15302155 13.7527368,8.16138363 13.8112713,8.22828023 L15.0990306,9.51603954 C15.1659272,9.58293612 15.2829962,9.58293612 15.3498928,9.51603954 L16.6376521,8.22828023 C16.7045487,8.16138365 16.8048936,8.16138365 16.8717902,8.21155608 C17.423687,8.64638389 18.218084,8.546039 18.6529118,7.99414217 C19.012481,7.53422812 19.012481,6.89034848 18.6529118,6.43043445 C18.5943773,6.36353788 18.6027394,6.25483091 18.6696359,6.19629639 L19.7734296,5.08414062 Z" id="路径" stroke="#FFFFFF"></path>
                    <path d="M16.4328488,11.176137 L14.5764685,11.176137 C14.5012098,11.176137 14.4343132,11.2346715 14.4175891,11.3182922 C14.3423304,12.0123443 13.7151749,12.5140687 13.0211228,12.43881 C12.4274156,12.3719135 11.9675016,11.9036373 11.900605,11.3182922 C11.8922429,11.2430336 11.8253463,11.176137 11.7417256,11.176137 L9.7264659,11.176137 L9.7264659,13.341914 C9.02405173,13.341914 8.45543072,13.910535 8.45543072,14.6129491 C8.45543072,15.3153633 9.02405171,15.8839843 9.7264659,15.8839843 L9.7264659,18.0497613 L11.8922429,18.0497613 C11.8922429,18.7521755 12.4608639,19.3207965 13.1632781,19.3207965 C13.8656922,19.3207965 14.4343132,18.7521755 14.4343132,18.0497613 L16.1652624,18.0497613 C16.3994005,18.0497613 16.5917282,17.8574336 16.5917282,17.6232956 L16.5917282,11.3433784 C16.5917282,11.2430335 16.5164695,11.176137 16.4328488,11.176137 L16.4328488,11.176137 Z" id="路径" fill="#FFFFFF"></path>
                    <path d="M8.13629745,13.3595263 L8.13629745,11.1937493 L5.97052044,11.1937493 C5.97052044,10.4913351 5.40189945,9.92271414 4.69948526,9.92271414 C3.99707108,9.92271414 3.42845011,10.4913351 3.42845011,11.1937493 L1.27103517,11.1937493 L1.27103517,13.3595263 C0.56862101,13.3595263 5.37982357e-13,13.9281473 5.37982357e-13,14.6305615 C5.37982357e-13,15.3329756 0.568620989,15.9015966 1.27103517,15.9015966 L1.27103517,17.6325458 C1.27103517,17.8666839 1.46336287,18.0590116 1.69750091,18.0590116 L8.13629745,18.0590116 L8.13629745,15.8932346 C7.43388329,15.8932346 6.8652623,15.3246136 6.86526228,14.6221994 C6.86526228,13.9197852 7.43388327,13.3511642 8.13629745,13.3595263 Z" id="路径" fill="#FFFFFF"></path>
                    <path d="M8.27009063,4.91245766 C8.19483197,4.90409559 8.12793538,4.83719901 8.12793538,4.76194033 L8.12793538,2.89719796 C8.12793538,2.81357723 8.0610388,2.73831857 7.96905597,2.73831857 L1.69750091,2.73831857 C1.46336285,2.73831857 1.27103517,2.93064627 1.27103517,3.16478431 L1.27103517,4.76194033 C1.27103517,4.83719899 1.32120762,4.89573351 1.39646627,4.90409559 C2.09051836,4.97099216 2.60060485,5.59814767 2.53370825,6.29219978 C2.47517373,6.89426906 1.99853555,7.37090726 1.39646627,7.42944176 C1.32120762,7.43780384 1.27103517,7.49633834 1.27103517,7.57159701 L1.27103517,9.60358085 L3.43681219,9.60358085 C3.43681219,8.90116669 4.00543318,8.3325457 4.70784734,8.3325457 C5.41026151,8.3325457 5.9788825,8.90116669 5.9788825,9.60358085 L8.14465951,9.60358085 L8.14465951,7.58832114 C8.14465951,7.51306249 8.20319403,7.44616589 8.28681476,7.43780384 C8.98086685,7.36254518 9.48259126,6.73538967 9.40733261,6.04133756 C9.33207395,5.43926829 8.86379783,4.97099216 8.27009063,4.91245766 L8.27009063,4.91245766 Z" id="路径" fill="#FFFFFF"></path>
                </g>
            </g>
        </g>
    </g>
</svg>