<?xml version="1.0" encoding="UTF-8"?>
<svg width="14px" height="10px" viewBox="0 0 14 10" version="1.1" xmlns="http://www.w3.org/2000/svg" xmlns:xlink="http://www.w3.org/1999/xlink">
    <!-- Generator: Sketch 59.1 (86144) - https://sketch.com -->
    <title>0B78AE66-2BFA-4A74-B0C5-E6FCAC35ED4A</title>
    <desc>Created with Sketch.</desc>
    <g id="组件" stroke="none" stroke-width="1" fill="none" fill-rule="evenodd">
        <g id="List/Icon/概览" transform="translate(-3.000000, -5.000000)">
            <g id="概览">
                <rect id="矩形" fill="#D8D8D8" opacity="0" x="0" y="0" width="20" height="20"></rect>
                <path d="M4,13 C4.55228475,13 5,13.4477153 5,14 C5,14.5522847 4.55228475,15 4,15 C3.44771525,15 3,14.5522847 3,14 C3,13.4477153 3.44771525,13 4,13 Z M16,13 C16.5522847,13 17,13.4477153 17,14 C17,14.5522847 16.5522847,15 16,15 L7,15 C6.44771525,15 6,14.5522847 6,14 C6,13.4477153 6.44771525,13 7,13 L16,13 Z M4,9 C4.55228475,9 5,9.44771525 5,10 C5,10.5522847 4.55228475,11 4,11 C3.44771525,11 3,10.5522847 3,10 C3,9.44771525 3.44771525,9 4,9 Z M16,9 C16.5522847,9 17,9.44771525 17,10 C17,10.5522847 16.5522847,11 16,11 L7,11 C6.44771525,11 6,10.5522847 6,10 C6,9.44771525 6.44771525,9 7,9 L16,9 Z M4,5 C4.55228475,5 5,5.44771525 5,6 C5,6.55228475 4.55228475,7 4,7 C3.44771525,7 3,6.55228475 3,6 C3,5.44771525 3.44771525,5 4,5 Z M16,5 C16.5522847,5 17,5.44771525 17,6 C17,6.55228475 16.5522847,7 16,7 L7,7 C6.44771525,7 6,6.55228475 6,6 C6,5.44771525 6.44771525,5 7,5 L16,5 Z" id="形状结合" fill="#8C8C8C" fill-rule="nonzero"></path>
            </g>
        </g>
    </g>
</svg>