<?xml version="1.0" encoding="UTF-8"?>
<svg width="18px" height="9px" viewBox="0 0 18 9" version="1.1" xmlns="http://www.w3.org/2000/svg" xmlns:xlink="http://www.w3.org/1999/xlink">
    <!-- Generator: Sketch 59.1 (86144) - https://sketch.com -->
    <title>1C76E7BA-FB5F-45CB-B47E-24C1C0EB8626</title>
    <desc>Created with Sketch.</desc>
    <defs>
        <polygon id="path-1" points="0 0.000234 17.766 0.000234 17.766 8.602434 0 8.602434"></polygon>
    </defs>
    <g id="组件" stroke="none" stroke-width="1" fill="none" fill-rule="evenodd">
        <g id="List/Icon/DevOps" transform="translate(-1.000000, -5.000000)">
            <g id="DevOps">
                <rect id="矩形" fill="#D8D8D8" opacity="0" x="0" y="0" width="20" height="20"></rect>
                <g id="持续集成" transform="translate(1.000000, 5.000000)">
                    <mask id="mask-2" fill="white">
                        <use xlink:href="#path-1"></use>
                    </mask>
                    <g id="Clip-2"></g>
                    <path d="M9.46557,5.219334 L7.95177,3.706434 L7.00137,4.657734 L6.97437,4.683834 L5.92317,5.735034 L5.74677,5.911434 C5.43447,6.190434 5.04117,6.377634 4.60647,6.437934 L4.60647,8.602434 C5.76387,8.524134 6.79707,7.995834 7.52697,7.184034 C7.52697,7.184034 8.46117,6.247134 9.47907,5.228334 C9.47547,5.224734 9.46917,5.222934 9.46557,5.219334 L9.46557,5.219334 Z M15.60717,4.374234 C15.57207,5.408334 14.81157,6.257034 13.81707,6.426234 L13.81707,8.599734 C16.00677,8.416134 17.72847,6.601734 17.76627,4.374234 L15.60717,4.374234 Z M3.95217,6.427134 C2.95587,6.258834 2.19357,5.410134 2.15847,4.374234 L-0.00063,4.374234 C0.03717,6.603534 1.76067,8.417934 3.95217,8.599734 L3.95217,6.427134 Z M13.16277,6.437934 C12.72627,6.379434 12.33207,6.191334 12.01887,5.911434 L11.84247,5.735034 L11.13507,5.028534 L9.61227,6.552234 L10.23867,7.184034 C10.96947,7.996734 12.00357,8.525034 13.16277,8.602434 L13.16277,6.437934 Z M4.60647,2.164734 C5.03217,2.223234 5.41917,2.405034 5.72787,2.673234 C5.80437,2.739834 5.87547,2.810934 5.94117,2.886534 L6.62427,3.569634 L8.15067,2.044134 L7.52967,1.422234 C6.80067,0.608634 5.76567,0.078534 4.60647,0.000234 L4.60647,2.164734 Z M2.23677,3.719934 C2.45907,2.924334 3.12507,2.315034 3.95217,2.175534 L3.95217,0.002934 C1.93077,0.170334 0.30807,1.729134 0.03987,3.719934 L2.23677,3.719934 Z M13.81707,2.176434 C14.64327,2.316834 15.30747,2.925234 15.52887,3.719934 L17.72577,3.719934 C17.45757,1.730034 15.83667,0.172134 13.81707,0.002934 L13.81707,2.176434 Z M8.41527,3.243834 L10.23597,1.422234 C10.96587,0.607734 12.00177,0.077634 13.16277,0.000234 L13.16277,2.163834 C12.73617,2.222334 12.34737,2.404134 12.03777,2.673234 C12.00177,2.704734 10.99197,3.714534 9.93627,4.769334 C9.93357,4.765734 9.93267,4.760334 9.92817,4.756734 L8.41527,3.243834 Z" id="Fill-1" fill="#8C8C8C" fill-rule="nonzero" mask="url(#mask-2)"></path>
                </g>
            </g>
        </g>
    </g>
</svg>