<?xml version="1.0" encoding="UTF-8"?>
<svg width="14px" height="14px" viewBox="0 0 14 14" version="1.1" xmlns="http://www.w3.org/2000/svg" xmlns:xlink="http://www.w3.org/1999/xlink">
    <title>更多指引</title>
    <g id="控件" stroke="none" stroke-width="1" fill="none" fill-rule="evenodd">
        <g id="更多指引">
            <rect id="矩形" x="0" y="0" width="14" height="14"></rect>
            <path d="M10.9616,1 C11.6444,1 12.2,1.566 12.2,2.2616 L12.2,2.2616 L12.2,9.3156 C12.2,9.3232 12.196,9.3292 12.196,9.3364 C12.1992,9.358 12.2084,9.3776 12.2088,9.4 C12.2088,9.6209139 12.0297139,9.8 11.8088,9.8 L11.8088,9.8 L9.8384,9.8 C9.5964,9.8 9.4,10.0072 9.4,10.262 L9.4,10.262 L9.4,11.7564 L10.6996,10.6276 C10.8067688,10.5286745 10.9592864,10.4959197 11.0976226,10.5421205 C11.2359588,10.5883212 11.3381842,10.7061535 11.3643985,10.8496255 C11.3906128,10.9930975 11.3366605,11.1394656 11.2236,11.2316 L11.2236,11.2316 L9.3004,12.902 C9.22778244,12.9652604 9.13470772,13 9.0384,13 L9.0384,13 L3.038,13 C2.3556,13 1.8,12.434 1.8,11.7384 L1.8,11.7384 L1.8,2.2616 C1.8,1.566 2.3556,1 3.038,1 L3.038,1 Z M10.9616,1.8 L3.038,1.8 C2.7964,1.8 2.6,2.0072 2.6,2.2616 L2.6,2.2616 L2.6,11.7384 C2.6,11.9928 2.7964,12.2 3.038,12.2 L3.038,12.2 L8.6,12.2 L8.6,10.2616 C8.6,9.566 9.1556,9 9.8384,9 L9.8384,9 L11.4,9 L11.4,2.2616 C11.4,2.0072 11.2036,1.8 10.9616,1.8 L10.9616,1.8 Z M6.8,9.4 C7.13137085,9.4 7.4,9.66862915 7.4,10 C7.4,10.3313708 7.13137085,10.6 6.8,10.6 C6.46862915,10.6 6.2,10.3313708 6.2,10 C6.2,9.66862915 6.46862915,9.4 6.8,9.4 Z M6.7304,3 C7.98386547,3 9,4.01613453 9,5.2696 C9,6.3864 8.1932,7.4136 7.1304,7.6028 L7.1304,7.6028 L7.1304,8.0232 C7.1304,8.2441139 6.9513139,8.4232 6.7304,8.4232 C6.5094861,8.4232 6.3304,8.2441139 6.3304,8.0232 L6.3304,8.0232 L6.3304,7.238 C6.3304,7.0170861 6.5094861,6.838 6.7304,6.838 C7.542,6.838 8.2,6.0812 8.2,5.2696 C8.18137352,4.47131907 7.52889821,3.83389052 6.7304,3.83389052 C5.93190179,3.83389052 5.27942648,4.47131907 5.2608,5.2696 C5.2608,5.4905139 5.0817139,5.6696 4.8608,5.6696 C4.6398861,5.6696 4.4608,5.4905139 4.4608,5.2696 C4.4608,4.01613453 5.47693453,3 6.7304,3 Z" id="形状结合" fill="#595959"></path>
        </g>
    </g>
</svg>