<?xml version="1.0" encoding="UTF-8"?>
<svg width="28px" height="28px" viewBox="0 0 28 28" version="1.1" xmlns="http://www.w3.org/2000/svg" xmlns:xlink="http://www.w3.org/1999/xlink">
    <title>6121773F-2F96-49B7-9CC8-9252DD64E97B</title>
    <defs>
        <linearGradient x1="50%" y1="113.523292%" x2="50%" y2="3.061617e-15%" id="linearGradient-1">
            <stop stop-color="#FFFFFF" offset="0%"></stop>
            <stop stop-color="#FFFFFF" stop-opacity="0.2" offset="100%"></stop>
        </linearGradient>
        <linearGradient x1="50%" y1="113.523292%" x2="50%" y2="3.061617e-15%" id="linearGradient-2">
            <stop stop-color="#FFFFFF" stop-opacity="0.2" offset="0%"></stop>
            <stop stop-color="#FFFFFF" offset="100%"></stop>
        </linearGradient>
    </defs>
    <g id="数值统计" stroke="none" stroke-width="1" fill="none" fill-rule="evenodd">
        <g id="Statistic-统计数值" transform="translate(-531.000000, -707.000000)" fill-rule="nonzero">
            <g id="图标-紫色" transform="translate(531.000000, 707.000000)">
                <rect id="矩形" fill="#FFFFFF" opacity="0" x="0" y="0" width="28" height="28"></rect>
                <path d="M13.4987878,26.3809524 L13.9986623,26.3809524 C16.7772641,26.3448097 19.3677834,24.9482193 20.9546743,22.6308549 C22.5415652,20.3134905 22.9296136,17.3604266 21.9966544,14.7013452 C19.2016416,14.7006145 16.5849921,16.0961608 14.9984113,18.4337414 L14.9984113,14.574393 C17.9080949,13.9710288 19.9977625,11.3705537 19.9971564,8.35373263 L19.9971564,3.02173805 C19.9975125,2.60872096 19.7516261,2.23661888 19.3752099,2.0805409 C18.9987937,1.92446293 18.5668254,2.01549797 18.2825868,2.31080546 L16.3830637,4.22016731 L14.4985368,2.31080546 C14.3101009,2.11219945 14.0502492,2 13.7787175,2 C13.5071859,2 13.2473342,2.11219945 13.0588982,2.31080546 L11.1443789,4.25063586 L9.21486325,2.31080546 C8.93062466,2.01549797 8.49865638,1.92446293 8.12224018,2.0805409 C7.74582398,2.23661888 7.49993757,2.60872096 7.50029369,3.02173805 L7.50029369,8.35373263 C7.49968758,11.3705537 9.58935515,13.9710288 12.4990388,14.574393 L12.4990388,18.4337414 C10.912458,16.0961608 8.2958085,14.7006144 5.50079564,14.7013452 C5.15521143,15.6781744 4.98587647,16.7103112 5.00092114,17.7481993 C5.00092114,22.5159372 8.80554563,26.3809524 13.4987878,26.3809524 Z" id="路径" fill="url(#linearGradient-2)"></path>
            </g>
        </g>
    </g>
</svg>