<?xml version="1.0" encoding="UTF-8"?>
<svg width="24px" height="24px" viewBox="0 0 24 24" version="1.1" xmlns="http://www.w3.org/2000/svg" xmlns:xlink="http://www.w3.org/1999/xlink">
    <title>内存-fill</title>
    <defs>
        <linearGradient x1="50%" y1="0%" x2="50%" y2="100%" id="linearGradient-1">
            <stop stop-color="#FFFFFF" stop-opacity="0.3" offset="0%"></stop>
            <stop stop-color="#FFFFFF" stop-opacity="0.7" offset="100%"></stop>
        </linearGradient>
    </defs>
    <g id="事件概览" stroke="none" stroke-width="1" fill="none" fill-rule="evenodd">
        <g id="事件概览-1440*900" transform="translate(-1147.000000, -169.000000)" fill-rule="nonzero">
            <g id="统计数据" transform="translate(84.000000, 124.000000)">
                <g id="数据4" transform="translate(1052.000000, 31.000000)">
                    <g id="图标" transform="translate(0.000000, 3.000000)">
                        <g id="内存-fill" transform="translate(11.000000, 11.000000)">
                            <rect id="矩形" fill="#000000" opacity="0" x="0" y="0" width="24" height="24"></rect>
                            <path d="M12,2 C17.5228475,2 22,6.4771525 22,12 C22,17.5228475 17.5228475,22 12,22 C6.4771525,22 2,17.5228475 2,12 C2,6.4771525 6.4771525,2 12,2 Z M15.6814362,7.4699749 C12.7930208,11.2819475 11.2042508,13.1618174 10.9151261,13.1095845 C10.3353608,13.0780409 9.21706437,12.4056644 7.56023682,11.0924552 C7.46779185,11.0709352 7.37056335,11.0871689 7.29008841,11.1375603 C7.20961347,11.1879516 7.15253489,11.2683411 7.13149615,11.3609216 L6.649839,13.4478882 C6.60550921,13.6397887 6.72510156,13.8312166 6.91696734,13.8754725 L9.85996561,15.3447165 C11.1551859,15.9134288 11.2782393,16.1117131 13.254171,14.3163254 C13.9769972,13.6595449 15.4821177,12.0264885 17.7695324,9.41715619 C17.9041038,9.27284608 17.8962976,9.04765134 17.7520614,8.91314894 L16.1854344,7.45224562 C16.0411982,7.31774319 15.8160075,7.32566477 15.6814362,7.4699749 Z" id="形状结合" fill="url(#linearGradient-1)"></path>
                        </g>
                    </g>
                </g>
            </g>
        </g>
    </g>
</svg>