<?xml version="1.0" encoding="UTF-8"?>
<svg width="17px" height="15px" viewBox="0 0 17 15" version="1.1" xmlns="http://www.w3.org/2000/svg" xmlns:xlink="http://www.w3.org/1999/xlink">
    <!-- Generator: Sketch 58 (84663) - https://sketch.com -->
    <title>EAC0A3BC-13CE-4E8E-B91E-CE8BB317C948</title>
    <desc>Created with Sketch.</desc>
    <g id="页面-1" stroke="none" stroke-width="1" fill="none" fill-rule="evenodd" stroke-linecap="round">
        <g id="Easyops-5.0-IDC首页" transform="translate(-42.000000, -220.000000)" stroke="#FFFFFF">
            <g id="路由器管理" transform="translate(42.000000, 220.000000)">
                <g id="icon/路由器管理" transform="translate(1.000000, 1.000000)">
                    <path d="M0.421221053,9.21633684 L2.69995789,5.35781053 C2.82374737,5.15907368 3.06795789,5.00581053 3.24901053,5.00581053 L12.5635368,5.00581053 C12.7454316,5.00581053 12.9888,5.15907368 13.1125895,5.35781053 L15.3913263,9.21633684" id="Stroke-1"></path>
                    <path d="M10.6198737,10.9005474 L12.7722947,10.9005474" id="Stroke-3"></path>
                    <path d="M4.53802105,0.421136842 L4.53802105,4.91208421" id="Stroke-5"></path>
                    <path d="M11.2748632,0.421136842 L11.2748632,4.91208421" id="Stroke-7"></path>
                    <path d="M7.90644211,0.421136842 L7.90644211,4.91208421" id="Stroke-9"></path>
                    <path d="M0.421221053,9.21633684 L0.421221053,11.7401263 C0.421221053,12.2049684 0.801010526,12.5847579 1.26585263,12.5847579 L14.5509053,12.5847579 C15.0132211,12.5847579 15.3913263,12.2066526 15.3913263,11.7443368 L15.3913263,9.21633684 L0.421221053,9.21633684 Z" id="Stroke-11" stroke-linejoin="round"></path>
                </g>
            </g>
        </g>
    </g>
</svg>