<?xml version="1.0" encoding="UTF-8"?>
<svg width="14px" height="14px" viewBox="0 0 14 14" version="1.1" xmlns="http://www.w3.org/2000/svg" xmlns:xlink="http://www.w3.org/1999/xlink">
    <!-- Generator: Sketch 61 (89581) - https://sketch.com -->
    <title>置于底层</title>
    <desc>Created with Sketch.</desc>
    <g id="页面-1" stroke="none" stroke-width="1" fill="none" fill-rule="evenodd">
        <path d="M13.1944204,0 L0.77756895,0 C0.349011016,6.28160908e-05 0.0016294778,0.347495276 0.0016294778,0.776053214 C0.0016294778,1.20461115 0.349011016,1.55204361 0.77756895,1.55210643 L13.1944204,1.55210643 C13.6229783,1.55204361 13.9703599,1.20461115 13.9703599,0.776053214 C13.9703599,0.347495276 13.6229783,6.28160908e-05 13.1944204,0 L13.1944204,0 Z M7.51371085,2.53769401 C7.21605319,2.26163855 6.75593614,2.26163855 6.45827848,2.53769401 L3.97490818,4.86585366 C3.74272658,5.08322504 3.66668243,5.42026313 3.78303272,5.71627195 C3.89938301,6.01228078 4.18457183,6.20733133 4.50262437,6.20842571 L6.20994144,6.20842571 L6.20994144,13.1929047 C6.20994146,13.621507 6.55739232,13.9689578 6.98599466,13.9689578 C7.41459701,13.9689578 7.76204787,13.621507 7.76204789,13.1929047 L7.76204789,6.20842571 L9.46936496,6.20842571 C9.7874175,6.20733133 10.0726063,6.01228078 10.1889566,5.71627195 C10.3053069,5.42026313 10.2292627,5.08322504 9.99708115,4.86585366 L7.51371085,2.53769401 Z" id="形状备份-2" fill="#595959" fill-rule="nonzero" transform="translate(6.985995, 6.984479) rotate(-180.000000) translate(-6.985995, -6.984479) "></path>
    </g>
</svg>