<?xml version="1.0" encoding="UTF-8"?>
<svg width="16px" height="16px" viewBox="0 0 16 16" version="1.1" xmlns="http://www.w3.org/2000/svg" xmlns:xlink="http://www.w3.org/1999/xlink">
    <title>资源自动发现小产品图标</title>
    <g id="资源自动发现小产品图标" stroke="none" stroke-width="1" fill="none" fill-rule="evenodd">
        <rect id="矩形" x="0" y="0" width="16" height="16"></rect>
        <g id="编组-5" transform="translate(2.400000, 2.000000)">
            <g id="编组-4备份-3" fill="#BFBFBF" fill-rule="nonzero">
                <g id="编组备份-2">
                    <path d="M5.59105111,0 C8.67890338,0 11.1821022,2.50319885 11.1821022,5.59105111 C11.1821022,7.06947735 10.6082743,8.4138789 9.67119103,9.41368333 L11.1968187,10.9394976 C11.4394232,11.1821022 11.4394232,11.575442 11.1968187,11.8180466 C10.9542141,12.0606511 10.5608743,12.0606511 10.3182697,11.8180466 L8.7232121,10.2230769 C7.82966886,10.8284696 6.75165765,11.1821022 5.59105111,11.1821022 C2.50319885,11.1821022 0,8.67890338 0,5.59105111 C0,2.50319885 2.50319885,0 5.59105111,0 Z M5.59105111,0.984526593 C3.04693787,0.984526593 0.984526593,3.04693787 0.984526593,5.59105111 C0.984526593,8.13516435 3.04693787,10.1975756 5.59105111,10.1975756 C6.47840534,10.1975756 7.32609549,9.94711377 8.05662466,9.48304972 L8.17098644,9.40800673 L8.59885526,9.11770078 L8.9528586,8.74041433 C9.71973677,7.92220727 10.1650319,6.85720235 10.1958606,5.7179334 L10.1975756,5.59105111 C10.1975756,3.04693787 8.13516435,0.984526593 5.59105111,0.984526593 Z M3.73054699,4.64119107 L5.48868456,5.69398489 L5.48868456,7.73067897 L3.73054699,6.67869338 L3.73054699,4.64119107 Z M7.61189962,4.65388943 L7.61189962,6.72509552 L5.89847541,7.71983235 L5.89847541,5.69319414 L7.61189962,4.65388943 Z M5.66842351,3.3438398 L7.38117383,4.26961477 L5.66842351,5.31869731 L3.92895448,4.30960225 L5.66842351,3.3438398 Z" id="形状结合"></path>
                </g>
            </g>
            <g id="编组-8备份-3" transform="translate(5.632719, 5.599600) rotate(-30.000000) translate(-5.632719, -5.599600) translate(3.445843, 3.630547)">
                <g id="编组-7" transform="translate(-0.000000, 0.000000)"></g>
            </g>
        </g>
    </g>
</svg>