<?xml version="1.0" encoding="UTF-8"?>
<svg width="18px" height="15px" viewBox="0 0 18 15" version="1.1" xmlns="http://www.w3.org/2000/svg" xmlns:xlink="http://www.w3.org/1999/xlink">
    <!-- Generator: Sketch 58 (84663) - https://sketch.com -->
    <title>647FFB1B-2912-4E97-8542-E116EA95ECDB</title>
    <desc>Created with Sketch.</desc>
    <g id="09.18" stroke="none" stroke-width="1" fill="none" fill-rule="evenodd">
        <g id="Easyops5.0/发布统计" transform="translate(-117.000000, -157.000000)">
            <g id="应用树" transform="translate(92.000000, 151.000000)">
                <g id="树" transform="translate(24.000000, 3.000000)">
                    <rect id="矩形" fill="#D8D8D8" opacity="0" x="0" y="0" width="20" height="20"></rect>
                    <path d="M5,17 C4.44771525,17 4,16.5522847 4,16 L4,8 L2,8 C1.44771525,8 1,7.55228475 1,7 L1,4 C1,3.44771525 1.44771525,3 2,3 L18,3 C18.5522847,3 19,3.44771525 19,4 L19,7 C19,7.55228475 18.5522847,8 18,8 L5,8 L5,11 L9,11 C9,10.4477153 9.44771525,10 10,10 L18,10 C18.5522847,10 19,10.4477153 19,11 L19,12 C19,12.5522847 18.5522847,13 18,13 L10,13 C9.44771525,13 9,12.5522847 9,12 L5,12 L5,16 L9,16 C9,15.4477153 9.44771525,15 10,15 L18,15 C18.5522847,15 19,15.4477153 19,16 L19,17 C19,17.5522847 18.5522847,18 18,18 L10,18 C9.44771525,18 9,17.5522847 9,17 L5,17 Z" id="形状结合" fill="#FFFFFF"></path>
                </g>
            </g>
        </g>
    </g>
</svg>