<?xml version="1.0" encoding="UTF-8"?>
<svg width="16px" height="16px" viewBox="0 0 16 16" version="1.1" xmlns="http://www.w3.org/2000/svg" xmlns:xlink="http://www.w3.org/1999/xlink">
    <title>visual builder备份 4</title>
    <defs>
        <rect id="path-1" x="0" y="0" width="16" height="16"></rect>
    </defs>
    <g id="低代码-Nora" stroke="none" stroke-width="1" fill="none" fill-rule="evenodd">
        <g id="visual-builder备份-4">
            <mask id="mask-2" fill="white">
                <use xlink:href="#path-1"></use>
            </mask>
            <g id="矩形"></g>
            <g id="编组-3备份" mask="url(#mask-2)" fill="#D9D9D9">
                <g transform="translate(7.841942, 8.059704) rotate(-3.000000) translate(-7.841942, -8.059704) translate(0.331742, 0.059704)">
                    <polygon id="路径-2" points="7.39673804 11.21072 0.851054688 2.62816566e-14 5.71696459 15.4336061"></polygon>
                    <polygon id="路径-3" points="6.21052009 16 14.3941329 1.1954435 12.1845704 0.34339466"></polygon>
                    <polygon id="路径-4" points="7.73387971 10.39352 11.7990975 0.34339466 6.81731767 8.88729505"></polygon>
                    <path d="M0.269835824,11.3204094 C0.852598612,11.514827 1.30547301,11.6295773 1.62845901,11.6646602 C2.72272719,11.7835202 3.91727874,11.6281385 5.03810214,11.3204094 C7.46369141,10.6544487 13.2271122,8.03642401 13.2271122,6.58561651 C13.2271122,5.61841151 12.1830976,5.29188813 10.0950683,5.60604639 C12.8364768,5.0022673 14.3773927,5.18383266 14.717816,6.15074247 C15.228451,7.60110719 9.66492852,11.0219598 5.17618157,11.8548612 C2.69059288,12.2838329 1.0551443,12.1056823 0.269835824,11.3204094 Z" id="路径-7备份" transform="translate(7.510200, 8.670044) rotate(5.000000) translate(-7.510200, -8.670044) "></path>
                </g>
            </g>
        </g>
    </g>
</svg>