<?xml version="1.0" encoding="UTF-8"?>
<svg width="16px" height="16px" viewBox="0 0 16 16" version="1.1" xmlns="http://www.w3.org/2000/svg" xmlns:xlink="http://www.w3.org/1999/xlink">
    <title>缩放适应屏幕icon</title>
    <g id="暗色模式" stroke="none" stroke-width="1" fill="none" fill-rule="evenodd">
        <g id="缩放适应屏幕icon" fill-rule="nonzero">
            <rect id="矩形" fill="#000000" opacity="0" x="0" y="0" width="16" height="16"></rect>
            <path d="M13.3657813,14.3978125 L2.63421875,14.3978125 C1.73296875,14.3978125 1,13.6648437 1,12.76375 L1,3.23625 C1,2.335 1.73296875,1.60203125 2.63421875,1.60203125 L13.3659375,1.60203125 C14.2671875,1.60203125 15.0001563,2.335 15.0001563,3.23625 L15.0001563,12.7635938 C15,13.6648437 14.2670313,14.3978125 13.3657813,14.3978125 Z M2.63421875,3.15765625 C2.59084828,3.15765625 2.555625,3.19287953 2.555625,3.23625 L2.555625,12.7635937 C2.555625,12.8069642 2.59084828,12.8421875 2.63421875,12.8421875 L13.3659375,12.8421875 C13.409308,12.8421875 13.4445312,12.8069642 13.4445312,12.7635937 L13.4445312,3.23625 C13.4445312,3.19287953 13.409308,3.15765625 13.3659375,3.15765625 L2.63421875,3.15765625 Z" id="形状" fill="#1A7AFF"></path>
            <path d="M9.54,12.1021875 L3.34890625,12.1021875 C3.3403125,12.1021875 3.33328125,12.0951562 3.33328125,12.0865625 L3.33328125,7.0621875 C3.33328125,7.05359375 3.3403125,7.0465625 3.34890625,7.0465625 L9.53984375,7.0465625 C9.5484375,7.0465625 9.5554713,7.05359375 9.5554713,7.0621875 L9.5554713,12.0865625 C9.555625,12.0951562 9.54859375,12.1021875 9.54,12.1021875 L9.54,12.1021875 Z" id="路径" fill="#1A7AFF"></path>
            <polygon id="路径" fill="#1A7AFF" points="11.6895312 7.12703125 11.6895312 6.349375 10.8028125 6.349375 12.6667187 4.4853125 12.1167187 3.93546875 10.2528125 5.799375 10.2528125 4.91265625 9.475 4.91265625 9.475 7.12703125"></polygon>
        </g>
    </g>
</svg>