<?xml version="1.0" encoding="UTF-8"?>
<svg width="16px" height="16px" viewBox="0 0 16 16" version="1.1" xmlns="http://www.w3.org/2000/svg" xmlns:xlink="http://www.w3.org/1999/xlink">
    <title>3d icon</title>
    <g id="页面-1" stroke="none" stroke-width="1" fill="none" fill-rule="evenodd">
        <g id="3D架构拓扑图浅色节点tips备份" transform="translate(-1369.000000, -603.000000)" fill="#5AA0FF" fill-rule="nonzero">
            <path d="M1372.92025,614.727125 L1378.05188,614.727125 C1378.57138,614.727125 1379.044,614.523 1379.39463,614.191125 C1379.43213,614.167375 1379.468,614.1395 1379.50088,614.107 L1382.15238,611.479375 L1382.15563,611.476125 C1382.52115,611.11039 1382.72587,610.614078 1382.72451,610.097 L1382.72451,609.612 C1382.72451,609.267512 1382.44524,608.98825 1382.10075,608.98825 C1381.75626,608.98825 1381.477,609.267512 1381.477,609.612 L1381.477,610.097 C1381.4775,610.283622 1381.40385,610.462799 1381.27225,610.595125 L1380.0085,611.847625 L1380.0085,607.608 C1380.0085,607.253875 1379.91075,606.908 1379.73288,606.60925 L1381.47188,604.872125 C1381.47513,604.899625 1381.47688,604.9275 1381.47688,604.955875 L1381.47688,606.493 C1381.47688,606.837522 1381.75617,607.116813 1382.10069,607.116813 C1382.44521,607.116813 1382.72451,606.837522 1382.72451,606.493 L1382.72451,604.955875 C1382.72451,603.8775 1381.84713,603 1380.76875,603 L1375.584,603 C1375.049,603 1374.532,603.2225 1374.164,603.610875 L1371.654,606.115875 C1371.64663,606.122875 1371.6405,606.130625 1371.63363,606.138 C1371.60888,606.159375 1371.58463,606.1815 1371.56075,606.20425 C1371.18125,606.566625 1370.96363,607.078375 1370.96363,607.608125 L1370.96363,612.76875 C1370.96363,613.8485 1371.84138,614.727125 1372.92025,614.727125 Z M1375.052,604.487125 L1375.06675,604.472 C1375.20021,604.328175 1375.38779,604.246803 1375.584,604.247619 L1380.332,604.247619 L1378.77563,605.80225 C1378.54047,605.713757 1378.28993,605.673417 1378.03888,605.683625 L1373.85313,605.683625 L1375.052,604.487125 L1375.052,604.487125 Z M1372.21125,607.608125 C1372.21125,607.414625 1372.28625,607.2365 1372.4225,607.1065 C1372.54792,606.985582 1372.71775,606.921886 1372.89175,606.9305 L1372.906,606.931125 L1378.052,606.931125 L1378.08075,606.9305 C1378.2547,606.922011 1378.42444,606.985691 1378.54988,607.1065 C1378.68613,607.2365 1378.76113,607.414625 1378.76113,607.608125 L1378.76113,612.768625 C1378.76113,613.160625 1378.44288,613.4795 1378.052,613.4795 L1372.92025,613.4795 C1372.52925,613.4795 1372.21113,613.160625 1372.21113,612.768625 L1372.21113,607.608125 L1372.21125,607.608125 Z M1383.25363,614.1345 C1384.1995,614.1345 1384.969,614.904 1384.969,615.849875 L1384.969,617.87725 C1384.969,618.221738 1384.68974,618.501 1384.34525,618.501 C1384.00076,618.501 1383.7215,618.221738 1383.7215,617.87725 L1383.7215,616.3575 C1383.35838,616.65025 1382.8065,617.053125 1382.08825,617.45475 C1380.85325,618.1455 1378.8625,618.96875 1376.392,618.96875 C1373.90575,618.96875 1372.075,618.1355 1370.977,617.4365 C1369.77388,616.6705 1369.15825,615.89275 1369.13275,615.860125 C1368.9954,615.684618 1368.96212,615.44917 1369.04544,615.242471 C1369.12876,615.035773 1369.31603,614.889226 1369.53669,614.858034 C1369.75736,614.826842 1369.9779,614.915743 1370.11525,615.09125 C1370.119,615.096125 1370.6525,615.76025 1371.69238,616.41275 C1373.076,617.281 1374.65713,617.72125 1376.392,617.72125 C1379.67425,617.72125 1382.04288,616.10875 1382.94325,615.382125 L1381.22625,615.382125 C1380.88173,615.382125 1380.60244,615.102835 1380.60244,614.758312 C1380.60244,614.41379 1380.88173,614.1345 1381.22625,614.1345 L1383.25363,614.1345 L1383.25363,614.1345 Z" id="3d-icon"></path>
        </g>
    </g>
</svg>