<?xml version="1.0" encoding="UTF-8"?>
<svg width="16px" height="17px" viewBox="0 0 16 17" version="1.1" xmlns="http://www.w3.org/2000/svg" xmlns:xlink="http://www.w3.org/1999/xlink">
    <title>2d</title>
    <g id="页面-1" stroke="none" stroke-width="1" fill="none" fill-rule="evenodd">
        <g id="编组-39">
            <rect id="矩形备份-109" fill="#000000" fill-rule="nonzero" opacity="0" x="0" y="1" width="15.9999969" height="15.9999969"></rect>
            <path d="M10.0647952,2.53827778 L10.9306777,1.67239526 C12.9954745,2.67149047 14.4608141,4.60307453 14.8604522,6.93429668 C14.9270585,7.20072207 15.1268776,7.40054111 15.4599093,7.33393476 C15.7263347,7.26732841 15.9261537,7.06750938 15.8595474,6.73447764 C15.4599093,4.20343645 13.861357,2.07203334 11.7299539,0.939725452 C10.597646,0.340268319 9.19891268,-0.0593697586 7.53375401,0.00723658772 L10.0647952,2.53827778 Z" id="路径" fill="#57689C"></path>
            <path d="M5.93520166,13.4617187 L5.06931916,14.3276012 C3.0045224,13.328506 1.53918276,11.3969219 1.13954468,9.0656998 C1.07293834,8.79927441 0.873119298,8.59945537 0.54008755,8.6660617 C0.273662165,8.73266805 0.0738431262,8.93248709 0.140449472,9.26551884 C0.54008755,11.79656 2.13863989,13.9279631 4.27004299,15.060271 C5.40235089,15.6597281 6.80108418,16.0593662 8.46624286,15.9927599 L5.93520166,13.4617187 Z" id="路径" fill="#57689C"></path>
            <g id="2D" transform="translate(3.700195, 4.968750)" fill="#57689C" fill-opacity="0.93" fill-rule="nonzero">
                <path d="M3.36669922,4.13916016 L3.36669922,5.03125 L0,5.03125 C0.0364583333,4.69401042 0.145833333,4.37443034 0.328125,4.07250977 C0.510416667,3.77058919 0.870442708,3.37011719 1.40820312,2.87109375 C1.84114583,2.46777344 2.10660807,2.19433594 2.20458984,2.05078125 C2.3367513,1.85253906 2.40283203,1.65657552 2.40283203,1.46289062 C2.40283203,1.24869792 2.34529622,1.08406576 2.23022461,0.968994141 C2.11515299,0.853922526 1.95621745,0.796386719 1.75341797,0.796386719 C1.55289714,0.796386719 1.39339193,0.856770833 1.27490234,0.977539062 C1.15641276,1.09830729 1.08805339,1.29882812 1.06982422,1.57910156 L0.112792969,1.48339844 C0.169759115,0.954752604 0.348632812,0.575358073 0.649414062,0.345214844 C0.950195312,0.115071615 1.32617188,0 1.77734375,0 C2.2718099,0 2.66031901,0.133300781 2.94287109,0.399902344 C3.22542318,0.666503906 3.36669922,0.998046875 3.36669922,1.39453125 C3.36669922,1.62011719 3.32625326,1.83487956 3.24536133,2.03881836 C3.1644694,2.24275716 3.03629557,2.45638021 2.86083984,2.6796875 C2.74462891,2.82779948 2.53499349,3.04085286 2.23193359,3.31884766 C1.9288737,3.59684245 1.73689779,3.78141276 1.65600586,3.87255859 C1.57511393,3.96370443 1.50960286,4.05257161 1.45947266,4.13916016 L3.36669922,4.13916016 Z" id="路径"></path>
                <path d="M4.22460938,0.0205078125 L6.07373047,0.0205078125 C6.49072266,0.0205078125 6.80859375,0.0524088542 7.02734375,0.116210938 C7.32128906,0.202799479 7.57307943,0.356608073 7.78271484,0.577636719 C7.99235026,0.798665365 8.15185547,1.06925456 8.26123047,1.3894043 C8.37060547,1.70955404 8.42529297,2.10432943 8.42529297,2.57373047 C8.42529297,2.98616536 8.37402344,3.34163411 8.27148438,3.64013672 C8.14615885,4.00472005 7.96728516,4.29980469 7.73486328,4.52539062 C7.55940755,4.69628906 7.32242839,4.82958984 7.02392578,4.92529297 C6.80061849,4.99593099 6.50211589,5.03125 6.12841797,5.03125 L4.22460938,5.03125 L4.22460938,0.0205078125 Z M5.23632812,0.868164062 L5.23632812,4.18701172 L5.99169922,4.18701172 C6.2742513,4.18701172 6.4781901,4.1710612 6.60351562,4.13916016 C6.76757812,4.09814453 6.90372721,4.02864583 7.01196289,3.93066406 C7.12019857,3.83268229 7.20849609,3.6714681 7.27685547,3.44702148 C7.34521484,3.22257487 7.37939453,2.91666667 7.37939453,2.52929688 C7.37939453,2.14192708 7.34521484,1.8445638 7.27685547,1.63720703 C7.20849609,1.42985026 7.11279297,1.26806641 6.98974609,1.15185547 C6.86669922,1.03564453 6.71061198,0.95703125 6.52148438,0.916015625 C6.38020833,0.884114583 6.10335286,0.868164062 5.69091797,0.868164062 L5.23632812,0.868164062 Z" id="形状"></path>
            </g>
        </g>
    </g>
</svg>