<?xml version="1.0" encoding="UTF-8"?>
<svg width="21px" height="13px" viewBox="0 0 21 13" version="1.1" xmlns="http://www.w3.org/2000/svg" xmlns:xlink="http://www.w3.org/1999/xlink">
    <title>VS</title>
    <defs>
        <linearGradient x1="24.4130487%" y1="58.5674755%" x2="74.4363842%" y2="58.5674755%" id="linearGradient-1">
            <stop stop-color="#1A7AFF" offset="0%"></stop>
            <stop stop-color="#12AACC" offset="100%"></stop>
        </linearGradient>
        <path d="M0,0.208 L2.864,0.208 L5.552,9.632 L5.616,9.632 L8.304,0.208 L11.168,0.208 L7.712,11.408 L3.456,11.408 L0,0.208 Z M16.32,11.6 C16.2026667,11.6106667 16.0213333,11.616 15.776,11.616 C14.336,11.616 13.056,11.3066667 11.936,10.688 L11.936,8.336 C12.5226667,8.69866667 13.168,9.00266667 13.872,9.248 C14.576,9.49333333 15.216,9.616 15.792,9.616 C16.2613333,9.616 16.632,9.49866667 16.904,9.264 C17.176,9.02933333 17.312,8.76266667 17.312,8.464 C17.312,8.048 17.152,7.66666667 16.832,7.32 C16.512,6.97333333 16,6.69333333 15.296,6.48 C14.4853333,6.224 13.8533333,5.96533333 13.4,5.704 C12.9466667,5.44266667 12.6053333,5.11466667 12.376,4.72 C12.1466667,4.32533333 12.032,3.824 12.032,3.216 C12.032,2.64 12.1706667,2.11466667 12.448,1.64 C12.7253333,1.16533333 13.1333333,0.784 13.672,0.496 C14.2106667,0.208 14.8533333,0.048 15.6,0.016 C15.696,0.00533333333 15.8453333,0 16.048,0 C16.6026667,0 17.16,0.056 17.72,0.168 C18.28,0.28 18.752,0.421333333 19.136,0.592 L19.136,2.656 C18.72,2.47466667 18.2346667,2.32533333 17.68,2.208 C17.1253333,2.09066667 16.6346667,2.032 16.208,2.032 C15.664,2.032 15.248,2.128 14.96,2.32 C14.672,2.512 14.528,2.77866667 14.528,3.12 C14.528,3.42933333 14.6826667,3.70666667 14.992,3.952 C15.3013333,4.19733333 15.7813333,4.432 16.432,4.656 C17.2106667,4.88 17.8453333,5.13333333 18.336,5.416 C18.8266667,5.69866667 19.2106667,6.06666667 19.488,6.52 C19.7653333,6.97333333 19.904,7.54133333 19.904,8.224 C19.904,8.87466667 19.7546667,9.45066667 19.456,9.952 C19.1573333,10.4533333 18.7386667,10.8453333 18.2,11.128 C17.6613333,11.4106667 17.0346667,11.568 16.32,11.6 Z" id="path-2"></path>
    </defs>
    <g id="服务的基础架构拓扑" stroke="none" stroke-width="1" fill="none" fill-rule="evenodd">
        <g id="APM-服务地图-部署架构-A-1" transform="translate(-1325.000000, -172.000000)" fill-rule="nonzero">
            <g id="内容区" transform="translate(76.000000, 140.000000)">
                <g id="按钮-多实例对比" transform="translate(36.588716, 28.000000)">
                    <g id="形状结合" transform="translate(1212.571284, 4.592000)">
                        <use fill="#2F4B7B" xlink:href="#path-2"></use>
                        <use fill="url(#linearGradient-1)" xlink:href="#path-2"></use>
                    </g>
                </g>
            </g>
        </g>
    </g>
</svg>