<?xml version="1.0" encoding="UTF-8"?>
<svg width="28px" height="28px" viewBox="0 0 28 28" version="1.1" xmlns="http://www.w3.org/2000/svg" xmlns:xlink="http://www.w3.org/1999/xlink">
    <title>图标-服务节点3</title>
    <g id="服务的基础架构拓扑" stroke="none" stroke-width="1" fill="none" fill-rule="evenodd">
        <g id="APM-服务地图-部署架构-A-2" transform="translate(-398.000000, -255.000000)">
            <g id="内容区" transform="translate(76.000000, 140.000000)">
                <g id="拓扑图" transform="translate(19.588716, 70.000000)">
                    <g id="服务节点-小默认2" transform="translate(286.411284, 27.000000)">
                        <g id="图标-服务节点3" transform="translate(16.000000, 18.000000)">
                            <rect id="矩形" fill="#9FAECF" opacity="0.214541481" x="0" y="0" width="28" height="28" rx="8"></rect>
                            <path d="M14,23 C10.4667132,23 7.40897423,20.9639377 5.93606293,18.001093 L7.07092854,18.0011597 C8.45433121,20.3917256 11.0393493,22 14,22 C16.9606507,22 19.5456688,20.3917256 20.9290715,18.0011597 L22.0639371,18.001093 C20.5910258,20.9639377 17.5332868,23 14,23 Z M14,5 C17.5336848,5 20.5917147,7.03652103 22.0644348,9.9999083 L20.9296499,9.99984002 C19.5463894,7.60872276 16.9610634,6 14,6 C11.0389366,6 8.45361056,7.60872276 7.07035011,9.99984002 L5.93556522,9.9999083 C7.40828532,7.03652103 10.4663152,5 14,5 Z" id="形状结合" fill="#1A7AFF" fill-rule="nonzero"></path>
                            <text id="WWW" font-family="Arial-BoldMT, Arial" font-size="7" font-weight="bold" fill="#2F4B7B">
                                <tspan x="3.5" y="16.5">WWW</tspan>
                            </text>
                        </g>
                    </g>
                </g>
            </g>
        </g>
    </g>
</svg>