<?xml version="1.0" encoding="UTF-8"?>
<svg width="16px" height="16px" viewBox="0 0 16 16" version="1.1" xmlns="http://www.w3.org/2000/svg" xmlns:xlink="http://www.w3.org/1999/xlink">
    <title>component-cleanup-filled</title>
    <g id="component-cleanup-filled" stroke="none" stroke-width="1" fill="none" fill-rule="evenodd">
        <g id="编组" transform="translate(0.120000, 0.000000)" fill="#595959">
            <path d="M14.7220731,9.36935427 C14.8646887,10.2214978 15.1066642,11.6854006 15.3293462,13.0208839 L15.4596909,13.8008421 C15.5648001,14.4280963 15.6591533,14.9862368 15.7279188,15.3827411 C15.7786802,15.6690355 15.5857868,15.9431472 15.2974619,15.9918782 C15.2690355,15.9979695 15.2385787,16 15.2081218,16 L11.55,16 L11.550343,11.9831097 L10.350343,11.9831097 L10.35,16 L5.442,16 L5.44237996,11.9831097 L4.24237996,11.9831097 L4.242,16 L0.527918782,16 C0.235532995,16 0,15.764467 0,15.4720812 C0,15.4436548 0.00203045685,15.413198 0.00812182741,15.3827411 L1.05,9.371 L14.7220731,9.36935427 Z M9.49238579,0 C9.78477157,0 10.0203046,0.235532995 10.0203046,0.527918782 L10.0203046,4.22335025 L15.0152284,4.22335025 C15.3076142,4.22335025 15.5431472,4.45888325 15.5431472,4.75126904 L15.543,8.171 L0.192,8.171 L0.192893401,4.75126904 C0.192893401,4.49137056 0.378993545,4.27639281 0.625701016,4.23182859 L0.720812183,4.22335025 L5.71573604,4.22335025 L5.71573604,0.527918782 C5.71573604,0.235532995 5.95126904,0 6.24365482,0 L9.49238579,0 Z" id="形状结合"></path>
        </g>
    </g>
</svg>