<?xml version="1.0" encoding="UTF-8"?>
<svg width="20px" height="20px" viewBox="0 0 20 20" version="1.1" xmlns="http://www.w3.org/2000/svg" xmlns:xlink="http://www.w3.org/1999/xlink">
    <title>Component inspection</title>
    <g id="Component-inspection" stroke="none" stroke-width="1" fill="none" fill-rule="evenodd">
        <rect id="矩形" fill="#000000" opacity="0" x="0" y="0" width="20" height="20"></rect>
        <g id="编组-16" transform="translate(2.000000, 2.000000)">
            <rect id="Rectangle-Copy-23" fill="#000000" opacity="0.649999976" x="0" y="0" width="6.4" height="6.4"></rect>
            <rect id="Rectangle-Copy-25" fill="#000000" opacity="0.649999976" x="0" y="9.6" width="6.4" height="6.4"></rect>
            <rect id="Rectangle-Copy-24" fill="#000000" opacity="0.649999976" x="9.6" y="0" width="6.4" height="6.4"></rect>
            <path d="M6.9,2.4 C9.93756612,2.4 12.4,4.86243388 12.4,7.9 C12.4,9.20227422 11.9473964,10.3988372 11.19091,11.3409683 L14.3242641,14.4757359 L14.7485281,14.9 L13.9,15.7485281 L10.3409683,12.19091 C9.39883721,12.9473964 8.20227422,13.4 6.9,13.4 C3.86243388,13.4 1.4,10.9375661 1.4,7.9 C1.4,4.86243388 3.86243388,2.4 6.9,2.4 Z M6.9,3.6 C4.52517558,3.6 2.6,5.52517558 2.6,7.9 C2.6,10.2748244 4.52517558,12.2 6.9,12.2 C9.27482442,12.2 11.2,10.2748244 11.2,7.9 C11.2,5.52517558 9.27482442,3.6 6.9,3.6 Z" id="形状结合" fill="#595959" fill-rule="nonzero"></path>
        </g>
    </g>
</svg>