<?xml version="1.0" encoding="UTF-8"?>
<svg width="16px" height="16px" viewBox="0 0 16 16" version="1.1" xmlns="http://www.w3.org/2000/svg" xmlns:xlink="http://www.w3.org/1999/xlink">
    <title>Component Cleanup 2</title>
    <g id="Component-Cleanup" stroke="none" stroke-width="1" fill="none" fill-rule="evenodd">
        <rect id="矩形" fill="#000000" opacity="0" x="0" y="0" width="16" height="16"></rect>
        <path d="M9.25,1.15 C9.80637085,1.15 10.25625,1.59987915 10.25625,2.15625 L10.2553125,4.4 L13.5,4.4 C14.0192795,4.4 14.4457928,4.79189473 14.5003534,5.29649746 L14.50625,5.40625 L14.50625,8.5 C14.50625,8.83137085 14.2376208,9.1 13.90625,9.1 L13.9116423,9.13307462 C13.9181442,9.17206852 13.9249243,9.21275303 13.931995,9.25520112 L13.9780031,9.53163636 C14.0442572,9.92999063 14.1306747,10.450554 14.2435382,11.1306863 C14.2463768,11.1477543 14.2463768,11.1477543 14.2492155,11.1648214 C14.4344409,12.2784385 14.5597542,13.0245056 14.6392231,13.4827508 C14.7365395,14.0316154 14.3672389,14.5548915 13.842905,14.6429314 C13.7765313,14.6571544 13.7134529,14.6625 13.6484375,14.6625 L2.3515625,14.6625 C1.79519165,14.6625 1.3453125,14.2126208 1.3453125,13.65625 C1.3453125,13.5947342 1.35051777,13.5333119 1.36038724,13.4849729 L2.0823125,9.322 L1.99184444,9.27525834 C1.7235111,9.11819917 1.53472128,8.84039001 1.49964664,8.51600254 L1.49375,8.40625 L1.49375,5.40625 C1.49375,4.84987915 1.94362915,4.4 2.5,4.4 L5.7433125,4.4 L5.74375,2.15625 C5.74375,1.63697054 6.13564473,1.21045718 6.64024746,1.15589664 L6.75,1.15 L9.25,1.15 Z M12.6892379,9.09838017 L3.3383125,9.1 L2.5813125,13.462 L4.8993125,13.462 L4.9,10.9 L6.1,10.9 L6.0993125,13.462 L9.8993125,13.462 L9.9,10.9 L11.1,10.9 L11.0993125,13.462 L13.4173125,13.462 L13.4131849,13.433919 C13.3412248,13.0131346 13.2424967,12.424885 13.1106588,11.6331918 L13.0654778,11.3617098 L13.0597965,11.3275504 C13.0033192,10.9872163 12.9534911,10.6869997 12.9095199,10.4221877 L12.8478567,10.0509341 C12.8287005,9.93564126 12.8109094,9.82861048 12.7943846,9.7292526 L12.7485093,9.45360857 C12.7258788,9.3177427 12.7062584,9.2001466 12.6892379,9.09838017 Z M9.0553125,2.35 L6.9433125,2.35 L6.94375,5 C6.94375,5.29823376 6.72616039,5.54564675 6.44107312,5.59214701 L6.34375,5.6 L2.6933125,5.6 L2.6923125,7.9 L13.1803125,7.9 L13.1913186,7.89993179 C13.195757,7.89988725 13.2001878,7.89989217 13.2046105,7.89994611 L13.3053125,7.9 L13.3053125,5.6 L9.65625,5.6 C9.35801624,5.6 9.11060325,5.38241039 9.06410299,5.09732312 L9.05625,5 L9.0553125,2.35 Z" id="形状结合" fill="#595959" fill-rule="nonzero"></path>
    </g>
</svg>