<?xml version="1.0" encoding="UTF-8"?>
<svg width="16px" height="16px" viewBox="0 0 16 16" version="1.1" xmlns="http://www.w3.org/2000/svg" xmlns:xlink="http://www.w3.org/1999/xlink">
    <title>Component inspection 2</title>
    <g id="Component-inspection" stroke="none" stroke-width="1" fill="none" fill-rule="evenodd">
        <rect id="矩形" fill="#000000" opacity="0" x="0" y="0" width="16" height="16"></rect>
        <g id="编组-16" transform="translate(1.000000, 1.000000)" fill="#595959" fill-rule="nonzero">
            <path d="M5.6,0 L5.59927467,1.51748389 C5.74382236,1.50590238 5.88997189,1.5 6.0375,1.5 C6.88481293,1.5 7.68665129,1.69469982 8.40071654,2.04180094 L8.4,0 L14,0 L14,5.6 L11.2895311,5.59904138 C11.3943562,6.01955626 11.45,6.45952998 11.45,6.9125 C11.45,8.19091762 11.0067759,9.36581471 10.2656097,10.2919092 L12.5867641,12.6132359 C12.8210786,12.8475505 12.8210786,13.2274495 12.5867641,13.4617641 C12.3524495,13.6960786 11.9725505,13.6960786 11.7382359,13.4617641 L9.41690923,11.1406097 C8.49081471,11.8817759 7.31591762,12.325 6.0375,12.325 C5.88997189,12.325 5.74382236,12.3190976 5.59927467,12.3075161 L5.6,14 L0,14 L0,8.4 L0.831952354,8.39995097 C0.697165768,7.9273525 0.625,7.42835386 0.625,6.9125 C0.625,6.45952998 0.680643802,6.01955626 0.785468884,5.59904138 L0,5.6 L0,0 L5.6,0 Z M1.33819738,9.5998212 L1.2,9.6 L1.2,12.799 L4.399,12.799 L4.39892122,12.0725335 C3.09576665,11.6590863 2.00631444,10.7656379 1.33819738,9.5998212 Z M6.0375,2.7 C5.88958827,2.7 5.74345704,2.70762327 5.59947779,2.72249834 L5.6,5.6 L2.03379631,5.59906355 C1.89828982,6.01237584 1.825,6.45387904 1.825,6.9125 C1.825,7.43616032 1.92055099,7.9375035 2.09516913,8.40004571 L5.6,8.4 L5.59947779,11.1025017 C5.74345704,11.1173767 5.88958827,11.125 6.0375,11.125 C8.36399951,11.125 10.25,9.23899951 10.25,6.9125 C10.25,6.45387904 10.1767102,6.01237584 10.0412037,5.59906355 L8.4,5.6 L8.40104202,3.42504597 C7.72709913,2.96740618 6.91352759,2.7 6.0375,2.7 Z M4.399,9.6 L2.79350371,9.59998668 C3.22214169,10.1168067 3.77192788,10.5295266 4.39931546,10.7945994 L4.399,9.6 Z M4.399,1.2 L1.2,1.2 L1.2,4.399 L1.24256961,4.39939337 C1.89951691,3.14853511 3.03158337,2.18627691 4.39892122,1.75246654 L4.399,1.2 Z M4.39931546,3.03040056 C3.70306741,3.32456717 3.10239025,3.80057013 2.65680094,4.39889249 L4.399,4.399 L4.39931546,3.03040056 Z M12.799,1.2 L9.6,1.2 L9.6011166,2.8386082 C10.1015377,3.27670585 10.5205315,3.80552345 10.8324304,4.39939337 L12.799,4.399 L12.799,1.2 Z" id="形状结合"></path>
        </g>
    </g>
</svg>