<?xml version="1.0" encoding="UTF-8"?>
<svg width="16px" height="16px" viewBox="0 0 16 16" version="1.1" xmlns="http://www.w3.org/2000/svg" xmlns:xlink="http://www.w3.org/1999/xlink">
    <title>job management 2</title>
    <g id="job-management" stroke="none" stroke-width="1" fill="none" fill-rule="evenodd">
        <rect id="矩形" fill="#000000" opacity="0" x="0" y="0" width="16" height="16"></rect>
        <g id="编组" transform="translate(0.399996, 1.399985)" fill="#595959" fill-rule="nonzero">
            <path d="M12.0871921,5.50458468 C12.3522888,5.50458468 12.5671921,5.719488 12.5671921,5.98458468 C12.5671921,6.73378538 13.0067484,6.98967108 13.6534842,6.63942785 C13.8793974,6.51708336 14.1615892,6.59431343 14.2937186,6.81464678 L15.0116673,8.01186768 C15.1522513,8.24629971 15.0689609,8.55063535 14.828592,8.68080842 C14.2121121,9.0146664 14.2202474,9.42044675 14.828592,9.74989899 C15.0689609,9.88007206 15.1522513,10.1844077 15.0116673,10.4188397 L14.2937186,11.6160606 C14.1662448,11.8286305 13.8978849,11.909186 13.674416,11.8019611 C13.0285312,11.4920524 12.8026071,11.5882513 12.6589544,11.967417 L12.623372,12.0654721 C12.5674686,12.2127036 12.4799194,12.3567836 12.0871921,12.4461227 L12.5671921,12.4461227 C12.5671921,12.7112194 12.3522888,12.9261227 12.0871921,12.9261227 L10.6512948,12.9261227 C10.3861981,12.9261227 10.1712948,12.7112194 10.1712948,12.4461227 C10.1712948,11.696922 9.7317385,11.4410363 9.08500263,11.7912796 C8.85908942,11.913624 8.57689761,11.836394 8.44476825,11.6160606 L7.72681958,10.4188397 C7.58623553,10.1844077 7.66952591,9.88007206 7.90989484,9.74989899 C8.5263748,9.41604101 8.51823946,9.01026066 7.90989484,8.68080842 C7.66952591,8.55063535 7.58623553,8.24629971 7.72681958,8.01186768 L8.44476825,6.81464678 C8.57689761,6.59431343 8.85908942,6.51708336 9.08500263,6.63942785 C9.73857017,6.9933708 10.1712948,6.7258872 10.1712948,5.98458468 C10.1712948,5.719488 10.3861981,5.50458468 10.6512948,5.50458468 L12.0871921,5.50458468 Z M11.6544744,6.46458468 L11.0824744,6.46458468 L11.0655578,6.5459693 C10.840549,7.45007765 10.0648222,7.92541005 9.15764237,7.6943954 L9.0544744,7.66358468 L8.7804744,8.12058468 L8.84915325,8.18258125 C9.4821604,8.78737885 9.49415138,9.63035232 8.85645901,10.2425038 L8.7804744,10.3095847 L9.0544744,10.7655847 L9.15175316,10.7384306 C10.0519248,10.5077634 10.8365726,10.9681271 11.0646155,11.8785561 L11.0824744,11.9655847 L11.6614744,11.9655847 L11.700392,11.8100798 L11.7612243,11.6272984 C12.0522691,10.8590969 12.7014445,10.4906377 13.6126927,10.7521303 L13.6784744,10.7725847 L13.9574744,10.3085847 L13.8893336,10.2481262 C13.2563265,9.64332856 13.2443355,8.80035509 13.8820278,8.1882036 L13.9564744,8.12058468 L13.6834744,7.66358468 L13.5867337,7.69227683 C12.686562,7.92294403 11.9019142,7.46258031 11.6738713,6.55215129 L11.6544744,6.46458468 Z" id="Combined-Shape备份"></path>
            <path d="M11.3692434,7.6584307 C12.2291083,7.6584307 12.9261664,8.35548887 12.9261664,9.21535371 C12.9261664,10.0752185 12.2291083,10.7722767 11.3692434,10.7722767 C10.5093786,10.7722767 9.81232042,10.0752185 9.81232042,9.21535371 C9.81232042,8.35548887 10.5093786,7.6584307 11.3692434,7.6584307 Z M11.3692434,8.6184307 C11.039572,8.6184307 10.7723204,8.88568223 10.7723204,9.21535371 C10.7723204,9.54502518 11.039572,9.81227671 11.3692434,9.81227671 C11.6989149,9.81227671 11.9661664,9.54502518 11.9661664,9.21535371 C11.9661664,8.88568223 11.6989149,8.6184307 11.3692434,8.6184307 Z" id="Oval-2"></path>
            <path d="M4.65457852,6.14926795 L2.94727376,6.14926795 C2.71139641,6.14926795 2.52018004,5.95805157 2.52018004,5.72217422 C2.52018004,5.48629687 2.71139641,5.2950805 2.94727376,5.2950805 L4.65457852,5.2950805 C4.89030221,5.2950805 5.08139401,5.4861723 5.08139401,5.72189599 C5.08139401,5.95761967 4.89030221,6.14871147 4.65457852,6.14871147 L4.65457852,6.14926795 Z M4.65457852,4.01459123 L2.94727376,4.01459123 C2.7175747,4.00645451 2.53556804,3.81788641 2.53556804,3.58804328 C2.53556804,3.35820015 2.7175747,3.16963204 2.94727376,3.16149532 L4.65457852,3.16149532 C4.81050345,3.15608363 4.95695688,3.23618091 5.03652357,3.37038603 C5.11609026,3.50459114 5.11609026,3.67151681 5.03652357,3.80572193 C4.95695688,3.93992704 4.81050345,4.02002432 4.65457852,4.01461263 L4.65457852,4.01459123 Z M2.94727376,7.42920074 L4.65457852,7.42920074 C4.89030221,7.42920074 5.08139401,7.62029255 5.08139401,7.85601623 C5.08139401,8.09173992 4.89030221,8.28283172 4.65457852,8.28283172 L2.94727376,8.28283172 C2.71155008,8.28283172 2.52045828,8.09173992 2.52045828,7.85601623 C2.52045828,7.62029255 2.71155008,7.42920074 2.94727376,7.42920074 L2.94727376,7.42920074 Z M10.6295673,4.01459123 L8.49600352,4.01459123 C8.26630446,4.00645451 8.0842978,3.81788641 8.0842978,3.58804328 C8.0842978,3.35820015 8.26630446,3.16963204 8.49600352,3.16149532 L10.6295673,3.16149532 C10.7854922,3.15608363 10.9319457,3.23618091 11.0115123,3.37038603 C11.091079,3.50459114 11.091079,3.67151681 11.0115123,3.80572193 C10.9319457,3.93992704 10.7854922,4.02002432 10.6295673,4.01461263 L10.6295673,4.01459123 Z" id="形状"></path>
            <path d="M1.64009619,0 L4.92435718,0 C5.54941534,-0.00221581491 6.15236336,0.189669641 6.65493953,0.538990662 L6.79600446,0.645015473 L6.9408041,0.537828901 C7.385896,0.22893798 7.90662621,0.0447769742 8.45675281,0.00766577431 L8.66433793,0.000685627572 L11.9398821,0.000692327515 C12.847226,0.00498028584 13.5798528,0.742968118 13.5776299,1.64884704 L13.5776299,4.88027932 C13.5776299,5.21165017 13.3089956,5.48027932 12.9776248,5.48027932 C12.6462539,5.48027932 12.3776248,5.21165017 12.3776248,4.88027932 L12.3776266,1.64737251 C12.3782304,1.40166719 12.1798547,1.2018398 11.9370466,1.20068563 L8.66433793,1.20068563 C8.23778117,1.20068563 7.8371862,1.34432677 7.51359436,1.60743815 L7.41900446,1.69101547 L7.41974343,2.69151087 C7.42076285,3.88430369 7.42329546,5.0227265 7.4272456,6.20951807 L7.43166472,7.4162377 C7.43310718,7.77960624 7.43704605,8.70629769 7.43907301,9.18772263 L7.43996252,9.40009725 L7.44021539,9.46179904 C7.4415482,9.79394011 7.44252109,10.0685277 7.44316078,10.3037771 L7.44387374,10.6294242 C7.44403032,10.7296565 7.44410694,10.8223312 7.44410694,10.9097251 C7.44410694,11.3124051 7.44239584,11.5920532 7.43853939,11.78009 C7.43640272,11.8842719 7.43357323,11.9628894 7.42960454,12.0212034 C7.42606382,12.0697649 7.42606382,12.0697649 7.41751119,12.1319358 C7.47549216,12.2059632 7.47549216,12.2059632 6.81923195,12.6510051 C5.88092324,12.6510051 5.43454691,12.552433 4.88001435,12.0881227 L4.79600446,12.0150155 L1.6401176,12.0159273 C0.781746919,12.0159273 0.0777498868,11.3519873 0.0060226942,10.5097129 L0,10.3677659 L0,1.65056967 C-0.00259792504,0.74328967 0.729554402,0.00497245228 1.64009619,0 Z M1.64336842,1.20000655 C1.39763684,1.20134672 1.19929637,1.40135726 1.20000257,1.64884704 L1.20000257,10.3677659 C1.20000257,10.6154961 1.39888992,10.8159273 1.6401176,10.8159273 L5.03167625,10.8159273 C5.18750289,10.8159273 5.33721707,10.876551 5.44914111,10.9849712 C5.73136751,11.2583625 5.88706131,11.3728463 6.17433932,11.4197492 L6.24200446,11.4280155 L6.24281604,11.4140947 C6.2433982,11.3208616 6.24377788,11.2155559 6.24396632,11.0971908 L6.24410694,10.9097251 C6.24410694,10.822838 6.24403055,10.7306237 6.2438744,10.6308203 L6.24316334,10.3063812 C6.24252532,10.0718944 6.24155485,9.79800388 6.24022505,9.46661434 C6.24016546,9.4517634 6.24008013,9.43095797 6.23997236,9.40495583 L6.2390831,9.19264484 C6.23705649,8.71130893 6.23311738,7.78455621 6.23167417,7.42100132 C6.22352742,5.36877315 6.21923195,3.54597442 6.21923195,1.47678959 L6.21900446,1.73301547 L6.10652997,1.62919179 C5.82085956,1.38741505 5.46573432,1.23896721 5.08909631,1.20667625 L4.92650268,1.20000655 L1.64336842,1.20000655 Z" id="路径"></path>
        </g>
    </g>
</svg>