<?xml version="1.0" encoding="UTF-8"?>
<svg width="20px" height="20px" viewBox="0 0 20 20" version="1.1" xmlns="http://www.w3.org/2000/svg" xmlns:xlink="http://www.w3.org/1999/xlink">
    <title>job management</title>
    <g id="job-management" stroke="none" stroke-width="1" fill="none" fill-rule="evenodd">
        <rect id="矩形" fill="#000000" opacity="0" x="0" y="0" width="20" height="20"></rect>
        <path d="M15.3128177,9.3 C15.3128177,10.5932578 16.2783925,11.1187382 17.3640984,10.5307685 L18.1846107,11.8990201 C17.0696649,12.5028249 17.1338262,13.5165327 18.1846107,14.0855906 L17.3640984,15.4538423 C15.3128177,14.4695958 15.3128177,16.6846107 15.3128177,16.6846107 L13.6717931,16.6846107 C13.6717931,15.3913529 12.7062182,14.8658725 11.6205123,15.4538423 L10.8,14.0855906 C11.9149458,13.4817858 11.8507845,12.468078 10.8,11.8990201 L11.6205123,10.5307685 C12.7534034,11.1442916 13.6717931,10.5393933 13.6717931,9.3 L15.3128177,9.3 Z M14.4923054,11.7615369 C13.8125707,11.7615369 13.2615369,12.3125707 13.2615369,12.9923054 C13.2615369,13.67204 13.8125707,14.2230738 14.4923054,14.2230738 C15.17204,14.2230738 15.7230738,13.67204 15.7230738,12.9923054 C15.7230738,12.3125707 15.17204,11.7615369 14.4923054,11.7615369 Z" id="形状结合" fill="#595959" fill-rule="nonzero"></path>
        <path d="M6.94456657,2.99994761 C7.70733836,2.99726973 8.43416551,3.31038195 8.95522689,3.85979642 L9.07308432,3.99194761 L9.19072132,3.85979642 C9.71178271,3.31038195 10.4386099,2.99726973 11.2013816,2.99994761 L14.9572726,2.99994761 C15.6161403,3.00359333 16.1478399,3.5397905 16.1459926,4.19866396 L16.1459926,9.79008688 C15.6643185,9.3 15.6116826,9.19844378 15.4471707,8.5 L13.3055556,8.5 C13.3055556,9.92659427 12.2484501,10.6228578 10.9444444,9.91666667 L10,11.4915824 C11.2094976,12.1465921 11.2833498,13.3134128 10,14.0084176 L10.9068098,15.5222071 C10.3101292,16.0451545 9.90625335,16.0845356 9.12895388,16.0867248 L9.11313442,16.0880126 L9.03826372,16.0868378 L9.02293234,16.0929799 L8.70271711,16.0860768 C8.0535926,16.0606245 7.66989018,15.9472167 7.06476487,15.361035 L3.18870005,15.361035 C2.53308855,15.361035 1.99995566,14.8237628 1.99995566,14.1631369 L1.99995566,4.19866396 C1.99810834,3.5397905 2.52980793,3.00359333 3.18867559,2.99994761 L6.94456657,2.99994761 Z M6.63379628,10.8047787 L4.68259196,10.8047787 C4.41319362,10.8047787 4.19480311,11.0231692 4.19480311,11.2925676 C4.19480311,11.5619659 4.41319362,11.7803564 4.68259196,11.7803564 L6.63379628,11.7803564 C6.90319463,11.7803564 7.12158513,11.5619659 7.12158513,11.2925676 C7.12158513,11.0231692 6.90319463,10.8047787 6.63379628,10.8047787 Z M6.63379628,8.36578553 L4.68259196,8.36578553 C4.413018,8.36578553 4.19448513,8.58431841 4.19448513,8.85389237 C4.19448513,9.12346633 4.413018,9.3419992 4.68259196,9.3419992 L6.63379628,9.3419992 C6.90319463,9.34136323 7.12158513,9.12297273 7.12158513,8.85357438 C7.12158513,8.58417604 6.90319463,8.36578553 6.63379628,8.36578553 Z M6.63379628,5.92740387 L4.68259196,5.92740387 C4.4200789,5.93670297 4.21207141,6.15220925 4.21207141,6.41488697 C4.21207141,6.67756468 4.4200789,6.89307096 4.68259196,6.90237006 L6.63379628,6.90239452 C6.81199611,6.90857931 6.97937135,6.81703961 7.07030466,6.66366243 C7.16123797,6.51028524 7.16123797,6.31951315 7.07030466,6.16613597 C6.97937135,6.01275878 6.81199611,5.92121909 6.63379628,5.92740387 Z M13.462351,5.92740387 L11.0239938,5.92740387 C10.7614807,5.93670297 10.5534732,6.15220925 10.5534732,6.41488697 C10.5534732,6.67756468 10.7614807,6.89307096 11.0239938,6.90237006 L13.462351,6.90239452 C13.6405508,6.90857931 13.807926,6.81703961 13.8988594,6.66366243 C13.9897927,6.51028524 13.9897927,6.31951315 13.8988594,6.16613597 C13.807926,6.01275878 13.6405508,5.92121909 13.462351,5.92740387 Z" id="形状结合" fill="#000000" opacity="0.649999976"></path>
    </g>
</svg>