<?xml version="1.0" encoding="UTF-8"?>
<svg width="20px" height="20px" viewBox="0 0 20 20" version="1.1" xmlns="http://www.w3.org/2000/svg" xmlns:xlink="http://www.w3.org/1999/xlink">
    <title>lib library management</title>
    <g id="lib-library-management" stroke="none" stroke-width="1" fill="none" fill-rule="evenodd">
        <rect id="矩形" fill="#000000" opacity="0" x="0" y="0" width="20" height="20"></rect>
        <g id="编组" transform="translate(1.400000, 0.400000)" fill="#545454">
            <path d="M12.9076923,0 C13.9187982,0 14.7384615,0.819663304 14.7384615,1.83076923 L14.7384615,11.6769231 C14.7384615,11.9751568 14.5208719,12.2225698 14.2357847,12.2690701 L14.1384615,12.2769231 L3.06153846,12.2769231 C2.88891932,12.2769231 2.72178781,12.3004184 2.56316744,12.3443856 L2.23370693,12.4706629 C1.62101742,12.775365 1.2,13.4077463 1.2,14.1384615 C1.2,15.1665608 2.03343916,16 3.06153846,16 L14.1384615,16 C14.4698324,16 14.7384615,16.2686292 14.7384615,16.6 C14.7384615,16.9313708 14.4698324,17.2 14.1384615,17.2 L3.06153846,17.2 C1.37069746,17.2 0,15.8293025 0,14.1384615 L0.001,14.088 L2.84217094e-14,14.0661401 L2.84217094e-14,1.83076923 C2.84217094e-14,0.819663304 0.819663304,0 1.83076923,0 L12.9076923,0 Z M14.1384615,13.5393623 C14.4698324,13.5393623 14.7384615,13.8079914 14.7384615,14.1393623 C14.7384615,14.4707331 14.4698324,14.7393623 14.1384615,14.7393623 L4.29230769,14.7393623 C3.96093684,14.7393623 3.69230769,14.4707331 3.69230769,14.1393623 C3.69230769,13.8079914 3.96093684,13.5393623 4.29230769,13.5393623 L14.1384615,13.5393623 Z M10.9758317,6.15384615 L4.92307692,6.15384615 L4.92307692,7.35384615 L10.9758317,7.35384615 L10.9758317,6.15384615 Z M11.0461538,3.69230769 L4.92307692,3.69230769 L4.92307692,4.89230769 L11.0461538,4.89230769 L11.0461538,3.69230769 Z" id="形状结合"></path>
        </g>
    </g>
</svg>