<?xml version="1.0" encoding="UTF-8"?>
<svg width="16px" height="16px" viewBox="0 0 16 16" version="1.1" xmlns="http://www.w3.org/2000/svg" xmlns:xlink="http://www.w3.org/1999/xlink">
    <title>middleware-deployment-filled</title>
    <g id="middleware-deployment-filled" stroke="none" stroke-width="1" fill="none" fill-rule="evenodd">
        <g id="编组" transform="translate(0.600000, 0.000000)" fill="#595959">
            <path d="M7.63995143,0 L13.7141985,6.07310425 L13.7141985,8.35418701 C13.5867462,7.98461143 12.7483913,7.98461143 12.5867995,8.00970172 C12.1466745,8.07793812 11.7399299,8.28437691 11.4258381,8.59893498 C10.9229645,9.1030459 10.7089259,9.82555643 10.8564979,10.5208048 L7.33550132,14.042189 C6.88816623,14.4911852 6.88816623,15.2154821 7.33550132,15.6644784 C7.55037389,15.879267 7.8422761,16 8.14670845,16 L1.14284988,16.000708 C0.511671319,16.000708 0,15.4890367 0,14.8578581 L0,1.14365959 C0,0.512481027 0.511671319,0.000809707978 1.14284988,0.000809707978 L7.63995143,0 Z M13.0806016,9.52883778 L12.7207561,9.88873247 C12.3372894,10.2721529 12.3372894,10.8963375 12.7207561,11.279758 C13.1042227,11.6631784 13.728424,11.6631784 14.1118906,11.279758 L14.4717361,10.9198633 C14.6707568,10.7211453 14.9044553,10.8542914 14.8486692,11.2121838 C14.7739705,11.6997147 14.5008323,12.1350332 14.0935951,12.4155955 C13.6863578,12.6961578 13.1810248,12.7971599 12.6966323,12.6948098 L9.67815184,15.7131199 C9.49397651,15.8972232 9.24377621,16.000708 8.98283585,16.000708 C8.7218955,16.000708 8.4716952,15.8972232 8.28751987,15.7131199 C7.90409224,15.3282683 7.90409224,14.7074464 8.28751987,14.3225949 L11.3054978,11.3042848 C11.1790083,10.7083614 11.3624688,10.0890706 11.7935006,9.65697831 C12.0627204,9.38735882 12.4113564,9.21041241 12.788604,9.15192444 C13.1464392,9.0963635 13.2791197,9.33011986 13.0806016,9.52883778 Z M9.12440198,14.1757641 C8.93124568,14.3693345 8.93124568,14.6823742 9.12440198,14.8759446 C9.31755829,15.069515 9.63039576,15.069515 9.82355206,14.8759446 C10.0077321,14.6816573 10.0037623,14.3763933 9.8145919,14.1869441 C9.62542153,13.997495 9.31963052,13.9925416 9.12440198,14.1757641 Z M10.0815686,7.16281274 L2.04663422,7.16281274 L2.04663422,8.36281274 L10.0815686,8.36281274 L10.0815686,7.16281274 Z M7.50432547,3.02346882 L2.04663422,3.02346882 L2.04663422,4.22346882 L7.50432547,4.22346882 L7.50432547,3.02346882 Z" id="形状结合"></path>
        </g>
        <text id="是的，咱们给的是svg，他们可以随意调颜" font-family="PingFangSC-Medium, PingFang SC" font-size="14" font-weight="400" fill="#F24C25">
            <tspan x="-109" y="-21">是的，咱们给的是svg，他们可以随意调颜色的</tspan>
        </text>
    </g>
</svg>