<?xml version="1.0" encoding="UTF-8"?>
<svg width="14px" height="14px" viewBox="0 0 14 14" version="1.1" xmlns="http://www.w3.org/2000/svg" xmlns:xlink="http://www.w3.org/1999/xlink">
    <title>middleware-deployment-outlined</title>
    <g id="middleware-deployment-outlined" stroke="none" stroke-width="1" fill="none" fill-rule="evenodd">
        <g id="编组" transform="translate(0.800000, 0.000000)" fill="#595959" fill-rule="nonzero">
            <path d="M6.93837938,0 L7.10025577,0.16184593 L11.599,4.66 L11.604,4.665 L11.9954124,5.05608151 L12.1573033,5.21794199 L12.1573033,6.80858286 C12.1573033,7.113778 11.9098937,7.36118755 11.6046986,7.36118755 C11.2995035,7.36118755 11.0520939,7.113778 11.0520939,6.80858286 L11.0520939,5.67619975 L11.031,5.655 L7.8268553,5.65505514 C7.13591094,5.65505514 6.57530854,5.09579146 6.57530854,4.40530943 L6.575,1.2 L6.47929005,1.10431691 L1.47361252,1.10589045 C1.29558202,1.10589045 1.14704625,1.2321724 1.11269403,1.4000475 L1.10520939,1.47429358 L1.10520939,12.5263875 C1.10520939,12.7298509 1.27014909,12.8947906 1.47361252,12.8947906 L5.43958499,12.8947906 C5.74478014,12.8947906 5.99218969,13.1422002 5.99218969,13.4473953 C5.99218969,13.7525905 5.74478014,14 5.43958499,14 L1.47361252,14 C0.659758798,14 0,13.3402412 0,12.5263875 L0,1.47429358 C0,0.660439855 0.659758798,0.000681056494 1.47354365,0.000681060786 L6.93837938,0 Z M10.036,4.66 L7.569,2.194 L7.56999699,4.40530943 C7.56999699,4.54590713 7.68473054,4.66036669 7.8268553,4.66036669 L10.036,4.66 Z" id="形状结合"></path>
            <path d="M2.20196055,4.02534422 L6.60024281,4.02534422 L6.60024281,2.92013483 L2.20196055,2.92013483 L2.20196055,4.02534422 Z M2.20196055,7.36118755 L8.67720944,7.36118755 L8.67720944,6.25597816 L2.20196055,6.25597816 L2.20196055,7.36118755 Z" id="形状结合"></path>
            <path d="M10.858774,7.92804987 C11.1471488,7.88327404 11.2540742,8.07165524 11.094091,8.23179943 L10.8040963,8.52183386 C10.4950655,8.83082743 10.4950655,9.3338496 10.8040963,9.64284317 C11.113127,9.95183675 11.6161627,9.95183675 11.9251935,9.64284317 L12.2151882,9.35280874 C12.3755764,9.19266455 12.563911,9.29996519 12.5189537,9.58838608 C12.458755,9.98128085 12.2386365,10.3320983 11.9104493,10.5581999 C11.5822621,10.7843014 11.1750208,10.8656977 10.7846553,10.783215 L8.35210115,13.2156318 C8.20367666,13.3639982 8.0020435,13.4473953 7.79175506,13.4473953 C7.58146663,13.4473953 7.37983347,13.3639982 7.23140897,13.2156318 C6.92240964,12.9054849 6.92240964,12.4051727 7.23140897,12.0950258 L9.66355806,9.66260908 C9.56162183,9.18236217 9.70947022,8.68328378 10.0568331,8.33506621 C10.2737939,8.11778337 10.5547551,7.97518457 10.858774,7.92804987 Z M8.46205642,11.9857067 C8.30960648,11.833032 8.06317349,11.8290402 7.90584136,11.9766968 C7.75017921,12.1326927 7.75017921,12.3849672 7.90584136,12.5409631 C8.06150351,12.696959 8.31361515,12.696959 8.4692773,12.5409631 C8.6177056,12.3843896 8.61450636,12.1383813 8.46205642,11.9857067 Z" id="形状结合"></path>
        </g>
    </g>
</svg>