<?xml version="1.0" encoding="UTF-8"?>
<svg width="16px" height="16px" viewBox="0 0 16 16" version="1.1" xmlns="http://www.w3.org/2000/svg" xmlns:xlink="http://www.w3.org/1999/xlink">
    <title>middleware deployment 2</title>
    <g id="middleware-deployment" stroke="none" stroke-width="1" fill="none" fill-rule="evenodd">
        <rect id="矩形" fill="#000000" opacity="0" x="0" y="0" width="16" height="16"></rect>
        <path d="M8.9334641,0.399260531 L9.10922415,0.574987518 L13.995,5.45926053 L14.6,6.0647303 L14.6,7.79179583 C14.6,8.12316668 14.3313708,8.39179583 14,8.39179583 C13.6686292,8.39179583 13.4,8.12316668 13.4,7.79179583 L13.4,6.5622915 L13.377,6.53926053 L9.89814202,6.53933338 C9.14793737,6.53933338 8.53925372,5.93210328 8.53925372,5.18240059 L8.539,4.76926053 L3.79081633,4.76984687 L3.79081633,3.56984687 L8.539,3.56926053 L8.539,1.70326053 L8.435,1.5982915 L3,1.6 C2.80670034,1.6 2.64542508,1.7371128 2.60812658,1.91938605 L2.6,2 L2.6,14 C2.6,14.2209139 2.7790861,14.4 3,14.4 L7.30612245,14.4 C7.6374933,14.4 7.90612245,14.6686292 7.90612245,15 C7.90612245,15.3313708 7.6374933,15.6 7.30612245,15.6 L3,15.6 C2.1163444,15.6 1.4,14.8836556 1.4,14 L1.4,2 C1.4,1.1163444 2.1163444,0.4 2.99992522,0.400000005 L8.9334641,0.399260531 Z M10.8214286,7.19179583 L10.8214286,8.39179583 L3.79081633,8.39179583 L3.79081633,7.19179583 L10.8214286,7.19179583 Z M9.619,2.78326053 L9.61925372,5.18240059 C9.61925372,5.33505695 9.74382763,5.45933338 9.89814202,5.45933338 L12.297,5.45926053 L9.619,2.78326053 Z" id="形状结合" fill="#595959" fill-rule="nonzero"></path>
        <path d="M13.1900997,9.00727629 C13.5032074,8.95866016 13.6193036,9.16319827 13.4455991,9.33707756 L13.1307323,9.65198741 C12.7951969,9.98748247 12.7951969,10.5336474 13.1307323,10.8691424 C13.4662678,11.2046375 14.0124473,11.2046375 14.3479828,10.8691424 L14.6628496,10.5542326 C14.8369938,10.3803533 15.0414813,10.4968568 14.9926682,10.8100147 C14.9273064,11.2366069 14.6883089,11.617513 14.3319741,11.8630066 C13.9756392,12.1085002 13.53347,12.1968776 13.1096239,12.1073207 L10.4684367,14.7483588 C10.3072823,14.9094502 10.0883556,15 9.86003134,15 C9.63170707,15 9.41278042,14.9094502 9.25162599,14.7483588 C8.91612467,14.4116116 8.91612467,13.8683889 9.25162599,13.5316417 L11.8923735,10.8906036 C11.7816945,10.3691673 11.9422234,9.82728443 12.3193786,9.44920124 C12.5549474,9.21328268 12.8600059,9.05845359 13.1900997,9.00727629 Z M10.5878225,13.4129465 C10.4222974,13.2471775 10.1547285,13.2428432 9.98390249,13.4031639 C9.81488965,13.5725391 9.81488965,13.8464506 9.98390249,14.0158258 C10.1529153,14.1852009 10.4266499,14.1852009 10.5956627,14.0158258 C10.7568213,13.8458233 10.7533476,13.5787156 10.5878225,13.4129465 Z" id="形状结合" fill="#595959" fill-rule="nonzero"></path>
    </g>
</svg>