<?xml version="1.0" encoding="UTF-8"?>
<svg width="42px" height="42px" viewBox="0 0 42 42" version="1.1" xmlns="http://www.w3.org/2000/svg" xmlns:xlink="http://www.w3.org/1999/xlink">
    <title>activemq</title>
    <g id="页面-1" stroke="none" stroke-width="1" fill="none" fill-rule="evenodd">
        <g id="activemq">
            <g id="背景区域" opacity="0" fill="#D8D8D8" fill-rule="nonzero">
                <rect id="矩形" x="0" y="0" width="42" height="42"></rect>
            </g>
            <g id="底块" transform="translate(0.909091, 0.424242)">
                <polygon id="路径-7备份-2" fill="#416480" fill-rule="nonzero" transform="translate(17.090909, 22.575758) scale(-1, 1) translate(-17.090909, -22.575758) " points="0.0909089 39.5757576 0.0909089 5.57575758 34.0909089 5.57575758 34.0909089 39.5757576"></polygon>
                <polygon id="路径-7备份-6" fill="#EEF3F7" fill-rule="nonzero" transform="translate(20.090909, 3.075758) rotate(180.000000) translate(-20.090909, -3.075758) " points="0.0909089 5.57575842 6.0909089 0.57575842 40.0909089 0.57575842 32.2909089 5.57575842"></polygon>
                <polygon id="路径-7备份-5" fill="#AFC0C8" fill-rule="nonzero" transform="translate(37.090909, 20.075758) scale(-1, 1) translate(-37.090909, -20.075758) " points="34.0909089 33.5757576 34.0909089 0.575757576 40.0909089 5.57575758 40.0909089 39.5757576"></polygon>
                <polygon id="路径-7备份-4" stroke="#FFFFFF" opacity="0.25" transform="translate(17.090909, 22.575758) scale(-1, 1) translate(-17.090909, -22.575758) " points="31.5909089 8.07575758 31.5909089 37.0757576 2.5909089 37.0757576 2.5909089 8.07575758"></polygon>
                <polygon id="路径-7备份-4" stroke="#32526B" transform="translate(17.090909, 22.575758) scale(-1, 1) translate(-17.090909, -22.575758) " points="30.5909089 9.07575758 30.5909089 36.0757576 3.5909089 36.0757576 3.5909089 9.07575758"></polygon>
            </g>
            <g id="Icon/activemq" transform="translate(8.000000, 13.000000)">
                <rect id="矩形" fill="#D8D8D8" fill-rule="nonzero" opacity="0" x="0" y="0" width="20" height="20"></rect>
                <g id="activemq">
                    <rect id="矩形备份-3" fill="#D8D8D8" fill-rule="nonzero" opacity="0" x="0" y="0" width="20" height="20"></rect>
                    <g id="编组" transform="translate(1.000000, 1.000000)">
                        <polygon id="矩形备份-17" points="0 0 18 0 18 18 12.2423395 18 0 18"></polygon>
                        <g id="编组-2" transform="translate(3.500000, 0.000000)" fill-rule="nonzero">
                            <path d="M4.79,0 L6.375,2.75 L5.631,4.038 L3.574,2.825 L3.575,2.75 C3.575,2.54289322 3.40710678,2.375 3.2,2.375 C2.99289322,2.375 2.825,2.54289322 2.825,2.75 C2.825,2.91272676 2.92864836,3.05124514 3.07352796,3.10313802 L3.074,5.5 L1.615,5.5 L0.025,2.75 L1.615,0 L4.79,0 Z M3.574,3.116 L5.507,4.255 L4.79,5.5 L3.574,5.5 L3.574,3.116 Z" id="形状结合" fill="#EFF3F8"></path>
                            <path d="M3.074,6.24982356 L3.07352796,8.64686198 C2.92864836,8.69875486 2.825,8.83727324 2.825,9 C2.825,9.17123293 2.93976754,9.31566046 3.09657678,9.36055675 L3.078,11.7498236 L1.615,11.75 L0.025,9 L1.615,6.25 L3.074,6.24982356 Z M3.596,9.37482356 L5.514,10.4918236 L4.79,11.75 L3.577,11.7498236 L3.596,9.37482356 Z M5.631,7.71082356 L6.375,9 L5.638,10.2758236 L3.598,9.08782356 L3.599997,9.0005 L3.575,9 L3.575,9 L3.574,8.92382356 L5.631,7.71082356 Z M4.79,6.25 L5.506,7.49482356 L3.574,8.63382356 L3.574,6.24982356 L4.79,6.25 Z" id="形状结合" fill="#EFF3F8"></path>
                            <path d="M3.072,12.4999875 L3.05248939,14.8954682 C2.90554145,14.9462383 2.8,15.0857939 2.8,15.25 C2.8,15.4571068 2.96789322,15.625 3.175,15.625 C3.38210678,15.625 3.55,15.4571068 3.55,15.25 L3.549,15.1909875 L5.623,13.9829875 L6.355,15.25 L4.765,18 L1.59,18 L-8.8817842e-16,15.25 L1.59,12.4999875 L3.072,12.4999875 Z M4.765,12.4999875 L5.497,13.7669875 L3.552,14.8989875 L3.571,12.4999875 L4.765,12.4999875 Z" id="形状结合" fill="#EFF3F8"></path>
                            <path d="M8.381471,6.23088225 L8.432,8.625 L6.915,8.625 L6.194,7.379 L8.25948655,6.16272394 C8.29513018,6.19255095 8.3363993,6.21587802 8.381471,6.23088225 Z M10.09,3.125 L11.675,5.875 L10.09,8.625 L8.931,8.625 L8.87497972,5.87370007 C8.875,5.66789322 8.70710678,5.5 8.5,5.5 C8.4084662,5.5 8.32459208,5.53279499 8.25948655,5.58727606 L6.194,4.371 L6.915,3.125 L10.09,3.125 Z M6.069,4.587 L8.13184968,5.80328603 C8.12735446,5.82649831 8.125,5.8504742 8.125,5.875 L8.132,5.946 L6.069,7.163 L5.325,5.875 L6.069,4.587 Z" id="形状结合" fill="#23CCD1"></path>
                            <path d="M10.09,9.375 L11.675,12.125 L10.09,14.875 L6.915,14.875 L6.203,13.6447001 L8.32251941,12.4110664 C8.38789843,12.4665391 8.47254162,12.5 8.565,12.5 C8.77210678,12.5 8.94,12.3321068 8.94,12.125 L8.94,12.1227001 L9.00497972,12.1237001 L8.947,9.37470007 L10.09,9.375 Z M6.078,10.8207001 L8.19648004,12.0552221 C8.19222547,12.0778307 8.19,12.1011555 8.19,12.125 L8.197,12.1947001 L6.078,13.4287001 L5.325,12.125 L6.078,10.8207001 Z M8.448,9.37470007 L8.497,11.7557001 C8.42665174,11.7704638 8.36959231,11.7989932 8.32251941,11.8389336 L6.203,10.6047001 L6.915,9.375 L8.448,9.37470007 Z" id="形状结合" fill="#23CCD1"></path>
                        </g>
                    </g>
                </g>
            </g>
        </g>
    </g>
</svg>