<?xml version="1.0" encoding="UTF-8"?>
<svg width="52px" height="52px" viewBox="0 0 52 52" version="1.1" xmlns="http://www.w3.org/2000/svg" xmlns:xlink="http://www.w3.org/1999/xlink">
    <title>aggregation-switch</title>
    <g id="页面-1" stroke="none" stroke-width="1" fill="none" fill-rule="evenodd">
        <g id="aggregation-switch" fill-rule="nonzero">
            <g id="背景区域" opacity="0" fill="#D8D8D8">
                <rect id="矩形" x="0" y="0" width="52" height="52"></rect>
            </g>
            <g id="图形" transform="translate(2.154270, 6.545455)">
                <polygon id="路径-7" fill="#ABBCC4" points="23.9669421 39.2987573 23.9669421 30.9901265 47.9338843 15.8181818 47.9338843 24.3726757"></polygon>
                <polygon id="路径-7备份-2" fill="#D9E3EC" transform="translate(11.983471, 27.558470) scale(-1, 1) translate(-11.983471, -27.558470) " points="-1.00000001e-07 39.2987573 -1.00000001e-07 30.9901265 23.966942 15.8181818 23.966942 24.3726757"></polygon>
                <polygon id="路径-4" fill="#416480" points="23.9669421 30.9901265 47.9338843 15.8181818 23.9669421 0.163442983 0 15.8181818"></polygon>
                <polygon id="路径-4备份" stroke="#BAC9D1" stroke-width="0.6" fill="#416480" points="23.9669421 1.94092491 44.9853773 15.7694367 23.9669421 29.1714753 2.94850699 15.7694367"></polygon>
            </g>
            <g id="编组-5" transform="translate(9.730199, 11.000000)">
                <path d="M16.6136686,13.9914382 C18.9380866,14.0941392 21.0642067,12.8032721 21.2698011,11.0080809 C21.1353045,9.11765868 19.441017,8.01665432 17.0649951,8.01379637 C14.6461654,7.84239772 12.2732294,9.29324936 12.2857242,10.9616058 C12.0508632,12.8525718 14.4578787,14.1168667 16.6136686,13.9914382 Z" id="椭圆形" fill="#FFFFFF"></path>
                <polygon id="路径-32" fill="#FFFFFF" transform="translate(17.269801, 3.500000) rotate(-180.000000) translate(-17.269801, -3.500000) " points="13.5065287 3.99134495 16.3088184 2.23526721 16.1130866 7 17.9337407 7 18.1154231 2.23526721 20.9516038 4.12897753 22.2698009 3.30318203 17.32289 -4.4408921e-16 12.2698009 3.16554944"></polygon>
                <polygon id="路径-32备份" fill="#FFFFFF" points="13.2706294 17.9252812 15.7334407 16.423746 15.7187895 22 17.6174304 22 17.6174304 16.423746 19.8951396 17.9252812 21.2698011 17.0298542 16.7909496 14 12.2698011 17.0298542"></polygon>
                <polygon id="路径-32备份-2" fill="#FFFFFF" transform="translate(27.323769, 10.676599) rotate(-92.000000) translate(-27.323769, -10.676599) " points="24.0287852 9.80483296 26.5591381 8.06556555 26.24253 15.9730131 28.1212178 15.9730131 28.4210582 8.13058523 30.3563207 10.0257953 31.7150344 8.60948765 27.6162428 5.38018445 22.9325038 7.93892069"></polygon>
                <polygon id="路径-32备份-3" fill="#FFFFFF" transform="translate(6.224904, 10.320732) rotate(91.000000) translate(-6.224904, -10.320732) " points="3.27614915 9.93993323 5.39967236 8.36127094 5.52954721 15.8017965 7.40823503 15.8017965 7.26329516 8.32874128 9.08959352 9.79244128 10.4498085 8.9136534 6.42611838 4.83966753 2.00000048 9.06114535"></polygon>
                <path d="M16.7209884,12 C18.160392,12 19.2698011,11.2329764 19.2698011,10.4473989 C19.2698011,9.66182149 18.2532896,9 16.813886,9 C15.3744824,9 14.2698011,9.76493929 14.2698011,10.5505167 C14.2698011,11.3360942 15.2815848,12 16.7209884,12 Z" id="椭圆形" fill="#23CCD1"></path>
            </g>
        </g>
    </g>
</svg>