<?xml version="1.0" encoding="UTF-8"?>
<svg width="42px" height="42px" viewBox="0 0 42 42" version="1.1" xmlns="http://www.w3.org/2000/svg" xmlns:xlink="http://www.w3.org/1999/xlink">
    <title>api-gateway</title>
    <g id="页面-1" stroke="none" stroke-width="1" fill="none" fill-rule="evenodd">
        <g id="api-gateway">
            <g id="背景区域" opacity="0" fill="#D8D8D8" fill-rule="nonzero">
                <rect id="矩形" x="0" y="0" width="42" height="42"></rect>
            </g>
            <g id="底块" transform="translate(1.000000, 1.000000)">
                <polygon id="路径-7备份-2" fill="#416480" fill-rule="nonzero" transform="translate(17.000000, 22.000000) scale(-1, 1) translate(-17.000000, -22.000000) " points="0 39 0 5 34 5 34 39"></polygon>
                <g id="编组" transform="translate(7.000000, 12.000000)">
                    <rect id="矩形备份-22" opacity="0.446149554" x="0" y="0" width="20" height="20"></rect>
                    <path d="M9.84384384,0.722222222 C11.2336336,0.722222222 12.4096096,1.84474474 12.4096096,3.28798799 C12.4096096,3.87597598 12.1957958,4.51741742 11.8216216,4.94504505 L11.8216216,4.94504505 L14.7081081,10.3438438 C14.9219219,10.2903904 15.1357357,10.2369369 15.3495495,10.2369369 C16.7927928,10.2369369 17.9687688,11.4129129 17.9687688,12.8027027 C17.9687688,14.1924925 16.8462462,15.3684685 15.403003,15.3684685 C14.3339339,15.3684685 13.4252252,14.6735736 13.0510511,13.8183183 L13.0510511,13.8183183 L6.74354354,13.8183183 C6.36936937,14.7804805 5.46066066,15.3684685 4.39159159,15.3684685 C3.0018018,15.3684685 1.82582583,14.1924925 1.82582583,12.8027027 C1.82582583,11.4129129 2.94834835,10.2369369 4.39159159,10.2369369 C4.4984985,10.2369369 4.65885886,10.2903904 4.76576577,10.2903904 L4.76576577,10.2903904 L7.86606607,4.89159159 C7.49189189,4.46396396 7.27807808,3.87597598 7.27807808,3.28798799 C7.27807808,1.8981982 8.45405405,0.722222222 9.84384384,0.722222222 Z M15.3495495,11.7870871 C14.759119,11.7870871 14.2804805,12.2657256 14.2804805,12.8561562 C14.2804805,13.4465867 14.759119,13.9252252 15.3495495,13.9252252 C15.9399801,13.9252252 16.4186186,13.4465867 16.4186186,12.8561562 C16.4186186,12.2657256 15.9399801,11.7870871 15.3495495,11.7870871 Z M4.33813814,11.7336336 C3.75015015,11.7336336 3.26906907,12.2147147 3.26906907,12.8027027 C3.26906907,13.3906907 3.75015015,13.8717718 4.33813814,13.8717718 C4.92612613,13.8717718 5.40720721,13.3906907 5.40720721,12.8027027 C5.40720721,12.2147147 4.92612613,11.7336336 4.33813814,11.7336336 Z M10.3783784,5.74684685 C10.218018,5.8003003 10.0576577,5.8003003 9.8972973,5.8003003 C9.68348348,5.8003003 9.46966967,5.8003003 9.30930931,5.74684685 L9.30930931,5.74684685 L6.26246246,11.0921922 C6.52972973,11.3594595 6.74354354,11.7870871 6.85045045,12.1612613 L6.85045045,12.1612613 L12.8906907,12.1612613 C12.9975976,11.8405405 13.1045045,11.5732733 13.3183183,11.306006 L13.3183183,11.306006 L10.3783784,5.74684685 Z M9.84384384,2.16546547 C9.25585586,2.16546547 8.77477477,2.64654655 8.77477477,3.23453453 C8.77477477,3.82252252 9.25585586,4.3036036 9.84384384,4.3036036 C10.4852853,4.3036036 10.9129129,3.82252252 10.9129129,3.23453453 C10.9129129,2.64654655 10.4318318,2.16546547 9.84384384,2.16546547 Z" id="形状结合" fill="#23CCD1" fill-rule="nonzero"></path>
                    <path d="M13.2114114,2.16546547 C13.3183183,2.37927928 13.4252252,2.53963964 13.639039,2.64654655 C16.0978979,3.98288288 17.754955,6.54864865 17.754955,9.54204204 L17.754955,9.91621622 C17.8618619,10.0231231 17.8618619,10.0765766 17.9687688,10.1834835 C18.5033033,10.7714715 19.5189189,10.4507508 19.5189189,9.64894895 L19.5189189,9.54204204 C19.5189189,5.90720721 17.4876877,2.75345345 14.4942943,1.0963964 C13.7459459,0.668768769 12.8906907,1.36366366 13.2114114,2.16546547 L13.2114114,2.16546547 Z" id="路径" fill="#EFF3F8" fill-rule="nonzero"></path>
                    <path d="M9.84384384,17.3462462 C8.34714715,17.3462462 7.01081081,16.9720721 5.83483483,16.2237237 C5.62102102,16.1168168 5.40720721,16.0633634 5.19339339,16.1168168 C4.44504505,16.2771772 4.28468468,17.2927928 4.92612613,17.666967 C6.36936937,18.5222222 8.07987988,19.0567568 9.8972973,19.0567568 C11.6612613,19.0567568 13.3183183,18.5756757 14.7081081,17.7738739 C15.3495495,17.3996997 15.2426426,16.4375375 14.5477477,16.2237237 C14.3339339,16.1168168 14.0666667,16.1702703 13.8528529,16.3306306 C12.56997,16.9720721 11.2870871,17.3462462 9.84384384,17.3462462 Z" id="路径" fill="#EFF3F8" fill-rule="nonzero"></path>
                    <path d="M1.98618619,9.54204204 C1.98618619,6.54864865 3.64324324,3.98288288 6.15555556,2.64654655 C6.36936937,2.53963964 6.52972973,2.32582583 6.58318318,2.11201201 L6.58318318,2.05855856 C6.796997,1.31021021 5.9951952,0.722222222 5.35375375,1.04294294 C2.36036036,2.59309309 0.222222222,5.8003003 0.222222222,9.48858859 L0.222222222,9.86276276 C0.275675676,10.718018 1.29129129,10.9852853 1.77237237,10.3438438 L1.77237237,10.2903904 C1.93273273,10.1834835 2.03963964,9.91621622 1.98618619,9.7024024 C1.98618619,9.75585586 1.98618619,9.54204204 1.98618619,9.54204204 Z" id="路径" fill="#EFF3F8" fill-rule="nonzero"></path>
                </g>
                <polygon id="路径-7备份-6" fill="#EEF3F7" fill-rule="nonzero" transform="translate(20.000000, 2.500000) rotate(180.000000) translate(-20.000000, -2.500000) " points="0 5 6 0 40 0 32.2 5"></polygon>
                <polygon id="路径-7备份-5" fill="#AFC0C8" fill-rule="nonzero" transform="translate(37.000000, 19.500000) scale(-1, 1) translate(-37.000000, -19.500000) " points="34 33 34 -1.69135539e-17 40 5 40 39"></polygon>
                <polygon id="路径-7备份-4" stroke="#FFFFFF" opacity="0.25" transform="translate(17.000000, 22.000000) scale(-1, 1) translate(-17.000000, -22.000000) " points="31.5 7.5 31.5 36.5 2.5 36.5 2.5 7.5"></polygon>
                <polygon id="路径-7备份-4" stroke="#32526B" transform="translate(17.000000, 22.000000) scale(-1, 1) translate(-17.000000, -22.000000) " points="30.5 8.5 30.5 35.5 3.5 35.5 3.5 8.5"></polygon>
            </g>
        </g>
    </g>
</svg>