<?xml version="1.0" encoding="UTF-8"?>
<svg width="42px" height="42px" viewBox="0 0 42 42" version="1.1" xmlns="http://www.w3.org/2000/svg" xmlns:xlink="http://www.w3.org/1999/xlink">
    <title>backup-device</title>
    <g id="页面-1" stroke="none" stroke-width="1" fill="none" fill-rule="evenodd">
        <g id="backup-device">
            <g id="背景区域" opacity="0" fill="#D8D8D8" fill-rule="nonzero">
                <rect id="矩形" x="-4.26325641e-14" y="0" width="42" height="42"></rect>
            </g>
            <g id="底块" transform="translate(0.909091, 0.424242)">
                <polygon id="路径-7备份-2" fill="#416480" fill-rule="nonzero" transform="translate(17.090909, 22.575758) scale(-1, 1) translate(-17.090909, -22.575758) " points="0.0909089 39.5757576 0.0909089 5.57575758 34.0909089 5.57575758 34.0909089 39.5757576"></polygon>
                <polygon id="路径-7备份-6" fill="#EEF3F7" fill-rule="nonzero" transform="translate(20.090909, 3.075758) rotate(180.000000) translate(-20.090909, -3.075758) " points="0.0909089 5.57575842 6.0909089 0.57575842 40.0909089 0.57575842 32.2909089 5.57575842"></polygon>
                <polygon id="路径-7备份-5" fill="#AFC0C8" fill-rule="nonzero" transform="translate(37.090909, 20.075758) scale(-1, 1) translate(-37.090909, -20.075758) " points="34.0909089 33.5757576 34.0909089 0.575757576 40.0909089 5.57575758 40.0909089 39.5757576"></polygon>
                <polygon id="路径-7备份-4" stroke="#FFFFFF" opacity="0.25" transform="translate(17.090909, 22.575758) scale(-1, 1) translate(-17.090909, -22.575758) " points="31.5909089 8.07575758 31.5909089 37.0757576 2.5909089 37.0757576 2.5909089 8.07575758"></polygon>
                <polygon id="路径-7备份-4" stroke="#32526B" transform="translate(17.090909, 22.575758) scale(-1, 1) translate(-17.090909, -22.575758) " points="30.5909089 9.07575758 30.5909089 36.0757576 3.5909089 36.0757576 3.5909089 9.07575758"></polygon>
            </g>
            <g id="Icon/备份设备" transform="translate(8.000000, 13.000000)">
                <rect id="矩形" fill="#D8D8D8" fill-rule="nonzero" opacity="0" x="0" y="0" width="20" height="20"></rect>
                <g id="备份设备">
                    <rect id="矩形备份-3" fill="#D8D8D8" fill-rule="nonzero" opacity="0" x="0" y="0" width="20" height="20"></rect>
                    <g id="编组" transform="translate(1.000000, 0.000000)">
                        <polygon id="矩形备份-2" points="0 1 18 1 18 19 12.2423395 19 0 19"></polygon>
                        <g transform="translate(0.000000, 0.500000)" fill-rule="nonzero">
                            <path d="M17.6914286,9.02285714 L17.6914286,17.5942857 L12.6942857,17.5942857 L12.6942857,16.6171429 C12.6942857,15.7239098 12.0096161,14.984535 11.1285748,14.9091804 L10.98,14.9028571 L7.23428571,14.9028571 C6.34105263,14.9028571 5.60167788,15.5875267 5.52632329,16.4685681 L5.52,16.6171429 L5.52,17.5942857 L0.548571429,17.5942857 L0.548571429,9.02285714 L17.6914286,9.02285714 Z M14.3142857,10.1714286 C14.1012616,10.1714286 13.9285714,10.3441187 13.9285714,10.5571429 C13.9285714,10.770167 14.1012616,10.9428571 14.3142857,10.9428571 C14.5273098,10.9428571 14.7,10.770167 14.7,10.5571429 C14.7,10.3441187 14.5273098,10.1714286 14.3142857,10.1714286 Z M15.9685714,10.1714286 C15.7555473,10.1714286 15.5828571,10.3441187 15.5828571,10.5571429 C15.5828571,10.770167 15.7555473,10.9428571 15.9685714,10.9428571 C16.1815955,10.9428571 16.3542857,10.770167 16.3542857,10.5571429 C16.3542857,10.3441187 16.1815955,10.1714286 15.9685714,10.1714286 Z" id="形状结合" fill="#EFF3F8"></path>
                            <path d="M5.61428571,5.91142857 L5.61428571,5.19142857 L1.5,5.19142857 C0.977142857,5.19142857 0.548571429,5.62 0.548571429,6.14285714 L0.548571429,6.86285714 L0.548571429,8.53428571 L17.6914286,8.53428571 L17.6914286,7.81428571 C17.6914286,7.29142857 17.2628571,6.86285714 16.74,6.86285714 L6.57428571,6.86285714 C6.04285714,6.86285714 5.61428571,6.43428571 5.61428571,5.91142857 Z" id="路径" fill="#23CCD1"></path>
                            <path d="M16.1142686,0.823228972 C16.4959287,0.662267973 16.93581,0.841179944 17.096771,1.22284004 C17.2443186,1.57269514 17.1062785,1.97147222 16.7882717,2.15948647 L16.69716,2.20534246 L6.8400171,6.36248531 C6.458357,6.52344631 6.01847568,6.34453434 5.85751469,5.96287424 C5.7099671,5.61301915 5.84800723,5.21424207 6.16601401,5.02622781 L6.25712576,4.98037183 L16.1142686,0.823228972 Z" id="路径" fill="#23CCD1"></path>
                            <path d="M12.24,16.6857143 L5.99142857,16.6857143 L5.99142857,16.6857143 C5.99142857,16 6.54857143,15.4428571 7.23428571,15.4428571 L11.0057143,15.4428571 C11.6828571,15.4428571 12.24,16 12.24,16.6857143 L12.24,16.6857143 Z" id="路径" fill="#23CCD1"></path>
                        </g>
                    </g>
                </g>
            </g>
        </g>
    </g>
</svg>