<?xml version="1.0" encoding="UTF-8"?>
<svg width="42px" height="42px" viewBox="0 0 42 42" version="1.1" xmlns="http://www.w3.org/2000/svg" xmlns:xlink="http://www.w3.org/1999/xlink">
    <title>cloud-direct-connect</title>
    <g id="页面-1" stroke="none" stroke-width="1" fill="none" fill-rule="evenodd">
        <g id="cloud-direct-connect">
            <g id="背景区域" opacity="0" fill="#D8D8D8" fill-rule="nonzero">
                <rect id="矩形" x="0" y="0" width="42" height="42"></rect>
            </g>
            <g id="底块" transform="translate(0.909091, 0.424242)">
                <polygon id="路径-7备份-2" fill="#416480" fill-rule="nonzero" transform="translate(17.090909, 22.575758) scale(-1, 1) translate(-17.090909, -22.575758) " points="0.0909089 39.5757576 0.0909089 5.57575758 34.0909089 5.57575758 34.0909089 39.5757576"></polygon>
                <polygon id="路径-7备份-6" fill="#EEF3F7" fill-rule="nonzero" transform="translate(20.090909, 3.075758) rotate(180.000000) translate(-20.090909, -3.075758) " points="0.0909089 5.57575842 6.0909089 0.57575842 40.0909089 0.57575842 32.2909089 5.57575842"></polygon>
                <polygon id="路径-7备份-5" fill="#AFC0C8" fill-rule="nonzero" transform="translate(37.090909, 20.075758) scale(-1, 1) translate(-37.090909, -20.075758) " points="34.0909089 33.5757576 34.0909089 0.575757576 40.0909089 5.57575758 40.0909089 39.5757576"></polygon>
                <polygon id="路径-7备份-4" stroke="#FFFFFF" opacity="0.25" transform="translate(17.090909, 22.575758) scale(-1, 1) translate(-17.090909, -22.575758) " points="31.5909089 8.07575758 31.5909089 37.0757576 2.5909089 37.0757576 2.5909089 8.07575758"></polygon>
                <polygon id="路径-7备份-4" stroke="#32526B" transform="translate(17.090909, 22.575758) scale(-1, 1) translate(-17.090909, -22.575758) " points="30.5909089 9.07575758 30.5909089 36.0757576 3.5909089 36.0757576 3.5909089 9.07575758"></polygon>
            </g>
            <g id="Icon/云专线" transform="translate(8.000000, 13.000000)">
                <rect id="矩形" fill="#D8D8D8" fill-rule="nonzero" opacity="0" x="0" y="3.55271368e-15" width="20" height="20"></rect>
                <g id="云专线">
                    <rect id="矩形备份-3" fill="#D8D8D8" fill-rule="nonzero" opacity="0" x="0" y="3.55271368e-15" width="20" height="20"></rect>
                    <g id="编组">
                        <polygon id="矩形备份-7" points="1.14108108 1.48648649 18.6545946 1.48648649 18.6545946 19 13.0525466 19 1.14108108 19"></polygon>
                        <g transform="translate(0.486486, 0.287027)" fill-rule="nonzero">
                            <path d="M13.3067181,12.9004633 C13.0305758,12.9004633 12.8067181,12.6766057 12.8067181,12.4004633 C12.8067181,12.1550034 12.9835933,11.950855 13.2168425,11.908519 L13.3067181,11.9004633 L14.1490347,11.9004633 C15.8860963,11.842803 17.2684942,10.4161684 17.2684942,8.6642471 C17.2684942,6.97131681 15.971433,5.5786425 14.3265589,5.44574535 L14.1490347,5.43637066 L13.6818208,5.43637066 L13.6425311,4.97918161 C13.4799575,3.08741617 11.8976299,1.62509653 9.98749035,1.62509653 C8.05642858,1.62509653 6.50297326,3.13926485 6.32945797,5.12430659 L6.25825409,6.10176829 L6.21402242,6.80947493 L5.41768261,6.4670164 C5.03958858,6.33357145 4.78574918,6.27868726 4.39984556,6.27868726 C2.90768235,6.27868726 1.68935499,7.43972308 1.59482876,8.91023599 L1.591,9.003 L1.5972973,9.08957529 C1.5972973,10.5768685 2.74637395,11.7931682 4.20517616,11.8938457 L4.37482625,11.9004633 L5.22548263,11.9004633 C5.501625,11.9004633 5.72548263,12.1243209 5.72548263,12.4004633 C5.72548263,12.6459232 5.54860746,12.8500717 5.31535826,12.8924077 L5.22548263,12.9004633 L4.37023929,12.9004633 C2.41123486,12.8824698 0.812585112,11.3915842 0.617332939,9.48343149 L0.597013198,9.18779069 L0.588957529,9.09791506 L0.588957529,9.07895244 C0.598563812,6.97631803 2.29915729,5.27868726 4.39984556,5.27868726 C4.65828371,5.27868726 4.87698313,5.29803436 5.09437415,5.3398656 L5.309,5.388 L5.31800281,5.27506897 C5.42153022,2.67747212 7.44272331,0.625096525 9.98749035,0.625096525 C12.1972612,0.625096525 14.0623886,2.16311536 14.5386805,4.25151577 L14.582,4.468 L14.7718722,4.49607431 C16.6953126,4.82648126 18.1675006,6.46324424 18.2635093,8.45678499 L18.2684942,8.6642471 C18.2684942,10.8864682 16.5660391,12.7107418 14.365133,12.8886462 L14.1573745,12.9004633 L13.3067181,12.9004633 Z" id="形状" fill="#EFF3F8"></path>
                            <path d="M11.5637066,7.39698842 C11.8091665,7.39698842 12.0133149,7.57386358 12.0556509,7.80711278 L12.0637066,7.89698842 L12.0637066,13.9016216 L12.0637066,13.9016216 C12.0637066,14.7698875 11.3644821,15.469112 10.4962162,15.469112 C9.62795029,15.469112 8.92872587,14.7698875 8.92872587,13.9016216 L8.92872587,10.899305 C8.92872587,10.5833238 8.6772167,10.3318147 8.36123552,10.3318147 C8.07685246,10.3318147 7.84469173,10.5355371 7.80110341,10.8066319 L7.79274517,10.8939884 L7.79374517,10.899305 L7.79374517,16.912278 C7.79374517,17.1884204 7.56988755,17.412278 7.29374517,17.412278 C7.04828528,17.412278 6.8441368,17.2354028 6.80180084,17.0021536 L6.79374517,16.912278 L6.79374517,10.899305 C6.79374517,10.0310391 7.49296959,9.33181467 8.36123552,9.33181467 C9.18126445,9.33181467 9.85051253,9.95550559 9.92234248,10.7562501 L9.92872587,10.899305 L9.92872587,13.9016216 C9.92872587,14.2176028 10.180235,14.469112 10.4962162,14.469112 C10.7805993,14.469112 11.01276,14.2653895 11.0563483,13.9942948 L11.0637066,13.9016216 L11.0637066,7.89698842 C11.0637066,7.62084604 11.2875642,7.39698842 11.5637066,7.39698842 Z" id="形状结合" fill="#23CCD1"></path>
                            <circle id="椭圆形" fill="#23CCD1" cx="7.32432432" cy="17.0540541" r="1"></circle>
                            <circle id="椭圆形" fill="#23CCD1" cx="11.6054054" cy="8.2972973" r="1"></circle>
                        </g>
                    </g>
                </g>
            </g>
        </g>
    </g>
</svg>