<?xml version="1.0" encoding="UTF-8"?>
<svg width="42px" height="42px" viewBox="0 0 42 42" version="1.1" xmlns="http://www.w3.org/2000/svg" xmlns:xlink="http://www.w3.org/1999/xlink">
    <title>cloud-storage</title>
    <g id="页面-1" stroke="none" stroke-width="1" fill="none" fill-rule="evenodd">
        <g id="cloud-storage">
            <g id="背景区域" opacity="0" fill="#D8D8D8" fill-rule="nonzero">
                <rect id="矩形" x="0" y="0" width="42" height="42"></rect>
            </g>
            <g id="底块" transform="translate(0.909091, 0.424242)">
                <polygon id="路径-7备份-2" fill="#416480" fill-rule="nonzero" transform="translate(17.090909, 22.575758) scale(-1, 1) translate(-17.090909, -22.575758) " points="0.0909089 39.5757576 0.0909089 5.57575758 34.0909089 5.57575758 34.0909089 39.5757576"></polygon>
                <g id="云储存" transform="translate(7.090909, 12.575758)">
                    <rect id="矩形" x="0" y="0" width="20" height="20"></rect>
                    <g id="编组" transform="translate(2.222222, 0.000000)" fill-rule="nonzero">
                        <path d="M13.752381,0.933333333 C14.847619,0.933333333 15.7333333,1.81904762 15.7333333,2.91428571 L15.7333333,14.9904762 C15.7238095,16.0380952 14.8761905,16.8952381 13.8190476,16.8952381 L2.06666667,16.8952381 C1.00952381,16.8952381 0.161904762,16.0380952 0.161904762,14.9904762 L0.161904762,2.91428571 C0.161904762,1.81904762 1.04761905,0.933333333 2.14285714,0.933333333 L13.752381,0.933333333 Z M8,5.54285714 C6.91428571,5.54285714 6.08571429,6.41904762 6.03809524,7.5047619 C6.03809524,7.57142857 6.00952381,7.80952381 6.00952381,7.86666667 L5.92380952,7.82857143 C5.79047619,7.78095238 5.61904762,7.72380952 5.36190476,7.72380952 C4.5047619,7.72380952 3.80952381,8.41904762 3.80952381,9.27619048 L3.80952381,9.28571429 C3.80952381,10.1428571 4.4952381,10.8380952 5.35238095,10.8380952 L9.95238095,10.8380952 C10.8952381,10.8095238 11.6571429,10.0380952 11.6571429,9.08571429 C11.6571429,8.18345865 10.9733281,7.44360902 10.0996647,7.34393602 L9.95238095,7.33333333 C9.86666667,6.33333333 9.02857143,5.54285714 8,5.54285714 Z" id="形状结合" fill="#23CCD1"></path>
                        <path d="M13.7428571,17.2571429 L13.7428571,19.0285714 C13.752381,19.552381 13.3238095,19.9809524 12.7904762,19.9809524 L3.07619048,19.9809524 C2.55238095,19.9809524 2.12380952,19.552381 2.12380952,19.0285714 L2.12380952,17.2571429 L13.7428571,17.2571429 Z M3.72380952,17.7238095 C3.50289562,17.7238095 3.32380952,17.8943677 3.32380952,18.1047619 L3.32380952,18.1047619 L3.32380952,19.0761905 L3.3319361,19.1529657 C3.36923461,19.3265592 3.53050986,19.4571429 3.72380952,19.4571429 C3.94472342,19.4571429 4.12380952,19.2865847 4.12380952,19.0761905 L4.12380952,19.0761905 L4.12380952,18.1047619 L4.11568295,18.0279867 C4.07838444,17.8543931 3.91710919,17.7238095 3.72380952,17.7238095 Z M4.87619048,17.7238095 C4.65527658,17.7238095 4.47619048,17.8943677 4.47619048,18.1047619 L4.47619048,18.1047619 L4.47619048,19.0761905 L4.48431705,19.1529657 C4.52161556,19.3265592 4.68289081,19.4571429 4.87619048,19.4571429 C5.09710438,19.4571429 5.27619048,19.2865847 5.27619048,19.0761905 L5.27619048,19.0761905 L5.27619048,18.1047619 L5.2680639,18.0279867 C5.23076539,17.8543931 5.06949014,17.7238095 4.87619048,17.7238095 Z M6.03809524,17.7238095 C5.81718134,17.7238095 5.63809524,17.8943677 5.63809524,18.1047619 L5.63809524,18.1047619 L5.63809524,19.0761905 L5.64622182,19.1529657 C5.68352032,19.3265592 5.84479558,19.4571429 6.03809524,19.4571429 C6.25900914,19.4571429 6.43809524,19.2865847 6.43809524,19.0761905 L6.43809524,19.0761905 L6.43809524,18.1047619 L6.42996866,18.0279867 C6.39267015,17.8543931 6.2313949,17.7238095 6.03809524,17.7238095 Z M7.23809524,17.7238095 C7.01718134,17.7238095 6.83809524,17.8943677 6.83809524,18.1047619 L6.83809524,18.1047619 L6.83809524,19.0761905 L6.84622182,19.1529657 C6.88352032,19.3265592 7.04479558,19.4571429 7.23809524,19.4571429 C7.45900914,19.4571429 7.63809524,19.2865847 7.63809524,19.0761905 L7.63809524,19.0761905 L7.63809524,18.1047619 L7.62996866,18.0279867 C7.59267015,17.8543931 7.4313949,17.7238095 7.23809524,17.7238095 Z M8.4,17.7238095 C8.1790861,17.7238095 8,17.8943677 8,18.1047619 L8,18.1047619 L8,19.0761905 L8.00812658,19.1529657 C8.04542508,19.3265592 8.20670034,19.4571429 8.4,19.4571429 C8.6209139,19.4571429 8.8,19.2865847 8.8,19.0761905 L8.8,19.0761905 L8.8,18.1047619 L8.79187342,18.0279867 C8.75457492,17.8543931 8.59329966,17.7238095 8.4,17.7238095 Z M9.55238095,17.7238095 C9.33146705,17.7238095 9.15238095,17.8943677 9.15238095,18.1047619 L9.15238095,18.1047619 L9.15238095,19.0761905 L9.16050753,19.1529657 C9.19780604,19.3265592 9.35908129,19.4571429 9.55238095,19.4571429 C9.77329485,19.4571429 9.95238095,19.2865847 9.95238095,19.0761905 L9.95238095,19.0761905 L9.95238095,18.1047619 L9.94425437,18.0279867 C9.90695587,17.8543931 9.74568061,17.7238095 9.55238095,17.7238095 Z M10.7714286,17.7238095 C10.5505147,17.7238095 10.3714286,17.8943677 10.3714286,18.1047619 L10.3714286,18.1047619 L10.3714286,19.0761905 L10.3795551,19.1529657 C10.4168537,19.3265592 10.5781289,19.4571429 10.7714286,19.4571429 C10.9923425,19.4571429 11.1714286,19.2865847 11.1714286,19.0761905 L11.1714286,19.0761905 L11.1714286,18.1047619 L11.163302,18.0279867 C11.1260035,17.8543931 10.9647282,17.7238095 10.7714286,17.7238095 Z M11.9333333,17.7238095 C11.7124194,17.7238095 11.5333333,17.8943677 11.5333333,18.1047619 L11.5333333,18.1047619 L11.5333333,19.0761905 L11.5414599,19.1529657 C11.5787584,19.3265592 11.7400337,19.4571429 11.9333333,19.4571429 C12.1542472,19.4571429 12.3333333,19.2865847 12.3333333,19.0761905 L12.3333333,19.0761905 L12.3333333,18.1047619 L12.3252068,18.0279867 C12.2879082,17.8543931 12.126633,17.7238095 11.9333333,17.7238095 Z" id="形状结合" fill="#FFFFFF"></path>
                    </g>
                </g>
                <polygon id="路径-7备份-6" fill="#EEF3F7" fill-rule="nonzero" transform="translate(20.090909, 3.075758) rotate(180.000000) translate(-20.090909, -3.075758) " points="0.0909089 5.57575842 6.0909089 0.57575842 40.0909089 0.57575842 32.2909089 5.57575842"></polygon>
                <polygon id="路径-7备份-5" fill="#AFC0C8" fill-rule="nonzero" transform="translate(37.090909, 20.075758) scale(-1, 1) translate(-37.090909, -20.075758) " points="34.0909089 33.5757576 34.0909089 0.575757576 40.0909089 5.57575758 40.0909089 39.5757576"></polygon>
                <polygon id="路径-7备份-4" stroke="#FFFFFF" opacity="0.25" transform="translate(17.090909, 22.575758) scale(-1, 1) translate(-17.090909, -22.575758) " points="31.5909089 8.07575758 31.5909089 37.0757576 2.5909089 37.0757576 2.5909089 8.07575758"></polygon>
                <polygon id="路径-7备份-4" stroke="#32526B" transform="translate(17.090909, 22.575758) scale(-1, 1) translate(-17.090909, -22.575758) " points="30.5909089 9.07575758 30.5909089 36.0757576 3.5909089 36.0757576 3.5909089 9.07575758"></polygon>
            </g>
        </g>
    </g>
</svg>