<?xml version="1.0" encoding="UTF-8"?>
<svg width="42px" height="42px" viewBox="0 0 42 42" version="1.1" xmlns="http://www.w3.org/2000/svg" xmlns:xlink="http://www.w3.org/1999/xlink">
    <title>cluster</title>
    <g id="页面-1" stroke="none" stroke-width="1" fill="none" fill-rule="evenodd">
        <g id="cluster">
            <g id="背景区域" opacity="0" fill="#D8D8D8" fill-rule="nonzero">
                <rect id="矩形" x="0" y="0" width="42" height="42"></rect>
            </g>
            <g id="底块" transform="translate(0.909091, 0.424242)">
                <polygon id="路径-7备份-2" fill="#416480" fill-rule="nonzero" transform="translate(17.090909, 22.575758) scale(-1, 1) translate(-17.090909, -22.575758) " points="0.0909089 39.5757576 0.0909089 5.57575758 34.0909089 5.57575758 34.0909089 39.5757576"></polygon>
                <polygon id="路径-7备份-6" fill="#EEF3F7" fill-rule="nonzero" transform="translate(20.090909, 3.075758) rotate(180.000000) translate(-20.090909, -3.075758) " points="0.0909089 5.57575842 6.0909089 0.57575842 40.0909089 0.57575842 32.2909089 5.57575842"></polygon>
                <polygon id="路径-7备份-5" fill="#AFC0C8" fill-rule="nonzero" transform="translate(37.090909, 20.075758) scale(-1, 1) translate(-37.090909, -20.075758) " points="34.0909089 33.5757576 34.0909089 0.575757576 40.0909089 5.57575758 40.0909089 39.5757576"></polygon>
                <polygon id="路径-7备份-4" stroke="#FFFFFF" opacity="0.25" transform="translate(17.090909, 22.575758) scale(-1, 1) translate(-17.090909, -22.575758) " points="31.5909089 8.07575758 31.5909089 37.0757576 2.5909089 37.0757576 2.5909089 8.07575758"></polygon>
                <polygon id="路径-7备份-4" stroke="#32526B" transform="translate(17.090909, 22.575758) scale(-1, 1) translate(-17.090909, -22.575758) " points="30.5909089 9.07575758 30.5909089 36.0757576 3.5909089 36.0757576 3.5909089 9.07575758"></polygon>
            </g>
            <g id="Icon/集群" transform="translate(8.000000, 13.000000)">
                <rect id="矩形" fill="#D8D8D8" fill-rule="nonzero" opacity="0" x="0" y="0" width="19.3333333" height="19.3333333"></rect>
                <g id="集群" transform="translate(1.000000, 1.000000)">
                    <rect id="矩形" x="0" y="0" width="18" height="18"></rect>
                    <g id="形状结合" transform="translate(5.000000, 0.000000)" fill="#000000" fill-rule="nonzero">
                        <path d="M3.75,0.575 C3.9,0.475 4.1,0.475 4.25,0.575 L4.25,0.575 L7.7,2.525 C7.85,2.625 7.95,2.775 7.95,2.975 L7.95,2.975 L7.95,6.925 C7.95,7.125 7.85,7.275 7.7,7.375 L7.7,7.375 L4.25,9.325 C4.1,9.425 3.9,9.425 3.75,9.325 L3.75,9.325 L0.3,7.375 C0.15,7.275 0.05,7.125 0.05,6.925 L0.05,6.925 L0.05,2.975 C0.05,2.775 0.15,2.625 0.3,2.525 L0.3,2.525 L3.75,0.575 Z M0.7,3.675 C0.65,3.725 0.65,3.825 0.65,3.925 L0.65,6.875 C0.65,7.025 0.75,7.225 0.9,7.275 L3.5,8.725 C3.75,8.875 4.05,8.775 4.15,8.525 C4.2,8.475 4.2,8.375 4.2,8.275 L4.2,5.325 C4.2,5.175 4.1,4.975 3.95,4.925 L1.35,3.475 C1.1,3.325 0.8,3.425 0.7,3.675 Z" id="path-1"></path>
                    </g>
                    <g id="形状结合" transform="translate(0.000000, 8.000000)" fill="#000000" fill-rule="nonzero">
                        <path d="M3.85,0.525 C4,0.425 4.2,0.425 4.35,0.525 L4.35,0.525 L7.8,2.475 C7.95,2.575 8.05,2.725 8.05,2.925 L8.05,2.925 L8.05,6.875 C8.05,7.075 7.95,7.225 7.8,7.325 L7.8,7.325 L4.35,9.275 C4.2,9.375 4,9.375 3.85,9.275 L3.85,9.275 L0.4,7.325 C0.25,7.225 0.15,7.075 0.15,6.875 L0.15,6.875 L0.15,2.925 C0.15,2.725 0.25,2.575 0.4,2.475 L0.4,2.475 L3.85,0.525 Z M0.8,3.525 C0.75,3.575 0.75,3.675 0.75,3.775 L0.75,6.725 C0.75,6.875 0.85,7.075 1,7.125 L3.6,8.575 C3.85,8.725 4.15,8.625 4.25,8.375 C4.3,8.325 4.3,8.225 4.3,8.125 L4.3,5.175 C4.3,5.025 4.2,4.825 4.05,4.775 L1.45,3.325 C1.2,3.175 0.9,3.275 0.8,3.525 Z" id="path-3"></path>
                    </g>
                    <g id="形状结合" transform="translate(9.000000, 8.000000)" fill="#000000" fill-rule="nonzero">
                        <path d="M4.65,0.525 C4.8,0.425 5,0.425 5.15,0.525 L5.15,0.525 L8.6,2.475 C8.75,2.575 8.85,2.725 8.85,2.925 L8.85,2.925 L8.85,6.875 C8.85,7.075 8.75,7.225 8.6,7.325 L8.6,7.325 L5.15,9.275 C5,9.375 4.8,9.375 4.65,9.275 L4.65,9.275 L1.2,7.325 C1.05,7.225 0.95,7.075 0.95,6.875 L0.95,6.875 L0.95,2.925 C0.95,2.725 1.05,2.575 1.2,2.475 L1.2,2.475 L4.65,0.525 Z M1.6,3.525 C1.55,3.575 1.55,3.675 1.55,3.775 L1.55,6.725 C1.55,6.875 1.65,7.075 1.8,7.125 L4.4,8.575 C4.65,8.725 4.95,8.625 5.05,8.375 C5.1,8.325 5.1,8.225 5.1,8.125 L5.1,5.175 C5.1,5.025 5,4.825 4.85,4.775 L2.25,3.325 C2,3.175 1.7,3.275 1.6,3.525 Z" id="path-5"></path>
                    </g>
                </g>
            </g>
            <g id="Icon/集群" transform="translate(8.000000, 13.000000)">
                <rect id="矩形" fill="#D8D8D8" fill-rule="nonzero" opacity="0" x="0" y="0" width="19.3333333" height="19.3333333"></rect>
                <g id="集群" transform="translate(1.000000, 1.000000)">
                    <rect id="矩形" x="0" y="0" width="18" height="18"></rect>
                    <path d="M8.75,0.575 C8.9,0.475 9.1,0.475 9.25,0.575 L9.25,0.575 L12.7,2.525 C12.85,2.625 12.95,2.775 12.95,2.975 L12.95,2.975 L12.95,6.925 C12.95,7.125 12.85,7.275 12.7,7.375 L12.7,7.375 L9.25,9.325 C9.1,9.425 8.9,9.425 8.75,9.325 L8.75,9.325 L5.3,7.375 C5.15,7.275 5.05,7.125 5.05,6.925 L5.05,6.925 L5.05,2.975 C5.05,2.775 5.15,2.625 5.3,2.525 L5.3,2.525 L8.75,0.575 Z M5.7,3.675 C5.65,3.725 5.65,3.825 5.65,3.925 L5.65,6.875 C5.65,7.025 5.75,7.225 5.9,7.275 L8.5,8.725 C8.75,8.875 9.05,8.775 9.15,8.525 C9.2,8.475 9.2,8.375 9.2,8.275 L9.2,5.325 C9.2,5.175 9.1,4.975 8.95,4.925 L6.35,3.475 C6.1,3.325 5.8,3.425 5.7,3.675 Z" id="形状结合" fill="#23CCD1" fill-rule="nonzero"></path>
                    <path d="M3.85,8.525 C4,8.425 4.2,8.425 4.35,8.525 L4.35,8.525 L7.8,10.475 C7.95,10.575 8.05,10.725 8.05,10.925 L8.05,10.925 L8.05,14.875 C8.05,15.075 7.95,15.225 7.8,15.325 L7.8,15.325 L4.35,17.275 C4.2,17.375 4,17.375 3.85,17.275 L3.85,17.275 L0.4,15.325 C0.25,15.225 0.15,15.075 0.15,14.875 L0.15,14.875 L0.15,10.925 C0.15,10.725 0.25,10.575 0.4,10.475 L0.4,10.475 L3.85,8.525 Z M0.8,11.525 C0.75,11.575 0.75,11.675 0.75,11.775 L0.75,14.725 C0.75,14.875 0.85,15.075 1,15.125 L3.6,16.575 C3.85,16.725 4.15,16.625 4.25,16.375 C4.3,16.325 4.3,16.225 4.3,16.125 L4.3,13.175 C4.3,13.025 4.2,12.825 4.05,12.775 L1.45,11.325 C1.2,11.175 0.9,11.275 0.8,11.525 Z" id="形状结合" fill="#EFF3F8" fill-rule="nonzero"></path>
                    <path d="M13.65,8.525 C13.8,8.425 14,8.425 14.15,8.525 L14.15,8.525 L17.6,10.475 C17.75,10.575 17.85,10.725 17.85,10.925 L17.85,10.925 L17.85,14.875 C17.85,15.075 17.75,15.225 17.6,15.325 L17.6,15.325 L14.15,17.275 C14,17.375 13.8,17.375 13.65,17.275 L13.65,17.275 L10.2,15.325 C10.05,15.225 9.95,15.075 9.95,14.875 L9.95,14.875 L9.95,10.925 C9.95,10.725 10.05,10.575 10.2,10.475 L10.2,10.475 L13.65,8.525 Z M10.6,11.525 C10.55,11.575 10.55,11.675 10.55,11.775 L10.55,14.725 C10.55,14.875 10.65,15.075 10.8,15.125 L13.4,16.575 C13.65,16.725 13.95,16.625 14.05,16.375 C14.1,16.325 14.1,16.225 14.1,16.125 L14.1,13.175 C14.1,13.025 14,12.825 13.85,12.775 L11.25,11.325 C11,11.175 10.7,11.275 10.6,11.525 Z" id="形状结合" fill="#EFF3F8" fill-rule="nonzero"></path>
                </g>
            </g>
        </g>
    </g>
</svg>