<?xml version="1.0" encoding="UTF-8"?>
<svg width="42px" height="42px" viewBox="0 0 42 42" version="1.1" xmlns="http://www.w3.org/2000/svg" xmlns:xlink="http://www.w3.org/1999/xlink">
    <title>config-package</title>
    <g id="页面-1" stroke="none" stroke-width="1" fill="none" fill-rule="evenodd">
        <g id="config-package">
            <g id="背景区域" opacity="0" fill="#D8D8D8" fill-rule="nonzero">
                <rect id="矩形" x="0" y="0" width="42" height="42"></rect>
            </g>
            <g id="底块" transform="translate(0.909091, 0.424242)">
                <polygon id="路径-7备份-2" fill="#416480" fill-rule="nonzero" transform="translate(17.090909, 22.575758) scale(-1, 1) translate(-17.090909, -22.575758) " points="0.0909089 39.5757576 0.0909089 5.57575758 34.0909089 5.57575758 34.0909089 39.5757576"></polygon>
                <polygon id="路径-7备份-6" fill="#EEF3F7" fill-rule="nonzero" transform="translate(20.090909, 3.075758) rotate(180.000000) translate(-20.090909, -3.075758) " points="0.0909089 5.57575842 6.0909089 0.57575842 40.0909089 0.57575842 32.2909089 5.57575842"></polygon>
                <polygon id="路径-7备份-5" fill="#AFC0C8" fill-rule="nonzero" transform="translate(37.090909, 20.075758) scale(-1, 1) translate(-37.090909, -20.075758) " points="34.0909089 33.5757576 34.0909089 0.575757576 40.0909089 5.57575758 40.0909089 39.5757576"></polygon>
                <polygon id="路径-7备份-4" stroke="#FFFFFF" opacity="0.25" transform="translate(17.090909, 22.575758) scale(-1, 1) translate(-17.090909, -22.575758) " points="31.5909089 8.07575758 31.5909089 37.0757576 2.5909089 37.0757576 2.5909089 8.07575758"></polygon>
                <polygon id="路径-7备份-4" stroke="#32526B" transform="translate(17.090909, 22.575758) scale(-1, 1) translate(-17.090909, -22.575758) " points="30.5909089 9.07575758 30.5909089 36.0757576 3.5909089 36.0757576 3.5909089 9.07575758"></polygon>
            </g>
            <g id="Icon/配置包" transform="translate(8.000000, 13.000000)" fill-rule="nonzero">
                <rect id="矩形" fill="#D8D8D8" opacity="0" x="0" y="3.55271368e-15" width="20" height="20"></rect>
                <g id="服务节点">
                    <rect id="矩形备份-3" fill="#D8D8D8" opacity="0" x="0" y="3.55271368e-15" width="20" height="20"></rect>
                    <g id="配置包" transform="translate(1.000000, 1.000000)">
                        <path d="M10.8128453,0.918576433 C10.9095304,0.623813264 11.2479282,0.427304484 11.5379834,0.525558874 C12.7948895,0.967703628 13.9551105,1.60635716 14.9219613,2.53977387 C15.163674,2.73628265 15.163674,3.12930021 14.9703039,3.37493618 C14.6319061,3.81708093 14.535221,4.30835288 14.5835635,4.84875203 C14.7285912,5.92955032 15.7437845,6.71558544 16.8073204,6.56820385 C17.1457182,6.51907666 17.4357735,6.71558544 17.5324586,7.01034861 C17.8225138,8.33678287 17.8225138,9.66321713 17.5324586,10.9896514 C17.4357735,11.2844146 17.1457182,11.4809233 16.8073204,11.4317961 C16.0338398,11.3335418 15.2603591,11.7265593 14.8736188,12.41434 C14.4868785,13.1021208 14.535221,13.9864103 14.9703039,14.6250638 C15.163674,14.8706998 15.163674,15.2145902 14.9219613,15.4602261 C13.9551105,16.3936428 12.7948895,17.0814236 11.5379834,17.4744411 C11.2479282,17.5726955 10.9095304,17.3761867 10.8128453,17.0814236 C10.6194751,16.5901516 10.2327348,16.1971341 9.74930939,16.0006253 C8.73411602,15.6076077 7.62223757,16.0497525 7.1871547,17.0814236 C7.09046961,17.3761867 6.75207182,17.5726955 6.46201657,17.4744411 C5.2051105,17.0322964 4.0448895,16.3936428 3.07803867,15.4602261 C2.83632597,15.2637174 2.83632597,14.8706998 3.02969613,14.6250638 C3.36809392,14.1829191 3.46477901,13.6916471 3.41643646,13.151248 C3.27140884,12.0704497 2.25621547,11.2844146 1.19267956,11.4317961 C0.854281768,11.4809233 0.564226519,11.2844146 0.467541436,10.9896514 C0.177486188,9.66321713 0.177486188,8.33678287 0.467541436,7.01034861 C0.564226519,6.71558544 0.854281768,6.51907666 1.19267956,6.56820385 C1.72444751,6.61733105 2.20787293,6.46994946 2.6429558,6.17518629 C3.51312155,5.48740556 3.70649171,4.25922569 3.02969613,3.37493618 C2.83632597,3.12930021 2.83632597,2.78540984 3.07803867,2.53977387 C4.0448895,1.60635716 5.2051105,0.918576433 6.46201657,0.525558874 C6.75207182,0.427304484 7.09046961,0.623813264 7.1871547,0.918576433 C7.38052486,1.40984838 7.76726519,1.80286594 8.25069061,1.99937472 C9.26588398,2.39239228 10.3777624,1.95024753 10.8128453,0.918576433 Z M6.47355,7.73519664 C5.80721448,9.14592765 6.41376219,10.8894383 7.80374046,11.5674571 C9.19193945,12.244608 10.907603,11.6282153 11.5747925,10.2156762 C12.2361982,8.75947115 11.6404485,7.06429691 10.2446021,6.38341569 C8.85640309,5.70626481 7.14073957,6.32265746 6.47355,7.73519664 Z" id="形状结合" fill="#EFF3F8"></path>
                        <path d="M9.93081229,7.04775518 C10.9687628,7.55405804 11.4120925,8.81552916 10.9187302,9.90183105 C10.4269032,10.9430044 9.14411502,11.4038764 8.11753026,10.9031176 C7.08802902,10.4009363 6.63451804,9.09732698 7.12727873,8.05407959 C7.62143932,7.0078684 8.90422752,6.54699643 9.93081229,7.04775518 Z" id="路径" fill="#23CCD1"></path>
                    </g>
                </g>
            </g>
        </g>
    </g>
</svg>