<?xml version="1.0" encoding="UTF-8"?>
<svg width="42px" height="42px" viewBox="0 0 42 42" version="1.1" xmlns="http://www.w3.org/2000/svg" xmlns:xlink="http://www.w3.org/1999/xlink">
    <title>cpu</title>
    <g id="页面-1" stroke="none" stroke-width="1" fill="none" fill-rule="evenodd">
        <g id="cpu">
            <g id="背景区域" opacity="0" fill="#D8D8D8" fill-rule="nonzero">
                <rect id="矩形" x="0" y="0" width="42" height="42"></rect>
            </g>
            <g id="底块" transform="translate(0.909091, 0.424242)">
                <polygon id="路径-7备份-2" fill="#416480" fill-rule="nonzero" transform="translate(17.090909, 22.575758) scale(-1, 1) translate(-17.090909, -22.575758) " points="0.0909089 39.5757576 0.0909089 5.57575758 34.0909089 5.57575758 34.0909089 39.5757576"></polygon>
                <polygon id="路径-7备份-6" fill="#EEF3F7" fill-rule="nonzero" transform="translate(20.090909, 3.075758) rotate(180.000000) translate(-20.090909, -3.075758) " points="0.0909089 5.57575842 6.0909089 0.57575842 40.0909089 0.57575842 32.2909089 5.57575842"></polygon>
                <polygon id="路径-7备份-5" fill="#AFC0C8" fill-rule="nonzero" transform="translate(37.090909, 20.075758) scale(-1, 1) translate(-37.090909, -20.075758) " points="34.0909089 33.5757576 34.0909089 0.575757576 40.0909089 5.57575758 40.0909089 39.5757576"></polygon>
                <polygon id="路径-7备份-4" stroke="#FFFFFF" opacity="0.25" transform="translate(17.090909, 22.575758) scale(-1, 1) translate(-17.090909, -22.575758) " points="31.5909089 8.07575758 31.5909089 37.0757576 2.5909089 37.0757576 2.5909089 8.07575758"></polygon>
                <polygon id="路径-7备份-4" stroke="#32526B" transform="translate(17.090909, 22.575758) scale(-1, 1) translate(-17.090909, -22.575758) " points="30.5909089 9.07575758 30.5909089 36.0757576 3.5909089 36.0757576 3.5909089 9.07575758"></polygon>
            </g>
            <g id="Icon/CPU" transform="translate(8.000000, 13.000000)" fill-rule="nonzero">
                <rect id="矩形" fill="#D8D8D8" opacity="0" x="0" y="0" width="20" height="20"></rect>
                <g id="CPU">
                    <rect id="矩形备份-3" fill="#D8D8D8" opacity="0" x="0" y="0" width="20" height="20"></rect>
                    <g id="编组" transform="translate(1.000000, 1.000000)">
                        <path d="M11.4933333,12.4 L6.50666667,12.4 C6.008,12.4 5.6,11.9965333 5.6,11.4933333 L5.6,6.50666667 C5.6,6.008 6.00346667,5.6 6.50666667,5.6 L11.4933333,5.6 C11.992,5.6 12.4,6.00346667 12.4,6.50666667 L12.4,11.4933333 C12.4,11.992 11.992,12.4 11.4933333,12.4 Z" id="路径" fill="#23CCD1"></path>
                        <path d="M9.125,0.125 C9.37813051,0.125 9.58732731,0.266076941 9.62043559,0.449114721 L9.625,0.5 L9.625,3.41428571 C9.625,3.6213925 9.40114237,3.78928571 9.125,3.78928571 C8.87186949,3.78928571 8.66267269,3.64820877 8.62956441,3.46517099 L8.625,3.41428571 L8.625,0.5 C8.625,0.292893219 8.84885763,0.125 9.125,0.125 Z" id="路径" fill="#EFF3F8"></path>
                        <path d="M12.0392857,0.125 C12.2924162,0.125 12.501613,0.266076941 12.5347213,0.449114721 L12.5392857,0.5 L12.5392857,3.41428571 C12.5392857,3.6213925 12.3154281,3.78928571 12.0392857,3.78928571 C11.7861552,3.78928571 11.5769584,3.64820877 11.5438501,3.46517099 L11.5392857,3.41428571 L11.5392857,0.5 C11.5392857,0.292893219 11.7631433,0.125 12.0392857,0.125 Z" id="路径" fill="#EFF3F8"></path>
                        <path d="M6.21071429,0.125 C6.4638448,0.125 6.67304159,0.266076941 6.70614988,0.449114721 L6.71071429,0.5 L6.71071429,3.41428571 C6.71071429,3.6213925 6.48685666,3.78928571 6.21071429,3.78928571 C5.95758378,3.78928571 5.74838698,3.64820877 5.7152787,3.46517099 L5.71071429,3.41428571 L5.71071429,0.5 C5.71071429,0.292893219 5.93457191,0.125 6.21071429,0.125 Z" id="路径" fill="#EFF3F8"></path>
                        <path d="M17.5,8.625 C17.7071068,8.625 17.875,8.84885763 17.875,9.125 C17.875,9.37813051 17.7339231,9.58732731 17.5508853,9.62043559 L17.5,9.625 L14.5857143,9.625 C14.3786075,9.625 14.2107143,9.40114237 14.2107143,9.125 C14.2107143,8.87186949 14.3517912,8.66267269 14.534829,8.62956441 L14.5857143,8.625 L17.5,8.625 Z" id="路径" fill="#EFF3F8"></path>
                        <path d="M17.5,11.5392857 C17.7071068,11.5392857 17.875,11.7631433 17.875,12.0392857 C17.875,12.2924162 17.7339231,12.501613 17.5508853,12.5347213 L17.5,12.5392857 L14.5857143,12.5392857 C14.3786075,12.5392857 14.2107143,12.3154281 14.2107143,12.0392857 C14.2107143,11.7861552 14.3517912,11.5769584 14.534829,11.5438501 L14.5857143,11.5392857 L17.5,11.5392857 Z" id="路径" fill="#EFF3F8"></path>
                        <path d="M17.5,5.71071429 C17.7071068,5.71071429 17.875,5.93457191 17.875,6.21071429 C17.875,6.4638448 17.7339231,6.67304159 17.5508853,6.70614988 L17.5,6.71071429 L14.5857143,6.71071429 C14.3786075,6.71071429 14.2107143,6.48685666 14.2107143,6.21071429 C14.2107143,5.95758378 14.3517912,5.74838698 14.534829,5.7152787 L14.5857143,5.71071429 L17.5,5.71071429 Z" id="路径" fill="#EFF3F8"></path>
                        <path d="M13.6547619,3.03928571 L4.3452381,3.03928571 C3.6261075,3.03928571 3.03928571,3.6261075 3.03928571,4.3452381 L3.03928571,13.6547619 C3.03928571,14.3738925 3.6261075,14.9607143 4.3452381,14.9607143 L13.6547619,14.9607143 C14.3738925,14.9607143 14.9607143,14.3738925 14.9607143,13.6547619 L14.9607143,4.3452381 C14.9607143,3.6261075 14.3738925,3.03928571 13.6547619,3.03928571 Z M4.3452381,3.78928571 L13.6547619,3.78928571 C13.9596789,3.78928571 14.2107143,4.04032107 14.2107143,4.3452381 L14.2107143,13.6547619 C14.2107143,13.9596789 13.9596789,14.2107143 13.6547619,14.2107143 L4.3452381,14.2107143 C4.04032107,14.2107143 3.78928571,13.9596789 3.78928571,13.6547619 L3.78928571,4.3452381 C3.78928571,4.04032107 4.04032107,3.78928571 4.3452381,3.78928571 Z" id="路径" fill="#EFF3F8"></path>
                        <path d="M3.41428571,8.625 C3.6213925,8.625 3.78928571,8.84885763 3.78928571,9.125 C3.78928571,9.37813051 3.64820877,9.58732731 3.46517099,9.62043559 L3.41428571,9.625 L0.5,9.625 C0.292893219,9.625 0.125,9.40114237 0.125,9.125 C0.125,8.87186949 0.266076941,8.66267269 0.449114721,8.62956441 L0.5,8.625 L3.41428571,8.625 Z" id="路径" fill="#EFF3F8"></path>
                        <path d="M3.41428571,11.5392857 C3.6213925,11.5392857 3.78928571,11.7631433 3.78928571,12.0392857 C3.78928571,12.2924162 3.64820877,12.501613 3.46517099,12.5347213 L3.41428571,12.5392857 L0.5,12.5392857 C0.292893219,12.5392857 0.125,12.3154281 0.125,12.0392857 C0.125,11.7861552 0.266076941,11.5769584 0.449114721,11.5438501 L0.5,11.5392857 L3.41428571,11.5392857 Z" id="路径" fill="#EFF3F8"></path>
                        <path d="M3.41428571,5.71071429 C3.6213925,5.71071429 3.78928571,5.93457191 3.78928571,6.21071429 C3.78928571,6.4638448 3.64820877,6.67304159 3.46517099,6.70614988 L3.41428571,6.71071429 L0.5,6.71071429 C0.292893219,6.71071429 0.125,6.48685666 0.125,6.21071429 C0.125,5.95758378 0.266076941,5.74838698 0.449114721,5.7152787 L0.5,5.71071429 L3.41428571,5.71071429 Z" id="路径" fill="#EFF3F8"></path>
                        <path d="M9.125,14.2107143 C9.37813051,14.2107143 9.58732731,14.3517912 9.62043559,14.534829 L9.625,14.5857143 L9.625,17.5 C9.625,17.7071068 9.40114237,17.875 9.125,17.875 C8.87186949,17.875 8.66267269,17.7339231 8.62956441,17.5508853 L8.625,17.5 L8.625,14.5857143 C8.625,14.3786075 8.84885763,14.2107143 9.125,14.2107143 Z" id="路径" fill="#EFF3F8"></path>
                        <path d="M12.0392857,14.2107143 C12.2924162,14.2107143 12.501613,14.3517912 12.5347213,14.534829 L12.5392857,14.5857143 L12.5392857,17.5 C12.5392857,17.7071068 12.3154281,17.875 12.0392857,17.875 C11.7861552,17.875 11.5769584,17.7339231 11.5438501,17.5508853 L11.5392857,17.5 L11.5392857,14.5857143 C11.5392857,14.3786075 11.7631433,14.2107143 12.0392857,14.2107143 Z" id="路径" fill="#EFF3F8"></path>
                        <path d="M6.21071429,14.2107143 C6.4638448,14.2107143 6.67304159,14.3517912 6.70614988,14.534829 L6.71071429,14.5857143 L6.71071429,17.5 C6.71071429,17.7071068 6.48685666,17.875 6.21071429,17.875 C5.95758378,17.875 5.74838698,17.7339231 5.7152787,17.5508853 L5.71071429,17.5 L5.71071429,14.5857143 C5.71071429,14.3786075 5.93457191,14.2107143 6.21071429,14.2107143 Z" id="路径" fill="#EFF3F8"></path>
                    </g>
                </g>
            </g>
        </g>
    </g>
</svg>