<?xml version="1.0" encoding="UTF-8"?>
<svg width="46px" height="46px" viewBox="0 0 46 46" version="1.1" xmlns="http://www.w3.org/2000/svg" xmlns:xlink="http://www.w3.org/1999/xlink">
    <title>cvm</title>
    <defs>
        <linearGradient x1="50%" y1="0%" x2="50%" y2="100%" id="linearGradient-1">
            <stop stop-color="#EEF3F7" offset="0%"></stop>
            <stop stop-color="#ABBCC4" offset="100%"></stop>
        </linearGradient>
    </defs>
    <g id="页面-1" stroke="none" stroke-width="1" fill="none" fill-rule="evenodd">
        <g id="cvm" fill-rule="nonzero">
            <g id="背景区域" opacity="0" fill="#D8D8D8">
                <rect id="矩形" x="0" y="0" width="46" height="46"></rect>
            </g>
            <g id="图形" transform="translate(2.000000, 3.000000)">
                <path d="M14.5170803,0.37224745 C16.19409,-0.377226516 18.5814825,-0.0136051533 21.2259281,1.63262998 C24.4734853,3.65431752 27.4085914,7.14734499 29.066954,10.912439 C29.94656,11.066432 30.9068304,11.4588324 31.8818982,12.065837 C35.1791592,14.1184665 37.9816585,18.1853315 38.6363072,21.7618349 C41.2338446,24.0118698 43,27.4784726 43,30.438238 C43,31.7749721 42.635965,32.7592646 42.0016794,33.3502744 L42.0335112,33.3881543 L32.3998546,39.7531769 L15.6028342,19.514 L15.1377401,19.2244527 C12.6958616,17.7043207 10.5829593,14.9579397 9.59516641,12.2761951 L4.96983422,6.70276082 L13.7871835,0.802595 C13.9036297,0.714588801 14.0251488,0.633641386 14.1515033,0.559841501 L14.4867081,0.335541665 L14.5170803,0.37224745 Z" id="形状结合" fill="url(#linearGradient-1)"></path>
                <path d="M28.2081379,38.9638406 C31.5102175,41.0194697 34,39.9340987 34,36.438238 C34,33.4784726 32.2338446,30.0118698 29.6363072,27.7618349 C28.9816585,24.1853315 26.1791592,20.1184665 22.8818982,18.065837 C21.9068304,17.4588324 20.94656,17.066432 20.066954,16.912439 C18.4085914,13.147345 15.4734853,9.65431752 12.2259281,7.63262998 C7.16478817,4.48194073 3.0452133,6.02936286 3.0452133,11.0865089 C3.0452133,11.3445227 3.05606467,11.6092918 3.07708446,11.8749968 C1.19148808,11.7897642 0,13.0718187 0,15.2723672 C0,18.653706 2.75279542,23.1172379 6.13774009,25.2244527 L28.2081379,38.9638406 Z" id="路径" fill="#416480"></path>
                <polygon id="路径-7备份-2" fill="#F9F9FA" transform="translate(15.500000, 20.500000) scale(-1, 1) translate(-15.500000, -20.500000) " points="8 27 8 23.8883396 23 14 23 17.271902"></polygon>
                <polygon id="路径-7备份-7" fill="#F9F9FA" transform="translate(15.500000, 25.500000) scale(-1, 1) translate(-15.500000, -25.500000) " points="8 32 8 28.8883396 23 19 23 22.271902"></polygon>
                <polygon id="矩形备份-23" fill="#23CCD1" points="19 22.2 22 24.1449198 22 25.4873724 19 23.5877857"></polygon>
                <polygon id="矩形备份-34" fill="#23CCD1" points="19 27.2 22 29.1449198 22 30.4873724 19 28.5877857"></polygon>
            </g>
        </g>
    </g>
</svg>