<?xml version="1.0" encoding="UTF-8"?>
<svg width="42px" height="42px" viewBox="0 0 42 42" version="1.1" xmlns="http://www.w3.org/2000/svg" xmlns:xlink="http://www.w3.org/1999/xlink">
    <title>data-encryption</title>
    <g id="页面-1" stroke="none" stroke-width="1" fill="none" fill-rule="evenodd">
        <g id="data-encryption">
            <g id="背景区域" opacity="0" fill="#D8D8D8" fill-rule="nonzero">
                <rect id="矩形" x="0" y="0" width="42" height="42"></rect>
            </g>
            <g id="底块" transform="translate(0.909091, 0.424242)">
                <polygon id="路径-7备份-2" fill="#416480" fill-rule="nonzero" transform="translate(17.090909, 22.575758) scale(-1, 1) translate(-17.090909, -22.575758) " points="0.0909089 39.5757576 0.0909089 5.57575758 34.0909089 5.57575758 34.0909089 39.5757576"></polygon>
                <polygon id="路径-7备份-6" fill="#EEF3F7" fill-rule="nonzero" transform="translate(20.090909, 3.075758) rotate(180.000000) translate(-20.090909, -3.075758) " points="0.0909089 5.57575842 6.0909089 0.57575842 40.0909089 0.57575842 32.2909089 5.57575842"></polygon>
                <polygon id="路径-7备份-5" fill="#AFC0C8" fill-rule="nonzero" transform="translate(37.090909, 20.075758) scale(-1, 1) translate(-37.090909, -20.075758) " points="34.0909089 33.5757576 34.0909089 0.575757576 40.0909089 5.57575758 40.0909089 39.5757576"></polygon>
                <polygon id="路径-7备份-4" stroke="#FFFFFF" opacity="0.25" transform="translate(17.090909, 22.575758) scale(-1, 1) translate(-17.090909, -22.575758) " points="31.5909089 8.07575758 31.5909089 37.0757576 2.5909089 37.0757576 2.5909089 8.07575758"></polygon>
                <polygon id="路径-7备份-4" stroke="#32526B" transform="translate(17.090909, 22.575758) scale(-1, 1) translate(-17.090909, -22.575758) " points="30.5909089 9.07575758 30.5909089 36.0757576 3.5909089 36.0757576 3.5909089 9.07575758"></polygon>
            </g>
            <g id="Icon/数据加密" transform="translate(8.000000, 13.000000)">
                <rect id="矩形" fill="#D8D8D8" fill-rule="nonzero" opacity="0" x="0" y="0" width="20" height="20"></rect>
                <g id="数据加密">
                    <rect id="矩形备份-3" fill="#D8D8D8" fill-rule="nonzero" opacity="0" x="0" y="0" width="20" height="20"></rect>
                    <g id="编组" transform="translate(1.000000, 1.000000)">
                        <polygon id="矩形备份-23" points="0 0 18 0 18 18 12.2423395 18 0 18"></polygon>
                        <g id="编组-23" transform="translate(1.500000, 0.500000)" fill-rule="nonzero">
                            <g id="编组-17">
                                <rect id="矩形" fill="#EFF3F8" x="0" y="7.55555556" width="15.1111111" height="9.44444444" rx="2"></rect>
                                <path d="M7.55555556,9.91666667 C8.20755839,9.91666667 8.73611111,10.4452194 8.73611111,11.0972222 C8.73611111,11.625853 8.38865962,12.073332 7.90966719,12.223749 L7.90972222,13.2222222 C7.90972222,13.4178231 7.7511564,13.5763889 7.55555556,13.5763889 C7.35995471,13.5763889 7.20138889,13.4178231 7.20138889,13.2222222 L7.20138889,13.2222222 L7.20141569,12.2237401 C6.72243784,12.0733145 6.375,11.6258426 6.375,11.0972222 C6.375,10.4452194 6.90355273,9.91666667 7.55555556,9.91666667 Z" id="形状结合" fill="#23CCD1"></path>
                                <path d="M7.55555556,0.125 C10.7618754,0.125 13.3611111,2.72423576 13.3611111,5.93055556 C13.3611111,6.65964119 13.2267143,7.35733677 12.9813433,8.00021954 L12.1697635,7.9994643 C12.4533551,7.36795432 12.6111111,6.66767789 12.6111111,5.93055556 C12.6111111,3.13844932 10.3476618,0.875 7.55555556,0.875 C4.76344932,0.875 2.5,3.13844932 2.5,5.93055556 C2.5,6.66767789 2.65775605,7.36795432 2.94134761,7.9994643 L2.12976782,8.00021954 C1.88439685,7.35733677 1.75,6.65964119 1.75,5.93055556 C1.75,2.72423576 4.34923576,0.125 7.55555556,0.125 Z" id="形状结合" fill="#EFF3F8"></path>
                            </g>
                        </g>
                    </g>
                </g>
            </g>
        </g>
    </g>
</svg>