<?xml version="1.0" encoding="UTF-8"?>
<svg width="42px" height="42px" viewBox="0 0 42 42" version="1.1" xmlns="http://www.w3.org/2000/svg" xmlns:xlink="http://www.w3.org/1999/xlink">
    <title>ddos</title>
    <g id="页面-1" stroke="none" stroke-width="1" fill="none" fill-rule="evenodd">
        <g id="ddos">
            <g id="背景区域备份-16" opacity="0" fill="#D8D8D8" fill-rule="nonzero">
                <rect id="矩形" x="-5.68434189e-14" y="0" width="42" height="42"></rect>
            </g>
            <g id="底块备份-16" transform="translate(1.000000, 0.000000)">
                <polygon id="路径-7备份-2" fill="#416480" fill-rule="nonzero" transform="translate(17.090909, 22.575758) scale(-1, 1) translate(-17.090909, -22.575758) " points="0.0909089 39.5757576 0.0909089 5.57575758 34.0909089 5.57575758 34.0909089 39.5757576"></polygon>
                <polygon id="路径-7备份-6" fill="#EEF3F7" fill-rule="nonzero" transform="translate(20.090909, 3.075758) rotate(180.000000) translate(-20.090909, -3.075758) " points="0.0909089 5.57575842 6.0909089 0.57575842 40.0909089 0.57575842 32.2909089 5.57575842"></polygon>
                <polygon id="路径-7备份-5" fill="#AFC0C8" fill-rule="nonzero" transform="translate(37.090909, 20.075758) scale(-1, 1) translate(-37.090909, -20.075758) " points="34.0909089 33.5757576 34.0909089 0.575757576 40.0909089 5.57575758 40.0909089 39.5757576"></polygon>
                <polygon id="路径-7备份-4" stroke="#FFFFFF" opacity="0.25" transform="translate(17.090909, 22.575758) scale(-1, 1) translate(-17.090909, -22.575758) " points="31.5909089 8.07575758 31.5909089 37.0757576 2.5909089 37.0757576 2.5909089 8.07575758"></polygon>
                <polygon id="路径-7备份-4" stroke="#32526B" transform="translate(17.090909, 22.575758) scale(-1, 1) translate(-17.090909, -22.575758) " points="30.5909089 9.07575758 30.5909089 36.0757576 3.5909089 36.0757576 3.5909089 9.07575758"></polygon>
            </g>
            <g id="编组" transform="translate(8.000000, 13.000000)">
                <polygon id="矩形备份-22" points="0 0 20 0 20 20 13.6025995 20 0 20"></polygon>
                <g id="编组-16" transform="translate(0.000000, 1.111111)" fill-rule="nonzero">
                    <path d="M18.8744918,7.3784544 C18.1199618,3.21642512 14.4808923,0.147058824 10.2028721,0.147058824 C5.90901117,0.147058824 2.26067351,3.23882469 1.52367804,7.42082681 C1.48139028,7.66078414 1.64163314,7.889589 1.88159048,7.93187675 C2.12154781,7.9741645 2.35035267,7.81392164 2.39264042,7.57396431 C3.0556238,3.81193587 6.3390508,1.02941176 10.2028721,1.02941176 C14.0524424,1.02941176 17.327532,3.79177987 18.0062905,7.53584971 C18.0497541,7.77559687 18.2793417,7.9347162 18.5190888,7.89125268 C18.758836,7.84778917 18.9179553,7.61820156 18.8744918,7.3784544 Z" id="路径" fill="#FFFFFF"></path>
                    <path d="M1.67412505,11.1897234 C2.67776134,15.0393771 6.16806714,17.7735978 10.2028721,17.7735978 C14.3036434,17.7735978 17.8354683,14.9501343 18.7753136,11.0147604 C18.8319116,10.77777 18.6856746,10.5397696 18.4486843,10.4831716 C18.2116939,10.4265736 17.9736935,10.5728105 17.9170955,10.8098009 C17.071584,14.3501748 13.8930005,16.8912449 10.2028721,16.8912449 C6.57207565,16.8912449 3.43086814,14.4304992 2.52793864,10.9671272 C2.46647039,10.7313531 2.22550785,10.5900502 1.98973374,10.6515185 C1.75395963,10.7129867 1.61265681,10.9539493 1.67412505,11.1897234 Z" id="路径" fill="#FFFFFF"></path>
                    <circle id="椭圆形" fill="#FFFFFF" transform="translate(1.860465, 7.419114) rotate(1.000000) translate(-1.860465, -7.419114) " cx="1.86046512" cy="7.41911425" r="1.39534884"></circle>
                    <circle id="椭圆形" fill="#FFFFFF" transform="translate(18.545279, 10.966659) rotate(1.000000) translate(-18.545279, -10.966659) " cx="18.5452792" cy="10.9666587" r="1.39534884"></circle>
                    <path d="M6.60873481,7.56428181 L10.0187348,9.22028181 L10.0187348,13.3712818 L6.6088064,11.4021888 L6.60873481,7.56428181 Z M14.2617348,7.59528181 L14.2620542,11.4021888 L11.0187348,13.2742818 L11.0187348,9.14328181 L14.2617348,7.59528181 Z M10.4354303,4.77428181 L13.9667348,6.81328181 L10.4367348,8.49828181 L6.93373481,6.79528181 L10.4354303,4.77428181 Z" id="形状结合" fill="#23CCD1"></path>
                </g>
            </g>
        </g>
    </g>
</svg>