<?xml version="1.0" encoding="UTF-8"?>
<svg width="42px" height="42px" viewBox="0 0 42 42" version="1.1" xmlns="http://www.w3.org/2000/svg" xmlns:xlink="http://www.w3.org/1999/xlink">
    <title>department</title>
    <g id="页面-1" stroke="none" stroke-width="1" fill="none" fill-rule="evenodd">
        <g id="department">
            <g id="背景区域备份" opacity="0" fill="#D8D8D8" fill-rule="nonzero">
                <rect id="矩形" x="0" y="0" width="42" height="42"></rect>
            </g>
            <g id="底块备份" transform="translate(0.909091, 0.424242)">
                <polygon id="路径-7备份-2" fill="#416480" fill-rule="nonzero" transform="translate(17.090909, 22.575758) scale(-1, 1) translate(-17.090909, -22.575758) " points="0.0909089 39.5757576 0.0909089 5.57575758 34.0909089 5.57575758 34.0909089 39.5757576"></polygon>
                <polygon id="路径-7备份-6" fill="#EEF3F7" fill-rule="nonzero" transform="translate(20.090909, 3.075758) rotate(180.000000) translate(-20.090909, -3.075758) " points="0.0909089 5.57575842 6.0909089 0.57575842 40.0909089 0.57575842 32.2909089 5.57575842"></polygon>
                <polygon id="路径-7备份-5" fill="#AFC0C8" fill-rule="nonzero" transform="translate(37.090909, 20.075758) scale(-1, 1) translate(-37.090909, -20.075758) " points="34.0909089 33.5757576 34.0909089 0.575757576 40.0909089 5.57575758 40.0909089 39.5757576"></polygon>
                <polygon id="路径-7备份-4" stroke="#FFFFFF" opacity="0.25" transform="translate(17.090909, 22.575758) scale(-1, 1) translate(-17.090909, -22.575758) " points="31.5909089 8.07575758 31.5909089 37.0757576 2.5909089 37.0757576 2.5909089 8.07575758"></polygon>
                <polygon id="路径-7备份-4" stroke="#32526B" transform="translate(17.090909, 22.575758) scale(-1, 1) translate(-17.090909, -22.575758) " points="30.5909089 9.07575758 30.5909089 36.0757576 3.5909089 36.0757576 3.5909089 9.07575758"></polygon>
            </g>
            <g id="编组" transform="translate(8.000000, 13.000000)">
                <rect id="矩形备份-20" opacity="0.446149554" x="0" y="0" width="20" height="20"></rect>
                <path d="M14.7222222,4.44444444 C16.5018064,4.44444444 17.9444444,5.88708247 17.9444444,7.66666667 C17.9444444,9.44625086 16.5018064,10.8888889 14.7222222,10.8888889 C13.9070828,10.8888889 13.1626381,10.5862086 12.5951493,10.0871092 C13.945535,9.17883902 14.8333333,7.63754216 14.8333333,5.88888889 C14.8333333,5.3877135 14.7604067,4.90357104 14.6245861,4.44649429 L14.7222222,4.44444444 Z" id="形状结合" fill="#EFF3F8" fill-rule="nonzero"></path>
                <path d="M14.6111111,10.8888889 C17.4444444,10.8888889 19.7777778,13.1666667 19.7777778,16.0555556 C19.7777778,16.1166241 18.3979128,16.1627751 16.6493787,16.1858099 C15.8498365,14.0274565 14.0810025,12.3531773 11.8747495,11.6938684 C12.6642244,11.1845943 13.6024647,10.8888889 14.6111111,10.8888889 Z" id="形状结合" fill="#EFF3F8" fill-rule="nonzero"></path>
                <path d="M4.90605236,4.53593377 C4.78588854,4.967208 4.72222222,5.42061341 4.72222222,5.88888889 C4.72222222,7.7864809 5.76769465,9.43988974 7.31406134,10.3045372 C6.77770375,10.7068834 6.111039,10.9444444 5.38888889,10.9444444 C3.6093047,10.9444444 2.16666667,9.50180642 2.16666667,7.72222222 C2.16666667,6.10673762 3.35551361,4.76892309 4.90605236,4.53593377 Z" id="形状结合" fill="#EFF3F8" fill-rule="nonzero"></path>
                <path d="M5.27777778,10.9444444 C6.2107942,10.9444444 7.0895914,11.1914431 7.84870332,11.6259258 C5.52909077,12.2402373 3.65475113,13.9921653 2.85824672,16.2463684 C1.32173041,16.2288879 0.166666667,16.1856085 0.166666667,16.1111111 C0.166666667,13.2777778 2.44444444,10.9444444 5.27777778,10.9444444 Z" id="形状结合" fill="#EFF3F8" fill-rule="nonzero"></path>
                <circle id="椭圆形" fill="#23CCD1" fill-rule="nonzero" cx="9.77777778" cy="5.88888889" r="4.5"></circle>
                <path d="M16.5555556,18.6666667 C16.5555556,18.8888889 3,18.9444444 3,18.6666667 C3,14.9444444 6.05555556,11.8888889 9.77777778,11.9444444 C13.5,11.9444444 16.5,14.9444444 16.5555556,18.6666667 Z" id="路径" fill="#23CCD1" fill-rule="nonzero"></path>
            </g>
        </g>
    </g>
</svg>