<?xml version="1.0" encoding="UTF-8"?>
<svg width="42px" height="42px" viewBox="0 0 42 42" version="1.1" xmlns="http://www.w3.org/2000/svg" xmlns:xlink="http://www.w3.org/1999/xlink">
    <title>dns</title>
    <g id="页面-1" stroke="none" stroke-width="1" fill="none" fill-rule="evenodd">
        <g id="dns">
            <g id="背景区域" opacity="0" fill="#D8D8D8" fill-rule="nonzero">
                <rect id="矩形" x="0" y="0" width="42" height="42"></rect>
            </g>
            <g id="底块" transform="translate(0.909091, 0.424242)">
                <polygon id="路径-7备份-2" fill="#416480" fill-rule="nonzero" transform="translate(17.090909, 22.575758) scale(-1, 1) translate(-17.090909, -22.575758) " points="0.0909089 39.5757576 0.0909089 5.57575758 34.0909089 5.57575758 34.0909089 39.5757576"></polygon>
                <polygon id="路径-7备份-6" fill="#EEF3F7" fill-rule="nonzero" transform="translate(20.090909, 3.075758) rotate(180.000000) translate(-20.090909, -3.075758) " points="0.0909089 5.57575842 6.0909089 0.57575842 40.0909089 0.57575842 32.2909089 5.57575842"></polygon>
                <polygon id="路径-7备份-5" fill="#AFC0C8" fill-rule="nonzero" transform="translate(37.090909, 20.075758) scale(-1, 1) translate(-37.090909, -20.075758) " points="34.0909089 33.5757576 34.0909089 0.575757576 40.0909089 5.57575758 40.0909089 39.5757576"></polygon>
                <polygon id="路径-7备份-4" stroke="#FFFFFF" opacity="0.25" transform="translate(17.090909, 22.575758) scale(-1, 1) translate(-17.090909, -22.575758) " points="31.5909089 8.07575758 31.5909089 37.0757576 2.5909089 37.0757576 2.5909089 8.07575758"></polygon>
                <polygon id="路径-7备份-4" stroke="#32526B" transform="translate(17.090909, 22.575758) scale(-1, 1) translate(-17.090909, -22.575758) " points="30.5909089 9.07575758 30.5909089 36.0757576 3.5909089 36.0757576 3.5909089 9.07575758"></polygon>
            </g>
            <g id="Icon/DNS" transform="translate(8.000000, 13.000000)" fill-rule="nonzero">
                <rect id="矩形" fill="#D8D8D8" opacity="0" x="0" y="3.55271368e-15" width="20" height="20"></rect>
                <g id="DNS">
                    <rect id="矩形备份-3" fill="#D8D8D8" opacity="0" x="0" y="3.55271368e-15" width="20" height="20"></rect>
                    <g id="编组" transform="translate(0.000000, 1.000000)">
                        <path d="M8.33354837,0.268603247 C7.25662668,1.24118223 6.44721149,3.24439804 6.07100775,5.74308895 L1.77812042,5.74268004 C2.86919904,2.95515377 5.33103448,0.853768717 8.33354837,0.268603247 Z M9.83809524,0.580952381 C11.0163549,0.580952381 12.1499888,2.70352034 12.6367575,5.74255163 L7.039433,5.74255163 C7.52620171,2.70352034 8.65983559,0.580952381 9.83809524,0.580952381 Z M11.2472243,0.186597825 C14.4730242,0.626860068 17.1478506,2.80353296 18.2982649,5.7431778 L13.6051729,5.74301411 C13.2235177,3.20816495 12.3960299,1.18328001 11.2957512,0.227183252 L11.2472243,0.186597825 Z" id="形状结合" fill="#EFF3F8"></path>
                        <path d="M11.2492227,17.7559863 C12.3236827,16.8575428 13.1438647,14.9467757 13.5519233,12.53321 L18.1594771,12.5339218 C16.942481,15.3028615 14.3506307,17.3319819 11.2492227,17.7559863 Z M8.33345827,17.6740513 C5.45249809,17.1127063 3.06930195,15.1552593 1.91724017,12.5351201 L6.12445682,12.534309 C6.52065452,14.8767913 7.30510078,16.7454136 8.33345827,17.6740513 Z M9.83809524,17.3619048 C8.7035501,17.3619048 7.61038085,15.3939136 7.09625213,12.534712 L12.5799384,12.534712 C12.0658096,15.3939136 10.9726404,17.3619048 9.83809524,17.3619048 Z" id="形状结合" fill="#EFF3F8"></path>
                        <path d="M19.5619048,5.74285714 L19.5619048,12.5333333 L0.514285714,12.5333333 L0.514285714,5.74285714 L19.5619048,5.74285714 Z M3,6.52380952 C2.90841049,6.52380952 2.82286032,6.54966703 2.75025134,6.59448018 C2.59816089,6.67576689 2.4952381,6.83119825 2.4952381,7.00952381 L2.4952381,7.00952381 L2.4952381,11.247619 L2.50329376,11.3332149 C2.52446174,11.4442859 2.58608286,11.5419346 2.67309446,11.6118155 L2.69319653,11.6308631 C2.77606473,11.700744 2.88311434,11.7428571 3,11.7428571 C5.66680331,11.7428571 7.18095238,11.0220899 7.18095238,9.13333333 C7.18095238,7.24457675 5.66680331,6.52380952 3,6.52380952 Z M15.247619,6.53333333 C14.0016863,6.53333333 12.9238095,7.15090684 12.9238095,8.06666667 C12.9238095,8.94261085 13.9099954,9.54573428 15.0861339,9.59652394 L15.0861339,9.59652394 L15.4020988,9.60439815 C16.1094147,9.64485624 16.6190476,9.95610437 16.6190476,10.1904762 C16.6190476,10.4380785 16.0372379,10.7714286 15.247619,10.7714286 C14.5587763,10.7714286 13.9955971,10.5110111 13.8884989,10.2486205 C13.7891147,10.0051293 13.5111593,9.88830743 13.2676681,9.9876916 C13.0241769,10.0870758 12.9073551,10.3650312 13.0067392,10.6085224 C13.2872764,11.2958386 14.2128071,11.7238095 15.247619,11.7238095 C16.4935518,11.7238095 17.5714286,11.106236 17.5714286,10.1904762 C17.5714286,9.3144209 16.5825046,8.70268526 15.408747,8.65114692 L15.408747,8.65114692 L15.0925769,8.64329856 C14.3830114,8.60355347 13.8761905,8.29776216 13.8761905,8.06666667 C13.8761905,7.81906435 14.4580002,7.48571429 15.247619,7.48571429 C15.9364618,7.48571429 16.499641,7.74613175 16.6067392,8.00852238 C16.7061234,8.25201359 16.9840788,8.36883542 17.22757,8.26945126 C17.4710612,8.17006709 17.587883,7.89211168 17.4884989,7.64862048 C17.2079617,6.96130428 16.282431,6.53333333 15.247619,6.53333333 Z M11.9285714,6.53333333 C11.6524291,6.53333333 11.4285714,6.74653107 11.4285714,7.00952381 L11.4285714,7.00952381 L11.4282857,9.97185714 L8.69581411,6.85202653 C8.63714238,6.69253091 8.49186163,6.57180537 8.31368516,6.5410054 L8.22380952,6.53333333 C8.21903669,6.53333333 8.21427948,6.53339702 8.20953877,6.53352356 C8.09515265,6.53103237 7.97926993,6.56981117 7.886198,6.65135392 C7.82821869,6.70215111 7.78552679,6.76390555 7.75850566,6.83081105 C7.75588583,6.8409896 7.7519359,6.85128527 7.74835556,6.86173998 C7.74243524,6.87651073 7.73834029,6.8915748 7.73499325,6.90678106 L7.73186519,6.92392797 L7.73186519,6.92392797 L7.72730893,6.95186244 C7.72563925,6.96558876 7.72456467,6.97938126 7.72408798,6.9931979 L7.72380952,7.00952381 L7.72380952,11.2380952 L7.73186519,11.3236911 C7.77420115,11.5458332 7.97834963,11.7142921 8.22380952,11.7142921 C8.4999519,11.7142921 8.72380952,11.501088 8.72380952,11.2380952 L8.72380952,11.2380952 L8.72328571,8.32985714 L11.546592,11.5518972 L11.6087689,11.611223 C11.6990354,11.6829986 11.8103143,11.7177401 11.9210216,11.7140224 C12.2047138,11.7142921 12.4285714,11.501088 12.4285714,11.2380952 L12.4285714,11.2380952 L12.4285714,7.00952381 L12.4205158,6.92392797 C12.3781798,6.70178587 12.1740313,6.53333333 11.9285714,6.53333333 Z M3.49511762,7.48519651 C5.35885645,7.55643933 6.22857143,8.05468085 6.22857143,9.13333333 C6.22857143,10.2119858 5.35885645,10.7102273 3.49511762,10.7814702 L3.49511762,7.48519651 Z" id="形状结合" fill="#23CCD1"></path>
                    </g>
                </g>
            </g>
        </g>
    </g>
</svg>