<?xml version="1.0" encoding="UTF-8"?>
<svg width="42px" height="42px" viewBox="0 0 42 42" version="1.1" xmlns="http://www.w3.org/2000/svg" xmlns:xlink="http://www.w3.org/1999/xlink">
    <title>docker-image</title>
    <g id="页面-1" stroke="none" stroke-width="1" fill="none" fill-rule="evenodd">
        <g id="docker-image">
            <g id="背景区域" opacity="0" fill="#D8D8D8" fill-rule="nonzero">
                <rect id="矩形" x="0" y="0" width="42" height="42"></rect>
            </g>
            <g id="底块" transform="translate(0.909091, 0.424242)">
                <polygon id="路径-7备份-2" fill="#416480" fill-rule="nonzero" transform="translate(17.090909, 22.575758) scale(-1, 1) translate(-17.090909, -22.575758) " points="0.0909089 39.5757576 0.0909089 5.57575758 34.0909089 5.57575758 34.0909089 39.5757576"></polygon>
                <polygon id="路径-7备份-6" fill="#EEF3F7" fill-rule="nonzero" transform="translate(20.090909, 3.075758) rotate(180.000000) translate(-20.090909, -3.075758) " points="0.0909089 5.57575842 6.0909089 0.57575842 40.0909089 0.57575842 32.2909089 5.57575842"></polygon>
                <polygon id="路径-7备份-5" fill="#AFC0C8" fill-rule="nonzero" transform="translate(37.090909, 20.075758) scale(-1, 1) translate(-37.090909, -20.075758) " points="34.0909089 33.5757576 34.0909089 0.575757576 40.0909089 5.57575758 40.0909089 39.5757576"></polygon>
                <polygon id="路径-7备份-4" stroke="#FFFFFF" opacity="0.25" transform="translate(17.090909, 22.575758) scale(-1, 1) translate(-17.090909, -22.575758) " points="31.5909089 8.07575758 31.5909089 37.0757576 2.5909089 37.0757576 2.5909089 8.07575758"></polygon>
                <polygon id="路径-7备份-4" stroke="#32526B" transform="translate(17.090909, 22.575758) scale(-1, 1) translate(-17.090909, -22.575758) " points="30.5909089 9.07575758 30.5909089 36.0757576 3.5909089 36.0757576 3.5909089 9.07575758"></polygon>
            </g>
            <g id="Icon/Docker镜像" transform="translate(8.000000, 13.000000)" fill-rule="nonzero">
                <rect id="矩形" fill="#D8D8D8" opacity="0" x="0" y="3.55271368e-15" width="20" height="20"></rect>
                <g id="服务节点">
                    <rect id="矩形备份-3" fill="#D8D8D8" opacity="0" x="0" y="3.55271368e-15" width="20" height="20"></rect>
                    <g id="编组-7" transform="translate(0.108108, 2.000000)">
                        <path d="M15.2992452,3.20720721 C15.9060141,3.69314769 16.3394205,4.39997022 16.5127831,5.19514556 C16.5561237,5.32767478 16.5561237,5.46020401 16.5561237,5.59273323 C16.6861456,5.50438041 16.8161675,5.50438041 16.9461894,5.46020401 C17.7263209,5.32767478 18.5064524,5.46020401 19.2432432,5.94614449 C18.7231556,6.5646142 18.073046,7.00637828 17.2929145,7.18308391 C16.9461894,7.27143673 16.5561237,7.31561313 16.2093986,7.31561313 C16.1660579,8.68508178 14.9091794,10.5404909 12.9155101,11.954136 C12.092038,12.5284293 11.2252252,12.9701933 10.3150718,13.3236046 C9.31823716,13.7211923 8.23472121,13.8978979 7.15120526,13.8978979 C3.20720721,13.8978979 -7.38964445e-13,11.3798427 -7.38964445e-13,8.28749411 C-7.38964445e-13,8.06661207 -7.38964445e-13,7.80155362 0.0433406379,7.58067158 L0.0433406379,7.58067158 L4.72412953,7.58067158 C5.50426102,7.58067158 6.32773314,7.62484799 7.10786462,7.62484799 C8.53810567,7.62484799 9.92500609,7.62484799 11.3552471,7.53649517 C12.568785,7.44814236 13.9123448,7.35978954 14.9958607,6.78549624 C15.0392014,6.74131983 15.2992452,6.60879061 15.2992452,6.5646142 C15.2992452,6.52043779 15.1692233,6.43208498 15.1692233,6.38790857 C15.0392014,6.16702653 14.9091794,5.90196808 14.8658388,5.63690964 C14.7791575,4.79755789 14.9091794,3.95820614 15.2992452,3.20720721 Z M5.63428293,9.61278634 C5.17949184,9.61278634 4.81081081,9.98857692 4.81081081,10.4521381 C4.81081081,10.9156993 5.17949184,11.2914898 5.63428293,11.2914898 C6.08907403,11.2914898 6.45775505,10.9156993 6.45775505,10.4521381 C6.45775505,9.98857692 6.08907403,9.61278634 5.63428293,9.61278634 Z" id="形状结合" fill="#EFF3F8"></path>
                        <path d="M5.63428293,10.8497258 C5.41885557,10.8497258 5.24421719,10.6717197 5.24421719,10.4521381 C5.24421719,10.2325565 5.41885557,10.0545504 5.63428293,10.0545504 C5.84971029,10.0545504 6.02434867,10.2325565 6.02434867,10.4521381 C6.02434867,10.6717197 5.84971029,10.8497258 5.63428293,10.8497258 Z" id="路径" fill="#23CCD1"></path>
                        <rect id="矩形" fill="#23CCD1" x="1.6036036" y="4.81081081" width="1.87087087" height="1.87087087"></rect>
                        <rect id="矩形" fill="#23CCD1" x="4.00900901" y="4.81081081" width="1.87087087" height="1.87087087"></rect>
                        <rect id="矩形" fill="#23CCD1" x="6.41441441" y="4.81081081" width="1.87087087" height="1.87087087"></rect>
                        <rect id="矩形" fill="#23CCD1" x="8.81981982" y="4.81081081" width="1.87087087" height="1.87087087"></rect>
                        <rect id="矩形" fill="#23CCD1" x="4.00900901" y="2.40540541" width="1.87087087" height="1.87087087"></rect>
                        <rect id="矩形" fill="#23CCD1" x="6.41441441" y="2.40540541" width="1.87087087" height="1.87087087"></rect>
                        <rect id="矩形" fill="#23CCD1" x="8.81981982" y="2.40540541" width="1.87087087" height="1.87087087"></rect>
                        <rect id="矩形" fill="#23CCD1" x="8.81981982" y="0" width="1.87087087" height="1.87087087"></rect>
                        <rect id="矩形" fill="#23CCD1" x="11.2252252" y="4.81081081" width="1.87087087" height="1.87087087"></rect>
                    </g>
                </g>
            </g>
        </g>
    </g>
</svg>