<?xml version="1.0" encoding="UTF-8"?>
<svg width="42px" height="42px" viewBox="0 0 42 42" version="1.1" xmlns="http://www.w3.org/2000/svg" xmlns:xlink="http://www.w3.org/1999/xlink">
    <title>docker</title>
    <g id="页面-1" stroke="none" stroke-width="1" fill="none" fill-rule="evenodd">
        <g id="docker">
            <g id="背景区域" opacity="0" fill="#D8D8D8" fill-rule="nonzero">
                <rect id="矩形" x="0" y="0" width="42" height="42"></rect>
            </g>
            <g id="底块" transform="translate(0.909091, 0.424242)">
                <polygon id="路径-7备份-2" fill="#416480" fill-rule="nonzero" transform="translate(17.090909, 22.575758) scale(-1, 1) translate(-17.090909, -22.575758) " points="0.0909089 39.5757576 0.0909089 5.57575758 34.0909089 5.57575758 34.0909089 39.5757576"></polygon>
                <polygon id="路径-7备份-6" fill="#EEF3F7" fill-rule="nonzero" transform="translate(20.090909, 3.075758) rotate(180.000000) translate(-20.090909, -3.075758) " points="0.0909089 5.57575842 6.0909089 0.57575842 40.0909089 0.57575842 32.2909089 5.57575842"></polygon>
                <polygon id="路径-7备份-5" fill="#AFC0C8" fill-rule="nonzero" transform="translate(37.090909, 20.075758) scale(-1, 1) translate(-37.090909, -20.075758) " points="34.0909089 33.5757576 34.0909089 0.575757576 40.0909089 5.57575758 40.0909089 39.5757576"></polygon>
                <polygon id="路径-7备份-4" stroke="#FFFFFF" opacity="0.25" transform="translate(17.090909, 22.575758) scale(-1, 1) translate(-17.090909, -22.575758) " points="31.5909089 8.07575758 31.5909089 37.0757576 2.5909089 37.0757576 2.5909089 8.07575758"></polygon>
                <polygon id="路径-7备份-4" stroke="#32526B" transform="translate(17.090909, 22.575758) scale(-1, 1) translate(-17.090909, -22.575758) " points="30.5909089 9.07575758 30.5909089 36.0757576 3.5909089 36.0757576 3.5909089 9.07575758"></polygon>
            </g>
            <g id="Icon/Docker" transform="translate(8.000000, 13.000000)" fill-rule="nonzero">
                <rect id="矩形" fill="#D8D8D8" opacity="0" x="0" y="3.55271368e-15" width="20" height="20"></rect>
                <g id="服务节点">
                    <rect id="矩形备份-3" fill="#D8D8D8" opacity="0" x="0" y="3.55271368e-15" width="20" height="20"></rect>
                    <g id="编组" transform="translate(0.000000, 3.000000)">
                        <path d="M15.8378378,3.35135135 C15.8378378,3.35135135 17.1891892,4.16216216 17.3513514,5.56756757 C18.2702703,5.2972973 19.1891892,5.45945946 19.9459459,5.89189189 C19.9459459,5.89189189 19.4054054,7.72972973 16.9189189,7.56756757 C16.9189189,7.56756757 15.7297297,11.7837838 10.6486486,13.3513514 C10.6486486,13.3513514 6.97297297,14.4864865 4.32432432,13.4594595 C3.78378378,13.2972973 3.24324324,13.027027 2.75675676,12.6486486 C3.56756757,12.4864865 4.32432432,12.2162162 5.02702703,11.8378378 C5.18918919,11.7837838 5.18918919,11.5675676 5.13513514,11.4054054 C5.08108108,11.2432432 4.86486486,11.2432432 4.7027027,11.2972973 C3.89189189,11.7297297 2.97297297,12 2.05405405,12.0540541 C1.13513514,11.1351351 0.540540541,9.89189189 0.486486486,8.59459459 C0.486486486,8.16216216 0.486486486,7.72972973 0.540540541,7.2972973 L0.540540541,7.2972973 L12.2702703,7.2972973 L13.6756757,7.24324324 C14.3243243,7.24324324 15.027027,7.13513514 15.6216216,6.75675676 C15.6216216,6.75675676 14.3243243,4.97297297 15.8378378,3.35135135 Z M6.05555555,10.3611111 C5.8561194,10.3611111 5.69444444,10.5227861 5.69444444,10.7222222 C5.69444444,10.9216584 5.8561194,11.0833333 6.05555555,11.0833333 C6.25499172,11.0833333 6.41666667,10.9216584 6.41666667,10.7222222 C6.41666667,10.5227861 6.25499172,10.3611111 6.05555555,10.3611111 Z" id="形状结合" fill="#EFF3F8"></path>
                        <circle id="椭圆形" fill="#23CCD1" cx="6.13888889" cy="10.5833333" r="1"></circle>
                        <polygon id="矩形" fill="#EFF3F8" transform="translate(2.965137, 6.195834) rotate(-89.750005) translate(-2.965137, -6.195834) " points="2.04620947 5.2769066 3.88406481 5.2769066 3.88406481 7.11476194 2.04620947 7.11476194"></polygon>
                        <polygon id="矩形" fill="#EFF3F8" transform="translate(5.192320, 6.206807) rotate(-89.750005) translate(-5.192320, -6.206807) " points="4.27339245 5.28787915 6.11124778 5.28787915 6.11124778 7.12573448 4.27339245 7.12573448"></polygon>
                        <polygon id="矩形" fill="#EFF3F8" transform="translate(7.419341, 6.217672) rotate(-89.750005) translate(-7.419341, -6.217672) " points="6.50041331 5.29874385 8.33826864 5.29874385 8.33826864 7.13659918 6.50041331 7.13659918"></polygon>
                        <polygon id="矩形" fill="#EFF3F8" transform="translate(9.609390, 6.191348) rotate(-89.750005) translate(-9.609390, -6.191348) " points="8.69046197 5.27242051 10.5283173 5.27242051 10.5283173 7.11027584 8.69046197 7.11027584"></polygon>
                        <rect id="矩形" fill="#23CCD1" transform="translate(5.229023, 3.804592) rotate(-89.750005) translate(-5.229023, -3.804592) " x="4.31009511" y="2.88566444" width="1.83785533" height="1.83785533"></rect>
                        <polygon id="矩形" fill="#23CCD1" transform="translate(7.460064, 3.765186) rotate(-89.750005) translate(-7.460064, -3.765186) " points="6.5411367 2.84625851 8.37899203 2.84625851 8.37899203 4.68411384 6.5411367 4.68411384"></polygon>
                        <polygon id="矩形" fill="#EFF3F8" transform="translate(9.655444, 3.798538) rotate(-89.750005) translate(-9.655444, -3.798538) " points="8.73651607 2.87961048 10.5743714 2.87961048 10.5743714 4.71746582 8.73651607 4.71746582"></polygon>
                        <rect id="矩形" fill="#23CCD1" x="8.7027027" y="0.378378378" width="1.83783784" height="1.83783784"></rect>
                        <polygon id="矩形" fill="#23CCD1" transform="translate(11.881404, 6.193131) rotate(-89.750005) translate(-11.881404, -6.193131) " points="10.9624767 5.27420364 12.8003321 5.27420364 12.8003321 7.11205897 10.9624767 7.11205897"></polygon>
                    </g>
                </g>
            </g>
        </g>
    </g>
</svg>