<?xml version="1.0" encoding="UTF-8"?>
<svg width="42px" height="42px" viewBox="0 0 42 42" version="1.1" xmlns="http://www.w3.org/2000/svg" xmlns:xlink="http://www.w3.org/1999/xlink">
    <title>domain</title>
    <g id="页面-1" stroke="none" stroke-width="1" fill="none" fill-rule="evenodd">
        <g id="domain">
            <g id="背景区域备份" opacity="0" fill="#D8D8D8" fill-rule="nonzero">
                <rect id="矩形" x="0" y="0" width="42" height="42"></rect>
            </g>
            <g id="底块备份" transform="translate(0.909091, 0.424242)">
                <polygon id="路径-7备份-2" fill="#416480" fill-rule="nonzero" transform="translate(17.090909, 22.575758) scale(-1, 1) translate(-17.090909, -22.575758) " points="0.0909089 39.5757576 0.0909089 5.57575758 34.0909089 5.57575758 34.0909089 39.5757576"></polygon>
                <polygon id="路径-7备份-6" fill="#EEF3F7" fill-rule="nonzero" transform="translate(20.090909, 3.075758) rotate(180.000000) translate(-20.090909, -3.075758) " points="0.0909089 5.57575842 6.0909089 0.57575842 40.0909089 0.57575842 32.2909089 5.57575842"></polygon>
                <polygon id="路径-7备份-5" fill="#AFC0C8" fill-rule="nonzero" transform="translate(37.090909, 20.075758) scale(-1, 1) translate(-37.090909, -20.075758) " points="34.0909089 33.5757576 34.0909089 0.575757576 40.0909089 5.57575758 40.0909089 39.5757576"></polygon>
                <polygon id="路径-7备份-4" stroke="#FFFFFF" opacity="0.25" transform="translate(17.090909, 22.575758) scale(-1, 1) translate(-17.090909, -22.575758) " points="31.5909089 8.07575758 31.5909089 37.0757576 2.5909089 37.0757576 2.5909089 8.07575758"></polygon>
                <polygon id="路径-7备份-4" stroke="#32526B" transform="translate(17.090909, 22.575758) scale(-1, 1) translate(-17.090909, -22.575758) " points="30.5909089 9.07575758 30.5909089 36.0757576 3.5909089 36.0757576 3.5909089 9.07575758"></polygon>
            </g>
            <g id="编组" transform="translate(8.000000, 13.000000)">
                <rect id="矩形备份-12" x="0" y="0" width="20" height="20"></rect>
                <g transform="translate(0.555556, 0.555556)" fill="#EFF3F8" fill-rule="nonzero" id="形状结合">
                    <path d="M16.2999665,15.7221883 C16.3571239,15.7579777 16.4198216,15.777208 16.4825581,15.7811811 C14.9808089,17.4695514 12.8906559,18.6154649 10.5374895,18.8889972 C11.5883188,18.2753734 12.4590511,16.8091221 13.0277657,14.8419646 C14.475532,15.039901 15.7064125,15.3505326 16.2999665,15.7221883 Z M8.19076291,18.8227776 L8.28523401,18.8810675 C5.94530735,18.5922149 3.86957553,17.4401798 2.38003252,15.7500191 C2.48920854,15.7970909 2.61814824,15.7935447 2.7291751,15.7294314 C3.32465593,15.3855664 4.47845228,15.087523 5.82066537,14.8848345 C6.37049088,16.7631809 7.19596853,18.1784416 8.19076291,18.8227776 Z M9.45056109,14.6050065 L9.87187528,14.6069526 C10.6581033,14.6174493 11.4628664,14.6658873 12.2310574,14.7455845 C11.5670854,16.974878 10.5247461,18.4113713 9.41818904,18.4113713 C8.31720741,18.4113713 7.27979799,16.989317 6.61519074,14.7796047 C7.54467099,14.6697491 8.52585612,14.6070536 9.45056109,14.6050065 Z M5.61684936,14.1115625 L5.50120263,14.129322 C4.1538919,14.3463684 2.99108761,14.6620819 2.33805928,15.0391781 C2.180818,15.1299783 2.10909328,15.3136262 2.15188407,15.4825932 C0.921491436,13.9776059 0.138408995,12.0845749 0.0104888969,10.012322 L5.09734273,10.0130768 C5.14327567,11.4910392 5.32481022,12.881338 5.61684936,14.1115625 Z M18.8784031,10.012322 C18.7559209,11.9964826 18.0327949,13.8163349 16.8904062,15.2887727 C16.865919,15.1913829 16.8059839,15.1032886 16.7151637,15.0464212 C16.0339569,14.6198814 14.7391474,14.2801466 13.2298927,14.0654901 C13.5160526,12.8468178 13.6936724,11.472698 13.7390354,10.0130768 L18.8784031,10.012322 Z M12.4579718,13.8913585 L12.4399477,13.9666565 C11.5392404,13.8687088 10.590439,13.8140322 9.66879019,13.8098418 L9.44802142,13.8098097 C8.45329259,13.8120116 7.40102243,13.8803759 6.40522929,14.0018332 C6.1190957,12.8230842 5.9334141,11.4671095 5.88569283,10.0123808 L12.9506857,10.0123808 C12.9044627,11.4214494 12.7288015,12.7378772 12.4579718,13.8913585 Z M2.13696854,3.77296267 C2.79960775,4.18787632 4.07190608,4.54259319 5.53475073,4.7822452 C5.26132624,6.05884985 5.10306912,7.4945039 5.08712732,9.01210839 L1.0661619e-05,9.01185606 C0.0832580066,6.96264911 0.80665824,5.08013576 1.97370453,3.56269207 C2.00037738,3.64781054 2.05657163,3.72262188 2.13696854,3.77296267 Z M9.52405304,5.11030239 C10.5037332,5.10813353 11.5390829,5.04182898 12.5213212,4.92386229 C12.7857065,6.14376646 12.9450515,7.53292421 12.9614697,9.01263941 L5.87500711,9.01196236 L5.87567664,8.95092461 C5.89592486,7.48389484 6.05662074,6.10725236 6.32053551,4.89737334 C7.3787187,5.03536035 8.49410311,5.11250992 9.52405304,5.11030239 Z M16.8207893,3.44196373 C18.0431591,4.9797571 18.8034119,6.90795095 18.8888813,9.01185606 L13.7480071,9.01196236 L13.7485467,8.9521722 C13.7293005,7.47067173 13.5743703,6.06844389 13.308215,4.81605807 C14.7247649,4.59901032 15.9555903,4.27317779 16.6348549,3.88093123 C16.776464,3.79915797 16.8487147,3.64208028 16.8304254,3.48823944 L16.8207893,3.44196373 Z M9.41818904,0.121740127 C10.5828113,0.121740127 11.6762995,1.71294518 12.3326406,4.1444668 L12.0641443,4.1741636 C11.2232947,4.26283011 10.3501905,4.31327018 9.52235312,4.31510289 C8.55716138,4.31717162 7.50697848,4.24491533 6.51075542,4.11907508 C7.16797696,1.70147389 8.2577724,0.121740127 9.41818904,0.121740127 Z M11.0226588,-0.0018301057 C13.2419038,0.377876689 15.1933079,1.53105896 16.5992053,3.17337859 C16.488344,3.12291064 16.3567605,3.12541294 16.2437391,3.19067798 C15.6441179,3.53693385 14.4783901,3.83672875 13.1242241,4.03948895 C12.6437472,2.21720594 11.913938,0.785453055 11.0226588,-0.0018301057 Z M5.7522471,3.89136163 L5.72174279,4.00637691 C4.32948921,3.7836123 3.13042687,3.45927555 2.55216578,3.09719553 C2.50564935,3.06806912 2.45546351,3.04991002 2.40457363,3.0420166 C3.78694695,1.48483752 5.67002265,0.388775313 7.79829767,0.011472168 C6.9381425,0.780303673 6.22930849,2.15067592 5.7522471,3.89136163 Z"></path>
                </g>
            </g>
        </g>
    </g>
</svg>