<?xml version="1.0" encoding="UTF-8"?>
<svg width="42px" height="42px" viewBox="0 0 42 42" version="1.1" xmlns="http://www.w3.org/2000/svg" xmlns:xlink="http://www.w3.org/1999/xlink">
    <title>elastic-search</title>
    <g id="页面-1" stroke="none" stroke-width="1" fill="none" fill-rule="evenodd">
        <g id="elastic-search">
            <g id="背景区域" opacity="0" fill="#D8D8D8" fill-rule="nonzero">
                <rect id="矩形" x="0" y="0" width="42" height="42"></rect>
            </g>
            <g id="底块" transform="translate(0.909091, 0.424242)">
                <polygon id="路径-7备份-2" fill="#416480" fill-rule="nonzero" transform="translate(17.090909, 22.575758) scale(-1, 1) translate(-17.090909, -22.575758) " points="0.0909089 39.5757576 0.0909089 5.57575758 34.0909089 5.57575758 34.0909089 39.5757576"></polygon>
                <polygon id="路径-7备份-6" fill="#EEF3F7" fill-rule="nonzero" transform="translate(20.090909, 3.075758) rotate(180.000000) translate(-20.090909, -3.075758) " points="0.0909089 5.57575842 6.0909089 0.57575842 40.0909089 0.57575842 32.2909089 5.57575842"></polygon>
                <polygon id="路径-7备份-5" fill="#AFC0C8" fill-rule="nonzero" transform="translate(37.090909, 20.075758) scale(-1, 1) translate(-37.090909, -20.075758) " points="34.0909089 33.5757576 34.0909089 0.575757576 40.0909089 5.57575758 40.0909089 39.5757576"></polygon>
                <polygon id="路径-7备份-4" stroke="#FFFFFF" opacity="0.25" transform="translate(17.090909, 22.575758) scale(-1, 1) translate(-17.090909, -22.575758) " points="31.5909089 8.07575758 31.5909089 37.0757576 2.5909089 37.0757576 2.5909089 8.07575758"></polygon>
                <polygon id="路径-7备份-4" stroke="#32526B" transform="translate(17.090909, 22.575758) scale(-1, 1) translate(-17.090909, -22.575758) " points="30.5909089 9.07575758 30.5909089 36.0757576 3.5909089 36.0757576 3.5909089 9.07575758"></polygon>
            </g>
            <g id="编组" transform="translate(8.000000, 13.000000)">
                <polygon id="矩形备份-17" points="0 0 20 0 20 20 13.6025994 20 0 20"></polygon>
                <g transform="translate(1.000000, 1.000000)">
                    <rect id="矩形备份-16" opacity="0.446149554" x="0" y="0" width="18" height="18"></rect>
                    <path d="M0.109422975,8.90182426 C0.0591671078,9.80666875 0.20993471,10.7115132 0.561725781,11.5660886 L7.09498853,11.5660886 C7.296012,10.7115132 7.4467796,9.85693789 7.4467796,9.00236254 C7.4467796,8.14778719 7.34626787,7.29321184 7.09498853,6.43863649 L0.461214046,6.43863649 C0.260190577,7.2429427 0.109422975,8.04724891 0.109422975,8.90182426 Z M13.3267161,6.43863649 L8.35138521,6.43863649 C8.55240868,7.29321184 8.70317628,8.14778719 8.70317628,9.00236254 C8.70317628,9.85693789 8.60266455,10.7115132 8.35138521,11.5660886 L13.3267161,11.5660886 C14.7338804,11.6666269 15.990277,10.610975 16.0907888,9.20343909 C16.1913005,7.79590322 15.1359273,6.53917477 13.728763,6.43863649 C13.5779954,6.43863649 13.4774837,6.43863649 13.3267161,6.43863649 Z M1.11454032,5.23217717 L6.79345333,5.23217717 C6.19038292,3.97544872 5.38628904,2.7689894 4.48168343,1.66306836 C3.02426328,2.51764371 1.86837833,3.72410303 1.11454032,5.23217717 Z M14.3318334,5.23217717 C15.638486,5.23217717 16.9451385,4.72948579 17.9,3.77437217 C15.8897653,1.41172267 12.9246691,0.0544559387 9.80880536,0.104725077 C8.30112935,0.0544559387 6.84370919,0.406339906 5.48680078,1.11010784 C6.54217399,2.26629802 7.39652373,3.62356475 7.94933827,5.08136976 L14.3318334,5.23217717 Z M1.01402859,12.7725479 L6.69294159,12.7725479 C6.19038292,14.0795455 5.38628904,15.2860048 4.3811717,16.2411184 C2.92375154,15.3865431 1.81812246,14.1800838 1.01402859,12.7725479 L1.01402859,12.7725479 Z M14.3318334,12.7725479 C15.638486,12.7725479 16.9451385,13.2752393 17.9,14.2303529 C16.1410446,16.442195 13.0251809,17.9 9.80880536,17.9 C8.30112935,17.9 6.84370919,17.548116 5.48680078,16.8946172 C6.59242986,15.7384271 7.39652373,14.3811603 7.94933827,12.9233553 L14.3318334,12.7725479 Z" id="形状" fill="#EFF3F8" fill-rule="nonzero"></path>
                </g>
            </g>
        </g>
    </g>
</svg>