<?xml version="1.0" encoding="UTF-8"?>
<svg width="42px" height="42px" viewBox="0 0 42 42" version="1.1" xmlns="http://www.w3.org/2000/svg" xmlns:xlink="http://www.w3.org/1999/xlink">
    <title>elb</title>
    <g id="页面-1" stroke="none" stroke-width="1" fill="none" fill-rule="evenodd">
        <g id="elb">
            <g id="背景区域备份" opacity="0" fill="#D8D8D8" fill-rule="nonzero">
                <rect id="矩形" x="0" y="0" width="42" height="42"></rect>
            </g>
            <g id="底块备份" transform="translate(0.909091, 0.424242)">
                <polygon id="路径-7备份-2" fill="#416480" fill-rule="nonzero" transform="translate(17.090909, 22.575758) scale(-1, 1) translate(-17.090909, -22.575758) " points="0.0909089 39.5757576 0.0909089 5.57575758 34.0909089 5.57575758 34.0909089 39.5757576"></polygon>
                <g id="编组" transform="translate(7.090909, 12.575758)">
                    <polygon id="矩形备份-8" points="0 0 20 0 20 20 13.6025995 20 0 20"></polygon>
                    <g transform="translate(0.555556, 0.555556)" fill="#FFFFFF" fill-rule="nonzero" id="形状结合">
                        <path d="M13.2429724,14.2338757 C12.765625,16.2460915 12.0043488,17.8442868 11.1048089,18.742877 L11.0279158,18.7567247 C10.5130527,18.8436382 9.98403299,18.8888889 9.44444444,18.8888889 C8.87780621,18.8888889 8.32282303,18.8389877 7.78364974,18.7433401 C6.88892291,17.8484476 6.13095986,16.2620918 5.65422967,14.2644816 C6.74967656,14.4459152 7.92574272,14.5486672 9.14959852,14.5592722 L9.36049383,14.5601852 C10.7263992,14.5601852 12.0356282,14.4454902 13.2429724,14.2338757 Z M18.4518658,12.2925537 C17.5358973,15.192112 15.2585525,17.4869524 12.3698159,18.4270903 C13.1153647,17.3328624 13.7093441,15.8269283 14.0895831,14.0658677 C15.7910721,13.687908 17.2481622,13.109285 18.3172975,12.3866518 L18.4518658,12.2925537 Z M0.485213998,12.4408004 C1.58463839,13.1632675 3.07468646,13.7369605 4.80809376,14.104349 L4.85152611,14.3002849 C5.23290474,15.9606226 5.80684259,17.3817167 6.5195361,18.4267275 C3.67974502,17.5030324 1.43107333,15.2702171 0.485213998,12.4408004 Z M9.36049383,5.11574074 C10.8063156,5.11574074 12.178534,5.25051383 13.4188568,5.49010921 C13.6458113,6.70324996 13.7731481,8.0390761 13.7731481,9.44444444 C13.7731481,10.8498128 13.6458113,12.1856389 13.4186442,13.3983879 C12.2403501,13.6264516 10.9424408,13.759497 9.57543407,13.7721539 L9.36049383,13.7731481 C7.98203262,13.7731481 6.6704762,13.6506406 5.47634307,13.4315822 C5.25714146,12.2721362 5.1291377,10.9989353 5.11673504,9.65938468 L5.11574074,9.44444444 C5.11574074,8.02623991 5.24541428,6.67885374 5.47649432,5.45730121 C6.6704762,5.23824826 7.98203262,5.11574074 9.36049383,5.11574074 Z M4.64308548,5.63006914 C4.44983642,6.75627304 4.34057074,7.96941769 4.32961665,9.23354914 L4.3287037,9.44444444 C4.3287037,10.7849025 4.43916487,12.0707763 4.64328691,13.2593375 C2.67180452,12.8010844 1.09086557,12.0709011 0.164744614,11.2041584 C0.0562351456,10.6343615 -6.39488462e-14,10.0459702 -6.39488462e-14,9.44444444 C-6.39488462e-14,8.84267675 0.0562803918,8.25405404 0.163864684,7.68355281 C1.09086557,6.81798782 2.67180452,6.08780448 4.64308548,5.63006914 Z M14.252763,5.67151534 C16.2956365,6.1686349 17.9001926,6.96065014 18.7619231,7.89110406 L18.796693,8.11956778 C18.8574648,8.55246968 18.8888889,8.99478732 18.8888889,9.44444444 C18.8888889,9.97392442 18.8453178,10.4932278 18.7615655,10.9989648 C17.8996317,11.9285013 16.295355,12.7202997 14.2533735,13.2171065 C14.4522551,12.041134 14.5601852,10.769456 14.5601852,9.44444444 C14.5601852,8.11974688 14.4523063,6.84835752 14.252763,5.67151534 Z M7.41683998,6.77899829 L7.375,6.782 L7.33946551,6.77990315 L7.32757937,6.77923981 C7.32623733,6.77919423 7.32489507,6.77915548 7.32355265,6.77912356 L7.33946551,6.77990315 C7.31199331,6.77796704 7.28499847,6.77916715 7.25877247,6.78322282 C7.17992383,6.79416542 7.10423629,6.82899199 7.04263163,6.88773483 C6.95953086,6.96697516 6.91868159,7.07388068 6.92075332,7.18029609 L6.92149108,7.18235886 L6.924,7.259 L6.89444375,9.19274254 C6.8910239,9.41005859 7.10483584,9.58851004 7.37204753,9.59132501 C7.63925921,9.59413999 7.85868301,9.42025251 7.86214431,9.20293647 L7.876,8.332 L10.486,11.07 L9.53267538,11.0036686 C9.3157896,10.9883835 9.12865608,11.1685691 9.11470096,11.4061243 C9.10074584,11.6436795 9.26525365,11.848647 9.48213943,11.8639321 L11.4392382,12.0018589 C11.5512959,12.0097561 11.6554113,11.9654736 11.731803,11.8880584 C11.9095865,11.8315633 12.0360662,11.6918948 12.0386875,11.5273192 L12.0709869,9.50201054 C12.0744068,9.2846945 11.8605949,9.10624305 11.5933832,9.10342807 C11.3261715,9.1006131 11.1067477,9.27450057 11.1032864,9.49181662 L11.086,10.558 L8.376,7.717 L9.24602832,7.77809344 C9.4629141,7.79337849 9.65004763,7.61319293 9.66400274,7.37563772 C9.67795786,7.13808252 9.51345005,6.93311499 9.29656427,6.91782994 L7.53222319,6.79155718 C7.49531023,6.78378651 7.45666828,6.77946493 7.41683998,6.77899829 Z M12.3698159,0.461798602 C15.2582187,1.40182784 17.535371,3.69624651 18.4515482,6.59532998 C17.372162,5.82938784 15.8637118,5.21712231 14.0900335,4.82298923 C13.7122878,3.07559439 13.1245489,1.57935905 12.3866518,0.487640816 L12.3698159,0.461798602 Z M6.52007452,0.46147271 C5.77905451,1.547756 5.18816572,3.04004456 4.80756248,4.78497472 L4.78129045,4.79024128 C3.05931701,5.15785235 1.57895665,5.72935014 0.485921171,6.44744263 C1.43118455,3.61833912 3.68027383,1.38533142 6.52007452,0.46147271 Z M9.44444444,0 C10.0113274,0 10.5665451,0.0499443194 11.1059376,0.145672734 C12.0044032,1.04471608 12.765642,2.64286916 13.2419598,4.65512368 C12.0356282,4.44339867 10.7263992,4.3287037 9.36049383,4.3287037 C8.06100323,4.3287037 6.8128114,4.43251615 5.65484767,4.62483453 C6.13112601,2.62635411 6.88913863,1.04006779 7.78398368,0.146108029 C8.32282303,0.0499012151 8.87780621,0 9.44444444,0 Z"></path>
                    </g>
                </g>
                <polygon id="路径-7备份-6" fill="#EEF3F7" fill-rule="nonzero" transform="translate(20.090909, 3.075758) rotate(180.000000) translate(-20.090909, -3.075758) " points="0.0909089 5.57575842 6.0909089 0.57575842 40.0909089 0.57575842 32.2909089 5.57575842"></polygon>
                <polygon id="路径-7备份-5" fill="#AFC0C8" fill-rule="nonzero" transform="translate(37.090909, 20.075758) scale(-1, 1) translate(-37.090909, -20.075758) " points="34.0909089 33.5757576 34.0909089 0.575757576 40.0909089 5.57575758 40.0909089 39.5757576"></polygon>
                <polygon id="路径-7备份-4" stroke="#FFFFFF" opacity="0.25" transform="translate(17.090909, 22.575758) scale(-1, 1) translate(-17.090909, -22.575758) " points="31.5909089 8.07575758 31.5909089 37.0757576 2.5909089 37.0757576 2.5909089 8.07575758"></polygon>
                <polygon id="路径-7备份-4" stroke="#32526B" transform="translate(17.090909, 22.575758) scale(-1, 1) translate(-17.090909, -22.575758) " points="30.5909089 9.07575758 30.5909089 36.0757576 3.5909089 36.0757576 3.5909089 9.07575758"></polygon>
            </g>
        </g>
    </g>
</svg>