<?xml version="1.0" encoding="UTF-8"?>
<svg width="42px" height="42px" viewBox="0 0 42 42" version="1.1" xmlns="http://www.w3.org/2000/svg" xmlns:xlink="http://www.w3.org/1999/xlink">
    <title>f5-profiles</title>
    <g id="页面-1" stroke="none" stroke-width="1" fill="none" fill-rule="evenodd">
        <g id="f5-profiles">
            <g id="背景区域" opacity="0" fill="#D8D8D8" fill-rule="nonzero">
                <rect id="矩形" x="0" y="0" width="42" height="42"></rect>
            </g>
            <g id="底块" transform="translate(1.000000, 1.000000)">
                <polygon id="路径-7备份-2" fill="#416480" fill-rule="nonzero" transform="translate(17.000000, 22.000000) scale(-1, 1) translate(-17.000000, -22.000000) " points="0 39 0 5 34 5 34 39"></polygon>
                <polygon id="路径-7备份-6" fill="#EEF3F7" fill-rule="nonzero" transform="translate(20.000000, 2.500000) rotate(180.000000) translate(-20.000000, -2.500000) " points="0 5 6 0 40 0 32.2 5"></polygon>
                <polygon id="路径-7备份-5" fill="#AFC0C8" fill-rule="nonzero" transform="translate(37.000000, 19.500000) scale(-1, 1) translate(-37.000000, -19.500000) " points="34 33 34 -1.69135539e-17 40 5 40 39"></polygon>
                <polygon id="路径-7备份-4" stroke="#FFFFFF" opacity="0.25" transform="translate(17.000000, 22.000000) scale(-1, 1) translate(-17.000000, -22.000000) " points="31.5 7.5 31.5 36.5 2.5 36.5 2.5 7.5"></polygon>
                <polygon id="路径-7备份-4" stroke="#32526B" transform="translate(17.000000, 22.000000) scale(-1, 1) translate(-17.000000, -22.000000) " points="30.5 8.5 30.5 35.5 3.5 35.5 3.5 8.5"></polygon>
            </g>
            <g id="F5-profiles" transform="translate(8.000000, 13.000000)">
                <rect id="矩形备份" x="0" y="0" width="20" height="20"></rect>
                <g id="图形" transform="translate(2.000000, 1.000000)" fill-rule="nonzero">
                    <path d="M13.8215488,0 C14.4755892,0 15,0.426136361 15,0.946969694 L15,14.0530303 C15,14.5785985 14.469697,15 13.8215488,15 L2.17845118,15 C1.52441078,15 1,14.5738636 1,14.0530303 L1,0.946969694 C1,0.421401512 1.53030303,0 2.17845118,0 L13.8215488,0 L13.8215488,0 Z" id="路径" fill="#FFFFFF"></path>
                    <path d="M12.1582491,2 C12.6254209,2 13,2.36931818 13,2.82070707 L13,14.1792929 C13,14.6347854 12.6212121,15 12.1582491,15 L3.84175084,15 C3.37457913,15 3,14.6306818 3,14.1792929 L3,2.82070707 C3,2.36521464 3.37878788,2 3.84175084,2 L12.1582491,2 L12.1582491,2 Z" id="路径" fill="#23CCD1"></path>
                    <path d="M0.907118345,17 C0.403667652,17 0,16.5783123 0,16.0629162 L0,16.0629162 L0,7.93839994 C0,7.19810376 0.793728569,6.74830353 1.39696226,7.15124957 L1.39696226,7.15124957 L8,11.553 L14.6030377,7.15124957 C15.2062714,6.74830353 16,7.19810376 16,7.93839994 L16,16.0629162 C16,16.5783123 15.5963323,17 15.0928817,17 L0.907118345,17 Z" id="形状结合" fill="#FFFFFF"></path>
                    <path d="M10.5167568,4.48348348 C10.6361697,4.48348348 10.732973,4.5858184 10.732973,4.71205491 C10.732973,4.83829143 10.6361697,4.94062634 10.5167568,4.94062634 L10.5167568,4.94062634 L9.0071892,4.94048348 L9.00756756,5.68198041 L9.08984667,5.66296737 C9.69481787,5.54149279 10.3290992,5.81320123 10.6169955,6.35845978 C10.9366195,6.96162124 10.7384296,7.74022444 10.1710269,8.12193022 C9.5378748,8.55100853 8.63172236,8.35956787 8.18745827,7.69067587 C8.12139133,7.59120427 8.14847116,7.45700871 8.24794276,7.39094178 C8.34741436,7.3248748 8.48160987,7.35195462 8.54767684,7.45142622 C8.86039053,7.92225356 9.49653084,8.05664938 9.92904289,7.76354356 C10.313994,7.50457644 10.4505857,6.96796618 10.2347452,6.56065373 C10.0016511,6.11918759 9.42007533,5.93668936 8.9116168,6.17617176 C8.75573409,6.22813267 8.57513516,6.12779992 8.57513516,5.94078078 L8.57513516,5.94078078 L8.57513516,4.6996997 C8.57513516,4.58028678 8.67193844,4.48348348 8.79135133,4.48348348 C8.79379546,4.48348348 8.79623011,4.48352404 8.79865465,4.48360451 L8.80432431,4.48348348 L10.5167568,4.48348348 Z M7.43783782,4.48348348 C7.55725076,4.48348348 7.65405404,4.5858184 7.65405404,4.71205491 C7.65405404,4.83829143 7.55725076,4.94062634 7.43783782,4.94062634 L7.43783782,4.94062634 L5.6461892,4.94048348 L5.6461892,6.17348348 L7.43783782,6.17429429 C7.5373486,6.17429429 7.62115824,6.24536021 7.64633059,6.34210239 L7.65405404,6.40286573 C7.65405404,6.52910222 7.55725076,6.63143716 7.43783782,6.63143716 L7.43783782,6.63143716 L5.6461892,6.63048348 L5.64633204,8.1332132 C5.64633204,8.23272398 5.57526612,8.31653361 5.47852395,8.34170597 L5.41776062,8.34942942 C5.29152409,8.34942942 5.1891892,8.25262613 5.1891892,8.1332132 L5.1891892,8.1332132 L5.1891892,4.6996997 C5.1891892,4.6454211 5.21033277,4.59581391 5.24525391,4.55784598 C5.24814668,4.55511858 5.25118034,4.55179024 5.25430623,4.54856126 C5.25749595,4.54547462 5.26082429,4.54244097 5.26424716,4.53950412 C5.30151962,4.50462706 5.35112682,4.48348348 5.40540542,4.48348348 L5.40540542,4.48348348 L7.43783782,4.48348348 Z" id="形状结合" fill="#FFFFFF"></path>
                </g>
            </g>
        </g>
    </g>
</svg>