<?xml version="1.0" encoding="UTF-8"?>
<svg width="42px" height="42px" viewBox="0 0 42 42" version="1.1" xmlns="http://www.w3.org/2000/svg" xmlns:xlink="http://www.w3.org/1999/xlink">
    <title>f5</title>
    <g id="页面-1" stroke="none" stroke-width="1" fill="none" fill-rule="evenodd">
        <g id="f5">
            <g id="背景区域" opacity="0" fill="#D8D8D8" fill-rule="nonzero">
                <rect id="矩形" x="0" y="0" width="42" height="42"></rect>
            </g>
            <g id="底块" transform="translate(0.909091, 0.424242)">
                <polygon id="路径-7备份-2" fill="#416480" fill-rule="nonzero" transform="translate(17.090909, 22.575758) scale(-1, 1) translate(-17.090909, -22.575758) " points="0.0909089 39.5757576 0.0909089 5.57575758 34.0909089 5.57575758 34.0909089 39.5757576"></polygon>
                <g id="编组" transform="translate(7.090909, 12.575758)">
                    <rect id="矩形" x="0" y="0" width="20" height="20"></rect>
                    <g id="编组-3" transform="translate(2.333333, 1.250000)" fill-rule="nonzero">
                        <path d="M7.18553558,0.131213552 L0.483548828,4.01902249 C0.183748555,4.1939739 2.48689958e-14,4.50985837 2.48689958e-14,4.85976118 L2.48689958e-14,12.6402388 C2.48689958e-14,12.9852819 0.183748555,13.3060261 0.483548828,13.4809775 L7.18553558,17.3687864 C7.48533586,17.5437379 7.85283297,17.5437379 8.14779775,17.3687864 L14.8497845,13.4809775 C15.1495848,13.3060261 15.3333333,12.9901416 15.3333333,12.6402388 L15.3333333,4.85976118 C15.3333333,4.51471813 15.1495848,4.1939739 14.8497845,4.01902249 L8.14779775,0.131213552 C7.84799748,-0.0437378507 7.48050037,-0.0437378507 7.18553558,0.131213552 Z" id="路径" fill="#EFF3F8"></path>
                        <path d="M9.10038894,6.12815884 C9.10038894,5.92686095 8.9380198,5.76367676 8.73772732,5.76367676 C8.53743484,5.76367676 8.3750657,5.92686095 8.3750657,6.12815884 L8.3750657,8.05748403 C8.3750657,8.36704986 8.68442091,8.54641991 8.94726962,8.44735686 C9.7121229,8.08464793 10.5989664,8.36515092 10.9561584,9.04019882 C11.2855028,9.66034467 11.0768772,10.4752095 10.4917379,10.8763478 C9.83580725,11.3197446 8.86617776,11.1154346 8.39127227,10.4014407 C8.27996124,10.2340908 8.0547395,10.1891153 7.88822544,10.3009851 C7.72171138,10.4128548 7.67696048,10.6392071 7.78827151,10.8065571 C8.48411881,11.8527246 9.9042932,12.1519686 10.8985069,11.4798847 C11.7886734,10.8696464 12.1013392,9.64841374 11.5962999,8.69744079 C11.1429516,7.84066884 10.1517426,7.4114021 9.20533175,7.59775187 L9.10038894,7.62100036 L9.10038894,6.12815884 Z" id="路径" fill="#23CCD1"></path>
                        <path d="M8.75706927,6.76367676 L11.4117523,6.76367676 C11.6120448,6.76367676 11.774414,6.53981913 11.774414,6.26367676 C11.774414,5.98753438 11.6120448,5.76367676 11.4117523,5.76367676 L8.75706927,5.76367676 C8.55677679,5.76367676 8.39440765,5.98753438 8.39440765,6.26367676 C8.39440765,6.53981913 8.55677679,6.76367676 8.75706927,6.76367676 Z" id="路径" fill="#23CCD1"></path>
                        <path d="M3.49122254,6.76367676 L6.63912541,6.76367676 C6.83941789,6.76367676 7.00178703,6.53981913 7.00178703,6.26367676 C7.00178703,5.98753438 6.83941789,5.76367676 6.63912541,5.76367676 L3.49122254,5.76367676 C3.29093005,5.76367676 3.12856092,5.98753438 3.12856092,6.26367676 C3.12856092,6.53981913 3.29093005,6.76367676 3.49122254,6.76367676 Z" id="路径" fill="#23CCD1"></path>
                        <path d="M3.49122254,9.39280755 L6.63912541,9.39280755 C6.83941789,9.39280755 7.00178703,9.16894993 7.00178703,8.89280755 C7.00178703,8.61666518 6.83941789,8.39280755 6.63912541,8.39280755 L3.49122254,8.39280755 C3.29093005,8.39280755 3.12856092,8.61666518 3.12856092,8.89280755 C3.12856092,9.16894993 3.29093005,9.39280755 3.49122254,9.39280755 Z" id="路径" fill="#23CCD1"></path>
                        <path d="M3.12856092,6.12815884 L3.12856092,11.4738961 C3.12856092,11.675194 3.35241854,11.8383782 3.62856092,11.8383782 C3.90470329,11.8383782 4.12856092,11.675194 4.12856092,11.4738961 L4.12856092,6.12815884 C4.12856092,5.92686095 3.90470329,5.76367676 3.62856092,5.76367676 C3.35241854,5.76367676 3.12856092,5.92686095 3.12856092,6.12815884 Z" id="路径" fill="#23CCD1"></path>
                    </g>
                </g>
                <polygon id="路径-7备份-6" fill="#EEF3F7" fill-rule="nonzero" transform="translate(20.090909, 3.075758) rotate(180.000000) translate(-20.090909, -3.075758) " points="0.0909089 5.57575842 6.0909089 0.57575842 40.0909089 0.57575842 32.2909089 5.57575842"></polygon>
                <polygon id="路径-7备份-5" fill="#AFC0C8" fill-rule="nonzero" transform="translate(37.090909, 20.075758) scale(-1, 1) translate(-37.090909, -20.075758) " points="34.0909089 33.5757576 34.0909089 0.575757576 40.0909089 5.57575758 40.0909089 39.5757576"></polygon>
                <polygon id="路径-7备份-4" stroke="#FFFFFF" opacity="0.25" transform="translate(17.090909, 22.575758) scale(-1, 1) translate(-17.090909, -22.575758) " points="31.5909089 8.07575758 31.5909089 37.0757576 2.5909089 37.0757576 2.5909089 8.07575758"></polygon>
                <polygon id="路径-7备份-4" stroke="#32526B" transform="translate(17.090909, 22.575758) scale(-1, 1) translate(-17.090909, -22.575758) " points="30.5909089 9.07575758 30.5909089 36.0757576 3.5909089 36.0757576 3.5909089 9.07575758"></polygon>
            </g>
        </g>
    </g>
</svg>