<?xml version="1.0" encoding="UTF-8"?>
<svg width="42px" height="42px" viewBox="0 0 42 42" version="1.1" xmlns="http://www.w3.org/2000/svg" xmlns:xlink="http://www.w3.org/1999/xlink">
    <title>grafana</title>
    <g id="页面-1" stroke="none" stroke-width="1" fill="none" fill-rule="evenodd">
        <g id="grafana">
            <g id="背景区域" opacity="0" fill="#D8D8D8" fill-rule="nonzero">
                <rect id="矩形" x="-5.68434189e-14" y="0" width="42" height="42"></rect>
            </g>
            <g id="底块" transform="translate(1.000000, 1.000000)">
                <polygon id="路径-7备份-2" fill="#416480" fill-rule="nonzero" transform="translate(17.000000, 22.000000) scale(-1, 1) translate(-17.000000, -22.000000) " points="0 39 0 5 34 5 34 39"></polygon>
                <g id="路径" transform="translate(7.500000, 11.500000)" fill-rule="nonzero">
                    <g id="path-1-link" fill="#000000">
                        <path d="M18.5648855,7.9045802 C18.4198473,7.4694656 18.2748092,6.9618321 18.0572519,6.5267176 C17.8396947,6.019084 17.4770992,5.5114504 17.0419847,5.0038168 C16.8969466,4.7862595 16.6793893,4.6412214 16.5343511,4.4236641 C16.8244275,3.2633588 16.1717557,2.2480916 16.1717557,2.2480916 C15.0839695,2.1755725 14.3587786,2.610687 14.1412214,2.7557252 C14.0687023,2.7557252 14.0687023,2.6832061 13.9961832,2.6832061 C13.778626,2.610687 13.6335878,2.5381679 13.4160305,2.4656489 C13.1984733,2.3931298 12.980916,2.3206107 12.8358779,2.3206107 C12.6183206,2.2480916 12.4007634,2.2480916 12.1832061,2.1755725 C12.110687,2.1755725 12.110687,2.1755725 12.0381679,2.1755725 C11.5305344,0.6526718 10.1526718,0 10.1526718,0 C8.629771,0.9427481 8.3396947,2.3206107 8.3396947,2.3206107 C8.3396947,2.3206107 8.3396947,2.3206107 8.3396947,2.3931298 C8.2671756,2.3931298 8.1946565,2.4656489 8.0496183,2.4656489 C7.9045802,2.4656489 7.8320611,2.5381679 7.6870229,2.610687 C7.5419847,2.6832061 7.4694656,2.6832061 7.3244275,2.7557252 C7.1068702,2.8282443 6.889313,2.9732824 6.6717557,3.1183206 C6.4541985,3.2633588 6.2366412,3.4083969 6.019084,3.5534351 L5.9465649,3.5534351 C3.8435115,2.7557252 1.9580153,3.6984733 1.9580153,3.6984733 C1.8129771,5.9465649 2.8282443,7.3969466 3.0458015,7.6870229 C2.9732824,7.8320611 2.9732824,7.9770992 2.9007634,8.1221374 C2.7557252,8.629771 2.610687,9.1374046 2.5381679,9.7175573 C2.5381679,9.7900763 2.5381679,9.8625954 2.5381679,9.9351145 C0.5801527,10.8778626 0,12.9083969 0,12.9083969 C1.6679389,14.7938931 3.5534351,14.9389313 3.5534351,14.9389313 C3.7709924,15.3740458 4.0610687,15.8091603 4.4236641,16.1717557 C4.5687023,16.3167939 4.7137405,16.4618321 4.8587786,16.6068702 C4.278626,18.3473282 4.9312977,19.7251908 4.9312977,19.7251908 C6.7442748,19.7977099 7.9770992,18.9274809 8.1946565,18.7099237 C8.3396947,18.7824427 8.5572519,18.8549618 8.7748092,18.8549618 C9.3549618,19 9.9351145,19.0725191 10.5152672,19.1450382 C10.6603053,19.1450382 10.8053435,19.1450382 10.9503817,19.1450382 L11.1679389,19.1450382 L11.240458,19.1450382 C12.110687,20.3778626 13.6335878,20.5229008 13.6335878,20.5229008 C14.721374,19.3625954 14.7938931,18.2748092 14.7938931,17.9847328 L14.7938931,17.9122137 C15.0114504,17.7671756 15.2290076,17.5496183 15.4465649,17.4045802 C15.8816794,17.0419847 16.2442748,16.5343511 16.5343511,16.0992366 L16.6068702,15.9541985 C17.8396947,16.0267176 18.7099237,15.2290076 18.7099237,15.2290076 C18.4923664,13.9236641 17.7671756,13.3435115 17.6221374,13.1984733 C17.6221374,13.1259542 17.6221374,13.0534351 17.6221374,12.980916 C17.6221374,12.8358779 17.6221374,12.6908397 17.6221374,12.5458015 L17.6221374,12.4007634 L17.6221374,12.3282443 L17.6221374,12.1832061 C17.6221374,12.110687 17.6221374,12.110687 17.6221374,12.110687 C17.6221374,12.110687 17.6221374,12.0381679 17.6221374,12.0381679 L17.6221374,11.9656489 L17.6221374,11.8931298 C17.6221374,11.7480916 17.5496183,11.6030534 17.5496183,11.4580153 C17.4045802,10.8778626 17.1870229,10.370229 16.8969466,9.9351145 C16.6068702,9.5 16.2442748,9.0648855 15.8816794,8.7022901 C15.519084,8.3396947 15.0114504,8.0496183 14.5763359,7.8320611 C14.1412214,7.6145038 13.6335878,7.4694656 13.1259542,7.3969466 C12.9083969,7.3969466 12.6183206,7.3244275 12.4007634,7.3244275 L12.2557252,7.3244275 L12.1832061,7.3244275 C12.1832061,7.3244275 12.110687,7.3244275 12.110687,7.3244275 C11.9656489,7.3244275 11.8931298,7.3244275 11.7480916,7.3969466 C11.240458,7.4694656 10.8053435,7.6870229 10.370229,7.9045802 C9.9351145,8.1221374 9.6450382,8.4122137 9.3549618,8.7748092 C9.0648855,9.1374046 8.8473282,9.5 8.7022901,9.8625954 C8.5572519,10.2251908 8.4847328,10.6603053 8.4122137,11.0229008 C8.4122137,11.0954198 8.4122137,11.240458 8.4122137,11.3129771 L8.4122137,11.3854962 L8.4122137,11.4580153 C8.4122137,11.5305344 8.4122137,11.5305344 8.4122137,11.6030534 C8.4122137,11.8206107 8.4847328,11.9656489 8.4847328,12.1832061 C8.5572519,12.5458015 8.7748092,12.9083969 8.9923664,13.1984733 C9.2099237,13.4885496 9.4274809,13.7061069 9.7175573,13.9236641 C10.0076336,14.0687023 10.2977099,14.2137405 10.5877863,14.2862595 C10.8778626,14.3587786 11.1679389,14.4312977 11.3854962,14.4312977 L11.5305344,14.4312977 C11.5305344,14.4312977 11.5305344,14.4312977 11.6030534,14.4312977 C11.6030534,14.4312977 11.6755725,14.4312977 11.6755725,14.4312977 C11.6755725,14.4312977 11.6755725,14.4312977 11.7480916,14.4312977 C11.7480916,14.4312977 11.8206107,14.4312977 11.8206107,14.4312977 C11.8206107,14.4312977 11.8931298,14.4312977 11.8931298,14.4312977 C11.9656489,14.4312977 12.0381679,14.4312977 12.0381679,14.3587786 C12.1832061,14.2862595 12.2557252,14.2862595 12.3282443,14.2137405 C12.4007634,14.1412214 12.5458015,14.0687023 12.6183206,14.0687023 C12.6183206,14.0687023 12.6908397,14.0687023 12.6908397,13.9961832 C12.7633588,13.9236641 12.7633588,13.778626 12.6908397,13.7061069 C12.6183206,13.6335878 12.5458015,13.6335878 12.4007634,13.6335878 L12.3282443,13.6335878 C12.2557252,13.7061069 12.1832061,13.7061069 12.110687,13.7061069 C12.0381679,13.7061069 11.9656489,13.778626 11.8206107,13.778626 C11.7480916,13.778626 11.7480916,13.778626 11.6755725,13.778626 C11.6755725,13.778626 11.6030534,13.778626 11.6030534,13.778626 L11.4580153,13.778626 C11.4580153,13.778626 11.3854962,13.778626 11.3854962,13.778626 C11.3854962,13.778626 11.3854962,13.778626 11.3129771,13.778626 C11.3129771,13.778626 11.240458,13.778626 11.240458,13.778626 C11.0229008,13.778626 10.8053435,13.7061069 10.6603053,13.6335878 C10.4427481,13.5610687 10.2977099,13.4160305 10.0801527,13.2709924 C9.9351145,13.1259542 9.7175573,12.9083969 9.6450382,12.6908397 C9.5725191,12.4732824 9.4274809,12.2557252 9.4274809,11.9656489 C9.4274809,11.8206107 9.4274809,11.6755725 9.4274809,11.6030534 C9.4274809,11.6030534 9.4274809,11.5305344 9.4274809,11.5305344 L9.4274809,11.4580153 C9.4274809,11.4580153 9.4274809,11.4580153 9.4274809,11.3854962 C9.4274809,11.3129771 9.4274809,11.240458 9.4274809,11.1679389 C9.5,10.6603053 9.7900763,10.0801527 10.2251908,9.7175573 C10.2977099,9.6450382 10.4427481,9.5 10.5877863,9.4274809 C10.7328244,9.3549618 10.8053435,9.2824427 10.9503817,9.2099237 C11.0954198,9.1374046 11.240458,9.0648855 11.3854962,9.0648855 C11.5305344,8.9923664 11.6755725,8.9923664 11.8206107,8.9923664 C11.8931298,8.9923664 11.9656489,8.9923664 12.0381679,8.9923664 L12.1832061,8.9923664 L12.2557252,8.9923664 C12.4007634,8.9923664 12.5458015,8.9923664 12.7633588,9.0648855 C13.0534351,9.1374046 13.4160305,9.2824427 13.7061069,9.4274809 C14.2862595,9.7175573 14.7938931,10.2251908 15.0839695,10.8778626 C15.2290076,11.1679389 15.3740458,11.5305344 15.3740458,11.8206107 C15.3740458,11.8931298 15.3740458,11.9656489 15.3740458,12.110687 L15.3740458,12.1832061 L15.3740458,12.2557252 L15.3740458,12.4732824 C15.3740458,12.5458015 15.3740458,12.5458015 15.3740458,12.6183206 C15.3740458,12.6908397 15.3740458,12.8358779 15.3740458,12.9083969 C15.3740458,12.980916 15.3740458,13.0534351 15.3015267,13.1984733 C15.3015267,13.2709924 15.2290076,13.3435115 15.2290076,13.4885496 C15.1564885,13.6335878 15.1564885,13.851145 15.0839695,13.9961832 C14.9389313,14.3587786 14.7938931,14.648855 14.5763359,14.9389313 C14.1412214,15.519084 13.5610687,16.0267176 12.8358779,16.3167939 C12.4732824,16.4618321 12.110687,16.6068702 11.7480916,16.6068702 C11.6030534,16.6068702 11.3854962,16.6793893 11.1679389,16.6793893 L10.8778626,16.6793893 C10.8053435,16.6793893 10.6603053,16.6793893 10.5877863,16.6793893 C10.2251908,16.6793893 9.7900763,16.6068702 9.4274809,16.4618321 C9.0648855,16.389313 8.7022901,16.1717557 8.3396947,16.0267176 C7.6145038,15.6641221 7.0343511,15.1564885 6.5267176,14.5038168 C6.3091603,14.2137405 6.0916031,13.851145 5.8740458,13.4885496 C5.6564885,13.1259542 5.5839695,12.7633588 5.4389313,12.4007634 C5.3664122,12.0381679 5.2938931,11.6755725 5.221374,11.240458 L5.221374,11.1679389 L5.221374,10.8778626 L5.221374,10.8053435 L5.221374,10.6603053 C5.221374,10.4427481 5.221374,10.2977099 5.2938931,10.0801527 C5.3664122,9.8625954 5.3664122,9.7175573 5.3664122,9.5 C5.4389313,9.2824427 5.4389313,9.1374046 5.5114504,8.9198473 C5.5839695,8.5572519 5.7290076,8.1946565 5.9465649,7.8320611 C6.2366412,7.1793893 6.6717557,6.5267176 7.1793893,6.019084 C7.3244275,5.8740458 7.4694656,5.8015267 7.5419847,5.6564885 C7.6870229,5.5839695 7.8320611,5.4389313 7.9770992,5.3664122 C8.1221374,5.2938931 8.2671756,5.221374 8.4122137,5.0763359 C8.4847328,5.0038168 8.5572519,5.0038168 8.629771,4.9312977 L8.7748092,4.8587786 L8.9198473,4.7862595 C9.0648855,4.7137405 9.2099237,4.6412214 9.4274809,4.6412214 C9.5,4.6412214 9.5,4.6412214 9.5725191,4.5687023 C9.6450382,4.5687023 9.6450382,4.5687023 9.7175573,4.5687023 C9.7900763,4.5687023 9.8625954,4.4961832 10.0076336,4.4961832 C10.0801527,4.4961832 10.0801527,4.4961832 10.1526718,4.4961832 C10.2251908,4.4961832 10.2251908,4.4961832 10.2977099,4.4961832 C10.370229,4.4961832 10.370229,4.4961832 10.4427481,4.4961832 L10.5152672,4.4961832 L10.5877863,4.4961832 C10.6603053,4.4961832 10.6603053,4.4961832 10.7328244,4.4961832 C10.8053435,4.4961832 10.8053435,4.4961832 10.8778626,4.4961832 C10.9503817,4.4961832 10.9503817,4.4961832 11.0229008,4.4961832 C11.0229008,4.4961832 11.0954198,4.4961832 11.0954198,4.4961832 L11.1679389,4.4961832 C11.240458,4.4961832 11.240458,4.4961832 11.3129771,4.4961832 L11.3854962,4.4961832 L11.4580153,4.4961832 C11.5305344,4.4961832 11.5305344,4.4961832 11.6030534,4.4961832 C11.7480916,4.4961832 11.9656489,4.4961832 12.110687,4.4961832 C12.4732824,4.4961832 12.7633588,4.5687023 13.0534351,4.5687023 C13.7061069,4.7137405 14.2862595,4.8587786 14.7938931,5.148855 C15.3015267,5.4389313 15.8091603,5.7290076 16.2442748,6.0916031 C16.2442748,6.0916031 16.3167939,6.1641221 16.3167939,6.1641221 C16.3167939,6.1641221 16.389313,6.2366412 16.389313,6.2366412 C16.4618321,6.3091603 16.4618321,6.3091603 16.5343511,6.3816794 C16.6068702,6.4541985 16.6068702,6.4541985 16.6793893,6.5267176 C16.7519084,6.5992366 16.7519084,6.5992366 16.8244275,6.6717557 C16.9694656,6.889313 17.1870229,7.0343511 17.3320611,7.2519084 C17.6221374,7.6145038 17.8396947,8.0496183 18.0572519,8.3396947 L18.0572519,8.4122137 L18.0572519,8.4847328 C18.0572519,8.5572519 18.129771,8.5572519 18.129771,8.629771 C18.129771,8.7022901 18.2022901,8.7022901 18.2022901,8.7748092 C18.2022901,8.8473282 18.2748092,8.8473282 18.2748092,8.9198473 C18.3473282,9.0648855 18.4198473,9.2824427 18.4923664,9.4274809 C18.5648855,9.6450382 18.6374046,9.8625954 18.7099237,10.0801527 C18.7099237,10.1526718 18.7824427,10.2251908 18.8549618,10.2251908 C18.9274809,10.2251908 19,10.1526718 19,10.0801527 C18.8549618,9.5725191 18.8549618,9.2824427 18.7824427,9.0648855 C18.7824427,8.7022901 18.7099237,8.3396947 18.5648855,7.9045802 Z" id="path-1"></path>
                    </g>
                    <g id="path-1-link" fill="#EFF3F8">
                        <path d="M18.5648855,7.9045802 C18.4198473,7.4694656 18.2748092,6.9618321 18.0572519,6.5267176 C17.8396947,6.019084 17.4770992,5.5114504 17.0419847,5.0038168 C16.8969466,4.7862595 16.6793893,4.6412214 16.5343511,4.4236641 C16.8244275,3.2633588 16.1717557,2.2480916 16.1717557,2.2480916 C15.0839695,2.1755725 14.3587786,2.610687 14.1412214,2.7557252 C14.0687023,2.7557252 14.0687023,2.6832061 13.9961832,2.6832061 C13.778626,2.610687 13.6335878,2.5381679 13.4160305,2.4656489 C13.1984733,2.3931298 12.980916,2.3206107 12.8358779,2.3206107 C12.6183206,2.2480916 12.4007634,2.2480916 12.1832061,2.1755725 C12.110687,2.1755725 12.110687,2.1755725 12.0381679,2.1755725 C11.5305344,0.6526718 10.1526718,0 10.1526718,0 C8.629771,0.9427481 8.3396947,2.3206107 8.3396947,2.3206107 C8.3396947,2.3206107 8.3396947,2.3206107 8.3396947,2.3931298 C8.2671756,2.3931298 8.1946565,2.4656489 8.0496183,2.4656489 C7.9045802,2.4656489 7.8320611,2.5381679 7.6870229,2.610687 C7.5419847,2.6832061 7.4694656,2.6832061 7.3244275,2.7557252 C7.1068702,2.8282443 6.889313,2.9732824 6.6717557,3.1183206 C6.4541985,3.2633588 6.2366412,3.4083969 6.019084,3.5534351 L5.9465649,3.5534351 C3.8435115,2.7557252 1.9580153,3.6984733 1.9580153,3.6984733 C1.8129771,5.9465649 2.8282443,7.3969466 3.0458015,7.6870229 C2.9732824,7.8320611 2.9732824,7.9770992 2.9007634,8.1221374 C2.7557252,8.629771 2.610687,9.1374046 2.5381679,9.7175573 C2.5381679,9.7900763 2.5381679,9.8625954 2.5381679,9.9351145 C0.5801527,10.8778626 0,12.9083969 0,12.9083969 C1.6679389,14.7938931 3.5534351,14.9389313 3.5534351,14.9389313 C3.7709924,15.3740458 4.0610687,15.8091603 4.4236641,16.1717557 C4.5687023,16.3167939 4.7137405,16.4618321 4.8587786,16.6068702 C4.278626,18.3473282 4.9312977,19.7251908 4.9312977,19.7251908 C6.7442748,19.7977099 7.9770992,18.9274809 8.1946565,18.7099237 C8.3396947,18.7824427 8.5572519,18.8549618 8.7748092,18.8549618 C9.3549618,19 9.9351145,19.0725191 10.5152672,19.1450382 C10.6603053,19.1450382 10.8053435,19.1450382 10.9503817,19.1450382 L11.1679389,19.1450382 L11.240458,19.1450382 C12.110687,20.3778626 13.6335878,20.5229008 13.6335878,20.5229008 C14.721374,19.3625954 14.7938931,18.2748092 14.7938931,17.9847328 L14.7938931,17.9122137 C15.0114504,17.7671756 15.2290076,17.5496183 15.4465649,17.4045802 C15.8816794,17.0419847 16.2442748,16.5343511 16.5343511,16.0992366 L16.6068702,15.9541985 C17.8396947,16.0267176 18.7099237,15.2290076 18.7099237,15.2290076 C18.4923664,13.9236641 17.7671756,13.3435115 17.6221374,13.1984733 C17.6221374,13.1259542 17.6221374,13.0534351 17.6221374,12.980916 C17.6221374,12.8358779 17.6221374,12.6908397 17.6221374,12.5458015 L17.6221374,12.4007634 L17.6221374,12.3282443 L17.6221374,12.1832061 C17.6221374,12.110687 17.6221374,12.110687 17.6221374,12.110687 C17.6221374,12.110687 17.6221374,12.0381679 17.6221374,12.0381679 L17.6221374,11.9656489 L17.6221374,11.8931298 C17.6221374,11.7480916 17.5496183,11.6030534 17.5496183,11.4580153 C17.4045802,10.8778626 17.1870229,10.370229 16.8969466,9.9351145 C16.6068702,9.5 16.2442748,9.0648855 15.8816794,8.7022901 C15.519084,8.3396947 15.0114504,8.0496183 14.5763359,7.8320611 C14.1412214,7.6145038 13.6335878,7.4694656 13.1259542,7.3969466 C12.9083969,7.3969466 12.6183206,7.3244275 12.4007634,7.3244275 L12.2557252,7.3244275 L12.1832061,7.3244275 C12.1832061,7.3244275 12.110687,7.3244275 12.110687,7.3244275 C11.9656489,7.3244275 11.8931298,7.3244275 11.7480916,7.3969466 C11.240458,7.4694656 10.8053435,7.6870229 10.370229,7.9045802 C9.9351145,8.1221374 9.6450382,8.4122137 9.3549618,8.7748092 C9.0648855,9.1374046 8.8473282,9.5 8.7022901,9.8625954 C8.5572519,10.2251908 8.4847328,10.6603053 8.4122137,11.0229008 C8.4122137,11.0954198 8.4122137,11.240458 8.4122137,11.3129771 L8.4122137,11.3854962 L8.4122137,11.4580153 C8.4122137,11.5305344 8.4122137,11.5305344 8.4122137,11.6030534 C8.4122137,11.8206107 8.4847328,11.9656489 8.4847328,12.1832061 C8.5572519,12.5458015 8.7748092,12.9083969 8.9923664,13.1984733 C9.2099237,13.4885496 9.4274809,13.7061069 9.7175573,13.9236641 C10.0076336,14.0687023 10.2977099,14.2137405 10.5877863,14.2862595 C10.8778626,14.3587786 11.1679389,14.4312977 11.3854962,14.4312977 L11.5305344,14.4312977 C11.5305344,14.4312977 11.5305344,14.4312977 11.6030534,14.4312977 C11.6030534,14.4312977 11.6755725,14.4312977 11.6755725,14.4312977 C11.6755725,14.4312977 11.6755725,14.4312977 11.7480916,14.4312977 C11.7480916,14.4312977 11.8206107,14.4312977 11.8206107,14.4312977 C11.8206107,14.4312977 11.8931298,14.4312977 11.8931298,14.4312977 C11.9656489,14.4312977 12.0381679,14.4312977 12.0381679,14.3587786 C12.1832061,14.2862595 12.2557252,14.2862595 12.3282443,14.2137405 C12.4007634,14.1412214 12.5458015,14.0687023 12.6183206,14.0687023 C12.6183206,14.0687023 12.6908397,14.0687023 12.6908397,13.9961832 C12.7633588,13.9236641 12.7633588,13.778626 12.6908397,13.7061069 C12.6183206,13.6335878 12.5458015,13.6335878 12.4007634,13.6335878 L12.3282443,13.6335878 C12.2557252,13.7061069 12.1832061,13.7061069 12.110687,13.7061069 C12.0381679,13.7061069 11.9656489,13.778626 11.8206107,13.778626 C11.7480916,13.778626 11.7480916,13.778626 11.6755725,13.778626 C11.6755725,13.778626 11.6030534,13.778626 11.6030534,13.778626 L11.4580153,13.778626 C11.4580153,13.778626 11.3854962,13.778626 11.3854962,13.778626 C11.3854962,13.778626 11.3854962,13.778626 11.3129771,13.778626 C11.3129771,13.778626 11.240458,13.778626 11.240458,13.778626 C11.0229008,13.778626 10.8053435,13.7061069 10.6603053,13.6335878 C10.4427481,13.5610687 10.2977099,13.4160305 10.0801527,13.2709924 C9.9351145,13.1259542 9.7175573,12.9083969 9.6450382,12.6908397 C9.5725191,12.4732824 9.4274809,12.2557252 9.4274809,11.9656489 C9.4274809,11.8206107 9.4274809,11.6755725 9.4274809,11.6030534 C9.4274809,11.6030534 9.4274809,11.5305344 9.4274809,11.5305344 L9.4274809,11.4580153 C9.4274809,11.4580153 9.4274809,11.4580153 9.4274809,11.3854962 C9.4274809,11.3129771 9.4274809,11.240458 9.4274809,11.1679389 C9.5,10.6603053 9.7900763,10.0801527 10.2251908,9.7175573 C10.2977099,9.6450382 10.4427481,9.5 10.5877863,9.4274809 C10.7328244,9.3549618 10.8053435,9.2824427 10.9503817,9.2099237 C11.0954198,9.1374046 11.240458,9.0648855 11.3854962,9.0648855 C11.5305344,8.9923664 11.6755725,8.9923664 11.8206107,8.9923664 C11.8931298,8.9923664 11.9656489,8.9923664 12.0381679,8.9923664 L12.1832061,8.9923664 L12.2557252,8.9923664 C12.4007634,8.9923664 12.5458015,8.9923664 12.7633588,9.0648855 C13.0534351,9.1374046 13.4160305,9.2824427 13.7061069,9.4274809 C14.2862595,9.7175573 14.7938931,10.2251908 15.0839695,10.8778626 C15.2290076,11.1679389 15.3740458,11.5305344 15.3740458,11.8206107 C15.3740458,11.8931298 15.3740458,11.9656489 15.3740458,12.110687 L15.3740458,12.1832061 L15.3740458,12.2557252 L15.3740458,12.4732824 C15.3740458,12.5458015 15.3740458,12.5458015 15.3740458,12.6183206 C15.3740458,12.6908397 15.3740458,12.8358779 15.3740458,12.9083969 C15.3740458,12.980916 15.3740458,13.0534351 15.3015267,13.1984733 C15.3015267,13.2709924 15.2290076,13.3435115 15.2290076,13.4885496 C15.1564885,13.6335878 15.1564885,13.851145 15.0839695,13.9961832 C14.9389313,14.3587786 14.7938931,14.648855 14.5763359,14.9389313 C14.1412214,15.519084 13.5610687,16.0267176 12.8358779,16.3167939 C12.4732824,16.4618321 12.110687,16.6068702 11.7480916,16.6068702 C11.6030534,16.6068702 11.3854962,16.6793893 11.1679389,16.6793893 L10.8778626,16.6793893 C10.8053435,16.6793893 10.6603053,16.6793893 10.5877863,16.6793893 C10.2251908,16.6793893 9.7900763,16.6068702 9.4274809,16.4618321 C9.0648855,16.389313 8.7022901,16.1717557 8.3396947,16.0267176 C7.6145038,15.6641221 7.0343511,15.1564885 6.5267176,14.5038168 C6.3091603,14.2137405 6.0916031,13.851145 5.8740458,13.4885496 C5.6564885,13.1259542 5.5839695,12.7633588 5.4389313,12.4007634 C5.3664122,12.0381679 5.2938931,11.6755725 5.221374,11.240458 L5.221374,11.1679389 L5.221374,10.8778626 L5.221374,10.8053435 L5.221374,10.6603053 C5.221374,10.4427481 5.221374,10.2977099 5.2938931,10.0801527 C5.3664122,9.8625954 5.3664122,9.7175573 5.3664122,9.5 C5.4389313,9.2824427 5.4389313,9.1374046 5.5114504,8.9198473 C5.5839695,8.5572519 5.7290076,8.1946565 5.9465649,7.8320611 C6.2366412,7.1793893 6.6717557,6.5267176 7.1793893,6.019084 C7.3244275,5.8740458 7.4694656,5.8015267 7.5419847,5.6564885 C7.6870229,5.5839695 7.8320611,5.4389313 7.9770992,5.3664122 C8.1221374,5.2938931 8.2671756,5.221374 8.4122137,5.0763359 C8.4847328,5.0038168 8.5572519,5.0038168 8.629771,4.9312977 L8.7748092,4.8587786 L8.9198473,4.7862595 C9.0648855,4.7137405 9.2099237,4.6412214 9.4274809,4.6412214 C9.5,4.6412214 9.5,4.6412214 9.5725191,4.5687023 C9.6450382,4.5687023 9.6450382,4.5687023 9.7175573,4.5687023 C9.7900763,4.5687023 9.8625954,4.4961832 10.0076336,4.4961832 C10.0801527,4.4961832 10.0801527,4.4961832 10.1526718,4.4961832 C10.2251908,4.4961832 10.2251908,4.4961832 10.2977099,4.4961832 C10.370229,4.4961832 10.370229,4.4961832 10.4427481,4.4961832 L10.5152672,4.4961832 L10.5877863,4.4961832 C10.6603053,4.4961832 10.6603053,4.4961832 10.7328244,4.4961832 C10.8053435,4.4961832 10.8053435,4.4961832 10.8778626,4.4961832 C10.9503817,4.4961832 10.9503817,4.4961832 11.0229008,4.4961832 C11.0229008,4.4961832 11.0954198,4.4961832 11.0954198,4.4961832 L11.1679389,4.4961832 C11.240458,4.4961832 11.240458,4.4961832 11.3129771,4.4961832 L11.3854962,4.4961832 L11.4580153,4.4961832 C11.5305344,4.4961832 11.5305344,4.4961832 11.6030534,4.4961832 C11.7480916,4.4961832 11.9656489,4.4961832 12.110687,4.4961832 C12.4732824,4.4961832 12.7633588,4.5687023 13.0534351,4.5687023 C13.7061069,4.7137405 14.2862595,4.8587786 14.7938931,5.148855 C15.3015267,5.4389313 15.8091603,5.7290076 16.2442748,6.0916031 C16.2442748,6.0916031 16.3167939,6.1641221 16.3167939,6.1641221 C16.3167939,6.1641221 16.389313,6.2366412 16.389313,6.2366412 C16.4618321,6.3091603 16.4618321,6.3091603 16.5343511,6.3816794 C16.6068702,6.4541985 16.6068702,6.4541985 16.6793893,6.5267176 C16.7519084,6.5992366 16.7519084,6.5992366 16.8244275,6.6717557 C16.9694656,6.889313 17.1870229,7.0343511 17.3320611,7.2519084 C17.6221374,7.6145038 17.8396947,8.0496183 18.0572519,8.3396947 L18.0572519,8.4122137 L18.0572519,8.4847328 C18.0572519,8.5572519 18.129771,8.5572519 18.129771,8.629771 C18.129771,8.7022901 18.2022901,8.7022901 18.2022901,8.7748092 C18.2022901,8.8473282 18.2748092,8.8473282 18.2748092,8.9198473 C18.3473282,9.0648855 18.4198473,9.2824427 18.4923664,9.4274809 C18.5648855,9.6450382 18.6374046,9.8625954 18.7099237,10.0801527 C18.7099237,10.1526718 18.7824427,10.2251908 18.8549618,10.2251908 C18.9274809,10.2251908 19,10.1526718 19,10.0801527 C18.8549618,9.5725191 18.8549618,9.2824427 18.7824427,9.0648855 C18.7824427,8.7022901 18.7099237,8.3396947 18.5648855,7.9045802 Z" id="path-1"></path>
                    </g>
                </g>
                <polygon id="路径-7备份-6" fill="#EEF3F7" fill-rule="nonzero" transform="translate(20.000000, 2.500000) rotate(180.000000) translate(-20.000000, -2.500000) " points="0 5 6 0 40 0 32.2 5"></polygon>
                <polygon id="路径-7备份-5" fill="#AFC0C8" fill-rule="nonzero" transform="translate(37.000000, 19.500000) scale(-1, 1) translate(-37.000000, -19.500000) " points="34 33 34 -1.69135539e-17 40 5 40 39"></polygon>
                <polygon id="路径-7备份-4" stroke="#FFFFFF" opacity="0.25" transform="translate(17.000000, 22.000000) scale(-1, 1) translate(-17.000000, -22.000000) " points="31.5 7.5 31.5 36.5 2.5 36.5 2.5 7.5"></polygon>
                <polygon id="路径-7备份-4" stroke="#32526B" transform="translate(17.000000, 22.000000) scale(-1, 1) translate(-17.000000, -22.000000) " points="30.5 8.5 30.5 35.5 3.5 35.5 3.5 8.5"></polygon>
            </g>
        </g>
    </g>
</svg>