<?xml version="1.0" encoding="UTF-8"?>
<svg width="42px" height="42px" viewBox="0 0 42 42" version="1.1" xmlns="http://www.w3.org/2000/svg" xmlns:xlink="http://www.w3.org/1999/xlink">
    <title>influx-db</title>
    <g id="页面-1" stroke="none" stroke-width="1" fill="none" fill-rule="evenodd">
        <g id="influx-db">
            <g id="背景区域" opacity="0" fill="#D8D8D8" fill-rule="nonzero">
                <rect id="矩形" x="0" y="0" width="42" height="42"></rect>
            </g>
            <g id="底块" transform="translate(1.000000, 1.000000)">
                <polygon id="路径-7备份-2" fill="#416480" fill-rule="nonzero" transform="translate(17.000000, 22.000000) scale(-1, 1) translate(-17.000000, -22.000000) " points="0 39 0 5 34 5 34 39"></polygon>
                <polygon id="路径-7备份-6" fill="#EEF3F7" fill-rule="nonzero" transform="translate(20.000000, 2.500000) rotate(180.000000) translate(-20.000000, -2.500000) " points="0 5 6 0 40 0 32.2 5"></polygon>
                <polygon id="路径-7备份-5" fill="#AFC0C8" fill-rule="nonzero" transform="translate(37.000000, 19.500000) scale(-1, 1) translate(-37.000000, -19.500000) " points="34 33 34 -1.69135539e-17 40 5 40 39"></polygon>
                <polygon id="路径-7备份-4" stroke="#FFFFFF" opacity="0.25" transform="translate(17.000000, 22.000000) scale(-1, 1) translate(-17.000000, -22.000000) " points="31.5 7.5 31.5 36.5 2.5 36.5 2.5 7.5"></polygon>
                <polygon id="路径-7备份-4" stroke="#32526B" transform="translate(17.000000, 22.000000) scale(-1, 1) translate(-17.000000, -22.000000) " points="30.5 8.5 30.5 35.5 3.5 35.5 3.5 8.5"></polygon>
            </g>
            <polygon id="矩形备份-22" points="8 13 28 13 28 33 21.6025995 33 8 33"></polygon>
            <g id="Influx-db" transform="translate(9.000000, 14.000000)" fill-rule="nonzero">
                <g id="图形">
                    <path d="M5.55236143,10.5849149 L12.1763614,12.5939149 L10.6373614,17.6899149 L2.79836143,15.1999149 L5.55236143,10.5849149 Z M17.1383614,12.1799149 L11.5103614,17.3189149 L12.9033614,12.7129149 L17.1383614,12.1799149 Z M0.640361435,6.8919149 L4.89636143,10.2589149 L2.32736143,14.5659149 L0.640361435,6.8919149 Z M15.7633614,3.3589149 L17.5263614,11.3949149 L12.9863614,11.9669149 L11.5683614,5.1089149 L15.7633614,3.3589149 Z M10.9223614,5.5899149 L12.2153614,11.8439149 L6.10536143,9.9899149 L10.9223614,5.5899149 Z M6.86736143,0.532914902 L10.6403614,4.8589149 L5.35236143,9.6889149 L0.788361435,6.0799149 L6.86736143,0.532914902 Z M7.80536143,0.499914902 L15.1463614,2.8259149 L11.2513614,4.4509149 L7.80536143,0.499914902 Z" id="形状结合" fill="#FFFFFF"></path>
                    <polygon id="形状结合" fill="#23CCD1" points="6.86736143 0.532914902 10.6403614 4.8589149 5.35236143 9.6889149 0.788361435 6.0799149"></polygon>
                </g>
            </g>
        </g>
    </g>
</svg>