<?xml version="1.0" encoding="UTF-8"?>
<svg width="42px" height="42px" viewBox="0 0 42 42" version="1.1" xmlns="http://www.w3.org/2000/svg" xmlns:xlink="http://www.w3.org/1999/xlink">
    <title>information-notification-service</title>
    <g id="页面-1" stroke="none" stroke-width="1" fill="none" fill-rule="evenodd">
        <g id="information-notification-service">
            <rect id="矩形" fill="#D8D8D8" fill-rule="nonzero" opacity="0" x="0" y="0" width="42" height="42"></rect>
            <polygon id="路径-7备份-2" fill="#416480" fill-rule="nonzero" transform="translate(18.000000, 23.000000) scale(-1, 1) translate(-18.000000, -23.000000) " points="1 40 1 6 35 6 35 40"></polygon>
            <polygon id="路径-7备份-6" fill="#EEF3F7" fill-rule="nonzero" transform="translate(21.000000, 3.500000) rotate(180.000000) translate(-21.000000, -3.500000) " points="1 6 7 1 41 1 33.2 6"></polygon>
            <polygon id="路径-7备份-5" fill="#AFC0C8" fill-rule="nonzero" transform="translate(38.000000, 20.500000) scale(-1, 1) translate(-38.000000, -20.500000) " points="35 34 35 1 41 6 41 40"></polygon>
            <polygon id="路径-7备份-4" stroke="#FFFFFF" opacity="0.25" transform="translate(18.000000, 23.000000) scale(-1, 1) translate(-18.000000, -23.000000) " points="32.5 8.5 32.5 37.5 3.5 37.5 3.5 8.5"></polygon>
            <polygon id="路径-7备份-4" stroke="#32526B" transform="translate(18.000000, 23.000000) scale(-1, 1) translate(-18.000000, -23.000000) " points="4.5 9.5 31.5 9.5 31.5 36.5 4.5 36.5"></polygon>
            <rect id="矩形备份-22" opacity="0.446149554" x="8" y="13" width="20" height="20"></rect>
            <path d="M16.9444444,13.5 C12.1666667,13.5 8.3333333,16.8888889 8.3333333,21.0555556 C8.3333333,23.4444444 9.6111111,25.3888889 11.5555556,26.7777778 L11.5555556,30.7222222 L15.5,28.5555556 L16.9444444,28.5555556 C21.7222222,28.5555556 25.5555556,25.1666667 25.5555556,21 C25.5555556,16.8333333 21.6666667,13.5 16.9444444,13.5 Z M12.6111111,22.1111111 C12,22.1111111 11.5,21.6111111 11.5,21 C11.5,20.3888889 12,19.8888889 12.6111111,19.8888889 C13.2222222,19.8888889 13.7222222,20.3888889 13.7222222,21 C13.7222222,21.6666667 13.2222222,22.1111111 12.6111111,22.1111111 L12.6111111,22.1111111 L12.6111111,22.1111111 Z M16.9444444,22.1111111 C16.3333333,22.1111111 15.8333333,21.6111111 15.8333333,21 C15.8333333,20.3888889 16.3333333,19.8888889 16.9444444,19.8888889 C17.5555556,19.8888889 18.0555556,20.3888889 18.0555556,21 C18,21.6666667 17.5,22.1111111 16.9444444,22.1111111 Z M21.2222222,22.1111111 C20.6111111,22.1111111 20.1111111,21.6111111 20.1111111,21 C20.1111111,20.3888889 20.6111111,19.8888889 21.2222222,19.8888889 C21.8333333,19.8888889 22.3333333,20.3888889 22.3333333,21 C22.3333333,21.6666667 21.8333333,22.1111111 21.2222222,22.1111111 Z" id="形状" fill="#23CCD1" fill-rule="nonzero"></path>
            <path d="M24.9444444,17.3888889 C25.8333333,18.5555556 26.3333333,20 26.3333333,21.5 C26.3333333,25.6666667 22.5,29.0555556 17.7222222,29.0555556 L16.2777778,29.0555556 L15.1111111,29.6666667 C16.3888889,30.2777778 17.8333333,30.6111111 19.2777778,30.6111111 L20.7222222,30.6111111 L24.6666667,32.7777778 L24.6666667,28.8333333 C26.6111111,27.4444444 27.8888889,25.4444444 27.8888889,23.1111111 C27.8888889,20.8333333 26.7777778,18.7222222 24.9444444,17.3888889 Z" id="路径" fill="#EFF3F8" fill-rule="nonzero"></path>
        </g>
    </g>
</svg>