<?xml version="1.0" encoding="UTF-8"?>
<svg width="42px" height="42px" viewBox="0 0 42 42" version="1.1" xmlns="http://www.w3.org/2000/svg" xmlns:xlink="http://www.w3.org/1999/xlink">
    <title>internet-service</title>
    <g id="页面-1" stroke="none" stroke-width="1" fill="none" fill-rule="evenodd">
        <g id="internet-service">
            <g id="背景区域" opacity="0" fill="#D8D8D8" fill-rule="nonzero">
                <rect id="矩形" x="5.68434189e-14" y="0" width="42" height="42"></rect>
            </g>
            <g id="底块" transform="translate(1.000000, 1.000000)">
                <polygon id="路径-7备份-2" fill="#416480" fill-rule="nonzero" transform="translate(17.000000, 22.000000) scale(-1, 1) translate(-17.000000, -22.000000) " points="0 39 0 5 34 5 34 39"></polygon>
                <g id="编组" transform="translate(7.000000, 12.000000)">
                    <polygon id="矩形备份-18" points="0 0 20 0 20 20 13.6025995 20 0 20"></polygon>
                    <g id="编组-6" transform="translate(1.111111, 0.000000)" fill-rule="nonzero">
                        <path d="M8.66666667,0.142857143 C13.3742367,0.142857143 17.1904762,3.95909666 17.1904762,8.66666667 C17.1904762,12.125758 15.1300071,15.103601 12.1694699,16.4397946 L11.9013069,15.6195784 C14.518991,14.3997038 16.3333333,11.7450664 16.3333333,8.66666667 C16.3333333,4.43248358 12.9008497,1 8.66666667,1 C4.43248358,1 1,4.43248358 1,8.66666667 C1,11.7073797 2.7701908,14.3346425 5.33625014,15.5741329 L5.06720647,16.3954383 C2.1585744,15.038512 0.142857143,12.0879873 0.142857143,8.66666667 C0.142857143,3.95909666 3.95909666,0.142857143 8.66666667,0.142857143 Z" id="形状结合" fill="#FFFFFF"></path>
                        <path d="M8.66666667,2.3015873 C12.1820029,2.3015873 15.031746,5.1513304 15.031746,8.66666667 C15.031746,11.1666471 13.5904766,13.330001 11.4935199,14.3711462 L11.2231648,13.5466279 C12.9777771,12.6255344 14.1746032,10.7858674 14.1746032,8.66666667 C14.1746032,5.62471733 11.708616,3.15873016 8.66666667,3.15873016 C5.62471733,3.15873016 3.15873016,5.62471733 3.15873016,8.66666667 C3.15873016,10.7473073 4.31239864,12.5584943 6.01494801,13.49544 L5.74511682,14.3231368 C3.69958811,13.2644826 2.3015873,11.1288349 2.3015873,8.66666667 C2.3015873,5.1513304 5.1513304,2.3015873 8.66666667,2.3015873 Z" id="形状结合" fill="#FFFFFF"></path>
                        <polygon id="三角形" fill="#23CCD1" points="8.66666667 9.74603175 11.9047619 20 5.42857143 20"></polygon>
                        <circle id="椭圆形" fill="#23CCD1" cx="8.66666667" cy="9.20634921" r="1.07936508"></circle>
                    </g>
                </g>
                <polygon id="路径-7备份-6" fill="#EEF3F7" fill-rule="nonzero" transform="translate(20.000000, 2.500000) rotate(180.000000) translate(-20.000000, -2.500000) " points="0 5 6 0 40 0 32.2 5"></polygon>
                <polygon id="路径-7备份-5" fill="#AFC0C8" fill-rule="nonzero" transform="translate(37.000000, 19.500000) scale(-1, 1) translate(-37.000000, -19.500000) " points="34 33 34 -1.69135539e-17 40 5 40 39"></polygon>
                <polygon id="路径-7备份-4" stroke="#FFFFFF" opacity="0.25" transform="translate(17.000000, 22.000000) scale(-1, 1) translate(-17.000000, -22.000000) " points="31.5 7.5 31.5 36.5 2.5 36.5 2.5 7.5"></polygon>
                <polygon id="路径-7备份-4" stroke="#32526B" transform="translate(17.000000, 22.000000) scale(-1, 1) translate(-17.000000, -22.000000) " points="30.5 8.5 30.5 35.5 3.5 35.5 3.5 8.5"></polygon>
            </g>
        </g>
    </g>
</svg>