<?xml version="1.0" encoding="UTF-8"?>
<svg width="42px" height="42px" viewBox="0 0 42 42" version="1.1" xmlns="http://www.w3.org/2000/svg" xmlns:xlink="http://www.w3.org/1999/xlink">
    <title>ip-address</title>
    <g id="页面-1" stroke="none" stroke-width="1" fill="none" fill-rule="evenodd">
        <g id="ip-address">
            <g id="背景区域" opacity="0" fill="#D8D8D8" fill-rule="nonzero">
                <rect id="矩形" x="4.26325641e-14" y="0" width="42" height="42"></rect>
            </g>
            <g id="底块" transform="translate(1.000000, 1.000000)">
                <polygon id="路径-7备份-2" fill="#416480" fill-rule="nonzero" transform="translate(17.000000, 22.000000) scale(-1, 1) translate(-17.000000, -22.000000) " points="0 39 0 5 34 5 34 39"></polygon>
                <g id="编组" transform="translate(8.000000, 12.000000)">
                    <rect id="矩形备份-8" x="0" y="0" width="19" height="20"></rect>
                    <g transform="translate(3.694445, 0.555556)" fill-rule="nonzero">
                        <ellipse id="椭圆形" fill="#40D2D6" cx="5.33055545" cy="16.3018022" rx="2.18068178" ry="1.25375378"></ellipse>
                        <path d="M10.6611109,5.4864714 C10.6611109,10.3128442 5.33055545,16.0480484 5.33055545,16.0480484 C5.33055545,16.0480484 0,10.2745777 0,5.4864714 C0,2.45862799 2.38894458,0 5.33055545,0 C8.27216632,0 10.6611109,2.45862799 10.6611109,5.4864714 Z" id="路径" fill="#EFF3F8"></path>
                        <path d="M4.99628149,3.21439301 L4.99628149,9.69101226 C4.99628149,9.88914398 5.20894624,10.0497615 5.47128149,10.0497615 C5.73361675,10.0497615 5.94628149,9.88914398 5.94628149,9.69101226 L5.94628149,3.21439301 C5.94628149,3.01626129 5.73361675,2.85564379 5.47128149,2.85564379 C5.20894624,2.85564379 4.99628149,3.01626129 4.99628149,3.21439301 Z" id="路径" fill="#23CCD1"></path>
                        <path d="M3.02183662,3.21439301 L3.02183662,9.69101226 C3.02183662,9.88914398 3.23450137,10.0497615 3.49683662,10.0497615 C3.75917188,10.0497615 3.97183662,9.88914398 3.97183662,9.69101226 L3.97183662,3.21439301 C3.97183662,3.01626129 3.75917188,2.85564379 3.49683662,2.85564379 C3.23450137,2.85564379 3.02183662,3.01626129 3.02183662,3.21439301 Z" id="路径" fill="#23CCD1"></path>
                        <path d="M5.33055545,7.53851694 C7.65770633,7.53851694 8.9540852,6.89367347 8.9540852,5.19947203 C8.9540852,3.50594156 7.65514231,2.86042711 5.33055545,2.86042711 C5.14594104,2.86042711 4.99628149,3.02104461 4.99628149,3.21917633 C4.99628149,3.41730806 5.14594104,3.57792555 5.33055545,3.57792555 C7.3295693,3.57792555 8.28553727,4.05299735 8.28553727,5.19947203 C8.28553727,6.34680625 7.3321916,6.8210185 5.33055545,6.8210185 C5.14594104,6.8210185 4.99628149,6.981636 4.99628149,7.17976772 C4.99628149,7.37789944 5.14594104,7.53851694 5.33055545,7.53851694 Z" id="路径" fill="#23CCD1"></path>
                    </g>
                </g>
                <polygon id="路径-7备份-6" fill="#EEF3F7" fill-rule="nonzero" transform="translate(20.000000, 2.500000) rotate(180.000000) translate(-20.000000, -2.500000) " points="0 5 6 0 40 0 32.2 5"></polygon>
                <polygon id="路径-7备份-5" fill="#AFC0C8" fill-rule="nonzero" transform="translate(37.000000, 19.500000) scale(-1, 1) translate(-37.000000, -19.500000) " points="34 33 34 -1.69135539e-17 40 5 40 39"></polygon>
                <polygon id="路径-7备份-4" stroke="#FFFFFF" opacity="0.25" transform="translate(17.000000, 22.000000) scale(-1, 1) translate(-17.000000, -22.000000) " points="31.5 7.5 31.5 36.5 2.5 36.5 2.5 7.5"></polygon>
                <polygon id="路径-7备份-4" stroke="#32526B" transform="translate(17.000000, 22.000000) scale(-1, 1) translate(-17.000000, -22.000000) " points="30.5 8.5 30.5 35.5 3.5 35.5 3.5 8.5"></polygon>
            </g>
        </g>
    </g>
</svg>