<?xml version="1.0" encoding="UTF-8"?>
<svg width="42px" height="42px" viewBox="0 0 42 42" version="1.1" xmlns="http://www.w3.org/2000/svg" xmlns:xlink="http://www.w3.org/1999/xlink">
    <title>ip-range</title>
    <g id="页面-1" stroke="none" stroke-width="1" fill="none" fill-rule="evenodd">
        <g id="ip-range">
            <g id="背景区域" opacity="0" fill="#D8D8D8" fill-rule="nonzero">
                <rect id="矩形" x="0" y="0" width="42" height="42"></rect>
            </g>
            <g id="底块" transform="translate(0.909091, 0.424242)">
                <polygon id="路径-7备份-2" fill="#416480" fill-rule="nonzero" transform="translate(17.090909, 22.575758) scale(-1, 1) translate(-17.090909, -22.575758) " points="0.0909089 39.5757576 0.0909089 5.57575758 34.0909089 5.57575758 34.0909089 39.5757576"></polygon>
                <g id="编组" transform="translate(8.090909, 13.575758)">
                    <rect id="矩形备份-7" x="0" y="0" width="18" height="18"></rect>
                    <g transform="translate(0.500000, 0.500000)" fill-rule="nonzero">
                        <polygon id="路径" fill="#EFF3F8" points="7.31733247 9.5 9.18266753 9.5 12 17 4.5 17"></polygon>
                        <path d="M15.5357044,13 L1.46429564,13 C0.65657127,13 0,12.5456862 0,11.9872588 L0,1.01274117 C0,0.449581361 0.661294804,0 1.46429564,0 L15.5357044,0 C16.3434287,0 17,0.454313797 17,1.01274117 L17,11.9872588 C17,12.5409538 16.3481523,13 15.5357044,13 Z" id="路径" fill="#EFF3F8"></path>
                        <path d="M4.19449847,3.19912632 L4.19449847,9.35129232 C4.19449847,9.54731621 4.4183561,9.70622497 4.69449847,9.70622497 C4.97064085,9.70622497 5.19449847,9.54731621 5.19449847,9.35129232 L5.19449847,3.19912632 C5.19449847,3.00310243 4.97064085,2.84419367 4.69449847,2.84419367 C4.4183561,2.84419367 4.19449847,3.00310243 4.19449847,3.19912632 Z" id="路径" fill="#23CCD1"></path>
                        <path d="M2.17282578,3.19912632 L2.17282578,9.35129232 C2.17282578,9.54731621 2.39668341,9.70622497 2.67282578,9.70622497 C2.94896816,9.70622497 3.17282578,9.54731621 3.17282578,9.35129232 L3.17282578,3.19912632 C3.17282578,3.00310243 2.94896816,2.84419367 2.67282578,2.84419367 C2.39668341,2.84419367 2.17282578,3.00310243 2.17282578,3.19912632 Z" id="路径" fill="#23CCD1"></path>
                        <path d="M4.54876355,7.32107754 C6.94086547,7.32107754 8.27563212,6.70486633 8.27563212,5.0826356 C8.27563212,3.46106147 6.93814973,2.84419367 4.54876355,2.84419367 C4.35310835,2.84419367 4.19449847,3.00310243 4.19449847,3.19912632 C4.19449847,3.39515021 4.35310835,3.55405897 4.54876355,3.55405897 C6.59271202,3.55405897 7.56710197,4.00346287 7.56710197,5.0826356 C7.56710197,6.16265755 6.59549384,6.61121223 4.54876355,6.61121223 C4.35310835,6.61121223 4.19449847,6.77012099 4.19449847,6.96614489 C4.19449847,7.16216878 4.35310835,7.32107754 4.54876355,7.32107754 Z" id="路径" fill="#23CCD1"></path>
                        <path d="M7.80905402,9.47024514 L11.380046,3.31807914 C11.4456182,3.20511012 11.4073678,3.06027365 11.2946113,2.99457782 C11.1818547,2.92888199 11.0372907,2.96720448 10.9717184,3.0801735 L7.40072648,9.2323395 C7.33515421,9.34530852 7.37340462,9.49014499 7.48616116,9.55584082 C7.5989177,9.62153665 7.74348176,9.58321415 7.80905402,9.47024514 Z" id="路径" fill="#23CCD1"></path>
                        <path d="M12.2859128,7.80378595 C13.0937098,7.80378595 13.7691025,7.22621378 13.7691025,6.48343648 C13.7691025,5.74065917 13.0937098,5.163087 12.2859128,5.163087 C11.4781157,5.163087 10.802723,5.74065917 10.802723,6.48343648 C10.802723,7.22621378 11.4781157,7.80378595 12.2859128,7.80378595 Z M12.2859128,7.09392064 C11.846734,7.09392064 11.5112531,6.80702914 11.5112531,6.48343648 C11.5112531,6.15984381 11.846734,5.87295231 12.2859128,5.87295231 C12.7250915,5.87295231 13.0605724,6.15984381 13.0605724,6.48343648 C13.0605724,6.80702914 12.7250915,7.09392064 12.2859128,7.09392064 Z" id="椭圆形" fill="#23CCD1"></path>
                        <path d="M12.2859128,9.89552239 C13.169638,9.89552239 13.9108086,9.28545787 13.9108086,8.49472151 C13.9108086,7.70398515 13.169638,7.09392064 12.2859128,7.09392064 C11.4021875,7.09392064 10.6610169,7.70398515 10.6610169,8.49472151 C10.6610169,9.28545787 11.4021875,9.89552239 12.2859128,9.89552239 Z M12.2859128,9.18565708 C11.7661381,9.18565708 11.3695471,8.85921929 11.3695471,8.49472151 C11.3695471,8.13022374 11.7661381,7.80378595 12.2859128,7.80378595 C12.8056874,7.80378595 13.2022784,8.13022374 13.2022784,8.49472151 C13.2022784,8.85921929 12.8056874,9.18565708 12.2859128,9.18565708 Z" id="椭圆形" fill="#23CCD1"></path>
                        <path d="M3.39717391,16 L13.1028261,16 C13.3219565,16 13.5,16.2222222 13.5,16.5 L13.5,16.5 C13.5,16.7777778 13.3219565,17 13.1028261,17 L3.39717391,17 C3.17804348,17 3,16.7777778 3,16.5 L3,16.5 C3,16.2222222 3.17804348,16 3.39717391,16 Z" id="路径" fill="#EFF3F8"></path>
                    </g>
                </g>
                <polygon id="路径-7备份-6" fill="#EEF3F7" fill-rule="nonzero" transform="translate(20.090909, 3.075758) rotate(180.000000) translate(-20.090909, -3.075758) " points="0.0909089 5.57575842 6.0909089 0.57575842 40.0909089 0.57575842 32.2909089 5.57575842"></polygon>
                <polygon id="路径-7备份-5" fill="#AFC0C8" fill-rule="nonzero" transform="translate(37.090909, 20.075758) scale(-1, 1) translate(-37.090909, -20.075758) " points="34.0909089 33.5757576 34.0909089 0.575757576 40.0909089 5.57575758 40.0909089 39.5757576"></polygon>
                <polygon id="路径-7备份-4" stroke="#FFFFFF" opacity="0.25" transform="translate(17.090909, 22.575758) scale(-1, 1) translate(-17.090909, -22.575758) " points="31.5909089 8.07575758 31.5909089 37.0757576 2.5909089 37.0757576 2.5909089 8.07575758"></polygon>
                <polygon id="路径-7备份-4" stroke="#32526B" transform="translate(17.090909, 22.575758) scale(-1, 1) translate(-17.090909, -22.575758) " points="30.5909089 9.07575758 30.5909089 36.0757576 3.5909089 36.0757576 3.5909089 9.07575758"></polygon>
            </g>
        </g>
    </g>
</svg>