<?xml version="1.0" encoding="UTF-8"?>
<svg width="42px" height="42px" viewBox="0 0 42 42" version="1.1" xmlns="http://www.w3.org/2000/svg" xmlns:xlink="http://www.w3.org/1999/xlink">
    <title>jboss</title>
    <g id="页面-1" stroke="none" stroke-width="1" fill="none" fill-rule="evenodd">
        <g id="jboss">
            <g id="背景区域" opacity="0" fill="#D8D8D8" fill-rule="nonzero">
                <rect id="矩形" x="-2.84217094e-14" y="0" width="42" height="42"></rect>
            </g>
            <g id="底块" transform="translate(0.909091, 0.424242)">
                <polygon id="路径-7备份-2" fill="#416480" fill-rule="nonzero" transform="translate(17.090909, 22.575758) scale(-1, 1) translate(-17.090909, -22.575758) " points="0.0909089 39.5757576 0.0909089 5.57575758 34.0909089 5.57575758 34.0909089 39.5757576"></polygon>
                <g id="编组" transform="translate(7.090909, 12.575758)">
                    <rect id="矩形备份-9" opacity="0.446149554" x="0" y="0" width="20" height="20"></rect>
                    <path d="M7.0075,3.4685 C7.0075,4.0025 7.408,4.4475 7.942,4.4475 C8.476,4.4475 8.921,4.047 8.921,3.513 L8.921,3.513 L8.921,3.513 C8.921,2.979 8.476,2.5785 7.942,2.5785 C7.408,2.534 7.0075,2.9345 7.0075,3.4685 Z" id="路径" fill="#23CCD1" fill-rule="nonzero"></path>
                    <path d="M9.455,16.24 C9.455,17.2635 10.256,18.0645 11.2795,18.0645 C12.303,18.0645 13.104,17.2635 13.104,16.24 C13.104,15.2165 12.303,14.4155 11.2795,14.4155 L11.2795,14.4155 C10.3005,14.4155 9.455,15.261 9.455,16.24 Z" id="路径" fill="#EFF3F8" fill-rule="nonzero"></path>
                    <path d="M8.387,15.617 C8.387,16.507 7.675,17.219 6.785,17.219 C5.895,17.219 5.183,16.507 5.183,15.617 C5.183,14.727 5.895,14.015 6.785,14.015 L6.785,14.015 L6.785,14.015 C7.6305,14.015 8.3425,14.727 8.387,15.617 Z" id="路径" fill="#EFF3F8" fill-rule="nonzero"></path>
                    <path d="M1.8455,12.68 C1.801,13.481 2.424,14.1485 3.1805,14.193 C3.9815,14.2375 4.649,13.6145 4.6935,12.858 C4.6935,12.8135 4.6935,12.769 4.6935,12.68 L4.6935,12.68 C4.649,11.879 3.9815,11.3005 3.1805,11.345 C2.4685,11.345 1.8455,11.9235 1.8455,12.68 Z" id="路径" fill="#EFF3F8" fill-rule="nonzero"></path>
                    <path d="M1.4005,8.6305 C1.4005,9.3425 1.979,9.921 2.691,9.921 C3.403,9.921 3.9815,9.3425 3.9815,8.6305 C3.9815,7.9185 3.403,7.34 2.691,7.34 L2.691,7.34 C1.979,7.34 1.4005,7.9185 1.4005,8.6305 Z" id="路径" fill="#EFF3F8" fill-rule="nonzero"></path>
                    <path d="M3.67,5.115 C3.6255,5.6935 4.0705,6.2275 4.6935,6.272 C5.272,6.3165 5.806,5.8715 5.8505,5.2485 C5.8505,5.204 5.8505,5.1595 5.8505,5.115 L5.8505,5.115 C5.895,4.5365 5.45,4.0025 4.827,3.958 C4.2485,3.9135 3.7145,4.3585 3.67,4.9815 C3.67,5.026 3.67,5.0705 3.67,5.115 Z" id="路径" fill="#23CCD1" fill-rule="nonzero"></path>
                    <path d="M10.4785,2.89 C10.523,3.335 10.879,3.691 11.324,3.6465 C11.7245,3.602 12.036,3.2905 12.0805,2.89 L12.0805,2.89 C12.036,2.445 11.68,2.089 11.235,2.1335 C10.8345,2.1335 10.523,2.4895 10.4785,2.89 Z" id="路径" fill="#23CCD1" fill-rule="nonzero"></path>
                    <path d="M10.2115,5.6935 L12.3475,5.6935 L12.3475,9.4315 C12.392,10.0545 12.303,10.633 12.125,11.2115 C11.947,11.6565 11.68,12.0125 11.2795,12.235 C10.79,12.5465 10.2115,12.68 9.6775,12.68 C9.1435,12.7245 8.565,12.591 8.0755,12.413 C7.7195,12.235 7.408,11.9235 7.1855,11.5675 C7.0965,11.434 7.052,11.3005 7.0075,11.1225 C6.874,10.722 7.0965,10.277 7.497,10.1435 C7.5415,10.1435 7.586,10.099 7.6305,10.099 L8.0755,10.0545 C8.476,10.01 8.832,10.2325 8.9655,10.633 L8.9655,10.633 C9.01,10.7665 9.099,10.9 9.2325,10.989 C9.544,11.167 9.9,11.078 10.1225,10.811 C10.256,10.544 10.3005,10.2325 10.3005,9.921 L10.2115,5.6935 Z" id="路径" fill="#EFF3F8" fill-rule="nonzero"></path>
                    <path d="M12.3475,5.6935 L16.308,5.6935 C16.842,5.649 17.376,5.8715 17.821,6.2275 C18.177,6.539 18.355,6.984 18.355,7.429 C18.355,7.8295 18.2215,8.1855 17.9545,8.497 C17.732,8.7195 17.5095,8.853 17.198,8.942 C17.5985,9.031 17.999,9.2535 18.3105,9.565 C18.533,9.8765 18.6665,10.277 18.6665,10.6775 C18.6665,11.0335 18.5775,11.345 18.3995,11.6565 C18.2215,11.9235 17.999,12.1905 17.732,12.324 C17.465,12.4575 17.198,12.5465 16.931,12.5465 C16.4415,12.591 16.13,12.6355 15.9965,12.6355 L12.303,12.6355 L12.3475,5.6935 Z M14.528,8.408 L15.4625,8.408 C15.685,8.4525 15.952,8.3635 16.1745,8.23 C16.308,8.0965 16.397,7.9185 16.3525,7.7405 C16.3525,7.5625 16.308,7.3845 16.1745,7.251 C15.952,7.1175 15.7295,7.073 15.507,7.073 L14.5725,7.073 L14.528,8.408 Z M14.528,11.1225 L15.596,11.1225 C15.863,11.167 16.13,11.078 16.3525,10.9445 C16.486,10.811 16.575,10.633 16.575,10.4105 C16.575,10.2325 16.486,10.0545 16.3525,9.921 C16.13,9.7875 15.863,9.6985 15.5515,9.743 L14.4835,9.743 L14.4835,11.1225 L14.528,11.1225 L14.528,11.1225 Z" id="形状" fill="#EFF3F8" fill-rule="nonzero"></path>
                </g>
                <polygon id="路径-7备份-6" fill="#EEF3F7" fill-rule="nonzero" transform="translate(20.090909, 3.075758) rotate(180.000000) translate(-20.090909, -3.075758) " points="0.0909089 5.57575842 6.0909089 0.57575842 40.0909089 0.57575842 32.2909089 5.57575842"></polygon>
                <polygon id="路径-7备份-5" fill="#AFC0C8" fill-rule="nonzero" transform="translate(37.090909, 20.075758) scale(-1, 1) translate(-37.090909, -20.075758) " points="34.0909089 33.5757576 34.0909089 0.575757576 40.0909089 5.57575758 40.0909089 39.5757576"></polygon>
                <polygon id="路径-7备份-4" stroke="#FFFFFF" opacity="0.25" transform="translate(17.090909, 22.575758) scale(-1, 1) translate(-17.090909, -22.575758) " points="31.5909089 8.07575758 31.5909089 37.0757576 2.5909089 37.0757576 2.5909089 8.07575758"></polygon>
                <polygon id="路径-7备份-4" stroke="#32526B" transform="translate(17.090909, 22.575758) scale(-1, 1) translate(-17.090909, -22.575758) " points="30.5909089 9.07575758 30.5909089 36.0757576 3.5909089 36.0757576 3.5909089 9.07575758"></polygon>
            </g>
        </g>
    </g>
</svg>