<?xml version="1.0" encoding="UTF-8"?>
<svg width="42px" height="42px" viewBox="0 0 42 42" version="1.1" xmlns="http://www.w3.org/2000/svg" xmlns:xlink="http://www.w3.org/1999/xlink">
    <title>kafka</title>
    <g id="页面-1" stroke="none" stroke-width="1" fill="none" fill-rule="evenodd">
        <g id="kafka">
            <g id="背景区域" opacity="0" fill="#D8D8D8" fill-rule="nonzero">
                <rect id="矩形" x="0" y="0" width="42" height="42"></rect>
            </g>
            <g id="底块" transform="translate(1.000000, 1.000000)">
                <polygon id="路径-7备份-2" fill="#416480" fill-rule="nonzero" transform="translate(17.000000, 22.000000) scale(-1, 1) translate(-17.000000, -22.000000) " points="0 39 0 5 34 5 34 39"></polygon>
                <polygon id="路径-7备份-6" fill="#EEF3F7" fill-rule="nonzero" transform="translate(20.000000, 2.500000) rotate(180.000000) translate(-20.000000, -2.500000) " points="0 5 6 0 40 0 32.2 5"></polygon>
                <polygon id="路径-7备份-5" fill="#AFC0C8" fill-rule="nonzero" transform="translate(37.000000, 19.500000) scale(-1, 1) translate(-37.000000, -19.500000) " points="34 33 34 -1.69135539e-17 40 5 40 39"></polygon>
                <polygon id="路径-7备份-4" stroke="#FFFFFF" opacity="0.25" transform="translate(17.000000, 22.000000) scale(-1, 1) translate(-17.000000, -22.000000) " points="31.5 7.5 31.5 36.5 2.5 36.5 2.5 7.5"></polygon>
                <polygon id="路径-7备份-4" stroke="#32526B" transform="translate(17.000000, 22.000000) scale(-1, 1) translate(-17.000000, -22.000000) " points="30.5 8.5 30.5 35.5 3.5 35.5 3.5 8.5"></polygon>
            </g>
            <g id="Kafka" transform="translate(8.000000, 13.000000)">
                <rect id="bg" opacity="0.446149554" x="0" y="0" width="20" height="20"></rect>
                <g id="形状" transform="translate(2.000000, 1.000000)" fill-rule="nonzero">
                    <path d="M11.0644892,12.1342481 L6.67233746,10.0291502 C6.80817721,9.63444438 6.89873704,9.23973853 6.89873704,8.84503268 C6.89873704,8.75732027 6.89873704,8.66960786 6.89873704,8.62575166 L11.3814486,6.4767976 C12.241767,7.57320273 13.8265641,7.79248376 14.9585619,6.95921585 C16.0905598,6.12594795 16.3169594,4.59098077 15.456641,3.49457563 C14.5963226,2.3981705 13.0115256,2.17888947 11.8795277,3.01215737 C11.2456089,3.49457563 10.8833696,4.19627492 10.8833696,4.98568661 C10.8833696,5.29268005 10.9286495,5.59967349 11.0644892,5.90666693 L6.76289729,7.96790858 C6.40065797,6.65222242 5.17810026,5.6873859 3.77442289,5.55581728 L3.77442289,3.40686322 C4.72530111,3.2314384 5.35921992,2.31045809 5.17810026,1.38947778 C4.9969806,0.468497464 4.04610238,-0.14548941 3.09522416,0.0299354111 C2.14434594,0.205360232 1.51042713,1.12634054 1.69154679,2.04732086 C1.82738653,2.74902014 2.37074552,3.27529461 3.09522416,3.40686322 L3.09522416,5.55581728 C1.19346772,5.7312421 -0.164929736,7.39777791 0.0161899249,9.23973853 C0.197309586,10.8185619 1.46514721,12.0465357 3.09522416,12.2219605 L3.09522416,14.3709146 C2.14434594,14.5463394 1.51042713,15.4673197 1.69154679,16.3883 C1.87266645,17.3092803 2.82354467,17.9232672 3.77442289,17.7478424 C4.72530111,17.5724175 5.35921992,16.6514372 5.17810026,15.7304569 C5.04226052,15.0287576 4.49890153,14.5024832 3.77442289,14.3709146 L3.77442289,12.2219605 C4.86114085,12.1342481 5.81201907,11.5202612 6.35537806,10.6431371 L10.8833696,12.7920912 C10.8833696,12.8798036 10.8833696,13.0113722 10.8833696,13.0990846 C10.8833696,14.458627 12.0153675,15.5550321 13.4190448,15.5988883 C14.8227222,15.5988883 15.9547201,14.5024832 16,13.1429408 C16,11.7833984 14.8680021,10.6431371 13.4190448,10.6431371 C12.3776068,10.6431371 11.4720085,11.257124 11.0644892,12.1342481 Z" id="路径备份-2" fill="#FFFFFF"></path>
                    <circle id="椭圆形" fill="#23CCD1" cx="3.55555556" cy="8.88888889" r="3.55555556"></circle>
                </g>
            </g>
        </g>
    </g>
</svg>