<?xml version="1.0" encoding="UTF-8"?>
<svg width="42px" height="42px" viewBox="0 0 42 42" version="1.1" xmlns="http://www.w3.org/2000/svg" xmlns:xlink="http://www.w3.org/1999/xlink">
    <title>keepaliced</title>
    <g id="页面-1" stroke="none" stroke-width="1" fill="none" fill-rule="evenodd">
        <g id="keepaliced">
            <g id="背景区域" opacity="0" fill="#D8D8D8" fill-rule="nonzero">
                <rect id="矩形" x="1.13686838e-13" y="0" width="42" height="42"></rect>
            </g>
            <g id="底块" transform="translate(1.000000, 1.000000)">
                <polygon id="路径-7备份-2" fill="#416480" fill-rule="nonzero" transform="translate(17.000000, 22.000000) scale(-1, 1) translate(-17.000000, -22.000000) " points="0 39 0 5 34 5 34 39"></polygon>
                <polygon id="路径-7备份-6" fill="#EEF3F7" fill-rule="nonzero" transform="translate(20.000000, 2.500000) rotate(180.000000) translate(-20.000000, -2.500000) " points="0 5 6 0 40 0 32.2 5"></polygon>
                <polygon id="路径-7备份-5" fill="#AFC0C8" fill-rule="nonzero" transform="translate(37.000000, 19.500000) scale(-1, 1) translate(-37.000000, -19.500000) " points="34 33 34 -1.69135539e-17 40 5 40 39"></polygon>
                <polygon id="路径-7备份-4" stroke="#FFFFFF" opacity="0.25" transform="translate(17.000000, 22.000000) scale(-1, 1) translate(-17.000000, -22.000000) " points="31.5 7.5 31.5 36.5 2.5 36.5 2.5 7.5"></polygon>
                <polygon id="路径-7备份-4" stroke="#32526B" transform="translate(17.000000, 22.000000) scale(-1, 1) translate(-17.000000, -22.000000) " points="30.5 8.5 30.5 35.5 3.5 35.5 3.5 8.5"></polygon>
            </g>
            <g id="keepalived" transform="translate(8.000000, 13.000000)">
                <polygon id="矩形备份-17" points="0 0 20 0 20 20 13.6025995 20 0 20"></polygon>
                <g id="图形" transform="translate(1.555556, 2.000000)" fill-rule="nonzero">
                    <path d="M3.44444444,0 C3.99672919,0 4.44444444,0.44771525 4.44444444,1 L4.44444444,3 C4.44444444,3.08949058 4.43268923,3.17623559 4.4106387,3.25877513 L8.44444444,7.293 L12.4782502,3.25877513 C12.4561997,3.17623559 12.4444444,3.08949058 12.4444444,3 L12.4444444,1 C12.4444444,0.44771525 12.8921597,0 13.4444444,0 L15.4444444,0 C15.9967292,0 16.4444444,0.44771525 16.4444444,1 L16.4444444,3 C16.4444444,3.55228475 15.9967292,4 15.4444444,4 L13.4444444,4 C13.3553191,4 13.268917,3.98834055 13.1866802,3.96646375 L9.15144444,8 L13.1856693,12.0338057 C13.2682089,12.0117552 13.3549539,12 13.4444444,12 L15.4444444,12 C15.9967292,12 16.4444444,12.4477153 16.4444444,13 L16.4444444,15 C16.4444444,15.5522847 15.9967292,16 15.4444444,16 L13.4444444,16 C12.8921597,16 12.4444444,15.5522847 12.4444444,15 L12.4444444,13 C12.4444444,12.9105094 12.4561997,12.8237644 12.4782502,12.7412249 L8.44444444,8.707 L4.41090819,12.7422358 C4.432785,12.8244726 4.44444444,12.9108747 4.44444444,13 L4.44444444,15 C4.44444444,15.5522847 3.99672919,16 3.44444444,16 L1.44444444,16 C0.892159695,16 0.444444444,15.5522847 0.444444444,15 L0.444444444,13 C0.444444444,12.4477153 0.892159695,12 1.44444444,12 L3.44444444,12 C3.53393503,12 3.62068004,12.0117552 3.70321957,12.0338057 L7.73744444,8 L3.70321957,3.96619426 C3.62068004,3.98824479 3.53393503,4 3.44444444,4 L1.44444444,4 C0.892159695,4 0.444444444,3.55228475 0.444444444,3 L0.444444444,1 C0.444444444,0.44771525 0.892159695,0 1.44444444,0 L3.44444444,0 Z" id="形状结合" fill="#FFFFFF"></path>
                    <rect id="矩形" fill="#23CCD1" x="5.44444444" y="5" width="6" height="6" rx="1"></rect>
                </g>
            </g>
        </g>
    </g>
</svg>