<?xml version="1.0" encoding="UTF-8"?>
<svg width="42px" height="42px" viewBox="0 0 42 42" version="1.1" xmlns="http://www.w3.org/2000/svg" xmlns:xlink="http://www.w3.org/1999/xlink">
    <title>kubernetes</title>
    <g id="页面-1" stroke="none" stroke-width="1" fill="none" fill-rule="evenodd">
        <g id="kubernetes">
            <g id="背景区域" opacity="0" fill="#D8D8D8" fill-rule="nonzero">
                <rect id="矩形" x="-5.68434189e-14" y="0" width="42" height="42"></rect>
            </g>
            <g id="底块" transform="translate(0.909091, 0.424242)">
                <polygon id="路径-7备份-2" fill="#416480" fill-rule="nonzero" transform="translate(17.090909, 22.575758) scale(-1, 1) translate(-17.090909, -22.575758) " points="0.0909089 39.5757576 0.0909089 5.57575758 34.0909089 5.57575758 34.0909089 39.5757576"></polygon>
                <polygon id="路径-7备份-6" fill="#EEF3F7" fill-rule="nonzero" transform="translate(20.090909, 3.075758) rotate(180.000000) translate(-20.090909, -3.075758) " points="0.0909089 5.57575842 6.0909089 0.57575842 40.0909089 0.57575842 32.2909089 5.57575842"></polygon>
                <polygon id="路径-7备份-5" fill="#AFC0C8" fill-rule="nonzero" transform="translate(37.090909, 20.075758) scale(-1, 1) translate(-37.090909, -20.075758) " points="34.0909089 33.5757576 34.0909089 0.575757576 40.0909089 5.57575758 40.0909089 39.5757576"></polygon>
                <polygon id="路径-7备份-4" stroke="#FFFFFF" opacity="0.25" transform="translate(17.090909, 22.575758) scale(-1, 1) translate(-17.090909, -22.575758) " points="31.5909089 8.07575758 31.5909089 37.0757576 2.5909089 37.0757576 2.5909089 8.07575758"></polygon>
                <polygon id="路径-7备份-4" stroke="#32526B" transform="translate(17.090909, 22.575758) scale(-1, 1) translate(-17.090909, -22.575758) " points="30.5909089 9.07575758 30.5909089 36.0757576 3.5909089 36.0757576 3.5909089 9.07575758"></polygon>
            </g>
            <g id="Icon/Kubernetes" transform="translate(8.000000, 13.000000)" fill-rule="nonzero">
                <rect id="矩形" fill="#D8D8D8" opacity="0" x="0" y="0" width="20" height="20"></rect>
                <g id="K8S">
                    <rect id="矩形备份-3" fill="#D8D8D8" opacity="0" x="0" y="0" width="20" height="20"></rect>
                    <g id="形状结合备份-4" fill="#000000">
                        <path d="M9.97079718,0 C10.2718754,0 10.517029,0.326877095 10.517029,0.728765387 C10.517029,1.24949097 10.4051799,1.31800279 10.3797969,2.01188618 C10.3822977,2.27576657 10.4387266,2.53534033 10.5445347,2.77442535 C10.6440174,2.8064418 10.7135086,2.89889712 10.7136968,3.00761825 L10.711,3.022 L10.9628861,3.05159713 C12.5057334,3.2628648 13.9430686,3.96742255 15.0668175,5.06327582 L15.2718755,5.27167551 C15.2758335,5.26820175 15.2799242,5.26482925 15.2841464,5.26156487 C15.3657015,5.19851132 15.4750027,5.19616493 15.557697,5.24757169 C15.8565807,5.18514109 16.0703783,5.01578379 16.2133627,4.88968064 C16.7303426,4.43740725 16.7151011,4.30557119 17.114018,3.98125807 C17.4240066,3.73052509 17.8254442,3.72152136 18.0160215,3.96056738 C18.2052505,4.20098483 18.1048911,4.59762592 17.7961922,4.84961107 C17.3960443,5.17648816 17.2740537,5.13129064 16.7240115,5.54349446 C16.5611979,5.67720269 16.4225075,5.83734173 16.3130706,6.01662444 L16.236,6.153 L16.2436365,6.16566931 C16.2822252,6.26109691 16.258914,6.37278034 16.1815863,6.44460842 L16.158,6.408 L16.3008421,6.63935342 C17.0966226,7.99267347 17.4503407,9.56811177 17.3110262,11.138649 L17.282,11.397 L17.324551,11.4130297 C17.4032839,11.4559404 17.4530849,11.5391662 17.4531213,11.6293631 C17.6935706,11.8353408 17.9628529,11.9022216 18.1531363,11.9384674 C18.8238795,12.0676798 18.9153284,11.9732897 19.4146047,12.0896227 C19.7995111,12.1787656 20.0573269,12.488947 19.9890333,12.788634 C19.9204466,13.0870689 19.5558231,13.2563509 19.1709166,13.167208 C18.6716404,13.0521869 18.6310159,12.9268502 17.9704142,12.7459409 C17.7134299,12.6884998 17.4482155,12.6876238 17.1923578,12.7423264 C17.1452433,12.8222881 17.0554723,12.8670579 16.9619198,12.8560113 L16.976,12.81 L16.8760256,13.0994241 C16.2927689,14.6735251 15.2092164,16.0070227 13.7929499,16.8829037 C13.8197081,16.9663659 13.7975261,17.0566995 13.7405686,17.1206043 C13.7490111,17.3509046 13.8153193,17.5767686 13.9318864,17.7777731 C14.2507268,18.389013 14.3802796,18.4058279 14.6026296,18.8748566 C14.7728654,19.2366157 14.6928475,19.6398158 14.4209626,19.7715922 C14.1503674,19.9034282 13.790844,19.7173313 13.6180875,19.3555126 C13.3983168,18.8864243 13.4669622,18.7753385 13.1937876,18.13828 C13.0925394,17.9275886 12.9532483,17.7388245 12.7837314,17.5815435 L12.7739223,17.585655 C12.6887347,17.6226609 12.5974902,17.6101984 12.5298339,17.5617999 L12.483,17.518 L12.3405085,17.5716387 C10.8349936,18.0902252 9.20474697,18.1010611 7.69269775,17.6025318 L7.41874565,17.505158 C7.38209186,17.5896235 7.3034395,17.6428925 7.21784637,17.6511261 C6.92322177,17.846876 6.78347956,18.1274486 6.69956153,18.3230055 C6.42773529,18.9600044 6.49761169,19.0712094 6.2752617,19.5402381 C6.10373623,19.9046208 5.74427138,20.0907177 5.47238652,19.9563177 C5.20056028,19.8219773 5.1204838,19.4214008 5.29200926,19.0595821 C5.51301097,18.5879298 5.64262232,18.5762428 5.96146272,17.9624986 C6.07608793,17.7150592 6.13643202,17.4461078 6.13934322,17.1742003 C6.06485604,17.1038893 6.04052454,16.9932603 6.08314154,16.895053 L6.105,16.857 L5.90242613,16.7271687 C4.52164492,15.7956677 3.48619475,14.4171146 2.96704077,12.8109463 C2.88220574,12.8197054 2.80112149,12.7812451 2.75225465,12.7148224 C2.4650848,12.6472703 2.20834,12.7017806 2.0296254,12.7511284 C1.37031341,12.930726 1.32839929,13.0560627 0.829123012,13.1723956 C0.445506251,13.2615385 0.0783620317,13.0923161 0.0110063383,12.7925098 C-0.0575803992,12.4940153 0.201583675,12.1800177 0.587779766,12.0947506 C1.08576638,11.9797891 1.17856365,12.0741196 1.8480171,11.9449071 C2.08034722,11.8886016 2.2990685,11.78734 2.49255086,11.6474024 C2.46457014,11.5274923 2.52080549,11.4139561 2.62028836,11.364341 L2.654,11.352 L2.6348492,11.1849296 C2.4787561,9.52731826 2.87275464,7.86142855 3.75773523,6.45505575 C3.67092951,6.38538456 3.64257562,6.26826679 3.68174116,6.16825227 L3.70162012,6.13261 C3.5713468,5.87849987 3.37700442,5.71511789 3.23270712,5.60801124 C2.6839546,5.19199127 2.561964,5.23844097 2.16181608,4.91412785 C1.85305852,4.66089053 1.75398879,4.26162584 1.94198679,4.02126802 C2.1299848,3.7809102 2.53271205,3.79128536 2.84141099,4.04195871 C3.24161754,4.36633145 3.22631742,4.49685571 3.74341452,4.95038128 C3.92357689,5.09341204 4.12746168,5.20095162 4.34454827,5.26840741 C4.42940651,5.19629813 4.55260122,5.19224513 4.64226125,5.26156487 L4.662,5.279 L4.8349913,5.10170487 C5.96356956,3.98526099 7.41511436,3.26668353 8.97521824,3.05211348 L9.2488003,3.02114495 L9.2482579,3.00496978 L9.2482579,3.00496978 C9.248064,2.89297377 9.32197928,2.79815164 9.42375759,2.76690996 C9.56468556,2.48701744 9.56883222,2.20702772 9.56179746,2.01188618 C9.53506622,1.31925497 9.42456537,1.24949097 9.42456537,0.728765387 C9.42456537,0.326877095 9.66971899,0 9.97079718,0 Z M9.77239759,13.3062959 C9.63627305,13.4485003 8.61080927,14.9903282 7.99020058,16.1778018 C8.61583176,16.3911602 9.27337104,16.5000638 9.93556899,16.5000161 C10.6087066,16.5002827 11.2769828,16.3879173 11.9117692,16.1677167 C11.8222204,15.9975477 11.7227536,15.8162313 11.6180687,15.6305794 L11.4577153,15.3497015 L11.2599227,15.0112568 C10.7627734,14.1699918 10.2646513,13.3926649 10.1938447,13.3 C10.0899949,13.1640914 9.90852212,13.1640914 9.77239759,13.3062959 Z M12.1237761,12.1003775 C12.0413142,12.1019426 11.8688031,12.1784733 11.9117692,12.3860299 C11.9547353,12.5935864 12.5755064,14.4881397 13.1004288,15.7 C14.1861717,14.9595128 15.009322,13.8593538 15.441181,12.5715319 C14.1364154,12.3032561 12.2062381,12.0988301 12.1237761,12.1003775 Z M7.78747102,12.1005383 C7.69339391,12.098789 5.70990222,12.3077314 4.46078882,12.5786937 C4.89723557,13.8660978 5.73033048,14.9643592 6.82848069,15.7 C7.39101431,14.3598369 7.96183386,12.5895593 7.99020058,12.376805 C8.01856731,12.1640507 7.88154813,12.1023546 7.78747102,12.1005383 Z M10.4716128,9.44336792 L9.52838724,9.44336792 L8.94029575,10.197199 L9.15018317,11.1372109 L10,11.5555556 L10.8498168,11.1372109 L11.0597043,10.197199 L10.4716128,9.44336792 Z M4.99159149,7.3 C4.38636238,8.29924216 4.06724458,9.44956861 4.06862297,10.6223285 C4.07050827,10.8487687 4.08408029,11.0750186 4.10928546,11.3 C5.16285608,11.0218555 6.61026513,10.5193274 7.22798476,10.2960544 L7.34010363,10.2552724 L7.46804453,10.2077454 C7.49933346,10.1958699 7.5187694,10.1881649 7.52486742,10.1852417 C7.59804372,10.1501635 7.70045517,9.97255185 7.59804372,9.83333968 C7.49563227,9.6941275 6.05690081,8.19891061 4.99159149,7.3 Z M15.0027506,7.3 C14.8675477,7.43081082 14.7262821,7.57255143 14.5831242,7.71984611 L14.3674894,7.9442817 L14.1093849,8.21892467 C13.8853021,8.45991378 13.6679049,8.70001172 13.4734868,8.91821556 L13.2873318,9.12834348 L13.0979865,9.34462971 C12.8644203,9.61314135 12.7112354,9.7959802 12.6960829,9.81883202 C12.6506256,9.88738749 12.6165622,10.0733351 12.7646561,10.1637936 C12.9127499,10.2542521 14.6008619,10.9550385 15.8005312,11.2999368 C15.9349078,9.90266866 15.6540423,8.49445683 15.0027506,7.3 Z M9.55862745,4.502 L9.29279039,4.53930543 C8.05757103,4.73855405 6.91436519,5.32461986 6.02941627,6.21676008 C6.27034572,6.39735177 6.53864832,6.58844569 6.81159327,6.77700489 L7.13990077,7.00122489 C7.95896648,7.55456141 8.73798239,8.03815237 8.86321669,8.1 C9.04689366,8.19070986 9.17966084,8.1 9.23292553,7.91292595 C9.26697256,7.79334736 9.3779988,6.9781187 9.46177003,6.05645494 L9.47812999,5.87087764 L9.50974882,5.4703168 C9.53386846,5.13594531 9.55178995,4.80367812 9.55862745,4.502 Z M10.7352986,4.5 C10.743433,4.7416476 10.7571524,4.99852641 10.7744865,5.25886479 L10.8029521,5.65049556 C10.8898899,6.75912939 11.0243194,7.82393871 11.0549713,7.94126476 C11.0964415,8.1 11.2457863,8.15753055 11.3798609,8.1 C11.5139355,8.04246945 13.2017133,7.01881129 14.2647104,6.20826496 C13.3131799,5.25825301 12.0699713,4.65652959 10.7352986,4.5 Z" id="path-1"></path>
                    </g>
                    <path d="M9.97079718,0 C10.2718754,0 10.517029,0.326877095 10.517029,0.728765387 C10.517029,1.24949097 10.4051799,1.31800279 10.3797969,2.01188618 C10.3822977,2.27576657 10.4387266,2.53534033 10.5445347,2.77442535 C10.6440174,2.8064418 10.7135086,2.89889712 10.7136968,3.00761825 L10.711,3.022 L10.9628861,3.05159713 C12.5057334,3.2628648 13.9430686,3.96742255 15.0668175,5.06327582 L15.2718755,5.27167551 C15.2758335,5.26820175 15.2799242,5.26482925 15.2841464,5.26156487 C15.3657015,5.19851132 15.4750027,5.19616493 15.557697,5.24757169 C15.8565807,5.18514109 16.0703783,5.01578379 16.2133627,4.88968064 C16.7303426,4.43740725 16.7151011,4.30557119 17.114018,3.98125807 C17.4240066,3.73052509 17.8254442,3.72152136 18.0160215,3.96056738 C18.2052505,4.20098483 18.1048911,4.59762592 17.7961922,4.84961107 C17.3960443,5.17648816 17.2740537,5.13129064 16.7240115,5.54349446 C16.5611979,5.67720269 16.4225075,5.83734173 16.3130706,6.01662444 L16.236,6.153 L16.2436365,6.16566931 C16.2822252,6.26109691 16.258914,6.37278034 16.1815863,6.44460842 L16.158,6.408 L16.3008421,6.63935342 C17.0966226,7.99267347 17.4503407,9.56811177 17.3110262,11.138649 L17.282,11.397 L17.324551,11.4130297 C17.4032839,11.4559404 17.4530849,11.5391662 17.4531213,11.6293631 C17.6935706,11.8353408 17.9628529,11.9022216 18.1531363,11.9384674 C18.8238795,12.0676798 18.9153284,11.9732897 19.4146047,12.0896227 C19.7995111,12.1787656 20.0573269,12.488947 19.9890333,12.788634 C19.9204466,13.0870689 19.5558231,13.2563509 19.1709166,13.167208 C18.6716404,13.0521869 18.6310159,12.9268502 17.9704142,12.7459409 C17.7134299,12.6884998 17.4482155,12.6876238 17.1923578,12.7423264 C17.1452433,12.8222881 17.0554723,12.8670579 16.9619198,12.8560113 L16.976,12.81 L16.8760256,13.0994241 C16.2927689,14.6735251 15.2092164,16.0070227 13.7929499,16.8829037 C13.8197081,16.9663659 13.7975261,17.0566995 13.7405686,17.1206043 C13.7490111,17.3509046 13.8153193,17.5767686 13.9318864,17.7777731 C14.2507268,18.389013 14.3802796,18.4058279 14.6026296,18.8748566 C14.7728654,19.2366157 14.6928475,19.6398158 14.4209626,19.7715922 C14.1503674,19.9034282 13.790844,19.7173313 13.6180875,19.3555126 C13.3983168,18.8864243 13.4669622,18.7753385 13.1937876,18.13828 C13.0925394,17.9275886 12.9532483,17.7388245 12.7837314,17.5815435 L12.7739223,17.585655 C12.6887347,17.6226609 12.5974902,17.6101984 12.5298339,17.5617999 L12.483,17.518 L12.3405085,17.5716387 C10.8349936,18.0902252 9.20474697,18.1010611 7.69269775,17.6025318 L7.41874565,17.505158 C7.38209186,17.5896235 7.3034395,17.6428925 7.21784637,17.6511261 C6.92322177,17.846876 6.78347956,18.1274486 6.69956153,18.3230055 C6.42773529,18.9600044 6.49761169,19.0712094 6.2752617,19.5402381 C6.10373623,19.9046208 5.74427138,20.0907177 5.47238652,19.9563177 C5.20056028,19.8219773 5.1204838,19.4214008 5.29200926,19.0595821 C5.51301097,18.5879298 5.64262232,18.5762428 5.96146272,17.9624986 C6.07608793,17.7150592 6.13643202,17.4461078 6.13934322,17.1742003 C6.06485604,17.1038893 6.04052454,16.9932603 6.08314154,16.895053 L6.105,16.857 L5.90242613,16.7271687 C4.52164492,15.7956677 3.48619475,14.4171146 2.96704077,12.8109463 C2.88220574,12.8197054 2.80112149,12.7812451 2.75225465,12.7148224 C2.4650848,12.6472703 2.20834,12.7017806 2.0296254,12.7511284 C1.37031341,12.930726 1.32839929,13.0560627 0.829123012,13.1723956 C0.445506251,13.2615385 0.0783620317,13.0923161 0.0110063383,12.7925098 C-0.0575803992,12.4940153 0.201583675,12.1800177 0.587779766,12.0947506 C1.08576638,11.9797891 1.17856365,12.0741196 1.8480171,11.9449071 C2.08034722,11.8886016 2.2990685,11.78734 2.49255086,11.6474024 C2.46457014,11.5274923 2.52080549,11.4139561 2.62028836,11.364341 L2.654,11.352 L2.6348492,11.1849296 C2.4787561,9.52731826 2.87275464,7.86142855 3.75773523,6.45505575 C3.67092951,6.38538456 3.64257562,6.26826679 3.68174116,6.16825227 L3.70162012,6.13261 C3.5713468,5.87849987 3.37700442,5.71511789 3.23270712,5.60801124 C2.6839546,5.19199127 2.561964,5.23844097 2.16181608,4.91412785 C1.85305852,4.66089053 1.75398879,4.26162584 1.94198679,4.02126802 C2.1299848,3.7809102 2.53271205,3.79128536 2.84141099,4.04195871 C3.24161754,4.36633145 3.22631742,4.49685571 3.74341452,4.95038128 C3.92357689,5.09341204 4.12746168,5.20095162 4.34454827,5.26840741 C4.42940651,5.19629813 4.55260122,5.19224513 4.64226125,5.26156487 L4.662,5.279 L4.8349913,5.10170487 C5.96356956,3.98526099 7.41511436,3.26668353 8.97521824,3.05211348 L9.2488003,3.02114495 L9.2482579,3.00496978 L9.2482579,3.00496978 C9.248064,2.89297377 9.32197928,2.79815164 9.42375759,2.76690996 C9.56468556,2.48701744 9.56883222,2.20702772 9.56179746,2.01188618 C9.53506622,1.31925497 9.42456537,1.24949097 9.42456537,0.728765387 C9.42456537,0.326877095 9.66971899,0 9.97079718,0 Z M9.77239759,13.3062959 C9.63627305,13.4485003 8.61080927,14.9903282 7.99020058,16.1778018 C8.61583176,16.3911602 9.27337104,16.5000638 9.93556899,16.5000161 C10.6087066,16.5002827 11.2769828,16.3879173 11.9117692,16.1677167 C11.8222204,15.9975477 11.7227536,15.8162313 11.6180687,15.6305794 L11.4577153,15.3497015 L11.2599227,15.0112568 C10.7627734,14.1699918 10.2646513,13.3926649 10.1938447,13.3 C10.0899949,13.1640914 9.90852212,13.1640914 9.77239759,13.3062959 Z M12.1237761,12.1003775 C12.0413142,12.1019426 11.8688031,12.1784733 11.9117692,12.3860299 C11.9547353,12.5935864 12.5755064,14.4881397 13.1004288,15.7 C14.1861717,14.9595128 15.009322,13.8593538 15.441181,12.5715319 C14.1364154,12.3032561 12.2062381,12.0988301 12.1237761,12.1003775 Z M7.78747102,12.1005383 C7.69339391,12.098789 5.70990222,12.3077314 4.46078882,12.5786937 C4.89723557,13.8660978 5.73033048,14.9643592 6.82848069,15.7 C7.39101431,14.3598369 7.96183386,12.5895593 7.99020058,12.376805 C8.01856731,12.1640507 7.88154813,12.1023546 7.78747102,12.1005383 Z M10.4716128,9.44336792 L9.52838724,9.44336792 L8.94029575,10.197199 L9.15018317,11.1372109 L10,11.5555556 L10.8498168,11.1372109 L11.0597043,10.197199 L10.4716128,9.44336792 Z M4.99159149,7.3 C4.38636238,8.29924216 4.06724458,9.44956861 4.06862297,10.6223285 C4.07050827,10.8487687 4.08408029,11.0750186 4.10928546,11.3 C5.16285608,11.0218555 6.61026513,10.5193274 7.22798476,10.2960544 L7.34010363,10.2552724 L7.46804453,10.2077454 C7.49933346,10.1958699 7.5187694,10.1881649 7.52486742,10.1852417 C7.59804372,10.1501635 7.70045517,9.97255185 7.59804372,9.83333968 C7.49563227,9.6941275 6.05690081,8.19891061 4.99159149,7.3 Z M15.0027506,7.3 C14.8675477,7.43081082 14.7262821,7.57255143 14.5831242,7.71984611 L14.3674894,7.9442817 L14.1093849,8.21892467 C13.8853021,8.45991378 13.6679049,8.70001172 13.4734868,8.91821556 L13.2873318,9.12834348 L13.0979865,9.34462971 C12.8644203,9.61314135 12.7112354,9.7959802 12.6960829,9.81883202 C12.6506256,9.88738749 12.6165622,10.0733351 12.7646561,10.1637936 C12.9127499,10.2542521 14.6008619,10.9550385 15.8005312,11.2999368 C15.9349078,9.90266866 15.6540423,8.49445683 15.0027506,7.3 Z M9.55862745,4.502 L9.29279039,4.53930543 C8.05757103,4.73855405 6.91436519,5.32461986 6.02941627,6.21676008 C6.27034572,6.39735177 6.53864832,6.58844569 6.81159327,6.77700489 L7.13990077,7.00122489 C7.95896648,7.55456141 8.73798239,8.03815237 8.86321669,8.1 C9.04689366,8.19070986 9.17966084,8.1 9.23292553,7.91292595 C9.26697256,7.79334736 9.3779988,6.9781187 9.46177003,6.05645494 L9.47812999,5.87087764 L9.50974882,5.4703168 C9.53386846,5.13594531 9.55178995,4.80367812 9.55862745,4.502 Z M10.7352986,4.5 C10.743433,4.7416476 10.7571524,4.99852641 10.7744865,5.25886479 L10.8029521,5.65049556 C10.8898899,6.75912939 11.0243194,7.82393871 11.0549713,7.94126476 C11.0964415,8.1 11.2457863,8.15753055 11.3798609,8.1 C11.5139355,8.04246945 13.2017133,7.01881129 14.2647104,6.20826496 C13.3131799,5.25825301 12.0699713,4.65652959 10.7352986,4.5 Z" id="形状结合备份-4" fill="#EFF3F8"></path>
                </g>
            </g>
        </g>
    </g>
</svg>