<?xml version="1.0" encoding="UTF-8"?>
<svg width="42px" height="42px" viewBox="0 0 42 42" version="1.1" xmlns="http://www.w3.org/2000/svg" xmlns:xlink="http://www.w3.org/1999/xlink">
    <title>kubernetes-service</title>
    <g id="页面-1" stroke="none" stroke-width="1" fill="none" fill-rule="evenodd">
        <g id="kubernetes-service">
            <g id="背景区域" opacity="0" fill="#D8D8D8" fill-rule="nonzero">
                <rect id="矩形" x="0" y="0" width="42" height="42"></rect>
            </g>
            <g id="底块" transform="translate(1.000000, 1.000000)">
                <polygon id="路径-7备份-2" fill="#416480" fill-rule="nonzero" transform="translate(17.000000, 22.000000) scale(-1, 1) translate(-17.000000, -22.000000) " points="0 39 0 5 34 5 34 39"></polygon>
                <polygon id="路径-7备份-6" fill="#EEF3F7" fill-rule="nonzero" transform="translate(20.000000, 2.500000) rotate(180.000000) translate(-20.000000, -2.500000) " points="0 5 6 0 40 0 32.2 5"></polygon>
                <polygon id="路径-7备份-5" fill="#AFC0C8" fill-rule="nonzero" transform="translate(37.000000, 19.500000) scale(-1, 1) translate(-37.000000, -19.500000) " points="34 33 34 -1.69135539e-17 40 5 40 39"></polygon>
                <polygon id="路径-7备份-4" stroke="#FFFFFF" opacity="0.25" transform="translate(17.000000, 22.000000) scale(-1, 1) translate(-17.000000, -22.000000) " points="31.5 7.5 31.5 36.5 2.5 36.5 2.5 7.5"></polygon>
                <polygon id="路径-7备份-4" stroke="#32526B" transform="translate(17.000000, 22.000000) scale(-1, 1) translate(-17.000000, -22.000000) " points="30.5 8.5 30.5 35.5 3.5 35.5 3.5 8.5"></polygon>
            </g>
            <g id="Kubernetes-Service" transform="translate(8.000000, 13.000000)">
                <polygon id="矩形备份-18" points="0 0 20 0 20 20 13.6025995 20 0 20"></polygon>
                <g id="形状" fill-rule="nonzero">
                    <path d="M2.89522974,14.6219253 C2.04386747,13.2587614 1.58588589,11.6859078 1.58588589,10.0459459 C1.58588589,5.27829633 5.45186991,1.41231231 10.2195195,1.41231231 C11.8489226,1.41231231 13.4121466,1.86508286 14.7716683,2.70739523 C15.0324904,2.8689915 15.3749281,2.78855311 15.5365244,2.52773106 C15.6981206,2.26690902 15.6176822,1.92447131 15.3568602,1.76287504 C13.8230491,0.812579065 12.057479,0.301201201 10.2195195,0.301201201 C4.83822018,0.301201201 0.474774775,4.66464661 0.474774775,10.0459459 C0.474774775,11.8956725 0.992054314,13.672174 1.95281831,15.2105071 C2.11535071,15.4707469 2.45807523,15.5499543 2.71831496,15.3874219 C2.97855468,15.2248895 3.05776213,14.882165 2.89522974,14.6219253 Z" id="路径" fill="#FFFFFF"></path>
                    <path d="M17.356631,5.19214849 C18.3222241,6.61097924 18.848048,8.29090025 18.848048,10.0459459 C18.848048,14.8135956 14.982064,18.6795796 10.2144144,18.6795796 C8.56389373,18.6795796 6.98141373,18.2163847 5.61458113,17.3559685 C5.35492026,17.1925129 5.01191661,17.2705027 4.84846102,17.5301636 C4.68500544,17.7898245 4.76298923,18.1328281 5.0226561,18.2962837 C6.56552065,19.2675114 8.35293423,19.7906907 10.2144144,19.7906907 C15.5957137,19.7906907 19.9591592,15.4272453 19.9591592,10.0459459 C19.9591592,8.0661279 19.3652673,6.16874093 18.2752008,4.56701067 C18.1025738,4.3133546 17.7570031,4.2476676 17.503347,4.42029465 C17.2496909,4.59292169 17.1840039,4.93849243 17.356631,5.19214849 Z" id="路径" fill="#FFFFFF"></path>
                    <circle id="椭圆形" fill="#FFFFFF" cx="17.8312312" cy="4.86426426" r="1.53153153"></circle>
                    <circle id="椭圆形" fill="#FFFFFF" cx="2.6027027" cy="15.1510511" r="1.53153153"></circle>
                    <path d="M8.90897599,9.4931384 C8.35756855,9.06179548 8.03258258,8.40836624 8.03258258,7.69249249 C8.03258258,6.43192045 9.05594447,5.40855856 10.3165165,5.40855856 C11.453945,5.40855856 12.4130195,6.24371497 12.5741379,7.35412527 C12.6071816,7.58185911 12.8185836,7.73968663 13.0463175,7.70664289 C13.2740513,7.67359916 13.4318788,7.46219716 13.3988351,7.23446332 C13.1784236,5.71541109 11.8690602,4.57522523 10.3165165,4.57522523 C8.59570718,4.57522523 7.19924925,5.97168316 7.19924925,7.69249249 C7.19924925,8.66722317 7.64412939,9.56171622 8.39552851,10.1495042 C8.57677894,10.2912889 8.83865057,10.2592955 8.98043518,10.0780451 C9.12221978,9.89679464 9.09022642,9.634923 8.90897599,9.4931384 Z" id="路径" fill="#23CCD1"></path>
                    <path d="M10.3561239,11.7389717 C10.0443774,12.6522572 9.17798733,13.2794294 8.19279279,13.2794294 C6.93222075,13.2794294 5.90885886,12.2560675 5.90885886,10.9954955 C5.90885886,10.1963341 6.32155793,9.46998373 6.98972435,9.0512661 C7.18471837,8.92906985 7.24373262,8.67193633 7.12153637,8.47694231 C6.99934012,8.28194829 6.7422066,8.22293404 6.54721258,8.3451303 C5.63880243,8.91440066 5.07552553,9.90576801 5.07552553,10.9954955 C5.07552553,12.7163048 6.47198346,14.1127628 8.19279279,14.1127628 C9.53638376,14.1127628 10.7184764,13.2570562 11.144777,12.0081754 C11.2191156,11.7903949 11.1028329,11.5535856 10.8850523,11.479247 C10.6672718,11.4049084 10.4304624,11.5211912 10.3561239,11.7389717 Z" id="路径" fill="#23CCD1"></path>
                    <path d="M11.9537511,8.76290076 C12.1081256,8.72859532 12.2667524,8.71156156 12.4351351,8.71156156 C13.6957072,8.71156156 14.7190691,9.73492345 14.7190691,10.9954955 C14.7190691,12.2560675 13.6957072,13.2794294 12.4351351,13.2794294 C12.0601046,13.2794294 11.7015555,13.191711 11.3818792,13.0253042 C11.1777599,12.9190503 10.9261526,12.9983859 10.8198988,13.2025052 C10.7136449,13.4066245 10.7929805,13.6582317 10.9970998,13.7644856 C11.4356138,13.9927532 11.9261529,14.1127628 12.4351351,14.1127628 C14.1559445,14.1127628 15.5524024,12.7163048 15.5524024,10.9954955 C15.5524024,9.27468616 14.1559445,7.87822823 12.4351351,7.87822823 C12.2065959,7.87822823 11.9873621,7.90177011 11.7729757,7.94941155 C11.5483368,7.99933129 11.406699,8.221905 11.4566188,8.44654385 C11.5065385,8.67118269 11.7291122,8.81282051 11.9537511,8.76290076 Z" id="路径" fill="#23CCD1"></path>
                    <polygon id="路径" fill="#23CCD1" points="9.25465465 10.3165165 8.94324324 8.94834835 7.86096096 10.2042042"></polygon>
                    <polygon id="路径" fill="#23CCD1" points="10.6738739 8.69309309 12.0012012 9.14744745 11.506006 7.56486486"></polygon>
                    <polygon id="路径" fill="#23CCD1" points="11.0159159 10.8984985 9.94894895 11.8021021 11.5570571 12.1900901"></polygon>
                </g>
            </g>
        </g>
    </g>
</svg>