<?xml version="1.0" encoding="UTF-8"?>
<svg width="56px" height="56px" viewBox="0 0 56 56" version="1.1" xmlns="http://www.w3.org/2000/svg" xmlns:xlink="http://www.w3.org/1999/xlink">
    <title>29093AF8-2F1A-4CC3-8B84-545D5F4C8D3D</title>
    <g id="页面-1" stroke="none" stroke-width="1" fill="none" fill-rule="evenodd">
        <g id="linux-physical-machine" fill-rule="nonzero">
            <g id="背景区域" opacity="0" fill="#D8D8D8">
                <rect id="矩形" x="0" y="0" width="56" height="56"></rect>
            </g>
            <g id="图形" transform="translate(4.000000, 2.000000)">
                <polygon id="路径-7" fill="#ABBCC4" points="24 36.5 24 30 34.705521 23.1922161 48 15 48 21.5 34.8306997 29.5330494"></polygon>
                <polygon id="路径-7备份-2" fill="#416480" transform="translate(12.000000, 25.750000) scale(-1, 1) translate(-12.000000, -25.750000) " points="0 36.5 0 30 24 15 24 21.5"></polygon>
                <polygon id="路径-7备份-10" fill="#ABBCC4" points="24 52.5 24 38 48 23 48 37.5 34.8614641 45.51389"></polygon>
                <polygon id="路径-7备份-9" fill="#416480" transform="translate(12.000000, 37.750000) scale(-1, 1) translate(-12.000000, -37.750000) " points="-2.84217094e-13 52.5 -2.84217094e-13 38 24 23 24 37.5"></polygon>
                <g id="linux" transform="translate(11.864193, 37.610500) rotate(5.000000) translate(-11.864193, -37.610500) translate(6.864193, 31.110500)" fill="#23CCD1">
                    <path d="M3.72228398,9.08087382 C3.77695729,8.94714951 3.74804859,8.793788 3.64844356,8.68914479 C3.4997769,8.54390521 2.81222804,7.92587818 2.59810304,7.68740943 C2.49869679,7.57670109 2.36408203,7.52246156 2.30701953,7.39812823 C2.17583203,7.11201364 2.08389507,6.70372203 2.2502909,6.41049287 C2.28045757,6.35746162 2.29973872,6.38127393 2.27676997,6.49163851 C2.14610331,7.11732601 2.55516589,7.62836734 2.64522839,7.36625275 C2.70743672,7.185284 2.64976995,6.86129483 2.68301995,6.60398233 C2.74187412,6.14872191 2.85496522,5.63582852 3.03773605,5.5858806 C2.7558298,5.06592227 3.39737127,4.99097646 3.38991294,4.53461187 C3.38502752,4.23787229 3.65168377,4.89946604 3.91971502,5.03982021 C4.21902752,5.19645562 4.54805877,4.74462229 5.01497544,4.51533062 C5.14710044,4.45046604 5.31659002,4.37591396 5.30519419,4.32064312 C5.25035044,4.05382021 4.69175669,4.64976812 4.19297544,4.66991396 C3.96521502,4.67898687 3.88081919,4.62543479 3.79281919,4.54077854 C3.52693377,4.28491396 3.81990252,4.49844521 4.21516294,4.42723687 C4.39082961,4.39553896 4.44986086,4.36640354 4.63631919,4.29142437 C4.82277752,4.21636187 5.03579836,4.10530979 5.24675669,4.04824729 C5.39363169,4.00848687 5.38137127,3.89863271 5.32429836,3.86564312 C5.29140252,3.84662229 5.24273586,3.84842437 5.20409002,3.91491396 C5.11360044,4.07077854 4.68798586,4.16084104 4.55517336,4.20127854 C4.38456919,4.25320562 4.19589211,4.30179937 3.94534002,4.29159104 C3.56454836,4.27625771 3.65331919,4.10240354 3.38091294,3.94688271 C3.30105877,3.90128896 3.32256919,3.78159104 3.42872544,3.67584104 C3.48425669,3.62041396 3.63669419,3.58913271 3.71226711,3.46317437 C3.72289211,3.44551812 3.82023586,3.34407021 3.89657961,3.29163271 C3.92297544,3.27337229 3.92528794,2.81048687 3.68673586,2.80098687 C3.48409002,2.79284104 3.42642336,2.94930979 3.43498586,3.10517437 C3.44346502,3.26095562 3.52641294,3.38948687 3.58160044,3.38888271 C3.68793377,3.38776812 3.58837127,3.50473687 3.53010044,3.52358062 C3.44157961,3.55228896 3.32024627,3.17663271 3.33421502,2.99635146 C3.34878794,2.80852854 3.44698586,2.47579937 3.68578794,2.48230979 C3.90078794,2.48814312 4.05664211,2.75660146 4.04876711,3.21957021 C4.04739211,3.29805979 4.39742336,3.18212229 4.51421502,3.30498687 C4.59767336,3.39290354 4.22801711,2.48471604 5.05121502,2.42216396 C5.26817336,2.46354937 5.47640252,2.53535146 5.56302752,3.03182021 C5.53097544,3.08348687 5.61700669,3.42984104 5.48316294,3.47097646 C5.31985044,3.52118479 5.21899627,3.46368479 5.31342336,3.30876812 C5.37802752,3.15315354 5.31488169,2.75737229 4.98429836,2.78118479 C4.65363169,2.80493479 4.69749627,3.38914312 4.78815252,3.40070562 C4.87881919,3.41219521 5.10709002,3.57353896 5.26646502,3.60447646 C5.78959002,3.70583062 5.40527752,4.00445562 5.47313169,4.36579937 C5.54982961,4.77401812 5.81982961,4.66621604 6.06257961,5.74708062 C6.11322544,5.81288271 6.40140172,6.87146272 6.59728714,7.70185855 C6.7734538,8.44896272 6.55306864,9.32437137 6.97671448,9.27972554 C7.07216239,9.26970471 7.18252722,8.9110773 7.24319388,8.69943147 C7.40171472,8.1461398 7.07660044,6.49059104 6.83634002,6.04561187 C6.69641294,5.78623687 6.56462127,5.60954937 6.49504836,5.54888271 C6.77036086,5.71092437 7.20951666,7.22466102 7.29074583,7.60897352 C7.39743333,8.11366102 7.50266243,8.65943371 7.34122493,9.19318371 C7.43436035,9.23953788 7.66615179,9.3375589 7.66615179,9.44776723 C7.42468304,9.25007973 6.68546432,9.21503793 6.66643307,9.68760043 C6.5403914,9.6900796 6.44501619,9.70036113 6.36387036,9.7963403 C6.06671411,10.147309 6.36897938,10.5460996 6.33890646,10.9243183 C6.31234396,11.2571308 6.30355323,11.3341711 6.21602822,11.5052588 C6.1285032,11.6763466 6.16104109,11.5296367 6.21099183,11.2714759 C6.26094257,11.0133151 6.10475113,10.0120134 5.96815694,10.0239638 C5.83156275,10.0359143 5.81476171,10.3745499 5.40144845,10.4107101 C5.21310258,10.4271882 5.07340018,10.3796954 4.65725475,10.1746158 C4.24110931,9.96953618 4.08767297,9.75158227 3.88553756,9.52613435 C3.81647506,9.44901977 3.70182946,9.54713441 3.68820446,9.56761357 C3.66994405,9.59503024 3.75512131,9.64832196 3.81921506,9.76555113 C3.91296506,9.93674904 4.00206883,10.1965508 3.780048,10.3151341 C3.782548,9.71233201 3.59094416,9.67702994 3.39515249,9.30866536 C3.53953905,9.30377834 3.66761067,9.21459813 3.72228398,9.08087382 Z M3.24837093,9.29272824 C3.39549593,9.52331157 3.91389191,10.4943113 3.00510024,10.6203634 C2.70117316,10.6625196 2.34455117,10.4326491 1.87044701,10.3171491 C1.44440534,10.2133783 1.01176982,10.1519409 0.769707324,10.0841596 C0.623946907,10.0433784 0.563030503,9.99127387 0.550343003,9.93052387 C0.51675967,9.76934679 0.727373681,9.54330488 0.737998681,9.35256529 C0.748717431,9.16173196 0.668082596,9.06259699 0.602103429,8.90690949 C0.535957596,8.75086782 0.518811576,8.63399266 0.571686576,8.56707599 C0.612811576,8.51505516 0.696446738,8.49329461 0.832425904,8.50649252 C1.00482174,8.52336752 1.21296761,8.48824276 1.32487386,8.42029485 C1.51330094,8.30581568 1.60189513,8.07128435 1.51715554,7.78877393 C1.51715554,8.06528435 1.42607173,8.17000278 1.19780089,8.29637778 C0.982727976,8.41557569 0.650603489,8.31918 0.497988906,8.451055 C0.314363906,8.6097425 0.563540974,9.01941964 0.543145141,9.32008631 C0.527468057,9.55110714 0.285311299,9.81150329 0.393280049,10.0432116 C0.501925883,10.2763575 1.00851997,10.3018049 1.53678039,10.4116591 C2.28757206,10.5681174 2.59260019,10.8518841 2.93947519,10.8647382 C3.44553769,10.8834257 3.35289227,10.7156198 4.14755894,10.7086823 C4.37566025,10.6967508 4.44839956,10.8154299 4.82467901,10.9203328 C5.20095845,11.0252357 5.92598665,11.1359923 5.97753036,11.5261247 C6.03866525,11.9888523 6.00186116,12.0572198 6.29819516,12.4444313 C6.59452916,12.8316427 7.047377,12.7629497 7.32068369,12.7156475 C7.59399038,12.6683453 7.99904789,12.2415071 8.34555831,12.0676425 C8.77768331,11.8507675 9.79213084,11.4776941 9.05565168,11.0226004 C8.88401626,10.9165275 8.47820425,10.8044444 8.44401675,10.0287152 C8.29037092,10.1646214 8.3081203,10.8874755 8.73698488,11.030913 C9.21597446,11.1910692 9.5151935,11.4593505 8.62473517,11.7626005 C8.03520392,11.9633609 7.62334809,12.3896434 7.18720508,12.5293086 C6.75106208,12.6689738 6.20892508,11.9739565 6.39126317,11.5227582 C6.54676456,11.1379678 6.51802695,11.0395697 6.4107457,10.666403 C6.35839153,10.4840593 6.33225573,10.2502257 6.36807864,10.0862153 C6.43765156,9.76728817 6.61107861,9.67131916 6.78099528,9.97747541 C6.88768278,10.1696733 6.9250374,10.3943504 7.30694365,10.4126004 C7.90693323,10.441215 8.02569357,9.83531963 8.21746441,9.8077363 C8.34539149,9.78940297 8.44409989,9.09684823 8.34675614,8.5138274 C8.24239156,7.88959823 7.78635044,5.90783062 7.31335044,5.40801812 C6.92022544,4.99260146 6.67250669,4.62843479 6.51664211,4.10857021 C6.38570461,3.67182021 6.31253794,3.24672646 6.33952752,2.84030979 C6.37456919,2.31376812 6.08126711,1.58096604 5.61435044,1.23616396 C5.32207961,1.02032021 4.86382961,0.904726457 4.44892336,0.909268124 C4.21627752,0.911757707 3.99736086,0.945601457 3.82905877,1.03651812 C3.13662127,1.41078896 3.03989211,1.94547646 3.05024627,2.55574729 C3.05993377,3.12899729 3.07955877,3.78313271 3.14493377,4.40539312 C3.06747544,4.69115354 2.63535062,4.90072414 2.37717353,5.23035955 C2.03005895,5.57173455 2.15784247,5.87040942 1.93316539,6.44690942 C1.81337372,6.75419067 1.611582,6.89300279 1.59462366,7.28810695 C1.58990491,7.3986382 1.59367629,7.68449266 1.69975962,7.60275307 C2.10582212,7.29015932 2.48112093,8.08993657 3.24837093,9.29272824 Z M5.15943377,1.87667437 C5.21667336,1.92225771 5.24940252,1.81292437 5.36447544,1.77196604 C5.39421502,1.76134104 5.53251711,1.77642437 5.55796502,1.71095562 C5.56910044,1.68241396 5.48667336,1.64986187 5.43756919,1.60308062 C5.38847544,1.55646604 5.34031919,1.51482021 5.29413169,1.51782021 C5.17494419,1.52536187 5.23354836,1.65389312 5.21418377,1.71164312 C5.19232961,1.77676812 5.10227752,1.83100771 5.15943377,1.87667437 Z M3.87575669,3.47534104 C3.93985044,3.47311187 3.90044419,3.36720562 4.01568377,3.35502854 C3.82589211,3.34090354 3.81287127,3.47757021 3.87575669,3.47534104 Z M3.69007961,3.00594521 C3.71252752,3.00105979 3.74440252,3.03911187 3.73454836,3.09248687 C3.72075669,3.16652854 3.72674627,3.21296604 3.77834002,3.21321604 C3.78681919,3.21321604 3.79598586,3.21168479 3.79924627,3.19240354 C3.82400669,3.04476812 3.74697544,2.93645562 3.71544419,2.92840354 C3.64286086,2.90997646 3.65169419,3.01409104 3.69007961,3.00594521 Z M5.17666294,3.13045562 C5.17760044,3.13875771 5.23955877,3.11760146 5.24016294,3.09797646 C5.24401711,2.95360146 5.12027752,2.88572646 5.08789211,2.88864312 C5.01334002,2.89541396 5.03434002,2.93234104 5.07203794,2.94347646 C5.12019419,2.95778896 5.16654836,3.04082021 5.17666294,3.13045562 Z M4.36357961,3.37480518 C4.53623586,3.28882528 4.59665252,3.42210426 4.53701711,3.44357111 C4.47625669,3.46542049 4.47574627,3.34352749 4.36357961,3.37480518 Z" id="形状"></path>
                </g>
                <path d="M20,29.75 L22,31 L22,33 L20,31.75 L20,29.75 Z" id="形状结合" fill="#FFFFFF"></path>
                <polygon id="路径-8" fill="#EEF3F7" points="24 30 48 15 24 0 -2.80693742e-14 15"></polygon>
            </g>
        </g>
    </g>
</svg>