<?xml version="1.0" encoding="UTF-8"?>
<svg width="54px" height="54px" viewBox="0 0 54 54" version="1.1" xmlns="http://www.w3.org/2000/svg" xmlns:xlink="http://www.w3.org/1999/xlink">
    <title>B5D30333-8325-4780-ACC4-5DC3B12A381D</title>
    <g id="页面-1" stroke="none" stroke-width="1" fill="none" fill-rule="evenodd">
        <g id="linux-virtual-machine" fill-rule="nonzero">
            <g id="背景区域" opacity="0" fill="#D8D8D8">
                <rect id="矩形" x="0" y="0" width="54" height="54"></rect>
            </g>
            <g id="图形" transform="translate(9.000000, 1.000000)">
                <polygon id="形状结合" fill="#ABBCC4" points="36 9 36 39 25.8614641 45.51389 15 52.5 15 22"></polygon>
                <polygon id="形状结合" fill="#416480" points="0 12.5 15 22 15 52.5 0 43"></polygon>
                <g id="linux备份-2" transform="translate(6.911576, 39.025247) rotate(5.000000) translate(-6.911576, -39.025247) translate(1.911576, 33.025247)" fill="#23CCD1">
                    <path d="M3.63893354,8.17183487 C3.69360685,8.03811056 3.66469815,7.88474904 3.56509312,7.78010584 C3.41642645,7.63486625 2.7288776,7.01683922 2.5147526,6.77837047 C2.41534635,6.66766214 2.28073159,6.6134226 2.22366909,6.48908927 C2.09248159,6.20297469 2.00054463,5.79468308 2.16694046,5.50145391 C2.19710713,5.44842266 2.21638828,5.47223498 2.19341953,5.58259956 C2.06275286,6.20828706 2.47181545,6.71932838 2.56187795,6.4572138 C2.62408628,6.27624505 2.56641951,5.95225588 2.59966951,5.69494338 C2.65852368,5.23968296 2.77161478,4.72678956 2.95438561,4.67684165 C2.67247936,4.15688331 3.31402083,4.0819375 3.3065625,3.62557292 C3.30167708,3.32883333 3.56833333,3.99042708 3.83636458,4.13078125 C4.13567708,4.28741667 4.46470833,3.83558333 4.931625,3.60629167 C5.06375,3.54142708 5.23323958,3.466875 5.22184375,3.41160417 C5.167,3.14478125 4.60840625,3.74072917 4.109625,3.760875 C3.88186458,3.76994792 3.79746875,3.71639583 3.70946875,3.63173958 C3.44358333,3.375875 3.73655208,3.58940625 4.1318125,3.51819792 C4.30747917,3.4865 4.36651042,3.45736458 4.55296875,3.38238542 C4.73942708,3.30732292 4.95244792,3.19627083 5.16340625,3.13920833 C5.31028125,3.09944792 5.29802083,2.98959375 5.24094792,2.95660417 C5.20805208,2.93758333 5.15938542,2.93938542 5.12073958,3.005875 C5.03025,3.16173958 4.60463542,3.25180208 4.47182292,3.29223958 C4.30121875,3.34416667 4.11254167,3.39276042 3.86198958,3.38255208 C3.48119792,3.36721875 3.56996875,3.19336458 3.2975625,3.03784375 C3.21770833,2.99225 3.23921875,2.87255208 3.345375,2.76680208 C3.40090625,2.711375 3.55334375,2.68009375 3.62891667,2.55413542 C3.63954167,2.53647917 3.73688542,2.43503125 3.81322917,2.38259375 C3.839625,2.36433333 3.8419375,1.90144792 3.60338542,1.89194792 C3.40073958,1.88380208 3.34307292,2.04027083 3.35163542,2.19613542 C3.36011458,2.35191667 3.4430625,2.48044792 3.49825,2.47984375 C3.60458333,2.47872917 3.50502083,2.59569792 3.44675,2.61454167 C3.35822917,2.64325 3.23689583,2.26759375 3.25086458,2.0873125 C3.2654375,1.89948958 3.36363542,1.56676042 3.6024375,1.57327083 C3.8174375,1.57910417 3.97329167,1.8475625 3.96541667,2.31053125 C3.96404167,2.38902083 4.31407292,2.27308333 4.43086458,2.39594792 C4.51432292,2.48386458 4.14466667,1.57567708 4.96786458,1.513125 C5.18482292,1.55451042 5.39305208,1.6263125 5.47967708,2.12278125 C5.447625,2.17444792 5.53365625,2.52080208 5.3998125,2.5619375 C5.2365,2.61214583 5.13564583,2.55464583 5.23007292,2.39972917 C5.29467708,2.24411458 5.23153125,1.84833333 4.90094792,1.87214583 C4.57028125,1.89589583 4.61414583,2.48010417 4.70480208,2.49166667 C4.79546875,2.50315625 5.02373958,2.6645 5.18311458,2.6954375 C5.70623958,2.79679167 5.32192708,3.09541667 5.38978125,3.45676042 C5.46647917,3.86497917 5.73647917,3.75717708 5.97922917,4.83804167 C6.029875,4.90384375 6.31805128,5.96242376 6.5139367,6.7928196 C6.69010336,7.53992376 6.4697182,8.41533242 6.89336403,8.37068658 C6.98881195,8.36066575 7.09917677,8.00203835 7.15984344,7.79039251 C7.31836427,7.23710085 6.99325,5.58155208 6.75298958,5.13657292 C6.6130625,4.87719792 6.48127083,4.70051042 6.41169792,4.63984375 C6.68701042,4.80188542 7.12616622,6.31562207 7.20739539,6.69993457 C7.31408289,7.20462207 7.41931199,7.75039475 7.25787449,8.28414475 C7.35100991,8.33049892 7.58280135,8.42851995 7.58280135,8.53872828 C7.3413326,8.34104078 6.60211388,8.30599898 6.58308263,8.77856148 C6.45704096,8.78104065 6.36166575,8.79132218 6.28051992,8.88730134 C5.98336367,9.23827009 6.28562894,9.63706061 6.25555602,10.0152794 C6.22899352,10.3480919 6.22020279,10.4251321 6.13267778,10.5962199 C6.04515276,10.7673076 6.07769065,10.6205977 6.12764139,10.3624369 C6.17759213,10.1042761 6.02140069,9.10297444 5.8848065,9.11492488 C5.74821231,9.12687533 5.73141127,9.46551091 5.31809801,9.50167114 C5.12975213,9.51814927 4.99004974,9.47065641 4.57390431,9.26557681 C4.15775887,9.06049722 4.00432253,8.84254331 3.80218712,8.6170954 C3.73312462,8.53998081 3.61847902,8.63809545 3.60485402,8.65857462 C3.58659361,8.68599128 3.67177087,8.739283 3.73586462,8.85651217 C3.82961462,9.02771009 3.91871839,9.2875118 3.69669755,9.40609513 C3.69919755,8.80329305 3.50759371,8.76799099 3.31180205,8.3996264 C3.45618861,8.39473938 3.58426023,8.30555918 3.63893354,8.17183487 Z M3.16502049,8.38368928 C3.31214549,8.61427261 3.83054146,9.58527236 2.9217498,9.71132444 C2.61782271,9.75348069 2.26120073,9.52361016 1.78709657,9.40811016 C1.3610549,9.30433933 0.928419383,9.24290193 0.686356883,9.17512068 C0.540596466,9.13433943 0.479680063,9.08223491 0.466992563,9.02148491 C0.433409229,8.86030783 0.64402324,8.63426592 0.65464824,8.44352634 C0.66536699,8.252693 0.584732155,8.15355803 0.518752988,7.99787053 C0.452607155,7.84182887 0.435461135,7.7249537 0.488336135,7.65803704 C0.529461135,7.6060162 0.613096297,7.58425565 0.749075463,7.59745357 C0.921471297,7.61432857 1.12961717,7.57920381 1.24152342,7.51125589 C1.4299505,7.39677672 1.51854469,7.16224539 1.4338051,6.87973498 C1.4338051,7.15624539 1.34272129,7.26096382 1.11445045,7.38733882 C0.899377536,7.50653674 0.567253048,7.41014105 0.414638465,7.54201605 C0.231013465,7.70070355 0.480190533,8.11038068 0.4597947,8.41104735 C0.444117617,8.64206818 0.201960858,8.90246433 0.309929608,9.13417266 C0.418575442,9.3673185 0.925169532,9.39276593 1.45342995,9.5026201 C2.20422162,9.65907843 2.50924975,9.94284513 2.85612475,9.95569929 C3.36218725,9.97438679 3.26954183,9.80658085 4.0642085,9.79964335 C4.29230981,9.78771181 4.36504912,9.9063909 4.74132857,10.0112938 C5.11760801,10.1161968 5.84263621,10.2269533 5.89417992,10.6170857 C5.95531481,11.0798133 5.91851071,11.1481809 6.21484472,11.5353923 C6.51117872,11.9226037 6.96402656,11.8539107 7.23733325,11.8066085 C7.51063994,11.7593063 7.91569745,11.3324681 8.26220787,11.1586035 C8.69433287,10.9417285 9.7087804,10.5686552 8.97230124,10.1135614 C8.80066582,10.0074885 8.39485381,9.8954054 8.36066631,9.11967623 C8.20702048,9.25558248 8.22476985,9.97843654 8.65363444,10.121874 C9.13262402,10.2820303 9.43184306,10.5503115 8.54138473,10.8535615 C7.95185348,11.054322 7.53999765,11.4806044 7.10385464,11.6202697 C6.66771164,11.7599349 6.12557464,11.0649175 6.30791273,10.6137193 C6.46341412,10.2289288 6.43467651,10.1305307 6.32739526,9.75736407 C6.27504109,9.57502032 6.24890528,9.34118671 6.2847282,9.1771763 C6.35430112,8.85824921 6.52772817,8.7622802 6.69764484,9.06843645 C6.80433234,9.26063437 6.84168696,9.48531148 7.22359321,9.50356148 C7.82358279,9.53217606 7.94234313,8.92628068 8.13411397,8.89869734 C8.26204105,8.88036401 8.36074945,8.18780928 8.2634057,7.60478845 C8.15904112,6.98055928 7.703,4.99879167 7.23,4.49897917 C6.836875,4.0835625 6.58915625,3.71939584 6.43329167,3.19953125 C6.30235417,2.76278125 6.2291875,2.3376875 6.25617708,1.93127084 C6.29121875,1.40472917 5.99791667,0.671927085 5.531,0.327125002 C5.23872917,0.111281252 4.78047917,-0.00431249832 4.36557292,0.000229168345 C4.13292708,0.00271875168 3.91401042,0.0365625017 3.74570833,0.127479168 C3.05327083,0.501750002 2.95654167,1.0364375 2.96689583,1.64670834 C2.97658333,2.21995834 2.99620833,2.87409375 3.06158333,3.49635417 C2.984125,3.78211459 2.55200018,3.99168518 2.29382309,4.3213206 C1.94670851,4.6626956 2.07449203,4.96137046 1.84981495,5.53787046 C1.73002328,5.84515171 1.52823156,5.98396383 1.51127322,6.379068 C1.50655447,6.48959925 1.51032585,6.7754537 1.61640918,6.69371412 C2.02247168,6.38112037 2.39777049,7.18089761 3.16502049,8.38368928 Z M5.07608333,0.967635418 C5.13332292,1.01321875 5.16605208,0.903885418 5.281125,0.862927085 C5.31086458,0.852302085 5.44916667,0.867385418 5.47461458,0.801916668 C5.48575,0.773375002 5.40332292,0.740822918 5.35421875,0.694041668 C5.305125,0.647427085 5.25696875,0.605781252 5.21078125,0.608781252 C5.09159375,0.616322918 5.15019792,0.744854168 5.13083333,0.802604168 C5.10897917,0.867729168 5.01892708,0.921968752 5.07608333,0.967635418 Z M3.79240625,2.56630209 C3.8565,2.56407292 3.81709375,2.45816667 3.93233333,2.44598959 C3.74254167,2.43186459 3.72952083,2.56853125 3.79240625,2.56630209 Z M3.60672917,2.09690625 C3.62917708,2.09202084 3.66105208,2.13007292 3.65119792,2.18344792 C3.63740625,2.25748959 3.64339583,2.30392709 3.69498958,2.30417709 C3.70346875,2.30417709 3.71263542,2.30264584 3.71589583,2.28336459 C3.74065625,2.13572917 3.663625,2.02741667 3.63209375,2.01936459 C3.55951042,2.0009375 3.56834375,2.10505209 3.60672917,2.09690625 Z M5.0933125,2.22141667 C5.09425,2.22971875 5.15620833,2.2085625 5.1568125,2.1889375 C5.16066667,2.0445625 5.03692708,1.9766875 5.00454167,1.97960417 C4.92998958,1.986375 4.95098958,2.02330209 4.9886875,2.0344375 C5.03684375,2.04875 5.08319792,2.13178125 5.0933125,2.22141667 Z M4.28022917,2.46576623 C4.45288542,2.37978632 4.51330208,2.5130653 4.45366667,2.53453215 C4.39290625,2.55638153 4.39239583,2.43448853 4.28022917,2.46576623 Z" id="形状"></path>
                </g>
                <g id="编组-7" transform="translate(0.000000, 17.000000)">
                    <g id="编组-4" transform="translate(9.084996, 9.000000) rotate(28.000000) translate(-9.084996, -9.000000) translate(3.084996, 3.000000)">
                        <path d="M9.2876712,6.37534246 C9.1561644,6.37534246 9.02465752,6.39178082 8.89315065,6.40821918 C8.90958907,6.3260274 8.90958907,6.24383562 8.90958907,6.16164383 C8.90958907,5.22465754 8.23561642,4.46849315 7.41369863,4.46849315 C6.9369863,4.46849315 6.50958904,4.73150685 6.23013699,5.1260274 C5.7369863,4.43561644 4.98082192,3.97534246 4.14246575,3.97534246 C2.69589041,3.97534246 1.51232877,5.2739726 1.47945205,6.90136986 C0.641095891,7.16438356 -1.36424205e-12,8.03561644 -1.36424205e-12,9.07123285 C-1.36424205e-12,10.2876712 0.87123288,11.2739726 1.95616438,11.2739726 L9.30410962,11.2739726 C10.5041096,11.2739726 11.4739726,10.1726027 11.4739726,8.82465752 C11.4739726,7.47671233 10.4876712,6.37534246 9.2876712,6.37534246 Z" id="形状备份" fill="#EFF3F8"></path>
                        <g id="编组-5" transform="translate(5.636918, 0.498188)" fill="#23CCD1">
                            <path d="M2.55255794,4.31560836 L2.99874194,4.26864163 C2.98700021,3.75200758 2.78739162,3.24711521 2.39991606,2.85963967 C2.00069888,2.46042245 1.48406481,2.26081384 0.955689063,2.26081384 L0.908722348,2.70699779 C1.33142294,2.69525611 1.75412353,2.85963967 2.08289063,3.17666511 C2.39991606,3.49369055 2.55255794,3.90464946 2.55255794,4.31560836 L2.55255794,4.31560836 Z" id="路径备份-2" transform="translate(1.953732, 3.288211) rotate(-32.000000) translate(-1.953732, -3.288211) "></path>
                            <path d="M3.13307241,3.55577299 L3.59099804,3.49706458 C3.555773,2.7925636 3.26223093,2.0998043 2.7221135,1.57142857 C2.18199607,1.03131115 1.48923677,0.749510763 0.772994107,0.714285714 L0.714285714,1.17221135 C1.32485321,1.19569472 1.92367904,1.44227006 2.39334639,1.90019569 C2.8630137,2.35812133 3.10958905,2.95694716 3.13307241,3.55577299 Z" id="路径备份-3" transform="translate(2.152642, 2.135029) rotate(-33.000000) translate(-2.152642, -2.135029) "></path>
                        </g>
                    </g>
                </g>
                <polygon id="形状结合" fill="#EEF3F7" points="20.5 0 36 9 15 22 0 12.5"></polygon>
            </g>
        </g>
    </g>
</svg>