<?xml version="1.0" encoding="UTF-8"?>
<svg width="42px" height="42px" viewBox="0 0 42 42" version="1.1" xmlns="http://www.w3.org/2000/svg" xmlns:xlink="http://www.w3.org/1999/xlink">
    <title>log-service</title>
    <g id="页面-1" stroke="none" stroke-width="1" fill="none" fill-rule="evenodd">
        <g id="log-service">
            <g id="背景区域" opacity="0" fill="#D8D8D8" fill-rule="nonzero">
                <rect id="矩形" x="0" y="0" width="42" height="42"></rect>
            </g>
            <g id="底块" transform="translate(0.909091, 0.424242)">
                <polygon id="路径-7备份-2" fill="#416480" fill-rule="nonzero" transform="translate(17.090909, 22.575758) scale(-1, 1) translate(-17.090909, -22.575758) " points="0.0909089 39.5757576 0.0909089 5.57575758 34.0909089 5.57575758 34.0909089 39.5757576"></polygon>
                <g id="编组" transform="translate(7.090909, 12.575758)">
                    <rect id="矩形备份-22" opacity="0.446149554" x="0" y="0" width="20" height="20"></rect>
                    <path d="M16.972973,15.6216216 L3.08108108,15.6216216 C1.56756757,15.6216216 0.324324324,14.3783784 0.324324324,12.8648649 L0.324324324,17.027027 C0.324324324,18.5405405 1.56756757,19.7837838 3.08108108,19.7837838 L16.972973,19.7837838 C18.4864865,19.7837838 19.7297297,18.5405405 19.7297297,17.027027 L19.7297297,12.8648649 C19.7837838,14.3783784 18.5405405,15.6216216 16.972973,15.6216216 Z" id="路径" fill="#EFF3F8" fill-rule="nonzero"></path>
                    <path d="M16.972973,0.324324324 L3.08108108,0.324324324 C1.56756757,0.324324324 0.324324324,1.56756757 0.324324324,3.08108108 L0.324324324,4.48648649 L2,4.48648649 C2.16216216,4.05405405 2.54054054,3.78378378 3.13513514,3.78378378 C3.94594595,3.78378378 4.54054054,4.32432432 4.54054054,5.18918919 C4.54054054,6.05405405 4,6.59459459 3.13513514,6.59459459 C2.59459459,6.59459459 2.16216216,6.32432432 2,5.89189189 L0.324324324,5.89189189 L0.324324324,8.64864865 L2,8.64864865 C2.16216216,8.21621622 2.54054054,7.94594595 3.13513514,7.94594595 C3.94594595,7.94594595 4.54054054,8.48648649 4.54054054,9.35135135 C4.54054054,10.2162162 4.07527218,10.7423466 3.21040732,10.7423466 C2.66986678,10.7423466 2.16216216,10.4864865 2,10.0540541 L0.324324324,10.0540541 L0.324324324,11.4594595 C0.324324324,12.972973 1.56756757,14.2162162 3.08108108,14.2162162 L16.972973,14.2162162 C18.4864865,14.2162162 19.7297297,12.972973 19.7297297,11.4594595 L19.7297297,3.13513514 C19.7837838,1.56756757 18.5405405,0.324324324 16.972973,0.324324324 Z M13.5135135,10.0540541 L7.94594595,10.0540541 C7.56756757,10.0540541 7.24324324,9.72972973 7.24324324,9.35135135 C7.24324324,8.97297297 7.56756757,8.64864865 7.94594595,8.64864865 L13.5135135,8.64864865 C13.8918919,8.64864865 14.2162162,8.97297297 14.2162162,9.35135135 C14.2162162,9.72972973 13.8918919,10.0540541 13.5135135,10.0540541 Z M15.6216216,7.2972973 L8,7.2972973 C7.62162162,7.2972973 7.2972973,6.97297297 7.2972973,6.59459459 C7.2972973,6.21621622 7.62162162,5.89189189 8,5.89189189 L14.972973,5.89189189 C15.3513514,5.89189189 15.6756757,6.21621622 15.6756757,6.59459459 L15.6756757,7.2972973 L15.6216216,7.2972973 Z M15.6216216,4.48648649 L8,4.48648649 C7.62162162,4.48648649 7.2972973,4.16216216 7.2972973,3.78378378 C7.2972973,3.40540541 7.62162162,3.08108108 8,3.08108108 L14.972973,3.08108108 C15.3513514,3.08108108 15.6756757,3.40540541 15.6756757,3.78378378 L15.6756757,4.48648649 L15.6216216,4.48648649 Z" id="形状" fill="#23CCD1" fill-rule="nonzero"></path>
                </g>
                <polygon id="路径-7备份-6" fill="#EEF3F7" fill-rule="nonzero" transform="translate(20.090909, 3.075758) rotate(180.000000) translate(-20.090909, -3.075758) " points="0.0909089 5.57575842 6.0909089 0.57575842 40.0909089 0.57575842 32.2909089 5.57575842"></polygon>
                <polygon id="路径-7备份-5" fill="#AFC0C8" fill-rule="nonzero" transform="translate(37.090909, 20.075758) scale(-1, 1) translate(-37.090909, -20.075758) " points="34.0909089 33.5757576 34.0909089 0.575757576 40.0909089 5.57575758 40.0909089 39.5757576"></polygon>
                <polygon id="路径-7备份-4" stroke="#FFFFFF" opacity="0.25" transform="translate(17.090909, 22.575758) scale(-1, 1) translate(-17.090909, -22.575758) " points="31.5909089 8.07575758 31.5909089 37.0757576 2.5909089 37.0757576 2.5909089 8.07575758"></polygon>
                <polygon id="路径-7备份-4" stroke="#32526B" transform="translate(17.090909, 22.575758) scale(-1, 1) translate(-17.090909, -22.575758) " points="30.5909089 9.07575758 30.5909089 36.0757576 3.5909089 36.0757576 3.5909089 9.07575758"></polygon>
            </g>
        </g>
    </g>
</svg>