<?xml version="1.0" encoding="UTF-8"?>
<svg width="42px" height="42px" viewBox="0 0 42 42" version="1.1" xmlns="http://www.w3.org/2000/svg" xmlns:xlink="http://www.w3.org/1999/xlink">
    <title>log-analysis</title>
    <g id="页面-1" stroke="none" stroke-width="1" fill="none" fill-rule="evenodd">
        <g id="log-analysis">
            <g id="背景区域" opacity="0" fill="#D8D8D8" fill-rule="nonzero">
                <rect id="矩形" x="0" y="0" width="42" height="42"></rect>
            </g>
            <g id="底块" transform="translate(0.909091, 0.424242)">
                <polygon id="路径-7备份-2" fill="#416480" fill-rule="nonzero" transform="translate(17.090909, 22.575758) scale(-1, 1) translate(-17.090909, -22.575758) " points="0.0909089 39.5757576 0.0909089 5.57575758 34.0909089 5.57575758 34.0909089 39.5757576"></polygon>
                <polygon id="路径-7备份-6" fill="#EEF3F7" fill-rule="nonzero" transform="translate(20.090909, 3.075758) rotate(180.000000) translate(-20.090909, -3.075758) " points="0.0909089 5.57575842 6.0909089 0.57575842 40.0909089 0.57575842 32.2909089 5.57575842"></polygon>
                <polygon id="路径-7备份-5" fill="#AFC0C8" fill-rule="nonzero" transform="translate(37.090909, 20.075758) scale(-1, 1) translate(-37.090909, -20.075758) " points="34.0909089 33.5757576 34.0909089 0.575757576 40.0909089 5.57575758 40.0909089 39.5757576"></polygon>
                <polygon id="路径-7备份-4" stroke="#FFFFFF" opacity="0.25" transform="translate(17.090909, 22.575758) scale(-1, 1) translate(-17.090909, -22.575758) " points="31.5909089 8.07575758 31.5909089 37.0757576 2.5909089 37.0757576 2.5909089 8.07575758"></polygon>
                <polygon id="路径-7备份-4" stroke="#32526B" transform="translate(17.090909, 22.575758) scale(-1, 1) translate(-17.090909, -22.575758) " points="30.5909089 9.07575758 30.5909089 36.0757576 3.5909089 36.0757576 3.5909089 9.07575758"></polygon>
            </g>
            <g id="Icon/日志分析" transform="translate(8.000000, 13.000000)">
                <rect id="矩形" fill="#D8D8D8" fill-rule="nonzero" opacity="0" x="0" y="3.55271368e-15" width="20" height="20"></rect>
                <g id="服务节点">
                    <rect id="矩形备份-3" fill="#D8D8D8" fill-rule="nonzero" opacity="0" x="0" y="3.55271368e-15" width="20" height="20"></rect>
                    <g id="日志分析" transform="translate(1.000000, 1.000000)">
                        <rect id="矩形备份-22" opacity="0.446149554" x="0" y="0" width="18" height="18"></rect>
                        <g id="编组" transform="translate(0.200000, 1.000000)" fill-rule="nonzero">
                            <g id="形状">
                                <path d="M13.8674419,9.76930233 C14.2813953,9.76930233 14.6953488,9.81069767 15.1093023,9.89348837 L15.1093023,1.07627907 C15.1093023,0.496744186 14.6125581,0 14.0330233,0 C14.0330233,0 14.0330233,0 14.0330233,0 L1.24186047,0 C0.662325581,0 0.165581395,0.496744186 0.165581395,1.07627907 L0.165581395,14.9023256 C0.165581395,15.4818605 0.662325581,15.9786047 1.24186047,15.9786047 L6.70604651,15.9786047 C7.24418605,12.46 10.2246512,9.76930233 13.8674419,9.76930233 Z M6.33348837,2.81488372 L11.6734884,2.81488372 C12.0874419,2.81488372 12.46,3.14604651 12.46,3.60139535 C12.46,4.01534884 12.1288372,4.38790698 11.6734884,4.38790698 C11.6734884,4.38790698 11.6734884,4.38790698 11.6734884,4.38790698 L6.29209302,4.38790698 C5.87813953,4.38790698 5.54697674,4.05674419 5.5055814,3.60139535 C5.54697674,3.14604651 5.87813953,2.81488372 6.33348837,2.81488372 Z M4.22232558,7.69953488 C4.05674419,7.86511628 3.84976744,7.94790698 3.6427907,7.94790698 C3.22883721,7.94790698 2.89767442,7.61674419 2.85627907,7.16139535 C2.85627907,6.70604651 3.22883721,6.37488372 3.6427907,6.37488372 C4.09813953,6.37488372 4.42930233,6.74744186 4.42930233,7.16139535 C4.47069767,7.36837209 4.38790698,7.57534884 4.22232558,7.69953488 Z M4.22232558,4.09813953 C4.05674419,4.26372093 3.84976744,4.34651163 3.6427907,4.34651163 C3.22883721,4.34651163 2.89767442,4.01534884 2.85627907,3.56 C2.85627907,3.10465116 3.22883721,2.77348837 3.6427907,2.77348837 C4.09813953,2.77348837 4.42930233,3.14604651 4.42930233,3.56 C4.47069767,3.76697674 4.38790698,3.97395349 4.22232558,4.09813953 Z M5.5055814,7.2027907 C5.5055814,6.78883721 5.87813953,6.45767442 6.29209302,6.41627907 L11.632093,6.41627907 C12.0460465,6.41627907 12.4186047,6.74744186 12.4186047,7.2027907 C12.4186047,7.61674419 12.0874419,7.98930233 11.632093,7.98930233 C11.632093,7.98930233 11.632093,7.98930233 11.632093,7.98930233 L6.25069767,7.98930233 C5.87813953,7.94790698 5.54697674,7.61674419 5.5055814,7.2027907 Z" fill="#EFF3F8"></path>
                                <path d="M13.3293023,11.4251163 C11.5906977,11.4251163 10.0590698,12.4186047 9.18976744,13.8674419 C10.0590698,15.3162791 11.5906977,16.3097674 13.3293023,16.3097674 C15.067907,16.3097674 16.5995349,15.3162791 17.4688372,13.8674419 C16.5995349,12.3772093 15.067907,11.4251163 13.3293023,11.4251163 L13.3293023,11.4251163 Z M13.3293023,15.5232558 C12.4186047,15.5232558 11.7148837,14.7781395 11.7148837,13.8260465 C11.7148837,12.9153488 12.46,12.1288372 13.3293023,12.1288372 C14.1986047,12.1288372 14.9437209,12.8739535 14.9437209,13.8260465 C14.9437209,14.7781395 14.24,15.5232558 13.3293023,15.5232558 L13.3293023,15.5232558 Z M13.3293023,14.9851163 C13.9088372,14.9851163 14.4055814,14.4883721 14.4055814,13.8674419 C14.4055814,13.2465116 13.9088372,12.7497674 13.3293023,12.7497674 C12.7497674,12.7497674 12.2530233,13.2465116 12.2530233,13.8674419 C12.2530233,14.4469767 12.7497674,14.9851163 13.3293023,14.9851163 L13.3293023,14.9851163 Z" fill="#23CCD1"></path>
                            </g>
                        </g>
                    </g>
                </g>
            </g>
        </g>
    </g>
</svg>