<?xml version="1.0" encoding="UTF-8"?>
<svg width="42px" height="42px" viewBox="0 0 42 42" version="1.1" xmlns="http://www.w3.org/2000/svg" xmlns:xlink="http://www.w3.org/1999/xlink">
    <title>memcache</title>
    <g id="页面-1" stroke="none" stroke-width="1" fill="none" fill-rule="evenodd">
        <g id="memcache">
            <g id="背景区域" opacity="0" fill="#D8D8D8" fill-rule="nonzero">
                <rect id="矩形" x="0" y="0" width="42" height="42"></rect>
            </g>
            <g id="底块" transform="translate(1.000000, 1.000000)">
                <polygon id="路径-7备份-2" fill="#416480" fill-rule="nonzero" transform="translate(17.000000, 22.000000) scale(-1, 1) translate(-17.000000, -22.000000) " points="0 39 0 5 34 5 34 39"></polygon>
                <polygon id="路径-7备份-6" fill="#EEF3F7" fill-rule="nonzero" transform="translate(20.000000, 2.500000) rotate(180.000000) translate(-20.000000, -2.500000) " points="0 5 6 0 40 0 32.2 5"></polygon>
                <polygon id="路径-7备份-5" fill="#AFC0C8" fill-rule="nonzero" transform="translate(37.000000, 19.500000) scale(-1, 1) translate(-37.000000, -19.500000) " points="34 33 34 -1.69135539e-17 40 5 40 39"></polygon>
                <polygon id="路径-7备份-4" stroke="#FFFFFF" opacity="0.25" transform="translate(17.000000, 22.000000) scale(-1, 1) translate(-17.000000, -22.000000) " points="31.5 7.5 31.5 36.5 2.5 36.5 2.5 7.5"></polygon>
                <polygon id="路径-7备份-4" stroke="#32526B" transform="translate(17.000000, 22.000000) scale(-1, 1) translate(-17.000000, -22.000000) " points="30.5 8.5 30.5 35.5 3.5 35.5 3.5 8.5"></polygon>
            </g>
            <g id="Memcached" transform="translate(8.000000, 13.000000)">
                <rect id="矩形" x="0" y="0" width="20" height="20"></rect>
                <g id="形状" transform="translate(3.000000, 3.000000)" fill-rule="nonzero">
                    <path d="M13.9598582,7.4086428 C13.9202869,6.32598288 13.8807157,5.24332297 13.7916802,4.16066306 C13.7224305,3.35358931 13.6235022,2.54651556 13.5443597,1.7394418 C13.5047884,1.36543202 13.4514253,0.897562558 13.4058601,0.617412442 C13.360295,0.337262326 13.3353227,0.176817628 13.1621226,0.0852028795 C12.9889225,-0.00641186912 12.743041,0.0170283094 12.574863,0.0170283094 C12.3967922,0.0170283094 12.2187214,0.0170283094 12.0406505,0.0170283094 C11.6449376,0.0170283094 11.2492247,0.0170283094 10.8535118,0.0170283094 C10.6061912,0.0170283094 10.204936,-0.0149269567 10.0360938,0.0852028795 C9.86725172,0.185332716 9.93794163,0.13348082 9.60158564,0.497648245 C9.26522965,0.861815669 9.01344664,1.25716603 8.73644759,1.6607029 C7.99448585,2.74336281 7.64812016,3.28673133 7.54919192,3.44420914 C7.40079958,3.70995293 7.1191171,4.03869982 6.99531071,4.03869982 C6.87150432,4.03869982 6.85681119,3.99334289 6.6490619,3.7275991 C6.3918485,3.40280112 6.29292026,3.22563859 6.29292026,3.22563859 C5.59052982,2.1921905 4.93870548,1.07880494 4.02856575,0.202834652 C3.89995904,0.0748839352 3.82960729,0.0367130351 3.64164365,0.0170283094 C3.21625225,-0.0124987791 2.78096803,0.0170283094 2.35557663,0.0170283094 C1.999435,0.0170283094 1.64329336,0.0170283094 1.27725891,0.0170283094 C1.11897373,0.0170283094 0.871653155,-0.0321835048 0.73315363,0.0367130351 C0.594654105,0.105609575 0.594654105,0.233560292 0.574868459,0.381195734 C0.426476111,1.51306746 0.287976586,2.64493919 0.189048355,3.78665327 C0.0406560067,5.54843622 -0.0285937556,7.29053444 0.0109775371,9.05231739 C0.0406560067,10.4007211 0.0109775371,11.7589672 0.100012946,13.1073709 C0.109905769,13.3435876 0.20128761,13.4026418 0.418929721,13.4026418 C0.862731361,13.4026418 1.33604012,13.4026418 1.73779758,13.4026418 C1.95530318,13.4026418 2.22169537,13.4013712 2.55804833,13.4026418 C2.84297734,13.4037181 3.21080557,13.4123032 3.30203088,13.3659734 C3.50094582,13.2649523 3.44378718,12.9742394 3.41410871,12.8167616 C3.16678813,11.3699343 2.98871732,10.046396 2.83043215,8.58972634 C2.74139674,7.82202203 2.67214698,7.05431773 2.64246851,6.28661343 C2.60289721,5.55827858 2.5112956,4.7692348 2.71904489,4.06058467 C2.75861618,3.93263395 2.80240656,3.80729094 2.93101326,3.74823676 C3.07940561,3.67934022 3.14700249,3.78665327 3.2360379,3.89491926 C3.43389436,4.16066306 3.57239389,4.48546103 3.71089341,4.78073192 C4.03735658,5.46969732 4.33414127,6.17834744 4.61114032,6.89683993 C4.89803219,7.62517478 5.18492407,8.34366726 5.46192312,9.07200211 C5.60042264,9.43616954 5.71913652,9.80033696 5.86752887,10.1645044 C5.93677863,10.3318246 5.98624274,10.4007211 6.18409921,10.4007211 C6.38195567,10.4105635 7.50973752,10.4204058 7.86587915,10.4007211 C8.11319973,10.3908787 8.1428782,10.0956078 8.21212796,9.89876059 C8.47923419,9.17042574 8.76612606,8.45193326 9.03323229,7.73344077 C9.31023134,6.99526356 9.61690886,6.27677107 9.92358637,5.54843622 C10.0521931,5.24332297 10.1807998,4.93820972 10.3291921,4.64293884 C10.447906,4.40672213 10.616084,3.91460399 10.8535118,3.76696855 C11.3877242,3.44217057 11.3778314,5.28269242 11.3778314,5.53859386 C11.3679386,6.28661343 11.3085816,7.04447537 11.2393319,7.78265258 C11.2096534,8.10745056 11.1285105,8.96481416 11.0101516,9.96813543 C10.8917926,10.9714567 10.5845695,12.618421 10.5371872,12.876765 C10.4898049,13.1351091 10.3971967,13.3895716 10.9559601,13.4026418 C11.5147235,13.4157119 11.5290177,13.4026418 11.7862311,13.4026418 C12.3699077,13.4026418 12.8348704,13.3927994 13.418547,13.4026418 C13.6856532,13.4026418 13.8411444,13.3140605 13.8708228,13.0581591 C13.9005013,12.7924153 13.9044836,12.5320075 13.9242692,12.2662637 C13.9440549,11.7446184 13.9598582,11.2824058 13.9796439,10.7058343 C14.0164399,9.63356538 13.9994295,8.5208298 13.9598582,7.4086428 Z" id="路径" fill="#FFFFFF"></path>
                    <circle id="椭圆形" fill="#23CCD1" cx="8.69014085" cy="13.4225352" r="1"></circle>
                    <circle id="椭圆形备份" fill="#23CCD1" cx="5.30985915" cy="13.4225352" r="1"></circle>
                </g>
            </g>
        </g>
    </g>
</svg>