<?xml version="1.0" encoding="UTF-8"?>
<svg width="42px" height="42px" viewBox="0 0 42 42" version="1.1" xmlns="http://www.w3.org/2000/svg" xmlns:xlink="http://www.w3.org/1999/xlink">
    <title>microservices</title>
    <g id="页面-1" stroke="none" stroke-width="1" fill="none" fill-rule="evenodd">
        <g id="microservices">
            <g id="背景区域备份-3" opacity="0" fill="#D8D8D8" fill-rule="nonzero">
                <rect id="矩形" x="0" y="0" width="42" height="42"></rect>
            </g>
            <g id="底块备份-3" transform="translate(0.909091, 0.424242)">
                <polygon id="路径-7备份-2" fill="#416480" fill-rule="nonzero" transform="translate(17.090909, 22.575758) scale(-1, 1) translate(-17.090909, -22.575758) " points="0.0909089 39.5757576 0.0909089 5.57575758 34.0909089 5.57575758 34.0909089 39.5757576"></polygon>
                <polygon id="路径-7备份-6" fill="#EEF3F7" fill-rule="nonzero" transform="translate(20.090909, 3.075758) rotate(180.000000) translate(-20.090909, -3.075758) " points="0.0909089 5.57575842 6.0909089 0.57575842 40.0909089 0.57575842 32.2909089 5.57575842"></polygon>
                <polygon id="路径-7备份-5" fill="#AFC0C8" fill-rule="nonzero" transform="translate(37.090909, 20.075758) scale(-1, 1) translate(-37.090909, -20.075758) " points="34.0909089 33.5757576 34.0909089 0.575757576 40.0909089 5.57575758 40.0909089 39.5757576"></polygon>
                <polygon id="路径-7备份-4" stroke="#FFFFFF" opacity="0.25" transform="translate(17.090909, 22.575758) scale(-1, 1) translate(-17.090909, -22.575758) " points="31.5909089 8.07575758 31.5909089 37.0757576 2.5909089 37.0757576 2.5909089 8.07575758"></polygon>
                <polygon id="路径-7备份-4" stroke="#32526B" transform="translate(17.090909, 22.575758) scale(-1, 1) translate(-17.090909, -22.575758) " points="30.5909089 9.07575758 30.5909089 36.0757576 3.5909089 36.0757576 3.5909089 9.07575758"></polygon>
            </g>
            <g id="编组" transform="translate(8.000000, 13.000000)">
                <rect id="矩形备份-22" opacity="0.446149554" x="0" y="0" width="20" height="20"></rect>
                <path d="M11.3164983,0.666666667 C13.5256373,0.666666667 15.3164983,2.45752767 15.3164983,4.66666667 L15.3164983,11.0505051 C15.3164983,13.259644 13.5256373,15.0505051 11.3164983,15.0505051 L4.33333333,15.0505051 C2.12419433,15.0505051 0.333333333,13.259644 0.333333333,11.0505051 L0.333333333,4.66666667 C0.333333333,2.45752767 2.12419433,0.666666667 4.33333333,0.666666667 L11.3164983,0.666666667 Z M11.0070503,4.80867939 C10.3367232,4.20491333 9.28327722,4.24264871 8.6040404,4.92188552 L8.6040404,4.92188552 L7.82491582,5.7010101 L7.04579125,4.92188552 L6.91530078,4.81297472 C6.20113476,4.27154358 5.20903149,4.35781343 4.58855219,4.92188552 C3.86936027,5.64107744 3.80942761,6.77979798 4.46868687,7.4989899 L4.46868687,7.4989899 L7.82491582,10.8552189 L11.1811448,7.4989899 C11.9003367,6.83973064 11.9003367,5.64107744 11.1212121,4.92188552 L11.1212121,4.92188552 L11.0070503,4.80867939 Z" id="形状结合" fill="#23CCD1" fill-rule="nonzero"></path>
                <path d="M19.6316498,7.31919192 L19.6316498,16.3690236 C19.6316498,17.9872054 18.3131313,19.3057239 16.7548822,19.3057239 L7.70505051,19.3057239 C6.08686869,19.3057239 4.82828283,17.9872054 4.82828283,16.3690236 L4.82828283,16.1292929 L13.5784512,16.1292929 C15.4962963,16.1292929 16.5151515,15.1703704 16.5151515,13.2525253 L16.5151515,4.5023569 L16.7548822,4.5023569 C18.373064,4.44242424 19.6316498,5.7010101 19.6316498,7.31919192 Z" id="路径" fill="#EFF3F8" fill-rule="nonzero"></path>
            </g>
        </g>
    </g>
</svg>