<?xml version="1.0" encoding="UTF-8"?>
<svg width="42px" height="42px" viewBox="0 0 42 42" version="1.1" xmlns="http://www.w3.org/2000/svg" xmlns:xlink="http://www.w3.org/1999/xlink">
    <title>monngo-db</title>
    <g id="页面-1" stroke="none" stroke-width="1" fill="none" fill-rule="evenodd">
        <g id="monngo-db">
            <g id="背景区域" opacity="0" fill="#D8D8D8" fill-rule="nonzero">
                <rect id="矩形" x="0" y="0" width="42" height="42"></rect>
            </g>
            <g id="底块" transform="translate(0.909091, 0.424242)">
                <polygon id="路径-7备份-2" fill="#416480" fill-rule="nonzero" transform="translate(17.090909, 22.575758) scale(-1, 1) translate(-17.090909, -22.575758) " points="0.0909089 39.5757576 0.0909089 5.57575758 34.0909089 5.57575758 34.0909089 39.5757576"></polygon>
                <polygon id="路径-7备份-6" fill="#EEF3F7" fill-rule="nonzero" transform="translate(20.090909, 3.075758) rotate(180.000000) translate(-20.090909, -3.075758) " points="0.0909089 5.57575842 6.0909089 0.57575842 40.0909089 0.57575842 32.2909089 5.57575842"></polygon>
                <polygon id="路径-7备份-5" fill="#AFC0C8" fill-rule="nonzero" transform="translate(37.090909, 20.075758) scale(-1, 1) translate(-37.090909, -20.075758) " points="34.0909089 33.5757576 34.0909089 0.575757576 40.0909089 5.57575758 40.0909089 39.5757576"></polygon>
                <polygon id="路径-7备份-4" stroke="#FFFFFF" opacity="0.25" transform="translate(17.090909, 22.575758) scale(-1, 1) translate(-17.090909, -22.575758) " points="31.5909089 8.07575758 31.5909089 37.0757576 2.5909089 37.0757576 2.5909089 8.07575758"></polygon>
                <polygon id="路径-7备份-4" stroke="#32526B" transform="translate(17.090909, 22.575758) scale(-1, 1) translate(-17.090909, -22.575758) " points="30.5909089 9.07575758 30.5909089 36.0757576 3.5909089 36.0757576 3.5909089 9.07575758"></polygon>
            </g>
            <g id="Icon/monngoDB" transform="translate(8.000000, 13.000000)">
                <rect id="矩形" fill="#D8D8D8" fill-rule="nonzero" opacity="0" x="0" y="0" width="20" height="20"></rect>
                <g id="monngoDB">
                    <rect id="矩形备份-3" fill="#D8D8D8" fill-rule="nonzero" opacity="0" x="0" y="0" width="20" height="20"></rect>
                    <g id="MongoDB" transform="translate(1.000000, 1.000000)">
                        <rect id="矩形备份-5" opacity="0.446149554" x="0" y="0" width="18" height="18"></rect>
                        <path d="M8.74540541,6.73891892 C12.4497297,6.73891892 15.3843243,5.58432432 16.1059459,4.04486486 L16.1059459,3.46756757 C16.1059459,1.68756757 12.7864865,0.244324324 8.74540541,0.244324324 C4.70432432,0.244324324 1.43297297,1.68756757 1.43297297,3.46756757 L1.43297297,3.99675676 C2.10648649,5.72864865 4.99297297,6.73891892 8.74540541,6.73891892 Z" id="路径" fill="#EFF3F8" fill-rule="nonzero"></path>
                        <path d="M10.767973,7.55675676 C10.0944595,7.65297297 9.46905405,7.65297297 8.79554054,7.65297297 C5.13932432,7.65297297 2.0122973,6.45027027 1.435,4.91081081 L1.435,7.46054054 C2.15662162,9 5.13932432,10.1545946 8.74743243,10.1545946 L8.89175676,10.1545946 C9.27662162,9.14432432 9.90202703,8.23027027 10.767973,7.55675676 Z" id="路径" fill="#EFF3F8" fill-rule="nonzero"></path>
                        <path d="M16.0578378,4.95891892 C15.7210811,5.63243243 15.1918919,6.11351351 14.5183784,6.45027027 C15.0475676,6.49837838 15.5767568,6.59459459 16.0578378,6.78702703 L16.0578378,4.95891892 Z" id="路径" fill="#EFF3F8" fill-rule="nonzero"></path>
                        <path d="M8.60108108,11.0686486 C5.04108108,11.0205405 2.10648649,9.86594595 1.43297297,8.37459459 L1.43297297,10.8762162 C2.10648649,12.4156757 5.1372973,13.5702703 8.74540541,13.5702703 L8.79351351,13.5702703 C8.64918919,13.0410811 8.55297297,12.5118919 8.55297297,11.9827027 C8.50486486,11.6459459 8.55297297,11.3572973 8.60108108,11.0686486 Z" id="路径" fill="#EFF3F8" fill-rule="nonzero"></path>
                        <path d="M9.13027027,14.4362162 L8.74540541,14.4362162 C5.1372973,14.4362162 2.10648649,13.2816216 1.43297297,11.7421622 L1.43297297,14.0994595 C1.43297297,15.9275676 4.75243243,17.467027 8.79351351,17.467027 C9.9,17.467027 11.0064865,17.3708108 12.112973,17.1302703 C10.8140541,16.6010811 9.75567568,15.6389189 9.13027027,14.4362162 L9.13027027,14.4362162 Z" id="路径" fill="#EFF3F8" fill-rule="nonzero"></path>
                        <path d="M14.1816216,6.97945946 C13.9891892,8.13405405 11.9686486,9.14432432 11.9686486,11.9827027 C11.9686486,14.5805405 13.3637838,15.3502703 13.7005405,15.4945946 C14.2297297,14.9654054 14.1335135,10.2989189 14.1816216,6.97945946 Z" id="路径" fill="#23CCD1" fill-rule="nonzero"></path>
                        <path d="M13.9891892,16.6010811 L13.9891892,15.6389189 C14.7108108,15.3021622 14.2778378,9.67351351 14.2297297,7.60486486 C14.4702703,8.27837838 16.1059459,9.91405405 16.1059459,11.9827027 C16.1059459,14.0513514 15.1918919,15.0135135 14.4221622,15.5427027 L14.4221622,16.5048649 C14.4221622,16.6491892 14.3259459,16.7454054 14.2297297,16.7454054 C14.0854054,16.7935135 13.9891892,16.6972973 13.9891892,16.6010811 L13.9891892,16.6010811 Z" id="路径" fill="#23CCD1" fill-rule="nonzero"></path>
                    </g>
                </g>
            </g>
        </g>
    </g>
</svg>