<?xml version="1.0" encoding="UTF-8"?>
<svg width="42px" height="42px" viewBox="0 0 42 42" version="1.1" xmlns="http://www.w3.org/2000/svg" xmlns:xlink="http://www.w3.org/1999/xlink">
    <title>nginx</title>
    <g id="页面-1" stroke="none" stroke-width="1" fill="none" fill-rule="evenodd">
        <g id="nginx">
            <g id="背景区域" opacity="0" fill="#D8D8D8" fill-rule="nonzero">
                <rect id="矩形" x="-5.68434189e-14" y="0" width="42" height="42"></rect>
            </g>
            <g id="底块" transform="translate(0.909091, 0.424242)">
                <polygon id="路径-7备份-2" fill="#416480" fill-rule="nonzero" transform="translate(17.090909, 22.575758) scale(-1, 1) translate(-17.090909, -22.575758) " points="0.0909089 39.5757576 0.0909089 5.57575758 34.0909089 5.57575758 34.0909089 39.5757576"></polygon>
                <polygon id="路径-7备份-6" fill="#EEF3F7" fill-rule="nonzero" transform="translate(20.090909, 3.075758) rotate(180.000000) translate(-20.090909, -3.075758) " points="0.0909089 5.57575842 6.0909089 0.57575842 40.0909089 0.57575842 32.2909089 5.57575842"></polygon>
                <polygon id="路径-7备份-5" fill="#AFC0C8" fill-rule="nonzero" transform="translate(37.090909, 20.075758) scale(-1, 1) translate(-37.090909, -20.075758) " points="34.0909089 33.5757576 34.0909089 0.575757576 40.0909089 5.57575758 40.0909089 39.5757576"></polygon>
                <polygon id="路径-7备份-4" stroke="#FFFFFF" opacity="0.25" transform="translate(17.090909, 22.575758) scale(-1, 1) translate(-17.090909, -22.575758) " points="31.5909089 8.07575758 31.5909089 37.0757576 2.5909089 37.0757576 2.5909089 8.07575758"></polygon>
                <polygon id="路径-7备份-4" stroke="#32526B" transform="translate(17.090909, 22.575758) scale(-1, 1) translate(-17.090909, -22.575758) " points="30.5909089 9.07575758 30.5909089 36.0757576 3.5909089 36.0757576 3.5909089 9.07575758"></polygon>
            </g>
            <g id="Icon/Nginx" transform="translate(8.000000, 13.000000)" fill-rule="nonzero">
                <rect id="矩形" fill="#D8D8D8" opacity="0" x="0" y="3.55271368e-15" width="20" height="20"></rect>
                <g id="服务节点">
                    <rect id="矩形备份-3" fill="#D8D8D8" opacity="0" x="0" y="3.55271368e-15" width="20" height="20"></rect>
                    <g id="形状结合" transform="translate(1.000000, 2.000000)" fill="#000000">
                        <path d="M13.5881238,0 C13.7700569,0 13.9065066,0.09096652 13.9974732,0.2274163 L13.9974732,0.2274163 L16.1806696,4.00252685 C16.2716361,4.13897663 16.3171194,4.32090967 16.3171194,4.5028427 C16.3171194,5.00315856 15.9077701,5.36702464 15.4074542,5.36702464 C15.0890714,5.36702464 14.8161718,5.1850916 14.6342388,4.91219204 L14.6342388,4.91219204 L13.0423247,2.18319646 C12.9058749,2.00126342 12.6784586,1.86481364 12.4510423,1.86481364 L12.4510423,1.86481364 L6.40176879,1.86481364 C5.90145294,1.9102969 5.44662034,2.1377132 5.17372078,2.5925458 L5.17372078,2.5925458 L2.30827543,7.5502211 C2.08085913,7.91408718 2.08085913,8.414403 2.30827543,8.7782691 L2.30827543,8.7782691 L5.58307012,14.4636766 L12.1326595,14.4636766 C12.5874921,14.4636766 12.9968414,14.190777 13.2242577,13.8269109 L13.2242577,13.8269109 L15.504,9.869 L8.44851548,9.8698673 C7.94819962,9.8698673 7.53885028,9.460518 7.53885028,8.9602021 C7.53885028,8.4598863 7.94819962,8.050537 8.44851548,8.050537 L17.0903348,8.050537 C17.5906507,8.050537 18,8.4598863 18,8.9602021 C18,9.1388864 17.9477871,9.3059677 17.8578648,9.4469426 L17.8554746,9.4498218 L14.1794062,15.6007581 C13.9974732,16.0101074 13.5881238,16.2375237 13.1332912,16.2375237 L13.1332912,16.2375237 L5.2646873,16.2375237 C4.76437145,16.2375237 4.30953885,15.9646241 4.08212255,15.5552748 L4.08212255,15.5552748 L0.17056222,8.7327858 C-0.056854075,8.3689198 -0.056854075,7.86860392 0.17056222,7.50473784 L0.17056222,7.50473784 L4.08212255,0.72773215 C4.35502211,0.27289956 4.80985471,0 5.31017056,0 L5.31017056,0 L13.5881238,0 Z" id="path-1"></path>
                    </g>
                    <path d="M14.5881238,2 C14.7700569,2 14.9065066,2.09096652 14.9974732,2.2274163 L14.9974732,2.2274163 L17.1806696,6.00252685 C17.2716361,6.13897663 17.3171194,6.32090967 17.3171194,6.5028427 C17.3171194,7.00315856 16.9077701,7.36702464 16.4074542,7.36702464 C16.0890714,7.36702464 15.8161718,7.1850916 15.6342388,6.91219204 L15.6342388,6.91219204 L14.0423247,4.18319646 C13.9058749,4.00126342 13.6784586,3.86481364 13.4510423,3.86481364 L13.4510423,3.86481364 L7.40176879,3.86481364 C6.90145294,3.9102969 6.44662034,4.1377132 6.17372078,4.5925458 L6.17372078,4.5925458 L3.30827543,9.5502211 C3.08085913,9.91408718 3.08085913,10.414403 3.30827543,10.7782691 L3.30827543,10.7782691 L6.58307012,16.4636766 L13.1326595,16.4636766 C13.5874921,16.4636766 13.9968414,16.190777 14.2242577,15.8269109 L14.2242577,15.8269109 L16.504,11.869 L9.44851548,11.8698673 C8.94819962,11.8698673 8.53885028,11.460518 8.53885028,10.9602021 C8.53885028,10.4598863 8.94819962,10.050537 9.44851548,10.050537 L18.0903348,10.050537 C18.5906507,10.050537 19,10.4598863 19,10.9602021 C19,11.1388864 18.9477871,11.3059677 18.8578648,11.4469426 L18.8554746,11.4498218 L15.1794062,17.6007581 C14.9974732,18.0101074 14.5881238,18.2375237 14.1332912,18.2375237 L14.1332912,18.2375237 L6.2646873,18.2375237 C5.76437145,18.2375237 5.30953885,17.9646241 5.08212255,17.5552748 L5.08212255,17.5552748 L1.17056222,10.7327858 C0.943145925,10.3689198 0.943145925,9.86860392 1.17056222,9.50473784 L1.17056222,9.50473784 L5.08212255,2.72773215 C5.35502211,2.27289956 5.80985471,2 6.31017056,2 L6.31017056,2 L14.5881238,2 Z" id="形状结合" fill="#EFF3F8"></path>
                </g>
            </g>
        </g>
    </g>
</svg>