<?xml version="1.0" encoding="UTF-8"?>
<svg width="42px" height="42px" viewBox="0 0 42 42" version="1.1" xmlns="http://www.w3.org/2000/svg" xmlns:xlink="http://www.w3.org/1999/xlink">
    <title>nic</title>
    <g id="页面-1" stroke="none" stroke-width="1" fill="none" fill-rule="evenodd">
        <g id="nic">
            <g id="背景区域" opacity="0" fill="#D8D8D8" fill-rule="nonzero">
                <rect id="矩形" x="0" y="0" width="42" height="42"></rect>
            </g>
            <g id="底块" transform="translate(0.909091, 0.424242)">
                <polygon id="路径-7备份-2" fill="#416480" fill-rule="nonzero" transform="translate(17.090909, 22.575758) scale(-1, 1) translate(-17.090909, -22.575758) " points="0.0909089 39.5757576 0.0909089 5.57575758 34.0909089 5.57575758 34.0909089 39.5757576"></polygon>
                <polygon id="路径-7备份-6" fill="#EEF3F7" fill-rule="nonzero" transform="translate(20.090909, 3.075758) rotate(180.000000) translate(-20.090909, -3.075758) " points="0.0909089 5.57575842 6.0909089 0.57575842 40.0909089 0.57575842 32.2909089 5.57575842"></polygon>
                <polygon id="路径-7备份-5" fill="#AFC0C8" fill-rule="nonzero" transform="translate(37.090909, 20.075758) scale(-1, 1) translate(-37.090909, -20.075758) " points="34.0909089 33.5757576 34.0909089 0.575757576 40.0909089 5.57575758 40.0909089 39.5757576"></polygon>
                <polygon id="路径-7备份-4" stroke="#FFFFFF" opacity="0.25" transform="translate(17.090909, 22.575758) scale(-1, 1) translate(-17.090909, -22.575758) " points="31.5909089 8.07575758 31.5909089 37.0757576 2.5909089 37.0757576 2.5909089 8.07575758"></polygon>
                <polygon id="路径-7备份-4" stroke="#32526B" transform="translate(17.090909, 22.575758) scale(-1, 1) translate(-17.090909, -22.575758) " points="30.5909089 9.07575758 30.5909089 36.0757576 3.5909089 36.0757576 3.5909089 9.07575758"></polygon>
            </g>
            <g id="Icon/网卡" transform="translate(8.000000, 13.000000)" fill-rule="nonzero">
                <rect id="矩形" fill="#D8D8D8" opacity="0" x="0" y="3.55271368e-15" width="20" height="20"></rect>
                <g id="网卡">
                    <rect id="矩形备份-3" fill="#D8D8D8" opacity="0" x="0" y="3.55271368e-15" width="20" height="20"></rect>
                    <g id="编组">
                        <path d="M1.54857143,0.61 C1.92826719,0.61 2.24206239,0.892153882 2.29172481,1.25822944 L2.29857143,1.36 L2.29857143,18.5028571 C2.29857143,18.9170707 1.96278499,19.2528571 1.54857143,19.2528571 C1.16887566,19.2528571 0.855080468,18.9707033 0.805418045,18.6046277 L0.798571429,18.5028571 L0.798571429,1.36 C0.798571429,0.945786438 1.13435787,0.61 1.54857143,0.61 Z" id="路径" fill="#EFF3F8"></path>
                        <path d="M16.7971429,2.75714286 C17.7485714,2.75714286 18.5285714,3.52857143 18.5285714,4.48857143 L18.5285714,10.9428571 C18.5285714,11.8942857 17.7571429,12.6657143 16.7971429,12.6657143 L2.62857143,12.6657143 C2.62,12.6657143 2.62,12.6571429 2.62,12.6571429 L2.62,2.75714286 L16.7971429,2.75714286 Z M11.0601286,8.26529097 C11.1283483,9.09346297 11.7861034,9.75936315 12.6197211,9.83079598 L12.7685714,9.83714286 L13.6257143,9.83714286 C14.5189474,9.83714286 15.2583221,9.15247329 15.3336767,8.2714319 L15.34,8.12285714 L15.34,7.26571429 C15.34,6.32285714 14.5771429,5.55142857 13.6257143,5.55142857 L12.7685714,5.55142857 C11.8753383,5.55142857 11.1359636,6.23609814 11.060609,7.11713952 L11.0542857,7.26571429 L8.23737647,7.26501781 C8.05502434,6.68418896 7.51243012,6.26285714 6.87142857,6.26285714 C6.0808724,6.26285714 5.44,6.90372954 5.44,7.69428571 C5.44,8.48484188 6.0808724,9.12571429 6.87142857,9.12571429 C7.45853279,9.12571429 7.96308271,8.77225736 8.1838933,8.26652855 L11.0601286,8.26529097 Z" id="形状结合" fill="#EFF3F8"></path>
                        <path d="M15.2885714,13.0942857 L15.2885714,15.9828571 L5.68857143,15.9828571 L5.68857143,13.0942857 L15.2885714,13.0942857 Z M7.16428571,13.6171429 C7.02621453,13.6171429 6.91428571,13.7130818 6.91428571,13.8314286 L6.91428571,13.8314286 L6.91428571,15.1771429 L6.92088839,15.2262766 C6.94679889,15.3209428 7.04593898,15.3914286 7.16428571,15.3914286 C7.3023569,15.3914286 7.41428571,15.2954896 7.41428571,15.1771429 L7.41428571,15.1771429 L7.41428571,13.8314286 L7.40768304,13.7822948 C7.38177254,13.6876286 7.28263245,13.6171429 7.16428571,13.6171429 Z M8.32142857,13.6171429 C8.18335738,13.6171429 8.07142857,13.7130818 8.07142857,13.8314286 L8.07142857,13.8314286 L8.07142857,15.1771429 L8.07803125,15.2262766 C8.10394175,15.3209428 8.20308184,15.3914286 8.32142857,15.3914286 C8.45949976,15.3914286 8.57142857,15.2954896 8.57142857,15.1771429 L8.57142857,15.1771429 L8.57142857,13.8314286 L8.56482589,13.7822948 C8.53891539,13.6876286 8.4397753,13.6171429 8.32142857,13.6171429 Z M9.41857143,13.6171429 C9.28050024,13.6171429 9.16857143,13.7130818 9.16857143,13.8314286 L9.16857143,13.8314286 L9.16857143,15.1771429 L9.17517411,15.2262766 C9.20108461,15.3209428 9.3002247,15.3914286 9.41857143,15.3914286 C9.55664262,15.3914286 9.66857143,15.2954896 9.66857143,15.1771429 L9.66857143,15.1771429 L9.66857143,13.8314286 L9.66196875,13.7822948 C9.63605825,13.6876286 9.53691816,13.6171429 9.41857143,13.6171429 Z M14.1585714,13.6171429 C14.0205002,13.6171429 13.9085714,13.7130818 13.9085714,13.8314286 L13.9085714,13.8314286 L13.9085714,15.1771429 L13.9151741,15.2262766 C13.9410846,15.3209428 14.0402247,15.3914286 14.1585714,15.3914286 C14.2966426,15.3914286 14.4085714,15.2954896 14.4085714,15.1771429 L14.4085714,15.1771429 L14.4085714,13.8314286 L14.4019688,13.7822948 C14.3760582,13.6876286 14.2769182,13.6171429 14.1585714,13.6171429 Z M10.6014286,13.6171429 C10.4633574,13.6171429 10.3514286,13.7130818 10.3514286,13.8314286 L10.3514286,13.8314286 L10.3514286,15.1771429 L10.3580312,15.2262766 C10.3839418,15.3209428 10.4830818,15.3914286 10.6014286,15.3914286 C10.7394998,15.3914286 10.8514286,15.2954896 10.8514286,15.1771429 L10.8514286,15.1771429 L10.8514286,13.8314286 L10.8448259,13.7822948 C10.8189154,13.6876286 10.7197753,13.6171429 10.6014286,13.6171429 Z M11.7242857,13.6171429 C11.5862145,13.6171429 11.4742857,13.7130818 11.4742857,13.8314286 L11.4742857,13.8314286 L11.4742857,15.1771429 L11.4808884,15.2262766 C11.5067989,15.3209428 11.605939,15.3914286 11.7242857,15.3914286 C11.8623569,15.3914286 11.9742857,15.2954896 11.9742857,15.1771429 L11.9742857,15.1771429 L11.9742857,13.8314286 L11.967683,13.7822948 C11.9417725,13.6876286 11.8426324,13.6171429 11.7242857,13.6171429 Z M12.8985714,13.6171429 C12.7605002,13.6171429 12.6485714,13.7130818 12.6485714,13.8314286 L12.6485714,13.8314286 L12.6485714,15.1771429 L12.6551741,15.2262766 C12.6810846,15.3209428 12.7802247,15.3914286 12.8985714,15.3914286 C13.0366426,15.3914286 13.1485714,15.2954896 13.1485714,15.1771429 L13.1485714,15.1771429 L13.1485714,13.8314286 L13.1419688,13.7822948 C13.1160582,13.6876286 13.0169182,13.6171429 12.8985714,13.6171429 Z" id="形状结合" fill="#23CCD1"></path>
                    </g>
                </g>
            </g>
        </g>
    </g>
</svg>