<?xml version="1.0" encoding="UTF-8"?>
<svg width="42px" height="42px" viewBox="0 0 42 42" version="1.1" xmlns="http://www.w3.org/2000/svg" xmlns:xlink="http://www.w3.org/1999/xlink">
    <title>operator</title>
    <g id="页面-1" stroke="none" stroke-width="1" fill="none" fill-rule="evenodd">
        <g id="operator">
            <g id="背景区域" opacity="0" fill="#D8D8D8" fill-rule="nonzero">
                <rect id="矩形" x="0" y="0" width="42" height="42"></rect>
            </g>
            <g id="底块" transform="translate(0.909091, 0.424242)">
                <polygon id="路径-7备份-2" fill="#416480" fill-rule="nonzero" transform="translate(17.090909, 22.575758) scale(-1, 1) translate(-17.090909, -22.575758) " points="0.0909089 39.5757576 0.0909089 5.57575758 34.0909089 5.57575758 34.0909089 39.5757576"></polygon>
                <polygon id="路径-7备份-6" fill="#EEF3F7" fill-rule="nonzero" transform="translate(20.090909, 3.075758) rotate(180.000000) translate(-20.090909, -3.075758) " points="0.0909089 5.57575842 6.0909089 0.57575842 40.0909089 0.57575842 32.2909089 5.57575842"></polygon>
                <polygon id="路径-7备份-5" fill="#AFC0C8" fill-rule="nonzero" transform="translate(37.090909, 20.075758) scale(-1, 1) translate(-37.090909, -20.075758) " points="34.0909089 33.5757576 34.0909089 0.575757576 40.0909089 5.57575758 40.0909089 39.5757576"></polygon>
                <polygon id="路径-7备份-4" stroke="#FFFFFF" opacity="0.25" transform="translate(17.090909, 22.575758) scale(-1, 1) translate(-17.090909, -22.575758) " points="31.5909089 8.07575758 31.5909089 37.0757576 2.5909089 37.0757576 2.5909089 8.07575758"></polygon>
                <polygon id="路径-7备份-4" stroke="#32526B" transform="translate(17.090909, 22.575758) scale(-1, 1) translate(-17.090909, -22.575758) " points="30.5909089 9.07575758 30.5909089 36.0757576 3.5909089 36.0757576 3.5909089 9.07575758"></polygon>
            </g>
            <g id="Icon/配置包" transform="translate(8.000000, 13.000000)">
                <rect id="矩形" fill="#D8D8D8" fill-rule="nonzero" opacity="0" x="0" y="3.55271368e-15" width="20" height="20"></rect>
                <g id="运营商">
                    <rect id="矩形备份-3" fill="#D8D8D8" fill-rule="nonzero" opacity="0" x="0" y="3.55271368e-15" width="20" height="20"></rect>
                    <g id="编组" transform="translate(1.000000, 1.000000)">
                        <rect id="矩形" x="0" y="0" width="18" height="18"></rect>
                        <path d="M9.08804348,-1.42108547e-14 L9.19448838,0.00205842431 C14.0762618,0.105485258 18,4.09336676 18,9 C18,10.8560264 17.4316975,12.6241159 16.402044,14.1069569 L16.4103261,14.1065217 C16.2,14.4244565 15.6913043,15.0211957 15.4663043,15.251087 C14.8793478,15.8478261 14.0527174,16.4103261 13.113587,16.8358696 C12.3407609,17.1880435 11.0788043,17.6478261 9.0048913,17.6478261 C7.16086957,17.6478261 5.16032609,16.8554348 3.78586957,15.7597826 C3.68315217,15.6766304 3.45815217,15.4711957 3.375,15.3831522 L3.202,15.177 L1.2326087,17.1195652 L1.31576087,10.7315217 L7.71358696,10.7315217 L5.59711113,12.8153706 C6.00075168,13.4241027 7.32394216,15.0789742 9.73858696,15.6423913 C10.1298913,15.7353261 13.1478261,16.2782609 15.0945652,14.5027174 C15.2606366,14.3509317 15.4045425,14.2004498 15.530329,14.0548419 C16.6449969,12.6234583 17.2663043,10.8603479 17.2663043,9 C17.2663043,8.33131051 17.1869654,7.68120255 17.0371847,7.05857322 L14.7765133,7.05844558 C14.8408704,7.57738079 14.8744565,8.11222016 14.8744565,8.65836359 C14.8744565,9.94530141 14.6828865,11.1964274 14.3194124,12.3484259 L14.3194124,12.3484259 L13.619718,12.1276611 C13.9605918,11.0472923 14.1407609,9.87062485 14.1407609,8.65836359 C14.1407609,8.10978029 14.1050014,7.5748546 14.0370727,7.05870209 L9.634,7.058 L9.60985482,10.3059783 C9.48870097,10.2561803 9.36922982,10.2063823 9.25060001,10.1583628 L8.89639328,10.0214184 L8.917,7.058 L4.14578451,7.0586635 C4.10006018,7.40716689 4.06897742,7.76431317 4.05364732,8.12855197 L4.04503718,8.40723115 L3.31148456,8.39274433 C3.32045388,7.93857531 3.35261419,7.49298132 3.4063057,7.0586277 L0.962815316,7.05857322 C0.81303457,7.68120255 0.733695652,8.33131051 0.733695652,9 C0.733695652,9.43508354 0.77499861,9.87794303 0.855774762,10.3575514 L0.855774762,10.3575514 L0.132268716,10.4794051 C0.0450509261,9.96154946 1.77635684e-15,9.47850342 1.77635684e-15,9 C1.77635684e-15,5.79006971 1.67928353,2.97334728 4.20749587,1.38018741 C4.22736121,1.35889438 4.25170132,1.34049718 4.2787594,1.32502384 C4.30074409,1.31245176 4.32348242,1.30240499 4.34663891,1.29479215 L4.38583667,1.2706813 C5.73497882,0.463725428 7.31319825,-1.42108547e-14 9,-1.42108547e-14 C9.01909587,-1.42108547e-14 9.03817782,-1.42108547e-14 9.05724568,0.000178117618 L9.08804348,-1.42108547e-14 L9.08804348,-1.42108547e-14 Z M4.35181425,2.16450684 L4.23230061,2.24570865 C2.82588784,3.24011447 1.74395984,4.66279895 1.17615476,6.32412395 L3.51937621,6.32420012 C3.76655619,4.98786998 4.22148262,3.78040332 4.83092483,2.78727772 C4.6578919,2.59200476 4.4979586,2.38398471 4.35181425,2.16450684 Z M5.36628769,3.32170158 L5.35943749,3.33288811 C4.866794,4.18055259 4.48831336,5.19712447 4.26613849,6.32379928 L8.922,6.324 L8.93450049,4.74484101 C7.59244184,4.69133277 6.3423178,4.17498896 5.36628769,3.32170158 Z M13.871881,2.32058651 L13.7962177,2.42664041 C13.6754628,2.58809747 13.5470072,2.74247278 13.4114966,2.88933323 C13.9905496,3.86216235 14.423832,5.03340094 14.6631313,6.32402761 L16.8238452,6.32412395 C16.2701416,4.70405801 15.2275345,3.3109265 13.871881,2.32058651 Z M12.864667,3.40792042 L12.7837098,3.4760677 C11.8999835,4.1870739 10.8158773,4.63179954 9.65221671,4.72919261 L9.639,6.324 L13.9165276,6.32447873 C13.7005181,5.23126648 13.3371482,4.24091353 12.864667,3.40792042 Z M8.96214482,0.736170555 C7.7531855,0.783731936 6.63519801,1.51416769 5.77151867,2.69956517 C6.68369334,3.53060993 7.88296662,4.01576087 9.16630435,4.01576087 L8.939,4.01 L8.96214482,0.736170555 Z M9.6827452,0.789039396 L9.65799431,3.99198006 C10.7125727,3.88952418 11.689099,3.46008505 12.4690979,2.78296693 C11.7075174,1.70583362 10.7407383,0.986989003 9.6827452,0.789039396 Z M12.2559812,1.39929769 L12.3782205,1.5226232 C12.5942469,1.74565083 12.7993875,1.99009049 12.992359,2.25384542 C13.0868775,2.14683943 13.175947,2.03383221 13.2604644,1.91671347 C12.9390458,1.72061223 12.6036619,1.54837776 12.2559812,1.39929769 Z M6.05896696,1.27184706 L5.89222623,1.33745666 C5.57698081,1.46539182 5.27142691,1.61221261 4.97696726,1.77651632 C5.06496469,1.91023342 5.15937744,2.03728346 5.25907676,2.15925736 C5.5075271,1.82976878 5.77493745,1.53294284 6.05896696,1.27184706 Z" id="形状结合" fill="#EFF3F8" fill-rule="nonzero"></path>
                    </g>
                </g>
            </g>
        </g>
    </g>
</svg>