<?xml version="1.0" encoding="UTF-8"?>
<svg width="42px" height="42px" viewBox="0 0 42 42" version="1.1" xmlns="http://www.w3.org/2000/svg" xmlns:xlink="http://www.w3.org/1999/xlink">
    <title>oracle</title>
    <g id="页面-1" stroke="none" stroke-width="1" fill="none" fill-rule="evenodd">
        <g id="oracle">
            <g id="背景区域" opacity="0" fill="#D8D8D8" fill-rule="nonzero">
                <rect id="矩形" x="5.68434189e-14" y="0" width="42" height="42"></rect>
            </g>
            <g id="底块" transform="translate(0.909091, 0.424242)">
                <polygon id="路径-7备份-2" fill="#416480" fill-rule="nonzero" transform="translate(17.090909, 22.575758) scale(-1, 1) translate(-17.090909, -22.575758) " points="0.0909089 39.5757576 0.0909089 5.57575758 34.0909089 5.57575758 34.0909089 39.5757576"></polygon>
                <polygon id="路径-7备份-6" fill="#EEF3F7" fill-rule="nonzero" transform="translate(20.090909, 3.075758) rotate(180.000000) translate(-20.090909, -3.075758) " points="0.0909089 5.57575842 6.0909089 0.57575842 40.0909089 0.57575842 32.2909089 5.57575842"></polygon>
                <polygon id="路径-7备份-5" fill="#AFC0C8" fill-rule="nonzero" transform="translate(37.090909, 20.075758) scale(-1, 1) translate(-37.090909, -20.075758) " points="34.0909089 33.5757576 34.0909089 0.575757576 40.0909089 5.57575758 40.0909089 39.5757576"></polygon>
                <polygon id="路径-7备份-4" stroke="#FFFFFF" opacity="0.25" transform="translate(17.090909, 22.575758) scale(-1, 1) translate(-17.090909, -22.575758) " points="31.5909089 8.07575758 31.5909089 37.0757576 2.5909089 37.0757576 2.5909089 8.07575758"></polygon>
                <polygon id="路径-7备份-4" stroke="#32526B" transform="translate(17.090909, 22.575758) scale(-1, 1) translate(-17.090909, -22.575758) " points="30.5909089 9.07575758 30.5909089 36.0757576 3.5909089 36.0757576 3.5909089 9.07575758"></polygon>
            </g>
            <g id="Icon/oracle" transform="translate(8.000000, 13.000000)" fill-rule="nonzero">
                <rect id="矩形" fill="#D8D8D8" opacity="0" x="0" y="3.55271368e-15" width="20" height="20"></rect>
                <g id="服务节点">
                    <rect id="矩形备份-3" fill="#D8D8D8" opacity="0" x="0" y="3.55271368e-15" width="20" height="20"></rect>
                    <g id="Oracle" transform="translate(1.000000, 1.000000)">
                        <path d="M7.65297297,6.69081081 C11.4054054,6.69081081 14.3881081,5.53621622 15.1097297,3.99675676 L15.1097297,3.41945946 C15.1097297,1.59135135 11.7421622,0.1 7.65297297,0.1 C3.56378378,0.1 0.244324324,1.54324324 0.244324324,3.41945946 L0.244324324,3.94864865 C0.965945946,5.63243243 3.90054054,6.69081081 7.65297297,6.69081081 Z" id="路径" fill="#EFF3F8"></path>
                        <path d="M9.62540541,7.46054054 C8.95189189,7.55675676 8.27837838,7.55675676 7.65297297,7.55675676 C3.90054054,7.55675676 0.821621622,6.35405405 0.196216216,4.76648649 L0.196216216,7.36432432 C0.917837838,8.90378378 3.94864865,10.0583784 7.60486486,10.0583784 L7.74918919,10.0583784 C8.13405405,9.04810811 8.75945946,8.13405405 9.62540541,7.46054054 Z" id="路径" fill="#EFF3F8"></path>
                        <path d="M15.0616216,4.8627027 C14.7248649,5.53621622 14.1475676,6.06540541 13.4740541,6.35405405 C14.0032432,6.40216216 14.5324324,6.54648649 15.0616216,6.73891892 L15.0616216,4.8627027 Z" id="路径" fill="#EFF3F8"></path>
                        <path d="M7.50864865,11.0686486 C3.90054054,11.0205405 0.917837838,9.86594595 0.244324324,8.37459459 L0.244324324,10.8762162 C0.917837838,12.4156757 3.99675676,13.5702703 7.65297297,13.5702703 L7.70108108,13.5702703 C7.41243243,12.7524324 7.36432432,11.8864865 7.50864865,11.0686486 Z" id="路径" fill="#EFF3F8"></path>
                        <path d="M8.03783784,14.4843243 L7.65297297,14.4843243 C3.99675676,14.4843243 0.917837838,13.3297297 0.244324324,11.7902703 L0.244324324,14.1956757 C0.244324324,16.0718919 3.56378378,17.6113514 7.70108108,17.6113514 C8.85567568,17.6113514 9.96216216,17.5151351 11.0686486,17.2264865 C9.76972973,16.6972973 8.66324324,15.7351351 8.03783784,14.4843243 Z" id="路径" fill="#EFF3F8"></path>
                        <path d="M12.6562162,12.3194595 C12.6562162,12.9448649 13.0410811,13.4740541 13.5702703,13.4740541 C14.0994595,13.4740541 14.4843243,12.9448649 14.4843243,12.3194595 C14.4843243,11.6940541 14.0994595,11.1648649 13.5702703,11.1648649 C13.0410811,11.1648649 12.6562162,11.6940541 12.6562162,12.3194595 Z" id="路径" fill="#23CCD1"></path>
                        <path d="M13.5702703,8.27837838 C11.3091892,8.27837838 9.52918919,10.1064865 9.52918919,12.3194595 C9.52918919,14.5805405 11.3572973,16.3605405 13.5702703,16.3605405 C15.8313514,16.3605405 17.6113514,14.5324324 17.6113514,12.3194595 C17.6594595,10.1064865 15.7832432,8.27837838 13.5702703,8.27837838 Z M13.5702703,15.2059459 C12.2232432,15.2059459 11.212973,13.9551351 11.212973,12.3194595 C11.212973,10.6837838 12.2713514,9.43297297 13.5702703,9.43297297 C14.8691892,9.43297297 15.9275676,10.6837838 15.9275676,12.3194595 C15.9275676,13.907027 14.8691892,15.2059459 13.5702703,15.2059459 Z" id="形状" fill="#23CCD1"></path>
                    </g>
                </g>
            </g>
        </g>
    </g>
</svg>