<?xml version="1.0" encoding="UTF-8"?>
<svg width="42px" height="42px" viewBox="0 0 42 42" version="1.1" xmlns="http://www.w3.org/2000/svg" xmlns:xlink="http://www.w3.org/1999/xlink">
    <title>orient-db</title>
    <g id="页面-1" stroke="none" stroke-width="1" fill="none" fill-rule="evenodd">
        <g id="orient-db">
            <g id="背景区域" opacity="0" fill="#D8D8D8" fill-rule="nonzero">
                <rect id="矩形" x="5.68434189e-14" y="0" width="42" height="42"></rect>
            </g>
            <g id="底块" transform="translate(1.000000, 1.000000)">
                <polygon id="路径-7备份-2" fill="#416480" fill-rule="nonzero" transform="translate(17.000000, 22.000000) scale(-1, 1) translate(-17.000000, -22.000000) " points="0 39 0 5 34 5 34 39"></polygon>
                <polygon id="路径-7备份-6" fill="#EEF3F7" fill-rule="nonzero" transform="translate(20.000000, 2.500000) rotate(180.000000) translate(-20.000000, -2.500000) " points="0 5 6 0 40 0 32.2 5"></polygon>
                <polygon id="路径-7备份-5" fill="#AFC0C8" fill-rule="nonzero" transform="translate(37.000000, 19.500000) scale(-1, 1) translate(-37.000000, -19.500000) " points="34 33 34 -1.69135539e-17 40 5 40 39"></polygon>
                <polygon id="路径-7备份-4" stroke="#FFFFFF" opacity="0.25" transform="translate(17.000000, 22.000000) scale(-1, 1) translate(-17.000000, -22.000000) " points="31.5 7.5 31.5 36.5 2.5 36.5 2.5 7.5"></polygon>
                <polygon id="路径-7备份-4" stroke="#32526B" transform="translate(17.000000, 22.000000) scale(-1, 1) translate(-17.000000, -22.000000) " points="30.5 8.5 30.5 35.5 3.5 35.5 3.5 8.5"></polygon>
            </g>
            <g id="OrientDB" transform="translate(8.000000, 13.000000)">
                <polygon id="矩形备份-20" points="0 0 20 0 20 20 13.6025995 20 0 20"></polygon>
                <g id="图形" transform="translate(0.000000, 0.555556)">
                    <path d="M11.025641,0 C10.6982409,2.25324907 10.6982409,3.96265078 11.025641,5.12820513 C10.4698318,5.01314139 10.0884033,4.98603745 9.74358974,4.98603745 C9.39877616,4.98603745 8.83118548,5.05849683 8.46153846,5.12820513 C8.80440051,2.72268395 9.65910137,1.01328225 11.025641,0 Z" id="路径-2" fill="#FFFFFF" fill-rule="nonzero"></path>
                    <path d="M16.1774058,1.92151336 C15.8500057,4.17476243 15.8500057,5.88416414 16.1774058,7.04971849 C15.6215966,6.93465475 15.2401681,6.90755081 14.8953545,6.90755081 C14.550541,6.90755081 13.9829503,6.98001019 13.6133033,7.04971849 C13.9561653,4.64419731 14.8108662,2.9347956 16.1774058,1.92151336 Z" id="路径-2" fill="#23CCD1" fill-rule="nonzero" transform="translate(14.895355, 4.485616) rotate(45.000000) translate(-14.895355, -4.485616) "></path>
                    <path d="M18.4615378,6.92307661 C18.1341376,9.17632569 18.1341376,10.8857274 18.4615378,12.0512818 C17.9057286,11.936218 17.5243001,11.9091141 17.1794865,11.9091141 C16.8346729,11.9091141 16.2670822,11.9815735 15.8974352,12.0512818 C16.2402972,9.64576057 17.0949981,7.93635886 18.4615378,6.92307661 Z" id="路径-2" fill="#FFFFFF" fill-rule="nonzero" transform="translate(17.179486, 9.487179) rotate(90.000000) translate(-17.179486, -9.487179) "></path>
                    <path d="M16.5400254,12.0748408 C16.2126253,14.3280899 16.2126253,16.0374916 16.5400254,17.2030459 C15.9842162,17.0879822 15.6027877,17.0608783 15.2579741,17.0608783 C14.9131605,17.0608783 14.3455698,17.1333377 13.9759228,17.2030459 C14.3187849,14.7975248 15.1734857,13.0881231 16.5400254,12.0748408 Z" id="路径-2" fill="#23CCD1" fill-rule="nonzero" transform="translate(15.257974, 14.638943) rotate(135.000000) translate(-15.257974, -14.638943) "></path>
                    <path d="M11.538461,14.2816621 C11.2110609,16.5349111 11.2110609,18.2443129 11.538461,19.4098672 C10.9826519,19.2948035 10.6012233,19.2676995 10.2564098,19.2676995 C9.9115962,19.2676995 9.34400552,19.3401589 8.9743585,19.4098672 C9.31722056,17.004346 10.1719214,15.2949443 11.538461,14.2816621 Z" id="路径-2" fill="#FFFFFF" fill-rule="nonzero" transform="translate(10.256410, 16.845765) rotate(-180.000000) translate(-10.256410, -16.845765) "></path>
                    <path d="M6.38669578,12.3601494 C6.05929566,14.6133985 6.05929566,16.3228002 6.38669578,17.4883545 C5.8308866,17.3732908 5.44945808,17.3461868 5.1046445,17.3461868 C4.75983092,17.3461868 4.19224024,17.4186462 3.82259322,17.4883545 C4.16545527,15.0828333 5.02015613,13.3734316 6.38669578,12.3601494 Z" id="路径-2" fill="#23CCD1" fill-rule="nonzero" transform="translate(5.104644, 14.924252) rotate(-135.000000) translate(-5.104644, -14.924252) "></path>
                    <path d="M4.10256471,7.35858561 C3.77516459,9.61183468 3.77516459,11.3212364 4.10256471,12.4867908 C3.54675553,12.371727 3.165327,12.3446231 2.82051342,12.3446231 C2.47569984,12.3446231 1.90810916,12.4170825 1.53846214,12.4867908 C1.88132419,10.0812696 2.73602504,8.37186785 4.10256471,7.35858561 Z" id="路径-2" fill="#FFFFFF" fill-rule="nonzero" transform="translate(2.820513, 9.922688) rotate(-90.000000) translate(-2.820513, -9.922688) "></path>
                    <path d="M6.02407729,2.20682074 C5.69667716,4.46006982 5.69667716,6.16947153 6.02407729,7.33502587 C5.46826811,7.21996213 5.08683959,7.1928582 4.74202601,7.1928582 C4.39721243,7.1928582 3.82962174,7.26531758 3.45997473,7.33502587 C3.80283678,4.9295047 4.65753763,3.22010299 6.02407729,2.20682074 Z" id="路径-2" fill="#23CCD1" fill-rule="nonzero" transform="translate(4.742026, 4.770923) rotate(-45.000000) translate(-4.742026, -4.770923) "></path>
                    <circle id="椭圆形" stroke="#FFFFFF" stroke-width="1.5" cx="10" cy="9.74358974" r="3.07692308"></circle>
                </g>
            </g>
        </g>
    </g>
</svg>