<?xml version="1.0" encoding="UTF-8"?>
<svg width="42px" height="42px" viewBox="0 0 42 42" version="1.1" xmlns="http://www.w3.org/2000/svg" xmlns:xlink="http://www.w3.org/1999/xlink">
    <title>package</title>
    <g id="页面-1" stroke="none" stroke-width="1" fill="none" fill-rule="evenodd">
        <g id="package">
            <g id="背景区域" opacity="0" fill="#D8D8D8" fill-rule="nonzero">
                <rect id="矩形" x="0" y="0" width="42" height="42"></rect>
            </g>
            <g id="底块" transform="translate(0.909091, 0.424242)">
                <polygon id="路径-7备份-2" fill="#416480" fill-rule="nonzero" transform="translate(17.090909, 22.575758) scale(-1, 1) translate(-17.090909, -22.575758) " points="0.0909089 39.5757576 0.0909089 5.57575758 34.0909089 5.57575758 34.0909089 39.5757576"></polygon>
                <polygon id="路径-7备份-6" fill="#EEF3F7" fill-rule="nonzero" transform="translate(20.090909, 3.075758) rotate(180.000000) translate(-20.090909, -3.075758) " points="0.0909089 5.57575842 6.0909089 0.57575842 40.0909089 0.57575842 32.2909089 5.57575842"></polygon>
                <polygon id="路径-7备份-5" fill="#AFC0C8" fill-rule="nonzero" transform="translate(37.090909, 20.075758) scale(-1, 1) translate(-37.090909, -20.075758) " points="34.0909089 33.5757576 34.0909089 0.575757576 40.0909089 5.57575758 40.0909089 39.5757576"></polygon>
                <polygon id="路径-7备份-4" stroke="#FFFFFF" opacity="0.25" transform="translate(17.090909, 22.575758) scale(-1, 1) translate(-17.090909, -22.575758) " points="31.5909089 8.07575758 31.5909089 37.0757576 2.5909089 37.0757576 2.5909089 8.07575758"></polygon>
                <polygon id="路径-7备份-4" stroke="#32526B" transform="translate(17.090909, 22.575758) scale(-1, 1) translate(-17.090909, -22.575758) " points="30.5909089 9.07575758 30.5909089 36.0757576 3.5909089 36.0757576 3.5909089 9.07575758"></polygon>
            </g>
            <g id="程序包" transform="translate(8.000000, 13.000000)" fill-rule="nonzero">
                <rect id="矩形" fill="#D8D8D8" opacity="0" x="0" y="3.55271368e-15" width="20" height="20"></rect>
                <g id="编组-5" transform="translate(1.000000, 1.900000)">
                    <path d="M16.9221557,2.7 C17.5149701,2.7 18,3.18406375 18,3.77569721 L18,15.1243028 C18,15.7159363 17.5149701,16.2 16.9221557,16.2 L1.07784431,16.2 C0.48502994,16.2 0,15.7159363 0,15.1243028 L0,2.7 L16.9221557,2.7 Z M14.3059999,9.733 L14.301,9.741 L14.298,9.746 L14.301,9.742 L14.302,9.741 L14.307,9.734 L14.301,9.741 L14.308,9.732 L14.3270107,9.70660042 L14.3270107,9.70660042 L14.331,9.699 L14.351502,9.66277752 C14.3554678,9.65464263 14.3591924,9.64639701 14.3626499,9.6381341 L14.3721954,9.61338701 L14.3721954,9.61338701 L14.3827105,9.5796395 C14.3867612,9.56477455 14.3901037,9.54971401 14.3927411,9.53473893 C14.3950055,9.52168013 14.3967384,9.50853998 14.39792,9.49529132 C14.3992915,9.48034086 14.3999997,9.46532057 14.3999997,9.45070222 L14.3994945,9.42766642 L14.3994945,9.42766642 L14.3979423,9.40464035 C14.3967384,9.39146002 14.3950055,9.37831987 14.3927342,9.36547646 C14.3901037,9.35028599 14.3867612,9.33522545 14.3826357,9.3199298 L14.3826357,9.3199298 L14.3723966,9.28725462 C14.3664004,9.27020497 14.3594336,9.25349226 14.3513439,9.23695199 L14.3513439,9.23695199 L14.3352043,9.2067528 C14.326947,9.19262639 14.3179081,9.17891506 14.3079837,9.16565795 C14.3046338,9.16114415 14.3011914,9.15668228 14.2976563,9.15227524 L14.2825293,9.13438265 C14.275825,9.12690238 14.2688376,9.11962572 14.2615679,9.11256991 L14.2615679,9.11256991 L11.4797574,6.41257806 L11.4124374,6.35943061 C11.2474179,6.25522431 11.0331412,6.2892144 10.9023437,6.45227524 L10.9023437,6.45227524 L10.8540278,6.52632714 C10.7592948,6.70784859 10.7901949,6.94355288 10.9384321,7.08743009 L10.9384321,7.08743009 L13.3719999,9.45 L10.9384321,11.8125699 L10.8821099,11.879428 C10.767567,12.0465617 10.7715462,12.2846639 10.9023437,12.4477248 C11.0518266,12.63408 11.3103435,12.651853 11.4797574,12.4874219 L11.4797574,12.4874219 L14.2615679,9.78743009 L14.3059999,9.733 Z M3.67298932,9.19339958 L3.668,9.2 L3.648498,9.23722248 C3.64453221,9.24535737 3.6408076,9.25360299 3.63735007,9.2618659 L3.62780464,9.28661299 L3.62780464,9.28661299 L3.61728951,9.3203605 C3.61323877,9.33522545 3.60989628,9.35028599 3.60725889,9.36526107 C3.6049945,9.37831987 3.60326156,9.39146002 3.60207999,9.40470868 C3.60067825,9.41998845 3.59999993,9.43534115 3.59999993,9.45029094 L3.60052818,9.47282936 L3.60052818,9.47282936 L3.60205772,9.49535965 C3.60326156,9.50853998 3.6049945,9.52168013 3.60726577,9.53452354 C3.60989628,9.54971401 3.61323877,9.56477455 3.61736427,9.5800702 L3.61736427,9.5800702 L3.62760341,9.61274538 C3.63359955,9.62979503 3.64056642,9.64650774 3.64865607,9.66304801 L3.64865607,9.66304801 L3.66479572,9.6932472 C3.67305304,9.70737361 3.68209189,9.72108494 3.69201626,9.73434205 C3.69536622,9.73885585 3.69880865,9.74331772 3.70234372,9.74772476 L3.71747075,9.76561735 C3.72417501,9.77309762 3.73116244,9.78037428 3.73843207,9.78743009 L3.73843207,9.78743009 L6.52024262,12.4874219 L6.58756255,12.5405694 C6.75258209,12.6447757 6.96685878,12.6107856 7.09765628,12.4477248 L7.09765628,12.4477248 L7.14597216,12.3736729 C7.24070518,12.1921514 7.2098051,11.9564471 7.06156793,11.8125699 L7.06156793,11.8125699 L4.62699985,9.45 L7.06156793,7.08743009 L7.11789005,7.02057205 C7.23243303,6.85343832 7.22845378,6.61533607 7.09765628,6.45227524 C6.94817343,6.26591999 6.68965652,6.24814696 6.52024262,6.41257806 L6.52024262,6.41257806 L3.73843207,9.11256991 L3.728,9.123 L3.71809021,9.13370837 C3.71540441,9.13670364 3.71274864,9.13974857 3.71012389,9.14284307 L3.70234372,9.15227524 L3.728,9.123 L3.698,9.158 L3.697,9.158 L3.67298932,9.19339958 L3.67298932,9.19339958 Z" id="形状结合" fill="#EFF3F8"></path>
                    <path d="M8.1,2.7 L7.22155689,0 L1.07784431,0 C0.48502994,0 0,0.48502994 0,1.07784431 L0,2.7 L8.1,2.7 Z" id="路径" fill="#23CCD1"></path>
                </g>
            </g>
        </g>
    </g>
</svg>