<?xml version="1.0" encoding="UTF-8"?>
<svg width="42px" height="42px" viewBox="0 0 42 42" version="1.1" xmlns="http://www.w3.org/2000/svg" xmlns:xlink="http://www.w3.org/1999/xlink">
    <title>pc</title>
    <g id="页面-1" stroke="none" stroke-width="1" fill="none" fill-rule="evenodd">
        <g id="pc">
            <g id="背景区域" opacity="0" fill="#D8D8D8" fill-rule="nonzero">
                <rect id="矩形" x="0" y="0" width="42" height="42"></rect>
            </g>
            <g id="底块" transform="translate(0.909091, 0.424242)">
                <polygon id="路径-7备份-2" fill="#416480" fill-rule="nonzero" transform="translate(17.090909, 22.575758) scale(-1, 1) translate(-17.090909, -22.575758) " points="0.0909089 39.5757576 0.0909089 5.57575758 34.0909089 5.57575758 34.0909089 39.5757576"></polygon>
                <g id="编组" transform="translate(7.090909, 13.575758)" fill="#EFF3F8" fill-rule="nonzero">
                    <path d="M13.7777778,17.5555556 L6.14814815,17.5555556 C5.55555556,17.4814815 5.18518519,16.962963 5.25925926,16.4444444 C5.18518519,15.8518519 5.62962963,15.4074074 6.14814815,15.3333333 L13.7777778,15.3333333 C14.3703704,15.4074074 14.7407407,15.9259259 14.6666667,16.4444444 C14.7407407,16.962963 14.2962963,17.4814815 13.7777778,17.5555556" id="路径"></path>
                    <path d="M0.37037037,12.0740741 C0.37037037,13.3333333 1.40740741,14.2962963 2.66666667,14.2962963 L17.2592593,14.2962963 C18.5185185,14.2962963 19.5555556,13.3333333 19.6296296,12.0740741 L19.6296296,11.037037 L0.37037037,11.037037 L0.37037037,12.0740741 Z" id="路径"></path>
                    <path d="M19.6296296,2.51851852 C19.5555556,1.33333333 18.5185185,0.37037037 17.3333333,0.444444444 L2.74074074,0.444444444 C1.55555556,0.37037037 0.444444444,1.33333333 0.37037037,2.51851852 L0.37037037,10.2222222 L19.6296296,10.2222222 L19.6296296,2.51851852 Z" id="路径"></path>
                </g>
                <polygon id="路径-7备份-6" fill="#EEF3F7" fill-rule="nonzero" transform="translate(20.090909, 3.075758) rotate(180.000000) translate(-20.090909, -3.075758) " points="0.0909089 5.57575842 6.0909089 0.57575842 40.0909089 0.57575842 32.2909089 5.57575842"></polygon>
                <polygon id="路径-7备份-5" fill="#AFC0C8" fill-rule="nonzero" transform="translate(37.090909, 20.075758) scale(-1, 1) translate(-37.090909, -20.075758) " points="34.0909089 33.5757576 34.0909089 0.575757576 40.0909089 5.57575758 40.0909089 39.5757576"></polygon>
                <polygon id="路径-7备份-4" stroke="#FFFFFF" opacity="0.25" transform="translate(17.090909, 22.575758) scale(-1, 1) translate(-17.090909, -22.575758) " points="31.5909089 8.07575758 31.5909089 37.0757576 2.5909089 37.0757576 2.5909089 8.07575758"></polygon>
                <polygon id="路径-7备份-4" stroke="#32526B" transform="translate(17.090909, 22.575758) scale(-1, 1) translate(-17.090909, -22.575758) " points="30.5909089 9.07575758 30.5909089 36.0757576 3.5909089 36.0757576 3.5909089 9.07575758"></polygon>
            </g>
        </g>
    </g>
</svg>