<?xml version="1.0" encoding="UTF-8"?>
<svg width="42px" height="42px" viewBox="0 0 42 42" version="1.1" xmlns="http://www.w3.org/2000/svg" xmlns:xlink="http://www.w3.org/1999/xlink">
    <title>port</title>
    <g id="页面-1" stroke="none" stroke-width="1" fill="none" fill-rule="evenodd">
        <g id="port">
            <g id="背景区域" opacity="0" fill="#D8D8D8" fill-rule="nonzero">
                <rect id="矩形" x="0" y="0" width="42" height="42"></rect>
            </g>
            <g id="底块" transform="translate(0.909091, 0.424242)">
                <polygon id="路径-7备份-2" fill="#416480" fill-rule="nonzero" transform="translate(17.090909, 22.575758) scale(-1, 1) translate(-17.090909, -22.575758) " points="0.0909089 39.5757576 0.0909089 5.57575758 34.0909089 5.57575758 34.0909089 39.5757576"></polygon>
                <polygon id="路径-7备份-6" fill="#EEF3F7" fill-rule="nonzero" transform="translate(20.090909, 3.075758) rotate(180.000000) translate(-20.090909, -3.075758) " points="0.0909089 5.57575842 6.0909089 0.57575842 40.0909089 0.57575842 32.2909089 5.57575842"></polygon>
                <polygon id="路径-7备份-5" fill="#AFC0C8" fill-rule="nonzero" transform="translate(37.090909, 20.075758) scale(-1, 1) translate(-37.090909, -20.075758) " points="34.0909089 33.5757576 34.0909089 0.575757576 40.0909089 5.57575758 40.0909089 39.5757576"></polygon>
                <polygon id="路径-7备份-4" stroke="#FFFFFF" opacity="0.25" transform="translate(17.090909, 22.575758) scale(-1, 1) translate(-17.090909, -22.575758) " points="31.5909089 8.07575758 31.5909089 37.0757576 2.5909089 37.0757576 2.5909089 8.07575758"></polygon>
                <polygon id="路径-7备份-4" stroke="#32526B" transform="translate(17.090909, 22.575758) scale(-1, 1) translate(-17.090909, -22.575758) " points="30.5909089 9.07575758 30.5909089 36.0757576 3.5909089 36.0757576 3.5909089 9.07575758"></polygon>
            </g>
            <g id="Icon/端口" transform="translate(8.000000, 13.000000)" fill-rule="nonzero">
                <rect id="矩形" fill="#D8D8D8" opacity="0" x="0" y="3.55271368e-15" width="20" height="20"></rect>
                <g id="端口" transform="translate(2.000000, 0.000000)">
                    <g id="端口备份-2" transform="translate(0.500000, 0.000000)">
                        <g id="编组" transform="translate(0.777778, 0.000000)">
                            <rect id="矩形" fill="#EFF3F8" x="9.76216216" y="5.96756757" width="3.78378378" height="3.78378378"></rect>
                            <circle id="椭圆形" fill="#EFF3F8" cx="2.25405405" cy="7.85945946" r="1.89189189"></circle>
                            <circle id="椭圆形" fill="#EFF3F8" cx="6.97297297" cy="17.7135135" r="1.89189189"></circle>
                            <polygon id="路径" fill="#EFF3F8" points="7.72297297 2.54054054 7.72297297 17.4864865 6.22297297 17.4864865 6.22297297 2.54054054"></polygon>
                            <polyline id="路径" fill="#23CCD1" points="2.64864865 4.47027027 6.97297297 0.145945946 11.2972973 4.47027027"></polyline>
                            <path d="M2.25405405,8.86621622 C2.63374982,8.86621622 2.94754501,9.1483701 2.99720744,9.51444566 L3.00405405,9.61621622 L3.00405405,11.9891892 C3.00405405,12.4034028 2.66826762,12.7391892 2.25405405,12.7391892 C1.87435829,12.7391892 1.56056309,12.4570353 1.51090067,12.0909597 L1.50405405,11.9891892 L1.50405405,9.61621622 C1.50405405,9.20200265 1.83984049,8.86621622 2.25405405,8.86621622 Z" id="路径" fill="#EFF3F8"></path>
                            <path d="M11.6540541,11.2391892 C12.0682676,11.2391892 12.4040541,11.5749756 12.4040541,11.9891892 C12.4040541,12.368885 12.1219002,12.6826802 11.7558246,12.7323426 L11.6540541,12.7391892 L6.97297297,12.7391892 C6.55875941,12.7391892 6.22297297,12.4034028 6.22297297,11.9891892 C6.22297297,11.6094934 6.50512685,11.2956982 6.87120242,11.2460358 L6.97297297,11.2391892 L11.6540541,11.2391892 Z" id="路径" fill="#EFF3F8"></path>
                            <path d="M11.6594595,8.86621622 C12.0391552,8.86621622 12.3529504,9.1483701 12.4026128,9.51444566 L12.4094595,9.61621622 L12.4094595,11.9891892 C12.4094595,12.4034028 12.073673,12.7391892 11.6594595,12.7391892 C11.2797637,12.7391892 10.9659685,12.4570353 10.9163061,12.0909597 L10.9094595,11.9891892 L10.9094595,9.61621622 C10.9094595,9.20200265 11.2452459,8.86621622 11.6594595,8.86621622 Z" id="路径" fill="#EFF3F8"></path>
                            <path d="M6.94054054,11.2391892 C7.3547541,11.2391892 7.69054054,11.5749756 7.69054054,11.9891892 C7.69054054,12.368885 7.40838666,12.6826802 7.0423111,12.7323426 L6.94054054,12.7391892 L2.25405405,12.7391892 C1.83984049,12.7391892 1.50405405,12.4034028 1.50405405,11.9891892 C1.50405405,11.6094934 1.78620794,11.2956982 2.1522835,11.2460358 L2.25405405,11.2391892 L6.94054054,11.2391892 Z" id="路径" fill="#EFF3F8"></path>
                        </g>
                    </g>
                </g>
            </g>
        </g>
    </g>
</svg>