<?xml version="1.0" encoding="UTF-8"?>
<svg width="56px" height="56px" viewBox="0 0 56 56" version="1.1" xmlns="http://www.w3.org/2000/svg" xmlns:xlink="http://www.w3.org/1999/xlink">
    <title>rack</title>
    <g id="页面-1" stroke="none" stroke-width="1" fill="none" fill-rule="evenodd">
        <g id="rack" fill-rule="nonzero">
            <g id="背景区域" opacity="0" fill="#D8D8D8">
                <rect id="矩形" x="0" y="0" width="56" height="56"></rect>
            </g>
            <g id="图形" transform="translate(4.000000, 1.000000)">
                <polygon id="路径-7" fill="#ABBCC4" points="23.9669421 37.2987573 23.9669421 30.9901265 34.705521 24.1922161 47.9338843 15.8181818 47.9338843 22.3726757 34.8306997 30.5330494"></polygon>
                <polygon id="路径-7备份-2" fill="#416480" transform="translate(11.983471, 26.558470) scale(-1, 1) translate(-11.983471, -26.558470) " points="-1.00000001e-07 37.2987573 -1.00000001e-07 30.9901265 23.966942 15.8181818 23.966942 22.3726757"></polygon>
                <polygon id="路径-7备份-8" fill="#ABBCC4" points="23.9669421 45.2987573 23.9669421 38.9901265 34.8404025 32.1068313 47.9338843 23.8181818 47.9338843 30.3726757 34.9943194 38.4311506"></polygon>
                <polygon id="路径-7备份-7" fill="#416480" transform="translate(11.983471, 34.558470) scale(-1, 1) translate(-11.983471, -34.558470) " points="-1.00000001e-07 45.2987573 -1.00000001e-07 38.9901265 23.966942 23.8181818 23.966942 30.3726757"></polygon>
                <polygon id="路径-7备份-10" fill="#ABBCC4" points="23.9669421 53.2987573 23.9669421 46.9901265 47.9338843 31.8181818 47.9338843 38.3726757 34.8614641 46.51389"></polygon>
                <polygon id="路径-7备份-9" fill="#416480" transform="translate(11.983471, 42.558470) scale(-1, 1) translate(-11.983471, -42.558470) " points="-1.00000001e-07 53.2987573 -1.00000001e-07 46.9901265 23.966942 31.8181818 23.966942 38.3726757"></polygon>
                <polygon id="矩形" fill="#EEF3F7" points="17.84573 29.4545455 21.84573 31.9239768 21.84573 33.9239768 17.84573 31.4545455"></polygon>
                <polygon id="矩形备份-23" fill="#23CCD1" points="17.84573 37.4545455 21.84573 39.9239768 21.84573 41.9239768 17.84573 39.4545455"></polygon>
                <polygon id="矩形备份-24" fill="#EEF3F7" points="17.84573 45.4545455 21.84573 47.9239768 21.84573 49.9239768 17.84573 47.4545455"></polygon>
                <polygon id="路径-8" fill="#EEF3F7" points="23.9669421 30.9901265 47.9338843 15.8181818 23.9669421 0.163442983 2.77111667e-13 15.8181818"></polygon>
                <polygon id="路径-4备份" fill="#EEF3F7" points="23.9669421 29.5272727 45.5371901 15.7733803 23.9669421 1.58181818 2.39669421 15.7733803"></polygon>
            </g>
        </g>
    </g>
</svg>