<?xml version="1.0" encoding="UTF-8"?>
<svg width="42px" height="42px" viewBox="0 0 42 42" version="1.1" xmlns="http://www.w3.org/2000/svg" xmlns:xlink="http://www.w3.org/1999/xlink">
    <title>redis</title>
    <g id="页面-1" stroke="none" stroke-width="1" fill="none" fill-rule="evenodd">
        <g id="redis">
            <g id="背景区域" opacity="0" fill="#D8D8D8" fill-rule="nonzero">
                <rect id="矩形" x="5.68434189e-14" y="0" width="42" height="42"></rect>
            </g>
            <g id="底块" transform="translate(0.909091, 0.424242)">
                <polygon id="路径-7备份-2" fill="#416480" fill-rule="nonzero" transform="translate(17.090909, 22.575758) scale(-1, 1) translate(-17.090909, -22.575758) " points="0.0909089 39.5757576 0.0909089 5.57575758 34.0909089 5.57575758 34.0909089 39.5757576"></polygon>
                <polygon id="路径-7备份-6" fill="#EEF3F7" fill-rule="nonzero" transform="translate(20.090909, 3.075758) rotate(180.000000) translate(-20.090909, -3.075758) " points="0.0909089 5.57575842 6.0909089 0.57575842 40.0909089 0.57575842 32.2909089 5.57575842"></polygon>
                <polygon id="路径-7备份-5" fill="#AFC0C8" fill-rule="nonzero" transform="translate(37.090909, 20.075758) scale(-1, 1) translate(-37.090909, -20.075758) " points="34.0909089 33.5757576 34.0909089 0.575757576 40.0909089 5.57575758 40.0909089 39.5757576"></polygon>
                <polygon id="路径-7备份-4" stroke="#FFFFFF" opacity="0.25" transform="translate(17.090909, 22.575758) scale(-1, 1) translate(-17.090909, -22.575758) " points="31.5909089 8.07575758 31.5909089 37.0757576 2.5909089 37.0757576 2.5909089 8.07575758"></polygon>
                <polygon id="路径-7备份-4" stroke="#32526B" transform="translate(17.090909, 22.575758) scale(-1, 1) translate(-17.090909, -22.575758) " points="30.5909089 9.07575758 30.5909089 36.0757576 3.5909089 36.0757576 3.5909089 9.07575758"></polygon>
            </g>
            <g id="Icon/redis" transform="translate(8.000000, 13.000000)">
                <rect id="矩形" fill="#D8D8D8" fill-rule="nonzero" opacity="0" x="0" y="0" width="20" height="20"></rect>
                <g id="服务节点">
                    <rect id="矩形备份-3" fill="#D8D8D8" fill-rule="nonzero" opacity="0" x="0" y="0" width="20" height="20"></rect>
                    <g id="Redis" transform="translate(1.000000, 1.000000)">
                        <rect id="矩形备份-4" opacity="0.446149554" x="0" y="0" width="18" height="18"></rect>
                        <g id="编组-3" fill-rule="nonzero">
                            <path d="M17.8512172,12.0950196 C17.8512172,12.0950196 13.487668,13.8000157 9.07354687,15.4682149 C9.02486368,15.4866134 8.97444436,15.4865697 8.9256086,15.4682149 C5.96652532,14.356053 3.02419762,13.2316545 0.0986255094,12.0950196 C0.0493127547,12.0950196 0.0493127547,12.0475098 0,12 L0,14.518019 C0,14.5655288 0.048751822,14.5937105 0.0986255094,14.6130386 C0.148499197,14.6323668 4.48698368,16.317991 8.9256086,17.9862339 C8.97444436,18.0045887 9.02471111,18.0045887 9.07354687,17.9862339 C13.5121718,16.317991 17.8024155,14.6511629 17.90053,14.6130386 C17.9659396,14.5876225 17.9988148,14.5559493 17.9991555,14.518019 C18.0002815,12.8821555 18.0002815,12.0550023 17.9991555,12.0365594 C17.9974664,12.0088951 17.8512172,12.0950196 17.8512172,12.0950196 Z" id="路径" fill="#EFF3F8"></path>
                            <path d="M0.0598303818,10.6188291 C4.40907973,12.3134661 4.45298618,12.3208883 8.89627717,13.9862315 C8.94525801,14.0045895 8.99539321,14.0045895 9.04437405,13.9862315 C13.487665,12.3208883 17.7826868,10.6568547 17.8808208,10.6188291 C17.9462435,10.5934787 17.9859699,10.5575976 18,10.5111857 L18,8 C18,8.0474282 17.9388707,8.06315177 17.8808208,8.09510233 C17.822771,8.12705289 13.5125351,9.80226318 9.09373967,11.4725368 C9.04494609,11.4909804 8.99467079,11.4909124 8.9456428,11.4725368 C5.98348024,10.3623197 3.03799797,9.23985228 0.109196006,8.10513437 C0.0598303818,8.10513437 0.0598303818,8.05770617 0.0104647573,8.01027797 L0.0104647573,10.5239727 C0.0104647573,10.5747223 -0.0338264787,10.5823368 0.0598303818,10.6188291 Z" id="路径" fill="#EFF3F8"></path>
                            <path d="M17.9013699,3.400462 C17.9013699,3.400462 14.9589041,2.26697466 9.0739726,0 L8.9260274,0 L0.098630137,3.400462 C0.0493150685,3.400462 0,3.44835583 0,3.49624966 L0,5.98672887 C0,6.0346227 0.0493150685,6.08251653 0.098630137,6.08251653 C3.0317162,7.23113406 5.97418195,8.36462139 8.9260274,9.48297852 C8.98593046,9.50567383 9.01406954,9.50567383 9.0739726,9.48297852 C12.025818,8.36462139 14.9682838,7.23113406 17.9013699,6.08251653 L18,5.98672887 L18,3.49624966 C17.9506849,3.400462 17.9506849,3.400462 17.9013699,3.400462 Z" id="路径" fill="#EFF3F8"></path>
                            <path d="M6.03871918,1.95120048 C6.60021398,1.85803746 7.16812951,1.76639866 7.74246575,1.67628408 C7.49551047,1.26046623 7.36400362,1.03696169 7.34794521,1.00577045 C7.32385758,0.958983594 7.32431126,0.926829577 7.33612823,0.909982788 C7.34400622,0.898751595 7.36438356,0.898751595 7.39726027,0.909982788 L8.82739726,1.43681493 L10.5041096,1.14945194 C10.5287541,1.14220934 10.5451924,1.14220934 10.5534247,1.14945194 C10.565773,1.16031584 10.5774634,1.1755562 10.5534247,1.19734577 C10.3228752,1.40632394 10.0762998,1.61386387 9.81369863,1.81996558 L11.1945205,2.34679772 C11.1945205,2.34679772 11.2411499,2.35247168 11.2411499,2.40036551 C11.2411499,2.44825934 11.1452055,2.44258538 11.1452055,2.44258538 L9.22191781,2.34679772 C8.95132578,2.57602665 8.67187373,2.79953119 8.38356164,3.01731135 C8.37219415,3.02589793 8.33913494,3.02680632 8.33424658,3.01731135 C8.18956028,2.73627834 8.05805343,2.44891536 7.93972603,2.15522239 C6.71374453,2.10310823 6.07264864,2.07117901 6.01643836,2.05943473 C5.91026022,2.03725042 5.85950109,1.98093628 6.03871918,1.95120048 Z" id="路径" fill="#23CCD1"></path>
                            <path d="M4.69981346,4.38832628 C4.20230921,4.38832628 3.65421378,4.31009974 3.20547945,4.16676329 C2.75674513,4.02342684 2.60215152,3.78442456 2.56819997,3.59203732 C2.53424842,3.39965008 2.6956002,3.14298124 3.08041861,3.01731135 C3.46523702,2.89164145 3.99238064,2.8140566 4.54392073,2.83238833 C5.09546082,2.85072005 5.39338465,2.87362986 5.88653534,3.01731135 C6.37968602,3.16099284 6.61136171,3.4131839 6.64894982,3.66807338 C6.68653792,3.92296286 6.5955321,4.07097563 6.11506849,4.21465712 C5.63460488,4.35833861 5.19731771,4.38832628 4.69981346,4.38832628 Z" id="路径" fill="#23CCD1"></path>
                            <path d="M9.51780822,6.41777334 C7.35365844,5.56526619 6.27587891,5.1282614 6.2844696,5.10675897 C6.2930603,5.08525655 7.69960696,4.93157076 10.5041096,4.6457016 L9.51780822,6.41777334 Z" id="路径" fill="#23CCD1"></path>
                            <path d="M15.6328767,3.59203732 C14.9662449,3.90855366 14.2265189,4.21188125 13.4136986,4.50202011 C12.5083527,4.17105525 11.6699965,3.85176305 10.8986301,3.54414349 C10.7775253,3.49584711 10.7802578,3.4499873 10.8986301,3.400462 C11.5811482,3.11490604 12.3208742,2.81157844 13.1178082,2.49047921 C14.0324616,2.79529448 14.8708177,3.11458669 15.6328767,3.44835583 C15.7473225,3.49848117 15.742518,3.53997969 15.6328767,3.59203732 Z" id="路径" fill="#23CCD1"></path>
                        </g>
                    </g>
                </g>
            </g>
        </g>
    </g>
</svg>