<?xml version="1.0" encoding="UTF-8"?>
<svg width="42px" height="42px" viewBox="0 0 42 42" version="1.1" xmlns="http://www.w3.org/2000/svg" xmlns:xlink="http://www.w3.org/1999/xlink">
    <title>rfid</title>
    <g id="页面-1" stroke="none" stroke-width="1" fill="none" fill-rule="evenodd">
        <g id="rfid">
            <g id="背景区域" opacity="0" fill="#D8D8D8" fill-rule="nonzero">
                <rect id="矩形" x="0" y="0" width="42" height="42"></rect>
            </g>
            <g id="底块" transform="translate(0.909091, 0.424242)">
                <polygon id="路径-7备份-2" fill="#416480" fill-rule="nonzero" transform="translate(17.090909, 22.575758) scale(-1, 1) translate(-17.090909, -22.575758) " points="0.0909089 39.5757576 0.0909089 5.57575758 34.0909089 5.57575758 34.0909089 39.5757576"></polygon>
                <g id="编组" transform="translate(7.090909, 12.575758)">
                    <polygon id="矩形备份-24" points="0 0 20 0 20 20 13.6025995 20 0 20"></polygon>
                    <path d="M8.88888889,1.11111111 C13.7980867,1.11111111 17.7777778,5.09080222 17.7777778,10 C17.7777778,10.3765421 17.7543649,10.7476158 17.7089154,11.1118448 L16.587824,11.1116512 C16.6397823,10.748587 16.6666667,10.3774331 16.6666667,10 C16.6666667,5.70445195 13.1844369,2.22222222 8.88888889,2.22222222 C4.59334083,2.22222222 1.11111111,5.70445195 1.11111111,10 C1.11111111,14.2955481 4.59334083,17.7777778 8.88888889,17.7777778 C9.26632198,17.7777778 9.63747589,17.7508934 10.0005401,17.6989351 L10.0007337,18.8200265 C9.6365047,18.865476 9.26543098,18.8888889 8.88888889,18.8888889 C3.97969111,18.8888889 0,14.9091978 0,10 C0,5.09080222 3.97969111,1.11111111 8.88888889,1.11111111 Z" id="形状结合" fill="#FFFFFF" fill-rule="nonzero"></path>
                    <path d="M8.88888889,4.44444444 C11.9571375,4.44444444 14.4444444,6.93175139 14.4444444,10 C14.4444444,10.3805167 14.4061888,10.7520984 14.3333137,11.1111087 L13.1932578,11.1113289 C13.284699,10.7561301 13.3333333,10.3837446 13.3333333,10 C13.3333333,7.54540111 11.3434878,5.55555556 8.88888889,5.55555556 C6.43429,5.55555556 4.44444444,7.54540111 4.44444444,10 C4.44444444,12.4545989 6.43429,14.4444444 8.88888889,14.4444444 C9.27263351,14.4444444 9.64501897,14.3958101 10.0002178,14.304369 L9.99999754,15.4444248 C9.64098726,15.5172999 9.26940562,15.5555556 8.88888889,15.5555556 C5.82064028,15.5555556 3.33333333,13.0682486 3.33333333,10 C3.33333333,6.93175139 5.82064028,4.44444444 8.88888889,4.44444444 Z" id="形状结合" fill="#FFFFFF" fill-rule="nonzero"></path>
                    <g id="编组-13" transform="translate(6.777778, 7.888889)" fill-rule="nonzero">
                        <circle id="椭圆形" fill="#FFFFFF" cx="1.94594595" cy="1.94594595" r="1"></circle>
                        <path d="M12.5666667,3.98798799 C12.6218951,3.98798799 12.6666667,4.03278608 12.6666667,4.08801456 L12.6666667,11.0351351 C12.6666667,11.0903636 12.6218951,11.1351351 12.5666667,11.1351351 L4.0880142,11.1351351 C4.03278573,11.1351351 3.98798799,11.0903636 3.98798799,11.0351351 L3.98798799,6.01798799 L5.98998799,3.98798799 L12.5666667,3.98798799 Z M8.32732733,6.7957958 C7.90440657,6.7957958 7.56156156,7.13864081 7.56156156,7.56156156 C7.56156156,7.98448232 7.90440657,8.32732733 8.32732733,8.32732733 C8.75024808,8.32732733 9.09309309,7.98448232 9.09309309,7.56156156 C9.09309309,7.13864081 8.75024808,6.7957958 8.32732733,6.7957958 Z" id="形状结合" fill="#23CCD1"></path>
                    </g>
                </g>
                <polygon id="路径-7备份-6" fill="#EEF3F7" fill-rule="nonzero" transform="translate(20.090909, 3.075758) rotate(180.000000) translate(-20.090909, -3.075758) " points="0.0909089 5.57575842 6.0909089 0.57575842 40.0909089 0.57575842 32.2909089 5.57575842"></polygon>
                <polygon id="路径-7备份-5" fill="#AFC0C8" fill-rule="nonzero" transform="translate(37.090909, 20.075758) scale(-1, 1) translate(-37.090909, -20.075758) " points="34.0909089 33.5757576 34.0909089 0.575757576 40.0909089 5.57575758 40.0909089 39.5757576"></polygon>
                <polygon id="路径-7备份-4" stroke="#FFFFFF" opacity="0.25" transform="translate(17.090909, 22.575758) scale(-1, 1) translate(-17.090909, -22.575758) " points="31.5909089 8.07575758 31.5909089 37.0757576 2.5909089 37.0757576 2.5909089 8.07575758"></polygon>
                <polygon id="路径-7备份-4" stroke="#32526B" transform="translate(17.090909, 22.575758) scale(-1, 1) translate(-17.090909, -22.575758) " points="30.5909089 9.07575758 30.5909089 36.0757576 3.5909089 36.0757576 3.5909089 9.07575758"></polygon>
            </g>
        </g>
    </g>
</svg>