<?xml version="1.0" encoding="UTF-8"?>
<svg width="42px" height="42px" viewBox="0 0 42 42" version="1.1" xmlns="http://www.w3.org/2000/svg" xmlns:xlink="http://www.w3.org/1999/xlink">
    <title>router</title>
    <defs>
        <linearGradient x1="50%" y1="1.99956294%" x2="50%" y2="100%" id="linearGradient-1">
            <stop stop-color="#D9E3EC" offset="0%"></stop>
            <stop stop-color="#ABBCC4" offset="100%"></stop>
        </linearGradient>
    </defs>
    <g id="页面-1" stroke="none" stroke-width="1" fill="none" fill-rule="evenodd">
        <g id="router">
            <g id="背景区域" opacity="0" fill="#D8D8D8" fill-rule="nonzero">
                <rect id="矩形" x="0" y="0" width="42" height="42"></rect>
            </g>
            <g id="图形" transform="translate(0.500000, 4.000000)">
                <path d="M20.3,8.43636364 C26.1803236,8.43636364 31.4766842,10.059898 35.1840007,12.6543167 L40.6,12.6545455 L40.6,22.1454545 L40.5840178,22.1460981 C40.1572911,29.1814783 31.2390981,34.8 20.3,34.8 C9.3609019,34.8 0.442708915,29.1814783 0.0159822109,22.1460981 L0,22.1454545 L0,12.6545455 L5.41599925,12.6543167 C9.1233158,10.059898 14.4196764,8.43636364 20.3,8.43636364 Z" id="形状结合" fill="url(#linearGradient-1)" fill-rule="nonzero"></path>
                <ellipse id="椭圆形备份-10" fill="#416480" fill-rule="nonzero" cx="20.3" cy="13.1818182" rx="20.3" ry="13.1818182"></ellipse>
                <ellipse id="椭圆形备份-13" stroke="#BAC9D1" stroke-width="0.6" fill="#416480" fill-rule="nonzero" cx="20.3" cy="13.1818182" rx="17.8909091" ry="10.7727273"></ellipse>
                <g id="形状结合备份-3" transform="translate(6.000000, 3.000000)">
                    <g id="path-2-link" fill="#000000" fill-rule="nonzero">
                        <path d="M18.7818182,15.5204545 L17.7475524,16.5090909 L15.0309983,13.9128198 L15.0313363,19.1454545 L13.5686637,19.1454545 L13.5685465,13.9128198 L10.8524476,16.5090909 L9.8181818,15.5204545 L14.3,11.2363636 L18.7818182,15.5204545 Z M6.5666667,6.49090909 L7.8848485,7.2818182 L4.4231537,9.358835 L11.4,9.3589246 L11.4,10.477439 L4.4231537,10.4771805 L7.8848485,12.5545455 L6.5666667,13.3454545 L0.85454545,9.9181818 L6.5666667,6.49090909 Z M22.5606061,6.49090909 L28.2727273,9.9181818 L22.5606061,13.3454545 L21.2424242,12.5545455 L24.704119,10.4775286 L17.7272727,10.477439 L17.7272727,9.3589246 L24.704119,9.3591831 L21.2424242,7.2818182 L22.5606061,6.49090909 Z M18.7818182,4.05227273 L14.3,8.3363636 L9.8181818,4.05227273 L10.8524476,3.06363636 L13.5690017,5.65990744 L13.5686637,0.42727273 L15.0313363,0.42727273 L15.0314535,5.65990744 L17.7475524,3.06363636 L18.7818182,4.05227273 Z" id="path-2"></path>
                    </g>
                    <g id="path-2-link" fill="#FFFFFF">
                        <path d="M18.7818182,15.5204545 L17.7475524,16.5090909 L15.0309983,13.9128198 L15.0313363,19.1454545 L13.5686637,19.1454545 L13.5685465,13.9128198 L10.8524476,16.5090909 L9.8181818,15.5204545 L14.3,11.2363636 L18.7818182,15.5204545 Z M6.5666667,6.49090909 L7.8848485,7.2818182 L4.4231537,9.358835 L11.4,9.3589246 L11.4,10.477439 L4.4231537,10.4771805 L7.8848485,12.5545455 L6.5666667,13.3454545 L0.85454545,9.9181818 L6.5666667,6.49090909 Z M22.5606061,6.49090909 L28.2727273,9.9181818 L22.5606061,13.3454545 L21.2424242,12.5545455 L24.704119,10.4775286 L17.7272727,10.477439 L17.7272727,9.3589246 L24.704119,9.3591831 L21.2424242,7.2818182 L22.5606061,6.49090909 Z M18.7818182,4.05227273 L14.3,8.3363636 L9.8181818,4.05227273 L10.8524476,3.06363636 L13.5690017,5.65990744 L13.5686637,0.42727273 L15.0313363,0.42727273 L15.0314535,5.65990744 L17.7475524,3.06363636 L18.7818182,4.05227273 Z" id="path-2"></path>
                    </g>
                </g>
                <polygon id="路径" fill="#23CCD1" fill-rule="nonzero" transform="translate(20.300000, 18.190909) rotate(90.000000) translate(-20.300000, -18.190909) " points="20.6295454 13.7090908 21.6181817 14.7433565 19.0219106 17.4599107 24.2545454 17.4595727 24.2545454 18.9222453 19.0219106 18.9223625 21.6181817 21.6384614 20.6295454 22.6727272 16.3454544 18.190909"></polygon>
                <polygon id="路径" fill="#23CCD1" fill-rule="nonzero" transform="translate(20.300000, 7.381818) rotate(90.000000) translate(-20.300000, -7.381818) " points="19.9704543 2.8999998 24.2545453 7.38181798 19.9704543 11.8636362 18.981818 10.8293704 21.5780891 8.11281626 16.3454543 8.1131543 16.3454543 6.65048167 21.5780891 6.65036451 18.981818 3.93426553"></polygon>
            </g>
        </g>
    </g>
</svg>