<?xml version="1.0" encoding="UTF-8"?>
<svg width="42px" height="42px" viewBox="0 0 42 42" version="1.1" xmlns="http://www.w3.org/2000/svg" xmlns:xlink="http://www.w3.org/1999/xlink">
    <title>security-service</title>
    <g id="页面-1" stroke="none" stroke-width="1" fill="none" fill-rule="evenodd">
        <g id="security-service">
            <g id="背景区域" opacity="0" fill="#D8D8D8" fill-rule="nonzero">
                <rect id="矩形" x="-2.84217094e-14" y="0" width="42" height="42"></rect>
            </g>
            <g id="底块" transform="translate(0.909091, 0.424242)">
                <polygon id="路径-7备份-2" fill="#416480" fill-rule="nonzero" transform="translate(17.090909, 22.575758) scale(-1, 1) translate(-17.090909, -22.575758) " points="0.0909089 39.5757576 0.0909089 5.57575758 34.0909089 5.57575758 34.0909089 39.5757576"></polygon>
                <g id="编组" transform="translate(7.090909, 13.575758)">
                    <polygon id="矩形备份-21" points="0 0 20 0 20 20 13.6025995 20 0 20"></polygon>
                    <g id="编组-15" transform="translate(2.777778, 0.555556)" fill-rule="nonzero">
                        <path d="M7.00466859,1.97354288 L11.9744017,3.56007931 C12.0901851,3.59947429 12.1602227,3.6885622 12.1602227,3.77327327 L12.1602227,12.5968468 C12.1602227,12.6490152 12.1360547,12.6986014 12.0890644,12.7355223 L7.15031516,16.8579357 C6.9966831,16.9850747 6.70376735,16.9850747 6.5488145,16.8568379 L1.62070586,12.7430708 C1.56439578,12.6986014 1.54022773,12.6490152 1.54022773,12.5968468 L1.54022773,3.77327327 C1.54022773,3.68157292 1.60533848,3.59808413 1.72449644,3.56057144 L6.69902004,1.97251021 C6.79716866,1.94075625 6.90034751,1.94075625 7.00466859,1.97354288 Z" id="形状结合-path" fill="#FFFFFF"></path>
                        <path d="M9.32953668,6.86059574 L5.79673081,10.3934016 L4.17354974,8.77022053 C4.01535124,8.61202203 3.7588608,8.61202203 3.6006623,8.77022053 C3.4424638,8.92841903 3.4424638,9.18490947 3.6006623,9.34310797 L5.51028709,11.2527328 C5.66848559,11.4109313 5.92497603,11.4109313 6.08317453,11.2527328 L9.90242412,7.43348317 C10.0606226,7.27528468 10.0606226,7.01879423 9.90242412,6.86059574 C9.74422562,6.70239724 9.48773518,6.70239724 9.32953668,6.86059574 Z" id="形状结合-path" fill="#23CCD1"></path>
                        <path d="M6.51126126,0.0472972973 C6.73198198,-0.0157657658 6.96321321,-0.0157657658 7.17342342,0.0472972973 L7.17342342,0.0472972973 L13.1223724,1.94444444 C13.4587087,2.0548048 13.6846847,2.33858859 13.6741742,2.65915916 L13.6741742,2.65915916 L13.6741742,13.2117117 C13.6741742,13.4219219 13.5743243,13.6163664 13.4061562,13.7635135 L13.4061562,13.7635135 L7.50975976,18.6824324 C7.14189189,18.9872372 6.53753754,18.9872372 6.16441441,18.6824324 L6.16441441,18.6824324 L0.268018018,13.7635135 C0.0945945946,13.6216216 2.46814914e-13,13.4219219 2.46814914e-13,13.2117117 L2.46814914e-13,13.2117117 L2.46814914e-13,2.65915916 C2.46814914e-13,2.33858859 0.225975976,2.0548048 0.562312312,1.94444444 L0.562312312,1.94444444 L6.51126126,0.0472972973 Z M6.54825684,1.17397237 L6.45044697,1.20139949 L1.47965692,2.78826904 C1.03345677,2.92873603 0.730042543,3.31779136 0.730042543,3.77327327 L0.730042543,12.5968468 C0.730042543,12.8979585 0.868613589,13.182268 1.11083618,13.3725858 L6.03094579,17.4799022 C6.48692334,17.8572676 7.21352711,17.8572676 7.66818387,17.481 L12.5989341,13.3650373 C12.8318369,13.182268 12.9704079,12.8979585 12.9704079,12.5968468 L12.9704079,3.77327327 C12.9704079,3.32611048 12.6665312,2.93957933 12.2278683,2.79059946 L7.24932206,1.20118195 C7.01744179,1.12830154 6.77798682,1.11912438 6.54825684,1.17397237 Z" id="形状结合" fill="#FFFFFF"></path>
                    </g>
                </g>
                <polygon id="路径-7备份-6" fill="#EEF3F7" fill-rule="nonzero" transform="translate(20.090909, 3.075758) rotate(180.000000) translate(-20.090909, -3.075758) " points="0.0909089 5.57575842 6.0909089 0.57575842 40.0909089 0.57575842 32.2909089 5.57575842"></polygon>
                <polygon id="路径-7备份-5" fill="#AFC0C8" fill-rule="nonzero" transform="translate(37.090909, 20.075758) scale(-1, 1) translate(-37.090909, -20.075758) " points="34.0909089 33.5757576 34.0909089 0.575757576 40.0909089 5.57575758 40.0909089 39.5757576"></polygon>
                <polygon id="路径-7备份-4" stroke="#FFFFFF" opacity="0.25" transform="translate(17.090909, 22.575758) scale(-1, 1) translate(-17.090909, -22.575758) " points="31.5909089 8.07575758 31.5909089 37.0757576 2.5909089 37.0757576 2.5909089 8.07575758"></polygon>
                <polygon id="路径-7备份-4" stroke="#32526B" transform="translate(17.090909, 22.575758) scale(-1, 1) translate(-17.090909, -22.575758) " points="30.5909089 9.07575758 30.5909089 36.0757576 3.5909089 36.0757576 3.5909089 9.07575758"></polygon>
            </g>
        </g>
    </g>
</svg>