<?xml version="1.0" encoding="UTF-8"?>
<svg width="42px" height="42px" viewBox="0 0 42 42" version="1.1" xmlns="http://www.w3.org/2000/svg" xmlns:xlink="http://www.w3.org/1999/xlink">
    <title>service-node</title>
    <g id="页面-1" stroke="none" stroke-width="1" fill="none" fill-rule="evenodd">
        <g id="service-node">
            <g id="背景区域" opacity="0" fill="#D8D8D8" fill-rule="nonzero">
                <rect id="矩形" x="5.68434189e-14" y="0" width="42" height="42"></rect>
            </g>
            <g id="底块" transform="translate(0.909091, 0.424242)">
                <polygon id="路径-7备份-2" fill="#416480" fill-rule="nonzero" transform="translate(17.090909, 22.575758) scale(-1, 1) translate(-17.090909, -22.575758) " points="0.0909089 39.5757576 0.0909089 5.57575758 34.0909089 5.57575758 34.0909089 39.5757576"></polygon>
                <polygon id="路径-7备份-6" fill="#EEF3F7" fill-rule="nonzero" transform="translate(20.090909, 3.075758) rotate(180.000000) translate(-20.090909, -3.075758) " points="0.0909089 5.57575842 6.0909089 0.57575842 40.0909089 0.57575842 32.2909089 5.57575842"></polygon>
                <polygon id="路径-7备份-5" fill="#AFC0C8" fill-rule="nonzero" transform="translate(37.090909, 20.075758) scale(-1, 1) translate(-37.090909, -20.075758) " points="34.0909089 33.5757576 34.0909089 0.575757576 40.0909089 5.57575758 40.0909089 39.5757576"></polygon>
                <polygon id="路径-7备份-4" stroke="#FFFFFF" opacity="0.25" transform="translate(17.090909, 22.575758) scale(-1, 1) translate(-17.090909, -22.575758) " points="31.5909089 8.07575758 31.5909089 37.0757576 2.5909089 37.0757576 2.5909089 8.07575758"></polygon>
                <polygon id="路径-7备份-4" stroke="#32526B" transform="translate(17.090909, 22.575758) scale(-1, 1) translate(-17.090909, -22.575758) " points="30.5909089 9.07575758 30.5909089 36.0757576 3.5909089 36.0757576 3.5909089 9.07575758"></polygon>
            </g>
            <g id="Icon/服务节点" transform="translate(8.000000, 13.000000)" fill-rule="nonzero">
                <rect id="矩形" fill="#D8D8D8" opacity="0" x="0" y="3.55271368e-15" width="20" height="20"></rect>
                <g id="服务节点">
                    <rect id="矩形备份-3" fill="#D8D8D8" opacity="0" x="0" y="3.55271368e-15" width="20" height="20"></rect>
                    <g id="编组-6" transform="translate(3.000000, 1.000000)">
                        <path d="M12.3455497,0 C12.8732984,0 13.3189529,0.410471204 13.3760279,0.924928447 L13.382199,1.03664921 L13.382199,16.9633508 C13.382199,17.5287958 12.9109948,18 12.3455497,18 L1.03664921,18 C0.471204188,18 4.97379915e-14,17.5287958 4.97379915e-14,16.9633508 L4.97379915e-14,1.03664921 C4.97379915e-14,0.471204188 0.471204188,0 1.03664921,0 L12.3455497,0 Z M6.69109948,10.8376963 C5.49400059,10.8376963 4.52356021,11.8081367 4.52356021,13.0052356 C4.52356021,14.2023345 5.49400059,15.1727749 6.69109948,15.1727749 C7.88819836,15.1727749 8.85863874,14.2023345 8.85863874,13.0052356 C8.85863874,11.8081367 7.88819836,10.8376963 6.69109948,10.8376963 Z" id="形状结合" fill="#EFF3F8"></path>
                        <path d="M6.69109948,11.7801047 C7.36772058,11.7801047 7.91623037,12.3286145 7.91623037,13.0052356 C7.91623037,13.6818567 7.36772058,14.2303665 6.69109948,14.2303665 C6.01447837,14.2303665 5.46596859,13.6818567 5.46596859,13.0052356 C5.46596859,12.3286145 6.01447837,11.7801047 6.69109948,11.7801047 Z" id="路径" fill="#23CCD1"></path>
                        <path d="M10.3664921,4.52356021 C10.626731,4.52356021 10.8376963,4.74741783 10.8376963,5.02356021 C10.8376963,5.2690201 10.6710077,5.47316858 10.4511917,5.51550454 L10.3664921,5.52356021 L2.92146597,5.52356021 C2.66122708,5.52356021 2.45026178,5.29970258 2.45026178,5.02356021 C2.45026178,4.77810032 2.61695041,4.57395184 2.83676642,4.53161588 L2.92146597,4.52356021 L10.3664921,4.52356021 Z" id="路径" fill="#23CCD1"></path>
                        <path d="M10.3664921,2.45026178 C10.626731,2.45026178 10.8376963,2.67411941 10.8376963,2.95026178 C10.8376963,3.19572167 10.6710077,3.39987015 10.4511917,3.44220611 L10.3664921,3.45026178 L2.92146597,3.45026178 C2.66122708,3.45026178 2.45026178,3.22640416 2.45026178,2.95026178 C2.45026178,2.70480189 2.61695041,2.50065341 2.83676642,2.45831745 L2.92146597,2.45026178 L10.3664921,2.45026178 Z" id="路径" fill="#23CCD1"></path>
                    </g>
                </g>
            </g>
        </g>
    </g>
</svg>