<?xml version="1.0" encoding="UTF-8"?>
<svg width="42px" height="42px" viewBox="0 0 42 42" version="1.1" xmlns="http://www.w3.org/2000/svg" xmlns:xlink="http://www.w3.org/1999/xlink">
    <title>sql-server</title>
    <g id="页面-1" stroke="none" stroke-width="1" fill="none" fill-rule="evenodd">
        <g id="sql-server">
            <g id="背景区域" opacity="0" fill="#D8D8D8" fill-rule="nonzero">
                <rect id="矩形" x="0" y="0" width="42" height="42"></rect>
            </g>
            <g id="底块" transform="translate(0.909091, 0.424242)">
                <polygon id="路径-7备份-2" fill="#416480" fill-rule="nonzero" transform="translate(17.090909, 22.575758) scale(-1, 1) translate(-17.090909, -22.575758) " points="0.0909089 39.5757576 0.0909089 5.57575758 34.0909089 5.57575758 34.0909089 39.5757576"></polygon>
                <polygon id="路径-7备份-6" fill="#EEF3F7" fill-rule="nonzero" transform="translate(20.090909, 3.075758) rotate(180.000000) translate(-20.090909, -3.075758) " points="0.0909089 5.57575842 6.0909089 0.57575842 40.0909089 0.57575842 32.2909089 5.57575842"></polygon>
                <polygon id="路径-7备份-5" fill="#AFC0C8" fill-rule="nonzero" transform="translate(37.090909, 20.075758) scale(-1, 1) translate(-37.090909, -20.075758) " points="34.0909089 33.5757576 34.0909089 0.575757576 40.0909089 5.57575758 40.0909089 39.5757576"></polygon>
                <polygon id="路径-7备份-4" stroke="#FFFFFF" opacity="0.25" transform="translate(17.090909, 22.575758) scale(-1, 1) translate(-17.090909, -22.575758) " points="31.5909089 8.07575758 31.5909089 37.0757576 2.5909089 37.0757576 2.5909089 8.07575758"></polygon>
                <polygon id="路径-7备份-4" stroke="#32526B" transform="translate(17.090909, 22.575758) scale(-1, 1) translate(-17.090909, -22.575758) " points="30.5909089 9.07575758 30.5909089 36.0757576 3.5909089 36.0757576 3.5909089 9.07575758"></polygon>
            </g>
            <g id="Icon/SQLserver" transform="translate(8.000000, 13.000000)">
                <rect id="矩形" fill="#D8D8D8" fill-rule="nonzero" opacity="0" x="0" y="0" width="20" height="20"></rect>
                <g id="SQLserver">
                    <rect id="矩形备份-3" fill="#D8D8D8" fill-rule="nonzero" opacity="0" x="0" y="0" width="20" height="20"></rect>
                    <g id="编组" transform="translate(1.000000, 1.000000)">
                        <rect id="矩形备份-3" opacity="0.446149554" x="0" y="0" width="18" height="18"></rect>
                        <path d="M7.48512821,6.75282051 C11.0451282,6.75282051 13.8748718,5.6574359 14.5594872,4.19692308 L14.5594872,3.64923077 C14.5594872,1.91487179 11.3646154,0.5 7.48512821,0.5 C3.60564103,0.5 0.456410256,1.86923077 0.456410256,3.64923077 L0.456410256,4.15128205 C1.14102564,5.74871795 3.92512821,6.75282051 7.48512821,6.75282051 Z" id="路径" fill="#EFF3F8" fill-rule="nonzero"></path>
                        <path d="M9.35641026,7.48307692 C8.7174359,7.57435897 8.07846154,7.57435897 7.48512821,7.57435897 C3.92512821,7.57435897 1.00410256,6.43333333 0.410769231,4.92717949 L0.410769231,7.39179487 C1.09538462,8.85230769 3.97076923,9.94769231 7.43948718,9.94769231 L7.57641026,9.94769231 C7.94153846,8.98923077 8.53487179,8.12205128 9.35641026,7.48307692 Z" id="路径" fill="#EFF3F8" fill-rule="nonzero"></path>
                        <path d="M14.5138462,5.01846154 C14.194359,5.6574359 13.6466667,6.15948718 13.0076923,6.43333333 C13.5097436,6.47897436 14.0117949,6.61589744 14.5138462,6.79846154 L14.5138462,5.01846154 Z" id="路径" fill="#EFF3F8" fill-rule="nonzero"></path>
                        <path d="M7.34820513,10.9061538 C3.92512821,10.8605128 1.09538462,9.76512821 0.456410256,8.35025641 L0.456410256,10.7235897 C1.09538462,12.1841026 4.01641026,13.2794872 7.48512821,13.2794872 L7.53076923,13.2794872 C7.25692308,12.5035897 7.21128205,11.6820513 7.34820513,10.9061538 Z" id="路径" fill="#EFF3F8" fill-rule="nonzero"></path>
                        <path d="M7.85025641,14.1466667 L7.48512821,14.1466667 C4.01641026,14.1466667 1.09538462,13.0512821 0.456410256,11.5907692 L0.456410256,13.8728205 C0.456410256,15.6528205 3.60564103,17.1133333 7.53076923,17.1133333 C8.62615385,17.1133333 9.67589744,17.0220513 10.725641,16.7482051 C9.49333333,16.2461538 8.44358974,15.3333333 7.85025641,14.1466667 Z" id="路径" fill="#EFF3F8" fill-rule="nonzero"></path>
                        <path d="M12.7794872,6.88974359 C12.7794872,6.88974359 13.3728205,8.53282051 13.8292308,8.94358974 C13.8292308,8.94358974 14.8789744,11.2712821 14.4682051,13.4164103 C14.4682051,13.4164103 14.194359,15.1964103 13.5553846,16.0635897 C13.5553846,16.0635897 11.4558974,16.1092308 10.1779487,15.3333333 C10.1779487,15.3333333 8.67179487,14.5574359 9.90410256,13.3707692 L13.7379487,10.6779487 L12.2317949,8.76102564 L10.9994872,8.16769231 C10.9994872,8.16769231 10.634359,7.98512821 10.9538462,7.75692308 C11.4102564,7.48307692 11.8666667,7.25487179 12.3687179,7.07230769 L12.7794872,6.88974359 Z" id="路径" fill="#23CCD1" fill-rule="nonzero"></path>
                        <path d="M17.754359,10.5866667 C17.754359,10.5866667 16.9328205,8.94358974 14.3312821,8.62410256 L11.3189744,8.12205128 C11.3189744,8.12205128 10.7712821,7.98512821 10.7712821,7.84820513 C10.7712821,7.84820513 10.68,7.93948718 10.9082051,8.16769231 C11.2733333,8.44153846 11.5471795,8.80666667 11.8210256,9.17179487 C12.0948718,9.71948718 12.1861538,10.3128205 11.9579487,10.9061538 C11.8210256,11.3169231 11.5928205,11.6820513 11.3189744,12.0015385 C10.9082051,12.4579487 10.4974359,12.8687179 10.0410256,13.2338462 C12.414359,11.8646154 15.0158974,10.9974359 17.754359,10.5866667 Z" id="路径" fill="#23CCD1" fill-rule="nonzero"></path>
                    </g>
                </g>
            </g>
        </g>
    </g>
</svg>