<?xml version="1.0" encoding="UTF-8"?>
<svg width="42px" height="42px" viewBox="0 0 42 42" version="1.1" xmlns="http://www.w3.org/2000/svg" xmlns:xlink="http://www.w3.org/1999/xlink">
    <title>ssl-certificate</title>
    <g id="页面-1" stroke="none" stroke-width="1" fill="none" fill-rule="evenodd">
        <g id="ssl-certificate">
            <g id="背景区域" opacity="0" fill="#D8D8D8" fill-rule="nonzero">
                <rect id="矩形" x="0" y="0" width="42" height="42"></rect>
            </g>
            <g id="底块" transform="translate(0.909091, 0.424242)">
                <polygon id="路径-7备份-2" fill="#416480" fill-rule="nonzero" transform="translate(17.090909, 22.575758) scale(-1, 1) translate(-17.090909, -22.575758) " points="0.0909089 39.5757576 0.0909089 5.57575758 34.0909089 5.57575758 34.0909089 39.5757576"></polygon>
                <polygon id="路径-7备份-6" fill="#EEF3F7" fill-rule="nonzero" transform="translate(20.090909, 3.075758) rotate(180.000000) translate(-20.090909, -3.075758) " points="0.0909089 5.57575842 6.0909089 0.57575842 40.0909089 0.57575842 32.2909089 5.57575842"></polygon>
                <polygon id="路径-7备份-5" fill="#AFC0C8" fill-rule="nonzero" transform="translate(37.090909, 20.075758) scale(-1, 1) translate(-37.090909, -20.075758) " points="34.0909089 33.5757576 34.0909089 0.575757576 40.0909089 5.57575758 40.0909089 39.5757576"></polygon>
                <polygon id="路径-7备份-4" stroke="#FFFFFF" opacity="0.25" transform="translate(17.090909, 22.575758) scale(-1, 1) translate(-17.090909, -22.575758) " points="31.5909089 8.07575758 31.5909089 37.0757576 2.5909089 37.0757576 2.5909089 8.07575758"></polygon>
                <polygon id="路径-7备份-4" stroke="#32526B" transform="translate(17.090909, 22.575758) scale(-1, 1) translate(-17.090909, -22.575758) " points="30.5909089 9.07575758 30.5909089 36.0757576 3.5909089 36.0757576 3.5909089 9.07575758"></polygon>
            </g>
            <g id="Icon/ssl证书" transform="translate(8.000000, 13.000000)">
                <rect id="矩形" fill="#D8D8D8" fill-rule="nonzero" opacity="0" x="0" y="3.55271368e-15" width="20" height="20"></rect>
                <g id="ssl证书">
                    <rect id="矩形备份-3" fill="#D8D8D8" fill-rule="nonzero" opacity="0" x="0" y="3.55271368e-15" width="20" height="20"></rect>
                    <g id="编组" transform="translate(1.000000, 1.000000)">
                        <polygon id="矩形备份-13" points="0 0 18 0 18 18 12.2423395 18 0 18"></polygon>
                        <g id="编组-22" transform="translate(0.500000, 2.000000)" fill-rule="nonzero">
                            <path d="M16.9952791,2.5 L0,2.5 L0,0.603136309 C0,0.271411339 0.420161066,0 0.944182172,0 L16.0558178,0 C16.575118,0 17,0.268395657 17,0.603136309 L17,2.5 L16.9952791,2.5 Z" id="路径" fill="#23CCD1"></path>
                            <path d="M17,3 L17,12.0710636 C16.9952778,12.5819786 16.575,13 16.0508333,13 L0.944444444,13 C0.420277778,13 0,12.5819786 0,12.0710636 L0,3 L17,3 Z M11.1550505,5.50348351 C10.8789081,5.50348351 10.6550505,5.65944563 10.6550505,5.85183465 L10.6550505,9.56758012 L10.6620073,9.62012189 C10.6574446,9.65215596 10.6550505,9.68529776 10.6550505,9.71922898 C10.6550505,9.99537136 10.8136163,10.219229 11.0092172,10.219229 L12.8981061,10.219229 C13.0937069,10.219229 13.2522727,9.99537136 13.2522727,9.71922898 C13.2522727,9.44308661 13.0937069,9.21922898 12.8981061,9.21922898 L11.655,9.219 L11.6550505,5.85183465 C11.6550505,5.65944563 11.4311929,5.50348351 11.1550505,5.50348351 Z M8.42642619,5.50348351 C7.70307831,5.50348351 7.11338384,6.07505947 7.11338384,6.78077102 C7.11338384,7.46699546 7.670961,8.02638992 8.36681921,8.05676025 L8.36681921,8.05676025 L8.45902334,8.06113619 C8.76235533,8.09164954 9.00227273,8.34508804 9.00227273,8.64370148 C9.00227273,8.95910935 8.73243835,9.21922898 8.39756371,9.21922898 C8.13851838,9.21922898 7.91246511,9.05827935 7.82962589,8.8299865 L7.82962589,8.8299865 L7.79761851,8.72633824 C7.73452226,8.5663665 7.55936811,8.47289344 7.38500524,8.51399669 C7.1947912,8.55883661 7.07754903,8.74685349 7.12313752,8.93394416 C7.26232979,9.50517555 7.78838085,9.91593126 8.39756371,9.91593126 C9.1204872,9.91593126 9.71060606,9.34705822 9.71060606,8.64370148 C9.71060606,7.95854064 9.15105262,7.39255228 8.45553711,7.36260234 L8.45553711,7.36260234 L8.36451932,7.35833658 C8.05924928,7.32839049 7.82171717,7.07948687 7.82171717,6.78077102 C7.82171717,6.46214078 8.09197593,6.20018579 8.42642619,6.20018579 C8.68658059,6.20018579 8.91386962,6.36404199 8.99567934,6.59652144 L8.99567934,6.59652144 L9.02621299,6.69658897 C9.08910843,6.85663719 9.26414513,6.95032284 9.43855945,6.90943132 C9.62882962,6.86482238 9.74630767,6.67694799 9.70095401,6.48980212 C9.56198864,5.91637983 9.03607521,5.50348351 8.42642619,5.50348351 Z M5.12087063,5.50348351 C4.39752276,5.50348351 3.80782828,6.07505947 3.80782828,6.78077102 C3.80782828,7.46699546 4.36540545,8.02638992 5.06126366,8.05676025 L5.06126366,8.05676025 L5.15346778,8.06113619 C5.45679977,8.09164954 5.69671717,8.34508804 5.69671717,8.64370148 C5.69671717,8.95910935 5.4268828,9.21922898 5.09200815,9.21922898 C4.83296283,9.21922898 4.60690955,9.05827935 4.52407033,8.8299865 L4.52407033,8.8299865 L4.49206295,8.72633824 C4.4289667,8.5663665 4.25381256,8.47289344 4.07944969,8.51399669 C3.88923565,8.55883661 3.77199347,8.74685349 3.81758196,8.93394416 C3.95677424,9.50517555 4.4828253,9.91593126 5.09200815,9.91593126 C5.81493165,9.91593126 6.40505051,9.34705822 6.40505051,8.64370148 C6.40505051,7.95854064 5.84549707,7.39255228 5.14998156,7.36260234 L5.14998156,7.36260234 L5.05896376,7.35833658 C4.75369373,7.32839049 4.51616162,7.07948687 4.51616162,6.78077102 C4.51616162,6.46214078 4.78642038,6.20018579 5.12087063,6.20018579 C5.38102503,6.20018579 5.60831406,6.36404199 5.69012378,6.59652144 L5.69012378,6.59652144 L5.72065744,6.69658897 C5.78355287,6.85663719 5.95858957,6.95032284 6.1330039,6.90943132 C6.32327407,6.86482238 6.44075211,6.67694799 6.39539846,6.48980212 C6.25643308,5.91637983 5.73051966,5.50348351 5.12087063,5.50348351 Z" id="形状结合" fill="#EFF3F8"></path>
                        </g>
                    </g>
                </g>
            </g>
        </g>
    </g>
</svg>