<?xml version="1.0" encoding="UTF-8"?>
<svg width="42px" height="42px" viewBox="0 0 42 42" version="1.1" xmlns="http://www.w3.org/2000/svg" xmlns:xlink="http://www.w3.org/1999/xlink">
    <title>ssl</title>
    <g id="页面-1" stroke="none" stroke-width="1" fill="none" fill-rule="evenodd">
        <g id="ssl">
            <g id="背景区域" opacity="0" fill="#D8D8D8" fill-rule="nonzero">
                <rect id="矩形" x="0" y="0" width="42" height="42"></rect>
            </g>
            <g id="底块" transform="translate(0.909091, 0.424242)">
                <polygon id="路径-7备份-2" fill="#416480" fill-rule="nonzero" transform="translate(17.090909, 22.575758) scale(-1, 1) translate(-17.090909, -22.575758) " points="0.0909089 39.5757576 0.0909089 5.57575758 34.0909089 5.57575758 34.0909089 39.5757576"></polygon>
                <polygon id="路径-7备份-6" fill="#EEF3F7" fill-rule="nonzero" transform="translate(20.090909, 3.075758) rotate(180.000000) translate(-20.090909, -3.075758) " points="0.0909089 5.57575842 6.0909089 0.57575842 40.0909089 0.57575842 32.2909089 5.57575842"></polygon>
                <polygon id="路径-7备份-5" fill="#AFC0C8" fill-rule="nonzero" transform="translate(37.090909, 20.075758) scale(-1, 1) translate(-37.090909, -20.075758) " points="34.0909089 33.5757576 34.0909089 0.575757576 40.0909089 5.57575758 40.0909089 39.5757576"></polygon>
                <polygon id="路径-7备份-4" stroke="#FFFFFF" opacity="0.25" transform="translate(17.090909, 22.575758) scale(-1, 1) translate(-17.090909, -22.575758) " points="31.5909089 8.07575758 31.5909089 37.0757576 2.5909089 37.0757576 2.5909089 8.07575758"></polygon>
                <polygon id="路径-7备份-4" stroke="#32526B" transform="translate(17.090909, 22.575758) scale(-1, 1) translate(-17.090909, -22.575758) " points="30.5909089 9.07575758 30.5909089 36.0757576 3.5909089 36.0757576 3.5909089 9.07575758"></polygon>
            </g>
            <g id="Icon/ssl" transform="translate(8.000000, 13.000000)">
                <rect id="矩形" fill="#D8D8D8" fill-rule="nonzero" opacity="0" x="0" y="3.55271368e-15" width="20" height="20"></rect>
                <g id="ssl">
                    <rect id="矩形备份-3" fill="#D8D8D8" fill-rule="nonzero" opacity="0" x="0" y="3.55271368e-15" width="20" height="20"></rect>
                    <g id="编组" transform="translate(1.000000, 0.000000)">
                        <polygon id="矩形备份-12" points="0 1 18 1 18 19 12.2423395 19 0 19"></polygon>
                        <g id="编组-21" transform="translate(0.500000, 0.000000)" fill-rule="nonzero">
                            <g id="编组" transform="translate(0.660246, 0.542244)" fill="#FFFFFF">
                                <path d="M7.52382749,0.595083357 L0.832151077,4.58773665 C0.526864883,4.77083922 0.33975399,5.10652727 0.33975399,5.46764623 L0.33975399,13.4478666 C0.33975399,13.8089856 0.526864883,14.1446736 0.832151077,14.3277762 L7.52382749,18.3204295 C7.82911369,18.5035321 8.20333547,18.5035321 8.50862167,18.3204295 L15.2002981,14.3277762 C15.5055843,14.1446736 15.6926952,13.8089856 15.6926952,13.4478666 L15.6926952,5.46764623 C15.6926952,5.10652727 15.5055843,4.77083922 15.2002981,4.58773665 L8.50862167,0.595083357 C8.20333547,0.411980786 7.82911369,0.411980786 7.52382749,0.595083357 Z" id="路径"></path>
                            </g>
                            <path d="M8.82222742,7.28143543 C9.45792263,7.28143543 10.0063048,7.73357965 10.1512072,8.36150865 C10.1984985,8.5664437 10.0760014,8.77217651 9.8776023,8.82102575 C9.67920317,8.86987499 9.48003172,8.74334245 9.4327404,8.5384074 C9.36675471,8.25246097 9.11436331,8.04436281 8.82222742,8.04436281 C8.47348836,8.04436281 8.19168327,8.33121796 8.19168327,8.68013563 C8.19168327,9.00724595 8.43936353,9.27980912 8.75767569,9.31260175 L8.85320618,9.31730136 C9.57814696,9.35042544 10.1612716,9.97007351 10.1612716,10.7201471 C10.1612716,11.4903615 9.54594097,12.1133088 8.79213184,12.1133088 C8.15692272,12.1133088 7.60839705,11.6635087 7.46325803,11.0379789 C7.41572185,10.8331043 7.53797299,10.6272154 7.7363136,10.5781132 C7.91812581,10.5331029 8.10076311,10.6354611 8.16655504,10.8106389 L8.19992988,10.9241395 C8.28630826,11.1741328 8.52201926,11.3503815 8.79213184,11.3503815 C9.14131342,11.3503815 9.42267599,11.0655361 9.42267599,10.7201471 C9.42267599,10.393149 9.17250854,10.1156198 8.85621723,10.082206 L8.75958327,10.0773916 C8.03422427,10.0438808 7.45308764,9.43141985 7.45308764,8.68013563 C7.45308764,7.9073426 8.06797578,7.28143543 8.82222742,7.28143543 Z" id="形状" fill="#23CCD1"></path>
                            <path d="M5.37544781,7.28143543 C6.01114302,7.28143543 6.55952517,7.73357965 6.7044276,8.36150865 C6.75171891,8.5664437 6.62922182,8.77217651 6.43082269,8.82102575 C6.23242356,8.86987499 6.03325211,8.74334245 5.98596079,8.5384074 C5.9199751,8.25246097 5.6675837,8.04436281 5.37544781,8.04436281 C5.02670875,8.04436281 4.74490366,8.33121796 4.74490366,8.68013563 C4.74490366,9.00724595 4.99258392,9.27980912 5.31089608,9.31260175 L5.40642657,9.31730136 C6.13136735,9.35042544 6.71449201,9.97007351 6.71449201,10.7201471 C6.71449201,11.4903615 6.09916136,12.1133088 5.34535223,12.1133088 C4.71014311,12.1133088 4.16161744,11.6635087 4.01647842,11.0379789 C3.96894224,10.8331043 4.09119338,10.6272154 4.28953399,10.5781132 C4.4713462,10.5331029 4.6539835,10.6354611 4.71977543,10.8106389 L4.75315027,10.9241395 C4.83952865,11.1741328 5.07523965,11.3503815 5.34535223,11.3503815 C5.69453381,11.3503815 5.97589638,11.0655361 5.97589638,10.7201471 C5.97589638,10.393149 5.72572893,10.1156198 5.40943762,10.082206 L5.31280366,10.0773916 C4.58744466,10.0438808 4.00630803,9.43141985 4.00630803,8.68013563 C4.00630803,7.9073426 4.62119617,7.28143543 5.37544781,7.28143543 Z" id="形状" fill="#23CCD1"></path>
                            <path d="M11.1460658,7.66289912 L11.1460658,11.7318452 C11.1460658,11.9425217 11.3699234,12.1133088 11.6460658,12.1133088 C11.9222082,12.1133088 12.1460658,11.9425217 12.1460658,11.7318452 L12.1460658,7.66289912 C12.1460658,7.45222255 11.9222082,7.28143543 11.6460658,7.28143543 C11.3699234,7.28143543 11.1460658,7.45222255 11.1460658,7.66289912 Z" id="直线" fill="#23CCD1"></path>
                            <path d="M11.5153636,12.3503815 L13.484952,12.3503815 C13.6889095,12.3503815 13.8542498,12.1265238 13.8542498,11.8503815 C13.8542498,11.5742391 13.6889095,11.3503815 13.484952,11.3503815 L11.5153636,11.3503815 C11.3114061,11.3503815 11.1460658,11.5742391 11.1460658,11.8503815 C11.1460658,12.1265238 11.3114061,12.3503815 11.5153636,12.3503815 Z" id="直线-2" fill="#23CCD1"></path>
                        </g>
                    </g>
                </g>
            </g>
        </g>
    </g>
</svg>