<?xml version="1.0" encoding="UTF-8"?>
<svg width="42px" height="42px" viewBox="0 0 42 42" version="1.1" xmlns="http://www.w3.org/2000/svg" xmlns:xlink="http://www.w3.org/1999/xlink">
    <title>storage-device</title>
    <g id="页面-1" stroke="none" stroke-width="1" fill="none" fill-rule="evenodd">
        <g id="storage-device" fill-rule="nonzero">
            <g id="背景区域" opacity="0" fill="#D8D8D8">
                <rect id="矩形" x="0" y="0" width="42" height="42"></rect>
            </g>
            <g id="存储器" transform="translate(0.000000, 2.000000)">
                <polygon id="路径" fill="#416480" transform="translate(14.645741, 21.622466) scale(-1, 1) translate(-14.645741, -21.622466) " points="29.291482 31.3247444 6e-07 38.2827586 0.153141245 11.2840475 29.291482 4.96217305"></polygon>
                <g id="编组-7" transform="translate(1.000000, 8.000000)">
                    <path d="M2.36088251,26.920695 L0.643947392,27.332667 C0.598315287,27.3481679 0.550820802,27.3290235 0.514950933,27.2806704 C0.479081064,27.2323173 0.458753922,27.160037 0.459741801,27.0843551 L0.4423639,8.03206237 C0.445714064,7.86399875 0.521117184,7.72272707 0.623093911,7.69345527 L2.34002905,7.28148331 C2.38566115,7.26598244 2.43315564,7.28512676 2.4690255,7.33347987 C2.50489537,7.38183299 2.52522252,7.45411322 2.52423464,7.52979518 L2.52771023,26.5764444 C2.52740952,26.7397991 2.45859354,26.8818016 2.36088251,26.920695 L2.36088251,26.920695 Z M5.00927233,26.282985 L3.29233721,26.6949569 C3.2467051,26.7104578 3.19921062,26.6913135 3.16334075,26.6429604 C3.12747088,26.5946073 3.10714374,26.522327 3.10813162,26.446645 L3.07337584,7.39999579 C3.076726,7.23193217 3.15212912,7.09066049 3.25410585,7.06138869 L4.96061425,6.6494167 C5.00624635,6.63391582 5.05374084,6.65306015 5.08961071,6.70141327 C5.12548058,6.74976639 5.14580772,6.82204664 5.14481984,6.8977286 L5.17957562,25.9443779 C5.17730032,26.1072783 5.10711877,26.2468174 5.00927233,26.282985 L5.00927233,26.282985 Z M7.66113772,25.6170577 L5.9442026,26.0290296 C5.89976075,26.0441315 5.85348398,26.0263861 5.81789828,25.9805965 C5.78231259,25.9348069 5.76109808,25.8657086 5.75999701,25.7920047 L5.72524123,6.74535539 C5.7285914,6.57729177 5.80399452,6.43602009 5.90597125,6.40674829 L7.62290639,5.99477633 C7.66853849,5.97927545 7.71603297,5.99841978 7.75190284,6.04677289 C7.7877727,6.095126 7.80809985,6.16740624 7.80711198,6.2430882 L7.84186773,25.2897375 C7.83536257,25.4534925 7.76068203,25.5887464 7.66113772,25.6170577 L7.66113772,25.6170577 Z M10.3130031,25.0132083 L8.59606798,25.4251803 C8.55043588,25.4406812 8.5029414,25.4215369 8.46707153,25.3731837 C8.43120166,25.3248306 8.41087451,25.2525504 8.41186239,25.1768684 L8.37710663,6.13021918 C8.38045679,5.96215556 8.45585991,5.82088388 8.55783664,5.79161208 L10.2747718,5.37964009 C10.3204039,5.36413921 10.3678984,5.38328353 10.4037682,5.43163665 C10.4396381,5.47998976 10.4599653,5.55226999 10.4589774,5.62795195 L10.4972087,24.6633143 C10.496866,24.8374575 10.4188919,24.9855673 10.3130031,25.0132083 L10.3130031,25.0132083 Z M12.9544418,24.3811418 L11.2375067,24.7931137 C11.1918746,24.8086146 11.1443801,24.7894703 11.1085102,24.7411172 C11.0726404,24.692764 11.0523132,24.6204838 11.0533011,24.5448019 L11.0324476,5.47557877 C11.0357978,5.30751515 11.1112009,5.16624348 11.2131776,5.13697168 L12.9301128,4.72499972 C12.9757449,4.70949884 13.0232393,4.72864316 13.0591092,4.77699628 C13.0949791,4.82534939 13.1153062,4.89762963 13.1143184,4.97331158 L13.1490741,24.0199608 C13.1515728,24.2040198 13.067125,24.3607305 12.9544418,24.3811418 L12.9544418,24.3811418 Z M15.6167339,23.7434317 L13.8997988,24.1554037 C13.8541667,24.1709046 13.8066722,24.1517602 13.7708023,24.1034071 C13.7349325,24.055054 13.7146053,23.9827738 13.7155932,23.9070918 L13.6808375,4.86044253 C13.6841876,4.69237891 13.7595907,4.55110723 13.8615675,4.52183543 L15.5785026,4.10986347 C15.6241347,4.0943626 15.6716292,4.11350692 15.707499,4.16186003 C15.7433689,4.21021315 15.763696,4.28249338 15.7627082,4.35817534 L15.7974639,23.4048246 C15.7941138,23.5728883 15.7187107,23.7141599 15.6167339,23.7434317 L15.6167339,23.7434317 Z M18.2685993,23.0775045 L16.5516642,23.4894764 C16.5060321,23.5049773 16.4585376,23.485833 16.4226677,23.4374798 C16.3867979,23.3891267 16.3664707,23.3168465 16.3674586,23.2411645 L16.3327028,4.19451525 C16.336053,4.02645162 16.4114561,3.88517994 16.5134329,3.85590815 L18.230368,3.44393619 C18.2760001,3.42843532 18.3234946,3.44757964 18.3593644,3.49593275 C18.3952343,3.54428587 18.4155614,3.6165661 18.4145736,3.69224806 L18.4493293,22.7388974 C18.4459792,22.906961 18.3705761,23.0482326 18.2685993,23.0775045 L18.2685993,23.0775045 Z M20.9204647,22.4792986 L19.2104807,22.8912705 C19.1648486,22.9067714 19.1173542,22.8876271 19.0814843,22.839274 C19.0456144,22.7909209 19.0252873,22.7186406 19.0262752,22.6429587 L18.9915194,3.59630937 C18.9948695,3.42824575 19.0702727,3.28697408 19.1722494,3.25770228 L20.8891845,2.84573032 C20.9348166,2.83022944 20.9823111,2.84937376 21.018181,2.89772688 C21.0540508,2.94607999 21.074378,3.01836023 21.0733901,3.09404218 L21.1081459,22.1406915 C21.1041823,22.3123627 21.02519,22.4548775 20.9204647,22.4792986 Z M23.5723301,21.8133713 L21.855395,22.2253433 C21.8097629,22.2408441 21.7622684,22.2216998 21.7263985,22.1733467 C21.6905287,22.1249936 21.6702015,22.0527133 21.6711894,21.9770313 L21.6433848,2.92473864 C21.6467349,2.75667502 21.7221381,2.61540334 21.8241148,2.58613154 L23.5410499,2.17415954 C23.586682,2.15865867 23.6341765,2.17780299 23.6700464,2.22615612 C23.7059163,2.27450924 23.7262434,2.34678948 23.7252555,2.42247145 L23.7600113,21.4691207 C23.7577066,21.6429497 23.6783146,21.7885731 23.5723301,21.8133713 L23.5723301,21.8133713 Z M26.2241955,21.2095219 L24.5072604,21.6214939 C24.4616283,21.6369948 24.4141338,21.6178505 24.3782639,21.5694974 C24.3423941,21.5211442 24.3220669,21.448864 24.3230548,21.3731821 L24.288299,2.32653276 C24.2916492,2.15846914 24.3670523,2.01719747 24.469029,1.98792566 L26.1859642,1.57595371 C26.2315963,1.56045283 26.2790907,1.57959715 26.3149606,1.62795027 C26.3508305,1.67630338 26.3711576,1.74858361 26.3701698,1.82426557 L26.4049255,20.8709148 C26.4015753,21.0389784 26.3261722,21.1802501 26.2241955,21.2095219 L26.2241955,21.2095219 Z" id="形状" fill="#EFF3F8" transform="translate(13.423645, 14.454310) scale(-1, 1) translate(-13.423645, -14.454310) "></path>
                    <path d="M14.2219772,2.97275952 L12.2338746,3.39542574 C12.2115912,3.40228486 12.1886338,3.3921407 12.1713342,3.36779113 C12.1540346,3.34344156 12.1442205,3.30745917 12.1445783,3.26976822 L12.1445783,2.17312069 C12.1458367,2.08891123 12.1836857,2.01868733 12.2338746,2.00748123 L14.2357119,1.57339158 C14.2579953,1.56653247 14.2809527,1.57667662 14.2982523,1.60102619 C14.3155519,1.62537576 14.325366,1.66135815 14.3250082,1.69904911 L14.3250082,2.82425515 C14.3180651,2.9098737 14.2739095,2.97353041 14.2219772,2.97275952 L14.2219772,2.97275952 Z" id="路径" fill="#EFF3F8" transform="translate(13.234793, 2.484409) scale(-1, 1) translate(-13.234793, -2.484409) "></path>
                    <path d="M11.0011817,2.29877821 L10.7573902,2.35018357 C10.7351068,2.35704269 10.7121494,2.34689853 10.6948498,2.32254896 C10.6775502,2.29819939 10.6677361,2.262217 10.6681144,2.22452605 L10.6681144,1.81899496 C10.6693523,1.73478549 10.7072013,1.66456157 10.7573902,1.65335546 L11.0011817,1.60195014 C11.0234651,1.59509102 11.0464225,1.60523517 11.0637221,1.62958474 C11.0810217,1.65393431 11.0908358,1.68991671 11.0904575,1.72760766 L11.0904575,2.13313875 C11.0892196,2.21734821 11.0513706,2.28757211 11.0011817,2.29877821 L11.0011817,2.29877821 Z" id="路径" fill="#EFF3F8" transform="translate(10.879286, 1.976067) scale(-1, 1) translate(-10.879286, -1.976067) "></path>
                    <path d="M9.82686136,2.04746316 L9.58306984,2.09886852 C9.56078647,2.10572762 9.53782906,2.09558347 9.52052945,2.0712339 C9.50322984,2.04688433 9.49341578,2.01090194 9.49379409,1.973211 L9.49379409,1.56767987 C9.49503195,1.48347043 9.53288096,1.41324653 9.58306984,1.40204041 L9.82686136,1.35063505 C9.84914472,1.34377595 9.87210214,1.35392011 9.88940175,1.37826967 C9.90670136,1.40261924 9.91651541,1.43860163 9.91613711,1.47629258 L9.91613711,1.8818237 C9.91489925,1.96603315 9.87705023,2.03625704 9.82686136,2.04746316 L9.82686136,2.04746316 Z" id="路径" fill="#EFF3F8" transform="translate(9.704966, 1.724752) scale(-1, 1) translate(-9.704966, -1.724752) "></path>
                    <path d="M8.64224206,1.7904364 L8.39845057,1.84184176 C8.3761672,1.84870088 8.35320977,1.83855673 8.33591016,1.81420716 C8.31861054,1.78985759 8.30879649,1.75387519 8.30917479,1.71618424 L8.30917479,1.31065311 C8.31041265,1.22644365 8.34826168,1.15621976 8.39845057,1.14501365 L8.64224206,1.11074342 C8.66452543,1.10388431 8.68748286,1.11402846 8.70478247,1.13837803 C8.72208209,1.1627276 8.73189614,1.19871 8.73151784,1.23640095 L8.73151784,1.64193207 C8.72562029,1.71952341 8.68888734,1.78062625 8.64224206,1.7904364 L8.64224206,1.7904364 Z" id="路径" fill="#EFF3F8" transform="translate(8.520346, 1.476293) scale(-1, 1) translate(-8.520346, -1.476293) "></path>
                    <path d="M7.48165699,1.53340965 L7.2378655,1.584815 C7.21558213,1.59167412 7.1926247,1.58152997 7.17532509,1.5571804 C7.15802547,1.53283083 7.14821142,1.49684843 7.14858972,1.45915748 L7.14858972,1.05362635 C7.14982758,0.969416895 7.18767661,0.899192996 7.2378655,0.887986892 L7.48165699,0.836581532 C7.50394036,0.829722418 7.52689779,0.839866569 7.5441974,0.864216139 C7.56149701,0.888565709 7.57131107,0.924548104 7.57093276,0.962239057 L7.57093276,1.36777018 C7.56969491,1.45197964 7.53184588,1.52220354 7.48165699,1.53340965 L7.48165699,1.53340965 Z" id="路径" fill="#EFF3F8" transform="translate(7.359761, 1.210698) scale(-1, 1) translate(-7.359761, -1.210698) "></path>
                    <path d="M17.020429,3.60675885 L16.7766375,3.65816421 C16.7543541,3.66502333 16.7313967,3.65487917 16.7140971,3.6305296 C16.6967975,3.60618003 16.6869834,3.57019764 16.6873617,3.53250669 L16.6873617,3.12697556 C16.6885996,3.0427661 16.7264486,2.9725422 16.7766375,2.9613361 L17.020429,2.90993074 C17.0427124,2.90307164 17.0656698,2.91321579 17.0829694,2.93756536 C17.100269,2.96191493 17.1100831,2.99789732 17.1097048,3.03558826 L17.1097048,3.44111939 C17.1084669,3.52532884 17.0706179,3.59555273 17.020429,3.60675885 L17.020429,3.60675885 Z" id="路径" fill="#EFF3F8" transform="translate(16.898533, 3.284047) scale(-1, 1) translate(-16.898533, -3.284047) "></path>
                    <path d="M18.0496605,3.90662343 C18.0273772,3.91348254 18.0044197,3.90333839 17.9871201,3.87898882 C17.9698205,3.85463925 17.9600065,3.81865685 17.9603848,3.7809659 L17.9603848,3.37543478 C17.9616226,3.29122532 17.9994717,3.22100142 18.0496605,3.20979531 L18.2934521,3.15838995 C18.3157354,3.15153085 18.3386928,3.16167501 18.3559924,3.18602458 C18.3732921,3.21037415 18.3831061,3.24635653 18.3827278,3.28404748 L18.3827278,3.6895786 C18.3814899,3.77378805 18.3436409,3.84401195 18.2934521,3.85521807 L18.0496605,3.90662343 Z" id="路径备份" fill="#EFF3F8" transform="translate(18.171556, 3.532507) scale(-1, 1) translate(-18.171556, -3.532507) "></path>
                    <path d="M19.4535944,4.20653425 C19.431311,4.21339336 19.4083536,4.20324921 19.3910539,4.17889964 C19.3737543,4.15455007 19.3639403,4.11856768 19.3643186,4.08087672 L19.3643186,3.6753456 C19.3655564,3.59113614 19.4034055,3.52091224 19.4535944,3.50970614 L19.6973859,3.45830078 C19.7196692,3.45144167 19.7426267,3.46158583 19.7599263,3.4859354 C19.7772259,3.51028497 19.7870399,3.54626736 19.7866616,3.5839583 L19.7866616,3.98948943 C19.7854238,4.07369887 19.7475747,4.14392277 19.6973859,4.15512889 L19.4535944,4.20653425 Z" id="路径备份-2" fill="#EFF3F8" transform="translate(19.575490, 3.832418) scale(-1, 1) translate(-19.575490, -3.832418) "></path>
                    <path d="M15.8529753,3.34973209 L15.6091838,3.40113745 C15.5869004,3.40799657 15.563943,3.39785241 15.5466434,3.37350284 C15.5293438,3.34915327 15.5195297,3.31317088 15.519908,3.27547993 L15.519908,2.8699488 C15.5211459,2.78573934 15.5589949,2.71551544 15.6091838,2.70430934 L15.8529753,2.65290398 C15.8752587,2.64604488 15.8982161,2.65618903 15.9155157,2.6805386 C15.9328153,2.70488817 15.9426294,2.74087056 15.9422511,2.7785615 L15.9422511,3.18409263 C15.9410132,3.26830208 15.9031642,3.33852597 15.8529753,3.34973209 Z" id="路径" fill="#EFF3F8" transform="translate(15.731080, 3.027021) scale(-1, 1) translate(-15.731080, -3.027021) "></path>
                    <path d="M2.13884485,24.9285566 C2.13086763,25.3916612 1.92621986,25.7800255 1.65126182,25.8538529 C1.52901901,25.891844 1.40300018,25.8359654 1.30834565,25.7017989 C1.21369111,25.5676324 1.16052726,25.3695315 1.1636788,25.1627365 C1.17165602,24.6996319 1.37630381,24.3112676 1.65126182,24.2374402 C1.77350466,24.1994491 1.89952348,24.2553277 1.99417801,24.3894942 C2.08883254,24.5236607 2.14199639,24.7217616 2.13884485,24.9285566 Z M4.71410724,24.3116924 C4.70613001,24.774797 4.50148224,25.1631612 4.22652423,25.2369887 C4.10510655,25.2660903 3.98220743,25.2036872 3.89125776,25.0667543 C3.80030809,24.9298214 3.75076665,24.7325997 3.75610963,24.5287372 C3.76408685,24.0656326 3.96873462,23.6772683 4.24369264,23.6034408 C4.36511033,23.5743392 4.48800945,23.6367423 4.57895912,23.7736752 C4.66990879,23.9106081 4.71945023,24.1078298 4.71410724,24.3116924 Z M7.34774228,23.6834047 C7.33976506,24.1465093 7.13511729,24.5348736 6.86015926,24.6087011 C6.73791645,24.6466921 6.61189762,24.5908135 6.51724309,24.456647 C6.42258855,24.3224805 6.36942469,24.1243796 6.37257624,23.9175847 C6.38055346,23.45448 6.58520124,23.0661157 6.86015926,22.9922883 C6.98240209,22.9542973 7.10842091,23.0101759 7.20307544,23.1443423 C7.29772997,23.2785088 7.35089383,23.4766097 7.34774228,23.6834047 L7.34774228,23.6834047 Z M9.96764258,23.0608288 C9.95173014,23.5130142 9.74894063,23.8859743 9.48005954,23.9575666 C9.35781672,23.9955576 9.2317979,23.939679 9.13714337,23.8055126 C9.04248884,23.6713461 8.98932499,23.4732452 8.99247653,23.2664502 C9.00045375,22.8033456 9.20510152,22.4149813 9.48005954,22.3411538 C9.60538673,22.3017757 9.73461196,22.3611605 9.83001314,22.5019731 C9.92541433,22.6427857 9.97623591,22.8491509 9.96764258,23.0608288 Z M12.5875432,22.4325411 C12.5878307,22.9064915 12.3812231,23.3106763 12.0999598,23.386396 C11.977717,23.424387 11.8516982,23.3685084 11.7570437,23.234342 C11.6623891,23.1001755 11.6092253,22.9020746 11.6123768,22.6952796 C11.6203541,22.232175 11.8250018,21.8438107 12.0999598,21.7699833 C12.2192373,21.732953 12.3422631,21.7852565 12.4362317,21.9129469 C12.5302004,22.0406373 12.5855579,22.230732 12.5875432,22.4325411 L12.5875432,22.4325411 Z M15.2074431,21.8099652 C15.1994659,22.2730698 14.9948181,22.6614341 14.7198601,22.7352615 C14.5976173,22.7732526 14.4715985,22.717374 14.376944,22.5832075 C14.2822894,22.449041 14.2291256,22.2509401 14.2322771,22.0441451 C14.2353358,21.5745236 14.4411469,21.1767188 14.7198601,21.1017137 C14.8439389,21.0629443 14.9718545,21.1209353 15.0669493,21.2590677 C15.1620441,21.3972002 15.2138214,21.6002269 15.2074431,21.8099652 L15.2074431,21.8099652 Z M17.8273434,21.1816776 C17.8193662,21.6447822 17.6147184,22.0331465 17.3397604,22.1069739 C17.2175176,22.1449649 17.0914988,22.0890864 16.9968443,21.9549199 C16.9021897,21.8207534 16.8490259,21.6226525 16.8521774,21.4158575 C16.8601546,20.9527529 17.0648024,20.5643886 17.3397604,20.4905612 C17.4620032,20.4525701 17.5880221,20.5084487 17.6826766,20.6426152 C17.7773311,20.7767817 17.830495,20.9748826 17.8273434,21.1816776 Z M20.4472437,20.5305431 C20.4392665,20.9936477 20.2346187,21.382012 19.9596607,21.4558395 C19.8408488,21.4892585 19.7191964,21.4344899 19.6267352,21.3059544 C19.5342741,21.177419 19.4802709,20.9879991 19.4789451,20.7875699 C19.4869223,20.3244652 19.6915701,19.936101 19.9665281,19.8622735 C20.08534,19.8288545 20.2069924,19.8836231 20.2994536,20.0121586 C20.3919147,20.140694 20.4459179,20.3301139 20.4472437,20.5305431 Z M23.0637103,19.9593725 C23.0471631,20.4152092 22.8408463,20.7893864 22.56926,20.8561103 C22.4470171,20.8941014 22.3209983,20.8382228 22.2263438,20.7040563 C22.1316893,20.5698898 22.0785254,20.3717889 22.0816769,20.1649939 C22.0896542,19.7018893 22.2943019,19.313525 22.56926,19.2396976 C22.69562,19.1962325 22.826924,19.2537416 22.9240315,19.3950821 C23.0211391,19.5364227 23.0728354,19.7452713 23.0637103,19.9593725 L23.0637103,19.9593725 Z M25.6836106,19.3082381 C25.6756334,19.7713427 25.4709856,20.159707 25.1960276,20.2335344 C25.0737848,20.2715254 24.947766,20.2156468 24.8531115,20.0814804 C24.7584569,19.9473139 24.7052931,19.749213 24.7084446,19.542418 C24.7164218,19.0793134 24.9210696,18.6909491 25.1960276,18.6171217 C25.3182704,18.5791307 25.4442893,18.6350092 25.5389438,18.7691757 C25.6335983,18.9033422 25.6867622,19.1014431 25.6836106,19.3082381 L25.6836106,19.3082381 Z M1.62035868,9.51266264 L1.89848702,8.91293354 L1.34566401,9.05001448 L1.62035868,9.51266264 Z M4.24025898,8.8729516 L4.51838731,8.27322249 L3.96556431,8.41030344 L4.24025898,8.8729516 Z M6.85672557,8.23324055 L7.13142023,7.63351145 L6.58203092,7.77059236 L6.85672557,8.23324055 Z M9.47662587,7.5878178 L9.75132053,6.99380037 L9.20193121,7.12516961 L9.47662587,7.5878178 Z M12.0999598,6.94810676 L12.3746545,6.34837762 L11.8218315,6.48545856 L12.0999598,6.94810676 Z M14.7198601,6.30839568 L14.9945548,5.70866657 L14.4417318,5.84574752 L14.7198601,6.30839568 Z M17.3363267,5.66868464 L17.6110214,5.06895553 L17.0581984,5.20032477 L17.3363267,5.66868464 Z M19.956227,5.02326188 L20.2309217,4.42924449 L19.6780987,4.56061372 L19.956227,5.02326188 L19.956227,5.02326188 Z M22.5829947,4.38355084 L22.8576894,3.78382173 L22.3048663,3.92090268 L22.5829947,4.38355084 Z M25.202895,3.7438398 L25.4775896,3.14411069 L24.9247666,3.27547993 L25.202895,3.7438398 Z" id="形状" fill="#23CCD1" transform="translate(13.423645, 14.504814) scale(-1, 1) translate(-13.423645, -14.504814) "></path>
                </g>
                <polygon id="路径" fill="#EEF3F7" transform="translate(20.914286, 5.642024) scale(-1, 1) translate(-20.914286, -5.642024) " points="41.828572 4.96217305 12.5370907 11.2840475 6e-07 6.51003179 28.2134265 0"></polygon>
                <polygon id="路径" fill="#ABBCC4" transform="translate(35.483456, 22.396395) scale(-1, 1) translate(-35.483456, -22.396395) " points="41.6754307 38.2827586 29.1383406 33.1168685 29.1383406 6.51003179 41.8285713 11.2840475"></polygon>
            </g>
        </g>
    </g>
</svg>