<?xml version="1.0" encoding="UTF-8"?>
<svg width="50px" height="50px" viewBox="0 0 50 50" version="1.1" xmlns="http://www.w3.org/2000/svg" xmlns:xlink="http://www.w3.org/1999/xlink">
    <title>storage-switch</title>
    <g id="页面-1" stroke="none" stroke-width="1" fill="none" fill-rule="evenodd">
        <g id="storage-switch" fill-rule="nonzero">
            <g id="背景区域" opacity="0" fill="#D8D8D8">
                <rect id="矩形" x="-5.68434189e-14" y="0" width="50" height="50"></rect>
            </g>
            <g id="图形" transform="translate(1.000000, 5.000000)">
                <polygon id="路径-7" fill="#ABBCC4" points="23.9669421 39.2987573 23.9669421 30.9901265 47.9338843 15.8181818 47.9338843 24.3726757"></polygon>
                <polygon id="路径-7备份-2" fill="#D9E3EC" transform="translate(11.983471, 27.558470) scale(-1, 1) translate(-11.983471, -27.558470) " points="-1.00000001e-07 39.2987573 -1.00000001e-07 30.9901265 23.966942 15.8181818 23.966942 24.3726757"></polygon>
                <polygon id="路径-4" fill="#416480" points="23.9669421 30.9901265 47.9338843 15.8181818 23.9669421 0.163442983 0 15.8181818"></polygon>
                <polygon id="路径-4备份" stroke="#BAC9D1" stroke-width="0.6" fill="#416480" points="23.9669421 1.94092491 44.9853773 15.7694367 23.9669421 29.1714753 2.94850699 15.7694367"></polygon>
            </g>
            <g id="编组-10" transform="translate(24.970948, 18.998732) rotate(5.000000) translate(-24.970948, -18.998732) translate(12.970948, 11.998732)">
                <path d="M4.00322009,5.40846965 C4.25052327,5.40846965 4.46691354,5.5017063 4.7103526,5.54443976 C5.03880213,1.94699438 7.78418219,-1.18423789e-14 11.5555556,-1.18423789e-14 C15.1298592,-1.18423789e-14 18.3931734,1.65187449 18.9766543,4.9773149 C19.2239575,4.93840155 19.4790533,4.90350256 19.7378844,4.90350256 C22.0911286,4.90350256 24,6.76435064 24,9.06418793 C24,11.3640252 22.0949928,13.2248733 19.7378844,13.2287582 L4.00322009,13.2287582 C1.78908388,13.2287582 0,11.4728013 0,9.31670385 C0,7.16060639 1.78528417,5.40846965 4.00322009,5.40846965 Z" id="路径" fill="#EFF3F8"></path>
                <g id="编组-9" transform="translate(8.888889, 2.666667)" fill="#23CCD1">
                    <polygon id="路径-32备份-4" transform="translate(3.043091, 6.433576) rotate(-92.000000) translate(-3.043091, -6.433576) " points="1.20208462 5.94649435 2.61586908 4.97471319 2.43897059 9.39284265 3.48865013 9.39284265 3.65617998 5.01104165 4.73746953 6.06995271 5.49662382 5.27861887 3.20650533 3.47430978 0.589559124 4.90395289"></polygon>
                    <polygon id="路径-32备份-5" transform="translate(3.661898, 2.413669) rotate(91.000000) translate(-3.661898, -2.413669) " points="2.01433985 2.20090482 3.2008163 1.31885859 3.2733813 5.47610464 4.32306084 5.47610464 4.24207857 1.30068329 5.26248654 2.11849662 6.02247966 1.62749133 3.77432265 -0.648767432 1.3013171 1.70989953"></polygon>
                </g>
            </g>
        </g>
    </g>
</svg>