<?xml version="1.0" encoding="UTF-8"?>
<svg width="42px" height="42px" viewBox="0 0 42 42" version="1.1" xmlns="http://www.w3.org/2000/svg" xmlns:xlink="http://www.w3.org/1999/xlink">
    <title>supplier</title>
    <g id="页面-1" stroke="none" stroke-width="1" fill="none" fill-rule="evenodd">
        <g id="supplier">
            <g id="背景区域" opacity="0" fill="#D8D8D8" fill-rule="nonzero">
                <rect id="矩形" x="0" y="0" width="42" height="42"></rect>
            </g>
            <g id="底块" transform="translate(0.909091, 0.424242)">
                <polygon id="路径-7备份-2" fill="#416480" fill-rule="nonzero" transform="translate(17.090909, 22.575758) scale(-1, 1) translate(-17.090909, -22.575758) " points="0.0909089 39.5757576 0.0909089 5.57575758 34.0909089 5.57575758 34.0909089 39.5757576"></polygon>
                <g id="路径" transform="translate(8.090909, 13.575758)" fill-rule="nonzero">
                    <path d="M16.7,10.6 L16.7,15.55 C16.7,16.8 15.7,17.85 14.4,17.85 L2.95,17.85 C1.85,17.85 1,16.95 1,15.9 L1,10.65 C1,10.45 1.15,10.35 1.35,10.35 C1.4,10.35 1.45,10.35 1.5,10.4 C2.95,11.4 4.85,11.15 6,9.85 C6.1,9.7 6.3,9.7 6.45,9.8 C6.45,9.8 6.5,9.85 6.5,9.85 C7.4,11 9,11.35 10.3,10.6 C10.65,10.4 10.95,10.15 11.2,9.85 C11.3,9.7 11.5,9.7 11.65,9.8 C11.65,9.8 11.7,9.85 11.7,9.85 C12.85,11.15 14.8,11.4 16.2,10.4 L16.2,10.4 C16.35,10.3 16.55,10.3 16.65,10.4 C16.65,10.4 16.7,10.5 16.7,10.6 Z" fill="#EFF3F8"></path>
                    <path d="M9.85,3.75 L9.3,3.75 C9.2,3.75 9.1,3.85 9.1,3.95 C9.1,3.95 9.1,3.95 9.1,3.95 L9.1,4.85 C9.1,4.95 9.15,5.05 9.25,5.05 C9.25,5.05 9.25,5.05 9.25,5.05 L9.8,5.05 C9.9,5.05 10,5 10,4.9 C10,4.9 10,4.9 10,4.9 L10,4 C10,3.85 9.95,3.75 9.85,3.75 Z" fill="#EFF3F8"></path>
                    <path d="M9.85,3.75 L9.3,3.75 C9.2,3.75 9.1,3.85 9.1,3.95 C9.1,3.95 9.1,3.95 9.1,3.95 L9.1,4.85 C9.1,4.95 9.15,5.05 9.25,5.05 C9.25,5.05 9.25,5.05 9.25,5.05 L9.8,5.05 C9.9,5.05 10,5 10,4.9 C10,4.9 10,4.9 10,4.9 L10,4 C10,3.85 9.95,3.75 9.85,3.75 Z" fill="#EFF3F8"></path>
                    <path d="M17.55,5.55 C17.5,5.25 17.4,4.9 17.25,4.65 L15.8,2.05 C15.15,0.9 14,0.2 12.7,0.2 L5.1,0.2 C3.8,0.2 2.6,0.9 2,2.05 L0.55,4.65 C0.4,4.95 0.3,5.25 0.2,5.55 C-0.4,7.35 0.6,9.3 2.4,9.9 C3.85,10.35 5.45,9.85 6.3,8.55 C7.1,9.95 8.9,10.45 10.3,9.65 C10.75,9.4 11.15,9 11.4,8.55 C12.45,10.1 14.6,10.5 16.15,9.45 C17.5,8.55 18.05,7 17.55,5.55 L17.55,5.55 Z" fill="#EFF3F8"></path>
                    <path d="M7.25,3.4 C7.25,3.45 7.25,3.45 7.25,3.5 L7.25,7.4 C7.25,7.5 7.15,7.6 7.05,7.6 L6.75,7.6 C6.65,7.6 6.55,7.5 6.55,7.4 C6.55,7.4 6.55,7.4 6.55,7.4 L6.55,4.85 C6.55,4.75 6.45,4.65 6.35,4.65 C6.3,4.65 6.25,4.65 6.2,4.7 L6.2,4.7 C6.15,4.75 6,4.8 5.95,4.7 C5.95,4.7 5.9,4.65 5.9,4.6 L5.8,4.3 C5.8,4.25 5.8,4.2 5.85,4.15 C6.4,3.5 6.85,2.75 7.1,1.95 C7.15,1.85 7.25,1.8 7.35,1.85 C7.35,1.85 7.35,1.85 7.35,1.85 L7.65,2 C7.75,2.05 7.75,2.15 7.75,2.25 C7.65,2.65 7.45,3.05 7.25,3.4 L7.25,3.4 Z" fill="#23CCD1"></path>
                    <path d="M9.15,6.2 C8.9,6.65 8.6,7.1 8.25,7.5 C8.2,7.55 8.1,7.55 8,7.5 L7.75,7.3 C7.7,7.25 7.65,7.15 7.75,7.05 C7.75,7.05 7.75,7.05 7.75,7.05 C8.1,6.7 8.4,6.3 8.6,5.9 C8.65,5.8 8.75,5.8 8.85,5.8 L9.1,5.95 C9.2,6 9.2,6.1 9.15,6.2 C9.15,6.2 9.15,6.2 9.15,6.2 L9.15,6.2 Z" fill="#23CCD1"></path>
                    <path d="M11.4,7.3 L11.1,7.5 C11,7.55 10.9,7.55 10.85,7.45 C10.85,7.45 10.85,7.45 10.85,7.45 C10.6,7 10.3,6.6 9.95,6.2 C9.9,6.1 9.9,6 10,5.95 C10,5.95 10,5.95 10,5.95 L10.25,5.8 C10.35,5.75 10.45,5.75 10.5,5.85 C10.85,6.25 11.2,6.65 11.5,7.1 C11.55,7.15 11.5,7.25 11.4,7.3 C11.4,7.3 11.4,7.3 11.4,7.3 Z" fill="#23CCD1"></path>
                    <path d="M11.6,5.45 C11.6,5.55 11.5,5.65 11.4,5.65 C11.4,5.65 11.4,5.65 11.4,5.65 L7.7,5.65 C7.6,5.65 7.5,5.55 7.5,5.45 C7.5,5.45 7.5,5.45 7.5,5.45 L7.5,5.2 C7.5,5.1 7.6,5 7.7,5 L8.25,5 C8.35,5 8.45,4.95 8.45,4.85 C8.45,4.85 8.45,4.85 8.45,4.85 L8.45,3.95 C8.45,3.85 8.35,3.75 8.25,3.75 L8.25,3.75 L7.9,3.75 C7.8,3.75 7.7,3.65 7.7,3.55 C7.7,3.55 7.7,3.55 7.7,3.55 L7.7,3.3 C7.7,3.2 7.75,3.1 7.85,3.1 C7.85,3.1 7.85,3.1 7.85,3.1 L8.2,3.1 C8.3,3.1 8.4,3 8.4,2.9 C8.4,2.9 8.4,2.9 8.4,2.9 L8.4,2.05 C8.4,1.95 8.5,1.85 8.6,1.85 L8.6,1.85 L8.9,1.85 C9,1.85 9.1,1.95 9.1,2.05 C9.1,2.05 9.1,2.05 9.1,2.05 L9.1,2.9 C9.1,3 9.2,3.1 9.3,3.1 L9.3,3.1 L9.85,3.1 C9.95,3.1 10.05,3 10.05,2.9 C10.05,2.9 10.05,2.9 10.05,2.9 L10.05,2.05 C10.05,1.95 10.15,1.85 10.25,1.85 L10.25,1.85 L10.55,1.85 C10.65,1.85 10.75,1.95 10.75,2.05 L10.75,2.9 C10.75,3 10.85,3.1 10.95,3.1 L11.35,3.1 C11.45,3.1 11.55,3.15 11.55,3.25 C11.55,3.25 11.55,3.25 11.55,3.25 L11.55,3.5 C11.55,3.6 11.45,3.7 11.35,3.7 L11.35,3.7 L10.95,3.7 C10.85,3.7 10.75,3.8 10.75,3.9 L10.75,4.8 C10.75,4.9 10.8,5 10.9,5 C10.9,5 10.9,5 10.9,5 L11.45,5 C11.55,5 11.65,5.1 11.65,5.2 L11.6,5.45 Z" fill="#23CCD1"></path>
                    <path d="M9.85,3.75 L9.3,3.75 C9.2,3.75 9.1,3.85 9.1,3.95 C9.1,3.95 9.1,3.95 9.1,3.95 L9.1,4.85 C9.1,4.95 9.15,5.05 9.25,5.05 C9.25,5.05 9.25,5.05 9.25,5.05 L9.8,5.05 C9.9,5.05 10,5 10,4.9 C10,4.9 10,4.9 10,4.9 L10,4 C10,3.85 9.95,3.75 9.85,3.75 Z" fill="#23CCD1"></path>
                    <path d="M9.85,3.75 L9.3,3.75 C9.2,3.75 9.1,3.85 9.1,3.95 C9.1,3.95 9.1,3.95 9.1,3.95 L9.1,4.85 C9.1,4.95 9.15,5.05 9.25,5.05 C9.25,5.05 9.25,5.05 9.25,5.05 L9.8,5.05 C9.9,5.05 10,5 10,4.9 C10,4.9 10,4.9 10,4.9 L10,4 C10,3.85 9.95,3.75 9.85,3.75 Z" fill="#23CCD1"></path>
                    <path d="M9.85,3.75 L9.3,3.75 C9.2,3.75 9.1,3.85 9.1,3.95 C9.1,3.95 9.1,3.95 9.1,3.95 L9.1,4.85 C9.1,4.95 9.15,5.05 9.25,5.05 C9.25,5.05 9.25,5.05 9.25,5.05 L9.8,5.05 C9.9,5.05 10,5 10,4.9 C10,4.9 10,4.9 10,4.9 L10,4 C10,3.85 9.95,3.75 9.85,3.75 Z" fill="#EFF3F8"></path>
                </g>
                <polygon id="路径-7备份-6" fill="#EEF3F7" fill-rule="nonzero" transform="translate(20.090909, 3.075758) rotate(180.000000) translate(-20.090909, -3.075758) " points="0.0909089 5.57575842 6.0909089 0.57575842 40.0909089 0.57575842 32.2909089 5.57575842"></polygon>
                <polygon id="路径-7备份-5" fill="#AFC0C8" fill-rule="nonzero" transform="translate(37.090909, 20.075758) scale(-1, 1) translate(-37.090909, -20.075758) " points="34.0909089 33.5757576 34.0909089 0.575757576 40.0909089 5.57575758 40.0909089 39.5757576"></polygon>
                <polygon id="路径-7备份-4" stroke="#FFFFFF" opacity="0.25" transform="translate(17.090909, 22.575758) scale(-1, 1) translate(-17.090909, -22.575758) " points="31.5909089 8.07575758 31.5909089 37.0757576 2.5909089 37.0757576 2.5909089 8.07575758"></polygon>
                <polygon id="路径-7备份-4" stroke="#32526B" transform="translate(17.090909, 22.575758) scale(-1, 1) translate(-17.090909, -22.575758) " points="30.5909089 9.07575758 30.5909089 36.0757576 3.5909089 36.0757576 3.5909089 9.07575758"></polygon>
            </g>
        </g>
    </g>
</svg>