<?xml version="1.0" encoding="UTF-8"?>
<svg width="50px" height="50px" viewBox="0 0 50 50" version="1.1" xmlns="http://www.w3.org/2000/svg" xmlns:xlink="http://www.w3.org/1999/xlink">
    <title>switch</title>
    <g id="页面-1" stroke="none" stroke-width="1" fill="none" fill-rule="evenodd">
        <g id="switch">
            <g id="背景区域" opacity="0" fill="#D8D8D8" fill-rule="nonzero">
                <rect id="矩形" x="0" y="0" width="50" height="50"></rect>
            </g>
            <g id="图形" transform="translate(1.000000, 5.000000)">
                <polygon id="路径-7" fill="#ABBCC4" fill-rule="nonzero" points="23.9669421 39.2987573 23.9669421 30.9901265 47.9338843 15.8181818 47.9338843 24.3726757"></polygon>
                <polygon id="路径-7备份-2" fill="#D9E3EC" fill-rule="nonzero" transform="translate(11.983471, 27.558470) scale(-1, 1) translate(-11.983471, -27.558470) " points="-1.00000001e-07 39.2987573 -1.00000001e-07 30.9901265 23.966942 15.8181818 23.966942 24.3726757"></polygon>
                <polygon id="路径-4" fill="#416480" fill-rule="nonzero" points="23.9669421 30.9901265 47.9338843 15.8181818 23.9669421 0.163442983 0 15.8181818"></polygon>
                <polygon id="路径-4备份" stroke="#BAC9D1" stroke-width="0.6" fill="#416480" fill-rule="nonzero" points="23.9669421 1.94092491 44.9853773 15.7694367 23.9669421 29.1714753 2.94850699 15.7694367"></polygon>
                <g id="形状结合备份-2" transform="translate(8.000000, 5.000000)">
                    <g id="path-1-link" fill="#000000" fill-rule="nonzero">
                        <path d="M6.6386289,13.4545455 L5.2784139,14.3333333 L0.17381922,10.8181818 L5.8413816,7.1565657 L7.1175302,8.0353535 L3.7716187,10.1964353 L11.7723997,10.1968857 C11.968981,9.6731215 12.383998,9.1749065 13.0143208,8.7676768 C13.6447864,8.3603547 14.4047843,8.0995375 15.1960937,7.9852251 L15.4500034,2.65143448 L12.5583901,4.52020202 L11.2822414,3.64141414 L16.4963988,0.27272727 L21.6009935,3.78787879 L20.2407785,4.66666667 L17.314194,2.65143448 L17.0589137,7.9852251 C17.8392878,8.0995375 18.5743354,8.3603547 19.1658359,8.7676768 C19.7572025,9.1749065 20.1245594,9.6731215 20.2710366,10.1968857 L28.271433,10.1964353 L25.3453732,8.1818182 L26.7055882,7.3030303 L31.8101829,10.8181818 L26.5964789,14.1865758 L25.3203302,13.3077879 L28.2119892,11.439229 L20.2115553,11.4396035 C20.0149547,11.9633218 19.5999537,12.4614896 18.9696813,12.8686869 C18.3395527,13.2757911 17.5800305,13.5365472 16.7891777,13.650955 L16.5329632,18.984644 L19.879017,16.8232323 L21.1551656,17.7020202 L15.4876033,21.3636364 L10.3830086,17.8484848 L11.7432236,16.969697 L14.6687726,18.984644 L14.9238366,13.650955 C14.1439283,13.5365472 13.4093504,13.2757911 12.8181661,12.8686869 C12.2268469,12.4614896 11.8595014,11.9633218 11.7130006,11.4396035 L3.7121748,11.439229 L6.6386289,13.4545455 Z M13.6778028,10.4514956 L13.6442537,10.5447287 L13.619228,10.638756 L13.6164729,10.6516417 C13.6173591,10.647372 13.6182715,10.6431037 13.619228,10.638756 L13.6107839,10.6810685 L13.6085703,10.6915348 L13.6074285,10.700853 L13.6058648,10.7105152 L13.6085703,10.6915348 L13.6164729,10.6516417 L13.6040546,10.7234609 L13.5999619,10.7587573 L13.6007007,10.7501565 L13.5993394,10.7629036 L13.5969095,10.7906855 L13.5960876,10.8018589 L13.5946828,10.8312291 L13.5960629,10.8023742 L13.5940827,10.8437741 L13.5946828,10.8312291 L13.5942135,10.8482969 L13.5939723,10.871454 L13.594329,10.8941994 L13.5952035,10.9208824 L13.5962825,10.9359086 L13.5997254,10.9778346 L13.6000808,10.9817781 L13.6005098,10.985337 L13.6124321,11.0643161 C13.6233176,11.1217937 13.639034,11.1788704 13.659595,11.2352633 L13.6704496,11.2645084 L13.6737849,11.2721732 L13.6893233,11.3084008 L13.6795774,11.2866523 L13.6892297,11.3085605 C13.6996854,11.3320583 13.7108435,11.355108 13.722842,11.3779975 L13.709536,11.3518519 C13.8149785,11.5654059 13.9927943,11.7658316 14.2437626,11.9368414 C14.5121231,12.1197023 14.8340423,12.2484295 15.1793424,12.3230231 C15.197539,12.3269528 15.215605,12.3306935 15.2337303,12.3342871 L15.2958105,12.3459797 C15.3330719,12.3526316 15.3705599,12.3586705 15.4082382,12.3640963 L15.358407,12.3565449 C15.3963848,12.362588 15.4345742,12.3680025 15.4729374,12.3727883 L15.4166987,12.3649815 L15.4887794,12.3747277 C15.5157137,12.3779623 15.5427309,12.3808878 15.5698181,12.3835042 C15.5969636,12.386127 15.624276,12.3884464 15.6516457,12.3904532 L15.6372597,12.3891026 L15.6659282,12.3910797 L15.6850468,12.392266 L15.7645513,12.3969456 L15.718509,12.3942431 L15.7508253,12.396346 L15.789666,12.3974065 L15.817773,12.3985928 L15.8260529,12.3989926 L15.8500935,12.3993837 L15.8859945,12.4 L15.8500935,12.3993837 L15.8268389,12.399012 L15.8876525,12.4 L15.9452124,12.4 L16.0112561,12.3988851 C16.0959087,12.3966923 16.1805595,12.3915623 16.264827,12.383495 L16.3137065,12.3784812 L16.3954348,12.3685915 L16.4198082,12.3649815 L16.4777502,12.3562821 L16.4281944,12.3640924 L16.4854123,12.3554894 L16.5139877,12.3503507 L16.5446673,12.3455682 L16.6010143,12.3349291 L16.5447943,12.3452102 L16.601753,12.3350191 L16.6675848,12.3216208 L16.7021069,12.313576 L16.7176552,12.3105266 L16.7292772,12.3078379 C17.0565469,12.2315167 17.3661867,12.1078512 17.633514,11.9368414 C17.9186748,11.7544236 18.1237995,11.5385343 18.2479426,11.308943 L18.2595801,11.2869213 L18.2667763,11.2720215 L18.2588858,11.2866523 L18.2701129,11.2649038 C18.3157587,11.1733129 18.3481176,11.0797996 18.3677133,10.985563 L18.3681464,10.9817781 L18.3746775,10.948956 L18.3763326,10.9359086 L18.3739297,10.9485623 L18.3803593,10.9122923 L18.3837555,10.8809443 L18.3848086,10.871454 L18.3872036,10.8481851 L18.3900102,10.7906902 L18.3900098,10.7627116 L18.3900972,10.7502165 L18.3892986,10.723519 L18.3883118,10.7105152 L18.386135,10.6808582 L18.385782,10.6715287 L18.3729424,10.5784283 L18.3517153,10.486007 L18.338254,10.4416249 L18.329581,10.4152836 C18.3253666,10.403242 18.3209322,10.3912305 18.3162777,10.3792517 L18.3086585,10.3601526 L18.2978004,10.3352551 L18.2779868,10.2916016 L18.2924685,10.3225112 C18.2803091,10.2955533 18.267013,10.2687869 18.2525786,10.2422439 L18.2727892,10.2818724 L18.2284532,10.1998719 C18.1203309,10.0182284 17.9578503,9.8480677 17.7405055,9.6999689 C17.4749082,9.5189909 17.1568496,9.3910375 16.8155847,9.3161087 L16.7731632,9.3070916 L16.7662851,9.3055633 L16.7594211,9.3042972 L16.7304446,9.2986044 L16.6837299,9.2901417 L16.6379676,9.2822332 L16.6219208,9.2794652 L16.5939723,9.2751155 L16.4768424,9.2598942 C16.3889422,9.2498173 16.3001934,9.2430235 16.2110465,9.2395128 L16.1751746,9.238278 L16.1894278,9.2387362 L16.1929621,9.2388461 L16.2110465,9.2395128 L16.1894278,9.2387362 L16.1477514,9.2375733 L16.1014357,9.2367591 L16.0672986,9.2363636 L16.0343221,9.2367591 L15.9879318,9.2375691 L15.9479385,9.2387362 L15.8244843,9.2447919 C15.7793493,9.2477986 15.7342784,9.2516429 15.6893298,9.2563248 L15.554909,9.2728836 L15.4908923,9.282594 L15.4612997,9.2874884 L15.523552,9.2774909 L15.4366586,9.2917234 L15.3993364,9.2985806 L15.4271621,9.2934572 C15.3886832,9.3003812 15.3503828,9.3079386 15.3122991,9.3161294 L15.3993364,9.2985806 C15.3543361,9.307055 15.3095937,9.3163998 15.2651708,9.326615 C14.9341431,9.4027357 14.6208517,9.527187 14.3507541,9.6999689 C14.0678442,9.8809469 13.8637118,10.0948701 13.7392802,10.3224333 L13.7322742,10.3352551 L13.7099647,10.3793257 L13.7011282,10.3979642 L13.6932338,10.4153208 L13.6829948,10.4384615 L13.6778028,10.4514956 Z" id="path-1"></path>
                    </g>
                    <g id="path-1-link" fill="#FFFFFF">
                        <path d="M6.6386289,13.4545455 L5.2784139,14.3333333 L0.17381922,10.8181818 L5.8413816,7.1565657 L7.1175302,8.0353535 L3.7716187,10.1964353 L11.7723997,10.1968857 C11.968981,9.6731215 12.383998,9.1749065 13.0143208,8.7676768 C13.6447864,8.3603547 14.4047843,8.0995375 15.1960937,7.9852251 L15.4500034,2.65143448 L12.5583901,4.52020202 L11.2822414,3.64141414 L16.4963988,0.27272727 L21.6009935,3.78787879 L20.2407785,4.66666667 L17.314194,2.65143448 L17.0589137,7.9852251 C17.8392878,8.0995375 18.5743354,8.3603547 19.1658359,8.7676768 C19.7572025,9.1749065 20.1245594,9.6731215 20.2710366,10.1968857 L28.271433,10.1964353 L25.3453732,8.1818182 L26.7055882,7.3030303 L31.8101829,10.8181818 L26.5964789,14.1865758 L25.3203302,13.3077879 L28.2119892,11.439229 L20.2115553,11.4396035 C20.0149547,11.9633218 19.5999537,12.4614896 18.9696813,12.8686869 C18.3395527,13.2757911 17.5800305,13.5365472 16.7891777,13.650955 L16.5329632,18.984644 L19.879017,16.8232323 L21.1551656,17.7020202 L15.4876033,21.3636364 L10.3830086,17.8484848 L11.7432236,16.969697 L14.6687726,18.984644 L14.9238366,13.650955 C14.1439283,13.5365472 13.4093504,13.2757911 12.8181661,12.8686869 C12.2268469,12.4614896 11.8595014,11.9633218 11.7130006,11.4396035 L3.7121748,11.439229 L6.6386289,13.4545455 Z M13.6778028,10.4514956 L13.6442537,10.5447287 L13.619228,10.638756 L13.6164729,10.6516417 C13.6173591,10.647372 13.6182715,10.6431037 13.619228,10.638756 L13.6107839,10.6810685 L13.6085703,10.6915348 L13.6074285,10.700853 L13.6058648,10.7105152 L13.6085703,10.6915348 L13.6164729,10.6516417 L13.6040546,10.7234609 L13.5999619,10.7587573 L13.6007007,10.7501565 L13.5993394,10.7629036 L13.5969095,10.7906855 L13.5960876,10.8018589 L13.5946828,10.8312291 L13.5960629,10.8023742 L13.5940827,10.8437741 L13.5946828,10.8312291 L13.5942135,10.8482969 L13.5939723,10.871454 L13.594329,10.8941994 L13.5952035,10.9208824 L13.5962825,10.9359086 L13.5997254,10.9778346 L13.6000808,10.9817781 L13.6005098,10.985337 L13.6124321,11.0643161 C13.6233176,11.1217937 13.639034,11.1788704 13.659595,11.2352633 L13.6704496,11.2645084 L13.6737849,11.2721732 L13.6893233,11.3084008 L13.6795774,11.2866523 L13.6892297,11.3085605 C13.6996854,11.3320583 13.7108435,11.355108 13.722842,11.3779975 L13.709536,11.3518519 C13.8149785,11.5654059 13.9927943,11.7658316 14.2437626,11.9368414 C14.5121231,12.1197023 14.8340423,12.2484295 15.1793424,12.3230231 C15.197539,12.3269528 15.215605,12.3306935 15.2337303,12.3342871 L15.2958105,12.3459797 C15.3330719,12.3526316 15.3705599,12.3586705 15.4082382,12.3640963 L15.358407,12.3565449 C15.3963848,12.362588 15.4345742,12.3680025 15.4729374,12.3727883 L15.4166987,12.3649815 L15.4887794,12.3747277 C15.5157137,12.3779623 15.5427309,12.3808878 15.5698181,12.3835042 C15.5969636,12.386127 15.624276,12.3884464 15.6516457,12.3904532 L15.6372597,12.3891026 L15.6659282,12.3910797 L15.6850468,12.392266 L15.7645513,12.3969456 L15.718509,12.3942431 L15.7508253,12.396346 L15.789666,12.3974065 L15.817773,12.3985928 L15.8260529,12.3989926 L15.8500935,12.3993837 L15.8859945,12.4 L15.8500935,12.3993837 L15.8268389,12.399012 L15.8876525,12.4 L15.9452124,12.4 L16.0112561,12.3988851 C16.0959087,12.3966923 16.1805595,12.3915623 16.264827,12.383495 L16.3137065,12.3784812 L16.3954348,12.3685915 L16.4198082,12.3649815 L16.4777502,12.3562821 L16.4281944,12.3640924 L16.4854123,12.3554894 L16.5139877,12.3503507 L16.5446673,12.3455682 L16.6010143,12.3349291 L16.5447943,12.3452102 L16.601753,12.3350191 L16.6675848,12.3216208 L16.7021069,12.313576 L16.7176552,12.3105266 L16.7292772,12.3078379 C17.0565469,12.2315167 17.3661867,12.1078512 17.633514,11.9368414 C17.9186748,11.7544236 18.1237995,11.5385343 18.2479426,11.308943 L18.2595801,11.2869213 L18.2667763,11.2720215 L18.2588858,11.2866523 L18.2701129,11.2649038 C18.3157587,11.1733129 18.3481176,11.0797996 18.3677133,10.985563 L18.3681464,10.9817781 L18.3746775,10.948956 L18.3763326,10.9359086 L18.3739297,10.9485623 L18.3803593,10.9122923 L18.3837555,10.8809443 L18.3848086,10.871454 L18.3872036,10.8481851 L18.3900102,10.7906902 L18.3900098,10.7627116 L18.3900972,10.7502165 L18.3892986,10.723519 L18.3883118,10.7105152 L18.386135,10.6808582 L18.385782,10.6715287 L18.3729424,10.5784283 L18.3517153,10.486007 L18.338254,10.4416249 L18.329581,10.4152836 C18.3253666,10.403242 18.3209322,10.3912305 18.3162777,10.3792517 L18.3086585,10.3601526 L18.2978004,10.3352551 L18.2779868,10.2916016 L18.2924685,10.3225112 C18.2803091,10.2955533 18.267013,10.2687869 18.2525786,10.2422439 L18.2727892,10.2818724 L18.2284532,10.1998719 C18.1203309,10.0182284 17.9578503,9.8480677 17.7405055,9.6999689 C17.4749082,9.5189909 17.1568496,9.3910375 16.8155847,9.3161087 L16.7731632,9.3070916 L16.7662851,9.3055633 L16.7594211,9.3042972 L16.7304446,9.2986044 L16.6837299,9.2901417 L16.6379676,9.2822332 L16.6219208,9.2794652 L16.5939723,9.2751155 L16.4768424,9.2598942 C16.3889422,9.2498173 16.3001934,9.2430235 16.2110465,9.2395128 L16.1751746,9.238278 L16.1894278,9.2387362 L16.1929621,9.2388461 L16.2110465,9.2395128 L16.1894278,9.2387362 L16.1477514,9.2375733 L16.1014357,9.2367591 L16.0672986,9.2363636 L16.0343221,9.2367591 L15.9879318,9.2375691 L15.9479385,9.2387362 L15.8244843,9.2447919 C15.7793493,9.2477986 15.7342784,9.2516429 15.6893298,9.2563248 L15.554909,9.2728836 L15.4908923,9.282594 L15.4612997,9.2874884 L15.523552,9.2774909 L15.4366586,9.2917234 L15.3993364,9.2985806 L15.4271621,9.2934572 C15.3886832,9.3003812 15.3503828,9.3079386 15.3122991,9.3161294 L15.3993364,9.2985806 C15.3543361,9.307055 15.3095937,9.3163998 15.2651708,9.326615 C14.9341431,9.4027357 14.6208517,9.527187 14.3507541,9.6999689 C14.0678442,9.8809469 13.8637118,10.0948701 13.7392802,10.3224333 L13.7322742,10.3352551 L13.7099647,10.3793257 L13.7011282,10.3979642 L13.6932338,10.4153208 L13.6829948,10.4384615 L13.6778028,10.4514956 Z" id="path-1"></path>
                    </g>
                </g>
                <path d="M21.6778028,15.4514956 L21.6442537,15.5447287 L21.619228,15.638756 L21.6164729,15.6516417 C21.6173591,15.647372 21.6182715,15.6431037 21.619228,15.638756 L21.6107839,15.6810685 L21.6085703,15.6915348 L21.6074285,15.700853 L21.6058648,15.7105152 L21.6085703,15.6915348 L21.6164729,15.6516417 L21.6040546,15.7234609 L21.5999619,15.7587573 L21.6007007,15.7501565 L21.5993394,15.7629036 L21.5969095,15.7906855 L21.5960876,15.8018589 L21.5946828,15.8312291 L21.5960629,15.8023742 L21.5940827,15.8437741 L21.5946828,15.8312291 L21.5942135,15.8482969 L21.5939723,15.871454 L21.594329,15.8941994 L21.5952035,15.9208824 L21.5962825,15.9359086 L21.5997254,15.9778346 L21.6000808,15.9817781 L21.6005098,15.985337 L21.6124321,16.0643161 C21.6233176,16.1217937 21.639034,16.1788704 21.659595,16.2352633 L21.6704496,16.2645084 L21.6737849,16.2721732 L21.6893233,16.3084008 L21.6795774,16.2866523 L21.6892297,16.3085605 C21.6996854,16.3320583 21.7108435,16.355108 21.722842,16.3779975 L21.709536,16.3518519 C21.8149785,16.5654059 21.9927943,16.7658316 22.2437626,16.9368414 C22.5121231,17.1197023 22.8340423,17.2484295 23.1793424,17.3230231 C23.197539,17.3269528 23.215605,17.3306935 23.2337303,17.3342871 L23.2958105,17.3459797 C23.3330719,17.3526316 23.3705599,17.3586705 23.4082382,17.3640963 L23.358407,17.3565449 C23.3963848,17.362588 23.4345742,17.3680025 23.4729374,17.3727883 L23.4166987,17.3649815 L23.4887794,17.3747277 C23.5157137,17.3779623 23.5427309,17.3808878 23.5698181,17.3835042 C23.5969636,17.386127 23.624276,17.3884464 23.6516457,17.3904532 L23.6372597,17.3891026 L23.6659282,17.3910797 L23.6850468,17.392266 L23.7645513,17.3969456 L23.718509,17.3942431 L23.7508253,17.396346 L23.789666,17.3974065 L23.817773,17.3985928 L23.8260529,17.3989926 L23.8500935,17.3993837 L23.8859945,17.4 L23.8500935,17.3993837 L23.8268389,17.399012 L23.8876525,17.4 L23.9452124,17.4 L24.0112561,17.3988851 C24.0959087,17.3966923 24.1805595,17.3915623 24.264827,17.383495 L24.3137065,17.3784812 L24.3954348,17.3685915 L24.4198082,17.3649815 L24.4777502,17.3562821 L24.4281944,17.3640924 L24.4854123,17.3554894 L24.5139877,17.3503507 L24.5446673,17.3455682 L24.6010143,17.3349291 L24.5447943,17.3452102 L24.601753,17.3350191 L24.6675848,17.3216208 L24.7021069,17.313576 L24.7176552,17.3105266 L24.7292772,17.3078379 C25.0565469,17.2315167 25.3661867,17.1078512 25.633514,16.9368414 C25.9186748,16.7544236 26.1237995,16.5385343 26.2479426,16.308943 L26.2595801,16.2869213 L26.2667763,16.2720215 L26.2588858,16.2866523 L26.2701129,16.2649038 C26.3157587,16.1733129 26.3481176,16.0797996 26.3677133,15.985563 L26.3681464,15.9817781 L26.3746775,15.948956 L26.3763326,15.9359086 L26.3739297,15.9485623 L26.3803593,15.9122923 L26.3837555,15.8809443 L26.3848086,15.871454 L26.3872036,15.8481851 L26.3900102,15.7906902 L26.3900098,15.7627116 L26.3900972,15.7502165 L26.3892986,15.723519 L26.3883118,15.7105152 L26.386135,15.6808582 L26.385782,15.6715287 L26.3729424,15.5784283 L26.3517153,15.486007 L26.338254,15.4416249 L26.329581,15.4152836 C26.3253666,15.403242 26.3209322,15.3912305 26.3162777,15.3792517 L26.3086585,15.3601526 L26.2978004,15.3352551 L26.2779868,15.2916016 L26.2924685,15.3225112 C26.2803091,15.2955533 26.267013,15.2687869 26.2525786,15.2422439 L26.2727892,15.2818724 L26.2284532,15.1998719 C26.1203309,15.0182284 25.9578503,14.8480677 25.7405055,14.6999689 C25.4749082,14.5189909 25.1568496,14.3910375 24.8155847,14.3161087 L24.7731632,14.3070916 L24.7662851,14.3055633 L24.7594211,14.3042972 L24.7304446,14.2986044 L24.6837299,14.2901417 L24.6379676,14.2822332 L24.6219208,14.2794652 L24.5939723,14.2751155 L24.4768424,14.2598942 C24.3889422,14.2498173 24.3001934,14.2430235 24.2110465,14.2395128 L24.1751746,14.238278 L24.1894278,14.2387362 L24.1929621,14.2388461 L24.2110465,14.2395128 L24.1894278,14.2387362 L24.1477514,14.2375733 L24.1014357,14.2367591 L24.0672986,14.2363636 L24.0343221,14.2367591 L23.9879318,14.2375691 L23.9479385,14.2387362 L23.8244843,14.2447919 C23.7793493,14.2477986 23.7342784,14.2516429 23.6893298,14.2563248 L23.554909,14.2728836 L23.4908923,14.282594 L23.4612997,14.2874884 L23.523552,14.2774909 L23.4366586,14.2917234 L23.3993364,14.2985806 L23.4271621,14.2934572 C23.3886832,14.3003812 23.3503828,14.3079386 23.3122991,14.3161294 L23.3993364,14.2985806 C23.3543361,14.307055 23.3095937,14.3163998 23.2651708,14.326615 C22.9341431,14.4027357 22.6208517,14.527187 22.3507541,14.6999689 C22.0678442,14.8809469 21.8637118,15.0948701 21.7392802,15.3224333 L21.7322742,15.3352551 L21.7099647,15.3793257 L21.7011282,15.3979642 L21.6932338,15.4153208 L21.6829948,15.4384615 L21.6778028,15.4514956 Z" id="路径" fill="#23CCD1" fill-rule="nonzero"></path>
            </g>
        </g>
    </g>
</svg>