<?xml version="1.0" encoding="UTF-8"?>
<svg width="42px" height="42px" viewBox="0 0 42 42" version="1.1" xmlns="http://www.w3.org/2000/svg" xmlns:xlink="http://www.w3.org/1999/xlink">
    <title>tenant</title>
    <g id="页面-1" stroke="none" stroke-width="1" fill="none" fill-rule="evenodd">
        <g id="tenant">
            <g id="背景区域" opacity="0" fill="#D8D8D8" fill-rule="nonzero">
                <rect id="矩形" x="0" y="0" width="42" height="42"></rect>
            </g>
            <g id="底块" transform="translate(1.000000, 1.000000)">
                <polygon id="路径-7备份-2" fill="#416480" fill-rule="nonzero" transform="translate(17.000000, 22.000000) scale(-1, 1) translate(-17.000000, -22.000000) " points="0 39 0 5 34 5 34 39"></polygon>
                <g id="编组" transform="translate(9.000000, 12.000000)" fill-rule="nonzero">
                    <circle id="椭圆形备份-27" fill="#3CD1D6" cx="8.48648649" cy="4.81081081" r="4.81081081"></circle>
                    <path d="M13.027027,12.7027027 C11.027027,12.7027027 9.40540541,14.3243243 9.40540541,16.3243243 C9.40540541,18.3243243 11.027027,19.9459459 13.027027,19.9459459 C15.027027,19.9459459 16.6486486,18.3243243 16.6486486,16.3243243 C16.6486486,16.3243243 16.6486486,16.3243243 16.6486486,16.3243243 C16.5945946,14.2702703 15.027027,12.7027027 13.027027,12.7027027 C13.027027,12.7027027 13.027027,12.7027027 13.027027,12.7027027 Z M14.8108108,17.6216216 C14.8108108,17.7837838 14.7027027,17.8918919 14.5405405,17.8918919 L12.7567568,17.8918919 C12.5945946,17.8918919 12.4864865,17.7837838 12.4864865,17.6216216 L12.4864865,17.4054054 L12.8108108,17.4054054 L12.8108108,16.7027027 L12.5405405,16.972973 C12.4864865,16.9189189 12.3783784,16.8108108 12.3243243,16.7567568 L12.3243243,17.6756757 C12.3243243,17.8378378 12.2162162,17.9459459 12.0540541,17.9459459 C11.8918919,17.9459459 11.7837838,17.8378378 11.7837838,17.6756757 L11.7837838,17.6756757 L11.7837838,16.8648649 C11.6756757,17.027027 11.5675676,17.2432432 11.4594595,17.4054054 C11.4594595,17.4054054 11.4054054,17.2432432 11.3513514,17.0810811 C11.2972973,16.9189189 11.2972973,16.8108108 11.2972973,16.7567568 C11.4594595,16.5405405 11.6216216,16.2702703 11.7297297,15.9459459 L11.3513514,15.9459459 L11.3513514,15.4054054 L11.7837838,15.4054054 L11.7837838,15.0810811 C11.7297297,15.0810811 11.6756757,15.0810811 11.5675676,15.0810811 L11.4054054,15.0810811 C11.4054054,14.972973 11.3513514,14.8108108 11.3513514,14.5945946 C11.3513514,14.5945946 11.3513514,14.5945946 11.3513514,14.5405405 C11.4054054,14.5405405 11.5135135,14.5405405 11.5675676,14.5405405 C11.8918919,14.5405405 12.1621622,14.4864865 12.4324324,14.4864865 C12.5945946,14.4864865 12.7027027,14.5405405 12.7567568,14.7027027 L12.8108108,14.972973 C12.6486486,14.972973 12.5405405,14.972973 12.3783784,15.027027 L12.3783784,15.4054054 L12.8108108,15.4054054 L12.8108108,15.9459459 L12.3783784,15.9459459 L12.3783784,16.3243243 L12.5405405,16.1621622 L12.5945946,16.2162162 L12.8648649,16.4864865 L12.8648649,14.8648649 C12.8648649,14.7027027 12.972973,14.5945946 13.1351351,14.5945946 L14.3783784,14.5945946 C14.5405405,14.5945946 14.6486486,14.7027027 14.6486486,14.8648649 L14.6486486,17.3513514 L14.8648649,17.3513514 L14.8108108,17.6216216 Z" id="形状备份-3" fill="#EFF3F8"></path>
                    <rect id="矩形" fill="#EFF3F8" x="13.25" y="16.0540541" width="1" height="1"></rect>
                    <rect id="矩形" fill="#EFF3F8" x="13.25" y="16.972973" width="1" height="1"></rect>
                    <rect id="矩形" fill="#EFF3F8" x="13.25" y="15.1351351" width="1" height="1"></rect>
                    <path d="M8.16216216,16.5405405 C8.16216216,13.9459459 10.1081081,11.7297297 12.7027027,11.4054054 C8.59459459,9.08108108 3.40540541,10.5405405 1.08108108,14.6486486 C0.378378378,15.9459459 0,17.3513514 0,18.8108108 C0,19.027027 4.48648649,19.0810811 8.86486486,19.0810811 C8.37837838,18.3243243 8.16216216,17.4594595 8.16216216,16.5405405 Z" id="路径备份-19" fill="#EFF3F8"></path>
                </g>
                <polygon id="路径-7备份-6" fill="#EEF3F7" fill-rule="nonzero" transform="translate(20.000000, 2.500000) rotate(180.000000) translate(-20.000000, -2.500000) " points="0 5 6 0 40 0 32.2 5"></polygon>
                <polygon id="路径-7备份-5" fill="#AFC0C8" fill-rule="nonzero" transform="translate(37.000000, 19.500000) scale(-1, 1) translate(-37.000000, -19.500000) " points="34 33 34 0 40 5 40 39"></polygon>
                <polygon id="路径-7备份-4" stroke="#FFFFFF" opacity="0.25" transform="translate(17.000000, 22.000000) scale(-1, 1) translate(-17.000000, -22.000000) " points="31.5 7.5 31.5 36.5 2.5 36.5 2.5 7.5"></polygon>
                <polygon id="路径-7备份-4" stroke="#32526B" transform="translate(17.000000, 22.000000) scale(-1, 1) translate(-17.000000, -22.000000) " points="30.5 8.5 30.5 35.5 3.5 35.5 3.5 8.5"></polygon>
            </g>
        </g>
    </g>
</svg>