<?xml version="1.0" encoding="UTF-8"?>
<svg width="42px" height="42px" viewBox="0 0 42 42" version="1.1" xmlns="http://www.w3.org/2000/svg" xmlns:xlink="http://www.w3.org/1999/xlink">
    <title>tomcat</title>
    <g id="页面-1" stroke="none" stroke-width="1" fill="none" fill-rule="evenodd">
        <g id="tomcat">
            <g id="背景区域" opacity="0" fill="#D8D8D8" fill-rule="nonzero">
                <rect id="矩形" x="0" y="0" width="42" height="42"></rect>
            </g>
            <g id="底块" transform="translate(0.909091, 0.424242)">
                <polygon id="路径-7备份-2" fill="#416480" fill-rule="nonzero" transform="translate(17.090909, 22.575758) scale(-1, 1) translate(-17.090909, -22.575758) " points="0.0909089 39.5757576 0.0909089 5.57575758 34.0909089 5.57575758 34.0909089 39.5757576"></polygon>
                <g id="编组" transform="translate(7.090909, 12.575758)">
                    <rect id="矩形备份-7" opacity="0.446149554" x="0" y="1.57898386e-14" width="20" height="20"></rect>
                    <path d="M10.0029915,5.95769231 C10.0410256,6.68034188 10.117094,7.36495726 10.307265,8.04957265 C10.307265,8.04957265 11.8286325,11.6628205 14.7192308,12.6136752 C15.5940171,12.0051282 16.3166667,11.2444444 16.8491453,10.3316239 L17.0012821,10.1034188 C17.0773504,9.98931624 17.1153846,9.87521368 17.191453,9.76111111 L17.3055556,9.53290598 C17.8380342,8.35384615 18.1042735,7.09871795 18.0662393,5.84358974 L18.0662393,5.84358974 C18.0662393,5.46324786 17.9521368,3.86581197 17.7239316,3.4474359 C17.1534188,3.67564103 16.0884615,4.3982906 15.8602564,5.12094017 C14.6811966,4.96880342 13.4641026,4.96880342 12.2850427,5.15897436 C12.0948718,4.36025641 11.1440171,3.7517094 10.4213675,3.4474359 C10.117094,3.94188034 9.96495726,5.12094017 10.0029915,5.95769231 L10.0029915,5.95769231 Z" id="路径" fill="#EFF3F8" fill-rule="nonzero"></path>
                    <path d="M19.207265,16.2269231 C18.7508547,15.808547 18.1423077,15.6183761 17.5337607,15.6564103 C17.2675214,15.3141026 16.0123932,13.982906 15.2517094,13.184188 L14.8713675,13.4504274 L14.5290598,13.3363248 C11.334188,12.3094017 9.73675214,8.50598291 9.66068376,8.35384615 L9.66068376,8.31581197 L9.66068376,8.27777778 C7.41666667,9.00042735 5.36282051,10.2555556 3.68931624,11.8910256 L3.46111111,12.1192308 C3.34700855,12.2333333 3.23290598,12.3474359 3.15683761,12.4615385 C1.52136752,14.2491453 0.342307692,16.1888889 0.342307692,16.5311966 L0.342307692,16.6833333 L2.47222222,16.6833333 L2.43418803,16.4931624 C2.35811966,15.7705128 2.5482906,15.0478632 3.04273504,14.4773504 C3.46111111,13.982906 4.03162393,13.6405983 4.67820513,13.4884615 C5.32478632,13.2602564 7.07435897,13.4504274 7.07435897,13.4504274 C10.4974359,13.7547009 13.8064103,15.1239316 17.4957265,17.0636752 L19.5495726,17.0636752 L19.5876068,16.9115385 C19.5115385,16.6452991 19.3974359,16.417094 19.207265,16.2269231 Z" id="路径" fill="#EFF3F8" fill-rule="nonzero"></path>
                    <path d="M8.55769231,14.9717949 C8.2534188,14.8196581 7.87307692,14.7816239 7.56880342,14.8957265 C7.34059829,14.6294872 7.18846154,14.3252137 7.11239316,14.0209402 L6.9982906,14.0209402 C6.38974359,13.9448718 5.78119658,13.9448718 5.13461538,13.982906 C5.78119658,14.5534188 6.50384615,15.1239316 7.22649573,15.6183761 L8.82393162,15.6183761 L8.82393162,15.4282051 C8.82393162,15.2380342 8.70982906,15.0858974 8.55769231,14.9717949 Z" id="路径" fill="#23CCD1" fill-rule="nonzero"></path>
                    <path d="M3.00470085,11.5487179 L3.15683761,11.3965812 C3.19487179,11.358547 3.19487179,11.3205128 3.23290598,11.3205128 C2.89059829,10.7880342 2.66239316,10.1794872 2.5482906,9.57094017 C2.43418803,8.8482906 2.62435897,8.16367521 3.08076923,7.59316239 C3.76538462,6.71837607 4.7542735,6.68034188 5.78119658,6.83247863 C5.74316239,6.98461538 5.78119658,7.09871795 5.85726496,7.2508547 C6.12350427,7.63119658 7.56880342,7.78333333 8.44358974,7.40299145 C7.79700855,6.52820513 6.54188034,6.07179487 6.16153846,6.26196581 C6.0474359,6.33803419 5.93333333,6.41410256 5.89529915,6.52820513 C5.59102564,6.45213675 5.24871795,6.41410256 4.94444444,6.41410256 C4.1457265,6.37606838 3.34700855,6.75641026 2.8525641,7.36495726 C2.35811966,8.01153846 2.12991453,8.81025641 2.28205128,9.60897436 C2.32008547,10.2935897 2.58632479,10.9401709 3.00470085,11.5487179 Z" id="路径" fill="#23CCD1" fill-rule="nonzero"></path>
                </g>
                <polygon id="路径-7备份-6" fill="#EEF3F7" fill-rule="nonzero" transform="translate(20.090909, 3.075758) rotate(180.000000) translate(-20.090909, -3.075758) " points="0.0909089 5.57575842 6.0909089 0.57575842 40.0909089 0.57575842 32.2909089 5.57575842"></polygon>
                <polygon id="路径-7备份-5" fill="#AFC0C8" fill-rule="nonzero" transform="translate(37.090909, 20.075758) scale(-1, 1) translate(-37.090909, -20.075758) " points="34.0909089 33.5757576 34.0909089 0.575757576 40.0909089 5.57575758 40.0909089 39.5757576"></polygon>
                <polygon id="路径-7备份-4" stroke="#FFFFFF" opacity="0.25" transform="translate(17.090909, 22.575758) scale(-1, 1) translate(-17.090909, -22.575758) " points="31.5909089 8.07575758 31.5909089 37.0757576 2.5909089 37.0757576 2.5909089 8.07575758"></polygon>
                <polygon id="路径-7备份-4" stroke="#32526B" transform="translate(17.090909, 22.575758) scale(-1, 1) translate(-17.090909, -22.575758) " points="30.5909089 9.07575758 30.5909089 36.0757576 3.5909089 36.0757576 3.5909089 9.07575758"></polygon>
            </g>
        </g>
    </g>
</svg>