<?xml version="1.0" encoding="UTF-8"?>
<svg width="42px" height="42px" viewBox="0 0 42 42" version="1.1" xmlns="http://www.w3.org/2000/svg" xmlns:xlink="http://www.w3.org/1999/xlink">
    <title>user-group</title>
    <g id="页面-1" stroke="none" stroke-width="1" fill="none" fill-rule="evenodd">
        <g id="user-group">
            <g id="背景区域备份-3" opacity="0" fill="#D8D8D8" fill-rule="nonzero">
                <rect id="矩形" x="0" y="0" width="42" height="42"></rect>
            </g>
            <g id="底块备份-3" transform="translate(0.909091, 0.424242)">
                <polygon id="路径-7备份-2" fill="#416480" fill-rule="nonzero" transform="translate(17.090909, 22.575758) scale(-1, 1) translate(-17.090909, -22.575758) " points="0.0909089 39.5757576 0.0909089 5.57575758 34.0909089 5.57575758 34.0909089 39.5757576"></polygon>
                <polygon id="路径-7备份-6" fill="#EEF3F7" fill-rule="nonzero" transform="translate(20.090909, 3.075758) rotate(180.000000) translate(-20.090909, -3.075758) " points="0.0909089 5.57575842 6.0909089 0.57575842 40.0909089 0.57575842 32.2909089 5.57575842"></polygon>
                <polygon id="路径-7备份-5" fill="#AFC0C8" fill-rule="nonzero" transform="translate(37.090909, 20.075758) scale(-1, 1) translate(-37.090909, -20.075758) " points="34.0909089 33.5757576 34.0909089 0.575757576 40.0909089 5.57575758 40.0909089 39.5757576"></polygon>
                <polygon id="路径-7备份-4" stroke="#FFFFFF" opacity="0.25" transform="translate(17.090909, 22.575758) scale(-1, 1) translate(-17.090909, -22.575758) " points="31.5909089 8.07575758 31.5909089 37.0757576 2.5909089 37.0757576 2.5909089 8.07575758"></polygon>
                <polygon id="路径-7备份-4" stroke="#32526B" transform="translate(17.090909, 22.575758) scale(-1, 1) translate(-17.090909, -22.575758) " points="30.5909089 9.07575758 30.5909089 36.0757576 3.5909089 36.0757576 3.5909089 9.07575758"></polygon>
            </g>
            <g id="编组" transform="translate(8.000000, 13.000000)">
                <g id="用户组备份">
                    <rect id="矩形" x="0" y="0" width="20" height="20"></rect>
                </g>
                <g id="编组-57备份" transform="translate(0.000000, 1.111111)" fill-rule="nonzero">
                    <g id="编组-2">
                        <path d="M14.7576995,9.99823028 L15.6315789,10 C17.6315789,10 19.2631579,11.5862573 19.3157895,13.5818713 L19.3157895,15.628655 C19.3157895,16.0537562 19.0018686,16.4352573 18.5396114,16.4914344 L18.4210526,16.498538 L17.789,16.4982303 L17.7894737,14.6856725 C17.7894737,12.6247495 16.5437103,10.8370892 14.7576995,9.99823028 Z" id="形状结合" fill="#EFF3F8"></path>
                        <path d="M13.5,1 C15.4329966,1 17,2.56700338 17,4.5 C17,6.43299662 15.4329966,8 13.5,8 C13.1196243,8 12.7534208,7.93932173 12.410541,7.82711668 C13.2682362,6.89135393 13.7894737,5.65551138 13.7894737,4.29824561 C13.7894737,3.09354973 13.3788342,1.98451306 12.6878079,1.09584439 C12.947126,1.03294625 13.2197155,1 13.5,1 Z" id="形状结合" fill="#EFF3F8"></path>
                        <path d="M12.4736842,10.4897661 C14.8421053,10.4897661 16.7894737,12.3830409 16.7894737,14.6856725 L16.7894737,14.6856725 L16.7894737,17.0906433 C16.7894737,17.6535088 16.3157895,18.0628655 15.7368421,18.1140351 L15.7368421,18.1140351 L1.05263158,18.1140351 C0.473684211,18.1140351 -1.58095759e-13,17.6535088 -1.58095759e-13,17.0906433 L-1.58095759e-13,17.0906433 L-1.58095759e-13,14.6856725 C-1.58095759e-13,12.3830409 1.94736842,10.4897661 4.31578947,10.4897661 L4.31578947,10.4897661 L12.4736842,10.4897661 Z M13.7894737,13.0657895 L11.2105263,13.0657895 L11.1087558,13.0726361 C10.7426802,13.1222985 10.4605263,13.4360937 10.4605263,13.8157895 C10.4605263,14.230003 10.7963128,14.5657895 11.2105263,14.5657895 L11.2105263,14.5657895 L13.7894737,14.5657895 L13.8912442,14.5589429 C14.2573198,14.5092804 14.5394737,14.1954852 14.5394737,13.8157895 C14.5394737,13.4015759 14.2036872,13.0657895 13.7894737,13.0657895 L13.7894737,13.0657895 Z" id="形状结合" fill="#23CCD1"></path>
                        <ellipse id="椭圆形" fill="#23CCD1" cx="8.36842105" cy="4.29824561" rx="4.42105263" ry="4.29824561"></ellipse>
                    </g>
                </g>
            </g>
        </g>
    </g>
</svg>