<?xml version="1.0" encoding="UTF-8"?>
<svg width="42px" height="42px" viewBox="0 0 42 42" version="1.1" xmlns="http://www.w3.org/2000/svg" xmlns:xlink="http://www.w3.org/1999/xlink">
    <title>virtual-machine</title>
    <g id="页面-1" stroke="none" stroke-width="1" fill="none" fill-rule="evenodd">
        <g id="virtual-machine" fill-rule="nonzero">
            <g id="背景区域" opacity="0" fill="#D8D8D8">
                <rect id="矩形" x="-4.26325641e-14" y="0" width="42" height="42"></rect>
            </g>
            <g id="编组-2" transform="translate(6.000000, 0.000000)">
                <g id="方块">
                    <path d="M29.7673849,-6.03961325e-14 L29.7673849,33.2829057 L21.9343598,41.1645227 L0.0103122781,41.1645227 L0.0103122781,7.83864009 L-1.79412041e-13,7.83864009 L7.94046729,-6.03961325e-14 L29.7673849,-6.03961325e-14 Z M19.9781012,9.70036031 L1.89497869,9.70036031 L1.89497869,39.130247 L19.9781012,39.130247 L19.9781012,9.70036031 Z M25.9333167,2.13324134 L9.0889114,2.13324134 L3.96985569,7.2085103 L20.9189497,7.2085103 L25.9333167,2.13324134 Z" id="形状结合" fill="#AFC0C8"></path>
                    <polygon id="路径-25" fill="#416480" points="-1.86517468e-13 7.83864009 21.9343598 8.14604968 21.9343598 41.1645227 -1.86513136e-13 41.1645227 -1.86517468e-13 10.4968025"></polygon>
                    <polygon id="路径-26" fill="#EEF3F7" points="7.94046729 -2.01616501e-13 5.15143483e-14 7.83864009 21.9343598 8.14604968 29.7673849 -2.01616501e-13"></polygon>
                </g>
                <g id="编组-8" transform="translate(2.967628, 10.988046)">
                    <g id="编组">
                        <path d="M12.3835616,7.17808219 C12.2082192,7.17808219 12.0328767,7.2 11.8575342,7.22191781 C11.8794521,7.11232877 11.8794521,7.00273973 11.8794521,6.89315068 C11.8794521,5.64383562 10.9808219,4.63561644 9.88493151,4.63561644 C9.24931507,4.63561644 8.67945205,4.98630137 8.30684932,5.51232877 C7.64931507,4.59178082 6.64109589,3.97808219 5.52328767,3.97808219 C3.59452055,3.97808219 2.01643836,5.70958904 1.97260274,7.87945205 C0.854794521,8.23013699 0,9.39178082 0,10.7726027 C0,12.3945205 1.16164384,13.709589 2.60821918,13.709589 L12.4054795,13.709589 C14.0054795,13.709589 15.2986301,12.2410959 15.2986301,10.4438356 C15.2986301,8.64657534 13.9835616,7.17808219 12.3835616,7.17808219 Z" id="形状" fill="#EFF3F8"></path>
                        <path d="M13.4356164,5.55616438 L14.2684932,5.46849315 C14.2465753,4.50410959 13.8739726,3.56164384 13.1506849,2.83835616 C12.4054795,2.09315068 11.4410959,1.72054795 10.4547945,1.72054795 L10.3671233,2.55342466 C11.1561644,2.53150685 11.9452055,2.83835616 12.5589041,3.43013699 C13.1506849,4.02191781 13.4356164,4.7890411 13.4356164,5.55616438 L13.4356164,5.55616438 Z" id="路径" fill="#23CCD1"></path>
                        <path d="M15.1452055,5.31506849 L16,5.20547945 C15.9342466,3.89041096 15.3863014,2.59726027 14.3780822,1.6109589 C13.369863,0.602739726 12.0767123,0.0767123288 10.739726,0.0109589041 L10.630137,0.865753425 C11.769863,0.909589041 12.8876712,1.36986301 13.7643836,2.22465753 C14.6410959,3.07945205 15.1013699,4.19726027 15.1452055,5.31506849 Z" id="路径" fill="#23CCD1"></path>
                    </g>
                    <path d="M1.53571429,17 L14.3279221,17 C14.6237889,17 14.8636364,17.2398475 14.8636364,17.5357143 C14.8636364,17.8315811 14.6237889,18.0714286 14.3279221,18.0714286 L1.53571429,18.0714286 C1.23984746,18.0714286 1,17.8315811 1,17.5357143 C1,17.2398475 1.23984746,17 1.53571429,17 Z" id="路径备份-6" fill="#EFF3F8"></path>
                    <path d="M1.53571429,19.6114286 L14.3279221,19.6114286 C14.6237889,19.6114286 14.8636364,19.851276 14.8636364,20.1471429 C14.8636364,20.4430097 14.6237889,20.6828571 14.3279221,20.6828571 L1.53571429,20.6828571 C1.23984746,20.6828571 1,20.4430097 1,20.1471429 C1,19.851276 1.23984746,19.6114286 1.53571429,19.6114286 Z" id="路径备份-7" fill="#EFF3F8"></path>
                    <path d="M1.53571429,22.2228571 L14.3279221,22.2228571 C14.6237889,22.2228571 14.8636364,22.4627046 14.8636364,22.7585714 C14.8636364,23.0544383 14.6237889,23.2942857 14.3279221,23.2942857 L1.53571429,23.2942857 C1.23984746,23.2942857 1,23.0544383 1,22.7585714 C1,22.4627046 1.23984746,22.2228571 1.53571429,22.2228571 Z" id="路径备份-8" fill="#EFF3F8"></path>
                    <path d="M1.53571429,24.8342857 L14.3279221,24.8342857 C14.6237889,24.8342857 14.8636364,25.0741332 14.8636364,25.37 C14.8636364,25.6658668 14.6237889,25.9057143 14.3279221,25.9057143 L1.53571429,25.9057143 C1.23984746,25.9057143 1,25.6658668 1,25.37 C1,25.0741332 1.23984746,24.8342857 1.53571429,24.8342857 Z" id="路径备份-9" fill="#EFF3F8"></path>
                </g>
            </g>
        </g>
    </g>
</svg>