<?xml version="1.0" encoding="UTF-8"?>
<svg width="42px" height="42px" viewBox="0 0 42 42" version="1.1" xmlns="http://www.w3.org/2000/svg" xmlns:xlink="http://www.w3.org/1999/xlink">
    <title>vpc-new</title>
    <g id="页面-1" stroke="none" stroke-width="1" fill="none" fill-rule="evenodd">
        <g id="vpc-new">
            <g id="背景区域" opacity="0" fill="#D8D8D8" fill-rule="nonzero">
                <rect id="矩形" x="0" y="0" width="42" height="42"></rect>
            </g>
            <g id="底块" transform="translate(0.909091, 0.424242)">
                <polygon id="路径-7备份-2" fill="#416480" fill-rule="nonzero" transform="translate(17.090909, 22.575758) scale(-1, 1) translate(-17.090909, -22.575758) " points="0.0909089 39.5757576 0.0909089 5.57575758 34.0909089 5.57575758 34.0909089 39.5757576"></polygon>
                <polygon id="路径-7备份-6" fill="#EEF3F7" fill-rule="nonzero" transform="translate(20.090909, 3.075758) rotate(180.000000) translate(-20.090909, -3.075758) " points="0.0909089 5.57575842 6.0909089 0.57575842 40.0909089 0.57575842 32.2909089 5.57575842"></polygon>
                <polygon id="路径-7备份-5" fill="#AFC0C8" fill-rule="nonzero" transform="translate(37.090909, 20.075758) scale(-1, 1) translate(-37.090909, -20.075758) " points="34.0909089 33.5757576 34.0909089 0.575757576 40.0909089 5.57575758 40.0909089 39.5757576"></polygon>
                <polygon id="路径-7备份-4" stroke="#FFFFFF" opacity="0.25" transform="translate(17.090909, 22.575758) scale(-1, 1) translate(-17.090909, -22.575758) " points="31.5909089 8.07575758 31.5909089 37.0757576 2.5909089 37.0757576 2.5909089 8.07575758"></polygon>
                <polygon id="路径-7备份-4" stroke="#32526B" transform="translate(17.090909, 22.575758) scale(-1, 1) translate(-17.090909, -22.575758) " points="30.5909089 9.07575758 30.5909089 36.0757576 3.5909089 36.0757576 3.5909089 9.07575758"></polygon>
            </g>
            <g id="Icon/vpc" transform="translate(8.000000, 13.000000)">
                <rect id="矩形" fill="#D8D8D8" fill-rule="nonzero" opacity="0" x="0" y="3.55271368e-15" width="20" height="20"></rect>
                <g id="vpc">
                    <rect id="矩形备份-3" fill="#D8D8D8" fill-rule="nonzero" opacity="0" x="0" y="3.55271368e-15" width="20" height="20"></rect>
                    <g id="编组" transform="translate(1.000000, 1.000000)">
                        <polygon id="矩形备份-17" points="0 0 18 0 18 18 12.2423395 18 0 18"></polygon>
                        <g transform="translate(0.000000, 3.000000)" fill-rule="nonzero">
                            <path d="M14.0869565,12.1605351 L14.0989967,12.1605351 C16.2602007,12.0882943 18,10.3183946 18,8.13311037 C18,5.94782609 16.2602007,4.17190635 14.0929766,4.11170569 L14.0869565,4.11170569 C13.8943144,1.80602007 11.967893,1.33226763e-14 9.60802676,1.33226763e-14 C7.12173913,1.33226763e-14 5.20735786,2.01672241 5.11103679,4.49698997 C5.10501672,4.65351171 5.05685619,5.18929766 5.05083612,5.33377926 L4.85819398,5.24949833 C4.55117057,5.14113712 4.16588629,5.02073579 3.57591973,5.02073579 C1.60735786,5.02073579 0.0120401338,6.61003344 0,8.57859532 L0,8.59063545 C0,10.5531773 1.57725753,12.148495 3.53979933,12.1665552 L3.56989967,12.1665552 L14.0869565,12.1605351" id="路径" fill="#EFF3F8"></path>
                            <path d="M5.01282712,4.9758129 L9.19215408,5.74868391 C9.32944611,5.5960107 9.5285108,5.5 9.75,5.5 C10.1642136,5.5 10.5,5.83578644 10.5,6.25 C10.5,6.66421356 10.1642136,7 9.75,7 C9.66797384,7 9.58902322,6.98683202 9.51514675,6.96249464 L6.46249464,10.0151467 C6.48683202,10.0890232 6.5,10.1679738 6.5,10.25 C6.5,10.6642136 6.16421356,11 5.75,11 C5.33578644,11 5,10.6642136 5,10.25 C5,9.98162413 5.14096181,9.74617165 5.35288553,9.61364246 L4.5758129,5.41282712 C4.52792065,5.15420896 4.75420896,4.92792065 5.01282712,4.9758129 Z M5.41259581,5.81259581 L6.06734891,9.34826255 L8.94826255,6.46734891 L5.41259581,5.81259581 Z" id="形状结合" fill="#23CCD1"></path>
                        </g>
                    </g>
                </g>
            </g>
        </g>
    </g>
</svg>