<?xml version="1.0" encoding="UTF-8"?>
<svg width="42px" height="42px" viewBox="0 0 42 42" version="1.1" xmlns="http://www.w3.org/2000/svg" xmlns:xlink="http://www.w3.org/1999/xlink">
    <title>vpc</title>
    <g id="页面-1" stroke="none" stroke-width="1" fill="none" fill-rule="evenodd">
        <g id="vpc">
            <g id="背景区域" opacity="0" fill="#D8D8D8" fill-rule="nonzero">
                <rect id="矩形" x="0" y="0" width="42" height="42"></rect>
            </g>
            <g id="底块" transform="translate(0.909091, 0.424242)">
                <polygon id="路径-7备份-2" fill="#416480" fill-rule="nonzero" transform="translate(17.090909, 22.575758) scale(-1, 1) translate(-17.090909, -22.575758) " points="0.0909089 39.5757576 0.0909089 5.57575758 34.0909089 5.57575758 34.0909089 39.5757576"></polygon>
                <g id="编组" transform="translate(7.090909, 12.575758)">
                    <polygon id="矩形备份-17" points="0 0 20 0 20 20 13.6025995 20 0 20"></polygon>
                    <g transform="translate(0.000000, 3.333333)" fill="#FFFFFF" fill-rule="nonzero" id="形状结合">
                        <path d="M10.6755853,4.50010399e-14 C13.2227425,4.50010399e-14 15.3154215,1.89365914 15.629143,4.35036625 L15.6521739,4.56856187 C18.0668896,4.63545151 20,6.60869565 20,9.0367893 C20,11.3934684 18.1789298,13.3153592 15.8761822,13.4997643 L15.6655518,13.5117057 L15.6521739,13.5117057 L3.96655518,13.5183946 L3.93311037,13.5183946 C1.82065217,13.4989548 0.109949833,11.834827 0.00509388391,9.74834552 L0,9.5451505 L0,9.53177258 C0.0133779264,7.34448161 1.78595318,5.57859532 3.97324415,5.57859532 C4.46678536,5.57859532 4.8314082,5.65442965 5.1270633,5.74329291 C5.09431248,5.80255719 5.07638306,5.87017992 5.07712637,5.94165713 L5.08423655,6.01425236 L5.94770198,10.6817928 C5.71220257,10.8290416 5.55555556,11.0906718 5.55555556,11.3888889 C5.55555556,11.8491262 5.9286516,12.2222222 6.38888889,12.2222222 C6.84912618,12.2222222 7.22222222,11.8491262 7.22222222,11.3888889 C7.22222222,11.2974315 7.2074891,11.2094152 7.18026678,11.1270839 L10.5715283,7.73582233 C10.6538596,7.76304465 10.7418759,7.77777778 10.8333333,7.77777778 C11.2935706,7.77777778 11.6666667,7.40468174 11.6666667,6.94444444 C11.6666667,6.48420715 11.2935706,6.11111111 10.8333333,6.11111111 C10.5865394,6.11111111 10.3648025,6.21839288 10.2122141,6.38886486 L5.63953975,5.5418687 C5.65634878,5.32863808 5.67514289,5.09511423 5.67892977,4.99665552 C5.78595318,2.24080268 7.91304348,4.50010399e-14 10.6755853,4.50010399e-14 Z M6.01399535,6.45843979 L9.94251394,7.18594324 L6.74149879,10.3869584 L6.01399535,6.45843979 Z"></path>
                    </g>
                </g>
                <polygon id="路径-7备份-6" fill="#EEF3F7" fill-rule="nonzero" transform="translate(20.090909, 3.075758) rotate(180.000000) translate(-20.090909, -3.075758) " points="0.0909089 5.57575842 6.0909089 0.57575842 40.0909089 0.57575842 32.2909089 5.57575842"></polygon>
                <polygon id="路径-7备份-5" fill="#AFC0C8" fill-rule="nonzero" transform="translate(37.090909, 20.075758) scale(-1, 1) translate(-37.090909, -20.075758) " points="34.0909089 33.5757576 34.0909089 0.575757576 40.0909089 5.57575758 40.0909089 39.5757576"></polygon>
                <polygon id="路径-7备份-4" stroke="#FFFFFF" opacity="0.25" transform="translate(17.090909, 22.575758) scale(-1, 1) translate(-17.090909, -22.575758) " points="31.5909089 8.07575758 31.5909089 37.0757576 2.5909089 37.0757576 2.5909089 8.07575758"></polygon>
                <polygon id="路径-7备份-4" stroke="#32526B" transform="translate(17.090909, 22.575758) scale(-1, 1) translate(-17.090909, -22.575758) " points="30.5909089 9.07575758 30.5909089 36.0757576 3.5909089 36.0757576 3.5909089 9.07575758"></polygon>
            </g>
        </g>
    </g>
</svg>