<?xml version="1.0" encoding="UTF-8"?>
<svg width="42px" height="42px" viewBox="0 0 42 42" version="1.1" xmlns="http://www.w3.org/2000/svg" xmlns:xlink="http://www.w3.org/1999/xlink">
    <title>vpn</title>
    <g id="页面-1" stroke="none" stroke-width="1" fill="none" fill-rule="evenodd">
        <g id="vpn">
            <g id="背景区域" opacity="0" fill="#D8D8D8" fill-rule="nonzero">
                <rect id="矩形" x="5.68434189e-14" y="0" width="42" height="42"></rect>
            </g>
            <g id="底块" transform="translate(0.909091, 0.424242)">
                <polygon id="路径-7备份-2" fill="#416480" fill-rule="nonzero" transform="translate(17.090909, 22.575758) scale(-1, 1) translate(-17.090909, -22.575758) " points="0.0909089 39.5757576 0.0909089 5.57575758 34.0909089 5.57575758 34.0909089 39.5757576"></polygon>
                <polygon id="路径-7备份-6" fill="#EEF3F7" fill-rule="nonzero" transform="translate(20.090909, 3.075758) rotate(180.000000) translate(-20.090909, -3.075758) " points="0.0909089 5.57575842 6.0909089 0.57575842 40.0909089 0.57575842 32.2909089 5.57575842"></polygon>
                <polygon id="路径-7备份-5" fill="#AFC0C8" fill-rule="nonzero" transform="translate(37.090909, 20.075758) scale(-1, 1) translate(-37.090909, -20.075758) " points="34.0909089 33.5757576 34.0909089 0.575757576 40.0909089 5.57575758 40.0909089 39.5757576"></polygon>
                <polygon id="路径-7备份-4" stroke="#FFFFFF" opacity="0.25" transform="translate(17.090909, 22.575758) scale(-1, 1) translate(-17.090909, -22.575758) " points="31.5909089 8.07575758 31.5909089 37.0757576 2.5909089 37.0757576 2.5909089 8.07575758"></polygon>
                <polygon id="路径-7备份-4" stroke="#32526B" transform="translate(17.090909, 22.575758) scale(-1, 1) translate(-17.090909, -22.575758) " points="30.5909089 9.07575758 30.5909089 36.0757576 3.5909089 36.0757576 3.5909089 9.07575758"></polygon>
            </g>
            <g id="Icon/vpn" transform="translate(8.000000, 13.000000)">
                <rect id="矩形" fill="#D8D8D8" fill-rule="nonzero" opacity="0" x="0" y="3.55271368e-15" width="20" height="20"></rect>
                <g id="vpn">
                    <rect id="矩形备份-3" fill="#D8D8D8" fill-rule="nonzero" opacity="0" x="0" y="3.55271368e-15" width="20" height="20"></rect>
                    <g id="VPN" transform="translate(1.000000, 1.000000)">
                        <rect id="矩形备份-22" opacity="0.446149554" x="0" y="0" width="18" height="18"></rect>
                        <path d="M0.344324324,4.14432432 L2.22054054,4.14432432 C2.22054054,4.14432432 3.03837838,9.48432432 3.27891892,10.6389189 C3.51945946,9.62864865 4.3372973,4.14432432 4.3372973,4.14432432 L6.1172973,4.14432432 L4.14486486,14.0545946 L2.31675676,14.0545946 L0.344324324,4.14432432 Z" id="路径" fill="#EFF3F8" fill-rule="nonzero"></path>
                        <path d="M8.95567568,4.14432432 L6.55027027,4.14432432 L6.55027027,14.0545946 L8.28216216,14.0545946 L8.28216216,10.7351351 L9.05189189,10.7351351 C10.447027,10.7351351 11.6016216,9.72486486 11.6016216,7.31945946 C11.5535135,4.86594595 10.3989189,4.14432432 8.95567568,4.14432432 Z M9.14810811,9.09945946 L8.33027027,9.09945946 L8.33027027,5.68378378 L9.05189189,5.68378378 C9.72540541,5.68378378 9.96594595,6.30918919 9.96594595,7.31945946 C10.0140541,8.37783784 9.82162162,9.09945946 9.14810811,9.09945946 Z" id="形状" fill="#23CCD1" fill-rule="nonzero"></path>
                        <polygon id="路径" fill="#EFF3F8" fill-rule="nonzero" points="11.9383784 4.14432432 14.1513514 4.14432432 16.0275676 10.8794595 16.0275676 4.14432432 17.6632432 4.14432432 17.6632432 14.0545946 15.2097297 14.0545946 13.5740541 7.89675676 13.5740541 14.0545946 11.9383784 14.0545946"></polygon>
                    </g>
                </g>
            </g>
        </g>
    </g>
</svg>