<?xml version="1.0" encoding="UTF-8"?>
<svg width="42px" height="42px" viewBox="0 0 42 42" version="1.1" xmlns="http://www.w3.org/2000/svg" xmlns:xlink="http://www.w3.org/1999/xlink">
    <title>website</title>
    <g id="页面-1" stroke="none" stroke-width="1" fill="none" fill-rule="evenodd">
        <g id="website">
            <g id="背景区域" opacity="0" fill="#D8D8D8" fill-rule="nonzero">
                <rect id="矩形" x="-2.84217094e-14" y="0" width="42" height="42"></rect>
            </g>
            <g id="底块" transform="translate(0.909091, 0.424242)">
                <polygon id="路径-7备份-2" fill="#416480" fill-rule="nonzero" transform="translate(17.090909, 22.575758) scale(-1, 1) translate(-17.090909, -22.575758) " points="0.0909089 39.5757576 0.0909089 5.57575758 34.0909089 5.57575758 34.0909089 39.5757576"></polygon>
                <g id="编组" transform="translate(7.090909, 12.575758)">
                    <polygon id="矩形备份-20" points="0 0 20 0 20 20 13.6025995 20 0 20"></polygon>
                    <g id="编组-14" transform="translate(0.555556, 0.555556)" fill-rule="nonzero">
                        <path d="M9.32017544,4.08562073e-14 C14.4675662,4.08562073e-14 18.6403509,4.17278468 18.6403509,9.32017544 C18.6403509,9.35495963 18.6401603,9.38969931 18.6397802,9.42439349 L18.6403509,9.44736842 C18.6403509,9.45964142 18.6400212,9.47181113 18.639373,9.48386251 C18.6156887,10.856296 18.2953297,12.1564689 17.7396726,13.3229871 C17.7179429,13.3004987 17.6953444,13.2792668 17.6726272,13.2580827 C17.5025184,13.0994538 17.3301983,12.9476464 17.1564028,12.8028777 C17.5507335,11.9205695 17.7990379,10.958355 17.8721331,9.94757644 L14.1343322,9.9480674 C14.1237284,10.3110575 14.1019434,10.6685702 14.069565,11.019321 C13.817163,10.9354374 13.5725004,10.8728427 13.3370578,10.830204 C13.3620429,10.5414505 13.3791728,10.2468209 13.3883478,9.94775525 L9.922,9.947 L9.92287645,13.4508045 C10.2009391,13.4564537 10.4805166,13.4667452 10.7593499,13.4814644 C10.8161088,13.7285549 10.897208,13.9838723 11.0008377,14.2454156 C10.7687711,14.2284688 10.5351887,14.2165445 10.3020027,14.2079118 L9.922,14.198 L9.92283655,17.6593164 C10.6495983,17.4235954 11.3237764,16.786644 11.8810692,15.8594213 C12.0272394,16.0728708 12.1868111,16.2866255 12.3581405,16.4989594 C12.0615943,16.9498544 11.7345362,17.3358537 11.3826513,17.645438 C11.9072019,17.5157899 12.412723,17.3379047 12.8942331,17.1167542 C13.0699571,17.3054759 13.2560991,17.4930325 13.4511715,17.6771048 C12.2066789,18.2936396 10.8039166,18.6403509 9.32017544,18.6403509 C4.26308978,18.6403509 0.146713469,14.6126954 0.00383571734,9.59017356 L0.002,9.472 L4.08562073e-14,9.44736842 L4.08562073e-14,9.32017544 C4.08562073e-14,4.17278468 4.17278468,4.08562073e-14 9.32017544,4.08562073e-14 Z M8.9230157,14.1962987 C7.96045343,14.216772 6.95347983,14.3014641 6.03182585,14.4331663 C6.71890501,16.2640002 7.76517657,17.5034169 8.92240021,17.7249118 L8.9230157,14.1962987 Z M5.28022264,14.5545373 L5.05800535,14.5963086 C4.2424096,14.7551411 3.55166732,14.9521961 3.10386874,15.1718091 L3.067,15.19 L3.06937183,15.1896737 C4.16620742,16.3573077 5.5864935,17.2175462 7.1871718,17.6273311 C6.40972136,16.9344726 5.7545673,15.8677461 5.28022264,14.5545373 Z M0.76821776,9.94757644 C0.895062067,11.7016096 1.54952503,13.3093986 2.57366915,14.6130062 L2.5935475,14.5986171 C3.12220508,14.2962162 4.00381469,14.0359143 5.04576866,13.839581 C4.70561115,12.6741012 4.49732499,11.352056 4.4563111,9.9480674 L0.76821776,9.94757644 Z M8.922,9.947 L5.20229552,9.94775525 C5.24447838,11.3227478 5.45481493,12.6039695 5.78897431,13.7149226 C6.78679399,13.5648371 7.87829774,13.4715478 8.92280654,13.4504392 L8.922,9.947 Z M2.444,4.058 L2.51698524,4.10029836 C1.47671556,5.45407921 0.831450737,7.12720984 0.753575551,8.94730548 L4.45557058,8.94695244 C4.49634123,7.47617163 4.72064463,6.09468421 5.08946794,4.88774836 C4.02797134,4.68739499 3.11389639,4.42218145 2.54858145,4.11865293 L2.444,4.058 Z M5.83171672,5.01468187 L5.81752889,5.06053593 C5.46466549,6.19979019 5.2429711,7.52356145 5.20152073,8.94716555 L8.922,8.947 L8.92273063,5.28425605 C7.90646893,5.26259784 6.8285904,5.16657465 5.83171672,5.01468187 Z M12.7677763,5.04334748 L12.6588748,5.05947776 C11.777549,5.18056736 10.834415,5.2580847 9.92246071,5.28146766 L9.922,8.947 L13.3891225,8.94716555 C13.3474635,7.51639608 13.1237415,6.18646695 12.7677763,5.04334748 Z M16.1423443,4.12508968 L16.1263355,4.13617825 C15.5705755,4.45408216 14.6247464,4.72546001 13.5125425,4.92490322 C13.874428,6.12208446 14.0947062,7.4907526 14.1350727,8.94695244 L17.8867753,8.94730548 C17.8093748,7.13830416 17.1714806,5.47448168 16.1423443,4.12508968 Z M8.92240021,1.14409403 C7.79458059,1.359961 6.77214629,2.54267789 6.0845148,4.29636034 C7.00260742,4.43074481 7.99142567,4.51733587 8.92280892,4.53834463 L8.92240021,1.14409403 Z M9.92283655,1.20968946 L9.92208836,4.53547879 C10.7869346,4.51220534 11.682867,4.43807239 12.5168375,4.32542265 C11.8812826,2.68876177 10.9551015,1.54449871 9.92283655,1.20968946 Z M10.9717605,0.904530945 L10.9976133,0.922495459 C11.9315695,1.56479221 12.7186261,2.72369421 13.271689,4.20886738 C14.3513174,4.02412973 15.2591399,3.77324909 15.7561206,3.48896795 L15.655503,3.54196725 C14.4404454,2.21051328 12.8112904,1.26346031 10.9717605,0.904530945 Z M7.59801264,0.919074679 L7.56167551,0.926102629 C5.77779403,1.29791443 4.197291,2.22404372 3.00847515,3.51618173 L3.06806868,3.54562272 C3.58953386,3.78717635 4.39796618,4.00487115 5.33179838,4.17481741 C5.8853884,2.70287725 6.66921792,1.55563866 7.59801264,0.919074679 Z" id="形状结合" fill="#FFFFFF"></path>
                        <polygon id="形状结合" fill="#23CCD1" transform="translate(14.266082, 14.156725) rotate(-45.000000) translate(-14.266082, -14.156725) " points="14.266082 11.174269 16.5029241 14.6538012 15.0112399 14.362269 15.011696 17.1391813 13.5204679 17.1391813 13.5202399 14.362269 12.0292399 14.6538012"></polygon>
                    </g>
                </g>
                <polygon id="路径-7备份-6" fill="#EEF3F7" fill-rule="nonzero" transform="translate(20.090909, 3.075758) rotate(180.000000) translate(-20.090909, -3.075758) " points="0.0909089 5.57575842 6.0909089 0.57575842 40.0909089 0.57575842 32.2909089 5.57575842"></polygon>
                <polygon id="路径-7备份-5" fill="#AFC0C8" fill-rule="nonzero" transform="translate(37.090909, 20.075758) scale(-1, 1) translate(-37.090909, -20.075758) " points="34.0909089 33.5757576 34.0909089 0.575757576 40.0909089 5.57575758 40.0909089 39.5757576"></polygon>
                <polygon id="路径-7备份-4" stroke="#FFFFFF" opacity="0.25" transform="translate(17.090909, 22.575758) scale(-1, 1) translate(-17.090909, -22.575758) " points="31.5909089 8.07575758 31.5909089 37.0757576 2.5909089 37.0757576 2.5909089 8.07575758"></polygon>
                <polygon id="路径-7备份-4" stroke="#32526B" transform="translate(17.090909, 22.575758) scale(-1, 1) translate(-17.090909, -22.575758) " points="30.5909089 9.07575758 30.5909089 36.0757576 3.5909089 36.0757576 3.5909089 9.07575758"></polygon>
            </g>
        </g>
    </g>
</svg>