<?xml version="1.0" encoding="UTF-8"?>
<svg width="54px" height="54px" viewBox="0 0 54 54" version="1.1" xmlns="http://www.w3.org/2000/svg" xmlns:xlink="http://www.w3.org/1999/xlink">
    <title>0CB1C58A-9CD1-4DC6-ABA0-C7AC8619DC7C</title>
    <g id="页面-1" stroke="none" stroke-width="1" fill="none" fill-rule="evenodd">
        <g id="win-virtual-machine" fill-rule="nonzero">
            <g id="背景区域" opacity="0" fill="#D8D8D8">
                <rect id="矩形" x="0" y="0" width="54" height="54"></rect>
            </g>
            <g id="图形" transform="translate(8.000000, 1.000000)">
                <polygon id="形状结合" fill="#ABBCC4" points="37 9 37 39 26.8614641 45.51389 16 52.5 16 22"></polygon>
                <polygon id="形状结合" fill="#416480" points="1 12.5 16 22 16 52.5 1 43"></polygon>
                <g id="编组-7" transform="translate(1.000000, 17.000000)">
                    <g id="编组-4" transform="translate(9.084996, 9.000000) rotate(28.000000) translate(-9.084996, -9.000000) translate(3.084996, 3.000000)">
                        <path d="M9.2876712,6.37534246 C9.1561644,6.37534246 9.02465752,6.39178082 8.89315065,6.40821918 C8.90958907,6.3260274 8.90958907,6.24383562 8.90958907,6.16164383 C8.90958907,5.22465754 8.23561642,4.46849315 7.41369863,4.46849315 C6.9369863,4.46849315 6.50958904,4.73150685 6.23013699,5.1260274 C5.7369863,4.43561644 4.98082192,3.97534246 4.14246575,3.97534246 C2.69589041,3.97534246 1.51232877,5.2739726 1.47945205,6.90136986 C0.641095891,7.16438356 -1.36424205e-12,8.03561644 -1.36424205e-12,9.07123285 C-1.36424205e-12,10.2876712 0.87123288,11.2739726 1.95616438,11.2739726 L9.30410962,11.2739726 C10.5041096,11.2739726 11.4739726,10.1726027 11.4739726,8.82465752 C11.4739726,7.47671233 10.4876712,6.37534246 9.2876712,6.37534246 Z" id="形状备份" fill="#EFF3F8"></path>
                        <g id="编组-5" transform="translate(5.636918, 0.498188)" fill="#23CCD1">
                            <path d="M2.55255794,4.31560836 L2.99874194,4.26864163 C2.98700021,3.75200758 2.78739162,3.24711521 2.39991606,2.85963967 C2.00069888,2.46042245 1.48406481,2.26081384 0.955689063,2.26081384 L0.908722348,2.70699779 C1.33142294,2.69525611 1.75412353,2.85963967 2.08289063,3.17666511 C2.39991606,3.49369055 2.55255794,3.90464946 2.55255794,4.31560836 L2.55255794,4.31560836 Z" id="路径备份-2" transform="translate(1.953732, 3.288211) rotate(-32.000000) translate(-1.953732, -3.288211) "></path>
                            <path d="M3.13307241,3.55577299 L3.59099804,3.49706458 C3.555773,2.7925636 3.26223093,2.0998043 2.7221135,1.57142857 C2.18199607,1.03131115 1.48923677,0.749510763 0.772994107,0.714285714 L0.714285714,1.17221135 C1.32485321,1.19569472 1.92367904,1.44227006 2.39334639,1.90019569 C2.8630137,2.35812133 3.10958905,2.95694716 3.13307241,3.55577299 Z" id="路径备份-3" transform="translate(2.152642, 2.135029) rotate(-33.000000) translate(-2.152642, -2.135029) "></path>
                        </g>
                    </g>
                </g>
                <g id="Windows备份-2" transform="translate(9.067530, 39.751767) rotate(27.000000) translate(-9.067530, -39.751767) translate(2.067530, 34.618434)" fill="#23CCD1">
                    <polygon id="路径" points="0.00231835266 1.51882459 1.277729 4.02195892 5.12478138 4.37677274 3.42988351 1.05034838"></polygon>
                    <polygon id="路径" points="8.30824555 0.345456403 3.94305285 0.959156665 5.66770176 4.41439233 10.5963577 4.83612929"></polygon>
                    <polygon id="路径" points="1.4768795 4.41281378 2.87093299 7.14879781 7.09510015 8.24374106 5.31545739 4.75099548"></polygon>
                    <polygon id="路径" points="5.85837777 4.78861507 7.7015792 8.40610156 13.1598907 9.86734613 10.7870337 5.21035203"></polygon>
                </g>
                <polygon id="形状结合" fill="#EEF3F7" points="21.5 0 37 9 16 22 1 12.5"></polygon>
            </g>
        </g>
    </g>
</svg>