<?xml version="1.0" encoding="UTF-8"?>
<svg width="42px" height="42px" viewBox="0 0 42 42" version="1.1" xmlns="http://www.w3.org/2000/svg" xmlns:xlink="http://www.w3.org/1999/xlink">
    <title>zookeeper</title>
    <g id="页面-1" stroke="none" stroke-width="1" fill="none" fill-rule="evenodd">
        <g id="zookeeper">
            <g id="背景区域" opacity="0" fill="#D8D8D8" fill-rule="nonzero">
                <rect id="矩形" x="4.26325641e-14" y="0" width="42" height="42"></rect>
            </g>
            <g id="底块" transform="translate(1.000000, 1.000000)">
                <polygon id="路径-7备份-2" fill="#416480" fill-rule="nonzero" transform="translate(17.000000, 22.000000) scale(-1, 1) translate(-17.000000, -22.000000) " points="0 39 0 5 34 5 34 39"></polygon>
                <polygon id="路径-7备份-6" fill="#EEF3F7" fill-rule="nonzero" transform="translate(20.000000, 2.500000) rotate(180.000000) translate(-20.000000, -2.500000) " points="0 5 6 0 40 0 32.2 5"></polygon>
                <polygon id="路径-7备份-5" fill="#AFC0C8" fill-rule="nonzero" transform="translate(37.000000, 19.500000) scale(-1, 1) translate(-37.000000, -19.500000) " points="34 33 34 -1.69135539e-17 40 5 40 39"></polygon>
                <polygon id="路径-7备份-4" stroke="#FFFFFF" opacity="0.25" transform="translate(17.000000, 22.000000) scale(-1, 1) translate(-17.000000, -22.000000) " points="31.5 7.5 31.5 36.5 2.5 36.5 2.5 7.5"></polygon>
                <polygon id="路径-7备份-4" stroke="#32526B" transform="translate(17.000000, 22.000000) scale(-1, 1) translate(-17.000000, -22.000000) " points="30.5 8.5 30.5 35.5 3.5 35.5 3.5 8.5"></polygon>
            </g>
            <g id="Zookeeper" transform="translate(8.000000, 13.000000)">
                <rect id="矩形" x="0" y="0" width="20" height="20"></rect>
                <g id="形状" transform="translate(0.000000, 3.999950)" fill-rule="nonzero">
                    <path d="M4.17819149,7.53838564 C6.26329787,6.64476862 8.6462766,6.47455585 10.8590426,7.02774734 C13.1994681,7.62349202 15.0718085,8.43200266 16.3909574,9.45327926 C17.5398936,10.3468963 17.7526596,10.8149814 17.0292553,10.8149814 C16.3058511,10.8149814 15.5824468,10.4745559 13.7526596,9.70859841 C11.9228723,8.94264096 10.2918109,8.47455585 7.99393856,8.13413032 C5.69606622,7.79370479 4.39095745,7.53838564 4.17819149,7.53838564 Z M9.28457447,4.729875 C9.71010638,4.729875 10.1356383,4.77242819 10.5611702,4.81498138 C10.518617,5.02774734 10.518617,5.2405133 10.5611702,5.45327926 C10.6037234,5.62349202 10.676474,5.86517816 10.837031,6.03742587 C10.9975881,6.20967358 11.2018326,6.38465608 11.5634595,6.5065038 C11.9250864,6.62835152 12.2706228,6.65196812 12.5611702,6.60221543 C12.8517176,6.55246273 13.1673686,6.38944947 13.2950282,6.17668351 C13.4226878,6.00647075 13.4973404,5.7511516 13.4973404,5.53838564 L13.4973404,5.53838564 L13.8803191,5.70859841 C13.7952128,6.00647075 13.8303556,6.37457953 13.9580152,6.67245187 C14.0856747,6.97032421 14.2340314,7.16160792 14.4760638,7.3719949 C14.7180962,7.58238188 15.0292553,7.70859841 15.3696809,7.70859841 C15.5824468,7.70859841 15.7526596,7.66604521 15.9228723,7.53838564 C16.0505319,7.41072606 16.1781915,7.28306649 16.2207447,7.11285372 C16.6009702,7.3986968 16.9149182,7.64956067 17.231545,7.94743301 C17.4426296,8.14601457 17.5596004,8.29335339 17.5824574,8.38944947 C17.5398936,8.55966223 17.4405873,8.6839249 17.355481,8.81158447 C17.2278214,8.98179724 17.1143617,9.11285372 16.9867021,9.2405133 L16.9867021,9.2405133 L16.7739362,9.07030053 C15.625,8.2192367 14.3484043,7.58093883 12.9867021,7.11285372 C11.412234,6.55966223 9.75265957,6.2192367 8.05053191,6.2192367 C6.68882979,6.2192367 5.28457447,6.51710904 4.05053191,7.11285372 L4.05053191,7.11285372 L3.15691489,7.53838564 L3.28457447,8.00647075 C3.07180851,8.04902394 2.85904255,8.13413032 2.6462766,8.2192367 C2.51861702,8.26178989 2.47606383,8.26178989 2.47606383,8.26178989 C2.43351064,7.96391755 2.39095745,7.62349202 2.26329787,7.32561968 L2.26329787,7.32561968 L2.05053191,6.60221543 C2.85904255,6.09157713 3.75265957,5.66604521 4.68882979,5.36817287 C5.88031915,4.98519415 7.1143617,4.77242819 8.39095745,4.729875 L8.39095745,4.729875 L9.28457447,4.729875 Z M9.34133976,0.000320479493 L9.83776596,0.00647074545 C11.5398936,0.00647074545 13.2420213,0.304343086 14.8164894,0.942640958 C16.3058511,1.53838564 17.625,2.43200266 18.7739362,3.53838564 C19.7101064,4.55966223 20.0505319,5.58093883 19.8803191,6.55966223 C19.7526596,7.02774734 19.4973404,7.49583245 19.1143617,7.87881117 C18.7739362,8.2192367 18.4335106,8.51710904 18.0079787,8.729875 C18.0505319,8.68732181 18.0724836,8.63460977 18.0930851,8.55966223 C18.1136866,8.4847147 18.1457037,8.36467916 18.1136866,8.2192367 C18.0816696,8.07379424 18.0430488,8.01651277 17.7116092,7.648709 C17.3801696,7.28090524 16.9441489,6.90008777 16.518617,6.60221543 L16.518617,6.60221543 L16.3484043,6.47455585 C16.3058511,6.2192367 16.2386087,5.98740958 16.156963,5.79370479 C16.0753174,5.6 15.9688721,5.45327926 15.7927106,5.27454675 C15.6165492,5.09581425 15.3187744,4.9338623 15.0919466,4.90008777 C14.8651187,4.86631323 14.6748901,4.87472387 14.5022949,4.9338623 C14.3296997,4.99300074 14.2632979,5.07030053 14.1781915,5.15540692 C14.0929625,5.12131531 14.0077335,5.08722371 13.9197693,5.05313211 C13.7881394,5.00211733 13.6503848,4.95110255 13.4973404,4.90008777 C13.4547872,4.81498138 13.3652394,4.64405414 13.2950282,4.53990479 C13.224817,4.43575543 12.9457657,4.09157713 12.5611702,3.96391755 C12.1765747,3.83625798 11.8187787,3.83625798 11.5634595,3.92136436 C11.3081404,4.00647075 11.1143617,4.13413032 10.9015957,4.30434309 C10.5611702,4.2192367 10.2207447,4.17668351 9.88031915,4.17668351 L9.88031915,4.17668351 L10.518617,3.62349202 L7.79521277,3.32561968 L7.71010638,3.7511516 L9.28457447,3.92136436 L8.98670213,4.17668351 L8.90159574,4.17668351 C6.85904255,4.13413032 4.81648936,4.60221543 2.94414894,5.49583245 C2.51861702,5.70859841 2.1356383,5.92136436 1.75265957,6.17668351 L1.75265957,6.17668351 L1.41223404,6.38944947 L1.58244681,6.94264096 C1.1143617,6.68732181 0.688829787,6.34689628 0.390957447,5.92136436 C0.0930851064,5.49583245 -0.0345744681,4.98519415 0.0079787234,4.47455585 C0.220744681,3.45327926 0.986702128,2.60221543 2.30585106,1.87881117 C3.45478723,1.2405133 4.6462766,0.772428192 5.88031915,0.43200266 C7.15691489,0.13413032 8.51861702,-0.036082446 9.83776596,0.00647074545 L9.34133976,0.000320479493 Z" id="形状结合" fill="#FFFFFF"></path>
                    <path d="M11.9989438,6.17668351 C12.5573054,6.26066653 12.9032939,5.88898494 12.9032939,5.35939521 C12.9032939,4.82980548 12.4894957,4.45223389 12.0194661,4.45223389 C11.5494365,4.45223389 11.1356383,4.729875 11.1356383,5.25186974 C11.1356383,5.77386449 11.4405822,6.0927005 11.9989438,6.17668351 Z" id="椭圆形备份-5" fill="#23CCD1"></path>
                    <path d="M15.2167357,7.19968429 C15.6142682,7.19968429 15.8354888,6.89940455 15.8354888,6.42937497 C15.8354888,5.9593454 15.4884267,5.479875 15.0183971,5.479875 C14.5483676,5.479875 14.3484043,5.83431351 14.3484043,6.30434309 C14.3484043,6.77437266 14.8192032,7.19968429 15.2167357,7.19968429 Z" id="椭圆形备份-6" fill="#23CCD1"></path>
                    <polygon id="路径备份-4" fill="#416480" points="6.37090271 4.03337188 8.13440082 4.17766231 5.82123139 6.13097456 9.13447022 6.5451924 10.3690479 5.33154635 8.96614406 5.15062849 11.1955163 3.26807719 7.5785154 2.89527735"></polygon>
                    <polygon id="路径备份-5" fill="#23CCD1" points="7.2851159 3.72888686 9.08404072 3.89929309 6.81737029 5.81334014 8.96614406 6.03742587 9.42244848 5.6248842 7.97000516 5.46826291 10.2458764 3.5464464 7.78776544 3.26807719"></polygon>
                </g>
            </g>
        </g>
    </g>
</svg>