<?xml version="1.0" encoding="UTF-8"?>
<svg width="16px" height="16px" viewBox="0 0 16 16" version="1.1" xmlns="http://www.w3.org/2000/svg" xmlns:xlink="http://www.w3.org/1999/xlink">
    <title>access-service-drm-third-menu</title>
    <g id="access-service-drm-third-menu" stroke="none" stroke-width="1" fill="none" fill-rule="evenodd">
        <g id="接入代理备份">
            <rect id="矩形" x="0" y="0" width="16" height="16"></rect>
            <g id="编组" transform="translate(1.077571, 1.700000)" fill="#262626">
                <path d="M1.50733486,0 C2.04885934,0 2.51426485,0.32590409 2.71811308,0.792273975 L7.58280655,0.79245283 L7.5824858,5.54645283 L10.752,5.547 L10.7526179,3.69811321 L13.9224292,6.0754717 L10.7526179,8.45283019 L10.752,6.603 L7.5824858,6.60345283 L7.58280655,11.8867925 L2.683,11.886 L2.43891903,12.6407062 L0.575750683,12.6407062 L-9.38554789e-14,10.8687278 L1.50733486,9.77358491 L2.961,10.83 L6.5254858,10.8294528 L6.5254858,6.60345283 L2.828,6.603 L2.82808957,7.39622642 L0.186580139,7.39622642 L0.186580139,4.75471698 L2.82808957,4.75471698 L2.828,5.547 L6.5254858,5.54645283 L6.5254858,1.84845283 L2.71772296,1.85012708 C2.51367152,2.31602067 2.04851417,2.64150943 1.50733486,2.64150943 C0.777902168,2.64150943 0.186580139,2.05018741 0.186580139,1.32075472 C0.186580139,0.591322029 0.777902168,0 1.50733486,0 Z" id="形状结合"></path>
            </g>
        </g>
    </g>
</svg>