<?xml version="1.0" encoding="UTF-8"?>
<svg width="16px" height="16px" viewBox="0 0 16 16" version="1.1" xmlns="http://www.w3.org/2000/svg" xmlns:xlink="http://www.w3.org/1999/xlink">
    <title>advanced settings-third menu</title>
    <g id="advanced-settings-third-menu" stroke="none" stroke-width="1" fill="none" fill-rule="evenodd">
        <g id="服务设置备份" transform="translate(1.875000, 1.297650)" fill="#262626" fill-rule="nonzero">
            <g id="setting">
                <path d="M10.5,8.75 L10.75,8.89433757 L12.2655445,9.76933757 L12.5155445,9.91367513 L12.5155445,12.2410254 L12.2655445,12.385363 L10.75,13.260363 L10.5,13.4047005 L10.25,13.260363 L8.73445554,12.385363 L8.48445554,12.2410254 L8.48445554,9.91367513 L8.73445554,9.76933757 L10.25,8.89433757 L10.5,8.75 Z M10.5,9.90435027 L9.484,10.4913503 L9.484,11.6623503 L10.5,12.2493503 L11.515,11.6623503 L11.515,10.4913503 L10.5,9.90435027 Z M3.55486373,2.39620177 C4.09233668,2.30439977 4.65766332,2.30439977 5.19513627,2.39620177 L5.22298995,2.40108485 C5.35813191,2.42452366 5.46438855,2.52413859 5.48914739,2.65207542 L5.6511114,3.48219987 C6.0245571,3.61501978 6.37014911,3.80448348 6.6796345,4.04473126 L7.51833989,3.76248895 C7.64832375,3.7195178 7.79171865,3.75662925 7.88043779,3.85526756 L7.89900692,3.87577652 C8.25800996,4.27618949 8.53448357,4.72933978 8.72120642,5.22253136 L8.73049098,5.2479234 C8.77691379,5.37097715 8.73874393,5.50770353 8.63455051,5.59169259 L7.95884076,6.13859811 C7.99082091,6.32415534 8.0073268,6.51361903 8.0073268,6.70308273 C8.0073268,6.89254643 7.99082091,7.08201013 7.95884076,7.26756736 L8.63455051,7.81447288 C8.73874393,7.89943856 8.77691379,8.03616494 8.73049098,8.15628883 L8.72120642,8.18168087 C8.53448357,8.67389584 8.25800996,9.12704612 7.89900692,9.52843571 L7.88043779,9.54894467 C7.79171865,9.6485596 7.64729214,9.68469443 7.51833989,9.64172328 L6.6796345,9.35948097 C6.37014911,9.60070537 6.0245571,9.78919245 5.6511114,9.92201236 L5.48914739,10.7521368 C5.46438855,10.8800736 5.35813191,10.9796886 5.22298995,11.0031274 L5.19513627,11.0080105 C4.9269156,11.0539115 4.65044199,11.0773503 4.375,11.0773503 C4.09955801,11.0773503 3.82411602,11.0539115 3.55486373,11.0080105 L3.52701005,11.0031274 C3.39186809,10.9796886 3.28561145,10.8800736 3.26085261,10.7521368 L3.09785698,9.91810589 C2.72750613,9.7862626 2.38397736,9.5967989 2.07655521,9.35752773 L1.23166011,9.64172328 C1.10167625,9.68469443 0.958281352,9.64758298 0.869562208,9.54894467 L0.850993085,9.52843571 C0.491990039,9.12802274 0.215516428,8.67389584 0.0287935793,8.18168087 L0.0195090177,8.15628883 C-0.02691379,8.03323508 0.0112560741,7.8965087 0.115449487,7.81251964 L0.799412187,7.25975442 C0.767432031,7.07712704 0.751957762,6.88961658 0.751957762,6.70210611 C0.751957762,6.51557227 0.767432031,6.3280618 0.799412187,6.14445781 L0.115449487,5.59169259 C0.0112560741,5.50672691 -0.02691379,5.37000053 0.0195090177,5.2479234 L0.0287935793,5.22253136 C0.215516428,4.73031639 0.491990039,4.27716611 0.850993085,3.87577652 L0.869562208,3.85526756 C0.958281352,3.75565263 1.10270786,3.7195178 1.23166011,3.76248895 L2.07655521,4.0466845 C2.38397736,3.80741333 2.72750613,3.61892625 3.09785698,3.48610634 L3.26085261,2.65207542 C3.28561145,2.52413859 3.39186809,2.42452366 3.52701005,2.40108485 Z M4.75479157,3.56249148 C4.50480418,3.53563653 4.25038438,3.53563653 4.00128347,3.56249148 L3.84260353,4.37821062 L3.50662757,4.49821869 C3.25398073,4.58885415 3.0190635,4.7180936 2.80896771,4.88174096 L2.53061296,5.09909822 L1.70264053,4.8204781 C1.55193891,5.01265884 1.42517225,5.21910628 1.325,5.43814198 L1.99429249,5.97943708 L1.93667128,6.31512397 C1.91450928,6.44016734 1.90387152,6.56856757 1.90387152,6.69696781 C1.90387152,6.82452883 1.91539576,6.95376828 1.93667128,7.07881165 L1.99429249,7.41449853 L1.325,7.95579364 C1.42605873,8.17399012 1.55193891,8.38127678 1.70264053,8.57345752 L2.53061296,8.2948374 L2.80896771,8.51219466 C3.0190635,8.67584202 3.25398073,8.80508147 3.50662757,8.89571693 L3.84171705,9.01740343 L4.00039699,9.83312257 C4.25038438,9.85997752 4.50480418,9.85997752 4.75390509,9.83312257 L4.91258503,9.01908186 L5.25033395,8.8990738 C5.50564023,8.80843834 5.74144394,8.67919889 5.95331269,8.51471231 L6.23166744,8.29819427 L7.05432099,8.57429674 C7.20502261,8.38211599 7.33178927,8.17566856 7.43196152,7.95663286 L6.76976087,7.42037306 L6.82826856,7.08384695 C6.85043056,6.95712515 6.86195481,6.82704648 6.86195481,6.69696781 C6.86195481,6.56688914 6.85043056,6.43681047 6.82826856,6.31008867 L6.77064735,5.975241 L7.432848,5.43898119 C7.33178927,5.22078471 7.20590909,5.01349806 7.05520747,4.82131732 L6.23255392,5.09741978 L5.95419917,4.88090174 C5.74233042,4.71641516 5.50564023,4.58717571 5.25122043,4.49654025 L4.91347151,4.37653219 Z M4.37603162,5.51258661 C4.68448538,5.51258661 4.97437003,5.62587418 5.19307303,5.83291699 C5.41074442,6.03995979 5.53144372,6.31438917 5.53144372,6.60639765 C5.53144372,6.89840613 5.41074442,7.17283551 5.19307303,7.37987831 C4.97437003,7.5859445 4.68448538,7.70020869 4.37603162,7.70020869 C4.06757785,7.70020869 3.77769321,7.5859445 3.5589902,7.37987831 C3.34131881,7.17283551 3.22061951,6.89840613 3.22061951,6.60639765 C3.22061951,6.31438917 3.34131881,6.03995979 3.5589902,5.83291699 C3.77769321,5.62587418 4.06757785,5.51258661 4.37603162,5.51258661 Z M10.5,0 L10.75,0.144337567 L12.2655445,1.01933757 L12.5155445,1.16367513 L12.5155445,3.4910254 L12.2655445,3.63536297 L10.75,4.51036297 L10.5,4.65470054 L10.25,4.51036297 L8.73445554,3.63536297 L8.48445554,3.4910254 L8.48445554,1.16367513 L8.73445554,1.01933757 L10.25,0.144337567 L10.5,0 Z M10.5,1.15435027 L9.484,1.74135027 L9.484,2.91235027 L10.5,3.49935027 L11.515,2.91235027 L11.515,1.74135027 L10.5,1.15435027 Z" id="形状结合"></path>
            </g>
        </g>
    </g>
</svg>