<?xml version="1.0" encoding="UTF-8"?>
<svg width="16px" height="16px" viewBox="0 0 16 16" version="1.1" xmlns="http://www.w3.org/2000/svg" xmlns:xlink="http://www.w3.org/1999/xlink">
    <title>alert-history-third-menu</title>
    <g id="alert-history-third-menu" stroke="none" stroke-width="1" fill="none" fill-rule="evenodd">
        <g id="编组" transform="translate(1.732233, 1.500000)">
            <path d="M2.6929103,10.9957717 C3.6006639,11.9239319 4.86694147,12.5 6.26776695,12.5 C9.0291907,12.5 11.267767,10.2614237 11.267767,7.5 C11.267767,4.73857625 9.0291907,2.5 6.26776695,2.5 C3.5063432,2.5 1.26776695,4.73857625 1.26776695,7.5" id="路径备份-2" stroke="#262626" stroke-width="1.2" stroke-linecap="round" stroke-linejoin="round"></path>
            <polyline id="路径-4备份-2" stroke="#262626" stroke-width="0.96" stroke-linecap="round" stroke-linejoin="round" transform="translate(1.411656, 6.856111) rotate(-45.000000) translate(-1.411656, -6.856111) " points="0.415272942 5.85611096 0.415272942 7.85611096 2.40803905 7.84887706"></polyline>
            <line x1="6.76776695" y1="2" x2="6.76776695" y2="1" id="直线-4" stroke="#262626" stroke-width="1.2" stroke-linecap="round" stroke-linejoin="round"></line>
            <line x1="4.26776695" y1="0.5" x2="8.76776695" y2="0.5" id="直线-2" stroke="#262626" stroke-width="1.2" stroke-linecap="round" stroke-linejoin="round"></line>
            <g id="编组-2" transform="translate(5.267767, 5.000000)" fill="#262626">
                <path d="M1.52033984,4.8411968 L1.52033984,4.11550927 C1.51934118,4.02014489 1.4422772,3.94308091 1.34691282,3.94208225 L0.637215019,3.94208225 C0.541712911,3.94275246 0.464458215,4.02000716 0.463788,4.11550927 L0.463788,4.82520707 C0.464458215,4.92070918 0.541712911,4.99796388 0.637215019,4.99863409 L1.34691282,4.99863409 C1.3916711,5.00465022 1.43680264,4.99060292 1.47024038,4.9602481 C1.50367811,4.92989328 1.52201194,4.88632662 1.52033984,4.8411968 Z" id="路径"></path>
                <path d="M1.64710856,0.0580343048 C1.61443486,0.0223481338 1.56870371,0.00141258657 1.52033969,0 L0.447798122,0 C0.349476679,0.00832896059 0.274018954,0.0907437805 0.274371103,0.189416745 L0.431808397,3.23299944 C0.432807059,3.32836381 0.509871041,3.40542779 0.605235417,3.40642645 L1.34629768,3.40642645 C1.44166206,3.40542779 1.51872604,3.32836381 1.5197247,3.23299944 L1.69315172,0.189416745 C1.69661393,0.141115948 1.67978227,0.0937204759 1.64710856,0.0580343048 Z" id="路径"></path>
            </g>
        </g>
    </g>
</svg>