<?xml version="1.0" encoding="UTF-8"?>
<svg width="16px" height="16px" viewBox="0 0 16 16" version="1.1" xmlns="http://www.w3.org/2000/svg" xmlns:xlink="http://www.w3.org/1999/xlink">
    <title>alert-statistic-third-menu</title>
    <g id="alert-statistic-third-menu" stroke="none" stroke-width="1" fill="none" fill-rule="evenodd">
        <g id="变更历史" transform="translate(1.000000, 1.000000)">
            <rect id="矩形" fill="#FFFFFF" opacity="0" x="0" y="0" width="14" height="14"></rect>
            <g id="图形" transform="translate(0.000000, 0.105859)" fill="#262626">
                <path d="M5.963,10.5 L5.96097683,10.3773126 C5.96097683,10.8385629 6.03186883,11.2832555 6.16335145,11.701089 L0.6,11.7 C0.26862915,11.7 4.05812251e-17,11.4313708 0,11.1 C-4.05812251e-17,10.7686292 0.26862915,10.5 0.6,10.5 L5.963,10.5 Z M6.53541459,8.20070984 L0.6,8.2 C0.26862915,8.2 4.05812251e-17,7.93137085 0,7.6 C-4.05812251e-17,7.26862915 0.26862915,7 0.6,7 L7.53773281,7.00001054 C7.13651175,7.33636721 6.7961106,7.74289539 6.53541459,8.20070984 Z M11.65,3.5 C11.9813708,3.5 12.25,3.76862915 12.25,4.1 C12.25,4.43137085 11.9813708,4.7 11.65,4.7 L0.6,4.7 C0.26862915,4.7 4.05812251e-17,4.43137085 0,4.1 C-4.05812251e-17,3.76862915 0.26862915,3.5 0.6,3.5 L11.65,3.5 Z M11.65,0 C11.9813708,3.83217372e-16 12.25,0.26862915 12.25,0.6 C12.25,0.93137085 11.9813708,1.2 11.65,1.2 L0.6,1.2 C0.26862915,1.2 4.05812251e-17,0.93137085 0,0.6 C-4.05812251e-17,0.26862915 0.26862915,1.7189414e-16 0.6,0 L11.65,0 Z" id="形状结合"></path>
                <path d="M10.0000015,7.39414212 C11.6568549,7.39414212 13.0000015,8.73728871 13.0000015,10.3941421 C13.0000015,12.0509955 11.6568549,13.3941421 10.0000015,13.3941421 C8.34314808,13.3941421 7.0000015,12.0509955 7.0000015,10.3941421 C6.99920592,9.59824897 7.31502031,8.8347244 7.87780204,8.27194266 C8.44058377,7.70916093 9.20410834,7.39334654 10.0000015,7.39414212 Z M10.2528585,11.3939988 L9.75828734,11.3939988 C9.69173424,11.3944658 9.63789731,11.4483027 9.63743026,11.5148559 L9.63743026,12.009427 C9.63789731,12.0759801 9.69173424,12.1298171 9.75828734,12.1302841 L10.2528585,12.1302841 C10.2840495,12.1344766 10.3155006,12.1246874 10.3388025,12.1035339 C10.3621044,12.0823803 10.3748808,12.0520198 10.3737156,12.0205699 L10.3737156,11.5148559 C10.3730197,11.4483987 10.3193156,11.3946947 10.2528585,11.3939988 Z M10.3737156,8.64685729 L9.6262874,8.64685729 C9.55776958,8.65266154 9.50518492,8.71009443 9.50542947,8.77885722 L9.61514455,10.8998562 C9.6158405,10.9663133 9.66954451,11.0200173 9.73600163,11.0207132 L10.2524299,11.0207132 C10.3188871,11.0200173 10.3725911,10.9663133 10.373287,10.8998562 L10.4941441,8.77885722 C10.4965568,8.74519757 10.4848273,8.71216881 10.4620578,8.68729999 C10.4392882,8.66243116 10.4074193,8.64784169 10.3737156,8.64685729 Z" id="形状结合" fill-rule="nonzero"></path>
            </g>
        </g>
    </g>
</svg>