<?xml version="1.0" encoding="UTF-8"?>
<svg width="16px" height="16px" viewBox="0 0 16 16" version="1.1" xmlns="http://www.w3.org/2000/svg" xmlns:xlink="http://www.w3.org/1999/xlink">
    <title>Alert rules-third menu</title>
    <g id="Alert-rules-third-menu" stroke="none" stroke-width="1" fill="none" fill-rule="evenodd">
        <g id="Alert-rules">
            <g id="编组-22" transform="translate(8.000000, 8.000000) scale(-1, 1) translate(-8.000000, -8.000000) ">
                <rect id="矩形" x="0" y="0" width="16" height="16"></rect>
                <path d="M12.5,1.2 C13.3836556,1.2 14.1,1.9163444 14.1,2.8 L14.1,13.0052114 C14.1,13.8494664 13.4155961,14.5338703 12.5713412,14.5338703 L11.1337149,14.5338703 C10.802344,14.5338703 10.5337149,14.2652411 10.5337149,13.9338703 C10.5337149,13.6024994 10.802344,13.3338703 11.1337149,13.3338703 L12.5713412,13.3338703 C12.7528544,13.3338703 12.9,13.1867247 12.9,13.0052114 L12.9,2.8 C12.9,2.5790861 12.7209139,2.4 12.5,2.4 L4.02819861,2.4 C3.84668535,2.4 3.69953978,2.54714557 3.69953978,2.72865883 L3.69953978,9.10901571 C3.69953978,9.44038656 3.43091063,9.70901571 3.09953978,9.70901571 C2.76816893,9.70901571 2.49953978,9.44038656 2.49953978,9.10901571 L2.49953978,2.72865883 C2.49953978,1.88440387 3.18394365,1.2 4.02819861,1.2 L12.5,1.2 Z" id="形状结合" fill="#262626" fill-rule="nonzero"></path>
                <polygon id="直线-2" fill="#262626" fill-rule="nonzero" points="11.4 4 11.4 5.2 5.2 5.2 5.2 4"></polygon>
                <polygon id="直线-2备份" fill="#262626" fill-rule="nonzero" points="11.4 6.81276461 11.4 7.92715521 7.9254507 7.92715521 7.9254507 6.81276461"></polygon>
            </g>
            <path d="M10.8885853,8.49523356 C11.0090879,8.57269955 11.1115402,8.67515179 11.1890062,8.79565444 L14.0584556,13.2592424 C14.3571078,13.7238125 14.2226047,14.3425263 13.7580347,14.6411785 C13.5967374,14.7448696 13.4090287,14.8 13.2172771,14.8 L7.4783783,14.8 C6.92609355,14.8 6.4783783,14.3522847 6.4783783,13.8 C6.4783783,13.6082484 6.53350868,13.4205397 6.63719982,13.2592424 L9.50664923,8.79565444 C9.8053014,8.3310844 10.4240153,8.19658139 10.8885853,8.49523356 Z M10.3409954,12.7686541 C10.0717438,12.7686541 9.85347233,12.9869255 9.85347233,13.2561771 C9.85347233,13.5254286 10.0717438,13.7437001 10.3409954,13.7437001 C10.6102469,13.7437001 10.8285184,13.5254286 10.8285184,13.2561771 C10.8285184,12.9869255 10.6102469,12.7686541 10.3409954,12.7686541 Z M10.3409954,9.54462079 C10.0717438,9.54462079 9.8761395,9.76289229 9.90410087,10.0321438 L10.1259609,12.168525 C10.1374009,12.2786858 10.2302421,12.3623849 10.3409954,12.3623849 C10.4517486,12.3623849 10.5445898,12.2786858 10.5560298,12.168525 L10.7778898,10.0321438 C10.8058512,9.76289229 10.6102469,9.54462079 10.3409954,9.54462079 Z" id="形状结合备份-2" fill="#262626"></path>
        </g>
    </g>
</svg>