<?xml version="1.0" encoding="UTF-8"?>
<svg width="16px" height="16px" viewBox="0 0 16 16" version="1.1" xmlns="http://www.w3.org/2000/svg" xmlns:xlink="http://www.w3.org/1999/xlink">
    <title>alert-ledger-third-menu</title>
    <g id="HyperInsight-lydia" stroke="none" stroke-width="1" fill="none" fill-rule="evenodd">
        <g id="alert-ledger-third-menu">
            <polygon id="路径" fill="#D8D8D8" fill-rule="nonzero" opacity="0.001" points="0 0 16 0 16 16 0 16"></polygon>
            <g id="编组-11" transform="translate(2.000000, 1.000000)">
                <path d="M9.44534387,7.20638505 C10.8925387,7.20638505 12.0468489,8.36069523 12.0468489,9.80789009 C12.0468489,10.9449718 11.3232515,11.9097683 10.2895409,12.2715671 C10.8236247,12.4696949 11.1595806,12.8228794 11.1595806,13.2363636 L7.66219306,13.2363636 C7.66219306,12.8228794 8.02399178,12.4610807 8.5753041,12.2715671 C7.56743625,11.9097683 6.84383882,10.9449718 6.84383882,9.80789009 C6.84383882,8.36069523 7.99814901,7.20638505 9.44534387,7.20638505 Z M9.4970294,9.01537862 C8.74758921,9.01537862 8.11874858,9.64421925 8.11874858,10.3936594 C8.11874858,11.1430996 8.74758921,11.7719403 9.4970294,11.7719403 C10.2723124,11.7719403 10.8753102,11.1430996 10.8753102,10.3936594 C10.8753102,9.64421925 10.2636981,9.01537862 9.4970294,9.01537862 Z M9.4970294,9.79066158 C9.85882812,9.79066158 10.1689413,10.0835463 10.1689413,10.4625735 C10.1689413,10.8243722 9.87605663,11.1344854 9.4970294,11.1344854 C9.13523069,11.1344854 8.8251175,10.8416007 8.8251175,10.4625735 C8.8251175,10.1007748 9.13523069,9.79066158 9.4970294,9.79066158 Z" id="形状结合" fill="#262626"></path>
                <path d="M6.0160102,12.8 L6.0160102,12.8 L0.8,12.8 C0.3581722,12.8 0,12.4418278 0,12 L0,2.4 C0,1.9581722 0.3581722,1.6 0.8,1.6 L9.6,1.6 C10.0418278,1.6 10.4,1.9581722 10.4,2.4 L10.4,5.21022348 L10.4,5.21022348" id="路径" stroke="#262626" stroke-width="1.2" stroke-linecap="round"></path>
                <rect id="矩形" fill="#262626" x="2.4" y="0" width="1.6" height="3.2" rx="0.5"></rect>
                <rect id="矩形备份-8" fill="#262626" x="1.6" y="4" width="6.4" height="1" rx="0.5"></rect>
                <rect id="矩形备份-20" fill="#262626" x="1.6" y="6.4" width="4" height="1" rx="0.5"></rect>
                <rect id="矩形备份-3" fill="#262626" x="6.4" y="0" width="1.6" height="3.2" rx="0.5"></rect>
            </g>
        </g>
    </g>
</svg>