<?xml version="1.0" encoding="UTF-8"?>
<svg width="16px" height="16px" viewBox="0 0 16 16" version="1.1" xmlns="http://www.w3.org/2000/svg" xmlns:xlink="http://www.w3.org/1999/xlink">
    <title>alibaba-cloud-snapshot-third-menu</title>
    <g id="alibaba-cloud-snapshot-third-menu" stroke="none" stroke-width="1" fill="none" fill-rule="evenodd">
        <g id="图标">
            <rect id="矩形" fill-opacity="0" fill="#D8D8D8" x="0" y="0" width="16" height="16"></rect>
            <g id="编组" transform="translate(1.000000, 2.000000)" fill="#262626" fill-rule="nonzero">
                <path d="M13.0855863,7.8008572 C13.3843578,7.78879741 13.6744929,7.90442896 13.885922,8.11982612 C14.0973511,8.33522329 14.2108525,8.63080348 14.1990149,8.93518226 L14.1990149,10.7572734 C14.2118978,11.0633878 14.0979477,11.3609331 13.8849805,11.5772774 C13.7024371,11.7627153 13.4615432,11.8738702 13.2072452,11.8930277 L11.4474385,11.894858 C11.4986306,11.6862465 11.5434237,11.4906732 11.5978153,11.2983595 C11.6042144,11.2809752 11.6248334,11.2621422 11.6473485,11.2515184 L12.9991996,10.9463275 C13.1465542,10.9273835 13.2582674,10.8089567 13.2764989,10.6648738 L13.2775568,9.10467911 C13.2946331,8.93010919 13.1730238,8.77308378 13.0023991,8.74938764 L11.6938006,8.45602771 C11.6388922,8.45220235 11.5938139,8.41033025 11.5850173,8.35498151 L11.5006451,7.99160152 C11.4854771,7.92942853 11.4698351,7.8660483 11.4538375,7.8008572 L13.0855863,7.8008572 Z M10.5451774,7.80737631 C10.4971848,8.00620915 10.4523917,8.20178244 10.3980001,8.39409617 C10.393734,8.41148046 10.36956,8.43176214 10.3444379,8.44335166 L8.9998153,8.74938764 C8.82925841,8.77147869 8.70633086,8.92694234 8.72145815,9.10141955 L8.72145815,10.5975552 C8.70976594,10.7685077 8.83000525,10.9194911 8.99661579,10.943068 L10.3148129,11.242947 C10.3516055,11.2507052 10.3831932,11.2745426 10.4011996,11.3081381 C10.4555912,11.4971923 10.4971848,11.6927656 10.5483769,11.894858 L8.85583746,11.894858 C8.27786427,11.8913774 7.80869447,11.4177476 7.8,10.8289836 L7.8,8.84717428 C7.82132307,8.28215232 8.26602971,7.82909957 8.82064288,7.80737631 L10.5451774,7.80737631 Z M8.78196601,0 C9.3880013,0 9.94202229,0.342403802 10.2129469,0.884253126 L10.57,1.599 L12.4,1.6 C13.2345636,1.6 13.9198898,2.23896152 13.9934613,3.05436739 L14,3.2 L14,6.599 L12.8,6.599 L12.8,3.2 C12.8,2.9790861 12.6209139,2.8 12.3997273,2.79999994 L9.82925376,2.79883154 L9.13973689,1.42111456 C9.07198008,1.28560095 8.93347483,1.2 8.78196601,1.2 L5.21803399,1.2 C5.06652517,1.2 4.92801992,1.28560095 4.8601605,1.42131968 L4.17074624,2.79883154 L1.6,2.8 C1.3790861,2.8 1.2,2.9790861 1.2,3.2 L1.2,10 C1.2,10.2209139 1.3790861,10.4 1.6,10.4 L6.2,10.399 L6.2,11.599 L1.6,11.6 C0.7163444,11.6 0,10.8836556 0,10 L0,3.2 C0,2.3163444 0.7163444,1.6 1.59972727,1.60000006 L3.428,1.599 L3.78695048,0.884458247 C4.0353921,0.387575006 4.5216271,0.0584537631 5.06774247,0.00705080076 L5.21803399,0 L8.78196601,0 Z M11.8045994,9.592 C11.8804314,9.592 11.8930701,9.66810494 11.8951765,9.78331936 L11.8952292,9.93218907 C11.890753,10.0463465 11.8665289,10.1034252 11.8159742,10.1034252 L10.45479,10.1034252 C10.3757983,10.1110357 10.3626331,10.0425412 10.3604388,9.92965224 L10.3603511,9.78331936 C10.3621064,9.66810494 10.3726387,9.592 10.435832,9.592 L11.8045994,9.592 Z M7,3.8 C8.54606236,3.8 9.79945695,5.05305972 9.79999982,6.59899523 L8.6,6.599 L8.59346132,6.45436739 C8.51988979,5.63896152 7.83456362,5 7,5 C6.1163444,5 5.4,5.7163444 5.4,6.6 C5.4,7.22531913 5.758723,7.76685401 6.28160853,8.03004415 C6.22896558,8.20943812 6.2,8.40133642 6.2,8.6 L6.19988107,9.28401313 C5.04334661,8.93975541 4.2,7.86836478 4.2,6.6 C4.2,5.0536027 5.4536027,3.8 7,3.8 Z" id="形状"></path>
            </g>
        </g>
    </g>
</svg>