<?xml version="1.0" encoding="UTF-8"?>
<svg width="16px" height="16px" viewBox="0 0 16 16" version="1.1" xmlns="http://www.w3.org/2000/svg" xmlns:xlink="http://www.w3.org/1999/xlink">
    <title>alibaba-cloud-disk-third-menu</title>
    <defs>
        <linearGradient x1="71.8327455%" y1="29.3832829%" x2="25.5944776%" y2="92.6889128%" id="linearGradient-1">
            <stop stop-color="#262626" offset="0%"></stop>
            <stop stop-color="#262626" stop-opacity="0" offset="100%"></stop>
        </linearGradient>
    </defs>
    <g id="alibaba-cloud-disk-third-menu" stroke="none" stroke-width="1" fill="none" fill-rule="evenodd">
        <g id="编组">
            <rect id="矩形" fill-opacity="0" fill="#D8D8D8" x="0" y="0" width="16" height="16"></rect>
            <g id="云盘-01" transform="translate(0.176698, 1.730065)"></g>
            <path d="M13.6753265,10.0979196 C13.965396,10.0862111 14.2470805,10.1984747 14.4523515,10.4075982 C14.6576225,10.6167216 14.767818,10.9036927 14.7563252,11.1992061 L14.7563252,12.9682266 C14.7688328,13.265425 14.6582017,13.554304 14.4514373,13.764347 C14.244673,13.9743899 13.9608004,14.0862703 13.6691139,14.0726776 L12.0848917,14.0726776 C12.1345928,13.8701422 12.1780813,13.6802652 12.2308887,13.4935529 C12.2402076,13.4682359 12.2805898,13.4397544 12.311653,13.4397544 L13.5914559,13.1517743 C13.7583624,13.1303167 13.87817,12.9773959 13.8617056,12.8068311 L13.8617056,11.3637661 C13.8782846,11.1942808 13.7602173,11.0418289 13.5945623,11.0188229 L12.3240782,10.7340075 C12.2707691,10.7302935 12.2270038,10.689641 12.2184634,10.6359044 C12.1811876,10.4618505 12.1376992,10.2877966 12.0911044,10.0979196 L13.6753265,10.0979196 Z M11.2089101,10.1042488 C11.1623153,10.2972904 11.1188269,10.4871674 11.0660195,10.6738798 C11.0598068,10.6991967 11.0101057,10.7308429 10.9790426,10.7308429 L9.70855854,11.0188229 C9.54296933,11.0402706 9.4236222,11.1912062 9.43830888,11.3606015 L9.43830888,12.8131604 C9.42695722,12.9791337 9.54368932,13.1257195 9.70545222,13.1486097 L10.9852552,13.4397544 C11.0209762,13.4472866 11.0516438,13.4704297 11.0691258,13.5030467 C11.1219332,13.6865945 11.1623153,13.8764714 11.2120164,14.0726776 L9.56877423,14.0726776 C9.00763522,14.0692985 8.55213055,13.6094637 8.54368932,13.0378481 L8.54368932,11.1137614 C8.56439133,10.5651964 8.99614535,10.1253394 9.53460474,10.1042488 L11.2089101,10.1042488 Z M7.56028818,1.74850115 C9.1972048,1.8877734 10.6533841,2.81285503 11.4788796,4.21111412 L11.5367,4.31409709 L11.606985,4.32329299 C13.6727648,4.6347445 15.2521713,6.36781117 15.3522423,8.47349716 L15.3572816,8.68536628 C15.3572816,8.93253973 15.3369565,9.17496685 15.2978866,9.41106736 C14.948306,9.11198826 14.4951677,8.93203883 14,8.93203883 L14.1475064,8.93782507 C14.1539828,8.85452318 14.1572816,8.77032988 14.1572816,8.68536628 C14.157005,6.98017419 12.8243887,5.57234249 11.1215701,5.47844824 L10.7646299,5.45876638 L10.612023,5.13549438 C10.0265445,3.89525669 8.82520236,3.06045821 7.45859362,2.94418431 C5.34124927,2.76416603 3.47889919,4.33463758 3.29888219,6.45196698 L3.26839254,6.81058104 L2.93765234,6.95251267 C1.98994896,7.35920375 1.37590193,8.29156726 1.37669904,9.32264322 C1.3777655,10.7457572 2.532413,11.8986756 3.95597796,11.897612 L7.30069789,11.8970652 L7.30097087,12.368932 C7.30097087,12.6261028 7.34950967,12.8719367 7.43792573,13.0977723 L3.95642662,13.0976122 C1.87056985,13.0991709 0.178262126,11.4093974 0.176699028,9.32355683 C0.175637014,7.94968866 0.91931598,6.69544933 2.09806022,6.03095044 L2.14469999,6.00509709 L2.15855258,5.91791801 C2.5974624,3.36210702 4.92874756,1.5247655 7.56028818,1.74850115 Z M12.4316499,11.8368932 C12.5199979,11.8368932 12.5199979,11.9432923 12.5199979,12.0940245 C12.523679,12.2536232 12.5015921,12.3334225 12.4426934,12.3334225 L11.1211553,12.3334225 C11.0444644,12.3408113 11.0316826,12.2743119 11.0295523,12.1647109 L11.0294671,12.0226402 C11.0311713,11.9107815 11.0413968,11.8368932 11.1027495,11.8368932 L12.4316499,11.8368932 Z" id="形状结合" fill="#262626" fill-rule="nonzero"></path>
            <path d="M10.9760784,4.33469703 L11.8954286,4.7281372 C11.2670672,6.19642718 10.3244893,7.35187032 9.07297566,8.18344069 L8.51955333,7.3505399 C9.60590424,6.62871221 10.4229858,5.62710656 10.9760784,4.33469703 Z" id="路径-35" fill="url(#linearGradient-1)" fill-rule="nonzero"></path>
        </g>
    </g>
</svg>