<?xml version="1.0" encoding="UTF-8"?>
<svg width="16px" height="16px" viewBox="0 0 16 16" version="1.1" xmlns="http://www.w3.org/2000/svg" xmlns:xlink="http://www.w3.org/1999/xlink">
    <title>alibaba-ecs-third-menu</title>
    <g id="alibaba-ecs-third-menu" stroke="none" stroke-width="1" fill="none" fill-rule="evenodd">
        <rect id="矩形" fill-opacity="0" fill="#F0F0F0" x="0" y="0" width="16" height="16"></rect>
        <g id="资源实例" transform="translate(0.200000, 1.600000)">
            <rect id="矩形" fill="#FFFFFF" opacity="0" x="1.4" y="0" width="12.8" height="12.8"></rect>
            <path d="M7.80769232,1.1 L8.04678842,1.1053195 C9.71211155,1.17957245 11.194964,2.02654731 12.0461521,3.35501695 L12.1473846,3.52 L12.3101697,3.55198166 C14.2377242,3.97684349 15.6153846,5.58949731 15.6153846,7.53777585 C15.6153846,9.77576025 13.7442177,11.6 11.4615385,11.6 L3.54546369,11.6 C1.56657176,11.6 0,10.0723846 0,8.13042722 L0.00529528632,7.94419726 C0.0931530486,6.40065895 1.26434497,5.07676727 2.77447782,4.7373487 L2.90038462,4.712 L2.92545234,4.62318672 C3.56486228,2.55788669 5.52070509,1.1 7.80769232,1.1 Z M7.80769232,2.1 C5.83445294,2.1 4.17714359,3.43615859 3.79067374,5.26557008 L3.7133437,5.63162311 L3.34034415,5.66071072 C3.29797938,5.66426561 3.29797938,5.66426561 3.25580805,5.66880263 C2.00717019,5.81051779 1,6.8996581 1,8.13042722 C1,9.51438554 2.11329917,10.6 3.54546369,10.6 L11.4615385,10.6 C13.1975375,10.6 14.6153846,9.21771124 14.6153846,7.53777585 C14.6153846,5.96585274 13.4198016,4.67905307 11.7646828,4.47167251 L11.5024808,4.43881952 L11.3819175,4.20367336 C10.7238515,2.92018419 9.35749437,2.1 7.80769232,2.1 Z M11,8.41411765 L11,9.85411765 L4.6,9.85411765 L4.6,8.41411765 L11,8.41411765 Z M10.44,8.816 L9.64,8.816 L9.64,9.456 L10.44,9.456 L10.44,8.816 Z M11,6.57411765 L11,8.01411765 L4.6,8.01411765 L4.6,6.57411765 L11,6.57411765 Z M10.44,6.976 L9.64,6.976 L9.64,7.616 L10.44,7.616 L10.44,6.976 Z M11,4.73411765 L11,6.17411765 L4.6,6.17411765 L4.6,4.73411765 L11,4.73411765 Z M10.44,5.16 L9.64,5.16 L9.64,5.8 L10.44,5.8 L10.44,5.16 Z" id="形状结合" fill="#262626" fill-rule="nonzero"></path>
        </g>
    </g>
</svg>