<?xml version="1.0" encoding="UTF-8"?>
<svg width="16px" height="16px" viewBox="0 0 16 16" version="1.1" xmlns="http://www.w3.org/2000/svg" xmlns:xlink="http://www.w3.org/1999/xlink">
    <title>alibaba-cloud-elastic -public-ip-third-menu</title>
    <g id="alibaba-cloud-elastic--public-ip-third-menu" stroke="none" stroke-width="1" fill="none" fill-rule="evenodd">
        <rect id="矩形" fill-opacity="0" fill="#F0F0F0" x="0" y="0" width="16" height="16"></rect>
        <g id="服务名" transform="translate(0.420000, 1.000000)">
            <rect id="矩形" fill-opacity="0" fill="#D8D8D8" x="0.51273707" y="0" width="14.1444709" height="14.1444709"></rect>
            <path d="M1.85026666,5.24522293 L2.62398099,6.01893726 L3.90463839,5.99546579 L5.52142926,7.61225666 L4.7,8.4329361 L6.86063403,10.5942443 C7.1441719,10.8777822 7.60387763,10.8777822 7.8874155,10.5942443 L8.51251871,9.9691411 C8.79605659,9.68560322 8.79605659,9.2258975 8.51251871,8.94235962 L8.1654661,8.59530702 C8.1266861,8.55652701 8.09378101,8.52362192 8.06126667,8.49110758 L7.9594117,8.38925261 C7.92219467,8.35203558 7.8798842,8.30972511 7.82699612,8.25683703 L8.67552425,7.40830889 L9.26415214,7.99693677 C9.29379067,8.02657531 9.32595667,8.0587413 9.36104685,8.09383148 C10.1132139,8.84599851 10.1132139,10.0655022 9.36104685,10.8176692 L8.73594364,11.4427724 C7.98377662,12.1949395 6.76427291,12.1949395 6.01210589,11.4427724 L3.851,9.2819361 L3.02101644,10.1126695 L0,7.09165304 L1.85026666,5.24522293 Z M8.88761911,2.63506137 L11.534,5.2809361 L12.2247366,4.59124022 L15.245753,7.61225666 L13.3954863,9.45868677 L12.621772,8.68497245 L11.3411146,8.70844391 L9.72432374,7.09165304 L10.685,6.1299361 L8.03909098,3.48358951 C7.7555531,3.20005163 7.29584737,3.20005163 7.0123095,3.48358951 L6.38720629,4.10869272 C6.10366842,4.39223059 6.10366842,4.85193632 6.38720629,5.13547419 L6.54098564,5.28925354 C6.58035909,5.328627 6.61007491,5.35834281 6.63681914,5.38508705 L6.81511404,5.56338194 L5.9665859,6.41191008 L5.62531833,6.07064251 L5.53867815,5.98400233 C4.78651113,5.2318353 4.78651113,4.0123316 5.53867815,3.26016458 L6.16378136,2.63506137 C6.91594839,1.88289435 8.13545209,1.88289435 8.88761911,2.63506137 Z M7.88704858,6.61983322 C7.95186703,6.68465166 7.99507932,6.72786396 8.03611894,6.76890358 L8.17215327,6.90493791 L8.41175242,7.14453706 L7.56322428,7.9930652 L7.03852045,7.46836136 L7.88704858,6.61983322 Z M7.11903985,5.85182449 L7.50701379,6.23979842 L7.6009688,6.33375344 L6.75244067,7.18228158 L6.27051171,6.70035262 L7.11903985,5.85182449 Z" id="形状结合" fill="#262626" fill-rule="nonzero"></path>
        </g>
    </g>
</svg>