<?xml version="1.0" encoding="UTF-8"?>
<svg width="16px" height="16px" viewBox="0 0 16 16" version="1.1" xmlns="http://www.w3.org/2000/svg" xmlns:xlink="http://www.w3.org/1999/xlink">
    <title>anywhere door-third menu</title>
    <g id="anywhere-door-third-menu" stroke="none" stroke-width="1" fill="none" fill-rule="evenodd">
        <g id="任意门">
            <rect id="矩形" fill="#FFFFFF" opacity="0" x="0" y="0" width="16" height="16"></rect>
            <g id="图形" transform="translate(1.275000, 0.525362)" fill="#262626" fill-rule="nonzero">
                <path d="M9.0638797,1.41184398 C9.07128678,1.4743412 9.075,1.53722102 9.075,1.60015565 L9.075,1.624 L11.85,1.6246383 C12.7336556,1.6246383 13.45,2.3409827 13.45,3.2246383 L13.45,11.7246383 C13.45,12.6082939 12.7336556,13.3246383 11.85,13.3246383 L9.075,13.324 L9.075,13.349121 C9.075,14.2327766 8.3586556,14.949121 7.475,14.949121 C7.41206537,14.949121 7.34918556,14.9454077 7.28668833,14.9380007 L1.41168833,14.2417044 C0.606510439,14.1462759 0,13.4636379 0,12.6528247 L0,2.29645194 C0,1.48563875 0.606510439,0.803000731 1.41168833,0.70757224 L7.28668833,0.0112759435 C8.16420236,-0.0927257193 8.95987804,0.534329949 9.0638797,1.41184398 Z M7.50893221,1.20151798 L7.42792208,1.20293572 L1.55292208,1.89923202 C1.35162761,1.92308914 1.2,2.09374865 1.2,2.29645194 L1.2,12.6528247 C1.2,12.855528 1.35162761,13.0261875 1.55292208,13.0500446 L7.42792208,13.7463409 C7.44354639,13.7481927 7.45926634,13.749121 7.475,13.749121 C7.6959139,13.749121 7.875,13.5700349 7.875,13.349121 L7.875,1.60015565 C7.875,1.58442199 7.8740717,1.56870204 7.87221993,1.55307773 C7.85271961,1.38854385 7.73595264,1.25923068 7.58623762,1.21582638 L7.50893221,1.20151798 Z M11.85,2.8246383 L9.075,2.8246383 L9.075,12.1246383 L11.85,12.1246383 C12.0709139,12.1246383 12.25,11.9455522 12.25,11.7246383 L12.25,3.2246383 C12.25,3.0037244 12.0709139,2.8246383 11.85,2.8246383 Z M6.925,5.7246383 L6.925,8.3496383 L5.725,8.3496383 L5.725,5.7246383 L6.925,5.7246383 Z" id="形状结合"></path>
            </g>
        </g>
    </g>
</svg>