<?xml version="1.0" encoding="UTF-8"?>
<svg width="16px" height="16px" viewBox="0 0 16 16" version="1.1" xmlns="http://www.w3.org/2000/svg" xmlns:xlink="http://www.w3.org/1999/xlink">
    <title>apachel-third-menu</title>
    <g id="apachel-third-menu" stroke="none" stroke-width="1" fill="none" fill-rule="evenodd">
        <g id="Mysql">
            <rect id="矩形" x="0" y="0" width="16" height="16"></rect>
            <g id="MysQL">
                <rect id="矩形备份" x="0" y="0" width="16" height="16"></rect>
            </g>
        </g>
        <g id="Apache备份" transform="translate(1.000000, 2.000000)" fill="#262626" fill-rule="nonzero">
            <g id="路径">
                <path d="M0.220746821,0.0299415353 C0.37339105,-0.0463805791 0.526035277,0.0299415353 0.602357394,0.182585764 L1.59454488,2.39592708 C3.15914822,2.20512179 5.65033,3.08282611 7.03326752,4.15026223 C7.75139771,4.70455925 8.12210844,5.01944109 8.38021578,5.2635042 C7.29171247,5.49465628 6.33650901,5.39247452 6.08507054,5.36609985 C5.8336321,5.33972519 5.5358031,5.33952661 5.49129319,5.57296147 C5.44678332,5.80639637 5.62789904,5.95530398 5.92127311,6.00806207 C6.21446401,6.06078723 7.83242346,6.17896755 8.87158634,5.77713144 C9.13175443,6.0702754 9.50174332,6.50311061 9.80050685,6.85047987 L9.92887345,6.99869155 C8.83838073,7.22970269 8.3560007,7.18566608 8.09705498,7.18566608 C7.83810925,7.18566608 7.55827497,7.15901125 7.51376507,7.39244614 C7.46925519,7.62588101 7.6372521,7.78281681 7.9394534,7.82383303 C8.24155783,7.86483614 9.37216128,7.94922402 10.4109749,7.54692792 C10.8993021,8.09319617 11.7859014,9.05577068 12.6612515,9.83733321 C13.7297611,10.7913597 14.0350495,10.9440039 13.9968885,11.4019366 C11.8598693,10.6387154 9.76101111,9.72285004 7.77663613,8.69250151 C4.30397992,6.86077078 1.82351122,3.006504 1.67086699,3.08282611 C1.44190065,3.19730928 1.46756365,3.3197908 1.59454488,3.53800821 C1.72152611,3.75622562 3.88420832,7.35686449 7.54766981,9.26491736 C9.49388372,10.2571049 11.5164197,11.1729702 13.5771168,11.9743524 C12.4322851,12.5467683 8.63259278,12.9999703 3.67274349,9.62036916 C-1.11897529,6.35533071 0.873923599,2.90538367 1.01454153,2.6752408 L1.02212902,2.66305448 L0.0299415353,0.449713164 L0.0299415353,0.411552107 C-0.0463805791,0.258907878 0.0299415353,0.106263649 0.182585764,0.0299415353 Z" id="形状结合"></path>
            </g>
        </g>
    </g>
</svg>