<?xml version="1.0" encoding="UTF-8"?>
<svg width="16px" height="16px" viewBox="0 0 16 16" version="1.1" xmlns="http://www.w3.org/2000/svg" xmlns:xlink="http://www.w3.org/1999/xlink">
    <title>api list-third menu</title>
    <g id="api-list-third-menu" stroke="none" stroke-width="1" fill="none" fill-rule="evenodd">
        <g id="api-list">
            <rect id="矩形" x="0" y="0" width="16" height="16"></rect>
            <path d="M6.97683102,6.41971512 L7.71563724,7.15852134 L6.50968955,8.36446903 L7.63074201,9.4856666 L8.8366897,8.27957379 L9.57549592,9.01852513 L8.36954823,10.2244728 L9.04116386,10.8959433 L7.07159442,12.8662384 C6.10973867,13.8280941 4.61979103,13.9395463 3.53530883,13.2008852 L2.2401123,14.4962269 L1.5,13.7574207 L2.79577701,12.462079 C2.05726103,11.3783224 2.16856811,9.88764917 3.13042386,8.92579342 L5.1007189,6.9556435 L5.77073821,7.62566281 L6.97683102,6.41971512 Z M5.09350656,8.18377382 L3.73395404,9.5432262 C3.07024968,10.2069306 2.99344503,11.2355321 3.5030394,11.9833511 L4.01333472,12.4931457 C4.76165438,13.0028402 5.78975526,12.9259354 6.45345961,12.2622311 L7.81251145,10.9026786 L5.09350656,8.18377382 Z M13.7611938,1.5 L14.5,2.23880622 L13.20669,3.53226131 C13.9495596,4.61717887 13.8391233,6.11060939 12.8756712,7.07406146 L10.9053761,9.04421138 L6.96493118,5.10376642 L8.93522622,3.1336165 C9.89548565,2.17335707 11.382676,2.06074391 12.4659973,2.79519653 L13.7611938,1.5 Z M9.54327703,3.73397005 L8.18377382,5.09337312 L10.9026801,7.81227939 L12.2621833,6.45287632 C12.926965,5.78809458 13.0031661,4.7576278 12.4905862,4.00903489 L11.9795084,3.50046033 C11.2320169,2.99368816 10.2058559,3.07139123 9.54327703,3.73397005 Z" id="形状结合" fill="#262626" fill-rule="nonzero"></path>
        </g>
    </g>
</svg>