<?xml version="1.0" encoding="UTF-8"?>
<svg width="16px" height="16px" viewBox="0 0 16 16" version="1.1" xmlns="http://www.w3.org/2000/svg" xmlns:xlink="http://www.w3.org/1999/xlink">
    <title>api-topology-third-menu</title>
    <g id="api-topology-third-menu" stroke="none" stroke-width="1" fill="none" fill-rule="evenodd">
        <rect id="矩形" fill-opacity="0" fill="#F0F0F0" x="0" y="0" width="16" height="16"></rect>
        <g id="编组-50" transform="translate(1.000000, 1.000000)">
            <rect id="矩形备份-17" stroke="#262626" stroke-width="1.2" x="0.6" y="0.6" width="12.8" height="12.8" rx="1"></rect>
            <path d="M7.30275479,2.03815478 C7.36713936,2.07839514 7.42151412,2.1327699 7.46175447,2.19715447 L8.34619537,3.6122599 C8.49255054,3.84642817 8.42136395,4.15490336 8.18719569,4.30125852 C8.10772989,4.35092465 8.01590608,4.37725937 7.92219622,4.37725937 L7.547,4.37683119 L7.548,7.57983119 L9.76313428,7.58000842 L9.7629622,6.75984026 C9.41771046,6.58180488 9.18163298,6.22172744 9.18163298,5.80651115 C9.18163298,5.21449568 9.66155635,4.73457232 10.2535718,4.73457232 C10.8455873,4.73457232 11.3255106,5.21449568 11.3255106,5.80651115 C11.3255106,6.22172744 11.0894332,6.58180488 10.7441814,6.75984026 L10.743601,8.0602927 C10.743601,8.33643508 10.5197434,8.5602927 10.243601,8.5602927 L7.548,8.55983119 L7.54806143,9.11612021 C8.08540573,9.32157321 8.4670071,9.84201243 8.4670071,10.4515794 C8.4670071,11.2409334 7.82710928,11.8808312 7.03775532,11.8808312 C6.24840136,11.8808312 5.60850355,11.2409334 5.60850355,10.4515794 C5.60850355,9.83458321 5.99946328,9.30890055 6.54716517,9.10874899 L6.547,7.47183119 L3.83190965,7.47250399 C3.55576728,7.47250399 3.33190965,7.24864637 3.33190965,6.97250399 L3.33081177,6.04494736 C2.98584162,5.86681915 2.75,5.50689408 2.75,5.09188526 C2.75,4.49986979 3.22992336,4.01994643 3.82193883,4.01994643 C4.4139543,4.01994643 4.89387766,4.49986979 4.89387766,5.09188526 C4.89387766,5.50710155 4.65780019,5.86717899 4.31254845,6.04521437 L4.31196801,6.49214364 L6.547,6.49183119 L6.547,4.37683119 L6.15331443,4.37725937 C5.87717205,4.37725937 5.65331443,4.15340175 5.65331443,3.87725937 C5.65331443,3.78354951 5.67964915,3.6917257 5.72931527,3.6122599 L6.61375617,2.19715447 C6.76011134,1.9629862 7.06858653,1.89179962 7.30275479,2.03815478 Z" id="形状结合" fill="#262626"></path>
        </g>
    </g>
</svg>