<?xml version="1.0" encoding="UTF-8"?>
<svg width="16px" height="16px" viewBox="0 0 16 16" version="1.1" xmlns="http://www.w3.org/2000/svg" xmlns:xlink="http://www.w3.org/1999/xlink">
    <title>app-resource-atlas-third-menu</title>
    <g id="app-resource-atlas-third-menu" stroke="none" stroke-width="1" fill="none" fill-rule="evenodd">
        <rect id="矩形" fill-opacity="0" fill="#F0F0F0" x="0" y="0" width="16" height="16"></rect>
        <g id="编组-2" transform="translate(7.995559, 8.067220) rotate(-360.000000) translate(-7.995559, -8.067220) translate(1.000000, 1.550000)" stroke="#262626" stroke-width="1.2">
            <g id="编组" transform="translate(4.557593, 10.592034) rotate(-360.000000) translate(-4.557593, -10.592034) translate(2.442407, 8.149627)" fill-rule="nonzero">
                <path d="M2.11518635,0.692820323 L3.63037271,1.56761357 L3.63037271,3.31720007 L2.11518635,4.19199332 L0.6,3.31720007 L0.6,1.56761357 L2.11518635,0.692820323 Z" id="多边形备份"></path>
            </g>
            <g id="编组备份-5" transform="translate(4.557593, 2.442407) rotate(-360.000000) translate(-4.557593, -2.442407) translate(2.442407, 0.000000)" fill-rule="nonzero">
                <path d="M2.11518635,0.692820323 L3.63037271,1.56761357 L3.63037271,3.31720007 L2.11518635,4.19199332 L0.6,3.31720007 L0.6,1.56761357 L2.11518635,0.692820323 Z" id="多边形备份"></path>
            </g>
            <g id="编组备份-2" transform="translate(6.995559, 6.517220) rotate(-360.000000) translate(-6.995559, -6.517220) translate(4.880373, 4.074814)">
                <path d="M2.11518635,0.692820323 L3.63037271,1.56761357 L3.63037271,3.31720007 L2.11518635,4.19199332 L0.6,3.31720007 L0.6,1.56761357 L2.11518635,0.692820323 Z" id="多边形备份"></path>
            </g>
            <g id="编组备份-4" transform="translate(11.875932, 6.517220) rotate(-360.000000) translate(-11.875932, -6.517220) translate(9.760745, 4.074814)" fill-rule="nonzero">
                <path d="M2.11518635,0.692820323 L3.63037271,1.56761357 L3.63037271,3.31720007 L2.11518635,4.19199332 L0.6,3.31720007 L0.6,1.56761357 L2.11518635,0.692820323 Z" id="多边形备份"></path>
            </g>
            <g id="编组备份-3" transform="translate(2.115186, 6.517220) rotate(-360.000000) translate(-2.115186, -6.517220) translate(-0.000000, 4.074814)">
                <path d="M2.11518635,0.692820323 L3.63037271,1.56761357 L3.63037271,3.31720007 L2.11518635,4.19199332 L0.6,3.31720007 L0.6,1.56761357 L2.11518635,0.692820323 Z" id="多边形备份"></path>
            </g>
            <g id="编组备份" transform="translate(9.442407, 10.592034) rotate(-360.000000) translate(-9.442407, -10.592034) translate(7.327220, 8.149627)">
                <path d="M2.11518635,0.692820323 L3.63037271,1.56761357 L3.63037271,3.31720007 L2.11518635,4.19199332 L0.6,3.31720007 L0.6,1.56761357 L2.11518635,0.692820323 Z" id="多边形备份"></path>
            </g>
            <g id="编组备份-6" transform="translate(9.442407, 2.442407) rotate(-360.000000) translate(-9.442407, -2.442407) translate(7.327220, 0.000000)">
                <path d="M2.11518635,0.692820323 L3.63037271,1.56761357 L3.63037271,3.31720007 L2.11518635,4.19199332 L0.6,3.31720007 L0.6,1.56761357 L2.11518635,0.692820323 Z" id="多边形备份"></path>
            </g>
        </g>
    </g>
</svg>