<?xml version="1.0" encoding="UTF-8"?>
<svg width="16px" height="16px" viewBox="0 0 16 16" version="1.1" xmlns="http://www.w3.org/2000/svg" xmlns:xlink="http://www.w3.org/1999/xlink">
    <title>application services (public network)-third-menu</title>
    <g id="application-services-(public-network)-third-menu" stroke="none" stroke-width="1" fill="none" fill-rule="evenodd">
        <rect id="矩形" fill-opacity="0" fill="#D8D8D8" x="0" y="0" width="16" height="16"></rect>
        <g id="服务名" transform="translate(0.1, 2)">
            <rect id="矩形" fill-opacity="0" fill="#D8D8D8" x="1.5" y="0" width="12.8" height="12.8"></rect>
            <path d="M7.44375,0.15 C9.18680417,0.15 10.7184943,1.20798179 11.3668748,2.76237058 L11.43,2.925 L11.4410356,2.9265975 C13.8312493,3.22256805 15.6879619,5.211222 15.7951126,7.64505114 L15.8,7.8675 L15.8,7.95875 C15.8,10.1043763 14.0606263,11.84375 11.915,11.84375 L3.885,11.84375 C1.73937375,11.84375 0,10.1043763 0,7.95875 C0,6.11232271 1.28966505,4.5623312 3.02268356,4.16976165 L3.202,4.133 L3.2132053,3.99069664 C3.41270978,1.90286562 5.1227162,0.255803421 7.23783366,0.154900931 L7.44375,0.15 Z M4.55217802,3.43218872 L4.51842164,3.53407628 C4.43729373,3.8085743 4.39375,4.09920206 4.39375,4.4 C4.39375,4.47827903 4.39668641,4.55400233 4.40254317,4.62621066 L4.45389042,5.25927399 L3.8189317,5.27454345 C2.36424807,5.30952562 1.2,6.50042569 1.2,7.95875 C1.2,9.44163455 2.40211545,10.64375 3.885,10.64375 L8.97161125,10.6435469 C9.13245717,10.4762842 9.28803717,10.3096998 9.43835607,10.1437956 C9.28843758,9.97026407 9.2,9.74545989 9.2,9.5 C9.2,8.94771525 9.64771525,8.5 10.2,8.5 C10.3746436,8.5 10.5388308,8.54476939 10.681711,8.62345773 C11.0161305,8.16593082 11.3083122,7.7125845 11.5583475,7.2648036 C11.3877263,7.12362213 11.266313,6.92631436 11.2203164,6.70153488 L11.7528838,6.90092521 C10.8315783,6.56352598 9.91605181,6.18867113 9.00630693,5.77644404 L8.68031123,5.62544899 C8.49703743,5.85380727 8.21559129,6 7.9,6 C7.34771525,6 6.9,5.55228475 6.9,5 C6.9,4.91891057 6.90965171,4.84007542 6.927869,4.76458068 C6.13190234,4.34979347 5.33986196,3.90558781 4.55217802,3.43218872 Z M12.8284173,7.27974898 C12.6568646,7.41674823 12.4381545,7.5 12.2,7.5 C12.1714335,7.5 12.1431469,7.49880219 12.1151874,7.49645405 C11.8314963,8.01341786 11.4928002,8.53759469 11.1013031,9.06715608 C11.1646832,9.19801938 11.2,9.34488535 11.2,9.5 C11.2,10.0522847 10.7522847,10.5 10.2,10.5 C10.1145274,10.5 10.0315593,10.4892767 9.95236774,10.4691019 L9.793,10.643 L11.915,10.64375 C13.3978846,10.64375 14.6,9.44163455 14.6,7.95875 L14.6,7.8675 L14.599,7.822 L14.1051078,7.6813664 C13.6783343,7.55532122 13.2527706,7.42144836 12.8284173,7.27974898 Z M13.11938,4.86692334 L13.0779898,5.06295387 C13.0232506,5.29655741 12.9570502,5.53126268 12.8794036,5.76707524 C13.0767435,5.94923002 13.2,6.21022096 13.2,6.5 C13.2,6.58912532 13.1883406,6.67552742 13.1664637,6.75776423 L12.5775747,6.55869 C13.2268579,6.78585145 13.8797302,6.99329895 14.5355378,7.1818319 C14.3648651,6.2425029 13.8468843,5.42535864 13.11938,4.86692334 Z M7.44375,1.35 C6.31316462,1.35 5.32625577,1.96515233 4.79946965,2.87901079 C5.60877673,3.36881983 6.42192459,3.82524199 7.23972324,4.25048076 C7.41497367,4.09434944 7.64646859,4 7.9,4 C8.45228475,4 8.9,4.44771525 8.9,5 C8.9,5.02191606 8.89929498,5.04366746 8.89790639,5.06523274 C9.6902188,5.43552545 10.488138,5.77572868 11.2903798,6.08702534 C11.4465254,5.74055885 11.7951699,5.5 12.2,5.5 C12.2439873,5.5 12.2873112,5.50284008 12.3297985,5.50834686 C12.4377392,5.17536286 12.519773,4.8456537 12.5766176,4.51927148 C12.0899309,4.2639068 11.5413883,4.11147541 10.9586489,4.09097249 L10.5099543,4.07518576 L10.3985204,3.6402621 C10.0558284,2.30274346 8.84467585,1.35 7.44375,1.35 Z" id="形状结合" fill="#262626"></path>
        </g>
    </g>
</svg>