<?xml version="1.0" encoding="UTF-8"?>
<svg width="16px" height="16px" viewBox="0 0 16 16" version="1.1" xmlns="http://www.w3.org/2000/svg" xmlns:xlink="http://www.w3.org/1999/xlink">
    <title>project list-second menu-normal备份</title>
    <g id="project-list-second-menu-normal备份" stroke="none" stroke-width="1" fill="none" fill-rule="evenodd">
        <g id="project-list" fill="#000000" opacity="0">
            <rect id="矩形" x="0" y="0" width="16" height="16"></rect>
        </g>
        <g id="编组-35备份" transform="translate(1.632000, 0.968000)" fill="#262626">
            <path d="M2.12192394,4.62751678 L2.09060403,9.23154362 L6.06823266,11.5805369 L10.1163311,9.32550336 L10.147651,4.72930649 L6.13870246,2.3803132 L2.12192394,4.62751678 Z M5.8098434,10.7662192 L2.64653244,8.94183445 L2.67785235,5.22259508 L5.84116331,6.88255034 L5.8098434,10.7662192 Z M9.52908277,9.00447427 L6.36577181,10.7662192 L6.39709172,6.85123043 L9.56040268,5.25391499 L9.52908277,9.00447427 L9.52908277,9.00447427 Z M6.13870246,6.39709172 L3.10067114,4.79194631 L6.17002237,3.03020134 L9.20022371,4.82326622 C9.20022371,4.8310962 6.13087248,6.39709172 6.13870246,6.39709172 Z" id="形状"></path>
            <path d="M8.58165548,1.37024609 L8.05704698,2.18456376 L11.2516779,4.11073826 L11.189038,9.95190157 L10.2102908,10.5391499 L10.6957494,11.3847875 L12.1286353,10.5391499 L12.1912752,3.55480984 L12.1912752,3.52348993 L8.58165548,1.37024609 Z M1.01006711,3.97762864 L6.16219239,1.07270694 L7.17225951,1.69127517 L7.65771812,0.876957494 L6.20134228,0 L6.17002237,0 L0.062639821,3.39038031 L0.0313199105,7.63422819 L0.978747204,7.63422819 L1.01006711,3.97762864 Z M6.06823266,12.8881432 L0.947427293,9.88926174 L0.978747204,8.7147651 L0.0313199105,8.68344519 L0,10.4451902 L6.03691275,14 L6.06823266,14 L9.75615213,11.909396 L9.78747204,11.8780761 L9.30201342,11.0324385 L6.06823266,12.8881432 L6.06823266,12.8881432 Z" id="形状"></path>
        </g>
    </g>
</svg>