<?xml version="1.0" encoding="UTF-8"?>
<svg width="16px" height="16px" viewBox="0 0 16 16" version="1.1" xmlns="http://www.w3.org/2000/svg" xmlns:xlink="http://www.w3.org/1999/xlink">
    <title>Application Deployment History</title>
    <g id="Application-Deployment-History" stroke="none" stroke-width="1" fill="none" fill-rule="evenodd">
        <rect id="矩形" fill="#000000" opacity="0" x="0" y="0" width="16" height="16"></rect>
        <g id="编组备份-2" transform="translate(1.337822, 0.400000)">
            <g id="编组备份" fill="#262626" fill-rule="nonzero">
                <path d="M6.96217783,0.0803847577 L13.0243557,3.58038476 C13.2099963,3.68756443 13.3243557,3.88564065 13.3243557,4.1 L13.3243557,7.76321832 C13.3243557,8.09458917 13.0557265,8.36321832 12.7243557,8.36321832 C12.3929848,8.36321832 12.1243557,8.09458917 12.1243557,7.76321832 L12.124,4.446 L6.662,1.292 L1.2,4.446 L1.2,10.753 L6.662,13.907 L7.22985875,13.5794289 C7.48813676,13.4303121 7.8111975,13.4950437 7.99401154,13.7186864 L8.04947399,13.7990442 C8.21515941,14.0860198 8.11683432,14.452974 7.82985875,14.6186594 L6.96217783,15.1196152 C6.77653718,15.2267949 6.54781847,15.2267949 6.36217783,15.1196152 L0.3,11.6196152 C0.114359354,11.5124356 0,11.3143594 0,11.1 L0,4.1 C0,3.88564065 0.114359354,3.68756443 0.3,3.58038476 L6.36217783,0.0803847577 C6.54781847,-0.0267949192 6.77653718,-0.0267949192 6.96217783,0.0803847577 Z M11.0102315,8.85 C12.7498668,8.85 14.1621778,10.2479606 14.1621778,11.975 C14.1621778,13.7020394 12.7498668,15.1 11.0102315,15.1 C10.1521249,15.1 9.34737361,14.757702 8.75849435,14.1617026 C8.56440907,13.9652706 8.56631143,13.6486939 8.76274339,13.4546086 C8.95917535,13.2605233 9.27575212,13.2624257 9.4698374,13.4588576 C9.872456,13.8663443 10.4217866,14.1 11.0102315,14.1 C12.1998553,14.1 13.1621778,13.1474556 13.1621778,11.975 C13.1621778,10.8025444 12.1998553,9.85 11.0102315,9.85 C10.0466137,9.85 9.23213528,10.4749936 8.95744393,11.3356021 L9.24057046,11.0845431 C9.35352383,10.9836031 9.51828417,10.9775306 9.63721338,11.0608417 L9.69240669,11.1099205 C9.81017003,11.2416995 9.79880814,11.4439935 9.66702921,11.5617568 L8.57151451,12.5407559 C8.42849379,12.6685654 8.20593674,12.6427077 8.09602931,12.4855118 L7.27931848,11.3174052 C7.17805006,11.1725653 7.21337171,10.973055 7.35821161,10.8717866 C7.50305151,10.7705182 7.70256172,10.8058399 7.80383014,10.9506798 L7.96161619,11.1782719 C8.31701257,9.83767756 9.5479926,8.85 11.0102315,8.85 Z M11.5114203,10.7169705 L11.5114203,11.7869705 L12.1351636,12.4846539 L12.4683125,12.8574968 L11.7226267,13.5237945 L11.3894778,13.1509516 L10.6385774,12.310583 C10.5566871,12.2189356 10.5114203,12.1003375 10.5114203,11.9774341 L10.5114203,10.7169705 L11.5114203,10.7169705 Z M8.87489778,4.975 L9.28717783,5.6817658 L6.63717783,7.196 L6.63695788,10.225 L5.81239778,10.225 L5.81317783,7.196 L3.16217783,5.6817658 L3.57445788,4.975 L6.22517783,6.49 L8.87489778,4.975 Z" id="形状结合"></path>
            </g>
            <g id="编组-21" transform="translate(7.221547, 8.850000)"></g>
        </g>
    </g>
</svg>