<?xml version="1.0" encoding="UTF-8"?>
<svg width="16px" height="16px" viewBox="0 0 16 16" version="1.1" xmlns="http://www.w3.org/2000/svg" xmlns:xlink="http://www.w3.org/1999/xlink">
    <title>application configuration</title>
    <g id="application-configuration" stroke="none" stroke-width="1" fill="none" fill-rule="evenodd">
        <rect id="矩形" fill="#000000" opacity="0" x="0" y="0" width="16" height="16"></rect>
        <g id="编组备份" transform="translate(1.000000, 2.000000)">
            <path d="M11.5732718,12.9230769 C11.3618843,12.9230769 11.1843188,12.8888162 10.9729313,12.8545555 L10.9391093,12.8545555 C10.7615438,12.7860341 10.5501564,12.6746867 10.3049469,12.5719046 C9.24800951,12.1093849 7.94586265,11.5012572 6.99039125,11.5012572 C6.42387281,11.5012572 5.72206639,11.7153867 5.02025996,11.9980376 C5.02025996,11.9637769 5.05408196,11.9637769 5.05408196,11.9295162 C5.15554795,11.7153867 5.26546944,11.5012572 5.33311343,11.252867 C5.33311343,11.2186063 5.36693543,11.2186063 5.36693543,11.1843456 C5.40075742,10.9702161 5.43457942,10.7218259 5.43457942,10.4306098 C5.46840142,10.0023509 5.53604541,9.53983122 5.6121449,9.07731155 C6.10256385,9.25718031 6.60143829,9.35996246 6.98193575,9.35996246 C7.92895165,9.35996246 9.23955401,8.78609546 10.2626694,8.3235758 C10.4740569,8.22079365 10.7192664,8.10944632 10.8968318,8.04092489 C11.1082193,7.97240346 11.3196068,7.97240346 11.5309943,7.97240346 C12.9007851,7.97240346 14,9.07731155 14,10.4734357 C14,11.8695599 12.9430626,12.9230769 11.5732718,12.9230769" id="路径" fill="#262626"></path>
            <path d="M11.5732718,9.4627446 C11.0490308,9.4627446 10.5839784,9.89100355 10.5839784,10.4648705 C10.5839784,10.9959116 11.0067533,11.4669965 11.5732718,11.4669965 C12.0975127,11.4669965 12.5625652,11.0387375 12.5625652,10.4648705 C12.5541097,9.89100355 12.1313347,9.4627446 11.5732718,9.4627446" id="路径" fill="#FFFFFF"></path>
            <path d="M0.319002468,9.10300709 C0.428923956,8.92313833 0.530389945,8.74326957 0.67413343,8.6062267 L0.67413343,8.57196599 C0.851698911,8.46061866 1.02926439,8.3235758 1.19837437,8.17796775 C2.11156828,7.50131861 3.27842715,6.64480071 3.7350241,5.78828281 C4.01405557,5.29150243 4.19162105,4.53776668 4.30154254,3.7925961 C4.30154254,3.82685682 4.33536454,3.82685682 4.33536454,3.86111753 C4.43683053,4.07524701 4.61439601,4.28937649 4.75813949,4.46924524 C4.75813949,4.50350596 4.79196149,4.50350596 4.82578348,4.53776668 C5.00334897,4.68337472 5.21473644,4.82041758 5.42612392,5.00028634 C5.74743289,5.24867653 6.12793034,5.53132744 6.5168833,5.82254353 C6.12793034,6.18228105 5.81507688,6.53345338 5.6036894,6.8931909 C5.14709245,7.71544809 4.96952697,9.1372678 4.85960548,10.2850018 C4.82578348,10.533392 4.82578348,10.7817822 4.79196149,10.9616509 C4.7243175,11.1757804 4.648218,11.3556492 4.54675201,11.5355179 C3.87876759,12.7175126 2.36523325,13.1457716 1.19837437,12.4605573 C0.0737929945,11.8524295 -0.34898196,10.3192625 0.319002468,9.10300709" id="路径" fill="#262626"></path>
            <path d="M3.31224915,10.8588688 C3.59128062,10.3963491 3.41371514,9.78822141 2.95711819,9.5055705 C2.50052123,9.22291959 1.9001808,9.40278835 1.62114933,9.86530802 C1.34211786,10.3278277 1.51968334,10.9359554 1.97628029,11.2186063 C2.43287724,11.5012572 3.03321768,11.3556492 3.31224915,10.8588688" id="路径" fill="#FFFFFF"></path>
            <path d="M9.13808802,1.24017276 C9.23955401,1.42004152 9.3156535,1.59991028 9.3832975,1.81403975 L9.3832975,1.84830047 C9.41711949,2.06242994 9.41711949,2.27655942 9.45094149,2.52494961 C9.59468497,3.66411842 9.72997296,5.12876403 10.1950254,5.95102121 C10.4740569,6.44780159 11.0067533,6.98740787 11.6070938,7.44992754 L11.5394498,7.44992754 C11.2942403,7.44992754 11.0490308,7.48418825 10.7953658,7.56127487 C10.7615438,7.56127487 10.7615438,7.56127487 10.7277219,7.59553558 C10.5163344,7.66405701 10.3049469,7.77540434 10.0597374,7.87818649 C9.67078446,8.05805525 9.24800951,8.23792401 8.79141256,8.40922759 C8.68149107,7.9124472 8.54620309,7.40710164 8.33481561,7.0559293 C7.87821866,6.23367212 6.71135978,5.37715422 5.79816588,4.70050508 C5.5867784,4.55489703 5.40921292,4.41785417 5.23164744,4.27224613 C5.08790396,4.12663808 4.94416047,3.94676932 4.84269448,3.77546574 C4.17471005,2.60203622 4.56366301,1.060304 5.75588838,0.383654858 C6.95656926,-0.370080894 8.47010359,0.0239173402 9.13808802,1.24017276" id="路径" fill="#262626"></path>
            <path d="M6.14484134,2.98746928 C6.42387281,3.44998894 7.02421325,3.6298577 7.4808102,3.34720679 C7.93740715,3.06455589 8.11497263,2.45642818 7.83594116,1.99390851 C7.55690969,1.53138885 6.95656926,1.35152009 6.4999723,1.63417099 C6.03491985,1.88256118 5.86580987,2.49068889 6.14484134,2.98746928" id="路径" fill="#FFFFFF"></path>
        </g>
    </g>
</svg>