<?xml version="1.0" encoding="UTF-8"?>
<svg width="16px" height="16px" viewBox="0 0 16 16" version="1.1" xmlns="http://www.w3.org/2000/svg" xmlns:xlink="http://www.w3.org/1999/xlink">
    <title>application-blueprint-third-menu</title>
    <g id="application-blueprint-third-menu" stroke="none" stroke-width="1" fill="none" fill-rule="evenodd">
        <g id="图形" transform="translate(0.888889, 1.088889)">
            <rect id="矩形" fill="#FFFFFF" opacity="0" x="0" y="0" width="14" height="14"></rect>
            <path d="M3.49899234,9.62499981 L3.50068267,11.4499253 C3.36364902,11.4014051 3.21615813,11.375 3.0625,11.375 C2.90869276,11.375 2.76106473,11.4014564 2.62391842,11.4500666 L2.62284104,9.47486836 C2.89683296,9.57198167 3.1917423,9.62488439 3.49899234,9.62499981 Z M6.05406345,7.60870319 L10.0321856,9.37772666 C9.84538861,9.60099253 9.71323605,9.87154431 9.65629487,10.168815 L5.71254459,8.41314625 C5.86848225,8.16950351 5.98527845,7.89839925 6.05406345,7.60870319 Z M9.95346328,4.52087892 L6.06051953,6.41916667 C5.99461844,6.12741254 5.88013058,5.85407695 5.72600616,5.6081101 L9.63642616,3.70107347 C9.67116676,4.00476201 9.78364385,4.28482854 9.95346328,4.52087892 Z M3.50068267,2.55007475 L3.49840051,4.37491122 L3.33399087,4.38016437 C3.0860371,4.39563808 2.84741298,4.44553468 2.62284104,4.52513164 L2.62391842,2.54993343 C2.76106473,2.59854364 2.90869276,2.625 3.0625,2.625 C3.21615813,2.625 3.36364902,2.59859492 3.50068267,2.55007475 Z" id="形状结合" fill="#262626"></path>
            <path d="M3.0625,2.625 C3.78737373,2.625 4.375,2.03737373 4.375,1.3125 C4.375,0.587626266 3.78737373,0 3.0625,0 C2.33762627,0 1.75,0.587626266 1.75,1.3125 C1.75,2.03737373 2.33762627,2.625 3.0625,2.625 Z M3.0625,14 C3.78737373,14 4.375,13.4123737 4.375,12.6875 C4.375,11.9626263 3.78737373,11.375 3.0625,11.375 C2.33762627,11.375 1.75,11.9626263 1.75,12.6875 C1.75,13.4123737 2.33762627,14 3.0625,14 Z M11.375,12.25 C12.3414983,12.25 13.125,11.4664983 13.125,10.5 C13.125,9.53350169 12.3414983,8.75 11.375,8.75 C10.4085017,8.75 9.625,9.53350169 9.625,10.5 C9.625,11.4664983 10.4085017,12.25 11.375,12.25 Z M11.375,5.25 C12.3414983,5.25 13.125,4.46649831 13.125,3.5 C13.125,2.53350169 12.3414983,1.75 11.375,1.75 C10.4085017,1.75 9.625,2.53350169 9.625,3.5 C9.625,4.46649831 10.4085017,5.25 11.375,5.25 Z M3.5,9.625 C4.94974747,9.625 6.125,8.44974747 6.125,7 C6.125,5.55025253 4.94974747,4.375 3.5,4.375 C2.05025253,4.375 0.875,5.55025253 0.875,7 C0.875,8.44974747 2.05025253,9.625 3.5,9.625 Z" id="形状结合" fill="#262626"></path>
        </g>
    </g>
</svg>