<?xml version="1.0" encoding="UTF-8"?>
<svg width="16px" height="16px" viewBox="0 0 16 16" version="1.1" xmlns="http://www.w3.org/2000/svg" xmlns:xlink="http://www.w3.org/1999/xlink">
    <title> application services (intranet)-third-menu</title>
    <g id="-application-services-(intranet)-third-menu" stroke="none" stroke-width="1" fill="none" fill-rule="evenodd">
        <g id="图形" transform="translate(0.4, 0.4)">
            <rect id="矩形" fill-opacity="0" fill="#D8D8D8" x="0.6" y="0.6" width="14" height="14"></rect>
            <path d="M7.6,0 C11.7973641,0 15.2,3.4026359 15.2,7.6 C15.2,11.7973641 11.7973641,15.2 7.6,15.2 C3.4026359,15.2 0,11.7973641 0,7.6 C0,3.40330502 3.40155114,0.00108487143 7.59799271,2.59399104e-07 Z M9.99255268,8.08320445 L5.20937667,8.14202852 C5.32419133,11.4509765 6.47426652,14 7.6,14 C8.73239529,14 9.88942124,11.4207182 9.99255268,8.08320445 Z M4.00885977,8.15701447 L1.22697379,8.19153775 C1.45386809,10.6673469 3.09085655,12.7351864 5.32780347,13.5849205 C4.56067776,12.2966335 4.0788992,10.3485273 4.00885977,8.15701447 Z M13.9856356,8.03221851 L11.1937498,8.06818602 C11.134048,10.2958438 10.6496816,12.2792477 9.87144627,13.5853394 C12.1569602,12.7170226 13.815842,10.5783865 13.9856356,8.03221851 Z M5.32855373,1.6146606 L5.20913218,1.66152526 C3.03790207,2.53650442 1.4567883,4.56770533 1.22846065,6.99245818 L4.01182969,6.95683186 C4.09159363,4.80045468 4.57075491,2.8864543 5.32855373,1.6146606 Z M7.6,1.2 C6.48746799,1.2 5.35116184,3.68958932 5.21384137,6.94187582 L9.98355594,6.88291244 C9.8393909,3.75302127 8.77047054,1.34329097 7.69623586,1.20616364 L7.6,1.2 Z M9.87219653,1.61507955 L9.92373343,1.70420209 C10.6410064,2.95746896 11.0972637,4.79773726 11.1846487,6.86789943 L13.9545488,6.8332985 C13.668277,4.43541466 12.0561788,2.44469427 9.87219653,1.61507955 Z" id="形状结合" fill="#262626" fill-rule="nonzero"></path>
        </g>
        <rect id="矩形" fill-opacity="0" fill="#D8D8D8" x="0" y="0" width="16" height="16"></rect>
    </g>
</svg>