<?xml version="1.0" encoding="UTF-8"?>
<svg width="16px" height="16px" viewBox="0 0 16 16" version="1.1" xmlns="http://www.w3.org/2000/svg" xmlns:xlink="http://www.w3.org/1999/xlink">
    <title>Application products</title>
    <g id="Application-products" stroke="none" stroke-width="1" fill="none" fill-rule="evenodd">
        <rect id="矩形" fill="#000000" opacity="0" x="0" y="0" width="16" height="16"></rect>
        <path d="M9.6627374,1.4 C10.1730485,1.4 10.5867374,1.81368889 10.5867374,2.324 L10.5860822,3.387 L13.9143236,3.38717949 C14.7427507,3.38717949 15.4143236,4.05875235 15.4143236,4.88717949 L15.4143236,6.45512821 C15.4143236,6.78649906 15.1456945,7.05512821 14.8143236,7.05512821 L1.89708223,7.05417949 L1.89708223,13.9461539 C1.89708223,14.0881699 1.99576232,14.207138 2.12829496,14.2382306 L2.19708223,14.2461538 L13.9143236,14.2461538 C14.080009,14.2461538 14.2143236,14.1118393 14.2143236,13.9461539 L14.2143236,10 C14.2143236,9.66862915 14.4829528,9.4 14.8143236,9.4 C15.1456945,9.4 15.4143236,9.66862915 15.4143236,10 L15.4143236,13.9461539 C15.4143236,14.774581 14.7427507,15.4461538 13.9143236,15.4461538 L2.19708223,15.4461538 C1.36865509,15.4461538 0.697082228,14.774581 0.697082228,13.9461539 L0.697082228,4.88717949 C0.697082228,4.05875235 1.36865509,3.38717949 2.19708223,3.38717949 L5.52408223,3.387 L5.52466844,2.324 C5.52466844,1.81368889 5.93835733,1.4 6.44866844,1.4 L9.6627374,1.4 Z M5.94055142,8.21597017 L6.64787424,8.92286084 L6.29442891,9.27652226 L4.90463395,10.6660769 L6.29018167,12.0205604 L6.64782637,12.3699746 L5.94899802,13.085264 L5.59135332,12.7358498 L3.84421977,11.0289233 C3.64511313,10.8343987 3.64320375,10.5147223 3.83997254,10.3178332 L5.58710608,8.56963159 L5.94055142,8.21597017 Z M9.6880958,8.21597017 L10.0415411,8.56963159 L11.7886747,10.3178332 C11.9854435,10.5147223 11.9835341,10.8343987 11.7844274,11.0289233 L10.0372939,12.7358498 L9.6796492,13.085264 L8.98082084,12.3699746 L9.33846554,12.0205604 L10.7240133,10.6660769 L9.33421831,9.27652226 L8.98077297,8.92286084 L9.6880958,8.21597017 Z M13.9143236,4.58717949 L9.80597336,4.58896485 C9.75929256,4.59622966 9.71145529,4.6 9.6627374,4.6 L6.44866844,4.6 C6.39995055,4.6 6.35211327,4.59622966 6.30543248,4.58896485 L2.1970822,4.58717949 C2.03139679,4.58717949 1.89708223,4.72149405 1.89708223,4.88717946 L1.89708223,5.85417949 L14.2140822,5.85417949 L14.2143236,4.88717946 C14.2143236,4.7451634 14.1156435,4.6261953 13.9831109,4.5951027 L13.9143236,4.58717949 Z M9.38666844,2.6 L6.72466844,2.6 L6.72408223,3.387 L9.38608223,3.387 L9.38666844,2.6 Z" id="形状结合" fill="#262626" fill-rule="nonzero"></path>
        <g id="编组-2备份-3" transform="translate(4.193634, 8.923077)"></g>
    </g>
</svg>