<?xml version="1.0" encoding="UTF-8"?>
<svg width="16px" height="16px" viewBox="0 0 16 16" version="1.1" xmlns="http://www.w3.org/2000/svg" xmlns:xlink="http://www.w3.org/1999/xlink">
    <title>project list-second menu-normal</title>
    <g id="project-list-second-menu-normal" stroke="none" stroke-width="1" fill="none" fill-rule="evenodd">
        <g id="project-list" fill="#000000" opacity="0">
            <rect id="矩形" x="0" y="0" width="16" height="16"></rect>
        </g>
        <g id="应用管理" transform="translate(1.000000, 1.000000)" fill="#000000" fill-rule="nonzero">
            <rect id="矩形" opacity="0" x="0" y="8.86471593e-07" width="13.9999854" height="13.9999854"></rect>
            <path d="M7.00006108,7.89973879 C6.89069914,7.89973879 6.78302685,7.87275469 6.68663367,7.82109822 L0.681309838,4.6005547 C0.467742957,4.48605218 0.333655801,4.26415796 0.331578523,4.02184117 C0.329549075,3.77952439 0.459856636,3.55538972 0.671452427,3.43728442 L6.67677626,0.0841375177 C6.87770116,-0.0280458392 7.122421,-0.0280458392 7.3233459,0.0841375177 L13.3286697,3.43728442 C13.5401935,3.55544805 13.6704372,3.77956449 13.6684081,4.02184682 C13.6663311,4.26412916 13.5323081,4.48600626 13.3188123,4.60056837 L7.31335177,7.82111189 C7.21700514,7.87275828 7.10937723,7.89973879 7.00006108,7.89973879 L7.00006108,7.89973879 Z M2.37582761,4.0045436 L7.00006108,6.48397657 L11.6242946,4.0045436 L7.00006108,1.42248964 L2.37582761,4.0045436 Z M7.00006108,10.949849 C6.89068205,10.9499097 6.78299408,10.9228527 6.68663367,10.871099 L0.681309838,7.65069215 C0.363783546,7.47504657 0.24639275,7.07681339 0.417873642,6.75701874 C0.589354534,6.43722408 0.98601954,6.31463888 1.30802794,6.48192579 L7.00006108,9.53425074 L12.6920942,6.48192579 C13.0141026,6.31463888 13.4107676,6.43722408 13.5822485,6.75701874 C13.7537294,7.07681339 13.6363386,7.47504657 13.3188123,7.65069215 L7.31335177,10.871099 C7.21704041,10.9228522 7.10939666,10.9499099 7.00006108,10.949849 L7.00006108,10.949849 Z M7.00006108,14 C6.89068938,14 6.78301784,13.9729167 6.68663367,13.9212227 L0.681309838,10.7008159 C0.363783546,10.5251703 0.24639275,10.1269372 0.417873642,9.80714252 C0.589354534,9.48734786 0.98601954,9.36476266 1.30802794,9.53204957 L7.00006108,12.5845112 L12.6920942,9.53204957 C13.0141026,9.36476266 13.4107676,9.48734786 13.5822485,9.80714252 C13.7537294,10.1269372 13.6363386,10.5251703 13.3188123,10.7008159 L7.31335177,13.9212364 C7.21701662,13.9729298 7.10938932,14 7.00006108,14 L7.00006108,14 Z" id="形状"></path>
        </g>
    </g>
</svg>