<?xml version="1.0" encoding="UTF-8"?>
<svg width="16px" height="16px" viewBox="0 0 16 16" version="1.1" xmlns="http://www.w3.org/2000/svg" xmlns:xlink="http://www.w3.org/1999/xlink">
    <title>application-deployment-history-third-menu</title>
    <g id="application-deployment-history-third-menu" stroke="none" stroke-width="1" fill="none" fill-rule="evenodd">
        <g>
            <rect id="矩形" fill="#000000" opacity="0" x="0" y="0" width="16" height="16"></rect>
            <path d="M7.7,0.480384758 C7.88564065,0.373205081 8.11435935,0.373205081 8.3,0.480384758 L14.3621778,3.98038476 C14.5478185,4.08756443 14.6621778,4.28564065 14.6621778,4.5 L14.6621778,8.16321832 C14.6621778,8.49458917 14.3935487,8.76321832 14.0621778,8.76321832 C13.730807,8.76321832 13.4621778,8.49458917 13.4621778,8.16321832 L13.4618222,4.846 L7.99982217,1.692 L2.53782217,4.846 L2.53782217,11.153 L7.99982217,14.307 L8.56768092,13.9794289 C8.82595894,13.8303121 9.14901968,13.8950437 9.33183372,14.1186864 L9.38729616,14.1990442 C9.55298159,14.4860198 9.45465649,14.852974 9.16768092,15.0186594 L8.3,15.5196152 C8.11435935,15.6267949 7.88564065,15.6267949 7.7,15.5196152 L1.63782217,12.0196152 C1.45218153,11.9124356 1.33782217,11.7143594 1.33782217,11.5 L1.33782217,4.5 C1.33782217,4.28564065 1.45218153,4.08756443 1.63782217,3.98038476 L7.7,0.480384758 Z" id="路径" fill="#262626" fill-rule="nonzero"></path>
            <g id="编组备份-4" transform="translate(10.093476, 8.936779)" fill="#262626">
                <path d="M4.23845539,4.51265281 L4.65841875,5.43681819 C4.70513871,5.5389177 4.69231174,5.64742114 4.62168383,5.74191881 C4.48901752,5.92017081 4.19313092,6 3.95849892,6 L0.946910345,6 C0.672472085,6 0.418226884,5.90477592 0.29898015,5.75755583 C0.223987373,5.66472131 0.203666873,5.55554243 0.241822769,5.44945399 L0.24699051,5.43681819 L0.666947508,4.51265281 C1.12755825,4.91828542 1.75817556,5.16940832 2.45273649,5.16940832 C3.14720184,5.16940832 3.77759613,4.91850208 4.23845539,4.51265281 Z M2.46953016,0 C3.83340591,0 4.93906033,1.10541863 4.93906033,2.46900128 C4.93906033,3.83258393 3.83340591,4.93798981 2.46953016,4.93798981 C1.1056544,4.93798981 0,3.83258393 0,2.46899491 C0,1.10540589 1.1056544,0 2.46953016,0 Z M2.46953016,1.50965576 C1.69309462,1.50965576 1.06368801,2.13893493 1.06368801,2.91519841 C1.06368801,3.69146192 1.693101,4.32074747 2.46953016,4.32074747 C3.24596568,4.32074747 3.87537232,3.69146829 3.87537232,2.91520478 C3.87537232,2.13894131 3.24596568,1.50965576 2.46953016,1.50965576 Z M2.46953016,2.17896421 C2.89266681,2.17896421 3.2356748,2.52190849 3.2356748,2.94494958 C3.2356748,3.36799064 2.89266681,3.71093492 2.46953016,3.71093492 C2.0463935,3.71093492 1.7033855,3.36799064 1.7033855,2.94494958 C1.7033855,2.52190849 2.04639988,2.17896421 2.46953016,2.17896421 Z" id="形状结合"></path>
            </g>
            <path d="M7.97478005,5.375 L7.974,8.404 L10.625,9.9182342 L10.2127199,10.625 L7.562,9.11 L4.91228005,10.625 L4.5,9.9182342 L7.15,8.404 L7.15021995,5.375 L7.97478005,5.375 Z" id="形状结合备份" fill="#262626" transform="translate(7.562500, 8.000000) rotate(-180.000000) translate(-7.562500, -8.000000) "></path>
        </g>
    </g>
</svg>