<?xml version="1.0" encoding="UTF-8"?>
<svg width="16px" height="16px" viewBox="0 0 16 16" version="1.1" xmlns="http://www.w3.org/2000/svg" xmlns:xlink="http://www.w3.org/1999/xlink">
    <title>project list-second menu-normal备份 6</title>
    <g id="project-list-second-menu-normal备份-6" stroke="none" stroke-width="1" fill="none" fill-rule="evenodd">
        <g id="project-list" fill="#000000" opacity="0">
            <rect id="矩形" x="0" y="0" width="16" height="16"></rect>
        </g>
        <g id="Kafka备份" transform="translate(1.000000, 1.000000)">
            <rect id="矩形备份-18" opacity="0.446149554" x="0" y="0" width="14" height="14"></rect>
            <path d="M10.8992832,8.3661208 C10.1137637,8.3661208 9.43070329,8.84426307 9.12332612,9.52732347 L5.81048318,7.88797852 C5.91294224,7.58060134 5.98124828,7.27322416 5.98124828,6.96584698 C5.98124828,6.89754094 5.98124828,6.8292349 5.98124828,6.79508188 L9.36239726,5.12158391 C10.0113046,5.9754094 11.2066603,6.1461745 12.0604858,5.49726712 C12.9143113,4.84835975 13.0850764,3.65300405 12.436169,2.79917855 C11.7872617,1.94535305 10.591906,1.77458795 9.73808047,2.42349533 C9.2599382,2.79917855 8.98671404,3.34562687 8.98671404,3.96038123 C8.98671404,4.19945237 9.02086706,4.43852351 9.12332612,4.67759465 L5.87878922,6.28278658 C5.60556507,5.25819598 4.68343353,4.50682955 3.62468991,4.40437049 L3.62468991,2.73087251 C4.34190333,2.59426043 4.82004561,1.87704701 4.68343353,1.1598336 C4.54682145,0.442620178 3.82960803,-0.0355221004 3.11239461,0.101089979 C2.39518119,0.237702059 1.91703892,0.954915477 2.053651,1.67212889 C2.15611006,2.21857721 2.56594629,2.62841345 3.11239461,2.73087251 L3.11239461,4.40437049 C1.67796778,4.54098257 0.653377179,5.83879732 0.789989259,7.27322416 C0.926601338,8.50273288 1.8828859,9.45901743 3.11239461,9.59562951 L3.11239461,11.2691275 C2.39518119,11.4057396 1.91703892,12.122953 2.053651,12.8401664 C2.19026307,13.5573798 2.90747649,14.0355221 3.62468991,13.89891 C4.34190333,13.7622979 4.82004561,13.0450845 4.68343353,12.3278711 C4.58097447,11.7814228 4.17113823,11.3715865 3.62468991,11.2691275 L3.62468991,9.59562951 C4.44436239,9.52732347 5.16157581,9.04918119 5.57141205,8.3661208 L8.98671404,10.0396188 C8.98671404,10.1079248 8.98671404,10.2103839 8.98671404,10.2786899 C8.98671404,11.3374335 9.84053953,12.191259 10.8992832,12.225412 C11.9580268,12.225412 12.8118523,11.3715865 12.8460053,10.3128429 C12.8460053,9.25409931 11.9921798,8.3661208 10.8992832,8.3661208 C10.9334362,8.3661208 10.9334362,8.3661208 10.8992832,8.3661208 L10.8992832,8.3661208 Z" id="路径" fill="#262626"></path>
        </g>
    </g>
</svg>