<?xml version="1.0" encoding="UTF-8"?>
<svg width="16px" height="16px" viewBox="0 0 16 16" version="1.1" xmlns="http://www.w3.org/2000/svg" xmlns:xlink="http://www.w3.org/1999/xlink">
    <title>area-third-menu</title>
    <g id="area-third-menu" stroke="none" stroke-width="1" fill="none" fill-rule="evenodd">
        <rect id="矩形" fill-opacity="0" fill="#F0F0F0" x="0" y="0" width="16" height="16"></rect>
        <g id="行政区域管理" transform="translate(1.000000, 0.000000)" fill="#262626" fill-rule="nonzero">
            <path d="M8.04351976,0.999388205 C8.01483241,1.2028931 8,1.4113674 8,1.62384083 C8,4.01312357 12.2334161,9.35278936 12.2334161,9.35278936 C12.2334161,9.35278936 13.0708151,8.33323446 14.0005358,6.97433682 L14,14 C14,14.5522847 13.5522847,15 13,15 L1,15 C0.44771525,15 0,14.5522847 0,14 L0,2 C0,1.44771525 0.44771525,1 1,1 L8.04351976,0.999388205 Z M1.2,7.615 L1.2,13.7993882 L2.471,13.799 L3.876,9.497 L1.2,7.615 Z M4.902,10.219 L3.733,13.799 L9.991,13.799 L4.902,10.219 Z M7.14769488,3.33876494 L5.291,9.027 L12.075,13.799 L12.8,13.7993882 L12.8,10.5523882 L12.2169192,11.263539 L11.293091,10.0983018 L11.2167124,10.000889 C11.1843463,9.9592992 11.1452448,9.90875699 11.0999207,9.84976196 C10.9506271,9.6554374 10.7847308,9.43538673 10.6063204,9.19357316 C10.0967092,8.50285725 9.58702962,7.77369453 9.10959906,7.03677714 C8.76998433,6.51257945 8.45873475,6.00258714 8.18188255,5.5119959 C7.7328583,4.71631011 7.38303026,3.99391076 7.14769488,3.33876494 Z M6.259,2.198 L1.2,2.1993882 L1.2,6.149 L4.265,8.305 L6.259,2.198 Z M12.1350181,0 C13.4523047,0 14.5,1.05344588 14.5,2.38792932 L14.4916505,2.53531863 C14.344361,4.01564688 12.1350181,6.70557872 12.1350181,6.70557872 C12.1350181,6.70557872 9.7693927,3.72178294 9.7693927,2.38665599 C9.7693927,1.05217254 10.8164582,0 12.1350181,0 Z M12.1350181,1.34787401 C11.5474352,1.34787401 11.0223005,1.86089147 11.0223005,2.47077831 C11.0223005,3.08129497 11.4556592,3.59432612 12.0419687,3.59432612 C12.6289218,3.59432612 13.1540428,3.08129497 13.1540428,2.47077831 C13.1540428,1.86089147 12.7213277,1.34787401 12.1350181,1.34787401 Z" id="形状结合"></path>
        </g>
    </g>
</svg>