<?xml version="1.0" encoding="UTF-8"?>
<svg width="16px" height="16px" viewBox="0 0 16 16" version="1.1" xmlns="http://www.w3.org/2000/svg" xmlns:xlink="http://www.w3.org/1999/xlink">
    <title>Arrange template library</title>
    <g id="Arrange-template-library" stroke="none" stroke-width="1" fill="none" fill-rule="evenodd">
        <rect id="矩形" fill="#000000" opacity="0" x="0" y="0" width="16" height="16"></rect>
        <g id="编组备份" transform="translate(0.400000, 1.500000)">
            <path d="M11.0966072,0 C11.3727496,0 11.5966072,0.223857625 11.5966072,0.5 C11.5966072,0.776142375 11.3727496,1 11.0966072,1 L4.10339277,1 C3.82725039,1 3.60339277,0.776142375 3.60339277,0.5 C3.60339277,0.223857625 3.82725039,0 4.10339277,0 L11.0966072,0 Z M12.804315,1.33687003 C13.270087,1.33687003 13.6878804,1.70719794 13.7943526,2.17050865 C13.8562001,2.43963595 13.6881665,2.707944 13.4190392,2.76979145 C13.1499119,2.83163891 12.8816039,2.66360539 12.8197564,2.39447809 C12.8131124,2.36556685 12.7807375,2.33687003 12.804315,2.33687003 L2.39568496,2.33687003 C2.41926252,2.33687003 2.38688759,2.36556685 2.38024357,2.39447809 C2.31839612,2.66360539 2.05008807,2.83163891 1.78096077,2.76979145 C1.51183347,2.707944 1.34379995,2.43963595 1.4056474,2.17050865 C1.51211964,1.70719794 1.92991298,1.33687003 2.39568496,1.33687003 L12.804315,1.33687003 Z M13.72,3.0193634 C14.5373814,3.0193634 15.2,3.68198197 15.2,4.4993634 L15.2,12.1976127 C15.2,13.1819498 14.5136257,14.0230769 13.6,14.0230769 L1.6,14.0230769 C0.686374261,14.0230769 0,13.1819498 0,12.1976127 L0,4.4993634 C0,3.68198197 0.66261857,3.0193634 1.48,3.0193634 L13.72,3.0193634 Z M13.72,4.2193634 L1.48,4.2193634 C1.32536027,4.2193634 1.2,4.34472367 1.2,4.4993634 L1.2,12.1976127 C1.2,12.566886 1.40905624,12.8230769 1.6,12.8230769 L13.6,12.8230769 C13.7909438,12.8230769 14,12.566886 14,12.1976127 L14,4.4993634 C14,4.34472367 13.8746397,4.2193634 13.72,4.2193634 Z M5.26733333,9.19559451 L5.26733333,10.9845945 L9.24897603,10.9852193 C9.42520156,10.7003765 9.74043962,10.5106101 10.1,10.5106101 C10.6522847,10.5106101 11.1,10.9583253 11.1,11.5106101 C11.1,12.0628948 10.6522847,12.5106101 10.1,12.5106101 C9.71989331,12.5106101 9.38931908,12.2985364 9.22014536,11.986257 L4.76666667,11.9855841 C4.49052429,11.9855841 4.26666667,11.7617265 4.26666667,11.4855841 L4.26666667,8.69559451 C4.26666667,8.41945214 4.49052429,8.19559451 4.76666667,8.19559451 L5.43333333,8.19559451 L10.1833333,8.19460489 L10.1833333,6.40560489 L5.96270286,6.40602763 C5.78895662,6.70160112 5.46764758,6.9 5.1,6.9 C4.54771525,6.9 4.1,6.45228475 4.1,5.9 C4.1,5.34771525 4.54771525,4.9 5.1,4.9 C5.47212117,4.9 5.79676923,5.10325654 5.96897964,5.40480509 L10.6833333,5.40560489 C10.9594757,5.40560489 11.1833333,5.62946251 11.1833333,5.90560489 L11.1833333,8.69559451 C11.1833333,8.97173689 10.9594757,9.19559451 10.6833333,9.19559451 L5.26733333,9.19559451 Z" id="形状结合" fill="#262626" fill-rule="nonzero"></path>
            <g id="编组-8" transform="translate(4.100000, 4.900000)"></g>
        </g>
    </g>
</svg>