<?xml version="1.0" encoding="UTF-8"?>
<svg width="16px" height="16px" viewBox="0 0 16 16" version="1.1" xmlns="http://www.w3.org/2000/svg" xmlns:xlink="http://www.w3.org/1999/xlink">
    <title>authority management</title>
    <g id="authority-management" stroke="none" stroke-width="1" fill="none" fill-rule="evenodd">
        <rect id="矩形" fill="#000000" opacity="0" x="0" y="0" width="16" height="16"></rect>
        <g id="编组-20" transform="translate(0.399981, 0.400000)">
            <path d="M6.28510319,0 C8.3706034,0 10.0612076,1.6906287 10.0612076,3.77613774 C10.0612076,5.50645145 8.8974263,6.96493917 7.30989854,7.41154647 L7.43789495,7.41097301 C8.34224084,7.41097301 9.19644159,7.55855952 9.97264497,7.84431783 C10.283612,7.95879995 10.4428945,8.30369461 10.3284123,8.61466163 C10.2139302,8.92562864 9.86903556,9.08491113 9.55806855,8.97042901 C8.91669538,8.73430828 8.20285591,8.61097301 7.43789495,8.61097301 L6.28495595,8.61097301 C3.39536125,8.61097301 1.33822473,10.3899059 1.20181166,12.8171387 C1.17108948,13.3638145 1.53256014,13.7632112 2.05011087,13.7632112 L8.88169887,13.7632112 C9.21306972,13.7632112 9.48169887,14.0318403 9.48169887,14.3632112 C9.48169887,14.694582 9.21306972,14.9632112 8.88169887,14.9632112 L2.05011087,14.9632112 C0.831162604,14.9632112 -0.0650379448,13.97298 0.00370221766,12.7498054 C0.162967388,9.91595943 2.36979926,7.78625653 5.44107674,7.45570588 C3.76177306,7.07403193 2.50897919,5.57138694 2.50897919,3.77613774 C2.50897919,1.6906344 4.19960709,0 6.28510319,0 Z M12.218075,8.475 C12.218075,9.54766371 13.0189494,9.9835117 13.9194639,9.49583333 L14.6000194,10.630699 C13.6752527,11.1315114 13.7284697,11.9723086 14.6000194,12.444301 L13.9194639,13.5791667 C12.3315009,12.8172296 12.2256367,14.3668343 12.2185791,14.5768347 L12.218075,14.6 L10.8569639,14.6 C10.8569639,13.5273363 10.0560895,13.0914883 9.155575,13.5791667 L8.47501945,12.444301 C9.39978624,11.9434886 9.34656916,11.1026914 8.47501945,10.630699 L9.155575,9.49583333 C10.0952261,10.0047064 10.8569639,9.50298704 10.8569639,8.475 L12.218075,8.475 Z M6.28510319,1.2 C4.86234982,1.2 3.70897919,2.35337506 3.70897919,3.77613774 C3.70897919,5.19889085 4.86235008,6.35226174 6.28510319,6.35226174 C7.70785755,6.35226174 8.86120756,5.19889942 8.86120756,3.77613774 C8.86120756,2.3533665 7.7078578,1.2 6.28510319,1.2 Z" id="形状结合" fill="#262626" fill-rule="nonzero"></path>
            <g id="编组-14备份" transform="translate(8.475019, 8.475000)" fill="#FFFFFF">
                <circle id="Oval-2" cx="3.0625" cy="3.0625" r="1.02083333"></circle>
            </g>
        </g>
    </g>
</svg>