<?xml version="1.0" encoding="UTF-8"?>
<svg width="16px" height="16px" viewBox="0 0 16 16" version="1.1" xmlns="http://www.w3.org/2000/svg" xmlns:xlink="http://www.w3.org/1999/xlink">
    <title>automatic collection-third menu</title>
    <g id="automatic-collection-third-menu" stroke="none" stroke-width="1" fill="none" fill-rule="evenodd">
        <g id="自动采集" transform="translate(0.000000, 0.000000)">
            <rect id="矩形" fill="#D8D8D8" opacity="0" x="0" y="0" width="16" height="16"></rect>
            <path d="M2,6.04154802 C2.14595953,6.04154802 2.29014971,6.07349981 2.42244571,6.13515978 L7.27372285,8.39622312 C7.44987944,8.47832546 7.5625,8.6550672 7.5625,8.84941724 L7.5625,13.4306441 C7.5625,13.9829289 7.11478475,14.4306441 6.5625,14.4306441 C6.41654047,14.4306441 6.27235029,14.3986923 6.14005429,14.3370323 L1.28877715,12.075969 C1.11262056,11.9938667 1,11.8171249 1,11.6227749 L1,7.04154802 C1,6.48926327 1.44771525,6.04154802 2,6.04154802 Z M14,6.04154802 C14.5522847,6.04154802 15,6.48926327 15,7.04154802 L15,11.6227749 C15,11.8171249 14.8873794,11.9938667 14.7112229,12.075969 L9.85994571,14.3370323 C9.72764971,14.3986923 9.58345953,14.4306441 9.4375,14.4306441 C8.88521525,14.4306441 8.4375,13.9829289 8.4375,13.4306441 L8.4375,8.84941724 C8.4375,8.6550672 8.55012056,8.47832546 8.72627715,8.39622312 L13.5775543,6.13515978 C13.7098503,6.07349981 13.8540405,6.04154802 14,6.04154802 Z M2.2,7.35519213 L2.2,11.1771921 L6.362,13.1171921 L6.362,9.29519213 L2.2,7.35519213 Z M13.8,7.35519213 L9.638,9.29519213 L9.638,13.1171921 L13.8,11.1771921 L13.8,7.35519213 Z M5.49847226,2.94171453 C5.63421583,3.24400631 5.49920183,3.59910413 5.19691004,3.7348477 L3.62042215,4.4415 L8.03942215,6.5885 L12.3524221,4.4435 L10.8816984,3.78324063 C10.6096607,3.66101611 10.473154,3.3611422 10.5475749,3.08203908 L10.5802974,2.99004617 C10.7161025,2.68778199 11.0712277,2.55284017 11.3734919,2.68864519 L13.4103729,3.60411712 C13.4861797,3.63538742 13.572519,3.68323157 13.6625131,3.75859488 C13.8492524,3.91497494 13.9769186,4.13305334 13.9730784,4.40341696 C13.9730784,4.66327095 13.8669246,4.87860308 13.7054517,5.04500342 C13.6191535,5.13393503 13.5333595,5.19375882 13.4440048,5.24094473 L8.53098549,7.68541664 C8.22566238,7.8373301 7.86714678,7.83903906 7.56038931,7.69004326 L2.49095214,5.22562006 C2.42500861,5.18678665 2.34678175,5.13043434 2.26573471,5.05073808 C2.09396101,4.88182727 1.97742215,4.67529451 1.97742215,4.40826125 C1.97742215,4.12315381 2.11370547,3.90932997 2.30829709,3.75388034 C2.39882014,3.68156595 2.4847007,3.63500618 2.54236332,3.61143258 L4.7053391,2.6401523 C5.00763088,2.50440873 5.3627287,2.63942274 5.49847226,2.94171453 Z M8.70787197,2.21591696 L8.70787197,3.04186851 L9.68641869,3.04186851 L8.05631488,4.97231834 L6.42621107,3.04186851 L7.44351211,3.04186851 L7.44351211,2.21591696 L8.70787197,2.21591696 Z M8.71029412,1.63702422 L8.70787197,2.0366782 L7.43140138,2.0366782 L7.43140138,1.63702422 L8.71029412,1.63702422 Z M8.70787197,1 L8.69576125,1.40692042 L7.44351211,1.40692042 L7.44351211,1 L8.70787197,1 Z" id="形状结合" fill="#262626" fill-rule="nonzero"></path>
        </g>
    </g>
</svg>