<?xml version="1.0" encoding="UTF-8"?>
<svg width="16px" height="16px" viewBox="0 0 16 16" version="1.1" xmlns="http://www.w3.org/2000/svg" xmlns:xlink="http://www.w3.org/1999/xlink">
    <title>availability-zone-third-menu</title>
    <g id="availability-zone-third-menu" stroke="none" stroke-width="1" fill="none" fill-rule="evenodd">
        <rect id="矩形" fill-opacity="0" fill="#F0F0F0" x="0" y="0" width="16" height="16"></rect>
        <g id="数据中心" transform="translate(1.200000, 1.220000)" fill="#262626" fill-rule="nonzero">
            <path d="M11.8099715,7.08605969 C11.973712,7.08605969 12.1374524,7.16792992 12.2193227,7.33167036 L13.9385973,10.3199335 C14.0204676,10.4836739 14.0204676,10.6474144 13.9385973,10.8111548 L12.2193227,13.799418 C12.1374524,13.9631584 11.973712,14.0450286 11.8099715,14.0450286 L8.33048706,14.0450286 C8.16674662,14.0450286 8.00300618,13.9631584 7.92113596,13.799418 L6.20186126,10.8111548 C6.11999104,10.6474144 6.11999104,10.4836739 6.20186126,10.3199335 L7.92113596,7.33167036 C8.00300617,7.16792992 8.16674662,7.08605969 8.33048706,7.08605969 L11.8099715,7.08605969 Z M11.3854586,8.28605969 L8.75545859,8.28605969 L7.44345859,10.5630597 L8.75345859,12.8440597 L11.3834586,12.8440597 L12.6964586,10.5660597 L11.3854586,8.28605969 Z M5.66951294,3.60657521 C5.83325338,3.60657521 5.99699382,3.68844544 6.07886404,3.85218588 L7.79813874,6.84044902 C7.88000896,7.00418947 7.88000896,7.16792992 7.79813874,7.33167036 L6.07886404,10.3199335 C5.99699383,10.4836739 5.83325338,10.5655442 5.66951294,10.5655442 L2.19002845,10.5655442 C2.02628801,10.5655442 1.86254757,10.4836739 1.78067735,10.3199335 L0.0614026708,7.33167036 C-0.0204675569,7.16792992 -0.0204675569,7.00418947 0.0614026708,6.84044902 L1.78067735,3.85218588 C1.86254756,3.68844544 2.02628801,3.60657521 2.19002845,3.60657521 L5.66951294,3.60657521 Z M5.245,4.80657521 L2.615,4.80657521 L1.303,7.08357521 L2.613,9.36457521 L5.243,9.36457521 L6.556,7.08657521 L5.245,4.80657521 Z M11.764783,0 C11.9285235,0 12.0922639,0.0818702277 12.1741341,0.245610668 L13.8934088,3.2338738 C13.975279,3.39761424 13.975279,3.56135469 13.8934088,3.72509513 L12.1741341,6.71335828 C12.0922639,6.87709872 11.9285235,6.95896895 11.764783,6.95896895 L8.28529854,6.95896895 C8.1215581,6.95896895 7.95781766,6.87709872 7.87594743,6.71335828 L6.15667274,3.72509513 C6.07480251,3.56135469 6.07480251,3.39761424 6.15667274,3.2338738 L7.87594743,0.245610668 C7.95781764,0.0818702277 8.1215581,0 8.28529854,0 L11.764783,0 Z M11.3402701,1.2 L8.71027007,1.2 L7.39827007,3.477 L8.70827007,5.758 L11.3382701,5.758 L12.6512701,3.48 L11.3402701,1.2 Z" id="形状结合"></path>
        </g>
    </g>
</svg>