<?xml version="1.0" encoding="UTF-8"?>
<svg width="16px" height="16px" viewBox="0 0 16 16" version="1.1" xmlns="http://www.w3.org/2000/svg" xmlns:xlink="http://www.w3.org/1999/xlink">
    <title>backend-third-menu</title>
    <g id="backend-third-menu" stroke="none" stroke-width="1" fill="none" fill-rule="evenodd">
        <g id="Mysql">
            <rect id="矩形" x="0" y="0" width="16" height="16"></rect>
            <g id="MysQL">
                <rect id="矩形备份" x="0" y="0" width="16" height="16"></rect>
            </g>
        </g>
        <g id="编组-2" transform="translate(1.000000, 1.000000)">
            <path d="M13,0.6 L13.4,4.4 L0.6,4.4 L0.6,1 L13,0.6 Z" id="矩形" stroke="#262626" stroke-width="1.2" fill-rule="nonzero"></path>
            <path d="M4.6,1.9 L11.4,1.9 C11.7313708,1.9 12,2.16862915 12,2.5 C12,2.83137085 11.7313708,3.1 11.4,3.1 L4.6,3.1 C4.26862915,3.1 4,2.83137085 4,2.5 C4,2.16862915 4.26862915,1.9 4.6,1.9 Z" id="矩形备份-4" fill="#262626" fill-rule="nonzero"></path>
            <path d="M2.6,3.1 C2.93137085,3.1 3.2,2.83137085 3.2,2.5 C3.2,2.16862915 2.93137085,1.9 2.6,1.9 C2.26862915,1.9 2,2.16862915 2,2.5 C2,2.83137085 2.26862915,3.1 2.6,3.1 Z" id="椭圆形" fill="#262626" fill-rule="nonzero"></path>
            <path d="M13.4,6.6 L13.4,10 L1,10.4 L0.6,6.6 L13.4,6.6 Z" id="矩形备份-2" stroke="#262626" stroke-width="1.2" fill-rule="nonzero"></path>
            <path d="M4.6,7.9 L11.4,7.9 C11.7313708,7.9 12,8.16862915 12,8.5 C12,8.83137085 11.7313708,9.1 11.4,9.1 L4.6,9.1 C4.26862915,9.1 4,8.83137085 4,8.5 C4,8.16862915 4.26862915,7.9 4.6,7.9 Z" id="矩形备份-5" fill="#262626"></path>
            <path d="M2.6,9.1 C2.93137085,9.1 3.2,8.83137085 3.2,8.5 C3.2,8.16862915 2.93137085,7.9 2.6,7.9 C2.26862915,7.9 2,8.16862915 2,8.5 C2,8.83137085 2.26862915,9.1 2.6,9.1 Z" id="椭圆形备份" fill="#262626"></path>
            <rect id="矩形备份-3" fill="#262626" x="0" y="11.8" width="14" height="1.2" rx="0.6"></rect>
            <rect id="矩形备份-3" fill="#262626" transform="translate(7.000000, 12.100000) rotate(-90.000000) translate(-7.000000, -12.100000) " x="5" y="11.5" width="4" height="1.2" rx="0.6"></rect>
        </g>
    </g>
</svg>