<?xml version="1.0" encoding="UTF-8"?>
<svg width="16px" height="16px" viewBox="0 0 16 16" version="1.1" xmlns="http://www.w3.org/2000/svg" xmlns:xlink="http://www.w3.org/1999/xlink">
    <title>Basic Info-third menu</title>
    <g id="Basic-Info-third-menu" stroke="none" stroke-width="1" fill="none" fill-rule="evenodd">
        <rect id="矩形" fill-opacity="0" fill="#F0F0F0" x="0" y="0" width="16" height="16"></rect>
        <g>
            <rect id="矩形" fill="#FFFFFF" opacity="0" x="0" y="0" width="16" height="16"></rect>
            <g id="图形" transform="translate(1.875000, 1.500000)" fill="#262626" fill-rule="nonzero">
                <path d="M3.062,0.37181325 C3.0625,1.05456913 3.5789684,1.61351059 4.2408045,1.68072371 L4.375,1.6875 L7.875,1.6875 C8.59987373,1.6875 9.1875,1.09987373 9.1875,0.375 L11.25,0.37181325 C11.8022847,0.37181325 12.25,0.8195285 12.25,1.37181325 L12.25,12.4968133 C12.25,13.049098 11.8022847,13.4968133 11.25,13.4968133 L1,13.4968133 C0.44771525,13.4968133 0,13.049098 0,12.4968133 L0,1.37181325 C0,0.8195285 0.44771525,0.37181325 1,0.37181325 L3.062,0.37181325 Z M11.05,1.57081325 L10.083,1.57281325 L10.0701865,1.59814884 C9.6659359,2.32210605 8.91393678,2.82544449 8.04019757,2.88215573 L7.875,2.8875 L4.31448232,2.88597303 L4.11956148,2.87458305 C3.28592156,2.78992231 2.57983083,2.30198408 2.18923063,1.6138173 L2.167,1.57181325 L1.2,1.57181325 L1.2,12.2968133 L11.05,12.2968133 L11.05,1.57081325 Z M3.21972656,8.8296875 C3.55951113,8.8296875 3.83496094,9.10513731 3.83496094,9.44492187 C3.83496094,9.78470644 3.55951113,10.0601562 3.21972656,10.0601562 C2.879942,10.0601562 2.60449219,9.78470644 2.60449219,9.44492187 C2.60449219,9.10513731 2.879942,8.8296875 3.21972656,8.8296875 Z M9.64550781,8.95273437 L9.64550781,9.93710937 L4.81933594,9.93710937 L4.81933594,8.95273437 L9.64550781,8.95273437 Z M3.21972656,6.61484375 C3.55951113,6.61484375 3.83496094,6.89029356 3.83496094,7.23007812 C3.83496094,7.56986269 3.55951113,7.8453125 3.21972656,7.8453125 C2.879942,7.8453125 2.60449219,7.56986269 2.60449219,7.23007812 C2.60449219,6.89029356 2.879942,6.61484375 3.21972656,6.61484375 Z M9.64550781,6.73789062 L9.64550781,7.72226563 L4.79933882,7.72226563 L4.81933594,6.73789062 L9.64550781,6.73789062 Z M3.21972656,4.4 C3.55951113,4.4 3.83496094,4.67544981 3.83496094,5.01523437 C3.83496094,5.35501894 3.55951113,5.63046875 3.21972656,5.63046875 C2.879942,5.63046875 2.60449219,5.35501894 2.60449219,5.01523437 C2.60449219,4.67544981 2.879942,4.4 3.21972656,4.4 Z M9.64550781,4.52304687 L9.64550781,5.50742187 L4.81933594,5.50742187 L4.81933594,4.52304687 L9.64550781,4.52304687 Z M8.15,0 C8.48137085,-9.15528894e-16 8.75,0.26862915 8.75,0.6 C8.75,0.93137085 8.48137085,1.2 8.15,1.2 L4.1,1.2 C3.76862915,1.2 3.5,0.93137085 3.5,0.6 C3.5,0.26862915 3.76862915,6.08718376e-17 4.1,0 L8.15,0 Z" id="形状结合"></path>
            </g>
        </g>
    </g>
</svg>