<?xml version="1.0" encoding="UTF-8"?>
<svg width="16px" height="16px" viewBox="0 0 16 16" version="1.1" xmlns="http://www.w3.org/2000/svg" xmlns:xlink="http://www.w3.org/1999/xlink">
    <title>basic-cloud-resources-third-menu</title>
    <g id="basic-cloud-resources-third-menu" stroke="none" stroke-width="1" fill="none" fill-rule="evenodd">
        <g id="node">
            <rect id="矩形" fill="#D8D8D8" opacity="0" x="1" y="1" width="14" height="14"></rect>
            <g id="图形" transform="translate(0.837545, 1.100000)" fill="#262626" fill-rule="nonzero">
                <path d="M10.6,0 C11.2075132,0 11.7,0.492486775 11.7,1.1 L11.7,5.91000543 C11.7,6.24137628 11.4313708,6.51000543 11.1,6.51000543 C10.7686292,6.51000543 10.5,6.24137628 10.5,5.91000543 L10.5,1.2 L1.2,1.2 L1.2,12.25 L5.14176868,12.25 C5.44000245,12.25 5.68741543,12.4675896 5.73391569,12.7526769 L5.74176868,12.85 C5.74176868,13.1813708 5.47313953,13.45 5.14176868,13.45 L1.1,13.45 C0.492486775,13.45 0,12.9575132 0,12.35 L0,1.1 C0,0.492486775 0.492486775,0 1.1,0 L10.6,0 Z M10.2249552,7.1 C11.529684,7.1 12.6489914,7.93173348 13.0485769,9.11918787 L13.0524552,9.132 L13.1447513,9.15808294 C13.9669087,9.41577449 14.5898565,10.1710622 14.6565354,11.0521955 L14.6624552,11.2089203 C14.6624552,12.4040505 13.7166344,13.35 12.5215113,13.35 L8.25620518,13.35 C6.89740821,13.35 5.78745518,12.240137 5.78745518,10.8814024 C5.78745518,10.3330291 5.96350014,9.82788579 6.26632928,9.41816228 L4.54729893,9.41835937 L4.54729893,8.43398437 L7.74729893,8.43398437 L7.747,8.448 L7.80444582,8.36133087 C8.30021241,7.63259064 9.1148579,7.16540617 10.0278818,7.10635375 L10.2249552,7.1 Z M10.2249552,8.1 C9.47870624,8.1 8.82282761,8.50379974 8.50660397,9.13637538 L8.38743722,9.37475726 L8.12310275,9.40872667 C7.34576865,9.50862127 6.78745518,10.1249391 6.78745518,10.8814024 C6.78745518,11.6878341 7.4496748,12.35 8.25620518,12.35 L12.5215113,12.35 C13.1643192,12.35 13.6624552,11.8517962 13.6624552,11.2089203 C13.6624552,10.6268875 13.1838663,10.1126561 12.6131146,10.0670059 L12.2389773,10.0370814 L12.1632587,9.66946628 C11.9762086,8.76133413 11.1764276,8.1 10.2249552,8.1 Z M2.94768955,8.3109375 C3.28747411,8.3109375 3.56292393,8.58638731 3.56292393,8.92617187 C3.56292393,9.26595644 3.28747411,9.54140625 2.94768955,9.54140625 C2.60790499,9.54140625 2.33245518,9.26595644 2.33245518,8.92617187 C2.33245518,8.58638731 2.60790499,8.3109375 2.94768955,8.3109375 Z M2.94768955,6.09609375 C3.28747411,6.09609375 3.56292393,6.37154356 3.56292393,6.71132812 C3.56292393,7.05111269 3.28747411,7.3265625 2.94768955,7.3265625 C2.60790499,7.3265625 2.33245518,7.05111269 2.33245518,6.71132812 C2.33245518,6.37154356 2.60790499,6.09609375 2.94768955,6.09609375 Z M9.3734708,6.21914062 L9.3734708,7.20351562 L4.52730181,7.20351562 L4.54729893,6.21914062 L9.3734708,6.21914062 Z M2.94768955,3.88125 C3.28747411,3.88125 3.56292393,4.15669981 3.56292393,4.49648437 C3.56292393,4.83626894 3.28747411,5.11171875 2.94768955,5.11171875 C2.60790499,5.11171875 2.33245518,4.83626894 2.33245518,4.49648437 C2.33245518,4.15669981 2.60790499,3.88125 2.94768955,3.88125 Z M9.3734708,4.00429687 L9.3734708,4.98867187 L4.54729893,4.98867187 L4.54729893,4.00429687 L9.3734708,4.00429687 Z" id="形状结合"></path>
            </g>
            <rect id="矩形" fill="#D8D8D8" opacity="0" x="0" y="0" width="16" height="16"></rect>
        </g>
    </g>
</svg>