<?xml version="1.0" encoding="UTF-8"?>
<svg width="16px" height="16px" viewBox="0 0 16 16" version="1.1" xmlns="http://www.w3.org/2000/svg" xmlns:xlink="http://www.w3.org/1999/xlink">
    <title>besappservice-third-menu</title>
    <g id="besappservice-third-menu" stroke="none" stroke-width="1" fill="none" fill-rule="evenodd">
        <rect id="矩形" fill-opacity="0" fill="#F0F0F0" x="0" y="0" width="16" height="16"></rect>
        <g id="蓝图实例" transform="translate(0.000000, 1.600000)">
            <rect id="矩形" fill="#FFFFFF" opacity="0" x="1.6" y="0" width="12.8" height="12.8"></rect>
            <path d="M5.02314916,4.8 C5.69831605,4.82870639 5.93702078,5.12078268 5.73926335,5.67622888 C5.54150593,6.23167508 5.12256399,6.44299936 4.48243754,6.31020173 C5.14003713,6.4873585 5.3017251,6.85789763 4.96750145,7.42181913 C4.46629284,8.02014183 3.89594893,7.96892936 3.52168846,8.02364798 C3.27218149,8.06012706 2.09828533,8.06012706 0,8.02364798 L0.839,5.899 L4.35324561,5.8999323 C4.46370256,5.8999323 4.55673126,5.8253131 4.58467258,5.72373381 L4.59324561,5.6599323 C4.59324561,5.52738396 4.48579395,5.4199323 4.35324561,5.4199323 L0.601,5.419 L0.997638249,4.8 L5.02314916,4.8 Z M11.0405416,4.8 L10.6130288,5.48932846 L7.86222737,5.48932846 L7.65202505,6.02321962 L10.4167571,6.02321962 L10.0913982,6.65905822 L7.4095095,6.65905822 L7.06912099,7.32153428 L10.9159752,7.321 L13.6567122,7.3178789 C13.7771093,7.3178789 13.8757959,7.22492546 13.8849216,7.10686906 L13.8856103,7.08898081 C13.8856103,7.01525142 13.8507513,6.94966378 13.7966154,6.90780004 L12.0324333,6.90776983 C11.4846266,6.90776983 11.0405416,6.4636848 11.0405416,5.91587815 C11.0405416,5.3680715 11.4846266,4.8 12.0324333,4.8 L16,4.8 L15.7520271,5.54391876 L12.776352,5.54391876 C12.5709245,5.54391876 12.4043926,5.71045065 12.4043926,5.91587815 C12.4043926,6.12130564 12.5709245,6.28783753 12.776352,6.28783753 L14.5121625,6.28783753 C14.8857527,6.28783753 15.1950231,6.56322313 15.2480518,6.92207228 L15.2599108,6.91966306 C15.2598019,6.95105495 15.2583882,6.98213818 15.255721,7.01286143 L15.2560812,7.03175629 C15.2560812,7.2009021 15.1996301,7.35686303 15.1045402,7.48182671 C14.9113865,7.80633025 14.557044,8.02364798 14.1520897,8.02364798 L5.30097519,8.02364798 L6.71350701,4.8 L11.0405416,4.8 Z M3.41537423,6.65979691 L2.1135164,6.65979691 L1.86554347,7.27972922 L3.41537423,7.27972922 C3.58656381,7.27972922 3.72534039,7.14095264 3.72534039,6.96976306 C3.72534039,6.79857348 3.58656381,6.65979691 3.41537423,6.65979691 Z" id="形状结合" fill="#262626"></path>
        </g>
    </g>
</svg>