<?xml version="1.0" encoding="UTF-8"?>
<svg width="16px" height="16px" viewBox="0 0 16 16" version="1.1" xmlns="http://www.w3.org/2000/svg" xmlns:xlink="http://www.w3.org/1999/xlink">
    <title>blueprint-instance-third-menu</title>
    <g id="blueprint-instance-third-menu" stroke="none" stroke-width="1" fill="none" fill-rule="evenodd">
        <rect id="矩形" fill-opacity="0" fill="#F0F0F0" x="0" y="0" width="16" height="16"></rect>
        <g id="蓝图实例" transform="translate(0.161145, 1.000000)">
            <rect id="矩形" fill="#FFFFFF" opacity="0" x="0.838855039" y="0" width="14" height="14"></rect>
            <path d="M15.3537732,8.96025753 C15.6449612,9.11842264 15.7527975,9.4826953 15.5946324,9.77388327 L13.8348613,13.0136887 C13.5549117,13.5290865 13.0154021,13.85 12.4288813,13.85 L3.31203295,13.85 C2.73542005,13.85 2.20340914,13.5397425 1.91946843,13.0378858 L0.0778933457,9.78295718 C-0.0852831506,9.49454763 0.016238302,9.1284648 0.304647857,8.96528831 C0.593057411,8.80211181 0.959140237,8.90363326 1.12231673,9.19204282 L2.96389182,12.4469715 C3.034877,12.5724356 3.16787972,12.65 3.31203295,12.65 L12.4288813,12.65 C12.5755115,12.65 12.7103889,12.5697716 12.7803763,12.4409222 L14.5401475,9.20111673 C14.6983126,8.90992875 15.0625852,8.80209242 15.3537732,8.96025753 Z M4.83885504,1.4 C5.68108928,1.4 6.36385504,2.08276576 6.36385504,2.925 C6.36385504,3.26309636 6.25281982,3.58593375 6.05173253,3.84950105 L6.01697947,3.90028498 C5.94559033,4.0106334 5.90135504,4.15752519 5.90135504,4.3125 C5.90135504,4.74742424 6.2539308,5.1 6.68885504,5.1 C7.12377928,5.1 7.47635504,4.74742424 7.47635504,4.3125 C7.47635504,4.16036593 7.4337346,4.01594441 7.35436129,3.89093302 L7.30328583,3.81937576 L7.23197623,3.71012576 C7.0838304,3.45310992 7.01385504,3.19344612 7.01385504,2.925 C7.01385504,2.08276576 7.6966208,1.4 8.53885504,1.4 L11.313855,1.4 L11.4562854,1.40721907 L11.6292031,1.43338118 L11.7697502,1.47270672 C12.4107898,1.68294749 12.838855,2.26060751 12.838855,2.925 L12.838855,3.325 L12.8652226,3.33079857 C13.9148807,3.60756736 14.688855,4.56339798 14.688855,5.7 L14.6836437,5.86108817 C14.6145181,6.92609368 13.864897,7.80561211 12.8652226,8.06920143 L12.838855,8.076 L12.838855,8.475 C12.838855,9.31723424 12.1560893,10 11.313855,10 L3.91385504,10 C3.0716208,10 2.38885504,9.31723424 2.38885504,8.475 L2.38885504,2.925 C2.38885504,2.08276576 3.0716208,1.4 3.91385504,1.4 Z M11.3184755,2.59727188 L11.2792992,2.59900409 L8.53885504,2.6 C8.3593625,2.6 8.21385504,2.74550746 8.21385504,2.925 C8.21385504,2.98295208 8.22851704,3.03735968 8.25621842,3.08576325 L8.29772201,3.148113 L8.35183135,3.22439949 C8.56798779,3.56361879 8.67635504,3.93082669 8.67635504,4.3125 C8.67635504,5.41016594 7.78652098,6.3 6.68885504,6.3 C5.5911891,6.3 4.70135504,5.41016594 4.70135504,4.3125 C4.70135504,3.92349333 4.81393146,3.54966169 5.02186944,3.22992833 L5.08258887,3.14232076 C5.14059513,3.06538926 5.16385504,2.99776055 5.16385504,2.925 C5.16385504,2.74550746 5.01834758,2.6 4.83885504,2.6 L3.91385504,2.6 C3.7343625,2.6 3.58885504,2.74550746 3.58885504,2.925 L3.58885504,8.475 C3.58885504,8.65449254 3.7343625,8.8 3.91385504,8.8 L11.313855,8.8 C11.4933476,8.8 11.638855,8.65449254 11.638855,8.475 L11.638855,6.95 L12.238855,6.95 C12.929211,6.95 13.488855,6.39035594 13.488855,5.7 C13.488855,5.00964406 12.929211,4.45 12.238855,4.45 L11.638855,4.45 L11.638855,2.925 C11.638855,2.77337596 11.5338834,2.6425818 11.3889078,2.60857005 L11.3184755,2.59727188 Z" id="形状结合" fill="#262626" fill-rule="nonzero"></path>
        </g>
    </g>
</svg>