<?xml version="1.0" encoding="UTF-8"?>
<svg width="16px" height="16px" viewBox="0 0 16 16" version="1.1" xmlns="http://www.w3.org/2000/svg" xmlns:xlink="http://www.w3.org/1999/xlink">
    <title>broadband-line-third-menu</title>
    <g id="broadband-line-third-menu" stroke="none" stroke-width="1" fill="none" fill-rule="evenodd">
        <rect id="矩形" fill-opacity="0" fill="#F0F0F0" x="0" y="0" width="16" height="16"></rect>
        <g id="线路" transform="translate(1.000000, 1.000000)">
            <rect id="矩形" fill-opacity="0" fill="#D8D8D8" x="0" y="0" width="14" height="14"></rect>
            <path d="M1.07763683,4.14517717 C1.0272657,4.14517717 0.978749468,4.12617037 0.941782706,4.09195475 C0.860719687,4.01692458 0.855829089,3.89038606 0.93085925,3.80932304 L3.3759351,1.16764899 L3.38802593,1.15565359 C3.46968096,1.08126815 3.59617676,1.08716132 3.6705622,1.16881636 L6.07705305,3.81049041 C6.11060634,3.84732283 6.12920354,3.89535297 6.12920354,3.94517717 C6.12920354,4.05563412 6.03966048,4.14517717 5.92920353,4.14517717 L4.1,4.14517717 L4.0996923,9.5494485 C5.37392197,7.65009794 7.54097298,6.4 10,6.4 L10,4.45763683 C10,4.4072657 10.0190068,4.35874947 10.0532224,4.32178271 C10.1282526,4.24071969 10.2547911,4.23582909 10.3358541,4.31085925 L12.9775282,6.7559351 C12.9816965,6.75979322 12.9856986,6.76382715 12.9895236,6.76802593 C13.063909,6.84968096 13.0580158,6.97617676 12.9763608,7.0505622 L10.3346868,9.45705305 C10.2978543,9.49060634 10.2498242,9.50920354 10.2,9.50920354 C10.0895431,9.50920354 10,9.41966048 10,9.30920353 L10,7.6 C6.74151998,7.6 4.1,10.24152 4.1,13.5 L4.1,14 L2.9,14 L2.9,4.14517717 Z" id="形状结合" fill="#262626" fill-rule="nonzero"></path>
        </g>
    </g>
</svg>