<?xml version="1.0" encoding="UTF-8"?>
<svg width="16px" height="16px" viewBox="0 0 16 16" version="1.1" xmlns="http://www.w3.org/2000/svg" xmlns:xlink="http://www.w3.org/1999/xlink">
    <title>Broker-third menu</title>
    <g id="Broker-third-menu" stroke="none" stroke-width="1" fill="none" fill-rule="evenodd">
        <g id="Broker">
            <rect id="矩形" x="0" y="0" width="16" height="16"></rect>
            <path d="M12.3528214,0.4 C13.236477,0.4 13.9528214,1.1163444 13.9528214,2 L13.9528214,14 C13.9528214,14.8836556 13.236477,15.6 12.3528214,15.6 L3.94444444,15.6 C3.06078884,15.6 2.34444444,14.8836556 2.34444444,14 L2.34444444,2 C2.34444444,1.1163444 3.06078884,0.4 3.94444444,0.4 L12.3528214,0.4 Z M12.3528214,1.6 L3.94444444,1.6 C3.72353054,1.6 3.54444444,1.7790861 3.54444444,2 L3.54444444,14 C3.54444444,14.2209139 3.72353054,14.4 3.94444444,14.4 L12.3528214,14.4 C12.5737353,14.4 12.7528214,14.2209139 12.7528214,14 L12.7528214,2 C12.7528214,1.7790861 12.5737353,1.6 12.3528214,1.6 Z M8.21276905,9.42931937 C9.17926736,9.42931937 9.96276905,10.2128211 9.96276905,11.1793194 C9.96276905,12.1458177 9.17926736,12.9293194 8.21276905,12.9293194 C7.24627074,12.9293194 6.46276905,12.1458177 6.46276905,11.1793194 C6.46276905,10.2128211 7.24627074,9.42931937 8.21276905,9.42931937 Z M8.21,10.47625 C7.82340068,10.47625 7.51,10.7896507 7.51,11.17625 C7.51,11.5628493 7.82340068,11.87625 8.21,11.87625 C8.59659932,11.87625 8.91,11.5628493 8.91,11.17625 C8.91,10.7896507 8.59659932,10.47625 8.21,10.47625 Z M11.3737638,5.0075 L11.3737638,6.0575 L4.85020361,6.0575 L4.85020361,5.0075 L11.3737638,5.0075 Z M11.3737638,2.90575916 L11.3737638,3.95575916 L4.85020361,3.95575916 L4.85020361,2.90575916 L11.3737638,2.90575916 Z" id="形状结合" fill="#262626" fill-rule="nonzero"></path>
        </g>
    </g>
</svg>