<?xml version="1.0" encoding="UTF-8"?>
<svg width="16px" height="16px" viewBox="0 0 16 16" version="1.1" xmlns="http://www.w3.org/2000/svg" xmlns:xlink="http://www.w3.org/1999/xlink">
    <title>build history</title>
    <g id="build-history" stroke="none" stroke-width="1" fill="none" fill-rule="evenodd">
        <g id="build-history-second-menu-default">
            <rect id="矩形" fill="#000000" opacity="0" x="0" y="0" width="16" height="16"></rect>
            <path d="M9,1.4 C12.6450793,1.4 15.6,4.35492065 15.6,8 C15.6,11.6450793 12.6450793,14.6 9,14.6 C7.20048138,14.6 5.51459824,13.8755547 4.28121865,12.6144483 C4.04952285,12.3775439 4.05374526,11.9976684 4.29064966,11.7659726 C4.52755406,11.5342768 4.90742958,11.5384992 5.13912538,11.7754036 C6.148999,12.8079796 7.5267115,13.4 9,13.4 C11.9823376,13.4 14.4,10.9823376 14.4,8 C14.4,5.01766235 11.9823376,2.6 9,2.6 C6.28035352,2.6 4.03028756,4.61051323 3.65500594,7.22633589 L5.0642731,5.81784861 C5.27515622,5.60696549 5.60396271,5.58587718 5.8384305,5.75458368 L5.91280124,5.81784861 C6.14711582,6.05216319 6.14711582,6.43206217 5.91280124,6.66637675 L3.68783797,8.89134002 C3.4535234,9.12565459 3.07362441,9.12565459 2.83930983,8.89134002 L0.717989489,6.77001968 C0.483674914,6.5357051 0.483674914,6.15580611 0.717989489,5.92149154 C0.952304064,5.68717696 1.33220305,5.68717696 1.56651763,5.92149154 L2.49900346,6.85477726 C3.04120372,3.75557175 5.74551523,1.4 9,1.4 Z M9.60268973,5.66736114 L9.60268973,7.77836114 L11.5485314,9.97833479 L10.6496652,10.7733439 L8.55325662,8.40306819 C8.45624189,8.29337981 8.40268973,8.15199927 8.40268973,8.00556362 L8.40268973,5.66736114 L9.60268973,5.66736114 Z" id="形状" fill="#262626" fill-rule="nonzero"></path>
        </g>
    </g>
</svg>