<?xml version="1.0" encoding="UTF-8"?>
<svg width="16px" height="16px" viewBox="0 0 16 16" version="1.1" xmlns="http://www.w3.org/2000/svg" xmlns:xlink="http://www.w3.org/1999/xlink">
    <title>business flow-third-menu</title>
    <g id="business-flow-third-menu" stroke="none" stroke-width="1" fill="none" fill-rule="evenodd">
        <rect id="矩形备份" fill-opacity="0" fill="#F0F0F0" x="0" y="0" width="16" height="16"></rect>
        <rect id="矩形备份-2" x="0" y="0" width="16" height="16"></rect>
        <rect id="矩形备份-3" fill="#262626" x="4.5" y="1" width="7" height="7" rx="1"></rect>
        <path d="M3.625,11.5 C4.10824916,11.5 4.5,11.8917508 4.5,12.375 L4.5,14.125 C4.5,14.6082492 4.10824916,15 3.625,15 L1.875,15 C1.39175084,15 1,14.6082492 1,14.125 L1,12.375 C1,11.8917508 1.39175084,11.5 1.875,11.5 L3.625,11.5 Z M8.525,8 L8.525,9.091 L12.375,9.09120175 C13.1481986,9.09120175 13.775,9.7180031 13.775,10.4912018 L13.775,11.5 L12.725,11.5 L12.725,10.4912018 C12.725,10.2979021 12.5682997,10.1412018 12.375,10.1412018 L8.525,10.141 L8.525,11.5 L8.875,11.5 C9.35824916,11.5 9.75,11.8917508 9.75,12.375 L9.75,14.125 C9.75,14.6082492 9.35824916,15 8.875,15 L7.125,15 C6.64175084,15 6.25,14.6082492 6.25,14.125 L6.25,12.375 C6.25,11.8917508 6.64175084,11.5 7.125,11.5 L7.475,11.5 L7.475,10.141 L3.625,10.1412018 C3.43170034,10.1412018 3.275,10.2979021 3.275,10.4912018 L3.275,11.5 L2.225,11.5 L2.225,10.4912018 C2.225,9.7180031 2.85180135,9.09120175 3.625,9.09120175 L7.475,9.091 L7.475,8 L8.525,8 Z M14.125,11.5 C14.6082492,11.5 15,11.8917508 15,12.375 L15,14.125 C15,14.6082492 14.6082492,15 14.125,15 L12.375,15 C11.8917508,15 11.5,14.6082492 11.5,14.125 L11.5,12.375 C11.5,11.8917508 11.8917508,11.5 12.375,11.5 L14.125,11.5 Z M3.45,12.55 L2.05,12.55 L2.05,13.95 L3.45,13.95 L3.45,12.55 Z M8.7,12.55 L7.3,12.55 L7.3,13.95 L8.7,13.95 L8.7,12.55 Z M13.95,12.55 L12.55,12.55 L12.55,13.95 L13.95,13.95 L13.95,12.55 Z" id="形状结合备份" stroke="#262626" stroke-width="0.2" fill="#262626"></path>
    </g>
</svg>