<?xml version="1.0" encoding="UTF-8"?>
<svg width="16px" height="16px" viewBox="0 0 16 16" version="1.1" xmlns="http://www.w3.org/2000/svg" xmlns:xlink="http://www.w3.org/1999/xlink">
    <title>cabinet-third-menu</title>
    <g id="cabinet-third-menu" stroke="none" stroke-width="1" fill="none" fill-rule="evenodd">
        <rect id="矩形" fill-opacity="0" fill="#F0F0F0" x="0" y="0" width="16" height="16"></rect>
        <g id="服务名" transform="translate(1.000000, 1.000000)">
            <rect id="矩形" fill-opacity="0" fill="#D8D8D8" x="0" y="0" width="14" height="14"></rect>
            <path d="M11.5625,0 C12.1147847,0 12.5625,0.44771525 12.5625,1 L12.5625,13 C12.5625,13.5522847 12.1147847,14 11.5625,14 L2.4375,14 C1.88521525,14 1.4375,13.5522847 1.4375,13 L1.4375,1 C1.4375,0.44771525 1.88521525,0 2.4375,0 L11.5625,0 Z M11.3625,9.8 L2.6375,9.8 L2.6375,12.8 L11.3625,12.8 L11.3625,9.8 Z M8.0277193,10.51 L8.0277193,11.51 L5.94,11.51 L5.94,10.51 L8.0277193,10.51 Z M11.3625,5.399 L2.6375,5.399 L2.6375,8.6 L11.3625,8.6 L11.3625,5.399 Z M8.0277193,6 L8.0277193,7 L5.94,7 L5.94,6 L8.0277193,6 Z M11.3625,1.2 L2.6375,1.2 L2.6375,4.199 L11.3625,4.199 L11.3625,1.2 Z M8.0277193,2 L8.0277193,3 L5.94,3 L5.94,2 L8.0277193,2 Z" id="形状结合" fill="#262626" fill-rule="nonzero"></path>
        </g>
    </g>
</svg>