<?xml version="1.0" encoding="UTF-8"?>
<svg width="16px" height="16px" viewBox="0 0 16 16" version="1.1" xmlns="http://www.w3.org/2000/svg" xmlns:xlink="http://www.w3.org/1999/xlink">
    <title>cabinet-list-third-menu</title>
    <g id="cabinet-list-third-menu" stroke="none" stroke-width="1" fill="none" fill-rule="evenodd">
        <rect id="矩形" fill-opacity="0" fill="#F0F0F0" x="0" y="0" width="16" height="16"></rect>
        <g id="机柜" transform="translate(0.700000, 0.614118)">
            <rect id="矩形备份-3" x="0.8" y="0.385882353" width="13.1764706" height="13.1764706"></rect>
            <path d="M11.4608142,8.28588235 C13.2050798,8.28588235 14.6193397,9.70014224 14.6193397,11.4444079 C14.6193397,13.1886735 13.2050798,14.6029334 11.4608142,14.6029334 C9.71654858,14.6029334 8.30228869,13.1886735 8.30228869,11.4444079 C8.30228869,9.70014224 9.71654858,8.28588235 11.4608142,8.28588235 Z M9.6,0 C10.4836556,0 11.2,0.7163444 11.2,1.6 L11.2008555,7.46662359 C10.7775156,7.50971056 10.3737012,7.61881364 9.99987079,7.78347431 L10,5.217 L1.2,5.217 L1.2,8.785 L8.62418552,8.78487268 C8.3118522,9.13516571 8.06022584,9.54076099 7.8858239,9.98514108 L1.2,9.985 L1.2,12.6 C1.2,12.8209139 1.3790861,13 1.6,13 L7.92409763,13.0005993 C8.11304008,13.4480802 8.38107617,13.8540071 8.71068795,14.2008619 L1.6,14.2 C0.7163444,14.2 0,13.4836556 0,12.6 L0,1.6 C0,0.7163444 0.7163444,0 1.6,0 L9.6,0 Z M11.4608142,9.28588235 C10.2688333,9.28588235 9.30228869,10.252427 9.30228869,11.4444079 C9.30228869,12.6363887 10.2688333,13.6029334 11.4608142,13.6029334 C12.652795,13.6029334 13.6193397,12.6363887 13.6193397,11.4444079 C13.6193397,10.252427 12.652795,9.28588235 11.4608142,9.28588235 Z M11.6065015,11.6858824 L11.6065015,12.6858824 L10.2065015,12.6858824 L10.2065015,11.6858824 L11.6065015,11.6858824 Z M12.7065015,10.1858824 L12.7065015,11.1858824 L10.2065015,11.1858824 L10.2065015,10.1858824 L12.7065015,10.1858824 Z M9.6,1.2 L1.6,1.2 C1.3790861,1.2 1.2,1.3790861 1.2,1.6 L1.2,4.017 L10,4.017 L10,1.6 C10,1.3790861 9.8209139,1.2 9.6,1.2 Z" id="形状结合" fill="#262626" fill-rule="nonzero"></path>
        </g>
    </g>
</svg>