<?xml version="1.0" encoding="UTF-8"?>
<svg width="16px" height="16px" viewBox="0 0 16 16" version="1.1" xmlns="http://www.w3.org/2000/svg" xmlns:xlink="http://www.w3.org/1999/xlink">
    <title>cache-service-drm-third-menu</title>
    <g id="cache-service-drm-third-menu" stroke="none" stroke-width="1" fill="none" fill-rule="evenodd">
        <rect id="矩形" fill-opacity="0" fill="#F0F0F0" x="0" y="0" width="16" height="16"></rect>
        <g id="编组-2">
            <rect id="矩形" x="0" y="0" width="16" height="16"></rect>
            <path d="M8,1 C11.8659932,1 15,4.13400675 15,8 C15,9.76908755 14.3437393,11.3848972 13.261384,12.6172629 L12.7283695,11.6940096 C13.5251119,10.6756116 14,9.3932638 14,8 C14,4.6862915 11.3137085,2 8,2 C4.6862915,2 2,4.6862915 2,8 C2,11.3137085 4.6862915,14 8,14 C8.64547515,14 9.26714428,13.8980743 9.84979052,13.7094399 L10.3596626,14.592321 C9.62241726,14.8562409 8.827997,15 8,15 C4.13400675,15 1,11.8659932 1,8 C1,4.13400675 4.13400675,1 8,1 Z M8.70125,4.52520168 L8.70074171,9.67720168 L11.1551326,7.40044351 L11.8355484,8.13326975 L8.50013291,11.2301424 L8.19628817,11.5122567 L8.01544963,11.6656614 L7.83210351,11.5095655 L7.50312573,11.2041156 L4.19574171,8.13326975 L4.87615754,7.40044351 L7.32574171,9.67420168 L7.32625,4.52520168 L8.70125,4.52520168 Z" id="形状结合" fill="#262626" fill-rule="nonzero"></path>
        </g>
    </g>
</svg>