<?xml version="1.0" encoding="UTF-8"?>
<svg width="16px" height="16px" viewBox="0 0 16 16" version="1.1" xmlns="http://www.w3.org/2000/svg" xmlns:xlink="http://www.w3.org/1999/xlink">
    <title>call relationship-third menu</title>
    <g id="call-relationship-third-menu" stroke="none" stroke-width="1" fill="none" fill-rule="evenodd">
        <g id="资源拓扑" transform="translate(0.000017, 0.000017)">
            <rect id="矩形" fill="#D8D8D8" opacity="0" x="0" y="0" width="16" height="16"></rect>
            <g id="架构拓扑" transform="translate(1.000228, 1.875404)" fill="#262626" fill-rule="nonzero">
                <path d="M10.7750284,7.12501531 C10.7750284,6.90410141 10.5959423,6.72501531 10.3750284,6.72501531 L3.62500656,6.72501531 C3.40409266,6.72501531 3.22500656,6.90410141 3.22500656,7.12501531 L3.22500656,7.87501969 L3.37501094,7.87501969 C3.92729569,7.87501969 4.37501094,8.32273494 4.37501094,8.87501969 L4.37501094,11.2500306 C4.37501094,11.8023154 3.92729569,12.2500306 3.37501094,12.2500306 L1,12.2500306 C0.44771525,12.2500306 0,11.8023154 0,11.2500306 L0,8.87501969 C0,8.32273494 0.44771525,7.87501969 1,7.87501969 L2.02500656,7.87501969 L2.02500656,7.12501531 C2.02500656,6.24135971 2.74135096,5.52501531 3.62500656,5.52501531 L6.4,5.525 L6.4000175,4.37745812 L7.6000175,4.37745812 L7.6,5.525 L10.3750284,5.52501531 C11.258684,5.52501531 11.9750284,6.24135971 11.9750284,7.12501531 L11.9750284,7.87501969 L13.000035,7.87501969 C13.5523197,7.87501969 14.000035,8.32273494 14.000035,8.87501969 L14.000035,11.2500306 C14.000035,11.8023154 13.5523197,12.2500306 13.000035,12.2500306 L10.6250241,12.2500306 C10.0727393,12.2500306 9.62502406,11.8023154 9.62502406,11.2500306 L9.62502406,8.87501969 C9.62502406,8.32273494 10.0727393,7.87501969 10.6250241,7.87501969 L10.7750284,7.87501969 L10.7750284,7.12501531 Z M3.175,9.07501969 L1.2,9.07501969 L1.2,11.0500197 L3.175,11.0500197 L3.175,9.07501969 Z M12.8000241,9.07501969 L10.8250241,9.07501969 L10.8250241,11.0500197 L12.8000241,11.0500197 L12.8000241,9.07501969 Z M8.18727797,0 C8.73956272,0 9.18727797,0.44771525 9.18727797,1 L9.18727797,3.37501094 C9.18727797,3.92729569 8.73956272,4.37501094 8.18727797,4.37501094 L5.81226703,4.37501094 C5.25998228,4.37501094 4.81226703,3.92729569 4.81226703,3.37501094 L4.81226703,1 C4.81226703,0.44771525 5.25998228,0 5.81226703,0 L8.18727797,0 Z M7.98726703,1.2 L6.01226703,1.2 L6.01226703,3.175 L7.98726703,3.175 L7.98726703,1.2 Z" id="形状结合"></path>
            </g>
        </g>
    </g>
</svg>