<?xml version="1.0" encoding="UTF-8"?>
<svg width="16px" height="16px" viewBox="0 0 16 16" version="1.1" xmlns="http://www.w3.org/2000/svg" xmlns:xlink="http://www.w3.org/1999/xlink">
    <title>capacity-management-third-menu</title>
    <g id="capacity-management-third-menu" stroke="none" stroke-width="1" fill="none" fill-rule="evenodd">
        <rect id="矩形" fill-opacity="0" fill="#F0F0F0" x="1" y="1" width="14" height="14"></rect>
        <g id="图形" transform="translate(2.000000, 1.000000)" stroke="#262626">
            <path d="M12.4994,6.29585498 C12.4994,7.40023227 12.4994,9.05679819 12.4994,11.2655528 C12.4909113,11.79216 12.0395579,12.4661111 10.8637,13.05405 C9.7216,13.6251 8.09137,14 6.24969,14 C4.40801,14 2.77776,13.6251 1.63567,13.05405 C0.44865,12.46054 0,11.77938 0,11.25 C0,11.2414775 0,11.2329156 0.000350052321,11.2243154 L0,2.75" id="路径" stroke-linecap="round"></path>
            <path d="M6.24969,0 C4.40801,0 2.77776,0.3749 1.63567,0.94595 C0.44865,1.53946 0,2.22062 0,2.75 C0,3.27938 0.44865,3.96054 1.63567,4.55405 C2.77776,5.1251 4.40801,5.5 6.24969,5.5 C8.09137,5.5 9.7216,5.1251 10.8637,4.55405 C12.0507,3.96054 12.4994,3.27938 12.4994,2.75 C12.4994,2.22062 12.0507,1.53946 10.8637,0.94595 C9.7216,0.3749 8.09137,0 6.24969,0 Z" id="路径"></path>
            <path d="M0,7.25 C0,7.77938 0.44865,8.46054 1.63567,9.05405 C2.77776,9.6251 4.40801,10 6.24969,10 C8.09137,10 9.7216,9.6251 10.8637,9.05405 C12.0507,8.46054 12.4994,7.77938 12.4994,7.25" id="路径"></path>
        </g>
        <path d="M9.43587693,2 C9.58083888,2 9.71845389,2.04599807 9.7973594,2.12066718 L11.171963,3.34234465 C11.2610894,3.41701376 11.2750777,3.5090099 11.2077072,3.58367901 L10.0218303,4.80535648 C9.94423883,4.88002559 9.79263553,4.92602366 9.62460358,4.92602366 L6.87539642,4.92602366 C6.70736447,4.92602366 6.55576117,4.88002559 6.47816972,4.80535648 L5.29229279,3.58367901 C5.22492228,3.5090099 5.23891058,3.41701376 5.32803703,3.34234465 L6.7026406,2.12066718 C6.78154611,2.04599807 6.91916112,2 7.06412307,2 L9.43587693,2 Z M8.28071261,2.99767013 C7.80820935,2.99767013 7.41597412,3.21376828 7.40463071,3.48033886 C7.3932873,3.74690944 7.78620733,3.96300759 8.28224215,3.96300759 C8.77827698,3.96300759 9.1705122,3.74690944 9.15832404,3.48033886 C9.14613589,3.21376828 8.75321586,2.99767013 8.28071261,2.99767013 Z" id="形状" fill="#262626"></path>
    </g>
</svg>