<?xml version="1.0" encoding="UTF-8"?>
<svg width="16px" height="16px" viewBox="0 0 16 16" version="1.1" xmlns="http://www.w3.org/2000/svg" xmlns:xlink="http://www.w3.org/1999/xlink">
    <title>carbon-third-menu</title>
    <g id="carbon-third-menu" stroke="none" stroke-width="1" fill="none" fill-rule="evenodd">
        <g id="编组">
            <rect id="矩形" x="0" y="0" width="16" height="16"></rect>
            <path d="M7.43779528,2.9 C8.41945969,2.9 9.34129235,3.28864466 10.0340678,3.99359698 C10.6801583,4.64918877 11.0543529,5.50579579 11.1032112,6.42324603 C11.1128791,6.6047874 11.1096275,6.78531285 11.0938492,6.96355088 C11.2707298,6.95626352 11.4487784,6.96384272 11.6264068,6.98651148 C12.3218102,7.0752582 12.9653647,7.38948343 13.4681818,7.89229998 C14.0684388,8.49388206 14.4,9.29017113 14.4,10.1409449 C14.4,10.9915354 14.0688481,11.7904978 13.4691173,12.3902291 C12.8674685,12.9905527 12.0684129,13.3220472 11.2188976,13.3220472 L4.78110236,13.3220472 C3.93051189,13.3220472 3.13154945,12.9908953 2.53181819,12.3911646 C1.93149456,11.7895157 1.6,10.9904601 1.6,10.1409449 C1.6,9.47224434 1.80493458,8.83121414 2.19463944,8.28907315 C2.51402729,7.84378553 2.93535905,7.49377151 3.42440704,7.26316351 C3.7671413,5.64224416 4.14646452,4.70092181 4.84211745,3.99299266 C5.5342982,3.28864466 6.45613086,2.9 7.43779528,2.9 Z" id="形状" stroke="#262626" stroke-width="1.2" fill-rule="nonzero"></path>
            <path d="M6.43779528,10.5125984 C6.25826772,10.707874 6.0519685,10.8070866 5.82677165,10.8070866 C5.36535433,10.8070866 5.09133858,10.4244094 5.09133858,9.78346457 C5.09133858,9.18976378 5.3984252,8.77401575 5.83622047,8.77401575 C6.03307087,8.77401575 6.19527559,8.8480315 6.39527559,9.02755906 L6.45669291,9.08267717 L6.99055118,8.42755906 L6.94173228,8.37716535 C6.76535433,8.1976378 6.38582677,7.89685039 5.82204724,7.89685039 C5.3496063,7.89685039 4.91496063,8.07637795 4.59685039,8.4007874 C4.25354331,8.7503937 4.07244094,9.23858268 4.07244094,9.81181102 C4.07244094,10.3913386 4.2488189,10.8748031 4.58267717,11.211811 C4.88818898,11.5204724 5.31968504,11.6889764 5.79370079,11.6889764 C6.27401575,11.6889764 6.68976378,11.5 6.99685039,11.1440945 L7.04094488,11.0937008 L6.4976378,10.4464567 L6.43779528,10.5125984 L6.43779528,10.5125984 Z" id="路径" fill="#262626"></path>
            <path d="M8.69448819,7.8984252 C8.19527559,7.8984252 7.77322835,8.06850394 7.47559055,8.39291339 C7.17165354,8.72362205 7.01102362,9.2023622 7.01102362,9.77559055 C7.01102362,10.9393701 7.67244094,11.6905512 8.69448819,11.6905512 C9.71811024,11.6905512 10.3779528,10.9393701 10.3779528,9.77559055 C10.3779528,9.2023622 10.2173228,8.72519685 9.91338583,8.39448819 C9.61574803,8.07007874 9.19370079,7.8984252 8.69448819,7.8984252 L8.69448819,7.8984252 Z M8.69448819,10.8086614 C8.28346457,10.8086614 8.02992126,10.4133858 8.02992126,9.77559055 C8.02992126,9.1503937 8.27874016,8.77559055 8.69448819,8.77559055 C9.11338583,8.77559055 9.36378673,9.1488189 9.36378673,9.77559055 C9.36535433,10.411811 9.10866142,10.8086614 8.69448819,10.8086614 Z M11.4503937,11.1173228 C11.6661417,10.8779528 11.8582677,10.6149606 11.8582677,10.3551181 C11.8582677,9.98503937 11.5889764,9.72519685 11.2047244,9.72519685 C10.9496063,9.72519685 10.7653543,9.81023622 10.5669291,10.019685 L10.5133858,10.076378 L10.8519685,10.411811 L10.9070866,10.3566929 C10.9874016,10.276378 11.0614173,10.2102362 11.1480315,10.2102362 C11.2125984,10.2102362 11.2976378,10.2275591 11.2976378,10.3787402 C11.2976378,10.588189 10.9700787,10.8952756 10.5905512,11.2480315 L10.5653543,11.2716535 L10.5653543,11.6244094 L11.9370079,11.6244094 L11.9370079,11.1141732 L11.5354331,11.1141732 C11.5102362,11.1141732 11.480315,11.115748 11.4503937,11.1173228 Z" id="形状" fill="#262626" fill-rule="nonzero"></path>
        </g>
    </g>
</svg>