<?xml version="1.0" encoding="UTF-8"?>
<svg width="16px" height="16px" viewBox="0 0 16 16" version="1.1" xmlns="http://www.w3.org/2000/svg" xmlns:xlink="http://www.w3.org/1999/xlink">
    <title>Ceph-third menu</title>
    <g id="Ceph-third-menu" stroke="none" stroke-width="1" fill="none" fill-rule="evenodd">
        <g id="CEPH">
            <rect id="矩形" fill-opacity="0" fill="#D8D8D8" x="0" y="0" width="16" height="16"></rect>
            <g id="图形" transform="translate(0.999988, 1.262489)" fill-rule="nonzero" stroke="#262626">
                <path d="M6.97657727,3.32165322 C7.19104857,3.3213159 7.36517516,3.33294659 7.53561978,3.35687437 C8.03839084,3.429713 8.52072602,3.60550383 8.95071511,3.87216567 C9.36222168,4.12971943 9.71902448,4.4657329 10.0000244,4.85998069 C10.2870597,5.26495628 10.4931681,5.73527203 10.5953908,6.21940913 C10.7063163,6.74701651 10.69922,7.30164545 10.575849,7.82350072 C10.4618199,8.29932591 10.2489307,8.7585396 9.95727523,9.14961578 C9.03273885,10.2365198 8.87103569,10.7693824 8.87103569,11.3188858 C8.87103569,11.7750331 8.99717715,12.2126286 9.22298937,12.5901475 C8.89314754,13.1060194 8.76181406,12.9624651 8.62444569,12.7716331 C8.41096942,12.476769 8.15846656,11.9871928 8.17183012,11.3296558 C8.17938532,10.9170904 8.263658,10.5095344 8.42059365,10.1271951 C8.57572391,9.7478311 8.79881363,9.39968572 9.08366217,9.09227492 C9.31563322,8.82616272 9.45564854,8.65762629 9.57112309,8.46150258 C9.72163295,8.20544035 9.83215969,7.93539292 9.89513095,7.66615096 C10.000545,7.24059044 10.0065735,6.78964188 9.91496233,6.36277517 C9.8309421,5.96864071 9.66787607,5.59563542 9.43438469,5.26456052 C9.20911276,4.94801463 8.91589239,4.6722245 8.58684262,4.46705426 C8.2417804,4.25065931 7.84604779,4.10633749 7.44054257,4.04980071 C6.1061475,4.0994727 5.74046471,4.26181616 5.41428702,4.46637023 C5.08414337,4.6722245 4.790923,4.94801462 4.56480524,5.26575274 C4.33200715,5.59490697 4.16832102,5.96782093 4.08263257,6.36672677 C3.99506845,6.7943903 4.00167926,7.23599218 4.10177762,7.65987334 C4.16647368,7.93630195 4.2757914,8.20706559 4.42748566,8.46182236 C4.54499861,8.66140785 4.68856786,8.83262271 4.83042194,8.9968748 C5.19294435,9.39202894 5.42077392,9.743129 5.57769186,10.1268644 C5.73466546,10.5115204 5.81265683,10.9204019 5.82660994,11.3306615 C5.83995407,11.9871928 5.5874512,12.476769 5.37400495,12.7715916 C4.84345996,13.0696909 4.66869574,13.0070732 4.51615939,12.9474936 C5.00124348,12.2126286 5.12738494,11.7750331 5.12738494,11.3188858 C5.12738494,10.7245754 4.90542483,10.1491023 4.44878676,9.61788461 C3.77126414,8.78444898 3.53885852,8.31548685 3.42131065,7.82498847 C3.29758553,7.30164545 3.29048916,6.7470165 3.40111164,6.22084021 C3.50552166,5.73134043 3.70831321,5.26816259 3.99601672,4.86105617 C4.277781,4.46573291 4.6345838,4.12971943 5.04467977,3.87304528 C5.47241223,3.60731116 5.96120306,3.42809839 6.45202737,3.35811487 C6.62372946,3.33647174 6.79974411,3.32165384 6.97657727,3.32165322 Z M6.97662611,0.500010012 C7.88818213,0.498487261 8.74631493,0.671076285 9.54457574,1.00888968 C10.3138817,1.33414995 11.0129042,1.80534096 11.6035241,2.3969314 C12.1943685,2.98707074 12.6652963,3.68608037 12.9905375,4.45593322 C13.3293164,5.25491173 13.5000119,6.10338405 13.5000119,6.97578853 C13.5000119,7.47535711 13.4430528,7.973433 13.3305696,8.45636088 C13.2211678,8.9254398 13.0577519,9.38250459 12.8464289,9.81564192 C12.5040789,10.5174593 11.9741608,11.2163682 11.3661467,11.7797872 C11.0303962,11.2117935 11.1783049,11.0063084 11.3840859,10.7671679 C12.2965634,9.72029451 12.8008901,8.37288153 12.8008901,6.97578853 C12.8008901,5.38354212 12.153091,3.93923934 11.1069425,2.8930909 C10.0607941,1.84694246 8.61649131,1.19914332 7.0242449,1.19914332 C5.37958137,1.19914332 3.93761144,1.84796698 2.89288531,2.89269311 C1.84671186,3.93886656 1.19914565,5.38332612 1.19914565,6.97578853 C1.19914565,8.37286161 1.70177016,9.72021718 2.61472713,10.7673749 C2.8218756,11.0068309 2.96942979,11.2010004 2.93083713,11.4023638 C2.02427286,11.2126845 1.49535146,10.5149036 1.15352781,9.81547991 C0.941797689,9.38183001 0.779393881,8.92579208 0.6693989,8.45607274 C0.556465371,7.97314314 0.500011864,7.47520808 0.500011009,6.97486389 C0.498410605,6.1094402 0.671312185,5.25257602 1.00835912,4.45557197 C1.33385537,3.68624031 1.8052122,2.98719847 2.39736699,2.39607496 C2.98671647,1.80457172 3.68559669,1.33347656 4.45556934,1.00884343 C5.25466397,0.670764931 6.10175713,0.50001071 6.97662611,0.500010012 Z M7.00163301,6.16591425 C7.24327888,6.16591425 7.4622131,6.26426612 7.62079452,6.42284754 C7.77937595,6.58142897 7.87772782,6.80036318 7.87772782,7.04200905 C7.87772782,7.28433198 7.77944789,7.50374413 7.62076516,7.66261312 C7.46221127,7.8213531 7.24327799,7.91971899 7.00163301,7.91971899 C6.75967802,7.91971899 6.54023711,7.82115714 6.38126624,7.66218627 C6.22248183,7.50340187 6.12392307,7.28418334 6.12392307,7.04200905 C6.12392307,6.80051136 6.22255415,6.58177087 6.381237,6.42327405 C6.54023542,6.26446203 6.75967718,6.16591425 7.00163301,6.16591425 Z" id="形状结合"></path>
            </g>
        </g>
    </g>
</svg>