<?xml version="1.0" encoding="UTF-8"?>
<svg width="16px" height="16px" viewBox="0 0 16 16" version="1.1" xmlns="http://www.w3.org/2000/svg" xmlns:xlink="http://www.w3.org/1999/xlink">
    <title>change history-third menu</title>
    <g id="change-history-third-menu" stroke="none" stroke-width="1" fill="none" fill-rule="evenodd">
        <g id="变更历史">
            <rect id="矩形" fill="#FFFFFF" opacity="0" x="0" y="0" width="16" height="16"></rect>
            <g id="图形" transform="translate(1.000000, 1.105859)">
                <path d="M5.00586463,11.7009456 L0.6,11.7 C0.26862915,11.7 4.05812251e-17,11.4313708 0,11.1 C-4.05812251e-17,10.7686292 0.26862915,10.5 0.6,10.5 L4.55008129,10.5007219 C4.6570655,10.9214881 4.81095826,11.3235276 5.00586463,11.7009456 Z M4.44497819,8.20011808 L0.6,8.2 C0.26862915,8.2 4.05812251e-17,7.93137085 0,7.6 C-4.05812251e-17,7.26862915 0.26862915,7 0.6,7 L4.77311416,7.0002778 C4.62193899,7.38171288 4.51082965,7.78339032 4.44497819,8.20011808 Z M6.45303873,4.69927102 L0.6,4.7 C0.26862915,4.7 4.05812251e-17,4.43137085 0,4.1 C-4.05812251e-17,3.76862915 0.26862915,3.5 0.6,3.5 L9.03972185,3.49908668 C8.06934957,3.67529401 7.18476779,4.09770953 6.45303873,4.69927102 Z M11.65,0 C11.9813708,3.83217372e-16 12.25,0.26862915 12.25,0.6 C12.25,0.93137085 11.9813708,1.2 11.65,1.2 L0.6,1.2 C0.26862915,1.2 4.05812251e-17,0.93137085 0,0.6 C-4.05812251e-17,0.26862915 0.26862915,1.7189414e-16 0.6,0 L11.65,0 Z" id="形状结合" fill="#262626"></path>
                <circle id="椭圆形备份" stroke="#262626" cx="10.0625" cy="9.1875" r="3.9375"></circle>
                <polygon id="路径" fill="#262626" points="9.1875 7.6 9.625 7.60737305 10.0625 7.60737305 10.0625 9.35737305 11.8125 9.35737305 11.8125 9.79487305 11.8125 10.232373 9.1875 10.232373"></polygon>
            </g>
        </g>
    </g>
</svg>