<?xml version="1.0" encoding="UTF-8"?>
<svg width="16px" height="16px" viewBox="0 0 16 16" version="1.1" xmlns="http://www.w3.org/2000/svg" xmlns:xlink="http://www.w3.org/1999/xlink">
    <title>chaos-library-third-menu</title>
    <g id="chaos-library-third-menu" stroke="none" stroke-width="1" fill="none" fill-rule="evenodd">
        <path d="M8.00083321,4.738536 C8.4495291,4.738536 8.81716269,5.09479658 8.83125862,5.543271 L8.83125862,9.52621524 C8.83125862,9.98507301 8.45928088,10.3570507 8.00042312,10.3570507 C7.54156536,10.3570507 7.16958762,9.98507301 7.16958762,9.52621524 L7.16958762,5.543271 C7.18450372,5.09479658 7.55213732,4.738536 8.00083321,4.738536 Z" id="路径" fill="#262626" fill-rule="nonzero"></path>
        <path d="M12.9223545,14.2 L12.9223545,14.2 L10.0216131,14.2 L2.02581,14.2 C1.74966762,14.2 1.52581,13.9761424 1.52581,13.7 C1.52581,13.619286 1.54535016,13.5397718 1.58276089,13.4682512 L7.55695089,2.04700564 C7.6849422,1.80231638 7.9870595,1.70771399 8.23174876,1.8357053 C8.32207475,1.88295274 8.39580167,1.95667966 8.44304911,2.04700564 L13.0112212,10.7802759 L13.0112212,10.7802759" id="路径" stroke="#262626" stroke-width="1.2" stroke-linecap="round"></path>
        <path d="M7.99960295,12.7175095 C7.50088388,12.7175095 7.0965922,12.3132178 7.0965922,11.8144987 C7.0965922,11.3157797 7.50088388,10.911488 7.99960295,10.911488 C8.49832201,10.911488 8.9026137,11.3157797 8.9026137,11.8144987 C8.9026137,12.3132178 8.49832201,12.7175095 7.99960295,12.7175095 Z" id="路径" fill="#262626" fill-rule="nonzero"></path>
    </g>
</svg>