<?xml version="1.0" encoding="UTF-8"?>
<svg width="16px" height="16px" viewBox="0 0 16 16" version="1.1" xmlns="http://www.w3.org/2000/svg" xmlns:xlink="http://www.w3.org/1999/xlink">
    <title>child-app-system-third-menu</title>
    <g id="child-app-system-third-menu" stroke="none" stroke-width="1" fill="none" fill-rule="evenodd">
        <g id="子系统备份">
            <rect id="矩形备份-10" x="0" y="0" width="16" height="16"></rect>
            <g id="编组" transform="translate(1.000000, 1.000000)" fill="#262626">
                <path d="M2.5,10.5 C3.05228475,10.5 3.5,10.9477153 3.5,11.5 L3.5,13 C3.5,13.5522847 3.05228475,14 2.5,14 L1,14 C0.44771525,14 6.76353751e-17,13.5522847 0,13 L0,11.5 C-6.76353751e-17,10.9477153 0.44771525,10.5 1,10.5 L2.5,10.5 Z M9.625,0 C10.1082492,0 10.5,0.391750844 10.5,0.875 L10.5,6.125 C10.5,6.60824916 10.1082492,7 9.625,7 L7.525,7 L7.525,8.091 L11.375,8.09120175 C12.1481986,8.09120175 12.775,8.7180031 12.775,9.49120175 L12.775,10.5 L11.725,10.5 L11.725,9.49120175 C11.725,9.29790209 11.5682997,9.14120175 11.375,9.14120175 L7.525,9.141 L7.525,10.5 L7.75,10.5 C8.30228475,10.5 8.75,10.9477153 8.75,11.5 L8.75,13 C8.75,13.5522847 8.30228475,14 7.75,14 L6.25,14 C5.69771525,14 5.25,13.5522847 5.25,13 L5.25,11.5 C5.25,10.9477153 5.69771525,10.5 6.25,10.5 L6.475,10.5 L6.475,9.141 L2.625,9.14120175 C2.43170034,9.14120175 2.275,9.29790209 2.275,9.49120175 L2.275,10.5 L1.225,10.5 L1.225,9.49120175 C1.225,8.7180031 1.85180135,8.09120175 2.625,8.09120175 L6.475,8.091 L6.475,7 L4.375,7 C3.89175084,7 3.5,6.60824916 3.5,6.125 L3.5,0.875 C3.5,0.391750844 3.89175084,0 4.375,0 L9.625,0 Z M13,10.5 C13.5522847,10.5 14,10.9477153 14,11.5 L14,13 C14,13.5522847 13.5522847,14 13,14 L11.5,14 C10.9477153,14 10.5,13.5522847 10.5,13 L10.5,11.5 C10.5,10.9477153 10.9477153,10.5 11.5,10.5 L13,10.5 Z M9.45,1.05 L4.55,1.05 L4.55,5.95 L9.45,5.95 L9.45,1.05 Z" id="形状结合"></path>
            </g>
        </g>
    </g>
</svg>