<?xml version="1.0" encoding="UTF-8"?>
<svg width="16px" height="16px" viewBox="0 0 16 16" version="1.1" xmlns="http://www.w3.org/2000/svg" xmlns:xlink="http://www.w3.org/1999/xlink">
    <title>cluster-third menu</title>
    <g id="cluster-third-menu" stroke="none" stroke-width="1" fill="none" fill-rule="evenodd">
        <g id="cluster">
            <rect id="矩形" x="0" y="0" width="16" height="16"></rect>
            <path d="M11.8663992,8.08038476 L14.4644754,9.58038476 C14.751451,9.74607018 14.8497761,10.1130244 14.6840907,10.4 C14.6001555,10.5453799 14.4645674,10.6423452 14.3138914,10.6810982 L12.146323,12.045 L12.146323,13.572 L13.8644754,12.5803848 C14.1227534,12.4312679 14.4458142,12.4959995 14.6286282,12.7196422 L14.6840907,12.8 C14.8497761,13.0869756 14.751451,13.4539298 14.4644754,13.6196152 L11.8663992,15.1196152 C11.6807586,15.2267949 11.4520399,15.2267949 11.2663992,15.1196152 L8.668323,13.6196152 C8.48268235,13.5124356 8.368323,13.3143594 8.368323,13.1 L8.368323,10.1 C8.368323,9.88564065 8.48268235,9.68756443 8.668323,9.58038476 L11.2663992,8.08038476 C11.4520399,7.97320508 11.6807586,7.97320508 11.8663992,8.08038476 Z M4.70000021,8.08038476 L7.29807642,9.58038476 C7.48371707,9.68756443 7.59807642,9.88564065 7.59807642,10.1 L7.59807642,13.1 C7.59807642,13.3143594 7.48371707,13.5124356 7.29807642,13.6196152 L4.70000021,15.1196152 C4.51435957,15.2267949 4.28564086,15.2267949 4.10000021,15.1196152 L1.501924,13.6196152 C1.31628335,13.5124356 1.201924,13.3143594 1.201924,13.1 L1.201924,10.1 C1.201924,9.88564065 1.31628335,9.68756443 1.501924,9.58038476 L4.10000021,8.08038476 C4.28564086,7.97320508 4.51435957,7.97320508 4.70000021,8.08038476 Z M6.397924,11.206 L4.979924,12.059 L4.979924,13.572 L6.39800021,12.753 L6.397924,11.206 Z M9.568323,11.299 L9.568323,12.753 L10.946323,13.549 L10.9458992,12.0645 L9.58805675,11.3122958 L9.568323,11.299 Z M2.400924,11.299 L2.40100021,12.753 L3.779924,13.549 L3.77950021,12.0645 L2.42165775,11.3122958 L2.400924,11.299 Z M4.40000021,9.292 L2.82867798,10.1986905 C2.8883683,10.2104821 2.94726556,10.2316262 3.00334267,10.2627042 L4.526924,11.106 L6.003924,10.218 L4.40000021,9.292 Z M11.566323,9.292 L9.99708871,10.1990915 C10.0560905,10.2109585 10.1142946,10.2319754 10.1697417,10.2627042 L11.679323,11.099 L13.122323,10.19 L11.566323,9.292 Z M8.3,1.48038476 L10.8980762,2.98038476 C11.0837169,3.08756443 11.1980762,3.28564065 11.1980762,3.5 L11.1980762,6.5 C11.1980762,6.71435935 11.0837169,6.91243557 10.8980762,7.01961524 L8.3,8.51961524 C8.11435935,8.62679492 7.88564065,8.62679492 7.7,8.51961524 L5.10192379,7.01961524 C4.91628314,6.91243557 4.80192379,6.71435935 4.80192379,6.5 L4.80192379,3.5 C4.80192379,3.28564065 4.91628314,3.08756443 5.10192379,2.98038476 L7.7,1.48038476 C7.88564065,1.37320508 8.11435935,1.37320508 8.3,1.48038476 Z M8,2.692 L6.001,3.846 L6.001,6.153 L8,7.307 L9.998,6.153 L9.998,3.846 L8,2.692 Z" id="形状结合" fill="#262626" fill-rule="nonzero"></path>
            <g id="编组备份-6" transform="translate(4.801924, 1.400000)" fill="#262626" fill-rule="nonzero">
                <g id="编组-26">
                    <path d="M5.57564297,1.75394024 L6.09658885,2.66559554 L3.26057621,4.37149476 L3.1212373,4.41694024 L2.99046594,3.92131097 L2.6132373,3.50394024 L2.729993,3.46548332 L5.57564297,1.75394024 Z" id="形状结合"></path>
                    <path d="M0.985780379,2.49665754 C1.14640823,2.20682081 1.51158193,2.10207631 1.80141867,2.26270417 L3.46907975,3.18692387 C3.65986295,3.29265614 3.7782373,3.49359693 3.7782373,3.7117197 L3.7782373,6.42797392 C3.7782373,6.75934477 3.50960815,7.02797392 3.1782373,7.02797392 C2.84686645,7.02797392 2.5782373,6.75934477 2.5782373,6.42797392 L2.57757621,4.0645 L1.21973375,3.31229583 C0.958880693,3.16773076 0.847952347,2.85748356 0.945472913,2.58558879 L0.985780379,2.49665754 Z" id="路径-26"></path>
                </g>
            </g>
        </g>
    </g>
</svg>