<?xml version="1.0" encoding="UTF-8"?>
<svg width="16px" height="16px" viewBox="0 0 16 16" version="1.1" xmlns="http://www.w3.org/2000/svg" xmlns:xlink="http://www.w3.org/1999/xlink">
    <title>cmdb-relation-query-third-menu</title>
    <g id="cmdb-relation-query-third-menu" stroke="none" stroke-width="1" fill="none" fill-rule="evenodd">
        <rect id="矩形" fill="#000000" opacity="0" x="0" y="0" width="16" height="16"></rect>
        <g id="alert-ledger-third-menu" fill="#D8D8D8" fill-rule="nonzero" opacity="0.001">
            <polygon id="路径" points="0 0 16 0 16 16 0 16"></polygon>
        </g>
        <g id="应用性能监控">
            <rect id="矩形" x="0" y="0" width="16" height="16"></rect>
            <g id="编组" transform="translate(1.000000, 1.600000)" fill="#262626" fill-rule="nonzero">
                <path d="M10.2380952,0 C10.9969789,0 11.6,0.6331722 11.6,1.4 L11.6,2.099 L12,2.1 C13.1045695,2.1 14,2.9954305 14,4.1 L14,10.6 C14,11.7045695 13.1045695,12.6 12,12.6 L2,12.6 C0.8954305,12.6 0,11.7045695 0,10.6 L0,4.1 C0,2.9954305 0.8954305,2.1 2,2.1 L2.4,2.099 L2.4,1.4 C2.4,0.6331722 3.00302114,0 3.76190476,0 L10.2380952,0 Z M12,3.3 L2,3.3 C1.5581722,3.3 1.2,3.6581722 1.2,4.1 L1.2,10.6 C1.2,11.0418278 1.5581722,11.4 2,11.4 L12,11.4 C12.4418278,11.4 12.8,11.0418278 12.8,10.6 L12.8,4.1 C12.8,3.6581722 12.4418278,3.3 12,3.3 Z M6.65,3.8625 C8.3827934,3.8625 9.7875,5.2672066 9.7875,7 C9.7875,7.6175744 9.60906887,8.19347397 9.30094711,8.67895824 L10.613907,9.99163513 C10.8823924,10.2601206 10.8823924,10.6954215 10.613907,10.963907 C10.3651038,11.2127102 9.96950933,11.2328533 9.68692045,11.0050502 L9.64163513,10.963907 L8.32895824,9.65094711 C7.84347397,9.95906887 7.2675744,10.1375 6.65,10.1375 C4.9172066,10.1375 3.5125,8.7327934 3.5125,7 C3.5125,5.2672066 4.9172066,3.8625 6.65,3.8625 Z M6.65,5.2375 C5.67659813,5.2375 4.8875,6.02659813 4.8875,7 C4.8875,7.97340187 5.67659813,8.7625 6.65,8.7625 C7.62340187,8.7625 8.4125,7.97340187 8.4125,7 C8.4125,6.02659813 7.62340187,5.2375 6.65,5.2375 Z M10.2380952,1.2 L3.76190476,1.2 C3.67921162,1.2 3.6,1.2831722 3.6,1.4 L3.6,2.099 L10.4,2.099 L10.4,1.4 C10.4,1.2831722 10.3207884,1.2 10.2380952,1.2 Z" id="形状结合"></path>
            </g>
        </g>
    </g>
</svg>