<?xml version="1.0" encoding="UTF-8"?>
<svg width="16px" height="16px" viewBox="0 0 16 16" version="1.1" xmlns="http://www.w3.org/2000/svg" xmlns:xlink="http://www.w3.org/1999/xlink">
    <title>project list-second menu-normal备份 2</title>
    <g id="project-list-second-menu-normal备份-2" stroke="none" stroke-width="1" fill="none" fill-rule="evenodd">
        <g id="project-list" fill="#000000" opacity="0">
            <rect id="矩形" x="0" y="0" width="16" height="16"></rect>
        </g>
        <g id="Gitlab/默认-2备份" transform="translate(1.000000, 1.000000)" stroke="#262626" stroke-linecap="round" stroke-linejoin="round" stroke-width="1.2">
            <g id="Gitlab/默认">
                <path d="M13.4517945,12.360815 L9.80370277,1.45268492 C9.71611859,1.19080017 9.43281805,1.04950164 9.1709333,1.13708581 C9.01959774,1.18769815 8.90150994,1.3075058 8.85309091,1.4595573 L6.84943631,7.75168455 C6.78718289,7.94718052 6.85067569,8.16086649 7.00957973,8.29064965 L12.661326,12.9066525 C12.8751996,13.0813314 13.1901836,13.0495579 13.3648625,12.8356843 C13.4733982,12.7027952 13.5062144,12.5235356 13.4517945,12.360815 Z" id="路径-2备份" transform="translate(10.373143, 7.000000) scale(-1, 1) translate(-10.373143, -7.000000) "></path>
                <path d="M6.92950032,12.3059316 L3.14028773,1.61511316 C3.04803606,1.35483592 2.76225492,1.21862427 2.50197768,1.31087594 C2.35738371,1.36212527 2.24431895,1.47691532 2.19526507,1.62226879 L0.114102132,7.78904437 C0.0458351168,7.99132905 0.113537674,8.21464342 0.282641162,8.34496412 L6.1530167,12.869007 C6.37174298,13.0375698 6.68570283,12.9969043 6.85426565,12.778178 C6.95787412,12.6437362 6.98620353,12.4659131 6.92950032,12.3059316 Z" id="路径-2"></path>
                <path d="M6.60740502,13.0950567 L1.32847911,5.85041355 C1.16585666,5.62723526 1.21494686,5.31448197 1.43812515,5.15185951 C1.52365443,5.08953723 1.62675229,5.05595955 1.73257915,5.05595955 L12.2627525,5.05595955 C12.5388949,5.05595955 12.7627525,5.27981718 12.7627525,5.55595955 C12.7627525,5.66135928 12.729445,5.76406337 12.6675874,5.84940236 L7.41633999,13.0940455 C7.254276,13.3176297 6.94164641,13.3675016 6.71806225,13.2054377 C6.67561825,13.1746723 6.63827638,13.1374237 6.60740502,13.0950567 Z" id="路径-3"></path>
                <path d="M12.2627525,5.05595955 C12.5388949,5.05595955 12.7627525,5.27981718 12.7627525,5.55595955 C12.7627525,5.66135928 12.729445,5.76406337 12.6675874,5.84940236 L7.51890428,12.9527003 C7.46774995,12.9232254 7.42098823,12.8841258 7.3814242,12.8356843 C7.27288847,12.7027952 7.24007229,12.5235356 7.29449221,12.360815 L9.73667016,5.05582614 L12.2627525,5.05595955 Z" id="形状结合"></path>
                <path d="M4.35933761,5.05589155 L6.92950032,12.3059316 C6.98620353,12.4659131 6.95787412,12.6437362 6.85426565,12.778178 C6.76833166,12.8896856 6.64460898,12.9549151 6.51498069,12.969737 L1.32847911,5.85041355 C1.16585666,5.62723526 1.21494686,5.31448197 1.43812515,5.15185951 C1.52365443,5.08953723 1.62675229,5.05595955 1.73257915,5.05595955 L4.35933761,5.05589155 Z" id="形状结合"></path>
            </g>
        </g>
    </g>
</svg>