<?xml version="1.0" encoding="UTF-8"?>
<svg width="16px" height="16px" viewBox="0 0 16 16" version="1.1" xmlns="http://www.w3.org/2000/svg" xmlns:xlink="http://www.w3.org/1999/xlink">
    <title>compute-drm-third-menu</title>
    <g id="compute-drm-third-menu" stroke="none" stroke-width="1" fill="none" fill-rule="evenodd">
        <g>
            <rect id="矩形" fill="#000000" opacity="0" x="0" y="0" width="16" height="16"></rect>
            <g id="编组-2" transform="translate(1.100000, 1.000000)">
                <rect id="矩形" stroke="#262626" x="3.53333333" y="3.61111111" width="6.77777778" height="6.77777778" rx="1"></rect>
                <g id="编组" transform="translate(3.888889, 0.000000)" fill="#262626">
                    <rect id="矩形" x="0.7" y="0.777777778" width="1" height="3.11111111"></rect>
                    <rect id="矩形备份-2" x="0.7" y="10.1111111" width="1" height="3.11111111"></rect>
                    <rect id="矩形备份" x="4.58888889" y="0.777777778" width="1" height="3.11111111"></rect>
                    <rect id="矩形备份-3" x="4.58888889" y="10.1111111" width="1" height="3.11111111"></rect>
                    <circle id="椭圆形" cx="1.16666667" cy="1.16666667" r="1.16666667"></circle>
                    <circle id="椭圆形备份-2" cx="1.16666667" cy="12.8333333" r="1.16666667"></circle>
                    <circle id="椭圆形备份" cx="5.05555556" cy="1.16666667" r="1.16666667"></circle>
                    <circle id="椭圆形备份-3" cx="5.05555556" cy="12.8333333" r="1.16666667"></circle>
                </g>
                <g id="编组" transform="translate(7.000000, 7.000000) rotate(-270.000000) translate(-7.000000, -7.000000) translate(3.888889, 0.000000)" fill="#262626">
                    <rect id="矩形" x="0.7" y="0.777777778" width="1" height="3.11111111"></rect>
                    <rect id="矩形备份-2" x="0.7" y="10.1111111" width="1" height="3.11111111"></rect>
                    <rect id="矩形备份" x="4.58888889" y="0.777777778" width="1" height="3.11111111"></rect>
                    <rect id="矩形备份-3" x="4.58888889" y="10.1111111" width="1" height="3.11111111"></rect>
                    <circle id="椭圆形" cx="1.16666667" cy="1.16666667" r="1.16666667"></circle>
                    <circle id="椭圆形备份-2" cx="1.16666667" cy="12.8333333" r="1.16666667"></circle>
                    <circle id="椭圆形备份" cx="5.05555556" cy="1.16666667" r="1.16666667"></circle>
                    <circle id="椭圆形备份-3" cx="5.05555556" cy="12.8333333" r="1.16666667"></circle>
                </g>
                <rect id="矩形" fill="#262626" x="5.36666667" y="5.44444444" width="3.11111111" height="3.11111111" rx="0.5"></rect>
            </g>
        </g>
    </g>
</svg>