<?xml version="1.0" encoding="UTF-8"?>
<svg width="16px" height="16px" viewBox="0 0 16 16" version="1.1" xmlns="http://www.w3.org/2000/svg" xmlns:xlink="http://www.w3.org/1999/xlink">
    <title>computer-room-details-third-menu</title>
    <g id="computer-room-details-third-menu" stroke="none" stroke-width="1" fill="none" fill-rule="evenodd">
        <rect id="矩形" fill-opacity="0" fill="#F0F0F0" x="0" y="0" width="16" height="16"></rect>
        <g id="机房环境设备" transform="translate(-214.000000, 1.759579)">
            <rect id="矩形" fill-opacity="0" fill="#D8D8D8" x="216.179789" y="0.240421286" width="12.1532594" height="12.1532594"></rect>
            <g id="编组" fill="#262626" fill-rule="nonzero">
                <path d="M219.2,0 C219.752285,0 220.2,0.44771525 220.2,1 L220.2,12 C220.2,12.5522847 219.752285,13 219.2,13 L215.2,13 C214.647715,13 214.2,12.5522847 214.2,12 L214.2,1 C214.2,0.44771525 214.647715,0 215.2,0 L219.2,0 Z M219,1.2 L215.4,1.2 L215.4,11.8 L219,11.8 L219,1.2 Z M216.997102,9.80854292 C217.325508,9.80854292 217.594204,10.0772388 217.594204,10.4056449 C217.594204,10.734051 217.325508,11.0027468 216.997102,11.0027468 C216.668696,11.0027468 216.4,10.734051 216.4,10.4056449 C216.4,10.0772388 216.668696,9.80854292 216.997102,9.80854292 Z M218,4.12251113 L218,5.01816409 L216,5.01816409 L216,4.12251113 L218,4.12251113 Z M218,2.24042129 L218,3.16592933 L216,3.13607424 L216,2.24042129 L218,2.24042129 Z M226.254313,7.14042129 C227.998578,7.14042129 229.412838,8.55468118 229.412838,10.2989468 C229.412838,12.0432124 227.998578,13.4574723 226.254313,13.4574723 C224.510047,13.4574723 223.095787,12.0432124 223.095787,10.2989468 C223.095787,8.55468118 224.510047,7.14042129 226.254313,7.14042129 Z M225.7,0 C226.252285,0 226.7,0.44771525 226.7,1 L226.701237,6.3112823 C226.603169,6.30408394 226.504119,6.30042129 226.404213,6.30042129 C226.093352,6.30042129 225.790774,6.33588194 225.500303,6.40297884 L225.5,1.2 L221.9,1.2 L221.9,11.8 L222.695164,11.8008977 C222.875634,12.2465669 223.134096,12.6523115 223.453626,13.0012045 L221.7,13 C221.147715,13 220.7,12.5522847 220.7,12 L220.7,1 C220.7,0.44771525 221.147715,0 221.7,0 L225.7,0 Z M226.254313,8.14042129 C225.062332,8.14042129 224.095787,9.10696593 224.095787,10.2989468 C224.095787,11.4909276 225.062332,12.4574723 226.254313,12.4574723 C227.446294,12.4574723 228.412838,11.4909276 228.412838,10.2989468 C228.412838,9.10696593 227.446294,8.14042129 226.254313,8.14042129 Z M226.539155,10.0404213 C226.591376,10.0404213 226.634102,10.0617844 226.634102,10.087895 L226.634102,11.7019997 C226.634102,11.7281102 226.591376,11.7494734 226.539155,11.7494734 L225.969471,11.7494734 C225.91725,11.7494734 225.874523,11.7281102 225.874523,11.7019997 L225.874523,10.087895 C225.874523,10.0617844 225.91725,10.0404213 225.969471,10.0404213 L226.539155,10.0404213 Z M226.261908,9.04042129 C226.471584,9.04042129 226.641698,9.21053527 226.641698,9.42021064 C226.641698,9.62988602 226.471584,9.8 226.261908,9.8 C226.052233,9.8 225.882119,9.62988602 225.882119,9.42021064 C225.882119,9.21053527 226.052233,9.04042129 226.261908,9.04042129 Z M224.75,4.12251113 L224.75,5.01816409 L222.75,5.01816409 L222.75,4.12251113 L224.75,4.12251113 Z M224.75,2.24042129 L224.75,3.16592933 L222.75,3.13607424 L222.75,2.24042129 L224.75,2.24042129 Z" id="形状结合"></path>
            </g>
        </g>
    </g>
</svg>