<?xml version="1.0" encoding="UTF-8"?>
<svg width="16px" height="16px" viewBox="0 0 16 16" version="1.1" xmlns="http://www.w3.org/2000/svg" xmlns:xlink="http://www.w3.org/1999/xlink">
    <title>Component Cleanup</title>
    <g id="Component-Cleanup" stroke="none" stroke-width="1" fill="none" fill-rule="evenodd">
        <rect id="矩形" fill="#000000" opacity="0" x="0" y="0" width="16" height="16"></rect>
        <path d="M9.25,1.15 C9.80637085,1.15 10.25625,1.59987915 10.25625,2.15625 L10.2553125,4.4 L13.5,4.4 C14.0192795,4.4 14.4457928,4.79189473 14.5003534,5.29649746 L14.50625,5.40625 L14.50625,8.5 C14.50625,8.83137085 14.2376208,9.1 13.90625,9.1 L13.8862636,9.0992507 C13.8762431,9.09974827 13.8661579,9.1 13.8560139,9.1 L3.3383125,9.1 L2.5813125,13.462 L4.8993125,13.462 L4.9,10.9 L6.1,10.9 L6.0993125,13.462 L9.8993125,13.462 L9.9,10.9 L11.1,10.9 L11.0993125,13.462 L13.4173125,13.462 L13.4133715,13.4369516 C13.2807842,12.6724482 13.2160105,12.2989607 13.1579383,11.9641142 L13.1195457,11.7427409 C13.0872615,11.5565886 13.0528541,11.3581943 13.0058447,11.0871368 L12.9778889,10.9259422 C12.9212647,10.5994451 13.1400399,10.288864 13.466537,10.2322398 C13.7930341,10.1756156 14.1036152,10.3943909 14.1602394,10.7208879 C14.3466624,11.7958099 14.3466624,11.7958099 14.6392231,13.4827508 C14.7365395,14.0316154 14.3672389,14.5548915 13.842905,14.6429314 C13.7765313,14.6571544 13.7134529,14.6625 13.6484375,14.6625 L2.3515625,14.6625 C1.79519165,14.6625 1.3453125,14.2126208 1.3453125,13.65625 C1.3453125,13.5947342 1.35051777,13.5333119 1.36038724,13.4849729 L2.0823125,9.322 L1.99184444,9.27525834 C1.7235111,9.11819917 1.53472128,8.84039001 1.49964664,8.51600254 L1.49375,8.40625 L1.49375,5.40625 C1.49375,4.84987915 1.94362915,4.4 2.5,4.4 L5.7433125,4.4 L5.74375,2.15625 C5.74375,1.63697054 6.13564473,1.21045718 6.64024746,1.15589664 L6.75,1.15 L9.25,1.15 Z M9.0553125,2.35 L6.9433125,2.35 L6.94375,5 C6.94375,5.29823376 6.72616039,5.54564675 6.44107312,5.59214701 L6.34375,5.6 L2.6933125,5.6 L2.6923125,7.9 L13.3053125,7.9 L13.3053125,5.6 L9.65625,5.6 C9.35801624,5.6 9.11060325,5.38241039 9.06410299,5.09732312 L9.05625,5 L9.0553125,2.35 Z" id="形状结合" fill="#262626" fill-rule="nonzero"></path>
    </g>
</svg>