<?xml version="1.0" encoding="UTF-8"?>
<svg width="16px" height="16px" viewBox="0 0 16 16" version="1.1" xmlns="http://www.w3.org/2000/svg" xmlns:xlink="http://www.w3.org/1999/xlink">
    <title>component management-third menu</title>
    <g id="component-management-third-menu" stroke="none" stroke-width="1" fill="none" fill-rule="evenodd">
        <g id="component-management">
            <rect id="矩形" x="0" y="0" width="16" height="16"></rect>
            <g id="编组-24" transform="translate(1.320000, 1.500000)" fill="#262626" fill-rule="nonzero">
                <path d="M6.29184964,0.131478714 C6.51098083,-0.0438262381 6.8223525,-0.0438262381 7.0414837,0.131478714 L13.1081504,4.98481205 C13.2295256,5.08191222 13.3018342,5.21438632 13.3250763,5.35363415 L13.3466667,5.35333333 L13.3466667,7.78 L13.3249667,7.78011496 C13.3523654,7.94274306 13.3129864,8.11590263 13.2018546,8.25481736 C12.9948489,8.51357452 12.6172735,8.55552735 12.3585163,8.34852162 L11.216,7.435 L7.28,10.584 L7.28,11.472 L9.53658252,9.66902608 C9.76658888,9.48502099 10.0904763,9.49772389 10.3049985,9.68455185 L10.3799208,9.76273033 C10.5869266,10.0214875 10.5449737,10.3990629 10.2862166,10.6060686 L7.0414837,13.201855 C6.8223525,13.3771599 6.51098083,13.3771599 6.29184964,13.201855 L0.225182971,8.34852162 C0.0396356874,8.20008379 -0.0312455284,7.96897892 0.0125393239,7.75738156 L0.0125393239,5.57595211 C-0.0312455284,5.36435474 0.0396356874,5.13324987 0.225182971,4.98481205 L6.29184964,0.131478714 Z M2.116,7.434 L1.56,7.879667 L6.079,11.495 L6.079,10.605 L2.116,7.434 Z M6.666,3.794667 L3.076,6.666 L6.666,9.538 L10.255,6.666 L6.666,3.794667 Z M6.079,1.838 L1.56,5.453 L2.117,5.898 L6.079,2.728 L6.079,1.838 Z M7.28,1.859 L7.28,2.749 L11.216,5.897 L11.772,5.453 L7.28,1.859 Z" id="形状"></path>
            </g>
        </g>
    </g>
</svg>