<?xml version="1.0" encoding="UTF-8"?>
<svg width="16px" height="16px" viewBox="0 0 16 16" version="1.1" xmlns="http://www.w3.org/2000/svg" xmlns:xlink="http://www.w3.org/1999/xlink">
    <title>Component inspection</title>
    <g id="Component-inspection" stroke="none" stroke-width="1" fill="none" fill-rule="evenodd">
        <rect id="矩形" fill="#000000" opacity="0" x="0" y="0" width="16" height="16"></rect>
        <g id="编组" transform="translate(0.400000, 0.400000)" fill="#262626" fill-rule="nonzero">
            <path d="M10.66185,0 C13.1772379,0 15.2,2.21156185 15.2,4.90586447 C15.2,5.18262891 15.1785599,5.4525941 15.136756,5.716956 C15.0995592,5.95218321 14.9303791,6.13373078 14.7166403,6.19804805 C14.6215276,6.26268279 14.5061766,6.30039503 14.3820174,6.30039503 L10.089,6.3 L8.86126977,8.74434062 C8.64068072,9.18344472 8.02975975,9.17758061 7.80338661,8.77241554 L7.7610464,8.67949935 L6.694,5.737 L6.04138227,7.26978749 C5.95892883,7.46342185 5.7822681,7.59759724 5.57825887,7.62811555 L5.48934686,7.63471961 L3.225,7.63471961 C2.89362915,7.63471961 2.625,7.36609046 2.625,7.03471961 C2.625,6.70334876 2.89362915,6.43471961 3.225,6.43471961 L5.092,6.434 L6.18697458,3.86493213 C6.40039153,3.36374193 7.11742052,3.38338024 7.30308446,3.89550065 L8.414,6.96 L9.18282702,5.43105441 C9.27011466,5.2572998 9.43500243,5.13847682 9.62319117,5.1080734 L9.7189759,5.10039503 L13.9953821,5.10065042 C13.9984523,5.03628554 14,4.9713736 14,4.90586447 C14,2.85158341 12.4894113,1.2 10.66185,1.2 C9.66469972,1.2 8.71705269,1.69967144 8.08233888,2.55756241 C7.84243442,2.88182173 7.35731925,2.881734 7.11753208,2.55738793 C6.48326128,1.69944692 5.53598593,1.2 4.53814999,1.2 C2.71053935,1.2 1.2,2.85155219 1.2,4.90586447 C1.2,5.92449616 1.47969577,6.58698241 2.24733548,7.79186762 C2.8603802,8.75357815 3.94705615,9.91759846 5.31570254,11.1569375 C6.16473476,11.9257547 6.94066898,12.5641415 7.46084639,12.9662781 C7.50515597,13.0005279 7.55285342,13.0169045 7.59980407,13.0169045 C7.64693265,13.0169045 7.69426075,13.0006436 7.73897818,12.9660383 C8.24979843,12.5717244 9.03481998,11.9259419 9.8840904,11.1569317 C11.2526971,9.91766491 12.3393127,8.7536281 12.9521478,7.79194058 C13.1302289,7.51248796 13.5011332,7.43031009 13.7805859,7.60839118 C14.0600385,7.78647227 14.1422163,8.15737662 13.9641352,8.43682924 C13.2799457,9.51048936 12.1314691,10.7407947 10.689545,12.04645 C9.81414458,12.8391208 9.00598737,13.5039355 8.47281822,13.9155003 C8.21898005,14.1119406 7.91347799,14.2169045 7.59980407,14.2169045 C7.28651082,14.2169045 6.98086093,14.1119616 6.72693462,13.915685 C6.1840596,13.4960015 5.38531065,12.8388442 4.51023497,12.0464441 C3.06831564,10.7407548 1.91981365,9.51050799 1.23536161,8.43677758 C0.353717729,7.05295178 0,6.21513742 0,4.90586447 C0,2.21153393 2.02270873,0 4.53814999,0 C5.68022404,0 6.76450518,0.465420223 7.58967579,1.27631573 L7.6,1.287 L7.61064725,1.27627054 C8.37711743,0.52342976 9.36680616,0.0682640956 10.4181991,0.00708145365 L10.66185,0 Z" id="形状结合"></path>
        </g>
    </g>
</svg>