<?xml version="1.0" encoding="UTF-8"?>
<svg width="16px" height="16px" viewBox="0 0 16 16" version="1.1" xmlns="http://www.w3.org/2000/svg" xmlns:xlink="http://www.w3.org/1999/xlink">
    <title>Configuration Info-third menu</title>
    <g id="Configuration-Info-third-menu" stroke="none" stroke-width="1" fill="none" fill-rule="evenodd">
        <rect id="矩形" fill-opacity="0" fill="#F0F0F0" x="0" y="0" width="16" height="16"></rect>
        <g>
            <rect id="矩形" fill-opacity="0" fill="#D8D8D8" x="0" y="0" width="16" height="16"></rect>
            <g id="图形" transform="translate(1.000000, 1.000000)" fill="#262626" fill-rule="nonzero">
                <path d="M13,0 C13.5522847,0 14,0.44771525 14,1 L14,10 C14,10.5522847 13.5522847,11 13,11 L5.39572645,11.0005576 C5.37780679,11.034926 5.35627678,11.0680535 5.33107986,11.099422 L3.784,13.0246775 L10.226,13.0246775 L10.2187848,13.0139279 C10.0873963,12.8389207 10.0436001,12.7805849 9.93723798,12.6389124 L9.87814791,12.5602054 C9.67919648,12.2952055 9.73273938,11.9190986 9.99773933,11.7201471 C10.2627393,11.5211957 10.6388462,11.5747386 10.8377976,11.8397385 C11.0348803,12.1022494 11.0348803,12.1022494 11.3445818,12.5147666 C11.9916193,13.3766095 11.3763817,14.225 10.3208704,14.225 L3.67912961,14.225 C2.62361834,14.225 2.00838073,13.3766095 2.66746524,12.4992555 L3.871,11 L1,11 C0.44771525,11 0,10.5522847 0,10 L0,1 C0,0.44771525 0.44771525,0 1,0 L13,0 Z M12.8,1.2 L1.2,1.2 L1.2,9.8 L12.8,9.8 L12.8,1.2 Z M10.10625,7 L10.10625,8.25 L7.2,8.25 L7.20036328,7 L10.10625,7 Z M4.11736501,2.95544877 L4.15824844,2.96279973 L4.19401054,2.98393179 L7.03752382,5.36685516 C7.08818787,5.41369186 7.09124555,5.4915852 7.04508831,5.54151427 L7.03752382,5.54901773 L4.19401054,7.9334221 C4.14529034,7.9759202 4.0713433,7.97087619 4.02884519,7.92215599 C4.01024695,7.9008348 4,7.87349927 4,7.84520637 L4,6.9144965 L4.0429489,6.82415572 L5.66908306,5.45867694 L4.0429489,4.09319817 L4,4.00285738 L4,3.07281378 C4,3.00799488 4.0525461,2.95544877 4.11736501,2.95544877 Z" id="形状结合"></path>
            </g>
        </g>
    </g>
</svg>