<?xml version="1.0" encoding="UTF-8"?>
<svg width="16px" height="16px" viewBox="0 0 16 16" version="1.1" xmlns="http://www.w3.org/2000/svg" xmlns:xlink="http://www.w3.org/1999/xlink">
    <title>configuration-third menu</title>
    <g id="configuration-third-menu" stroke="none" stroke-width="1" fill="none" fill-rule="evenodd">
        <g id="配置中心备份" fill-rule="nonzero">
            <rect id="矩形" fill="#000000" opacity="0" x="0" y="0" width="16" height="16"></rect>
            <path d="M13.6052727,1 C13.9598682,1 14.25,1.33157922 14.25,1.7368312 L14.25,14.2631688 C14.25,14.6684208 13.9598682,15 13.6052727,15 L2.6447273,15 C2.29013182,15 2,14.6684208 2,14.2631688 L2,1.7368312 C2,1.33157922 2.29013182,1 2.6447273,1 L13.6052727,1 Z M13.25,2 L3,2 L3,14 L13.25,14 L13.25,2 Z M6.991875,8.45209473 C7.68457764,8.45209473 8.304375,8.92604736 8.523125,9.54584473 L11.9866553,9.54584473 L11.9866553,10.6395947 L8.523125,10.6395947 C8.304375,11.259375 7.68459473,11.7333447 6.991875,11.7333447 C6.29915527,11.7333447 5.679375,11.259375 5.460625,10.6395947 L4.2575,10.6395947 L4.2575,9.54584473 L5.460625,9.54584473 C5.679375,8.92604736 6.29917236,8.45209473 6.991875,8.45209473 Z M6.991875,9.54584473 C6.70020264,9.54584473 6.445,9.80106445 6.445,10.0927197 C6.445,10.384375 6.70021973,10.6395947 6.991875,10.6395947 C7.28353027,10.6395947 7.53875,10.3843921 7.53875,10.0927197 C7.53875,9.80104736 7.28353027,9.54584473 6.991875,9.54584473 Z M8.085625,4.15 C8.77832764,4.15 9.398125,4.62396973 9.616875,5.24375 L11.9866553,5.24375 L11.9866553,6.3375 L9.616875,6.3375 C9.398125,6.95729736 8.77834473,7.43125 8.085625,7.43125 C7.39290527,7.43125 6.773125,6.95729736 6.554375,6.3375 L4.2575,6.3375 L4.2575,5.24375 L6.554375,5.24375 C6.773125,4.62396973 7.39292236,4.15 8.085625,4.15 Z M8.085625,5.24375 C7.79395264,5.24375 7.53875,5.49895264 7.53875,5.790625 C7.53875,6.08229736 7.79396973,6.3375 8.085625,6.3375 C8.37728027,6.3375 8.6325,6.08228027 8.6325,5.790625 C8.6325,5.49896973 8.37728027,5.24375 8.085625,5.24375 Z" id="形状结合" fill="#262626"></path>
        </g>
    </g>
</svg>