<?xml version="1.0" encoding="UTF-8"?>
<svg width="16px" height="16px" viewBox="0 0 16 16" version="1.1" xmlns="http://www.w3.org/2000/svg" xmlns:xlink="http://www.w3.org/1999/xlink">
    <title>connection-third-menu</title>
    <g id="connection-third-menu" stroke="none" stroke-width="1" fill="none" fill-rule="evenodd">
        <g id="Mysql">
            <rect id="矩形" x="0" y="0" width="16" height="16"></rect>
            <g id="MysQL">
                <rect id="矩形备份" x="0" y="0" width="16" height="16"></rect>
            </g>
        </g>
        <g id="编组-2" transform="translate(0.400000, 0.400000)" fill-rule="nonzero" stroke="#262626" stroke-linecap="round" stroke-width="1.2">
            <path d="M10.0383686,9.61530713 C10.0383686,11.2508598 8.71249119,12.5767371 7.07693857,12.5767371 L3.69244716,12.5767371 C2.05689454,12.5767371 0.731017173,11.2508598 0.731017173,9.61530713 C0.731017173,7.97975451 2.05689454,6.65387715 3.69244716,6.65387715 L5.03421731,6.65387715 L5.03421731,6.65387715" id="路径" transform="translate(5.384693, 9.615307) rotate(-45.000000) translate(-5.384693, -9.615307) "></path>
            <path d="M4.96163144,5.38469287 C4.96163144,3.74914025 6.28750881,2.42326288 7.92306143,2.42326288 L11.3075528,2.42326288 C12.9431055,2.42326288 14.2689828,3.74914025 14.2689828,5.38469287 C14.2689828,7.02024549 12.9431055,8.34612285 11.3075528,8.34612285 L9.26483157,8.34612285 L9.26483157,8.34612285" id="路径" transform="translate(9.615307, 5.384693) rotate(-45.000000) translate(-9.615307, -5.384693) "></path>
        </g>
    </g>
</svg>