<?xml version="1.0" encoding="UTF-8"?>
<svg width="16px" height="16px" viewBox="0 0 16 16" version="1.1" xmlns="http://www.w3.org/2000/svg" xmlns:xlink="http://www.w3.org/1999/xlink">
    <title>consumer group-third menu</title>
    <g id="consumer-group-third-menu" stroke="none" stroke-width="1" fill="none" fill-rule="evenodd">
        <g id="消费组">
            <rect id="矩形" fill="#D8D8D8" opacity="0" x="0" y="0" width="16" height="16"></rect>
            <g id="图形" transform="translate(1.000000, 1.800000)" fill="#262626" fill-rule="nonzero">
                <path d="M12.2508475,0 C13.1136255,0 13.8,0.723144614 13.8,1.6 L13.8,7.5353726 C13.8,7.86674345 13.5313708,8.1353726 13.2,8.1353726 C12.8686292,8.1353726 12.6,7.86674345 12.6,7.5353726 L12.6,1.6 C12.6,1.37228589 12.4364744,1.2 12.2508475,1.2 L2.94915254,1.2 C2.76352559,1.2 2.6,1.37228589 2.6,1.6 L2.599,2.17 L11,2.17 C11.5522847,2.17 12,2.61771525 12,3.17 L12,9.67 C12,10.2222847 11.5522847,10.67 11,10.67 L5.793,10.67 L3.65818505,12.0655047 C3.60398291,12.1009067 3.54369003,12.1252754 3.48074425,12.1375876 L3.38476562,12.1468858 C3.10862325,12.1468858 2.88476563,11.9230282 2.88476563,11.6468858 L2.884,10.67 L1,10.67 C0.44771525,10.67 0,10.2222847 0,9.67 L0,3.17 C0,2.61771525 0.44771525,2.17 1,2.17 L1.399,2.17 L1.4,1.6 C1.4,0.723144614 2.08637455,0 2.94915254,0 L12.2508475,0 Z M10.8,3.37 L1.2,3.37 L1.2,9.47 L4.08305988,9.47 L4.083,10.354 L5.13641145,9.6655641 L5.43558146,9.47 L10.8,9.47 L10.8,3.37 Z M8.22856021,6.5 L8.22856021,7.55 L3.58,7.55 L3.58,6.5 L8.22856021,6.5 Z M8.22856021,4.7 L8.22856021,5.75 L3.58,5.75 L3.58,4.7 L8.22856021,4.7 Z" id="形状结合"></path>
            </g>
        </g>
    </g>
</svg>