<?xml version="1.0" encoding="UTF-8"?>
<svg width="16px" height="16px" viewBox="0 0 16 16" version="1.1" xmlns="http://www.w3.org/2000/svg" xmlns:xlink="http://www.w3.org/1999/xlink">
    <title>container-image-third-menu</title>
    <defs>
        <polygon id="path-1" points="0 10 14 10 14 0 0 0"></polygon>
    </defs>
    <g id="container-image-third-menu" stroke="none" stroke-width="1" fill="none" fill-rule="evenodd">
        <g id="容器镜像" transform="translate(1.000000, 3.000000)">
            <path d="M12.1239663,3.83161009 C12.0327644,3.86286113 11.941899,3.86286113 11.8506971,3.92436584 C11.8506971,3.83161009 11.8506971,3.73918681 11.8207452,3.64609861 C11.6992548,3.09022906 11.3963702,2.59553177 10.9716587,2.25575983 C10.6990625,2.78104325 10.6078606,3.36816384 10.668774,3.95528442 C10.6990625,4.1407959 10.7899279,4.32597493 10.8807933,4.48056784 C10.8807933,4.51148642 10.9716587,4.57332358 10.9716587,4.60424216 C10.9716587,4.63516074 10.7899279,4.72791649 10.7593029,4.75883507 C10.0014183,5.16044416 9.06146635,5.22261378 8.21271635,5.28411849 C7.2121875,5.34595565 6.24194712,5.34595565 5.24141827,5.34595565 C4.69588942,5.34595565 4.11973558,5.31503707 3.57420673,5.31503707 L0.299350962,5.31503707 C0.2690625,5.46962997 0.2690625,5.654809 0.2690625,5.80940191 C0.2690625,7.97270521 2.51276442,9.73406696 5.27204327,9.73406696 C6.02992788,9.73406696 6.7878125,9.61039263 7.48512019,9.33245786 C8.12151442,9.08510921 8.72795673,8.7759234 9.30411058,8.37431431 C10.6990625,7.38525217 11.578101,6.08766914 11.6083894,5.12952558 C11.8506971,5.12952558 12.1239663,5.09893946 12.3666106,5.0371023 C12.9121394,4.91342797 13.3668029,4.60424216 13.730601,4.17138203 C13.2153606,3.83161009 12.6694952,3.73918681 12.1239663,3.83161009 Z" id="Stroke-1" stroke="#000000" stroke-width="0.64" stroke-linecap="round" stroke-linejoin="round"></path>
            <path d="M4.21073558,6.57501912 C4.62938942,6.57501912 4.96862019,6.91013664 4.96862019,7.32371422 C4.96862019,7.7372918 4.62938942,8.07240932 4.21073558,8.07240932 C3.79208173,8.07240932 3.45285096,7.7372918 3.45285096,7.32371422 C3.45285096,6.91013664 3.79208173,6.57501912 4.21073558,6.57501912 Z" id="Stroke-3" stroke="#000000" stroke-width="0.512" stroke-linecap="round" stroke-linejoin="round"></path>
            <mask id="mask-2" fill="white">
                <use xlink:href="#path-1"></use>
            </mask>
            <g id="Clip-6"></g>
            <polygon id="Fill-5" fill="#000000" mask="url(#mask-2)" points="1.42153846 4.66604608 2.72495192 4.66604608 2.72495192 3.33754447 1.42153846 3.33754447"></polygon>
            <polygon id="Fill-7" fill="#000000" mask="url(#mask-2)" points="3.05846154 4.66604608 4.36221154 4.66604608 4.36221154 3.33754447 3.05846154 3.33754447"></polygon>
            <polygon id="Fill-8" fill="#000000" mask="url(#mask-2)" points="4.69572115 4.66604608 5.99947115 4.66604608 5.99947115 3.33754447 4.69572115 3.33754447"></polygon>
            <polygon id="Fill-9" fill="#000000" mask="url(#mask-2)" points="6.33298077 4.66604608 7.63673077 4.66604608 7.63673077 3.33754447 6.33298077 3.33754447"></polygon>
            <polygon id="Fill-10" fill="#000000" mask="url(#mask-2)" points="3.05846154 2.99744007 4.36221154 2.99744007 4.36221154 1.668606 3.05846154 1.668606"></polygon>
            <polygon id="Fill-11" fill="#000000" mask="url(#mask-2)" points="4.69572115 2.99744007 5.99947115 2.99744007 5.99947115 1.668606 4.69572115 1.668606"></polygon>
            <polygon id="Fill-12" fill="#000000" mask="url(#mask-2)" points="6.33298077 2.99744007 7.63673077 2.99744007 7.63673077 1.668606 6.33298077 1.668606"></polygon>
            <polygon id="Fill-13" fill="#000000" mask="url(#mask-2)" points="6.33298077 1.32883407 7.63673077 1.32883407 7.63673077 0 6.33298077 0"></polygon>
            <polygon id="Fill-14" fill="#000000" mask="url(#mask-2)" points="7.97024038 4.66604608 9.27399038 4.66604608 9.27399038 3.33754447 7.97024038 3.33754447"></polygon>
        </g>
    </g>
</svg>