<?xml version="1.0" encoding="UTF-8"?>
<svg width="16px" height="16px" viewBox="0 0 16 16" version="1.1" xmlns="http://www.w3.org/2000/svg" xmlns:xlink="http://www.w3.org/1999/xlink">
    <title>continuous deployment</title>
    <g id="continuous-deployment" stroke="none" stroke-width="1" fill="none" fill-rule="evenodd">
        <rect id="矩形" fill="#000000" opacity="0" x="0" y="0" width="16" height="16"></rect>
        <g id="编组-10备份" transform="translate(1.850998, 2.000000)" fill="#262626">
            <path d="M5.96097639,3.03067851 C6.23711877,3.03067851 6.46097639,3.25453613 6.46097639,3.53067851 L6.46097639,6.92446653 C6.46097639,7.01061351 6.43918997,7.091672 6.40082631,7.16243281 C6.56131674,7.06834827 6.76906011,7.07155994 6.93226109,7.1858345 L9.71228948,9.13243134 C9.93849208,9.2908201 9.99346605,9.60259299 9.83507729,9.82879558 C9.67668853,10.0549982 9.36491564,10.1099721 9.13871305,9.95158339 L6.35868465,8.00498655 C6.29635327,7.96134164 6.24702342,7.90605015 6.2115767,7.84411175 C6.17928264,7.90443483 6.13054212,7.95864971 6.06921608,8.00159066 L3.28918768,9.9481875 C3.06298509,10.1065763 2.7512122,10.0516023 2.59282344,9.8253997 C2.43443468,9.59919711 2.48940866,9.28742422 2.71561125,9.12903546 L5.49563964,7.18243862 L5.52324515,7.16629978 C5.48356593,7.09463134 5.46097639,7.01218697 5.46097639,6.92446653 L5.46097639,3.53067851 C5.46097639,3.25453613 5.68483402,3.03067851 5.96097639,3.03067851 Z" id="形状结合" fill-rule="nonzero"></path>
            <path d="M5.96097639,0 L7.46262648,0.916892247 L7.46262648,2.75067674 L5.96097639,3.66756899 L4.4593263,2.75067674 L4.4593263,0.916892247 L5.96097639,0 Z M0.110236949,11.5637255 L0,9.80773795 L1.50214832,8.75592237 L3.11453358,9.46009433 L3.22477053,11.2160819 L1.72262221,12.2678974 L0.110236949,11.5637255 Z M12.1872742,11.5637255 L12.2975111,9.80773795 L10.7953628,8.75592237 L9.18297754,9.46009433 L9.07274059,11.2160819 L10.5748889,12.2678974 L12.1872742,11.5637255 Z M5.96097639,4.80334902 L8.39269443,6.28813128 L8.39269443,9.2576958 L5.96097639,10.7424781 L3.52925835,9.2576958 L3.52925835,6.28813128 L5.96097639,4.80334902 Z" id="形状"></path>
        </g>
    </g>
</svg>