<?xml version="1.0" encoding="UTF-8"?>
<svg width="16px" height="16px" viewBox="0 0 16 16" version="1.1" xmlns="http://www.w3.org/2000/svg" xmlns:xlink="http://www.w3.org/1999/xlink">
    <title>continuous-integration-third-menu</title>
    <defs>
        <polygon id="path-1" points="0 0 14 0 14 6.7787234 0 6.7787234"></polygon>
    </defs>
    <g id="continuous-integration-third-menu" stroke="none" stroke-width="1" fill="none" fill-rule="evenodd">
        <g id="持续集成" transform="translate(1.000000, 5.000000)">
            <mask id="mask-2" fill="white">
                <use xlink:href="#path-1"></use>
            </mask>
            <g id="Clip-2"></g>
            <path d="M7.45907801,4.11276596 L6.26617021,2.92056738 L5.51723404,3.67021277 L5.49595745,3.69078014 L4.66758865,4.51914894 L4.52858156,4.65815603 C4.28248227,4.87801418 3.97255319,5.02553191 3.63,5.07304965 L3.63,6.7787234 C4.54205674,6.71702128 5.35624113,6.30070922 5.93141844,5.66099291 C5.93141844,5.66099291 6.66758865,4.92269504 7.46971631,4.11985816 C7.46687943,4.11702128 7.46191489,4.11560284 7.45907801,4.11276596 L7.45907801,4.11276596 Z M12.2987943,3.44680851 C12.2711348,4.26170213 11.671844,4.93049645 10.888156,5.06382979 L10.888156,6.77659574 C12.6136879,6.63191489 13.9704255,5.20212766 14.0002128,3.44680851 L12.2987943,3.44680851 Z M3.11439716,5.06453901 C2.32929078,4.93191489 1.72858156,4.26312057 1.70092199,3.44680851 L-0.0004964539,3.44680851 C0.0292907801,5.2035461 1.38744681,6.63333333 3.11439716,6.77659574 L3.11439716,5.06453901 Z M10.3725532,5.07304965 C10.0285816,5.02695035 9.71794326,4.8787234 9.47113475,4.65815603 L9.33212766,4.51914894 L8.77468085,3.96241135 L7.57468085,5.16312057 L8.06829787,5.66099291 C8.6441844,6.30141844 9.45907801,6.7177305 10.3725532,6.7787234 L10.3725532,5.07304965 Z M3.63,1.70567376 C3.96546099,1.75177305 4.27042553,1.89503546 4.51368794,2.10638298 C4.57397163,2.15886525 4.63,2.21489362 4.68177305,2.27446809 L5.22007092,2.81276596 L6.4229078,1.6106383 L5.9335461,1.12056738 C5.35907801,0.479432624 4.54347518,0.0617021277 3.63,0 L3.63,1.70567376 Z M1.76262411,2.93120567 C1.93780142,2.30425532 2.46262411,1.82411348 3.11439716,1.7141844 L3.11439716,0.00212765957 C1.52148936,0.134042553 0.242765957,1.36241135 0.0314184397,2.93120567 L1.76262411,2.93120567 Z M10.888156,1.71489362 C11.5392199,1.82553191 12.0626241,2.30496454 12.2370922,2.93120567 L13.9682979,2.93120567 C13.7569504,1.36312057 12.4796454,0.135460993 10.888156,0.00212765957 L10.888156,1.71489362 Z M6.63141844,2.55602837 L8.06617021,1.12056738 C8.64134752,0.478723404 9.45765957,0.0609929078 10.3725532,0 L10.3725532,1.70496454 C10.036383,1.75106383 9.73,1.89432624 9.48602837,2.10638298 C9.45765957,2.13120567 8.66191489,2.92695035 7.83,3.75815603 C7.82787234,3.75531915 7.82716312,3.75106383 7.82361702,3.74822695 L6.63141844,2.55602837 Z" id="Fill-1" fill="#262626" mask="url(#mask-2)"></path>
        </g>
    </g>
</svg>