<?xml version="1.0" encoding="UTF-8"?>
<svg width="16px" height="16px" viewBox="0 0 16 16" version="1.1" xmlns="http://www.w3.org/2000/svg" xmlns:xlink="http://www.w3.org/1999/xlink">
    <title>container-third menu</title>
    <g id="container-third-menu" stroke="none" stroke-width="1" fill="none" fill-rule="evenodd">
        <g id="容器">
            <rect id="矩形" fill="#D8D8D8" opacity="0" x="0" y="0" width="16" height="16"></rect>
            <path d="M2,6.04154802 C2.14595953,6.04154802 2.29014971,6.07349981 2.42244571,6.13515978 L6.98494571,8.26163106 C7.33725888,8.42583574 7.5625,8.77931921 7.5625,9.16801929 L7.5625,13.4306441 C7.5625,13.9829289 7.11478475,14.4306441 6.5625,14.4306441 C6.41654047,14.4306441 6.27235029,14.3986923 6.14005429,14.3370323 L1.57755429,12.2105611 C1.22524112,12.0463564 1,11.6928729 1,11.3041728 L1,7.04154802 C1,6.48926327 1.44771525,6.04154802 2,6.04154802 Z M14,6.04154802 C14.5522847,6.04154802 15,6.48926327 15,7.04154802 L15,11.3041728 C15,11.6928729 14.7747589,12.0463564 14.4224457,12.2105611 L9.85994571,14.3370323 C9.72764971,14.3986923 9.58345953,14.4306441 9.4375,14.4306441 C8.88521525,14.4306441 8.4375,13.9829289 8.4375,13.4306441 L8.4375,9.16801929 C8.4375,8.77931921 8.66274112,8.42583574 9.01505429,8.26163106 L13.5775543,6.13515978 C13.7098503,6.07349981 13.8540405,6.04154802 14,6.04154802 Z M2.2,7.35519213 L2.2,11.1761921 L6.362,13.1171921 L6.362,9.29519213 L2.2,7.35519213 Z M13.8,7.35519213 L9.638,9.29519213 L9.638,13.1171921 L13.8,11.1761921 L13.8,7.35519213 Z M8.41122828,1.35128789 L13.0402348,3.43961564 C13.2551483,3.53657165 13.4288928,3.70634559 13.5307904,3.91896074 C13.7694808,4.41700222 13.5592353,5.01424145 13.0611938,5.2529319 L8.4771493,7.44987266 C8.20558295,7.58002305 7.88982433,7.58086161 7.61757054,7.45215545 L2.9572906,5.24903924 C2.74248618,5.14749188 2.5708567,4.97277913 2.47314969,4.75620086 C2.24603458,4.25277542 2.47002836,3.6605553 2.9734538,3.43344019 L7.58877172,1.35128789 C7.85023587,1.23333108 8.14976413,1.23333108 8.41122828,1.35128789 Z M7.999,2.48176656 L3.861,4.34876656 L8.043,6.32576656 L12.155,4.35676656 L7.999,2.48176656 Z" id="形状结合" fill="#262626" fill-rule="nonzero"></path>
        </g>
    </g>
</svg>