<?xml version="1.0" encoding="UTF-8"?>
<svg width="16px" height="16px" viewBox="0 0 16 16" version="1.1" xmlns="http://www.w3.org/2000/svg" xmlns:xlink="http://www.w3.org/1999/xlink">
    <title>current-alert-third menu</title>
    <g id="current-alert-third-menu" stroke="none" stroke-width="1" fill="none" fill-rule="evenodd">
        <g id="event">
            <g id="编组-2">
                <rect id="矩形" x="0" y="0" width="16" height="16"></rect>
                <path d="M8,3.825 C10.7476166,3.825 12.975,6.05238337 12.975,8.8 L12.9752296,13.0627023 C13.5151065,13.1416916 13.9382395,13.5801679 13.9938045,14.127307 L14,14.25 L2,14.25 C2,13.6471278 2.44457498,13.1480917 3.02376706,13.0628495 L3.025,8.8 C3.025,6.05238337 5.25238337,3.825 8,3.825 Z M8,5.025 C5.91512507,5.025 4.225,6.71512507 4.225,8.8 L4.225,13.049 L11.775,13.049 L11.775,8.8 C11.775,6.78027741 10.1888572,5.13101831 8.194261,5.02991201 L8,5.025 Z" id="形状结合" fill="#262626"></path>
                <g transform="translate(7.049757, 6.600642)" fill="#000000" fill-rule="nonzero" id="路径">
                    <path d="M1.52033984,4.8411968 L1.52033984,4.11550927 C1.51934118,4.02014489 1.4422772,3.94308091 1.34691282,3.94208225 L0.637215019,3.94208225 C0.541712911,3.94275246 0.464458215,4.02000716 0.463788,4.11550927 L0.463788,4.82520707 C0.464458215,4.92070918 0.541712911,4.99796388 0.637215019,4.99863409 L1.34691282,4.99863409 C1.3916711,5.00465022 1.43680264,4.99060292 1.47024038,4.9602481 C1.50367811,4.92989328 1.52201194,4.88632662 1.52033984,4.8411968 Z"></path>
                    <path d="M1.64710856,0.0580343048 C1.61443486,0.0223481338 1.56870371,0.00141258657 1.52033969,0 L0.447798122,0 C0.349476679,0.00832896059 0.274018954,0.0907437805 0.274371103,0.189416745 L0.431808397,3.23299944 C0.432807059,3.32836381 0.509871041,3.40542779 0.605235417,3.40642645 L1.34629768,3.40642645 C1.44166206,3.40542779 1.51872604,3.32836381 1.5197247,3.23299944 L1.69315172,0.189416745 C1.69661393,0.141115948 1.67978227,0.0937204759 1.64710856,0.0580343048 Z"></path>
                </g>
                <polygon id="路径" fill="#262626" points="13.8555445 4.34288476 14.4555445 5.38211524 12.94 6.25711524 12.34 5.21788476"></polygon>
                <polygon id="路径" fill="#262626" points="2.1 4.34288476 3.61554446 5.21788476 3.01554446 6.25711524 1.5 5.38211524"></polygon>
                <polygon id="路径" fill="#262626" points="11.3705484 2.05246255 12.3977784 2.6727839 11.5803145 4.14163604 10.5530846 3.5213147"></polygon>
                <polygon id="路径" fill="#262626" points="4.82187126 2.09197998 5.65948918 3.50012772 4.61863942 4.09731426 3.7810215 2.68916652"></polygon>
                <polygon id="路径" fill="#262626" points="8.6 1.58084435 8.6 3.25 7.4 3.25 7.4 1.58084435"></polygon>
            </g>
            <g id="编组" transform="translate(1.992228, 2.800000)"></g>
        </g>
    </g>
</svg>