<?xml version="1.0" encoding="UTF-8"?>
<svg width="16px" height="16px" viewBox="0 0 16 16" version="1.1" xmlns="http://www.w3.org/2000/svg" xmlns:xlink="http://www.w3.org/1999/xlink">
    <title>custom-monitor-third-menu</title>
    <g id="custom-monitor-third-menu" stroke="none" stroke-width="1" fill="none" fill-rule="evenodd">
        <g id="third-party-events">
            <g id="编组-2" transform="translate(8.882353, 8.305882)"></g>
            <g id="图形">
                <rect id="矩形" x="0" y="0" width="16" height="16"></rect>
            </g>
        </g>
        <polygon id="路径-49" fill="#262626" fill-rule="nonzero" points="5.43333334 7.39907696 7.60610083 3.008401 10.1793333 9.31607696 10.7588065 7.4 14.0666667 7.4 14.0666667 8.6 11.6493333 8.59907696 10.3480742 12.9068188 7.50033334 5.92807696 6.17940743 8.6 1.93333334 8.6 1.93333334 7.4"></polygon>
        <path d="M15,10 L15,15 L1,15 L1,10 L2.2,10 L2.2,13.8 L13.8,13.8 L13.8,10 L15,10 Z M15,1 L15,6.375 L13.8,6.375 L13.8,2.2 L2.2,2.2 L2.2,6.375 L1,6.375 L1,1 L15,1 Z" id="形状结合" fill="#262626" fill-rule="nonzero"></path>
    </g>
</svg>