<?xml version="1.0" encoding="UTF-8"?>
<svg width="16px" height="16px" viewBox="0 0 16 16" version="1.1" xmlns="http://www.w3.org/2000/svg" xmlns:xlink="http://www.w3.org/1999/xlink">
    <title>Dashboard-third menu</title>
    <g id="Dashboard-third-menu" stroke="none" stroke-width="1" fill="none" fill-rule="evenodd">
        <g id="Dashboard">
            <rect id="矩形" x="0" y="0" width="16" height="16"></rect>
            <path d="M8,2.3 C11.8107648,2.3 14.9,5.38923523 14.9,9.2 C14.9,9.71203127 14.8441228,10.2172269 14.7343484,10.7090678 C14.6621655,11.0324813 14.3414713,11.2361439 14.0180578,11.163961 C13.6946444,11.0917781 13.4909818,10.7710839 13.5631647,10.4476704 C13.6538178,10.0415016 13.7,9.62396028 13.7,9.2 C13.7,6.05197693 11.1480231,3.5 8,3.5 C4.85197693,3.5 2.3,6.05197693 2.3,9.2 C2.3,10.3267871 2.62739538,11.4020625 3.22810962,12.318577 L3.379,12.538 L11.9526024,12.5378257 C12.2839733,12.5377628 12.5526534,12.8063409 12.5527163,13.1377117 C12.5527792,13.4690826 12.2842011,13.7377627 11.9528302,13.7378256 L3.08330471,13.7385301 C2.90118437,13.7385301 2.72887358,13.6560173 2.61492016,13.5139524 C1.64024059,12.2988262 1.1,10.7901149 1.1,9.2 C1.1,5.38923523 4.18923523,2.3 8,2.3 Z M10.462239,6.79431105 C10.6280411,6.96011313 10.6512498,7.22087771 10.5173354,7.41335526 L8.9276671,9.69821498 C8.61598247,10.1462051 8.00014442,10.2567025 7.55215433,9.94501783 C7.50411929,9.91159793 7.45914775,9.87397729 7.41776989,9.83259943 C7.03263778,9.44746732 7.03263778,8.8230448 7.41776989,8.43791269 C7.45952349,8.39615909 7.50494271,8.35823985 7.55348022,8.32461194 L9.84274008,6.73855965 C10.0355705,6.60496224 10.2963598,6.6284318 10.462239,6.79431105 Z M13.1829329,8.6 L13.1829329,9.8 L11.8979261,9.8 L11.8979261,8.6 L13.1829329,8.6 Z M4.10207387,8.6 L4.10207387,9.8 L2.8170671,9.8 L2.8170671,8.6 L4.10207387,8.6 Z M11.2406229,5.11084893 L12.0891511,5.95937707 L11.1805141,6.86801407 L10.3319859,6.01948593 L11.2406229,5.11084893 Z M4.75937707,5.11084893 L5.66801407,6.01948593 L4.81948593,6.86801407 L3.91084893,5.95937707 L4.75937707,5.11084893 Z M8.6,4.0170671 L8.6,5.30207387 L7.4,5.30207387 L7.4,4.0170671 L8.6,4.0170671 Z" id="形状结合" fill="#262626" fill-rule="nonzero"></path>
        </g>
    </g>
</svg>