<?xml version="1.0" encoding="UTF-8"?>
<svg width="16px" height="16px" viewBox="0 0 16 16" version="1.1" xmlns="http://www.w3.org/2000/svg" xmlns:xlink="http://www.w3.org/1999/xlink">
    <title>Dashboard list-third menu</title>
    <g id="Dashboard-list-third-menu" stroke="none" stroke-width="1" fill="none" fill-rule="evenodd">
        <g id="Dashboard-list">
            <rect id="矩形" x="0" y="0" width="16" height="16"></rect>
            <path d="M2,1.9 C2.33137085,1.9 2.6,2.16862915 2.6,2.5 L2.6,12.5 C2.6,12.7209139 2.7790861,12.9 3,12.9 L13.9853171,12.9 C14.3166879,12.9 14.5853171,13.1686292 14.5853171,13.5 C14.5853171,13.8313708 14.3166879,14.1 13.9853171,14.1 L3,14.1 C2.1163444,14.1 1.4,13.3836556 1.4,12.5 L1.4,2.5 C1.4,2.16862915 1.66862915,1.9 2,1.9 Z" id="路径-4" fill="#262626" fill-rule="nonzero"></path>
            <polygon id="路径-20" fill="#262626" transform="translate(8.380425, 8.192308) scale(-1, 1) translate(-8.380425, -8.192308) " points="3.30350159 8.42307692 3.30350159 12.1153846 13.4573477 12.1153846 13.4573477 6.11538462 10.3330874 4.26923077 7.98989212 7.5 5.25616431 6.57692308"></polygon>
        </g>
    </g>
</svg>