<?xml version="1.0" encoding="UTF-8"?>
<svg width="16px" height="16px" viewBox="0 0 16 16" version="1.1" xmlns="http://www.w3.org/2000/svg" xmlns:xlink="http://www.w3.org/1999/xlink">
    <title>Data source management-third menu</title>
    <g id="Data-source-management-third-menu" stroke="none" stroke-width="1" fill="none" fill-rule="evenodd">
        <g id="Data-source-management">
            <rect id="矩形" x="0" y="0" width="16" height="16"></rect>
            <path d="M7.95833333,0.9 C11.4399183,0.9 14.5166667,1.93287521 14.5166667,3.39583333 C14.5166667,4.85879146 11.4399183,5.89166667 7.95833333,5.89166667 C5.80703274,5.89166667 3.8103031,5.49730376 2.59851283,4.85079117 L2.6,6.641 L2.6638027,6.69043117 C3.62700422,7.39823405 5.51316954,7.8948489 7.65125176,7.9385333 L7.95833333,7.94166667 C10.2713013,7.94166667 12.3315354,7.40965439 13.3181479,6.64132246 L13.3166667,6.53316667 C13.3166667,6.20179582 13.5852958,5.93316667 13.9166667,5.93316667 C14.2480375,5.93316667 14.5166667,6.20179582 14.5166667,6.53316667 L14.5166667,12.483375 C14.5166667,12.5745213 14.495901,12.6644697 14.4559459,12.7463919 L14.3807777,12.9005137 C13.7411468,14.2135512 11.0119109,15.1 7.95833333,15.1 C4.90504592,15.1 2.17626795,14.2136425 1.53601242,12.9007669 L1.46072075,12.7463919 C1.42076571,12.6644697 1.4,12.5745213 1.4,12.483375 L1.4,3.28804167 C1.4,3.17436888 1.43161095,3.06807923 1.48652179,2.97748377 C2.00705714,1.74031361 4.81801434,0.9 7.95833333,0.9 Z M7.95833333,12.3916667 C5.79838154,12.3916667 3.80756582,11.9497395 2.59917018,11.2342579 L2.6,12.345 L2.61458051,12.3747528 C2.97546293,13.11476 5.16568243,13.8476591 7.68699411,13.897324 L7.95833333,13.9 C10.5922882,13.9 12.9287591,13.1411203 13.3020957,12.3747331 L13.316,12.345 L13.3174965,11.2342579 C12.1091008,11.9497395 10.1182851,12.3916667 7.95833333,12.3916667 Z M7.95833333,9.14166667 C5.85267485,9.14166667 3.91256905,8.73918128 2.59960566,8.05387934 L2.6,9.625 C2.6,10.2506481 5.07707921,11.1916667 7.95833333,11.1916667 C10.8395875,11.1916667 13.3166667,10.2506481 13.3166667,9.625 L13.3175365,8.05372704 C12.0042171,8.73921579 10.0642896,9.14166667 7.95833333,9.14166667 Z M7.95833333,2.1 C5.13390701,2.1 2.6,2.95064145 2.6,3.39583333 C2.6,3.84102522 5.13390701,4.69166667 7.95833333,4.69166667 C10.7827597,4.69166667 13.3166667,3.84102522 13.3166667,3.39583333 C13.3166667,2.95064145 10.7827597,2.1 7.95833333,2.1 Z" id="形状" fill="#262626" fill-rule="nonzero"></path>
        </g>
    </g>
</svg>