<?xml version="1.0" encoding="UTF-8"?>
<svg width="16px" height="16px" viewBox="0 0 16 16" version="1.1" xmlns="http://www.w3.org/2000/svg" xmlns:xlink="http://www.w3.org/1999/xlink">
    <title>database-alteration-task-third-menu</title>
    <g id="database-alteration-task-third-menu" stroke="none" stroke-width="1" fill="none" fill-rule="evenodd">
        <rect id="矩形" fill="#000000" opacity="0" x="0" y="0" width="16" height="16"></rect>
        <g id="infrastructure备份" transform="translate(1.000000, 0.500000)" fill="#262626" fill-rule="nonzero">
            <path d="M0,8.64504069 L1.05245276,9.85343592 C1.26044881,10.0922509 1.52751811,10.293286 1.86373395,10.4549442 C2.78692858,10.8987686 3.93338556,11.2191266 5.19513782,11.3806684 C5.34946801,11.4004272 5.50525668,11.4177781 5.66231006,11.4326864 C5.99219796,11.4640012 6.23423929,11.7568138 6.20292451,12.0867017 C6.17160972,12.4165896 5.87879709,12.658631 5.5489092,12.6273162 C5.37886471,12.6111746 5.21007749,12.5923761 5.04274609,12.5709527 C3.65893385,12.3937836 2.38893728,12.0389046 1.34376893,11.5364415 L1.195,11.45849 L1.19363701,11.8356502 L1.20426556,11.9080484 C1.25562249,12.2578684 1.74966561,12.7504148 2.70365452,13.1796171 C3.6332398,13.5977943 4.84577895,13.8794922 6.17437806,13.9690882 C6.50499799,13.991384 6.75494405,14.2774788 6.73264822,14.6080987 C6.71035239,14.9387186 6.42425764,15.1886647 6.09363772,15.1663688 C4.62892393,15.0675938 3.27766536,14.7536684 2.2113278,14.2739728 C0.92173983,13.6937835 0.139000147,12.9134152 0.0169917865,12.0823498 L0,11.9228 L0,8.64504069 Z M10.6,8.1 C12.5329966,8.1 14.1,9.66700338 14.1,11.6 C14.1,13.5329966 12.5329966,15.1 10.6,15.1 C8.66700338,15.1 7.1,13.5329966 7.1,11.6 C7.1,9.66700338 8.66700338,8.1 10.6,8.1 Z M10.6,9.1 C9.21928813,9.1 8.1,10.2192881 8.1,11.6 C8.1,12.9807119 9.21928813,14.1 10.6,14.1 C11.9807119,14.1 13.1,12.9807119 13.1,11.6 C13.1,10.2192881 11.9807119,9.1 10.6,9.1 Z M12.2110594,10.5158696 L12.9145227,11.2266012 L12.5591569,11.5783328 L10.653474,13.4645273 C10.465445,13.6506335 10.1649859,13.6580587 9.96799354,13.4814675 L8.84224608,12.472306 L8.46994011,12.1385572 L9.13743773,11.3939452 L9.5097437,11.727694 L10.2845287,12.4228231 L11.8556936,10.8676013 L12.2110594,10.5158696 Z M14.2002378,4.14481537 L14.2,5.74757904 L14.199688,7.85007904 C14.1996388,8.18144988 13.9309698,8.45003917 13.599599,8.44998999 C13.2682281,8.44994082 12.9996388,8.18127181 12.999688,7.84990096 L12.999,6.96149 L12.8561778,7.03643708 C11.4033026,7.73496488 9.52817832,8.14312227 7.52995456,8.19447203 L7.0999886,8.19999 C4.94189287,8.19994899 2.90050026,7.78485997 1.34378974,7.03644145 L1.199,6.96049 L1.19999989,7.84962459 C1.20018637,8.15582431 1.5682233,8.5981167 2.3804939,9.02268822 L2.56137922,9.11334055 C3.50159803,9.5653332 4.76604621,9.87264577 6.16053223,9.96814627 C6.49112872,9.99078697 6.74077622,10.2771423 6.71813553,10.6077388 C6.69549483,10.9383353 6.40913952,11.1879828 6.07854303,11.1653421 C4.53919037,11.0599205 3.12694762,10.7166878 2.04142119,10.1948412 C0.730966835,9.56475137 0.000534263179,8.72743152 0,7.84999 L0,4.14498909 L1.05245948,5.35343363 C1.26046019,5.59226213 1.52752254,5.79329406 1.86374306,5.95493855 C3.24873251,6.62079886 5.11339503,6.99995225 7.0999886,6.99999 C9.08664227,6.99995225 10.951283,6.6208001 12.3362361,5.95492854 C12.6724577,5.7932995 12.9395061,5.59228118 13.1475566,5.35341521 L14.2002378,4.14481537 Z M7.0996776,0 C9.02689306,0 10.8304117,0.366826926 12.1582282,1.00520026 C13.4688671,1.63532573 14.199376,2.47280523 14.199376,3.35 C14.199376,4.22719477 13.4688671,5.06467427 12.1582247,5.69480145 C10.8304117,6.33317307 9.02689306,6.7 7.0996776,6.7 C5.17245589,6.7 3.36891626,6.33317057 2.04112014,5.69480145 C0.730478409,5.06468524 0,4.22720852 0,3.35 C0,2.47279148 0.730478409,1.63531476 2.04111829,1.00519943 C3.36891626,0.366829434 5.17245589,0 7.0996776,0 Z M7.0996776,1.2 C5.34396397,1.2 3.71717196,1.53088 2.56107346,2.08670145 C1.62235711,2.53800739 1.2,3.02223012 1.2,3.35 C1.2,3.67776988 1.62235711,4.16199261 2.56107531,4.61329943 C3.71717196,5.16912 5.34396397,5.5 7.0996776,5.5 C8.85538553,5.5 10.4821576,5.16912247 11.6382678,4.61330026 C12.5769869,4.16198539 12.999376,3.67774455 12.999376,3.35 C12.999376,3.02225545 12.5769869,2.53801461 11.6382713,2.08670145 C10.4821576,1.53087753 8.85538553,1.2 7.0996776,1.2 Z" id="形状结合"></path>
        </g>
        <g id="编组" transform="translate(8.500000, 8.500000)"></g>
    </g>
</svg>