<?xml version="1.0" encoding="UTF-8"?>
<svg width="16px" height="16px" viewBox="0 0 16 16" version="1.1" xmlns="http://www.w3.org/2000/svg" xmlns:xlink="http://www.w3.org/1999/xlink">
    <title>db2-third-menu</title>
    <g id="db2-third-menu" stroke="none" stroke-width="1" fill="none" fill-rule="evenodd">
        <rect id="矩形" fill-opacity="0" fill="#F0F0F0" x="0" y="0" width="16" height="16"></rect>
        <g id="DB2" transform="translate(0.000000, 1.250000)">
            <rect id="矩形" fill-opacity="0" fill="#D8D8D8" x="1.27780639" y="0" width="13.4505935" height="13.4505935"></rect>
            <path d="M0,10.0799197 L0,3.47500418 L2.15348604,3.47500418 C4.36582511,3.47500418 5.46798194,4.55040963 5.46798194,6.69854539 C5.46798194,7.71777295 5.16034108,8.54171543 4.53703394,9.15699716 C3.9137268,9.77227888 3.1165357,10.08527 2.14011035,10.08527 L0,10.08527 L0,10.0799197 L0,10.0799197 Z M1.32954355,4.62263835 L1.32954355,8.9269353 L2.05450594,8.9269353 C2.68583849,8.9269353 3.17806387,8.72629995 3.53920749,8.33037954 C3.90035111,7.92910884 4.07958535,7.39408126 4.07958535,6.71459622 C4.07958535,6.05918743 3.88965056,5.54556094 3.51780639,5.17639191 C3.14061194,4.80722287 2.65641197,4.62531349 2.05450594,4.62531349 L1.32954355,4.62531349 L1.32954355,4.62263835 Z M6.51931115,10.0799197 L6.51931115,3.47500418 L8.73165023,3.47500418 C9.40846012,3.47500418 9.93278716,3.61143621 10.3019562,3.88430028 C10.6711252,4.15716435 10.8503595,4.5343588 10.8503595,5.01855877 C10.8503595,5.37702725 10.7353285,5.69269353 10.5079418,5.96020732 C10.2805551,6.22772112 9.99431533,6.41498077 9.6465474,6.51931115 L9.6465474,6.53803712 C10.0799197,6.59689015 10.4303628,6.76542384 10.6978766,7.0516636 C10.9627153,7.33790336 11.0964722,7.69369671 11.0964722,8.12171878 C11.0964722,8.72362481 10.8958368,9.19979936 10.491891,9.55559271 C10.0879452,9.91138606 9.53954188,10.0879452 8.84400602,10.0879452 L6.51931115,10.0879452 L6.51931115,10.0799197 Z M7.84617957,4.52633339 L7.84617957,6.16084267 L8.47751212,6.16084267 C8.78247785,6.16084267 9.01788998,6.08326367 9.19444909,5.92810567 C9.37100819,5.77294767 9.45661261,5.55893663 9.45661261,5.28072229 C9.45661261,4.77512122 9.10884467,4.52098311 8.41063367,4.52098311 L7.84617957,4.52633339 L7.84617957,4.52633339 Z M7.84617957,7.21484702 L7.84617957,9.0259154 L8.63534526,9.0259154 C8.9697375,9.0259154 9.23190102,8.94298612 9.41916068,8.77980271 C9.60642033,8.61661929 9.7027253,8.38655743 9.7027253,8.0949674 C9.7027253,7.81675305 9.60909547,7.60006688 9.41916068,7.44490888 C9.22922588,7.28975088 8.96438723,7.21217188 8.61661929,7.21217188 L7.84617957,7.21484702 Z M13.3569637,8.93763585 L16,8.93763585 L16,10.08527 L11.8562113,10.08527 L11.8562113,9.59304464 C11.8562113,9.24795185 11.9150644,8.93228557 12.0354456,8.65139609 C12.1558268,8.3705066 12.3190102,8.10031767 12.527671,7.85420498 C12.7390069,7.60809229 13.0600234,7.32185253 13.5014212,6.99013543 C13.905367,6.67179401 14.1835813,6.38822939 14.3467648,6.14479184 C14.5099482,5.89867915 14.5875272,5.63919077 14.5875272,5.36097643 C14.5875272,4.76442067 14.2825614,4.47015549 13.6699549,4.47015549 C13.1349273,4.47015549 12.6239759,4.69754222 12.1344257,5.15231567 L12.1344257,3.92175222 C12.6801538,3.5472329 13.2874101,3.36264839 13.9695703,3.36264839 C14.5928774,3.36264839 15.0851028,3.53118208 15.4462464,3.86824946 C15.8073901,4.20531684 15.9919746,4.6681157 15.9919746,5.26199632 C15.9919746,5.59371343 15.941147,5.89065374 15.8341414,6.15281725 C15.7324862,6.41765591 15.5773282,6.66644374 15.379368,6.90453101 C15.1814078,7.13726802 14.8657415,7.4181575 14.4270189,7.74719946 C14.0070222,8.06554088 13.7234576,8.31165357 13.5790002,8.48553754 C13.4345427,8.6594215 13.3569637,8.80387895 13.3569637,8.93763585 L13.3569637,8.93763585 Z" id="形状" fill="#262626" fill-rule="nonzero"></path>
        </g>
    </g>
</svg>