<?xml version="1.0" encoding="UTF-8"?>
<svg width="16px" height="16px" viewBox="0 0 16 16" version="1.1" xmlns="http://www.w3.org/2000/svg" xmlns:xlink="http://www.w3.org/1999/xlink">
    <title>dependent resources-third menu</title>
    <g id="dependent-resources-third-menu" stroke="none" stroke-width="1" fill="none" fill-rule="evenodd">
        <g id="dependent-resources">
            <rect id="矩形" x="0" y="0" width="16" height="16"></rect>
            <path d="M14,4.6 C14.3313708,4.6 14.6,4.86862915 14.6,5.2 L14.6,14 C14.6,14.3313708 14.3313708,14.6 14,14.6 L5.2,14.6 C4.86862915,14.6 4.6,14.3313708 4.6,14 L4.6,12.8 C4.6,12.4686292 4.86862915,12.2 5.2,12.2 C5.53137085,12.2 5.8,12.4686292 5.8,12.8 L5.8,13.4 L13.4,13.4 L13.4,5.8 L8.8,5.8 C8.50176624,5.8 8.25435325,5.58241039 8.20785299,5.29732312 L8.2,5.2 C8.2,4.86862915 8.46862915,4.6 8.8,4.6 L14,4.6 Z M4.73195638,3.88342824 L12.1165718,11.2680436 C12.3508863,11.5023582 12.3508863,11.8822572 12.1165718,12.1165718 C11.8822572,12.3508863 11.5023582,12.3508863 11.2680436,12.1165718 L3.88342824,4.73195638 C3.64911366,4.4976418 3.64911366,4.11774281 3.88342824,3.88342824 C4.11774281,3.64911366 4.4976418,3.64911366 4.73195638,3.88342824 Z M10.8,1.4 C11.1313708,1.4 11.4,1.66862915 11.4,2 L11.4,3.2 C11.4,3.53137085 11.1313708,3.8 10.8,3.8 C10.4686292,3.8 10.2,3.53137085 10.2,3.2 L10.2,2.6 L2.6,2.6 L2.6,10.2 L7.2,10.2 C7.49823376,10.2 7.74564675,10.4175896 7.79214701,10.7026769 L7.8,10.8 C7.8,11.1313708 7.53137085,11.4 7.2,11.4 L2,11.4 C1.66862915,11.4 1.4,11.1313708 1.4,10.8 L1.4,2 C1.4,1.66862915 1.66862915,1.4 2,1.4 L10.8,1.4 Z" id="形状结合" fill="#262626" fill-rule="nonzero"></path>
        </g>
    </g>
</svg>