<?xml version="1.0" encoding="UTF-8"?>
<svg width="16px" height="16px" viewBox="0 0 16 16" version="1.1" xmlns="http://www.w3.org/2000/svg" xmlns:xlink="http://www.w3.org/1999/xlink">
    <title>deployment-orchestration-history-third-menu</title>
    <g id="deployment-orchestration-history-third-menu" stroke="none" stroke-width="1" fill="none" fill-rule="evenodd">
        <rect id="矩形" fill="#000000" opacity="0" x="0" y="0" width="16" height="16"></rect>
        <g id="编组-2备份" transform="translate(1.000000, 1.500000)">
            <g id="编组" fill="#262626" fill-rule="nonzero">
                <path d="M12.6000092,0 C12.9313801,0 13.2000092,0.26862915 13.2000092,0.6 C13.2000092,0.93137085 12.9313801,1.2 12.6000092,1.2 L0.600009246,1.2 C0.268638396,1.2 9.24578671e-06,0.93137085 9.24578671e-06,0.6 C9.24578671e-06,0.26862915 0.268638396,0 0.600009246,0 L12.6000092,0 Z M0.603286941,3.57541673 L12.6032869,3.64098075 C12.9346528,3.64279097 13.2018105,3.91288359 13.2000094,4.24424949 C13.1981901,4.5756154 12.9280975,4.84277306 12.5967316,4.84097199 L0.596731551,4.77540797 C0.265365646,4.77359775 -0.00179202226,4.50350513 9.053344e-06,4.17213923 C0.00182841944,3.84077332 0.271921035,3.57361565 0.603286941,3.57541673 Z M6.60000925,7.2 C6.9313801,7.2 7.20000925,7.46862915 7.20000925,7.8 C7.20000925,8.13137085 6.9313801,8.4 6.60000925,8.4 L0.600009246,8.4 C0.268638396,8.4 9.24578671e-06,8.13137085 9.24578671e-06,7.8 C9.24578671e-06,7.46862915 0.268638396,7.2 0.600009246,7.2 L6.60000925,7.2 Z M0.603286941,10.7754167 L6.60319741,10.8082028 C6.93456332,10.810013 7.20172099,11.0801057 7.19991991,11.4114716 C7.19810054,11.7428375 6.92800793,12.0099951 6.59664202,12.0081941 L0.596731551,11.975408 C0.265365646,11.9735977 -0.00179202226,11.7035051 9.053344e-06,11.3721392 C0.00182841944,11.0407733 0.271921035,10.7736157 0.603286941,10.7754167 Z M10.6000092,7.00409718 C12.2568635,7.00409718 13.6000092,8.34724293 13.6000092,10.0040972 C13.6000092,11.6609514 12.2568635,13.0040972 10.6000092,13.0040972 C8.943155,13.0040972 7.60000925,11.6609514 7.60000925,10.0040972 C7.60000925,8.34724293 8.943155,7.00409718 10.6000092,7.00409718 Z M10.6000092,8.00409718 C9.49543975,8.00409718 8.60000925,8.89952768 8.60000925,10.0040972 C8.60000925,11.1086667 9.49543975,12.0040972 10.6000092,12.0040972 C11.7045787,12.0040972 12.6000092,11.1086667 12.6000092,10.0040972 C12.6000092,8.89952768 11.7045787,8.00409718 10.6000092,8.00409718 Z M11.1000092,8.50409718 L11.1000092,9.75409718 L11.9620642,10.6592549 L12.3069065,11.0213099 L11.5827965,11.7109944 L11.2379543,11.3489395 L10.2379543,10.2990248 C10.149402,10.2060525 10.1000092,10.0825778 10.1000092,9.95418248 L10.1000092,8.50409718 L11.1000092,8.50409718 Z" id="形状结合"></path>
            </g>
            <g id="编组备份" transform="translate(0.000009, 7.200000)"></g>
        </g>
    </g>
</svg>