<?xml version="1.0" encoding="UTF-8"?>
<svg width="16px" height="16px" viewBox="0 0 16 16" version="1.1" xmlns="http://www.w3.org/2000/svg" xmlns:xlink="http://www.w3.org/1999/xlink">
    <title>deployment architecture-third menu</title>
    <g id="deployment-architecture-third-menu" stroke="none" stroke-width="1" fill="none" fill-rule="evenodd">
        <g id="deployment-architecture">
            <rect id="矩形" x="0" y="0" width="16" height="16"></rect>
            <path d="M10.4,1.8 C10.7313708,1.8 11,2.06862915 11,2.4 L11,5.6 C11,5.93137085 10.7313708,6.2 10.4,6.2 L8.6,6.2 L8.6,7.4 L12.8,7.4 C13.1313708,7.4 13.4,7.66862915 13.4,8 L13.4,9.8 L14.4,9.8 C14.6982338,9.8 14.9456468,10.0175896 14.992147,10.3026769 L15,10.4 L15,13.6 C15,13.9313708 14.7313708,14.2 14.4,14.2 L11.2,14.2 C10.8686292,14.2 10.6,13.9313708 10.6,13.6 L10.6,10.4 C10.6,10.0686292 10.8686292,9.8 11.2,9.8 L12.2,9.8 L12.2,8.6 L8.6,8.6 L8.6,9.8 L9.6,9.8 C9.89823376,9.8 10.1456468,10.0175896 10.192147,10.3026769 L10.2,10.4 L10.2,13.6 C10.2,13.9313708 9.93137085,14.2 9.6,14.2 L6.4,14.2 C6.06862915,14.2 5.8,13.9313708 5.8,13.6 L5.8,10.4 C5.8,10.0686292 6.06862915,9.8 6.4,9.8 L7.4,9.8 L7.4,8.6 L3.8,8.6 L3.8,9.8 L4.8,9.8 C5.09823376,9.8 5.34564675,10.0175896 5.39214701,10.3026769 L5.4,10.4 L5.4,13.6 C5.4,13.9313708 5.13137085,14.2 4.8,14.2 L1.6,14.2 C1.26862915,14.2 1,13.9313708 1,13.6 L1,10.4 C1,10.0686292 1.26862915,9.8 1.6,9.8 L2.6,9.8 L2.6,8 C2.6,7.66862915 2.86862915,7.4 3.2,7.4 L7.4,7.4 L7.4,6.2 L5.6,6.2 C5.26862915,6.2 5,5.93137085 5,5.6 L5,2.4 C5,2.06862915 5.26862915,1.8 5.6,1.8 L10.4,1.8 Z M4.2,11 L2.2,11 L2.2,12.999 L4.2,12.999 L4.2,11 Z M8.999,11 L7,11 L7,12.999 L8.999,12.999 L8.999,11 Z M13.799,11 L11.8,11 L11.8,12.999 L13.799,12.999 L13.799,11 Z M9.8,3 L6.2,3 L6.2,5 L9.8,5 L9.8,3 Z" id="形状" fill="#262626" fill-rule="nonzero"></path>
        </g>
    </g>
</svg>