<?xml version="1.0" encoding="UTF-8"?>
<svg width="16px" height="16px" viewBox="0 0 16 16" version="1.1" xmlns="http://www.w3.org/2000/svg" xmlns:xlink="http://www.w3.org/1999/xlink">
    <title>deployment strategy</title>
    <g id="deployment-strategy" stroke="none" stroke-width="1" fill="none" fill-rule="evenodd">
        <rect id="矩形" fill="#000000" opacity="0" x="0" y="0" width="16" height="16"></rect>
        <g id="编组-12" transform="translate(1.400000, 0.400000)">
            <path d="M6.80692747,0 C6.96346053,0 7.11380338,0.0611361169 7.22587682,0.170416233 L12.1608768,4.98241623 C12.2766708,5.09532413 12.3419801,5.25019666 12.342,5.41192617 L12.3428571,12.3774629 C12.3428571,13.20589 11.6712843,13.8774629 10.8428571,13.8774629 L1.5,13.8774629 C0.671572875,13.8774629 0,13.20589 0,12.3774629 L0,1.50064154 C0,0.672214412 0.671572875,0.000641536796 1.49992747,0.00064154118 L6.80692747,0 Z M6.562,1.199 L1.5,1.20064154 C1.33431458,1.20064154 1.2,1.33495611 1.2,1.50064154 L1.2,12.3774629 C1.2,12.5431483 1.33431458,12.6774629 1.5,12.6774629 L10.8428571,12.6774629 C11.0085426,12.6774629 11.1428571,12.5431483 11.1428571,12.3775367 L11.142,5.665 L6.562,1.199 Z M9.42142857,6.79179583 L9.42142857,7.99179583 L2.39081633,7.99179583 L2.39081633,6.79179583 L9.42142857,6.79179583 Z M7.16632653,3.16984687 L7.16632653,4.36984687 L2.39081633,4.36984687 L2.39081633,3.16984687 L7.16632653,3.16984687 Z" id="形状结合" fill="#262626" fill-rule="nonzero"></path>
            <polygon id="多边形备份-4" fill="#262626" points="9.88571429 6.93905221 13.1023801 8.85428916 13.1023801 12.6847631 9.88571429 14.6 6.6690485 12.6847631 6.6690485 8.85428916"></polygon>
            <path d="M9.98511861,9.65551393 L9.98457143,11.3345139 L11.4773801,12.1759319 L11.2452372,12.5680194 L9.75257143,11.7275139 L8.26071429,12.5680194 L8.02857143,12.1759319 L9.52057143,11.3345139 L9.52083289,9.65551393 L9.98511861,9.65551393 Z" id="形状结合备份-3" fill="#FFFFFF" transform="translate(9.752976, 11.111767) rotate(-180.000000) translate(-9.752976, -11.111767) "></path>
        </g>
    </g>
</svg>