<?xml version="1.0" encoding="UTF-8"?>
<svg width="16px" height="16px" viewBox="0 0 16 16" version="1.1" xmlns="http://www.w3.org/2000/svg" xmlns:xlink="http://www.w3.org/1999/xlink">
    <title>deployment-notification-third-menu</title>
    <g id="deployment-notification-third-menu" stroke="none" stroke-width="1" fill="none" fill-rule="evenodd">
        <rect id="矩形" fill="#000000" opacity="0" x="0" y="0" width="16" height="16"></rect>
        <g id="编组-19备份" transform="translate(1.000000, 1.000000)" fill="#262626" fill-rule="nonzero">
            <g id="编组-17">
                <path d="M7.1,0 C8.00503103,0 8.80865279,0.515352862 9.15092132,1.28413416 L9.192,1.387 L9.33102608,1.44214624 C11.2135166,2.22407648 12.4786304,3.93572478 12.5697303,5.87596364 L12.575,6.10081192 L12.575,9.174 L12.7043025,9.22635396 C13.5419606,9.59287821 14.1315009,10.3670068 14.19442,11.272668 L14.2,11.4337998 C14.2,11.8684984 13.8397944,12.2002776 13.4196313,12.2002776 L9.81844254,12.199765 C9.81402208,12.2292266 9.80833862,12.2609549 9.80833862,12.2901953 C9.69823063,13.5950674 8.51803033,14.6015996 7.1,14.6000038 C5.68196967,14.6015996 4.50176937,13.5950674 4.39166138,12.2901953 C4.39596078,12.2741478 4.38933718,12.2336812 4.38711875,12.1999699 L0.780368653,12.2002776 C0.583275287,12.2002776 0.391722638,12.1270399 0.245857296,11.9923963 C0.0903993548,11.8488981 0,11.647413 0,11.4337851 C0,10.4641916 0.603662681,9.6179685 1.49254725,9.2278757 L1.625,9.174 L1.625,6.10082184 C1.62496642,4.06876604 2.91407996,2.25415077 4.86897392,1.44214624 L5.007,1.387 L5.04907868,1.28413416 C5.36995543,0.563401693 6.09631841,0.0654090626 6.93158295,0.00597534496 L7.1,0 Z M7.1,1.2 C6.58894912,1.2 6.16641569,1.52956943 6.08792903,1.95787382 C6.04808021,2.17533026 5.89187802,2.35325572 5.68141191,2.42092589 C3.96401689,2.97311176 2.82497277,4.45265232 2.825,6.10081192 L2.825,9.63046095 C2.825,9.92282023 2.61428131,10.1726178 2.32610249,10.2218815 C1.84107685,10.3047959 1.46182925,10.604249 1.29405458,10.9880259 L1.289,11 L12.91,11 L12.9052438,10.9867566 C12.751779,10.6373035 12.4232168,10.3587041 12.0032245,10.2495575 L11.8745675,10.2219957 C11.5860799,10.1730154 11.375,9.92307708 11.375,9.63046095 L11.375,6.10080201 C11.3750272,4.45265232 10.2359831,2.97311176 8.51858809,2.42092589 C8.30812198,2.35325572 8.1519198,2.17533026 8.11207097,1.95787382 C8.03358431,1.52956943 7.61105088,1.2 7.1,1.2 Z M9.4803024,3.82003664 C9.76114915,3.81994078 9.99816125,4.02449223 10.0332633,4.29726527 L10.0374527,4.36544706 L10.0374527,6.64046325 C10.0354977,6.92700065 9.80736768,7.16319487 9.51523094,7.1811451 C9.2230942,7.19909533 8.96658478,6.99267959 8.92804473,6.7086304 L8.92316703,6.64046325 L8.92316703,4.36546171 C8.92316703,4.22081123 8.98185933,4.08208393 9.08634291,3.97979922 C9.19082649,3.87751451 9.33253832,3.82003664 9.4803024,3.82003664 Z" id="形状结合"></path>
            </g>
        </g>
    </g>
</svg>