<?xml version="1.0" encoding="UTF-8"?>
<svg width="16px" height="16px" viewBox="0 0 16 16" version="1.1" xmlns="http://www.w3.org/2000/svg" xmlns:xlink="http://www.w3.org/1999/xlink">
    <title>deployment tasks 2</title>
    <g id="deployment-tasks" stroke="none" stroke-width="1" fill="none" fill-rule="evenodd">
        <rect id="矩形" fill="#000000" opacity="0" x="0" y="0" width="16" height="16"></rect>
        <path d="M12.3480537,9.25 C14.0876889,9.25 15.5,10.6479606 15.5,12.375 C15.5,14.1020394 14.0876889,15.5 12.3480537,15.5 C11.4899471,15.5 10.6851958,15.157702 10.0963165,14.5617026 C9.90223125,14.3652706 9.9041336,14.0486939 10.1005656,13.8546086 C10.2969975,13.6605233 10.6135743,13.6624257 10.8076596,13.8588576 C11.2102782,14.2663443 11.7596087,14.5 12.3480537,14.5 C13.5376774,14.5 14.5,13.5474556 14.5,12.375 C14.5,11.2025444 13.5376774,10.25 12.3480537,10.25 C11.4020516,10.25 10.599786,10.8523516 10.3108696,11.6886428 L10.5959005,11.4699838 C10.7157461,11.3773318 10.8805211,11.3829913 10.9932247,11.4745489 L11.0447882,11.5274285 C11.1528822,11.6672483 11.1271633,11.8682221 10.9873461,11.9763194 L10.1088234,12.6573348 C10.0466276,12.7480778 9.95528292,12.8172719 9.84828619,12.85142 L9.89262959,12.8226338 C9.78951273,12.9023529 9.65299481,12.9093455 9.54503316,12.8512191 C9.36950691,12.7961523 9.23598277,12.6464497 9.20363646,12.4619243 L8.62823898,11.7323418 C8.51872607,11.5936306 8.54239114,11.3924046 8.68109712,11.282885 C8.81980834,11.173372 9.02103436,11.1970371 9.13055062,11.3357457 L9.30480503,11.5582992 C9.66708292,10.2278792 10.893086,9.25 12.3480537,9.25 Z M8.20692747,0.4 C8.36346053,0.4 8.51380338,0.461136117 8.62587682,0.570416233 L13.5608768,5.38241623 C13.6766708,5.49532413 13.7419801,5.65019666 13.742,5.81192617 L13.7420083,5.87789796 L13.7423217,8.42660403 C13.7423217,8.75797488 13.4736926,9.02660403 13.1423217,9.02660403 C12.8109509,9.02660403 12.5423217,8.75797488 12.5423217,8.42660403 L12.542,6.065 L7.962,1.599 L2.9,1.60064154 C2.75798392,1.60064154 2.63901581,1.69932163 2.60792321,1.83185429 L2.6,1.90064154 L2.6,12.7774629 C2.6,12.9431483 2.73431458,13.0774629 2.9,13.0774629 L7.64303628,13.0774629 C7.97440713,13.0774629 8.24303628,13.346092 8.24303628,13.6774629 C8.24303628,14.0088337 7.97440713,14.2774629 7.64303628,14.2774629 L2.9,14.2774629 C2.07157288,14.2774629 1.4,13.60589 1.4,12.7774629 L1.4,1.90064154 C1.4,1.07221441 2.07157288,0.400641537 2.89992747,0.400641541 L8.20692747,0.4 Z M12.8492425,11.1169705 L12.8492425,12.1869705 L13.4729858,12.8846539 L13.8061347,13.2574968 L13.0604489,13.9237945 L12.7273,13.5509516 L11.9763996,12.710583 C11.8945093,12.6189356 11.8492425,12.5003375 11.8492425,12.3774341 L11.8492425,11.1169705 L12.8492425,11.1169705 Z M10.8214286,7.19179583 L10.8214286,8.39179583 L3.79081633,8.39179583 L3.79081633,7.19179583 L10.8214286,7.19179583 Z M8.56632653,3.56984687 L8.56632653,4.76984687 L3.79081633,4.76984687 L3.79081633,3.56984687 L8.56632653,3.56984687 Z" id="形状结合" fill="#262626" fill-rule="nonzero"></path>
    </g>
</svg>