<?xml version="1.0" encoding="UTF-8"?>
<svg width="16px" height="16px" viewBox="0 0 16 16" version="1.1" xmlns="http://www.w3.org/2000/svg" xmlns:xlink="http://www.w3.org/1999/xlink">
    <title>deployment tasks</title>
    <g id="deployment-tasks" stroke="none" stroke-width="1" fill="none" fill-rule="evenodd">
        <rect id="矩形" fill="#000000" opacity="0" x="0" y="0" width="16" height="16"></rect>
        <g id="编组" transform="translate(0.400000, 1.400000)">
            <path d="M12.85,8.35384615 C12.85,8.16584233 12.8398067,7.98018266 12.8199345,7.79737371 C12.6721451,6.43782558 11.9890296,5.23594754 10.9822107,4.40010668 M5.5550967,3.58848612 C4.12519568,4.15448325 3.09443184,5.2894853 2.61073849,6.74055229 M4.15555235,12.2550986 C4.45298496,12.5099029 4.77983573,12.7322743 5.1304228,12.9166186 C5.86650914,13.3036644 6.70723094,13.5230769 7.6,13.5230769 C8.08072216,13.5230769 8.54635366,13.4594602 8.98868433,13.3403106" id="形状" stroke="#262626" stroke-width="1.2" stroke-linecap="round" stroke-linejoin="round"></path>
            <path d="M7.6,0 C9.13742933,0 10.3875,1.23083881 10.3875,2.75384615 C10.3875,4.2768535 9.13742933,5.50769231 7.6,5.50769231 C6.06257067,5.50769231 4.8125,4.2768535 4.8125,2.75384615 C4.8125,1.23083881 6.06257067,0 7.6,0 Z M7.6,1.2 C6.72118355,1.2 6.0125,1.89778073 6.0125,2.75384615 C6.0125,3.60991158 6.72118355,4.30769231 7.6,4.30769231 C8.47881645,4.30769231 9.1875,3.60991158 9.1875,2.75384615 C9.1875,1.89778073 8.47881645,1.2 7.6,1.2 Z M2.7875,7.75384615 C4.32492933,7.75384615 5.575,8.98468496 5.575,10.5076923 C5.575,12.0306997 4.32492933,13.2615385 2.7875,13.2615385 C1.25007067,13.2615385 0,12.0306997 0,10.5076923 C0,8.98468496 1.25007067,7.75384615 2.7875,7.75384615 Z M2.7875,8.95384615 C1.90868355,8.95384615 1.2,9.65162688 1.2,10.5076923 C1.2,11.3637577 1.90868355,12.0615385 2.7875,12.0615385 C3.66631645,12.0615385 4.375,11.3637577 4.375,10.5076923 C4.375,9.65162688 3.66631645,8.95384615 2.7875,8.95384615 Z M12.4125,7.75384615 C13.9499293,7.75384615 15.2,8.98468496 15.2,10.5076923 C15.2,12.0306997 13.9499293,13.2615385 12.4125,13.2615385 C10.8750707,13.2615385 9.625,12.0306997 9.625,10.5076923 C9.625,8.98468496 10.8750707,7.75384615 12.4125,7.75384615 Z M12.4125,8.95384615 C11.5336836,8.95384615 10.825,9.65162688 10.825,10.5076923 C10.825,11.3637577 11.5336836,12.0615385 12.4125,12.0615385 C13.2913164,12.0615385 14,11.3637577 14,10.5076923 C14,9.65162688 13.2913164,8.95384615 12.4125,8.95384615 Z" id="形状结合" fill="#262626" fill-rule="nonzero"></path>
        </g>
    </g>
</svg>