<?xml version="1.0" encoding="UTF-8"?>
<svg width="16px" height="16px" viewBox="0 0 16 16" version="1.1" xmlns="http://www.w3.org/2000/svg" xmlns:xlink="http://www.w3.org/1999/xlink">
    <title>Destination analysis-third menu</title>
    <g id="Destination-analysis-third-menu" stroke="none" stroke-width="1" fill="none" fill-rule="evenodd">
        <g id="Destination-analysis">
            <g id="编组-2">
                <rect id="矩形" x="0" y="0" width="16" height="16"></rect>
                <path d="M5,4.06 C7.209139,4.06 9,5.850861 9,8.06 C9,10.269139 7.209139,12.06 5,12.06 C2.790861,12.06 1,10.269139 1,8.06 C1,5.850861 2.790861,4.06 5,4.06 Z M5.00398354,5.12918877 C3.38360644,5.12918877 2.07003126,6.44276396 2.07003126,8.06314106 C2.07003126,9.68351816 3.38360644,10.9970933 5.00398354,10.9970933 C6.62436065,10.9970933 7.93793583,9.68351816 7.93793583,8.06314106 C7.93793583,6.44276396 6.62436065,5.12918877 5.00398354,5.12918877 Z M9.90390018,7.51950091 L12.4859002,7.51860073 L12.4864721,6.61560073 L13.9609982,8.06184102 L12.4864721,9.50808131 L12.4859002,8.60360073 L9.90390018,8.60418112 L9.90390018,7.51950091 Z M9.90450416,4.99083448 L12.1401317,3.6990549 L11.689127,2.91674799 L13.6892242,3.43196579 L13.1353673,5.42170965 L12.6826317,4.63869246 L10.4468443,5.9301951 L9.90450416,4.99083448 Z M10.4468443,10.1934869 L12.683372,11.4837073 L13.1353673,10.7019724 L13.6892242,12.6917162 L11.689127,13.206934 L12.140872,12.4233449 L9.90450416,11.1328476 L10.4468443,10.1934869 Z" id="形状" fill="#262626" fill-rule="nonzero"></path>
            </g>
            <g id="编组" transform="translate(9.452554, 2.179485)"></g>
        </g>
    </g>
</svg>