<?xml version="1.0" encoding="UTF-8"?>
<svg width="16px" height="16px" viewBox="0 0 16 16" version="1.1" xmlns="http://www.w3.org/2000/svg" xmlns:xlink="http://www.w3.org/1999/xlink">
    <title>dm-third-menu</title>
    <g id="dm-third-menu" stroke="none" stroke-width="1" fill="none" fill-rule="evenodd">
        <rect id="矩形" fill-opacity="0" fill="#F0F0F0" x="0" y="0" width="16" height="16"></rect>
        <g id="DB2" transform="translate(1.000000, 1.500000)">
            <rect id="矩形" fill-opacity="0" fill="#D8D8D8" x="0.346962067" y="0" width="13" height="13"></rect>
            <path d="M2.23375161,4.83217979 C2.09642308,6.46456739 2.85342535,7.44472948 4.47590719,7.70205019 C6.75591003,8.06365175 7.18572782,9.02677446 6.36288631,11.5058658 C6.31793476,11.6412977 6.27582936,11.7683574 6.23656692,11.8870549 C3.60660985,12.5808713 1.26040805,12.1524502 0.365453481,10.6023435 C-0.532009237,9.04789243 0.277085333,6.79356082 2.20530766,4.85962485 Z M3.84178716,3.49218788 C3.53836254,5.63368216 4.23023568,6.88441226 5.91997939,7.1524005 L6.08833856,7.18195552 C7.84771015,7.52185422 8.44220054,8.650287 8.04707571,10.5565126 L8.02847123,10.6371844 L8.02006019,10.6459735 C8.01015672,10.6549354 8.00520289,10.6594208 8.00022545,10.6639569 L7.99255365,10.6815549 C7.98923471,10.6892363 7.98889761,10.6902687 7.98788631,10.6933658 L8.01465873,10.7021844 L8.00713884,10.7374996 L8.00409623,10.7484969 C7.97982753,10.727704 7.98023038,10.7253907 7.98090181,10.7215351 L7.97662765,10.7390649 C7.96794604,10.7752309 7.96794604,10.7752309 7.95480608,10.8292295 C7.92957852,10.9324187 7.92453301,10.9530566 7.90378966,11.0375489 L7.88466871,11.1154206 C7.85384063,11.2409458 7.84767502,11.2660508 7.8302251,11.3373482 C7.45495223,11.4973236 7.08065908,11.6344172 6.71051214,11.7497578 L6.74845292,11.6338402 C7.64359474,8.93691948 7.09425941,7.70598546 4.53954188,7.30081499 C2.96397272,7.05093449 2.37046239,6.08494367 2.71867291,4.30411179 L2.7029769,4.38994591 C2.99091115,4.13394137 3.29882128,3.8854774 3.62521066,3.64715344 Z M5.29892187,2.60679771 C4.77954602,4.92282565 5.4726526,6.27239024 7.37648401,6.54394147 C8.72633985,6.72579249 9.40763602,7.47053534 9.60656966,8.60980848 C9.72881906,9.30991858 9.63244575,10.1733806 9.54054789,10.4223868 L9.58088733,10.4368216 C9.48334769,10.4964955 9.38452913,10.5552457 9.28446207,10.6130195 C8.96800137,10.7957281 8.64932638,10.96274 8.33036476,11.1140574 C8.98775831,8.6547359 8.2932161,7.1174612 5.98361408,6.7511653 C4.42183618,6.50347205 3.87099361,5.30180687 4.33434397,3.02970993 L4.30474994,3.18315884 C4.47118211,3.07697295 4.64155625,2.97346634 4.81571207,2.87291744 C4.89961709,2.82447485 4.98367778,2.77713569 5.0678582,2.73089994 Z M6.88723643,1.90548128 C6.27864635,4.42832908 6.93873206,5.88793488 8.87736555,6.16445007 C10.2266166,6.34621962 10.891217,7.07436535 11.0654894,8.18643634 C11.1273729,8.58132903 11.1167602,9.01823512 11.076816,9.37111413 C10.7449102,9.64565517 10.389421,9.91032945 10.0124553,10.1613175 C10.0774935,9.73004816 10.103443,9.09359703 10.0067645,8.53992865 C9.77899683,7.23552614 8.96739875,6.34834684 7.43228513,6.14154514 C5.68906941,5.89289699 5.14642454,4.64476136 5.80380078,2.26323953 L5.77559713,2.36913552 C6.13125496,2.20062273 6.48725466,2.051623 6.84092385,1.92213314 Z M7.34663533,1.74967866 C10.1819303,0.854037723 12.7815031,1.23257216 13.7347207,2.88359346 C14.6896984,4.53766349 13.7123761,6.98419407 11.5105143,8.99391225 C11.5224641,8.71046662 11.5114971,8.40850081 11.4668411,8.12354061 C11.2660646,6.84234109 10.4688821,5.96893652 8.93316667,5.76205374 C7.19407619,5.51399399 6.66925907,4.19104782 7.37158874,1.65612491 Z" id="形状结合" fill="#262626"></path>
        </g>
    </g>
</svg>