<?xml version="1.0" encoding="UTF-8"?>
<svg width="16px" height="16px" viewBox="0 0 16 16" version="1.1" xmlns="http://www.w3.org/2000/svg" xmlns:xlink="http://www.w3.org/1999/xlink">
    <title>easy-analysis-third-menu</title>
    <g id="easy-analysis-third-menu" stroke="none" stroke-width="1" fill="none" fill-rule="evenodd">
        <rect id="矩形" fill-opacity="0" fill="#F0F0F0" x="0" y="0" width="16" height="16"></rect>
        <g id="编组-49" transform="translate(1.000000, 1.000000)" fill="#262626">
            <g id="分析-(4)" fill-rule="nonzero">
                <path d="M12.7692308,0 C13.3215155,0 13.7692308,0.44771525 13.7692308,1 L13.7690188,7.7835 C13.7690084,8.11515003 13.50015,8.384 13.1685,8.384 C12.8368992,8.384 12.5680836,8.11518441 12.5680836,7.78358358 C12.5680836,7.78355572 12.5680836,7.78352786 12.5680836,7.78350001 L12.569,1.2 L12.569,1.2 L1.2,1.2 L1.2,12.569 L7.78350001,12.5680836 C8.11510083,12.5680374 8.38395384,12.8368156 8.38399999,13.1684164 C8.384,13.1684443 8.384,13.1684721 8.384,13.1685 C8.384,13.50015 8.11515003,13.7690084 7.7835,13.7690188 L1,13.7692308 L1,13.7692308 C0.44771525,13.7692308 0,13.3215155 0,12.7692308 L0,1 C0,0.44771525 0.44771525,0 1,0 L12.7692308,0 Z" id="路径"></path>
                <path d="M12.9512426,12.1938462 C13.2314793,11.7772781 13.3905326,11.2698225 13.3905325,10.732071 C13.3905325,9.27029585 12.2014201,8.08118344 10.739645,8.08118344 C9.27786985,8.08118344 8.0887574,9.27029587 8.0887574,10.732071 C8.0887574,12.1938461 9.27786983,13.3829586 10.739645,13.3829586 C11.2773965,13.3829586 11.7848521,13.2239053 12.2014201,12.9436686 L13.0142387,13.7668416 C13.2207489,13.9759825 13.5577007,13.9781151 13.7668416,13.7716049 C13.7676405,13.770816 13.7684369,13.7700247 13.7692308,13.7692308 C13.97838,13.5600815 13.97838,13.2209836 13.7692308,13.0118343 L12.9512426,12.1938462 L12.9512426,12.1938462 Z M9.14911242,10.739645 C9.14911242,9.8610651 9.86106508,9.14911242 10.739645,9.14911242 C11.6182249,9.14911242 12.3301775,9.86106508 12.3301775,10.739645 C12.3301775,11.6182249 11.6182249,12.3301775 10.739645,12.3301775 C9.8610651,12.3301775 9.14911242,11.6182249 9.14911242,10.739645 Z" id="形状"></path>
            </g>
            <rect id="矩形" x="3" y="3" width="1.2" height="7" rx="0.6"></rect>
            <rect id="矩形备份-15" x="6.2" y="3" width="1.2" height="4" rx="0.6"></rect>
            <rect id="矩形备份-16" x="9.4" y="3" width="1.2" height="3" rx="0.6"></rect>
        </g>
    </g>
</svg>