<?xml version="1.0" encoding="UTF-8"?>
<svg width="16px" height="16px" viewBox="0 0 16 16" version="1.1" xmlns="http://www.w3.org/2000/svg" xmlns:xlink="http://www.w3.org/1999/xlink">
    <title>elasticsearch-third-menu</title>
    <g id="elasticsearch-third-menu" stroke="none" stroke-width="1" fill="none" fill-rule="evenodd">
        <rect id="矩形" fill-opacity="0" fill="#F0F0F0" x="0" y="0" width="16" height="16"></rect>
        <g id="elasticsearch" transform="translate(1.000000, 1.000000)">
            <rect id="矩形" fill-opacity="0" fill="#D8D8D8" x="0" y="0" width="14" height="14"></rect>
            <path d="M10.9481237,10.3963774 C11.5991119,10.3992088 12.2277397,10.6043826 12.7452713,10.9764668 C11.5384422,12.4475141 9.68856255,13.3999747 7.59887612,13.3999766 C6.31478214,13.403381 5.05833604,13.0348131 3.98341976,12.3368613 C3.19399802,11.8356139 2.52890748,11.1745266 2.03106902,10.402254 L6.29233744,10.4022535 Z M10.2859194,5.49416975 C10.6982849,5.49304466 11.0946673,5.65172109 11.3864627,5.93704496 C11.6731311,6.21735556 11.8348867,6.59753571 11.8337799,6.99937612 C11.8360237,7.39380811 11.676594,7.77228434 11.3927915,8.05213773 C11.1038999,8.33700933 10.710644,8.49662828 10.3022946,8.49774583 L1.21551167,8.49774583 C1.09530889,8.00712805 1.03543947,7.5033557 1.03755944,6.99596303 C1.03755944,6.47771021 1.096233,5.9754126 1.21430699,5.49417198 Z M7.01758175,0.62523999 C8.21519261,0.521483177 9.39423264,0.740500944 10.441324,1.22969662 C11.326769,1.64337191 12.1179121,2.25031572 12.7453135,3.01882657 C12.2413636,3.37895613 11.6191358,3.59554294 10.9507332,3.59554294 L2.03346458,3.59554294 C2.48902232,2.89063879 3.07668369,2.28588559 3.75746633,1.80816619 C4.69981648,1.14689941 5.8205909,0.728943088 7.01758175,0.62523999 Z" id="形状" stroke="#262626" stroke-width="1.2" fill-rule="nonzero"></path>
        </g>
    </g>
</svg>