<?xml version="1.0" encoding="UTF-8"?>
<svg width="16px" height="16px" viewBox="0 0 16 16" version="1.1" xmlns="http://www.w3.org/2000/svg" xmlns:xlink="http://www.w3.org/1999/xlink">
    <title>engine-room-third-menu</title>
    <g id="engine-room-third-menu" stroke="none" stroke-width="1" fill="none" fill-rule="evenodd">
        <rect id="矩形" fill-opacity="0" fill="#F0F0F0" x="0" y="0" width="16" height="16"></rect>
        <g id="机房类申请-(1)" transform="translate(0.500000, 1.850000)" fill="#262626" fill-rule="nonzero">
            <path d="M9.25,0 C9.80228475,0 10.25,0.44771525 10.25,1 L10.25,11.6737965 C10.25,12.2260812 9.80228475,12.6737965 9.25,12.6737965 L5.75,12.6737965 C5.19771525,12.6737965 4.75,12.2260812 4.75,11.6737965 L4.75,1 C4.75,0.44771525 5.19771525,0 5.75,0 L9.25,0 Z M9.05,1.2 L5.95,1.2 L5.95,11.473 L9.05,11.473 L9.05,1.2 Z M7.49740462,9.89933917 C7.87889251,9.89933917 8.19101895,10.2114656 8.19101895,10.5929535 C8.19101895,10.9744414 7.87889251,11.2865678 7.49740462,11.2865678 C7.11591674,11.2865678 6.80379029,10.9744414 6.80379029,10.5929535 C6.80379029,10.2114656 7.11591674,9.89933917 7.49740462,9.89933917 Z M8.5,4.45588235 L8.5,5.49630384 L6.5,5.49630384 L6.5,4.45588235 L8.5,4.45588235 Z M8.5,2.2695816 L8.5,3.3446838 L6.5,3.31000309 L6.5,2.2695816 L8.5,2.2695816 Z M11.548394,1.00593451 L11.637877,1.01756744 L14.2169305,1.59069043 C14.674468,1.69236544 15,2.09817884 15,2.56687749 L15,10.9892719 C15,11.4579706 14.674468,11.863784 14.2169305,11.965459 L11.637877,12.538582 C11.6022645,12.5464959 11.5658929,12.5504884 11.5294118,12.5504884 C11.2532694,12.5504884 11.0294118,12.3266308 11.0294118,12.0504884 L11.0294118,1.50566097 C11.0294118,1.46917979 11.0334044,1.43280819 11.0413182,1.39719574 C11.08791,1.18753282 11.2598357,1.03812249 11.4607795,1.01025677 L11.548394,1.00593451 Z M12.2294118,2.37735294 L12.2294118,11.1773529 L13.7994118,10.8283529 L13.7994118,2.72635294 L12.2294118,2.37735294 Z M13.5,5.33823529 L13.5,6.41333749 L12.5,6.37865678 L12.5,5.33823529 L13.5,5.33823529 Z M13.5,3.15193454 L13.5,4.22703674 L12.5,4.19235603 L12.5,3.15193454 L13.5,3.15193454 Z M3.45160596,1.00593451 L3.53922051,1.01025677 C3.74016425,1.03812249 3.91209001,1.18753282 3.95868177,1.39719574 C3.96659564,1.43280819 3.97058824,1.46917979 3.97058824,1.50566097 L3.97058824,12.0504884 C3.97058824,12.3266308 3.74673061,12.5504884 3.47058824,12.5504884 C3.43410706,12.5504884 3.39773546,12.5464959 3.36212301,12.538582 L0.783069542,11.965459 C0.325531987,11.863784 0,11.4579706 0,10.9892719 L0,2.56687749 C0,2.09817884 0.325531987,1.69236544 0.783069542,1.59069043 L3.36212301,1.01756744 L3.45160596,1.00593451 Z M2.77058824,2.37735294 L1.20058824,2.72635294 L1.20058824,10.8283529 L2.77058824,11.1773529 L2.77058824,2.37735294 Z M2.5,5.33823529 L2.5,6.41333749 L1.5,6.37865678 L1.5,5.33823529 L2.5,5.33823529 Z M2.5,3.15193454 L2.5,4.22703674 L1.5,4.19235603 L1.5,3.15193454 L2.5,3.15193454 Z" id="形状结合"></path>
        </g>
    </g>
</svg>