<?xml version="1.0" encoding="UTF-8"?>
<svg width="16px" height="16px" viewBox="0 0 16 16" version="1.1" xmlns="http://www.w3.org/2000/svg" xmlns:xlink="http://www.w3.org/1999/xlink">
    <title>enterprise-third-menu</title>
    <g id="enterprise-third-menu" stroke="none" stroke-width="1" fill="none" fill-rule="evenodd">
        <rect id="矩形" x="0" y="0" width="16" height="16"></rect>
        <path d="M14.5,13.8 C14.8313708,13.8 15.1,14.0686292 15.1,14.4 C15.1,14.7313708 14.8313708,15 14.5,15 L1.5,15 C1.16862915,15 0.9,14.7313708 0.9,14.4 C0.9,14.0686292 1.16862915,13.8 1.5,13.8 L14.5,13.8 Z" id="路径-22" fill="#262626" fill-rule="nonzero"></path>
        <path d="M6.99251199,1.34762163 C7.53150793,1.06734374 8.19566059,1.27707616 8.47593848,1.8160721 C8.55744607,1.97281747 8.6,2.14688924 8.6,2.32356011 L8.6,14 L7.4,14 L7.4,2.488 L3.81545891,4.3522335 C3.7095434,4.40730956 3.63519901,4.50588783 3.60969787,4.61951897 L3.6,4.70712022 L3.6,14 L2.4,14 L2.4,4.70712022 C2.4,4.1102227 2.73225811,3.56295365 3.26183562,3.28757334 L6.99251199,1.34762163 Z" id="路径-31" fill="#262626" fill-rule="nonzero"></path>
        <path d="M8.27681164,3.86766992 L12.7381644,6.18757334 C13.2677419,6.46295365 13.6,7.0102227 13.6,7.60712022 L13.6,14 L12.4,14 L12.4,7.60712022 C12.4,7.45789584 12.3169355,7.32107858 12.1845411,7.2522335 L7.72318836,4.93233008 L8.27681164,3.86766992 Z" id="路径-32" fill="#262626" fill-rule="nonzero"></path>
        <path d="M6,6.5 C6.27614237,6.5 6.5,6.72385763 6.5,7 C6.5,7.27614237 6.27614237,7.5 6,7.5 L5,7.5 C4.72385763,7.5 4.5,7.27614237 4.5,7 C4.5,6.72385763 4.72385763,6.5 5,6.5 L6,6.5 Z" id="路径-33" fill="#262626" fill-rule="nonzero"></path>
        <path d="M6,8.5 C6.27614237,8.5 6.5,8.72385763 6.5,9 C6.5,9.27614237 6.27614237,9.5 6,9.5 L5,9.5 C4.72385763,9.5 4.5,9.27614237 4.5,9 C4.5,8.72385763 4.72385763,8.5 5,8.5 L6,8.5 Z" id="路径-33备份" fill="#262626" fill-rule="nonzero"></path>
        <path d="M11,8.5 C11.2761424,8.5 11.5,8.72385763 11.5,9 C11.5,9.27614237 11.2761424,9.5 11,9.5 L10,9.5 C9.72385763,9.5 9.5,9.27614237 9.5,9 C9.5,8.72385763 9.72385763,8.5 10,8.5 L11,8.5 Z" id="路径-33备份-2" fill="#262626" fill-rule="nonzero"></path>
        <path d="M11,10.5 C11.2761424,10.5 11.5,10.7238576 11.5,11 C11.5,11.2761424 11.2761424,11.5 11,11.5 L10,11.5 C9.72385763,11.5 9.5,11.2761424 9.5,11 C9.5,10.7238576 9.72385763,10.5 10,10.5 L11,10.5 Z" id="路径-33备份-3" fill="#262626" fill-rule="nonzero"></path>
    </g>
</svg>