<?xml version="1.0" encoding="UTF-8"?>
<svg width="16px" height="16px" viewBox="0 0 16 16" version="1.1" xmlns="http://www.w3.org/2000/svg" xmlns:xlink="http://www.w3.org/1999/xlink">
    <title>error-code-analysis-third-menu</title>
    <g id="error-code-analysis-third-menu" stroke="none" stroke-width="1" fill="none" fill-rule="evenodd">
        <g id="编组" transform="translate(2, 2)" stroke="#262626" stroke-linecap="round" stroke-width="1.2">
            <path d="M9.00085286,0 L11,0 C11.5522847,-1.01453063e-16 12,0.44771525 12,1 L12,2.9973327 L12,2.9973327 M12,9.00888649 L12,11 C12,11.5522847 11.5522847,12 11,12 L9.00428358,12 L9.00428358,12 M2.99243842,12 L1,12 C0.44771525,12 -1.5440923e-16,11.5522847 0,11 L0,8.97358718 L0,8.97358718 M0,3.03683524 L0,1 C-2.8967998e-16,0.44771525 0.44771525,1.01453063e-16 1,0 L3.00795434,0 L3.00795434,0" id="形状"></path>
        </g>
        <path d="M9.96551724,5 L10.9993793,6.03510345 L9.034,8 L11,9.96551724 L9.96489655,10.9993793 L7.999,9.034 L6.03448276,11 L5,9.96551724 L6.965,8 L5,6.03448276 L6.03448276,5 L8,6.965 L9.96551724,5 Z" id="形状结合备份" fill="#000000"></path>
    </g>
</svg>