<?xml version="1.0" encoding="UTF-8"?>
<svg width="16px" height="16px" viewBox="0 0 16 16" version="1.1" xmlns="http://www.w3.org/2000/svg" xmlns:xlink="http://www.w3.org/1999/xlink">
    <title>ETCD-third menu</title>
    <g id="ETCD-third-menu" stroke="none" stroke-width="1" fill="none" fill-rule="evenodd">
        <rect id="矩形" fill-opacity="0" fill="#F0F0F0" x="0" y="0" width="16" height="16"></rect>
        <g id="icon_etcd" transform="translate(0.335823, 0.465066)" fill="#262626" fill-rule="nonzero">
            <path d="M9.86798331,0.000397813555 L10.5244973,0.28706971 L10.7103368,0.36821805 C11.7241669,0.811587528 12.6286918,1.47144584 13.358562,2.29937001 L13.4920858,2.44939681 L13.9660353,2.98192431 L13.3604163,3.35800843 L13.1892316,3.46431245 C13.0369169,3.55904192 12.8984578,3.67303951 12.7770038,3.80293685 L12.706177,3.8849337 L12.9552608,4.15715277 C13.1466085,4.37521263 13.329484,4.60063479 13.503467,4.83292094 L13.7577194,5.18643585 L13.8601852,5.33488516 L13.863806,5.5152274 C13.8725435,5.95041208 13.8561763,6.38549632 13.8148686,6.81832066 L13.772177,7.1849337 L13.8960343,7.21401646 C13.9557668,7.22529227 14.0157533,7.23381536 14.0757089,7.2395427 L14.2551986,7.24829451 L14.3232532,7.24785821 L14.6207224,7.22625751 L15.328612,7.1748542 L15.2614876,7.88142638 L15.2424446,8.08187777 C15.1368958,9.18476584 14.7889438,10.250705 14.2273421,11.1968478 L14.1273243,11.3703788 L13.7683267,11.9932396 L13.2197224,11.5286235 L13.0670621,11.3993333 C12.9288753,11.2827505 12.776433,11.1855851 12.6140055,11.1098289 L12.510177,11.0669337 L12.3345932,11.3801915 C12.1890354,11.6276909 12.0340473,11.8695835 11.8699582,12.105333 L11.6170402,12.454283 L11.5078726,12.5989962 L11.3368393,12.6590551 C10.9236041,12.8041642 10.5025508,12.925161 10.07581,13.0215211 L9.70617696,13.0969337 L9.71549955,13.2147798 C9.72994723,13.3338305 9.75493806,13.4515167 9.79027794,13.5663661 L9.85102525,13.7363284 L9.92803901,13.9233618 L10.1999495,14.5837158 L9.50260306,14.7376984 L9.24232588,14.7916641 L7.66449162,14.9628487 C7.11243011,14.9619878 6.56208182,14.9014041 6.02328614,14.7822063 L5.82625095,14.7386985 L5.12985892,14.5849267 L5.40050729,13.9251107 L5.47698995,13.738653 C5.54584448,13.5707269 5.59146148,13.3950812 5.61325369,13.2165278 L5.62117696,13.0989337 L5.25008698,13.0234913 C4.96447831,12.9591501 4.68140805,12.8837886 4.40151317,12.7975633 L3.98413202,12.660097 L3.81295392,12.6000275 L3.70373355,12.4551786 C3.44439251,12.1112386 3.20514735,11.7528877 2.98710883,11.3819358 L2.81217696,11.0699337 L2.71265343,11.1119754 C2.55140635,11.1874641 2.40024286,11.2841237 2.26352543,11.3998655 L2.10999802,11.5303888 L1.56121908,11.9969403 L1.20152973,11.3728793 L1.1051559,11.2055836 C0.540117047,10.2519593 0.1921297,9.18555243 0.0858696634,8.0814621 L0.0668662699,7.88142638 L0,7.17757091 L0.705357265,7.22609671 L0.920310044,7.24099416 C0.963113029,7.24476082 1.01197067,7.24668579 1.06680294,7.24668654 C1.18983158,7.24649255 1.31219528,7.23508381 1.43241889,7.21280346 L1.55317696,7.1839337 L1.51259447,6.81214074 C1.48583135,6.52161041 1.47029502,6.23010035 1.46603285,5.93826244 L1.46810113,5.50034116 L1.47242053,5.32077003 L1.57470298,5.17311247 C1.82196443,4.81615952 2.08946847,4.47396235 2.37581964,4.14817151 L2.62117696,3.8789337 L2.55379092,3.79999611 C2.47324499,3.71400678 2.38533199,3.63513535 2.29106915,3.56442619 L2.14503964,3.46461471 L1.9740091,3.35959596 L1.36223656,2.98394615 L1.8405102,2.44856522 L1.97260084,2.30071315 C2.7057863,1.47192809 3.60994121,0.811954245 4.62502823,0.365276983 L4.81006127,0.284762605 L5.46448465,0 L5.63258043,0.693616255 L5.67993332,0.889010762 C5.7223381,1.06315033 5.78744787,1.23011224 5.87302527,1.38582548 L5.92717696,1.4739337 L6.26226142,1.32191362 C6.52928541,1.20580909 6.80078178,1.10012844 7.07613704,1.00512435 L7.49198741,0.870657193 L7.66556023,0.818245646 L7.83911078,0.870730875 C8.25810915,0.99744453 8.66907886,1.1485362 9.06993939,1.32314752 L9.40517696,1.4769337 L9.46065987,1.38764839 C9.5178335,1.28405871 9.56586856,1.17560214 9.60407503,1.0635867 L9.65392707,0.893057878 L9.70093546,0.697022872 L9.86798331,0.000397813555 Z M4.68117696,1.6719337 L4.55085606,1.74154631 C4.10039893,1.99395779 3.681694,2.29965827 3.30341785,2.65244535 L3.19617696,2.7569337 L3.27941747,2.82971719 C3.48516428,3.02223526 3.66530984,3.24125301 3.8148771,3.48146263 L3.92124134,3.6655104 L4.13392728,4.06316243 L3.81109021,4.37802538 C3.44064899,4.73931666 3.09867551,5.12842407 2.78812612,5.5418509 L2.666,5.71 L2.66590489,5.9207388 C2.67162104,6.31213301 2.70001746,6.70286767 2.75095118,7.09097572 L2.80939205,7.47813537 L2.88494102,7.92052485 L2.48190793,8.11795946 C2.18859168,8.26164686 1.87601544,8.35950798 1.55477748,8.40901257 L1.34417696,8.4329337 L1.36989123,8.58058739 C1.46923996,9.08682378 1.63017116,9.57952373 1.84974135,10.0488212 L1.91517696,10.1799337 L2.0139178,10.121941 C2.26243853,9.98487864 2.52851026,9.88088742 2.80537802,9.81313159 L3.01494754,9.76915831 L3.45934867,9.69120248 L3.65759409,10.0965027 C3.88305498,10.5574432 4.14337431,11.0002856 4.43619977,11.4211977 L4.584,11.625 L4.55417696,11.5839337 L4.75480476,11.6507481 C5.13033234,11.7664343 5.51225041,11.860257 5.89863611,11.9317438 L6.2864398,11.9957678 L6.72865303,12.0600216 L6.79376237,12.5021097 C6.84643615,12.8597611 6.83832845,13.222153 6.77125942,13.5743284 L6.74417696,13.6939337 L6.82745916,13.7075814 C7.00751193,13.73215 7.18428132,13.7489805 7.3529568,13.7582497 L7.59929826,13.7665047 L8.57717696,13.6599337 L8.55739035,13.5722274 C8.50391149,13.290536 8.48806747,13.0023312 8.51078628,12.715242 L8.53507043,12.5002535 L8.60004162,12.0583589 L9.04200067,11.9938277 C9.55876793,11.9183737 10.068751,11.8031941 10.5674332,11.6494007 L10.927,11.53 L10.765177,11.5839337 L10.885047,11.4198041 C11.1049774,11.1038264 11.3066106,10.7754983 11.4889533,10.4364373 L11.6648291,10.0938585 L11.8627898,9.68941363 L12.3064377,9.76648895 C12.6601076,9.82793231 12.9995938,9.94745304 13.3118602,10.1190514 L13.412177,10.1789337 L13.4810481,10.0438041 C13.6993539,9.57724441 13.8598006,9.08574929 13.9587957,8.58037559 L13.983177,8.4339337 L13.7760072,8.41024082 C13.533553,8.37274104 13.2958884,8.30769272 13.0676869,8.21618713 L12.8428129,8.11590285 L12.439889,7.91746987 L12.5167501,7.47495921 C12.6055429,6.96375413 12.6548701,6.44666908 12.6643834,5.92828033 L12.664,5.552 L12.663177,5.7209337 L12.5430074,5.55230776 C12.3098754,5.24105126 12.0588697,4.94359106 11.7912581,4.66142956 L11.518158,4.38442327 L11.1961222,4.07018681 L11.4075736,3.67302193 C11.5749998,3.35854882 11.7924647,3.07518812 12.0502788,2.83334089 L12.137177,2.7569337 L12.0286905,2.65089316 C11.6520535,2.29916954 11.2342137,1.99434341 10.784385,1.74312091 L10.652177,1.6729337 L10.6079562,1.7774506 C10.487841,2.03389889 10.3342337,2.27399932 10.1507105,2.49126469 L10.0075147,2.64983079 L9.69336642,2.97536355 L9.29397151,2.76289138 C8.83389436,2.51813715 8.35556893,2.30980815 7.86339852,2.13972102 L7.663,2.075 L7.46752471,2.13950334 C7.09869839,2.26675717 6.7376253,2.41546214 6.38615434,2.58485681 L6.03795257,2.76111984 L5.63813354,2.97340097 L5.32424962,2.64721786 C5.07696182,2.39024036 4.87501815,2.09515825 4.72533683,1.77447243 L4.68117696,1.6719337 Z M9.16569509,5.9368442 C9.53521679,5.93644024 9.86855923,6.15877688 10.010156,6.50009318 C10.1517527,6.84140947 10.07369,7.2344196 9.81239851,7.49571106 C9.55110705,7.75700252 9.15809692,7.83506529 8.81678063,7.69346854 C8.47546433,7.55187178 8.25312769,7.21852934 8.25353165,6.84900764 C8.25408343,6.34546249 8.66214994,5.93739598 9.16569509,5.9368442 Z M6.1596583,5.93634452 C6.40184421,5.93621199 6.63416352,6.03229276 6.8055086,6.20345027 C6.97685369,6.37460779 7.07318885,6.60682172 7.07332159,6.84900764 C7.07359757,7.35333356 6.66498449,7.76239435 6.16065857,7.76267066 C5.65633264,7.76294668 5.24727181,7.35433365 5.24699545,6.85000772 C5.24671938,6.3456818 5.65533237,5.93662093 6.1596583,5.93634452 Z" id="形状结合"></path>
        </g>
    </g>
</svg>