<?xml version="1.0" encoding="UTF-8"?>
<svg width="16px" height="16px" viewBox="0 0 16 16" version="1.1" xmlns="http://www.w3.org/2000/svg" xmlns:xlink="http://www.w3.org/1999/xlink">
    <title>event-third menu</title>
    <g id="event-third-menu" stroke="none" stroke-width="1" fill="none" fill-rule="evenodd">
        <g id="event">
            <g id="编组-2">
                <rect id="矩形" x="0" y="0" width="16" height="16"></rect>
                <path d="M8,3.825 C10.7476166,3.825 12.975,6.05238337 12.975,8.8 L12.9752296,13.0627023 C13.5151065,13.1416916 13.9382395,13.5801679 13.9938045,14.127307 L14,14.25 L2,14.25 C2,13.6471278 2.44457498,13.1480917 3.02376706,13.0628495 L3.025,8.8 C3.025,6.05238337 5.25238337,3.825 8,3.825 Z M8,5.025 C5.91512507,5.025 4.225,6.71512507 4.225,8.8 L4.225,13.049 L11.775,13.049 L11.775,8.8 C11.775,6.78027741 10.1888572,5.13101831 8.194261,5.02991201 L8,5.025 Z M8.5574002,6.40061948 L8.59455624,6.41057203 C8.64261495,6.43211559 8.67117198,6.48231733 8.66512952,6.5346361 L8.37768694,8.54190322 L9.91151921,8.54190322 C9.95819369,8.54229277 10.0004655,8.56954264 10.020091,8.61189237 C10.0397164,8.65424209 10.0331819,8.7041095 10.0033076,8.7399729 L7.54192951,11.6095678 C7.50689207,11.6488888 7.4504144,11.6609715 7.40235569,11.639428 C7.35429698,11.6178844 7.32573995,11.5676827 7.33178241,11.5153639 L7.61922499,9.50809678 L6.08539271,9.50809678 C6.03871823,9.50770723 5.99644646,9.48045736 5.97682098,9.43810763 C5.95719549,9.39575791 5.96372999,9.3458905 5.99360433,9.3100271 L8.45498242,6.44043223 C8.47250114,6.42077172 8.49537992,6.40792078 8.51988635,6.40267791 L8.5574002,6.40061948 Z M13.8555445,4.34288476 L14.4555445,5.38211524 L12.94,6.25711524 L12.34,5.21788476 L13.8555445,4.34288476 Z M2.1,4.34288476 L3.61554446,5.21788476 L3.01554446,6.25711524 L1.5,5.38211524 L2.1,4.34288476 Z M11.3705484,2.05246255 L12.3977784,2.6727839 L11.5803145,4.14163604 L10.5530846,3.5213147 L11.3705484,2.05246255 Z M4.82187126,2.09197998 L5.65948918,3.50012772 L4.61863942,4.09731426 L3.7810215,2.68916652 L4.82187126,2.09197998 Z M8.6,1.58084435 L8.6,3.25 L7.4,3.25 L7.4,1.58084435 L8.6,1.58084435 Z" id="形状" fill="#262626"></path>
            </g>
            <g id="编组" transform="translate(1.992228, 2.800000)"></g>
        </g>
    </g>
</svg>