<?xml version="1.0" encoding="UTF-8"?>
<svg width="16px" height="16px" viewBox="0 0 16 16" version="1.1" xmlns="http://www.w3.org/2000/svg" xmlns:xlink="http://www.w3.org/1999/xlink">
    <title>event-bridge-third-menu</title>
    <g id="event-bridge-third-menu" stroke="none" stroke-width="1" fill="none" fill-rule="evenodd">
        <rect id="矩形" fill="#000000" opacity="0" x="0" y="0" width="16" height="16"></rect>
        <g id="编组" transform="translate(1.156304, 1.900000)" fill="#262626">
            <path d="M6.26591897,5.37777778 L6.26591897,6.37777778 L4.8212523,6.37777778 L4.82147453,11.2666667 L1.5992523,11.2666667 L1.5992523,10.2666667 L3.8212523,10.2657778 L3.8212523,6.37777778 L1.5992523,6.37777778 L1.5992523,5.37777778 L3.8212523,5.37777778 L3.8212523,1.87777778 L1.5992523,1.87777778 L1.5992523,0.877777778 L4.82147453,0.877777778 L4.8212523,5.37777778 L6.26591897,5.37777778 Z M12.0992523,0.877777778 L12.0992523,1.87777778 L9.8762523,1.87777778 L9.8762523,5.37777778 L12.0992523,5.37777778 L12.0992523,6.37777778 L9.8762523,6.37777778 L9.8762523,10.2657778 L12.0992523,10.2666667 L12.0992523,11.2666667 L8.87703008,11.2666667 L8.8762523,6.37777778 L7.43258564,6.37777778 L7.43258564,5.37777778 L8.8762523,5.37777778 L8.87703008,0.877777778 L12.0992523,0.877777778 Z" id="形状结合"></path>
            <polygon id="多边形" points="1.44524148 9.1 2.79524148 10.0808324 2.27958736 11.6678526 0.610895595 11.6678526 0.0952414798 10.0808324"></polygon>
            <polygon id="多边形备份" points="12.6659185 4.39 13.9498448 5.32282706 13.4594286 6.83217294 11.8724084 6.83217294 11.3819922 5.32282706"></polygon>
            <rect id="矩形" x="0.232585193" y="4.69" width="2.2" height="2.2"></rect>
            <polygon id="矩形备份" points="11.510363 0.1 13.710363 0.1 13.710363 2.3 11.510363 2.3"></polygon>
            <circle id="椭圆形备份-16" cx="6.84925142" cy="5.76666667" r="1.36111111"></circle>
            <polygon id="多边形备份-2" points="1.2 2.2394274e-14 2.4 0.692820323 2.4 2.07846097 1.2 2.77128129 2.62885666e-17 2.07846097 2.62885666e-17 0.692820323"></polygon>
            <polygon id="多边形" points="12.8666667 9.388889 14.0666667 10.0817093 14.0666667 11.46735 12.8666667 12.1601703 11.6666667 11.46735 11.6666667 10.0817093"></polygon>
        </g>
    </g>
</svg>