<?xml version="1.0" encoding="UTF-8"?>
<svg width="16px" height="16px" viewBox="0 0 16 16" version="1.1" xmlns="http://www.w3.org/2000/svg" xmlns:xlink="http://www.w3.org/1999/xlink">
    <title>event-flow-third-menu</title>
    <g id="event-flow-third-menu" stroke="none" stroke-width="1" fill="none" fill-rule="evenodd">
        <g id="编组-51" transform="translate(2.000000, 1.000000)" fill="#262626">
            <path d="M5.596,12.8 L1.4,12.8 C1.29043662,12.797872 1.20212804,12.7095634 1.2,12.6 L1.2,1.4 C1.2,1.3469567 1.22107137,1.29608628 1.25857864,1.258579 C1.29608592,1.22107172 1.3469567,1.2 1.4,1.2 L10.096,1.2 C10.2064569,1.2 10.296,1.28954305 10.296,1.4 L10.296,6.428 C10.296,6.75937085 10.5646292,7.028 10.896,7.028 C11.2273708,7.028 11.496,6.75937085 11.496,6.428 L11.496,1.4 C11.496,0.62680135 10.8691986,0 10.096,0 L1.4,0 C0.627713262,0.00219713064 0.00219713064,0.627713262 0,1.4 L0,12.6 C0.00219713064,13.3722867 0.627713262,13.9978029 1.4,14 L5.596,14 C5.92737085,14 6.196,13.7313708 6.196,13.4 C6.196,13.0686292 5.92737085,12.8 5.596,12.8 Z" id="路径" fill-rule="nonzero"></path>
            <rect id="矩形" x="4.5" y="3" width="4" height="1.2"></rect>
            <rect id="矩形备份-2" x="4.5" y="6" width="3" height="1.2"></rect>
            <rect id="矩形" x="2.5" y="3" width="1.2" height="1.2"></rect>
            <rect id="矩形备份-2" x="2.5" y="6" width="1.2" height="1.2"></rect>
            <path d="M9.0000015,7.5000015 C10.6568549,7.5000015 12.0000015,8.84314808 12.0000015,10.5000015 C12.0000015,12.1568549 10.6568549,13.5000015 9.0000015,13.5000015 C7.34314808,13.5000015 6.0000015,12.1568549 6.0000015,10.5000015 C5.99920592,9.70410834 6.31502031,8.94058377 6.87780204,8.37780204 C7.44058377,7.81502031 8.20410834,7.49920592 9.0000015,7.5000015 Z M9.25285852,11.4998581 L8.75828734,11.4998581 C8.69173424,11.5003252 8.63789731,11.5541621 8.63743026,11.6207152 L8.63743026,12.1152864 C8.63789731,12.1818395 8.69173424,12.2356764 8.75828734,12.2361435 L9.25285852,12.2361435 C9.28404948,12.240336 9.31550055,12.2305468 9.3388025,12.2093932 C9.36210444,12.1882397 9.37488084,12.1578791 9.3737156,12.1264293 L9.3737156,11.6207152 C9.37301966,11.5542581 9.31931564,11.5005541 9.25285852,11.4998581 Z M9.3737156,8.75271666 L8.6262874,8.75271666 C8.55776958,8.75852091 8.50518492,8.8159538 8.50542947,8.8847166 L8.61514455,11.0057155 C8.6158405,11.0721727 8.66954451,11.1258767 8.73600163,11.1265726 L9.25242995,11.1265726 C9.31888707,11.1258767 9.37259109,11.0721727 9.37328703,11.0057155 L9.49414411,8.8847166 C9.49655684,8.85105694 9.48482726,8.81802819 9.46205775,8.79315936 C9.43928824,8.76829054 9.40741931,8.75370106 9.3737156,8.75271666 Z" id="形状结合" fill-rule="nonzero"></path>
        </g>
    </g>
</svg>