<?xml version="1.0" encoding="UTF-8"?>
<svg width="16px" height="16px" viewBox="0 0 16 16" version="1.1" xmlns="http://www.w3.org/2000/svg" xmlns:xlink="http://www.w3.org/1999/xlink">
    <title>exchanges-third-menu</title>
    <g id="exchanges-third-menu" stroke="none" stroke-width="1" fill="none" fill-rule="evenodd">
        <rect id="矩形" fill-opacity="0" fill="#F0F0F0" x="0" y="0" width="16" height="16"></rect>
        <g id="交换数据" transform="translate(1.000000, 1.000000)">
            <rect id="矩形" fill-opacity="0" fill="#F0F0F0" x="0" y="0" width="14" height="14"></rect>
            <path d="M13.4964516,3.70290323 C13.8278225,3.70290323 14.0964516,3.97153238 14.0964516,4.30290323 L14.0964516,12.4964516 C14.0964516,13.3801072 13.3801072,14.0964516 12.4964516,14.0964516 L4.30290323,14.0964516 C3.97153238,14.0964516 3.70290323,13.8278225 3.70290323,13.4964516 C3.70290323,13.1650808 3.97153238,12.8964516 4.30290323,12.8964516 L12.4964516,12.8964516 C12.7173655,12.8964516 12.8964516,12.7173655 12.8964516,12.4964516 L12.8964516,4.30290323 C12.8964516,3.97153238 13.1650808,3.70290323 13.4964516,3.70290323 Z M10.69,0.09 C11.5736556,0.09 12.29,0.8063444 12.29,1.69 L12.29,10.69 C12.29,11.5736556 11.5736556,12.29 10.69,12.29 L1.69,12.29 C0.8063444,12.29 0.09,11.5736556 0.09,10.69 L0.09,1.69 C0.09,0.8063444 0.8063444,0.09 1.69,0.09 L10.69,0.09 Z M10.69,1.29 L1.69,1.29 C1.4690861,1.29 1.29,1.4690861 1.29,1.69 L1.29,10.69 C1.29,10.9109139 1.4690861,11.09 1.69,11.09 L10.69,11.09 C10.9109139,11.09 11.09,10.9109139 11.09,10.69 L11.09,1.69 C11.09,1.4690861 10.9109139,1.29 10.69,1.29 Z M5.95121013,2.70174395 L5.95121013,3.90174395 L4.556,3.901 L8.571,7.918 L8.57153271,6.36645161 L9.77153271,6.36645161 L9.77153271,9.67612903 L6.42645161,9.67612903 L6.42645161,8.47612903 L7.715,8.476 L3.806,4.565 L3.80612903,6.01142137 L2.60612903,6.01142137 L2.60612903,2.70174395 L5.95121013,2.70174395 Z" id="形状结合" fill="#262626" fill-rule="nonzero"></path>
        </g>
    </g>
</svg>