<?xml version="1.0" encoding="UTF-8"?>
<svg width="16px" height="16px" viewBox="0 0 16 16" version="1.1" xmlns="http://www.w3.org/2000/svg" xmlns:xlink="http://www.w3.org/1999/xlink">
    <title>Exporter-third menu</title>
    <g id="Exporter-third-menu" stroke="none" stroke-width="1" fill="none" fill-rule="evenodd">
        <g id="图形" fill-rule="nonzero">
            <rect id="矩形" fill="#000000" opacity="0" x="0" y="0" width="16" height="16"></rect>
            <g id="端口" transform="translate(1.800000, 1.800000)" fill="#262626">
                <path d="M10,0 C10.8836556,0 11.6,0.7163444 11.6,1.6 L11.6,6.2 C11.6,6.53137085 11.3313708,6.8 11,6.8 C10.6686292,6.8 10.4,6.53137085 10.4,6.2 L10.4,1.6 C10.4,1.3790861 10.2209139,1.2 10,1.2 L1.6,1.2 C1.3790861,1.2 1.2,1.3790861 1.2,1.6 L1.2,10.8 C1.2,11.0209139 1.3790861,11.2 1.6,11.2 L7.17,11.2 C7.50137085,11.2 7.77,11.4686292 7.77,11.8 C7.77,12.1313708 7.50137085,12.4 7.17,12.4 L1.6,12.4 C0.7163444,12.4 0,11.6836556 0,10.8 L0,1.6 C0,0.7163444 0.7163444,0 1.6,0 L10,0 Z M3.26905263,8.6 L3.26905263,10.44 L2.448,10.44 L2.448,8.6 L3.26905263,8.6 Z M4.73305263,8.6 L4.73305263,10.44 L3.912,10.44 L3.912,8.6 L4.73305263,8.6 Z M6.19705263,8.6 L6.19705263,10.44 L5.376,10.44 L5.376,8.6 L6.19705263,8.6 Z M9.23115791,2.76842105 L9.23115791,6.05263157 L7.84168422,6.05263157 L7.57988613,4.41052631 L3.97683987,4.41052631 L3.75747369,6.05263157 L2.368,6.05263157 L2.368,2.76842105 L9.23115791,2.76842105 Z" id="形状结合"></path>
                <g id="编组" transform="translate(10.515162, 10.243983) rotate(90.000000) translate(-10.515162, -10.243983) translate(8.183197, 8.142992)">
                    <path d="M1.28741103,0.186286854 C1.58394115,-0.179812523 2.17594836,0.0298659691 2.17594836,0.500991073 L2.17594836,3.70099107 C2.17594836,3.97713345 1.95209074,4.20099107 1.67594836,4.20099107 C1.39980599,4.20099107 1.17594836,3.97713345 1.17594836,3.70099107 L1.17501653,1.91299107 L0.888553857,2.26751381 C0.734059332,2.45825447 0.468121351,2.50556636 0.260222694,2.39165554 L0.185312311,2.34134692 C-0.0292709294,2.16754058 -0.0623271382,1.85268861 0.111479202,1.63810537 L1.28741103,0.186286854 Z M3.37651977,4.01569529 C3.07998966,4.38179467 2.48798245,4.17211618 2.48798245,3.70099107 L2.48798245,0.500991073 C2.48798245,0.224848698 2.71184007,0.000991072957 2.98798245,0.000991072957 C3.26412482,0.000991072957 3.48798245,0.224848698 3.48798245,0.500991073 L3.48891428,2.28899107 L3.77537695,1.93446834 C3.92987148,1.74372768 4.19580946,1.69641579 4.40370811,1.81032661 L4.4786185,1.86063523 C4.69320174,2.03444157 4.72625795,2.34929354 4.55245161,2.56387678 L3.37651977,4.01569529 Z" id="形状结合"></path>
                </g>
            </g>
        </g>
    </g>
</svg>