<?xml version="1.0" encoding="UTF-8"?>
<svg width="16px" height="16px" viewBox="0 0 16 16" version="1.1" xmlns="http://www.w3.org/2000/svg" xmlns:xlink="http://www.w3.org/1999/xlink">
    <title>failure resource-third menu</title>
    <g id="failure-resource-third-menu" stroke="none" stroke-width="1" fill="none" fill-rule="evenodd">
        <g id="failure-resource">
            <rect id="矩形" x="0" y="0" width="16" height="16"></rect>
            <path d="M1.1,5.8 C1.1,4.76219508 1.70813005,3.85 2.6,3.85 L5.329,3.85 L5.33,2.7 C5.33,2.13298766 5.7590107,1.66617613 6.31014288,1.60645465 L6.43,1.6 L9.57,1.6 C10.1775132,1.6 10.67,2.09248678 10.67,2.7 L10.669,3.85 L13.4,3.85 C14.2472765,3.85 14.8384776,4.67325606 14.8954796,5.64536966 L14.9,5.8 L14.9,6.7 C14.9,6.99823376 14.6824104,7.24564675 14.3973231,7.29214701 L14.3,7.3 L2.3,7.3 L2.3,13 C2.3,13.1420161 2.3986801,13.2609842 2.53121275,13.2920768 L2.6,13.3 L13.4,13.3 C13.5656854,13.3 13.7,13.1656854 13.7,13 L13.7,10.3619955 C13.7,10.0306247 13.9686292,9.76199552 14.3,9.76199552 C14.6313708,9.76199552 14.9,10.0306247 14.9,10.3619955 L14.9,13 C14.9,13.8284271 14.2284271,14.5 13.4,14.5 L2.6,14.5 C1.77157288,14.5 1.1,13.8284271 1.1,13 L1.1,5.8 Z M8.6,8.05 L8.6,9.699 L10.25,9.7 L10.25,10.9 L8.6,10.899 L8.6,12.55 L7.4,12.55 L7.4,10.899 L5.75,10.9 L5.75,9.7 L7.4,9.699 L7.4,8.05 L8.6,8.05 Z M13.4,5.05 L2.6,5.05 C2.4977574,5.05 2.3,5.3466361 2.3,5.8 L2.3,6.1 L13.7,6.1 L13.7,5.8 C13.7,5.39197249 13.5398165,5.1108945 13.433245,5.05875917 L13.4,5.05 Z M9.47,2.8 L6.53,2.8 L6.53,3.85 L9.47,3.85 L9.47,2.8 Z" id="形状结合" fill="#262626" fill-rule="nonzero"></path>
            <g id="编组" transform="translate(8.000000, 10.300000) rotate(-90.000000) translate(-8.000000, -10.300000) translate(5.750000, 8.050000)"></g>
        </g>
    </g>
</svg>