<?xml version="1.0" encoding="UTF-8"?>
<svg width="16px" height="16px" viewBox="0 0 16 16" version="1.1" xmlns="http://www.w3.org/2000/svg" xmlns:xlink="http://www.w3.org/1999/xlink">
    <title>fault-pool-third-menu</title>
    <g id="fault-pool-third-menu" stroke="none" stroke-width="1" fill="none" fill-rule="evenodd">
        <g>
            <rect id="矩形" fill="#000000" opacity="0" x="0" y="0" width="16" height="16"></rect>
            <path d="M10.8524965,0.960099803 L11.0053193,1.11171132 C11.0097355,1.11598051 11.014079,1.12032435 11.0183478,1.12474081 L13.9945837,4.11300342 C13.9989993,4.11727313 14.0033423,4.12161748 14.0076106,4.12603445 L14.1584663,4.277766 L14.1590981,4.48814736 C14.1592024,4.49252786 14.1592544,4.49692127 14.1592537,4.501327 L14.158,4.513 L14.159,10.46 L15.08,10.46 L15.08,13.78 C15.08,14.4758788 14.5158788,15.04 13.82,15.04 L2.26,15.04 C1.56412122,15.04 1,14.4758788 1,13.78 L1,10.46 L1.812,10.46 L1.8125,2.292794 C1.8125,1.55715072 2.40885671,0.960793996 3.14443434,0.960794 L10.8524965,0.960099803 Z M5,11.54 L2.08,11.54 L2.08,13.78 C2.08,13.859529 2.1315768,13.9270111 2.20310608,13.950823 L2.26,13.96 L13.82,13.96 C13.9194113,13.96 14,13.8794113 14,13.78 L14,11.54 L12.08,11.54 L12.08,12.54 L5,12.54 L5,11.54 Z M10.09,2.039 L3.1445,2.040794 C3.02520649,2.040794 2.92527328,2.12368557 2.8991555,2.235013 L2.8925,2.292794 L2.892,10.46 L6.08,10.46 L6.08,11.459 L11,11.459 L11,10.46 L13.079,10.46 L13.078,5.041 L11.447054,5.040574 C10.6975258,5.040574 10.0899111,4.43296487 10.0899111,3.683422 L10.09,2.039 Z M11.169,2.809 L11.1699111,3.683438 C11.1699111,3.83649458 11.2939911,3.96057399 11.4471403,3.960574 L12.317,3.96 L11.169,2.809 Z" id="形状结合" fill="#262626" fill-rule="nonzero"></path>
            <g id="编组" transform="translate(7.350000, 3.544621)" fill="#262626">
                <path d="M0,5.30338583 C0,5.68811521 0.311884789,6 0.696614173,6 C1.08134356,6 1.39322835,5.68811521 1.39322835,5.30338583 C1.39322835,4.91865644 1.08134356,4.60677165 0.696614173,4.60677165 C0.311884789,4.60677165 0,4.91865644 0,5.30338583 Z" id="路径"></path>
                <path d="M0.696614173,0 C1.08134356,0 1.36083957,0.311884787 1.320886,0.696614172 L1.00387363,3.74925644 C0.987527137,3.90666357 0.854867804,4.02625984 0.696614174,4.02625984 C0.538360543,4.02625984 0.40570121,3.90666357 0.389354714,3.74925644 L0.0723423481,0.696614172 L0.0723423481,0.696614172 C0.0323887728,0.311884787 0.311884788,0 0.696614173,0 Z" id="矩形"></path>
            </g>
        </g>
    </g>
</svg>