<?xml version="1.0" encoding="UTF-8"?>
<svg width="16px" height="16px" viewBox="0 0 16 16" version="1.1" xmlns="http://www.w3.org/2000/svg" xmlns:xlink="http://www.w3.org/1999/xlink">
    <title>Filesystems-third menu</title>
    <g id="Filesystems-third-menu" stroke="none" stroke-width="1" fill="none" fill-rule="evenodd">
        <g id="文件系统">
            <rect id="矩形" fill-opacity="0" fill="#FFFFFF" x="0" y="0" width="16" height="16"></rect>
            <g id="图形" transform="translate(0.400000, 1.400000)" fill="#262626" fill-rule="nonzero">
                <path d="M5.23868741,0 C5.53539039,0 5.82652251,0.0806413231 6.08092855,0.233291496 L8.18091904,1.49327749 C8.24883269,1.53402743 8.32655374,1.55555556 8.40575704,1.55555556 L13.562963,1.55555556 C14.4670841,1.55555556 15.2,2.28848162 15.2,3.19259259 L15.2,5.1 C15.2,5.43137085 14.9313708,5.7 14.6,5.7 L1.2,5.7 L1.2,12.475 C1.2,12.6959139 1.3790861,12.875 1.6,12.875 L13.6,12.875 C13.8209139,12.875 14,12.6959139 14,12.475 L14,8.3468631 C14,8.01549225 14.2686292,7.7468631 14.6,7.7468631 C14.9313708,7.7468631 15.2,8.01549225 15.2,8.3468631 L15.2,12.475 C15.2,13.3586556 14.4836556,14.075 13.6,14.075 L1.6,14.075 C0.7163444,14.075 0,13.3586556 0,12.475 L0,1.63703704 C0,0.732931372 0.732931372,0 1.63703704,0 L5.23868741,0 Z M8.2,9.77090558 L8.2,10.9709056 L3,10.9709056 L3,9.77090558 L8.2,9.77090558 Z M5.23868741,1.2 L1.63703704,1.2 C1.39567307,1.2 1.2,1.39567307 1.2,1.63703704 L1.2,4.5 L14,4.5 L14,3.19259259 C14,2.97803883 13.8454034,2.79960076 13.6415227,2.76259667 L13.562963,2.75555556 L8.40575704,2.75555556 C8.10905406,2.75555556 7.81792193,2.67491423 7.56351589,2.52226406 L5.4635254,1.26227806 C5.39561176,1.22152813 5.3178907,1.2 5.23868741,1.2 Z" id="形状结合"></path>
            </g>
        </g>
    </g>
</svg>