<?xml version="1.0" encoding="UTF-8"?>
<svg width="16px" height="16px" viewBox="0 0 16 16" version="1.1" xmlns="http://www.w3.org/2000/svg" xmlns:xlink="http://www.w3.org/1999/xlink">
    <title>fill-in-third-menu</title>
    <g id="fill-in-third-menu" stroke="none" stroke-width="1" fill="none" fill-rule="evenodd">
        <rect id="矩形" x="0" y="0" width="16" height="16"></rect>
        <g id="编组-2" transform="translate(2.000000, 1.000000)">
            <path d="M10.1911356,0 C11.1110662,0 11.8568173,0.745751112 11.8568173,1.66568173 L11.8568173,5.00455532 C11.8568173,5.33592617 11.5881881,5.60455532 11.2568173,5.60455532 C10.9254464,5.60455532 10.6568173,5.33592617 10.6568173,5.00455532 L10.6568173,1.66568173 C10.6568173,1.40849281 10.4483245,1.2 10.1911356,1.2 L1.66568173,1.2 C1.40849281,1.2 1.2,1.40849281 1.2,1.66568173 L1.2,12.322499 C1.2,12.5796879 1.40849281,12.7881808 1.66568173,12.7881808 L2.90004286,12.7881808 C3.23141371,12.7881808 3.50004286,13.0568099 3.50004286,13.3881808 C3.50004286,13.7195516 3.23141371,13.9881808 2.90004286,13.9881808 L1.66568173,13.9881808 C0.745751112,13.9881808 0,13.2424296 0,12.322499 L0,1.66568173 C0,0.745751112 0.745751112,0 1.66568173,0 L10.1911356,0 Z M9.59157303,8.06575578 L11.0627157,9.50187125 L7.55999505,12.8995103 C7.52496784,12.8995103 7.48994063,12.9695647 7.41988622,12.9695647 L7.38485901,12.9695647 L5.56344428,13.53 C5.52841707,13.53 5.45836266,13.53 5.42333545,13.4949728 C5.38830824,13.4599456 5.35328104,13.4249184 5.38830824,13.354864 L5.98377075,11.5684764 L5.98377075,11.5334492 C5.98377075,11.4633948 6.01879796,11.3933404 6.05382517,11.3933404 L6.71934209,10.7978779 L9.59157303,8.06575578 Z M10.3271444,7.26013003 C10.5022804,7.12002121 10.7474708,7.084994 10.8875797,7.22510283 L11.8683414,8.1708374 C11.9734231,8.31094623 11.9734231,8.55613667 11.798287,8.6962455 L11.2728789,9.2216536 L9.80173626,7.78553813 Z M6.39409038,7.53136346 C6.72546123,7.53136346 6.99409038,7.79999261 6.99409038,8.13136346 C6.99409038,8.46273431 6.72546123,8.73136346 6.39409038,8.73136346 L3.33136346,8.73136346 C2.99999261,8.73136346 2.73136346,8.46273431 2.73136346,8.13136346 C2.73136346,7.79999261 2.99999261,7.53136346 3.33136346,7.53136346 L6.39409038,7.53136346 Z M6.39409038,5.13136346 C6.72546123,5.13136346 6.99409038,5.39999261 6.99409038,5.73136346 C6.99409038,6.06273431 6.72546123,6.33136346 6.39409038,6.33136346 L3.33136346,6.33136346 C2.99999261,6.33136346 2.73136346,6.06273431 2.73136346,5.73136346 C2.73136346,5.39999261 2.99999261,5.13136346 3.33136346,5.13136346 L6.39409038,5.13136346 Z M8.52545383,2.73136346 C8.85682468,2.73136346 9.12545383,2.99999261 9.12545383,3.33136346 C9.12545383,3.66273431 8.85682468,3.93136346 8.52545383,3.93136346 L3.33136346,3.93136346 C2.99999261,3.93136346 2.73136346,3.66273431 2.73136346,3.33136346 C2.73136346,2.99999261 2.99999261,2.73136346 3.33136346,2.73136346 L8.52545383,2.73136346 Z" id="形状结合" fill="#262626" fill-rule="nonzero"></path>
            <g id="编组-37备份" transform="translate(5.373799, 7.135910)"></g>
        </g>
    </g>
</svg>