<?xml version="1.0" encoding="UTF-8"?>
<svg width="16px" height="16px" viewBox="0 0 16 16" version="1.1" xmlns="http://www.w3.org/2000/svg" xmlns:xlink="http://www.w3.org/1999/xlink">
    <title>firewall-third menu</title>
    <g id="firewall-third-menu" stroke="none" stroke-width="1" fill="none" fill-rule="evenodd">
        <g id="图形" fill-rule="nonzero">
            <rect id="矩形" fill="#000000" opacity="0" x="0" y="0" width="16" height="16"></rect>
            <path d="M7.81194433,1.02752748 C7.92319656,0.990824172 8.04329588,0.990824172 8.15454811,1.02752748 L13.8330501,2.90421759 C14.0564099,2.97801414 14.2071113,3.18678151 14.2071113,3.42201649 L14.2071113,8.84138548 C14.2071113,9.4580723 13.9165209,10.1655491 13.3439054,10.9443498 C12.8968074,11.5541846 12.2685967,12.2166557 11.5271709,12.8623081 C10.8871248,13.4205965 10.1846313,13.9458704 9.54941271,14.3417335 C8.49357013,15 8.11032108,15 7.98433632,15 C7.85835157,15 7.47494679,15 6.41598963,14.329431 C5.78404137,13.9295189 5.08217079,13.398483 4.43947724,12.8344326 C3.69976452,12.1851984 3.07248813,11.5216372 2.62523446,10.9156957 C2.05199603,10.1390752 1.76125,9.44109783 1.76125,8.84107402 L1.76125,3.42170503 C1.76125,3.1866676 1.91187186,2.9780865 2.13499959,2.90421759 Z M2.850625,7.99918773 L2.85073004,8.84169694 C2.85073004,9.53764981 3.71082127,10.7331813 5.09680932,11.9617273 C5.68468627,12.483108 6.33158451,12.9789491 6.9180599,13.3578378 C7.55686024,13.7705196 7.8929234,13.893234 7.98433632,13.9095856 C7.99456014,13.9078265 8.0078403,13.904768 8.02425655,13.9001565 L7.99906364,13.9066124 L8,8 L13.116625,7.99918773 L13.1170082,3.81569939 L7.999625,2.12418773 L8,8 L2.850625,7.99918773 Z" id="形状结合" fill="#262626"></path>
        </g>
    </g>
</svg>