<?xml version="1.0" encoding="UTF-8"?>
<svg width="16px" height="16px" viewBox="0 0 16 16" version="1.1" xmlns="http://www.w3.org/2000/svg" xmlns:xlink="http://www.w3.org/1999/xlink">
    <title>functional-use-case-set-third-menu</title>
    <g id="functional-use-case-set-third-menu" stroke="none" stroke-width="1" fill="none" fill-rule="evenodd">
        <path d="M12.3849246,2.06592183 C12.7783788,1.91220774 13.2032609,2.20237137 13.2032609,2.62478611 L13.203,3.37620746 L14.3009029,3.56355862 C14.5891738,3.61273799 14.8,3.86257748 14.8,4.15501327 L14.8,12.4021493 C14.8,12.7037489 14.5761157,12.9584759 14.2770107,12.9971865 L8.06179332,13.8015703 L8.05100523,13.8028699 C8.0064626,13.8078133 7.96149511,13.8077532 7.91696585,13.8026908 L1.72261661,12.9971382 C1.42367776,12.9582586 1.2,12.7036058 1.2,12.4021493 L1.2,4.15501327 C1.2,3.85909877 1.41574249,3.60737146 1.7081707,3.56208209 L2.796,3.39320746 L2.79673913,2.62478611 C2.79673913,2.23201018 3.16401098,1.95373919 3.53165078,2.03993802 L3.61633027,2.06641371 L7.98573913,3.78378611 Z M12.0027391,3.50278611 L8.584,4.83820746 L8.584,12.2272075 L12.0027391,10.4927861 L12.0027391,3.50278611 Z M3.99673913,3.50478611 L3.99673913,10.4957861 L7.384,12.2262075 L7.384,4.83720746 L3.99673913,3.50478611 Z M2.796,4.60720746 L2.4,4.66872076 L2.4,11.8747208 L4.625,12.1632075 L3.12374495,11.3966156 C2.95171554,11.3087189 2.83434452,11.1445429 2.80432074,10.9574984 L2.79673913,10.8623178 L2.796,4.60720746 Z M13.203,4.59220746 L13.2032609,10.8623178 C13.2032609,11.088276 13.0763148,11.2950731 12.8748256,11.3973436 L11.365,12.1632075 L13.599,11.8747208 L13.599,4.66072076 L13.203,4.59220746 Z M5.06105063,8.19408516 L6.78489145,8.89408516 C7.09191474,9.0187581 7.23973891,9.36871704 7.11506597,9.67574032 C6.99039303,9.98276361 6.64043409,10.1305878 6.33341081,10.0059148 L4.60956998,9.30591484 C4.30254669,9.1812419 4.15472253,8.83128296 4.27939546,8.52425968 C4.4040684,8.21723639 4.75402734,8.06941222 5.06105063,8.19408516 Z M10.8338271,8.194261 C11.1407533,8.06934918 11.4908272,8.21690097 11.615739,8.52382715 C11.7406508,8.83075333 11.593099,9.18082719 11.2861729,9.305739 L9.56617285,10.005739 C9.25924667,10.1306508 8.90917281,9.98309903 8.784261,9.67617285 C8.65934918,9.36924667 8.80690097,9.01917281 9.11382715,8.894261 Z M5.06118573,5.69370616 L6.78502655,6.39419424 C7.09201953,6.51894179 7.23975864,6.86893665 7.11501109,7.17592962 C6.99026354,7.4829226 6.64026868,7.63066171 6.33327571,7.50591416 L4.60943488,6.80542607 C4.3024419,6.68067852 4.15470279,6.33068367 4.27945034,6.02369069 C4.4041979,5.71669771 4.75419275,5.5689586 5.06118573,5.69370616 Z M10.8336919,5.69388218 C11.1405876,5.56889566 11.4906974,5.71636223 11.6156839,6.02325799 C11.7406705,6.33015375 11.5932039,6.68026352 11.2863081,6.80525005 L9.56630812,7.50573813 C9.25941236,7.63072466 8.90930259,7.48325809 8.78431607,7.17636232 C8.65932954,6.86946656 8.80679611,6.51935679 9.11369188,6.39437027 Z" id="形状结合" fill="#262626" fill-rule="nonzero"></path>
    </g>
</svg>