<?xml version="1.0" encoding="UTF-8"?>
<svg width="16px" height="16px" viewBox="0 0 16 16" version="1.1" xmlns="http://www.w3.org/2000/svg" xmlns:xlink="http://www.w3.org/1999/xlink">
    <title>grouping rules-third menu</title>
    <g id="grouping-rules-third-menu" stroke="none" stroke-width="1" fill="none" fill-rule="evenodd">
        <g id="grouping-rules">
            <rect id="矩形" x="0" y="0" width="16" height="16"></rect>
            <path d="M13.4705567,2.1 C14.3196111,2.1 15,2.80689752 15,3.66955145 L15,10.3070619 C15,10.5832043 14.7761424,10.8070619 14.5,10.8070619 C14.2238576,10.8070619 14,10.5832043 14,10.3070619 L14,3.66955145 C14,3.35081147 13.758594,3.1 13.4705567,3.1 L4.73955661,3.1 C4.52282615,3.1 4.33249663,3.24200054 4.25154294,3.44809272 L12.1912064,3.44873583 C13.0322254,3.44873583 13.7022668,4.15753992 13.7022668,5.01828728 L13.7022668,11.6557977 C13.7022668,11.9319401 13.4784092,12.1557977 13.2022668,12.1557977 C12.9261244,12.1557977 12.7022668,11.9319401 12.7022668,11.6557977 L12.7022668,5.01828728 C12.7022668,4.69764074 12.4669739,4.44873583 12.1912064,4.44873583 L3.61611702,4.44873583 C3.39852979,4.44873583 3.20614035,4.60369394 3.13464636,4.82658498 L10.7138622,4.82639494 C11.6527463,4.82639494 12.4138622,5.58751087 12.4138622,6.52639494 L12.4138622,12.5171752 C12.4138622,13.3742694 11.8641354,14.1301439 11.0771578,14.1301439 L2.23670445,14.1301439 C1.44972687,14.1301439 0.9,13.3742694 0.9,12.5171752 L0.9,6.52639494 C0.9,5.75788182 1.40995216,5.10847441 2.10993347,4.89809572 L2.10505667,5.01828728 C2.10505667,4.29842292 2.57370983,3.68483365 3.21908468,3.5032598 C3.29948098,2.71779202 3.9458163,2.1 4.73955661,2.1 L13.4705567,2.1 Z M10.7138622,6.02639494 L2.6,6.02639494 C2.32385763,6.02639494 2.1,6.25025257 2.1,6.52639494 L2.1,12.5171752 C2.1,12.7789753 2.20994076,12.9301439 2.23670445,12.9301439 L11.0771578,12.9301439 C11.1039215,12.9301439 11.2138622,12.7789753 11.2138622,12.5171752 L11.2138622,6.52639494 C11.2138622,6.25025257 10.9900046,6.02639494 10.7138622,6.02639494 Z M6.65693112,10.5833261 L6.65693112,11.6568097 L2.97340889,11.6568097 L2.97340889,10.5833261 L6.65693112,10.5833261 Z M10.3404534,7.63650828 L10.3404534,8.7099919 L2.97340889,8.7099919 L2.97340889,7.63650828 L10.3404534,7.63650828 Z" id="形状结合" fill="#262626" fill-rule="nonzero"></path>
        </g>
    </g>
</svg>