<?xml version="1.0" encoding="UTF-8"?>
<svg width="16px" height="16px" viewBox="0 0 16 16" version="1.1" xmlns="http://www.w3.org/2000/svg" xmlns:xlink="http://www.w3.org/1999/xlink">
    <title>group-alert-third-menu</title>
    <g id="group-alert-third-menu" stroke="none" stroke-width="1" fill="none" fill-rule="evenodd">
        <rect id="矩形" fill-opacity="0" fill="#F0F0F0" x="1" y="1" width="14" height="14"></rect>
        <g id="分组-(1)备份" transform="translate(1.000000, 1.000000)" fill="#262626" fill-rule="nonzero">
            <path d="M9.38143486,3.68796128 C10.0147625,3.68796128 10.5296105,4.23727607 10.5296105,4.91261012 L10.5296105,12.7753512 C10.5296105,13.4506852 10.0147625,14 9.38143486,14 L1.14817561,14 C0.514847971,14 0,13.4506852 0,12.7753512 L0,4.91261012 C0,4.23727605 0.514847971,3.68796128 1.14817561,3.68796128 L9.38143486,3.68796128 Z M9.38143486,4.73489063 L1.14817561,4.73489063 C1.05662314,4.73489063 0.983381178,4.81459512 0.983381178,4.91261012 L0.983381178,12.7925846 L0.99738332,12.834591 C1.01461673,12.8905995 1.06416276,12.9530706 1.15140688,12.9530706 L9.38035777,12.9530706 C9.47191024,12.9530706 9.5451522,12.8733662 9.5451522,12.7753512 L9.5451522,4.91261012 C9.5451522,4.81890348 9.46867897,4.73489063 9.38143486,4.73489063 Z M11.1101608,1.83967859 C11.7434884,1.83967859 12.2583364,2.38899338 12.2583364,3.06432743 L12.2583364,10.9270685 C12.2583364,11.2135738 12.0418418,11.4440706 11.7714927,11.4440706 C11.4989895,11.4440706 11.2889574,11.2178822 11.2889574,10.9162976 L11.2889574,3.05355655 C11.2889574,2.95984992 11.2114071,2.87583707 11.1241629,2.87583707 L3.75257394,2.87583707 C3.48330199,2.87583707 3.26573026,2.64426318 3.26573026,2.35775783 C3.26573026,2.07017538 3.483302,1.83967859 3.75257394,1.83967859 L11.1101608,1.83967859 Z M12.8518118,6.27729108e-06 C13.4872936,-0.00214157784 14.0021416,0.547173211 14.0021416,1.22358436 L14.0021416,9.08632539 C14.0021416,9.37283074 13.7856469,9.60332754 13.516375,9.60332754 C13.379158,9.59881362 13.2498406,9.53805001 13.1587818,9.43530185 C13.066876,9.33293138 13.0203359,9.19951635 13.0284542,9.06370654 L13.0284542,1.20958222 C13.0284542,1.11479849 12.9509039,1.03078564 12.8636598,1.03078563 L5.49637912,1.03078563 C5.22495298,1.03186273 5.00845833,0.800288844 5.00845833,0.514860576 C5.00845833,0.227278124 5.22495298,6.27729108e-06 5.49422494,6.27729108e-06 L12.8518118,6.27729108e-06 Z" id="形状结合"></path>
            <g id="编组-2" transform="translate(4.049757, 6.600642)">
                <path d="M1.52033984,4.8411968 L1.52033984,4.11550927 C1.51934118,4.02014489 1.4422772,3.94308091 1.34691282,3.94208225 L0.637215019,3.94208225 C0.541712911,3.94275246 0.464458215,4.02000716 0.463788,4.11550927 L0.463788,4.82520707 C0.464458215,4.92070918 0.541712911,4.99796388 0.637215019,4.99863409 L1.34691282,4.99863409 C1.3916711,5.00465022 1.43680264,4.99060292 1.47024038,4.9602481 C1.50367811,4.92989328 1.52201194,4.88632662 1.52033984,4.8411968 Z" id="路径"></path>
                <path d="M1.64710856,0.0580343048 C1.61443486,0.0223481338 1.56870371,0.00141258657 1.52033969,0 L0.447798122,0 C0.349476679,0.00832896059 0.274018954,0.0907437805 0.274371103,0.189416745 L0.431808397,3.23299944 C0.432807059,3.32836381 0.509871041,3.40542779 0.605235417,3.40642645 L1.34629768,3.40642645 C1.44166206,3.40542779 1.51872604,3.32836381 1.5197247,3.23299944 L1.69315172,0.189416745 C1.69661393,0.141115948 1.67978227,0.0937204759 1.64710856,0.0580343048 Z" id="路径"></path>
            </g>
        </g>
    </g>
</svg>