<?xml version="1.0" encoding="UTF-8"?>
<svg width="16px" height="16px" viewBox="0 0 16 16" version="1.1" xmlns="http://www.w3.org/2000/svg" xmlns:xlink="http://www.w3.org/1999/xlink">
    <title>HAProxy-thrid menu</title>
    <g id="HAProxy-thrid-menu" stroke="none" stroke-width="1" fill="none" fill-rule="evenodd">
        <g id="haproxy">
            <polygon id="背景" points="0 0 16 0 16 16 10.8820796 16 0 16"></polygon>
            <g id="图形" transform="translate(1.332973, 1.221541)" fill="#262626" fill-rule="nonzero">
                <rect id="矩形" x="5.72864865" y="7.91737838" width="2.19837838" height="2.19837838"></rect>
                <rect id="矩形" x="3.53027027" y="5.719" width="2.19837838" height="2.19837838"></rect>
                <rect id="矩形" x="5.72864865" y="3.52062162" width="2.19837838" height="2.19837838"></rect>
                <rect id="矩形" x="7.92702703" y="5.719" width="2.19837838" height="2.19837838"></rect>
                <rect id="矩形" x="7.92702703" y="2.41954054" width="1.10108108" height="1.10108108"></rect>
                <rect id="矩形" x="4.62756757" y="2.41954054" width="1.10108108" height="1.10108108"></rect>
                <rect id="矩形" x="7.92702703" y="10.1195405" width="1.10108108" height="1.10108108"></rect>
                <rect id="矩形" x="4.62756757" y="10.1195405" width="1.10108108" height="1.10108108"></rect>
                <polygon id="路径" points="3.53027027 4.61791892 3.53027027 5.719 2.42918919 5.719 2.42918919 4.61791892"></polygon>
                <polygon id="路径" points="3.53027027 7.91737838 3.53027027 9.01845946 2.42918919 9.01845946 2.42918919 7.91737838"></polygon>
                <polygon id="路径" points="11.2302703 4.61791892 11.2302703 5.719 10.1291892 5.719 10.1291892 4.61791892"></polygon>
                <polygon id="路径" points="11.2302703 7.91737838 11.2302703 9.01845946 10.1291892 9.01845946 10.1291892 7.91737838"></polygon>
                <rect id="矩形" x="5.72864865" y="1.04602703" width="1" height="1"></rect>
                <rect id="矩形" x="4.07891892" y="1.59467568" width="1" height="1"></rect>
                <rect id="矩形" x="9.02810811" y="1.59467568" width="1" height="1"></rect>
                <rect id="矩形" x="7.37837838" y="1.04602703" width="1" height="1"></rect>
                <rect id="矩形" x="12.0891892" y="5.77197297" width="1" height="1"></rect>
                <rect id="矩形" x="11.5367568" y="4.06927027" width="1" height="1"></rect>
                <rect id="矩形" x="1.69891892" y="4.06927027" width="1" height="1"></rect>
                <rect id="矩形" x="1.08972973" y="5.719" width="1" height="1"></rect>
                <rect id="矩形" x="1.08972973" y="7.36872973" width="1" height="1"></rect>
                <rect id="矩形" x="1.77081081" y="9.11305405" width="1" height="1"></rect>
                <rect id="矩形" x="12.0891892" y="7.36872973" width="1" height="1"></rect>
                <rect id="矩形" x="11.5027027" y="9.08278378" width="1" height="1"></rect>
                <rect id="矩形" x="5.72864865" y="12.0076486" width="1" height="1"></rect>
                <rect id="矩形" x="3.96162162" y="11.3076486" width="1" height="1"></rect>
                <rect id="矩形" x="9.02810811" y="11.4930541" width="1" height="1"></rect>
                <rect id="矩形" x="7.37837838" y="12.0606216" width="1" height="1"></rect>
                <rect id="矩形" x="2.66378378" y="2.69575676" width="1" height="1"></rect>
                <rect id="矩形" x="2.65621622" y="10.391973" width="1" height="1"></rect>
                <rect id="矩形" x="10.5567568" y="10.3427838" width="1" height="1"></rect>
                <rect id="矩形" x="10.5605405" y="2.7562973" width="1" height="1"></rect>
                <rect id="矩形" x="0.10972973" y="7.91737838" width="1" height="1"></rect>
                <rect id="矩形" x="0" y="7.10386486" width="1" height="1"></rect>
                <rect id="矩形" x="0.749189189" y="9.6617027" width="1" height="1"></rect>
                <rect id="矩形" x="0.374594595" y="8.83305405" width="1" height="1"></rect>
                <rect id="矩形" x="1.66864865" y="11.0844054" width="1" height="1"></rect>
                <rect id="矩形" x="1.15405405" y="10.4411622" width="1" height="1"></rect>
                <rect id="矩形" x="3.11405405" y="12.2498108" width="1" height="1"></rect>
                <rect id="矩形" x="2.36864865" y="11.7314324" width="1" height="1"></rect>
                <rect id="矩形" x="3.92" y="12.6773784" width="1" height="1"></rect>
                <rect id="矩形" x="5.63783784" y="13.226027" width="1" height="1"></rect>
                <rect id="矩形" x="4.72594595" y="13.0292703" width="1" height="1"></rect>
                <rect id="矩形" x="7.76054054" y="13.3017027" width="1" height="1"></rect>
                <rect id="矩形" x="6.6972973" y="13.3584595" width="1" height="1"></rect>
                <rect id="矩形" x="0.10972973" y="5.42386486" width="1" height="1"></rect>
                <rect id="矩形" x="0" y="6.23737838" width="1" height="1"></rect>
                <rect id="矩形" x="0.749189189" y="3.67954054" width="1" height="1"></rect>
                <rect id="矩形" x="0.374594595" y="4.50818919" width="1" height="1"></rect>
                <rect id="矩形" x="1.66864865" y="2.26062162" width="1" height="1"></rect>
                <rect id="矩形" x="1.15405405" y="2.90008108" width="1" height="1"></rect>
                <rect id="矩形" x="3.11405405" y="1.09143243" width="1" height="1"></rect>
                <rect id="矩形" x="2.36864865" y="1.60981081" width="1" height="1"></rect>
                <rect id="矩形" x="3.92" y="0.663864865" width="1" height="1"></rect>
                <rect id="矩形" x="5.63783784" y="0.134135135" width="1" height="1"></rect>
                <rect id="矩形" x="4.72594595" y="0.311972973" width="1" height="1"></rect>
                <rect id="矩形" transform="translate(13.367616, 8.065400) rotate(-180.000000) translate(-13.367616, -8.065400) " x="13.2351838" y="7.93296757" width="1" height="1"></rect>
                <rect id="矩形" transform="translate(13.475076, 7.253627) rotate(-180.000000) translate(-13.475076, -7.253627) " x="13.3426432" y="7.12119459" width="1" height="1"></rect>
                <rect id="矩形" transform="translate(12.728005, 9.811692) rotate(-180.000000) translate(-12.728005, -9.811692) " x="12.595573" y="9.67925946" width="1" height="1"></rect>
                <rect id="矩形" transform="translate(13.099573, 8.981832) rotate(-180.000000) translate(-13.099573, -8.981832) " x="12.9671405" y="8.8494" width="1" height="1"></rect>
                <rect id="矩形" transform="translate(11.805557, 11.232692) rotate(-180.000000) translate(-11.805557, -11.232692) " x="11.6731243" y="11.1002595" width="1" height="1"></rect>
                <rect id="矩形" transform="translate(12.322346, 10.588843) rotate(-180.000000) translate(-12.322346, -10.588843) " x="12.1899135" y="10.4564108" width="1" height="1"></rect>
                <rect id="矩形" transform="translate(10.360114, 12.399043) rotate(-180.000000) translate(-10.360114, -12.399043) " x="10.2276811" y="12.2666108" width="1" height="1"></rect>
                <rect id="矩形" transform="translate(11.109189, 11.880589) rotate(-180.000000) translate(-11.109189, -11.880589) " x="10.9767568" y="11.7481568" width="1" height="1"></rect>
                <rect id="矩形" transform="translate(9.555530, 12.827557) rotate(-180.000000) translate(-9.555530, -12.827557) " x="9.4230973" y="12.6951243" width="1" height="1"></rect>
                <rect id="矩形" transform="translate(8.750038, 13.179259) rotate(-180.000000) translate(-8.750038, -13.179259) " x="8.61760541" y="13.046827" width="1" height="1"></rect>
                <rect id="矩形" transform="translate(13.367616, 5.574119) rotate(-180.000000) translate(-13.367616, -5.574119) " x="13.2351838" y="5.44168649" width="1" height="1"></rect>
                <rect id="矩形" transform="translate(13.475076, 6.385930) rotate(-180.000000) translate(-13.475076, -6.385930) " x="13.3426432" y="6.2534973" width="1" height="1"></rect>
                <rect id="矩形" transform="translate(12.728005, 3.827865) rotate(-180.000000) translate(-12.728005, -3.827865) " x="12.595573" y="3.69543243" width="1" height="1"></rect>
                <rect id="矩形" transform="translate(13.099573, 4.657724) rotate(-180.000000) translate(-13.099573, -4.657724) " x="12.9671405" y="4.52529189" width="1" height="1"></rect>
                <rect id="矩形" transform="translate(11.805557, 2.406865) rotate(-180.000000) translate(-11.805557, -2.406865) " x="11.6731243" y="2.27443243" width="1" height="1"></rect>
                <rect id="矩形" transform="translate(12.322346, 3.050714) rotate(-180.000000) translate(-12.322346, -3.050714) " x="12.1899135" y="2.91828108" width="1" height="1"></rect>
                <rect id="矩形" transform="translate(10.360114, 1.240476) rotate(-180.000000) translate(-10.360114, -1.240476) " x="10.2276811" y="1.10804324" width="1" height="1"></rect>
                <rect id="矩形" transform="translate(11.109189, 1.758930) rotate(-180.000000) translate(-11.109189, -1.758930) " x="10.9767568" y="1.6264973" width="1" height="1"></rect>
                <rect id="矩形" transform="translate(9.555530, 0.812000) rotate(-180.000000) translate(-9.555530, -0.812000) " x="9.4230973" y="0.679567568" width="1" height="1"></rect>
                <rect id="矩形" transform="translate(7.844238, 0.264600) rotate(-180.000000) translate(-7.844238, -0.264600) " x="7.71180541" y="0.132167568" width="1" height="1"></rect>
                <rect id="矩形" transform="translate(8.750038, 0.460259) rotate(-180.000000) translate(-8.750038, -0.460259) " x="8.61760541" y="0.327827027" width="1" height="1"></rect>
                <rect id="矩形" transform="translate(6.828216, 0.132432) rotate(-180.000000) translate(-6.828216, -0.132432) " x="6.69578378" y="0" width="1" height="1"></rect>
            </g>
        </g>
    </g>
</svg>