<?xml version="1.0" encoding="UTF-8"?>
<svg width="16px" height="16px" viewBox="0 0 16 16" version="1.1" xmlns="http://www.w3.org/2000/svg" xmlns:xlink="http://www.w3.org/1999/xlink">
    <title>haproxy-third-menu</title>
    <g id="haproxy-third-menu" stroke="none" stroke-width="1" fill="none" fill-rule="evenodd">
        <polygon id="背景" points="0 0 16 0 16 16 10.8820796 16 0 16"></polygon>
        <g id="图形" transform="translate(1.000000, 1.000000)">
            <polygon id="背景" points="0 0 14 0 14 14 9.52181962 14 0 14"></polygon>
            <path d="M8.26,8.13891892 L8.26,10.3372973 L6.06162162,10.3372973 L6.06162162,8.13891892 L8.26,8.13891892 Z M3.86324324,8.13891892 L3.86324324,9.24 L2.76216216,9.24 L2.76216216,8.13891892 L3.86324324,8.13891892 Z M6.06162162,5.94054054 L6.06162162,8.13891892 L3.86324324,8.13891892 L3.86324324,5.94054054 L6.06162162,5.94054054 Z M8.26,3.74216216 L8.26,5.94054054 L6.06162162,5.94054054 L6.06162162,3.74216216 L8.26,3.74216216 Z M6.06162162,2.64108108 L6.06162162,3.74216216 L4.96054054,3.74216216 L4.96054054,2.64108108 L6.06162162,2.64108108 Z M8.26,5.94054054 L10.4583784,5.94054054 L10.4583784,8.13891892 L8.26,8.13891892 Z M8.26,2.64108108 L9.36108108,2.64108108 L9.36108108,3.74216216 L8.26,3.74216216 Z M8.26,10.3410811 L9.36108108,10.3410811 L9.36108108,11.4421622 L8.26,11.4421622 Z M4.96054054,10.3410811 L6.06162162,10.3410811 L6.06162162,11.4421622 L4.96054054,11.4421622 Z M3.86324324,4.83945946 L3.86324324,5.94054054 L2.76216216,5.94054054 L2.76216216,4.83945946 L3.86324324,4.83945946 Z M11.5632432,4.83945946 L11.5632432,5.94054054 L10.4621622,5.94054054 L10.4621622,4.83945946 L11.5632432,4.83945946 Z M11.5632432,8.13891892 L11.5632432,9.24 L10.4621622,9.24 L10.4621622,8.13891892 L11.5632432,8.13891892 Z M6.06162162,1.26756757 L6.61027027,1.26756757 L6.61027027,1.81621622 L6.06162162,1.81621622 Z M4.41189189,1.81621622 L4.96054054,1.81621622 L4.96054054,2.36486486 L4.41189189,2.36486486 Z M9.36108108,1.81621622 L9.90972973,1.81621622 L9.90972973,2.36486486 L9.36108108,2.36486486 Z M7.71135135,1.26756757 L8.26,1.26756757 L8.26,1.81621622 L7.71135135,1.81621622 Z M12.4221622,5.99351351 L12.9708108,5.99351351 L12.9708108,6.54216216 L12.4221622,6.54216216 Z M11.8697297,4.29081081 L12.4183784,4.29081081 L12.4183784,4.83945946 L11.8697297,4.83945946 Z M2.03189189,4.29081081 L2.58054054,4.29081081 L2.58054054,4.83945946 L2.03189189,4.83945946 Z M1.4227027,5.94054054 L1.97135135,5.94054054 L1.97135135,6.48918919 L1.4227027,6.48918919 Z M1.4227027,7.59027027 L1.97135135,7.59027027 L1.97135135,8.13891892 L1.4227027,8.13891892 Z M2.10378378,9.33459459 L2.65243243,9.33459459 L2.65243243,9.88324324 L2.10378378,9.88324324 Z M12.4221622,7.59027027 L12.9708108,7.59027027 L12.9708108,8.13891892 L12.4221622,8.13891892 Z M11.8356757,9.30432432 L12.3843243,9.30432432 L12.3843243,9.85297297 L11.8356757,9.85297297 Z M6.06162162,12.2291892 L6.61027027,12.2291892 L6.61027027,12.7778378 L6.06162162,12.7778378 Z M4.29459459,11.5291892 L4.84324324,11.5291892 L4.84324324,12.0778378 L4.29459459,12.0778378 Z M9.36108108,11.7145946 L9.90972973,11.7145946 L9.90972973,12.2632432 L9.36108108,12.2632432 Z M7.71135135,12.2821622 L8.26,12.2821622 L8.26,12.8308108 L7.71135135,12.8308108 Z M2.99675676,2.9172973 L3.54540541,2.9172973 L3.54540541,3.46594595 L2.99675676,3.46594595 Z M2.98918919,10.6135135 L3.53783784,10.6135135 L3.53783784,11.1621622 L2.98918919,11.1621622 Z M10.8897297,10.5643243 L11.4383784,10.5643243 L11.4383784,11.112973 L10.8897297,11.112973 Z M10.8935135,2.97783784 L11.4421622,2.97783784 L11.4421622,3.52648649 L10.8935135,3.52648649 Z M0.442702703,8.13891892 L0.707567568,8.13891892 L0.707567568,8.40378378 L0.442702703,8.40378378 Z M0.332972973,7.32540541 L0.597837838,7.32540541 L0.597837838,7.59027027 L0.332972973,7.59027027 Z M1.08216216,9.88324324 L1.34702703,9.88324324 L1.34702703,10.1481081 L1.08216216,10.1481081 Z M0.707567568,9.05459459 L0.972432432,9.05459459 L0.972432432,9.31945946 L0.707567568,9.31945946 Z M2.00162162,11.3059459 L2.26648649,11.3059459 L2.26648649,11.5708108 L2.00162162,11.5708108 Z M1.48702703,10.6627027 L1.75189189,10.6627027 L1.75189189,10.9275676 L1.48702703,10.9275676 Z M3.44702703,12.4713514 L3.71189189,12.4713514 L3.71189189,12.7362162 L3.44702703,12.7362162 Z M2.70162162,11.952973 L2.96648649,11.952973 L2.96648649,12.2178378 L2.70162162,12.2178378 Z M4.25297297,12.8989189 L4.51783784,12.8989189 L4.51783784,13.1637838 L4.25297297,13.1637838 Z M5.97081081,13.4475676 L6.23567568,13.4475676 L6.23567568,13.7124324 L5.97081081,13.7124324 Z M5.05891892,13.2508108 L5.32378378,13.2508108 L5.32378378,13.5156757 L5.05891892,13.5156757 Z M8.09351351,13.5232432 L8.35837838,13.5232432 L8.35837838,13.7881081 L8.09351351,13.7881081 Z M7.03027027,13.58 L7.29513514,13.58 L7.29513514,13.8448649 L7.03027027,13.8448649 Z M0.442702703,5.64540541 L0.707567568,5.64540541 L0.707567568,5.91027027 L0.442702703,5.91027027 Z M0.332972973,6.45891892 L0.597837838,6.45891892 L0.597837838,6.72378378 L0.332972973,6.72378378 Z M1.08216216,3.90108108 L1.34702703,3.90108108 L1.34702703,4.16594595 L1.08216216,4.16594595 Z M0.707567568,4.72972973 L0.972432432,4.72972973 L0.972432432,4.99459459 L0.707567568,4.99459459 Z M2.00162162,2.48216216 L2.26648649,2.48216216 L2.26648649,2.74702703 L2.00162162,2.74702703 Z M1.48702703,3.12162162 L1.75189189,3.12162162 L1.75189189,3.38648649 L1.48702703,3.38648649 Z M3.44702703,1.31297297 L3.71189189,1.31297297 L3.71189189,1.57783784 L3.44702703,1.57783784 Z M2.70162162,1.83135135 L2.96648649,1.83135135 L2.96648649,2.09621622 L2.70162162,2.09621622 Z M4.25297297,0.885405405 L4.51783784,0.885405405 L4.51783784,1.15027027 L4.25297297,1.15027027 Z M5.97081081,0.355675676 L6.23567568,0.355675676 L6.23567568,0.620540541 L5.97081081,0.620540541 Z M5.05891892,0.533513514 L5.32378378,0.533513514 L5.32378378,0.798378378 L5.05891892,0.798378378 Z M13.8330216,8.41937297 L13.5681568,8.41937297 L13.5681568,8.15450811 L13.8330216,8.15450811 Z M13.9404811,7.6076 L13.6756162,7.6076 L13.6756162,7.34273514 L13.9404811,7.34273514 Z M13.1934108,10.1656649 L12.9285459,10.1656649 L12.9285459,9.9008 L13.1934108,9.9008 Z M13.5649784,9.33580541 L13.3001135,9.33580541 L13.3001135,9.07094054 L13.5649784,9.07094054 Z M12.2709622,11.5866649 L12.0060973,11.5866649 L12.0060973,11.3218 L12.2709622,11.3218 Z M12.7877514,10.9428162 L12.5228865,10.9428162 L12.5228865,10.6779514 L12.7877514,10.6779514 Z M10.8255189,12.7530162 L10.5606541,12.7530162 L10.5606541,12.4881514 L10.8255189,12.4881514 Z M11.5745946,12.2345622 L11.3097297,12.2345622 L11.3097297,11.9696973 L11.5745946,11.9696973 Z M10.0209351,13.1815297 L9.75607027,13.1815297 L9.75607027,12.9166649 L10.0209351,12.9166649 Z M9.21544324,13.5332324 L8.95057838,13.5332324 L8.95057838,13.2683676 L9.21544324,13.2683676 Z M13.8330216,5.92809189 L13.5681568,5.92809189 L13.5681568,5.66322703 L13.8330216,5.66322703 Z M13.9404811,6.7399027 L13.6756162,6.7399027 L13.6756162,6.47503784 L13.9404811,6.47503784 Z M13.1934108,4.18183784 L12.9285459,4.18183784 L12.9285459,3.91697297 L13.1934108,3.91697297 Z M13.5649784,5.0116973 L13.3001135,5.0116973 L13.3001135,4.74683243 L13.5649784,4.74683243 Z M12.2709622,2.76083784 L12.0060973,2.76083784 L12.0060973,2.49597297 L12.2709622,2.49597297 Z M12.7877514,3.40468649 L12.5228865,3.40468649 L12.5228865,3.13982162 L12.7877514,3.13982162 Z M10.8255189,1.59444865 L10.5606541,1.59444865 L10.5606541,1.32958378 L10.8255189,1.32958378 Z M11.5745946,2.1129027 L11.3097297,2.1129027 L11.3097297,1.84803784 L11.5745946,1.84803784 Z M10.0209351,1.16597297 L9.75607027,1.16597297 L9.75607027,0.901108108 L10.0209351,0.901108108 Z M8.30964324,0.618572973 L8.04477838,0.618572973 L8.04477838,0.353708108 L8.30964324,0.353708108 Z M9.21544324,0.814232432 L8.95057838,0.814232432 L8.95057838,0.549367568 L9.21544324,0.549367568 Z M7.29362162,0.486405405 L7.02875676,0.486405405 L7.02875676,0.221540541 L7.29362162,0.221540541 Z" id="形状结合" fill="#262626" fill-rule="nonzero"></path>
        </g>
    </g>
</svg>