<?xml version="1.0" encoding="UTF-8"?>
<svg width="16px" height="16px" viewBox="0 0 16 16" version="1.1" xmlns="http://www.w3.org/2000/svg" xmlns:xlink="http://www.w3.org/1999/xlink">
    <title>hbase-third-menu</title>
    <g id="hbase-third-menu" stroke="none" stroke-width="1" fill="none" fill-rule="evenodd">
        <rect id="矩形" fill-opacity="0" fill="#F0F0F0" x="0" y="0" width="16" height="16"></rect>
        <g id="HBASE" transform="translate(0.200000, 1.000000)">
            <rect id="矩形" fill-opacity="0" fill="#D8D8D8" x="0.875" y="0" width="14" height="14"></rect>
            <path d="M8.50516133,8.7589851 C7.99801184,9.39692068 7.27040027,9.75230044 6.48712539,9.84267831 C6.12227931,9.92099878 5.79883547,9.94069589 5.4767338,9.91685197 C5.78424518,9.44534117 5.92520072,9.22597067 6.0744623,9.04663013 C6.22721707,8.87205326 6.44427726,8.7589851 6.68548135,8.7589851 Z M3.855,1.829 L3.88345471,1.95904377 L3.94739333,2.24425295 C3.98138413,2.39480881 4.01502417,2.5437627 4.0456605,2.68673226 L4.04835891,2.69867148 C4.08596159,2.84912002 4.14516276,2.9698103 4.21585951,3.10207182 C4.23141594,3.13117523 4.24755929,3.16125782 4.263653,3.19344525 L4.27378796,3.21265993 C4.4143284,3.46563272 4.62633606,3.66107707 4.87260578,3.77928653 C5.11612949,3.89617791 5.39307321,3.93813897 5.67075923,3.88707024 C6.48477379,3.78581378 7.33198758,3.71759114 8.14373857,3.75141055 C9.56433031,3.8159829 10.922631,4.39353039 11.8926158,5.42817946 C12.3443075,5.90810187 12.7963439,6.4344092 13.1903262,6.96902823 L12.9626979,6.99813051 C12.3633567,6.52502774 11.6802556,6.21487213 10.8280971,6.1397274 C10.0452653,6.05732405 9.30205,6.25879462 8.64192348,6.67137369 C8.63878078,6.67333787 8.63564157,6.67530584 8.63260786,6.6773253 C8.19342577,6.97011241 7.79269227,7.29622315 7.4279481,7.62327068 C7.37567593,7.65968698 7.31391403,7.68846314 7.24965698,7.68846314 L6.47391548,7.68846314 C5.89006947,7.68846314 5.36032798,7.93939488 5.02141005,8.37514652 C5.00982594,8.39004037 4.99850598,8.40509715 4.98750268,8.42033518 C4.98138705,8.4331813 4.9751733,8.44590855 4.96887256,8.45851004 C4.88622137,8.62381243 4.77727621,8.79012489 4.63940104,8.92800006 C4.57798374,8.98941735 4.50188929,9.0578937 4.42174621,9.1303838 C4.31852373,9.22374941 4.20935964,9.32278048 4.11048637,9.42165374 C4.09022773,9.44191238 4.06996247,9.46260305 4.04973181,9.48357297 C4.0073297,9.51735236 3.96852228,9.55340397 3.9345881,9.59154287 C3.84362797,9.66617183 3.77947288,9.74832432 3.7359259,9.8286433 C3.70433517,9.88690991 3.68210423,9.94574921 3.66836013,10.0044277 C3.5623261,10.0603401 3.4271888,10.1779974 3.24342131,10.4405224 C2.97212476,10.8323836 2.64317649,11.1337874 2.25637428,11.3764954 C1.97992187,11.4995535 1.73920926,11.6595024 1.44576178,11.9112936 C1.20217687,12.1853267 0.92755556,12.3976388 0.592732998,12.5802693 L0.681,12.528 L0.648955189,12.4938263 C0.623868353,12.4631798 0.603606145,12.4285419 0.591002013,12.3908456 C0.585896109,12.1454184 0.552659608,11.8998677 0.517638848,11.6542954 C0.457335492,11.0335114 0.55113897,10.382368 0.799323076,9.79293074 C0.801699501,9.78728673 0.804089864,9.78164889 0.806451127,9.77579612 C0.808159403,9.77077845 0.809871486,9.76576177 0.811587381,9.76074608 C1.25085649,8.47672868 1.92721806,7.29454256 2.77100919,6.21302243 C2.89450365,6.07037034 3.00273665,5.92006926 3.11345148,5.76497962 C3.21393951,5.62421571 3.31687695,5.47873985 3.44360241,5.33348329 C3.6227752,5.17116436 3.75076434,4.97183089 3.82325299,4.75436492 C3.89683727,4.53361209 3.91345798,4.29349252 3.86488525,4.05244787 C3.79976368,3.49163814 3.7665307,2.93082882 3.76520766,2.37001867 L3.77195168,2.32231553 C3.79104761,2.18654781 3.81063522,2.04186493 3.83835012,1.90177103 L3.855,1.829 Z" id="tuxing" stroke="#262626" fill-rule="nonzero"></path>
        </g>
    </g>
</svg>