<?xml version="1.0" encoding="UTF-8"?>
<svg width="16px" height="16px" viewBox="0 0 16 16" version="1.1" xmlns="http://www.w3.org/2000/svg" xmlns:xlink="http://www.w3.org/1999/xlink">
    <title>host-third menu</title>
    <g id="host-third-menu" stroke="none" stroke-width="1" fill="none" fill-rule="evenodd">
        <rect id="矩形" fill-opacity="0" fill="#F0F0F0" x="0" y="0" width="16" height="16"></rect>
        <g id="图形" transform="translate(2.000000, 1.000000)" fill="#262626" fill-rule="nonzero">
            <path d="M11,9.6 C11.5522847,9.6 12,10.0812939 12,10.675 L12,12.825 C12,13.4187061 11.5522847,13.9 11,13.9 L1,13.9 C0.44771525,13.9 0,13.4187061 0,12.825 L0,10.675 C0,10.0812939 0.44771525,9.6 1,9.6 L11,9.6 Z M10.8,10.89 L1.2,10.89 L1.2,12.61 L10.8,12.61 L10.8,10.89 Z M9.09256756,11.25 C9.20302452,11.25 9.29256757,11.3395431 9.29256757,11.45 L9.29256757,12.05 C9.29256757,12.1604569 9.20302452,12.25 9.09256756,12.25 L7.74256757,12.25 C7.63211062,12.25 7.54256757,12.1604569 7.54256757,12.05 L7.54256757,11.45 C7.54256757,11.3395431 7.63211062,11.25 7.74256757,11.25 L9.09256756,11.25 Z M11,4.8 C11.5522847,4.8 12,5.28129389 12,5.875 L12,8.025 C12,8.61870611 11.5522847,9.1 11,9.1 L1,9.1 C0.44771525,9.1 0,8.61870611 0,8.025 L0,5.875 C0,5.28129389 0.44771525,4.8 1,4.8 L11,4.8 Z M10.8,6.09 L1.2,6.09 L1.2,7.81 L10.8,7.81 L10.8,6.09 Z M9.09256756,6.5 C9.20302452,6.5 9.29256757,6.58954305 9.29256757,6.7 L9.29256757,7.3 C9.29256757,7.41045695 9.20302452,7.5 9.09256756,7.5 L7.74256757,7.5 C7.63211062,7.5 7.54256757,7.41045695 7.54256757,7.3 L7.54256757,6.7 C7.54256757,6.58954305 7.63211062,6.5 7.74256757,6.5 L9.09256756,6.5 Z M11,0 C11.5522847,0 12,0.481293894 12,1.075 L12,3.225 C12,3.81870611 11.5522847,4.3 11,4.3 L1,4.3 C0.44771525,4.3 0,3.81870611 0,3.225 L0,1.075 C0,0.481293894 0.44771525,0 1,0 L11,0 Z M10.8,1.29 L1.2,1.29 L1.2,3.01 L10.8,3.01 L10.8,1.29 Z M9.09256756,1.7 C9.20302452,1.7 9.29256757,1.78954305 9.29256757,1.9 L9.29256757,2.5 C9.29256757,2.61045695 9.20302452,2.7 9.09256756,2.7 L7.74256757,2.7 C7.63211062,2.7 7.54256757,2.61045695 7.54256757,2.5 L7.54256757,1.9 C7.54256757,1.78954305 7.63211062,1.7 7.74256757,1.7 L9.09256756,1.7 Z" id="形状结合"></path>
        </g>
    </g>
</svg>