<?xml version="1.0" encoding="UTF-8"?>
<svg width="16px" height="16px" viewBox="0 0 16 16" version="1.1" xmlns="http://www.w3.org/2000/svg" xmlns:xlink="http://www.w3.org/1999/xlink">
    <title>Host Instance Maintenance</title>
    <g id="Host-Instance-Maintenance" stroke="none" stroke-width="1" fill="none" fill-rule="evenodd">
        <rect id="矩形" fill="#000000" opacity="0" x="0" y="0" width="16" height="16"></rect>
        <path d="M13.4544897,13.3406894 C13.2832674,13.5210717 13.0373555,13.5252994 12.8583824,13.3512586 C12.7160494,13.2103349 12.7111171,12.9263737 12.8485177,12.7466959 C13.0190354,12.5663136 13.2649473,12.5620859 13.4439204,12.7361267 C13.6228935,12.9101674 13.6271212,13.160307 13.4544897,13.3406894 M12.5553964,12.45287 C12.3714909,12.6367754 12.0734373,12.6367754 11.8895319,12.45287 L8.93929396,9.5026321 C8.75538852,9.31872666 8.75538852,9.02067301 8.93929396,8.83676757 C9.1231994,8.65356674 9.42054843,8.65356674 9.60445388,8.83676757 L12.5553964,11.7877101 C12.7385972,11.9716155 12.7385972,12.2689645 12.5553964,12.45287 M14.5248052,12.1893427 L9.05978373,6.83635549 C9.63757095,5.28830853 9.34585887,3.44854948 8.06697619,2.19644231 C6.96495277,1.1176713 5.39999496,0.749155794 4.02035183,1.16910845 C3.33053026,1.35794623 7.7520117,4.04817987 5.92423116,5.96826543 C4.13872775,7.88835099 1.28925031,3.50210049 1.1293019,4.20742366 C0.763604868,5.61947925 1.18144367,7.1935971 2.28346709,8.27236811 C3.56234977,9.52447528 5.38660721,9.79998113 6.8902632,9.1150919 L12.3552847,14.4680791 C12.9732352,15.0712325 13.9681566,15.0536171 14.5642639,14.4286204 C15.1603712,13.8043284 15.1427557,12.7924961 14.5248052,12.1893427" id="Fill-1" fill="#262626"></path>
    </g>
</svg>