<?xml version="1.0" encoding="UTF-8"?>
<svg width="16px" height="16px" viewBox="0 0 16 16" version="1.1" xmlns="http://www.w3.org/2000/svg" xmlns:xlink="http://www.w3.org/1999/xlink">
    <title>host resources</title>
    <g id="host-resources" stroke="none" stroke-width="1" fill="none" fill-rule="evenodd">
        <rect id="矩形" fill="#000000" opacity="0" x="0" y="0" width="16" height="16"></rect>
        <g id="编组-13" transform="translate(0.400000, 0.490480)" fill="#262626">
            <path d="M6.88822765,0.475145313 C7.03701699,0.771233767 6.91760746,1.13187848 6.62151901,1.28066782 L1.3619925,3.92364255 C1.26253966,3.97468178 1.2,4.07707168 1.2,4.18885661 L1.2,10.2765421 C1.2,10.3883271 1.26253966,10.490717 1.35833378,10.5398943 L6.62240382,13.1960718 C6.9182462,13.3453498 7.03706011,13.7061912 6.8877821,14.0020336 C6.73850409,14.297876 6.37766272,14.4166899 6.08182033,14.2674119 L0.814091563,11.6093725 C0.31429237,11.3528754 0,10.8383161 0,10.2765421 L0,4.18885661 C0,3.62708265 0.31429237,3.11252332 0.818635102,2.85371883 L6.08270515,0.208436673 C6.3787936,0.0596473338 6.73943831,0.179056859 6.88822765,0.475145313 Z M8.9461678,0.0662429529 L14.3859084,2.85602625 C14.8857076,3.11252332 15.2,3.62708265 15.2,4.18885661 L15.2,10.2765421 C15.2,10.8383161 14.8857076,11.3528754 14.3752297,11.6147192 L8.9356361,14.2708968 C8.63786907,14.4162977 8.27861044,14.2927806 8.13320949,13.9950136 C7.98780854,13.6972465 8.11132565,13.3379879 8.40909267,13.192587 L13.8380075,10.5417562 C13.9374603,10.490717 14,10.3883271 14,10.2765421 L14,4.18885661 C14,4.07707168 13.9374603,3.97468178 13.8381546,3.923718 L8.39856098,1.13401014 C8.10370521,0.982792698 7.98726335,0.621178909 8.13848079,0.326323141 C8.28969824,0.0314673725 8.65131203,-0.0849744938 8.9461678,0.0662429529 Z M12.7049961,8.02680986 L12.7049961,9.72847521 L8.01596855,11.9973623 L8.01596855,10.1822526 L12.7049961,8.02680986 Z M2.49500395,8.02680986 L7.18403145,10.1822526 L7.18403145,11.9973623 L2.49500395,9.72847521 L2.49500395,8.02680986 Z M5.86052577,10.0309994 C5.59581046,9.95536393 5.36892174,10.1444438 5.36892174,10.4091414 C5.36892174,10.6738389 5.59581046,10.9385543 5.86052577,10.9763631 C6.12522336,11.0519986 6.35211208,10.8629365 6.35211208,10.5982212 C6.35211208,10.3335059 6.12524109,10.1066349 5.86052577,10.0309994 Z M12.7049961,5.34195418 L12.7049961,7.19489049 L8.01596855,9.42595102 L8.01596855,7.49739696 L12.7049961,5.34195418 Z M2.49500395,5.34195418 L7.18403145,7.49739696 L7.18403145,9.38814214 L2.49500395,7.19489049 L2.49500395,5.34195418 Z M5.86052577,7.3839526 C5.59581046,7.30833485 5.36892174,7.49741468 5.36892174,7.76211227 C5.36892174,8.02680986 5.59581046,8.29150745 5.86052577,8.32933406 C6.12522336,8.40495181 6.35211208,8.21587197 6.35211208,7.95117438 C6.35211208,7.68647679 6.12524109,7.45957035 5.86052577,7.3839526 Z M7.6,2.27895655 L12.4781073,4.69911464 L7.6,6.77892194 L2.72189266,4.69911464 L7.6,2.27895655 Z" id="形状结合"></path>
        </g>
    </g>
</svg>