<?xml version="1.0" encoding="UTF-8"?>
<svg width="16px" height="16px" viewBox="0 0 16 16" version="1.1" xmlns="http://www.w3.org/2000/svg" xmlns:xlink="http://www.w3.org/1999/xlink">
    <title>http-monitoring-info-third-menu</title>
    <g id="http-monitoring-info-third-menu" stroke="none" stroke-width="1" fill="none" fill-rule="evenodd">
        <rect id="矩形" fill-opacity="0" fill="#F0F0F0" x="0" y="0" width="16" height="16"></rect>
        <g id="图形" transform="translate(1.000000, 1.000000)">
            <rect id="矩形" fill-opacity="0" fill="#F0F0F0" x="0" y="0" width="14" height="14"></rect>
            <path d="M13,0 C13.5522847,0 14,0.44771525 14,1 L14,10 C14,10.5522847 13.5522847,11 13,11 L5.39572645,11.0005576 C5.37780679,11.034926 5.35627678,11.0680535 5.33107986,11.099422 L3.784,13.0246775 L10.226,13.0246775 L10.2187848,13.0139279 C10.0873963,12.8389207 10.0436001,12.7805849 9.93723798,12.6389124 L9.87814791,12.5602054 C9.67919648,12.2952055 9.73273938,11.9190986 9.99773933,11.7201471 C10.2627393,11.5211957 10.6388462,11.5747386 10.8377976,11.8397385 C11.0348803,12.1022494 11.0348803,12.1022494 11.3445818,12.5147666 C11.9916193,13.3766095 11.3763817,14.225 10.3208704,14.225 L3.67912961,14.225 C2.62361834,14.225 2.00838073,13.3766095 2.66746524,12.4992555 L3.871,11 L1,11 C0.44771525,11 0,10.5522847 0,10 L0,1 C0,0.44771525 0.44771525,0 1,0 L13,0 Z M12.8,1.2 L1.2,1.2 L1.2,9.8 L12.8,9.8 L12.8,1.2 Z M6.35406445,3.30736876 L7.359,6.271 L8.02922074,4.84529368 C8.11397553,4.66486481 8.28155932,4.54034765 8.47416738,4.50845354 L8.57228916,4.50039503 L11.5,4.50039503 C11.8313708,4.50039503 12.1,4.76902418 12.1,5.10039503 C12.1,5.43176588 11.8313708,5.70039503 11.5,5.70039503 L8.953,5.7 L7.81201261,8.13010135 C7.59765754,8.58642771 6.96643369,8.58216961 6.74222249,8.16364014 L6.70070727,8.06763124 L5.74,5.235 L5.17474851,6.65667415 C5.09522322,6.85640132 4.91618445,6.996047 4.70807539,7.02783768 L4.61731135,7.03471961 L2.5,7.03471961 C2.16862915,7.03471961 1.9,6.76609046 1.9,6.43471961 C1.9,6.10334876 2.16862915,5.83471961 2.5,5.83471961 L4.21,5.834 L5.22839036,3.27804546 C5.43476855,2.7597282 6.17495171,2.77900964 6.35406445,3.30736876 Z" id="形状结合" fill="#262626" fill-rule="nonzero"></path>
        </g>
    </g>
</svg>