<?xml version="1.0" encoding="UTF-8"?>
<svg width="16px" height="16px" viewBox="0 0 16 16" version="1.1" xmlns="http://www.w3.org/2000/svg" xmlns:xlink="http://www.w3.org/1999/xlink">
    <title>iis-third-menu</title>
    <g id="iis-third-menu" stroke="none" stroke-width="1" fill="none" fill-rule="evenodd">
        <rect id="矩形" fill-opacity="0" fill="#F0F0F0" x="0" y="0" width="16" height="16"></rect>
        <g id="资源实例" transform="translate(1.000000, 1.000000)">
            <rect id="矩形" fill="#FFFFFF" opacity="0" x="0" y="0" width="14" height="14"></rect>
            <path d="M0.525,12.5884103 L0.525,1.0788493 L1.725,1.0788493 L1.725,12.5884103 L0.525,12.5884103 Z M4.01189534,12.5884103 L4.01189534,1.0788493 L5.21189534,1.0788493 L5.21189534,12.5884103 L4.01189534,12.5884103 Z M10.6666221,0.726492001 L10.8921655,0.730629749 C11.6205226,0.734108296 12.3433583,0.857248965 13.0317831,1.09513019 L13.2001341,1.15330291 L13.2001341,2.54773926 L12.8484666,2.39119745 C12.1999356,2.10250942 11.4972483,1.95559425 10.7725802,1.9599328 C10.1647634,1.92790994 9.56609511,2.11839531 9.09140741,2.49346309 C8.69644499,2.8151142 8.47162001,3.30073617 8.48160954,3.82810217 C8.45823503,4.27502731 8.60430105,4.71432359 8.86825477,5.03468524 C9.46155968,5.58341489 10.1262538,6.04950437 10.8526439,6.42481943 C11.946192,7.0430672 12.6901555,7.60559841 13.0757675,8.11218797 C13.4645638,8.62559095 13.6701295,9.25445969 13.6595337,9.88591622 C13.6895801,10.7803068 13.3229603,11.642283 12.6586914,12.2402519 C11.9956659,12.8425422 11.0705068,13.140044 9.88974944,13.140044 C9.40886776,13.1304893 8.93069237,13.0655065 8.4761141,12.949018 C8.04089955,12.859247 7.62101687,12.7067896 7.22959388,12.4964124 L7.09794913,12.4256576 L7.09794913,10.8989349 L7.48848857,11.1643966 C8.18419322,11.6372884 9.00237367,11.8977233 9.85593653,11.9145518 C10.5244979,11.9610564 11.1892246,11.7809074 11.726763,11.4151057 C12.0934062,11.1193688 12.3132702,10.6821758 12.3355401,10.1995325 L12.3356261,9.86988002 C12.317971,9.48159926 12.1775398,9.11010193 11.9487274,8.82876294 C11.3533291,8.2764289 10.6862356,7.8068226 9.95553126,7.42717909 C8.75468436,6.73308958 7.9934011,6.14581392 7.66255728,5.64445419 C7.32196051,5.1330574 7.14578383,4.52978574 7.15759516,3.92262866 C7.14942639,3.05199153 7.52887908,2.22281715 8.19202781,1.66078528 C8.82823606,1.11544584 9.62048662,0.793367181 10.4419559,0.73564827 L10.6666221,0.726492001 Z" id="形状结合" fill="#262626" fill-rule="nonzero"></path>
        </g>
    </g>
</svg>