<?xml version="1.0" encoding="UTF-8"?>
<svg width="16px" height="16px" viewBox="0 0 16 16" version="1.1" xmlns="http://www.w3.org/2000/svg" xmlns:xlink="http://www.w3.org/1999/xlink">
    <title>incident-management-third-menu</title>
    <g id="incident-management-third-menu" stroke="none" stroke-width="1" fill="none" fill-rule="evenodd">
        <rect id="矩形" fill="#000000" opacity="0" x="0" y="0" width="16" height="16"></rect>
        <g id="编组-2" transform="translate(1.500000, 1.500000)">
            <g id="编组">
                <path d="M4.51232993,13 L1,13 C0.44771525,13 0,12.5522847 0,12 L0,1 C0,0.44771525 0.44771525,0 1,0 L10,0 C10.5522847,0 11,0.44771525 11,1 L11,4.99909886" id="路径" stroke="#262626" stroke-width="1.2" stroke-linecap="round" stroke-linejoin="round"></path>
                <rect id="矩形" fill="#262626" x="2.13953324" y="2.49612212" width="7" height="1.4263555" rx="0.713177748"></rect>
                <rect id="矩形备份" fill="#262626" x="2.13953324" y="5.49150435" width="5" height="1.4263555" rx="0.713177748"></rect>
            </g>
            <path d="M10.6066025,7.52866222 C10.7271051,7.60612821 10.8295574,7.70858046 10.9070234,7.82908311 L13.2398223,11.4578814 C13.5384744,11.9224514 13.4039714,12.5411653 12.9394014,12.8398175 C12.7781041,12.9435086 12.5903954,12.998639 12.3986438,12.998639 L7.733046,12.998639 C7.18076125,12.998639 6.733046,12.5509237 6.733046,11.998639 C6.733046,11.8068874 6.78817638,11.6191787 6.89186753,11.4578814 L9.22466643,7.82908311 C9.5233186,7.36451307 10.1420325,7.23001005 10.6066025,7.52866222 Z M10.0597925,11.1991791 C9.82127707,11.1991791 9.62792211,11.392534 9.62792211,11.6310494 C9.62792211,11.8695649 9.82127707,12.0629198 10.0597925,12.0629198 C10.2983079,12.0629198 10.4916629,11.8695649 10.4916629,11.6310494 C10.4916629,11.392534 10.2983079,11.1991791 10.0597925,11.1991791 Z M10.0597925,8.34318171 C9.82127707,8.34318171 9.64800174,8.53653667 9.67277121,8.77505209 L9.86930504,10.6675571 C9.87943915,10.7651426 9.96168215,10.8392871 10.0597925,10.8392871 C10.1579028,10.8392871 10.2401458,10.7651426 10.2502799,10.6675571 L10.4468138,8.77505209 C10.4715832,8.53653667 10.2983079,8.34318171 10.0597925,8.34318171 Z" id="形状结合备份-2" fill="#262626"></path>
        </g>
    </g>
</svg>