<?xml version="1.0" encoding="UTF-8"?>
<svg width="16px" height="16px" viewBox="0 0 16 16" version="1.1" xmlns="http://www.w3.org/2000/svg" xmlns:xlink="http://www.w3.org/1999/xlink">
    <title>infra-monitor-third-menu</title>
    <g id="infra-monitor-third-menu" stroke="none" stroke-width="1" fill="none" fill-rule="evenodd">
        <g id="Mysql">
            <rect id="矩形" x="0" y="0" width="16" height="16"></rect>
            <g id="MysQL">
                <rect id="矩形备份" x="0" y="0" width="16" height="16"></rect>
            </g>
        </g>
        <g id="IT资源监控" transform="translate(2.000000, 2.000000)">
            <path d="" id="矩形备份-3" stroke="#262626" fill-rule="nonzero"></path>
            <path d="M6,10 L1,10 C0.44771525,10 0,9.55228475 0,9 L0,1 C0,0.44771525 0.44771525,0 1,0 L10,0 C10.5522847,0 11,0.44771525 11,1 L11,5" id="路径" stroke="#262626" stroke-width="1.2" stroke-linecap="round" fill-rule="nonzero"></path>
            <path d="" id="矩形备份-3" stroke="#262626" fill-rule="nonzero" transform="translate(5.000000, 11.100000) rotate(-90.000000) translate(-5.000000, -11.100000) "></path>
            <g id="编组备份-4" transform="translate(8.000000, 6.862145)" fill="#262626">
                <path d="M4.38954217,4.67351381 L4.82447581,5.63062259 C4.87286118,5.73636161 4.85957698,5.84873284 4.78643141,5.94659903 C4.649036,6.13120511 4.34260202,6.21387995 4.09960618,6.21387995 L0.980664534,6.21387995 C0.696443468,6.21387995 0.433135275,6.11526145 0.309637794,5.96279346 C0.231971774,5.86664969 0.210926916,5.75357895 0.250442943,5.64370881 L0.255794896,5.63062259 L0.690721958,4.67351381 C1.16775194,5.09360586 1.82084865,5.35368046 2.54016835,5.35368046 C3.25938907,5.35368046 3.91225481,5.09383024 4.38954217,4.67351381 Z M2.55756066,0 C3.97005402,0 5.11512133,1.14482311 5.11512133,2.55701292 C5.11512133,3.96920274 3.97005402,5.11401265 2.55756066,5.11401265 C1.14506728,5.11401265 0,3.96920274 0,2.55700633 C0,1.14480991 1.14506728,0 2.55756066,0 Z M2.55756066,1.56346994 C1.75344779,1.56346994 1.10160493,2.21518082 1.10160493,3.01911549 C1.10160493,3.8230502 1.75345439,4.47476768 2.55756066,4.47476768 C3.36167351,4.47476768 4.01351639,3.8230568 4.01351639,3.01912209 C4.01351639,2.21518742 3.36167351,1.56346994 2.55756066,1.56346994 Z M2.55756066,2.25663701 C2.99578072,2.25663701 3.3510158,2.61180611 3.3510158,3.04992719 C3.3510158,3.48804825 2.99578072,3.84321735 2.55756066,3.84321735 C2.11934059,3.84321735 1.7641055,3.48804825 1.7641055,3.04992719 C1.7641055,2.61180611 2.11934719,2.25663701 2.55756066,2.25663701 Z" id="形状结合"></path>
            </g>
            <path d="M7.47460995,6.14449007 L6.58477942,5.25465959 C6.44790436,5.11778448 6.44790436,4.89586613 6.58477942,4.75899102 C6.72165453,4.62211595 6.94357289,4.62211595 7.08044799,4.75899102 L8.81001483,6.48855786 L8.81001483,6.48855786 L7.08044799,8.21812474 C6.94357289,8.35499981 6.72165453,8.35499981 6.58477942,8.21812474 C6.4478811,8.08122638 6.44781668,7.85929019 6.58463556,7.72231239 L7.47197341,6.83394394 L7.47197341,6.83394394 L4.95342352,6.83394394 C4.76303609,6.83394394 4.60869659,6.67960443 4.60869659,6.489217 C4.60869659,6.29882958 4.76303609,6.14449007 4.95342352,6.14449007 L7.47460995,6.14449007 L7.47460995,6.14449007 Z M3.14410148,3.33789875 L5.66265136,3.33789875 C5.85522299,3.33789875 6.01133313,3.49400888 6.01133313,3.68658046 C6.01133313,3.87915209 5.85522299,4.03526223 5.66265136,4.03526223 L3.14673801,4.03526223 L3.14673801,4.03526223 L4.03525025,4.92377446 C4.17212531,5.06064953 4.17212531,5.28256792 4.03525025,5.41944299 C3.89837514,5.5563181 3.67645678,5.5563181 3.53958168,5.41944299 L1.81001483,3.68987615 L1.81001483,3.68987615 L3.54576099,1.95989657 C3.68293042,1.82318287 3.90489984,1.82336754 4.04184158,1.96030928 C4.17776834,2.09623606 4.17776834,2.3166169 4.04184158,2.45254366 C4.04127121,2.45311403 4.04069885,2.45368241 4.04012455,2.45424881 L3.14410148,3.33789875 L3.14410148,3.33789875 Z" id="形状" fill="#262626" fill-rule="nonzero"></path>
        </g>
    </g>
</svg>