<?xml version="1.0" encoding="UTF-8"?>
<svg width="16px" height="16px" viewBox="0 0 16 16" version="1.1" xmlns="http://www.w3.org/2000/svg" xmlns:xlink="http://www.w3.org/1999/xlink">
    <title>inspection-overview-third-menu</title>
    <defs>
        <path d="M3.10040697,0.434881654 C3.10040697,0.615901767 3.20225801,0.770752306 3.34684054,0.836259584 L3.34684054,0.836259584 L3.34684054,1.52550283 L2.89517329,1.54000444 C2.01527219,1.59884432 1.45654647,1.78753195 1.10535183,2.05906212 L1.10535183,2.05906212 C0.836250656,2.32725858 0.645873447,2.68596511 0.572050586,3.08900989 L0.572050586,3.08900989 L0.363294241,3.08900989 C0.163267985,3.08900989 0,3.26702967 0,3.48438715 L0,3.48438715 L0,4.04911657 C0,4.26647405 0.163267985,4.44449383 0.363294241,4.44449383 L0.363294241,4.44449383 L0.53973394,4.44449383 C0.554743567,4.97305256 0.769013653,5.4497722 1.10535183,5.78497611 L1.10535183,5.78497611 C1.45195169,6.05300589 2.00194731,6.23952661 2.86163137,6.30086676 L2.86163137,6.30086676 C2.85872134,6.32136904 2.85703658,6.34370486 2.85703658,6.36887432 L2.85703658,6.36887432 L2.85703658,6.55406156 C2.85703658,6.75791755 3.00912393,6.92343594 3.19628479,6.92343594 L3.19628479,6.92343594 L3.21420445,6.92343594 L3.21420445,7.24080453 L1.91970068,7.24080453 C1.58274987,7.24080453 1.307216,7.54083787 1.307216,7.90754528 L1.307216,7.90754528 L1.307216,8.3709301 C1.92460179,8.77014113 2.64521705,9 3.41530282,9 L3.41530282,9 C4.25476982,9 5.0354236,8.72696966 5.68757658,8.25925103 L5.68757658,8.25925103 L5.68757658,7.90754528 C5.68757658,7.54083787 5.41173639,7.24080453 5.07493874,7.24080453 L5.07493874,7.24080453 L3.78028181,7.24080453 L3.78028181,6.92343594 L3.79820147,6.92343594 C3.98566865,6.92343594 4.13760284,6.75791755 4.13760284,6.55406156 L4.13760284,6.55406156 L4.13760284,6.36887432 C4.13760284,6.34387154 4.13760284,6.3218691 4.13729652,6.3027003 L4.13729652,6.3027003 L4.16792841,6.30170019 C4.95777175,6.2453606 5.48004551,6.08234248 5.82327586,5.84764974 L5.82327586,5.84764974 C6.19713811,5.51061229 6.43867058,5.00705634 6.45459916,4.44449383 L6.45459916,4.44449383 L6.63670576,4.44449383 C6.83657886,4.44449383 7,4.26647405 7,4.04911657 L7,4.04911657 L7,3.48438715 C7,3.26702967 6.83657886,3.08900989 6.63670576,3.08900989 L6.63670576,3.08900989 L6.42197619,3.08900989 C6.34218012,2.65362818 6.12668475,2.26991888 5.82327586,1.99638849 L5.82327586,1.99638849 C5.48004551,1.76169574 4.95777175,1.59867763 4.16792841,1.54233804 L4.16792841,1.54233804 L3.65315946,1.52550283 L3.65315946,0.836259584 C3.79774199,0.770752306 3.89959303,0.615901767 3.89959303,0.434881654 L3.89959303,0.434881654 C3.89959303,0.194688299 3.72070278,0 3.5,0 L3.5,0 C3.27914406,0 3.10040697,0.194688299 3.10040697,0.434881654" id="path-1"></path>
    </defs>
    <g id="inspection-overview-third-menu" stroke="none" stroke-width="1" fill="none" fill-rule="evenodd">
        <g id="编组-3备份-2" transform="translate(1.000000, 1.000000)">
            <path d="M6.23142279,10.5 L6.23142279,10.5 L1,10.5 C0.44771525,10.5 0,10.0522847 0,9.5 L0,1 C0,0.44771525 0.44771525,0 1,0 L13,0 C13.5522847,0 14,0.44771525 14,1 L14,4.38738771 L14,4.38738771" id="路径" stroke="#262626" stroke-width="1.2" stroke-linecap="round" stroke-linejoin="round"></path>
            <g id="编组-15" transform="translate(6.125000, 3.500000)"></g>
        </g>
        <polyline id="路径-12" stroke="#262626" stroke-width="1.08" stroke-linecap="round" points="3 7.35396527 5.35256817 7.35396527 6.65091947 4 8 8 9.74698795 5.82902289 13 5.82902289"></polyline>
        <g id="Fill-1-Clipped" transform="translate(8.000000, 6.000000)">
            <mask id="mask-2" fill="white">
                <use xlink:href="#path-1"></use>
            </mask>
            <g id="path-1"></g>
            <path d="M3.5,0 L3.57183095,0.00700603679 C3.75824765,0.0438258572 3.89959303,0.221376449 3.89959303,0.434881654 L3.89137915,0.522918442 C3.8644557,0.665036856 3.7736449,0.781670186 3.65315946,0.836259584 L3.65315946,1.52550283 L4.16792841,1.54233804 L4.39694285,1.56240527 C5.06043607,1.631998 5.51436855,1.78516502 5.82327586,1.99638849 L5.94778647,2.12019087 C6.18548548,2.38060465 6.35357956,2.71582557 6.42197619,3.08900989 L6.63670576,3.08900989 L6.7097015,3.0970837 C6.87488069,3.13412949 7,3.29419936 7,3.48438715 L7,4.04911657 L6.99258762,4.12851081 C6.95857515,4.30819744 6.81159472,4.44449383 6.63670576,4.44449383 L6.45459916,4.44449383 L6.44106188,4.62968176 C6.38336299,5.11690188 6.15559786,5.5480609 5.82327586,5.84764974 L5.71484693,5.91587232 C5.37291506,6.11387932 4.87878741,6.25099455 4.16792841,6.30170019 L4.13729652,6.3027003 L4.13760284,6.55406156 L4.13070827,6.62846208 C4.09906409,6.79671092 3.96223525,6.92343594 3.79820147,6.92343594 L3.78028181,6.92343594 L3.78028181,7.24080453 L5.07493874,7.24080453 L5.16511986,7.24806805 C5.45960948,7.29590708 5.68757658,7.57417491 5.68757658,7.90754528 L5.68757658,8.25925103 L5.48814535,8.39364763 C4.87870471,8.77884543 4.17082312,9 3.41530282,9 L3.16051355,8.99156971 C2.48635476,8.94682948 1.85600336,8.72578435 1.307216,8.3709301 L1.307216,7.90754528 L1.31388655,7.80936257 C1.35782064,7.48876597 1.61338176,7.24080453 1.91970068,7.24080453 L3.21420445,7.24080453 L3.21420445,6.92343594 L3.19628479,6.92343594 L3.12797208,6.91592566 C2.97347846,6.88145731 2.85703658,6.73243555 2.85703658,6.55406156 L2.85703658,6.36887432 L2.85824271,6.33312035 L2.86163137,6.30086676 L2.63477045,6.28106679 C1.90362907,6.20494013 1.42044261,6.02863955 1.10535183,5.78497611 L0.997866032,5.66812316 C0.723858084,5.34319451 0.553075831,4.91432381 0.53973394,4.44449383 L0.363294241,4.44449383 L0.290254528,4.43642002 C0.125002051,4.39937424 0,4.23930437 0,4.04911657 L0,3.48438715 L0.00740609752,3.40499292 C0.0413913443,3.22530628 0.188271267,3.08900989 0.363294241,3.08900989 L0.572050586,3.08900989 L0.610714643,2.91912561 C0.701873547,2.58532467 0.874693681,2.2889448 1.10535183,2.05906212 L1.20636297,1.9870977 C1.56078731,1.75429823 2.0952632,1.59349524 2.89517329,1.54000444 L3.34684054,1.52550283 L3.34684054,0.836259584 L3.27838393,0.796353144 C3.17113686,0.718408527 3.10040697,0.585731748 3.10040697,0.434881654 C3.10040697,0.194688299 3.27914406,0 3.5,0 Z M4.27832575,2.63719302 L2.72161299,2.63719302 C2.12230002,2.63719302 1.63188342,3.17091899 1.63188342,3.82315813 L1.63188342,3.99267696 C1.63188342,4.6449161 2.12230002,5.17847539 2.72161299,5.17847539 L3.55189043,5.17847539 L3.55189043,5.56968552 C3.55189043,5.66002889 3.64179503,5.7162018 3.71347366,5.67069674 L4.74530894,5.06562951 C4.75066953,5.06212913 4.75465167,5.05879542 4.75786802,5.05529503 C5.11809907,4.86127347 5.36805531,4.45772864 5.36805531,3.99267696 L5.36805531,3.82315813 C5.36805531,3.17091899 4.87763872,2.63719302 4.27832575,2.63719302 Z M4.27832575,3.45611735 C4.47896464,3.45611735 4.64146683,3.63313702 4.64146683,3.85132793 C4.64146683,4.06968552 4.47896464,4.24670519 4.27832575,4.24670519 C4.07768685,4.24670519 3.91518467,4.06968552 3.91518467,3.85132793 C3.91518467,3.63313702 4.07768685,3.45611735 4.27832575,3.45611735 Z M2.77353405,3.45611735 C2.97401978,3.45611735 3.13682829,3.63313702 3.13682829,3.85132793 C3.13682829,4.06968552 2.97401978,4.24670519 2.77353405,4.24670519 C2.57289515,4.24670519 2.4102398,4.06968552 2.4102398,3.85132793 C2.4102398,3.63313702 2.57289515,3.45611735 2.77353405,3.45611735 Z" id="形状结合" fill="#262626" mask="url(#mask-2)"></path>
        </g>
    </g>
</svg>