<?xml version="1.0" encoding="UTF-8"?>
<svg width="16px" height="16px" viewBox="0 0 16 16" version="1.1" xmlns="http://www.w3.org/2000/svg" xmlns:xlink="http://www.w3.org/1999/xlink">
    <title>instance-info-third-menu</title>
    <g id="instance-info-third-menu" stroke="none" stroke-width="1" fill="none" fill-rule="evenodd">
        <rect id="矩形" fill-opacity="0" fill="#F0F0F0" x="0" y="0" width="16" height="16"></rect>
        <g id="elasticsearch" transform="translate(1.000000, 1.000000)">
            <rect id="矩形" fill-opacity="0" fill="#D8D8D8" x="0" y="0" width="13.3333333" height="13.3333333"></rect>
            <path d="M14.0293167,12.2304127 C14.1256317,12.3004793 14.177251,12.416608 14.1647301,12.5350542 C14.1522093,12.6535004 14.0774505,12.7562692 13.9686147,12.8046487 L10.9688062,14.1379762 C10.9261549,14.156918 10.8800015,14.1666924 10.8333333,14.1666666 C10.7867868,14.1666666 10.7405975,14.1569047 10.6980985,14.1380953 L7.69817097,12.8047678 C7.52989256,12.7299795 7.45410259,12.5329324 7.52888935,12.3646506 C7.6036761,12.1963689 7.80071935,12.1205774 7.96899776,12.1953657 L10.8333333,13.4684553 L13.697788,12.1953657 C13.8066237,12.1469862 13.9330018,12.160346 14.0293167,12.2304127 Z M8.95533333,0 L12.3883333,3.394 L12.3883333,6.666 L11.1883333,6.666 L11.1883333,3.895 L8.46133333,1.199 L2.03333333,1.2 L2.03333333,12.133 L6.66633333,12.133 L6.66633333,13.333 L1.93333333,13.3333333 C1.32582011,13.3333333 0.833333333,12.8408466 0.833333333,12.2333333 L0.833333333,1.10067473 C0.833333333,0.493161502 1.32582011,0.000674726792 1.93333333,0.000674726792 L8.95533333,0 Z M14.0291977,10.5636343 C14.1255126,10.6337009 14.1771319,10.7498296 14.1646111,10.8682758 C14.1520902,10.9867219 14.0773315,11.0894908 13.9684957,11.1378703 L10.9686872,12.4711978 C10.9260814,12.4901643 10.8799698,12.4999789 10.8333333,12.5000072 C10.7866678,12.5001262 10.7404784,12.4902453 10.6979795,12.4713168 L7.69817097,11.1381084 C7.58933519,11.0897289 7.51457643,10.98696 7.50205559,10.8685139 C7.48953475,10.7500677 7.54115404,10.633939 7.63746898,10.5638723 C7.73378393,10.4938057 7.86016198,10.4804458 7.96899776,10.5288253 L10.8333333,11.801915 L13.6976689,10.5285873 C13.8065047,10.4802077 13.9328827,10.4935676 14.0291977,10.5636343 Z M10.9686872,7.52871943 L13.9684957,8.86204692 C14.0889882,8.91549514 14.1666667,9.03493093 14.1666667,9.16674797 C14.1666667,9.29856502 14.0889882,9.4180008 13.9684957,9.47144902 L10.9686872,10.8047765 C10.8824988,10.8428716 10.7841679,10.8428716 10.6979795,10.8047765 L7.69817097,9.47144902 C7.57767845,9.4180008 7.5,9.29856502 7.5,9.16674797 C7.5,9.03493093 7.57767845,8.91549514 7.69817097,8.86204692 L10.6979795,7.52871943 C10.7841531,7.49042686 10.8825136,7.49042686 10.9686872,7.52871943 Z M9.29846939,6.33333333 L9.29846939,7.41666667 L3.46513605,7.41666667 L3.46513605,6.33333333 L9.29846939,6.33333333 Z M6.38180273,4 L6.38180273,5.08333333 L3.46513605,5.08333333 L3.46513605,4 L6.38180273,4 Z" id="形状结合" fill="#262626" fill-rule="nonzero"></path>
        </g>
    </g>
</svg>