<?xml version="1.0" encoding="UTF-8"?>
<svg width="16px" height="16px" viewBox="0 0 16 16" version="1.1" xmlns="http://www.w3.org/2000/svg" xmlns:xlink="http://www.w3.org/1999/xlink">
    <title>ip-segment-third-menu</title>
    <g id="ip-segment-third-menu" stroke="none" stroke-width="1" fill="none" fill-rule="evenodd">
        <rect id="矩形" fill-opacity="0" fill="#F0F0F0" x="0" y="0" width="16" height="16"></rect>
        <g id="图形" transform="translate(1.000000, 1.000000)" fill="#262626" fill-rule="nonzero">
            <path d="M13,0 C13.5522847,0 14,0.44771525 14,1 L14,10 C14,10.5522847 13.5522847,11 13,11 L5.39572645,11.0005576 C5.37780679,11.034926 5.35627678,11.0680535 5.33107986,11.099422 L3.784,13.0246775 L10.226,13.0246775 L10.2187848,13.0139279 C10.0873963,12.8389207 10.0436001,12.7805849 9.93723798,12.6389124 L9.87814791,12.5602054 C9.67919648,12.2952055 9.73273938,11.9190986 9.99773933,11.7201471 C10.2627393,11.5211957 10.6388462,11.5747386 10.8377976,11.8397385 C11.0348803,12.1022494 11.0348803,12.1022494 11.3445818,12.5147666 C11.9916193,13.3766095 11.3763817,14.225 10.3208704,14.225 L3.67912961,14.225 C2.62361834,14.225 2.00838073,13.3766095 2.66746524,12.4992555 L3.871,11 L1,11 C0.44771525,11 0,10.5522847 0,10 L0,1 C0,0.44771525 0.44771525,0 1,0 L13,0 Z M12.8,1.2 L1.2,1.2 L1.2,9.8 L12.8,9.8 L12.8,1.2 Z M10.7441406,4.065625 C10.9887695,4.065625 11.1912842,4.13410645 11.3516846,4.27106934 C11.512085,4.40803223 11.6142578,4.60688477 11.6582031,4.86762695 L11.0605469,4.93354492 C11.0458984,4.81049805 11.0078125,4.71967773 10.9462891,4.66108398 C10.8847656,4.60249023 10.8049316,4.57319336 10.7067871,4.57319336 C10.576416,4.57319336 10.4661865,4.63178711 10.3760986,4.74897461 C10.2860107,4.86616211 10.229248,5.11005859 10.2058105,5.48066406 C10.3596191,5.29902344 10.5507812,5.20820313 10.7792969,5.20820313 C11.0371094,5.20820313 11.2579346,5.30634766 11.4417725,5.50263672 C11.6256104,5.69892578 11.7175293,5.95234375 11.7175293,6.26289063 C11.7175293,6.59248047 11.6208496,6.85688477 11.4274902,7.05610352 C11.2341309,7.25532227 10.9858398,7.35493164 10.6826172,7.35493164 C10.3574219,7.35493164 10.0900879,7.22858887 9.88061523,6.97590332 C9.67114258,6.72321777 9.56640625,6.3090332 9.56640625,5.73334961 C9.56640625,5.14301758 9.67553711,4.71748047 9.89379883,4.45673828 C10.1120605,4.19599609 10.3955078,4.065625 10.7441406,4.065625 Z M3.08007812,4.07880859 L3.08007812,7.3 L2.4296875,7.3 L2.4296875,4.07880859 L3.08007812,4.07880859 Z M4.7434082,4.07880859 C5.13891602,4.07880859 5.39672852,4.09492188 5.5168457,4.12714844 C5.70141602,4.17548828 5.85595703,4.28059082 5.98046875,4.44245605 C6.10498047,4.60432129 6.16723633,4.81342773 6.16723633,5.06977539 C6.16723633,5.2675293 6.13134766,5.43378906 6.05957031,5.56855469 C5.98779297,5.70332031 5.89660645,5.80915527 5.78601074,5.88605957 C5.67541504,5.96296387 5.56298828,6.01386719 5.44873047,6.03876953 C5.29345703,6.06953125 5.06860352,6.08491211 4.77416992,6.08491211 L4.35009766,6.08491211 L4.35009766,7.3 L3.69970703,7.3 L3.69970703,4.07880859 L4.7434082,4.07880859 Z M7.0769043,4.07880859 L7.89208984,6.4628418 L8.6809082,4.07880859 L9.37084961,4.07880859 L8.21728516,7.3 L7.52294922,7.3 L6.37158203,4.07880859 L7.0769043,4.07880859 Z M10.6826172,5.66303711 C10.5639648,5.66303711 10.463623,5.7095459 10.3815918,5.80256348 C10.2995605,5.89558105 10.2585449,6.03291016 10.2585449,6.21455078 C10.2585449,6.41523438 10.3046875,6.5701416 10.3969727,6.67927246 C10.4892578,6.78840332 10.5947266,6.84296875 10.7133789,6.84296875 C10.8276367,6.84296875 10.9228516,6.79829102 10.9990234,6.70893555 C11.0751953,6.61958008 11.1132812,6.4730957 11.1132812,6.26948242 C11.1132812,6.06000977 11.0722656,5.90656738 10.9902344,5.80915527 C10.9082031,5.71174316 10.8056641,5.66303711 10.6826172,5.66303711 Z M4.66430664,4.62373047 L4.35009766,4.62373047 L4.35009766,5.53779297 L4.70605469,5.53779297 C4.96240234,5.53779297 5.13378906,5.52094727 5.22021484,5.48725586 C5.30664062,5.45356445 5.37438965,5.40083008 5.42346191,5.32905273 C5.47253418,5.25727539 5.49707031,5.1737793 5.49707031,5.07856445 C5.49707031,4.96137695 5.46264648,4.86469727 5.39379883,4.78852539 C5.32495117,4.71235352 5.23779297,4.66474609 5.13232422,4.64570313 C5.0546875,4.63105469 4.89868164,4.62373047 4.66430664,4.62373047 Z" id="形状结合"></path>
        </g>
    </g>
</svg>