<?xml version="1.0" encoding="UTF-8"?>
<svg width="16px" height="16px" viewBox="0 0 16 16" version="1.1" xmlns="http://www.w3.org/2000/svg" xmlns:xlink="http://www.w3.org/1999/xlink">
    <title>ip-third-menu</title>
    <g id="ip-third-menu" stroke="none" stroke-width="1" fill="none" fill-rule="evenodd">
        <rect id="矩形" fill-opacity="0" fill="#F0F0F0" x="0" y="0" width="16" height="16"></rect>
        <g id="_定位小" transform="translate(1.000000, 0.399929)">
            <rect id="矩形" fill-opacity="0" fill="#D8D8D8" x="0" y="0.600071187" width="14" height="14"></rect>
            <ellipse id="椭圆形" fill="#262626" opacity="0.550000012" cx="6.9875" cy="14.4750712" rx="2.1875" ry="1"></ellipse>
            <path d="M11.560122,1.87283569 C12.7671772,3.06986152 13.4461432,4.69940819 13.4461432,6.39936494 C13.4461432,8.0993217 12.7671772,9.72886837 11.56063,10.9253898 L7.78844675,14.6751673 C7.35938458,15.1016809 6.66642886,15.1016563 6.23739703,14.6751121 L2.46518884,10.9247764 C1.25883976,9.72827979 0.58,8.09887154 0.58,6.39907328 C0.58,4.69927503 1.25883976,3.06986677 2.46515363,1.87340513 C4.97708395,-0.624373463 9.04876518,-0.624373463 11.560122,1.87283569 Z M3.31073853,2.72486599 C2.33105695,3.69654685 1.78,5.01924007 1.78,6.39907328 C1.78,7.77890649 2.33105695,9.10159971 3.31073853,10.0732806 L7.013,13.7540712 L10.7151411,10.0738336 C11.6337436,9.16286372 12.1755737,7.94330602 12.2397142,6.65736623 L12.2461432,6.39936494 C12.2461432,5.01940307 11.6949838,3.69659749 10.7145677,2.72432685 C8.67071214,0.691985966 5.35513699,0.691985966 3.31073853,2.72486599 Z M5.36132812,3.93600869 L5.36132812,9.66257119 L4.20507812,9.66257119 L4.20507812,3.93600869 L5.36132812,3.93600869 Z M8.31835938,3.93600869 C9.02148438,3.93600869 9.47981771,3.96465452 9.69335938,4.02194619 C10.0214844,4.10788369 10.296224,4.29473265 10.5175781,4.58249306 C10.7389323,4.87025348 10.8496094,5.24199827 10.8496094,5.69772744 C10.8496094,6.04928994 10.7858073,6.34486285 10.6582031,6.58444619 C10.530599,6.82402952 10.3684896,7.01218056 10.171875,7.14889931 C9.97526042,7.28561806 9.77539062,7.37611285 9.57226562,7.42038369 C9.29622396,7.47507119 8.89648438,7.50241494 8.37304688,7.50241494 L7.61914062,7.50241494 L7.61914062,9.66257119 L6.46289062,9.66257119 L6.46289062,3.93600869 L8.31835938,3.93600869 Z M8.17773438,4.90475869 L7.61914062,4.90475869 L7.61914062,6.52975869 L8.25195312,6.52975869 C8.70768229,6.52975869 9.01236979,6.49981077 9.16601562,6.43991494 C9.31966146,6.3800191 9.44010417,6.2862691 9.52734375,6.15866494 C9.61458333,6.03106077 9.65820312,5.88262327 9.65820312,5.71335244 C9.65820312,5.5050191 9.59700521,5.3331441 9.47460938,5.19772744 C9.35221354,5.06231077 9.19726562,4.97767535 9.00976562,4.94382119 C8.87174479,4.91777952 8.59440104,4.90475869 8.17773438,4.90475869 Z" id="形状结合" fill="#262626" fill-rule="nonzero"></path>
        </g>
    </g>
</svg>