<?xml version="1.0" encoding="UTF-8"?>
<svg width="16px" height="16px" viewBox="0 0 16 16" version="1.1" xmlns="http://www.w3.org/2000/svg" xmlns:xlink="http://www.w3.org/1999/xlink">
    <title>jboss-third-menu</title>
    <g id="jboss-third-menu" stroke="none" stroke-width="1" fill="none" fill-rule="evenodd">
        <rect id="矩形" fill-opacity="0" fill="#F0F0F0" x="0" y="0" width="16" height="16"></rect>
        <g id="JBoss" transform="translate(0.500000, 0.500000)">
            <rect id="矩形" fill-opacity="0" fill="#D8D8D8" x="0.441176471" y="0.441176471" width="14.1176471" height="14.1176471"></rect>
            <g id="编组">
                <rect id="矩形备份-9" opacity="0.446149554" x="0" y="0" width="15" height="15"></rect>
                <path d="M8.56625,11.1795833 L8.7066033,11.1856812 C9.49127315,11.2543223 10.0866667,11.8944676 10.0866667,12.7 C10.0866667,13.5529167 9.41916667,14.2204167 8.56625,14.2204167 C7.71333333,14.2204167 7.04583333,13.5529167 7.04583333,12.7 C7.04583333,11.8841667 7.75041667,11.1795833 8.56625,11.1795833 Z M4.82083333,10.8458333 C5.52541667,10.8458333 6.11875,11.4391667 6.15583333,12.1808333 C6.15583333,12.9225 5.5625,13.5158333 4.82083333,13.5158333 C4.07916667,13.5158333 3.48583333,12.9225 3.48583333,12.1808333 C3.48583333,11.4827941 4.0114158,10.9161505 4.69158135,10.8519019 L4.82083333,10.8458333 Z M1.81708333,8.62083333 C2.48458333,8.58375 3.04083333,9.06583333 3.07791667,9.73333333 L3.07791667,9.88166667 C3.04083333,10.5120833 2.48458333,11.03125 1.81708333,10.9941667 C1.18666667,10.9570833 0.6675,10.4008333 0.704583333,9.73333333 C0.704583333,9.10291667 1.22375,8.62083333 1.81708333,8.62083333 Z M8.98234284,3.91125 L8.98234284,7.02625 C9.01942618,7.54541667 8.94525951,8.0275 8.79692618,8.50958333 C8.64859284,8.88041667 8.42609284,9.17708333 8.09234284,9.3625 C7.68442618,9.62208333 7.20234284,9.73333333 6.75734284,9.73333333 C6.31234284,9.77041667 5.83025951,9.65916667 5.42234284,9.51083333 C5.12567618,9.3625 4.86609284,9.10291667 4.68067618,8.80625 C4.60650951,8.695 4.56942618,8.58375 4.53234284,8.43541667 C4.42109284,8.10166667 4.60650951,7.73083333 4.94025951,7.61958333 C4.97734284,7.61958333 5.01442618,7.5825 5.05150951,7.5825 L5.42234284,7.54541667 C5.71900951,7.5124537 5.98637577,7.65529321 6.12026237,7.92184556 L6.16400951,8.0275 C6.20109284,8.13875 6.27525951,8.25 6.38650951,8.32416667 C6.64609284,8.4725 6.94275951,8.39833333 7.12817618,8.17583333 C7.23942618,7.95333333 7.27650951,7.69375 7.27650951,7.43416667 L7.20234284,3.91125 L8.98234284,3.91125 Z M14.0175,4.35625 C14.3141667,4.61583333 14.4625,4.98666667 14.4625,5.3575 C14.4625,5.69125 14.35125,5.98791667 14.12875,6.2475 C13.9433333,6.43291667 13.7579167,6.54416667 13.4983333,6.61833333 C13.8320833,6.6925 14.1658333,6.87791667 14.4254167,7.1375 C14.6108333,7.39708333 14.7220833,7.73083333 14.7220833,8.06458333 C14.7220833,8.36125 14.6479167,8.62083333 14.4995833,8.88041667 C14.35125,9.10291667 14.1658333,9.32541667 13.9433333,9.43666667 C13.7208333,9.54791667 13.4983333,9.62208333 13.2758333,9.62208333 C12.8679167,9.65916667 12.6083333,9.69625 12.4970833,9.69625 L9.41916667,9.69625 L9.45625,3.91125 L12.7566667,3.91125 C13.2016667,3.87416667 13.6466667,4.05958333 14.0175,4.35625 Z M12.12625,7.28583333 L11.23625,7.28583333 L11.23625,8.43541667 L12.1633333,8.43541667 C12.3858333,8.4725 12.6083333,8.39833333 12.79375,8.28708333 C12.905,8.17583333 12.9791667,8.0275 12.9791667,7.84208333 C12.9791667,7.69375 12.905,7.54541667 12.79375,7.43416667 C12.6083333,7.32291667 12.3858333,7.24875 12.12625,7.28583333 Z M1.40916667,5.28333333 L1.52624012,5.28965123 C2.06463519,5.34810556 2.48458333,5.80497222 2.48458333,6.35875 C2.48458333,6.95208333 2.0025,7.43416667 1.40916667,7.43416667 C0.815833333,7.43416667 0.33375,6.95208333 0.33375,6.35875 C0.33375,5.76541667 0.815833333,5.28333333 1.40916667,5.28333333 Z M12.0891667,5.06083333 L11.3104167,5.06083333 L11.2733333,6.17333333 L12.0520833,6.17333333 C12.2375,6.21041667 12.46,6.13625 12.6454167,6.025 C12.7566667,5.91375 12.8308333,5.76541667 12.79375,5.61708333 C12.79375,5.46875 12.7566667,5.32041667 12.6454167,5.20916667 C12.46,5.09791667 12.2745833,5.06083333 12.0891667,5.06083333 Z M3.08656584,2.46320259 L3.18916667,2.465 C3.70833333,2.50208333 4.07916667,2.94708333 4.04208333,3.42916667 L4.04208333,3.54041667 C4.005,4.05958333 3.56,4.43041667 3.07791667,4.39333333 C2.55875,4.35625 2.18791667,3.91125 2.225,3.42916667 L2.225,3.31791667 C2.26208333,2.79875 2.70708333,2.42791667 3.18916667,2.465 Z M5.68438382,1.31332366 L5.785,1.31541667 C6.23,1.31541667 6.60083333,1.64916667 6.60083333,2.09416667 L6.59438553,2.19478285 C6.5433432,2.58853797 6.19576923,2.87291667 5.785,2.87291667 C5.34,2.87291667 5.00625,2.50208333 5.00625,2.05708333 C5.00625,1.61208333 5.34,1.27833333 5.785,1.31541667 Z M8.52916667,0.944583333 C8.9,0.9075 9.19666667,1.20416667 9.23375,1.575 L9.21335162,1.68329961 C9.13806584,1.96368827 8.9,2.1724537 8.60333333,2.20541667 C8.2325,2.2425 7.93583333,1.94583333 7.89875,1.575 C7.93583333,1.24125 8.19541667,0.944583333 8.52916667,0.944583333 Z" id="形状结合" fill="#262626" fill-rule="nonzero"></path>
            </g>
        </g>
    </g>
</svg>