<?xml version="1.0" encoding="UTF-8"?>
<svg width="16px" height="16px" viewBox="0 0 16 16" version="1.1" xmlns="http://www.w3.org/2000/svg" xmlns:xlink="http://www.w3.org/1999/xlink">
    <title>jdbc-multiple-data-source-info-third-menu</title>
    <g id="jdbc-multiple-data-source-info-third-menu" stroke="none" stroke-width="1" fill="none" fill-rule="evenodd">
        <rect id="矩形" fill-opacity="0" fill="#F0F0F0" x="0" y="0" width="16" height="16"></rect>
        <g id="图形" transform="translate(0.400000, 0.400000)">
            <rect id="矩形" fill-opacity="0" fill="#F0F0F0" x="0.6" y="0.6" width="14" height="14"></rect>
            <path d="M7.6,0 C11.7973641,0 15.2,3.4026359 15.2,7.6 C15.2,11.7973641 11.7973641,15.2 7.6,15.2 C3.4026359,15.2 0,11.7973641 0,7.6 C0,3.4026359 3.4026359,0 7.6,0 Z M7.6,1.2 C4.0653776,1.2 1.2,4.0653776 1.2,7.6 C1.2,11.1346224 4.0653776,14 7.6,14 C11.1346224,14 14,11.1346224 14,7.6 C14,4.0653776 11.1346224,1.2 7.6,1.2 Z M10.8715614,3.78384581 L10.8715614,4.98384581 L9.00097314,4.98396346 L9,6.957 L12.9531839,6.95882358 L12.9526984,8.15882348 L9,8.157 L9.00097314,10.2492076 L10.8715614,10.2493253 L10.8715614,11.4493253 L7.80097314,11.4493253 L7.8,8.157 L6.069,8.156 L6.06999404,9.95897208 L2.65882353,7.54691028 L6.06999404,5.13484847 L6.069,6.956 L7.8,6.957 L7.80097314,3.78384581 L10.8715614,3.78384581 Z" id="形状结合" fill="#262626" fill-rule="nonzero"></path>
        </g>
    </g>
</svg>