<?xml version="1.0" encoding="UTF-8"?>
<svg width="16px" height="16px" viewBox="0 0 16 16" version="1.1" xmlns="http://www.w3.org/2000/svg" xmlns:xlink="http://www.w3.org/1999/xlink">
    <title>jdbc-single-data-source-info-third-menu</title>
    <g id="jdbc-single-data-source-info-third-menu" stroke="none" stroke-width="1" fill="none" fill-rule="evenodd">
        <rect id="矩形" fill-opacity="0" fill="#F0F0F0" x="0" y="0" width="16" height="16"></rect>
        <g id="图形" transform="translate(0.400000, 0.400000)">
            <rect id="矩形" fill-opacity="0" fill="#F0F0F0" x="0.6" y="0.6" width="14" height="14"></rect>
            <path d="M7.6,0 C11.7973641,0 15.2,3.4026359 15.2,7.6 C15.2,11.7973641 11.7973641,15.2 7.6,15.2 C3.4026359,15.2 0,11.7973641 0,7.6 C0,3.4026359 3.4026359,0 7.6,0 Z M7.6,1.2 C4.0653776,1.2 1.2,4.0653776 1.2,7.6 C1.2,11.1346224 4.0653776,14 7.6,14 C11.1346224,14 14,11.1346224 14,7.6 C14,4.0653776 11.1346224,1.2 7.6,1.2 Z M6.94213562,4.65660172 L6.942,6.956 L12.2798202,6.95842009 L12.2793347,8.15841999 L6.942,8.156 L6.94213562,10.5144661 L2.8,7.58553391 L6.94213562,4.65660172 Z" id="形状结合" fill="#262626" fill-rule="nonzero"></path>
        </g>
    </g>
</svg>