<?xml version="1.0" encoding="UTF-8"?>
<svg width="16px" height="16px" viewBox="0 0 16 16" version="1.1" xmlns="http://www.w3.org/2000/svg" xmlns:xlink="http://www.w3.org/1999/xlink">
    <title>job management</title>
    <g id="job-management" stroke="none" stroke-width="1" fill="none" fill-rule="evenodd">
        <rect id="矩形" fill="#000000" opacity="0" x="0" y="0" width="16" height="16"></rect>
        <path d="M9.31249649,0.460099803 L9.46531931,0.611711108 L9.47834784,0.624740589 L14.4607578,5.61971001 L14.6184628,5.7777626 L14.6190961,5.98814699 L14.6192537,6.00132663 L14.6175,6.013 L14.6191667,10.0008704 L14.6186417,13.7050294 C14.6183029,14.5553544 13.9289636,15.244596 13.0786386,15.2448142 L3.8125,15.2448142 C2.96198149,15.2448142 2.2725,14.5553327 2.2725,13.7048142 L2.2725,1.79279382 C2.2725,1.05715054 2.86885671,0.460793825 3.60443434,0.460793829 L9.31249649,0.460099803 Z M8.5495,1.539 L3.6045,1.54079383 C3.46532424,1.54079383 3.3525,1.65361807 3.3525,1.79279382 L3.3525,13.7048142 C3.3525,13.9588652 3.55844902,14.1648142 3.8125,14.1648142 L13.0783614,14.1648142 C13.3324952,14.1648142 13.5386417,13.9587329 13.5386417,13.7047377 L13.5385,6.541 L9.90705397,6.54057355 C9.15752576,6.54057355 8.54991111,5.93296441 8.54991111,5.18342154 L8.5495,1.539 Z M12.0673077,10.8808518 L12.0673077,11.8808518 L7.44230769,11.8808518 L7.44230769,10.8808518 L12.0673077,10.8808518 Z M5.51211348,5.9333604 L5.86555882,6.28702182 L7.67508999,8.09765925 C7.87185877,8.29454833 7.86994939,8.61422471 7.67084275,8.80874929 L5.86131158,10.5766375 L5.50366688,10.9260517 L4.80483852,10.2107623 L5.16248322,9.86134809 L6.61042857,8.44646715 L5.15823599,6.99391249 L4.80479065,6.64025107 L5.51211348,5.9333604 Z M9.6295,2.307 L9.62991111,5.18343811 C9.62991111,5.33649469 9.7539911,5.46057355 9.90714027,5.46057355 L12.7755,5.461 L9.6295,2.307 Z" id="形状结合" fill="#262626" fill-rule="nonzero"></path>
    </g>
</svg>