<?xml version="1.0" encoding="UTF-8"?>
<svg width="16px" height="16px" viewBox="0 0 16 16" version="1.1" xmlns="http://www.w3.org/2000/svg" xmlns:xlink="http://www.w3.org/1999/xlink">
    <title>jvm-info-third-menu</title>
    <g id="jvm-info-third-menu" stroke="none" stroke-width="1" fill="none" fill-rule="evenodd">
        <rect id="矩形" fill-opacity="0" fill="#F0F0F0" x="0" y="0" width="16" height="16"></rect>
        <g id="Weblogic" transform="translate(0.155762, 1.400000)">
            <rect id="矩形" fill-opacity="0" fill="#FFFFFF" x="1.52483612" y="0" width="13.2289727" height="13.2289727"></rect>
            <g id="JVM" transform="translate(0.000000, 3.163359)" fill="#262626" fill-rule="nonzero">
                <g id="形状结合">
                    <path d="M2.28183428,0 L3.33398937,0 L3.33398937,4.12113505 C3.33398937,4.78726679 3.26904153,5.28316487 3.13914584,5.60882927 C3.00925015,5.93449368 2.81512826,6.18466316 2.55678016,6.3593377 C2.29843207,6.53401225 1.98018763,6.62134952 1.60204684,6.62134952 C1.10267008,6.62134952 0.711539723,6.44519468 0.428655776,6.09288501 C0.14577183,5.74057533 0.00288657088,5.20915023 0,4.4986097 L0.991537099,4.3565016 C1.00308338,4.73841713 1.0507118,5.00931071 1.13442236,5.16918232 C1.24699862,5.38826565 1.41586302,5.49780732 1.64101555,5.49780732 C1.86039494,5.49780732 2.0220429,5.41861165 2.12595946,5.26022033 C2.22987601,5.101829 2.28183428,4.75025947 2.28183428,4.20551174 L2.28183428,0 Z M6.42094076,6.51032757 L4.5634324,0 L5.70218461,0 L7.01846093,4.81835294 L8.29143869,0 L9.40854163,0 L7.5467034,6.51032757 L6.42094076,6.51032757 Z M10.5730368,6.51032757 L10.5730368,0 L12.1447747,0 L13.0886833,4.44087828 L14.0239323,0 L15.6,0 L15.6,6.51032757 L14.6257823,6.51032757 L14.6257823,1.38555402 L13.5909467,6.51032757 L12.5777603,6.51032757 L11.5515843,1.38555402 L11.5515843,6.51032757 L10.5730368,6.51032757 Z"></path>
                </g>
            </g>
        </g>
    </g>
</svg>