<?xml version="1.0" encoding="UTF-8"?>
<svg width="16px" height="16px" viewBox="0 0 16 16" version="1.1" xmlns="http://www.w3.org/2000/svg" xmlns:xlink="http://www.w3.org/1999/xlink">
    <title>jvm-third menu</title>
    <g id="jvm-third-menu" stroke="none" stroke-width="1" fill="none" fill-rule="evenodd">
        <g id="jvm">
            <rect id="矩形" x="0" y="0" width="16" height="16"></rect>
            <path d="M11.8895721,8.03422553 C12.417866,8.05953624 12.8486867,8.44027407 12.8486867,9.12851019 C12.8486867,10.796325 10.610573,11.0467395 10.610573,11.0467395 L10.6553146,11.0160453 C10.8992826,10.8450712 12.0581307,9.98519155 12.0581307,9.07788875 C12.0581307,8.62552698 11.5233744,8.23240306 10.8965303,8.37080422 C11.2142606,8.1376225 11.5718418,8.01968533 11.8895721,8.03422553 Z M5.71321833,9.59972037 C4.8338055,10.3041123 7.80646856,10.4791332 9.415584,9.95299337 L10.2406057,10.4575922 C7.86786052,11.4086289 4.6528608,10.9077998 4.6528608,10.2556449 C4.6528608,9.93199086 5.28616727,9.59972037 5.71321833,9.59972037 Z M6.38637572,8.05145836 C6.38637572,8.05145836 5.1413038,8.34172382 5.1413038,8.62337288 C5.1413038,8.93087118 9.02676829,8.87594153 10.7285102,8.52266853 C10.5432573,8.70361324 9.83671127,9.19582593 9.83671127,9.19582593 C7.24047783,9.71119523 3.60973609,9.6460336 3.60973609,8.80862579 C3.60973609,8.20709235 5.1682301,8.07838465 5.94909268,8.05145836 C6.20973922,8.04284194 6.38637572,8.05145836 6.38637572,8.05145836 Z M11.1490989,3.47398806 C11.1490989,3.47398806 9.09192993,4.7298305 8.99499526,5.40891168 C8.89429092,6.12030442 9.88679418,6.72614607 9.55021548,7.61363679 C9.24540981,8.41334777 8.27121643,8.58944575 8.27121643,8.58944575 C8.27121643,8.58944575 8.81458908,8.15431681 8.79304804,7.63086961 C8.76773733,6.98894672 7.8985565,6.52635296 7.96856487,5.64478603 C8.12204475,3.66516476 11.1490989,3.47398806 11.1490989,3.47398806 Z M8.86036378,1 C10.5998025,3.57684651 6.30236568,4.91669899 6.90820734,6.40195347 C7.26578854,7.28136629 7.52643509,7.75688468 7.88455482,8.32072131 C7.88240072,8.32072131 5.53658182,6.72183787 5.8311555,5.35882877 C5.95191994,4.80185834 6.51426721,4.30024669 7.13021254,3.79682699 L7.44085548,3.5447018 C8.37540647,2.78628626 9.28505878,2.00236502 8.86036378,1 Z M13.3705183,13.1168331 C13.3516699,14.8772744 8.14089316,15.7550716 4.36690353,14.1771907 C8.14143168,15.0625273 11.8895721,14.5493121 13.3705183,13.1168331 Z M4.16495631,11.8206012 C4.31148777,11.8217267 4.45777029,11.8328823 4.60277788,11.8539899 L5.10737667,12.1404856 C4.51015143,12.0225485 3.86230475,12.2751171 3.86230475,12.5271473 C3.86230475,13.6381262 12.6176591,13.7851438 11.8222563,11.9046113 C11.9590419,11.9783893 12.3440879,12.1340233 12.3440879,12.4598315 C12.3440879,14.4270667 2.6,14.5191546 2.6,12.594463 C2.6,12.2331121 3.21445807,11.8022914 4.16495631,11.8211398 Z M6.11711276,11.0634338 C5.52204163,11.7075108 8.11558244,11.6423492 9.14632105,11.1980653 L10.0214257,11.7705183 C8.63956816,12.6203122 5.15799811,12.5379178 5.15799811,11.7032026 C5.15799811,11.4317855 5.53442772,11.0634338 6.11711276,11.0634338 Z" id="形状结合" fill="#262626"></path>
        </g>
    </g>
</svg>