<?xml version="1.0" encoding="UTF-8"?>
<svg width="16px" height="16px" viewBox="0 0 16 16" version="1.1" xmlns="http://www.w3.org/2000/svg" xmlns:xlink="http://www.w3.org/1999/xlink">
    <title>Kafka-third menu</title>
    <g id="Kafka-third-menu" stroke="none" stroke-width="1" fill="none" fill-rule="evenodd">
        <g id="图形">
            <rect id="矩形" fill="#FFFFFF" opacity="0" x="0" y="0" width="16" height="16"></rect>
            <path d="M3.95138889,1.08888889 C4.67626262,1.08888889 5.26388889,1.67651515 5.26388889,2.40138889 C5.26388889,2.98548136 4.88234923,3.48046047 4.35490266,3.65069345 L4.38957156,3.63896364 L4.3872894,5.46380011 L4.22287976,5.46905326 L4.38888889,5.46388889 C5.3346561,5.46388889 6.16360306,5.96405583 6.62564709,6.71430703 L6.61489505,6.69699899 L10.525315,4.78996236 L10.5282366,4.81402656 C10.5187699,4.74031753 10.5138889,4.66517322 10.5138889,4.58888889 C10.5138889,3.62239058 11.2973906,2.83888889 12.2638889,2.83888889 C13.2303872,2.83888889 14.0138889,3.62239058 14.0138889,4.58888889 C14.0138889,5.5553872 13.2303872,6.33888889 12.2638889,6.33888889 C11.6688884,6.33888889 11.1432425,6.04194634 10.8270601,5.58817004 L10.8423522,5.60976781 L6.94940842,7.50805555 L6.94295234,7.4801857 C6.98933676,7.67553907 7.01388889,7.87934675 7.01388889,8.08888889 C7.01388889,8.30730993 6.98721198,8.51950025 6.93693863,8.72237939 L6.94295234,8.69759208 L10.9210745,10.4666155 L10.8991464,10.4933544 C11.2198943,10.0943 11.7120644,9.83888889 12.2638889,9.83888889 C13.2303872,9.83888889 14.0138889,10.6223906 14.0138889,11.5888889 C14.0138889,12.5553872 13.2303872,13.3388889 12.2638889,13.3388889 C11.2973906,13.3388889 10.5138889,12.5553872 10.5138889,11.5888889 C10.5138889,11.468253 10.5260954,11.350468 10.5493406,11.2367018 L10.5451838,11.2577039 L6.60143348,9.50203514 L6.61743668,9.47671437 C6.15382457,10.2196022 5.32908015,10.7138889 4.38888889,10.7138889 L4.38957156,12.5388141 L4.35490266,12.5270843 C4.88234923,12.6973173 5.26388889,13.1922964 5.26388889,13.7763889 C5.26388889,14.5012626 4.67626262,15.0888889 3.95138889,15.0888889 C3.22651515,15.0888889 2.63888889,14.5012626 2.63888889,13.7763889 C2.63888889,13.196415 3.01506683,12.7043022 3.53673944,12.5307338 L3.51280731,12.5389555 L3.51172993,10.5637572 L3.52676677,10.5690352 C2.50050212,10.2123395 1.76388889,9.23663682 1.76388889,8.08888889 C1.76388889,6.94001828 2.50194387,5.96352965 3.52977914,5.60769768 L3.51172993,5.61402053 L3.51280731,3.63882232 L3.53673944,3.64704401 C3.01506683,3.47347556 2.63888889,2.98136276 2.63888889,2.40138889 C2.63888889,1.67651515 3.22651515,1.08888889 3.95138889,1.08888889 Z" id="形状结合" fill="#262626"></path>
        </g>
    </g>
</svg>