<?xml version="1.0" encoding="UTF-8"?>
<svg width="16px" height="16px" viewBox="0 0 16 16" version="1.1" xmlns="http://www.w3.org/2000/svg" xmlns:xlink="http://www.w3.org/1999/xlink">
    <title>kingbasees-third-menu</title>
    <g id="kingbasees-third-menu" stroke="none" stroke-width="1" fill="none" fill-rule="evenodd">
        <rect id="矩形" fill-opacity="0" fill="#F0F0F0" x="0" y="0" width="16" height="16"></rect>
        <g id="DB2" transform="translate(0.000000, 1.000000)">
            <rect id="矩形" fill-opacity="0" fill="#D8D8D8" x="1" y="0" width="14" height="14"></rect>
            <path d="M2.63179876,4.12969705 L2.631,5.76569705 L6.05313715,4.12969705 L6.053,5.32269705 L2.63179876,6.95888071 L6.053,8.59569705 L6.05313715,9.91965432 L2.631,8.28169705 L2.63179876,9.91965432 L1.38169435,9.91965432 L1.381,7.68369705 L0,7.02467568 L1.381,6.36369705 L1.38169435,4.12969705 L2.63179876,4.12969705 Z M10.9219649,4.12969705 L10.9219649,5.11662158 L7.96119125,5.11662158 L7.96119125,6.30093102 L10.7245799,6.30093102 L10.7245799,7.28785556 L7.96119125,7.28785556 L7.96119125,8.66954991 L10.9219649,8.66954991 L10.9219649,9.65647444 L6.71108684,9.65647444 L6.71108684,4.12969705 L10.9219649,4.12969705 Z M11.4046326,7.9491464 L12.5149227,7.84120153 C12.5817458,8.21386835 12.7173194,8.4875857 12.9216436,8.66235358 C13.1259678,8.83712147 13.4016127,8.92450541 13.7485784,8.92450541 C14.116105,8.92450541 14.393035,8.84675941 14.5793684,8.69126739 C14.7657018,8.53577537 14.8588685,8.35393967 14.8588685,8.14576027 C14.8588685,8.01211424 14.8196742,7.89838661 14.7412857,7.80457738 C14.6628972,7.71076814 14.5260385,7.62916696 14.3307097,7.55977383 C14.1970636,7.51351174 13.8925049,7.43126803 13.4170334,7.3130427 C12.8053458,7.16140585 12.3761365,6.97507245 12.1294053,6.75404247 C11.7824397,6.44305844 11.6089569,6.06396633 11.6089569,5.61676615 C11.6089569,5.32891316 11.690558,5.05969351 11.8537604,4.80910721 C12.0169628,4.5585209 12.2521284,4.36768979 12.5592572,4.23661387 C12.8663861,4.10553796 13.2371253,4.04 13.6714749,4.04 C14.3808269,4.04 14.9147685,4.19549202 15.2732997,4.50647605 C15.6318309,4.81746008 15.8200919,5.23253381 15.8380827,5.75169724 L14.6969512,5.8018145 C14.648119,5.5113914 14.5433868,5.30256947 14.3827545,5.17534873 C14.2221223,5.04812799 13.9811739,4.98451762 13.6599094,4.98451762 C13.3283644,4.98451762 13.0687827,5.05262569 12.8811643,5.18884184 C12.7603688,5.27622578 12.6999711,5.39316606 12.6999711,5.53966267 C12.6999711,5.6733087 12.7565136,5.78767886 12.8695987,5.88277316 C13.0135252,6.00356861 13.363061,6.12950429 13.9182061,6.2605802 C14.4733511,6.39165612 14.8839271,6.52722974 15.1499341,6.66730106 C15.4159411,6.80737238 15.6241205,6.99884602 15.7744723,7.24172198 C15.9248241,7.48459794 16,7.78465898 16,8.1419051 C16,8.46573971 15.9100459,8.7690134 15.7301378,9.05172615 C15.5502297,9.33443891 15.2957882,9.54454589 14.9668134,9.6820471 C14.6378385,9.8195483 14.227905,9.8882989 13.7370129,9.8882989 C13.0225206,9.8882989 12.4738009,9.72316895 12.0908536,9.39290905 C11.7079063,9.06264915 11.479166,8.58139493 11.4046326,7.9491464 Z" id="形状结合" fill="#262626"></path>
        </g>
    </g>
</svg>