<?xml version="1.0" encoding="UTF-8"?>
<svg width="16px" height="16px" viewBox="0 0 16 16" version="1.1" xmlns="http://www.w3.org/2000/svg" xmlns:xlink="http://www.w3.org/1999/xlink">
    <title>layout-third-menu</title>
    <g id="layout-third-menu" stroke="none" stroke-width="1" fill="none" fill-rule="evenodd">
        <g id="编组">
            <rect id="矩形" fill="#000000" opacity="0" x="0" y="0" width="16" height="16"></rect>
            <g id="布局" transform="translate(1.000000, 1.000000)" fill-rule="nonzero" stroke="#262626" stroke-width="1.2">
                <path d="M13.4,10.5557437 L13.4,12.9842805 L10.4,13.4 L10.4,10.5557437 L13.4,10.5557437 Z M3.6,10.5557437 L3.6,13.4 L0.9375,13.4 L0.6,10.5557437 L3.6,10.5557437 Z M8.5,10.5557437 L8.5,13.4 L5.5,13.4 L5.5,10.5557437 L8.5,10.5557437 Z M8.5,0.6 L8.5,8.42297461 L0.6,8.42297461 L0.6,1.01571947 L8.5,0.6 Z M13.3601264,5.57702539 L13.3930044,8.37803332 L10.4,8.41543079 L10.4,5.57702539 L13.3601264,5.57702539 Z M13.0625,0.6 L13.4,3.40068165 L10.4,3.43695735 L10.4,0.6 L13.0625,0.6 Z" id="形状"></path>
            </g>
        </g>
    </g>
</svg>