<?xml version="1.0" encoding="UTF-8"?>
<svg width="16px" height="16px" viewBox="0 0 16 16" version="1.1" xmlns="http://www.w3.org/2000/svg" xmlns:xlink="http://www.w3.org/1999/xlink">
    <title>log-collection-third-menu</title>
    <g id="log-collection-third-menu" stroke="none" stroke-width="1" fill="none" fill-rule="evenodd">
        <rect id="矩形" fill-opacity="0" fill="#F0F0F0" x="0" y="0" width="16" height="16"></rect>
        <g id="编组-45" transform="translate(1.000000, 1.500000)">
            <path d="M0,10.737 L0,11.373 C0,12.329 0.395,13.5 1.355,13.5 L12.651,13.5 C13.605,13.5 14,12.329 14,11.373 L14,10.737 C14,11.691 13.399,11.944 12.444,11.944 L1.556,11.944 C0.595,11.944 0,11.692 0,10.737 Z" id="路径" fill="#262626" fill-rule="nonzero"></path>
            <path d="M13,0.5 C13.5522847,0.5 14,0.94771525 14,1.5 L14,9.5 C14,10.0522847 13.5522847,10.5 13,10.5 L1,10.5 C0.44771525,10.5 0,10.0522847 0,9.5 L0,1.5 C0,0.94771525 0.44771525,0.5 1,0.5 L13,0.5 Z M12.8,1.7 L1.2,1.7 L1.2,9.3 L12.8,9.3 L12.8,1.7 Z" id="矩形" fill="#262626" fill-rule="nonzero"></path>
            <line x1="4" y1="4.28119923e-13" x2="4" y2="2.68407743" id="路径-50" stroke="#262626" stroke-width="1.2" stroke-linecap="round"></line>
            <line x1="10" y1="4.28119923e-13" x2="10" y2="2.68407743" id="路径-51" stroke="#262626" stroke-width="1.2" stroke-linecap="round"></line>
            <circle id="椭圆形" fill="#262626" cx="4" cy="4" r="1.5"></circle>
            <circle id="椭圆形备份-10" fill="#262626" cx="10" cy="4" r="1.5"></circle>
        </g>
    </g>
</svg>