<?xml version="1.0" encoding="UTF-8"?>
<svg width="16px" height="16px" viewBox="0 0 16 16" version="1.1" xmlns="http://www.w3.org/2000/svg" xmlns:xlink="http://www.w3.org/1999/xlink">
    <title>log-configuration-info-third-menu</title>
    <g id="log-configuration-info-third-menu" stroke="none" stroke-width="1" fill="none" fill-rule="evenodd">
        <rect id="矩形" fill-opacity="0" fill="#F0F0F0" x="0" y="0" width="16" height="16"></rect>
        <g id="数据审批备份" transform="translate(1.000000, 1.000000)">
            <rect id="矩形备份-49" fill-opacity="0.1" fill="#FFFFFF" opacity="0" x="0" y="0" width="14" height="14"></rect>
            <g id="数据审批" transform="translate(1.150000, 0.274354)" fill="#262626" fill-rule="nonzero">
                <path d="M9.93927179,7.60064628 C9.93927179,8.67330999 10.7401462,9.10915797 11.6406607,8.62147961 L12.3212162,9.75634533 C11.3964494,10.2571577 11.4496665,11.0979549 12.3212162,11.5699472 L11.6406607,12.7048129 C10.0526977,11.9428758 9.94683352,13.4924806 9.93977591,13.7024809 L9.93927179,13.7256463 L8.57816068,13.7256463 C8.57816068,12.6529826 7.77728626,12.2171346 6.87677179,12.7048129 L6.19621624,11.5699472 C7.12098303,11.0691349 7.06776595,10.2283377 6.19621624,9.75634533 L6.87677179,8.62147961 C7.81642293,9.13035264 8.57816068,8.62863332 8.57816068,7.60064628 L9.93927179,7.60064628 Z M7.6975018,0 L7.87326407,0.175762273 L11.7,4.0024982 L11.7,7.16283631 L10.5,7.16283631 L10.5,4.50002634 L7.199,1.19902634 L1.6,1.20064628 C1.40670034,1.20064628 1.24542508,1.33775907 1.20812658,1.52003233 L1.2,1.60064628 L1.2,11.8506463 C1.2,12.0715602 1.3790861,12.2506463 1.6,12.2506463 L5.82916667,12.2506463 L5.82916667,13.4506463 L1.6,13.4506463 C0.7163444,13.4506463 0,12.7343019 0,11.8506463 L0,1.60064628 C0,0.716990679 0.7163444,0.000646278734 1.59993641,0.000646282104 L7.6975018,0 Z M9.25871624,9.64231295 C8.69492556,9.64231295 8.2378829,10.0993556 8.2378829,10.6631463 C8.2378829,11.226937 8.69492556,11.6839796 9.25871624,11.6839796 C9.82250692,11.6839796 10.2795496,11.226937 10.2795496,10.6631463 C10.2795496,10.0993556 9.82250692,9.64231295 9.25871624,9.64231295 Z M4.398912,3.85764125 L5.101088,4.56964467 L3.668,5.98264296 L5.09536262,7.34660879 L4.40463738,8.06972609 L2.60463738,6.35035712 L2.23211972,5.9945264 L2.598912,5.63279677 L4.398912,3.85764125 Z M7.301088,3.85764125 L9.101088,5.63279677 L9.46788028,5.9945264 L9.09536262,6.35035712 L7.29536262,8.06972609 L6.60463738,7.34660879 L8.032,5.98264296 L6.598912,4.56964467 L7.301088,3.85764125 Z" id="形状结合"></path>
            </g>
        </g>
    </g>
</svg>