<?xml version="1.0" encoding="UTF-8"?>
<svg width="16px" height="16px" viewBox="0 0 16 16" version="1.1" xmlns="http://www.w3.org/2000/svg" xmlns:xlink="http://www.w3.org/1999/xlink">
    <title>LVS-third menu</title>
    <g id="LVS-third-menu" stroke="none" stroke-width="1" fill="none" fill-rule="evenodd">
        <rect id="矩形" fill-opacity="0" fill="#F0F0F0" x="0" y="0" width="16" height="16"></rect>
        <g id="linux" transform="translate(2.000000, 1.000000)" fill="#262626" fill-rule="nonzero">
            <path d="M5.837843,0.000543313587 C6.29904605,0.00210671376 6.7493053,0.14593953 7.12608474,0.41328096 C7.35746797,0.583691579 7.55445639,0.796314003 7.70766961,1.04020443 C7.83899523,1.24657325 7.93905284,1.47326628 8.00471564,1.70933971 C8.10008305,2.20337416 8.14229486,2.70678902 8.13135106,3.20864047 C8.14542166,3.4587845 8.17199946,3.70892853 8.19076026,3.95907256 C8.21421127,3.99815756 8.23922567,4.03880597 8.26267667,4.07945437 C8.41119969,4.3389788 8.5253279,4.61882743 8.65039992,4.89242246 C8.69104832,4.97997287 8.73169673,5.06752328 8.77390853,5.15507369 C8.87865634,5.28796271 8.96307995,5.43961253 9.06313756,5.57562834 C9.25230898,5.83671617 9.49776281,6.05402879 9.69162443,6.31198982 C9.88392266,6.58089465 10.0386993,6.87481389 10.1528275,7.18436712 C10.3201113,7.60023157 10.4451833,8.03329342 10.5249167,8.47573567 C10.5937063,8.7977961 10.6015233,9.13080034 10.5514945,9.45598758 C10.5190328,9.64190495 10.4517558,9.81946667 10.3536067,9.97947236 C10.3573469,9.97983117 10.3621916,9.98131926 10.3670133,9.98285344 C10.4389297,10.0031776 10.5061559,10.0391358 10.5608749,10.090728 C10.5999599,10.1329399 10.6312279,10.1814053 10.6515521,10.2345609 C10.6812567,10.3142943 10.7000175,10.3971545 10.7062711,10.4815781 C10.7093979,10.5566213 10.7156515,10.6316645 10.7250319,10.7067077 C10.7516098,10.8270895 10.8094556,10.9396543 10.8907524,11.0334584 C10.9736126,11.1241356 11.0627264,11.2085592 11.1596572,11.2836024 C11.2518978,11.3648992 11.3488286,11.4399424 11.4504496,11.508732 C11.498915,11.5415634 11.5473804,11.571268 11.592719,11.6072262 C11.6396211,11.641621 11.6787061,11.6853962 11.7084107,11.735425 C11.7459323,11.8042146 11.7584395,11.8839481 11.7396787,11.9605547 C11.7052839,12.0481051 11.6599453,12.1231483 11.6036628,12.1903745 C11.4723372,12.3310805 11.3128704,12.4436453 11.1377696,12.5218153 C10.8407236,12.6593945 10.5514945,12.8126078 10.2700825,12.9798916 C10.0871647,13.1018368 9.91675406,13.239416 9.75885064,13.3926292 C9.62908843,13.528645 9.48994581,13.6537171 9.34298619,13.7709721 C9.18977298,13.8835369 9.01310876,13.9601435 8.82550074,13.9898481 C8.59568091,14.0195527 8.36273428,13.9835945 8.15167526,13.8882271 C8.00002544,13.8303813 7.86869983,13.7287603 7.77645922,13.5943078 L7.73213003,13.5009138 C7.6167109,13.474443 7.50220828,13.4440238 7.38873597,13.4098266 C7.16673315,13.3551076 6.94160352,13.3113324 6.7164739,13.2769376 C6.46007627,13.2378526 6.20211524,13.2112748 5.94259081,13.1972042 C5.90350581,13.1940774 5.8644208,13.192514 5.8268992,13.1878238 L5.77218019,13.1909506 C5.62365718,13.1972042 5.47669756,13.1909506 5.32973794,13.1753166 C5.27814574,13.1784434 5.22499013,13.1815702 5.17183452,13.1800068 C4.9560853,13.1893872 4.74189948,13.2190918 4.53084045,13.2675572 L4.44719409,13.2871958 C4.42978309,13.3435465 4.40760512,13.3986943 4.38075404,13.4520384 C4.29633043,13.614632 4.16969501,13.7506479 4.01491839,13.8444519 C3.85857838,13.9382559 3.67878736,13.9851579 3.49586954,13.9804677 C3.2082039,13.9413827 2.92991867,13.8538323 2.67352104,13.7209433 C2.45527038,13.6340182 2.22951539,13.5708568 2.00115891,13.51555 L1.31318779,13.3572839 C1.19885946,13.3295304 1.08510646,13.2997633 0.972541652,13.2659938 C0.799004233,13.2144016 0.630157014,13.1518656 0.455056194,13.1049636 C0.376886185,13.0862028 0.300279577,13.0627518 0.225236368,13.0314838 C0.15175656,13.0002158 0.0876571526,12.9470602 0.0454453479,12.879834 C0.0141773443,12.825115 -0.00145665743,12.762579 0.000106742749,12.7000429 C0.00167014293,12.6375069 0.0141773443,12.5765343 0.0360649468,12.5202519 C0.0782767515,12.4029969 0.147066359,12.2982491 0.192404964,12.1825575 C0.261194572,11.9918227 0.287772375,11.7870172 0.270574973,11.5853386 C0.261194572,11.38366 0.225236368,11.1835448 0.214292567,10.9803027 C0.204912166,10.8896255 0.208038966,10.7989483 0.223672968,10.7098345 C0.247123971,10.5316069 0.386266586,10.3893375 0.566057606,10.3627597 C0.648917816,10.3486891 0.731778025,10.3424355 0.814638234,10.3471257 C0.897498444,10.3518159 0.981922053,10.3518159 1.06478226,10.3471257 C1.14764247,10.3424355 1.23050268,10.3189845 1.30398249,10.2798995 C1.3712087,10.2392511 1.4306179,10.1829687 1.47595651,10.1173059 C1.52129511,10.051643 1.56194352,9.98441684 1.59946512,9.91406383 C1.6266292,9.86313118 1.65625149,9.81465674 1.68951841,9.7680473 C1.67569656,9.73573458 1.66299997,9.70226653 1.65105733,9.66861 C1.64011353,9.6357786 1.62916973,9.60294719 1.62135273,9.57011579 C1.58539452,9.43879018 1.57601412,9.30121096 1.59633832,9.16519515 C1.60728212,9.10109574 1.62604293,9.03855973 1.64949393,8.97758712 C1.69014233,8.87752951 1.73704434,8.7790353 1.79019994,8.68366789 L1.87462355,8.52576447 C1.94810336,8.38974866 2.01845637,8.25060604 2.08568258,8.11146343 C2.09506298,8.09113922 2.10600678,8.06768822 2.11695058,8.04580062 C2.22951539,7.81285399 2.3233194,7.57209037 2.39836261,7.32350974 L2.40305281,7.30631234 C2.45308162,7.09056311 2.51718103,6.87794069 2.59691444,6.67157186 C2.71573285,6.43393504 2.86581927,6.21349561 3.04248349,6.01494379 C3.1784993,5.84765997 3.31295172,5.67881275 3.44740413,5.50840213 C3.63970235,5.25982151 3.81636657,4.99873368 3.97583339,4.72826545 L3.98052359,4.71575824 C3.98208699,4.65791244 3.98521379,4.59850323 3.98521379,4.53909402 C3.98521379,4.42027561 3.97114319,4.3030206 3.96176279,4.18576558 C3.93205819,3.81992994 3.93987519,3.4525309 3.92580458,3.08669526 C3.91173398,2.73336682 3.87890258,2.38316518 3.89140978,2.02983674 C3.89609998,1.6702547 3.97583339,1.31692626 4.12591981,0.990175625 C4.28695003,0.666551789 4.54334765,0.399210358 4.86071789,0.225672939 C5.16245412,0.0693329213 5.49858516,-0.00727368729 5.837843,0.000543313587 Z M6.19742504,2.02983674 C6.15208644,2.04859754 6.10831123,2.07204855 6.06766283,2.10018975 C5.93477381,2.17992316 5.8315894,2.30812197 5.77374359,2.45820839 L5.7577801,2.526 L5.7463153,2.57735199 C5.72065052,2.73549305 5.73841075,2.89783652 5.7971946,3.04917366 L5.82540922,3.12043533 C5.79401955,3.1073398 5.76220594,3.09549393 5.72996839,3.08513186 C5.54489859,3.03491913 5.34929678,3.03868297 5.16732464,3.0964234 C5.17317677,3.05383379 5.17475087,3.00851022 5.17339793,2.96318665 C5.17339793,2.8766785 5.16436495,2.79017036 5.14676222,2.70505191 C5.13796085,2.66092928 5.12701705,2.61871747 5.11398872,2.5770268 C5.07490371,2.45195479 5.00767751,2.33782658 4.9170003,2.24245917 C4.87322509,2.19712056 4.82319629,2.15803556 4.76691388,2.12989435 C4.70906807,2.10331655 4.64653207,2.08924595 4.58399606,2.09237275 C4.49957245,2.09862635 4.41983904,2.13458455 4.35886643,2.19243036 C4.29789383,2.25027617 4.25255522,2.32375598 4.22754082,2.40348938 C4.21259784,2.46104752 4.20157324,2.51958526 4.19460574,2.57861711 C4.18188172,2.6865508 4.18259306,2.79660636 4.19783622,2.90534084 C4.20096302,3.05699066 4.22754082,3.20864047 4.27756962,3.35247329 C4.30571083,3.4243897 4.34635923,3.48848911 4.39951484,3.54320811 L4.4457243,3.58262935 C4.39822557,3.62414431 4.35406043,3.66966982 4.31352783,3.71830893 C4.27287942,3.76521094 4.24004802,3.81992994 4.21816042,3.87933915 C4.20408982,3.92624116 4.19470941,3.97470656 4.18689241,4.02317197 C4.18220221,4.04036937 4.17907541,4.05913017 4.17907541,4.07789097 L4.18024796,4.09176615 L4.18376561,4.10446878 C4.18689241,4.11853938 4.19158261,4.13260998 4.19939962,4.14355378 C4.21347022,4.16544138 4.23066762,4.18263878 4.25255522,4.19670939 C4.27287942,4.21077999 4.29320363,4.22328719 4.31352783,4.23579439 L4.404,4.304 L4.39130699,4.37591413 C4.38622594,4.41519456 4.38309914,4.45467041 4.38231744,4.49375542 C4.38700764,4.65165884 4.37450044,4.80956225 4.34323243,4.96433887 C4.28851343,5.12536909 4.20565322,5.27389211 4.099342,5.40678112 C3.91642418,5.63660095 3.77259137,5.89456198 3.67409716,6.16972041 C3.62406835,6.34013103 3.60687095,6.51835865 3.62563175,6.69658627 C3.43646033,6.9764349 3.27230331,7.27348093 3.1362875,7.58303417 C2.92679187,8.05049082 2.79233946,8.54921548 2.73762045,9.05888393 C2.71009154,9.31560706 2.70930323,9.57337884 2.73450405,9.82822714 L2.768,10.078 L2.92800785,10.3041032 C3.07010355,10.5095456 3.2066405,10.7186938 3.33483932,10.9334007 C3.49117934,11.1944886 3.63344875,11.4633934 3.81323977,11.7088472 C3.93049479,11.868314 4.0633838,12.0168371 4.18220221,12.1763039 C4.22321093,12.2282137 4.26094488,12.2825364 4.29517513,12.3388716 C4.31674417,12.3544965 4.34005919,12.3664118 4.36355663,12.3779825 C5.09366452,12.7344377 5.94884441,12.7266207 6.67113529,12.3560949 C7.03228073,12.1450359 7.36215817,11.8839481 7.6498238,11.5822118 L7.77851911,11.4589376 L7.898,11.331 L7.90517102,11.2458365 C7.92341883,10.921773 7.91990118,10.5972697 7.89527763,10.2736459 C7.88746063,10.2017295 7.88746063,10.1282497 7.89527763,10.0563332 C7.90465803,9.90937363 8.02816665,9.79680882 8.17668966,9.79837222 C8.24391587,9.79680882 8.31114208,9.80306242 8.37680489,9.81556962 L8.54271064,9.83934134 C8.55100397,9.77335389 8.55720659,9.70702929 8.56128611,9.6404688 C8.71137252,8.8024863 8.61913191,7.93948941 8.29707148,7.15153572 C8.17043606,6.88888449 8.00315224,6.64812086 7.79991022,6.43862524 C7.74519186,6.07115936 7.63887398,5.71325759 7.48410339,5.37551312 C7.37153857,5.13318609 7.23552276,4.90180287 7.13077495,4.65322224 C7.08856314,4.55160123 7.05104154,4.44841681 7.00413953,4.3499226 L6.96285122,4.26852878 C6.97386158,4.25570779 6.98354343,4.24164015 6.99163233,4.22641399 C7.00882973,4.17638518 7.01977353,4.12322958 7.02133693,4.07007397 C7.02915393,4.01379157 7.04791474,3.95907256 7.05729514,3.90279015 C7.06980234,3.84650775 7.06511214,3.78866194 7.04478794,3.73394293 C7.03727098,3.71944595 7.02827884,3.70587096 7.01800149,3.69340795 C7.01821013,3.67922393 7.01195653,3.65889973 7.00101273,3.64013892 C6.97756173,3.60418072 6.94160352,3.57603952 6.90251852,3.56040551 L6.82628745,3.53473041 C6.88974219,3.47953607 6.94109772,3.41091687 6.97599833,3.33371249 C7.02602713,3.21802088 7.05416834,3.09451226 7.05729514,2.96944025 C7.06269777,2.89071612 7.06048005,2.811992 7.05083008,2.73420836 C7.04115804,2.65387063 7.02337832,2.57456719 6.99788593,2.49729339 C6.94316692,2.33157298 6.83685571,2.18930356 6.6930229,2.09237275 C6.61954309,2.04547074 6.53824628,2.01420274 6.45225927,2.00169554 C6.36627226,1.98918834 6.27872185,1.99856874 6.19742504,2.02983674 Z M6.37096246,2.48634959 C6.41786447,2.48478619 6.46320307,2.49103979 6.50697828,2.5082372 C6.60703589,2.5473222 6.6898961,2.62080201 6.7383615,2.71773282 C6.78526351,2.81310023 6.80402431,2.92253824 6.78839031,3.02884945 C6.78057331,3.08825866 6.7633759,3.14766787 6.7352347,3.20082347 C6.7070935,3.25554248 6.66644509,3.30088109 6.61641629,3.33683929 C6.55388028,3.38061449 6.47883707,3.4009387 6.40223046,3.3978119 L6.37270544,3.39302651 C6.32184241,3.37188013 6.27171024,3.34896748 6.22243944,3.32433209 L6.18,3.302 L6.14247442,3.26469127 C6.11109061,3.22705385 6.08642363,3.18362607 6.07078963,3.13672407 C6.04733862,3.06637106 6.03639482,2.99132785 6.04108502,2.91784804 C6.04264842,2.81779043 6.07235303,2.72085962 6.12550863,2.63799941 C6.15364984,2.59735101 6.18960804,2.5613928 6.23181984,2.534815 C6.27403165,2.5082372 6.32093365,2.49260319 6.37096246,2.48947639 Z M4.61178984,2.5301827 L4.65591247,2.5363784 C4.69812427,2.5473222 4.73877268,2.5692098 4.77160408,2.59735101 C4.84039369,2.65832361 4.88885909,2.73962042 4.9138735,2.82873423 C4.9529585,2.95067945 4.9560853,3.08044166 4.9201271,3.20238687 C4.8274318,3.25254601 4.74153617,3.3140613 4.66405261,3.38530218 C4.64951701,3.38227175 4.63526848,3.37680075 4.62151766,3.36967069 C4.57930586,3.34934649 4.54334765,3.31964189 4.51207965,3.28524708 C4.46205085,3.23365488 4.42452924,3.17268227 4.39951484,3.10545606 C4.36668343,3.00383505 4.36199323,2.89439704 4.38231744,2.78964923 C4.38700764,2.73962042 4.40107824,2.69271842 4.42296584,2.64894321 C4.44485344,2.60516801 4.48081165,2.5692098 4.52458685,2.5473222 L4.56766721,2.53371483 L4.61178984,2.5301827 Z" id="形状结合"></path>
            <path d="M6.77563615,3.77911865 L6.77431971,3.80585934 L6.7618125,3.82149334 L6.7446151,3.83243714 L6.54606328,3.93562156 C6.47727367,3.98408696 6.41317426,4.03724257 6.35220166,4.09665177 C6.21305904,4.22016039 6.05202882,4.3155278 5.876928,4.38119061 C5.76436319,4.42027561 5.64867158,4.45154361 5.53141657,4.47655802 C5.38289355,4.51564302 5.22968033,4.53753062 5.07490371,4.54065742 C4.9201271,4.54222082 4.76847728,4.49375542 4.64340527,4.39995141 L4.51833325,4.2826964 C4.47768485,4.24361139 4.42765604,4.21390679 4.37293703,4.19827279 L4.33697883,4.19045579 C4.32447163,4.18732898 4.31352783,4.18107538 4.30571083,4.17325838 L4.29520363,4.15506725 L4.35093363,4.16943674 C4.39447722,4.18402847 4.43547304,4.20556865 4.47299465,4.23266759 L4.64027847,4.3546128 C4.77160408,4.43278281 4.9216905,4.47499462 5.07490371,4.47812142 C5.22811693,4.48124822 5.37976675,4.46561422 5.52828977,4.43278281 C5.64710818,4.41089521 5.76436319,4.37806381 5.8784914,4.3342886 C6.04890202,4.26080879 6.20836884,4.16544138 6.35376506,4.04974977 L6.45304097,3.97216604 L6.61016269,3.82931034 C6.63205029,3.81054954 6.65706469,3.79647894 6.6836425,3.78709854 C6.71370242,3.77930523 6.74455516,3.77626887 6.77563615,3.77911865 Z M5.64512523,3.51836282 C5.65730677,3.7684327 5.71995471,3.72494228 5.75649933,3.83366832 C5.79304396,3.94239436 5.81392661,4.14897382 5.84873101,4.17071903 C5.88527564,4.19246424 5.93574203,4.09461081 5.94096269,3.88803134 C5.94792357,3.60534364 5.8817952,3.43138199 5.84002991,3.33352856 C5.78434286,3.1704395 5.72169493,3.1595669 5.66600787,3.31178335 C5.65382633,3.34440116 5.64164479,3.44225459 5.64512523,3.51836282 L5.64512523,3.51836282 Z M5.04648942,3.38789157 C4.99950347,3.29003814 4.92293377,3.80105051 4.94555664,4.0728656 C4.95251752,4.14897382 4.97340016,4.23595465 4.98732193,4.19246424 C5.00124369,4.14897382 5.02734699,3.85541353 5.04996986,3.75756009 C5.06737206,3.67057927 5.06389162,3.42050938 5.04648942,3.38789157 L5.04648942,3.38789157 Z" id="形状结合"></path>
        </g>
    </g>
</svg>