<?xml version="1.0" encoding="UTF-8"?>
<svg width="16px" height="16px" viewBox="0 0 16 16" version="1.1" xmlns="http://www.w3.org/2000/svg" xmlns:xlink="http://www.w3.org/1999/xlink">
    <title>mariadb-third-menu</title>
    <g id="mariadb-third-menu" stroke="none" stroke-width="1" fill="none" fill-rule="evenodd">
        <rect id="矩形" fill-opacity="0" fill="#F0F0F0" x="0" y="0" width="16" height="16"></rect>
        <g id="DB2" transform="translate(-0.000042, 2.000000)">
            <rect id="矩形" fill-opacity="0" fill="#D8D8D8" x="1.71353717" y="0" width="12.8" height="12.8"></rect>
            <path d="M15.1991686,0.3 L15.199,0.773 L15.2137195,0.300211775 C15.6533688,0.31301183 15.9388541,0.618338899 15.9912682,1.0393363 L15.999725,1.15688875 C16.0107714,1.94021494 15.7841251,2.35045839 15.2203879,2.89632598 C15.1361622,2.97788184 15.0556493,3.04770684 14.931038,3.15034326 C14.7076964,3.33429916 14.6861929,3.35247267 14.6035715,3.43112234 C14.4612916,3.56656272 14.3454806,3.70745947 14.2368755,3.88633317 C14.1697428,3.99693538 14.104401,4.25471422 14.0109308,4.7749122 C13.9969715,4.85332636 13.985505,4.91768846 13.975633,4.97284886 L13.9499022,5.11557539 L13.9389403,5.1753293 C13.8915661,5.43166415 13.8498812,5.6305078 13.8023334,5.81609019 C13.7558783,5.9978151 13.7153568,6.16513484 13.6364297,6.4974287 C13.5519791,6.85297699 13.5225347,6.97549711 13.4791714,7.14856548 C13.3997441,7.46557038 13.3316413,7.70986192 13.2642894,7.91060102 C13.1472347,8.26019612 13.2429125,9.00785798 13.4443337,9.24019544 C13.4554561,9.25323597 13.4670356,9.26573344 13.5239748,9.32884471 C13.7246776,9.59159596 13.7905742,9.92076154 13.4832225,10.2084602 L13.3837066,10.2808664 C13.3378394,10.3062595 13.293086,10.3290394 13.2494567,10.3489031 C12.6015873,10.6465928 11.8196511,10.5666679 11.282707,10.1746363 L11.2050422,10.112 L11.1562049,10.1766762 C11.1214464,10.2249029 11.083377,10.2828936 11.0400883,10.3528053 L10.9710024,10.4668833 C10.7038504,10.9161147 10.5556591,11.1104816 10.264264,11.2925875 C9.82072524,11.5682558 9.44657808,11.7045039 8.64491659,11.9157325 C8.44052497,11.957442 8.2415417,11.9755736 8.08599778,11.9624016 C7.93961455,11.9500055 7.81886875,11.9167181 7.70059439,11.8172859 C7.44042319,11.5985625 7.46091005,11.2607356 7.60431357,11.103885 C7.68332839,10.9782243 7.7484989,10.883283 7.89286411,10.6790286 C8.00258848,10.5237854 8.08765638,10.3995222 8.15678929,10.2903277 L8.17804222,10.253 L8.05235592,10.2336545 C6.70569531,10.0214567 6.07275671,9.96510002 5.42755176,10.040556 L5.29813211,10.0573975 C4.88629192,10.1162836 4.62022304,10.2574046 4.137591,10.6234986 C4.07789183,10.6688704 4.07789183,10.6688704 4.01667417,10.7153305 C3.86641406,10.8290679 3.76169314,10.9045363 3.64800662,10.9782493 C2.31341796,11.8431789 0.641663083,12.2205764 0.331343819,11.4138991 C0.215999649,11.1142484 0.300959833,10.8441696 0.496198319,10.5203929 L0.563452781,10.4140759 L0.602042219,10.357 L0.498995933,10.2640852 C0.481933513,10.2479233 0.458989166,10.2255142 0.433418059,10.2002433 L0.207953205,9.97486835 C0.0760858139,9.8512865 0.00197455403,9.67881842 3.34795523e-05,9.49921552 C-0.00176025516,9.32004065 0.068563944,9.14627913 0.201192218,9.01630436 C0.61819537,8.61603585 1.12798865,8.54741787 1.85620832,8.64537474 C1.94726501,8.65762328 2.03003656,8.67041641 2.16856226,8.69297822 C2.71189012,8.78147054 2.89188837,8.77991981 2.9127015,8.7568095 C3.09189031,8.55699813 3.07612062,8.57764345 3.43723704,8.08807934 C3.49932307,8.00390955 3.55014043,7.93716323 3.60289458,7.87136863 C3.73062416,7.71206519 3.86061276,7.57089362 4.01571743,7.42732193 C4.58898809,6.89724652 5.16300537,6.60965765 6.09959001,6.29471279 C6.18732345,6.26521174 6.24593996,6.24579052 6.39236934,6.19761092 C7.88930976,5.70605848 8.39612709,5.50762528 9.16692003,5.04023765 C9.64408306,4.75093612 9.95467074,4.32748474 10.5697273,3.24197993 C10.5792874,3.22510689 10.5792874,3.22510689 10.5888631,3.20820677 C11.37908,1.81359564 11.8203667,1.24812186 12.663078,0.868750937 C13.0022575,0.715928414 13.2521288,0.677067909 13.7579062,0.651354054 C13.883629,0.644962275 13.9391008,0.641582145 14.004313,0.635661027 C14.1105624,0.626013837 14.1968012,0.612150115 14.2757802,0.591277413 C14.2884916,0.587895793 14.2884916,0.587895793 14.300805,0.584536133 C14.4275423,0.549739237 14.6861846,0.43698067 14.7941134,0.386539588 L14.8370422,0.365 L14.9188459,0.336456409 C14.9567066,0.325837928 14.9957691,0.317496322 15.0372588,0.311423088 L15.1702342,0.3 L15.1991686,0.3 Z M14.9910422,1.392 L14.979277,1.39795475 C14.8419738,1.45501567 14.6801855,1.51738034 14.5655662,1.54885012 L14.5313132,1.55807776 C14.3925809,1.59474215 14.2528091,1.61721181 14.0947387,1.63156423 C14.0119937,1.63907729 13.9475565,1.64300372 13.8086809,1.65006419 C13.4212103,1.66976329 13.2660372,1.69389614 13.0737248,1.78054541 C12.497621,2.03989524 12.1420656,2.49551118 11.458902,3.70118972 C11.4493436,3.71805957 11.4493436,3.71805957 11.4397711,3.7349544 C10.7374475,4.97447554 10.3636481,5.48410905 9.68539253,5.89533195 C8.82736234,6.41561785 8.2740561,6.63225276 6.7043511,7.14769901 C6.56017341,7.19513866 6.50346527,7.21392758 6.4183164,7.24255955 C5.60394375,7.51640825 5.14207738,7.7478083 4.69481782,8.1613673 C4.5776755,8.26979944 4.48099906,8.37479299 4.38307767,8.49691985 C4.33996644,8.55068788 4.29676307,8.60743357 4.24199057,8.68168844 C3.85678214,9.20391399 3.86725203,9.19020704 3.65648999,9.42522375 C3.28926063,9.83301301 2.96462184,9.83580985 2.0078095,9.67997293 C1.87786204,9.65880826 1.80232286,9.64713296 1.72289349,9.63644848 C1.57214092,9.61616991 1.44475142,9.60626996 1.33704078,9.6067454 L1.26478835,9.60931576 C1.33921885,9.67434124 1.40244992,9.72060536 1.45287746,9.74696026 C1.46330421,9.75240958 1.47219218,9.75645327 1.47929695,9.75916306 L1.99196218,9.95469602 L1.74976898,10.4470386 C1.71652918,10.5146102 1.67643544,10.5752865 1.60711501,10.6714393 C1.60922755,10.668509 1.55716914,10.7398372 1.51228196,10.8018282 L1.49804222,10.82 L1.57408876,10.8048566 C1.98072494,10.7130587 2.44701994,10.5275725 2.88678542,10.2724081 L3.10405834,10.1391305 C3.19277868,10.0816053 3.28065345,10.0182773 3.41314023,9.91799318 C3.47220172,9.87316894 3.47220172,9.87316894 3.53324706,9.82677508 C4.13990326,9.36660417 4.5368218,9.15608154 5.1566069,9.06746287 C6.03166582,8.94237714 6.74601134,9.00953128 8.49065907,9.29093912 C8.71928875,9.32781658 8.84585948,9.34798921 8.98548565,9.36956297 L9.55979608,9.45830017 L9.38634504,10.0129365 C9.31187372,10.25107 9.22925874,10.4413578 9.10535801,10.6556773 L9.04104222,10.761 L9.13767311,10.7289394 C9.32630212,10.6619942 9.47587966,10.5941759 9.62396871,10.5101833 L9.73534334,10.4439171 C9.84259739,10.3768885 9.92649276,10.2668519 10.1078245,9.9619321 C10.4599135,9.36986711 10.6812269,9.12069602 11.1593877,8.98566314 L11.5256007,8.88224434 L11.7228549,9.20766444 C11.8424595,9.40498203 12.1140457,9.52595844 12.4032536,9.52888571 L12.4590422,9.526 L12.4246834,9.45063431 C12.2136427,8.93927042 12.1560023,8.25729726 12.2712757,7.753615 L12.3161311,7.59280289 C12.373604,7.42150724 12.4355315,7.19936716 12.5091558,6.90552276 C12.5511361,6.73797395 12.5800814,6.61753085 12.663498,6.26633591 C12.7437207,5.92858748 12.7851717,5.75742935 12.8335557,5.56815938 C12.8745071,5.40832284 12.9119883,5.22953144 12.955593,4.99359311 C12.9727186,4.90092907 12.9913834,4.7963804 13.0266929,4.59806228 C13.1457983,3.93519536 13.2235105,3.62861402 13.3820594,3.36740219 C13.5383939,3.10991747 13.7101575,2.90094831 13.914088,2.70682097 C14.0218551,2.60423435 14.0484918,2.58172257 14.295274,2.37845974 C14.4008205,2.29152609 14.464239,2.23652623 14.5247589,2.17792474 C14.8324127,1.88002311 14.9560053,1.70810723 14.9898546,1.41808099 L14.9910422,1.392 Z M13.6716669,2.00097238 L13.7497212,2.0075493 C13.8207528,2.47193712 13.5699056,2.74594373 13.3167324,2.76119456 C13.2015073,2.76831161 13.0859243,2.72205076 13.0000422,2.6158033 C13.0649905,2.22004422 13.2626982,2.01263291 13.5976384,2.00068642 C13.6455892,1.99865298 13.6964028,2.00119479 13.7497212,2.0075493 Z" id="形状结合" fill="#262626" fill-rule="nonzero"></path>
        </g>
    </g>
</svg>