<?xml version="1.0" encoding="UTF-8"?>
<svg width="16px" height="16px" viewBox="0 0 16 16" version="1.1" xmlns="http://www.w3.org/2000/svg" xmlns:xlink="http://www.w3.org/1999/xlink">
    <title>MemCached-third menu</title>
    <g id="MemCached-third-menu" stroke="none" stroke-width="1" fill="none" fill-rule="evenodd">
        <g id="Memcached">
            <rect id="矩形" x="0" y="0" width="16" height="16"></rect>
            <g transform="translate(1.199982, 1.199640)" fill="#262626" fill-rule="nonzero" id="形状结合">
                <path d="M1.33460669,0 L1.45098259,0.00318797345 C1.50134305,0.0061777791 1.50134305,0.0061777791 1.54487774,0.00941483051 C1.5952941,0.0131851985 1.61950632,0.0148271101 1.63555534,0.0154124179 L2.67951286,0.0155025459 C2.75851193,0.0149993084 2.84169557,0.0133930009 2.99375076,0.00991086165 C3.01805879,0.00935426337 3.03628982,0.00893681465 3.05151323,0.00859417977 L3.13131753,0.0069214505 L3.19019213,0.00579337422 C3.43858301,0.00153261714 3.62572073,0.00394709661 3.82957605,0.0184047693 C4.11011526,0.0477845858 4.27981215,0.130903797 4.47245387,0.322659752 C5.02562629,0.855064384 5.43373511,1.39690156 6.10726699,2.41572065 C6.19040308,2.54162126 6.19040308,2.54162126 6.27285897,2.66658457 C6.40126199,2.8610292 6.48856268,2.9919972 6.60019644,3.15966344 C6.6211289,3.19714969 6.66698088,3.2676594 6.74234159,3.37000471 L6.80001846,3.44735974 L6.80617647,3.43954111 L6.87090289,3.33417363 C7.07132424,3.01513513 7.41735504,2.49012267 7.95059415,1.71202807 C7.99049746,1.65389626 8.03425694,1.58948156 8.11882772,1.46487853 C8.38644563,1.07159047 8.55399247,0.847349254 8.77414509,0.608993426 C8.82769513,0.551015627 9.00716128,0.352474487 9.04153414,0.3184063 C9.11707714,0.243532901 9.13668012,0.230468433 9.27745988,0.146980651 C9.46235745,0.0373293174 9.65844926,0.011886276 9.95719528,0.0113274875 C10.0097488,0.011229189 10.0512645,0.0118457431 10.1355296,0.0136155886 C10.1852498,0.0146836647 10.214002,0.0152474767 10.2367321,0.0155046763 L11.8668073,0.0150487505 C11.8727326,0.0149292268 11.8799253,0.0147787912 11.8891731,0.014585374 C11.9917635,0.0124452171 12.0478046,0.0125036721 12.1199069,0.0169171386 C12.2890022,0.0272676624 12.4382893,0.060257382 12.5797143,0.135064588 C12.8792333,0.293496126 12.9792879,0.50773408 13.0436798,0.884191022 C13.0513728,0.92999346 13.0513728,0.92999346 13.0588076,0.975763019 C13.096376,1.2067467 13.1406813,1.57388929 13.1875554,2.01706084 L13.2076298,2.21789756 C13.2248568,2.38683005 13.2447756,2.57372348 13.2782307,2.88387444 C13.3491378,3.54122907 13.3791224,3.83418668 13.4108484,4.20397602 C13.4198625,4.31358557 13.428233,4.42021898 13.4360988,4.52621083 L13.4583211,4.84459636 C13.4967957,5.43333489 13.5242055,6.07328857 13.5636579,7.1528782 L13.578941,7.62835671 C13.6011761,8.40837231 13.6063792,9.10766707 13.5922324,9.7638913 L13.5814038,10.1527586 C13.5684949,10.5291268 13.5630793,10.6861119 13.55647,10.8739259 C13.5526683,10.9816499 13.5526683,10.9816499 13.5488371,11.0887882 C13.5404471,11.3206945 13.5404471,11.3206945 13.5304806,11.5771212 C13.5252011,11.6480319 13.5218912,11.7052697 13.5149601,11.837787 C13.5134764,11.866151 13.5129818,11.8756056 13.5121269,11.891576 L13.5017537,12.0674386 C13.4958006,12.1558045 13.4892159,12.2316619 13.4804299,12.3103049 C13.4227229,12.8078812 13.0650549,13.0627373 12.5682806,13.0626663 C12.339794,13.0588134 12.1269194,13.0580847 11.844515,13.05941 L11.6788766,13.0603234 L11.6083252,13.0607593 C11.5026961,13.061412 11.4206934,13.0618779 11.3489649,13.0621928 L11.0572532,13.0629301 C11.0256954,13.0632038 10.9950914,13.0638005 10.9468714,13.0649187 L10.9346801,13.0652093 C10.8772182,13.0665792 10.8248669,13.0674924 10.7699662,13.0678524 L10.5899559,13.0671761 C10.5222965,13.066333 10.4444279,13.06484 10.3486902,13.0626006 C9.96961791,13.0537337 9.68943143,12.9454601 9.53646465,12.6650802 C9.42092518,12.4533025 9.4274667,12.3279094 9.48416587,12.038502 C9.4883218,12.0172419 9.4883218,12.0172419 9.49169012,11.9992489 L9.51957179,11.8478075 L9.57741879,11.5291616 C9.62754904,11.2500646 9.67591639,10.9725641 9.72124276,10.7010676 C9.74035829,10.5865692 9.75860861,10.4750402 9.77589191,10.3669271 C9.83563742,9.99319781 9.88227086,9.67018587 9.91259805,9.41310424 C9.99763921,8.69221574 10.0667524,8.01453256 10.1176029,7.4580462 C10.1930158,6.65417185 10.2324804,6.05540677 10.2400667,5.48509422 L10.2400725,5.47112728 C10.2401726,5.29473725 10.2372338,5.13400773 10.2281686,4.97394849 L10.225,4.938 L10.1995469,4.99144873 C10.1287109,5.1370587 10.0633316,5.28423718 9.96057835,5.52595545 L9.89409891,5.68307496 C9.75392012,6.01556971 9.68318377,6.18344668 9.6174759,6.34048332 C9.40015121,6.85987219 9.2429125,7.25008503 9.09887934,7.63390437 C9.00014629,7.89948968 8.94800086,8.03608219 8.72716638,8.6108542 C8.55703372,9.05366316 8.46146958,9.30570206 8.3625983,9.57517327 L8.35291998,9.60538063 C8.3506756,9.61286198 8.34786467,9.62238128 8.3441109,9.63516034 C8.33566998,9.66449154 8.33566998,9.66449154 8.32547435,9.69934387 C8.20814349,10.0949453 8.030179,10.3434617 7.60690367,10.3602467 C7.51281141,10.3654474 7.34437779,10.368618 7.15137374,10.3701346 L6.62164558,10.3705692 C6.37427507,10.3692072 6.1565595,10.3657755 6.06570774,10.3610087 C5.67641186,10.3610087 5.45989068,10.1805244 5.31776063,9.8370925 C5.24742093,9.66447291 5.19713344,9.52885777 5.08897502,9.22723283 C5.0195319,9.03357452 4.98844849,8.94818498 4.94840688,8.84290049 C4.83636751,8.54830678 4.71792075,8.24321101 4.57090836,7.86928768 C4.49473124,7.67553257 4.22919939,7.00339211 4.18451623,6.88995253 C3.922503,6.21035218 3.66116022,5.59363483 3.38932169,5.01992628 C3.38322719,5.00699371 3.36656633,4.97107919 3.34630341,4.92745524 L3.33301846,4.90035974 C3.33127696,4.9614096 3.32973633,5.02152624 3.329307,5.08406658 L3.33128992,5.27921623 C3.33440587,5.40103357 3.33953552,5.50948744 3.35023403,5.68588969 L3.35935762,5.83220219 C3.36884722,5.9809609 3.37305423,6.0492896 3.37786691,6.1389969 C3.4021269,6.76653949 3.45730882,7.42534487 3.5444814,8.17710021 C3.69198408,9.53454067 3.85291042,10.7071518 4.06406663,11.9428447 C4.0681389,11.9643873 4.0681389,11.9643873 4.07308916,11.991472 C4.0893139,12.0819072 4.09878427,12.1584877 4.10039196,12.2420829 C4.10627951,12.548218 3.99744763,12.8235892 3.69825213,12.9755389 C3.55449586,13.048547 3.44245051,13.0626673 3.13163617,13.0639129 L2.89417314,13.0632715 L2.67979873,13.0623749 L0.877055205,13.0627373 C0.41360991,13.0627373 0.11070629,12.8011563 0.0911165542,12.3299369 C0.054962703,11.7824021 0.0381644127,11.2258216 0.0299612621,10.4777016 C0.0280979061,10.3077653 0.026983889,10.1723158 0.024750844,9.86696167 C0.0203205818,9.26115264 0.0173682484,8.99233763 0.0100243156,8.65867303 C-0.0246473159,7.11503154 0.0309244521,5.54042039 0.172028478,3.86518499 C0.251422535,2.94891153 0.357984093,2.0267548 0.52183061,0.777021215 C0.524287798,0.758002927 0.524287798,0.758002927 0.527191301,0.734038952 C0.564942437,0.424180681 0.646619725,0.230263157 0.937163764,0.0857321273 C1.03330831,0.0379050551 1.12562743,0.0139015704 1.22815565,0.00466291644 L1.33460669,0 Z M8.13100437,11.1482471 C8.52304876,11.1482471 8.84086353,11.4660618 8.84086353,11.8581062 C8.84086353,12.2501506 8.52304876,12.5679654 8.13100437,12.5679654 C7.73895999,12.5679654 7.42114522,12.2501506 7.42114522,11.8581062 C7.42114522,11.4660618 7.73895999,11.1482471 8.13100437,11.1482471 Z M5.46903254,11.1482471 C5.86107693,11.1482471 6.1788917,11.4660618 6.1788917,11.8581062 C6.1788917,12.2501506 5.86107693,12.5679654 5.46903254,12.5679654 C5.07698816,12.5679654 4.75917339,12.2501506 4.75917339,11.8581062 C4.75917339,11.4660618 5.07698816,11.1482471 5.46903254,11.1482471 Z M3.20734304,1.00564629 L3.15123933,1.00672121 L3.07376835,1.00834721 C3.05875682,1.00868508 3.04070901,1.00909808 3.01664526,1.00964875 C2.85844918,1.01327152 2.77083294,1.0149612 2.68507819,1.01549216 L1.64955147,1.01568522 C1.61038944,1.01568522 1.58338018,1.0146479 1.53164475,1.01108711 L1.5,1.008 L1.46125058,1.30847027 C1.34485905,2.21573873 1.26087892,2.94696897 1.19537854,3.65020754 L1.16839775,3.95031335 C1.03026165,5.59032925 0.97593407,7.12968681 1.00977717,8.63644302 C1.01726986,8.97686393 1.02025801,9.2489395 1.02472411,9.8596489 C1.02694824,10.1637849 1.0280556,10.2984245 1.02990115,10.4667373 C1.03677498,11.0936239 1.04973282,11.5799774 1.07556929,12.0448653 L1.076,12.062 L2.68200527,12.0623771 L2.90077862,12.0632934 L3.07001846,12.0633597 L2.97595276,11.4920702 C2.84277186,10.6601486 2.73012599,9.84161622 2.62672766,8.96151077 L2.55073646,8.28871544 C2.46121585,7.51682751 2.40395876,6.83324708 2.37897645,6.18543742 C2.37475782,6.10779074 2.37078571,6.04327724 2.36137457,5.89568309 C2.34345905,5.61403322 2.3359366,5.4736647 2.3316169,5.30478669 C2.31881041,4.80411928 2.35467592,4.39857293 2.46948165,4.00715481 C2.55947367,3.71617259 2.66087832,3.54263445 2.9273745,3.42026845 C3.26603606,3.26303252 3.54071647,3.38054493 3.74582749,3.62355284 C3.77840703,3.66313714 3.77840703,3.66313714 3.81350148,3.70719076 C3.94132375,3.87887064 4.04399703,4.06273988 4.16473792,4.31664049 C4.19364958,4.37743753 4.28467015,4.57399798 4.29032336,4.58611066 C4.57617915,5.189356 4.84708291,5.82863536 5.11557326,6.52507883 C5.15932452,6.63614847 5.42501807,7.30869824 5.5015633,7.50338965 C5.64982768,7.88049737 5.76954436,8.18886422 5.88309164,8.4874228 C5.92614974,8.60063877 5.95869698,8.69004959 6.03028594,8.8896921 C6.09921242,9.08190962 6.14304976,9.20224231 6.18303825,9.30632183 L6.20601846,9.36435974 L6.30195302,9.36718119 C6.39515403,9.36867908 6.507121,9.36979499 6.62595231,9.37044428 L6.99113764,9.37090769 C7.111796,9.37053912 7.22741709,9.3696193 7.32609926,9.3680636 L7.38001846,9.36635974 L7.38359753,9.35692653 C7.39358096,9.32266172 7.40067164,9.29904015 7.40857594,9.27495419 L7.42150591,9.23708848 C7.52485669,8.95527558 7.62183274,8.69951293 7.79369476,8.25220292 C8.01301044,7.68138394 8.06461738,7.54620198 8.16097569,7.2870085 C8.3118047,6.88504704 8.47326326,6.48436195 8.69497552,5.95448715 C8.76124587,5.79610622 8.8325625,5.6268521 8.97054658,5.29964366 L9.04133825,5.1323148 C9.17290984,4.82281176 9.24842491,4.6556745 9.3495368,4.45448219 C9.36756463,4.41861044 9.47389772,4.17826042 9.50714691,4.10845874 C9.65372159,3.80074726 9.78914947,3.59971723 10.0084243,3.46339908 C10.4480272,3.19612318 10.8513855,3.42673833 11.0327681,3.84436554 C11.1213847,4.04840227 11.1731555,4.31133936 11.2048366,4.63510033 C11.2327735,4.92059868 11.2402397,5.17665953 11.2400723,5.47169476 L11.240023,5.49170631 C11.2319711,6.10053122 11.1909313,6.72319503 11.1133428,7.55024511 C11.0618658,8.11360349 10.9919004,8.79964313 10.9057117,9.53025902 C10.8735244,9.80310906 10.8250788,10.1386732 10.7633536,10.5247857 C10.7456944,10.6352502 10.7270742,10.74904 10.7075913,10.8657386 C10.6615281,11.1416488 10.6124757,11.4230796 10.561668,11.7059484 C10.5405801,11.8233537 10.5217888,11.9266754 10.5032228,12.0278956 L10.4960185,12.0653597 L10.5976517,12.0672057 L10.8354305,12.0670365 L10.9108477,12.0654934 L10.9231081,12.0652011 C10.9761066,12.0639689 11.0115146,12.0632846 11.0485205,12.0629654 L11.2774094,12.062462 C11.364683,12.062174 11.4624893,12.0616414 11.6021458,12.0607784 L11.6728299,12.0603416 L11.8398222,12.059421 C12.1288149,12.0580648 12.3484079,12.0588164 12.5767107,12.0627373 L12.4990185,12.0613597 L12.5043222,11.9955689 L12.5118916,11.8691034 C12.5141201,11.8277044 12.5141201,11.8277044 12.5163251,11.7855553 C12.5236405,11.6456891 12.527233,11.5835658 12.53222,11.521046 C12.5411241,11.2839008 12.5411241,11.2839008 12.5494806,11.0529194 C12.5532981,10.9461626 12.5532981,10.9461626 12.5570887,10.838757 C12.5636836,10.6513507 12.5690864,10.4947353 12.5819921,10.1184627 C12.6118604,9.24807344 12.6039816,8.30381689 12.564207,7.18591687 L12.553875,6.90610494 C12.5068025,5.64575536 12.4757741,5.03451156 12.4143611,4.2877012 C12.3836142,3.92935994 12.3541231,3.64122445 12.2839981,2.9911196 C12.2502951,2.67867082 12.2301903,2.49002788 12.2128654,2.32010772 L12.1927174,2.11846515 C12.1481435,1.69717307 12.1054229,1.34316189 12.0717776,1.13629886 C12.0644814,1.09140488 12.0644814,1.09140488 12.057995,1.0527896 C12.0552586,1.03679181 12.0534071,1.02437858 12.0524768,1.01493442 L12.0209495,1.01352835 L11.9552908,1.0135567 C11.9418778,1.01374268 11.9269372,1.01401514 11.9100298,1.01436785 L11.8773045,1.015045 L10.2272162,1.01546156 C10.1986439,1.01515287 10.1653603,1.01450406 10.1142623,1.01338941 C10.0346981,1.01173672 10.0016601,1.01124607 9.95906573,1.01132574 C9.84156471,1.01154552 9.76283026,1.02176137 9.78754594,1.00710402 C9.7620676,1.02221365 9.74935296,1.02956507 9.74362336,1.03259469 L9.72906813,1.0462505 C9.69430518,1.08406256 9.61343614,1.1732433 9.55105555,1.24142484 L9.50874597,1.2874929 C9.33086774,1.48007892 9.18721525,1.67234043 8.94557624,2.0274502 C8.8619635,2.15064706 8.81655328,2.21749167 8.77526275,2.27764416 C8.24943821,3.04491977 7.91066159,3.55892589 7.73084093,3.84391901 C7.49391612,4.2682084 7.16178476,4.63518958 6.7957981,4.63518958 C6.66336216,4.63518958 6.54385589,4.6071894 6.42572164,4.52940037 C6.34833874,4.4784453 6.29567407,4.42428857 6.22993401,4.34282762 C6.20579263,4.31291314 6.107116,4.18470783 6.09219923,4.16561099 C5.9020475,3.92549561 5.78473366,3.75042242 5.75011754,3.68449255 C5.65845627,3.54962857 5.56903948,3.41548602 5.43838684,3.21763472 C5.355582,3.09214281 5.355582,3.09214281 5.27307614,2.9671965 C4.63819306,2.0068396 4.26378305,1.50974358 3.77307938,1.03736715 C3.76319377,1.02753196 3.75834221,1.02141078 3.75613079,1.01770467 L3.74287526,1.01448507 C3.59063684,1.00386931 3.42938641,1.00183748 3.20734304,1.00564629 Z"></path>
            </g>
        </g>
    </g>
</svg>