<?xml version="1.0" encoding="UTF-8"?>
<svg width="16px" height="16px" viewBox="0 0 16 16" version="1.1" xmlns="http://www.w3.org/2000/svg" xmlns:xlink="http://www.w3.org/1999/xlink">
    <title>metric-collection-third-menu</title>
    <g id="metric-collection-third-menu" stroke="none" stroke-width="1" fill="none" fill-rule="evenodd">
        <rect id="矩形" fill-opacity="0" fill="#F0F0F0" x="0" y="0" width="16" height="16"></rect>
        <g id="编组备份" transform="translate(1.839667, 2.450814)" fill="#262626" fill-rule="nonzero">
            <path d="M11.7203334,2.90651907 C11.3376667,2.90651907 11.147,2.72651907 11.147,2.36651907 L11.147,1.8638524 L7.67633335,5.12251908 C7.65704127,5.1419301 7.63702717,5.16060992 7.61633335,5.17851908 C7.35366669,5.41051908 7.08966669,5.40251907 6.82833333,5.15585241 C6.78982767,5.12040979 6.75457558,5.08158786 6.72300001,5.0398524 L4.60300001,3.05318574 L1.01633334,6.42251907 C0.745666688,6.67585241 0.475000008,6.67585241 0.202999992,6.42251907 C-0.0676666641,6.16918573 -0.0676666641,5.91451906 0.202999992,5.65985241 L4.11366668,1.98651907 C4.13813603,1.95692753 4.16440818,1.92887421 4.19233334,1.90251907 C4.46433333,1.64918574 4.73500001,1.64918574 5.00566667,1.90251907 L7.24433335,4.00518575 L10.3256667,1.11051907 L9.80433334,1.11051907 C9.42166667,1.11051907 9.22966667,0.929185736 9.22966667,0.570519072 C9.22966667,0.210519072 9.42166667,0.0291857354 9.803,0.0291857354 L11.5496667,0.0291857354 C11.669818,-0.0161470899 11.8035586,-0.00839401416 11.9176667,0.0505190636 C12.098744,0.0786374237 12.2427377,0.217298009 12.2776667,0.397185728 C12.3270649,0.49269319 12.3333705,0.604738919 12.295,0.705185744 L12.295,2.36918574 C12.295,2.72918574 12.103,2.9078524 11.7216667,2.9078524 L11.7203334,2.90651907 Z" id="路径"></path>
            <path d="M10.513,11.5465191 L9.36366668,11.5465191 L9.36366668,4.8878524 C9.36366668,4.5878524 9.61966669,4.3478524 9.93700001,4.3478524 C10.2556667,4.3478524 10.513,4.5878524 10.513,4.88651907 L10.513,11.5451857 L10.513,11.5465191 Z" id="路径"></path>
            <path d="M6.68433336,11.5465191 L6.68433336,7.76518574 C6.68433336,7.46651907 6.94033336,7.22518573 7.25766668,7.22518573 C7.57633334,7.22518573 7.83366668,7.46651907 7.83366668,7.76518574 L7.83366668,11.5451857 L6.68566669,11.5451857 L6.68433336,11.5465191 Z" id="路径"></path>
            <path d="M4.00633334,11.5465191 L4.00633334,5.60651907 C4.00633334,5.3078524 4.26366668,5.06651907 4.57966667,5.06651907 C4.89700001,5.06651907 5.15433336,5.30651907 5.15433336,5.60651907 L5.15433336,11.5465191 L4.00633334,11.5465191 L4.00633334,11.5465191 Z" id="路径"></path>
            <path d="M2.47633334,11.5465191 L1.32700001,11.5465191 L1.32700001,8.48518574 C1.32700001,8.18785241 1.58433335,7.94651907 1.90033334,7.94651907 C2.21899999,7.94651907 2.47633334,8.18785241 2.47633334,8.48518574 L2.47633334,11.5465191 Z" id="路径"></path>
        </g>
    </g>
</svg>