<?xml version="1.0" encoding="UTF-8"?>
<svg width="16px" height="16px" viewBox="0 0 16 16" version="1.1" xmlns="http://www.w3.org/2000/svg" xmlns:xlink="http://www.w3.org/1999/xlink">
    <title>metric-integration-third-menu</title>
    <g id="metric-integration-third-menu" stroke="none" stroke-width="1" fill="none" fill-rule="evenodd">
        <g id="third-party-events">
            <g id="编组-2" transform="translate(8.882353, 8.305882)"></g>
            <g id="图形">
                <rect id="矩形" x="0" y="0" width="16" height="16"></rect>
            </g>
        </g>
        <g id="编组-43" transform="translate(1.000000, 1.000000)" fill="#262626" fill-rule="nonzero">
            <g id="健康指标备份" transform="translate(1.548413, 4.176563)">
                <path d="M0,5.25689237 L2.90712617,1.52635653 L4.94687071,3.62007584 L6.37908518,1.81129315 L5.50419168,0.936399645 L9,0 L8.06360036,3.49580832 L7.17992026,2.61212823 L4.98578276,5.27069988 L3.00252346,3.23723148 L0.597507747,6.31881476 C0.395527463,5.93018425 0.198120925,5.65878243 0,5.25689237 Z" id="路径"></path>
            </g>
            <path d="M7,0 C10.8659932,0 14,3.13400675 14,7 C14,10.8659932 10.8659932,14 7,14 C3.13400675,14 0,10.8659932 0,7 C0,3.13400675 3.13400675,0 7,0 Z M7,1.2 C3.79674845,1.2 1.2,3.79674845 1.2,7 C1.2,10.2032515 3.79674845,12.8 7,12.8 C10.2032515,12.8 12.8,10.2032515 12.8,7 C12.8,3.79674845 10.2032515,1.2 7,1.2 Z" id="椭圆形"></path>
        </g>
    </g>
</svg>