<?xml version="1.0" encoding="UTF-8"?>
<svg width="16px" height="16px" viewBox="0 0 16 16" version="1.1" xmlns="http://www.w3.org/2000/svg" xmlns:xlink="http://www.w3.org/1999/xlink">
    <title>metric-aggregation-third-menu</title>
    <g id="metric-aggregation-third-menu" stroke="none" stroke-width="1" fill="none" fill-rule="evenodd">
        <rect id="矩形" fill-opacity="0" fill="#F0F0F0" x="0" y="0" width="16" height="16"></rect>
        <g id="汇聚" transform="translate(1.000000, 1.000000)" fill="#262626" fill-rule="nonzero">
            <path d="M13.8853101,13.0972897 L11.9319398,10.4894772 L12.8663645,9.55666471 C13.0510582,9.37228971 12.9414942,9.05666471 12.6816709,9.02541471 L11.3074247,8.86291471 C11.5609872,8.28010221 11.6955945,7.64572721 11.6955945,6.98947721 C11.6955945,6.33322721 11.5609872,5.69885221 11.3058595,5.11603971 L12.6785405,4.95353971 C12.9383638,4.92228971 13.0479278,4.60666471 12.8632341,4.42228971 L11.9303746,3.48947721 L13.8837449,0.880102207 C14.2625235,0.373852207 13.6239216,-0.263647793 13.1167966,0.114477207 L10.5029116,2.06447721 L9.56848683,1.13166471 C9.38379315,0.947289707 9.06762263,1.05666471 9.03631862,1.31603971 L8.87353775,2.68791471 C8.29128312,2.43635221 7.65581167,2.30197721 7,2.30197721 C6.34417355,2.30197721 5.70870209,2.43635221 5.12488226,2.68947721 L4.9621014,1.31760221 C4.93079738,1.05822721 4.61462686,0.948852207 4.42993318,1.13322721 L3.49550841,2.06603971 L0.881623374,0.116039707 C0.374498372,-0.262085293 -0.264103482,0.375414707 0.114675069,0.881664707 L2.06961065,3.48947721 L1.13518587,4.42228971 C0.950492201,4.60666471 1.06005624,4.92228971 1.31987955,4.95353971 L2.69256049,5.11603971 C2.43899799,5.69885221 2.30439074,6.33322721 2.30439074,6.98947721 C2.30439074,7.64572721 2.43899799,8.28010221 2.69412569,8.86291471 L1.32144475,9.02541471 C1.06162145,9.05666471 0.952057402,9.37228971 1.13675108,9.55666471 L2.06961065,10.4894772 L0.11624027,13.0988522 C-0.262538281,13.6051022 0.376063573,14.2426022 0.883188574,13.8644772 L3.49707361,11.9144772 L4.43149838,12.8472897 C4.61619206,13.0316647 4.93236258,12.9222897 4.9636666,12.6629147 L5.12644746,11.2910397 C5.70870209,11.5426022 6.34417355,11.6769772 7,11.6769772 C7.65581167,11.6769772 8.29284832,11.5426022 8.87666815,11.2894772 L9.03944902,12.6613522 C9.07075303,12.9207272 9.38692355,13.0301022 9.57161723,12.8457272 L10.506042,11.9129147 L13.119927,13.8629147 C13.6254868,14.2410397 14.2640887,13.6035397 13.8853101,13.0972897 Z M6.99999261,10.7394772 C6.36452115,10.7394772 5.76661452,10.5816647 5.24227231,10.3019772 L5.40505317,8.93166471 C5.42853118,8.73166471 5.25792431,8.56135221 5.05757863,8.58478971 L3.68176729,8.74728971 C3.40159638,8.22228971 3.24351111,7.62385221 3.24351111,6.98947721 C3.24351111,6.35510221 3.40316158,5.75666471 3.68176729,5.23166471 L5.05444823,5.39416471 C5.25479391,5.41760221 5.42540078,5.24728971 5.40192277,5.04728971 L5.24070711,3.67697721 C5.76504932,3.39728971 6.36452115,3.23947721 6.99999261,3.23947721 C7.63546406,3.23947721 8.2333707,3.39728971 8.75927811,3.67697721 L8.59649724,5.04728971 C8.57301923,5.24728971 8.7436261,5.41760221 8.94397178,5.39416471 L10.3166527,5.23166471 C10.5968236,5.75666471 10.7549089,6.35353971 10.7549089,6.98947721 C10.7549089,7.62385221 10.5952584,8.22228971 10.3166527,8.74728971 L8.94397178,8.58478971 C8.7436261,8.56135221 8.57301923,8.73166471 8.59649724,8.93166471 L8.75927811,10.3019772 C8.2349359,10.5816647 7.63546406,10.7394772 6.99999261,10.7394772 L6.99999261,10.7394772 Z" id="形状"></path>
            <path d="M4.9652318,6.98947721 C4.9652318,8.1113056 5.87622524,9.02072721 6.99999261,9.02072721 C8.12375997,9.02072721 9.03475341,8.1113056 9.03475341,6.98947721 C9.03475341,5.86764881 8.12375997,4.95822721 6.99999261,4.95822721 C5.87622524,4.95822721 4.9652318,5.86764881 4.9652318,6.98947721 Z" id="路径"></path>
        </g>
    </g>
</svg>