<?xml version="1.0" encoding="UTF-8"?>
<svg width="16px" height="16px" viewBox="0 0 16 16" version="1.1" xmlns="http://www.w3.org/2000/svg" xmlns:xlink="http://www.w3.org/1999/xlink">
    <title>model definition-third menu</title>
    <g id="model-definition-third-menu" stroke="none" stroke-width="1" fill="none" fill-rule="evenodd">
        <g id="信息">
            <rect id="矩形" fill="#FFFFFF" opacity="0" x="0" y="0" width="16" height="16"></rect>
            <path d="M7.999993,1.275 C11.7001164,1.275 14.725,4.29987404 14.725,7.999993 C14.725,11.7001096 11.7001048,14.725 7.999993,14.725 C4.29987404,14.725 1.275,11.7001164 1.275,7.999993 C1.275,4.29987181 4.29987181,1.275 7.999993,1.275 Z M7.999993,2.475 C4.96261351,2.475 2.475,4.96261351 2.475,7.999993 C2.475,11.0373756 4.96261658,13.525 7.999993,13.525 C11.0373635,13.525 13.525,11.0373675 13.525,7.999993 C13.525,4.96261658 11.0373756,2.475 7.999993,2.475 Z M8.7875,7.2125 L8.7875,11.15 L7.2125,11.15 L7.2125,7.2125 L8.7875,7.2125 Z M8.7875,4.89375 L8.7875,6.46875 L7.2125,6.46875 L7.2125,4.89375 L8.7875,4.89375 Z" id="形状结合" fill="#262626" fill-rule="nonzero"></path>
        </g>
    </g>
</svg>