<?xml version="1.0" encoding="UTF-8"?>
<svg width="16px" height="16px" viewBox="0 0 16 16" version="1.1" xmlns="http://www.w3.org/2000/svg" xmlns:xlink="http://www.w3.org/1999/xlink">
    <title>MongoDB-third menu</title>
    <g id="MongoDB-third-menu" stroke="none" stroke-width="1" fill="none" fill-rule="evenodd">
        <g id="MongoDB">
            <g id="Oracle备份">
                <rect id="矩形" x="0" y="0" width="16" height="16"></rect>
                <path d="M8.23958386,0.9 C11.6864978,0.9 14.5791677,2.18563105 14.5791677,4.05504056 L14.5791677,4.49939544 C14.5791677,4.5196299 14.5781443,4.5398074 14.5761141,4.55985303 L14.542065,6.6194507 C14.5368903,6.95078114 14.264099,7.21518263 13.9327686,7.21000795 C13.6014381,7.20483327 13.3370366,6.93204197 13.3422113,6.60071153 L13.3536377,5.98095137 C12.1701677,6.73277264 10.3193201,7.17305154 8.23958386,7.17305154 C6.0965297,7.17305154 4.2680551,6.74854469 3.11342042,5.97464071 L3.10104419,6.94309601 L3.1629416,7.03463079 C3.76688218,7.84780056 5.66501464,8.51225145 7.92919874,8.56216014 L8.3136872,8.56516957 C8.64505805,8.56516957 8.9136872,8.83379872 8.9136872,9.16516957 C8.9136872,9.49654042 8.64505805,9.76516957 8.3136872,9.76516957 L8.20259848,9.76516957 C6.14543777,9.76516957 4.28359559,9.31428703 3.09972319,8.55231321 L3.1,9.63739843 L3.16278001,9.73277579 C3.74532109,10.5340526 5.69207657,11.2140729 7.96529681,11.2651968 L8.27661343,11.2682805 C8.60798428,11.2682805 8.87661343,11.5369097 8.87661343,11.8682805 C8.87661343,12.1996514 8.60798428,12.4682805 8.27661343,12.4682805 L8.23958386,12.4682805 C6.19608391,12.4682805 4.31917717,12.0181193 3.12535564,11.2641606 L3.13702957,11.8709009 C3.13702957,12.8614491 5.39562635,13.9 8.27661343,13.9 C8.88748682,13.9 9.42961697,13.8635467 9.94283366,13.7834314 C10.2702393,13.7323221 10.5770864,13.9563045 10.6281957,14.2837102 C10.6793051,14.6111159 10.4553227,14.9179629 10.127917,14.9690723 C9.54891377,15.059457 8.94596304,15.1 8.27661343,15.1 C4.81044353,15.1 1.93702957,13.7787431 1.93712354,11.8815195 L1.90009397,9.78951107 L1.9,6.91239843 L1.90299807,6.874 L1.9371218,4.15750449 L1.93702957,4.05504056 C1.93702957,2.15806398 4.77085045,0.9 8.23958386,0.9 Z M12.2586186,7.48642643 C12.4457057,8.01027027 13.7178979,9.28246246 13.7178979,10.8914114 C13.7178979,12.5003604 13.006967,13.2487087 12.4082883,13.6603003 L12.4082883,14.4086486 C12.4082883,14.5209009 12.3334535,14.5957357 12.2586186,14.5957357 C12.1463664,14.6331532 12.0715315,14.5583183 12.0715315,14.4834835 L12.0715315,13.7351351 C12.6327928,13.4732132 12.296036,9.09537538 12.2586186,7.48642643 Z M12.2212012,7 C12.2141854,7.48408784 12.211116,8.00500845 12.2080466,8.53464395 L12.2029492,9.33211865 C12.1874013,11.3688489 12.1428585,13.3270514 11.847027,13.6228829 C11.5851051,13.5106306 10.5,12.911952 10.5,10.8914114 C10.5,8.68378378 12.0715315,7.89801802 12.2212012,7 Z M8.23958386,2.1 C5.36055072,2.1 3.13702957,3.08712374 3.13702957,4.05504056 L3.13702957,4.326 C3.64423472,5.24509577 5.49743246,5.9213795 7.95355222,5.97022255 L8.23958386,5.97305154 C10.6748233,5.97305154 12.6871041,5.29532432 13.3158053,4.4440374 L13.3769981,4.352 L13.3792409,4.22973767 L13.3791677,4.05504056 C13.3791677,3.1437145 11.2373643,2.16332294 8.50572525,2.10293843 L8.23958386,2.1 Z" id="形状结合" fill="#262626" fill-rule="nonzero"></path>
            </g>
            <g id="编组" transform="translate(10.500000, 7.000000)"></g>
        </g>
    </g>
</svg>