<?xml version="1.0" encoding="UTF-8"?>
<svg width="16px" height="16px" viewBox="0 0 16 16" version="1.1" xmlns="http://www.w3.org/2000/svg" xmlns:xlink="http://www.w3.org/1999/xlink">
    <title>overview-third-menu</title>
    <g id="overview-third-menu" stroke="none" stroke-width="1" fill="none" fill-rule="evenodd">
        <g id="总览" transform="translate(1, 1)">
            <rect id="矩形" stroke="#262626" stroke-width="1.2" x="0.6" y="0.6" width="12.8" height="9.8" rx="1"></rect>
            <path d="M10.3579728,12.199972 C10.4705915,12.3499782 10.6395195,12.5749875 10.864757,12.875 C11.1757321,13.2892136 10.9322257,13.625 10.3208704,13.625 L3.67912961,13.625 C3.06777426,13.625 2.82426794,13.2892136 3.13524302,12.875 L4.86330208,10.7236775" id="路径" stroke="#262626" stroke-width="1.2" stroke-linecap="round" stroke-linejoin="round"></path>
            <path d="M11.7258048,3.6942921 L11.7258048,7.70575758 L10.6008177,7.70575758 L10.6008177,3.6942921 L11.7258048,3.6942921 Z M10.2394162,6.00859911 L10.2394162,7.70575758 L9.11442915,7.70575758 L9.11442915,6.00859911 L10.2394162,6.00859911 Z M4.7760325,3.67500621 L4.7760325,6.03752795 L7.052065,6.03752795 C7.052065,7.34231267 6.03305054,8.40004968 4.7760325,8.40004968 C3.51901446,8.40004968 2.5,7.34231267 2.5,6.03752795 C2.5,4.73274322 3.51901446,3.67500621 4.7760325,3.67500621 Z M5.10118,3 C6.53777205,3 7.70236,4.2088423 7.70236,5.70002484 L5.10118,5.70002484 L5.10118,3 Z" id="形状结合" fill="#262626" fill-rule="nonzero"></path>
        </g>
    </g>
</svg>