<?xml version="1.0" encoding="UTF-8"?>
<svg width="16px" height="16px" viewBox="0 0 16 16" version="1.1" xmlns="http://www.w3.org/2000/svg" xmlns:xlink="http://www.w3.org/1999/xlink">
    <title>monthly-all-requirements-third-menu</title>
    <g id="monthly-all-requirements-third-menu" stroke="none" stroke-width="1" fill="none" fill-rule="evenodd">
        <g id="编组-3" transform="translate(1.000000, 1.000000)" fill="#262626" fill-rule="nonzero">
            <g id="编组-2">
                <path d="M2.5,1.4 L2.5,2.6 L1.6,2.6 C1.3790861,2.6 1.2,2.7790861 1.2,3 L1.2,12.4 C1.2,12.6209139 1.3790861,12.8 1.60017107,12.8 L8.93055358,12.8010362 C9.22874448,12.8010783 9.47609115,13.0186716 9.52254444,13.3037245 L9.53038252,13.401121 C9.53028804,13.7325058 9.26159624,14.001083 8.93021143,14.0010362 L1.6,14 C0.7163444,14 0,13.2836556 0,12.4 L0,3 C0,2.1163444 0.7163444,1.4 1.6,1.4 L2.5,1.4 Z M5.056,5.176 C5.632,5.176 6.104,5.312 6.456,5.592 C6.8,5.872 6.976,6.256 6.976,6.752 C6.976,7.376 6.656,7.792 6.024,8 C6.36,8.104 6.624,8.256 6.8,8.464 C6.992,8.68 7.088,8.96 7.088,9.296 C7.088,9.824 6.904,10.256 6.536,10.592 C6.152,10.936 5.648,11.112 5.024,11.112 C4.432,11.112 3.952,10.96 3.592,10.656 C3.192,10.32 2.968,9.824 2.92,9.184 L3.872,9.184 C3.888,9.552 4,9.84 4.224,10.04 C4.424,10.224 4.688,10.32 5.016,10.32 C5.376,10.32 5.664,10.216 5.872,10.016 C6.056,9.832 6.152,9.608 6.152,9.336 C6.152,9.008 6.048,8.768 5.856,8.616 C5.664,8.456 5.384,8.384 5.016,8.384 L4.616,8.384 L4.616,7.68 L5.016,7.68 C5.352,7.68 5.608,7.608 5.784,7.464 C5.952,7.32 6.04,7.104 6.04,6.824 C6.04,6.544 5.96,6.336 5.808,6.192 C5.64,6.048 5.392,5.976 5.064,5.976 C4.728,5.976 4.472,6.056 4.288,6.224 C4.096,6.392 3.984,6.648 3.952,6.992 L3.032,6.992 C3.08,6.416 3.288,5.968 3.672,5.648 C4.032,5.328 4.496,5.176 5.056,5.176 Z M9.96,5.288 L9.96,11 L9.024,11 L9.024,6.416 C8.68,6.728 8.248,6.96 7.72,7.112 L7.72,6.184 C7.976,6.12 8.248,6.008 8.536,5.848 C8.824,5.672 9.064,5.488 9.256,5.288 L9.96,5.288 Z M11.6,1.4 C12.4836556,1.4 13.2,2.1163444 13.1999998,2.99953389 L13.2011954,10.0691955 C13.2012515,10.4006253 12.9327268,10.6694041 12.6012971,10.6696616 C12.3032446,10.6698931 12.0558131,10.4526278 12.0091197,10.16775 L12.0011958,10.0701277 L12,3 C12,2.7790861 11.8209139,2.6 11.6,2.6 L10.6,2.6 L10.6,1.4 L11.6,1.4 Z M4.1,0 C4.43137085,-6.08718376e-17 4.7,0.26862915 4.7,0.6 L4.7,3.4 C4.7,3.73137085 4.43137085,4 4.1,4 C3.76862915,4 3.5,3.73137085 3.5,3.4 L3.5,0.6 C3.5,0.26862915 3.76862915,6.08718376e-17 4.1,0 Z M9.1,0 C9.43137085,-6.08718376e-17 9.7,0.26862915 9.7,0.6 L9.7,3.4 C9.7,3.73137085 9.43137085,4 9.1,4 C8.76862915,4 8.5,3.73137085 8.5,3.4 L8.5,0.6 C8.5,0.26862915 8.76862915,6.08718376e-17 9.1,0 Z M7.6,1.4 L7.6,2.6 L5.6,2.6 L5.6,1.4 L7.6,1.4 Z" id="形状结合"></path>
            </g>
        </g>
    </g>
</svg>