<?xml version="1.0" encoding="UTF-8"?>
<svg width="16px" height="16px" viewBox="0 0 16 16" version="1.1" xmlns="http://www.w3.org/2000/svg" xmlns:xlink="http://www.w3.org/1999/xlink">
    <title>monthly-product-objective-requirements-third-menu</title>
    <g id="monthly-product-objective-requirements-third-menu" stroke="none" stroke-width="1" fill="none" fill-rule="evenodd">
        <g id="编组-3" transform="translate(1.000000, 1.000000)" fill="#262626" fill-rule="nonzero">
            <g id="编组-2">
                <path d="M2.9,1.4 L2.9,2.6 L1.6,2.6 C1.3790861,2.6 1.2,2.7790861 1.2,3 L1.2,12.4 C1.2,12.6209139 1.37908603,12.8 1.600171,12.8 L9.33055358,12.8010403 C9.62874245,12.8010804 9.87608893,13.0186705 9.92254383,13.3037212 L9.93038252,13.401121 C9.93028804,13.7325065 9.6615969,14.0010849 9.33021143,14.0010403 L1.6,14 C0.7163444,14 0,13.2836556 0,12.4 L0,3 C0,2.1163444 0.7163444,1.4 1.6,1.4 L2.9,1.4 Z M5.456,5.176 C6.032,5.176 6.504,5.312 6.856,5.592 C7.2,5.872 7.376,6.256 7.376,6.752 C7.376,7.376 7.056,7.792 6.424,8 C6.76,8.104 7.024,8.256 7.2,8.464 C7.392,8.68 7.488,8.96 7.488,9.296 C7.488,9.824 7.304,10.256 6.936,10.592 C6.552,10.936 6.048,11.112 5.424,11.112 C4.832,11.112 4.352,10.96 3.992,10.656 C3.592,10.32 3.368,9.824 3.32,9.184 L4.272,9.184 C4.288,9.552 4.4,9.84 4.624,10.04 C4.824,10.224 5.088,10.32 5.416,10.32 C5.776,10.32 6.064,10.216 6.272,10.016 C6.456,9.832 6.552,9.608 6.552,9.336 C6.552,9.008 6.448,8.768 6.256,8.616 C6.064,8.456 5.784,8.384 5.416,8.384 L5.016,8.384 L5.016,7.68 L5.416,7.68 C5.752,7.68 6.008,7.608 6.184,7.464 C6.352,7.32 6.44,7.104 6.44,6.824 C6.44,6.544 6.36,6.336 6.208,6.192 C6.04,6.048 5.792,5.976 5.464,5.976 C5.128,5.976 4.872,6.056 4.688,6.224 C4.496,6.392 4.384,6.648 4.352,6.992 L3.432,6.992 C3.48,6.416 3.688,5.968 4.072,5.648 C4.432,5.328 4.896,5.176 5.456,5.176 Z M10.36,5.288 L10.36,11 L9.424,11 L9.424,6.416 C9.08,6.728 8.648,6.96 8.12,7.112 L8.12,6.184 C8.376,6.12 8.648,6.008 8.936,5.848 C9.224,5.672 9.464,5.488 9.656,5.288 L10.36,5.288 Z M12.4,1.4 C13.2836556,1.4 14,2.1163444 14,2.99953389 L14.0011955,10.0691953 C14.0012516,10.4006252 13.7327268,10.6694041 13.401297,10.6696616 C13.1032444,10.6698931 12.8558128,10.4526278 12.8091195,10.1677498 L12.8011955,10.0701275 L12.8,3 C12.8,2.7790861 12.6209139,2.6 12.4,2.6 L11,2.6 L11,1.4 L12.4,1.4 Z M4.5,0 C4.83137085,-6.08718376e-17 5.1,0.26862915 5.1,0.6 L5.1,3.4 C5.1,3.73137085 4.83137085,4 4.5,4 C4.16862915,4 3.9,3.73137085 3.9,3.4 L3.9,0.6 C3.9,0.26862915 4.16862915,6.08718376e-17 4.5,0 Z M9.5,0 C9.83137085,-6.08718376e-17 10.1,0.26862915 10.1,0.6 L10.1,3.4 C10.1,3.73137085 9.83137085,4 9.5,4 C9.16862915,4 8.9,3.73137085 8.9,3.4 L8.9,0.6 C8.9,0.26862915 9.16862915,6.08718376e-17 9.5,0 Z M8,1.4 L8,2.6 L6,2.6 L6,1.4 L8,1.4 Z" id="形状结合"></path>
            </g>
        </g>
    </g>
</svg>