<?xml version="1.0" encoding="UTF-8"?>
<svg width="16px" height="16px" viewBox="0 0 16 16" version="1.1" xmlns="http://www.w3.org/2000/svg" xmlns:xlink="http://www.w3.org/1999/xlink">
    <title>monthly-operation-improvement-requirements-third-menu</title>
    <g id="monthly-operation-improvement-requirements-third-menu" stroke="none" stroke-width="1" fill="none" fill-rule="evenodd">
        <g id="运营商" transform="translate(1.250000, 1.000000)" fill="#262626">
            <path d="M6.76375,0 C10.49125,0 13.5275,3.03625 13.5275,6.76375 C13.5275,8.54875 12.7925,10.24625 11.4625,11.55 C10.185,12.81 8.47,13.5275 6.76375,13.5275 C5.32041535,13.5275 3.9138217,13.0645634 2.75945427,12.219497 L0.90125,14 L0.63,8.35625 L6.5625,8.58375 L4.97718501,10.1019245 C5.4223484,10.5360308 6.08020833,11.0179688 6.965,11.29625 C7.42875,11.445 7.93625,11.515 8.435,11.515 C9.71059441,11.515 10.731497,11.0225958 11.3722702,10.5980756 C12.2664451,9.53725406 12.81875,8.18885653 12.81875,6.76375 C12.81875,6.46886415 12.7975696,6.17881369 12.7566509,5.89504063 L11.0376776,5.89004712 C11.0987392,6.37387451 11.13,6.87138451 11.13,7.37625 C11.13,8.26 11.03375,9.10875 10.85,9.9225 L10.1675,9.765 C10.3425,9.00375 10.43,8.19875 10.43,7.37625 C10.43,6.86856361 10.3967325,6.37007888 10.331808,5.88784188 L6.833,5.877 L6.83375,7.455 L6.13375,7.455 L6.133,5.875 L2.97077639,5.86574674 C2.92383415,6.21058016 2.89267458,6.56610443 2.87875,6.93 L2.17875,6.90375 C2.19237773,6.55113248 2.22159226,6.20348947 2.26568339,5.86295155 L0.76733492,5.85809184 C0.722986498,6.15362109 0.7,6.45605322 0.7,6.76375 C0.7,7.02625 0.7175,7.2975 0.7525,7.56 L0.06125,7.6475 C0.02625,7.35875 0,7.06125 0,6.76375 C0,3.03625 3.03625,0 6.76375,0 Z M10.1494768,1.74202364 L10.0603388,1.86409125 C9.97510121,1.97551789 9.88521228,2.08233628 9.79101732,2.18434438 C9.81806949,2.22430905 9.84416848,2.2668587 9.87,2.31 C10.3628088,3.13134804 10.7208355,4.11636008 10.9265892,5.18924209 L12.6125906,5.19400961 C12.2301714,3.7692757 11.3402139,2.54969415 10.1494768,1.74202364 Z M9.26625,2.66875 L9.25616453,2.67665453 C8.56846406,3.21319516 7.73153125,3.5413326 6.83387526,3.60929737 L6.833,5.177 L10.2127858,5.1867751 C10.0190836,4.24731319 9.69912986,3.3885386 9.26625,2.66875 Z M3.92880498,2.83274404 L3.86538984,2.94706098 C3.528578,3.58319206 3.26253829,4.33494898 3.09061869,5.16504216 L6.133,5.174 L6.13297943,3.60898093 C5.33483892,3.54730191 4.57705928,3.27635078 3.92880498,2.83274404 Z M3.01255499,2.00158615 L2.94504822,2.05317789 C1.97631656,2.84042927 1.25465579,3.92082432 0.915302677,5.15798981 L2.37896579,5.16376967 C2.5802623,4.13394327 2.92194408,3.18792326 3.38235456,2.39067941 C3.2516823,2.2701154 3.12843149,2.13973746 3.01255499,2.00158615 Z M4.41042863,2.09744733 L4.30291374,2.24201413 C4.84130435,2.61583311 5.47003945,2.84756262 6.13297168,2.90717036 L6.13303132,0.875566699 C5.49718933,1.02866424 4.90808264,1.45976416 4.41042863,2.09744733 Z M6.83393542,0.821615118 L6.83379575,2.90603246 C7.58888074,2.83639323 8.29174952,2.54823453 8.86759291,2.08644187 C8.27042729,1.32274805 7.56787845,0.884475707 6.83393542,0.821615118 Z" id="形状结合"></path>
        </g>
    </g>
</svg>