<?xml version="1.0" encoding="UTF-8"?>
<svg width="16px" height="16px" viewBox="0 0 16 16" version="1.1" xmlns="http://www.w3.org/2000/svg" xmlns:xlink="http://www.w3.org/1999/xlink">
    <title>monthly-project-closure-requirements-third-menu</title>
    <g id="monthly-project-closure-requirements-third-menu" stroke="none" stroke-width="1" fill="none" fill-rule="evenodd">
        <g id="编组" transform="translate(1.000000, 1.000000)" fill="#262626" fill-rule="nonzero">
            <g id="编组-2">
                <path d="M2.9,1.4 L2.9,2.6 L1.6,2.6 C1.3790861,2.6 1.2,2.7790861 1.2,3 L1.2,12.4 C1.2,12.6209139 1.37908603,12.8 1.600171,12.8 L4.33055361,12.800919 C4.66192945,12.8010306 4.93047701,13.0697452 4.93038252,13.401121 C4.93028805,13.7324748 4.66159614,14.0010135 4.33024235,14.000919 C4.33023206,14.000919 4.33022176,14.000919 4.33021146,14.000919 L1.6,14 L1.6,14 C0.7163444,14 0,13.2836556 0,12.4 L0,3 C0,2.1163444 0.7163444,1.4 1.6,1.4 L2.9,1.4 Z M8,1.4 L8,2.6 L6,2.6 L6,1.4 L8,1.4 Z M12.4,1.4 C13.2836556,1.4 14,2.1163444 14,2.99953389 L14.0008309,4.06919545 C14.0010883,4.4005663 13.7326679,4.66940413 13.401297,4.66966156 C13.0699262,4.66991899 12.8010885,4.4014986 12.800831,4.07012783 C12.800831,4.07012778 12.800831,4.07012773 12.800831,4.07012767 L12.8,3 L12.8,3 C12.8,2.7790861 12.6209139,2.6 12.4,2.6 L11,2.6 L11,1.4 L12.4,1.4 Z M10,6 C7.79285714,6 6,7.79285714 6,10 C6,12.2071429 7.79285714,14 10,14 C12.2071429,14 14,12.2071429 14,10 C14,7.79285714 12.2071429,6 10,6 Z M11.7071429,11.3928571 L9.79285714,10.2857143 L9.71428571,10.2857143 L9.71428571,7.71428571 L10.2857143,7.71428571 L10.2857143,9.91428571 L11.9928571,10.9 L11.7071429,11.3928571 Z" id="形状"></path>
                <path d="M4.5,0 C4.83137085,-6.08718376e-17 5.1,0.26862915 5.1,0.6 L5.1,3.4 C5.1,3.73137085 4.83137085,4 4.5,4 C4.16862915,4 3.9,3.73137085 3.9,3.4 L3.9,0.6 C3.9,0.26862915 4.16862915,6.08718376e-17 4.5,0 Z" id="矩形备份-5"></path>
                <path d="M9.5,0 C9.83137085,-6.08718376e-17 10.1,0.26862915 10.1,0.6 L10.1,3.4 C10.1,3.73137085 9.83137085,4 9.5,4 C9.16862915,4 8.9,3.73137085 8.9,3.4 L8.9,0.6 C8.9,0.26862915 9.16862915,6.08718376e-17 9.5,0 Z" id="矩形备份-6"></path>
            </g>
        </g>
    </g>
</svg>