<?xml version="1.0" encoding="UTF-8"?>
<svg width="16px" height="16px" viewBox="0 0 16 16" version="1.1" xmlns="http://www.w3.org/2000/svg" xmlns:xlink="http://www.w3.org/1999/xlink">
    <title>monthly-delivery-project-total-requirements-third-menu</title>
    <g id="monthly-delivery-project-total-requirements-third-menu" stroke="none" stroke-width="1" fill="none" fill-rule="evenodd">
        <path d="M8,12.15 L1.6040262,12.15 C1.59331424,12.7305937 1.57510962,13.2592128 1.9760962,13.7549444 C2.37708279,14.250676 3.19790102,14.4538922 3.7785272,14.445119 L9.6197882,14.445119 C10.5878402,14.4698748 11.523057,14.0933161 12.2038592,13.404661 C12.8846614,12.7160059 13.2504692,11.7765324 13.2146132,10.808828 L13.2146132,3.68176 L14.4036582,3.68176 C14.3813229,2.48466521 13.4118352,1.52195383 12.2146132,1.508012 L6.1944182,1.5 C4.1548552,1.55197795 2.54302778,3.24648832 2.5930592,5.2861 C2.5930592,6.99463811 2.5930592,8.77604187 2.5930592,9.63031093" id="路径" stroke="#262626" stroke-width="1.2" stroke-linecap="round"></path>
        <rect id="矩形" fill="#262626" x="4.5" y="5" width="1.2" height="1.2"></rect>
        <rect id="矩形备份" fill="#262626" x="4.5" y="7.2" width="1.2" height="1.2"></rect>
        <rect id="矩形" fill="#262626" x="6.9" y="5" width="4.4" height="1.2"></rect>
        <rect id="矩形备份" fill="#262626" x="6.9" y="7.2" width="4.4" height="1.2"></rect>
    </g>
</svg>