<?xml version="1.0" encoding="UTF-8"?>
<svg width="16px" height="16px" viewBox="0 0 16 16" version="1.1" xmlns="http://www.w3.org/2000/svg" xmlns:xlink="http://www.w3.org/1999/xlink">
    <title>monthly-star-third-menu</title>
    <g id="monthly-star-third-menu" stroke="none" stroke-width="1" fill="none" fill-rule="evenodd">
        <path d="M6.79427926,3.69722264 L8.57264159,6.46989335 L12.2731453,7.22563519 L9.88885412,9.68384453 L10.3170127,13.4667504 L7.24233022,11.9587831 L3.77688128,13.5349683 L4.26091419,10.144784 L1.69099034,7.33601422 L5.06482165,6.74873231 L6.79427926,3.69722264 Z" id="星形备份" stroke="#262626" stroke-width="1.2"></path>
        <path d="M12.4534659,4.77446443 L11.2098841,5.42825407 C11.1609996,5.45395415 11.1005369,5.4351595 11.0748368,5.38627504 C11.0646029,5.366809 11.0610715,5.34451219 11.0647891,5.32283642 L11.3022921,3.93808774 C11.3078559,3.90564833 11.2971011,3.87254831 11.2735325,3.8495746 L10.2674537,2.86889013 C10.2279053,2.83034001 10.2270961,2.76702868 10.2656462,2.72748033 C10.280997,2.71173196 10.3011113,2.70148324 10.322875,2.69832079 L11.7132417,2.49628868 C11.7458127,2.49155584 11.7739693,2.4710989 11.7885355,2.44158455 L12.4103264,1.18169858 C12.4347686,1.13217321 12.4947312,1.11183931 12.5442566,1.13628154 C12.5639778,1.14601456 12.5799406,1.16197732 12.5896736,1.18169858 L13.2114645,2.44158455 C13.2260307,2.4710989 13.2541873,2.49155584 13.2867583,2.49628868 L14.677125,2.69832079 C14.7317795,2.70626255 14.7696476,2.75700684 14.7617059,2.81166133 C14.7585434,2.83342503 14.7482947,2.85353927 14.7325463,2.86889013 L13.7264675,3.8495746 C13.7028989,3.87254831 13.6921441,3.90564833 13.6977079,3.93808774 L13.9352109,5.32283642 C13.944547,5.37727007 13.9079882,5.42896566 13.8535545,5.43830176 C13.8318788,5.44201945 13.809582,5.43848798 13.7901159,5.42825407 L12.5465341,4.77446443 C12.5174017,4.75914862 12.4825983,4.75914862 12.4534659,4.77446443 Z" id="星形备份-2" stroke="#262626" stroke-width="0.8"></path>
    </g>
</svg>