<?xml version="1.0" encoding="UTF-8"?>
<svg width="16px" height="16px" viewBox="0 0 16 16" version="1.1" xmlns="http://www.w3.org/2000/svg" xmlns:xlink="http://www.w3.org/1999/xlink">
    <title>MSSQL-third menu</title>
    <g id="MSSQL-third-menu" stroke="none" stroke-width="1" fill="none" fill-rule="evenodd">
        <g id="MSSQL">
            <rect id="矩形" x="0" y="0" width="16" height="16"></rect>
            <g id="编组-29" transform="translate(1.500000, 1.000000)" fill="#262626">
                <path d="M5.29926901,0 C5.48175231,0.874341218 6.0406839,1.8181813 6.29649694,2.21806312 C6.36484377,2.23028059 6.42685872,2.23510024 6.4883773,2.24022412 C6.73441958,2.26070362 6.97749963,2.29173512 7.22019537,2.32805061 C7.46282708,2.36407789 7.70400167,2.40918404 7.94432763,2.4591899 C8.4246593,2.56035449 8.90033144,2.68970042 9.36597999,2.85368058 C9.48226003,2.89497584 9.59809173,2.93792036 9.71302674,2.98344282 C9.82793477,3.02941016 9.9419922,3.07747592 10.0551418,3.12761598 C10.1683155,3.1779741 10.2809127,3.23002952 10.3920208,3.28539944 C10.5031928,3.34100977 10.6131318,3.39905166 10.7217585,3.45948324 C10.9400532,3.58043432 11.1516768,3.71305189 11.3557105,3.85676003 C11.5602013,4.00075705 11.7573746,4.15649096 11.9438037,4.32527475 C12.3168702,4.66204172 12.6466719,5.05365021 12.9011525,5.49273465 L13.065597,5.77643745 L12.7449062,5.81236865 C11.726215,5.92645503 10.7136563,6.10254035 9.71235424,6.33104936 C9.05008228,6.48156908 8.39238922,6.66304886 7.74080285,6.86357656 C7.80484781,7.21372426 7.98074376,8.4689609 7.67052032,10.4478142 C7.67052032,10.4478142 7.33849267,12.3606251 6.35153334,13.9817643 C6.34743809,13.9911077 6.32708719,13.9953161 6.32708719,13.9953161 L6.26349985,13.9978864 L6.32708719,14.0448936 C6.32708719,14.0448936 6.3049104,14.0578958 6.26749006,14.0578958 C6.23389263,14.0578958 6.21921974,14.0258402 6.212812,13.9980273 C4.97724798,14.0234295 2.80456422,13.5213413 2.80456422,13.5213413 C0.783850297,12.9774575 0.215051648,11.9746022 0.215051648,11.9746022 C-0.498333684,10.922586 0.770883943,9.91536217 1.01863866,9.73337208 L1.08009824,9.68252406 L1.07860879,9.67289667 C1.07988768,9.66651967 1.08354696,9.66062005 1.08929756,9.65663922 L1.48591855,9.39366494 L1.50509824,9.37752406 L1.20809824,9.57652406 L1.32120202,9.48380214 C1.85869341,9.02873093 2.36438295,8.53782148 2.81236212,8.00012104 C2.94628752,7.83865479 3.07472076,7.67294533 3.19588449,7.50276849 C3.31666394,7.33247956 3.43063823,7.15727491 3.53034572,6.97678626 C3.55501791,6.93218944 3.57851051,6.88695017 3.60079906,6.84111554 L3.61772388,6.80475201 L3.63303147,6.76814829 L3.66202942,6.69625386 L3.71682291,6.55091182 C3.73468032,6.50255263 3.75175149,6.45390673 3.76802968,6.40499334 C3.8001136,6.30766024 3.82942231,6.20943418 3.85592022,6.11043433 C3.88237225,6.01187971 3.90379647,5.9124124 3.92339531,5.81323331 C3.94257019,5.71432326 3.95757614,5.61465044 3.96837336,5.51447912 C3.97961387,5.41483567 3.98715558,5.3151442 3.98968549,5.21564486 C3.99104653,5.16591121 3.99115861,5.11622559 3.99018187,5.06663605 C3.98965347,5.01707852 3.98794017,4.96760106 3.98509002,4.9182517 C3.97938627,4.81979446 3.96889124,4.72167338 3.95364221,4.6242371 C3.89593451,4.2348703 3.7633061,3.86033073 3.57321017,3.51539757 C3.47869061,3.34249867 3.36756648,3.17837441 3.24712329,3.02123143 C3.12592753,2.86474495 2.99152177,2.71733735 2.84941417,2.58165062 C2.81418824,2.54829332 2.77810073,2.51585781 2.74118823,2.48437697 L2.71419179,2.46186392 L2.69046183,2.44284152 L2.68026211,2.43489951 L2.66732431,2.42332274 L2.65219285,2.40895987 L2.62225018,2.37996191 L2.56306938,2.32132552 L2.50646652,2.25927854 C2.46843773,2.21809536 2.43381952,2.17286111 2.3989291,2.12778699 C2.33166217,2.03518888 2.26934299,1.93530526 2.22567793,1.82059441 C2.21030991,1.77876959 2.19679291,1.7349494 2.18948606,1.68866392 C2.17651131,1.6573624 2.17566359,1.62705552 2.18251089,1.59570152 L2.18412647,1.63578248 C2.18250925,1.60302168 2.18542345,1.56846752 2.1961836,1.53585082 C2.201996,1.51966257 2.20944164,1.50393866 2.22028185,1.49088878 C2.22751246,1.48192237 2.23625459,1.47405525 2.24580719,1.46882654 C2.70018893,0.863747686 5.29926901,0 5.29926901,0 Z M6.72608774,12.587755 L6.66737344,12.6090601 C6.20025478,12.7881993 4.86144187,13.2824178 3.91099023,13.4414579 L3.716,13.47 L4.08819206,13.5441405 C5.13346387,13.7469875 6.06764276,13.885569 6.06764276,13.885569 C6.13659692,13.8991872 6.18957438,13.9113531 6.23001961,13.9221658 C6.29873678,13.7579861 6.49800238,13.2790357 6.72608774,12.587755 Z M4.495145,11.9108763 L4.42130334,12.0300454 C3.93982263,12.7905346 3.55295259,13.2166531 3.37677601,13.3933443 L3.54942299,13.4338423 L3.567,13.437 L3.67664055,13.4052922 C3.96024086,13.3219041 4.41643447,13.1874039 4.89593565,13.0445547 L5.29198931,12.9262144 C5.93215956,12.7343051 6.54121986,12.5483457 6.76738889,12.4691044 C6.7726453,12.444935 6.7808752,12.4193041 6.78913001,12.3934173 C5.86181385,12.3853909 5.09458184,12.1741256 4.495145,11.9108763 Z M4.18910528,11.8581232 L4.10708187,11.8869874 C3.47794098,12.1030594 2.5919181,12.3803619 1.56317327,12.6257908 C1.68331358,12.704881 1.7617747,12.7479877 1.7617747,12.7479877 C2.04156107,12.9246963 2.58776865,13.1681098 3.2108198,13.345765 C3.51811556,12.9755151 3.89073071,12.3727662 4.18910528,11.8581232 Z M2.8051415,10.7324361 L2.78078149,10.762228 C2.69036642,10.8657639 2.59523404,10.9675333 2.49522601,11.0665227 C2.49522601,11.0665227 1.70126686,12.0568414 1.37677546,12.4976648 C1.41278916,12.5219656 1.44568107,12.5454411 1.47687437,12.5671315 C1.79130143,12.462656 3.03261117,12.0491094 4.04716973,11.6891562 C3.31343885,11.2848452 2.93430211,10.856956 2.93431045,10.856956 C2.88835071,10.816263 2.8453539,10.7746973 2.8051415,10.7324361 Z M2.57297017,10.5831151 L2.5318214,10.5938115 C2.18677113,10.6851128 1.80784676,10.7813976 1.42315707,10.8720443 L1.03758666,10.9604182 C0.823469959,11.0080336 0.610465687,11.0528162 0.403393588,11.0929445 C0.425455335,11.642076 0.895744228,12.1200692 1.27676562,12.4192731 C1.28869755,12.4036872 1.30485384,12.3823233 1.32349486,12.3575648 L1.43438369,12.2092667 C1.68349183,11.8739853 2.124925,11.2661912 2.57297017,10.5831151 Z M7.30462972,10.4487221 L7.23555159,10.4903472 C6.8570938,10.7172734 6.12087773,11.1230775 5.10970148,11.5155667 C5.10970148,11.5155667 4.96865633,11.5742628 4.71330153,11.6698508 L4.64017274,11.6971947 C5.51588709,12.1215661 6.44379156,12.3097089 6.79734201,12.3703393 C6.96908977,11.8267865 7.15191444,11.1725585 7.30462972,10.4487221 Z M5.28073353,9.73063539 L5.22430341,9.75664537 C4.84665215,9.92107094 4.44749166,10.0664428 4.04535965,10.1684507 C4.04535965,10.1684507 3.69531333,10.2744506 3.16842796,10.4210003 L3.05045936,10.4544831 C3.29468244,10.7820196 3.55298686,10.9767107 3.55298686,10.9767107 C3.7924029,11.2002996 4.07026679,11.3909316 4.36191838,11.5528855 C4.57756301,11.1728337 4.72214405,10.8968742 4.72214405,10.8968742 C4.96313055,10.4814004 5.14455529,10.0900909 5.28073353,9.73063539 Z M5.60412867,9.6174785 L5.59059312,9.66308272 C5.48553216,9.99104234 5.39891245,10.2083529 5.39891245,10.2083529 C5.18821277,10.6676433 4.9807793,11.0709846 4.78299141,11.423045 C5.01336608,11.3349193 5.2001453,11.2606326 5.31923612,11.2062284 C5.31923612,11.2062284 6.40669557,10.8519819 7.33153002,10.315667 C7.3343941,10.3048562 7.33649087,10.2944991 7.33858102,10.2841288 C6.59978829,10.1400478 6.03525146,9.89510995 5.60412867,9.6174785 Z M2.26128545,9.05980547 L2.47114378,8.9519617 C2.24138582,9.06889823 2.01316503,9.18898916 1.78712189,9.31309912 L1.488,9.48 L1.38055504,9.56494511 C0.944455302,9.92102278 0.659115858,10.3580503 0.659115858,10.3580503 C0.494670384,10.5708112 0.417926275,10.7802603 0.403830608,10.981382 C0.718485996,10.8932953 1.60246995,10.6428459 2.5295868,10.3650554 C2.24553221,9.87673956 2.2332571,9.36509868 2.26128545,9.05980547 Z M7.52613801,8.4312173 L7.49467871,8.45309896 C7.25491878,8.62625339 6.64309154,9.04981691 5.86805575,9.44989227 C6.43550798,9.78962734 7.03963706,10.0382276 7.3643524,10.1613699 L7.40106832,9.95886805 C7.40106832,9.95886805 7.40549367,9.93279731 7.41268486,9.88440999 L7.43026334,9.75899224 C7.46490822,9.49774291 7.51891994,9.00526159 7.52613801,8.4312173 Z M3.83608878,8.29819211 L3.86613595,8.28488064 C3.47117415,8.46134521 3.07972172,8.64604722 2.69267858,8.83981079 L2.74970668,8.68158099 C2.51662799,9.24357874 2.64016903,9.75231745 2.85336995,10.1471835 C3.25256688,9.50971993 3.62551851,8.84545979 3.83608878,8.29819211 Z M4.30758002,8.09417433 L4.24195156,8.12192368 C4.15255743,8.40747489 3.85350412,9.26861965 3.25707101,10.1439058 C3.95306703,9.92822023 4.5952325,9.71696526 4.95001258,9.5696934 C4.95001258,9.5696934 5.0892247,9.51604667 5.30582304,9.4257592 L5.32261046,9.41785297 C4.65965947,8.9006545 4.39456436,8.32983581 4.30758002,8.09417433 Z M4.34546947,6.90929757 L4.09743107,7.06499704 C3.85977997,7.21649502 3.62446971,7.37222342 3.3887342,7.52943057 C3.37016106,7.55551908 3.35135743,7.58000672 3.33241987,7.60438142 C3.20113647,7.77329331 3.06245547,7.9356082 2.91860256,8.09275117 C2.63108888,8.40724528 2.32253526,8.70049131 2.00059552,8.97663638 L1.74592871,9.18848813 L1.50509824,9.37752406 L1.65339652,9.27931271 C1.84143204,9.15290937 2.02978929,9.02657087 2.21942583,8.90237516 L2.29259391,8.83960958 C2.30012219,8.80194387 2.30564247,8.78136854 2.30564247,8.78136854 L2.383,8.764 L2.51841157,8.64981294 C2.64930538,8.53900045 2.77946543,8.42732413 2.9088832,8.31479129 C3.16711071,8.09007715 3.4193657,7.86033521 3.66323033,7.62356394 C3.89942916,7.39401994 4.12699956,7.15576604 4.34546947,6.90929757 Z M6.02169517,7.43249997 L5.93925367,7.4625585 L5.92664,7.35440016 C6.02468987,7.90535935 5.87741364,8.65667616 5.71378012,9.25014102 C6.30135533,8.99048793 7.08263726,8.6100252 7.49343559,8.26450956 C7.35832655,8.19957504 7.18213396,8.10417792 6.99770795,8.00080304 L6.70119212,7.8321242 C6.40948224,7.66407726 6.14019011,7.50352797 6.02169517,7.43249997 Z M5.67090864,7.55902719 L5.58072652,7.59219658 C5.22946901,7.72133582 4.8804459,7.85617689 4.53394363,7.99870767 C4.60548733,8.44358327 4.98867283,8.8471095 5.46129103,9.18596111 C5.69026954,8.38264561 5.68708456,7.80123083 5.67090864,7.55902719 Z M4.95251112,6.65688062 L4.92500164,6.69143421 C4.81234034,6.82422275 4.69972708,6.95348862 4.58107725,7.08182578 C4.34529874,7.33819589 4.09336399,7.57962668 3.82970837,7.80591 C3.62471762,7.98207004 3.41190029,8.14823377 3.19352408,8.30577235 C3.37066083,8.20267544 3.55173275,8.10637716 3.73590936,8.01629329 C4.23621211,7.79906571 4.73285045,7.6018748 5.23372143,7.41300534 C5.2549246,7.3945824 5.27569781,7.37572637 5.29623346,7.35664444 L5.26327375,7.28079243 C5.22211754,7.187354 5.17955246,7.09454249 5.13559308,7.00238964 C5.07781436,6.88216364 5.01760107,6.76717911 4.95251112,6.65688062 Z M7.41817218,6.96488473 L7.33146426,6.99221016 C7.13518317,7.05512012 6.93949005,7.11954394 6.74442716,7.18515201 L6.20856584,7.36705507 C6.52205362,7.56167998 7.18685311,7.96288988 7.52587069,8.1670853 C7.52055208,7.77813745 7.49080599,7.36320066 7.41817218,6.96488473 Z M4.28114335,5.83068145 L4.26169944,5.89742505 C4.23015556,6.00331322 4.19231891,6.10691166 4.15204842,6.20889287 C4.11184198,6.31095414 4.06675184,6.41067765 4.01852333,6.5083516 C3.99446698,6.55712323 3.96960206,6.60549185 3.94393886,6.65343744 L3.90442523,6.72452163 L3.8220866,6.86495759 L3.80125483,6.89887127 L3.78333726,6.93369763 C3.75720548,6.98288688 3.72974469,7.02969031 3.70156335,7.07609344 C3.65162212,7.15780517 3.59937015,7.23746568 3.5452731,7.31551301 L3.57319416,7.28753353 C3.71028996,7.1625429 3.8510045,7.04153928 3.99394472,6.92306558 C4.23725176,6.72210831 4.48842351,6.53046148 4.74572996,6.34715194 L4.786,6.404 L4.74200146,6.34118147 C4.66560703,6.23971087 4.58285993,6.1418341 4.49326677,6.04547314 C4.42453532,5.97195056 4.35380093,5.90032641 4.28114335,5.83068145 Z M7.41797969,5.31792387 C7.32322553,5.45691542 7.22255882,5.59117954 7.11774981,5.72101949 C7.03349127,5.82584842 6.94693546,5.92880996 6.85814526,6.0298293 L6.72618935,6.17786138 L6.59540233,6.32597351 C6.42038983,6.52322686 6.24449666,6.72525182 6.05102217,6.91406677 C5.92918056,7.03364151 5.8013876,7.14690309 5.66814994,7.25342842 C5.9930666,7.13214167 6.32231509,7.01432201 6.65644055,6.89539664 C7.09000286,6.73599893 7.52717657,6.58971079 7.96771444,6.45383379 L8.62909824,6.25652406 L8.50880953,6.15394223 C8.38175748,6.04845673 8.25008446,5.94467683 8.12520057,5.84296782 C7.93817897,5.69002002 7.74529694,5.54326891 7.54609012,5.40461994 L7.41797969,5.31792387 Z M6.948,5.452 L6.96441772,5.44421792 C6.55110826,5.64699444 6.14293253,5.8601909 5.73985851,6.08354715 L5.23909824,6.36752406 L5.27240767,6.42395545 C5.35270046,6.57736785 5.40799933,6.74257693 5.43598051,6.90998368 L5.4537198,7.05599402 L5.457,7.201 L5.5251799,7.13500916 C5.64807354,7.01142404 5.76626791,6.88435894 5.87926013,6.75263255 C6.04892458,6.55533117 6.21067905,6.34850257 6.37872628,6.14201023 C6.42040584,6.09016298 6.46347845,6.03929246 6.50624683,5.98805367 C6.54901521,5.93708708 6.59300051,5.88541596 6.63525651,5.83630678 C6.72034493,5.73690352 6.80439256,5.63703591 6.88515771,5.53511874 L6.948,5.452 Z M5.682,4.755 L6.25346344,4.35046182 C5.86609053,4.62269944 5.48087486,4.89799379 5.09785251,5.17631909 L4.52141608,5.59615696 L4.41509824,5.67452406 L4.48472053,5.69900591 C4.55486819,5.7272579 4.62273287,5.76102158 4.68766995,5.8000073 C4.77171869,5.85008297 4.85114907,5.90897019 4.92460084,5.97505649 L5.03,6.079 L5.15843638,5.89965674 C5.20516175,5.83071054 5.24993565,5.76077759 5.29235177,5.68969978 C5.37766436,5.54783237 5.45376998,5.40144954 5.51781847,5.25005492 C5.58157875,5.09861226 5.63537948,4.94299043 5.67600224,4.78322147 L5.682,4.755 Z M10.6884972,4.03417657 L10.615844,4.23782028 C10.5865501,4.31229892 10.5548601,4.38598471 10.5209504,4.45876782 C10.3850716,4.74991625 10.2102992,5.02389969 10.0114607,5.27583443 C9.81252608,5.52810543 9.59147872,5.75965674 9.36141653,5.97783793 L9.29416225,6.03747422 L9.32624895,6.06881822 L9.62997186,5.98911047 C10.3017872,5.81888025 11.2099446,5.63608402 12.3544443,5.44072179 C12.0531687,5.0843885 11.8128983,4.83083837 11.6336329,4.68007137 C11.3426317,4.43474235 11.0231306,4.2223307 10.6884972,4.03417657 Z M10.5667514,3.96712481 L10.5215269,3.98373616 C10.3472189,4.044278 10.1733433,4.10483585 10.0003963,4.16742724 C9.65434231,4.29196953 9.3107862,4.42073903 8.97044852,4.55642576 C8.61315487,4.69821749 8.25920225,4.84703066 7.90866928,5.00293929 L7.833,4.958 L8.15985281,5.15606575 C8.2685451,5.22481581 8.37591039,5.29590563 8.4817265,5.36945732 C8.69150558,5.5161007 8.89393997,5.67410069 9.08573529,5.84428874 L9.1562532,5.76649392 C9.37633983,5.54762421 9.59112645,5.32622459 9.79211062,5.09465726 C9.99327092,4.86320202 10.1799883,4.6209386 10.3482757,4.36296728 C10.4305949,4.23763836 10.5077595,4.1084208 10.5820137,3.97625871 C10.576187,3.97222202 10.5714705,3.96967115 10.5667514,3.96712481 Z M5.9991567,4.55214935 L5.99499575,4.58611223 C5.98899121,4.62745553 5.98080901,4.67424296 5.97269087,4.71729956 C5.964276,4.76115462 5.95511574,4.80486336 5.94521406,4.84840682 C5.90515173,5.02255467 5.85232774,5.19462095 5.78450038,5.36050654 C5.72227481,5.51376473 5.64939369,5.66245236 5.56772093,5.80518409 C5.96871293,5.55756015 6.38264212,5.32988409 6.80616991,5.12182983 L6.97481318,5.0428951 L6.92874271,5.01640602 C6.62793083,4.84598269 6.31733619,4.69131823 5.9991567,4.55214935 Z M4.28368587,3.95595918 L4.26959342,3.9047964 C4.33658814,4.12129631 4.38004504,4.34506573 4.40231791,4.57002005 C4.43194969,4.88915682 4.41419271,5.21009925 4.35524543,5.52015501 L4.40505598,5.4645373 C4.56986876,5.28891634 4.74236736,5.12075702 4.9199258,4.95815391 C5.13891324,4.7586526 5.36609526,4.56828532 5.60009956,4.38681342 C5.17530204,4.21823078 4.73341299,4.07424331 4.28368587,3.95595918 Z M8.00758099,3.12814255 C7.81101069,3.26730574 7.61535856,3.40272026 7.42034691,3.53842301 C7.07602717,3.77673416 6.73290172,4.01446061 6.39124469,4.25379547 C6.64972257,4.35574635 6.90378944,4.46927447 7.15324869,4.59330168 C7.24537314,4.63871804 7.33679089,4.68555071 7.42746946,4.73378288 L7.415,4.755 L7.4590322,4.67931465 C7.53985784,4.52871055 7.61240699,4.37391958 7.6748436,4.21456693 C7.72256262,4.09512637 7.76528794,3.97375077 7.80290856,3.85075548 C7.82177464,3.78911791 7.83955087,3.72715201 7.85622893,3.66488676 L7.86268181,3.64090059 L7.86593227,3.62959604 L7.86958304,3.61809933 L7.88394591,3.57203245 L7.91164689,3.47949839 C7.9454467,3.36364331 7.97775791,3.24687541 8.00758099,3.12814255 Z M8.16295799,3.04504075 L8.1689617,3.11872925 C8.17533453,3.25540873 8.16966624,3.39295287 8.15256529,3.52881573 L8.13807432,3.63046069 L8.12957188,3.68109102 L8.12736221,3.69372459 L8.12462414,3.7065503 L8.11901989,3.73074462 C8.1033674,3.7969496 8.08635895,3.86282664 8.06800527,3.92833422 C8.03143394,4.05973463 7.98942467,4.18956056 7.94208593,4.31747684 C7.89486508,4.44272192 7.84227995,4.56621861 7.7843569,4.68711795 C8.14115742,4.5389491 8.50623196,4.40719582 8.87575283,4.29030427 C9.23032528,4.17853965 9.58896482,4.08030528 9.95091886,3.99795493 L10.1931669,3.9454416 L10.4350982,3.89752406 L10.3181912,3.83863495 L10.1605496,3.7628169 C10.0549176,3.71308325 9.94853305,3.66463056 9.84089956,3.61865976 C9.73320158,3.57255956 9.62466927,3.52843344 9.51535709,3.48630355 C9.40601934,3.44358652 9.29601298,3.40260103 9.18537925,3.36336247 C8.84986849,3.24395839 8.5084367,3.13831794 8.16295799,3.04504075 Z M5.83164123,2.61804504 L5.87531514,2.76052004 C5.92140804,2.92805288 5.95775956,3.09880216 5.98468395,3.27145288 C6.02550964,3.53374163 6.04308021,3.79895456 6.03727944,4.06400272 L6.04677896,4.05673543 C6.44004792,3.77967949 6.8494012,3.5261896 7.27268311,3.29760068 C7.48178189,3.18511974 7.69406748,3.07866873 7.91012621,2.98002211 C7.88400546,2.97256957 7.85723766,2.96591374 7.83044941,2.95932856 C7.37155797,2.84719567 6.90504477,2.75507792 6.43872371,2.6896684 C6.38050363,2.68169436 6.32268385,2.67413664 6.26584082,2.66806804 L6.08532014,2.64827706 L5.83164123,2.61804504 Z M5.69509893,2.60014875 L5.62027756,2.68361521 C5.58272264,2.72374301 5.54459477,2.76333461 5.50590545,2.80237773 C5.35207699,2.95769533 5.19198778,3.10431834 5.027175,3.24541717 C4.86218608,3.38632385 4.69276181,3.52194653 4.51582785,3.6501556 L4.46809824,3.68352406 L4.63853975,3.71773552 C5.00927845,3.79873309 5.37696383,3.89724668 5.73965043,4.0144314 L5.79909824,4.03452406 L5.80718897,3.96109799 C5.82495056,3.73800523 5.82908881,3.51295306 5.82075183,3.28728887 C5.81255362,3.06149658 5.79136069,2.83539829 5.76053676,2.60891333 L5.7244229,2.60469206 L5.69509893,2.60014875 Z M3.80945158,2.27601121 L3.89544644,2.4227979 C3.92740012,2.48269214 3.95747978,2.54352575 3.98635497,2.60483617 C4.02853091,2.69727416 4.06809686,2.79104115 4.10305133,2.88656948 C4.11188123,2.91042483 4.12043761,2.93438053 4.12871876,2.95843188 C4.13763751,2.98445158 4.14565959,3.00502716 4.15422607,3.03123901 C4.17062249,3.08135695 4.18533763,3.13064227 4.19787512,3.18133665 C4.2299551,3.30940253 4.24991158,3.44098294 4.25655776,3.57311087 L4.34755645,3.46460712 C4.49424351,3.29936201 4.65269948,3.14623808 4.81948175,3.00294559 C4.98645617,2.85984524 5.16207713,2.72688057 5.34757758,2.60707787 L5.41709893,2.56314875 L5.36389393,2.55678979 C5.24381102,2.53985497 5.12381617,2.52204549 5.00389337,2.50363955 C4.60406712,2.4405119 4.20495372,2.36837337 3.80945158,2.27601121 Z M2.91845845,2.01874443 L2.97357218,2.05546023 L2.99456407,2.07095996 L3.01265777,2.08477843 L3.04734003,2.11204707 C3.09191008,2.14786636 3.1355263,2.18485658 3.17814306,2.22297906 C3.3473912,2.37328486 3.49937827,2.53872211 3.63869976,2.71509565 C3.72405979,2.8224015 3.80301004,2.93491865 3.87590345,3.05149005 L3.87060334,3.03112692 L3.85500753,2.95918445 L3.79228804,2.66995748 C3.76335009,2.53123596 3.73299977,2.39258793 3.7061455,2.25067892 C3.66287687,2.24088702 3.61831301,2.22977863 3.57380262,2.21838358 C3.4558253,2.18768834 3.33826429,2.15511968 3.22134377,2.11982896 L3.04653542,2.06462116 L2.91845845,2.01874443 Z M5.63969008,1.66708613 C5.4772559,1.789415 5.16913122,2.03073595 5.0249729,2.14394633 C5.03295132,2.14388366 5.03962231,2.14441869 5.04629347,2.14495198 C5.28490613,2.1646469 5.52398314,2.18033878 5.76309217,2.19591857 L5.93588984,2.20679066 C5.82224502,2.06139162 5.72382652,1.87208057 5.63969008,1.66708613 Z M3.2579309,1.06321826 L3.22555212,1.08384613 L4.19151136,2.06404784 L4.53339315,2.0997978 C4.67977984,2.06311424 5.34363886,1.69576905 5.59843236,1.55307443 C5.58766573,1.53387054 5.57979398,1.51248695 5.57206647,1.49102366 L5.59886878,1.49235266 C5.26097588,1.4662002 3.59049641,1.32485584 3.2579309,1.06321826 Z M3.14855213,1.1325954 C2.65200959,1.45583428 2.60376192,1.67075838 2.62595309,1.77737117 L2.5769679,1.76005257 C2.68794792,1.79950644 2.80235454,1.83125848 2.91783398,1.85881534 C3.14908106,1.91333662 3.38378676,1.95613703 3.62007766,1.99024285 L3.812,2.015 L3.14855213,1.1325954 Z M5.23939968,0.139705774 C4.5009686,0.379199099 3.44320775,0.9579733 3.44320775,0.9579733 L3.42434003,0.965820887 C3.78201983,1.03581558 5.09405434,1.29060019 5.52609124,1.34692389 C5.32688508,0.748610927 5.23939968,0.139705774 5.23939968,0.139705774 Z" id="形状结合"></path>
            </g>
        </g>
    </g>
</svg>