<?xml version="1.0" encoding="UTF-8"?>
<svg width="16px" height="16px" viewBox="0 0 16 16" version="1.1" xmlns="http://www.w3.org/2000/svg" xmlns:xlink="http://www.w3.org/1999/xlink">
    <title>my-follow-up-third-menu</title>
    <g id="my-follow-up-third-menu" stroke="none" stroke-width="1" fill="none" fill-rule="evenodd">
        <g id="notification-group备份" transform="translate(8.000001, 8.000000) scale(-1, 1) translate(-8.000001, -8.000000) translate(1.000002, 1.000000)">
            <path d="M8.89763296,8.01098481 C10.1442793,8.01434207 11.271545,8.52268477 12.0863098,9.34184976 C12.9010745,10.1610147 13.4033384,11.291002 13.3999791,12.538942 C13.3998484,12.7822485 13.3762146,12.9652177 13.3022144,13.0838619 L7.73719076,13.1084308 C8.20506355,12.3500248 8.475,11.4565315 8.475,10.5 C8.475,9.60952702 8.24104175,8.77370235 7.83125359,8.05062704 L7.807,8.01 Z M8.16664564,0.6 C8.96746856,0.6 9.69246972,0.924586591 10.2172644,1.44938127 C10.7420591,1.97417593 11.0666456,2.69917709 11.0666456,3.5 C11.0666456,4.30082292 10.7420591,5.02582408 10.2172644,5.55061875 C9.69246971,6.07541341 8.96746855,6.4 8.16664564,6.4 C7.36582272,6.4 6.64082157,6.07541342 6.1160269,5.55061875 C5.59123223,5.02582408 5.26664564,4.30082292 5.26664564,3.5 C5.26664564,2.69917709 5.59123223,1.97417593 6.1160269,1.44938126 C6.64082157,0.92458659 7.36582272,0.6 8.16664564,0.6 Z" id="形状结合" stroke="#262626" stroke-width="1.2"></path>
            <path d="M3.5,7 C5.43299662,7 7,8.56700338 7,10.5 C7,12.4329966 5.43299662,14 3.5,14 C1.56700338,14 0,12.4329966 0,10.5 C0,8.56700338 1.56700338,7 3.5,7 Z M3.58851314,8.58506308 C3.48946241,8.53617862 3.36953724,8.57684642 3.32065278,8.67589716 L2.90364399,9.52084925 C2.87451159,9.57987795 2.81819847,9.62079182 2.75305644,9.63025751 L1.82059644,9.76575188 C1.77706903,9.77207678 1.73684055,9.79257422 1.70613883,9.82407095 C1.62903859,9.90316766 1.63065705,10.0297903 1.70975377,10.1068906 L2.38448816,10.764594 C2.43162538,10.8105415 2.45313507,10.8767415 2.44200749,10.9416203 L2.2827243,11.8703126 C2.27528893,11.9136641 2.28235187,11.9582577 2.30281968,11.9971898 C2.35421984,12.0949587 2.47514528,12.132548 2.5729142,12.0811479 L3.40693177,11.6426789 C3.46519658,11.6120472 3.53480342,11.6120472 3.59306823,11.6426789 L4.4270858,12.0811479 C4.4660179,12.1016157 4.51061152,12.1086786 4.55396304,12.1012432 C4.66283033,12.082571 4.7359479,11.9791798 4.7172757,11.8703126 L4.55799251,10.9416203 C4.54686493,10.8767415 4.56837462,10.8105415 4.61551184,10.764594 L5.29024623,10.1068906 C5.32174296,10.0761888 5.3422404,10.0359604 5.3485653,9.99243295 C5.36444882,9.88312398 5.28871253,9.7816354 5.17940356,9.76575188 L4.24694356,9.63025751 C4.18180153,9.62079182 4.12548841,9.57987795 4.09635601,9.52084925 L3.67934722,8.67589716 C3.65988117,8.63645463 3.62795567,8.60452913 3.58851314,8.58506308 Z" id="形状结合" fill="#262626"></path>
        </g>
    </g>
</svg>