<?xml version="1.0" encoding="UTF-8"?>
<svg width="16px" height="16px" viewBox="0 0 16 16" version="1.1" xmlns="http://www.w3.org/2000/svg" xmlns:xlink="http://www.w3.org/1999/xlink">
    <title>my submission-third menu</title>
    <g id="my-submission-third-menu" stroke="none" stroke-width="1" fill="none" fill-rule="evenodd">
        <rect id="矩形备份-49" fill-opacity="0.1" fill="#FFFFFF" opacity="0" x="0" y="0" width="16" height="16"></rect>
        <g id="数据审批" transform="translate(1.611284, 1.495309)" fill="#262626" fill-rule="nonzero">
            <path d="M11.687614,11.2131161 C12.6271424,11.2131161 13.3887162,12.0080311 13.3887162,12.9890661 L13.3887162,13.1033011 C13.3887162,13.465837 12.7192294,13.5014022 11.8615224,13.5044317 L10.2666791,13.5040133 C9.48167688,13.4989985 8.88871624,13.4568864 8.88871624,13.1033011 L8.88871624,12.9890661 C8.88871624,12.0080311 9.65034124,11.2131161 10.5899719,11.2131161 L11.687614,11.2131161 Z M8.05422093,0.000238472952 L8.66385801,0.0100316107 L10.1,0.0331790346 C10.9836556,0.0331790346 11.7,0.749523435 11.7,1.63317903 L11.7,6.11547387 C11.7,6.44684472 11.4313708,6.71547387 11.1,6.71547387 C10.7686292,6.71547387 10.5,6.44684472 10.5,6.11547387 L10.5,1.63317903 C10.5,1.41226513 10.3209139,1.23317903 10.0903629,1.23310164 L9.254,1.21895421 L9.25422093,2.41206329 C9.25422093,2.81990434 8.94903278,3.15646487 8.55457123,3.20583016 L8.45422093,3.21206329 L3.21141625,3.21206329 C2.76958845,3.21206329 2.41141625,2.85389109 2.41141625,2.41206329 L2.411,1.21895421 L1.6,1.23317903 C1.40670034,1.23317903 1.24542508,1.37029183 1.20812658,1.55256508 L1.2,1.63317903 L1.2,11.883179 C1.2,12.1040929 1.3790861,12.283179 1.6,12.283179 L6.86254194,12.283179 C7.19391279,12.283179 7.46254194,12.5518082 7.46254194,12.883179 C7.46254194,13.2145499 7.19391279,13.483179 6.86254194,13.483179 L1.6,13.483179 C0.7163444,13.483179 0,12.7668346 0,11.883179 L0,1.63317903 C0,0.749523435 0.7163444,0.0331790346 1.59012835,0.033260248 L3.0015446,0.0100354246 L3.61141625,0 L3.611,2.01195421 L8.054,2.01195421 L8.05422093,0.000238472952 Z M11.0836935,8.00469105 C11.8110571,8.00469105 12.4006594,8.62030605 12.4006594,9.37947105 C12.4006594,10.1389661 11.8110571,10.7545811 11.0836935,10.7545811 C10.3562787,10.7545811 9.76667646,10.1389661 9.76667646,9.37947105 C9.76667646,8.62008605 10.3564833,8.00469105 11.0836935,8.00469105 Z M6.34300195,6.95469105 L6.34300195,8.15469105 L2.38871624,8.15469105 L2.38871624,6.95469105 L6.34300195,6.95469105 Z M9.30871624,4.75469105 L9.30871624,5.95469105 L2.38871624,5.95469105 L2.38871624,4.75469105 L9.30871624,4.75469105 Z M7.18871624,0.134691053 L7.18871624,1.33469105 L4.38871624,1.33469105 L4.38871624,0.134691053 L7.18871624,0.134691053 Z" id="形状结合"></path>
        </g>
    </g>
</svg>