<?xml version="1.0" encoding="UTF-8"?>
<svg width="16px" height="16px" viewBox="0 0 16 16" version="1.1" xmlns="http://www.w3.org/2000/svg" xmlns:xlink="http://www.w3.org/1999/xlink">
    <title>my task</title>
    <g id="my-task" stroke="none" stroke-width="1" fill="none" fill-rule="evenodd">
        <rect id="矩形" fill="#000000" opacity="0" x="0" y="0" width="16" height="16"></rect>
        <path d="M6.68508374,0.4 C8.77058395,0.4 10.4611881,2.0906287 10.4611881,4.17613774 C10.4611881,5.90645145 9.29740686,7.36493917 7.70987909,7.81154647 L7.8378755,7.81097301 C8.74222139,7.81097301 9.59642214,7.95855952 10.3726255,8.24431783 C10.6835925,8.35879995 10.842875,8.70369461 10.7283929,9.01466163 C10.6139108,9.32562864 10.2690161,9.48491113 9.9580491,9.37042901 C9.31667593,9.13430828 8.60283646,9.01097301 7.8378755,9.01097301 L6.68493651,9.01097301 C3.7953418,9.01097301 1.73820529,10.7899059 1.60179221,13.2171387 C1.57107003,13.7638145 1.9325407,14.1632112 2.45009142,14.1632112 L9.28167942,14.1632112 C9.61305027,14.1632112 9.88167942,14.4318403 9.88167942,14.7632112 C9.88167942,15.094582 9.61305027,15.3632112 9.28167942,15.3632112 L2.45009142,15.3632112 C1.23114316,15.3632112 0.334942609,14.37298 0.403682772,13.1498054 C0.562947941,10.3159594 2.76977982,8.18625653 5.84105729,7.85570588 C4.16175362,7.47403193 2.90895975,5.97138694 2.90895975,4.17613774 C2.90895975,2.0906344 4.59958765,0.4 6.68508374,0.4 Z M12,9 C13.6568542,9 15,10.3431458 15,12 C15,13.6568542 13.6568542,15 12,15 C10.3431458,15 9,13.6568542 9,12 C9,10.3431458 10.3431458,9 12,9 Z M12,10 C10.8954305,10 10,10.8954305 10,12 C10,13.1045695 10.8954305,14 12,14 C13.1045695,14 14,13.1045695 14,12 C14,10.8954305 13.1045695,10 12,10 Z M12.5,10.5 L12.5,11.75 L13.362055,12.6551577 L13.7068973,13.0172127 L12.9827873,13.7068973 L12.637945,13.3448423 L11.637945,12.2949276 C11.5493928,12.2019553 11.5,12.0784806 11.5,11.9500853 L11.5,10.5 L12.5,10.5 Z M6.68508374,1.6 C5.26233038,1.6 4.10895975,2.75337506 4.10895975,4.17613774 C4.10895975,5.59889085 5.26233063,6.75226174 6.68508374,6.75226174 C8.1078381,6.75226174 9.26118811,5.59889942 9.26118811,4.17613774 C9.26118811,2.7533665 8.10783836,1.6 6.68508374,1.6 Z" id="形状结合" fill="#262626" fill-rule="nonzero"></path>
    </g>
</svg>