<?xml version="1.0" encoding="UTF-8"?>
<svg width="16px" height="16px" viewBox="0 0 16 16" version="1.1" xmlns="http://www.w3.org/2000/svg" xmlns:xlink="http://www.w3.org/1999/xlink">
    <title>Mysql-third menu</title>
    <g id="Mysql-third-menu" stroke="none" stroke-width="1" fill="none" fill-rule="evenodd">
        <g id="Mysql">
            <rect id="矩形" x="0" y="0" width="16" height="16"></rect>
            <g id="MysQL">
                <rect id="矩形备份" x="0" y="0" width="16" height="16"></rect>
            </g>
            <path d="M8.64519204,2.20556184 C9.27243518,2.20556184 9.63682167,2.2885723 9.89219223,2.66226258 C10.1758583,3.07735837 10.0749052,3.5509233 9.71971116,4.208889 L9.66352288,4.29455935 L9.565,4.43056184 L9.76654376,4.5664636 C10.4597849,5.05414405 11.0430914,5.61105218 11.5173588,6.25417795 L11.713943,6.53513144 C11.8971037,6.8112814 11.821721,7.18362626 11.545571,7.36678695 C11.2694211,7.54994764 10.8970762,7.47456494 10.7139155,7.19841497 C10.2994686,6.57355658 9.76545571,6.03724349 9.10316612,5.56706697 L8.847,5.39256184 L8.79315937,5.36627719 L8.70940701,5.31280834 L8.62460513,5.24499196 C8.2056619,4.87241316 8.20190703,4.2941364 8.62316291,3.68427749 L8.68,3.60556184 L8.74603598,3.47770891 L8.778,3.40656184 L8.64519204,3.40556184 C8.13687861,3.40556184 7.7335111,3.61419458 7.50402907,3.99748288 L7.44046996,4.11767506 C7.40626592,4.19134529 7.35746021,4.25730384 7.29701042,4.31155365 L6.96908652,4.60584433 C6.88987203,4.67693426 6.79317258,4.7256728 6.68890716,4.74706058 L6.45413709,4.80232723 C6.35481922,4.8277888 6.23580081,4.86036015 6.10116387,4.90025258 C5.65125544,5.03355878 5.20191628,5.19946863 4.78696227,5.39807909 C4.27161435,5.64474135 3.84983731,5.92352275 3.49279666,6.28148748 C3.37956363,6.36928663 3.18839009,6.55268744 2.99632564,6.80760631 C2.64473824,7.27425311 2.46317954,7.7702756 2.51906153,8.2717807 C2.53842656,8.4455694 2.48096028,8.61726605 2.3650158,8.74371014 L2.28857856,8.813801 C2.17207825,8.90341662 2.10708267,9.03526238 2.10014651,9.1812875 L2.102,9.22556184 L2.12546309,9.21873716 L2.21532508,9.17796274 L2.36945748,9.09420722 L4.152,8.22056184 L4.19250593,8.19624637 C4.54891649,8.00116971 4.94465907,8.07214961 5.2312042,8.32093838 L5.31374329,8.40082103 C5.56731155,8.67389454 5.82967056,8.82525551 6.11987221,8.86460044 C6.15598641,8.86773573 6.19859127,8.86701756 6.23718461,8.86158648 L6.296,8.84756184 L6.29626458,8.57365915 C6.29626458,8.07150113 6.66519323,7.78455622 7.0682524,7.7433822 L7.16953449,7.7382266 C7.64269098,7.7382266 8.00078975,7.80250074 8.81427387,7.99797578 C9.51268925,8.20310478 10.1538711,8.61032479 10.6698337,9.1659768 C11.078084,9.60563107 11.4769281,10.0987886 11.8156011,10.5850883 C11.9671832,10.8027448 11.9578679,11.094103 11.7926918,11.3016321 C11.5005861,11.6686366 11.255645,12.090689 11.0729273,12.5294446 L11.062,12.5715618 L11.1018598,12.4972668 C11.3231007,12.1133071 11.6567395,11.8554164 12.0886838,11.7206618 L12.2552434,11.6758951 C12.5658573,11.6050889 12.8443462,11.6152298 13.1480057,11.6897524 L13.3786236,11.7564887 L13.6793722,11.8638336 L13.7134389,11.8742482 C13.7630246,11.8884882 13.8114147,11.8977135 13.8524169,11.9010583 L13.872,11.9005618 L13.8555147,11.8688683 C13.8107098,11.7929745 13.7406732,11.7002631 13.6426297,11.5935923 L13.5351477,11.4823742 C13.1966142,11.1633715 12.8119312,10.9677421 12.3446372,10.8670942 C12.0969694,10.8137503 11.9094967,10.6105931 11.8761813,10.3594457 C11.84295,10.1089333 11.7975172,9.86020182 11.7401825,9.61445473 C11.6648932,9.29175031 11.8654627,8.96911257 12.1881671,8.89382318 C12.5108715,8.81853379 12.8335093,9.0191033 12.9087987,9.34180773 L12.9703776,9.62652353 L13.002,9.80456184 L13.0871706,9.832022 C13.4814192,9.97153099 13.8414636,10.1734152 14.1727686,10.4463512 L14.3681465,10.6187085 C14.8968511,11.1406348 15.1221795,11.5965171 15.0991391,11.9792158 L15.078,12.1175618 L15.0455996,12.2496233 C14.8915335,12.7618407 14.5002397,13.0551045 14.0102203,13.0971614 C13.7956154,13.1155802 13.5857436,13.0860798 13.3822114,13.0276295 L13.2178653,12.9731966 C13.2074708,12.9690671 13.2004038,12.9659341 13.1973697,12.9641548 L12.9729259,12.8865487 C12.7805324,12.8259043 12.6605321,12.8142907 12.5219487,12.8458816 C12.3030493,12.895781 12.1923701,12.9806908 12.1126014,13.1525004 C11.8573786,13.7022111 11.4278097,13.8823458 10.8860054,13.8823458 L10.7799757,13.8729029 C10.2318464,13.7744908 9.91826343,13.3842473 9.85790184,12.8913682 C9.83429575,12.6986141 9.84963495,12.5095607 9.888025,12.3268981 C9.90361009,12.2527431 9.92015193,12.193254 9.94880311,12.1116872 C10.0925863,11.7632895 10.2586751,11.4368464 10.4471092,11.1327215 L10.582,10.9275618 L10.3347992,10.6114517 L10.0663109,10.2903465 L9.79048146,9.98251812 C9.41831681,9.58172541 8.96240029,9.29216897 8.50554556,9.15718195 L8.04261942,9.05073471 C7.86490663,9.01241927 7.72010885,8.98550571 7.59038127,8.96763108 L7.496,8.95556184 L7.49626458,8.9856661 L7.47425687,9.14667824 C7.35317083,9.58134607 7.05015895,9.86510302 6.66078648,9.991321 C6.43286388,10.0652038 6.20976489,10.0780734 6.00499613,10.0586565 L5.94175364,10.0511676 C5.49918362,9.99159085 5.09435162,9.8015344 4.73315944,9.50125999 L4.568,9.35256184 L2.93208587,10.1533934 C2.32026467,10.5047984 1.75837113,10.4904319 1.35101603,10.189602 L1.25245735,10.1084724 C1.12532892,9.99230845 1.04428585,9.87212351 0.995968835,9.7680561 L0.960237281,9.66925014 C0.824446037,9.1574216 0.918375691,8.61961238 1.22454297,8.20204707 L1.311,8.09456184 L1.31022203,7.98640982 C1.331405,7.36770829 1.55283357,6.78886806 1.91285276,6.25994646 L2.03790756,6.08550189 C2.30186046,5.73516859 2.56670426,5.48109279 2.69553965,5.38846668 C3.10183494,4.97175356 3.63650261,4.61835499 4.26888834,4.31567464 C4.74661605,4.08701864 5.25372159,3.89977967 5.76025787,3.74969484 C5.91255434,3.70456996 6.04858786,3.66738352 6.16447004,3.63780184 L6.283,3.60856184 L6.413,3.49156184 L6.43566717,3.44805554 C6.84961333,2.70325758 7.59156648,2.26639907 8.45775331,2.21146149 L8.64519204,2.20556184 Z M3.54456189,7.5 C3.73485817,7.5 3.88912378,7.65426561 3.88912378,7.84456189 C3.88912378,8.03485817 3.73485817,8.18912378 3.54456189,8.18912378 C3.35426561,8.18912378 3.2,8.03485817 3.2,7.84456189 C3.2,7.65426561 3.35426561,7.5 3.54456189,7.5 Z" id="形状结合" fill="#262626" fill-rule="nonzero"></path>
        </g>
    </g>
</svg>