<?xml version="1.0" encoding="UTF-8"?>
<svg width="16px" height="16px" viewBox="0 0 16 16" version="1.1" xmlns="http://www.w3.org/2000/svg" xmlns:xlink="http://www.w3.org/1999/xlink">
    <title>Namespaces</title>
    <g id="Namespaces" stroke="none" stroke-width="1" fill="none" fill-rule="evenodd">
        <rect id="矩形" fill="#000000" opacity="0" x="0" y="0" width="16" height="16"></rect>
        <path d="M8.3,0.480384758 L14.3621778,3.98038476 C14.5478185,4.08756443 14.6621778,4.28564065 14.6621778,4.5 L14.6621778,11.5 C14.6621778,11.7143594 14.5478185,11.9124356 14.3621778,12.0196152 L8.3,15.5196152 C8.11435935,15.6267949 7.88564065,15.6267949 7.7,15.5196152 L1.63782217,12.0196152 C1.45218153,11.9124356 1.33782217,11.7143594 1.33782217,11.5 L1.33782217,4.5 C1.33782217,4.28564065 1.45218153,4.08756443 1.63782217,3.98038476 L7.7,0.480384758 C7.88564065,0.373205081 8.11435935,0.373205081 8.3,0.480384758 Z M8,1.692 L4.00382217,3.999 L7.21533333,4 L7.21533333,4.8316 L6.14853333,4.8316 L6.14853333,11.3117333 L7.21533333,11.3117333 L7.21533333,12.1433333 L4.25182217,12.143 L8,14.307 L11.7478222,12.143 L11.6307467,12.1430533 L11.6307467,10.5843867 L12.9374133,10.5843867 L12.9368222,11.456 L13.462,11.153 L13.462,4.846 L8,1.692 Z M9.98341333,10.5843867 L9.98341333,12.1430533 L8.67674667,12.1430533 L8.67674667,10.5843867 L9.98341333,10.5843867 Z M3.99982217,4.001 L2.537,4.846 L2.537,11.153 L3.99982217,11.998 L4,11.3117333 L5.06586667,11.3117333 L5.06586667,4.8316 L4,4.8316 L3.99982217,4.001 Z" id="形状结合" fill="#262626" fill-rule="nonzero"></path>
        <g id="编组-30" transform="translate(4.000000, 4.000000)"></g>
    </g>
</svg>