<?xml version="1.0" encoding="UTF-8"?>
<svg width="16px" height="16px" viewBox="0 0 16 16" version="1.1" xmlns="http://www.w3.org/2000/svg" xmlns:xlink="http://www.w3.org/1999/xlink">
    <title>nat-gateway-third-menu</title>
    <g id="nat-gateway-third-menu" stroke="none" stroke-width="1" fill="none" fill-rule="evenodd">
        <rect id="矩形" fill="#D8D8D8" opacity="0" x="0" y="0" width="16" height="16"></rect>
        <g id="nat-NAT网关" transform="translate(1.000000, 0.784668)">
            <rect id="矩形" fill="#D8D8D8" opacity="0" x="0.78466824" y="0" width="12.5546918" height="12.5546918"></rect>
            <path d="M9.74417262,1.79776753 L9.753,5.53076753 L13.1240283,5.53100708 C13.6763131,5.53100708 14.1240283,5.97872233 14.1240283,6.53100708 L14.1240283,10.0236848 C14.1240283,10.5759695 13.6763131,11.0236848 13.1240283,11.0236848 L10.767,11.0230071 L11.533,9.82300708 L12.924,9.82300708 L12.924,6.73100708 L9.756,6.73076753 L9.76267041,9.36189628 L11.0407271,9.36189628 L8.56267041,13.2153318 L8.552,6.73076753 L5.308,6.73076753 L5.30800944,12.4738739 L4.10800944,12.4738739 L4.108,6.73076753 L1.2,6.73100708 L1.2,9.82300708 L3.138,9.82300708 L3.138,11.0230071 L1,11.0236848 C0.44771525,11.0236848 0,10.5759695 0,10.0236848 L0,6.53100708 C0,5.97872233 0.44771525,5.53100708 1,5.53100708 L4.108,5.53076753 L4.10800944,4.53479201 L2.45914369,4.53479201 L5.30800944,1.81533176 L5.308,5.53076753 L8.55,5.53076753 L8.54417262,1.79776753 L9.74417262,1.79776753 Z M7.443,9.82300708 L7.443,11.0230071 L6.277,11.0230071 L6.277,9.82300708 L7.443,9.82300708 Z" id="形状结合" fill="#262626" fill-rule="nonzero"></path>
        </g>
    </g>
</svg>