<?xml version="1.0" encoding="UTF-8"?>
<svg width="16px" height="16px" viewBox="0 0 16 16" version="1.1" xmlns="http://www.w3.org/2000/svg" xmlns:xlink="http://www.w3.org/1999/xlink">
    <title>network-third menu</title>
    <g id="network-third-menu" stroke="none" stroke-width="1" fill="none" fill-rule="evenodd">
        <g id="图形">
            <rect id="安全区" fill="#D8D8D8" opacity="0" x="0" y="0" width="16" height="16"></rect>
            <g id="形状" transform="translate(2.385480, 1.617409)" fill="#262626" fill-rule="nonzero">
                <path d="M5.64342442,3.92397011 C6.42199974,3.92397011 7.05215521,4.55412558 7.05215521,5.3327009 C7.05215519,5.7112973 6.90247755,6.05593321 6.65846525,6.30875008 C6.5666462,6.40434254 6.52639674,6.53766885 6.55155265,6.66722176 L7.06473315,9.30733418 L7.22195758,10.1060342 L7.76532516,12.9033711 C7.81437919,13.1511568 7.62319429,13.3825911 7.37037742,13.3825911 L3.918987,13.3825911 C3.66617013,13.3825911 3.47624305,13.1524145 3.52403926,12.9033711 L4.06740685,10.1060342 L4.22211568,9.30733418 L4.73529618,6.66722176 C4.76045209,6.53766883 4.71894484,6.40434253 4.62712578,6.30875008 C4.38437127,6.05593322 4.23469363,5.7112973 4.23469363,5.3314431 C4.23595142,4.56544573 4.85730232,3.93403247 5.62329969,3.92397011 Z M5.61451995,0 C8.7153337,0 11.2290399,2.51370621 11.2290399,5.61451995 C11.2290399,7.13372772 10.6221414,8.55792525 9.56366495,9.60539618 C9.36738506,9.79963525 9.0508069,9.79798084 8.85656783,9.60170095 C8.66232875,9.40542106 8.66398316,9.0888429 8.86026305,8.89460382 C9.73082689,8.03309166 10.2290399,6.86394442 10.2290399,5.61451995 C10.2290399,3.06599096 8.16304895,1 5.61451995,1 C3.06599096,1 1,3.06599096 1,5.61451995 C1,6.84745015 1.48505332,8.00242835 2.33533518,8.86117135 C2.52962823,9.0573978 2.5280609,9.37397641 2.33183444,9.56826946 C2.13560798,9.76256251 1.81902937,9.76099518 1.62473632,9.56476872 C0.590886594,8.52063118 0,7.1136495 0,5.61451995 C0,2.51370621 2.51370621,0 5.61451995,0 Z M5.61451995,1.75 C7.58546515,1.75 9.18323192,3.34776677 9.18323192,5.31871197 C9.18323192,6.28419329 8.7973557,7.18972187 8.12468733,7.85539618 C7.92840744,8.04963525 7.61182928,8.04798084 7.41759021,7.85170095 C7.22335113,7.65542106 7.22500554,7.3388429 7.42128543,7.14460382 C7.90604122,6.66488828 8.18323192,6.01440999 8.18323192,5.31871197 C8.18323192,3.90005152 7.0331804,2.75 5.61451995,2.75 C4.1958595,2.75 3.04580798,3.90005152 3.04580798,5.31871197 C3.04580798,6.00523022 3.31567332,6.64781644 3.78912886,7.12598333 C3.98342191,7.32220979 3.98185458,7.6387884 3.78562812,7.83308145 C3.58940166,8.0273745 3.27282305,8.02580716 3.07853,7.82958071 C2.42150659,7.16601927 2.04580798,6.27142957 2.04580798,5.31871197 C2.04580798,3.34776677 3.64357475,1.75 5.61451995,1.75 Z" id="形状结合"></path>
            </g>
        </g>
    </g>
</svg>