<?xml version="1.0" encoding="UTF-8"?>
<svg width="16px" height="16px" viewBox="0 0 16 16" version="1.1" xmlns="http://www.w3.org/2000/svg" xmlns:xlink="http://www.w3.org/1999/xlink">
    <title>Network operation and maintenance</title>
    <g id="Network-operation-and-maintenance" stroke="none" stroke-width="1" fill="none" fill-rule="evenodd">
        <rect id="矩形" fill="#000000" opacity="0" x="0" y="0" width="16" height="16"></rect>
        <path d="M9.57246022,13.7475182 C9.65640147,14.0040732 9.75546308,14.244886 9.86855977,14.465701 C10.0713586,14.8618914 10.3099062,15.1746829 10.5772746,15.3954397 C10.6230464,15.433302 10.6693594,15.4681554 10.7162138,15.5 C9.86687067,15.3282818 9.11431253,14.8830029 8.55073031,14.2580184 C8.65474645,14.1827147 8.76314574,14.1138985 8.87533252,14.0519482 C9.08765402,13.9339813 9.32168095,13.8321888 9.57246022,13.7475182 Z M13.4275398,13.7475182 C13.6785965,13.8321888 13.9125173,13.9339813 14.1246756,14.0519482 C14.2368597,14.1139716 14.3452589,14.1827516 14.4492778,14.2580184 C13.8856956,14.8830029 13.1331293,15.3282236 12.2837944,15.5 C12.3306106,15.4680833 12.376921,15.4332299 12.4227254,15.3954397 C12.690102,15.1749572 12.9285353,14.8618914 13.1314484,14.465701 C13.2445451,14.244886 13.3435496,14.0040732 13.4275398,13.7475182 Z M12.9703694,3.3663161 C12.9986207,3.39262369 12.9986207,3.39262369 13.0268511,3.41893589 C13.2323646,3.6105267 14.1718486,4.49370592 14.3024776,4.61308673 C14.5491252,4.838496 14.5663423,5.2211737 14.340933,5.4678213 C14.2026918,5.61908774 14.0052981,5.68405977 13.8164081,5.65969349 L2.88,5.6596817 C2.72536027,5.6596817 2.6,5.78504197 2.6,5.93968169 L2.6,13.637931 C2.6,14.0197519 2.77041471,14.2633952 2.85714286,14.2633952 L6.76870546,14.2633952 C7.10007631,14.2633952 7.36870546,14.5320244 7.36870546,14.8633952 C7.36870546,15.1947661 7.10007631,15.4633952 6.76870546,15.4633952 L2.85714286,15.4633952 C1.99709715,15.4633952 1.4,14.6097205 1.4,13.637931 L1.4,5.93968169 C1.4,5.42258959 1.66518556,4.9674349 2.06697778,4.70279653 C2.08995164,4.67120828 2.11693142,4.6409463 2.14741596,4.61308673 C2.20821183,4.55752586 2.26222689,4.50667585 2.34374606,4.42607729 L2.49093852,4.27856061 C2.64773121,4.11994466 2.8838956,3.87781184 3.28069965,3.4704806 L3.30318585,3.44740088 C3.5040612,3.24125203 3.66771676,3.07423071 3.80798223,2.93269966 L4.08994317,2.65151641 C4.11818305,2.62377476 4.14560933,2.596987 4.17243807,2.57094006 C4.30788412,2.439441 4.41801189,2.3370427 4.5061857,2.26163754 C4.56171925,2.21414593 4.61060648,2.1754813 4.65723051,2.14344951 C4.7857896,2.05512645 4.87935134,2.00905836 5.05128529,2.00908665 L11.1056691,1.95055556 C11.4480385,1.95055556 11.4757394,1.97484999 12.9703694,3.3663161 Z M11.3259241,13.452738 L11.3259241,15.3843603 C10.8996491,15.3034051 10.4970379,14.9261652 10.1772256,14.3017957 C10.0704604,14.0912353 9.97993846,13.8725338 9.90647899,13.6476706 C10.3462995,13.5320309 10.8268625,13.4653135 11.3259241,13.452738 Z M11.674084,13.4526216 C12.1731457,13.4652054 12.6537087,13.5319146 13.0935292,13.6475626 C13.0200697,13.8724258 12.9295477,14.0911272 12.8227825,14.3016877 C12.5029702,14.9261652 12.100359,15.3034051 11.674084,15.3843603 Z M9.23888209,11.6775904 C9.25193798,12.2877221 9.33206854,12.8753542 9.47241942,13.4082957 C9.19819665,13.5000561 8.94153407,13.6113239 8.70860057,13.7407608 C8.57594348,13.8140585 8.44815587,13.8961518 8.32606283,13.9865107 C7.82305375,13.3223282 7.53446437,12.5156948 7.5,11.6775904 Z M15.5,11.6773743 C15.465558,12.5155122 15.1769705,13.3221833 14.6739453,13.9863944 C14.5518523,13.8959274 14.4240647,13.8138341 14.2914076,13.7405364 C14.0584659,13.6113239 13.8020318,13.5000561 13.5275806,13.4080713 C13.6679315,12.8751297 13.748062,12.2874976 13.7611179,11.6773743 Z M11.3259241,11.6773743 L11.3259241,13.0980476 C10.7929743,13.1109057 10.2782946,13.1828262 9.80627499,13.3081656 C9.6751122,12.8077557 9.59993472,12.2536444 9.5871481,11.6773743 L11.3259241,11.6773743 Z M13.4128519,11.6773743 C13.4000734,12.2539187 13.3248878,12.8075313 13.1937332,13.3081656 C12.7217054,13.1828262 12.2071971,13.1109057 11.674084,13.0980476 L11.674084,11.6773743 Z M7.26870546,10.5007319 L7.26870546,11.5007319 L3.5,11.5007319 L3.5,10.5007319 L7.26870546,10.5007319 Z M9.80627499,9.6919425 C10.2782946,9.81728185 10.7928111,9.88921068 11.3259241,9.90206045 L11.3259241,11.3227421 L9.5871481,11.3227421 C9.59993472,10.746472 9.6751122,10.1923607 9.80627499,9.6919425 Z M13.1937332,9.6919425 C13.3248878,10.1923607 13.4000734,10.746472 13.4128519,11.3227421 L11.674084,11.3227421 L11.674084,9.90206045 C12.2071971,9.88921068 12.7217054,9.81728185 13.1937332,9.6919425 Z M8.32606283,9.01383003 C8.44816214,9.10411204 8.5759496,9.1861303 8.70860057,9.25935552 C8.94153407,9.3887925 9.19819665,9.50006026 9.47241942,9.59182063 C9.33206854,10.1247622 9.25193798,10.7123943 9.23888209,11.3225177 L7.5,11.3225177 C7.53451108,10.4844937 7.82309799,9.67794846 8.32606283,9.01383003 Z M14.6739453,9.01360562 C15.1769499,9.6777869 15.4655363,10.4844171 15.5,11.3225177 L13.7611179,11.3225177 C13.748062,10.7123943 13.6679315,10.1247622 13.5275806,9.59182063 C13.8018115,9.50006026 14.0584659,9.3887925 14.2914076,9.25935552 C14.4240647,9.18605784 14.5518523,9.10396452 14.6739453,9.01360562 Z M11.674084,7.61575604 C12.100359,7.6967113 12.5029702,8.07395115 12.8227825,8.69859492 C12.9295349,8.90906685 13.0200567,9.12767617 13.0935292,9.35244575 C12.6537087,9.46808543 12.1731457,9.53480286 11.674084,9.54737836 Z M11.3259241,7.61575604 L11.3259241,9.54737836 C10.8268625,9.53480286 10.3462995,9.46808543 9.90647899,9.35244575 C9.97993846,9.12758256 10.0704604,8.90888106 10.1772256,8.69832064 C10.4970379,8.07395115 10.8996491,7.6967113 11.3259241,7.61575604 Z M12.2837944,7.5 C13.1331293,7.67171823 13.8856956,8.11700538 14.4492778,8.74208967 C14.3452619,8.81739624 14.2368626,8.88621513 14.1246756,8.94816817 C13.9123541,9.0661351 13.6783272,9.16792761 13.4275398,9.25258985 C13.3436067,8.99604315 13.2445451,8.75528022 13.1314484,8.53441533 C12.9286414,8.13822497 12.690102,7.82543348 12.4227254,7.60467664 C12.3769591,7.56680886 12.3306487,7.53191665 12.2837944,7.5 Z M10.7162138,7.5 C10.6693594,7.53191665 10.6230464,7.56680886 10.5772746,7.60467664 C10.3099062,7.82531711 10.0714729,8.13811692 9.86855977,8.53429897 C9.75546308,8.75517217 9.65645859,8.99592678 9.57246022,9.2524818 C9.32168095,9.16781125 9.08749082,9.06602705 8.87533252,8.94805181 C8.76314574,8.88610146 8.65474645,8.81728535 8.55073031,8.74198162 C9.11431253,8.11700538 9.86687067,7.67177641 10.7162138,7.5 Z M8.5,7.5 L8.5,8.5 L3.55713672,8.5 L3.55713672,7.5 L8.5,7.5 Z M10.929,3.16055556 L5.25155556,3.21655556 L5.23854053,3.22876767 C5.19900048,3.26432005 5.1525378,3.30752364 5.09957084,3.35799207 L5.01529448,3.43909505 C4.96428069,3.48862226 4.91056097,3.54140533 4.85251896,3.5990402 L4.66380972,3.78809622 C4.52720386,3.92596514 4.36684345,4.08962512 4.16979768,4.29184386 L4.1474255,4.31480654 C4.09772748,4.36582305 4.05050473,4.41429487 4.00560026,4.46037954 L12.366729,4.4583708 L12.2996015,4.39547937 L12.2017565,4.30398893 C12.1738202,4.27795091 12.1738202,4.27795091 12.1458802,4.2519332 C11.7559465,3.88891391 11.4460054,3.60581026 11.2102521,3.39904851 C11.1118359,3.31273493 11.0285156,3.24168743 10.9622164,3.18752749 L10.929,3.16055556 Z" id="形状结合" fill="#262626" fill-rule="nonzero"></path>
    </g>
</svg>