<?xml version="1.0" encoding="UTF-8"?>
<svg width="16px" height="16px" viewBox="0 0 16 16" version="1.1" xmlns="http://www.w3.org/2000/svg" xmlns:xlink="http://www.w3.org/1999/xlink">
    <title>NFS-third menu</title>
    <g id="NFS-third-menu" stroke="none" stroke-width="1" fill="none" fill-rule="evenodd">
        <g id="NFS">
            <rect id="矩形" fill="#FFFFFF" opacity="0" x="0" y="0" width="16" height="16"></rect>
            <g id="图形" transform="translate(0.400000, 2.150000)" fill="#262626" fill-rule="nonzero">
                <path d="M13.6,0 C14.4836556,0 15.2,0.7163444 15.2,1.6 L15.2,10.1 C15.2,10.9836556 14.4836556,11.7 13.6,11.7 L1.6,11.7 C0.7163444,11.7 0,10.9836556 0,10.1 L0,1.6 C0,0.7163444 0.7163444,0 1.6,0 L13.6,0 Z M13.6,1.2 L1.6,1.2 C1.3790861,1.2 1.2,1.3790861 1.2,1.6 L1.2,10.1 C1.2,10.3209139 1.3790861,10.5 1.6,10.5 L13.6,10.5 C13.8209139,10.5 14,10.3209139 14,10.1 L14,1.6 C14,1.3790861 13.8209139,1.2 13.6,1.2 Z M11.3650939,3.37880859 C11.9429608,3.37880859 12.3779314,3.50547871 12.6700054,3.75881893 C12.9620795,4.01215916 13.1154445,4.35029508 13.1301006,4.7732267 L12.2004885,4.81405425 C12.1607078,4.57746379 12.0753887,4.40734897 11.9445311,4.30370979 C11.8136736,4.20007061 11.6173873,4.14825102 11.3556721,4.14825102 C11.0855822,4.14825102 10.8741163,4.20373462 10.7212747,4.31470182 C10.6228698,4.38588833 10.5736674,4.48115263 10.5736674,4.60049472 C10.5736674,4.70936821 10.6197293,4.80253879 10.711853,4.88000646 C10.8291013,4.97841134 11.1138474,5.08100366 11.5660911,5.18778343 C12.0183348,5.29456319 12.3528067,5.40500697 12.5695068,5.51911476 C12.7862069,5.63322255 12.9557983,5.78920475 13.078281,5.98706137 C13.2007637,6.184918 13.262005,6.42935991 13.262005,6.72038711 C13.262005,6.98419594 13.1887248,7.231255 13.0421643,7.4615643 C12.8956038,7.69187359 12.6883255,7.86303528 12.4203292,7.97504934 C12.1523329,8.08706341 11.8183845,8.14307044 11.4184838,8.14307044 C10.8364294,8.14307044 10.38942,8.00854888 10.0774556,7.73950574 C9.76549114,7.47046261 9.57914998,7.07841338 9.51843208,6.56335804 L10.4229195,6.47542177 C10.4773562,6.77901129 10.5878,7.00199257 10.7542508,7.14436559 C10.9207016,7.28673861 11.1452532,7.35792512 11.4279055,7.35792512 C11.7273076,7.35792512 11.952906,7.29459006 12.1047008,7.16791995 C12.2564956,7.04124983 12.3323929,6.89311908 12.3323929,6.72352769 C12.3323929,6.61465421 12.3004637,6.52200706 12.2366052,6.44558624 C12.1727467,6.36916543 12.0612561,6.30268979 11.9021333,6.24615933 C11.7932598,6.20847236 11.5451539,6.14147329 11.1578155,6.04516213 C10.65951,5.9216326 10.3098586,5.76983783 10.1088614,5.58977784 C9.82620905,5.33643761 9.68488289,5.02761378 9.68488289,4.66330635 C9.68488289,4.42880961 9.75135852,4.20949235 9.8843098,4.00535457 C10.0172611,3.80121678 10.2088365,3.64575801 10.4590362,3.53897824 C10.7092358,3.43219848 11.0112551,3.37880859 11.3650939,3.37880859 Z M2.84448742,3.45732313 L4.7288362,6.53195223 L4.7288362,3.45732313 L5.59249607,3.45732313 L5.59249607,8.06141533 L4.65974342,8.06141533 L2.80365986,5.0590196 L2.80365986,8.06141533 L1.94,8.06141533 L1.94,3.45732313 L2.84448742,3.45732313 Z M9.36286862,3.45732313 L9.36286862,4.23618729 L7.13619647,4.23618729 L7.13619647,5.32596901 L9.05823223,5.32596901 L9.05823223,6.10483317 L7.13619647,6.10483317 L7.13619647,8.06141533 L6.2065844,8.06141533 L6.2065844,3.45732313 L9.36286862,3.45732313 Z" id="形状结合"></path>
            </g>
        </g>
    </g>
</svg>