<?xml version="1.0" encoding="UTF-8"?>
<svg width="16px" height="16px" viewBox="0 0 16 16" version="1.1" xmlns="http://www.w3.org/2000/svg" xmlns:xlink="http://www.w3.org/1999/xlink">
    <title>Nginx-third menu</title>
    <g id="Nginx-third-menu" stroke="none" stroke-width="1" fill="none" fill-rule="evenodd">
        <g id="编组">
            <rect id="矩形备份-6" opacity="0.446149554" x="0" y="0" width="16" height="16"></rect>
            <path d="M10.9948185,1.275 C11.5217853,1.275 12.0087226,1.55613341 12.272206,2.0125 L13.4598125,4.06949484 C13.6254979,4.35647041 13.5271728,4.72342466 13.2401973,4.88911008 C12.9532217,5.05479551 12.5862674,4.95647041 12.420582,4.66949484 L11.2329755,2.6125 C11.1838515,2.5274147 11.0930666,2.475 10.9948185,2.475 L5.00518149,2.475 C4.90693345,2.475 4.81614852,2.5274147 4.7670245,2.6125 L1.77220599,7.79967783 C1.72308197,7.88476312 1.72308197,7.98959253 1.77220599,8.07467783 L4.7670245,13.2618557 C4.81614852,13.3469409 4.90693345,13.3993557 5.00518149,13.3993557 L10.9948185,13.3993557 C11.0930666,13.3993557 11.1838515,13.3469409 11.2329755,13.2618557 L13.707363,8.974 L7.23075339,8.97467783 C6.89938254,8.97467783 6.63075339,8.70604868 6.63075339,8.37467783 C6.63075339,8.04330698 6.89938254,7.77467783 7.23075339,7.77467783 L14.7474093,7.77467783 L14.764026,7.77479284 C14.7790419,7.7751955 14.794076,7.77616425 14.8090962,7.77770769 L14.7474093,7.77467783 C14.7841482,7.77467783 14.8201159,7.77797983 14.8550318,7.78430326 C14.8718053,7.78729744 14.8885924,7.79110541 14.9052746,7.79566568 C14.9204529,7.79979956 14.9350885,7.80440895 14.9494704,7.80955175 C14.9603808,7.81352662 14.9714107,7.81785159 14.9823605,7.82252712 C15.002063,7.83084272 15.0206585,7.8399687 15.0386834,7.84999656 C15.0409503,7.85137265 15.0441848,7.85320095 15.0474093,7.85506258 L15.0689209,7.86800078 C15.0849606,7.87819999 15.100483,7.88913987 15.1154403,7.90077229 L15.0474093,7.85506258 C15.0824372,7.87528595 15.1146545,7.89850789 15.1439242,7.92421697 C15.1586652,7.93734683 15.1728357,7.95112166 15.186302,7.96556177 C15.1953942,7.97510699 15.2034566,7.98433524 15.2112059,7.99377397 C15.2216299,8.00664646 15.2320841,8.02050217 15.2419337,8.03480641 C15.2509974,8.04789074 15.2591785,8.06088734 15.2668358,8.0741506 C15.2746749,8.08765717 15.2821294,8.10176062 15.2890249,8.11618248 C15.295747,8.13048618 15.3020164,8.1451163 15.3076945,8.15995946 C15.3131246,8.17369959 15.3180231,8.18805467 15.3223817,8.20264279 C15.3261105,8.21569033 15.329458,8.22841823 15.3323868,8.24124478 C15.3365191,8.25876284 15.3398467,8.27727623 15.3423053,8.29606302 C15.3440967,8.30993889 15.3454047,8.32326672 15.3462665,8.3366406 C15.346997,8.34881104 15.3474093,8.36169629 15.3474093,8.37467783 L15.3473416,8.38941725 C15.3470265,8.4027279 15.3462667,8.41605396 15.3450563,8.42937304 L15.3474093,8.37467783 C15.3474093,8.41393807 15.3436385,8.4523176 15.3364393,8.48947401 C15.3347791,8.49828145 15.3327941,8.50735747 15.3305906,8.51640715 C15.3254222,8.53760235 15.3193021,8.55792749 15.3121663,8.57776799 C15.3085169,8.58771146 15.3045609,8.59782073 15.3003106,8.60786328 C15.2914188,8.62912375 15.2814289,8.64941754 15.270368,8.66902688 L12.272206,13.8618557 C12.0087226,14.3182222 11.5217853,14.5993557 10.9948185,14.5993557 L5.00518149,14.5993557 C4.47821474,14.5993557 3.99127739,14.3182222 3.72779401,13.8618557 L0.7329755,8.67467783 C0.469492128,8.21831124 0.469492128,7.65604441 0.7329755,7.19967783 L3.72779401,2.0125 C3.99127739,1.55613341 4.47821474,1.275 5.00518149,1.275 L10.9948185,1.275 Z" id="形状结合" fill="#262626" fill-rule="nonzero"></path>
        </g>
    </g>
</svg>