<?xml version="1.0" encoding="UTF-8"?>
<svg width="16px" height="16px" viewBox="0 0 16 16" version="1.1" xmlns="http://www.w3.org/2000/svg" xmlns:xlink="http://www.w3.org/1999/xlink">
    <title>Node auto discovery-third menu</title>
    <g id="Node-auto-discovery-third-menu" stroke="none" stroke-width="1" fill="none" fill-rule="evenodd">
        <g id="数据大屏">
            <rect id="矩形" fill="#D8D8D8" opacity="0" x="0" y="0" width="16" height="16"></rect>
            <path d="M8,2.5 C11.7279221,2.5 14.75,5.52207794 14.75,9.25 C14.75,10.3610472 14.4808038,11.4347049 13.9730614,12.3966958 C13.8777448,12.5772868 13.7742771,12.753419 13.6630174,12.9245671 C13.4748834,13.213969 13.0877641,13.2960628 12.7983623,13.1079288 C12.5089604,12.9197948 12.4268666,12.5326755 12.6150006,12.2432737 C12.7056614,12.1038124 12.7899554,11.9603193 12.8675923,11.8132251 C13.2809779,11.0300068 13.5,10.1564625 13.5,9.25 C13.5,6.21243388 11.0375661,3.75 8,3.75 C4.96243388,3.75 2.5,6.21243388 2.5,9.25 C2.5,10.1394415 2.71085703,10.9972587 3.10951424,11.769372 C3.19197925,11.9290889 3.28225509,12.084658 3.37997842,12.2355358 C3.56762744,12.5252524 3.48488535,12.9122336 3.1951688,13.0998826 C2.90545225,13.2875317 2.51847101,13.2047896 2.33082199,12.915073 C2.21089126,12.7299086 2.10007565,12.5389441 1.99882471,12.3428428 C1.50915363,11.3944553 1.25,10.3401558 1.25,9.25 C1.25,5.52207794 4.27207794,2.5 8,2.5 Z M7.7658,6.4797225 C7.84673,6.2900925 8.15327,6.2900925 8.2342,6.4797225 L9.61558,9.71639125 C9.70217,9.8978575 9.75,10.097025 9.75,10.3059663 C9.75,11.1516625 8.9665,11.837225 8,11.837225 C7.0335,11.837225 6.25,11.1516625 6.25,10.3059663 C6.25,10.097025 6.29782,9.8978575 6.38442,9.71639125 Z" id="形状结合" fill="#262626" fill-rule="nonzero"></path>
        </g>
    </g>
</svg>