<?xml version="1.0" encoding="UTF-8"?>
<svg width="16px" height="16px" viewBox="0 0 16 16" version="1.1" xmlns="http://www.w3.org/2000/svg" xmlns:xlink="http://www.w3.org/1999/xlink">
    <title>notification group-third menu</title>
    <g id="notification-group-third-menu" stroke="none" stroke-width="1" fill="none" fill-rule="evenodd">
        <g id="notification-group" transform="translate(8.000000, 8.000000) scale(-1, 1) translate(-8.000000, -8.000000) ">
            <rect id="矩形" x="0" y="0" width="16" height="16"></rect>
            <path d="M11.2973957,9.31194069 C13.236528,9.31717358 14.8042633,10.893393 14.7990434,12.8325253 L14.7990434,13.238745 C14.7986106,13.6124859 14.4957384,13.9153581 14.1219975,13.9157778 L4.64353789,13.9157778 C4.26979699,13.9153581 3.96692482,13.6124859 3.96650507,13.238745 L3.96650507,12.8325253 L3.97171437,12.6393614 C4.07199503,10.7848377 5.60753065,9.31194069 7.48707679,9.31194069 L11.2973957,9.31194069 Z M4.5345068,8.05827323 C4.86587765,8.05827323 5.1345068,8.32690238 5.1345068,8.65827323 C5.1345068,8.98964408 4.86587765,9.25827323 4.5345068,9.25827323 C3.28509497,9.25827323 2.4,10.2966 2.4,11.4429879 L2.39999961,11.7078925 C2.40003746,11.7409486 2.4322186,11.7725092 2.47703283,11.7725589 L3.1672534,11.7725589 C3.49862425,11.7725589 3.7672534,12.0411881 3.7672534,12.3725589 C3.7672534,12.7039298 3.49862425,12.9725589 3.1672534,12.9725589 L2.47637196,12.9725589 C1.77436525,12.9717854 1.20080203,12.4092807 1.2,11.7085796 L1.2,11.4429879 C1.2,9.6725749 2.57607002,8.05827323 4.5345068,8.05827323 Z M11.2935051,10.5109536 L7.48707679,10.5119536 C6.25304964,10.5119536 5.23624996,11.4783036 5.17127823,12.6717116 L5.16950507,12.7149536 L13.5945051,12.7149536 L13.5941299,12.6710396 C13.519455,11.5205259 12.60247,10.5985784 11.4523761,10.5176951 L11.2935051,10.5109536 Z M9.38276771,2 C11.1775817,2 12.6325253,3.45494355 12.6325253,5.24975759 C12.6325253,7.04457163 11.1775818,8.49951519 9.38276771,8.49951519 C7.58795367,8.49951519 6.13301012,7.04457162 6.13301012,5.24975759 C6.13301012,3.45494356 7.58795368,2 9.38276771,2 Z M5.39810079,2.97921291 C5.72911736,2.96389389 6.00987783,3.21981732 6.02519685,3.55083389 C6.04051587,3.88185045 5.78459245,4.16261092 5.45357588,4.17792994 C4.78447881,4.2088949 4.25499448,4.76190295 4.25499448,5.43464756 C4.25499448,6.12954926 4.81830057,6.69285714 5.5131998,6.69285714 C5.84457065,6.69285714 6.1131998,6.96148629 6.1131998,7.29285714 C6.1131998,7.62422799 5.84457065,7.89285714 5.5131998,7.89285714 C4.15555802,7.89285714 3.05499448,6.79229011 3.05499448,5.43464756 C3.05499448,4.11999252 4.08925264,3.03978473 5.39810079,2.97921291 Z M9.38276771,3.2 C8.25069538,3.2 7.33301012,4.11768526 7.33301012,5.24975759 C7.33301012,6.38182993 8.25069538,7.29951519 9.38276771,7.29951519 C10.5148401,7.29951519 11.4325253,6.38182994 11.4325253,5.24975759 C11.4325253,4.11768526 10.51484,3.2 9.38276771,3.2 Z" id="形状结合" fill="#262626" fill-rule="nonzero"></path>
        </g>
    </g>
</svg>