<?xml version="1.0" encoding="UTF-8"?>
<svg width="16px" height="16px" viewBox="0 0 16 16" version="1.1" xmlns="http://www.w3.org/2000/svg" xmlns:xlink="http://www.w3.org/1999/xlink">
    <title>notification block-third menu</title>
    <g id="notification-block-third-menu" stroke="none" stroke-width="1" fill="none" fill-rule="evenodd">
        <g id="通知消息">
            <rect id="矩形" x="0" y="0" width="16" height="16"></rect>
            <path d="M7.75367363,2.17691799 L4.81401319,4.709 L2.55529197,4.70024386 C2.2445317,4.70083747 1.95095129,4.82631556 1.73833346,5.04782041 C1.52880414,5.26407475 1.41076535,5.5561863 1.41123102,5.86009018 L1.40000163,10.3390868 C1.39856302,10.6409567 1.51481794,10.9329487 1.72432253,11.1522022 L1.81986766,11.2418221 C2.02050295,11.4089826 2.27592189,11.5025597 2.54136565,11.5026331 L4.82501319,11.502 L7.75328436,14.0283961 C8.09181877,14.32315 8.57664969,14.3876195 8.98295002,14.1903675 C9.38599277,13.9904532 9.6363606,13.5824034 9.6322226,13.1376536 L9.6322226,3.06015193 C9.6363606,2.62109057 9.38599277,2.21304069 8.98754693,2.0153824 C8.58075974,1.81526697 8.0945671,1.88011869 7.75367363,2.17691799 Z M8.43201319,3.175 L8.43201319,13.029 L5.27102668,10.3026331 L2.59901319,10.302 L2.61101319,5.9 L5.25729111,5.91176993 L8.43201319,3.175 Z M13.7475667,6.28120476 L14.5960949,7.1297329 L13.1919884,8.53318615 L14.5960949,9.93754316 L13.7475667,10.7860713 L12.3429884,9.38118615 L10.9397565,10.7860713 L10.0912283,9.93754316 L11.4949884,8.53318615 L10.0912283,7.1297329 L10.9397565,6.28120476 L12.3429884,7.68518615 L13.7475667,6.28120476 Z" id="形状结合" fill="#262626" fill-rule="nonzero"></path>
        </g>
    </g>
</svg>