<?xml version="1.0" encoding="UTF-8"?>
<svg width="16px" height="16px" viewBox="0 0 16 16" version="1.1" xmlns="http://www.w3.org/2000/svg" xmlns:xlink="http://www.w3.org/1999/xlink">
    <title>O&amp;M automation tasks</title>
    <g id="O&amp;M-automation-tasks" stroke="none" stroke-width="1" fill="none" fill-rule="evenodd">
        <rect id="矩形" fill="#000000" opacity="0" x="0" y="0" width="16" height="16"></rect>
        <g id="运维自动化小产品图标备份" transform="translate(1.000000, 1.000000)" fill="#262626">
            <path d="M13.4063371,0.598760607 C14.5848278,1.77680468 13.9400783,4.32336636 12.0789112,7.00198588 C13.9402371,9.68007601 14.5846826,12.2261555 13.4063371,13.4040545 C12.2276987,14.5822462 9.67968063,13.9374318 6.99967662,12.076432 C4.27002857,13.9703582 1.76323508,14.5706588 0.596188493,13.4040545 C-0.563289211,12.2450162 0.0222594483,9.76377543 1.88684698,7.05710241 L1.926,7 L1.85614898,6.90096783 C0.0153385308,4.21064525 -0.556717524,1.7512297 0.596188493,0.598760607 C1.76401624,-0.56862456 4.27335401,0.0332277294 7.0053764,1.93031249 L7.05235262,1.89826227 C9.76725185,0.0206965853 12.2418929,-0.565242256 13.4063371,0.598760607 Z M7.20536599,2.64658656 C7.07074707,2.74316973 6.8908392,2.73057357 6.77119831,2.62613736 L6.75503205,2.6096544 C4.21225267,0.805497553 1.94657615,0.238566816 1.09121715,1.09360165 C0.275462107,1.90904754 0.75352918,4.00677231 2.36171853,6.39920245 C2.91706061,5.66614677 3.55029933,4.94085245 4.24511292,4.24630218 C4.38181131,4.1096556 4.60344319,4.1096556 4.74014157,4.24630218 C4.87683996,4.38294876 4.87683996,4.60449664 4.74014157,4.74114323 C3.94503398,5.5359495 3.23417588,6.37133952 2.63499125,7.20957855 C0.810677239,9.7617321 0.230376414,12.0486989 1.09121715,12.9092134 C1.90689374,13.7245809 4.00493808,13.246829 6.39761408,11.6400098 C5.67475954,11.0920037 4.94940891,10.460542 4.24511292,9.75651289 C4.10841453,9.61986631 4.10841453,9.39831842 4.24511292,9.26167184 C4.38181131,9.12502526 4.60344319,9.12502526 4.74014157,9.26167184 C8.01621804,12.5365068 11.7232858,14.0967858 12.9113084,12.9092134 C13.7573648,12.0634777 13.2092792,9.94065525 11.6403989,7.60583618 C11.0934098,8.32740807 10.4617087,9.05248381 9.75741266,9.75651289 C9.62071427,9.89315947 9.3990824,9.89315947 9.26238401,9.75651289 C9.12568562,9.61986631 9.12568562,9.39831842 9.26238401,9.26167184 C10.0053068,8.51903056 10.6600242,7.7542337 11.2144813,7.00167122 C10.6600242,6.24858136 10.0053068,5.4837845 9.26238401,4.74114323 C9.12568562,4.60449664 9.12568562,4.38294876 9.26238401,4.24630218 C9.3990824,4.1096556 9.62071427,4.1096556 9.75741266,4.24630218 C10.4617087,4.95033126 11.0934098,5.675407 11.6407908,6.39763789 C13.2092267,4.06236325 13.7574053,1.93937786 12.9113084,1.09360165 C12.0457784,0.228399601 9.7670176,0.808713992 7.20536599,2.64658656 Z M7.00126279,5.60178569 C7.77454565,5.60178569 8.40141526,6.22841773 8.40141526,7.00140753 C8.40141526,7.77439733 7.77454565,8.40102937 7.00126279,8.40102937 C6.22797994,8.40102937 5.60111033,7.77439733 5.60111033,7.00140753 C5.60111033,6.22841773 6.22797994,5.60178569 7.00126279,5.60178569 Z M7.00126279,6.30159661 C6.61462136,6.30159661 6.30118656,6.61491263 6.30118656,7.00140753 C6.30118656,7.38790243 6.61462136,7.70121845 7.00126279,7.70121845 C7.38790422,7.70121845 7.70133902,7.38790243 7.70133902,7.00140753 C7.70133902,6.61491263 7.38790422,6.30159661 7.00126279,6.30159661 Z" id="形状结合"></path>
            <ellipse id="椭圆形" cx="9.45152961" cy="4.20216385" rx="1.05011435" ry="1.04971638"></ellipse>
            <ellipse id="椭圆形备份" cx="9.10149149" cy="9.80065122" rx="1.05011435" ry="1.04971638"></ellipse>
            <ellipse id="椭圆形备份-4" cx="2.10072916" cy="7.00140753" rx="1.05011435" ry="1.04971638"></ellipse>
        </g>
    </g>
</svg>