<?xml version="1.0" encoding="UTF-8"?>
<svg width="16px" height="16px" viewBox="0 0 16 16" version="1.1" xmlns="http://www.w3.org/2000/svg" xmlns:xlink="http://www.w3.org/1999/xlink">
    <title>Oracle-third menu</title>
    <g id="Oracle-third-menu" stroke="none" stroke-width="1" fill="none" fill-rule="evenodd">
        <g id="Oracle">
            <rect id="矩形" x="0" y="0" width="16" height="16"></rect>
            <path d="M7.26600905,1.1 C10.6175969,1.1 13.4320181,2.35085388 13.4320181,4.17777177 L13.4320181,4.6086886 C13.4320181,4.63302744 13.4305374,4.65728387 13.4276049,4.68132751 L13.3960352,6.66491312 C13.3908605,6.99624357 13.1180692,7.26064506 12.7867388,7.25547038 C12.4554083,7.2502957 12.1910068,6.9775044 12.1961815,6.64617396 L12.2065337,6.07877006 C11.0541783,6.79919574 9.26909582,7.2196338 7.26600905,7.2196338 C5.20115955,7.2196338 3.43618521,6.81389624 2.31145458,6.07218635 L2.30104419,6.97250041 L2.35847157,7.05790327 C2.94044279,7.83996062 4.77559998,8.48220718 6.9656869,8.53045388 L7.33787271,8.53336321 C7.66924356,8.53336321 7.93787271,8.80199236 7.93787271,9.13336321 C7.93787271,9.46473406 7.66924356,9.73336321 7.33787271,9.73336321 L7.23014351,9.73336321 C5.24827138,9.73336321 3.45251241,9.30261324 2.29960716,8.57206392 L2.3,9.58671826 L2.35852204,9.67479953 C2.9197891,10.4450154 4.80200253,11.1023221 7.00070935,11.1517448 L7.30191878,11.154726 C7.63328963,11.154726 7.90191878,11.4233552 7.90191878,11.754726 C7.90191878,12.0860969 7.63328963,12.354726 7.30191878,12.354726 L7.26600905,12.354726 C5.29698086,12.354726 3.48675447,11.9245743 2.32422166,11.2014172 L2.33590974,11.7572672 C2.33590974,12.7039893 4.51690614,13.7068578 7.30191878,13.7068578 C7.89343411,13.7068578 8.41824966,13.6715687 8.91495105,13.5940316 C9.24235673,13.5429223 9.54920378,13.7669047 9.60031313,14.0943104 C9.65142248,14.421716 9.42744006,14.7285631 9.10003438,14.7796724 C8.53754646,14.8674791 7.95191033,14.9068578 7.30191878,14.9068578 C3.93172331,14.9068578 1.13590974,13.6212832 1.13600371,11.7678858 L1.10009397,9.73914323 L1.1,6.94871826 L1.10299807,6.913 L1.13499807,4.355 L1.13590974,4.17777177 C1.13590974,2.37421366 3.7462275,1.16662822 6.99393371,1.10267076 L7.26600905,1.1 Z M11.6829066,7.80465509 C13.3347544,7.80465509 14.7352341,9.16922505 14.6993244,10.8210729 C14.6993244,12.4729207 13.3706641,13.8374907 11.6829066,13.8374907 C10.0310587,13.8374907 8.66648875,12.5088305 8.66648875,10.8210729 C8.66648875,9.16922505 9.99514897,7.80465509 11.6829066,7.80465509 Z M11.6829066,8.66648875 C10.7133437,8.66648875 9.9233295,9.60014188 9.9233295,10.8210729 C9.9233295,12.0420039 10.677434,12.975657 11.6829066,12.975657 C12.6524694,12.975657 13.4424836,12.0060942 13.4424836,10.8210729 C13.4424836,9.60014188 12.6524694,8.66648875 11.6829066,8.66648875 Z M11.6829066,9.95923923 C12.0779136,9.95923923 12.3651915,10.3542463 12.3651915,10.8210729 C12.3651915,11.2878995 12.0779136,11.6829066 11.6829066,11.6829066 C11.2878995,11.6829066 11.0006216,11.2878995 11.0006216,10.8210729 C11.0006216,10.3542463 11.2878995,9.95923923 11.6829066,9.95923923 Z M7.26600905,2.3 C4.48295956,2.3 2.33590974,3.25317459 2.33590974,4.17777177 L2.33590974,4.436 C2.82229152,5.31619568 4.61352404,5.96969597 6.989325,6.01689964 L7.26600905,6.0196338 C9.62175203,6.0196338 11.5673049,5.36441333 12.1731398,4.5456524 L12.2299981,4.458 L12.2309981,4.396 L12.2320181,4.17777177 C12.2320181,3.33749017 10.3032626,2.42605379 7.79318762,2.31194663 L7.53150626,2.30302227 L7.26600905,2.3 Z" id="形状结合" fill="#262626" fill-rule="nonzero"></path>
        </g>
    </g>
</svg>