<?xml version="1.0" encoding="UTF-8"?>
<svg width="16px" height="16px" viewBox="0 0 16 16" version="1.1" xmlns="http://www.w3.org/2000/svg" xmlns:xlink="http://www.w3.org/1999/xlink">
    <title>Orchestration</title>
    <g id="Orchestration" stroke="none" stroke-width="1" fill="none" fill-rule="evenodd">
        <rect id="矩形" fill="#000000" opacity="0" x="0" y="0" width="16" height="16"></rect>
        <path d="M13,1 L13,3.5 L5,3.5 L4.99976923,2.67 L3.43160088,2.67042254 L3.43160088,4.71242254 L12.2516009,4.712583 C12.5829717,4.712583 12.8516009,4.98121215 12.8516009,5.312583 L12.8516009,7.87443297 L12.8437479,7.97175608 C12.7972476,8.25684336 12.5498346,8.47443297 12.2516009,8.47443297 L3.43160088,8.47442254 L3.43160088,11.8504225 L7.08379264,11.8507042 C7.41516349,11.8507042 7.68379264,12.1193334 7.68379264,12.4507042 C7.68379264,12.7820751 7.41516349,13.0507042 7.08379264,13.0507042 L2.83076923,13.0507042 C2.49939838,13.0507042 2.23076923,12.7820751 2.23076923,12.4507042 L2.23076923,7.87443297 L2.23862222,7.77710985 C2.28512248,7.49202258 2.53253547,7.27443297 2.83076923,7.27443297 L11.6516009,7.27442254 L11.6516009,5.91242254 L2.83076923,5.912583 C2.49939838,5.912583 2.23076923,5.64395385 2.23076923,5.312583 L2.23076923,2.07042254 C2.23076923,1.73905169 2.49939838,1.47042254 2.83076923,1.47042254 L4.99976923,1.47 L5,1 L13,1 Z" id="形状结合" fill="#262626" fill-rule="nonzero"></path>
        <circle id="椭圆形备份-2" stroke="#262626" cx="11" cy="12" r="2.5"></circle>
        <path d="M11,10 L12.7320508,13 L11.4999492,13 L11.5,14 L10.5,14 L10.4999492,13 L9.26794919,13 L11,10 Z" id="形状结合" fill="#262626"></path>
    </g>
</svg>