<?xml version="1.0" encoding="UTF-8"?>
<svg width="16px" height="16px" viewBox="0 0 16 16" version="1.1" xmlns="http://www.w3.org/2000/svg" xmlns:xlink="http://www.w3.org/1999/xlink">
    <title>overview-third menu</title>
    <g id="overview-third-menu" stroke="none" stroke-width="1" fill="none" fill-rule="evenodd">
        <g id="overview">
            <rect id="矩形" x="0" y="0" width="16" height="16"></rect>
            <path d="M2,2 C2.33137085,2 2.6,2.26862915 2.6,2.6 L2.6,12.4895053 C2.6,12.7104192 2.7790861,12.8895053 3,12.8895053 L14,12.8895053 C14.3313708,12.8895053 14.6,13.1581344 14.6,13.4895053 C14.6,13.8208761 14.3313708,14.0895053 14,14.0895053 L3,14.0895053 C2.1163444,14.0895053 1.4,13.3731609 1.4,12.4895053 L1.4,2.6 C1.4,2.26862915 1.66862915,2 2,2 Z" id="路径-4" fill="#262626" fill-rule="nonzero"></path>
            <path d="M13.4403527,3.41674495 C13.7717235,3.41674495 14.0403527,3.6853741 14.0403527,4.01674495 L14.0403527,6.8409984 C14.0403527,7.17236925 13.7717235,7.4409984 13.4403527,7.4409984 C13.1089818,7.4409984 12.8403527,7.17236925 12.8403527,6.8409984 L12.8399978,5.58974495 L9.45332653,9.19476353 C9.22139798,9.44154562 8.83131517,9.44759595 8.59184465,9.20812544 L7.387,8.00342106 L4.40966158,10.7877467 C4.19445196,10.9888577 3.87054465,11.001044 3.64231966,10.8312271 L3.56161958,10.7590279 C3.33536974,10.516917 3.3482276,10.1372357 3.59033842,9.91098586 L6.99258803,6.73162184 C7.22892357,6.51076894 7.59778842,6.51701293 7.82651368,6.74573819 L9.002,7.92142106 L12.1079978,4.61674495 L10.6160992,4.61674495 C10.3178654,4.61674495 10.0704525,4.39915534 10.0239522,4.11406807 L10.0160992,4.01674495 C10.0160992,3.6853741 10.2847284,3.41674495 10.6160992,3.41674495 L13.4403527,3.41674495 Z" id="形状结合" fill="#262626" fill-rule="nonzero"></path>
        </g>
    </g>
</svg>