<?xml version="1.0" encoding="UTF-8"?>
<svg width="16px" height="16px" viewBox="0 0 16 16" version="1.1" xmlns="http://www.w3.org/2000/svg" xmlns:xlink="http://www.w3.org/1999/xlink">
    <title>overview-third menu</title>
    <g id="overview-third-menu" stroke="none" stroke-width="1" fill="none" fill-rule="evenodd">
        <g>
            <rect id="矩形" fill-opacity="0" fill="#F0F0F0" x="0" y="0" width="16" height="16"></rect>
            <g id="图形" transform="translate(1.000000, 1.000000)" fill="#262626" fill-rule="nonzero">
                <path d="M13,0 C13.5522847,0 14,0.44771525 14,1 L14,10 C14,10.5522847 13.5522847,11 13,11 L5.39572645,11.0005576 C5.37780679,11.034926 5.35627678,11.0680535 5.33107986,11.099422 L3.784,13.0246775 L10.226,13.0246775 L10.2187848,13.0139279 C10.0873963,12.8389207 10.0436001,12.7805849 9.93723798,12.6389124 L9.87814791,12.5602054 C9.67919648,12.2952055 9.73273938,11.9190986 9.99773933,11.7201471 C10.2627393,11.5211957 10.6388462,11.5747386 10.8377976,11.8397385 C11.0348803,12.1022494 11.0348803,12.1022494 11.3445818,12.5147666 C11.9916193,13.3766095 11.3763817,14.225 10.3208704,14.225 L3.67912961,14.225 C2.62361834,14.225 2.00838073,13.3766095 2.66746524,12.4992555 L3.871,11 L1,11 C0.44771525,11 0,10.5522847 0,10 L0,1 C0,0.44771525 0.44771525,0 1,0 L13,0 Z M12.8,1.2 L1.2,1.2 L1.2,9.8 L12.8,9.8 L12.8,1.2 Z M4.7760325,3.67500621 L4.7760325,6.03752795 L7.052065,6.03752795 C7.052065,7.34231267 6.03305054,8.40004968 4.7760325,8.40004968 C3.51901446,8.40004968 2.5,7.34231267 2.5,6.03752795 C2.5,4.73274322 3.51901446,3.67500621 4.7760325,3.67500621 Z M11.7258048,3.6942921 L11.7258048,7.70575758 L10.6008177,7.70575758 L10.6008177,3.6942921 L11.7258048,3.6942921 Z M10.1249871,6.00859911 L10.1249871,7.70575758 L9,7.70575758 L9,6.00859911 L10.1249871,6.00859911 Z M5.10118,3 C6.53777205,3 7.70236,4.2088423 7.70236,5.70002484 L5.10118,5.70002484 L5.10118,3 Z" id="形状结合"></path>
            </g>
        </g>
    </g>
</svg>