<?xml version="1.0" encoding="UTF-8"?>
<svg width="16px" height="16px" viewBox="0 0 16 16" version="1.1" xmlns="http://www.w3.org/2000/svg" xmlns:xlink="http://www.w3.org/1999/xlink">
    <title>parent-app-system-third-menu</title>
    <g id="parent-app-system-third-menu" stroke="none" stroke-width="1" fill="none" fill-rule="evenodd">
        <rect id="矩形" fill-opacity="0" fill="#F0F0F0" x="0" y="0" width="16" height="16"></rect>
        <g id="父系统备份">
            <rect id="矩形" x="0" y="0" width="16" height="16"></rect>
            <g id="编组" transform="translate(1.000000, 1.000000)" fill="#262626">
                <rect id="矩形" x="3.5" y="0" width="7" height="7" rx="1"></rect>
                <path d="M2.625,10.5 C3.10824916,10.5 3.5,10.8917508 3.5,11.375 L3.5,13.125 C3.5,13.6082492 3.10824916,14 2.625,14 L0.875,14 C0.391750844,14 0,13.6082492 0,13.125 L0,11.375 C0,10.8917508 0.391750844,10.5 0.875,10.5 L2.625,10.5 Z M7.525,7 L7.525,8.091 L11.375,8.09120175 C12.1481986,8.09120175 12.775,8.7180031 12.775,9.49120175 L12.775,10.5 L11.725,10.5 L11.725,9.49120175 C11.725,9.29790209 11.5682997,9.14120175 11.375,9.14120175 L7.525,9.141 L7.525,10.5 L7.875,10.5 C8.35824916,10.5 8.75,10.8917508 8.75,11.375 L8.75,13.125 C8.75,13.6082492 8.35824916,14 7.875,14 L6.125,14 C5.64175084,14 5.25,13.6082492 5.25,13.125 L5.25,11.375 C5.25,10.8917508 5.64175084,10.5 6.125,10.5 L6.475,10.5 L6.475,9.141 L2.625,9.14120175 C2.43170034,9.14120175 2.275,9.29790209 2.275,9.49120175 L2.275,10.5 L1.225,10.5 L1.225,9.49120175 C1.225,8.7180031 1.85180135,8.09120175 2.625,8.09120175 L6.475,8.091 L6.475,7 L7.525,7 Z M13.125,10.5 C13.6082492,10.5 14,10.8917508 14,11.375 L14,13.125 C14,13.6082492 13.6082492,14 13.125,14 L11.375,14 C10.8917508,14 10.5,13.6082492 10.5,13.125 L10.5,11.375 C10.5,10.8917508 10.8917508,10.5 11.375,10.5 L13.125,10.5 Z M2.45,11.55 L1.05,11.55 L1.05,12.95 L2.45,12.95 L2.45,11.55 Z M7.7,11.55 L6.3,11.55 L6.3,12.95 L7.7,12.95 L7.7,11.55 Z M12.95,11.55 L11.55,11.55 L11.55,12.95 L12.95,12.95 L12.95,11.55 Z" id="形状结合"></path>
            </g>
        </g>
    </g>
</svg>