<?xml version="1.0" encoding="UTF-8"?>
<svg width="16px" height="16px" viewBox="0 0 16 16" version="1.1" xmlns="http://www.w3.org/2000/svg" xmlns:xlink="http://www.w3.org/1999/xlink">
    <title>pending approval-thrid menu</title>
    <g id="pending-approval-thrid-menu" stroke="none" stroke-width="1" fill="none" fill-rule="evenodd">
        <g id="数据审批">
            <rect id="矩形备份-49" fill-opacity="0.1" fill="#FFFFFF" opacity="0" x="0" y="0" width="16" height="16"></rect>
            <g transform="translate(1.611284, 1.528488)" fill="#262626" fill-rule="nonzero" id="形状结合">
                <path d="M10.1,0 C10.9836556,0 11.7,0.7163444 11.7,1.6 L11.7,6.08229484 C11.7,6.41366569 11.4313708,6.68229484 11.1,6.68229484 C10.7686292,6.68229484 10.5,6.41366569 10.5,6.08229484 L10.5,1.6 C10.5,1.3790861 10.3209139,1.2 10.1,1.2 L1.6,1.2 C1.3790861,1.2 1.2,1.3790861 1.2,1.6 L1.2,11.85 C1.2,12.0709139 1.3790861,12.25 1.6,12.25 L6.86254194,12.25 C7.19391279,12.25 7.46254194,12.5186292 7.46254194,12.85 C7.46254194,13.1813708 7.19391279,13.45 6.86254194,13.45 L1.6,13.45 C0.7163444,13.45 0,12.7336556 0,11.85 L0,1.6 C0,0.7163444 0.7163444,0 1.6,0 L10.1,0 Z M13.6833592,12.4032979 L13.6833592,13.2737327 L8.57621624,13.2737327 L8.57621624,12.4032979 L13.6833592,12.4032979 Z M9.78533233,8.87191193 C9.78533233,8.06120263 10.5016091,7.42198953 11.3251359,7.57399751 C11.8307431,7.6675409 12.2405913,8.07289554 12.3478413,8.5834865 C12.4474306,9.04340813 12.3018771,9.47994388 12.022261,9.78006224 C11.872877,9.94766079 11.8001003,10.1854169 11.8537252,10.4348659 C11.926502,10.770063 12.2405913,10.9961262 12.5776628,10.9961262 L13.0909306,10.9961262 C13.2786182,10.9961262 13.4280021,11.1481342 13.4280021,11.3430162 L13.4280021,11.8925836 L8.83157338,11.8925836 L8.83157338,11.3391186 C8.83157338,11.1520318 8.98095732,11.0000238 9.16481445,11.0000238 L9.66276091,11.0000238 C10.0343055,10.9727403 10.3292431,10.6609291 10.3292431,10.2750626 C10.3292431,10.0879759 10.2564663,9.92037731 10.1453859,9.79175515 C9.9232252,9.55010142 9.78533233,9.22659722 9.78533233,8.87191193 Z M7.88560488,7.37151202 L7.88560488,8.57151202 L2.38871624,8.57151202 L2.38871624,7.37151202 L7.88560488,7.37151202 Z M7.88560488,5.17151202 L7.88560488,6.37151202 L2.38871624,6.37151202 L2.38871624,5.17151202 L7.88560488,5.17151202 Z M4.63716057,2.97151202 L4.63716057,4.17151202 L2.38871624,4.17151202 L2.38871624,2.97151202 L4.63716057,2.97151202 Z"></path>
            </g>
        </g>
    </g>
</svg>