<?xml version="1.0" encoding="UTF-8"?>
<svg width="16px" height="16px" viewBox="0 0 16 16" version="1.1" xmlns="http://www.w3.org/2000/svg" xmlns:xlink="http://www.w3.org/1999/xlink">
    <title>Performance monitor-third menu</title>
    <g id="Performance-monitor-third-menu" stroke="none" stroke-width="1" fill="none" fill-rule="evenodd">
        <g id="Performance-monitor">
            <rect id="矩形" x="0" y="0" width="16" height="16"></rect>
            <g id="指标" transform="translate(1.029491, 1.599995)" fill="#262626" fill-rule="nonzero">
                <path d="M4.73014807,4.94118615 C5.06151892,4.94118615 5.33014807,5.2098153 5.33014807,5.54118615 L5.33014807,12.3566082 C5.33014807,12.687979 5.06151892,12.9566082 4.73014807,12.9566082 C4.39877722,12.9566082 4.13014807,12.687979 4.13014807,12.3566082 L4.13014807,5.54118615 C4.13014807,5.2098153 4.39877722,4.94118615 4.73014807,4.94118615 Z M0.896473169,8.34889717 C1.22784402,8.34889717 1.49647317,8.61752632 1.49647317,8.94889717 L1.49647317,12.3566082 C1.49647317,12.687979 1.22784402,12.9566082 0.896473169,12.9566082 C0.565102319,12.9566082 0.296473169,12.687979 0.296473169,12.3566082 L0.296473169,8.94889717 C0.296473169,8.61752632 0.565102319,8.34889717 0.896473169,8.34889717 Z M8.88344101,5.61808264 C9.0056542,5.61808264 9.12786739,5.67511546 9.21749039,5.76473846 L9.32082675,5.86523603 C9.47549601,6.00433666 9.73531219,6.19655839 9.95076951,6.19655839 C10.2277861,6.19655839 10.5781305,5.88695165 10.6840486,5.76473846 C10.8144094,5.62623018 11.018098,5.58549245 11.1891965,5.65882036 L11.197344,5.66696791 L12.0854265,6.18841084 L12.0935741,6.19655839 C12.2332463,6.30829616 12.2951011,6.4858794 12.2586153,6.65234588 L12.2000147,6.82536839 C12.1772111,6.89891009 12.1506069,7.00665722 12.1506069,7.10908351 C12.1506069,7.60841168 12.508891,8.02343768 12.9710475,8.08017952 L13.1120173,8.08678901 C13.2447059,8.08678901 13.3534507,8.18855019 13.3869435,8.36128767 L13.3971814,8.45342857 C13.3971814,8.46972366 13.4705093,8.87710095 13.4705093,9.19485524 C13.4705093,9.51260952 13.3971814,9.91998681 13.3971814,9.9362819 C13.3564436,10.1481181 13.2342305,10.2866264 13.0875746,10.2866264 L13.0549845,10.2866264 C12.5416891,10.2866264 12.1261642,10.7265938 12.1261642,11.2724794 C12.1261642,11.4005123 12.1677333,11.536859 12.1914871,11.6043197 L12.2076397,11.6472665 C12.2774758,11.8148732 12.2455507,11.9944517 12.1323877,12.1244324 L12.0609839,12.1931521 L11.1566063,12.7227426 C10.9692127,12.7960705 10.7655241,12.7553327 10.6433109,12.6086769 C10.5292453,12.4783162 10.1789008,12.1442668 9.89373669,12.1442668 C9.60857259,12.1442668 9.25822812,12.4864637 9.15231002,12.6005294 C9.02194929,12.7390377 8.82640819,12.7879229 8.64716218,12.714595 L8.63901464,12.7064475 L7.76722724,12.1850045 L7.75907969,12.176857 C7.61940748,12.0651192 7.55755264,11.887536 7.59403845,11.7210695 L7.65263902,11.548047 C7.67544264,11.4745053 7.70204687,11.3667582 7.70204687,11.2643319 C7.70204687,10.7184463 7.28652204,10.2784788 6.77322665,10.2784788 L6.74063647,10.2784788 C6.59398065,10.2784788 6.47991501,10.1399705 6.43917728,9.92813436 L6.39642781,9.62128817 C6.38033389,9.48685925 6.36584936,9.32793182 6.36584936,9.18670769 C6.36584936,8.8689534 6.43917728,8.46157612 6.43917728,8.44528102 C6.47991501,8.23344483 6.60212819,8.09493655 6.74878402,8.09493655 L6.7813742,8.09493655 C7.29466958,8.09493655 7.71019442,7.65496908 7.71019442,7.11723106 C7.71019442,6.93798505 7.62871896,6.74244395 7.62871896,6.74244395 C7.56586647,6.5748373 7.5987892,6.39525874 7.71209472,6.26527807 L7.78352233,6.19655839 L8.70419501,5.65882036 L8.71234255,5.65067282 C8.76937537,5.62623018 8.82640819,5.61808264 8.88344101,5.61808264 Z M8.90884936,7.07408264 L8.91019442,7.11723106 C8.91019442,7.99497438 8.39723051,8.76489466 7.64913285,9.10685919 L7.56684936,9.14008264 L7.56684936,9.23608264 L7.64219164,9.26710798 C8.34659894,9.58993875 8.84105942,10.2931708 8.89679384,11.1099252 L8.90084936,11.2370826 L8.92645599,11.220326 C9.15961276,11.0757014 9.41458732,10.98041 9.71086085,10.9526636 L9.89373669,10.9442668 C10.2404047,10.9442668 10.5469578,11.0409741 10.8224974,11.2013513 L10.9258494,11.2670826 L10.9314173,11.1180728 C10.9871517,10.3013183 11.4816122,9.59808629 12.1860195,9.27525552 L12.2688494,9.24008264 L12.2678494,9.12208264 L12.2116684,9.09871165 C11.5075765,8.77686267 11.0117692,8.07592487 10.9558752,7.26279496 L10.9498494,7.09808264 L10.7999469,7.18279273 C10.5934762,7.28813614 10.3689828,7.36174011 10.1313661,7.38696797 L9.95076951,7.39655839 C9.58651534,7.39655839 9.26474224,7.28850817 8.98435315,7.12210146 L8.90884936,7.07408264 Z M9.93447442,8.15196938 C10.4966551,8.16011692 10.9447701,8.61637949 10.9366226,9.17856014 C10.9366226,9.74888835 10.4885075,10.2051509 9.93447442,10.2051509 C9.37229376,10.2051509 8.92417874,9.74888835 8.92417874,9.17856014 C8.92417874,8.61637949 9.37229376,8.16011692 9.93447442,8.15196938 Z M12.9373833,0.000715756816 L12.954,0.002 L12.9662238,0.00273131305 L13.0222517,0.0107440311 L13.0565405,0.0183907787 C13.0765241,0.0234608602 13.0953728,0.0292875551 13.1138001,0.0359915943 C13.126114,0.0404645993 13.1385522,0.0454554599 13.1508519,0.0508830295 C13.1725261,0.060485015 13.1932195,0.0711386028 13.213172,0.0829140866 C13.219463,0.0865943026 13.2261379,0.0907048808 13.2327503,0.09495955 C13.2553273,0.109522776 13.276524,0.125247708 13.2965871,0.142268097 C13.3005472,0.145624043 13.3053145,0.149782017 13.310033,0.154028672 L13.3204694,0.163644799 L13.3447594,0.18791985 L13.351,0.195 L13.319,0.163 L13.36,0.206 L13.3881423,0.239136718 C13.4003022,0.255405597 13.4116427,0.272140045 13.4221327,0.289447264 L13.4405374,0.321984167 C13.4715232,0.381837117 13.4923109,0.444851813 13.5021621,0.51143013 L13.5066875,0.551446471 L13.5081568,0.575354534 L13.5086545,3.15578843 C13.5086545,3.48715928 13.2400254,3.75578843 12.9086545,3.75578843 C12.5772837,3.75578843 12.3086545,3.48715928 12.3086545,3.15578843 L12.307,2.164 L9.52095578,5.26102278 C9.29928037,5.50732879 8.91990647,5.52729584 8.67360046,5.30562043 L4.81700401,1.83500516 L1.00416621,5.31125117 C0.786465062,5.50966238 0.462430957,5.517808 0.236341691,5.34515783 L0.15654836,5.27195771 C-0.0666642592,5.02704392 -0.0490719804,4.64755248 0.195841814,4.42433986 L4.41117832,0.582513384 C4.63913354,0.374756679 4.98746831,0.373666612 5.21671935,0.57999255 L9.03000401,4.01200516 L11.56,1.2 L10.3528713,1.20000516 C10.0546375,1.20000516 9.80722451,0.982415548 9.76072425,0.697328276 L9.75287126,0.60000516 C9.75287126,0.26863431 10.0215004,5.15996726e-06 10.3528713,5.15996726e-06 L12.9373833,0.000715756816 Z" id="形状结合"></path>
            </g>
        </g>
    </g>
</svg>