<?xml version="1.0" encoding="UTF-8"?>
<svg width="16px" height="16px" viewBox="0 0 16 16" version="1.1" xmlns="http://www.w3.org/2000/svg" xmlns:xlink="http://www.w3.org/1999/xlink">
    <title>pipeline task</title>
    <g id="pipeline-task" stroke="none" stroke-width="1" fill="none" fill-rule="evenodd">
        <rect id="矩形" fill="#000000" opacity="0" x="0" y="0" width="16" height="16"></rect>
        <g id="编组-2" transform="translate(2.396115, 2.000000)" fill="#262626" fill-rule="nonzero">
            <g id="编组-8">
                <path d="M8.35660869,0 L8.356,0.4 L11.2038854,0.4 L11.2038854,7.04581686 L8.356,7.045 L8.35660869,8 L2.90206324,8 L2.902,7.045 L1.23088535,7.045 L1.20788535,10.649 L2.902,10.649 L2.90206324,10 L8.35660869,10 L8.35660869,13 L2.90206324,13 L2.902,11.85 L0,11.85 L0.0038978526,11.2461272 L0.0349076921,6.44194408 L0.038755549,5.84581686 L2.902,5.845 L2.90206324,5 L8.35660869,5 L8.356,5.845 L10.0038854,5.845 L10.0038854,1.6 L8.356,1.6 L8.35660869,3 L2.90206324,3 L2.90206324,0 L8.35660869,0 Z" id="形状结合"></path>
            </g>
        </g>
    </g>
</svg>