<?xml version="1.0" encoding="UTF-8"?>
<svg width="16px" height="16px" viewBox="0 0 16 16" version="1.1" xmlns="http://www.w3.org/2000/svg" xmlns:xlink="http://www.w3.org/1999/xlink">
    <title>Pipeline</title>
    <g id="Pipeline" stroke="none" stroke-width="1" fill="none" fill-rule="evenodd">
        <rect id="矩形" fill="#000000" opacity="0" x="0" y="0" width="16" height="16"></rect>
        <path d="M2.71977755,8.43581282 L2.71977755,11.7928128 L10.1826937,11.7932697 C10.1938216,10.8641307 10.9372691,10.1144171 11.8527505,10.1144171 C12.7751673,10.1144171 13.5229338,10.875533 13.5229338,11.8144171 C13.5229338,12.7533012 12.7751673,13.5144171 11.8527505,13.5144171 C11.3796527,13.5144171 10.9524976,13.3142014 10.6486092,12.9924742 L10.6207775,12.9930214 L2.11931969,12.9930214 C1.78794884,12.9930214 1.51931969,12.7243922 1.51931969,12.3930214 L1.51931969,7.83581282 C1.51931969,7.50444197 1.78794884,7.23581282 2.11931969,7.23581282 L12.2978137,7.23560427 L12.2978137,3.87860427 L4.97122129,3.87924186 C4.6598189,4.23595337 4.20569506,4.46069786 3.7,4.46069786 C2.76111593,4.46069786 2,3.68599426 2,2.73034893 C2,1.7747036 2.76111593,1 3.7,1 C4.58946912,1 5.3193901,1.69530185 5.39375999,2.5810478 L5.39731969,2.678 L12.8979538,2.67860427 C13.2293246,2.67860427 13.4979538,2.94723342 13.4979538,3.27860427 L13.4979538,7.83581282 C13.4979538,8.16718367 13.2293246,8.43581282 12.8979538,8.43581282 L2.71977755,8.43581282 Z" id="形状结合" fill="#262626"></path>
    </g>
</svg>