<?xml version="1.0" encoding="UTF-8"?>
<svg width="16px" height="16px" viewBox="0 0 16 16" version="1.1" xmlns="http://www.w3.org/2000/svg" xmlns:xlink="http://www.w3.org/1999/xlink">
    <title>pipeline-third-menu</title>
    <g id="pipeline-third-menu" stroke="none" stroke-width="1" fill="none" fill-rule="evenodd">
        <rect id="矩形" fill="#000000" opacity="0" x="0" y="0" width="16" height="16"></rect>
        <g id="形状结合-2" transform="translate(2.000000, 2.000000)" fill="#262626">
            <path d="M1.20045786,7.43581282 L1.20045786,10.7928128 L8.66337398,10.7932697 C8.67450189,9.8641307 9.41794944,9.11441709 10.3334308,9.11441709 C11.2558476,9.11441709 12.0036141,9.87553302 12.0036141,10.8144171 C12.0036141,11.7533012 11.2558476,12.5144171 10.3334308,12.5144171 C9.860333,12.5144171 9.43317794,12.3142014 9.12928951,11.9924742 L9.10145786,11.9930214 L0.6,11.9930214 C0.26862915,11.9930214 0,11.7243922 0,11.3930214 L0,6.83581282 C0,6.50444197 0.26862915,6.23581282 0.6,6.23581282 L10.778494,6.23560427 L10.778494,2.87860427 L3.4519016,2.87924186 C3.14049921,3.23595337 2.68637537,3.46069786 2.18068031,3.46069786 C1.24179623,3.46069786 0.480680308,2.68599426 0.480680308,1.73034893 C0.480680308,0.774703605 1.24179623,0 2.18068031,0 C3.07014943,0 3.80007041,0.69530185 3.87444029,1.5810478 L3.878,1.678 L11.3786341,1.67860427 C11.7100049,1.67860427 11.9786341,1.94723342 11.9786341,2.27860427 L11.9786341,6.83581282 C11.9786341,7.16718367 11.7100049,7.43581282 11.3786341,7.43581282 L1.20045786,7.43581282 Z" id="形状结合"></path>
        </g>
    </g>
</svg>