<?xml version="1.0" encoding="UTF-8"?>
<svg width="16px" height="16px" viewBox="0 0 16 16" version="1.1" xmlns="http://www.w3.org/2000/svg" xmlns:xlink="http://www.w3.org/1999/xlink">
    <title>Pipeline task history</title>
    <g id="Pipeline-task-history" stroke="none" stroke-width="1" fill="none" fill-rule="evenodd">
        <rect id="矩形" fill="#000000" opacity="0" x="0" y="0" width="16" height="16"></rect>
        <g id="编组-8" transform="translate(2.000000, 2.000000)" fill="#262626">
            <path d="M9,5 C10.6568542,5 12,6.34314575 12,8 C12,9.65685425 10.6568542,11 9,11 C7.34314575,11 6,9.65685425 6,8 C6,6.34314575 7.34314575,5 9,5 Z M9,6 C7.8954305,6 7,6.8954305 7,8 C7,9.1045695 7.8954305,10 9,10 C10.1045695,10 11,9.1045695 11,8 C11,6.8954305 10.1045695,6 9,6 Z M1.59230769,0 C2.28931937,0 2.88173096,0.455555608 3.09748813,1.08992924 L8.83076923,1.09014085 C9.16214008,1.09014085 9.43076923,1.35877 9.43076923,1.69014085 L9.43076923,4.1211817 C9.43076923,4.45255255 9.16214008,4.7211817 8.83076923,4.7211817 L1.43076923,4.72114085 L1.43076923,8.54514085 L4.83076923,8.54594866 C5.129003,8.54594866 5.37641598,8.76353827 5.42291624,9.04862554 L5.43076923,9.14594866 C5.43076923,9.47731951 5.16214008,9.74594866 4.83076923,9.74594866 L0.830769231,9.74594866 C0.499398381,9.74594866 0.230769231,9.47731951 0.230769231,9.14594866 L0.230769231,4.1211817 C0.230769231,3.78981085 0.499398381,3.5211817 0.830769231,3.5211817 L8.23076923,3.52114085 L8.23076923,2.29014085 L3.04201468,2.29064239 C2.79126668,2.85036344 2.23645472,3.23943662 1.59230769,3.23943662 C0.712900437,3.23943662 0,2.51426403 0,1.61971831 C0,0.725172588 0.712900437,0 1.59230769,0 Z M9.5,6.5 L9.5,7.75 L10.362055,8.65515772 L10.7068973,9.0172127 L9.9827873,9.70689725 L9.63794503,9.34484228 L8.63794503,8.29492757 C8.54939278,8.20195527 8.5,8.07848058 8.5,7.9500853 L8.5,6.5 L9.5,6.5 Z" id="形状结合"></path>
        </g>
    </g>
</svg>