<?xml version="1.0" encoding="UTF-8"?>
<svg width="16px" height="16px" viewBox="0 0 16 16" version="1.1" xmlns="http://www.w3.org/2000/svg" xmlns:xlink="http://www.w3.org/1999/xlink">
    <title>placeholder-third-menu</title>
    <g id="placeholder-third-menu" stroke="none" stroke-width="1" fill="none" fill-rule="evenodd">
        <rect id="矩形" fill-opacity="0" fill="#F0F0F0" x="0" y="0" width="16" height="16"></rect>
        <g id="-Placeholder" transform="translate(1.000000, 1.000000)">
            <rect id="矩形" fill="#FFFFFF" opacity="0" x="0" y="0" width="14" height="14"></rect>
            <g id="图形" transform="translate(1.642126, 0.275000)" fill="#262626" fill-rule="nonzero">
                <path d="M9.60458167,0 C9.85558173,0 10.1003691,0.0812616145 10.299184,0.232379821 C10.7988843,0.612199419 10.8765537,1.32081222 10.463758,1.79389919 C8.77035852,3.73462968 8.77035852,3.73462968 7.69274066,4.96963999 C7.474877,5.21932393 7.09585479,5.24511935 6.84617086,5.02725569 C6.59648692,4.80939204 6.5706915,4.43036982 6.78855516,4.18068589 C7.8230683,2.99507599 7.86444883,2.9476516 9.36431555,1.22872049 L9.388,1.2 L1.341,1.2 L10.463758,11.6561008 C10.849034,12.0976487 10.8070604,12.7443657 10.3934767,13.1374396 L10.299184,13.2176202 C10.1003691,13.3687384 9.85558173,13.45 9.60458167,13.45 L1.12500002,13.45 C0.512577114,13.45 0,12.9715947 0,12.36 C0,12.101061 0.0949317245,11.8519525 0.265823668,11.6561008 C2.02962727,9.63468328 2.02962727,9.63468328 2.89814509,8.6393133 C3.11600875,8.38962937 3.49503096,8.36383394 3.7447149,8.5816976 C3.99439883,8.79956126 4.02019426,9.17858347 3.8023306,9.42826741 C2.96483127,10.3880885 2.93492058,10.4223678 1.35235879,12.2360721 L1.34,12.25 L9.389,12.25 L0.265823668,1.79389919 C0.123413715,1.63068942 0.0337539143,1.43049582 0.007823146,1.21844926 L0,1.09000002 C0,0.478405306 0.512577114,0 1.12500002,0 L9.60458167,0 Z M5.3647991,9.31845238 L7.25079078,11.5812498 L3.45912441,11.5812498 L5.3647991,9.31845238 Z M7.25079078,1.9125 L5.3549576,4.29940786 L3.45912441,1.9125 L7.25079078,1.9125 Z" id="形状结合"></path>
            </g>
        </g>
    </g>
</svg>