<?xml version="1.0" encoding="UTF-8"?>
<svg width="16px" height="16px" viewBox="0 0 16 16" version="1.1" xmlns="http://www.w3.org/2000/svg" xmlns:xlink="http://www.w3.org/1999/xlink">
    <title>platform services-third-menu</title>
    <g id="platform-services-third-menu" stroke="none" stroke-width="1" fill="none" fill-rule="evenodd">
        <rect id="矩形" fill-opacity="0" fill="#D8D8D8" x="0" y="0" width="16" height="16"></rect>
        <rect id="矩形备份" fill="#FFFFFF" opacity="0" x="0" y="0" width="16" height="16"></rect>
        <path d="M10.94,6 C11.007375,6 11.0625,6.07751196 11.0625,6.1722488 L11.0625,14.8277512 C11.0625,14.922488 11.007375,15 10.94,15 L5.06,15 C4.992625,15 4.9375,14.922488 4.9375,14.8277512 L4.9375,6.1722488 C4.9375,6.07751196 4.992625,6 5.06,6 L10.94,6 Z M10.062,12.319 L5.937,12.319 L5.9375,14 L10.0625,14 L10.062,12.319 Z M7,12.67 C7.27614237,12.67 7.5,12.8938576 7.5,13.17 C7.5,13.4461424 7.27614237,13.67 7,13.67 C6.72385763,13.67 6.5,13.4461424 6.5,13.17 C6.5,12.8938576 6.72385763,12.67 7,12.67 Z M10.062,9.659 L5.937,9.659 L5.937,11.319 L10.062,11.319 L10.062,9.659 Z M7,10 C7.27614237,10 7.5,10.2238576 7.5,10.5 C7.5,10.7761424 7.27614237,11 7,11 C6.72385763,11 6.5,10.7761424 6.5,10.5 C6.5,10.2238576 6.72385763,10 7,10 Z M8.00310494,1 C10.1390085,1 11.962417,2.34372865 12.6780306,4.23276112 C14.0201968,4.58900546 15.0092436,5.81867342 14.9999348,7.27802523 C14.9889314,8.90612436 13.7264515,10.2311033 12.1374142,10.374851 C12.0639779,10.3811009 11.9999164,10.3232893 11.9999164,10.249853 L11.9999164,9.30455552 C11.9999164,9.24205652 12.0452282,9.18893236 12.1077272,9.18111998 C12.5295955,9.12799583 12.9264642,8.94206128 13.2311469,8.64206605 C13.6061409,8.27488439 13.8123876,7.78270471 13.8123876,7.25771305 C13.8123876,6.37803953 13.2202095,5.60773927 12.373348,5.38274285 L11.7827324,5.22649533 L11.5671108,4.65462942 C11.4327379,4.29838508 11.2452409,3.9640154 11.0093072,3.66245769 C10.7764984,3.36246246 10.5015027,3.09996663 10.1905702,2.8812201 C9.54839289,2.4281023 8.7921549,2.1890436 8.00310494,2.1890436 C7.21405498,2.1890436 6.457817,2.4281023 5.81563971,2.87965763 C5.50626962,3.09840415 5.22971152,3.36089998 4.99690272,3.66089521 C4.76096897,3.96245292 4.57347195,4.29682261 4.43909908,4.65306695 L4.22191503,5.22649533 L3.62973695,5.38274285 C3.22505588,5.48899116 2.85787421,5.73117481 2.59694086,6.0655445 C2.32975761,6.40928904 2.18757236,6.82178248 2.18757236,7.25927553 C2.18757236,7.78270471 2.39381909,8.27644686 2.76881313,8.64362853 C3.07505826,8.94518623 3.47348943,9.1295583 3.89535772,9.18268246 C3.95785673,9.19049484 4.00473099,9.24361899 4.00473099,9.306118 L4.00473099,10.249853 C4.00473099,10.3232893 3.94223198,10.3811009 3.86879565,10.374851 C2.27507097,10.2326658 1.00946609,8.90612436 1.00004535,7.27490028 C0.99227886,5.81554847 1.98288812,4.58588051 3.32817924,4.23119865 C4.04379287,2.34216617 5.86720139,1 8.00310494,1 Z M10.0625,7 L5.9375,7 L5.937,8.659 L10.062,8.659 L10.0625,7 Z M7,7.33 C7.27614237,7.33 7.5,7.55385763 7.5,7.83 C7.5,8.10614237 7.27614237,8.33 7,8.33 C6.72385763,8.33 6.5,8.10614237 6.5,7.83 C6.5,7.55385763 6.72385763,7.33 7,7.33 Z" id="形状结合备份" fill="#262626" fill-rule="nonzero"></path>
    </g>
</svg>