<?xml version="1.0" encoding="UTF-8"?>
<svg width="16px" height="16px" viewBox="0 0 16 16" version="1.1" xmlns="http://www.w3.org/2000/svg" xmlns:xlink="http://www.w3.org/1999/xlink">
    <title>plugin market</title>
    <g id="plugin-market" stroke="none" stroke-width="1" fill="none" fill-rule="evenodd">
        <rect id="矩形" fill="#000000" opacity="0" x="0" y="0" width="16" height="16"></rect>
        <g transform="translate(1.000000, 1.000000)">
            <path d="M13.911752,3.52383383 C14.029416,3.40791827 14.029416,3.22245333 13.911752,3.10074195 L10.7995378,0.0347746647 C10.7524722,-0.0115915549 10.6701074,-0.0115915549 10.6230418,0.0347746647 L9.71702855,0.927324687 C9.66996294,0.973690907 9.66996294,1.04324028 9.70526215,1.0896065 C10.0111887,1.47212796 9.94059027,2.02272698 9.55229888,2.32410752 C9.22872274,2.57332601 8.77571615,2.57332601 8.45214003,2.32410752 C8.4050744,2.28353706 8.32859276,2.28933284 8.28741034,2.33569906 L7.38139715,3.22824909 C7.33433155,3.27461534 7.33433155,3.35575626 7.38139715,3.40212248 L8.28741034,4.2946725 C8.33447595,4.34103872 8.33447595,4.41058809 8.29917677,4.45695431 C7.99325023,4.83947577 8.06384865,5.3900748 8.45214003,5.69145533 C8.77571618,5.94067383 9.22872274,5.94067383 9.55229888,5.69145533 C9.59936449,5.65088487 9.67584615,5.65668066 9.71702855,5.70304688 L10.6230418,6.5955969 C10.6701074,6.64196315 10.7524722,6.64196315 10.7995378,6.5955969 L11.705551,5.70304688 C11.7526166,5.65668066 11.8232151,5.65668066 11.8702807,5.69145533 C12.2585721,5.99283583 12.8174763,5.92328649 13.1234028,5.54076506 C13.3763805,5.22199719 13.3763805,4.77572218 13.1234028,4.45695431 C13.0822204,4.41058809 13.0881036,4.33524296 13.1351692,4.2946725 L13.911752,3.52383383 Z" id="路径" stroke="#262626" stroke-width="1.2" stroke-linecap="round"></path>
            <path d="M8.26098339,7.74621523 C8.31981542,7.74621523 8.36688103,7.79258148 8.37276424,7.84474349 C8.41982987,8.25044804 8.74340602,8.5750117 9.1611134,8.62137792 C9.64941921,8.67353995 10.0906594,8.32579317 10.1436082,7.84474349 C10.1553746,7.78678569 10.2024403,7.74621523 10.2553891,7.74621523 L10.2553891,7.74621523 L11.56146,7.74621523 C11.620292,7.74621523 11.6732409,7.79258148 11.6732409,7.86213082 L11.6732409,7.86213082 L11.6732409,12.2147611 C11.6732409,12.3770429 11.5379272,12.5103459 11.3731976,12.5103459 L11.3731976,12.5103459 L10.1553746,12.5103459 C10.1553746,12.9971913 9.75531684,13.3913043 9.26112782,13.3913043 C8.76693883,13.3913043 8.36688106,12.9971913 8.36688106,12.5103459 L8.36688106,12.5103459 L6.84313161,12.5103459 L6.84313161,11.009239 C6.34894256,11.009239 5.94888481,10.615126 5.94888481,10.1282806 C5.94888481,9.64143508 6.34894259,9.24732211 6.84313161,9.24732211 L6.84313161,9.24732211 L6.84313161,7.74621523 L8.26098339,7.74621523 Z M3.30635983,6.87746393 C3.80054884,6.87746393 4.20060662,7.27157693 4.20060662,7.7584224 L4.20060662,7.7584224 L5.72435607,7.7584224 L5.72435607,9.25952925 C5.23016705,9.25373346 4.83010927,9.64784646 4.83010927,10.1346919 C4.8301093,10.6215374 5.23016708,11.0156504 5.72435607,11.0156504 L5.72435607,11.0156504 L5.72435607,12.5167573 L1.19429012,12.5167573 C1.02956046,12.5167573 0.894246796,12.3834543 0.894246796,12.2211725 L0.894246796,12.2211725 L0.894246796,11.0214462 C0.400057778,11.0214462 0,10.6273332 0,10.1404877 C0,9.65364225 0.400057778,9.25952925 0.894246796,9.25952925 L0.894246796,9.25952925 L0.894246796,7.7584224 L2.41211306,7.7584224 C2.41211306,7.27157693 2.81217081,6.87746393 3.30635983,6.87746393 Z M5.60669201,1.89793678 C5.67140725,1.89793678 5.71847289,1.95009878 5.71847289,2.00805658 L5.71847289,2.00805658 L5.71847289,3.3005154 C5.71847289,3.3526774 5.76553849,3.39904365 5.81848731,3.40483941 C6.23619469,3.44540987 6.56565405,3.76997353 6.61860286,4.18726963 C6.67155168,4.66831934 6.31855954,5.10300278 5.83025373,5.15516478 C5.7714217,5.16096057 5.73023928,5.20732679 5.73023928,5.2594888 L5.73023928,5.2594888 L5.73023928,6.65627166 L4.2064898,6.65627166 C4.2064898,6.16942619 3.80643206,5.77531319 3.31224304,5.77531319 C2.81805402,5.77531319 2.41799624,6.16942619 2.41799624,6.65627166 L2.41799624,6.65627166 L0.894246796,6.65627166 L0.894246796,5.24789725 C0.894246796,5.19573525 0.929546007,5.15516478 0.982494824,5.14936903 C1.40608542,5.10879856 1.74142796,4.77843912 1.78261038,4.36114302 C1.82967601,3.88009334 1.47080063,3.44540987 0.982494824,3.39904365 C0.929546007,3.39324787 0.894246796,3.3526774 0.894246796,3.3005154 L0.894246796,3.3005154 L0.894246796,2.19352152 C0.894246796,2.03123971 1.02956046,1.89793678 1.19429012,1.89793678 L1.19429012,1.89793678 L5.60669201,1.89793678 Z" id="形状结合" fill="#262626"></path>
        </g>
    </g>
</svg>