<?xml version="1.0" encoding="UTF-8"?>
<svg width="16px" height="16px" viewBox="0 0 16 16" version="1.1" xmlns="http://www.w3.org/2000/svg" xmlns:xlink="http://www.w3.org/1999/xlink">
    <title>Plugin Center</title>
    <g id="Plugin-Center" stroke="none" stroke-width="1" fill="none" fill-rule="evenodd">
        <rect id="矩形" fill="#000000" opacity="0" x="0" y="0" width="16" height="16"></rect>
        <path d="M6.50344828,0.4 C7.20059317,0.4 7.85665339,0.667931277 8.34275599,1.13734154 C8.83278322,1.6105416 9.11494254,2.25466106 9.11494254,2.94193548 C9.11494254,3.22736468 9.06644886,3.50675361 8.9729186,3.7708853 L8.971,3.772 L11.491954,3.77204301 C11.7446444,3.77204301 11.9857277,3.85573037 12.1799797,4.0056867 L12.2730399,4.08610663 C12.4841993,4.29001496 12.6068966,4.5700093 12.6068966,4.86882289 L12.606,7.172 L12.6408728,7.16641932 C12.698187,7.15899759 12.7558614,7.15341427 12.8138242,7.14968637 L12.9885057,7.14408602 C13.6856506,7.14408602 14.3417108,7.41201728 14.8278135,7.88142757 C15.3178407,8.35462764 15.6,8.99874706 15.6,9.68602149 C15.6,10.3732959 15.3178407,11.0174154 14.8278135,11.4906154 C14.3417108,11.9600257 13.6856506,12.227957 12.9885057,12.227957 C12.8715705,12.227957 12.7555011,12.2204671 12.6408728,12.2056237 L12.606,12.199 L12.6068966,14.5032258 C12.6068966,14.7593423 12.5167543,15.0016419 12.358022,15.1940544 L12.2730399,15.2859364 C12.0657665,15.4860922 11.7867595,15.6 11.491954,15.6 L1.51494253,15.6 C1.22013705,15.6 0.94113001,15.4860921 0.733856705,15.2859364 C0.522693707,15.0820246 0.4,14.8020283 0.4,14.5032258 L0.4,4.8688172 C0.4,4.57001471 0.522693686,4.29001842 0.733856669,4.0861066 C0.9411206,3.88595997 1.22012315,3.77204301 1.51495208,3.77204301 L4.034,3.772 C3.96383026,3.57278657 3.91901565,3.3661056 3.90099257,3.15473084 L3.89195402,2.94193548 C3.89195402,2.25466106 4.17411332,1.6105416 4.66414052,1.13734156 C5.15024317,0.667931272 5.80630338,0.4 6.50344828,0.4 Z M6.50344828,1.6 C6.11893706,1.6 5.76125279,1.74607623 5.49771807,2.00056138 C5.2383948,2.2509797 5.09195402,2.58527792 5.09195402,2.94193548 C5.09195402,3.12713523 5.13095004,3.30589949 5.20575566,3.47117936 L5.50166092,4.12496957 L5.88523387,4.97245785 L1.6,4.972 L1.6,14.4 L11.406,14.4 L11.4067531,10.7465408 L12.1222178,10.886813 L12.7009567,11.0002792 C12.7944885,11.0186168 12.8906247,11.027957 12.9885057,11.027957 C13.373017,11.027957 13.7307012,10.8818807 13.994236,10.6273956 C14.2535592,10.3769773 14.4,10.0426791 14.4,9.68602149 C14.4,9.32936392 14.2535592,8.99506572 13.994236,8.7446474 C13.7307012,8.49016224 13.373017,8.34408602 12.9885057,8.34408602 C12.8906247,8.34408602 12.7944885,8.35342621 12.7009568,8.37176382 L12.1222179,8.48523 L11.4067531,8.62550231 L11.406,4.972 L7.12166268,4.97245785 L7.50523563,4.12496957 L7.80114087,3.47117939 C7.87594651,3.30589945 7.91494254,3.12713518 7.91494254,2.94193548 C7.91494254,2.58527794 7.76850176,2.25097971 7.50917844,2.00056136 C7.24564375,1.74607623 6.88795949,1.6 6.50344828,1.6 Z M5.25626864,7 C6.3775241,7 7.10668409,7.65999997 7.29929239,8.85249998 L6.01982297,9.16749998 C5.95103429,8.34250001 5.68963731,7.97499997 5.18747996,7.97499997 C4.63029168,7.97499997 4.30698489,8.68 4.30698489,9.94749999 C4.30698489,11.1625 4.66468602,12.025 5.22875317,12.025 C5.71027392,12.025 5.94415542,11.695 6.05421731,10.87 L7.37495993,11.05 C7.07916862,12.3775 6.4187973,13 5.31817845,13 C3.7910698,13 3,11.9875 3,10 C3,8.1475 3.86673735,7 5.25626864,7 Z M9,7.07499998 L9,12.925 L7.72740945,12.925 L7.72740945,7.07499998 L9,7.07499998 Z" id="形状结合" fill="#262626" fill-rule="nonzero"></path>
    </g>
</svg>