<?xml version="1.0" encoding="UTF-8"?>
<svg width="16px" height="16px" viewBox="0 0 16 16" version="1.1" xmlns="http://www.w3.org/2000/svg" xmlns:xlink="http://www.w3.org/1999/xlink">
    <title>Pools-third menu</title>
    <g id="Pools-third-menu" stroke="none" stroke-width="1" fill="none" fill-rule="evenodd">
        <g id="储存POOL">
            <polygon id="矩形备份-14" points="0 0 16 0 16 16 10.8820796 16 0 16"></polygon>
            <path d="M12.0522222,1.5 C12.6516047,1.5 13.1668259,1.92384021 13.2966779,2.50812398 L15.4062212,11.2984336 C15.4678536,11.4498332 15.5,11.6122472 15.5,11.7781449 L15.5,14.574256 C15.5,15.2791359 14.9290776,15.8520338 14.2222222,15.8520338 L1.77777778,15.8520338 C1.07385763,15.8520338 0.5,15.2781762 0.5,14.574256 L0.5,11.7781449 C0.5,11.6446004 0.520829908,11.5131558 0.551941202,11.4204055 L2.76663187,2.52044774 C2.89350641,1.9277456 3.4111844,1.5 4.01388889,1.5 L12.0522222,1.5 Z M12.0522222,2.5 L4.01388889,2.5 C3.88728109,2.5 3.77354679,2.59397608 3.74076221,2.74583225 L1.51303414,11.6945326 C1.50443002,11.7212244 1.5,11.7491796 1.5,11.7781449 L1.5,14.574256 C1.5,14.7258914 1.62614237,14.8520338 1.77777778,14.8520338 L14.2222222,14.8520338 C14.3760182,14.8520338 14.5,14.7276229 14.5,14.574256 L14.5,11.7781449 C14.5,11.7422382 14.4931836,11.7077994 14.4570005,11.603937 L12.3224776,2.73364276 C12.2912986,2.59343257 12.1777218,2.5 12.0522222,2.5 Z M11.2786428,3.5575 C11.5713163,3.5575 11.8262256,3.7756865 11.8923131,4.08643697 L13.5825,11.1130556 L11.0730015,11.1125093 C10.6986178,11.1124437 10.3891522,11.3905841 10.340106,11.7515275 L10.3333333,11.8520338 C10.3333333,12.7111434 9.63688739,13.4075893 8.77777778,13.4075893 L7.22222222,13.4075893 C6.41084092,13.4075893 5.7445516,12.7863767 5.67302371,11.993621 L5.66666667,11.8520338 C5.66666667,11.4776464 5.38845751,11.1682383 5.02749996,11.1192702 L4.92707133,11.1125182 L2.435,11.1130556 L4.16006731,4.08643697 C4.22300786,3.77899236 4.47791706,3.5575 4.77373761,3.5575 L11.2786428,3.5575 Z M10.977,4.5575 L5.074,4.5575 L3.71,10.1125 L4.92715223,10.1125193 C5.83982416,10.1125193 6.5883312,10.8153928 6.66090023,11.7093665 L6.66666667,11.8520338 C6.66666667,12.1588586 6.91539736,12.4075893 7.22222222,12.4075893 L8.77777778,12.4075893 C9.08460264,12.4075893 9.33333333,12.1588586 9.33333334,11.8519249 L9.33913068,11.7089917 C9.411892,10.8150497 10.1605296,10.1123492 11.0732192,10.1125094 L12.313,10.1125 L10.977,4.5575 Z M10.7222222,6.875 L10.7222222,8.075 L5.27777778,8.075 L5.27777778,6.875 L10.7222222,6.875 Z M9.94444444,5.06666667 L9.94444444,6.26666667 L6.05555556,6.26666667 L6.05555556,5.06666667 L9.94444444,5.06666667 Z" id="形状结合" fill="#262626" fill-rule="nonzero"></path>
        </g>
    </g>
</svg>