<?xml version="1.0" encoding="UTF-8"?>
<svg width="16px" height="16px" viewBox="0 0 16 16" version="1.1" xmlns="http://www.w3.org/2000/svg" xmlns:xlink="http://www.w3.org/1999/xlink">
    <title>PostgreSQL-third menu</title>
    <g id="PostgreSQL-third-menu" stroke="none" stroke-width="1" fill="none" fill-rule="evenodd">
        <rect id="矩形" fill-opacity="0" fill="#F0F0F0" x="0" y="0" width="16" height="16"></rect>
        <g>
            <rect id="边框" fill-opacity="0" fill="#D8D8D8" x="0" y="0" width="16" height="16"></rect>
            <path d="M10.9677795,1 C10.4238155,1.0040463 9.88301313,1.0831546 9.36068164,1.23508546 L9.32393131,1.24675222 C8.99447122,1.18852779 8.66093674,1.15634464 8.32642232,1.15050136 C7.63924947,1.13883459 7.04891081,1.30566942 6.57290652,1.58333859 C6.10390229,1.42058713 5.13089353,1.14000126 4.10538428,1.19600177 C3.39137785,1.23508546 2.61203749,1.45208741 2.03453228,2.06167623 C1.45877709,2.67126506 1.15427435,3.61452356 1.2184416,4.89786847 C1.23594176,5.25195499 1.33685933,5.8294602 1.5042775,6.57730026 C1.67169567,7.32514033 1.90678113,8.20073156 2.20020045,8.99932209 C2.49361976,9.79849595 2.81503933,10.5160024 3.31729384,11.0036735 C3.56812944,11.2480924 3.91346588,11.4534275 4.32063622,11.4365107 C4.60647214,11.4248439 4.86489113,11.2994261 5.08772647,11.1145078 C5.19622745,11.2574258 5.31231184,11.319843 5.41789611,11.3775935 C5.55089731,11.4505108 5.68039848,11.5000946 5.81456635,11.5327616 C6.05548518,11.5928455 6.46790557,11.6733462 6.95090993,11.5910954 C7.11541141,11.5636785 7.28866297,11.5100114 7.46133119,11.433594 C7.46774791,11.6260958 7.47533132,11.8145141 7.48291472,12.0052658 C7.5068316,12.6096046 7.52199841,13.1678597 7.70341671,13.6572807 C7.73258363,13.7371981 7.81250103,14.1490352 8.12750387,14.5124551 C8.44250671,14.8764584 9.05967893,15.1033771 9.76260193,14.9528757 C10.2584397,14.8467081 10.8890287,14.6553731 11.3078659,14.059201 C11.7220362,13.4700291 11.9087046,12.6247714 11.9454549,11.2539257 C11.9537938,11.188228 11.9644953,11.1228517 11.9775386,11.057924 L12.0761228,11.0666741 L12.0877896,11.0666741 C12.6168777,11.0905909 13.1908828,11.0153403 13.6703871,10.7925049 C14.0950576,10.5959198 14.4164772,10.3970013 14.650396,10.0440815 C14.7087298,9.95658072 14.7728971,9.85099643 14.7903972,9.66899479 C14.8078974,9.48699315 14.7034798,9.20232392 14.5302282,9.07107274 C14.1831418,8.8074037 13.9649731,8.90773793 13.7310544,8.95615504 C13.500625,9.00709845 13.265806,9.03562056 13.0298814,9.04132247 C13.7042208,7.90556223 14.1878085,6.69921802 14.4637276,5.6317084 C14.6270624,5.00170273 14.7186466,4.42069749 14.72623,3.91260959 C14.7338134,3.40452167 14.6923964,2.95476762 14.3878936,2.56568077 C13.4364684,1.35000315 12.098873,1.01400013 11.0640303,1.00233336 C11.0319467,1.00175002 10.9998631,1.00116669 10.9677795,1.00175002 L10.9677795,1 Z M10.9403625,1.3733367 C11.9192047,1.36400328 13.1698826,1.63875576 14.0676407,2.78618276 C14.2694759,3.04401842 14.3295597,3.42085514 14.3225597,3.88519266 C14.3149763,4.34894684 14.2292255,4.90428519 14.0723074,5.51270733 C13.7678047,6.69105129 13.1926329,8.06481367 12.3823755,9.29740811 C12.4109919,9.3177391 12.4419334,9.33458067 12.474543,9.34757523 C12.6437112,9.41757586 13.029298,9.47765974 13.7987216,9.31957498 C13.99239,9.27874127 14.1341413,9.25132436 14.2811427,9.36332537 C14.3535602,9.42470771 14.3930647,9.51645315 14.3878936,9.61124427 C14.3800438,9.68204979 14.35391,9.7495955 14.3120596,9.80724603 C14.1633083,10.0306647 13.869889,10.2424166 13.4936356,10.4168349 C13.1605492,10.5720029 12.6827949,10.653087 12.2592911,10.6577537 C12.0469559,10.6600871 11.8509541,10.6437536 11.6847026,10.5918364 L11.6742025,10.5877531 C11.6100353,11.206092 11.4624506,12.4270196 11.3661997,12.984108 C11.289199,13.4332787 11.1544478,13.7902819 10.8971955,14.057451 C10.6405265,14.3246201 10.2771066,14.4856215 9.78826884,14.5906225 C9.18276338,14.720707 8.74117606,14.5807057 8.45650683,14.3409536 C8.17242094,14.1017848 8.04233644,13.7844486 7.96416906,13.5901968 C7.91050191,13.4560289 7.88250166,13.282194 7.85566808,13.0500253 C7.8288345,12.8178565 7.809001,12.5337706 7.7955842,12.2135177 C7.77771472,11.7231469 7.77187958,11.2324115 7.77808404,10.7417545 C7.52514739,10.9734197 7.21083976,11.1273333 6.87274256,11.1850918 C6.47082228,11.2533424 6.11206904,11.1862585 5.89798378,11.1325913 C5.79244902,11.1060855 5.69057293,11.0667065 5.5946477,11.0153403 C5.49548015,10.9622564 5.4009793,10.9021726 5.33797873,10.7837548 C5.30095992,10.7159344 5.28917892,10.6371878 5.30472843,10.5615028 C5.32444409,10.4847805 5.36919668,10.4168305 5.43189624,10.3684178 C5.54739728,10.2745003 5.70023199,10.2219998 5.93065073,10.174166 C6.35007117,10.0878319 6.49648917,10.0289147 6.58573997,9.95833073 C6.661574,9.89766352 6.74732477,9.77516242 6.8989928,9.59549413 C6.89826823,9.5875328 6.8976848,9.57955925 6.89724278,9.57157725 C6.62580599,9.56393963 6.35999707,9.49239107 6.12140245,9.36274203 C6.03390166,9.45490952 5.5870643,9.92741378 5.04222606,10.5830864 C4.812974,10.8572555 4.55980505,11.0147569 4.29263597,11.0258404 C4.0254669,11.0375071 3.78396472,10.9027559 3.57862954,10.7038375 C3.1685425,10.3054172 2.84128955,9.61999435 2.55603698,8.8453207 C2.27136775,8.07064706 2.03978233,7.20788928 1.87528085,6.47288266 C1.71019602,5.73787604 1.61277848,5.14520403 1.59877836,4.85936812 C1.5375278,3.64485717 1.8216137,2.82643314 2.30870143,2.31017847 C2.79637249,1.79392382 3.46487851,1.59850539 4.11646772,1.56117172 C5.2860616,1.49408778 6.39673827,1.90184145 6.62132362,1.98934225 C7.05416086,1.6953396 7.61183255,1.51217129 8.30833882,1.52383806 C8.63899853,1.52847581 8.96802649,1.5711457 9.288931,1.65100587 L9.30059777,1.64575582 C9.44184288,1.59610587 9.5857653,1.55442874 9.73168499,1.52092136 C10.1278897,1.42849409 10.532966,1.37939987 10.9397792,1.37450338 L10.9403625,1.3733367 Z M11.02903,1.76417355 L10.9438626,1.76417355 C10.609656,1.76883439 10.2767176,1.80634857 9.94985362,1.87617456 C10.6766935,2.19817746 11.2256151,2.69401527 11.6123686,3.18868639 C11.8810265,3.53118959 12.1030754,3.90780953 12.2727079,4.30869648 C12.3368751,4.46269787 12.3800422,4.59278238 12.4045424,4.69369995 C12.4167925,4.74445041 12.4249593,4.78703413 12.4278759,4.83136787 C12.4301877,4.85956255 12.4278225,4.88794546 12.4208759,4.91536862 C12.4208759,4.91711864 12.4179592,4.92120201 12.4173759,4.92295202 C12.434876,5.43395662 12.3082915,5.78045974 12.2931247,6.26813081 C12.281458,6.621634 12.3718754,7.03697108 12.3940423,7.49022515 C12.4150425,7.91606233 12.3637087,8.38389987 12.0872062,8.84298734 C12.1105398,8.8709876 12.13154,8.89898785 12.1537068,8.9269881 C12.8852134,7.77489438 13.4125515,6.50029957 13.6937207,5.41353978 C13.8442221,4.82845116 13.9241394,4.29819639 13.9311395,3.8781926 C13.9369729,3.45818882 13.8588055,3.15368607 13.7590546,3.02651826 C12.9762142,2.02550924 11.9168714,1.77059028 11.02903,1.76359022 L11.02903,1.76417355 Z M8.23483816,1.91350823 C7.54533195,1.91525825 7.05066083,2.12351013 6.67557411,2.43559628 C6.28882062,2.75818252 6.02923495,3.19976982 5.85890009,3.65185724 C5.6564816,4.18852874 5.5870643,4.70770009 5.55964739,5.06003659 L5.5672308,5.05536989 C5.77548267,4.93870217 6.04906848,4.82203444 6.34190444,4.75436717 C6.63474042,4.68728323 6.95032658,4.66628304 7.2361625,4.77711738 C7.52199841,4.88795171 7.75825054,5.14870406 7.84400131,5.54420761 C8.25467168,7.4441414 7.71625016,8.15056444 7.51791504,8.68373591 C7.44267271,8.87698682 7.37821193,9.07426408 7.32482996,9.27465791 C7.34991352,9.26882452 7.37499707,9.26182446 7.40008064,9.2594911 C7.5400819,9.24782433 7.64974955,9.29449141 7.71508348,9.32249167 C7.91458527,9.40532575 8.05166985,9.57916064 8.12575385,9.77749577 C8.14500403,9.8294129 8.15900415,9.8854134 8.16717089,9.94316393 C8.17579211,9.96687744 8.17975354,9.99203251 8.17883766,10.0172479 C8.15672087,10.7439646 8.15925013,11.4712223 8.18642106,12.1977676 C8.19983784,12.5116037 8.21967136,12.7881062 8.24475493,13.0062749 C8.26983849,13.2238602 8.30542213,13.3895283 8.32817234,13.4455288 C8.40283967,13.6321972 8.511924,13.876616 8.70909243,14.0428675 C8.90626087,14.2085357 9.1891801,14.31937 9.70601809,14.2085357 C10.1540221,14.1122848 10.4305246,13.9787003 10.615443,13.7867819 C10.799778,13.5948635 10.9100289,13.3276944 10.9806129,12.9187741 C11.0861972,12.3062686 11.2985324,10.5300025 11.3241993,10.1957495 C11.3125326,9.94374726 11.3498662,9.75007886 11.430367,9.60249419 C11.513201,9.45082616 11.6415355,9.35807532 11.7523699,9.30790821 C11.807787,9.28282465 11.8597042,9.26590783 11.9022879,9.25365772 C11.8572046,9.18887093 11.8099268,9.12563922 11.7605366,9.06407267 C11.6007402,8.87027008 11.4698786,8.65432875 11.3720331,8.42298356 C11.3251718,8.3274433 11.2751719,8.2334747 11.2221151,8.14123102 C11.144531,8.00122976 11.0465302,7.82622818 10.9438626,7.62964308 C10.7385274,7.23588954 10.5151087,6.75871857 10.3990243,6.29379771 C10.2835233,5.82946019 10.2666065,5.34878919 10.5629425,5.00986948 C10.8254448,4.70886676 11.2862823,4.5840323 11.9781219,4.65403293 C11.957705,4.59278238 11.9454549,4.54203192 11.911038,4.46036452 C11.7546281,4.09221177 11.5504573,3.7462394 11.3037825,3.43135525 C10.7175272,2.68176516 9.76843532,1.9385918 8.3019221,1.91467491 L8.23483816,1.91467491 L8.23483816,1.91350823 Z M4.36030324,1.94384184 C4.28621924,1.94384184 4.21213525,1.9461752 4.13863458,1.95025856 C3.54946261,1.98409221 2.99237425,2.15501041 2.593954,2.57734755 C2.1949504,2.9996847 1.93244804,3.6921076 1.98961522,4.83836793 C2.00069865,5.05536989 2.09519951,5.6632087 2.25736763,6.38538187 C2.41895242,7.10755504 2.64820449,7.95747938 2.92354029,8.70823613 C3.19945944,9.4589929 3.53371246,10.1123321 3.85104865,10.4215016 C4.01088343,10.5760863 4.14971801,10.6385035 4.27571916,10.6332535 C4.40230363,10.6274201 4.55455501,10.5545028 4.74064001,10.3310841 C5.07991179,9.92183269 5.43203524,9.52340793 5.79648286,9.13640666 C5.27097307,8.68012753 5.01434108,7.98741908 5.11572673,7.2988901 C5.17581061,6.86780288 5.18397734,6.46471592 5.17697728,6.14621304 C5.16997722,5.83587691 5.14781035,5.62937504 5.14781034,5.50045722 C5.14770586,5.49676348 5.14770586,5.49306753 5.14781034,5.4893738 L5.14781034,5.48645709 L5.14722701,5.48295706 L5.14722701,5.48237373 C5.14687987,4.81083076 5.26374559,4.14438029 5.49256345,3.51302265 C5.65589826,3.07901874 5.89915045,2.63801476 6.26373707,2.28101154 C5.90556718,2.16317714 5.26972811,1.98350886 4.58138857,1.94967522 C4.50755918,1.94588363 4.43364654,1.94393856 4.35971991,1.94384184 L4.36030324,1.94384184 Z M11.5925351,5.02503627 C11.1964482,5.03028632 10.9741962,5.13237058 10.8575285,5.26595511 C10.6924436,5.45554015 10.6766935,5.78804315 10.7793611,6.19754684 C10.8814453,6.60763387 11.0926139,7.06613801 11.290949,7.4470581 C11.3901166,7.63780982 11.4863675,7.80931137 11.5639515,7.94872928 C11.6421189,8.08873055 11.6992861,8.1878981 11.7342864,8.2724822 C11.76637,8.35064957 11.8019536,8.41948353 11.8381206,8.48365078 C11.9915387,8.15989786 12.0189556,7.84197834 12.0032055,7.51064201 C11.9827886,7.10055498 11.8877044,6.68113454 11.9017045,6.25646403 C11.9174547,5.7600429 12.0154556,5.43687331 12.0242056,5.05303653 C11.8810611,5.03449363 11.7368756,5.02514106 11.5925351,5.02503627 L11.5925351,5.02503627 Z M6.78932513,5.09212022 C6.66832317,5.09324905 6.54781517,5.10772565 6.42998857,5.13528727 C6.19515677,5.19234159 5.9689712,5.28042253 5.75739917,5.39720629 C5.6858337,5.4355941 5.61771868,5.4800933 5.553814,5.53020749 L5.54098056,5.54187427 C5.54448059,5.6270417 5.5613974,5.83354356 5.56839747,6.13746296 C5.57539753,6.46996596 5.5672308,6.89405312 5.50306354,7.35314059 C5.36364562,8.35064958 6.08756881,9.17665703 6.93807647,9.1778237 C6.98766026,8.97307185 7.06932766,8.76540332 7.15099507,8.54665135 C7.38783054,7.90847894 7.85391807,7.44297474 7.46133119,5.62645836 C7.39716395,5.32895568 7.26999613,5.20878793 7.09499456,5.14112066 C6.99690839,5.10642874 6.89334035,5.08982623 6.78932513,5.09212022 L6.78932513,5.09212022 Z M11.4076168,5.21112129 L11.4367837,5.21112129 C11.4721331,5.21176352 11.5073211,5.21606426 11.5417846,5.22395473 C11.5732849,5.23095479 11.6001185,5.24145489 11.6222854,5.25603836 C11.6452852,5.27027974 11.6611805,5.29359287 11.6660358,5.3202056 L11.6654524,5.32487231 L11.6660358,5.32487231 L11.6654524,5.32487231 C11.6665919,5.35256481 11.6594863,5.37997244 11.6450356,5.40362302 C11.6278319,5.43563978 11.6062335,5.46509219 11.5808683,5.49112381 C11.5216918,5.55628853 11.4424406,5.59981509 11.3556996,5.61479159 C11.2712919,5.62499263 11.1860957,5.60358966 11.1165308,5.55470771 C11.0880557,5.53555279 11.0625114,5.51236647 11.0406968,5.48587377 C11.0218207,5.46506008 11.0090976,5.43941189 11.0039465,5.41178976 C11.0014824,5.38458873 11.0103461,5.35757568 11.0284467,5.33712242 C11.0475876,5.31537317 11.070766,5.29754366 11.0966973,5.28462195 C11.1526978,5.25312167 11.2285318,5.22978812 11.3142826,5.21695467 C11.3463662,5.21228796 11.3778665,5.2099546 11.4076168,5.20937127 L11.4076168,5.21112129 Z M6.84590898,5.30912217 C6.87682592,5.30912217 6.90949289,5.31203886 6.94274319,5.31670556 C7.031994,5.32895568 7.11132805,5.35287255 7.17199526,5.38787288 C7.20158343,5.40331686 7.22792359,5.42430977 7.24957928,5.44970676 C7.27341797,5.476941 7.28483252,5.51287569 7.28107956,5.54887433 C7.27547194,5.58241395 7.26027718,5.61361384 7.23732917,5.63870847 C7.21346393,5.66800801 7.18534646,5.69356935 7.15391176,5.71454249 C7.07804672,5.76828942 6.98485689,5.79179489 6.89257606,5.78045974 C6.79826932,5.76495799 6.71194861,5.71809818 6.64757386,5.64745855 C6.62018609,5.6190137 6.59700681,5.58679844 6.57873991,5.55179102 C6.55951257,5.52098923 6.55109704,5.48465875 6.55482302,5.44854009 C6.5635731,5.38553952 6.61549023,5.35287257 6.6662407,5.33478907 C6.72404949,5.31631726 6.78471369,5.30841313 6.84532564,5.31145552 L6.84590898,5.30912217 Z M12.1309566,9.59257744 L12.1292066,9.59316078 C12.0434558,9.62407772 11.9728718,9.63691117 11.9133713,9.66316141 C11.8531983,9.68632646 11.8035992,9.73073737 11.7739534,9.78799586 C11.7372031,9.8550798 11.7057028,9.97408088 11.7150362,10.1764994 C11.7414275,10.1946711 11.7705811,10.2084599 11.8013703,10.2173331 C11.9011212,10.2476667 12.0685394,10.2675002 12.2552077,10.2645835 C12.6273777,10.2605001 13.0852985,10.1735827 13.3285507,10.060415 C13.5281022,9.96770887 13.7133461,9.84689766 13.878639,9.70166176 L13.8780557,9.70166176 C13.065465,9.86966327 12.6063776,9.82474621 12.324625,9.70866182 C12.2546606,9.67955202 12.1893957,9.64023583 12.1309566,9.59199409 L12.1309566,9.59257744 Z M7.44616439,9.64741127 L7.43391428,9.64741127 C7.40299734,9.65032796 7.35808026,9.66082805 7.27116281,9.75707892 C7.06816098,9.98458097 6.99699368,10.1274989 6.8295755,10.2610835 C6.66215733,10.3940847 6.44457203,10.465252 6.00998479,10.5545028 C5.91716375,10.5710601 5.82680789,10.5992841 5.74106569,10.6385035 C5.7579825,10.6525037 5.75623248,10.6560037 5.78189939,10.6694205 C5.8454833,10.7044208 5.9271507,10.7353377 5.99306796,10.7522546 C6.1797363,10.7989216 6.4865724,10.8531721 6.80682529,10.7989216 C7.12707818,10.7440878 7.46016452,10.5906698 7.74425041,10.1922495 C7.79325086,10.1234155 7.7985009,10.0219146 7.75825054,9.91283032 C7.71741684,9.803746 7.62816603,9.70982849 7.56516546,9.68357826 C7.52767719,9.66548796 7.4874773,9.65366446 7.44616439,9.64857794 L7.44616439,9.64741127 Z" id="形状" fill="#262626" fill-rule="nonzero"></path>
        </g>
    </g>
</svg>