<?xml version="1.0" encoding="UTF-8"?>
<svg width="16px" height="16px" viewBox="0 0 16 16" version="1.1" xmlns="http://www.w3.org/2000/svg" xmlns:xlink="http://www.w3.org/1999/xlink">
    <title>private-certificate-third-menu</title>
    <g id="private-certificate-third-menu" stroke="none" stroke-width="1" fill="none" fill-rule="evenodd">
        <rect id="矩形" fill-opacity="0" fill="#F0F0F0" x="0" y="0" width="16" height="16"></rect>
        <g id="编组">
            <rect id="矩形" fill-opacity="0" fill="#D8D8D8" x="0" y="0" width="16" height="16"></rect>
            <path d="M11,7.8 C12.1045695,7.8 13,8.6954305 13,9.8 C13,10.6198037 12.5067518,11.324403 11.8008369,11.6332166 L11.8,14.7227077 L10.9934452,13.7468682 L10.2006769,14.7227077 L10.2001533,11.6336495 C9.49370949,11.3250618 9,10.6201869 9,9.8 C9,8.6954305 9.8954305,7.8 11,7.8 Z M13.4,2.6 C14.2836556,2.6 15,3.3163444 15,4.2 L15,11.8 C15,12.6836556 14.2836556,13.4 13.4,13.4 L12.8,13.4 L12.8,12.2 L13.4,12.2 C13.6209139,12.2 13.8,12.0209139 13.8,11.8 L13.8,4.2 C13.8,3.9790861 13.6209139,3.8 13.4,3.8 L2.6,3.8 C2.3790861,3.8 2.2,3.9790861 2.2,4.2 L2.2,11.8 C2.2,12.0209139 2.3790861,12.2 2.6,12.2 L8.6,12.2 L8.6,13.4 L2.6,13.4 C1.7163444,13.4 1,12.6836556 1,11.8 L1,4.2 C1,3.3163444 1.7163444,2.6 2.6,2.6 L13.4,2.6 Z M11,9 C10.5581722,9 10.2,9.3581722 10.2,9.8 C10.2,10.2418278 10.5581722,10.6 11,10.6 C11.4418278,10.6 11.8,10.2418278 11.8,9.8 C11.8,9.3581722 11.4418278,9 11,9 Z M5.6,9.584 L5.6,10.544 L3.2,10.544 L3.2,9.584 L5.6,9.584 Z M8,7.664 L8,8.624 L3.2,8.624 L3.2,7.664 L8,7.664 Z M12.8,5.74240838 L12.8,6.70240838 L3.2,6.70240838 L3.2,5.74240838 L12.8,5.74240838 Z" id="形状结合" fill="#000000" fill-rule="nonzero"></path>
        </g>
    </g>
</svg>