<?xml version="1.0" encoding="UTF-8"?>
<svg width="16px" height="16px" viewBox="0 0 16 16" version="1.1" xmlns="http://www.w3.org/2000/svg" xmlns:xlink="http://www.w3.org/1999/xlink">
    <title>process task</title>
    <g id="process-task" stroke="none" stroke-width="1" fill="none" fill-rule="evenodd">
        <rect id="矩形" fill="#000000" opacity="0" x="0" y="0" width="16" height="16"></rect>
        <g id="编组-8" transform="translate(2.000000, 1.300000)" fill="#262626">
            <path d="M9.59230769,0 C10.4717149,0 11.1846154,0.725172588 11.1846154,1.61971831 C11.1846154,2.51426403 10.4717149,3.23943662 9.59230769,3.23943662 C8.8102707,3.23943662 8.15990968,2.66595978 8.02547772,1.90987389 L5.92524377,1.90985915 L5.92461538,6.13885915 L8.07139567,6.13868984 C8.27280865,5.47903035 8.87756311,5 9.59230769,5 C10.4717149,5 11.1846154,5.72517259 11.1846154,6.61971831 C11.1846154,7.51426403 10.4717149,8.23943662 9.59230769,8.23943662 C8.9671103,8.23943662 8.42606914,7.87291837 8.16551433,7.33959171 L5.92461538,7.33885915 L5.92524377,10.7098592 L8.27537462,10.70897 C8.56195704,10.2810153 9.04487041,10 9.59230769,10 C10.4717149,10 11.1846154,10.7251726 11.1846154,11.6197183 C11.1846154,12.514264 10.4717149,13.2394366 9.59230769,13.2394366 C8.8102707,13.2394366 8.15990968,12.6659598 8.02547772,11.9098739 L4.72524377,11.9098592 L4.72461538,7.33885915 L3.01910106,7.33959171 C2.75854625,7.87291837 2.21750508,8.23943662 1.59230769,8.23943662 C0.712900437,8.23943662 0,7.51426403 0,6.61971831 C0,5.72517259 0.712900437,5 1.59230769,5 C2.30705227,5 2.91180673,5.47903035 3.11321972,6.13868984 L4.72461538,6.13885915 L4.72524377,0.709859155 L8.27537462,0.708970008 C8.56195704,0.281015341 9.04487041,0 9.59230769,0 Z" id="形状结合"></path>
        </g>
    </g>
</svg>