
<?xml version="1.0" encoding="UTF-8"?>
<svg width="16px" height="16px" viewBox="0 0 16 16" version="1.1" xmlns="http://www.w3.org/2000/svg" xmlns:xlink="http://www.w3.org/1999/xlink">
    <title>product-objective-third-menu</title>
    <g id="product-objective-third-menu" stroke="none" stroke-width="1" fill="none" fill-rule="evenodd">
        <path d="M14,1 C14.5522847,1 15,1.44771525 15,2 L15,11.4 C15,11.7313708 14.7313708,12 14.4,12 C14.0686292,12 13.8,11.7313708 13.8,11.4 L13.8,2.2 L13.8,2.2 L2.2,2.2 L2.2,13.8 L10.4,13.8 C10.7313708,13.8 11,14.0686292 11,14.4 C11,14.7313708 10.7313708,15 10.4,15 L2,15 L2,15 C1.44771525,15 1,14.5522847 1,14 L1,2 C1,1.44771525 1.44771525,1 2,1 L14,1 Z" id="路径" fill="#262626" fill-rule="nonzero"></path>
        <rect id="矩形" fill="#262626" x="4" y="3.5" width="1.2" height="8" rx="0.5"></rect>
        <rect id="矩形备份-2" fill="#262626" x="7.3" y="3.5" width="1.2" height="4" rx="0.5"></rect>
        <rect id="矩形备份-3" fill="#262626" x="10.6" y="3.5" width="1.2" height="6" rx="0.5"></rect>
    </g>
</svg>