<?xml version="1.0" encoding="UTF-8"?>
<svg width="16px" height="16px" viewBox="0 0 16 16" version="1.1" xmlns="http://www.w3.org/2000/svg" xmlns:xlink="http://www.w3.org/1999/xlink">
    <title>project list</title>
    <g id="project-list" stroke="none" stroke-width="1" fill="none" fill-rule="evenodd">
        <g>
            <rect id="矩形" fill="#000000" opacity="0" x="0" y="0" width="16" height="16"></rect>
            <path d="M5.63868741,1.4 C5.93539039,1.4 6.22652251,1.48064132 6.48092855,1.6332915 L8.58091904,2.89327749 C8.64883269,2.93402743 8.72655374,2.95555556 8.80575704,2.95555556 L13.962963,2.95555556 C14.8670841,2.95555556 15.6,3.68848162 15.6,4.59259259 L15.6,6.5 C15.6,6.83137085 15.3313708,7.1 15,7.1 L1.6,7.1 L1.6,13.875 C1.6,14.0959139 1.7790861,14.275 2,14.275 L14,14.275 C14.2209139,14.275 14.4,14.0959139 14.4,13.875 L14.4,9.7468631 C14.4,9.41549225 14.6686292,9.1468631 15,9.1468631 C15.3313708,9.1468631 15.6,9.41549225 15.6,9.7468631 L15.6,13.875 C15.6,14.7586556 14.8836556,15.475 14,15.475 L2,15.475 C1.1163444,15.475 0.4,14.7586556 0.4,13.875 L0.4,3.03703704 C0.4,2.13293137 1.13293137,1.4 2.03703704,1.4 L5.63868741,1.4 Z M5.81868452,8.15152123 L6.65800994,9.00915335 L6.22919388,9.42881606 L4.862,10.765 L6.22404419,12.066204 L6.65784017,12.480717 L5.82881414,13.348309 L5.39501815,12.933796 L3.58548698,11.2047016 C3.34021051,10.9703281 3.33787657,10.5793748 3.58033729,10.3420895 L5.38986846,8.57118394 L5.81868452,8.15152123 Z M9.68131548,8.15152123 L10.1101315,8.57118394 L11.9196627,10.3420895 C12.1621234,10.5793748 12.1597895,10.9703281 11.914513,11.2047016 L10.1049818,12.933796 L9.67118586,13.348309 L8.84215983,12.480717 L9.27595581,12.066204 L10.638,10.765 L9.27080612,9.42881606 L8.84199006,9.00915335 L9.68131548,8.15152123 Z M5.63868741,2.6 L2.03703704,2.6 C1.79567307,2.6 1.6,2.79567307 1.6,3.03703704 L1.6,5.9 L14.4,5.9 L14.4,4.59259259 C14.4,4.37803883 14.2454034,4.19960076 14.0415227,4.16259667 L13.962963,4.15555556 L8.80575704,4.15555556 C8.50905406,4.15555556 8.21792193,4.07491423 7.96351589,3.92226406 L5.8635254,2.66227806 C5.79561176,2.62152813 5.7178907,2.6 5.63868741,2.6 Z" fill="#262626" fill-rule="nonzero"></path>
        </g>
    </g>
</svg>