<?xml version="1.0" encoding="UTF-8"?>
<svg width="16px" height="16px" viewBox="0 0 16 16" version="1.1" xmlns="http://www.w3.org/2000/svg" xmlns:xlink="http://www.w3.org/1999/xlink">
    <title>queue-service-drm-third-menu</title>
    <g id="queue-service-drm-third-menu" stroke="none" stroke-width="1" fill="none" fill-rule="evenodd">
        <rect id="矩形" fill-opacity="0" fill="#F0F0F0" x="1" y="1" width="14" height="14"></rect>
        <g id="队列备份">
            <g id="编组">
                <rect id="矩形" x="0" y="0" width="16" height="16"></rect>
            </g>
            <g id="应用性能管理备份-2" transform="translate(1.000000, 1.800000)" fill="#262626" fill-rule="nonzero">
                <g id="编组">
                    <path d="M1.6,1.5 L1.599,2 L2.3,2 C2.85228475,2 3.3,2.44771525 3.3,3 L3.3,9.8 L8.7,9.8 C9.25228475,9.8 9.7,10.2477153 9.7,10.8 L9.7,11.9 C9.7,12.1761424 9.47614237,12.4 9.2,12.4 C8.92385763,12.4 8.7,12.1761424 8.7,11.9 L8.7,10.8 L3.3,10.8 C2.74771525,10.8 2.3,10.3522847 2.3,9.8 L2.3,3 L1.599,3 L1.6,3.5 L0,2.5 L1.6,1.5 Z M5.2,-1.77635684e-15 C5.47614237,-1.77635684e-15 5.7,0.223857625 5.7,0.5 L5.7,1.6 L10.7,1.6 C11.2522847,1.6 11.7,2.04771525 11.7,2.6 L11.7,9.4 L12.4,9.399 L12.4,8.9 L14,9.9 L12.4,10.9 L12.4,10.399 L11.7,10.4 C11.1477153,10.4 10.7,9.95228475 10.7,9.4 L10.7,2.6 L5.7,2.6 C5.14771525,2.6 4.7,2.15228475 4.7,1.6 L4.7,0.5 C4.7,0.223857625 4.92385763,-1.77635684e-15 5.2,-1.77635684e-15 Z M4.6,5.9 C4.93137085,5.9 5.2,6.16862915 5.2,6.5 C5.2,6.83137085 4.93137085,7.1 4.6,7.1 C4.26862915,7.1 4,6.83137085 4,6.5 C4,6.16862915 4.26862915,5.9 4.6,5.9 Z M7,5.9 C7.33137085,5.9 7.6,6.16862915 7.6,6.5 C7.6,6.83137085 7.33137085,7.1 7,7.1 C6.66862915,7.1 6.4,6.83137085 6.4,6.5 C6.4,6.16862915 6.66862915,5.9 7,5.9 Z M9.4,5.9 C9.73137085,5.9 10,6.16862915 10,6.5 C10,6.83137085 9.73137085,7.1 9.4,7.1 C9.06862915,7.1 8.8,6.83137085 8.8,6.5 C8.8,6.16862915 9.06862915,5.9 9.4,5.9 Z" id="形状结合"></path>
                </g>
            </g>
        </g>
    </g>
</svg>