<?xml version="1.0" encoding="UTF-8"?>
<svg width="16px" height="16px" viewBox="0 0 16 16" version="1.1" xmlns="http://www.w3.org/2000/svg" xmlns:xlink="http://www.w3.org/1999/xlink">
    <title>queue-third-menu</title>
    <g id="queue-third-menu" stroke="none" stroke-width="1" fill="none" fill-rule="evenodd">
        <g id="Mysql">
            <rect id="矩形" x="0" y="0" width="16" height="16"></rect>
            <g id="MysQL">
                <rect id="矩形备份" x="0" y="0" width="16" height="16"></rect>
            </g>
        </g>
        <g id="编组-3" transform="translate(0.500000, 2.000000)">
            <g id="编组-2">
                <path d="M1.3,1 L1.8,1 C2.35228475,1 2.8,1.44771525 2.8,2 L2.8,9.8 C2.8,10.3522847 3.24771525,10.8 3.8,10.8 L8.7,10.8 C9.25228475,10.8 9.7,11.2477153 9.7,11.8 L9.7,12.4 L9.7,12.4" id="路径-5" stroke="#262626" stroke-width="1.2" stroke-linecap="round" fill-rule="nonzero"></path>
                <polygon id="路径-2" fill="#262626" transform="translate(0.800000, 1.000000) rotate(-180.000000) translate(-0.800000, -1.000000) " points="2.47249443e-13 2 1.34450784e-13 0 1.6 1"></polygon>
            </g>
            <circle id="椭圆形" fill="#262626" cx="5.1" cy="6" r="1"></circle>
            <circle id="椭圆形备份" fill="#262626" cx="7.5" cy="6" r="1"></circle>
            <circle id="椭圆形备份" fill="#262626" cx="9.9" cy="6" r="1"></circle>
            <g id="编组-2" transform="translate(10.350000, 6.200000) rotate(-180.000000) translate(-10.350000, -6.200000) translate(5.700000, 0.000000)">
                <path d="M1.3,1 L1.8,1 C2.35228475,1 2.8,1.44771525 2.8,2 L2.8,9.8 C2.8,10.3522847 3.24771525,10.8 3.8,10.8 L8.3,10.8 C8.85228475,10.8 9.3,11.2477153 9.3,11.8 L9.3,12.4 L9.3,12.4" id="路径-5" stroke="#262626" stroke-width="1.2" stroke-linecap="round" fill-rule="nonzero"></path>
                <polygon id="路径-2" fill="#262626" transform="translate(0.800000, 1.000000) rotate(-180.000000) translate(-0.800000, -1.000000) " points="-5.23447745e-14 2 6.16973346e-14 0 1.6 1"></polygon>
            </g>
        </g>
    </g>
</svg>