<?xml version="1.0" encoding="UTF-8"?>
<svg width="16px" height="16px" viewBox="0 0 16 16" version="1.1" xmlns="http://www.w3.org/2000/svg" xmlns:xlink="http://www.w3.org/1999/xlink">
    <title>Redis-third menu</title>
    <g id="Redis-third-menu" stroke="none" stroke-width="1" fill="none" fill-rule="evenodd">
        <g id="Redis">
            <rect id="矩形备份-4" opacity="0.446149554" x="0" y="0" width="16" height="16"></rect>
            <path d="M15,11.7 C15.0003095,11.809844 14.897646,11.9202261 14.6920088,12.0044147 L8.74355653,14.4397324 C8.3329016,14.607856 7.6670984,14.607856 7.25644347,14.4397324 L1.3079912,12.0044147 C1.10235404,11.9202261 0.999690539,11.809844 1,11.6995015 L1,3.8658251 C1.00030993,3.75531635 1.10297343,3.6453454 1.3079912,3.56141039 L7.25644347,1.1260927 C7.6670984,0.957969099 8.3329016,0.957969099 8.74355653,1.1260927 L14.6920088,3.56141039 C15.1026637,3.72953399 15.1026637,4.00211621 14.6920088,4.17023981 L8.74355653,6.6055575 C8.3329016,6.7736811 7.6670984,6.7736811 7.25644347,6.6055575 L1.99965509,4.453 L1.99965509,7.083 L7.25644347,9.2355575 C7.6670984,9.4036811 8.3329016,9.4036811 8.74355653,9.2355575 L13.9996551,7.083 L14,5.99160149 C14,5.71545912 14.2238576,5.49160149 14.5,5.49160149 C14.7761424,5.49160149 15,5.71545912 15,5.99160149 L15,11.7 Z M13.9996551,8.287 L8.74355653,10.4397324 C8.3329016,10.607856 7.6670984,10.607856 7.25644347,10.4397324 L1.99965509,8.287 L1.99965509,11.083 L7.25644347,13.2355575 C7.6670984,13.4036811 8.3329016,13.4036811 8.74355653,13.2355575 L13.9996551,11.083 L13.9996551,8.287 Z M9.16986301,4.61332347 C6.98858319,4.83566615 5.89460246,4.95519954 5.8879208,4.97192365 C5.88378454,4.98227667 6.20345175,5.11647431 6.84692244,5.37451657 L7.16690087,5.50240669 C7.50987127,5.63909052 7.92181755,5.80215546 8.40273973,5.99160149 L9.16986301,4.61332347 Z M11.2027397,2.93703938 C10.5829022,3.18678323 10.0075597,3.42270469 9.47671233,3.64480377 C9.38464498,3.68332346 9.38251971,3.71899219 9.47671233,3.75655605 C10.0766639,3.9958157 10.7287187,4.24415409 11.4328767,4.50157119 C12.0650702,4.27590764 12.6404127,4.03998618 13.1589041,3.7938068 C13.2441807,3.75331753 13.2479175,3.72104091 13.1589041,3.68205453 C12.5661916,3.42245631 11.9141368,3.17411793 11.2027397,2.93703938 Z M3.39588114,3.34679772 C3.09657793,3.44454097 2.9710821,3.64417228 2.99748886,3.7938068 C3.02389562,3.94344132 3.1441351,4.12933198 3.49315068,4.24081589 C3.84216627,4.3522998 4.26846272,4.41314266 4.65541047,4.41314266 C5.04235822,4.41314266 5.38247046,4.38981892 5.75616438,4.27806665 C6.1298583,4.16631438 6.2006406,4.05119334 6.17140541,3.85294596 C6.14217022,3.65469859 5.96197802,3.45854999 5.57841637,3.34679772 C5.19485473,3.23504544 4.96313619,3.21722671 4.53416057,3.2029687 C4.10518494,3.18871069 3.69518435,3.24905446 3.39588114,3.34679772 Z M6.70587752,1.70776439 C6.69668654,1.72086745 6.69633368,1.74587613 6.71506849,1.78226591 C6.72755837,1.80652576 6.82984148,1.98036262 7.02191781,2.30377651 C6.57521184,2.37386563 6.13349977,2.44514025 5.69678158,2.51760037 C5.55738974,2.54072822 5.59686906,2.58452811 5.67945205,2.60178257 C5.72317117,2.61091701 6.2218013,2.63575085 7.17534247,2.67628408 C7.26737489,2.90471195 7.369658,3.12821649 7.48219178,3.34679772 C7.48599384,3.35418269 7.51170656,3.35347617 7.52054795,3.34679772 C7.74479068,3.17741315 7.96214227,3.00357628 8.17260274,2.82528711 L9.66849315,2.89978863 C9.66849315,2.89978863 9.74311659,2.90420171 9.74311659,2.86695095 C9.74311659,2.8297002 9.70684932,2.82528711 9.70684932,2.82528711 L8.63287671,2.41552878 C8.83712207,2.25522746 9.02890289,2.09380751 9.20821918,1.93126893 C9.22691599,1.91432149 9.21782345,1.90246788 9.20821918,1.89401818 C9.20181633,1.88838505 9.18903094,1.88838505 9.16986301,1.89401818 L7.86575342,2.11752272 L6.75342466,1.70776439 C6.72785388,1.69902902 6.71200483,1.69902902 6.70587752,1.70776439 Z" id="形状结合" fill="#262626" fill-rule="nonzero"></path>
        </g>
    </g>
</svg>