<?xml version="1.0" encoding="UTF-8"?>
<svg width="16px" height="16px" viewBox="0 0 16 16" version="1.1" xmlns="http://www.w3.org/2000/svg" xmlns:xlink="http://www.w3.org/1999/xlink">
    <title>requirement-global-ranking-third-menu</title>
    <g id="requirement-global-ranking-third-menu" stroke="none" stroke-width="1" fill="none" fill-rule="evenodd">
        <g id="编组备份" transform="translate(1.000000, 1.000000)">
            <rect id="矩形" x="0" y="0" width="14" height="14"></rect>
            <path d="M1.5,4.75 L3.5,4.75 C4.05228475,4.75 4.5,5.19771525 4.5,5.75 L4.5,13.5 L4.5,13.5 L0.5,13.5 L0.5,5.75 C0.5,5.19771525 0.94771525,4.75 1.5,4.75 Z" id="矩形" stroke="#262626" stroke-width="1.2" fill-rule="nonzero"></path>
            <path d="M5.6,1.25 L8.2,1.25 C8.75228475,1.25 9.2,1.69771525 9.2,2.25 L9.2,13.5 L9.2,13.5 L4.6,13.5 L4.6,2.25 C4.6,1.69771525 5.04771525,1.25 5.6,1.25 Z" id="矩形备份-2" stroke="#262626" stroke-width="1.2"></path>
            <path d="M10.9365716,13.5 L9.2,13.5 L9.2,8.375 C9.2,7.82271525 9.64771525,7.375 10.2,7.375 L12.4,7.375 C12.9522847,7.375 13.4,7.82271525 13.4,8.375 L13.4,11.5" id="路径" stroke="#262626" stroke-width="1.2" stroke-linecap="round" fill-rule="nonzero"></path>
        </g>
    </g>
</svg>