<?xml version="1.0" encoding="UTF-8"?>
<svg width="16px" height="16px" viewBox="0 0 16 16" version="1.1" xmlns="http://www.w3.org/2000/svg" xmlns:xlink="http://www.w3.org/1999/xlink">
    <title>resource-instance-third-menu</title>
    <g id="resource-instance-third-menu" stroke="none" stroke-width="1" fill="none" fill-rule="evenodd">
        <rect id="矩形" fill-opacity="0" fill="#F0F0F0" x="0" y="0" width="16" height="16"></rect>
        <g id="资源实例" transform="translate(0.161145, 1.000000)">
            <rect id="矩形" fill="#FFFFFF" opacity="0" x="0.838855039" y="0" width="14" height="14"></rect>
            <path d="M15.3537732,8.96025753 C15.6449612,9.11842264 15.7527975,9.4826953 15.5946324,9.77388327 L13.8348613,13.0136887 C13.5549117,13.5290865 13.0154021,13.85 12.4288813,13.85 L3.31203295,13.85 C2.73542005,13.85 2.20340914,13.5397425 1.91946843,13.0378858 L0.0778933457,9.78295718 C-0.0852831506,9.49454763 0.016238302,9.1284648 0.304647857,8.96528831 C0.593057411,8.80211181 0.959140237,8.90363326 1.12231673,9.19204282 L2.96389182,12.4469715 C3.034877,12.5724356 3.16787972,12.65 3.31203295,12.65 L12.4288813,12.65 C12.5755115,12.65 12.7103889,12.5697716 12.7803763,12.4409222 L14.5401475,9.20111673 C14.6983126,8.90992875 15.0625852,8.80209242 15.3537732,8.96025753 Z M8.11417134,0.9 C9.68914976,0.9 11.1647737,1.21214014 12.2550661,1.75728634 C13.2888086,2.27416627 13.8947555,2.95961502 13.954674,3.68845744 C13.9566368,3.70492086 13.9573794,3.72217001 13.9573794,3.7395926 L13.9590112,3.76713571 L13.959586,3.80808956 L13.9568369,3.849 L13.9572152,3.96157898 C13.9559014,4.87957261 13.9467033,6.15823324 13.9295897,7.80078925 C13.9172501,8.56629022 13.3046052,9.28913063 12.2251441,9.82887026 C11.1348554,10.3740147 9.65923137,10.6861548 8.08425295,10.6861548 C6.50926944,10.6861548 5.03362839,10.3740125 3.94335337,9.82887026 C2.8532218,9.28380447 2.23883686,8.5512728 2.23883686,7.77806523 L2.23916573,7.7520064 L2.26879032,3.80358795 L2.2759392,3.66362565 C2.34742773,2.94404782 2.9512733,2.26828377 3.97326989,1.75728547 C5.06354678,1.21214225 6.53918783,0.9 8.11417134,0.9 Z M3.45404013,5.56197656 L3.43785504,7.7775926 C3.43885504,8.01620241 3.75485459,8.39298008 4.48001157,8.75555857 C5.39429805,9.21270582 6.68701806,9.48615479 8.08425295,9.48615479 C9.48148329,9.48615479 10.7741873,9.21270788 11.6884842,8.75555944 C12.4082556,8.39566769 12.7258856,8.02090602 12.7297002,7.78487103 C12.7383318,6.95597292 12.7449443,6.21973206 12.7495381,5.57621821 C12.598519,5.67581393 12.4331381,5.76985532 12.2550625,5.85889459 C11.1647737,6.40403899 9.68914976,6.71617912 8.11417134,6.71617912 C6.53918783,6.71617912 5.06354678,6.40403687 3.97327177,5.85889459 C3.7859054,5.76521141 3.61259361,5.6659903 3.45404013,5.56197656 Z M8.11417134,2.1 C6.71693646,2.1 5.42421645,2.37344897 4.50992808,2.83059716 C3.78477298,3.19317471 3.46877343,3.56995238 3.46877343,3.80808956 C3.46877343,4.04622674 3.78477298,4.42300441 4.50992996,4.78558291 C5.42421645,5.24273015 6.71693646,5.51617912 8.11417134,5.51617912 C9.51140169,5.51617912 10.8041057,5.24273222 11.7184026,4.78558377 C12.4210525,4.43425289 12.7395736,4.06958175 12.7586699,3.83065848 C12.7573605,3.8144679 12.7573676,3.79934059 12.7573723,3.78432203 L12.759586,3.80808956 C12.759586,3.5699744 12.4435608,3.19318057 11.7184062,2.83059716 C10.8041057,2.37344691 9.51140169,2.1 8.11417134,2.1 Z" id="形状结合" fill="#262626" fill-rule="nonzero"></path>
        </g>
    </g>
</svg>