<?xml version="1.0" encoding="UTF-8"?>
<svg width="16px" height="16px" viewBox="0 0 16 16" version="1.1" xmlns="http://www.w3.org/2000/svg" xmlns:xlink="http://www.w3.org/1999/xlink">
    <title>rocketmq-third-menu</title>
    <g id="rocketmq-third-menu" stroke="none" stroke-width="1" fill="none" fill-rule="evenodd">
        <rect id="矩形" fill-opacity="0" fill="#F0F0F0" x="0" y="0" width="16" height="16"></rect>
        <g id="apacherocketmq" transform="translate(0.629387, 0.000000)">
            <rect id="矩形" fill-opacity="0" fill="#D8D8D8" x="0.370613203" y="1" width="14" height="14"></rect>
            <g id="图形">
                <path d="M8.20693768,13.5956511 C8.13626823,14.1520998 7.91569283,14.558245 7.55264774,14.9177686 C7.2688568,14.746419 7.05065539,14.5539112 6.89523319,14.3409207 C6.78420176,14.1887633 6.70743463,14.0269917 6.66124579,13.8583221 Z M7.44115376,0.620982189 C10.9323502,3.22980883 12.7183228,6.12285109 12.7183228,9.33333333 C12.7183228,10.4076188 12.6022717,11.4380445 12.3887934,12.3933547 L12.329,12.639 L12.2944709,12.6185377 C12.0631206,12.4747563 11.9495055,12.3831422 11.8798807,12.3180132 L11.8292554,12.2680754 C11.8148247,12.2531922 11.802265,12.239872 11.7898564,12.2275159 L3.56200492,11.941013 C3.30480403,12.1698008 3.12629731,12.3378677 2.99816159,12.4636677 C2.27829667,11.5553595 2.16276729,10.463832 2.16276729,9.33333333 C2.16276729,6.12264971 3.94896401,3.2294459 7.44115376,0.620982189 Z M0.744270263,12.1158785 C0.95037002,12.2710497 0.993343764,12.553034 1.04283675,12.8305538 L0.628761301,12.8303913 C0.615903167,12.3869738 0.625955082,12.2069566 0.744270263,12.1158785 Z" id="形状" stroke="#262626"></path>
                <path d="M9.51130211,4.81006188 C9.76235141,5.06111118 9.80696197,5.45218868 9.61890129,5.75332765 C9.4308406,6.05446661 9.0598567,6.1860062 8.72410062,6.0705967 L8.48876729,6.30593005 C8.8709508,6.8580103 8.83317008,7.59829341 8.39676729,8.1085967 L8.61610062,8.40793005 C8.71676729,8.37259672 8.82410062,8.35193005 8.93676729,8.35193005 C9.46875676,8.353033 9.89943396,8.78460609 9.89943396,9.3165967 C9.89866073,9.72076651 9.6456776,10.0814792 9.26593557,10.2198621 C8.88619355,10.358245 8.46044682,10.2448702 8.1998176,9.93595884 C7.93918838,9.62704746 7.89910088,9.18829113 8.09943396,8.83726338 L7.85876729,8.5085967 C7.33875399,8.73714582 6.73380051,8.64776297 6.30210062,8.2785967 L6.03343396,8.51193005 C6.08457411,8.75091926 5.97950894,8.9961901 5.77122356,9.12405079 C5.56293818,9.25191148 5.29667437,9.23458932 5.10671081,9.08082001 C4.91674726,8.92705069 4.84434604,8.67023454 4.92601961,8.4398857 C5.00769317,8.20953687 5.22570115,8.05568957 5.47010062,8.05593005 C5.53943395,8.05593005 5.60476729,8.06993005 5.66610062,8.0925967 L5.95210062,7.84393005 C5.67949384,7.33331402 5.7300436,6.71056191 6.08143396,6.2505967 L5.78076729,5.92393005 C5.75876729,5.92659672 5.73743396,5.93059672 5.71543396,5.9305967 C5.50728801,5.93092241 5.32165117,5.79971181 5.25249943,5.6033884 C5.1833477,5.40706498 5.24577408,5.18847815 5.40817611,5.05828434 C5.57057813,4.92809054 5.79751008,4.91470577 5.97409088,5.02490588 C6.15067169,5.13510598 6.23836097,5.34483879 6.19276729,5.54793005 L6.49610062,5.87793005 C6.95408449,5.59869525 7.52740666,5.58950985 7.99410062,5.85393005 L8.25076729,5.59726338 C8.1353578,5.2615073 8.26689739,4.89052339 8.56803635,4.70246271 C8.86917531,4.51440203 9.26025282,4.55901259 9.51130211,4.81006188 Z M6.66743396,6.96193005 C6.59722288,6.95598016 6.52964449,6.9900732 6.4927077,7.0500788 C6.45577091,7.11008439 6.45577091,7.1857757 6.4927077,7.2457813 C6.52964449,7.30578689 6.59722288,7.33987994 6.66743396,7.33393005 C6.76407048,7.32574079 6.83833845,7.24491293 6.83833845,7.14793005 C6.83833845,7.05094716 6.76407048,6.97011931 6.66743396,6.96193005 Z M7.26410062,6.96193005 C7.19388953,6.95598016 7.12631114,6.9900732 7.08937436,7.0500788 C7.05243757,7.11008439 7.05243757,7.1857757 7.08937436,7.2457813 C7.12631114,7.30578689 7.19388953,7.33987994 7.26410062,7.33393005 C7.36073713,7.32574079 7.43500511,7.24491293 7.43500511,7.14793005 C7.43500511,7.05094716 7.36073713,6.97011931 7.26410062,6.96193005 Z M7.86076729,6.96193005 C7.79055621,6.95598016 7.72297782,6.9900732 7.68604103,7.0500788 C7.64910424,7.11008439 7.64910424,7.1857757 7.68604103,7.2457813 C7.72297782,7.30578689 7.79055621,7.33987994 7.86076729,7.33393005 C7.95740381,7.32574079 8.03167178,7.24491293 8.03167178,7.14793005 C8.03167178,7.05094716 7.95740381,6.97011931 7.86076729,6.96193005 Z" id="形状结合" fill="#262626" fill-rule="nonzero"></path>
            </g>
        </g>
    </g>
</svg>