<?xml version="1.0" encoding="UTF-8"?>
<svg width="16px" height="16px" viewBox="0 0 16 16" version="1.1" xmlns="http://www.w3.org/2000/svg" xmlns:xlink="http://www.w3.org/1999/xlink">
    <title>role-permissions-third-menu</title>
    <g id="role-permissions-third-menu" stroke="none" stroke-width="1" fill="none" fill-rule="evenodd">
        <rect id="矩形" fill-opacity="0" fill="#F0F0F0" x="0" y="0" width="16" height="16"></rect>
        <g id="elasticsearch" transform="translate(0.399981, 0.400000)">
            <rect id="矩形" fill-opacity="0" fill="#D8D8D8" x="0.600019446" y="0.6" width="14" height="14"></rect>
            <path d="M6.28510319,0 C8.3706034,0 10.0612076,1.6906287 10.0612076,3.77613774 C10.0612076,5.50645145 8.8974263,6.96493917 7.30989854,7.41154647 L7.43789495,7.41097301 C8.34224084,7.41097301 9.19644159,7.55855952 9.97264497,7.84431783 C10.283612,7.95879995 10.4428945,8.30369461 10.3284123,8.61466163 C10.2139302,8.92562864 9.86903556,9.08491113 9.55806855,8.97042901 C8.91669538,8.73430828 8.20285591,8.61097301 7.43789495,8.61097301 L6.28495595,8.61097301 C3.39536125,8.61097301 1.33822473,10.3899059 1.20181166,12.8171387 C1.17108948,13.3638145 1.53256014,13.7632112 2.05011087,13.7632112 L7.60001945,13.7632112 C7.9313903,13.7632112 8.20001945,14.0318403 8.20001945,14.3632112 C8.20001945,14.694582 7.9313903,14.9632112 7.60001945,14.9632112 L2.05011087,14.9632112 C0.831162604,14.9632112 -0.0650379448,13.97298 0.00370221766,12.7498054 C0.162967388,9.91595943 2.36979926,7.78625653 5.44107674,7.45570588 C3.76177306,7.07403193 2.50897919,5.57138694 2.50897919,3.77613774 C2.50897919,1.6906344 4.19960709,0 6.28510319,0 Z M12.4562694,8.275 L13.5875194,8.90625 L13.7581378,8.76529164 L14.4643878,9.47154164 L11.8875194,12.01875 C12.2437694,12.68125 12.1437694,13.525 11.5875194,14.0875 C10.9062694,14.76875 9.79376945,14.76875 9.11251945,14.0875 C8.42501945,13.40625 8.42501945,12.3 9.11251945,11.6125 C9.67501945,11.05 10.5187694,10.95 11.1812694,11.3125 L12.9812694,9.5125 L12.1000194,8.63125 L12.4562694,8.275 Z M9.81876945,12.31875 C9.52501945,12.6125 9.52501945,13.0875 9.81876945,13.38125 C10.1125194,13.675 10.5875194,13.675 10.8812694,13.38125 C11.1750194,13.0875 11.1750194,12.6125 10.8812694,12.31875 C10.5875194,12.025 10.1125194,12.025 9.81876945,12.31875 Z M6.28510319,1.2 C4.86234982,1.2 3.70897919,2.35337506 3.70897919,3.77613774 C3.70897919,5.19889085 4.86235008,6.35226174 6.28510319,6.35226174 C7.70785755,6.35226174 8.86120756,5.19889942 8.86120756,3.77613774 C8.86120756,2.3533665 7.7078578,1.2 6.28510319,1.2 Z" id="形状结合" fill="#262626" fill-rule="nonzero"></path>
        </g>
    </g>
</svg>