<?xml version="1.0" encoding="UTF-8"?>
<svg width="16px" height="16px" viewBox="0 0 16 16" version="1.1" xmlns="http://www.w3.org/2000/svg" xmlns:xlink="http://www.w3.org/1999/xlink">
    <title>role-info-third-menu</title>
    <g id="role-info-third-menu" stroke="none" stroke-width="1" fill="none" fill-rule="evenodd">
        <rect id="矩形" fill-opacity="0" fill="#F0F0F0" x="0" y="0" width="16" height="16"></rect>
        <g id="用户角色" transform="translate(0.399981, 0.662848)">
            <rect id="矩形" fill-opacity="0" fill="#D8D8D8" x="0.731443616" y="0.337151703" width="14.0185759" height="14.0185759"></rect>
            <path d="M9.47977504,7.2690113 L9.83343259,7.38951836 C12.1143315,8.16672337 13.6070351,10.0640011 13.735761,12.3544544 C13.8045671,13.5788014 12.9075322,14.5699546 11.6874319,14.5699546 L2.05203494,14.5699546 C0.83193464,14.5699546 -0.065100277,13.5788014 0.003705871,12.3544527 C0.132304661,10.0662615 1.62223777,8.17029457 3.89965856,7.39169444 L4.25357143,7.2706994 L6.86601947,9.883 L9.47977504,7.2690113 Z M9.78901947,8.656 L7.29030383,11.1561154 L6.86602328,11.5804764 L6.44171896,11.1561391 L3.94401947,8.659 L3.86327056,8.69289044 C2.354456,9.35876761 1.38179114,10.6540212 1.21897245,12.2082721 L1.20181531,12.421786 C1.17102715,12.9696359 1.53333218,13.3699546 2.05203494,13.3699546 L11.6874319,13.3699546 C12.2061346,13.3699546 12.5684396,12.9696359 12.5376516,12.4217877 C12.4448997,10.7714293 11.451636,9.38635959 9.871661,8.69089173 L9.78901947,8.656 Z M14.7500195,8.06068111 L14.7500195,9.26068111 L12.559617,9.26068111 L12.559617,8.06068111 L14.7500195,8.06068111 Z M6.84661487,0 C8.93444253,0 10.6269334,1.69251547 10.6269334,3.78035199 C10.6269334,5.86817996 8.93444125,7.56069021 6.84661487,7.56069021 C4.7587926,7.56069021 3.06627664,5.86817425 3.06627664,3.78035199 C3.06627664,1.69252118 4.75879131,0 6.84661487,0 Z M14.7500195,5.43219814 L14.7500195,6.63219814 L11.683456,6.63219814 L11.683456,5.43219814 L14.7500195,5.43219814 Z M6.84661487,1.2 C5.42153405,1.2 4.26627664,2.35526185 4.26627664,3.78035199 C4.26627664,5.20543255 5.4215343,6.36069021 6.84661487,6.36069021 C8.27169668,6.36069021 9.42693343,5.20544113 9.42693343,3.78035199 C9.42693343,2.35525327 8.27169694,1.2 6.84661487,1.2 Z M14.7500195,2.80371517 L14.7500195,4.00371517 L10.807295,4.00371517 L10.807295,2.80371517 L14.7500195,2.80371517 Z" id="形状结合" fill="#262626" fill-rule="nonzero"></path>
        </g>
    </g>
</svg>