<?xml version="1.0" encoding="UTF-8"?>
<svg width="16px" height="16px" viewBox="0 0 16 16" version="1.1" xmlns="http://www.w3.org/2000/svg" xmlns:xlink="http://www.w3.org/1999/xlink">
    <title>routing-table-third-menu</title>
    <g id="routing-table-third-menu" stroke="none" stroke-width="1" fill="none" fill-rule="evenodd">
        <rect id="矩形" fill-opacity="0" fill="#D8D8D8" x="0" y="0" width="16" height="16"></rect>
        <g id="编组-2" transform="translate(1.000000, 0.399974)">
            <rect id="矩形" fill-opacity="0" fill="#D8D8D8" x="0" y="0.60002615" width="14" height="14"></rect>
            <g id="图形" transform="translate(0.275000, 0.000000)" fill="#262626" fill-rule="nonzero">
                <path d="M8.08777593,0 L8.26317361,0.173681873 L13.2721736,5.13368187 L13.45,5.3097687 L13.45,13.6006457 C13.45,14.4843013 12.7336556,15.2006457 11.85,15.2006457 L1.6,15.2006457 C0.7163444,15.2006457 0,14.4843013 0,13.6006457 L0,1.60068741 C0,0.717031814 0.7163444,0.000687414202 1.59993643,0.00068741757 L8.08777593,0 Z M7.593,1.19902615 L1.6,1.20068741 C1.3790861,1.20068741 1.2,1.37977351 1.2,1.60068741 L1.2,13.6006457 C1.2,13.8215596 1.3790861,14.0006457 1.6,14.0006457 L11.85,14.0006457 C12.0709139,14.0006457 12.25,13.8215596 12.25,13.6006457 L12.25,5.81102615 L7.593,1.19902615 Z M10.05,9.62564609 L10.05,10.8256461 L3.425,10.8256461 L3.425,9.62564609 L10.05,9.62564609 Z M10.05,7.00064609 L10.05,8.20064609 L3.425,8.20064609 L3.425,7.00064609 L10.05,7.00064609 Z" id="形状结合"></path>
            </g>
        </g>
    </g>
</svg>