<?xml version="1.0" encoding="UTF-8"?>
<svg width="16px" height="16px" viewBox="0 0 16 16" version="1.1" xmlns="http://www.w3.org/2000/svg" xmlns:xlink="http://www.w3.org/1999/xlink">
    <title>security-domain-info-third-menu</title>
    <g id="security-domain-info-third-menu" stroke="none" stroke-width="1" fill="none" fill-rule="evenodd">
        <rect id="矩形" fill-opacity="0" fill="#F0F0F0" x="0" y="0" width="16" height="16"></rect>
        <g id="图形" transform="translate(1.000000, 1.000000)" fill-rule="nonzero">
            <rect id="矩形" fill="#000000" opacity="0" x="0" y="0" width="14" height="14"></rect>
            <path d="M7.15454811,0.0275274831 L12.8330501,1.90421759 C13.0564099,1.97801414 13.2071113,2.18678151 13.2071113,2.42201649 L13.2071113,7.84138548 C13.2071113,7.9929733 13.189553,8.15004689 13.1545638,8.31231712 L7.875,8.3125 L7.87333313,13.724189 C7.31693464,14 7.07860946,14 6.98433632,14 C6.85835157,14 6.47494679,14 5.41598963,13.329431 C4.78404137,12.9295189 4.08217079,12.398483 3.43947724,11.8344326 C2.69976452,11.1851984 2.07248813,10.5216372 1.62523446,9.91569568 C1.05199603,9.13907519 0.76125,8.44109783 0.76125,7.84107402 L0.76125,2.42170503 C0.76125,2.1866676 0.911871859,1.9780865 1.13499959,1.90421759 L6.81194433,0.0275274831 C6.92319656,-0.00917582771 7.04329588,-0.00917582771 7.15454811,0.0275274831 Z M14,12.6848942 L14,13.6848942 L8.72560454,13.6848942 L8.72560454,12.6848942 L14,12.6848942 Z M1.850625,6.99918773 L1.85073004,7.84169694 C1.85073004,8.53764981 2.71082127,9.7331813 4.09680932,10.9617273 C4.68468627,11.483108 5.33158451,11.9789491 5.9180599,12.3578378 C6.55686024,12.7705196 6.8929234,12.893234 6.98433632,12.9095856 L6.99825,12.906 L7,7 L1.850625,6.99918773 Z M14,10.9348942 L14,11.9348942 L8.72560454,11.9348942 L8.72560454,10.9348942 L14,10.9348942 Z M14,9.1848942 L14,10.1848942 L8.72560454,10.1848942 L8.72560454,9.1848942 L14,9.1848942 Z M6.999625,1.12418773 L7,7 L12.116625,6.99918773 L12.1170082,2.81569939 L6.999625,1.12418773 Z" id="形状结合" fill="#262626"></path>
        </g>
    </g>
</svg>