<?xml version="1.0" encoding="UTF-8"?>
<svg width="16px" height="16px" viewBox="0 0 16 16" version="1.1" xmlns="http://www.w3.org/2000/svg" xmlns:xlink="http://www.w3.org/1999/xlink">
    <title>security-domain-user-info-third-menu</title>
    <g id="security-domain-user-info-third-menu" stroke="none" stroke-width="1" fill="none" fill-rule="evenodd">
        <rect id="矩形" fill-opacity="0" fill="#F0F0F0" x="0" y="0" width="16" height="16"></rect>
        <g id="图形" transform="translate(1.000000, 0.000000)" fill-rule="nonzero">
            <rect id="矩形" fill="#000000" opacity="0" x="0" y="1" width="14" height="14"></rect>
            <path d="M10.5555556,7.11111111 C13.0101544,7.11111111 15,9.10095667 15,11.5555556 C15,14.0101544 13.0101544,16 10.5555556,16 C8.10095667,16 6.11111111,14.0101544 6.11111111,11.5555556 C6.11111111,9.10095667 8.10095667,7.11111111 10.5555556,7.11111111 Z M10.5555556,8.31111111 C8.76369837,8.31111111 7.31111111,9.76369837 7.31111111,11.5555556 C7.31111111,13.3474127 8.76369837,14.8 10.5555556,14.8 C12.3474127,14.8 13.8,13.3474127 13.8,11.5555556 C13.8,9.76369837 12.3474127,8.31111111 10.5555556,8.31111111 Z M10.7375368,11.2979565 C11.7409461,11.2979565 12.4304652,11.9374562 12.4766152,12.7586148 C12.491678,13.0266465 12.3020731,13.2421053 12.0336419,13.2421053 L9.08856623,13.2421053 C8.82013502,13.2421053 8.63053012,13.0266465 8.645593,12.7586148 C8.691743,11.9374562 9.38126208,11.2979565 10.3846714,11.2979565 L10.7375368,11.2979565 Z M6.16426423,0.0255612343 L11.6393393,1.76820205 C11.8546974,1.83672742 12,2.03058283 12,2.24901531 L12.0009341,5.99203514 C11.6612176,5.90437307 11.3093348,5.84698084 10.9483336,5.82290637 L10.9489489,2.614578 L5.99984982,1.03924575 L6.01434917,1.04424575 L6.01525266,6.5 L7.82883351,6.49877725 C7.12192702,6.88104659 6.50417151,7.40709432 6.01476252,8.0377249 L6.01525266,6.5 L1.05034917,6.49924575 L1.05045045,7.28157573 C1.05045045,7.92781768 1.87972972,9.03795406 3.21606605,10.1787468 C3.73078814,10.61839 4.29243748,11.0384767 4.81477356,11.3754428 L4.81,11.56 C4.81,11.92191 4.84343559,12.2760106 4.90738628,12.6193815 C4.78301289,12.5520533 4.64300785,12.4718679 4.48798796,12.3773287 C3.87867866,12.0059818 3.20195194,11.5128771 2.58228227,10.989116 C1.86906906,10.3862557 1.26426426,9.77009168 0.833033029,9.2074317 C0.280330329,8.4862841 0,7.83816228 0,7.28099731 L0,2.2487261 C0,2.03047705 0.145225973,1.8367946 0.360360359,1.76820205 L5.8339339,0.0255612343 C5.94120063,-0.00852041144 6.05699751,-0.00852041144 6.16426423,0.0255612343 Z M10.5540379,9.15555556 C11.0909033,9.15555556 11.5261077,9.59077022 11.5261077,10.1276356 C11.5261077,10.664498 11.0909033,11.0997115 10.5540379,11.0997115 C10.0171755,11.0997115 9.58196199,10.664498 9.58196199,10.1276356 C9.58196199,9.59077022 10.0171755,9.15555556 10.5540379,9.15555556 Z" id="形状结合" fill="#262626"></path>
        </g>
    </g>
</svg>