<?xml version="1.0" encoding="UTF-8"?>
<svg width="16px" height="16px" viewBox="0 0 16 16" version="1.1" xmlns="http://www.w3.org/2000/svg" xmlns:xlink="http://www.w3.org/1999/xlink">
    <title>service-center-third-menu</title>
    <g id="service-center-third-menu" stroke="none" stroke-width="1" fill="none" fill-rule="evenodd">
        <g id="编组-53备份">
            <rect id="矩形" x="0" y="0" width="16" height="16"></rect>
            <g id="编组" transform="translate(1.000000, 1.000000)">
                <path d="M1,11 L13,11 C13.5522847,11 14,11.4477153 14,12 L14,14 L14,14 L0,14 L0,12 C-6.76353751e-17,11.4477153 0.44771525,11 1,11 Z" id="矩形" fill="#262626"></path>
                <path d="M12,0.6 L12.4,11.6 L4.6,11.6 L4.6,1 L12,0.6 Z" id="矩形" stroke="#262626" stroke-width="1.2"></path>
                <polygon id="矩形备份-20" fill="#262626" points="6 3 11 3 11 4.2 6 4.2"></polygon>
                <polygon id="矩形备份-21" fill="#262626" points="6 7 11 7 11 8.2 6 8.2"></polygon>
                <path d="M4.6,2.6 L4.6,11.6 L1.6,11.6 L1.6,3 L4.6,2.6 Z" id="矩形备份-20" stroke="#262626" stroke-width="1.2"></path>
            </g>
        </g>
    </g>
</svg>