<?xml version="1.0" encoding="UTF-8"?>
<svg width="16px" height="16px" viewBox="0 0 16 16" version="1.1" xmlns="http://www.w3.org/2000/svg" xmlns:xlink="http://www.w3.org/1999/xlink">
    <title>Service Name-third menu</title>
    <g id="Service-Name-third-menu" stroke="none" stroke-width="1" fill="none" fill-rule="evenodd">
        <g id="服务名">
            <rect id="矩形" fill-opacity="0" fill="#D8D8D8" x="0" y="0" width="16" height="16"></rect>
            <g id="图形" transform="translate(0.500000, 2.250000)" fill="#262626" fill-rule="nonzero">
                <path d="M13.5,0 C14.3284271,0 15,0.671572875 15,1.5 L15,10 C15,10.8284271 14.3284271,11.5 13.5,11.5 L1.5,11.5 C0.671572875,11.5 0,10.8284271 0,10 L0,1.5 C0,0.671572875 0.671572875,0 1.5,0 L13.5,0 Z M13.5,1 L1.5,1 C1.22385763,1 1,1.22385763 1,1.5 L1,10 C1,10.2761424 1.22385763,10.5 1.5,10.5 L13.5,10.5 C13.7761424,10.5 14,10.2761424 14,10 L14,1.5 C14,1.22385763 13.7761424,1 13.5,1 Z M9.005,7.85 L9.005,8.9 L2.88,8.9 L2.88,7.85 L9.005,7.85 Z M6.38,5.75 L6.38,6.8 L2.88,6.8 L2.88,5.75 L6.38,5.75 Z M11,2.25 C11.9664983,2.25 12.75,3.03350169 12.75,4 C12.75,4.96649831 11.9664983,5.75 11,5.75 C10.0335017,5.75 9.25,4.96649831 9.25,4 C9.25,3.03350169 10.0335017,2.25 11,2.25 Z M11,3.45 C10.6962434,3.45 10.45,3.69624339 10.45,4 C10.45,4.30375661 10.6962434,4.55 11,4.55 C11.3037566,4.55 11.55,4.30375661 11.55,4 C11.55,3.69624339 11.3037566,3.45 11,3.45 Z" id="形状结合"></path>
            </g>
        </g>
    </g>
</svg>