<?xml version="1.0" encoding="UTF-8"?>
<svg width="16px" height="16px" viewBox="0 0 16 16" version="1.1" xmlns="http://www.w3.org/2000/svg" xmlns:xlink="http://www.w3.org/1999/xlink">
    <title>service-log-third-menu</title>
    <g id="service-log-third-menu" stroke="none" stroke-width="1" fill="none" fill-rule="evenodd">
        <g id="服务" fill="#000000" fill-rule="nonzero" opacity="0">
            <rect id="矩形" x="0" y="0" width="16" height="16"></rect>
        </g>
        <g id="编组" transform="translate(1.000000, 1.500000)" fill="#262626" fill-rule="nonzero">
            <path d="M13,1 C13.5522847,1 14,1.44771525 14,2 L14,12.5 C14,13.0522847 13.5522847,13.5 13,13.5 L1,13.5 C0.44771525,13.5 0,13.0522847 0,12.5 L0,2 C0,1.44771525 0.44771525,1 1,1 L13,1 Z M12.8,2.2 L1.2,2.2 L1.2,12.3 L12.8,12.3 L12.8,2.2 Z" id="矩形"></path>
            <path d="M4,-0.6 C4.33137085,-0.6 4.6,-0.33137085 4.6,-1.11022302e-16 L4.6,4 C4.6,4.33137085 4.33137085,4.6 4,4.6 C3.66862915,4.6 3.4,4.33137085 3.4,4 L3.4,-1.11022302e-16 C3.4,-0.33137085 3.66862915,-0.6 4,-0.6 Z" id="路径-52"></path>
            <path d="M10.5,5.9 C10.8313708,5.9 11.1,6.16862915 11.1,6.5 C11.1,6.83137085 10.8313708,7.1 10.5,7.1 L3.5,7.1 C3.16862915,7.1 2.9,6.83137085 2.9,6.5 C2.9,6.16862915 3.16862915,5.9 3.5,5.9 L10.5,5.9 Z" id="路径-52"></path>
            <path d="M10.5,9.4 C10.8313708,9.4 11.1,9.66862915 11.1,10 C11.1,10.3313708 10.8313708,10.6 10.5,10.6 L3.5,10.6 C3.16862915,10.6 2.9,10.3313708 2.9,10 C2.9,9.66862915 3.16862915,9.4 3.5,9.4 L10.5,9.4 Z" id="路径-52备份-2"></path>
            <path d="M10,-0.6 C10.3313708,-0.6 10.6,-0.33137085 10.6,-1.11022302e-16 L10.6,4 C10.6,4.33137085 10.3313708,4.6 10,4.6 C9.66862915,4.6 9.4,4.33137085 9.4,4 L9.4,-1.11022302e-16 C9.4,-0.33137085 9.66862915,-0.6 10,-0.6 Z" id="路径-52备份"></path>
        </g>
    </g>
</svg>