<?xml version="1.0" encoding="UTF-8"?>
<svg width="16px" height="16px" viewBox="0 0 16 16" version="1.1" xmlns="http://www.w3.org/2000/svg" xmlns:xlink="http://www.w3.org/1999/xlink">
    <title>server-info-third-menu</title>
    <g id="server-info-third-menu" stroke="none" stroke-width="1" fill="none" fill-rule="evenodd">
        <rect id="矩形" fill-opacity="0" fill="#F0F0F0" x="0" y="0" width="16" height="16"></rect>
        <g id="配置中心备份" transform="translate(1.000000, 0.400000)" fill-rule="nonzero">
            <rect id="矩形" fill="#000000" opacity="0" x="0" y="0.6" width="14" height="14"></rect>
            <path d="M12.3684304,0 C13.0663038,0 13.6,0.60993849 13.6,1.32179383 L13.6,13.5924919 C13.6,14.3043472 13.0663038,14.9142857 12.3684304,14.9142857 L1.6315696,14.9142857 C0.933696179,14.9142857 0.4,14.3043472 0.4,13.5924919 L0.4,1.32179383 C0.4,0.60993849 0.933696179,0 1.6315696,0 L12.3684304,0 Z M12.3684304,1.2 L1.6315696,1.2 C1.63472534,1.2 1.6,1.2396861 1.6,1.32179383 L1.6,13.5924919 C1.6,13.6335457 1.60868134,13.6639942 1.6169682,13.6841792 L1.6315696,13.7142857 L12.3684304,13.7142857 L12.3830318,13.6841792 C12.3913187,13.6639942 12.4,13.6335457 12.4,13.5924919 L12.4,1.32179383 C12.4,1.2396861 12.3652747,1.2 12.3684304,1.2 Z M7,10.8857143 C7.47338693,10.8857143 7.85714286,11.2694702 7.85714286,11.7428571 C7.85714286,12.2162441 7.47338693,12.6 7,12.6 C6.52661307,12.6 6.14285714,12.2162441 6.14285714,11.7428571 C6.14285714,11.2694702 6.52661307,10.8857143 7,10.8857143 Z M10.4285714,6.6 L10.4285714,7.71428571 L3.57142857,7.71428571 L3.57142857,6.6 L10.4285714,6.6 Z M10.4285714,4.02857143 L10.4285714,5.14285714 L3.57142857,5.14285714 L3.57142857,4.02857143 L10.4285714,4.02857143 Z" id="形状结合" fill="#262626"></path>
        </g>
    </g>
</svg>