<?xml version="1.0" encoding="UTF-8"?>
<svg width="16px" height="16px" viewBox="0 0 16 16" version="1.1" xmlns="http://www.w3.org/2000/svg" xmlns:xlink="http://www.w3.org/1999/xlink">
    <title>serve-third-menu</title>
    <g id="serve-third-menu" stroke="none" stroke-width="1" fill="none" fill-rule="evenodd">
        <rect id="矩形" fill-opacity="0" fill="#F0F0F0" x="1" y="1" width="14" height="14"></rect>
        <g id="serve" transform="translate(1.000000, 1.000000)" fill-rule="nonzero">
            <rect id="矩形" fill="#000000" opacity="0" x="0" y="0" width="14" height="14"></rect>
            <path d="M10.2040728,7.41730055 C10.7755791,7.41730055 11.3058427,7.56165008 11.7860259,7.87391641 C12.3752076,8.25835751 12.7743783,8.78862109 12.9540787,9.46765307 C13.1941703,10.3705741 13.0277264,11.2042663 12.4621119,11.9495812 C12.073252,12.4606964 11.5591909,12.79653 10.9390771,12.9644468 C10.6327026,13.0498782 10.3130715,13.0778643 9.99638626,13.0469323 C8.91965659,12.9349877 8.14340962,12.3841028 7.65586172,11.4222636 C7.50856628,11.1335645 7.43049969,10.8227711 7.39662174,10.5001941 C7.38631106,10.3985603 7.38336515,10.2969264 7.38336515,10.1938196 C7.3818922,9.28500673 7.3818922,8.37619386 7.38336515,7.46590804 L7.38336515,7.41730055 L10.2040728,7.41730055 Z M6.55115917,7.38489555 L6.55115917,10.1879278 C6.55261887,10.924405 6.30958139,11.569559 5.81761462,12.117498 C5.38309307,12.6006271 4.84399176,12.9114205 4.20031069,13.0160002 C3.2149042,13.1765523 2.36795541,12.8893261 1.66830207,12.1808351 C1.28827984,11.8008128 1.03198577,11.3132649 0.933297827,10.7844743 C0.762435117,9.88597212 0.965702824,9.07732016 1.56224936,8.38061272 C2.00118977,7.86802459 2.56385835,7.56165008 3.22668783,7.43644895 C3.40786122,7.402571 3.59345348,7.3863685 3.77757278,7.3863685 L6.48928183,7.3863685 L6.55115917,7.38489555 Z M5.351,8.58605345 L3.77757278,8.5863685 C3.66362584,8.5863685 3.55202798,8.59641231 3.44941596,8.61559787 C3.03677808,8.69354058 2.72350147,8.86944789 2.47376525,9.16108616 C2.12068671,9.57344702 2.00755501,10.0101554 2.11293003,10.5643201 C2.16729944,10.8556428 2.30848883,11.1239656 2.52213889,11.337649 C2.95477745,11.7757525 3.41399479,11.9282911 4.00786842,11.8315316 C4.36602355,11.7733416 4.6629726,11.6068149 4.92470747,11.3158018 C5.21630132,10.9910326 5.35203665,10.6331688 5.35115686,10.1879278 L5.351,8.58605345 Z M10.2040728,8.61730055 L8.582,8.61705345 L8.58226063,8.83065811 L8.58336515,10.1938196 C8.58336515,10.2733628 8.58567812,10.3316075 8.59005811,10.374856 C8.61150687,10.5790855 8.65622974,10.7425486 8.72620771,10.8797145 C9.03433239,11.4875859 9.45998204,11.7846958 10.1130404,11.8526158 C10.282245,11.8691428 10.4530442,11.8541954 10.6254319,11.8061607 C10.9991399,11.7049666 11.2841989,11.5159579 11.5062079,11.2241521 C11.8491125,10.7723038 11.9389701,10.3197994 11.7940141,9.77465498 C11.6936096,9.39525757 11.4818991,9.10833412 11.1318229,8.87990772 C10.8592714,8.70266562 10.5592383,8.61730055 10.2040728,8.61730055 Z M5.643806,1.65657588 C6.11957028,2.10435402 6.40532343,2.65818487 6.5128491,3.30039299 C6.53788933,3.44621548 6.54967296,3.59351092 6.55114592,3.74080636 C6.55409182,4.66287581 6.55261887,5.58347232 6.55261887,6.50554177 L6.55114592,6.55414927 L3.75400551,6.55414927 C3.01752831,6.55414927 2.37237428,6.3140577 1.82443524,5.82356388 C1.38107597,5.43323097 1.0732285,4.91033215 0.946554417,4.33293403 C0.71677353,3.31364958 1.06586372,2.25164946 1.85536728,1.56819862 C2.27663224,1.20437888 2.76270719,0.979016856 3.31359214,0.90684209 C4.20620251,0.790478692 4.98686834,1.03940799 5.643806,1.65657588 Z M3.46947917,2.09667369 C3.15953735,2.13728104 2.89005213,2.26018263 2.64076827,2.47547217 C2.18580127,2.86932419 1.98466321,3.48121727 2.11867817,4.07578443 C2.19068497,4.40400148 2.36581785,4.70140105 2.62479982,4.92946291 C2.94819814,5.21895657 3.30679728,5.35414927 3.75400551,5.35414927 L5.352,5.35405345 L5.35238029,4.25583054 C5.35223971,4.16832206 5.35207283,4.08309661 5.35187773,3.99948291 L5.35120591,3.75280576 C5.35030365,3.66257999 5.34323512,3.57962864 5.32932345,3.4985521 C5.26339353,3.10477886 5.09877993,2.79150911 4.82216388,2.53116391 C4.42905597,2.16185401 4.00752425,2.02653275 3.46947917,2.09667369 Z" id="形状" fill="#262626"></path>
            <path d="M9.61449922,1.56075506 C10.4259241,1.35584979 11.1529055,1.52787675 11.7744537,2.1022179 C12.1091236,2.40615283 12.3318153,2.81385071 12.410824,3.26153118 C12.5593358,4.08126938 12.3336213,4.78815871 11.7241865,5.36133164 C11.4052308,5.66112737 11.0204074,5.83718882 10.5918233,5.91146305 C9.55806758,5.94266709 8.7965962,5.94939961 8.1006292,5.95083044 L7.9834073,3.72288809 C7.98616742,3.23316131 8.12454503,2.78620302 8.41367423,2.38994336 C8.7177663,1.97527236 9.11573636,1.68746219 9.61449922,1.56075506 Z" id="路径" stroke="#262626" stroke-width="1.2"></path>
        </g>
    </g>
</svg>