<?xml version="1.0" encoding="UTF-8"?>
<svg width="16px" height="16px" viewBox="0 0 16 16" version="1.1" xmlns="http://www.w3.org/2000/svg" xmlns:xlink="http://www.w3.org/1999/xlink">
    <title> session-management-info-third-menu</title>
    <g id="-session-management-info-third-menu" stroke="none" stroke-width="1" fill="none" fill-rule="evenodd">
        <rect id="矩形" fill-opacity="0" fill="#F0F0F0" x="0" y="0" width="16" height="16"></rect>
        <g id="编组" transform="translate(1.000000, 1.000000)">
            <rect id="矩形" fill-opacity="0" fill="#D8D8D8" x="0" y="0" width="14" height="14"></rect>
            <path d="M11.0892718,7.875 C11.0892718,8.94766371 11.8901462,9.3835117 12.7906607,8.89583333 L13.4712162,10.030699 C12.5464494,10.5315114 12.5996665,11.3723086 13.4712162,11.844301 L12.7906607,12.9791667 C11.2026977,12.2172296 11.0968335,13.7668343 11.0897759,13.9768347 L11.0892718,14 L9.72816068,14 C9.72816068,12.9273363 8.92728626,12.4914883 8.02677179,12.9791667 L7.34621624,11.844301 C8.27098303,11.3434886 8.21776595,10.5026914 7.34621624,10.030699 L8.02677179,8.89583333 C8.96642293,9.40470636 9.72816068,8.90298704 9.72816068,7.875 L11.0892718,7.875 Z M8.8475018,0.274353721 L9.02326407,0.450115995 L12.85,4.27685193 L12.85,7.43719003 L11.65,7.43719003 L11.65,4.77438006 L8.349,1.47338006 L2.75,1.475 C2.55670034,1.475 2.39542508,1.6121128 2.35812658,1.79438605 L2.35,1.875 L2.35,12.125 C2.35,12.3459139 2.5290861,12.525 2.75,12.525 L6.97916667,12.525 L6.97916667,13.725 L2.75,13.725 C1.8663444,13.725 1.15,13.0086556 1.15,12.125 L1.15,1.875 C1.15,0.9913444 1.8663444,0.275 2.74993641,0.275000003 L8.8475018,0.274353721 Z M10.4087162,9.91666667 C9.84492556,9.91666667 9.3878829,10.3737093 9.3878829,10.9375 C9.3878829,11.5012907 9.84492556,11.9583333 10.4087162,11.9583333 C10.9725069,11.9583333 11.4295496,11.5012907 11.4295496,10.9375 C11.4295496,10.3737093 10.9725069,9.91666667 10.4087162,9.91666667 Z M9.9125,5.9625 L9.9125,7.1625 L4.06964286,7.1625 L4.06964286,5.9625 L9.9125,5.9625 Z M8.24583333,3.3375 L8.24583333,4.5375 L4.06964286,4.5375 L4.06964286,3.3375 L8.24583333,3.3375 Z" id="形状结合" fill="#262626" fill-rule="nonzero"></path>
        </g>
    </g>
</svg>