<?xml version="1.0" encoding="UTF-8"?>
<svg width="16px" height="16px" viewBox="0 0 16 16" version="1.1" xmlns="http://www.w3.org/2000/svg" xmlns:xlink="http://www.w3.org/1999/xlink">
    <title>Slabs-thrid menu</title>
    <g id="Slabs-thrid-menu" stroke="none" stroke-width="1" fill="none" fill-rule="evenodd">
        <rect id="矩形" fill-opacity="0" fill="#F0F0F0" x="0" y="0" width="16" height="16"></rect>
        <g id="图形" transform="translate(1.499986, 0.500000)" fill="#262626" fill-rule="nonzero">
            <path d="M6.74970387,0 C8.59440181,0 10.3197967,0.364974409 11.5873237,0.998737912 C12.8208167,1.61549481 13.4994139,2.42457966 13.4994139,3.25 C13.4994139,4.07542034 12.8208167,4.88450519 11.5873207,5.5012636 C10.3197967,6.13502559 8.59440181,6.5 6.74970387,6.5 C4.90499995,6.5 3.17958495,6.13502308 1.91207707,5.5012636 C1.56247669,5.3264634 1.25745274,5.13621346 0.999820098,4.93452021 L1.00001387,7.75 C1.00001387,8.1295432 1.42994205,8.64216209 2.35929223,9.10683719 C3.480143,9.66726748 5.0531238,10 6.74970387,10 C8.44627842,10 10.01924,9.66726995 11.1401041,9.10683791 C12.0694553,8.64215448 12.4994139,8.12951899 12.4994139,7.75 L12.4994139,6.79585498 C12.4994139,6.51971261 12.7232715,6.29585498 12.9994139,6.29585498 C13.2755562,6.29585498 13.4994139,6.51971261 13.4994139,6.79585498 L13.4994139,11.7736115 C13.4861652,12.591481 12.8090489,13.3903892 11.5873207,14.0012636 C10.3197967,14.6350256 8.59440181,15 6.74970387,15 C4.90499995,15 3.17958495,14.6350231 1.91207707,14.0012636 C0.678581386,13.3845158 0,12.5754352 0,11.75 L1.38690192e-05,3.25 C1.38690192e-05,2.4245648 0.678581386,1.61548425 1.9120755,0.998737188 C3.17958495,0.364976916 4.90499995,0 6.74970387,0 Z M11.5873207,10.0012636 C10.3197967,10.6350256 8.59440181,11 6.74970387,11 C4.90499995,11 3.17958495,10.6350231 1.91207707,10.0012636 C1.56203694,9.82624353 1.25668545,9.63573482 0.998848125,9.43375905 L0.999950256,11.74465 C1.00001387,12.1295432 1.42994205,12.6421621 2.35929223,13.1068372 C3.480143,13.6672675 5.0531238,14 6.74970387,14 C8.44627842,14 10.01924,13.66727 11.1401041,13.1068379 C12.0620908,12.6458368 12.4933614,12.1369942 12.4994139,11.7655528 L12.5003838,9.43388647 C12.2425792,9.63581397 11.9372831,9.82627941 11.5873207,10.0012636 Z M6.74970387,1 C5.0531238,1 3.480143,1.33273252 2.35929067,1.8931636 C1.42994205,2.35783791 1.00001387,2.8704568 1.00001387,3.25 C1.00001387,3.6295432 1.42994205,4.14216209 2.35929223,4.60683719 C3.480143,5.16726748 5.0531238,5.5 6.74970387,5.5 C8.44627842,5.5 10.01924,5.16726995 11.1401041,4.60683791 C12.0694553,4.14215448 12.4994139,3.62951899 12.4994139,3.25 C12.4994139,2.87048101 12.0694553,2.35784552 11.1401071,1.8931636 C10.01924,1.33273005 8.44627842,1 6.74970387,1 Z" id="形状结合"></path>
        </g>
    </g>
</svg>