<?xml version="1.0" encoding="UTF-8"?>
<svg width="16px" height="16px" viewBox="0 0 16 16" version="1.1" xmlns="http://www.w3.org/2000/svg" xmlns:xlink="http://www.w3.org/1999/xlink">
    <title>Space Analysis-third menu</title>
    <g id="Space-Analysis-third-menu" stroke="none" stroke-width="1" fill="none" fill-rule="evenodd">
        <g id="Space-Analysis">
            <rect id="矩形" x="0" y="0" width="16" height="16"></rect>
            <path d="M5.13868741,1 C5.43539039,1 5.72652251,1.08064132 5.98092855,1.2332915 L8.08091904,2.49327749 C8.14883269,2.53402743 8.22655374,2.55555556 8.30575704,2.55555556 L13.462963,2.55555556 C14.3670841,2.55555556 15.1,3.28848162 15.1,4.19259259 L15.1,6.1 C15.1,6.43137085 14.8313708,6.7 14.5,6.7 L2.1,6.7 L2.1,13.475 C2.1,13.6959139 2.2790861,13.875 2.5,13.875 L13.5,13.875 C13.7209139,13.875 13.9,13.6959139 13.9,13.475 L13.9,9.3468631 C13.9,9.01549225 14.1686292,8.7468631 14.5,8.7468631 C14.8313708,8.7468631 15.1,9.01549225 15.1,9.3468631 L15.1,13.475 C15.1,14.3586556 14.3836556,15.075 13.5,15.075 L2.5,15.075 C1.6163444,15.075 0.9,14.3586556 0.9,13.475 L0.9,2.63703704 C0.9,1.73293137 1.63293137,1 2.53703704,1 L5.13868741,1 Z M8.39259375,7.1 C8.55796875,7.1 8.70598437,7.2136875 8.72407812,7.36167188 L8.79707812,7.95664063 C8.96755277,8.00823179 9.13181681,8.07846898 9.28689062,8.16607813 L9.75948437,7.79676563 C9.87695312,7.7049375 10.0620156,7.72921875 10.1789531,7.84614063 L10.5747969,8.242 C10.6917031,8.35892188 10.7159687,8.54395313 10.6241719,8.66145313 L10.2440469,9.14785938 C10.3249838,9.29996137 10.3894181,9.4602849 10.43625,9.62609375 L11.0485781,9.70121875 C11.196625,9.71932813 11.3102656,9.86734375 11.3102656,10.0327656 L11.3102656,10.5925938 C11.3102656,10.7579219 11.1965937,10.9059531 11.0485469,10.9240938 L10.4224219,11.0008906 C10.3734237,11.1617938 10.3078042,11.3171576 10.226625,11.4644688 L10.6135,11.9594531 C10.7053281,12.0769375 10.6810937,12.2619531 10.564125,12.3789375 L10.1682187,12.77475 C10.0513281,12.8916875 9.86629687,12.916 9.74878125,12.8241563 L9.25028125,12.4345625 C9.10237761,12.5146717 8.94653814,12.5791702 8.78528125,12.6270156 L8.70907812,13.2485625 C8.69089062,13.3965938 8.54290625,13.5102813 8.37753125,13.5102813 L7.8176875,13.5102813 C7.6523125,13.5102813 7.50432812,13.3965938 7.48617188,13.2485625 L7.41053125,12.6317031 C7.24500233,12.5837001 7.08505415,12.5182113 6.93339063,12.4363438 L6.45082813,12.8134688 C6.33334375,12.9053125 6.1483125,12.8810781 6.031375,12.764125 L5.63551563,12.3682188 C5.51859375,12.2513281 5.4943125,12.0662969 5.586125,11.9487969 L5.95817188,11.4727656 C5.87158735,11.317065 5.80244512,11.1522869 5.752,10.9814219 L5.1616875,10.9090313 C5.01367187,10.8908594 4.9,10.7428906 4.9,10.5775313 L4.9,10.0176563 C4.9,9.8523125 5.01367187,9.7043125 5.1616875,9.68617188 L5.74735937,9.61434375 C5.79783055,9.43916557 5.86790938,9.27024256 5.95626562,9.11078125 L5.59676563,8.6508125 C5.50495313,8.5333125 5.52923438,8.34828125 5.64615625,8.23135938 L6.042,7.8355 C6.15892187,7.71854688 6.34398438,7.69428125 6.46146875,7.78610938 L6.92498438,8.14835938 C7.08503663,8.06108056 7.25443274,7.9921543 7.42995312,7.94289063 L7.50121875,7.36167188 C7.519375,7.2136875 7.667375,7.1 7.83275,7.1 L8.39259375,7.1 Z M8.10521875,8.62467188 C7.1770625,8.62467188 6.42470313,9.37703125 6.42470313,10.3051094 C6.42470313,11.2332188 7.17707813,11.9855938 8.10521875,11.9855938 C9.03332813,11.9855938 9.78564063,11.2332031 9.78564063,10.3051094 C9.78564063,9.37701563 9.0333125,8.62467188 8.10521875,8.62467188 Z M8.10515625,9.60515625 C8.50166218,9.60515625 8.82309375,9.92658782 8.82309375,10.3230938 C8.82309375,10.7195997 8.50166218,11.0410313 8.10515625,11.0410313 C7.70865032,11.0410313 7.38721875,10.7195997 7.38721875,10.3230938 C7.38721875,9.92658782 7.70865032,9.60515625 8.10515625,9.60515625 Z M5.13868741,2.2 L2.53703704,2.2 C2.29567307,2.2 2.1,2.39567307 2.1,2.63703704 L2.1,5.5 L13.9,5.5 L13.9,4.19259259 C13.9,3.97803883 13.7454034,3.79960076 13.5415227,3.76259667 L13.462963,3.75555556 L8.30575704,3.75555556 C8.00905406,3.75555556 7.71792193,3.67491423 7.46351589,3.52226406 L5.3635254,2.26227806 C5.29561176,2.22152813 5.2178907,2.2 5.13868741,2.2 Z" id="形状结合" fill="#262626" fill-rule="nonzero"></path>
        </g>
    </g>
</svg>