<?xml version="1.0" encoding="UTF-8"?>
<svg width="16px" height="16px" viewBox="0 0 16 16" version="1.1" xmlns="http://www.w3.org/2000/svg" xmlns:xlink="http://www.w3.org/1999/xlink">
    <title>sprint-planning-third-menu</title>
    <g id="sprint-planning-third-menu" stroke="none" stroke-width="1" fill="none" fill-rule="evenodd">
        <g id="编组备份" transform="translate(1.000000, 1.000000)" fill-rule="nonzero">
            <rect id="矩形" stroke="#262626" stroke-width="1.2" x="0.6" y="0.6" width="4.05" height="6.675" rx="1"></rect>
            <path d="M13,6.125 C13.5522847,6.125 14,6.57271525 14,7.125 L14,10.4 C14,10.7313708 13.7313708,11 13.4,11 C13.0686292,11 12.8,10.7313708 12.8,10.4 L12.8,7.325 L12.8,7.325 L9.95,7.325 L9.95,12.8 L11.4,12.8 C11.7313708,12.8 12,13.0686292 12,13.4 C12,13.7313708 11.7313708,14 11.4,14 L9.75,14 L9.75,14 C9.19771525,14 8.75,13.5522847 8.75,13 L8.75,7.125 C8.75,6.57271525 9.19771525,6.125 9.75,6.125 L13,6.125 Z" id="路径" fill="#262626"></path>
            <path d="M11.6875,-0.7125 L12.0875,5.5625 L8.4375,5.9625 L8.0375,-0.3125 L11.6875,-0.7125 Z" id="矩形备份-2" stroke="#262626" stroke-width="1.2" transform="translate(10.062500, 2.625000) rotate(-270.000000) translate(-10.062500, -2.625000) "></path>
            <path d="M5.5625,8.0375 L5.9625,14.3125 L2.3125,14.7125 L1.9125,8.4375 L5.5625,8.0375 Z" id="矩形备份-4" stroke="#262626" stroke-width="1.2" transform="translate(3.937500, 11.375000) rotate(-270.000000) translate(-3.937500, -11.375000) "></path>
        </g>
    </g>
</svg>