<?xml version="1.0" encoding="UTF-8"?>
<svg width="16px" height="16px" viewBox="0 0 16 16" version="1.1" xmlns="http://www.w3.org/2000/svg" xmlns:xlink="http://www.w3.org/1999/xlink">
    <title>storage management</title>
    <g id="storage-management" stroke="none" stroke-width="1" fill="none" fill-rule="evenodd">
        <rect id="矩形" fill="#000000" opacity="0" x="0" y="0" width="16" height="16"></rect>
        <g id="infrastructure备份" transform="translate(1.400000, 0.400000)" fill="#262626" fill-rule="nonzero">
            <path d="M14.2,8.64514002 L14.2,10.2475 L14.1936615,12.0097829 L14.1830254,12.0823745 C14.0609832,12.9134468 13.2782428,13.6938022 11.9886135,14.2739805 C10.6762587,14.8643635 8.94409231,15.2 7.1,15.2 C5.25591126,15.2 3.52373736,14.8643648 2.2113278,14.2739728 C0.92173983,13.6937835 0.139000147,12.9134152 0.0169917865,12.0823498 L0.00636298652,12.0099498 L0,11.9228 L0,8.64504069 L1.05245276,9.85343592 C1.26044881,10.0922509 1.52751811,10.293286 1.86373395,10.4549442 C3.24882398,11.1208241 5.11351083,11.5 7.1,11.5 C9.08652647,11.5 10.9511916,11.1208254 12.3362153,10.4549485 C12.6724621,10.2932914 12.9395175,10.0922699 13.1475633,9.8534175 L14.2,8.64514002 Z M13,11.46049 L12.8561687,11.5364515 C11.2994257,12.2848856 9.25801973,12.7 7.1,12.7 C4.94202223,12.7 2.90060038,12.2848858 1.34376893,11.5364415 L1.2,11.46149 L1.2,11.88149 L1.20426556,11.9080484 C1.25195414,12.2328813 1.68134662,12.6807792 2.50626202,13.0867507 L2.70365452,13.1796171 C3.85317166,13.6967314 5.41830545,14 7.1,14 C8.78169524,14 10.346818,13.696731 11.4962919,13.1796225 C12.4503402,12.7504153 12.9443831,12.2578778 12.9957305,11.9082171 L13,11.9228 L13,11.46049 Z M0,4.14498909 L1.05245948,5.35343363 C1.26046019,5.59226213 1.52752254,5.79329406 1.86374306,5.95493855 C3.24873251,6.62079886 5.11339503,6.99995225 7.0999886,6.99999 C9.08664227,6.99995225 10.951283,6.6208001 12.3362361,5.95492854 C12.6724577,5.7932995 12.9395061,5.59228118 13.1475566,5.35341521 L14.2,4.14508843 L14.2,8.44999 L14.083,8.44949 L14.0803186,8.4604004 C13.8435378,9.05985097 13.2603967,9.61987341 12.383761,10.0815297 L12.1585182,10.1948603 C10.8306801,10.8331882 9.02717307,11.2 7.1,11.2 C5.17281853,11.2 3.36928047,10.8331848 2.04142119,10.1948412 C1.0391692,9.71294056 0.376189474,9.10981612 0.119687013,8.46040722 L0.117,8.44949 L0,8.44999 L0,4.14498909 Z M13,6.96049 L12.8561778,7.03643708 C11.2995258,7.78485973 9.25814909,8.19994899 7.0999886,8.19999 C4.94189287,8.19994899 2.90050026,7.78485997 1.34378974,7.03644145 L1.2,6.96149 L1.2003224,7.84999 C1.2003224,8.15590837 1.56824615,8.59812924 2.38049675,9.02268972 L2.56137922,9.11334055 C3.71751306,9.66913032 5.34431591,10 7.1,10 C8.85567605,10 10.4824488,9.66913379 11.6385584,9.11336052 C12.5772945,8.66199185 12.999688,8.17773435 12.999688,7.84999 L12.999688,7.24999 L13,6.96049 Z M7.0996776,0 C9.02689306,0 10.8304117,0.366826926 12.1582282,1.00520026 C13.4688671,1.63532573 14.199376,2.47280523 14.199376,3.35 C14.199376,4.22719477 13.4688671,5.06467427 12.1582247,5.69480145 C10.8304117,6.33317307 9.02689306,6.7 7.0996776,6.7 C5.17245589,6.7 3.36891626,6.33317057 2.04112014,5.69480145 C0.730478409,5.06468524 0,4.22720852 0,3.35 C0,2.47279148 0.730478409,1.63531476 2.04111829,1.00519943 C3.36891626,0.366829434 5.17245589,0 7.0996776,0 Z M7.0996776,1.2 C5.34396397,1.2 3.71717196,1.53088 2.56107346,2.08670145 C1.62235711,2.53800739 1.2,3.02223012 1.2,3.35 C1.2,3.67776988 1.62235711,4.16199261 2.56107531,4.61329943 C3.71717196,5.16912 5.34396397,5.5 7.0996776,5.5 C8.85538553,5.5 10.4821576,5.16912247 11.6382678,4.61330026 C12.5769869,4.16198539 12.999376,3.67774455 12.999376,3.35 C12.999376,3.02225545 12.5769869,2.53801461 11.6382713,2.08670145 C10.4821576,1.53087753 8.85538553,1.2 7.0996776,1.2 Z" id="形状结合"></path>
        </g>
    </g>
</svg>