<?xml version="1.0" encoding="UTF-8"?>
<svg width="16px" height="16px" viewBox="0 0 16 16" version="1.1" xmlns="http://www.w3.org/2000/svg" xmlns:xlink="http://www.w3.org/1999/xlink">
    <title>Storage operation and maintenance</title>
    <g id="Storage-operation-and-maintenance" stroke="none" stroke-width="1" fill="none" fill-rule="evenodd">
        <rect id="矩形" fill="#000000" opacity="0" x="0" y="0" width="16" height="16"></rect>
        <g id="编组备份" transform="translate(1.400000, 1.950556)" fill="#262626" fill-rule="nonzero">
            <path d="M13.8,11.0623016 L13.8,12.0196159 L13.7941248,12.0609873 C13.751328,12.361673 13.448064,12.7363016 12.7712064,13.050473 C12.1179648,13.353673 11.2140365,13.5494444 10.2,13.5494444 C9.18596352,13.5494444 8.28202944,13.353673 7.62877056,13.050473 C6.95194752,12.7363016 6.648672,12.361673 6.60588672,12.0609873 L6.6,12.0196159 L6.6,11.0623016 C6.74012928,11.2283016 6.9220992,11.3738444 7.15593216,11.4898444 C7.95729792,11.8873302 9.03414144,12.120873 10.2,12.120873 C11.3658816,12.120873 12.4427136,11.8873302 13.2440448,11.4898444 C13.4779008,11.3738444 13.6598592,11.2283016 13.8,11.0623016 Z M11.5703694,1.41576055 C11.5986207,1.44206813 11.5986207,1.44206813 11.6268511,1.46838034 C11.8323646,1.65997115 12.7718486,2.54315036 12.9024776,2.66253117 C13.1491252,2.88794045 13.1663423,3.27061815 12.940933,3.51726574 C12.8026918,3.66853218 12.6052981,3.73350422 12.4164081,3.70913793 L1.48,3.70912614 C1.32536027,3.70912614 1.2,3.83448641 1.2,3.98912614 L1.2,11.6873755 C1.2,12.0691964 1.37041471,12.3128397 1.45714286,12.3128397 L5.36870546,12.3128397 C5.70007631,12.3128397 5.96870546,12.5814688 5.96870546,12.9128397 C5.96870546,13.2442105 5.70007631,13.5128397 5.36870546,13.5128397 L1.45714286,13.5128397 C0.597097146,13.5128397 0,12.659165 0,11.6873755 L0,3.98912614 C0,3.47203404 0.265185564,3.01687934 0.666977777,2.75224097 C0.689951636,2.72065273 0.716931423,2.69039074 0.747415957,2.66253117 C0.808211828,2.60697031 0.862226886,2.55612029 0.943746058,2.47552173 L1.09093852,2.32800505 C1.24773121,2.16938911 1.4838956,1.92725628 1.88069965,1.51992504 L1.90318585,1.49684533 C2.1040612,1.29069647 2.26771676,1.12367515 2.40798223,0.9821441 L2.68994317,0.700960852 C2.71818305,0.673219202 2.74560933,0.646431447 2.77243807,0.620384506 C2.90788412,0.48888544 3.01801189,0.386487143 3.1061857,0.311081986 C3.16171925,0.263590371 3.21060648,0.224925741 3.25723051,0.192893954 C3.3857896,0.104570895 3.47935134,0.0585027999 3.65128529,0.0585310974 L9.70566911,0 C10.0480385,0 10.0757394,0.0242944373 11.5703694,1.41576055 Z M13.8,8.4908673 L13.8,9.69229587 L13.7943463,9.76964934 C13.7537988,10.0593235 13.4844,10.4122983 12.857664,10.7232159 C12.1998144,11.0495016 11.2608077,11.2637302 10.2,11.2637302 C9.13919232,11.2637302 8.20016832,11.0495016 7.54232448,10.7232159 C6.85860096,10.384033 6.60017856,9.99479873 6.60017856,9.69229587 L6.6,8.4908673 C6.74012928,8.65687302 6.9220992,8.80242159 7.15593216,8.91841016 C7.95729792,9.31591302 9.03414144,9.54941587 10.2,9.54943873 C11.3658816,9.54941587 12.4427136,9.31591302 13.2440448,8.91841016 C13.4779008,8.80242159 13.6598592,8.65687302 13.8,8.4908673 Z M5.86870546,8.55017631 L5.86870546,9.55017631 L2.1,9.55017631 L2.1,8.55017631 L5.86870546,8.55017631 Z M10.1998214,5.54944444 C11.2606291,5.54944444 12.1996416,5.76367302 12.8574912,6.0899873 C13.5412032,6.42913587 13.7996544,6.81837016 13.7996544,7.12087302 C13.7996544,7.42337587 13.5412032,7.81261016 12.8574912,8.15175873 C12.1996416,8.47807302 11.2606291,8.69230159 10.1998214,8.69230159 C9.13901376,8.69230159 8.19998976,8.47807302 7.54214592,8.15175873 C6.8584224,7.81261016 6.6,7.42337587 6.6,7.12087302 C6.6,6.81837016 6.8584224,6.42913587 7.54214592,6.0899873 C8.19998976,5.76367302 9.13901376,5.54944444 10.1998214,5.54944444 Z M6.6,5.54944444 L6.6,6.54944444 L2.15713672,6.54944444 L2.15713672,5.54944444 L6.6,5.54944444 Z M9.529,1.21 L3.85155556,1.266 L3.83854053,1.27821212 C3.79900048,1.31376449 3.7525378,1.35696809 3.69957084,1.40743652 L3.61529448,1.48853949 C3.56428069,1.53806671 3.51056097,1.59084977 3.45251896,1.64848465 L3.26380972,1.83754067 C3.12720386,1.97540958 2.96684345,2.13906957 2.76979768,2.3412883 L2.7474255,2.36425098 C2.69772748,2.41526749 2.65050473,2.46373932 2.60560026,2.50982398 L10.966729,2.50781525 L10.8996015,2.44492381 L10.8017565,2.35343338 C10.7738202,2.32739536 10.7738202,2.32739536 10.7458802,2.30137765 C10.3559465,1.93835835 10.0460054,1.65525471 9.8102521,1.44849296 C9.71183587,1.36217938 9.6285156,1.29113187 9.56221639,1.23697194 L9.529,1.21 Z" id="形状结合"></path>
        </g>
        <g id="infrastructure" transform="translate(8.000000, 7.500000)"></g>
    </g>
</svg>