<?xml version="1.0" encoding="UTF-8"?>
<svg width="16px" height="16px" viewBox="0 0 16 16" version="1.1" xmlns="http://www.w3.org/2000/svg" xmlns:xlink="http://www.w3.org/1999/xlink">
    <title>storage-third menu</title>
    <g id="storage-third-menu" stroke="none" stroke-width="1" fill="none" fill-rule="evenodd">
        <g id="存储设备">
            <rect id="矩形备份-14" opacity="0.446149554" x="0" y="0" width="16" height="16"></rect>
            <path d="M13.8352525,15 L2.11666667,15 C1.56438192,15 1.11666667,14.5522847 1.11666667,14 L1.11666667,9.84 C1.11666667,9.56385763 1.34052429,9.34 1.61666667,9.34 L3.73070149,9.34 C4.00684387,9.34 4.23070149,9.56385763 4.23070149,9.84 C4.23070149,10.29 4.23070149,10.74 4.23070149,11.19 C4.23070149,11.48367 4.51006059,11.8 4.86192477,11.8 C4.86192477,11.8 6.93794799,11.8 11.0899944,11.8 C11.4266468,11.7580471 11.6791361,11.5256229 11.7212177,11.19 L11.7212177,9.84 C11.7212177,9.56385763 11.9450753,9.34 12.2212177,9.34 L14.3352525,9.34 C14.6113949,9.34 14.8352525,9.56385763 14.8352525,9.84 L14.8352525,14 C14.8352525,14.5522847 14.3875373,15 13.8352525,15 Z" id="路径" fill-rule="nonzero"></path>
            <path d="M3.73070149,9.34 C4.00684387,9.34 4.23070149,9.56385763 4.23070149,9.84 L4.23070149,11.19 C4.23070149,11.48367 4.51006059,11.8 4.86192477,11.8 L11.0899944,11.8 C11.4266468,11.7580471 11.6791361,11.5256229 11.7212177,11.19 L11.7212177,9.84 C11.7212177,9.56385763 11.9450753,9.34 12.2212177,9.34 L14.3352525,9.34 C14.6113949,9.34 14.8352525,9.56385763 14.8352525,9.84 L14.8352525,14 C14.8352525,14.5522847 14.3875373,15 13.8352525,15 L2.11666667,15 C1.56438192,15 1.11666667,14.5522847 1.11666667,14 L1.11666667,9.84 C1.11666667,9.56385763 1.34052429,9.34 1.61666667,9.34 L3.73070149,9.34 Z M3.03066667,10.54 L2.31666667,10.54 L2.31666667,13.799 L13.6346667,13.799 L13.6346667,10.54 L12.9206667,10.54 L12.9212177,11.19 L12.9118949,11.3392912 C12.8006128,12.2268256 12.1136214,12.8817198 11.2383879,12.9907894 L11.0899944,13 L4.86192477,13 C3.85846639,13 3.03070149,12.1579198 3.03070149,11.19 L3.03066667,10.54 Z M13.8352525,1.15555556 C14.3875373,1.15555556 14.8352525,1.60327081 14.8352525,2.15555556 L14.8352525,8.12316498 C14.8352525,8.39930736 14.6113949,8.62316498 14.3352525,8.62316498 L11.1014478,8.62316498 C10.6812695,8.62316498 10.4721549,8.93799946 10.4721549,9.50417508 L10.4721549,10.5983838 C10.4721549,10.8745262 10.2482973,11.0983838 9.97215488,11.0983838 L5.97976431,11.0983838 C5.70362193,11.0983838 5.47976431,10.8745262 5.47976431,10.5983838 L5.47976431,9.50417508 C5.47976431,9.015176 5.30707793,8.62316498 4.85047138,8.62316498 L1.61666667,8.62316498 C1.34052429,8.62316498 1.11666667,8.39930736 1.11666667,8.12316498 L1.11666667,2.15555556 C1.11666667,1.60327081 1.56438192,1.15555556 2.11666667,1.15555556 L13.8352525,1.15555556 Z M13.6346667,2.35555556 L2.31666667,2.35555556 L2.31666667,7.42255556 L4.85047138,7.42316498 C6.02315783,7.42316498 6.62385234,8.29206492 6.67603803,9.35159072 L6.67976431,9.50417508 L6.67966667,9.89755556 L9.27166667,9.89755556 L9.27215488,9.50417508 C9.27215488,8.39238682 9.85748603,7.50697645 10.9429835,7.42878168 L11.1014478,7.42316498 L13.6346667,7.42255556 L13.6346667,2.35555556 Z M12.0304209,3.3 L12.0304209,4.55858586 L3.79563973,4.55858586 L3.79563973,3.3 L12.0304209,3.3 Z" id="形状结合" fill="#262626" fill-rule="nonzero"></path>
            <polygon id="路径" fill="#262626" fill-rule="nonzero" points="3.83759259 6.7352862 3.83759259 6.14794613 3.83759259 5.5186532 12.0304209 5.5186532 12.0304209 6.14794613 12.0304209 6.7352862"></polygon>
        </g>
    </g>
</svg>