<?xml version="1.0" encoding="UTF-8"?>
<svg width="16px" height="16px" viewBox="0 0 16 16" version="1.1" xmlns="http://www.w3.org/2000/svg" xmlns:xlink="http://www.w3.org/1999/xlink">
    <title>subordinate-ca-third-menu</title>
    <g id="subordinate-ca-third-menu" stroke="none" stroke-width="1" fill="none" fill-rule="evenodd">
        <rect id="矩形" fill-opacity="0" fill="#F0F0F0" x="0" y="0" width="16" height="16"></rect>
        <g id="图形" fill="#000000" fill-rule="nonzero">
            <rect id="矩形" opacity="0" x="0" y="0" width="16" height="16"></rect>
            <path d="M8.3295795,1.05547398 L13.5213029,2.77128846 C13.9713242,2.91997245 14.2750731,3.34053178 14.2750731,3.81441508 L14.2750731,8.76926672 C14.2750731,9.47885864 13.9622109,10.2409352 13.3697426,11.0467362 C12.933548,11.641699 12.3296698,12.2790405 11.6192433,12.8976977 C11.0112051,13.4280667 10.3433428,13.9275957 9.73403806,14.3073094 C8.88740417,14.8351445 8.39946764,15 7.98567892,15 C7.56996888,15 7.08025166,14.8317464 6.23091501,14.2939164 C5.62619146,13.9112328 4.95965461,13.4070381 4.34887704,12.8709983 C3.64239857,12.2509333 3.03969601,11.6134787 2.60318971,11.0220977 C2.00954001,10.2178242 1.696,9.46498986 1.696,8.76898196 L1.696,3.81413032 C1.696,3.34053533 1.99953268,2.92025018 2.44938898,2.77132033 L7.64008275,1.05537567 C7.86388333,0.981541443 8.10548118,0.981541443 8.3295795,1.05547398 Z M7.985,2.204 L2.896,3.887 L2.896,8.76898196 C2.896,9.12993827 3.07257924,9.59001458 3.43934937,10.1274729 L3.56866886,10.3094618 C3.95035299,10.8265694 4.49490215,11.4025175 5.14044025,11.9690961 C5.70574146,12.4652242 6.32260836,12.9318466 6.87275772,13.2799944 C7.54386832,13.7049653 7.82047533,13.8 7.98567892,13.8 C8.15266147,13.8 8.42966013,13.7064125 9.09926887,13.288944 C9.65256534,12.9441341 10.2692667,12.4828712 10.8308102,11.993058 C11.4784948,11.4290377 12.0222477,10.8551533 12.4024562,10.3365556 C12.8568671,9.71852229 13.0750731,9.18701134 13.0750731,8.76926672 L13.0750731,3.887 L7.985,2.204 Z M8,3.8 C9.43594035,3.8 10.6,4.96405965 10.6,6.4 C10.6,7.25087772 10.1912698,8.00629139 9.55943767,8.48061268 L9.6002047,8.44937684 L9.6,11.5227077 L7.98689047,10.5468682 L6.4013539,11.5227077 L6.39894668,8.448713 L6.42858607,8.47156806 C5.80357008,7.99672032 5.4,7.24548958 5.4,6.4 C5.4,4.96405965 6.56405965,3.8 8,3.8 Z M8,5 C7.22680135,5 6.6,5.62680135 6.6,6.4 C6.6,7.17319865 7.22680135,7.8 8,7.8 C8.77319865,7.8 9.4,7.17319865 9.4,6.4 C9.4,5.62680135 8.77319865,5 8,5 Z" id="形状结合"></path>
        </g>
    </g>
</svg>