<?xml version="1.0" encoding="UTF-8"?>
<svg width="16px" height="16px" viewBox="0 0 16 16" version="1.1" xmlns="http://www.w3.org/2000/svg" xmlns:xlink="http://www.w3.org/1999/xlink">
    <title>supplier-third-menu</title>
    <g id="supplier-third-menu" stroke="none" stroke-width="1" fill="none" fill-rule="evenodd">
        <rect id="矩形" fill-opacity="0" fill="#F0F0F0" x="0" y="0" width="16" height="16"></rect>
        <g id="用户角色" transform="translate(0.500000, 0.662500)">
            <rect id="矩形" fill-opacity="0" fill="#D8D8D8" x="0" y="0.3375" width="14" height="14"></rect>
            <path d="M4.39269239,7.261028 L4.65716823,7.52549244 L7.42598787,10.2941927 L7.60951214,10.477709 L7.60144289,10.7371205 C7.60023113,10.7855246 7.60023113,10.7855246 7.6,10.8375 C7.6,11.8578986 7.99275668,12.8149748 8.68493495,13.5366586 L9.65868632,14.551918 L2.19414731,14.5522382 C0.975199047,14.5522382 0.0789984991,13.5620069 0.147738662,12.3388324 C0.276180057,10.0534417 1.7642367,8.15976754 4.03879139,7.38203625 L4.39269239,7.261028 Z M11.5,7.3375 C13.4329966,7.3375 15,8.90450338 15,10.8375 C15,12.7704966 13.4329966,14.3375 11.5,14.3375 C9.56700338,14.3375 8,12.7704966 8,10.8375 C8,8.90450338 9.56700338,7.3375 11.5,7.3375 Z M4.08305589,8.64876566 L4.00311581,8.68297698 C2.4966591,9.34788523 1.52554122,10.6411422 1.36297839,12.192983 L1.3458481,12.4061657 C1.31512592,12.9528415 1.67659659,13.3522382 2.19412158,13.3522382 L7.06305589,13.3517657 L7.04907726,13.3293293 C6.67070721,12.6546735 6.44765067,11.8959004 6.40682306,11.1029967 L6.40205589,10.9667657 L4.08305589,8.64876566 Z M11.5,8.4375 C10.1745166,8.4375 9.1,9.5120166 9.1,10.8375 C9.1,12.1629834 10.1745166,13.2375 11.5,13.2375 C12.8254834,13.2375 13.9,12.1629834 13.9,10.8375 C13.9,9.5120166 12.8254834,8.4375 11.5,8.4375 Z M12.3785,11.49 C12.613,11.686 12.921,12.001 13.0715,12.169 L12.683,12.5575 C12.487,12.316 12.221,12.008 12.0075,11.805 Z M11.458,11.4655 L11.864,11.8085 C11.668,12.0465 11.4125,12.3125 11.164,12.5365 L10.7685,12.1515 C11.017,11.959 11.2865,11.693 11.458,11.4655 Z M10.3835,9.2675 L10.9155,9.3795 C10.8595,9.6175 10.786,9.838 10.6985,10.0585 L10.6985,12.5295 L10.1805,12.5295 L10.1805,11.0105 C10.107,11.119 10.0265,11.224 9.946,11.3325 L9.855,10.531 C10.0825,10.1775 10.2715,9.789 10.3835,9.2675 Z M12.144,9.2955 L12.7075,9.3095 L12.7075,9.824 L12.984,9.824 L12.984,10.3385 L12.7075,10.3385 L12.7075,10.93 L13.0505,10.93 L13.0505,11.4655 L10.828,11.4655 L10.828,10.93 L11.192,10.93 L11.192,10.3385 L10.912,10.3385 L10.912,9.824 L11.192,9.824 L11.192,9.2955 L11.773,9.3095 L11.773,9.824 L12.144,9.824 L12.144,9.2955 Z M12.144,10.3385 L11.773,10.3385 L11.773,10.93 L12.144,10.93 L12.144,10.3385 Z M6.982374,0 C9.06787421,0 10.7584784,1.6906287 10.7584784,3.77613774 C10.7584784,5.86163825 9.06787292,7.55226174 6.982374,7.55226174 C4.89687919,7.55226174 3.20625,5.86163255 3.20625,3.77613774 C3.20625,1.6906344 4.8968779,0 6.982374,0 Z M6.982374,1.2 C5.55962063,1.2 4.40625,2.35337506 4.40625,3.77613774 C4.40625,5.19889085 5.55962089,6.35226174 6.982374,6.35226174 C8.40512836,6.35226174 9.55847836,5.19889942 9.55847836,3.77613774 C9.55847836,2.3533665 8.40512861,1.2 6.982374,1.2 Z" id="形状结合" fill="#262626" fill-rule="nonzero"></path>
        </g>
    </g>
</svg>