<?xml version="1.0" encoding="UTF-8"?>
<svg width="16px" height="16px" viewBox="0 0 16 16" version="1.1" xmlns="http://www.w3.org/2000/svg" xmlns:xlink="http://www.w3.org/1999/xlink">
    <title>switch-third-menu</title>
    <g id="switch-third-menu" stroke="none" stroke-width="1" fill="none" fill-rule="evenodd">
        <rect id="矩形备份-12" opacity="0.446149554" x="0" y="0" width="16" height="16"></rect>
        <g id="交换机" transform="translate(0.513514, 1.000000)">
            <rect id="矩形备份-12" opacity="0.446149554" x="0.486486486" y="0" width="14" height="14"></rect>
            <path d="M13.2458857,0.49435455 C13.5238167,0.77228556 13.6988112,1.1514404 13.7544912,1.54190108 L14.9351351,8.9024024 L14.9351351,12.0051051 C14.9351351,13.0553949 14.0989384,13.8915916 13.0486486,13.8915916 L1.54594595,13.8915916 L1.38111327,13.868506 C0.603068816,13.6462075 0.05567309,12.9736928 0,12.1186186 L0,8.9024024 L0.00783015978,8.80578522 L1.17900328,1.6283604 C1.23787905,1.21622999 1.41237945,0.809062379 1.65258075,0.572345817 C1.95530921,0.209071664 2.42210226,0.0159159159 2.90810811,0.0159159159 L11.9526062,0.0205491899 C12.4299586,-0.0391198673 12.9117896,0.16025846 13.2458857,0.49435455 Z M13.735,9.43004278 L1.2,9.43004278 L1.19867109,12.0787072 C1.21693463,12.3526602 1.37594567,12.5759627 1.61675568,12.6809747 L1.646,12.6910428 L13.0486486,12.6915916 C13.4009651,12.6915916 13.6800504,12.444535 13.7278815,12.1084451 L13.7351351,12.0051051 L13.735,9.43004278 Z M3.17297297,9.9 C3.33513514,9.9 3.44169884,10.0111969 3.46883618,10.1382791 L3.47567568,10.2027027 L3.47567568,11.9054054 C3.47567568,12.0945946 3.32432432,12.2081081 3.17297297,12.2081081 C3.01081081,12.2081081 2.9042471,12.0969112 2.87710976,11.969829 L2.87027027,11.9054054 L2.87027027,10.2027027 C2.87027027,10.0135135 3.02162162,9.9 3.17297297,9.9 Z M4.34594595,9.9 C4.50810811,9.9 4.61467181,10.0111969 4.64180916,10.1382791 L4.64864865,10.2027027 L4.64864865,11.9054054 C4.64864865,12.0945946 4.4972973,12.2081081 4.34594595,12.2081081 C4.18378378,12.2081081 4.07722008,12.0969112 4.05008274,11.969829 L4.04324324,11.9054054 L4.04324324,10.2027027 C4.04324324,10.0135135 4.19459459,9.9 4.34594595,9.9 Z M5.51891892,9.9 C5.70810811,9.9 5.82162162,10.0513514 5.82162162,10.2027027 L5.82162162,11.9054054 C5.82162162,12.0945946 5.67027027,12.2081081 5.51891892,12.2081081 C5.35675676,12.2081081 5.25019305,12.0969112 5.22305571,11.969829 L5.21621622,11.9054054 L5.21621622,10.2027027 C5.21621622,10.0135135 5.36756757,9.9 5.51891892,9.9 Z M11.3459459,10.0135135 C11.9135135,10.0135135 12.4054054,10.5054054 12.4054054,11.072973 C12.4054054,11.6405405 11.9135135,12.1324324 11.3459459,12.1324324 C10.7783784,12.1324324 10.2864865,11.6405405 10.2864865,11.072973 C10.2864865,10.5054054 10.7783784,10.0135135 11.3459459,10.0135135 Z M12.1161687,1.21499495 L12.027027,1.21591592 L2.90810811,1.21591592 C2.76033017,1.21591592 2.63516021,1.26771038 2.53777758,1.38072053 C2.46464757,1.45385053 2.39185068,1.62370995 2.36514281,1.8098304 L1.31,8.23004278 L13.618,8.23004278 L12.5681925,1.72239035 C12.550377,1.59768218 12.5056399,1.48353011 12.4453313,1.39973127 L12.3973576,1.34288269 C12.3440791,1.28960425 12.2768707,1.249301 12.1983556,1.22873349 L12.1161687,1.21499495 Z M9.15135135,4.96726727 L11.3837838,6.14024024 C11.4594595,6.17807808 11.5351351,6.25375375 11.5351351,6.36726727 C11.5351351,6.51861862 11.3459459,6.59429429 11.3459459,6.59429429 L9.11351351,7.80510511 C9.03783784,7.80510511 8.96216216,7.84294294 8.92432432,7.84294294 C8.77297297,7.84294294 8.77297297,7.76726727 8.77297297,7.76726727 L8.77297297,6.78348348 L6.65405405,6.78348348 C4.91351351,6.78348348 4.87567568,5.26996997 4.87567568,5.26996997 C4.87567568,5.76186186 6.57837838,5.95105105 6.57837838,5.95105105 L8.77297297,5.95105105 L8.77297297,5.04294294 C8.77297297,5.04294294 8.77297297,4.96726727 8.92432432,4.96726727 C9,4.92942943 9.07567568,4.92942943 9.15135135,4.96726727 Z M6.38918919,1.9024024 C6.5027027,1.94024024 6.5027027,1.97807808 6.5027027,1.97807808 L6.5027027,2.92402402 L8.62162162,2.92402402 C10.3621622,2.92402402 10.4,4.43753754 10.4,4.43753754 C10.4,3.94564565 8.6972973,3.79429429 8.6972973,3.79429429 L6.5027027,3.79429429 L6.5027027,4.7024024 C6.5027027,4.7024024 6.5027027,4.77807808 6.38918919,4.81591592 C6.31351351,4.81591592 6.2,4.81591592 6.12432432,4.77807808 L3.89189189,3.60510511 C3.81621622,3.52942943 3.77837838,3.45375375 3.74054054,3.37807808 C3.74054054,3.22672673 3.92972973,3.15105105 3.92972973,3.15105105 L6.16216216,1.94024024 C6.23783784,1.9024024 6.31351351,1.9024024 6.38918919,1.9024024 Z" id="形状结合" fill="#262626" fill-rule="nonzero"></path>
        </g>
    </g>
</svg>