<?xml version="1.0" encoding="UTF-8"?>
<svg width="16px" height="16px" viewBox="0 0 16 16" version="1.1" xmlns="http://www.w3.org/2000/svg" xmlns:xlink="http://www.w3.org/1999/xlink">
    <title>system-map-third-menu</title>
    <g id="system-map-third-menu" stroke="none" stroke-width="1" fill="none" fill-rule="evenodd">
        <g id="数据地图备份-2" transform="translate(1.000000, 1.000000)">
            <path d="M7.00031185,2.625 C6.51277619,2.625 6.11755045,3.01675084 6.11755045,3.5 C6.11755045,3.98324916 6.51277619,4.375 7.00031185,4.375 C7.48784751,4.375 7.88307325,3.98324916 7.88307325,3.5 C7.88307325,3.01675084 7.48784751,2.625 7.00031185,2.625 Z" id="路径" fill="#262626"></path>
            <path d="M7.00031185,0.6 C7.81030802,0.6 8.54385612,0.92503184 9.07475153,1.45125952 C9.60372074,1.97557793 9.93135745,2.69978891 9.93135745,3.5 C9.93135745,4.20686793 9.37002548,5.23579833 8.75678375,6.21064196 L8.45942874,6.66912736 L8.00772552,7.32482665 C7.30091797,8.28100026 7.17864762,8.530625 7.00031185,8.530625 L5.98888512,7.32034669 L5.69331667,6.89443978 L5.24899396,6.21732404 C4.63057348,5.23561147 4.06926624,4.20680106 4.06926624,3.5 C4.06926624,2.69978891 4.39690296,1.97557793 4.92587217,1.45125952 C5.45676758,0.92503184 6.19031567,0.6 7.00031185,0.6 Z" id="路径" stroke="#262626" stroke-width="1.2"></path>
            <path d="M12.4341203,7 L14,14 L0,14 L1.5658797,7 L3.997,7 L4.797,8.2 L2.526,8.2 L1.498,12.8 L12.501,12.8 L11.473,8.2 L9.245,8.2 L10.044,7 L12.4341203,7 Z" id="形状结合" fill="#262626" fill-rule="nonzero"></path>
            <line x1="1.498" y1="10.9375" x2="12.2742701" y2="10.9375" id="路径-54" stroke="#262626" stroke-width="1.2"></line>
            <line x1="6.9593964" y1="10.044978" x2="6.9593964" y2="13.1586624" id="路径-55" stroke="#262626" stroke-width="1.2"></line>
        </g>
    </g>
</svg>