<?xml version="1.0" encoding="UTF-8"?>
<svg width="16px" height="16px" viewBox="0 0 16 16" version="1.1" xmlns="http://www.w3.org/2000/svg" xmlns:xlink="http://www.w3.org/1999/xlink">
    <title>table-space-third-menu</title>
    <g id="table-space-third-menu" stroke="none" stroke-width="1" fill="none" fill-rule="evenodd">
        <rect id="矩形" fill-opacity="0" fill="#F0F0F0" x="0" y="0" width="16" height="16"></rect>
        <g id="elasticsearch" transform="translate(1.000000, 0.399976)">
            <rect id="矩形" fill-opacity="0" fill="#D8D8D8" x="0" y="0.600023514" width="14" height="14"></rect>
            <path d="M9.6505453,0 L9.82588995,0.173398543 L13.42989,3.73739854 L13.6079911,3.91352294 L13.608,4.16400209 L13.6083333,13.5000235 C13.6083333,14.4389076 12.8472174,15.2000235 11.9083333,15.2000235 L1.975,15.2000235 C1.03611593,15.2000235 0.275,14.4389076 0.275,13.5000235 L0.275,1.70073198 C0.275,0.761847903 1.03611593,0.000731977538 1.97494278,0.000731980266 L9.6505453,0 Z M9.157,1.19902351 L1.975,1.20073198 C1.69885763,1.20073198 1.475,1.4245896 1.475,1.70073198 L1.475,13.5000235 C1.475,13.7761659 1.69885763,14.0000235 1.975,14.0000235 L11.9083333,14.0000235 C12.1844757,14.0000235 12.4083333,13.7761659 12.4083333,13.5000449 L12.408,4.41402351 L9.157,1.19902351 Z M6.9498388,4.10002351 C7.94463135,4.10002351 8.87842067,4.29754885 9.57273381,4.64470543 C10.2871442,5.00191665 10.699688,5.49378862 10.699688,6.03002351 C10.699688,6.56625841 10.2871442,7.05813038 9.5727308,7.41534311 C8.87842067,7.76249818 7.94463135,7.96002351 6.9498388,7.96002351 C5.95504304,7.96002351 5.02124303,7.76249686 4.3269416,7.41534311 L4.19998336,7.34802351 L4.2,8.37002351 C4.2,8.4603719 4.36388921,8.65578292 4.77415676,8.8609167 C5.32180108,9.13474126 6.10316689,9.30002351 6.9498388,9.30002351 C7.79650795,9.30002351 8.57786397,9.13474254 9.12551419,8.86091743 C9.53578278,8.65577967 9.699688,8.46035706 9.699688,8.37002351 L9.699688,7.87386811 C9.699688,7.59772573 9.92354563,7.37386811 10.199688,7.37386811 C10.4758304,7.37386811 10.699688,7.59772573 10.699688,7.87386811 L10.699688,10.4661697 C10.6910716,10.9966705 10.2799681,11.4817185 9.5727308,11.8353431 C8.87842067,12.1824982 7.94463135,12.3800235 6.9498388,12.3800235 C5.95504304,12.3800235 5.02124303,12.1824969 4.3269416,11.8353431 C3.61252855,11.4781366 3.19998336,10.9862639 3.19998336,10.4500235 L3.2,6.03002351 C3.2,5.49378313 3.61252855,5.00191044 4.32694004,4.6447047 C5.02124303,4.29755017 5.95504304,4.10002351 6.9498388,4.10002351 Z M9.70019076,9.68842586 C9.65884628,9.71121992 9.61635123,9.73353253 9.5727308,9.75534311 C8.87842067,10.1024982 7.94463135,10.3000235 6.9498388,10.3000235 C5.95504304,10.3000235 5.02124303,10.1024969 4.3269416,9.75534311 L4.19998336,9.68802351 L4.19999664,10.4484712 C4.2,10.5403719 4.36388921,10.7357829 4.77415676,10.9409167 C5.32180108,11.2147413 6.10316689,11.3800235 6.9498388,11.3800235 C7.79650795,11.3800235 8.57786397,11.2147425 9.12551419,10.9409174 C9.5330101,10.737166 9.69826782,10.5421837 9.699688,10.4581109 L9.70019076,9.68842586 Z M6.9498388,5.10002351 C6.10316689,5.10002351 5.32180108,5.26530577 4.7741552,5.53913111 C4.36388921,5.7442641 4.2,5.93967513 4.2,6.03002351 C4.2,6.1203719 4.36388921,6.31578292 4.77415676,6.5209167 C5.32180108,6.79474126 6.10316689,6.96002351 6.9498388,6.96002351 C7.79650795,6.96002351 8.57786397,6.79474254 9.12551419,6.52091743 C9.53578278,6.31577967 9.699688,6.12035706 9.699688,6.03002351 C9.699688,5.93968997 9.53578278,5.74426736 9.1255172,5.53913111 C8.57786397,5.26530449 7.79650795,5.10002351 6.9498388,5.10002351 Z" id="形状结合" fill="#262626" fill-rule="nonzero"></path>
        </g>
    </g>
</svg>