<?xml version="1.0" encoding="UTF-8"?>
<svg width="16px" height="16px" viewBox="0 0 16 16" version="1.1" xmlns="http://www.w3.org/2000/svg" xmlns:xlink="http://www.w3.org/1999/xlink">
    <title>target-third-menu</title>
    <g id="target-third-menu" stroke="none" stroke-width="1" fill="none" fill-rule="evenodd">
        <g>
            <rect id="矩形" x="0" y="0" width="16" height="16"></rect>
            <path d="M7.70425675,1.19498207 C8.18580156,1.19498207 8.66580008,1.24453031 9.13289486,1.34286771 C9.47366987,1.4162654 9.69007865,1.74733854 9.62129954,2.09115093 C9.54790184,2.43192595 9.21682871,2.64833473 8.87286078,2.57952203 C8.50077392,2.49896714 8.10664883,2.45846807 7.70827127,2.45846807 C4.62365376,2.45846807 2.11750052,4.96462131 2.11750052,8.04923882 C2.11750052,11.1338563 4.62365376,13.6400096 7.70827127,13.6400096 C10.7928888,13.6400096 13.299042,11.1338563 13.299042,8.04923882 C13.299042,7.68462383 13.2636676,7.32105368 13.1935627,6.96663282 C13.1252126,6.62488212 13.3499883,6.29260508 13.6926123,6.22408027 C14.034363,6.15573013 14.36664,6.38050578 14.435218,6.72339682 C14.5203974,7.15335004 14.5625279,7.59623529 14.5625279,8.04940186 C14.5584228,11.8261438 11.4797993,14.9034956 7.70425675,14.9034956 C3.92403651,14.9034956 0.85,11.8294591 0.85,8.04923882 C0.85,4.26901858 3.92403651,1.19498207 7.70425675,1.19498207 Z M7.70425675,4.20587582 C8.04044641,4.20587582 8.37875118,4.25119391 8.70625114,4.33936785 C9.04311541,4.42884742 9.24350008,4.77585502 9.15395014,5.11298419 C9.06447057,5.44984846 8.71746297,5.65023313 8.38128477,5.56093246 C8.15657428,5.50281768 7.93244029,5.47337635 7.70827127,5.47337635 C6.28566711,5.47337635 5.12839427,6.63064918 5.12839427,8.05325335 C5.12839427,9.47585751 6.28566711,10.6331303 7.70827127,10.6331303 C9.13087543,10.6331303 10.2881483,9.47585751 10.2881483,8.05325335 C10.2881483,7.91185712 10.2749889,7.7624038 10.2504957,7.60275699 C10.187144,7.25960224 10.4187784,6.92775727 10.7601798,6.86999857 C11.1033346,6.80664692 11.4351796,7.03828129 11.4933139,7.38180262 C11.5317751,7.60829649 11.551634,7.83301835 11.551634,8.05354979 C11.5474535,10.1688556 9.82111912,11.8926018 7.70425675,11.8926018 C5.58604986,11.8926018 3.86089375,10.1674457 3.86089375,8.04923882 C3.86089375,5.93103193 5.58604986,4.20587582 7.70425675,4.20587582 Z M12.2796298,0.850843724 L12.3860035,0.865435034 C12.6023406,0.919476009 12.7734477,1.07476653 12.8405123,1.28114315 L13.3136966,2.691 L14.7168918,3.15775325 C14.8924855,3.2162845 15.0334276,3.35113249 15.1032883,3.52116606 L15.1321265,3.60892455 C15.1847456,3.81940123 15.1188586,4.04634541 14.9642063,4.20099771 L13.1094958,6.05570826 C12.9923981,6.17280593 12.8330797,6.23873076 12.6621951,6.24416515 C12.6143311,6.24416515 12.5633875,6.23880265 12.5142679,6.22785521 L11.055,5.87199081 L8.71244032,7.95548906 C8.62073461,8.03885788 8.50783336,8.09088122 8.38664005,8.1083558 L8.29439192,8.1149338 C8.11776305,8.1149338 7.94605223,8.03954856 7.82047765,7.90344698 C7.58882204,7.64020197 7.61153305,7.24438141 7.87355269,7.01380682 L10.173,4.96799081 L9.74056211,3.56426305 C9.67191614,3.3372033 9.73187261,3.09445272 9.89851355,2.9330456 L11.7973839,1.03417528 C11.924406,0.907153203 12.1017734,0.841643032 12.2796298,0.850843724 Z M11.9576966,2.641 L11.0496966,3.546 L11.3946966,4.651 L12.4666966,4.912 L13.3476966,4.031 L12.6067319,3.78359287 C12.4489705,3.73100574 12.3202089,3.61977314 12.2451858,3.47470188 L12.2068186,3.38379694 L11.9576966,2.641 Z" id="形状结合" fill="#262626" fill-rule="nonzero"></path>
        </g>
    </g>
</svg>