<?xml version="1.0" encoding="UTF-8"?>
<svg width="16px" height="16px" viewBox="0 0 16 16" version="1.1" xmlns="http://www.w3.org/2000/svg" xmlns:xlink="http://www.w3.org/1999/xlink">
    <title>task-list-third-menu</title>
    <g id="task-list-third-menu" stroke="none" stroke-width="1" fill="none" fill-rule="evenodd">
        <rect id="矩形" fill-opacity="0" fill="#F0F0F0" x="0" y="0" width="16" height="16"></rect>
        <g id="elasticsearch" transform="translate(0.880356, 1.000000)">
            <rect id="矩形" fill-opacity="0" fill="#D8D8D8" x="0.11964413" y="0" width="14" height="14"></rect>
            <path d="M0.99464413,13.0125 L3.39464413,13.0125 L3.39464413,10.6125 L0.99464413,10.6125 L0.99464413,13.0125 Z M0.99464413,8.6375 L3.39464413,8.6375 L3.39464413,6.2375 L0.99464413,6.2375 L0.99464413,8.6375 Z M5.36964413,3.6625 L13.2446441,3.6625 L13.2446441,2.4625 L5.36964413,2.4625 L5.36964413,3.6625 Z M5.36964413,8.0375 L13.2446441,8.0375 L13.2446441,6.8375 L5.36964413,6.8375 L5.36964413,8.0375 Z M3.28569926,0.637409776 L4.49936167,1.51889917 L2.64106188,4.07746496 L2.22478548,4.65060745 L1.62882625,4.26770937 L0,3.22120416 L0.810808863,1.95922596 L1.84340443,2.62215447 L3.28569926,0.637409776 Z M5.36964413,12.4125 L13.2446441,12.4125 L13.2446441,11.2125 L5.36964413,11.2125 L5.36964413,12.4125 Z" id="形状结合" fill="#262626" fill-rule="nonzero"></path>
        </g>
    </g>
</svg>