<?xml version="1.0" encoding="UTF-8"?>
<svg width="16px" height="16px" viewBox="0 0 16 16" version="1.1" xmlns="http://www.w3.org/2000/svg" xmlns:xlink="http://www.w3.org/1999/xlink">
    <title>task history 2</title>
    <g id="task-history" stroke="none" stroke-width="1" fill="none" fill-rule="evenodd">
        <rect id="矩形" fill="#000000" opacity="0" x="0" y="0" width="16" height="16"></rect>
        <path d="M10.5,1.4 C10.8313708,1.4 11.1,1.66862915 11.1,2 C11.1,2.33137085 10.8313708,2.6 10.5,2.6 L9.09923305,2.6 L9.1,3.5 C11.6653775,4.01829827 13.6,6.28322149 13.6,9 C13.6,12.0927946 11.0927946,14.6 8,14.6 C6.47321531,14.6 5.04263181,13.9852602 3.99618998,12.915294 C3.76449418,12.6783896 3.76871659,12.2985141 4.00562099,12.0668183 C4.24252539,11.8351225 4.62240091,11.8393449 4.85409672,12.0762493 C5.67703257,12.917685 6.79944542,13.4 8,13.4 C10.4300529,13.4 12.4,11.4300529 12.4,9 C12.4,6.5699471 10.4300529,4.6 8,4.6 C5.70097937,4.6 3.81378305,6.36322952 3.61694636,8.61115324 L4.2097888,8.01537645 C4.37580654,7.848149 4.63438506,7.82869647 4.82192768,7.95761274 L4.88860912,8.01291001 C5.07673772,8.19968226 5.07784096,8.50359944 4.891071,8.69173033 L3.48708999,10.1059462 C3.29983815,10.2945579 2.99496835,10.2951112 2.80703535,10.1071782 L1.39282179,8.69296465 C1.20537013,8.50551299 1.20537013,8.2015938 1.39282179,8.01414214 C1.58027345,7.82669048 1.88419264,7.82669048 2.0716443,8.01414214 L2.43418716,8.37769409 C2.74015141,5.61027876 5.06269868,3.45066153 7.89979279,3.40087855 L7.89923305,2.6 L6,2.6 C5.66862915,2.6 5.4,2.33137085 5.4,2 C5.4,1.66862915 5.66862915,1.4 6,1.4 L10.5,1.4 Z M8.4,7.6 L8.4,9.309 L9.33767724,10.7855843 L9.55209291,11.1232616 L8.87673842,11.5520929 L8.66232276,11.2144157 L7.66232276,9.63954362 L7.6,9.42512795 L7.6,7.6 L8.4,7.6 Z" id="形状结合" fill="#262626" fill-rule="nonzero"></path>
    </g>
</svg>