<?xml version="1.0" encoding="UTF-8"?>
<svg width="16px" height="16px" viewBox="0 0 16 16" version="1.1" xmlns="http://www.w3.org/2000/svg" xmlns:xlink="http://www.w3.org/1999/xlink">
    <title>task history</title>
    <g id="task-history" stroke="none" stroke-width="1" fill="none" fill-rule="evenodd">
        <rect id="矩形" fill="#000000" opacity="0" x="0" y="0" width="16" height="16"></rect>
        <g id="编组-2备份-2" transform="translate(5.250000, 6.764781)" stroke="#262626" stroke-linecap="square" stroke-linejoin="round" stroke-width="0.9">
            <polyline id="路径-2" points="1.47024408 0 -3.53492488e-17 1.45837959 1.47024408 2.88232679"></polyline>
            <polyline id="路径-2" transform="translate(5.358628, 1.441163) scale(-1, 1) translate(-5.358628, -1.441163) " points="6.09375 0 4.62350592 1.45837959 6.09375 2.88232679"></polyline>
        </g>
        <path d="M12,10 C13.6568542,10 15,11.3431458 15,13 C15,14.6568542 13.6568542,16 12,16 C10.3431458,16 9,14.6568542 9,13 C9,11.3431458 10.3431458,10 12,10 Z M8.9334641,0.399260531 L9.10922415,0.574987518 L13.995,5.45926053 L14.6,6.0647303 L14.6,9.49951083 C14.6,9.83088168 14.3313708,10.0995108 14,10.0995108 C13.6686292,10.0995108 13.4,9.83088168 13.4,9.49951083 L13.4,6.5622915 L13.377,6.53926053 L9.89814202,6.53933338 C9.14793737,6.53933338 8.53925372,5.93210328 8.53925372,5.18240059 L8.539,1.70326053 L8.435,1.5982915 L3,1.6 C2.80670034,1.6 2.64542508,1.7371128 2.60812658,1.91938605 L2.6,2 L2.6,14 C2.6,14.2209139 2.7790861,14.4 3,14.4 L8.32932755,14.4 C8.6606984,14.4 8.92932755,14.6686292 8.92932755,15 C8.92932755,15.3313708 8.6606984,15.6 8.32932755,15.6 L3,15.6 C2.1163444,15.6 1.4,14.8836556 1.4,14 L1.4,2 C1.4,1.1163444 2.1163444,0.4 2.99992522,0.400000005 L8.9334641,0.399260531 Z M12,11 C10.8954305,11 10,11.8954305 10,13 C10,14.1045695 10.8954305,15 12,15 C13.1045695,15 14,14.1045695 14,13 C14,11.8954305 13.1045695,11 12,11 Z M12.5,11.5 L12.5,12.75 L13.362055,13.6551577 L13.7068973,14.0172127 L12.9827873,14.7068973 L12.637945,14.3448423 L11.637945,13.2949276 C11.5493928,13.2019553 11.5,13.0784806 11.5,12.9500853 L11.5,11.5 L12.5,11.5 Z M9.619,2.78326053 L9.61925372,5.18240059 C9.61925372,5.33505695 9.74382763,5.45933338 9.89814202,5.45933338 L12.297,5.45926053 L9.619,2.78326053 Z" id="形状结合" fill="#262626" fill-rule="nonzero"></path>
    </g>
</svg>