<?xml version="1.0" encoding="UTF-8"?>
<svg width="16px" height="16px" viewBox="0 0 16 16" version="1.1" xmlns="http://www.w3.org/2000/svg" xmlns:xlink="http://www.w3.org/1999/xlink">
    <title>task list</title>
    <g id="task-list" stroke="none" stroke-width="1" fill="none" fill-rule="evenodd">
        <rect id="矩形" fill="#000000" opacity="0" x="0" y="0" width="16" height="16"></rect>
        <path d="M12,10 C13.6568542,10 15,11.3431458 15,13 C15,14.6568542 13.6568542,16 12,16 C10.3431458,16 9,14.6568542 9,13 C9,11.3431458 10.3431458,10 12,10 Z M12,11 C10.8954305,11 10,11.8954305 10,13 C10,14.1045695 10.8954305,15 12,15 C13.1045695,15 14,14.1045695 14,13 C14,11.8954305 13.1045695,11 12,11 Z M12.5,11.5 L12.5,12.75 L13.362055,13.6551577 L13.7068973,14.0172127 L12.9827873,14.7068973 L12.637945,14.3448423 L11.637945,13.2949276 C11.5493928,13.2019553 11.5,13.0784806 11.5,12.9500853 L11.5,11.5 L12.5,11.5 Z M8.20692747,0.4 C8.36346053,0.4 8.51380338,0.461136117 8.62587682,0.570416233 L13.5608768,5.38241623 C13.6766708,5.49532413 13.7419801,5.65019666 13.742,5.81192617 L13.7420083,5.87789796 L13.7423217,8.42660403 C13.7423217,8.75797488 13.4736926,9.02660403 13.1423217,9.02660403 C12.8109509,9.02660403 12.5423217,8.75797488 12.5423217,8.42660403 L12.542,6.065 L7.962,1.599 L2.9,1.60064154 C2.75798392,1.60064154 2.63901581,1.69932163 2.60792321,1.83185429 L2.6,1.90064154 L2.6,12.7774629 C2.6,12.9431483 2.73431458,13.0774629 2.9,13.0774629 L7.64303628,13.0774629 C7.97440713,13.0774629 8.24303628,13.346092 8.24303628,13.6774629 C8.24303628,14.0088337 7.97440713,14.2774629 7.64303628,14.2774629 L2.9,14.2774629 C2.07157288,14.2774629 1.4,13.60589 1.4,12.7774629 L1.4,1.90064154 C1.4,1.07221441 2.07157288,0.400641537 2.89992747,0.400641541 L8.20692747,0.4 Z M10.8214286,7.19179583 L10.8214286,8.39179583 L3.79081633,8.39179583 L3.79081633,7.19179583 L10.8214286,7.19179583 Z M8.56632653,3.56984687 L8.56632653,4.76984687 L3.79081633,4.76984687 L3.79081633,3.56984687 L8.56632653,3.56984687 Z" id="形状结合" fill="#262626" fill-rule="nonzero"></path>
    </g>
</svg>