<?xml version="1.0" encoding="UTF-8"?>
<svg width="16px" height="16px" viewBox="0 0 16 16" version="1.1" xmlns="http://www.w3.org/2000/svg" xmlns:xlink="http://www.w3.org/1999/xlink">
    <title>task management</title>
    <g id="task-management" stroke="none" stroke-width="1" fill="none" fill-rule="evenodd">
        <rect id="矩形" fill="#000000" opacity="0" x="0" y="0" width="16" height="16"></rect>
        <g id="编组" transform="translate(0.400000, 1.400000)" fill="#262626" fill-rule="nonzero">
            <path d="M13.6678572,0 C14.5140363,0 15.2,0.685963712 15.2,1.53214283 L15.2,3.15608974 C15.2,3.48746059 14.9313708,3.75608974 14.6,3.75608974 L1.2,3.756 L1.2,12.478654 C1.2,12.6391617 1.31385258,12.7730778 1.46520447,12.8040489 L1.53214283,12.8107968 L13.6678572,12.8107968 C13.8512946,12.8107968 14,12.6620914 14,12.478654 L14,8.39156605 C14,8.0601952 14.2686292,7.79156605 14.6,7.79156605 C14.9313708,7.79156605 15.2,8.0601952 15.2,8.39156605 L15.2,12.478654 C15.2,13.3248331 14.5140363,14.0107968 13.6678572,14.0107968 L1.53214283,14.0107968 C0.685963712,14.0107968 0,13.3248331 0,12.478654 L0,1.53214283 C0,0.685963712 0.685963712,0 1.53214283,0 L13.6678572,0 Z M11.6673077,10.4808518 L11.6673077,11.4808518 L7.04230769,11.4808518 L7.04230769,10.4808518 L11.6673077,10.4808518 Z M4.11211348,5.5333604 L4.46555882,5.88702182 L6.27508999,7.69765925 C6.47185877,7.89454833 6.46994939,8.21422471 6.27084275,8.40874929 L4.46131158,10.1766375 L4.10366688,10.5260517 L3.40483852,9.81076227 L3.76248322,9.46134809 L5.21042857,8.04646715 L3.75823599,6.59391249 L3.40479065,6.24025107 L4.11211348,5.5333604 Z M13.6678572,1.2 L1.53214283,1.2 C1.34870541,1.2 1.2,1.34870541 1.2,1.53214283 L1.2,2.556 L14,2.556 L14,1.53214283 C14,1.37163509 13.8861474,1.23771904 13.7347955,1.20674796 L13.6678572,1.2 Z" id="形状结合"></path>
        </g>
    </g>
</svg>