<?xml version="1.0" encoding="UTF-8"?>
<svg width="16px" height="16px" viewBox="0 0 16 16" version="1.1" xmlns="http://www.w3.org/2000/svg" xmlns:xlink="http://www.w3.org/1999/xlink">
    <title>team-calendar-third-menu</title>
    <g id="team-calendar-third-menu" stroke="none" stroke-width="1" fill="none" fill-rule="evenodd">
        <g id="编组备份" transform="translate(1.000000, 1.000000)" fill="#262626" fill-rule="nonzero">
            <rect id="矩形" x="3" y="5.3" width="2" height="1.2" rx="0.6"></rect>
            <rect id="矩形备份" x="6" y="5.3" width="2" height="1.2" rx="0.6"></rect>
            <rect id="矩形备份-2" x="9" y="5.3" width="2" height="1.2" rx="0.6"></rect>
            <rect id="矩形备份-4" x="3" y="7.7" width="1.875" height="1.2" rx="0.6"></rect>
            <rect id="矩形备份-7" x="3" y="9.7" width="1.875" height="1.2" rx="0.6"></rect>
            <rect id="矩形备份-5" x="6" y="7.7" width="1.875" height="1.2" rx="0.6"></rect>
            <rect id="矩形备份-8" x="6" y="9.7" width="1.875" height="1.2" rx="0.6"></rect>
            <rect id="矩形备份-6" x="9" y="7.7" width="1.875" height="1.2" rx="0.6"></rect>
            <g id="编组-2">
                <path d="M2.9,1.4 L2.9,2.6 L1.6,2.6 C1.3790861,2.6 1.2,2.7790861 1.2,3 L1.2,12.4 C1.2,12.6209139 1.37908603,12.8 1.600171,12.8 L9.33055358,12.8010403 C9.66187455,12.8010848 9.93042713,13.0697097 9.93038254,13.4010307 C9.93038254,13.4010608 9.93038253,13.4010909 9.93038252,13.401121 C9.93028804,13.7325065 9.6615969,14.0010849 9.33021143,14.0010403 L1.6,14 L1.6,14 C0.7163444,14 0,13.2836556 0,12.4 L0,3 C0,2.1163444 0.7163444,1.4 1.6,1.4 L2.9,1.4 Z M8,1.4 L8,2.6 L6,2.6 L6,1.4 L8,1.4 Z M12.4,1.4 C13.2836556,1.4 14,2.1163444 14,2.99953389 L14.0011955,10.0691953 C14.0012516,10.4006252 13.7327268,10.6694041 13.401297,10.6696616 C13.0701275,10.6699188 12.801453,10.4016615 12.8011957,10.0704919 C12.8011956,10.0703705 12.8011956,10.070249 12.8011955,10.0701275 L12.8,3 L12.8,3 C12.8,2.7790861 12.6209139,2.6 12.4,2.6 L11,2.6 L11,1.4 L12.4,1.4 Z" id="形状"></path>
                <path d="M4.5,0 C4.83137085,-6.08718376e-17 5.1,0.26862915 5.1,0.6 L5.1,3.4 C5.1,3.73137085 4.83137085,4 4.5,4 C4.16862915,4 3.9,3.73137085 3.9,3.4 L3.9,0.6 C3.9,0.26862915 4.16862915,6.08718376e-17 4.5,0 Z" id="矩形备份-5"></path>
                <path d="M9.5,0 C9.83137085,-6.08718376e-17 10.1,0.26862915 10.1,0.6 L10.1,3.4 C10.1,3.73137085 9.83137085,4 9.5,4 C9.16862915,4 8.9,3.73137085 8.9,3.4 L8.9,0.6 C8.9,0.26862915 9.16862915,6.08718376e-17 9.5,0 Z" id="矩形备份-6"></path>
            </g>
        </g>
    </g>
</svg>