<?xml version="1.0" encoding="UTF-8"?>
<svg width="16px" height="16px" viewBox="0 0 16 16" version="1.1" xmlns="http://www.w3.org/2000/svg" xmlns:xlink="http://www.w3.org/1999/xlink">
    <title>template management</title>
    <g id="template-management" stroke="none" stroke-width="1" fill="none" fill-rule="evenodd">
        <rect id="矩形" fill="#000000" opacity="0" x="0" y="0" width="16" height="16"></rect>
        <g id="编组" transform="translate(1.400000, 0.400000)">
            <path d="M11.85,0 C12.7336556,0 13.45,0.7163444 13.45,1.6 L13.45,12.725 C13.45,13.0563708 13.1813708,13.325 12.85,13.325 C12.5186292,13.325 12.25,13.0563708 12.25,12.725 L12.25,1.6 C12.25,1.3790861 12.0709139,1.2 11.85,1.2 L3.35,1.2 C3.15670034,1.2 2.99542508,1.3371128 2.95812658,1.51938605 L2.95,1.6 C2.95,1.65222693 2.94332712,1.70289532 2.93078742,1.75119911 L10.1,1.75 C10.9836556,1.75 11.7,2.4663444 11.7,3.35 L11.7,13.6 C11.7,14.4836556 10.9836556,15.2 10.1,15.2 L1.6,15.2 C0.7163444,15.2 0,14.4836556 0,13.6 L0,3.35 C0,2.4663444 0.7163444,1.75 1.6,1.75 L1.76921258,1.75119911 C1.75667288,1.70289532 1.75,1.65222693 1.75,1.6 C1.75,0.7163444 2.4663444,0 3.35,0 L11.85,0 Z M10.1,2.95 L1.6,2.95 C1.3790861,2.95 1.2,3.1290861 1.2,3.35 L1.2,13.6 C1.2,13.8209139 1.3790861,14 1.6,14 L10.1,14 C10.3209139,14 10.5,13.8209139 10.5,13.6 L10.5,3.35 C10.5,3.1290861 10.3209139,2.95 10.1,2.95 Z M3.62777778,4.1 C4.14477767,4.1 4.59006347,4.41538813 4.79123005,4.86907433 L9.53333333,4.86956522 L9.53333333,8.80869565 L3.61733333,8.80869565 L3.61733333,10.3476957 L7.13111787,10.3470518 C7.33234421,9.89351766 7.77755221,9.57826087 8.29444444,9.57826087 C9.00014162,9.57826087 9.57222222,10.1658871 9.57222222,10.8907609 C9.57222222,11.6156346 9.00014162,12.2032609 8.29444444,12.2032609 C7.82193771,12.2032609 7.40933274,11.9398216 7.18824375,11.5481339 L2.41666667,11.5478261 L2.41666667,7.60869565 L8.33233333,7.60856522 L8.33233333,6.06956522 L4.73397847,6.06987302 C4.51288948,6.46156077 4.10028451,6.725 3.62777778,6.725 C2.9220806,6.725 2.35,6.13737373 2.35,5.4125 C2.35,4.68762627 2.9220806,4.1 3.62777778,4.1 Z" id="形状" fill="#262626" fill-rule="nonzero"></path>
            <g id="编组-8" transform="translate(2.350000, 4.100000)"></g>
        </g>
    </g>
</svg>