<?xml version="1.0" encoding="UTF-8"?>
<svg width="16px" height="16px" viewBox="0 0 16 16" version="1.1" xmlns="http://www.w3.org/2000/svg" xmlns:xlink="http://www.w3.org/1999/xlink">
    <title>tencent-cloud-hard-disk-third-menu</title>
    <g id="tencent-cloud-hard-disk-third-menu" stroke="none" stroke-width="1" fill="none" fill-rule="evenodd">
        <rect id="矩形" fill-opacity="0" fill="#F0F0F0" x="0" y="0" width="16" height="16"></rect>
        <g id="服务名" transform="translate(1.000000, 1.000000)">
            <rect id="矩形" fill-opacity="0" fill="#D8D8D8" x="0" y="0" width="14" height="14"></rect>
            <g id="编组-28" transform="translate(0.437500, 0.000000)" fill="#262626" fill-rule="nonzero">
                <path d="M12.125,0 C12.6772847,0 13.125,0.44771525 13.125,1 L13.125,13 C13.125,13.5522847 12.6772847,14 12.125,14 L1,14 C0.44771525,14 0,13.5522847 0,13 L0,1 C0,0.44771525 0.44771525,0 1,0 L12.125,0 Z M7.562,9.075 L1.2,9.075 L1.2,12.8 L7.562,12.8 L7.562,9.075 Z M11.925,9.075 L8.762,9.075 L8.762,12.8 L11.925,12.8 L11.925,9.075 Z M11.925,1.2 L1.2,1.2 L1.2,7.875 L11.925,7.875 L11.925,1.2 Z" id="形状结合"></path>
            </g>
        </g>
    </g>
</svg>