<?xml version="1.0" encoding="UTF-8"?>
<svg width="16px" height="16px" viewBox="0 0 16 16" version="1.1" xmlns="http://www.w3.org/2000/svg" xmlns:xlink="http://www.w3.org/1999/xlink">
    <title>tencent-cloud-private-network-third-menu</title>
    <g id="tencent-cloud-private-network-third-menu" stroke="none" stroke-width="1" fill="none" fill-rule="evenodd">
        <rect id="矩形" fill-opacity="0" fill="#F0F0F0" x="0" y="0" width="16" height="16"></rect>
        <g id="服务名" transform="translate(0.400000, 1.000000)">
            <rect id="矩形" fill-opacity="0" fill="#D8D8D8" x="0.6" y="0" width="14" height="14"></rect>
            <path d="M7.6,0 C10.2967881,-4.95391933e-16 12.518664,2.03334054 12.8161509,4.65054465 L13.6,4.65 C14.4836556,4.65 15.2,5.3663444 15.2,6.25 L15.2,13 C15.2,13.8836556 14.4836556,14.6 13.6,14.6 L1.6,14.6 C0.7163444,14.6 0,13.8836556 0,13 L0,6.25 C0,5.3663444 0.7163444,4.65 1.6,4.65 L2.38384914,4.65054465 C2.68133598,2.03334054 4.90321193,4.95391933e-16 7.6,0 Z M13.6,5.85 L1.6,5.85 C1.3790861,5.85 1.2,6.0290861 1.2,6.25 L1.2,13 C1.2,13.2209139 1.3790861,13.4 1.6,13.4 L13.6,13.4 C13.8209139,13.4 14,13.2209139 14,13 L14,6.25 C14,6.0290861 13.8209139,5.85 13.6,5.85 Z M8.9125,7.875 L8.9125,11.375 L6.2875,11.375 L6.2875,7.875 L8.9125,7.875 Z M7.6,1.25 C5.59459348,1.25 3.93387307,2.72577666 3.64461724,4.65055152 L11.5553828,4.65055152 C11.2661269,2.72577666 9.60540652,1.25 7.6,1.25 Z" id="形状结合" fill="#262626" fill-rule="nonzero"></path>
        </g>
    </g>
</svg>