<?xml version="1.0" encoding="UTF-8"?>
<svg width="16px" height="16px" viewBox="0 0 16 16" version="1.1" xmlns="http://www.w3.org/2000/svg" xmlns:xlink="http://www.w3.org/1999/xlink">
    <title>tencent-cvm-third-menu</title>
    <g id="tencent-cvm-third-menu" stroke="none" stroke-width="1" fill="none" fill-rule="evenodd">
        <rect id="矩形" fill-opacity="0" fill="#F0F0F0" x="0" y="0" width="16" height="16"></rect>
        <g id="资源实例" transform="translate(1.210000, 0.554701)">
            <rect id="矩形" fill="#FFFFFF" opacity="0" x="0.79" y="1.2631546" width="12.5523251" height="12.5523251"></rect>
            <path d="M7.90435683,0.290596343 L12.5551527,2.9757346 C13.2262562,3.36319639 13.639673,4.07925531 13.639673,4.85417889 L13.639673,10.2244554 C13.639673,10.999379 13.2262562,11.7154379 12.5551527,12.1028997 L8.14868759,14.6490195 C7.87098474,15.0902071 7.37964781,15.3833807 6.81983652,15.3833807 C5.9532793,15.3833807 5.25079588,14.6808973 5.25079588,13.8143401 C5.25079588,12.9477829 5.9532793,12.2452995 6.81983652,12.2452995 C7.4668659,12.2452995 8.02242233,12.6369418 8.26237934,13.1961 L11.9551527,11.0636692 C12.2549749,10.8905668 12.439673,10.5706603 12.439673,10.2244554 L12.439,5.192 L7.12612494,8.34629959 L6.81094955,8.5334062 L6.50060445,8.33839253 L1.2,5.007 L1.2,10.2244554 C1.2,10.5706603 1.3846981,10.8905668 1.68452032,11.0636692 L4.62754988,12.761734 C4.52315979,13.0519912 4.46627556,13.3649129 4.46627556,13.6911206 C4.46627556,13.8201971 4.47518188,13.9471935 4.49241351,14.0715287 L1.08452032,12.1028997 C0.41341681,11.7154379 0,10.999379 0,10.2244554 L0,4.85417889 C0,4.07925531 0.41341681,3.36319639 1.08452032,2.9757346 L5.7353162,0.290596343 C6.40641971,-0.0968654478 7.23325333,-0.0968654478 7.90435683,0.290596343 Z M6.3353162,1.32982683 L1.783,3.957 L6.82843515,7.12646762 L12.0105029,4.04944754 C11.9925226,4.03738933 11.9740667,4.02588509 11.9551527,4.01496508 L7.30435683,1.32982683 C7.00453462,1.15672439 6.63513841,1.15672439 6.3353162,1.32982683 Z" id="形状结合" fill="#000000" fill-rule="nonzero"></path>
        </g>
    </g>
</svg>