<?xml version="1.0" encoding="UTF-8"?>
<svg width="16px" height="16px" viewBox="0 0 16 16" version="1.1" xmlns="http://www.w3.org/2000/svg" xmlns:xlink="http://www.w3.org/1999/xlink">
    <title>tencent-cloud-nat-gateway-third-menu</title>
    <g id="tencent-cloud-nat-gateway-third-menu" stroke="none" stroke-width="1" fill="none" fill-rule="evenodd">
        <rect id="矩形" fill-opacity="0" fill="#F0F0F0" x="0" y="0" width="16" height="16"></rect>
        <g id="服务名" transform="translate(1.000000, 1.000000)">
            <rect id="矩形" fill-opacity="0" fill="#D8D8D8" x="0" y="0" width="14" height="14"></rect>
            <g id="图形" fill="#262626" fill-rule="nonzero">
                <path d="M13,2.63 C13.5522847,2.63 14,3.07771525 14,3.63 L13.999,3.831 L13.999,9.999 L14,11.2 L13.999,11.199 L13.999,12.799 L14,13 C14,13.5522847 13.5522847,14 13,14 L12.8,14 L1.2,13.999 L1,14 C0.44771525,14 2.01876771e-16,13.5522847 0,13 L0,3.63 C6.76353751e-17,3.07771525 0.44771525,2.63 1,2.63 L1.2,2.631 L12.799,2.631 L13,2.63 Z M12.799,11.199 L1.2,11.199 L1.2,12.799 L12.799,12.799 L12.799,11.199 Z M12.799,3.831 L1.2,3.831 L1.2,9.999 L12.799,9.999 L12.799,3.831 Z M3.52,0 C3.85137085,-6.08718376e-17 4.12,0.26862915 4.12,0.6 L4.12,2.625 L2.92,2.625 L2.92,0.6 C2.92,0.26862915 3.18862915,6.08718376e-17 3.52,0 Z M10.52,0 C10.8513708,-6.08718376e-17 11.12,0.26862915 11.12,0.6 L11.12,2.625 L9.92,2.625 L9.92,0.6 C9.92,0.26862915 10.1886292,6.08718376e-17 10.52,0 Z" id="形状结合"></path>
            </g>
        </g>
    </g>
</svg>