<?xml version="1.0" encoding="UTF-8"?>
<svg width="16px" height="16px" viewBox="0 0 16 16" version="1.1" xmlns="http://www.w3.org/2000/svg" xmlns:xlink="http://www.w3.org/1999/xlink">
    <title>third-party events-third menu</title>
    <g id="third-party-events-third-menu" stroke="none" stroke-width="1" fill="none" fill-rule="evenodd">
        <g id="third-party-events">
            <g id="编组-2" transform="translate(8.882353, 8.305882)"></g>
            <g id="图形">
                <rect id="矩形" x="0" y="0" width="16" height="16"></rect>
                <path d="M5.437,2.27181325 C5.73507934,2.27181325 5.98241928,2.489186 6.02908329,2.77410476 L6.03699984,2.87137385 C6.03727043,3.24086684 6.31521972,3.54711159 6.64606273,3.58148719 L6.75,3.5875 L9.25,3.5875 C9.61071098,3.5875 9.90881641,3.31945381 9.95599571,2.97168203 L9.9625,2.875 C9.9625,2.54410694 10.2303839,2.27567611 10.5612763,2.27500125 L12.125,2.27181325 C13.0086556,2.27181325 13.725,2.98815765 13.725,3.87181325 L13.725,6.08532489 C13.725,6.41669574 13.4563708,6.68532489 13.125,6.68532489 C12.7936292,6.68532489 12.525,6.41669574 12.525,6.08532489 L12.525,3.87181325 C12.525,3.65089935 12.3459139,3.47181325 12.1262237,3.471812 L11.065,3.47381325 L11.0257363,3.58659072 C10.7610667,4.24645383 10.1392535,4.72456028 9.39946075,4.781746 L9.25,4.7875 L6.71974127,4.78673652 L6.55518249,4.77765338 C5.83855402,4.7048758 5.24553808,4.24012305 4.98276359,3.60613592 L4.933,3.47181325 L3.875,3.47181325 C3.68170034,3.47181325 3.52042508,3.60892605 3.48312658,3.7911993 L3.475,3.87181325 L3.475,12.9968132 C3.475,13.2177271 3.6540861,13.3968132 3.875,13.3968132 L7.02786654,13.3968132 C7.35923739,13.3968132 7.62786654,13.6654424 7.62786654,13.9968132 C7.62786654,14.3281841 7.35923739,14.5968132 7.02786654,14.5968132 L3.875,14.5968132 C2.9913444,14.5968132 2.275,13.8804688 2.275,12.9968132 L2.275,3.87181325 C2.275,2.98815765 2.9913444,2.27181325 3.875,2.27181325 L5.437,2.27181325 Z M11.9411765,8.805882 C13.2609746,8.805882 14.3308824,9.87578977 14.3308824,11.1955879 L14.3313154,13.4737355 C14.6927599,13.6525096 14.9512215,14.0079986 14.9938045,14.427307 L15,14.55 L8.88235294,14.55 C8.88235294,14.078191 9.15463996,13.6699781 9.55064589,13.4739293 L9.55147059,11.1955879 C9.55147059,9.93078136 10.5340769,8.89547482 11.7775625,8.81139512 L11.9411765,8.805882 Z M12,10 C11.2036133,10 10.7514706,10.5385315 10.7514706,11.1955879 L10.751,13.35 L13.13,13.35 L13.1308824,11.1955879 C13.1308824,10.6643668 12.7963867,10 12,10 Z M5.09472656,10.0996875 C5.43451113,10.0996875 5.70996094,10.3751373 5.70996094,10.7149219 C5.70996094,11.0547064 5.43451113,11.3301563 5.09472656,11.3301563 C4.754942,11.3301563 4.47949219,11.0547064 4.47949219,10.7149219 C4.47949219,10.3751373 4.754942,10.0996875 5.09472656,10.0996875 Z M8.52050781,10.2227344 L8.52050781,11.2071094 L6.69433594,11.2071094 L6.69433594,10.2227344 L8.52050781,10.2227344 Z M5.09472656,7.88484375 C5.43451113,7.88484375 5.70996094,8.16029356 5.70996094,8.50007813 C5.70996094,8.83986269 5.43451113,9.1153125 5.09472656,9.1153125 C4.754942,9.1153125 4.47949219,8.83986269 4.47949219,8.50007813 C4.47949219,8.16029356 4.754942,7.88484375 5.09472656,7.88484375 Z M9.52050781,8.00789063 L9.52050781,8.99226563 L6.67433882,8.99226563 L6.69433594,8.00789063 L9.52050781,8.00789063 Z M5.09472656,5.67 C5.43451113,5.67 5.70996094,5.94544981 5.70996094,6.28523438 C5.70996094,6.62501894 5.43451113,6.90046875 5.09472656,6.90046875 C4.754942,6.90046875 4.47949219,6.62501894 4.47949219,6.28523438 C4.47949219,5.94544981 4.754942,5.67 5.09472656,5.67 Z M11.5205078,5.79304688 L11.5205078,6.77742188 L6.69433594,6.77742188 L6.69433594,5.79304688 L11.5205078,5.79304688 Z M8.625,1.5 C9.10824916,1.5 9.5,1.89175084 9.5,2.375 C9.5,2.85824916 9.10824916,3.25 8.625,3.25 L7.375,3.25 C6.89175084,3.25 6.5,2.85824916 6.5,2.375 C6.5,1.89175084 6.89175084,1.5 7.375,1.5 L8.625,1.5 Z" id="形状结合" fill="#262626" fill-rule="nonzero"></path>
            </g>
        </g>
    </g>
</svg>