<?xml version="1.0" encoding="UTF-8"?>
<svg width="16px" height="16px" viewBox="0 0 16 16" version="1.1" xmlns="http://www.w3.org/2000/svg" xmlns:xlink="http://www.w3.org/1999/xlink">
    <title>thread-pool-info-third-menu</title>
    <g id="thread-pool-info-third-menu" stroke="none" stroke-width="1" fill="none" fill-rule="evenodd">
        <rect id="矩形" fill-opacity="0" fill="#F0F0F0" x="0" y="0" width="16" height="16"></rect>
        <g id="编组" transform="translate(1.000000, 0.460000)">
            <rect id="矩形" fill-opacity="0" fill="#F0F0F0" x="0" y="0.54" width="14" height="14"></rect>
            <g id="图形" transform="translate(0.460000, 0.000000)" fill="#262626">
                <path d="M8.8525879,0.000103995457 L9.00517908,0.151703102 C9.00959536,0.155972102 9.01393901,0.160315756 9.01820801,0.164732031 L12.9945894,4.15289563 C12.999005,4.1571654 13.0033479,4.16150981 13.0076161,4.16592683 L13.158472,4.31785891 L13.1590983,4.52804162 C13.1592025,4.53242213 13.1592545,4.53681554 13.1592537,4.54122126 L13.158,4.553 L13.159,9.999 L14.08,10 L14.08,13.82 C14.08,14.5158788 13.5158788,15.08 12.82,15.08 L1.26,15.08 C0.564121215,15.08 0,14.5158788 0,13.82 L0,10 L0.812,9.999 L0.8125,1.33279382 C0.8125,0.597150536 1.40885671,0.000793825193 2.14444446,0.000793828048 L8.8525879,0.000103995457 Z M4,11.08 L1.08,11.08 L1.08,13.82 C1.08,13.899529 1.1315768,13.9670116 1.20310608,13.9908235 L1.26,14 L12.82,14 C12.9194113,14 13,13.9194113 13,13.82 L13,11.08 L11.08,11.08 L11.08,12.08 L4,12.08 L4,11.08 Z M8.089,1.079 L2.1445,1.08079383 C2.02520649,1.08079383 1.92527328,1.1636851 1.8991555,1.27501253 L1.8925,1.33279382 L1.892,9.999 L5.08,10 L5.08,10.999 L10,10.999 L10,10 L12.079,9.999 L12.078,5.081 L9.44705397,5.08057355 C8.69752576,5.08057355 8.08991111,4.47296441 8.08991111,3.72343811 L8.089,1.079 Z M9.169,1.847 L9.16991111,3.72343811 C9.16991111,3.87649469 9.2939911,4.00057355 9.44714819,4.00057356 L11.316,4.001 L9.169,1.847 Z" id="形状结合" fill-rule="nonzero"></path>
                <path d="M10.54,5.54 L3.54,5.54 L3.54,5.04 L3.54,4.54 L10.54,4.54 L10.54,5.04 L10.54,5.54 Z M7.54,8.34 L3.54,8.34 L3.54,7.84 L3.54,7.34 L7.54,7.34 L7.54,7.84 L7.54,8.34 Z" id="形状结合"></path>
            </g>
        </g>
    </g>
</svg>