<?xml version="1.0" encoding="UTF-8"?>
<svg width="16px" height="16px" viewBox="0 0 16 16" version="1.1" xmlns="http://www.w3.org/2000/svg" xmlns:xlink="http://www.w3.org/1999/xlink">
    <title>tidb-third-menu</title>
    <g id="tidb-third-menu" stroke="none" stroke-width="1" fill="none" fill-rule="evenodd">
        <rect id="矩形" fill-opacity="0" fill="#F0F0F0" x="0" y="0" width="16" height="16"></rect>
        <g id="TIDB" transform="translate(1.000000, 1.000000)">
            <rect id="矩形" fill-opacity="0" fill="#D8D8D8" x="0" y="0" width="14" height="14"></rect>
            <path d="M7.5,0.288675135 L12.5621778,3.21132487 C12.8715789,3.38995766 13.0621778,3.72008468 13.0621778,4.07735027 L13.0621778,9.92264973 C13.0621778,10.2799153 12.8715789,10.6100423 12.5621778,10.7886751 L7.5,13.7113249 C7.19059892,13.8899577 6.80940108,13.8899577 6.5,13.7113249 L1.43782217,10.7886751 C1.1284211,10.6100423 0.937822174,10.2799153 0.937822174,9.92264973 L0.937822174,4.07735027 C0.937822174,3.72008468 1.1284211,3.38995766 1.43782217,3.21132487 L6.5,0.288675135 C6.80940108,0.11004234 7.19059892,0.11004234 7.5,0.288675135 Z M7,1.385 L2.137,4.192 L2.137,9.807 L7,12.614 L11.862,9.807 L11.862,4.192 L7,1.385 Z M7.58821604,2.47058824 L9.17789216,3.40261754 L7.26715647,4.51447246 L7.23656387,11.5294118 L5.70807296,10.6462992 L5.81514706,5.25031255 L3.7975,6.50943993 L3.7975,4.71066167 L7.58821604,2.47058824 Z M9.17789216,4.11764706 L9.17789216,10.7599163 L7.64063725,11.5294118 L7.64063725,4.98126075 L9.17789216,4.11764706 Z" id="形状结合" fill="#262626" fill-rule="nonzero"></path>
        </g>
    </g>
</svg>