<?xml version="1.0" encoding="UTF-8"?>
<svg width="16px" height="16px" viewBox="0 0 16 16" version="1.1" xmlns="http://www.w3.org/2000/svg" xmlns:xlink="http://www.w3.org/1999/xlink">
    <title>tidb-third-menu</title>
    <g id="tidb-third-menu" stroke="none" stroke-width="1" fill="none" fill-rule="evenodd">
        <rect id="矩形" fill-opacity="0" fill="#F0F0F0" x="0" y="0" width="16" height="16"></rect>
        <g id="TIDB" transform="translate(0.937822, 0.154701)">
            <rect id="矩形" fill-opacity="0" fill="#D8D8D8" x="0.0621778265" y="0.845299462" width="14" height="14"></rect>
            <path d="M7.66911994,0.156574124 L13.5852121,3.57223154 C13.9468046,3.78099704 14.1695547,4.16681159 14.1695547,4.58434259 L14.1695547,11.4156574 C14.1695547,11.8331884 13.9468046,12.219003 13.5852121,12.4277685 L7.66911994,15.8434259 C7.30752749,16.0521914 6.86202722,16.0521914 6.50043477,15.8434259 L0.584342588,12.4277685 C0.222750136,12.219003 0,11.8331884 0,11.4156574 L0,4.58434259 C0,4.16681159 0.222750136,3.78099704 0.584342588,3.57223154 L6.50043477,0.156574124 C6.86202722,-0.0521913748 7.30752749,-0.0521913748 7.66911994,0.156574124 Z M7.08477735,1.43783274 L1.40146135,4.71833203 L1.40146135,11.2804993 L7.08477735,14.5609986 L12.7669247,11.2804993 L12.7669247,4.71833203 L7.08477735,1.43783274 Z M7.77221673,2.70654362 L9.63004763,3.79579245 L7.39699916,5.09520081 L7.36124604,13.2934564 L5.57492137,12.2613758 L5.70005729,5.95516622 L3.34206308,7.42668972 L3.34206308,5.32448423 L7.77221673,2.70654362 Z M9.63004763,4.63143685 L9.63004763,12.3941584 L7.83348062,13.2934564 L7.83348062,5.64072936 L9.63004763,4.63143685 Z" id="形状结合" fill="#262626" fill-rule="nonzero"></path>
        </g>
    </g>
</svg>