<?xml version="1.0" encoding="UTF-8"?>
<svg width="16px" height="16px" viewBox="0 0 16 16" version="1.1" xmlns="http://www.w3.org/2000/svg" xmlns:xlink="http://www.w3.org/1999/xlink">
    <title>timed task</title>
    <g id="timed-task" stroke="none" stroke-width="1" fill="none" fill-rule="evenodd">
        <rect id="矩形" fill="#000000" opacity="0" x="0" y="0" width="16" height="16"></rect>
        <path d="M10.5,1.4 C10.8313708,1.4 11.1,1.66862915 11.1,2 C11.1,2.33137085 10.8313708,2.6 10.5,2.6 L9.1,2.6 L9.1,3.5 C9.99842455,3.68686472 10.8197687,4.08099678 11.5076027,4.63434572 L12.5774955,3.57398367 C12.8127778,3.34064085 13.1926735,3.34221314 13.4260163,3.57749546 C13.6593591,3.81277779 13.6577869,4.19267352 13.4225045,4.42601633 L12.3574596,5.48223518 C13.1345913,6.44366428 13.6,7.66748113 13.6,9 C13.6,12.0927946 11.0927946,14.6 8,14.6 C6.47321531,14.6 5.04263181,13.9852602 3.99618998,12.915294 C3.76449418,12.6783896 3.76871659,12.2985141 4.00562099,12.0668183 C4.24252539,11.8351225 4.62240091,11.8393449 4.85409672,12.0762493 C5.67703257,12.917685 6.79944542,13.4 8,13.4 C10.4300529,13.4 12.4,11.4300529 12.4,9 C12.4,6.5699471 10.4300529,4.6 8,4.6 C5.5699471,4.6 3.6,6.5699471 3.6,9 C3.6,9.33137085 3.33137085,9.6 3,9.6 C2.66862915,9.6 2.4,9.33137085 2.4,9 C2.4,5.9406772 4.85323055,3.4543371 7.89979279,3.40087855 L7.9,2.6 L6,2.6 C5.66862915,2.6 5.4,2.33137085 5.4,2 C5.4,1.66862915 5.66862915,1.4 6,1.4 L10.5,1.4 Z M8.4,7.6 L8.4,9.309 L9.33767724,10.7855843 L9.55209291,11.1232616 L8.87673842,11.5520929 L8.66232276,11.2144157 L7.66232276,9.63954362 L7.6,9.42512795 L7.6,7.6 L8.4,7.6 Z" id="形状结合" fill="#262626" fill-rule="nonzero"></path>
    </g>
</svg>