<?xml version="1.0" encoding="UTF-8"?>
<svg width="16px" height="16px" viewBox="0 0 16 16" version="1.1" xmlns="http://www.w3.org/2000/svg" xmlns:xlink="http://www.w3.org/1999/xlink">
    <title>timed-task-third-menu</title>
    <g id="timed-task-third-menu" stroke="none" stroke-width="1" fill="none" fill-rule="evenodd">
        <rect id="矩形" fill="#000000" opacity="0" x="0" y="0" width="16" height="16"></rect>
        <path d="M10.1,1.5 C10.4313708,1.5 10.7,1.76862915 10.7,2.1 C10.7,2.43137085 10.4313708,2.7 10.1,2.7 L8.7,2.7 L8.7,3.6 C9.59842455,3.78686472 10.4197687,4.18099678 11.1076027,4.73434572 L12.1774955,3.67398367 C12.4127778,3.44064085 12.7926735,3.44221314 13.0260163,3.67749546 C13.2593591,3.91277779 13.2577869,4.29267352 13.0225045,4.52601633 L11.9574596,5.58223518 C12.7345913,6.54366428 13.2,7.76748113 13.2,9.1 C13.2,12.1927946 10.6927946,14.7 7.6,14.7 C6.07321531,14.7 4.64263181,14.0852602 3.59618998,13.015294 C3.36449418,12.7783896 3.36871659,12.3985141 3.60562099,12.1668183 C3.84252539,11.9351225 4.22240091,11.9393449 4.45409672,12.1762493 C5.27703257,13.017685 6.39944542,13.5 7.6,13.5 C10.0300529,13.5 12,11.5300529 12,9.1 C12,6.6699471 10.0300529,4.7 7.6,4.7 C5.1699471,4.7 3.2,6.6699471 3.2,9.1 C3.2,9.43137085 2.93137085,9.7 2.6,9.7 C2.26862915,9.7 2,9.43137085 2,9.1 C2,6.0406772 4.45323055,3.5543371 7.49979279,3.50087855 L7.5,2.7 L5.6,2.7 C5.26862915,2.7 5,2.43137085 5,2.1 C5,1.76862915 5.26862915,1.5 5.6,1.5 L10.1,1.5 Z M8,7.7 L8,9.409 L8.93767724,10.8855843 L9.15209291,11.2232616 L8.47673842,11.6520929 L8.26232276,11.3144157 L7.26232276,9.73954362 L7.2,9.52512795 L7.2,7.7 L8,7.7 Z" id="形状结合" fill="#262626" fill-rule="nonzero"></path>
    </g>
</svg>