<?xml version="1.0" encoding="UTF-8"?>
<svg width="16px" height="16px" viewBox="0 0 16 16" version="1.1" xmlns="http://www.w3.org/2000/svg" xmlns:xlink="http://www.w3.org/1999/xlink">
    <title>tomcat-third-menu</title>
    <g id="tomcat-third-menu" stroke="none" stroke-width="1" fill="none" fill-rule="evenodd">
        <g id="Mysql">
            <rect id="矩形" x="0" y="0" width="16" height="16"></rect>
            <g id="MysQL">
                <rect id="矩形备份" x="0" y="0" width="16" height="16"></rect>
            </g>
        </g>
        <g id="编组" transform="translate(1.000000, 1.000000)">
            <rect id="矩形备份-7" opacity="0.446149554" x="0" y="0" width="14" height="14"></rect>
            <g id="编组-2" transform="translate(0.000000, 2.000000)" fill="#262626" fill-rule="nonzero">
                <path d="M7.02766798,1.82608696 C7.05533597,2.35177866 7.11067194,2.84980237 7.24901186,3.34782609 C7.24901186,3.34782609 8.35573123,5.97628458 10.458498,6.66798419 C11.0948617,6.22529644 11.6205534,5.67193676 12.0079051,5.00790514 L12.1185771,4.84189723 C12.173913,4.75889328 12.201581,4.67588933 12.256917,4.59288538 L12.3399209,4.42687747 C12.7272727,3.56916996 12.9209486,2.65612648 12.8932806,1.743083 L12.8932806,1.743083 C12.8932806,1.46640316 12.8102767,0.304347826 12.6442688,0 C12.229249,0.166007905 11.4545455,0.691699605 11.2885375,1.2173913 C10.43083,1.10671937 9.54545455,1.10671937 8.68774704,1.24505929 C8.54940711,0.664031621 7.85770751,0.221343874 7.33201581,0 C7.11067194,0.359683794 7,1.2173913 7.02766798,1.82608696 L7.02766798,1.82608696 Z" id="路径"></path>
                <path d="M13.7233202,9.29644269 C13.3913043,8.99209486 12.9486166,8.85375494 12.5059289,8.88142292 C12.312253,8.63241107 11.3992095,7.66403162 10.8458498,7.08300395 L10.56917,7.27667984 L10.3201581,7.19367589 C7.99604743,6.44664032 6.83399209,3.6798419 6.77865613,3.56916996 L6.77865613,3.54150198 L6.77865613,3.51383399 C5.14624506,4.03952569 3.65217391,4.95256917 2.43478261,6.14229249 L2.2687747,6.3083004 C2.18577075,6.39130435 2.1027668,6.4743083 2.04743083,6.55731225 C0.85770751,7.85770751 0,9.2687747 0,9.51778656 L0,9.6284585 L1.54940711,9.6284585 L1.52173913,9.49011858 C1.46640316,8.96442688 1.60474308,8.43873518 1.96442688,8.02371542 C2.2687747,7.66403162 2.68379447,7.41501976 3.1541502,7.30434783 C3.62450593,7.13833992 4.8972332,7.27667984 4.8972332,7.27667984 C7.38735178,7.49802372 9.7944664,8.49407115 12.4782609,9.90513834 L13.972332,9.90513834 L14,9.7944664 C13.944664,9.60079051 13.8616601,9.43478261 13.7233202,9.29644269 Z" id="路径"></path>
                <path d="M1.93675889,5.89328063 L2.04743083,5.7826087 C2.07509881,5.75494071 2.07509881,5.72727273 2.1027668,5.72727273 C1.85375494,5.33992095 1.68774704,4.8972332 1.60474308,4.45454545 C1.52173913,3.92885375 1.66007905,3.43083004 1.99209486,3.01581028 C2.49011858,2.37944664 3.20948617,2.35177866 3.95652174,2.46245059 C3.92885375,2.57312253 3.95652174,2.65612648 4.01185771,2.76679842 C4.2055336,3.04347826 5.256917,3.1541502 5.89328063,2.87747036 C5.4229249,2.24110672 4.50988142,1.90909091 4.23320158,2.04743083 C4.15019763,2.1027668 4.06719368,2.15810277 4.03952569,2.24110672 C3.81818182,2.18577075 3.56916996,2.15810277 3.34782609,2.15810277 C2.76679842,2.13043478 2.18577075,2.40711462 1.82608696,2.84980237 C1.46640316,3.3201581 1.30039526,3.90118577 1.41106719,4.48221344 C1.43873518,4.98023715 1.63241107,5.45059289 1.93675889,5.89328063 Z" id="路径"></path>
            </g>
            <path d="M5.99038462,10.4802564 C5.77739316,10.3737607 5.51115385,10.3471368 5.29816239,10.4270085 C5.1384188,10.240641 5.03192308,10.0276496 4.97867521,9.81465812 L4.89880342,9.81465812 C4.47282051,9.76141026 4.04683761,9.76141026 3.59423077,9.78803419 C4.04683761,10.1873932 4.55269231,10.5867521 5.05854701,10.9328632 L6.17675214,10.9328632 L6.17675214,10.7997436 C6.17675214,10.6666239 6.09688034,10.5601282 5.99038462,10.4802564 Z" id="路径" fill="#262626" fill-rule="nonzero"></path>
        </g>
    </g>
</svg>