<?xml version="1.0" encoding="UTF-8"?>
<svg width="16px" height="16px" viewBox="0 0 16 16" version="1.1" xmlns="http://www.w3.org/2000/svg" xmlns:xlink="http://www.w3.org/1999/xlink">
    <title>tongweb-third-menu</title>
    <g id="tongweb-third-menu" stroke="none" stroke-width="1" fill="none" fill-rule="evenodd">
        <rect id="矩形" fill-opacity="0" fill="#F0F0F0" x="0" y="0" width="16" height="16"></rect>
        <g id="Weblogic" transform="translate(0.500000, 0.500000)">
            <rect id="矩形" fill-opacity="0" fill="#FFFFFF" x="0" y="0" width="15" height="14.9856014"></rect>
            <g fill="#262626" fill-rule="nonzero" id="形状结合">
                <path d="M7.50008283,0 C11.642241,0 15,3.35784584 15,7.5 C15,11.6421542 11.642241,15 7.50008283,15 C3.35792461,15 0,11.6421542 0,7.5 C0,3.35784584 3.35792461,0 7.50008283,0 Z M6.17712348,1.33708101 C2.77364242,1.33708101 0.0144124046,4.09631044 0.0144124046,7.4998345 C0.0144124046,10.9033586 2.77364242,13.662588 6.17712348,13.662588 C8.56742907,13.662588 10.6381769,12.3008474 11.660298,10.3116932 L10.1241344,10.3116932 L10.1247971,9.95156343 C10.1247971,9.95156343 10.1426883,9.75776199 10.3280617,9.75776199 C10.4017803,9.74452192 10.4776525,9.72631683 10.5220493,9.70231922 C10.6293969,9.64472494 10.7090793,9.57041508 10.7612621,9.47988614 C10.7998608,9.40838979 10.8243785,9.33937595 10.835312,9.27185162 C10.8462456,9.2044928 10.851878,9.07474016 10.851878,8.88242823 L10.851878,6.10052519 L10.8545286,4.73084052 L10.8498901,4.68797581 L11.660298,4.68797581 C10.6381769,2.69882163 8.88880913,1.33708101 6.17712348,1.33708101 Z M7.27942395,4.73084052 L7.30327896,4.77701525 L6.25842341,4.77701525 L6.25842341,4.93341351 L7.38378963,4.93341351 L7.47738743,5.11463689 L6.25842341,5.11463689 L6.25842341,5.32316791 L7.584735,5.32316791 L7.6783328,5.50472229 L6.1572443,5.50488779 L6.1572443,5.7130878 L7.78584602,5.7132533 L7.87811855,5.89215968 L6.1572443,5.89249068 L6.1572443,6.10069069 L7.98546611,6.10052519 L8.07939523,6.28257608 L6.23742366,6.28257608 L6.15707864,6.12584681 L6.15707864,8.88193173 C6.15707864,9.09013174 6.17049709,9.24040647 6.19783096,9.33209392 C6.22483351,9.42427786 6.27900427,9.50669727 6.36017759,9.57984862 C6.47133533,9.67914911 6.61711597,9.71754529 6.79056181,9.74750094 C6.85831668,9.7592515 6.89973163,9.78225611 6.89973163,9.9040647 L6.89973163,10.2691595 L4.39031663,10.2691595 L4.39097927,9.91449125 C4.39097927,9.91449125 4.40870487,9.72350332 4.591262,9.72350332 C4.663821,9.71042876 4.73869924,9.69255467 4.78243343,9.66888806 C4.88795874,9.61212128 4.9664815,9.53880442 5.01783604,9.44976499 C5.0559378,9.37942715 5.08012413,9.31140632 5.09089202,9.24487499 C5.09950633,9.19191473 5.10483395,9.09944612 5.10662043,8.96763863 L5.10729235,5.82248384 C5.10729235,5.28361321 4.62621622,5.25001655 4.62621622,5.25001655 L4.62621622,4.93738553 C4.62621622,4.93738553 4.6225717,4.73084052 4.89094062,4.73084052 L7.27942395,4.73084052 Z M8.79338907,9.99509014 L8.65108728,10.2691595 L8.27338288,10.2691595 L8.13340033,9.99509014 L8.79338907,9.99509014 Z M8.99499707,9.60665975 L8.90139927,9.78672463 L8.02704673,9.78672463 L7.93510553,9.60665975 L8.99499707,9.60665975 Z M9.19793036,9.21574685 L9.10300728,9.39845974 L7.82875192,9.39845974 L7.73531978,9.21574685 L9.19793036,9.21574685 Z M9.39970402,8.82731646 L9.30594056,9.00771234 L7.62913183,9.00771234 L7.53702497,8.82731646 L9.39970402,8.82731646 Z M9.60164335,8.43789306 L9.50787989,8.61895095 L7.4305057,8.61895095 L7.33823318,8.43789306 L9.60164335,8.43789306 Z M8.98986162,8.04863517 L9.03227053,8.13105457 L9.07600473,8.04863517 L9.80391399,8.04863517 L9.70981921,8.22985855 L7.23187958,8.22985855 L7.13927574,8.04863517 L8.98986162,8.04863517 Z M8.78875059,7.65888077 L8.88234839,7.84026966 L7.03292213,7.84026966 L6.94031829,7.65888077 L8.78875059,7.65888077 Z M10.0061846,7.65888077 L9.91192419,7.84026966 L9.18683115,7.84026966 L9.28341083,7.65888077 L10.0061846,7.65888077 Z M8.58846787,7.27028488 L8.68140303,7.45068076 L6.83396468,7.45068076 L6.74185782,7.27028488 L8.58846787,7.27028488 Z M10.2079583,7.27028488 L10.1143605,7.45068076 L9.39423725,7.45068076 L9.49031994,7.27028488 L10.2079583,7.27028488 Z M8.38768816,6.88069599 L8.4811203,7.06191937 L6.63533855,7.06191937 L6.54290037,6.88069599 L8.38768816,6.88069599 Z M9.69756038,6.88086149 L10.4100633,6.88102699 L10.3161342,7.06191937 L9.60114637,7.06191937 L9.69756038,6.88086149 Z M8.18657714,6.49061059 L8.2803406,6.67249597 L6.43654677,6.67249597 L6.34361161,6.49061059 L8.18657714,6.49061059 Z M10.6126652,6.49061059 L10.5182391,6.67249597 L9.8083868,6.67249597 L9.9052978,6.49061059 L10.6126652,6.49061059 Z M10.8152672,6.10052519 L10.7208411,6.28257608 L10.0159586,6.28257608 L10.1128696,6.10052519 L10.8152672,6.10052519 Z M10.8515467,5.7132533 L10.8517124,5.89249068 L10.223696,5.89232518 L10.3189504,5.7132533 L10.8515467,5.7132533 Z"></path>
            </g>
        </g>
    </g>
</svg>