<?xml version="1.0" encoding="UTF-8"?>
<svg width="16px" height="16px" viewBox="0 0 16 16" version="1.1" xmlns="http://www.w3.org/2000/svg" xmlns:xlink="http://www.w3.org/1999/xlink">
    <title>tongweb-third-menu</title>
    <g id="tongweb-third-menu" stroke="none" stroke-width="1" fill="none" fill-rule="evenodd">
        <rect id="矩形" fill-opacity="0" fill="#F0F0F0" x="0" y="0" width="16" height="16"></rect>
        <g id="Weblogic" transform="translate(1.000000, 1.000000)">
            <rect id="矩形" fill-opacity="0" fill="#FFFFFF" x="0" y="0" width="14" height="13.9865613"></rect>
            <g fill="#262626" fill-rule="nonzero" id="形状结合">
                <path d="M7.00007731,0 C10.8660916,0 14,3.13398945 14,7 C14,10.8660105 10.8660916,14 7.00007731,14 C3.13406297,14 0,10.8660105 0,7 C0,3.13398945 3.13406297,0 7.00007731,0 Z M6.79412902,4.41545116 L6.8163937,4.45854756 L5.84119518,4.45854756 L5.84119518,4.60451928 L6.89153699,4.60451928 L6.97889494,4.7736611 L5.84119518,4.7736611 L5.84119518,4.96829005 L7.079086,4.96829005 L7.16644395,5.1377408 L5.74676135,5.13789527 L5.74676135,5.33221528 L7.26678962,5.33236975 L7.35291064,5.49934903 L5.74676135,5.49965797 L5.74676135,5.69397798 L7.4531017,5.69382351 L7.54076888,5.86373767 L5.82159541,5.86373767 L5.74660673,5.71745702 L5.74660673,8.28980294 C5.74660673,8.48412296 5.75913062,8.62437937 5.78464223,8.70995432 C5.80984461,8.79599267 5.86040399,8.87291745 5.93616575,8.94119205 C6.03991297,9.0338725 6.17597491,9.06970894 6.33785769,9.09766754 C6.40109556,9.10863473 6.43974952,9.1301057 6.43974952,9.24379372 L6.43974952,9.58454884 L4.09762886,9.58454884 L4.09824732,9.25352517 C4.09824732,9.25352517 4.11479121,9.07526977 4.28517786,9.07526977 C4.3528996,9.06306684 4.42278596,9.04638436 4.46360454,9.02429552 C4.56209482,8.97131319 4.63538273,8.90288413 4.68331364,8.81978066 C4.71887528,8.754132 4.74144919,8.69064589 4.75149922,8.62854999 C4.75953924,8.57912042 4.76451169,8.49281638 4.76617907,8.36979606 L4.76680619,5.43431825 C4.76680619,4.93137233 4.3178018,4.90001545 4.3178018,4.90001545 L4.31814486,4.59994318 C4.32091828,4.56304477 4.34570996,4.41545116 4.56487791,4.41545116 L6.79412902,4.41545116 Z M8.20716313,9.3287508 L8.07434813,9.58454884 L7.72182403,9.58454884 L7.59117364,9.3287508 L8.20716313,9.3287508 Z M8.3953306,8.96621577 L8.30797266,9.13427632 L7.49191028,9.13427632 L7.40609849,8.96621577 L8.3953306,8.96621577 Z M8.584735,8.60136373 L8.49614013,8.77189576 L7.30683512,8.77189576 L7.21963179,8.60136373 L8.584735,8.60136373 Z M8.77305709,8.2388287 L8.68554452,8.40719818 L7.12052304,8.40719818 L7.03455664,8.2388287 L8.77305709,8.2388287 Z M8.96153379,7.87536686 L8.87402123,8.04435422 L6.93513866,8.04435422 L6.84901764,7.87536686 L8.96153379,7.87536686 Z M8.39053751,7.51205949 L8.43011916,7.58898427 L8.47093775,7.51205949 L9.15031972,7.51205949 L9.06249793,7.68120132 L6.74975427,7.68120132 L6.66332402,7.51205949 L8.39053751,7.51205949 Z M8.20283389,7.14828872 L8.29019183,7.31758501 L6.56406065,7.31758501 L6.4776304,7.14828872 L8.20283389,7.14828872 Z M9.33910566,7.14828872 L9.25112925,7.31758501 L8.57437574,7.31758501 L8.66451677,7.14828872 L9.33910566,7.14828872 Z M8.01590334,6.78559922 L8.10264283,6.95396871 L6.37836704,6.95396871 L6.29240063,6.78559922 L8.01590334,6.78559922 Z M9.52742774,6.78559922 L9.4400698,6.95396871 L8.76795476,6.95396871 L8.85763195,6.78559922 L9.52742774,6.78559922 Z M7.82850895,6.42198292 L7.91571228,6.59112474 L6.19298265,6.59112474 L6.10670701,6.42198292 L7.82850895,6.42198292 Z M9.71605906,6.42229186 L9.62839188,6.59112474 L8.96106994,6.59112474 L9.05105636,6.42213739 L9.71605906,6.42229186 Z M7.64080533,6.05790322 L7.72831789,6.22766291 L6.00744365,6.22766291 L5.92070416,6.05790322 L7.64080533,6.05790322 Z M9.90515423,6.05790322 L9.8170232,6.22766291 L9.15449435,6.22766291 L9.24494461,6.05790322 L9.90515423,6.05790322 Z M10.0942494,5.69382351 L10.0061184,5.86373767 L9.34822799,5.86373767 L9.43867826,5.69382351 L10.0942494,5.69382351 Z M10.13,4.968 L10.1273372,4.7736611 L10.13,4.773 L10.1308933,4.41545116 L10.1264095,4.44866165 L10.1015163,4.44866165 L10.1191425,4.41545116 L10.1265641,4.37544409 L10.8829448,4.37544409 C9.92896507,2.51890019 8.29622185,1.24794227 5.76531525,1.24794227 C2.58873292,1.24794227 0.0134515776,3.82322307 0.0134515776,6.99984553 C0.0134515776,10.176468 2.58873292,12.7517488 5.76531525,12.7517488 C7.99626713,12.7517488 9.92896507,11.4807909 10.8829448,9.62424697 L9.44919213,9.62424697 L9.4498106,9.28812587 C9.4498106,9.28812587 9.46650911,9.10724452 9.63952422,9.10724452 C9.70832827,9.09488713 9.77914232,9.07789571 9.82057937,9.05549794 C9.92077043,9.00174328 9.99514065,8.9323874 10.0438446,8.84789373 C10.0798701,8.7811638 10.1027533,8.71675089 10.1129579,8.65372818 C10.1231626,8.59085994 10.1284195,8.46975749 10.1284195,8.29026635 L10.1284195,5.69382351 L10.1305841,5.61844341 L10.1282649,5.49965797 L10.13,4.968 Z"></path>
            </g>
        </g>
    </g>
</svg>