<?xml version="1.0" encoding="UTF-8"?>
<svg width="16px" height="16px" viewBox="0 0 16 16" version="1.1" xmlns="http://www.w3.org/2000/svg" xmlns:xlink="http://www.w3.org/1999/xlink">
    <title>tool management</title>
    <g id="tool-management" stroke="none" stroke-width="1" fill="none" fill-rule="evenodd">
        <rect id="矩形" fill="#000000" opacity="0" x="0" y="0" width="16" height="16"></rect>
        <path d="M9.31249649,0.460099803 L9.46531931,0.611711108 C9.46973546,0.615980292 9.47407898,0.62032413 9.47834784,0.624740589 L14.4545663,5.61300341 C14.4589816,5.61727312 14.4633243,5.62161746 14.4675923,5.62603442 L14.6184663,5.77776616 L14.6190961,5.98814699 C14.619201,5.99252749 14.6192537,5.9969209 14.6192537,6.00132663 L14.618,6.013 L14.619,10.459 L15.54,10.46 L15.54,14.28 C15.54,14.9758788 14.9758788,15.54 14.28,15.54 L2.72,15.54 C2.02412122,15.54 1.46,14.9758788 1.46,14.28 L1.46,10.46 L2.272,10.459 L2.2725,1.79279382 C2.2725,1.05715054 2.86885671,0.460793825 3.60443434,0.460793829 L9.31249649,0.460099803 Z M5.46,11.54 L2.54,11.54 L2.54,14.28 C2.54,14.359529 2.5915768,14.4270116 2.66310608,14.4508235 L2.72,14.46 L14.28,14.46 C14.3794113,14.46 14.46,14.3794113 14.46,14.28 L14.46,11.54 L12.54,11.54 L12.54,12.54 L5.46,12.54 L5.46,11.54 Z M8.55,1.539 L3.6045,1.54079383 C3.48520649,1.54079383 3.38527328,1.6236851 3.3591555,1.73501253 L3.3525,1.79279382 L3.352,10.459 L6.54,10.46 L6.54,11.459 L11.46,11.459 L11.46,10.46 L13.539,10.459 L13.538,6.541 L9.90705397,6.54057355 C9.15752576,6.54057355 8.54991111,5.93296441 8.54991111,5.18342154 L8.55,1.539 Z M9.63,2.307 L9.62991111,5.18343811 C9.62991111,5.33649469 9.7539911,5.46057355 9.90714027,5.46057355 L12.775,5.461 L9.63,2.307 Z" id="形状结合" fill="#262626" fill-rule="nonzero"></path>
        <g id="编组-2备份-2" transform="translate(5.250000, 6.764781)" stroke="#262626" stroke-linecap="square" stroke-linejoin="round" stroke-width="0.9">
            <polyline id="路径-2" points="1.47024408 0 -3.53492488e-17 1.45837959 1.47024408 2.88232679"></polyline>
            <polyline id="路径-2" transform="translate(5.358628, 1.441163) scale(-1, 1) translate(-5.358628, -1.441163) " points="6.09375 0 4.62350592 1.45837959 6.09375 2.88232679"></polyline>
        </g>
    </g>
</svg>