<?xml version="1.0" encoding="UTF-8"?>
<svg width="16px" height="16px" viewBox="0 0 16 16" version="1.1" xmlns="http://www.w3.org/2000/svg" xmlns:xlink="http://www.w3.org/1999/xlink">
    <title>tool task</title>
    <g id="tool-task" stroke="none" stroke-width="1" fill="none" fill-rule="evenodd">
        <rect id="矩形" fill="#000000" opacity="0" x="0" y="0" width="16" height="16"></rect>
        <g id="编组-10" transform="translate(1.000000, 1.000000)">
            <rect id="矩形备份-2" fill="#000000" fill-rule="nonzero" opacity="0" x="0" y="0" width="14" height="14"></rect>
            <path d="M9.07351182,1.41662728 L9.01945718,2.00602305 C8.67643222,2.40275316 8.50465625,2.89814651 8.50465625,3.3936875 C8.50465625,3.93635874 8.71066083,4.47885293 9.12197788,4.89178721 C9.53390888,5.30533786 10.0751229,5.5121875 10.616375,5.5121875 C11.1576271,5.5121875 11.6988411,5.30533786 12.1108084,4.89175079 C12.349153,5.48027265 12.0306435,5.94602115 11.5679659,6.2660705 C10.8915025,6.73400239 10.0368137,6.8743779 9.2404487,6.63972572 L3.82476607,12.0770495 C3.57916835,12.3235461 3.24552636,12.4621023 2.8975625,12.4621023 C2.54959864,12.4621023 2.21595665,12.3235461 1.97093675,12.0776306 C1.7145337,11.8192324 1.58633218,11.4816162 1.58633218,11.144 C1.58633218,10.8063838 1.7145337,10.4687676 1.97042964,10.2108796 L7.38425744,4.77451293 C7.10049717,3.80391076 7.3699899,2.76403986 8.0746234,2.05480986 C8.35814354,1.76971808 8.69969182,1.55261544 9.07351182,1.41662728 Z" id="路径备份" stroke="#262626" stroke-width="0.8"></path>
            <path d="M3.301375,11.54825 C3.07825,11.77225 2.716875,11.77225 2.49375,11.54825 C2.270625,11.32425 2.270625,10.962 2.49375,10.738 C2.71926874,10.5259746 3.072504,10.5317067 3.29102465,10.7509376 C3.50954529,10.9701685 3.51413105,11.3234205 3.301375,11.54825 L3.301375,11.54825 Z" id="路径备份-2" fill="#262626"></path>
            <polygon id="路径备份-3" fill="#262626" points="2.730875 4.085375 4.70925 6.0725 5.516875 5.26225 3.5385 3.275125 3.094875 2.424625 1.682625 1.411375 0.875 2.221625 1.883875 3.64"></polygon>
            <path d="M9.352,8.30025 C9.298621,8.24654887 9.22602993,8.21635266 9.1503125,8.21635266 C9.07459507,8.21635266 9.002004,8.24654887 8.948625,8.30025 L7.737625,9.5165 C7.62652417,9.62869058 7.62652417,9.80943442 7.737625,9.921625 L10.5945,12.789875 C11.04075,13.237 11.764375,13.237 12.20975,12.789875 C12.656,12.34275 12.656,11.6165 12.20975,11.1685 L9.352,8.30025 L9.352,8.30025 Z" id="路径备份-4" fill="#262626"></path>
        </g>
    </g>
</svg>