<?xml version="1.0" encoding="UTF-8"?>
<svg width="16px" height="16px" viewBox="0 0 16 16" version="1.1" xmlns="http://www.w3.org/2000/svg" xmlns:xlink="http://www.w3.org/1999/xlink">
    <title>Topic-third menu</title>
    <g id="Topic-third-menu" stroke="none" stroke-width="1" fill="none" fill-rule="evenodd">
        <g id="Topic">
            <rect id="矩形" fill="#D8D8D8" opacity="0" x="0" y="0" width="16" height="16"></rect>
            <g id="图形" transform="translate(1.000000, 1.000000)" fill="#262626" fill-rule="nonzero">
                <path d="M13,2.45 C13.5522847,2.45 14,2.89771525 14,3.45 L14,11.075 C14,11.6272847 13.5522847,12.075 13,12.075 L7.273,12.075 L4.53318505,13.8655047 C4.47898291,13.9009067 4.41869003,13.9252754 4.35574425,13.9375876 L4.25976562,13.9468858 C3.98362325,13.9468858 3.75976563,13.7230282 3.75976562,13.4468858 L3.759,12.075 L1,12.075 C0.44771525,12.075 0,11.6272847 0,11.075 L0,3.45 C0,2.89771525 0.44771525,2.45 1,2.45 L13,2.45 Z M12.8,3.65 L1.2,3.65 L1.2,10.875 L4.95833049,10.875 L4.958,12.153 L6.6165352,11.0704832 L6.91566194,10.875 L12.8,10.875 L12.8,3.65 Z M8.75,7.87540476 L8.75,8.3125 C8.75,9.27899831 7.96649831,10.0625 7,10.0625 C6.03350169,10.0625 5.25,9.27899831 5.25,8.3125 L5.25,7.87540476 L8.75,7.87540476 Z M5.25,4.8125 C5.73324916,4.8125 6.125,5.20425084 6.125,5.6875 C6.125,6.17074916 5.73324916,6.5625 5.25,6.5625 C4.76675084,6.5625 4.375,6.17074916 4.375,5.6875 C4.375,5.20425084 4.76675084,4.8125 5.25,4.8125 Z M8.75,4.8125 C9.23324916,4.8125 9.625,5.20425084 9.625,5.6875 C9.625,6.17074916 9.23324916,6.5625 8.75,6.5625 C8.26675084,6.5625 7.875,6.17074916 7.875,5.6875 C7.875,5.20425084 8.26675084,4.8125 8.75,4.8125 Z M1.475,0 L12.525,0 C12.8563708,3.83217372e-16 13.125,0.26862915 13.125,0.6 C13.125,0.93137085 12.8563708,1.2 12.525,1.2 L1.475,1.2 C1.14362915,1.2 0.875,0.93137085 0.875,0.6 C0.875,0.26862915 1.14362915,1.7189414e-16 1.475,0 Z" id="形状结合"></path>
            </g>
        </g>
    </g>
</svg>