<?xml version="1.0" encoding="UTF-8"?>
<svg width="16px" height="16px" viewBox="0 0 16 16" version="1.1" xmlns="http://www.w3.org/2000/svg" xmlns:xlink="http://www.w3.org/1999/xlink">
    <title>trace-collection-third-menu</title>
    <g id="trace-collection-third-menu" stroke="none" stroke-width="1" fill="none" fill-rule="evenodd">
        <g id="编组-40" transform="translate(1.500000, 1.500000)">
            <path d="M3.46666667,1.13333333 C2.17800225,1.13333333 1.13333333,2.17800225 1.13333333,3.46666667 C1.13333333,4.75533108 2.17800225,5.8 3.46666667,5.8 C4.75533108,5.8 5.8,4.75533108 5.8,3.46666667 C5.8,2.17800225 4.75533108,1.13333333 3.46666667,1.13333333 Z M3.46666667,2.33333333 C4.09258938,2.33333333 4.6,2.84074395 4.6,3.46666667 C4.6,4.09258938 4.09258938,4.6 3.46666667,4.6 C2.84074395,4.6 2.33333333,4.09258938 2.33333333,3.46666667 C2.33333333,2.84074395 2.84074395,2.33333333 3.46666667,2.33333333 Z" id="椭圆形" fill="#262626" fill-rule="nonzero"></path>
            <path d="M8.66666667,6.33333333 C7.37800225,6.33333333 6.33333333,7.37800225 6.33333333,8.66666667 C6.33333333,9.95533108 7.37800225,11 8.66666667,11 C9.95533108,11 11,9.95533108 11,8.66666667 C11,7.37800225 9.95533108,6.33333333 8.66666667,6.33333333 Z M8.66666667,7.53333333 C9.29258938,7.53333333 9.8,8.04074395 9.8,8.66666667 C9.8,9.29258938 9.29258938,9.8 8.66666667,9.8 C8.04074395,9.8 7.53333333,9.29258938 7.53333333,8.66666667 C7.53333333,8.04074395 8.04074395,7.53333333 8.66666667,7.53333333 Z" id="椭圆形备份-7" fill="#262626" fill-rule="nonzero"></path>
            <circle id="椭圆形备份-8" stroke="#262626" stroke-width="1.2" cx="11.2666667" cy="1.73333333" r="1.73333333"></circle>
            <path d="M1.73333333,8.93333333 C0.444668917,8.93333333 -0.6,9.97800225 -0.6,11.2666667 C-0.6,12.5553311 0.444668917,13.6 1.73333333,13.6 C3.02199775,13.6 4.06666667,12.5553311 4.06666667,11.2666667 C4.06666667,9.97800225 3.02199775,8.93333333 1.73333333,8.93333333 Z M1.73333333,10.1333333 C2.35925605,10.1333333 2.86666667,10.640744 2.86666667,11.2666667 C2.86666667,11.8925894 2.35925605,12.4 1.73333333,12.4 C1.10741062,12.4 0.6,11.8925894 0.6,11.2666667 C0.6,10.640744 1.10741062,10.1333333 1.73333333,10.1333333 Z" id="椭圆形备份-9" fill="#262626" fill-rule="nonzero"></path>
            <polygon id="路径-46" fill="#262626" fill-rule="nonzero" points="2.1883965 5.19361015 3.34591202 5.51008735 2.12662499 9.96963023 0.96910947 9.65315303"></polygon>
            <polygon id="路径-47" fill="#262626" fill-rule="nonzero" points="5.11859839 4.12835994 7.96435271 6.6444635 7.1694935 7.54346229 4.32373917 5.02735873"></polygon>
            <polygon id="路径-48" fill="#262626" fill-rule="nonzero" points="9.75193647 3.48832015 10.866072 3.93408026 9.57691245 7.15621339 8.46277694 6.71045328"></polygon>
        </g>
    </g>
</svg>