<?xml version="1.0" encoding="UTF-8"?>
<svg width="16px" height="16px" viewBox="0 0 16 16" version="1.1" xmlns="http://www.w3.org/2000/svg" xmlns:xlink="http://www.w3.org/1999/xlink">
    <title>trace-query-third-menu</title>
    <g id="trace-query-third-menu" stroke="none" stroke-width="1" fill="none" fill-rule="evenodd">
        <g id="编组-51" transform="translate(2.000000, 1.000000)" fill="#262626" fill-rule="nonzero">
            <path d="M5.596,12.8 L1.4,12.8 C1.29043662,12.797872 1.20212804,12.7095634 1.2,12.6 L1.2,1.4 C1.2,1.3469567 1.22107137,1.29608628 1.25857864,1.258579 C1.29608592,1.22107172 1.3469567,1.2 1.4,1.2 L10.096,1.2 C10.2064569,1.2 10.296,1.28954305 10.296,1.4 L10.296,6.428 C10.296,6.75937085 10.5646292,7.028 10.896,7.028 C11.2273708,7.028 11.496,6.75937085 11.496,6.428 L11.496,1.4 C11.496,0.62680135 10.8691986,0 10.096,0 L1.4,0 C0.627713262,0.00219713064 0.00219713064,0.627713262 0,1.4 L0,12.6 C0.00219713064,13.3722867 0.627713262,13.9978029 1.4,14 L5.596,14 C5.92737085,14 6.196,13.7313708 6.196,13.4 C6.196,13.0686292 5.92737085,12.8 5.596,12.8 Z" id="路径"></path>
            <path d="M6.404,2.576 C6.28458359,2.39670181 6.08342544,2.28898739 5.868,2.28898739 C5.65257456,2.28898739 5.45141641,2.39670181 5.332,2.576 L3.636,5.132 C3.50457478,5.32834395 3.49201589,5.58112542 3.60333209,5.78952944 C3.7146483,5.99793346 3.93172996,6.12805553 4.168,6.128 L5.264,6.128 L5.264,7.876 C5.264,8.20737085 5.53262915,8.476 5.864,8.476 C6.19537085,8.476 6.464,8.20737085 6.464,7.876 L6.464,6.128 L7.56,6.128 C7.79698751,6.12954025 8.01542548,5.99999439 8.12773361,5.79130242 C8.24004174,5.58261046 8.22783209,5.32894099 8.096,5.132 L6.404,2.576 Z" id="路径"></path>
            <path d="M6.132,9.192 L4.604,9.192 C4.27262915,9.192 4.004,9.46062915 4.004,9.792 C4.004,10.1233708 4.27262915,10.392 4.604,10.392 L6.132,10.392 C6.46337085,10.392 6.732,10.1233708 6.732,9.792 C6.732,9.46062915 6.46337085,9.192 6.132,9.192 Z" id="路径"></path>
            <path d="M11.3353846,11.92 C11.5630769,11.5815385 11.6923077,11.1692308 11.6923077,10.7323077 C11.6923077,9.54461538 10.7261538,8.57846155 9.53846155,8.57846155 C8.35076925,8.57846155 7.38461539,9.54461539 7.38461539,10.7323077 C7.38461539,11.92 8.35076923,12.8861538 9.53846155,12.8861538 C9.97538462,12.8861538 10.3876923,12.7569231 10.7261538,12.5292308 L11.3865689,13.1980588 C11.5543585,13.3679858 11.8281318,13.3697185 11.9980588,13.201929 C11.9987079,13.201288 11.999355,13.200645 12,13.2 C12.1699338,13.0300662 12.1699338,12.7545491 12,12.5846154 L11.3353846,11.92 L11.3353846,11.92 Z M8.24615384,10.7384615 C8.24615384,10.0246154 8.82461537,9.44615384 9.53846155,9.44615384 C10.2523077,9.44615384 10.8307692,10.0246154 10.8307692,10.7384615 C10.8307692,11.4523077 10.2523077,12.0307692 9.53846155,12.0307692 C8.82461539,12.0307692 8.24615384,11.4523077 8.24615384,10.7384615 Z" id="形状"></path>
        </g>
    </g>
</svg>