<?xml version="1.0" encoding="UTF-8"?>
<svg width="16px" height="16px" viewBox="0 0 16 16" version="1.1" xmlns="http://www.w3.org/2000/svg" xmlns:xlink="http://www.w3.org/1999/xlink">
    <title>tunnel-info-third-menu</title>
    <g id="tunnel-info-third-menu" stroke="none" stroke-width="1" fill="none" fill-rule="evenodd">
        <rect id="矩形" fill-opacity="0" fill="#F0F0F0" x="0" y="0" width="16" height="16"></rect>
        <g id="tunnel" transform="translate(1.599000, 2.000000)">
            <rect id="矩形" fill="#FFFFFF" opacity="0" x="0.001" y="0" width="12.8" height="12.8"></rect>
            <path d="M9.601,16.8 L9.601,20 L9.59811137,20.1013304 C10.4088341,19.4684471 11.0270603,18.6004296 11.3502637,17.5998042 L12.5994463,17.5997113 C12.111051,19.4976289 10.7739591,21.0548642 9.01684166,21.8427461 C8.43790228,22.6639312 7.48205393,23.2 6.401,23.2 C5.31994607,23.2 4.36409772,22.6639312 3.78477757,21.8431163 C2.02804094,21.0548642 0.690948956,19.4976289 0.202553688,17.5997113 L1.45173625,17.5998042 C1.77480516,18.6000132 2.39265143,19.4677246 3.20287659,20.1005401 L3.201,20 L3.201,16.8 L9.601,16.8 Z M6.401,0 C9.9356224,0 12.801,2.8653776 12.801,6.4 L12.8,12.799 L11.6,12.799 L11.601,6.4 C11.601,3.5281193 9.2728807,1.2 6.401,1.2 C3.5291193,1.2 1.201,3.5281193 1.201,6.4 L1.2,12.799 L0,12.799 L0.001,6.4 C0.001,2.8653776 2.8663776,0 6.401,0 Z M6.401,3.2 C8.1683112,3.2 9.601,4.6326888 9.601,6.4 L9.601,12.8 L8.001,12.8 L8.001,11.2 L4.801,11.2 L4.801,12.8 L3.201,12.8 L3.201,6.4 C3.201,4.6326888 4.6336888,3.2 6.401,3.2 Z M7.601,8.8 L5.201,8.8 L5.201,10.4 L7.601,10.4 L7.601,8.8 Z M7.201,6.4 L5.601,6.4 L5.601,8 L7.201,8 L7.201,6.4 Z" id="形状结合" fill="#262626" fill-rule="nonzero"></path>
        </g>
    </g>
</svg>