<?xml version="1.0" encoding="UTF-8"?>
<svg width="16px" height="16px" viewBox="0 0 16 16" version="1.1" xmlns="http://www.w3.org/2000/svg" xmlns:xlink="http://www.w3.org/1999/xlink">
    <title>unsolved-bug-distribution-third-menu</title>
    <g id="unsolved-bug-distribution-third-menu" stroke="none" stroke-width="1" fill="none" fill-rule="evenodd">
        <g id="bug" transform="translate(1.190000, 1.000000)" fill="#262626" fill-rule="nonzero">
            <path d="M1.328125,3.140625 C1.396875,3.140625 1.453125,3.196875 1.453125,3.265625 C1.453125,3.809375 1.89375,4.25 2.4375,4.25 L11.1875,4.25 C11.73125,4.25 12.171875,3.809375 12.171875,3.265625 C12.171875,3.196875 12.228125,3.140625 12.296875,3.140625 L13.234375,3.140625 C13.303125,3.140625 13.359375,3.196875 13.359375,3.265625 C13.359375,4.465625 12.3875,5.4375 11.1875,5.4375 L11.1875,7 L13.5,7 C13.56875,7 13.625,7.05625 13.625,7.125 L13.625,8 C13.625,8.06875 13.56875,8.125 13.5,8.125 L11.1875,8.125 L11.1875,9.625 C11.1875,9.7265625 11.1828125,9.8265625 11.1765625,9.9265625 C12.2484375,10.384375 13,11.4484375 13,12.6875 C13,12.75625 12.94375,12.8125 12.875,12.8125 L12,12.8125 C11.93125,12.8125 11.875,12.75625 11.875,12.6875 C11.875,11.996875 11.5015625,11.3921875 10.9453125,11.0671875 C10.8515625,11.334375 10.7328125,11.590625 10.590625,11.8328125 C10.2109375,12.48125 9.66875,13.0234375 9.0203125,13.403125 C8.371875,13.7828125 7.6171875,14 6.8125,14 C6.0078125,14 5.2546875,13.7828125 4.60625,13.403125 C3.9578125,13.0234375 3.415625,12.48125 3.0359375,11.8328125 C2.89375,11.5921875 2.775,11.3359375 2.68125,11.0671875 C2.1234375,11.3921875 1.75,11.996875 1.75,12.6875 C1.75,12.75625 1.69375,12.8125 1.625,12.8125 L0.75,12.8125 C0.68125,12.8125 0.625,12.75625 0.625,12.6875 C0.625,11.4484375 1.3765625,10.384375 2.4484375,9.9265625 C2.440625,9.828125 2.4375,9.7265625 2.4375,9.625 L2.4375,8.125 L0.125,8.125 C0.05625,8.125 0,8.06875 0,8 L0,7.125 C0,7.05625 0.05625,7 0.125,7 L2.4375,7 L2.4375,5.4375 C1.2375,5.4375 0.265625,4.465625 0.265625,3.265625 C0.265625,3.196875 0.321875,3.140625 0.390625,3.140625 Z M10,5.4375 L3.625,5.4375 L3.625,9.625 C3.625,10.2 3.7765625,10.75 4.059375,11.2328125 C4.3359375,11.70625 4.73125,12.1015625 5.2046875,12.378125 C5.51875,12.5625 5.8609375,12.690625 6.21875,12.7578125 L6.21875,6.5625 C6.21875,6.49375 6.275,6.4375 6.34375,6.4375 L7.28125,6.4375 C7.35,6.4375 7.40625,6.49375 7.40625,6.5625 L7.40625,12.7578125 C7.7640625,12.690625 8.10625,12.5625 8.4203125,12.378125 C8.89375,12.1015625 9.2890625,11.70625 9.565625,11.2328125 C9.8484375,10.75 10,10.2 10,9.625 L10,5.4375 Z M6.9375,0 C7.5625,0 8.1359375,0.1375 8.6265625,0.4046875 C9.11875,0.6734375 9.5140625,1.06875 9.7828125,1.5609375 C10.05,2.0515625 10.1875,2.625 10.1875,3.25 C10.1875,3.31875 10.13125,3.375 10.0625,3.375 L9.1875,3.375 C9.11875,3.375 9.0625,3.31875 9.0625,3.25 C9.0625,2.8078125 8.96875,2.4203125 8.7953125,2.1015625 C8.6296875,1.7984375 8.3890625,1.5578125 8.0859375,1.3921875 C7.76875,1.2171875 7.3796875,1.125 6.9375,1.125 L6.6875,1.125 C6.2453125,1.125 5.8578125,1.21875 5.5390625,1.3921875 C5.2359375,1.5578125 4.9953125,1.7984375 4.8296875,2.1015625 C4.6546875,2.41875 4.5625,2.8078125 4.5625,3.25 C4.5625,3.31875 4.50625,3.375 4.4375,3.375 L3.5625,3.375 C3.49375,3.375 3.4375,3.31875 3.4375,3.25 C3.4375,2.625 3.575,2.0515625 3.8421875,1.5609375 C4.1109375,1.06875 4.50625,0.6734375 4.9984375,0.4046875 C5.4890625,0.1375 6.0625,0 6.6875,0 Z" id="形状结合"></path>
        </g>
    </g>
</svg>