<?xml version="1.0" encoding="UTF-8"?>
<svg width="16px" height="16px" viewBox="0 0 16 16" version="1.1" xmlns="http://www.w3.org/2000/svg" xmlns:xlink="http://www.w3.org/1999/xlink">
    <title>user-info-third-menu</title>
    <g id="user-info-third-menu" stroke="none" stroke-width="1" fill="none" fill-rule="evenodd">
        <rect id="矩形" fill-opacity="0" fill="#D8D8D8" x="0" y="0" width="16" height="16"></rect>
        <g id="图形" transform="translate(1.000000, 1.000000)" fill="#262626" fill-rule="nonzero">
            <path d="M5.68493651,7.41097301 C5.78442286,7.41097301 5.8800808,7.41278505 5.97482183,7.41637092 L6.07222457,7.42065129 C6.13431974,7.4238658 6.19597668,7.42779801 6.25722288,7.43248496 C6.29043534,7.43490718 6.32379628,7.43768884 6.35699674,7.44069496 C6.42750211,7.44720751 6.49720139,7.45457286 6.56633424,7.46292118 C6.58358059,7.46496167 6.60118542,7.46717096 6.61874296,7.46944511 C6.68913941,7.47850171 6.75842506,7.48849229 6.82711128,7.49947334 L6.921,7.51597301 L7.145,7.55997301 L7.038,7.53797301 L7.1579715,7.56095005 C7.18762458,7.56724583 7.21715508,7.57373167 7.2465619,7.58040604 C7.03725642,7.89576993 6.9162644,8.27353826 6.9162644,8.67956578 L6.9162644,12.6795658 C6.9162644,13.0791354 7.03343827,13.4513377 7.23529921,13.7636857 L1.45009142,13.7632112 C0.573029443,13.7632112 -0.0464784627,13.0592294 0.00273744245,12.1834729 C0.129751854,9.92347295 1.74827453,8.08460875 4.2149113,7.56093502 L4.354,7.53397301 L4.226,7.55997301 L4.431,7.51997301 L4.54102291,7.50058364 C4.6125134,7.4887432 4.68455654,7.47834943 4.75723383,7.46904606 C4.77234247,7.46708604 4.78761695,7.46516815 4.80292704,7.46329926 C4.8740373,7.45472737 4.94568578,7.4471497 5.01791985,7.44062891 L5.1139189,7.43250277 L5.3030492,7.42057232 C5.33428815,7.41895385 5.36611325,7.4175558 5.39807681,7.41635674 C5.49281166,7.41278352 5.58842975,7.41097301 5.68493651,7.41097301 Z M13,7.59592037 C13.5522847,7.59592037 14,8.04363562 14,8.59592037 L14,12.7632112 C14,13.3154959 13.5522847,13.7632112 13,13.7632112 L8.83263066,13.7632112 C8.28034591,13.7632112 7.83263066,13.3154959 7.83263066,12.7632112 L7.83263066,8.59592037 C7.83263066,8.04363562 8.28034591,7.59592037 8.83263066,7.59592037 L13,7.59592037 Z M5.718,8.61097301 L5.68493651,8.61097301 C5.60381167,8.61097301 5.52327102,8.61248794 5.44306139,8.61551327 C5.40309116,8.61709891 5.40309116,8.61709891 5.37859574,8.61819192 L5.21513471,8.62822655 L5.12580888,8.63576905 C5.06611132,8.64115814 5.00637952,8.64746137 4.94833069,8.65445743 C4.92959254,8.65676677 4.92959254,8.65676677 4.90960162,8.65933345 C4.84859863,8.66714239 4.79139048,8.67546427 4.74928986,8.68237249 L4.66081243,8.69776172 L4.45581243,8.73776172 L4.24524272,8.78615212 C2.5188118,9.23102086 1.38760276,10.481171 1.21712628,12.0527217 L1.20084698,12.2508045 C1.18913375,12.4592318 1.28323947,12.5632112 1.45018984,12.5632112 L5.716,12.562973 L5.7162644,8.67956578 L5.718,8.61097301 Z M12.8,11.1656601 L9.03,11.1656601 L9.03,12.1935598 L12.8,12.1935598 L12.8,11.1656601 Z M12.8,9.16566005 L9.03,9.16566005 L9.03,10.1935598 L12.8,10.1935598 L12.8,9.16566005 Z M5.68508374,0 C7.43921752,0 8.86118811,1.42200396 8.86118811,3.17613774 C8.86118811,4.9302617 7.43921752,6.35226174 5.68508374,6.35226174 C3.93095978,6.35226174 2.50895975,4.9302617 2.50895975,3.17613774 C2.50895975,1.42200396 3.93095978,0 5.68508374,0 Z M5.68508374,1.2 C4.59370174,1.2 3.70895975,2.0847454 3.70895975,3.17613774 C3.70895975,4.26752 4.59370148,5.15226174 5.68508374,5.15226174 C6.77646582,5.15226174 7.66118811,4.26753 7.66118811,3.17613774 C7.66118811,2.0847354 6.77646556,1.2 5.68508374,1.2 Z" id="形状结合"></path>
        </g>
    </g>
</svg>