<?xml version="1.0" encoding="UTF-8"?>
<svg width="16px" height="16px" viewBox="0 0 16 16" version="1.1" xmlns="http://www.w3.org/2000/svg" xmlns:xlink="http://www.w3.org/1999/xlink">
    <title>user-Info-third-menu</title>
    <g id="user-Info-third-menu" stroke="none" stroke-width="1" fill="none" fill-rule="evenodd">
        <rect id="矩形" fill-opacity="0" fill="#D8D8D8" x="0" y="0" width="16" height="16"></rect>
        <g id="图形" transform="translate(1.000000, 1.000000)">
            <path d="M5.68508374,0.6 C6.39646064,0.6 7.04048479,0.888340644 7.50666527,1.35452601 C7.97285057,1.82071622 8.26118811,2.4647537 8.26118811,3.17613774 C8.26118811,3.88751702 7.97285048,4.53155081 7.50666564,4.99773854 C7.04048499,5.46392207 6.3964607,5.75226174 5.68508374,5.75226174 C4.9737071,5.75226174 4.32967615,5.46391898 3.86348933,4.99773216 C3.3973025,4.53154533 3.10895975,3.88751438 3.10895975,3.17613774 C3.10895975,2.46475634 3.39730242,1.8207217 3.8634897,1.3545324 C4.32967635,0.888343734 4.97370716,0.6 5.68508374,0.6 Z" id="路径" stroke="#262626" stroke-width="1.2"></path>
            <path d="" id="形状结合" stroke="#262626" stroke-width="1.2"></path>
            <path d="M13,7.59592037 C13.5522847,7.59592037 14,8.04363562 14,8.59592037 L14,12.7632112 C14,13.3154959 13.5522847,13.7632112 13,13.7632112 L8.83263066,13.7632112 C8.28034591,13.7632112 7.83263066,13.3154959 7.83263066,12.7632112 L7.83263066,8.59592037 C7.83263066,8.04363562 8.28034591,7.59592037 8.83263066,7.59592037 L13,7.59592037 Z M12.8,11.1656601 L9.03,11.1656601 L9.03,12.1935598 L12.8,12.1935598 L12.8,11.1656601 Z M12.8,9.16566005 L9.03,9.16566005 L9.03,10.1935598 L12.8,10.1935598 L12.8,9.16566005 Z" id="形状结合" fill="#262626"></path>
        </g>
    </g>
</svg>