<?xml version="1.0" encoding="UTF-8"?>
<svg width="16px" height="16px" viewBox="0 0 16 16" version="1.1" xmlns="http://www.w3.org/2000/svg" xmlns:xlink="http://www.w3.org/1999/xlink">
    <title>user-role-third-menu</title>
    <g id="user-role-third-menu" stroke="none" stroke-width="1" fill="none" fill-rule="evenodd">
        <rect id="矩形" fill-opacity="0" fill="#F0F0F0" x="0" y="0" width="16" height="16"></rect>
        <g id="用户角色" transform="translate(1.000000, 0.662500)">
            <rect id="矩形" fill-opacity="0" fill="#D8D8D8" x="0" y="0.3375" width="14" height="14"></rect>
            <path d="M9.61183281,7.25926202 L9.96549035,7.37976908 C12.2436684,8.156047 13.7346114,10.0510868 13.8631852,12.3388341 C13.9319253,13.5620069 13.0357247,14.5522382 11.8167765,14.5522382 L2.19414731,14.5522382 C0.975199047,14.5522382 0.0789984991,13.5620069 0.147738662,12.3388324 C0.276180057,10.0534417 1.7642367,8.15976754 4.03879139,7.38203625 L4.39269239,7.261028 L4.65716823,7.52549244 L7.00105589,9.86978656 L9.61183281,7.25926202 Z M9.92105589,8.64678656 L7.42603727,11.1426897 L7.00178236,11.5670251 L6.57747803,11.1427391 L4.08305589,8.64878656 L4.00311581,8.68297698 C2.4966591,9.34788523 1.52554122,10.6411422 1.36297839,12.192983 L1.3458481,12.4061657 C1.31512592,12.9528415 1.67659659,13.3522382 2.19414731,13.3522382 L11.8167765,13.3522382 C12.3343272,13.3522382 12.6957979,12.9528415 12.6650758,12.4061674 C12.5724638,10.7582986 11.5807015,9.37532215 10.0030845,8.68089522 L9.92105589,8.64678656 Z M6.982374,0 C9.06787421,0 10.7584784,1.6906287 10.7584784,3.77613774 C10.7584784,5.86163825 9.06787292,7.55226174 6.982374,7.55226174 C4.89687919,7.55226174 3.20625,5.86163255 3.20625,3.77613774 C3.20625,1.6906344 4.8968779,0 6.982374,0 Z M6.982374,1.2 C5.55962063,1.2 4.40625,2.35337506 4.40625,3.77613774 C4.40625,5.19889085 5.55962089,6.35226174 6.982374,6.35226174 C8.40512836,6.35226174 9.55847836,5.19889942 9.55847836,3.77613774 C9.55847836,2.3533665 8.40512861,1.2 6.982374,1.2 Z" id="形状结合" fill="#262626" fill-rule="nonzero"></path>
        </g>
    </g>
</svg>