<?xml version="1.0" encoding="UTF-8"?>
<svg width="16px" height="16px" viewBox="0 0 16 16" version="1.1" xmlns="http://www.w3.org/2000/svg" xmlns:xlink="http://www.w3.org/1999/xlink">
    <title>user-table-third-menu</title>
    <g id="user-table-third-menu" stroke="none" stroke-width="1" fill="none" fill-rule="evenodd">
        <rect id="矩形" fill-opacity="0" fill="#F0F0F0" x="0" y="0" width="16" height="16"></rect>
        <g id="编组-2" transform="translate(0.144036, 0.662500)">
            <rect id="矩形" fill-opacity="0" fill="#D8D8D8" x="0.855963556" y="0.3375" width="14" height="14"></rect>
            <path d="M6.83833755,0 C8.92383777,0 10.6144419,1.6906287 10.6144419,3.77613774 C10.6144419,5.14474745 9.88635891,6.34329782 8.79639128,7.00558071 L8.64401945,7.092 C11.4496376,7.53564315 13.4554746,9.50831708 13.702643,12.1197548 L13.7191488,12.3388341 C13.7878888,13.5620069 12.8916883,14.5522382 11.67274,14.5522382 L2.05011087,14.5522382 C0.831162604,14.5522382 -0.0650379448,13.5620069 0.00370221766,12.3388324 C0.152423459,9.69259724 2.08657313,7.66035773 4.84279751,7.13372267 L5.04301945,7.098 C3.91480514,6.48612314 3.13563883,5.3220364 3.06712703,3.9704565 L3.06221356,3.77613774 C3.06221356,1.6906344 4.75284146,0 6.83833755,0 Z M7.43789495,8.2 L6.28495595,8.2 C3.39536125,8.2 1.33822473,9.97893286 1.20181166,12.4061657 C1.17108948,12.9528415 1.53256014,13.3522382 2.05011087,13.3522382 L11.67274,13.3522382 C12.1902908,13.3522382 12.5517614,12.9528415 12.5210393,12.4061674 C12.3846262,9.97893286 10.3274897,8.2 7.43789495,8.2 Z M14.8559636,8.2375 L14.8559636,9.4375 L12.8601311,9.4375 L12.8601311,8.2375 L14.8559636,8.2375 Z M14.8559636,5.2375 L14.8559636,6.4375 L11.8597001,6.4375 L11.8597001,5.2375 L14.8559636,5.2375 Z M6.83833755,1.2 C5.41558419,1.2 4.26221356,2.35337506 4.26221356,3.77613774 C4.26221356,5.19889085 5.41558444,6.35226174 6.83833755,6.35226174 C8.26109191,6.35226174 9.41444192,5.19889942 9.41444192,3.77613774 C9.41444192,2.3533665 8.26109217,1.2 6.83833755,1.2 Z M14.8559636,2.2375 L14.8559636,3.4375 L10.8642986,3.4375 L10.8642986,2.2375 L14.8559636,2.2375 Z" id="形状结合" fill="#262626" fill-rule="nonzero"></path>
        </g>
    </g>
</svg>