<?xml version="1.0" encoding="UTF-8"?>
<svg width="16px" height="16px" viewBox="0 0 16 16" version="1.1" xmlns="http://www.w3.org/2000/svg" xmlns:xlink="http://www.w3.org/1999/xlink">
    <title>Version release record</title>
    <g id="Version-release-record" stroke="none" stroke-width="1" fill="none" fill-rule="evenodd">
        <rect id="矩形" fill="#000000" opacity="0" x="0" y="0" width="16" height="16"></rect>
        <path d="M10.4001271,2.99590282 C10.7314979,2.99590282 11.0001271,3.26453197 11.0001271,3.59590282 C11.0001271,3.92727367 10.7314979,4.19590282 10.4001271,4.19590282 L2,4.19590282 C1.66862915,4.19590282 1.4,3.92727367 1.4,3.59590282 C1.4,3.26453197 1.66862915,2.99590282 2,2.99590282 L10.4001271,2.99590282 Z" id="直线-2备份-2" fill="#262626" fill-rule="nonzero"></path>
        <path d="M2.00327769,6.57131955 L14.0032777,6.63688357 C14.3346436,6.63869379 14.6018013,6.90878641 14.6000002,7.24015231 C14.5981808,7.57151822 14.3280882,7.83867588 13.9967223,7.83687481 L1.99672231,7.77131079 C1.6653564,7.76950057 1.39819873,7.49940795 1.39999981,7.16804205 C1.40181917,6.83667614 1.67191179,6.56951847 2.00327769,6.57131955 Z" id="直线-2备份-2" fill="#262626" fill-rule="nonzero"></path>
        <path d="M10.4001271,10.1959028 C10.7314979,10.1959028 11.0001271,10.464532 11.0001271,10.7959028 C11.0001271,11.1272737 10.7314979,11.3959028 10.4001271,11.3959028 L2,11.3959028 C1.66862915,11.3959028 1.4,11.1272737 1.4,10.7959028 C1.4,10.464532 1.66862915,10.1959028 2,10.1959028 L10.4001271,10.1959028 Z" id="直线-2备份-2" fill="#262626" fill-rule="nonzero"></path>
        <path d="M2.00327769,13.7713196 L14.0032777,13.8368836 C14.3346436,13.8386938 14.6018013,14.1087864 14.6000002,14.4401523 C14.5981808,14.7715182 14.3280882,15.0386759 13.9967223,15.0368748 L1.99672231,14.9713108 C1.6653564,14.9695006 1.39819873,14.699408 1.39999981,14.368042 C1.40181917,14.0366761 1.67191179,13.7695185 2.00327769,13.7713196 Z" id="直线-2备份-2" fill="#262626" fill-rule="nonzero"></path>
    </g>
</svg>