<?xml version="1.0" encoding="UTF-8"?>
<svg width="16px" height="16px" viewBox="0 0 16 16" version="1.1" xmlns="http://www.w3.org/2000/svg" xmlns:xlink="http://www.w3.org/1999/xlink">
    <title>version-release-record-third-menu</title>
    <g id="version-release-record-third-menu" stroke="none" stroke-width="1" fill="none" fill-rule="evenodd">
        <rect id="矩形" fill="#000000" opacity="0" x="0" y="0" width="16" height="16"></rect>
        <g id="编组" transform="translate(1.000000, 2.000000)" fill="#262626" fill-rule="nonzero">
            <path d="M9.00012727,0 C9.33149812,0 9.60012727,0.26862915 9.60012727,0.6 C9.60012727,0.93137085 9.33149812,1.2 9.00012727,1.2 L0.600000192,1.2 C0.268629343,1.2 1.92442712e-07,0.93137085 1.92442712e-07,0.6 C1.92442712e-07,0.26862915 0.268629343,0 0.600000192,0 L9.00012727,0 Z" id="直线-2备份-2"></path>
            <path d="M0.603277887,3.57541673 L12.6032779,3.64098075 C12.9346438,3.64279097 13.2018015,3.91288359 13.2000004,4.24424949 C13.198181,4.5756154 12.9280884,4.84277306 12.5967225,4.84097199 L0.596722498,4.77540797 C0.265356592,4.77359775 -0.00180107561,4.50350513 0,4.17213923 C0.0018193661,3.84077332 0.271911982,3.57361565 0.603277887,3.57541673 Z" id="直线-2备份-2"></path>
            <path d="M9.00012727,7.2 C9.33149812,7.2 9.60012727,7.46862915 9.60012727,7.8 C9.60012727,8.13137085 9.33149812,8.4 9.00012727,8.4 L0.600000192,8.4 C0.268629343,8.4 1.92442712e-07,8.13137085 1.92442712e-07,7.8 C1.92442712e-07,7.46862915 0.268629343,7.2 0.600000192,7.2 L9.00012727,7.2 Z" id="直线-2备份-2"></path>
            <path d="M0.603277887,10.7754167 L12.6032779,10.8409807 C12.9346438,10.842791 13.2018015,11.1128836 13.2000004,11.4442495 C13.198181,11.7756154 12.9280884,12.0427731 12.5967225,12.040972 L0.596722498,11.975408 C0.265356592,11.9735977 -0.00180107561,11.7035051 0,11.3721392 C0.0018193661,11.0407733 0.271911982,10.7736157 0.603277887,10.7754167 Z" id="直线-2备份-2"></path>
        </g>
    </g>
</svg>