<?xml version="1.0" encoding="UTF-8"?>
<svg width="16px" height="16px" viewBox="0 0 16 16" version="1.1" xmlns="http://www.w3.org/2000/svg" xmlns:xlink="http://www.w3.org/1999/xlink">
    <title>view settings-third menu</title>
    <g id="view-settings-third-menu" stroke="none" stroke-width="1" fill="none" fill-rule="evenodd">
        <rect id="矩形" fill-opacity="0" fill="#F0F0F0" x="0" y="0" width="16" height="16"></rect>
        <g id="编组" transform="translate(2.000000, 2.000000)">
            <path d="M9.00085286,0 L11,0 C11.5522847,-1.01453063e-16 12,0.44771525 12,1 L12,2.9973327 L12,2.9973327 M12,9.00888649 L12,11 C12,11.5522847 11.5522847,12 11,12 L9.00428358,12 L9.00428358,12 M2.99243842,12 L1,12 C0.44771525,12 -1.5440923e-16,11.5522847 0,11 L0,8.97358718 L0,8.97358718 M0,3.03683524 L0,1 C-2.8967998e-16,0.44771525 0.44771525,1.01453063e-16 1,0 L3.00795434,0 L3.00795434,0" id="形状" stroke="#262626" stroke-width="1.2" stroke-linecap="round"></path>
            <path d="M6.00059125,1.88 C8.19945886,1.88 10.1621395,3.15226203 11.8836432,5.63767655 C12.0387856,5.86446359 12.0387856,6.14412903 11.8836432,6.37091606 C10.1621395,8.85773797 8.19945886,10.13 6.00059125,10.13 C3.80006037,10.13 1.83737973,8.85773797 0.11587598,6.37091606 C-0.0386253267,6.14448642 -0.0386253267,5.86551358 0.11587598,5.63908394 C1.83737973,3.15226203 3.80006037,1.88 6.00059125,1.88 Z M5.99925995,3.38 C4.5502185,3.38 3.375,4.55622155 3.375,6.00645753 C3.375,7.45523599 4.5502185,8.63 5.99925995,8.63 C7.4497815,8.63 8.625,7.45523599 8.625,6.00645753 C8.625,4.55622155 7.4497815,3.38 5.99925995,3.38 Z M6.00069341,4.505 C6.40187441,4.50824179 6.78529208,4.66821802 7.06649741,4.9496934 C7.34770274,5.23116877 7.50363005,5.61105545 7.49993582,6.00568214 C7.49993582,6.83242155 6.82867465,7.505 6.00069341,7.505 C5.59927112,7.50211853 5.2154973,7.34230088 4.93399252,7.06078619 C4.65248773,6.7792715 4.49637051,6.39917912 4.50006408,6.00431786 C4.50006408,5.17621417 5.17132526,4.505 6.00069341,4.505 Z" id="形状结合" fill="#262626"></path>
        </g>
    </g>
</svg>