<?xml version="1.0" encoding="UTF-8"?>
<svg width="16px" height="16px" viewBox="0 0 16 16" version="1.1" xmlns="http://www.w3.org/2000/svg" xmlns:xlink="http://www.w3.org/1999/xlink">
    <title>view-arrangement-third-menu</title>
    <g id="view-arrangement-third-menu" stroke="none" stroke-width="1" fill="none" fill-rule="evenodd">
        <rect id="矩形" fill="#000000" opacity="0" x="0" y="0" width="16" height="16"></rect>
        <rect id="矩形" stroke="#262626" stroke-width="1.2" x="2.6" y="2.6" width="10.8" height="10.8"></rect>
        <polygon id="路径" fill="#262626" fill-rule="nonzero" points="10.9469965 7.87478606 10.9469965 7.25287793 8.41696113 7.25287793 8.41696113 6.5744327 9.4770318 6.5744327 9.4770318 3.95959171 6.50176678 3.95959171 6.50176678 6.58149984 7.5335689 6.58149984 7.5335689 7.25994507 5.06007067 7.25994507 5.06007067 8.85005107 4 8.85005107 4 11.5567649 6.97526502 11.5567649 6.97526502 8.85005107 5.93639576 8.85005107 5.93639576 8.14333729 10.0565371 8.14333729 10.0565371 8.85005107 9.02473498 8.85005107 9.02473498 11.5567649 12 11.5567649 12 8.85005107 10.9399293 8.85005107"></polygon>
        <circle id="椭圆形备份" fill="#262626" cx="2.6" cy="2.6" r="1.5"></circle>
        <circle id="椭圆形备份-3" fill="#262626" cx="2.6" cy="13.6" r="1.5"></circle>
        <circle id="椭圆形备份-2" fill="#262626" cx="13.6" cy="2.6" r="1.5"></circle>
        <circle id="椭圆形备份-4" fill="#262626" cx="13.6" cy="13.6" r="1.5"></circle>
    </g>
</svg>