<?xml version="1.0" encoding="UTF-8"?>
<svg width="16px" height="16px" viewBox="0 0 16 16" version="1.1" xmlns="http://www.w3.org/2000/svg" xmlns:xlink="http://www.w3.org/1999/xlink">
    <title>vm-host-machine-third-menu</title>
    <g id="vm-host-machine-third-menu" stroke="none" stroke-width="1" fill="none" fill-rule="evenodd">
        <rect id="矩形" fill-opacity="0" fill="#F0F0F0" x="0" y="0" width="16" height="16"></rect>
        <g id="编组-13" transform="translate(1.000000, 1.430000)">
            <path d="M7,1.67883 L2.12189266,4.09898809 L7,6.17879539 L11.8781073,4.09898809 L7,1.67883 Z M12.1049961,4.74182763 L7.41596855,6.89727041 L7.41596855,8.82582447 L12.1049961,6.59476394 L12.1049961,4.74182763 Z M12.1049961,7.42668331 L7.41596855,9.58212609 L7.41596855,11.3972358 L12.1049961,9.12834867 L12.1049961,7.42668331 Z M6.58403145,6.89727041 L1.89500395,4.74182763 L1.89500395,6.59476394 L6.58403145,8.78801559 L6.58403145,6.89727041 Z M5.26052577,7.72920751 C4.99581046,7.6913809 4.76892174,7.42668331 4.76892174,7.16198572 C4.76892174,6.89728813 4.99581046,6.7082083 5.26052577,6.78382605 C5.52524109,6.85944381 5.75211208,7.08635024 5.75211208,7.35104783 C5.75211208,7.61574543 5.52522336,7.80482526 5.26052577,7.72920751 Z M1.89500395,7.42668331 L1.89500395,9.12834867 L6.58403145,11.3972358 L6.58403145,9.58212609 L1.89500395,7.42668331 Z M5.26052577,10.3762366 C4.99581046,10.3384277 4.76892174,10.0737124 4.76892174,9.80901481 C4.76892174,9.54431721 4.99581046,9.35523738 5.26052577,9.43087286 C5.52524109,9.50650834 5.75211208,9.73337933 5.75211208,9.99809464 C5.75211208,10.26281 5.52522336,10.4518721 5.26052577,10.3762366 Z" id="形状备份" fill="#262626"></path>
            <path d="M5.75211208,13.1316153 L0.488042033,10.4754378 C0.188416014,10.3216696 0,10.013195 0,9.67641558 L0,3.58873006 C0,3.25195061 0.188416014,2.943476 0.488042033,2.78970785 L5.75211208,0.144425696 M8.07236439,0 L13.511958,2.78970785 C13.811584,2.943476 14,3.25195061 14,3.58873006 L14,9.67641558 C14,10.013195 13.811584,10.3216696 13.511958,10.4754378 L8.07236439,13.1316153" id="形状备份-2" stroke="#262626" stroke-width="1.2" stroke-linecap="round" stroke-linejoin="round"></path>
        </g>
    </g>
</svg>