<?xml version="1.0" encoding="UTF-8"?>
<svg width="16px" height="16px" viewBox="0 0 16 16" version="1.1" xmlns="http://www.w3.org/2000/svg" xmlns:xlink="http://www.w3.org/1999/xlink">
    <title>wait-confirm-event-third-menu</title>
    <g id="wait-confirm-event-third-menu" stroke="none" stroke-width="1" fill="none" fill-rule="evenodd">
        <g id="编组">
            <rect id="矩形" fill-opacity="0" fill="#F0F0F0" x="0" y="0" width="16" height="16"></rect>
            <path d="M8,1 C11.8659932,1 15,4.13400675 15,8 C15,8.22114792 14.9897448,8.43990061 14.9696841,8.65580846 C14.6257124,8.32617943 14.2307455,8.05036544 13.7972397,7.84196983 L13.8,8 C13.8,4.79674845 11.2032515,2.2 8,2.2 C4.79674845,2.2 2.2,4.79674845 2.2,8 C2.2,11.1257098 4.67255016,13.6739246 7.7684693,13.7954632 C7.97079656,14.2323682 8.24148944,14.6304526 8.56643271,14.9770633 C8.37976595,14.9923684 8.19077421,15 8,15 C4.13400675,15 1,11.8659932 1,8 C1,4.13400675 4.13400675,1 8,1 Z" id="形状结合" fill="#262626" fill-rule="nonzero"></path>
            <path d="M12.0000015,9.0000015 C13.6568549,9.0000015 15.0000015,10.3431481 15.0000015,12.0000015 C15.0000015,13.6568549 13.6568549,15.0000015 12.0000015,15.0000015 C10.3431481,15.0000015 9.0000015,13.6568549 9.0000015,12.0000015 C8.99920592,11.2041083 9.31502031,10.4405838 9.87780204,9.87780204 C10.4405838,9.31502031 11.2041083,8.99920592 12.0000015,9.0000015 Z M12.2528585,12.9998581 L11.7582873,12.9998581 C11.6917342,13.0003252 11.6378973,13.0541621 11.6374303,13.1207152 L11.6374303,13.6152864 C11.6378973,13.6818395 11.6917342,13.7356764 11.7582873,13.7361435 L12.2528585,13.7361435 C12.2840495,13.740336 12.3155006,13.7305468 12.3388025,13.7093932 C12.3621044,13.6882397 12.3748808,13.6578791 12.3737156,13.6264293 L12.3737156,13.1207152 C12.3730197,13.0542581 12.3193156,13.0005541 12.2528585,12.9998581 Z M12.3737156,10.2527167 L11.6262874,10.2527167 C11.5577696,10.2585209 11.5051849,10.3159538 11.5054295,10.3847166 L11.6151446,12.5057155 C11.6158405,12.5721727 11.6695445,12.6258767 11.7360016,12.6265726 L12.2524299,12.6265726 C12.3188871,12.6258767 12.3725911,12.5721727 12.373287,12.5057155 L12.4941441,10.3847166 C12.4965568,10.3510569 12.4848273,10.3180282 12.4620578,10.2931594 C12.4392882,10.2682905 12.4074193,10.2537011 12.3737156,10.2527167 Z" id="形状结合" fill="#262626" fill-rule="nonzero"></path>
            <path d="M8.35421951,3.53359725 L8.61610866,8.43891302 L6.22817223,10.4874748 C6.21242988,10.5031024 6.19072498,10.5112018 6.16859332,10.5097072 C6.14646166,10.5082126 6.12604281,10.4972685 6.11254457,10.4796661 L5.61189181,9.97901339 C5.58247072,9.94416053 5.57930044,9.89416761 5.60408319,9.85587744 L7.38294717,7.82293294 L7.64573731,3.53359725 C7.64605954,3.48718983 7.6834262,3.44955626 7.72983015,3.44890374 L8.26111672,3.44890374 C8.28470453,3.4475133 8.30785023,3.45573308 8.32527766,3.47168936 C8.34270508,3.48764564 8.35292901,3.50997856 8.35361885,3.53359725 L8.35421951,3.53359725 Z" id="路径" fill="#262626" fill-rule="nonzero"></path>
        </g>
    </g>
</svg>