<?xml version="1.0" encoding="UTF-8"?>
<svg width="16px" height="16px" viewBox="0 0 16 16" version="1.1" xmlns="http://www.w3.org/2000/svg" xmlns:xlink="http://www.w3.org/1999/xlink">
    <title>webhook push strategy-third menu</title>
    <g id="webhook-push-strategy-third-menu" stroke="none" stroke-width="1" fill="none" fill-rule="evenodd">
        <g id="webhook-push-strategy">
            <rect id="矩形" x="0" y="0" width="16" height="16"></rect>
            <path d="M9.70691536,1.47405641 C11.2764596,2.41713376 11.7843114,4.45401606 10.8412341,6.02356035 L9.89393031,5.45436281 C10.5226485,4.40799995 10.1840807,3.05007842 9.13771782,2.42136019 C8.09135496,1.79264195 6.73343343,2.13120982 6.1047152,3.17757268 C5.4786891,4.21945506 5.8116831,5.57023367 6.84752522,6.20245885 L7.04398519,6.30932446 C7.04833593,6.31141587 7.05269077,6.31349179 7.05704963,6.31555224 L7.6741834,6.65221566 L5.40507981,10.834376 C5.17517343,10.5398368 4.82844934,10.3409248 4.43456002,10.3072924 L6.18036279,7.087 L6.13316671,7.05648156 C4.74046827,6.10993988 4.27970613,4.26192388 5.06501146,2.77234486 L5.15741142,2.60837514 C6.10048877,1.03883085 8.13737107,0.530979058 9.70691536,1.47405641 Z" id="形状结合" fill="#262626"></path>
            <path d="M7.99932275,2.93452255 C8.76227391,2.93452255 9.38076803,3.55301667 9.38076803,4.31596784 C9.38076803,4.65162895 9.26105425,4.95932941 9.06199357,5.19870233 L9.09124832,5.16229426 L10.8957416,8.46255801 C12.4474065,8.08123354 14.0906175,8.86995618 14.7350818,10.388219 C15.4505429,12.0737396 14.6641542,14.0201198 12.9786337,14.7355809 C11.2931131,15.4510419 9.34673287,14.6646533 8.63127183,12.9791327 L9.6485735,12.5473137 C10.1255475,13.6709941 11.4231343,14.1952532 12.5468147,13.7182792 C13.6704951,13.2413052 14.1947542,11.9437184 13.7177802,10.820038 C13.2408061,9.69635759 11.9432194,9.1720985 10.819539,9.64907253 L10.4045064,9.86932691 L8.121,5.692 L7.99932275,5.69741312 C7.28125107,5.69741312 6.69114134,5.14954289 6.62420134,4.44901023 L6.61787747,4.31596784 C6.61787747,3.55301667 7.23637159,2.93452255 7.99932275,2.93452255 Z M7.58497408,12.2369823 C7.32160379,13.8046823 5.95802705,14.9991447 4.31546867,14.9991447 C2.48438589,14.9991447 1,13.5147588 1,11.683676 C1,9.85259321 2.48438589,8.36820732 4.31546867,8.36820732 L4.31546867,9.47336355 C3.09474682,9.47336355 2.10515622,10.4629541 2.10515622,11.683676 C2.10515622,12.9043979 3.09474682,13.8939884 4.31546867,13.8939884 C5.53619053,13.8939884 6.52578112,12.9043979 6.52578112,11.683676 L6.52578112,11.1310979 L10.417197,11.1299158 L10.406568,11.1548475 C10.6141504,10.6542983 11.1075487,10.3022307 11.6831768,10.3022307 C12.446128,10.3022307 13.0646221,10.9207248 13.0646221,11.683676 C13.0646221,12.4466272 12.446128,13.0651213 11.6831768,13.0651213 C11.1573064,13.0651213 10.7000642,12.7712889 10.466674,12.3388481 L10.417197,12.2374362 L7.58497408,12.2369823 Z M9.70691536,1.47405641 C11.2764596,2.41713376 11.7843114,4.45401606 10.8412341,6.02356035 L9.89393031,5.45436281 C10.5226485,4.40799995 10.1840807,3.05007842 9.13771782,2.42136019 C8.09135496,1.79264195 6.73343343,2.13120982 6.1047152,3.17757268 C5.4786891,4.21945506 5.8116831,5.57023367 6.84752522,6.20245885 L7.04398519,6.30932446 L7.05704963,6.31555224 L7.6741834,6.65221566 L5.40507981,10.834376 L5.38558757,10.8099751 C5.58018254,11.0480328 5.69691395,11.3522223 5.69691395,11.683676 C5.69691395,12.4466272 5.07841983,13.0651213 4.31546867,13.0651213 C3.55251751,13.0651213 2.93402339,12.4466272 2.93402339,11.683676 C2.93402339,10.9207248 3.55251751,10.3022307 4.31546867,10.3022307 L4.43863305,10.3076462 L6.18036279,7.087 L6.13316671,7.05648156 C4.74046827,6.10993988 4.27970613,4.26192388 5.06501146,2.77234486 L5.15741142,2.60837514 C6.10048877,1.03883085 8.13737107,0.530979058 9.70691536,1.47405641 Z" id="形状结合" fill="#262626"></path>
        </g>
    </g>
</svg>