<?xml version="1.0" encoding="UTF-8"?>
<svg width="16px" height="16px" viewBox="0 0 16 16" version="1.1" xmlns="http://www.w3.org/2000/svg" xmlns:xlink="http://www.w3.org/1999/xlink">
    <title>weblogic-third-menu</title>
    <g id="weblogic-third-menu" stroke="none" stroke-width="1" fill="none" fill-rule="evenodd">
        <rect id="矩形" fill-opacity="0" fill="#F0F0F0" x="0" y="0" width="16" height="16"></rect>
        <g id="Weblogic" transform="translate(0.500000, 0.500000)">
            <rect id="矩形" fill-opacity="0" fill="#FFFFFF" x="0.5" y="0.5" width="14" height="14"></rect>
            <g fill="#262626" fill-rule="nonzero" id="形状结合">
                <path d="M7.6,0 C11.7973641,0 15.2,3.4026359 15.2,7.6 C15.2,11.7973641 11.7973641,15.2 7.6,15.2 C3.4026359,15.2 0,11.7973641 0,7.6 C0,3.4026359 3.4026359,0 7.6,0 Z M7.6,1.28450704 C4.11204955,1.28450704 1.28450704,4.11204955 1.28450704,7.6 C1.28450704,11.0879504 4.11204955,13.915493 7.6,13.915493 C11.0879504,13.915493 13.915493,11.0879504 13.915493,7.6 C13.915493,7.26875767 13.8899918,6.94347146 13.8408456,6.62599751 L11.2881644,9.10528681 L10.1983944,10.163936 L10.1981972,6.67244946 L7.44691144,9.38570598 L6.35372448,10.4636083 L6.35323944,7.28366072 L3.53802817,7.28472696 L3.53802817,6.00021992 L7.63823152,6.00021992 L7.63774648,7.39284382 L10.3897145,4.68013586 L11.4829014,3.60223355 L11.4827042,7.12523819 L13.4496572,5.21504666 C12.5086507,2.90937268 10.2440792,1.28450704 7.6,1.28450704 Z"></path>
            </g>
        </g>
    </g>
</svg>