<?xml version="1.0" encoding="UTF-8"?>
<svg width="16px" height="16px" viewBox="0 0 16 16" version="1.1" xmlns="http://www.w3.org/2000/svg" xmlns:xlink="http://www.w3.org/1999/xlink">
    <title>weblogic-third-menu</title>
    <g id="weblogic-third-menu" stroke="none" stroke-width="1" fill="none" fill-rule="evenodd">
        <rect id="矩形" fill-opacity="0" fill="#F0F0F0" x="0" y="0" width="16" height="16"></rect>
        <g id="Weblogic" transform="translate(0.900000, 0.900000)">
            <rect id="矩形" fill-opacity="0" fill="#FFFFFF" x="0.1" y="0.1" width="14" height="14"></rect>
            <g fill="#262626" fill-rule="nonzero" id="形状结合">
                <path d="M7.1,0 C11.0212217,0 14.2,3.17877828 14.2,7.1 C14.2,11.0212217 11.0212217,14.2 7.1,14.2 C3.17877828,14.2 0,11.0212217 0,7.1 C0,3.17877828 3.17877828,0 7.1,0 Z M7.1,1.2 C3.84151998,1.2 1.2,3.84151998 1.2,7.1 C1.2,10.35848 3.84151998,13 7.1,13 C10.35848,13 13,10.35848 13,7.1 C13,6.79015097 12.9761151,6.48588056 12.9300859,6.18892952 L10.545522,8.50625479 L9.5274474,9.49525599 L9.52726316,6.23347252 L6.95698306,8.76822532 L5.93571629,9.77521301 L5.93526316,6.80447252 L3.30526316,6.80546861 L3.30526316,5.60546861 L7.13571629,5.60546861 L7.13526316,6.90647252 L9.70618063,4.37223218 L10.7274474,3.3652445 L10.7272632,6.65647252 L12.5644817,4.87114391 C11.6851844,2.71758718 9.56981792,1.2 7.1,1.2 Z"></path>
            </g>
        </g>
    </g>
</svg>