<?xml version="1.0" encoding="UTF-8"?>
<svg width="16px" height="16px" viewBox="0 0 16 16" version="1.1" xmlns="http://www.w3.org/2000/svg" xmlns:xlink="http://www.w3.org/1999/xlink">
    <title>website-third-menu</title>
    <g id="website-third-menu" stroke="none" stroke-width="1" fill="none" fill-rule="evenodd">
        <g id="Mysql">
            <rect id="矩形" x="0" y="0" width="16" height="16"></rect>
            <g id="MysQL">
                <rect id="矩形备份" x="0" y="0" width="16" height="16"></rect>
            </g>
        </g>
        <g id="编组-2" transform="translate(1.000000, 1.000000)">
            <rect id="矩形" fill="#262626" x="2.5" y="5" width="1.2" height="7"></rect>
            <rect id="矩形备份-5" fill="#262626" x="10.5" y="5" width="1.2" height="7"></rect>
            <circle id="椭圆形" stroke="#262626" cx="3" cy="12.5" r="1"></circle>
            <circle id="椭圆形备份" stroke="#262626" cx="11" cy="12.5" r="1"></circle>
            <rect id="矩形" stroke="#262626" stroke-width="1.2" fill-rule="nonzero" x="0.6" y="0.6" width="4.8" height="3.8"></rect>
            <rect id="矩形备份-3" fill="#262626" x="0.5" y="8" width="5" height="1.2"></rect>
            <path d="M1.5,12.5 C1.5,12.7136367 1.54466182,12.9168421 1.62515801,13.1007888 L0,13.1 L0,11.9 L1.62532865,11.8988214 C1.54472494,12.0828708 1.5,12.2862124 1.5,12.5 Z M9.5,12.5 C9.5,12.7136367 9.54466182,12.9168421 9.62515801,13.1007888 L4.37484199,13.1007888 C4.45533818,12.9168421 4.5,12.7136367 4.5,12.5 C4.5,12.2862124 4.45527506,12.0828708 4.37467135,11.8988214 L9.62532865,11.8988214 C9.54472494,12.0828708 9.5,12.2862124 9.5,12.5 Z M14,11.9 L14,13.1 L12.374842,13.1007888 C12.4553382,12.9168421 12.5,12.7136367 12.5,12.5 C12.5,12.2862124 12.4552751,12.0828708 12.3746713,11.8988214 L14,11.9 Z" id="形状结合" fill="#262626"></path>
            <rect id="矩形备份-4" fill="#262626" x="8.5" y="8" width="5" height="1.2"></rect>
            <rect id="矩形备份-2" stroke="#262626" stroke-width="1.2" fill-rule="nonzero" x="8.6" y="0.6" width="4.8" height="3.8"></rect>
        </g>
    </g>
</svg>