<?xml version="1.0" encoding="UTF-8"?>
<svg width="16px" height="16px" viewBox="0 0 16 16" version="1.1" xmlns="http://www.w3.org/2000/svg" xmlns:xlink="http://www.w3.org/1999/xlink">
    <title>weekly-completed-project-requirements-third-menu</title>
    <g id="weekly-completed-project-requirements-third-menu" stroke="none" stroke-width="1" fill="none" fill-rule="evenodd">
        <g id="旗子_icon" transform="translate(3.000000, 1.000000)" fill-rule="nonzero">
            <path d="M3.95164594,0.914425841 C4.84981717,0.910964653 5.31352213,1.12001184 5.76331951,1.31447818 C6.1727651,1.49147403 6.56073711,1.65262428 7.05003244,1.72059102 C7.92343577,1.73094731 8.93031547,1.30195594 9.60001405,0.954406006 L9.655,0.925 L9.65508995,5.20451536 C9.58159443,5.30874818 9.42402449,5.50473425 9.15795628,5.71364095 L9.03721309,5.80373362 C8.7312227,6.02070588 8.37569751,6.19203279 7.98179188,6.31554476 C7.46878417,6.47641143 6.89042585,6.55582638 6.2635007,6.55584079 C4.77259919,6.55589886 4.02955967,7.07577285 3.6503748,7.47743032 C3.49316665,7.64396714 3.09316023,8.13394805 2.70306956,8.66356166 L2.626,8.768 L2.59379828,8.63828691 C2.2463778,7.26986376 1.68030997,5.0469311 0.890297192,1.9482372 L0.816,1.658 L0.840905218,1.65005455 C1.64282999,1.38360979 2.82995393,1.01847575 3.71752307,0.931089364 Z" id="路径" stroke="#000000" stroke-width="1.2"></path>
            <path d="M0.957097302,0.618832966 C0.91277956,0.571037264 0.843389053,0.555889078 0.783184532,0.580867209 L0.0961207248,0.865825433 C0.0244736417,0.895537151 -0.014397081,0.973434806 0.00494236941,1.04854856 L3.30888683,13.8830757 C3.32659311,13.9519071 3.38865784,14 3.4597302,14 C3.50049239,14 3.53963108,13.9840243 3.56875229,13.9555022 L4.36316533,13.1772759 C4.40127266,13.1399592 4.41763005,13.0857351 4.40651607,13.0335701 C4.4018427,13.011584 3.25203645,8.87333833 0.957097302,0.618832966 Z" id="路径" fill="#000000"></path>
        </g>
    </g>
</svg>