<?xml version="1.0" encoding="UTF-8"?>
<svg width="16px" height="16px" viewBox="0 0 16 16" version="1.1" xmlns="http://www.w3.org/2000/svg" xmlns:xlink="http://www.w3.org/1999/xlink">
    <title>workload-third menu</title>
    <g id="workload-third-menu" stroke="none" stroke-width="1" fill="none" fill-rule="evenodd">
        <g id="工作负载" transform="translate(0.000017, 0.000017)">
            <rect id="矩形" fill="#D8D8D8" opacity="0" x="0" y="0" width="16" height="16"></rect>
            <g id="架构拓扑" transform="translate(1.000228, 1.875404)" fill="#262626" fill-rule="nonzero">
                <path d="M5.56561506,3.38407183 L6.58955326,4.00981184 L3.3832191,9.25654048 L2.3592809,8.63080047 L5.56561506,3.38407183 Z M8.37919428,3.29370258 L11.521864,8.43625309 L10.4979258,9.06199311 L7.35525608,3.91944259 L8.37919428,3.29370258 Z M10.4235661,9.56252516 L10.4235661,10.5625252 L3.7610144,10.5625252 L3.7610144,9.56252516 L10.4235661,9.56252516 Z" id="形状结合"></path>
                <path d="M6.9997725,0 C8.20789841,0 9.18727797,0.979379558 9.18727797,2.18750547 C9.18727797,3.39563138 8.20789841,4.37501094 6.9997725,4.37501094 C5.79164659,4.37501094 4.81226703,3.39563138 4.81226703,2.18750547 C4.81226703,0.979379558 5.79164659,0 6.9997725,0 Z M6.9997725,1.2 C6.45438829,1.2 6.01226703,1.64212126 6.01226703,2.18750547 C6.01226703,2.73288968 6.45438829,3.17501094 6.9997725,3.17501094 C7.54515671,3.17501094 7.98727797,2.73288968 7.98727797,2.18750547 C7.98727797,1.64212126 7.54515671,1.2 6.9997725,1.2 Z M2.18750547,7.87501969 C3.39563138,7.87501969 4.37501094,8.85439925 4.37501094,10.0625252 C4.37501094,11.2706511 3.39563138,12.2500306 2.18750547,12.2500306 C0.979379558,12.2500306 0,11.2706511 0,10.0625252 C0,8.85439925 0.979379558,7.87501969 2.18750547,7.87501969 Z M2.18750547,9.07501969 C1.64212126,9.07501969 1.2,9.51714095 1.2,10.0625252 C1.2,10.6079094 1.64212126,11.0500306 2.18750547,11.0500306 C2.73288968,11.0500306 3.17501094,10.6079094 3.17501094,10.0625252 C3.17501094,9.51714095 2.73288968,9.07501969 2.18750547,9.07501969 Z M11.8125295,7.87501969 C13.0206554,7.87501969 14.000035,8.85439925 14.000035,10.0625252 C14.000035,11.2706511 13.0206554,12.2500306 11.8125295,12.2500306 C10.6044036,12.2500306 9.62502406,11.2706511 9.62502406,10.0625252 C9.62502406,8.85439925 10.6044036,7.87501969 11.8125295,7.87501969 Z M11.8125295,9.07501969 C11.2671453,9.07501969 10.8250241,9.51714095 10.8250241,10.0625252 C10.8250241,10.6079094 11.2671453,11.0500306 11.8125295,11.0500306 C12.3579137,11.0500306 12.800035,10.6079094 12.800035,10.0625252 C12.800035,9.51714095 12.3579137,9.07501969 11.8125295,9.07501969 Z" id="形状结合"></path>
            </g>
        </g>
    </g>
</svg>