<?xml version="1.0" encoding="UTF-8"?>
<svg width="36px" height="33px" viewBox="0 0 36 33" version="1.1" xmlns="http://www.w3.org/2000/svg" xmlns:xlink="http://www.w3.org/1999/xlink">
    <!-- Generator: Sketch 59.1 (86144) - https://sketch.com -->
    <title>业务</title>
    <desc>Created with Sketch.</desc>
    <defs>
        <linearGradient x1="49.909147%" y1="25.4483896%" x2="49.909147%" y2="69.4774157%" id="linearGradient-1">
            <stop stop-color="#FFFFFF" offset="0%"></stop>
            <stop stop-color="#FFFFFF" stop-opacity="0" offset="100%"></stop>
        </linearGradient>
        <linearGradient x1="49.8233671%" y1="-9.15967853%" x2="49.8233671%" y2="107.864175%" id="linearGradient-2">
            <stop stop-color="#FFFFFF" offset="0%"></stop>
            <stop stop-color="#FFFFFF" stop-opacity="0" offset="100%"></stop>
        </linearGradient>
    </defs>
    <g id="页面-1" stroke="none" stroke-width="1" fill="none" fill-rule="evenodd">
        <g id="模型图标库" transform="translate(-672.000000, -322.000000)">
            <g id="业务" transform="translate(672.000000, 320.000000)">
                <rect id="矩形" x="0" y="0" width="36" height="36"></rect>
                <g id="编组-29" transform="translate(0.000000, 3.000000)">
                    <g id="编组-3" transform="translate(0.875676, 0.194595)">
                        <path d="M32.602079,5.60432432 C33.5900208,5.60432432 34.3983368,6.40494208 34.3983368,7.3834749 L34.3983368,29.1780695 C34.3983368,30.1566023 33.5900208,30.9572201 32.602079,30.9572201 L1.7962578,30.9572201 C0.808316008,30.9572201 -2.20268248e-13,30.1566023 -2.20268248e-13,29.1780695 L-2.20268248e-13,7.3834749 C-2.20268248e-13,6.40494208 0.808316008,5.60432432 1.7962578,5.60432432 L32.602079,5.60432432 Z M12.3941788,13.966332 L6.1970894,13.966332 L6.1970894,17.8804633 L12.3941788,17.8804633 L12.3941788,13.966332 Z M28.2012474,13.966332 L22.004158,13.966332 L22.004158,17.8804633 L28.2012474,17.8804633 L28.2012474,13.966332 Z" id="形状结合" fill="url(#linearGradient-1)" fill-rule="nonzero"></path>
                        <path d="M10.1488565,5.5067062e-14 L24.2494802,5.5067062e-14 C25.237422,5.5067062e-14 26.045738,0.800617761 26.045738,1.77915058 L26.045738,7.91722008 C26.045738,8.8957529 25.237422,9.69637066 24.2494802,9.69637066 L10.1488565,9.69637066 C9.16091476,9.69637066 8.35259875,8.8957529 8.35259875,7.91722008 L8.35259875,1.77915058 C8.35259875,0.711660232 9.16091476,5.5067062e-14 10.1488565,5.5067062e-14 Z" id="路径" stroke="url(#linearGradient-2)" stroke-width="2"></path>
                        <path d="M1.17239551e-13,17.8804633 L1.17239551e-13,29.267027 C1.17239551e-13,30.2455598 0.808316008,31.0461776 1.7962578,31.0461776 L32.602079,31.0461776 C33.5900208,31.0461776 34.3983368,30.2455598 34.3983368,29.267027 L34.3983368,17.8804633 L1.17239551e-13,17.8804633 Z" id="路径" fill="#FFFFFF" fill-rule="nonzero"></path>
                    </g>
                </g>
            </g>
        </g>
    </g>
</svg>