<?xml version="1.0" encoding="UTF-8"?>
<svg width="36px" height="35px" viewBox="0 0 36 35" version="1.1" xmlns="http://www.w3.org/2000/svg" xmlns:xlink="http://www.w3.org/1999/xlink">
    <!-- Generator: Sketch 59.1 (86144) - https://sketch.com -->
    <title>集群</title>
    <desc>Created with Sketch.</desc>
    <g id="页面-1" stroke="none" stroke-width="1" fill="none" fill-rule="evenodd">
        <g id="模型图标库" transform="translate(-887.000000, -318.000000)">
            <g id="集群" transform="translate(887.000000, 318.000000)">
                <rect id="矩形" x="0" y="0" width="36" height="36"></rect>
                <g id="编组-5" transform="translate(0.600000, 0.850000)" fill="#FFFFFF" fill-rule="nonzero">
                    <path d="M17.2,0.15 C17.5,-0.05 17.9,-0.05 18.2,0.15 L18.2,0.15 L25.1,4.05 C25.4,4.25 25.6,4.55 25.6,4.95 L25.6,4.95 L25.6,12.85 C25.6,13.25 25.4,13.55 25.1,13.75 L25.1,13.75 L18.2,17.65 C17.9,17.85 17.5,17.85 17.2,17.65 L17.2,17.65 L10.3,13.75 C10,13.55 9.8,13.25 9.8,12.85 L9.8,12.85 L9.8,4.95 C9.8,4.55 10,4.25 10.3,4.05 L10.3,4.05 Z M11.1,6.35 C11,6.45 11,6.65 11,6.85 L11,12.75 C11,13.05 11.2,13.45 11.5,13.55 L16.7,16.45 C17.2,16.75 17.8,16.55 18,16.05 C18.1,15.95 18.1,15.75 18.1,15.55 L18.1,9.65 C18.1,9.35 17.9,8.95 17.6,8.85 L12.4,5.95 C11.9,5.65 11.3,5.85 11.1,6.35 Z" id="形状结合"></path>
                    <path d="M7.4,16.05 C7.7,15.85 8.1,15.85 8.4,16.05 L8.4,16.05 L15.3,19.95 C15.6,20.15 15.8,20.45 15.8,20.85 L15.8,20.85 L15.8,28.75 C15.8,29.15 15.6,29.45 15.3,29.65 L15.3,29.65 L8.4,33.55 C8.1,33.75 7.7,33.75 7.4,33.55 L7.4,33.55 L0.5,29.65 C0.2,29.45 -6.76791956e-13,29.15 -6.76791956e-13,28.75 L-6.76791956e-13,28.75 L-6.76791956e-13,20.85 C-6.76791956e-13,20.45 0.2,20.15 0.5,19.95 L0.5,19.95 Z M1.3,22.05 C1.2,22.15 1.2,22.35 1.2,22.55 L1.2,28.45 C1.2,28.75 1.4,29.15 1.7,29.25 L6.9,32.15 C7.4,32.45 8,32.25 8.2,31.75 C8.3,31.65 8.3,31.45 8.3,31.25 L8.3,25.35 C8.3,25.05 8.1,24.65 7.8,24.55 L2.6,21.65 C2.1,21.35 1.5,21.55 1.3,22.05 Z" id="形状结合"></path>
                    <path d="M27,16.05 C27.3,15.85 27.7,15.85 28,16.05 L28,16.05 L34.9,19.95 C35.2,20.15 35.4,20.45 35.4,20.85 L35.4,20.85 L35.4,28.75 C35.4,29.15 35.2,29.45 34.9,29.65 L34.9,29.65 L28,33.55 C27.7,33.75 27.3,33.75 27,33.55 L27,33.55 L20.1,29.65 C19.8,29.45 19.6,29.15 19.6,28.75 L19.6,28.75 L19.6,20.85 C19.6,20.45 19.8,20.15 20.1,19.95 L20.1,19.95 Z M20.9,22.05 C20.8,22.15 20.8,22.35 20.8,22.55 L20.8,28.45 C20.8,28.75 21,29.15 21.3,29.25 L26.5,32.15 C27,32.45 27.6,32.25 27.8,31.75 C27.9,31.65 27.9,31.45 27.9,31.25 L27.9,25.35 C27.9,25.05 27.7,24.65 27.4,24.55 L22.2,21.65 C21.7,21.35 21.1,21.55 20.9,22.05 Z" id="形状结合"></path>
                </g>
            </g>
        </g>
    </g>
</svg>