<?xml version="1.0" encoding="UTF-8"?>
<svg width="35px" height="34px" viewBox="0 0 35 34" version="1.1" xmlns="http://www.w3.org/2000/svg" xmlns:xlink="http://www.w3.org/1999/xlink">
    <!-- Generator: Sketch 59.1 (86144) - https://sketch.com -->
    <title>配置包</title>
    <desc>Created with Sketch.</desc>
    <g id="页面-1" stroke="none" stroke-width="1" fill="none" fill-rule="evenodd">
        <g id="模型图标库" transform="translate(-993.000000, -320.000000)">
            <g id="配置包" transform="translate(992.000000, 319.000000)">
                <rect id="矩形" x="0" y="0" width="36" height="36"></rect>
                <g id="编组-6" transform="translate(0.050000, 0.147974)" fill="#FFFFFF" fill-rule="nonzero">
                    <path d="M22.0756906,1.68917878 C22.2690608,1.09965245 22.9458564,0.706634886 23.5259669,0.903143666 C26.039779,1.78743317 28.360221,3.06474024 30.2939227,4.93157365 C30.7773481,5.32459121 30.7773481,6.11062633 30.3906077,6.60189828 C29.7138122,7.48618779 29.520442,8.46873169 29.6171271,9.54952997 C29.9071823,11.7111266 31.9375691,13.2831968 34.0646409,12.9884336 C34.7414365,12.8901792 35.321547,13.2831968 35.5149171,13.8727231 C36.0950276,16.5255917 36.0950276,19.1784602 35.5149171,21.8313287 C35.321547,22.420855 34.7414365,22.8138726 34.0646409,22.7156182 C32.5176796,22.5191094 30.9707182,23.3051446 30.1972376,24.680706 C29.4237569,26.0562675 29.520442,27.8248465 30.3906077,29.1021536 C30.7773481,29.5934255 30.7773481,30.2812062 30.2939227,30.7724782 C28.360221,32.6393116 26.039779,34.0148731 23.5259669,34.8009082 C22.9458564,34.9974169 22.2690608,34.6043994 22.0756906,34.0148731 C21.6889503,33.0323292 20.9154696,32.246294 19.9486188,31.8532765 C17.918232,31.0672414 15.6944751,31.9515309 14.8243094,34.0148731 C14.6309392,34.6043994 13.9541436,34.9974169 13.3740331,34.8009082 C10.860221,33.9166187 8.53977901,32.6393116 6.60607735,30.7724782 C6.12265193,30.3794606 6.12265193,29.5934255 6.50939227,29.1021536 C7.18618785,28.217864 7.37955801,27.2353201 7.28287293,26.1545219 C6.99281768,23.9929253 4.96243094,22.420855 2.83535912,22.7156182 C2.15856354,22.8138726 1.57845304,22.420855 1.38508287,21.8313287 C0.804972376,19.1784602 0.804972376,16.5255917 1.38508287,13.8727231 C1.57845304,13.2831968 2.15856354,12.8901792 2.83535912,12.9884336 C3.89889503,13.086688 4.86574586,12.7919248 5.7359116,12.2023985 C7.47624309,10.826837 7.86298343,8.3704773 6.50939227,6.60189828 C6.12265193,6.11062633 6.12265193,5.4228456 6.60607735,4.93157365 C8.53977901,3.06474024 10.860221,1.68917878 13.3740331,0.903143666 C13.9541436,0.706634886 14.6309392,1.09965245 14.8243094,1.68917878 C15.2110497,2.67172268 15.9845304,3.4577578 16.9513812,3.85077536 C18.981768,4.63681048 21.2055249,3.75252097 22.0756906,1.68917878 Z M13.3971,15.3224192 C12.064429,18.1438812 13.2775244,21.6309025 16.0574809,22.9869401 C18.8338789,24.3412419 22.2652059,23.1084566 23.5995851,20.2833783 C24.9223963,17.3709682 23.7308969,13.9806197 20.9392042,12.6188573 C18.1628062,11.2645555 14.7314791,12.4973408 13.3971,15.3224192 Z M20.3116246,13.9475363 C22.3875256,14.960142 23.274185,17.4830842 22.2874604,19.655688 C21.3038064,21.7380347 18.73823,22.6597787 16.6850605,21.6582612 C14.626058,20.6538984 13.7190361,18.0466799 14.7045575,15.9601851 C15.6928786,13.8677627 18.258455,12.9460188 20.3116246,13.9475363 Z" id="形状结合"></path>
                </g>
            </g>
        </g>
    </g>
</svg>