<?xml version="1.0" encoding="UTF-8"?>
<svg width="34px" height="31px" viewBox="0 0 34 31" version="1.1" xmlns="http://www.w3.org/2000/svg" xmlns:xlink="http://www.w3.org/1999/xlink">
    <!-- Generator: Sketch 59.1 (86144) - https://sketch.com -->
    <title>DNS</title>
    <desc>Created with Sketch.</desc>
    <defs>
        <linearGradient x1="49.9850791%" y1="65.1467164%" x2="49.9850791%" y2="0.0167164179%" id="linearGradient-1">
            <stop stop-color="#FFFFFF" offset="0%"></stop>
            <stop stop-color="#FFFFFF" stop-opacity="0.0292" offset="59.22%"></stop>
            <stop stop-color="#FFFFFF" stop-opacity="0" offset="100%"></stop>
        </linearGradient>
    </defs>
    <g id="页面-1" stroke="none" stroke-width="1" fill="none" fill-rule="evenodd">
        <g id="高优先级" transform="translate(-1614.000000, -274.000000)">
            <g id="DNS" transform="translate(1613.000000, 271.000000)">
                <rect id="矩形备份-11" x="0" y="0" width="36" height="36"></rect>
                <g id="编组" transform="translate(1.000000, 2.000000)" fill-rule="nonzero">
                    <path d="M9.95745253,10.9987228 L2.00028398,10.9991313 C4.00680146,5.90782859 8.60671488,2.09112197 14.2016457,1.12386606 C12.1867142,2.76499925 10.6568918,6.40819875 9.95745253,10.9987228 Z M16.6446904,1.59443878 C18.8783199,1.59443878 20.9805125,5.46924565 21.8676098,10.9986409 L11.421767,10.9986659 C12.308862,5.46925734 14.4110575,1.59443878 16.6446904,1.59443878 Z M31.999716,10.9991313 L23.3319283,10.9987228 C22.614077,6.28735775 21.0215491,2.57384845 18.9277084,0.997351883 C24.9137141,1.70225222 29.8900957,5.64621723 31.999716,10.9991313 Z" id="形状结合" fill="#FFFFFF"></path>
                    <path d="M33,16 C33,24.2496706 26.8442789,31.0523896 18.9081241,32.0005301 C21.73277,29.8315715 23.640647,23.6653038 23.7066753,16.3904877 L23.7084452,16 Z M9.57535064,16 C9.57535064,23.2989134 11.426332,29.5450062 14.2081628,31.8679023 C6.70828499,30.5356926 1.00851826,23.9376261 1,16 L1,16 L9.57535064,16 L9.57535064,16 Z M22.276037,16 C22.276037,24.5326007 19.572752,31.3919554 16.6418979,31.3919554 C13.7110439,31.3919554 11.0077589,24.5326007 11.0077589,16 L22.276037,16 Z" id="形状结合" fill="url(#linearGradient-1)"></path>
                    <path d="M34,11 L34,23 L0,23 L0,11 L34,11 Z M5.00555556,12.4497272 C4.88561923,12.4497272 4.77264505,12.4792473 4.67363733,12.5313509 C4.40437885,12.6299287 4.21222222,12.8870513 4.21222222,13.1886204 L4.21222222,20.6710834 C4.21222222,20.9737531 4.40578401,21.2316514 4.6770068,21.3299986 C4.7749204,21.3810479 4.88682665,21.4099766 5.00555556,21.4099766 C9.6993775,21.4099766 12.325,20.1701866 12.325,16.9298519 C12.325,13.6895172 9.6993775,12.4497272 5.00555556,12.4497272 Z M26.8788889,12.4964926 C24.7152939,12.4964926 22.865,13.5373792 22.865,15.0592362 C22.865,16.5779832 24.7077395,17.6177236 26.8656115,17.6219697 L26.8656115,17.6219697 L27.0598218,17.6255719 C28.4402904,17.6778087 29.4666667,18.2898358 29.4666667,18.8098207 C29.4666667,19.3439255 28.3544548,19.9696025 26.8694444,19.9696025 C25.6555951,19.9696025 24.6482695,19.5412022 24.3576679,19.051993 L24.3576679,19.051993 L24.2715514,18.8794304 C24.0972323,18.5801166 23.7220376,18.446991 23.3901351,18.5814558 C23.0280595,18.7281446 22.8546158,19.1377402 23.0027376,19.496313 C23.4780213,20.6468784 25.0701411,21.3725643 26.8694444,21.3725643 C29.0330394,21.3725643 30.8833333,20.3316777 30.8833333,18.8098207 C30.8833333,17.2897147 29.0310834,16.2231089 26.8817925,16.2190237 L26.8817925,16.2190237 L26.6873668,16.2155286 C25.2992669,16.1647843 24.2816667,15.5701189 24.2816667,15.0592362 C24.2816667,14.5251314 25.3938785,13.8994544 26.8788889,13.8994544 C28.0927382,13.8994544 29.1000638,14.3278547 29.3906655,14.8170639 L29.3906655,14.8170639 L29.476782,14.9896265 C29.651101,15.2889403 30.0262957,15.4220659 30.3581983,15.2876011 C30.7202738,15.1409123 30.8937176,14.7313167 30.7455958,14.3727439 C30.270312,13.2221785 28.6781922,12.4964926 26.8788889,12.4964926 Z M20.91,12.4684334 C20.5187983,12.4684334 20.2016667,12.7824971 20.2016667,13.1699143 L20.201,18.787 L14.8316748,12.7170118 L14.8212719,12.7055041 C14.8025554,12.6852752 14.7826566,12.6661369 14.7616839,12.6481964 L14.8316748,12.7170118 C14.8044947,12.6862878 14.7752055,12.6584777 14.7442093,12.633608 C14.6640036,12.5694154 14.569222,12.5220731 14.46555,12.4973135 C14.4535332,12.4945517 14.4415366,12.4920124 14.4294888,12.4897826 C14.4089011,12.4858822 14.3879092,12.4829525 14.3666432,12.480954 C14.3540011,12.4798001 14.3413232,12.4789339 14.3286296,12.4784038 C14.3190047,12.4779951 14.3089714,12.4777864 14.2988889,12.4777864 L14.2607646,12.4787733 C14.2473614,12.4794797 14.2339699,12.4805622 14.2206073,12.4820218 L14.2988889,12.4777864 C14.2439647,12.4777864 14.1905006,12.4839772 14.1391693,12.4956925 C14.1350314,12.4966569 14.1310293,12.4976077 14.1270337,12.4985936 C14.0579253,12.5156044 13.9926064,12.5428204 13.9330214,12.5784845 C13.9241128,12.5837955 13.914964,12.5895539 13.9059178,12.595543 C13.8852595,12.6092435 13.8658776,12.623567 13.847295,12.6388124 L13.8321178,12.6516356 L13.8321178,12.6516356 L13.8162446,12.6658288 C13.8021456,12.6788328 13.7885828,12.6923996 13.7755928,12.7064929 L13.8321178,12.6516356 C13.7988126,12.6805318 13.7688985,12.7118352 13.7424083,12.7450531 C13.7296785,12.7611979 13.7177206,12.7776238 13.7064833,12.7945605 L13.6875125,12.8246431 L13.6875125,12.8246431 C13.6708238,12.8530099 13.6562602,12.8820239 13.6437452,12.912088 C13.6390502,12.9235074 13.6348433,12.9344496 13.6309205,12.9454737 C13.6229813,12.9674533 13.6160241,12.990603 13.6102734,13.0142185 C13.6077854,13.0248833 13.6054602,13.0355154 13.6033855,13.0461893 C13.5991443,13.0674871 13.5959416,13.0894756 13.5937925,13.1117686 C13.5925879,13.1246623 13.5917025,13.1373872 13.5911656,13.1501281 L13.5905556,13.1792673 L13.5905556,13.1792673 L13.5905556,20.6617303 C13.5905556,21.0491475 13.9076872,21.3632112 14.2988889,21.3632112 C14.6900906,21.3632112 15.0072222,21.0491475 15.0072222,20.6617303 L15.007,15.044 L20.3772141,21.1146328 L20.3885321,21.1271276 C20.4018675,21.1414858 20.4157998,21.1552917 20.43029,21.1685069 L20.3772141,21.1146328 C20.4069161,21.1482075 20.4391366,21.1783024 20.4733512,21.2048831 C20.5244003,21.2444517 20.5815858,21.277555 20.6430812,21.3023476 C20.6558595,21.3074489 20.6688174,21.312222 20.6818848,21.3166098 C20.6994275,21.3225944 20.7172933,21.3278421 20.7354382,21.3323962 C20.7515237,21.3363295 20.7678955,21.3398342 20.7843593,21.3427619 C20.8022073,21.3460207 20.8202859,21.3485224 20.8385694,21.3503356 C20.8551866,21.3519573 20.8721997,21.353061 20.889235,21.3535596 C20.8964389,21.3537635 20.9032083,21.3538581 20.91,21.3538581 L20.9361484,21.3534024 C20.9542275,21.3527517 20.9722949,21.351418 20.990308,21.3493985 L20.91,21.3538581 C20.9585459,21.3538581 21.0059511,21.3490218 21.0517512,21.339809 C21.0642598,21.337272 21.0766377,21.3344344 21.0889512,21.3312612 C21.1149962,21.3245839 21.1408908,21.3162908 21.1660872,21.3066113 C21.1801045,21.3012376 21.1941411,21.2953309 21.2080215,21.2889504 C21.231869,21.2779558 21.2547848,21.2658291 21.2769071,21.2525366 C21.2896342,21.244914 21.3025736,21.2365669 21.3152983,21.227753 C21.3302737,21.2173794 21.3446094,21.2066221 21.3585047,21.1953521 L21.3767711,21.180009 L21.3767711,21.180009 L21.3965327,21.1622024 C21.410224,21.1493836 21.4233993,21.1360298 21.4360243,21.1221748 L21.3767711,21.180009 C21.4100763,21.1511127 21.4399904,21.1198094 21.4664806,21.0865915 C21.4844546,21.0638589 21.5009778,21.0402905 21.5160221,21.0157348 C21.5302902,20.9925351 21.5427994,20.969095 21.5538888,20.945139 C21.5584343,20.9353336 21.562686,20.9255936 21.5667182,20.9157423 C21.5704148,20.9065954 21.5739785,20.8972962 21.5773371,20.8879375 C21.5854106,20.8657321 21.5923978,20.8426833 21.5981884,20.8191701 C21.6014176,20.8055609 21.6042118,20.7925659 21.606632,20.7795113 C21.6102923,20.7603405 21.6131337,20.7402352 21.6150964,20.719876 C21.6162959,20.7070349 21.6171791,20.6943628 21.6177166,20.6816748 L21.6183333,20.6523772 L21.6183333,20.6523772 L21.6183333,13.1699143 C21.6183333,12.7824971 21.3012017,12.4684334 20.91,12.4684334 Z M10.9083333,16.9298519 C10.9083333,18.9956577 9.20983792,19.9078694 5.62889399,19.999315 L5.62889399,13.8603888 C9.20983792,13.9518344 10.9083333,14.8640462 10.9083333,16.9298519 Z" id="形状结合" fill="#FFFFFF"></path>
                </g>
            </g>
        </g>
    </g>
</svg>