<?xml version="1.0" encoding="UTF-8"?>
<svg width="26px" height="36px" viewBox="0 0 26 36" version="1.1" xmlns="http://www.w3.org/2000/svg" xmlns:xlink="http://www.w3.org/1999/xlink">
    <!-- Generator: Sketch 59.1 (86144) - https://sketch.com -->
    <title>防火墙</title>
    <desc>Created with Sketch.</desc>
    <defs>
        <linearGradient x1="73.0178421%" y1="55.2224742%" x2="0%" y2="55.2224742%" id="linearGradient-1">
            <stop stop-color="#FFFFFF" offset="0%"></stop>
            <stop stop-color="#FFFFFF" stop-opacity="0" offset="100%"></stop>
        </linearGradient>
        <linearGradient x1="100%" y1="55.2224742%" x2="0%" y2="55.2224742%" id="linearGradient-2">
            <stop stop-color="#FFFFFF" offset="26.9821579%"></stop>
            <stop stop-color="#FFFFFF" stop-opacity="0" offset="100%"></stop>
        </linearGradient>
        <linearGradient x1="34.1390947%" y1="50%" x2="108.173574%" y2="50%" id="linearGradient-3">
            <stop stop-color="#FFFFFF" offset="0%"></stop>
            <stop stop-color="#FFFFFF" stop-opacity="0" offset="100%"></stop>
        </linearGradient>
    </defs>
    <g id="页面-1" stroke="none" stroke-width="1" fill="none" fill-rule="evenodd">
        <g id="高优先级" transform="translate(-1415.000000, -271.000000)">
            <g id="防火墙" transform="translate(1410.000000, 271.000000)">
                <rect id="矩形备份-9" x="0" y="0" width="36" height="36"></rect>
                <g id="编组" transform="translate(5.000000, 0.000000)" fill-rule="nonzero">
                    <path d="M12.4637838,0.36 C12.8724324,0.243243243 13.3005405,0.243243243 13.6897297,0.36 L13.6897297,0.36 L24.7037838,3.87243243 C25.3264865,4.07675676 25.7448649,4.60216216 25.7254054,5.19567568 L25.7254054,5.19567568 L25.7254054,24.732973 C25.7254054,25.1221622 25.5405405,25.4821622 25.2291892,25.7545946 L25.2291892,25.7545946 L14.3124324,34.8616216 C13.6313514,35.4259459 12.5124324,35.4259459 11.8216216,34.8616216 L11.8216216,34.8616216 L0.904864865,25.7545946 C0.583783784,25.4918919 0.408648649,25.1221622 0.408648649,24.732973 L0.408648649,24.732973 L0.408648649,5.19567568 C0.408648649,4.60216216 0.827027027,4.07675676 1.44972973,3.87243243 L1.44972973,3.87243243 Z M12.6124892,2.68395766 L12.4284816,2.73449362 L3.22415724,5.672872 C2.49848639,5.9013197 2.01027027,6.52733875 2.01027027,7.25837838 L2.01027027,23.5945946 C2.01027027,24.0752645 2.23152317,24.5292144 2.61973787,24.8342403 L11.734721,32.4433016 C12.4856357,33.0647541 13.697067,33.0647541 14.4463514,32.4446566 L23.5744681,24.8249232 C23.9511795,24.5292144 24.1724324,24.0752645 24.1724324,23.5945946 L24.1724324,7.25837838 C24.1724324,6.54233064 23.6819825,5.91847833 22.9672777,5.67574839 L13.7542211,2.73449362 C13.3762629,2.61570221 12.9869314,2.598732 12.6124892,2.68395766 Z" id="形状结合" fill="#FFFFFF"></path>
                    <path d="M13.4522489,3.68780767 L13.6212703,3.74153953 L13.6216216,12.6486486 L3.01027027,12.6485395 L3.01027027,7.25837838 C3.01027027,6.97634913 3.20435182,6.72748649 3.52635915,6.62611381 L12.7344507,3.68653307 C12.9658644,3.61166393 13.2099733,3.61166393 13.4522489,3.68780767 Z" id="形状结合" fill="url(#linearGradient-1)"></path>
                    <path d="M13.6216216,22.3783784 L13.622919,31.7933027 C13.2368622,31.981421 12.6974608,31.9420211 12.373919,31.6742623 L3.24906274,24.0572389 C3.09031719,23.9322316 3.01027027,23.7679974 3.01027027,23.5945946 L3.01027027,22.3776254 L13.6216216,22.3783784 Z" id="形状结合" fill="url(#linearGradient-2)"></path>
                    <path d="M23.1716216,12.6476254 L23.1716216,22.3776254 L13.6216216,22.3783784 L13.6216216,12.6486486 L23.1716216,12.6476254 Z" id="形状结合" fill="url(#linearGradient-3)"></path>
                </g>
            </g>
        </g>
    </g>
</svg>