<?xml version="1.0" encoding="UTF-8"?>
<svg width="34px" height="34px" viewBox="0 0 34 34" version="1.1" xmlns="http://www.w3.org/2000/svg" xmlns:xlink="http://www.w3.org/1999/xlink">
    <!-- Generator: Sketch 59.1 (86144) - https://sketch.com -->
    <title>IP段</title>
    <desc>Created with Sketch.</desc>
    <defs>
        <linearGradient x1="49.9832474%" y1="100.017391%" x2="49.9832474%" y2="50%" id="linearGradient-1">
            <stop stop-color="#FFFFFF" offset="0%"></stop>
            <stop stop-color="#FFFFFF" stop-opacity="0" offset="100%"></stop>
        </linearGradient>
    </defs>
    <g id="页面-1" stroke="none" stroke-width="1" fill="none" fill-rule="evenodd">
        <g id="高优先级" transform="translate(-1204.000000, -272.000000)">
            <g id="IP段" transform="translate(1203.000000, 271.000000)">
                <rect id="矩形备份-7" x="0" y="0" width="36" height="36"></rect>
                <g id="编组" transform="translate(1.000000, 1.000000)">
                    <path d="M31.0714087,0 C32.6868575,0 34,0.908627594 34,2.02548234 L34,23.9745177 C34,25.0819075 32.6963045,26 31.0714087,26 L2.92859128,26 C1.31314254,26 0,25.0913724 0,23.9745177 L0,2.02548234 C0,0.899162723 1.32258961,0 2.92859128,0 L31.0714087,0 Z M24.5718255,10.326174 C22.9562314,10.326174 21.605446,11.4813183 21.605446,12.966873 C21.605446,13.7087332 21.942309,14.3681948 22.4807902,14.8425472 C21.7758536,15.349983 21.3220339,16.1144002 21.3220339,16.989443 C21.3220339,18.5709157 22.804375,19.7910448 24.5718255,19.7910448 C26.339276,19.7910448 27.8216171,18.5709157 27.8216171,16.989443 C27.8216171,16.1141911 27.3675804,15.3496176 26.6624586,14.8413016 C27.201139,14.3685921 27.5382051,13.7089567 27.5382051,12.966873 C27.5382051,11.4813183 26.1874196,10.326174 24.5718255,10.326174 Z M9.09752709,5.68838733 C8.7062167,5.68838733 8.38899694,6.00620486 8.38899694,6.39825264 L8.38899694,18.7025846 C8.38899694,19.0946324 8.7062167,19.4124499 9.09752709,19.4124499 C9.48883749,19.4124499 9.80605724,19.0946324 9.80605724,18.7025846 L9.80715623,14.632596 C14.1449425,14.5123404 16.5512642,13.2456335 16.5512642,10.1652712 C16.5512642,6.99262617 13.9913381,5.74297764 9.40619758,5.69014445 L9.09752709,5.68838733 L9.09752709,5.68838733 Z M5.05418172,5.68838733 C4.66287132,5.68838733 4.34565157,6.00620486 4.34565157,6.39825264 L4.34565157,18.7025846 C4.34565157,19.0946324 4.66287132,19.4124499 5.05418172,19.4124499 C5.44549211,19.4124499 5.76271186,19.0946324 5.76271186,18.7025846 L5.76271186,6.39825264 C5.76271186,6.00620486 5.44549211,5.68838733 5.05418172,5.68838733 Z M21.9434368,6.160347 L14.801453,18.464679 C14.6703084,18.690617 14.7468092,18.98029 14.9723223,19.1116816 C15.1978354,19.2430733 15.4869635,19.1664283 15.618108,18.9404903 L22.7600919,6.63615828 C22.8912364,6.41022024 22.8147356,6.1205473 22.5892225,5.98915564 C22.3637095,5.85776399 22.0745814,5.93440897 21.9434368,6.160347 Z M24.5718255,15.6075719 C25.6113749,15.6075719 26.4045568,16.2604475 26.4045568,16.989443 C26.4045568,17.7184386 25.6113749,18.3713142 24.5718255,18.3713142 C23.5322761,18.3713142 22.7390942,17.7184386 22.7390942,16.989443 C22.7390942,16.2604475 23.5322761,15.6075719 24.5718255,15.6075719 Z M24.5718255,11.7459046 C25.450183,11.7459046 26.1211448,12.3196876 26.1211448,12.966873 C26.1211448,13.6140583 25.450183,14.1878413 24.5718255,14.1878413 C23.693468,14.1878413 23.0225063,13.6140583 23.0225063,12.966873 C23.0225063,12.3196876 23.693468,11.7459046 24.5718255,11.7459046 Z M15.1342039,10.1652712 C15.1342039,12.1964704 13.415896,13.1109073 9.8071332,13.212771 L9.80726157,7.117817 C13.4112978,7.21999647 15.1342039,8.13585847 15.1342039,10.1652712 Z" id="形状结合" fill="#FFFFFF" fill-rule="nonzero"></path>
                    <polygon id="路径" fill="url(#linearGradient-1)" fill-rule="nonzero" points="14.6346649 19 18.3653351 19 24 34 9 34"></polygon>
                    <path d="M7.79434783,32 L27.2056522,32 C27.643913,32 28,32.4444444 28,33 L28,33 C28,33.5555556 27.643913,34 27.2056522,34 L7.79434783,34 C7.35608696,34 7,33.5555556 7,33 L7,33 C7,32.4444444 7.35608696,32 7.79434783,32 Z" id="路径" fill="#FFFFFF" fill-rule="nonzero"></path>
                    <g transform="translate(4.000000, 6.000000)"></g>
                    <g transform="translate(20.000000, 11.000000)"></g>
                </g>
            </g>
        </g>
    </g>
</svg>