<?xml version="1.0" encoding="UTF-8"?>
<svg width="36px" height="35px" viewBox="0 0 36 35" version="1.1" xmlns="http://www.w3.org/2000/svg" xmlns:xlink="http://www.w3.org/1999/xlink">
    <!-- Generator: Sketch 59.1 (86144) - https://sketch.com -->
    <title>OrientDB</title>
    <desc>Created with Sketch.</desc>
    <defs>
        <linearGradient x1="50%" y1="100%" x2="62.5%" y2="-12.0352265%" id="linearGradient-1">
            <stop stop-color="#FFFFFF" offset="0%"></stop>
            <stop stop-color="#FFFFFF" stop-opacity="0.680425044" offset="18.0400127%"></stop>
            <stop stop-color="#FFFFFF" stop-opacity="0.279228584" offset="53.3203125%"></stop>
            <stop stop-color="#FFFFFF" stop-opacity="0" offset="100%"></stop>
        </linearGradient>
    </defs>
    <g id="页面-1" stroke="none" stroke-width="1" fill="none" fill-rule="evenodd">
        <g id="中优先级" transform="translate(-2053.000000, -272.000000)">
            <g id="OrientDB" transform="translate(2053.000000, 271.000000)">
                <polygon id="矩形备份-21" points="0 0 36 0 36 36 24.484679 36 0 36"></polygon>
                <g id="编组-47" transform="translate(0.000000, 1.000000)">
                    <path d="M19.8461538,0 C19.2568336,4.05584833 19.2568336,7.13277141 19.8461538,9.23076923 C18.8456973,9.0236545 18.159126,8.97486742 17.5384615,8.97486742 C16.9177971,8.97486742 15.8961339,9.1052943 15.2307692,9.23076923 C15.8479209,4.90083112 17.3863825,1.82390804 19.8461538,0 Z" id="路径-2" fill="#FFFFFF"></path>
                    <path d="M29.1193307,3.45872462 C28.5300104,7.51457295 28.5300104,10.591496 29.1193307,12.6894939 C28.1188741,12.4823791 27.4323028,12.433592 26.8116384,12.433592 C26.1909739,12.433592 25.1693107,12.5640189 24.503946,12.6894939 C25.1210977,8.35955574 26.6595593,5.28263266 29.1193307,3.45872462 Z" id="路径-2" fill="url(#linearGradient-1)" fill-rule="nonzero" transform="translate(26.811638, 8.074109) rotate(-315.000000) translate(-26.811638, -8.074109) "></path>
                    <path d="M33.2307692,12.4615385 C32.641449,16.5173868 32.641449,19.5943099 33.2307692,21.6923077 C32.2303127,21.485193 31.5437414,21.4364059 30.9230769,21.4364059 C30.3024125,21.4364059 29.2807492,21.5668328 28.6153846,21.6923077 C29.2325363,17.3623696 30.7709978,14.2854465 33.2307692,12.4615385 Z" id="路径-2" fill="#FFFFFF" transform="translate(30.923077, 17.076923) rotate(-270.000000) translate(-30.923077, -17.076923) "></path>
                    <path d="M29.7720446,21.7347153 C29.1827244,25.7905636 29.1827244,28.8674867 29.7720446,30.9654845 C28.7715881,30.7583698 28.0850167,30.7095827 27.4643523,30.7095827 C26.8436879,30.7095827 25.8220246,30.8400096 25.15666,30.9654845 C25.7738117,26.6355464 27.3122732,23.5586233 29.7720446,21.7347153 Z" id="路径-2" fill="url(#linearGradient-1)" fill-rule="nonzero" transform="translate(27.464352, 26.350100) rotate(-225.000000) translate(-27.464352, -26.350100) "></path>
                    <path d="M20.7692308,25.706993 C20.1799105,29.7628413 20.1799105,32.8397644 20.7692308,34.9377622 C19.7687742,34.7306475 19.0822029,34.6818604 18.4615385,34.6818604 C17.840874,34.6818604 16.8192108,34.8122873 16.1538462,34.9377622 C16.7709978,30.6078241 18.3094594,27.530901 20.7692308,25.706993 Z" id="路径-2" fill="#FFFFFF" transform="translate(18.461538, 30.322378) rotate(-180.000000) translate(-18.461538, -30.322378) "></path>
                    <path d="M11.496054,22.2482684 C10.9067337,26.3041167 10.9067337,29.3810398 11.496054,31.4790376 C10.4955974,31.2719229 9.8090261,31.2231358 9.18836165,31.2231358 C8.5676972,31.2231358 7.54603397,31.3535627 6.88066934,31.4790376 C7.49782103,27.1490995 9.03628257,24.0721764 11.496054,22.2482684 Z" id="路径-2" fill="url(#linearGradient-1)" fill-rule="nonzero" transform="translate(9.188362, 26.863653) rotate(-135.000000) translate(-9.188362, -26.863653) "></path>
                    <path d="M7.38461538,13.2454545 C6.79529516,17.3013029 6.79529516,20.3782259 7.38461538,22.4762238 C6.38415886,22.269109 5.69758752,22.2203219 5.07692308,22.2203219 C4.45625863,22.2203219 3.4345954,22.3507488 2.76923077,22.4762238 C3.38638246,18.1462856 4.924844,15.0693626 7.38461538,13.2454545 Z" id="路径-2" fill="#FFFFFF" transform="translate(5.076923, 17.860839) rotate(-90.000000) translate(-5.076923, -17.860839) "></path>
                    <path d="M10.84334,3.97227772 C10.2540198,8.02812605 10.2540198,11.1050491 10.84334,13.2030469 C9.84288348,12.9959322 9.15631214,12.9471451 8.5356477,12.9471451 C7.91498325,12.9471451 6.89332002,13.077572 6.22795539,13.2030469 C6.84510708,8.87310883 8.38356862,5.79618576 10.84334,3.97227772 Z" id="路径-2" fill="url(#linearGradient-1)" fill-rule="nonzero" transform="translate(8.535648, 8.587662) rotate(-45.000000) translate(-8.535648, -8.587662) "></path>
                    <circle id="椭圆形" stroke="#FFFFFF" stroke-width="1.5" cx="18" cy="17.5384615" r="5.53846154"></circle>
                </g>
            </g>
        </g>
    </g>
</svg>