<?xml version="1.0" encoding="UTF-8"?>
<svg width="34px" height="32px" viewBox="0 0 34 32" version="1.1" xmlns="http://www.w3.org/2000/svg" xmlns:xlink="http://www.w3.org/1999/xlink">
    <!-- Generator: Sketch 59.1 (86144) - https://sketch.com -->
    <title>程序包</title>
    <desc>Created with Sketch.</desc>
    <defs>
        <linearGradient x1="50.0912803%" y1="16.8518717%" x2="50.0912803%" y2="80.2276768%" id="linearGradient-1">
            <stop stop-color="#FFFFFF" offset="0%"></stop>
            <stop stop-color="#FFFFFF" stop-opacity="0" offset="100%"></stop>
        </linearGradient>
    </defs>
    <g id="页面-1" stroke="none" stroke-width="1" fill="none" fill-rule="evenodd">
        <g id="模型图标库" transform="translate(-370.000000, -320.000000)">
            <g id="程序包" transform="translate(369.000000, 318.000000)">
                <rect id="矩形" x="0" y="0" width="36" height="36"></rect>
                <g id="编组-24" transform="translate(1.400000, 2.700000)" fill-rule="nonzero">
                    <path d="M31.5,5.8 C32.6,5.8 33.5,6.7 33.5,7.8 L33.5,28.9 C33.5,30 32.6,30.9 31.5,30.9 L2.1,30.9 C1,30.9 0.1,30 0.1,28.9 L0.1,5.8 L31.5,5.8 Z M12.5037838,13.3376216 L7.40378377,17.8376216 L7.37026105,17.8690428 C7.3590968,17.8802028 7.34821001,17.8917836 7.33762161,17.9037838 C7.31165873,17.9332084 7.28842134,17.9640991 7.26789015,17.9961471 C7.23757693,18.0434273 7.21322055,18.0932161 7.19463375,18.1447166 C7.18835754,18.1619348 7.18293516,18.1788441 7.17813077,18.195881 C7.16313931,18.2492376 7.154012,18.3045752 7.15105384,18.3602513 L7.15000925,18.3944588 L7.15000925,18.3944588 L7.15000925,18.4055412 C7.15008802,18.4168465 7.15042099,18.4281533 7.15100875,18.4394523 C7.15226606,18.4625642 7.15451427,18.485323 7.15779366,18.5079483 C7.16476713,18.5571186 7.17701763,18.606636 7.19440007,18.6548124 C7.21322055,18.7067839 7.23757693,18.7565727 7.26763858,18.8036203 C7.28842134,18.8359009 7.31165873,18.8667916 7.33762161,18.8962162 L7.3690428,18.929739 C7.38020283,18.9409032 7.39178359,18.95179 7.40378377,18.9623784 L12.5037838,23.4623784 C12.8143768,23.736431 13.2883257,23.7068092 13.5623784,23.3962162 C13.836431,23.0856232 13.8068092,22.6116743 13.4962162,22.3376216 L9.034,18.4 L13.4962162,14.4623784 C13.8068092,14.1883257 13.836431,13.7143768 13.5623784,13.4037838 C13.2883257,13.0931908 12.8143768,13.063569 12.5037838,13.3376216 Z M26.3489912,18.3605477 L26.3434643,18.3011178 C26.3387367,18.2654577 26.3314536,18.2301027 26.3216338,18.1953513 C26.3170648,18.1788441 26.3116425,18.1619348 26.3055999,18.1451876 C26.2867795,18.0932161 26.2624231,18.0434273 26.2323614,17.9963797 C26.2115787,17.9640991 26.1883413,17.9332084 26.1623784,17.9037838 L26.1309572,17.870261 C26.1197972,17.8590968 26.1082164,17.84821 26.0962162,17.8376216 L20.9962162,13.3376216 C20.6856232,13.063569 20.2116743,13.0931908 19.9376216,13.4037838 C19.663569,13.7143768 19.6931908,14.1883257 20.0037838,14.4623784 L24.466,18.4 L20.0037838,22.3376216 C19.6931908,22.6116743 19.663569,23.0856232 19.9376216,23.3962162 C20.2116743,23.7068092 20.6856232,23.736431 20.9962162,23.4623784 L26.0962162,18.9623784 L26.129739,18.9309572 C26.1409032,18.9197972 26.15179,18.9082164 26.1623784,18.8962162 C26.1883413,18.8667916 26.2115787,18.8359009 26.2321098,18.8038529 C26.2624231,18.7565727 26.2867795,18.7067839 26.3053662,18.6552834 C26.3229824,18.606636 26.3352329,18.5571186 26.3424026,18.5070795 C26.3454857,18.485323 26.3477339,18.4625642 26.3489462,18.4397487 L26.3499907,18.4055412 L26.3499907,18.4055412 L26.3499907,18.3944588 C26.349912,18.3831535 26.349579,18.3718467 26.3489912,18.3605477 Z" id="形状结合" fill="#FFFFFF"></path>
                    <path d="M15.1,5.9 L13.4,-5.5067062e-14 L2,-5.5067062e-14 C0.9,-5.5067062e-14 1.97175609e-13,0.9 1.97175609e-13,2 L1.97175609e-13,10.1" id="路径" fill="url(#linearGradient-1)"></path>
                </g>
            </g>
        </g>
    </g>
</svg>