<?xml version="1.0" encoding="UTF-8"?>
<svg width="35px" height="33px" viewBox="0 0 35 33" version="1.1" xmlns="http://www.w3.org/2000/svg" xmlns:xlink="http://www.w3.org/1999/xlink">
    <!-- Generator: Sketch 59.1 (86144) - https://sketch.com -->
    <title>RFID</title>
    <desc>Created with Sketch.</desc>
    <defs>
        <linearGradient x1="85.2178793%" y1="81.8466307%" x2="13.9610685%" y2="13.176496%" id="linearGradient-1">
            <stop stop-color="#FFFFFF" stop-opacity="0" offset="0%"></stop>
            <stop stop-color="#FFFFFF" stop-opacity="0.766311233" offset="18.9516618%"></stop>
            <stop stop-color="#FFFFFF" offset="100%"></stop>
        </linearGradient>
        <linearGradient x1="86.8162722%" y1="88.4973455%" x2="13.9610685%" y2="13.176496%" id="linearGradient-2">
            <stop stop-color="#FFFFFF" stop-opacity="0" offset="0%"></stop>
            <stop stop-color="#FFFFFF" stop-opacity="0.766311233" offset="18.9516618%"></stop>
            <stop stop-color="#FFFFFF" offset="100%"></stop>
        </linearGradient>
    </defs>
    <g id="页面-1" stroke="none" stroke-width="1" fill="none" fill-rule="evenodd">
        <g id="低优先级" transform="translate(-1122.000000, -273.000000)">
            <g id="RFID" transform="translate(1122.000000, 271.000000)">
                <polygon id="矩形备份-24" points="0 0 36 0 36 36 24.484679 36 0 36"></polygon>
                <g id="编组-13" transform="translate(1.000000, 3.000000)">
                    <path d="M15.1621622,-0.75 C23.9502067,-0.75 31.0743243,6.37411766 31.0743243,15.1621622 C31.0743243,23.9502067 23.9502067,31.0743243 15.1621622,31.0743243 C6.37411766,31.0743243 -0.75,23.9502067 -0.75,15.1621622 C-0.75,6.37411766 6.37411766,-0.75 15.1621622,-0.75 Z M15.1621622,0.75 C7.20254479,0.75 0.75,7.20254479 0.75,15.1621622 C0.75,23.1217795 7.20254479,29.5743243 15.1621622,29.5743243 C23.1217795,29.5743243 29.5743243,23.1217795 29.5743243,15.1621622 C29.5743243,7.20254479 23.1217795,0.75 15.1621622,0.75 Z" id="椭圆形" fill="url(#linearGradient-1)" fill-rule="nonzero"></path>
                    <path d="M14.7027027,4.76351351 C20.1919653,4.76351351 24.6418919,9.21344009 24.6418919,14.7027027 C24.6418919,20.1919653 20.1919653,24.6418919 14.7027027,24.6418919 C9.21344009,24.6418919 4.76351351,20.1919653 4.76351351,14.7027027 C4.76351351,9.21344009 9.21344009,4.76351351 14.7027027,4.76351351 Z M14.7027027,6.26351351 C10.0418672,6.26351351 6.26351351,10.0418672 6.26351351,14.7027027 C6.26351351,19.3635382 10.0418672,23.1418919 14.7027027,23.1418919 C19.3635382,23.1418919 23.1418919,19.3635382 23.1418919,14.7027027 C23.1418919,10.0418672 19.3635382,6.26351351 14.7027027,6.26351351 Z" id="椭圆形" fill="url(#linearGradient-2)" fill-rule="nonzero"></path>
                    <circle id="椭圆形" fill="#FFFFFF" cx="14.7027027" cy="14.7027027" r="1.37837838"></circle>
                    <path d="M33.9,18.3784262 C33.9552285,18.3784262 34,18.4231977 34,18.4784262 L34,31.1432432 C34,31.1984717 33.9552285,31.2432432 33.9,31.2432432 L18.4784256,31.2432432 C18.4231971,31.2432432 18.3784256,31.1984717 18.3784256,31.1432432 L18.3783784,22.0323784 L21.9833784,18.3783784 L33.9,18.3784262 Z M26.1891892,23.4324324 C25.4279318,23.4324324 24.8108108,24.0495535 24.8108108,24.8108108 C24.8108108,25.5720682 25.4279318,26.1891892 26.1891892,26.1891892 C26.9504465,26.1891892 27.5675676,25.5720682 27.5675676,24.8108108 C27.5675676,24.0495535 26.9504465,23.4324324 26.1891892,23.4324324 Z" id="形状结合" fill="#FFFFFF"></path>
                </g>
            </g>
        </g>
    </g>
</svg>