<?xml version="1.0" encoding="UTF-8"?>
<svg width="31px" height="36px" viewBox="0 0 31 36" version="1.1" xmlns="http://www.w3.org/2000/svg" xmlns:xlink="http://www.w3.org/1999/xlink">
    <!-- Generator: Sketch 59.1 (86144) - https://sketch.com -->
    <title>SSL</title>
    <desc>Created with Sketch.</desc>
    <defs>
        <linearGradient x1="50.0019243%" y1="99.9689178%" x2="50.0019243%" y2="-0.0079118395%" id="linearGradient-1">
            <stop stop-color="#FFFFFF" offset="42.31%"></stop>
            <stop stop-color="#FFFFFF" stop-opacity="0" offset="100%"></stop>
        </linearGradient>
    </defs>
    <g id="页面-1" stroke="none" stroke-width="1" fill="none" fill-rule="evenodd">
        <g id="中优先级" transform="translate(-1232.000000, -271.000000)">
            <g id="SSL" transform="translate(1229.000000, 271.000000)">
                <polygon id="矩形备份-12" points="0 0 36 0 36 36 24.484679 36 0 36"></polygon>
                <g id="编组-21" transform="translate(3.000000, 0.000000)">
                    <path d="M14.368147,0.274653857 C14.9787194,-0.0915512857 15.727163,-0.0915512857 16.3377354,0.274653857 L16.3377354,0.274653857 L29.7210882,8.25996044 C30.3316606,8.62616558 30.7058824,9.29754168 30.7058824,10.0197796 L30.7058824,10.0197796 L30.7058824,25.9802204 C30.7058824,26.7024583 30.3316606,27.3738344 29.7210882,27.7400396 L29.7210882,27.7400396 L16.3377354,35.7253461 C15.727163,36.0915513 14.9787194,36.0915513 14.368147,35.7253461 L14.368147,35.7253461 L0.984794174,27.7400396 C0.374221786,27.3738344 -1.77635684e-15,26.7024583 -1.77635684e-15,25.9802204 L-1.77635684e-15,25.9802204 L-1.77635684e-15,10.0197796 C-1.77635684e-15,9.29754168 0.374221786,8.62616558 0.984794174,8.25996044 L0.984794174,8.25996044 Z M15.6444548,12.5628709 C14.1359516,12.5628709 12.9061753,13.8146852 12.9061753,15.3602713 C12.9061753,16.8628397 14.0684485,18.0877617 15.5191665,18.1547832 L15.5191665,18.1547832 L15.7124345,18.1644121 C16.3450171,18.2312397 16.845352,18.7862979 16.845352,19.4402943 C16.845352,20.1310723 16.2826268,20.7007629 15.5842637,20.7007629 C15.0440385,20.7007629 14.5726165,20.3482655 14.3998598,19.848279 L14.3998598,19.848279 L14.3331101,19.6212779 C14.2015262,19.2709221 13.8362516,19.0662058 13.4726272,19.1562265 C13.075946,19.2544308 12.8314437,19.6662085 12.9265161,20.0759577 C13.2167941,21.3270174 14.3138454,22.2266177 15.5842637,22.2266177 C17.0918819,22.2266177 18.3225432,20.980723 18.3225432,19.4402943 C18.3225432,17.940147 17.1562939,16.7008509 15.7064124,16.6346027 L15.7064124,16.6346027 L15.5153514,16.6252035 C14.8787271,16.5596182 14.3833665,16.0144919 14.3833665,15.3602713 C14.3833665,14.6624359 14.9469767,14.0887256 15.6444548,14.0887256 C16.2287266,14.0887256 16.7335094,14.5049219 16.8654808,15.0768148 C16.9600634,15.4866849 17.3584063,15.73975 17.7552046,15.6420515 C18.1520029,15.544353 18.396997,15.1328874 18.3024144,14.7230173 C18.0126096,13.4671593 16.9158453,12.5628709 15.6444548,12.5628709 Z M8.75089562,12.5628709 C7.24239234,12.5628709 6.01261607,13.8146852 6.01261607,15.3602713 C6.01261607,16.8628397 7.17488933,18.0877617 8.62560733,18.1547832 L8.62560733,18.1547832 L8.81887524,18.1644121 C9.45145787,18.2312397 9.95179276,18.7862979 9.95179276,19.4402943 C9.95179276,20.1310723 9.38906762,20.7007629 8.69070447,20.7007629 C8.1504793,20.7007629 7.67905729,20.3482655 7.50630053,19.848279 L7.50630053,19.848279 L7.43955085,19.6212779 C7.307967,19.2709221 6.94269241,19.0662058 6.57906797,19.1562265 C6.18238677,19.2544308 5.93788448,19.6662085 6.03295684,20.0759577 C6.32323489,21.3270174 7.42028622,22.2266177 8.69070447,22.2266177 C10.1983227,22.2266177 11.428984,20.980723 11.428984,19.4402943 C11.428984,17.940147 10.2627347,16.7008509 8.81285313,16.6346027 L8.81285313,16.6346027 L8.62179216,16.6252035 C7.98516784,16.5596182 7.48980733,16.0144919 7.48980733,15.3602713 C7.48980733,14.6624359 8.05341751,14.0887256 8.75089562,14.0887256 C9.3351674,14.0887256 9.8399502,14.5049219 9.97192159,15.0768148 C10.0665042,15.4866849 10.4648471,15.73975 10.8616454,15.6420515 C11.2584436,15.544353 11.5034378,15.1328874 11.4088552,14.7230173 C11.1190503,13.4671593 10.022286,12.5628709 8.75089562,12.5628709 Z M21.0307272,12.5628709 C20.6228121,12.5628709 20.2921316,12.9044451 20.2921316,13.3257982 L20.2921316,21.4636903 C20.2921316,21.8850435 20.6228121,22.2266177 21.0307272,22.2266177 L24.9699039,22.2266177 C25.377819,22.2266177 25.7084996,21.8850435 25.7084996,21.4636903 C25.7084996,21.0423372 25.377819,20.7007629 24.9699039,20.7007629 L21.769,20.7 L21.7693229,13.3257982 C21.7693229,12.9044451 21.4386423,12.5628709 21.0307272,12.5628709 Z" id="形状结合" fill="url(#linearGradient-1)" fill-rule="nonzero"></path>
                    <g id="编组-20" transform="translate(20.117647, 11.647059)"></g>
                </g>
            </g>
        </g>
    </g>
</svg>