<?xml version="1.0" encoding="UTF-8"?>
<svg width="86px" height="80px" viewBox="0 0 86 80" version="1.1" xmlns="http://www.w3.org/2000/svg" xmlns:xlink="http://www.w3.org/1999/xlink">
    <title>插图/空表格  白色背景</title>
    <defs>
        <linearGradient x1="5.71824875%" y1="4.31113823%" x2="83.0501817%" y2="88.9150948%" id="linearGradient-1">
            <stop stop-color="#D4D8E4" offset="0%"></stop>
            <stop stop-color="#A9B0C4" offset="100%"></stop>
        </linearGradient>
        <linearGradient x1="0%" y1="11.0800956%" x2="80.5475944%" y2="107.703999%" id="linearGradient-2">
            <stop stop-color="#C2C7DA" offset="0%"></stop>
            <stop stop-color="#8F96B3" offset="100%"></stop>
        </linearGradient>
        <path d="M34,36 L42,36 C44.209139,36 46,37.790861 46,40 L46,48 C46,50.209139 44.209139,52 42,52 L34,52 C31.790861,52 30,50.209139 30,48 L30,40 C30,37.790861 31.790861,36 34,36 Z" id="path-3"></path>
        <filter x="-37.5%" y="-31.3%" width="187.5%" height="187.5%" filterUnits="objectBoundingBox" id="filter-4">
            <feOffset dx="1" dy="2" in="SourceAlpha" result="shadowOffsetOuter1"></feOffset>
            <feGaussianBlur stdDeviation="2" in="shadowOffsetOuter1" result="shadowBlurOuter1"></feGaussianBlur>
            <feComposite in="shadowBlurOuter1" in2="SourceAlpha" operator="out" result="shadowBlurOuter1"></feComposite>
            <feColorMatrix values="0 0 0 0 0   0 0 0 0 0   0 0 0 0 0  0 0 0 0.22 0" type="matrix" in="shadowBlurOuter1"></feColorMatrix>
        </filter>
        <linearGradient x1="41.822656%" y1="24.7954546%" x2="8.8126561%" y2="86.4269134%" id="linearGradient-5">
            <stop stop-color="#CCD0DD" offset="0%"></stop>
            <stop stop-color="#9DA3B9" offset="100%"></stop>
        </linearGradient>
        <path d="M59,19 C61.209139,19 63,20.790861 63,23 L63,30.3137085 L51.6862915,19 L59,19 Z" id="path-6"></path>
        <filter x="-61.9%" y="-79.5%" width="223.7%" height="223.7%" filterUnits="objectBoundingBox" id="filter-7">
            <feOffset dx="0" dy="-2" in="SourceAlpha" result="shadowOffsetOuter1"></feOffset>
            <feGaussianBlur stdDeviation="2" in="shadowOffsetOuter1" result="shadowBlurOuter1"></feGaussianBlur>
            <feColorMatrix values="0 0 0 0 0   0 0 0 0 0   0 0 0 0 0  0 0 0 0.25 0" type="matrix" in="shadowBlurOuter1"></feColorMatrix>
        </filter>
    </defs>
    <g id="1.0" stroke="none" stroke-width="1" fill="none" fill-rule="evenodd">
        <g id="空状态-1440*900" transform="translate(-249.000000, -406.000000)">
            <g id="主机用途分布" transform="translate(75.000000, 316.000000)">
                <g id="插图/空表格--白色背景" transform="translate(174.000000, 90.000000)">
                    <path d="M61.1079803,51.8 L15.8920197,51.8 C15.1682096,51.8 14.4725207,52.0802929 13.9508821,52.582084 L5.6,60.6152284 L5.6,60.6152284 L5.6,74.2 C5.6,77.2927946 8.1072054,79.8 11.2,79.8 L65.8,79.8 C68.8927946,79.8 71.4,77.2927946 71.4,74.2 L71.4,60.6152284 L71.4,60.6152284 L63.0491179,52.582084 C62.5274793,52.0802929 61.8317904,51.8 61.1079803,51.8 Z" id="Fill-3" fill="#A6AAC3"></path>
                    <path d="M51.6862915,19 L63,30.3137085 L63,66.2 C63,67.7463973 61.7463973,69 60.2,69 L16.8,69 C15.2536027,69 14,67.7463973 14,66.2 L14,25 C14,21.6862915 16.6862915,19 20,19 L51.6862915,19 Z" id="形状结合" fill="url(#linearGradient-1)"></path>
                    <g id="矩形备份">
                        <use fill="black" fill-opacity="1" filter="url(#filter-4)" xlink:href="#path-3"></use>
                        <path stroke="#FFFFFF" stroke-width="1" d="M42,36.5 C42.9664983,36.5 43.8414983,36.8917508 44.4748737,37.5251263 C45.1082492,38.1585017 45.5,39.0335017 45.5,40 L45.5,40 L45.5,48 C45.5,48.9664983 45.1082492,49.8414983 44.4748737,50.4748737 C43.8414983,51.1082492 42.9664983,51.5 42,51.5 L42,51.5 L34,51.5 C33.0335017,51.5 32.1585017,51.1082492 31.5251263,50.4748737 C30.8917508,49.8414983 30.5,48.9664983 30.5,48 L30.5,48 L30.5,40 C30.5,39.0335017 30.8917508,38.1585017 31.5251263,37.5251263 C32.1585017,36.8917508 33.0335017,36.5 34,36.5 L34,36.5 Z" stroke-linejoin="square" fill="url(#linearGradient-2)" fill-rule="evenodd"></path>
                    </g>
                    <g id="形状结合" transform="translate(57.343146, 24.656854) scale(-1, -1) translate(-57.343146, -24.656854) ">
                        <use fill="black" fill-opacity="1" filter="url(#filter-7)" xlink:href="#path-6"></use>
                        <use fill="url(#linearGradient-5)" fill-rule="evenodd" xlink:href="#path-6"></use>
                    </g>
                    <path d="M82.6,42 C82.9865993,42 83.3,42.3134007 83.3,42.7 L83.3,44.099 L84.7,44.1 C85.0865993,44.1 85.4,44.4134007 85.4,44.8 C85.4,45.1865993 85.0865993,45.5 84.7,45.5 L83.3,45.499 L83.3,46.9 C83.3,47.2865993 82.9865993,47.6 82.6,47.6 C82.2134007,47.6 81.9,47.2865993 81.9,46.9 L81.9,45.499 L80.5,45.5 C80.1134007,45.5 79.8,45.1865993 79.8,44.8 C79.8,44.4134007 80.1134007,44.1 80.5,44.1 L81.9,44.099 L81.9,42.7 C81.9,42.3134007 82.2134007,42 82.6,42 Z" id="形状结合" fill="#D6D8E4" opacity="0.299999982"></path>
                    <path d="M2.1,30.8 C2.38994949,30.8 2.625,31.0350505 2.625,31.325 L2.624,32.199 L3.5,32.2 C3.88659932,32.2 4.2,32.5134007 4.2,32.9 C4.2,33.2865993 3.88659932,33.6 3.5,33.6 L2.624,33.6 L2.625,34.475 C2.625,34.7649495 2.38994949,35 2.1,35 C1.81005051,35 1.575,34.7649495 1.575,34.475 L1.574,33.6 L0.7,33.6 C0.313400675,33.6 -6.36775399e-17,33.2865993 0,32.9 C-1.58367065e-16,32.5134007 0.313400675,32.2 0.7,32.2 L1.574,32.199 L1.575,31.325 C1.575,31.0350505 1.81005051,30.8 2.1,30.8 Z" id="形状结合备份-2" fill="#D6D8E4" opacity="0.299999982"></path>
                    <path d="M8.4,79.7997811 L8.22943181,79.794671 C6.76246286,79.70652 5.6,78.4889044 5.6,76.9997811 L5.6,76.9997811 L5.6,60.2000358 L17.9926139,60.2000358 L18.1678845,60.1938729 C21.9701741,60.1539259 26.11861,66.1365721 37.7783218,66.3841902 L37.7783218,66.3841902 L37.8,66.3816738 L37.8,66.382149 L37.8216782,66.3844092 C48.6777121,66.6016764 52.8306632,60.4815198 57.3795775,60.2088531 L57.6073861,60.200149 L71.4,60.200149 L71.4,77 C71.4,78.4891233 70.2375371,79.7067389 68.7705682,79.79489 L68.6,79.8 L37.8,79.799149 L8.4,79.7997811 Z" id="形状结合" fill="#D6D8E4"></path>
                    <path d="M21,3.35581256 C21,3.35581256 24.5182832,2.5088335 25.5163465,0 C26.9540853,2.05742772 27.6953782,2.94711864 29.4,3.33822532 C27.0789532,4.02971087 26.0707773,4.80634098 25.2767234,7 C24.3652761,4.41551346 23.5356085,4.08107677 21,3.35581256" id="Fill-1" fill="#D6D8E4" opacity="0.5"></path>
                    <path d="M63,10.1251127 C63,10.1251127 72.3820885,7.9229671 75.0435907,1.4 C78.8775608,6.74931206 80.8543418,9.06250847 85.4,10.0793858 C79.2105417,11.8772483 76.5220728,13.8964865 74.4045957,19.6 C71.9740696,12.880335 69.7616226,12.0107996 63,10.1251127" id="Fill-1备份" fill="#D6D8E4" opacity="0.799999952"></path>
                </g>
            </g>
        </g>
    </g>
</svg>