  <svg
    width="86"
    height="80"
    viewBox="0 0 86 80"
    xmlns="http://www.w3.org/2000/svg"
  >
    <g fill="none" fillRule="evenodd">
      <path
        d="M15.892 52.3a2.3 2.3 0 0 0-1.594.642L6.1 60.828V74.2c0 1.408.57 2.683 1.494 3.606A5.084 5.084 0 0 0 11.2 79.3h54.6c1.408 0 2.683-.57 3.606-1.494A5.084 5.084 0 0 0 70.9 74.2V60.828l-8.198-7.886c-.517-.498-1.331-.642-46.81-.642z"
        stroke="#D9D9D9"
        fill="#FDFDFD"
      />
      <path
        d="M16.8 19.6h43.4a2.8 2.8 0 0 1 2.8 2.8v44.8a2.8 2.8 0 0 1-2.8 2.8H16.8a2.8 2.8 0 0 1-2.8-2.8V22.4a2.8 2.8 0 0 1 2.8-2.8z"
        stroke="#EEE"
        fill="#F7F7F7"
      />
      <path
        d="M23.8 26.6h29.4a2.8 2.8 0 0 1 2.8 2.8v9.8a2.8 2.8 0 0 1-2.8 2.8H23.8a2.8 2.8 0 0 1-2.8-2.8v-9.8a2.8 2.8 0 0 1 2.8-2.8zM23.8 53.2h22.4a1.4 1.4 0 0 1 0 2.8H23.8a1.4 1.4 0 0 1 0-2.8zM23.8 46.2h29.4a1.4 1.4 0 0 1 0 2.8H23.8a1.4 1.4 0 0 1 0-2.8z"
        fill="#E5E5E5"
      />
      <path
        d="M82.6 42a.7.7 0 0 1 .7.7v1.399l1.4.001a.7.7 0 0 1 0 1.4l-1.4-.001V46.9a.7.7 0 0 1-1.4 0v-1.401l-1.4.001a.7.7 0 0 1 0-1.4l1.4-.001V42.7a.7.7 0 0 1 .7-.7z"
        fill="#CDCDCD"
      />
      <path
        d="M2.1 30.8c.29 0 .525.235.525.525l-.001.874.876.001a.7.7 0 0 1 0 1.4h-.876l.001.875a.525.525 0 1 1-1.05 0l-.001-.875H.7a.7.7 0 0 1 0-1.4l.874-.001.001-.874c0-.29.235-.525.525-.525z"
        fill="#E5E5E5"
      />
      <path
        d="M17.998 60.7H6.1l.005 16.455c.038.573.287 1.089.669 1.471.389.39.919.632 1.64.674H37.8l30.955-.005a2.293 2.293 0 0 0 1.52-.72c.388-.411.625-.965.625-1.575V60.7l-13.505.009c-1.637.103-3.215 1.012-5.103 2.07-3.338 1.874-7.58 4.243-14.524 4.105l-.537-.015c-7.07-.261-11.352-2.607-14.53-4.352-1.837-1.009-3.277-1.834-4.703-1.817z"
        stroke="#D9D9D9"
        fill="#F7F5F5"
      />
      <path
        d="M21 3.356S24.518 2.509 25.516 0c1.438 2.057 2.18 2.947 3.884 3.338-2.321.692-3.33 1.468-4.123 3.662-.912-2.584-1.741-2.919-4.277-3.644"
        fill="#F5F5F5"
      />
      <path
        d="M63 10.125S72.382 7.923 75.044 1.4c3.834 5.35 5.81 7.663 10.356 8.68-6.19 1.797-8.878 3.816-10.995 9.52-2.43-6.72-4.643-7.59-11.405-9.475"
        fill="#E5E5E5"
      />
    </g>
  </svg>
