  <svg
    width="86"
    height="80"
    viewBox="0 0 86 80"
    xmlns="http://www.w3.org/2000/svg"
  >
    <g fill="none" fillRule="evenodd">
      <path
        d="M61.108 51.8H15.892a2.8 2.8 0 0 0-1.941.782L5.6 60.615V74.2a5.6 5.6 0 0 0 5.6 5.6h54.6a5.6 5.6 0 0 0 5.6-5.6V60.615l-8.35-8.033a2.8 2.8 0 0 0-1.942-.782z"
        fill="#C4C4C4"
      />
      <path
        d="M16.8 19.6h43.4a2.8 2.8 0 0 1 2.8 2.8v44.8a2.8 2.8 0 0 1-2.8 2.8H16.8a2.8 2.8 0 0 1-2.8-2.8V22.4a2.8 2.8 0 0 1 2.8-2.8z"
        fill="#F7F7F7"
      />
      <path
        d="M23.8 26.6h29.4a2.8 2.8 0 0 1 2.8 2.8v9.8a2.8 2.8 0 0 1-2.8 2.8H23.8a2.8 2.8 0 0 1-2.8-2.8v-9.8a2.8 2.8 0 0 1 2.8-2.8zM23.8 53.2h22.4a1.4 1.4 0 0 1 0 2.8H23.8a1.4 1.4 0 0 1 0-2.8zM23.8 46.2h29.4a1.4 1.4 0 0 1 0 2.8H23.8a1.4 1.4 0 0 1 0-2.8z"
        fill="#E5E5E5"
      />
      <path
        d="M82.6 42a.7.7 0 0 1 .7.7v1.399l1.4.001a.7.7 0 0 1 0 1.4l-1.4-.001V46.9a.7.7 0 0 1-1.4 0v-1.401l-1.4.001a.7.7 0 0 1 0-1.4l1.4-.001V42.7a.7.7 0 0 1 .7-.7z"
        fill="#CDCDCD"
      />
      <path
        d="M2.1 30.8c.29 0 .525.235.525.525l-.001.874.876.001a.7.7 0 0 1 0 1.4h-.876l.001.875a.525.525 0 1 1-1.05 0l-.001-.875H.7a.7.7 0 0 1 0-1.4l.874-.001.001-.874c0-.29.235-.525.525-.525zM8.4 79.8l-.17-.005A2.8 2.8 0 0 1 5.6 77V60.2h12.393l.175-.006c3.802-.04 7.95 5.943 19.61 6.19l.022-.002.022.002c10.856.218 15.009-5.902 19.558-6.175l.227-.009H71.4V77a2.8 2.8 0 0 1-2.63 2.795l-.17.005H8.4z"
        fill="#E5E5E5"
      />
      <path
        d="M21 3.356S24.518 2.509 25.516 0c1.438 2.057 2.18 2.947 3.884 3.338-2.321.692-3.33 1.468-4.123 3.662-.912-2.584-1.741-2.919-4.277-3.644"
        fill="#F5F5F5"
      />
      <path
        d="M63 10.125S72.382 7.923 75.044 1.4c3.834 5.35 5.81 7.663 10.356 8.68-6.19 1.797-8.878 3.816-10.995 9.52-2.43-6.72-4.643-7.59-11.405-9.475"
        fill="#E5E5E5"
      />
    </g>
  </svg>
