<?xml version="1.0" encoding="UTF-8"?>
<svg width="18px" height="20px" viewBox="0 0 18 20" version="1.1" xmlns="http://www.w3.org/2000/svg" xmlns:xlink="http://www.w3.org/1999/xlink">
    <!-- Generator: Sketch 61.2 (89653) - https://sketch.com -->
    <title>94004B73-1254-47E4-8FF7-DEC10017CD9D</title>
    <desc>Created with Sketch.</desc>
    <g id="终版" stroke="none" stroke-width="1" fill="none" fill-rule="evenodd">
        <g id="首页" transform="translate(-38.000000, -77.000000)">
            <g id="页面目录导航/蓝色/展开" transform="translate(0.000000, -0.000000)">
                <g transform="translate(0.000000, 0.000000)" id="左侧菜单">
                    <g>
                        <g>
                            <g>
                                <g>
                                    <g>
                                        <g id="左侧菜单/Row/一级标题/默认态" transform="translate(12.000000, 63.300674)">
                                            <g id="资产盘点" transform="translate(24.000000, 13.427416)">
                                                <g id="编组-13">
                                                    <rect id="矩形" x="0" y="0" width="22" height="21.1002247"></rect>
                                                    <g id="编组-2" transform="translate(2.000000, 0.959101)" fill="#FFFFFF" fill-rule="nonzero">
                                                        <path d="M12.950748,10.4250122 L12.950748,14.2669543 L16.9565217,14.2669543 C16.9399003,16.4828463 15.0949173,18.2842548 12.792844,18.3480215 C10.5323244,18.3480215 8.69565217,16.5864671 8.69565217,14.4184002 C8.76213805,12.2025083 10.6403639,10.4409539 12.950748,10.4250122 L12.950748,10.4250122 Z M13.5673667,10.0080117 C14.5961343,10.0233929 15.5843991,10.4309938 16.2972459,11.1308368 C17.0181933,11.8383704 17.4070188,12.7843121 17.3908177,13.7610161 L17.3908177,13.7610161 L13.4863614,13.7610161 L13.4782609,10.0080117 Z" id="形状结合"></path>
                                                        <path d="M15.2173913,0 C15.9377627,0 16.5217391,0.560092434 16.5217391,1.25100147 L16.5217391,1.25100147 L16.5217391,7.6697046 C16.5217391,7.90000761 16.3270803,8.08670509 16.0869565,8.08670509 C15.8468327,8.08670509 15.6521739,7.90000761 15.6521739,7.6697046 L15.6521739,7.6697046 L15.6521739,1.25100147 C15.6521739,1.02069846 15.4575151,0.834000977 15.2173913,0.834000977 L15.2173913,0.834000977 L1.30434783,0.834000977 C1.06422402,0.834000977 0.869565217,1.02069846 0.869565217,1.25100147 L0.869565217,1.25100147 L0.869565217,17.931021 C0.869565217,18.161324 1.06422402,18.3480215 1.30434783,18.3480215 L1.30434783,18.3480215 L6.78377624,18.3480215 C7.02390004,18.3480215 7.21855885,18.534719 7.21855885,18.765022 C7.21855885,18.995325 7.02390004,19.1820225 6.78377624,19.1820225 L6.78377624,19.1820225 L1.30434783,19.1820225 C0.583976413,19.1820225 0,18.62193 0,17.931021 L0,17.931021 L0,1.25100147 C0,0.560092434 0.583976413,0 1.30434783,0 L1.30434783,0 Z M8.44214936,6.76413583 C8.69344171,6.76413583 8.89715441,6.98799346 8.89715441,7.26413583 C8.89715441,7.54027821 8.69344171,7.76413583 8.44214936,7.76413583 L8.44214936,7.76413583 L4.21710241,7.76413583 C3.96581006,7.76413583 3.76209736,7.54027821 3.76209736,7.26413583 C3.76209736,6.98799346 3.96581006,6.76413583 4.21710241,6.76413583 L4.21710241,6.76413583 Z M12.31109,3.70936481 C12.5556871,3.70936481 12.7539723,3.93322244 12.7539723,4.20936481 C12.7539723,4.48550719 12.5556871,4.70936481 12.31109,4.70936481 L12.31109,4.70936481 L4.19685452,4.70936481 C3.9522574,4.70936481 3.75397227,4.48550719 3.75397227,4.20936481 C3.75397227,3.93322244 3.9522574,3.70936481 4.19685452,3.70936481 L4.19685452,3.70936481 Z" id="形状结合"></path>
                                                    </g>
                                                </g>
                                            </g>
                                        </g>
                                    </g>
                                </g>
                            </g>
                        </g>
                    </g>
                </g>
            </g>
        </g>
    </g>
</svg>