<?xml version="1.0" encoding="UTF-8"?>
<svg width="14px" height="15px" viewBox="0 0 14 15" version="1.1" xmlns="http://www.w3.org/2000/svg" xmlns:xlink="http://www.w3.org/1999/xlink">
    <!-- Generator: Sketch 61.2 (89653) - https://sketch.com -->
    <title>67BD3F54-0573-4AEB-8BA8-E4EB0C9B2FA5</title>
    <desc>Created with Sketch.</desc>
    <g id="终版" stroke="none" stroke-width="1" fill="none" fill-rule="evenodd">
        <g id="首页" transform="translate(-46.000000, -134.000000)">
            <g id="页面目录导航/蓝色/展开" transform="translate(0.000000, -0.000000)">
                <g transform="translate(0.000000, 0.000000)" id="左侧菜单">
                    <g>
                        <g>
                            <g>
                                <g>
                                    <g>
                                        <g id="左侧菜单/Row/二级标题/悬浮+选中态备份-2" transform="translate(12.000000, 122.764944)">
                                            <g id="设备盘点" transform="translate(33.000000, 11.509213)">
                                                <rect id="矩形" fill="#D8D8D8" opacity="0" x="0" y="0" width="16" height="15.345618"></rect>
                                                <g id="编组-26" transform="translate(1.000000, 0.959101)">
                                                    <path d="M6.63250364,9.45301848 C5.66921628,9.45301848 4.88831759,8.70405766 4.88831759,7.78016767 C4.88831759,6.85627769 5.66921628,6.10731687 6.63250364,6.10731687 C7.595791,6.10731687 8.37668969,6.85627769 8.37668969,7.78016767 C8.37668969,8.70405766 7.595791,9.45301848 6.63250364,9.45301848 Z" id="路径" fill="#FFFFFF" fill-rule="nonzero"></path>
                                                    <path d="M13,2.87730337 C13.5522847,2.87730337 14,3.32501862 14,3.87730337 L14,12.4274157 C14,12.9797005 13.5522847,13.4274157 13,13.4274157 L1,13.4274157 C0.44771525,13.4274157 6.76353751e-17,12.9797005 0,12.4274157 L0,3.87730337 C-6.76353751e-17,3.32501862 0.44771525,2.87730337 1,2.87730337 L13,2.87730337 Z M4.65846958,5.73283899 C3.56377326,6.70552107 3.41478555,8.31519763 4.31371305,9.45761957 C5.21264055,10.6000415 6.86746639,10.9040927 8.14296875,10.161192 L9.94296875,11.887574 C10.1710961,12.0988951 10.5337155,12.0958728 10.7579793,11.8807812 C10.982243,11.6656896 10.9853942,11.3179008 10.7650618,11.0991037 L8.99645712,9.40394818 L8.99645712,9.40283294 C9.86606104,8.23971975 9.67617753,6.63400788 8.55706798,5.68722662 C7.43795843,4.74044537 5.75316591,4.76015691 4.65846958,5.73283899 Z" id="形状结合" fill="#FFFFFF"></path>
                                                    <path d="M0.55602775,3.61996461 L1.93394786,0.586435101 C2.09616381,0.229312182 2.45218432,1.37256699e-13 2.84442251,1.36296467e-13 L11.1567828,1.36296467e-13 C11.5484037,1.37142231e-13 11.9039829,0.228599351 12.0665511,0.584883568 L13.4343473,3.58254272 L13.4343473,3.58254272" id="路径" stroke="#FFFFFF" stroke-linecap="round"></path>
                                                </g>
                                            </g>
                                        </g>
                                    </g>
                                </g>
                            </g>
                        </g>
                    </g>
                </g>
            </g>
        </g>
    </g>
</svg>