<?xml version="1.0" encoding="UTF-8"?>
<svg width="36px" height="36px" viewBox="0 0 36 36" version="1.1" xmlns="http://www.w3.org/2000/svg" xmlns:xlink="http://www.w3.org/1999/xlink">
    <!-- Generator: Sketch 61.2 (89653) - https://sketch.com -->
    <title>切片</title>
    <desc>Created with Sketch.</desc>
    <defs>
        <linearGradient x1="50%" y1="0%" x2="50%" y2="100%" id="linearGradient-1">
            <stop stop-color="#FFFFFF" offset="0%"></stop>
            <stop stop-color="#FFFFFF" stop-opacity="0.8" offset="100%"></stop>
        </linearGradient>
        <path d="M18.4835844,1.5139876 C18.6483581,1.60504676 18.7840807,1.74076932 18.8751399,1.90554303 L35.9473093,32.7980402 C36.2144418,33.2814227 36.0391365,33.8898354 35.5557539,34.1569678 C35.4076749,34.238801 35.2412543,34.2817263 35.0720678,34.2817263 L0.927728847,34.2817263 C0.375444098,34.2817263 -0.0722711526,33.834011 -0.0722711526,33.2817263 C-0.0722711526,33.1125398 -0.0293458374,32.9461192 0.052487312,32.7980402 L17.1246568,1.90554303 C17.3917893,1.42216048 18.0002019,1.24685514 18.4835844,1.5139876 Z M17.9998983,25.7128835 C17.0853468,25.7128835 16.3439563,26.454274 16.3439563,27.3688255 C16.3439563,28.283377 17.0853468,29.0247675 17.9998983,29.0247675 C18.9144498,29.0247675 19.6558403,28.283377 19.6558403,27.3688255 C19.6558403,26.454274 18.9144498,25.7128835 17.9998983,25.7128835 Z M17.9998983,12.4653474 C17.0853468,12.4653474 16.3439563,12.9596077 16.3439563,13.5693087 L16.3439563,13.5693087 L16.3439563,23.1369737 L16.355097,23.2657189 C16.4507527,23.8147616 17.1506719,24.240935 17.9998983,24.240935 C18.9144498,24.240935 19.6558403,23.7466747 19.6558403,23.1369737 L19.6558403,23.1369737 L19.6558403,13.5693087 L19.6446996,13.4405635 C19.5490439,12.8915208 18.8491247,12.4653474 17.9998983,12.4653474 Z" id="path-2"></path>
        <filter x="-19.6%" y="-15.6%" width="139.3%" height="143.0%" filterUnits="objectBoundingBox" id="filter-3">
            <feOffset dx="0" dy="2" in="SourceAlpha" result="shadowOffsetOuter1"></feOffset>
            <feGaussianBlur stdDeviation="2" in="shadowOffsetOuter1" result="shadowBlurOuter1"></feGaussianBlur>
            <feColorMatrix values="0 0 0 0 0   0 0 0 0 0   0 0 0 0 0  0 0 0 0.06 0" type="matrix" in="shadowBlurOuter1"></feColorMatrix>
        </filter>
    </defs>
    <g id="终版" stroke="none" stroke-width="1" fill="none" fill-rule="evenodd">
        <g id="异常设备数">
            <rect id="矩形" fill="#D8D8D8" opacity="0" x="0" y="0" width="36" height="36"></rect>
            <g id="形状结合">
                <use fill="black" fill-opacity="1" filter="url(#filter-3)" xlink:href="#path-2"></use>
                <use fill="url(#linearGradient-1)" fill-rule="evenodd" xlink:href="#path-2"></use>
            </g>
        </g>
    </g>
</svg>