<?xml version="1.0" encoding="UTF-8"?>
<svg width="14px" height="13px" viewBox="0 0 14 13" version="1.1" xmlns="http://www.w3.org/2000/svg" xmlns:xlink="http://www.w3.org/1999/xlink">
    <!-- Generator: Sketch 61.2 (89653) - https://sketch.com -->
    <title>DCFC5C23-1965-4543-BBD4-5455B7B53FA5</title>
    <desc>Created with Sketch.</desc>
    <defs>
        <polygon id="path-1" points="0.00028 0.000478947368 13.937 0.000478947368 13.937 12.9395158 0.00028 12.9395158"></polygon>
    </defs>
    <g id="终版" stroke="none" stroke-width="1" fill="none" fill-rule="evenodd">
        <g id="首页" transform="translate(-46.000000, -181.000000)">
            <g id="资源拓扑" transform="translate(45.000000, 180.000000)">
                <rect id="矩形" fill="#D8D8D8" opacity="0" x="0" y="0" width="16" height="16"></rect>
                <g id="架构拓扑" opacity="0.85" transform="translate(1.000000, 1.000000)">
                    <mask id="mask-2" fill="white">
                        <use xlink:href="#path-1"></use>
                    </mask>
                    <g id="Clip-2"></g>
                    <path d="M12.96638,8.51205789 L11.65528,8.51205789 L11.65528,7.68279474 C11.65528,6.98695263 11.09738,6.41700526 10.41138,6.41700526 L7.31178,6.41700526 L7.31178,4.42732105 L8.35198,4.42732105 C8.88818,4.42732105 9.32288,4.00242632 9.32288,3.47832105 L9.32288,0.948794737 C9.32288,0.424689474 8.88818,0.000478947368 8.35198,0.000478947368 L5.76408,0.000478947368 C5.22788,0.000478947368 4.79318,0.424689474 4.79318,0.948794737 L4.79318,3.47832105 C4.79318,4.00242632 5.22788,4.42732105 5.76408,4.42732105 L6.80778,4.42732105 L6.80778,6.41700526 L3.30918,6.41700526 C2.62388,6.41700526 2.06598,6.98695263 2.06598,7.68279474 L2.06598,8.51205789 L0.97048,8.51205789 C0.43498,8.51205789 0.00028,8.93695263 0.00028,9.46105789 L0.00028,11.9905842 C0.00028,12.5146895 0.43498,12.9395842 0.97048,12.9395842 L3.55908,12.9395842 C4.09458,12.9395842 4.52928,12.5146895 4.52928,11.9905842 L4.52928,9.46105789 C4.52928,8.93695263 4.09458,8.51205789 3.55908,8.51205789 L2.68128,8.51205789 L2.68128,7.68279474 C2.68128,7.31879474 2.96268,7.01842632 3.30918,7.01842632 L10.41138,7.01842632 C10.75788,7.01842632 11.03928,7.31879474 11.03928,7.68279474 L11.03928,8.51205789 L10.37848,8.51205789 C9.84228,8.51205789 9.40758,8.93695263 9.40758,9.46105789 L9.40758,11.9905842 C9.40758,12.5146895 9.84228,12.9395842 10.37848,12.9395842 L12.96638,12.9395842 C13.50258,12.9395842 13.93728,12.5146895 13.93728,11.9905842 L13.93728,9.46105789 C13.93728,8.93695263 13.50258,8.51205789 12.96638,8.51205789" id="Fill-1" fill="#FFFFFF" mask="url(#mask-2)"></path>
                </g>
            </g>
        </g>
    </g>
</svg>