<?xml version="1.0" encoding="UTF-8"?>
<svg width="42px" height="42px" viewBox="0 0 42 42" version="1.1" xmlns="http://www.w3.org/2000/svg" xmlns:xlink="http://www.w3.org/1999/xlink">
    <!-- Generator: Sketch 61.2 (89653) - https://sketch.com -->
    <title>61677898-F439-4795-BFCF-C98735F1B7FA</title>
    <desc>Created with Sketch.</desc>
    <defs>
        <linearGradient x1="50%" y1="0%" x2="50%" y2="100%" id="linearGradient-1">
            <stop stop-color="#FFFFFF" offset="0%"></stop>
            <stop stop-color="#FFFFFF" stop-opacity="0.8" offset="100%"></stop>
        </linearGradient>
        <path d="M16.6923077,19.3076923 L16.6923077,35 L1,35 L1,19.3076923 L16.6923077,19.3076923 Z M35,19.3076923 L35,35 L19.3076923,35 L19.3076923,19.3076923 L35,19.3076923 Z M16.6923077,1 L16.6923077,16.6923077 L1,16.6923077 L1,1 L16.6923077,1 Z M35,1 L35,16.6923077 L19.3076923,16.6923077 L19.3076923,1 L35,1 Z" id="path-2"></path>
        <filter x="-20.6%" y="-14.7%" width="141.2%" height="141.2%" filterUnits="objectBoundingBox" id="filter-3">
            <feOffset dx="0" dy="2" in="SourceAlpha" result="shadowOffsetOuter1"></feOffset>
            <feGaussianBlur stdDeviation="2" in="shadowOffsetOuter1" result="shadowBlurOuter1"></feGaussianBlur>
            <feColorMatrix values="0 0 0 0 0   0 0 0 0 0   0 0 0 0 0  0 0 0 0.06 0" type="matrix" in="shadowBlurOuter1"></feColorMatrix>
        </filter>
    </defs>
    <g id="终版" stroke="none" stroke-width="1" fill="none" fill-rule="evenodd">
        <g id="首页" transform="translate(-550.000000, -247.000000)">
            <g id="1备份-12" transform="translate(264.000000, 186.000000)">
                <g id="icon/代码项目" transform="translate(269.000000, 42.000000)">
                    <g id="模型总数" transform="translate(20.000000, 20.000000)">
                        <g id="形状结合">
                            <use fill="black" fill-opacity="1" filter="url(#filter-3)" xlink:href="#path-2"></use>
                            <use fill="url(#linearGradient-1)" fill-rule="evenodd" xlink:href="#path-2"></use>
                        </g>
                        <rect id="矩形" fill="#D8D8D8" opacity="0" x="0" y="0" width="36" height="36"></rect>
                    </g>
                </g>
            </g>
        </g>
    </g>
</svg>