<?xml version="1.0" encoding="UTF-8"?>
<svg width="80px" height="80px" viewBox="0 0 80 80" version="1.1" xmlns="http://www.w3.org/2000/svg" xmlns:xlink="http://www.w3.org/1999/xlink">
    <title>5B0545DB-ACE2-4BCB-B9F5-DED0D889B1F4</title>
    <g id="页面-1" stroke="none" stroke-width="1" fill="none" fill-rule="evenodd">
        <g id="制品管理" transform="translate(13.000000, 14.000000)">
            <path d="M39.9523,0.0002 L13.1563,0.0002 C11.9433,0.0002 10.9503,0.9922 10.9503,2.2062 L10.9503,23.7852 C10.9503,24.9982 11.9433,25.9912 13.1563,25.9912 L39.9523,25.9912 C41.1653,25.9912 42.1583,24.9982 42.1583,23.7852 L42.1583,2.2062 C42.1583,0.9922 41.1653,0.0002 39.9523,0.0002" id="Fill-1" fill="#E6EAF3"></path>
            <path d="M22.1998,6.4553 L30.9088,6.4553 C31.5078,6.4553 31.9978,6.9443 31.9978,7.5443 C31.9978,8.1423 31.5078,8.6323 30.9088,8.6323 L22.1998,8.6323 C21.6008,8.6323 21.1108,8.1423 21.1108,7.5443 C21.1108,6.9443 21.6008,6.4553 22.1998,6.4553" id="Fill-3" fill="#FEFEFC"></path>
            <path d="M32.6266,21.7756 L2.4816,21.7756 C1.1166,21.7756 0.0006,22.8926 0.0006,24.2566 L0.0006,48.5336 C0.0006,49.8986 1.1166,51.0156 2.4816,51.0156 L32.6266,51.0156 C33.9916,51.0156 35.1086,49.8986 35.1086,48.5336 L35.1086,24.2566 C35.1086,22.8926 33.9916,21.7756 32.6266,21.7756" id="Fill-5" fill="#D7E1ED"></path>
            <path d="M12.6554,29.0373 L22.4534,29.0373 C23.1264,29.0373 23.6774,29.5893 23.6774,30.2623 C23.6774,30.9353 23.1264,31.4863 22.4534,31.4863 L12.6554,31.4863 C11.9824,31.4863 11.4304,30.9353 11.4304,30.2623 C11.4304,29.5893 11.9824,29.0373 12.6554,29.0373" id="Fill-7" fill="#FEFEFC"></path>
            <path d="M52.067,21.7756 L21.922,21.7756 C20.557,21.7756 19.44,22.8926 19.44,24.2566 L19.44,48.5336 C19.44,49.8986 20.557,51.0156 21.922,51.0156 L52.067,51.0156 C53.432,51.0156 54.548,49.8986 54.548,48.5336 L54.548,24.2566 C54.548,22.8926 53.432,21.7756 52.067,21.7756" id="Fill-9" fill="#0071EB"></path>
            <path d="M32.0953,29.0373 L41.8933,29.0373 C42.5673,29.0373 43.1173,29.5893 43.1173,30.2623 C43.1173,30.9353 42.5673,31.4863 41.8933,31.4863 L32.0953,31.4863 C31.4223,31.4863 30.8703,30.9353 30.8703,30.2623 C30.8703,29.5893 31.4223,29.0373 32.0953,29.0373" id="Fill-11" fill="#FEFEFC"></path>
        </g>
    </g>
</svg>