<?xml version="1.0" encoding="UTF-8"?>
<svg width="80px" height="80px" viewBox="0 0 80 80" version="1.1" xmlns="http://www.w3.org/2000/svg" xmlns:xlink="http://www.w3.org/1999/xlink">
    <title>880EB4A3-2B65-45B4-A99F-982EB4186094</title>
    <defs>
        <polygon id="path-1" points="0.096 0.1352 6.959 0.1352 6.959 7 0.096 7"></polygon>
        <polygon id="path-3" points="0.096 0.656 6.959 0.656 6.959 7.5208 0.096 7.5208"></polygon>
    </defs>
    <g id="页面-1" stroke="none" stroke-width="1" fill="none" fill-rule="evenodd">
        <g id="编组" transform="translate(12.000000, 10.000000)">
            <polygon id="Fill-1" fill="#E6EAF3" points="26.455 12.297 28.6 12.297 28.6 3.717 26.455 3.717"></polygon>
            <polygon id="Fill-2" fill="#E6EAF3" points="26.455 56.627 28.6 56.627 28.6 48.047 26.455 48.047"></polygon>
            <g transform="translate(0.000000, 0.344000)">
                <path d="M52.626,30.9003 L46.028,30.9003 L46.028,28.7553 L52.626,28.7553 C52.782,28.7553 52.91,28.6283 52.91,28.4713 L52.91,18.3143 C52.91,18.1583 52.782,18.0303 52.626,18.0303 L44.955,18.0303 L44.955,15.8853 L52.626,15.8853 C53.965,15.8853 55.055,16.9753 55.055,18.3143 L55.055,28.4713 C55.055,29.8103 53.965,30.9003 52.626,30.9003" id="Fill-3" fill="#E6EAF3"></path>
                <path d="M9.8613,45.2001 L2.4283,45.2001 C1.0903,45.2001 0.0003,44.1101 0.0003,42.7711 L0.0003,32.6141 C0.0003,31.2751 1.0903,30.1851 2.4283,30.1851 L10.7843,30.1851 L10.7843,32.3301 L2.4283,32.3301 C2.2723,32.3301 2.1443,32.4581 2.1443,32.6141 L2.1443,42.7711 C2.1443,42.9281 2.2723,43.0551 2.4283,43.0551 L9.8613,43.0551 L9.8613,45.2001 Z" id="Fill-5" fill="#E6EAF3"></path>
                <path d="M13.9424,19.1034 C12.3634,19.1034 11.0824,17.8224 11.0824,16.2434 C11.0824,14.6634 12.3634,13.3824 13.9424,13.3824 C15.5214,13.3824 16.8024,14.6634 16.8024,16.2434 C16.8024,17.8224 15.5214,19.1034 13.9424,19.1034 M43.9724,11.2384 L13.2274,11.2384 C10.4744,11.2384 8.2224,13.4904 8.2224,16.2434 C8.2224,18.9964 10.4744,21.2484 13.2274,21.2484 L43.9724,21.2484 C45.5464,21.2484 46.8324,19.9604 46.8324,18.3874 L46.8324,14.0974 C46.8324,12.5254 45.5464,11.2384 43.9724,11.2384" id="Fill-7" fill="#E6EAF3"></path>
                <path d="M13.9424,46.2733 C12.3634,46.2733 11.0824,44.9923 11.0824,43.4133 C11.0824,41.8343 12.3634,40.5523 13.9424,40.5523 C15.5214,40.5523 16.8024,41.8343 16.8024,43.4133 C16.8024,44.9923 15.5214,46.2733 13.9424,46.2733 M43.9724,38.4083 L13.2274,38.4083 C10.4744,38.4083 8.2224,40.6603 8.2224,43.4133 C8.2224,46.1663 10.4744,48.4183 13.2274,48.4183 L43.9724,48.4183 C45.5464,48.4183 46.8324,47.1303 46.8324,45.5583 L46.8324,41.2683 C46.8324,39.6953 45.5464,38.4083 43.9724,38.4083" id="Fill-9" fill="#E6EAF3"></path>
                <path d="M41.1123,32.6884 C39.5333,32.6884 38.2523,31.4074 38.2523,29.8284 C38.2523,28.2484 39.5333,26.9674 41.1123,26.9674 C42.6913,26.9674 43.9723,28.2484 43.9723,29.8284 C43.9723,31.4074 42.6913,32.6884 41.1123,32.6884 M41.8273,24.8234 L11.0823,24.8234 C9.5083,24.8234 8.2223,26.1104 8.2223,27.6834 L8.2223,31.9724 C8.2223,33.5454 9.5083,34.8334 11.0823,34.8334 L41.8273,34.8334 C44.5803,34.8334 46.8323,32.5814 46.8323,29.8284 C46.8323,27.0754 44.5803,24.8234 41.8273,24.8234" id="Fill-11" fill="#0071EB"></path>
                <g transform="translate(24.000000, 52.000000)">
                    <mask id="mask-2" fill="white">
                        <use xlink:href="#path-1"></use>
                    </mask>
                    <g id="Clip-14"></g>
                    <path d="M6.959,3.5682 C6.959,1.6722 5.423,0.1352 3.527,0.1352 C1.632,0.1352 0.096,1.6722 0.096,3.5682 C0.096,5.4642 1.632,7.0002 3.527,7.0002 C5.423,7.0002 6.959,5.4642 6.959,3.5682" id="Fill-13" fill="#E6EAF3" mask="url(#mask-2)"></path>
                </g>
                <g transform="translate(24.000000, 0.000000)">
                    <mask id="mask-4" fill="white">
                        <use xlink:href="#path-3"></use>
                    </mask>
                    <g id="Clip-16"></g>
                    <path d="M6.959,4.0878 C6.959,5.9838 5.423,7.5208 3.527,7.5208 C1.632,7.5208 0.096,5.9838 0.096,4.0878 C0.096,2.1918 1.632,0.6558 3.527,0.6558 C5.423,0.6558 6.959,2.1918 6.959,4.0878" id="Fill-15" fill="#E6EAF3" mask="url(#mask-4)"></path>
                </g>
            </g>
        </g>
    </g>
</svg>