<?xml version="1.0" encoding="UTF-8"?>
<svg width="90px" height="86px" viewBox="0 0 90 86" version="1.1" xmlns="http://www.w3.org/2000/svg" xmlns:xlink="http://www.w3.org/1999/xlink">
    <title>A99C5A78-82E9-4538-8378-2FC6665D64BD</title>
    <defs>
        <path d="M25.768,0.341 C23.495,0.341 21.676,2.16 21.676,4.433 L21.676,4.433 L21.676,8.374 C20.312,8.83 18.948,9.283 17.583,10.042 L17.583,10.042 L14.855,7.314 C13.188,5.646 10.611,5.646 9.095,7.314 L9.095,7.314 L7.427,8.981 C5.76,10.648 5.76,13.225 7.427,14.741 L7.427,14.741 L10.004,17.318 C9.247,18.682 8.489,20.198 8.033,21.865 L8.033,21.865 L4.092,21.865 C1.819,21.865 0,23.684 0,25.958 L0,25.958 L0,28.232 C0,30.505 1.819,32.324 4.092,32.324 L4.092,32.324 L8.64,32.324 C9.247,32.324 9.701,31.87 9.701,31.263 L9.701,31.263 C9.701,30.657 9.247,30.354 8.64,30.354 L8.64,30.354 L4.092,30.354 C3.031,30.354 2.122,29.444 2.122,28.383 L2.122,28.383 L2.122,26.109 C2.122,25.049 3.031,24.139 4.092,24.139 L4.092,24.139 L8.942,24.139 C9.398,24.139 9.853,23.836 10.004,23.381 L10.004,23.381 C10.459,21.411 11.218,19.591 12.278,17.924 L12.278,17.924 L12.278,17.773 C12.278,17.773 12.278,17.621 12.429,17.621 L12.429,17.621 L12.429,17.469 L12.429,17.318 L12.429,17.167 C12.429,17.167 12.429,17.014 12.278,17.014 L12.278,17.014 C12.278,17.014 12.278,16.863 12.127,16.863 L12.127,16.863 L12.127,16.711 L8.942,13.225 C8.185,12.468 8.185,11.255 8.942,10.497 L8.942,10.497 L10.611,8.83 C11.369,8.072 12.581,8.072 13.339,8.83 L13.339,8.83 L16.522,12.012 C16.522,12.012 16.673,12.012 16.673,12.164 L16.673,12.164 C16.826,12.316 17.128,12.468 17.28,12.468 L17.28,12.468 C17.432,12.468 17.583,12.468 17.886,12.316 L17.886,12.316 C19.401,11.406 21.07,10.648 22.888,10.346 L22.888,10.346 C23.343,10.194 23.798,9.739 23.646,9.132 L23.646,9.132 L23.646,4.433 C23.646,3.372 24.556,2.463 25.617,2.463 L25.617,2.463 L27.891,2.463 C28.951,2.463 29.861,3.372 29.861,4.433 L29.861,4.433 L29.861,9.132 C29.861,9.588 30.164,10.194 30.619,10.346 L30.619,10.346 C32.589,10.8 34.409,11.558 36.076,12.619 L36.076,12.619 L36.682,12.619 C36.833,12.619 36.986,12.619 37.137,12.468 L37.137,12.468 C37.137,12.468 37.289,12.468 37.289,12.316 L37.289,12.316 C37.289,12.316 37.44,12.316 37.44,12.164 L37.44,12.164 L40.926,8.679 C41.684,7.92 42.897,7.92 43.654,8.679 L43.654,8.679 L45.474,10.497 C45.777,10.8 46.08,11.406 46.08,11.861 L46.08,11.861 C46.08,12.316 45.928,12.922 45.474,13.225 L45.474,13.225 L41.988,17.014 L41.836,17.167 C41.836,17.167 41.836,17.318 41.684,17.318 L41.684,17.318 L41.684,17.924 C42.594,19.44 43.352,21.107 43.654,22.927 L43.654,22.927 L43.654,23.229 L43.806,23.381 L43.958,23.533 L44.11,23.684 L44.261,23.684 C44.412,23.684 44.564,23.836 44.717,23.836 L44.717,23.836 L49.567,23.836 C50.628,23.836 51.537,24.745 51.537,25.807 L51.537,25.807 L51.537,28.08 C51.537,29.141 50.628,30.05 49.567,30.05 L49.567,30.05 L44.717,30.05 C44.11,30.05 43.654,30.505 43.654,31.112 L43.654,31.112 C43.654,31.719 44.11,32.172 44.717,32.172 L44.717,32.172 L49.567,32.172 C51.84,32.172 53.659,30.354 53.659,28.08 L53.659,28.08 L53.659,25.807 C53.659,23.684 51.84,21.865 49.567,21.865 L49.567,21.865 L45.626,21.865 C45.17,20.5 44.717,19.138 43.958,17.773 L43.958,17.773 L46.99,14.741 C47.748,13.983 48.202,12.922 48.202,11.861 L48.202,11.861 C48.202,10.8 47.748,9.739 46.99,8.981 L46.99,8.981 L45.321,7.314 C43.654,5.646 41.078,5.646 39.562,7.314 L39.562,7.314 L36.682,10.194 C35.318,9.283 33.802,8.679 32.135,8.223 L32.135,8.223 L32.135,4.433 C32.135,2.16 30.316,0.341 28.042,0.341 L28.042,0.341 L25.768,0.341 Z" id="path-1"></path>
        <polygon id="path-3" points="0 72 89.659 72 89.659 0.341 0 0.341"></polygon>
    </defs>
    <g id="页面-1" stroke="none" stroke-width="1" fill="none" fill-rule="evenodd">
        <g id="API接口文档备份-6" transform="translate(5.000000, 6.000000)">
            <g id="编组" transform="translate(-5.000000, -6.000000)">
                <path d="M67.5668,40.5238 L63.6258,40.5238 C63.1708,39.1598 62.7158,37.7958 61.9578,36.4318 L64.9898,33.3998 C65.7478,32.6418 66.2028,31.5818 66.2028,30.5198 C66.2028,29.4598 65.7478,28.3978 64.9898,27.6398 L63.3218,25.9728 C61.6548,24.3048 59.0778,24.3048 57.5618,25.9728 L54.6818,28.8528 C53.3178,27.9428 51.8018,27.3368 50.1348,26.8818 L50.1348,23.0918 C50.1348,20.8188 48.3158,19.0008 46.0428,19.0008 L43.7678,19.0008 C41.4948,19.0008 39.6758,20.8188 39.6758,23.0918 L39.6758,27.0338 C38.3118,27.4888 36.9478,27.9428 35.5838,28.7018 L32.8548,25.9728 C31.1878,24.3048 28.6108,24.3048 27.0948,25.9728 L25.4268,27.6398 C23.7598,29.3068 23.7598,31.8838 25.4268,33.3998 L28.0038,35.9768 C27.2468,37.3408 26.4888,38.8568 26.0338,40.5238 L22.0918,40.5238 C19.8188,40.5238 18.0008,42.3428 18.0008,44.6168 L18.0008,46.8908 C18.0008,49.1648 19.8188,50.9828 22.0918,50.9828 L26.6398,50.9828 C27.2468,50.9828 27.7018,50.5288 27.7018,49.9218 C27.7018,49.3158 27.2468,49.0128 26.6398,49.0128 L22.0918,49.0128 C21.0318,49.0128 20.1228,48.1028 20.1228,47.0428 L20.1228,44.7678 C20.1228,43.7078 21.0318,42.7978 22.0918,42.7978 L26.9428,42.7978 C27.3978,42.7978 27.8528,42.4948 28.0038,42.0408 C28.4598,40.0698 29.2168,38.2508 30.2778,36.5838 L30.2778,36.4318 C30.2778,36.4318 30.2778,36.2798 30.4288,36.2798 L30.4288,36.1278 L30.4288,35.9768 L30.4288,35.8258 C30.4288,35.8258 30.4288,35.6728 30.2778,35.6728 C30.2778,35.6728 30.2778,35.5218 30.1268,35.5218 L30.1268,35.3708 L26.9428,31.8838 C26.1848,31.1268 26.1848,29.9138 26.9428,29.1558 L28.6108,27.4888 C29.3688,26.7308 30.5818,26.7308 31.3388,27.4888 L34.5218,30.6708 C34.5218,30.6708 34.6728,30.6708 34.6728,30.8238 C34.8258,30.9748 35.1288,31.1268 35.2798,31.1268 C35.4318,31.1268 35.5838,31.1268 35.8858,30.9748 C37.4018,30.0648 39.0698,29.3068 40.8878,29.0038 C41.3428,28.8528 41.7978,28.3978 41.6458,27.7918 L41.6458,23.0918 C41.6458,22.0318 42.5558,21.1228 43.6168,21.1228 L45.8908,21.1228 C46.9518,21.1228 47.8608,22.0318 47.8608,23.0918 L47.8608,27.7918 C47.8608,28.2468 48.1648,28.8528 48.6188,29.0038 C50.5888,29.4598 52.4088,30.2168 54.0758,31.2778 L54.6818,31.2778 C54.8338,31.2778 54.9858,31.2778 55.1368,31.1268 C55.1368,31.1268 55.2888,31.1268 55.2888,30.9748 C55.2888,30.9748 55.4398,30.9748 55.4398,30.8238 L58.9258,27.3368 C59.6838,26.5788 60.8968,26.5788 61.6548,27.3368 L63.4738,29.1558 C63.7768,29.4598 64.0808,30.0648 64.0808,30.5198 C64.0808,30.9748 63.9278,31.5818 63.4738,31.8838 L59.9878,35.6728 L59.8358,35.8258 C59.8358,35.8258 59.8358,35.9768 59.6838,35.9768 L59.6838,36.5838 C60.5938,38.0988 61.3518,39.7658 61.6548,41.5858 L61.6548,41.8878 L61.8058,42.0408 L61.9578,42.1918 L62.1098,42.3428 L62.2608,42.3428 C62.4128,42.3428 62.5638,42.4948 62.7158,42.4948 L67.5668,42.4948 C68.6278,42.4948 69.5368,43.4048 69.5368,44.4648 L69.5368,46.7388 C69.5368,47.7998 68.6278,48.7098 67.5668,48.7098 L62.7158,48.7098 C62.1098,48.7098 61.6548,49.1648 61.6548,49.7708 C61.6548,50.3778 62.1098,50.8318 62.7158,50.8318 L67.5668,50.8318 C69.8398,50.8318 71.6588,49.0128 71.6588,46.7388 L71.6588,44.4648 C71.6588,42.3428 69.8398,40.5238 67.5668,40.5238" id="Fill-1" fill="#E6EAF3"></path>
                <g transform="translate(18.000000, 18.658900)">
                    <mask id="mask-2" fill="white">
                        <use xlink:href="#path-1"></use>
                    </mask>
                    <g id="Clip-4"></g>
                    <polygon id="Fill-3" fill="#E6EAF3" mask="url(#mask-2)" points="-18 50.323 71.658 50.323 71.658 -17.659 -18 -17.659"></polygon>
                </g>
                <g transform="translate(0.000000, 0.658900)">
                    <path d="M46.6488,68.0592 C46.6488,69.1202 45.7388,69.8772 44.8298,69.8772 C43.9198,69.8772 43.0098,68.9682 43.0098,68.0592 C43.0098,66.9972 43.9198,66.2402 44.8298,66.2402 C45.7388,66.2402 46.6488,66.9972 46.6488,68.0592" id="Fill-5" fill="#E6EAF3"></path>
                    <path d="M41.1918,45.1705 C41.1918,43.1995 42.8588,41.5325 44.8298,41.5325 C46.7998,41.5325 48.4668,43.1995 48.4668,45.1705 C48.4668,47.1415 46.7998,48.8085 44.8298,48.8085 C42.8588,48.8085 41.1918,47.1415 41.1918,45.1705" id="Fill-7" fill="#E6EAF3"></path>
                    <path d="M50.5892,45.1705 C50.5892,41.9865 48.0132,39.4105 44.8292,39.4105 C41.6462,39.4105 39.0692,41.9865 39.0692,45.1705 C39.0692,48.0505 41.1922,50.3235 43.7682,50.9305 L43.7682,64.2695 C42.1012,64.7245 40.8882,66.2395 40.8882,68.0595 C40.8882,70.3325 42.7072,71.9995 44.8292,71.9995 C46.9512,71.9995 48.7712,70.1815 48.7712,68.0595 C48.7712,66.2395 47.5582,64.7245 45.8912,64.2695 L45.8912,50.9305 C48.6182,50.3235 50.5892,48.0505 50.5892,45.1705" id="Fill-9" fill="#E6EAF3"></path>
                    <path d="M62.8676,69.8776 C61.8056,69.8776 61.0486,68.9686 61.0486,68.0596 C61.0486,66.9976 61.9576,66.2396 62.8676,66.2396 C63.9286,66.2396 64.6856,67.1486 64.6856,68.0596 C64.6856,68.9686 63.7766,69.8776 62.8676,69.8776" id="Fill-11" fill="#E6EAF3"></path>
                    <path d="M28.6107,68.0592 C28.6107,69.1202 27.7017,69.8772 26.7917,69.8772 C25.8817,69.8772 24.9727,68.9682 24.9727,68.0592 C24.9727,66.9972 25.8817,66.2402 26.7917,66.2402 C27.7017,66.2402 28.6107,66.9972 28.6107,68.0592" id="Fill-13" fill="#E6EAF3"></path>
                    <path d="M63.9281,64.1178 L63.9281,55.3268 L63.9281,55.1748 L63.9281,55.0228 L63.9281,54.8718 L63.9281,54.7208 L60.2901,48.9598 L60.2901,45.1708 C60.2901,36.6818 53.4691,29.8608 44.9811,29.8608 C36.4921,29.8608 29.5201,36.6818 29.5201,45.1708 L29.5201,49.1118 L25.7311,54.8718 L25.5781,64.2688 C23.9111,64.7238 22.6991,66.2398 22.6991,68.0588 C22.6991,70.3328 24.5181,71.9998 26.6401,71.9998 C28.7621,71.9998 30.5811,70.1808 30.5811,68.0588 C30.5811,66.2398 29.3681,64.7238 27.7011,64.2688 L27.7011,55.7808 L31.4901,50.0208 L31.4901,49.8698 C31.4901,49.8698 31.4901,49.7188 31.6421,49.7188 L31.6421,49.5658 L31.6421,45.1708 C31.6421,37.8948 37.5541,31.9828 44.8291,31.9828 C52.1051,31.9828 58.0171,37.8948 58.0171,45.1708 L58.0171,49.5658 C58.0171,49.7188 58.0171,49.8698 58.1681,49.8698 L61.8061,55.6298 L61.8061,64.1178 C60.1391,64.5728 58.9261,66.0888 58.9261,67.9078 C58.9261,70.1808 60.7451,71.8478 62.8671,71.8478 C64.9901,71.8478 66.8081,70.0298 66.8081,67.9078 C66.8081,66.2398 65.5961,64.7238 63.9281,64.1178" id="Fill-15" fill="#E6EAF3"></path>
                    <path d="M54.3793,60.1764 C53.3173,60.1764 52.5603,59.2674 52.5603,58.3584 C52.5603,57.4484 53.4693,56.5384 54.3793,56.5384 C55.4403,56.5384 56.1973,57.4484 56.1973,58.3584 C56.1973,59.2674 55.2883,60.1764 54.3793,60.1764" id="Fill-17" fill="#E6EAF3"></path>
                    <path d="M37.2504,58.358 C37.2504,59.419 36.3414,60.176 35.4324,60.176 C34.5214,60.176 33.6124,59.267 33.6124,58.358 C33.6124,57.449 34.5214,56.539 35.4324,56.539 C36.3414,56.539 37.2504,57.296 37.2504,58.358" id="Fill-19" fill="#E6EAF3"></path>
                    <path d="M55.4398,54.568 L55.4398,45.171 C55.4398,39.411 50.7408,34.56 44.8298,34.56 C38.9188,34.56 34.2188,39.259 34.2188,45.171 L34.2188,54.568 C32.5508,55.023 31.3388,56.539 31.3388,58.358 C31.3388,60.631 33.1578,62.299 35.2798,62.299 C37.4018,62.299 39.2208,60.48 39.2208,58.358 C39.2208,56.539 38.0078,55.023 36.3408,54.568 L36.3408,45.171 C36.3408,40.471 40.1298,36.682 44.8298,36.682 C49.5288,36.682 53.3178,40.471 53.3178,45.171 L53.3178,54.568 C51.6508,55.023 50.4378,56.539 50.4378,58.358 C50.4378,60.631 52.2568,62.299 54.3788,62.299 C56.5018,62.299 58.3198,60.48 58.3198,58.358 C58.3198,56.539 57.1078,55.023 55.4398,54.568" id="Fill-21" fill="#E6EAF3"></path>
                    <path d="M51.1996,45.7809 C51.1996,49.2989 48.3466,52.1509 44.8296,52.1509 C41.3116,52.1509 38.4596,49.2989 38.4596,45.7809 C38.4596,42.2619 41.3116,39.4109 44.8296,39.4109 C48.3466,39.4109 51.1996,42.2619 51.1996,45.7809" id="Fill-23" fill="#0071EB"></path>
                    <path d="M48.9701,67.7809 C48.9701,70.0669 47.1161,71.9219 44.8291,71.9219 C42.5421,71.9219 40.6891,70.0669 40.6891,67.7809 C40.6891,65.4939 42.5421,63.6399 44.8291,63.6399 C47.1161,63.6399 48.9701,65.4939 48.9701,67.7809" id="Fill-25" fill="#0071EB"></path>
                    <mask id="mask-4" fill="white">
                        <use xlink:href="#path-3"></use>
                    </mask>
                    <g id="Clip-28"></g>
                    <polygon id="Fill-27" fill="#0071EB" mask="url(#mask-4)" points="43.579 67.671 46.079 67.671 46.079 45.671 43.579 45.671"></polygon>
                </g>
            </g>
        </g>
    </g>
</svg>