<?xml version="1.0" encoding="UTF-8"?>
<svg width="80px" height="80px" viewBox="0 0 80 80" version="1.1" xmlns="http://www.w3.org/2000/svg" xmlns:xlink="http://www.w3.org/1999/xlink">
    <title>8345A89D-419C-4F43-B6CB-280C15CF9F89</title>
    <defs>
        <path d="M19.26,4.32 C19.26,4.655 19.372,5.02 19.372,5.384 L19.372,5.384 L7.724,12.048 C6.8,11.125 5.737,10.536 4.588,10.536 L4.588,10.536 C2.264,10.536 0.5,12.412 0.5,14.625 L0.5,14.625 C0.5,16.612 1.9,18.236 3.777,18.712 L3.777,18.712 L3.777,32.488 C1.9,32.964 0.5,34.589 0.5,36.576 L0.5,36.576 C0.5,38.9 2.376,40.664 4.588,40.664 L4.588,40.664 C5.764,40.664 6.912,40.076 7.612,39.264 L7.612,39.264 L19.4,45.787 C19.176,46.264 19.065,46.852 19.065,47.412 L19.065,47.412 C19.065,49.736 20.94,51.5 23.153,51.5 L23.153,51.5 C25.364,51.5 27.24,49.625 27.24,47.412 L27.24,47.412 C27.24,46.824 27.128,46.235 26.905,45.676 L26.905,45.676 L38.692,39.264 C39.504,40.076 40.568,40.664 41.829,40.664 L41.829,40.664 C44.152,40.664 45.916,38.788 45.916,36.576 L45.916,36.576 C46,34.42 44.6,32.797 42.612,32.46 L42.612,32.46 L42.612,18.796 C44.488,18.46 46,16.696 46,14.708 L46,14.708 C46,12.385 44.124,10.62 41.912,10.62 L41.912,10.62 C40.736,10.62 39.587,11.208 38.887,12.02 L38.887,12.02 L27.212,5.495 C27.324,5.159 27.436,4.797 27.436,4.32 L27.436,4.32 C27.436,1.996 25.559,0.232 23.348,0.232 L23.348,0.232 C21.136,0.232 19.26,2.107 19.26,4.32 L19.26,4.32 Z M26.259,7.008 L37.935,13.673 C37.824,14.008 37.824,14.373 37.824,14.735 L37.824,14.735 C37.824,15.212 37.935,15.548 38.048,16.024 L38.048,16.024 L29.312,21.4 L30.376,23.023 L39,17.76 C39.476,18.236 40.064,18.572 40.736,18.824 L40.736,18.824 L40.736,32.684 C39,33.159 37.824,34.784 37.824,36.659 L37.824,36.659 C37.824,36.995 37.824,37.36 37.935,37.585 L37.935,37.585 L25.701,44.108 C25.223,43.772 24.776,43.52 24.3,43.408 L24.3,43.408 L24.3,33.02 L22.313,33.02 L22.313,43.408 C21.723,43.52 21.136,43.885 20.688,44.22 L20.688,44.22 L8.676,37.556 C8.788,37.22 8.788,36.856 8.788,36.492 L8.788,36.492 C8.788,34.615 7.5,32.992 5.764,32.516 L5.764,32.516 L5.764,18.684 C6.464,18.46 7.052,18.208 7.5,17.62 L7.5,17.62 L16.236,22.996 L17.3,21.373 L8.536,15.995 C8.648,15.52 8.76,15.184 8.76,14.708 L8.76,14.708 C8.76,14.373 8.648,14.008 8.648,13.644 L8.648,13.644 L20.324,7.008 C21.024,7.82 22.2,8.296 23.348,8.296 L23.348,8.296 C24.524,8.296 25.559,7.82 26.259,7.008 L26.259,7.008 Z" id="path-1"></path>
        <path d="M2.372,2.016 C0.272,4.088 0.272,7.505 2.372,9.604 L2.372,9.604 C4.471,11.703 7.86,11.703 9.96,9.604 L9.96,9.604 C12.059,7.505 12.059,4.115 9.96,2.016 L9.96,2.016 C8.91,0.967 7.538,0.442 6.166,0.442 L6.166,0.442 C4.794,0.442 3.422,0.967 2.372,2.016 L2.372,2.016 Z" id="path-3"></path>
    </defs>
    <g id="页面-1" stroke="none" stroke-width="1" fill="none" fill-rule="evenodd">
        <g id="编组" transform="translate(17.000000, 14.000000)">
            <g transform="translate(0.000000, 0.268000)">
                <mask id="mask-2" fill="white">
                    <use xlink:href="#path-1"></use>
                </mask>
                <g id="Clip-2"></g>
                <polygon id="Fill-1" fill="#2B85FB" mask="url(#mask-2)" points="-17 69.001 63.5 69.001 63.5 -17.268 -17 -17.268"></polygon>
            </g>
            <g transform="translate(17.000000, 20.268000)">
                <mask id="mask-4" fill="white">
                    <use xlink:href="#path-3"></use>
                </mask>
                <g id="Clip-4"></g>
                <polygon id="Fill-3" fill="#2B85FB" mask="url(#mask-4)" points="-16.703 28.679 29.035 28.679 29.035 -17.059 -16.703 -17.059"></polygon>
            </g>
        </g>
    </g>
</svg>