<?xml version="1.0" encoding="UTF-8"?>
<svg width="80px" height="80px" viewBox="0 0 80 80" version="1.1" xmlns="http://www.w3.org/2000/svg" xmlns:xlink="http://www.w3.org/1999/xlink">
    <title>C0A40483-E5A8-4F63-9EC4-96487720128E</title>
    <g id="页面-1" stroke="none" stroke-width="1" fill="none" fill-rule="evenodd">
        <g id="l" transform="translate(17.000000, 17.000000)">
            <path d="M44.5,8.5 L1.5,8.5 C0.672,8.5 0,7.828 0,7 C0,6.172 0.672,5.5 1.5,5.5 L44.5,5.5 C45.328,5.5 46,6.172 46,7 C46,7.828 45.328,8.5 44.5,8.5" id="Fill-1" fill="#E6EAF3"></path>
            <path d="M9.0996,14 L13.9006,14 C14.5596,14 15.0996,13.46 15.0996,12.8 L15.0996,1.2 C15.0996,0.54 14.5596,0 13.9006,0 L9.0996,0 C8.4406,0 7.9006,0.54 7.9006,1.2 L7.9006,12.8 C7.9006,13.46 8.4406,14 9.0996,14" id="Fill-3" fill="#E6EAF3"></path>
            <path d="M44.5,41.5 L1.5,41.5 C0.672,41.5 0,40.828 0,40 C0,39.172 0.672,38.5 1.5,38.5 L44.5,38.5 C45.328,38.5 46,39.172 46,40 C46,40.828 45.328,41.5 44.5,41.5" id="Fill-5" fill="#E6EAF3"></path>
            <path d="M9.0996,47 L13.9006,47 C14.5596,47 15.0996,46.46 15.0996,45.8 L15.0996,34.2 C15.0996,33.54 14.5596,33 13.9006,33 L9.0996,33 C8.4406,33 7.9006,33.54 7.9006,34.2 L7.9006,45.8 C7.9006,46.46 8.4406,47 9.0996,47" id="Fill-7" fill="#E6EAF3"></path>
            <line x1="44.5" y1="23" x2="1.5" y2="23" id="Stroke-9" stroke="#0071EB" stroke-width="3" stroke-linecap="round"></line>
            <path d="M36.9004,30 L32.0994,30 C31.4404,30 30.9004,29.46 30.9004,28.8 L30.9004,17.2 C30.9004,16.54 31.4404,16 32.0994,16 L36.9004,16 C37.5594,16 38.0994,16.54 38.0994,17.2 L38.0994,28.8 C38.0994,29.46 37.5594,30 36.9004,30" id="Fill-11" fill="#0071EB"></path>
        </g>
    </g>
</svg>