<?xml version="1.0" encoding="UTF-8"?>
<svg width="80px" height="80px" viewBox="0 0 80 80" version="1.1" xmlns="http://www.w3.org/2000/svg" xmlns:xlink="http://www.w3.org/1999/xlink">
    <title>B1C26BFF-98A6-4076-8C3A-CD4CE6EAEF64</title>
    <defs>
        <polygon id="path-1" points="0.000106076724 0.767 52.799 0.767 52.799 52 0.000106076724 52"></polygon>
    </defs>
    <g id="页面-1" stroke="none" stroke-width="1" fill="none" fill-rule="evenodd">
        <g id="多云对接K8S" transform="translate(14.000000, 13.000000)">
            <g id="编组" transform="translate(0.000000, 0.233500)">
                <mask id="mask-2" fill="white">
                    <use xlink:href="#path-1"></use>
                </mask>
                <g id="Clip-2"></g>
                <path d="M52.0333,34.888 L39.3323,50.687 C38.6623,51.515 37.6533,51.996 36.5873,51.993 L16.2133,52 C15.1473,52 14.1383,51.519 13.4703,50.689 L0.7623,34.893 C0.1003,34.064 -0.1487,32.979 0.0873,31.945 L4.6193,12.243 C4.8563,11.209 5.5543,10.343 6.5173,9.883 L24.8703,1.112 C25.8333,0.652 26.9533,0.652 27.9173,1.112 L46.2763,9.879 C47.2393,10.338 47.9373,11.207 48.1743,12.24 L52.7113,31.941 C52.9493,32.974 52.7003,34.059 52.0333,34.888" id="Fill-1" fill="#0071EB" mask="url(#mask-2)"></path>
            </g>
            <path d="M37.7345,29.56 L32.1775,27.958 L32.1705,27.937 C31.8255,27.842 31.5605,27.567 31.4805,27.218 C31.4005,26.87 31.5195,26.505 31.7895,26.271 L31.7895,26.26 L36.0795,22.419 L36.0795,22.416 C36.7385,23.485 37.2165,24.654 37.4965,25.877 C37.7745,27.084 37.8545,28.328 37.7345,29.56 L37.7345,29.56 Z M32.5555,37.999 L30.3335,32.635 L30.3405,32.627 C30.1325,32.149 30.3405,31.593 30.8105,31.369 C30.9955,31.28 31.2035,31.252 31.4045,31.289 L31.4135,31.279 L37.1335,32.247 C36.2895,34.62 34.6785,36.644 32.5555,37.999 L32.5555,37.999 Z M22.7505,39.178 L25.5395,34.136 L25.5445,34.136 C25.7065,33.831 26.0185,33.636 26.3625,33.623 C26.7325,33.609 27.0785,33.807 27.2515,34.134 L27.2735,34.134 L30.0675,39.185 C27.6935,39.99 25.1215,39.988 22.7505,39.178 L22.7505,39.178 Z M22.4485,32.647 L22.4635,32.668 L20.2665,37.978 C18.1575,36.627 16.5525,34.62 15.7015,32.264 L21.3735,31.302 L21.3815,31.314 C21.7325,31.249 22.0905,31.382 22.3125,31.662 C22.5355,31.94 22.5865,32.319 22.4465,32.647 L22.4485,32.647 Z M16.6865,22.416 L21.0015,26.276 L20.9965,26.3 C21.2655,26.535 21.3835,26.898 21.3035,27.246 C21.2245,27.593 20.9605,27.869 20.6155,27.963 L20.6115,27.983 L15.0815,29.578 C14.8055,27.079 15.3705,24.559 16.6865,22.416 L16.6865,22.416 Z M25.0245,17.09 L24.6945,22.855 L24.6725,22.866 C24.6575,23.222 24.4475,23.542 24.1265,23.697 C23.8045,23.852 23.4235,23.818 23.1355,23.607 L23.1355,23.609 L23.1265,23.614 L18.4025,20.263 C20.1965,18.499 22.5265,17.382 25.0245,17.09 L25.0245,17.09 Z M25.5135,26.575 L27.2815,26.575 L28.3815,27.946 L27.9865,29.662 L26.3975,30.425 L24.8075,29.657 L24.8075,29.66 L24.4135,27.946 L25.5135,26.575 Z M34.3595,20.265 L29.6645,23.593 L29.6475,23.587 C29.3595,23.799 28.9775,23.834 28.6555,23.68 C28.3335,23.525 28.1225,23.206 28.1075,22.848 L28.1025,22.846 L27.7765,17.092 C30.2595,17.401 32.5715,18.515 34.3595,20.265 L34.3595,20.265 Z M44.7985,31.456 C44.7065,31.435 44.5715,31.4 44.4795,31.382 C44.0965,31.309 43.7865,31.327 43.4255,31.298 C42.6555,31.217 42.0225,31.151 41.4575,30.973 C41.2255,30.885 41.0605,30.61 40.9815,30.497 L40.5395,30.368 C40.7755,28.658 40.6965,26.919 40.3085,25.237 C39.9195,23.538 39.2215,21.925 38.2495,20.479 C38.3635,20.375 38.5795,20.186 38.6385,20.128 C38.6555,19.931 38.6405,19.726 38.8445,19.508 C39.2785,19.101 39.8225,18.765 40.4795,18.36 C40.7925,18.175 41.0805,18.059 41.3925,17.828 C41.4635,17.775 41.5605,17.691 41.6345,17.631 C42.1625,17.212 42.2835,16.488 41.9055,16.013 C41.5265,15.538 40.7925,15.494 40.2665,15.914 C40.1915,15.973 40.0905,16.05 40.0225,16.107 C39.7275,16.363 39.5455,16.614 39.2965,16.877 C38.7555,17.427 38.3055,17.884 37.8155,18.217 C37.6025,18.34 37.2905,18.298 37.1495,18.289 L36.7315,18.586 C34.3245,16.061 31.0835,14.496 27.6095,14.18 L27.5835,13.69 C27.4405,13.553 27.2685,13.437 27.2245,13.139 C27.1765,12.55 27.2575,11.914 27.3505,11.149 C27.4015,10.789 27.4845,10.493 27.4995,10.104 C27.5025,10.016 27.4975,9.885 27.4975,9.79 C27.4975,9.118 27.0055,8.57 26.3975,8.57 C25.7925,8.57 25.2995,9.118 25.2995,9.79 L25.3025,9.822 C25.3025,9.912 25.2975,10.024 25.3025,10.104 C25.3155,10.493 25.3995,10.789 25.4495,11.149 C25.5415,11.914 25.6205,12.55 25.5725,13.142 C25.5105,13.361 25.3865,13.558 25.2165,13.709 L25.1895,14.173 C21.6935,14.455 18.4265,16.025 16.0245,18.58 C15.8915,18.488 15.7595,18.394 15.6295,18.298 C15.4305,18.325 15.2325,18.386 14.9755,18.235 C14.4845,17.905 14.0365,17.447 13.4945,16.897 C13.2455,16.633 13.0655,16.382 12.7705,16.129 C12.6915,16.063 12.6095,15.997 12.5265,15.936 C12.3095,15.759 12.0405,15.658 11.7605,15.645 C11.4235,15.627 11.0985,15.771 10.8855,16.033 C10.5075,16.508 10.6285,17.234 11.1555,17.654 L11.1715,17.664 L11.4005,17.847 C11.7125,18.079 11.9985,18.198 12.3115,18.379 C12.9685,18.787 13.5125,19.123 13.9455,19.528 C14.1125,19.708 14.1435,20.025 14.1655,20.162 L14.5175,20.476 C12.5735,23.391 11.7745,26.921 12.2735,30.389 L11.8165,30.522 C11.6945,30.68 11.5235,30.926 11.3425,30.999 C10.7775,31.177 10.1415,31.241 9.3735,31.323 C9.0135,31.353 8.7035,31.335 8.3185,31.409 C8.2365,31.424 8.1205,31.452 8.0255,31.474 L8.0165,31.479 L8.0015,31.483 C7.3525,31.639 6.9365,32.235 7.0705,32.821 C7.2045,33.409 7.8385,33.764 8.4895,33.623 L8.5055,33.622 L8.5265,33.615 L8.8105,33.551 C9.1845,33.45 9.4575,33.302 9.7965,33.173 C10.5225,32.914 11.1255,32.695 11.7105,32.61 C11.9565,32.589 12.2165,32.761 12.3445,32.831 L12.8215,32.75 C13.8965,36.073 16.1505,38.887 19.1575,40.662 L18.9595,41.141 C19.0315,41.326 19.1105,41.579 19.0565,41.761 C18.8425,42.316 18.4775,42.899 18.0625,43.55 C17.8615,43.849 17.6545,44.082 17.4725,44.428 C17.4275,44.509 17.3735,44.637 17.3315,44.723 C17.0495,45.328 17.2565,46.023 17.8005,46.285 C18.3455,46.548 19.0235,46.269 19.3175,45.664 L19.3175,45.66 C19.3615,45.574 19.4195,45.461 19.4545,45.38 C19.6085,45.024 19.6615,44.718 19.7715,44.373 C20.0615,43.643 20.2215,42.876 20.6225,42.4 C20.7335,42.267 20.9085,42.219 21.0955,42.168 L21.3445,41.717 C24.6055,42.974 28.2155,42.984 31.4845,41.744 L31.7175,42.166 C31.9065,42.228 32.1135,42.258 32.2805,42.507 C32.5795,43.017 32.7845,43.623 33.0325,44.355 C33.1425,44.699 33.1955,45.004 33.3525,45.361 C33.3865,45.442 33.4465,45.558 33.4875,45.645 C33.7805,46.251 34.4605,46.529 35.0055,46.265 C35.5495,46.005 35.7565,45.308 35.4745,44.703 C35.4305,44.617 35.3755,44.492 35.3315,44.408 C35.1495,44.065 34.9425,43.833 34.7425,43.532 C34.3245,42.881 33.9815,42.342 33.7675,41.788 C33.6795,41.501 33.7825,41.326 33.8515,41.141 C33.8115,41.092 33.7215,40.825 33.6685,40.697 C36.6865,38.908 38.9415,36.072 40.0045,32.728 C40.1455,32.75 40.3915,32.794 40.4735,32.812 C40.6385,32.702 40.7895,32.561 41.0895,32.583 C41.6745,32.668 42.2765,32.887 43.0035,33.146 C43.3425,33.279 43.6125,33.428 43.9885,33.527 C44.0675,33.549 44.1825,33.569 44.2755,33.588 L44.2945,33.595 L44.3095,33.597 C44.9635,33.738 45.5945,33.381 45.7295,32.794 C45.8605,32.209 45.4475,31.613 44.7985,31.456 L44.7985,31.456 Z" id="Fill-3" fill="#FFFFFF"></path>
        </g>
    </g>
</svg>