<?xml version="1.0" encoding="UTF-8"?>
<svg width="80px" height="80px" viewBox="0 0 80 80" version="1.1" xmlns="http://www.w3.org/2000/svg" xmlns:xlink="http://www.w3.org/1999/xlink">
    <title>EE23B79B-4E04-42FB-892D-DA9DDD4C32B0</title>
    <defs>
        <polygon id="path-1" points="0 0.0002 51.199 0.0002 51.199 51.1992 0 51.1992"></polygon>
    </defs>
    <g id="页面-1" stroke="none" stroke-width="1" fill="none" fill-rule="evenodd">
        <g id="编组" transform="translate(14.000000, 14.000000)">
            <mask id="mask-2" fill="white">
                <use xlink:href="#path-1"></use>
            </mask>
            <g id="Clip-2"></g>
            <path d="M14.8,35.9492 L35.8,35.9492 L35.8,14.9492 L14.8,14.9492 L14.8,35.9492 Z M36.699,38.9492 L13.899,38.9492 C12.741,38.9492 11.8,38.0082 11.8,36.8492 L11.8,14.0502 C11.8,12.8912 12.741,11.9492 13.899,11.9492 L36.699,11.9492 C37.857,11.9492 38.8,12.8912 38.8,14.0502 L38.8,36.8492 C38.8,38.0082 37.857,38.9492 36.699,38.9492 L36.699,38.9492 Z" id="Fill-1" fill="#2B85FB" mask="url(#mask-2)"></path>
            <path d="M20.8,29.9492 L29.8,29.9492 L29.8,20.9492 L20.8,20.9492 L20.8,29.9492 Z M31,32.9492 L19.6,32.9492 C18.607,32.9492 17.8,32.1412 17.8,31.1492 L17.8,19.7502 C17.8,18.7572 18.607,17.9492 19.6,17.9492 L31,17.9492 C31.992,17.9492 32.8,18.7572 32.8,19.7502 L32.8,31.1492 C32.8,32.1412 31.992,32.9492 31,32.9492 L31,32.9492 Z" id="Fill-3" fill="#2B85FB" mask="url(#mask-2)"></path>
            <path d="M17.0498,9 C16.2218,9 15.5498,8.328 15.5498,7.5 L15.5498,1.5 C15.5498,0.672 16.2218,-7.10542736e-15 17.0498,-7.10542736e-15 C17.8778,-7.10542736e-15 18.5498,0.672 18.5498,1.5 L18.5498,7.5 C18.5498,8.328 17.8778,9 17.0498,9" id="Fill-4" fill="#2B85FB" mask="url(#mask-2)"></path>
            <path d="M22.75,9.1494 C21.922,9.1494 21.25,8.4774 21.25,7.6494 L21.25,1.6494 C21.25,0.8214 21.922,0.1494 22.75,0.1494 C23.578,0.1494 24.25,0.8214 24.25,1.6494 L24.25,7.6494 C24.25,8.4774 23.578,9.1494 22.75,9.1494" id="Fill-5" fill="#2B85FB" mask="url(#mask-2)"></path>
            <path d="M28.4492,9.2998 C27.6212,9.2998 26.9492,8.6278 26.9492,7.7998 L26.9492,1.7998 C26.9492,0.9718 27.6212,0.2998 28.4492,0.2998 C29.2772,0.2998 29.9492,0.9718 29.9492,1.7998 L29.9492,7.7998 C29.9492,8.6278 29.2772,9.2998 28.4492,9.2998" id="Fill-6" fill="#2B85FB" mask="url(#mask-2)"></path>
            <path d="M34.1494,9.4492 C33.3214,9.4492 32.6494,8.7772 32.6494,7.9492 L32.6494,1.9492 C32.6494,1.1212 33.3214,0.4492 34.1494,0.4492 C34.9774,0.4492 35.6494,1.1212 35.6494,1.9492 L35.6494,7.9492 C35.6494,8.7772 34.9774,9.4492 34.1494,9.4492" id="Fill-7" fill="#2B85FB" mask="url(#mask-2)"></path>
            <path d="M17.0498,51.1992 C16.2218,51.1992 15.5498,50.5272 15.5498,49.6992 L15.5498,43.6992 C15.5498,42.8712 16.2218,42.1992 17.0498,42.1992 C17.8778,42.1992 18.5498,42.8712 18.5498,43.6992 L18.5498,49.6992 C18.5498,50.5272 17.8778,51.1992 17.0498,51.1992" id="Fill-8" fill="#2B85FB" mask="url(#mask-2)"></path>
            <path d="M22.75,51.0498 C21.922,51.0498 21.25,50.3778 21.25,49.5498 L21.25,43.5498 C21.25,42.7218 21.922,42.0498 22.75,42.0498 C23.578,42.0498 24.25,42.7218 24.25,43.5498 L24.25,49.5498 C24.25,50.3778 23.578,51.0498 22.75,51.0498" id="Fill-9" fill="#2B85FB" mask="url(#mask-2)"></path>
            <path d="M28.4492,50.8994 C27.6212,50.8994 26.9492,50.2274 26.9492,49.3994 L26.9492,43.3994 C26.9492,42.5714 27.6212,41.8994 28.4492,41.8994 C29.2772,41.8994 29.9492,42.5714 29.9492,43.3994 L29.9492,49.3994 C29.9492,50.2274 29.2772,50.8994 28.4492,50.8994" id="Fill-10" fill="#2B85FB" mask="url(#mask-2)"></path>
            <path d="M34.1494,50.75 C33.3214,50.75 32.6494,50.078 32.6494,49.25 L32.6494,43.25 C32.6494,42.422 33.3214,41.75 34.1494,41.75 C34.9774,41.75 35.6494,42.422 35.6494,43.25 L35.6494,49.25 C35.6494,50.078 34.9774,50.75 34.1494,50.75" id="Fill-11" fill="#2B85FB" mask="url(#mask-2)"></path>
            <path d="M49.6992,18.5498 L43.6992,18.5498 C42.8712,18.5498 42.1992,17.8778 42.1992,17.0498 C42.1992,16.2218 42.8712,15.5498 43.6992,15.5498 L49.6992,15.5498 C50.5272,15.5498 51.1992,16.2218 51.1992,17.0498 C51.1992,17.8778 50.5272,18.5498 49.6992,18.5498" id="Fill-12" fill="#2B85FB" mask="url(#mask-2)"></path>
            <path d="M49.5498,24.25 L43.5498,24.25 C42.7218,24.25 42.0498,23.578 42.0498,22.75 C42.0498,21.922 42.7218,21.25 43.5498,21.25 L49.5498,21.25 C50.3778,21.25 51.0498,21.922 51.0498,22.75 C51.0498,23.578 50.3778,24.25 49.5498,24.25" id="Fill-13" fill="#2B85FB" mask="url(#mask-2)"></path>
            <path d="M49.3994,29.9492 L43.3994,29.9492 C42.5714,29.9492 41.8994,29.2772 41.8994,28.4492 C41.8994,27.6212 42.5714,26.9492 43.3994,26.9492 L49.3994,26.9492 C50.2274,26.9492 50.8994,27.6212 50.8994,28.4492 C50.8994,29.2772 50.2274,29.9492 49.3994,29.9492" id="Fill-14" fill="#2B85FB" mask="url(#mask-2)"></path>
            <path d="M49.25,35.6494 L43.25,35.6494 C42.422,35.6494 41.75,34.9774 41.75,34.1494 C41.75,33.3214 42.422,32.6494 43.25,32.6494 L49.25,32.6494 C50.078,32.6494 50.75,33.3214 50.75,34.1494 C50.75,34.9774 50.078,35.6494 49.25,35.6494" id="Fill-15" fill="#2B85FB" mask="url(#mask-2)"></path>
            <path d="M7.5,18.5498 L1.5,18.5498 C0.672,18.5498 0,17.8778 0,17.0498 C0,16.2218 0.672,15.5498 1.5,15.5498 L7.5,15.5498 C8.328,15.5498 9,16.2218 9,17.0498 C9,17.8778 8.328,18.5498 7.5,18.5498" id="Fill-16" fill="#2B85FB" mask="url(#mask-2)"></path>
            <path d="M7.6494,24.25 L1.6494,24.25 C0.8214,24.25 0.1494,23.578 0.1494,22.75 C0.1494,21.922 0.8214,21.25 1.6494,21.25 L7.6494,21.25 C8.4774,21.25 9.1494,21.922 9.1494,22.75 C9.1494,23.578 8.4774,24.25 7.6494,24.25" id="Fill-17" fill="#2B85FB" mask="url(#mask-2)"></path>
            <path d="M7.7998,29.9492 L1.7998,29.9492 C0.9718,29.9492 0.2998,29.2772 0.2998,28.4492 C0.2998,27.6212 0.9718,26.9492 1.7998,26.9492 L7.7998,26.9492 C8.6278,26.9492 9.2998,27.6212 9.2998,28.4492 C9.2998,29.2772 8.6278,29.9492 7.7998,29.9492" id="Fill-18" fill="#2B85FB" mask="url(#mask-2)"></path>
            <path d="M7.9492,35.6494 L1.9492,35.6494 C1.1212,35.6494 0.4492,34.9774 0.4492,34.1494 C0.4492,33.3214 1.1212,32.6494 1.9492,32.6494 L7.9492,32.6494 C8.7772,32.6494 9.4492,33.3214 9.4492,34.1494 C9.4492,34.9774 8.7772,35.6494 7.9492,35.6494" id="Fill-19" fill="#2B85FB" mask="url(#mask-2)"></path>
        </g>
    </g>
</svg>