<?xml version="1.0" encoding="UTF-8"?>
<svg width="80px" height="80px" viewBox="0 0 80 80" version="1.1" xmlns="http://www.w3.org/2000/svg" xmlns:xlink="http://www.w3.org/1999/xlink">
    <title>E4925894-866C-463A-9D6B-0E6E415B7268</title>
    <defs>
        <path d="M1.6,0.6 C0.747,0.6 0,1.347 0,2.2 L0,2.2 L0,37.4 C0,38.253 0.747,39 1.6,39 L1.6,39 L41.067,39 C42.027,39 42.667,38.253 42.667,37.4 L42.667,37.4 L42.667,2.2 C42.667,1.347 41.92,0.6 41.067,0.6 L41.067,0.6 L1.6,0.6 Z" id="path-1"></path>
        <path d="M14.787,0.062 C14.391,0.165 14.08,0.472 13.971,0.866 L13.971,0.866 L8.485,20.738 L8.485,20.736 C8.376,21.132 8.486,21.554 8.773,21.846 L8.773,21.846 C9.06,22.138 9.48,22.254 9.877,22.15 L9.877,22.15 C10.273,22.048 10.585,21.742 10.694,21.347 L10.694,21.347 L16.18,1.475 C16.288,1.08 16.178,0.658 15.891,0.367 L15.891,0.367 C15.673,0.146 15.378,0.025 15.076,0.025 L15.076,0.025 C14.98,0.025 14.882,0.038 14.787,0.062 L14.787,0.062 Z M17.643,5.436 C17.196,5.884 17.196,6.61 17.643,7.057 L17.643,7.057 L21.693,11.106 L17.643,15.157 C17.196,15.605 17.196,16.329 17.643,16.776 L17.643,16.776 C18.091,17.225 18.816,17.225 19.263,16.776 L19.263,16.776 L23.313,12.726 C24.208,11.832 24.208,10.382 23.313,9.486 L23.313,9.486 L19.263,5.436 C19.04,5.213 18.747,5.101 18.453,5.101 L18.453,5.101 C18.16,5.101 17.867,5.213 17.643,5.436 L17.643,5.436 Z M5.403,5.436 L1.353,9.486 C0.459,10.382 0.459,11.832 1.353,12.726 L1.353,12.726 L5.403,16.776 C5.692,17.066 6.114,17.179 6.51,17.073 L6.51,17.073 C6.906,16.968 7.213,16.658 7.32,16.264 L7.32,16.264 C7.426,15.868 7.313,15.446 7.023,15.157 L7.023,15.157 L2.973,11.106 L7.023,7.057 C7.471,6.61 7.471,5.884 7.023,5.436 L7.023,5.436 C6.8,5.213 6.507,5.101 6.213,5.101 L6.213,5.101 C5.92,5.101 5.627,5.213 5.403,5.436 L5.403,5.436 Z" id="path-3"></path>
    </defs>
    <g id="页面-1" stroke="none" stroke-width="1" fill="none" fill-rule="evenodd">
        <g id="编组" transform="translate(14.000000, 16.000000)">
            <path d="M46.0667,48.4002 L6.5997,48.4002 C5.7467,48.4002 4.9997,47.6532 4.9997,46.7992 L4.9997,11.6002 C4.9997,10.7472 5.7467,10.0002 6.5997,10.0002 L46.0667,10.0002 C46.9207,10.0002 47.6667,10.7472 47.6667,11.6002 L47.6667,46.7992 C47.6667,47.6532 47.0267,48.4002 46.0667,48.4002" id="Fill-1" fill="#E6EAF3"></path>
            <g transform="translate(5.000000, 9.400000)">
                <mask id="mask-2" fill="white">
                    <use xlink:href="#path-1"></use>
                </mask>
                <g id="Clip-4"></g>
                <polygon id="Fill-3" fill="#E6EAF3" mask="url(#mask-2)" points="-20 59 62.667 59 62.667 -19.4 -20 -19.4"></polygon>
            </g>
            <path d="M37.3133,28.8865 L33.2633,24.8365 C32.8153,24.3895 32.0903,24.3895 31.6433,24.8365 C31.1963,25.2835 31.1963,26.0095 31.6433,26.4565 L35.6933,30.5065 L31.6433,34.5575 C31.1963,35.0045 31.1963,35.7295 31.6433,36.1765 C32.0903,36.6245 32.8153,36.6245 33.2633,36.1765 L37.3133,32.1265 C38.2083,31.2325 38.2083,29.7825 37.3133,28.8865 L37.3133,28.8865 Z M19.4033,24.8365 L15.3533,28.8865 C14.4593,29.7825 14.4593,31.2325 15.3533,32.1265 L19.4033,36.1765 C19.6923,36.4665 20.1143,36.5785 20.5093,36.4735 C20.9053,36.3675 21.2133,36.0585 21.3193,35.6635 C21.4253,35.2685 21.3133,34.8465 21.0233,34.5575 L16.9733,30.5065 L21.0233,26.4565 C21.4703,26.0095 21.4703,25.2835 21.0233,24.8365 C20.5763,24.3895 19.8513,24.3895 19.4033,24.8365 L19.4033,24.8365 Z M22.4843,40.1385 L27.9713,20.2665 C28.0803,19.8715 28.3913,19.5655 28.7873,19.4625 C29.1833,19.3595 29.6043,19.4755 29.8913,19.7665 C30.1783,20.0585 30.2883,20.4805 30.1803,20.8745 L24.6933,40.7465 C24.5843,41.1415 24.2733,41.4485 23.8773,41.5505 C23.4803,41.6545 23.0603,41.5375 22.7723,41.2455 C22.4853,40.9535 22.3753,40.5315 22.4843,40.1365 L22.4843,40.1385 Z" id="Fill-5" fill="#FEFEFC"></path>
            <g transform="translate(14.000000, 19.400000)">
                <mask id="mask-4" fill="white">
                    <use xlink:href="#path-3"></use>
                </mask>
                <g id="Clip-8"></g>
                <polygon id="Fill-7" fill="#FEFEFC" mask="url(#mask-4)" points="-8.318 31.188 32.984 31.188 32.984 -8.974 -8.318 -8.974"></polygon>
            </g>
            <path d="M47.9735,0.4002 L4.6935,0.4002 C3.8405,0.4002 3.0935,1.0402 2.8805,1.8932 C2.0265,6.3732 0.6805,17.7072 0.6805,17.8132 C0.6805,22.5062 4.5195,26.3462 9.2135,26.3462 C13.9065,26.3462 17.7465,22.5062 17.7465,17.8132 L17.7465,17.6002 L17.8535,17.6002 L17.8535,17.8132 C17.8535,22.5062 21.6935,26.3462 26.3865,26.3462 C30.7605,26.3462 34.3865,23.0402 34.9195,18.6672 C35.3465,22.9332 38.9735,26.3462 43.4535,26.3462 C48.1465,26.3462 51.9865,22.5062 51.9865,17.8132 C51.9865,17.8132 50.6405,6.4802 49.8935,1.8932 C49.5735,1.0402 48.8265,0.4002 47.9735,0.4002" id="Fill-9" fill="#0071EB"></path>
        </g>
    </g>
</svg>