<?xml version="1.0" encoding="UTF-8"?>
<svg width="80px" height="80px" viewBox="0 0 80 80" version="1.1" xmlns="http://www.w3.org/2000/svg" xmlns:xlink="http://www.w3.org/1999/xlink">
    <title>4022AC2D-64F8-4E01-BDC8-E85491D42BBC</title>
    <defs>
        <path d="M8.776,9.924 C8.776,15.3 13.123,19.647 18.5,19.647 L18.5,19.647 C23.877,19.647 28.224,15.3 28.224,9.924 L28.224,9.924 C28.224,4.546 23.877,0.2 18.5,0.2 L18.5,0.2 C13.123,0.2 8.776,4.546 8.776,9.924 L8.776,9.924 Z M14.725,21.935 C6.945,21.935 0.768,28.113 0.768,35.778 L0.768,35.778 C0.768,38.867 3.285,41.383 6.374,41.383 L6.374,41.383 L30.741,41.383 C33.829,41.383 36.347,38.867 36.347,35.778 L36.347,35.778 C36.232,28.113 30.055,21.935 22.389,21.935 L22.389,21.935 L14.725,21.935 Z" id="path-1"></path>
        <path d="M9.472,12.071 C9.472,18.364 14.62,23.512 20.912,23.512 L20.912,23.512 C27.204,23.512 32.352,18.364 32.352,12.071 L32.352,12.071 C32.352,5.78 27.204,0.632 20.912,0.632 L20.912,0.632 C14.62,0.632 9.472,5.78 9.472,12.071 L9.472,12.071 Z M16.679,25.8 C7.641,25.8 0.32,33.121 0.32,42.159 L0.32,42.159 C0.32,45.819 3.294,48.679 6.84,48.679 L6.84,48.679 L34.983,48.679 C38.644,48.679 41.505,45.705 41.505,42.159 L41.505,42.159 C41.505,33.121 34.182,25.8 25.144,25.8 L25.144,25.8 L16.679,25.8 Z" id="path-3"></path>
    </defs>
    <g id="页面-1" stroke="none" stroke-width="1" fill="none" fill-rule="evenodd">
        <g id="产品团队管理" transform="translate(12.000000, 14.000000)">
            <path d="M37.4998,19.7674 C42.8768,19.7674 47.2238,15.4204 47.2238,10.0434 C47.2238,4.6664 42.8768,0.3204 37.4998,0.3204 C32.1238,0.3204 27.7758,4.6664 27.7758,10.0434 C27.7758,15.4204 32.1238,19.7674 37.4998,19.7674 M41.3898,22.0554 L33.7248,22.0554 C25.9458,22.0554 19.7678,28.2334 19.7678,35.8984 C19.7678,38.9874 22.2848,41.5034 25.3738,41.5034 L49.7408,41.5034 C52.8298,41.5034 55.3468,38.9874 55.3468,35.8984 C55.2318,28.2334 49.0548,22.0554 41.3898,22.0554" id="Fill-1" fill="#D9E1EE"></path>
            <g id="编组" transform="translate(19.000000, 0.120000)">
                <mask id="mask-2" fill="white">
                    <use xlink:href="#path-1"></use>
                </mask>
                <g id="Clip-4"></g>
                <polygon id="Fill-3" fill="#D9E1EE" mask="url(#mask-2)" points="-33.552 75.704 70.666 75.704 70.666 -34.12 -33.552 -34.12"></polygon>
            </g>
            <path d="M20.9119,26.6317 C27.2039,26.6317 32.3519,21.4847 32.3519,15.1917 C32.3519,8.9007 27.2039,3.7517 20.9119,3.7517 C14.6199,3.7517 9.4719,8.9007 9.4719,15.1917 C9.4719,21.4847 14.6199,26.6317 20.9119,26.6317 M25.1449,28.9197 L16.6789,28.9197 C7.6409,28.9197 0.3199,36.2407 0.3199,45.2787 C0.3199,48.9397 3.2939,51.7997 6.8409,51.7997 L34.9829,51.7997 C38.6439,51.7997 41.5039,48.8247 41.5039,45.2787 C41.5039,36.2407 34.1829,28.9197 25.1449,28.9197" id="Fill-5" fill="#0071EB"></path>
            <g id="编组" transform="translate(0.000000, 3.120000)">
                <mask id="mask-4" fill="white">
                    <use xlink:href="#path-3"></use>
                </mask>
                <g id="Clip-8"></g>
                <polygon id="Fill-7" fill="#0071EB" mask="url(#mask-4)" points="-34 83 75.824 83 75.824 -33.688 -34 -33.688"></polygon>
            </g>
        </g>
    </g>
</svg>