<?xml version="1.0" encoding="UTF-8"?>
<svg width="80px" height="80px" viewBox="0 0 80 80" version="1.1" xmlns="http://www.w3.org/2000/svg" xmlns:xlink="http://www.w3.org/1999/xlink">
    <title>0E751503-A83A-473C-91AF-335096161D26</title>
    <defs>
        <polygon id="path-1" points="0 0.224 22.0318 0.224 22.0318 22.2557 0 22.2557"></polygon>
        <polygon id="path-3" points="0.3762 0.224 22.408 0.224 22.408 22.2557 0.3762 22.2557"></polygon>
        <polygon id="path-5" points="0 0.5997 22.0318 0.5997 22.0318 22.6317 0 22.6317"></polygon>
        <path d="M4.512,0.662 C2.339,0.918 0.684,2.732 0.629,4.919 L0.629,4.919 L0.629,6.09 C0.629,6.334 0.827,6.531 1.07,6.531 L1.07,6.531 C1.192,6.54 1.312,6.498 1.403,6.415 L1.403,6.415 C1.493,6.331 1.545,6.214 1.545,6.09 L1.545,6.09 L1.545,4.919 C1.679,3.248 2.975,1.904 4.64,1.706 L4.64,1.706 C6.306,1.509 7.879,2.516 8.4,4.11 L8.4,4.11 C8.458,4.353 8.702,4.503 8.945,4.445 L8.945,4.445 C9.188,4.387 9.338,4.143 9.279,3.899 L9.279,3.899 C8.762,1.954 7.002,0.631 5.031,0.631 L5.031,0.631 C4.86,0.631 4.686,0.641 4.512,0.662 L4.512,0.662 Z" id="path-7"></path>
        <path d="M1.665,0.65 C0.936,0.65 0.344,1.241 0.344,1.971 L0.344,1.971 L0.344,8.281 C0.344,9.009 0.936,9.601 1.665,9.601 L1.665,9.601 L10.376,9.601 C11.102,9.595 11.688,9.006 11.688,8.281 L11.688,8.281 L11.688,1.971 C11.688,1.245 11.102,0.655 10.376,0.65 L10.376,0.65 L1.665,0.65 Z M1.357,8.591 C1.276,8.507 1.231,8.397 1.23293606,8.281 L1.23293606,8.281 L1.23293606,1.971 C1.231,1.854 1.276,1.743 1.357,1.66 L1.357,1.66 C1.438,1.577 1.548,1.531 1.665,1.531 L1.665,1.531 L10.376,1.531 C10.62,1.531 10.817,1.728 10.817,1.971 L10.817,1.971 L10.817,8.281 C10.817,8.523 10.62,8.72 10.376,8.72 L10.376,8.72 L1.665,8.72 C1.548,8.72 1.438,8.674 1.357,8.591 L1.357,8.591 Z" id="path-9"></path>
        <path d="M0.877,0.596 C0.401,1.073 0.261,1.79 0.521,2.411 L0.521,2.411 C0.781,3.033 1.391,3.436 2.065,3.43301664 L2.065,3.43301664 C2.979,3.427 3.719,2.683 3.719,1.769 L3.719,1.769 C3.719,1.096 3.312,0.488 2.69,0.232 L2.69,0.232 C2.485,0.147 2.269,0.105 2.056,0.105 L2.056,0.105 C1.622,0.105 1.195,0.276 0.877,0.596 L0.877,0.596 Z M1.281,1.769 C1.281,1.336 1.632,0.985 2.065,0.985 L2.065,0.985 C2.497,0.985 2.848,1.336 2.848,1.769 L2.848,1.769 C2.848,2.201 2.497,2.552 2.065,2.552 L2.065,2.552 C1.632,2.552 1.281,2.201 1.281,1.769 L1.281,1.769 Z" id="path-11"></path>
        <path d="M0.624,0.992 L0.624,2.321 C0.624,2.563 0.822,2.76 1.065,2.76 L1.065,2.76 C1.308,2.76 1.505,2.563 1.505,2.321 L1.505,2.321 L1.505,0.992 C1.505,0.749 1.308,0.552 1.065,0.552 L1.065,0.552 C0.822,0.552 0.624,0.749 0.624,0.992 L0.624,0.992 Z" id="path-13"></path>
    </defs>
    <g id="页面-1" stroke="none" stroke-width="1" fill="none" fill-rule="evenodd">
        <g id="编组" transform="translate(14.000000, 14.000000)">
            <g transform="translate(0.000000, 0.776400)">
                <path d="M31.1308,33.455 L49.4488,33.455 C50.4148,33.455 51.2038,32.666 51.2038,31.7 L51.2038,31.354 C51.2038,30.39 50.4148,29.6 49.4488,29.6 L31.1308,29.6 C30.1658,29.6 29.3758,30.39 29.3758,31.354 L29.3758,31.7 C29.3758,32.666 30.1658,33.455 31.1308,33.455" id="Fill-1" fill="#E6EAF3"></path>
                <path d="M31.3036,42.5438 L49.2766,42.5438 C50.3366,42.5438 51.2036,41.6758 51.2036,40.6158 C51.2036,39.5558 50.3366,38.6878 49.2766,38.6878 L31.3036,38.6878 C30.2436,38.6878 29.3756,39.5558 29.3756,40.6158 C29.3756,41.6758 30.2436,42.5438 31.3036,42.5438" id="Fill-3" fill="#E6EAF3"></path>
                <path d="M31.3036,51.6317 L49.2766,51.6317 C50.3366,51.6317 51.2036,50.7647 51.2036,49.7037 C51.2036,48.6437 50.3366,47.7767 49.2766,47.7767 L31.3036,47.7767 C30.2436,47.7767 29.3756,48.6437 29.3756,49.7037 C29.3756,50.7647 30.2436,51.6317 31.3036,51.6317" id="Fill-5" fill="#E6EAF3"></path>
                <g>
                    <mask id="mask-2" fill="white">
                        <use xlink:href="#path-1"></use>
                    </mask>
                    <g id="Clip-8"></g>
                    <path d="M18.3598,22.2557 L3.6718,22.2557 C1.6438,22.2557 -0.0002,20.6107 -0.0002,18.5837 L-0.0002,3.8957 C-0.0002,1.8677 1.6438,0.2237 3.6718,0.2237 L18.3598,0.2237 C20.3878,0.2237 22.0318,1.8677 22.0318,3.8957 L22.0318,18.5837 C22.0318,20.6107 20.3878,22.2557 18.3598,22.2557" id="Fill-7" fill="#E6EAF3" mask="url(#mask-2)"></path>
                </g>
                <g transform="translate(29.000000, 0.000000)">
                    <mask id="mask-4" fill="white">
                        <use xlink:href="#path-3"></use>
                    </mask>
                    <g id="Clip-10"></g>
                    <path d="M18.7362,22.2557 L4.0482,22.2557 C2.0202,22.2557 0.3762,20.6107 0.3762,18.5837 L0.3762,3.8957 C0.3762,1.8677 2.0202,0.2237 4.0482,0.2237 L18.7362,0.2237 C20.7642,0.2237 22.4082,1.8677 22.4082,3.8957 L22.4082,18.5837 C22.4082,20.6107 20.7642,22.2557 18.7362,22.2557" id="Fill-9" fill="#E6EAF3" mask="url(#mask-4)"></path>
                </g>
                <g transform="translate(0.000000, 29.000000)">
                    <mask id="mask-6" fill="white">
                        <use xlink:href="#path-5"></use>
                    </mask>
                    <g id="Clip-12"></g>
                    <path d="M18.3598,22.6317 L3.6718,22.6317 C1.6438,22.6317 -0.0002,20.9867 -0.0002,18.9597 L-0.0002,4.2717 C-0.0002,2.2437 1.6438,0.5997 3.6718,0.5997 L18.3598,0.5997 C20.3878,0.5997 22.0318,2.2437 22.0318,4.2717 L22.0318,18.9597 C22.0318,20.9867 20.3878,22.6317 18.3598,22.6317" id="Fill-11" fill="#E6EAF3" mask="url(#mask-6)"></path>
                </g>
                <path d="M16.7489,6.6483 C15.2699,5.1693 12.8729,5.1693 11.3939,6.6483 L11.0159,7.0263 L10.6379,6.6483 C9.1599,5.1693 6.7619,5.1693 5.2829,6.6483 C3.8039,8.1273 3.8039,10.5243 5.2829,12.0023 L5.6609,12.3803 L11.0159,16.9403 L16.3709,12.3803 L16.7489,12.0023 C18.2279,10.5243 18.2279,8.1273 16.7489,6.6483" id="Fill-13" fill="#0071EB"></path>
                <path d="M46.4296,16.5614 L44.1136,14.2524 C45.0006,13.2244 45.4866,11.9294 45.4866,10.5564 C45.4866,9.0424 44.8946,7.6274 43.8316,6.5584 C42.7686,5.4884 41.3466,4.8964 39.8406,4.8964 C38.3266,4.8964 36.9116,5.4884 35.8416,6.5504 C34.7716,7.6214 34.1796,9.0424 34.1796,10.5564 C34.1796,12.0704 34.7716,13.4854 35.8346,14.5554 C36.9046,15.6254 38.3266,16.2094 39.8336,16.2094 C41.0796,16.2094 42.2686,15.8084 43.2476,15.0694 L45.5846,17.4074 C45.6976,17.5194 45.8526,17.5824 46.0076,17.5824 C46.1616,17.5824 46.3096,17.5264 46.4296,17.4074 C46.6616,17.1744 46.6616,16.7934 46.4296,16.5614 M35.3696,10.5564 C35.3696,8.0924 37.3766,6.0934 39.8336,6.0934 C42.2976,6.0934 44.2966,8.0994 44.2966,10.5564 C44.2966,13.0204 42.2976,15.0204 39.8336,15.0204 C37.3686,15.0204 35.3696,13.0134 35.3696,10.5564" id="Fill-15" fill="#D7E1ED"></path>
                <path d="M7.0692,39.5302 C6.8262,39.5302 6.6292,39.3342 6.6292,39.0912 L6.6292,37.9202 C6.6842,35.7322 8.3392,33.9182 10.5122,33.6622 C12.6852,33.4052 14.7162,34.7852 15.2792,36.8992 C15.3382,37.1422 15.1882,37.3862 14.9452,37.4452 C14.7022,37.5032 14.4582,37.3532 14.4002,37.1102 C13.8792,35.5152 12.3062,34.5092 10.6402,34.7062 C8.9742,34.9032 7.6782,36.2482 7.5442,37.9202 L7.5442,39.0912 C7.5452,39.2142 7.4932,39.3312 7.4032,39.4152 C7.3132,39.4982 7.1922,39.5402 7.0692,39.5302" id="Fill-17" fill="#D7E1ED"></path>
            </g>
            <g transform="translate(6.000000, 33.776400)">
                <mask id="mask-8" fill="white">
                    <use xlink:href="#path-7"></use>
                </mask>
                <g id="Clip-20"></g>
                <polygon id="Fill-19" fill="#D7E1ED" mask="url(#mask-8)" points="-3.771 10.931 13.692 10.931 13.692 -3.769 -3.771 -3.769"></polygon>
            </g>
            <path d="M15.3764,48.3769 L6.6644,48.3769 C5.9354,48.3769 5.3444,47.7849 5.3444,47.0569 L5.3444,40.7469 C5.3444,40.0179 5.9354,39.4269 6.6644,39.4269 L15.3764,39.4269 C16.1024,39.4319 16.6874,40.0219 16.6874,40.7469 L16.6874,47.0569 C16.6874,47.7819 16.1024,48.3719 15.3764,48.3769 L15.3764,48.3769 Z M6.6644,40.3069 C6.5484,40.3069 6.4374,40.3539 6.3564,40.4369 C6.2754,40.5199 6.2304,40.6309 6.2334,40.7469 L6.2334,47.0569 C6.2304,47.1729 6.2754,47.2839 6.3564,47.3669 C6.4374,47.4499 6.5484,47.4959 6.6644,47.4959 L15.3764,47.4959 C15.6194,47.4959 15.8164,47.2999 15.8164,47.0569 L15.8164,40.7469 C15.8164,40.5039 15.6194,40.3069 15.3764,40.3069 L6.6644,40.3069 Z" id="Fill-21" fill="#D7E1ED"></path>
            <g transform="translate(5.000000, 38.776400)">
                <mask id="mask-10" fill="white">
                    <use xlink:href="#path-9"></use>
                </mask>
                <g id="Clip-24"></g>
                <polygon id="Fill-23" fill="#D7E1ED" mask="url(#mask-10)" points="-4.056 14 16.088 14 16.088 -3.749 -4.056 -3.749"></polygon>
            </g>
            <path d="M11.0643,45.2089167 C10.3913,45.2119 9.7813,44.8099 9.5213,44.1879 C9.2613,43.5659 9.4013,42.8499 9.8763,42.3719 C10.3513,41.8949 11.0673,41.7509 11.6893,42.0079 C12.3123,42.2649 12.7183,42.8719 12.7183,43.5449 C12.7183,44.4599 11.9793,45.2039 11.0643,45.2089167 M11.0643,42.7619 C10.6313,42.7619 10.2813,43.1119 10.2813,43.5449 C10.2813,43.9779 10.6313,44.3279 11.0643,44.3279 C11.4973,44.3279 11.8473,43.9779 11.8473,43.5449 C11.8473,43.1119 11.4973,42.7619 11.0643,42.7619" id="Fill-25" fill="#D7E1ED"></path>
            <g transform="translate(9.000000, 41.776400)">
                <mask id="mask-12" fill="white">
                    <use xlink:href="#path-11"></use>
                </mask>
                <g id="Clip-28"></g>
                <polygon id="Fill-27" fill="#D7E1ED" mask="url(#mask-12)" points="-4.007 7.832 8.119 7.832 8.119 -4.294 -4.007 -4.294"></polygon>
            </g>
            <path d="M11.0643,46.537 C10.8213,46.537 10.6243,46.34 10.6243,46.098 L10.6243,44.768 C10.6243,44.525 10.8213,44.328 11.0643,44.328 C11.3073,44.328 11.5043,44.525 11.5043,44.768 L11.5043,46.098 C11.5043,46.34 11.3073,46.537 11.0643,46.537" id="Fill-29" fill="#D7E1ED"></path>
            <g transform="translate(10.000000, 43.776400)">
                <mask id="mask-14" fill="white">
                    <use xlink:href="#path-13"></use>
                </mask>
                <g id="Clip-32"></g>
                <polygon id="Fill-31" fill="#D7E1ED" mask="url(#mask-14)" points="-3.775 7.161 5.905 7.161 5.905 -3.848 -3.775 -3.848"></polygon>
            </g>
        </g>
    </g>
</svg>