<?xml version="1.0" encoding="UTF-8"?>
<svg width="80px" height="80px" viewBox="0 0 80 80" version="1.1" xmlns="http://www.w3.org/2000/svg" xmlns:xlink="http://www.w3.org/1999/xlink">
    <title>CC02E122-F0D1-42D8-AD63-ADA9B323D4CE</title>
    <defs>
        <polygon id="path-1" points="0 0.5921 22.0318 0.5921 22.0318 22.6241 0 22.6241"></polygon>
        <polygon id="path-3" points="0.3762 0.592 22.408 0.592 22.408 22.6239 0.3762 22.6239"></polygon>
        <polygon id="path-5" points="0 0.9681 22.0318 0.9681 22.0318 23 0 23"></polygon>
        <polygon id="path-7" points="-0.0002 0.9681 22.0318 0.9681 22.0318 23 -0.0002 23"></polygon>
    </defs>
    <g id="页面-1" stroke="none" stroke-width="1" fill="none" fill-rule="evenodd">
        <g id="编组" transform="translate(14.000000, 14.000000)">
            <g transform="translate(0.000000, 0.408000)">
                <mask id="mask-2" fill="white">
                    <use xlink:href="#path-1"></use>
                </mask>
                <g id="Clip-2"></g>
                <path d="M18.3598,22.6241 L3.6718,22.6241 C1.6438,22.6241 -0.0002,20.9791 -0.0002,18.9521 L-0.0002,4.2641 C-0.0002,2.2361 1.6438,0.5921 3.6718,0.5921 L18.3598,0.5921 C20.3878,0.5921 22.0318,2.2361 22.0318,4.2641 L22.0318,18.9521 C22.0318,20.9791 20.3878,22.6241 18.3598,22.6241" id="Fill-1" fill="#E6EAF3" mask="url(#mask-2)"></path>
            </g>
            <g transform="translate(29.000000, 0.408000)">
                <mask id="mask-4" fill="white">
                    <use xlink:href="#path-3"></use>
                </mask>
                <g id="Clip-4"></g>
                <path d="M18.7362,0.5919 L15.7362,0.5919 C15.1832,0.5919 14.7362,1.0399 14.7362,1.5919 C14.7362,2.1449 15.1832,2.5919 15.7362,2.5919 L18.7362,2.5919 C18.8632,2.5919 18.9892,2.6069 19.1112,2.6339 C19.1862,2.6509 19.2602,2.6589 19.3342,2.6589 C19.7902,2.6589 20.2022,2.3449 20.3082,1.8809 C20.4302,1.3439 20.0952,0.8099 19.5592,0.6849 C19.3632,0.6399 19.1612,0.6109 18.9542,0.5989 L18.9542,0.5989 C18.9462,0.5979 18.9392,0.5979 18.9312,0.5969 L18.9302,0.5969 L18.9252,0.5969 L18.9242,0.5969 C18.9172,0.5969 18.9092,0.5959 18.9022,0.5959 L18.9012,0.5959 L18.8962,0.5959 L18.8952,0.5959 C18.8932,0.5949 18.8912,0.5949 18.8892,0.5949 L18.8782,0.5949 L18.8782,0.5949 L18.8722,0.5949 L18.8722,0.5949 L18.8662,0.5949 C18.8662,0.5949 18.8662,0.5949 18.8652,0.5939 L18.8602,0.5939 L18.8482,0.5939 L18.8422,0.5939 L18.8422,0.5939 C18.8402,0.5939 18.8392,0.5939 18.8372,0.5929 L18.8362,0.5929 L18.8312,0.5929 L18.8302,0.5929 L18.8192,0.5929 L18.8192,0.5929 L18.8132,0.5929 L18.8132,0.5929 L18.8072,0.5929 L18.8062,0.5929 L18.8012,0.5929 L18.8002,0.5929 L18.7952,0.5929 L18.7902,0.5929 L18.7892,0.5929 L18.7842,0.5929 C18.7832,0.5919 18.7832,0.5919 18.7832,0.5919 L18.7782,0.5919 L18.7772,0.5919 L18.7722,0.5919 L18.7712,0.5919 L18.7602,0.5919 L18.7592,0.5919 L18.7542,0.5919 L18.7532,0.5919 L18.7482,0.5919 L18.7472,0.5919 L18.7422,0.5919 L18.7412,0.5919 L18.7362,0.5919 Z M21.4082,4.3209 C20.8562,4.3209 20.4082,4.7699 20.4082,5.3209 L20.4082,8.3209 C20.4082,8.8739 20.8562,9.3209 21.4082,9.3209 C21.9602,9.3209 22.4082,8.8739 22.4082,8.3209 L22.4082,5.3209 C22.4082,4.7699 21.9602,4.3209 21.4082,4.3209 L21.4082,4.3209 Z M21.4082,13.3209 C20.8562,13.3209 20.4082,13.7699 20.4082,14.3209 L20.4082,17.3209 C20.4082,17.8739 20.8562,18.3209 21.4082,18.3209 C21.9602,18.3209 22.4082,17.8739 22.4082,17.3209 L22.4082,14.3209 C22.4082,13.7699 21.9602,13.3209 21.4082,13.3209 L21.4082,13.3209 Z M19.7292,20.4329 C19.6052,20.4339 19.4792,20.4559 19.3572,20.5049 C19.1612,20.5839 18.9522,20.6239 18.7362,20.6239 L17.1342,20.6239 C16.5822,20.6239 16.1342,21.0709 16.1342,21.6239 C16.1342,22.1759 16.5822,22.6239 17.1342,22.6239 L18.7362,22.6239 L18.7412,22.6239 L18.7432,22.6239 L18.7472,22.6239 L18.7502,22.6239 L18.7532,22.6239 L18.7562,22.6239 L18.7592,22.6239 L18.7612,22.6239 L18.7652,22.6239 L18.7672,22.6239 L18.7712,22.6239 L18.7732,22.6239 L18.7772,22.6239 L18.7792,22.6239 L18.7822,22.6239 L18.7852,22.6239 L18.7882,22.6239 L18.7912,22.6239 C18.7922,22.6239 18.7932,22.6229 18.7942,22.6229 L18.7972,22.6229 L18.7992,22.6229 L18.8022,22.6229 L18.8052,22.6229 L18.8082,22.6229 L18.8112,22.6229 L18.8142,22.6229 L18.8172,22.6229 L18.8192,22.6229 L18.8232,22.6229 L18.8252,22.6229 L18.8292,22.6229 L18.8312,22.6229 C18.8322,22.6229 18.8332,22.6229 18.8342,22.6219 L18.8372,22.6219 L18.8402,22.6219 L18.8422,22.6219 L18.8462,22.6219 L18.8482,22.6219 L18.8542,22.6219 L18.8562,22.6219 L18.8602,22.6219 L18.8622,22.6219 L18.8652,22.6219 L18.8682,22.6219 C18.8692,22.6209 18.8702,22.6209 18.8712,22.6209 L18.8742,22.6209 L18.8772,22.6209 L18.8802,22.6209 L18.8822,22.6209 L18.8862,22.6209 L18.8882,22.6209 C18.8892,22.6209 18.8902,22.6209 18.8912,22.6199 L18.8942,22.6199 L18.8972,22.6199 L18.9002,22.6199 L18.9032,22.6199 L18.9052,22.6199 L18.9092,22.6199 L18.9112,22.6199 L18.9152,22.6199 C18.9152,22.6199 18.9162,22.6189 18.9172,22.6189 L18.9202,22.6189 L18.9232,22.6189 L18.9262,22.6189 L18.9282,22.6189 L18.9322,22.6189 C18.9322,22.6189 18.9332,22.6179 18.9342,22.6179 L18.9372,22.6179 L18.9402,22.6179 L18.9432,22.6179 L18.9452,22.6179 L18.9492,22.6179 L18.9512,22.6179 C18.9522,22.6179 18.9532,22.6169 18.9552,22.6169 L18.9562,22.6169 L18.9602,22.6169 L18.9612,22.6169 C18.9682,22.6159 18.9742,22.6159 18.9812,22.6159 L18.9832,22.6159 C18.9842,22.6149 18.9862,22.6149 18.9862,22.6149 L18.9882,22.6149 L18.9922,22.6149 L18.9942,22.6149 C18.9952,22.6149 18.9972,22.6139 18.9982,22.6139 L19.0002,22.6139 L19.0042,22.6139 L19.0062,22.6139 L19.0092,22.6139 L19.0112,22.6139 C19.0122,22.6129 19.0132,22.6129 19.0152,22.6129 L19.0172,22.6129 L19.0202,22.6129 L19.0222,22.6129 C19.0242,22.6129 19.0252,22.6129 19.0262,22.6129 L19.0282,22.6129 L19.0322,22.6129 L19.0332,22.6129 C19.0352,22.6129 19.0362,22.6129 19.0372,22.6119 L19.0392,22.6119 L19.0432,22.6119 L19.0452,22.6119 C19.0462,22.6119 19.0482,22.6109 19.0482,22.6109 L19.0502,22.6109 L19.0542,22.6109 L19.0562,22.6109 C19.0572,22.6109 19.0592,22.6109 19.0602,22.6099 L19.0612,22.6099 L19.0662,22.6099 L19.0662,22.6099 C19.0792,22.6089 19.0912,22.6069 19.1042,22.6059 L19.1102,22.6059 L19.1102,22.6059 C19.1112,22.6049 19.1132,22.6049 19.1152,22.6049 L19.1162,22.6049 L19.1202,22.6049 C19.1212,22.6049 19.1212,22.6049 19.1212,22.6039 L19.1262,22.6039 L19.1272,22.6039 C19.1282,22.6039 19.1302,22.6029 19.1312,22.6029 L19.1322,22.6029 L19.1372,22.6029 L19.1382,22.6029 C19.1392,22.6019 19.1412,22.6019 19.1422,22.6019 L19.1432,22.6019 C19.1452,22.6019 19.1462,22.6019 19.1482,22.6009 L19.1492,22.6009 L19.1532,22.6009 L19.1542,22.6009 C19.1562,22.6009 19.1572,22.5999 19.1592,22.5999 L19.1602,22.5999 C19.1612,22.5999 19.1632,22.5999 19.1652,22.5989 L19.1652,22.5989 L19.1702,22.5989 L19.1712,22.5989 C19.1922,22.5959 19.2142,22.5929 19.2362,22.5899 C19.2382,22.5899 19.2392,22.5899 19.2412,22.5889 L19.2472,22.5889 C19.2492,22.5889 19.2502,22.5879 19.2522,22.5879 L19.2532,22.5879 C19.2542,22.5879 19.2562,22.5869 19.2572,22.5869 L19.2582,22.5869 C19.2592,22.5869 19.2612,22.5869 19.2632,22.5859 L19.2632,22.5859 L19.2682,22.5859 L19.2692,22.5849 C19.2982,22.5809 19.3262,22.5769 19.3552,22.5719 C19.4312,22.5599 19.5062,22.5439 19.5792,22.5269 C19.5812,22.5269 19.5832,22.5259 19.5852,22.5259 C19.5862,22.5249 19.5882,22.5249 19.5902,22.5249 L19.5902,22.5249 C19.5912,22.5239 19.5932,22.5239 19.5952,22.5229 L19.5952,22.5229 C19.5972,22.5229 19.5992,22.5229 19.6002,22.5219 C19.6232,22.5159 19.6462,22.5109 19.6682,22.5049 L19.6692,22.5049 C19.6702,22.5039 19.6722,22.5039 19.6732,22.5029 L19.6742,22.5029 C19.6752,22.5029 19.6772,22.5019 19.6782,22.5019 L19.6792,22.5019 C19.6812,22.5009 19.6822,22.5009 19.6842,22.4999 L19.6852,22.4999 C19.6862,22.4999 19.6872,22.4989 19.6892,22.4989 L19.6902,22.4989 C19.6912,22.4979 19.6932,22.4979 19.6942,22.4979 C19.6942,22.4969 19.6952,22.4969 19.6952,22.4969 C19.6962,22.4969 19.6982,22.4969 19.6992,22.4959 L19.7012,22.4959 C19.7022,22.4949 19.7032,22.4949 19.7042,22.4949 C19.7052,22.4949 19.7062,22.4939 19.7062,22.4939 C19.7072,22.4939 19.7092,22.4929 19.7102,22.4929 L19.7112,22.4929 C19.7132,22.4919 19.7142,22.4919 19.7152,22.4919 C19.7152,22.4909 19.7162,22.4909 19.7162,22.4909 C19.7182,22.4909 19.7192,22.4909 19.7202,22.4899 L19.7222,22.4899 C19.7232,22.4889 19.7242,22.4889 19.7262,22.4889 C19.7262,22.4889 19.7262,22.4879 19.7272,22.4879 C19.7282,22.4879 19.7302,22.4879 19.7312,22.4879 L19.7322,22.4879 C19.7342,22.4869 19.7352,22.4869 19.7362,22.4869 C19.7362,22.4859 19.7372,22.4859 19.7372,22.4859 C19.7432,22.4849 19.7492,22.4829 19.7552,22.4809 C19.7562,22.4809 19.7572,22.4809 19.7572,22.4799 L19.7602,22.4799 C19.7612,22.4789 19.7612,22.4789 19.7622,22.4789 C19.7632,22.4789 19.7642,22.4779 19.7652,22.4779 C19.7662,22.4779 19.7672,22.4779 19.7682,22.4769 C19.7692,22.4769 19.7702,22.4769 19.7702,22.4759 L19.7732,22.4759 C19.7742,22.4759 19.7752,22.4749 19.7762,22.4749 C19.7772,22.4749 19.7782,22.4739 19.7782,22.4739 C19.7792,22.4739 19.7802,22.4739 19.7812,22.4729 C19.7822,22.4729 19.7832,22.4729 19.7842,22.4719 L19.7862,22.4719 C19.7872,22.4719 19.7882,22.4709 19.7892,22.4709 C19.7902,22.4709 19.7912,22.4699 19.7912,22.4699 C19.7932,22.4699 19.7932,22.4699 19.7942,22.4689 L19.7972,22.4689 C19.7982,22.4679 19.7982,22.4679 19.7992,22.4679 C19.8002,22.4669 19.8012,22.4669 19.8022,22.4669 C19.8032,22.4669 19.8042,22.4659 19.8052,22.4659 C19.8062,22.4659 19.8062,22.4659 19.8072,22.4649 C19.8082,22.4649 19.8092,22.4649 19.8102,22.4639 L19.8122,22.4639 C19.8142,22.4629 19.8152,22.4629 19.8162,22.4629 C19.8162,22.4619 19.8172,22.4619 19.8182,22.4619 C19.8192,22.4619 19.8202,22.4609 19.8212,22.4609 C19.8222,22.4609 19.8222,22.4599 19.8232,22.4599 C19.8242,22.4599 19.8252,22.4599 19.8262,22.4589 L19.8282,22.4589 C19.8302,22.4579 19.8312,22.4579 19.8322,22.4569 L19.8332,22.4569 C19.8352,22.4559 19.8372,22.4559 19.8382,22.4559 L19.8392,22.4549 C19.9292,22.4269 20.0182,22.3959 20.1052,22.3609 C20.6152,22.1539 20.8622,21.5729 20.6572,21.0619 C20.5012,20.6709 20.1262,20.4329 19.7292,20.4329 L19.7292,20.4329 Z M11.1342,20.6239 L8.1342,20.6239 C7.5822,20.6239 7.1342,21.0709 7.1342,21.6239 C7.1342,22.1759 7.5822,22.6239 8.1342,22.6239 L11.1342,22.6239 C11.6872,22.6239 12.1342,22.1759 12.1342,21.6239 C12.1342,21.0709 11.6872,20.6239 11.1342,20.6239 L11.1342,20.6239 Z M1.4482,18.5699 C1.3722,18.5699 1.2952,18.5779 1.2172,18.5969 C0.6802,18.7239 0.3472,19.2629 0.4742,19.7999 C0.5402,20.0769 0.6362,20.3419 0.7602,20.5899 C0.7602,20.5909 0.7602,20.5909 0.7612,20.5909 L0.7632,20.5959 L0.7662,20.6009 L0.7662,20.6019 L0.7682,20.6059 L0.7692,20.6069 C0.7702,20.6089 0.7702,20.6099 0.7712,20.6109 L0.7712,20.6119 C0.7722,20.6129 0.7732,20.6139 0.7742,20.6159 C0.7742,20.6159 0.7742,20.6159 0.7742,20.6169 C0.7752,20.6179 0.7762,20.6199 0.7772,20.6209 L0.7772,20.6219 L0.7792,20.6269 L0.7792,20.6269 C0.7802,20.6289 0.7812,20.6299 0.7822,20.6319 C0.7832,20.6339 0.7842,20.6359 0.7842,20.6379 L0.7852,20.6379 L0.7872,20.6429 C0.7922,20.6519 0.7972,20.6599 0.8012,20.6689 C0.8022,20.6699 0.8032,20.6719 0.8032,20.6739 C0.8042,20.6739 0.8042,20.6739 0.8042,20.6749 L0.8062,20.6789 L0.8072,20.6799 C0.8082,20.6809 0.8082,20.6829 0.8092,20.6839 L0.8102,20.6859 C0.8102,20.6869 0.8112,20.6879 0.8122,20.6889 L0.8132,20.6909 C0.8132,20.6919 0.8142,20.6929 0.8152,20.6939 C0.8152,20.6949 0.8152,20.6949 0.8152,20.6959 C0.8162,20.6959 0.8172,20.6969 0.8172,20.6989 C0.8182,20.6989 0.8182,20.6999 0.8182,20.6999 C0.8192,20.7009 0.8192,20.7029 0.8202,20.7039 L0.8212,20.7059 L0.8222,20.7089 C0.8232,20.7099 0.8232,20.7099 0.8232,20.7109 C0.8242,20.7119 0.8252,20.7129 0.8252,20.7139 L0.8262,20.7159 C0.8272,20.7169 0.8272,20.7179 0.8282,20.7189 C0.8282,20.7199 0.8292,20.7199 0.8292,20.7209 L0.8312,20.7239 L0.8322,20.7259 C0.8332,20.7269 0.8332,20.7279 0.8342,20.7299 C0.8342,20.7299 0.8342,20.7309 0.8352,20.7309 L0.8372,20.7349 C0.8372,20.7349 0.8372,20.7359 0.8382,20.7359 C0.8382,20.7379 0.8392,20.7379 0.8402,20.7399 C0.8402,20.7399 0.8402,20.7399 0.8402,20.7409 C0.8412,20.7419 0.8422,20.7429 0.8422,20.7449 C0.8432,20.7449 0.8432,20.7449 0.8432,20.7459 C0.8452,20.7489 0.8472,20.7529 0.8492,20.7559 C0.8492,20.7569 0.8492,20.7569 0.8502,20.7579 L0.8512,20.7609 C0.8522,20.7619 0.8522,20.7629 0.8532,20.7629 L0.8542,20.7659 L0.8562,20.7689 C0.8562,20.7689 0.8572,20.7699 0.8572,20.7709 C0.8582,20.7719 0.8582,20.7729 0.8592,20.7729 L0.8602,20.7759 C0.8612,20.7769 0.8612,20.7779 0.8612,20.7789 C0.8622,20.7789 0.8622,20.7789 0.8632,20.7799 C0.8632,20.7809 0.8642,20.7819 0.8642,20.7829 C0.8642,20.7839 0.8652,20.7839 0.8652,20.7849 L0.8672,20.7879 C0.8672,20.7889 0.8682,20.7899 0.8682,20.7899 L0.8702,20.7929 C0.8702,20.7939 0.8712,20.7939 0.8712,20.7949 L0.8732,20.7979 C0.8732,20.7989 0.8742,20.7999 0.8742,20.7999 L0.8762,20.8029 C0.8762,20.8039 0.8772,20.8039 0.8772,20.8049 L0.8792,20.8079 L0.8802,20.8099 C0.8812,20.8109 0.8812,20.8119 0.8822,20.8129 C0.8822,20.8139 0.8822,20.8139 0.8822,20.8149 C0.8832,20.8159 0.8842,20.8169 0.8842,20.8179 L0.8852,20.8199 C0.8862,20.8209 0.8872,20.8209 0.8872,20.8219 C0.8872,20.8229 0.8882,20.8229 0.8882,20.8239 C0.8892,20.8249 0.8892,20.8259 0.8902,20.8269 C0.8902,20.8269 0.8902,20.8279 0.8912,20.8279 C0.8952,20.8359 0.9002,20.8429 0.9042,20.8509 C0.9042,20.8509 0.9042,20.8509 0.9042,20.8519 C0.9052,20.8529 0.9062,20.8539 0.9072,20.8549 C0.9072,20.8559 0.9072,20.8559 0.9072,20.8569 C0.9082,20.8579 0.9092,20.8589 0.9102,20.8599 C0.9102,20.8609 0.9102,20.8609 0.9102,20.8619 C0.9112,20.8629 0.9122,20.8629 0.9132,20.8639 C0.9132,20.8649 0.9132,20.8649 0.9132,20.8659 C0.9142,20.8669 0.9152,20.8679 0.9162,20.8689 C0.9162,20.8699 0.9162,20.8699 0.9162,20.8699 C0.9172,20.8719 0.9182,20.8729 0.9192,20.8739 L0.9192,20.8749 C0.9202,20.8769 0.9212,20.8779 0.9222,20.8789 L0.9222,20.8799 C0.9232,20.8819 0.9242,20.8829 0.9242,20.8839 L0.9252,20.8849 C0.9262,20.8859 0.9262,20.8879 0.9272,20.8889 C0.9272,20.8889 0.9282,20.8899 0.9282,20.8899 L0.9302,20.8939 C0.9302,20.8939 0.9312,20.8939 0.9312,20.8949 C0.9322,20.8959 0.9332,20.8969 0.9332,20.8979 C0.9332,20.8989 0.9342,20.8989 0.9342,20.8999 C0.9352,20.9009 0.9362,20.9019 0.9362,20.9039 L0.9372,20.9039 C0.9382,20.9049 0.9392,20.9059 0.9392,20.9069 C0.9402,20.9069 0.9402,20.9079 0.9402,20.9079 C0.9412,20.9089 0.9422,20.9109 0.9432,20.9119 C0.9502,20.9249 0.9582,20.9379 0.9662,20.9489 C0.9662,20.9489 0.9662,20.9489 0.9662,20.9499 C0.9672,20.9509 0.9682,20.9519 0.9692,20.9539 L0.9692,20.9539 C0.9702,20.9559 0.9712,20.9569 0.9722,20.9589 C0.9732,20.9599 0.9742,20.9619 0.9752,20.9629 L0.9752,20.9639 C0.9762,20.9649 0.9772,20.9669 0.9782,20.9679 L0.9792,20.9689 C0.9802,20.9699 0.9802,20.9709 0.9812,20.9729 C0.9812,20.9729 0.9822,20.9729 0.9822,20.9739 C0.9832,20.9749 0.9842,20.9759 0.9842,20.9779 L0.9852,20.9779 C0.9862,20.9799 0.9862,20.9809 0.9872,20.9819 C0.9872,20.9819 0.9872,20.9829 0.9882,20.9829 C0.9882,20.9839 0.9892,20.9859 0.9902,20.9869 C0.9902,20.9869 0.9912,20.9869 0.9912,20.9879 C1.3062,21.4599 1.7282,21.8559 2.2222,22.1389 C2.3792,22.2289 2.5492,22.2709 2.7172,22.2709 C3.0642,22.2709 3.4002,22.0909 3.5852,21.7689 C3.8612,21.2899 3.6962,20.6789 3.2172,20.4039 C2.8162,20.1729 2.5262,19.7849 2.4212,19.3399 C2.3122,18.8799 1.9012,18.5699 1.4482,18.5699 L1.4482,18.5699 Z M1.3762,9.8079 C0.8232,9.8079 0.3762,10.2549 0.3762,10.8079 L0.3762,13.8079 C0.3762,14.3599 0.8232,14.8079 1.3762,14.8079 C1.9282,14.8079 2.3762,14.3599 2.3762,13.8079 L2.3762,10.8079 C2.3762,10.2549 1.9282,9.8079 1.3762,9.8079 L1.3762,9.8079 Z M1.9522,1.6079 C1.6572,1.6079 1.3642,1.7379 1.1672,1.9869 C1.1662,1.9879 1.1652,1.9889 1.1642,1.9899 C1.1572,1.9989 1.1512,2.0079 1.1442,2.0169 L1.1442,2.0169 C1.1382,2.0239 1.1322,2.0309 1.1272,2.0379 C1.1142,2.0549 1.1022,2.0709 1.0902,2.0869 C1.0902,2.0889 1.0892,2.0899 1.0882,2.0909 C1.0832,2.0969 1.0782,2.1039 1.0742,2.1099 C1.0732,2.1119 1.0722,2.1129 1.0712,2.1129 C1.0662,2.1209 1.0602,2.1289 1.0552,2.1359 L1.0542,2.1369 C1.0532,2.1379 1.0532,2.1389 1.0522,2.1399 L1.0522,2.1409 C1.0482,2.1469 1.0432,2.1539 1.0382,2.1589 C1.0382,2.1599 1.0372,2.1619 1.0362,2.1629 C1.0352,2.1649 1.0342,2.1659 1.0332,2.1669 C1.0282,2.1739 1.0242,2.1799 1.0202,2.1869 C1.0192,2.1879 1.0182,2.1889 1.0172,2.1899 C1.0172,2.1909 1.0172,2.1909 1.0172,2.1909 C1.0162,2.1919 1.0152,2.1929 1.0142,2.1949 C1.0102,2.1999 1.0062,2.2069 1.0022,2.2129 C1.0012,2.2129 1.0012,2.2139 1.0012,2.2139 C1.0002,2.2149 1.0002,2.2159 0.9992,2.2169 C0.9992,2.2179 0.9992,2.2179 0.9982,2.2179 C0.9982,2.2189 0.9972,2.2199 0.9962,2.2219 C0.9932,2.2259 0.9912,2.2299 0.9882,2.2329 L0.9882,2.2339 C0.9872,2.2349 0.9862,2.2359 0.9862,2.2369 C0.9862,2.2369 0.9862,2.2369 0.9862,2.2379 C0.9852,2.2379 0.9842,2.2389 0.9832,2.2399 C0.9832,2.2399 0.9832,2.2409 0.9832,2.2409 C0.9822,2.2419 0.9812,2.2429 0.9812,2.2439 L0.9802,2.2449 C0.9772,2.2499 0.9742,2.2549 0.9702,2.2599 L0.9702,2.2609 C0.9692,2.2619 0.9682,2.2629 0.9682,2.2639 C0.9672,2.2639 0.9672,2.2649 0.9672,2.2649 C0.9662,2.2659 0.9662,2.2669 0.9652,2.2679 C0.9652,2.2689 0.9652,2.2689 0.9652,2.2689 C0.9642,2.2699 0.9632,2.2709 0.9632,2.2729 L0.9622,2.2729 C0.9592,2.2779 0.9562,2.2819 0.9532,2.2869 L0.9522,2.2879 C0.9512,2.2889 0.9512,2.2899 0.9502,2.2909 C0.9502,2.2919 0.9492,2.2919 0.9492,2.2919 C0.9492,2.2939 0.9482,2.2939 0.9472,2.2959 C0.9472,2.2959 0.9472,2.2959 0.9472,2.2969 C0.9462,2.2979 0.9452,2.2989 0.9452,2.2999 L0.9442,2.2999 C0.9422,2.3039 0.9402,2.3079 0.9382,2.3109 C0.9382,2.3119 0.9372,2.3119 0.9372,2.3119 C0.9372,2.3129 0.9362,2.3139 0.9352,2.3149 C0.9352,2.3159 0.9352,2.3159 0.9342,2.3169 L0.9332,2.3199 C0.9322,2.3199 0.9322,2.3199 0.9322,2.3209 C0.9312,2.3209 0.9302,2.3219 0.9302,2.3229 L0.9292,2.3239 C0.9272,2.3279 0.9242,2.3319 0.9232,2.3349 L0.9232,2.3359 C0.9222,2.3369 0.9212,2.3379 0.9212,2.3389 C0.9202,2.3389 0.9202,2.3399 0.9202,2.3399 C0.9192,2.3409 0.9192,2.3419 0.9182,2.3429 L0.9172,2.3439 C0.9172,2.3449 0.9162,2.3459 0.9152,2.3469 L0.9142,2.3489 L0.9132,2.3519 C0.9122,2.3519 0.9122,2.3529 0.9122,2.3529 C0.9102,2.3559 0.9082,2.3599 0.9062,2.3629 C0.9052,2.3629 0.9052,2.3629 0.9052,2.3639 C0.9042,2.3639 0.9042,2.3649 0.9032,2.3659 C0.9032,2.3669 0.9032,2.3669 0.9032,2.3679 C0.9022,2.3689 0.9012,2.3699 0.9012,2.3709 C0.9012,2.3709 0.9002,2.3719 0.9002,2.3719 L0.8982,2.3749 L0.8972,2.3769 L0.8962,2.3799 C0.8952,2.3799 0.8952,2.3799 0.8952,2.3809 C0.8942,2.3829 0.8922,2.3849 0.8912,2.3869 L0.8912,2.3879 C0.8902,2.3889 0.8892,2.3899 0.8892,2.3909 L0.8882,2.3929 C0.8872,2.3939 0.8872,2.3939 0.8862,2.3949 L0.8852,2.3969 L0.8842,2.3999 C0.8832,2.3999 0.8832,2.4009 0.8832,2.4019 C0.8822,2.4019 0.8822,2.4029 0.8822,2.4039 C0.8812,2.4039 0.8812,2.4039 0.8802,2.4049 L0.8792,2.4079 L0.8782,2.4089 C0.8772,2.4109 0.8762,2.4129 0.8752,2.4139 C0.8752,2.4149 0.8742,2.4159 0.8742,2.4159 L0.8722,2.4189 C0.8722,2.4189 0.8722,2.4199 0.8712,2.4209 C0.8712,2.4219 0.8702,2.4229 0.8702,2.4229 L0.8692,2.4249 L0.8672,2.4279 C0.8672,2.4289 0.8662,2.4289 0.8662,2.4299 L0.8642,2.4329 C0.8642,2.4329 0.8642,2.4339 0.8632,2.4339 C0.8622,2.4359 0.8612,2.4379 0.8602,2.4399 L0.8602,2.4409 C0.8592,2.4419 0.8592,2.4429 0.8582,2.4439 L0.8572,2.4459 C0.8572,2.4459 0.8562,2.4459 0.8562,2.4469 C0.8562,2.4479 0.8552,2.4479 0.8552,2.4489 L0.8532,2.4519 L0.8522,2.4539 C0.8522,2.4549 0.8512,2.4559 0.8512,2.4559 C0.8502,2.4569 0.8502,2.4579 0.8492,2.4579 C0.8492,2.4589 0.8492,2.4599 0.8482,2.4609 C0.8482,2.4619 0.8472,2.4629 0.8472,2.4629 C0.8462,2.4649 0.8452,2.4659 0.8452,2.4669 L0.8432,2.4699 C0.8432,2.4699 0.8422,2.4709 0.8422,2.4719 C0.8412,2.4729 0.8412,2.4729 0.8412,2.4739 L0.8402,2.4769 C0.8392,2.4769 0.8392,2.4779 0.8392,2.4789 C0.8382,2.4799 0.8382,2.4799 0.8372,2.4809 L0.8362,2.4839 L0.8352,2.4859 C0.8342,2.4869 0.8342,2.4879 0.8332,2.4879 C0.8332,2.4879 0.8332,2.4889 0.8322,2.4889 L0.8302,2.4939 C0.8292,2.4939 0.8292,2.4949 0.8292,2.4959 C0.8282,2.4969 0.8282,2.4969 0.8272,2.4979 L0.8262,2.4999 L0.8252,2.5029 L0.8242,2.5049 C0.8232,2.5059 0.8232,2.5069 0.8222,2.5079 C0.8222,2.5079 0.8212,2.5089 0.8212,2.5099 C0.8212,2.5109 0.8202,2.5109 0.8202,2.5119 L0.8192,2.5149 C0.8182,2.5149 0.8182,2.5159 0.8172,2.5169 L0.8162,2.5199 L0.8142,2.5229 L0.8132,2.5259 C0.8122,2.5269 0.8122,2.5269 0.8112,2.5279 C0.8112,2.5289 0.8112,2.5289 0.8102,2.5289 C0.8102,2.5299 0.8092,2.5309 0.8092,2.5319 C0.8092,2.5319 0.8082,2.5329 0.8082,2.5339 C0.8072,2.5349 0.8072,2.5359 0.8062,2.5369 L0.8052,2.5389 L0.8042,2.5419 C0.8042,2.5419 0.8032,2.5429 0.8032,2.5429 C0.8022,2.5449 0.8012,2.5459 0.8002,2.5479 C0.8002,2.5479 0.8002,2.5489 0.8002,2.5489 C0.7992,2.5499 0.7992,2.5519 0.7992,2.5529 C0.7982,2.5529 0.7982,2.5539 0.7982,2.5539 C0.7972,2.5549 0.7972,2.5559 0.7962,2.5569 C0.7962,2.5579 0.7952,2.5589 0.7952,2.5589 C0.7942,2.5599 0.7942,2.5609 0.7942,2.5619 C0.7932,2.5629 0.7932,2.5629 0.7932,2.5639 C0.7922,2.5649 0.7912,2.5659 0.7912,2.5669 C0.7912,2.5679 0.7902,2.5679 0.7902,2.5689 C0.7892,2.5699 0.7892,2.5709 0.7882,2.5709 L0.7882,2.5719 C0.7872,2.5739 0.7862,2.5749 0.7852,2.5769 C0.7852,2.5769 0.7852,2.5779 0.7842,2.5789 L0.7832,2.5819 C0.7822,2.5819 0.7822,2.5829 0.7822,2.5839 C0.7812,2.5849 0.7812,2.5849 0.7802,2.5869 C0.7802,2.5869 0.7802,2.5879 0.7792,2.5879 L0.7782,2.5909 C0.7782,2.5919 0.7782,2.5929 0.7772,2.5929 L0.7762,2.5959 C0.7762,2.5969 0.7752,2.5969 0.7752,2.5979 C0.7742,2.5989 0.7732,2.6009 0.7732,2.6029 L0.7722,2.6029 L0.7702,2.6069 L0.7692,2.6089 L0.7682,2.6119 L0.7672,2.6129 L0.7652,2.6159 L0.7642,2.6179 L0.7632,2.6209 L0.7622,2.6219 L0.7602,2.6259 L0.7602,2.6269 L0.7572,2.6319 L0.7572,2.6329 C0.7572,2.6339 0.7562,2.6359 0.7552,2.6369 L0.7552,2.6379 C0.7542,2.6389 0.7542,2.6399 0.7532,2.6419 C0.7532,2.6419 0.7522,2.6429 0.7522,2.6429 L0.7512,2.6459 C0.7502,2.6469 0.7502,2.6479 0.7502,2.6479 L0.7482,2.6509 L0.7472,2.6529 C0.7472,2.6539 0.7462,2.6549 0.7452,2.6569 C0.7442,2.6579 0.7442,2.6599 0.7432,2.6609 C0.7432,2.6619 0.7422,2.6629 0.7422,2.6629 C0.7422,2.6639 0.7412,2.6649 0.7402,2.6659 C0.7402,2.6669 0.7402,2.6669 0.7402,2.6679 L0.7382,2.6709 L0.7372,2.6729 L0.7362,2.6759 L0.7352,2.6779 L0.7342,2.6809 C0.7332,2.6819 0.7332,2.6819 0.7332,2.6829 C0.7322,2.6839 0.7322,2.6859 0.7312,2.6869 L0.7312,2.6879 C0.7302,2.6889 0.7292,2.6909 0.7292,2.6919 L0.7282,2.6939 L0.7262,2.6959 L0.7252,2.6979 L0.7242,2.7009 C0.7242,2.7019 0.7232,2.7019 0.7232,2.7029 C0.7232,2.7039 0.7222,2.7049 0.7212,2.7059 C0.7212,2.7069 0.7212,2.7069 0.7212,2.7079 C0.7202,2.7089 0.7192,2.7099 0.7192,2.7119 C0.7182,2.7139 0.7172,2.7159 0.7162,2.7169 C0.7162,2.7179 0.7162,2.7179 0.7162,2.7179 C0.7152,2.7199 0.7152,2.7209 0.7152,2.7219 L0.7142,2.7239 L0.7122,2.7269 C0.7122,2.7279 0.7122,2.7279 0.7122,2.7289 C0.7112,2.7299 0.7112,2.7309 0.7102,2.7319 C0.7102,2.7329 0.7102,2.7329 0.7092,2.7339 L0.7072,2.7379 C0.7062,2.7409 0.7042,2.7439 0.7032,2.7469 L0.7022,2.7489 C0.7022,2.7499 0.7012,2.7509 0.7002,2.7519 C0.7002,2.7529 0.7002,2.7529 0.7002,2.7539 C0.6992,2.7549 0.6992,2.7559 0.6982,2.7569 C0.6982,2.7579 0.6982,2.7579 0.6972,2.7589 L0.6962,2.7619 C0.6962,2.7629 0.6952,2.7629 0.6952,2.7639 L0.6942,2.7679 L0.6932,2.7689 C0.6932,2.7699 0.6922,2.7719 0.6912,2.7739 C0.6902,2.7749 0.6902,2.7769 0.6892,2.7789 C0.6892,2.7789 0.6892,2.7789 0.6882,2.7799 L0.6872,2.7819 C0.6872,2.7829 0.6862,2.7839 0.6862,2.7839 C0.6862,2.7849 0.6852,2.7859 0.6852,2.7879 C0.6842,2.7879 0.6842,2.7879 0.6842,2.7889 C0.6832,2.7899 0.6832,2.7919 0.6822,2.7929 C0.6822,2.7929 0.6822,2.7939 0.6822,2.7939 C0.6802,2.7969 0.6792,2.8009 0.6772,2.8039 L0.6772,2.8049 C0.6762,2.8059 0.6762,2.8079 0.6752,2.8089 L0.6752,2.8099 C0.6742,2.8109 0.6742,2.8119 0.6742,2.8139 C0.6732,2.8139 0.6732,2.8149 0.6732,2.8149 C0.6732,2.8169 0.6722,2.8179 0.6712,2.8189 C0.6712,2.8199 0.6712,2.8199 0.6712,2.8199 C0.6702,2.8209 0.6702,2.8219 0.6692,2.8239 C0.6672,2.8279 0.6662,2.8309 0.6652,2.8339 L0.6642,2.8359 L0.6622,2.8389 C0.6622,2.8399 0.6622,2.8399 0.6622,2.8409 L0.6602,2.8439 C0.6602,2.8449 0.6602,2.8449 0.6602,2.8459 C0.6592,2.8469 0.6592,2.8489 0.6582,2.8499 L0.6582,2.8509 C0.6562,2.8539 0.6552,2.8579 0.6532,2.8609 C0.6532,2.8629 0.6522,2.8629 0.6522,2.8649 L0.6512,2.8659 C0.6512,2.8669 0.6502,2.8689 0.6502,2.8699 L0.6492,2.8709 C0.6492,2.8729 0.6482,2.8739 0.6482,2.8749 L0.6472,2.8759 C0.6462,2.8779 0.6462,2.8789 0.6452,2.8809 C0.6442,2.8849 0.6422,2.8879 0.6412,2.8919 C0.6402,2.8939 0.6392,2.8949 0.6392,2.8969 C0.6392,2.8969 0.6392,2.8979 0.6382,2.8979 C0.6382,2.8989 0.6372,2.9009 0.6372,2.9019 L0.6362,2.9029 C0.6362,2.9039 0.6352,2.9049 0.6352,2.9059 C0.6352,2.9069 0.6342,2.9069 0.6342,2.9069 C0.6332,2.9109 0.6322,2.9139 0.6312,2.9169 L0.6312,2.9179 C0.6302,2.9189 0.6292,2.9209 0.6292,2.9229 L0.6282,2.9229 C0.6282,2.9249 0.6272,2.9259 0.6272,2.9279 C0.6272,2.9279 0.6262,2.9279 0.6262,2.9289 C0.6262,2.9299 0.6252,2.9319 0.6252,2.9329 L0.6242,2.9339 C0.6242,2.9349 0.6232,2.9369 0.6232,2.9389 L0.6222,2.9389 C0.6212,2.9429 0.6202,2.9459 0.6182,2.9479 L0.6182,2.9489 C0.6182,2.9499 0.6172,2.9519 0.6162,2.9539 L0.6162,2.9539 C0.6152,2.9559 0.6152,2.9569 0.6142,2.9589 C0.6142,2.9589 0.6142,2.9599 0.6142,2.9599 C0.6132,2.9609 0.6132,2.9629 0.6122,2.9639 C0.6122,2.9639 0.6122,2.9649 0.6122,2.9649 C0.6102,2.9699 0.6092,2.9749 0.6072,2.9809 L0.6062,2.9809 C0.6062,2.9829 0.6052,2.9839 0.6052,2.9859 C0.6052,2.9859 0.6042,2.9859 0.6042,2.9869 C0.6042,2.9879 0.6032,2.9889 0.6032,2.9899 L0.6022,2.9909 C0.6022,2.9929 0.6012,2.9939 0.6012,2.9959 L0.6002,2.9959 C0.5992,2.9999 0.5982,3.0029 0.5972,3.0069 C0.5962,3.0089 0.5952,3.0099 0.5952,3.0119 C0.5952,3.0119 0.5942,3.0119 0.5942,3.0129 C0.5942,3.0139 0.5932,3.0159 0.5932,3.0169 C0.5932,3.0169 0.5932,3.0179 0.5922,3.0179 C0.5922,3.0199 0.5912,3.0209 0.5912,3.0229 L0.5842,3.0429 C0.5842,3.0439 0.5832,3.0439 0.5832,3.0439 C0.5832,3.0459 0.5822,3.0469 0.5822,3.0489 L0.5812,3.0499 C0.5812,3.0509 0.5802,3.0529 0.5802,3.0539 L0.5802,3.0549 C0.5782,3.0599 0.5762,3.0649 0.5742,3.0709 L0.5742,3.0709 C0.5732,3.0719 0.5732,3.0729 0.5722,3.0749 L0.5722,3.0759 C0.5712,3.0769 0.5712,3.0789 0.5702,3.0799 L0.5702,3.0809 C0.5702,3.0829 0.5692,3.0839 0.5692,3.0859 L0.5692,3.0859 C0.5682,3.0899 0.5662,3.0929 0.5652,3.0969 C0.5652,3.0989 0.5642,3.1009 0.5642,3.1019 L0.5632,3.1029 C0.5632,3.1049 0.5622,3.1059 0.5622,3.1079 L0.5612,3.1089 C0.5612,3.1099 0.5602,3.1119 0.5602,3.1129 L0.5602,3.1129 C0.5582,3.1179 0.5562,3.1229 0.5542,3.1289 L0.5542,3.1299 C0.5542,3.1309 0.5532,3.1329 0.5532,3.1339 C0.5532,3.1339 0.5532,3.1349 0.5522,3.1349 C0.5522,3.1369 0.5522,3.1379 0.5512,3.1399 L0.5512,3.1399 L0.5492,3.1459 C0.5482,3.1509 0.5462,3.1549 0.5442,3.1609 C0.5442,3.1629 0.5432,3.1649 0.5432,3.1659 L0.5432,3.1669 C0.5422,3.1689 0.5422,3.1699 0.5412,3.1719 L0.5412,3.1719 C0.5392,3.1779 0.5382,3.1829 0.5362,3.1889 C0.5352,3.1909 0.5352,3.1919 0.5342,3.1939 C0.5342,3.1939 0.5342,3.1949 0.5342,3.1949 C0.5342,3.1959 0.5332,3.1969 0.5332,3.1979 C0.5332,3.1989 0.5322,3.1989 0.5322,3.1989 C0.5322,3.2009 0.5312,3.2019 0.5312,3.2039 C0.5292,3.2099 0.5282,3.2149 0.5262,3.2209 C0.5262,3.2229 0.5252,3.2239 0.5252,3.2259 L0.5252,3.2269 C0.5242,3.2289 0.5242,3.2299 0.5232,3.2319 L0.5232,3.2319 L0.5212,3.2379 C0.5202,3.2399 0.5192,3.2439 0.5182,3.2479 C0.5182,3.2489 0.5172,3.2509 0.5172,3.2529 L0.5162,3.2539 C0.5162,3.2549 0.5162,3.2569 0.5152,3.2579 C0.5152,3.2589 0.5152,3.2589 0.5152,3.2589 C0.5142,3.2609 0.5142,3.2629 0.5142,3.2639 C0.5132,3.2639 0.5132,3.2639 0.5132,3.2649 C0.5122,3.2699 0.5102,3.2749 0.5092,3.2799 L0.5092,3.2809 C0.5082,3.2819 0.5082,3.2839 0.5072,3.2859 C0.5072,3.2879 0.5072,3.2889 0.5062,3.2909 L0.5062,3.2919 C0.5062,3.2939 0.5052,3.2949 0.5052,3.2969 C0.5032,3.3019 0.5022,3.3079 0.5002,3.3139 L0.5002,3.3139 C0.5002,3.3159 0.4992,3.3169 0.4992,3.3189 L0.4992,3.3199 C0.4982,3.3209 0.4982,3.3219 0.4972,3.3239 C0.4962,3.3299 0.4942,3.3349 0.4932,3.3409 C0.4922,3.3429 0.4922,3.3449 0.4912,3.3459 L0.4912,3.3469 C0.4912,3.3489 0.4902,3.3499 0.4902,3.3519 L0.4902,3.3529 C0.4892,3.3539 0.4892,3.3559 0.4882,3.3569 L0.4882,3.3579 C0.4872,3.3629 0.4862,3.3679 0.4852,3.3739 L0.4842,3.3739 C0.4842,3.3759 0.4842,3.3769 0.4832,3.3789 L0.4832,3.3799 C0.4832,3.3819 0.4822,3.3829 0.4822,3.3849 C0.4812,3.3869 0.4812,3.3889 0.4802,3.3899 L0.4802,3.3909 C0.4792,3.3939 0.4792,3.3979 0.4782,3.4019 L0.4762,3.4069 C0.4762,3.4089 0.4752,3.4099 0.4752,3.4119 L0.4752,3.4129 C0.4742,3.4149 0.4742,3.4159 0.4742,3.4179 C0.4722,3.4239 0.4712,3.4289 0.4702,3.4349 L0.4692,3.4359 C0.4692,3.4369 0.4692,3.4389 0.4682,3.4399 L0.4682,3.4409 C0.4682,3.4429 0.4682,3.4439 0.4672,3.4459 L0.4672,3.4459 C0.4672,3.4479 0.4662,3.4489 0.4662,3.4509 C0.4652,3.4569 0.4642,3.4619 0.4632,3.4679 C0.4622,3.4679 0.4622,3.4679 0.4622,3.4689 C0.4622,3.4699 0.4622,3.4719 0.4612,3.4739 C0.4612,3.4759 0.4602,3.4779 0.4602,3.4789 L0.4602,3.4799 C0.4592,3.4859 0.4572,3.4899 0.4562,3.4959 C0.4562,3.4979 0.4562,3.4989 0.4552,3.5009 L0.4552,3.5019 C0.4552,3.5039 0.4542,3.5049 0.4542,3.5069 L0.4542,3.5079 C0.4532,3.5089 0.4532,3.5109 0.4532,3.5119 L0.4532,3.5129 C0.4522,3.5169 0.4512,3.5209 0.4502,3.5239 L0.4502,3.5249 C0.4502,3.5269 0.4502,3.5279 0.4492,3.5299 C0.4492,3.5299 0.4492,3.5299 0.4492,3.5299 C0.4492,3.5309 0.4482,3.5329 0.4482,3.5339 C0.4482,3.5349 0.4482,3.5349 0.4482,3.5359 C0.4482,3.5369 0.4472,3.5389 0.4472,3.5399 L0.4472,3.5409 C0.4462,3.5429 0.4462,3.5439 0.4462,3.5459 C0.4452,3.5499 0.4442,3.5539 0.4442,3.5579 C0.4432,3.5599 0.4432,3.5619 0.4432,3.5629 L0.4432,3.5639 C0.4422,3.5659 0.4422,3.5669 0.4422,3.5689 L0.4422,3.5699 C0.4412,3.5709 0.4412,3.5719 0.4412,3.5739 L0.4402,3.5749 C0.4392,3.5799 0.4382,3.5859 0.4372,3.5909 L0.4372,3.5919 C0.4372,3.5939 0.4372,3.5949 0.4362,3.5969 L0.4362,3.5979 C0.4362,3.5989 0.4362,3.6009 0.4352,3.6029 C0.4352,3.6049 0.4352,3.6069 0.4342,3.6079 L0.4342,3.6089 C0.4332,3.6129 0.4332,3.6159 0.4322,3.6189 L0.4322,3.6199 C0.4322,3.6219 0.4312,3.6229 0.4312,3.6249 C0.4312,3.6249 0.4312,3.6259 0.4312,3.6259 C0.4312,3.6269 0.4302,3.6289 0.4302,3.6299 C0.4302,3.6309 0.4302,3.6309 0.4302,3.6319 C0.4302,3.6329 0.4292,3.6349 0.4292,3.6359 L0.4292,3.6369 C0.4282,3.6429 0.4272,3.6479 0.4262,3.6539 L0.4262,3.6549 C0.4262,3.6549 0.4252,3.6569 0.4252,3.6589 L0.4252,3.6599 C0.4252,3.6609 0.4242,3.6629 0.4242,3.6639 L0.4242,3.6649 C0.4242,3.6669 0.4242,3.6689 0.4242,3.6699 L0.4242,3.6709 C0.4232,3.6749 0.4222,3.6789 0.4222,3.6819 L0.4222,3.6829 C0.4222,3.6839 0.4212,3.6859 0.4212,3.6879 L0.4212,3.6889 C0.4212,3.6899 0.4202,3.6919 0.4202,3.6929 C0.4202,3.6939 0.4202,3.6939 0.4202,3.6949 C0.4202,3.6959 0.4192,3.6969 0.4192,3.6979 L0.4192,3.6989 C0.4192,3.7009 0.4192,3.7019 0.4182,3.7039 L0.4182,3.7049 C0.4182,3.7079 0.4172,3.7119 0.4172,3.7159 C0.4162,3.7159 0.4162,3.7169 0.4162,3.7169 C0.4162,3.7179 0.4162,3.7199 0.4162,3.7219 L0.4152,3.7229 C0.4152,3.7239 0.4152,3.7259 0.4152,3.7269 L0.4152,3.7289 C0.4142,3.7299 0.4142,3.7319 0.4142,3.7329 L0.4142,3.7339 C0.4142,3.7359 0.4132,3.7379 0.4132,3.7389 L0.4132,3.7389 C0.4132,3.7429 0.4122,3.7459 0.4112,3.7499 L0.4112,3.7509 C0.4112,3.7529 0.4112,3.7539 0.4112,3.7559 C0.4112,3.7559 0.4112,3.7569 0.4102,3.7569 C0.4102,3.7589 0.4102,3.7599 0.4102,3.7609 L0.4102,3.7629 C0.4092,3.7639 0.4092,3.7659 0.4092,3.7669 L0.4092,3.7679 C0.4082,3.7719 0.4082,3.7759 0.4072,3.7789 L0.4072,3.7799 C0.4072,3.7809 0.4072,3.7819 0.4072,3.7839 L0.4072,3.7859 C0.4062,3.7869 0.4062,3.7879 0.4062,3.7899 L0.4062,3.7909 C0.4062,3.7929 0.4052,3.7939 0.4052,3.7949 C0.4052,3.7959 0.4052,3.7959 0.4052,3.7969 C0.4052,3.7979 0.4052,3.7999 0.4042,3.8019 C0.4042,3.8039 0.4042,3.8059 0.4042,3.8079 C0.4032,3.8099 0.4032,3.8119 0.4032,3.8139 L0.4032,3.8149 C0.4032,3.8159 0.4032,3.8179 0.4032,3.8189 L0.4032,3.8209 C0.4022,3.8209 0.4022,3.8229 0.4022,3.8239 L0.4022,3.8249 C0.4022,3.8269 0.4022,3.8279 0.4012,3.8299 L0.4012,3.8309 C0.4012,3.8329 0.4012,3.8349 0.4012,3.8359 L0.4012,3.8369 C0.4002,3.8389 0.4002,3.8399 0.4002,3.8419 L0.4002,3.8429 C0.4002,3.8449 0.3992,3.8459 0.3992,3.8479 L0.3992,3.8489 C0.3992,3.8509 0.3992,3.8519 0.3992,3.8529 C0.3992,3.8539 0.3992,3.8549 0.3982,3.8549 L0.3982,3.8589 C0.3982,3.8599 0.3982,3.8599 0.3982,3.8609 C0.3982,3.8619 0.3972,3.8629 0.3972,3.8639 L0.3972,3.8649 C0.3972,3.8689 0.3962,3.8729 0.3962,3.8769 L0.3962,3.8779 C0.3962,3.8789 0.3962,3.8809 0.3952,3.8819 L0.3952,3.8839 C0.3952,3.8849 0.3952,3.8869 0.3952,3.8879 L0.3952,3.8899 C0.3952,3.8909 0.3942,3.8919 0.3942,3.8939 L0.3942,3.8949 C0.3942,3.8969 0.3942,3.8979 0.3942,3.8999 L0.3942,3.9009 C0.3932,3.9029 0.3932,3.9049 0.3932,3.9049 L0.3932,3.9059 C0.3932,3.9069 0.3932,3.9089 0.3922,3.9109 L0.3922,3.9129 L0.3922,3.9169 C0.3922,3.9169 0.3922,3.9179 0.3922,3.9179 C0.3922,3.9199 0.3922,3.9209 0.3912,3.9219 L0.3912,3.9239 C0.3912,3.9249 0.3912,3.9269 0.3912,3.9279 L0.3912,3.9299 C0.3902,3.9329 0.3902,3.9369 0.3902,3.9409 L0.3902,3.9419 C0.3902,3.9439 0.3892,3.9449 0.3892,3.9459 L0.3892,3.9469 C0.3892,3.9479 0.3892,3.9499 0.3892,3.9509 L0.3892,3.9529 C0.3892,3.9539 0.3882,3.9559 0.3882,3.9569 L0.3882,3.9589 C0.3882,3.9599 0.3882,3.9619 0.3882,3.9629 L0.3882,3.9639 C0.3882,3.9659 0.3872,3.9679 0.3872,3.9699 C0.3872,3.9719 0.3872,3.9739 0.3872,3.9759 L0.3872,3.9769 C0.3872,3.9789 0.3862,3.9799 0.3862,3.9809 L0.3862,3.9829 L0.3862,3.9869 C0.3862,3.9879 0.3862,3.9879 0.3862,3.9879 L0.3862,3.9919 C0.3852,3.9919 0.3852,3.9929 0.3852,3.9929 L0.3852,3.9989 C0.3852,4.0009 0.3852,4.0029 0.3852,4.0049 L0.3852,4.0059 C0.3842,4.0069 0.3842,4.0089 0.3842,4.0099 L0.3842,4.0119 C0.3842,4.0129 0.3842,4.0149 0.3842,4.0159 L0.3842,4.0179 C0.3842,4.0189 0.3842,4.0199 0.3832,4.0219 L0.3832,4.0229 L0.3832,4.0279 L0.3832,4.0289 C0.3832,4.0299 0.3832,4.0319 0.3832,4.0339 C0.3822,4.0359 0.3822,4.0379 0.3822,4.0389 L0.3822,4.0409 C0.3822,4.0419 0.3822,4.0439 0.3822,4.0449 L0.3822,4.0469 L0.3822,4.0509 C0.3822,4.0509 0.3822,4.0519 0.3822,4.0529 L0.3822,4.0559 L0.3822,4.0579 C0.3822,4.0599 0.3822,4.0619 0.3812,4.0629 L0.3812,4.0639 L0.3812,4.0699 L0.3812,4.0709 C0.3812,4.0709 0.3812,4.0729 0.3812,4.0739 L0.3812,4.0759 L0.3812,4.0799 C0.3812,4.0809 0.3802,4.0809 0.3802,4.0819 L0.3802,4.0849 L0.3802,4.0879 C0.3802,4.0889 0.3802,4.0899 0.3802,4.0909 L0.3802,4.0929 C0.3802,4.0969 0.3802,4.1009 0.3792,4.1049 L0.3792,4.1059 L0.3792,4.1099 L0.3792,4.1119 C0.3792,4.1129 0.3792,4.1139 0.3792,4.1149 L0.3792,4.1169 L0.3792,4.1199 L0.3792,4.1219 C0.3792,4.1239 0.3792,4.1259 0.3782,4.1269 L0.3782,4.1279 L0.3782,4.1339 L0.3782,4.1349 C0.3782,4.1359 0.3782,4.1379 0.3782,4.1399 L0.3782,4.1409 L0.3782,4.1449 L0.3782,4.1469 L0.3782,4.1509 L0.3782,4.1529 L0.3782,4.1559 C0.3772,4.1559 0.3772,4.1569 0.3772,4.1579 L0.3772,4.1629 L0.3772,4.1689 L0.3772,4.1709 C0.3772,4.1719 0.3772,4.1729 0.3772,4.1749 L0.3772,4.1769 L0.3772,4.1799 L0.3772,4.1819 L0.3772,4.1859 L0.3772,4.1879 L0.3772,4.1919 L0.3772,4.1939 C0.3772,4.1959 0.3772,4.1959 0.3762,4.1979 L0.3762,4.1989 L0.3762,4.2039 L0.3762,4.2059 L0.3762,4.2099 L0.3762,4.2119 L0.3762,4.2149 L0.3762,4.2179 L0.3762,4.2209 L0.3762,4.2229 L0.3762,4.2279 L0.3762,4.2289 C0.3762,4.2309 0.3762,4.2329 0.3762,4.2349 L0.3762,4.2359 L0.3762,4.2389 L0.3762,4.2409 L0.3762,4.2449 L0.3762,4.2469 L0.3762,4.2509 L0.3762,4.2529 L0.3762,4.2569 L0.3762,4.2589 L0.3762,4.2639 L0.3762,4.8079 C0.3762,5.3599 0.8232,5.8079 1.3762,5.8079 C1.9282,5.8079 2.3762,5.3599 2.3762,4.8079 L2.3762,4.2639 C2.3762,3.7829 2.5712,3.4359 2.7352,3.2279 C3.0782,2.7949 3.0052,2.1659 2.5722,1.8229 C2.3882,1.6779 2.1692,1.6079 1.9522,1.6079 L1.9522,1.6079 Z M9.7362,0.5919 L6.7362,0.5919 C6.1832,0.5919 5.7362,1.0399 5.7362,1.5919 C5.7362,2.1449 6.1832,2.5919 6.7362,2.5919 L9.7362,2.5919 C10.2882,2.5919 10.7362,2.1449 10.7362,1.5919 C10.7362,1.0399 10.2882,0.5919 9.7362,0.5919 L9.7362,0.5919 Z" id="Fill-3" fill="#E6EAF3" mask="url(#mask-4)"></path>
            </g>
            <g transform="translate(0.000000, 29.408000)">
                <mask id="mask-6" fill="white">
                    <use xlink:href="#path-5"></use>
                </mask>
                <g id="Clip-6"></g>
                <path d="M18.3598,23.0001 L3.6718,23.0001 C1.6438,23.0001 -0.0002,21.3551 -0.0002,19.3281 L-0.0002,4.6401 C-0.0002,2.6121 1.6438,0.9681 3.6718,0.9681 L18.3598,0.9681 C20.3878,0.9681 22.0318,2.6121 22.0318,4.6401 L22.0318,19.3281 C22.0318,21.3551 20.3878,23.0001 18.3598,23.0001" id="Fill-5" fill="#0071EB" mask="url(#mask-6)"></path>
            </g>
            <g transform="translate(29.000000, 29.408000)">
                <mask id="mask-8" fill="white">
                    <use xlink:href="#path-7"></use>
                </mask>
                <g id="Clip-8"></g>
                <path d="M18.3598,23.0001 L3.6718,23.0001 C1.6438,23.0001 -0.0002,21.3551 -0.0002,19.3281 L-0.0002,4.6401 C-0.0002,2.6121 1.6438,0.9681 3.6718,0.9681 L18.3598,0.9681 C20.3878,0.9681 22.0318,2.6121 22.0318,4.6401 L22.0318,19.3281 C22.0318,21.3551 20.3878,23.0001 18.3598,23.0001" id="Fill-7" fill="#E6EAF3" mask="url(#mask-8)"></path>
            </g>
        </g>
    </g>
</svg>