<?xml version="1.0" encoding="UTF-8"?>
<svg width="80px" height="80px" viewBox="0 0 80 80" version="1.1" xmlns="http://www.w3.org/2000/svg" xmlns:xlink="http://www.w3.org/1999/xlink">
    <title>FE5DC2AA-6D9B-4AE3-A14C-A7C6FCA340A3</title>
    <defs>
        <polygon id="path-1" points="0.5903 0.9596 15.332 0.9596 15.332 14.9996 0.5903 14.9996"></polygon>
    </defs>
    <g id="页面-1" stroke="none" stroke-width="1" fill="none" fill-rule="evenodd">
        <g id="服务架构拓扑" transform="translate(17.000000, 19.000000)">
            <path d="M38.9609,23.145 L7.3709,23.145 C6.5429,23.145 5.8709,22.473 5.8709,21.645 C5.8709,20.817 6.5429,20.145 7.3709,20.145 L38.9609,20.145 C39.7889,20.145 40.4609,20.817 40.4609,21.645 C40.4609,22.473 39.7889,23.145 38.9609,23.145" id="Fill-1" fill="#0071EB"></path>
            <path d="M13.0224,42.1196 L1.7194,42.1196 C0.7734,42.1196 0.0004,41.3466 0.0004,40.4006 L0.0004,29.7996 C0.0004,28.8536 0.7734,28.0796 1.7194,28.0796 L13.0224,28.0796 C13.9674,28.0796 14.7424,28.8536 14.7424,29.7996 L14.7424,40.4006 C14.7424,41.3466 13.9674,42.1196 13.0224,42.1196" id="Fill-3" fill="#0071EB"></path>
            <g id="编组" transform="translate(31.000000, 27.120000)">
                <mask id="mask-2" fill="white">
                    <use xlink:href="#path-1"></use>
                </mask>
                <g id="Clip-6"></g>
                <path d="M13.6123,14.9996 L2.3093,14.9996 C1.3643,14.9996 0.5903,14.2266 0.5903,13.2806 L0.5903,2.6796 C0.5903,1.7336 1.3643,0.9596 2.3093,0.9596 L13.6123,0.9596 C14.5583,0.9596 15.3323,1.7336 15.3323,2.6796 L15.3323,13.2806 C15.3323,14.2266 14.5583,14.9996 13.6123,14.9996" id="Fill-5" fill="#0071EB" mask="url(#mask-2)"></path>
            </g>
            <path d="M28.8174,14.0405 L17.5144,14.0405 C16.5684,14.0405 15.7954,13.2665 15.7954,12.3205 L15.7954,1.7195 C15.7954,0.7735 16.5684,0.0005 17.5144,0.0005 L28.8174,0.0005 C29.7634,0.0005 30.5374,0.7735 30.5374,1.7195 L30.5374,12.3205 C30.5374,13.2665 29.7634,14.0405 28.8174,14.0405" id="Fill-7" fill="#0071EB"></path>
            <path d="M23.166,21.975 C22.338,21.975 21.666,21.303 21.666,20.475 L21.666,13.454 C21.666,12.626 22.338,11.954 23.166,11.954 C23.994,11.954 24.666,12.626 24.666,13.454 L24.666,20.475 C24.666,21.303 23.994,21.975 23.166,21.975" id="Fill-9" fill="#0071EB"></path>
            <path d="M7.3711,30.1655 C6.5431,30.1655 5.8711,29.4935 5.8711,28.6655 L5.8711,21.6445 C5.8711,20.8165 6.5431,20.1445 7.3711,20.1445 C8.1991,20.1445 8.8711,20.8165 8.8711,21.6445 L8.8711,28.6655 C8.8711,29.4935 8.1991,30.1655 7.3711,30.1655" id="Fill-11" fill="#0071EB"></path>
            <path d="M38.9609,30.1655 C38.1329,30.1655 37.4609,29.4935 37.4609,28.6655 L37.4609,21.6445 C37.4609,20.8165 38.1329,20.1445 38.9609,20.1445 C39.7889,20.1445 40.4609,20.8165 40.4609,21.6445 L40.4609,28.6655 C40.4609,29.4935 39.7889,30.1655 38.9609,30.1655" id="Fill-13" fill="#0071EB"></path>
        </g>
    </g>
</svg>