<?xml version="1.0" encoding="UTF-8"?>
<svg width="80px" height="80px" viewBox="0 0 80 80" version="1.1" xmlns="http://www.w3.org/2000/svg" xmlns:xlink="http://www.w3.org/1999/xlink">
    <title>21AC8A30-70C5-42B1-AEA4-5300A6955471</title>
    <defs>
        <path d="M21.93,0.564 C19.026,0.564 16.848,2.741 16.848,5.646 L16.848,5.646 C16.848,8.55 19.026,10.728 21.93,10.728 L21.93,10.728 L28.827,10.728 C31.731,10.728 33.909,8.55 33.909,5.646 L33.909,5.646 C33.909,2.741 31.731,0.564 28.827,0.564 L28.827,0.564 L21.93,0.564 Z M38.992,3.83 C37.902,3.83 37.176,4.558 37.176,5.646 L37.176,5.646 C37.176,6.735 37.902,7.46 38.992,7.46 L38.992,7.46 L40.806,7.46 C42.621,7.46 44.436,8.187 45.525,9.276 L45.525,9.276 C46.977,10.728 47.34,12.181 47.34,13.995 L47.34,13.995 C47.34,15.81 46.615,17.625 45.525,18.715 L45.525,18.715 C44.073,20.165 42.621,20.529 40.806,20.529 L40.806,20.529 L40.806,17.262 L35.724,22.344 L40.806,27.427 L40.806,24.159 C46.251,24.159 50.971,19.44 50.971,13.995 L50.971,13.995 C50.971,8.55 46.251,3.83 40.806,3.83 L40.806,3.83 L38.992,3.83 Z M21.93,17.625 C19.026,17.625 16.848,19.804 16.848,22.707 L16.848,22.707 C16.848,25.611 19.026,27.788 21.93,27.788 L21.93,27.788 L28.827,27.788 C31.731,27.788 33.909,25.611 33.909,22.707 L33.909,22.707 C33.909,19.804 31.731,17.625 28.827,17.625 L28.827,17.625 L21.93,17.625 Z M10.314,21.255 C4.869,21.255 0.149,25.974 0.149,31.418 L0.149,31.418 C0.149,36.864 4.869,41.583 10.314,41.583 L10.314,41.583 L10.314,44.851 L15.396,39.768 L10.314,34.686 L10.314,37.953 C8.499,37.953 6.684,37.227 5.595,36.139 L5.595,36.139 C4.143,34.686 3.78,33.234 3.78,31.418 L3.78,31.418 C3.78,29.604 4.505,27.788 5.595,26.699 L5.595,26.699 C7.047,25.248 8.499,24.885 10.314,24.885 L10.314,24.885 L12.128,24.885 C13.218,24.885 13.944,24.159 13.944,23.07 L13.944,23.07 C13.944,21.981 13.218,21.255 12.128,21.255 L12.128,21.255 L10.314,21.255 Z M21.93,34.322 C19.026,34.322 16.848,36.5 16.848,39.405 L16.848,39.405 C16.848,42.309 19.026,44.487 21.93,44.487 L21.93,44.487 L28.827,44.487 C31.731,44.487 33.909,42.309 33.909,39.405 L33.909,39.405 C33.909,36.5 31.731,34.322 28.827,34.322 L28.827,34.322 L21.93,34.322 Z" id="path-1"></path>
    </defs>
    <g id="页面-1" stroke="none" stroke-width="1" fill="none" fill-rule="evenodd">
        <g id="编组" transform="translate(15.000000, 17.000000)">
            <path d="M28.8271,1.15 L21.9301,1.15 C19.0261,1.15 16.8481,3.328 16.8481,6.232 C16.8481,9.136 19.0261,11.314 21.9301,11.314 L28.8271,11.314 C31.7311,11.314 33.9091,9.136 33.9091,6.232 C33.9091,3.328 31.7311,1.15 28.8271,1.15 L28.8271,1.15 Z M28.8271,18.211 L21.9301,18.211 C19.0261,18.211 16.8481,20.389 16.8481,23.293 C16.8481,26.197 19.0261,28.375 21.9301,28.375 L28.8271,28.375 C31.7311,28.375 33.9091,26.197 33.9091,23.293 C33.9091,20.389 31.7311,18.211 28.8271,18.211 L28.8271,18.211 Z M28.8271,34.909 L21.9301,34.909 C19.0261,34.909 16.8481,37.087 16.8481,39.991 C16.8481,42.895 19.0261,45.073 21.9301,45.073 L28.8271,45.073 C31.7311,45.073 33.9091,42.895 33.9091,39.991 C33.9091,37.087 31.7311,34.909 28.8271,34.909 L28.8271,34.909 Z M10.3141,38.539 C8.4991,38.539 6.6841,37.813 5.5951,36.724 C4.1431,35.272 3.7801,33.82 3.7801,32.004 C3.7801,30.19 4.5061,28.375 5.5951,27.286 C7.0471,25.834 8.4991,25.471 10.3141,25.471 L12.1291,25.471 C13.2181,25.471 13.9441,24.745 13.9441,23.656 C13.9441,22.567 13.2181,21.841 12.1291,21.841 L10.3141,21.841 C4.8691,21.841 0.1501,26.56 0.1501,32.004 C0.1501,37.45 4.8691,42.169 10.3141,42.169 L10.3141,45.436 L15.3961,40.354 L10.3141,35.272 L10.3141,38.539 Z M40.8061,4.417 L38.9911,4.417 C37.9021,4.417 37.1761,5.143 37.1761,6.232 C37.1761,7.321 37.9021,8.046 38.9911,8.046 L40.8061,8.046 C42.6211,8.046 44.4361,8.773 45.5251,9.862 C46.9771,11.314 47.3401,12.766 47.3401,14.581 C47.3401,16.396 46.6141,18.211 45.5251,19.3 C44.0731,20.752 42.6211,21.115 40.8061,21.115 L40.8061,17.848 L35.7241,22.93 L40.8061,28.012 L40.8061,24.745 C46.2511,24.745 50.9701,20.026 50.9701,14.581 C50.9701,9.136 46.2511,4.417 40.8061,4.417 L40.8061,4.417 Z" id="Fill-1" fill="#0071EB"></path>
            <g transform="translate(0.000000, 0.586000)">
                <mask id="mask-2" fill="white">
                    <use xlink:href="#path-1"></use>
                </mask>
                <g id="Clip-4"></g>
                <polygon id="Fill-3" fill="#0071EB" mask="url(#mask-2)" points="-18 63 69.12 63 69.12 -17.586 -18 -17.586"></polygon>
            </g>
        </g>
    </g>
</svg>