<?xml version="1.0" encoding="UTF-8"?>
<svg width="80px" height="80px" viewBox="0 0 80 80" version="1.1" xmlns="http://www.w3.org/2000/svg" xmlns:xlink="http://www.w3.org/1999/xlink">
    <title>C25BB73F-AFF9-488F-85B7-3B05537EE102</title>
    <defs>
        <polygon id="path-1" points="0 0.03 12.5998 0.03 12.5998 12.63 0 12.63"></polygon>
    </defs>
    <g id="页面-1" stroke="none" stroke-width="1" fill="none" fill-rule="evenodd">
        <g id="编组" transform="translate(20.000000, 18.000000)">
            <g transform="translate(0.000000, 9.340000)">
                <mask id="mask-2" fill="white">
                    <use xlink:href="#path-1"></use>
                </mask>
                <g id="Clip-2"></g>
                <path d="M12.5998,6.33 C12.5998,9.809 9.7798,12.63 6.2998,12.63 C2.8208,12.63 -0.0002,9.809 -0.0002,6.33 C-0.0002,2.851 2.8208,0.03 6.2998,0.03 C9.7798,0.03 12.5998,2.851 12.5998,6.33" id="Fill-1" fill="#0071EB" mask="url(#mask-2)"></path>
            </g>
            <path d="M36.9699,5.67 C36.9699,8.802 34.4319,11.34 31.2999,11.34 C28.1679,11.34 25.6299,8.802 25.6299,5.67 C25.6299,2.538 28.1679,0 31.2999,0 C34.4319,0 36.9699,2.538 36.9699,5.67" id="Fill-3" fill="#0071EB"></path>
            <path d="M13.9699,38.67 C13.9699,41.802 11.4319,44.34 8.2999,44.34 C5.1679,44.34 2.6299,41.802 2.6299,38.67 C2.6299,35.538 5.1679,33 8.2999,33 C11.4319,33 13.9699,35.538 13.9699,38.67" id="Fill-5" fill="#0071EB"></path>
            <path d="M40.5998,29.67 C40.5998,33.149 37.7798,35.97 34.2998,35.97 C30.8208,35.97 27.9998,33.149 27.9998,29.67 C27.9998,26.191 30.8208,23.37 34.2998,23.37 C37.7798,23.37 40.5998,26.191 40.5998,29.67" id="Fill-7" fill="#0071EB"></path>
            <line x1="6.8" y1="16.17" x2="34.3" y2="29.67" id="Fill-9" fill="#0071EB"></line>
            <polygon id="Fill-11" fill="#0071EB" points="33.6389 31.0167 6.1389 17.5167 7.4609 14.8237 34.9609 28.3237"></polygon>
            <polygon id="Fill-13" fill="#0071EB" points="8.2746 39.5929 7.3256 36.7469 34.3256 27.7469 35.2746 30.5929"></polygon>
            <polygon id="Fill-15" fill="#0071EB" points="6.3381 17.5704 5.2621 14.7694 31.2621 4.7694 32.3381 7.5704"></polygon>
        </g>
    </g>
</svg>