<?xml version="1.0" encoding="UTF-8"?>
<svg width="56px" height="53px" viewBox="0 0 56 53" version="1.1" xmlns="http://www.w3.org/2000/svg" xmlns:xlink="http://www.w3.org/1999/xlink">
    <title>插图/空表格  白色背景</title>
    <defs>
        <linearGradient x1="5.71824875%" y1="4.31113823%" x2="83.0501817%" y2="88.9150948%" id="linearGradient-1">
            <stop stop-color="#D4D8E4" offset="0%"></stop>
            <stop stop-color="#A9B0C4" offset="100%"></stop>
        </linearGradient>
        <linearGradient x1="0%" y1="11.0800956%" x2="80.5475944%" y2="107.703999%" id="linearGradient-2">
            <stop stop-color="#C2C7DA" offset="0%"></stop>
            <stop stop-color="#8F96B3" offset="100%"></stop>
        </linearGradient>
        <path d="M23.6721311,23.6065574 L26.1639344,23.6065574 C28.3730734,23.6065574 30.1639344,25.3974184 30.1639344,27.6065574 L30.1639344,30.0983607 C30.1639344,32.3074997 28.3730734,34.0983607 26.1639344,34.0983607 L23.6721311,34.0983607 C21.4629921,34.0983607 19.6721311,32.3074997 19.6721311,30.0983607 L19.6721311,27.6065574 C19.6721311,25.3974184 21.4629921,23.6065574 23.6721311,23.6065574 Z" id="path-3"></path>
        <filter x="-57.2%" y="-47.7%" width="233.4%" height="233.4%" filterUnits="objectBoundingBox" id="filter-4">
            <feOffset dx="1" dy="2" in="SourceAlpha" result="shadowOffsetOuter1"></feOffset>
            <feGaussianBlur stdDeviation="2" in="shadowOffsetOuter1" result="shadowBlurOuter1"></feGaussianBlur>
            <feComposite in="shadowBlurOuter1" in2="SourceAlpha" operator="out" result="shadowBlurOuter1"></feComposite>
            <feColorMatrix values="0 0 0 0 0   0 0 0 0 0   0 0 0 0 0  0 0 0 0.22 0" type="matrix" in="shadowBlurOuter1"></feColorMatrix>
        </filter>
        <linearGradient x1="41.822656%" y1="24.7954546%" x2="8.8126561%" y2="86.4269134%" id="linearGradient-5">
            <stop stop-color="#CCD0DD" offset="0%"></stop>
            <stop stop-color="#9DA3B9" offset="100%"></stop>
        </linearGradient>
        <path d="M37.3114754,12.4590164 C39.5206144,12.4590164 41.3114754,14.2498774 41.3114754,16.4590164 L41.3114754,19.8778416 L33.8926502,12.4590164 L37.3114754,12.4590164 Z" id="path-6"></path>
        <filter x="-94.4%" y="-121.3%" width="288.7%" height="288.7%" filterUnits="objectBoundingBox" id="filter-7">
            <feOffset dx="0" dy="-2" in="SourceAlpha" result="shadowOffsetOuter1"></feOffset>
            <feGaussianBlur stdDeviation="2" in="shadowOffsetOuter1" result="shadowBlurOuter1"></feGaussianBlur>
            <feColorMatrix values="0 0 0 0 0   0 0 0 0 0   0 0 0 0 0  0 0 0 0.25 0" type="matrix" in="shadowBlurOuter1"></feColorMatrix>
        </filter>
    </defs>
    <g id="数据展示" stroke="none" stroke-width="1" fill="none" fill-rule="evenodd">
        <g id="空状态" transform="translate(-261.000000, -2159.000000)">
            <g id="编组-13" transform="translate(164.000000, 665.000000)">
                <g id="场景展示" transform="translate(3.000000, 1270.000000)">
                    <g id="Select-选择器-/-TreeSelect-树选择" transform="translate(0.000000, 128.000000)">
                        <g id="选择器/无数据" transform="translate(0.000000, 40.000000)">
                            <g id="Dropdown" transform="translate(2.000000, 38.000000)">
                                <g id="插图/空表格--白色背景" transform="translate(92.000000, 18.000000)">
                                    <path d="M39.6824378,33.9672131 L10.8093655,33.9672131 C10.0855554,33.9672131 9.38986655,34.247506 8.86822799,34.7492971 L3.67213115,39.7476907 L3.67213115,39.7476907 L3.67213115,46.7278689 C3.67213115,49.8206635 6.17933655,52.3278689 9.27213115,52.3278689 L41.2196721,52.3278689 C44.3124667,52.3278689 46.8196721,49.8206635 46.8196721,46.7278689 L46.8196721,39.7476907 L46.8196721,39.7476907 L41.6235753,34.7492971 C41.1019367,34.247506 40.4062478,33.9672131 39.6824378,33.9672131 Z" id="Fill-3" fill="#A6AAC3"></path>
                                    <path d="M33.8926502,12.4590164 L41.3114754,19.8778416 L41.3114754,42.4459016 C41.3114754,43.9922989 40.0578727,45.2459016 38.5114754,45.2459016 L11.9803279,45.2459016 C10.4339306,45.2459016 9.18032787,43.9922989 9.18032787,42.4459016 L9.18032787,18.4590164 C9.18032787,15.1453079 11.8666194,12.4590164 15.1803279,12.4590164 L33.8926502,12.4590164 Z" id="形状结合" fill="url(#linearGradient-1)"></path>
                                    <g id="矩形备份">
                                        <use fill="black" fill-opacity="1" filter="url(#filter-4)" xlink:href="#path-3"></use>
                                        <path stroke="#FFFFFF" stroke-width="1" d="M26.1639344,24.1065574 C27.1304327,24.1065574 28.0054327,24.4983082 28.6388082,25.1316836 C29.2721836,25.7650591 29.6639344,26.6400591 29.6639344,27.6065574 L29.6639344,27.6065574 L29.6639344,30.0983607 C29.6639344,31.064859 29.2721836,31.939859 28.6388082,32.5732344 C28.0054327,33.2066098 27.1304327,33.5983607 26.1639344,33.5983607 L26.1639344,33.5983607 L23.6721311,33.5983607 C22.7056328,33.5983607 21.8306328,33.2066098 21.1972574,32.5732344 C20.563882,31.939859 20.1721311,31.064859 20.1721311,30.0983607 L20.1721311,30.0983607 L20.1721311,27.6065574 C20.1721311,26.6400591 20.563882,25.7650591 21.1972574,25.1316836 C21.8306328,24.4983082 22.7056328,24.1065574 23.6721311,24.1065574 L23.6721311,24.1065574 Z" stroke-linejoin="square" fill="url(#linearGradient-2)" fill-rule="evenodd"></path>
                                    </g>
                                    <g id="形状结合" transform="translate(37.602063, 16.168429) scale(-1, -1) translate(-37.602063, -16.168429) ">
                                        <use fill="black" fill-opacity="1" filter="url(#filter-7)" xlink:href="#path-6"></use>
                                        <use fill="url(#linearGradient-5)" fill-rule="evenodd" xlink:href="#path-6"></use>
                                    </g>
                                    <path d="M54.1639344,27.5409836 C54.4174422,27.5409836 54.6229508,27.7464922 54.6229508,28 L54.6228689,28.9179836 L55.5409836,28.9180328 C55.7944914,28.9180328 56,29.1235414 56,29.3770492 C56,29.6305569 55.7944914,29.8360656 55.5409836,29.8360656 L54.6228689,29.8359836 L54.6229508,30.7540984 C54.6229508,31.0076061 54.4174422,31.2131148 54.1639344,31.2131148 C53.9104267,31.2131148 53.704918,31.0076061 53.704918,30.7540984 L53.7048689,29.8359836 L52.7868852,29.8360656 C52.5333775,29.8360656 52.3278689,29.6305569 52.3278689,29.3770492 C52.3278689,29.1235414 52.5333775,28.9180328 52.7868852,28.9180328 L53.7048689,28.9179836 L53.704918,28 C53.704918,27.7464922 53.9104267,27.5409836 54.1639344,27.5409836 Z" id="形状结合" fill="#D6D8E4" opacity="0.299999982"></path>
                                    <path d="M1.37704918,20.1967213 C1.56718,20.1967213 1.72131148,20.3508528 1.72131148,20.5409836 L1.721,21.1147213 L2.29508197,21.1147541 C2.54858972,21.1147541 2.75409836,21.3202627 2.75409836,21.5737705 C2.75409836,21.8272782 2.54858972,22.0327869 2.29508197,22.0327869 L1.721,22.0327213 L1.72131148,22.6065574 C1.72131148,22.7966882 1.56718,22.9508197 1.37704918,22.9508197 C1.18691836,22.9508197 1.03278689,22.7966882 1.03278689,22.6065574 L1.032,22.0327213 L0.459016393,22.0327869 C0.205508639,22.0327869 3.1045746e-17,21.8272782 0,21.5737705 C-3.1045746e-17,21.3202627 0.205508639,21.1147541 0.459016393,21.1147541 L1.032,21.1147213 L1.03278689,20.5409836 C1.03278689,20.3508528 1.18691836,20.1967213 1.37704918,20.1967213 Z" id="形状结合备份-2" fill="#D6D8E4" opacity="0.299999982"></path>
                                    <path d="M24.7868852,43.5295076 L24.8011005,43.5307601 C31.8876782,43.6725873 34.6183834,39.6961587 37.5855745,39.48387 L37.7753351,39.4755076 L46.8196721,39.4755076 L46.8196721,49.5278689 C46.8196721,51.0169922 45.6572093,52.2346078 44.1902403,52.3227588 L44.0196721,52.3278689 L24.7868852,52.3275076 L24.7868852,52.3272615 L6.47213115,52.3277253 L6.30156296,52.3226152 C4.83459401,52.2344642 3.67213115,51.0168486 3.67213115,49.5277253 L3.67213115,49.5277253 L3.67213115,39.4754333 L11.7984354,39.4754333 L11.941603,39.4712638 C14.4272721,39.4747517 17.1558091,43.3688567 24.77267,43.5306166 L24.77267,43.5306166 L24.7868852,43.5292615 L24.7868852,43.5295076 Z" id="形状结合" fill="#D6D8E4"></path>
                                    <path d="M13.7704918,2.20053283 C13.7704918,2.20053283 16.0775627,1.64513672 16.7320305,0 C17.67481,1.34913293 18.1609037,1.93253682 19.2786885,2.18900021 C17.7566906,2.64243336 17.0955917,3.151699 16.5749006,4.59016393 C15.9772302,2.89541866 15.4331859,2.67611591 13.7704918,2.20053283" id="Fill-1" fill="#D6D8E4" opacity="0.5"></path>
                                    <path d="M41.3114754,6.63941814 C41.3114754,6.63941814 47.4636646,5.19538826 49.2089119,0.918032787 C51.7229907,4.4257784 53.0192405,5.94262851 56,6.60943334 C51.9413388,7.78835951 50.1784084,9.11245019 48.7898988,12.852459 C47.1961112,8.44612131 45.7453263,7.87593416 41.3114754,6.63941814" id="Fill-1备份" fill="#D6D8E4" opacity="0.799999952"></path>
                                </g>
                            </g>
                        </g>
                    </g>
                </g>
            </g>
        </g>
    </g>
</svg>